<?xml version="1.0" encoding="utf-8" standalone="no"?>
<!DOCTYPE svg PUBLIC "-//W3C//DTD SVG 1.1//EN"
  "http://www.w3.org/Graphics/SVG/1.1/DTD/svg11.dtd">
<svg xmlns:xlink="http://www.w3.org/1999/xlink" width="460.8pt" height="345.6pt" viewBox="0 0 460.8 345.6" xmlns="http://www.w3.org/2000/svg" version="1.1">
 <metadata>
  <rdf:RDF xmlns:dc="http://purl.org/dc/elements/1.1/" xmlns:cc="http://creativecommons.org/ns#" xmlns:rdf="http://www.w3.org/1999/02/22-rdf-syntax-ns#">
   <cc:Work>
    <dc:type rdf:resource="http://purl.org/dc/dcmitype/StillImage"/>
    <dc:date>2022-05-03T17:47:11.038981</dc:date>
    <dc:format>image/svg+xml</dc:format>
    <dc:creator>
     <cc:Agent>
      <dc:title>Matplotlib v3.5.1, https://matplotlib.org/</dc:title>
     </cc:Agent>
    </dc:creator>
   </cc:Work>
  </rdf:RDF>
 </metadata>
 <defs>
  <style type="text/css">*{stroke-linejoin: round; stroke-linecap: butt}</style>
 </defs>
 <g id="figure_1">
  <g id="patch_1">
   <path d="M 0 345.6 
L 460.8 345.6 
L 460.8 0 
L 0 0 
z
" style="fill: #ffffff"/>
  </g>
  <g id="axes_1">
   <g id="patch_2">
    <path d="M 57.6 307.584 
L 414.72 307.584 
L 414.72 41.472 
L 57.6 41.472 
z
" style="fill: #ffffff"/>
   </g>
   <g id="matplotlib.axis_1">
    <g id="xtick_1">
     <g id="line2d_1">
      <defs>
       <path id="mdf89884c0f" d="M 0 0 
L 0 3.5 
" style="stroke: #000000; stroke-width: 0.8"/>
      </defs>
      <g>
       <use xlink:href="#mdf89884c0f" x="74.605714" y="307.584" style="stroke: #000000; stroke-width: 0.8"/>
      </g>
     </g>
     <g id="text_1">
      <!-- 0.0 -->
      <g transform="translate(66.654152 322.182437)scale(0.1 -0.1)">
       <defs>
        <path id="DejaVuSans-30" d="M 2034 4250 
Q 1547 4250 1301 3770 
Q 1056 3291 1056 2328 
Q 1056 1369 1301 889 
Q 1547 409 2034 409 
Q 2525 409 2770 889 
Q 3016 1369 3016 2328 
Q 3016 3291 2770 3770 
Q 2525 4250 2034 4250 
z
M 2034 4750 
Q 2819 4750 3233 4129 
Q 3647 3509 3647 2328 
Q 3647 1150 3233 529 
Q 2819 -91 2034 -91 
Q 1250 -91 836 529 
Q 422 1150 422 2328 
Q 422 3509 836 4129 
Q 1250 4750 2034 4750 
z
" transform="scale(0.015625)"/>
        <path id="DejaVuSans-2e" d="M 684 794 
L 1344 794 
L 1344 0 
L 684 0 
L 684 794 
z
" transform="scale(0.015625)"/>
       </defs>
       <use xlink:href="#DejaVuSans-30"/>
       <use xlink:href="#DejaVuSans-2e" x="63.623047"/>
       <use xlink:href="#DejaVuSans-30" x="95.410156"/>
      </g>
     </g>
    </g>
    <g id="xtick_2">
     <g id="line2d_2">
      <g>
       <use xlink:href="#mdf89884c0f" x="142.628571" y="307.584" style="stroke: #000000; stroke-width: 0.8"/>
      </g>
     </g>
     <g id="text_2">
      <!-- 0.2 -->
      <g transform="translate(134.677009 322.182437)scale(0.1 -0.1)">
       <defs>
        <path id="DejaVuSans-32" d="M 1228 531 
L 3431 531 
L 3431 0 
L 469 0 
L 469 531 
Q 828 903 1448 1529 
Q 2069 2156 2228 2338 
Q 2531 2678 2651 2914 
Q 2772 3150 2772 3378 
Q 2772 3750 2511 3984 
Q 2250 4219 1831 4219 
Q 1534 4219 1204 4116 
Q 875 4013 500 3803 
L 500 4441 
Q 881 4594 1212 4672 
Q 1544 4750 1819 4750 
Q 2544 4750 2975 4387 
Q 3406 4025 3406 3419 
Q 3406 3131 3298 2873 
Q 3191 2616 2906 2266 
Q 2828 2175 2409 1742 
Q 1991 1309 1228 531 
z
" transform="scale(0.015625)"/>
       </defs>
       <use xlink:href="#DejaVuSans-30"/>
       <use xlink:href="#DejaVuSans-2e" x="63.623047"/>
       <use xlink:href="#DejaVuSans-32" x="95.410156"/>
      </g>
     </g>
    </g>
    <g id="xtick_3">
     <g id="line2d_3">
      <g>
       <use xlink:href="#mdf89884c0f" x="210.651429" y="307.584" style="stroke: #000000; stroke-width: 0.8"/>
      </g>
     </g>
     <g id="text_3">
      <!-- 0.4 -->
      <g transform="translate(202.699866 322.182437)scale(0.1 -0.1)">
       <defs>
        <path id="DejaVuSans-34" d="M 2419 4116 
L 825 1625 
L 2419 1625 
L 2419 4116 
z
M 2253 4666 
L 3047 4666 
L 3047 1625 
L 3713 1625 
L 3713 1100 
L 3047 1100 
L 3047 0 
L 2419 0 
L 2419 1100 
L 313 1100 
L 313 1709 
L 2253 4666 
z
" transform="scale(0.015625)"/>
       </defs>
       <use xlink:href="#DejaVuSans-30"/>
       <use xlink:href="#DejaVuSans-2e" x="63.623047"/>
       <use xlink:href="#DejaVuSans-34" x="95.410156"/>
      </g>
     </g>
    </g>
    <g id="xtick_4">
     <g id="line2d_4">
      <g>
       <use xlink:href="#mdf89884c0f" x="278.674286" y="307.584" style="stroke: #000000; stroke-width: 0.8"/>
      </g>
     </g>
     <g id="text_4">
      <!-- 0.6 -->
      <g transform="translate(270.722723 322.182437)scale(0.1 -0.1)">
       <defs>
        <path id="DejaVuSans-36" d="M 2113 2584 
Q 1688 2584 1439 2293 
Q 1191 2003 1191 1497 
Q 1191 994 1439 701 
Q 1688 409 2113 409 
Q 2538 409 2786 701 
Q 3034 994 3034 1497 
Q 3034 2003 2786 2293 
Q 2538 2584 2113 2584 
z
M 3366 4563 
L 3366 3988 
Q 3128 4100 2886 4159 
Q 2644 4219 2406 4219 
Q 1781 4219 1451 3797 
Q 1122 3375 1075 2522 
Q 1259 2794 1537 2939 
Q 1816 3084 2150 3084 
Q 2853 3084 3261 2657 
Q 3669 2231 3669 1497 
Q 3669 778 3244 343 
Q 2819 -91 2113 -91 
Q 1303 -91 875 529 
Q 447 1150 447 2328 
Q 447 3434 972 4092 
Q 1497 4750 2381 4750 
Q 2619 4750 2861 4703 
Q 3103 4656 3366 4563 
z
" transform="scale(0.015625)"/>
       </defs>
       <use xlink:href="#DejaVuSans-30"/>
       <use xlink:href="#DejaVuSans-2e" x="63.623047"/>
       <use xlink:href="#DejaVuSans-36" x="95.410156"/>
      </g>
     </g>
    </g>
    <g id="xtick_5">
     <g id="line2d_5">
      <g>
       <use xlink:href="#mdf89884c0f" x="346.697143" y="307.584" style="stroke: #000000; stroke-width: 0.8"/>
      </g>
     </g>
     <g id="text_5">
      <!-- 0.8 -->
      <g transform="translate(338.74558 322.182437)scale(0.1 -0.1)">
       <defs>
        <path id="DejaVuSans-38" d="M 2034 2216 
Q 1584 2216 1326 1975 
Q 1069 1734 1069 1313 
Q 1069 891 1326 650 
Q 1584 409 2034 409 
Q 2484 409 2743 651 
Q 3003 894 3003 1313 
Q 3003 1734 2745 1975 
Q 2488 2216 2034 2216 
z
M 1403 2484 
Q 997 2584 770 2862 
Q 544 3141 544 3541 
Q 544 4100 942 4425 
Q 1341 4750 2034 4750 
Q 2731 4750 3128 4425 
Q 3525 4100 3525 3541 
Q 3525 3141 3298 2862 
Q 3072 2584 2669 2484 
Q 3125 2378 3379 2068 
Q 3634 1759 3634 1313 
Q 3634 634 3220 271 
Q 2806 -91 2034 -91 
Q 1263 -91 848 271 
Q 434 634 434 1313 
Q 434 1759 690 2068 
Q 947 2378 1403 2484 
z
M 1172 3481 
Q 1172 3119 1398 2916 
Q 1625 2713 2034 2713 
Q 2441 2713 2670 2916 
Q 2900 3119 2900 3481 
Q 2900 3844 2670 4047 
Q 2441 4250 2034 4250 
Q 1625 4250 1398 4047 
Q 1172 3844 1172 3481 
z
" transform="scale(0.015625)"/>
       </defs>
       <use xlink:href="#DejaVuSans-30"/>
       <use xlink:href="#DejaVuSans-2e" x="63.623047"/>
       <use xlink:href="#DejaVuSans-38" x="95.410156"/>
      </g>
     </g>
    </g>
    <g id="xtick_6">
     <g id="line2d_6">
      <g>
       <use xlink:href="#mdf89884c0f" x="414.72" y="307.584" style="stroke: #000000; stroke-width: 0.8"/>
      </g>
     </g>
     <g id="text_6">
      <!-- 1.0 -->
      <g transform="translate(406.768438 322.182437)scale(0.1 -0.1)">
       <defs>
        <path id="DejaVuSans-31" d="M 794 531 
L 1825 531 
L 1825 4091 
L 703 3866 
L 703 4441 
L 1819 4666 
L 2450 4666 
L 2450 531 
L 3481 531 
L 3481 0 
L 794 0 
L 794 531 
z
" transform="scale(0.015625)"/>
       </defs>
       <use xlink:href="#DejaVuSans-31"/>
       <use xlink:href="#DejaVuSans-2e" x="63.623047"/>
       <use xlink:href="#DejaVuSans-30" x="95.410156"/>
      </g>
     </g>
    </g>
    <g id="text_7">
     <!-- False Positive Rate -->
     <g transform="translate(189.693594 335.860562)scale(0.1 -0.1)">
      <defs>
       <path id="DejaVuSans-46" d="M 628 4666 
L 3309 4666 
L 3309 4134 
L 1259 4134 
L 1259 2759 
L 3109 2759 
L 3109 2228 
L 1259 2228 
L 1259 0 
L 628 0 
L 628 4666 
z
" transform="scale(0.015625)"/>
       <path id="DejaVuSans-61" d="M 2194 1759 
Q 1497 1759 1228 1600 
Q 959 1441 959 1056 
Q 959 750 1161 570 
Q 1363 391 1709 391 
Q 2188 391 2477 730 
Q 2766 1069 2766 1631 
L 2766 1759 
L 2194 1759 
z
M 3341 1997 
L 3341 0 
L 2766 0 
L 2766 531 
Q 2569 213 2275 61 
Q 1981 -91 1556 -91 
Q 1019 -91 701 211 
Q 384 513 384 1019 
Q 384 1609 779 1909 
Q 1175 2209 1959 2209 
L 2766 2209 
L 2766 2266 
Q 2766 2663 2505 2880 
Q 2244 3097 1772 3097 
Q 1472 3097 1187 3025 
Q 903 2953 641 2809 
L 641 3341 
Q 956 3463 1253 3523 
Q 1550 3584 1831 3584 
Q 2591 3584 2966 3190 
Q 3341 2797 3341 1997 
z
" transform="scale(0.015625)"/>
       <path id="DejaVuSans-6c" d="M 603 4863 
L 1178 4863 
L 1178 0 
L 603 0 
L 603 4863 
z
" transform="scale(0.015625)"/>
       <path id="DejaVuSans-73" d="M 2834 3397 
L 2834 2853 
Q 2591 2978 2328 3040 
Q 2066 3103 1784 3103 
Q 1356 3103 1142 2972 
Q 928 2841 928 2578 
Q 928 2378 1081 2264 
Q 1234 2150 1697 2047 
L 1894 2003 
Q 2506 1872 2764 1633 
Q 3022 1394 3022 966 
Q 3022 478 2636 193 
Q 2250 -91 1575 -91 
Q 1294 -91 989 -36 
Q 684 19 347 128 
L 347 722 
Q 666 556 975 473 
Q 1284 391 1588 391 
Q 1994 391 2212 530 
Q 2431 669 2431 922 
Q 2431 1156 2273 1281 
Q 2116 1406 1581 1522 
L 1381 1569 
Q 847 1681 609 1914 
Q 372 2147 372 2553 
Q 372 3047 722 3315 
Q 1072 3584 1716 3584 
Q 2034 3584 2315 3537 
Q 2597 3491 2834 3397 
z
" transform="scale(0.015625)"/>
       <path id="DejaVuSans-65" d="M 3597 1894 
L 3597 1613 
L 953 1613 
Q 991 1019 1311 708 
Q 1631 397 2203 397 
Q 2534 397 2845 478 
Q 3156 559 3463 722 
L 3463 178 
Q 3153 47 2828 -22 
Q 2503 -91 2169 -91 
Q 1331 -91 842 396 
Q 353 884 353 1716 
Q 353 2575 817 3079 
Q 1281 3584 2069 3584 
Q 2775 3584 3186 3129 
Q 3597 2675 3597 1894 
z
M 3022 2063 
Q 3016 2534 2758 2815 
Q 2500 3097 2075 3097 
Q 1594 3097 1305 2825 
Q 1016 2553 972 2059 
L 3022 2063 
z
" transform="scale(0.015625)"/>
       <path id="DejaVuSans-20" transform="scale(0.015625)"/>
       <path id="DejaVuSans-50" d="M 1259 4147 
L 1259 2394 
L 2053 2394 
Q 2494 2394 2734 2622 
Q 2975 2850 2975 3272 
Q 2975 3691 2734 3919 
Q 2494 4147 2053 4147 
L 1259 4147 
z
M 628 4666 
L 2053 4666 
Q 2838 4666 3239 4311 
Q 3641 3956 3641 3272 
Q 3641 2581 3239 2228 
Q 2838 1875 2053 1875 
L 1259 1875 
L 1259 0 
L 628 0 
L 628 4666 
z
" transform="scale(0.015625)"/>
       <path id="DejaVuSans-6f" d="M 1959 3097 
Q 1497 3097 1228 2736 
Q 959 2375 959 1747 
Q 959 1119 1226 758 
Q 1494 397 1959 397 
Q 2419 397 2687 759 
Q 2956 1122 2956 1747 
Q 2956 2369 2687 2733 
Q 2419 3097 1959 3097 
z
M 1959 3584 
Q 2709 3584 3137 3096 
Q 3566 2609 3566 1747 
Q 3566 888 3137 398 
Q 2709 -91 1959 -91 
Q 1206 -91 779 398 
Q 353 888 353 1747 
Q 353 2609 779 3096 
Q 1206 3584 1959 3584 
z
" transform="scale(0.015625)"/>
       <path id="DejaVuSans-69" d="M 603 3500 
L 1178 3500 
L 1178 0 
L 603 0 
L 603 3500 
z
M 603 4863 
L 1178 4863 
L 1178 4134 
L 603 4134 
L 603 4863 
z
" transform="scale(0.015625)"/>
       <path id="DejaVuSans-74" d="M 1172 4494 
L 1172 3500 
L 2356 3500 
L 2356 3053 
L 1172 3053 
L 1172 1153 
Q 1172 725 1289 603 
Q 1406 481 1766 481 
L 2356 481 
L 2356 0 
L 1766 0 
Q 1100 0 847 248 
Q 594 497 594 1153 
L 594 3053 
L 172 3053 
L 172 3500 
L 594 3500 
L 594 4494 
L 1172 4494 
z
" transform="scale(0.015625)"/>
       <path id="DejaVuSans-76" d="M 191 3500 
L 800 3500 
L 1894 563 
L 2988 3500 
L 3597 3500 
L 2284 0 
L 1503 0 
L 191 3500 
z
" transform="scale(0.015625)"/>
       <path id="DejaVuSans-52" d="M 2841 2188 
Q 3044 2119 3236 1894 
Q 3428 1669 3622 1275 
L 4263 0 
L 3584 0 
L 2988 1197 
Q 2756 1666 2539 1819 
Q 2322 1972 1947 1972 
L 1259 1972 
L 1259 0 
L 628 0 
L 628 4666 
L 2053 4666 
Q 2853 4666 3247 4331 
Q 3641 3997 3641 3322 
Q 3641 2881 3436 2590 
Q 3231 2300 2841 2188 
z
M 1259 4147 
L 1259 2491 
L 2053 2491 
Q 2509 2491 2742 2702 
Q 2975 2913 2975 3322 
Q 2975 3731 2742 3939 
Q 2509 4147 2053 4147 
L 1259 4147 
z
" transform="scale(0.015625)"/>
      </defs>
      <use xlink:href="#DejaVuSans-46"/>
      <use xlink:href="#DejaVuSans-61" x="48.394531"/>
      <use xlink:href="#DejaVuSans-6c" x="109.673828"/>
      <use xlink:href="#DejaVuSans-73" x="137.457031"/>
      <use xlink:href="#DejaVuSans-65" x="189.556641"/>
      <use xlink:href="#DejaVuSans-20" x="251.080078"/>
      <use xlink:href="#DejaVuSans-50" x="282.867188"/>
      <use xlink:href="#DejaVuSans-6f" x="339.544922"/>
      <use xlink:href="#DejaVuSans-73" x="400.726562"/>
      <use xlink:href="#DejaVuSans-69" x="452.826172"/>
      <use xlink:href="#DejaVuSans-74" x="480.609375"/>
      <use xlink:href="#DejaVuSans-69" x="519.818359"/>
      <use xlink:href="#DejaVuSans-76" x="547.601562"/>
      <use xlink:href="#DejaVuSans-65" x="606.78125"/>
      <use xlink:href="#DejaVuSans-20" x="668.304688"/>
      <use xlink:href="#DejaVuSans-52" x="700.091797"/>
      <use xlink:href="#DejaVuSans-61" x="767.324219"/>
      <use xlink:href="#DejaVuSans-74" x="828.603516"/>
      <use xlink:href="#DejaVuSans-65" x="867.8125"/>
     </g>
    </g>
   </g>
   <g id="matplotlib.axis_2">
    <g id="ytick_1">
     <g id="line2d_7">
      <defs>
       <path id="m356b9ead96" d="M 0 0 
L -3.5 0 
" style="stroke: #000000; stroke-width: 0.8"/>
      </defs>
      <g>
       <use xlink:href="#m356b9ead96" x="57.6" y="307.584" style="stroke: #000000; stroke-width: 0.8"/>
      </g>
     </g>
     <g id="text_8">
      <!-- 0.0 -->
      <g transform="translate(34.696875 311.383219)scale(0.1 -0.1)">
       <use xlink:href="#DejaVuSans-30"/>
       <use xlink:href="#DejaVuSans-2e" x="63.623047"/>
       <use xlink:href="#DejaVuSans-30" x="95.410156"/>
      </g>
     </g>
    </g>
    <g id="ytick_2">
     <g id="line2d_8">
      <g>
       <use xlink:href="#m356b9ead96" x="57.6" y="256.896" style="stroke: #000000; stroke-width: 0.8"/>
      </g>
     </g>
     <g id="text_9">
      <!-- 0.2 -->
      <g transform="translate(34.696875 260.695219)scale(0.1 -0.1)">
       <use xlink:href="#DejaVuSans-30"/>
       <use xlink:href="#DejaVuSans-2e" x="63.623047"/>
       <use xlink:href="#DejaVuSans-32" x="95.410156"/>
      </g>
     </g>
    </g>
    <g id="ytick_3">
     <g id="line2d_9">
      <g>
       <use xlink:href="#m356b9ead96" x="57.6" y="206.208" style="stroke: #000000; stroke-width: 0.8"/>
      </g>
     </g>
     <g id="text_10">
      <!-- 0.4 -->
      <g transform="translate(34.696875 210.007219)scale(0.1 -0.1)">
       <use xlink:href="#DejaVuSans-30"/>
       <use xlink:href="#DejaVuSans-2e" x="63.623047"/>
       <use xlink:href="#DejaVuSans-34" x="95.410156"/>
      </g>
     </g>
    </g>
    <g id="ytick_4">
     <g id="line2d_10">
      <g>
       <use xlink:href="#m356b9ead96" x="57.6" y="155.52" style="stroke: #000000; stroke-width: 0.8"/>
      </g>
     </g>
     <g id="text_11">
      <!-- 0.6 -->
      <g transform="translate(34.696875 159.319219)scale(0.1 -0.1)">
       <use xlink:href="#DejaVuSans-30"/>
       <use xlink:href="#DejaVuSans-2e" x="63.623047"/>
       <use xlink:href="#DejaVuSans-36" x="95.410156"/>
      </g>
     </g>
    </g>
    <g id="ytick_5">
     <g id="line2d_11">
      <g>
       <use xlink:href="#m356b9ead96" x="57.6" y="104.832" style="stroke: #000000; stroke-width: 0.8"/>
      </g>
     </g>
     <g id="text_12">
      <!-- 0.8 -->
      <g transform="translate(34.696875 108.631219)scale(0.1 -0.1)">
       <use xlink:href="#DejaVuSans-30"/>
       <use xlink:href="#DejaVuSans-2e" x="63.623047"/>
       <use xlink:href="#DejaVuSans-38" x="95.410156"/>
      </g>
     </g>
    </g>
    <g id="ytick_6">
     <g id="line2d_12">
      <g>
       <use xlink:href="#m356b9ead96" x="57.6" y="54.144" style="stroke: #000000; stroke-width: 0.8"/>
      </g>
     </g>
     <g id="text_13">
      <!-- 1.0 -->
      <g transform="translate(34.696875 57.943219)scale(0.1 -0.1)">
       <use xlink:href="#DejaVuSans-31"/>
       <use xlink:href="#DejaVuSans-2e" x="63.623047"/>
       <use xlink:href="#DejaVuSans-30" x="95.410156"/>
      </g>
     </g>
    </g>
    <g id="text_14">
     <!-- True Positive Rate -->
     <g transform="translate(28.617187 219.057687)rotate(-90)scale(0.1 -0.1)">
      <defs>
       <path id="DejaVuSans-54" d="M -19 4666 
L 3928 4666 
L 3928 4134 
L 2272 4134 
L 2272 0 
L 1638 0 
L 1638 4134 
L -19 4134 
L -19 4666 
z
" transform="scale(0.015625)"/>
       <path id="DejaVuSans-72" d="M 2631 2963 
Q 2534 3019 2420 3045 
Q 2306 3072 2169 3072 
Q 1681 3072 1420 2755 
Q 1159 2438 1159 1844 
L 1159 0 
L 581 0 
L 581 3500 
L 1159 3500 
L 1159 2956 
Q 1341 3275 1631 3429 
Q 1922 3584 2338 3584 
Q 2397 3584 2469 3576 
Q 2541 3569 2628 3553 
L 2631 2963 
z
" transform="scale(0.015625)"/>
       <path id="DejaVuSans-75" d="M 544 1381 
L 544 3500 
L 1119 3500 
L 1119 1403 
Q 1119 906 1312 657 
Q 1506 409 1894 409 
Q 2359 409 2629 706 
Q 2900 1003 2900 1516 
L 2900 3500 
L 3475 3500 
L 3475 0 
L 2900 0 
L 2900 538 
Q 2691 219 2414 64 
Q 2138 -91 1772 -91 
Q 1169 -91 856 284 
Q 544 659 544 1381 
z
M 1991 3584 
L 1991 3584 
z
" transform="scale(0.015625)"/>
      </defs>
      <use xlink:href="#DejaVuSans-54"/>
      <use xlink:href="#DejaVuSans-72" x="46.333984"/>
      <use xlink:href="#DejaVuSans-75" x="87.447266"/>
      <use xlink:href="#DejaVuSans-65" x="150.826172"/>
      <use xlink:href="#DejaVuSans-20" x="212.349609"/>
      <use xlink:href="#DejaVuSans-50" x="244.136719"/>
      <use xlink:href="#DejaVuSans-6f" x="300.814453"/>
      <use xlink:href="#DejaVuSans-73" x="361.996094"/>
      <use xlink:href="#DejaVuSans-69" x="414.095703"/>
      <use xlink:href="#DejaVuSans-74" x="441.878906"/>
      <use xlink:href="#DejaVuSans-69" x="481.087891"/>
      <use xlink:href="#DejaVuSans-76" x="508.871094"/>
      <use xlink:href="#DejaVuSans-65" x="568.050781"/>
      <use xlink:href="#DejaVuSans-20" x="629.574219"/>
      <use xlink:href="#DejaVuSans-52" x="661.361328"/>
      <use xlink:href="#DejaVuSans-61" x="728.59375"/>
      <use xlink:href="#DejaVuSans-74" x="789.873047"/>
      <use xlink:href="#DejaVuSans-65" x="829.082031"/>
     </g>
    </g>
   </g>
   <g id="line2d_13">
    <path d="M 74.605714 307.584 
L 74.751479 302.339229 
L 74.758405 302.235741 
L 74.86946 300.497143 
L 74.889863 300.387446 
L 75.00096 299.122823 
L 75.019538 299.019335 
L 75.019538 299.013125 
L 75.130303 298.257663 
L 75.13051 298.257663 
L 75.159456 298.160384 
L 75.159456 298.152105 
L 75.270428 297.713316 
L 75.270553 297.713316 
L 75.278805 297.68227 
L 75.389778 296.879203 
L 75.38986 296.879203 
L 75.408148 296.769506 
L 75.518582 296.202392 
L 75.518748 296.202392 
L 75.583813 296.092694 
L 75.686533 295.918835 
L 75.688026 295.918835 
L 75.846439 295.809137 
L 75.946505 295.420023 
L 75.94663 295.420023 
L 76.018745 295.310325 
L 76.126068 295.088861 
L 76.126566 295.088861 
L 76.284813 294.979164 
L 76.394251 294.828071 
L 76.39591 294.828071 
L 356.00732 294.718374 
L 356.041367 294.712165 
L 356.063802 294.712165 
L 356.193104 294.685258 
L 356.193104 294.615921 
L 356.279899 294.569351 
L 356.303786 294.569351 
L 357.607212 294.472073 
L 357.607212 294.463794 
L 357.694837 294.397561 
L 357.717272 294.397561 
L 358.11484 294.289934 
L 358.216026 294.250608 
L 358.225792 294.250608 
L 358.623878 294.140911 
L 358.724649 294.118144 
L 358.734933 294.118144 
L 359.431081 294.008446 
L 359.524014 293.993958 
L 359.542095 293.993958 
L 360.152857 293.927726 
L 360.152857 293.889435 
L 360.239653 293.853214 
L 360.241809 293.853214 
L 361.133237 293.811819 
L 361.133237 293.772494 
L 361.234505 293.71868 
L 361.239233 293.71868 
L 362.077289 293.608983 
L 362.18569 293.598634 
L 362.187598 293.598634 
L 363.381504 293.534471 
L 363.447358 278.025762 
L 363.480699 278.025762 
L 364.469165 277.916065 
L 364.578769 277.87467 
L 364.580262 277.87467 
L 365.49964 277.841554 
L 365.49964 277.790845 
L 365.567608 275.939445 
L 365.610612 275.939445 
L 365.938055 275.929096 
L 366.014815 264.572325 
L 366.029578 264.572325 
L 366.071504 264.572325 
L 366.071504 264.507127 
L 366.158258 264.421232 
L 366.173394 264.421232 
L 366.505814 264.355 
L 366.505814 264.35086 
L 366.577597 264.189419 
L 366.601608 264.189419 
L 367.67855 264.102489 
L 367.786391 262.481867 
L 367.875923 262.471519 
L 367.875923 262.380449 
L 367.986274 262.276961 
L 367.98702 262.276961 
L 368.210126 262.258333 
L 368.210126 262.206589 
L 368.291738 262.080334 
L 368.305796 262.080334 
L 368.558718 262.043078 
L 368.558718 262.017206 
L 368.612421 260.467991 
L 368.625277 260.467991 
L 368.975072 260.358294 
L 369.074433 260.244457 
L 369.085173 260.244457 
L 369.235832 260.21755 
L 369.329304 258.708696 
L 369.346638 258.708696 
L 369.539803 258.661091 
L 369.539803 258.603138 
L 369.61959 258.570022 
L 369.649531 258.570022 
L 370.164831 258.460324 
L 370.243498 258.418929 
L 370.269624 258.418929 
L 370.61606 258.309232 
L 370.713555 258.286465 
L 370.715255 258.286465 
L 371.111662 258.193325 
L 371.111662 258.178837 
L 371.220477 258.145721 
L 371.222655 258.145721 
L 371.516777 258.100186 
L 371.622731 256.158752 
L 371.62468 256.158752 
L 371.736648 256.075961 
L 371.764184 255.993171 
L 371.843888 255.993171 
L 372.359519 255.91038 
L 372.359519 255.905206 
L 372.422926 255.871055 
L 372.464914 255.871055 
L 372.830032 255.788265 
L 372.915708 255.382592 
L 372.940299 255.382592 
L 373.198986 255.299801 
L 373.198986 255.293592 
L 373.298471 255.065919 
L 373.298595 255.065919 
L 373.353667 255.063849 
L 373.353667 254.96657 
L 373.460036 254.788571 
L 373.460928 254.788571 
L 373.544302 254.763734 
L 373.544302 254.716129 
L 373.651957 254.544339 
L 373.655378 254.544339 
L 373.793451 254.455339 
L 373.793451 254.441886 
L 373.897415 254.146945 
L 373.903946 254.146945 
L 373.944234 254.039318 
L 374.05052 253.646063 
L 374.052303 253.646063 
L 374.392021 253.536366 
L 374.475333 253.453576 
L 374.503118 253.453576 
L 374.617034 253.412181 
L 374.724938 252.402138 
L 374.728131 252.402138 
L 375.139923 252.292441 
L 375.246873 252.197232 
L 375.2708 252.191022 
L 375.2708 252.091674 
L 375.378331 248.105317 
L 375.381856 248.105317 
L 375.430292 247.99562 
L 375.520778 247.660318 
L 375.531146 247.660318 
L 375.588539 247.612714 
L 375.64697 240.650043 
L 375.672722 240.650043 
L 375.890603 240.590019 
L 375.99324 239.933906 
L 375.996972 239.933906 
L 376.085634 239.840766 
L 376.085634 239.827313 
L 376.157376 239.751767 
L 376.164302 239.751767 
L 376.272827 239.733139 
L 376.272827 239.659663 
L 376.378574 239.397838 
L 376.382265 239.397838 
L 376.500536 239.339885 
L 376.500536 239.29642 
L 376.600436 239.045979 
L 376.606283 239.045979 
L 376.978057 238.963188 
L 376.978057 238.949735 
L 377.064148 238.679631 
L 377.076982 238.679631 
L 377.298782 238.578213 
L 377.298782 238.570969 
L 377.40088 238.309144 
L 377.40739 238.309144 
L 377.701782 238.205656 
L 377.812754 238.102168 
L 377.946286 238.060773 
L 377.946286 238.016273 
L 378.047679 233.95644 
L 378.053858 233.95644 
L 378.152389 233.925393 
L 378.152389 233.897452 
L 378.262035 233.660464 
L 378.263465 233.660464 
L 378.323451 233.559046 
L 378.323451 233.553872 
L 378.432101 233.374837 
L 378.432516 233.374837 
L 378.493351 233.364489 
L 378.493351 233.285838 
L 378.597813 233.186489 
L 378.597854 233.186489 
L 378.637209 233.163722 
L 378.637209 233.159582 
L 378.746356 232.979513 
L 378.748077 232.979513 
L 378.772358 232.898793 
L 378.772358 232.87706 
L 378.870599 232.741491 
L 378.874248 232.741491 
L 378.950262 232.642142 
L 378.950262 232.633863 
L 379.025985 232.464143 
L 379.061193 232.464143 
L 379.333523 232.362725 
L 379.333523 232.36169 
L 379.4435 232.0564 
L 379.443997 232.0564 
L 379.690409 231.946703 
L 379.781973 231.791471 
L 379.801402 231.791471 
L 380.124014 231.681774 
L 380.216449 231.02566 
L 380.233908 231.02566 
L 380.29014 231.000823 
L 380.29014 230.931486 
L 380.399537 230.824893 
L 380.400968 230.824893 
L 380.424501 230.797987 
L 380.424501 230.714161 
L 380.508726 230.630336 
L 380.512375 230.630336 
L 380.638111 230.555825 
L 380.638111 230.532022 
L 380.747922 230.185338 
L 380.749207 230.185338 
L 380.831773 230.16257 
L 380.831773 230.132559 
L 380.923752 227.949997 
L 380.940547 227.949997 
L 380.981353 227.873416 
L 380.981353 227.867207 
L 381.084115 227.647812 
L 381.085566 227.647812 
L 381.224779 227.538115 
L 381.325426 227.473953 
L 381.332061 227.473953 
L 381.479734 227.364255 
L 381.575984 227.289744 
L 381.589793 227.289744 
L 381.733029 227.194535 
L 381.841389 225.751913 
L 381.842591 225.751913 
L 381.852668 225.64325 
L 381.852668 225.642215 
L 381.948836 225.379356 
L 381.955305 225.379356 
L 382.072622 225.362798 
L 382.072622 225.285182 
L 382.18065 224.868125 
L 382.183387 224.868125 
L 382.410433 224.760498 
L 382.410433 224.758428 
L 382.502039 224.534894 
L 382.51506 224.534894 
L 382.668912 224.429336 
L 382.668912 224.428301 
L 382.774908 224.073337 
L 382.778308 224.073337 
L 382.798463 224.027803 
L 382.798463 223.966745 
L 382.903836 223.827036 
L 382.909518 223.827036 
L 383.022232 223.717339 
L 383.133329 223.595223 
L 383.178821 223.568316 
L 383.178821 223.527956 
L 383.286766 223.146085 
L 383.288818 223.146085 
L 383.406778 223.036388 
L 383.509664 222.767319 
L 383.51491 222.767319 
L 383.593018 222.750761 
L 383.698309 220.196678 
L 383.703658 220.196678 
L 383.740732 220.120096 
L 383.740732 220.112852 
L 383.851289 219.861377 
L 383.851435 219.861377 
L 383.899228 219.840679 
L 383.899228 219.752714 
L 383.995064 218.696102 
L 384.008334 218.696102 
L 384.086172 218.62573 
L 384.086172 218.592614 
L 384.18176 218.45187 
L 384.194968 218.45187 
L 384.390227 218.344243 
L 384.497218 218.184871 
L 384.497508 218.184871 
L 384.583848 218.085523 
L 384.687977 217.905454 
L 384.688392 217.905454 
L 384.869945 217.808175 
L 384.869945 217.803001 
L 384.978388 217.696408 
L 384.980358 217.696408 
L 385.048596 217.609478 
L 385.048596 217.585676 
L 385.156748 217.154131 
L 385.158884 217.154131 
L 385.325114 217.065131 
L 385.325114 217.053748 
L 385.411163 216.864365 
L 385.435133 216.864365 
L 385.56514 216.775365 
L 385.56514 216.758807 
L 385.678393 215.95367 
L 385.757558 215.850182 
L 385.757558 215.842938 
L 385.856006 215.500393 
L 385.856463 215.500393 
L 385.972577 215.390696 
L 386.079361 213.312657 
L 386.083218 213.312657 
L 386.207294 213.213309 
L 386.207294 213.20296 
L 386.313249 212.962868 
L 386.316193 212.962868 
L 386.368859 212.909054 
L 386.368859 212.867659 
L 386.477509 212.503381 
L 386.477924 212.503381 
L 386.541538 212.393684 
L 386.650561 211.983871 
L 386.65164 211.983871 
L 386.728648 211.892802 
L 386.728648 211.876244 
L 386.838211 211.555431 
L 386.838812 211.555431 
L 386.869023 211.526454 
L 386.869023 211.493338 
L 386.939562 209.022045 
L 386.952563 209.022045 
L 387.024367 208.914418 
L 387.024367 208.913383 
L 387.135381 208.649488 
L 387.135422 208.649488 
L 387.243865 208.543931 
L 387.243865 208.539791 
L 387.346129 208.370071 
L 387.350151 208.370071 
L 387.435827 208.260374 
L 387.535727 208.146537 
L 387.539605 208.146537 
L 387.621693 208.040979 
L 387.621693 208.035805 
L 387.719395 207.763631 
L 387.730053 207.763631 
L 387.839118 207.678771 
L 387.839118 207.658074 
L 387.947021 206.378962 
L 387.949592 206.378962 
L 387.984427 206.335497 
L 387.984427 206.273404 
L 388.085405 205.871871 
L 388.093906 205.871871 
L 388.177758 205.764244 
L 388.286366 205.219897 
L 388.288709 205.219897 
L 388.441877 205.145385 
L 388.441877 205.139176 
L 388.551937 204.081529 
L 388.552953 204.081529 
L 388.594318 203.971832 
L 388.696001 203.905599 
L 388.703445 203.905599 
L 388.843757 203.795902 
L 388.953154 203.624112 
L 388.95419 203.624112 
L 388.970281 203.605484 
L 388.970281 203.568229 
L 389.080921 203.278462 
L 389.081336 203.278462 
L 389.122017 203.199811 
L 389.122017 203.168765 
L 389.226354 202.891417 
L 389.233114 202.891417 
L 389.284536 202.806557 
L 389.395467 202.529209 
L 389.431089 202.491954 
L 389.431089 202.479535 
L 389.539532 196.168838 
L 389.542144 196.168838 
L 389.5533 196.059141 
L 389.656517 195.763165 
L 389.660353 195.763165 
L 389.705576 195.653468 
L 389.812069 194.380565 
L 389.813604 194.380565 
L 389.847152 194.301915 
L 389.953563 194.099078 
L 389.958125 194.099078 
L 390.060886 193.989381 
L 390.171319 193.455383 
L 390.171838 193.455383 
L 390.236053 193.362244 
L 390.342961 192.397736 
L 390.343189 192.397736 
L 390.398489 192.327364 
L 390.398489 192.310806 
L 390.503282 192.037597 
L 390.50349 192.037597 
L 390.569426 191.938249 
L 390.569426 191.9279 
L 390.650914 191.799575 
L 390.680481 191.799575 
L 390.733396 191.704366 
L 390.843249 189.568374 
L 390.844327 189.568374 
L 390.876673 189.458677 
L 390.976366 189.228934 
L 390.984059 189.228934 
L 391.04703 189.142004 
L 391.04703 189.12855 
L 391.158044 188.875005 
L 391.20818 188.767377 
L 391.310278 188.388611 
L 391.319132 188.388611 
L 391.335367 188.326518 
L 391.335367 188.298577 
L 391.445717 187.985008 
L 391.446464 187.985008 
L 391.498923 187.887729 
L 391.498923 187.884625 
L 391.606992 187.099151 
L 391.607034 187.099151 
L 391.697852 186.991523 
L 391.802935 185.805551 
L 391.805341 185.805551 
L 391.811561 185.799342 
L 391.811561 185.77554 
L 391.915649 183.864117 
L 391.916873 183.864117 
L 391.978061 183.754419 
L 392.08895 183.437746 
L 392.089137 183.437746 
L 392.109312 183.330119 
L 392.109312 183.327014 
L 392.218874 182.934795 
L 392.219372 182.934795 
L 392.256611 182.845795 
L 392.256611 182.837516 
L 392.367335 182.506354 
L 392.367708 182.506354 
L 392.438579 182.396657 
L 392.543829 181.819194 
L 392.544368 181.819194 
L 392.667574 181.708462 
L 392.778671 181.525288 
L 392.851491 181.434219 
L 392.851491 181.417661 
L 392.962173 181.123755 
L 392.962297 181.123755 
L 393.052535 181.014058 
L 393.163341 176.85591 
L 393.163632 176.85591 
L 393.205143 176.746213 
L 393.315534 176.226703 
L 393.316239 176.226703 
L 393.330671 176.189448 
L 393.432976 175.554032 
L 393.433183 175.554032 
L 393.508409 175.491939 
L 393.508409 175.457788 
L 393.616644 174.779941 
L 393.619381 174.779941 
L 393.66732 174.670244 
L 393.775845 174.438431 
L 393.777774 174.438431 
L 393.823867 174.328734 
L 393.932019 173.881666 
L 393.934943 173.881666 
L 393.975148 173.776108 
L 394.086244 173.467714 
L 394.12083 173.407691 
L 394.12083 173.382854 
L 394.226784 172.741228 
L 394.227821 172.741228 
L 394.290855 172.631531 
L 394.401578 171.184769 
L 394.401744 171.184769 
L 394.440228 171.09163 
L 394.440228 171.075072 
L 394.550723 170.681817 
L 394.551283 170.681817 
L 394.605359 170.57626 
L 394.605359 170.573155 
L 394.716041 169.961541 
L 394.716414 169.961541 
L 394.763524 169.853914 
L 394.866451 169.528961 
L 394.866638 169.528961 
L 394.914473 169.419264 
L 394.914473 169.418229 
L 395.018354 167.200482 
L 395.025569 167.200482 
L 395.029011 167.192203 
L 395.029011 167.13011 
L 395.139901 166.534019 
L 395.140087 166.534019 
L 395.1839 166.426392 
L 395.1839 166.423287 
L 395.29031 166.167672 
L 395.290766 166.167672 
L 395.32614 166.062114 
L 395.32614 166.056939 
L 395.436573 165.797185 
L 395.437195 165.797185 
L 395.467924 165.710255 
L 395.578938 164.874072 
L 395.579021 164.874072 
L 395.660425 164.764375 
L 395.758749 164.445632 
L 395.766338 164.445632 
L 395.810296 164.335934 
L 395.912684 163.965447 
L 395.920833 163.965447 
L 395.967175 163.901285 
L 396.076323 162.808452 
L 396.07823 162.808452 
L 396.104688 162.700824 
L 396.206951 162.458662 
L 396.215225 162.458662 
L 396.236063 162.431755 
L 396.236063 162.362418 
L 396.346828 161.984687 
L 396.386141 161.87706 
L 396.490727 161.547968 
L 396.496947 161.547968 
L 396.522036 161.440341 
L 396.522036 161.438271 
L 396.632221 161.152644 
L 396.633133 161.152644 
L 396.675598 161.042947 
L 396.675598 161.041912 
L 396.786114 159.900439 
L 396.786404 159.900439 
L 396.83032 159.790742 
L 396.939302 159.194651 
L 396.941417 159.194651 
L 396.947928 159.192582 
L 396.947928 159.173954 
L 397.055873 158.68756 
L 397.058506 158.68756 
L 397.072005 158.577863 
L 397.177503 158.310864 
L 397.182645 158.310864 
L 397.231745 158.209446 
L 397.231745 158.204271 
L 397.337326 157.718913 
L 397.342842 157.718913 
L 397.39219 157.617494 
L 397.39219 157.608181 
L 397.502167 157.234589 
L 397.503287 157.234589 
L 397.555414 157.129031 
L 397.665142 156.543289 
L 397.665184 156.543289 
L 397.696908 156.437731 
L 397.696908 156.436697 
L 397.799047 153.914694 
L 397.80336 153.914694 
L 397.830647 153.821555 
L 397.830647 153.816381 
L 397.939753 153.337231 
L 397.941412 153.337231 
L 397.985328 153.26065 
L 397.985328 153.228569 
L 398.096425 152.598327 
L 398.114381 152.48863 
L 398.224607 151.010822 
L 398.225478 151.010822 
L 398.229044 150.901124 
L 398.33898 150.487172 
L 398.340141 150.487172 
L 398.345117 150.476824 
L 398.345117 150.409556 
L 398.453518 149.926268 
L 398.456214 149.926268 
L 398.491795 149.81657 
L 398.600071 149.344665 
L 398.602601 149.344665 
L 398.627897 149.234968 
L 398.627897 149.233933 
L 398.737543 148.841713 
L 398.738579 148.841713 
L 398.775321 148.734086 
L 398.885008 147.997252 
L 398.886356 147.997252 
L 398.913871 147.912391 
L 398.913871 147.894798 
L 399.02335 147.415649 
L 399.024014 147.415649 
L 399.054743 147.308022 
L 399.165591 146.885791 
L 399.165756 146.885791 
L 399.201793 146.827837 
L 399.312683 145.952329 
L 399.312849 145.952329 
L 399.367837 145.85919 
L 399.367837 145.854015 
L 399.475036 145.364517 
L 399.47713 145.364517 
L 399.527578 145.25689 
L 399.638052 144.513846 
L 399.638135 144.513846 
L 399.685867 144.404149 
L 399.792899 143.988127 
L 399.796569 143.988127 
L 399.817325 143.8805 
L 399.817325 143.877395 
L 399.927551 143.406525 
L 399.928359 143.406525 
L 399.960809 143.300967 
L 399.960809 143.296827 
L 400.071533 142.321971 
L 400.071864 142.321971 
L 400.093677 142.212273 
L 400.204401 141.783833 
L 400.204774 141.783833 
L 400.227416 141.698973 
L 400.227416 141.673101 
L 400.33843 141.156696 
L 400.338472 141.156696 
L 400.361114 141.046999 
L 400.471589 140.036956 
L 400.47219 140.036956 
L 400.519237 139.927259 
L 400.630334 138.865472 
L 400.650322 138.755775 
L 400.650322 138.75474 
L 400.759635 137.913383 
L 400.761419 137.913383 
L 400.803427 137.803685 
L 400.803427 137.80265 
L 400.914109 137.379385 
L 400.914524 137.379385 
L 400.953837 137.269687 
L 401.064063 136.828828 
L 401.064851 136.828828 
L 401.095746 136.719131 
L 401.206593 136.065087 
L 401.206759 136.065087 
L 401.234212 135.95539 
L 401.343899 135.206137 
L 401.345267 135.206137 
L 401.376826 135.09644 
L 401.487176 134.49207 
L 401.487881 134.49207 
L 401.52512 134.394791 
L 401.629955 133.450981 
L 401.636093 133.450981 
L 401.659606 133.37233 
L 401.770205 132.774169 
L 401.770412 132.774169 
L 401.784056 132.666542 
L 401.784056 132.664472 
L 401.894696 132.204985 
L 401.895069 132.204985 
L 401.934217 132.099428 
L 402.043779 131.592337 
L 402.045293 131.592337 
L 402.07625 131.482639 
L 402.186973 130.333923 
L 402.187346 130.333923 
L 402.217785 130.228365 
L 402.328674 129.681948 
L 402.328882 129.681948 
L 402.34999 129.572251 
L 402.460755 128.926486 
L 402.461086 128.926486 
L 402.482277 128.843696 
L 402.482277 128.836452 
L 402.592462 127.643235 
L 402.593312 127.643235 
L 402.60652 127.535608 
L 402.717368 126.935377 
L 402.717533 126.935377 
L 402.743949 126.865005 
L 402.743949 126.852587 
L 402.853927 126.041241 
L 402.854984 126.041241 
L 402.87238 125.931544 
L 402.980491 125.02085 
L 402.980865 125.02085 
L 403.011967 124.913222 
L 403.121902 124.428898 
L 403.123063 124.428898 
L 403.137246 124.319201 
L 403.247638 123.843156 
L 403.248301 123.843156 
L 403.261032 123.770715 
L 403.261032 123.746913 
L 403.371175 122.725486 
L 403.372129 122.725486 
L 403.398379 122.615789 
L 403.509144 122.168721 
L 403.509434 122.168721 
L 403.534565 122.059024 
L 403.642095 121.39877 
L 403.645662 121.39877 
L 403.670419 121.289073 
L 403.780271 120.635029 
L 403.781516 120.635029 
L 403.797025 120.527401 
L 403.90808 119.834032 
L 403.928483 119.749172 
L 403.928483 119.743997 
L 404.038253 119.105477 
L 404.054219 118.995779 
L 404.164984 118.364503 
L 404.165067 118.364503 
L 404.186423 118.256875 
L 404.29752 117.534529 
L 404.327461 117.433111 
L 404.327461 117.427936 
L 404.438558 116.640393 
L 404.467379 116.530696 
L 404.578476 116.013256 
L 404.586521 115.903558 
L 404.697535 115.108771 
L 404.697618 115.108771 
L 404.732037 114.999073 
L 404.842097 113.953845 
L 404.842139 113.953845 
L 404.855409 113.844147 
L 404.962939 113.243917 
L 404.965967 113.243917 
L 404.993088 113.13629 
L 405.098835 112.411874 
L 405.102878 112.411874 
L 405.128651 112.308386 
L 405.128651 112.304246 
L 405.238214 111.728853 
L 405.239644 111.728853 
L 405.248457 111.689528 
L 405.248457 111.620191 
L 405.359387 110.137208 
L 405.386923 110.027511 
L 405.497937 109.313444 
L 405.49802 109.313444 
L 405.508636 109.205816 
L 405.508636 109.202711 
L 405.619608 108.601446 
L 405.61967 108.601446 
L 405.64561 108.491749 
L 405.756333 107.655566 
L 405.756603 107.655566 
L 405.778602 107.554148 
L 405.778602 107.547939 
L 405.888123 106.736593 
L 405.889678 106.736593 
L 405.910185 106.626896 
L 406.021282 105.850736 
L 406.029617 105.825899 
L 406.029617 105.822794 
L 406.140548 104.981437 
L 406.140672 104.981437 
L 406.163522 104.875879 
L 406.163522 104.874844 
L 406.273914 104.339811 
L 406.27437 104.339811 
L 406.298629 104.230114 
L 406.409353 102.97584 
L 406.409726 102.97584 
L 406.425609 102.870282 
L 406.425609 102.868212 
L 406.535669 102.259703 
L 406.536706 102.259703 
L 406.561214 102.156215 
L 406.672228 101.363497 
L 406.687696 101.284846 
L 406.687696 101.263113 
L 406.798212 100.721871 
L 406.798793 100.721871 
L 406.812851 100.614244 
L 406.923077 99.513132 
L 406.923761 99.513132 
L 406.953266 99.403434 
L 407.064073 98.732832 
L 407.06428 98.732832 
L 407.081407 98.627275 
L 407.081407 98.62417 
L 407.192504 97.958742 
L 407.207599 97.853184 
L 407.207599 97.85215 
L 407.318198 96.950769 
L 407.318675 96.950769 
L 407.325911 96.841072 
L 407.436759 95.99868 
L 407.437008 95.99868 
L 407.445302 95.888982 
L 407.556357 94.990707 
L 407.556398 94.990707 
L 407.586256 94.88101 
L 407.69698 93.800595 
L 407.697332 93.800595 
L 407.713899 93.719874 
L 407.713899 93.702281 
L 407.824789 93.074109 
L 407.824996 93.074109 
L 407.846353 92.964412 
L 407.957367 92.37867 
L 407.981046 92.268973 
L 408.091603 91.612859 
L 408.091852 91.612859 
L 408.117853 91.503162 
L 408.227001 91.029187 
L 408.22895 91.029187 
L 408.248358 90.91949 
L 408.359123 90.292352 
L 408.359455 90.292352 
L 408.379111 90.182655 
L 408.489835 89.532751 
L 408.490146 89.532751 
L 408.522056 89.423053 
L 408.632614 88.781428 
L 408.633153 88.781428 
L 408.663218 88.6738 
L 408.774274 88.032175 
L 408.774315 88.032175 
L 408.781863 87.98871 
L 408.781863 87.941105 
L 408.89101 87.227038 
L 408.892897 87.227038 
L 408.910169 87.117341 
L 409.020893 86.481925 
L 409.021266 86.481925 
L 409.040176 86.372228 
L 409.151273 85.554673 
L 409.173832 85.444975 
L 409.284721 84.840605 
L 409.284908 84.840605 
L 409.308276 84.730908 
L 409.418834 84.165864 
L 409.419373 84.165864 
L 409.434302 84.072725 
L 409.544901 83.282076 
L 409.545315 83.282076 
L 409.56746 83.172379 
L 409.678267 82.586637 
L 409.678515 82.586637 
L 409.694108 82.47694 
L 409.804956 81.756664 
L 409.805122 81.756664 
L 409.82088 81.646966 
L 409.931023 80.976364 
L 409.931977 80.976364 
L 409.95578 80.866667 
L 410.065923 80.115344 
L 410.066794 80.115344 
L 410.090349 80.007717 
L 410.090349 80.005647 
L 410.200326 79.320556 
L 410.201445 79.320556 
L 410.21878 79.210859 
L 410.21878 79.209824 
L 410.329462 78.534048 
L 410.329835 78.534048 
L 410.348206 78.424351 
L 410.458888 77.7434 
L 410.459178 77.7434 
L 410.474978 77.6544 
L 410.474978 77.633702 
L 410.586033 77.037612 
L 410.60627 76.927914 
L 410.717243 76.265591 
L 410.717367 76.265591 
L 410.745234 76.155894 
L 410.85517 75.619826 
L 410.85629 75.619826 
L 410.880674 75.512199 
L 410.880674 75.510129 
L 410.991522 74.990619 
L 410.99175 74.990619 
L 411.015035 74.880922 
L 411.125966 74.315878 
L 411.126132 74.315878 
L 411.147281 74.20618 
L 411.257756 73.568694 
L 411.258378 73.568694 
L 411.2782 73.461067 
L 411.388343 72.689047 
L 411.389172 72.689047 
L 411.414096 72.579349 
L 411.524736 71.892189 
L 411.524943 71.892189 
L 411.545761 71.784562 
L 411.656775 71.116029 
L 411.656858 71.116029 
L 411.679002 71.006332 
L 411.78956 70.286056 
L 411.790099 70.286056 
L 411.804489 70.176358 
L 411.915461 69.503686 
L 411.915544 69.503686 
L 411.936777 69.393989 
L 412.047832 68.752364 
L 412.070391 68.642666 
L 412.181405 68.00932 
L 412.204213 67.899623 
L 412.315227 67.272485 
L 412.315269 67.272485 
L 412.343012 67.162788 
L 412.453237 66.564628 
L 412.454067 66.564628 
L 412.47364 66.45493 
L 412.584737 65.788468 
L 412.602859 65.678771 
L 412.602859 65.677736 
L 412.713749 65.014378 
L 412.713956 65.014378 
L 412.735147 64.90675 
L 412.735147 64.90468 
L 412.845953 64.316869 
L 412.846202 64.316869 
L 412.862956 64.207171 
L 412.973804 63.602802 
L 412.974052 63.602802 
L 412.990474 63.493104 
L 413.101364 62.921851 
L 413.10153 62.921851 
L 413.124794 62.812153 
L 413.235517 62.228481 
L 413.235849 62.228481 
L 413.26098 62.120854 
L 413.26098 62.118784 
L 413.371786 61.470949 
L 413.372076 61.470949 
L 413.388167 61.361252 
L 413.499263 60.804487 
L 413.517925 60.694789 
L 413.628731 60.063513 
L 413.62898 60.063513 
L 413.652161 59.953815 
L 413.763134 59.301841 
L 413.763258 59.301841 
L 413.786439 59.192144 
L 413.897121 58.53603 
L 413.897495 58.53603 
L 413.918354 58.426333 
L 414.029326 57.813684 
L 414.02945 57.813684 
L 414.047158 57.703987 
L 414.157715 57.097547 
L 414.158255 57.097547 
L 414.174262 56.98992 
L 414.174262 56.98785 
L 414.284944 56.346224 
L 414.285317 56.346224 
L 414.301988 56.236527 
L 414.412214 55.663204 
L 414.413084 55.663204 
L 414.432534 55.553506 
L 414.543299 54.990532 
L 414.543547 54.990532 
L 414.570046 54.880834 
L 414.680148 54.305441 
L 414.681143 54.305441 
L 414.702624 54.199884 
L 414.72 54.144 
L 414.72 54.144 
" clip-path="url(#pf5f86377e0)" style="fill: none; stroke: #ff8c00; stroke-width: 1.5; stroke-linecap: square"/>
   </g>
   <g id="line2d_14">
    <path d="M 74.605714 307.584 
L 414.72 54.144 
" clip-path="url(#pf5f86377e0)" style="fill: none; stroke-dasharray: 5.55,2.4; stroke-dashoffset: 0; stroke: #0000ff; stroke-width: 1.5"/>
   </g>
   <g id="patch_3">
    <path d="M 57.6 307.584 
L 57.6 41.472 
" style="fill: none; stroke: #000000; stroke-width: 0.8; stroke-linejoin: miter; stroke-linecap: square"/>
   </g>
   <g id="patch_4">
    <path d="M 414.72 307.584 
L 414.72 41.472 
" style="fill: none; stroke: #000000; stroke-width: 0.8; stroke-linejoin: miter; stroke-linecap: square"/>
   </g>
   <g id="patch_5">
    <path d="M 57.6 307.584 
L 414.72 307.584 
" style="fill: none; stroke: #000000; stroke-width: 0.8; stroke-linejoin: miter; stroke-linecap: square"/>
   </g>
   <g id="patch_6">
    <path d="M 57.6 41.472 
L 414.72 41.472 
" style="fill: none; stroke: #000000; stroke-width: 0.8; stroke-linejoin: miter; stroke-linecap: square"/>
   </g>
   <g id="text_15">
    <!-- ROC CURVE -->
    <g transform="translate(200.855625 35.472)scale(0.12 -0.12)">
     <defs>
      <path id="DejaVuSans-4f" d="M 2522 4238 
Q 1834 4238 1429 3725 
Q 1025 3213 1025 2328 
Q 1025 1447 1429 934 
Q 1834 422 2522 422 
Q 3209 422 3611 934 
Q 4013 1447 4013 2328 
Q 4013 3213 3611 3725 
Q 3209 4238 2522 4238 
z
M 2522 4750 
Q 3503 4750 4090 4092 
Q 4678 3434 4678 2328 
Q 4678 1225 4090 567 
Q 3503 -91 2522 -91 
Q 1538 -91 948 565 
Q 359 1222 359 2328 
Q 359 3434 948 4092 
Q 1538 4750 2522 4750 
z
" transform="scale(0.015625)"/>
      <path id="DejaVuSans-43" d="M 4122 4306 
L 4122 3641 
Q 3803 3938 3442 4084 
Q 3081 4231 2675 4231 
Q 1875 4231 1450 3742 
Q 1025 3253 1025 2328 
Q 1025 1406 1450 917 
Q 1875 428 2675 428 
Q 3081 428 3442 575 
Q 3803 722 4122 1019 
L 4122 359 
Q 3791 134 3420 21 
Q 3050 -91 2638 -91 
Q 1578 -91 968 557 
Q 359 1206 359 2328 
Q 359 3453 968 4101 
Q 1578 4750 2638 4750 
Q 3056 4750 3426 4639 
Q 3797 4528 4122 4306 
z
" transform="scale(0.015625)"/>
      <path id="DejaVuSans-55" d="M 556 4666 
L 1191 4666 
L 1191 1831 
Q 1191 1081 1462 751 
Q 1734 422 2344 422 
Q 2950 422 3222 751 
Q 3494 1081 3494 1831 
L 3494 4666 
L 4128 4666 
L 4128 1753 
Q 4128 841 3676 375 
Q 3225 -91 2344 -91 
Q 1459 -91 1007 375 
Q 556 841 556 1753 
L 556 4666 
z
" transform="scale(0.015625)"/>
      <path id="DejaVuSans-56" d="M 1831 0 
L 50 4666 
L 709 4666 
L 2188 738 
L 3669 4666 
L 4325 4666 
L 2547 0 
L 1831 0 
z
" transform="scale(0.015625)"/>
      <path id="DejaVuSans-45" d="M 628 4666 
L 3578 4666 
L 3578 4134 
L 1259 4134 
L 1259 2753 
L 3481 2753 
L 3481 2222 
L 1259 2222 
L 1259 531 
L 3634 531 
L 3634 0 
L 628 0 
L 628 4666 
z
" transform="scale(0.015625)"/>
     </defs>
     <use xlink:href="#DejaVuSans-52"/>
     <use xlink:href="#DejaVuSans-4f" x="69.482422"/>
     <use xlink:href="#DejaVuSans-43" x="148.193359"/>
     <use xlink:href="#DejaVuSans-20" x="218.017578"/>
     <use xlink:href="#DejaVuSans-43" x="249.804688"/>
     <use xlink:href="#DejaVuSans-55" x="319.628906"/>
     <use xlink:href="#DejaVuSans-52" x="392.822266"/>
     <use xlink:href="#DejaVuSans-56" x="456.804688"/>
     <use xlink:href="#DejaVuSans-45" x="525.212891"/>
    </g>
   </g>
   <g id="legend_1">
    <g id="patch_7">
     <path d="M 234.97 302.584 
L 407.72 302.584 
Q 409.72 302.584 409.72 300.584 
L 409.72 286.905875 
Q 409.72 284.905875 407.72 284.905875 
L 234.97 284.905875 
Q 232.97 284.905875 232.97 286.905875 
L 232.97 300.584 
Q 232.97 302.584 234.97 302.584 
z
" style="fill: #ffffff; opacity: 0.8; stroke: #cccccc; stroke-linejoin: miter"/>
    </g>
    <g id="line2d_15">
     <path d="M 236.97 293.004312 
L 246.97 293.004312 
L 256.97 293.004312 
" style="fill: none; stroke: #ff8c00; stroke-width: 1.5; stroke-linecap: square"/>
    </g>
    <g id="text_16">
     <!-- ROC curve (ROC AUC=0.12) -->
     <g transform="translate(264.97 296.504312)scale(0.1 -0.1)">
      <defs>
       <path id="DejaVuSans-63" d="M 3122 3366 
L 3122 2828 
Q 2878 2963 2633 3030 
Q 2388 3097 2138 3097 
Q 1578 3097 1268 2742 
Q 959 2388 959 1747 
Q 959 1106 1268 751 
Q 1578 397 2138 397 
Q 2388 397 2633 464 
Q 2878 531 3122 666 
L 3122 134 
Q 2881 22 2623 -34 
Q 2366 -91 2075 -91 
Q 1284 -91 818 406 
Q 353 903 353 1747 
Q 353 2603 823 3093 
Q 1294 3584 2113 3584 
Q 2378 3584 2631 3529 
Q 2884 3475 3122 3366 
z
" transform="scale(0.015625)"/>
       <path id="DejaVuSans-28" d="M 1984 4856 
Q 1566 4138 1362 3434 
Q 1159 2731 1159 2009 
Q 1159 1288 1364 580 
Q 1569 -128 1984 -844 
L 1484 -844 
Q 1016 -109 783 600 
Q 550 1309 550 2009 
Q 550 2706 781 3412 
Q 1013 4119 1484 4856 
L 1984 4856 
z
" transform="scale(0.015625)"/>
       <path id="DejaVuSans-41" d="M 2188 4044 
L 1331 1722 
L 3047 1722 
L 2188 4044 
z
M 1831 4666 
L 2547 4666 
L 4325 0 
L 3669 0 
L 3244 1197 
L 1141 1197 
L 716 0 
L 50 0 
L 1831 4666 
z
" transform="scale(0.015625)"/>
       <path id="DejaVuSans-3d" d="M 678 2906 
L 4684 2906 
L 4684 2381 
L 678 2381 
L 678 2906 
z
M 678 1631 
L 4684 1631 
L 4684 1100 
L 678 1100 
L 678 1631 
z
" transform="scale(0.015625)"/>
       <path id="DejaVuSans-29" d="M 513 4856 
L 1013 4856 
Q 1481 4119 1714 3412 
Q 1947 2706 1947 2009 
Q 1947 1309 1714 600 
Q 1481 -109 1013 -844 
L 513 -844 
Q 928 -128 1133 580 
Q 1338 1288 1338 2009 
Q 1338 2731 1133 3434 
Q 928 4138 513 4856 
z
" transform="scale(0.015625)"/>
      </defs>
      <use xlink:href="#DejaVuSans-52"/>
      <use xlink:href="#DejaVuSans-4f" x="69.482422"/>
      <use xlink:href="#DejaVuSans-43" x="148.193359"/>
      <use xlink:href="#DejaVuSans-20" x="218.017578"/>
      <use xlink:href="#DejaVuSans-63" x="249.804688"/>
      <use xlink:href="#DejaVuSans-75" x="304.785156"/>
      <use xlink:href="#DejaVuSans-72" x="368.164062"/>
      <use xlink:href="#DejaVuSans-76" x="409.277344"/>
      <use xlink:href="#DejaVuSans-65" x="468.457031"/>
      <use xlink:href="#DejaVuSans-20" x="529.980469"/>
      <use xlink:href="#DejaVuSans-28" x="561.767578"/>
      <use xlink:href="#DejaVuSans-52" x="600.78125"/>
      <use xlink:href="#DejaVuSans-4f" x="670.263672"/>
      <use xlink:href="#DejaVuSans-43" x="748.974609"/>
      <use xlink:href="#DejaVuSans-20" x="818.798828"/>
      <use xlink:href="#DejaVuSans-41" x="850.585938"/>
      <use xlink:href="#DejaVuSans-55" x="918.994141"/>
      <use xlink:href="#DejaVuSans-43" x="992.1875"/>
      <use xlink:href="#DejaVuSans-3d" x="1062.011719"/>
      <use xlink:href="#DejaVuSans-30" x="1145.800781"/>
      <use xlink:href="#DejaVuSans-2e" x="1209.423828"/>
      <use xlink:href="#DejaVuSans-31" x="1241.210938"/>
      <use xlink:href="#DejaVuSans-32" x="1304.833984"/>
      <use xlink:href="#DejaVuSans-29" x="1368.457031"/>
     </g>
    </g>
   </g>
  </g>
 </g>
 <defs>
  <clipPath id="pf5f86377e0">
   <rect x="57.6" y="41.472" width="357.12" height="266.112"/>
  </clipPath>
 </defs>
</svg>
