<?xml version="1.0" encoding="utf-8" standalone="no"?>
<!DOCTYPE svg PUBLIC "-//W3C//DTD SVG 1.1//EN"
  "http://www.w3.org/Graphics/SVG/1.1/DTD/svg11.dtd">
<svg xmlns:xlink="http://www.w3.org/1999/xlink" width="460.8pt" height="345.6pt" viewBox="0 0 460.8 345.6" xmlns="http://www.w3.org/2000/svg" version="1.1">
 <metadata>
  <rdf:RDF xmlns:dc="http://purl.org/dc/elements/1.1/" xmlns:cc="http://creativecommons.org/ns#" xmlns:rdf="http://www.w3.org/1999/02/22-rdf-syntax-ns#">
   <cc:Work>
    <dc:type rdf:resource="http://purl.org/dc/dcmitype/StillImage"/>
    <dc:date>2022-05-20T21:13:18.928705</dc:date>
    <dc:format>image/svg+xml</dc:format>
    <dc:creator>
     <cc:Agent>
      <dc:title>Matplotlib v3.5.1, https://matplotlib.org/</dc:title>
     </cc:Agent>
    </dc:creator>
   </cc:Work>
  </rdf:RDF>
 </metadata>
 <defs>
  <style type="text/css">*{stroke-linejoin: round; stroke-linecap: butt}</style>
 </defs>
 <g id="figure_1">
  <g id="patch_1">
   <path d="M 0 345.6 
L 460.8 345.6 
L 460.8 0 
L 0 0 
z
" style="fill: #ffffff"/>
  </g>
  <g id="axes_1">
   <g id="patch_2">
    <path d="M 57.6 307.584 
L 414.72 307.584 
L 414.72 41.472 
L 57.6 41.472 
z
" style="fill: #ffffff"/>
   </g>
   <g id="matplotlib.axis_1">
    <g id="xtick_1">
     <g id="line2d_1">
      <defs>
       <path id="me815a61ab8" d="M 0 0 
L 0 3.5 
" style="stroke: #000000; stroke-width: 0.8"/>
      </defs>
      <g>
       <use xlink:href="#me815a61ab8" x="74.605714" y="307.584" style="stroke: #000000; stroke-width: 0.8"/>
      </g>
     </g>
     <g id="text_1">
      <!-- 0.0 -->
      <g transform="translate(66.654152 322.182437)scale(0.1 -0.1)">
       <defs>
        <path id="DejaVuSans-30" d="M 2034 4250 
Q 1547 4250 1301 3770 
Q 1056 3291 1056 2328 
Q 1056 1369 1301 889 
Q 1547 409 2034 409 
Q 2525 409 2770 889 
Q 3016 1369 3016 2328 
Q 3016 3291 2770 3770 
Q 2525 4250 2034 4250 
z
M 2034 4750 
Q 2819 4750 3233 4129 
Q 3647 3509 3647 2328 
Q 3647 1150 3233 529 
Q 2819 -91 2034 -91 
Q 1250 -91 836 529 
Q 422 1150 422 2328 
Q 422 3509 836 4129 
Q 1250 4750 2034 4750 
z
" transform="scale(0.015625)"/>
        <path id="DejaVuSans-2e" d="M 684 794 
L 1344 794 
L 1344 0 
L 684 0 
L 684 794 
z
" transform="scale(0.015625)"/>
       </defs>
       <use xlink:href="#DejaVuSans-30"/>
       <use xlink:href="#DejaVuSans-2e" x="63.623047"/>
       <use xlink:href="#DejaVuSans-30" x="95.410156"/>
      </g>
     </g>
    </g>
    <g id="xtick_2">
     <g id="line2d_2">
      <g>
       <use xlink:href="#me815a61ab8" x="142.628571" y="307.584" style="stroke: #000000; stroke-width: 0.8"/>
      </g>
     </g>
     <g id="text_2">
      <!-- 0.2 -->
      <g transform="translate(134.677009 322.182437)scale(0.1 -0.1)">
       <defs>
        <path id="DejaVuSans-32" d="M 1228 531 
L 3431 531 
L 3431 0 
L 469 0 
L 469 531 
Q 828 903 1448 1529 
Q 2069 2156 2228 2338 
Q 2531 2678 2651 2914 
Q 2772 3150 2772 3378 
Q 2772 3750 2511 3984 
Q 2250 4219 1831 4219 
Q 1534 4219 1204 4116 
Q 875 4013 500 3803 
L 500 4441 
Q 881 4594 1212 4672 
Q 1544 4750 1819 4750 
Q 2544 4750 2975 4387 
Q 3406 4025 3406 3419 
Q 3406 3131 3298 2873 
Q 3191 2616 2906 2266 
Q 2828 2175 2409 1742 
Q 1991 1309 1228 531 
z
" transform="scale(0.015625)"/>
       </defs>
       <use xlink:href="#DejaVuSans-30"/>
       <use xlink:href="#DejaVuSans-2e" x="63.623047"/>
       <use xlink:href="#DejaVuSans-32" x="95.410156"/>
      </g>
     </g>
    </g>
    <g id="xtick_3">
     <g id="line2d_3">
      <g>
       <use xlink:href="#me815a61ab8" x="210.651429" y="307.584" style="stroke: #000000; stroke-width: 0.8"/>
      </g>
     </g>
     <g id="text_3">
      <!-- 0.4 -->
      <g transform="translate(202.699866 322.182437)scale(0.1 -0.1)">
       <defs>
        <path id="DejaVuSans-34" d="M 2419 4116 
L 825 1625 
L 2419 1625 
L 2419 4116 
z
M 2253 4666 
L 3047 4666 
L 3047 1625 
L 3713 1625 
L 3713 1100 
L 3047 1100 
L 3047 0 
L 2419 0 
L 2419 1100 
L 313 1100 
L 313 1709 
L 2253 4666 
z
" transform="scale(0.015625)"/>
       </defs>
       <use xlink:href="#DejaVuSans-30"/>
       <use xlink:href="#DejaVuSans-2e" x="63.623047"/>
       <use xlink:href="#DejaVuSans-34" x="95.410156"/>
      </g>
     </g>
    </g>
    <g id="xtick_4">
     <g id="line2d_4">
      <g>
       <use xlink:href="#me815a61ab8" x="278.674286" y="307.584" style="stroke: #000000; stroke-width: 0.8"/>
      </g>
     </g>
     <g id="text_4">
      <!-- 0.6 -->
      <g transform="translate(270.722723 322.182437)scale(0.1 -0.1)">
       <defs>
        <path id="DejaVuSans-36" d="M 2113 2584 
Q 1688 2584 1439 2293 
Q 1191 2003 1191 1497 
Q 1191 994 1439 701 
Q 1688 409 2113 409 
Q 2538 409 2786 701 
Q 3034 994 3034 1497 
Q 3034 2003 2786 2293 
Q 2538 2584 2113 2584 
z
M 3366 4563 
L 3366 3988 
Q 3128 4100 2886 4159 
Q 2644 4219 2406 4219 
Q 1781 4219 1451 3797 
Q 1122 3375 1075 2522 
Q 1259 2794 1537 2939 
Q 1816 3084 2150 3084 
Q 2853 3084 3261 2657 
Q 3669 2231 3669 1497 
Q 3669 778 3244 343 
Q 2819 -91 2113 -91 
Q 1303 -91 875 529 
Q 447 1150 447 2328 
Q 447 3434 972 4092 
Q 1497 4750 2381 4750 
Q 2619 4750 2861 4703 
Q 3103 4656 3366 4563 
z
" transform="scale(0.015625)"/>
       </defs>
       <use xlink:href="#DejaVuSans-30"/>
       <use xlink:href="#DejaVuSans-2e" x="63.623047"/>
       <use xlink:href="#DejaVuSans-36" x="95.410156"/>
      </g>
     </g>
    </g>
    <g id="xtick_5">
     <g id="line2d_5">
      <g>
       <use xlink:href="#me815a61ab8" x="346.697143" y="307.584" style="stroke: #000000; stroke-width: 0.8"/>
      </g>
     </g>
     <g id="text_5">
      <!-- 0.8 -->
      <g transform="translate(338.74558 322.182437)scale(0.1 -0.1)">
       <defs>
        <path id="DejaVuSans-38" d="M 2034 2216 
Q 1584 2216 1326 1975 
Q 1069 1734 1069 1313 
Q 1069 891 1326 650 
Q 1584 409 2034 409 
Q 2484 409 2743 651 
Q 3003 894 3003 1313 
Q 3003 1734 2745 1975 
Q 2488 2216 2034 2216 
z
M 1403 2484 
Q 997 2584 770 2862 
Q 544 3141 544 3541 
Q 544 4100 942 4425 
Q 1341 4750 2034 4750 
Q 2731 4750 3128 4425 
Q 3525 4100 3525 3541 
Q 3525 3141 3298 2862 
Q 3072 2584 2669 2484 
Q 3125 2378 3379 2068 
Q 3634 1759 3634 1313 
Q 3634 634 3220 271 
Q 2806 -91 2034 -91 
Q 1263 -91 848 271 
Q 434 634 434 1313 
Q 434 1759 690 2068 
Q 947 2378 1403 2484 
z
M 1172 3481 
Q 1172 3119 1398 2916 
Q 1625 2713 2034 2713 
Q 2441 2713 2670 2916 
Q 2900 3119 2900 3481 
Q 2900 3844 2670 4047 
Q 2441 4250 2034 4250 
Q 1625 4250 1398 4047 
Q 1172 3844 1172 3481 
z
" transform="scale(0.015625)"/>
       </defs>
       <use xlink:href="#DejaVuSans-30"/>
       <use xlink:href="#DejaVuSans-2e" x="63.623047"/>
       <use xlink:href="#DejaVuSans-38" x="95.410156"/>
      </g>
     </g>
    </g>
    <g id="xtick_6">
     <g id="line2d_6">
      <g>
       <use xlink:href="#me815a61ab8" x="414.72" y="307.584" style="stroke: #000000; stroke-width: 0.8"/>
      </g>
     </g>
     <g id="text_6">
      <!-- 1.0 -->
      <g transform="translate(406.768438 322.182437)scale(0.1 -0.1)">
       <defs>
        <path id="DejaVuSans-31" d="M 794 531 
L 1825 531 
L 1825 4091 
L 703 3866 
L 703 4441 
L 1819 4666 
L 2450 4666 
L 2450 531 
L 3481 531 
L 3481 0 
L 794 0 
L 794 531 
z
" transform="scale(0.015625)"/>
       </defs>
       <use xlink:href="#DejaVuSans-31"/>
       <use xlink:href="#DejaVuSans-2e" x="63.623047"/>
       <use xlink:href="#DejaVuSans-30" x="95.410156"/>
      </g>
     </g>
    </g>
    <g id="text_7">
     <!-- False Positive Rate -->
     <g transform="translate(189.693594 335.860562)scale(0.1 -0.1)">
      <defs>
       <path id="DejaVuSans-46" d="M 628 4666 
L 3309 4666 
L 3309 4134 
L 1259 4134 
L 1259 2759 
L 3109 2759 
L 3109 2228 
L 1259 2228 
L 1259 0 
L 628 0 
L 628 4666 
z
" transform="scale(0.015625)"/>
       <path id="DejaVuSans-61" d="M 2194 1759 
Q 1497 1759 1228 1600 
Q 959 1441 959 1056 
Q 959 750 1161 570 
Q 1363 391 1709 391 
Q 2188 391 2477 730 
Q 2766 1069 2766 1631 
L 2766 1759 
L 2194 1759 
z
M 3341 1997 
L 3341 0 
L 2766 0 
L 2766 531 
Q 2569 213 2275 61 
Q 1981 -91 1556 -91 
Q 1019 -91 701 211 
Q 384 513 384 1019 
Q 384 1609 779 1909 
Q 1175 2209 1959 2209 
L 2766 2209 
L 2766 2266 
Q 2766 2663 2505 2880 
Q 2244 3097 1772 3097 
Q 1472 3097 1187 3025 
Q 903 2953 641 2809 
L 641 3341 
Q 956 3463 1253 3523 
Q 1550 3584 1831 3584 
Q 2591 3584 2966 3190 
Q 3341 2797 3341 1997 
z
" transform="scale(0.015625)"/>
       <path id="DejaVuSans-6c" d="M 603 4863 
L 1178 4863 
L 1178 0 
L 603 0 
L 603 4863 
z
" transform="scale(0.015625)"/>
       <path id="DejaVuSans-73" d="M 2834 3397 
L 2834 2853 
Q 2591 2978 2328 3040 
Q 2066 3103 1784 3103 
Q 1356 3103 1142 2972 
Q 928 2841 928 2578 
Q 928 2378 1081 2264 
Q 1234 2150 1697 2047 
L 1894 2003 
Q 2506 1872 2764 1633 
Q 3022 1394 3022 966 
Q 3022 478 2636 193 
Q 2250 -91 1575 -91 
Q 1294 -91 989 -36 
Q 684 19 347 128 
L 347 722 
Q 666 556 975 473 
Q 1284 391 1588 391 
Q 1994 391 2212 530 
Q 2431 669 2431 922 
Q 2431 1156 2273 1281 
Q 2116 1406 1581 1522 
L 1381 1569 
Q 847 1681 609 1914 
Q 372 2147 372 2553 
Q 372 3047 722 3315 
Q 1072 3584 1716 3584 
Q 2034 3584 2315 3537 
Q 2597 3491 2834 3397 
z
" transform="scale(0.015625)"/>
       <path id="DejaVuSans-65" d="M 3597 1894 
L 3597 1613 
L 953 1613 
Q 991 1019 1311 708 
Q 1631 397 2203 397 
Q 2534 397 2845 478 
Q 3156 559 3463 722 
L 3463 178 
Q 3153 47 2828 -22 
Q 2503 -91 2169 -91 
Q 1331 -91 842 396 
Q 353 884 353 1716 
Q 353 2575 817 3079 
Q 1281 3584 2069 3584 
Q 2775 3584 3186 3129 
Q 3597 2675 3597 1894 
z
M 3022 2063 
Q 3016 2534 2758 2815 
Q 2500 3097 2075 3097 
Q 1594 3097 1305 2825 
Q 1016 2553 972 2059 
L 3022 2063 
z
" transform="scale(0.015625)"/>
       <path id="DejaVuSans-20" transform="scale(0.015625)"/>
       <path id="DejaVuSans-50" d="M 1259 4147 
L 1259 2394 
L 2053 2394 
Q 2494 2394 2734 2622 
Q 2975 2850 2975 3272 
Q 2975 3691 2734 3919 
Q 2494 4147 2053 4147 
L 1259 4147 
z
M 628 4666 
L 2053 4666 
Q 2838 4666 3239 4311 
Q 3641 3956 3641 3272 
Q 3641 2581 3239 2228 
Q 2838 1875 2053 1875 
L 1259 1875 
L 1259 0 
L 628 0 
L 628 4666 
z
" transform="scale(0.015625)"/>
       <path id="DejaVuSans-6f" d="M 1959 3097 
Q 1497 3097 1228 2736 
Q 959 2375 959 1747 
Q 959 1119 1226 758 
Q 1494 397 1959 397 
Q 2419 397 2687 759 
Q 2956 1122 2956 1747 
Q 2956 2369 2687 2733 
Q 2419 3097 1959 3097 
z
M 1959 3584 
Q 2709 3584 3137 3096 
Q 3566 2609 3566 1747 
Q 3566 888 3137 398 
Q 2709 -91 1959 -91 
Q 1206 -91 779 398 
Q 353 888 353 1747 
Q 353 2609 779 3096 
Q 1206 3584 1959 3584 
z
" transform="scale(0.015625)"/>
       <path id="DejaVuSans-69" d="M 603 3500 
L 1178 3500 
L 1178 0 
L 603 0 
L 603 3500 
z
M 603 4863 
L 1178 4863 
L 1178 4134 
L 603 4134 
L 603 4863 
z
" transform="scale(0.015625)"/>
       <path id="DejaVuSans-74" d="M 1172 4494 
L 1172 3500 
L 2356 3500 
L 2356 3053 
L 1172 3053 
L 1172 1153 
Q 1172 725 1289 603 
Q 1406 481 1766 481 
L 2356 481 
L 2356 0 
L 1766 0 
Q 1100 0 847 248 
Q 594 497 594 1153 
L 594 3053 
L 172 3053 
L 172 3500 
L 594 3500 
L 594 4494 
L 1172 4494 
z
" transform="scale(0.015625)"/>
       <path id="DejaVuSans-76" d="M 191 3500 
L 800 3500 
L 1894 563 
L 2988 3500 
L 3597 3500 
L 2284 0 
L 1503 0 
L 191 3500 
z
" transform="scale(0.015625)"/>
       <path id="DejaVuSans-52" d="M 2841 2188 
Q 3044 2119 3236 1894 
Q 3428 1669 3622 1275 
L 4263 0 
L 3584 0 
L 2988 1197 
Q 2756 1666 2539 1819 
Q 2322 1972 1947 1972 
L 1259 1972 
L 1259 0 
L 628 0 
L 628 4666 
L 2053 4666 
Q 2853 4666 3247 4331 
Q 3641 3997 3641 3322 
Q 3641 2881 3436 2590 
Q 3231 2300 2841 2188 
z
M 1259 4147 
L 1259 2491 
L 2053 2491 
Q 2509 2491 2742 2702 
Q 2975 2913 2975 3322 
Q 2975 3731 2742 3939 
Q 2509 4147 2053 4147 
L 1259 4147 
z
" transform="scale(0.015625)"/>
      </defs>
      <use xlink:href="#DejaVuSans-46"/>
      <use xlink:href="#DejaVuSans-61" x="48.394531"/>
      <use xlink:href="#DejaVuSans-6c" x="109.673828"/>
      <use xlink:href="#DejaVuSans-73" x="137.457031"/>
      <use xlink:href="#DejaVuSans-65" x="189.556641"/>
      <use xlink:href="#DejaVuSans-20" x="251.080078"/>
      <use xlink:href="#DejaVuSans-50" x="282.867188"/>
      <use xlink:href="#DejaVuSans-6f" x="339.544922"/>
      <use xlink:href="#DejaVuSans-73" x="400.726562"/>
      <use xlink:href="#DejaVuSans-69" x="452.826172"/>
      <use xlink:href="#DejaVuSans-74" x="480.609375"/>
      <use xlink:href="#DejaVuSans-69" x="519.818359"/>
      <use xlink:href="#DejaVuSans-76" x="547.601562"/>
      <use xlink:href="#DejaVuSans-65" x="606.78125"/>
      <use xlink:href="#DejaVuSans-20" x="668.304688"/>
      <use xlink:href="#DejaVuSans-52" x="700.091797"/>
      <use xlink:href="#DejaVuSans-61" x="767.324219"/>
      <use xlink:href="#DejaVuSans-74" x="828.603516"/>
      <use xlink:href="#DejaVuSans-65" x="867.8125"/>
     </g>
    </g>
   </g>
   <g id="matplotlib.axis_2">
    <g id="ytick_1">
     <g id="line2d_7">
      <defs>
       <path id="m7dddf29f64" d="M 0 0 
L -3.5 0 
" style="stroke: #000000; stroke-width: 0.8"/>
      </defs>
      <g>
       <use xlink:href="#m7dddf29f64" x="57.6" y="307.584" style="stroke: #000000; stroke-width: 0.8"/>
      </g>
     </g>
     <g id="text_8">
      <!-- 0.0 -->
      <g transform="translate(34.696875 311.383219)scale(0.1 -0.1)">
       <use xlink:href="#DejaVuSans-30"/>
       <use xlink:href="#DejaVuSans-2e" x="63.623047"/>
       <use xlink:href="#DejaVuSans-30" x="95.410156"/>
      </g>
     </g>
    </g>
    <g id="ytick_2">
     <g id="line2d_8">
      <g>
       <use xlink:href="#m7dddf29f64" x="57.6" y="256.896" style="stroke: #000000; stroke-width: 0.8"/>
      </g>
     </g>
     <g id="text_9">
      <!-- 0.2 -->
      <g transform="translate(34.696875 260.695219)scale(0.1 -0.1)">
       <use xlink:href="#DejaVuSans-30"/>
       <use xlink:href="#DejaVuSans-2e" x="63.623047"/>
       <use xlink:href="#DejaVuSans-32" x="95.410156"/>
      </g>
     </g>
    </g>
    <g id="ytick_3">
     <g id="line2d_9">
      <g>
       <use xlink:href="#m7dddf29f64" x="57.6" y="206.208" style="stroke: #000000; stroke-width: 0.8"/>
      </g>
     </g>
     <g id="text_10">
      <!-- 0.4 -->
      <g transform="translate(34.696875 210.007219)scale(0.1 -0.1)">
       <use xlink:href="#DejaVuSans-30"/>
       <use xlink:href="#DejaVuSans-2e" x="63.623047"/>
       <use xlink:href="#DejaVuSans-34" x="95.410156"/>
      </g>
     </g>
    </g>
    <g id="ytick_4">
     <g id="line2d_10">
      <g>
       <use xlink:href="#m7dddf29f64" x="57.6" y="155.52" style="stroke: #000000; stroke-width: 0.8"/>
      </g>
     </g>
     <g id="text_11">
      <!-- 0.6 -->
      <g transform="translate(34.696875 159.319219)scale(0.1 -0.1)">
       <use xlink:href="#DejaVuSans-30"/>
       <use xlink:href="#DejaVuSans-2e" x="63.623047"/>
       <use xlink:href="#DejaVuSans-36" x="95.410156"/>
      </g>
     </g>
    </g>
    <g id="ytick_5">
     <g id="line2d_11">
      <g>
       <use xlink:href="#m7dddf29f64" x="57.6" y="104.832" style="stroke: #000000; stroke-width: 0.8"/>
      </g>
     </g>
     <g id="text_12">
      <!-- 0.8 -->
      <g transform="translate(34.696875 108.631219)scale(0.1 -0.1)">
       <use xlink:href="#DejaVuSans-30"/>
       <use xlink:href="#DejaVuSans-2e" x="63.623047"/>
       <use xlink:href="#DejaVuSans-38" x="95.410156"/>
      </g>
     </g>
    </g>
    <g id="ytick_6">
     <g id="line2d_12">
      <g>
       <use xlink:href="#m7dddf29f64" x="57.6" y="54.144" style="stroke: #000000; stroke-width: 0.8"/>
      </g>
     </g>
     <g id="text_13">
      <!-- 1.0 -->
      <g transform="translate(34.696875 57.943219)scale(0.1 -0.1)">
       <use xlink:href="#DejaVuSans-31"/>
       <use xlink:href="#DejaVuSans-2e" x="63.623047"/>
       <use xlink:href="#DejaVuSans-30" x="95.410156"/>
      </g>
     </g>
    </g>
    <g id="text_14">
     <!-- True Positive Rate -->
     <g transform="translate(28.617187 219.057687)rotate(-90)scale(0.1 -0.1)">
      <defs>
       <path id="DejaVuSans-54" d="M -19 4666 
L 3928 4666 
L 3928 4134 
L 2272 4134 
L 2272 0 
L 1638 0 
L 1638 4134 
L -19 4134 
L -19 4666 
z
" transform="scale(0.015625)"/>
       <path id="DejaVuSans-72" d="M 2631 2963 
Q 2534 3019 2420 3045 
Q 2306 3072 2169 3072 
Q 1681 3072 1420 2755 
Q 1159 2438 1159 1844 
L 1159 0 
L 581 0 
L 581 3500 
L 1159 3500 
L 1159 2956 
Q 1341 3275 1631 3429 
Q 1922 3584 2338 3584 
Q 2397 3584 2469 3576 
Q 2541 3569 2628 3553 
L 2631 2963 
z
" transform="scale(0.015625)"/>
       <path id="DejaVuSans-75" d="M 544 1381 
L 544 3500 
L 1119 3500 
L 1119 1403 
Q 1119 906 1312 657 
Q 1506 409 1894 409 
Q 2359 409 2629 706 
Q 2900 1003 2900 1516 
L 2900 3500 
L 3475 3500 
L 3475 0 
L 2900 0 
L 2900 538 
Q 2691 219 2414 64 
Q 2138 -91 1772 -91 
Q 1169 -91 856 284 
Q 544 659 544 1381 
z
M 1991 3584 
L 1991 3584 
z
" transform="scale(0.015625)"/>
      </defs>
      <use xlink:href="#DejaVuSans-54"/>
      <use xlink:href="#DejaVuSans-72" x="46.333984"/>
      <use xlink:href="#DejaVuSans-75" x="87.447266"/>
      <use xlink:href="#DejaVuSans-65" x="150.826172"/>
      <use xlink:href="#DejaVuSans-20" x="212.349609"/>
      <use xlink:href="#DejaVuSans-50" x="244.136719"/>
      <use xlink:href="#DejaVuSans-6f" x="300.814453"/>
      <use xlink:href="#DejaVuSans-73" x="361.996094"/>
      <use xlink:href="#DejaVuSans-69" x="414.095703"/>
      <use xlink:href="#DejaVuSans-74" x="441.878906"/>
      <use xlink:href="#DejaVuSans-69" x="481.087891"/>
      <use xlink:href="#DejaVuSans-76" x="508.871094"/>
      <use xlink:href="#DejaVuSans-65" x="568.050781"/>
      <use xlink:href="#DejaVuSans-20" x="629.574219"/>
      <use xlink:href="#DejaVuSans-52" x="661.361328"/>
      <use xlink:href="#DejaVuSans-61" x="728.59375"/>
      <use xlink:href="#DejaVuSans-74" x="789.873047"/>
      <use xlink:href="#DejaVuSans-65" x="829.082031"/>
     </g>
    </g>
   </g>
   <g id="line2d_13">
    <path d="M 74.605714 307.584 
L 74.711876 307.261117 
L 74.951238 306.395958 
L 74.985782 306.286261 
L 75.096588 305.928192 
L 75.096837 305.928192 
L 75.130552 305.818495 
L 75.241483 305.497682 
L 75.278308 305.38902 
L 75.278308 305.387985 
L 75.389114 305.125126 
L 75.38928 305.125126 
L 75.438214 305.015428 
L 75.54873 304.802243 
L 75.611224 304.692546 
L 75.721409 304.437965 
L 75.721906 304.437965 
L 75.796427 304.328268 
L 75.906819 304.098525 
L 75.907316 304.098525 
L 75.982501 303.988827 
L 76.098366 303.742526 
L 76.162271 303.632829 
L 76.272538 303.440341 
L 76.273326 303.440341 
L 76.340009 303.330644 
L 76.445424 303.152645 
L 76.451106 303.152645 
L 76.510573 303.042947 
L 76.620135 302.881506 
L 76.621628 302.881506 
L 76.709087 302.771809 
L 76.819894 302.542065 
L 76.820184 302.542065 
L 76.891926 302.432368 
L 76.997922 302.208834 
L 77.00265 302.208834 
L 77.079492 302.099137 
L 77.190299 301.972882 
L 77.190548 301.972882 
L 77.263741 301.863184 
L 77.373345 301.676906 
L 77.374797 301.676906 
L 77.446995 301.567209 
L 77.557179 301.374721 
L 77.558092 301.374721 
L 77.610011 301.265024 
L 77.717998 301.014583 
L 77.721108 301.014583 
L 77.802596 300.904886 
L 77.912697 300.650305 
L 77.913526 300.650305 
L 77.97967 300.540608 
L 78.08973 300.356399 
L 78.090725 300.356399 
L 78.167112 300.246702 
L 78.277089 300.116307 
L 78.278167 300.116307 
L 78.356794 300.00661 
L 78.467351 299.83068 
L 78.46789 299.83068 
L 78.517239 299.720983 
L 78.626262 299.540914 
L 78.628004 299.540914 
L 78.711689 299.431217 
L 78.822288 299.251148 
L 78.822744 299.251148 
L 78.888017 299.14145 
L 78.997953 298.9738 
L 78.999114 298.9738 
L 79.082675 298.864103 
L 79.193108 298.661266 
L 79.193772 298.661266 
L 79.287949 298.551569 
L 79.398092 298.404616 
L 79.399046 298.404616 
L 79.482316 298.294919 
L 79.591879 298.168663 
L 79.593413 298.168663 
L 79.707496 298.058966 
L 79.818509 297.928571 
L 79.818551 297.928571 
L 79.916045 297.818874 
L 80.027101 297.711246 
L 80.128369 297.601549 
L 80.235858 297.462875 
L 80.23901 297.462875 
L 80.339449 297.353178 
L 80.44897 297.195876 
L 80.449384 297.195876 
L 80.533899 297.086179 
L 80.644042 296.881273 
L 80.644996 296.881273 
L 80.742283 296.771576 
L 80.852799 296.637041 
L 80.852965 296.637041 
L 80.955851 296.527344 
L 81.065621 296.357624 
L 81.065745 296.357624 
L 81.145615 296.247926 
L 81.256422 296.080276 
L 81.362957 295.970579 
L 81.472187 295.844323 
L 81.473929 295.844323 
L 81.595269 295.734626 
L 81.705494 295.593882 
L 81.706158 295.593882 
L 81.824512 295.484185 
L 81.936853 295.399325 
L 82.067772 295.289628 
L 82.178039 295.153024 
L 82.178827 295.153024 
L 82.257495 295.043326 
L 82.367845 294.919141 
L 82.368342 294.919141 
L 82.480559 294.809443 
L 82.590163 294.722514 
L 82.59149 294.722514 
L 82.69873 294.612816 
L 82.806799 294.511398 
L 82.80937 294.511398 
L 82.947961 294.401701 
L 83.056943 294.296143 
L 83.058975 294.296143 
L 83.173887 294.186446 
L 83.280339 294.049842 
L 83.28461 294.049842 
L 83.380902 293.940144 
L 83.488267 293.80561 
L 83.491626 293.80561 
L 83.563078 293.695913 
L 83.673967 293.582076 
L 83.674133 293.582076 
L 83.784069 293.472379 
L 83.894626 293.346123 
L 84.014929 293.236426 
L 84.125694 293.139147 
L 84.125819 293.139147 
L 84.234261 293.02945 
L 84.344694 292.882497 
L 84.447248 292.7728 
L 84.560211 292.611359 
L 84.654222 292.501661 
L 84.765153 292.381615 
L 84.876499 292.271918 
L 84.98378 292.174639 
L 84.985564 292.174639 
L 85.116234 292.064942 
L 85.227289 291.928338 
L 85.227331 291.928338 
L 85.299156 291.818641 
L 85.410252 291.659269 
L 85.52674 291.549572 
L 85.637837 291.431596 
L 85.719366 291.320864 
L 85.838632 290.903807 
L 85.893206 290.79411 
L 86.004137 290.347042 
L 86.004302 290.347042 
L 86.054149 290.237344 
L 86.165038 289.784067 
L 86.212023 289.676439 
L 86.320963 289.399092 
L 86.32312 289.399092 
L 86.391793 289.289394 
L 86.501314 288.945814 
L 86.502848 288.945814 
L 86.537434 288.836117 
L 86.648489 288.55256 
L 86.696262 288.442863 
L 86.806861 288.258654 
L 86.807317 288.258654 
L 86.888017 288.148957 
L 86.998533 287.962678 
L 86.998699 287.962678 
L 87.093539 287.852981 
L 87.204367 287.585982 
L 87.204553 287.585982 
L 87.272771 287.476285 
L 87.383701 287.318983 
L 87.383743 287.318983 
L 87.453018 287.208251 
L 87.567494 287.027147 
L 87.686263 286.91745 
L 87.792549 286.760148 
L 87.797235 286.760148 
L 87.86566 286.650451 
L 87.974351 286.528335 
L 87.976715 286.528335 
L 88.077693 286.418638 
L 88.18767 286.242708 
L 88.188582 286.242708 
L 88.249335 286.133011 
L 88.359022 285.994337 
L 88.360432 285.994337 
L 88.432837 285.88464 
L 88.543893 285.661106 
L 88.590753 285.551408 
L 88.699154 285.325805 
L 88.70185 285.325805 
L 88.779564 285.216107 
L 88.889167 285.077434 
L 88.89066 285.077434 
L 88.981603 284.967736 
L 89.092243 284.785597 
L 89.092658 284.785597 
L 89.154572 284.6759 
L 89.276907 284.114995 
L 89.318542 284.005298 
L 89.429598 283.450602 
L 89.521909 283.340905 
L 89.630476 283.208441 
L 89.632922 283.208441 
L 89.739582 283.097708 
L 89.850637 282.889698 
L 89.850658 282.889698 
L 89.931212 282.78 
L 90.041936 282.645466 
L 90.042309 282.645466 
L 90.116995 282.535769 
L 90.226019 282.417792 
L 90.228009 282.417792 
L 90.326872 282.308095 
L 90.43631 282.204607 
L 90.437969 282.204607 
L 90.508218 282.09491 
L 90.619149 281.947957 
L 90.619191 281.947957 
L 90.678202 281.83826 
L 90.788303 281.623005 
L 90.789257 281.623005 
L 90.870371 281.513307 
L 90.981468 281.393261 
L 91.080539 281.283564 
L 91.190474 281.130402 
L 91.191511 281.130402 
L 91.27022 281.020705 
L 91.376008 280.892379 
L 91.381234 280.892379 
L 91.457703 280.782682 
L 91.566353 280.677124 
L 91.568759 280.677124 
L 91.66899 280.567427 
L 91.778387 280.416335 
L 91.779921 280.416335 
L 91.861989 280.306638 
L 91.968856 280.147266 
L 91.973044 280.147266 
L 92.048291 280.037569 
L 92.158662 279.876127 
L 92.159367 279.876127 
L 92.222608 279.76643 
L 92.331672 279.617408 
L 92.333663 279.617408 
L 92.391264 279.506675 
L 92.50149 279.385594 
L 92.502029 279.385594 
L 92.591271 279.275897 
L 92.702326 279.139293 
L 92.702368 279.139293 
L 92.781492 279.029596 
L 92.781492 279.028561 
L 92.898353 278.878503 
L 93.022098 278.767771 
L 93.131826 278.619783 
L 93.132862 278.619783 
L 93.207466 278.510086 
L 93.317775 278.354854 
L 93.318563 278.354854 
L 93.399138 278.245157 
L 93.50588 278.13546 
L 93.510193 278.13546 
L 93.624856 278.025762 
L 93.734419 277.87053 
L 93.735829 277.87053 
L 93.840249 277.760833 
L 93.948608 277.636648 
L 93.951097 277.636648 
L 94.0449 277.52695 
L 94.159646 277.344811 
L 94.240761 277.235114 
L 94.35024 277.061254 
L 94.351484 277.061254 
L 94.428949 276.951557 
L 94.541705 276.785976 
L 94.613364 276.676279 
L 94.723092 276.533466 
L 94.724461 276.533466 
L 94.789692 276.423768 
L 94.89913 276.214723 
L 94.900747 276.214723 
L 94.981115 276.105025 
L 95.091051 275.912538 
L 95.092212 275.912538 
L 95.146661 275.801806 
L 95.256804 275.600004 
L 95.257758 275.600004 
L 95.305489 275.492377 
L 95.305489 275.490307 
L 95.416586 275.295749 
L 95.490692 275.186052 
L 95.601374 275.041169 
L 95.601768 275.041169 
L 95.670918 274.931472 
L 95.781891 274.741054 
L 95.842643 274.631357 
L 95.952413 274.474055 
L 95.953616 274.474055 
L 96.027887 274.363323 
L 96.138445 274.231893 
L 96.138901 274.231893 
L 96.240087 274.122196 
L 96.348239 273.973173 
L 96.351142 273.973173 
L 96.437564 273.863476 
L 96.545717 273.720662 
L 96.54862 273.720662 
L 96.64006 273.610965 
L 96.750037 273.503338 
L 96.751136 273.503338 
L 96.835132 273.39364 
L 96.945856 273.211501 
L 96.946187 273.211501 
L 97.005738 273.101804 
L 97.115715 272.907247 
L 97.11671 272.907247 
L 97.178748 272.797549 
L 97.288974 272.596783 
L 97.289824 272.596783 
L 97.339194 272.486051 
L 97.450083 272.284249 
L 97.45029 272.284249 
L 97.524935 272.176622 
L 97.635825 272.008971 
L 97.636032 272.008971 
L 97.706198 271.899274 
L 97.817088 268.854657 
L 97.817254 268.854657 
L 97.826045 268.745995 
L 97.826045 268.743925 
L 97.937059 267.639708 
L 97.937142 267.639708 
L 97.949748 267.528976 
L 98.076479 266.749712 
L 98.100324 266.63898 
L 98.211172 265.878343 
L 98.211379 265.878343 
L 98.228506 265.767611 
L 98.3384 265.416787 
L 98.339603 265.416787 
L 98.380492 265.311229 
L 98.380492 265.306054 
L 98.48993 264.982137 
L 98.491547 264.982137 
L 98.541186 264.871405 
L 98.651951 264.61372 
L 98.652241 264.61372 
L 98.716892 264.502988 
L 98.826579 264.311535 
L 98.827989 264.311535 
L 98.887912 264.201838 
L 98.998304 264.00728 
L 98.998967 264.00728 
L 99.07129 263.897583 
L 99.182387 263.703026 
L 99.226759 263.593328 
L 99.337566 263.229051 
L 99.337773 263.229051 
L 99.388822 263.119353 
L 99.499172 262.928935 
L 99.499919 262.928935 
L 99.548065 262.819238 
L 99.658996 262.533611 
L 99.659141 262.533611 
L 99.704156 262.423914 
L 99.807705 262.268682 
L 99.815252 262.268682 
L 99.866716 262.161055 
L 99.976818 261.972706 
L 99.977688 261.972706 
L 100.052002 261.863009 
L 100.161232 261.720196 
L 100.162891 261.720196 
L 100.239361 261.610499 
L 100.34996 261.440778 
L 100.350375 261.440778 
L 100.420997 261.331081 
L 100.531016 261.200686 
L 100.532094 261.200686 
L 100.614576 261.090989 
L 100.725134 260.937827 
L 100.725507 260.937827 
L 100.805004 260.828129 
L 100.914276 260.687386 
L 100.91606 260.687386 
L 101.030847 260.577688 
L 101.140783 260.432805 
L 101.141861 260.432805 
L 101.200996 260.323108 
L 101.310559 260.174085 
L 101.312093 260.174085 
L 101.426632 260.064388 
L 101.537645 259.927784 
L 101.537728 259.927784 
L 101.638458 259.818087 
L 101.750985 259.675273 
L 101.857624 259.565576 
L 101.967725 259.44346 
L 101.968638 259.44346 
L 102.067003 259.333763 
L 102.177685 259.219926 
L 102.177975 259.219926 
L 102.248971 259.109194 
L 102.357663 258.950857 
L 102.360026 258.950857 
L 102.387438 258.84116 
L 102.496502 258.621766 
L 102.49841 258.621766 
L 102.613032 258.512068 
L 102.722013 258.468603 
L 102.723797 258.468603 
L 102.799147 258.358906 
L 102.909476 258.205744 
L 102.910202 258.205744 
L 103.00666 258.096047 
L 103.115849 257.97807 
L 103.117756 257.97807 
L 103.228812 257.868373 
L 103.338333 257.748327 
L 103.339908 257.748327 
L 103.423843 257.63863 
L 103.534939 257.529967 
L 103.659887 257.419235 
L 103.770154 257.245375 
L 103.770984 257.245375 
L 103.868851 257.135678 
L 103.979533 257.011493 
L 103.979907 257.011493 
L 104.07313 256.901795 
L 104.182527 256.798307 
L 104.184206 256.798307 
L 104.273593 256.68861 
L 104.273593 256.687575 
L 104.394892 256.564425 
L 104.502132 256.454727 
L 104.616339 256.299495 
L 104.750347 256.189798 
L 105.064126 255.982822 
L 105.195626 255.873125 
L 105.306722 255.757218 
L 105.419084 255.646486 
L 105.532772 255.515056 
L 105.633336 255.405359 
L 105.743956 255.291522 
L 105.74435 255.291522 
L 105.814143 255.181825 
L 105.912218 255.096965 
L 105.925177 255.096965 
L 106.051638 254.987268 
L 106.160703 254.869291 
L 106.162694 254.869291 
L 106.249199 254.759594 
L 106.36013 254.660246 
L 106.360296 254.660246 
L 106.488187 254.549513 
L 106.599243 254.436712 
L 106.599284 254.436712 
L 106.724481 254.327014 
L 106.835121 254.215247 
L 106.835577 254.215247 
L 106.956834 254.10555 
L 107.066728 253.991713 
L 107.06791 253.991713 
L 107.173802 253.880981 
L 107.284857 253.739203 
L 107.426807 253.629505 
L 107.537489 253.542575 
L 107.537883 253.542575 
L 107.722485 253.432878 
L 107.831135 253.345948 
L 107.833498 253.345948 
L 108.011278 253.236251 
L 108.121421 253.167949 
L 108.122292 253.167949 
L 108.196895 253.058252 
L 108.307453 252.876113 
L 108.307909 252.876113 
L 108.40416 252.766416 
L 108.516335 252.656718 
L 108.614161 252.545986 
L 108.730566 252.414556 
L 108.868991 252.304859 
L 108.977558 252.193092 
L 108.980046 252.193092 
L 109.107814 252.083395 
L 109.21804 251.969558 
L 109.218828 251.969558 
L 109.321278 251.859861 
L 109.42858 251.746024 
L 109.432188 251.746024 
L 109.508243 251.635292 
L 109.615027 251.528699 
L 109.619319 251.528699 
L 109.737859 251.419002 
L 109.848293 251.274119 
L 109.848956 251.274119 
L 109.962748 251.163387 
L 110.07314 251.038166 
L 110.073845 251.038166 
L 110.192033 250.928469 
L 110.301927 250.798074 
L 110.302964 250.798074 
L 110.452586 250.688377 
L 110.558374 250.562122 
L 110.563351 250.562122 
L 110.670134 250.452424 
L 110.670134 250.451389 
L 110.785378 250.348936 
L 110.906096 250.239239 
L 111.012714 250.135751 
L 111.017192 250.135751 
L 111.114065 250.026054 
L 111.222757 249.866682 
L 111.225162 249.866682 
L 111.282493 249.75595 
L 111.403066 249.601753 
L 111.473854 249.492056 
L 111.584163 249.357521 
L 111.584951 249.357521 
L 111.677262 249.246789 
L 111.787073 249.131918 
L 111.788359 249.131918 
L 111.863087 249.021185 
L 111.971654 248.827663 
L 111.974183 248.827663 
L 112.046361 248.716931 
L 112.156276 248.542036 
L 112.157395 248.542036 
L 112.222129 248.432339 
L 112.328872 248.306083 
L 112.333226 248.306083 
L 112.411396 248.196386 
L 112.51988 248.051503 
L 112.522451 248.051503 
L 112.605307 247.941806 
L 112.710971 247.788644 
L 112.716404 247.788644 
L 112.798555 247.678946 
L 112.909112 247.440924 
L 112.909652 247.440924 
L 112.984587 247.331227 
L 113.095518 247.171855 
L 113.095684 247.171855 
L 113.168131 247.061123 
L 113.279186 246.904856 
L 113.279207 246.904856 
L 113.353333 246.795159 
L 113.460698 246.670973 
L 113.464389 246.670973 
L 113.597754 246.560241 
L 113.703916 246.461928 
L 113.708851 246.461928 
L 113.793324 246.3543 
L 113.903302 246.168022 
L 113.90438 246.168022 
L 114.000464 246.058324 
L 114.110234 245.907232 
L 114.11154 245.907232 
L 114.261432 245.797535 
L 114.372155 245.49535 
L 114.372529 245.49535 
L 114.407529 245.384618 
L 114.517879 245.242839 
L 114.518605 245.242839 
L 114.665054 245.133142 
L 114.778245 245.081398 
L 114.851542 244.971701 
L 114.962473 244.526702 
L 114.962639 244.526702 
L 115.03745 244.417005 
L 115.146515 244.263843 
L 115.148422 244.263843 
L 115.247576 244.153111 
L 115.358258 243.992704 
L 115.358672 243.992704 
L 115.40205 243.883007 
L 115.51269 243.690519 
L 115.513146 243.690519 
L 115.557436 243.580822 
L 115.668242 243.332451 
L 115.668491 243.332451 
L 115.726714 243.222754 
L 115.836276 243.026127 
L 115.837811 243.026127 
L 115.886724 242.916429 
L 115.997219 242.692895 
L 115.9978 242.692895 
L 116.087996 242.583198 
L 116.199093 242.173386 
L 116.210207 242.062653 
L 116.319976 241.302017 
L 116.321303 241.302017 
L 116.359704 241.19232 
L 116.468458 240.968786 
L 116.470801 240.968786 
L 116.739855 240.858053 
L 116.85091 240.517578 
L 116.858623 240.406846 
L 116.969015 239.474419 
L 116.96972 239.474419 
L 117.042582 239.364722 
L 117.153637 238.478865 
L 117.189881 238.369167 
L 117.300729 238.151843 
L 117.300916 238.151843 
L 117.35182 238.042145 
L 117.46698 237.839309 
L 117.63207 237.729612 
L 117.741239 237.646821 
L 117.743084 237.646821 
L 117.854886 237.537124 
L 117.964241 237.40052 
L 117.965941 237.40052 
L 118.043945 237.290823 
L 118.154689 237.125242 
L 118.155021 237.125242 
L 118.305866 237.015545 
L 118.416818 236.860313 
L 118.416963 236.860313 
L 118.535773 236.74958 
L 118.646621 236.566407 
L 118.646828 236.566407 
L 118.719814 236.456709 
L 118.830828 236.272501 
L 118.830911 236.272501 
L 118.867072 236.162804 
L 118.977837 235.902014 
L 118.978128 235.902014 
L 119.045889 235.792317 
L 119.153357 235.541876 
L 119.156985 235.541876 
L 119.218547 235.431144 
L 119.332857 235.270737 
L 119.405305 235.16104 
L 119.516152 234.771925 
L 119.516401 234.771925 
L 119.548582 234.662228 
L 119.658227 234.47181 
L 119.659637 234.47181 
L 119.82792 234.362113 
L 119.82792 234.361078 
L 119.941069 234.254485 
L 120.033691 234.144788 
L 120.144581 233.86951 
L 120.20156 233.759813 
L 120.311495 233.546627 
L 120.312553 233.546627 
L 120.39319 233.435895 
L 120.510964 233.271349 
L 120.543683 233.161652 
L 120.652167 233.016769 
L 120.654655 233.016769 
L 120.721628 232.907072 
L 120.721628 232.906037 
L 120.839858 232.729072 
L 120.987033 232.619375 
L 120.987033 232.61834 
L 121.107626 232.462073 
L 121.194961 232.352376 
L 121.305145 232.240609 
L 121.306058 232.240609 
L 121.389121 232.130912 
L 121.499658 232.008796 
L 121.500218 232.008796 
L 121.540464 231.899099 
L 121.654028 231.650728 
L 121.723904 231.54103 
L 121.834627 231.443752 
L 121.835001 231.443752 
L 121.920552 231.334054 
L 122.031525 230.992544 
L 122.031628 230.992544 
L 122.127941 230.882847 
L 122.238374 230.671731 
L 122.238996 230.671731 
L 122.380822 230.562034 
L 122.490218 230.241221 
L 122.491919 230.241221 
L 122.523892 230.131524 
L 122.634366 229.837618 
L 122.634988 229.837618 
L 122.693128 229.726886 
L 122.803748 229.448503 
L 122.804225 229.448503 
L 122.891104 229.337771 
L 123.016404 229.164946 
L 123.126111 229.054214 
L 123.243221 228.906226 
L 123.331344 228.796529 
L 123.44385 228.726157 
L 123.518246 228.61646 
L 123.627871 228.415693 
L 123.629343 228.415693 
L 123.695902 228.305996 
L 123.806335 228.09488 
L 123.806957 228.09488 
L 123.854813 227.985183 
L 123.854813 227.984148 
L 123.971217 227.718184 
L 124.019737 227.608487 
L 124.130833 227.310442 
L 124.167119 227.200744 
L 124.278174 226.976175 
L 124.278216 226.976175 
L 124.343738 226.865443 
L 124.458401 226.687444 
L 124.53035 226.577747 
L 124.641157 226.393538 
L 124.641447 226.393538 
L 124.692682 226.283841 
L 125.057717 225.143403 
L 125.188512 225.033706 
L 125.299402 224.861916 
L 125.299609 224.861916 
L 125.366665 224.752219 
L 125.476974 224.476941 
L 125.477762 224.476941 
L 125.544735 224.367243 
L 125.655127 224.164407 
L 125.65579 224.164407 
L 125.708373 224.056779 
L 125.708373 224.05471 
L 125.819346 223.843594 
L 125.914891 223.732862 
L 126.025947 223.45241 
L 126.025967 223.45241 
L 126.049149 223.344782 
L 127.143051 220.787594 
L 127.273804 220.298096 
L 127.349528 220.188399 
L 127.457887 220.051794 
L 127.460604 220.051794 
L 127.548208 219.942097 
L 127.658434 219.838609 
L 127.659263 219.838609 
L 127.78334 219.728912 
L 127.900657 219.57575 
L 127.964934 219.465018 
L 128.086067 219.215612 
L 128.159012 219.104879 
L 128.27948 218.946543 
L 128.336542 218.836846 
L 128.336542 218.835811 
L 128.451682 218.702311 
L 128.532569 218.592614 
L 128.641758 218.402196 
L 128.643645 218.402196 
L 128.69289 218.292499 
L 128.803074 218.135197 
L 128.803903 218.135197 
L 128.889144 218.024465 
L 129.003973 217.839221 
L 129.162511 217.729524 
L 129.275162 217.650873 
L 129.441082 217.541176 
L 129.551017 217.414921 
L 129.552054 217.414921 
L 129.625911 217.304188 
L 129.734727 217.104457 
L 129.737008 217.104457 
L 129.800394 216.994759 
L 129.910806 216.765016 
L 129.911491 216.765016 
L 130.008716 216.655319 
L 130.118942 216.529063 
L 130.119792 216.529063 
L 130.205322 216.419366 
L 130.316004 216.210321 
L 130.316378 216.210321 
L 130.377711 216.099588 
L 130.487211 215.964019 
L 130.488787 215.964019 
L 130.553666 215.854322 
L 130.662917 215.686671 
L 130.664742 215.686671 
L 130.819734 215.575939 
L 130.929981 215.305836 
L 130.930831 215.305836 
L 131.051092 215.195103 
L 131.162106 215.051255 
L 131.162189 215.051255 
L 131.246331 214.941558 
L 131.361885 214.794605 
L 131.525959 214.684908 
L 131.636558 214.562792 
L 131.636973 214.562792 
L 131.804883 214.45206 
L 131.915648 214.374444 
L 131.915959 214.374444 
L 132.116153 214.264746 
L 132.226918 214.113654 
L 132.227208 214.113654 
L 132.352881 214.002922 
L 132.462775 213.952213 
L 132.463916 213.952213 
L 132.553241 213.84355 
L 132.553241 213.842515 
L 132.661891 213.695563 
L 132.664338 213.695563 
L 132.766663 213.585865 
L 132.766663 213.58483 
L 132.880269 213.45961 
L 132.989209 213.348878 
L 133.097279 213.225727 
L 133.100265 213.225727 
L 133.214803 213.11603 
L 133.322873 212.981495 
L 133.3259 212.981495 
L 133.429283 212.871798 
L 133.429283 212.870763 
L 133.541645 212.799357 
L 133.692158 212.689659 
L 133.800539 212.555125 
L 133.803213 212.555125 
L 133.901828 212.445428 
L 134.011369 212.333661 
L 134.012862 212.333661 
L 134.099845 212.223963 
L 134.213305 212.101848 
L 134.369313 211.99215 
L 134.47759 211.812081 
L 134.480368 211.812081 
L 134.584747 211.701349 
L 134.695595 211.611315 
L 134.695844 211.611315 
L 134.769494 211.501617 
L 134.769494 211.500582 
L 134.896763 211.30292 
L 134.957433 211.192188 
L 135.080556 210.994526 
L 135.135607 210.883794 
L 135.267915 210.35497 
L 135.343846 210.247343 
L 135.456415 210.09832 
L 135.560565 209.988623 
L 135.668697 209.852019 
L 135.671579 209.852019 
L 135.781639 209.742322 
L 135.866071 209.640903 
L 135.892736 209.640903 
L 136.02071 209.531206 
L 136.103608 209.435997 
L 136.13162 209.435997 
L 136.182856 209.325265 
L 136.31249 208.957883 
L 136.453403 208.848185 
L 136.561431 208.711581 
L 136.564479 208.711581 
L 136.680324 208.600849 
L 136.79281 208.529442 
L 136.928809 208.41871 
L 137.043679 208.229327 
L 137.20342 208.120665 
L 137.477077 207.713957 
L 137.596529 207.603225 
L 137.716853 207.492493 
L 137.809869 207.381761 
L 137.9287 207.289656 
L 138.077181 207.179959 
L 138.191637 207.097169 
L 138.406822 206.986437 
L 138.483872 206.898472 
L 138.516405 206.898472 
L 138.655286 206.788775 
L 138.767938 206.629403 
L 138.85942 206.518671 
L 138.97541 206.39759 
L 139.073029 206.286858 
L 139.1563 206.252707 
L 139.183587 206.252707 
L 139.283611 206.14301 
L 139.394708 205.948452 
L 139.447664 205.838755 
L 139.557849 205.675244 
L 139.55874 205.675244 
L 139.62196 205.564512 
L 139.73061 205.261292 
L 139.733057 205.261292 
L 139.832294 205.15056 
L 139.945256 205.058455 
L 140.056685 204.948758 
L 140.172115 204.733503 
L 140.247942 204.623806 
L 140.247942 204.622771 
L 140.365301 204.468574 
L 140.465698 204.358877 
L 140.576795 204.173633 
L 140.648185 204.062901 
L 140.758867 203.862134 
L 140.759281 203.862134 
L 140.80299 203.752437 
L 140.951181 203.030091 
L 140.982014 202.920394 
L 141.094251 202.806557 
L 141.175904 202.69686 
L 141.29036 202.529209 
L 141.396771 202.418477 
L 141.50737 202.367768 
L 141.507805 202.367768 
L 141.631654 202.257036 
L 141.742502 202.17942 
L 141.742626 202.17942 
L 141.956277 202.069723 
L 142.065155 201.991072 
L 142.067373 201.991072 
L 142.44176 201.881374 
L 142.553644 201.784096 
L 142.710772 201.673364 
L 142.821164 201.527446 
L 142.821786 201.527446 
L 142.99123 201.417748 
L 143.103447 201.361865 
L 143.279899 201.252167 
L 143.279899 201.251133 
L 143.393235 201.138331 
L 143.489859 201.028633 
L 143.6022 200.902378 
L 143.740086 200.792681 
L 143.850021 200.680914 
L 143.851162 200.680914 
L 144.056332 200.570182 
L 144.169419 200.471868 
L 144.36105 200.362171 
L 144.472063 200.229706 
L 144.472146 200.229706 
L 144.575488 200.120009 
L 144.686585 200.008242 
L 144.846367 199.813685 
L 144.961445 199.68329 
L 145.056119 199.573592 
L 145.166905 199.468035 
L 145.167133 199.468035 
L 145.260439 199.358337 
L 145.372718 199.240361 
L 145.484333 199.129629 
L 145.599784 198.913339 
L 145.665057 198.803642 
L 145.775096 198.633922 
L 145.776029 198.633922 
L 145.899608 198.524224 
L 146.088274 198.240667 
L 146.266779 198.129935 
L 146.375242 198.004715 
L 146.377834 198.004715 
L 146.471389 197.893982 
L 146.588707 197.820506 
L 146.803829 197.709774 
L 146.921458 197.632158 
L 147.033156 197.522461 
L 147.145061 197.4376 
L 147.251575 197.327903 
L 147.355456 197.26788 
L 147.362651 197.26788 
L 147.50653 197.157148 
L 147.617357 196.996742 
L 147.617605 196.996742 
L 147.703447 196.886009 
L 147.811641 196.771138 
L 147.814544 196.771138 
L 147.912163 196.661441 
L 148.018366 196.514488 
L 148.02326 196.514488 
L 148.108231 196.40479 
L 148.21827 196.241279 
L 148.219327 196.241279 
L 148.300442 196.131582 
L 148.410999 195.988769 
L 148.411538 195.988769 
L 148.460742 195.879071 
L 148.519857 195.829397 
L 148.571154 195.829397 
L 148.697429 195.7197 
L 148.80977 195.647258 
L 149.021928 195.539631 
L 149.343585 194.828668 
L 149.458311 194.645495 
L 149.608306 194.535797 
L 149.688922 194.438519 
L 149.719257 194.438519 
L 149.867863 194.327787 
L 149.978711 194.198427 
L 149.97896 194.198427 
L 150.049168 194.088729 
L 150.162504 193.861056 
L 150.232297 193.751358 
L 150.342855 193.542313 
L 150.343394 193.542313 
L 150.405805 193.431581 
L 150.515409 193.264965 
L 150.51686 193.264965 
L 150.588582 193.154233 
L 150.702996 192.989687 
L 150.811252 192.87999 
L 150.811252 192.878955 
L 150.93649 192.646107 
L 151.007486 192.535375 
L 151.118085 192.432922 
L 151.118562 192.432922 
L 151.171041 192.322189 
L 151.284253 192.217667 
L 151.433502 192.106934 
L 151.511837 192.037597 
L 151.544557 192.037597 
L 151.609705 191.9279 
L 151.720636 191.770599 
L 151.720781 191.770599 
L 151.861155 191.662971 
L 152.000555 191.360786 
L 152.04134 191.251089 
L 152.151773 190.955113 
L 152.152437 190.955113 
L 152.199297 190.844381 
L 152.308217 190.648789 
L 152.310394 190.648789 
L 152.373075 190.538057 
L 152.482513 190.404557 
L 152.484172 190.404557 
L 152.589359 190.293825 
L 152.700269 190.040279 
L 152.700352 190.040279 
L 152.844293 189.929547 
L 152.954726 189.738095 
L 152.955348 189.738095 
L 153.049318 189.630467 
L 153.164313 189.475235 
L 153.229544 189.364503 
L 153.355445 189.121306 
L 153.413503 189.010574 
L 153.524371 188.179566 
L 153.524579 188.179566 
L 153.550373 188.069868 
L 153.550373 188.068833 
L 153.67476 187.850474 
L 153.840286 187.739742 
L 153.950512 187.62694 
L 153.951382 187.62694 
L 154.087091 187.517242 
L 154.087091 187.516208 
L 154.20474 187.353731 
L 154.276938 187.242999 
L 154.388035 187.091907 
L 154.454428 186.981175 
L 154.595797 186.480293 
L 154.615495 186.37163 
L 154.794395 185.780714 
L 154.844946 185.669982 
L 154.955835 185.414367 
L 154.956022 185.414367 
L 154.998756 185.304669 
L 155.109542 185.008694 
L 155.263207 184.898996 
L 155.374179 184.319464 
L 155.374304 184.319464 
L 155.384464 184.208732 
L 155.495519 175.990751 
L 155.49554 175.990751 
L 155.548372 175.881054 
L 155.659157 175.607845 
L 155.659365 175.607845 
L 155.704172 175.498148 
L 155.816617 175.3098 
L 155.906689 175.200103 
L 156.017329 175.05108 
L 156.017619 175.05108 
L 156.144537 174.941383 
L 156.25752 174.848244 
L 156.375522 174.737511 
L 156.492963 174.414629 
L 156.536983 174.229385 
L 156.663631 173.843375 
L 156.817856 173.41804 
L 156.89275 173.307307 
L 157.003121 172.782623 
L 157.003805 172.782623 
L 157.112372 172.672926 
L 157.217787 172.598415 
L 157.223427 172.598415 
L 157.49244 172.488718 
L 157.602603 172.38109 
L 157.603536 172.38109 
L 157.703187 172.271393 
L 157.812086 172.178254 
L 157.812833 172.178254 
L 158.071727 172.068556 
L 158.176831 172.008533 
L 158.18274 172.008533 
L 158.318283 171.897801 
L 158.431391 171.795348 
L 158.601146 171.684616 
L 158.71328 171.607 
L 159.013705 171.497303 
L 159.11937 171.447628 
L 159.124802 171.447628 
L 159.31129 171.337931 
L 159.31129 171.336896 
L 159.430349 171.240652 
L 159.737887 171.130955 
L 159.849979 171.031607 
L 160.12828 170.920875 
L 160.258287 170.793584 
L 160.376143 170.682852 
L 160.47652 170.578329 
L 160.487157 170.578329 
L 160.571672 170.467597 
L 160.681027 170.381702 
L 160.682769 170.381702 
L 160.798157 170.27097 
L 160.911701 170.149889 
L 160.973138 170.039157 
L 161.271345 169.201939 
L 161.385096 169.092242 
L 161.496006 168.984614 
L 161.496172 168.984614 
L 161.656347 168.874917 
L 161.763214 168.76729 
L 161.767403 168.76729 
L 161.841467 168.657592 
L 161.952273 168.527198 
L 161.952564 168.527198 
L 162.083918 168.416465 
L 162.19458 168.266408 
L 162.194994 168.266408 
L 162.347104 168.155676 
L 162.460668 168.090478 
L 162.70907 167.980781 
L 162.821598 167.8152 
L 162.860227 167.704468 
L 162.978746 167.567864 
L 163.126875 167.457132 
L 163.241891 167.38883 
L 163.362298 167.279133 
L 163.475074 167.094924 
L 163.55652 166.985227 
L 163.666642 166.879669 
L 163.667617 166.879669 
L 163.718935 166.768937 
L 163.826341 166.631298 
L 163.830011 166.631298 
L 163.991265 166.5216 
L 164.096867 166.393275 
L 164.102299 166.393275 
L 164.211758 166.283578 
L 164.323705 166.194578 
L 164.556058 166.084881 
L 164.674184 165.946207 
L 164.768465 165.835475 
L 164.878836 165.627464 
L 164.879541 165.627464 
L 164.955617 165.517767 
L 165.068849 165.412209 
L 165.193195 165.302512 
L 165.303255 165.182466 
L 165.304292 165.182466 
L 165.422086 165.072769 
L 165.53791 164.985839 
L 165.604448 164.875107 
L 165.739182 164.28626 
L 165.79529 164.175528 
L 165.905682 163.890936 
L 165.906387 163.890936 
L 165.993888 163.780204 
L 166.103492 163.634286 
L 166.104943 163.634286 
L 166.19431 163.523554 
L 166.304847 163.379705 
L 166.305282 163.379705 
L 166.389195 163.270008 
L 166.500271 163.147892 
L 166.662624 163.038195 
L 166.774613 162.99266 
L 166.930932 162.881928 
L 167.041531 162.771196 
L 167.042029 162.771196 
L 167.156609 162.661499 
L 167.156609 162.660464 
L 167.271935 162.555941 
L 167.37225 162.446244 
L 167.480796 162.204082 
L 167.483305 162.204082 
L 167.605889 162.09335 
L 167.710392 161.96399 
L 167.716944 161.96399 
L 167.81983 161.854292 
L 167.931984 161.744595 
L 168.033066 161.633863 
L 168.143084 161.545898 
L 168.144121 161.545898 
L 168.290425 161.436201 
L 168.397209 161.307876 
L 168.401522 161.307876 
L 168.496446 161.198179 
L 168.607086 161.125737 
L 168.607459 161.125737 
L 168.708355 161.015005 
L 168.824303 160.895994 
L 168.957379 160.786296 
L 169.06634 160.676599 
L 169.068082 160.676599 
L 169.195289 160.565867 
L 169.303815 160.434437 
L 169.306386 160.434437 
L 169.485327 160.32474 
L 169.587984 160.225392 
L 169.596361 160.225392 
L 169.730867 160.115694 
L 169.832468 160.057741 
L 169.841715 160.057741 
L 170.07494 159.947009 
L 170.146184 159.888021 
L 170.183797 159.888021 
L 170.336197 159.777289 
L 170.447937 159.753486 
L 170.584807 159.643789 
L 170.695572 159.540301 
L 170.695903 159.540301 
L 170.786804 159.430604 
L 170.897113 159.300209 
L 170.897901 159.300209 
L 171.046383 159.189477 
L 171.160403 159.116 
L 171.304343 159.006303 
L 171.409406 158.917303 
L 171.415419 158.917303 
L 171.577544 158.806571 
L 171.683291 158.731025 
L 171.688558 158.731025 
L 171.797167 158.621328 
L 171.908139 158.414352 
L 171.908263 158.414352 
L 171.978077 158.30362 
L 172.08625 158.118376 
L 172.089112 158.118376 
L 172.215179 158.007644 
L 172.325736 157.909331 
L 172.326234 157.909331 
L 172.420411 157.798598 
L 172.531218 157.625773 
L 172.531487 157.625773 
L 172.627966 157.516076 
L 172.627966 157.515041 
L 172.740576 157.439495 
L 172.872408 157.328763 
L 172.984873 157.261496 
L 173.077619 157.150764 
L 173.184445 157.066938 
L 173.188716 157.066938 
L 173.29832 156.959311 
L 173.29832 156.957241 
L 173.408131 156.758544 
L 173.409334 156.758544 
L 173.572848 156.648847 
L 173.684525 156.561917 
L 173.842586 156.451185 
L 173.957021 156.357011 
L 174.066583 156.247314 
L 174.175586 156.075523 
L 174.17768 156.075523 
L 174.338809 155.964791 
L 174.454654 155.84785 
L 174.541512 155.738153 
L 174.652733 155.727804 
L 174.735278 155.618107 
L 174.842 155.371805 
L 174.846334 155.371805 
L 174.970203 155.261073 
L 175.080242 155.07376 
L 175.081258 155.07376 
L 175.14226 154.964063 
L 175.252734 154.781924 
L 175.253315 154.781924 
L 175.329453 154.672226 
L 175.439575 154.341065 
L 175.440529 154.341065 
L 175.470843 154.231368 
L 175.597532 153.887788 
L 176.015793 153.407603 
L 176.086146 153.297906 
L 176.195066 153.146814 
L 176.197243 153.146814 
L 176.315866 153.037116 
L 176.425408 152.83428 
L 176.426942 152.83428 
L 176.493418 152.724583 
L 176.602109 152.672839 
L 176.604515 152.672839 
L 176.696245 152.563141 
L 176.797472 152.40377 
L 176.807217 152.40377 
L 176.961235 152.294073 
L 177.066484 152.246468 
L 177.071979 152.246468 
L 177.375971 152.136771 
L 177.490302 151.97326 
L 177.560759 151.863563 
L 177.671503 151.729028 
L 177.671856 151.729028 
L 177.814552 151.618296 
L 177.905039 151.534471 
L 177.925442 151.534471 
L 178.050949 151.424774 
L 178.163331 151.294379 
L 178.263853 151.183647 
L 178.378744 151.089472 
L 178.476861 150.979775 
L 178.476861 150.97874 
L 178.593805 150.834892 
L 178.648711 150.725195 
L 178.747968 150.578242 
L 178.759786 150.578242 
L 179.054821 150.46751 
L 179.168634 150.400243 
L 179.229096 150.290545 
L 179.346725 149.965593 
L 179.38836 149.854861 
L 179.5148 149.667548 
L 179.610553 149.55785 
L 179.716881 149.458502 
L 179.721609 149.458502 
L 179.813961 149.348805 
L 179.924477 149.22048 
L 179.925016 149.22048 
L 180.015067 149.110782 
L 180.015067 149.109747 
L 180.140305 148.936922 
L 180.227951 148.82619 
L 180.387401 148.533319 
L 180.474922 148.423622 
L 180.585127 148.239413 
L 180.585998 148.239413 
L 180.768754 148.129716 
L 180.878275 147.935159 
L 180.87983 147.935159 
L 180.950079 147.825462 
L 181.226826 147.345277 
L 181.337031 147.196255 
L 181.337466 147.196255 
L 182.00753 146.183107 
L 182.116574 145.995794 
L 182.118606 145.995794 
L 182.293296 145.886097 
L 182.40404 145.801237 
L 182.404206 145.801237 
L 182.489219 145.690504 
L 182.59762 145.592191 
L 182.600274 145.592191 
L 182.691693 145.482494 
L 182.691693 145.481459 
L 182.80447 145.393494 
L 182.987163 145.283797 
L 183.099089 145.201006 
L 183.212716 145.090274 
L 183.326549 144.952635 
L 183.427279 144.842938 
L 183.537836 144.710473 
L 183.538375 144.710473 
L 183.648021 144.599741 
L 183.756982 144.530404 
L 183.758972 144.530404 
L 183.884728 144.420707 
L 183.972436 144.302731 
L 183.995659 144.302731 
L 184.312963 144.191998 
L 184.42632 144.079197 
L 184.592571 143.970534 
L 184.704248 143.872221 
L 185.098415 143.762523 
L 185.224503 143.644547 
L 185.310096 143.533815 
L 185.429425 143.400315 
L 185.49109 143.289583 
L 185.601917 143.164363 
L 185.602186 143.164363 
L 185.769806 143.054666 
L 185.88082 142.905643 
L 185.880903 142.905643 
L 185.934232 142.794911 
L 186.045329 142.276436 
L 186.053188 142.165704 
L 186.19126 141.719671 
L 186.258441 141.608938 
L 186.368335 141.502346 
L 186.369475 141.502346 
L 186.486087 141.392648 
L 186.486087 141.391614 
L 186.603011 141.247765 
L 186.630173 141.139103 
L 186.739196 140.424001 
L 186.741249 140.424001 
L 186.832565 140.313269 
L 186.959233 140.163211 
L 187.038689 140.053514 
L 187.148915 139.910701 
L 187.149786 139.910701 
L 187.33843 139.799968 
L 187.453508 139.701655 
L 187.556062 139.591958 
L 187.664028 139.515376 
L 187.667117 139.515376 
L 187.738445 139.405679 
L 187.848919 139.037262 
L 187.849541 139.037262 
L 187.927608 138.927565 
L 188.207796 138.316986 
L 188.338218 138.206254 
L 188.449128 138.091382 
L 188.449273 138.091382 
L 188.618385 137.981685 
L 188.817273 137.828522 
L 188.916343 137.71779 
L 189.028477 137.665011 
L 189.2216 137.554279 
L 189.332572 137.5015 
L 189.332697 137.5015 
L 189.486714 137.391803 
L 189.486714 137.390768 
L 189.615664 137.288315 
L 189.793817 137.177583 
L 189.905515 137.131013 
L 190.081905 137.020281 
L 190.193561 137.006828 
L 190.370968 136.896096 
L 190.4825 136.868154 
L 190.731586 136.758457 
L 190.841709 136.661178 
L 190.842621 136.661178 
L 191.118061 136.551481 
L 191.228515 136.495597 
L 191.229158 136.495597 
L 191.528547 136.3859 
L 191.638918 136.292761 
L 191.63956 136.292761 
L 191.730669 136.183063 
L 191.841765 136.036111 
L 192.010049 135.925378 
L 192.120648 135.827065 
L 192.121062 135.827065 
L 192.252728 135.717368 
L 192.365483 135.663554 
L 192.55587 135.553857 
L 192.665888 135.452438 
L 192.666966 135.452438 
L 192.75708 135.342741 
L 192.870561 135.224765 
L 192.991548 135.115067 
L 193.102603 135.065393 
L 193.102624 135.065393 
L 193.305264 134.954661 
L 193.416942 134.92465 
L 193.619022 134.814952 
L 193.728896 134.678348 
L 193.730098 134.678348 
L 193.866512 134.567616 
L 194.009229 134.498279 
L 194.17687 134.387547 
L 194.283197 134.239559 
L 194.287966 134.239559 
L 194.398026 134.129862 
L 194.506967 133.980839 
L 194.509082 133.980839 
L 194.654017 133.871142 
L 194.76387 133.506864 
L 194.765093 133.506864 
L 194.79858 133.396132 
L 194.912206 133.270912 
L 195.055815 133.160179 
L 195.166746 133.070145 
L 195.166912 133.070145 
L 195.506754 132.960448 
L 195.607649 132.896285 
L 195.617851 132.896285 
L 195.727703 132.786588 
L 195.837929 132.6831 
L 195.838759 132.6831 
L 196.018695 132.572368 
L 196.121829 132.50924 
L 196.129771 132.50924 
L 196.328098 132.399543 
L 196.430113 132.33745 
L 196.439154 132.33745 
L 196.586329 132.227753 
L 196.698794 132.130474 
L 196.853434 132.020777 
L 196.964862 131.979382 
L 197.064741 131.869684 
L 197.172977 131.780685 
L 197.175776 131.780685 
L 197.307524 131.670987 
L 197.307524 131.669953 
L 197.422436 131.573709 
L 197.62377 131.464011 
L 197.735904 131.356384 
L 197.930271 131.245652 
L 198.043483 131.139059 
L 198.207495 131.029362 
L 198.315253 130.944502 
L 198.318467 130.944502 
L 198.514161 130.834804 
L 198.596375 130.822386 
L 198.625217 130.822386 
L 198.747427 130.711654 
L 198.857114 130.584364 
L 198.85842 130.584364 
L 198.974265 130.474666 
L 199.086627 130.346341 
L 199.27637 130.235609 
L 199.395678 130.031738 
L 199.544761 129.92204 
L 199.654986 129.857878 
L 199.655837 129.857878 
L 199.864386 129.748181 
L 199.975255 129.617786 
L 199.975483 129.617786 
L 200.006378 129.509123 
L 200.13315 129.272136 
L 200.293989 129.162439 
L 200.402142 129.116904 
L 200.405086 129.116904 
L 200.618903 129.007207 
L 200.721498 128.965812 
L 200.729999 128.965812 
L 200.894219 128.856114 
L 201.00714 128.81058 
L 201.21683 128.700882 
L 201.325625 128.640859 
L 201.327865 128.640859 
L 201.437551 128.531162 
L 201.548192 128.421465 
L 201.548648 128.421465 
L 201.700012 128.311767 
L 201.805303 128.241396 
L 201.811088 128.241396 
L 201.96326 128.131698 
L 202.074668 128.100652 
L 202.256573 127.990955 
L 202.362818 127.94542 
L 202.367649 127.94542 
L 202.684559 127.835723 
L 203.514177 127.207551 
L 203.630042 127.08647 
L 205.33311 126.177845 
L 205.442465 126.076427 
L 205.444124 126.076427 
L 205.671273 125.965695 
L 205.78011 125.937753 
L 205.782308 125.937753 
L 205.947978 125.827021 
L 206.058805 125.784591 
L 206.059075 125.784591 
L 206.242432 125.674894 
L 206.34426 125.62108 
L 206.353508 125.62108 
L 206.55928 125.510348 
L 206.669962 125.478267 
L 206.670335 125.478267 
L 207.061765 125.368569 
L 207.167678 125.310616 
L 207.172862 125.310616 
L 207.415355 125.199884 
L 207.52838 125.153314 
L 207.831397 125.042582 
L 207.945873 124.989803 
L 208.257745 124.879071 
L 208.366166 124.84492 
L 208.368841 124.84492 
L 208.669516 124.735223 
L 208.781131 124.679339 
L 209.376612 124.569642 
L 209.48833 124.507549 
L 209.73327 124.397852 
L 209.845984 124.346108 
L 210.115618 124.236411 
L 210.225927 124.199155 
L 210.226673 124.199155 
L 210.559632 124.089458 
L 210.634857 124.064621 
L 210.666872 124.064621 
L 211.12372 123.953889 
L 211.236911 123.849366 
L 211.478554 123.739668 
L 211.590024 123.721041 
L 211.982822 123.611343 
L 211.982822 123.610308 
L 212.095288 123.543041 
L 212.337345 123.433344 
L 212.448773 123.400228 
L 212.643265 123.290531 
L 212.754362 123.25638 
L 213.07745 123.145647 
L 213.178387 123.081485 
L 213.188506 123.081485 
L 213.370225 122.971788 
L 213.480451 122.911765 
L 213.481239 122.911765 
L 213.692111 122.801032 
L 213.803125 122.727556 
L 213.803208 122.727556 
L 213.95876 122.617859 
L 214.061086 122.499882 
L 214.069836 122.499882 
L 214.13571 122.38915 
L 214.244318 122.35086 
L 214.246786 122.35086 
L 214.647982 122.240128 
L 214.829183 122.17493 
L 215.14292 122.065233 
L 215.249289 122.052814 
L 215.253996 122.052814 
L 215.42031 121.943117 
L 215.529685 121.874815 
L 215.531323 121.874815 
L 215.768943 121.765118 
L 215.878278 121.694746 
L 215.879999 121.694746 
L 216.144325 121.586083 
L 216.253908 121.516747 
L 216.255359 121.516747 
L 216.484831 121.407049 
L 216.594518 121.284933 
L 216.595575 121.284933 
L 216.777232 121.175236 
L 216.878417 121.129701 
L 216.888329 121.129701 
L 217.167211 121.018969 
L 217.277167 120.993097 
L 217.278308 120.993097 
L 217.446798 120.882365 
L 217.558683 120.839935 
L 217.836777 120.730238 
L 217.947148 120.649517 
L 217.947874 120.649517 
L 218.224164 120.538785 
L 218.335696 120.517053 
L 218.559963 120.40632 
L 218.662932 120.343193 
L 218.67106 120.343193 
L 218.93296 120.232461 
L 219.075345 120.115519 
L 219.509552 120.005822 
L 219.608684 119.949938 
L 219.620607 119.949938 
L 219.794903 119.840241 
L 219.907223 119.780218 
L 220.241819 119.670521 
L 220.346882 119.620847 
L 220.352895 119.620847 
L 220.857869 119.510115 
L 220.971164 119.457336 
L 221.225828 119.346604 
L 221.333939 119.308313 
L 221.336924 119.308313 
L 221.570315 119.198616 
L 221.675606 119.151011 
L 221.681411 119.151011 
L 221.953534 119.041314 
L 222.062142 119.006128 
L 222.064631 119.006128 
L 222.387284 118.896431 
L 222.499189 118.81571 
L 222.634255 118.704978 
L 222.742822 118.64806 
L 222.745352 118.64806 
L 223.003955 118.537328 
L 223.112979 118.478339 
L 223.115052 118.478339 
L 223.373697 118.367607 
L 223.48272 118.30448 
L 223.484587 118.30448 
L 223.793451 118.193747 
L 223.898328 118.132689 
L 223.904548 118.132689 
L 224.120687 118.021957 
L 224.230892 117.95469 
L 224.231618 117.95469 
L 224.422916 117.844993 
L 224.531815 117.789109 
L 224.533972 117.789109 
L 224.801823 117.679412 
L 224.913521 117.650435 
L 225.102933 117.539703 
L 225.209592 117.466227 
L 225.214029 117.466227 
L 225.428012 117.355495 
L 225.540684 117.277879 
L 225.946007 117.168181 
L 226.053579 117.118507 
L 226.057021 117.118507 
L 226.605558 117.00881 
L 226.693701 116.942578 
L 226.716613 116.942578 
L 226.939947 116.83288 
L 227.050152 116.776997 
L 227.051044 116.776997 
L 227.285201 116.666265 
L 227.397438 116.607277 
L 227.766765 116.496544 
L 227.853354 116.470672 
L 227.877364 116.470672 
L 228.126347 116.360975 
L 228.238252 116.32165 
L 228.451468 116.210918 
L 228.556634 116.170557 
L 228.562564 116.170557 
L 228.807773 116.059825 
L 228.901764 116.023604 
L 228.918829 116.023604 
L 229.291287 115.912872 
L 229.39353 115.870442 
L 229.402321 115.870442 
L 229.632166 115.75971 
L 229.744672 115.690373 
L 229.919383 115.580676 
L 230.021585 115.531002 
L 230.030397 115.531002 
L 230.33074 115.421304 
L 230.43433 115.37577 
L 230.441816 115.37577 
L 230.657229 115.266072 
L 230.766314 115.247445 
L 230.768325 115.247445 
L 231.179122 115.137747 
L 231.290799 115.079794 
L 231.473306 114.970097 
L 231.473306 114.969062 
L 231.58658 114.916283 
L 231.890842 114.806586 
L 231.984915 114.763121 
L 232.001814 114.763121 
L 232.40525 114.652389 
L 233.159662 114.301564 
L 233.34727 114.192902 
L 233.34727 114.191867 
L 233.458885 114.135984 
L 233.73248 114.026286 
L 233.833437 113.949705 
L 233.843535 113.949705 
L 234.000331 113.838973 
L 234.141763 113.725136 
L 235.919704 112.844454 
L 236.122925 112.733721 
L 236.23143 112.680943 
L 236.234022 112.680943 
L 236.437119 112.571245 
L 236.549439 112.511222 
L 236.907652 112.401525 
L 237.02076 112.335293 
L 237.284589 112.225595 
L 237.39498 112.167642 
L 237.395602 112.167642 
L 237.638012 112.05691 
L 237.746683 111.995852 
L 237.749109 111.995852 
L 237.92666 111.88512 
L 238.039333 111.807504 
L 238.231793 111.696772 
L 238.343885 111.643993 
L 238.626686 111.533261 
L 238.739732 111.486691 
L 239.082249 111.375959 
L 239.102403 111.368715 
L 239.193221 111.368715 
L 239.485954 111.257983 
L 239.593318 111.203134 
L 239.597051 111.203134 
L 239.917547 111.093437 
L 240.030966 111.058251 
L 240.517009 110.948554 
L 240.627733 110.89474 
L 240.628002 110.89474 
L 240.882791 110.784008 
L 240.994717 110.741578 
L 241.219502 110.630846 
L 241.332258 110.590485 
L 241.581344 110.479753 
L 241.691756 110.458021 
L 241.692378 110.458021 
L 242.144271 110.348323 
L 242.235172 110.306928 
L 242.254352 110.306928 
L 242.616878 110.197231 
L 242.730525 110.135138 
L 243.00526 110.025441 
L 243.116253 109.969557 
L 243.116336 109.969557 
L 243.432023 109.85986 
L 243.538641 109.808116 
L 243.543078 109.808116 
L 243.693488 109.698419 
L 243.804584 109.660128 
L 244.002145 109.549396 
L 244.114154 109.501792 
L 244.362763 109.392094 
L 244.469381 109.338281 
L 244.473839 109.338281 
L 244.806611 109.228583 
L 244.91806 109.201677 
L 245.1963 109.091979 
L 245.299268 109.052654 
L 245.307355 109.052654 
L 245.644398 108.942957 
L 245.757299 108.90984 
L 246.08329 108.799108 
L 246.193599 108.688376 
L 246.194366 108.688376 
L 246.44959 108.577644 
L 246.557576 108.529005 
L 246.560645 108.529005 
L 246.763555 108.419307 
L 246.763555 108.418273 
L 246.876746 108.367563 
L 247.222664 108.257866 
L 247.33094 108.216471 
L 247.33376 108.216471 
L 247.681109 108.106774 
L 247.770849 108.073658 
L 247.792164 108.073658 
L 248.086514 107.96396 
L 248.191805 107.918426 
L 248.197611 107.918426 
L 248.450761 107.807693 
L 248.562957 107.781821 
L 248.852206 107.672124 
L 248.965003 107.585194 
L 249.213903 107.475497 
L 249.323901 107.440311 
L 249.324979 107.440311 
L 249.577217 107.329579 
L 249.67861 107.299567 
L 249.688293 107.299567 
L 249.950484 107.18987 
L 250.053059 107.138126 
L 250.061581 107.138126 
L 250.353774 107.028429 
L 250.459439 106.974615 
L 250.464871 106.974615 
L 250.830507 106.864918 
L 250.942454 106.780058 
L 251.234918 106.670361 
L 251.346388 106.631035 
L 251.591223 106.520303 
L 251.699251 106.457175 
L 251.702279 106.457175 
L 251.915846 106.348513 
L 251.915846 106.346443 
L 252.015954 106.256409 
L 252.026943 106.256409 
L 252.257638 106.146711 
L 252.355423 106.101177 
L 252.368734 106.101177 
L 252.66267 105.991479 
L 252.77414 105.950084 
L 253.071289 105.840387 
L 253.166565 105.807271 
L 253.182365 105.807271 
L 253.448744 105.696539 
L 253.556378 105.654109 
L 253.55982 105.654109 
L 253.89734 105.544411 
L 254.000558 105.490598 
L 254.008437 105.490598 
L 254.282343 105.3809 
L 254.391615 105.337435 
L 254.39344 105.337435 
L 254.689905 105.227738 
L 254.792293 105.188413 
L 254.80096 105.188413 
L 255.067401 105.07768 
L 255.179141 105.03939 
L 255.451948 104.929693 
L 255.451948 104.928658 
L 255.564268 104.859321 
L 255.818393 104.749624 
L 255.930423 104.704089 
L 256.20918 104.594392 
L 256.320899 104.532299 
L 256.61019 104.422602 
L 256.709053 104.360509 
L 256.721245 104.360509 
L 257.072056 104.249777 
L 257.183651 104.221835 
L 257.399935 104.112138 
L 257.506926 104.060394 
L 257.510948 104.060394 
L 257.758874 103.949661 
L 257.86941 103.905162 
L 257.86995 103.905162 
L 258.106968 103.795464 
L 258.212653 103.737511 
L 258.218024 103.737511 
L 258.493132 103.626779 
L 258.60962 103.563651 
L 258.861671 103.453954 
L 258.861671 103.452919 
L 258.974883 103.40221 
L 259.294467 103.292513 
L 259.410996 103.249048 
L 259.690563 103.139351 
L 259.814971 103.087607 
L 260.120166 102.977909 
L 260.218469 102.957212 
L 260.231159 102.957212 
L 260.653899 102.847514 
L 260.653899 102.84648 
L 260.765265 102.818538 
L 261.092003 102.708841 
L 261.203017 102.673655 
L 261.203099 102.673655 
L 261.479348 102.562922 
L 261.572178 102.532911 
L 261.590341 102.532911 
L 261.982725 102.422179 
L 262.096829 102.375609 
L 262.382574 102.265912 
L 262.492613 102.224517 
L 262.493629 102.224517 
L 262.782962 102.11482 
L 262.879295 102.077564 
L 262.894038 102.077564 
L 263.14978 101.966832 
L 263.259529 101.932681 
L 263.260814 101.932681 
L 263.542185 101.822983 
L 263.651125 101.777449 
L 263.653281 101.777449 
L 263.959886 101.666717 
L 264.072911 101.618077 
L 264.433447 101.507345 
L 264.540376 101.458706 
L 264.544543 101.458706 
L 264.940535 101.349008 
L 265.036143 101.309683 
L 265.051528 101.309683 
L 265.361077 101.198951 
L 265.466368 101.156521 
L 265.472174 101.156521 
L 265.70262 101.046824 
L 265.70262 101.045789 
L 265.816039 100.98887 
L 266.118683 100.879173 
L 266.22924 100.837778 
L 266.229759 100.837778 
L 266.541568 100.728081 
L 266.653473 100.688755 
L 266.949067 100.579058 
L 267.059874 100.527314 
L 267.060164 100.527314 
L 267.386902 100.416582 
L 267.488834 100.367942 
L 267.497999 100.367942 
L 267.875495 100.25721 
L 267.98568 100.200292 
L 267.986571 100.200292 
L 268.298235 100.090595 
L 268.404148 100.036781 
L 268.409332 100.036781 
L 268.718777 99.927084 
L 268.819859 99.893967 
L 268.829708 99.893967 
L 269.121342 99.78427 
L 269.228209 99.736666 
L 269.232439 99.736666 
L 269.592124 99.625934 
L 269.701852 99.597992 
L 269.7032 99.597992 
L 270.155113 99.488295 
L 270.261275 99.451039 
L 270.26621 99.451039 
L 270.631515 99.340307 
L 270.733447 99.287528 
L 270.742611 99.287528 
L 271.013096 99.177831 
L 271.125416 99.138505 
L 271.472287 99.028808 
L 271.472287 99.027773 
L 271.585478 98.977064 
L 271.937844 98.866332 
L 272.043861 98.828041 
L 272.048941 98.828041 
L 272.313724 98.718344 
L 272.424447 98.670739 
L 272.424758 98.670739 
L 272.748365 98.561042 
L 272.748365 98.560007 
L 272.863381 98.515507 
L 273.22458 98.404775 
L 273.33661 98.358206 
L 273.612941 98.247474 
L 273.726505 98.209183 
L 274.03367 98.098451 
L 274.141034 98.06016 
L 274.144684 98.06016 
L 274.46603 97.949428 
L 274.567983 97.896649 
L 274.577127 97.896649 
L 274.842864 97.786952 
L 274.842864 97.785917 
L 274.955536 97.747627 
L 275.277858 97.637929 
L 275.277858 97.636895 
L 275.389804 97.594464 
L 275.716418 97.484767 
L 275.805992 97.439232 
L 275.827473 97.439232 
L 276.176522 97.329535 
L 276.285483 97.271582 
L 276.287535 97.271582 
L 276.612739 97.161885 
L 276.612739 97.16085 
L 276.725785 97.11428 
L 277.01802 97.004583 
L 277.126836 96.948699 
L 277.129117 96.948699 
L 277.393319 96.837967 
L 277.486563 96.805886 
L 277.504374 96.805886 
L 277.900034 96.696189 
L 278.010695 96.673421 
L 278.011069 96.673421 
L 278.347946 96.563724 
L 278.454771 96.520259 
L 278.459043 96.520259 
L 278.751133 96.410562 
L 278.862582 96.375376 
L 279.139225 96.264644 
L 279.239291 96.220144 
L 279.250322 96.220144 
L 279.505711 96.109412 
L 279.613013 96.073191 
L 279.616746 96.073191 
L 279.906389 95.963494 
L 280.015744 95.920029 
L 280.017444 95.920029 
L 280.274099 95.809297 
L 280.386191 95.760657 
L 280.693376 95.649925 
L 280.798543 95.597146 
L 280.804452 95.597146 
L 281.12441 95.486414 
L 281.238513 95.439845 
L 281.636081 95.330147 
L 281.747571 95.288752 
L 282.055337 95.179055 
L 282.167574 95.123171 
L 282.399886 95.012439 
L 282.512185 94.953451 
L 282.724862 94.843754 
L 282.836456 94.79201 
L 283.094977 94.681278 
L 283.208727 94.61608 
L 283.517322 94.506383 
L 283.623215 94.452569 
L 283.628378 94.452569 
L 283.840121 94.341837 
L 283.95242 94.282849 
L 284.174904 94.173152 
L 284.29417 94.117268 
L 284.593808 94.006536 
L 284.703722 93.964106 
L 284.704904 93.964106 
L 285.053974 93.854409 
L 285.166148 93.798525 
L 285.377788 93.688828 
L 285.489382 93.639154 
L 285.735524 93.528422 
L 285.833579 93.490131 
L 285.846621 93.490131 
L 286.173442 93.380434 
L 286.286114 93.32662 
L 286.541048 93.215888 
L 286.652933 93.175528 
L 286.87382 93.06583 
L 286.985455 93.012017 
L 287.271512 92.901284 
L 287.379872 92.860924 
L 287.382588 92.860924 
L 287.65979 92.750192 
L 287.751314 92.699483 
L 287.770887 92.699483 
L 287.992293 92.589786 
L 287.992293 92.588751 
L 288.104447 92.535972 
L 288.374413 92.42524 
L 288.477527 92.391089 
L 288.485489 92.391089 
L 288.775444 92.281391 
L 288.775444 92.280357 
L 288.888323 92.237926 
L 289.174587 92.127194 
L 289.267603 92.095113 
L 289.285684 92.095113 
L 289.621835 91.984381 
L 289.733824 91.939881 
L 290.060665 91.829149 
L 290.165023 91.78051 
L 290.171721 91.78051 
L 290.483612 91.670812 
L 290.592055 91.619068 
L 290.594709 91.619068 
L 290.847797 91.508336 
L 290.957256 91.467976 
L 290.958811 91.467976 
L 291.221437 91.357244 
L 291.333508 91.308604 
L 291.624666 91.197872 
L 291.736944 91.167861 
L 292.071665 91.057129 
L 292.186473 90.99814 
L 292.485136 90.888443 
L 292.596751 90.863606 
L 292.907627 90.753909 
L 293.007527 90.716653 
L 293.018724 90.716653 
L 293.310959 90.606956 
L 293.422554 90.557282 
L 293.791715 90.446549 
L 293.901319 90.404119 
L 293.902708 90.404119 
L 294.232494 90.294422 
L 294.343922 90.257166 
L 294.666098 90.147469 
L 294.666098 90.146434 
L 294.778025 90.106074 
L 295.106587 89.995342 
L 295.21843 89.959121 
L 295.542846 89.848389 
L 295.655145 89.820447 
L 296.099636 89.709715 
L 296.211562 89.667285 
L 296.546013 89.557588 
L 296.546013 89.556553 
L 296.658043 89.509983 
L 296.919985 89.399251 
L 297.031641 89.3651 
L 297.297834 89.255403 
L 297.406152 89.211938 
L 297.408931 89.211938 
L 297.68435 89.101206 
L 297.792793 89.058776 
L 297.795426 89.058776 
L 298.085816 88.949078 
L 298.192662 88.903544 
L 298.196892 88.903544 
L 298.500137 88.792812 
L 298.609015 88.756591 
L 298.611213 88.756591 
L 298.886654 88.646893 
L 298.993064 88.599289 
L 298.997584 88.599289 
L 299.305868 88.488557 
L 299.418914 88.441987 
L 299.643305 88.33229 
L 299.751375 88.288825 
L 299.754402 88.288825 
L 300.156221 88.179128 
L 300.26852 88.119105 
L 300.591733 88.008373 
L 300.658685 87.98664 
L 300.702726 87.98664 
L 301.120406 87.876943 
L 301.219207 87.854176 
L 301.231462 87.854176 
L 301.585445 87.744478 
L 301.693432 87.705153 
L 301.6965 87.705153 
L 302.038292 87.594421 
L 302.142878 87.539572 
L 302.149326 87.539572 
L 302.463271 87.42884 
L 302.576358 87.380201 
L 302.863513 87.269468 
L 302.96812 87.239457 
L 302.974569 87.239457 
L 303.278021 87.12976 
L 303.383851 87.073876 
L 303.389077 87.073876 
L 303.723134 86.963144 
L 303.835848 86.924853 
L 304.212868 86.815156 
L 304.324918 86.78411 
L 304.613981 86.673378 
L 304.726488 86.639227 
L 305.004312 86.530564 
L 305.109935 86.488134 
L 305.115409 86.488134 
L 305.496679 86.377402 
L 305.605412 86.337042 
L 305.607755 86.337042 
L 305.900924 86.22631 
L 306.012933 86.18181 
L 306.331895 86.071078 
L 306.437414 86.030717 
L 306.44293 86.030717 
L 306.718764 85.92102 
L 306.829715 85.892043 
L 306.829861 85.892043 
L 307.196285 85.782346 
L 307.306905 85.734742 
L 307.307278 85.734742 
L 307.638246 85.624009 
L 307.743702 85.600207 
L 307.749342 85.600207 
L 308.106229 85.489475 
L 308.217885 85.459464 
L 308.535686 85.348731 
L 308.641019 85.312511 
L 308.646783 85.312511 
L 308.937463 85.202813 
L 309.041572 85.171767 
L 309.048519 85.171767 
L 309.316764 85.06207 
L 309.426243 85.002047 
L 309.42784 85.002047 
L 309.689325 84.893384 
L 309.689325 84.891315 
L 309.791548 84.848884 
L 309.800422 84.848884 
L 310.096224 84.739187 
L 310.096224 84.738152 
L 310.209062 84.695722 
L 310.513158 84.586025 
L 310.62243 84.559118 
L 310.624255 84.559118 
L 310.958913 84.448386 
L 311.068019 84.403886 
L 311.07001 84.403886 
L 311.367574 84.294189 
L 311.476411 84.252794 
L 311.478629 84.252794 
L 311.753883 84.142062 
L 311.862533 84.103771 
L 311.864876 84.103771 
L 312.125491 83.993039 
L 312.239283 83.963027 
L 312.611762 83.85333 
L 312.723273 83.809865 
L 313.068299 83.699133 
L 313.180433 83.648424 
L 313.465017 83.537692 
L 313.57686 83.499401 
L 313.947638 83.389704 
L 314.059502 83.350378 
L 314.420556 83.240681 
L 314.525951 83.197216 
L 314.531653 83.197216 
L 314.8434 83.087519 
L 314.948587 83.037845 
L 314.954476 83.037845 
L 315.28451 82.927113 
L 315.394073 82.892962 
L 315.395566 82.892962 
L 315.651888 82.783264 
L 315.764706 82.727381 
L 316.075997 82.616649 
L 316.184315 82.568009 
L 316.187052 82.568009 
L 316.516589 82.457277 
L 316.624928 82.410708 
L 316.627665 82.410708 
L 316.915878 82.299975 
L 317.028364 82.265824 
L 317.337353 82.156127 
L 317.444904 82.118871 
L 317.448429 82.118871 
L 317.844379 82.008139 
L 317.951516 81.976058 
L 317.955352 81.976058 
L 318.352173 81.865326 
L 318.458293 81.839454 
L 318.463249 81.839454 
L 318.811198 81.729757 
L 318.906454 81.70492 
L 318.922295 81.70492 
L 319.228837 81.594187 
L 319.324881 81.566246 
L 319.339913 81.566246 
L 319.681808 81.456548 
L 319.793341 81.406874 
L 320.133909 81.297177 
L 320.245503 81.245433 
L 320.687277 81.135736 
L 320.799867 81.088131 
L 321.126356 80.977399 
L 321.236913 80.934969 
L 321.23739 80.934969 
L 321.528568 80.824237 
L 321.637094 80.781807 
L 321.639644 80.781807 
L 321.908366 80.672109 
L 322.01909 80.636924 
L 322.019463 80.636924 
L 322.354661 80.526191 
L 322.451596 80.500319 
L 322.465737 80.500319 
L 322.796414 80.389587 
L 322.906993 80.369925 
L 322.907511 80.369925 
L 323.25094 80.259192 
L 323.364297 80.204344 
L 323.649192 80.094647 
L 323.756723 80.069809 
L 323.760268 80.069809 
L 324.023828 79.959077 
L 324.1365 79.920787 
L 324.465602 79.811089 
L 324.572469 79.777973 
L 324.576616 79.777973 
L 324.820829 79.667241 
L 324.931449 79.622741 
L 324.931926 79.622741 
L 325.128616 79.513044 
L 325.24048 79.475788 
L 325.597096 79.365056 
L 325.686587 79.335045 
L 325.708151 79.335045 
L 326.076856 79.225347 
L 326.186709 79.163255 
L 326.187912 79.163255 
L 326.503204 79.053557 
L 326.609117 79.024581 
L 326.61428 79.024581 
L 326.911906 78.913849 
L 327.024123 78.887977 
L 327.581535 78.778279 
L 327.688526 78.728605 
L 327.69259 78.728605 
L 328.076224 78.617873 
L 328.188191 78.575443 
L 328.560774 78.464711 
L 328.673384 78.42849 
L 329.017581 78.318793 
L 329.129092 78.277398 
L 329.471651 78.1677 
L 329.561764 78.134584 
L 329.582727 78.134584 
L 329.898164 78.024887 
L 330.002087 77.981422 
L 330.00924 77.981422 
L 330.390345 77.87069 
L 330.499285 77.840678 
L 330.501441 77.840678 
L 330.803463 77.730981 
L 330.899714 77.689586 
L 330.91456 77.689586 
L 331.279471 77.578854 
L 331.379371 77.552982 
L 331.390505 77.552982 
L 331.671668 77.443284 
L 331.671668 77.44225 
L 331.783802 77.416378 
L 332.175315 77.30668 
L 332.286971 77.279773 
L 332.6219 77.170076 
L 332.720286 77.122472 
L 332.732955 77.122472 
L 333.013288 77.01174 
L 333.12339 76.973449 
L 333.124385 76.973449 
L 333.416828 76.863752 
L 333.518594 76.816147 
L 333.527883 76.816147 
L 333.817506 76.705415 
L 333.925326 76.660915 
L 333.92852 76.660915 
L 334.245429 76.551218 
L 334.356505 76.514997 
L 334.356526 76.514997 
L 334.645983 76.404265 
L 334.758572 76.369079 
L 335.052632 76.259382 
L 335.140486 76.234545 
L 335.163708 76.234545 
L 335.446447 76.123813 
L 335.55236 76.081383 
L 335.557502 76.081383 
L 335.878165 75.971685 
L 335.981922 75.924081 
L 335.989262 75.924081 
L 336.275152 75.814384 
L 336.386747 75.76264 
L 336.769842 75.652942 
L 336.882597 75.613617 
L 337.148126 75.502885 
L 337.243879 75.456315 
L 337.259181 75.456315 
L 337.622433 75.345583 
L 337.720426 75.311432 
L 337.73353 75.311432 
L 338.04932 75.2007 
L 338.145342 75.166549 
L 338.160375 75.166549 
L 338.578574 75.056852 
L 338.687493 74.998898 
L 338.689671 74.998898 
L 339.000484 74.888166 
L 339.104324 74.854015 
L 339.111581 74.854015 
L 339.411613 74.743283 
L 339.52358 74.700853 
L 339.865537 74.590121 
L 339.975701 74.54976 
L 339.976572 74.54976 
L 340.322655 74.439028 
L 340.436282 74.37797 
L 340.704942 74.268273 
L 340.704942 74.267238 
L 340.818153 74.216529 
L 341.147276 74.106832 
L 341.258124 74.073716 
L 341.258372 74.073716 
L 341.566864 73.964018 
L 341.566864 73.962984 
L 341.679453 73.926763 
L 341.938783 73.816031 
L 342.05102 73.759112 
L 342.321898 73.64838 
L 342.433742 73.612159 
L 342.773418 73.501427 
L 342.886381 73.456927 
L 343.276256 73.346195 
L 343.389302 73.299626 
L 343.634158 73.188893 
L 343.747163 73.142324 
L 344.038672 73.032627 
L 344.15008 72.997441 
L 344.508314 72.887743 
L 344.620572 72.850488 
L 344.892528 72.739756 
L 345.004538 72.691116 
L 345.293061 72.581419 
L 345.405941 72.537954 
L 345.782899 72.427222 
L 345.895716 72.384792 
L 346.211817 72.27406 
L 346.323702 72.235769 
L 346.706507 72.126072 
L 346.706507 72.125037 
L 346.819366 72.082607 
L 347.186682 71.97291 
L 347.292429 71.931514 
L 347.297737 71.931514 
L 347.636314 71.821817 
L 347.747929 71.770073 
L 348.076077 71.659341 
L 348.176682 71.62726 
L 348.187174 71.62726 
L 348.60529 71.517563 
L 348.716615 71.480307 
L 349.024318 71.37061 
L 349.126416 71.333354 
L 349.135415 71.333354 
L 349.464807 71.222622 
L 349.565909 71.176052 
L 349.575904 71.176052 
L 349.819226 71.06532 
L 349.932085 71.02289 
L 350.213289 70.913193 
L 350.324801 70.863518 
L 350.757078 70.753821 
L 350.869004 70.710356 
L 351.241608 70.599624 
L 351.351502 70.567543 
L 351.352684 70.567543 
L 351.756907 70.457846 
L 351.756907 70.456811 
L 351.869207 70.428869 
L 352.23053 70.318137 
L 352.336775 70.275707 
L 352.341627 70.275707 
L 352.68715 70.166009 
L 352.797625 70.118405 
L 352.798247 70.118405 
L 353.112503 70.007673 
L 353.220531 69.979731 
L 353.223558 69.979731 
L 353.48071 69.870034 
L 353.566407 69.847267 
L 353.591807 69.847267 
L 353.90824 69.737569 
L 354.021534 69.696174 
L 354.362869 69.585442 
L 354.474339 69.567849 
L 354.879517 69.458152 
L 354.99165 69.404338 
L 355.316833 69.293606 
L 355.428966 69.242897 
L 355.800471 69.133199 
L 355.899624 69.098014 
L 355.911547 69.098014 
L 356.287841 68.987281 
L 356.399622 68.951061 
L 356.702971 68.841363 
L 356.80652 68.806177 
L 356.814067 68.806177 
L 357.19173 68.695445 
L 357.30208 68.665434 
L 357.302785 68.665434 
L 357.601427 68.554702 
L 357.713188 68.518481 
L 358.130163 68.407749 
L 358.241903 68.375667 
L 358.556946 68.26597 
L 358.556946 68.264935 
L 358.66908 68.241133 
L 358.963347 68.131436 
L 359.075314 68.085901 
L 359.374434 67.976204 
L 359.463593 67.941018 
L 359.48551 67.941018 
L 359.878433 67.831321 
L 359.990089 67.775437 
L 360.388901 67.664705 
L 360.496494 67.626414 
L 360.499998 67.626414 
L 360.841313 67.516717 
L 360.949983 67.452555 
L 360.952368 67.452555 
L 361.29418 67.342857 
L 361.397335 67.299392 
L 361.405277 67.299392 
L 361.780492 67.189695 
L 361.892211 67.152439 
L 362.150732 67.042742 
L 362.262554 67.005486 
L 362.614008 66.894754 
L 362.72583 66.877161 
L 363.080705 66.766429 
L 363.192403 66.732278 
L 363.567266 66.622581 
L 363.678923 66.566697 
L 364.052978 66.457 
L 364.164427 66.440442 
L 364.522619 66.32971 
L 364.615428 66.28728 
L 364.633695 66.28728 
L 364.958194 66.176548 
L 365.065164 66.138257 
L 365.069291 66.138257 
L 365.492321 66.027525 
L 365.605553 65.995444 
L 365.907202 65.885747 
L 366.015354 65.848491 
L 366.018299 65.848491 
L 366.331518 65.737759 
L 366.43573 65.68705 
L 366.442573 65.68705 
L 366.730537 65.577352 
L 366.838627 65.540097 
L 366.84153 65.540097 
L 367.253798 65.430399 
L 367.363776 65.389004 
L 367.364895 65.389004 
L 367.636956 65.279307 
L 367.74403 65.239982 
L 367.74799 65.239982 
L 368.10301 65.129249 
L 368.213257 65.08268 
L 368.214086 65.08268 
L 368.480797 64.971948 
L 368.586959 64.941936 
L 368.591894 64.941936 
L 368.997403 64.831204 
L 369.11076 64.794983 
L 369.4466 64.684251 
L 369.558381 64.643891 
L 369.95823 64.533159 
L 370.06858 64.486589 
L 370.069264 64.486589 
L 370.446367 64.376892 
L 370.558252 64.337566 
L 371.047197 64.226834 
L 371.145024 64.188544 
L 371.158211 64.188544 
L 371.487126 64.077811 
L 371.592583 64.04987 
L 371.598223 64.04987 
L 371.957266 63.939138 
L 372.064464 63.896707 
L 372.068362 63.896707 
L 372.375485 63.785975 
L 372.479864 63.755964 
L 372.48652 63.755964 
L 372.840938 63.646267 
L 372.840938 63.645232 
L 372.95303 63.596592 
L 373.293391 63.486895 
L 373.405213 63.449639 
L 373.651832 63.339942 
L 373.735103 63.319245 
L 373.762908 63.319245 
L 374.090185 63.208512 
L 374.201697 63.18678 
L 374.535713 63.077083 
L 374.633746 63.035687 
L 374.646706 63.035687 
L 375.079294 62.92599 
L 375.079294 62.924955 
L 375.191262 62.882525 
L 375.579126 62.771793 
L 375.692172 62.725224 
L 376.228766 62.615526 
L 376.340215 62.578271 
L 376.624281 62.467538 
L 376.734258 62.423039 
L 376.735357 62.423039 
L 377.128425 62.312306 
L 377.236764 62.269876 
L 377.23946 62.269876 
L 377.657949 62.160179 
L 377.762618 62.120854 
L 377.769046 62.120854 
L 378.089833 62.010122 
L 378.201925 61.961482 
L 378.559661 61.851785 
L 378.672022 61.789692 
L 379.041204 61.679995 
L 379.147242 61.655158 
L 379.152218 61.655158 
L 379.597372 61.545461 
L 379.702518 61.506135 
L 379.708469 61.506135 
L 380.049078 61.395403 
L 380.148211 61.355043 
L 380.160175 61.355043 
L 380.53085 61.24431 
L 380.641014 61.20188 
L 380.641926 61.20188 
L 380.980047 61.091148 
L 381.08963 61.056997 
L 381.091123 61.056997 
L 381.507684 60.9473 
L 381.619569 60.905905 
L 382.038535 60.795173 
L 382.150295 60.763091 
L 382.643159 60.653394 
L 382.754961 60.618208 
L 383.083233 60.508511 
L 383.193356 60.469186 
L 383.19433 60.469186 
L 383.647073 60.359488 
L 383.757776 60.307744 
L 383.758149 60.307744 
L 384.166831 60.197012 
L 384.278529 60.164931 
L 384.639707 60.055234 
L 384.738715 60.009699 
L 384.750783 60.009699 
L 385.092927 59.900002 
L 385.204645 59.868955 
L 385.646855 59.758223 
L 385.758429 59.730281 
L 386.116103 59.619549 
L 386.225085 59.585398 
L 386.2272 59.585398 
L 386.566295 59.475701 
L 386.678574 59.446724 
L 387.049995 59.337027 
L 387.049995 59.335992 
L 387.163829 59.305981 
L 387.557976 59.196283 
L 387.66843 59.165237 
L 387.669072 59.165237 
L 388.21027 59.05554 
L 388.317758 59.032772 
L 388.321366 59.032772 
L 388.796005 58.92204 
L 388.906708 58.889959 
L 388.907102 58.889959 
L 389.366687 58.779227 
L 389.455598 58.726448 
L 389.477784 58.726448 
L 389.919164 58.616751 
L 390.027503 58.587774 
L 390.03024 58.587774 
L 390.510436 58.478077 
L 390.616826 58.4491 
L 390.621512 58.4491 
L 391.098846 58.338368 
L 391.209715 58.310426 
L 391.209922 58.310426 
L 391.68396 58.200729 
L 391.78245 58.180031 
L 391.795056 58.180031 
L 392.152689 58.070334 
L 392.260883 58.037218 
L 392.263765 58.037218 
L 392.668922 57.927521 
L 392.780267 57.900614 
L 393.220528 57.790917 
L 393.329053 57.76194 
L 393.331624 57.76194 
L 393.778541 57.652243 
L 393.884578 57.631545 
L 393.889638 57.631545 
L 394.543487 57.520813 
L 394.643511 57.480453 
L 394.654583 57.480453 
L 395.06961 57.370755 
L 395.180976 57.356267 
L 395.628079 57.24657 
L 395.731919 57.211384 
L 395.739176 57.211384 
L 396.208527 57.101687 
L 396.30739 57.07478 
L 396.319603 57.07478 
L 397.101241 56.964048 
L 397.20396 56.940245 
L 397.212337 56.940245 
L 397.803567 56.830548 
L 397.914892 56.803641 
L 398.458453 56.692909 
L 398.570089 56.679456 
L 399.20057 56.568723 
L 399.312081 56.549061 
L 399.908081 56.439363 
L 399.908081 56.438329 
L 400.02065 56.416596 
L 400.748688 56.306899 
L 400.854061 56.273783 
L 400.859784 56.273783 
L 401.41365 56.163051 
L 401.511249 56.133039 
L 401.524664 56.133039 
L 402.140693 56.023342 
L 402.234829 56.008853 
L 402.25179 56.008853 
L 402.645501 55.898121 
L 402.748636 55.872249 
L 402.756556 55.872249 
L 403.570519 55.762552 
L 403.681864 55.737715 
L 404.401526 55.628018 
L 404.510611 55.599041 
L 404.512622 55.599041 
L 405.070428 55.489344 
L 405.165186 55.452088 
L 405.181483 55.452088 
L 405.798632 55.341356 
L 405.898864 55.317554 
L 405.909687 55.317554 
L 406.504297 55.207856 
L 406.615622 55.183019 
L 407.429792 55.073322 
L 407.533217 55.062973 
L 407.540889 55.062973 
L 408.345127 54.953276 
L 408.45641 54.932578 
L 409.369609 54.822881 
L 409.480084 54.789765 
L 409.480665 54.789765 
L 410.426915 54.680068 
L 410.536228 54.66351 
L 410.537991 54.66351 
L 411.474143 54.552778 
L 411.574956 54.531045 
L 411.585199 54.531045 
L 412.400779 54.421348 
L 412.470157 54.415139 
L 412.511875 54.415139 
L 413.251608 54.305441 
L 413.348066 54.286813 
L 413.362704 54.286813 
L 414.583441 54.177116 
L 414.684668 54.154349 
L 414.694372 54.154349 
L 414.72 54.144 
L 414.72 54.144 
" clip-path="url(#pea957e42d8)" style="fill: none; stroke: #ff8c00; stroke-width: 1.5; stroke-linecap: square"/>
   </g>
   <g id="line2d_14">
    <path d="M 74.605714 307.584 
L 414.72 54.144 
" clip-path="url(#pea957e42d8)" style="fill: none; stroke-dasharray: 5.55,2.4; stroke-dashoffset: 0; stroke: #0000ff; stroke-width: 1.5"/>
   </g>
   <g id="patch_3">
    <path d="M 57.6 307.584 
L 57.6 41.472 
" style="fill: none; stroke: #000000; stroke-width: 0.8; stroke-linejoin: miter; stroke-linecap: square"/>
   </g>
   <g id="patch_4">
    <path d="M 414.72 307.584 
L 414.72 41.472 
" style="fill: none; stroke: #000000; stroke-width: 0.8; stroke-linejoin: miter; stroke-linecap: square"/>
   </g>
   <g id="patch_5">
    <path d="M 57.6 307.584 
L 414.72 307.584 
" style="fill: none; stroke: #000000; stroke-width: 0.8; stroke-linejoin: miter; stroke-linecap: square"/>
   </g>
   <g id="patch_6">
    <path d="M 57.6 41.472 
L 414.72 41.472 
" style="fill: none; stroke: #000000; stroke-width: 0.8; stroke-linejoin: miter; stroke-linecap: square"/>
   </g>
   <g id="text_15">
    <!-- ROC CURVE -->
    <g transform="translate(200.855625 35.472)scale(0.12 -0.12)">
     <defs>
      <path id="DejaVuSans-4f" d="M 2522 4238 
Q 1834 4238 1429 3725 
Q 1025 3213 1025 2328 
Q 1025 1447 1429 934 
Q 1834 422 2522 422 
Q 3209 422 3611 934 
Q 4013 1447 4013 2328 
Q 4013 3213 3611 3725 
Q 3209 4238 2522 4238 
z
M 2522 4750 
Q 3503 4750 4090 4092 
Q 4678 3434 4678 2328 
Q 4678 1225 4090 567 
Q 3503 -91 2522 -91 
Q 1538 -91 948 565 
Q 359 1222 359 2328 
Q 359 3434 948 4092 
Q 1538 4750 2522 4750 
z
" transform="scale(0.015625)"/>
      <path id="DejaVuSans-43" d="M 4122 4306 
L 4122 3641 
Q 3803 3938 3442 4084 
Q 3081 4231 2675 4231 
Q 1875 4231 1450 3742 
Q 1025 3253 1025 2328 
Q 1025 1406 1450 917 
Q 1875 428 2675 428 
Q 3081 428 3442 575 
Q 3803 722 4122 1019 
L 4122 359 
Q 3791 134 3420 21 
Q 3050 -91 2638 -91 
Q 1578 -91 968 557 
Q 359 1206 359 2328 
Q 359 3453 968 4101 
Q 1578 4750 2638 4750 
Q 3056 4750 3426 4639 
Q 3797 4528 4122 4306 
z
" transform="scale(0.015625)"/>
      <path id="DejaVuSans-55" d="M 556 4666 
L 1191 4666 
L 1191 1831 
Q 1191 1081 1462 751 
Q 1734 422 2344 422 
Q 2950 422 3222 751 
Q 3494 1081 3494 1831 
L 3494 4666 
L 4128 4666 
L 4128 1753 
Q 4128 841 3676 375 
Q 3225 -91 2344 -91 
Q 1459 -91 1007 375 
Q 556 841 556 1753 
L 556 4666 
z
" transform="scale(0.015625)"/>
      <path id="DejaVuSans-56" d="M 1831 0 
L 50 4666 
L 709 4666 
L 2188 738 
L 3669 4666 
L 4325 4666 
L 2547 0 
L 1831 0 
z
" transform="scale(0.015625)"/>
      <path id="DejaVuSans-45" d="M 628 4666 
L 3578 4666 
L 3578 4134 
L 1259 4134 
L 1259 2753 
L 3481 2753 
L 3481 2222 
L 1259 2222 
L 1259 531 
L 3634 531 
L 3634 0 
L 628 0 
L 628 4666 
z
" transform="scale(0.015625)"/>
     </defs>
     <use xlink:href="#DejaVuSans-52"/>
     <use xlink:href="#DejaVuSans-4f" x="69.482422"/>
     <use xlink:href="#DejaVuSans-43" x="148.193359"/>
     <use xlink:href="#DejaVuSans-20" x="218.017578"/>
     <use xlink:href="#DejaVuSans-43" x="249.804688"/>
     <use xlink:href="#DejaVuSans-55" x="319.628906"/>
     <use xlink:href="#DejaVuSans-52" x="392.822266"/>
     <use xlink:href="#DejaVuSans-56" x="456.804688"/>
     <use xlink:href="#DejaVuSans-45" x="525.212891"/>
    </g>
   </g>
   <g id="legend_1">
    <g id="patch_7">
     <path d="M 234.97 302.584 
L 407.72 302.584 
Q 409.72 302.584 409.72 300.584 
L 409.72 286.905875 
Q 409.72 284.905875 407.72 284.905875 
L 234.97 284.905875 
Q 232.97 284.905875 232.97 286.905875 
L 232.97 300.584 
Q 232.97 302.584 234.97 302.584 
z
" style="fill: #ffffff; opacity: 0.8; stroke: #cccccc; stroke-linejoin: miter"/>
    </g>
    <g id="line2d_15">
     <path d="M 236.97 293.004312 
L 246.97 293.004312 
L 256.97 293.004312 
" style="fill: none; stroke: #ff8c00; stroke-width: 1.5; stroke-linecap: square"/>
    </g>
    <g id="text_16">
     <!-- ROC curve (ROC AUC=0.69) -->
     <g transform="translate(264.97 296.504312)scale(0.1 -0.1)">
      <defs>
       <path id="DejaVuSans-63" d="M 3122 3366 
L 3122 2828 
Q 2878 2963 2633 3030 
Q 2388 3097 2138 3097 
Q 1578 3097 1268 2742 
Q 959 2388 959 1747 
Q 959 1106 1268 751 
Q 1578 397 2138 397 
Q 2388 397 2633 464 
Q 2878 531 3122 666 
L 3122 134 
Q 2881 22 2623 -34 
Q 2366 -91 2075 -91 
Q 1284 -91 818 406 
Q 353 903 353 1747 
Q 353 2603 823 3093 
Q 1294 3584 2113 3584 
Q 2378 3584 2631 3529 
Q 2884 3475 3122 3366 
z
" transform="scale(0.015625)"/>
       <path id="DejaVuSans-28" d="M 1984 4856 
Q 1566 4138 1362 3434 
Q 1159 2731 1159 2009 
Q 1159 1288 1364 580 
Q 1569 -128 1984 -844 
L 1484 -844 
Q 1016 -109 783 600 
Q 550 1309 550 2009 
Q 550 2706 781 3412 
Q 1013 4119 1484 4856 
L 1984 4856 
z
" transform="scale(0.015625)"/>
       <path id="DejaVuSans-41" d="M 2188 4044 
L 1331 1722 
L 3047 1722 
L 2188 4044 
z
M 1831 4666 
L 2547 4666 
L 4325 0 
L 3669 0 
L 3244 1197 
L 1141 1197 
L 716 0 
L 50 0 
L 1831 4666 
z
" transform="scale(0.015625)"/>
       <path id="DejaVuSans-3d" d="M 678 2906 
L 4684 2906 
L 4684 2381 
L 678 2381 
L 678 2906 
z
M 678 1631 
L 4684 1631 
L 4684 1100 
L 678 1100 
L 678 1631 
z
" transform="scale(0.015625)"/>
       <path id="DejaVuSans-39" d="M 703 97 
L 703 672 
Q 941 559 1184 500 
Q 1428 441 1663 441 
Q 2288 441 2617 861 
Q 2947 1281 2994 2138 
Q 2813 1869 2534 1725 
Q 2256 1581 1919 1581 
Q 1219 1581 811 2004 
Q 403 2428 403 3163 
Q 403 3881 828 4315 
Q 1253 4750 1959 4750 
Q 2769 4750 3195 4129 
Q 3622 3509 3622 2328 
Q 3622 1225 3098 567 
Q 2575 -91 1691 -91 
Q 1453 -91 1209 -44 
Q 966 3 703 97 
z
M 1959 2075 
Q 2384 2075 2632 2365 
Q 2881 2656 2881 3163 
Q 2881 3666 2632 3958 
Q 2384 4250 1959 4250 
Q 1534 4250 1286 3958 
Q 1038 3666 1038 3163 
Q 1038 2656 1286 2365 
Q 1534 2075 1959 2075 
z
" transform="scale(0.015625)"/>
       <path id="DejaVuSans-29" d="M 513 4856 
L 1013 4856 
Q 1481 4119 1714 3412 
Q 1947 2706 1947 2009 
Q 1947 1309 1714 600 
Q 1481 -109 1013 -844 
L 513 -844 
Q 928 -128 1133 580 
Q 1338 1288 1338 2009 
Q 1338 2731 1133 3434 
Q 928 4138 513 4856 
z
" transform="scale(0.015625)"/>
      </defs>
      <use xlink:href="#DejaVuSans-52"/>
      <use xlink:href="#DejaVuSans-4f" x="69.482422"/>
      <use xlink:href="#DejaVuSans-43" x="148.193359"/>
      <use xlink:href="#DejaVuSans-20" x="218.017578"/>
      <use xlink:href="#DejaVuSans-63" x="249.804688"/>
      <use xlink:href="#DejaVuSans-75" x="304.785156"/>
      <use xlink:href="#DejaVuSans-72" x="368.164062"/>
      <use xlink:href="#DejaVuSans-76" x="409.277344"/>
      <use xlink:href="#DejaVuSans-65" x="468.457031"/>
      <use xlink:href="#DejaVuSans-20" x="529.980469"/>
      <use xlink:href="#DejaVuSans-28" x="561.767578"/>
      <use xlink:href="#DejaVuSans-52" x="600.78125"/>
      <use xlink:href="#DejaVuSans-4f" x="670.263672"/>
      <use xlink:href="#DejaVuSans-43" x="748.974609"/>
      <use xlink:href="#DejaVuSans-20" x="818.798828"/>
      <use xlink:href="#DejaVuSans-41" x="850.585938"/>
      <use xlink:href="#DejaVuSans-55" x="918.994141"/>
      <use xlink:href="#DejaVuSans-43" x="992.1875"/>
      <use xlink:href="#DejaVuSans-3d" x="1062.011719"/>
      <use xlink:href="#DejaVuSans-30" x="1145.800781"/>
      <use xlink:href="#DejaVuSans-2e" x="1209.423828"/>
      <use xlink:href="#DejaVuSans-36" x="1241.210938"/>
      <use xlink:href="#DejaVuSans-39" x="1304.833984"/>
      <use xlink:href="#DejaVuSans-29" x="1368.457031"/>
     </g>
    </g>
   </g>
  </g>
 </g>
 <defs>
  <clipPath id="pea957e42d8">
   <rect x="57.6" y="41.472" width="357.12" height="266.112"/>
  </clipPath>
 </defs>
</svg>
