<?xml version="1.0" encoding="utf-8" standalone="no"?>
<!DOCTYPE svg PUBLIC "-//W3C//DTD SVG 1.1//EN"
  "http://www.w3.org/Graphics/SVG/1.1/DTD/svg11.dtd">
<svg xmlns:xlink="http://www.w3.org/1999/xlink" width="460.8pt" height="345.6pt" viewBox="0 0 460.8 345.6" xmlns="http://www.w3.org/2000/svg" version="1.1">
 <metadata>
  <rdf:RDF xmlns:dc="http://purl.org/dc/elements/1.1/" xmlns:cc="http://creativecommons.org/ns#" xmlns:rdf="http://www.w3.org/1999/02/22-rdf-syntax-ns#">
   <cc:Work>
    <dc:type rdf:resource="http://purl.org/dc/dcmitype/StillImage"/>
    <dc:date>2022-05-26T20:23:56.310734</dc:date>
    <dc:format>image/svg+xml</dc:format>
    <dc:creator>
     <cc:Agent>
      <dc:title>Matplotlib v3.5.1, https://matplotlib.org/</dc:title>
     </cc:Agent>
    </dc:creator>
   </cc:Work>
  </rdf:RDF>
 </metadata>
 <defs>
  <style type="text/css">*{stroke-linejoin: round; stroke-linecap: butt}</style>
 </defs>
 <g id="figure_1">
  <g id="patch_1">
   <path d="M 0 345.6 
L 460.8 345.6 
L 460.8 0 
L 0 0 
z
" style="fill: #ffffff"/>
  </g>
  <g id="axes_1">
   <g id="patch_2">
    <path d="M 57.6 307.584 
L 414.72 307.584 
L 414.72 41.472 
L 57.6 41.472 
z
" style="fill: #ffffff"/>
   </g>
   <g id="matplotlib.axis_1">
    <g id="xtick_1">
     <g id="line2d_1">
      <defs>
       <path id="ma0351c4553" d="M 0 0 
L 0 3.5 
" style="stroke: #000000; stroke-width: 0.8"/>
      </defs>
      <g>
       <use xlink:href="#ma0351c4553" x="74.605714" y="307.584" style="stroke: #000000; stroke-width: 0.8"/>
      </g>
     </g>
     <g id="text_1">
      <!-- 0.0 -->
      <g transform="translate(66.654152 322.182437)scale(0.1 -0.1)">
       <defs>
        <path id="DejaVuSans-30" d="M 2034 4250 
Q 1547 4250 1301 3770 
Q 1056 3291 1056 2328 
Q 1056 1369 1301 889 
Q 1547 409 2034 409 
Q 2525 409 2770 889 
Q 3016 1369 3016 2328 
Q 3016 3291 2770 3770 
Q 2525 4250 2034 4250 
z
M 2034 4750 
Q 2819 4750 3233 4129 
Q 3647 3509 3647 2328 
Q 3647 1150 3233 529 
Q 2819 -91 2034 -91 
Q 1250 -91 836 529 
Q 422 1150 422 2328 
Q 422 3509 836 4129 
Q 1250 4750 2034 4750 
z
" transform="scale(0.015625)"/>
        <path id="DejaVuSans-2e" d="M 684 794 
L 1344 794 
L 1344 0 
L 684 0 
L 684 794 
z
" transform="scale(0.015625)"/>
       </defs>
       <use xlink:href="#DejaVuSans-30"/>
       <use xlink:href="#DejaVuSans-2e" x="63.623047"/>
       <use xlink:href="#DejaVuSans-30" x="95.410156"/>
      </g>
     </g>
    </g>
    <g id="xtick_2">
     <g id="line2d_2">
      <g>
       <use xlink:href="#ma0351c4553" x="142.628571" y="307.584" style="stroke: #000000; stroke-width: 0.8"/>
      </g>
     </g>
     <g id="text_2">
      <!-- 0.2 -->
      <g transform="translate(134.677009 322.182437)scale(0.1 -0.1)">
       <defs>
        <path id="DejaVuSans-32" d="M 1228 531 
L 3431 531 
L 3431 0 
L 469 0 
L 469 531 
Q 828 903 1448 1529 
Q 2069 2156 2228 2338 
Q 2531 2678 2651 2914 
Q 2772 3150 2772 3378 
Q 2772 3750 2511 3984 
Q 2250 4219 1831 4219 
Q 1534 4219 1204 4116 
Q 875 4013 500 3803 
L 500 4441 
Q 881 4594 1212 4672 
Q 1544 4750 1819 4750 
Q 2544 4750 2975 4387 
Q 3406 4025 3406 3419 
Q 3406 3131 3298 2873 
Q 3191 2616 2906 2266 
Q 2828 2175 2409 1742 
Q 1991 1309 1228 531 
z
" transform="scale(0.015625)"/>
       </defs>
       <use xlink:href="#DejaVuSans-30"/>
       <use xlink:href="#DejaVuSans-2e" x="63.623047"/>
       <use xlink:href="#DejaVuSans-32" x="95.410156"/>
      </g>
     </g>
    </g>
    <g id="xtick_3">
     <g id="line2d_3">
      <g>
       <use xlink:href="#ma0351c4553" x="210.651429" y="307.584" style="stroke: #000000; stroke-width: 0.8"/>
      </g>
     </g>
     <g id="text_3">
      <!-- 0.4 -->
      <g transform="translate(202.699866 322.182437)scale(0.1 -0.1)">
       <defs>
        <path id="DejaVuSans-34" d="M 2419 4116 
L 825 1625 
L 2419 1625 
L 2419 4116 
z
M 2253 4666 
L 3047 4666 
L 3047 1625 
L 3713 1625 
L 3713 1100 
L 3047 1100 
L 3047 0 
L 2419 0 
L 2419 1100 
L 313 1100 
L 313 1709 
L 2253 4666 
z
" transform="scale(0.015625)"/>
       </defs>
       <use xlink:href="#DejaVuSans-30"/>
       <use xlink:href="#DejaVuSans-2e" x="63.623047"/>
       <use xlink:href="#DejaVuSans-34" x="95.410156"/>
      </g>
     </g>
    </g>
    <g id="xtick_4">
     <g id="line2d_4">
      <g>
       <use xlink:href="#ma0351c4553" x="278.674286" y="307.584" style="stroke: #000000; stroke-width: 0.8"/>
      </g>
     </g>
     <g id="text_4">
      <!-- 0.6 -->
      <g transform="translate(270.722723 322.182437)scale(0.1 -0.1)">
       <defs>
        <path id="DejaVuSans-36" d="M 2113 2584 
Q 1688 2584 1439 2293 
Q 1191 2003 1191 1497 
Q 1191 994 1439 701 
Q 1688 409 2113 409 
Q 2538 409 2786 701 
Q 3034 994 3034 1497 
Q 3034 2003 2786 2293 
Q 2538 2584 2113 2584 
z
M 3366 4563 
L 3366 3988 
Q 3128 4100 2886 4159 
Q 2644 4219 2406 4219 
Q 1781 4219 1451 3797 
Q 1122 3375 1075 2522 
Q 1259 2794 1537 2939 
Q 1816 3084 2150 3084 
Q 2853 3084 3261 2657 
Q 3669 2231 3669 1497 
Q 3669 778 3244 343 
Q 2819 -91 2113 -91 
Q 1303 -91 875 529 
Q 447 1150 447 2328 
Q 447 3434 972 4092 
Q 1497 4750 2381 4750 
Q 2619 4750 2861 4703 
Q 3103 4656 3366 4563 
z
" transform="scale(0.015625)"/>
       </defs>
       <use xlink:href="#DejaVuSans-30"/>
       <use xlink:href="#DejaVuSans-2e" x="63.623047"/>
       <use xlink:href="#DejaVuSans-36" x="95.410156"/>
      </g>
     </g>
    </g>
    <g id="xtick_5">
     <g id="line2d_5">
      <g>
       <use xlink:href="#ma0351c4553" x="346.697143" y="307.584" style="stroke: #000000; stroke-width: 0.8"/>
      </g>
     </g>
     <g id="text_5">
      <!-- 0.8 -->
      <g transform="translate(338.74558 322.182437)scale(0.1 -0.1)">
       <defs>
        <path id="DejaVuSans-38" d="M 2034 2216 
Q 1584 2216 1326 1975 
Q 1069 1734 1069 1313 
Q 1069 891 1326 650 
Q 1584 409 2034 409 
Q 2484 409 2743 651 
Q 3003 894 3003 1313 
Q 3003 1734 2745 1975 
Q 2488 2216 2034 2216 
z
M 1403 2484 
Q 997 2584 770 2862 
Q 544 3141 544 3541 
Q 544 4100 942 4425 
Q 1341 4750 2034 4750 
Q 2731 4750 3128 4425 
Q 3525 4100 3525 3541 
Q 3525 3141 3298 2862 
Q 3072 2584 2669 2484 
Q 3125 2378 3379 2068 
Q 3634 1759 3634 1313 
Q 3634 634 3220 271 
Q 2806 -91 2034 -91 
Q 1263 -91 848 271 
Q 434 634 434 1313 
Q 434 1759 690 2068 
Q 947 2378 1403 2484 
z
M 1172 3481 
Q 1172 3119 1398 2916 
Q 1625 2713 2034 2713 
Q 2441 2713 2670 2916 
Q 2900 3119 2900 3481 
Q 2900 3844 2670 4047 
Q 2441 4250 2034 4250 
Q 1625 4250 1398 4047 
Q 1172 3844 1172 3481 
z
" transform="scale(0.015625)"/>
       </defs>
       <use xlink:href="#DejaVuSans-30"/>
       <use xlink:href="#DejaVuSans-2e" x="63.623047"/>
       <use xlink:href="#DejaVuSans-38" x="95.410156"/>
      </g>
     </g>
    </g>
    <g id="xtick_6">
     <g id="line2d_6">
      <g>
       <use xlink:href="#ma0351c4553" x="414.72" y="307.584" style="stroke: #000000; stroke-width: 0.8"/>
      </g>
     </g>
     <g id="text_6">
      <!-- 1.0 -->
      <g transform="translate(406.768438 322.182437)scale(0.1 -0.1)">
       <defs>
        <path id="DejaVuSans-31" d="M 794 531 
L 1825 531 
L 1825 4091 
L 703 3866 
L 703 4441 
L 1819 4666 
L 2450 4666 
L 2450 531 
L 3481 531 
L 3481 0 
L 794 0 
L 794 531 
z
" transform="scale(0.015625)"/>
       </defs>
       <use xlink:href="#DejaVuSans-31"/>
       <use xlink:href="#DejaVuSans-2e" x="63.623047"/>
       <use xlink:href="#DejaVuSans-30" x="95.410156"/>
      </g>
     </g>
    </g>
    <g id="text_7">
     <!-- False Positive Rate -->
     <g transform="translate(189.693594 335.860562)scale(0.1 -0.1)">
      <defs>
       <path id="DejaVuSans-46" d="M 628 4666 
L 3309 4666 
L 3309 4134 
L 1259 4134 
L 1259 2759 
L 3109 2759 
L 3109 2228 
L 1259 2228 
L 1259 0 
L 628 0 
L 628 4666 
z
" transform="scale(0.015625)"/>
       <path id="DejaVuSans-61" d="M 2194 1759 
Q 1497 1759 1228 1600 
Q 959 1441 959 1056 
Q 959 750 1161 570 
Q 1363 391 1709 391 
Q 2188 391 2477 730 
Q 2766 1069 2766 1631 
L 2766 1759 
L 2194 1759 
z
M 3341 1997 
L 3341 0 
L 2766 0 
L 2766 531 
Q 2569 213 2275 61 
Q 1981 -91 1556 -91 
Q 1019 -91 701 211 
Q 384 513 384 1019 
Q 384 1609 779 1909 
Q 1175 2209 1959 2209 
L 2766 2209 
L 2766 2266 
Q 2766 2663 2505 2880 
Q 2244 3097 1772 3097 
Q 1472 3097 1187 3025 
Q 903 2953 641 2809 
L 641 3341 
Q 956 3463 1253 3523 
Q 1550 3584 1831 3584 
Q 2591 3584 2966 3190 
Q 3341 2797 3341 1997 
z
" transform="scale(0.015625)"/>
       <path id="DejaVuSans-6c" d="M 603 4863 
L 1178 4863 
L 1178 0 
L 603 0 
L 603 4863 
z
" transform="scale(0.015625)"/>
       <path id="DejaVuSans-73" d="M 2834 3397 
L 2834 2853 
Q 2591 2978 2328 3040 
Q 2066 3103 1784 3103 
Q 1356 3103 1142 2972 
Q 928 2841 928 2578 
Q 928 2378 1081 2264 
Q 1234 2150 1697 2047 
L 1894 2003 
Q 2506 1872 2764 1633 
Q 3022 1394 3022 966 
Q 3022 478 2636 193 
Q 2250 -91 1575 -91 
Q 1294 -91 989 -36 
Q 684 19 347 128 
L 347 722 
Q 666 556 975 473 
Q 1284 391 1588 391 
Q 1994 391 2212 530 
Q 2431 669 2431 922 
Q 2431 1156 2273 1281 
Q 2116 1406 1581 1522 
L 1381 1569 
Q 847 1681 609 1914 
Q 372 2147 372 2553 
Q 372 3047 722 3315 
Q 1072 3584 1716 3584 
Q 2034 3584 2315 3537 
Q 2597 3491 2834 3397 
z
" transform="scale(0.015625)"/>
       <path id="DejaVuSans-65" d="M 3597 1894 
L 3597 1613 
L 953 1613 
Q 991 1019 1311 708 
Q 1631 397 2203 397 
Q 2534 397 2845 478 
Q 3156 559 3463 722 
L 3463 178 
Q 3153 47 2828 -22 
Q 2503 -91 2169 -91 
Q 1331 -91 842 396 
Q 353 884 353 1716 
Q 353 2575 817 3079 
Q 1281 3584 2069 3584 
Q 2775 3584 3186 3129 
Q 3597 2675 3597 1894 
z
M 3022 2063 
Q 3016 2534 2758 2815 
Q 2500 3097 2075 3097 
Q 1594 3097 1305 2825 
Q 1016 2553 972 2059 
L 3022 2063 
z
" transform="scale(0.015625)"/>
       <path id="DejaVuSans-20" transform="scale(0.015625)"/>
       <path id="DejaVuSans-50" d="M 1259 4147 
L 1259 2394 
L 2053 2394 
Q 2494 2394 2734 2622 
Q 2975 2850 2975 3272 
Q 2975 3691 2734 3919 
Q 2494 4147 2053 4147 
L 1259 4147 
z
M 628 4666 
L 2053 4666 
Q 2838 4666 3239 4311 
Q 3641 3956 3641 3272 
Q 3641 2581 3239 2228 
Q 2838 1875 2053 1875 
L 1259 1875 
L 1259 0 
L 628 0 
L 628 4666 
z
" transform="scale(0.015625)"/>
       <path id="DejaVuSans-6f" d="M 1959 3097 
Q 1497 3097 1228 2736 
Q 959 2375 959 1747 
Q 959 1119 1226 758 
Q 1494 397 1959 397 
Q 2419 397 2687 759 
Q 2956 1122 2956 1747 
Q 2956 2369 2687 2733 
Q 2419 3097 1959 3097 
z
M 1959 3584 
Q 2709 3584 3137 3096 
Q 3566 2609 3566 1747 
Q 3566 888 3137 398 
Q 2709 -91 1959 -91 
Q 1206 -91 779 398 
Q 353 888 353 1747 
Q 353 2609 779 3096 
Q 1206 3584 1959 3584 
z
" transform="scale(0.015625)"/>
       <path id="DejaVuSans-69" d="M 603 3500 
L 1178 3500 
L 1178 0 
L 603 0 
L 603 3500 
z
M 603 4863 
L 1178 4863 
L 1178 4134 
L 603 4134 
L 603 4863 
z
" transform="scale(0.015625)"/>
       <path id="DejaVuSans-74" d="M 1172 4494 
L 1172 3500 
L 2356 3500 
L 2356 3053 
L 1172 3053 
L 1172 1153 
Q 1172 725 1289 603 
Q 1406 481 1766 481 
L 2356 481 
L 2356 0 
L 1766 0 
Q 1100 0 847 248 
Q 594 497 594 1153 
L 594 3053 
L 172 3053 
L 172 3500 
L 594 3500 
L 594 4494 
L 1172 4494 
z
" transform="scale(0.015625)"/>
       <path id="DejaVuSans-76" d="M 191 3500 
L 800 3500 
L 1894 563 
L 2988 3500 
L 3597 3500 
L 2284 0 
L 1503 0 
L 191 3500 
z
" transform="scale(0.015625)"/>
       <path id="DejaVuSans-52" d="M 2841 2188 
Q 3044 2119 3236 1894 
Q 3428 1669 3622 1275 
L 4263 0 
L 3584 0 
L 2988 1197 
Q 2756 1666 2539 1819 
Q 2322 1972 1947 1972 
L 1259 1972 
L 1259 0 
L 628 0 
L 628 4666 
L 2053 4666 
Q 2853 4666 3247 4331 
Q 3641 3997 3641 3322 
Q 3641 2881 3436 2590 
Q 3231 2300 2841 2188 
z
M 1259 4147 
L 1259 2491 
L 2053 2491 
Q 2509 2491 2742 2702 
Q 2975 2913 2975 3322 
Q 2975 3731 2742 3939 
Q 2509 4147 2053 4147 
L 1259 4147 
z
" transform="scale(0.015625)"/>
      </defs>
      <use xlink:href="#DejaVuSans-46"/>
      <use xlink:href="#DejaVuSans-61" x="48.394531"/>
      <use xlink:href="#DejaVuSans-6c" x="109.673828"/>
      <use xlink:href="#DejaVuSans-73" x="137.457031"/>
      <use xlink:href="#DejaVuSans-65" x="189.556641"/>
      <use xlink:href="#DejaVuSans-20" x="251.080078"/>
      <use xlink:href="#DejaVuSans-50" x="282.867188"/>
      <use xlink:href="#DejaVuSans-6f" x="339.544922"/>
      <use xlink:href="#DejaVuSans-73" x="400.726562"/>
      <use xlink:href="#DejaVuSans-69" x="452.826172"/>
      <use xlink:href="#DejaVuSans-74" x="480.609375"/>
      <use xlink:href="#DejaVuSans-69" x="519.818359"/>
      <use xlink:href="#DejaVuSans-76" x="547.601562"/>
      <use xlink:href="#DejaVuSans-65" x="606.78125"/>
      <use xlink:href="#DejaVuSans-20" x="668.304688"/>
      <use xlink:href="#DejaVuSans-52" x="700.091797"/>
      <use xlink:href="#DejaVuSans-61" x="767.324219"/>
      <use xlink:href="#DejaVuSans-74" x="828.603516"/>
      <use xlink:href="#DejaVuSans-65" x="867.8125"/>
     </g>
    </g>
   </g>
   <g id="matplotlib.axis_2">
    <g id="ytick_1">
     <g id="line2d_7">
      <defs>
       <path id="mfb7db7171e" d="M 0 0 
L -3.5 0 
" style="stroke: #000000; stroke-width: 0.8"/>
      </defs>
      <g>
       <use xlink:href="#mfb7db7171e" x="57.6" y="307.584" style="stroke: #000000; stroke-width: 0.8"/>
      </g>
     </g>
     <g id="text_8">
      <!-- 0.0 -->
      <g transform="translate(34.696875 311.383219)scale(0.1 -0.1)">
       <use xlink:href="#DejaVuSans-30"/>
       <use xlink:href="#DejaVuSans-2e" x="63.623047"/>
       <use xlink:href="#DejaVuSans-30" x="95.410156"/>
      </g>
     </g>
    </g>
    <g id="ytick_2">
     <g id="line2d_8">
      <g>
       <use xlink:href="#mfb7db7171e" x="57.6" y="256.896" style="stroke: #000000; stroke-width: 0.8"/>
      </g>
     </g>
     <g id="text_9">
      <!-- 0.2 -->
      <g transform="translate(34.696875 260.695219)scale(0.1 -0.1)">
       <use xlink:href="#DejaVuSans-30"/>
       <use xlink:href="#DejaVuSans-2e" x="63.623047"/>
       <use xlink:href="#DejaVuSans-32" x="95.410156"/>
      </g>
     </g>
    </g>
    <g id="ytick_3">
     <g id="line2d_9">
      <g>
       <use xlink:href="#mfb7db7171e" x="57.6" y="206.208" style="stroke: #000000; stroke-width: 0.8"/>
      </g>
     </g>
     <g id="text_10">
      <!-- 0.4 -->
      <g transform="translate(34.696875 210.007219)scale(0.1 -0.1)">
       <use xlink:href="#DejaVuSans-30"/>
       <use xlink:href="#DejaVuSans-2e" x="63.623047"/>
       <use xlink:href="#DejaVuSans-34" x="95.410156"/>
      </g>
     </g>
    </g>
    <g id="ytick_4">
     <g id="line2d_10">
      <g>
       <use xlink:href="#mfb7db7171e" x="57.6" y="155.52" style="stroke: #000000; stroke-width: 0.8"/>
      </g>
     </g>
     <g id="text_11">
      <!-- 0.6 -->
      <g transform="translate(34.696875 159.319219)scale(0.1 -0.1)">
       <use xlink:href="#DejaVuSans-30"/>
       <use xlink:href="#DejaVuSans-2e" x="63.623047"/>
       <use xlink:href="#DejaVuSans-36" x="95.410156"/>
      </g>
     </g>
    </g>
    <g id="ytick_5">
     <g id="line2d_11">
      <g>
       <use xlink:href="#mfb7db7171e" x="57.6" y="104.832" style="stroke: #000000; stroke-width: 0.8"/>
      </g>
     </g>
     <g id="text_12">
      <!-- 0.8 -->
      <g transform="translate(34.696875 108.631219)scale(0.1 -0.1)">
       <use xlink:href="#DejaVuSans-30"/>
       <use xlink:href="#DejaVuSans-2e" x="63.623047"/>
       <use xlink:href="#DejaVuSans-38" x="95.410156"/>
      </g>
     </g>
    </g>
    <g id="ytick_6">
     <g id="line2d_12">
      <g>
       <use xlink:href="#mfb7db7171e" x="57.6" y="54.144" style="stroke: #000000; stroke-width: 0.8"/>
      </g>
     </g>
     <g id="text_13">
      <!-- 1.0 -->
      <g transform="translate(34.696875 57.943219)scale(0.1 -0.1)">
       <use xlink:href="#DejaVuSans-31"/>
       <use xlink:href="#DejaVuSans-2e" x="63.623047"/>
       <use xlink:href="#DejaVuSans-30" x="95.410156"/>
      </g>
     </g>
    </g>
    <g id="text_14">
     <!-- True Positive Rate -->
     <g transform="translate(28.617187 219.057687)rotate(-90)scale(0.1 -0.1)">
      <defs>
       <path id="DejaVuSans-54" d="M -19 4666 
L 3928 4666 
L 3928 4134 
L 2272 4134 
L 2272 0 
L 1638 0 
L 1638 4134 
L -19 4134 
L -19 4666 
z
" transform="scale(0.015625)"/>
       <path id="DejaVuSans-72" d="M 2631 2963 
Q 2534 3019 2420 3045 
Q 2306 3072 2169 3072 
Q 1681 3072 1420 2755 
Q 1159 2438 1159 1844 
L 1159 0 
L 581 0 
L 581 3500 
L 1159 3500 
L 1159 2956 
Q 1341 3275 1631 3429 
Q 1922 3584 2338 3584 
Q 2397 3584 2469 3576 
Q 2541 3569 2628 3553 
L 2631 2963 
z
" transform="scale(0.015625)"/>
       <path id="DejaVuSans-75" d="M 544 1381 
L 544 3500 
L 1119 3500 
L 1119 1403 
Q 1119 906 1312 657 
Q 1506 409 1894 409 
Q 2359 409 2629 706 
Q 2900 1003 2900 1516 
L 2900 3500 
L 3475 3500 
L 3475 0 
L 2900 0 
L 2900 538 
Q 2691 219 2414 64 
Q 2138 -91 1772 -91 
Q 1169 -91 856 284 
Q 544 659 544 1381 
z
M 1991 3584 
L 1991 3584 
z
" transform="scale(0.015625)"/>
      </defs>
      <use xlink:href="#DejaVuSans-54"/>
      <use xlink:href="#DejaVuSans-72" x="46.333984"/>
      <use xlink:href="#DejaVuSans-75" x="87.447266"/>
      <use xlink:href="#DejaVuSans-65" x="150.826172"/>
      <use xlink:href="#DejaVuSans-20" x="212.349609"/>
      <use xlink:href="#DejaVuSans-50" x="244.136719"/>
      <use xlink:href="#DejaVuSans-6f" x="300.814453"/>
      <use xlink:href="#DejaVuSans-73" x="361.996094"/>
      <use xlink:href="#DejaVuSans-69" x="414.095703"/>
      <use xlink:href="#DejaVuSans-74" x="441.878906"/>
      <use xlink:href="#DejaVuSans-69" x="481.087891"/>
      <use xlink:href="#DejaVuSans-76" x="508.871094"/>
      <use xlink:href="#DejaVuSans-65" x="568.050781"/>
      <use xlink:href="#DejaVuSans-20" x="629.574219"/>
      <use xlink:href="#DejaVuSans-52" x="661.361328"/>
      <use xlink:href="#DejaVuSans-61" x="728.59375"/>
      <use xlink:href="#DejaVuSans-74" x="789.873047"/>
      <use xlink:href="#DejaVuSans-65" x="829.082031"/>
     </g>
    </g>
   </g>
   <g id="line2d_13">
    <path d="M 74.605714 307.584 
L 74.850315 301.65792 
L 74.854828 301.547986 
L 74.965908 299.654212 
L 74.972739 299.544278 
L 75.083489 297.758364 
L 75.089906 297.64843 
L 75.200945 296.206839 
L 75.211461 296.096905 
L 75.3225 294.727912 
L 75.334465 294.620052 
L 75.445463 293.410775 
L 75.445545 293.410775 
L 75.454819 293.300841 
L 75.565527 292.184904 
L 75.565693 292.184904 
L 75.579314 292.07497 
L 75.690394 291.042002 
L 75.701117 290.932068 
L 75.811101 289.845171 
L 75.81166 289.845171 
L 75.821513 289.73731 
L 75.932594 288.795609 
L 75.947954 288.685675 
L 76.059034 287.84976 
L 76.070751 287.739825 
L 76.181666 286.841683 
L 76.198061 286.731749 
L 76.309058 285.906205 
L 76.322265 285.79627 
L 76.433222 285.09518 
L 76.447008 284.985246 
L 76.557012 284.153479 
L 76.558006 284.153479 
L 76.57556 284.043544 
L 76.686517 283.315489 
L 76.705686 283.205555 
L 76.816559 282.494093 
L 76.833658 282.384159 
L 76.944407 281.676846 
L 76.944573 281.676846 
L 76.963535 281.566912 
L 77.074574 280.915603 
L 77.09722 280.805669 
L 77.207638 280.123247 
L 77.208218 280.123247 
L 77.225524 280.013312 
L 77.336315 279.39934 
L 77.336563 279.39934 
L 77.360369 279.289405 
L 77.471118 278.712769 
L 77.471408 278.712769 
L 77.493227 278.604909 
L 77.604266 277.961897 
L 77.626208 277.851963 
L 77.737041 277.246287 
L 77.737289 277.246287 
L 77.761385 277.136353 
L 77.871803 276.588756 
L 77.893497 276.478821 
L 78.003087 275.966486 
L 78.004578 275.966486 
L 78.028673 275.856552 
L 78.139712 275.296509 
L 78.139754 275.296509 
L 78.263379 274.668017 
L 78.288137 274.558083 
L 78.398555 274.01256 
L 78.399176 274.01256 
L 78.420581 273.902626 
L 78.530875 273.402736 
L 78.53162 273.402736 
L 78.549547 273.292802 
L 78.671516 272.747279 
L 78.70236 272.637344 
L 78.824246 272.09597 
L 78.848922 271.98811 
L 78.848922 271.986036 
L 78.959836 271.490294 
L 78.988776 271.38036 
L 79.099525 270.965514 
L 79.099857 270.965514 
L 79.122793 270.855579 
L 79.233542 270.415842 
L 79.233832 270.415842 
L 79.255941 270.305908 
L 79.367021 269.864097 
L 79.39919 269.754162 
L 79.509649 269.254272 
L 79.509939 269.254272 
L 79.541446 269.144338 
L 79.652526 268.671413 
L 79.680307 268.563553 
L 79.680307 268.561479 
L 79.801158 268.074035 
L 79.829767 267.9641 
L 79.940185 267.509844 
L 79.94064 267.509844 
L 79.965771 267.399909 
L 80.076851 266.945653 
L 80.10575 266.837793 
L 80.216789 266.45406 
L 80.216851 266.45406 
L 80.253843 266.344125 
L 80.364841 265.929279 
L 80.390096 265.819345 
L 80.500058 265.387905 
L 80.501052 265.387905 
L 80.530571 265.27797 
L 80.64132 264.827862 
L 80.670757 264.717928 
L 80.78163 264.34664 
L 80.812847 264.236706 
L 80.923928 263.859196 
L 80.956552 263.749262 
L 81.067053 263.392494 
L 81.0962 263.282559 
L 81.204589 262.911272 
L 81.207239 262.911272 
L 81.23328 262.801338 
L 81.343533 262.417605 
L 81.344319 262.417605 
L 81.373011 262.309745 
L 81.492082 261.903195 
L 81.522015 261.793261 
L 81.640755 261.411602 
L 81.667542 261.300631 
L 81.777918 260.942826 
L 81.778622 260.942826 
L 81.816049 260.831855 
L 81.926384 260.476124 
L 81.926798 260.476124 
L 81.967455 260.36619 
L 82.078494 260.069574 
L 82.117577 259.95964 
L 82.22725 259.638134 
L 82.228492 259.638134 
L 82.255941 259.5282 
L 82.365821 259.179729 
L 82.36698 259.179729 
L 82.397038 259.069795 
L 82.508118 258.710953 
L 82.549188 258.601018 
L 82.660145 258.252548 
L 82.660269 258.252548 
L 82.703078 258.142613 
L 82.821238 257.789994 
L 82.861605 257.68006 
L 82.971278 257.352331 
L 82.972706 257.352331 
L 83.013424 257.242397 
L 83.124132 256.943707 
L 83.124505 256.943707 
L 83.242665 256.589014 
L 83.284232 256.479079 
L 83.393657 256.167945 
L 83.395313 256.167945 
L 83.442717 256.05801 
L 83.553508 255.794583 
L 83.553798 255.794583 
L 83.593461 255.684649 
L 83.703589 255.354846 
L 83.704168 255.354846 
L 83.754803 255.244912 
L 83.880456 254.881921 
L 83.918049 254.771987 
L 84.028467 254.483669 
L 84.029088 254.483669 
L 84.062996 254.373734 
L 84.17329 254.029412 
L 84.174035 254.029412 
L 84.217631 253.919478 
L 84.328215 253.618714 
L 84.328711 253.618714 
L 84.36854 253.50878 
L 84.479496 253.230833 
L 84.47962 253.230833 
L 84.521146 253.120898 
L 84.63086 252.861619 
L 84.632226 252.861619 
L 84.674829 252.751685 
L 84.785164 252.504851 
L 84.785909 252.504851 
L 84.821142 252.394917 
L 84.930939 252.104525 
L 84.931974 252.104525 
L 84.978468 251.99459 
L 85.089259 251.689678 
L 85.140638 251.579744 
L 85.249648 251.291426 
L 85.251718 251.291426 
L 85.301897 251.181492 
L 85.412067 250.882802 
L 85.412957 250.882802 
L 85.455663 250.772868 
L 85.566329 250.499069 
L 85.56666 250.499069 
L 85.61067 250.389135 
L 85.721751 250.125708 
L 85.772468 250.015773 
L 85.882761 249.764791 
L 85.883548 249.764791 
L 85.934927 249.654857 
L 86.043896 249.356168 
L 86.045925 249.356168 
L 86.093972 249.246233 
L 86.207184 249.01392 
L 86.250863 248.903985 
L 86.358134 248.653003 
L 86.361861 248.653003 
L 86.407485 248.543069 
L 86.518193 248.300384 
L 86.518566 248.300384 
L 86.574375 248.19045 
L 86.685373 247.920799 
L 86.730335 247.810865 
L 86.847584 247.501805 
L 86.899957 247.393945 
L 87.016171 247.128443 
L 87.062541 247.018509 
L 87.1783 246.786195 
L 87.231915 246.67626 
L 87.342043 246.425278 
L 87.342995 246.425278 
L 87.392801 246.315344 
L 87.502888 246.074733 
L 87.50384 246.074733 
L 87.556793 245.964799 
L 87.667832 245.722114 
L 87.70557 245.61218 
L 87.818989 245.379866 
L 87.862337 245.269931 
L 87.971471 245.056285 
L 87.973417 245.056285 
L 88.019 244.946351 
L 88.129543 244.670478 
L 88.129832 244.670478 
L 88.181833 244.560544 
L 88.292872 244.313711 
L 88.350006 244.203776 
L 88.461087 243.948646 
L 88.509982 243.838711 
L 88.62098 243.614694 
L 88.680225 243.50476 
L 88.794659 243.295263 
L 88.851421 243.185328 
L 88.968504 242.884565 
L 89.016592 242.774631 
L 89.129681 242.57343 
L 89.177375 242.463496 
L 89.28709 242.243627 
L 89.288456 242.243627 
L 89.335364 242.133693 
L 89.445699 241.874414 
L 89.446403 241.874414 
L 89.489668 241.76448 
L 89.600003 241.530092 
L 89.600665 241.530092 
L 89.664424 241.420157 
L 89.775007 241.167101 
L 89.775256 241.167101 
L 89.83595 241.057167 
L 89.946824 240.83315 
L 89.94699 240.83315 
L 89.998328 240.723215 
L 90.108125 240.513718 
L 90.109242 240.513718 
L 90.159214 240.403784 
L 90.27518 240.15695 
L 90.342126 240.047016 
L 90.450764 239.854112 
L 90.452586 239.854112 
L 90.517296 239.744178 
L 90.627673 239.540903 
L 90.628377 239.540903 
L 90.692053 239.430969 
L 90.802181 239.184136 
L 90.80305 239.184136 
L 90.867098 239.074201 
L 90.98236 238.850184 
L 91.03995 238.74025 
L 91.03995 238.739213 
L 91.160097 238.514159 
L 91.223856 238.404224 
L 91.334936 238.176059 
L 91.406478 238.065088 
L 91.515489 237.86285 
L 91.517435 237.86285 
L 91.573534 237.752916 
L 91.682792 237.586977 
L 91.684407 237.586977 
L 91.761331 237.477043 
L 91.871956 237.261323 
L 91.872205 237.261323 
L 91.939482 237.151388 
L 92.054786 236.941891 
L 92.117923 236.831957 
L 92.233392 236.614162 
L 92.301912 236.503191 
L 92.412537 236.32377 
L 92.412951 236.32377 
L 92.482878 236.213836 
L 92.592924 236.004338 
L 92.593959 236.004338 
L 92.645586 235.894404 
L 92.765651 235.668313 
L 92.828002 235.558379 
L 92.93813 235.371698 
L 92.939082 235.371698 
L 93.003172 235.261763 
L 93.112513 235.099973 
L 93.114211 235.099973 
L 93.180661 234.990039 
L 93.290002 234.751502 
L 93.291741 234.751502 
L 93.35935 234.641568 
L 93.474984 234.411328 
L 93.549424 234.301394 
L 93.659221 234.064932 
L 93.660505 234.064932 
L 93.727865 233.957072 
L 93.837 233.770391 
L 93.838946 233.770391 
L 93.911274 233.660457 
L 94.021278 233.450959 
L 94.022313 233.450959 
L 94.088887 233.341025 
L 94.199305 233.127379 
L 94.199988 233.127379 
L 94.272172 233.017445 
L 94.38201 232.824541 
L 94.383252 232.824541 
L 94.445479 232.714607 
L 94.555276 232.525852 
L 94.556518 232.525852 
L 94.627356 232.415918 
L 94.737733 232.268647 
L 94.737981 232.268647 
L 94.798635 232.158713 
L 94.909674 231.953364 
L 94.966601 231.84343 
L 95.075818 231.665046 
L 95.077474 231.665046 
L 95.142475 231.555111 
L 95.246931 231.372579 
L 95.253514 231.372579 
L 95.336772 231.262645 
L 95.447646 231.061444 
L 95.44777 231.061444 
L 95.514302 230.95151 
L 95.624596 230.733716 
L 95.625341 230.733716 
L 95.744537 230.530441 
L 95.82055 230.420507 
L 95.931092 230.211009 
L 95.931589 230.211009 
L 95.996631 230.101075 
L 96.105351 229.924765 
L 96.107049 229.924765 
L 96.192833 229.814831 
L 96.303541 229.667561 
L 96.303789 229.667561 
L 96.386468 229.557626 
L 96.4973 229.370945 
L 96.497383 229.370945 
L 96.564661 229.261011 
L 96.673298 229.086776 
L 96.675741 229.086776 
L 96.742108 228.976841 
L 96.851242 228.827497 
L 96.853188 228.827497 
L 96.91233 228.717562 
L 97.029062 228.530882 
L 97.111451 228.420947 
L 97.222035 228.234266 
L 97.222532 228.234266 
L 97.306411 228.124332 
L 97.421094 227.943874 
L 97.485929 227.83394 
L 97.589226 227.653482 
L 97.597009 227.653482 
L 97.660933 227.543547 
L 97.771393 227.325753 
L 97.771931 227.325753 
L 97.844218 227.215819 
L 97.952525 227.056103 
L 97.955133 227.056103 
L 98.017691 226.945131 
L 98.12844 226.744968 
L 98.128564 226.744968 
L 98.200065 226.635034 
L 98.3098 226.500209 
L 98.311104 226.500209 
L 98.369149 226.390274 
L 98.475675 226.224336 
L 98.479939 226.224336 
L 98.559679 226.114402 
L 98.670552 225.940166 
L 98.670759 225.940166 
L 98.737913 225.830232 
L 98.847296 225.626957 
L 98.849014 225.626957 
L 98.907535 225.517023 
L 99.016463 225.36353 
L 99.018574 225.36353 
L 99.136155 225.197591 
L 99.212623 225.087657 
L 99.319771 224.936238 
L 99.323704 224.936238 
L 99.386634 224.828378 
L 99.386634 224.826304 
L 99.501627 224.631326 
L 99.571741 224.521392 
L 99.676445 224.34923 
L 99.68278 224.34923 
L 99.764506 224.239296 
L 99.876912 224.096174 
L 99.960916 223.98624 
L 100.070961 223.816153 
L 100.071996 223.816153 
L 100.135796 223.706219 
L 100.246504 223.556874 
L 100.246794 223.556874 
L 100.310966 223.44694 
L 100.418486 223.293446 
L 100.421839 223.293446 
L 100.489531 223.183512 
L 100.601936 223.04039 
L 100.69331 222.93253 
L 100.69331 222.931493 
L 100.803521 222.762443 
L 100.80439 222.762443 
L 100.885951 222.652509 
L 100.996286 222.488645 
L 100.99699 222.488645 
L 101.074577 222.380785 
L 101.185616 222.210698 
L 101.185657 222.210698 
L 101.267425 222.100763 
L 101.377678 221.941047 
L 101.378423 221.941047 
L 101.46458 221.831113 
L 101.57889 221.669323 
L 101.672043 221.559389 
L 101.786312 221.399673 
L 101.856777 221.289739 
L 101.97324 221.154914 
L 102.047804 221.043942 
L 102.157932 220.883189 
L 102.158884 220.883189 
L 102.235809 220.773255 
L 102.346579 220.603168 
L 102.346889 220.603168 
L 102.418804 220.493234 
L 102.533817 220.298256 
L 102.614426 220.188322 
L 102.722153 220.061794 
L 102.725341 220.061794 
L 102.824332 219.951859 
L 102.942865 219.767253 
L 103.038585 219.657318 
L 103.146105 219.551533 
L 103.149666 219.551533 
L 103.249775 219.441598 
L 103.360524 219.30055 
L 103.360855 219.30055 
L 103.441961 219.190616 
L 103.5601 219.016381 
L 103.635596 218.906446 
L 103.74974 218.748805 
L 103.850512 218.638871 
L 103.959729 218.501971 
L 103.961592 218.501971 
L 104.061536 218.392037 
L 104.171002 218.26136 
L 104.172533 218.26136 
L 104.277404 218.151426 
L 104.392376 217.958523 
L 104.489918 217.848588 
L 104.599177 217.688872 
L 104.600998 217.688872 
L 104.7009 217.578938 
L 104.815376 217.410925 
L 104.891638 217.300991 
L 105.005616 217.157869 
L 105.085273 217.047935 
L 105.196022 216.900664 
L 105.196353 216.900664 
L 105.282179 216.79073 
L 105.396116 216.647608 
L 105.492043 216.537674 
L 105.606229 216.369661 
L 105.694083 216.259727 
L 105.799409 216.118679 
L 105.805122 216.118679 
L 105.899559 216.008745 
L 106.010598 215.855252 
L 106.092656 215.745317 
L 106.200176 215.598047 
L 106.203757 215.598047 
L 106.29747 215.488113 
L 106.411366 215.349139 
L 106.510688 215.239205 
L 106.624956 215.081563 
L 106.738107 214.971629 
L 106.84542 214.836804 
L 106.848939 214.836804 
L 106.949648 214.72687 
L 107.067001 214.60449 
L 107.169305 214.494556 
L 107.279805 214.341062 
L 107.280302 214.341062 
L 107.392707 214.231128 
L 107.512813 214.083858 
L 107.637722 213.973923 
L 107.754268 213.839098 
L 107.842287 213.729164 
L 107.952747 213.579819 
L 107.953078 213.579819 
L 108.038696 213.469885 
L 108.146879 213.328837 
L 108.149777 213.328837 
L 108.256013 213.218903 
L 108.374256 213.040519 
L 108.461821 212.930585 
L 108.575054 212.822725 
L 108.64966 212.712791 
L 108.760575 212.548926 
L 108.760699 212.548926 
L 108.8647 212.438992 
L 108.978802 212.289647 
L 109.079408 212.181787 
L 109.189743 212.055259 
L 109.190364 212.055259 
L 109.274327 211.945325 
L 109.395758 211.800129 
L 109.496198 211.690194 
L 109.605043 211.557444 
L 109.607278 211.557444 
L 109.70184 211.447509 
L 109.812216 211.327204 
L 109.812879 211.327204 
L 109.915016 211.21727 
L 110.025973 211.078296 
L 110.026097 211.078296 
L 110.110142 210.968362 
L 110.219277 210.831462 
L 110.22114 210.831462 
L 110.299803 210.721528 
L 110.404839 210.605371 
L 110.410883 210.605371 
L 110.521094 210.495437 
L 110.634824 210.36476 
L 110.73514 210.254826 
L 110.853839 210.066071 
L 110.991789 209.956137 
L 111.10113 209.835831 
L 111.102869 209.835831 
L 111.208568 209.727971 
L 111.208568 209.725897 
L 111.325361 209.580701 
L 111.418805 209.470766 
L 111.526325 209.362906 
L 111.529885 209.362906 
L 111.666096 209.252972 
L 111.776763 209.147186 
L 111.777177 209.147186 
L 111.873974 209.037252 
L 111.987331 208.923169 
L 112.069307 208.813235 
L 112.181795 208.670113 
L 112.273002 208.560179 
L 112.382924 208.435725 
L 112.384041 208.435725 
L 112.513007 208.325791 
L 112.626655 208.188891 
L 112.720098 208.078957 
L 112.833745 207.952429 
L 112.9423 207.842495 
L 113.053132 207.699373 
L 113.053257 207.699373 
L 113.136764 207.589438 
L 113.250204 207.473281 
L 113.37238 207.363347 
L 113.486152 207.224374 
L 113.613503 207.114439 
L 113.72036 207.004505 
L 113.724542 207.004505 
L 113.815998 206.894571 
L 113.924139 206.759746 
L 113.927079 206.759746 
L 114.023958 206.649811 
L 114.137688 206.519135 
L 114.249638 206.4092 
L 114.355544 206.286821 
L 114.360739 206.286821 
L 114.486662 206.176887 
L 114.600268 206.052433 
L 114.692884 205.942498 
L 114.80148 205.834638 
L 114.803964 205.834638 
L 114.917322 205.720556 
L 115.03424 205.610621 
L 115.144865 205.475796 
L 115.145237 205.475796 
L 115.244974 205.365862 
L 115.361561 205.224814 
L 115.459641 205.116954 
L 115.459641 205.11488 
L 115.573164 204.988352 
L 115.671079 204.878417 
L 115.784602 204.756038 
L 115.927686 204.646104 
L 116.036158 204.517501 
L 116.038767 204.517501 
L 116.152786 204.407567 
L 116.264881 204.301781 
L 116.363521 204.191847 
L 116.479321 204.07569 
L 116.60307 203.965756 
L 116.715227 203.837153 
L 116.811155 203.727219 
L 116.921821 203.606913 
L 116.922235 203.606913 
L 117.031494 203.496979 
L 117.145183 203.368377 
L 117.257215 203.258443 
L 117.370573 203.146434 
L 117.480991 203.0365 
L 117.590498 202.916194 
L 117.592071 202.916194 
L 117.683445 202.80626 
L 117.792207 202.669361 
L 117.794546 202.669361 
L 117.878901 202.559426 
L 117.995323 202.424601 
L 118.14176 202.314667 
L 118.252385 202.183991 
L 118.252758 202.183991 
L 118.375141 202.074056 
L 118.485145 201.922637 
L 118.486221 201.922637 
L 118.598502 201.812703 
L 118.708299 201.684101 
L 118.7095 201.684101 
L 118.814329 201.574166 
L 118.92367 201.476677 
L 118.925409 201.476677 
L 119.041334 201.366743 
L 119.151959 201.256809 
L 119.152331 201.256809 
L 119.258237 201.146875 
L 119.368448 201.03694 
L 119.369193 201.03694 
L 119.47162 200.927006 
L 119.585268 200.798404 
L 119.679953 200.688469 
L 119.79298 200.593055 
L 119.899754 200.483121 
L 120.013443 200.352444 
L 120.111648 200.24251 
L 120.22811 200.109759 
L 120.369331 199.999825 
L 120.481943 199.923078 
L 120.575759 199.813144 
L 120.688082 199.68869 
L 120.787529 199.578755 
L 120.894593 199.489564 
L 120.898485 199.489564 
L 121.003935 199.379629 
L 121.114767 199.288363 
L 121.115015 199.288363 
L 121.200965 199.178429 
L 121.309975 199.031158 
L 121.312004 199.031158 
L 121.455129 198.921224 
L 121.566003 198.815438 
L 121.56621 198.815438 
L 121.690621 198.705504 
L 121.803482 198.618386 
L 121.910215 198.508452 
L 122.026512 198.37985 
L 122.147115 198.269915 
L 122.253683 198.168278 
L 122.258154 198.168278 
L 122.370725 198.058344 
L 122.483379 197.971226 
L 122.585185 197.861292 
L 122.694527 197.736838 
L 122.696183 197.736838 
L 122.79356 197.626903 
L 122.907497 197.483781 
L 123.021517 197.373847 
L 123.137959 197.241096 
L 123.2715 197.131162 
L 123.381752 197.000485 
L 123.382497 197.000485 
L 123.510304 196.890551 
L 123.62598 196.776468 
L 123.752545 196.666534 
L 123.862445 196.537932 
L 123.863584 196.537932 
L 123.989734 196.427998 
L 124.100484 196.328434 
L 124.100773 196.328434 
L 124.203987 196.2185 
L 124.314985 196.116863 
L 124.315068 196.116863 
L 124.431986 196.006929 
L 124.431986 196.005891 
L 124.547496 195.89492 
L 124.683915 195.784986 
L 124.7969 195.687497 
L 124.925783 195.577563 
L 125.038478 195.488371 
L 125.142065 195.378436 
L 125.256747 195.28717 
L 125.348741 195.177236 
L 125.458663 195.063153 
L 125.45978 195.063153 
L 125.557737 194.953219 
L 125.666747 194.812171 
L 125.668817 194.812171 
L 125.81041 194.702237 
L 125.927122 194.563263 
L 126.070371 194.453329 
L 126.188324 194.34132 
L 126.305739 194.231386 
L 126.418434 194.150491 
L 126.551954 194.040557 
L 126.669452 193.934771 
L 126.790179 193.824837 
L 126.903454 193.716977 
L 127.038526 193.607042 
L 127.156086 193.480514 
L 127.294657 193.37058 
L 127.408553 193.229532 
L 127.527831 193.121672 
L 127.527831 193.119598 
L 127.64417 192.982699 
L 127.762247 192.872764 
L 127.873327 192.768016 
L 127.997035 192.646673 
L 128.0923 192.536739 
L 128.201725 192.426805 
L 128.203339 192.426805 
L 128.319429 192.31687 
L 128.432746 192.206936 
L 128.542046 192.097002 
L 128.65118 192.016107 
L 128.653126 192.016107 
L 128.779691 191.906172 
L 128.894994 191.802461 
L 129.000775 191.692527 
L 129.107923 191.563924 
L 129.111814 191.563924 
L 129.231175 191.45399 
L 129.343995 191.364798 
L 129.464804 191.253827 
L 129.570171 191.149078 
L 129.575843 191.149078 
L 129.707583 191.039144 
L 129.822887 190.935432 
L 129.95177 190.825498 
L 130.06608 190.746677 
L 130.196205 190.636743 
L 130.307244 190.526808 
L 130.307285 190.526808 
L 130.447678 190.416874 
L 130.565072 190.315237 
L 130.667148 190.205302 
L 130.777649 190.120259 
L 130.778228 190.120259 
L 130.894939 190.010325 
L 131.011154 189.883797 
L 131.134572 189.773862 
L 131.245652 189.668076 
L 131.396934 189.560216 
L 131.509091 189.444059 
L 131.636028 189.334125 
L 131.749303 189.222117 
L 131.895823 189.112182 
L 132.006489 188.991877 
L 132.006903 188.991877 
L 132.114672 188.881943 
L 132.227781 188.78238 
L 132.367428 188.672445 
L 132.484885 188.568734 
L 132.611739 188.458799 
L 132.724434 188.377904 
L 132.834976 188.26797 
L 132.94792 188.172555 
L 133.103052 188.062621 
L 133.218645 187.948538 
L 133.366738 187.838604 
L 133.482373 187.726596 
L 133.626699 187.616661 
L 133.739808 187.517098 
L 133.900653 187.406127 
L 134.009084 187.313823 
L 134.011734 187.313823 
L 134.152375 187.203889 
L 134.262876 187.108475 
L 134.263248 187.108475 
L 134.384017 186.99854 
L 134.494269 186.896903 
L 134.495056 186.896903 
L 134.599512 186.786969 
L 134.709392 186.668737 
L 134.710592 186.668737 
L 134.845686 186.558803 
L 134.96041 186.465463 
L 135.109331 186.355528 
L 135.220329 186.229 
L 135.220412 186.229 
L 135.332279 186.119066 
L 135.442158 186.007057 
L 135.443359 186.007057 
L 135.614223 185.897123 
L 135.727208 185.803783 
L 135.884286 185.693849 
L 135.994828 185.615028 
L 135.995366 185.615028 
L 136.133979 185.505093 
L 136.249365 185.397233 
L 136.38272 185.287299 
L 136.495787 185.187736 
L 136.630094 185.077802 
L 136.747344 184.957496 
L 136.884673 184.847562 
L 137.001466 184.754222 
L 137.119544 184.646362 
L 137.231452 184.561318 
L 137.385715 184.451384 
L 137.487107 184.333153 
L 137.496795 184.333153 
L 137.628079 184.223218 
L 137.743466 184.117432 
L 137.891642 184.007498 
L 138.009802 183.922455 
L 138.160959 183.81252 
L 138.269514 183.723328 
L 138.27204 183.723328 
L 138.397694 183.613394 
L 138.510803 183.507608 
L 138.635256 183.397674 
L 138.748572 183.28774 
L 138.853608 183.177805 
L 138.9668 183.074094 
L 139.105578 182.96416 
L 139.219515 182.891561 
L 139.368809 182.781627 
L 139.48138 182.698658 
L 139.619579 182.588724 
L 139.729997 182.489161 
L 139.730659 182.489161 
L 139.923218 182.379226 
L 140.039929 182.28796 
L 140.212905 182.178026 
L 140.312393 182.095057 
L 140.323944 182.095057 
L 140.461024 181.985122 
L 140.573802 181.902153 
L 140.682937 181.792219 
L 140.795839 181.703027 
L 140.912302 181.593092 
L 141.026694 181.510123 
L 141.162823 181.400189 
L 141.27823 181.294403 
L 141.463108 181.184469 
L 141.578122 181.082831 
L 141.709179 180.972897 
L 141.826739 180.846369 
L 141.952268 180.736435 
L 142.066951 180.647243 
L 142.197324 180.537309 
L 142.307949 180.443968 
L 142.308363 180.443968 
L 142.473473 180.334034 
L 142.586872 180.27803 
L 142.721965 180.168095 
L 142.837434 180.060235 
L 142.990413 179.950301 
L 143.102073 179.879777 
L 143.278568 179.769843 
L 143.395817 179.684799 
L 143.531366 179.574865 
L 143.644475 179.475302 
L 143.817286 179.365368 
L 143.931844 179.280324 
L 144.07708 179.169353 
L 144.18667 179.093643 
L 144.187954 179.093643 
L 144.343168 178.983709 
L 144.451061 178.88622 
L 144.454208 178.88622 
L 144.569304 178.786657 
L 144.720337 178.676723 
L 144.832949 178.595828 
L 145.019505 178.485893 
L 145.127315 178.398776 
L 145.130585 178.398776 
L 145.28493 178.288841 
L 145.397915 178.195501 
L 145.583974 178.085567 
L 145.699567 177.973558 
L 145.848116 177.863624 
L 145.972859 177.755764 
L 146.109898 177.64583 
L 146.223215 177.535895 
L 146.375614 177.428035 
L 146.490048 177.316027 
L 146.589329 177.205055 
L 146.709311 177.098232 
L 146.834468 176.988298 
L 146.9453 176.905329 
L 146.945548 176.905329 
L 147.141833 176.795395 
L 147.256019 176.718648 
L 147.459342 176.608714 
L 147.571954 176.531967 
L 147.782026 176.422033 
L 147.894845 176.334915 
L 148.066248 176.224981 
L 148.180599 176.142012 
L 148.332501 176.032077 
L 148.447142 175.94496 
L 148.593869 175.835025 
L 148.707186 175.762427 
L 148.905334 175.652493 
L 149.001965 175.575746 
L 149.016393 175.575746 
L 149.2151 175.465812 
L 149.329244 175.389065 
L 149.460984 175.279131 
L 149.566186 175.194088 
L 149.572065 175.194088 
L 149.737154 175.084153 
L 149.85136 174.980442 
L 150.039116 174.870508 
L 150.14647 174.787538 
L 150.150155 174.787538 
L 150.326112 174.677604 
L 150.4386 174.609154 
L 150.599321 174.49922 
L 150.711561 174.443216 
L 150.90532 174.333281 
L 151.01963 174.252386 
L 151.190867 174.142452 
L 151.30439 174.080225 
L 151.451738 173.970291 
L 151.56551 173.901841 
L 151.72652 173.791907 
L 151.840333 173.725532 
L 152.01509 173.615597 
L 152.127453 173.55337 
L 152.292315 173.443436 
L 152.410516 173.358393 
L 152.596989 173.248458 
L 152.712168 173.182083 
L 152.843949 173.072149 
L 152.956603 172.995402 
L 153.10834 172.885468 
L 153.222939 172.79835 
L 153.391775 172.688416 
L 153.501324 172.640708 
L 153.502856 172.640708 
L 153.651694 172.530774 
L 153.765631 172.458176 
L 153.942747 172.348242 
L 154.055277 172.275644 
L 154.214135 172.165709 
L 154.324594 172.109705 
L 154.325215 172.109705 
L 154.532968 171.999771 
L 154.646574 171.937544 
L 154.812512 171.82761 
L 154.92678 171.748789 
L 155.092594 171.638855 
L 155.216219 171.555885 
L 155.391844 171.448025 
L 155.502428 171.375427 
L 155.502801 171.375427 
L 155.700141 171.265493 
L 155.812029 171.186672 
L 155.997011 171.076738 
L 156.111445 171.020733 
L 156.285291 170.910799 
L 156.39811 170.825756 
L 156.574978 170.715821 
L 156.679061 170.657743 
L 156.686017 170.657743 
L 156.89141 170.547809 
L 157.005306 170.479359 
L 157.179234 170.369425 
L 157.295448 170.309272 
L 157.48337 170.199338 
L 157.595982 170.124665 
L 157.766308 170.014731 
L 157.872627 169.944207 
L 157.877347 169.944207 
L 158.123355 169.834273 
L 158.237293 169.761675 
L 158.430307 169.651741 
L 158.550661 169.562549 
L 158.724796 169.452614 
L 158.835173 169.380016 
L 158.835794 169.380016 
L 159.016222 169.270082 
L 159.128296 169.214078 
L 159.324333 169.104143 
L 159.438808 169.021174 
L 159.650743 168.91124 
L 159.767785 168.813751 
L 159.925691 168.703817 
L 160.039173 168.645738 
L 160.257442 168.535804 
L 160.371544 168.459057 
L 160.565138 168.349123 
L 160.675432 168.291045 
L 160.676219 168.291045 
L 160.836236 168.18111 
L 160.948724 168.106438 
L 161.133416 167.996504 
L 161.248347 167.934277 
L 161.478457 167.824342 
L 161.590904 167.755893 
L 161.795055 167.645959 
L 161.907792 167.589954 
L 162.101593 167.48002 
L 162.214205 167.403273 
L 162.413388 167.293339 
L 162.529519 167.212444 
L 162.760292 167.10251 
L 162.870586 167.031986 
L 162.871289 167.031986 
L 163.038966 166.922052 
L 163.151827 166.83286 
L 163.355357 166.722925 
L 163.462421 166.664847 
L 163.466355 166.664847 
L 163.682347 166.554913 
L 163.79794 166.482315 
L 164.010785 166.37238 
L 164.121038 166.303931 
L 164.121866 166.303931 
L 164.307221 166.196071 
L 164.42062 166.119324 
L 164.617898 166.00939 
L 164.731877 165.938866 
L 164.992334 165.828932 
L 165.107348 165.766705 
L 165.336961 165.65677 
L 165.456901 165.573801 
L 165.678462 165.463867 
L 165.791882 165.420308 
L 166.028782 165.310374 
L 166.143754 165.248147 
L 166.31615 165.138212 
L 166.429425 165.082208 
L 166.647818 164.972274 
L 166.760389 164.899676 
L 166.997827 164.791816 
L 167.10988 164.729589 
L 167.374416 164.619654 
L 167.486407 164.567799 
L 167.691635 164.457864 
L 167.803999 164.420528 
L 168.124281 164.310594 
L 168.237763 164.252515 
L 168.50559 164.142581 
L 168.621142 164.069983 
L 168.842806 163.960049 
L 168.95753 163.918564 
L 169.229083 163.80863 
L 169.339542 163.748477 
L 169.339998 163.748477 
L 169.588904 163.638543 
L 169.702262 163.582539 
L 169.952182 163.472604 
L 170.070943 163.408303 
L 170.325148 163.298369 
L 170.43834 163.246513 
L 170.662033 163.136579 
L 170.777295 163.088871 
L 171.031501 162.978937 
L 171.145397 162.935378 
L 171.425975 162.825444 
L 171.539747 162.781885 
L 171.812086 162.671951 
L 171.924906 162.626318 
L 172.135681 162.516384 
L 172.251523 162.460379 
L 172.545702 162.350445 
L 172.662682 162.302738 
L 172.944585 162.192803 
L 173.057529 162.14717 
L 173.286977 162.037236 
L 173.399092 161.983306 
L 173.609329 161.873372 
L 173.722935 161.833961 
L 173.986705 161.724027 
L 174.102919 161.678394 
L 174.337128 161.56846 
L 174.450879 161.526975 
L 174.732223 161.417041 
L 174.844421 161.388001 
L 175.124586 161.278067 
L 175.23902 161.193024 
L 175.543032 161.083089 
L 175.657714 161.041605 
L 175.863729 160.93167 
L 175.978494 160.873592 
L 176.275799 160.763658 
L 176.388162 160.73047 
L 176.712916 160.620536 
L 176.825073 160.566606 
L 177.089505 160.456671 
L 177.207086 160.396519 
L 177.501223 160.286584 
L 177.614436 160.247174 
L 177.879282 160.13724 
L 177.993178 160.091607 
L 178.256657 159.981672 
L 178.369435 159.956782 
L 178.643141 159.846847 
L 178.755008 159.809511 
L 179.008138 159.699577 
L 179.122737 159.660166 
L 179.403274 159.550232 
L 179.518164 159.485931 
L 179.810583 159.375997 
L 179.930565 159.328289 
L 180.254698 159.218355 
L 180.37174 159.164425 
L 180.642838 159.054491 
L 180.755595 159.013006 
L 181.048822 158.903072 
L 181.163504 158.871958 
L 181.467765 158.762024 
L 181.582116 158.708094 
L 181.883105 158.59816 
L 181.998657 158.558749 
L 182.287682 158.448815 
L 182.400832 158.407331 
L 182.728691 158.297396 
L 182.844699 158.239318 
L 183.160634 158.129383 
L 183.272418 158.085825 
L 183.619488 157.97589 
L 183.73504 157.934406 
L 184.044682 157.824471 
L 184.157874 157.772616 
L 184.479357 157.664756 
L 184.592839 157.625345 
L 184.907491 157.515411 
L 185.013189 157.478075 
L 185.018406 157.478075 
L 185.380297 157.370215 
L 185.380297 157.369178 
L 185.491875 157.318359 
L 185.798329 157.208425 
L 185.912598 157.156569 
L 186.23259 157.046635 
L 186.345865 157.013447 
L 186.623711 156.903513 
L 186.740878 156.866176 
L 187.093578 156.756242 
L 187.207432 156.723054 
L 187.550361 156.61312 
L 187.666079 156.567487 
L 188.090114 156.457553 
L 188.20401 156.424365 
L 188.613596 156.314431 
L 188.72716 156.25013 
L 189.04678 156.140195 
L 189.158689 156.094562 
L 189.475163 155.984628 
L 189.588396 155.95144 
L 189.862309 155.841506 
L 189.976702 155.78965 
L 190.416262 155.679716 
L 190.529081 155.634083 
L 190.862902 155.524148 
L 190.978993 155.472293 
L 191.326745 155.362358 
L 191.443146 155.327096 
L 191.773613 155.217162 
L 191.885936 155.186049 
L 192.298958 155.076114 
L 192.408714 155.042927 
L 192.409956 155.042927 
L 192.80414 154.932992 
L 192.920106 154.887359 
L 193.249911 154.777425 
L 193.367533 154.715198 
L 193.734392 154.605264 
L 193.848992 154.561705 
L 194.280562 154.451771 
L 194.393009 154.416509 
L 194.771212 154.306574 
L 194.886723 154.273387 
L 195.25234 154.163452 
L 195.367105 154.119894 
L 195.688506 154.009959 
L 195.806956 153.964326 
L 196.206812 153.854392 
L 196.332673 153.798388 
L 196.688313 153.687416 
L 196.808212 153.640746 
L 197.235518 153.530812 
L 197.351856 153.493476 
L 197.749725 153.383541 
L 197.863248 153.356576 
L 198.242901 153.246642 
L 198.361268 153.215529 
L 198.695172 153.105594 
L 198.81031 153.070332 
L 199.198615 152.960398 
L 199.313712 152.937582 
L 199.72839 152.827647 
L 199.841085 152.784088 
L 200.194572 152.674154 
L 200.30706 152.638892 
L 200.721614 152.528958 
L 200.836752 152.481251 
L 201.236691 152.371316 
L 201.349221 152.33398 
L 201.788574 152.224046 
L 201.903257 152.153522 
L 202.30626 152.043588 
L 202.420073 152.000029 
L 202.884391 151.890095 
L 202.997583 151.854833 
L 203.460163 151.744898 
L 203.573935 151.703414 
L 203.961371 151.593479 
L 204.076923 151.562366 
L 204.497273 151.451395 
L 204.615309 151.427541 
L 204.944286 151.316569 
L 205.05694 151.278196 
L 205.509666 151.168262 
L 205.630807 151.133 
L 206.12597 151.023066 
L 206.240653 150.991952 
L 206.69342 150.882018 
L 206.808765 150.832236 
L 207.273125 150.722302 
L 207.39526 150.670446 
L 207.767088 150.559475 
L 207.885662 150.521102 
L 208.34199 150.413242 
L 208.45452 150.37798 
L 208.811318 150.268045 
L 208.928609 150.222412 
L 209.364775 150.112478 
L 209.463021 150.083439 
L 209.475855 150.083439 
L 209.841059 149.973504 
L 209.956983 149.938243 
L 210.39849 149.828308 
L 210.515118 149.801343 
L 210.962586 149.691409 
L 211.079504 149.656147 
L 211.475593 149.546213 
L 211.588496 149.529619 
L 212.033066 149.419685 
L 212.146341 149.396868 
L 212.537047 149.286934 
L 212.652019 149.259969 
L 213.04521 149.150034 
L 213.166931 149.123069 
L 213.499634 149.013135 
L 213.615683 148.977873 
L 214.034046 148.867939 
L 214.145747 148.828529 
L 214.517575 148.718594 
L 214.633003 148.687481 
L 215.191841 148.577547 
L 215.306151 148.54021 
L 215.698224 148.430276 
L 215.810836 148.390866 
L 216.276232 148.280931 
L 216.388389 148.249818 
L 216.880778 148.139884 
L 216.99695 148.110844 
L 217.41788 148.00091 
L 217.532356 147.971871 
L 217.872842 147.861937 
L 217.989346 147.830823 
L 218.479997 147.720889 
L 218.591533 147.693924 
L 218.993252 147.58399 
L 219.102387 147.546653 
L 219.10425 147.546653 
L 219.507418 147.435682 
L 219.626034 147.397309 
L 220.096729 147.287374 
L 220.213688 147.264558 
L 220.588497 147.154624 
L 220.699991 147.131807 
L 221.113759 147.021873 
L 221.22517 146.996982 
L 221.588262 146.887048 
L 221.703648 146.862157 
L 222.118658 146.752223 
L 222.233589 146.719035 
L 222.646942 146.609101 
L 222.760879 146.586284 
L 223.14372 146.47635 
L 223.257243 146.449385 
L 223.732699 146.339451 
L 223.844649 146.308337 
L 224.188116 146.198403 
L 224.301101 146.167289 
L 224.751592 146.057355 
L 224.863293 146.022093 
L 225.210197 145.912159 
L 225.322478 145.878971 
L 225.695962 145.769037 
L 225.808699 145.729626 
L 226.225033 145.619692 
L 226.339798 145.586504 
L 226.76168 145.47657 
L 226.882697 145.430937 
L 227.302633 145.319966 
L 227.423485 145.281592 
L 227.813156 145.171658 
L 227.926059 145.144693 
L 228.418489 145.034759 
L 228.530149 145.007794 
L 228.965197 144.897859 
L 229.081121 144.862598 
L 229.404633 144.752663 
L 229.518115 144.713253 
L 229.804159 144.603319 
L 229.920414 144.572205 
L 230.280401 144.462271 
L 230.397733 144.416638 
L 230.80231 144.306703 
L 230.916371 144.288035 
L 231.308982 144.177064 
L 231.421843 144.155285 
L 231.846333 144.04535 
L 231.958946 144.008014 
L 232.332802 143.89808 
L 232.448106 143.869041 
L 232.831484 143.759106 
L 232.944635 143.727993 
L 233.344822 143.618059 
L 233.457766 143.59939 
L 233.855428 143.489456 
L 233.9692 143.458343 
L 234.337798 143.348408 
L 234.452522 143.306924 
L 234.776614 143.196989 
L 234.892207 143.145134 
L 235.333962 143.035199 
L 235.447443 143.00616 
L 235.796169 142.895189 
L 235.91052 142.85889 
L 236.343498 142.748955 
L 236.456235 142.709545 
L 236.769603 142.598574 
L 236.881387 142.578868 
L 237.290435 142.468934 
L 237.404579 142.433672 
L 237.886825 142.323738 
L 237.998485 142.296773 
L 238.496836 142.186839 
L 238.608413 142.149502 
L 239.059442 142.039568 
L 239.17309 142.008455 
L 239.697606 141.89852 
L 239.813696 141.852887 
L 240.224648 141.742953 
L 240.337426 141.718062 
L 240.779098 141.608128 
L 240.890614 141.57494 
L 241.327545 141.465006 
L 241.442476 141.435967 
L 241.872432 141.326032 
L 241.985955 141.288696 
L 242.43539 141.177725 
L 242.560195 141.126906 
L 242.93285 141.016972 
L 243.044511 140.990007 
L 243.396424 140.880073 
L 243.508705 140.851033 
L 243.963419 140.740062 
L 244.075783 140.709986 
L 244.430429 140.600051 
L 244.541965 140.571012 
L 245.042427 140.461078 
L 245.161519 140.411296 
L 245.513743 140.301362 
L 245.626065 140.272323 
L 245.98187 140.162389 
L 246.093696 140.122978 
L 246.572754 140.013044 
L 246.687478 139.954965 
L 247.069614 139.845031 
L 247.181688 139.786953 
L 247.55215 139.677018 
L 247.664928 139.635534 
L 248.074803 139.525599 
L 248.190562 139.471669 
L 248.499128 139.361735 
L 248.612279 139.328547 
L 248.950323 139.218613 
L 249.062273 139.175054 
L 249.381479 139.064083 
L 249.501999 139.013264 
L 249.920776 138.90333 
L 250.033347 138.865994 
L 250.368989 138.755022 
L 250.490917 138.731169 
L 250.841589 138.621234 
L 250.955691 138.588047 
L 251.24778 138.478112 
L 251.360371 138.44285 
L 251.703114 138.332916 
L 251.816762 138.293506 
L 252.150665 138.183571 
L 252.267087 138.135864 
L 252.698119 138.02593 
L 252.794833 137.990668 
L 252.809158 137.990668 
L 253.206489 137.879697 
L 253.322454 137.845472 
L 253.593469 137.735537 
L 253.704964 137.691979 
L 254.047645 137.582044 
L 254.159263 137.550931 
L 254.491925 137.440997 
L 254.606856 137.397438 
L 254.947612 137.287503 
L 255.06248 137.258464 
L 255.444576 137.14853 
L 255.55636 137.115342 
L 255.946715 137.005408 
L 256.059017 136.965997 
L 256.470921 136.856063 
L 256.583865 136.827024 
L 256.951345 136.71709 
L 257.065034 136.68805 
L 257.363249 136.578116 
L 257.473253 136.544928 
L 257.47433 136.544928 
L 257.842514 136.434994 
L 257.9514 136.399732 
L 257.953512 136.399732 
L 258.311636 136.289798 
L 258.425697 136.242091 
L 258.778997 136.132156 
L 258.892251 136.088597 
L 259.29128 135.978663 
L 259.403023 135.945475 
L 259.730716 135.835541 
L 259.846227 135.796131 
L 260.214535 135.686197 
L 260.32781 135.653009 
L 260.676494 135.543075 
L 260.79097 135.503664 
L 261.261167 135.39373 
L 261.373697 135.358468 
L 261.726149 135.248534 
L 261.838554 135.215346 
L 262.123397 135.105412 
L 262.237955 135.066001 
L 262.605601 134.956067 
L 262.711299 134.90836 
L 262.716599 134.90836 
L 263.080726 134.798425 
L 263.190647 134.765238 
L 263.191682 134.765238 
L 263.525317 134.655303 
L 263.637991 134.622116 
L 263.978354 134.512181 
L 264.091711 134.476919 
L 264.414312 134.366985 
L 264.526966 134.329649 
L 264.889851 134.218678 
L 265.007059 134.145042 
L 265.349988 134.035108 
L 265.461648 134.008143 
L 265.76773 133.898209 
L 265.880839 133.877466 
L 266.319158 133.766495 
L 266.434896 133.734344 
L 266.839783 133.62441 
L 266.952023 133.597445 
L 267.323022 133.487511 
L 267.434889 133.448101 
L 267.816777 133.338166 
L 267.929762 133.292533 
L 268.311154 133.182599 
L 268.424222 133.134892 
L 268.73937 133.024957 
L 268.851859 132.99177 
L 269.26604 132.881835 
L 269.376913 132.829979 
L 269.377079 132.829979 
L 269.757477 132.720045 
L 269.874105 132.670264 
L 270.186025 132.560329 
L 270.29814 132.510548 
L 270.412988 132.47736 
L 270.759064 132.366389 
L 270.867412 132.332164 
L 270.870145 132.332164 
L 270.984703 132.292753 
L 271.323782 132.182819 
L 271.436601 132.141335 
L 271.761024 132.0314 
L 271.874547 131.994064 
L 272.209651 131.88413 
L 272.322554 131.840571 
L 272.609881 131.730637 
L 272.711315 131.6933 
L 272.720982 131.6933 
L 273.164124 131.583366 
L 273.276156 131.537733 
L 273.61006 131.427799 
L 273.722465 131.396685 
L 274.044735 131.286751 
L 274.159335 131.263935 
L 274.533336 131.154 
L 274.646673 131.110441 
L 274.97416 131.000507 
L 275.08582 130.973542 
L 275.434835 130.862571 
L 275.547779 130.817975 
L 275.908883 130.70804 
L 276.020875 130.664482 
L 276.347781 130.554547 
L 276.459649 130.513063 
L 276.773721 130.403128 
L 276.888072 130.351273 
L 277.290868 130.241338 
L 277.402446 130.208151 
L 277.693167 130.098216 
L 277.805614 130.077474 
L 278.183797 129.96754 
L 278.301729 129.921907 
L 278.656334 129.811972 
L 278.769526 129.778785 
L 279.107446 129.66885 
L 279.217201 129.631514 
L 279.218526 129.631514 
L 279.55657 129.52158 
L 279.66823 129.492541 
L 280.100214 129.382606 
L 280.213903 129.341122 
L 280.516093 129.231187 
L 280.627671 129.204222 
L 280.97445 129.094288 
L 281.087477 129.046581 
L 281.47837 128.936647 
L 281.594977 128.891013 
L 281.953763 128.781079 
L 282.066541 128.73752 
L 282.400901 128.626549 
L 282.512768 128.604769 
L 282.938148 128.494835 
L 283.054673 128.451276 
L 283.390067 128.341342 
L 283.503735 128.279115 
L 283.840309 128.169181 
L 283.953046 128.127696 
L 284.274633 128.017762 
L 284.389336 127.970055 
L 284.753214 127.86012 
L 284.864709 127.841452 
L 285.168638 127.731518 
L 285.280629 127.700404 
L 285.651795 127.59047 
L 285.765069 127.557282 
L 286.098766 127.446311 
L 286.212248 127.420383 
L 286.515307 127.310449 
L 286.627423 127.260667 
L 286.967992 127.150733 
L 287.077417 127.123768 
L 287.079073 127.123768 
L 287.37439 127.013834 
L 287.4875 126.961978 
L 287.789814 126.852044 
L 287.90077 126.812633 
L 287.900894 126.812633 
L 288.190147 126.702699 
L 288.30249 126.65914 
L 288.57781 126.549206 
L 288.686282 126.509795 
L 288.688891 126.509795 
L 289.12427 126.399861 
L 289.237338 126.35008 
L 289.618977 126.240145 
L 289.734405 126.190364 
L 290.107433 126.08043 
L 290.222199 126.038945 
L 290.589472 125.929011 
L 290.70138 125.887526 
L 291.091508 125.777592 
L 291.192983 125.744404 
L 291.202298 125.744404 
L 291.528087 125.63447 
L 291.642604 125.601282 
L 291.986155 125.491348 
L 292.08113 125.445715 
L 292.097194 125.445715 
L 292.512452 125.33578 
L 292.625975 125.298444 
L 293.049016 125.18851 
L 293.162498 125.151174 
L 293.50137 125.041239 
L 293.600237 125.001829 
L 293.612285 125.001829 
L 293.97637 124.891895 
L 294.087037 124.842113 
L 294.087409 124.842113 
L 294.410673 124.732179 
L 294.523492 124.690694 
L 294.818437 124.58076 
L 294.930263 124.543424 
L 295.292444 124.43349 
L 295.404642 124.406525 
L 295.868857 124.29659 
L 295.98178 124.261328 
L 296.254575 124.151394 
L 296.355926 124.109909 
L 296.365656 124.109909 
L 296.703244 123.999975 
L 296.814842 123.968862 
L 297.12049 123.858927 
L 297.232274 123.821591 
L 297.628466 123.711657 
L 297.741762 123.670172 
L 298.052149 123.560238 
L 298.16381 123.52705 
L 298.494857 123.416079 
L 298.609373 123.375631 
L 298.877904 123.26466 
L 298.992959 123.21799 
L 299.34628 123.108055 
L 299.458106 123.072794 
L 299.834529 122.962859 
L 299.943664 122.906855 
L 299.94563 122.906855 
L 300.304272 122.796921 
L 300.415849 122.769956 
L 300.750746 122.658984 
L 300.859053 122.622685 
L 300.861703 122.622685 
L 301.16323 122.512751 
L 301.265575 122.465044 
L 301.274269 122.465044 
L 301.563708 122.355109 
L 301.674292 122.321922 
L 301.674788 122.321922 
L 301.964061 122.211987 
L 301.964061 122.21095 
L 302.077502 122.172577 
L 302.381389 122.062643 
L 302.483734 122.033603 
L 302.49247 122.033603 
L 302.830389 121.923669 
L 302.942464 121.873888 
L 303.229252 121.763953 
L 303.34203 121.73284 
L 303.718992 121.621868 
L 303.80639 121.595941 
L 303.830072 121.595941 
L 304.119345 121.486006 
L 304.231212 121.446596 
L 304.593331 121.336662 
L 304.704805 121.291029 
L 305.063508 121.181094 
L 305.172353 121.145832 
L 305.174547 121.145832 
L 305.445272 121.035898 
L 305.554697 120.998562 
L 305.556311 120.998562 
L 305.867154 120.888628 
L 305.867154 120.88759 
L 305.984859 120.838846 
L 306.407031 120.728912 
L 306.510659 120.685353 
L 306.517987 120.685353 
L 306.822579 120.575419 
L 306.927946 120.540157 
L 306.933577 120.540157 
L 307.275926 120.430222 
L 307.387835 120.390812 
L 307.733993 120.280878 
L 307.847061 120.23317 
L 308.233669 120.123236 
L 308.339657 120.087974 
L 308.344708 120.087974 
L 308.646526 119.97804 
L 308.758683 119.926184 
L 309.07054 119.81625 
L 309.182097 119.766468 
L 309.531609 119.656534 
L 309.621326 119.608827 
L 309.642524 119.608827 
L 310.030953 119.498892 
L 310.140419 119.455333 
L 310.142034 119.455333 
L 310.483473 119.345399 
L 310.596623 119.295618 
L 310.976483 119.185683 
L 311.089551 119.137976 
L 311.459184 119.027005 
L 311.57132 119.003151 
L 311.956541 118.893217 
L 312.056816 118.868326 
L 312.067498 118.868326 
L 312.377554 118.758392 
L 312.489752 118.729352 
L 312.758738 118.619418 
L 312.872013 118.565488 
L 313.212251 118.455554 
L 313.314969 118.411995 
L 313.32329 118.411995 
L 313.576958 118.302061 
L 313.690481 118.241908 
L 314.064503 118.131974 
L 314.177198 118.092563 
L 314.517602 117.981592 
L 314.62595 117.936996 
L 314.6286 117.936996 
L 314.928016 117.827062 
L 315.038889 117.771057 
L 315.343398 117.661123 
L 315.456176 117.619638 
L 315.805523 117.508667 
L 315.91296 117.46822 
L 315.916562 117.46822 
L 316.273029 117.358285 
L 316.379328 117.323023 
L 316.384027 117.323023 
L 316.747202 117.213089 
L 316.849381 117.173679 
L 316.858303 117.173679 
L 317.204606 117.063744 
L 317.316681 117.016037 
L 317.627813 116.906103 
L 317.738521 116.868767 
L 317.738894 116.868767 
L 318.036944 116.758832 
L 318.153158 116.69868 
L 318.404176 116.588745 
L 318.404176 116.587708 
L 318.517078 116.543112 
L 318.802004 116.433178 
L 318.913954 116.385471 
L 319.201115 116.274499 
L 319.305033 116.219532 
L 319.312196 116.219532 
L 319.645851 116.109598 
L 319.756435 116.057742 
L 319.756931 116.057742 
L 320.071791 115.947808 
L 320.18374 115.902175 
L 320.514539 115.79224 
L 320.626572 115.744533 
L 320.931888 115.633562 
L 321.051994 115.57652 
L 321.359897 115.466586 
L 321.471288 115.424064 
L 321.590442 115.393988 
L 321.866094 115.284054 
L 321.975684 115.244643 
L 321.977174 115.244643 
L 322.250094 115.134709 
L 322.362851 115.078705 
L 322.724721 114.96877 
L 322.833028 114.92936 
L 322.835388 114.92936 
L 323.162916 114.819426 
L 323.271636 114.777941 
L 323.273913 114.777941 
L 323.589973 114.668007 
L 323.695175 114.632745 
L 323.701033 114.632745 
L 323.985648 114.52281 
L 324.085302 114.481326 
L 324.096687 114.481326 
L 324.426616 114.371392 
L 324.538359 114.340278 
L 324.865846 114.230344 
L 324.962933 114.193008 
L 324.976926 114.193008 
L 325.283339 114.083073 
L 325.395455 114.033292 
L 325.752916 113.923358 
L 325.865777 113.879799 
L 326.139235 113.769864 
L 326.25311 113.726306 
L 326.52075 113.616371 
L 326.631375 113.568664 
L 326.631582 113.568664 
L 326.954266 113.45873 
L 327.06692 113.402725 
L 327.451665 113.292791 
L 327.563946 113.234713 
L 327.853467 113.123741 
L 327.961981 113.085368 
L 327.964341 113.085368 
L 328.256263 112.975434 
L 328.256263 112.974397 
L 328.374216 112.923578 
L 328.66469 112.813644 
L 328.77134 112.780456 
L 328.775688 112.780456 
L 329.091747 112.670522 
L 329.205063 112.616592 
L 329.537891 112.506657 
L 329.644872 112.469321 
L 329.648888 112.469321 
L 329.927645 112.359387 
L 330.015003 112.322051 
L 330.038726 112.322051 
L 330.308043 112.212116 
L 330.413576 112.158186 
L 330.419144 112.158186 
L 330.716387 112.048252 
L 330.819725 112.01299 
L 330.827467 112.01299 
L 331.199626 111.903056 
L 331.313481 111.859497 
L 331.737019 111.749563 
L 331.848927 111.710152 
L 332.133687 111.599181 
L 332.248204 111.560808 
L 332.499595 111.450873 
L 332.611586 111.407314 
L 332.904502 111.29738 
L 333.010035 111.25797 
L 333.0155 111.25797 
L 333.294008 111.148036 
L 333.406124 111.098254 
L 333.765697 110.98832 
L 333.877812 110.938538 
L 334.166423 110.828604 
L 334.270506 110.801639 
L 334.277462 110.801639 
L 334.565658 110.691705 
L 334.672557 110.654368 
L 334.676739 110.654368 
L 334.952308 110.544434 
L 335.059703 110.505024 
L 335.063305 110.505024 
L 335.420994 110.395089 
L 335.533048 110.363976 
L 335.818222 110.254042 
L 335.930047 110.214631 
L 336.198164 110.104697 
L 336.310031 110.065287 
L 336.66948 109.955352 
L 336.781388 109.913868 
L 337.073021 109.803933 
L 337.184019 109.770746 
L 337.184101 109.770746 
L 337.483207 109.660811 
L 337.595302 109.61103 
L 337.831747 109.501096 
L 337.943696 109.457537 
L 338.261909 109.347602 
L 338.372327 109.299895 
L 338.372989 109.299895 
L 338.627858 109.189961 
L 338.735378 109.140179 
L 338.738938 109.140179 
L 338.962217 109.030245 
L 339.066921 108.986686 
L 339.073297 108.986686 
L 339.469717 108.876752 
L 339.579349 108.837341 
L 339.580819 108.837341 
L 339.88009 108.727407 
L 339.992247 108.702516 
L 340.331988 108.592582 
L 340.444766 108.549023 
L 340.733542 108.439089 
L 340.845409 108.401753 
L 341.170433 108.291818 
L 341.282031 108.231666 
L 341.640817 108.121731 
L 341.75376 108.076098 
L 341.986996 107.966164 
L 342.098387 107.937125 
L 342.302331 107.827191 
L 342.407864 107.779483 
L 342.413412 107.779483 
L 342.767437 107.669549 
L 342.877855 107.632213 
L 342.878393 107.632213 
L 343.15419 107.522279 
L 343.266616 107.476645 
L 343.548229 107.366711 
L 343.651443 107.312781 
L 343.65931 107.312781 
L 343.904821 107.20181 
L 344.008449 107.150991 
L 344.01586 107.150991 
L 344.245805 107.041057 
L 344.358893 106.991275 
L 344.644129 106.881341 
L 344.755831 106.850227 
L 344.986727 106.739256 
L 345.099257 106.700883 
L 345.3788 106.589911 
L 345.488183 106.54739 
L 345.489902 106.54739 
L 345.798323 106.437455 
L 345.893339 106.393896 
L 345.909196 106.393896 
L 346.239125 106.283962 
L 346.348757 106.232106 
L 346.350185 106.232106 
L 346.60851 106.122172 
L 346.715451 106.072391 
L 346.719611 106.072391 
L 347.005055 105.962456 
L 347.109594 105.906452 
L 347.115928 105.906452 
L 347.411577 105.796518 
L 347.522989 105.752959 
L 347.820625 105.643025 
L 347.933941 105.589095 
L 348.194398 105.47916 
L 348.305437 105.437676 
L 348.608994 105.327741 
L 348.716472 105.284183 
L 348.720033 105.284183 
L 348.968525 105.173211 
L 349.077204 105.114096 
L 349.079274 105.114096 
L 349.39463 105.004161 
L 349.495733 104.95438 
L 349.505669 104.95438 
L 349.769853 104.844445 
L 349.88085 104.798812 
L 350.165403 104.688878 
L 350.273876 104.641171 
L 350.276443 104.641171 
L 350.527833 104.531236 
L 350.631751 104.4939 
L 350.638624 104.4939 
L 350.882231 104.383966 
L 350.993766 104.340407 
L 351.237373 104.230473 
L 351.341623 104.186914 
L 351.348454 104.186914 
L 351.580386 104.07698 
L 351.684718 104.039643 
L 351.691383 104.039643 
L 351.958134 103.929709 
L 352.067765 103.871631 
L 352.069214 103.871631 
L 352.337579 103.761696 
L 352.440214 103.705692 
L 352.448618 103.705692 
L 352.635174 103.595758 
L 352.745343 103.529382 
L 352.746171 103.529382 
L 353.011556 103.419448 
L 353.119738 103.377964 
L 353.122595 103.377964 
L 353.424329 103.268029 
L 353.533133 103.222396 
L 353.53541 103.222396 
L 353.833294 103.112462 
L 353.942884 103.070977 
L 353.944333 103.070977 
L 354.22545 102.961043 
L 354.318397 102.913336 
L 354.336551 102.913336 
L 354.556083 102.803401 
L 354.665383 102.743249 
L 354.667122 102.743249 
L 354.990179 102.633314 
L 355.091074 102.595978 
L 355.101259 102.595978 
L 355.39637 102.486044 
L 355.508299 102.444559 
L 355.746834 102.333588 
L 355.856838 102.295215 
L 355.857873 102.295215 
L 356.09912 102.18528 
L 356.21194 102.143796 
L 356.470493 102.033861 
L 356.582981 101.965412 
L 356.814995 101.85444 
L 356.927007 101.809844 
L 357.182972 101.69991 
L 357.279935 101.648054 
L 357.293929 101.648054 
L 357.631724 101.53812 
L 357.738913 101.475893 
L 357.742681 101.475893 
L 357.918513 101.365959 
L 358.031125 101.328623 
L 358.302347 101.218688 
L 358.399475 101.170981 
L 358.413448 101.170981 
L 358.63149 101.061047 
L 358.73901 100.988449 
L 358.742487 100.988449 
L 358.954008 100.878514 
L 359.062605 100.847401 
L 359.065047 100.847401 
L 359.32981 100.737467 
L 359.442009 100.681462 
L 359.770447 100.571528 
L 359.884136 100.530043 
L 360.17432 100.420109 
L 360.285318 100.362031 
L 360.2854 100.362031 
L 360.552441 100.252096 
L 360.657269 100.200241 
L 360.6635 100.200241 
L 360.877422 100.090306 
L 360.988938 100.042599 
L 361.215321 99.932665 
L 361.320026 99.880809 
L 361.326319 99.880809 
L 361.656621 99.770875 
L 361.754287 99.735613 
L 361.76766 99.735613 
L 362.034742 99.625678 
L 362.140192 99.571748 
L 362.145822 99.571748 
L 362.356598 99.461814 
L 362.461012 99.414107 
L 362.467595 99.414107 
L 362.752438 99.304173 
L 362.864512 99.250243 
L 363.120415 99.140308 
L 363.2269 99.08223 
L 363.231455 99.08223 
L 363.540559 98.972295 
L 363.648824 98.912143 
L 363.651598 98.912143 
L 363.855335 98.802208 
L 363.959833 98.739982 
L 363.966333 98.739982 
L 364.226666 98.630047 
L 364.33017 98.58234 
L 364.337746 98.58234 
L 364.550509 98.472406 
L 364.662169 98.414327 
L 364.883999 98.304393 
L 364.994665 98.256686 
L 364.9951 98.256686 
L 365.206393 98.146751 
L 365.31826 98.107341 
L 365.527131 97.997407 
L 365.640282 97.945551 
L 365.851099 97.835616 
L 365.961641 97.75887 
L 365.962096 97.75887 
L 366.240812 97.648936 
L 366.347876 97.592931 
L 366.351892 97.592931 
L 366.538945 97.482997 
L 366.64928 97.43529 
L 366.649984 97.43529 
L 366.897813 97.325355 
L 367.010095 97.267277 
L 367.245959 97.157343 
L 367.357992 97.109635 
L 367.583631 96.999701 
L 367.692972 96.929177 
L 367.694691 96.929177 
L 367.961006 96.819243 
L 368.072791 96.775684 
L 368.329273 96.66575 
L 368.437331 96.620117 
L 368.440354 96.620117 
L 368.702136 96.510182 
L 368.702136 96.509145 
L 368.815597 96.452104 
L 369.087088 96.34217 
L 369.197796 96.27372 
L 369.198127 96.27372 
L 369.372428 96.163786 
L 369.465623 96.114004 
L 369.483508 96.114004 
L 369.705503 96.00407 
L 369.81439 95.945991 
L 369.816584 95.945991 
L 370.067353 95.836057 
L 370.1668 95.798721 
L 370.178434 95.798721 
L 370.363044 95.688787 
L 370.471971 95.620337 
L 370.474145 95.620337 
L 370.723569 95.510403 
L 370.83378 95.444027 
L 370.834566 95.444027 
L 371.088151 95.334093 
L 371.200266 95.280163 
L 371.442383 95.169192 
L 371.549737 95.103853 
L 371.553463 95.103853 
L 371.743621 94.993919 
L 371.850603 94.944137 
L 371.85466 94.944137 
L 372.079305 94.834203 
L 372.192725 94.778199 
L 372.411842 94.668265 
L 372.522509 94.601889 
L 372.522799 94.601889 
L 372.740882 94.491955 
L 372.85248 94.440099 
L 373.057666 94.330165 
L 373.166221 94.278309 
L 373.168705 94.278309 
L 373.39277 94.168375 
L 373.39277 94.167338 
L 373.508488 94.093703 
L 373.667263 93.982731 
L 373.776108 93.92569 
L 373.778219 93.92569 
L 374.030313 93.814718 
L 374.12798 93.743157 
L 374.141373 93.743157 
L 374.338341 93.633223 
L 374.444453 93.562699 
L 374.44938 93.562699 
L 374.624012 93.452765 
L 374.732981 93.378093 
L 374.735092 93.378093 
L 375.015091 93.268158 
L 375.118388 93.218377 
L 375.12613 93.218377 
L 375.340052 93.108442 
L 375.445771 93.052438 
L 375.450967 93.052438 
L 375.652386 92.942504 
L 375.760693 92.869906 
L 375.763384 92.869906 
L 375.991382 92.759972 
L 376.103705 92.699819 
L 376.332159 92.589885 
L 376.444895 92.506915 
L 376.652069 92.396981 
L 376.760375 92.314012 
L 376.763025 92.314012 
L 376.958606 92.204077 
L 377.068859 92.135628 
L 377.069562 92.135628 
L 377.236038 92.025693 
L 377.346994 91.942724 
L 377.525559 91.83279 
L 377.637716 91.776786 
L 377.826549 91.666851 
L 377.934152 91.612921 
L 377.937505 91.612921 
L 378.11607 91.502987 
L 378.223259 91.446983 
L 378.227151 91.446983 
L 378.393461 91.337049 
L 378.499656 91.27897 
L 378.504459 91.27897 
L 378.685218 91.169036 
L 378.798886 91.106809 
L 379.080148 90.996875 
L 379.192305 90.945019 
L 379.424153 90.834047 
L 379.534323 90.760412 
L 379.535255 90.760412 
L 379.747127 90.650478 
L 379.857173 90.584102 
L 379.857835 90.584102 
L 380.079665 90.474168 
L 380.189959 90.411941 
L 380.190704 90.411941 
L 380.364052 90.302007 
L 380.474263 90.216963 
L 380.474843 90.216963 
L 380.637965 90.107029 
L 380.737909 90.048951 
L 380.748963 90.048951 
L 380.924216 89.939016 
L 381.033185 89.853973 
L 381.035213 89.853973 
L 381.237295 89.744039 
L 381.346388 89.669366 
L 381.348334 89.669366 
L 381.545033 89.559432 
L 381.655658 89.505502 
L 381.655989 89.505502 
L 381.828261 89.395568 
L 381.932676 89.349935 
L 381.939341 89.349935 
L 382.116085 89.24 
L 382.216566 89.177773 
L 382.227124 89.177773 
L 382.403908 89.067839 
L 382.516479 88.982796 
L 382.736135 88.872861 
L 382.847982 88.798189 
L 383.023814 88.687218 
L 383.134232 88.603211 
L 383.134853 88.603211 
L 383.3306 88.493277 
L 383.440066 88.420679 
L 383.441681 88.420679 
L 383.632625 88.310745 
L 383.741511 88.238146 
L 383.743581 88.238146 
L 383.912955 88.128212 
L 384.018984 88.047317 
L 384.024035 88.047317 
L 384.168982 87.937383 
L 384.281926 87.846117 
L 384.485663 87.736182 
L 384.598151 87.667733 
L 384.774398 87.557798 
L 384.883491 87.4852 
L 384.885478 87.4852 
L 385.054935 87.375266 
L 385.165146 87.298519 
L 385.165808 87.298519 
L 385.358905 87.187548 
L 385.477314 87.099393 
L 385.701835 86.989459 
L 385.812294 86.914787 
L 385.812874 86.914787 
L 385.959829 86.804852 
L 386.071841 86.709438 
L 386.23782 86.599503 
L 386.346002 86.522757 
L 386.3489 86.522757 
L 386.52585 86.412823 
L 386.633743 86.325705 
L 386.636931 86.325705 
L 386.822037 86.215771 
L 386.931048 86.134875 
L 386.933118 86.134875 
L 387.106632 86.024941 
L 387.217733 85.959603 
L 387.379344 85.848632 
L 387.491191 85.771885 
L 387.623572 85.661951 
L 387.727697 85.572759 
L 387.734363 85.572759 
L 387.884775 85.462824 
L 387.994655 85.379855 
L 387.9954 85.379855 
L 388.186178 85.269921 
L 388.296555 85.162061 
L 388.297259 85.162061 
L 388.485843 85.052127 
L 388.485843 85.051089 
L 388.601726 84.994048 
L 388.760543 84.884114 
L 388.760543 84.883077 
L 388.876715 84.801144 
L 389.064927 84.69121 
L 389.169714 84.612389 
L 389.175987 84.612389 
L 389.345174 84.502455 
L 389.45286 84.419486 
L 389.455799 84.419486 
L 389.635192 84.309552 
L 389.743416 84.234879 
L 389.745983 84.234879 
L 389.922147 84.124945 
L 390.032482 84.02953 
L 390.033186 84.02953 
L 390.191547 83.919596 
L 390.302379 83.857369 
L 390.302627 83.857369 
L 390.493075 83.747435 
L 390.603037 83.668614 
L 390.604155 83.668614 
L 390.758894 83.55868 
L 390.870657 83.49023 
L 391.073856 83.380296 
L 391.185723 83.301475 
L 391.31796 83.191541 
L 391.430779 83.102349 
L 391.583344 82.992414 
L 391.696081 82.909445 
L 391.822977 82.799511 
L 391.933436 82.710319 
L 391.933684 82.710319 
L 392.100947 82.600385 
L 392.208922 82.511193 
L 392.211986 82.511193 
L 392.361239 82.400221 
L 392.466481 82.301695 
L 392.471946 82.301695 
L 392.611635 82.191761 
L 392.716464 82.104643 
L 392.722633 82.104643 
L 392.854124 81.994709 
L 392.959616 81.899294 
L 392.965205 81.899294 
L 393.115782 81.78936 
L 393.22264 81.685648 
L 393.226822 81.685648 
L 393.37181 81.575714 
L 393.484712 81.476151 
L 393.601547 81.366217 
L 393.711386 81.264579 
L 393.712628 81.264579 
L 393.860017 81.154645 
L 393.96613 81.071676 
L 393.971056 81.071676 
L 394.08814 80.961742 
L 394.19833 80.882921 
L 394.199014 80.882921 
L 394.344747 80.772987 
L 394.457235 80.69624 
L 394.56252 80.586306 
L 394.675629 80.484668 
L 394.805174 80.374734 
L 394.91079 80.302136 
L 394.916255 80.302136 
L 395.065466 80.192202 
L 395.176546 80.119604 
L 395.307168 80.009669 
L 395.411873 79.905958 
L 395.418249 79.905958 
L 395.571228 79.796023 
L 395.679824 79.69646 
L 395.682308 79.69646 
L 395.861039 79.586526 
L 395.97096 79.484889 
L 395.972119 79.484889 
L 396.118226 79.374954 
L 396.225124 79.287837 
L 396.229306 79.287837 
L 396.383817 79.177902 
L 396.487238 79.094933 
L 396.494856 79.094933 
L 396.629411 78.984999 
L 396.629411 78.983962 
L 396.744176 78.893733 
L 396.87161 78.783798 
L 396.981449 78.688384 
L 396.982649 78.688384 
L 397.086153 78.578449 
L 397.197068 78.474738 
L 397.197234 78.474738 
L 397.315394 78.364804 
L 397.421837 78.267315 
L 397.426309 78.267315 
L 397.561154 78.15738 
L 397.670309 78.068188 
L 397.672234 78.068188 
L 397.818382 77.958254 
L 397.926274 77.840023 
L 397.929338 77.840023 
L 398.048285 77.729052 
L 398.158868 77.653342 
L 398.159365 77.653342 
L 398.284729 77.545482 
L 398.395313 77.429325 
L 398.39581 77.429325 
L 398.520304 77.319391 
L 398.630805 77.219828 
L 398.631343 77.219828 
L 398.756707 77.109893 
L 398.867788 77.014479 
L 398.990957 76.904544 
L 399.10034 76.79461 
L 399.102038 76.79461 
L 399.260896 76.684676 
L 399.371769 76.591335 
L 399.371935 76.591335 
L 399.498996 76.481401 
L 399.607386 76.356947 
L 399.610077 76.356947 
L 399.738753 76.247013 
L 399.848177 76.166118 
L 399.849792 76.166118 
L 399.971471 76.056184 
L 400.082552 75.944175 
L 400.161091 75.834241 
L 400.266333 75.724307 
L 400.272171 75.724307 
L 400.383872 75.614372 
L 400.49429 75.518958 
L 400.494912 75.518958 
L 400.608352 75.409023 
L 400.716079 75.321906 
L 400.719432 75.321906 
L 400.847612 75.211971 
L 400.952151 75.139373 
L 400.958692 75.139373 
L 401.090639 75.029439 
L 401.20056 74.91743 
L 401.201719 74.91743 
L 401.314208 74.807496 
L 401.41709 74.703785 
L 401.425288 74.703785 
L 401.527674 74.59385 
L 401.635111 74.471471 
L 401.638755 74.471471 
L 401.73965 74.361536 
L 401.847419 74.259899 
L 401.850689 74.259899 
L 401.952827 74.149965 
L 402.060057 74.046253 
L 402.063907 74.046253 
L 402.200326 73.936319 
L 402.309088 73.813939 
L 402.311406 73.813939 
L 402.450226 73.704005 
L 402.450226 73.702968 
L 402.56644 73.573328 
L 402.648912 73.463394 
L 402.754196 73.367979 
L 402.759992 73.367979 
L 402.856996 73.258045 
L 402.967787 73.156408 
L 402.968097 73.156408 
L 403.071539 73.046473 
L 403.181253 72.915797 
L 403.182537 72.915797 
L 403.303719 72.805863 
L 403.413309 72.700077 
L 403.414821 72.700077 
L 403.531677 72.590142 
L 403.641225 72.453243 
L 403.642757 72.453243 
L 403.750111 72.343309 
L 403.860281 72.237523 
L 403.86115 72.237523 
L 403.996906 72.127589 
L 404.099209 72.019729 
L 404.107987 72.019729 
L 404.237284 71.909794 
L 404.347391 71.79986 
L 404.348364 71.79986 
L 404.478324 71.689926 
L 404.58692 71.565472 
L 404.589404 71.565472 
L 404.690507 71.455538 
L 404.801339 71.335232 
L 404.801587 71.335232 
L 404.901345 71.225298 
L 405.013564 71.11329 
L 405.106469 71.003355 
L 405.215934 70.903792 
L 405.217508 70.903792 
L 405.327512 70.793858 
L 405.438302 70.66733 
L 405.438509 70.66733 
L 405.542386 70.557395 
L 405.652349 70.426719 
L 405.653301 70.426719 
L 405.755687 70.316785 
L 405.866395 70.192331 
L 405.866643 70.192331 
L 405.960501 70.082396 
L 406.069966 69.95172 
L 406.071498 69.95172 
L 406.169289 69.841785 
L 406.280245 69.711109 
L 406.28039 69.711109 
L 406.383956 69.601175 
L 406.494167 69.493315 
L 406.494995 69.493315 
L 406.592454 69.38338 
L 406.695751 69.277594 
L 406.703514 69.277594 
L 406.82095 69.16766 
L 406.931285 69.045281 
L 406.931989 69.045281 
L 407.033174 68.935346 
L 407.142392 68.800521 
L 407.144213 68.800521 
L 407.228548 68.690587 
L 407.339463 68.514277 
L 407.339546 68.514277 
L 407.425993 68.404343 
L 407.536576 68.252924 
L 407.537094 68.252924 
L 407.621905 68.14299 
L 407.621905 68.141953 
L 407.745613 67.987422 
L 407.821626 67.877488 
L 407.919996 67.755108 
L 407.932707 67.755108 
L 408.020312 67.645174 
L 408.131186 67.495829 
L 408.131351 67.495829 
L 408.222808 67.385895 
L 408.332191 67.255219 
L 408.333888 67.255219 
L 408.396322 67.145284 
L 408.507154 67.008385 
L 408.507236 67.008385 
L 408.582256 66.898451 
L 408.692964 66.778145 
L 408.693337 66.778145 
L 408.750719 66.668211 
L 408.861551 66.514718 
L 408.86182 66.514718 
L 408.934045 66.404784 
L 409.04467 66.247142 
L 409.045147 66.247142 
L 409.102715 66.137208 
L 409.213299 65.933933 
L 409.213775 65.933933 
L 409.293535 65.823999 
L 409.404078 65.647689 
L 409.404637 65.647689 
L 409.47653 65.537755 
L 409.586286 65.342777 
L 409.587569 65.342777 
L 409.673271 65.232843 
L 409.780459 65.048236 
L 409.784351 65.048236 
L 409.85018 64.938302 
L 409.959025 64.755769 
L 409.961219 64.755769 
L 410.061825 64.645835 
L 410.171001 64.459154 
L 410.172739 64.459154 
L 410.236871 64.34922 
L 410.345426 64.123129 
L 410.347951 64.123129 
L 410.415146 64.013194 
L 410.526102 63.762212 
L 410.526226 63.762212 
L 410.594166 63.652278 
L 410.704543 63.465597 
L 410.705205 63.465597 
L 410.770744 63.355663 
L 410.880375 63.112978 
L 410.881824 63.112978 
L 410.943968 63.003044 
L 411.051405 62.820511 
L 411.055007 62.820511 
L 411.115412 62.710577 
L 411.22111 62.492783 
L 411.226513 62.492783 
L 411.280315 62.382848 
L 411.390567 62.127718 
L 411.391395 62.127718 
L 411.45031 62.017784 
L 411.560728 61.775098 
L 411.561349 61.775098 
L 411.62341 61.665164 
L 411.733372 61.410034 
L 411.734366 61.410034 
L 411.779742 61.300099 
L 411.89074 61.049117 
L 411.946715 60.939183 
L 412.057009 60.688201 
L 412.057795 60.688201 
L 412.109133 60.578267 
L 412.224354 60.372918 
L 412.274077 60.262984 
L 412.384412 59.918661 
L 412.385158 59.918661 
L 412.43248 59.808727 
L 412.542815 59.543225 
L 412.543477 59.543225 
L 412.58579 59.433291 
L 412.696663 59.118008 
L 412.69687 59.118008 
L 412.732351 59.008073 
L 412.84132 58.686567 
L 412.843432 58.686567 
L 412.886158 58.576633 
L 412.996907 58.290389 
L 412.997239 58.290389 
L 413.038723 58.180455 
L 413.149596 57.817464 
L 413.149679 57.817464 
L 413.188887 57.70753 
L 413.299926 57.350762 
L 413.299967 57.350762 
L 413.358095 57.242902 
L 413.358095 57.240828 
L 413.468927 56.865392 
L 413.469134 56.865392 
L 413.506437 56.755458 
L 413.616855 56.402838 
L 413.61731 56.402838 
L 413.657759 56.292904 
L 413.768674 55.971398 
L 413.768799 55.971398 
L 413.814175 55.861464 
L 413.924965 55.57522 
L 413.925007 55.57522 
L 413.982928 55.465286 
L 414.093967 55.201858 
L 414.147996 55.091924 
L 414.257461 54.849239 
L 414.258993 54.849239 
L 414.319771 54.739304 
L 414.429071 54.550549 
L 414.430851 54.550549 
L 414.498253 54.440615 
L 414.609127 54.282974 
L 414.609292 54.282974 
L 414.699589 54.173039 
L 414.719627 54.144 
L 414.72 54.144 
" clip-path="url(#p5c2015952c)" style="fill: none; stroke: #ff8c00; stroke-width: 1.5; stroke-linecap: square"/>
   </g>
   <g id="line2d_14">
    <path d="M 74.605714 307.584 
L 414.72 54.144 
" clip-path="url(#p5c2015952c)" style="fill: none; stroke-dasharray: 5.55,2.4; stroke-dashoffset: 0; stroke: #0000ff; stroke-width: 1.5"/>
   </g>
   <g id="patch_3">
    <path d="M 57.6 307.584 
L 57.6 41.472 
" style="fill: none; stroke: #000000; stroke-width: 0.8; stroke-linejoin: miter; stroke-linecap: square"/>
   </g>
   <g id="patch_4">
    <path d="M 414.72 307.584 
L 414.72 41.472 
" style="fill: none; stroke: #000000; stroke-width: 0.8; stroke-linejoin: miter; stroke-linecap: square"/>
   </g>
   <g id="patch_5">
    <path d="M 57.6 307.584 
L 414.72 307.584 
" style="fill: none; stroke: #000000; stroke-width: 0.8; stroke-linejoin: miter; stroke-linecap: square"/>
   </g>
   <g id="patch_6">
    <path d="M 57.6 41.472 
L 414.72 41.472 
" style="fill: none; stroke: #000000; stroke-width: 0.8; stroke-linejoin: miter; stroke-linecap: square"/>
   </g>
   <g id="text_15">
    <!-- ROC CURVE -->
    <g transform="translate(200.855625 35.472)scale(0.12 -0.12)">
     <defs>
      <path id="DejaVuSans-4f" d="M 2522 4238 
Q 1834 4238 1429 3725 
Q 1025 3213 1025 2328 
Q 1025 1447 1429 934 
Q 1834 422 2522 422 
Q 3209 422 3611 934 
Q 4013 1447 4013 2328 
Q 4013 3213 3611 3725 
Q 3209 4238 2522 4238 
z
M 2522 4750 
Q 3503 4750 4090 4092 
Q 4678 3434 4678 2328 
Q 4678 1225 4090 567 
Q 3503 -91 2522 -91 
Q 1538 -91 948 565 
Q 359 1222 359 2328 
Q 359 3434 948 4092 
Q 1538 4750 2522 4750 
z
" transform="scale(0.015625)"/>
      <path id="DejaVuSans-43" d="M 4122 4306 
L 4122 3641 
Q 3803 3938 3442 4084 
Q 3081 4231 2675 4231 
Q 1875 4231 1450 3742 
Q 1025 3253 1025 2328 
Q 1025 1406 1450 917 
Q 1875 428 2675 428 
Q 3081 428 3442 575 
Q 3803 722 4122 1019 
L 4122 359 
Q 3791 134 3420 21 
Q 3050 -91 2638 -91 
Q 1578 -91 968 557 
Q 359 1206 359 2328 
Q 359 3453 968 4101 
Q 1578 4750 2638 4750 
Q 3056 4750 3426 4639 
Q 3797 4528 4122 4306 
z
" transform="scale(0.015625)"/>
      <path id="DejaVuSans-55" d="M 556 4666 
L 1191 4666 
L 1191 1831 
Q 1191 1081 1462 751 
Q 1734 422 2344 422 
Q 2950 422 3222 751 
Q 3494 1081 3494 1831 
L 3494 4666 
L 4128 4666 
L 4128 1753 
Q 4128 841 3676 375 
Q 3225 -91 2344 -91 
Q 1459 -91 1007 375 
Q 556 841 556 1753 
L 556 4666 
z
" transform="scale(0.015625)"/>
      <path id="DejaVuSans-56" d="M 1831 0 
L 50 4666 
L 709 4666 
L 2188 738 
L 3669 4666 
L 4325 4666 
L 2547 0 
L 1831 0 
z
" transform="scale(0.015625)"/>
      <path id="DejaVuSans-45" d="M 628 4666 
L 3578 4666 
L 3578 4134 
L 1259 4134 
L 1259 2753 
L 3481 2753 
L 3481 2222 
L 1259 2222 
L 1259 531 
L 3634 531 
L 3634 0 
L 628 0 
L 628 4666 
z
" transform="scale(0.015625)"/>
     </defs>
     <use xlink:href="#DejaVuSans-52"/>
     <use xlink:href="#DejaVuSans-4f" x="69.482422"/>
     <use xlink:href="#DejaVuSans-43" x="148.193359"/>
     <use xlink:href="#DejaVuSans-20" x="218.017578"/>
     <use xlink:href="#DejaVuSans-43" x="249.804688"/>
     <use xlink:href="#DejaVuSans-55" x="319.628906"/>
     <use xlink:href="#DejaVuSans-52" x="392.822266"/>
     <use xlink:href="#DejaVuSans-56" x="456.804688"/>
     <use xlink:href="#DejaVuSans-45" x="525.212891"/>
    </g>
   </g>
   <g id="legend_1">
    <g id="patch_7">
     <path d="M 234.97 302.584 
L 407.72 302.584 
Q 409.72 302.584 409.72 300.584 
L 409.72 286.905875 
Q 409.72 284.905875 407.72 284.905875 
L 234.97 284.905875 
Q 232.97 284.905875 232.97 286.905875 
L 232.97 300.584 
Q 232.97 302.584 234.97 302.584 
z
" style="fill: #ffffff; opacity: 0.8; stroke: #cccccc; stroke-linejoin: miter"/>
    </g>
    <g id="line2d_15">
     <path d="M 236.97 293.004312 
L 246.97 293.004312 
L 256.97 293.004312 
" style="fill: none; stroke: #ff8c00; stroke-width: 1.5; stroke-linecap: square"/>
    </g>
    <g id="text_16">
     <!-- ROC curve (ROC AUC=0.64) -->
     <g transform="translate(264.97 296.504312)scale(0.1 -0.1)">
      <defs>
       <path id="DejaVuSans-63" d="M 3122 3366 
L 3122 2828 
Q 2878 2963 2633 3030 
Q 2388 3097 2138 3097 
Q 1578 3097 1268 2742 
Q 959 2388 959 1747 
Q 959 1106 1268 751 
Q 1578 397 2138 397 
Q 2388 397 2633 464 
Q 2878 531 3122 666 
L 3122 134 
Q 2881 22 2623 -34 
Q 2366 -91 2075 -91 
Q 1284 -91 818 406 
Q 353 903 353 1747 
Q 353 2603 823 3093 
Q 1294 3584 2113 3584 
Q 2378 3584 2631 3529 
Q 2884 3475 3122 3366 
z
" transform="scale(0.015625)"/>
       <path id="DejaVuSans-28" d="M 1984 4856 
Q 1566 4138 1362 3434 
Q 1159 2731 1159 2009 
Q 1159 1288 1364 580 
Q 1569 -128 1984 -844 
L 1484 -844 
Q 1016 -109 783 600 
Q 550 1309 550 2009 
Q 550 2706 781 3412 
Q 1013 4119 1484 4856 
L 1984 4856 
z
" transform="scale(0.015625)"/>
       <path id="DejaVuSans-41" d="M 2188 4044 
L 1331 1722 
L 3047 1722 
L 2188 4044 
z
M 1831 4666 
L 2547 4666 
L 4325 0 
L 3669 0 
L 3244 1197 
L 1141 1197 
L 716 0 
L 50 0 
L 1831 4666 
z
" transform="scale(0.015625)"/>
       <path id="DejaVuSans-3d" d="M 678 2906 
L 4684 2906 
L 4684 2381 
L 678 2381 
L 678 2906 
z
M 678 1631 
L 4684 1631 
L 4684 1100 
L 678 1100 
L 678 1631 
z
" transform="scale(0.015625)"/>
       <path id="DejaVuSans-29" d="M 513 4856 
L 1013 4856 
Q 1481 4119 1714 3412 
Q 1947 2706 1947 2009 
Q 1947 1309 1714 600 
Q 1481 -109 1013 -844 
L 513 -844 
Q 928 -128 1133 580 
Q 1338 1288 1338 2009 
Q 1338 2731 1133 3434 
Q 928 4138 513 4856 
z
" transform="scale(0.015625)"/>
      </defs>
      <use xlink:href="#DejaVuSans-52"/>
      <use xlink:href="#DejaVuSans-4f" x="69.482422"/>
      <use xlink:href="#DejaVuSans-43" x="148.193359"/>
      <use xlink:href="#DejaVuSans-20" x="218.017578"/>
      <use xlink:href="#DejaVuSans-63" x="249.804688"/>
      <use xlink:href="#DejaVuSans-75" x="304.785156"/>
      <use xlink:href="#DejaVuSans-72" x="368.164062"/>
      <use xlink:href="#DejaVuSans-76" x="409.277344"/>
      <use xlink:href="#DejaVuSans-65" x="468.457031"/>
      <use xlink:href="#DejaVuSans-20" x="529.980469"/>
      <use xlink:href="#DejaVuSans-28" x="561.767578"/>
      <use xlink:href="#DejaVuSans-52" x="600.78125"/>
      <use xlink:href="#DejaVuSans-4f" x="670.263672"/>
      <use xlink:href="#DejaVuSans-43" x="748.974609"/>
      <use xlink:href="#DejaVuSans-20" x="818.798828"/>
      <use xlink:href="#DejaVuSans-41" x="850.585938"/>
      <use xlink:href="#DejaVuSans-55" x="918.994141"/>
      <use xlink:href="#DejaVuSans-43" x="992.1875"/>
      <use xlink:href="#DejaVuSans-3d" x="1062.011719"/>
      <use xlink:href="#DejaVuSans-30" x="1145.800781"/>
      <use xlink:href="#DejaVuSans-2e" x="1209.423828"/>
      <use xlink:href="#DejaVuSans-36" x="1241.210938"/>
      <use xlink:href="#DejaVuSans-34" x="1304.833984"/>
      <use xlink:href="#DejaVuSans-29" x="1368.457031"/>
     </g>
    </g>
   </g>
  </g>
 </g>
 <defs>
  <clipPath id="p5c2015952c">
   <rect x="57.6" y="41.472" width="357.12" height="266.112"/>
  </clipPath>
 </defs>
</svg>
