<?xml version="1.0" encoding="utf-8" standalone="no"?>
<!DOCTYPE svg PUBLIC "-//W3C//DTD SVG 1.1//EN"
  "http://www.w3.org/Graphics/SVG/1.1/DTD/svg11.dtd">
<svg xmlns:xlink="http://www.w3.org/1999/xlink" width="460.8pt" height="345.6pt" viewBox="0 0 460.8 345.6" xmlns="http://www.w3.org/2000/svg" version="1.1">
 <metadata>
  <rdf:RDF xmlns:dc="http://purl.org/dc/elements/1.1/" xmlns:cc="http://creativecommons.org/ns#" xmlns:rdf="http://www.w3.org/1999/02/22-rdf-syntax-ns#">
   <cc:Work>
    <dc:type rdf:resource="http://purl.org/dc/dcmitype/StillImage"/>
    <dc:date>2022-05-26T18:33:36.606284</dc:date>
    <dc:format>image/svg+xml</dc:format>
    <dc:creator>
     <cc:Agent>
      <dc:title>Matplotlib v3.5.1, https://matplotlib.org/</dc:title>
     </cc:Agent>
    </dc:creator>
   </cc:Work>
  </rdf:RDF>
 </metadata>
 <defs>
  <style type="text/css">*{stroke-linejoin: round; stroke-linecap: butt}</style>
 </defs>
 <g id="figure_1">
  <g id="patch_1">
   <path d="M 0 345.6 
L 460.8 345.6 
L 460.8 0 
L 0 0 
z
" style="fill: #ffffff"/>
  </g>
  <g id="axes_1">
   <g id="patch_2">
    <path d="M 57.6 307.584 
L 414.72 307.584 
L 414.72 41.472 
L 57.6 41.472 
z
" style="fill: #ffffff"/>
   </g>
   <g id="matplotlib.axis_1">
    <g id="xtick_1">
     <g id="line2d_1">
      <defs>
       <path id="mca0434e956" d="M 0 0 
L 0 3.5 
" style="stroke: #000000; stroke-width: 0.8"/>
      </defs>
      <g>
       <use xlink:href="#mca0434e956" x="74.605714" y="307.584" style="stroke: #000000; stroke-width: 0.8"/>
      </g>
     </g>
     <g id="text_1">
      <!-- 0.0 -->
      <g transform="translate(66.654152 322.182437)scale(0.1 -0.1)">
       <defs>
        <path id="DejaVuSans-30" d="M 2034 4250 
Q 1547 4250 1301 3770 
Q 1056 3291 1056 2328 
Q 1056 1369 1301 889 
Q 1547 409 2034 409 
Q 2525 409 2770 889 
Q 3016 1369 3016 2328 
Q 3016 3291 2770 3770 
Q 2525 4250 2034 4250 
z
M 2034 4750 
Q 2819 4750 3233 4129 
Q 3647 3509 3647 2328 
Q 3647 1150 3233 529 
Q 2819 -91 2034 -91 
Q 1250 -91 836 529 
Q 422 1150 422 2328 
Q 422 3509 836 4129 
Q 1250 4750 2034 4750 
z
" transform="scale(0.015625)"/>
        <path id="DejaVuSans-2e" d="M 684 794 
L 1344 794 
L 1344 0 
L 684 0 
L 684 794 
z
" transform="scale(0.015625)"/>
       </defs>
       <use xlink:href="#DejaVuSans-30"/>
       <use xlink:href="#DejaVuSans-2e" x="63.623047"/>
       <use xlink:href="#DejaVuSans-30" x="95.410156"/>
      </g>
     </g>
    </g>
    <g id="xtick_2">
     <g id="line2d_2">
      <g>
       <use xlink:href="#mca0434e956" x="142.628571" y="307.584" style="stroke: #000000; stroke-width: 0.8"/>
      </g>
     </g>
     <g id="text_2">
      <!-- 0.2 -->
      <g transform="translate(134.677009 322.182437)scale(0.1 -0.1)">
       <defs>
        <path id="DejaVuSans-32" d="M 1228 531 
L 3431 531 
L 3431 0 
L 469 0 
L 469 531 
Q 828 903 1448 1529 
Q 2069 2156 2228 2338 
Q 2531 2678 2651 2914 
Q 2772 3150 2772 3378 
Q 2772 3750 2511 3984 
Q 2250 4219 1831 4219 
Q 1534 4219 1204 4116 
Q 875 4013 500 3803 
L 500 4441 
Q 881 4594 1212 4672 
Q 1544 4750 1819 4750 
Q 2544 4750 2975 4387 
Q 3406 4025 3406 3419 
Q 3406 3131 3298 2873 
Q 3191 2616 2906 2266 
Q 2828 2175 2409 1742 
Q 1991 1309 1228 531 
z
" transform="scale(0.015625)"/>
       </defs>
       <use xlink:href="#DejaVuSans-30"/>
       <use xlink:href="#DejaVuSans-2e" x="63.623047"/>
       <use xlink:href="#DejaVuSans-32" x="95.410156"/>
      </g>
     </g>
    </g>
    <g id="xtick_3">
     <g id="line2d_3">
      <g>
       <use xlink:href="#mca0434e956" x="210.651429" y="307.584" style="stroke: #000000; stroke-width: 0.8"/>
      </g>
     </g>
     <g id="text_3">
      <!-- 0.4 -->
      <g transform="translate(202.699866 322.182437)scale(0.1 -0.1)">
       <defs>
        <path id="DejaVuSans-34" d="M 2419 4116 
L 825 1625 
L 2419 1625 
L 2419 4116 
z
M 2253 4666 
L 3047 4666 
L 3047 1625 
L 3713 1625 
L 3713 1100 
L 3047 1100 
L 3047 0 
L 2419 0 
L 2419 1100 
L 313 1100 
L 313 1709 
L 2253 4666 
z
" transform="scale(0.015625)"/>
       </defs>
       <use xlink:href="#DejaVuSans-30"/>
       <use xlink:href="#DejaVuSans-2e" x="63.623047"/>
       <use xlink:href="#DejaVuSans-34" x="95.410156"/>
      </g>
     </g>
    </g>
    <g id="xtick_4">
     <g id="line2d_4">
      <g>
       <use xlink:href="#mca0434e956" x="278.674286" y="307.584" style="stroke: #000000; stroke-width: 0.8"/>
      </g>
     </g>
     <g id="text_4">
      <!-- 0.6 -->
      <g transform="translate(270.722723 322.182437)scale(0.1 -0.1)">
       <defs>
        <path id="DejaVuSans-36" d="M 2113 2584 
Q 1688 2584 1439 2293 
Q 1191 2003 1191 1497 
Q 1191 994 1439 701 
Q 1688 409 2113 409 
Q 2538 409 2786 701 
Q 3034 994 3034 1497 
Q 3034 2003 2786 2293 
Q 2538 2584 2113 2584 
z
M 3366 4563 
L 3366 3988 
Q 3128 4100 2886 4159 
Q 2644 4219 2406 4219 
Q 1781 4219 1451 3797 
Q 1122 3375 1075 2522 
Q 1259 2794 1537 2939 
Q 1816 3084 2150 3084 
Q 2853 3084 3261 2657 
Q 3669 2231 3669 1497 
Q 3669 778 3244 343 
Q 2819 -91 2113 -91 
Q 1303 -91 875 529 
Q 447 1150 447 2328 
Q 447 3434 972 4092 
Q 1497 4750 2381 4750 
Q 2619 4750 2861 4703 
Q 3103 4656 3366 4563 
z
" transform="scale(0.015625)"/>
       </defs>
       <use xlink:href="#DejaVuSans-30"/>
       <use xlink:href="#DejaVuSans-2e" x="63.623047"/>
       <use xlink:href="#DejaVuSans-36" x="95.410156"/>
      </g>
     </g>
    </g>
    <g id="xtick_5">
     <g id="line2d_5">
      <g>
       <use xlink:href="#mca0434e956" x="346.697143" y="307.584" style="stroke: #000000; stroke-width: 0.8"/>
      </g>
     </g>
     <g id="text_5">
      <!-- 0.8 -->
      <g transform="translate(338.74558 322.182437)scale(0.1 -0.1)">
       <defs>
        <path id="DejaVuSans-38" d="M 2034 2216 
Q 1584 2216 1326 1975 
Q 1069 1734 1069 1313 
Q 1069 891 1326 650 
Q 1584 409 2034 409 
Q 2484 409 2743 651 
Q 3003 894 3003 1313 
Q 3003 1734 2745 1975 
Q 2488 2216 2034 2216 
z
M 1403 2484 
Q 997 2584 770 2862 
Q 544 3141 544 3541 
Q 544 4100 942 4425 
Q 1341 4750 2034 4750 
Q 2731 4750 3128 4425 
Q 3525 4100 3525 3541 
Q 3525 3141 3298 2862 
Q 3072 2584 2669 2484 
Q 3125 2378 3379 2068 
Q 3634 1759 3634 1313 
Q 3634 634 3220 271 
Q 2806 -91 2034 -91 
Q 1263 -91 848 271 
Q 434 634 434 1313 
Q 434 1759 690 2068 
Q 947 2378 1403 2484 
z
M 1172 3481 
Q 1172 3119 1398 2916 
Q 1625 2713 2034 2713 
Q 2441 2713 2670 2916 
Q 2900 3119 2900 3481 
Q 2900 3844 2670 4047 
Q 2441 4250 2034 4250 
Q 1625 4250 1398 4047 
Q 1172 3844 1172 3481 
z
" transform="scale(0.015625)"/>
       </defs>
       <use xlink:href="#DejaVuSans-30"/>
       <use xlink:href="#DejaVuSans-2e" x="63.623047"/>
       <use xlink:href="#DejaVuSans-38" x="95.410156"/>
      </g>
     </g>
    </g>
    <g id="xtick_6">
     <g id="line2d_6">
      <g>
       <use xlink:href="#mca0434e956" x="414.72" y="307.584" style="stroke: #000000; stroke-width: 0.8"/>
      </g>
     </g>
     <g id="text_6">
      <!-- 1.0 -->
      <g transform="translate(406.768438 322.182437)scale(0.1 -0.1)">
       <defs>
        <path id="DejaVuSans-31" d="M 794 531 
L 1825 531 
L 1825 4091 
L 703 3866 
L 703 4441 
L 1819 4666 
L 2450 4666 
L 2450 531 
L 3481 531 
L 3481 0 
L 794 0 
L 794 531 
z
" transform="scale(0.015625)"/>
       </defs>
       <use xlink:href="#DejaVuSans-31"/>
       <use xlink:href="#DejaVuSans-2e" x="63.623047"/>
       <use xlink:href="#DejaVuSans-30" x="95.410156"/>
      </g>
     </g>
    </g>
    <g id="text_7">
     <!-- False Positive Rate -->
     <g transform="translate(189.693594 335.860562)scale(0.1 -0.1)">
      <defs>
       <path id="DejaVuSans-46" d="M 628 4666 
L 3309 4666 
L 3309 4134 
L 1259 4134 
L 1259 2759 
L 3109 2759 
L 3109 2228 
L 1259 2228 
L 1259 0 
L 628 0 
L 628 4666 
z
" transform="scale(0.015625)"/>
       <path id="DejaVuSans-61" d="M 2194 1759 
Q 1497 1759 1228 1600 
Q 959 1441 959 1056 
Q 959 750 1161 570 
Q 1363 391 1709 391 
Q 2188 391 2477 730 
Q 2766 1069 2766 1631 
L 2766 1759 
L 2194 1759 
z
M 3341 1997 
L 3341 0 
L 2766 0 
L 2766 531 
Q 2569 213 2275 61 
Q 1981 -91 1556 -91 
Q 1019 -91 701 211 
Q 384 513 384 1019 
Q 384 1609 779 1909 
Q 1175 2209 1959 2209 
L 2766 2209 
L 2766 2266 
Q 2766 2663 2505 2880 
Q 2244 3097 1772 3097 
Q 1472 3097 1187 3025 
Q 903 2953 641 2809 
L 641 3341 
Q 956 3463 1253 3523 
Q 1550 3584 1831 3584 
Q 2591 3584 2966 3190 
Q 3341 2797 3341 1997 
z
" transform="scale(0.015625)"/>
       <path id="DejaVuSans-6c" d="M 603 4863 
L 1178 4863 
L 1178 0 
L 603 0 
L 603 4863 
z
" transform="scale(0.015625)"/>
       <path id="DejaVuSans-73" d="M 2834 3397 
L 2834 2853 
Q 2591 2978 2328 3040 
Q 2066 3103 1784 3103 
Q 1356 3103 1142 2972 
Q 928 2841 928 2578 
Q 928 2378 1081 2264 
Q 1234 2150 1697 2047 
L 1894 2003 
Q 2506 1872 2764 1633 
Q 3022 1394 3022 966 
Q 3022 478 2636 193 
Q 2250 -91 1575 -91 
Q 1294 -91 989 -36 
Q 684 19 347 128 
L 347 722 
Q 666 556 975 473 
Q 1284 391 1588 391 
Q 1994 391 2212 530 
Q 2431 669 2431 922 
Q 2431 1156 2273 1281 
Q 2116 1406 1581 1522 
L 1381 1569 
Q 847 1681 609 1914 
Q 372 2147 372 2553 
Q 372 3047 722 3315 
Q 1072 3584 1716 3584 
Q 2034 3584 2315 3537 
Q 2597 3491 2834 3397 
z
" transform="scale(0.015625)"/>
       <path id="DejaVuSans-65" d="M 3597 1894 
L 3597 1613 
L 953 1613 
Q 991 1019 1311 708 
Q 1631 397 2203 397 
Q 2534 397 2845 478 
Q 3156 559 3463 722 
L 3463 178 
Q 3153 47 2828 -22 
Q 2503 -91 2169 -91 
Q 1331 -91 842 396 
Q 353 884 353 1716 
Q 353 2575 817 3079 
Q 1281 3584 2069 3584 
Q 2775 3584 3186 3129 
Q 3597 2675 3597 1894 
z
M 3022 2063 
Q 3016 2534 2758 2815 
Q 2500 3097 2075 3097 
Q 1594 3097 1305 2825 
Q 1016 2553 972 2059 
L 3022 2063 
z
" transform="scale(0.015625)"/>
       <path id="DejaVuSans-20" transform="scale(0.015625)"/>
       <path id="DejaVuSans-50" d="M 1259 4147 
L 1259 2394 
L 2053 2394 
Q 2494 2394 2734 2622 
Q 2975 2850 2975 3272 
Q 2975 3691 2734 3919 
Q 2494 4147 2053 4147 
L 1259 4147 
z
M 628 4666 
L 2053 4666 
Q 2838 4666 3239 4311 
Q 3641 3956 3641 3272 
Q 3641 2581 3239 2228 
Q 2838 1875 2053 1875 
L 1259 1875 
L 1259 0 
L 628 0 
L 628 4666 
z
" transform="scale(0.015625)"/>
       <path id="DejaVuSans-6f" d="M 1959 3097 
Q 1497 3097 1228 2736 
Q 959 2375 959 1747 
Q 959 1119 1226 758 
Q 1494 397 1959 397 
Q 2419 397 2687 759 
Q 2956 1122 2956 1747 
Q 2956 2369 2687 2733 
Q 2419 3097 1959 3097 
z
M 1959 3584 
Q 2709 3584 3137 3096 
Q 3566 2609 3566 1747 
Q 3566 888 3137 398 
Q 2709 -91 1959 -91 
Q 1206 -91 779 398 
Q 353 888 353 1747 
Q 353 2609 779 3096 
Q 1206 3584 1959 3584 
z
" transform="scale(0.015625)"/>
       <path id="DejaVuSans-69" d="M 603 3500 
L 1178 3500 
L 1178 0 
L 603 0 
L 603 3500 
z
M 603 4863 
L 1178 4863 
L 1178 4134 
L 603 4134 
L 603 4863 
z
" transform="scale(0.015625)"/>
       <path id="DejaVuSans-74" d="M 1172 4494 
L 1172 3500 
L 2356 3500 
L 2356 3053 
L 1172 3053 
L 1172 1153 
Q 1172 725 1289 603 
Q 1406 481 1766 481 
L 2356 481 
L 2356 0 
L 1766 0 
Q 1100 0 847 248 
Q 594 497 594 1153 
L 594 3053 
L 172 3053 
L 172 3500 
L 594 3500 
L 594 4494 
L 1172 4494 
z
" transform="scale(0.015625)"/>
       <path id="DejaVuSans-76" d="M 191 3500 
L 800 3500 
L 1894 563 
L 2988 3500 
L 3597 3500 
L 2284 0 
L 1503 0 
L 191 3500 
z
" transform="scale(0.015625)"/>
       <path id="DejaVuSans-52" d="M 2841 2188 
Q 3044 2119 3236 1894 
Q 3428 1669 3622 1275 
L 4263 0 
L 3584 0 
L 2988 1197 
Q 2756 1666 2539 1819 
Q 2322 1972 1947 1972 
L 1259 1972 
L 1259 0 
L 628 0 
L 628 4666 
L 2053 4666 
Q 2853 4666 3247 4331 
Q 3641 3997 3641 3322 
Q 3641 2881 3436 2590 
Q 3231 2300 2841 2188 
z
M 1259 4147 
L 1259 2491 
L 2053 2491 
Q 2509 2491 2742 2702 
Q 2975 2913 2975 3322 
Q 2975 3731 2742 3939 
Q 2509 4147 2053 4147 
L 1259 4147 
z
" transform="scale(0.015625)"/>
      </defs>
      <use xlink:href="#DejaVuSans-46"/>
      <use xlink:href="#DejaVuSans-61" x="48.394531"/>
      <use xlink:href="#DejaVuSans-6c" x="109.673828"/>
      <use xlink:href="#DejaVuSans-73" x="137.457031"/>
      <use xlink:href="#DejaVuSans-65" x="189.556641"/>
      <use xlink:href="#DejaVuSans-20" x="251.080078"/>
      <use xlink:href="#DejaVuSans-50" x="282.867188"/>
      <use xlink:href="#DejaVuSans-6f" x="339.544922"/>
      <use xlink:href="#DejaVuSans-73" x="400.726562"/>
      <use xlink:href="#DejaVuSans-69" x="452.826172"/>
      <use xlink:href="#DejaVuSans-74" x="480.609375"/>
      <use xlink:href="#DejaVuSans-69" x="519.818359"/>
      <use xlink:href="#DejaVuSans-76" x="547.601562"/>
      <use xlink:href="#DejaVuSans-65" x="606.78125"/>
      <use xlink:href="#DejaVuSans-20" x="668.304688"/>
      <use xlink:href="#DejaVuSans-52" x="700.091797"/>
      <use xlink:href="#DejaVuSans-61" x="767.324219"/>
      <use xlink:href="#DejaVuSans-74" x="828.603516"/>
      <use xlink:href="#DejaVuSans-65" x="867.8125"/>
     </g>
    </g>
   </g>
   <g id="matplotlib.axis_2">
    <g id="ytick_1">
     <g id="line2d_7">
      <defs>
       <path id="m1c94e822df" d="M 0 0 
L -3.5 0 
" style="stroke: #000000; stroke-width: 0.8"/>
      </defs>
      <g>
       <use xlink:href="#m1c94e822df" x="57.6" y="307.584" style="stroke: #000000; stroke-width: 0.8"/>
      </g>
     </g>
     <g id="text_8">
      <!-- 0.0 -->
      <g transform="translate(34.696875 311.383219)scale(0.1 -0.1)">
       <use xlink:href="#DejaVuSans-30"/>
       <use xlink:href="#DejaVuSans-2e" x="63.623047"/>
       <use xlink:href="#DejaVuSans-30" x="95.410156"/>
      </g>
     </g>
    </g>
    <g id="ytick_2">
     <g id="line2d_8">
      <g>
       <use xlink:href="#m1c94e822df" x="57.6" y="256.896" style="stroke: #000000; stroke-width: 0.8"/>
      </g>
     </g>
     <g id="text_9">
      <!-- 0.2 -->
      <g transform="translate(34.696875 260.695219)scale(0.1 -0.1)">
       <use xlink:href="#DejaVuSans-30"/>
       <use xlink:href="#DejaVuSans-2e" x="63.623047"/>
       <use xlink:href="#DejaVuSans-32" x="95.410156"/>
      </g>
     </g>
    </g>
    <g id="ytick_3">
     <g id="line2d_9">
      <g>
       <use xlink:href="#m1c94e822df" x="57.6" y="206.208" style="stroke: #000000; stroke-width: 0.8"/>
      </g>
     </g>
     <g id="text_10">
      <!-- 0.4 -->
      <g transform="translate(34.696875 210.007219)scale(0.1 -0.1)">
       <use xlink:href="#DejaVuSans-30"/>
       <use xlink:href="#DejaVuSans-2e" x="63.623047"/>
       <use xlink:href="#DejaVuSans-34" x="95.410156"/>
      </g>
     </g>
    </g>
    <g id="ytick_4">
     <g id="line2d_10">
      <g>
       <use xlink:href="#m1c94e822df" x="57.6" y="155.52" style="stroke: #000000; stroke-width: 0.8"/>
      </g>
     </g>
     <g id="text_11">
      <!-- 0.6 -->
      <g transform="translate(34.696875 159.319219)scale(0.1 -0.1)">
       <use xlink:href="#DejaVuSans-30"/>
       <use xlink:href="#DejaVuSans-2e" x="63.623047"/>
       <use xlink:href="#DejaVuSans-36" x="95.410156"/>
      </g>
     </g>
    </g>
    <g id="ytick_5">
     <g id="line2d_11">
      <g>
       <use xlink:href="#m1c94e822df" x="57.6" y="104.832" style="stroke: #000000; stroke-width: 0.8"/>
      </g>
     </g>
     <g id="text_12">
      <!-- 0.8 -->
      <g transform="translate(34.696875 108.631219)scale(0.1 -0.1)">
       <use xlink:href="#DejaVuSans-30"/>
       <use xlink:href="#DejaVuSans-2e" x="63.623047"/>
       <use xlink:href="#DejaVuSans-38" x="95.410156"/>
      </g>
     </g>
    </g>
    <g id="ytick_6">
     <g id="line2d_12">
      <g>
       <use xlink:href="#m1c94e822df" x="57.6" y="54.144" style="stroke: #000000; stroke-width: 0.8"/>
      </g>
     </g>
     <g id="text_13">
      <!-- 1.0 -->
      <g transform="translate(34.696875 57.943219)scale(0.1 -0.1)">
       <use xlink:href="#DejaVuSans-31"/>
       <use xlink:href="#DejaVuSans-2e" x="63.623047"/>
       <use xlink:href="#DejaVuSans-30" x="95.410156"/>
      </g>
     </g>
    </g>
    <g id="text_14">
     <!-- True Positive Rate -->
     <g transform="translate(28.617187 219.057687)rotate(-90)scale(0.1 -0.1)">
      <defs>
       <path id="DejaVuSans-54" d="M -19 4666 
L 3928 4666 
L 3928 4134 
L 2272 4134 
L 2272 0 
L 1638 0 
L 1638 4134 
L -19 4134 
L -19 4666 
z
" transform="scale(0.015625)"/>
       <path id="DejaVuSans-72" d="M 2631 2963 
Q 2534 3019 2420 3045 
Q 2306 3072 2169 3072 
Q 1681 3072 1420 2755 
Q 1159 2438 1159 1844 
L 1159 0 
L 581 0 
L 581 3500 
L 1159 3500 
L 1159 2956 
Q 1341 3275 1631 3429 
Q 1922 3584 2338 3584 
Q 2397 3584 2469 3576 
Q 2541 3569 2628 3553 
L 2631 2963 
z
" transform="scale(0.015625)"/>
       <path id="DejaVuSans-75" d="M 544 1381 
L 544 3500 
L 1119 3500 
L 1119 1403 
Q 1119 906 1312 657 
Q 1506 409 1894 409 
Q 2359 409 2629 706 
Q 2900 1003 2900 1516 
L 2900 3500 
L 3475 3500 
L 3475 0 
L 2900 0 
L 2900 538 
Q 2691 219 2414 64 
Q 2138 -91 1772 -91 
Q 1169 -91 856 284 
Q 544 659 544 1381 
z
M 1991 3584 
L 1991 3584 
z
" transform="scale(0.015625)"/>
      </defs>
      <use xlink:href="#DejaVuSans-54"/>
      <use xlink:href="#DejaVuSans-72" x="46.333984"/>
      <use xlink:href="#DejaVuSans-75" x="87.447266"/>
      <use xlink:href="#DejaVuSans-65" x="150.826172"/>
      <use xlink:href="#DejaVuSans-20" x="212.349609"/>
      <use xlink:href="#DejaVuSans-50" x="244.136719"/>
      <use xlink:href="#DejaVuSans-6f" x="300.814453"/>
      <use xlink:href="#DejaVuSans-73" x="361.996094"/>
      <use xlink:href="#DejaVuSans-69" x="414.095703"/>
      <use xlink:href="#DejaVuSans-74" x="441.878906"/>
      <use xlink:href="#DejaVuSans-69" x="481.087891"/>
      <use xlink:href="#DejaVuSans-76" x="508.871094"/>
      <use xlink:href="#DejaVuSans-65" x="568.050781"/>
      <use xlink:href="#DejaVuSans-20" x="629.574219"/>
      <use xlink:href="#DejaVuSans-52" x="661.361328"/>
      <use xlink:href="#DejaVuSans-61" x="728.59375"/>
      <use xlink:href="#DejaVuSans-74" x="789.873047"/>
      <use xlink:href="#DejaVuSans-65" x="829.082031"/>
     </g>
    </g>
   </g>
   <g id="line2d_13">
    <path d="M 74.605714 307.584 
L 74.786681 300.577245 
L 74.789993 300.467311 
L 74.90099 297.658801 
L 74.906455 297.548867 
L 75.017536 295.250618 
L 75.024698 295.140684 
L 75.135737 293.155644 
L 75.142072 293.04571 
L 75.300723 290.664492 
L 75.305774 290.554558 
L 75.416854 289.108818 
L 75.426749 288.998884 
L 75.537457 287.553144 
L 75.53783 287.553144 
L 75.547145 287.44321 
L 75.658101 286.121925 
L 75.670894 286.01199 
L 75.781892 284.719744 
L 75.793526 284.60981 
L 75.904316 283.547803 
L 75.904523 283.547803 
L 75.914418 283.437869 
L 76.025168 282.359268 
L 76.036181 282.249334 
L 76.147137 281.274445 
L 76.160178 281.164511 
L 76.292374 280.098356 
L 76.303966 279.988421 
L 76.414881 278.969974 
L 76.430779 278.860039 
L 76.541487 277.988862 
L 76.541839 277.988862 
L 76.557882 277.878928 
L 76.66888 277.078274 
L 76.668921 277.078274 
L 76.685192 276.96834 
L 76.79532 276.169761 
L 76.796272 276.169761 
L 76.811011 276.061901 
L 76.811011 276.059827 
L 76.920518 275.346291 
L 76.922092 275.346291 
L 76.937948 275.236357 
L 77.048988 274.524895 
L 77.049029 274.524895 
L 77.065093 274.414961 
L 77.175842 273.68898 
L 77.176173 273.68898 
L 77.196998 273.579046 
L 77.30783 272.855139 
L 77.328986 272.745204 
L 77.439777 271.963219 
L 77.440026 271.963219 
L 77.459401 271.853285 
L 77.569654 271.156343 
L 77.570482 271.156343 
L 77.591887 271.046409 
L 77.701601 270.299685 
L 77.702801 270.299685 
L 77.722177 270.189751 
L 77.833175 269.528071 
L 77.855076 269.418137 
L 77.965888 268.714972 
L 77.966033 268.714972 
L 77.993565 268.605038 
L 78.104066 267.957878 
L 78.123773 267.847943 
L 78.234191 267.308643 
L 78.234853 267.308643 
L 78.259239 267.200783 
L 78.370071 266.661483 
L 78.370195 266.661483 
L 78.396858 266.551549 
L 78.507358 265.987358 
L 78.507607 265.987358 
L 78.526652 265.877423 
L 78.637608 265.311158 
L 78.637732 265.311158 
L 78.659054 265.201224 
L 78.769969 264.572732 
L 78.788061 264.462797 
L 78.898728 263.917274 
L 78.898852 263.917274 
L 78.921457 263.80734 
L 79.032455 263.249372 
L 79.06007 263.139437 
L 79.171109 262.612583 
L 79.191354 262.502648 
L 79.301813 261.99861 
L 79.302393 261.99861 
L 79.329263 261.888676 
L 79.440178 261.413677 
L 79.465847 261.303742 
L 79.576803 260.826669 
L 79.601271 260.716735 
L 79.712227 260.227216 
L 79.743982 260.117282 
L 79.854897 259.692064 
L 79.85498 259.692064 
L 79.879862 259.584204 
L 79.879862 259.581093 
L 79.990446 259.152764 
L 79.990943 259.152764 
L 80.014749 259.04283 
L 80.125539 258.605167 
L 80.125829 258.605167 
L 80.151788 258.495233 
L 80.262041 258.061718 
L 80.262496 258.061718 
L 80.28299 257.951784 
L 80.393449 257.528641 
L 80.393987 257.528641 
L 80.427398 257.418706 
L 80.537568 257.001786 
L 80.563734 256.891852 
L 80.674235 256.389887 
L 80.674525 256.389887 
L 80.704002 256.282027 
L 80.814959 255.858884 
L 80.837854 255.74895 
L 80.947692 255.311287 
L 80.948769 255.311287 
L 80.980068 255.201353 
L 81.100298 254.736725 
L 81.124932 254.628865 
L 81.235889 254.199499 
L 81.264787 254.089565 
L 81.375288 253.693386 
L 81.375785 253.693386 
L 81.404227 253.583452 
L 81.515101 253.166531 
L 81.542053 253.056597 
L 81.653051 252.679087 
L 81.684019 252.569153 
L 81.794893 252.183346 
L 81.795058 252.183346 
L 81.824702 252.073411 
L 81.9357 251.693827 
L 81.967662 251.583893 
L 82.078535 251.175269 
L 82.078742 251.175269 
L 82.109421 251.065335 
L 82.22845 250.665008 
L 82.267037 250.555074 
L 82.377827 250.10704 
L 82.408382 249.997105 
L 82.518096 249.663154 
L 82.519462 249.663154 
L 82.544469 249.55322 
L 82.655052 249.210972 
L 82.655301 249.210972 
L 82.687014 249.101037 
L 82.797349 248.735973 
L 82.798095 248.735973 
L 82.840366 248.626038 
L 82.950411 248.294161 
L 82.951156 248.294161 
L 82.981173 248.184227 
L 82.981173 248.18319 
L 83.16719 247.564032 
L 83.198324 247.454097 
L 83.309239 247.053771 
L 83.309404 247.053771 
L 83.340124 246.943836 
L 83.450708 246.618182 
L 83.450915 246.618182 
L 83.482422 246.508248 
L 83.593378 246.165999 
L 83.593419 246.165999 
L 83.641652 246.056065 
L 83.752608 245.722114 
L 83.752753 245.722114 
L 83.793389 245.61218 
L 83.902482 245.267857 
L 83.904387 245.267857 
L 83.939578 245.157923 
L 84.049747 244.826046 
L 84.050327 244.826046 
L 84.083738 244.716111 
L 84.194819 244.39668 
L 84.242348 244.286746 
L 84.35289 243.961091 
L 84.35318 243.961091 
L 84.391932 243.851157 
L 84.502143 243.481944 
L 84.503012 243.481944 
L 84.535968 243.372009 
L 84.646303 243.017316 
L 84.646717 243.017316 
L 84.686048 242.907381 
L 84.796135 242.602469 
L 84.797088 242.602469 
L 84.827973 242.492535 
L 84.939012 242.191771 
L 84.968656 242.081837 
L 85.082924 241.762406 
L 85.117701 241.654545 
L 85.22874 241.337188 
L 85.267699 241.227254 
L 85.378738 240.914045 
L 85.37878 240.914045 
L 85.429994 240.80411 
L 85.540329 240.478456 
L 85.541074 240.478456 
L 85.575893 240.368522 
L 85.686725 240.057387 
L 85.686973 240.057387 
L 85.723117 239.947453 
L 85.833783 239.63217 
L 85.833949 239.63217 
L 85.876054 239.522235 
L 85.990157 239.213175 
L 86.03011 239.10324 
L 86.141066 238.792106 
L 86.14119 238.792106 
L 86.185117 238.682171 
L 86.295991 238.40215 
L 86.296073 238.40215 
L 86.337972 238.292216 
L 86.337972 238.291179 
L 86.46139 237.983155 
L 86.497161 237.873221 
L 86.607124 237.57868 
L 86.607827 237.57868 
L 86.647904 237.468746 
L 86.758653 237.209467 
L 86.759005 237.209467 
L 86.804029 237.099533 
L 86.914365 236.782175 
L 86.915069 236.782175 
L 86.960941 236.672241 
L 87.077735 236.385997 
L 87.119924 236.276063 
L 87.230714 235.967002 
L 87.230838 235.967002 
L 87.286586 235.856031 
L 87.402945 235.585344 
L 87.444926 235.475409 
L 87.555758 235.19124 
L 87.555882 235.19124 
L 87.607924 235.081305 
L 87.71797 234.830323 
L 87.718984 234.830323 
L 87.788601 234.720389 
L 87.899681 234.469407 
L 87.944581 234.359473 
L 88.058415 234.0836 
L 88.113065 233.973666 
L 88.222613 233.639714 
L 88.224145 233.639714 
L 88.271757 233.52978 
L 88.381927 233.268427 
L 88.382838 233.268427 
L 88.432975 233.158492 
L 88.543973 232.895065 
L 88.596801 232.785131 
L 88.705646 232.532074 
L 88.707881 232.532074 
L 88.750442 232.42214 
L 88.861274 232.154564 
L 88.861523 232.154564 
L 88.911122 232.04463 
L 89.021871 231.770831 
L 89.021954 231.770831 
L 89.068986 231.660897 
L 89.179363 231.403692 
L 89.180025 231.403692 
L 89.228175 231.293758 
L 89.344307 231.036553 
L 89.391049 230.925582 
L 89.502129 230.690157 
L 89.50215 230.690157 
L 89.541006 230.579185 
L 89.652086 230.337537 
L 89.695226 230.227603 
L 89.815001 229.939285 
L 89.85839 229.829351 
L 89.968477 229.57422 
L 89.969491 229.57422 
L 90.011617 229.464286 
L 90.128329 229.18219 
L 90.189644 229.072256 
L 90.30561 228.825422 
L 90.366388 228.715488 
L 90.48285 228.443764 
L 90.537997 228.33383 
L 90.648829 228.111887 
L 90.648995 228.111887 
L 90.688906 228.006101 
L 90.688906 228.004027 
L 90.799655 227.796604 
L 90.799904 227.796604 
L 90.859398 227.686669 
L 90.969981 227.435687 
L 90.970271 227.435687 
L 91.022354 227.325753 
L 91.133083 227.083068 
L 91.133435 227.083068 
L 91.189575 226.973134 
L 91.308191 226.722151 
L 91.352201 226.612217 
L 91.468291 226.357087 
L 91.530435 226.247152 
L 91.6387 226.023135 
L 91.641536 226.023135 
L 91.694592 225.913201 
L 91.816561 225.641477 
L 91.863759 225.531542 
L 91.973763 225.253595 
L 91.974467 225.253595 
L 92.023776 225.145735 
L 92.134649 224.930015 
L 92.209545 224.820081 
L 92.320253 224.581544 
L 92.32046 224.581544 
L 92.380037 224.47161 
L 92.490165 224.224777 
L 92.490951 224.224777 
L 92.540758 224.114842 
L 92.650596 223.868009 
L 92.651797 223.868009 
L 92.70181 223.758074 
L 92.812435 223.538206 
L 92.81289 223.538206 
L 92.865429 223.428272 
L 92.976219 223.198032 
L 92.976509 223.198032 
L 93.02143 223.088098 
L 93.13723 222.853709 
L 93.200409 222.743775 
L 93.310289 222.532203 
L 93.310951 222.532203 
L 93.391353 222.424343 
L 93.501399 222.185807 
L 93.502392 222.185807 
L 93.546733 222.075872 
L 93.657565 221.880895 
L 93.657731 221.880895 
L 93.716728 221.77096 
L 93.826856 221.58428 
L 93.827809 221.58428 
L 93.943443 221.35404 
L 93.986584 221.244106 
L 94.096878 220.999346 
L 94.097623 220.999346 
L 94.146435 220.889412 
L 94.257474 220.698583 
L 94.31287 220.588648 
L 94.423702 220.387448 
L 94.423909 220.387448 
L 94.501951 220.277514 
L 94.612576 220.061794 
L 94.612907 220.061794 
L 94.673519 219.951859 
L 94.784185 219.731991 
L 94.784475 219.731991 
L 94.848855 219.622056 
L 94.964531 219.391817 
L 95.028745 219.281882 
L 95.143365 219.105573 
L 95.20379 218.995638 
L 95.314871 218.781993 
L 95.39225 218.672058 
L 95.502379 218.458412 
L 95.503331 218.458412 
L 95.568994 218.348478 
L 95.684877 218.107867 
L 95.745986 217.997933 
L 95.855162 217.831994 
L 95.857025 217.831994 
L 95.927863 217.72206 
L 96.042255 217.558196 
L 96.096988 217.448262 
L 96.207117 217.284397 
L 96.207986 217.284397 
L 96.279776 217.174463 
L 96.39007 216.998153 
L 96.390877 216.998153 
L 96.448032 216.888219 
L 96.562549 216.713984 
L 96.620387 216.604049 
L 96.735608 216.392478 
L 96.813319 216.282543 
L 96.928995 216.054378 
L 96.980291 215.944444 
L 97.099611 215.73702 
L 97.163328 215.627086 
L 97.273621 215.49641 
L 97.274408 215.49641 
L 97.344708 215.386475 
L 97.453884 215.230908 
L 97.455747 215.230908 
L 97.518388 215.120974 
L 97.631103 214.959184 
L 97.705895 214.849249 
L 97.815568 214.668791 
L 97.816893 214.668791 
L 97.886655 214.558857 
L 97.99728 214.365953 
L 97.997735 214.365953 
L 98.071637 214.256019 
L 98.182138 214.054819 
L 98.182593 214.054819 
L 98.243826 213.944884 
L 98.362318 213.760278 
L 98.422267 213.650343 
L 98.532478 213.463662 
L 98.533306 213.463662 
L 98.613542 213.353728 
L 98.724209 213.183641 
L 98.724623 213.183641 
L 98.805811 213.073707 
L 98.919831 212.928511 
L 98.999364 212.818576 
L 99.105849 212.644341 
L 99.110403 212.644341 
L 99.17677 212.534407 
L 99.291783 212.339429 
L 99.374297 212.229495 
L 99.485336 212.028294 
L 99.485356 212.028294 
L 99.557085 211.91836 
L 99.664356 211.769015 
L 99.668165 211.769015 
L 99.740576 211.659081 
L 99.850373 211.499365 
L 99.851615 211.499365 
L 99.912828 211.389431 
L 100.030139 211.179933 
L 100.103585 211.069999 
L 100.213465 210.87917 
L 100.214604 210.87917 
L 100.28687 210.769236 
L 100.396585 210.54107 
L 100.397909 210.54107 
L 100.473757 210.430099 
L 100.600446 210.238232 
L 100.675134 210.128298 
L 100.789837 209.94784 
L 100.885661 209.837905 
L 100.996369 209.640853 
L 100.996452 209.640853 
L 101.068118 209.530919 
L 101.182221 209.381574 
L 101.264817 209.27164 
L 101.375194 209.097405 
L 101.375856 209.097405 
L 101.466857 208.98747 
L 101.577275 208.842274 
L 101.577896 208.842274 
L 101.647989 208.73234 
L 101.757869 208.599589 
L 101.758987 208.599589 
L 101.836035 208.489655 
L 101.94608 208.311271 
L 101.947033 208.311271 
L 102.029919 208.2003 
L 102.149072 207.998062 
L 102.231172 207.888128 
L 102.340389 207.726338 
L 102.342169 207.726338 
L 102.416941 207.616403 
L 102.527648 207.435945 
L 102.52798 207.435945 
L 102.61869 207.326011 
L 102.732586 207.187037 
L 102.809076 207.077103 
L 102.921874 206.900793 
L 102.970149 206.790859 
L 103.081188 206.591733 
L 103.081229 206.591733 
L 103.144573 206.481799 
L 103.258718 206.328305 
L 103.338291 206.220445 
L 103.338291 206.218371 
L 103.455127 206.075249 
L 103.525054 205.965315 
L 103.639033 205.818044 
L 103.726721 205.70811 
L 103.836891 205.538023 
L 103.837802 205.538023 
L 103.93435 205.428089 
L 104.045348 205.307783 
L 104.107947 205.197849 
L 104.218924 205.027762 
L 104.218986 205.027762 
L 104.303859 204.917828 
L 104.414857 204.803745 
L 104.41494 204.803745 
L 104.485033 204.693811 
L 104.598846 204.548615 
L 104.68169 204.43868 
L 104.791073 204.29141 
L 104.792771 204.29141 
L 104.889402 204.181476 
L 105.000151 204.034205 
L 105.000441 204.034205 
L 105.108375 203.924271 
L 105.218917 203.787372 
L 105.219414 203.787372 
L 105.318612 203.677437 
L 105.432508 203.538464 
L 105.493741 203.42853 
L 105.607554 203.293704 
L 105.706918 203.18377 
L 105.817998 203.057242 
L 105.89575 202.947308 
L 106.00948 202.816631 
L 106.09423 202.706697 
L 106.204523 202.563575 
L 106.205269 202.563575 
L 106.29482 202.453641 
L 106.408302 202.331261 
L 106.499013 202.221327 
L 106.619015 202.07613 
L 106.706807 201.966196 
L 106.817681 201.816851 
L 106.817888 201.816851 
L 106.911704 201.706917 
L 107.022329 201.580389 
L 107.022701 201.580389 
L 107.122604 201.470455 
L 107.233518 201.329407 
L 107.233684 201.329407 
L 107.322697 201.219473 
L 107.433488 201.097093 
L 107.433736 201.097093 
L 107.526766 200.987159 
L 107.642649 200.868928 
L 107.727936 200.758993 
L 107.840383 200.622094 
L 107.913746 200.51216 
L 108.023171 200.360741 
L 108.024703 200.360741 
L 108.099184 200.250807 
L 108.21573 200.113907 
L 108.306958 200.003973 
L 108.421744 199.877445 
L 108.528394 199.767511 
L 108.637446 199.618166 
L 108.639392 199.618166 
L 108.711348 199.507195 
L 108.822139 199.338145 
L 108.822221 199.338145 
L 108.928499 199.22821 
L 109.042437 199.087163 
L 109.122052 198.977228 
L 109.236776 198.79677 
L 109.314404 198.686836 
L 109.429003 198.510526 
L 109.526711 198.400592 
L 109.635473 198.269915 
L 109.637771 198.269915 
L 109.743241 198.159981 
L 109.857054 198.025156 
L 109.95915 197.915222 
L 110.068533 197.79699 
L 110.07019 197.79699 
L 110.153821 197.687056 
L 110.264777 197.525266 
L 110.26486 197.525266 
L 110.359835 197.415332 
L 110.473482 197.282581 
L 110.542168 197.172647 
L 110.65478 197.021228 
L 110.735306 196.913368 
L 110.849947 196.734984 
L 110.957591 196.62505 
L 111.066063 196.494373 
L 111.068672 196.494373 
L 111.184637 196.369919 
L 111.274872 196.259985 
L 111.389617 196.135531 
L 111.488525 196.024559 
L 111.598239 195.882475 
L 111.599606 195.882475 
L 111.731884 195.77254 
L 111.84727 195.66468 
L 111.933095 195.554746 
L 112.050469 195.399179 
L 112.154966 195.289244 
L 112.275238 195.137825 
L 112.356468 195.027891 
L 112.473179 194.888918 
L 112.580492 194.778983 
L 112.69712 194.642084 
L 112.800873 194.53215 
L 112.914396 194.40977 
L 113.043403 194.299836 
L 113.15407 194.181605 
L 113.154359 194.181605 
L 113.238777 194.07167 
L 113.356213 193.914029 
L 113.478865 193.804094 
L 113.5957 193.660972 
L 113.704048 193.551038 
L 113.820055 193.428659 
L 113.950926 193.318724 
L 114.064449 193.188048 
L 114.161743 193.078113 
L 114.275349 192.953659 
L 114.361837 192.843725 
L 114.470764 192.715123 
L 114.472917 192.715123 
L 114.562593 192.605189 
L 114.675826 192.499403 
L 114.798706 192.389468 
L 114.913885 192.285757 
L 115.016354 192.175823 
L 115.129629 192.067963 
L 115.210652 191.958028 
L 115.32401 191.841871 
L 115.427927 191.731937 
L 115.427927 191.7309 
L 115.543728 191.613706 
L 115.66905 191.503771 
L 115.775722 191.381392 
L 115.780131 191.381392 
L 115.910173 191.271458 
L 116.024028 191.128336 
L 116.114945 191.018401 
L 116.231201 190.887725 
L 116.374119 190.77779 
L 116.487436 190.663708 
L 116.609984 190.553773 
L 116.724128 190.40028 
L 116.843758 190.290346 
L 116.958834 190.157595 
L 117.079727 190.047661 
L 117.193208 189.92943 
L 117.331158 189.819495 
L 117.444475 189.709561 
L 117.569714 189.599627 
L 117.682989 189.491767 
L 117.801729 189.365239 
L 117.881924 189.255304 
L 117.990437 189.151593 
L 117.993025 189.151593 
L 118.131907 189.041658 
L 118.239178 188.925501 
L 118.242863 188.925501 
L 118.340612 188.815567 
L 118.458689 188.701484 
L 118.575152 188.59155 
L 118.685901 188.48369 
L 118.686232 188.48369 
L 118.800128 188.373756 
L 118.917005 188.22856 
L 119.023821 188.118625 
L 119.139683 188.000394 
L 119.27546 187.89046 
L 119.38298 187.780526 
L 119.386499 187.780526 
L 119.473111 187.670591 
L 119.583819 187.568954 
L 119.584191 187.568954 
L 119.68695 187.45902 
L 119.800556 187.334566 
L 119.909939 187.224632 
L 120.027809 187.114697 
L 120.115912 187.004763 
L 120.226289 186.892754 
L 120.226992 186.892754 
L 120.352315 186.78282 
L 120.465528 186.677034 
L 120.57638 186.5671 
L 120.691808 186.45924 
L 120.811376 186.349306 
L 120.921959 186.233149 
L 120.922332 186.233149 
L 121.040989 186.123214 
L 121.156913 186.002909 
L 121.26936 185.892975 
L 121.387686 185.774744 
L 121.508661 185.664809 
L 121.621978 185.548652 
L 121.736577 185.438718 
L 121.84981 185.332932 
L 121.958614 185.222998 
L 122.075035 185.090247 
L 122.194437 184.980313 
L 122.308271 184.841339 
L 122.404385 184.731405 
L 122.512691 184.623545 
L 122.515424 184.623545 
L 122.63673 184.513611 
L 122.74984 184.409899 
L 122.853716 184.299965 
L 122.961029 184.198327 
L 122.964631 184.198327 
L 123.059896 184.088393 
L 123.176731 183.943197 
L 123.283465 183.833263 
L 123.396325 183.737848 
L 123.505708 183.627914 
L 123.6242 183.507608 
L 123.716401 183.397674 
L 123.829345 183.302259 
L 123.962409 183.192325 
L 124.075974 183.069945 
L 124.202994 182.960011 
L 124.316103 182.858374 
L 124.45484 182.748439 
L 124.567866 182.648876 
L 124.698322 182.538942 
L 124.81876 182.424859 
L 124.944248 182.314925 
L 125.061539 182.161432 
L 125.171004 182.051498 
L 125.286639 181.937415 
L 125.439162 181.827481 
L 125.552561 181.713398 
L 125.689808 181.603464 
L 125.803207 181.485232 
L 125.906462 181.375298 
L 126.022511 181.252918 
L 126.140216 181.142984 
L 126.254981 181.04757 
L 126.364488 180.939709 
L 126.364488 180.937635 
L 126.48004 180.827701 
L 126.613684 180.71673 
L 126.723233 180.64102 
L 126.724765 180.64102 
L 126.852695 180.531086 
L 126.965929 180.423226 
L 127.087981 180.313291 
L 127.196536 180.236545 
L 127.198688 180.236545 
L 127.303517 180.126611 
L 127.419276 180.008379 
L 127.530936 179.898445 
L 127.646985 179.776065 
L 127.74254 179.666131 
L 127.852171 179.531306 
L 127.85362 179.531306 
L 127.985691 179.421372 
L 128.098469 179.336328 
L 128.221142 179.226394 
L 128.333672 179.145499 
L 128.46036 179.035565 
L 128.571151 178.909037 
L 128.5714 178.909037 
L 128.713324 178.799102 
L 128.832685 178.664277 
L 128.966143 178.554343 
L 129.080246 178.45478 
L 129.246328 178.344846 
L 129.359313 178.243208 
L 129.477142 178.133274 
L 129.593066 178.012969 
L 129.724185 177.903034 
L 129.836756 177.828362 
L 129.933595 177.718428 
L 130.050595 177.620939 
L 130.184861 177.511004 
L 130.305878 177.390699 
L 130.437162 177.280765 
L 130.55023 177.183276 
L 130.669673 177.073342 
L 130.782638 176.980001 
L 130.928992 176.870067 
L 131.04088 176.785023 
L 131.174607 176.675089 
L 131.291753 176.5776 
L 131.412087 176.467666 
L 131.529212 176.370177 
L 131.658385 176.260243 
L 131.768761 176.144086 
L 131.769465 176.144086 
L 131.916358 176.034151 
L 132.029177 175.947034 
L 132.16543 175.837099 
L 132.280071 175.716794 
L 132.418187 175.60686 
L 132.526493 175.492777 
L 132.529226 175.492777 
L 132.658978 175.382843 
L 132.781196 175.277057 
L 132.938977 175.167123 
L 133.060201 175.044743 
L 133.188256 174.934809 
L 133.305133 174.841468 
L 133.405407 174.731534 
L 133.520214 174.640268 
L 133.657584 174.529296 
L 133.77974 174.443216 
L 133.900984 174.333281 
L 134.018316 174.231644 
L 134.158626 174.12171 
L 134.272191 173.997256 
L 134.395526 173.887322 
L 134.508635 173.773239 
L 134.66414 173.663305 
L 134.781348 173.563742 
L 134.881415 173.453807 
L 134.994525 173.350096 
L 135.139306 173.240161 
L 135.251504 173.124004 
L 135.384155 173.01407 
L 135.504509 172.902062 
L 135.63273 172.792127 
L 135.751263 172.702935 
L 135.877082 172.593001 
L 135.991682 172.503809 
L 136.107896 172.393875 
L 136.220695 172.306757 
L 136.324261 172.198897 
L 136.438612 172.091037 
L 136.546504 171.981103 
L 136.659407 171.889837 
L 136.773385 171.779902 
L 136.890572 171.707304 
L 137.004406 171.59737 
L 137.114658 171.497807 
L 137.115197 171.497807 
L 137.260144 171.387872 
L 137.373439 171.27379 
L 137.499279 171.163855 
L 137.611891 171.087109 
L 137.749966 170.977175 
L 137.860177 170.894205 
L 137.861005 170.894205 
L 137.973162 170.784271 
L 138.083373 170.678485 
L 138.084242 170.678485 
L 138.234737 170.568551 
L 138.347929 170.460691 
L 138.461038 170.34972 
L 138.572077 170.278159 
L 138.712242 170.168224 
L 138.831375 170.056216 
L 138.995657 169.946281 
L 139.105288 169.855015 
L 139.106737 169.855015 
L 139.241541 169.745081 
L 139.358542 169.647592 
L 139.492062 169.537658 
L 139.604136 169.438095 
L 139.751443 169.327123 
L 139.858797 169.245191 
L 139.862482 169.245191 
L 139.996209 169.135257 
L 140.111305 169.035694 
L 140.237125 168.925759 
L 140.355823 168.834493 
L 140.497789 168.724559 
L 140.606799 168.62707 
L 140.60887 168.62707 
L 140.737214 168.517136 
L 140.853719 168.430018 
L 140.99142 168.320084 
L 141.101962 168.230892 
L 141.102501 168.230892 
L 141.278416 168.120958 
L 141.392809 168.037988 
L 141.57982 167.928054 
L 141.690279 167.838862 
L 141.6909 167.838862 
L 141.887433 167.728928 
L 142.004683 167.629365 
L 142.131661 167.51943 
L 142.248207 167.430238 
L 142.398577 167.320304 
L 142.512307 167.183405 
L 142.638624 167.073471 
L 142.754879 166.990501 
L 142.905043 166.880567 
L 143.02755 166.758187 
L 143.143557 166.648253 
L 143.256625 166.544541 
L 143.403435 166.434607 
L 143.52056 166.335044 
L 143.660788 166.22511 
L 143.77369 166.133844 
L 143.957554 166.022872 
L 144.071905 165.936792 
L 144.230846 165.826857 
L 144.346149 165.756333 
L 144.510762 165.646399 
L 144.621429 165.56343 
L 144.621843 165.56343 
L 144.717522 165.453496 
L 144.833301 165.376749 
L 144.955539 165.297928 
L 145.106158 165.187994 
L 145.219185 165.092579 
L 145.388186 164.982645 
L 145.501047 164.891379 
L 145.641522 164.781445 
L 145.762622 164.68603 
L 145.912827 164.576096 
L 146.025398 164.497275 
L 146.190176 164.387341 
L 146.299932 164.304371 
L 146.301215 164.304371 
L 146.425461 164.194437 
L 146.537867 164.130136 
L 146.65346 164.020201 
L 146.767149 163.9559 
L 146.950682 163.845966 
L 147.067559 163.750551 
L 147.20319 163.640617 
L 147.32193 163.547277 
L 147.421625 163.437342 
L 147.528317 163.358522 
L 147.532705 163.358522 
L 147.662541 163.248587 
L 147.77801 163.178063 
L 147.931485 163.068129 
L 148.045671 162.989308 
L 148.183373 162.879374 
L 148.295819 162.810924 
L 148.418244 162.70099 
L 148.530484 162.644986 
L 148.698119 162.535052 
L 148.820108 162.43134 
L 148.993809 162.321406 
L 149.10315 162.240511 
L 149.104889 162.240511 
L 149.283868 162.130576 
L 149.39234 162.045533 
L 149.394742 162.045533 
L 149.523542 161.935599 
L 149.63603 161.863001 
L 149.769178 161.753066 
L 149.88682 161.64728 
L 150.051826 161.537346 
L 150.168579 161.444006 
L 150.331784 161.334071 
L 150.449613 161.240731 
L 150.582843 161.130797 
L 150.698022 161.062347 
L 150.844004 160.952413 
L 150.965725 160.850775 
L 151.113197 160.740841 
L 151.228832 160.668243 
L 151.371667 160.558309 
L 151.487923 160.47534 
L 151.673154 160.369554 
L 151.785642 160.296956 
L 151.897468 160.187021 
L 152.012937 160.114423 
L 152.178088 160.004489 
L 152.294136 159.923594 
L 152.443016 159.81366 
L 152.542546 159.751433 
L 152.553973 159.751433 
L 152.700741 159.641498 
L 152.818487 159.533638 
L 152.951759 159.423704 
L 153.065572 159.35318 
L 153.216853 159.243246 
L 153.335345 159.154054 
L 153.513413 159.04412 
L 153.625901 158.969447 
L 153.784097 158.859513 
L 153.89675 158.776544 
L 154.057802 158.666609 
L 154.187845 158.556675 
L 154.32832 158.446741 
L 154.434433 158.3534 
L 154.439359 158.3534 
L 154.56344 158.243466 
L 154.677253 158.177091 
L 154.806467 158.067157 
L 154.921854 157.984187 
L 155.066055 157.874253 
L 155.184588 157.751873 
L 155.374042 157.641939 
L 155.486695 157.561044 
L 155.624811 157.45111 
L 155.738624 157.384734 
L 155.876139 157.2748 
L 155.988007 157.185608 
L 156.175328 157.075674 
L 156.293405 157.009298 
L 156.428023 156.899364 
L 156.543947 156.832989 
L 156.717233 156.723054 
L 156.833365 156.5986 
L 156.949372 156.532225 
L 157.091214 156.422291 
L 157.201218 156.349693 
L 157.202129 156.349693 
L 157.365913 156.239758 
L 157.485398 156.160938 
L 157.675328 156.051003 
L 157.795455 155.974257 
L 157.971122 155.864322 
L 158.081623 155.773056 
L 158.082037 155.773056 
L 158.23721 155.663122 
L 158.356571 155.561485 
L 158.524702 155.45155 
L 158.647872 155.356136 
L 158.821096 155.246201 
L 158.935199 155.171529 
L 159.077496 155.061595 
L 159.198016 154.972403 
L 159.350126 154.862469 
L 159.466009 154.785722 
L 159.59601 154.675788 
L 159.714874 154.582447 
L 159.870068 154.472513 
L 159.985599 154.385395 
L 160.158078 154.275461 
L 160.272595 154.188343 
L 160.433378 154.078409 
L 160.547915 154.012034 
L 160.722506 153.902099 
L 160.837271 153.806685 
L 161.010454 153.69675 
L 161.127165 153.605484 
L 161.277825 153.49555 
L 161.391928 153.420878 
L 161.567429 153.310943 
L 161.68414 153.219677 
L 161.839376 153.109743 
L 161.959088 153.028848 
L 162.129911 152.918913 
L 162.242441 152.846315 
L 162.391487 152.736381 
L 162.501491 152.640966 
L 162.502401 152.640966 
L 162.659645 152.531032 
L 162.775735 152.450137 
L 162.933516 152.340203 
L 163.053042 152.238565 
L 163.212107 152.128631 
L 163.324264 152.074701 
L 163.501277 151.964767 
L 163.615235 151.867278 
L 163.780675 151.757344 
L 163.896807 151.676449 
L 164.073674 151.566514 
L 164.192249 151.477322 
L 164.326721 151.367388 
L 164.43954 151.282345 
L 164.575213 151.17241 
L 164.692131 151.103961 
L 164.869164 150.994026 
L 164.978879 150.927651 
L 164.9801 150.927651 
L 165.12395 150.817717 
L 165.241862 150.736822 
L 165.418481 150.62585 
L 165.532584 150.550141 
L 165.700343 150.440207 
L 165.812789 150.373831 
L 165.943784 150.263897 
L 166.0624 150.172631 
L 166.266178 150.062696 
L 166.382599 149.988024 
L 166.579795 149.87809 
L 166.694685 149.784749 
L 166.848926 149.674815 
L 166.965658 149.595994 
L 167.122032 149.48606 
L 167.238287 149.401016 
L 167.383276 149.291082 
L 167.49684 149.230929 
L 167.642533 149.120995 
L 167.759244 149.05462 
L 167.899305 148.944686 
L 168.009185 148.870013 
L 168.010386 148.870013 
L 168.151772 148.760079 
L 168.26604 148.710297 
L 168.400099 148.600363 
L 168.51296 148.511171 
L 168.713053 148.401237 
L 168.827612 148.316193 
L 168.990527 148.206259 
L 169.104547 148.133661 
L 169.223866 148.034098 
L 169.372084 147.924164 
L 169.485566 147.864011 
L 169.692284 147.754077 
L 169.806552 147.673181 
L 169.977334 147.563247 
L 170.08564 147.486501 
L 170.088414 147.486501 
L 170.244498 147.376566 
L 170.359677 147.310191 
L 170.507895 147.200257 
L 170.62473 147.121436 
L 170.759078 147.011502 
L 170.873388 146.930607 
L 171.029348 146.820672 
L 171.143078 146.756371 
L 171.334064 146.6454 
L 171.44887 146.577987 
L 171.643044 146.468053 
L 171.75694 146.397529 
L 171.903832 146.287595 
L 172.01984 146.208774 
L 172.15514 146.09884 
L 172.267752 146.020019 
L 172.45793 145.912159 
L 172.577892 145.822967 
L 172.756125 145.713033 
L 172.875859 145.630063 
L 173.043328 145.520129 
L 173.159418 145.439234 
L 173.353385 145.3293 
L 173.471586 145.244256 
L 173.631024 145.134322 
L 173.744671 145.067946 
L 173.922408 144.958012 
L 174.035973 144.897859 
L 174.197687 144.787925 
L 174.316303 144.696659 
L 174.488078 144.586725 
L 174.60392 144.522424 
L 174.787329 144.414563 
L 174.903046 144.337817 
L 175.020254 144.227883 
L 175.139449 144.151136 
L 175.291559 144.041202 
L 175.406324 143.949936 
L 175.545102 143.840001 
L 175.661689 143.7757 
L 175.831435 143.66784 
L 175.9462 143.609762 
L 176.077795 143.499827 
L 176.196225 143.423081 
L 176.360175 143.313146 
L 176.468771 143.246771 
L 176.471255 143.246771 
L 176.650359 143.136837 
L 176.764254 143.064239 
L 176.976852 142.954304 
L 177.092735 142.875484 
L 177.27782 142.765549 
L 177.395256 142.713693 
L 177.550429 142.603759 
L 177.664159 142.539458 
L 177.831836 142.429524 
L 177.943993 142.373519 
L 178.144004 142.263585 
L 178.259059 142.19721 
L 178.433732 142.087276 
L 178.547876 142.008455 
L 178.750454 141.89852 
L 178.866627 141.838368 
L 179.010622 141.728433 
L 179.128037 141.653761 
L 179.340261 141.54279 
L 179.442896 141.485748 
L 179.451342 141.485748 
L 179.631728 141.375814 
L 179.744589 141.286622 
L 179.954123 141.176688 
L 180.068018 141.131055 
L 180.222281 141.02112 
L 180.330215 140.963042 
L 180.333154 140.963042 
L 180.540617 140.853108 
L 180.662421 140.759767 
L 180.832333 140.649833 
L 180.949251 140.554418 
L 181.122641 140.444484 
L 181.252559 140.349069 
L 181.446588 140.238098 
L 181.575698 140.166537 
L 181.781133 140.056603 
L 181.902046 139.963262 
L 182.038941 139.853328 
L 182.152298 139.795249 
L 182.32573 139.685315 
L 182.440805 139.585752 
L 182.621751 139.475818 
L 182.737344 139.423962 
L 182.929696 139.314028 
L 183.04442 139.255949 
L 183.148379 139.146015 
L 183.26952 139.081714 
L 183.481786 138.97178 
L 183.595723 138.901256 
L 183.78646 138.791321 
L 183.902343 138.710426 
L 184.118543 138.600492 
L 184.232687 138.536191 
L 184.468552 138.426257 
L 184.582406 138.357807 
L 184.810818 138.247873 
L 184.9243 138.18772 
L 185.123773 138.077786 
L 185.237255 138.017633 
L 185.442731 137.907699 
L 185.555923 137.855843 
L 185.718383 137.745909 
L 185.835756 137.68783 
L 186.014197 137.577896 
L 186.126437 137.515669 
L 186.331333 137.405735 
L 186.446057 137.347656 
L 186.619695 137.237722 
L 186.738269 137.181718 
L 186.973927 137.070746 
L 187.086705 137.024076 
L 187.282162 136.914142 
L 187.397879 136.837395 
L 187.592881 136.727461 
L 187.707191 136.64864 
L 187.914488 136.538706 
L 188.030703 136.493073 
L 188.214567 136.383138 
L 188.327014 136.308466 
L 188.546691 136.200606 
L 188.664023 136.098969 
L 188.847929 135.989034 
L 188.964723 135.920585 
L 189.1348 135.81065 
L 189.247123 135.750498 
L 189.372611 135.688271 
L 189.590176 135.578336 
L 189.705066 135.51611 
L 189.935134 135.406175 
L 190.050976 135.32528 
L 190.216831 135.215346 
L 190.329857 135.115783 
L 190.507325 135.005849 
L 190.62327 134.937399 
L 190.813221 134.827465 
L 190.929476 134.744495 
L 191.143233 134.634561 
L 191.261476 134.568186 
L 191.500922 134.458251 
L 191.623946 134.385653 
L 191.783964 134.275719 
L 191.898729 134.23216 
L 192.095097 134.122226 
L 192.20746 134.051702 
L 192.325662 133.997772 
L 192.546332 133.887838 
L 192.664451 133.817314 
L 192.897873 133.707379 
L 193.013756 133.651375 
L 193.236207 133.541441 
L 193.356872 133.450175 
L 193.565764 133.34024 
L 193.679287 133.302904 
L 193.884432 133.19297 
L 193.997003 133.151485 
L 194.169213 133.041551 
L 194.285282 132.971027 
L 194.498417 132.861093 
L 194.611361 132.811311 
L 194.810544 132.701377 
L 194.924605 132.628779 
L 195.065743 132.552032 
L 195.270805 132.442098 
L 195.382921 132.390242 
L 195.64197 132.280308 
L 195.762283 132.209784 
L 195.937081 132.09985 
L 196.048493 132.064588 
L 196.242335 131.954654 
L 196.359212 131.886204 
L 196.561831 131.77627 
L 196.679287 131.699523 
L 196.896604 131.589589 
L 197.016834 131.535659 
L 197.212995 131.425725 
L 197.326642 131.38424 
L 197.547727 131.274306 
L 197.664645 131.220376 
L 197.853436 131.110441 
L 197.970975 131.033695 
L 198.158359 130.923761 
L 198.271716 130.867756 
L 198.590881 130.757822 
L 198.706019 130.693521 
L 198.957741 130.583587 
L 199.076563 130.510988 
L 199.270157 130.401054 
L 199.385792 130.353347 
L 199.588929 130.243413 
L 199.704253 130.185334 
L 199.881534 130.0754 
L 199.996589 130.029767 
L 200.260732 129.919832 
L 200.374068 129.865902 
L 200.62668 129.755968 
L 200.741073 129.702038 
L 200.984141 129.591067 
L 201.116295 129.515357 
L 201.317507 129.405423 
L 201.4319 129.349419 
L 201.664245 129.239484 
L 201.781826 129.179332 
L 202.008127 129.069397 
L 202.122478 129.015467 
L 202.375773 128.905533 
L 202.488013 128.847455 
L 202.705081 128.73752 
L 202.818811 128.693961 
L 203.083161 128.584027 
L 203.19511 128.53632 
L 203.374897 128.426386 
L 203.490345 128.382827 
L 203.745876 128.272892 
L 203.866189 128.202369 
L 204.070154 128.092434 
L 204.187134 128.028133 
L 204.445314 127.918199 
L 204.560638 127.868417 
L 204.766632 127.758483 
L 204.881107 127.704553 
L 205.157256 127.594619 
L 205.27732 127.526169 
L 205.498239 127.416235 
L 205.595699 127.385121 
L 205.609237 127.385121 
L 205.809786 127.275187 
L 205.922129 127.21296 
L 206.197802 127.103026 
L 206.314265 127.053244 
L 206.576709 126.945384 
L 206.691185 126.860341 
L 206.976152 126.750406 
L 207.097024 126.686105 
L 207.320447 126.576171 
L 207.434923 126.522241 
L 207.674079 126.412307 
L 207.786422 126.370822 
L 207.980968 126.260888 
L 208.098839 126.209032 
L 208.306468 126.099098 
L 208.424214 126.057613 
L 208.713031 125.947679 
L 208.827714 125.899971 
L 208.945667 125.848116 
L 209.171057 125.738181 
L 209.286609 125.684251 
L 209.546197 125.574317 
L 209.661003 125.51209 
L 209.933343 125.402156 
L 210.047653 125.36482 
L 210.34266 125.254885 
L 210.458274 125.209252 
L 210.660272 125.101392 
L 210.776528 125.039165 
L 211.045638 124.929231 
L 211.161935 124.867004 
L 211.395771 124.75707 
L 211.509626 124.725956 
L 211.72922 124.616022 
L 211.843322 124.568315 
L 212.064904 124.45838 
L 212.178924 124.43349 
L 212.533859 124.323555 
L 212.656077 124.250957 
L 212.840355 124.141023 
L 212.960855 124.089167 
L 213.265508 123.979233 
L 213.382178 123.935674 
L 213.615931 123.82574 
L 213.733802 123.773884 
L 214.035205 123.66395 
L 214.149473 123.626613 
L 214.493976 123.516679 
L 214.609983 123.466898 
L 214.838272 123.356963 
L 214.954155 123.31133 
L 215.306689 123.201396 
L 215.423318 123.151614 
L 215.753578 123.04168 
L 215.870123 122.977379 
L 216.154304 122.867445 
L 216.283394 122.805218 
L 216.570059 122.695283 
L 216.682837 122.64965 
L 216.988256 122.539716 
L 217.104512 122.492009 
L 217.419288 122.382074 
L 217.536165 122.346812 
L 217.808546 122.236878 
L 217.923808 122.207839 
L 218.254234 122.097905 
L 218.370676 122.077162 
L 218.692345 121.967228 
L 218.804213 121.927818 
L 219.02803 121.817883 
L 219.145072 121.774325 
L 219.442418 121.66439 
L 219.574779 121.600089 
L 219.879205 121.490155 
L 219.996247 121.454893 
L 220.232112 121.344959 
L 220.344766 121.305548 
L 220.729262 121.195614 
L 220.842247 121.149981 
L 221.115084 121.040046 
L 221.231008 120.996488 
L 221.526532 120.886553 
L 221.640552 120.84092 
L 221.972138 120.730986 
L 222.084812 120.67913 
L 222.446145 120.569196 
L 222.563352 120.523563 
L 222.858629 120.413629 
L 222.973973 120.384589 
L 223.336527 120.274655 
L 223.455598 120.239393 
L 223.783167 120.129459 
L 223.900996 120.079677 
L 224.177062 119.968706 
L 224.31199 119.930333 
L 224.636537 119.820398 
L 224.767904 119.756097 
L 225.141864 119.646163 
L 225.256277 119.619198 
L 225.655513 119.509263 
L 225.776778 119.449111 
L 226.098096 119.339176 
L 226.215304 119.283172 
L 226.55637 119.173238 
L 226.673868 119.123456 
L 227.030128 119.013522 
L 227.14361 118.976186 
L 227.478093 118.866252 
L 227.592859 118.818544 
L 227.967916 118.70861 
L 228.086904 118.658828 
L 228.439645 118.548894 
L 228.553024 118.524003 
L 228.926031 118.414069 
L 229.039016 118.364288 
L 229.414114 118.254353 
L 229.531322 118.22324 
L 229.888494 118.113306 
L 230.005246 118.06145 
L 230.374424 117.951515 
L 230.488051 117.907957 
L 230.905648 117.798022 
L 231.022483 117.742018 
L 231.341772 117.632084 
L 231.456124 117.603045 
L 231.795679 117.49311 
L 231.914191 117.464071 
L 232.308913 117.354137 
L 232.426867 117.318875 
L 232.800557 117.208941 
L 232.912528 117.177827 
L 233.287647 117.067893 
L 233.407008 117.024334 
L 233.802062 116.9144 
L 233.915875 116.883286 
L 234.466184 116.773352 
L 234.580411 116.733941 
L 234.958863 116.624007 
L 235.072428 116.601191 
L 235.623214 116.491256 
L 235.739159 116.460143 
L 236.094053 116.350209 
L 236.209108 116.314947 
L 236.525003 116.205012 
L 236.643535 116.178047 
L 237.01586 116.068113 
L 237.133482 116.034925 
L 237.587533 115.924991 
L 237.705279 115.902175 
L 238.12091 115.79224 
L 238.239732 115.759053 
L 238.579474 115.649118 
L 238.693908 115.626302 
L 239.047684 115.516367 
L 239.165679 115.489402 
L 239.467662 115.378431 
L 239.594889 115.352503 
L 240.040577 115.242569 
L 240.155425 115.209381 
L 240.525058 115.099447 
L 240.637132 115.072482 
L 241.009353 114.962548 
L 241.130143 114.92936 
L 241.516709 114.819426 
L 241.63313 114.798683 
L 242.028102 114.688749 
L 242.151644 114.649339 
L 242.502791 114.539404 
L 242.61824 114.512439 
L 243.021657 114.402505 
L 243.141597 114.363095 
L 243.622021 114.25316 
L 243.74072 114.21375 
L 244.171669 114.103816 
L 244.286558 114.068554 
L 244.773275 113.958619 
L 244.888247 113.939951 
L 245.429076 113.830017 
L 245.545663 113.798904 
L 245.962908 113.688969 
L 246.084712 113.651633 
L 246.482892 113.541699 
L 246.600576 113.510585 
L 246.997451 113.400651 
L 247.116191 113.352944 
L 247.471417 113.24301 
L 247.585354 113.218119 
L 248.209027 113.108184 
L 248.329133 113.0667 
L 248.77834 112.956766 
L 248.898674 112.921504 
L 249.231936 112.811569 
L 249.356472 112.761788 
L 249.807625 112.651854 
L 249.928352 112.622814 
L 250.372467 112.51288 
L 250.488412 112.485915 
L 251.001399 112.375981 
L 251.116412 112.340719 
L 251.54583 112.230784 
L 251.660346 112.210042 
L 252.138286 112.099071 
L 252.263319 112.062772 
L 252.660278 111.952837 
L 252.778852 111.930021 
L 253.199989 111.820087 
L 253.32204 111.786899 
L 253.92373 111.676965 
L 254.045906 111.643777 
L 254.528483 111.533843 
L 254.644863 111.5131 
L 255.112618 111.403166 
L 255.225892 111.388646 
L 255.724243 111.278712 
L 255.837974 111.249673 
L 256.285649 111.139739 
L 256.402112 111.112774 
L 257.099728 111.002839 
L 257.215073 110.980023 
L 257.683449 110.870088 
L 257.799042 110.843123 
L 258.333289 110.733189 
L 258.450538 110.708298 
L 258.931956 110.598364 
L 259.048501 110.575548 
L 259.707531 110.465613 
L 259.823249 110.444871 
L 260.339402 110.334937 
L 260.456817 110.303823 
L 260.883005 110.193889 
L 261.004933 110.160701 
L 261.568409 110.050767 
L 261.687314 110.021728 
L 262.231662 109.911793 
L 262.351354 109.878606 
L 262.757752 109.767634 
L 262.890485 109.741706 
L 263.360807 109.631772 
L 263.475324 109.590288 
L 263.993134 109.480353 
L 264.112163 109.451314 
L 264.634941 109.34138 
L 264.749251 109.314415 
L 265.17606 109.20448 
L 265.295835 109.183738 
L 265.922779 109.073804 
L 266.036302 109.046839 
L 266.571997 108.936905 
L 266.692683 108.914088 
L 267.234713 108.804154 
L 267.360118 108.766818 
L 267.875112 108.656883 
L 267.997909 108.634067 
L 268.484626 108.524132 
L 268.595873 108.48887 
L 269.152144 108.378936 
L 269.274362 108.349897 
L 269.747623 108.239963 
L 269.868806 108.210923 
L 270.538269 108.100989 
L 270.653697 108.084395 
L 271.312665 107.974461 
L 271.429646 107.959941 
L 271.928452 107.850007 
L 272.046923 107.827191 
L 272.566243 107.717256 
L 272.6784 107.690291 
L 273.370221 107.580357 
L 273.482005 107.563763 
L 274.186867 107.453829 
L 274.305855 107.42479 
L 274.961367 107.314855 
L 275.076836 107.30241 
L 275.625531 107.192476 
L 275.745761 107.165511 
L 276.276985 107.055576 
L 276.393447 107.034834 
L 276.982758 106.9249 
L 277.101125 106.879267 
L 277.596867 106.769332 
L 277.711633 106.744442 
L 278.153305 106.634507 
L 278.266455 106.603394 
L 278.744105 106.49346 
L 278.862762 106.468569 
L 279.324307 106.358635 
L 279.436961 106.335818 
L 280.120687 106.225884 
L 280.23626 106.190622 
L 280.779511 106.080687 
L 280.89765 106.059945 
L 281.355096 105.950011 
L 281.473836 105.918897 
L 281.90048 105.808963 
L 282.023525 105.771627 
L 282.455592 105.661693 
L 282.570026 105.638876 
L 283.028714 105.531016 
L 283.14439 105.501977 
L 283.692713 105.392043 
L 283.807519 105.375449 
L 284.424362 105.265514 
L 284.538713 105.238549 
L 285.216208 105.128615 
L 285.330435 105.10165 
L 285.873521 104.991716 
L 285.986816 104.968899 
L 286.534642 104.858965 
L 286.64949 104.834074 
L 287.102568 104.72414 
L 287.224517 104.697175 
L 287.759715 104.587241 
L 287.871375 104.558201 
L 288.519103 104.448267 
L 288.635441 104.417154 
L 289.158716 104.307219 
L 289.272819 104.290626 
L 289.803297 104.180691 
L 289.927461 104.143355 
L 290.395754 104.033421 
L 290.514411 104.014753 
L 291.009615 103.904818 
L 291.129307 103.879928 
L 291.611429 103.769993 
L 291.727726 103.736806 
L 292.300889 103.626871 
L 292.417393 103.6165 
L 292.927295 103.506566 
L 293.041729 103.485824 
L 293.674304 103.375889 
L 293.786999 103.350999 
L 294.379166 103.241064 
L 294.4936 103.218248 
L 295.012859 103.108313 
L 295.128742 103.081348 
L 295.742355 102.971414 
L 295.860432 102.942375 
L 296.50787 102.832441 
L 296.623174 102.813773 
L 297.1332 102.703838 
L 297.245978 102.689319 
L 297.795667 102.579384 
L 297.907741 102.556568 
L 298.504172 102.446634 
L 298.617198 102.417594 
L 299.143288 102.30766 
L 299.259296 102.284843 
L 299.772675 102.174909 
L 299.886654 102.150018 
L 300.395272 102.040084 
L 300.513536 102.008971 
L 300.966407 101.899036 
L 301.082539 101.869997 
L 301.199374 101.855478 
L 301.768646 101.745543 
L 301.884446 101.718578 
L 302.366899 101.608644 
L 302.480753 101.57753 
L 303.081863 101.467596 
L 303.194827 101.436483 
L 303.664424 101.328623 
L 303.77861 101.303732 
L 303.895487 101.280915 
L 304.328299 101.170981 
L 304.441905 101.156461 
L 304.793611 101.046527 
L 304.907383 101.017488 
L 305.507126 100.907554 
L 305.621477 100.878514 
L 305.989952 100.76858 
L 306.104303 100.747838 
L 306.670304 100.637904 
L 306.786145 100.604716 
L 307.301595 100.494782 
L 307.416857 100.465742 
L 307.988862 100.355808 
L 308.10313 100.328843 
L 308.581401 100.218909 
L 308.694055 100.196092 
L 309.184953 100.086158 
L 309.299677 100.055044 
L 309.833509 99.94511 
L 309.946577 99.913997 
L 310.452173 99.804062 
L 310.56404 99.779172 
L 310.980913 99.669237 
L 311.102054 99.629827 
L 311.557099 99.519893 
L 311.675176 99.490853 
L 312.004567 99.379882 
L 312.119808 99.362251 
L 312.67461 99.252317 
L 312.791404 99.225352 
L 313.257214 99.115417 
L 313.36995 99.090527 
L 313.840189 98.980592 
L 313.955244 98.953627 
L 314.317964 98.843693 
L 314.430576 98.820877 
L 314.846703 98.710942 
L 314.958943 98.692274 
L 315.321476 98.58234 
L 315.433861 98.559523 
L 315.846386 98.449589 
L 315.959288 98.437144 
L 316.367259 98.327209 
L 316.478961 98.291947 
L 316.890989 98.180976 
L 317.007162 98.144677 
L 317.589062 98.034743 
L 317.700515 98.007778 
L 318.130263 97.897843 
L 318.243828 97.868804 
L 318.728847 97.75887 
L 318.841211 97.725682 
L 319.378397 97.615748 
L 319.490429 97.601228 
L 320.050924 97.491294 
L 320.163288 97.460181 
L 320.675012 97.350246 
L 320.78692 97.331578 
L 321.278067 97.221644 
L 321.392004 97.188456 
L 321.887292 97.077485 
L 322.000339 97.055705 
L 322.414665 96.945771 
L 322.530465 96.912583 
L 322.927465 96.802649 
L 323.040864 96.775684 
L 323.465644 96.66575 
L 323.577553 96.645007 
L 324.090974 96.535073 
L 324.207768 96.493589 
L 324.654035 96.383654 
L 324.768821 96.350467 
L 325.192339 96.240532 
L 325.306814 96.211493 
L 325.732298 96.101559 
L 325.846132 96.058 
L 326.258057 95.947029 
L 326.367026 95.914878 
L 326.369096 95.914878 
L 326.765268 95.804944 
L 326.881441 95.775904 
L 327.365177 95.66597 
L 327.4787 95.647302 
L 327.767311 95.536331 
L 327.887375 95.502106 
L 328.318862 95.392172 
L 328.4328 95.369355 
L 328.881262 95.259421 
L 328.990686 95.215862 
L 328.992321 95.215862 
L 329.397084 95.105928 
L 329.509986 95.07274 
L 330.052595 94.962806 
L 330.16587 94.929618 
L 330.584399 94.819684 
L 330.697177 94.786496 
L 331.171225 94.676562 
L 331.283713 94.639225 
L 331.7719 94.529291 
L 331.884574 94.500252 
L 332.23686 94.390318 
L 332.348562 94.35713 
L 332.676131 94.247196 
L 332.788454 94.218156 
L 333.22346 94.108222 
L 333.337066 94.081257 
L 333.667078 93.971323 
L 333.780022 93.942284 
L 334.230678 93.832349 
L 334.342628 93.811607 
L 334.757886 93.701673 
L 334.870829 93.683005 
L 335.37833 93.57307 
L 335.490735 93.554402 
L 335.912079 93.444468 
L 336.028004 93.409206 
L 336.519565 93.299272 
L 336.632632 93.266084 
L 337.050913 93.15615 
L 337.164208 93.122962 
L 337.681749 93.013028 
L 337.79788 92.983989 
L 338.087981 92.874054 
L 338.197488 92.851238 
L 338.198937 92.851238 
L 338.587325 92.741303 
L 338.699772 92.708116 
L 339.188311 92.598181 
L 339.299681 92.579513 
L 339.67685 92.469579 
L 339.78851 92.44054 
L 340.11463 92.330606 
L 340.228236 92.303641 
L 340.661918 92.193706 
L 340.774199 92.162593 
L 341.190409 92.052659 
L 341.302649 92.025693 
L 341.652409 91.915759 
L 341.763904 91.897091 
L 342.135007 91.787157 
L 342.247309 91.745672 
L 342.626464 91.635738 
L 342.626464 91.634701 
L 342.740753 91.598402 
L 343.166507 91.488467 
L 343.260695 91.451131 
L 343.277546 91.451131 
L 343.581889 91.341197 
L 343.695246 91.303861 
L 344.043351 91.193927 
L 344.155466 91.144145 
L 344.535077 91.034211 
L 344.647441 91.001023 
L 345.015957 90.891089 
L 345.125961 90.864124 
L 345.126872 90.864124 
L 345.509298 90.754189 
L 345.623732 90.708556 
L 345.908534 90.598622 
L 346.021105 90.575806 
L 346.437812 90.465871 
L 346.551335 90.438906 
L 346.926971 90.328972 
L 347.038963 90.306155 
L 347.359204 90.196221 
L 347.473431 90.14644 
L 347.884321 90.036505 
L 348.001467 89.997095 
L 348.374743 89.887161 
L 348.4869 89.86227 
L 348.887419 89.752336 
L 348.998955 89.727445 
L 349.42506 89.61751 
L 349.538563 89.580174 
L 349.856589 89.47024 
L 349.954421 89.443275 
L 349.967628 89.443275 
L 350.354029 89.333341 
L 350.465731 89.302227 
L 350.806797 89.192293 
L 350.917463 89.171551 
L 350.917877 89.171551 
L 351.282004 89.061616 
L 351.282004 89.060579 
L 351.397432 89.009761 
L 351.666335 88.899826 
L 351.768866 88.864564 
L 351.777374 88.864564 
L 352.164686 88.75463 
L 352.26554 88.719368 
L 352.275663 88.719368 
L 352.611161 88.609434 
L 352.729901 88.557578 
L 353.021244 88.447644 
L 353.118951 88.414456 
L 353.132324 88.414456 
L 353.568904 88.304522 
L 353.680812 88.277557 
L 354.033637 88.167623 
L 354.148195 88.138583 
L 354.560886 88.028649 
L 354.672546 88.001684 
L 355.075259 87.89175 
L 355.184021 87.844042 
L 355.186215 87.844042 
L 355.489027 87.734108 
L 355.601308 87.702995 
L 355.957693 87.59306 
L 355.957693 87.592023 
L 356.070553 87.549501 
L 356.425199 87.439567 
L 356.523901 87.389786 
L 356.536238 87.389786 
L 356.936178 87.279851 
L 357.035914 87.252886 
L 357.047258 87.252886 
L 357.39025 87.142952 
L 357.50516 87.091096 
L 357.869328 86.981162 
L 357.981236 86.941752 
L 358.435163 86.83078 
L 358.54612 86.792407 
L 358.546244 86.792407 
L 358.883708 86.682473 
L 358.996279 86.632691 
L 359.329107 86.522757 
L 359.441595 86.489569 
L 359.909971 86.379635 
L 360.021879 86.340224 
L 360.423392 86.23029 
L 360.535259 86.188805 
L 360.808675 86.077834 
L 360.924144 86.047758 
L 361.209732 85.937823 
L 361.322986 85.904636 
L 361.697816 85.794701 
L 361.805646 85.755291 
L 361.808917 85.755291 
L 362.090799 85.645357 
L 362.202625 85.610095 
L 362.562736 85.499123 
L 362.672906 85.464899 
L 362.67361 85.464899 
L 362.956217 85.354964 
L 363.060549 85.317628 
L 363.067049 85.317628 
L 363.456679 85.207694 
L 363.570078 85.15169 
L 363.864568 85.041755 
L 363.976393 85.004419 
L 364.317418 84.894485 
L 364.424069 84.853 
L 364.428416 84.853 
L 364.721994 84.743066 
L 364.834193 84.684988 
L 365.184947 84.575053 
L 365.296317 84.560534 
L 365.605794 84.450599 
L 365.71762 84.409115 
L 366.003953 84.29918 
L 366.110024 84.257696 
L 366.114992 84.257696 
L 366.456845 84.147762 
L 366.56925 84.08346 
L 366.92696 83.973526 
L 367.022474 83.940338 
L 367.038041 83.940338 
L 367.466112 83.830404 
L 367.579532 83.782697 
L 367.857792 83.672762 
L 367.968748 83.631278 
L 367.968893 83.631278 
L 368.327576 83.521344 
L 368.41394 83.486082 
L 368.438615 83.486082 
L 368.714846 83.376147 
L 368.826672 83.336737 
L 369.156311 83.226803 
L 369.269379 83.179095 
L 369.496384 83.069161 
L 369.604649 83.033899 
L 369.607423 83.033899 
L 370.006493 82.923965 
L 370.108051 82.884554 
L 370.117573 82.884554 
L 370.447027 82.77462 
L 370.559908 82.739358 
L 370.861063 82.629424 
L 370.968335 82.59831 
L 370.972102 82.59831 
L 371.273837 82.488376 
L 371.385911 82.440669 
L 371.6727 82.330735 
L 371.786637 82.299621 
L 372.064318 82.189687 
L 372.175729 82.158573 
L 372.419295 82.048639 
L 372.518907 82.0196 
L 372.530375 82.0196 
L 372.887712 81.909666 
L 373.000821 81.859884 
L 373.235444 81.74995 
L 373.343792 81.710539 
L 373.346525 81.710539 
L 373.715827 81.600605 
L 373.825251 81.55912 
L 373.826907 81.55912 
L 374.060702 81.449186 
L 374.172652 81.407701 
L 374.453189 81.297767 
L 374.554871 81.272876 
L 374.56427 81.272876 
L 374.891135 81.162942 
L 374.891135 81.161905 
L 375.004037 81.117309 
L 375.294842 81.007375 
L 375.394247 80.974187 
L 375.405798 80.974187 
L 375.723514 80.864253 
L 375.835298 80.824842 
L 376.137778 80.714908 
L 376.23855 80.671349 
L 376.248776 80.671349 
L 376.598537 80.561415 
L 376.707091 80.499188 
L 376.709534 80.499188 
L 376.982867 80.389254 
L 377.092457 80.353992 
L 377.093907 80.353992 
L 377.445447 80.244057 
L 377.550483 80.200499 
L 377.556445 80.200499 
L 377.931171 80.090564 
L 378.042789 80.063599 
L 378.359553 79.953665 
L 378.471751 79.897661 
L 378.755518 79.787726 
L 378.858235 79.746242 
L 378.866557 79.746242 
L 379.202282 79.636308 
L 379.314481 79.582378 
L 379.695582 79.472443 
L 379.803019 79.412291 
L 379.806621 79.412291 
L 380.071177 79.302356 
L 380.171245 79.244278 
L 380.182134 79.244278 
L 380.487388 79.134343 
L 380.582942 79.105304 
L 380.598427 79.105304 
L 380.839839 78.994333 
L 380.948022 78.958034 
L 380.95092 78.958034 
L 381.209887 78.8481 
L 381.321712 78.810763 
L 381.639511 78.700829 
L 381.748563 78.663493 
L 381.750591 78.663493 
L 382.029928 78.553559 
L 382.139477 78.505851 
L 382.140926 78.505851 
L 382.4131 78.395917 
L 382.5171 78.346135 
L 382.52418 78.346135 
L 382.743691 78.235164 
L 382.840612 78.190568 
L 382.854441 78.190568 
L 383.10136 78.080634 
L 383.186523 78.04952 
L 383.212357 78.04952 
L 383.479604 77.939586 
L 383.588449 77.898101 
L 383.590644 77.898101 
L 383.863894 77.788167 
L 383.972904 77.736311 
L 383.974974 77.736311 
L 384.207776 77.626377 
L 384.316331 77.572447 
L 384.317738 77.572447 
L 384.657894 77.462513 
L 384.762971 77.404434 
L 384.768974 77.404434 
L 385.037381 77.2945 
L 385.149579 77.238496 
L 385.477728 77.128561 
L 385.477728 77.127524 
L 385.590589 77.072557 
L 385.854193 76.962623 
L 385.941591 76.910767 
L 385.9649 76.910767 
L 386.237281 76.800833 
L 386.349107 76.7552 
L 386.587704 76.645265 
L 386.695183 76.587187 
L 386.698743 76.587187 
L 386.994558 76.477253 
L 387.097068 76.454436 
L 387.105659 76.454436 
L 387.429481 76.344502 
L 387.53725 76.30924 
L 387.540562 76.30924 
L 387.762143 76.199306 
L 387.872975 76.141227 
L 387.873141 76.141227 
L 388.137449 76.030256 
L 388.241242 75.979437 
L 388.248488 75.979437 
L 388.475161 75.869503 
L 388.585828 75.819721 
L 388.585869 75.819721 
L 388.823183 75.709787 
L 388.925445 75.670377 
L 388.934264 75.670377 
L 389.212689 75.560442 
L 389.32526 75.483696 
L 389.55951 75.373761 
L 389.671377 75.336425 
L 389.961064 75.226491 
L 390.07318 75.172561 
L 390.403896 75.062627 
L 390.517212 75.008697 
L 390.787937 74.898762 
L 390.897982 74.82409 
L 390.899017 74.82409 
L 391.109627 74.714156 
L 391.222695 74.664374 
L 391.44498 74.55444 
L 391.550802 74.492213 
L 391.55606 74.492213 
L 391.738434 74.382279 
L 391.845913 74.344943 
L 391.849308 74.344943 
L 392.146654 74.235008 
L 392.248047 74.185227 
L 392.257755 74.185227 
L 392.482173 74.075292 
L 392.591887 74.006843 
L 392.592963 74.006843 
L 392.838061 73.896908 
L 392.932705 73.830533 
L 392.9491 73.830533 
L 393.132964 73.720599 
L 393.245287 73.660446 
L 393.507152 73.550512 
L 393.617735 73.486211 
L 393.618232 73.486211 
L 393.77738 73.376276 
L 393.77738 73.375239 
L 393.890075 73.330643 
L 394.10971 73.220709 
L 394.223855 73.146037 
L 394.403869 73.036102 
L 394.514908 72.971801 
L 394.735371 72.861867 
L 394.84641 72.807937 
L 394.846452 72.807937 
L 395.048119 72.698003 
L 395.159944 72.62333 
L 395.33557 72.513396 
L 395.33557 72.512359 
L 395.449714 72.432501 
L 395.67676 72.322567 
L 395.788379 72.270711 
L 395.986196 72.160777 
L 396.09206 72.108921 
L 396.097235 72.108921 
L 396.313393 71.998986 
L 396.313393 71.997949 
L 396.426295 71.953353 
L 396.609787 71.843419 
L 396.719956 71.762524 
L 396.720867 71.762524 
L 396.908168 71.65259 
L 397.020325 71.592437 
L 397.220087 71.482503 
L 397.329553 71.405756 
L 397.331189 71.405756 
L 397.527122 71.295822 
L 397.527122 71.294785 
L 397.640562 71.235669 
L 397.826248 71.125735 
L 397.938281 71.067656 
L 398.122725 70.957722 
L 398.236124 70.889272 
L 398.399018 70.779338 
L 398.510906 70.694295 
L 398.710834 70.58436 
L 398.816077 70.488946 
L 398.821915 70.488946 
L 398.97332 70.379011 
L 399.08171 70.312636 
L 399.084359 70.312636 
L 399.286689 70.202702 
L 399.395948 70.15292 
L 399.397687 70.15292 
L 399.563707 70.042986 
L 399.672096 69.960017 
L 399.674746 69.960017 
L 399.848053 69.850082 
L 399.957519 69.777484 
L 399.958761 69.777484 
L 400.135049 69.66755 
L 400.243977 69.588729 
L 400.246047 69.588729 
L 400.420885 69.478795 
L 400.528198 69.399974 
L 400.531966 69.399974 
L 400.70548 69.29004 
L 400.816271 69.225739 
L 400.81656 69.225739 
L 400.941924 69.115804 
L 401.049155 69.041132 
L 401.052715 69.041132 
L 401.25314 68.931198 
L 401.362689 68.856525 
L 401.363972 68.856525 
L 401.520512 68.746591 
L 401.622898 68.686438 
L 401.631592 68.686438 
L 401.789167 68.576504 
L 401.898467 68.499758 
L 401.900247 68.499758 
L 402.065978 68.388786 
L 402.170144 68.313077 
L 402.177058 68.313077 
L 402.331776 68.203142 
L 402.442152 68.101505 
L 402.442856 68.101505 
L 402.624775 67.991571 
L 402.735855 67.887859 
L 402.895003 67.777925 
L 403.002109 67.71155 
L 403.006042 67.71155 
L 403.144116 67.601615 
L 403.25383 67.516572 
L 403.255197 67.516572 
L 403.417077 67.406637 
L 403.526584 67.338188 
L 403.528157 67.338188 
L 403.670579 67.228254 
L 403.78079 67.141136 
L 403.781659 67.141136 
L 403.970451 67.031202 
L 404.0812 66.952381 
L 404.081324 66.952381 
L 404.233144 66.842446 
L 404.345094 66.757403 
L 404.498072 66.647469 
L 404.606834 66.568648 
L 404.609153 66.568648 
L 404.767431 66.458714 
L 404.876027 66.350854 
L 404.878512 66.350854 
L 405.052315 66.240919 
L 405.163189 66.14343 
L 405.163396 66.14343 
L 405.338856 66.033496 
L 405.44915 65.933933 
L 405.449812 65.933933 
L 405.569049 65.823999 
L 405.678432 65.728584 
L 405.680129 65.728584 
L 405.814022 65.61865 
L 405.92386 65.519087 
L 405.925102 65.519087 
L 406.068228 65.409152 
L 406.177859 65.324109 
L 406.179267 65.324109 
L 406.296226 65.214175 
L 406.40445 65.11876 
L 406.407307 65.11876 
L 406.548693 65.008826 
L 406.658366 64.913411 
L 406.659525 64.913411 
L 406.785965 64.803477 
L 406.893444 64.701839 
L 406.897005 64.701839 
L 407.000219 64.591905 
L 407.106828 64.488193 
L 407.111299 64.488193 
L 407.224367 64.378259 
L 407.334619 64.289067 
L 407.335447 64.289067 
L 407.471576 64.179133 
L 407.582242 64.069199 
L 407.710339 63.959264 
L 407.820467 63.867998 
L 407.821378 63.867998 
L 407.923971 63.758064 
L 408.033602 63.656427 
L 408.035051 63.656427 
L 408.163106 63.546492 
L 408.27104 63.451078 
L 408.274104 63.451078 
L 408.348917 63.341143 
L 408.459956 63.24158 
L 408.574431 63.131646 
L 408.6834 63.050751 
L 408.685305 63.050751 
L 408.805659 62.940817 
L 408.91409 62.84955 
L 408.91674 62.84955 
L 409.039951 62.739616 
L 409.14805 62.621385 
L 409.15099 62.621385 
L 409.273787 62.511451 
L 409.383046 62.380774 
L 409.384743 62.380774 
L 409.492553 62.27084 
L 409.603012 62.14846 
L 409.603633 62.14846 
L 409.730115 62.0406 
L 409.730115 62.038526 
L 409.838711 61.922369 
L 409.841196 61.922369 
L 409.974219 61.812435 
L 410.083519 61.696278 
L 410.085299 61.696278 
L 410.183338 61.586343 
L 410.293715 61.436999 
L 410.294419 61.436999 
L 410.397012 61.327064 
L 410.507885 61.198462 
L 410.608905 61.088528 
L 410.718619 60.959925 
L 410.719654 60.959925 
L 410.82142 60.849991 
L 410.929312 60.735908 
L 410.932376 60.735908 
L 411.023956 60.625974 
L 411.133339 60.472481 
L 411.134664 60.472481 
L 411.2344 60.362547 
L 411.344322 60.225647 
L 411.345315 60.225647 
L 411.429774 60.115713 
L 411.538826 59.964294 
L 411.540855 59.964294 
L 411.655289 59.794207 
L 411.736602 59.684273 
L 411.843294 59.543225 
L 411.847516 59.543225 
L 411.935826 59.433291 
L 412.046037 59.283946 
L 412.046927 59.283946 
L 412.139273 59.174012 
L 412.249443 58.999776 
L 412.250313 58.999776 
L 412.331584 58.889842 
L 412.440222 58.699013 
L 412.442664 58.699013 
L 412.530311 58.589079 
L 412.640647 58.425214 
L 412.641392 58.425214 
L 412.712561 58.31528 
L 412.8236 58.157638 
L 412.897916 58.047704 
L 413.006181 57.850652 
L 413.008997 57.850652 
L 413.059341 57.740718 
L 413.167855 57.504255 
L 413.170421 57.504255 
L 413.224616 57.394321 
L 413.335407 57.182749 
L 413.335697 57.182749 
L 413.397385 57.072815 
L 413.506768 56.834279 
L 413.508465 56.834279 
L 413.559555 56.724344 
L 413.670553 56.433952 
L 413.670635 56.433952 
L 413.721684 56.324018 
L 413.832267 56.073035 
L 413.832764 56.073035 
L 413.883274 55.963101 
L 413.991829 55.712119 
L 413.994354 55.712119 
L 414.036543 55.602185 
L 414.146547 55.334609 
L 414.147623 55.334609 
L 414.200866 55.224675 
L 414.311449 54.994435 
L 414.311905 54.994435 
L 414.357778 54.884501 
L 414.467906 54.635593 
L 414.468817 54.635593 
L 414.520279 54.525659 
L 414.631069 54.282974 
L 414.631359 54.282974 
L 414.690605 54.173039 
L 414.71379 54.144 
L 414.72 54.144 
" clip-path="url(#p22c2fc309c)" style="fill: none; stroke: #ff8c00; stroke-width: 1.5; stroke-linecap: square"/>
   </g>
   <g id="line2d_14">
    <path d="M 74.605714 307.584 
L 414.72 54.144 
" clip-path="url(#p22c2fc309c)" style="fill: none; stroke-dasharray: 5.55,2.4; stroke-dashoffset: 0; stroke: #0000ff; stroke-width: 1.5"/>
   </g>
   <g id="patch_3">
    <path d="M 57.6 307.584 
L 57.6 41.472 
" style="fill: none; stroke: #000000; stroke-width: 0.8; stroke-linejoin: miter; stroke-linecap: square"/>
   </g>
   <g id="patch_4">
    <path d="M 414.72 307.584 
L 414.72 41.472 
" style="fill: none; stroke: #000000; stroke-width: 0.8; stroke-linejoin: miter; stroke-linecap: square"/>
   </g>
   <g id="patch_5">
    <path d="M 57.6 307.584 
L 414.72 307.584 
" style="fill: none; stroke: #000000; stroke-width: 0.8; stroke-linejoin: miter; stroke-linecap: square"/>
   </g>
   <g id="patch_6">
    <path d="M 57.6 41.472 
L 414.72 41.472 
" style="fill: none; stroke: #000000; stroke-width: 0.8; stroke-linejoin: miter; stroke-linecap: square"/>
   </g>
   <g id="text_15">
    <!-- ROC CURVE -->
    <g transform="translate(200.855625 35.472)scale(0.12 -0.12)">
     <defs>
      <path id="DejaVuSans-4f" d="M 2522 4238 
Q 1834 4238 1429 3725 
Q 1025 3213 1025 2328 
Q 1025 1447 1429 934 
Q 1834 422 2522 422 
Q 3209 422 3611 934 
Q 4013 1447 4013 2328 
Q 4013 3213 3611 3725 
Q 3209 4238 2522 4238 
z
M 2522 4750 
Q 3503 4750 4090 4092 
Q 4678 3434 4678 2328 
Q 4678 1225 4090 567 
Q 3503 -91 2522 -91 
Q 1538 -91 948 565 
Q 359 1222 359 2328 
Q 359 3434 948 4092 
Q 1538 4750 2522 4750 
z
" transform="scale(0.015625)"/>
      <path id="DejaVuSans-43" d="M 4122 4306 
L 4122 3641 
Q 3803 3938 3442 4084 
Q 3081 4231 2675 4231 
Q 1875 4231 1450 3742 
Q 1025 3253 1025 2328 
Q 1025 1406 1450 917 
Q 1875 428 2675 428 
Q 3081 428 3442 575 
Q 3803 722 4122 1019 
L 4122 359 
Q 3791 134 3420 21 
Q 3050 -91 2638 -91 
Q 1578 -91 968 557 
Q 359 1206 359 2328 
Q 359 3453 968 4101 
Q 1578 4750 2638 4750 
Q 3056 4750 3426 4639 
Q 3797 4528 4122 4306 
z
" transform="scale(0.015625)"/>
      <path id="DejaVuSans-55" d="M 556 4666 
L 1191 4666 
L 1191 1831 
Q 1191 1081 1462 751 
Q 1734 422 2344 422 
Q 2950 422 3222 751 
Q 3494 1081 3494 1831 
L 3494 4666 
L 4128 4666 
L 4128 1753 
Q 4128 841 3676 375 
Q 3225 -91 2344 -91 
Q 1459 -91 1007 375 
Q 556 841 556 1753 
L 556 4666 
z
" transform="scale(0.015625)"/>
      <path id="DejaVuSans-56" d="M 1831 0 
L 50 4666 
L 709 4666 
L 2188 738 
L 3669 4666 
L 4325 4666 
L 2547 0 
L 1831 0 
z
" transform="scale(0.015625)"/>
      <path id="DejaVuSans-45" d="M 628 4666 
L 3578 4666 
L 3578 4134 
L 1259 4134 
L 1259 2753 
L 3481 2753 
L 3481 2222 
L 1259 2222 
L 1259 531 
L 3634 531 
L 3634 0 
L 628 0 
L 628 4666 
z
" transform="scale(0.015625)"/>
     </defs>
     <use xlink:href="#DejaVuSans-52"/>
     <use xlink:href="#DejaVuSans-4f" x="69.482422"/>
     <use xlink:href="#DejaVuSans-43" x="148.193359"/>
     <use xlink:href="#DejaVuSans-20" x="218.017578"/>
     <use xlink:href="#DejaVuSans-43" x="249.804688"/>
     <use xlink:href="#DejaVuSans-55" x="319.628906"/>
     <use xlink:href="#DejaVuSans-52" x="392.822266"/>
     <use xlink:href="#DejaVuSans-56" x="456.804688"/>
     <use xlink:href="#DejaVuSans-45" x="525.212891"/>
    </g>
   </g>
   <g id="legend_1">
    <g id="patch_7">
     <path d="M 234.97 302.584 
L 407.72 302.584 
Q 409.72 302.584 409.72 300.584 
L 409.72 286.905875 
Q 409.72 284.905875 407.72 284.905875 
L 234.97 284.905875 
Q 232.97 284.905875 232.97 286.905875 
L 232.97 300.584 
Q 232.97 302.584 234.97 302.584 
z
" style="fill: #ffffff; opacity: 0.8; stroke: #cccccc; stroke-linejoin: miter"/>
    </g>
    <g id="line2d_15">
     <path d="M 236.97 293.004312 
L 246.97 293.004312 
L 256.97 293.004312 
" style="fill: none; stroke: #ff8c00; stroke-width: 1.5; stroke-linecap: square"/>
    </g>
    <g id="text_16">
     <!-- ROC curve (ROC AUC=0.71) -->
     <g transform="translate(264.97 296.504312)scale(0.1 -0.1)">
      <defs>
       <path id="DejaVuSans-63" d="M 3122 3366 
L 3122 2828 
Q 2878 2963 2633 3030 
Q 2388 3097 2138 3097 
Q 1578 3097 1268 2742 
Q 959 2388 959 1747 
Q 959 1106 1268 751 
Q 1578 397 2138 397 
Q 2388 397 2633 464 
Q 2878 531 3122 666 
L 3122 134 
Q 2881 22 2623 -34 
Q 2366 -91 2075 -91 
Q 1284 -91 818 406 
Q 353 903 353 1747 
Q 353 2603 823 3093 
Q 1294 3584 2113 3584 
Q 2378 3584 2631 3529 
Q 2884 3475 3122 3366 
z
" transform="scale(0.015625)"/>
       <path id="DejaVuSans-28" d="M 1984 4856 
Q 1566 4138 1362 3434 
Q 1159 2731 1159 2009 
Q 1159 1288 1364 580 
Q 1569 -128 1984 -844 
L 1484 -844 
Q 1016 -109 783 600 
Q 550 1309 550 2009 
Q 550 2706 781 3412 
Q 1013 4119 1484 4856 
L 1984 4856 
z
" transform="scale(0.015625)"/>
       <path id="DejaVuSans-41" d="M 2188 4044 
L 1331 1722 
L 3047 1722 
L 2188 4044 
z
M 1831 4666 
L 2547 4666 
L 4325 0 
L 3669 0 
L 3244 1197 
L 1141 1197 
L 716 0 
L 50 0 
L 1831 4666 
z
" transform="scale(0.015625)"/>
       <path id="DejaVuSans-3d" d="M 678 2906 
L 4684 2906 
L 4684 2381 
L 678 2381 
L 678 2906 
z
M 678 1631 
L 4684 1631 
L 4684 1100 
L 678 1100 
L 678 1631 
z
" transform="scale(0.015625)"/>
       <path id="DejaVuSans-37" d="M 525 4666 
L 3525 4666 
L 3525 4397 
L 1831 0 
L 1172 0 
L 2766 4134 
L 525 4134 
L 525 4666 
z
" transform="scale(0.015625)"/>
       <path id="DejaVuSans-29" d="M 513 4856 
L 1013 4856 
Q 1481 4119 1714 3412 
Q 1947 2706 1947 2009 
Q 1947 1309 1714 600 
Q 1481 -109 1013 -844 
L 513 -844 
Q 928 -128 1133 580 
Q 1338 1288 1338 2009 
Q 1338 2731 1133 3434 
Q 928 4138 513 4856 
z
" transform="scale(0.015625)"/>
      </defs>
      <use xlink:href="#DejaVuSans-52"/>
      <use xlink:href="#DejaVuSans-4f" x="69.482422"/>
      <use xlink:href="#DejaVuSans-43" x="148.193359"/>
      <use xlink:href="#DejaVuSans-20" x="218.017578"/>
      <use xlink:href="#DejaVuSans-63" x="249.804688"/>
      <use xlink:href="#DejaVuSans-75" x="304.785156"/>
      <use xlink:href="#DejaVuSans-72" x="368.164062"/>
      <use xlink:href="#DejaVuSans-76" x="409.277344"/>
      <use xlink:href="#DejaVuSans-65" x="468.457031"/>
      <use xlink:href="#DejaVuSans-20" x="529.980469"/>
      <use xlink:href="#DejaVuSans-28" x="561.767578"/>
      <use xlink:href="#DejaVuSans-52" x="600.78125"/>
      <use xlink:href="#DejaVuSans-4f" x="670.263672"/>
      <use xlink:href="#DejaVuSans-43" x="748.974609"/>
      <use xlink:href="#DejaVuSans-20" x="818.798828"/>
      <use xlink:href="#DejaVuSans-41" x="850.585938"/>
      <use xlink:href="#DejaVuSans-55" x="918.994141"/>
      <use xlink:href="#DejaVuSans-43" x="992.1875"/>
      <use xlink:href="#DejaVuSans-3d" x="1062.011719"/>
      <use xlink:href="#DejaVuSans-30" x="1145.800781"/>
      <use xlink:href="#DejaVuSans-2e" x="1209.423828"/>
      <use xlink:href="#DejaVuSans-37" x="1241.210938"/>
      <use xlink:href="#DejaVuSans-31" x="1304.833984"/>
      <use xlink:href="#DejaVuSans-29" x="1368.457031"/>
     </g>
    </g>
   </g>
  </g>
 </g>
 <defs>
  <clipPath id="p22c2fc309c">
   <rect x="57.6" y="41.472" width="357.12" height="266.112"/>
  </clipPath>
 </defs>
</svg>
