<?xml version="1.0" encoding="utf-8" standalone="no"?>
<!DOCTYPE svg PUBLIC "-//W3C//DTD SVG 1.1//EN"
  "http://www.w3.org/Graphics/SVG/1.1/DTD/svg11.dtd">
<svg xmlns:xlink="http://www.w3.org/1999/xlink" width="460.8pt" height="345.6pt" viewBox="0 0 460.8 345.6" xmlns="http://www.w3.org/2000/svg" version="1.1">
 <metadata>
  <rdf:RDF xmlns:dc="http://purl.org/dc/elements/1.1/" xmlns:cc="http://creativecommons.org/ns#" xmlns:rdf="http://www.w3.org/1999/02/22-rdf-syntax-ns#">
   <cc:Work>
    <dc:type rdf:resource="http://purl.org/dc/dcmitype/StillImage"/>
    <dc:date>2022-05-20T09:56:22.740263</dc:date>
    <dc:format>image/svg+xml</dc:format>
    <dc:creator>
     <cc:Agent>
      <dc:title>Matplotlib v3.5.1, https://matplotlib.org/</dc:title>
     </cc:Agent>
    </dc:creator>
   </cc:Work>
  </rdf:RDF>
 </metadata>
 <defs>
  <style type="text/css">*{stroke-linejoin: round; stroke-linecap: butt}</style>
 </defs>
 <g id="figure_1">
  <g id="patch_1">
   <path d="M 0 345.6 
L 460.8 345.6 
L 460.8 0 
L 0 0 
z
" style="fill: #ffffff"/>
  </g>
  <g id="axes_1">
   <g id="patch_2">
    <path d="M 57.6 307.584 
L 414.72 307.584 
L 414.72 41.472 
L 57.6 41.472 
z
" style="fill: #ffffff"/>
   </g>
   <g id="matplotlib.axis_1">
    <g id="xtick_1">
     <g id="line2d_1">
      <defs>
       <path id="mdf5450bf1c" d="M 0 0 
L 0 3.5 
" style="stroke: #000000; stroke-width: 0.8"/>
      </defs>
      <g>
       <use xlink:href="#mdf5450bf1c" x="74.605714" y="307.584" style="stroke: #000000; stroke-width: 0.8"/>
      </g>
     </g>
     <g id="text_1">
      <!-- 0.0 -->
      <g transform="translate(66.654152 322.182437)scale(0.1 -0.1)">
       <defs>
        <path id="DejaVuSans-30" d="M 2034 4250 
Q 1547 4250 1301 3770 
Q 1056 3291 1056 2328 
Q 1056 1369 1301 889 
Q 1547 409 2034 409 
Q 2525 409 2770 889 
Q 3016 1369 3016 2328 
Q 3016 3291 2770 3770 
Q 2525 4250 2034 4250 
z
M 2034 4750 
Q 2819 4750 3233 4129 
Q 3647 3509 3647 2328 
Q 3647 1150 3233 529 
Q 2819 -91 2034 -91 
Q 1250 -91 836 529 
Q 422 1150 422 2328 
Q 422 3509 836 4129 
Q 1250 4750 2034 4750 
z
" transform="scale(0.015625)"/>
        <path id="DejaVuSans-2e" d="M 684 794 
L 1344 794 
L 1344 0 
L 684 0 
L 684 794 
z
" transform="scale(0.015625)"/>
       </defs>
       <use xlink:href="#DejaVuSans-30"/>
       <use xlink:href="#DejaVuSans-2e" x="63.623047"/>
       <use xlink:href="#DejaVuSans-30" x="95.410156"/>
      </g>
     </g>
    </g>
    <g id="xtick_2">
     <g id="line2d_2">
      <g>
       <use xlink:href="#mdf5450bf1c" x="142.628571" y="307.584" style="stroke: #000000; stroke-width: 0.8"/>
      </g>
     </g>
     <g id="text_2">
      <!-- 0.2 -->
      <g transform="translate(134.677009 322.182437)scale(0.1 -0.1)">
       <defs>
        <path id="DejaVuSans-32" d="M 1228 531 
L 3431 531 
L 3431 0 
L 469 0 
L 469 531 
Q 828 903 1448 1529 
Q 2069 2156 2228 2338 
Q 2531 2678 2651 2914 
Q 2772 3150 2772 3378 
Q 2772 3750 2511 3984 
Q 2250 4219 1831 4219 
Q 1534 4219 1204 4116 
Q 875 4013 500 3803 
L 500 4441 
Q 881 4594 1212 4672 
Q 1544 4750 1819 4750 
Q 2544 4750 2975 4387 
Q 3406 4025 3406 3419 
Q 3406 3131 3298 2873 
Q 3191 2616 2906 2266 
Q 2828 2175 2409 1742 
Q 1991 1309 1228 531 
z
" transform="scale(0.015625)"/>
       </defs>
       <use xlink:href="#DejaVuSans-30"/>
       <use xlink:href="#DejaVuSans-2e" x="63.623047"/>
       <use xlink:href="#DejaVuSans-32" x="95.410156"/>
      </g>
     </g>
    </g>
    <g id="xtick_3">
     <g id="line2d_3">
      <g>
       <use xlink:href="#mdf5450bf1c" x="210.651429" y="307.584" style="stroke: #000000; stroke-width: 0.8"/>
      </g>
     </g>
     <g id="text_3">
      <!-- 0.4 -->
      <g transform="translate(202.699866 322.182437)scale(0.1 -0.1)">
       <defs>
        <path id="DejaVuSans-34" d="M 2419 4116 
L 825 1625 
L 2419 1625 
L 2419 4116 
z
M 2253 4666 
L 3047 4666 
L 3047 1625 
L 3713 1625 
L 3713 1100 
L 3047 1100 
L 3047 0 
L 2419 0 
L 2419 1100 
L 313 1100 
L 313 1709 
L 2253 4666 
z
" transform="scale(0.015625)"/>
       </defs>
       <use xlink:href="#DejaVuSans-30"/>
       <use xlink:href="#DejaVuSans-2e" x="63.623047"/>
       <use xlink:href="#DejaVuSans-34" x="95.410156"/>
      </g>
     </g>
    </g>
    <g id="xtick_4">
     <g id="line2d_4">
      <g>
       <use xlink:href="#mdf5450bf1c" x="278.674286" y="307.584" style="stroke: #000000; stroke-width: 0.8"/>
      </g>
     </g>
     <g id="text_4">
      <!-- 0.6 -->
      <g transform="translate(270.722723 322.182437)scale(0.1 -0.1)">
       <defs>
        <path id="DejaVuSans-36" d="M 2113 2584 
Q 1688 2584 1439 2293 
Q 1191 2003 1191 1497 
Q 1191 994 1439 701 
Q 1688 409 2113 409 
Q 2538 409 2786 701 
Q 3034 994 3034 1497 
Q 3034 2003 2786 2293 
Q 2538 2584 2113 2584 
z
M 3366 4563 
L 3366 3988 
Q 3128 4100 2886 4159 
Q 2644 4219 2406 4219 
Q 1781 4219 1451 3797 
Q 1122 3375 1075 2522 
Q 1259 2794 1537 2939 
Q 1816 3084 2150 3084 
Q 2853 3084 3261 2657 
Q 3669 2231 3669 1497 
Q 3669 778 3244 343 
Q 2819 -91 2113 -91 
Q 1303 -91 875 529 
Q 447 1150 447 2328 
Q 447 3434 972 4092 
Q 1497 4750 2381 4750 
Q 2619 4750 2861 4703 
Q 3103 4656 3366 4563 
z
" transform="scale(0.015625)"/>
       </defs>
       <use xlink:href="#DejaVuSans-30"/>
       <use xlink:href="#DejaVuSans-2e" x="63.623047"/>
       <use xlink:href="#DejaVuSans-36" x="95.410156"/>
      </g>
     </g>
    </g>
    <g id="xtick_5">
     <g id="line2d_5">
      <g>
       <use xlink:href="#mdf5450bf1c" x="346.697143" y="307.584" style="stroke: #000000; stroke-width: 0.8"/>
      </g>
     </g>
     <g id="text_5">
      <!-- 0.8 -->
      <g transform="translate(338.74558 322.182437)scale(0.1 -0.1)">
       <defs>
        <path id="DejaVuSans-38" d="M 2034 2216 
Q 1584 2216 1326 1975 
Q 1069 1734 1069 1313 
Q 1069 891 1326 650 
Q 1584 409 2034 409 
Q 2484 409 2743 651 
Q 3003 894 3003 1313 
Q 3003 1734 2745 1975 
Q 2488 2216 2034 2216 
z
M 1403 2484 
Q 997 2584 770 2862 
Q 544 3141 544 3541 
Q 544 4100 942 4425 
Q 1341 4750 2034 4750 
Q 2731 4750 3128 4425 
Q 3525 4100 3525 3541 
Q 3525 3141 3298 2862 
Q 3072 2584 2669 2484 
Q 3125 2378 3379 2068 
Q 3634 1759 3634 1313 
Q 3634 634 3220 271 
Q 2806 -91 2034 -91 
Q 1263 -91 848 271 
Q 434 634 434 1313 
Q 434 1759 690 2068 
Q 947 2378 1403 2484 
z
M 1172 3481 
Q 1172 3119 1398 2916 
Q 1625 2713 2034 2713 
Q 2441 2713 2670 2916 
Q 2900 3119 2900 3481 
Q 2900 3844 2670 4047 
Q 2441 4250 2034 4250 
Q 1625 4250 1398 4047 
Q 1172 3844 1172 3481 
z
" transform="scale(0.015625)"/>
       </defs>
       <use xlink:href="#DejaVuSans-30"/>
       <use xlink:href="#DejaVuSans-2e" x="63.623047"/>
       <use xlink:href="#DejaVuSans-38" x="95.410156"/>
      </g>
     </g>
    </g>
    <g id="xtick_6">
     <g id="line2d_6">
      <g>
       <use xlink:href="#mdf5450bf1c" x="414.72" y="307.584" style="stroke: #000000; stroke-width: 0.8"/>
      </g>
     </g>
     <g id="text_6">
      <!-- 1.0 -->
      <g transform="translate(406.768438 322.182437)scale(0.1 -0.1)">
       <defs>
        <path id="DejaVuSans-31" d="M 794 531 
L 1825 531 
L 1825 4091 
L 703 3866 
L 703 4441 
L 1819 4666 
L 2450 4666 
L 2450 531 
L 3481 531 
L 3481 0 
L 794 0 
L 794 531 
z
" transform="scale(0.015625)"/>
       </defs>
       <use xlink:href="#DejaVuSans-31"/>
       <use xlink:href="#DejaVuSans-2e" x="63.623047"/>
       <use xlink:href="#DejaVuSans-30" x="95.410156"/>
      </g>
     </g>
    </g>
    <g id="text_7">
     <!-- False Positive Rate -->
     <g transform="translate(189.693594 335.860562)scale(0.1 -0.1)">
      <defs>
       <path id="DejaVuSans-46" d="M 628 4666 
L 3309 4666 
L 3309 4134 
L 1259 4134 
L 1259 2759 
L 3109 2759 
L 3109 2228 
L 1259 2228 
L 1259 0 
L 628 0 
L 628 4666 
z
" transform="scale(0.015625)"/>
       <path id="DejaVuSans-61" d="M 2194 1759 
Q 1497 1759 1228 1600 
Q 959 1441 959 1056 
Q 959 750 1161 570 
Q 1363 391 1709 391 
Q 2188 391 2477 730 
Q 2766 1069 2766 1631 
L 2766 1759 
L 2194 1759 
z
M 3341 1997 
L 3341 0 
L 2766 0 
L 2766 531 
Q 2569 213 2275 61 
Q 1981 -91 1556 -91 
Q 1019 -91 701 211 
Q 384 513 384 1019 
Q 384 1609 779 1909 
Q 1175 2209 1959 2209 
L 2766 2209 
L 2766 2266 
Q 2766 2663 2505 2880 
Q 2244 3097 1772 3097 
Q 1472 3097 1187 3025 
Q 903 2953 641 2809 
L 641 3341 
Q 956 3463 1253 3523 
Q 1550 3584 1831 3584 
Q 2591 3584 2966 3190 
Q 3341 2797 3341 1997 
z
" transform="scale(0.015625)"/>
       <path id="DejaVuSans-6c" d="M 603 4863 
L 1178 4863 
L 1178 0 
L 603 0 
L 603 4863 
z
" transform="scale(0.015625)"/>
       <path id="DejaVuSans-73" d="M 2834 3397 
L 2834 2853 
Q 2591 2978 2328 3040 
Q 2066 3103 1784 3103 
Q 1356 3103 1142 2972 
Q 928 2841 928 2578 
Q 928 2378 1081 2264 
Q 1234 2150 1697 2047 
L 1894 2003 
Q 2506 1872 2764 1633 
Q 3022 1394 3022 966 
Q 3022 478 2636 193 
Q 2250 -91 1575 -91 
Q 1294 -91 989 -36 
Q 684 19 347 128 
L 347 722 
Q 666 556 975 473 
Q 1284 391 1588 391 
Q 1994 391 2212 530 
Q 2431 669 2431 922 
Q 2431 1156 2273 1281 
Q 2116 1406 1581 1522 
L 1381 1569 
Q 847 1681 609 1914 
Q 372 2147 372 2553 
Q 372 3047 722 3315 
Q 1072 3584 1716 3584 
Q 2034 3584 2315 3537 
Q 2597 3491 2834 3397 
z
" transform="scale(0.015625)"/>
       <path id="DejaVuSans-65" d="M 3597 1894 
L 3597 1613 
L 953 1613 
Q 991 1019 1311 708 
Q 1631 397 2203 397 
Q 2534 397 2845 478 
Q 3156 559 3463 722 
L 3463 178 
Q 3153 47 2828 -22 
Q 2503 -91 2169 -91 
Q 1331 -91 842 396 
Q 353 884 353 1716 
Q 353 2575 817 3079 
Q 1281 3584 2069 3584 
Q 2775 3584 3186 3129 
Q 3597 2675 3597 1894 
z
M 3022 2063 
Q 3016 2534 2758 2815 
Q 2500 3097 2075 3097 
Q 1594 3097 1305 2825 
Q 1016 2553 972 2059 
L 3022 2063 
z
" transform="scale(0.015625)"/>
       <path id="DejaVuSans-20" transform="scale(0.015625)"/>
       <path id="DejaVuSans-50" d="M 1259 4147 
L 1259 2394 
L 2053 2394 
Q 2494 2394 2734 2622 
Q 2975 2850 2975 3272 
Q 2975 3691 2734 3919 
Q 2494 4147 2053 4147 
L 1259 4147 
z
M 628 4666 
L 2053 4666 
Q 2838 4666 3239 4311 
Q 3641 3956 3641 3272 
Q 3641 2581 3239 2228 
Q 2838 1875 2053 1875 
L 1259 1875 
L 1259 0 
L 628 0 
L 628 4666 
z
" transform="scale(0.015625)"/>
       <path id="DejaVuSans-6f" d="M 1959 3097 
Q 1497 3097 1228 2736 
Q 959 2375 959 1747 
Q 959 1119 1226 758 
Q 1494 397 1959 397 
Q 2419 397 2687 759 
Q 2956 1122 2956 1747 
Q 2956 2369 2687 2733 
Q 2419 3097 1959 3097 
z
M 1959 3584 
Q 2709 3584 3137 3096 
Q 3566 2609 3566 1747 
Q 3566 888 3137 398 
Q 2709 -91 1959 -91 
Q 1206 -91 779 398 
Q 353 888 353 1747 
Q 353 2609 779 3096 
Q 1206 3584 1959 3584 
z
" transform="scale(0.015625)"/>
       <path id="DejaVuSans-69" d="M 603 3500 
L 1178 3500 
L 1178 0 
L 603 0 
L 603 3500 
z
M 603 4863 
L 1178 4863 
L 1178 4134 
L 603 4134 
L 603 4863 
z
" transform="scale(0.015625)"/>
       <path id="DejaVuSans-74" d="M 1172 4494 
L 1172 3500 
L 2356 3500 
L 2356 3053 
L 1172 3053 
L 1172 1153 
Q 1172 725 1289 603 
Q 1406 481 1766 481 
L 2356 481 
L 2356 0 
L 1766 0 
Q 1100 0 847 248 
Q 594 497 594 1153 
L 594 3053 
L 172 3053 
L 172 3500 
L 594 3500 
L 594 4494 
L 1172 4494 
z
" transform="scale(0.015625)"/>
       <path id="DejaVuSans-76" d="M 191 3500 
L 800 3500 
L 1894 563 
L 2988 3500 
L 3597 3500 
L 2284 0 
L 1503 0 
L 191 3500 
z
" transform="scale(0.015625)"/>
       <path id="DejaVuSans-52" d="M 2841 2188 
Q 3044 2119 3236 1894 
Q 3428 1669 3622 1275 
L 4263 0 
L 3584 0 
L 2988 1197 
Q 2756 1666 2539 1819 
Q 2322 1972 1947 1972 
L 1259 1972 
L 1259 0 
L 628 0 
L 628 4666 
L 2053 4666 
Q 2853 4666 3247 4331 
Q 3641 3997 3641 3322 
Q 3641 2881 3436 2590 
Q 3231 2300 2841 2188 
z
M 1259 4147 
L 1259 2491 
L 2053 2491 
Q 2509 2491 2742 2702 
Q 2975 2913 2975 3322 
Q 2975 3731 2742 3939 
Q 2509 4147 2053 4147 
L 1259 4147 
z
" transform="scale(0.015625)"/>
      </defs>
      <use xlink:href="#DejaVuSans-46"/>
      <use xlink:href="#DejaVuSans-61" x="48.394531"/>
      <use xlink:href="#DejaVuSans-6c" x="109.673828"/>
      <use xlink:href="#DejaVuSans-73" x="137.457031"/>
      <use xlink:href="#DejaVuSans-65" x="189.556641"/>
      <use xlink:href="#DejaVuSans-20" x="251.080078"/>
      <use xlink:href="#DejaVuSans-50" x="282.867188"/>
      <use xlink:href="#DejaVuSans-6f" x="339.544922"/>
      <use xlink:href="#DejaVuSans-73" x="400.726562"/>
      <use xlink:href="#DejaVuSans-69" x="452.826172"/>
      <use xlink:href="#DejaVuSans-74" x="480.609375"/>
      <use xlink:href="#DejaVuSans-69" x="519.818359"/>
      <use xlink:href="#DejaVuSans-76" x="547.601562"/>
      <use xlink:href="#DejaVuSans-65" x="606.78125"/>
      <use xlink:href="#DejaVuSans-20" x="668.304688"/>
      <use xlink:href="#DejaVuSans-52" x="700.091797"/>
      <use xlink:href="#DejaVuSans-61" x="767.324219"/>
      <use xlink:href="#DejaVuSans-74" x="828.603516"/>
      <use xlink:href="#DejaVuSans-65" x="867.8125"/>
     </g>
    </g>
   </g>
   <g id="matplotlib.axis_2">
    <g id="ytick_1">
     <g id="line2d_7">
      <defs>
       <path id="m71d99a66bc" d="M 0 0 
L -3.5 0 
" style="stroke: #000000; stroke-width: 0.8"/>
      </defs>
      <g>
       <use xlink:href="#m71d99a66bc" x="57.6" y="307.584" style="stroke: #000000; stroke-width: 0.8"/>
      </g>
     </g>
     <g id="text_8">
      <!-- 0.0 -->
      <g transform="translate(34.696875 311.383219)scale(0.1 -0.1)">
       <use xlink:href="#DejaVuSans-30"/>
       <use xlink:href="#DejaVuSans-2e" x="63.623047"/>
       <use xlink:href="#DejaVuSans-30" x="95.410156"/>
      </g>
     </g>
    </g>
    <g id="ytick_2">
     <g id="line2d_8">
      <g>
       <use xlink:href="#m71d99a66bc" x="57.6" y="256.896" style="stroke: #000000; stroke-width: 0.8"/>
      </g>
     </g>
     <g id="text_9">
      <!-- 0.2 -->
      <g transform="translate(34.696875 260.695219)scale(0.1 -0.1)">
       <use xlink:href="#DejaVuSans-30"/>
       <use xlink:href="#DejaVuSans-2e" x="63.623047"/>
       <use xlink:href="#DejaVuSans-32" x="95.410156"/>
      </g>
     </g>
    </g>
    <g id="ytick_3">
     <g id="line2d_9">
      <g>
       <use xlink:href="#m71d99a66bc" x="57.6" y="206.208" style="stroke: #000000; stroke-width: 0.8"/>
      </g>
     </g>
     <g id="text_10">
      <!-- 0.4 -->
      <g transform="translate(34.696875 210.007219)scale(0.1 -0.1)">
       <use xlink:href="#DejaVuSans-30"/>
       <use xlink:href="#DejaVuSans-2e" x="63.623047"/>
       <use xlink:href="#DejaVuSans-34" x="95.410156"/>
      </g>
     </g>
    </g>
    <g id="ytick_4">
     <g id="line2d_10">
      <g>
       <use xlink:href="#m71d99a66bc" x="57.6" y="155.52" style="stroke: #000000; stroke-width: 0.8"/>
      </g>
     </g>
     <g id="text_11">
      <!-- 0.6 -->
      <g transform="translate(34.696875 159.319219)scale(0.1 -0.1)">
       <use xlink:href="#DejaVuSans-30"/>
       <use xlink:href="#DejaVuSans-2e" x="63.623047"/>
       <use xlink:href="#DejaVuSans-36" x="95.410156"/>
      </g>
     </g>
    </g>
    <g id="ytick_5">
     <g id="line2d_11">
      <g>
       <use xlink:href="#m71d99a66bc" x="57.6" y="104.832" style="stroke: #000000; stroke-width: 0.8"/>
      </g>
     </g>
     <g id="text_12">
      <!-- 0.8 -->
      <g transform="translate(34.696875 108.631219)scale(0.1 -0.1)">
       <use xlink:href="#DejaVuSans-30"/>
       <use xlink:href="#DejaVuSans-2e" x="63.623047"/>
       <use xlink:href="#DejaVuSans-38" x="95.410156"/>
      </g>
     </g>
    </g>
    <g id="ytick_6">
     <g id="line2d_12">
      <g>
       <use xlink:href="#m71d99a66bc" x="57.6" y="54.144" style="stroke: #000000; stroke-width: 0.8"/>
      </g>
     </g>
     <g id="text_13">
      <!-- 1.0 -->
      <g transform="translate(34.696875 57.943219)scale(0.1 -0.1)">
       <use xlink:href="#DejaVuSans-31"/>
       <use xlink:href="#DejaVuSans-2e" x="63.623047"/>
       <use xlink:href="#DejaVuSans-30" x="95.410156"/>
      </g>
     </g>
    </g>
    <g id="text_14">
     <!-- True Positive Rate -->
     <g transform="translate(28.617187 219.057687)rotate(-90)scale(0.1 -0.1)">
      <defs>
       <path id="DejaVuSans-54" d="M -19 4666 
L 3928 4666 
L 3928 4134 
L 2272 4134 
L 2272 0 
L 1638 0 
L 1638 4134 
L -19 4134 
L -19 4666 
z
" transform="scale(0.015625)"/>
       <path id="DejaVuSans-72" d="M 2631 2963 
Q 2534 3019 2420 3045 
Q 2306 3072 2169 3072 
Q 1681 3072 1420 2755 
Q 1159 2438 1159 1844 
L 1159 0 
L 581 0 
L 581 3500 
L 1159 3500 
L 1159 2956 
Q 1341 3275 1631 3429 
Q 1922 3584 2338 3584 
Q 2397 3584 2469 3576 
Q 2541 3569 2628 3553 
L 2631 2963 
z
" transform="scale(0.015625)"/>
       <path id="DejaVuSans-75" d="M 544 1381 
L 544 3500 
L 1119 3500 
L 1119 1403 
Q 1119 906 1312 657 
Q 1506 409 1894 409 
Q 2359 409 2629 706 
Q 2900 1003 2900 1516 
L 2900 3500 
L 3475 3500 
L 3475 0 
L 2900 0 
L 2900 538 
Q 2691 219 2414 64 
Q 2138 -91 1772 -91 
Q 1169 -91 856 284 
Q 544 659 544 1381 
z
M 1991 3584 
L 1991 3584 
z
" transform="scale(0.015625)"/>
      </defs>
      <use xlink:href="#DejaVuSans-54"/>
      <use xlink:href="#DejaVuSans-72" x="46.333984"/>
      <use xlink:href="#DejaVuSans-75" x="87.447266"/>
      <use xlink:href="#DejaVuSans-65" x="150.826172"/>
      <use xlink:href="#DejaVuSans-20" x="212.349609"/>
      <use xlink:href="#DejaVuSans-50" x="244.136719"/>
      <use xlink:href="#DejaVuSans-6f" x="300.814453"/>
      <use xlink:href="#DejaVuSans-73" x="361.996094"/>
      <use xlink:href="#DejaVuSans-69" x="414.095703"/>
      <use xlink:href="#DejaVuSans-74" x="441.878906"/>
      <use xlink:href="#DejaVuSans-69" x="481.087891"/>
      <use xlink:href="#DejaVuSans-76" x="508.871094"/>
      <use xlink:href="#DejaVuSans-65" x="568.050781"/>
      <use xlink:href="#DejaVuSans-20" x="629.574219"/>
      <use xlink:href="#DejaVuSans-52" x="661.361328"/>
      <use xlink:href="#DejaVuSans-61" x="728.59375"/>
      <use xlink:href="#DejaVuSans-74" x="789.873047"/>
      <use xlink:href="#DejaVuSans-65" x="829.082031"/>
     </g>
    </g>
   </g>
   <g id="line2d_13">
    <path d="M 74.605714 307.584 
L 74.735887 307.186606 
L 74.768192 307.076909 
L 74.878169 306.677445 
L 74.879205 306.677445 
L 74.918975 306.567748 
L 75.029532 306.176563 
L 75.030071 306.176563 
L 75.066274 306.066866 
L 75.176915 305.696379 
L 75.177081 305.696379 
L 75.210007 305.586682 
L 75.320938 305.203776 
L 75.351584 305.094079 
L 75.462308 304.725662 
L 75.492663 304.615965 
L 75.603511 304.268245 
L 75.636023 304.158548 
L 75.746415 303.723898 
L 75.785977 303.614201 
L 75.896659 303.185761 
L 75.924568 303.076063 
L 76.035664 302.5876 
L 76.071743 302.477903 
L 76.182632 302.115695 
L 76.208799 302.005998 
L 76.318445 301.612743 
L 76.318901 301.612743 
L 76.350252 301.503046 
L 76.458114 301.180164 
L 76.461017 301.180164 
L 76.49187 301.070466 
L 76.602179 300.592352 
L 76.602967 300.592352 
L 76.639667 300.482655 
L 76.7501 300.085261 
L 76.78535 299.975564 
L 76.895534 299.621635 
L 76.896156 299.621635 
L 76.921743 299.511937 
L 77.03089 299.106264 
L 77.032176 299.106264 
L 77.072235 298.996567 
L 77.182503 298.642638 
L 77.183332 298.642638 
L 77.20838 298.532941 
L 77.318896 298.137617 
L 77.3478 298.02792 
L 77.457943 297.663642 
L 77.458897 297.663642 
L 77.485893 297.556014 
L 77.596948 297.208295 
L 77.627014 297.098598 
L 77.737613 296.773645 
L 77.774396 296.663948 
L 77.884747 296.314159 
L 77.885244 296.314159 
L 77.919913 296.204461 
L 78.029973 295.823626 
L 78.070696 295.715998 
L 78.180673 295.316535 
L 78.181461 295.316535 
L 78.220152 295.206837 
L 78.330917 294.84049 
L 78.366539 294.730793 
L 78.476682 294.372724 
L 78.477138 294.372724 
L 78.510853 294.263027 
L 78.619751 293.931865 
L 78.621452 293.931865 
L 78.653964 293.822168 
L 78.764355 293.46203 
L 78.76506 293.46203 
L 78.792472 293.352333 
L 78.910328 293.010822 
L 78.946282 292.901125 
L 79.057171 292.580312 
L 79.103576 292.470615 
L 79.214341 292.153942 
L 79.246521 292.044245 
L 79.357286 291.673758 
L 79.357493 291.673758 
L 79.388347 291.56406 
L 79.498489 291.249457 
L 79.498946 291.249457 
L 79.529799 291.13976 
L 79.640896 290.804458 
L 79.679752 290.694761 
L 79.790103 290.415344 
L 79.790393 290.415344 
L 79.82388 290.305646 
L 79.938356 289.962066 
L 79.971863 289.852369 
L 80.08296 289.475673 
L 80.11427 289.365976 
L 80.231379 289.026535 
L 80.270153 288.918907 
L 80.270153 288.916838 
L 80.388466 288.54842 
L 80.427696 288.438723 
L 80.537963 288.107562 
L 80.538419 288.107562 
L 80.58134 287.997864 
L 80.692437 287.683261 
L 80.73938 287.573564 
L 80.857651 287.192728 
L 80.90107 287.083031 
L 81.010715 286.784985 
L 81.012166 286.784985 
L 81.050277 286.675288 
L 81.158885 286.371033 
L 81.161374 286.371033 
L 81.197203 286.261336 
L 81.306268 285.934314 
L 81.3083 285.934314 
L 81.345622 285.824617 
L 81.456595 285.557618 
L 81.492176 285.44792 
L 81.602899 285.143666 
L 81.603106 285.143666 
L 81.649511 285.033969 
L 81.760566 284.727644 
L 81.812278 284.617947 
L 81.920928 284.359227 
L 81.923168 284.359227 
L 81.972848 284.24953 
L 82.095225 283.959763 
L 82.132381 283.850066 
L 82.243105 283.552021 
L 82.243312 283.552021 
L 82.287104 283.442323 
L 82.39762 283.183603 
L 82.39791 283.183603 
L 82.439214 283.073906 
L 82.550269 282.823465 
L 82.55031 282.823465 
L 82.599244 282.713768 
L 82.716686 282.382606 
L 82.753345 282.272909 
L 82.863861 282.01005 
L 82.864317 282.01005 
L 82.904418 281.900352 
L 83.014851 281.637493 
L 83.015349 281.637493 
L 83.048359 281.527796 
L 83.158709 281.271146 
L 83.159165 281.271146 
L 83.208472 281.161448 
L 83.319445 280.911007 
L 83.319569 280.911007 
L 83.36079 280.80131 
L 83.471679 280.515683 
L 83.471845 280.515683 
L 83.509955 280.405986 
L 83.614749 280.138987 
L 83.621052 280.138987 
L 83.659826 280.02929 
L 83.77084 279.797477 
L 83.770923 279.797477 
L 83.816539 279.689849 
L 83.927512 279.395943 
L 83.927636 279.395943 
L 83.968359 279.286246 
L 84.078543 279.006828 
L 84.126441 278.897131 
L 84.237413 278.673597 
L 84.237454 278.673597 
L 84.281039 278.5639 
L 84.397029 278.317598 
L 84.445341 278.207901 
L 84.555276 277.953321 
L 84.556147 277.953321 
L 84.615656 277.843624 
L 84.731978 277.582834 
L 84.787339 277.473137 
L 84.895782 277.247533 
L 84.898436 277.247533 
L 84.953549 277.137835 
L 85.069373 276.901883 
L 85.123449 276.792186 
L 85.239191 276.554163 
L 85.299529 276.444466 
L 85.409755 276.220932 
L 85.410543 276.220932 
L 85.451307 276.111235 
L 85.561491 275.902189 
L 85.562196 275.902189 
L 85.609057 275.792492 
L 85.718412 275.583446 
L 85.720112 275.583446 
L 85.77705 275.473749 
L 85.896648 275.248145 
L 85.957193 275.138448 
L 86.067751 274.892146 
L 86.067958 274.892146 
L 86.115814 274.782449 
L 86.226786 274.532008 
L 86.281609 274.422311 
L 86.392249 274.149103 
L 86.392664 274.149103 
L 86.452007 274.039405 
L 86.567831 273.801383 
L 86.622032 273.691686 
L 86.743081 273.443314 
L 86.806322 273.333617 
L 86.914765 273.060409 
L 86.917087 273.060409 
L 86.985304 272.950712 
L 87.096359 272.70855 
L 87.143386 272.598853 
L 87.25892 272.3629 
L 87.308725 272.253203 
L 87.423968 272.029669 
L 87.464857 271.919971 
L 87.580972 271.665391 
L 87.636126 271.555694 
L 87.752738 271.276276 
L 87.803289 271.166579 
L 87.914345 270.953394 
L 87.978332 270.843696 
L 88.098469 270.620162 
L 88.156651 270.510465 
L 88.278944 270.233117 
L 88.32962 270.12342 
L 88.440012 269.914374 
L 88.440717 269.914374 
L 88.509929 269.804677 
L 88.620736 269.552166 
L 88.621026 269.552166 
L 88.681074 269.442469 
L 88.79217 269.233423 
L 88.84973 269.123726 
L 88.958836 268.91468 
L 88.960827 268.91468 
L 89.01511 268.804983 
L 89.130022 268.591798 
L 89.193346 268.482101 
L 89.309212 268.242008 
L 89.372536 268.132311 
L 89.482927 267.923265 
L 89.483549 267.923265 
L 89.562051 267.813568 
L 89.670038 267.641778 
L 89.673148 267.641778 
L 89.730541 267.532081 
L 89.844956 267.3665 
L 89.90293 267.256803 
L 90.013031 267.082943 
L 90.013819 267.082943 
L 90.060929 266.973246 
L 90.171528 266.803526 
L 90.172025 266.803526 
L 90.231534 266.693828 
L 90.342465 266.484783 
L 90.342548 266.484783 
L 90.409355 266.375085 
L 90.520286 266.186737 
L 90.52041 266.186737 
L 90.58614 266.07704 
L 90.705074 265.882482 
L 90.77636 265.772785 
L 90.898985 265.584437 
L 90.971723 265.47474 
L 91.080829 265.276043 
L 91.082778 265.276043 
L 91.148756 265.166346 
L 91.259687 264.961439 
L 91.259811 264.961439 
L 91.310611 264.851742 
L 91.425627 264.655115 
L 91.48951 264.545418 
L 91.604796 264.332232 
L 91.66024 264.222535 
L 91.769056 264.015559 
L 91.771254 264.015559 
L 91.836444 263.905862 
L 91.950734 263.742351 
L 92.04151 263.632654 
L 92.16314 263.460864 
L 92.238117 263.351166 
L 92.352324 263.195934 
L 92.431199 263.086237 
L 92.549926 262.897889 
L 92.619968 262.788192 
L 92.738861 262.593634 
L 92.796752 262.483937 
L 92.905237 262.310077 
L 92.907808 262.310077 
L 92.985853 262.20038 
L 93.109059 262.001683 
L 93.170392 261.891986 
L 93.290903 261.736754 
L 93.356881 261.627057 
L 93.466111 261.457336 
L 93.467894 261.457336 
L 93.536858 261.347639 
L 93.647333 261.16757 
L 93.647872 261.16757 
L 93.727037 261.057873 
L 93.837221 260.890222 
L 93.838134 260.890222 
L 93.957068 260.695665 
L 94.033372 260.585968 
L 94.151933 260.401759 
L 94.229274 260.292062 
L 94.337385 260.13062 
L 94.34037 260.13062 
L 94.413813 260.020923 
L 94.541663 259.816017 
L 94.612617 259.70632 
L 94.729686 259.559367 
L 94.785587 259.449669 
L 94.896517 259.290298 
L 94.896642 259.290298 
L 94.973692 259.180601 
L 94.973692 259.179566 
L 95.112076 258.959136 
L 95.188877 258.849439 
L 95.298087 258.675579 
L 95.299974 258.675579 
L 95.393363 258.565882 
L 95.504128 258.375464 
L 95.50446 258.375464 
L 95.587938 258.267837 
L 95.587938 258.265767 
L 95.710522 258.077419 
L 95.800096 257.967722 
L 95.920523 257.814559 
L 95.987828 257.704862 
L 96.102139 257.545491 
L 96.18149 257.435793 
L 96.307599 257.251585 
L 96.403103 257.141887 
L 96.524111 256.980446 
L 96.60311 256.870749 
L 96.729924 256.678261 
L 96.807887 256.568564 
L 96.926323 256.386425 
L 96.994168 256.276728 
L 97.108499 256.109077 
L 97.191479 255.99938 
L 97.308838 255.844148 
L 97.386054 255.734451 
L 97.502832 255.593707 
L 97.582785 255.48401 
L 97.69384 255.357755 
L 97.791584 255.248057 
L 97.902473 255.117663 
L 97.902598 255.117663 
L 97.988605 255.007965 
L 98.103227 254.832036 
L 98.199851 254.722338 
L 98.31808 254.544339 
L 98.404793 254.434642 
L 98.529492 254.304247 
L 98.619854 254.19455 
L 98.737212 254.039318 
L 98.818949 253.92962 
L 98.937302 253.749551 
L 99.028286 253.638819 
L 99.145355 253.490831 
L 99.230388 253.381134 
L 99.348514 253.24246 
L 99.429421 253.132763 
L 99.543503 252.981671 
L 99.62553 252.871973 
L 99.734636 252.73123 
L 99.736626 252.73123 
L 99.834909 252.623602 
L 99.952475 252.462161 
L 100.043335 252.352464 
L 100.157583 252.193092 
L 100.237412 252.083395 
L 100.351121 251.95093 
L 100.441068 251.841233 
L 100.555234 251.683931 
L 100.63527 251.574234 
L 100.752089 251.43349 
L 100.87177 251.323793 
L 100.986475 251.205817 
L 101.092595 251.096119 
L 101.209456 250.953306 
L 101.312549 250.843609 
L 101.42601 250.721493 
L 101.523546 250.611796 
L 101.64671 250.464843 
L 101.72347 250.355146 
L 101.837781 250.193704 
L 101.927417 250.084007 
L 102.045398 249.97224 
L 102.181044 249.862543 
L 102.309226 249.725939 
L 102.414683 249.616241 
L 102.534903 249.504474 
L 102.636918 249.394777 
L 102.753198 249.266452 
L 102.891209 249.156755 
L 103.001932 249.02429 
L 103.002223 249.02429 
L 103.1122 248.914593 
L 103.224043 248.825593 
L 103.337254 248.715896 
L 103.450176 248.622757 
L 103.557416 248.513059 
L 103.670773 248.393013 
L 103.791221 248.283316 
L 103.926287 248.140503 
L 104.044143 248.030805 
L 104.173942 247.90455 
L 104.292504 247.794853 
L 104.421474 247.652039 
L 104.557079 247.542342 
L 104.679828 247.399529 
L 104.782921 247.289831 
L 104.895967 247.188413 
L 105.023444 247.078716 
L 105.144494 246.95867 
L 105.259572 246.851042 
L 105.259572 246.848973 
L 105.375313 246.755833 
L 105.48446 246.646136 
L 105.597506 246.546788 
L 105.695499 246.437091 
L 105.823307 246.304626 
L 105.938261 246.194929 
L 106.062503 246.068673 
L 106.186207 245.958976 
L 106.307298 245.83686 
L 106.442737 245.727163 
L 106.555492 245.642303 
L 106.694332 245.534675 
L 106.808207 245.393932 
L 106.926064 245.286304 
L 107.041929 245.189025 
L 107.139797 245.079328 
L 107.263542 244.996538 
L 107.411339 244.886841 
L 107.532181 244.768864 
L 107.674525 244.659167 
L 107.794725 244.559819 
L 107.935472 244.450121 
L 108.062534 244.323866 
L 108.200711 244.183122 
L 108.314254 244.073425 
L 108.4273 243.972007 
L 108.546276 243.876798 
L 108.68271 243.767101 
L 108.80998 243.659473 
L 108.95363 243.549776 
L 109.0668 243.444218 
L 109.196227 243.336591 
L 109.308899 243.25173 
L 109.419996 243.142033 
L 109.536981 243.044754 
L 109.697344 242.935057 
L 109.823411 242.817081 
L 109.96478 242.707384 
L 110.080687 242.630803 
L 110.230019 242.521105 
L 110.361643 242.382431 
L 110.506206 242.272734 
L 110.625721 242.171316 
L 110.776379 242.063688 
L 110.894401 241.978828 
L 111.026067 241.869131 
L 111.147697 241.786341 
L 111.305073 241.676643 
L 111.420524 241.566946 
L 111.550324 241.457249 
L 111.682694 241.36204 
L 111.842601 241.252343 
L 111.951665 241.173692 
L 111.953656 241.173692 
L 112.120736 241.063994 
L 112.237514 240.970855 
L 112.361363 240.861158 
L 112.480899 240.770089 
L 112.621936 240.660391 
L 112.735397 240.602438 
L 112.898496 240.492741 
L 113.023941 240.41202 
L 113.155856 240.302323 
L 113.270229 240.217463 
L 113.450206 240.107765 
L 113.576584 240.006347 
L 113.720877 239.89665 
L 113.837324 239.80972 
L 113.986489 239.700023 
L 114.115791 239.594465 
L 114.267569 239.486838 
L 114.380325 239.399908 
L 114.578839 239.29021 
L 114.694 239.190862 
L 114.861619 239.081165 
L 114.975826 239.000444 
L 115.110395 238.890747 
L 115.227878 238.787259 
L 115.333169 238.677562 
L 115.463798 238.590632 
L 115.605748 238.480934 
L 115.721468 238.365028 
L 115.845234 238.254296 
L 115.974432 238.17461 
L 116.102096 238.064913 
L 116.214561 237.990401 
L 116.349585 237.880704 
L 116.475072 237.766867 
L 116.595002 237.65717 
L 116.717503 237.56817 
L 116.902581 237.458473 
L 117.024916 237.350846 
L 117.183329 237.241148 
L 117.309604 237.13973 
L 117.482863 237.030033 
L 117.597775 236.932754 
L 117.747148 236.823057 
L 117.863553 236.738197 
L 118.023542 236.6285 
L 118.144301 236.53743 
L 118.294545 236.427733 
L 118.421773 236.320105 
L 118.575376 236.210408 
L 118.698437 236.125548 
L 118.839371 236.015851 
L 118.968797 235.943409 
L 119.155036 235.833712 
L 119.267833 235.746782 
L 119.398504 235.637085 
L 119.516609 235.552224 
L 119.663411 235.442527 
L 119.783299 235.359737 
L 119.938063 235.25004 
L 120.06384 235.152761 
L 120.18124 235.043064 
L 120.295696 234.960273 
L 120.459002 234.850576 
L 120.58254 234.751227 
L 120.727911 234.64153 
L 120.841765 234.562879 
L 121.01573 234.453182 
L 121.145032 234.360043 
L 121.330981 234.250346 
L 121.449874 234.157206 
L 121.584815 234.047509 
L 121.70064 233.979207 
L 121.868757 233.86951 
L 121.990014 233.788789 
L 122.102769 233.679092 
L 122.226514 233.596302 
L 122.385674 233.482465 
L 122.497724 233.372768 
L 122.635527 233.283768 
L 122.79618 233.174071 
L 122.919718 233.103699 
L 123.074025 232.994002 
L 123.202871 232.890514 
L 123.39052 232.780816 
L 123.503442 232.681468 
L 123.605913 232.571771 
L 123.737786 232.478631 
L 123.888859 232.368934 
L 124.005098 232.282004 
L 124.20158 232.172307 
L 124.326279 232.06261 
L 124.532133 231.952912 
L 124.64634 231.874262 
L 124.828101 231.764564 
L 124.954458 231.677634 
L 125.116314 231.567937 
L 125.241054 231.491356 
L 125.385907 231.381659 
L 125.512803 231.313357 
L 125.709949 231.203659 
L 125.839956 231.108451 
L 125.993974 230.998753 
L 126.120331 230.911823 
L 126.31221 230.802126 
L 126.430937 230.708987 
L 126.588936 230.59929 
L 126.721265 230.514429 
L 126.859358 230.404732 
L 126.975307 230.326081 
L 127.140356 230.216384 
L 127.26663 230.114966 
L 127.449967 230.005269 
L 127.565832 229.947315 
L 127.728082 229.837618 
L 127.844134 229.763107 
L 128.020877 229.653409 
L 128.136038 229.587177 
L 128.317383 229.47955 
L 128.435447 229.396759 
L 128.587474 229.287062 
L 128.704211 229.21876 
L 128.88875 229.109063 
L 128.99769 229.040761 
L 128.999764 229.040761 
L 129.208438 228.931063 
L 129.326958 228.837924 
L 129.454891 228.728227 
L 129.573618 228.670274 
L 129.714324 228.560576 
L 129.83529 228.494344 
L 130.006974 228.384647 
L 130.132046 228.316345 
L 130.303273 228.206647 
L 130.428967 228.130066 
L 130.5727 228.028648 
L 130.72875 227.918951 
L 130.876423 227.813393 
L 131.057727 227.703696 
L 131.172017 227.620905 
L 131.337522 227.511208 
L 131.463506 227.41186 
L 131.668034 227.302163 
L 131.78025 227.24007 
L 131.981916 227.130372 
L 132.113374 227.026884 
L 132.309234 226.916152 
L 132.437251 226.842676 
L 132.691915 226.732979 
L 132.832413 226.658467 
L 133.027361 226.547735 
L 133.163381 226.455631 
L 133.353975 226.345934 
L 133.475936 226.261073 
L 133.639513 226.151376 
L 133.754943 226.066516 
L 133.911905 225.956819 
L 134.040129 225.882307 
L 134.227653 225.77261 
L 134.358697 225.691889 
L 134.539089 225.582192 
L 134.651513 225.497332 
L 134.788072 225.393844 
L 134.999628 225.284147 
L 135.128785 225.199287 
L 135.329829 225.089589 
L 135.457389 225.017148 
L 135.680122 224.90952 
L 135.792462 224.832939 
L 135.968044 224.725312 
L 136.08872 224.642521 
L 136.292169 224.532824 
L 136.415044 224.456243 
L 136.620856 224.346546 
L 136.769939 224.253407 
L 137.003371 224.142674 
L 137.116873 224.083686 
L 137.266536 223.973989 
L 137.383563 223.889129 
L 137.578428 223.779432 
L 137.696201 223.70492 
L 137.866558 223.595223 
L 137.989556 223.516572 
L 138.18438 223.406875 
L 138.319363 223.348922 
L 138.512237 223.239224 
L 138.62972 223.179201 
L 138.758794 223.098481 
L 138.956707 222.988783 
L 139.081945 222.895644 
L 139.225263 222.785947 
L 139.359293 222.680389 
L 139.50962 222.570692 
L 139.634857 222.475483 
L 139.834657 222.365786 
L 139.964457 222.299553 
L 140.139416 222.189856 
L 140.276888 222.092577 
L 140.514404 221.98288 
L 140.63394 221.90216 
L 140.820055 221.792462 
L 140.949999 221.707602 
L 141.166117 221.597905 
L 141.301059 221.527533 
L 141.465361 221.417836 
L 141.586203 221.353673 
L 141.841738 221.243976 
L 141.964571 221.167395 
L 142.188298 221.057698 
L 142.321249 220.979047 
L 142.512838 220.869349 
L 142.64664 220.77828 
L 142.839037 220.667548 
L 142.952622 220.60235 
L 143.123435 220.492653 
L 143.251949 220.416072 
L 143.434995 220.306375 
L 143.548082 220.252561 
L 143.784251 220.142864 
L 143.914714 220.09112 
L 144.103317 219.981423 
L 144.231084 219.886214 
L 144.419688 219.776516 
L 144.539742 219.714424 
L 144.750946 219.604726 
L 144.871601 219.542634 
L 145.062381 219.432936 
L 145.187453 219.364634 
L 145.382774 219.254937 
L 145.500797 219.172147 
L 145.698046 219.062449 
L 145.831516 218.96724 
L 146.0117 218.857543 
L 146.125202 218.809939 
L 146.33255 218.700241 
L 146.455465 218.634009 
L 146.643446 218.524312 
L 146.759146 218.480847 
L 146.982376 218.37115 
L 147.105499 218.321475 
L 147.304926 218.213848 
L 147.422326 218.145546 
L 147.635686 218.034814 
L 147.79186 217.942709 
L 147.990064 217.833012 
L 148.112627 217.775059 
L 148.305833 217.665362 
L 148.421906 217.603269 
L 148.634976 217.493571 
L 148.753745 217.435618 
L 148.968494 217.327991 
L 149.08577 217.272107 
L 149.277214 217.16241 
L 149.405645 217.102387 
L 149.583922 216.99269 
L 149.709201 216.922318 
L 149.853598 216.812621 
L 149.990343 216.72776 
L 150.198873 216.618063 
L 150.327511 216.541482 
L 150.551197 216.433855 
L 150.67009 216.338646 
L 150.872378 216.228948 
L 150.993925 216.148228 
L 151.176225 216.03853 
L 151.320746 215.939182 
L 151.493218 215.829485 
L 151.619243 215.765322 
L 151.832459 215.655625 
L 151.952492 215.603881 
L 152.208421 215.494184 
L 152.323975 215.427951 
L 152.560414 215.318254 
L 152.681774 215.258231 
L 152.934821 215.148534 
L 153.049898 215.078162 
L 153.275244 214.968465 
L 153.399901 214.902232 
L 153.573056 214.792535 
L 153.687865 214.720094 
L 153.935583 214.610396 
L 154.068057 214.552443 
L 154.278846 214.444816 
L 154.394961 214.399281 
L 154.605605 214.289584 
L 154.729889 214.221281 
L 154.917725 214.111584 
L 155.042797 214.05984 
L 155.242679 213.952213 
L 155.356202 213.898399 
L 155.566929 213.788702 
L 155.699341 213.7204 
L 155.920456 213.610702 
L 156.038893 213.561028 
L 156.264777 213.451331 
L 156.378238 213.399587 
L 156.648992 213.28989 
L 156.775681 213.213309 
L 156.996631 213.103611 
L 157.119795 213.035309 
L 157.342196 212.925612 
L 157.457605 212.85731 
L 157.646105 212.747613 
L 157.766802 212.679311 
L 157.949599 212.569613 
L 158.088439 212.476474 
L 158.314613 212.366777 
L 158.438234 212.315033 
L 158.723129 212.205336 
L 158.851601 212.145313 
L 159.06716 212.035615 
L 159.202806 211.946616 
L 159.42135 211.836918 
L 159.537423 211.778965 
L 159.770606 211.669268 
L 159.901981 211.588547 
L 160.078766 211.47885 
L 160.20334 211.429176 
L 160.406209 211.319478 
L 160.532691 211.261525 
L 160.768113 211.151828 
L 160.886964 211.093875 
L 161.115585 210.983143 
L 161.231866 210.920015 
L 161.475955 210.810318 
L 161.599368 210.742016 
L 161.791579 210.634388 
L 161.908648 210.561946 
L 162.040935 210.493644 
L 162.213344 210.383947 
L 162.334166 210.301157 
L 162.517502 210.191459 
L 162.646431 210.112809 
L 162.822966 210.003111 
L 162.948246 209.943088 
L 163.197104 209.833391 
L 163.332605 209.760949 
L 163.512728 209.651252 
L 163.631289 209.58088 
L 163.831048 209.471183 
L 163.952719 209.402881 
L 164.137466 209.293184 
L 164.254078 209.24144 
L 164.489541 209.131742 
L 164.616106 209.06551 
L 164.827061 208.955813 
L 164.962998 208.885441 
L 165.123236 208.775744 
L 165.235473 208.717791 
L 165.453624 208.608093 
L 165.57177 208.55221 
L 165.820421 208.442513 
L 165.949018 208.37421 
L 166.201857 208.264513 
L 166.317557 208.20863 
L 166.537304 208.098932 
L 166.653874 208.047188 
L 166.880629 207.937491 
L 167.000684 207.875398 
L 167.228019 207.765701 
L 167.340526 207.680841 
L 167.594651 207.571144 
L 167.71964 207.492493 
L 167.971442 207.382796 
L 168.087432 207.324842 
L 168.28462 207.215145 
L 168.40654 207.146843 
L 168.685588 207.037146 
L 168.802988 206.970913 
L 168.995655 206.861216 
L 169.118488 206.794984 
L 169.314638 206.685287 
L 169.431375 206.631473 
L 169.569219 206.521776 
L 169.685127 206.463822 
L 169.815009 206.39759 
L 169.982711 206.287893 
L 170.105046 206.244428 
L 170.276771 206.134731 
L 170.403917 206.064359 
L 170.62047 205.954661 
L 170.739239 205.904987 
L 170.967653 205.79529 
L 171.079247 205.764244 
L 171.262625 205.654546 
L 171.385789 205.604872 
L 171.57827 205.495175 
L 171.705395 205.443431 
L 171.928998 205.333734 
L 172.054816 205.269571 
L 172.325861 205.159874 
L 172.447408 205.110199 
L 172.637379 205.000502 
L 172.759507 204.940479 
L 172.971416 204.830782 
L 173.100614 204.75834 
L 173.277461 204.648643 
L 173.398323 204.603108 
L 173.574672 204.493411 
L 173.689957 204.425109 
L 173.935788 204.315412 
L 174.077282 204.230552 
L 174.278865 204.120854 
L 174.414139 204.056692 
L 174.597683 203.946995 
L 174.708779 203.889041 
L 174.932009 203.779344 
L 175.051649 203.72553 
L 175.218646 203.615833 
L 175.367066 203.530973 
L 175.608833 203.421276 
L 175.724491 203.348834 
L 175.988652 203.239137 
L 176.118389 203.164625 
L 176.403678 203.055963 
L 176.518009 202.994905 
L 176.738834 202.885208 
L 176.861999 202.806557 
L 177.063374 202.69686 
L 177.188156 202.630627 
L 177.461813 202.52093 
L 177.581203 202.467116 
L 177.775405 202.357419 
L 177.908398 202.291187 
L 178.061296 202.18149 
L 178.18417 202.104908 
L 178.332838 201.995211 
L 178.575268 201.885514 
L 178.711371 201.823421 
L 178.954382 201.712689 
L 179.090277 201.639213 
L 179.287506 201.529515 
L 179.408327 201.436376 
L 179.598859 201.326679 
L 179.713024 201.250098 
L 179.907184 201.1404 
L 180.039638 201.053471 
L 180.23019 200.943773 
L 180.349456 200.892029 
L 180.587076 200.782332 
L 180.713185 200.732658 
L 180.909584 200.622961 
L 181.038098 200.562938 
L 181.272193 200.45324 
L 181.388806 200.399427 
L 181.612658 200.291799 
L 181.732712 200.206939 
L 181.920444 200.097242 
L 182.051156 200.047567 
L 182.293006 199.93787 
L 182.423054 199.877847 
L 182.652463 199.76815 
L 182.783258 199.685359 
L 182.988615 199.575662 
L 183.111821 199.523918 
L 183.368931 199.414221 
L 183.491971 199.347989 
L 183.684389 199.238291 
L 183.818543 199.155501 
L 184.000967 199.045804 
L 184.130477 198.963013 
L 184.428974 198.853316 
L 184.548779 198.795363 
L 184.752809 198.685666 
L 184.874231 198.629782 
L 185.105216 198.520085 
L 185.249053 198.426946 
L 185.524514 198.317248 
L 185.645335 198.265504 
L 185.858177 198.155807 
L 185.970477 198.091644 
L 186.199761 197.981947 
L 186.334371 197.897087 
L 186.56519 197.78739 
L 186.697022 197.721158 
L 186.923777 197.61146 
L 187.041882 197.549367 
L 187.225053 197.43967 
L 187.340587 197.365159 
L 187.532756 197.255462 
L 187.64943 197.201648 
L 187.831046 197.091951 
L 187.944175 197.042276 
L 188.174081 196.932579 
L 188.293223 196.891184 
L 188.576708 196.781487 
L 188.692906 196.719394 
L 188.927872 196.609697 
L 189.05029 196.545534 
L 189.229396 196.435837 
L 189.372673 196.359256 
L 189.588563 196.251628 
L 189.714631 196.187466 
L 189.881545 196.077768 
L 190.002636 196.001187 
L 190.193686 195.89356 
L 190.310962 195.827327 
L 190.509932 195.71763 
L 190.631189 195.638979 
L 190.817428 195.529282 
L 190.94418 195.473399 
L 191.154471 195.363701 
L 191.279108 195.293329 
L 191.439678 195.183632 
L 191.567362 195.133958 
L 191.776783 195.024261 
L 191.900611 194.970447 
L 192.140491 194.86075 
L 192.260234 194.811075 
L 192.503411 194.701378 
L 192.624999 194.633076 
L 192.862163 194.504751 
L 193.087384 194.395054 
L 193.213493 194.310194 
L 193.410307 194.200496 
L 193.528495 194.115636 
L 193.720747 194.005939 
L 193.857099 193.923149 
L 194.092894 193.813451 
L 194.219708 193.772056 
L 194.399105 193.662359 
L 194.522642 193.602336 
L 194.73227 193.492639 
L 194.860411 193.407778 
L 195.072983 193.298081 
L 195.195712 193.233919 
L 195.475901 193.124221 
L 195.605244 193.060059 
L 195.822793 192.950362 
L 195.935424 192.913106 
L 196.1368 192.803409 
L 196.270456 192.699921 
L 196.473739 192.590223 
L 196.588941 192.521921 
L 196.801389 192.414294 
L 196.918209 192.354271 
L 197.104034 192.244573 
L 197.236114 192.170062 
L 197.449433 192.060365 
L 197.575458 191.996202 
L 197.768126 191.886505 
L 197.896225 191.811994 
L 198.145083 191.702296 
L 198.275753 191.633994 
L 198.483184 191.524297 
L 198.599837 191.458065 
L 198.789643 191.348368 
L 198.903228 191.288345 
L 199.128407 191.178647 
L 199.256423 191.093787 
L 199.481603 190.98409 
L 199.602901 190.915788 
L 199.797102 190.806091 
L 199.917198 190.748137 
L 200.151708 190.63844 
L 200.27143 190.582556 
L 200.495199 190.472859 
L 200.618447 190.423185 
L 200.835995 190.312453 
L 200.980019 190.251395 
L 201.160826 190.141698 
L 201.278267 190.083744 
L 201.489305 189.974047 
L 201.605378 189.905745 
L 201.796304 189.798118 
L 201.913621 189.711188 
L 202.163475 189.60149 
L 202.284213 189.524909 
L 202.52202 189.415212 
L 202.64253 189.355189 
L 202.817863 189.245492 
L 202.934433 189.193748 
L 203.088783 189.08405 
L 203.204731 189.021958 
L 203.424063 188.91226 
L 203.564106 188.83154 
L 203.758349 188.721843 
L 203.883504 188.65354 
L 204.103333 188.545913 
L 204.22318 188.463123 
L 204.475729 188.353425 
L 204.603165 188.280984 
L 204.779617 188.171286 
L 204.896727 188.113333 
L 205.082884 188.003636 
L 205.207914 187.910497 
L 205.375741 187.800799 
L 205.505457 187.728358 
L 205.727775 187.618661 
L 205.854672 187.558638 
L 206.094531 187.44894 
L 206.216576 187.388917 
L 206.406071 187.27922 
L 206.529463 187.204709 
L 206.716946 187.095011 
L 206.843511 187.028779 
L 207.078975 186.918047 
L 207.191938 186.863198 
L 207.390659 186.753501 
L 207.507914 186.693478 
L 207.771432 186.583781 
L 207.880207 186.521688 
L 207.882384 186.521688 
L 207.999182 186.453386 
L 208.202466 186.343689 
L 208.31802 186.291945 
L 208.563457 186.181213 
L 208.681189 186.132573 
L 208.869253 186.022876 
L 208.996523 185.946295 
L 209.219256 185.836598 
L 209.335163 185.778644 
L 209.534258 185.668947 
L 209.660677 185.582017 
L 209.845445 185.47232 
L 209.972839 185.391599 
L 210.145435 185.281902 
L 210.267023 185.2136 
L 210.482229 185.103903 
L 210.59712 185.025252 
L 210.811144 184.915555 
L 210.936714 184.861741 
L 211.18412 184.752044 
L 211.307119 184.673393 
L 211.505841 184.563695 
L 211.619674 184.516091 
L 211.787128 184.406394 
L 211.88794 184.336022 
L 211.897976 184.336022 
L 212.111461 184.226325 
L 212.223594 184.172511 
L 212.431771 184.062814 
L 212.544858 183.961395 
L 212.670054 183.878605 
L 212.88383 183.768908 
L 213.00913 183.677838 
L 213.187884 183.568141 
L 213.304371 183.499839 
L 213.508028 183.390142 
L 213.627543 183.325979 
L 213.806629 183.216282 
L 213.928819 183.15005 
L 214.139442 183.040352 
L 214.261342 182.96998 
L 214.462862 182.860283 
L 214.577069 182.781632 
L 214.756591 182.671935 
L 214.890081 182.591214 
L 215.140225 182.481517 
L 215.262622 182.407006 
L 215.468165 182.297309 
L 215.582165 182.226937 
L 215.797308 182.117239 
L 215.911142 182.044798 
L 216.03497 181.982705 
L 216.248621 181.873008 
L 216.377176 181.794357 
L 216.52742 181.68466 
L 216.641751 181.601869 
L 216.826249 181.492172 
L 216.961191 181.413521 
L 217.150706 181.303824 
L 217.271714 181.206545 
L 217.469129 181.096848 
L 217.594678 181.030616 
L 217.810734 180.920918 
L 217.955462 180.846407 
L 218.159534 180.73671 
L 218.285269 180.664268 
L 218.493197 180.554571 
L 218.607985 180.496618 
L 218.771499 180.38692 
L 218.889521 180.326897 
L 219.07887 180.2172 
L 219.217295 180.126131 
L 219.393126 180.016433 
L 219.518654 179.919155 
L 219.704354 179.809457 
L 219.825839 179.728737 
L 220.051081 179.61904 
L 220.187017 179.517621 
L 220.410704 179.407924 
L 220.529058 179.337552 
L 220.698875 179.227855 
L 220.836637 179.138855 
L 221.086158 179.029158 
L 221.211272 178.950507 
L 221.386812 178.84081 
L 221.516487 178.774578 
L 221.746104 178.66488 
L 221.859688 178.604857 
L 222.040288 178.49516 
L 222.160508 178.422718 
L 222.330616 178.313021 
L 222.457098 178.23644 
L 222.628781 178.126743 
L 222.746783 178.06258 
L 222.923505 177.952883 
L 223.042564 177.878372 
L 223.194632 177.768674 
L 223.307823 177.735558 
L 223.457756 177.625861 
L 223.601033 177.534792 
L 223.769938 177.425094 
L 223.886675 177.356792 
L 224.108329 177.24606 
L 224.25596 177.168444 
L 224.414125 177.060817 
L 224.534386 176.988375 
L 224.657924 176.878678 
L 224.778683 176.826934 
L 224.917025 176.719306 
L 225.032621 176.642725 
L 225.166422 176.555795 
L 225.371987 176.446098 
L 225.492082 176.377796 
L 225.665093 176.268099 
L 225.777351 176.195657 
L 225.946629 176.08596 
L 226.07054 176.021797 
L 226.242597 175.9121 
L 226.363936 175.845868 
L 226.567966 175.73617 
L 226.698387 175.676147 
L 226.891718 175.56645 
L 227.009989 175.512636 
L 227.2005 175.402939 
L 227.323954 175.322219 
L 227.480833 175.212521 
L 227.602297 175.144219 
L 227.763157 175.034522 
L 227.864177 174.96829 
L 227.874047 174.96829 
L 228.038266 174.858592 
L 228.156703 174.788221 
L 228.345658 174.678523 
L 228.462063 174.599872 
L 228.628211 174.490175 
L 228.751624 174.392896 
L 228.90166 174.283199 
L 229.040168 174.196269 
L 229.222385 174.086572 
L 229.343372 174.022409 
L 229.496457 173.912712 
L 229.612198 173.858898 
L 229.824646 173.749201 
L 229.944493 173.680899 
L 230.133386 173.571202 
L 230.25964 173.496691 
L 230.455625 173.386993 
L 230.591811 173.289715 
L 230.795198 173.180017 
L 230.903184 173.103436 
L 230.906253 173.103436 
L 231.051686 172.993739 
L 231.174436 172.929576 
L 231.324638 172.819879 
L 231.455267 172.751577 
L 231.625105 172.64188 
L 231.736555 172.579787 
L 231.879292 172.47009 
L 231.993126 172.397648 
L 232.166759 172.287951 
L 232.280427 172.223788 
L 232.418064 172.114091 
L 232.532519 172.029231 
L 232.69197 171.919534 
L 232.816005 171.832604 
L 232.980099 171.722906 
L 233.105254 171.642186 
L 233.332984 171.532489 
L 233.448456 171.447628 
L 233.609357 171.337931 
L 233.729245 171.279978 
L 233.904288 171.170281 
L 234.027038 171.106118 
L 234.199468 170.996421 
L 234.315085 170.923979 
L 234.523842 170.814282 
L 234.643398 170.750119 
L 234.826362 170.640422 
L 234.939324 170.590748 
L 235.183165 170.481051 
L 235.307242 170.396191 
L 235.508534 170.286493 
L 235.631243 170.222331 
L 235.767138 170.131261 
L 235.946369 170.021564 
L 236.071482 169.942913 
L 236.214096 169.833216 
L 236.344559 169.746286 
L 236.488831 169.636589 
L 236.61411 169.553798 
L 236.795767 169.444101 
L 236.921441 169.355101 
L 237.109546 169.245404 
L 237.228854 169.181242 
L 237.406882 169.073614 
L 237.519513 168.986684 
L 237.70737 168.875952 
L 237.829207 168.792127 
L 237.988948 168.68243 
L 238.101351 168.618267 
L 238.257545 168.50857 
L 238.375775 168.42164 
L 238.555006 168.311943 
L 238.686174 168.210524 
L 238.845417 168.100827 
L 238.964019 168.042874 
L 239.197244 167.933177 
L 239.325467 167.856595 
L 239.511872 167.746898 
L 239.636716 167.688945 
L 239.797763 167.579248 
L 239.913297 167.506806 
L 240.112309 167.397109 
L 240.236261 167.295691 
L 240.378584 167.185993 
L 240.492833 167.099063 
L 240.648094 166.989366 
L 240.763379 166.885878 
L 240.887207 166.761693 
L 241.041971 166.651995 
L 241.156386 166.571275 
L 241.30721 166.461577 
L 241.433816 166.372578 
L 241.581613 166.262881 
L 241.70652 166.171811 
L 241.879717 166.064184 
L 241.99552 165.958626 
L 242.127061 165.848929 
L 242.247945 165.755789 
L 242.40076 165.646092 
L 242.525542 165.555023 
L 242.648996 165.445325 
L 242.777386 165.358396 
L 242.919584 165.248698 
L 243.028608 165.161768 
L 243.03064 165.161768 
L 243.194817 165.052071 
L 243.335855 164.940304 
L 243.497088 164.830607 
L 243.611337 164.725049 
L 243.76071 164.615352 
L 243.886487 164.518073 
L 244.064225 164.408376 
L 244.17868 164.325585 
L 244.327224 164.215888 
L 244.442592 164.11033 
L 244.60876 164.000633 
L 244.721765 163.899215 
L 244.858821 163.791587 
L 244.980202 163.702588 
L 245.14127 163.592891 
L 245.262858 163.524588 
L 245.384903 163.414891 
L 245.50421 163.33831 
L 245.659431 163.228613 
L 245.795824 163.112706 
L 245.962075 163.003009 
L 246.092123 162.918149 
L 246.210456 162.808452 
L 246.328167 162.715312 
L 246.487659 162.605615 
L 246.594692 162.504197 
L 246.59859 162.504197 
L 246.76368 162.3945 
L 246.881868 162.30964 
L 247.025393 162.199942 
L 247.138315 162.100594 
L 247.285407 161.990897 
L 247.410769 161.910176 
L 247.5742 161.802548 
L 247.683431 161.717688 
L 247.685173 161.717688 
L 247.829486 161.607991 
L 247.942366 161.516922 
L 248.090951 161.407224 
L 248.21735 161.305806 
L 248.389532 161.198179 
L 248.501375 161.113318 
L 248.636793 161.003621 
L 248.75973 160.918761 
L 248.898818 160.809064 
L 249.023745 160.736622 
L 249.184584 160.626925 
L 249.306297 160.568972 
L 249.451461 160.459274 
L 249.56884 160.370275 
L 249.705938 160.260578 
L 249.836194 160.175717 
L 249.981462 160.06602 
L 250.115014 159.964602 
L 250.270006 159.854905 
L 250.389314 159.774184 
L 250.524629 159.664487 
L 250.647295 159.573417 
L 250.80011 159.46372 
L 250.912119 159.409906 
L 251.104786 159.300209 
L 251.220155 159.215349 
L 251.393248 159.105652 
L 251.51805 159.014582 
L 251.668771 158.904885 
L 251.789136 158.834513 
L 251.928412 158.726886 
L 251.928412 158.724816 
L 252.055681 158.654444 
L 252.224752 158.544747 
L 252.340742 158.461956 
L 252.503137 158.352259 
L 252.617261 158.275678 
L 252.759439 158.165981 
L 252.873003 158.079051 
L 253.009832 157.968319 
L 253.12493 157.884493 
L 253.290435 157.774796 
L 253.404351 157.669238 
L 253.531289 157.559541 
L 253.650099 157.464332 
L 253.79603 157.3536 
L 253.924461 157.278054 
L 254.095523 157.168357 
L 254.213711 157.083496 
L 254.335237 156.973799 
L 254.463979 156.891009 
L 254.618494 156.781312 
L 254.748957 156.681963 
L 254.891281 156.572266 
L 255.004036 156.483266 
L 255.136676 156.373569 
L 255.251899 156.292848 
L 255.370626 156.183151 
L 255.497979 156.052756 
L 255.630142 155.943059 
L 255.758615 155.835431 
L 255.891109 155.724699 
L 256.015269 155.622246 
L 256.128045 155.512549 
L 256.251189 155.409061 
L 256.378915 155.299364 
L 256.515142 155.168969 
L 256.649088 155.059272 
L 256.770345 154.980621 
L 256.902964 154.870923 
L 257.025839 154.757087 
L 257.173802 154.647389 
L 257.297422 154.527343 
L 257.431825 154.417646 
L 257.556855 154.307949 
L 257.723977 154.198251 
L 257.836691 154.113391 
L 257.966532 154.003694 
L 258.105786 153.887788 
L 258.250059 153.77809 
L 258.358253 153.682881 
L 258.360948 153.682881 
L 258.509865 153.573184 
L 258.637674 153.461417 
L 258.765566 153.35172 
L 258.893084 153.242023 
L 259.046314 153.132325 
L 259.164253 153.037116 
L 259.332039 152.927419 
L 259.448609 152.83635 
L 259.578575 152.726652 
L 259.694337 152.631443 
L 259.814121 152.521746 
L 259.933512 152.422398 
L 260.064846 152.3127 
L 260.176979 152.225771 
L 260.30823 152.116073 
L 260.433094 152.025004 
L 260.583794 151.915307 
L 260.712516 151.79733 
L 260.864667 151.687633 
L 260.996664 151.592424 
L 261.154705 151.481692 
L 261.316145 151.377169 
L 261.466057 151.267472 
L 261.569399 151.186751 
L 261.57703 151.186751 
L 261.749501 151.077054 
L 261.86404 150.990124 
L 262.001553 150.880427 
L 262.126085 150.791427 
L 262.232579 150.68173 
L 262.368599 150.553405 
L 262.499083 150.443707 
L 262.646382 150.282266 
L 262.79702 150.172569 
L 262.912969 150.093918 
L 263.025766 149.984221 
L 263.140429 149.889012 
L 263.279102 149.779315 
L 263.394139 149.679966 
L 263.51017 149.570269 
L 263.630598 149.481269 
L 263.780634 149.371572 
L 263.909977 149.247386 
L 264.039611 149.136654 
L 264.160619 149.015573 
L 264.272711 148.905876 
L 264.402635 148.804458 
L 264.572577 148.694761 
L 264.691594 148.566435 
L 264.840345 148.456738 
L 264.966039 148.35118 
L 265.100442 148.241483 
L 265.228043 148.146274 
L 265.410965 148.036577 
L 265.536659 147.92067 
L 265.708135 147.810973 
L 265.827629 147.709555 
L 265.955003 147.601927 
L 266.077296 147.519137 
L 266.285349 147.40944 
L 266.424727 147.279045 
L 266.605078 147.169348 
L 266.718207 147.067929 
L 266.859701 146.958232 
L 266.977598 146.840256 
L 267.084216 146.730559 
L 267.189756 146.658117 
L 267.195313 146.658117 
L 267.32926 146.54842 
L 267.441932 146.465629 
L 267.584628 146.355932 
L 267.697218 146.275212 
L 267.851858 146.165514 
L 267.958434 146.086863 
L 267.96283 146.086863 
L 268.11324 145.977166 
L 268.237648 145.888166 
L 268.378893 145.778469 
L 268.494054 145.674981 
L 268.64096 145.565284 
L 268.771153 145.484563 
L 268.867113 145.374866 
L 268.992683 145.261029 
L 269.139734 145.151332 
L 269.257258 145.047844 
L 269.432342 144.938147 
L 269.55928 144.869845 
L 269.716366 144.760147 
L 269.833891 144.669078 
L 269.969579 144.559381 
L 270.084118 144.474521 
L 270.210683 144.352405 
L 270.368971 144.242708 
L 270.490228 144.176475 
L 270.632178 144.068848 
L 270.743773 144.006755 
L 270.878756 143.897058 
L 271.002501 143.797709 
L 271.140221 143.688012 
L 271.254469 143.611431 
L 271.415454 143.501734 
L 271.528168 143.416873 
L 271.675757 143.307176 
L 271.790006 143.228525 
L 271.974483 143.118828 
L 272.100031 143.042247 
L 272.272586 142.93255 
L 272.400685 142.84769 
L 272.542594 142.737992 
L 272.66891 142.636574 
L 272.819402 142.526877 
L 272.942276 142.433738 
L 273.087627 142.32404 
L 273.215685 142.226762 
L 273.360952 142.117064 
L 273.473459 142.036344 
L 273.605228 141.925612 
L 273.723561 141.827298 
L 273.845813 141.717601 
L 273.962591 141.603764 
L 274.135146 141.494067 
L 274.271622 141.390579 
L 274.4251 141.280881 
L 274.547684 141.20637 
L 274.666349 141.096673 
L 274.789492 140.993185 
L 274.930115 140.883488 
L 274.930115 140.882453 
L 275.055063 140.802767 
L 275.206965 140.69307 
L 275.331768 140.585442 
L 275.467974 140.475745 
L 275.58214 140.401234 
L 275.71816 140.291536 
L 275.832906 140.200467 
L 275.970252 140.09077 
L 276.092712 139.952096 
L 276.254982 139.842399 
L 276.377192 139.769957 
L 276.513876 139.66026 
L 276.632022 139.562981 
L 276.773723 139.453284 
L 276.894524 139.358075 
L 277.01209 139.248377 
L 277.131937 139.14282 
L 277.24266 139.033122 
L 277.381293 138.913076 
L 277.522123 138.803379 
L 277.645329 138.687473 
L 277.784666 138.577775 
L 277.900242 138.505334 
L 278.043187 138.395637 
L 278.168528 138.283869 
L 278.291672 138.174172 
L 278.401753 138.089312 
L 278.402644 138.089312 
L 278.557698 137.979615 
L 278.677545 137.894755 
L 278.853376 137.784023 
L 278.983258 137.700197 
L 279.121103 137.5905 
L 279.236429 137.482873 
L 279.388954 137.373175 
L 279.511164 137.300734 
L 279.630244 137.191036 
L 279.751604 137.104106 
L 279.91346 136.994409 
L 280.042098 136.876433 
L 280.17621 136.766736 
L 280.293403 136.694294 
L 280.432865 136.584597 
L 280.557149 136.497667 
L 280.698518 136.38797 
L 280.815047 136.280342 
L 280.963093 136.172715 
L 281.077134 136.098203 
L 281.230343 135.988506 
L 281.35668 135.895367 
L 281.469477 135.78567 
L 281.608068 135.659414 
L 281.770421 135.549717 
L 281.875753 135.454508 
L 281.881352 135.454508 
L 282.00999 135.344811 
L 282.122248 135.284788 
L 282.243961 135.18337 
L 282.376829 135.073672 
L 282.496427 134.990882 
L 282.63253 134.881185 
L 282.746695 134.804604 
L 282.896939 134.694906 
L 283.020891 134.610046 
L 283.178185 134.500349 
L 283.292641 134.415489 
L 283.464946 134.304757 
L 283.606648 134.210582 
L 283.760292 134.100885 
L 283.885198 134.009816 
L 284.007865 133.900119 
L 284.126613 133.80491 
L 284.263524 133.695212 
L 284.379514 133.571027 
L 284.525404 133.46133 
L 284.648568 133.388888 
L 284.81034 133.279191 
L 284.929648 133.20261 
L 285.071391 133.092912 
L 285.194223 132.981145 
L 285.29686 132.871448 
L 285.418034 132.776239 
L 285.569232 132.666542 
L 285.682112 132.604449 
L 285.836585 132.494752 
L 285.956287 132.42231 
L 286.123471 132.312613 
L 286.24846 132.219474 
L 286.38788 132.109776 
L 286.505198 132.033195 
L 286.66133 131.923498 
L 286.786858 131.828289 
L 286.962875 131.718592 
L 287.07872 131.625453 
L 287.235516 131.515755 
L 287.348064 131.439174 
L 287.51697 131.329477 
L 287.642145 131.236338 
L 287.81302 131.126641 
L 287.927808 131.064548 
L 288.096298 130.953816 
L 288.231074 130.867921 
L 288.356602 130.758223 
L 288.464692 130.675433 
L 288.467616 130.675433 
L 288.596959 130.565736 
L 288.703328 130.458108 
L 288.707703 130.458108 
L 288.840385 130.348411 
L 288.962471 130.242853 
L 289.10608 130.133156 
L 289.213403 130.040017 
L 289.217052 130.040017 
L 289.379737 129.93032 
L 289.500745 129.810273 
L 289.625298 129.700576 
L 289.743673 129.599158 
L 289.916932 129.489461 
L 290.038023 129.41081 
L 290.215595 129.301113 
L 290.331129 129.228671 
L 290.503621 129.118974 
L 290.615651 129.023765 
L 290.761831 128.914068 
L 290.879812 128.802301 
L 291.060162 128.692603 
L 291.175987 128.599464 
L 291.375994 128.489767 
L 291.49667 128.415255 
L 291.678804 128.305558 
L 291.799522 128.214489 
L 291.947941 128.104792 
L 292.063558 128.03235 
L 292.188256 127.922653 
L 292.321954 127.779839 
L 292.490776 127.670142 
L 292.615578 127.562514 
L 292.791927 127.452817 
L 292.908747 127.357608 
L 293.032284 127.248946 
L 293.151779 127.148563 
L 293.301359 127.038865 
L 293.42952 126.947796 
L 293.590588 126.838099 
L 293.717319 126.732541 
L 293.909861 126.622844 
L 294.026743 126.527635 
L 294.113062 126.417937 
L 294.228927 126.341356 
L 294.393063 126.231659 
L 294.51374 126.14059 
L 294.66585 126.030892 
L 294.778522 125.950172 
L 294.905585 125.840474 
L 295.018257 125.757684 
L 295.155874 125.647987 
L 295.280261 125.552778 
L 295.41993 125.443081 
L 295.540192 125.372709 
L 295.686952 125.263012 
L 295.806136 125.130547 
L 295.944229 125.02085 
L 296.060343 124.938059 
L 296.176707 124.828362 
L 296.296761 124.718665 
L 296.424072 124.608967 
L 296.538113 124.534456 
L 296.682157 124.424759 
L 296.800034 124.33162 
L 296.920876 124.221922 
L 297.026582 124.137062 
L 297.031973 124.137062 
L 297.139752 124.027365 
L 297.267146 123.946644 
L 297.447912 123.835912 
L 297.552 123.770715 
L 297.559009 123.770715 
L 297.672676 123.708622 
L 297.823211 123.598925 
L 297.940362 123.499576 
L 298.090647 123.389879 
L 298.205186 123.305019 
L 298.339381 123.197391 
L 298.457693 123.095973 
L 298.590022 122.986276 
L 298.711404 122.888997 
L 298.865131 122.7793 
L 298.986388 122.682021 
L 299.124025 122.572324 
L 299.243001 122.443999 
L 299.390819 122.334302 
L 299.519374 122.239093 
L 299.663086 122.129395 
L 299.7865 122.011419 
L 299.93948 121.901722 
L 300.05688 121.800304 
L 300.199618 121.690606 
L 300.320647 121.614025 
L 300.460544 121.504328 
L 300.582464 121.388421 
L 300.688419 121.278724 
L 300.801423 121.177306 
L 300.917289 121.067609 
L 301.02652 120.96826 
L 301.028261 120.96826 
L 301.150969 120.858563 
L 301.26613 120.757145 
L 301.383613 120.647447 
L 301.500059 120.560518 
L 301.623597 120.45082 
L 301.75435 120.316286 
L 301.883818 120.206589 
L 301.996283 120.130008 
L 302.129193 120.02238 
L 302.243483 119.916822 
L 302.384499 119.807125 
L 302.498064 119.722265 
L 302.623716 119.612568 
L 302.752893 119.521498 
L 302.874233 119.411801 
L 302.98504 119.329011 
L 302.985247 119.329011 
L 303.131219 119.219313 
L 303.247044 119.099267 
L 303.391814 118.98957 
L 303.513236 118.890222 
L 303.641335 118.780524 
L 303.759731 118.662548 
L 303.891728 118.552851 
L 304.005956 118.47627 
L 304.140628 118.366572 
L 304.258484 118.285852 
L 304.431287 118.176154 
L 304.544499 118.070597 
L 304.717136 117.960899 
L 304.831758 117.87397 
L 304.995355 117.764272 
L 305.112548 117.691831 
L 305.293106 117.582133 
L 305.408391 117.476576 
L 305.560936 117.366878 
L 305.68719 117.257181 
L 305.805461 117.147484 
L 305.931528 117.029508 
L 306.062219 116.91981 
L 306.185446 116.83288 
L 306.326857 116.723183 
L 306.44886 116.619695 
L 306.61959 116.509998 
L 306.761623 116.394091 
L 306.875788 116.284394 
L 306.996796 116.189185 
L 307.158319 116.079488 
L 307.280613 115.97186 
L 307.426088 115.862163 
L 307.538449 115.791791 
L 307.654585 115.682094 
L 307.764479 115.595164 
L 307.765681 115.595164 
L 307.878644 115.491676 
L 308.061359 115.381979 
L 308.18332 115.266072 
L 308.349779 115.156375 
L 308.467884 115.040469 
L 308.600462 114.930771 
L 308.717862 114.85626 
L 308.809592 114.746563 
L 308.931181 114.647214 
L 309.053599 114.537517 
L 309.188374 114.376076 
L 309.303245 114.266378 
L 309.413927 114.185658 
L 309.414134 114.185658 
L 309.533089 114.075961 
L 309.651256 113.978682 
L 309.775997 113.868985 
L 309.891406 113.763427 
L 310.019671 113.65373 
L 310.138315 113.56266 
L 310.297641 113.452963 
L 310.416617 113.324638 
L 310.562341 113.214941 
L 310.680238 113.121801 
L 310.783746 113.012104 
L 310.902432 112.931383 
L 311.040401 112.821686 
L 311.163731 112.726477 
L 311.269602 112.61678 
L 311.382441 112.523641 
L 311.540232 112.413944 
L 311.667668 112.283549 
L 311.795269 112.173851 
L 311.908481 112.066224 
L 312.094264 111.956527 
L 312.206937 111.877876 
L 312.373022 111.768179 
L 312.485985 111.675039 
L 312.594987 111.565342 
L 312.712823 111.472203 
L 312.8753 111.362506 
L 312.990876 111.250739 
L 313.136807 111.141041 
L 313.256114 111.041693 
L 313.378988 110.931996 
L 313.49249 110.81195 
L 313.654802 110.702252 
L 313.774068 110.602904 
L 313.890805 110.493207 
L 314.022242 110.373161 
L 314.18275 110.263463 
L 314.293017 110.164115 
L 314.293805 110.164115 
L 314.419955 110.053383 
L 314.528895 109.952999 
L 314.530844 109.952999 
L 314.639411 109.843302 
L 314.751462 109.725326 
L 314.864591 109.615629 
L 314.977678 109.51421 
L 315.124563 109.404513 
L 315.24499 109.290676 
L 315.390382 109.180979 
L 315.498451 109.108537 
L 315.501458 109.108537 
L 315.604986 108.99884 
L 315.720106 108.899492 
L 315.836552 108.789794 
L 315.952169 108.678027 
L 316.097395 108.5704 
L 316.216557 108.473121 
L 316.327841 108.363424 
L 316.445075 108.264075 
L 316.59113 108.154378 
L 316.703222 108.05503 
L 316.839201 107.945332 
L 316.961411 107.839775 
L 317.124635 107.730077 
L 317.255388 107.616241 
L 317.407084 107.506543 
L 317.407084 107.505509 
L 317.557286 107.355451 
L 317.677755 107.247823 
L 317.793621 107.152615 
L 317.940423 107.042917 
L 318.058154 106.964266 
L 318.182231 106.854569 
L 318.31004 106.75729 
L 318.46327 106.647593 
L 318.580545 106.548245 
L 318.703958 106.438547 
L 318.819368 106.33299 
L 318.937017 106.227432 
L 319.059103 106.117735 
L 319.173932 106.024596 
L 319.310283 105.914898 
L 319.431665 105.790713 
L 319.569965 105.681015 
L 319.687842 105.569248 
L 319.784819 105.459551 
L 319.909268 105.331226 
L 320.048813 105.221529 
L 320.171273 105.082855 
L 320.319484 104.973158 
L 320.43479 104.8676 
L 320.56515 104.757903 
L 320.681057 104.662694 
L 320.812017 104.552996 
L 320.932071 104.445369 
L 321.049865 104.337741 
L 321.169049 104.215626 
L 321.301772 104.105928 
L 321.422365 103.990022 
L 321.550547 103.880325 
L 321.651691 103.791325 
L 321.661644 103.791325 
L 321.777302 103.681628 
L 321.89155 103.600907 
L 322.026782 103.49121 
L 322.148951 103.385652 
L 322.263532 103.275955 
L 322.387608 103.151769 
L 322.521264 103.042072 
L 322.638934 102.961351 
L 322.785383 102.851654 
L 322.908299 102.737817 
L 323.045438 102.62812 
L 323.171671 102.526702 
L 323.287952 102.417004 
L 323.396021 102.319726 
L 323.398883 102.319726 
L 323.540045 102.210028 
L 323.648633 102.118959 
L 323.651141 102.118959 
L 323.754442 102.009262 
L 323.86952 101.911983 
L 323.996831 101.804356 
L 324.113733 101.688449 
L 324.227691 101.578752 
L 324.342147 101.491822 
L 324.460128 101.382125 
L 324.573091 101.288985 
L 324.692937 101.179288 
L 324.812577 101.0758 
L 324.975801 100.965068 
L 325.111281 100.854336 
L 325.220305 100.744639 
L 325.339032 100.620453 
L 325.484258 100.510756 
L 325.60201 100.430035 
L 325.749662 100.320338 
L 325.866482 100.179594 
L 325.997608 100.068862 
L 326.1413 99.916735 
L 326.277154 99.807038 
L 326.413589 99.691131 
L 326.520746 99.581434 
L 326.645444 99.451039 
L 326.762347 99.341342 
L 326.871992 99.221296 
L 326.873298 99.221296 
L 326.985743 99.111598 
L 327.096466 99.028808 
L 327.096839 99.028808 
L 327.205987 98.919111 
L 327.319157 98.813553 
L 327.448666 98.703856 
L 327.568181 98.567251 
L 327.692383 98.457554 
L 327.810819 98.337508 
L 327.956999 98.227811 
L 328.075477 98.159509 
L 328.20312 98.049812 
L 328.320852 97.942184 
L 328.461973 97.832487 
L 328.587045 97.72279 
L 328.704279 97.613092 
L 328.825411 97.490976 
L 328.966988 97.381279 
L 329.084264 97.279861 
L 329.208299 97.170164 
L 329.325533 97.068745 
L 329.460599 96.960083 
L 329.574018 96.872118 
L 329.720219 96.762421 
L 329.841082 96.658933 
L 329.953298 96.549236 
L 330.05975 96.43126 
L 330.064395 96.43126 
L 330.176072 96.321562 
L 330.176072 96.320527 
L 330.302263 96.201516 
L 330.435671 96.071121 
L 330.555725 95.961424 
L 330.67072 95.864145 
L 330.795335 95.754448 
L 330.911118 95.679937 
L 331.066255 95.570239 
L 331.181665 95.485379 
L 331.294835 95.375682 
L 331.41236 95.272194 
L 331.513545 95.162497 
L 331.630033 95.027962 
L 331.724583 94.918265 
L 331.835058 94.806498 
L 331.835556 94.806498 
L 331.955465 94.696801 
L 332.074378 94.589173 
L 332.191198 94.479476 
L 332.304389 94.369779 
L 332.425086 94.260082 
L 332.550614 94.119338 
L 332.6744 94.009641 
L 332.791966 93.904083 
L 332.918199 93.794386 
L 333.032696 93.711595 
L 333.143627 93.601898 
L 333.259078 93.494271 
L 333.372829 93.384573 
L 333.48886 93.262457 
L 333.609619 93.15276 
L 333.722997 93.038923 
L 333.872577 92.929226 
L 333.991968 92.794692 
L 334.157099 92.684995 
L 334.28723 92.556669 
L 334.387421 92.446972 
L 334.500549 92.341414 
L 334.626223 92.231717 
L 334.741238 92.153066 
L 334.849183 92.043369 
L 334.981346 91.900556 
L 335.088213 91.790858 
L 335.210341 91.656324 
L 335.316938 91.546627 
L 335.444788 91.443139 
L 335.57577 91.333441 
L 335.694746 91.223744 
L 335.80323 91.114047 
L 335.925067 90.981582 
L 336.028948 90.871885 
L 336.142035 90.768397 
L 336.252469 90.6587 
L 336.365846 90.544863 
L 336.512814 90.435166 
L 336.628016 90.331678 
L 336.779463 90.221981 
L 336.900429 90.116423 
L 337.026662 90.006726 
L 337.14004 89.892889 
L 337.267019 89.783192 
L 337.383382 89.650727 
L 337.496636 89.54103 
L 337.611174 89.4541 
L 337.742964 89.344402 
L 337.868326 89.205729 
L 337.972746 89.096031 
L 338.088239 88.988404 
L 338.19382 88.878707 
L 338.312216 88.76073 
L 338.439817 88.651033 
L 338.55249 88.572382 
L 338.687597 88.462685 
L 338.804748 88.348848 
L 338.929406 88.239151 
L 339.053897 88.110826 
L 339.17026 88.000094 
L 339.280859 87.910059 
L 339.281233 87.910059 
L 339.437407 87.800362 
L 339.571809 87.663758 
L 339.689209 87.55406 
L 339.806236 87.458851 
L 339.909827 87.349154 
L 340.01997 87.245666 
L 340.020882 87.245666 
L 340.112944 87.135969 
L 340.231713 87.011783 
L 340.367401 86.902086 
L 340.479908 86.825505 
L 340.596437 86.715808 
L 340.713505 86.618529 
L 340.849525 86.508832 
L 340.958921 86.403274 
L 340.960539 86.403274 
L 341.097761 86.293577 
L 341.219101 86.196298 
L 341.358065 86.086601 
L 341.471401 85.973799 
L 341.623055 85.844439 
L 341.741616 85.734742 
L 341.85997 85.614696 
L 341.960865 85.504998 
L 342.071112 85.391162 
L 342.07192 85.391162 
L 342.217603 85.281464 
L 342.337284 85.177976 
L 342.455098 85.068279 
L 342.567646 84.989628 
L 342.70491 84.879931 
L 342.818039 84.772303 
L 342.952359 84.662606 
L 343.072247 84.519793 
L 343.234517 84.410095 
L 343.347189 84.331445 
L 343.478067 84.221747 
L 343.593808 84.105841 
L 343.743803 83.996144 
L 343.843911 83.898865 
L 343.8549 83.898865 
L 343.962638 83.789168 
L 344.0846 83.68568 
L 344.229618 83.575982 
L 344.345028 83.470425 
L 344.455337 83.360727 
L 344.568175 83.273797 
L 344.707512 83.163065 
L 344.822715 83.062682 
L 344.961534 82.952985 
L 345.076363 82.830869 
L 345.19424 82.721172 
L 345.310064 82.605265 
L 345.427049 82.495568 
L 345.5425 82.38794 
L 345.682543 82.278243 
L 345.797745 82.172685 
L 345.908593 82.065058 
L 346.022053 81.947081 
L 346.143517 81.837384 
L 346.264608 81.715268 
L 346.383522 81.605571 
L 346.511289 81.502083 
L 346.657034 81.392386 
L 346.770909 81.299247 
L 346.907717 81.189549 
L 347.020513 81.10262 
L 347.146664 80.992922 
L 347.260124 80.910132 
L 347.372631 80.7994 
L 347.49256 80.692807 
L 347.636708 80.58311 
L 347.749754 80.481692 
L 347.853262 80.371994 
L 347.957723 80.254018 
L 347.964151 80.254018 
L 348.086528 80.144321 
L 348.199159 80.0636 
L 348.35666 79.953903 
L 348.466595 79.856624 
L 348.467756 79.856624 
L 348.598841 79.746927 
L 348.711887 79.649648 
L 348.842226 79.539951 
L 348.957967 79.46544 
L 349.093116 79.355742 
L 349.206452 79.241906 
L 349.341518 79.132208 
L 349.456845 79.022511 
L 349.610157 78.912814 
L 349.726521 78.827954 
L 349.896877 78.718256 
L 350.007518 78.606489 
L 350.007932 78.606489 
L 350.15038 78.496792 
L 350.263301 78.405723 
L 350.395755 78.296025 
L 350.508718 78.202886 
L 350.667608 78.093189 
L 350.793945 77.960724 
L 350.904254 77.851027 
L 351.021778 77.747539 
L 351.204036 77.637842 
L 351.311214 77.536424 
L 351.315009 77.536424 
L 351.495691 77.426726 
L 351.610479 77.333587 
L 351.770012 77.22389 
L 351.889402 77.122472 
L 352.055404 77.01174 
L 352.190885 76.901007 
L 352.336858 76.79131 
L 352.452267 76.683683 
L 352.576759 76.573985 
L 352.689556 76.487055 
L 352.840587 76.377358 
L 352.953758 76.2718 
L 353.062408 76.162103 
L 353.175205 76.075173 
L 353.315703 75.965476 
L 353.431735 75.886825 
L 353.56651 75.776093 
L 353.676363 75.700547 
L 353.677566 75.700547 
L 353.818396 75.59085 
L 353.930778 75.526687 
L 354.07588 75.41699 
L 354.190253 75.334199 
L 354.326563 75.224502 
L 354.439401 75.137572 
L 354.600178 75.027875 
L 354.715049 74.934736 
L 354.88242 74.825038 
L 355.003262 74.731899 
L 355.177516 74.622202 
L 355.290396 74.533202 
L 355.469088 74.423505 
L 355.590055 74.330366 
L 355.773681 74.220669 
L 355.888179 74.137878 
L 356.02113 74.028181 
L 356.134632 73.968158 
L 356.27965 73.858461 
L 356.39676 73.761182 
L 356.545428 73.65045 
L 356.653456 73.589392 
L 356.656525 73.589392 
L 356.825554 73.479695 
L 356.93663 73.388625 
L 356.936651 73.388625 
L 357.093613 73.278928 
L 357.203673 73.202347 
L 357.204627 73.202347 
L 357.344006 73.091615 
L 357.461779 73.011929 
L 357.6413 72.901197 
L 357.758244 72.804953 
L 357.917653 72.695256 
L 358.031984 72.616605 
L 358.231826 72.506908 
L 358.231826 72.505873 
L 358.359012 72.413768 
L 358.507058 72.304071 
L 358.622261 72.254397 
L 358.757161 72.1447 
L 358.875888 72.05363 
L 359.028288 71.943933 
L 359.141127 71.857003 
L 359.353036 71.747306 
L 359.460773 71.676934 
L 359.464049 71.676934 
L 359.639341 71.567237 
L 359.754584 71.501004 
L 359.895788 71.391307 
L 359.895788 71.390272 
L 360.022062 71.304377 
L 360.159492 71.19468 
L 360.27204 71.120169 
L 360.440655 71.010471 
L 360.556189 70.923542 
L 360.753999 70.813844 
L 360.865842 70.735193 
L 361.016044 70.625496 
L 361.132407 70.534427 
L 361.334032 70.424729 
L 361.447741 70.358497 
L 361.640533 70.2488 
L 361.751256 70.184637 
L 361.751505 70.184637 
L 361.966234 70.07494 
L 362.076854 70.010778 
L 362.077206 70.010778 
L 362.245863 69.90108 
L 362.360733 69.838987 
L 362.581641 69.72929 
L 362.693961 69.663058 
L 362.931187 69.553361 
L 363.048172 69.458152 
L 363.230016 69.348454 
L 363.34443 69.294641 
L 363.582507 69.184943 
L 363.691115 69.118711 
L 363.693479 69.118711 
L 363.893196 69.009014 
L 364.004127 68.946921 
L 364.004251 68.946921 
L 364.211225 68.837224 
L 364.211225 68.836189 
L 364.32452 68.78341 
L 364.505575 68.673713 
L 364.618829 68.603341 
L 364.820204 68.492609 
L 364.933665 68.433621 
L 365.171865 68.323923 
L 365.289597 68.232854 
L 365.517596 68.122122 
L 365.628071 68.069343 
L 365.628693 68.069343 
L 365.809583 67.959646 
L 365.921924 67.897553 
L 366.103767 67.787856 
L 366.21644 67.707135 
L 366.478154 67.597438 
L 366.589872 67.522926 
L 366.856189 67.413229 
L 366.970894 67.375973 
L 367.244302 67.266276 
L 367.347105 67.197974 
L 367.355399 67.197974 
L 367.552337 67.088277 
L 367.66559 67.034463 
L 367.931244 66.924766 
L 368.04232 66.864743 
L 368.04234 66.864743 
L 368.308243 66.755046 
L 368.420749 66.684674 
L 368.684661 66.574976 
L 368.788915 66.519093 
L 368.795758 66.519093 
L 369.026328 66.409396 
L 369.138254 66.363861 
L 369.348214 66.254164 
L 369.460596 66.187931 
L 369.705059 66.080304 
L 369.812589 66.032699 
L 369.816114 66.032699 
L 370.003929 65.923002 
L 370.116104 65.869188 
L 370.354533 65.759491 
L 370.466189 65.701538 
L 370.733045 65.591841 
L 370.848144 65.546306 
L 371.065133 65.436609 
L 371.178365 65.384865 
L 371.480947 65.275167 
L 371.584165 65.231702 
L 371.592044 65.231702 
L 371.850316 65.122005 
L 371.965891 65.070261 
L 372.252777 64.960564 
L 372.364724 64.919169 
L 372.682857 64.809472 
L 372.796151 64.755658 
L 373.076568 64.64596 
L 373.182979 64.606635 
L 373.187665 64.606635 
L 373.529954 64.496938 
L 373.641714 64.459682 
L 373.91197 64.349985 
L 374.025286 64.296171 
L 374.267861 64.186474 
L 374.376387 64.128521 
L 374.378937 64.128521 
L 374.643492 64.018823 
L 374.755128 63.96501 
L 375.058186 63.855312 
L 375.170361 63.801499 
L 375.434315 63.691801 
L 375.548065 63.627639 
L 375.858298 63.517941 
L 375.969354 63.464128 
L 375.969395 63.464128 
L 376.316018 63.35443 
L 376.427425 63.315105 
L 376.776971 63.205408 
L 376.889063 63.153664 
L 377.234546 63.043967 
L 377.345186 62.988083 
L 377.345642 62.988083 
L 377.683992 62.878386 
L 377.794342 62.83906 
L 377.795005 62.83906 
L 378.107644 62.729363 
L 378.214303 62.687968 
L 378.218699 62.687968 
L 378.547635 62.578271 
L 378.659893 62.549294 
L 379.01089 62.439597 
L 379.123148 62.381643 
L 379.383245 62.271946 
L 379.494134 62.226411 
L 379.494341 62.226411 
L 379.767832 62.116714 
L 379.879593 62.079459 
L 380.156567 61.969761 
L 380.156567 61.968726 
L 380.270359 61.938715 
L 380.543933 61.829018 
L 380.656357 61.783483 
L 380.959831 61.673786 
L 381.072794 61.624111 
L 381.366273 61.514414 
L 381.468951 61.473019 
L 381.477287 61.473019 
L 381.815512 61.363322 
L 381.927479 61.319857 
L 382.265953 61.210159 
L 382.375972 61.162555 
L 382.37705 61.162555 
L 382.69989 61.052858 
L 382.812023 61.028021 
L 383.216807 60.918323 
L 383.318531 60.874858 
L 383.32782 60.874858 
L 383.70229 60.765161 
L 383.814506 60.709278 
L 384.06154 60.59958 
L 384.173341 60.564394 
L 384.431157 60.454697 
L 384.542254 60.400883 
L 384.894744 60.291186 
L 385.006214 60.268419 
L 385.320221 60.158722 
L 385.432064 60.119396 
L 385.773233 60.009699 
L 385.85497 59.991071 
L 385.884289 59.991071 
L 386.378231 59.881374 
L 386.489618 59.864816 
L 386.789609 59.757188 
L 386.789609 59.755118 
L 386.901866 59.726142 
L 387.325436 59.616445 
L 387.434417 59.581259 
L 387.436325 59.581259 
L 387.851766 59.471561 
L 387.851766 59.470526 
L 387.963734 59.450864 
L 388.301419 59.341166 
L 388.413346 59.299771 
L 388.87461 59.190074 
L 388.986329 59.159028 
L 389.389039 59.04933 
L 389.477162 59.024493 
L 389.500094 59.024493 
L 389.897165 58.914796 
L 390.009962 58.873401 
L 390.36212 58.763704 
L 390.467743 58.728518 
L 390.473217 58.728518 
L 390.89463 58.61882 
L 391.007344 58.579495 
L 391.459941 58.469798 
L 391.459941 58.468763 
L 391.572655 58.430472 
L 391.913244 58.320775 
L 392.024921 58.291798 
L 392.437999 58.182101 
L 392.545363 58.140706 
L 392.549096 58.140706 
L 393.03321 58.031009 
L 393.145095 57.991683 
L 393.658114 57.881986 
L 393.769501 57.865428 
L 394.318225 57.755731 
L 394.42986 57.722614 
L 394.785502 57.612917 
L 394.873459 57.59015 
L 394.896558 57.59015 
L 395.255849 57.480453 
L 395.347497 57.455615 
L 395.366946 57.455615 
L 395.855912 57.345918 
L 395.967465 57.323151 
L 396.394145 57.213454 
L 396.497652 57.182407 
L 396.505241 57.182407 
L 396.906624 57.07271 
L 397.015233 57.041664 
L 397.017721 57.041664 
L 397.410478 56.931966 
L 397.517013 56.907129 
L 397.521575 56.907129 
L 398.101152 56.797432 
L 398.210466 56.764316 
L 398.212208 56.764316 
L 398.706109 56.654618 
L 398.817123 56.623572 
L 399.328814 56.51284 
L 399.425521 56.491107 
L 399.439621 56.491107 
L 399.946005 56.38141 
L 400.056769 56.362782 
L 400.05706 56.362782 
L 400.572981 56.253085 
L 400.682502 56.234457 
L 400.684037 56.234457 
L 401.233258 56.12476 
L 401.339379 56.099923 
L 401.344189 56.099923 
L 401.919122 55.990226 
L 401.994887 55.963319 
L 402.030218 55.963319 
L 402.724003 55.853621 
L 402.829916 55.828784 
L 402.835099 55.828784 
L 403.446857 55.719087 
L 403.446857 55.718052 
L 403.562018 55.69011 
L 404.098674 55.580413 
L 404.205043 55.555576 
L 404.209729 55.555576 
L 404.923129 55.445879 
L 405.03464 55.425181 
L 405.610734 55.315484 
L 405.722328 55.288577 
L 406.293155 55.17888 
L 406.39629 55.166461 
L 406.404169 55.166461 
L 407.035417 55.056764 
L 407.141911 55.042276 
L 407.146224 55.042276 
L 407.929955 54.932578 
L 408.03902 54.92016 
L 408.040762 54.92016 
L 408.671305 54.810463 
L 408.773444 54.795974 
L 408.782402 54.795974 
L 409.465445 54.686277 
L 409.562733 54.66351 
L 409.5765 54.66351 
L 410.229105 54.553812 
L 410.329254 54.537254 
L 410.338709 54.537254 
L 411.273058 54.427557 
L 411.315191 54.419278 
L 411.383989 54.419278 
L 412.509138 54.309581 
L 412.611734 54.299232 
L 412.619986 54.299232 
L 414.084149 54.189535 
L 414.102976 54.183325 
L 414.194789 54.183325 
L 414.72 54.144 
L 414.72 54.144 
" clip-path="url(#p267eab42d4)" style="fill: none; stroke: #ff8c00; stroke-width: 1.5; stroke-linecap: square"/>
   </g>
   <g id="line2d_14">
    <path d="M 74.605714 307.584 
L 414.72 54.144 
" clip-path="url(#p267eab42d4)" style="fill: none; stroke-dasharray: 5.55,2.4; stroke-dashoffset: 0; stroke: #0000ff; stroke-width: 1.5"/>
   </g>
   <g id="patch_3">
    <path d="M 57.6 307.584 
L 57.6 41.472 
" style="fill: none; stroke: #000000; stroke-width: 0.8; stroke-linejoin: miter; stroke-linecap: square"/>
   </g>
   <g id="patch_4">
    <path d="M 414.72 307.584 
L 414.72 41.472 
" style="fill: none; stroke: #000000; stroke-width: 0.8; stroke-linejoin: miter; stroke-linecap: square"/>
   </g>
   <g id="patch_5">
    <path d="M 57.6 307.584 
L 414.72 307.584 
" style="fill: none; stroke: #000000; stroke-width: 0.8; stroke-linejoin: miter; stroke-linecap: square"/>
   </g>
   <g id="patch_6">
    <path d="M 57.6 41.472 
L 414.72 41.472 
" style="fill: none; stroke: #000000; stroke-width: 0.8; stroke-linejoin: miter; stroke-linecap: square"/>
   </g>
   <g id="text_15">
    <!-- ROC CURVE -->
    <g transform="translate(200.855625 35.472)scale(0.12 -0.12)">
     <defs>
      <path id="DejaVuSans-4f" d="M 2522 4238 
Q 1834 4238 1429 3725 
Q 1025 3213 1025 2328 
Q 1025 1447 1429 934 
Q 1834 422 2522 422 
Q 3209 422 3611 934 
Q 4013 1447 4013 2328 
Q 4013 3213 3611 3725 
Q 3209 4238 2522 4238 
z
M 2522 4750 
Q 3503 4750 4090 4092 
Q 4678 3434 4678 2328 
Q 4678 1225 4090 567 
Q 3503 -91 2522 -91 
Q 1538 -91 948 565 
Q 359 1222 359 2328 
Q 359 3434 948 4092 
Q 1538 4750 2522 4750 
z
" transform="scale(0.015625)"/>
      <path id="DejaVuSans-43" d="M 4122 4306 
L 4122 3641 
Q 3803 3938 3442 4084 
Q 3081 4231 2675 4231 
Q 1875 4231 1450 3742 
Q 1025 3253 1025 2328 
Q 1025 1406 1450 917 
Q 1875 428 2675 428 
Q 3081 428 3442 575 
Q 3803 722 4122 1019 
L 4122 359 
Q 3791 134 3420 21 
Q 3050 -91 2638 -91 
Q 1578 -91 968 557 
Q 359 1206 359 2328 
Q 359 3453 968 4101 
Q 1578 4750 2638 4750 
Q 3056 4750 3426 4639 
Q 3797 4528 4122 4306 
z
" transform="scale(0.015625)"/>
      <path id="DejaVuSans-55" d="M 556 4666 
L 1191 4666 
L 1191 1831 
Q 1191 1081 1462 751 
Q 1734 422 2344 422 
Q 2950 422 3222 751 
Q 3494 1081 3494 1831 
L 3494 4666 
L 4128 4666 
L 4128 1753 
Q 4128 841 3676 375 
Q 3225 -91 2344 -91 
Q 1459 -91 1007 375 
Q 556 841 556 1753 
L 556 4666 
z
" transform="scale(0.015625)"/>
      <path id="DejaVuSans-56" d="M 1831 0 
L 50 4666 
L 709 4666 
L 2188 738 
L 3669 4666 
L 4325 4666 
L 2547 0 
L 1831 0 
z
" transform="scale(0.015625)"/>
      <path id="DejaVuSans-45" d="M 628 4666 
L 3578 4666 
L 3578 4134 
L 1259 4134 
L 1259 2753 
L 3481 2753 
L 3481 2222 
L 1259 2222 
L 1259 531 
L 3634 531 
L 3634 0 
L 628 0 
L 628 4666 
z
" transform="scale(0.015625)"/>
     </defs>
     <use xlink:href="#DejaVuSans-52"/>
     <use xlink:href="#DejaVuSans-4f" x="69.482422"/>
     <use xlink:href="#DejaVuSans-43" x="148.193359"/>
     <use xlink:href="#DejaVuSans-20" x="218.017578"/>
     <use xlink:href="#DejaVuSans-43" x="249.804688"/>
     <use xlink:href="#DejaVuSans-55" x="319.628906"/>
     <use xlink:href="#DejaVuSans-52" x="392.822266"/>
     <use xlink:href="#DejaVuSans-56" x="456.804688"/>
     <use xlink:href="#DejaVuSans-45" x="525.212891"/>
    </g>
   </g>
   <g id="legend_1">
    <g id="patch_7">
     <path d="M 234.97 302.584 
L 407.72 302.584 
Q 409.72 302.584 409.72 300.584 
L 409.72 286.905875 
Q 409.72 284.905875 407.72 284.905875 
L 234.97 284.905875 
Q 232.97 284.905875 232.97 286.905875 
L 232.97 300.584 
Q 232.97 302.584 234.97 302.584 
z
" style="fill: #ffffff; opacity: 0.8; stroke: #cccccc; stroke-linejoin: miter"/>
    </g>
    <g id="line2d_15">
     <path d="M 236.97 293.004312 
L 246.97 293.004312 
L 256.97 293.004312 
" style="fill: none; stroke: #ff8c00; stroke-width: 1.5; stroke-linecap: square"/>
    </g>
    <g id="text_16">
     <!-- ROC curve (ROC AUC=0.59) -->
     <g transform="translate(264.97 296.504312)scale(0.1 -0.1)">
      <defs>
       <path id="DejaVuSans-63" d="M 3122 3366 
L 3122 2828 
Q 2878 2963 2633 3030 
Q 2388 3097 2138 3097 
Q 1578 3097 1268 2742 
Q 959 2388 959 1747 
Q 959 1106 1268 751 
Q 1578 397 2138 397 
Q 2388 397 2633 464 
Q 2878 531 3122 666 
L 3122 134 
Q 2881 22 2623 -34 
Q 2366 -91 2075 -91 
Q 1284 -91 818 406 
Q 353 903 353 1747 
Q 353 2603 823 3093 
Q 1294 3584 2113 3584 
Q 2378 3584 2631 3529 
Q 2884 3475 3122 3366 
z
" transform="scale(0.015625)"/>
       <path id="DejaVuSans-28" d="M 1984 4856 
Q 1566 4138 1362 3434 
Q 1159 2731 1159 2009 
Q 1159 1288 1364 580 
Q 1569 -128 1984 -844 
L 1484 -844 
Q 1016 -109 783 600 
Q 550 1309 550 2009 
Q 550 2706 781 3412 
Q 1013 4119 1484 4856 
L 1984 4856 
z
" transform="scale(0.015625)"/>
       <path id="DejaVuSans-41" d="M 2188 4044 
L 1331 1722 
L 3047 1722 
L 2188 4044 
z
M 1831 4666 
L 2547 4666 
L 4325 0 
L 3669 0 
L 3244 1197 
L 1141 1197 
L 716 0 
L 50 0 
L 1831 4666 
z
" transform="scale(0.015625)"/>
       <path id="DejaVuSans-3d" d="M 678 2906 
L 4684 2906 
L 4684 2381 
L 678 2381 
L 678 2906 
z
M 678 1631 
L 4684 1631 
L 4684 1100 
L 678 1100 
L 678 1631 
z
" transform="scale(0.015625)"/>
       <path id="DejaVuSans-35" d="M 691 4666 
L 3169 4666 
L 3169 4134 
L 1269 4134 
L 1269 2991 
Q 1406 3038 1543 3061 
Q 1681 3084 1819 3084 
Q 2600 3084 3056 2656 
Q 3513 2228 3513 1497 
Q 3513 744 3044 326 
Q 2575 -91 1722 -91 
Q 1428 -91 1123 -41 
Q 819 9 494 109 
L 494 744 
Q 775 591 1075 516 
Q 1375 441 1709 441 
Q 2250 441 2565 725 
Q 2881 1009 2881 1497 
Q 2881 1984 2565 2268 
Q 2250 2553 1709 2553 
Q 1456 2553 1204 2497 
Q 953 2441 691 2322 
L 691 4666 
z
" transform="scale(0.015625)"/>
       <path id="DejaVuSans-39" d="M 703 97 
L 703 672 
Q 941 559 1184 500 
Q 1428 441 1663 441 
Q 2288 441 2617 861 
Q 2947 1281 2994 2138 
Q 2813 1869 2534 1725 
Q 2256 1581 1919 1581 
Q 1219 1581 811 2004 
Q 403 2428 403 3163 
Q 403 3881 828 4315 
Q 1253 4750 1959 4750 
Q 2769 4750 3195 4129 
Q 3622 3509 3622 2328 
Q 3622 1225 3098 567 
Q 2575 -91 1691 -91 
Q 1453 -91 1209 -44 
Q 966 3 703 97 
z
M 1959 2075 
Q 2384 2075 2632 2365 
Q 2881 2656 2881 3163 
Q 2881 3666 2632 3958 
Q 2384 4250 1959 4250 
Q 1534 4250 1286 3958 
Q 1038 3666 1038 3163 
Q 1038 2656 1286 2365 
Q 1534 2075 1959 2075 
z
" transform="scale(0.015625)"/>
       <path id="DejaVuSans-29" d="M 513 4856 
L 1013 4856 
Q 1481 4119 1714 3412 
Q 1947 2706 1947 2009 
Q 1947 1309 1714 600 
Q 1481 -109 1013 -844 
L 513 -844 
Q 928 -128 1133 580 
Q 1338 1288 1338 2009 
Q 1338 2731 1133 3434 
Q 928 4138 513 4856 
z
" transform="scale(0.015625)"/>
      </defs>
      <use xlink:href="#DejaVuSans-52"/>
      <use xlink:href="#DejaVuSans-4f" x="69.482422"/>
      <use xlink:href="#DejaVuSans-43" x="148.193359"/>
      <use xlink:href="#DejaVuSans-20" x="218.017578"/>
      <use xlink:href="#DejaVuSans-63" x="249.804688"/>
      <use xlink:href="#DejaVuSans-75" x="304.785156"/>
      <use xlink:href="#DejaVuSans-72" x="368.164062"/>
      <use xlink:href="#DejaVuSans-76" x="409.277344"/>
      <use xlink:href="#DejaVuSans-65" x="468.457031"/>
      <use xlink:href="#DejaVuSans-20" x="529.980469"/>
      <use xlink:href="#DejaVuSans-28" x="561.767578"/>
      <use xlink:href="#DejaVuSans-52" x="600.78125"/>
      <use xlink:href="#DejaVuSans-4f" x="670.263672"/>
      <use xlink:href="#DejaVuSans-43" x="748.974609"/>
      <use xlink:href="#DejaVuSans-20" x="818.798828"/>
      <use xlink:href="#DejaVuSans-41" x="850.585938"/>
      <use xlink:href="#DejaVuSans-55" x="918.994141"/>
      <use xlink:href="#DejaVuSans-43" x="992.1875"/>
      <use xlink:href="#DejaVuSans-3d" x="1062.011719"/>
      <use xlink:href="#DejaVuSans-30" x="1145.800781"/>
      <use xlink:href="#DejaVuSans-2e" x="1209.423828"/>
      <use xlink:href="#DejaVuSans-35" x="1241.210938"/>
      <use xlink:href="#DejaVuSans-39" x="1304.833984"/>
      <use xlink:href="#DejaVuSans-29" x="1368.457031"/>
     </g>
    </g>
   </g>
  </g>
 </g>
 <defs>
  <clipPath id="p267eab42d4">
   <rect x="57.6" y="41.472" width="357.12" height="266.112"/>
  </clipPath>
 </defs>
</svg>
