<?xml version="1.0" encoding="utf-8" standalone="no"?>
<!DOCTYPE svg PUBLIC "-//W3C//DTD SVG 1.1//EN"
  "http://www.w3.org/Graphics/SVG/1.1/DTD/svg11.dtd">
<svg xmlns:xlink="http://www.w3.org/1999/xlink" width="460.8pt" height="345.6pt" viewBox="0 0 460.8 345.6" xmlns="http://www.w3.org/2000/svg" version="1.1">
 <metadata>
  <rdf:RDF xmlns:dc="http://purl.org/dc/elements/1.1/" xmlns:cc="http://creativecommons.org/ns#" xmlns:rdf="http://www.w3.org/1999/02/22-rdf-syntax-ns#">
   <cc:Work>
    <dc:type rdf:resource="http://purl.org/dc/dcmitype/StillImage"/>
    <dc:date>2022-05-26T21:50:15.197206</dc:date>
    <dc:format>image/svg+xml</dc:format>
    <dc:creator>
     <cc:Agent>
      <dc:title>Matplotlib v3.5.1, https://matplotlib.org/</dc:title>
     </cc:Agent>
    </dc:creator>
   </cc:Work>
  </rdf:RDF>
 </metadata>
 <defs>
  <style type="text/css">*{stroke-linejoin: round; stroke-linecap: butt}</style>
 </defs>
 <g id="figure_1">
  <g id="patch_1">
   <path d="M 0 345.6 
L 460.8 345.6 
L 460.8 0 
L 0 0 
z
" style="fill: #ffffff"/>
  </g>
  <g id="axes_1">
   <g id="patch_2">
    <path d="M 57.6 307.584 
L 414.72 307.584 
L 414.72 41.472 
L 57.6 41.472 
z
" style="fill: #ffffff"/>
   </g>
   <g id="matplotlib.axis_1">
    <g id="xtick_1">
     <g id="line2d_1">
      <defs>
       <path id="md4ffe3f3da" d="M 0 0 
L 0 3.5 
" style="stroke: #000000; stroke-width: 0.8"/>
      </defs>
      <g>
       <use xlink:href="#md4ffe3f3da" x="74.605714" y="307.584" style="stroke: #000000; stroke-width: 0.8"/>
      </g>
     </g>
     <g id="text_1">
      <!-- 0.0 -->
      <g transform="translate(66.654152 322.182437)scale(0.1 -0.1)">
       <defs>
        <path id="DejaVuSans-30" d="M 2034 4250 
Q 1547 4250 1301 3770 
Q 1056 3291 1056 2328 
Q 1056 1369 1301 889 
Q 1547 409 2034 409 
Q 2525 409 2770 889 
Q 3016 1369 3016 2328 
Q 3016 3291 2770 3770 
Q 2525 4250 2034 4250 
z
M 2034 4750 
Q 2819 4750 3233 4129 
Q 3647 3509 3647 2328 
Q 3647 1150 3233 529 
Q 2819 -91 2034 -91 
Q 1250 -91 836 529 
Q 422 1150 422 2328 
Q 422 3509 836 4129 
Q 1250 4750 2034 4750 
z
" transform="scale(0.015625)"/>
        <path id="DejaVuSans-2e" d="M 684 794 
L 1344 794 
L 1344 0 
L 684 0 
L 684 794 
z
" transform="scale(0.015625)"/>
       </defs>
       <use xlink:href="#DejaVuSans-30"/>
       <use xlink:href="#DejaVuSans-2e" x="63.623047"/>
       <use xlink:href="#DejaVuSans-30" x="95.410156"/>
      </g>
     </g>
    </g>
    <g id="xtick_2">
     <g id="line2d_2">
      <g>
       <use xlink:href="#md4ffe3f3da" x="142.628571" y="307.584" style="stroke: #000000; stroke-width: 0.8"/>
      </g>
     </g>
     <g id="text_2">
      <!-- 0.2 -->
      <g transform="translate(134.677009 322.182437)scale(0.1 -0.1)">
       <defs>
        <path id="DejaVuSans-32" d="M 1228 531 
L 3431 531 
L 3431 0 
L 469 0 
L 469 531 
Q 828 903 1448 1529 
Q 2069 2156 2228 2338 
Q 2531 2678 2651 2914 
Q 2772 3150 2772 3378 
Q 2772 3750 2511 3984 
Q 2250 4219 1831 4219 
Q 1534 4219 1204 4116 
Q 875 4013 500 3803 
L 500 4441 
Q 881 4594 1212 4672 
Q 1544 4750 1819 4750 
Q 2544 4750 2975 4387 
Q 3406 4025 3406 3419 
Q 3406 3131 3298 2873 
Q 3191 2616 2906 2266 
Q 2828 2175 2409 1742 
Q 1991 1309 1228 531 
z
" transform="scale(0.015625)"/>
       </defs>
       <use xlink:href="#DejaVuSans-30"/>
       <use xlink:href="#DejaVuSans-2e" x="63.623047"/>
       <use xlink:href="#DejaVuSans-32" x="95.410156"/>
      </g>
     </g>
    </g>
    <g id="xtick_3">
     <g id="line2d_3">
      <g>
       <use xlink:href="#md4ffe3f3da" x="210.651429" y="307.584" style="stroke: #000000; stroke-width: 0.8"/>
      </g>
     </g>
     <g id="text_3">
      <!-- 0.4 -->
      <g transform="translate(202.699866 322.182437)scale(0.1 -0.1)">
       <defs>
        <path id="DejaVuSans-34" d="M 2419 4116 
L 825 1625 
L 2419 1625 
L 2419 4116 
z
M 2253 4666 
L 3047 4666 
L 3047 1625 
L 3713 1625 
L 3713 1100 
L 3047 1100 
L 3047 0 
L 2419 0 
L 2419 1100 
L 313 1100 
L 313 1709 
L 2253 4666 
z
" transform="scale(0.015625)"/>
       </defs>
       <use xlink:href="#DejaVuSans-30"/>
       <use xlink:href="#DejaVuSans-2e" x="63.623047"/>
       <use xlink:href="#DejaVuSans-34" x="95.410156"/>
      </g>
     </g>
    </g>
    <g id="xtick_4">
     <g id="line2d_4">
      <g>
       <use xlink:href="#md4ffe3f3da" x="278.674286" y="307.584" style="stroke: #000000; stroke-width: 0.8"/>
      </g>
     </g>
     <g id="text_4">
      <!-- 0.6 -->
      <g transform="translate(270.722723 322.182437)scale(0.1 -0.1)">
       <defs>
        <path id="DejaVuSans-36" d="M 2113 2584 
Q 1688 2584 1439 2293 
Q 1191 2003 1191 1497 
Q 1191 994 1439 701 
Q 1688 409 2113 409 
Q 2538 409 2786 701 
Q 3034 994 3034 1497 
Q 3034 2003 2786 2293 
Q 2538 2584 2113 2584 
z
M 3366 4563 
L 3366 3988 
Q 3128 4100 2886 4159 
Q 2644 4219 2406 4219 
Q 1781 4219 1451 3797 
Q 1122 3375 1075 2522 
Q 1259 2794 1537 2939 
Q 1816 3084 2150 3084 
Q 2853 3084 3261 2657 
Q 3669 2231 3669 1497 
Q 3669 778 3244 343 
Q 2819 -91 2113 -91 
Q 1303 -91 875 529 
Q 447 1150 447 2328 
Q 447 3434 972 4092 
Q 1497 4750 2381 4750 
Q 2619 4750 2861 4703 
Q 3103 4656 3366 4563 
z
" transform="scale(0.015625)"/>
       </defs>
       <use xlink:href="#DejaVuSans-30"/>
       <use xlink:href="#DejaVuSans-2e" x="63.623047"/>
       <use xlink:href="#DejaVuSans-36" x="95.410156"/>
      </g>
     </g>
    </g>
    <g id="xtick_5">
     <g id="line2d_5">
      <g>
       <use xlink:href="#md4ffe3f3da" x="346.697143" y="307.584" style="stroke: #000000; stroke-width: 0.8"/>
      </g>
     </g>
     <g id="text_5">
      <!-- 0.8 -->
      <g transform="translate(338.74558 322.182437)scale(0.1 -0.1)">
       <defs>
        <path id="DejaVuSans-38" d="M 2034 2216 
Q 1584 2216 1326 1975 
Q 1069 1734 1069 1313 
Q 1069 891 1326 650 
Q 1584 409 2034 409 
Q 2484 409 2743 651 
Q 3003 894 3003 1313 
Q 3003 1734 2745 1975 
Q 2488 2216 2034 2216 
z
M 1403 2484 
Q 997 2584 770 2862 
Q 544 3141 544 3541 
Q 544 4100 942 4425 
Q 1341 4750 2034 4750 
Q 2731 4750 3128 4425 
Q 3525 4100 3525 3541 
Q 3525 3141 3298 2862 
Q 3072 2584 2669 2484 
Q 3125 2378 3379 2068 
Q 3634 1759 3634 1313 
Q 3634 634 3220 271 
Q 2806 -91 2034 -91 
Q 1263 -91 848 271 
Q 434 634 434 1313 
Q 434 1759 690 2068 
Q 947 2378 1403 2484 
z
M 1172 3481 
Q 1172 3119 1398 2916 
Q 1625 2713 2034 2713 
Q 2441 2713 2670 2916 
Q 2900 3119 2900 3481 
Q 2900 3844 2670 4047 
Q 2441 4250 2034 4250 
Q 1625 4250 1398 4047 
Q 1172 3844 1172 3481 
z
" transform="scale(0.015625)"/>
       </defs>
       <use xlink:href="#DejaVuSans-30"/>
       <use xlink:href="#DejaVuSans-2e" x="63.623047"/>
       <use xlink:href="#DejaVuSans-38" x="95.410156"/>
      </g>
     </g>
    </g>
    <g id="xtick_6">
     <g id="line2d_6">
      <g>
       <use xlink:href="#md4ffe3f3da" x="414.72" y="307.584" style="stroke: #000000; stroke-width: 0.8"/>
      </g>
     </g>
     <g id="text_6">
      <!-- 1.0 -->
      <g transform="translate(406.768438 322.182437)scale(0.1 -0.1)">
       <defs>
        <path id="DejaVuSans-31" d="M 794 531 
L 1825 531 
L 1825 4091 
L 703 3866 
L 703 4441 
L 1819 4666 
L 2450 4666 
L 2450 531 
L 3481 531 
L 3481 0 
L 794 0 
L 794 531 
z
" transform="scale(0.015625)"/>
       </defs>
       <use xlink:href="#DejaVuSans-31"/>
       <use xlink:href="#DejaVuSans-2e" x="63.623047"/>
       <use xlink:href="#DejaVuSans-30" x="95.410156"/>
      </g>
     </g>
    </g>
    <g id="text_7">
     <!-- False Positive Rate -->
     <g transform="translate(189.693594 335.860562)scale(0.1 -0.1)">
      <defs>
       <path id="DejaVuSans-46" d="M 628 4666 
L 3309 4666 
L 3309 4134 
L 1259 4134 
L 1259 2759 
L 3109 2759 
L 3109 2228 
L 1259 2228 
L 1259 0 
L 628 0 
L 628 4666 
z
" transform="scale(0.015625)"/>
       <path id="DejaVuSans-61" d="M 2194 1759 
Q 1497 1759 1228 1600 
Q 959 1441 959 1056 
Q 959 750 1161 570 
Q 1363 391 1709 391 
Q 2188 391 2477 730 
Q 2766 1069 2766 1631 
L 2766 1759 
L 2194 1759 
z
M 3341 1997 
L 3341 0 
L 2766 0 
L 2766 531 
Q 2569 213 2275 61 
Q 1981 -91 1556 -91 
Q 1019 -91 701 211 
Q 384 513 384 1019 
Q 384 1609 779 1909 
Q 1175 2209 1959 2209 
L 2766 2209 
L 2766 2266 
Q 2766 2663 2505 2880 
Q 2244 3097 1772 3097 
Q 1472 3097 1187 3025 
Q 903 2953 641 2809 
L 641 3341 
Q 956 3463 1253 3523 
Q 1550 3584 1831 3584 
Q 2591 3584 2966 3190 
Q 3341 2797 3341 1997 
z
" transform="scale(0.015625)"/>
       <path id="DejaVuSans-6c" d="M 603 4863 
L 1178 4863 
L 1178 0 
L 603 0 
L 603 4863 
z
" transform="scale(0.015625)"/>
       <path id="DejaVuSans-73" d="M 2834 3397 
L 2834 2853 
Q 2591 2978 2328 3040 
Q 2066 3103 1784 3103 
Q 1356 3103 1142 2972 
Q 928 2841 928 2578 
Q 928 2378 1081 2264 
Q 1234 2150 1697 2047 
L 1894 2003 
Q 2506 1872 2764 1633 
Q 3022 1394 3022 966 
Q 3022 478 2636 193 
Q 2250 -91 1575 -91 
Q 1294 -91 989 -36 
Q 684 19 347 128 
L 347 722 
Q 666 556 975 473 
Q 1284 391 1588 391 
Q 1994 391 2212 530 
Q 2431 669 2431 922 
Q 2431 1156 2273 1281 
Q 2116 1406 1581 1522 
L 1381 1569 
Q 847 1681 609 1914 
Q 372 2147 372 2553 
Q 372 3047 722 3315 
Q 1072 3584 1716 3584 
Q 2034 3584 2315 3537 
Q 2597 3491 2834 3397 
z
" transform="scale(0.015625)"/>
       <path id="DejaVuSans-65" d="M 3597 1894 
L 3597 1613 
L 953 1613 
Q 991 1019 1311 708 
Q 1631 397 2203 397 
Q 2534 397 2845 478 
Q 3156 559 3463 722 
L 3463 178 
Q 3153 47 2828 -22 
Q 2503 -91 2169 -91 
Q 1331 -91 842 396 
Q 353 884 353 1716 
Q 353 2575 817 3079 
Q 1281 3584 2069 3584 
Q 2775 3584 3186 3129 
Q 3597 2675 3597 1894 
z
M 3022 2063 
Q 3016 2534 2758 2815 
Q 2500 3097 2075 3097 
Q 1594 3097 1305 2825 
Q 1016 2553 972 2059 
L 3022 2063 
z
" transform="scale(0.015625)"/>
       <path id="DejaVuSans-20" transform="scale(0.015625)"/>
       <path id="DejaVuSans-50" d="M 1259 4147 
L 1259 2394 
L 2053 2394 
Q 2494 2394 2734 2622 
Q 2975 2850 2975 3272 
Q 2975 3691 2734 3919 
Q 2494 4147 2053 4147 
L 1259 4147 
z
M 628 4666 
L 2053 4666 
Q 2838 4666 3239 4311 
Q 3641 3956 3641 3272 
Q 3641 2581 3239 2228 
Q 2838 1875 2053 1875 
L 1259 1875 
L 1259 0 
L 628 0 
L 628 4666 
z
" transform="scale(0.015625)"/>
       <path id="DejaVuSans-6f" d="M 1959 3097 
Q 1497 3097 1228 2736 
Q 959 2375 959 1747 
Q 959 1119 1226 758 
Q 1494 397 1959 397 
Q 2419 397 2687 759 
Q 2956 1122 2956 1747 
Q 2956 2369 2687 2733 
Q 2419 3097 1959 3097 
z
M 1959 3584 
Q 2709 3584 3137 3096 
Q 3566 2609 3566 1747 
Q 3566 888 3137 398 
Q 2709 -91 1959 -91 
Q 1206 -91 779 398 
Q 353 888 353 1747 
Q 353 2609 779 3096 
Q 1206 3584 1959 3584 
z
" transform="scale(0.015625)"/>
       <path id="DejaVuSans-69" d="M 603 3500 
L 1178 3500 
L 1178 0 
L 603 0 
L 603 3500 
z
M 603 4863 
L 1178 4863 
L 1178 4134 
L 603 4134 
L 603 4863 
z
" transform="scale(0.015625)"/>
       <path id="DejaVuSans-74" d="M 1172 4494 
L 1172 3500 
L 2356 3500 
L 2356 3053 
L 1172 3053 
L 1172 1153 
Q 1172 725 1289 603 
Q 1406 481 1766 481 
L 2356 481 
L 2356 0 
L 1766 0 
Q 1100 0 847 248 
Q 594 497 594 1153 
L 594 3053 
L 172 3053 
L 172 3500 
L 594 3500 
L 594 4494 
L 1172 4494 
z
" transform="scale(0.015625)"/>
       <path id="DejaVuSans-76" d="M 191 3500 
L 800 3500 
L 1894 563 
L 2988 3500 
L 3597 3500 
L 2284 0 
L 1503 0 
L 191 3500 
z
" transform="scale(0.015625)"/>
       <path id="DejaVuSans-52" d="M 2841 2188 
Q 3044 2119 3236 1894 
Q 3428 1669 3622 1275 
L 4263 0 
L 3584 0 
L 2988 1197 
Q 2756 1666 2539 1819 
Q 2322 1972 1947 1972 
L 1259 1972 
L 1259 0 
L 628 0 
L 628 4666 
L 2053 4666 
Q 2853 4666 3247 4331 
Q 3641 3997 3641 3322 
Q 3641 2881 3436 2590 
Q 3231 2300 2841 2188 
z
M 1259 4147 
L 1259 2491 
L 2053 2491 
Q 2509 2491 2742 2702 
Q 2975 2913 2975 3322 
Q 2975 3731 2742 3939 
Q 2509 4147 2053 4147 
L 1259 4147 
z
" transform="scale(0.015625)"/>
      </defs>
      <use xlink:href="#DejaVuSans-46"/>
      <use xlink:href="#DejaVuSans-61" x="48.394531"/>
      <use xlink:href="#DejaVuSans-6c" x="109.673828"/>
      <use xlink:href="#DejaVuSans-73" x="137.457031"/>
      <use xlink:href="#DejaVuSans-65" x="189.556641"/>
      <use xlink:href="#DejaVuSans-20" x="251.080078"/>
      <use xlink:href="#DejaVuSans-50" x="282.867188"/>
      <use xlink:href="#DejaVuSans-6f" x="339.544922"/>
      <use xlink:href="#DejaVuSans-73" x="400.726562"/>
      <use xlink:href="#DejaVuSans-69" x="452.826172"/>
      <use xlink:href="#DejaVuSans-74" x="480.609375"/>
      <use xlink:href="#DejaVuSans-69" x="519.818359"/>
      <use xlink:href="#DejaVuSans-76" x="547.601562"/>
      <use xlink:href="#DejaVuSans-65" x="606.78125"/>
      <use xlink:href="#DejaVuSans-20" x="668.304688"/>
      <use xlink:href="#DejaVuSans-52" x="700.091797"/>
      <use xlink:href="#DejaVuSans-61" x="767.324219"/>
      <use xlink:href="#DejaVuSans-74" x="828.603516"/>
      <use xlink:href="#DejaVuSans-65" x="867.8125"/>
     </g>
    </g>
   </g>
   <g id="matplotlib.axis_2">
    <g id="ytick_1">
     <g id="line2d_7">
      <defs>
       <path id="m97c1a717fc" d="M 0 0 
L -3.5 0 
" style="stroke: #000000; stroke-width: 0.8"/>
      </defs>
      <g>
       <use xlink:href="#m97c1a717fc" x="57.6" y="307.584" style="stroke: #000000; stroke-width: 0.8"/>
      </g>
     </g>
     <g id="text_8">
      <!-- 0.0 -->
      <g transform="translate(34.696875 311.383219)scale(0.1 -0.1)">
       <use xlink:href="#DejaVuSans-30"/>
       <use xlink:href="#DejaVuSans-2e" x="63.623047"/>
       <use xlink:href="#DejaVuSans-30" x="95.410156"/>
      </g>
     </g>
    </g>
    <g id="ytick_2">
     <g id="line2d_8">
      <g>
       <use xlink:href="#m97c1a717fc" x="57.6" y="256.896" style="stroke: #000000; stroke-width: 0.8"/>
      </g>
     </g>
     <g id="text_9">
      <!-- 0.2 -->
      <g transform="translate(34.696875 260.695219)scale(0.1 -0.1)">
       <use xlink:href="#DejaVuSans-30"/>
       <use xlink:href="#DejaVuSans-2e" x="63.623047"/>
       <use xlink:href="#DejaVuSans-32" x="95.410156"/>
      </g>
     </g>
    </g>
    <g id="ytick_3">
     <g id="line2d_9">
      <g>
       <use xlink:href="#m97c1a717fc" x="57.6" y="206.208" style="stroke: #000000; stroke-width: 0.8"/>
      </g>
     </g>
     <g id="text_10">
      <!-- 0.4 -->
      <g transform="translate(34.696875 210.007219)scale(0.1 -0.1)">
       <use xlink:href="#DejaVuSans-30"/>
       <use xlink:href="#DejaVuSans-2e" x="63.623047"/>
       <use xlink:href="#DejaVuSans-34" x="95.410156"/>
      </g>
     </g>
    </g>
    <g id="ytick_4">
     <g id="line2d_10">
      <g>
       <use xlink:href="#m97c1a717fc" x="57.6" y="155.52" style="stroke: #000000; stroke-width: 0.8"/>
      </g>
     </g>
     <g id="text_11">
      <!-- 0.6 -->
      <g transform="translate(34.696875 159.319219)scale(0.1 -0.1)">
       <use xlink:href="#DejaVuSans-30"/>
       <use xlink:href="#DejaVuSans-2e" x="63.623047"/>
       <use xlink:href="#DejaVuSans-36" x="95.410156"/>
      </g>
     </g>
    </g>
    <g id="ytick_5">
     <g id="line2d_11">
      <g>
       <use xlink:href="#m97c1a717fc" x="57.6" y="104.832" style="stroke: #000000; stroke-width: 0.8"/>
      </g>
     </g>
     <g id="text_12">
      <!-- 0.8 -->
      <g transform="translate(34.696875 108.631219)scale(0.1 -0.1)">
       <use xlink:href="#DejaVuSans-30"/>
       <use xlink:href="#DejaVuSans-2e" x="63.623047"/>
       <use xlink:href="#DejaVuSans-38" x="95.410156"/>
      </g>
     </g>
    </g>
    <g id="ytick_6">
     <g id="line2d_12">
      <g>
       <use xlink:href="#m97c1a717fc" x="57.6" y="54.144" style="stroke: #000000; stroke-width: 0.8"/>
      </g>
     </g>
     <g id="text_13">
      <!-- 1.0 -->
      <g transform="translate(34.696875 57.943219)scale(0.1 -0.1)">
       <use xlink:href="#DejaVuSans-31"/>
       <use xlink:href="#DejaVuSans-2e" x="63.623047"/>
       <use xlink:href="#DejaVuSans-30" x="95.410156"/>
      </g>
     </g>
    </g>
    <g id="text_14">
     <!-- True Positive Rate -->
     <g transform="translate(28.617187 219.057687)rotate(-90)scale(0.1 -0.1)">
      <defs>
       <path id="DejaVuSans-54" d="M -19 4666 
L 3928 4666 
L 3928 4134 
L 2272 4134 
L 2272 0 
L 1638 0 
L 1638 4134 
L -19 4134 
L -19 4666 
z
" transform="scale(0.015625)"/>
       <path id="DejaVuSans-72" d="M 2631 2963 
Q 2534 3019 2420 3045 
Q 2306 3072 2169 3072 
Q 1681 3072 1420 2755 
Q 1159 2438 1159 1844 
L 1159 0 
L 581 0 
L 581 3500 
L 1159 3500 
L 1159 2956 
Q 1341 3275 1631 3429 
Q 1922 3584 2338 3584 
Q 2397 3584 2469 3576 
Q 2541 3569 2628 3553 
L 2631 2963 
z
" transform="scale(0.015625)"/>
       <path id="DejaVuSans-75" d="M 544 1381 
L 544 3500 
L 1119 3500 
L 1119 1403 
Q 1119 906 1312 657 
Q 1506 409 1894 409 
Q 2359 409 2629 706 
Q 2900 1003 2900 1516 
L 2900 3500 
L 3475 3500 
L 3475 0 
L 2900 0 
L 2900 538 
Q 2691 219 2414 64 
Q 2138 -91 1772 -91 
Q 1169 -91 856 284 
Q 544 659 544 1381 
z
M 1991 3584 
L 1991 3584 
z
" transform="scale(0.015625)"/>
      </defs>
      <use xlink:href="#DejaVuSans-54"/>
      <use xlink:href="#DejaVuSans-72" x="46.333984"/>
      <use xlink:href="#DejaVuSans-75" x="87.447266"/>
      <use xlink:href="#DejaVuSans-65" x="150.826172"/>
      <use xlink:href="#DejaVuSans-20" x="212.349609"/>
      <use xlink:href="#DejaVuSans-50" x="244.136719"/>
      <use xlink:href="#DejaVuSans-6f" x="300.814453"/>
      <use xlink:href="#DejaVuSans-73" x="361.996094"/>
      <use xlink:href="#DejaVuSans-69" x="414.095703"/>
      <use xlink:href="#DejaVuSans-74" x="441.878906"/>
      <use xlink:href="#DejaVuSans-69" x="481.087891"/>
      <use xlink:href="#DejaVuSans-76" x="508.871094"/>
      <use xlink:href="#DejaVuSans-65" x="568.050781"/>
      <use xlink:href="#DejaVuSans-20" x="629.574219"/>
      <use xlink:href="#DejaVuSans-52" x="661.361328"/>
      <use xlink:href="#DejaVuSans-61" x="728.59375"/>
      <use xlink:href="#DejaVuSans-74" x="789.873047"/>
      <use xlink:href="#DejaVuSans-65" x="829.082031"/>
     </g>
    </g>
   </g>
   <g id="line2d_13">
    <path d="M 74.605714 307.584 
L 74.716815 306.694425 
L 74.742799 306.589582 
L 74.853728 306.033597 
L 74.874696 305.925577 
L 74.993043 305.37277 
L 75.027604 305.26475 
L 75.137503 304.819962 
L 75.138361 304.819962 
L 75.181069 304.711943 
L 75.290711 304.426008 
L 75.29204 304.426008 
L 75.346111 304.317988 
L 75.456697 304.08924 
L 75.457126 304.08924 
L 75.502921 303.98122 
L 75.613163 303.749295 
L 75.654199 303.641275 
L 75.763584 303.40935 
L 75.764999 303.40935 
L 75.804534 303.30133 
L 75.914776 302.96774 
L 75.915591 302.96774 
L 75.983469 302.85972 
L 76.098429 302.573785 
L 76.145167 302.465765 
L 76.255067 302.243371 
L 76.256096 302.243371 
L 76.304378 302.135351 
L 76.413892 301.893895 
L 76.415435 301.893895 
L 76.468606 301.785875 
L 76.576833 301.557127 
L 76.579706 301.557127 
L 76.633091 301.449108 
L 76.746463 301.271192 
L 76.824718 301.163173 
L 76.934103 300.934425 
L 76.935561 300.934425 
L 76.986159 300.826405 
L 77.0946 300.604011 
L 77.097259 300.604011 
L 77.170411 300.495991 
L 77.280139 300.337138 
L 77.281383 300.337138 
L 77.371558 300.229119 
L 77.484845 300.016256 
L 77.554524 299.908236 
L 77.668411 299.692196 
L 77.733245 299.584177 
L 77.844302 299.339543 
L 77.932934 299.231523 
L 78.050337 298.999598 
L 78.117186 298.891579 
L 78.230688 298.713664 
L 78.295778 298.605644 
L 78.406578 298.41502 
L 78.406836 298.41502 
L 78.480459 298.307001 
L 78.591002 298.13544 
L 78.591474 298.13544 
L 78.65545 298.030597 
L 78.767751 297.836796 
L 78.848793 297.728777 
L 78.962637 297.522268 
L 79.023997 297.414248 
L 79.137628 297.226802 
L 79.176047 297.118782 
L 79.28659 296.944044 
L 79.287148 296.944044 
L 79.400821 296.750244 
L 79.456178 296.642224 
L 79.571995 296.467486 
L 79.632112 296.359466 
L 79.745742 296.168843 
L 79.800113 296.060823 
L 79.910913 295.892439 
L 79.911213 295.892439 
L 79.981364 295.784419 
L 80.094908 295.593796 
L 80.171276 295.485776 
L 80.291081 295.272913 
L 80.369507 295.164894 
L 80.479964 294.97427 
L 80.480522 294.97427 
L 80.524044 294.86625 
L 80.637074 294.720106 
L 80.704909 294.612086 
L 80.815495 294.430994 
L 80.815966 294.430994 
L 80.871452 294.322974 
L 80.985511 294.103757 
L 81.046228 293.995737 
L 81.153555 293.846416 
L 81.157286 293.846416 
L 81.221562 293.738396 
L 81.334248 293.620845 
L 81.413318 293.512825 
L 81.527291 293.299962 
L 81.617809 293.191943 
L 81.745461 292.991788 
L 81.812696 292.883768 
L 81.926069 292.715384 
L 82.006639 292.607365 
L 82.114695 292.423095 
L 82.117739 292.423095 
L 82.177084 292.315076 
L 82.295216 292.143515 
L 82.388994 292.035495 
L 82.502109 291.882996 
L 82.574361 291.774976 
L 82.688934 291.508104 
L 82.762258 291.400084 
L 82.872329 291.247585 
L 82.873358 291.247585 
L 82.946853 291.139565 
L 83.057525 290.968004 
L 83.057825 290.968004 
L 83.119614 290.859985 
L 83.229556 290.640768 
L 83.230628 290.640768 
L 83.281269 290.532748 
L 83.398072 290.319885 
L 83.47727 290.211865 
L 83.593945 290.005357 
L 83.666925 289.897337 
L 83.780899 289.681297 
L 83.845775 289.573277 
L 83.959276 289.389008 
L 84.02664 289.280988 
L 84.142843 289.090365 
L 84.22873 288.982345 
L 84.343904 288.833024 
L 84.435022 288.725004 
L 84.553755 288.537558 
L 84.647575 288.429538 
L 84.76232 288.296101 
L 84.831227 288.188082 
L 84.944943 287.987927 
L 85.01758 287.879907 
L 85.130353 287.752825 
L 85.203119 287.644805 
L 85.318464 287.48913 
L 85.401693 287.38111 
L 85.512279 287.190486 
L 85.512793 287.190486 
L 85.564292 287.082467 
L 85.67775 286.904552 
L 85.760764 286.796532 
L 85.876281 286.631325 
L 85.955136 286.523305 
L 86.07314 286.354921 
L 86.166231 286.246901 
L 86.279432 286.081694 
L 86.338649 285.973675 
L 86.455152 285.77352 
L 86.541511 285.6655 
L 86.654669 285.493939 
L 86.74403 285.385919 
L 86.852343 285.208004 
L 86.855087 285.208004 
L 86.928539 285.099985 
L 87.044099 284.934778 
L 87.13063 284.826758 
L 87.252793 284.623426 
L 87.324358 284.515407 
L 87.441847 284.356554 
L 87.520145 284.248534 
L 87.636134 284.067442 
L 87.749764 283.959422 
L 87.865752 283.775153 
L 87.938476 283.667133 
L 88.051634 283.511457 
L 88.111794 283.403437 
L 88.224266 283.196929 
L 88.291286 283.088909 
L 88.413878 282.879223 
L 88.491104 282.771204 
L 88.607393 282.577403 
L 88.692851 282.469383 
L 88.809611 282.326416 
L 88.866512 282.218396 
L 88.982029 282.056366 
L 89.091972 281.948346 
L 89.202686 281.789494 
L 89.203072 281.789494 
L 89.275452 281.681474 
L 89.388825 281.51309 
L 89.469095 281.40507 
L 89.584312 281.252571 
L 89.665311 281.144552 
L 89.781514 280.953928 
L 89.853465 280.845908 
L 89.973141 280.687056 
L 90.064431 280.579036 
L 90.181535 280.429714 
L 90.263863 280.321694 
L 90.377622 280.115186 
L 90.480146 280.007166 
L 90.596821 279.870553 
L 90.655051 279.762533 
L 90.771854 279.622742 
L 90.841447 279.514723 
L 90.956492 279.365401 
L 91.057387 279.257381 
L 91.174405 279.03181 
L 91.24507 278.92379 
L 91.361787 278.787177 
L 91.436226 278.679157 
L 91.554444 278.577491 
L 91.642518 278.469472 
L 91.755848 278.288379 
L 91.818066 278.18036 
L 91.930153 278.027861 
L 92.015354 277.919841 
L 92.135673 277.69427 
L 92.206896 277.58625 
L 92.327172 277.417867 
L 92.420006 277.309847 
L 92.536166 277.1224 
L 92.60473 277.014381 
L 92.720332 276.849174 
L 92.806949 276.741154 
L 92.922723 276.569593 
L 92.997933 276.461573 
L 93.112764 276.32496 
L 93.180384 276.21694 
L 93.305935 276.042202 
L 93.365023 275.934182 
L 93.479296 275.762621 
L 93.550776 275.654601 
L 93.661276 275.50528 
L 93.661833 275.50528 
L 93.753423 275.39726 
L 93.856548 275.238407 
L 93.864481 275.238407 
L 93.959415 275.130387 
L 94.085952 274.942941 
L 94.171111 274.834921 
L 94.287742 274.63159 
L 94.37453 274.52357 
L 94.484215 274.367894 
L 94.485587 274.367894 
L 94.567658 274.259874 
L 94.68935 274.104199 
L 94.752039 273.996179 
L 94.868157 273.81191 
L 94.976984 273.70389 
L 95.092758 273.532329 
L 95.178603 273.424309 
L 95.295449 273.281341 
L 95.374604 273.173322 
L 95.49711 272.963636 
L 95.57961 272.855616 
L 95.699929 272.684055 
L 95.790276 272.576035 
L 95.903692 272.404474 
L 95.987735 272.296454 
L 96.10724 272.089946 
L 96.179877 271.981926 
L 96.292821 271.829427 
L 96.384411 271.721408 
L 96.500228 271.543493 
L 96.591904 271.435473 
L 96.710551 271.248026 
L 96.778086 271.143184 
L 96.89802 270.92079 
L 96.95685 270.81277 
L 97.079828 270.593553 
L 97.131498 270.485533 
L 97.248472 270.342566 
L 97.331272 270.234546 
L 97.461154 270.005798 
L 97.55 269.897778 
L 97.66796 269.729394 
L 97.747587 269.627729 
L 97.859288 269.478407 
L 97.979564 269.370387 
L 98.092251 269.246482 
L 98.173808 269.138462 
L 98.290568 268.995495 
L 98.385031 268.890652 
L 98.497761 268.76357 
L 98.585149 268.65555 
L 98.70118 268.468104 
L 98.77892 268.360084 
L 98.893794 268.213939 
L 98.97222 268.105919 
L 99.087737 267.94389 
L 99.164834 267.83587 
L 99.286654 267.680194 
L 99.366281 267.572174 
L 99.481283 267.42603 
L 99.565284 267.31801 
L 99.69152 267.133741 
L 99.744391 267.025721 
L 99.86158 266.876399 
L 99.949911 266.768379 
L 100.065557 266.654006 
L 100.163707 266.545986 
L 100.291874 266.339477 
L 100.377461 266.231457 
L 100.497523 266.063073 
L 100.558283 265.955054 
L 100.673328 265.799378 
L 100.759258 265.691358 
L 100.883951 265.491204 
L 100.963749 265.383184 
L 101.080424 265.217977 
L 101.149202 265.109957 
L 101.274024 264.909803 
L 101.352364 264.801783 
L 101.468053 264.690586 
L 101.562816 264.582566 
L 101.682835 264.417359 
L 101.776612 264.309339 
L 101.889513 264.172726 
L 101.983333 264.064706 
L 102.106911 263.883614 
L 102.216983 263.775594 
L 102.335201 263.600856 
L 102.423232 263.492836 
L 102.545524 263.327629 
L 102.627638 263.219609 
L 102.740496 263.063934 
L 102.839504 262.955914 
L 102.960853 262.768468 
L 103.033362 262.660448 
L 103.155611 262.457116 
L 103.244542 262.349097 
L 103.360874 262.218837 
L 103.448476 262.110817 
L 103.561506 261.961496 
L 103.682597 261.777227 
L 103.751161 261.669207 
L 103.866978 261.494469 
L 103.948492 261.386449 
L 104.077773 261.237127 
L 104.17275 261.129108 
L 104.286209 260.95437 
L 104.394694 260.84635 
L 104.507552 260.709736 
L 104.640435 260.512759 
L 104.708742 260.404739 
L 104.836222 260.198231 
L 104.912804 260.090211 
L 105.031623 259.95042 
L 105.101773 259.8424 
L 105.217462 259.731204 
L 105.284954 259.623184 
L 105.408103 259.445269 
L 105.501923 259.337249 
L 105.625973 259.146625 
L 105.7059 259.038606 
L 105.825576 258.88293 
L 105.911763 258.77491 
L 106.037914 258.552516 
L 106.114711 258.444496 
L 106.248323 258.241165 
L 106.382535 258.133145 
L 106.500239 258.00924 
L 106.561814 257.90122 
L 106.677716 257.720128 
L 106.802624 257.551744 
L 106.890441 257.443724 
L 107.01136 257.259455 
L 107.064102 257.151435 
L 107.183392 257.002114 
L 107.263448 256.894094 
L 107.378836 256.732064 
L 107.449672 256.624044 
L 107.571064 256.474723 
L 107.626678 256.366703 
L 107.756045 256.176079 
L 107.841461 256.06806 
L 107.956463 255.925092 
L 108.046081 255.817072 
L 108.163827 255.651865 
L 108.229132 255.543846 
L 108.346665 255.384993 
L 108.425219 255.276973 
L 108.542923 255.114943 
L 108.649049 255.006923 
L 108.764866 254.832185 
L 108.855899 254.724165 
L 108.978877 254.549427 
L 109.065107 254.441408 
L 109.207466 254.215837 
L 109.282162 254.107817 
L 109.403725 253.917194 
L 109.474647 253.809174 
L 109.609246 253.564541 
L 109.665803 253.456521 
L 109.794012 253.300845 
L 109.87797 253.192825 
L 110.000176 253.030795 
L 110.069726 252.922776 
L 110.193776 252.728975 
L 110.27872 252.620955 
L 110.399039 252.452571 
L 110.481368 252.344552 
L 110.604431 252.169814 
L 110.684058 252.061794 
L 110.819042 251.87117 
L 110.879802 251.766328 
L 110.99489 251.553465 
L 111.075803 251.445445 
L 111.206628 251.26753 
L 111.287413 251.15951 
L 111.409833 250.953002 
L 111.50584 250.844982 
L 111.623072 250.69566 
L 111.690907 250.58764 
L 111.815514 250.466912 
L 111.891882 250.358892 
L 112.027252 250.165092 
L 112.112539 250.057072 
L 112.237232 249.891865 
L 112.325435 249.783846 
L 112.455574 249.583691 
L 112.533185 249.475671 
L 112.655091 249.278694 
L 112.739263 249.170674 
L 112.882094 248.913333 
L 112.982303 248.805313 
L 113.116987 248.611512 
L 113.189839 248.503493 
L 113.312731 248.328755 
L 113.393344 248.220735 
L 113.506202 248.077767 
L 113.582956 247.969747 
L 113.705205 247.836311 
L 113.773769 247.731468 
L 113.902921 247.569438 
L 113.984907 247.461419 
L 114.109385 247.299389 
L 114.186911 247.191369 
L 114.306844 247.029339 
L 114.398649 246.921319 
L 114.515838 246.768821 
L 114.571753 246.660801 
L 114.690571 246.470178 
L 114.791638 246.362158 
L 114.915345 246.250961 
L 114.998916 246.142941 
L 115.114648 246.02539 
L 115.220517 245.91737 
L 115.364077 245.75534 
L 115.458497 245.64732 
L 115.595024 245.466228 
L 115.686872 245.358208 
L 115.814481 245.1517 
L 115.919664 245.04368 
L 116.042427 244.830817 
L 116.108761 244.722798 
L 116.234655 244.506758 
L 116.334692 244.398738 
L 116.461272 244.211292 
L 116.532966 244.103272 
L 116.651142 243.969836 
L 116.732784 243.861816 
L 116.853575 243.718848 
L 116.957471 243.610828 
L 117.073331 243.432913 
L 117.178 243.324894 
L 117.302135 243.13427 
L 117.393297 243.02625 
L 117.514473 242.902345 
L 117.59037 242.794325 
L 117.721881 242.606879 
L 117.787572 242.498859 
L 117.906433 242.355892 
L 117.999696 242.251049 
L 118.116756 242.069957 
L 118.195568 241.961937 
L 118.320519 241.793553 
L 118.421242 241.685533 
L 118.545592 241.523504 
L 118.628992 241.415484 
L 118.751284 241.27887 
L 118.84296 241.170851 
L 118.962636 241.046945 
L 119.040376 240.938926 
L 119.164726 240.776896 
L 119.261977 240.668876 
L 119.390357 240.490961 
L 119.497555 240.382941 
L 119.61989 240.246328 
L 119.690255 240.138308 
L 119.834201 239.874612 
L 119.924891 239.766592 
L 120.057388 239.595031 
L 120.142803 239.487012 
L 120.278645 239.309097 
L 120.370021 239.201077 
L 120.495957 239.048578 
L 120.562377 238.940558 
L 120.683768 238.78806 
L 120.759708 238.68004 
L 120.875868 238.54978 
L 120.952279 238.441761 
L 121.077057 238.317855 
L 121.20458 238.209836 
L 121.328845 238.050983 
L 121.413488 237.942963 
L 121.553832 237.78411 
L 121.640963 237.67609 
L 121.77063 237.507707 
L 121.84584 237.402864 
L 121.965817 237.240834 
L 122.040341 237.135991 
L 122.154357 236.977138 
L 122.235313 236.869119 
L 122.36305 236.697558 
L 122.466947 236.589538 
L 122.603903 236.376675 
L 122.67414 236.268655 
L 122.798576 236.074855 
L 122.875673 235.966835 
L 123.007183 235.782566 
L 123.071288 235.674546 
L 123.195466 235.483923 
L 123.292974 235.375903 
L 123.419939 235.210696 
L 123.516418 235.102676 
L 123.642869 234.943823 
L 123.7303 234.835804 
L 123.850233 234.708721 
L 123.955502 234.600702 
L 124.091729 234.400547 
L 124.182762 234.295704 
L 124.303296 234.124143 
L 124.456589 233.892218 
L 124.544278 233.784199 
L 124.674545 233.609461 
L 124.752843 233.501441 
L 124.877278 233.339411 
L 124.969683 233.231391 
L 125.106468 233.066184 
L 125.176576 232.958164 
L 125.312932 232.777072 
L 125.404908 232.675407 
L 125.521754 232.535616 
L 125.607813 232.427596 
L 125.732206 232.233796 
L 125.819894 232.125776 
L 125.942786 231.954215 
L 126.033947 231.846195 
L 126.160484 231.658749 
L 126.25409 231.553906 
L 126.381784 231.382345 
L 126.452792 231.274325 
L 126.58962 231.067817 
L 126.665945 230.959797 
L 126.792611 230.797767 
L 126.879056 230.689747 
L 127.003706 230.518186 
L 127.08076 230.410167 
L 127.199364 230.273553 
L 127.276204 230.165533 
L 127.397166 230.019389 
L 127.484726 229.911369 
L 127.61748 229.771579 
L 127.687545 229.663559 
L 127.835478 229.444342 
L 127.914977 229.336322 
L 128.031994 229.161584 
L 128.118696 229.053564 
L 128.239873 228.904243 
L 128.315255 228.802577 
L 128.434888 228.615131 
L 128.540671 228.507111 
L 128.679943 228.322842 
L 128.755282 228.214822 
L 128.883449 228.062323 
L 128.960074 227.95748 
L 129.085796 227.719201 
L 129.169368 227.611181 
L 129.303194 227.401496 
L 129.35555 227.293476 
L 129.477799 227.131446 
L 129.549578 227.023426 
L 129.677359 226.816918 
L 129.752912 226.708898 
L 129.874646 226.550045 
L 129.96465 226.442025 
L 130.082225 226.279996 
L 130.150918 226.171976 
L 130.274153 226.025831 
L 130.360126 225.917811 
L 130.51372 225.701772 
L 130.585714 225.596929 
L 130.706977 225.428545 
L 130.809758 225.320525 
L 130.963566 225.104485 
L 131.05417 224.996466 
L 131.173675 224.78678 
L 131.253259 224.67876 
L 131.427134 224.399179 
L 131.505561 224.291159 
L 131.628581 224.113244 
L 131.690799 224.005224 
L 131.830243 223.801893 
L 131.925092 223.693873 
L 132.060762 223.471479 
L 132.206037 223.268148 
L 132.287808 223.160128 
L 132.413916 222.940911 
L 132.503319 222.832891 
L 132.643534 222.642268 
L 132.734567 222.534248 
L 132.873024 222.286438 
L 132.94682 222.178418 
L 133.080775 222.016388 
L 133.165376 221.908368 
L 133.302847 221.666912 
L 133.385389 221.558892 
L 133.504679 221.358738 
L 133.629801 221.152229 
L 133.684086 221.04421 
L 133.82636 220.888534 
L 133.894409 220.780514 
L 134.015844 220.586714 
L 134.086937 220.478694 
L 134.21043 220.297602 
L 134.298204 220.189582 
L 134.433231 219.973542 
L 134.499651 219.865522 
L 134.637636 219.649483 
L 134.71126 219.541463 
L 134.879175 219.271413 
L 134.962061 219.163393 
L 135.086368 218.998186 
L 135.163937 218.890167 
L 135.315344 218.686835 
L 135.398873 218.578815 
L 135.525109 218.419962 
L 135.586298 218.311943 
L 135.733503 218.051424 
L 135.814973 217.946581 
L 135.93555 217.832207 
L 136.01076 217.724188 
L 136.17263 217.463669 
L 136.245996 217.355649 
L 136.380251 217.142787 
L 136.496411 217.034767 
L 136.63817 216.786956 
L 136.708921 216.678937 
L 136.841161 216.510553 
L 136.961823 216.402533 
L 137.10474 216.215087 
L 137.173518 216.107067 
L 137.309531 215.960922 
L 137.387314 215.852902 
L 137.532632 215.601915 
L 137.624566 215.493895 
L 137.751231 215.331865 
L 137.840334 215.223846 
L 137.979092 215.042753 
L 138.070853 214.934734 
L 138.201549 214.779058 
L 138.2723 214.671038 
L 138.402782 214.470884 
L 138.48168 214.362864 
L 138.632272 214.143647 
L 138.712371 214.035627 
L 138.842423 213.886306 
L 138.909315 213.778286 
L 139.043227 213.597194 
L 139.119895 213.489174 
L 139.238371 213.355737 
L 139.310151 213.250895 
L 139.430942 213.120635 
L 139.508082 213.012616 
L 139.636505 212.831523 
L 139.709229 212.726681 
L 139.839196 212.545589 
L 139.924997 212.437569 
L 140.08781 212.173873 
L 140.153544 212.06903 
L 140.278194 211.887938 
L 140.379218 211.783095 
L 140.503396 211.624243 
L 140.601204 211.516223 
L 140.745535 211.335131 
L 140.808954 211.227111 
L 140.929959 211.065081 
L 141.020177 210.957061 
L 141.150273 210.836333 
L 141.229343 210.728313 
L 141.360853 210.559929 
L 141.455574 210.45191 
L 141.608138 210.223162 
L 141.699214 210.115142 
L 141.841102 209.914987 
L 141.93728 209.810145 
L 142.066304 209.60999 
L 142.134482 209.50197 
L 142.276112 209.282753 
L 142.349436 209.174734 
L 142.485749 209.012704 
L 142.574466 208.904684 
L 142.735907 208.666405 
L 142.828955 208.561562 
L 142.955235 208.358231 
L 143.022083 208.250211 
L 143.23768 207.913443 
L 143.31512 207.805423 
L 143.447403 207.586206 
L 143.51035 207.478186 
L 143.653953 207.300271 
L 143.727448 207.192252 
L 143.853856 206.98892 
L 144.00835 206.769703 
L 144.083689 206.661683 
L 144.233252 206.467883 
L 144.294784 206.359863 
L 144.430711 206.226427 
L 144.520886 206.118407 
L 144.662259 205.940492 
L 144.747889 205.832472 
L 144.931413 205.546537 
L 145.023389 205.438517 
L 145.17814 205.152582 
L 145.237228 205.044563 
L 145.380616 204.869825 
L 145.463502 204.761805 
L 145.601616 204.587067 
L 145.670995 204.479047 
L 145.825361 204.301132 
L 145.929043 204.196289 
L 146.055965 204.002489 
L 146.123929 203.894469 
L 146.265388 203.713377 
L 146.350418 203.608534 
L 146.476954 203.430619 
L 146.545819 203.322599 
L 146.682303 203.090674 
L 146.756913 202.982654 
L 146.875217 202.839687 
L 146.959775 202.731667 
L 147.10415 202.560106 
L 147.198999 202.452086 
L 147.328795 202.280525 
L 147.454688 202.172505 
L 147.587014 202.004121 
L 147.681691 201.896101 
L 147.807585 201.743603 
L 147.90848 201.635583 
L 148.051868 201.425897 
L 148.134282 201.317878 
L 148.267422 201.14314 
L 148.351809 201.03512 
L 148.509776 200.793664 
L 148.614616 200.685644 
L 148.764994 200.469604 
L 148.852296 200.364761 
L 148.975617 200.16143 
L 149.063091 200.05341 
L 149.209138 199.862787 
L 149.295925 199.754767 
L 149.462126 199.526019 
L 149.5511 199.417999 
L 149.682225 199.2655 
L 149.762409 199.15748 
L 149.883801 199.020867 
L 149.987268 198.912847 
L 150.111833 198.731755 
L 150.204109 198.623735 
L 150.333476 198.458528 
L 150.423265 198.350509 
L 150.553618 198.213895 
L 150.666048 198.105875 
L 150.821099 197.883482 
L 150.918049 197.775462 
L 151.105775 197.51812 
L 151.218976 197.4101 
L 151.358248 197.241716 
L 151.432086 197.133697 
L 151.604933 196.838231 
L 151.677785 196.730211 
L 151.812083 196.542764 
L 151.890638 196.434745 
L 152.036599 196.205997 
L 152.110694 196.097977 
L 152.23856 195.894645 
L 152.374874 195.713553 
L 152.454886 195.605533 
L 152.578465 195.433972 
L 152.65762 195.325953 
L 152.7845 195.157569 
L 152.865156 195.052726 
L 152.989677 194.871634 
L 153.070805 194.763614 
L 153.200214 194.617469 
L 153.295235 194.512627 
L 153.414525 194.334712 
L 153.486091 194.226692 
L 153.631537 194.001121 
L 153.697829 193.896278 
L 153.826938 193.734248 
L 153.907123 193.626228 
L 154.033488 193.400657 
L 154.096306 193.292638 
L 154.229275 193.06389 
L 154.324167 192.95587 
L 154.488223 192.720768 
L 154.557044 192.612748 
L 154.698031 192.396708 
L 154.803557 192.288688 
L 154.950376 192.031347 
L 155.050328 191.923327 
L 155.187413 191.802599 
L 155.281447 191.694579 
L 155.419733 191.475362 
L 155.503176 191.367343 
L 155.626754 191.211667 
L 155.69549 191.103647 
L 155.853243 190.862191 
L 155.949078 190.754171 
L 156.114463 190.49683 
L 156.222176 190.391987 
L 156.340652 190.22678 
L 156.441847 190.11876 
L 156.559422 189.982147 
L 156.640807 189.874127 
L 156.799031 189.693035 
L 156.887534 189.585015 
L 157.009997 189.432516 
L 157.112908 189.324496 
L 157.253037 189.133873 
L 157.327476 189.02903 
L 157.457186 188.844761 
L 157.562669 188.736741 
L 157.697739 188.596951 
L 157.778823 188.488931 
L 157.926714 188.247475 
L 157.999523 188.139455 
L 158.138323 187.936124 
L 158.24878 187.828104 
L 158.415109 187.612064 
L 158.507557 187.504044 
L 158.660122 187.294359 
L 158.75467 187.186339 
L 158.88318 187.017955 
L 158.955603 186.909935 
L 159.097233 186.728843 
L 159.187494 186.620823 
L 159.318791 186.455616 
L 159.407979 186.347596 
L 159.550896 186.156973 
L 159.615987 186.048953 
L 159.763406 185.877392 
L 159.853838 185.769372 
L 159.980847 185.626405 
L 160.050526 185.518385 
L 160.191727 185.34047 
L 160.27204 185.235627 
L 160.409597 185.09266 
L 160.486523 184.987817 
L 160.608257 184.844849 
L 160.705378 184.73683 
L 160.873594 184.49855 
L 160.953993 184.390531 
L 161.081902 184.234855 
L 161.171133 184.130012 
L 161.292568 183.980691 
L 161.395349 183.872671 
L 161.538866 183.723349 
L 161.632386 183.615329 
L 161.781949 183.434237 
L 161.871267 183.326217 
L 162.004879 183.145125 
L 162.087378 183.037105 
L 162.222877 182.862367 
L 162.324072 182.754347 
L 162.51347 182.506537 
L 162.596956 182.398517 
L 162.738115 182.236488 
L 162.832578 182.128468 
L 162.959115 181.969615 
L 163.064726 181.861595 
L 163.201769 181.709097 
L 163.305665 181.601077 
L 163.465905 181.432693 
L 163.551878 181.32785 
L 163.684932 181.162643 
L 163.814042 181.054623 
L 163.997008 180.838584 
L 164.093486 180.730564 
L 164.224183 180.590773 
L 164.324477 180.482753 
L 164.531327 180.228589 
L 164.621116 180.120569 
L 164.820762 179.837811 
L 164.91827 179.729792 
L 165.107368 179.481981 
L 165.196213 179.373961 
L 165.334714 179.151568 
L 165.3905 179.043548 
L 165.602752 178.748082 
L 165.673546 178.640062 
L 165.809173 178.417668 
L 165.891716 178.309648 
L 166.067392 178.096785 
L 166.154609 177.988766 
L 166.281274 177.845798 
L 166.38307 177.737778 
L 166.573497 177.518562 
L 166.67482 177.410542 
L 166.791495 177.273928 
L 166.872365 177.165908 
L 167.055631 176.911744 
L 167.156698 176.803724 
L 167.284564 176.667111 
L 167.379456 176.559091 
L 167.518256 176.368468 
L 167.610961 176.266802 
L 167.741829 176.047585 
L 167.843067 175.939565 
L 167.975049 175.764827 
L 168.089923 175.659985 
L 168.222463 175.482069 
L 168.300675 175.37405 
L 168.460443 175.196135 
L 168.567213 175.088115 
L 168.737958 174.868898 
L 168.813554 174.760878 
L 168.942792 174.605202 
L 169.027779 174.497183 
L 169.243419 174.204894 
L 169.308724 174.096874 
L 169.506527 173.845886 
L 169.605278 173.741044 
L 169.742491 173.57266 
L 169.840899 173.46464 
L 170.045133 173.178705 
L 170.132136 173.070685 
L 170.322005 172.80699 
L 170.400474 172.69897 
L 170.559471 172.470222 
L 170.617915 172.362202 
L 170.795993 172.152516 
L 170.867558 172.044496 
L 171.06223 171.80304 
L 171.144344 171.69502 
L 171.330483 171.431325 
L 171.418172 171.323305 
L 171.533388 171.148567 
L 171.624635 171.040547 
L 171.98808 170.497271 
L 172.053085 170.392428 
L 172.19403 170.214513 
L 172.288407 170.106493 
L 172.410356 169.992119 
L 172.488568 169.884099 
L 172.631656 169.674414 
L 172.743228 169.566394 
L 172.896221 169.366239 
L 172.989827 169.25822 
L 173.221718 168.991347 
L 173.293841 168.883327 
L 173.431698 168.737183 
L 173.520158 168.629163 
L 173.688502 168.451248 
L 173.770873 168.343228 
L 173.883646 168.212969 
L 173.958856 168.104949 
L 174.140321 167.914325 
L 174.229939 167.806306 
L 174.398026 167.609328 
L 174.498964 167.501308 
L 174.733513 167.167718 
L 174.83115 167.059698 
L 174.999236 166.837304 
L 175.113252 166.729284 
L 175.301879 166.440172 
L 175.530811 166.147883 
L 175.613397 166.039863 
L 175.745765 165.887365 
L 175.951157 165.569659 
L 175.997124 165.461639 
L 176.165511 165.293255 
L 176.253113 165.185236 
L 176.437794 164.953311 
L 176.519222 164.848468 
L 176.673673 164.689615 
L 176.77088 164.581595 
L 176.919543 164.406857 
L 177.003715 164.302014 
L 177.147361 164.108214 
L 177.342633 163.825456 
L 177.429507 163.720613 
L 177.580485 163.501397 
L 177.693386 163.393377 
L 177.898349 163.132858 
L 177.991526 163.028015 
L 178.129125 162.843746 
L 178.229077 162.738903 
L 178.36316 162.589582 
L 178.455179 162.481562 
L 178.628498 162.275054 
L 178.70821 162.167034 
L 178.86472 161.966879 
L 178.992714 161.858859 
L 179.113505 161.712715 
L 179.223062 161.604695 
L 179.341495 161.493498 
L 179.438616 161.385478 
L 179.557006 161.252042 
L 179.663647 161.147199 
L 179.818227 160.940691 
L 179.895152 160.832671 
L 180.02855 160.670641 
L 180.108562 160.562621 
L 180.289556 160.343404 
L 180.351902 160.238562 
L 180.490703 160.086063 
L 180.596229 159.978043 
L 180.743519 159.831899 
L 180.843342 159.723879 
L 180.989303 159.533255 
L 181.085867 159.425236 
L 181.202456 159.282268 
L 181.332552 159.174248 
L 181.454587 159.05352 
L 181.514746 158.9455 
L 181.657449 158.758054 
L 181.747066 158.650034 
L 181.903447 158.44988 
L 182.044906 158.34186 
L 182.200686 158.205247 
L 182.292405 158.097227 
L 182.458134 157.871656 
L 182.618245 157.693741 
L 182.727673 157.585721 
L 182.927448 157.302963 
L 183.021225 157.194943 
L 183.159725 157.03609 
L 183.266451 156.928071 
L 183.409411 156.769218 
L 183.653223 156.473752 
L 183.747214 156.365732 
L 183.937898 156.146515 
L 184.016325 156.038495 
L 184.219487 155.768446 
L 184.325527 155.660426 
L 184.445546 155.52699 
L 184.676666 155.31095 
L 184.814952 155.20293 
L 184.971547 155.053608 
L 185.19006 154.764496 
L 185.279377 154.656477 
L 185.430527 154.513509 
L 185.51457 154.408666 
L 185.642951 154.237105 
L 185.747962 154.129085 
L 185.969348 153.817734 
L 186.055664 153.709714 
L 186.185331 153.522268 
L 186.360836 153.34753 
L 186.452083 153.23951 
L 186.63625 153.058418 
L 186.724453 152.950398 
L 186.924313 152.74389 
L 187.052436 152.63587 
L 187.203586 152.429361 
L 187.318631 152.321341 
L 187.470467 152.184728 
L 187.582853 152.076708 
L 187.695369 151.930564 
L 187.798365 151.822544 
L 187.946727 151.657337 
L 188.056755 151.549317 
L 188.210864 151.371402 
L 188.317762 151.266559 
L 188.46621 151.10453 
L 188.567105 150.99651 
L 188.762463 150.783647 
L 188.850537 150.675627 
L 189.016994 150.500889 
L 189.110043 150.392869 
L 189.244169 150.2086 
L 189.365646 150.10058 
L 189.557231 149.868655 
L 189.647106 149.760635 
L 189.781104 149.620845 
L 189.875224 149.516002 
L 190.02543 149.268192 
L 190.102956 149.163349 
L 190.243471 148.97908 
L 190.351098 148.87106 
L 190.493972 148.70903 
L 190.596711 148.607365 
L 190.73118 148.423095 
L 190.955568 148.143515 
L 191.107318 148.035495 
L 191.24749 147.863934 
L 191.406701 147.717789 
L 191.494303 147.609769 
L 191.632803 147.460448 
L 191.8198 147.269825 
L 191.925497 147.161805 
L 192.05688 147.01566 
L 192.125101 146.90764 
L 192.300134 146.707486 
L 192.414836 146.599466 
L 192.554837 146.485092 
L 192.633478 146.377072 
L 192.765546 146.275407 
L 192.868671 146.167387 
L 193.076978 145.906868 
L 193.17916 145.798848 
L 193.306597 145.662235 
L 193.452601 145.468435 
L 193.567089 145.360415 
L 193.697227 145.223801 
L 193.821149 145.115782 
L 193.951373 144.960106 
L 194.038461 144.852086 
L 194.171001 144.709119 
L 194.281415 144.601099 
L 194.442813 144.474017 
L 194.541992 144.365997 
L 194.681736 144.210321 
L 194.876279 144.032406 
L 194.979576 143.924386 
L 195.098995 143.800481 
L 195.245942 143.619389 
L 195.342034 143.511369 
L 195.504761 143.323923 
L 195.601926 143.215903 
L 195.846081 142.907729 
L 195.958296 142.799709 
L 196.130113 142.609085 
L 196.246273 142.504243 
L 196.37847 142.380338 
L 196.565081 142.173829 
L 196.675538 142.065809 
L 196.84028 141.906956 
L 196.944734 141.798937 
L 197.118781 141.57972 
L 197.193734 141.4717 
L 197.376228 141.284254 
L 197.504952 141.176234 
L 197.670252 141.033266 
L 197.767588 140.925247 
L 197.893953 140.801341 
L 197.988716 140.696499 
L 198.128846 140.524938 
L 198.251609 140.416918 
L 198.418324 140.235826 
L 198.538558 140.130983 
L 198.672341 139.997547 
L 198.77508 139.889527 
L 198.980815 139.692549 
L 199.08767 139.587707 
L 199.241178 139.412969 
L 199.362526 139.304949 
L 199.484775 139.165158 
L 199.591245 139.057138 
L 199.806756 138.837922 
L 199.921672 138.729902 
L 200.094176 138.539279 
L 200.19863 138.431259 
L 200.367617 138.231104 
L 200.490724 138.123084 
L 200.638186 137.97694 
L 200.731234 137.86892 
L 200.883884 137.741838 
L 200.986323 137.633818 
L 201.183739 137.414601 
L 201.294239 137.306581 
L 201.421247 137.179499 
L 201.528017 137.071479 
L 201.663644 136.918981 
L 201.83872 136.728357 
L 201.94356 136.620338 
L 202.068682 136.474193 
L 202.204952 136.366173 
L 202.372139 136.181904 
L 202.487055 136.073884 
L 202.685586 135.841959 
L 202.821814 135.733939 
L 202.974807 135.546493 
L 203.062281 135.438473 
L 203.199152 135.330453 
L 203.296531 135.222434 
L 203.422081 135.092174 
L 203.542272 134.984154 
L 203.666536 134.866603 
L 203.764044 134.758584 
L 203.941092 134.552075 
L 204.024278 134.444055 
L 204.18469 134.275671 
L 204.292188 134.167651 
L 204.439993 134.056454 
L 204.541274 133.951612 
L 204.674328 133.827707 
L 204.849362 133.656146 
L 204.961362 133.548126 
L 205.092616 133.436929 
L 205.202816 133.328909 
L 205.357996 133.179587 
L 205.486634 133.071568 
L 205.709778 132.833288 
L 205.825723 132.725269 
L 205.986649 132.57277 
L 206.12262 132.46475 
L 206.293923 132.277304 
L 206.399791 132.169284 
L 206.607284 131.975484 
L 206.701104 131.867464 
L 206.831329 131.743559 
L 206.9414 131.635539 
L 207.126896 131.432207 
L 207.219344 131.324188 
L 207.395835 131.104971 
L 207.481079 130.996951 
L 207.695775 130.752318 
L 207.836248 130.644298 
L 207.960641 130.507685 
L 208.098498 130.399665 
L 208.27203 130.215395 
L 208.422623 130.107376 
L 208.58402 129.9517 
L 208.717804 129.84368 
L 208.870411 129.694359 
L 208.962559 129.586339 
L 209.176355 129.392538 
L 209.290199 129.284518 
L 209.48217 129.068479 
L 209.601932 128.960459 
L 209.73147 128.788898 
L 209.859036 128.680878 
L 209.988189 128.518848 
L 210.126432 128.410828 
L 210.257942 128.31234 
L 210.376418 128.20432 
L 210.556039 128.04229 
L 210.673571 127.93427 
L 210.839857 127.77224 
L 210.954688 127.664221 
L 211.111412 127.473597 
L 211.210034 127.365577 
L 211.385754 127.190839 
L 211.512719 127.085997 
L 211.65718 126.943029 
L 211.768752 126.835009 
L 211.941984 126.660271 
L 212.034732 126.552252 
L 212.199946 126.361628 
L 212.322581 126.253608 
L 212.447788 126.126526 
L 212.575569 126.018506 
L 212.7747 125.837414 
L 212.907626 125.729394 
L 213.074984 125.570542 
L 213.193631 125.462522 
L 213.386416 125.287784 
L 213.510294 125.182941 
L 213.631386 125.036796 
L 213.756593 124.928777 
L 213.963657 124.712737 
L 214.0739 124.604717 
L 214.203095 124.46175 
L 214.316254 124.35373 
L 214.467875 124.233002 
L 214.578332 124.124982 
L 214.74316 123.982014 
L 214.86811 123.873994 
L 214.986071 123.740558 
L 215.096614 123.632538 
L 215.310196 123.42603 
L 215.439306 123.31801 
L 215.606535 123.168688 
L 215.699926 123.060669 
L 215.825305 122.946295 
L 215.92873 122.838275 
L 216.045405 122.742963 
L 216.184205 122.634943 
L 216.387667 122.463382 
L 216.533457 122.355362 
L 216.651546 122.253697 
L 216.760374 122.148854 
L 216.885324 122.040834 
L 217.049466 121.932814 
L 217.181792 121.815263 
L 217.342932 121.685004 
L 217.493567 121.576984 
L 217.633311 121.421308 
L 217.730818 121.313288 
L 217.879824 121.170321 
L 218.014722 121.062301 
L 218.162527 120.938396 
L 218.325554 120.830376 
L 218.448275 120.72871 
L 218.584245 120.614336 
L 218.715927 120.506317 
L 218.840706 120.398297 
L 218.935427 120.290277 
L 219.12178 120.099654 
L 219.225248 119.991634 
L 219.39222 119.826427 
L 219.512882 119.721584 
L 219.64748 119.610387 
L 219.747818 119.502367 
L 219.861662 119.387993 
L 219.9623 119.286328 
L 220.084163 119.171954 
L 220.174724 119.063934 
L 220.322572 118.971799 
L 220.469819 118.863779 
L 220.597771 118.746228 
L 220.729497 118.641386 
L 220.851016 118.523835 
L 220.940463 118.415815 
L 221.065842 118.285555 
L 221.146583 118.177536 
L 221.372943 117.958319 
L 221.522721 117.850299 
L 221.676786 117.710509 
L 221.878319 117.602489 
L 222.000225 117.469052 
L 222.139025 117.34197 
L 222.277611 117.23395 
L 222.405177 117.116399 
L 222.523481 117.008379 
L 222.67939 116.84635 
L 222.782386 116.73833 
L 222.92809 116.598539 
L 223.030528 116.49052 
L 223.201445 116.338021 
L 223.374806 116.230001 
L 223.499371 116.131512 
L 223.633454 116.023493 
L 223.790607 115.883702 
L 223.912727 115.775682 
L 224.052214 115.667662 
L 224.161599 115.559643 
L 224.299241 115.438915 
L 224.496915 115.260999 
L 224.612432 115.15298 
L 224.807404 114.959179 
L 224.911986 114.851159 
L 225.039767 114.692307 
L 225.199878 114.584287 
L 225.361061 114.438142 
L 225.47392 114.3333 
L 225.603415 114.237988 
L 225.733983 114.129968 
L 225.88629 114.018771 
L 225.99396 113.910751 
L 226.145495 113.790023 
L 226.279279 113.682003 
L 226.393466 113.605754 
L 226.534668 113.500911 
L 226.668194 113.370652 
L 226.804336 113.262632 
L 226.973838 113.087894 
L 227.090555 112.979874 
L 227.255769 112.827376 
L 227.383935 112.719356 
L 227.512187 112.604982 
L 227.633236 112.496962 
L 227.767105 112.34764 
L 227.937936 112.239621 
L 228.079609 112.109361 
L 228.224713 112.001341 
L 228.350478 111.893322 
L 228.547336 111.740823 
L 228.663925 111.63598 
L 228.789905 111.521606 
L 228.932307 111.413586 
L 229.074366 111.305566 
L 229.175261 111.197547 
L 229.340303 111.073641 
L 229.515551 110.965622 
L 229.659711 110.857602 
L 229.808845 110.749582 
L 229.948289 110.638385 
L 230.062134 110.530365 
L 230.223145 110.403283 
L 230.386858 110.29844 
L 230.511423 110.209483 
L 230.628569 110.101463 
L 230.795627 109.945787 
L 230.907285 109.837767 
L 231.036994 109.745633 
L 231.167776 109.64079 
L 231.294313 109.516885 
L 231.478008 109.408865 
L 231.631516 109.288137 
L 231.771817 109.180117 
L 231.931028 109.053035 
L 232.058722 108.945015 
L 232.220077 108.805224 
L 232.364195 108.697205 
L 232.526407 108.586008 
L 232.640852 108.477988 
L 232.790501 108.363614 
L 232.950698 108.255594 
L 233.079507 108.153928 
L 233.216678 108.045908 
L 233.359423 107.928357 
L 233.50041 107.820338 
L 233.685906 107.686901 
L 233.817631 107.578881 
L 233.939966 107.502632 
L 234.048408 107.394612 
L 234.2541 107.23576 
L 234.404735 107.12774 
L 234.620846 106.937116 
L 234.753043 106.829097 
L 234.940383 106.702014 
L 235.05054 106.593994 
L 235.191741 106.489152 
L 235.351467 106.381132 
L 235.499015 106.295351 
L 235.620963 106.190509 
L 235.735537 106.111082 
L 235.878196 106.003062 
L 236.012065 105.895042 
L 236.218658 105.787023 
L 236.35227 105.704419 
L 236.487125 105.596399 
L 236.634716 105.475671 
L 236.772272 105.367651 
L 236.915275 105.231038 
L 237.088379 105.097602 
L 237.267914 104.989582 
L 237.390378 104.910156 
L 237.589423 104.802136 
L 237.710815 104.719532 
L 237.896782 104.611512 
L 238.040171 104.516201 
L 238.216447 104.408181 
L 238.370084 104.277922 
L 238.508027 104.169902 
L 238.642882 104.071413 
L 238.77808 103.963393 
L 238.912336 103.887144 
L 239.105507 103.779124 
L 239.258629 103.677458 
L 239.411322 103.569438 
L 239.591715 103.436002 
L 239.760917 103.327982 
L 239.880936 103.25491 
L 240.022309 103.14689 
L 240.145201 103.057933 
L 240.323322 102.940382 
L 240.45732 102.835539 
L 240.569363 102.733873 
L 240.694914 102.625853 
L 240.853739 102.495594 
L 240.982634 102.387574 
L 241.159511 102.276377 
L 241.325668 102.168357 
L 241.472959 102.092108 
L 241.613388 101.984088 
L 241.80939 101.802996 
L 241.949048 101.694976 
L 242.069153 101.612373 
L 242.212026 101.504353 
L 242.358845 101.39951 
L 242.501805 101.29149 
L 242.646565 101.173939 
L 242.789268 101.065919 
L 242.910273 100.98967 
L 243.113864 100.88165 
L 243.257381 100.786339 
L 243.425296 100.681496 
L 243.550632 100.583007 
L 243.685359 100.474987 
L 243.800361 100.379676 
L 243.921753 100.281187 
L 244.06304 100.173167 
L 244.192278 100.11598 
L 244.373958 100.00796 
L 244.490847 99.928534 
L 244.665666 99.807806 
L 244.784827 99.702963 
L 244.911621 99.626714 
L 245.04086 99.518694 
L 245.208518 99.388435 
L 245.411937 99.280415 
L 245.570462 99.169218 
L 245.742537 99.061198 
L 245.885839 98.962709 
L 246.066618 98.854689 
L 246.181192 98.759378 
L 246.321236 98.651358 
L 246.490523 98.533807 
L 246.654108 98.425787 
L 246.822966 98.292351 
L 246.967298 98.184331 
L 247.120806 98.041363 
L 247.233278 97.936521 
L 247.359729 97.857094 
L 247.517397 97.749074 
L 247.657869 97.653763 
L 247.867935 97.545743 
L 248.022943 97.453608 
L 248.224562 97.345589 
L 248.350413 97.282047 
L 248.548687 97.174028 
L 248.664589 97.104132 
L 248.824572 96.996113 
L 248.963501 96.907155 
L 249.131802 96.799135 
L 249.248348 96.741948 
L 249.356661 96.637105 
L 249.475351 96.595804 
L 249.64734 96.490961 
L 249.773148 96.414712 
L 249.953713 96.306692 
L 250.088182 96.205026 
L 250.305537 96.097006 
L 250.453042 96.011226 
L 250.623402 95.903206 
L 250.763403 95.814248 
L 250.982987 95.706228 
L 251.169341 95.566438 
L 251.356895 95.458418 
L 251.479959 95.353575 
L 251.673301 95.245555 
L 251.840359 95.137536 
L 251.985849 95.032693 
L 252.109298 94.931027 
L 252.24604 94.823007 
L 252.393202 94.721341 
L 252.552927 94.613322 
L 252.688169 94.543426 
L 252.821738 94.435407 
L 252.946345 94.371865 
L 253.15491 94.263846 
L 253.313649 94.146295 
L 253.51128 94.038275 
L 253.6614 93.958848 
L 253.841107 93.850828 
L 253.963013 93.803173 
L 254.158971 93.695153 
L 254.301245 93.599841 
L 254.503207 93.491821 
L 254.623183 93.421926 
L 254.835521 93.317083 
L 254.94988 93.23448 
L 255.089581 93.12646 
L 255.227395 93.059742 
L 255.445736 92.951722 
L 255.560439 92.894535 
L 255.792158 92.786515 
L 255.926371 92.713443 
L 256.128504 92.605423 
L 256.276566 92.513288 
L 256.486503 92.408446 
L 256.609181 92.325842 
L 256.771993 92.214645 
L 256.893685 92.106625 
L 257.029098 92.030376 
L 257.207004 91.922356 
L 257.319776 91.836576 
L 257.499826 91.728556 
L 257.615429 91.658661 
L 257.777556 91.550641 
L 257.924503 91.461683 
L 258.111457 91.353664 
L 258.244297 91.2933 
L 258.543037 91.18528 
L 258.676906 91.112207 
L 258.828742 91.004188 
L 258.949404 90.931115 
L 259.135843 90.823095 
L 259.270013 90.740492 
L 259.416017 90.664243 
L 259.62351 90.556223 
L 259.771057 90.464088 
L 259.997074 90.356068 
L 260.140077 90.241694 
L 260.313052 90.133675 
L 260.458027 90.022478 
L 260.61385 89.936697 
L 260.835665 89.831854 
L 260.962116 89.733366 
L 261.169651 89.625346 
L 261.311239 89.52368 
L 261.525378 89.41566 
L 261.645054 89.358473 
L 261.860651 89.250453 
L 261.987231 89.209152 
L 262.203857 89.101132 
L 262.37992 88.986758 
L 262.562714 88.878738 
L 262.685135 88.770718 
L 262.90532 88.662698 
L 263.041719 88.592803 
L 263.260146 88.484783 
L 263.394058 88.414888 
L 263.536632 88.306868 
L 263.659824 88.211557 
L 263.874263 88.103537 
L 264.025713 88.011402 
L 264.282389 87.903382 
L 264.414114 87.858903 
L 264.60587 87.750884 
L 264.721258 87.693697 
L 264.883728 87.585677 
L 265.036335 87.493542 
L 265.252404 87.388699 
L 265.374653 87.325158 
L 265.587249 87.217138 
L 265.712885 87.153597 
L 265.91043 87.045577 
L 266.032078 86.978859 
L 266.247247 86.870839 
L 266.358604 86.79459 
L 266.534924 86.68657 
L 266.651727 86.623029 
L 266.870926 86.515009 
L 266.988716 86.460999 
L 267.227253 86.35298 
L 267.354819 86.314855 
L 267.562655 86.206835 
L 267.689278 86.146471 
L 267.889867 86.038451 
L 268.027038 85.955848 
L 268.231401 85.847828 
L 268.350434 85.774756 
L 268.638325 85.666736 
L 268.757573 85.612726 
L 268.945984 85.504706 
L 269.058071 85.45705 
L 269.245753 85.34903 
L 269.378636 85.266427 
L 269.611299 85.158407 
L 269.745469 85.078981 
L 269.942842 84.970961 
L 270.056515 84.926482 
L 270.271726 84.818462 
L 270.393161 84.767629 
L 270.599968 84.659609 
L 270.717928 84.611954 
L 270.869335 84.503934 
L 270.987682 84.440393 
L 271.252762 84.332373 
L 271.384573 84.243415 
L 271.634216 84.135395 
L 271.759124 84.090917 
L 271.967517 83.982897 
L 272.09444 83.941595 
L 272.290613 83.833575 
L 272.415306 83.735087 
L 272.615723 83.627067 
L 272.74166 83.585765 
L 272.983885 83.477745 
L 273.115953 83.398319 
L 273.387079 83.290299 
L 273.507613 83.207696 
L 273.715106 83.099676 
L 273.84696 83.020249 
L 274.086483 82.912229 
L 274.201486 82.867751 
L 274.438137 82.759731 
L 274.559185 82.724783 
L 274.80424 82.616763 
L 274.928076 82.550045 
L 275.142601 82.442025 
L 275.279 82.365776 
L 275.547724 82.257756 
L 275.668172 82.2101 
L 275.892603 82.102081 
L 276.027244 82.041716 
L 276.307288 81.933697 
L 276.432925 81.886041 
L 276.680595 81.778021 
L 276.814379 81.720834 
L 277.100941 81.612814 
L 277.21946 81.561981 
L 277.44196 81.453961 
L 277.579088 81.384066 
L 277.826459 81.276046 
L 277.957155 81.202974 
L 278.246633 81.094954 
L 278.368368 81.063184 
L 278.654887 80.955164 
L 278.779537 80.897977 
L 279.089169 80.789957 
L 279.223381 80.716885 
L 279.499438 80.608865 
L 279.613411 80.564386 
L 279.935906 80.456366 
L 280.06969 80.389648 
L 280.365943 80.281628 
L 280.486176 80.21491 
L 280.75846 80.10689 
L 280.876549 80.046526 
L 281.131638 79.938506 
L 281.25363 79.849549 
L 281.466654 79.741529 
L 281.594349 79.681165 
L 281.888372 79.573145 
L 282.017996 79.528666 
L 282.215413 79.423823 
L 282.335346 79.363459 
L 282.634687 79.25544 
L 282.76877 79.198253 
L 283.014812 79.090233 
L 283.133973 79.036223 
L 283.38426 78.928203 
L 283.511311 78.893255 
L 283.785781 78.785236 
L 283.912061 78.724871 
L 284.218648 78.620029 
L 284.336823 78.559665 
L 284.575061 78.451645 
L 284.690363 78.397635 
L 284.939406 78.289615 
L 285.07602 78.235605 
L 285.400316 78.127585 
L 285.528696 78.073575 
L 285.875032 77.965555 
L 286.007144 77.89566 
L 286.141356 77.86389 
L 286.507931 77.75587 
L 286.640471 77.685975 
L 286.907437 77.577955 
L 287.024884 77.533476 
L 287.377909 77.425456 
L 287.50629 77.361915 
L 287.808717 77.253895 
L 287.939456 77.196708 
L 288.150465 77.088688 
L 288.263838 77.050564 
L 288.655283 76.942544 
L 288.776846 76.920304 
L 289.056677 76.812285 
L 289.182399 76.748744 
L 289.514199 76.640724 
L 289.639406 76.586714 
L 289.909332 76.478694 
L 290.027678 76.453277 
L 290.368397 76.345258 
L 290.484086 76.278539 
L 290.852976 76.17052 
L 290.968021 76.126041 
L 291.289659 76.018021 
L 291.408864 75.973542 
L 291.834612 75.865522 
L 291.948671 75.811512 
L 292.287332 75.703493 
L 292.398303 75.674899 
L 292.664284 75.566879 
L 292.784817 75.509692 
L 293.067864 75.404849 
L 293.185868 75.334954 
L 293.564963 75.226934 
L 293.691329 75.172924 
L 293.977848 75.068082 
L 294.096495 74.991832 
L 294.446648 74.883812 
L 294.571641 74.829803 
L 294.930198 74.721783 
L 295.054419 74.664596 
L 295.265685 74.556576 
L 295.389907 74.502566 
L 295.625228 74.394546 
L 295.739373 74.359598 
L 296.014444 74.254756 
L 296.13129 74.197569 
L 296.410091 74.089549 
L 296.528138 74.04507 
L 296.822504 73.93705 
L 296.935748 73.908457 
L 297.292461 73.800437 
L 297.407506 73.752781 
L 297.703974 73.644761 
L 297.82395 73.590751 
L 298.098849 73.482731 
L 298.219254 73.454138 
L 298.579741 73.346118 
L 298.718884 73.276223 
L 299.026286 73.168203 
L 299.150378 73.130078 
L 299.559061 73.022058 
L 299.673463 72.993465 
L 300.037594 72.885445 
L 300.154397 72.872737 
L 300.477064 72.764717 
L 300.595025 72.726592 
L 300.913361 72.618573 
L 301.028663 72.589979 
L 301.348371 72.481959 
L 301.469806 72.43748 
L 301.802249 72.329461 
L 301.928528 72.281805 
L 302.355349 72.173785 
L 302.476268 72.13566 
L 302.767247 72.02764 
L 302.883236 71.976808 
L 303.177345 71.868788 
L 303.292776 71.817955 
L 303.569305 71.709935 
L 303.702359 71.643217 
L 304.195514 71.535197 
L 304.310902 71.493895 
L 304.67216 71.385875 
L 304.802128 71.344574 
L 305.104212 71.236554 
L 305.232293 71.201606 
L 305.565722 71.093586 
L 305.67262 71.023691 
L 305.676651 71.023691 
L 305.990227 70.915671 
L 306.109517 70.868015 
L 306.502978 70.759996 
L 306.619995 70.731402 
L 307.099257 70.623382 
L 307.211087 70.597966 
L 307.637264 70.489946 
L 307.754796 70.461352 
L 308.061512 70.353333 
L 308.193709 70.289792 
L 308.754699 70.181772 
L 308.875661 70.143647 
L 309.303811 70.035627 
L 309.418084 70.00068 
L 309.803912 69.89266 
L 309.918743 69.864066 
L 310.30024 69.756046 
L 310.422275 69.708391 
L 310.815864 69.600371 
L 310.942443 69.562246 
L 311.332131 69.454226 
L 311.455108 69.422456 
L 311.851742 69.314436 
L 311.965158 69.282665 
L 312.331476 69.174645 
L 312.449436 69.146052 
L 312.847271 69.038032 
L 312.960386 69.003084 
L 313.237086 68.895065 
L 313.36298 68.847409 
L 313.76656 68.739389 
L 313.884178 68.704441 
L 314.254312 68.596421 
L 314.377461 68.551943 
L 314.959848 68.443923 
L 315.082011 68.408975 
L 315.589059 68.300955 
L 315.709507 68.269185 
L 316.285805 68.161165 
L 316.402865 68.113509 
L 316.86326 68.005489 
L 316.982722 67.973719 
L 317.367264 67.865699 
L 317.479693 67.843459 
L 317.795499 67.73544 
L 317.910115 67.716377 
L 318.307006 67.608357 
L 318.428526 67.567056 
L 318.760841 67.459036 
L 318.88592 67.420911 
L 319.40656 67.312891 
L 319.520147 67.277944 
L 319.941865 67.169924 
L 320.066215 67.128622 
L 320.562758 67.020602 
L 320.681662 66.985655 
L 321.170872 66.877635 
L 321.289047 66.845864 
L 321.785675 66.737844 
L 321.905394 66.709251 
L 322.346065 66.601231 
L 322.460939 66.563106 
L 322.92798 66.455087 
L 323.040924 66.423316 
L 323.590122 66.315296 
L 323.70401 66.261286 
L 324.310066 66.153266 
L 324.422109 66.12785 
L 324.839453 66.01983 
L 324.962646 65.991237 
L 325.544389 65.883217 
L 325.659005 65.864154 
L 326.184577 65.756135 
L 326.307941 65.714833 
L 326.788532 65.606813 
L 326.909409 65.565511 
L 327.517394 65.457491 
L 327.632911 65.428898 
L 328.338018 65.320878 
L 328.45152 65.282753 
L 328.925165 65.174734 
L 329.039738 65.152494 
L 329.576587 65.044474 
L 329.693819 65.019058 
L 330.387606 64.911038 
L 330.503509 64.888799 
L 330.938005 64.780779 
L 331.051163 64.758539 
L 331.715835 64.65052 
L 331.828694 64.609218 
L 332.335913 64.501198 
L 332.449286 64.472605 
L 333.134883 64.364585 
L 333.251343 64.348699 
L 333.766452 64.24068 
L 333.885871 64.212086 
L 334.475076 64.104066 
L 334.58802 64.081827 
L 335.254192 63.973807 
L 335.365807 63.964276 
L 335.807893 63.856256 
L 335.92341 63.840371 
L 336.497392 63.732351 
L 336.610036 63.70058 
L 337.29156 63.59256 
L 337.403517 63.583029 
L 337.840029 63.475009 
L 337.951901 63.436885 
L 338.557614 63.328865 
L 338.674717 63.303448 
L 339.265808 63.195429 
L 339.380596 63.163658 
L 339.936784 63.055638 
L 340.052558 63.027045 
L 340.52423 62.919025 
L 340.643177 62.890431 
L 341.196963 62.782411 
L 341.314581 62.763349 
L 341.912147 62.655329 
L 342.029465 62.620382 
L 342.721408 62.512362 
L 342.836239 62.486945 
L 343.516433 62.378926 
L 343.629163 62.366217 
L 344.215838 62.258197 
L 344.327796 62.235958 
L 345.07188 62.127938 
L 345.184481 62.11523 
L 345.707909 62.00721 
L 345.823897 61.984971 
L 346.555461 61.876951 
L 346.668405 61.870597 
L 347.364465 61.762577 
L 347.479296 61.727629 
L 348.224452 61.619609 
L 348.336238 61.613255 
L 348.906919 61.505236 
L 349.020078 61.486173 
L 349.748597 61.378153 
L 349.861584 61.359091 
L 350.587616 61.251071 
L 350.703562 61.24154 
L 351.464712 61.13352 
L 351.5786 61.114458 
L 352.052845 61.006438 
L 352.166689 60.977844 
L 352.685057 60.869825 
L 352.796372 60.850762 
L 353.531366 60.742742 
L 353.643838 60.720503 
L 354.229055 60.612483 
L 354.340027 60.599775 
L 355.311843 60.491755 
L 355.428218 60.479047 
L 356.341632 60.371027 
L 356.452561 60.364673 
L 357.185154 60.256653 
L 357.299599 60.224883 
L 357.985196 60.116863 
L 358.099684 60.088269 
L 359.027763 59.980249 
L 359.142594 59.95801 
L 359.986373 59.84999 
L 360.099017 59.827751 
L 361.067532 59.719731 
L 361.179361 59.707023 
L 361.926919 59.599003 
L 362.041664 59.570409 
L 363.183068 59.462389 
L 363.295154 59.446504 
L 364.345783 59.338484 
L 364.445091 59.309891 
L 364.456712 59.309891 
L 365.354561 59.201871 
L 365.466219 59.179632 
L 366.23839 59.071612 
L 366.351548 59.049372 
L 367.035173 58.941352 
L 367.149575 58.909582 
L 368.002573 58.801562 
L 368.117489 58.792031 
L 369.166403 58.684011 
L 369.279089 58.664949 
L 370.078402 58.556929 
L 370.191218 58.534689 
L 371.031652 58.42667 
L 371.147984 58.388545 
L 372.068216 58.280525 
L 372.180646 58.26464 
L 372.908393 58.15662 
L 373.020137 58.147089 
L 373.918673 58.039069 
L 374.031359 58.029538 
L 374.705937 57.921518 
L 374.816994 57.902456 
L 375.710727 57.794436 
L 375.824872 57.788082 
L 376.61175 57.680062 
L 376.726881 57.648291 
L 377.621944 57.540271 
L 377.726398 57.533917 
L 377.732787 57.533917 
L 378.7269 57.425897 
L 378.839716 57.406835 
L 379.711409 57.298815 
L 379.822852 57.292461 
L 380.858516 57.184441 
L 380.972018 57.168556 
L 381.770087 57.060536 
L 381.882174 57.044651 
L 383.037085 56.936631 
L 383.1487 56.917569 
L 383.988405 56.809549 
L 384.101306 56.790486 
L 385.383955 56.682467 
L 385.495741 56.676113 
L 386.580158 56.568093 
L 386.653225 56.54903 
L 386.691087 56.54903 
L 387.85749 56.44101 
L 387.97052 56.415594 
L 389.103134 56.307574 
L 389.21462 56.294866 
L 390.567505 56.186846 
L 390.680234 56.170961 
L 391.767996 56.062941 
L 391.879183 56.056587 
L 393.306806 55.948567 
L 393.419579 55.935859 
L 394.69065 55.827839 
L 394.803036 55.811954 
L 396.403763 55.703934 
L 396.516493 55.688049 
L 397.368376 55.580029 
L 397.480892 55.570498 
L 398.863577 55.462478 
L 398.975492 55.449769 
L 400.40556 55.34175 
L 400.434332 55.335395 
L 400.516617 55.335395 
L 401.682806 55.227376 
L 401.794463 55.214667 
L 402.952119 55.106648 
L 403.063348 55.090762 
L 404.548344 54.982742 
L 404.66013 54.973211 
L 405.862037 54.865191 
L 405.973437 54.85566 
L 407.081353 54.74764 
L 407.192539 54.731755 
L 408.584144 54.623735 
L 408.695501 54.614204 
L 409.405882 54.506184 
L 409.517283 54.493476 
L 410.90966 54.385456 
L 411.015314 54.366394 
L 411.020417 54.366394 
L 412.691209 54.258374 
L 412.777439 54.25202 
L 412.80218 54.25202 
L 414.72 54.144 
L 414.72 54.144 
" clip-path="url(#p4179733f09)" style="fill: none; stroke: #ff8c00; stroke-width: 1.5; stroke-linecap: square"/>
   </g>
   <g id="line2d_14">
    <path d="M 74.605714 307.584 
L 414.72 54.144 
" clip-path="url(#p4179733f09)" style="fill: none; stroke-dasharray: 5.55,2.4; stroke-dashoffset: 0; stroke: #0000ff; stroke-width: 1.5"/>
   </g>
   <g id="patch_3">
    <path d="M 57.6 307.584 
L 57.6 41.472 
" style="fill: none; stroke: #000000; stroke-width: 0.8; stroke-linejoin: miter; stroke-linecap: square"/>
   </g>
   <g id="patch_4">
    <path d="M 414.72 307.584 
L 414.72 41.472 
" style="fill: none; stroke: #000000; stroke-width: 0.8; stroke-linejoin: miter; stroke-linecap: square"/>
   </g>
   <g id="patch_5">
    <path d="M 57.6 307.584 
L 414.72 307.584 
" style="fill: none; stroke: #000000; stroke-width: 0.8; stroke-linejoin: miter; stroke-linecap: square"/>
   </g>
   <g id="patch_6">
    <path d="M 57.6 41.472 
L 414.72 41.472 
" style="fill: none; stroke: #000000; stroke-width: 0.8; stroke-linejoin: miter; stroke-linecap: square"/>
   </g>
   <g id="text_15">
    <!-- ROC CURVE -->
    <g transform="translate(200.855625 35.472)scale(0.12 -0.12)">
     <defs>
      <path id="DejaVuSans-4f" d="M 2522 4238 
Q 1834 4238 1429 3725 
Q 1025 3213 1025 2328 
Q 1025 1447 1429 934 
Q 1834 422 2522 422 
Q 3209 422 3611 934 
Q 4013 1447 4013 2328 
Q 4013 3213 3611 3725 
Q 3209 4238 2522 4238 
z
M 2522 4750 
Q 3503 4750 4090 4092 
Q 4678 3434 4678 2328 
Q 4678 1225 4090 567 
Q 3503 -91 2522 -91 
Q 1538 -91 948 565 
Q 359 1222 359 2328 
Q 359 3434 948 4092 
Q 1538 4750 2522 4750 
z
" transform="scale(0.015625)"/>
      <path id="DejaVuSans-43" d="M 4122 4306 
L 4122 3641 
Q 3803 3938 3442 4084 
Q 3081 4231 2675 4231 
Q 1875 4231 1450 3742 
Q 1025 3253 1025 2328 
Q 1025 1406 1450 917 
Q 1875 428 2675 428 
Q 3081 428 3442 575 
Q 3803 722 4122 1019 
L 4122 359 
Q 3791 134 3420 21 
Q 3050 -91 2638 -91 
Q 1578 -91 968 557 
Q 359 1206 359 2328 
Q 359 3453 968 4101 
Q 1578 4750 2638 4750 
Q 3056 4750 3426 4639 
Q 3797 4528 4122 4306 
z
" transform="scale(0.015625)"/>
      <path id="DejaVuSans-55" d="M 556 4666 
L 1191 4666 
L 1191 1831 
Q 1191 1081 1462 751 
Q 1734 422 2344 422 
Q 2950 422 3222 751 
Q 3494 1081 3494 1831 
L 3494 4666 
L 4128 4666 
L 4128 1753 
Q 4128 841 3676 375 
Q 3225 -91 2344 -91 
Q 1459 -91 1007 375 
Q 556 841 556 1753 
L 556 4666 
z
" transform="scale(0.015625)"/>
      <path id="DejaVuSans-56" d="M 1831 0 
L 50 4666 
L 709 4666 
L 2188 738 
L 3669 4666 
L 4325 4666 
L 2547 0 
L 1831 0 
z
" transform="scale(0.015625)"/>
      <path id="DejaVuSans-45" d="M 628 4666 
L 3578 4666 
L 3578 4134 
L 1259 4134 
L 1259 2753 
L 3481 2753 
L 3481 2222 
L 1259 2222 
L 1259 531 
L 3634 531 
L 3634 0 
L 628 0 
L 628 4666 
z
" transform="scale(0.015625)"/>
     </defs>
     <use xlink:href="#DejaVuSans-52"/>
     <use xlink:href="#DejaVuSans-4f" x="69.482422"/>
     <use xlink:href="#DejaVuSans-43" x="148.193359"/>
     <use xlink:href="#DejaVuSans-20" x="218.017578"/>
     <use xlink:href="#DejaVuSans-43" x="249.804688"/>
     <use xlink:href="#DejaVuSans-55" x="319.628906"/>
     <use xlink:href="#DejaVuSans-52" x="392.822266"/>
     <use xlink:href="#DejaVuSans-56" x="456.804688"/>
     <use xlink:href="#DejaVuSans-45" x="525.212891"/>
    </g>
   </g>
   <g id="legend_1">
    <g id="patch_7">
     <path d="M 234.97 302.584 
L 407.72 302.584 
Q 409.72 302.584 409.72 300.584 
L 409.72 286.905875 
Q 409.72 284.905875 407.72 284.905875 
L 234.97 284.905875 
Q 232.97 284.905875 232.97 286.905875 
L 232.97 300.584 
Q 232.97 302.584 234.97 302.584 
z
" style="fill: #ffffff; opacity: 0.8; stroke: #cccccc; stroke-linejoin: miter"/>
    </g>
    <g id="line2d_15">
     <path d="M 236.97 293.004312 
L 246.97 293.004312 
L 256.97 293.004312 
" style="fill: none; stroke: #ff8c00; stroke-width: 1.5; stroke-linecap: square"/>
    </g>
    <g id="text_16">
     <!-- ROC curve (ROC AUC=0.70) -->
     <g transform="translate(264.97 296.504312)scale(0.1 -0.1)">
      <defs>
       <path id="DejaVuSans-63" d="M 3122 3366 
L 3122 2828 
Q 2878 2963 2633 3030 
Q 2388 3097 2138 3097 
Q 1578 3097 1268 2742 
Q 959 2388 959 1747 
Q 959 1106 1268 751 
Q 1578 397 2138 397 
Q 2388 397 2633 464 
Q 2878 531 3122 666 
L 3122 134 
Q 2881 22 2623 -34 
Q 2366 -91 2075 -91 
Q 1284 -91 818 406 
Q 353 903 353 1747 
Q 353 2603 823 3093 
Q 1294 3584 2113 3584 
Q 2378 3584 2631 3529 
Q 2884 3475 3122 3366 
z
" transform="scale(0.015625)"/>
       <path id="DejaVuSans-28" d="M 1984 4856 
Q 1566 4138 1362 3434 
Q 1159 2731 1159 2009 
Q 1159 1288 1364 580 
Q 1569 -128 1984 -844 
L 1484 -844 
Q 1016 -109 783 600 
Q 550 1309 550 2009 
Q 550 2706 781 3412 
Q 1013 4119 1484 4856 
L 1984 4856 
z
" transform="scale(0.015625)"/>
       <path id="DejaVuSans-41" d="M 2188 4044 
L 1331 1722 
L 3047 1722 
L 2188 4044 
z
M 1831 4666 
L 2547 4666 
L 4325 0 
L 3669 0 
L 3244 1197 
L 1141 1197 
L 716 0 
L 50 0 
L 1831 4666 
z
" transform="scale(0.015625)"/>
       <path id="DejaVuSans-3d" d="M 678 2906 
L 4684 2906 
L 4684 2381 
L 678 2381 
L 678 2906 
z
M 678 1631 
L 4684 1631 
L 4684 1100 
L 678 1100 
L 678 1631 
z
" transform="scale(0.015625)"/>
       <path id="DejaVuSans-37" d="M 525 4666 
L 3525 4666 
L 3525 4397 
L 1831 0 
L 1172 0 
L 2766 4134 
L 525 4134 
L 525 4666 
z
" transform="scale(0.015625)"/>
       <path id="DejaVuSans-29" d="M 513 4856 
L 1013 4856 
Q 1481 4119 1714 3412 
Q 1947 2706 1947 2009 
Q 1947 1309 1714 600 
Q 1481 -109 1013 -844 
L 513 -844 
Q 928 -128 1133 580 
Q 1338 1288 1338 2009 
Q 1338 2731 1133 3434 
Q 928 4138 513 4856 
z
" transform="scale(0.015625)"/>
      </defs>
      <use xlink:href="#DejaVuSans-52"/>
      <use xlink:href="#DejaVuSans-4f" x="69.482422"/>
      <use xlink:href="#DejaVuSans-43" x="148.193359"/>
      <use xlink:href="#DejaVuSans-20" x="218.017578"/>
      <use xlink:href="#DejaVuSans-63" x="249.804688"/>
      <use xlink:href="#DejaVuSans-75" x="304.785156"/>
      <use xlink:href="#DejaVuSans-72" x="368.164062"/>
      <use xlink:href="#DejaVuSans-76" x="409.277344"/>
      <use xlink:href="#DejaVuSans-65" x="468.457031"/>
      <use xlink:href="#DejaVuSans-20" x="529.980469"/>
      <use xlink:href="#DejaVuSans-28" x="561.767578"/>
      <use xlink:href="#DejaVuSans-52" x="600.78125"/>
      <use xlink:href="#DejaVuSans-4f" x="670.263672"/>
      <use xlink:href="#DejaVuSans-43" x="748.974609"/>
      <use xlink:href="#DejaVuSans-20" x="818.798828"/>
      <use xlink:href="#DejaVuSans-41" x="850.585938"/>
      <use xlink:href="#DejaVuSans-55" x="918.994141"/>
      <use xlink:href="#DejaVuSans-43" x="992.1875"/>
      <use xlink:href="#DejaVuSans-3d" x="1062.011719"/>
      <use xlink:href="#DejaVuSans-30" x="1145.800781"/>
      <use xlink:href="#DejaVuSans-2e" x="1209.423828"/>
      <use xlink:href="#DejaVuSans-37" x="1241.210938"/>
      <use xlink:href="#DejaVuSans-30" x="1304.833984"/>
      <use xlink:href="#DejaVuSans-29" x="1368.457031"/>
     </g>
    </g>
   </g>
  </g>
 </g>
 <defs>
  <clipPath id="p4179733f09">
   <rect x="57.6" y="41.472" width="357.12" height="266.112"/>
  </clipPath>
 </defs>
</svg>
