<?xml version="1.0" encoding="utf-8" standalone="no"?>
<!DOCTYPE svg PUBLIC "-//W3C//DTD SVG 1.1//EN"
  "http://www.w3.org/Graphics/SVG/1.1/DTD/svg11.dtd">
<svg xmlns:xlink="http://www.w3.org/1999/xlink" width="460.8pt" height="345.6pt" viewBox="0 0 460.8 345.6" xmlns="http://www.w3.org/2000/svg" version="1.1">
 <metadata>
  <rdf:RDF xmlns:dc="http://purl.org/dc/elements/1.1/" xmlns:cc="http://creativecommons.org/ns#" xmlns:rdf="http://www.w3.org/1999/02/22-rdf-syntax-ns#">
   <cc:Work>
    <dc:type rdf:resource="http://purl.org/dc/dcmitype/StillImage"/>
    <dc:date>2022-05-22T17:03:39.224600</dc:date>
    <dc:format>image/svg+xml</dc:format>
    <dc:creator>
     <cc:Agent>
      <dc:title>Matplotlib v3.5.1, https://matplotlib.org/</dc:title>
     </cc:Agent>
    </dc:creator>
   </cc:Work>
  </rdf:RDF>
 </metadata>
 <defs>
  <style type="text/css">*{stroke-linejoin: round; stroke-linecap: butt}</style>
 </defs>
 <g id="figure_1">
  <g id="patch_1">
   <path d="M 0 345.6 
L 460.8 345.6 
L 460.8 0 
L 0 0 
z
" style="fill: #ffffff"/>
  </g>
  <g id="axes_1">
   <g id="patch_2">
    <path d="M 57.6 307.584 
L 414.72 307.584 
L 414.72 41.472 
L 57.6 41.472 
z
" style="fill: #ffffff"/>
   </g>
   <g id="matplotlib.axis_1">
    <g id="xtick_1">
     <g id="line2d_1">
      <defs>
       <path id="ma3b1f6963a" d="M 0 0 
L 0 3.5 
" style="stroke: #000000; stroke-width: 0.8"/>
      </defs>
      <g>
       <use xlink:href="#ma3b1f6963a" x="74.605714" y="307.584" style="stroke: #000000; stroke-width: 0.8"/>
      </g>
     </g>
     <g id="text_1">
      <!-- 0.0 -->
      <g transform="translate(66.654152 322.182437)scale(0.1 -0.1)">
       <defs>
        <path id="DejaVuSans-30" d="M 2034 4250 
Q 1547 4250 1301 3770 
Q 1056 3291 1056 2328 
Q 1056 1369 1301 889 
Q 1547 409 2034 409 
Q 2525 409 2770 889 
Q 3016 1369 3016 2328 
Q 3016 3291 2770 3770 
Q 2525 4250 2034 4250 
z
M 2034 4750 
Q 2819 4750 3233 4129 
Q 3647 3509 3647 2328 
Q 3647 1150 3233 529 
Q 2819 -91 2034 -91 
Q 1250 -91 836 529 
Q 422 1150 422 2328 
Q 422 3509 836 4129 
Q 1250 4750 2034 4750 
z
" transform="scale(0.015625)"/>
        <path id="DejaVuSans-2e" d="M 684 794 
L 1344 794 
L 1344 0 
L 684 0 
L 684 794 
z
" transform="scale(0.015625)"/>
       </defs>
       <use xlink:href="#DejaVuSans-30"/>
       <use xlink:href="#DejaVuSans-2e" x="63.623047"/>
       <use xlink:href="#DejaVuSans-30" x="95.410156"/>
      </g>
     </g>
    </g>
    <g id="xtick_2">
     <g id="line2d_2">
      <g>
       <use xlink:href="#ma3b1f6963a" x="142.628571" y="307.584" style="stroke: #000000; stroke-width: 0.8"/>
      </g>
     </g>
     <g id="text_2">
      <!-- 0.2 -->
      <g transform="translate(134.677009 322.182437)scale(0.1 -0.1)">
       <defs>
        <path id="DejaVuSans-32" d="M 1228 531 
L 3431 531 
L 3431 0 
L 469 0 
L 469 531 
Q 828 903 1448 1529 
Q 2069 2156 2228 2338 
Q 2531 2678 2651 2914 
Q 2772 3150 2772 3378 
Q 2772 3750 2511 3984 
Q 2250 4219 1831 4219 
Q 1534 4219 1204 4116 
Q 875 4013 500 3803 
L 500 4441 
Q 881 4594 1212 4672 
Q 1544 4750 1819 4750 
Q 2544 4750 2975 4387 
Q 3406 4025 3406 3419 
Q 3406 3131 3298 2873 
Q 3191 2616 2906 2266 
Q 2828 2175 2409 1742 
Q 1991 1309 1228 531 
z
" transform="scale(0.015625)"/>
       </defs>
       <use xlink:href="#DejaVuSans-30"/>
       <use xlink:href="#DejaVuSans-2e" x="63.623047"/>
       <use xlink:href="#DejaVuSans-32" x="95.410156"/>
      </g>
     </g>
    </g>
    <g id="xtick_3">
     <g id="line2d_3">
      <g>
       <use xlink:href="#ma3b1f6963a" x="210.651429" y="307.584" style="stroke: #000000; stroke-width: 0.8"/>
      </g>
     </g>
     <g id="text_3">
      <!-- 0.4 -->
      <g transform="translate(202.699866 322.182437)scale(0.1 -0.1)">
       <defs>
        <path id="DejaVuSans-34" d="M 2419 4116 
L 825 1625 
L 2419 1625 
L 2419 4116 
z
M 2253 4666 
L 3047 4666 
L 3047 1625 
L 3713 1625 
L 3713 1100 
L 3047 1100 
L 3047 0 
L 2419 0 
L 2419 1100 
L 313 1100 
L 313 1709 
L 2253 4666 
z
" transform="scale(0.015625)"/>
       </defs>
       <use xlink:href="#DejaVuSans-30"/>
       <use xlink:href="#DejaVuSans-2e" x="63.623047"/>
       <use xlink:href="#DejaVuSans-34" x="95.410156"/>
      </g>
     </g>
    </g>
    <g id="xtick_4">
     <g id="line2d_4">
      <g>
       <use xlink:href="#ma3b1f6963a" x="278.674286" y="307.584" style="stroke: #000000; stroke-width: 0.8"/>
      </g>
     </g>
     <g id="text_4">
      <!-- 0.6 -->
      <g transform="translate(270.722723 322.182437)scale(0.1 -0.1)">
       <defs>
        <path id="DejaVuSans-36" d="M 2113 2584 
Q 1688 2584 1439 2293 
Q 1191 2003 1191 1497 
Q 1191 994 1439 701 
Q 1688 409 2113 409 
Q 2538 409 2786 701 
Q 3034 994 3034 1497 
Q 3034 2003 2786 2293 
Q 2538 2584 2113 2584 
z
M 3366 4563 
L 3366 3988 
Q 3128 4100 2886 4159 
Q 2644 4219 2406 4219 
Q 1781 4219 1451 3797 
Q 1122 3375 1075 2522 
Q 1259 2794 1537 2939 
Q 1816 3084 2150 3084 
Q 2853 3084 3261 2657 
Q 3669 2231 3669 1497 
Q 3669 778 3244 343 
Q 2819 -91 2113 -91 
Q 1303 -91 875 529 
Q 447 1150 447 2328 
Q 447 3434 972 4092 
Q 1497 4750 2381 4750 
Q 2619 4750 2861 4703 
Q 3103 4656 3366 4563 
z
" transform="scale(0.015625)"/>
       </defs>
       <use xlink:href="#DejaVuSans-30"/>
       <use xlink:href="#DejaVuSans-2e" x="63.623047"/>
       <use xlink:href="#DejaVuSans-36" x="95.410156"/>
      </g>
     </g>
    </g>
    <g id="xtick_5">
     <g id="line2d_5">
      <g>
       <use xlink:href="#ma3b1f6963a" x="346.697143" y="307.584" style="stroke: #000000; stroke-width: 0.8"/>
      </g>
     </g>
     <g id="text_5">
      <!-- 0.8 -->
      <g transform="translate(338.74558 322.182437)scale(0.1 -0.1)">
       <defs>
        <path id="DejaVuSans-38" d="M 2034 2216 
Q 1584 2216 1326 1975 
Q 1069 1734 1069 1313 
Q 1069 891 1326 650 
Q 1584 409 2034 409 
Q 2484 409 2743 651 
Q 3003 894 3003 1313 
Q 3003 1734 2745 1975 
Q 2488 2216 2034 2216 
z
M 1403 2484 
Q 997 2584 770 2862 
Q 544 3141 544 3541 
Q 544 4100 942 4425 
Q 1341 4750 2034 4750 
Q 2731 4750 3128 4425 
Q 3525 4100 3525 3541 
Q 3525 3141 3298 2862 
Q 3072 2584 2669 2484 
Q 3125 2378 3379 2068 
Q 3634 1759 3634 1313 
Q 3634 634 3220 271 
Q 2806 -91 2034 -91 
Q 1263 -91 848 271 
Q 434 634 434 1313 
Q 434 1759 690 2068 
Q 947 2378 1403 2484 
z
M 1172 3481 
Q 1172 3119 1398 2916 
Q 1625 2713 2034 2713 
Q 2441 2713 2670 2916 
Q 2900 3119 2900 3481 
Q 2900 3844 2670 4047 
Q 2441 4250 2034 4250 
Q 1625 4250 1398 4047 
Q 1172 3844 1172 3481 
z
" transform="scale(0.015625)"/>
       </defs>
       <use xlink:href="#DejaVuSans-30"/>
       <use xlink:href="#DejaVuSans-2e" x="63.623047"/>
       <use xlink:href="#DejaVuSans-38" x="95.410156"/>
      </g>
     </g>
    </g>
    <g id="xtick_6">
     <g id="line2d_6">
      <g>
       <use xlink:href="#ma3b1f6963a" x="414.72" y="307.584" style="stroke: #000000; stroke-width: 0.8"/>
      </g>
     </g>
     <g id="text_6">
      <!-- 1.0 -->
      <g transform="translate(406.768438 322.182437)scale(0.1 -0.1)">
       <defs>
        <path id="DejaVuSans-31" d="M 794 531 
L 1825 531 
L 1825 4091 
L 703 3866 
L 703 4441 
L 1819 4666 
L 2450 4666 
L 2450 531 
L 3481 531 
L 3481 0 
L 794 0 
L 794 531 
z
" transform="scale(0.015625)"/>
       </defs>
       <use xlink:href="#DejaVuSans-31"/>
       <use xlink:href="#DejaVuSans-2e" x="63.623047"/>
       <use xlink:href="#DejaVuSans-30" x="95.410156"/>
      </g>
     </g>
    </g>
    <g id="text_7">
     <!-- False Positive Rate -->
     <g transform="translate(189.693594 335.860562)scale(0.1 -0.1)">
      <defs>
       <path id="DejaVuSans-46" d="M 628 4666 
L 3309 4666 
L 3309 4134 
L 1259 4134 
L 1259 2759 
L 3109 2759 
L 3109 2228 
L 1259 2228 
L 1259 0 
L 628 0 
L 628 4666 
z
" transform="scale(0.015625)"/>
       <path id="DejaVuSans-61" d="M 2194 1759 
Q 1497 1759 1228 1600 
Q 959 1441 959 1056 
Q 959 750 1161 570 
Q 1363 391 1709 391 
Q 2188 391 2477 730 
Q 2766 1069 2766 1631 
L 2766 1759 
L 2194 1759 
z
M 3341 1997 
L 3341 0 
L 2766 0 
L 2766 531 
Q 2569 213 2275 61 
Q 1981 -91 1556 -91 
Q 1019 -91 701 211 
Q 384 513 384 1019 
Q 384 1609 779 1909 
Q 1175 2209 1959 2209 
L 2766 2209 
L 2766 2266 
Q 2766 2663 2505 2880 
Q 2244 3097 1772 3097 
Q 1472 3097 1187 3025 
Q 903 2953 641 2809 
L 641 3341 
Q 956 3463 1253 3523 
Q 1550 3584 1831 3584 
Q 2591 3584 2966 3190 
Q 3341 2797 3341 1997 
z
" transform="scale(0.015625)"/>
       <path id="DejaVuSans-6c" d="M 603 4863 
L 1178 4863 
L 1178 0 
L 603 0 
L 603 4863 
z
" transform="scale(0.015625)"/>
       <path id="DejaVuSans-73" d="M 2834 3397 
L 2834 2853 
Q 2591 2978 2328 3040 
Q 2066 3103 1784 3103 
Q 1356 3103 1142 2972 
Q 928 2841 928 2578 
Q 928 2378 1081 2264 
Q 1234 2150 1697 2047 
L 1894 2003 
Q 2506 1872 2764 1633 
Q 3022 1394 3022 966 
Q 3022 478 2636 193 
Q 2250 -91 1575 -91 
Q 1294 -91 989 -36 
Q 684 19 347 128 
L 347 722 
Q 666 556 975 473 
Q 1284 391 1588 391 
Q 1994 391 2212 530 
Q 2431 669 2431 922 
Q 2431 1156 2273 1281 
Q 2116 1406 1581 1522 
L 1381 1569 
Q 847 1681 609 1914 
Q 372 2147 372 2553 
Q 372 3047 722 3315 
Q 1072 3584 1716 3584 
Q 2034 3584 2315 3537 
Q 2597 3491 2834 3397 
z
" transform="scale(0.015625)"/>
       <path id="DejaVuSans-65" d="M 3597 1894 
L 3597 1613 
L 953 1613 
Q 991 1019 1311 708 
Q 1631 397 2203 397 
Q 2534 397 2845 478 
Q 3156 559 3463 722 
L 3463 178 
Q 3153 47 2828 -22 
Q 2503 -91 2169 -91 
Q 1331 -91 842 396 
Q 353 884 353 1716 
Q 353 2575 817 3079 
Q 1281 3584 2069 3584 
Q 2775 3584 3186 3129 
Q 3597 2675 3597 1894 
z
M 3022 2063 
Q 3016 2534 2758 2815 
Q 2500 3097 2075 3097 
Q 1594 3097 1305 2825 
Q 1016 2553 972 2059 
L 3022 2063 
z
" transform="scale(0.015625)"/>
       <path id="DejaVuSans-20" transform="scale(0.015625)"/>
       <path id="DejaVuSans-50" d="M 1259 4147 
L 1259 2394 
L 2053 2394 
Q 2494 2394 2734 2622 
Q 2975 2850 2975 3272 
Q 2975 3691 2734 3919 
Q 2494 4147 2053 4147 
L 1259 4147 
z
M 628 4666 
L 2053 4666 
Q 2838 4666 3239 4311 
Q 3641 3956 3641 3272 
Q 3641 2581 3239 2228 
Q 2838 1875 2053 1875 
L 1259 1875 
L 1259 0 
L 628 0 
L 628 4666 
z
" transform="scale(0.015625)"/>
       <path id="DejaVuSans-6f" d="M 1959 3097 
Q 1497 3097 1228 2736 
Q 959 2375 959 1747 
Q 959 1119 1226 758 
Q 1494 397 1959 397 
Q 2419 397 2687 759 
Q 2956 1122 2956 1747 
Q 2956 2369 2687 2733 
Q 2419 3097 1959 3097 
z
M 1959 3584 
Q 2709 3584 3137 3096 
Q 3566 2609 3566 1747 
Q 3566 888 3137 398 
Q 2709 -91 1959 -91 
Q 1206 -91 779 398 
Q 353 888 353 1747 
Q 353 2609 779 3096 
Q 1206 3584 1959 3584 
z
" transform="scale(0.015625)"/>
       <path id="DejaVuSans-69" d="M 603 3500 
L 1178 3500 
L 1178 0 
L 603 0 
L 603 3500 
z
M 603 4863 
L 1178 4863 
L 1178 4134 
L 603 4134 
L 603 4863 
z
" transform="scale(0.015625)"/>
       <path id="DejaVuSans-74" d="M 1172 4494 
L 1172 3500 
L 2356 3500 
L 2356 3053 
L 1172 3053 
L 1172 1153 
Q 1172 725 1289 603 
Q 1406 481 1766 481 
L 2356 481 
L 2356 0 
L 1766 0 
Q 1100 0 847 248 
Q 594 497 594 1153 
L 594 3053 
L 172 3053 
L 172 3500 
L 594 3500 
L 594 4494 
L 1172 4494 
z
" transform="scale(0.015625)"/>
       <path id="DejaVuSans-76" d="M 191 3500 
L 800 3500 
L 1894 563 
L 2988 3500 
L 3597 3500 
L 2284 0 
L 1503 0 
L 191 3500 
z
" transform="scale(0.015625)"/>
       <path id="DejaVuSans-52" d="M 2841 2188 
Q 3044 2119 3236 1894 
Q 3428 1669 3622 1275 
L 4263 0 
L 3584 0 
L 2988 1197 
Q 2756 1666 2539 1819 
Q 2322 1972 1947 1972 
L 1259 1972 
L 1259 0 
L 628 0 
L 628 4666 
L 2053 4666 
Q 2853 4666 3247 4331 
Q 3641 3997 3641 3322 
Q 3641 2881 3436 2590 
Q 3231 2300 2841 2188 
z
M 1259 4147 
L 1259 2491 
L 2053 2491 
Q 2509 2491 2742 2702 
Q 2975 2913 2975 3322 
Q 2975 3731 2742 3939 
Q 2509 4147 2053 4147 
L 1259 4147 
z
" transform="scale(0.015625)"/>
      </defs>
      <use xlink:href="#DejaVuSans-46"/>
      <use xlink:href="#DejaVuSans-61" x="48.394531"/>
      <use xlink:href="#DejaVuSans-6c" x="109.673828"/>
      <use xlink:href="#DejaVuSans-73" x="137.457031"/>
      <use xlink:href="#DejaVuSans-65" x="189.556641"/>
      <use xlink:href="#DejaVuSans-20" x="251.080078"/>
      <use xlink:href="#DejaVuSans-50" x="282.867188"/>
      <use xlink:href="#DejaVuSans-6f" x="339.544922"/>
      <use xlink:href="#DejaVuSans-73" x="400.726562"/>
      <use xlink:href="#DejaVuSans-69" x="452.826172"/>
      <use xlink:href="#DejaVuSans-74" x="480.609375"/>
      <use xlink:href="#DejaVuSans-69" x="519.818359"/>
      <use xlink:href="#DejaVuSans-76" x="547.601562"/>
      <use xlink:href="#DejaVuSans-65" x="606.78125"/>
      <use xlink:href="#DejaVuSans-20" x="668.304688"/>
      <use xlink:href="#DejaVuSans-52" x="700.091797"/>
      <use xlink:href="#DejaVuSans-61" x="767.324219"/>
      <use xlink:href="#DejaVuSans-74" x="828.603516"/>
      <use xlink:href="#DejaVuSans-65" x="867.8125"/>
     </g>
    </g>
   </g>
   <g id="matplotlib.axis_2">
    <g id="ytick_1">
     <g id="line2d_7">
      <defs>
       <path id="m308afc3d87" d="M 0 0 
L -3.5 0 
" style="stroke: #000000; stroke-width: 0.8"/>
      </defs>
      <g>
       <use xlink:href="#m308afc3d87" x="57.6" y="307.584" style="stroke: #000000; stroke-width: 0.8"/>
      </g>
     </g>
     <g id="text_8">
      <!-- 0.0 -->
      <g transform="translate(34.696875 311.383219)scale(0.1 -0.1)">
       <use xlink:href="#DejaVuSans-30"/>
       <use xlink:href="#DejaVuSans-2e" x="63.623047"/>
       <use xlink:href="#DejaVuSans-30" x="95.410156"/>
      </g>
     </g>
    </g>
    <g id="ytick_2">
     <g id="line2d_8">
      <g>
       <use xlink:href="#m308afc3d87" x="57.6" y="256.896" style="stroke: #000000; stroke-width: 0.8"/>
      </g>
     </g>
     <g id="text_9">
      <!-- 0.2 -->
      <g transform="translate(34.696875 260.695219)scale(0.1 -0.1)">
       <use xlink:href="#DejaVuSans-30"/>
       <use xlink:href="#DejaVuSans-2e" x="63.623047"/>
       <use xlink:href="#DejaVuSans-32" x="95.410156"/>
      </g>
     </g>
    </g>
    <g id="ytick_3">
     <g id="line2d_9">
      <g>
       <use xlink:href="#m308afc3d87" x="57.6" y="206.208" style="stroke: #000000; stroke-width: 0.8"/>
      </g>
     </g>
     <g id="text_10">
      <!-- 0.4 -->
      <g transform="translate(34.696875 210.007219)scale(0.1 -0.1)">
       <use xlink:href="#DejaVuSans-30"/>
       <use xlink:href="#DejaVuSans-2e" x="63.623047"/>
       <use xlink:href="#DejaVuSans-34" x="95.410156"/>
      </g>
     </g>
    </g>
    <g id="ytick_4">
     <g id="line2d_10">
      <g>
       <use xlink:href="#m308afc3d87" x="57.6" y="155.52" style="stroke: #000000; stroke-width: 0.8"/>
      </g>
     </g>
     <g id="text_11">
      <!-- 0.6 -->
      <g transform="translate(34.696875 159.319219)scale(0.1 -0.1)">
       <use xlink:href="#DejaVuSans-30"/>
       <use xlink:href="#DejaVuSans-2e" x="63.623047"/>
       <use xlink:href="#DejaVuSans-36" x="95.410156"/>
      </g>
     </g>
    </g>
    <g id="ytick_5">
     <g id="line2d_11">
      <g>
       <use xlink:href="#m308afc3d87" x="57.6" y="104.832" style="stroke: #000000; stroke-width: 0.8"/>
      </g>
     </g>
     <g id="text_12">
      <!-- 0.8 -->
      <g transform="translate(34.696875 108.631219)scale(0.1 -0.1)">
       <use xlink:href="#DejaVuSans-30"/>
       <use xlink:href="#DejaVuSans-2e" x="63.623047"/>
       <use xlink:href="#DejaVuSans-38" x="95.410156"/>
      </g>
     </g>
    </g>
    <g id="ytick_6">
     <g id="line2d_12">
      <g>
       <use xlink:href="#m308afc3d87" x="57.6" y="54.144" style="stroke: #000000; stroke-width: 0.8"/>
      </g>
     </g>
     <g id="text_13">
      <!-- 1.0 -->
      <g transform="translate(34.696875 57.943219)scale(0.1 -0.1)">
       <use xlink:href="#DejaVuSans-31"/>
       <use xlink:href="#DejaVuSans-2e" x="63.623047"/>
       <use xlink:href="#DejaVuSans-30" x="95.410156"/>
      </g>
     </g>
    </g>
    <g id="text_14">
     <!-- True Positive Rate -->
     <g transform="translate(28.617187 219.057687)rotate(-90)scale(0.1 -0.1)">
      <defs>
       <path id="DejaVuSans-54" d="M -19 4666 
L 3928 4666 
L 3928 4134 
L 2272 4134 
L 2272 0 
L 1638 0 
L 1638 4134 
L -19 4134 
L -19 4666 
z
" transform="scale(0.015625)"/>
       <path id="DejaVuSans-72" d="M 2631 2963 
Q 2534 3019 2420 3045 
Q 2306 3072 2169 3072 
Q 1681 3072 1420 2755 
Q 1159 2438 1159 1844 
L 1159 0 
L 581 0 
L 581 3500 
L 1159 3500 
L 1159 2956 
Q 1341 3275 1631 3429 
Q 1922 3584 2338 3584 
Q 2397 3584 2469 3576 
Q 2541 3569 2628 3553 
L 2631 2963 
z
" transform="scale(0.015625)"/>
       <path id="DejaVuSans-75" d="M 544 1381 
L 544 3500 
L 1119 3500 
L 1119 1403 
Q 1119 906 1312 657 
Q 1506 409 1894 409 
Q 2359 409 2629 706 
Q 2900 1003 2900 1516 
L 2900 3500 
L 3475 3500 
L 3475 0 
L 2900 0 
L 2900 538 
Q 2691 219 2414 64 
Q 2138 -91 1772 -91 
Q 1169 -91 856 284 
Q 544 659 544 1381 
z
M 1991 3584 
L 1991 3584 
z
" transform="scale(0.015625)"/>
      </defs>
      <use xlink:href="#DejaVuSans-54"/>
      <use xlink:href="#DejaVuSans-72" x="46.333984"/>
      <use xlink:href="#DejaVuSans-75" x="87.447266"/>
      <use xlink:href="#DejaVuSans-65" x="150.826172"/>
      <use xlink:href="#DejaVuSans-20" x="212.349609"/>
      <use xlink:href="#DejaVuSans-50" x="244.136719"/>
      <use xlink:href="#DejaVuSans-6f" x="300.814453"/>
      <use xlink:href="#DejaVuSans-73" x="361.996094"/>
      <use xlink:href="#DejaVuSans-69" x="414.095703"/>
      <use xlink:href="#DejaVuSans-74" x="441.878906"/>
      <use xlink:href="#DejaVuSans-69" x="481.087891"/>
      <use xlink:href="#DejaVuSans-76" x="508.871094"/>
      <use xlink:href="#DejaVuSans-65" x="568.050781"/>
      <use xlink:href="#DejaVuSans-20" x="629.574219"/>
      <use xlink:href="#DejaVuSans-52" x="661.361328"/>
      <use xlink:href="#DejaVuSans-61" x="728.59375"/>
      <use xlink:href="#DejaVuSans-74" x="789.873047"/>
      <use xlink:href="#DejaVuSans-65" x="829.082031"/>
     </g>
    </g>
   </g>
   <g id="line2d_13">
    <path d="M 74.605714 307.584 
L 74.609654 307.480512 
L 74.720709 305.808146 
L 74.729625 305.698449 
L 74.840473 304.4835 
L 74.840722 304.4835 
L 74.85167 304.373803 
L 74.962766 303.295458 
L 74.971973 303.185761 
L 75.082986 302.212974 
L 75.083069 302.212974 
L 75.096713 302.103276 
L 75.206731 301.167745 
L 75.207809 301.167745 
L 75.220043 301.058048 
L 75.331057 300.201167 
L 75.33114 300.201167 
L 75.347105 300.09147 
L 75.45787 299.129032 
L 75.458161 299.129032 
L 75.472509 299.021404 
L 75.58344 298.189361 
L 75.596378 298.081733 
L 75.596378 298.079664 
L 75.70706 297.195876 
L 75.707351 297.195876 
L 75.720559 297.085144 
L 75.83151 296.21688 
L 75.831635 296.21688 
L 75.845879 296.107183 
L 75.956458 295.35586 
L 75.956955 295.35586 
L 75.973087 295.246163 
L 75.973087 295.245128 
L 76.132413 294.043632 
L 76.147591 293.933935 
L 76.258273 293.072915 
L 76.258646 293.072915 
L 76.271501 292.963218 
L 76.382474 292.116686 
L 76.382515 292.116686 
L 76.395785 292.006989 
L 76.395785 292.005954 
L 76.527741 290.951411 
L 76.545034 290.841714 
L 76.655986 290.046926 
L 76.656131 290.046926 
L 76.673382 289.937229 
L 76.78423 289.142441 
L 76.784479 289.142441 
L 76.801937 289.032744 
L 76.912951 288.192422 
L 76.913034 288.192422 
L 76.925661 288.082725 
L 77.045322 287.219635 
L 77.063133 287.109937 
L 77.063133 287.108903 
L 77.257355 285.729408 
L 77.272388 285.618676 
L 77.429868 284.458575 
L 77.443719 284.348878 
L 77.55465 283.578928 
L 77.554691 283.578928 
L 77.569413 283.46923 
L 77.680385 282.60821 
L 77.680426 282.60821 
L 77.694837 282.498513 
L 77.814788 281.614726 
L 77.834361 281.505028 
L 77.945458 280.530172 
L 77.96217 280.420474 
L 78.073225 279.536687 
L 78.086164 279.42699 
L 78.197136 278.588737 
L 78.19726 278.588737 
L 78.212272 278.47904 
L 78.32312 277.686322 
L 78.323348 277.686322 
L 78.336598 277.576625 
L 78.447404 276.773558 
L 78.447653 276.773558 
L 78.460177 276.663861 
L 78.570486 275.833887 
L 78.571274 275.833887 
L 78.583922 275.72419 
L 78.694977 274.879728 
L 78.695018 274.879728 
L 78.710694 274.77003 
L 78.82148 273.964894 
L 78.821791 273.964894 
L 78.836782 273.855197 
L 78.981448 272.737526 
L 78.995216 272.627829 
L 79.106105 271.781297 
L 79.106313 271.781297 
L 79.122735 271.6716 
L 79.233085 270.89751 
L 79.233831 270.89751 
L 79.249299 270.787813 
L 79.360355 270.03856 
L 79.360396 270.03856 
L 79.378269 269.930932 
L 79.378269 269.928863 
L 79.489366 269.148563 
L 79.507447 269.038866 
L 79.618419 268.299962 
L 79.637495 268.192334 
L 79.637495 268.190264 
L 79.748177 267.374779 
L 79.748509 267.374779 
L 79.766507 267.265082 
L 79.87723 266.563433 
L 79.877603 266.563433 
L 79.897426 266.453736 
L 80.008439 265.687925 
L 80.008481 265.687925 
L 80.024073 265.578228 
L 80.134216 264.806207 
L 80.135129 264.806207 
L 80.150555 264.69651 
L 80.269199 263.941048 
L 80.282387 263.831351 
L 80.393255 263.100725 
L 80.393483 263.100725 
L 80.410569 262.991028 
L 80.521666 262.19831 
L 80.539373 262.088613 
L 80.650262 261.405592 
L 80.65047 261.405592 
L 80.670914 261.295895 
L 80.781389 260.556991 
L 80.781969 260.556991 
L 80.800133 260.447294 
L 80.910774 259.729087 
L 80.91123 259.729087 
L 80.92844 259.61939 
L 81.039287 258.942578 
L 81.039495 258.942578 
L 81.056456 258.832881 
L 81.167221 258.15193 
L 81.167511 258.15193 
L 81.18414 258.044303 
L 81.18414 258.042233 
L 81.294864 257.344724 
L 81.295237 257.344724 
L 81.313525 257.235027 
L 81.424186 256.460937 
L 81.424497 256.460937 
L 81.445813 256.351239 
L 81.556744 255.643381 
L 81.556826 255.643381 
L 81.575446 255.535754 
L 81.575446 255.533684 
L 81.686501 254.784431 
L 81.686543 254.784431 
L 81.700808 254.674734 
L 81.811905 253.939969 
L 81.829364 253.830272 
L 81.947303 253.145182 
L 81.964803 253.035484 
L 82.075692 252.342115 
L 82.075879 252.342115 
L 82.092778 252.231383 
L 82.202962 251.570094 
L 82.203875 251.570094 
L 82.221167 251.460397 
L 82.331601 250.7484 
L 82.332098 250.7484 
L 82.34823 250.638703 
L 82.458767 250.021914 
L 82.459326 250.021914 
L 82.480103 249.912217 
L 82.591116 249.256103 
L 82.614754 249.146406 
L 82.725685 248.477874 
L 82.725768 248.477874 
L 82.747664 248.368176 
L 82.873295 247.64376 
L 82.895793 247.534063 
L 83.005894 246.859321 
L 83.006848 246.859321 
L 83.028453 246.749624 
L 83.138348 246.134906 
L 83.139467 246.134906 
L 83.161488 246.024173 
L 83.27217 245.356676 
L 83.272584 245.356676 
L 83.293112 245.246979 
L 83.404001 244.595004 
L 83.404208 244.595004 
L 83.425316 244.485307 
L 83.535542 243.86024 
L 83.536413 243.86024 
L 83.555655 243.750542 
L 83.555655 243.749508 
L 83.679524 243.113057 
L 83.703224 243.002324 
L 83.814051 242.438315 
L 83.8143 242.438315 
L 83.834454 242.328618 
L 83.945302 241.775992 
L 83.945551 241.775992 
L 83.962346 241.668364 
L 84.073401 241.082622 
L 84.073443 241.082622 
L 84.095919 240.972925 
L 84.206933 240.420299 
L 84.206954 240.420299 
L 84.224661 240.309567 
L 84.335198 239.728999 
L 84.335695 239.728999 
L 84.352822 239.618267 
L 84.463007 239.019072 
L 84.463919 239.019072 
L 84.485566 238.90834 
L 84.596082 238.394004 
L 84.596663 238.394004 
L 84.615988 238.284307 
L 84.726462 237.725472 
L 84.727043 237.725472 
L 84.743299 237.615775 
L 84.854209 237.017614 
L 84.854354 237.017614 
L 84.873472 236.906882 
L 84.984527 236.309757 
L 84.984568 236.309757 
L 85.008206 236.200059 
L 85.119261 235.618457 
L 85.144951 235.50876 
L 85.262372 234.875413 
L 85.287005 234.765716 
L 85.398102 234.207916 
L 85.422403 234.097183 
L 85.533292 233.544558 
L 85.5335 233.544558 
L 85.556432 233.43486 
L 85.667342 232.946397 
L 85.667487 232.946397 
L 85.693406 232.8367 
L 85.804212 232.31512 
L 85.804482 232.31512 
L 85.825984 232.204388 
L 85.936749 231.644518 
L 85.937039 231.644518 
L 85.960013 231.533786 
L 86.070322 231.000823 
L 86.071068 231.000823 
L 86.096323 230.890091 
L 86.207026 230.315733 
L 86.207378 230.315733 
L 86.230809 230.205 
L 86.341657 229.669968 
L 86.341905 229.669968 
L 86.360276 229.56027 
L 86.47129 229.065598 
L 86.493808 228.9559 
L 86.604863 228.434321 
L 86.604905 228.434321 
L 86.626013 228.324624 
L 86.736985 227.829951 
L 86.737089 227.829951 
L 86.761286 227.720254 
L 86.872196 227.177977 
L 86.872341 227.177977 
L 86.896767 227.072419 
L 87.005915 226.63156 
L 87.007843 226.63156 
L 87.030962 226.521863 
L 87.141727 226.037539 
L 87.142059 226.037539 
L 87.170341 225.927842 
L 87.170341 225.926807 
L 87.292842 225.358658 
L 87.316562 225.248961 
L 87.439353 224.665289 
L 87.459673 224.555591 
L 87.56965 224.094035 
L 87.570708 224.094035 
L 87.590758 223.986408 
L 87.590758 223.984338 
L 87.701275 223.471037 
L 87.701855 223.471037 
L 87.725327 223.367549 
L 87.725327 223.360305 
L 87.846044 222.881156 
L 87.871797 222.771459 
L 87.981484 222.278856 
L 87.982852 222.278856 
L 88.016401 222.169159 
L 88.016401 222.168124 
L 88.136828 221.699323 
L 88.159263 221.589626 
L 88.269862 221.11979 
L 88.27036 221.11979 
L 88.300301 221.010093 
L 88.410734 220.579583 
L 88.411398 220.579583 
L 88.437316 220.469886 
L 88.547666 220.074562 
L 88.548413 220.074562 
L 88.576965 219.96383 
L 88.728266 219.298402 
L 88.759803 219.18767 
L 88.880936 218.687823 
L 88.908202 218.578126 
L 89.01876 218.149685 
L 89.019299 218.149685 
L 89.043102 218.039988 
L 89.153743 217.617757 
L 89.154199 217.617757 
L 89.1819 217.51013 
L 89.1819 217.50806 
L 89.298098 216.998899 
L 89.336747 216.889202 
L 89.446351 216.440064 
L 89.447844 216.440064 
L 89.471233 216.330367 
L 89.581915 215.928833 
L 89.582309 215.928833 
L 89.618636 215.818101 
L 89.738835 215.363789 
L 89.770352 215.254092 
L 89.881449 214.873256 
L 89.913401 214.763559 
L 90.0285 214.364095 
L 90.06097 214.254398 
L 90.171777 213.873562 
L 90.172067 213.873562 
L 90.198773 213.763865 
L 90.335975 213.244355 
L 90.364568 213.134658 
L 90.475665 212.739334 
L 90.503947 212.629636 
L 90.614442 212.25087 
L 90.615002 212.25087 
L 90.648219 212.141173 
L 90.759233 211.745849 
L 90.759316 211.745849 
L 90.799085 211.636152 
L 90.914453 211.205642 
L 90.942155 211.09491 
L 91.060343 210.742016 
L 91.08452 210.632318 
L 91.19458 210.243203 
L 91.195616 210.243203 
L 91.228792 210.133506 
L 91.339515 209.734043 
L 91.339868 209.734043 
L 91.37012 209.624345 
L 91.48047 209.185556 
L 91.481217 209.185556 
L 91.510411 209.075859 
L 91.510411 209.074824 
L 91.640708 208.597744 
L 91.669281 208.488047 
L 91.779506 208.11549 
L 91.780357 208.11549 
L 91.815585 208.005793 
L 91.926101 207.649795 
L 91.926682 207.649795 
L 91.952372 207.540097 
L 91.952372 207.539062 
L 92.084597 207.012309 
L 92.123413 206.902611 
L 92.232809 206.530055 
L 92.234509 206.530055 
L 92.262294 206.420357 
L 92.372064 206.045731 
L 92.373349 206.045731 
L 92.415524 205.934999 
L 92.525729 205.559337 
L 92.5266 205.559337 
L 92.561869 205.44964 
L 92.672386 205.087432 
L 92.672883 205.087432 
L 92.71485 204.977735 
L 92.82574 204.636225 
L 92.825905 204.636225 
L 92.852985 204.525492 
L 92.981001 204.104296 
L 93.01314 203.993564 
L 93.123801 203.64067 
L 93.124216 203.64067 
L 93.164421 203.530973 
L 93.275227 203.189463 
L 93.275517 203.189463 
L 93.304753 203.079765 
L 93.415684 202.69686 
L 93.415829 202.69686 
L 93.445667 202.587162 
L 93.556349 202.212536 
L 93.556763 202.212536 
L 93.593671 202.101804 
L 93.70427 201.722003 
L 93.704726 201.722003 
L 93.735538 201.612306 
L 93.846635 201.254237 
L 93.883875 201.14454 
L 93.991695 200.811309 
L 93.994971 200.811309 
L 94.033911 200.701611 
L 94.144386 200.347683 
L 94.144966 200.347683 
L 94.182372 200.237985 
L 94.293116 199.834382 
L 94.293427 199.834382 
L 94.322248 199.72365 
L 94.433034 199.370756 
L 94.433304 199.370756 
L 94.459056 199.261059 
L 94.569282 198.931967 
L 94.570153 198.931967 
L 94.607517 198.82227 
L 94.718613 198.546992 
L 94.752287 198.436259 
L 94.880013 198.023342 
L 94.915967 197.913645 
L 95.025902 197.570065 
L 95.027063 197.570065 
L 95.078444 197.460368 
L 95.186928 197.143695 
L 95.189541 197.143695 
L 95.217947 197.033997 
L 95.328256 196.653162 
L 95.329044 196.653162 
L 95.367901 196.543464 
L 95.474851 196.23921 
L 95.478998 196.23921 
L 95.518829 196.129512 
L 95.62949 195.750746 
L 95.629905 195.750746 
L 95.668347 195.641049 
L 95.778573 195.303678 
L 95.779444 195.303678 
L 95.812205 195.193981 
L 95.929626 194.879378 
L 95.968089 194.76968 
L 96.079019 194.392984 
L 96.079185 194.392984 
L 96.114144 194.282252 
L 96.239257 193.933497 
L 96.281784 193.8238 
L 96.392819 193.515406 
L 96.392881 193.515406 
L 96.433625 193.404674 
L 96.544721 193.09007 
L 96.669047 192.759944 
L 96.704006 192.649211 
L 96.813319 192.333573 
L 96.814978 192.333573 
L 96.857235 192.223876 
L 96.968291 191.919621 
L 97.004286 191.811994 
L 97.004286 191.809924 
L 97.118058 191.540855 
L 97.149885 191.431158 
L 97.259406 191.083438 
L 97.260941 191.083438 
L 97.30129 190.973741 
L 97.418898 190.646719 
L 97.466069 190.537022 
L 97.577104 190.249325 
L 97.577145 190.249325 
L 97.611565 190.139628 
L 97.725772 189.829164 
L 97.765334 189.721536 
L 97.765334 189.719467 
L 97.875912 189.419352 
L 97.876389 189.419352 
L 97.928309 189.309654 
L 97.928309 189.308619 
L 98.045377 189.011609 
L 98.088381 188.900877 
L 98.198607 188.634913 
L 98.199395 188.634913 
L 98.240118 188.525215 
L 98.354076 188.237519 
L 98.396292 188.127822 
L 98.507305 187.838055 
L 98.507388 187.838055 
L 98.546494 187.728358 
L 98.663977 187.407545 
L 98.709013 187.297848 
L 98.819488 187.001872 
L 98.82011 187.001872 
L 98.844452 186.892175 
L 98.955259 186.579641 
L 98.955507 186.579641 
L 98.988559 186.469944 
L 98.988559 186.468909 
L 99.112304 186.155341 
L 99.155142 186.044608 
L 99.264248 185.778644 
L 99.266238 185.778644 
L 99.303063 185.668947 
L 99.413476 185.375041 
L 99.414118 185.375041 
L 99.467324 185.265344 
L 99.577674 184.981787 
L 99.57842 184.981787 
L 99.62271 184.87209 
L 99.739654 184.580253 
L 99.787903 184.469521 
L 99.897238 184.18079 
L 99.898896 184.18079 
L 99.947457 184.071093 
L 100.05789 183.787536 
L 100.058492 183.787536 
L 100.114206 183.679908 
L 100.114206 183.676803 
L 100.222234 183.423258 
L 100.225303 183.423258 
L 100.281328 183.313561 
L 100.391927 182.988608 
L 100.392425 182.988608 
L 100.438787 182.878911 
L 100.548723 182.572587 
L 100.549884 182.572587 
L 100.598942 182.462889 
L 100.717359 182.094472 
L 100.773985 181.984775 
L 100.890017 181.738473 
L 100.939448 181.628776 
L 101.050504 181.357638 
L 101.050545 181.357638 
L 101.093756 181.246906 
L 101.204811 180.99336 
L 101.204853 180.99336 
L 101.252999 180.883663 
L 101.366957 180.593896 
L 101.405565 180.483164 
L 101.514713 180.213061 
L 101.516662 180.213061 
L 101.569307 180.102328 
L 101.697718 179.817736 
L 101.752747 179.708039 
L 101.863347 179.461738 
L 101.863803 179.461738 
L 101.912011 179.351006 
L 102.021718 179.107809 
L 102.023066 179.107809 
L 102.075173 178.998112 
L 102.185938 178.766299 
L 102.186166 178.766299 
L 102.241527 178.655566 
L 102.351173 178.40616 
L 102.352603 178.40616 
L 102.392124 178.295428 
L 102.503055 178.019115 
L 102.50322 178.019115 
L 102.55937 177.908383 
L 102.669223 177.601024 
L 102.670467 177.601024 
L 102.717576 177.493396 
L 102.717576 177.491327 
L 102.828258 177.242955 
L 102.828652 177.242955 
L 102.960214 176.905585 
L 103.010682 176.794853 
L 103.120535 176.559935 
L 103.121779 176.559935 
L 103.175399 176.450238 
L 103.285086 176.191518 
L 103.286496 176.191518 
L 103.335679 176.080785 
L 103.444951 175.852077 
L 103.446775 175.852077 
L 103.493636 175.741345 
L 103.609833 175.487799 
L 103.66308 175.378102 
L 103.66308 175.377067 
L 103.77936 175.119382 
L 103.829165 175.009685 
L 103.942667 174.769593 
L 103.986086 174.659895 
L 103.986086 174.658861 
L 104.101661 174.436361 
L 104.174316 174.328734 
L 104.285371 174.078293 
L 104.285412 174.078293 
L 104.346331 173.968596 
L 104.456474 173.745062 
L 104.457365 173.745062 
L 104.519342 173.63433 
L 104.629837 173.403551 
L 104.630418 173.403551 
L 104.682441 173.293854 
L 104.798141 173.062041 
L 104.857359 172.952344 
L 104.966818 172.72467 
L 104.968435 172.72467 
L 105.017141 172.614973 
L 105.124713 172.374881 
L 105.128238 172.374881 
L 105.170122 172.265184 
L 105.286071 172.018882 
L 105.3377 171.909185 
L 105.448009 171.671162 
L 105.448797 171.671162 
L 105.498373 171.56043 
L 105.614053 171.331722 
L 105.672815 171.22099 
L 105.788556 170.990212 
L 105.849143 170.880514 
L 105.959929 170.650771 
L 105.960219 170.650771 
L 106.003451 170.541074 
L 106.119856 170.276144 
L 106.175342 170.166447 
L 106.175342 170.165412 
L 106.290503 169.963611 
L 106.346922 169.853914 
L 106.462041 169.653147 
L 106.532767 169.54345 
L 106.643657 169.313706 
L 106.643822 169.313706 
L 106.699599 169.202974 
L 106.810405 168.992893 
L 106.810696 168.992893 
L 106.877586 168.882161 
L 106.99312 168.657592 
L 107.049767 168.547895 
L 107.160408 168.280896 
L 107.160864 168.280896 
L 107.218216 168.171199 
L 107.328981 167.951804 
L 107.329292 167.951804 
L 107.390563 167.842107 
L 107.508212 167.622713 
L 107.57193 167.513015 
L 107.687484 167.289481 
L 107.75284 167.179784 
L 107.862817 166.976948 
L 107.863937 166.976948 
L 107.928422 166.86725 
L 107.928422 166.866215 
L 108.049762 166.6106 
L 108.113521 166.500903 
L 108.229076 166.279439 
L 108.289372 166.169741 
L 108.397856 165.939998 
L 108.400345 165.939998 
L 108.449942 165.830301 
L 108.560624 165.596418 
L 108.561039 165.596418 
L 108.627183 165.486721 
L 108.735584 165.256977 
L 108.738279 165.256977 
L 108.794636 165.146245 
L 108.904634 164.944444 
L 108.90565 164.944444 
L 108.962754 164.834746 
L 109.073684 164.619491 
L 109.073767 164.619491 
L 109.138004 164.509794 
L 109.247296 164.309027 
L 109.249059 164.309027 
L 109.317006 164.19933 
L 109.429949 164.015122 
L 109.49066 163.905424 
L 109.600181 163.731564 
L 109.601736 163.731564 
L 109.666781 163.621867 
L 109.777048 163.42938 
L 109.777877 163.42938 
L 109.893785 163.189287 
L 109.969425 163.07959 
L 110.080439 162.841568 
L 110.080522 162.841568 
L 110.150564 162.731871 
L 110.150564 162.730836 
L 110.26137 162.529034 
L 110.26166 162.529034 
L 110.314534 162.419337 
L 110.42505 162.2165 
L 110.42563 162.2165 
L 110.493143 162.105768 
L 110.621242 161.897757 
L 110.686764 161.787025 
L 110.793548 161.599712 
L 110.79784 161.599712 
L 110.862926 161.490015 
L 110.973027 161.303736 
L 110.974023 161.303736 
L 111.039586 161.193004 
L 111.154519 161.001551 
L 111.203681 160.891854 
L 111.314653 160.691088 
L 111.314757 160.691088 
L 111.365038 160.58139 
L 111.474435 160.41167 
L 111.476094 160.41167 
L 111.542652 160.301973 
L 111.655822 160.094997 
L 111.722547 159.985299 
L 111.843306 159.794882 
L 111.916541 159.685184 
L 111.916541 159.684149 
L 112.031328 159.500976 
L 112.096643 159.391278 
L 112.207698 159.190512 
L 112.207739 159.190512 
L 112.258166 159.080815 
L 112.368807 158.917303 
L 112.369263 158.917303 
L 112.440134 158.807606 
L 112.551024 158.60684 
L 112.551148 158.60684 
L 112.626166 158.497142 
L 112.737056 158.300515 
L 112.737222 158.300515 
L 112.817071 158.190818 
L 112.930013 157.99833 
L 113.008307 157.888633 
L 113.117538 157.747889 
L 113.119404 157.747889 
L 113.194505 157.640262 
L 113.194505 157.637157 
L 113.315513 157.391891 
L 113.370813 157.282193 
L 113.480852 157.122822 
L 113.48191 157.122822 
L 113.560681 157.01209 
L 113.670326 156.806149 
L 113.671715 156.806149 
L 113.742524 156.696451 
L 113.853289 156.528801 
L 113.853538 156.528801 
L 113.923746 156.419104 
L 114.034345 156.187291 
L 114.034843 156.187291 
L 114.107124 156.077593 
L 114.219174 155.928571 
L 114.28424 155.818873 
L 114.395088 155.690548 
L 114.395295 155.690548 
L 114.471392 155.580851 
L 114.581535 155.394573 
L 114.582488 155.394573 
L 114.645564 155.28384 
L 114.764083 155.100667 
L 114.824131 154.989935 
L 114.968196 154.721901 
L 115.039316 154.612203 
L 115.149418 154.440413 
L 115.150413 154.440413 
L 115.215271 154.330716 
L 115.324336 154.163066 
L 115.326326 154.163066 
L 115.402008 154.053368 
L 115.521399 153.848462 
L 115.583354 153.738765 
L 115.693829 153.556626 
L 115.694451 153.556626 
L 115.781412 153.445894 
L 115.892364 153.275139 
L 115.892509 153.275139 
L 115.959358 153.164407 
L 116.070371 152.997791 
L 116.137096 152.888094 
L 116.137096 152.887059 
L 116.256507 152.681118 
L 116.322672 152.57142 
L 116.322672 152.570386 
L 116.446085 152.368584 
L 116.531056 152.258887 
L 116.645138 152.107794 
L 116.71715 151.997062 
L 116.831108 151.855284 
L 116.910253 151.745586 
L 117.016 151.586215 
L 117.021329 151.586215 
L 117.090292 151.476518 
L 117.20593 151.327495 
L 117.289781 151.217798 
L 117.403905 151.066705 
L 117.490618 150.957008 
L 117.60159 150.787288 
L 117.601715 150.787288 
L 117.669932 150.67759 
L 117.780241 150.530637 
L 117.780987 150.530637 
L 117.855881 150.42094 
L 117.965091 150.265708 
L 117.966915 150.265708 
L 118.053939 150.156011 
L 118.162672 150.002849 
L 118.165036 150.002849 
L 118.235575 149.893151 
L 118.350114 149.721361 
L 118.433571 149.610629 
L 118.544357 149.439874 
L 118.544523 149.439874 
L 118.628955 149.330177 
L 118.736879 149.183224 
L 118.74001 149.183224 
L 118.813286 149.073527 
L 118.923678 148.916225 
L 118.924383 148.916225 
L 119.019929 148.806528 
L 119.130984 148.647156 
L 119.131026 148.647156 
L 119.18958 148.537459 
L 119.304202 148.361529 
L 119.356143 148.251832 
L 119.469707 148.121437 
L 119.55503 148.010705 
L 119.663701 147.83995 
L 119.666106 147.83995 
L 119.743903 147.730253 
L 119.854958 147.570881 
L 119.855 147.570881 
L 119.945113 147.461184 
L 120.057847 147.295603 
L 120.142217 147.185906 
L 120.251862 147.014116 
L 120.253314 147.014116 
L 120.331484 146.904418 
L 120.440341 146.738838 
L 120.44258 146.738838 
L 120.517557 146.62914 
L 120.6277 146.480118 
L 120.628654 146.480118 
L 120.714164 146.37042 
L 120.824307 146.237956 
L 120.825261 146.237956 
L 120.919853 146.128259 
L 121.030099 146.006143 
L 121.030949 146.006143 
L 121.117455 145.896446 
L 121.224778 145.739144 
L 121.22851 145.739144 
L 121.328202 145.629447 
L 121.434468 145.478354 
L 121.439278 145.478354 
L 121.527442 145.367622 
L 121.64138 145.225843 
L 121.714532 145.116146 
L 121.824986 144.962984 
L 121.825629 144.962984 
L 121.892602 144.853287 
L 122.001832 144.751868 
L 122.003657 144.751868 
L 122.099078 144.642171 
L 122.208682 144.522125 
L 122.210051 144.522125 
L 122.284944 144.412428 
L 122.397285 144.288242 
L 122.482256 144.178545 
L 122.596256 144.029522 
L 122.686825 143.919825 
L 122.686825 143.91879 
L 122.800638 143.783221 
L 122.903213 143.673524 
L 123.013459 143.53692 
L 123.014289 143.53692 
L 123.096917 143.427222 
L 123.211206 143.267851 
L 123.292818 143.158153 
L 123.292818 143.157119 
L 123.419259 143.009131 
L 123.50707 142.899434 
L 123.620821 142.766969 
L 123.691506 142.657272 
L 123.799451 142.516528 
L 123.802603 142.516528 
L 123.880731 142.406831 
L 123.99021 142.251599 
L 123.991828 142.251599 
L 124.079536 142.141901 
L 124.190052 141.997018 
L 124.190632 141.997018 
L 124.274525 141.887321 
L 124.383175 141.758996 
L 124.385622 141.758996 
L 124.47391 141.649299 
L 124.47391 141.648264 
L 124.588096 141.491997 
L 124.682025 141.3823 
L 124.791401 141.270533 
L 124.793122 141.270533 
L 124.864262 141.160835 
L 124.975193 141.009743 
L 124.975359 141.009743 
L 125.080194 140.900046 
L 125.191125 140.740674 
L 125.191291 140.740674 
L 125.292518 140.630977 
L 125.292518 140.629942 
L 125.409026 140.496443 
L 125.505297 140.386745 
L 125.611376 140.235653 
L 125.616353 140.235653 
L 125.708747 140.125956 
L 125.815655 139.9997 
L 125.819802 139.9997 
L 125.910827 139.890003 
L 126.021364 139.726492 
L 126.021924 139.726492 
L 126.103909 139.616795 
L 126.212704 139.511237 
L 126.215006 139.511237 
L 126.299852 139.40154 
L 126.410742 139.281494 
L 126.410928 139.281494 
L 126.499238 139.171796 
L 126.609546 139.05796 
L 126.610334 139.05796 
L 126.73381 138.948262 
L 126.73381 138.947227 
L 126.848182 138.784751 
L 126.96664 138.677124 
L 126.96664 138.674019 
L 127.077467 138.567427 
L 127.077737 138.567427 
L 127.163164 138.457729 
L 127.276272 138.358381 
L 127.401012 138.248684 
L 127.516235 138.10794 
L 127.622853 137.998243 
L 127.731088 137.886476 
L 127.733618 137.886476 
L 127.817262 137.776778 
L 127.817262 137.775744 
L 127.933604 137.646384 
L 128.030332 137.536686 
L 128.144414 137.385594 
L 128.249705 137.275897 
L 128.362005 137.153781 
L 128.469452 137.044083 
L 128.579056 136.915758 
L 128.580528 136.915758 
L 128.664296 136.806061 
L 128.776533 136.690155 
L 128.902518 136.580457 
L 129.010877 136.479039 
L 129.013573 136.479039 
L 129.122803 136.369342 
L 129.233092 136.234807 
L 129.233838 136.234807 
L 129.363078 136.12511 
L 129.363078 136.124075 
L 129.477077 135.980227 
L 129.573618 135.87053 
L 129.684113 135.715298 
L 129.684715 135.715298 
L 129.789715 135.604566 
L 129.906639 135.460717 
L 130.000671 135.35102 
L 130.107745 135.259951 
L 130.111726 135.259951 
L 130.200429 135.150253 
L 130.310531 135.050905 
L 130.311526 135.050905 
L 130.395916 134.941208 
L 130.509356 134.825301 
L 130.611931 134.715604 
L 130.720581 134.593488 
L 130.723027 134.593488 
L 130.814053 134.482756 
L 130.924735 134.374094 
L 130.925149 134.374094 
L 131.019078 134.264396 
L 131.130112 134.156769 
L 131.130175 134.156769 
L 131.241147 134.047071 
L 131.361408 133.933235 
L 131.441196 133.823537 
L 131.549887 133.701422 
L 131.552292 133.701422 
L 131.663555 133.591724 
L 131.776725 133.484097 
L 131.876915 133.3744 
L 131.985088 133.28747 
L 131.988012 133.28747 
L 132.100892 133.177772 
L 132.214394 133.057726 
L 132.315082 132.948029 
L 132.428293 132.840402 
L 132.55266 132.730704 
L 132.663093 132.612728 
L 132.663695 132.612728 
L 132.803779 132.503031 
L 132.915891 132.395403 
L 133.029186 132.287776 
L 133.029186 132.285706 
L 133.140075 132.155311 
L 133.140241 132.155311 
L 133.261519 132.044579 
L 133.375394 131.90694 
L 133.486677 131.797243 
L 133.594871 131.697894 
L 133.597732 131.697894 
L 133.713971 131.588197 
L 133.821273 131.470221 
L 133.825068 131.470221 
L 133.952068 131.360523 
L 134.063891 131.281873 
L 134.175402 131.172175 
L 134.291662 131.089385 
L 134.404853 130.979688 
L 134.513005 130.86999 
L 134.515949 130.86999 
L 134.616927 130.760293 
L 134.722135 130.654735 
L 134.728024 130.654735 
L 134.870098 130.545038 
L 134.870098 130.544003 
L 134.983352 130.437411 
L 135.145497 130.326679 
L 135.2562 130.244923 
L 135.256594 130.244923 
L 135.373206 130.134191 
L 135.48252 130.042087 
L 135.484178 130.042087 
L 135.597058 129.932389 
L 135.597058 129.931354 
L 135.710063 129.833041 
L 135.819107 129.722309 
L 135.931717 129.644693 
L 136.052808 129.534995 
L 136.157725 129.40874 
L 136.163863 129.40874 
L 136.277137 129.299043 
L 136.389291 129.183136 
L 136.517515 129.073439 
L 136.623262 128.994788 
L 136.628611 128.994788 
L 136.740579 128.885091 
L 136.740579 128.884056 
L 136.857191 128.748487 
L 136.974342 128.63879 
L 137.085315 128.541511 
L 137.085356 128.541511 
L 137.20794 128.430779 
L 137.314392 128.322116 
L 137.319036 128.322116 
L 137.47378 128.211384 
L 137.586432 128.133768 
L 137.717309 128.024071 
L 137.822932 127.924722 
L 137.828406 127.924722 
L 137.918436 127.815025 
L 138.030528 127.713607 
L 138.174821 127.60391 
L 138.28457 127.504561 
L 138.285897 127.504561 
L 138.429091 127.394864 
L 138.540063 127.305864 
L 138.540188 127.305864 
L 138.66273 127.196167 
L 138.766943 127.100958 
L 138.773785 127.100958 
L 138.909515 126.991261 
L 138.909515 126.990226 
L 139.022229 126.91054 
L 139.126151 126.800843 
L 139.238306 126.695285 
L 139.350584 126.585588 
L 139.465247 126.496588 
L 139.59401 126.385856 
L 139.699322 126.31031 
L 139.705065 126.31031 
L 139.81386 126.200613 
L 139.920022 126.080567 
L 139.924936 126.080567 
L 140.093199 125.970869 
L 140.206265 125.873591 
L 140.355887 125.763893 
L 140.469762 125.670754 
L 140.588116 125.561057 
L 140.695232 125.488615 
L 140.699213 125.488615 
L 140.845102 125.378918 
L 140.95539 125.308546 
L 140.956199 125.308546 
L 141.084506 125.198849 
L 141.190087 125.109849 
L 141.195602 125.109849 
L 141.313873 125.000152 
L 141.423975 124.898734 
L 141.424928 124.898734 
L 141.576126 124.789037 
L 141.686476 124.689688 
L 141.687057 124.689688 
L 141.830189 124.579991 
L 141.939357 124.462015 
L 141.941265 124.462015 
L 142.057545 124.352317 
L 142.170176 124.275736 
L 142.278909 124.166039 
L 142.389716 124.06876 
L 142.390006 124.06876 
L 142.549083 123.958028 
L 142.658396 123.865924 
L 142.660179 123.865924 
L 142.833107 123.756226 
L 142.94296 123.677576 
L 142.944204 123.677576 
L 143.091877 123.567878 
L 143.202807 123.483018 
L 143.202973 123.483018 
L 143.327465 123.373321 
L 143.43682 123.29467 
L 143.438561 123.29467 
L 143.593035 123.184973 
L 143.700731 123.095973 
L 143.704132 123.095973 
L 143.836834 122.986276 
L 143.94961 122.899346 
L 144.081836 122.788614 
L 144.191979 122.713068 
L 144.192891 122.713068 
L 144.320078 122.60337 
L 144.432294 122.491603 
L 144.559315 122.381906 
L 144.670329 122.284627 
L 144.670412 122.284627 
L 144.79424 122.17493 
L 144.903221 122.102489 
L 144.905295 122.102489 
L 145.034099 121.991756 
L 145.144823 121.872745 
L 145.145196 121.872745 
L 145.286151 121.762013 
L 145.395962 121.665769 
L 145.397227 121.665769 
L 145.516099 121.558142 
L 145.651331 121.448444 
L 145.764729 121.332538 
L 145.889282 121.222841 
L 145.889282 121.221806 
L 146.003324 121.148329 
L 146.134305 121.038632 
L 146.246335 120.943423 
L 146.379037 120.835796 
L 146.379037 120.832691 
L 146.48862 120.755075 
L 146.490134 120.755075 
L 146.643882 120.644343 
L 146.757031 120.54189 
L 146.8775 120.432192 
L 146.988389 120.349402 
L 146.988597 120.349402 
L 147.111927 120.239705 
L 147.216969 120.169333 
L 147.223024 120.169333 
L 147.391929 120.059636 
L 147.501284 119.947869 
L 147.502984 119.947869 
L 147.660112 119.838171 
L 147.771084 119.740893 
L 147.771208 119.740893 
L 147.924728 119.631195 
L 148.032964 119.567033 
L 148.035804 119.567033 
L 148.222769 119.459405 
L 148.222769 119.458371 
L 148.328807 119.368336 
L 148.333866 119.368336 
L 148.514549 119.258639 
L 148.514549 119.257604 
L 148.629336 119.167569 
L 148.780368 119.057872 
L 148.892875 118.98543 
L 149.07111 118.875733 
L 149.07111 118.874698 
L 149.186313 118.774315 
L 149.357353 118.664618 
L 149.357353 118.663583 
L 149.470026 118.585967 
L 149.660682 118.47627 
L 149.771571 118.391409 
L 149.771737 118.391409 
L 149.92281 118.281712 
L 150.028309 118.21341 
L 150.033907 118.21341 
L 150.196467 118.102678 
L 150.306154 117.985737 
L 150.307543 117.985737 
L 150.47199 117.875004 
L 150.582278 117.78497 
L 150.582797 117.78497 
L 150.72823 117.674238 
L 150.842105 117.606971 
L 150.970329 117.497273 
L 151.077839 117.422762 
L 151.081426 117.422762 
L 151.217155 117.31203 
L 151.324105 117.236484 
L 151.328252 117.236484 
L 151.49865 117.126786 
L 151.605351 117.027438 
L 151.609705 117.027438 
L 151.76758 116.917741 
L 151.870465 116.83702 
L 151.878635 116.83702 
L 152.04642 116.727323 
L 152.159321 116.636253 
L 152.320285 116.526556 
L 152.43304 116.443766 
L 152.587742 116.334068 
L 152.69944 116.271976 
L 152.881698 116.162278 
L 152.991385 116.067069 
L 152.992795 116.067069 
L 153.152826 115.957372 
L 153.265623 115.872512 
L 153.442967 115.762815 
L 153.554727 115.692443 
L 153.669556 115.601373 
L 153.868506 115.491676 
L 153.978441 115.410956 
L 153.979561 115.410956 
L 154.152966 115.301258 
L 154.265534 115.228817 
L 154.445263 115.119119 
L 154.554079 115.052887 
L 154.556318 115.052887 
L 154.709755 114.942155 
L 154.818779 114.85419 
L 154.820852 114.85419 
L 155.00705 114.744493 
L 155.118147 114.667912 
L 155.32396 114.55718 
L 155.434559 114.481633 
L 155.435056 114.481633 
L 155.599524 114.371936 
L 155.706681 114.291216 
L 155.710621 114.291216 
L 155.901961 114.180483 
L 156.011316 114.115286 
L 156.013058 114.115286 
L 156.17143 114.005589 
L 156.284081 113.929008 
L 156.493482 113.81931 
L 156.595082 113.759287 
L 156.604558 113.759287 
L 156.786795 113.64959 
L 156.899094 113.589567 
L 157.123278 113.47987 
L 157.233255 113.415707 
L 157.234354 113.415707 
L 157.399216 113.30601 
L 157.501646 113.239778 
L 157.510313 113.239778 
L 157.704929 113.13008 
L 157.704929 113.129046 
L 157.81756 113.04936 
L 158.021466 112.939663 
L 158.133101 112.885849 
L 158.32469 112.776152 
L 158.432469 112.70164 
L 158.435766 112.70164 
L 158.614355 112.591943 
L 158.725928 112.538129 
L 158.93143 112.428432 
L 159.034026 112.351851 
L 159.042527 112.351851 
L 159.263476 112.242154 
L 159.368912 112.169712 
L 159.374573 112.169712 
L 159.580054 112.060015 
L 159.692436 111.993782 
L 159.826403 111.88305 
L 159.938931 111.809574 
L 160.122516 111.699876 
L 160.225982 111.631574 
L 160.233551 111.631574 
L 160.410397 111.521877 
L 160.516559 111.455645 
L 160.521452 111.455645 
L 160.669706 111.344913 
L 160.776718 111.263157 
L 160.780802 111.263157 
L 160.974299 111.15346 
L 161.082949 111.07067 
L 161.085354 111.07067 
L 161.285776 110.960972 
L 161.393306 110.903019 
L 161.396873 110.903019 
L 161.59095 110.793322 
L 161.695619 110.733299 
L 161.701964 110.733299 
L 161.912069 110.622567 
L 162.022647 110.561509 
L 162.023166 110.561509 
L 162.223504 110.451811 
L 162.335493 110.358672 
L 162.521006 110.248975 
L 162.521006 110.24794 
L 162.63343 110.182743 
L 162.861077 110.073045 
L 162.971842 110.023371 
L 162.972174 110.023371 
L 163.179811 109.913674 
L 163.282116 109.855721 
L 163.290908 109.855721 
L 163.518824 109.746023 
L 163.518824 109.744988 
L 163.632119 109.69221 
L 163.827523 109.582512 
L 163.941522 109.512141 
L 164.127513 109.402443 
L 164.234089 109.350699 
L 164.23861 109.350699 
L 164.410874 109.241002 
L 164.520353 109.183049 
L 164.521908 109.183049 
L 164.719448 109.073351 
L 164.818602 109.013328 
L 164.830462 109.013328 
L 165.037394 108.903631 
L 165.14677 108.835329 
L 165.148491 108.835329 
L 165.360566 108.725632 
L 165.468967 108.665609 
L 165.471663 108.665609 
L 165.691285 108.555912 
L 165.797032 108.504168 
L 165.802382 108.504168 
L 165.962288 108.39447 
L 165.962288 108.393435 
L 166.07579 108.334447 
L 166.227278 108.22475 
L 166.332216 108.162657 
L 166.338292 108.162657 
L 166.571848 108.05296 
L 166.681617 107.997076 
L 166.682882 107.997076 
L 166.949759 107.887379 
L 166.949759 107.886344 
L 167.063054 107.833565 
L 167.276725 107.723868 
L 167.388547 107.647287 
L 167.61607 107.53759 
L 167.728721 107.487916 
L 167.898041 107.378218 
L 168.010133 107.328544 
L 168.212629 107.218847 
L 168.319537 107.148475 
L 168.323725 107.148475 
L 168.504864 107.038778 
L 168.614551 106.976685 
L 168.615961 106.976685 
L 168.829487 106.866988 
L 168.829487 106.865953 
L 168.942616 106.817313 
L 169.148055 106.707616 
L 169.250651 106.651733 
L 169.25909 106.651733 
L 169.474171 106.542035 
L 169.584729 106.494431 
L 169.585268 106.494431 
L 169.801905 106.384734 
L 169.91325 106.32678 
L 170.1359 106.217083 
L 170.236919 106.167409 
L 170.246996 106.167409 
L 170.46637 106.057712 
L 170.57191 106.001828 
L 170.577467 106.001828 
L 170.841544 105.892131 
L 170.841544 105.891096 
L 170.955295 105.825899 
L 171.257234 105.716201 
L 171.366755 105.666527 
L 171.368331 105.666527 
L 171.569084 105.55683 
L 171.677569 105.511295 
L 171.68014 105.511295 
L 171.87459 105.401598 
L 171.986267 105.341575 
L 172.209332 105.231878 
L 172.318355 105.178064 
L 172.320428 105.178064 
L 172.543078 105.068367 
L 172.650401 105.012483 
L 172.654133 105.012483 
L 172.881925 104.902786 
L 172.983504 104.826205 
L 172.993001 104.826205 
L 173.232674 104.716507 
L 173.336264 104.679252 
L 173.34377 104.679252 
L 173.575626 104.569554 
L 173.686681 104.515741 
L 173.912358 104.406043 
L 174.019889 104.343951 
L 174.023331 104.343951 
L 174.271774 104.234253 
L 174.382539 104.188719 
L 174.382788 104.188719 
L 174.63712 104.079021 
L 174.740379 104.018998 
L 174.748175 104.018998 
L 175.029297 103.909301 
L 175.13521 103.872045 
L 175.140394 103.872045 
L 175.32373 103.762348 
L 175.435594 103.725093 
L 175.661914 103.615395 
L 175.661914 103.61436 
L 175.775125 103.563651 
L 175.963915 103.453954 
L 176.075281 103.418768 
L 176.341764 103.308036 
L 176.452861 103.259397 
L 176.697406 103.149699 
L 176.804854 103.122792 
L 176.808461 103.122792 
L 177.067355 103.013095 
L 177.17953 102.957212 
L 177.503116 102.847514 
L 177.606915 102.79991 
L 177.614213 102.79991 
L 177.852746 102.689178 
L 177.960815 102.632259 
L 177.963822 102.632259 
L 178.242641 102.522562 
L 178.35154 102.468748 
L 178.353738 102.468748 
L 178.610973 102.359051 
L 178.721655 102.307307 
L 178.72207 102.307307 
L 179.034501 102.19761 
L 179.127683 102.154145 
L 179.145598 102.154145 
L 179.395493 102.044448 
L 179.506382 101.998913 
L 179.506527 101.998913 
L 179.81535 101.889216 
L 179.927297 101.845751 
L 180.168857 101.736054 
L 180.168857 101.735019 
L 180.281778 101.690519 
L 180.582764 101.580822 
L 180.694897 101.529078 
L 181.051783 101.41938 
L 181.140818 101.388334 
L 181.162838 101.388334 
L 181.52466 101.278637 
L 181.634968 101.231032 
L 181.635736 101.231032 
L 181.973318 101.1203 
L 182.082051 101.07787 
L 182.084373 101.07787 
L 182.471345 100.968173 
L 182.582712 100.937126 
L 182.925996 100.827429 
L 183.037673 100.798452 
L 183.436526 100.688755 
L 183.523115 100.659778 
L 183.547582 100.659778 
L 183.938535 100.550081 
L 184.050026 100.510756 
L 184.291502 100.401059 
L 184.389578 100.370012 
L 184.402599 100.370012 
L 184.688199 100.260315 
L 184.797637 100.220989 
L 184.799296 100.220989 
L 185.15921 100.111292 
L 185.270659 100.074037 
L 185.554828 99.964339 
L 185.664432 99.922944 
L 185.665801 99.922944 
L 186.030856 99.813247 
L 186.030856 99.812212 
L 186.14299 99.78841 
L 186.559634 99.678712 
L 186.671518 99.639387 
L 187.132576 99.52969 
L 187.132576 99.528655 
L 187.245331 99.488295 
L 187.589279 99.378597 
L 187.698427 99.347551 
L 187.700251 99.347551 
L 188.095414 99.237854 
L 188.205557 99.198528 
L 188.206428 99.198528 
L 188.536193 99.087796 
L 188.644221 99.047436 
L 188.647289 99.047436 
L 189.114733 98.937738 
L 189.218365 98.910832 
L 189.225809 98.910832 
L 189.667749 98.801134 
L 189.778991 98.772158 
L 190.112655 98.66246 
L 190.223088 98.625205 
L 190.223751 98.625205 
L 190.652711 98.515507 
L 190.757588 98.480322 
L 190.763767 98.480322 
L 191.140475 98.370624 
L 191.252692 98.343717 
L 191.761605 98.23402 
L 191.866689 98.202974 
L 191.872702 98.202974 
L 192.338114 98.093277 
L 192.441455 98.058091 
L 192.44921 98.058091 
L 192.997602 97.948393 
L 193.107227 97.925626 
L 193.108678 97.925626 
L 193.59215 97.815929 
L 193.700386 97.784882 
L 193.703226 97.784882 
L 194.089742 97.675185 
L 194.186657 97.650348 
L 194.200798 97.650348 
L 194.749211 97.539616 
L 194.861531 97.509604 
L 195.477352 97.399907 
L 195.588822 97.381279 
L 196.136074 97.271582 
L 196.24742 97.244675 
L 196.740388 97.134978 
L 196.844932 97.099792 
L 196.851277 97.099792 
L 197.329337 96.990095 
L 197.431808 96.959048 
L 197.440434 96.959048 
L 198.047713 96.849351 
L 198.147074 96.812095 
L 198.158809 96.812095 
L 198.737806 96.702398 
L 198.846332 96.671352 
L 198.848903 96.671352 
L 199.500616 96.561654 
L 199.6119 96.532678 
L 200.072003 96.42298 
L 200.181192 96.383655 
L 200.1831 96.383655 
L 200.580129 96.273958 
L 200.689484 96.249121 
L 200.691225 96.249121 
L 201.14797 96.139423 
L 201.257864 96.106307 
L 201.259067 96.106307 
L 201.636978 95.99661 
L 201.744716 95.961424 
L 201.747619 95.961424 
L 202.142408 95.851727 
L 202.25309 95.795843 
L 202.253505 95.795843 
L 202.524425 95.686146 
L 202.633738 95.657169 
L 202.635521 95.657169 
L 202.930743 95.547472 
L 203.039517 95.48124 
L 203.041715 95.48124 
L 203.327191 95.371543 
L 203.430076 95.336357 
L 203.438287 95.336357 
L 203.83374 95.226659 
L 203.930447 95.172846 
L 203.944505 95.172846 
L 204.234709 95.063148 
L 204.234709 95.062114 
L 204.348252 95.003125 
L 204.561281 94.893428 
L 204.672875 94.843754 
L 204.979749 94.734057 
L 205.08956 94.669894 
L 205.090804 94.669894 
L 205.33846 94.559162 
L 205.437199 94.506383 
L 205.449557 94.506383 
L 205.691324 94.396686 
L 205.691324 94.395651 
L 205.804743 94.338733 
L 206.048998 94.229035 
L 206.149852 94.175221 
L 206.160053 94.175221 
L 206.411856 94.065524 
L 206.522206 94.01585 
L 206.522786 94.01585 
L 206.758209 93.906153 
L 206.859477 93.850269 
L 206.869305 93.850269 
L 207.139354 93.740572 
L 207.245143 93.680549 
L 207.25041 93.680549 
L 207.470239 93.570852 
L 207.578226 93.517038 
L 207.581295 93.517038 
L 207.746011 93.407341 
L 207.858456 93.341108 
L 208.115338 93.231411 
L 208.227389 93.183807 
L 208.468244 93.074109 
L 208.578884 93.030644 
L 208.579299 93.030644 
L 208.822144 92.920947 
L 208.930835 92.852645 
L 208.933241 92.852645 
L 209.045664 92.778134 
L 209.233023 92.667402 
L 209.341466 92.602204 
L 209.34412 92.602204 
L 209.530028 92.491472 
L 209.643654 92.424205 
L 209.77391 92.314508 
L 209.879615 92.235857 
L 209.884965 92.235857 
L 210.055861 92.126159 
L 210.164262 92.080625 
L 210.166957 92.080625 
L 210.380981 91.970927 
L 210.487475 91.896416 
L 210.492078 91.896416 
L 210.641658 91.786719 
L 210.750765 91.710138 
L 210.752631 91.710138 
L 210.953675 91.60044 
L 211.063361 91.536278 
L 211.064771 91.536278 
L 211.238404 91.425546 
L 211.349293 91.360348 
L 211.349459 91.360348 
L 211.501072 91.250651 
L 211.613495 91.184419 
L 211.809646 91.074722 
L 211.919996 90.983652 
L 211.920743 90.983652 
L 212.060744 90.873955 
L 212.171135 90.809792 
L 212.171757 90.809792 
L 212.367576 90.700095 
L 212.367576 90.69906 
L 212.475894 90.611095 
L 212.478673 90.611095 
L 212.646417 90.501398 
L 212.755813 90.433096 
L 212.757514 90.433096 
L 212.890174 90.323399 
L 213.00293 90.240608 
L 213.153091 90.129876 
L 213.265826 90.048121 
L 213.420154 89.937389 
L 213.530235 89.868052 
L 213.53123 89.868052 
L 213.705464 89.758354 
L 213.814943 89.683843 
L 213.816499 89.683843 
L 213.957557 89.574146 
L 214.070541 89.481007 
L 214.253234 89.371309 
L 214.360391 89.296798 
L 214.364331 89.296798 
L 214.536927 89.187101 
L 214.646033 89.118799 
L 214.647899 89.118799 
L 214.833682 89.009101 
L 214.9403 88.93873 
L 214.944655 88.93873 
L 215.093281 88.829032 
L 215.205829 88.752451 
L 215.334758 88.642754 
L 215.448011 88.533057 
L 215.621727 88.423359 
L 215.730004 88.359197 
L 215.732533 88.359197 
L 215.872658 88.248465 
L 215.983299 88.164639 
L 215.983672 88.164639 
L 216.101446 88.054942 
L 216.207545 87.957663 
L 216.212501 87.957663 
L 216.375973 87.847966 
L 216.48284 87.779664 
L 216.48707 87.779664 
L 216.644364 87.669967 
L 216.750567 87.587177 
L 216.755336 87.587177 
L 216.866454 87.477479 
L 216.978152 87.417456 
L 217.156968 87.307759 
L 217.26877 87.233248 
L 217.414037 87.12355 
L 217.414037 87.122515 
L 217.529073 87.026272 
L 217.678903 86.916574 
L 217.783779 86.813086 
L 217.789958 86.813086 
L 217.947334 86.703389 
L 218.055943 86.620599 
L 218.058431 86.620599 
L 218.22124 86.509867 
L 218.333374 86.457088 
L 218.531722 86.34739 
L 218.531722 86.346356 
L 218.645432 86.283228 
L 218.841458 86.173531 
L 218.95102 86.09074 
L 218.95243 86.09074 
L 219.116773 85.981043 
L 219.227787 85.885834 
L 219.227849 85.885834 
L 219.388647 85.776137 
L 219.50049 85.695416 
L 219.680779 85.584684 
L 219.798366 85.480161 
L 219.960656 85.370464 
L 220.074428 85.281464 
L 220.205845 85.171767 
L 220.315407 85.105535 
L 220.316858 85.105535 
L 220.462541 84.995837 
L 220.577162 84.908908 
L 220.756891 84.79921 
L 220.869771 84.710211 
L 221.051158 84.600513 
L 221.158875 84.532211 
L 221.162255 84.532211 
L 221.314241 84.422514 
L 221.42513 84.352142 
L 221.425337 84.352142 
L 221.567204 84.242445 
L 221.677285 84.174143 
L 221.678177 84.174143 
L 221.851975 84.064446 
L 221.962782 83.985795 
L 221.96303 83.985795 
L 222.134921 83.876097 
L 222.134921 83.875063 
L 222.248962 83.803656 
L 222.421061 83.693959 
L 222.535807 83.604959 
L 222.694013 83.495262 
L 222.803741 83.406262 
L 222.805068 83.406262 
L 222.936319 83.296565 
L 223.046006 83.211705 
L 223.047395 83.211705 
L 223.167138 83.102007 
L 223.281718 83.017147 
L 223.455351 82.90745 
L 223.564457 82.826729 
L 223.566447 82.826729 
L 223.762598 82.717032 
L 223.87299 82.64666 
L 223.873612 82.64666 
L 224.032585 82.535928 
L 224.146605 82.462452 
L 224.303857 82.351719 
L 224.41031 82.282383 
L 224.414933 82.282383 
L 224.581164 82.172685 
L 224.688943 82.098174 
L 224.69226 82.098174 
L 224.851047 81.987442 
L 224.951901 81.930523 
L 224.962144 81.930523 
L 225.158253 81.820826 
L 225.26935 81.727687 
L 225.442402 81.616955 
L 225.560465 81.53313 
L 225.761841 81.423432 
L 225.761841 81.422397 
L 225.874389 81.350991 
L 226.059384 81.241293 
L 226.173508 81.166782 
L 226.350687 81.05605 
L 226.458362 80.978434 
L 226.461638 80.978434 
L 226.644498 80.868737 
L 226.757896 80.794225 
L 226.908596 80.684528 
L 227.014799 80.599668 
L 227.019693 80.599668 
L 227.183373 80.488936 
L 227.293101 80.41132 
L 227.294366 80.41132 
L 227.490827 80.301623 
L 227.597777 80.258158 
L 227.601924 80.258158 
L 227.830877 80.14846 
L 227.946639 80.073949 
L 228.120334 79.964252 
L 228.232094 79.898019 
L 228.40921 79.788322 
L 228.523272 79.715881 
L 228.707251 79.606183 
L 228.820214 79.513044 
L 229.004359 79.403347 
L 229.115974 79.332975 
L 229.301841 79.222243 
L 229.414347 79.152906 
L 229.618647 79.043209 
L 229.731215 78.995604 
L 229.909327 78.885907 
L 230.019967 78.827954 
L 230.020403 78.827954 
L 230.224702 78.718256 
L 230.335612 78.637536 
L 230.335757 78.637536 
L 230.559651 78.526804 
L 230.670437 78.463676 
L 230.670706 78.463676 
L 230.887115 78.353979 
L 230.999601 78.271188 
L 231.220799 78.160456 
L 231.327334 78.089049 
L 231.331895 78.089049 
L 231.527673 77.979352 
L 231.639972 77.919329 
L 231.854743 77.809632 
L 231.961941 77.745469 
L 231.965839 77.745469 
L 232.077558 77.681307 
L 232.273605 77.57161 
L 232.385344 77.507447 
L 232.55794 77.396715 
L 232.667959 77.323238 
L 232.669016 77.323238 
L 232.864358 77.213541 
L 232.977756 77.157658 
L 233.172932 77.04796 
L 233.28519 76.990007 
L 233.492662 76.88031 
L 233.603344 76.822357 
L 233.603717 76.822357 
L 233.82985 76.712659 
L 233.940284 76.646427 
L 233.940843 76.646427 
L 234.113709 76.535695 
L 234.221405 76.468428 
L 234.224806 76.468428 
L 234.468916 76.35873 
L 234.575782 76.319405 
L 234.579992 76.319405 
L 234.753749 76.209708 
L 234.860926 76.164173 
L 234.864825 76.164173 
L 235.10176 76.054476 
L 235.10176 76.053441 
L 235.213894 76.000662 
L 235.391922 75.890965 
L 235.391922 75.88993 
L 235.504968 75.84336 
L 235.716981 75.733663 
L 235.829923 75.67364 
L 236.019894 75.563943 
L 236.019894 75.562908 
L 236.133334 75.505989 
L 236.337965 75.396292 
L 236.444314 75.334199 
L 236.449062 75.334199 
L 236.674573 75.224502 
L 236.786789 75.168619 
L 237.035191 75.058921 
L 237.147905 75.007177 
L 237.329334 74.89748 
L 237.432303 74.856085 
L 237.44039 74.856085 
L 237.644647 74.746388 
L 237.756345 74.686365 
L 238.01441 74.576667 
L 238.122977 74.518714 
L 238.125507 74.518714 
L 238.364329 74.409017 
L 238.364329 74.407982 
L 238.477437 74.359343 
L 238.834054 74.24861 
L 238.943367 74.197901 
L 238.94513 74.197901 
L 239.229569 74.088204 
L 239.34106 74.044739 
L 239.612311 73.935042 
L 239.72432 73.889507 
L 239.972598 73.77981 
L 240.085105 73.709438 
L 240.372281 73.599741 
L 240.474959 73.556276 
L 240.483378 73.556276 
L 240.738892 73.445544 
L 240.850756 73.407253 
L 241.105585 73.297556 
L 241.214982 73.243742 
L 241.216682 73.243742 
L 241.506098 73.134045 
L 241.614582 73.082301 
L 241.617174 73.082301 
L 241.847557 72.971569 
L 241.959566 72.927069 
L 242.23934 72.817372 
L 242.351619 72.757349 
L 242.644061 72.647651 
L 242.756236 72.618675 
L 242.984609 72.508977 
L 243.099831 72.461373 
L 243.444546 72.351676 
L 243.556182 72.291653 
L 243.799318 72.181955 
L 243.908258 72.146769 
L 243.910373 72.146769 
L 244.240968 72.037072 
L 244.353702 71.997747 
L 244.638452 71.88805 
L 244.75154 71.850794 
L 245.013958 71.740062 
L 245.127626 71.71212 
L 245.44972 71.602423 
L 245.560402 71.556888 
L 245.560775 71.556888 
L 245.841772 71.447191 
L 245.841772 71.446156 
L 245.954071 71.418214 
L 246.273842 71.307482 
L 246.386453 71.271261 
L 246.680699 71.161564 
L 246.789557 71.113959 
L 246.791796 71.113959 
L 247.119654 71.004262 
L 247.23158 70.960797 
L 247.581229 70.8511 
L 247.693156 70.832472 
L 248.045335 70.72174 
L 248.160993 70.668961 
L 248.446511 70.558229 
L 248.552548 70.528217 
L 248.557607 70.528217 
L 248.853057 70.41852 
L 248.96463 70.366776 
L 249.25728 70.257079 
L 249.362011 70.226033 
L 249.368335 70.226033 
L 249.712594 70.116335 
L 249.824106 70.070801 
L 250.194138 69.961103 
L 250.30766 69.915569 
L 250.624446 69.805871 
L 250.735957 69.764476 
L 251.082186 69.654779 
L 251.193179 69.619593 
L 251.193241 69.619593 
L 251.476021 69.509896 
L 251.588652 69.460221 
L 251.902721 69.350524 
L 252.01556 69.309129 
L 252.358408 69.199432 
L 252.470127 69.164246 
L 252.802754 69.053514 
L 252.907547 69.025572 
L 252.91383 69.025572 
L 253.278367 68.91484 
L 253.380631 68.8662 
L 253.389464 68.8662 
L 253.700526 68.756503 
L 253.700526 68.755468 
L 253.812328 68.721317 
L 254.152067 68.610585 
L 254.265527 68.574364 
L 254.698489 68.463632 
L 254.79559 68.429481 
L 254.809586 68.429481 
L 255.126537 68.319784 
L 255.239956 68.284598 
L 255.600367 68.174901 
L 255.7125 68.141785 
L 256.091677 68.032087 
L 256.20296 68.013459 
L 256.556342 67.903762 
L 256.556342 67.902727 
L 256.669429 67.872716 
L 257.01375 67.763019 
L 257.125199 67.721623 
L 257.593556 67.611926 
L 257.705689 67.57674 
L 258.152274 67.466008 
L 258.257233 67.438066 
L 258.26337 67.438066 
L 258.643728 67.328369 
L 258.643728 67.327334 
L 258.759843 67.282834 
L 259.115568 67.173137 
L 259.227535 67.129672 
L 259.605219 67.019975 
L 259.716689 66.97651 
L 260.176855 66.866813 
L 260.288262 66.833696 
L 260.743659 66.723999 
L 260.856145 66.690883 
L 261.218028 66.581186 
L 261.331033 66.535651 
L 261.813862 66.428024 
L 261.925062 66.396977 
L 262.233118 66.28728 
L 262.337372 66.254164 
L 262.344049 66.254164 
L 262.682772 66.144466 
L 262.794532 66.123769 
L 263.166388 66.014072 
L 263.278916 65.993374 
L 263.645278 65.883677 
L 263.75737 65.850561 
L 264.058065 65.740863 
L 264.168021 65.709817 
L 264.169079 65.709817 
L 264.514395 65.60012 
L 264.626487 65.550445 
L 265.173594 65.440748 
L 265.286556 65.403493 
L 265.69783 65.293795 
L 265.800239 65.266888 
L 265.808927 65.266888 
L 266.287961 65.157191 
L 266.287961 65.156156 
L 266.399514 65.134424 
L 266.933413 65.023692 
L 267.044945 64.999889 
L 267.53331 64.889157 
L 267.644987 64.855006 
L 267.946615 64.744274 
L 268.058645 64.722542 
L 268.486797 64.612844 
L 268.598225 64.596286 
L 269.093122 64.485554 
L 269.206292 64.47831 
L 269.59681 64.368613 
L 269.708073 64.345845 
L 270.190694 64.236148 
L 270.303201 64.190613 
L 270.772967 64.080916 
L 270.872929 64.058149 
L 270.884043 64.058149 
L 271.406496 63.948451 
L 271.517779 63.929824 
L 272.025967 63.820126 
L 272.138391 63.78494 
L 272.721866 63.675243 
L 272.833419 63.650406 
L 273.423695 63.540709 
L 273.537799 63.507593 
L 274.107112 63.397895 
L 274.107112 63.396861 
L 274.218748 63.368919 
L 274.822336 63.259222 
L 274.934262 63.238524 
L 275.517074 63.128827 
L 275.614901 63.091571 
L 275.628171 63.091571 
L 276.321872 62.981874 
L 276.431974 62.965316 
L 276.432927 62.965316 
L 277.105666 62.854584 
L 277.218649 62.84113 
L 277.748339 62.731433 
L 277.859747 62.716944 
L 278.310064 62.607247 
L 278.421533 62.569992 
L 278.991013 62.460294 
L 279.100534 62.423039 
L 279.10211 62.423039 
L 279.55195 62.313341 
L 279.663606 62.296783 
L 280.324132 62.187086 
L 280.435519 62.172598 
L 280.980594 62.0629 
L 280.980594 62.061866 
L 281.092893 62.033924 
L 281.778964 61.924227 
L 281.890683 61.899389 
L 282.643146 61.788657 
L 282.745741 61.777274 
L 282.754222 61.777274 
L 283.408382 61.667576 
L 283.52035 61.653088 
L 284.157238 61.543391 
L 284.242375 61.520623 
L 284.268334 61.520623 
L 284.97966 61.410926 
L 285.079892 61.384019 
L 285.090715 61.384019 
L 285.724286 61.274322 
L 285.834636 61.257764 
L 285.835341 61.257764 
L 286.517825 61.147032 
L 286.629067 61.137718 
L 287.358432 61.028021 
L 287.457254 61.015602 
L 287.469529 61.015602 
L 288.210567 60.905905 
L 288.322327 60.885207 
L 289.144397 60.77551 
L 289.256158 60.754812 
L 290.082768 60.645115 
L 290.194321 60.622348 
L 290.979214 60.51265 
L 291.066217 60.491953 
L 291.090186 60.491953 
L 291.880574 60.382256 
L 291.991981 60.371907 
L 293.134299 60.261175 
L 293.245956 60.247721 
L 293.834739 60.136989 
L 293.942912 60.123536 
L 293.945815 60.123536 
L 294.741656 60.013838 
L 294.841348 59.995211 
L 294.852628 59.995211 
L 295.716271 59.884478 
L 295.829441 59.862746 
L 296.85693 59.753049 
L 296.968774 59.734421 
L 298.005054 59.623689 
L 298.118058 59.614375 
L 299.195808 59.504678 
L 299.307548 59.498468 
L 300.092834 59.388771 
L 300.204076 59.378422 
L 301.20517 59.268725 
L 301.20517 59.26769 
L 301.317967 59.250097 
L 302.298886 59.139365 
L 302.411185 59.127981 
L 303.246836 59.018284 
L 303.358721 58.999656 
L 304.390191 58.889959 
L 304.502573 58.88168 
L 305.451374 58.771983 
L 305.562948 58.749215 
L 306.99775 58.638483 
L 307.091802 58.61882 
L 307.108805 58.61882 
L 308.348327 58.509123 
L 308.460336 58.492565 
L 309.970696 58.382868 
L 310.082104 58.368379 
L 311.465483 58.258682 
L 311.57687 58.252473 
L 312.856369 58.141741 
L 312.969312 58.128287 
L 314.254077 58.01859 
L 314.365381 58.008241 
L 315.337343 57.898544 
L 315.449269 57.888195 
L 316.844053 57.778498 
L 316.844053 57.777463 
L 316.95573 57.770219 
L 318.607832 57.660522 
L 318.719344 57.654312 
L 320.352245 57.544615 
L 320.352245 57.54358 
L 320.464503 57.532197 
L 322.020728 57.422499 
L 322.133753 57.405941 
L 323.767505 57.296244 
L 323.862428 57.285895 
L 323.878581 57.285895 
L 325.614223 57.175163 
L 325.725714 57.169989 
L 327.597044 57.059256 
L 327.687614 57.056152 
L 327.708099 57.056152 
L 329.484486 56.946455 
L 329.595624 56.938176 
L 331.340949 56.828478 
L 331.452295 56.81606 
L 333.236394 56.706362 
L 333.348009 56.704293 
L 335.785315 56.594595 
L 335.897262 56.582177 
L 337.91104 56.47248 
L 338.022282 56.464201 
L 339.898174 56.354503 
L 340.006741 56.344155 
L 340.00925 56.344155 
L 342.147768 56.234457 
L 342.258803 56.230318 
L 344.275442 56.12062 
L 344.281766 56.116481 
L 344.386539 56.116481 
L 346.87819 56.006784 
L 346.87819 56.005749 
L 346.9919 56.002644 
L 349.10763 55.891912 
L 349.218706 55.888807 
L 352.15688 55.77911 
L 352.268143 55.768761 
L 355.006952 55.659064 
L 355.118173 55.652855 
L 357.610945 55.543158 
L 357.610945 55.542123 
L 357.722207 55.536948 
L 361.275809 55.427251 
L 361.387154 55.425181 
L 364.266338 55.315484 
L 364.362547 55.307205 
L 364.377352 55.307205 
L 367.753174 55.197508 
L 367.864291 55.195438 
L 371.730759 55.085741 
L 371.841918 55.083671 
L 375.381441 54.973974 
L 375.444018 54.969834 
L 375.492538 54.969834 
L 378.691326 54.860137 
L 378.802755 54.853928 
L 381.798509 54.74423 
L 381.909896 54.742161 
L 386.047844 54.632463 
L 386.159687 54.626254 
L 390.866306 54.516557 
L 390.930957 54.512417 
L 390.977403 54.512417 
L 396.087685 54.40272 
L 396.087685 54.40065 
L 396.198699 54.40065 
L 401.294135 54.290953 
L 401.330546 54.284744 
L 401.405066 54.284744 
L 408.998209 54.175046 
L 408.998209 54.172977 
L 409.108186 54.172977 
L 414.72 54.144 
L 414.72 54.144 
" clip-path="url(#pfbc5f38d5e)" style="fill: none; stroke: #ff8c00; stroke-width: 1.5; stroke-linecap: square"/>
   </g>
   <g id="line2d_14">
    <path d="M 74.605714 307.584 
L 414.72 54.144 
" clip-path="url(#pfbc5f38d5e)" style="fill: none; stroke-dasharray: 5.55,2.4; stroke-dashoffset: 0; stroke: #0000ff; stroke-width: 1.5"/>
   </g>
   <g id="patch_3">
    <path d="M 57.6 307.584 
L 57.6 41.472 
" style="fill: none; stroke: #000000; stroke-width: 0.8; stroke-linejoin: miter; stroke-linecap: square"/>
   </g>
   <g id="patch_4">
    <path d="M 414.72 307.584 
L 414.72 41.472 
" style="fill: none; stroke: #000000; stroke-width: 0.8; stroke-linejoin: miter; stroke-linecap: square"/>
   </g>
   <g id="patch_5">
    <path d="M 57.6 307.584 
L 414.72 307.584 
" style="fill: none; stroke: #000000; stroke-width: 0.8; stroke-linejoin: miter; stroke-linecap: square"/>
   </g>
   <g id="patch_6">
    <path d="M 57.6 41.472 
L 414.72 41.472 
" style="fill: none; stroke: #000000; stroke-width: 0.8; stroke-linejoin: miter; stroke-linecap: square"/>
   </g>
   <g id="text_15">
    <!-- ROC CURVE -->
    <g transform="translate(200.855625 35.472)scale(0.12 -0.12)">
     <defs>
      <path id="DejaVuSans-4f" d="M 2522 4238 
Q 1834 4238 1429 3725 
Q 1025 3213 1025 2328 
Q 1025 1447 1429 934 
Q 1834 422 2522 422 
Q 3209 422 3611 934 
Q 4013 1447 4013 2328 
Q 4013 3213 3611 3725 
Q 3209 4238 2522 4238 
z
M 2522 4750 
Q 3503 4750 4090 4092 
Q 4678 3434 4678 2328 
Q 4678 1225 4090 567 
Q 3503 -91 2522 -91 
Q 1538 -91 948 565 
Q 359 1222 359 2328 
Q 359 3434 948 4092 
Q 1538 4750 2522 4750 
z
" transform="scale(0.015625)"/>
      <path id="DejaVuSans-43" d="M 4122 4306 
L 4122 3641 
Q 3803 3938 3442 4084 
Q 3081 4231 2675 4231 
Q 1875 4231 1450 3742 
Q 1025 3253 1025 2328 
Q 1025 1406 1450 917 
Q 1875 428 2675 428 
Q 3081 428 3442 575 
Q 3803 722 4122 1019 
L 4122 359 
Q 3791 134 3420 21 
Q 3050 -91 2638 -91 
Q 1578 -91 968 557 
Q 359 1206 359 2328 
Q 359 3453 968 4101 
Q 1578 4750 2638 4750 
Q 3056 4750 3426 4639 
Q 3797 4528 4122 4306 
z
" transform="scale(0.015625)"/>
      <path id="DejaVuSans-55" d="M 556 4666 
L 1191 4666 
L 1191 1831 
Q 1191 1081 1462 751 
Q 1734 422 2344 422 
Q 2950 422 3222 751 
Q 3494 1081 3494 1831 
L 3494 4666 
L 4128 4666 
L 4128 1753 
Q 4128 841 3676 375 
Q 3225 -91 2344 -91 
Q 1459 -91 1007 375 
Q 556 841 556 1753 
L 556 4666 
z
" transform="scale(0.015625)"/>
      <path id="DejaVuSans-56" d="M 1831 0 
L 50 4666 
L 709 4666 
L 2188 738 
L 3669 4666 
L 4325 4666 
L 2547 0 
L 1831 0 
z
" transform="scale(0.015625)"/>
      <path id="DejaVuSans-45" d="M 628 4666 
L 3578 4666 
L 3578 4134 
L 1259 4134 
L 1259 2753 
L 3481 2753 
L 3481 2222 
L 1259 2222 
L 1259 531 
L 3634 531 
L 3634 0 
L 628 0 
L 628 4666 
z
" transform="scale(0.015625)"/>
     </defs>
     <use xlink:href="#DejaVuSans-52"/>
     <use xlink:href="#DejaVuSans-4f" x="69.482422"/>
     <use xlink:href="#DejaVuSans-43" x="148.193359"/>
     <use xlink:href="#DejaVuSans-20" x="218.017578"/>
     <use xlink:href="#DejaVuSans-43" x="249.804688"/>
     <use xlink:href="#DejaVuSans-55" x="319.628906"/>
     <use xlink:href="#DejaVuSans-52" x="392.822266"/>
     <use xlink:href="#DejaVuSans-56" x="456.804688"/>
     <use xlink:href="#DejaVuSans-45" x="525.212891"/>
    </g>
   </g>
   <g id="legend_1">
    <g id="patch_7">
     <path d="M 234.97 302.584 
L 407.72 302.584 
Q 409.72 302.584 409.72 300.584 
L 409.72 286.905875 
Q 409.72 284.905875 407.72 284.905875 
L 234.97 284.905875 
Q 232.97 284.905875 232.97 286.905875 
L 232.97 300.584 
Q 232.97 302.584 234.97 302.584 
z
" style="fill: #ffffff; opacity: 0.8; stroke: #cccccc; stroke-linejoin: miter"/>
    </g>
    <g id="line2d_15">
     <path d="M 236.97 293.004312 
L 246.97 293.004312 
L 256.97 293.004312 
" style="fill: none; stroke: #ff8c00; stroke-width: 1.5; stroke-linecap: square"/>
    </g>
    <g id="text_16">
     <!-- ROC curve (ROC AUC=0.84) -->
     <g transform="translate(264.97 296.504312)scale(0.1 -0.1)">
      <defs>
       <path id="DejaVuSans-63" d="M 3122 3366 
L 3122 2828 
Q 2878 2963 2633 3030 
Q 2388 3097 2138 3097 
Q 1578 3097 1268 2742 
Q 959 2388 959 1747 
Q 959 1106 1268 751 
Q 1578 397 2138 397 
Q 2388 397 2633 464 
Q 2878 531 3122 666 
L 3122 134 
Q 2881 22 2623 -34 
Q 2366 -91 2075 -91 
Q 1284 -91 818 406 
Q 353 903 353 1747 
Q 353 2603 823 3093 
Q 1294 3584 2113 3584 
Q 2378 3584 2631 3529 
Q 2884 3475 3122 3366 
z
" transform="scale(0.015625)"/>
       <path id="DejaVuSans-28" d="M 1984 4856 
Q 1566 4138 1362 3434 
Q 1159 2731 1159 2009 
Q 1159 1288 1364 580 
Q 1569 -128 1984 -844 
L 1484 -844 
Q 1016 -109 783 600 
Q 550 1309 550 2009 
Q 550 2706 781 3412 
Q 1013 4119 1484 4856 
L 1984 4856 
z
" transform="scale(0.015625)"/>
       <path id="DejaVuSans-41" d="M 2188 4044 
L 1331 1722 
L 3047 1722 
L 2188 4044 
z
M 1831 4666 
L 2547 4666 
L 4325 0 
L 3669 0 
L 3244 1197 
L 1141 1197 
L 716 0 
L 50 0 
L 1831 4666 
z
" transform="scale(0.015625)"/>
       <path id="DejaVuSans-3d" d="M 678 2906 
L 4684 2906 
L 4684 2381 
L 678 2381 
L 678 2906 
z
M 678 1631 
L 4684 1631 
L 4684 1100 
L 678 1100 
L 678 1631 
z
" transform="scale(0.015625)"/>
       <path id="DejaVuSans-29" d="M 513 4856 
L 1013 4856 
Q 1481 4119 1714 3412 
Q 1947 2706 1947 2009 
Q 1947 1309 1714 600 
Q 1481 -109 1013 -844 
L 513 -844 
Q 928 -128 1133 580 
Q 1338 1288 1338 2009 
Q 1338 2731 1133 3434 
Q 928 4138 513 4856 
z
" transform="scale(0.015625)"/>
      </defs>
      <use xlink:href="#DejaVuSans-52"/>
      <use xlink:href="#DejaVuSans-4f" x="69.482422"/>
      <use xlink:href="#DejaVuSans-43" x="148.193359"/>
      <use xlink:href="#DejaVuSans-20" x="218.017578"/>
      <use xlink:href="#DejaVuSans-63" x="249.804688"/>
      <use xlink:href="#DejaVuSans-75" x="304.785156"/>
      <use xlink:href="#DejaVuSans-72" x="368.164062"/>
      <use xlink:href="#DejaVuSans-76" x="409.277344"/>
      <use xlink:href="#DejaVuSans-65" x="468.457031"/>
      <use xlink:href="#DejaVuSans-20" x="529.980469"/>
      <use xlink:href="#DejaVuSans-28" x="561.767578"/>
      <use xlink:href="#DejaVuSans-52" x="600.78125"/>
      <use xlink:href="#DejaVuSans-4f" x="670.263672"/>
      <use xlink:href="#DejaVuSans-43" x="748.974609"/>
      <use xlink:href="#DejaVuSans-20" x="818.798828"/>
      <use xlink:href="#DejaVuSans-41" x="850.585938"/>
      <use xlink:href="#DejaVuSans-55" x="918.994141"/>
      <use xlink:href="#DejaVuSans-43" x="992.1875"/>
      <use xlink:href="#DejaVuSans-3d" x="1062.011719"/>
      <use xlink:href="#DejaVuSans-30" x="1145.800781"/>
      <use xlink:href="#DejaVuSans-2e" x="1209.423828"/>
      <use xlink:href="#DejaVuSans-38" x="1241.210938"/>
      <use xlink:href="#DejaVuSans-34" x="1304.833984"/>
      <use xlink:href="#DejaVuSans-29" x="1368.457031"/>
     </g>
    </g>
   </g>
  </g>
 </g>
 <defs>
  <clipPath id="pfbc5f38d5e">
   <rect x="57.6" y="41.472" width="357.12" height="266.112"/>
  </clipPath>
 </defs>
</svg>
