<?xml version="1.0" encoding="utf-8" standalone="no"?>
<!DOCTYPE svg PUBLIC "-//W3C//DTD SVG 1.1//EN"
  "http://www.w3.org/Graphics/SVG/1.1/DTD/svg11.dtd">
<svg xmlns:xlink="http://www.w3.org/1999/xlink" width="460.8pt" height="345.6pt" viewBox="0 0 460.8 345.6" xmlns="http://www.w3.org/2000/svg" version="1.1">
 <metadata>
  <rdf:RDF xmlns:dc="http://purl.org/dc/elements/1.1/" xmlns:cc="http://creativecommons.org/ns#" xmlns:rdf="http://www.w3.org/1999/02/22-rdf-syntax-ns#">
   <cc:Work>
    <dc:type rdf:resource="http://purl.org/dc/dcmitype/StillImage"/>
    <dc:date>2022-05-22T16:53:14.560885</dc:date>
    <dc:format>image/svg+xml</dc:format>
    <dc:creator>
     <cc:Agent>
      <dc:title>Matplotlib v3.5.1, https://matplotlib.org/</dc:title>
     </cc:Agent>
    </dc:creator>
   </cc:Work>
  </rdf:RDF>
 </metadata>
 <defs>
  <style type="text/css">*{stroke-linejoin: round; stroke-linecap: butt}</style>
 </defs>
 <g id="figure_1">
  <g id="patch_1">
   <path d="M 0 345.6 
L 460.8 345.6 
L 460.8 0 
L 0 0 
z
" style="fill: #ffffff"/>
  </g>
  <g id="axes_1">
   <g id="patch_2">
    <path d="M 57.6 307.584 
L 414.72 307.584 
L 414.72 41.472 
L 57.6 41.472 
z
" style="fill: #ffffff"/>
   </g>
   <g id="matplotlib.axis_1">
    <g id="xtick_1">
     <g id="line2d_1">
      <defs>
       <path id="m6bfbd834ff" d="M 0 0 
L 0 3.5 
" style="stroke: #000000; stroke-width: 0.8"/>
      </defs>
      <g>
       <use xlink:href="#m6bfbd834ff" x="74.605714" y="307.584" style="stroke: #000000; stroke-width: 0.8"/>
      </g>
     </g>
     <g id="text_1">
      <!-- 0.0 -->
      <g transform="translate(66.654152 322.182437)scale(0.1 -0.1)">
       <defs>
        <path id="DejaVuSans-30" d="M 2034 4250 
Q 1547 4250 1301 3770 
Q 1056 3291 1056 2328 
Q 1056 1369 1301 889 
Q 1547 409 2034 409 
Q 2525 409 2770 889 
Q 3016 1369 3016 2328 
Q 3016 3291 2770 3770 
Q 2525 4250 2034 4250 
z
M 2034 4750 
Q 2819 4750 3233 4129 
Q 3647 3509 3647 2328 
Q 3647 1150 3233 529 
Q 2819 -91 2034 -91 
Q 1250 -91 836 529 
Q 422 1150 422 2328 
Q 422 3509 836 4129 
Q 1250 4750 2034 4750 
z
" transform="scale(0.015625)"/>
        <path id="DejaVuSans-2e" d="M 684 794 
L 1344 794 
L 1344 0 
L 684 0 
L 684 794 
z
" transform="scale(0.015625)"/>
       </defs>
       <use xlink:href="#DejaVuSans-30"/>
       <use xlink:href="#DejaVuSans-2e" x="63.623047"/>
       <use xlink:href="#DejaVuSans-30" x="95.410156"/>
      </g>
     </g>
    </g>
    <g id="xtick_2">
     <g id="line2d_2">
      <g>
       <use xlink:href="#m6bfbd834ff" x="142.628571" y="307.584" style="stroke: #000000; stroke-width: 0.8"/>
      </g>
     </g>
     <g id="text_2">
      <!-- 0.2 -->
      <g transform="translate(134.677009 322.182437)scale(0.1 -0.1)">
       <defs>
        <path id="DejaVuSans-32" d="M 1228 531 
L 3431 531 
L 3431 0 
L 469 0 
L 469 531 
Q 828 903 1448 1529 
Q 2069 2156 2228 2338 
Q 2531 2678 2651 2914 
Q 2772 3150 2772 3378 
Q 2772 3750 2511 3984 
Q 2250 4219 1831 4219 
Q 1534 4219 1204 4116 
Q 875 4013 500 3803 
L 500 4441 
Q 881 4594 1212 4672 
Q 1544 4750 1819 4750 
Q 2544 4750 2975 4387 
Q 3406 4025 3406 3419 
Q 3406 3131 3298 2873 
Q 3191 2616 2906 2266 
Q 2828 2175 2409 1742 
Q 1991 1309 1228 531 
z
" transform="scale(0.015625)"/>
       </defs>
       <use xlink:href="#DejaVuSans-30"/>
       <use xlink:href="#DejaVuSans-2e" x="63.623047"/>
       <use xlink:href="#DejaVuSans-32" x="95.410156"/>
      </g>
     </g>
    </g>
    <g id="xtick_3">
     <g id="line2d_3">
      <g>
       <use xlink:href="#m6bfbd834ff" x="210.651429" y="307.584" style="stroke: #000000; stroke-width: 0.8"/>
      </g>
     </g>
     <g id="text_3">
      <!-- 0.4 -->
      <g transform="translate(202.699866 322.182437)scale(0.1 -0.1)">
       <defs>
        <path id="DejaVuSans-34" d="M 2419 4116 
L 825 1625 
L 2419 1625 
L 2419 4116 
z
M 2253 4666 
L 3047 4666 
L 3047 1625 
L 3713 1625 
L 3713 1100 
L 3047 1100 
L 3047 0 
L 2419 0 
L 2419 1100 
L 313 1100 
L 313 1709 
L 2253 4666 
z
" transform="scale(0.015625)"/>
       </defs>
       <use xlink:href="#DejaVuSans-30"/>
       <use xlink:href="#DejaVuSans-2e" x="63.623047"/>
       <use xlink:href="#DejaVuSans-34" x="95.410156"/>
      </g>
     </g>
    </g>
    <g id="xtick_4">
     <g id="line2d_4">
      <g>
       <use xlink:href="#m6bfbd834ff" x="278.674286" y="307.584" style="stroke: #000000; stroke-width: 0.8"/>
      </g>
     </g>
     <g id="text_4">
      <!-- 0.6 -->
      <g transform="translate(270.722723 322.182437)scale(0.1 -0.1)">
       <defs>
        <path id="DejaVuSans-36" d="M 2113 2584 
Q 1688 2584 1439 2293 
Q 1191 2003 1191 1497 
Q 1191 994 1439 701 
Q 1688 409 2113 409 
Q 2538 409 2786 701 
Q 3034 994 3034 1497 
Q 3034 2003 2786 2293 
Q 2538 2584 2113 2584 
z
M 3366 4563 
L 3366 3988 
Q 3128 4100 2886 4159 
Q 2644 4219 2406 4219 
Q 1781 4219 1451 3797 
Q 1122 3375 1075 2522 
Q 1259 2794 1537 2939 
Q 1816 3084 2150 3084 
Q 2853 3084 3261 2657 
Q 3669 2231 3669 1497 
Q 3669 778 3244 343 
Q 2819 -91 2113 -91 
Q 1303 -91 875 529 
Q 447 1150 447 2328 
Q 447 3434 972 4092 
Q 1497 4750 2381 4750 
Q 2619 4750 2861 4703 
Q 3103 4656 3366 4563 
z
" transform="scale(0.015625)"/>
       </defs>
       <use xlink:href="#DejaVuSans-30"/>
       <use xlink:href="#DejaVuSans-2e" x="63.623047"/>
       <use xlink:href="#DejaVuSans-36" x="95.410156"/>
      </g>
     </g>
    </g>
    <g id="xtick_5">
     <g id="line2d_5">
      <g>
       <use xlink:href="#m6bfbd834ff" x="346.697143" y="307.584" style="stroke: #000000; stroke-width: 0.8"/>
      </g>
     </g>
     <g id="text_5">
      <!-- 0.8 -->
      <g transform="translate(338.74558 322.182437)scale(0.1 -0.1)">
       <defs>
        <path id="DejaVuSans-38" d="M 2034 2216 
Q 1584 2216 1326 1975 
Q 1069 1734 1069 1313 
Q 1069 891 1326 650 
Q 1584 409 2034 409 
Q 2484 409 2743 651 
Q 3003 894 3003 1313 
Q 3003 1734 2745 1975 
Q 2488 2216 2034 2216 
z
M 1403 2484 
Q 997 2584 770 2862 
Q 544 3141 544 3541 
Q 544 4100 942 4425 
Q 1341 4750 2034 4750 
Q 2731 4750 3128 4425 
Q 3525 4100 3525 3541 
Q 3525 3141 3298 2862 
Q 3072 2584 2669 2484 
Q 3125 2378 3379 2068 
Q 3634 1759 3634 1313 
Q 3634 634 3220 271 
Q 2806 -91 2034 -91 
Q 1263 -91 848 271 
Q 434 634 434 1313 
Q 434 1759 690 2068 
Q 947 2378 1403 2484 
z
M 1172 3481 
Q 1172 3119 1398 2916 
Q 1625 2713 2034 2713 
Q 2441 2713 2670 2916 
Q 2900 3119 2900 3481 
Q 2900 3844 2670 4047 
Q 2441 4250 2034 4250 
Q 1625 4250 1398 4047 
Q 1172 3844 1172 3481 
z
" transform="scale(0.015625)"/>
       </defs>
       <use xlink:href="#DejaVuSans-30"/>
       <use xlink:href="#DejaVuSans-2e" x="63.623047"/>
       <use xlink:href="#DejaVuSans-38" x="95.410156"/>
      </g>
     </g>
    </g>
    <g id="xtick_6">
     <g id="line2d_6">
      <g>
       <use xlink:href="#m6bfbd834ff" x="414.72" y="307.584" style="stroke: #000000; stroke-width: 0.8"/>
      </g>
     </g>
     <g id="text_6">
      <!-- 1.0 -->
      <g transform="translate(406.768438 322.182437)scale(0.1 -0.1)">
       <defs>
        <path id="DejaVuSans-31" d="M 794 531 
L 1825 531 
L 1825 4091 
L 703 3866 
L 703 4441 
L 1819 4666 
L 2450 4666 
L 2450 531 
L 3481 531 
L 3481 0 
L 794 0 
L 794 531 
z
" transform="scale(0.015625)"/>
       </defs>
       <use xlink:href="#DejaVuSans-31"/>
       <use xlink:href="#DejaVuSans-2e" x="63.623047"/>
       <use xlink:href="#DejaVuSans-30" x="95.410156"/>
      </g>
     </g>
    </g>
    <g id="text_7">
     <!-- False Positive Rate -->
     <g transform="translate(189.693594 335.860562)scale(0.1 -0.1)">
      <defs>
       <path id="DejaVuSans-46" d="M 628 4666 
L 3309 4666 
L 3309 4134 
L 1259 4134 
L 1259 2759 
L 3109 2759 
L 3109 2228 
L 1259 2228 
L 1259 0 
L 628 0 
L 628 4666 
z
" transform="scale(0.015625)"/>
       <path id="DejaVuSans-61" d="M 2194 1759 
Q 1497 1759 1228 1600 
Q 959 1441 959 1056 
Q 959 750 1161 570 
Q 1363 391 1709 391 
Q 2188 391 2477 730 
Q 2766 1069 2766 1631 
L 2766 1759 
L 2194 1759 
z
M 3341 1997 
L 3341 0 
L 2766 0 
L 2766 531 
Q 2569 213 2275 61 
Q 1981 -91 1556 -91 
Q 1019 -91 701 211 
Q 384 513 384 1019 
Q 384 1609 779 1909 
Q 1175 2209 1959 2209 
L 2766 2209 
L 2766 2266 
Q 2766 2663 2505 2880 
Q 2244 3097 1772 3097 
Q 1472 3097 1187 3025 
Q 903 2953 641 2809 
L 641 3341 
Q 956 3463 1253 3523 
Q 1550 3584 1831 3584 
Q 2591 3584 2966 3190 
Q 3341 2797 3341 1997 
z
" transform="scale(0.015625)"/>
       <path id="DejaVuSans-6c" d="M 603 4863 
L 1178 4863 
L 1178 0 
L 603 0 
L 603 4863 
z
" transform="scale(0.015625)"/>
       <path id="DejaVuSans-73" d="M 2834 3397 
L 2834 2853 
Q 2591 2978 2328 3040 
Q 2066 3103 1784 3103 
Q 1356 3103 1142 2972 
Q 928 2841 928 2578 
Q 928 2378 1081 2264 
Q 1234 2150 1697 2047 
L 1894 2003 
Q 2506 1872 2764 1633 
Q 3022 1394 3022 966 
Q 3022 478 2636 193 
Q 2250 -91 1575 -91 
Q 1294 -91 989 -36 
Q 684 19 347 128 
L 347 722 
Q 666 556 975 473 
Q 1284 391 1588 391 
Q 1994 391 2212 530 
Q 2431 669 2431 922 
Q 2431 1156 2273 1281 
Q 2116 1406 1581 1522 
L 1381 1569 
Q 847 1681 609 1914 
Q 372 2147 372 2553 
Q 372 3047 722 3315 
Q 1072 3584 1716 3584 
Q 2034 3584 2315 3537 
Q 2597 3491 2834 3397 
z
" transform="scale(0.015625)"/>
       <path id="DejaVuSans-65" d="M 3597 1894 
L 3597 1613 
L 953 1613 
Q 991 1019 1311 708 
Q 1631 397 2203 397 
Q 2534 397 2845 478 
Q 3156 559 3463 722 
L 3463 178 
Q 3153 47 2828 -22 
Q 2503 -91 2169 -91 
Q 1331 -91 842 396 
Q 353 884 353 1716 
Q 353 2575 817 3079 
Q 1281 3584 2069 3584 
Q 2775 3584 3186 3129 
Q 3597 2675 3597 1894 
z
M 3022 2063 
Q 3016 2534 2758 2815 
Q 2500 3097 2075 3097 
Q 1594 3097 1305 2825 
Q 1016 2553 972 2059 
L 3022 2063 
z
" transform="scale(0.015625)"/>
       <path id="DejaVuSans-20" transform="scale(0.015625)"/>
       <path id="DejaVuSans-50" d="M 1259 4147 
L 1259 2394 
L 2053 2394 
Q 2494 2394 2734 2622 
Q 2975 2850 2975 3272 
Q 2975 3691 2734 3919 
Q 2494 4147 2053 4147 
L 1259 4147 
z
M 628 4666 
L 2053 4666 
Q 2838 4666 3239 4311 
Q 3641 3956 3641 3272 
Q 3641 2581 3239 2228 
Q 2838 1875 2053 1875 
L 1259 1875 
L 1259 0 
L 628 0 
L 628 4666 
z
" transform="scale(0.015625)"/>
       <path id="DejaVuSans-6f" d="M 1959 3097 
Q 1497 3097 1228 2736 
Q 959 2375 959 1747 
Q 959 1119 1226 758 
Q 1494 397 1959 397 
Q 2419 397 2687 759 
Q 2956 1122 2956 1747 
Q 2956 2369 2687 2733 
Q 2419 3097 1959 3097 
z
M 1959 3584 
Q 2709 3584 3137 3096 
Q 3566 2609 3566 1747 
Q 3566 888 3137 398 
Q 2709 -91 1959 -91 
Q 1206 -91 779 398 
Q 353 888 353 1747 
Q 353 2609 779 3096 
Q 1206 3584 1959 3584 
z
" transform="scale(0.015625)"/>
       <path id="DejaVuSans-69" d="M 603 3500 
L 1178 3500 
L 1178 0 
L 603 0 
L 603 3500 
z
M 603 4863 
L 1178 4863 
L 1178 4134 
L 603 4134 
L 603 4863 
z
" transform="scale(0.015625)"/>
       <path id="DejaVuSans-74" d="M 1172 4494 
L 1172 3500 
L 2356 3500 
L 2356 3053 
L 1172 3053 
L 1172 1153 
Q 1172 725 1289 603 
Q 1406 481 1766 481 
L 2356 481 
L 2356 0 
L 1766 0 
Q 1100 0 847 248 
Q 594 497 594 1153 
L 594 3053 
L 172 3053 
L 172 3500 
L 594 3500 
L 594 4494 
L 1172 4494 
z
" transform="scale(0.015625)"/>
       <path id="DejaVuSans-76" d="M 191 3500 
L 800 3500 
L 1894 563 
L 2988 3500 
L 3597 3500 
L 2284 0 
L 1503 0 
L 191 3500 
z
" transform="scale(0.015625)"/>
       <path id="DejaVuSans-52" d="M 2841 2188 
Q 3044 2119 3236 1894 
Q 3428 1669 3622 1275 
L 4263 0 
L 3584 0 
L 2988 1197 
Q 2756 1666 2539 1819 
Q 2322 1972 1947 1972 
L 1259 1972 
L 1259 0 
L 628 0 
L 628 4666 
L 2053 4666 
Q 2853 4666 3247 4331 
Q 3641 3997 3641 3322 
Q 3641 2881 3436 2590 
Q 3231 2300 2841 2188 
z
M 1259 4147 
L 1259 2491 
L 2053 2491 
Q 2509 2491 2742 2702 
Q 2975 2913 2975 3322 
Q 2975 3731 2742 3939 
Q 2509 4147 2053 4147 
L 1259 4147 
z
" transform="scale(0.015625)"/>
      </defs>
      <use xlink:href="#DejaVuSans-46"/>
      <use xlink:href="#DejaVuSans-61" x="48.394531"/>
      <use xlink:href="#DejaVuSans-6c" x="109.673828"/>
      <use xlink:href="#DejaVuSans-73" x="137.457031"/>
      <use xlink:href="#DejaVuSans-65" x="189.556641"/>
      <use xlink:href="#DejaVuSans-20" x="251.080078"/>
      <use xlink:href="#DejaVuSans-50" x="282.867188"/>
      <use xlink:href="#DejaVuSans-6f" x="339.544922"/>
      <use xlink:href="#DejaVuSans-73" x="400.726562"/>
      <use xlink:href="#DejaVuSans-69" x="452.826172"/>
      <use xlink:href="#DejaVuSans-74" x="480.609375"/>
      <use xlink:href="#DejaVuSans-69" x="519.818359"/>
      <use xlink:href="#DejaVuSans-76" x="547.601562"/>
      <use xlink:href="#DejaVuSans-65" x="606.78125"/>
      <use xlink:href="#DejaVuSans-20" x="668.304688"/>
      <use xlink:href="#DejaVuSans-52" x="700.091797"/>
      <use xlink:href="#DejaVuSans-61" x="767.324219"/>
      <use xlink:href="#DejaVuSans-74" x="828.603516"/>
      <use xlink:href="#DejaVuSans-65" x="867.8125"/>
     </g>
    </g>
   </g>
   <g id="matplotlib.axis_2">
    <g id="ytick_1">
     <g id="line2d_7">
      <defs>
       <path id="m2a630d78da" d="M 0 0 
L -3.5 0 
" style="stroke: #000000; stroke-width: 0.8"/>
      </defs>
      <g>
       <use xlink:href="#m2a630d78da" x="57.6" y="307.584" style="stroke: #000000; stroke-width: 0.8"/>
      </g>
     </g>
     <g id="text_8">
      <!-- 0.0 -->
      <g transform="translate(34.696875 311.383219)scale(0.1 -0.1)">
       <use xlink:href="#DejaVuSans-30"/>
       <use xlink:href="#DejaVuSans-2e" x="63.623047"/>
       <use xlink:href="#DejaVuSans-30" x="95.410156"/>
      </g>
     </g>
    </g>
    <g id="ytick_2">
     <g id="line2d_8">
      <g>
       <use xlink:href="#m2a630d78da" x="57.6" y="256.896" style="stroke: #000000; stroke-width: 0.8"/>
      </g>
     </g>
     <g id="text_9">
      <!-- 0.2 -->
      <g transform="translate(34.696875 260.695219)scale(0.1 -0.1)">
       <use xlink:href="#DejaVuSans-30"/>
       <use xlink:href="#DejaVuSans-2e" x="63.623047"/>
       <use xlink:href="#DejaVuSans-32" x="95.410156"/>
      </g>
     </g>
    </g>
    <g id="ytick_3">
     <g id="line2d_9">
      <g>
       <use xlink:href="#m2a630d78da" x="57.6" y="206.208" style="stroke: #000000; stroke-width: 0.8"/>
      </g>
     </g>
     <g id="text_10">
      <!-- 0.4 -->
      <g transform="translate(34.696875 210.007219)scale(0.1 -0.1)">
       <use xlink:href="#DejaVuSans-30"/>
       <use xlink:href="#DejaVuSans-2e" x="63.623047"/>
       <use xlink:href="#DejaVuSans-34" x="95.410156"/>
      </g>
     </g>
    </g>
    <g id="ytick_4">
     <g id="line2d_10">
      <g>
       <use xlink:href="#m2a630d78da" x="57.6" y="155.52" style="stroke: #000000; stroke-width: 0.8"/>
      </g>
     </g>
     <g id="text_11">
      <!-- 0.6 -->
      <g transform="translate(34.696875 159.319219)scale(0.1 -0.1)">
       <use xlink:href="#DejaVuSans-30"/>
       <use xlink:href="#DejaVuSans-2e" x="63.623047"/>
       <use xlink:href="#DejaVuSans-36" x="95.410156"/>
      </g>
     </g>
    </g>
    <g id="ytick_5">
     <g id="line2d_11">
      <g>
       <use xlink:href="#m2a630d78da" x="57.6" y="104.832" style="stroke: #000000; stroke-width: 0.8"/>
      </g>
     </g>
     <g id="text_12">
      <!-- 0.8 -->
      <g transform="translate(34.696875 108.631219)scale(0.1 -0.1)">
       <use xlink:href="#DejaVuSans-30"/>
       <use xlink:href="#DejaVuSans-2e" x="63.623047"/>
       <use xlink:href="#DejaVuSans-38" x="95.410156"/>
      </g>
     </g>
    </g>
    <g id="ytick_6">
     <g id="line2d_12">
      <g>
       <use xlink:href="#m2a630d78da" x="57.6" y="54.144" style="stroke: #000000; stroke-width: 0.8"/>
      </g>
     </g>
     <g id="text_13">
      <!-- 1.0 -->
      <g transform="translate(34.696875 57.943219)scale(0.1 -0.1)">
       <use xlink:href="#DejaVuSans-31"/>
       <use xlink:href="#DejaVuSans-2e" x="63.623047"/>
       <use xlink:href="#DejaVuSans-30" x="95.410156"/>
      </g>
     </g>
    </g>
    <g id="text_14">
     <!-- True Positive Rate -->
     <g transform="translate(28.617187 219.057687)rotate(-90)scale(0.1 -0.1)">
      <defs>
       <path id="DejaVuSans-54" d="M -19 4666 
L 3928 4666 
L 3928 4134 
L 2272 4134 
L 2272 0 
L 1638 0 
L 1638 4134 
L -19 4134 
L -19 4666 
z
" transform="scale(0.015625)"/>
       <path id="DejaVuSans-72" d="M 2631 2963 
Q 2534 3019 2420 3045 
Q 2306 3072 2169 3072 
Q 1681 3072 1420 2755 
Q 1159 2438 1159 1844 
L 1159 0 
L 581 0 
L 581 3500 
L 1159 3500 
L 1159 2956 
Q 1341 3275 1631 3429 
Q 1922 3584 2338 3584 
Q 2397 3584 2469 3576 
Q 2541 3569 2628 3553 
L 2631 2963 
z
" transform="scale(0.015625)"/>
       <path id="DejaVuSans-75" d="M 544 1381 
L 544 3500 
L 1119 3500 
L 1119 1403 
Q 1119 906 1312 657 
Q 1506 409 1894 409 
Q 2359 409 2629 706 
Q 2900 1003 2900 1516 
L 2900 3500 
L 3475 3500 
L 3475 0 
L 2900 0 
L 2900 538 
Q 2691 219 2414 64 
Q 2138 -91 1772 -91 
Q 1169 -91 856 284 
Q 544 659 544 1381 
z
M 1991 3584 
L 1991 3584 
z
" transform="scale(0.015625)"/>
      </defs>
      <use xlink:href="#DejaVuSans-54"/>
      <use xlink:href="#DejaVuSans-72" x="46.333984"/>
      <use xlink:href="#DejaVuSans-75" x="87.447266"/>
      <use xlink:href="#DejaVuSans-65" x="150.826172"/>
      <use xlink:href="#DejaVuSans-20" x="212.349609"/>
      <use xlink:href="#DejaVuSans-50" x="244.136719"/>
      <use xlink:href="#DejaVuSans-6f" x="300.814453"/>
      <use xlink:href="#DejaVuSans-73" x="361.996094"/>
      <use xlink:href="#DejaVuSans-69" x="414.095703"/>
      <use xlink:href="#DejaVuSans-74" x="441.878906"/>
      <use xlink:href="#DejaVuSans-69" x="481.087891"/>
      <use xlink:href="#DejaVuSans-76" x="508.871094"/>
      <use xlink:href="#DejaVuSans-65" x="568.050781"/>
      <use xlink:href="#DejaVuSans-20" x="629.574219"/>
      <use xlink:href="#DejaVuSans-52" x="661.361328"/>
      <use xlink:href="#DejaVuSans-61" x="728.59375"/>
      <use xlink:href="#DejaVuSans-74" x="789.873047"/>
      <use xlink:href="#DejaVuSans-65" x="829.082031"/>
     </g>
    </g>
   </g>
   <g id="line2d_13">
    <path d="M 74.605714 307.584 
L 74.624873 307.474303 
L 74.735638 306.193122 
L 74.73597 306.193122 
L 74.754051 306.083424 
L 74.86382 305.284497 
L 74.864898 305.284497 
L 74.880823 305.1748 
L 74.991754 304.429686 
L 74.991878 304.429686 
L 75.009337 304.319989 
L 75.120433 303.670084 
L 75.136109 303.564527 
L 75.136109 303.560387 
L 75.247164 302.869088 
L 75.247205 302.869088 
L 75.26624 302.75939 
L 75.377046 302.15916 
L 75.377295 302.15916 
L 75.398776 302.049463 
L 75.50921 301.428535 
L 75.509873 301.428535 
L 75.53235 301.318838 
L 75.64328 300.648235 
L 75.643405 300.648235 
L 75.665632 300.538538 
L 75.775361 299.975564 
L 75.776688 299.975564 
L 75.792612 299.867936 
L 75.903045 299.290473 
L 75.903667 299.290473 
L 75.928839 299.182846 
L 76.039728 298.518453 
L 76.039811 298.518453 
L 76.058556 298.408755 
L 76.169528 297.725735 
L 76.169652 297.725735 
L 76.19047 297.616038 
L 76.301028 296.976482 
L 76.301484 296.976482 
L 76.31944 296.868854 
L 76.31944 296.866785 
L 76.430246 296.21688 
L 76.430537 296.21688 
L 76.449032 296.107183 
L 76.560046 295.457278 
L 76.560129 295.457278 
L 76.57738 295.349651 
L 76.687772 294.743211 
L 76.688311 294.743211 
L 76.710497 294.633514 
L 76.821221 294.070539 
L 76.821552 294.070539 
L 76.847305 293.960842 
L 76.958402 293.346123 
L 76.977975 293.236426 
L 77.088947 292.6838 
L 77.08903 292.6838 
L 77.105577 292.574103 
L 77.216342 291.984221 
L 77.216632 291.984221 
L 77.235169 291.875559 
L 77.346058 291.247387 
L 77.346224 291.247387 
L 77.366295 291.13976 
L 77.366295 291.13769 
L 77.476853 290.53332 
L 77.477392 290.53332 
L 77.503725 290.423623 
L 77.614635 289.786137 
L 77.614801 289.786137 
L 77.636884 289.676439 
L 77.746944 289.098977 
L 77.747939 289.098977 
L 77.768176 288.989279 
L 77.879231 288.415956 
L 77.879273 288.415956 
L 77.903449 288.306259 
L 78.013634 287.654284 
L 78.014505 287.654284 
L 78.041149 287.544587 
L 78.158777 286.892613 
L 78.181668 286.784985 
L 78.292412 286.14336 
L 78.292723 286.14336 
L 78.31153 286.032628 
L 78.435834 285.373409 
L 78.450639 285.263712 
L 78.561445 284.686249 
L 78.561736 284.686249 
L 78.581102 284.576552 
L 78.691908 283.972182 
L 78.712519 283.862485 
L 78.823532 283.202231 
L 78.823615 283.202231 
L 78.843604 283.092534 
L 78.954451 282.494373 
L 78.954617 282.494373 
L 78.979686 282.384676 
L 79.113425 281.633353 
L 79.134844 281.523656 
L 79.245443 280.904798 
L 79.245899 280.904798 
L 79.270822 280.795101 
L 79.381794 280.273521 
L 79.381919 280.273521 
L 79.398507 280.163824 
L 79.509562 279.609129 
L 79.509603 279.609129 
L 79.529571 279.498396 
L 79.695428 278.590807 
L 79.710647 278.481109 
L 79.820707 277.868461 
L 79.821744 277.868461 
L 79.839037 277.757728 
L 79.949719 277.129556 
L 79.95005 277.129556 
L 79.969914 277.019859 
L 80.080099 276.440326 
L 80.08099 276.440326 
L 80.095774 276.330629 
L 80.206871 275.740748 
L 80.231379 275.63105 
L 80.341315 275.061867 
L 80.342476 275.061867 
L 80.359561 274.952169 
L 80.469787 274.397474 
L 80.470658 274.397474 
L 80.491932 274.287776 
L 80.608876 273.699965 
L 80.633301 273.590267 
L 80.744274 272.96934 
L 80.759659 272.859642 
L 80.870299 272.298737 
L 80.870756 272.298737 
L 80.89091 272.18904 
L 81.001965 271.563973 
L 81.021995 271.454275 
L 81.132096 270.89544 
L 81.13305 270.89544 
L 81.153868 270.785743 
L 81.264384 270.195862 
L 81.264881 270.195862 
L 81.284559 270.086164 
L 81.401772 269.467306 
L 81.427649 269.357609 
L 81.538663 268.780146 
L 81.538746 268.780146 
L 81.563524 268.669414 
L 81.674227 268.155079 
L 81.674517 268.155079 
L 81.695106 268.045381 
L 81.81232 267.428593 
L 81.835626 267.318896 
L 81.835626 267.317861 
L 81.977016 266.563433 
L 81.997647 266.453736 
L 82.108536 265.921808 
L 82.108744 265.921808 
L 82.130391 265.812111 
L 82.24128 265.292601 
L 82.241467 265.292601 
L 82.265871 265.182904 
L 82.376263 264.644766 
L 82.376968 264.644766 
L 82.405209 264.534034 
L 82.515808 263.976234 
L 82.516306 263.976234 
L 82.533474 263.866537 
L 82.644031 263.289074 
L 82.644571 263.289074 
L 82.668457 263.179376 
L 82.779388 262.587425 
L 82.779471 262.587425 
L 82.799832 262.477728 
L 82.910183 261.958218 
L 82.910846 261.958218 
L 82.930378 261.850591 
L 83.041433 261.310383 
L 83.041475 261.310383 
L 83.060468 261.200686 
L 83.060468 261.199651 
L 83.197773 260.546642 
L 83.229 260.436945 
L 83.340014 259.900877 
L 83.340097 259.900877 
L 83.366554 259.79118 
L 83.47707 259.244763 
L 83.477651 259.244763 
L 83.50303 259.135066 
L 83.613588 258.58244 
L 83.614085 258.58244 
L 83.636106 258.472743 
L 83.747036 257.924257 
L 83.747161 257.924257 
L 83.770881 257.814559 
L 83.892221 257.301259 
L 83.916439 257.190527 
L 84.027453 256.661703 
L 84.027536 256.661703 
L 84.048934 256.552006 
L 84.048934 256.550971 
L 84.183378 255.970403 
L 84.208965 255.860706 
L 84.31973 255.370173 
L 84.319813 255.370173 
L 84.343367 255.260476 
L 84.477936 254.676804 
L 84.498173 254.567106 
L 84.609228 254.045527 
L 84.609249 254.045527 
L 84.63722 253.93583 
L 84.63722 253.934795 
L 84.761463 253.277646 
L 84.786552 253.167949 
L 84.786552 253.166914 
L 84.924189 252.505626 
L 84.952429 252.395929 
L 85.074308 251.857791 
L 85.103689 251.747059 
L 85.226501 251.162352 
L 85.255032 251.05162 
L 85.365839 250.508308 
L 85.366087 250.508308 
L 85.390513 250.39861 
L 85.50161 249.895659 
L 85.52562 249.785962 
L 85.636634 249.270591 
L 85.636717 249.270591 
L 85.663838 249.160894 
L 85.780036 248.647594 
L 85.801102 248.536862 
L 85.912116 248.065991 
L 85.912199 248.065991 
L 85.937371 247.956294 
L 86.047845 247.411947 
L 86.048467 247.411947 
L 86.078201 247.30225 
L 86.188551 246.86967 
L 86.189298 246.86967 
L 86.217621 246.758938 
L 86.328635 246.248742 
L 86.360981 246.141115 
L 86.471705 245.654721 
L 86.472037 245.654721 
L 86.495529 245.543989 
L 86.615894 245.081398 
L 86.644218 244.97377 
L 86.644218 244.970666 
L 86.776899 244.433563 
L 86.806198 244.323866 
L 86.916714 243.870589 
L 86.917294 243.870589 
L 86.942715 243.760891 
L 87.053107 243.309684 
L 87.05377 243.309684 
L 87.082716 243.199986 
L 87.203392 242.717732 
L 87.229393 242.608035 
L 87.339744 242.156828 
L 87.34049 242.156828 
L 87.360748 242.046095 
L 87.482316 241.523481 
L 87.511261 241.413784 
L 87.621404 240.956367 
L 87.622358 240.956367 
L 87.652838 240.845635 
L 87.763645 240.40995 
L 87.763935 240.40995 
L 87.788526 240.299218 
L 87.922224 239.737279 
L 87.956498 239.627581 
L 88.072509 239.126699 
L 88.102616 239.017002 
L 88.213236 238.598911 
L 88.213713 238.598911 
L 88.24185 238.489213 
L 88.357674 238.013169 
L 88.384857 237.903471 
L 88.384857 237.902437 
L 88.493466 237.504008 
L 88.495871 237.504008 
L 88.524278 237.39638 
L 88.524278 237.393276 
L 88.646198 236.852034 
L 88.667596 236.742336 
L 88.77832 236.307687 
L 88.778693 236.307687 
L 88.811329 236.197989 
L 88.922302 235.792317 
L 88.922426 235.792317 
L 88.958007 235.682619 
L 89.068938 235.322481 
L 89.069083 235.322481 
L 89.106219 235.212784 
L 89.216403 234.763646 
L 89.217315 234.763646 
L 89.245805 234.652914 
L 89.356673 234.182044 
L 89.356819 234.182044 
L 89.383629 234.072346 
L 89.494705 233.681162 
L 89.534474 233.571464 
L 89.64528 233.130606 
L 89.645571 233.130606 
L 89.677129 233.020908 
L 89.787728 232.650421 
L 89.788205 232.650421 
L 89.819576 232.540724 
L 89.940004 232.075028 
L 89.966834 231.965331 
L 90.07789 231.578286 
L 90.110899 231.468589 
L 90.235971 231.004963 
L 90.264979 230.89423 
L 90.385178 230.437848 
L 90.422294 230.328151 
L 90.532893 229.926618 
L 90.533224 229.926618 
L 90.565799 229.81692 
L 90.681312 229.376062 
L 90.716354 229.266364 
L 90.827119 228.879319 
L 90.827409 228.879319 
L 90.861165 228.771692 
L 90.972013 228.428112 
L 90.972179 228.428112 
L 91.006764 228.318414 
L 91.138388 227.807184 
L 91.171999 227.697487 
L 91.308393 227.194535 
L 91.347768 227.084838 
L 91.468154 226.619142 
L 91.50334 226.50841 
L 91.614416 226.11412 
L 91.614437 226.11412 
L 91.645809 226.004423 
L 91.756657 225.625657 
L 91.756906 225.625657 
L 91.783902 225.514925 
L 91.893402 225.188938 
L 91.894957 225.188938 
L 91.931368 225.079241 
L 91.931368 225.078206 
L 92.041573 224.696335 
L 92.042423 224.696335 
L 92.081321 224.586638 
L 92.192252 224.201663 
L 92.192376 224.201663 
L 92.226174 224.091965 
L 92.337271 223.694571 
L 92.372561 223.583839 
L 92.501531 223.139876 
L 92.530145 223.030179 
L 92.640952 222.638994 
L 92.641242 222.638994 
L 92.676035 222.529297 
L 92.786551 222.144321 
L 92.787049 222.144321 
L 92.822837 222.034624 
L 92.933768 221.651719 
L 92.933933 221.651719 
L 92.971878 221.542021 
L 93.091061 221.134279 
L 93.124548 221.023547 
L 93.235334 220.656164 
L 93.235582 220.656164 
L 93.270562 220.545432 
L 93.381389 220.219445 
L 93.381659 220.219445 
L 93.416597 220.109748 
L 93.52761 219.710284 
L 93.527693 219.710284 
L 93.56767 219.600587 
L 93.678393 219.215612 
L 93.678601 219.215612 
L 93.724176 219.110054 
L 93.724176 219.105914 
L 93.834775 218.770613 
L 93.835252 218.770613 
L 93.866955 218.660916 
L 93.987424 218.19315 
L 94.022134 218.083453 
L 94.140633 217.715036 
L 94.169558 217.605339 
L 94.280157 217.210014 
L 94.280654 217.210014 
L 94.320589 217.100317 
L 94.435481 216.721551 
L 94.472036 216.613924 
L 94.472036 216.610819 
L 94.581723 216.311739 
L 94.583091 216.311739 
L 94.61523 216.202041 
L 94.726016 215.889508 
L 94.726265 215.889508 
L 94.762944 215.778776 
L 94.87118 215.417603 
L 94.873958 215.417603 
L 94.905682 215.307905 
L 94.905682 215.30687 
L 95.024202 214.937418 
L 95.049498 214.827721 
L 95.049498 214.826686 
L 95.179339 214.359955 
L 95.218486 214.249223 
L 95.329127 213.904608 
L 95.329583 213.904608 
L 95.37014 213.794911 
L 95.478376 213.447191 
L 95.481113 213.447191 
L 95.520011 213.337494 
L 95.629366 212.989774 
L 95.631108 212.989774 
L 95.667352 212.880077 
L 95.778407 212.577892 
L 95.80839 212.468195 
L 95.80839 212.46716 
L 95.9193 212.041825 
L 95.919445 212.041825 
L 95.951376 211.931092 
L 96.061892 211.607175 
L 96.062432 211.607175 
L 96.09457 211.496443 
L 96.212675 211.145619 
L 96.250288 211.034886 
L 96.360576 210.675783 
L 96.361385 210.675783 
L 96.407292 210.566086 
L 96.517932 210.193529 
L 96.518347 210.193529 
L 96.550486 210.083832 
L 96.667865 209.771298 
L 96.708236 209.660566 
L 96.817839 209.342858 
L 96.819208 209.342858 
L 96.863995 209.232126 
L 96.973889 208.916487 
L 96.975092 208.916487 
L 97.014653 208.80679 
L 97.125211 208.498396 
L 97.125667 208.498396 
L 97.164275 208.387664 
L 97.297289 208.024421 
L 97.33459 207.914724 
L 97.445065 207.550446 
L 97.445666 207.550446 
L 97.477204 207.440749 
L 97.587471 207.117866 
L 97.588301 207.117866 
L 97.627158 207.008169 
L 97.744371 206.703914 
L 97.781051 206.594217 
L 97.781051 206.593182 
L 97.899322 206.236149 
L 97.939547 206.126451 
L 98.053671 205.820127 
L 98.09485 205.71043 
L 98.204039 205.404105 
L 98.205905 205.404105 
L 98.244431 205.294408 
L 98.355403 205.000502 
L 98.355527 205.000502 
L 98.392891 204.892875 
L 98.392891 204.890805 
L 98.503988 204.556539 
L 98.627567 204.24711 
L 98.665097 204.136378 
L 98.775945 203.829018 
L 98.776194 203.829018 
L 98.817746 203.719321 
L 98.941408 203.406787 
L 98.989886 203.29709 
L 99.098743 202.982487 
L 99.100941 202.982487 
L 99.134448 202.871754 
L 99.244923 202.587162 
L 99.245545 202.587162 
L 99.28886 202.477465 
L 99.402963 202.17528 
L 99.443313 202.065583 
L 99.557623 201.74477 
L 99.591027 201.634038 
L 99.701916 201.301842 
L 99.702103 201.301842 
L 99.738679 201.19111 
L 99.849216 200.925145 
L 99.849714 200.925145 
L 99.887078 200.814413 
L 99.997013 200.536031 
L 99.997925 200.536031 
L 100.039789 200.425298 
L 100.156297 200.155195 
L 100.196232 200.045498 
L 100.196232 200.044463 
L 100.313467 199.735034 
L 100.347347 199.625336 
L 100.463959 199.350058 
L 100.501614 199.240361 
L 100.611632 198.973362 
L 100.61242 198.973362 
L 100.656274 198.86263 
L 100.766915 198.544922 
L 100.767329 198.544922 
L 100.811888 198.435225 
L 100.922073 198.195132 
L 100.922943 198.195132 
L 100.968311 198.085435 
L 101.078765 197.810157 
L 101.079387 197.810157 
L 101.123946 197.70046 
L 101.235001 197.472786 
L 101.276097 197.363089 
L 101.392668 197.089881 
L 101.428643 196.980184 
L 101.542373 196.702836 
L 101.606236 196.593138 
L 101.715632 196.330279 
L 101.717333 196.330279 
L 101.760316 196.220582 
L 101.881738 195.879071 
L 101.926463 195.769374 
L 102.036938 195.467189 
L 102.03756 195.467189 
L 102.07567 195.357492 
L 102.186477 195.086353 
L 102.186725 195.086353 
L 102.231139 194.976656 
L 102.341158 194.738634 
L 102.34207 194.738634 
L 102.391875 194.628937 
L 102.505667 194.357798 
L 102.553191 194.248101 
L 102.553191 194.247066 
L 102.675588 193.966613 
L 102.720479 193.856916 
L 102.836137 193.629243 
L 102.885714 193.518511 
L 103.010351 193.182175 
L 103.054557 193.072477 
L 103.165571 192.751665 
L 103.165654 192.751665 
L 103.220642 192.641967 
L 103.344201 192.395666 
L 103.386541 192.284934 
L 103.510949 191.954807 
L 103.561397 191.84511 
L 103.67154 191.613297 
L 103.672494 191.613297 
L 103.724247 191.5036 
L 103.835095 191.255228 
L 103.835344 191.255228 
L 103.873351 191.145531 
L 103.983473 190.921997 
L 103.984427 190.921997 
L 104.034398 190.8123 
L 104.150056 190.584626 
L 104.197663 190.473894 
L 104.333413 190.170674 
L 104.397421 190.060977 
L 104.397421 190.059942 
L 104.514158 189.77949 
L 104.559111 189.669792 
L 104.672613 189.425561 
L 104.719183 189.315864 
L 104.829616 189.08612 
L 104.83028 189.08612 
L 104.871562 188.975388 
L 104.982514 188.719773 
L 104.982618 188.719773 
L 105.028068 188.609041 
L 105.150134 188.334797 
L 105.196538 188.2251 
L 105.312818 187.96431 
L 105.381782 187.854613 
L 105.492381 187.571056 
L 105.492837 187.571056 
L 105.532772 187.461359 
L 105.6436 187.215058 
L 105.643828 187.215058 
L 105.688946 187.104325 
L 105.799836 186.838361 
L 105.800043 186.838361 
L 105.856773 186.728664 
L 105.967289 186.511339 
L 105.96787 186.511339 
L 106.028333 186.401642 
L 106.028333 186.400607 
L 106.143866 186.178108 
L 106.184009 186.068411 
L 106.297697 185.809691 
L 106.349265 185.699993 
L 106.459117 185.47439 
L 106.460341 185.47439 
L 106.521529 185.364692 
L 106.632522 185.112182 
L 106.632563 185.112182 
L 106.694913 185.00145 
L 106.811442 184.731346 
L 106.864316 184.621649 
L 106.974044 184.375347 
L 106.975371 184.375347 
L 107.026482 184.26565 
L 107.137433 184.019349 
L 107.137537 184.019349 
L 107.187155 183.909651 
L 107.296013 183.675768 
L 107.298252 183.675768 
L 107.348596 183.566071 
L 107.461766 183.352886 
L 107.510057 183.242154 
L 107.618935 183.023794 
L 107.621092 183.023794 
L 107.672224 182.914097 
L 107.788629 182.649168 
L 107.829974 182.538436 
L 107.940365 182.278681 
L 107.94105 182.278681 
L 107.985795 182.168983 
L 108.101225 181.953728 
L 108.157416 181.844031 
L 108.273116 181.614288 
L 108.329432 181.504591 
L 108.437211 181.25415 
L 108.440446 181.25415 
L 108.491785 181.144452 
L 108.607568 180.9085 
L 108.672965 180.797768 
L 108.794097 180.548362 
L 108.844275 180.43763 
L 108.954377 180.227549 
L 108.955248 180.227549 
L 109.020189 180.117852 
L 109.130746 179.919155 
L 109.131265 179.919155 
L 109.176819 179.809457 
L 109.285552 179.600412 
L 109.287874 179.600412 
L 109.336684 179.490714 
L 109.44776 179.281669 
L 109.504345 179.170937 
L 109.624917 178.936019 
L 109.678226 178.826322 
L 109.793387 178.623485 
L 109.859531 178.512753 
L 109.98593 178.261277 
L 110.049959 178.15158 
L 110.049959 178.150545 
L 110.160724 177.944604 
L 110.161014 177.944604 
L 110.217039 177.834907 
L 110.330375 177.611373 
L 110.384493 177.501675 
L 110.495424 177.247095 
L 110.495548 177.247095 
L 110.554186 177.136363 
L 110.665117 176.928352 
L 110.665283 176.928352 
L 110.718529 176.820725 
L 110.718529 176.81762 
L 110.833856 176.607539 
L 110.89409 176.496807 
L 111.001185 176.261889 
L 111.005083 176.261889 
L 111.056236 176.152192 
L 111.170671 175.986611 
L 111.230428 175.876914 
L 111.346771 175.614055 
L 111.388095 175.504357 
L 111.498881 175.243568 
L 111.499151 175.243568 
L 111.55613 175.13387 
L 111.55613 175.132836 
L 111.676723 174.897918 
L 111.740627 174.788221 
L 111.851309 174.589524 
L 111.851662 174.589524 
L 111.909491 174.479826 
L 112.019261 174.268711 
L 112.020525 174.268711 
L 112.085819 174.159014 
L 112.196563 173.945828 
L 112.196916 173.945828 
L 112.262832 173.835096 
L 112.373472 173.606388 
L 112.373866 173.606388 
L 112.42168 173.496691 
L 112.42168 173.495656 
L 112.536592 173.306273 
L 112.590814 173.196575 
L 112.70699 172.944065 
L 112.762725 172.834367 
L 112.87293 172.608764 
L 112.87376 172.608764 
L 112.935611 172.499066 
L 113.046169 172.325207 
L 113.046667 172.325207 
L 113.116087 172.215509 
L 113.226292 171.996115 
L 113.227142 171.996115 
L 113.279808 171.886417 
L 113.390843 171.662883 
L 113.390863 171.662883 
L 113.455887 171.553186 
L 113.566528 171.340001 
L 113.566963 171.340001 
L 113.635367 171.229269 
L 113.746423 171.018153 
L 113.746464 171.018153 
L 113.865315 170.826701 
L 113.945974 170.717003 
L 114.055287 170.48726 
L 114.05707 170.48726 
L 114.114132 170.377563 
L 114.224483 170.166447 
L 114.225125 170.166447 
L 114.317146 170.055715 
L 114.440953 169.847704 
L 114.516511 169.738007 
L 114.516511 169.736972 
L 114.636067 169.526891 
L 114.694124 169.417194 
L 114.694124 169.416159 
L 114.813971 169.199869 
L 114.87095 169.089137 
L 114.981591 168.889406 
L 114.981943 168.889406 
L 115.04168 168.779708 
L 115.147925 168.576872 
L 115.152756 168.576872 
L 115.223067 168.467175 
L 115.33406 168.293315 
L 115.334164 168.293315 
L 115.391185 168.183617 
L 115.502198 167.966293 
L 115.50224 167.966293 
L 115.556938 167.855561 
L 115.6806 167.649619 
L 115.735091 167.539922 
L 115.845856 167.349504 
L 115.846146 167.349504 
L 115.928173 167.239807 
L 116.038606 167.04318 
L 116.039269 167.04318 
L 116.113894 166.933483 
L 116.233865 166.714088 
L 116.326114 166.603356 
L 116.43692 166.422252 
L 116.437107 166.422252 
L 116.508807 166.312555 
L 116.625233 166.136625 
L 116.676344 166.026928 
L 116.789473 165.824091 
L 116.846348 165.713359 
L 116.95703 165.534325 
L 116.957362 165.534325 
L 117.022262 165.423593 
L 117.131824 165.259047 
L 117.133358 165.259047 
L 117.208169 165.14935 
L 117.317897 164.987909 
L 117.319266 164.987909 
L 117.390096 164.877176 
L 117.51326 164.679514 
L 117.568166 164.569817 
L 117.686291 164.395957 
L 117.752166 164.28626 
L 117.867098 164.095842 
L 117.9501 163.986145 
L 118.060574 163.799867 
L 118.061155 163.799867 
L 118.123359 163.690169 
L 118.233626 163.503891 
L 118.234435 163.503891 
L 118.296743 163.394194 
L 118.296743 163.393159 
L 118.411406 163.216194 
L 118.472739 163.106497 
L 118.587153 162.940916 
L 118.66806 162.830184 
L 118.77754 162.657359 
L 118.779157 162.657359 
L 118.853284 162.546627 
L 118.964069 162.355174 
L 118.964318 162.355174 
L 119.039171 162.245477 
L 119.148733 162.063338 
L 119.150267 162.063338 
L 119.211145 161.955711 
L 119.325974 161.769432 
L 119.388427 161.659735 
L 119.498528 161.485875 
L 119.499503 161.485875 
L 119.560027 161.376178 
L 119.670999 161.235434 
L 119.671062 161.235434 
L 119.747407 161.125737 
L 119.860391 160.935319 
L 119.938809 160.825622 
L 119.938809 160.824587 
L 120.057412 160.637274 
L 120.132907 160.527577 
L 120.132907 160.526542 
L 120.249913 160.380624 
L 120.329452 160.269891 
L 120.444239 160.086718 
L 120.526971 159.97702 
L 120.641261 159.80937 
L 120.722375 159.699673 
L 120.722375 159.698638 
L 120.836706 159.538231 
L 120.914793 159.428534 
L 121.025226 159.231907 
L 121.02589 159.231907 
L 121.086809 159.12221 
L 121.19239 158.960768 
L 121.197885 158.960768 
L 121.280886 158.850036 
L 121.390987 158.68963 
L 121.391941 158.68963 
L 121.446307 158.579933 
L 121.555082 158.395724 
L 121.557404 158.395724 
L 121.64111 158.284992 
L 121.751647 158.118376 
L 121.752062 158.118376 
L 121.837116 158.008679 
L 121.951613 157.838959 
L 122.01842 157.729261 
L 122.129227 157.549192 
L 122.129475 157.549192 
L 122.20553 157.439495 
L 122.316109 157.286333 
L 122.316627 157.286333 
L 122.401598 157.176636 
L 122.512446 156.977939 
L 122.512674 156.977939 
L 122.596359 156.867207 
L 122.708617 156.690242 
L 122.794521 156.580545 
L 122.902466 156.417034 
L 122.905618 156.417034 
L 122.98045 156.307337 
L 123.093371 156.122093 
L 123.216763 155.920292 
L 123.298603 155.810594 
L 123.414759 155.642944 
L 123.4876 155.533246 
L 123.597246 155.394573 
L 123.598656 155.394573 
L 123.676805 155.284875 
L 123.676805 155.28384 
L 123.791116 155.123434 
L 123.872852 155.013737 
L 123.982207 154.846086 
L 123.983928 154.846086 
L 124.071449 154.736389 
L 124.185324 154.597715 
L 124.257025 154.486983 
L 124.367831 154.347274 
L 124.368122 154.347274 
L 124.452719 154.237577 
L 124.56224 154.109252 
L 124.563775 154.109252 
L 124.652167 153.99852 
L 124.770189 153.827765 
L 124.845643 153.718067 
L 124.955848 153.554556 
L 124.956739 153.554556 
L 125.028938 153.444859 
L 125.139661 153.277208 
L 125.140034 153.277208 
L 125.215509 153.167511 
L 125.329342 153.030907 
L 125.411369 152.92121 
L 125.521802 152.751489 
L 125.522466 152.751489 
L 125.590476 152.641792 
L 125.590476 152.640757 
L 125.714718 152.480351 
L 125.796662 152.370654 
L 125.90892 152.254747 
L 125.976017 152.144015 
L 126.092775 152.002236 
L 126.189751 151.892539 
L 126.297696 151.747656 
L 126.300848 151.747656 
L 126.383123 151.637959 
L 126.497309 151.484797 
L 126.592005 151.375099 
L 126.592005 151.374064 
L 126.706087 151.224007 
L 126.792427 151.11431 
L 126.906095 150.985984 
L 126.961871 150.876287 
L 127.066125 150.716916 
L 127.072968 150.716916 
L 127.176268 150.606184 
L 127.287303 150.474754 
L 127.371216 150.365057 
L 127.482105 150.230522 
L 127.482313 150.230522 
L 127.565314 150.11979 
L 127.679355 149.971802 
L 127.78786 149.862105 
L 127.894789 149.698594 
L 127.898957 149.698594 
L 127.967381 149.587862 
L 128.0808 149.47299 
L 128.167679 149.363293 
L 128.276743 149.199782 
L 128.278755 149.199782 
L 128.361548 149.090085 
L 128.47165 148.926574 
L 128.472562 148.926574 
L 128.559482 148.816876 
L 128.673399 148.676133 
L 128.748977 148.566435 
L 128.861297 148.43811 
L 128.952447 148.328413 
L 129.066322 148.189739 
L 129.148556 148.079007 
L 129.262846 147.918601 
L 129.340104 147.808903 
L 129.452818 147.643323 
L 129.52456 147.533625 
L 129.636942 147.403231 
L 129.72042 147.293533 
L 129.830625 147.161069 
L 129.831372 147.161069 
L 129.918478 147.051371 
L 130.032416 146.908558 
L 130.10988 146.798861 
L 130.227426 146.639489 
L 130.335578 146.529792 
L 130.439003 146.3787 
L 130.446675 146.3787 
L 130.514747 146.267967 
L 130.631172 146.136538 
L 130.714568 146.02684 
L 130.825623 145.879887 
L 130.888615 145.77019 
L 130.997763 145.646005 
L 130.999629 145.646005 
L 131.089991 145.536307 
L 131.199118 145.416261 
L 131.201087 145.416261 
L 131.274944 145.308634 
L 131.382392 145.198937 
L 131.386041 145.198937 
L 131.480301 145.088204 
L 131.591398 144.95574 
L 131.695072 144.845008 
L 131.807661 144.695985 
L 131.88778 144.585253 
L 131.998587 144.431056 
L 131.998835 144.431056 
L 132.071863 144.320324 
L 132.182048 144.188894 
L 132.182815 144.188894 
L 132.27863 144.079197 
L 132.389063 143.950871 
L 132.389727 143.950871 
L 132.491949 143.841174 
L 132.601262 143.716989 
L 132.602963 143.716989 
L 132.68642 143.607291 
L 132.800689 143.503803 
L 132.881513 143.394106 
L 132.992485 143.245083 
L 132.992589 143.245083 
L 133.087658 143.134351 
L 133.200911 143.025689 
L 133.294425 142.915992 
L 133.40436 142.775248 
L 133.40548 142.775248 
L 133.485557 142.665551 
L 133.596447 142.539295 
L 133.596654 142.539295 
L 133.684797 142.429598 
L 133.794878 142.292994 
L 133.795873 142.292994 
L 133.888806 142.183297 
L 133.998037 142.050832 
L 133.999841 142.050832 
L 134.088938 141.9401 
L 134.195992 141.804531 
L 134.200035 141.804531 
L 134.288614 141.694833 
L 134.400871 141.574787 
L 134.484329 141.46509 
L 134.594845 141.330556 
L 134.595384 141.330556 
L 134.701691 141.220858 
L 134.701691 141.219824 
L 134.815151 141.100812 
L 134.941924 140.991115 
L 135.051444 140.854511 
L 135.052937 140.854511 
L 135.160426 140.743779 
L 135.284005 140.591652 
L 135.402712 140.481954 
L 135.514866 140.376397 
L 135.637906 140.265664 
L 135.746618 140.130095 
L 135.749002 140.130095 
L 135.866195 140.019363 
L 135.976338 139.904491 
L 135.977271 139.904491 
L 136.077026 139.794794 
L 136.186961 139.680957 
L 136.18804 139.680957 
L 136.304818 139.570225 
L 136.412078 139.436726 
L 136.415873 139.436726 
L 136.516353 139.325993 
L 136.622992 139.200773 
L 136.627409 139.200773 
L 136.716319 139.090041 
L 136.832724 138.958611 
L 136.938575 138.848914 
L 137.050895 138.726798 
L 137.139722 138.617101 
L 137.247709 138.499125 
L 137.250819 138.499125 
L 137.349641 138.388392 
L 137.45771 138.240405 
L 137.460696 138.240405 
L 137.549959 138.130707 
L 137.665099 137.998243 
L 137.765289 137.888545 
L 137.872986 137.743662 
L 137.876345 137.743662 
L 137.985119 137.633965 
L 138.100819 137.480803 
L 138.217701 137.370071 
L 138.337153 137.232432 
L 138.433819 137.122734 
L 138.543111 136.998549 
L 138.544874 136.998549 
L 138.659889 136.887817 
L 138.769265 136.758457 
L 138.770924 136.758457 
L 138.874162 136.648759 
L 138.988846 136.530783 
L 139.086424 136.421086 
L 139.197168 136.307249 
L 139.19752 136.307249 
L 139.306336 136.197552 
L 139.419299 136.102343 
L 139.501035 135.992646 
L 139.611966 135.878809 
L 139.612111 135.878809 
L 139.703987 135.769112 
L 139.814669 135.667693 
L 139.815084 135.667693 
L 139.926761 135.557996 
L 140.039413 135.481415 
L 140.172965 135.371718 
L 140.280081 135.26823 
L 140.284062 135.26823 
L 140.393417 135.157498 
L 140.50667 135.050905 
L 140.62886 134.940173 
L 140.742051 134.83565 
L 140.845849 134.725953 
L 140.845849 134.724918 
L 140.959641 134.591418 
L 141.092343 134.481721 
L 141.203108 134.353396 
L 141.203399 134.353396 
L 141.343565 134.243699 
L 141.454372 134.107095 
L 141.454662 134.107095 
L 141.553048 133.997397 
L 141.666322 133.88356 
L 141.777315 133.773863 
L 141.885219 133.664166 
L 141.88837 133.664166 
L 141.986301 133.554469 
L 142.095241 133.417865 
L 142.097397 133.417865 
L 142.233707 133.308167 
L 142.343933 133.221237 
L 142.344804 133.221237 
L 142.46942 133.11154 
L 142.578733 132.985285 
L 142.580517 132.985285 
L 142.688296 132.875588 
L 142.796324 132.753472 
L 142.799392 132.753472 
L 142.919239 132.643774 
L 142.919239 132.64274 
L 143.032637 132.527868 
L 143.166107 132.418171 
L 143.166107 132.417136 
L 143.281973 132.300194 
L 143.386559 132.190497 
L 143.497655 132.08287 
L 143.60419 131.973172 
L 143.709792 131.867615 
L 143.715287 131.867615 
L 143.823833 131.757917 
L 143.94171 131.625453 
L 144.061765 131.514721 
L 144.167512 131.408128 
L 144.17282 131.408128 
L 144.294947 131.298431 
L 144.294947 131.297396 
L 144.410875 131.178385 
L 144.57412 131.068687 
L 144.681775 130.952781 
L 144.685175 130.952781 
L 144.807842 130.842049 
L 144.921033 130.737526 
L 145.026883 130.627829 
L 145.135119 130.52848 
L 145.137918 130.52848 
L 145.269272 130.417748 
L 145.380037 130.327713 
L 145.380369 130.327713 
L 145.509878 130.216981 
L 145.620436 130.106249 
L 145.620975 130.106249 
L 145.760147 129.996552 
L 145.872819 129.917901 
L 146.001374 129.808204 
L 146.114482 129.708855 
L 146.239948 129.599158 
L 146.351045 129.510158 
L 146.446881 129.400461 
L 146.563742 129.257648 
L 146.67235 129.146915 
L 146.781705 129.056881 
L 146.783447 129.056881 
L 146.910966 128.947184 
L 147.021275 128.841626 
L 147.022042 128.841626 
L 147.196898 128.731929 
L 147.300447 128.63465 
L 147.307994 128.63465 
L 147.439826 128.524953 
L 147.553286 128.406976 
L 147.682713 128.297279 
L 147.792524 128.193791 
L 147.793726 128.193791 
L 147.927963 128.083059 
L 148.034332 127.982676 
L 148.03906 127.982676 
L 148.172301 127.872978 
L 148.283025 127.77363 
L 148.283356 127.77363 
L 148.409672 127.663933 
L 148.409672 127.662898 
L 148.522552 127.574933 
L 148.610219 127.465236 
L 148.725628 127.359678 
L 148.845433 127.248946 
L 148.955701 127.1734 
L 148.95653 127.1734 
L 149.09114 127.063702 
L 149.201221 126.974703 
L 149.202237 126.974703 
L 149.357996 126.865005 
L 149.469031 126.758413 
L 149.469051 126.758413 
L 149.585124 126.678727 
L 149.696221 126.56903 
L 149.804042 126.496588 
L 149.807297 126.496588 
L 149.97133 126.385856 
L 150.077699 126.285473 
L 150.082406 126.285473 
L 150.241088 126.175776 
L 150.352061 126.080567 
L 150.352185 126.080567 
L 150.467553 125.970869 
L 150.467553 125.969834 
L 150.58317 125.859102 
L 150.712265 125.74837 
L 150.809925 125.664545 
L 150.823278 125.664545 
L 150.946857 125.554848 
L 151.058991 125.44722 
L 151.228228 125.337523 
L 151.342808 125.217477 
L 151.482207 125.10778 
L 151.593242 125.004292 
L 151.593283 125.004292 
L 151.737846 124.894594 
L 151.841727 124.807664 
L 151.848922 124.807664 
L 151.9894 124.697967 
L 152.091415 124.579991 
L 152.100496 124.579991 
L 152.257832 124.470294 
L 152.367311 124.406131 
L 152.368928 124.406131 
L 152.531074 124.295399 
L 152.644037 124.203295 
L 152.787355 124.093597 
L 152.899489 123.9839 
L 153.027795 123.874203 
L 153.138519 123.785203 
L 153.13885 123.785203 
L 153.266659 123.674471 
L 153.37701 123.596855 
L 153.377632 123.596855 
L 153.528456 123.487158 
L 153.528456 123.486123 
L 153.641129 123.408507 
L 153.780881 123.29881 
L 153.892786 123.218089 
L 153.999135 123.108392 
L 154.109112 123.017322 
L 154.11021 123.017322 
L 154.237211 122.907625 
L 154.346089 122.853811 
L 154.348307 122.853811 
L 154.488557 122.744114 
L 154.596502 122.650975 
L 154.599612 122.650975 
L 154.762567 122.541278 
L 154.874555 122.450208 
L 155.041076 122.340511 
L 155.155656 122.255651 
L 155.302022 122.148023 
L 155.302022 122.145953 
L 155.415421 122.030047 
L 155.554779 121.92035 
L 155.667202 121.852048 
L 155.78763 121.74235 
L 155.896777 121.665769 
L 155.898706 121.665769 
L 156.034207 121.555037 
L 156.144309 121.460863 
L 156.145262 121.460863 
L 156.28319 121.351166 
L 156.395717 121.278724 
L 156.551414 121.167992 
L 156.660562 121.082097 
L 156.66249 121.082097 
L 156.785966 120.971365 
L 156.88881 120.899958 
L 156.896938 120.899958 
L 157.03839 120.789226 
L 157.148492 120.71575 
L 157.149446 120.71575 
L 157.295294 120.606052 
L 157.400502 120.512913 
L 157.40639 120.512913 
L 157.531504 120.403216 
L 157.531504 120.402181 
L 157.644467 120.310077 
L 157.786665 120.200379 
L 157.786665 120.199345 
L 157.901702 120.103101 
L 158.050411 119.992369 
L 158.159891 119.898194 
L 158.161466 119.898194 
L 158.328505 119.787462 
L 158.446611 119.703637 
L 158.596274 119.59394 
L 158.709029 119.511149 
L 158.858485 119.400417 
L 158.972941 119.318662 
L 159.129488 119.208965 
L 159.244856 119.126174 
L 159.357985 119.016477 
L 159.470036 118.915059 
L 159.59208 118.805361 
L 159.702845 118.710152 
L 159.703177 118.710152 
L 159.895533 118.600455 
L 160.007604 118.501107 
L 160.133713 118.393479 
L 160.133713 118.391409 
L 160.246157 118.325177 
L 160.367849 118.21548 
L 160.478407 118.132689 
L 160.478905 118.132689 
L 160.652537 118.022992 
L 160.760026 117.95883 
L 160.763551 117.95883 
L 160.936313 117.849132 
L 161.047119 117.739435 
L 161.047368 117.739435 
L 161.220897 117.629738 
L 161.332927 117.536599 
L 161.492336 117.425867 
L 161.60337 117.360669 
L 161.603412 117.360669 
L 161.777687 117.250972 
L 161.890588 117.159902 
L 162.01568 117.050205 
L 162.127606 116.967415 
L 162.277726 116.857718 
L 162.385464 116.781136 
L 162.388823 116.781136 
L 162.513065 116.671439 
L 162.616842 116.601067 
L 162.624037 116.601067 
L 162.7528 116.49137 
L 162.860247 116.40444 
L 162.863855 116.40444 
L 163.056937 116.294743 
L 163.167163 116.187115 
L 163.167951 116.187115 
L 163.298518 116.076383 
L 163.416934 115.957372 
L 163.542379 115.847675 
L 163.655342 115.754536 
L 163.809318 115.644838 
L 163.917014 115.559978 
L 163.920331 115.559978 
L 164.027654 115.450281 
L 164.139746 115.350933 
L 164.298989 115.2402 
L 164.406561 115.160515 
L 164.410003 115.160515 
L 164.601924 115.050817 
L 164.712854 114.963887 
L 164.712958 114.963887 
L 164.877156 114.85419 
L 164.979959 114.783818 
L 164.988253 114.783818 
L 165.168562 114.674121 
L 165.280571 114.578912 
L 165.444625 114.469215 
L 165.534779 114.402983 
L 165.555721 114.402983 
L 165.711771 114.293285 
L 165.81982 114.198076 
L 165.822743 114.198076 
L 165.987253 114.088379 
L 165.987253 114.087344 
L 166.103284 114.007659 
L 166.272936 113.897961 
L 166.385401 113.829659 
L 166.5355 113.718927 
L 166.654579 113.643381 
L 166.865514 113.533684 
L 166.978166 113.452963 
L 167.124428 113.343266 
L 167.234903 113.266685 
L 167.235484 113.266685 
L 167.371421 113.156987 
L 167.480444 113.074197 
L 167.482476 113.074197 
L 167.611736 112.9645 
L 167.714539 112.885849 
L 167.722833 112.885849 
L 167.87345 112.776152 
L 167.984173 112.668524 
L 167.984547 112.668524 
L 168.169418 112.558827 
L 168.282463 112.459478 
L 168.421573 112.349781 
L 168.535137 112.264921 
L 168.693799 112.154189 
L 168.803527 112.072433 
L 168.804896 112.072433 
L 168.933617 111.962736 
L 169.046331 111.882015 
L 169.309372 111.772318 
L 169.309372 111.771283 
L 169.42474 111.66676 
L 169.57967 111.557063 
L 169.69201 111.492901 
L 169.848682 111.383203 
L 169.96235 111.298343 
L 170.11334 111.188646 
L 170.22114 111.114135 
L 170.224416 111.114135 
L 170.409101 111.004437 
L 170.518808 110.934065 
L 170.520197 110.934065 
L 170.677201 110.824368 
L 170.78272 110.735368 
L 170.788256 110.735368 
L 170.93597 110.627741 
L 171.043915 110.55323 
L 171.047025 110.55323 
L 171.269716 110.443532 
L 171.383094 110.369021 
L 171.586999 110.259324 
L 171.69934 110.197231 
L 171.859495 110.087534 
L 171.972188 110.007848 
L 172.086997 109.94886 
L 172.227868 109.838128 
L 172.335544 109.77086 
L 172.338965 109.77086 
L 172.466608 109.661163 
L 172.579239 109.580443 
L 172.786981 109.46971 
L 172.899384 109.398304 
L 173.052945 109.288606 
L 173.166115 109.185119 
L 173.355423 109.074386 
L 173.46482 109.007119 
L 173.46652 109.007119 
L 173.641127 108.897422 
L 173.756101 108.822911 
L 173.963884 108.712178 
L 174.076225 108.651121 
L 174.255891 108.541423 
L 174.360809 108.452424 
L 174.366698 108.452424 
L 174.501473 108.342726 
L 174.607677 108.235099 
L 174.612529 108.235099 
L 174.801215 108.125402 
L 174.913991 108.042611 
L 175.127289 107.934984 
L 175.238759 107.841844 
L 175.400117 107.732147 
L 175.501095 107.674194 
L 175.511214 107.674194 
L 175.694757 107.564497 
L 175.805481 107.481706 
L 175.805854 107.481706 
L 175.964226 107.372009 
L 176.074099 107.291288 
L 176.07524 107.291288 
L 176.317546 107.181591 
L 176.427938 107.10294 
L 176.428643 107.10294 
L 176.587989 106.992208 
L 176.700081 106.943569 
L 176.90156 106.833872 
L 177.011206 106.7635 
L 177.012616 106.7635 
L 177.20831 106.653802 
L 177.316089 106.59171 
L 177.319407 106.59171 
L 177.482382 106.482012 
L 177.592608 106.403362 
L 177.593396 106.403362 
L 177.762052 106.293664 
L 177.868151 106.200525 
L 177.873149 106.200525 
L 178.058973 106.090828 
L 178.169158 106.024596 
L 178.17007 106.024596 
L 178.357056 105.913863 
L 178.471014 105.844526 
L 178.669072 105.734829 
L 178.778842 105.658248 
L 178.780127 105.658248 
L 179.006758 105.548551 
L 179.11914 105.484388 
L 179.306769 105.373656 
L 179.420996 105.29604 
L 179.581214 105.186343 
L 179.692912 105.120111 
L 179.881308 105.010413 
L 179.989045 104.958669 
L 179.992404 104.958669 
L 180.186606 104.847937 
L 180.297371 104.784809 
L 180.297578 104.784809 
L 180.52622 104.675112 
L 180.638042 104.594392 
L 180.873091 104.484694 
L 180.985225 104.43295 
L 181.215754 104.323253 
L 181.325896 104.271509 
L 181.32685 104.271509 
L 181.475643 104.161812 
L 181.587278 104.107998 
L 181.76257 103.998301 
L 181.874952 103.934138 
L 182.084332 103.823406 
L 182.192774 103.74993 
L 182.195428 103.74993 
L 182.438771 103.640232 
L 182.547297 103.57607 
L 182.549868 103.57607 
L 182.773139 103.466373 
L 182.882411 103.40428 
L 182.884195 103.40428 
L 183.111344 103.294583 
L 183.223187 103.220071 
L 183.435199 103.110374 
L 183.533897 103.033793 
L 183.546213 103.033793 
L 183.705083 102.924096 
L 183.809337 102.870282 
L 183.816179 102.870282 
L 184.055375 102.760585 
L 184.166887 102.71298 
L 184.370087 102.603283 
L 184.48193 102.555678 
L 184.695581 102.445981 
L 184.806512 102.37147 
L 184.806636 102.37147 
L 185.039404 102.261772 
L 185.151082 102.203819 
L 185.444748 102.094122 
L 185.556321 102.046517 
L 185.803935 101.93682 
L 185.906033 101.895425 
L 185.914825 101.895425 
L 186.179358 101.785728 
L 186.290994 101.729844 
L 186.500581 101.620147 
L 186.613067 101.551845 
L 186.824084 101.442148 
L 186.933854 101.375915 
L 186.935181 101.375915 
L 187.139999 101.265183 
L 187.246866 101.210335 
L 187.251054 101.210335 
L 187.533129 101.100637 
L 187.644848 101.036475 
L 187.879068 100.926777 
L 187.879068 100.925743 
L 187.992279 100.875033 
L 188.282026 100.765336 
L 188.395031 100.719802 
L 188.630743 100.609069 
L 188.743913 100.556291 
L 188.991445 100.446593 
L 189.107061 100.374152 
L 189.357744 100.264454 
L 189.469753 100.21892 
L 189.78629 100.109222 
L 189.898257 100.063688 
L 190.150475 99.95399 
L 190.150475 99.952956 
L 190.263749 99.898107 
L 190.597889 99.78841 
L 190.687297 99.759433 
L 190.708903 99.759433 
L 191.014367 99.649736 
L 191.124178 99.595922 
L 191.125443 99.595922 
L 191.395761 99.486225 
L 191.507273 99.44483 
L 191.723868 99.335132 
L 191.828495 99.281319 
L 191.834923 99.281319 
L 192.108331 99.171621 
L 192.220672 99.107459 
L 192.525929 98.997761 
L 192.637606 98.966715 
L 192.975914 98.857018 
L 193.086015 98.801134 
L 193.086969 98.801134 
L 193.381361 98.691437 
L 193.493474 98.641763 
L 193.799124 98.532066 
L 193.910885 98.498949 
L 194.224891 98.389252 
L 194.33321 98.339578 
L 194.335988 98.339578 
L 194.619639 98.229881 
L 194.730155 98.182276 
L 194.730694 98.182276 
L 195.053908 98.072579 
L 195.166476 98.037393 
L 195.46939 97.926661 
L 195.571032 97.89251 
L 195.580445 97.89251 
L 195.88197 97.782813 
L 195.989417 97.743487 
L 195.993046 97.743487 
L 196.295172 97.63379 
L 196.399592 97.608953 
L 196.406227 97.608953 
L 196.717704 97.499255 
L 196.824965 97.470279 
L 196.82851 97.470279 
L 197.226825 97.360582 
L 197.330623 97.335744 
L 197.337673 97.335744 
L 197.782433 97.226047 
L 197.894566 97.197071 
L 198.352306 97.087373 
L 198.459297 97.058397 
L 198.463403 97.058397 
L 198.860266 96.948699 
L 198.965059 96.925932 
L 198.971321 96.925932 
L 199.47928 96.816235 
L 199.591165 96.77484 
L 200.065285 96.665142 
L 200.065285 96.664107 
L 200.177211 96.644445 
L 200.640882 96.534747 
L 200.749324 96.50991 
L 200.751978 96.50991 
L 201.276152 96.400213 
L 201.384885 96.379516 
L 201.387249 96.379516 
L 201.940908 96.269818 
L 202.041596 96.25119 
L 202.051839 96.25119 
L 202.810896 96.141493 
L 202.918343 96.120796 
L 202.921993 96.120796 
L 203.502731 96.011098 
L 203.606861 95.990401 
L 203.613828 95.990401 
L 204.259963 95.880703 
L 204.366125 95.868285 
L 204.370936 95.868285 
L 205.015786 95.758588 
L 205.127256 95.73996 
L 205.75021 95.630263 
L 205.822948 95.611635 
L 205.861265 95.611635 
L 206.484261 95.501937 
L 206.584825 95.487449 
L 206.595275 95.487449 
L 207.159094 95.377752 
L 207.267246 95.344636 
L 207.2699 95.344636 
L 207.759033 95.234938 
L 207.836415 95.212171 
L 207.870129 95.212171 
L 208.373942 95.102474 
L 208.481555 95.071427 
L 208.485039 95.071427 
L 208.888039 94.96173 
L 208.953188 94.951381 
L 208.999136 94.951381 
L 209.485904 94.841684 
L 209.594762 94.814777 
L 209.596877 94.814777 
L 210.071619 94.70508 
L 210.171395 94.684382 
L 210.18255 94.684382 
L 210.689224 94.574685 
L 210.689224 94.57365 
L 210.801067 94.537429 
L 211.184079 94.427732 
L 211.282196 94.392546 
L 211.295155 94.392546 
L 211.684367 94.282849 
L 211.684367 94.281814 
L 211.796749 94.251803 
L 212.185235 94.142105 
L 212.296974 94.111059 
L 212.707128 94.001362 
L 212.816649 93.964106 
L 212.818225 93.964106 
L 213.239721 93.854409 
L 213.350403 93.813014 
L 213.350776 93.813014 
L 213.644836 93.703316 
L 213.748012 93.663991 
L 213.755932 93.663991 
L 214.099548 93.554294 
L 214.206643 93.49841 
L 214.210645 93.49841 
L 214.456766 93.388713 
L 214.56778 93.349387 
L 214.567822 93.349387 
L 214.776455 93.23969 
L 214.888381 93.198295 
L 215.151214 93.088598 
L 215.262311 93.045133 
L 215.477123 92.935435 
L 215.584612 92.89611 
L 215.588219 92.89611 
L 215.828203 92.786413 
L 215.938678 92.72432 
L 215.9393 92.72432 
L 216.219177 92.614623 
L 216.331394 92.556669 
L 216.566111 92.446972 
L 216.566111 92.445937 
L 216.679323 92.395228 
L 216.870497 92.284496 
L 216.983667 92.231717 
L 217.217721 92.12202 
L 217.325417 92.074415 
L 217.328817 92.074415 
L 217.564426 91.963683 
L 217.676539 91.908835 
L 217.941736 91.799137 
L 218.052791 91.745324 
L 218.26271 91.635626 
L 218.373226 91.581813 
L 218.373786 91.581813 
L 218.575929 91.472115 
L 218.688477 91.389325 
L 218.927258 91.279628 
L 219.038894 91.225814 
L 219.176821 91.116117 
L 219.28319 91.037466 
L 219.287835 91.037466 
L 219.542043 90.927769 
L 219.651253 90.873955 
L 219.652932 90.873955 
L 219.906435 90.764258 
L 220.016371 90.687676 
L 220.017532 90.687676 
L 220.217788 90.577979 
L 220.324821 90.532444 
L 220.328885 90.532444 
L 220.494472 90.421712 
L 220.604864 90.337887 
L 220.605527 90.337887 
L 220.790419 90.22819 
L 220.902241 90.149539 
L 221.085661 90.038807 
L 221.195265 89.97154 
L 221.196758 89.97154 
L 221.390544 89.861842 
L 221.497121 89.803889 
L 221.5016 89.803889 
L 221.705961 89.694192 
L 221.818095 89.640378 
L 221.966638 89.530681 
L 222.076823 89.464449 
L 222.077693 89.464449 
L 222.271003 89.354751 
L 222.382867 89.269891 
L 222.58217 89.160194 
L 222.692437 89.098101 
L 222.693225 89.098101 
L 222.880999 88.988404 
L 222.990312 88.911823 
L 222.992095 88.911823 
L 223.104353 88.84973 
L 223.357897 88.740033 
L 223.468538 88.667591 
L 223.468994 88.667591 
L 223.649905 88.557894 
L 223.762183 88.499941 
L 223.947303 88.390243 
L 223.947303 88.389208 
L 224.059934 88.313662 
L 224.261932 88.203965 
L 224.369628 88.131523 
L 224.373028 88.131523 
L 224.554665 88.021826 
L 224.554665 88.020791 
L 224.667088 87.947315 
L 224.863384 87.837617 
L 224.976492 87.771385 
L 225.133579 87.661688 
L 225.239968 87.589246 
L 225.244613 87.589246 
L 225.461084 87.478514 
L 225.573611 87.405038 
L 225.782949 87.29534 
L 225.896824 87.224969 
L 226.087832 87.115271 
L 226.087832 87.114236 
L 226.201417 87.053179 
L 226.387076 86.943481 
L 226.496721 86.883458 
L 226.498111 86.883458 
L 226.67587 86.773761 
L 226.787837 86.686831 
L 227.002317 86.577134 
L 227.111755 86.488134 
L 227.113331 86.488134 
L 227.291028 86.378437 
L 227.399885 86.305995 
L 227.402124 86.305995 
L 227.601468 86.196298 
L 227.708584 86.105229 
L 227.712482 86.105229 
L 227.885119 85.994496 
L 227.993645 85.933439 
L 227.996174 85.933439 
L 228.139928 85.822706 
L 228.256644 85.732672 
L 228.440914 85.622975 
L 228.55257 85.567091 
L 228.774494 85.456359 
L 228.890712 85.395301 
L 229.078071 85.285604 
L 229.190578 85.215232 
L 229.338292 85.105535 
L 229.450965 85.024814 
L 229.647779 84.915117 
L 229.762546 84.857164 
L 229.992411 84.746431 
L 230.105166 84.662606 
L 230.315811 84.552909 
L 230.428006 84.497025 
L 230.602904 84.387328 
L 230.602904 84.386293 
L 230.716489 84.323166 
L 230.905133 84.213468 
L 231.019921 84.155515 
L 231.224821 84.045818 
L 231.336955 83.994074 
L 231.526802 83.884376 
L 231.526802 83.883342 
L 231.639101 83.822284 
L 231.825797 83.712586 
L 231.932788 83.650494 
L 231.936873 83.650494 
L 232.133127 83.539762 
L 232.238999 83.470425 
L 232.244224 83.470425 
L 232.407613 83.360727 
L 232.520452 83.273797 
L 232.710506 83.1641 
L 232.813828 83.097868 
L 232.821603 83.097868 
L 232.999196 82.988171 
L 233.112263 82.924008 
L 233.286745 82.813276 
L 233.402549 82.73773 
L 233.586031 82.628032 
L 233.698475 82.557661 
L 233.901302 82.447963 
L 234.008003 82.371382 
L 234.012357 82.371382 
L 234.18487 82.261685 
L 234.298621 82.209941 
L 234.449694 82.099209 
L 234.560065 82.038151 
L 234.560791 82.038151 
L 234.747901 81.927419 
L 234.862067 81.851873 
L 235.084177 81.742175 
L 235.192164 81.653176 
L 235.195274 81.653176 
L 235.400009 81.543478 
L 235.508617 81.473106 
L 235.511105 81.473106 
L 235.697863 81.362374 
L 235.811469 81.299247 
L 236.02176 81.188515 
L 236.134475 81.150224 
L 236.333404 81.040527 
L 236.445848 80.974294 
L 236.606065 80.864597 
L 236.716312 80.781807 
L 236.717121 80.781807 
L 236.892619 80.672109 
L 237.004255 80.610017 
L 237.185394 80.500319 
L 237.300907 80.429948 
L 237.500893 80.32025 
L 237.613131 80.264367 
L 237.878971 80.15467 
L 237.991975 80.092577 
L 238.191775 79.981845 
L 238.308097 79.898019 
L 238.504869 79.788322 
L 238.618122 79.736578 
L 238.790179 79.626881 
L 238.90252 79.564788 
L 239.11642 79.454056 
L 239.220674 79.411626 
L 239.227516 79.411626 
L 239.4641 79.301929 
L 239.570925 79.246045 
L 239.575176 79.246045 
L 239.827911 79.136348 
L 239.938593 79.068046 
L 239.939008 79.068046 
L 240.176918 78.958349 
L 240.288699 78.890046 
L 240.434153 78.780349 
L 240.537205 78.712047 
L 240.545209 78.712047 
L 240.766738 78.60235 
L 240.766738 78.601315 
L 240.880199 78.540257 
L 241.062913 78.43056 
L 241.062913 78.429525 
L 241.17739 78.376746 
L 241.38849 78.266014 
L 241.500458 78.221514 
L 241.708012 78.111817 
L 241.821162 78.045584 
L 242.006136 77.935887 
L 242.006136 77.934852 
L 242.119887 77.869655 
L 242.311538 77.759958 
L 242.420956 77.710283 
L 242.422573 77.710283 
L 242.593054 77.600586 
L 242.704068 77.538493 
L 242.916972 77.428796 
L 242.916972 77.427761 
L 243.034123 77.356355 
L 243.236784 77.246657 
L 243.348399 77.188704 
L 243.584257 77.079007 
L 243.696162 77.035542 
L 243.942574 76.925845 
L 244.054293 76.863752 
L 244.263693 76.754054 
L 244.374085 76.698171 
L 244.374748 76.698171 
L 244.636337 76.588474 
L 244.740986 76.516032 
L 244.74731 76.516032 
L 244.984432 76.406335 
L 245.096441 76.3608 
L 245.413434 76.251103 
L 245.525339 76.209708 
L 245.755495 76.10001 
L 245.755495 76.098976 
L 245.868686 76.046197 
L 246.083456 75.936499 
L 246.195506 75.884755 
L 246.43097 75.775058 
L 246.534063 75.739872 
L 246.542046 75.739872 
L 246.816843 75.630175 
L 246.928355 75.578431 
L 247.214577 75.468734 
L 247.324513 75.404571 
L 247.325612 75.404571 
L 247.607438 75.293839 
L 247.720982 75.234851 
L 247.841077 75.166549 
L 248.043427 75.056852 
L 248.155644 74.998898 
L 248.359072 74.889201 
L 248.466914 74.816759 
L 248.470169 74.816759 
L 248.715191 74.707062 
L 248.828963 74.655318 
L 249.128746 74.544586 
L 249.243595 74.485598 
L 249.57927 74.375901 
L 249.690802 74.324157 
L 249.965205 74.214459 
L 250.071575 74.170994 
L 250.076302 74.170994 
L 250.418425 74.061297 
L 250.53002 74.03646 
L 250.835193 73.926763 
L 250.947368 73.872949 
L 251.287916 73.763252 
L 251.401687 73.697019 
L 251.699417 73.587322 
L 251.806284 73.556276 
L 251.810452 73.556276 
L 252.159604 73.445544 
L 252.271903 73.384486 
L 252.58168 73.274788 
L 252.685395 73.227184 
L 252.692735 73.227184 
L 252.964816 73.116452 
L 253.077676 73.074022 
L 253.346045 72.964325 
L 253.346045 72.96329 
L 253.458469 72.931208 
L 253.778012 72.821511 
L 253.891058 72.757349 
L 254.164528 72.647651 
L 254.269197 72.595907 
L 254.275583 72.595907 
L 254.536343 72.48621 
L 254.536343 72.485175 
L 254.649327 72.438606 
L 254.943822 72.328908 
L 255.048077 72.275095 
L 255.054898 72.275095 
L 255.398183 72.165397 
L 255.509653 72.121932 
L 255.877736 72.0112 
L 255.992357 71.981189 
L 256.270286 71.871491 
L 256.381859 71.821817 
L 256.718259 71.711085 
L 256.830186 71.668655 
L 257.161858 71.558958 
L 257.26972 71.513423 
L 257.272955 71.513423 
L 257.536369 71.403726 
L 257.648876 71.37061 
L 257.999044 71.260912 
L 258.111157 71.211238 
L 258.460019 71.101541 
L 258.571489 71.062215 
L 258.941935 70.952518 
L 259.0448 70.917332 
L 259.053032 70.917332 
L 259.393952 70.8066 
L 259.506438 70.772449 
L 259.791728 70.662752 
L 259.903695 70.617217 
L 260.227862 70.506485 
L 260.338793 70.464055 
L 260.338876 70.464055 
L 260.64886 70.353323 
L 260.754732 70.308823 
L 260.759895 70.308823 
L 261.100628 70.198091 
L 261.217158 70.149451 
L 261.503795 70.038719 
L 261.600107 70.010778 
L 261.614891 70.010778 
L 261.994275 69.900045 
L 262.106512 69.872104 
L 262.434826 69.762406 
L 262.546689 69.725151 
L 262.92288 69.615453 
L 263.034163 69.592686 
L 263.456343 69.482989 
L 263.559229 69.443663 
L 263.567357 69.443663 
L 263.896624 69.333966 
L 263.896624 69.332931 
L 264.014149 69.294641 
L 264.459178 69.184943 
L 264.57125 69.153897 
L 264.976054 69.0442 
L 265.088291 69.017293 
L 265.476093 68.907596 
L 265.568943 68.882759 
L 265.587189 68.882759 
L 265.949923 68.772026 
L 266.061579 68.742015 
L 266.465077 68.631283 
L 266.577625 68.597132 
L 266.874733 68.4864 
L 266.989708 68.4419 
L 267.375747 68.332202 
L 267.488544 68.301156 
L 267.901144 68.190424 
L 268.013713 68.154203 
L 268.365955 68.044506 
L 268.478233 68.00725 
L 268.897635 67.897553 
L 269.009561 67.856158 
L 269.441341 67.745426 
L 269.552293 67.715414 
L 269.552396 67.715414 
L 269.910236 67.604682 
L 270.010178 67.564322 
L 270.021271 67.564322 
L 270.336169 67.453589 
L 270.44795 67.415299 
L 270.959621 67.305602 
L 270.959621 67.304567 
L 271.072107 67.268346 
L 271.46136 67.158649 
L 271.46136 67.157614 
L 271.573183 67.121393 
L 271.961814 67.010661 
L 272.073408 66.986859 
L 272.589724 66.876127 
L 272.701214 66.850255 
L 273.11143 66.740557 
L 273.223315 66.699162 
L 273.507319 66.58843 
L 273.618871 66.560488 
L 274.153351 66.450791 
L 274.265007 66.423884 
L 274.380396 66.401117 
L 274.880974 66.291419 
L 274.992713 66.258303 
L 275.419206 66.147571 
L 275.521325 66.121699 
L 275.530303 66.121699 
L 276.079607 66.010967 
L 276.186163 65.980955 
L 276.190518 65.980955 
L 276.569756 65.871258 
L 276.682698 65.848491 
L 277.048355 65.738794 
L 277.160177 65.713956 
L 277.595545 65.603224 
L 277.711597 65.558724 
L 278.23631 65.449027 
L 278.347987 65.420051 
L 278.828909 65.310353 
L 278.940545 65.283446 
L 279.459182 65.173749 
L 279.570445 65.155121 
L 280.170695 65.044389 
L 280.286498 65.001959 
L 280.773661 64.892262 
L 280.886956 64.859146 
L 281.376337 64.749448 
L 281.488512 64.724611 
L 282.000742 64.613879 
L 282.117106 64.583868 
L 282.585814 64.473136 
L 282.683993 64.443124 
L 282.69687 64.443124 
L 283.214823 64.333427 
L 283.326542 64.318938 
L 283.989701 64.209241 
L 284.09325 64.186474 
L 284.100777 64.186474 
L 284.736566 64.076777 
L 284.736566 64.075742 
L 284.850835 64.056079 
L 285.316392 63.945347 
L 285.429977 63.917405 
L 286.001737 63.807708 
L 286.113518 63.782871 
L 286.640761 63.672139 
L 286.752687 63.652476 
L 287.348023 63.543813 
L 287.459451 63.517941 
L 288.093665 63.407209 
L 288.205301 63.379268 
L 288.690991 63.26957 
L 288.802793 63.246803 
L 289.320104 63.137106 
L 289.433066 63.114338 
L 290.038355 63.003606 
L 290.153101 62.979804 
L 290.847507 62.869072 
L 290.962274 62.861828 
L 291.526818 62.75213 
L 291.639449 62.729363 
L 292.198665 62.619666 
L 292.300887 62.592759 
L 292.30972 62.592759 
L 292.805509 62.482027 
L 292.921167 62.462364 
L 293.503253 62.352667 
L 293.614682 62.336109 
L 294.14068 62.226411 
L 294.25242 62.211923 
L 294.747088 62.102226 
L 294.859844 62.083598 
L 295.609446 61.973901 
L 295.711855 61.959412 
L 295.720543 61.959412 
L 296.490465 61.849715 
L 296.60237 61.839366 
L 297.080202 61.729669 
L 297.191485 61.708972 
L 297.795198 61.599274 
L 297.906771 61.584786 
L 298.440919 61.474054 
L 298.553363 61.454391 
L 299.367451 61.344694 
L 299.479086 61.332275 
L 300.203973 61.222578 
L 300.317412 61.20395 
L 300.976155 61.094253 
L 301.091316 61.063207 
L 302.007231 60.953509 
L 302.118784 60.941091 
L 303.03895 60.830359 
L 303.150793 60.818975 
L 303.83873 60.708243 
L 303.952978 60.68858 
L 304.827694 60.578883 
L 304.868272 60.572673 
L 304.938708 60.572673 
L 305.843032 60.462976 
L 305.956265 60.446418 
L 306.505694 60.335686 
L 306.620958 60.311884 
L 307.478505 60.202187 
L 307.591385 60.16907 
L 308.387226 60.059373 
L 308.499297 60.046955 
L 309.422967 59.937257 
L 309.534727 59.920699 
L 310.240227 59.809967 
L 310.352298 59.796514 
L 311.241528 59.686816 
L 311.353309 59.670258 
L 312.164016 59.560561 
L 312.275403 59.539863 
L 313.099816 59.430166 
L 313.211161 59.413608 
L 314.348627 59.303911 
L 314.460491 59.293562 
L 315.232591 59.183865 
L 315.344081 59.175586 
L 316.463197 59.065888 
L 316.575559 59.047261 
L 317.77977 58.936528 
L 317.89238 58.918936 
L 318.870168 58.809238 
L 318.982343 58.79475 
L 320.037658 58.685053 
L 320.14946 58.676774 
L 321.16148 58.567076 
L 321.274319 58.556728 
L 322.475482 58.44703 
L 322.589005 58.428402 
L 323.840325 58.318705 
L 323.953081 58.302147 
L 325.303368 58.19245 
L 325.414506 58.186241 
L 326.508637 58.075508 
L 326.622408 58.059985 
L 327.679278 57.950288 
L 327.791412 57.942009 
L 328.83242 57.831277 
L 328.943807 57.826102 
L 330.345226 57.71537 
L 330.456654 57.708126 
L 331.918308 57.597394 
L 332.031893 57.59015 
L 333.380625 57.480453 
L 333.492012 57.465964 
L 334.706715 57.356267 
L 334.818164 57.350058 
L 336.464004 57.24036 
L 336.563801 57.225872 
L 336.57506 57.225872 
L 338.03296 57.116175 
L 338.144181 57.105826 
L 339.328881 56.996129 
L 339.433177 56.979571 
L 339.439978 56.979571 
L 341.009825 56.868839 
L 341.121067 56.861594 
L 342.888703 56.751897 
L 342.999903 56.745688 
L 344.418346 56.635991 
L 344.530002 56.629781 
L 346.055581 56.520084 
L 346.166802 56.511805 
L 347.726282 56.402108 
L 347.837877 56.391759 
L 349.29528 56.282062 
L 349.29528 56.281027 
L 349.407745 56.267573 
L 350.780882 56.157876 
L 350.892227 56.145458 
L 352.934723 56.03576 
L 353.046048 56.033691 
L 354.874374 55.923993 
L 354.985554 55.919854 
L 356.956847 55.809122 
L 357.068877 55.801877 
L 359.419076 55.69218 
L 359.5304 55.683901 
L 361.684615 55.574204 
L 361.795753 55.570064 
L 364.80457 55.460367 
L 364.915957 55.443809 
L 367.125202 55.334112 
L 367.236755 55.329972 
L 369.643725 55.220275 
L 369.755755 55.211996 
L 372.244607 55.102299 
L 372.289021 55.096089 
L 372.355704 55.096089 
L 375.588332 54.986392 
L 375.699595 54.978113 
L 378.357767 54.868416 
L 378.469278 54.860137 
L 381.72204 54.75044 
L 381.833385 54.74423 
L 385.028939 54.634533 
L 385.140824 54.626254 
L 388.455561 54.516557 
L 388.564626 54.510347 
L 388.566617 54.510347 
L 392.425641 54.40065 
L 392.537049 54.394441 
L 397.476664 54.284744 
L 397.587802 54.282674 
L 405.622345 54.172977 
L 405.733483 54.170907 
L 414.72 54.144 
L 414.72 54.144 
" clip-path="url(#pbddeeef4b3)" style="fill: none; stroke: #ff8c00; stroke-width: 1.5; stroke-linecap: square"/>
   </g>
   <g id="line2d_14">
    <path d="M 74.605714 307.584 
L 414.72 54.144 
" clip-path="url(#pbddeeef4b3)" style="fill: none; stroke-dasharray: 5.55,2.4; stroke-dashoffset: 0; stroke: #0000ff; stroke-width: 1.5"/>
   </g>
   <g id="patch_3">
    <path d="M 57.6 307.584 
L 57.6 41.472 
" style="fill: none; stroke: #000000; stroke-width: 0.8; stroke-linejoin: miter; stroke-linecap: square"/>
   </g>
   <g id="patch_4">
    <path d="M 414.72 307.584 
L 414.72 41.472 
" style="fill: none; stroke: #000000; stroke-width: 0.8; stroke-linejoin: miter; stroke-linecap: square"/>
   </g>
   <g id="patch_5">
    <path d="M 57.6 307.584 
L 414.72 307.584 
" style="fill: none; stroke: #000000; stroke-width: 0.8; stroke-linejoin: miter; stroke-linecap: square"/>
   </g>
   <g id="patch_6">
    <path d="M 57.6 41.472 
L 414.72 41.472 
" style="fill: none; stroke: #000000; stroke-width: 0.8; stroke-linejoin: miter; stroke-linecap: square"/>
   </g>
   <g id="text_15">
    <!-- ROC CURVE -->
    <g transform="translate(200.855625 35.472)scale(0.12 -0.12)">
     <defs>
      <path id="DejaVuSans-4f" d="M 2522 4238 
Q 1834 4238 1429 3725 
Q 1025 3213 1025 2328 
Q 1025 1447 1429 934 
Q 1834 422 2522 422 
Q 3209 422 3611 934 
Q 4013 1447 4013 2328 
Q 4013 3213 3611 3725 
Q 3209 4238 2522 4238 
z
M 2522 4750 
Q 3503 4750 4090 4092 
Q 4678 3434 4678 2328 
Q 4678 1225 4090 567 
Q 3503 -91 2522 -91 
Q 1538 -91 948 565 
Q 359 1222 359 2328 
Q 359 3434 948 4092 
Q 1538 4750 2522 4750 
z
" transform="scale(0.015625)"/>
      <path id="DejaVuSans-43" d="M 4122 4306 
L 4122 3641 
Q 3803 3938 3442 4084 
Q 3081 4231 2675 4231 
Q 1875 4231 1450 3742 
Q 1025 3253 1025 2328 
Q 1025 1406 1450 917 
Q 1875 428 2675 428 
Q 3081 428 3442 575 
Q 3803 722 4122 1019 
L 4122 359 
Q 3791 134 3420 21 
Q 3050 -91 2638 -91 
Q 1578 -91 968 557 
Q 359 1206 359 2328 
Q 359 3453 968 4101 
Q 1578 4750 2638 4750 
Q 3056 4750 3426 4639 
Q 3797 4528 4122 4306 
z
" transform="scale(0.015625)"/>
      <path id="DejaVuSans-55" d="M 556 4666 
L 1191 4666 
L 1191 1831 
Q 1191 1081 1462 751 
Q 1734 422 2344 422 
Q 2950 422 3222 751 
Q 3494 1081 3494 1831 
L 3494 4666 
L 4128 4666 
L 4128 1753 
Q 4128 841 3676 375 
Q 3225 -91 2344 -91 
Q 1459 -91 1007 375 
Q 556 841 556 1753 
L 556 4666 
z
" transform="scale(0.015625)"/>
      <path id="DejaVuSans-56" d="M 1831 0 
L 50 4666 
L 709 4666 
L 2188 738 
L 3669 4666 
L 4325 4666 
L 2547 0 
L 1831 0 
z
" transform="scale(0.015625)"/>
      <path id="DejaVuSans-45" d="M 628 4666 
L 3578 4666 
L 3578 4134 
L 1259 4134 
L 1259 2753 
L 3481 2753 
L 3481 2222 
L 1259 2222 
L 1259 531 
L 3634 531 
L 3634 0 
L 628 0 
L 628 4666 
z
" transform="scale(0.015625)"/>
     </defs>
     <use xlink:href="#DejaVuSans-52"/>
     <use xlink:href="#DejaVuSans-4f" x="69.482422"/>
     <use xlink:href="#DejaVuSans-43" x="148.193359"/>
     <use xlink:href="#DejaVuSans-20" x="218.017578"/>
     <use xlink:href="#DejaVuSans-43" x="249.804688"/>
     <use xlink:href="#DejaVuSans-55" x="319.628906"/>
     <use xlink:href="#DejaVuSans-52" x="392.822266"/>
     <use xlink:href="#DejaVuSans-56" x="456.804688"/>
     <use xlink:href="#DejaVuSans-45" x="525.212891"/>
    </g>
   </g>
   <g id="legend_1">
    <g id="patch_7">
     <path d="M 234.97 302.584 
L 407.72 302.584 
Q 409.72 302.584 409.72 300.584 
L 409.72 286.905875 
Q 409.72 284.905875 407.72 284.905875 
L 234.97 284.905875 
Q 232.97 284.905875 232.97 286.905875 
L 232.97 300.584 
Q 232.97 302.584 234.97 302.584 
z
" style="fill: #ffffff; opacity: 0.8; stroke: #cccccc; stroke-linejoin: miter"/>
    </g>
    <g id="line2d_15">
     <path d="M 236.97 293.004312 
L 246.97 293.004312 
L 256.97 293.004312 
" style="fill: none; stroke: #ff8c00; stroke-width: 1.5; stroke-linecap: square"/>
    </g>
    <g id="text_16">
     <!-- ROC curve (ROC AUC=0.82) -->
     <g transform="translate(264.97 296.504312)scale(0.1 -0.1)">
      <defs>
       <path id="DejaVuSans-63" d="M 3122 3366 
L 3122 2828 
Q 2878 2963 2633 3030 
Q 2388 3097 2138 3097 
Q 1578 3097 1268 2742 
Q 959 2388 959 1747 
Q 959 1106 1268 751 
Q 1578 397 2138 397 
Q 2388 397 2633 464 
Q 2878 531 3122 666 
L 3122 134 
Q 2881 22 2623 -34 
Q 2366 -91 2075 -91 
Q 1284 -91 818 406 
Q 353 903 353 1747 
Q 353 2603 823 3093 
Q 1294 3584 2113 3584 
Q 2378 3584 2631 3529 
Q 2884 3475 3122 3366 
z
" transform="scale(0.015625)"/>
       <path id="DejaVuSans-28" d="M 1984 4856 
Q 1566 4138 1362 3434 
Q 1159 2731 1159 2009 
Q 1159 1288 1364 580 
Q 1569 -128 1984 -844 
L 1484 -844 
Q 1016 -109 783 600 
Q 550 1309 550 2009 
Q 550 2706 781 3412 
Q 1013 4119 1484 4856 
L 1984 4856 
z
" transform="scale(0.015625)"/>
       <path id="DejaVuSans-41" d="M 2188 4044 
L 1331 1722 
L 3047 1722 
L 2188 4044 
z
M 1831 4666 
L 2547 4666 
L 4325 0 
L 3669 0 
L 3244 1197 
L 1141 1197 
L 716 0 
L 50 0 
L 1831 4666 
z
" transform="scale(0.015625)"/>
       <path id="DejaVuSans-3d" d="M 678 2906 
L 4684 2906 
L 4684 2381 
L 678 2381 
L 678 2906 
z
M 678 1631 
L 4684 1631 
L 4684 1100 
L 678 1100 
L 678 1631 
z
" transform="scale(0.015625)"/>
       <path id="DejaVuSans-29" d="M 513 4856 
L 1013 4856 
Q 1481 4119 1714 3412 
Q 1947 2706 1947 2009 
Q 1947 1309 1714 600 
Q 1481 -109 1013 -844 
L 513 -844 
Q 928 -128 1133 580 
Q 1338 1288 1338 2009 
Q 1338 2731 1133 3434 
Q 928 4138 513 4856 
z
" transform="scale(0.015625)"/>
      </defs>
      <use xlink:href="#DejaVuSans-52"/>
      <use xlink:href="#DejaVuSans-4f" x="69.482422"/>
      <use xlink:href="#DejaVuSans-43" x="148.193359"/>
      <use xlink:href="#DejaVuSans-20" x="218.017578"/>
      <use xlink:href="#DejaVuSans-63" x="249.804688"/>
      <use xlink:href="#DejaVuSans-75" x="304.785156"/>
      <use xlink:href="#DejaVuSans-72" x="368.164062"/>
      <use xlink:href="#DejaVuSans-76" x="409.277344"/>
      <use xlink:href="#DejaVuSans-65" x="468.457031"/>
      <use xlink:href="#DejaVuSans-20" x="529.980469"/>
      <use xlink:href="#DejaVuSans-28" x="561.767578"/>
      <use xlink:href="#DejaVuSans-52" x="600.78125"/>
      <use xlink:href="#DejaVuSans-4f" x="670.263672"/>
      <use xlink:href="#DejaVuSans-43" x="748.974609"/>
      <use xlink:href="#DejaVuSans-20" x="818.798828"/>
      <use xlink:href="#DejaVuSans-41" x="850.585938"/>
      <use xlink:href="#DejaVuSans-55" x="918.994141"/>
      <use xlink:href="#DejaVuSans-43" x="992.1875"/>
      <use xlink:href="#DejaVuSans-3d" x="1062.011719"/>
      <use xlink:href="#DejaVuSans-30" x="1145.800781"/>
      <use xlink:href="#DejaVuSans-2e" x="1209.423828"/>
      <use xlink:href="#DejaVuSans-38" x="1241.210938"/>
      <use xlink:href="#DejaVuSans-32" x="1304.833984"/>
      <use xlink:href="#DejaVuSans-29" x="1368.457031"/>
     </g>
    </g>
   </g>
  </g>
 </g>
 <defs>
  <clipPath id="pbddeeef4b3">
   <rect x="57.6" y="41.472" width="357.12" height="266.112"/>
  </clipPath>
 </defs>
</svg>
