<?xml version="1.0" encoding="utf-8" standalone="no"?>
<!DOCTYPE svg PUBLIC "-//W3C//DTD SVG 1.1//EN"
  "http://www.w3.org/Graphics/SVG/1.1/DTD/svg11.dtd">
<svg xmlns:xlink="http://www.w3.org/1999/xlink" width="460.8pt" height="345.6pt" viewBox="0 0 460.8 345.6" xmlns="http://www.w3.org/2000/svg" version="1.1">
 <metadata>
  <rdf:RDF xmlns:dc="http://purl.org/dc/elements/1.1/" xmlns:cc="http://creativecommons.org/ns#" xmlns:rdf="http://www.w3.org/1999/02/22-rdf-syntax-ns#">
   <cc:Work>
    <dc:type rdf:resource="http://purl.org/dc/dcmitype/StillImage"/>
    <dc:date>2022-05-22T16:49:15.678511</dc:date>
    <dc:format>image/svg+xml</dc:format>
    <dc:creator>
     <cc:Agent>
      <dc:title>Matplotlib v3.5.1, https://matplotlib.org/</dc:title>
     </cc:Agent>
    </dc:creator>
   </cc:Work>
  </rdf:RDF>
 </metadata>
 <defs>
  <style type="text/css">*{stroke-linejoin: round; stroke-linecap: butt}</style>
 </defs>
 <g id="figure_1">
  <g id="patch_1">
   <path d="M 0 345.6 
L 460.8 345.6 
L 460.8 0 
L 0 0 
z
" style="fill: #ffffff"/>
  </g>
  <g id="axes_1">
   <g id="patch_2">
    <path d="M 57.6 307.584 
L 414.72 307.584 
L 414.72 41.472 
L 57.6 41.472 
z
" style="fill: #ffffff"/>
   </g>
   <g id="matplotlib.axis_1">
    <g id="xtick_1">
     <g id="line2d_1">
      <defs>
       <path id="mf57c81d302" d="M 0 0 
L 0 3.5 
" style="stroke: #000000; stroke-width: 0.8"/>
      </defs>
      <g>
       <use xlink:href="#mf57c81d302" x="74.605714" y="307.584" style="stroke: #000000; stroke-width: 0.8"/>
      </g>
     </g>
     <g id="text_1">
      <!-- 0.0 -->
      <g transform="translate(66.654152 322.182437)scale(0.1 -0.1)">
       <defs>
        <path id="DejaVuSans-30" d="M 2034 4250 
Q 1547 4250 1301 3770 
Q 1056 3291 1056 2328 
Q 1056 1369 1301 889 
Q 1547 409 2034 409 
Q 2525 409 2770 889 
Q 3016 1369 3016 2328 
Q 3016 3291 2770 3770 
Q 2525 4250 2034 4250 
z
M 2034 4750 
Q 2819 4750 3233 4129 
Q 3647 3509 3647 2328 
Q 3647 1150 3233 529 
Q 2819 -91 2034 -91 
Q 1250 -91 836 529 
Q 422 1150 422 2328 
Q 422 3509 836 4129 
Q 1250 4750 2034 4750 
z
" transform="scale(0.015625)"/>
        <path id="DejaVuSans-2e" d="M 684 794 
L 1344 794 
L 1344 0 
L 684 0 
L 684 794 
z
" transform="scale(0.015625)"/>
       </defs>
       <use xlink:href="#DejaVuSans-30"/>
       <use xlink:href="#DejaVuSans-2e" x="63.623047"/>
       <use xlink:href="#DejaVuSans-30" x="95.410156"/>
      </g>
     </g>
    </g>
    <g id="xtick_2">
     <g id="line2d_2">
      <g>
       <use xlink:href="#mf57c81d302" x="142.628571" y="307.584" style="stroke: #000000; stroke-width: 0.8"/>
      </g>
     </g>
     <g id="text_2">
      <!-- 0.2 -->
      <g transform="translate(134.677009 322.182437)scale(0.1 -0.1)">
       <defs>
        <path id="DejaVuSans-32" d="M 1228 531 
L 3431 531 
L 3431 0 
L 469 0 
L 469 531 
Q 828 903 1448 1529 
Q 2069 2156 2228 2338 
Q 2531 2678 2651 2914 
Q 2772 3150 2772 3378 
Q 2772 3750 2511 3984 
Q 2250 4219 1831 4219 
Q 1534 4219 1204 4116 
Q 875 4013 500 3803 
L 500 4441 
Q 881 4594 1212 4672 
Q 1544 4750 1819 4750 
Q 2544 4750 2975 4387 
Q 3406 4025 3406 3419 
Q 3406 3131 3298 2873 
Q 3191 2616 2906 2266 
Q 2828 2175 2409 1742 
Q 1991 1309 1228 531 
z
" transform="scale(0.015625)"/>
       </defs>
       <use xlink:href="#DejaVuSans-30"/>
       <use xlink:href="#DejaVuSans-2e" x="63.623047"/>
       <use xlink:href="#DejaVuSans-32" x="95.410156"/>
      </g>
     </g>
    </g>
    <g id="xtick_3">
     <g id="line2d_3">
      <g>
       <use xlink:href="#mf57c81d302" x="210.651429" y="307.584" style="stroke: #000000; stroke-width: 0.8"/>
      </g>
     </g>
     <g id="text_3">
      <!-- 0.4 -->
      <g transform="translate(202.699866 322.182437)scale(0.1 -0.1)">
       <defs>
        <path id="DejaVuSans-34" d="M 2419 4116 
L 825 1625 
L 2419 1625 
L 2419 4116 
z
M 2253 4666 
L 3047 4666 
L 3047 1625 
L 3713 1625 
L 3713 1100 
L 3047 1100 
L 3047 0 
L 2419 0 
L 2419 1100 
L 313 1100 
L 313 1709 
L 2253 4666 
z
" transform="scale(0.015625)"/>
       </defs>
       <use xlink:href="#DejaVuSans-30"/>
       <use xlink:href="#DejaVuSans-2e" x="63.623047"/>
       <use xlink:href="#DejaVuSans-34" x="95.410156"/>
      </g>
     </g>
    </g>
    <g id="xtick_4">
     <g id="line2d_4">
      <g>
       <use xlink:href="#mf57c81d302" x="278.674286" y="307.584" style="stroke: #000000; stroke-width: 0.8"/>
      </g>
     </g>
     <g id="text_4">
      <!-- 0.6 -->
      <g transform="translate(270.722723 322.182437)scale(0.1 -0.1)">
       <defs>
        <path id="DejaVuSans-36" d="M 2113 2584 
Q 1688 2584 1439 2293 
Q 1191 2003 1191 1497 
Q 1191 994 1439 701 
Q 1688 409 2113 409 
Q 2538 409 2786 701 
Q 3034 994 3034 1497 
Q 3034 2003 2786 2293 
Q 2538 2584 2113 2584 
z
M 3366 4563 
L 3366 3988 
Q 3128 4100 2886 4159 
Q 2644 4219 2406 4219 
Q 1781 4219 1451 3797 
Q 1122 3375 1075 2522 
Q 1259 2794 1537 2939 
Q 1816 3084 2150 3084 
Q 2853 3084 3261 2657 
Q 3669 2231 3669 1497 
Q 3669 778 3244 343 
Q 2819 -91 2113 -91 
Q 1303 -91 875 529 
Q 447 1150 447 2328 
Q 447 3434 972 4092 
Q 1497 4750 2381 4750 
Q 2619 4750 2861 4703 
Q 3103 4656 3366 4563 
z
" transform="scale(0.015625)"/>
       </defs>
       <use xlink:href="#DejaVuSans-30"/>
       <use xlink:href="#DejaVuSans-2e" x="63.623047"/>
       <use xlink:href="#DejaVuSans-36" x="95.410156"/>
      </g>
     </g>
    </g>
    <g id="xtick_5">
     <g id="line2d_5">
      <g>
       <use xlink:href="#mf57c81d302" x="346.697143" y="307.584" style="stroke: #000000; stroke-width: 0.8"/>
      </g>
     </g>
     <g id="text_5">
      <!-- 0.8 -->
      <g transform="translate(338.74558 322.182437)scale(0.1 -0.1)">
       <defs>
        <path id="DejaVuSans-38" d="M 2034 2216 
Q 1584 2216 1326 1975 
Q 1069 1734 1069 1313 
Q 1069 891 1326 650 
Q 1584 409 2034 409 
Q 2484 409 2743 651 
Q 3003 894 3003 1313 
Q 3003 1734 2745 1975 
Q 2488 2216 2034 2216 
z
M 1403 2484 
Q 997 2584 770 2862 
Q 544 3141 544 3541 
Q 544 4100 942 4425 
Q 1341 4750 2034 4750 
Q 2731 4750 3128 4425 
Q 3525 4100 3525 3541 
Q 3525 3141 3298 2862 
Q 3072 2584 2669 2484 
Q 3125 2378 3379 2068 
Q 3634 1759 3634 1313 
Q 3634 634 3220 271 
Q 2806 -91 2034 -91 
Q 1263 -91 848 271 
Q 434 634 434 1313 
Q 434 1759 690 2068 
Q 947 2378 1403 2484 
z
M 1172 3481 
Q 1172 3119 1398 2916 
Q 1625 2713 2034 2713 
Q 2441 2713 2670 2916 
Q 2900 3119 2900 3481 
Q 2900 3844 2670 4047 
Q 2441 4250 2034 4250 
Q 1625 4250 1398 4047 
Q 1172 3844 1172 3481 
z
" transform="scale(0.015625)"/>
       </defs>
       <use xlink:href="#DejaVuSans-30"/>
       <use xlink:href="#DejaVuSans-2e" x="63.623047"/>
       <use xlink:href="#DejaVuSans-38" x="95.410156"/>
      </g>
     </g>
    </g>
    <g id="xtick_6">
     <g id="line2d_6">
      <g>
       <use xlink:href="#mf57c81d302" x="414.72" y="307.584" style="stroke: #000000; stroke-width: 0.8"/>
      </g>
     </g>
     <g id="text_6">
      <!-- 1.0 -->
      <g transform="translate(406.768438 322.182437)scale(0.1 -0.1)">
       <defs>
        <path id="DejaVuSans-31" d="M 794 531 
L 1825 531 
L 1825 4091 
L 703 3866 
L 703 4441 
L 1819 4666 
L 2450 4666 
L 2450 531 
L 3481 531 
L 3481 0 
L 794 0 
L 794 531 
z
" transform="scale(0.015625)"/>
       </defs>
       <use xlink:href="#DejaVuSans-31"/>
       <use xlink:href="#DejaVuSans-2e" x="63.623047"/>
       <use xlink:href="#DejaVuSans-30" x="95.410156"/>
      </g>
     </g>
    </g>
    <g id="text_7">
     <!-- False Positive Rate -->
     <g transform="translate(189.693594 335.860562)scale(0.1 -0.1)">
      <defs>
       <path id="DejaVuSans-46" d="M 628 4666 
L 3309 4666 
L 3309 4134 
L 1259 4134 
L 1259 2759 
L 3109 2759 
L 3109 2228 
L 1259 2228 
L 1259 0 
L 628 0 
L 628 4666 
z
" transform="scale(0.015625)"/>
       <path id="DejaVuSans-61" d="M 2194 1759 
Q 1497 1759 1228 1600 
Q 959 1441 959 1056 
Q 959 750 1161 570 
Q 1363 391 1709 391 
Q 2188 391 2477 730 
Q 2766 1069 2766 1631 
L 2766 1759 
L 2194 1759 
z
M 3341 1997 
L 3341 0 
L 2766 0 
L 2766 531 
Q 2569 213 2275 61 
Q 1981 -91 1556 -91 
Q 1019 -91 701 211 
Q 384 513 384 1019 
Q 384 1609 779 1909 
Q 1175 2209 1959 2209 
L 2766 2209 
L 2766 2266 
Q 2766 2663 2505 2880 
Q 2244 3097 1772 3097 
Q 1472 3097 1187 3025 
Q 903 2953 641 2809 
L 641 3341 
Q 956 3463 1253 3523 
Q 1550 3584 1831 3584 
Q 2591 3584 2966 3190 
Q 3341 2797 3341 1997 
z
" transform="scale(0.015625)"/>
       <path id="DejaVuSans-6c" d="M 603 4863 
L 1178 4863 
L 1178 0 
L 603 0 
L 603 4863 
z
" transform="scale(0.015625)"/>
       <path id="DejaVuSans-73" d="M 2834 3397 
L 2834 2853 
Q 2591 2978 2328 3040 
Q 2066 3103 1784 3103 
Q 1356 3103 1142 2972 
Q 928 2841 928 2578 
Q 928 2378 1081 2264 
Q 1234 2150 1697 2047 
L 1894 2003 
Q 2506 1872 2764 1633 
Q 3022 1394 3022 966 
Q 3022 478 2636 193 
Q 2250 -91 1575 -91 
Q 1294 -91 989 -36 
Q 684 19 347 128 
L 347 722 
Q 666 556 975 473 
Q 1284 391 1588 391 
Q 1994 391 2212 530 
Q 2431 669 2431 922 
Q 2431 1156 2273 1281 
Q 2116 1406 1581 1522 
L 1381 1569 
Q 847 1681 609 1914 
Q 372 2147 372 2553 
Q 372 3047 722 3315 
Q 1072 3584 1716 3584 
Q 2034 3584 2315 3537 
Q 2597 3491 2834 3397 
z
" transform="scale(0.015625)"/>
       <path id="DejaVuSans-65" d="M 3597 1894 
L 3597 1613 
L 953 1613 
Q 991 1019 1311 708 
Q 1631 397 2203 397 
Q 2534 397 2845 478 
Q 3156 559 3463 722 
L 3463 178 
Q 3153 47 2828 -22 
Q 2503 -91 2169 -91 
Q 1331 -91 842 396 
Q 353 884 353 1716 
Q 353 2575 817 3079 
Q 1281 3584 2069 3584 
Q 2775 3584 3186 3129 
Q 3597 2675 3597 1894 
z
M 3022 2063 
Q 3016 2534 2758 2815 
Q 2500 3097 2075 3097 
Q 1594 3097 1305 2825 
Q 1016 2553 972 2059 
L 3022 2063 
z
" transform="scale(0.015625)"/>
       <path id="DejaVuSans-20" transform="scale(0.015625)"/>
       <path id="DejaVuSans-50" d="M 1259 4147 
L 1259 2394 
L 2053 2394 
Q 2494 2394 2734 2622 
Q 2975 2850 2975 3272 
Q 2975 3691 2734 3919 
Q 2494 4147 2053 4147 
L 1259 4147 
z
M 628 4666 
L 2053 4666 
Q 2838 4666 3239 4311 
Q 3641 3956 3641 3272 
Q 3641 2581 3239 2228 
Q 2838 1875 2053 1875 
L 1259 1875 
L 1259 0 
L 628 0 
L 628 4666 
z
" transform="scale(0.015625)"/>
       <path id="DejaVuSans-6f" d="M 1959 3097 
Q 1497 3097 1228 2736 
Q 959 2375 959 1747 
Q 959 1119 1226 758 
Q 1494 397 1959 397 
Q 2419 397 2687 759 
Q 2956 1122 2956 1747 
Q 2956 2369 2687 2733 
Q 2419 3097 1959 3097 
z
M 1959 3584 
Q 2709 3584 3137 3096 
Q 3566 2609 3566 1747 
Q 3566 888 3137 398 
Q 2709 -91 1959 -91 
Q 1206 -91 779 398 
Q 353 888 353 1747 
Q 353 2609 779 3096 
Q 1206 3584 1959 3584 
z
" transform="scale(0.015625)"/>
       <path id="DejaVuSans-69" d="M 603 3500 
L 1178 3500 
L 1178 0 
L 603 0 
L 603 3500 
z
M 603 4863 
L 1178 4863 
L 1178 4134 
L 603 4134 
L 603 4863 
z
" transform="scale(0.015625)"/>
       <path id="DejaVuSans-74" d="M 1172 4494 
L 1172 3500 
L 2356 3500 
L 2356 3053 
L 1172 3053 
L 1172 1153 
Q 1172 725 1289 603 
Q 1406 481 1766 481 
L 2356 481 
L 2356 0 
L 1766 0 
Q 1100 0 847 248 
Q 594 497 594 1153 
L 594 3053 
L 172 3053 
L 172 3500 
L 594 3500 
L 594 4494 
L 1172 4494 
z
" transform="scale(0.015625)"/>
       <path id="DejaVuSans-76" d="M 191 3500 
L 800 3500 
L 1894 563 
L 2988 3500 
L 3597 3500 
L 2284 0 
L 1503 0 
L 191 3500 
z
" transform="scale(0.015625)"/>
       <path id="DejaVuSans-52" d="M 2841 2188 
Q 3044 2119 3236 1894 
Q 3428 1669 3622 1275 
L 4263 0 
L 3584 0 
L 2988 1197 
Q 2756 1666 2539 1819 
Q 2322 1972 1947 1972 
L 1259 1972 
L 1259 0 
L 628 0 
L 628 4666 
L 2053 4666 
Q 2853 4666 3247 4331 
Q 3641 3997 3641 3322 
Q 3641 2881 3436 2590 
Q 3231 2300 2841 2188 
z
M 1259 4147 
L 1259 2491 
L 2053 2491 
Q 2509 2491 2742 2702 
Q 2975 2913 2975 3322 
Q 2975 3731 2742 3939 
Q 2509 4147 2053 4147 
L 1259 4147 
z
" transform="scale(0.015625)"/>
      </defs>
      <use xlink:href="#DejaVuSans-46"/>
      <use xlink:href="#DejaVuSans-61" x="48.394531"/>
      <use xlink:href="#DejaVuSans-6c" x="109.673828"/>
      <use xlink:href="#DejaVuSans-73" x="137.457031"/>
      <use xlink:href="#DejaVuSans-65" x="189.556641"/>
      <use xlink:href="#DejaVuSans-20" x="251.080078"/>
      <use xlink:href="#DejaVuSans-50" x="282.867188"/>
      <use xlink:href="#DejaVuSans-6f" x="339.544922"/>
      <use xlink:href="#DejaVuSans-73" x="400.726562"/>
      <use xlink:href="#DejaVuSans-69" x="452.826172"/>
      <use xlink:href="#DejaVuSans-74" x="480.609375"/>
      <use xlink:href="#DejaVuSans-69" x="519.818359"/>
      <use xlink:href="#DejaVuSans-76" x="547.601562"/>
      <use xlink:href="#DejaVuSans-65" x="606.78125"/>
      <use xlink:href="#DejaVuSans-20" x="668.304688"/>
      <use xlink:href="#DejaVuSans-52" x="700.091797"/>
      <use xlink:href="#DejaVuSans-61" x="767.324219"/>
      <use xlink:href="#DejaVuSans-74" x="828.603516"/>
      <use xlink:href="#DejaVuSans-65" x="867.8125"/>
     </g>
    </g>
   </g>
   <g id="matplotlib.axis_2">
    <g id="ytick_1">
     <g id="line2d_7">
      <defs>
       <path id="mff9dc45e2b" d="M 0 0 
L -3.5 0 
" style="stroke: #000000; stroke-width: 0.8"/>
      </defs>
      <g>
       <use xlink:href="#mff9dc45e2b" x="57.6" y="307.584" style="stroke: #000000; stroke-width: 0.8"/>
      </g>
     </g>
     <g id="text_8">
      <!-- 0.0 -->
      <g transform="translate(34.696875 311.383219)scale(0.1 -0.1)">
       <use xlink:href="#DejaVuSans-30"/>
       <use xlink:href="#DejaVuSans-2e" x="63.623047"/>
       <use xlink:href="#DejaVuSans-30" x="95.410156"/>
      </g>
     </g>
    </g>
    <g id="ytick_2">
     <g id="line2d_8">
      <g>
       <use xlink:href="#mff9dc45e2b" x="57.6" y="256.896" style="stroke: #000000; stroke-width: 0.8"/>
      </g>
     </g>
     <g id="text_9">
      <!-- 0.2 -->
      <g transform="translate(34.696875 260.695219)scale(0.1 -0.1)">
       <use xlink:href="#DejaVuSans-30"/>
       <use xlink:href="#DejaVuSans-2e" x="63.623047"/>
       <use xlink:href="#DejaVuSans-32" x="95.410156"/>
      </g>
     </g>
    </g>
    <g id="ytick_3">
     <g id="line2d_9">
      <g>
       <use xlink:href="#mff9dc45e2b" x="57.6" y="206.208" style="stroke: #000000; stroke-width: 0.8"/>
      </g>
     </g>
     <g id="text_10">
      <!-- 0.4 -->
      <g transform="translate(34.696875 210.007219)scale(0.1 -0.1)">
       <use xlink:href="#DejaVuSans-30"/>
       <use xlink:href="#DejaVuSans-2e" x="63.623047"/>
       <use xlink:href="#DejaVuSans-34" x="95.410156"/>
      </g>
     </g>
    </g>
    <g id="ytick_4">
     <g id="line2d_10">
      <g>
       <use xlink:href="#mff9dc45e2b" x="57.6" y="155.52" style="stroke: #000000; stroke-width: 0.8"/>
      </g>
     </g>
     <g id="text_11">
      <!-- 0.6 -->
      <g transform="translate(34.696875 159.319219)scale(0.1 -0.1)">
       <use xlink:href="#DejaVuSans-30"/>
       <use xlink:href="#DejaVuSans-2e" x="63.623047"/>
       <use xlink:href="#DejaVuSans-36" x="95.410156"/>
      </g>
     </g>
    </g>
    <g id="ytick_5">
     <g id="line2d_11">
      <g>
       <use xlink:href="#mff9dc45e2b" x="57.6" y="104.832" style="stroke: #000000; stroke-width: 0.8"/>
      </g>
     </g>
     <g id="text_12">
      <!-- 0.8 -->
      <g transform="translate(34.696875 108.631219)scale(0.1 -0.1)">
       <use xlink:href="#DejaVuSans-30"/>
       <use xlink:href="#DejaVuSans-2e" x="63.623047"/>
       <use xlink:href="#DejaVuSans-38" x="95.410156"/>
      </g>
     </g>
    </g>
    <g id="ytick_6">
     <g id="line2d_12">
      <g>
       <use xlink:href="#mff9dc45e2b" x="57.6" y="54.144" style="stroke: #000000; stroke-width: 0.8"/>
      </g>
     </g>
     <g id="text_13">
      <!-- 1.0 -->
      <g transform="translate(34.696875 57.943219)scale(0.1 -0.1)">
       <use xlink:href="#DejaVuSans-31"/>
       <use xlink:href="#DejaVuSans-2e" x="63.623047"/>
       <use xlink:href="#DejaVuSans-30" x="95.410156"/>
      </g>
     </g>
    </g>
    <g id="text_14">
     <!-- True Positive Rate -->
     <g transform="translate(28.617187 219.057687)rotate(-90)scale(0.1 -0.1)">
      <defs>
       <path id="DejaVuSans-54" d="M -19 4666 
L 3928 4666 
L 3928 4134 
L 2272 4134 
L 2272 0 
L 1638 0 
L 1638 4134 
L -19 4134 
L -19 4666 
z
" transform="scale(0.015625)"/>
       <path id="DejaVuSans-72" d="M 2631 2963 
Q 2534 3019 2420 3045 
Q 2306 3072 2169 3072 
Q 1681 3072 1420 2755 
Q 1159 2438 1159 1844 
L 1159 0 
L 581 0 
L 581 3500 
L 1159 3500 
L 1159 2956 
Q 1341 3275 1631 3429 
Q 1922 3584 2338 3584 
Q 2397 3584 2469 3576 
Q 2541 3569 2628 3553 
L 2631 2963 
z
" transform="scale(0.015625)"/>
       <path id="DejaVuSans-75" d="M 544 1381 
L 544 3500 
L 1119 3500 
L 1119 1403 
Q 1119 906 1312 657 
Q 1506 409 1894 409 
Q 2359 409 2629 706 
Q 2900 1003 2900 1516 
L 2900 3500 
L 3475 3500 
L 3475 0 
L 2900 0 
L 2900 538 
Q 2691 219 2414 64 
Q 2138 -91 1772 -91 
Q 1169 -91 856 284 
Q 544 659 544 1381 
z
M 1991 3584 
L 1991 3584 
z
" transform="scale(0.015625)"/>
      </defs>
      <use xlink:href="#DejaVuSans-54"/>
      <use xlink:href="#DejaVuSans-72" x="46.333984"/>
      <use xlink:href="#DejaVuSans-75" x="87.447266"/>
      <use xlink:href="#DejaVuSans-65" x="150.826172"/>
      <use xlink:href="#DejaVuSans-20" x="212.349609"/>
      <use xlink:href="#DejaVuSans-50" x="244.136719"/>
      <use xlink:href="#DejaVuSans-6f" x="300.814453"/>
      <use xlink:href="#DejaVuSans-73" x="361.996094"/>
      <use xlink:href="#DejaVuSans-69" x="414.095703"/>
      <use xlink:href="#DejaVuSans-74" x="441.878906"/>
      <use xlink:href="#DejaVuSans-69" x="481.087891"/>
      <use xlink:href="#DejaVuSans-76" x="508.871094"/>
      <use xlink:href="#DejaVuSans-65" x="568.050781"/>
      <use xlink:href="#DejaVuSans-20" x="629.574219"/>
      <use xlink:href="#DejaVuSans-52" x="661.361328"/>
      <use xlink:href="#DejaVuSans-61" x="728.59375"/>
      <use xlink:href="#DejaVuSans-74" x="789.873047"/>
      <use xlink:href="#DejaVuSans-65" x="829.082031"/>
     </g>
    </g>
   </g>
   <g id="line2d_13">
    <path d="M 74.605714 307.584 
L 74.630057 307.474303 
L 74.740656 306.774724 
L 74.741029 306.774724 
L 74.759193 306.665027 
L 74.870289 305.897146 
L 74.887541 305.787449 
L 74.998306 305.08787 
L 74.998637 305.08787 
L 75.020865 304.978173 
L 75.13134 304.355175 
L 75.131962 304.355175 
L 75.149089 304.245478 
L 75.259978 303.657666 
L 75.260144 303.657666 
L 75.285192 303.547969 
L 75.395417 302.949808 
L 75.396205 302.949808 
L 75.424944 302.840111 
L 75.535418 302.239881 
L 75.535999 302.239881 
L 75.555904 302.130183 
L 75.666379 301.604464 
L 75.666959 301.604464 
L 75.686367 301.494767 
L 75.796717 300.877979 
L 75.797464 300.877979 
L 75.827363 300.768281 
L 75.93705 300.238423 
L 75.93846 300.238423 
L 75.964337 300.128726 
L 76.074667 299.561612 
L 76.075434 299.561612 
L 76.098781 299.451914 
L 76.208924 298.899288 
L 76.209753 298.899288 
L 76.229907 298.789591 
L 76.340507 298.203849 
L 76.341004 298.203849 
L 76.360827 298.094152 
L 76.471218 297.611898 
L 76.471882 297.611898 
L 76.500205 297.502201 
L 76.611302 296.914389 
L 76.636806 296.804692 
L 76.747032 296.314159 
L 76.747778 296.314159 
L 76.769218 296.204461 
L 76.880107 295.682882 
L 76.880315 295.682882 
L 76.903911 295.573185 
L 77.014759 295.024698 
L 77.015007 295.024698 
L 77.036157 294.915001 
L 77.147171 294.368585 
L 77.168818 294.258887 
L 77.27809 293.764215 
L 77.279914 293.764215 
L 77.304506 293.654518 
L 77.414732 293.132938 
L 77.41554 293.132938 
L 77.433559 293.023241 
L 77.544407 292.464406 
L 77.544573 292.464406 
L 77.570035 292.354708 
L 77.680924 291.864175 
L 77.681049 291.864175 
L 77.703359 291.754478 
L 77.81429 291.249457 
L 77.814456 291.249457 
L 77.83801 291.13976 
L 77.948734 290.651296 
L 77.949107 290.651296 
L 77.969469 290.543669 
L 77.969469 290.541599 
L 78.080026 290.090391 
L 78.080565 290.090391 
L 78.106525 289.980694 
L 78.217207 289.49844 
L 78.217622 289.49844 
L 78.24325 289.388743 
L 78.354264 288.860954 
L 78.354347 288.860954 
L 78.377445 288.753327 
L 78.488293 288.229677 
L 78.488542 288.229677 
L 78.514212 288.11998 
L 78.625308 287.662563 
L 78.651683 287.552866 
L 78.762614 287.08924 
L 78.76278 287.08924 
L 78.79102 286.979543 
L 78.901868 286.491079 
L 78.902117 286.491079 
L 78.92704 286.380347 
L 79.037888 285.936384 
L 79.038137 285.936384 
L 79.062355 285.826687 
L 79.062355 285.825652 
L 79.196094 285.259572 
L 79.21911 285.149875 
L 79.329916 284.754551 
L 79.330206 284.754551 
L 79.355295 284.644854 
L 79.466226 284.16467 
L 79.466392 284.16467 
L 79.495338 284.054972 
L 79.605232 283.539602 
L 79.60631 283.539602 
L 79.635795 283.429905 
L 79.746829 282.947651 
L 79.77169 282.837954 
L 79.881418 282.335002 
L 79.882766 282.335002 
L 79.904061 282.225305 
L 80.01495 281.778237 
L 80.015158 281.778237 
L 80.042361 281.668539 
L 80.153375 281.204913 
L 80.153458 281.204913 
L 80.183524 281.095216 
L 80.294579 280.650218 
L 80.315148 280.539485 
L 80.426058 280.099662 
L 80.426244 280.099662 
L 80.45407 279.989964 
L 80.564421 279.534617 
L 80.565167 279.534617 
L 80.590381 279.42492 
L 80.701311 278.959224 
L 80.701477 278.959224 
L 80.723 278.849527 
L 80.833723 278.456272 
L 80.834076 278.456272 
L 80.86412 278.346575 
L 80.97389 277.885019 
L 80.975176 277.885019 
L 81.010757 277.775321 
L 81.12177 277.344811 
L 81.147938 277.235114 
L 81.259034 276.779767 
L 81.298513 276.67007 
L 81.409402 276.181607 
L 81.433828 276.071909 
L 81.544883 275.589655 
L 81.544925 275.589655 
L 81.573414 275.479958 
L 81.684304 275.02875 
L 81.684469 275.02875 
L 81.720465 274.921123 
L 81.720465 274.919053 
L 81.83094 274.467846 
L 81.83152 274.467846 
L 81.862415 274.358148 
L 81.973014 273.952475 
L 81.973512 273.952475 
L 82.004406 273.842778 
L 82.004406 273.841743 
L 82.124502 273.39364 
L 82.145423 273.282908 
L 82.265913 272.809968 
L 82.293718 272.700271 
L 82.409522 272.230435 
L 82.443381 272.119703 
L 82.563871 271.650903 
L 82.596673 271.541205 
L 82.707729 271.15416 
L 82.70777 271.15416 
L 82.736674 271.044463 
L 82.846402 270.64086 
L 82.847771 270.64086 
L 82.875763 270.531163 
L 82.986486 270.090304 
L 82.98686 270.090304 
L 83.0117 269.980607 
L 83.127939 269.463167 
L 83.156594 269.353469 
L 83.266696 268.910541 
L 83.267691 268.910541 
L 83.29589 268.800844 
L 83.29589 268.799809 
L 83.417022 268.299962 
L 83.57585 267.70801 
L 83.616408 267.598313 
L 83.726965 267.211268 
L 83.727484 267.211268 
L 83.752676 267.101571 
L 83.861409 266.648294 
L 83.863731 266.648294 
L 83.89305 266.538596 
L 84.012669 266.114296 
L 84.043377 266.004598 
L 84.154267 265.565809 
L 84.154432 265.565809 
L 84.193953 265.456112 
L 84.304718 264.996625 
L 84.30505 264.996625 
L 84.335032 264.886928 
L 84.44588 264.495744 
L 84.446087 264.495744 
L 84.478558 264.386046 
L 84.589323 263.982443 
L 84.589634 263.982443 
L 84.611115 263.871711 
L 84.721776 263.469143 
L 84.722191 263.469143 
L 84.747363 263.359445 
L 84.856386 262.895819 
L 84.85846 262.895819 
L 84.896902 262.785087 
L 85.006754 262.378379 
L 85.007998 262.378379 
L 85.044201 262.268682 
L 85.163882 261.840242 
L 85.206388 261.730545 
L 85.317402 261.345569 
L 85.345145 261.235872 
L 85.345145 261.234837 
L 85.475857 260.747409 
L 85.507871 260.637712 
L 85.618471 260.182364 
L 85.618947 260.182364 
L 85.643767 260.074737 
L 85.643767 260.072667 
L 85.754407 259.666994 
L 85.754822 259.666994 
L 85.787085 259.556262 
L 85.897892 259.130926 
L 85.898182 259.130926 
L 85.927791 259.021229 
L 86.03839 258.640393 
L 86.038888 258.640393 
L 86.075651 258.530696 
L 86.195332 258.098116 
L 86.219322 257.988419 
L 86.330252 257.605514 
L 86.330377 257.605514 
L 86.354491 257.495816 
L 86.474048 257.073585 
L 86.513091 256.963888 
L 86.628625 256.52096 
L 86.671836 256.411262 
L 86.782104 256.063543 
L 86.782892 256.063543 
L 86.816441 255.953845 
L 86.926252 255.517126 
L 86.927454 255.517126 
L 86.957395 255.407429 
L 87.067538 255.024523 
L 87.068492 255.024523 
L 87.096028 254.914826 
L 87.207041 254.507083 
L 87.238766 254.397386 
L 87.348929 254.01655 
L 87.349821 254.01655 
L 87.38424 253.906853 
L 87.495213 253.509459 
L 87.495337 253.509459 
L 87.528803 253.399762 
L 87.639775 253.006508 
L 87.639858 253.006508 
L 87.671624 252.89681 
L 87.782451 252.491138 
L 87.7827 252.491138 
L 87.819131 252.380405 
L 87.929025 251.95093 
L 87.93002 251.95093 
L 87.957431 251.840198 
L 88.068113 251.466606 
L 88.068528 251.466606 
L 88.098365 251.356909 
L 88.216989 250.980213 
L 88.253441 250.870516 
L 88.364288 250.466913 
L 88.364454 250.466913 
L 88.398293 250.357215 
L 88.508934 249.947403 
L 88.50939 249.947403 
L 88.544929 249.837706 
L 88.544929 249.836671 
L 88.664092 249.434102 
L 88.697019 249.32337 
L 88.80656 248.968407 
L 88.808095 248.968407 
L 88.844401 248.857674 
L 88.963294 248.469594 
L 89.14211 247.912829 
L 89.172155 247.802097 
L 89.302701 247.318808 
L 89.338199 247.209111 
L 89.449088 246.813787 
L 89.449254 246.813787 
L 89.487406 246.703055 
L 89.615194 246.288068 
L 89.657431 246.178371 
L 89.7672 245.865837 
L 89.768507 245.865837 
L 89.805767 245.75614 
L 89.91591 245.377374 
L 89.916864 245.377374 
L 89.948381 245.266641 
L 90.059436 244.89512 
L 90.059477 244.89512 
L 90.095058 244.785422 
L 90.213827 244.402517 
L 90.247375 244.29282 
L 90.358223 243.951309 
L 90.358472 243.951309 
L 90.393307 243.841612 
L 90.508467 243.435939 
L 90.54156 243.326242 
L 90.651952 242.951615 
L 90.652657 242.951615 
L 90.686475 242.841918 
L 90.801076 242.490059 
L 90.834127 242.380362 
L 90.944187 242.005735 
L 90.945224 242.005735 
L 90.985781 241.896038 
L 91.096359 241.508993 
L 91.096877 241.508993 
L 91.136792 241.398261 
L 91.24737 241.041227 
L 91.247889 241.041227 
L 91.288301 240.93153 
L 91.398775 240.575531 
L 91.399356 240.575531 
L 91.442422 240.464799 
L 91.55329 240.087068 
L 91.553498 240.087068 
L 91.592251 239.977371 
L 91.706707 239.64207 
L 91.740442 239.532372 
L 91.851497 239.197071 
L 91.886518 239.087374 
L 91.886518 239.086339 
L 92.005474 238.69205 
L 92.042133 238.582353 
L 92.152524 238.269819 
L 92.153229 238.269819 
L 92.190469 238.159087 
L 92.317345 237.766867 
L 92.352573 237.656135 
L 92.478143 237.294962 
L 92.509576 237.185265 
L 92.619802 236.814778 
L 92.620652 236.814778 
L 92.656337 236.705081 
L 92.767309 236.351152 
L 92.767434 236.351152 
L 92.805793 236.241454 
L 92.915562 235.879247 
L 92.916889 235.879247 
L 92.957239 235.768514 
L 93.068295 235.438388 
L 93.068336 235.438388 
L 93.116565 235.32869 
L 93.226791 235.024436 
L 93.227641 235.024436 
L 93.351572 234.598065 
L 93.390492 234.488368 
L 93.504056 234.117881 
L 93.544986 234.008184 
L 93.655875 233.616999 
L 93.656083 233.616999 
L 93.694193 233.506267 
L 93.804295 233.111978 
L 93.805248 233.111978 
L 93.83322 233.001246 
L 93.951076 232.66284 
L 93.993001 232.553143 
L 93.993001 232.552108 
L 94.111189 232.199214 
L 94.142685 232.089517 
L 94.142685 232.088482 
L 94.269727 231.692123 
L 94.305743 231.582425 
L 94.433428 231.170543 
L 94.470087 231.060846 
L 94.579981 230.729684 
L 94.581121 230.729684 
L 94.612991 230.619987 
L 94.728214 230.208105 
L 94.776629 230.098408 
L 94.895025 229.73206 
L 94.925795 229.622363 
L 95.040188 229.293271 
L 95.071436 229.183574 
L 95.181952 228.844133 
L 95.182532 228.844133 
L 95.226697 228.733401 
L 95.344678 228.390856 
L 95.38594 228.281159 
L 95.511717 227.916881 
L 95.552274 227.807184 
L 95.662935 227.451185 
L 95.663122 227.451185 
L 95.704674 227.341488 
L 95.815439 226.995838 
L 95.81573 226.995838 
L 95.850937 226.886141 
L 95.960997 226.563258 
L 95.961992 226.563258 
L 96.004665 226.452526 
L 96.115554 226.126539 
L 96.11572 226.126539 
L 96.151093 226.016842 
L 96.261775 225.702238 
L 96.262107 225.702238 
L 96.311 225.592541 
L 96.422096 225.269659 
L 96.459046 225.159961 
L 96.459046 225.158926 
L 96.582873 224.843288 
L 96.615095 224.733591 
L 96.725943 224.450034 
L 96.726171 224.450034 
L 96.770108 224.340336 
L 96.770108 224.339302 
L 96.888296 223.986408 
L 96.921181 223.87671 
L 97.031614 223.589014 
L 97.032237 223.589014 
L 97.080756 223.478282 
L 97.19177 223.148155 
L 97.191852 223.148155 
L 97.223577 223.038458 
L 97.223577 223.037423 
L 97.350556 222.641064 
L 97.380186 222.530332 
L 97.497482 222.214693 
L 97.5324 222.103961 
L 97.643331 221.817299 
L 97.643496 221.817299 
L 97.677481 221.707602 
L 97.788183 221.409557 
L 97.788577 221.409557 
L 97.826874 221.29986 
L 97.953978 220.902466 
L 97.995158 220.791734 
L 98.102833 220.484374 
L 98.106234 220.484374 
L 98.146936 220.374677 
L 98.270805 220.055934 
L 98.308418 219.945202 
L 98.418395 219.629563 
L 98.419515 219.629563 
L 98.456651 219.519866 
L 98.570401 219.250797 
L 98.601358 219.140065 
L 98.712413 218.834776 
L 98.712455 218.834776 
L 98.751291 218.725078 
L 98.865726 218.391847 
L 98.897741 218.281115 
L 99.014995 217.971686 
L 99.05775 217.861989 
L 99.171812 217.563943 
L 99.204656 217.454246 
L 99.31567 217.183108 
L 99.358093 217.07341 
L 99.358093 217.072375 
L 99.487105 216.777435 
L 99.517128 216.667737 
L 99.628122 216.375901 
L 99.628184 216.375901 
L 99.6704 216.266204 
L 99.780377 215.949531 
L 99.781413 215.949531 
L 99.816662 215.839834 
L 99.927427 215.556276 
L 99.927635 215.556276 
L 99.969104 215.446579 
L 100.078335 215.167162 
L 100.080118 215.167162 
L 100.116425 215.057464 
L 100.230942 214.713884 
L 100.273573 214.604187 
L 100.384462 214.302002 
L 100.38467 214.302002 
L 100.42475 214.192305 
L 100.535204 213.89012 
L 100.535826 213.89012 
L 100.571324 213.780423 
L 100.681467 213.480308 
L 100.682338 213.480308 
L 100.726088 213.371645 
L 100.726088 213.37061 
L 100.833908 213.11603 
L 100.837143 213.11603 
L 100.877244 213.006333 
L 100.988216 212.737264 
L 100.988341 212.737264 
L 101.026306 212.627567 
L 101.137133 212.327451 
L 101.137258 212.327451 
L 101.188887 212.217754 
L 101.299611 211.91143 
L 101.299942 211.91143 
L 101.346471 211.802767 
L 101.346471 211.801732 
L 101.463996 211.47471 
L 101.509156 211.363978 
L 101.620253 211.05041 
L 101.651085 210.940712 
L 101.772985 210.582644 
L 101.79994 210.472947 
L 101.79994 210.471912 
L 101.916427 210.203878 
L 101.954123 210.094181 
L 102.068185 209.794066 
L 102.106855 209.684368 
L 102.223281 209.419439 
L 102.270369 209.309742 
L 102.270369 209.308707 
L 102.387334 209.011696 
L 102.433199 208.900964 
L 102.544109 208.614303 
L 102.544234 208.614303 
L 102.583257 208.504605 
L 102.692694 208.229327 
L 102.694353 208.229327 
L 102.739513 208.11963 
L 102.857162 207.792608 
L 102.898715 207.682911 
L 103.008443 207.395214 
L 103.009811 207.395214 
L 103.052815 207.285517 
L 103.163083 206.970913 
L 103.163788 206.970913 
L 103.209902 206.861216 
L 103.320625 206.608705 
L 103.320998 206.608705 
L 103.368191 206.499008 
L 103.490899 206.207172 
L 103.52677 206.09644 
L 103.64303 205.836685 
L 103.687464 205.726988 
L 103.797026 205.433082 
L 103.798561 205.433082 
L 103.850149 205.323385 
L 103.850149 205.32235 
L 103.973437 205.01913 
L 104.019137 204.909433 
L 104.130151 204.627945 
L 104.171102 204.518248 
L 104.28506 204.230552 
L 104.321532 204.120854 
L 104.321532 204.119819 
L 104.445899 203.789693 
L 104.493071 203.678961 
L 104.610243 203.373671 
L 104.655735 203.263974 
L 104.766106 203.005254 
L 104.766831 203.005254 
L 104.805667 202.894522 
L 104.922404 202.612 
L 104.973681 202.502302 
L 105.083492 202.218745 
L 105.084695 202.218745 
L 105.135785 202.109048 
L 105.135785 202.108013 
L 105.251734 201.864816 
L 105.28578 201.755119 
L 105.396607 201.446725 
L 105.396835 201.446725 
L 105.450165 201.337028 
L 105.450165 201.335993 
L 105.572542 201.05554 
L 105.612435 200.945843 
L 105.721583 200.705751 
L 105.72349 200.705751 
L 105.772818 200.596054 
L 105.772818 200.595019 
L 105.895506 200.306287 
L 105.932248 200.19659 
L 106.043013 199.964777 
L 106.043344 199.964777 
L 106.090288 199.854045 
L 106.23116 199.486662 
L 106.281773 199.37593 
L 106.398468 199.095478 
L 106.440207 198.985781 
L 106.553875 198.724991 
L 106.607723 198.615294 
L 106.730825 198.317248 
L 106.790894 198.206516 
L 106.918164 197.940552 
L 106.957829 197.832925 
L 106.957829 197.830855 
L 107.06764 197.605251 
L 107.068926 197.605251 
L 107.115123 197.494519 
L 107.225763 197.236834 
L 107.22622 197.236834 
L 107.283157 197.127136 
L 107.391019 196.862207 
L 107.394171 196.862207 
L 107.449574 196.751475 
L 107.559883 196.477232 
L 107.560629 196.477232 
L 107.615245 196.367535 
L 107.731608 196.102605 
L 107.781143 195.992908 
L 107.903997 195.761095 
L 107.954092 195.653468 
L 107.954092 195.651398 
L 108.076551 195.369911 
L 108.12167 195.260213 
L 108.242802 194.926982 
L 108.307018 194.81625 
L 108.430576 194.506821 
L 108.471714 194.396089 
L 108.601098 194.094939 
L 108.646881 193.984206 
L 108.757604 193.691335 
L 108.757811 193.691335 
L 108.8032 193.581638 
L 108.916432 193.367418 
L 108.954978 193.256686 
L 109.068542 193.008315 
L 109.122328 192.898618 
L 109.238463 192.646107 
L 109.299112 192.53641 
L 109.407825 192.304596 
L 109.410209 192.304596 
L 109.454291 192.194899 
L 109.576336 191.923761 
L 109.614819 191.814063 
L 109.725875 191.565692 
L 109.725916 191.565692 
L 109.78134 191.455995 
L 109.894821 191.213833 
L 109.942636 191.103101 
L 110.052198 190.874393 
L 110.053732 190.874393 
L 110.099846 190.764695 
L 110.210819 190.532882 
L 110.210943 190.532882 
L 110.259131 190.42215 
L 110.380719 190.160325 
L 110.432183 190.050628 
L 110.54301 189.804327 
L 110.543238 189.804327 
L 110.598973 189.69463 
L 110.711977 189.504212 
L 110.76651 189.394514 
L 110.876715 189.166841 
L 110.877606 189.166841 
L 110.935373 189.057144 
L 111.04844 188.852237 
L 111.120451 188.74254 
L 111.23387 188.506588 
L 111.287449 188.397925 
L 111.287449 188.395855 
L 111.396514 188.102984 
L 111.398504 188.102984 
L 111.466348 187.993287 
L 111.579933 187.736637 
L 111.625052 187.62694 
L 111.744546 187.349592 
L 111.808223 187.23886 
L 111.917992 187.006012 
L 111.919278 187.006012 
L 111.968979 186.896315 
L 112.082398 186.664501 
L 112.126521 186.554804 
L 112.23992 186.325061 
L 112.28535 186.214329 
L 112.400821 185.995969 
L 112.456929 185.886272 
L 112.570224 185.662738 
L 112.633009 185.55304 
L 112.751819 185.29639 
L 112.802038 185.186693 
L 112.917489 184.969368 
L 112.970653 184.859671 
L 113.081003 184.650625 
L 113.08175 184.650625 
L 113.133296 184.539893 
L 113.241884 184.317394 
L 113.244352 184.317394 
L 113.311366 184.207697 
L 113.421571 183.988302 
L 113.422422 183.988302 
L 113.483755 183.878605 
L 113.483755 183.87757 
L 113.606422 183.590908 
L 113.665184 183.481211 
L 113.775617 183.272165 
L 113.776281 183.272165 
L 113.846032 183.161433 
L 113.956299 182.932725 
L 113.957108 182.932725 
L 114.01755 182.823028 
L 114.13325 182.593284 
L 114.188363 182.482552 
L 114.304104 182.251774 
L 114.346403 182.142077 
L 114.455882 181.949589 
L 114.457499 181.949589 
L 114.517506 181.838857 
L 114.627649 181.59359 
L 114.628603 181.59359 
L 114.688899 181.483893 
L 114.801945 181.274847 
L 114.877502 181.164115 
L 114.988267 180.939546 
L 114.988599 180.939546 
L 115.029301 180.829849 
L 115.142575 180.606315 
L 115.193956 180.496618 
L 115.304887 180.264805 
L 115.305052 180.264805 
L 115.366946 180.155107 
L 115.480157 179.943992 
L 115.533052 179.834295 
L 115.646325 179.61283 
L 115.705191 179.503133 
L 115.816205 179.236134 
L 115.816288 179.236134 
L 115.873474 179.126437 
L 115.984571 178.88117 
L 116.048144 178.770438 
L 116.159199 178.555183 
L 116.159241 178.555183 
L 116.209419 178.445486 
L 116.316596 178.265417 
L 116.320474 178.265417 
L 116.384088 178.154685 
L 116.508517 177.936325 
L 116.560624 177.826628 
L 116.676033 177.611373 
L 116.749973 177.500641 
L 116.861028 177.29056 
L 116.86107 177.29056 
L 116.921242 177.180863 
L 117.031385 176.980096 
L 117.032297 176.980096 
L 117.150485 176.746213 
L 117.205557 176.635481 
L 117.314559 176.419191 
L 117.316633 176.419191 
L 117.369403 176.309494 
L 117.47938 176.096309 
L 117.480499 176.096309 
L 117.536607 175.987646 
L 117.536607 175.986611 
L 117.649923 175.757903 
L 117.79828 175.454683 
L 117.837074 175.344986 
L 117.950224 175.13801 
L 118.010438 175.028313 
L 118.12622 174.79443 
L 118.181416 174.684733 
L 118.297116 174.454989 
L 118.363011 174.345292 
L 118.477964 174.152804 
L 118.533264 174.042072 
L 118.658916 173.803015 
L 118.717699 173.693318 
L 118.827884 173.471853 
L 118.828796 173.471853 
L 118.901782 173.361121 
L 119.020302 173.177948 
L 119.097415 173.06825 
L 119.210688 172.836437 
L 119.276687 172.725705 
L 119.387348 172.534252 
L 119.387722 172.534252 
L 119.448474 172.424555 
L 119.448474 172.42352 
L 119.562225 172.223788 
L 119.619577 172.114091 
L 119.619577 172.113056 
L 119.738968 171.907115 
L 119.799306 171.797418 
L 119.910237 171.563535 
L 119.910403 171.563535 
L 120.025854 171.34621 
L 120.084823 171.236513 
L 120.199673 171.050235 
L 120.268699 170.940537 
L 120.378303 170.735631 
L 120.379713 170.735631 
L 120.440673 170.624899 
L 120.549572 170.456214 
L 120.55177 170.456214 
L 120.612813 170.347551 
L 120.612813 170.346516 
L 120.723619 170.114703 
L 120.723909 170.114703 
L 120.795195 170.005006 
L 120.913964 169.814588 
L 120.973638 169.704891 
L 121.082869 169.495845 
L 121.084735 169.495845 
L 121.145281 169.386148 
L 121.25505 169.210218 
L 121.256315 169.210218 
L 121.327394 169.100521 
L 121.445146 168.879057 
L 121.508532 168.769359 
L 121.621246 168.601709 
L 121.744307 168.365756 
L 121.795045 168.256059 
L 121.908111 168.057362 
L 121.970855 167.947665 
L 122.07882 167.755177 
L 122.081931 167.755177 
L 122.139801 167.64548 
L 122.260809 167.448853 
L 122.338523 167.338121 
L 122.459365 167.096994 
L 122.522357 166.987296 
L 122.632583 166.792739 
L 122.633454 166.792739 
L 122.69516 166.682007 
L 122.805137 166.507112 
L 122.806257 166.507112 
L 122.88789 166.39638 
L 123.002532 166.219416 
L 123.052213 166.108683 
L 123.162003 165.9193 
L 123.163226 165.9193 
L 123.233476 165.809603 
L 123.344323 165.619185 
L 123.344572 165.619185 
L 123.424214 165.508453 
L 123.53274 165.267326 
L 123.53527 165.267326 
L 123.596126 165.157629 
L 123.706559 164.967211 
L 123.707223 164.967211 
L 123.760449 164.856479 
L 123.875506 164.656747 
L 123.942562 164.54705 
L 124.053659 164.344213 
L 124.125691 164.234516 
L 124.240292 164.060656 
L 124.316575 163.949924 
L 124.425764 163.752262 
L 124.427589 163.752262 
L 124.490332 163.642565 
L 124.601387 163.46974 
L 124.601408 163.46974 
L 124.672466 163.359008 
L 124.786549 163.209985 
L 124.857814 163.100288 
L 124.976085 162.959544 
L 125.049797 162.849847 
L 125.168897 162.65115 
L 125.248933 162.540418 
L 125.372346 162.338616 
L 125.465653 162.228919 
L 125.57847 162.052989 
L 125.647952 161.943292 
L 125.759008 161.765293 
L 125.759049 161.765293 
L 125.831164 161.654561 
L 125.941971 161.475526 
L 125.942261 161.475526 
L 126.02068 161.364794 
L 126.139034 161.18576 
L 126.233294 161.076063 
L 126.343872 160.862878 
L 126.344349 160.862878 
L 126.417252 160.75318 
L 126.527934 160.595879 
L 126.528349 160.595879 
L 126.606146 160.486181 
L 126.717243 160.293694 
L 126.798025 160.183996 
L 126.907422 160.020485 
L 126.909122 160.020485 
L 126.994217 159.910788 
L 127.10689 159.753486 
L 127.18197 159.643789 
L 127.18197 159.642754 
L 127.297131 159.440953 
L 127.36653 159.330221 
L 127.474745 159.169814 
L 127.477565 159.169814 
L 127.556087 159.060117 
L 127.556087 159.059082 
L 127.674441 158.877978 
L 127.742161 158.768281 
L 127.852552 158.598561 
L 127.853236 158.598561 
L 127.922967 158.488863 
L 128.033318 158.306724 
L 128.034023 158.306724 
L 128.127785 158.197027 
L 128.238737 158.048004 
L 128.238757 158.048004 
L 128.301832 157.937272 
L 128.410254 157.785145 
L 128.412888 157.785145 
L 128.493173 157.675448 
L 128.602984 157.491239 
L 128.604249 157.491239 
L 128.690775 157.381542 
L 128.800295 157.22838 
L 128.801851 157.22838 
L 128.874982 157.118682 
L 128.983964 156.951032 
L 128.986058 156.951032 
L 129.068707 156.841335 
L 129.182996 156.681963 
L 129.270062 156.572266 
L 129.384559 156.400476 
L 129.460158 156.290778 
L 129.582824 156.100361 
L 129.666385 155.990663 
L 129.776383 155.829222 
L 129.777482 155.829222 
L 129.842713 155.719525 
L 129.959222 155.541526 
L 130.036894 155.431828 
L 130.149753 155.251759 
L 130.233708 155.141027 
L 130.344598 154.98269 
L 130.344805 154.98269 
L 130.428677 154.872993 
L 130.543008 154.705343 
L 130.615746 154.595645 
L 130.726511 154.425925 
L 130.726822 154.425925 
L 130.799746 154.316228 
L 130.909557 154.171345 
L 130.910822 154.171345 
L 130.986172 154.061647 
L 131.098907 153.891927 
L 131.177118 153.78223 
L 131.292341 153.645626 
L 131.388944 153.534894 
L 131.49382 153.386906 
L 131.50002 153.386906 
L 131.576199 153.277208 
L 131.68881 153.124046 
L 131.7794 153.014349 
L 131.891513 152.854977 
L 131.977105 152.74528 
L 132.091852 152.561072 
L 132.160193 152.451374 
L 132.270751 152.298212 
L 132.27129 152.298212 
L 132.344774 152.188515 
L 132.459603 152.000167 
L 132.53458 151.890469 
L 132.647148 151.741447 
L 132.72086 151.63175 
L 132.72086 151.630715 
L 132.834964 151.478587 
L 132.905462 151.367855 
L 133.026262 151.209519 
L 133.109409 151.099821 
L 133.221977 150.93631 
L 133.298447 150.825578 
L 133.409316 150.669311 
L 133.409544 150.669311 
L 133.501274 150.559614 
L 133.612247 150.42094 
L 133.612288 150.42094 
L 133.689546 150.311243 
L 133.803545 150.16222 
L 133.900045 150.052523 
L 134.009006 149.911779 
L 134.0111 149.911779 
L 134.08616 149.802082 
L 134.202108 149.64271 
L 134.29612 149.531978 
L 134.426748 149.342595 
L 134.516405 149.232898 
L 134.516405 149.231863 
L 134.633971 149.071457 
L 134.721016 148.96176 
L 134.721016 148.960725 
L 134.835057 148.812737 
L 134.932759 148.702005 
L 135.041388 148.52711 
L 135.043856 148.52711 
L 135.131978 148.417413 
L 135.131978 148.416378 
L 135.246185 148.260111 
L 135.343576 148.150414 
L 135.455793 148.034507 
L 135.559072 147.92481 
L 135.668199 147.786136 
L 135.670086 147.786136 
L 135.772018 147.676439 
L 135.883115 147.546044 
L 135.980319 147.436347 
L 136.09407 147.303882 
L 136.164568 147.19315 
L 136.275208 147.043092 
L 136.275582 147.043092 
L 136.361983 146.93236 
L 136.479964 146.761605 
L 136.575199 146.651908 
L 136.685735 146.536001 
L 136.686295 146.536001 
L 136.793639 146.425269 
L 136.904383 146.297979 
L 136.904736 146.297979 
L 137.000385 146.188282 
L 137.112726 146.062026 
L 137.211506 145.952329 
L 137.322561 145.817795 
L 137.322603 145.817795 
L 137.398305 145.708097 
L 137.510708 145.575633 
L 137.593938 145.465935 
L 137.70746 145.34175 
L 137.778891 145.232053 
L 137.891543 145.076821 
L 137.996316 144.966089 
L 138.107412 144.808787 
L 138.223693 144.681497 
L 138.336573 144.570764 
L 138.45078 144.416567 
L 138.547569 144.30687 
L 138.658376 144.161987 
L 138.658604 144.161987 
L 138.762672 144.05229 
L 138.762672 144.051255 
L 138.881191 143.868081 
L 138.980946 143.757349 
L 139.084018 143.609361 
L 139.092022 143.609361 
L 139.185702 143.499664 
L 139.296508 143.381688 
L 139.296778 143.381688 
L 139.422036 143.270955 
L 139.536036 143.120898 
L 139.625361 143.011201 
L 139.72947 142.889085 
L 139.736416 142.889085 
L 139.855433 142.76076 
L 139.950668 142.651062 
L 140.063299 142.493761 
L 140.134274 142.384063 
L 140.241763 142.251599 
L 140.24535 142.251599 
L 140.324495 142.141901 
L 140.435425 142.013576 
L 140.43555 142.013576 
L 140.501362 141.903879 
L 140.609328 141.775554 
L 140.612459 141.775554 
L 140.714432 141.664822 
L 140.830173 141.54995 
L 140.921448 141.440253 
L 141.046146 141.309858 
L 141.138209 141.200161 
L 141.251897 141.071836 
L 141.367742 140.961104 
L 141.491674 140.804837 
L 141.572684 140.695139 
L 141.683677 140.558535 
L 141.683739 140.558535 
L 141.781193 140.447803 
L 141.890672 140.291536 
L 141.892289 140.291536 
L 141.981428 140.181839 
L 142.093582 140.076281 
L 142.176044 139.966584 
L 142.288157 139.865166 
L 142.37064 139.755469 
L 142.481114 139.641632 
L 142.481653 139.641632 
L 142.589184 139.531935 
L 142.698248 139.378772 
L 142.70028 139.378772 
L 142.809843 139.27011 
L 142.809843 139.26804 
L 142.920172 139.13661 
L 142.920939 139.13661 
L 143.015448 139.026913 
L 143.124202 138.900658 
L 143.126545 138.900658 
L 143.230551 138.790961 
L 143.340486 138.654356 
L 143.341626 138.654356 
L 143.437608 138.543624 
L 143.547564 138.410125 
L 143.548684 138.410125 
L 143.663471 138.299393 
L 143.777491 138.151405 
L 143.888878 138.041708 
L 143.998607 137.925801 
L 143.999975 137.925801 
L 144.107174 137.816104 
L 144.220841 137.687779 
L 144.328724 137.578081 
L 144.441086 137.449756 
L 144.532111 137.340059 
L 144.64242 137.184827 
L 144.643166 137.184827 
L 144.742175 137.07513 
L 144.857729 136.928177 
L 144.967002 136.81848 
L 145.077103 136.683945 
L 145.078057 136.683945 
L 145.194565 136.573213 
L 145.304231 136.447993 
L 145.30562 136.447993 
L 145.404878 136.338295 
L 145.404878 136.337261 
L 145.527088 136.230668 
L 145.64341 136.120971 
L 145.752143 136.019552 
L 145.754465 136.019552 
L 145.866267 135.909855 
L 145.866267 135.90882 
L 145.982091 135.791879 
L 146.09551 135.682182 
L 146.203787 135.547647 
L 146.206607 135.547647 
L 146.310986 135.436915 
L 146.420009 135.338602 
L 146.422041 135.338602 
L 146.533303 135.228904 
L 146.646391 135.123347 
L 146.758897 135.013649 
L 146.868294 134.903952 
L 146.869994 134.903952 
L 146.996061 134.79322 
L 147.107158 134.678348 
L 147.214937 134.568651 
L 147.327153 134.452744 
L 147.420626 134.343047 
L 147.534086 134.225071 
L 147.676036 134.115374 
L 147.788874 134.028444 
L 147.887821 133.918746 
L 147.996823 133.813189 
L 147.998917 133.813189 
L 148.106572 133.703491 
L 148.219286 133.618631 
L 148.337723 133.508934 
L 148.451722 133.364051 
L 148.543411 133.256423 
L 148.543411 133.254354 
L 148.654487 133.140517 
L 148.760234 133.030819 
L 148.760234 133.029785 
L 148.881056 132.912843 
L 148.981412 132.802111 
L 149.089523 132.664472 
L 149.092467 132.664472 
L 149.232841 132.554775 
L 149.347338 132.443008 
L 149.45236 132.332276 
L 149.565592 132.223613 
L 149.636588 132.113916 
L 149.749717 132.012498 
L 149.867428 131.901766 
L 149.991214 131.747569 
L 150.107598 131.637871 
L 150.214341 131.540593 
L 150.218695 131.540593 
L 150.337629 131.430895 
L 150.451505 131.292221 
L 150.557915 131.182524 
L 150.557915 131.181489 
L 150.671251 131.070757 
L 150.77762 130.96106 
L 150.77762 130.960025 
L 150.895228 130.799619 
L 151.03328 130.689921 
L 151.143381 130.561596 
L 151.144335 130.561596 
L 151.255017 130.451899 
L 151.365865 130.35876 
L 151.366072 130.35876 
L 151.509308 130.249063 
L 151.620321 130.160063 
L 151.757689 130.050366 
L 151.859911 129.92204 
L 151.868765 129.92204 
L 152.033378 129.812343 
L 152.143791 129.688158 
L 152.144454 129.688158 
L 152.267183 129.57846 
L 152.267183 129.577426 
L 152.380125 129.485321 
L 152.493503 129.375624 
L 152.607087 129.249369 
L 152.720092 129.139671 
L 152.83434 129.034114 
L 152.969883 128.923381 
L 153.079508 128.827138 
L 153.080959 128.827138 
L 153.207399 128.71744 
L 153.315655 128.603604 
L 153.318496 128.603604 
L 153.435357 128.493906 
L 153.544546 128.409046 
L 153.546371 128.409046 
L 153.680732 128.299349 
L 153.790211 128.189652 
L 153.791787 128.189652 
L 153.93324 128.079954 
L 154.043963 127.966118 
L 154.044336 127.966118 
L 154.176686 127.85642 
L 154.289545 127.76949 
L 154.43249 127.659793 
L 154.543463 127.550096 
L 154.543546 127.550096 
L 154.677534 127.440399 
L 154.787759 127.34312 
L 154.788506 127.34312 
L 154.915154 127.232388 
L 155.024903 127.111307 
L 155.02625 127.111307 
L 155.135792 127.00161 
L 155.247967 126.891912 
L 155.372935 126.782215 
L 155.48482 126.689076 
L 155.592412 126.578344 
L 155.705769 126.463472 
L 155.793353 126.353775 
L 155.902334 126.235799 
L 155.904449 126.235799 
L 156.034456 126.126101 
L 156.13842 126.020544 
L 156.145553 126.020544 
L 156.295423 125.910846 
L 156.295423 125.909811 
L 156.410335 125.815637 
L 156.54988 125.70594 
L 156.657825 125.600382 
L 156.660956 125.600382 
L 156.789553 125.48965 
L 156.906497 125.395476 
L 157.034907 125.285779 
L 157.034907 125.284744 
L 157.148201 125.176082 
L 157.272527 125.066384 
L 157.383209 124.977385 
L 157.383582 124.977385 
L 157.513299 124.867687 
L 157.625868 124.795246 
L 157.748057 124.685549 
L 157.85903 124.596549 
L 157.984931 124.488921 
L 157.984931 124.486852 
L 158.092917 124.393712 
L 158.095986 124.393712 
L 158.227631 124.284015 
L 158.339702 124.184667 
L 158.476303 124.074969 
L 158.58997 124.012877 
L 158.747306 123.903179 
L 158.847786 123.80797 
L 158.858402 123.80797 
L 158.989425 123.697238 
L 159.097723 123.623762 
L 159.10048 123.623762 
L 159.263186 123.514065 
L 159.373349 123.406437 
L 159.374283 123.406437 
L 159.555317 123.29674 
L 159.667472 123.189112 
L 159.808447 123.079415 
L 159.924043 122.990415 
L 160.045466 122.880718 
L 160.045466 122.879683 
L 160.160502 122.783439 
L 160.31792 122.673742 
L 160.420225 122.578533 
L 160.428872 122.578533 
L 160.568645 122.468836 
L 160.677004 122.392255 
L 160.679741 122.392255 
L 160.854494 122.282558 
L 160.962522 122.193558 
L 160.965549 122.193558 
L 161.083281 122.082826 
L 161.19276 121.986582 
L 161.194377 121.986582 
L 161.382524 121.876885 
L 161.494513 121.785815 
L 161.641045 121.676118 
L 161.641045 121.675083 
L 161.758113 121.57677 
L 161.876447 121.467072 
L 161.988518 121.367724 
L 162.140794 121.258027 
L 162.140794 121.256992 
L 162.255726 121.162818 
L 162.40906 121.05312 
L 162.517793 120.945493 
L 162.520053 120.945493 
L 162.677782 120.835796 
L 162.788526 120.750935 
L 162.788796 120.750935 
L 162.920005 120.641238 
L 163.029236 120.552239 
L 163.031102 120.552239 
L 163.165214 120.441506 
L 163.261133 120.353542 
L 163.27629 120.353542 
L 163.454712 120.243844 
L 163.563279 120.148635 
L 163.565809 120.148635 
L 163.717795 120.038938 
L 163.828186 119.906474 
L 163.828891 119.906474 
L 163.970344 119.796776 
L 164.081399 119.711916 
L 164.08142 119.711916 
L 164.231435 119.601184 
L 164.346949 119.492522 
L 164.484316 119.381789 
L 164.599975 119.268988 
L 164.794549 119.15929 
L 164.903904 119.062012 
L 164.905584 119.062012 
L 165.05477 118.952314 
L 165.163254 118.888152 
L 165.165867 118.888152 
L 165.324405 118.780524 
L 165.324405 118.779489 
L 165.436061 118.691525 
L 165.591053 118.581827 
L 165.702938 118.496967 
L 165.865415 118.38727 
L 165.975185 118.306549 
L 165.976471 118.306549 
L 166.101294 118.196852 
L 166.208202 118.122341 
L 166.212349 118.122341 
L 166.343392 118.012643 
L 166.455878 117.944341 
L 166.632435 117.834644 
L 166.737477 117.731156 
L 166.743448 117.731156 
L 166.90634 117.621459 
L 167.016649 117.52418 
L 167.017437 117.52418 
L 167.166686 117.414483 
L 167.27347 117.35653 
L 167.277762 117.35653 
L 167.4493 117.246832 
L 167.555711 117.153693 
L 167.560397 117.153693 
L 167.726669 117.043996 
L 167.840316 116.961206 
L 168.020459 116.851508 
L 168.128632 116.766648 
L 168.131514 116.766648 
L 168.291877 116.656951 
L 168.402517 116.58244 
L 168.402974 116.58244 
L 168.542228 116.472742 
L 168.648556 116.375464 
L 168.653325 116.375464 
L 168.784617 116.265766 
L 168.784617 116.264731 
L 168.897165 116.191255 
L 169.059684 116.081558 
L 169.170117 115.990488 
L 169.170781 115.990488 
L 169.348312 115.880791 
L 169.450368 115.810419 
L 169.459367 115.810419 
L 169.586885 115.700722 
L 169.693628 115.626211 
L 169.697858 115.626211 
L 169.822847 115.516513 
L 169.935623 115.431653 
L 170.101646 115.321956 
L 170.210047 115.220538 
L 170.212743 115.220538 
L 170.324544 115.148096 
L 170.469148 115.038399 
L 170.579374 114.94319 
L 170.580245 114.94319 
L 170.708717 114.833493 
L 170.818031 114.742423 
L 170.819814 114.742423 
L 170.963381 114.632726 
L 171.073317 114.552005 
L 171.074478 114.552005 
L 171.237702 114.442308 
L 171.345771 114.359518 
L 171.348799 114.359518 
L 171.518471 114.248786 
L 171.628925 114.183588 
L 171.629464 114.183588 
L 171.774566 114.073891 
L 171.881557 114.007659 
L 171.885662 114.007659 
L 172.068315 113.897961 
L 172.181091 113.813101 
L 172.278586 113.703404 
L 172.278586 113.702369 
L 172.392751 113.626823 
L 172.543493 113.517125 
L 172.656207 113.432265 
L 172.824448 113.322568 
L 172.824448 113.321533 
L 172.937245 113.237708 
L 173.07878 113.128011 
L 173.07878 113.126976 
L 173.198192 113.026592 
L 173.345802 112.91586 
L 173.456816 112.842384 
L 173.456899 112.842384 
L 173.609009 112.732687 
L 173.718945 112.649896 
L 173.720085 112.649896 
L 173.872257 112.540199 
L 173.981488 112.471897 
L 173.983354 112.471897 
L 174.142763 112.3622 
L 174.253714 112.2732 
L 174.253818 112.2732 
L 174.371093 112.173851 
L 174.496082 112.064154 
L 174.603613 112.004131 
L 174.607138 112.004131 
L 174.75311 111.894434 
L 174.863875 111.799225 
L 174.864186 111.799225 
L 175.053805 111.689528 
L 175.165566 111.619156 
L 175.318878 111.509459 
L 175.430638 111.441157 
L 175.576196 111.331459 
L 175.686422 111.256948 
L 175.687293 111.256948 
L 175.808964 111.147251 
L 175.915748 111.056181 
L 175.92002 111.056181 
L 176.080465 110.946484 
L 176.190981 110.884391 
L 176.191562 110.884391 
L 176.360135 110.774694 
L 176.471978 110.700183 
L 176.644844 110.58945 
L 176.753058 110.524253 
L 176.75594 110.524253 
L 176.92103 110.413521 
L 177.03194 110.329696 
L 177.032127 110.329696 
L 177.170718 110.218963 
L 177.28281 110.168254 
L 177.403756 110.058557 
L 177.511079 109.984046 
L 177.514852 109.984046 
L 177.684504 109.874348 
L 177.794232 109.810186 
L 177.795559 109.810186 
L 177.941034 109.700489 
L 177.941034 109.699454 
L 178.053707 109.607349 
L 178.223607 109.497652 
L 178.331635 109.439699 
L 178.334704 109.439699 
L 178.542507 109.330002 
L 178.65236 109.25756 
L 178.653542 109.25756 
L 178.761839 109.147863 
L 178.863937 109.096119 
L 178.872936 109.096119 
L 179.035206 108.986422 
L 179.145639 108.907771 
L 179.146303 108.907771 
L 179.285267 108.798073 
L 179.393834 108.715283 
L 179.396322 108.715283 
L 179.579659 108.605586 
L 179.689179 108.539353 
L 179.690755 108.539353 
L 179.857172 108.429656 
L 179.968186 108.363424 
L 179.968248 108.363424 
L 180.161309 108.253727 
L 180.266372 108.187494 
L 180.272406 108.187494 
L 180.416181 108.077797 
L 180.52454 107.997076 
L 180.527277 107.997076 
L 180.677065 107.887379 
L 180.677065 107.886344 
L 180.790691 107.825286 
L 181.006582 107.715589 
L 181.117575 107.639008 
L 181.117678 107.639008 
L 181.346714 107.529311 
L 181.457272 107.473427 
L 181.457811 107.473427 
L 181.62091 107.362695 
L 181.729726 107.295428 
L 181.732007 107.295428 
L 181.938421 107.185731 
L 181.938421 107.184696 
L 182.055883 107.10915 
L 182.171314 106.999452 
L 182.283053 106.92908 
L 182.490815 106.819383 
L 182.600108 106.746942 
L 182.601912 106.746942 
L 182.791842 106.636209 
L 182.90269 106.564803 
L 182.902856 106.564803 
L 183.079806 106.455106 
L 183.186922 106.341269 
L 183.190861 106.341269 
L 183.421432 106.231571 
L 183.520461 106.163269 
L 183.532445 106.163269 
L 183.702014 106.053572 
L 183.812385 105.991479 
L 183.813028 105.991479 
L 183.974614 105.880747 
L 184.088157 105.821759 
L 184.246218 105.711027 
L 184.350928 105.645829 
L 184.357314 105.645829 
L 184.56968 105.536132 
L 184.56968 105.535097 
L 184.683928 105.455412 
L 184.833799 105.345714 
L 184.833799 105.344679 
L 184.945725 105.302249 
L 185.113054 105.192552 
L 185.221082 105.12425 
L 185.224151 105.12425 
L 185.400645 105.014553 
L 185.400645 105.013518 
L 185.513151 104.942111 
L 185.69597 104.832414 
L 185.807585 104.78067 
L 186.000231 104.670973 
L 186.111888 104.615089 
L 186.268186 104.505392 
L 186.378288 104.43709 
L 186.379283 104.43709 
L 186.575122 104.327393 
L 186.687318 104.271509 
L 186.915027 104.161812 
L 187.026621 104.110068 
L 187.218417 104.000371 
L 187.329286 103.942417 
L 187.329473 103.942417 
L 187.471672 103.83272 
L 187.58422 103.756139 
L 187.80604 103.645407 
L 187.916432 103.563651 
L 187.917137 103.563651 
L 188.103791 103.453954 
L 188.216442 103.377373 
L 188.370232 103.267676 
L 188.370232 103.266641 
L 188.484149 103.222141 
L 188.667692 103.112444 
L 188.776674 103.068979 
L 188.778748 103.068979 
L 189.012387 102.959281 
L 189.119419 102.88891 
L 189.123442 102.88891 
L 189.335144 102.779212 
L 189.44342 102.71712 
L 189.446157 102.71712 
L 189.705424 102.607422 
L 189.814904 102.54533 
L 189.8165 102.54533 
L 190.05609 102.435632 
L 190.167933 102.390098 
L 190.346501 102.279365 
L 190.455483 102.226587 
L 190.457598 102.226587 
L 190.627539 102.116889 
L 190.739714 102.063076 
L 190.946523 101.952343 
L 191.059776 101.899565 
L 191.253583 101.788832 
L 191.366028 101.717426 
L 191.628198 101.606694 
L 191.732286 101.551845 
L 191.739294 101.551845 
L 191.961737 101.442148 
L 192.072294 101.400752 
L 192.072833 101.400752 
L 192.304648 101.291055 
L 192.41815 101.233102 
L 192.615005 101.12237 
L 192.728466 101.065451 
L 192.970233 100.955754 
L 192.970233 100.954719 
L 193.08249 100.897801 
L 193.31078 100.788104 
L 193.410224 100.73222 
L 193.421877 100.73222 
L 193.743224 100.622523 
L 193.850795 100.570779 
L 193.85432 100.570779 
L 194.074689 100.461082 
L 194.184376 100.411407 
L 194.185744 100.411407 
L 194.453222 100.30171 
L 194.453222 100.300675 
L 194.566019 100.260315 
L 194.749522 100.150618 
L 194.856015 100.113362 
L 194.860618 100.113362 
L 195.100395 100.003665 
L 195.100395 100.00263 
L 195.212404 99.95813 
L 195.453093 99.848433 
L 195.561411 99.790479 
L 195.564189 99.790479 
L 195.833637 99.680782 
L 195.945273 99.626968 
L 196.156747 99.517271 
L 196.268424 99.459318 
L 196.539883 99.349621 
L 196.651394 99.302016 
L 196.94873 99.192319 
L 197.053938 99.150924 
L 197.059786 99.150924 
L 197.311754 99.040192 
L 197.418372 98.987413 
L 197.422851 98.987413 
L 197.676271 98.877715 
L 197.784216 98.825971 
L 197.787367 98.825971 
L 198.0276 98.716274 
L 198.128143 98.6666 
L 198.138614 98.6666 
L 198.39672 98.556903 
L 198.508978 98.498949 
L 198.729968 98.389252 
L 198.83443 98.333369 
L 198.841024 98.333369 
L 199.128241 98.223671 
L 199.231376 98.184346 
L 199.239255 98.184346 
L 199.480981 98.074649 
L 199.590543 98.031184 
L 199.592077 98.031184 
L 199.857067 97.921486 
L 199.969304 97.865603 
L 200.330524 97.755906 
L 200.427438 97.724859 
L 200.441621 97.724859 
L 200.771676 97.615162 
L 200.883354 97.579976 
L 201.174303 97.470279 
L 201.28005 97.435093 
L 201.2854 97.435093 
L 201.661155 97.325396 
L 201.765824 97.28814 
L 201.77221 97.28814 
L 202.178321 97.178443 
L 202.286888 97.153606 
L 202.289293 97.153606 
L 202.640415 97.043908 
L 202.751263 97.000443 
L 202.751387 97.000443 
L 203.164879 96.890746 
L 203.274027 96.839002 
L 203.275976 96.839002 
L 203.608582 96.729305 
L 203.720093 96.68791 
L 204.133482 96.578212 
L 204.244495 96.553375 
L 204.244537 96.553375 
L 204.67076 96.443678 
L 204.771406 96.42712 
L 204.781815 96.42712 
L 205.286125 96.317423 
L 205.397139 96.286376 
L 205.397222 96.286376 
L 205.916047 96.176679 
L 205.995668 96.158051 
L 206.027143 96.158051 
L 206.710104 96.048354 
L 206.796485 96.027656 
L 206.821201 96.027656 
L 207.514156 95.917959 
L 207.624008 95.893122 
L 207.625211 95.893122 
L 208.207069 95.783425 
L 208.315968 95.760657 
L 208.318124 95.760657 
L 208.821356 95.65096 
L 208.88157 95.632332 
L 208.932411 95.632332 
L 209.428884 95.522635 
L 209.537036 95.510216 
L 209.53998 95.510216 
L 210.045535 95.400519 
L 210.154019 95.369473 
L 210.156217 95.369473 
L 210.736789 95.259776 
L 210.842785 95.241148 
L 210.847637 95.241148 
L 211.452221 95.13145 
L 211.56311 95.108683 
L 211.563234 95.108683 
L 212.147415 94.998986 
L 212.259838 94.9638 
L 212.780654 94.854103 
L 212.892331 94.827196 
L 213.375865 94.717499 
L 213.47958 94.680243 
L 213.486961 94.680243 
L 213.96527 94.570546 
L 214.072303 94.539499 
L 214.076367 94.539499 
L 214.446316 94.429802 
L 214.549534 94.390476 
L 214.55733 94.390476 
L 214.977789 94.280779 
L 215.082603 94.241454 
L 215.088595 94.241454 
L 215.465345 94.131757 
L 215.571963 94.10485 
L 215.576401 94.10485 
L 215.893808 93.995152 
L 215.994247 93.970315 
L 216.004697 93.970315 
L 216.347401 93.860618 
L 216.454475 93.823362 
L 216.458415 93.823362 
L 216.788968 93.713665 
L 216.897411 93.680549 
L 216.900065 93.680549 
L 217.23041 93.570852 
L 217.330393 93.517038 
L 217.341217 93.517038 
L 217.614003 93.407341 
L 217.725722 93.370085 
L 218.002406 93.260388 
L 218.112922 93.202434 
L 218.113295 93.202434 
L 218.497883 93.092737 
L 218.60927 93.049272 
L 218.811931 92.939575 
L 218.91743 92.912668 
L 218.922987 92.912668 
L 219.224718 92.802971 
L 219.326982 92.761576 
L 219.335732 92.761576 
L 219.668359 92.651878 
L 219.780575 92.591855 
L 220.086371 92.482158 
L 220.198422 92.426275 
L 220.50853 92.316577 
L 220.62394 92.258624 
L 220.871678 92.148927 
L 220.985097 92.093043 
L 221.270366 91.983346 
L 221.378933 91.95023 
L 221.381214 91.95023 
L 221.711518 91.840533 
L 221.821619 91.77637 
L 221.822615 91.77637 
L 222.109107 91.666673 
L 222.222007 91.60458 
L 222.502921 91.494883 
L 222.593615 91.43486 
L 222.613977 91.43486 
L 222.884399 91.325162 
L 222.996678 91.267209 
L 223.236143 91.157512 
L 223.344586 91.111977 
L 223.347157 91.111977 
L 223.632176 91.001245 
L 223.736182 90.956745 
L 223.743232 90.956745 
L 223.998227 90.847048 
L 224.106919 90.770467 
L 224.109241 90.770467 
L 224.367389 90.66077 
L 224.474836 90.625584 
L 224.478465 90.625584 
L 224.59122 90.57177 
L 224.812356 90.462073 
L 224.92308 90.412398 
L 224.923453 90.412398 
L 225.14038 90.302701 
L 225.245919 90.255097 
L 225.251455 90.255097 
L 225.463344 90.145399 
L 225.576307 90.099865 
L 225.832878 89.990167 
L 225.945032 89.954982 
L 226.229824 89.845284 
L 226.340174 89.812168 
L 226.340921 89.812168 
L 226.610928 89.702471 
L 226.72302 89.652797 
L 226.98038 89.543099 
L 227.090191 89.495495 
L 227.091373 89.495495 
L 227.309564 89.385798 
L 227.418878 89.340263 
L 227.420537 89.340263 
L 227.654922 89.230566 
L 227.761105 89.174682 
L 227.765936 89.174682 
L 228.05448 89.06395 
L 228.169434 89.002892 
L 228.413772 88.893195 
L 228.5026 88.843521 
L 228.524869 88.843521 
L 228.796535 88.733823 
L 228.796535 88.732788 
L 228.910244 88.690358 
L 229.119437 88.580661 
L 229.230886 88.539266 
L 229.466391 88.429569 
L 229.466391 88.428534 
L 229.581842 88.377825 
L 229.834267 88.269162 
L 229.834267 88.267093 
L 229.945239 88.228802 
L 229.94526 88.228802 
L 230.193973 88.119105 
L 230.306252 88.061151 
L 230.606138 87.951454 
L 230.606138 87.950419 
L 230.721465 87.90178 
L 230.925868 87.791048 
L 231.027572 87.742408 
L 231.036882 87.742408 
L 231.249039 87.632711 
L 231.360551 87.587177 
L 231.621104 87.476444 
L 231.739084 87.425735 
L 232.005173 87.316038 
L 232.119608 87.251875 
L 232.350178 87.142178 
L 232.458206 87.086295 
L 232.461233 87.086295 
L 232.717349 86.976597 
L 232.826973 86.918644 
L 232.828446 86.918644 
L 233.043175 86.808947 
L 233.156884 86.744784 
L 233.354092 86.635087 
L 233.466246 86.583343 
L 233.72995 86.473646 
L 233.841545 86.419832 
L 234.041967 86.310135 
L 234.041967 86.3091 
L 234.158703 86.26874 
L 234.39624 86.159042 
L 234.507316 86.121787 
L 234.507337 86.121787 
L 234.757481 86.012089 
L 234.870858 85.954136 
L 235.164296 85.844439 
L 235.277632 85.790625 
L 235.485249 85.680928 
L 235.596574 85.649881 
L 235.901395 85.540184 
L 236.012886 85.498789 
L 236.220648 85.389092 
L 236.323368 85.341487 
L 236.331703 85.341487 
L 236.591592 85.230755 
L 236.702192 85.157279 
L 236.702606 85.157279 
L 236.954989 85.047581 
L 237.070129 84.983419 
L 237.34501 84.873722 
L 237.453411 84.832326 
L 237.456106 84.832326 
L 237.715 84.722629 
L 237.828793 84.656397 
L 238.076054 84.545665 
L 238.189909 84.503235 
L 238.447745 84.392502 
L 238.562968 84.327305 
L 238.768988 84.217608 
L 238.877763 84.167934 
L 238.880044 84.167934 
L 239.165022 84.058236 
L 239.277342 83.998213 
L 239.531052 83.888516 
L 239.642584 83.845051 
L 239.884849 83.735354 
L 239.884849 83.734319 
L 239.996775 83.689819 
L 240.231243 83.580122 
L 240.336306 83.526308 
L 240.34234 83.526308 
L 240.616038 83.416611 
L 240.728213 83.362797 
L 241.025176 83.2531 
L 241.137683 83.182728 
L 241.396701 83.073031 
L 241.509311 83.023356 
L 241.823298 82.913659 
L 241.935555 82.886752 
L 242.207346 82.777055 
L 242.319936 82.725311 
L 242.569665 82.615614 
L 242.679103 82.56387 
L 242.680762 82.56387 
L 242.967855 82.454173 
L 242.967855 82.453138 
L 243.080196 82.39001 
L 243.339297 82.280313 
L 243.45085 82.234778 
L 243.689631 82.125081 
L 243.778541 82.073337 
L 243.800645 82.073337 
L 244.035113 81.96364 
L 244.146998 81.924314 
L 244.396146 81.814617 
L 244.507699 81.767012 
L 244.78712 81.65628 
L 244.899648 81.622129 
L 245.165405 81.512432 
L 245.273433 81.452409 
L 245.27646 81.452409 
L 245.539791 81.342712 
L 245.539791 81.341677 
L 245.652567 81.301316 
L 245.899912 81.190584 
L 246.007339 81.133666 
L 246.011009 81.133666 
L 246.220388 81.022934 
L 246.334284 80.978434 
L 246.633466 80.868737 
L 246.74844 80.804574 
L 247.04675 80.694877 
L 247.151502 80.628645 
L 247.157785 80.628645 
L 247.468868 80.517912 
L 247.576398 80.471343 
L 247.57984 80.471343 
L 247.879374 80.361646 
L 247.991487 80.311971 
L 248.21648 80.201239 
L 248.328447 80.158809 
L 248.59692 80.049112 
L 248.709945 79.984949 
L 248.991917 79.875252 
L 248.991917 79.874217 
L 249.104755 79.831787 
L 249.365142 79.72209 
L 249.478686 79.688974 
L 249.824562 79.579276 
L 249.936239 79.519253 
L 250.174543 79.408521 
L 250.281576 79.355742 
L 250.285599 79.355742 
L 250.552247 79.246045 
L 250.664712 79.20258 
L 250.988879 79.092883 
L 251.100847 79.049418 
L 251.37467 78.939721 
L 251.488462 78.887977 
L 251.738855 78.777245 
L 251.844851 78.745163 
L 251.849931 78.745163 
L 252.137293 78.635466 
L 252.250795 78.59821 
L 252.541973 78.487478 
L 252.65591 78.442978 
L 253.001247 78.332246 
L 253.113941 78.293956 
L 253.39019 78.183224 
L 253.502385 78.128375 
L 253.792298 78.018678 
L 253.905614 77.962794 
L 254.202079 77.853097 
L 254.315353 77.811702 
L 254.578352 77.702004 
L 254.689387 77.658539 
L 254.970985 77.548842 
L 255.067007 77.495028 
L 255.08204 77.495028 
L 255.452445 77.385331 
L 255.565823 77.337727 
L 255.79714 77.228029 
L 255.909791 77.178355 
L 256.246047 77.068658 
L 256.357641 77.0521 
L 256.649959 76.941368 
L 256.754753 76.901007 
L 256.761056 76.901007 
L 257.094346 76.79131 
L 257.206936 76.764403 
L 257.490131 76.654706 
L 257.60525 76.590543 
L 257.901176 76.479811 
L 258.015611 76.441521 
L 258.25489 76.330789 
L 258.381227 76.265591 
L 258.695669 76.154859 
L 258.807595 76.114499 
L 259.078038 76.004801 
L 259.183868 75.967546 
L 259.189073 75.967546 
L 259.455369 75.857849 
L 259.567378 75.812314 
L 259.775762 75.701582 
L 259.891088 75.652942 
L 260.131736 75.543245 
L 260.237524 75.49978 
L 260.242812 75.49978 
L 260.603036 75.390083 
L 260.713179 75.342478 
L 260.714133 75.342478 
L 261.110664 75.232781 
L 261.218837 75.189316 
L 261.221719 75.189316 
L 261.500477 75.078584 
L 261.615617 75.032014 
L 261.854751 74.921282 
L 261.971985 74.885062 
L 262.273966 74.775364 
L 262.386949 74.72776 
L 262.735604 74.618063 
L 262.845539 74.582877 
L 262.84668 74.582877 
L 263.138604 74.473179 
L 263.251733 74.406947 
L 263.597007 74.296215 
L 263.711795 74.270343 
L 263.990511 74.159611 
L 264.100654 74.12339 
L 264.101608 74.12339 
L 264.370786 74.012658 
L 264.487025 73.976437 
L 264.816915 73.86674 
L 264.928426 73.821205 
L 265.200383 73.711508 
L 265.313843 73.665973 
L 265.613149 73.556276 
L 265.725946 73.514881 
L 265.962219 73.405183 
L 266.076529 73.353439 
L 266.428004 73.242707 
L 266.540324 73.223045 
L 266.830216 73.113347 
L 266.940649 73.061603 
L 266.941292 73.061603 
L 267.256937 72.951906 
L 267.369837 72.908441 
L 267.716439 72.797709 
L 267.830148 72.757349 
L 268.153424 72.647651 
L 268.266241 72.606256 
L 268.546471 72.496559 
L 268.658356 72.477931 
L 268.988764 72.368234 
L 269.100835 72.333048 
L 269.485506 72.223351 
L 269.598635 72.184025 
L 269.940944 72.074328 
L 270.052953 72.045351 
L 270.380604 71.935654 
L 270.493629 71.873561 
L 270.711095 71.763864 
L 270.711095 71.762829 
L 270.829759 71.716259 
L 271.228799 71.605527 
L 271.341928 71.583795 
L 271.803338 71.473063 
L 271.921174 71.445121 
L 272.271052 71.335424 
L 272.382542 71.294029 
L 272.723857 71.183296 
L 272.830454 71.126378 
L 272.834912 71.126378 
L 273.196484 71.016681 
L 273.309032 70.981495 
L 273.611531 70.872832 
L 273.723478 70.84903 
L 274.103339 70.739333 
L 274.216239 70.695868 
L 274.546149 70.586171 
L 274.546149 70.585136 
L 274.658117 70.540636 
L 274.976727 70.429904 
L 275.090809 70.395753 
L 275.429408 70.286056 
L 275.540587 70.263288 
L 275.970916 70.153591 
L 276.078426 70.110126 
L 276.082013 70.110126 
L 276.431248 69.999394 
L 276.549519 69.963173 
L 276.981174 69.853476 
L 277.087191 69.82036 
L 277.09225 69.82036 
L 277.49156 69.710662 
L 277.603154 69.681686 
L 277.938518 69.570954 
L 278.051107 69.545082 
L 278.384087 69.435384 
L 278.496013 69.406408 
L 278.911143 69.29671 
L 279.023255 69.263594 
L 279.318269 69.153897 
L 279.430216 69.12699 
L 279.895939 69.017293 
L 280.007886 68.973828 
L 280.339517 68.863096 
L 280.45219 68.824805 
L 280.740402 68.715108 
L 280.850628 68.675783 
L 280.851416 68.675783 
L 281.196214 68.56505 
L 281.309799 68.52676 
L 281.756259 68.416028 
L 281.868724 68.381877 
L 282.392898 68.272179 
L 282.506214 68.230784 
L 282.991282 68.121087 
L 283.103374 68.090041 
L 283.430921 67.980343 
L 283.544091 67.949297 
L 284.006849 67.8396 
L 284.118878 67.814763 
L 284.568615 67.705065 
L 284.681681 67.674019 
L 285.122875 67.563287 
L 285.238367 67.533275 
L 285.701975 67.423578 
L 285.815063 67.398741 
L 286.165023 67.288009 
L 286.277219 67.272485 
L 286.69125 67.161753 
L 286.805291 67.137951 
L 287.265105 67.028254 
L 287.378793 66.993068 
L 287.807049 66.883371 
L 287.807049 66.882336 
L 287.919327 66.850255 
L 288.41553 66.740557 
L 288.527622 66.709511 
L 288.98248 66.598779 
L 289.093888 66.581186 
L 289.481088 66.471489 
L 289.481088 66.470454 
L 289.59289 66.45493 
L 290.126311 66.345233 
L 290.240207 66.301768 
L 290.771328 66.192071 
L 290.876619 66.179652 
L 290.8823 66.179652 
L 291.354513 66.06892 
L 291.473364 66.040978 
L 291.860689 65.931281 
L 291.972491 65.896095 
L 292.4034 65.786398 
L 292.516197 65.761561 
L 293.070561 65.651864 
L 293.182819 65.622887 
L 293.717236 65.512155 
L 293.821946 65.488353 
L 293.828208 65.488353 
L 294.353502 65.377621 
L 294.46607 65.3414 
L 294.903387 65.230668 
L 295.015686 65.202726 
L 295.330294 65.091994 
L 295.444667 65.07647 
L 295.881486 64.966773 
L 295.995402 64.944006 
L 296.607637 64.834309 
L 296.719438 64.807402 
L 297.16509 64.69667 
L 297.276975 64.679077 
L 297.760053 64.568345 
L 297.872891 64.550752 
L 298.295548 64.440019 
L 298.407121 64.416217 
L 298.843836 64.30652 
L 298.955949 64.273404 
L 299.487131 64.162672 
L 299.602582 64.13266 
L 300.168931 64.021928 
L 300.281023 64.008475 
L 300.839243 63.898777 
L 300.951315 63.867731 
L 301.564544 63.758034 
L 301.653828 63.743545 
L 301.6756 63.743545 
L 302.185031 63.633848 
L 302.298139 63.61936 
L 302.898783 63.509662 
L 303.010108 63.493104 
L 303.653735 63.383407 
L 303.766656 63.364779 
L 304.229994 63.254047 
L 304.345321 63.240594 
L 304.975201 63.130896 
L 305.077464 63.09778 
L 305.086297 63.09778 
L 305.694572 62.988083 
L 305.790034 62.965316 
L 305.805585 62.965316 
L 306.361753 62.855618 
L 306.472871 62.84527 
L 307.107001 62.735572 
L 307.222763 62.694177 
L 308.087215 62.583445 
L 308.199348 62.578271 
L 308.829912 62.468573 
L 308.941403 62.449945 
L 309.526475 62.340248 
L 309.639562 62.319551 
L 310.234545 62.209853 
L 310.345787 62.193295 
L 311.067874 62.083598 
L 311.180692 62.056691 
L 311.87232 61.945959 
L 311.98437 61.922157 
L 312.555902 61.811425 
L 312.670897 61.785553 
L 313.343802 61.675855 
L 313.455665 61.651018 
L 314.208067 61.540286 
L 314.319682 61.528902 
L 314.919828 61.419205 
L 315.031837 61.398508 
L 315.708785 61.287775 
L 315.820047 61.278462 
L 316.464483 61.168764 
L 316.575538 61.162555 
L 317.273324 61.052858 
L 317.384898 61.044579 
L 318.007251 60.934881 
L 318.119508 60.916254 
L 318.788805 60.806556 
L 318.901457 60.783789 
L 319.567 60.674092 
L 319.678387 60.661673 
L 320.319609 60.551976 
L 320.319609 60.550941 
L 320.431245 60.539557 
L 321.102158 60.42986 
L 321.213649 60.413302 
L 321.968165 60.30257 
L 322.080485 60.284977 
L 322.873651 60.17528 
L 322.985121 60.154582 
L 323.911425 60.044885 
L 324.022666 60.036606 
L 324.799369 59.925874 
L 324.911399 59.91242 
L 325.654324 59.802723 
L 325.765898 59.779956 
L 326.433038 59.670258 
L 326.544508 59.65163 
L 327.382398 59.541933 
L 327.494013 59.529515 
L 328.212804 59.419817 
L 328.324419 59.403259 
L 329.071097 59.293562 
L 329.182401 59.270795 
L 330.067132 59.160063 
L 330.171531 59.150749 
L 330.178166 59.150749 
L 331.398882 59.041051 
L 331.510476 59.026563 
L 332.460583 58.916866 
L 332.563262 58.894098 
L 332.57168 58.894098 
L 333.47022 58.783366 
L 333.582208 58.771983 
L 334.560431 58.662285 
L 334.672212 58.639518 
L 335.755747 58.529821 
L 335.857887 58.515332 
L 335.866844 58.515332 
L 336.789249 58.405635 
L 336.9013 58.389077 
L 337.828453 58.278345 
L 337.942826 58.262822 
L 339.021675 58.153124 
L 339.113654 58.142776 
L 339.132772 58.142776 
L 340.245771 58.032044 
L 340.359003 58.02066 
L 341.522409 57.910963 
L 341.522409 57.909928 
L 341.634252 57.904753 
L 342.598417 57.795056 
L 342.709596 57.778498 
L 343.734162 57.668801 
L 343.845611 57.654312 
L 344.668738 57.54358 
L 344.77998 57.534266 
L 345.94154 57.423534 
L 346.053839 57.405941 
L 347.249466 57.296244 
L 347.361247 57.275546 
L 348.42044 57.165849 
L 348.531744 57.1555 
L 349.565474 57.045803 
L 349.677462 57.025105 
L 350.997228 56.915408 
L 351.108677 56.89885 
L 352.443932 56.789153 
L 352.555277 56.776734 
L 353.866915 56.667037 
L 353.916969 56.654618 
L 353.978012 56.654618 
L 355.242955 56.544921 
L 355.329771 56.528363 
L 355.353907 56.528363 
L 356.850789 56.417631 
L 356.962487 56.402108 
L 358.370665 56.292411 
L 358.482218 56.282062 
L 359.991831 56.172364 
L 359.991831 56.17133 
L 360.1044 56.155806 
L 361.52504 56.046109 
L 361.613412 56.04197 
L 361.636137 56.04197 
L 362.787454 55.932272 
L 362.899214 55.917784 
L 365.394681 55.808087 
L 365.506026 55.803947 
L 366.986445 55.693215 
L 367.097832 55.688041 
L 368.923442 55.577309 
L 369.034829 55.572134 
L 370.618424 55.462437 
L 370.729562 55.460367 
L 372.440737 55.35067 
L 372.552539 55.344461 
L 375.065381 55.234763 
L 375.17652 55.230624 
L 377.487509 55.120927 
L 377.598772 55.112648 
L 380.163202 55.00295 
L 380.274548 54.994671 
L 382.394239 54.884974 
L 382.506103 54.872555 
L 385.498996 54.762858 
L 385.610092 54.760788 
L 388.683104 54.651091 
L 388.683104 54.650056 
L 388.794326 54.649021 
L 392.184164 54.539324 
L 392.29551 54.533115 
L 395.85952 54.423418 
L 395.970783 54.415139 
L 400.532549 54.305441 
L 400.643687 54.303371 
L 405.630826 54.193674 
L 405.741943 54.191604 
L 414.72 54.144 
L 414.72 54.144 
" clip-path="url(#pb34afec486)" style="fill: none; stroke: #ff8c00; stroke-width: 1.5; stroke-linecap: square"/>
   </g>
   <g id="line2d_14">
    <path d="M 74.605714 307.584 
L 414.72 54.144 
" clip-path="url(#pb34afec486)" style="fill: none; stroke-dasharray: 5.55,2.4; stroke-dashoffset: 0; stroke: #0000ff; stroke-width: 1.5"/>
   </g>
   <g id="patch_3">
    <path d="M 57.6 307.584 
L 57.6 41.472 
" style="fill: none; stroke: #000000; stroke-width: 0.8; stroke-linejoin: miter; stroke-linecap: square"/>
   </g>
   <g id="patch_4">
    <path d="M 414.72 307.584 
L 414.72 41.472 
" style="fill: none; stroke: #000000; stroke-width: 0.8; stroke-linejoin: miter; stroke-linecap: square"/>
   </g>
   <g id="patch_5">
    <path d="M 57.6 307.584 
L 414.72 307.584 
" style="fill: none; stroke: #000000; stroke-width: 0.8; stroke-linejoin: miter; stroke-linecap: square"/>
   </g>
   <g id="patch_6">
    <path d="M 57.6 41.472 
L 414.72 41.472 
" style="fill: none; stroke: #000000; stroke-width: 0.8; stroke-linejoin: miter; stroke-linecap: square"/>
   </g>
   <g id="text_15">
    <!-- ROC CURVE -->
    <g transform="translate(200.855625 35.472)scale(0.12 -0.12)">
     <defs>
      <path id="DejaVuSans-4f" d="M 2522 4238 
Q 1834 4238 1429 3725 
Q 1025 3213 1025 2328 
Q 1025 1447 1429 934 
Q 1834 422 2522 422 
Q 3209 422 3611 934 
Q 4013 1447 4013 2328 
Q 4013 3213 3611 3725 
Q 3209 4238 2522 4238 
z
M 2522 4750 
Q 3503 4750 4090 4092 
Q 4678 3434 4678 2328 
Q 4678 1225 4090 567 
Q 3503 -91 2522 -91 
Q 1538 -91 948 565 
Q 359 1222 359 2328 
Q 359 3434 948 4092 
Q 1538 4750 2522 4750 
z
" transform="scale(0.015625)"/>
      <path id="DejaVuSans-43" d="M 4122 4306 
L 4122 3641 
Q 3803 3938 3442 4084 
Q 3081 4231 2675 4231 
Q 1875 4231 1450 3742 
Q 1025 3253 1025 2328 
Q 1025 1406 1450 917 
Q 1875 428 2675 428 
Q 3081 428 3442 575 
Q 3803 722 4122 1019 
L 4122 359 
Q 3791 134 3420 21 
Q 3050 -91 2638 -91 
Q 1578 -91 968 557 
Q 359 1206 359 2328 
Q 359 3453 968 4101 
Q 1578 4750 2638 4750 
Q 3056 4750 3426 4639 
Q 3797 4528 4122 4306 
z
" transform="scale(0.015625)"/>
      <path id="DejaVuSans-55" d="M 556 4666 
L 1191 4666 
L 1191 1831 
Q 1191 1081 1462 751 
Q 1734 422 2344 422 
Q 2950 422 3222 751 
Q 3494 1081 3494 1831 
L 3494 4666 
L 4128 4666 
L 4128 1753 
Q 4128 841 3676 375 
Q 3225 -91 2344 -91 
Q 1459 -91 1007 375 
Q 556 841 556 1753 
L 556 4666 
z
" transform="scale(0.015625)"/>
      <path id="DejaVuSans-56" d="M 1831 0 
L 50 4666 
L 709 4666 
L 2188 738 
L 3669 4666 
L 4325 4666 
L 2547 0 
L 1831 0 
z
" transform="scale(0.015625)"/>
      <path id="DejaVuSans-45" d="M 628 4666 
L 3578 4666 
L 3578 4134 
L 1259 4134 
L 1259 2753 
L 3481 2753 
L 3481 2222 
L 1259 2222 
L 1259 531 
L 3634 531 
L 3634 0 
L 628 0 
L 628 4666 
z
" transform="scale(0.015625)"/>
     </defs>
     <use xlink:href="#DejaVuSans-52"/>
     <use xlink:href="#DejaVuSans-4f" x="69.482422"/>
     <use xlink:href="#DejaVuSans-43" x="148.193359"/>
     <use xlink:href="#DejaVuSans-20" x="218.017578"/>
     <use xlink:href="#DejaVuSans-43" x="249.804688"/>
     <use xlink:href="#DejaVuSans-55" x="319.628906"/>
     <use xlink:href="#DejaVuSans-52" x="392.822266"/>
     <use xlink:href="#DejaVuSans-56" x="456.804688"/>
     <use xlink:href="#DejaVuSans-45" x="525.212891"/>
    </g>
   </g>
   <g id="legend_1">
    <g id="patch_7">
     <path d="M 234.97 302.584 
L 407.72 302.584 
Q 409.72 302.584 409.72 300.584 
L 409.72 286.905875 
Q 409.72 284.905875 407.72 284.905875 
L 234.97 284.905875 
Q 232.97 284.905875 232.97 286.905875 
L 232.97 300.584 
Q 232.97 302.584 234.97 302.584 
z
" style="fill: #ffffff; opacity: 0.8; stroke: #cccccc; stroke-linejoin: miter"/>
    </g>
    <g id="line2d_15">
     <path d="M 236.97 293.004312 
L 246.97 293.004312 
L 256.97 293.004312 
" style="fill: none; stroke: #ff8c00; stroke-width: 1.5; stroke-linecap: square"/>
    </g>
    <g id="text_16">
     <!-- ROC curve (ROC AUC=0.81) -->
     <g transform="translate(264.97 296.504312)scale(0.1 -0.1)">
      <defs>
       <path id="DejaVuSans-63" d="M 3122 3366 
L 3122 2828 
Q 2878 2963 2633 3030 
Q 2388 3097 2138 3097 
Q 1578 3097 1268 2742 
Q 959 2388 959 1747 
Q 959 1106 1268 751 
Q 1578 397 2138 397 
Q 2388 397 2633 464 
Q 2878 531 3122 666 
L 3122 134 
Q 2881 22 2623 -34 
Q 2366 -91 2075 -91 
Q 1284 -91 818 406 
Q 353 903 353 1747 
Q 353 2603 823 3093 
Q 1294 3584 2113 3584 
Q 2378 3584 2631 3529 
Q 2884 3475 3122 3366 
z
" transform="scale(0.015625)"/>
       <path id="DejaVuSans-28" d="M 1984 4856 
Q 1566 4138 1362 3434 
Q 1159 2731 1159 2009 
Q 1159 1288 1364 580 
Q 1569 -128 1984 -844 
L 1484 -844 
Q 1016 -109 783 600 
Q 550 1309 550 2009 
Q 550 2706 781 3412 
Q 1013 4119 1484 4856 
L 1984 4856 
z
" transform="scale(0.015625)"/>
       <path id="DejaVuSans-41" d="M 2188 4044 
L 1331 1722 
L 3047 1722 
L 2188 4044 
z
M 1831 4666 
L 2547 4666 
L 4325 0 
L 3669 0 
L 3244 1197 
L 1141 1197 
L 716 0 
L 50 0 
L 1831 4666 
z
" transform="scale(0.015625)"/>
       <path id="DejaVuSans-3d" d="M 678 2906 
L 4684 2906 
L 4684 2381 
L 678 2381 
L 678 2906 
z
M 678 1631 
L 4684 1631 
L 4684 1100 
L 678 1100 
L 678 1631 
z
" transform="scale(0.015625)"/>
       <path id="DejaVuSans-29" d="M 513 4856 
L 1013 4856 
Q 1481 4119 1714 3412 
Q 1947 2706 1947 2009 
Q 1947 1309 1714 600 
Q 1481 -109 1013 -844 
L 513 -844 
Q 928 -128 1133 580 
Q 1338 1288 1338 2009 
Q 1338 2731 1133 3434 
Q 928 4138 513 4856 
z
" transform="scale(0.015625)"/>
      </defs>
      <use xlink:href="#DejaVuSans-52"/>
      <use xlink:href="#DejaVuSans-4f" x="69.482422"/>
      <use xlink:href="#DejaVuSans-43" x="148.193359"/>
      <use xlink:href="#DejaVuSans-20" x="218.017578"/>
      <use xlink:href="#DejaVuSans-63" x="249.804688"/>
      <use xlink:href="#DejaVuSans-75" x="304.785156"/>
      <use xlink:href="#DejaVuSans-72" x="368.164062"/>
      <use xlink:href="#DejaVuSans-76" x="409.277344"/>
      <use xlink:href="#DejaVuSans-65" x="468.457031"/>
      <use xlink:href="#DejaVuSans-20" x="529.980469"/>
      <use xlink:href="#DejaVuSans-28" x="561.767578"/>
      <use xlink:href="#DejaVuSans-52" x="600.78125"/>
      <use xlink:href="#DejaVuSans-4f" x="670.263672"/>
      <use xlink:href="#DejaVuSans-43" x="748.974609"/>
      <use xlink:href="#DejaVuSans-20" x="818.798828"/>
      <use xlink:href="#DejaVuSans-41" x="850.585938"/>
      <use xlink:href="#DejaVuSans-55" x="918.994141"/>
      <use xlink:href="#DejaVuSans-43" x="992.1875"/>
      <use xlink:href="#DejaVuSans-3d" x="1062.011719"/>
      <use xlink:href="#DejaVuSans-30" x="1145.800781"/>
      <use xlink:href="#DejaVuSans-2e" x="1209.423828"/>
      <use xlink:href="#DejaVuSans-38" x="1241.210938"/>
      <use xlink:href="#DejaVuSans-31" x="1304.833984"/>
      <use xlink:href="#DejaVuSans-29" x="1368.457031"/>
     </g>
    </g>
   </g>
  </g>
 </g>
 <defs>
  <clipPath id="pb34afec486">
   <rect x="57.6" y="41.472" width="357.12" height="266.112"/>
  </clipPath>
 </defs>
</svg>
