<?xml version="1.0" encoding="utf-8" standalone="no"?>
<!DOCTYPE svg PUBLIC "-//W3C//DTD SVG 1.1//EN"
  "http://www.w3.org/Graphics/SVG/1.1/DTD/svg11.dtd">
<svg xmlns:xlink="http://www.w3.org/1999/xlink" width="460.8pt" height="345.6pt" viewBox="0 0 460.8 345.6" xmlns="http://www.w3.org/2000/svg" version="1.1">
 <metadata>
  <rdf:RDF xmlns:dc="http://purl.org/dc/elements/1.1/" xmlns:cc="http://creativecommons.org/ns#" xmlns:rdf="http://www.w3.org/1999/02/22-rdf-syntax-ns#">
   <cc:Work>
    <dc:type rdf:resource="http://purl.org/dc/dcmitype/StillImage"/>
    <dc:date>2022-05-21T17:06:25.666810</dc:date>
    <dc:format>image/svg+xml</dc:format>
    <dc:creator>
     <cc:Agent>
      <dc:title>Matplotlib v3.5.2, https://matplotlib.org/</dc:title>
     </cc:Agent>
    </dc:creator>
   </cc:Work>
  </rdf:RDF>
 </metadata>
 <defs>
  <style type="text/css">*{stroke-linejoin: round; stroke-linecap: butt}</style>
 </defs>
 <g id="figure_1">
  <g id="patch_1">
   <path d="M 0 345.6 
L 460.8 345.6 
L 460.8 0 
L 0 0 
z
" style="fill: #ffffff"/>
  </g>
  <g id="axes_1">
   <g id="patch_2">
    <path d="M 57.6 307.584 
L 414.72 307.584 
L 414.72 41.472 
L 57.6 41.472 
z
" style="fill: #ffffff"/>
   </g>
   <g id="matplotlib.axis_1">
    <g id="xtick_1">
     <g id="line2d_1">
      <defs>
       <path id="m2bb50c7600" d="M 0 0 
L 0 3.5 
" style="stroke: #000000; stroke-width: 0.8"/>
      </defs>
      <g>
       <use xlink:href="#m2bb50c7600" x="74.605714" y="307.584" style="stroke: #000000; stroke-width: 0.8"/>
      </g>
     </g>
     <g id="text_1">
      <!-- 0.0 -->
      <g transform="translate(66.654152 322.182437)scale(0.1 -0.1)">
       <defs>
        <path id="DejaVuSans-30" d="M 2034 4250 
Q 1547 4250 1301 3770 
Q 1056 3291 1056 2328 
Q 1056 1369 1301 889 
Q 1547 409 2034 409 
Q 2525 409 2770 889 
Q 3016 1369 3016 2328 
Q 3016 3291 2770 3770 
Q 2525 4250 2034 4250 
z
M 2034 4750 
Q 2819 4750 3233 4129 
Q 3647 3509 3647 2328 
Q 3647 1150 3233 529 
Q 2819 -91 2034 -91 
Q 1250 -91 836 529 
Q 422 1150 422 2328 
Q 422 3509 836 4129 
Q 1250 4750 2034 4750 
z
" transform="scale(0.015625)"/>
        <path id="DejaVuSans-2e" d="M 684 794 
L 1344 794 
L 1344 0 
L 684 0 
L 684 794 
z
" transform="scale(0.015625)"/>
       </defs>
       <use xlink:href="#DejaVuSans-30"/>
       <use xlink:href="#DejaVuSans-2e" x="63.623047"/>
       <use xlink:href="#DejaVuSans-30" x="95.410156"/>
      </g>
     </g>
    </g>
    <g id="xtick_2">
     <g id="line2d_2">
      <g>
       <use xlink:href="#m2bb50c7600" x="142.628571" y="307.584" style="stroke: #000000; stroke-width: 0.8"/>
      </g>
     </g>
     <g id="text_2">
      <!-- 0.2 -->
      <g transform="translate(134.677009 322.182437)scale(0.1 -0.1)">
       <defs>
        <path id="DejaVuSans-32" d="M 1228 531 
L 3431 531 
L 3431 0 
L 469 0 
L 469 531 
Q 828 903 1448 1529 
Q 2069 2156 2228 2338 
Q 2531 2678 2651 2914 
Q 2772 3150 2772 3378 
Q 2772 3750 2511 3984 
Q 2250 4219 1831 4219 
Q 1534 4219 1204 4116 
Q 875 4013 500 3803 
L 500 4441 
Q 881 4594 1212 4672 
Q 1544 4750 1819 4750 
Q 2544 4750 2975 4387 
Q 3406 4025 3406 3419 
Q 3406 3131 3298 2873 
Q 3191 2616 2906 2266 
Q 2828 2175 2409 1742 
Q 1991 1309 1228 531 
z
" transform="scale(0.015625)"/>
       </defs>
       <use xlink:href="#DejaVuSans-30"/>
       <use xlink:href="#DejaVuSans-2e" x="63.623047"/>
       <use xlink:href="#DejaVuSans-32" x="95.410156"/>
      </g>
     </g>
    </g>
    <g id="xtick_3">
     <g id="line2d_3">
      <g>
       <use xlink:href="#m2bb50c7600" x="210.651429" y="307.584" style="stroke: #000000; stroke-width: 0.8"/>
      </g>
     </g>
     <g id="text_3">
      <!-- 0.4 -->
      <g transform="translate(202.699866 322.182437)scale(0.1 -0.1)">
       <defs>
        <path id="DejaVuSans-34" d="M 2419 4116 
L 825 1625 
L 2419 1625 
L 2419 4116 
z
M 2253 4666 
L 3047 4666 
L 3047 1625 
L 3713 1625 
L 3713 1100 
L 3047 1100 
L 3047 0 
L 2419 0 
L 2419 1100 
L 313 1100 
L 313 1709 
L 2253 4666 
z
" transform="scale(0.015625)"/>
       </defs>
       <use xlink:href="#DejaVuSans-30"/>
       <use xlink:href="#DejaVuSans-2e" x="63.623047"/>
       <use xlink:href="#DejaVuSans-34" x="95.410156"/>
      </g>
     </g>
    </g>
    <g id="xtick_4">
     <g id="line2d_4">
      <g>
       <use xlink:href="#m2bb50c7600" x="278.674286" y="307.584" style="stroke: #000000; stroke-width: 0.8"/>
      </g>
     </g>
     <g id="text_4">
      <!-- 0.6 -->
      <g transform="translate(270.722723 322.182437)scale(0.1 -0.1)">
       <defs>
        <path id="DejaVuSans-36" d="M 2113 2584 
Q 1688 2584 1439 2293 
Q 1191 2003 1191 1497 
Q 1191 994 1439 701 
Q 1688 409 2113 409 
Q 2538 409 2786 701 
Q 3034 994 3034 1497 
Q 3034 2003 2786 2293 
Q 2538 2584 2113 2584 
z
M 3366 4563 
L 3366 3988 
Q 3128 4100 2886 4159 
Q 2644 4219 2406 4219 
Q 1781 4219 1451 3797 
Q 1122 3375 1075 2522 
Q 1259 2794 1537 2939 
Q 1816 3084 2150 3084 
Q 2853 3084 3261 2657 
Q 3669 2231 3669 1497 
Q 3669 778 3244 343 
Q 2819 -91 2113 -91 
Q 1303 -91 875 529 
Q 447 1150 447 2328 
Q 447 3434 972 4092 
Q 1497 4750 2381 4750 
Q 2619 4750 2861 4703 
Q 3103 4656 3366 4563 
z
" transform="scale(0.015625)"/>
       </defs>
       <use xlink:href="#DejaVuSans-30"/>
       <use xlink:href="#DejaVuSans-2e" x="63.623047"/>
       <use xlink:href="#DejaVuSans-36" x="95.410156"/>
      </g>
     </g>
    </g>
    <g id="xtick_5">
     <g id="line2d_5">
      <g>
       <use xlink:href="#m2bb50c7600" x="346.697143" y="307.584" style="stroke: #000000; stroke-width: 0.8"/>
      </g>
     </g>
     <g id="text_5">
      <!-- 0.8 -->
      <g transform="translate(338.74558 322.182437)scale(0.1 -0.1)">
       <defs>
        <path id="DejaVuSans-38" d="M 2034 2216 
Q 1584 2216 1326 1975 
Q 1069 1734 1069 1313 
Q 1069 891 1326 650 
Q 1584 409 2034 409 
Q 2484 409 2743 651 
Q 3003 894 3003 1313 
Q 3003 1734 2745 1975 
Q 2488 2216 2034 2216 
z
M 1403 2484 
Q 997 2584 770 2862 
Q 544 3141 544 3541 
Q 544 4100 942 4425 
Q 1341 4750 2034 4750 
Q 2731 4750 3128 4425 
Q 3525 4100 3525 3541 
Q 3525 3141 3298 2862 
Q 3072 2584 2669 2484 
Q 3125 2378 3379 2068 
Q 3634 1759 3634 1313 
Q 3634 634 3220 271 
Q 2806 -91 2034 -91 
Q 1263 -91 848 271 
Q 434 634 434 1313 
Q 434 1759 690 2068 
Q 947 2378 1403 2484 
z
M 1172 3481 
Q 1172 3119 1398 2916 
Q 1625 2713 2034 2713 
Q 2441 2713 2670 2916 
Q 2900 3119 2900 3481 
Q 2900 3844 2670 4047 
Q 2441 4250 2034 4250 
Q 1625 4250 1398 4047 
Q 1172 3844 1172 3481 
z
" transform="scale(0.015625)"/>
       </defs>
       <use xlink:href="#DejaVuSans-30"/>
       <use xlink:href="#DejaVuSans-2e" x="63.623047"/>
       <use xlink:href="#DejaVuSans-38" x="95.410156"/>
      </g>
     </g>
    </g>
    <g id="xtick_6">
     <g id="line2d_6">
      <g>
       <use xlink:href="#m2bb50c7600" x="414.72" y="307.584" style="stroke: #000000; stroke-width: 0.8"/>
      </g>
     </g>
     <g id="text_6">
      <!-- 1.0 -->
      <g transform="translate(406.768438 322.182437)scale(0.1 -0.1)">
       <defs>
        <path id="DejaVuSans-31" d="M 794 531 
L 1825 531 
L 1825 4091 
L 703 3866 
L 703 4441 
L 1819 4666 
L 2450 4666 
L 2450 531 
L 3481 531 
L 3481 0 
L 794 0 
L 794 531 
z
" transform="scale(0.015625)"/>
       </defs>
       <use xlink:href="#DejaVuSans-31"/>
       <use xlink:href="#DejaVuSans-2e" x="63.623047"/>
       <use xlink:href="#DejaVuSans-30" x="95.410156"/>
      </g>
     </g>
    </g>
    <g id="text_7">
     <!-- False Positive Rate -->
     <g transform="translate(189.693594 335.860562)scale(0.1 -0.1)">
      <defs>
       <path id="DejaVuSans-46" d="M 628 4666 
L 3309 4666 
L 3309 4134 
L 1259 4134 
L 1259 2759 
L 3109 2759 
L 3109 2228 
L 1259 2228 
L 1259 0 
L 628 0 
L 628 4666 
z
" transform="scale(0.015625)"/>
       <path id="DejaVuSans-61" d="M 2194 1759 
Q 1497 1759 1228 1600 
Q 959 1441 959 1056 
Q 959 750 1161 570 
Q 1363 391 1709 391 
Q 2188 391 2477 730 
Q 2766 1069 2766 1631 
L 2766 1759 
L 2194 1759 
z
M 3341 1997 
L 3341 0 
L 2766 0 
L 2766 531 
Q 2569 213 2275 61 
Q 1981 -91 1556 -91 
Q 1019 -91 701 211 
Q 384 513 384 1019 
Q 384 1609 779 1909 
Q 1175 2209 1959 2209 
L 2766 2209 
L 2766 2266 
Q 2766 2663 2505 2880 
Q 2244 3097 1772 3097 
Q 1472 3097 1187 3025 
Q 903 2953 641 2809 
L 641 3341 
Q 956 3463 1253 3523 
Q 1550 3584 1831 3584 
Q 2591 3584 2966 3190 
Q 3341 2797 3341 1997 
z
" transform="scale(0.015625)"/>
       <path id="DejaVuSans-6c" d="M 603 4863 
L 1178 4863 
L 1178 0 
L 603 0 
L 603 4863 
z
" transform="scale(0.015625)"/>
       <path id="DejaVuSans-73" d="M 2834 3397 
L 2834 2853 
Q 2591 2978 2328 3040 
Q 2066 3103 1784 3103 
Q 1356 3103 1142 2972 
Q 928 2841 928 2578 
Q 928 2378 1081 2264 
Q 1234 2150 1697 2047 
L 1894 2003 
Q 2506 1872 2764 1633 
Q 3022 1394 3022 966 
Q 3022 478 2636 193 
Q 2250 -91 1575 -91 
Q 1294 -91 989 -36 
Q 684 19 347 128 
L 347 722 
Q 666 556 975 473 
Q 1284 391 1588 391 
Q 1994 391 2212 530 
Q 2431 669 2431 922 
Q 2431 1156 2273 1281 
Q 2116 1406 1581 1522 
L 1381 1569 
Q 847 1681 609 1914 
Q 372 2147 372 2553 
Q 372 3047 722 3315 
Q 1072 3584 1716 3584 
Q 2034 3584 2315 3537 
Q 2597 3491 2834 3397 
z
" transform="scale(0.015625)"/>
       <path id="DejaVuSans-65" d="M 3597 1894 
L 3597 1613 
L 953 1613 
Q 991 1019 1311 708 
Q 1631 397 2203 397 
Q 2534 397 2845 478 
Q 3156 559 3463 722 
L 3463 178 
Q 3153 47 2828 -22 
Q 2503 -91 2169 -91 
Q 1331 -91 842 396 
Q 353 884 353 1716 
Q 353 2575 817 3079 
Q 1281 3584 2069 3584 
Q 2775 3584 3186 3129 
Q 3597 2675 3597 1894 
z
M 3022 2063 
Q 3016 2534 2758 2815 
Q 2500 3097 2075 3097 
Q 1594 3097 1305 2825 
Q 1016 2553 972 2059 
L 3022 2063 
z
" transform="scale(0.015625)"/>
       <path id="DejaVuSans-20" transform="scale(0.015625)"/>
       <path id="DejaVuSans-50" d="M 1259 4147 
L 1259 2394 
L 2053 2394 
Q 2494 2394 2734 2622 
Q 2975 2850 2975 3272 
Q 2975 3691 2734 3919 
Q 2494 4147 2053 4147 
L 1259 4147 
z
M 628 4666 
L 2053 4666 
Q 2838 4666 3239 4311 
Q 3641 3956 3641 3272 
Q 3641 2581 3239 2228 
Q 2838 1875 2053 1875 
L 1259 1875 
L 1259 0 
L 628 0 
L 628 4666 
z
" transform="scale(0.015625)"/>
       <path id="DejaVuSans-6f" d="M 1959 3097 
Q 1497 3097 1228 2736 
Q 959 2375 959 1747 
Q 959 1119 1226 758 
Q 1494 397 1959 397 
Q 2419 397 2687 759 
Q 2956 1122 2956 1747 
Q 2956 2369 2687 2733 
Q 2419 3097 1959 3097 
z
M 1959 3584 
Q 2709 3584 3137 3096 
Q 3566 2609 3566 1747 
Q 3566 888 3137 398 
Q 2709 -91 1959 -91 
Q 1206 -91 779 398 
Q 353 888 353 1747 
Q 353 2609 779 3096 
Q 1206 3584 1959 3584 
z
" transform="scale(0.015625)"/>
       <path id="DejaVuSans-69" d="M 603 3500 
L 1178 3500 
L 1178 0 
L 603 0 
L 603 3500 
z
M 603 4863 
L 1178 4863 
L 1178 4134 
L 603 4134 
L 603 4863 
z
" transform="scale(0.015625)"/>
       <path id="DejaVuSans-74" d="M 1172 4494 
L 1172 3500 
L 2356 3500 
L 2356 3053 
L 1172 3053 
L 1172 1153 
Q 1172 725 1289 603 
Q 1406 481 1766 481 
L 2356 481 
L 2356 0 
L 1766 0 
Q 1100 0 847 248 
Q 594 497 594 1153 
L 594 3053 
L 172 3053 
L 172 3500 
L 594 3500 
L 594 4494 
L 1172 4494 
z
" transform="scale(0.015625)"/>
       <path id="DejaVuSans-76" d="M 191 3500 
L 800 3500 
L 1894 563 
L 2988 3500 
L 3597 3500 
L 2284 0 
L 1503 0 
L 191 3500 
z
" transform="scale(0.015625)"/>
       <path id="DejaVuSans-52" d="M 2841 2188 
Q 3044 2119 3236 1894 
Q 3428 1669 3622 1275 
L 4263 0 
L 3584 0 
L 2988 1197 
Q 2756 1666 2539 1819 
Q 2322 1972 1947 1972 
L 1259 1972 
L 1259 0 
L 628 0 
L 628 4666 
L 2053 4666 
Q 2853 4666 3247 4331 
Q 3641 3997 3641 3322 
Q 3641 2881 3436 2590 
Q 3231 2300 2841 2188 
z
M 1259 4147 
L 1259 2491 
L 2053 2491 
Q 2509 2491 2742 2702 
Q 2975 2913 2975 3322 
Q 2975 3731 2742 3939 
Q 2509 4147 2053 4147 
L 1259 4147 
z
" transform="scale(0.015625)"/>
      </defs>
      <use xlink:href="#DejaVuSans-46"/>
      <use xlink:href="#DejaVuSans-61" x="48.394531"/>
      <use xlink:href="#DejaVuSans-6c" x="109.673828"/>
      <use xlink:href="#DejaVuSans-73" x="137.457031"/>
      <use xlink:href="#DejaVuSans-65" x="189.556641"/>
      <use xlink:href="#DejaVuSans-20" x="251.080078"/>
      <use xlink:href="#DejaVuSans-50" x="282.867188"/>
      <use xlink:href="#DejaVuSans-6f" x="339.544922"/>
      <use xlink:href="#DejaVuSans-73" x="400.726562"/>
      <use xlink:href="#DejaVuSans-69" x="452.826172"/>
      <use xlink:href="#DejaVuSans-74" x="480.609375"/>
      <use xlink:href="#DejaVuSans-69" x="519.818359"/>
      <use xlink:href="#DejaVuSans-76" x="547.601562"/>
      <use xlink:href="#DejaVuSans-65" x="606.78125"/>
      <use xlink:href="#DejaVuSans-20" x="668.304688"/>
      <use xlink:href="#DejaVuSans-52" x="700.091797"/>
      <use xlink:href="#DejaVuSans-61" x="767.324219"/>
      <use xlink:href="#DejaVuSans-74" x="828.603516"/>
      <use xlink:href="#DejaVuSans-65" x="867.8125"/>
     </g>
    </g>
   </g>
   <g id="matplotlib.axis_2">
    <g id="ytick_1">
     <g id="line2d_7">
      <defs>
       <path id="m08fb824c9c" d="M 0 0 
L -3.5 0 
" style="stroke: #000000; stroke-width: 0.8"/>
      </defs>
      <g>
       <use xlink:href="#m08fb824c9c" x="57.6" y="307.584" style="stroke: #000000; stroke-width: 0.8"/>
      </g>
     </g>
     <g id="text_8">
      <!-- 0.0 -->
      <g transform="translate(34.696875 311.383219)scale(0.1 -0.1)">
       <use xlink:href="#DejaVuSans-30"/>
       <use xlink:href="#DejaVuSans-2e" x="63.623047"/>
       <use xlink:href="#DejaVuSans-30" x="95.410156"/>
      </g>
     </g>
    </g>
    <g id="ytick_2">
     <g id="line2d_8">
      <g>
       <use xlink:href="#m08fb824c9c" x="57.6" y="256.896" style="stroke: #000000; stroke-width: 0.8"/>
      </g>
     </g>
     <g id="text_9">
      <!-- 0.2 -->
      <g transform="translate(34.696875 260.695219)scale(0.1 -0.1)">
       <use xlink:href="#DejaVuSans-30"/>
       <use xlink:href="#DejaVuSans-2e" x="63.623047"/>
       <use xlink:href="#DejaVuSans-32" x="95.410156"/>
      </g>
     </g>
    </g>
    <g id="ytick_3">
     <g id="line2d_9">
      <g>
       <use xlink:href="#m08fb824c9c" x="57.6" y="206.208" style="stroke: #000000; stroke-width: 0.8"/>
      </g>
     </g>
     <g id="text_10">
      <!-- 0.4 -->
      <g transform="translate(34.696875 210.007219)scale(0.1 -0.1)">
       <use xlink:href="#DejaVuSans-30"/>
       <use xlink:href="#DejaVuSans-2e" x="63.623047"/>
       <use xlink:href="#DejaVuSans-34" x="95.410156"/>
      </g>
     </g>
    </g>
    <g id="ytick_4">
     <g id="line2d_10">
      <g>
       <use xlink:href="#m08fb824c9c" x="57.6" y="155.52" style="stroke: #000000; stroke-width: 0.8"/>
      </g>
     </g>
     <g id="text_11">
      <!-- 0.6 -->
      <g transform="translate(34.696875 159.319219)scale(0.1 -0.1)">
       <use xlink:href="#DejaVuSans-30"/>
       <use xlink:href="#DejaVuSans-2e" x="63.623047"/>
       <use xlink:href="#DejaVuSans-36" x="95.410156"/>
      </g>
     </g>
    </g>
    <g id="ytick_5">
     <g id="line2d_11">
      <g>
       <use xlink:href="#m08fb824c9c" x="57.6" y="104.832" style="stroke: #000000; stroke-width: 0.8"/>
      </g>
     </g>
     <g id="text_12">
      <!-- 0.8 -->
      <g transform="translate(34.696875 108.631219)scale(0.1 -0.1)">
       <use xlink:href="#DejaVuSans-30"/>
       <use xlink:href="#DejaVuSans-2e" x="63.623047"/>
       <use xlink:href="#DejaVuSans-38" x="95.410156"/>
      </g>
     </g>
    </g>
    <g id="ytick_6">
     <g id="line2d_12">
      <g>
       <use xlink:href="#m08fb824c9c" x="57.6" y="54.144" style="stroke: #000000; stroke-width: 0.8"/>
      </g>
     </g>
     <g id="text_13">
      <!-- 1.0 -->
      <g transform="translate(34.696875 57.943219)scale(0.1 -0.1)">
       <use xlink:href="#DejaVuSans-31"/>
       <use xlink:href="#DejaVuSans-2e" x="63.623047"/>
       <use xlink:href="#DejaVuSans-30" x="95.410156"/>
      </g>
     </g>
    </g>
    <g id="text_14">
     <!-- True Positive Rate -->
     <g transform="translate(28.617187 219.057687)rotate(-90)scale(0.1 -0.1)">
      <defs>
       <path id="DejaVuSans-54" d="M -19 4666 
L 3928 4666 
L 3928 4134 
L 2272 4134 
L 2272 0 
L 1638 0 
L 1638 4134 
L -19 4134 
L -19 4666 
z
" transform="scale(0.015625)"/>
       <path id="DejaVuSans-72" d="M 2631 2963 
Q 2534 3019 2420 3045 
Q 2306 3072 2169 3072 
Q 1681 3072 1420 2755 
Q 1159 2438 1159 1844 
L 1159 0 
L 581 0 
L 581 3500 
L 1159 3500 
L 1159 2956 
Q 1341 3275 1631 3429 
Q 1922 3584 2338 3584 
Q 2397 3584 2469 3576 
Q 2541 3569 2628 3553 
L 2631 2963 
z
" transform="scale(0.015625)"/>
       <path id="DejaVuSans-75" d="M 544 1381 
L 544 3500 
L 1119 3500 
L 1119 1403 
Q 1119 906 1312 657 
Q 1506 409 1894 409 
Q 2359 409 2629 706 
Q 2900 1003 2900 1516 
L 2900 3500 
L 3475 3500 
L 3475 0 
L 2900 0 
L 2900 538 
Q 2691 219 2414 64 
Q 2138 -91 1772 -91 
Q 1169 -91 856 284 
Q 544 659 544 1381 
z
M 1991 3584 
L 1991 3584 
z
" transform="scale(0.015625)"/>
      </defs>
      <use xlink:href="#DejaVuSans-54"/>
      <use xlink:href="#DejaVuSans-72" x="46.333984"/>
      <use xlink:href="#DejaVuSans-75" x="87.447266"/>
      <use xlink:href="#DejaVuSans-65" x="150.826172"/>
      <use xlink:href="#DejaVuSans-20" x="212.349609"/>
      <use xlink:href="#DejaVuSans-50" x="244.136719"/>
      <use xlink:href="#DejaVuSans-6f" x="300.814453"/>
      <use xlink:href="#DejaVuSans-73" x="361.996094"/>
      <use xlink:href="#DejaVuSans-69" x="414.095703"/>
      <use xlink:href="#DejaVuSans-74" x="441.878906"/>
      <use xlink:href="#DejaVuSans-69" x="481.087891"/>
      <use xlink:href="#DejaVuSans-76" x="508.871094"/>
      <use xlink:href="#DejaVuSans-65" x="568.050781"/>
      <use xlink:href="#DejaVuSans-20" x="629.574219"/>
      <use xlink:href="#DejaVuSans-52" x="661.361328"/>
      <use xlink:href="#DejaVuSans-61" x="728.59375"/>
      <use xlink:href="#DejaVuSans-74" x="789.873047"/>
      <use xlink:href="#DejaVuSans-65" x="829.082031"/>
     </g>
    </g>
   </g>
   <g id="line2d_13">
    <path d="M 74.605714 307.584 
L 87.603863 229.761037 
L 90.81306 224.094035 
L 93.691539 219.890353 
L 98.528787 212.85731 
L 99.662023 211.290502 
L 100.712361 209.961716 
L 103.47373 206.082987 
L 109.558462 196.814603 
L 110.006872 196.168838 
L 111.284588 194.293636 
L 112.940878 191.567762 
L 113.282006 190.940625 
L 113.705409 190.214139 
L 114.316918 189.100609 
L 114.949286 188.065729 
L 115.273287 187.550359 
L 115.555818 187.097081 
L 115.700796 186.842501 
L 115.934435 186.449246 
L 118.940266 180.722221 
L 119.228189 180.2172 
L 123.144109 174.436361 
L 123.235591 174.328734 
L 123.433317 174.063805 
L 125.094086 172.062347 
L 125.22401 171.95265 
L 126.219733 170.901212 
L 126.333235 170.791515 
L 126.64832 170.433446 
L 126.862759 170.195424 
L 126.943376 170.087796 
L 127.529173 169.313706 
L 127.838909 168.930801 
L 128.028673 168.723825 
L 128.172821 168.614127 
L 128.485791 168.318152 
L 128.625585 168.210524 
L 128.864698 168.005618 
L 129.791996 167.161156 
L 129.942821 167.051459 
L 130.192965 166.825855 
L 130.316958 166.720297 
L 130.492001 166.579554 
L 130.693377 166.469856 
L 130.946009 166.223555 
L 131.114706 166.113858 
L 131.522102 165.809603 
L 131.6558 165.699906 
L 132.447328 165.130722 
L 132.58878 165.023094 
L 132.791193 164.872002 
L 132.939902 164.764375 
L 133.189963 164.563608 
L 133.920779 164.015122 
L 134.065176 163.907494 
L 134.279781 163.729495 
L 134.427992 163.621867 
L 134.582715 163.530798 
L 134.768415 163.42524 
L 134.90655 163.325892 
L 135.293668 163.069241 
L 135.485381 162.959544 
L 135.625589 162.862265 
L 135.790265 162.752568 
L 136.158596 162.514546 
L 136.317549 162.404849 
L 136.644411 162.164756 
L 136.836622 162.055059 
L 137.085356 161.910176 
L 137.255837 161.800479 
L 137.512409 161.597642 
L 137.866516 161.324434 
L 138.025759 161.214737 
L 138.531645 160.819413 
L 138.699928 160.709715 
L 139.076181 160.40753 
L 139.26694 160.297833 
L 139.412083 160.202624 
L 139.678525 160.022555 
L 139.822341 159.912858 
L 139.984196 159.786603 
L 140.166206 159.668626 
L 140.344566 159.558929 
L 140.558797 159.451301 
L 140.709497 159.341604 
L 140.988089 159.151186 
L 141.122035 159.041489 
L 141.618425 158.693769 
L 141.754777 158.584072 
L 141.971413 158.439189 
L 142.122818 158.329492 
L 142.681204 157.927958 
L 142.848036 157.818261 
L 143.13459 157.594727 
L 143.493591 157.331868 
L 143.724991 157.22217 
L 143.992552 157.033822 
L 144.18862 156.924125 
L 144.353253 156.837195 
L 144.568148 156.727498 
L 144.806307 156.551568 
L 144.986368 156.443941 
L 145.13599 156.346662 
L 145.306885 156.236965 
L 145.523066 156.052756 
L 145.694625 155.943059 
L 145.952399 155.773339 
L 146.144817 155.663641 
L 146.281708 155.58913 
L 146.417811 155.479433 
L 146.562995 155.382154 
L 146.765491 155.274527 
L 146.986067 155.121364 
L 147.200547 155.011667 
L 147.379985 154.887481 
L 147.556438 154.777784 
L 147.770172 154.659808 
L 148.029107 154.550111 
L 148.204481 154.456971 
L 148.396858 154.347274 
L 148.588572 154.237577 
L 148.768259 154.129949 
L 148.902454 154.051299 
L 149.091513 153.945741 
L 149.215134 153.883648 
L 149.396521 153.773951 
L 149.681831 153.622858 
L 149.895897 153.515231 
L 150.023871 153.43658 
L 150.188339 153.326883 
L 150.368275 153.221325 
L 150.623727 153.111628 
L 150.770322 153.049535 
L 151.022663 152.939838 
L 151.183731 152.865326 
L 151.417494 152.755629 
L 151.56948 152.693536 
L 151.741412 152.585909 
L 151.874903 152.498979 
L 152.075822 152.389282 
L 152.234857 152.323049 
L 152.438265 152.217491 
L 152.558153 152.14091 
L 152.799838 152.031213 
L 152.976373 151.946353 
L 153.24269 151.836656 
L 153.380576 151.762144 
L 153.582283 151.654517 
L 153.746793 151.567587 
L 153.970147 151.45789 
L 154.126073 151.358541 
L 154.331844 151.248844 
L 154.497473 151.170193 
L 154.782576 151.060496 
L 154.957535 150.944589 
L 155.155469 150.836962 
L 155.27797 150.785218 
L 155.511319 150.675521 
L 155.655135 150.59687 
L 155.899473 150.487172 
L 156.049302 150.410591 
L 156.33793 150.300894 
L 156.465656 150.255359 
L 156.686149 150.145662 
L 156.817648 150.064941 
L 157.066921 149.955244 
L 157.202112 149.874524 
L 157.391544 149.764826 
L 157.551741 149.669617 
L 157.772193 149.55992 
L 157.916714 149.47299 
L 158.088853 149.363293 
L 158.234328 149.30327 
L 158.397552 149.193573 
L 158.540414 149.102503 
L 158.750872 148.992806 
L 158.894854 148.889318 
L 159.067491 148.779621 
L 159.227895 148.661644 
L 159.41484 148.551947 
L 159.561683 148.465017 
L 159.751323 148.35532 
L 159.876353 148.274599 
L 160.087433 148.166972 
L 160.209851 148.082112 
L 160.400444 147.972414 
L 160.54791 147.866857 
L 160.757994 147.757159 
L 160.901396 147.66402 
L 161.065159 147.554323 
L 161.208062 147.454975 
L 161.402388 147.345277 
L 161.537786 147.264557 
L 161.738084 147.154859 
L 161.909601 147.041023 
L 162.09244 146.931325 
L 162.224023 146.856814 
L 162.375801 146.749186 
L 162.497555 146.691233 
L 162.714151 146.581536 
L 162.869578 146.490467 
L 163.055444 146.380769 
L 163.183875 146.320746 
L 163.40047 146.211049 
L 163.526081 146.148956 
L 163.740769 146.041329 
L 163.869988 145.973027 
L 164.11192 145.863329 
L 164.247857 145.788818 
L 164.433433 145.679121 
L 164.560744 145.608749 
L 164.798489 145.499052 
L 164.930196 145.432819 
L 165.152555 145.323122 
L 165.289446 145.244471 
L 165.521675 145.134774 
L 165.640402 145.076821 
L 165.887228 144.967123 
L 166.018479 144.9071 
L 166.244571 144.797403 
L 166.372338 144.714613 
L 166.629781 144.604915 
L 166.751162 144.538683 
L 166.93624 144.431056 
L 167.063261 144.352405 
L 167.254311 144.242708 
L 167.392238 144.159917 
L 167.542648 144.05022 
L 167.668632 143.994336 
L 167.845375 143.884639 
L 167.978699 143.783221 
L 168.163321 143.673524 
L 168.309087 143.563826 
L 168.551849 143.454129 
L 168.686127 143.377548 
L 168.890406 143.267851 
L 169.01216 143.199549 
L 169.205283 143.089851 
L 169.34715 143.023619 
L 169.584605 142.913922 
L 169.712704 142.84769 
L 169.970395 142.737992 
L 170.095882 142.675899 
L 170.274283 142.566202 
L 170.410013 142.491691 
L 170.619102 142.381994 
L 170.75367 142.297133 
L 170.956166 142.187436 
L 171.082813 142.110855 
L 171.329391 142.001158 
L 171.476815 141.885251 
L 171.668155 141.775554 
L 171.798494 141.698973 
L 172.062198 141.589276 
L 172.190214 141.523043 
L 172.419665 141.413346 
L 172.540797 141.347114 
L 172.832535 141.237417 
L 172.958436 141.181533 
L 173.230227 141.071836 
L 173.358948 141.015952 
L 173.576829 140.906255 
L 173.701735 140.86072 
L 173.974438 140.751023 
L 174.108923 140.68893 
L 174.348617 140.579233 
L 174.462368 140.537838 
L 174.731712 140.42814 
L 174.864953 140.363978 
L 175.086566 140.254281 
L 175.2162 140.196327 
L 175.530994 140.08663 
L 175.648643 140.036956 
L 175.892774 139.927259 
L 176.010008 139.871375 
L 176.138025 139.813422 
L 176.395716 139.703725 
L 176.512121 139.664399 
L 176.783829 139.554702 
L 176.916116 139.4864 
L 177.238832 139.376703 
L 177.365355 139.335307 
L 177.594847 139.22561 
L 177.717265 139.186285 
L 177.990922 139.076587 
L 178.114459 139.014495 
L 178.407151 138.904797 
L 178.526749 138.865472 
L 178.804055 138.755775 
L 178.928588 138.697821 
L 179.236084 138.588124 
L 179.35336 138.542589 
L 179.581981 138.432892 
L 179.716383 138.348032 
L 179.97225 138.238335 
L 180.091475 138.161754 
L 180.368698 138.052056 
L 180.493563 137.983754 
L 180.737071 137.874057 
L 180.854223 137.816104 
L 181.098229 137.706407 
L 181.222596 137.650523 
L 181.510809 137.542896 
L 181.630033 137.50564 
L 181.92965 137.395943 
L 182.057791 137.321431 
L 182.352515 137.211734 
L 182.469749 137.186897 
L 182.760491 137.0772 
L 182.887222 137.008898 
L 183.134836 136.8992 
L 183.258166 136.841247 
L 183.509222 136.73155 
L 183.630023 136.683945 
L 183.902643 136.574248 
L 184.025434 136.518365 
L 184.304109 136.408667 
L 184.428435 136.332086 
L 184.693507 136.222389 
L 184.824302 136.170645 
L 185.096259 136.063017 
L 185.216645 136.011273 
L 185.506724 135.901576 
L 185.623751 135.880879 
L 185.897864 135.771181 
L 186.014103 135.723577 
L 186.258068 135.61388 
L 186.381315 135.545577 
L 186.649373 135.43588 
L 186.769925 135.375857 
L 187.026787 135.26616 
L 187.147836 135.212346 
L 187.403454 135.102649 
L 187.519983 135.038486 
L 187.829387 134.928789 
L 187.944631 134.879115 
L 188.067795 134.821162 
L 188.356962 134.711464 
L 188.472371 134.670069 
L 188.706591 134.560372 
L 188.826769 134.49 
L 189.075711 134.380303 
L 189.195889 134.307861 
L 189.475559 134.198164 
L 189.593747 134.14228 
L 189.784797 134.032583 
L 189.899087 133.982909 
L 190.108383 133.873212 
L 190.229433 133.819398 
L 190.451045 133.71177 
L 190.567492 133.635189 
L 190.808595 133.525492 
L 190.927073 133.494446 
L 191.17983 133.384748 
L 191.294203 133.333004 
L 191.568482 133.223307 
L 191.691148 133.175703 
L 191.912015 133.068075 
L 192.025434 133.02254 
L 192.266579 132.912843 
L 192.385389 132.838332 
L 192.56914 132.728635 
L 192.684093 132.664472 
L 192.93461 132.554775 
L 193.050808 132.490612 
L 193.253179 132.380915 
L 193.376136 132.314683 
L 193.632417 132.204985 
L 193.750481 132.138753 
L 193.979102 132.029056 
L 194.098451 131.985591 
L 194.347807 131.875894 
L 194.472132 131.811731 
L 194.768598 131.702034 
L 194.898024 131.656499 
L 195.096289 131.546802 
L 195.213275 131.492988 
L 195.401505 131.383291 
L 195.519651 131.329477 
L 195.69797 131.21978 
L 195.809896 131.176315 
L 196.013594 131.066618 
L 196.132653 130.990036 
L 196.333241 130.880339 
L 196.452134 130.805828 
L 196.716336 130.696131 
L 196.836348 130.627829 
L 197.049377 130.518131 
L 197.174822 130.456038 
L 197.383123 130.346341 
L 197.501933 130.298737 
L 197.704885 130.189039 
L 197.818843 130.155923 
L 197.990029 130.046226 
L 198.105563 129.975854 
L 198.356992 129.866157 
L 198.477129 129.795785 
L 198.711888 129.686088 
L 198.830242 129.630204 
L 199.072382 129.520507 
L 199.191814 129.456345 
L 199.397295 129.346647 
L 199.511212 129.303182 
L 199.765503 129.193485 
L 199.88058 129.129323 
L 200.065244 129.019625 
L 200.187703 128.930626 
L 200.420886 128.820928 
L 200.540733 128.754696 
L 200.765788 128.644999 
L 200.88099 128.595325 
L 201.16037 128.485627 
L 201.279843 128.406976 
L 201.492789 128.297279 
L 201.607452 128.241396 
L 201.802317 128.131698 
L 201.927513 128.038559 
L 202.152734 127.928862 
L 202.271046 127.872978 
L 202.515716 127.763281 
L 202.628596 127.713607 
L 202.857673 127.60391 
L 202.972668 127.539747 
L 203.213979 127.43005 
L 203.334323 127.359678 
L 203.524378 127.249981 
L 203.644225 127.192028 
L 203.849706 127.08233 
L 203.962503 127.032656 
L 204.158529 126.922959 
L 204.274685 126.862936 
L 204.521677 126.753238 
L 204.636962 126.687006 
L 204.92617 126.577309 
L 205.040834 126.535914 
L 205.233501 126.426216 
L 205.352601 126.366193 
L 205.586364 126.256496 
L 205.707414 126.192334 
L 205.949761 126.082636 
L 206.062351 126.043311 
L 206.371838 125.933614 
L 206.485547 125.892218 
L 206.606679 125.828056 
L 206.847658 125.718359 
L 206.963026 125.668684 
L 207.149639 125.558987 
L 207.261524 125.517592 
L 207.516146 125.409964 
L 207.628611 125.366499 
L 207.896877 125.256802 
L 208.009342 125.217477 
L 208.24464 125.10778 
L 208.363741 125.058105 
L 208.646728 124.948408 
L 208.762345 124.917362 
L 209.11807 124.807664 
L 209.234019 124.76213 
L 209.526213 124.652432 
L 209.637973 124.615177 
L 209.851872 124.505479 
L 209.970599 124.466154 
L 210.226881 124.356457 
L 210.341544 124.315062 
L 210.625941 124.205364 
L 210.740522 124.161899 
L 210.972087 124.052202 
L 211.088824 124.000458 
L 211.407185 123.890761 
L 211.51936 123.832808 
L 211.750842 123.72311 
L 211.866666 123.665157 
L 212.117225 123.55546 
L 212.230976 123.511995 
L 212.488667 123.402298 
L 212.602459 123.360902 
L 212.860109 123.251205 
L 212.977882 123.189112 
L 213.369022 123.079415 
L 213.483063 123.03388 
L 213.782224 122.924183 
L 213.898173 122.86623 
L 214.211516 122.756533 
L 214.329497 122.715137 
L 214.605766 122.60544 
L 214.72101 122.568184 
L 215.00744 122.458487 
L 215.121149 122.417092 
L 215.333721 122.307395 
L 215.446435 122.266 
L 215.75389 122.156302 
L 215.868512 122.100419 
L 216.151665 121.990721 
L 216.266204 121.943117 
L 216.508178 121.83342 
L 216.62649 121.779606 
L 216.965794 121.669909 
L 217.080706 121.607816 
L 217.385009 121.498119 
L 217.504026 121.448444 
L 217.760515 121.338747 
L 217.875385 121.31391 
L 218.172514 121.204213 
L 218.287135 121.162818 
L 218.407231 121.115213 
L 218.731688 121.005516 
L 218.844817 120.9724 
L 219.076921 120.862702 
L 219.19034 120.806819 
L 219.425265 120.697122 
L 219.540301 120.651587 
L 219.789781 120.54189 
L 219.902578 120.496355 
L 220.18764 120.386658 
L 220.304044 120.336984 
L 220.629497 120.227286 
L 220.746648 120.171403 
L 221.079233 120.061705 
L 221.196799 120.001682 
L 221.52051 119.891985 
L 221.642969 119.829892 
L 221.942752 119.720195 
L 222.058991 119.691219 
L 222.321078 119.581521 
L 222.433377 119.550475 
L 222.705873 119.440778 
L 222.82037 119.386964 
L 223.180408 119.277267 
L 223.294698 119.227592 
L 223.612022 119.117895 
L 223.726893 119.070291 
L 223.976249 118.960593 
L 224.09199 118.919198 
L 224.34006 118.809501 
L 224.453313 118.753617 
L 224.734933 118.64392 
L 224.85142 118.604595 
L 225.140089 118.494897 
L 225.25666 118.443153 
L 225.549891 118.333456 
L 225.66248 118.296201 
L 225.989135 118.186503 
L 226.10272 118.147178 
L 226.434973 118.03955 
L 226.547397 117.996085 
L 226.814004 117.886388 
L 226.931156 117.830505 
L 227.291318 117.720807 
L 227.405069 117.679412 
L 227.69747 117.569715 
L 227.810225 117.530389 
L 228.078823 117.420692 
L 228.192366 117.381367 
L 228.515165 117.271669 
L 228.62734 117.217856 
L 228.963906 117.110228 
L 229.078071 117.050205 
L 229.340656 116.940508 
L 229.454656 116.894973 
L 229.706458 116.785276 
L 229.819338 116.741811 
L 230.037467 116.632114 
L 230.151052 116.572091 
L 230.393276 116.462393 
L 230.506197 116.418929 
L 230.722087 116.311301 
L 230.836377 116.259557 
L 231.148974 116.14986 
L 231.261522 116.104325 
L 231.512536 115.994628 
L 231.627822 115.944954 
L 231.903179 115.835256 
L 232.016349 115.785582 
L 232.29125 115.675885 
L 232.407779 115.611722 
L 232.668705 115.502025 
L 232.780673 115.450281 
L 233.047446 115.340584 
L 233.142992 115.301258 
L 233.158418 115.301258 
L 233.350049 115.191561 
L 233.464919 115.131538 
L 233.658042 115.021841 
L 233.770176 114.961818 
L 233.996765 114.85212 
L 234.11458 114.790028 
L 234.356844 114.68033 
L 234.473083 114.618238 
L 234.789537 114.50854 
L 234.903039 114.469215 
L 235.17259 114.359518 
L 235.286507 114.311913 
L 235.522675 114.202216 
L 235.636343 114.140123 
L 235.920658 114.030426 
L 236.032501 113.986961 
L 236.297159 113.877264 
L 236.409334 113.815171 
L 236.697132 113.705474 
L 236.810468 113.65166 
L 237.074421 113.541963 
L 237.191241 113.490219 
L 237.41895 113.380521 
L 237.530793 113.341196 
L 237.789562 113.231499 
L 237.901945 113.200452 
L 238.153623 113.090755 
L 238.26671 113.041081 
L 238.455977 112.931383 
L 238.57122 112.883779 
L 238.825179 112.774082 
L 238.938308 112.724408 
L 239.178085 112.61471 
L 239.295236 112.558827 
L 239.551268 112.449129 
L 239.655647 112.389106 
L 239.662241 112.389106 
L 239.935815 112.279409 
L 240.049109 112.246293 
L 240.308335 112.136596 
L 240.420427 112.082782 
L 240.677164 111.973085 
L 240.789339 111.919271 
L 241.120888 111.809574 
L 241.233768 111.766109 
L 241.478396 111.656412 
L 241.591442 111.608807 
L 241.844945 111.49911 
L 241.960686 111.445296 
L 242.221861 111.335599 
L 242.336233 111.283855 
L 242.559132 111.174158 
L 242.672841 111.109995 
L 242.94824 111.000298 
L 243.061866 110.938205 
L 243.30326 110.828508 
L 243.415227 110.778833 
L 243.650525 110.669136 
L 243.764566 110.623601 
L 243.944917 110.513904 
L 244.05705 110.455951 
L 244.334481 110.346254 
L 244.449766 110.280021 
L 244.694602 110.170324 
L 244.807233 110.091673 
L 245.08906 109.981976 
L 245.196673 109.919883 
L 245.200156 109.919883 
L 245.473108 109.810186 
L 245.5852 109.756372 
L 245.851559 109.646675 
L 245.963817 109.584582 
L 246.225199 109.474885 
L 246.340235 109.412792 
L 246.605598 109.303095 
L 246.718768 109.253421 
L 246.962857 109.143723 
L 247.075157 109.0837 
L 247.353998 108.974003 
L 247.466172 108.91812 
L 247.741944 108.808422 
L 247.856359 108.771167 
L 248.004695 108.661469 
L 248.114382 108.609725 
L 248.115667 108.609725 
L 248.340598 108.500028 
L 248.453851 108.448284 
L 248.758859 108.338587 
L 248.872609 108.297192 
L 249.14892 108.187494 
L 249.260888 108.14196 
L 249.514266 108.032262 
L 249.627437 107.999146 
L 249.874636 107.889449 
L 249.983784 107.821147 
L 249.985691 107.821147 
L 250.276144 107.71145 
L 250.388401 107.649357 
L 250.607485 107.53966 
L 250.719286 107.504474 
L 251.032713 107.394776 
L 251.143643 107.349242 
L 251.143768 107.349242 
L 251.403989 107.239544 
L 251.517242 107.185731 
L 251.759423 107.076033 
L 251.877197 107.013941 
L 252.21903 106.904243 
L 252.334107 106.858709 
L 252.562272 106.749011 
L 252.672125 106.711756 
L 252.673286 106.711756 
L 252.937115 106.602058 
L 253.051114 106.554454 
L 253.30412 106.444757 
L 253.41646 106.41578 
L 253.702351 106.306083 
L 253.814194 106.268827 
L 254.119036 106.15913 
L 254.23992 106.097037 
L 254.477664 105.98734 
L 254.589673 105.931456 
L 254.866399 105.821759 
L 254.979818 105.786573 
L 255.296852 105.676876 
L 255.411142 105.627202 
L 255.755836 105.517504 
L 255.867804 105.474039 
L 256.117574 105.364342 
L 256.229915 105.30018 
L 256.566274 105.190482 
L 256.678573 105.159436 
L 257.036786 105.049739 
L 257.151201 105.010413 
L 257.40574 104.900716 
L 257.51862 104.857251 
L 257.809404 104.747554 
L 257.921538 104.69581 
L 258.215183 104.586113 
L 258.32968 104.532299 
L 258.572733 104.422602 
L 258.683041 104.362579 
L 258.683829 104.362579 
L 258.971254 104.252881 
L 259.080526 104.213556 
L 259.082309 104.213556 
L 259.429284 104.103859 
L 259.541625 104.072812 
L 259.823535 103.963115 
L 259.937783 103.913441 
L 260.198875 103.803743 
L 260.314284 103.751999 
L 260.615353 103.642302 
L 260.727279 103.600907 
L 261.075871 103.49121 
L 261.179877 103.458094 
L 261.186926 103.458094 
L 261.438397 103.348396 
L 261.551236 103.300792 
L 261.799887 103.191095 
L 261.914176 103.14142 
L 262.266708 103.031723 
L 262.380044 102.996537 
L 262.610863 102.88684 
L 262.722873 102.839235 
L 263.092863 102.729538 
L 263.20537 102.696422 
L 263.499181 102.586725 
L 263.611356 102.557748 
L 263.89849 102.448051 
L 264.010292 102.410795 
L 264.338399 102.301098 
L 264.450656 102.243145 
L 264.716185 102.133447 
L 264.828692 102.100331 
L 265.162272 101.990634 
L 265.281331 101.930611 
L 265.689971 101.820914 
L 265.800322 101.771239 
L 265.800985 101.771239 
L 266.094589 101.661542 
L 266.211326 101.59531 
L 266.505759 101.485613 
L 266.618639 101.440078 
L 266.91979 101.330381 
L 267.031633 101.286916 
L 267.308981 101.177218 
L 267.421322 101.144102 
L 267.689546 101.036475 
L 267.801597 100.98887 
L 268.075544 100.879173 
L 268.191037 100.808801 
L 268.475434 100.699104 
L 268.576163 100.628732 
L 268.586489 100.628732 
L 268.839992 100.519035 
L 268.952126 100.467291 
L 269.327093 100.357594 
L 269.439309 100.30171 
L 269.792504 100.192013 
L 269.904513 100.146478 
L 270.150635 100.036781 
L 270.258414 99.987107 
L 270.261649 99.987107 
L 270.567196 99.877409 
L 270.67908 99.838084 
L 271.026968 99.728387 
L 271.139972 99.678712 
L 271.51639 99.569015 
L 271.628399 99.519341 
L 271.915285 99.409644 
L 272.025718 99.366179 
L 272.026299 99.366179 
L 272.373688 99.256481 
L 272.481509 99.200598 
L 272.484744 99.200598 
L 272.78801 99.090901 
L 272.901346 99.037087 
L 273.21668 98.92739 
L 273.325952 98.883925 
L 273.327694 98.883925 
L 273.688022 98.774227 
L 273.800902 98.728693 
L 274.074517 98.618995 
L 274.187439 98.575531 
L 274.563152 98.465833 
L 274.679971 98.424438 
L 274.969636 98.314741 
L 275.082059 98.281625 
L 275.42779 98.171927 
L 275.541251 98.113974 
L 276.002557 98.004277 
L 276.114193 97.958742 
L 276.432554 97.849045 
L 276.54307 97.811789 
L 276.543485 97.811789 
L 276.866325 97.702092 
L 276.978209 97.660697 
L 277.343763 97.550999 
L 277.447519 97.515814 
L 277.454859 97.515814 
L 277.870632 97.406116 
L 277.985669 97.360582 
L 278.258372 97.250884 
L 278.372123 97.186722 
L 278.653866 97.077025 
L 278.765585 97.045978 
L 279.073081 96.936281 
L 279.187288 96.886607 
L 279.517178 96.776909 
L 279.629021 96.739654 
L 279.934568 96.629956 
L 280.046743 96.574073 
L 280.447545 96.464376 
L 280.561628 96.416771 
L 280.989385 96.307074 
L 281.103799 96.25533 
L 281.440241 96.145633 
L 281.555112 96.102168 
L 281.903082 95.99247 
L 282.018201 95.944866 
L 282.386574 95.835169 
L 282.498542 95.789634 
L 282.803301 95.679937 
L 282.914978 95.64889 
L 283.208458 95.539193 
L 283.320342 95.497798 
L 283.653881 95.388101 
L 283.767674 95.346705 
L 284.048132 95.237008 
L 284.158274 95.208032 
L 284.159104 95.208032 
L 284.460545 95.098334 
L 284.573716 95.04866 
L 284.872005 94.938963 
L 284.95059 94.893428 
L 284.983102 94.893428 
L 285.313987 94.783731 
L 285.426162 94.729917 
L 285.771686 94.62022 
L 285.884856 94.568476 
L 286.162162 94.458779 
L 286.274213 94.400825 
L 286.554297 94.291128 
L 286.656478 94.237314 
L 286.665311 94.237314 
L 286.907576 94.127617 
L 287.019377 94.092431 
L 287.333757 93.982734 
L 287.439422 93.92685 
L 287.444854 93.92685 
L 287.773044 93.817153 
L 287.882813 93.771618 
L 287.88414 93.771618 
L 288.117447 93.661921 
L 288.220458 93.612247 
L 288.22842 93.612247 
L 288.579293 93.50255 
L 288.691592 93.442527 
L 288.940741 93.332829 
L 289.04993 93.291434 
L 289.051838 93.291434 
L 289.30928 93.181737 
L 289.424399 93.113435 
L 289.648334 93.003738 
L 289.730029 92.954063 
L 289.759307 92.954063 
L 289.874841 92.902319 
L 290.102757 92.792622 
L 290.215139 92.72639 
L 290.4178 92.616692 
L 290.532588 92.558739 
L 290.765273 92.449042 
L 290.876826 92.411786 
L 291.079736 92.302089 
L 291.187598 92.252415 
L 291.190791 92.252415 
L 291.465526 92.142718 
L 291.572227 92.093043 
L 291.57654 92.093043 
L 291.833817 91.983346 
L 291.944872 91.9523 
L 292.221059 91.842602 
L 292.332777 91.809486 
L 292.56737 91.699789 
L 292.681784 91.645975 
L 292.950755 91.536278 
L 293.055756 91.488673 
L 293.061811 91.488673 
L 293.319253 91.378976 
L 293.431967 91.339651 
L 293.709191 91.229953 
L 293.817094 91.180279 
L 293.820204 91.180279 
L 294.030123 91.070582 
L 294.142339 91.014698 
L 294.42881 90.905001 
L 294.540736 90.863606 
L 294.814144 90.753909 
L 294.928144 90.683537 
L 295.159502 90.57384 
L 295.269479 90.536584 
L 295.270474 90.536584 
L 295.456507 90.426887 
L 295.563705 90.375143 
L 295.567562 90.375143 
L 295.811153 90.265445 
L 295.924116 90.215771 
L 296.196405 90.106074 
L 296.313805 90.048121 
L 296.607906 89.938423 
L 296.721947 89.892889 
L 296.971594 89.785261 
L 297.083105 89.733517 
L 297.296134 89.62382 
L 297.410548 89.572076 
L 297.646509 89.462379 
L 297.762167 89.389937 
L 298.002939 89.28024 
L 298.1164 89.242984 
L 298.456988 89.133287 
L 298.571112 89.085682 
L 298.870273 88.975985 
L 298.983443 88.926311 
L 299.233877 88.816614 
L 299.341947 88.775219 
L 299.344891 88.775219 
L 299.552197 88.665521 
L 299.664538 88.636545 
L 299.880552 88.526847 
L 299.986051 88.473034 
L 299.991608 88.473034 
L 300.229352 88.363336 
L 300.341651 88.303313 
L 300.556339 88.193616 
L 300.666067 88.143942 
L 300.667394 88.143942 
L 300.949428 88.034245 
L 301.061769 87.972152 
L 301.315811 87.862455 
L 301.428773 87.81692 
L 301.666767 87.707223 
L 301.775707 87.657548 
L 301.77778 87.657548 
L 302.032569 87.547851 
L 302.144536 87.504386 
L 302.337743 87.394689 
L 302.452364 87.338805 
L 302.681359 87.229108 
L 302.789884 87.181504 
L 302.792455 87.181504 
L 303.068891 87.071806 
L 303.173643 87.015923 
L 303.179988 87.015923 
L 303.429053 86.906226 
L 303.535754 86.852412 
L 303.539943 86.852412 
L 303.853949 86.742715 
L 303.96629 86.676482 
L 304.220871 86.566785 
L 304.335161 86.515041 
L 304.607491 86.405344 
L 304.720454 86.357739 
L 305.011404 86.248042 
L 305.122874 86.221135 
L 305.391845 86.111438 
L 305.499955 86.063833 
L 305.502941 86.063833 
L 305.809484 85.954136 
L 305.921327 85.906532 
L 306.162181 85.796834 
L 306.273983 85.759579 
L 306.552285 85.649881 
L 306.664335 85.602277 
L 306.901706 85.49258 
L 307.01102 85.455324 
L 307.012762 85.455324 
L 307.295957 85.345627 
L 307.407883 85.304232 
L 307.647079 85.194534 
L 307.759046 85.149 
L 308.020553 85.039302 
L 308.132976 85.008256 
L 308.401864 84.898559 
L 308.515366 84.838536 
L 308.782098 84.728838 
L 308.893858 84.685373 
L 309.187172 84.575676 
L 309.29549 84.534281 
L 309.298227 84.534281 
L 309.665066 84.424584 
L 309.778319 84.37284 
L 310.043101 84.263143 
L 310.152871 84.213468 
L 310.154198 84.213468 
L 310.427233 84.103771 
L 310.539325 84.054097 
L 310.76127 83.9444 
L 310.872947 83.913353 
L 311.157801 83.803656 
L 311.2701 83.743633 
L 311.520742 83.633936 
L 311.632751 83.582192 
L 312.019329 83.472494 
L 312.131338 83.42489 
L 312.466785 83.315193 
L 312.578752 83.271728 
L 312.893754 83.16203 
L 313.005597 83.118565 
L 313.355351 83.008868 
L 313.467111 82.973682 
L 313.742219 82.863985 
L 313.853938 82.826729 
L 314.080942 82.717032 
L 314.190339 82.669428 
L 314.191914 82.669428 
L 314.477307 82.55973 
L 314.591224 82.516265 
L 314.901042 82.406568 
L 315.011932 82.363103 
L 315.012098 82.363103 
L 315.437989 82.253406 
L 315.548671 82.203732 
L 315.549003 82.203732 
L 315.834105 82.094034 
L 315.9457 82.069197 
L 316.271028 81.9595 
L 316.382954 81.913965 
L 316.682073 81.804268 
L 316.793958 81.760803 
L 317.069895 81.651106 
L 317.183895 81.605571 
L 317.448719 81.495874 
L 317.560687 81.452409 
L 317.79557 81.342712 
L 317.901317 81.288898 
L 317.906583 81.288898 
L 318.211674 81.179201 
L 318.302161 81.137805 
L 318.322771 81.137805 
L 318.646855 81.028108 
L 318.760108 80.994992 
L 319.08979 80.885295 
L 319.201924 80.829411 
L 319.601233 80.719714 
L 319.713989 80.678319 
L 320.007012 80.568622 
L 320.118938 80.523087 
L 320.449367 80.41339 
L 320.555072 80.365785 
L 320.560463 80.365785 
L 320.672348 80.32232 
L 320.944098 80.212623 
L 321.055982 80.173297 
L 321.333247 80.0636 
L 321.439865 80.026344 
L 321.444344 80.026344 
L 321.780661 79.916647 
L 321.893126 79.883531 
L 322.125397 79.773834 
L 322.239894 79.72002 
L 322.531756 79.610323 
L 322.643972 79.554439 
L 322.90776 79.444742 
L 323.021884 79.397138 
L 323.345055 79.28744 
L 323.457023 79.241906 
L 323.795787 79.132208 
L 323.908045 79.070116 
L 324.223918 78.960418 
L 324.336756 78.919023 
L 324.608132 78.809326 
L 324.721427 78.755512 
L 325.050819 78.645815 
L 325.159676 78.614768 
L 325.161667 78.614768 
L 325.442249 78.505071 
L 325.556539 78.455397 
L 325.858769 78.3457 
L 325.967626 78.308444 
L 325.969865 78.308444 
L 326.344252 78.198747 
L 326.45597 78.165631 
L 326.766701 78.055933 
L 326.857146 78.022817 
L 326.877798 78.022817 
L 327.188819 77.91312 
L 327.294773 77.877934 
L 327.299915 77.877934 
L 327.573158 77.768237 
L 327.683674 77.720632 
L 327.684047 77.720632 
L 327.930086 77.610935 
L 328.034879 77.5654 
L 328.041141 77.5654 
L 328.368584 77.455703 
L 328.482251 77.416378 
L 328.759185 77.30668 
L 328.872438 77.254936 
L 329.091065 77.145239 
L 329.205562 77.091425 
L 329.500783 76.981728 
L 329.611589 76.942403 
L 329.61188 76.942403 
L 329.900341 76.832705 
L 330.003144 76.785101 
L 330.011438 76.785101 
L 330.268383 76.675404 
L 330.381429 76.627799 
L 330.636424 76.518102 
L 330.748392 76.474637 
L 331.04664 76.36494 
L 331.155456 76.313196 
L 331.157737 76.313196 
L 331.405517 76.203498 
L 331.516116 76.151754 
L 331.516489 76.151754 
L 331.807149 76.042057 
L 331.909869 75.996522 
L 331.918246 75.996522 
L 332.162833 75.886825 
L 332.275464 75.84957 
L 332.609417 75.739872 
L 332.718233 75.690198 
L 332.720431 75.690198 
L 332.953863 75.580501 
L 333.065789 75.537036 
L 333.345708 75.427339 
L 333.457841 75.373525 
L 333.747713 75.263828 
L 333.851262 75.220363 
L 333.858726 75.220363 
L 334.158468 75.110665 
L 334.26239 75.06927 
L 334.269564 75.06927 
L 334.590746 74.959573 
L 334.701552 74.911968 
L 334.701842 74.911968 
L 334.987525 74.802271 
L 335.09319 74.758806 
L 335.098456 74.758806 
L 335.331141 74.649109 
L 335.442943 74.589086 
L 335.678282 74.479389 
L 335.791121 74.437993 
L 336.049102 74.328296 
L 336.16136 74.270343 
L 336.394667 74.160646 
L 336.501119 74.127529 
L 336.505764 74.127529 
L 336.846933 74.017832 
L 336.958777 73.974367 
L 337.194074 73.86467 
L 337.3026 73.804647 
L 337.30513 73.804647 
L 337.578123 73.69495 
L 337.687105 73.632857 
L 337.689054 73.632857 
L 337.98328 73.52316 
L 338.092966 73.475555 
L 338.094169 73.475555 
L 338.354431 73.365858 
L 338.46275 73.312044 
L 338.465487 73.312044 
L 338.711359 73.202347 
L 338.818641 73.152673 
L 338.822456 73.152673 
L 339.028393 73.042975 
L 339.140444 72.991231 
L 339.401121 72.881534 
L 339.513296 72.813232 
L 339.763523 72.703535 
L 339.878393 72.643512 
L 340.115474 72.535884 
L 340.115474 72.533815 
L 340.227898 72.467582 
L 340.444119 72.357885 
L 340.546051 72.287513 
L 340.555092 72.287513 
L 340.780147 72.177816 
L 340.886308 72.134351 
L 340.891243 72.134351 
L 341.098134 72.024654 
L 341.211719 71.964631 
L 341.446561 71.854933 
L 341.550857 71.788701 
L 341.557575 71.788701 
L 341.825841 71.679004 
L 341.935237 71.62312 
L 341.93673 71.62312 
L 342.140179 71.513423 
L 342.25393 71.44926 
L 342.49918 71.339563 
L 342.605259 71.262982 
L 342.610111 71.262982 
L 342.836617 71.153285 
L 342.944936 71.099471 
L 342.947714 71.099471 
L 343.170156 70.989774 
L 343.266988 70.948379 
L 343.281129 70.948379 
L 343.459199 70.838681 
L 343.571498 70.760031 
L 343.798668 70.650333 
L 343.890854 70.586171 
L 343.909764 70.586171 
L 344.152817 70.476473 
L 344.26126 70.42059 
L 344.263831 70.42059 
L 344.460562 70.310893 
L 344.572695 70.236381 
L 344.772329 70.126684 
L 344.883219 70.056312 
L 345.094091 69.946615 
L 345.207925 69.880383 
L 345.46686 69.770685 
L 345.576837 69.706523 
L 345.577583 69.706523 
L 345.830423 69.596826 
L 345.928415 69.540942 
L 345.941519 69.540942 
L 346.195064 69.431245 
L 346.304502 69.379501 
L 346.306119 69.379501 
L 346.462749 69.269804 
L 346.56692 69.205641 
L 346.573265 69.205641 
L 346.796495 69.095944 
L 346.906514 69.052479 
L 346.907385 69.052479 
L 347.099347 68.942782 
L 347.211397 68.891038 
L 347.426831 68.78134 
L 347.536518 68.721317 
L 347.537762 68.721317 
L 347.780773 68.61162 
L 347.893031 68.553667 
L 348.113441 68.443969 
L 348.219893 68.386016 
L 348.224497 68.386016 
L 348.42496 68.276319 
L 348.53784 68.230784 
L 348.75402 68.121087 
L 348.863334 68.058994 
L 348.865075 68.058994 
L 349.104852 67.949297 
L 349.211967 67.901692 
L 349.2157 67.901692 
L 349.433414 67.791995 
L 349.54165 67.725763 
L 349.54447 67.725763 
L 349.748043 67.616066 
L 349.861794 67.549833 
L 350.085273 67.440136 
L 350.19637 67.367694 
L 350.453978 67.257997 
L 350.558523 67.200044 
L 350.565075 67.200044 
L 350.775988 67.090347 
L 350.887832 67.048951 
L 351.130511 66.939254 
L 351.23659 66.875092 
L 351.241483 66.875092 
L 351.515057 66.765394 
L 351.623085 66.695023 
L 351.626113 66.695023 
L 351.860913 66.585325 
L 351.969936 66.531512 
L 351.972009 66.531512 
L 352.2088 66.421814 
L 352.316745 66.351442 
L 352.319855 66.351442 
L 352.506924 66.241745 
L 352.609354 66.20242 
L 352.617813 66.20242 
L 352.811434 66.092722 
L 352.92336 66.047188 
L 353.164796 65.937491 
L 353.274068 65.885747 
L 353.275892 65.885747 
L 353.536279 65.776049 
L 353.648952 65.736724 
L 353.875914 65.627027 
L 353.979173 65.585631 
L 353.986928 65.585631 
L 354.199086 65.475934 
L 354.312131 65.42833 
L 354.565178 65.318632 
L 354.678017 65.275167 
L 354.858201 65.16547 
L 354.968925 65.115796 
L 354.969298 65.115796 
L 355.308352 65.006099 
L 355.420486 64.952285 
L 355.704137 64.842588 
L 355.816353 64.782565 
L 356.114685 64.672867 
L 356.226486 64.637681 
L 356.555256 64.527984 
L 356.668468 64.47624 
L 356.982226 64.366543 
L 357.094401 64.312729 
L 357.37996 64.203032 
L 357.491844 64.159567 
L 357.764879 64.04987 
L 357.870751 64.002265 
L 357.875852 64.002265 
L 358.151002 63.892568 
L 358.257868 63.844964 
L 358.262098 63.844964 
L 358.588421 63.735266 
L 358.69703 63.70215 
L 358.699477 63.70215 
L 358.981013 63.592453 
L 359.093022 63.542779 
L 359.432408 63.433081 
L 359.543339 63.393756 
L 359.887162 63.284059 
L 359.998964 63.246803 
L 360.289955 63.137106 
L 360.398025 63.09985 
L 360.40101 63.09985 
L 360.692333 62.990153 
L 360.796173 62.961176 
L 360.803389 62.961176 
L 361.202657 62.851479 
L 361.305086 62.808014 
L 361.313753 62.808014 
L 361.511355 62.698317 
L 361.621498 62.6652 
L 361.622452 62.6652 
L 361.928538 62.555503 
L 362.033539 62.512038 
L 362.039594 62.512038 
L 362.307279 62.402341 
L 362.410331 62.356806 
L 362.418376 62.356806 
L 362.770576 62.247109 
L 362.875452 62.211923 
L 362.881631 62.211923 
L 363.300804 62.102226 
L 363.409537 62.06497 
L 363.411694 62.06497 
L 363.708118 61.955273 
L 363.820002 61.913878 
L 364.267333 61.80418 
L 364.356119 61.785553 
L 364.378389 61.785553 
L 364.71848 61.675855 
L 364.815891 61.640669 
L 364.829493 61.640669 
L 365.202594 61.530972 
L 365.314603 61.485437 
L 365.653284 61.37574 
L 365.764879 61.348833 
L 366.1758 61.239136 
L 366.28615 61.195671 
L 366.286855 61.195671 
L 366.795934 61.085974 
L 366.90786 61.040439 
L 367.370162 60.930742 
L 367.467822 60.910044 
L 367.481176 60.910044 
L 367.948371 60.800347 
L 368.060628 60.77137 
L 368.400305 60.661673 
L 368.51165 60.628557 
L 368.885581 60.51886 
L 368.992904 60.491953 
L 368.996636 60.491953 
L 369.305708 60.382256 
L 369.417136 60.357418 
L 369.730894 60.247721 
L 369.834278 60.193907 
L 369.841908 60.193907 
L 370.269624 60.08421 
L 370.373215 60.042815 
L 370.380679 60.042815 
L 370.754319 59.933118 
L 370.862969 59.902071 
L 370.865126 59.902071 
L 371.193398 59.792374 
L 371.301675 59.763397 
L 371.304453 59.763397 
L 371.679088 59.6537 
L 371.791305 59.626793 
L 372.157439 59.517096 
L 372.268867 59.496398 
L 372.657436 59.386701 
L 372.763515 59.359794 
L 372.76845 59.359794 
L 373.12687 59.250097 
L 373.221628 59.212841 
L 373.237967 59.212841 
L 373.526304 59.103144 
L 373.622596 59.0514 
L 373.637069 59.0514 
L 374.100283 58.941703 
L 374.21196 58.910656 
L 374.589125 58.800959 
L 374.695868 58.782331 
L 374.700181 58.782331 
L 375.060343 58.672634 
L 375.173015 58.647797 
L 375.46496 58.5381 
L 375.574315 58.519472 
L 375.576057 58.519472 
L 375.917724 58.409775 
L 376.018288 58.36631 
L 376.028116 58.36631 
L 376.436466 58.256612 
L 376.530892 58.233845 
L 376.547521 58.233845 
L 377.01567 58.124148 
L 377.116814 58.095171 
L 377.126476 58.095171 
L 377.541088 57.985474 
L 377.652682 57.960637 
L 378.076998 57.85094 
L 378.187141 57.824033 
L 378.187929 57.824033 
L 378.530425 57.714335 
L 378.637997 57.685359 
L 378.641356 57.685359 
L 379.107099 57.575662 
L 379.217823 57.557034 
L 379.737767 57.447336 
L 379.849735 57.401802 
L 380.364537 57.292104 
L 380.476297 57.258988 
L 380.91944 57.149291 
L 381.016685 57.130663 
L 381.03037 57.130663 
L 381.510504 57.020966 
L 381.62214 56.98992 
L 382.066817 56.880222 
L 382.178826 56.859525 
L 382.739244 56.749827 
L 382.849429 56.718781 
L 382.850216 56.718781 
L 383.388822 56.609084 
L 383.487105 56.592526 
L 383.499877 56.592526 
L 384.147381 56.482828 
L 384.253294 56.457991 
L 384.258478 56.457991 
L 384.960307 56.348294 
L 385.071777 56.325527 
L 385.716793 56.215829 
L 385.799898 56.205481 
L 385.827849 56.205481 
L 386.580395 56.095783 
L 386.674365 56.079225 
L 386.69145 56.079225 
L 387.508648 55.969528 
L 387.620035 55.95504 
L 388.397753 55.845342 
L 388.494377 55.830854 
L 388.508642 55.830854 
L 389.757537 55.721157 
L 389.846406 55.708738 
L 389.868634 55.708738 
L 390.808456 55.599041 
L 390.903338 55.578343 
L 390.919511 55.578343 
L 391.915442 55.468646 
L 392.015632 55.456228 
L 392.026497 55.456228 
L 393.180966 55.34653 
L 393.25221 55.332042 
L 393.29198 55.332042 
L 394.352229 55.222345 
L 394.461543 55.205787 
L 394.46316 55.205787 
L 395.707037 55.096089 
L 395.810877 55.083671 
L 395.818134 55.083671 
L 396.989688 54.973974 
L 397.101158 54.965695 
L 398.141212 54.855997 
L 398.245425 54.845649 
L 398.252267 54.845649 
L 399.59791 54.735951 
L 399.708219 54.719393 
L 399.708675 54.719393 
L 401.119922 54.609696 
L 401.231226 54.597277 
L 402.971824 54.48758 
L 402.982357 54.483441 
L 403.082797 54.483441 
L 404.870628 54.373743 
L 404.942702 54.365464 
L 404.981725 54.365464 
L 408.061413 54.255767 
L 408.061413 54.253697 
L 408.172427 54.253697 
L 414.72 54.144 
L 414.72 54.144 
" clip-path="url(#p0d0f8911f1)" style="fill: none; stroke: #ff8c00; stroke-width: 1.5; stroke-linecap: square"/>
   </g>
   <g id="line2d_14">
    <path d="M 74.605714 307.584 
L 414.72 54.144 
" clip-path="url(#p0d0f8911f1)" style="fill: none; stroke-dasharray: 5.55,2.4; stroke-dashoffset: 0; stroke: #0000ff; stroke-width: 1.5"/>
   </g>
   <g id="patch_3">
    <path d="M 57.6 307.584 
L 57.6 41.472 
" style="fill: none; stroke: #000000; stroke-width: 0.8; stroke-linejoin: miter; stroke-linecap: square"/>
   </g>
   <g id="patch_4">
    <path d="M 414.72 307.584 
L 414.72 41.472 
" style="fill: none; stroke: #000000; stroke-width: 0.8; stroke-linejoin: miter; stroke-linecap: square"/>
   </g>
   <g id="patch_5">
    <path d="M 57.6 307.584 
L 414.72 307.584 
" style="fill: none; stroke: #000000; stroke-width: 0.8; stroke-linejoin: miter; stroke-linecap: square"/>
   </g>
   <g id="patch_6">
    <path d="M 57.6 41.472 
L 414.72 41.472 
" style="fill: none; stroke: #000000; stroke-width: 0.8; stroke-linejoin: miter; stroke-linecap: square"/>
   </g>
   <g id="text_15">
    <!-- ROC CURVE -->
    <g transform="translate(200.855625 35.472)scale(0.12 -0.12)">
     <defs>
      <path id="DejaVuSans-4f" d="M 2522 4238 
Q 1834 4238 1429 3725 
Q 1025 3213 1025 2328 
Q 1025 1447 1429 934 
Q 1834 422 2522 422 
Q 3209 422 3611 934 
Q 4013 1447 4013 2328 
Q 4013 3213 3611 3725 
Q 3209 4238 2522 4238 
z
M 2522 4750 
Q 3503 4750 4090 4092 
Q 4678 3434 4678 2328 
Q 4678 1225 4090 567 
Q 3503 -91 2522 -91 
Q 1538 -91 948 565 
Q 359 1222 359 2328 
Q 359 3434 948 4092 
Q 1538 4750 2522 4750 
z
" transform="scale(0.015625)"/>
      <path id="DejaVuSans-43" d="M 4122 4306 
L 4122 3641 
Q 3803 3938 3442 4084 
Q 3081 4231 2675 4231 
Q 1875 4231 1450 3742 
Q 1025 3253 1025 2328 
Q 1025 1406 1450 917 
Q 1875 428 2675 428 
Q 3081 428 3442 575 
Q 3803 722 4122 1019 
L 4122 359 
Q 3791 134 3420 21 
Q 3050 -91 2638 -91 
Q 1578 -91 968 557 
Q 359 1206 359 2328 
Q 359 3453 968 4101 
Q 1578 4750 2638 4750 
Q 3056 4750 3426 4639 
Q 3797 4528 4122 4306 
z
" transform="scale(0.015625)"/>
      <path id="DejaVuSans-55" d="M 556 4666 
L 1191 4666 
L 1191 1831 
Q 1191 1081 1462 751 
Q 1734 422 2344 422 
Q 2950 422 3222 751 
Q 3494 1081 3494 1831 
L 3494 4666 
L 4128 4666 
L 4128 1753 
Q 4128 841 3676 375 
Q 3225 -91 2344 -91 
Q 1459 -91 1007 375 
Q 556 841 556 1753 
L 556 4666 
z
" transform="scale(0.015625)"/>
      <path id="DejaVuSans-56" d="M 1831 0 
L 50 4666 
L 709 4666 
L 2188 738 
L 3669 4666 
L 4325 4666 
L 2547 0 
L 1831 0 
z
" transform="scale(0.015625)"/>
      <path id="DejaVuSans-45" d="M 628 4666 
L 3578 4666 
L 3578 4134 
L 1259 4134 
L 1259 2753 
L 3481 2753 
L 3481 2222 
L 1259 2222 
L 1259 531 
L 3634 531 
L 3634 0 
L 628 0 
L 628 4666 
z
" transform="scale(0.015625)"/>
     </defs>
     <use xlink:href="#DejaVuSans-52"/>
     <use xlink:href="#DejaVuSans-4f" x="69.482422"/>
     <use xlink:href="#DejaVuSans-43" x="148.193359"/>
     <use xlink:href="#DejaVuSans-20" x="218.017578"/>
     <use xlink:href="#DejaVuSans-43" x="249.804688"/>
     <use xlink:href="#DejaVuSans-55" x="319.628906"/>
     <use xlink:href="#DejaVuSans-52" x="392.822266"/>
     <use xlink:href="#DejaVuSans-56" x="456.804688"/>
     <use xlink:href="#DejaVuSans-45" x="525.212891"/>
    </g>
   </g>
   <g id="legend_1">
    <g id="patch_7">
     <path d="M 234.97 302.584 
L 407.72 302.584 
Q 409.72 302.584 409.72 300.584 
L 409.72 286.905875 
Q 409.72 284.905875 407.72 284.905875 
L 234.97 284.905875 
Q 232.97 284.905875 232.97 286.905875 
L 232.97 300.584 
Q 232.97 302.584 234.97 302.584 
z
" style="fill: #ffffff; opacity: 0.8; stroke: #cccccc; stroke-linejoin: miter"/>
    </g>
    <g id="line2d_15">
     <path d="M 236.97 293.004312 
L 246.97 293.004312 
L 256.97 293.004312 
" style="fill: none; stroke: #ff8c00; stroke-width: 1.5; stroke-linecap: square"/>
    </g>
    <g id="text_16">
     <!-- ROC curve (ROC AUC=0.74) -->
     <g transform="translate(264.97 296.504312)scale(0.1 -0.1)">
      <defs>
       <path id="DejaVuSans-63" d="M 3122 3366 
L 3122 2828 
Q 2878 2963 2633 3030 
Q 2388 3097 2138 3097 
Q 1578 3097 1268 2742 
Q 959 2388 959 1747 
Q 959 1106 1268 751 
Q 1578 397 2138 397 
Q 2388 397 2633 464 
Q 2878 531 3122 666 
L 3122 134 
Q 2881 22 2623 -34 
Q 2366 -91 2075 -91 
Q 1284 -91 818 406 
Q 353 903 353 1747 
Q 353 2603 823 3093 
Q 1294 3584 2113 3584 
Q 2378 3584 2631 3529 
Q 2884 3475 3122 3366 
z
" transform="scale(0.015625)"/>
       <path id="DejaVuSans-28" d="M 1984 4856 
Q 1566 4138 1362 3434 
Q 1159 2731 1159 2009 
Q 1159 1288 1364 580 
Q 1569 -128 1984 -844 
L 1484 -844 
Q 1016 -109 783 600 
Q 550 1309 550 2009 
Q 550 2706 781 3412 
Q 1013 4119 1484 4856 
L 1984 4856 
z
" transform="scale(0.015625)"/>
       <path id="DejaVuSans-41" d="M 2188 4044 
L 1331 1722 
L 3047 1722 
L 2188 4044 
z
M 1831 4666 
L 2547 4666 
L 4325 0 
L 3669 0 
L 3244 1197 
L 1141 1197 
L 716 0 
L 50 0 
L 1831 4666 
z
" transform="scale(0.015625)"/>
       <path id="DejaVuSans-3d" d="M 678 2906 
L 4684 2906 
L 4684 2381 
L 678 2381 
L 678 2906 
z
M 678 1631 
L 4684 1631 
L 4684 1100 
L 678 1100 
L 678 1631 
z
" transform="scale(0.015625)"/>
       <path id="DejaVuSans-37" d="M 525 4666 
L 3525 4666 
L 3525 4397 
L 1831 0 
L 1172 0 
L 2766 4134 
L 525 4134 
L 525 4666 
z
" transform="scale(0.015625)"/>
       <path id="DejaVuSans-29" d="M 513 4856 
L 1013 4856 
Q 1481 4119 1714 3412 
Q 1947 2706 1947 2009 
Q 1947 1309 1714 600 
Q 1481 -109 1013 -844 
L 513 -844 
Q 928 -128 1133 580 
Q 1338 1288 1338 2009 
Q 1338 2731 1133 3434 
Q 928 4138 513 4856 
z
" transform="scale(0.015625)"/>
      </defs>
      <use xlink:href="#DejaVuSans-52"/>
      <use xlink:href="#DejaVuSans-4f" x="69.482422"/>
      <use xlink:href="#DejaVuSans-43" x="148.193359"/>
      <use xlink:href="#DejaVuSans-20" x="218.017578"/>
      <use xlink:href="#DejaVuSans-63" x="249.804688"/>
      <use xlink:href="#DejaVuSans-75" x="304.785156"/>
      <use xlink:href="#DejaVuSans-72" x="368.164062"/>
      <use xlink:href="#DejaVuSans-76" x="409.277344"/>
      <use xlink:href="#DejaVuSans-65" x="468.457031"/>
      <use xlink:href="#DejaVuSans-20" x="529.980469"/>
      <use xlink:href="#DejaVuSans-28" x="561.767578"/>
      <use xlink:href="#DejaVuSans-52" x="600.78125"/>
      <use xlink:href="#DejaVuSans-4f" x="670.263672"/>
      <use xlink:href="#DejaVuSans-43" x="748.974609"/>
      <use xlink:href="#DejaVuSans-20" x="818.798828"/>
      <use xlink:href="#DejaVuSans-41" x="850.585938"/>
      <use xlink:href="#DejaVuSans-55" x="918.994141"/>
      <use xlink:href="#DejaVuSans-43" x="992.1875"/>
      <use xlink:href="#DejaVuSans-3d" x="1062.011719"/>
      <use xlink:href="#DejaVuSans-30" x="1145.800781"/>
      <use xlink:href="#DejaVuSans-2e" x="1209.423828"/>
      <use xlink:href="#DejaVuSans-37" x="1241.210938"/>
      <use xlink:href="#DejaVuSans-34" x="1304.833984"/>
      <use xlink:href="#DejaVuSans-29" x="1368.457031"/>
     </g>
    </g>
   </g>
  </g>
 </g>
 <defs>
  <clipPath id="p0d0f8911f1">
   <rect x="57.6" y="41.472" width="357.12" height="266.112"/>
  </clipPath>
 </defs>
</svg>
