<?xml version="1.0" encoding="utf-8" standalone="no"?>
<!DOCTYPE svg PUBLIC "-//W3C//DTD SVG 1.1//EN"
  "http://www.w3.org/Graphics/SVG/1.1/DTD/svg11.dtd">
<svg xmlns:xlink="http://www.w3.org/1999/xlink" width="460.8pt" height="345.6pt" viewBox="0 0 460.8 345.6" xmlns="http://www.w3.org/2000/svg" version="1.1">
 <metadata>
  <rdf:RDF xmlns:dc="http://purl.org/dc/elements/1.1/" xmlns:cc="http://creativecommons.org/ns#" xmlns:rdf="http://www.w3.org/1999/02/22-rdf-syntax-ns#">
   <cc:Work>
    <dc:type rdf:resource="http://purl.org/dc/dcmitype/StillImage"/>
    <dc:date>2022-05-22T16:46:04.461690</dc:date>
    <dc:format>image/svg+xml</dc:format>
    <dc:creator>
     <cc:Agent>
      <dc:title>Matplotlib v3.5.1, https://matplotlib.org/</dc:title>
     </cc:Agent>
    </dc:creator>
   </cc:Work>
  </rdf:RDF>
 </metadata>
 <defs>
  <style type="text/css">*{stroke-linejoin: round; stroke-linecap: butt}</style>
 </defs>
 <g id="figure_1">
  <g id="patch_1">
   <path d="M 0 345.6 
L 460.8 345.6 
L 460.8 0 
L 0 0 
z
" style="fill: #ffffff"/>
  </g>
  <g id="axes_1">
   <g id="patch_2">
    <path d="M 57.6 307.584 
L 414.72 307.584 
L 414.72 41.472 
L 57.6 41.472 
z
" style="fill: #ffffff"/>
   </g>
   <g id="matplotlib.axis_1">
    <g id="xtick_1">
     <g id="line2d_1">
      <defs>
       <path id="m5c1e1aeeac" d="M 0 0 
L 0 3.5 
" style="stroke: #000000; stroke-width: 0.8"/>
      </defs>
      <g>
       <use xlink:href="#m5c1e1aeeac" x="74.605714" y="307.584" style="stroke: #000000; stroke-width: 0.8"/>
      </g>
     </g>
     <g id="text_1">
      <!-- 0.0 -->
      <g transform="translate(66.654152 322.182437)scale(0.1 -0.1)">
       <defs>
        <path id="DejaVuSans-30" d="M 2034 4250 
Q 1547 4250 1301 3770 
Q 1056 3291 1056 2328 
Q 1056 1369 1301 889 
Q 1547 409 2034 409 
Q 2525 409 2770 889 
Q 3016 1369 3016 2328 
Q 3016 3291 2770 3770 
Q 2525 4250 2034 4250 
z
M 2034 4750 
Q 2819 4750 3233 4129 
Q 3647 3509 3647 2328 
Q 3647 1150 3233 529 
Q 2819 -91 2034 -91 
Q 1250 -91 836 529 
Q 422 1150 422 2328 
Q 422 3509 836 4129 
Q 1250 4750 2034 4750 
z
" transform="scale(0.015625)"/>
        <path id="DejaVuSans-2e" d="M 684 794 
L 1344 794 
L 1344 0 
L 684 0 
L 684 794 
z
" transform="scale(0.015625)"/>
       </defs>
       <use xlink:href="#DejaVuSans-30"/>
       <use xlink:href="#DejaVuSans-2e" x="63.623047"/>
       <use xlink:href="#DejaVuSans-30" x="95.410156"/>
      </g>
     </g>
    </g>
    <g id="xtick_2">
     <g id="line2d_2">
      <g>
       <use xlink:href="#m5c1e1aeeac" x="142.628571" y="307.584" style="stroke: #000000; stroke-width: 0.8"/>
      </g>
     </g>
     <g id="text_2">
      <!-- 0.2 -->
      <g transform="translate(134.677009 322.182437)scale(0.1 -0.1)">
       <defs>
        <path id="DejaVuSans-32" d="M 1228 531 
L 3431 531 
L 3431 0 
L 469 0 
L 469 531 
Q 828 903 1448 1529 
Q 2069 2156 2228 2338 
Q 2531 2678 2651 2914 
Q 2772 3150 2772 3378 
Q 2772 3750 2511 3984 
Q 2250 4219 1831 4219 
Q 1534 4219 1204 4116 
Q 875 4013 500 3803 
L 500 4441 
Q 881 4594 1212 4672 
Q 1544 4750 1819 4750 
Q 2544 4750 2975 4387 
Q 3406 4025 3406 3419 
Q 3406 3131 3298 2873 
Q 3191 2616 2906 2266 
Q 2828 2175 2409 1742 
Q 1991 1309 1228 531 
z
" transform="scale(0.015625)"/>
       </defs>
       <use xlink:href="#DejaVuSans-30"/>
       <use xlink:href="#DejaVuSans-2e" x="63.623047"/>
       <use xlink:href="#DejaVuSans-32" x="95.410156"/>
      </g>
     </g>
    </g>
    <g id="xtick_3">
     <g id="line2d_3">
      <g>
       <use xlink:href="#m5c1e1aeeac" x="210.651429" y="307.584" style="stroke: #000000; stroke-width: 0.8"/>
      </g>
     </g>
     <g id="text_3">
      <!-- 0.4 -->
      <g transform="translate(202.699866 322.182437)scale(0.1 -0.1)">
       <defs>
        <path id="DejaVuSans-34" d="M 2419 4116 
L 825 1625 
L 2419 1625 
L 2419 4116 
z
M 2253 4666 
L 3047 4666 
L 3047 1625 
L 3713 1625 
L 3713 1100 
L 3047 1100 
L 3047 0 
L 2419 0 
L 2419 1100 
L 313 1100 
L 313 1709 
L 2253 4666 
z
" transform="scale(0.015625)"/>
       </defs>
       <use xlink:href="#DejaVuSans-30"/>
       <use xlink:href="#DejaVuSans-2e" x="63.623047"/>
       <use xlink:href="#DejaVuSans-34" x="95.410156"/>
      </g>
     </g>
    </g>
    <g id="xtick_4">
     <g id="line2d_4">
      <g>
       <use xlink:href="#m5c1e1aeeac" x="278.674286" y="307.584" style="stroke: #000000; stroke-width: 0.8"/>
      </g>
     </g>
     <g id="text_4">
      <!-- 0.6 -->
      <g transform="translate(270.722723 322.182437)scale(0.1 -0.1)">
       <defs>
        <path id="DejaVuSans-36" d="M 2113 2584 
Q 1688 2584 1439 2293 
Q 1191 2003 1191 1497 
Q 1191 994 1439 701 
Q 1688 409 2113 409 
Q 2538 409 2786 701 
Q 3034 994 3034 1497 
Q 3034 2003 2786 2293 
Q 2538 2584 2113 2584 
z
M 3366 4563 
L 3366 3988 
Q 3128 4100 2886 4159 
Q 2644 4219 2406 4219 
Q 1781 4219 1451 3797 
Q 1122 3375 1075 2522 
Q 1259 2794 1537 2939 
Q 1816 3084 2150 3084 
Q 2853 3084 3261 2657 
Q 3669 2231 3669 1497 
Q 3669 778 3244 343 
Q 2819 -91 2113 -91 
Q 1303 -91 875 529 
Q 447 1150 447 2328 
Q 447 3434 972 4092 
Q 1497 4750 2381 4750 
Q 2619 4750 2861 4703 
Q 3103 4656 3366 4563 
z
" transform="scale(0.015625)"/>
       </defs>
       <use xlink:href="#DejaVuSans-30"/>
       <use xlink:href="#DejaVuSans-2e" x="63.623047"/>
       <use xlink:href="#DejaVuSans-36" x="95.410156"/>
      </g>
     </g>
    </g>
    <g id="xtick_5">
     <g id="line2d_5">
      <g>
       <use xlink:href="#m5c1e1aeeac" x="346.697143" y="307.584" style="stroke: #000000; stroke-width: 0.8"/>
      </g>
     </g>
     <g id="text_5">
      <!-- 0.8 -->
      <g transform="translate(338.74558 322.182437)scale(0.1 -0.1)">
       <defs>
        <path id="DejaVuSans-38" d="M 2034 2216 
Q 1584 2216 1326 1975 
Q 1069 1734 1069 1313 
Q 1069 891 1326 650 
Q 1584 409 2034 409 
Q 2484 409 2743 651 
Q 3003 894 3003 1313 
Q 3003 1734 2745 1975 
Q 2488 2216 2034 2216 
z
M 1403 2484 
Q 997 2584 770 2862 
Q 544 3141 544 3541 
Q 544 4100 942 4425 
Q 1341 4750 2034 4750 
Q 2731 4750 3128 4425 
Q 3525 4100 3525 3541 
Q 3525 3141 3298 2862 
Q 3072 2584 2669 2484 
Q 3125 2378 3379 2068 
Q 3634 1759 3634 1313 
Q 3634 634 3220 271 
Q 2806 -91 2034 -91 
Q 1263 -91 848 271 
Q 434 634 434 1313 
Q 434 1759 690 2068 
Q 947 2378 1403 2484 
z
M 1172 3481 
Q 1172 3119 1398 2916 
Q 1625 2713 2034 2713 
Q 2441 2713 2670 2916 
Q 2900 3119 2900 3481 
Q 2900 3844 2670 4047 
Q 2441 4250 2034 4250 
Q 1625 4250 1398 4047 
Q 1172 3844 1172 3481 
z
" transform="scale(0.015625)"/>
       </defs>
       <use xlink:href="#DejaVuSans-30"/>
       <use xlink:href="#DejaVuSans-2e" x="63.623047"/>
       <use xlink:href="#DejaVuSans-38" x="95.410156"/>
      </g>
     </g>
    </g>
    <g id="xtick_6">
     <g id="line2d_6">
      <g>
       <use xlink:href="#m5c1e1aeeac" x="414.72" y="307.584" style="stroke: #000000; stroke-width: 0.8"/>
      </g>
     </g>
     <g id="text_6">
      <!-- 1.0 -->
      <g transform="translate(406.768438 322.182437)scale(0.1 -0.1)">
       <defs>
        <path id="DejaVuSans-31" d="M 794 531 
L 1825 531 
L 1825 4091 
L 703 3866 
L 703 4441 
L 1819 4666 
L 2450 4666 
L 2450 531 
L 3481 531 
L 3481 0 
L 794 0 
L 794 531 
z
" transform="scale(0.015625)"/>
       </defs>
       <use xlink:href="#DejaVuSans-31"/>
       <use xlink:href="#DejaVuSans-2e" x="63.623047"/>
       <use xlink:href="#DejaVuSans-30" x="95.410156"/>
      </g>
     </g>
    </g>
    <g id="text_7">
     <!-- False Positive Rate -->
     <g transform="translate(189.693594 335.860562)scale(0.1 -0.1)">
      <defs>
       <path id="DejaVuSans-46" d="M 628 4666 
L 3309 4666 
L 3309 4134 
L 1259 4134 
L 1259 2759 
L 3109 2759 
L 3109 2228 
L 1259 2228 
L 1259 0 
L 628 0 
L 628 4666 
z
" transform="scale(0.015625)"/>
       <path id="DejaVuSans-61" d="M 2194 1759 
Q 1497 1759 1228 1600 
Q 959 1441 959 1056 
Q 959 750 1161 570 
Q 1363 391 1709 391 
Q 2188 391 2477 730 
Q 2766 1069 2766 1631 
L 2766 1759 
L 2194 1759 
z
M 3341 1997 
L 3341 0 
L 2766 0 
L 2766 531 
Q 2569 213 2275 61 
Q 1981 -91 1556 -91 
Q 1019 -91 701 211 
Q 384 513 384 1019 
Q 384 1609 779 1909 
Q 1175 2209 1959 2209 
L 2766 2209 
L 2766 2266 
Q 2766 2663 2505 2880 
Q 2244 3097 1772 3097 
Q 1472 3097 1187 3025 
Q 903 2953 641 2809 
L 641 3341 
Q 956 3463 1253 3523 
Q 1550 3584 1831 3584 
Q 2591 3584 2966 3190 
Q 3341 2797 3341 1997 
z
" transform="scale(0.015625)"/>
       <path id="DejaVuSans-6c" d="M 603 4863 
L 1178 4863 
L 1178 0 
L 603 0 
L 603 4863 
z
" transform="scale(0.015625)"/>
       <path id="DejaVuSans-73" d="M 2834 3397 
L 2834 2853 
Q 2591 2978 2328 3040 
Q 2066 3103 1784 3103 
Q 1356 3103 1142 2972 
Q 928 2841 928 2578 
Q 928 2378 1081 2264 
Q 1234 2150 1697 2047 
L 1894 2003 
Q 2506 1872 2764 1633 
Q 3022 1394 3022 966 
Q 3022 478 2636 193 
Q 2250 -91 1575 -91 
Q 1294 -91 989 -36 
Q 684 19 347 128 
L 347 722 
Q 666 556 975 473 
Q 1284 391 1588 391 
Q 1994 391 2212 530 
Q 2431 669 2431 922 
Q 2431 1156 2273 1281 
Q 2116 1406 1581 1522 
L 1381 1569 
Q 847 1681 609 1914 
Q 372 2147 372 2553 
Q 372 3047 722 3315 
Q 1072 3584 1716 3584 
Q 2034 3584 2315 3537 
Q 2597 3491 2834 3397 
z
" transform="scale(0.015625)"/>
       <path id="DejaVuSans-65" d="M 3597 1894 
L 3597 1613 
L 953 1613 
Q 991 1019 1311 708 
Q 1631 397 2203 397 
Q 2534 397 2845 478 
Q 3156 559 3463 722 
L 3463 178 
Q 3153 47 2828 -22 
Q 2503 -91 2169 -91 
Q 1331 -91 842 396 
Q 353 884 353 1716 
Q 353 2575 817 3079 
Q 1281 3584 2069 3584 
Q 2775 3584 3186 3129 
Q 3597 2675 3597 1894 
z
M 3022 2063 
Q 3016 2534 2758 2815 
Q 2500 3097 2075 3097 
Q 1594 3097 1305 2825 
Q 1016 2553 972 2059 
L 3022 2063 
z
" transform="scale(0.015625)"/>
       <path id="DejaVuSans-20" transform="scale(0.015625)"/>
       <path id="DejaVuSans-50" d="M 1259 4147 
L 1259 2394 
L 2053 2394 
Q 2494 2394 2734 2622 
Q 2975 2850 2975 3272 
Q 2975 3691 2734 3919 
Q 2494 4147 2053 4147 
L 1259 4147 
z
M 628 4666 
L 2053 4666 
Q 2838 4666 3239 4311 
Q 3641 3956 3641 3272 
Q 3641 2581 3239 2228 
Q 2838 1875 2053 1875 
L 1259 1875 
L 1259 0 
L 628 0 
L 628 4666 
z
" transform="scale(0.015625)"/>
       <path id="DejaVuSans-6f" d="M 1959 3097 
Q 1497 3097 1228 2736 
Q 959 2375 959 1747 
Q 959 1119 1226 758 
Q 1494 397 1959 397 
Q 2419 397 2687 759 
Q 2956 1122 2956 1747 
Q 2956 2369 2687 2733 
Q 2419 3097 1959 3097 
z
M 1959 3584 
Q 2709 3584 3137 3096 
Q 3566 2609 3566 1747 
Q 3566 888 3137 398 
Q 2709 -91 1959 -91 
Q 1206 -91 779 398 
Q 353 888 353 1747 
Q 353 2609 779 3096 
Q 1206 3584 1959 3584 
z
" transform="scale(0.015625)"/>
       <path id="DejaVuSans-69" d="M 603 3500 
L 1178 3500 
L 1178 0 
L 603 0 
L 603 3500 
z
M 603 4863 
L 1178 4863 
L 1178 4134 
L 603 4134 
L 603 4863 
z
" transform="scale(0.015625)"/>
       <path id="DejaVuSans-74" d="M 1172 4494 
L 1172 3500 
L 2356 3500 
L 2356 3053 
L 1172 3053 
L 1172 1153 
Q 1172 725 1289 603 
Q 1406 481 1766 481 
L 2356 481 
L 2356 0 
L 1766 0 
Q 1100 0 847 248 
Q 594 497 594 1153 
L 594 3053 
L 172 3053 
L 172 3500 
L 594 3500 
L 594 4494 
L 1172 4494 
z
" transform="scale(0.015625)"/>
       <path id="DejaVuSans-76" d="M 191 3500 
L 800 3500 
L 1894 563 
L 2988 3500 
L 3597 3500 
L 2284 0 
L 1503 0 
L 191 3500 
z
" transform="scale(0.015625)"/>
       <path id="DejaVuSans-52" d="M 2841 2188 
Q 3044 2119 3236 1894 
Q 3428 1669 3622 1275 
L 4263 0 
L 3584 0 
L 2988 1197 
Q 2756 1666 2539 1819 
Q 2322 1972 1947 1972 
L 1259 1972 
L 1259 0 
L 628 0 
L 628 4666 
L 2053 4666 
Q 2853 4666 3247 4331 
Q 3641 3997 3641 3322 
Q 3641 2881 3436 2590 
Q 3231 2300 2841 2188 
z
M 1259 4147 
L 1259 2491 
L 2053 2491 
Q 2509 2491 2742 2702 
Q 2975 2913 2975 3322 
Q 2975 3731 2742 3939 
Q 2509 4147 2053 4147 
L 1259 4147 
z
" transform="scale(0.015625)"/>
      </defs>
      <use xlink:href="#DejaVuSans-46"/>
      <use xlink:href="#DejaVuSans-61" x="48.394531"/>
      <use xlink:href="#DejaVuSans-6c" x="109.673828"/>
      <use xlink:href="#DejaVuSans-73" x="137.457031"/>
      <use xlink:href="#DejaVuSans-65" x="189.556641"/>
      <use xlink:href="#DejaVuSans-20" x="251.080078"/>
      <use xlink:href="#DejaVuSans-50" x="282.867188"/>
      <use xlink:href="#DejaVuSans-6f" x="339.544922"/>
      <use xlink:href="#DejaVuSans-73" x="400.726562"/>
      <use xlink:href="#DejaVuSans-69" x="452.826172"/>
      <use xlink:href="#DejaVuSans-74" x="480.609375"/>
      <use xlink:href="#DejaVuSans-69" x="519.818359"/>
      <use xlink:href="#DejaVuSans-76" x="547.601562"/>
      <use xlink:href="#DejaVuSans-65" x="606.78125"/>
      <use xlink:href="#DejaVuSans-20" x="668.304688"/>
      <use xlink:href="#DejaVuSans-52" x="700.091797"/>
      <use xlink:href="#DejaVuSans-61" x="767.324219"/>
      <use xlink:href="#DejaVuSans-74" x="828.603516"/>
      <use xlink:href="#DejaVuSans-65" x="867.8125"/>
     </g>
    </g>
   </g>
   <g id="matplotlib.axis_2">
    <g id="ytick_1">
     <g id="line2d_7">
      <defs>
       <path id="mc008d6eeed" d="M 0 0 
L -3.5 0 
" style="stroke: #000000; stroke-width: 0.8"/>
      </defs>
      <g>
       <use xlink:href="#mc008d6eeed" x="57.6" y="307.584" style="stroke: #000000; stroke-width: 0.8"/>
      </g>
     </g>
     <g id="text_8">
      <!-- 0.0 -->
      <g transform="translate(34.696875 311.383219)scale(0.1 -0.1)">
       <use xlink:href="#DejaVuSans-30"/>
       <use xlink:href="#DejaVuSans-2e" x="63.623047"/>
       <use xlink:href="#DejaVuSans-30" x="95.410156"/>
      </g>
     </g>
    </g>
    <g id="ytick_2">
     <g id="line2d_8">
      <g>
       <use xlink:href="#mc008d6eeed" x="57.6" y="256.896" style="stroke: #000000; stroke-width: 0.8"/>
      </g>
     </g>
     <g id="text_9">
      <!-- 0.2 -->
      <g transform="translate(34.696875 260.695219)scale(0.1 -0.1)">
       <use xlink:href="#DejaVuSans-30"/>
       <use xlink:href="#DejaVuSans-2e" x="63.623047"/>
       <use xlink:href="#DejaVuSans-32" x="95.410156"/>
      </g>
     </g>
    </g>
    <g id="ytick_3">
     <g id="line2d_9">
      <g>
       <use xlink:href="#mc008d6eeed" x="57.6" y="206.208" style="stroke: #000000; stroke-width: 0.8"/>
      </g>
     </g>
     <g id="text_10">
      <!-- 0.4 -->
      <g transform="translate(34.696875 210.007219)scale(0.1 -0.1)">
       <use xlink:href="#DejaVuSans-30"/>
       <use xlink:href="#DejaVuSans-2e" x="63.623047"/>
       <use xlink:href="#DejaVuSans-34" x="95.410156"/>
      </g>
     </g>
    </g>
    <g id="ytick_4">
     <g id="line2d_10">
      <g>
       <use xlink:href="#mc008d6eeed" x="57.6" y="155.52" style="stroke: #000000; stroke-width: 0.8"/>
      </g>
     </g>
     <g id="text_11">
      <!-- 0.6 -->
      <g transform="translate(34.696875 159.319219)scale(0.1 -0.1)">
       <use xlink:href="#DejaVuSans-30"/>
       <use xlink:href="#DejaVuSans-2e" x="63.623047"/>
       <use xlink:href="#DejaVuSans-36" x="95.410156"/>
      </g>
     </g>
    </g>
    <g id="ytick_5">
     <g id="line2d_11">
      <g>
       <use xlink:href="#mc008d6eeed" x="57.6" y="104.832" style="stroke: #000000; stroke-width: 0.8"/>
      </g>
     </g>
     <g id="text_12">
      <!-- 0.8 -->
      <g transform="translate(34.696875 108.631219)scale(0.1 -0.1)">
       <use xlink:href="#DejaVuSans-30"/>
       <use xlink:href="#DejaVuSans-2e" x="63.623047"/>
       <use xlink:href="#DejaVuSans-38" x="95.410156"/>
      </g>
     </g>
    </g>
    <g id="ytick_6">
     <g id="line2d_12">
      <g>
       <use xlink:href="#mc008d6eeed" x="57.6" y="54.144" style="stroke: #000000; stroke-width: 0.8"/>
      </g>
     </g>
     <g id="text_13">
      <!-- 1.0 -->
      <g transform="translate(34.696875 57.943219)scale(0.1 -0.1)">
       <use xlink:href="#DejaVuSans-31"/>
       <use xlink:href="#DejaVuSans-2e" x="63.623047"/>
       <use xlink:href="#DejaVuSans-30" x="95.410156"/>
      </g>
     </g>
    </g>
    <g id="text_14">
     <!-- True Positive Rate -->
     <g transform="translate(28.617187 219.057687)rotate(-90)scale(0.1 -0.1)">
      <defs>
       <path id="DejaVuSans-54" d="M -19 4666 
L 3928 4666 
L 3928 4134 
L 2272 4134 
L 2272 0 
L 1638 0 
L 1638 4134 
L -19 4134 
L -19 4666 
z
" transform="scale(0.015625)"/>
       <path id="DejaVuSans-72" d="M 2631 2963 
Q 2534 3019 2420 3045 
Q 2306 3072 2169 3072 
Q 1681 3072 1420 2755 
Q 1159 2438 1159 1844 
L 1159 0 
L 581 0 
L 581 3500 
L 1159 3500 
L 1159 2956 
Q 1341 3275 1631 3429 
Q 1922 3584 2338 3584 
Q 2397 3584 2469 3576 
Q 2541 3569 2628 3553 
L 2631 2963 
z
" transform="scale(0.015625)"/>
       <path id="DejaVuSans-75" d="M 544 1381 
L 544 3500 
L 1119 3500 
L 1119 1403 
Q 1119 906 1312 657 
Q 1506 409 1894 409 
Q 2359 409 2629 706 
Q 2900 1003 2900 1516 
L 2900 3500 
L 3475 3500 
L 3475 0 
L 2900 0 
L 2900 538 
Q 2691 219 2414 64 
Q 2138 -91 1772 -91 
Q 1169 -91 856 284 
Q 544 659 544 1381 
z
M 1991 3584 
L 1991 3584 
z
" transform="scale(0.015625)"/>
      </defs>
      <use xlink:href="#DejaVuSans-54"/>
      <use xlink:href="#DejaVuSans-72" x="46.333984"/>
      <use xlink:href="#DejaVuSans-75" x="87.447266"/>
      <use xlink:href="#DejaVuSans-65" x="150.826172"/>
      <use xlink:href="#DejaVuSans-20" x="212.349609"/>
      <use xlink:href="#DejaVuSans-50" x="244.136719"/>
      <use xlink:href="#DejaVuSans-6f" x="300.814453"/>
      <use xlink:href="#DejaVuSans-73" x="361.996094"/>
      <use xlink:href="#DejaVuSans-69" x="414.095703"/>
      <use xlink:href="#DejaVuSans-74" x="441.878906"/>
      <use xlink:href="#DejaVuSans-69" x="481.087891"/>
      <use xlink:href="#DejaVuSans-76" x="508.871094"/>
      <use xlink:href="#DejaVuSans-65" x="568.050781"/>
      <use xlink:href="#DejaVuSans-20" x="629.574219"/>
      <use xlink:href="#DejaVuSans-52" x="661.361328"/>
      <use xlink:href="#DejaVuSans-61" x="728.59375"/>
      <use xlink:href="#DejaVuSans-74" x="789.873047"/>
      <use xlink:href="#DejaVuSans-65" x="829.082031"/>
     </g>
    </g>
   </g>
   <g id="line2d_13">
    <path d="M 74.605714 307.584 
L 74.624707 307.474303 
L 74.735721 307.029304 
L 74.735804 307.029304 
L 74.765164 306.919607 
L 74.87622 306.561539 
L 74.918892 306.451841 
L 75.028869 306.081354 
L 75.029905 306.081354 
L 75.059805 305.973727 
L 75.170736 305.5991 
L 75.170902 305.5991 
L 75.202543 305.489403 
L 75.313598 305.009219 
L 75.345405 304.899522 
L 75.456377 304.4835 
L 75.45646 304.4835 
L 75.482006 304.373803 
L 75.592605 304.005386 
L 75.593019 304.005386 
L 75.631503 303.895688 
L 75.74177 303.465178 
L 75.7426 303.465178 
L 75.775817 303.355481 
L 75.885338 302.982924 
L 75.886748 302.982924 
L 75.918721 302.874262 
L 75.918721 302.873227 
L 76.029776 302.50274 
L 76.029817 302.50274 
L 76.064776 302.393043 
L 76.175831 302.053602 
L 76.207846 301.943905 
L 76.317781 301.540302 
L 76.318859 301.540302 
L 76.350169 301.430605 
L 76.461183 301.060118 
L 76.494441 300.95042 
L 76.605206 300.613049 
L 76.605538 300.613049 
L 76.646634 300.503352 
L 76.757358 300.143214 
L 76.757731 300.143214 
L 76.794348 300.033517 
L 76.904906 299.683727 
L 76.905445 299.683727 
L 76.930576 299.57403 
L 77.040843 299.240799 
L 77.041631 299.240799 
L 77.076838 299.131102 
L 77.187272 298.764754 
L 77.187894 298.764754 
L 77.222147 298.655057 
L 77.332498 298.342523 
L 77.333244 298.342523 
L 77.362314 298.232826 
L 77.472851 297.883036 
L 77.473411 297.883036 
L 77.521267 297.773339 
L 77.632032 297.444247 
L 77.63228 297.444247 
L 77.670308 297.33455 
L 77.780078 297.024086 
L 77.781405 297.024086 
L 77.819017 296.914389 
L 77.929948 296.620483 
L 77.930114 296.620483 
L 77.97656 296.510786 
L 78.087574 296.144438 
L 78.132153 296.034741 
L 78.249388 295.726347 
L 78.287042 295.61665 
L 78.396148 295.291697 
L 78.398139 295.291697 
L 78.43965 295.182 
L 78.55029 294.809443 
L 78.550705 294.809443 
L 78.591096 294.699746 
L 78.701571 294.385143 
L 78.702193 294.385143 
L 78.744906 294.275445 
L 78.85592 293.954633 
L 78.890298 293.844935 
L 78.890298 293.843901 
L 79.015495 293.493076 
L 79.052859 293.383379 
L 79.163665 293.085334 
L 79.163914 293.085334 
L 79.203227 292.975636 
L 79.314282 292.737614 
L 79.360521 292.627917 
L 79.470705 292.298825 
L 79.471596 292.298825 
L 79.505995 292.189128 
L 79.616283 291.868315 
L 79.617092 291.868315 
L 79.668597 291.758618 
L 79.779569 291.501967 
L 79.815731 291.39227 
L 79.926288 291.110783 
L 79.926828 291.110783 
L 79.964316 291.001086 
L 80.075413 290.688552 
L 80.114352 290.578855 
L 80.225076 290.241484 
L 80.225325 290.241484 
L 80.263062 290.131787 
L 80.374159 289.821323 
L 80.418655 289.711625 
L 80.527637 289.41151 
L 80.529752 289.41151 
L 80.574829 289.301813 
L 80.683998 288.997558 
L 80.685926 288.997558 
L 80.727064 288.887861 
L 80.837124 288.63535 
L 80.83787 288.63535 
L 80.891573 288.525653 
L 81.005573 288.231747 
L 81.04613 288.12205 
L 81.155651 287.879888 
L 81.157185 287.879888 
L 81.202387 287.770191 
L 81.31958 287.465936 
L 81.358644 287.356239 
L 81.476127 287.037496 
L 81.530037 286.927799 
L 81.640595 286.662869 
L 81.641134 286.662869 
L 81.685382 286.553172 
L 81.79623 286.302731 
L 81.796479 286.302731 
L 81.851674 286.193034 
L 81.962647 285.921895 
L 82.005485 285.812198 
L 82.116581 285.545199 
L 82.156019 285.435502 
L 82.265374 285.133317 
L 82.266991 285.133317 
L 82.304106 285.02362 
L 82.413586 284.731784 
L 82.415203 284.731784 
L 82.457709 284.622086 
L 82.567769 284.361297 
L 82.568806 284.361297 
L 82.602769 284.251599 
L 82.713617 283.999089 
L 82.713866 283.999089 
L 82.751977 283.889391 
L 82.751977 283.888357 
L 82.889862 283.55823 
L 82.932452 283.447498 
L 83.042802 283.189813 
L 83.043548 283.189813 
L 83.086096 283.080115 
L 83.196488 282.840023 
L 83.197193 282.840023 
L 83.246583 282.730326 
L 83.357514 282.479885 
L 83.35768 282.479885 
L 83.406655 282.370188 
L 83.517254 282.09491 
L 83.51771 282.09491 
L 83.572782 281.984178 
L 83.68251 281.732702 
L 83.683837 281.732702 
L 83.724353 281.623005 
L 83.834081 281.329099 
L 83.835408 281.329099 
L 83.891392 281.219402 
L 84.002115 280.956542 
L 84.002488 280.956542 
L 84.054574 280.846845 
L 84.165671 280.600543 
L 84.215185 280.490846 
L 84.32537 280.219708 
L 84.326282 280.219708 
L 84.381851 280.11001 
L 84.491455 279.845081 
L 84.492948 279.845081 
L 84.535993 279.735384 
L 84.64709 279.497361 
L 84.694365 279.389734 
L 84.804425 279.145502 
L 84.805337 279.145502 
L 84.850705 279.037875 
L 84.961014 278.775015 
L 84.961719 278.775015 
L 85.011026 278.665318 
L 85.12121 278.431435 
L 85.122081 278.431435 
L 85.174084 278.321738 
L 85.284558 278.031972 
L 85.28518 278.031972 
L 85.349334 277.922274 
L 85.459974 277.630438 
L 85.460347 277.630438 
L 85.506918 277.520741 
L 85.617973 277.264091 
L 85.677813 277.153359 
L 85.788247 276.881185 
L 85.78891 276.881185 
L 85.847714 276.771488 
L 85.963787 276.523117 
L 86.011767 276.41342 
L 86.122822 276.194025 
L 86.171134 276.084328 
L 86.281401 275.840096 
L 86.28221 275.840096 
L 86.328594 275.730399 
L 86.438032 275.46133 
L 86.439649 275.46133 
L 86.498577 275.351633 
L 86.608181 275.123959 
L 86.609653 275.123959 
L 86.663377 275.014262 
L 86.779657 274.755542 
L 86.827969 274.645845 
L 86.939066 274.385055 
L 86.977259 274.275358 
L 87.087443 274.006289 
L 87.088356 274.006289 
L 87.132355 273.896592 
L 87.242705 273.613035 
L 87.243452 273.613035 
L 87.295662 273.503338 
L 87.40651 273.232199 
L 87.406738 273.232199 
L 87.451214 273.122502 
L 87.451214 273.121467 
L 87.572097 272.87827 
L 87.624929 272.770643 
L 87.73586 272.491225 
L 87.735984 272.491225 
L 87.792715 272.381528 
L 87.903355 272.087622 
L 87.903811 272.087622 
L 87.950299 271.977925 
L 88.067077 271.690228 
L 88.111864 271.580531 
L 88.222753 271.299043 
L 88.22296 271.299043 
L 88.277742 271.188311 
L 88.394727 270.89544 
L 88.440509 270.785743 
L 88.55115 270.520814 
L 88.551523 270.520814 
L 88.600208 270.413186 
L 88.600208 270.410082 
L 88.711263 270.152397 
L 88.711305 270.152397 
L 88.754723 270.042699 
L 88.868495 269.769491 
L 88.920207 269.659794 
L 89.03373 269.417632 
L 89.088884 269.307935 
L 89.088884 269.3069 
L 89.204688 269.071982 
L 89.25103 268.962285 
L 89.361173 268.697356 
L 89.362127 268.697356 
L 89.409817 268.587658 
L 89.51996 268.341357 
L 89.520872 268.341357 
L 89.578058 268.23166 
L 89.689113 268.008126 
L 89.689134 268.008126 
L 89.738338 267.898428 
L 89.848439 267.635569 
L 89.849393 267.635569 
L 89.900566 267.525872 
L 90.009921 267.329244 
L 90.01158 267.329244 
L 90.067605 267.219547 
L 90.17779 266.989804 
L 90.178681 266.989804 
L 90.225687 266.880107 
L 90.336327 266.617247 
L 90.336784 266.617247 
L 90.390549 266.50755 
L 90.503781 266.288155 
L 90.563124 266.178458 
L 90.674013 265.942506 
L 90.674096 265.942506 
L 90.720708 265.834878 
L 90.831514 265.55753 
L 90.831639 265.55753 
L 90.881444 265.447833 
L 90.991338 265.184973 
L 90.992291 265.184973 
L 91.053666 265.075276 
L 91.167624 264.78344 
L 91.228626 264.673743 
L 91.335742 264.481255 
L 91.33964 264.481255 
L 91.40597 264.371558 
L 91.519534 264.123187 
L 91.566146 264.01349 
L 91.675916 263.75477 
L 91.67716 263.75477 
L 91.732397 263.645072 
L 91.732397 263.644037 
L 91.866924 263.355306 
L 91.912665 263.244574 
L 92.018619 263.030354 
L 92.023741 263.030354 
L 92.070581 262.920656 
L 92.181511 262.666076 
L 92.181574 262.666076 
L 92.235878 262.556379 
L 92.34685 262.322496 
L 92.346892 262.322496 
L 92.392881 262.212799 
L 92.511878 261.952009 
L 92.559091 261.842312 
L 92.670188 261.591871 
L 92.726213 261.482173 
L 92.834904 261.268988 
L 92.837268 261.268988 
L 92.884668 261.159291 
L 92.994023 260.950245 
L 92.995764 260.950245 
L 93.048182 260.840548 
L 93.164794 260.5632 
L 93.229652 260.455573 
L 93.229652 260.454538 
L 93.340251 260.22169 
L 93.340749 260.22169 
L 93.388107 260.111993 
L 93.504553 259.842924 
L 93.561221 259.733227 
L 93.684531 259.491065 
L 93.734875 259.381367 
L 93.844769 259.174391 
L 93.84593 259.174391 
L 93.899799 259.064694 
L 94.007288 258.84116 
L 94.010854 258.84116 
L 94.057051 258.731463 
L 94.167111 258.476882 
L 94.168148 258.476882 
L 94.223344 258.367185 
L 94.339064 258.137442 
L 94.403466 258.02671 
L 94.531254 257.752467 
L 94.57712 257.642769 
L 94.688133 257.425445 
L 94.688175 257.425445 
L 94.732692 257.314712 
L 94.843188 257.083934 
L 94.843768 257.083934 
L 94.902323 256.974237 
L 95.01313 256.754842 
L 95.01342 256.754842 
L 95.062478 256.645145 
L 95.17316 256.436099 
L 95.173534 256.436099 
L 95.23271 256.326402 
L 95.343144 256.078031 
L 95.343807 256.078031 
L 95.409287 255.968334 
L 95.519824 255.728242 
L 95.520343 255.728242 
L 95.564217 255.618544 
L 95.674257 255.40122 
L 95.675273 255.40122 
L 95.73814 255.291522 
L 95.853757 255.063849 
L 95.905635 254.953117 
L 96.026934 254.699571 
L 96.088557 254.589874 
L 96.19841 254.341503 
L 96.199654 254.341503 
L 96.25767 254.231805 
L 96.25767 254.23077 
L 96.379092 253.975155 
L 96.44308 253.865458 
L 96.557494 253.612947 
L 96.608875 253.50325 
L 96.717856 253.298344 
L 96.719971 253.298344 
L 96.777655 253.188647 
L 96.893397 252.956833 
L 96.949795 252.847136 
L 97.059669 252.615323 
L 97.060892 252.615323 
L 97.10854 252.505626 
L 97.224406 252.267603 
L 97.27842 252.157906 
L 97.391777 251.932302 
L 97.450207 251.82157 
L 97.593235 251.505932 
L 97.648348 251.396235 
L 97.759196 251.160282 
L 97.759404 251.160282 
L 97.806306 251.050585 
L 97.915806 250.824981 
L 97.917278 250.824981 
L 97.98112 250.715284 
L 98.094249 250.508308 
L 98.158133 250.39861 
L 98.268317 250.135751 
L 98.269229 250.135751 
L 98.334834 250.026054 
L 98.44477 249.823217 
L 98.445931 249.823217 
L 98.503387 249.71352 
L 98.622839 249.436172 
L 98.665926 249.326475 
L 98.776608 249.094662 
L 98.776981 249.094662 
L 98.836366 248.984965 
L 98.951983 248.759361 
L 99.005727 248.649664 
L 99.116699 248.430269 
L 99.116824 248.430269 
L 99.17542 248.320572 
L 99.286226 248.115666 
L 99.286517 248.115666 
L 99.336114 248.005968 
L 99.454468 247.765876 
L 99.507466 247.656179 
L 99.624845 247.449203 
L 99.697935 247.339506 
L 99.813345 247.111832 
L 99.871236 247.002135 
L 99.986957 246.770322 
L 100.051172 246.660625 
L 100.166914 246.428811 
L 100.249687 246.319114 
L 100.249687 246.318079 
L 100.369824 246.09351 
L 100.425227 245.983813 
L 100.536116 245.739582 
L 100.536324 245.739582 
L 100.579618 245.629884 
L 100.690175 245.40428 
L 100.690714 245.40428 
L 100.76565 245.294583 
L 100.880769 245.093816 
L 100.94372 244.984119 
L 101.054111 244.754376 
L 101.054796 244.754376 
L 101.107566 244.644679 
L 101.107566 244.643644 
L 101.227951 244.412866 
L 101.283479 244.303168 
L 101.283479 244.302133 
L 101.409588 244.054797 
L 101.463788 243.9451 
L 101.463788 243.944065 
L 101.588176 243.725705 
L 101.649364 243.616008 
L 101.760067 243.400753 
L 101.76044 243.400753 
L 101.818601 243.291056 
L 101.818601 243.290021 
L 101.938116 243.08201 
L 101.998993 242.972313 
L 102.109509 242.763267 
L 102.110048 242.763267 
L 102.183366 242.65357 
L 102.296371 242.463152 
L 102.366433 242.353455 
L 102.484435 242.123711 
L 102.554933 242.014014 
L 102.665532 241.821526 
L 102.66603 241.821526 
L 102.710112 241.711829 
L 102.824775 241.53383 
L 102.891375 241.424133 
L 102.891375 241.423098 
L 103.006784 241.208878 
L 103.076246 241.09918 
L 103.187259 240.912902 
L 103.25133 240.803205 
L 103.362426 240.602438 
L 103.425501 240.492741 
L 103.535955 240.318881 
L 103.536474 240.318881 
L 103.607345 240.209184 
L 103.723003 239.98151 
L 103.788981 239.871813 
L 103.788981 239.870778 
L 103.90945 239.63793 
L 103.969747 239.528233 
L 104.085156 239.308838 
L 104.15611 239.199141 
L 104.265922 238.990095 
L 104.267166 238.990095 
L 104.333434 238.880398 
L 104.44366 238.69205 
L 104.444531 238.69205 
L 104.519113 238.582353 
L 104.519113 238.581318 
L 104.653786 238.35054 
L 104.711221 238.240842 
L 104.822235 238.009029 
L 104.822276 238.009029 
L 104.872039 237.899332 
L 104.98127 237.700635 
L 104.983115 237.700635 
L 105.040322 237.590938 
L 105.149719 237.363264 
L 105.151316 237.363264 
L 105.214287 237.253567 
L 105.329282 237.060044 
L 105.456717 236.860313 
L 105.509135 236.750615 
L 105.619153 236.527081 
L 105.620211 236.527081 
L 105.682975 236.417384 
L 105.682975 236.416349 
L 105.826107 236.156594 
L 105.896833 236.046897 
L 106.006582 235.844061 
L 106.007805 235.844061 
L 106.068102 235.734363 
L 106.178991 235.50255 
L 106.179074 235.50255 
L 106.231243 235.392853 
L 106.231243 235.391818 
L 106.365604 235.105156 
L 106.437574 234.995459 
L 106.552444 234.807111 
L 106.614669 234.697414 
L 106.729789 234.496647 
L 106.785067 234.38695 
L 106.899855 234.200671 
L 106.965335 234.090974 
L 106.965335 234.089939 
L 107.089329 233.877789 
L 107.156758 233.768092 
L 107.26771 233.583883 
L 107.267731 233.583883 
L 107.331137 233.474186 
L 107.331137 233.473151 
L 107.451482 233.242373 
L 107.520072 233.132675 
L 107.630837 232.936048 
L 107.631169 232.936048 
L 107.688563 232.826351 
L 107.798332 232.629724 
L 107.799618 232.629724 
L 107.866716 232.520027 
L 107.976941 232.304772 
L 107.977729 232.304772 
L 108.027451 232.194039 
L 108.138465 231.961191 
L 108.203406 231.851494 
L 108.312927 231.673495 
L 108.314461 231.673495 
L 108.383508 231.563798 
L 108.498005 231.394077 
L 108.565766 231.28438 
L 108.67396 231.098102 
L 108.676863 231.098102 
L 108.754992 230.988404 
L 108.864969 230.787638 
L 108.866088 230.787638 
L 108.930366 230.67794 
L 109.04138 230.479244 
L 109.041421 230.479244 
L 109.100266 230.369546 
L 109.214639 230.206035 
L 109.274853 230.096338 
L 109.38964 229.912129 
L 109.439487 229.802432 
L 109.549111 229.554061 
L 109.550521 229.554061 
L 109.610963 229.444364 
L 109.720069 229.239458 
L 109.72206 229.239458 
L 109.812587 229.12976 
L 109.925758 228.922784 
L 109.987775 228.813087 
L 110.10476 228.61439 
L 110.165907 228.504693 
L 110.27493 228.285298 
L 110.277004 228.285298 
L 110.343687 228.175601 
L 110.459698 227.931369 
L 110.515287 227.821672 
L 110.632231 227.629185 
L 110.701278 227.519487 
L 110.811711 227.312511 
L 110.812292 227.312511 
L 110.877814 227.202814 
L 110.987459 227.031024 
L 110.98889 227.031024 
L 111.069859 226.921327 
L 111.178384 226.706072 
L 111.180893 226.706072 
L 111.235695 226.596374 
L 111.350794 226.397678 
L 111.416212 226.28798 
L 111.527142 226.081004 
L 111.527288 226.081004 
L 111.585863 225.971307 
L 111.703885 225.797447 
L 111.769262 225.68775 
L 111.890498 225.486983 
L 111.944761 225.377286 
L 111.944761 225.376251 
L 112.059735 225.182729 
L 112.142425 225.073031 
L 112.252278 224.884683 
L 112.253522 224.884683 
L 112.331775 224.774986 
L 112.447868 224.524545 
L 112.505366 224.413813 
L 112.616462 224.218221 
L 112.6847 224.108523 
L 112.79756 223.932594 
L 112.85006 223.822897 
L 112.959 223.630409 
L 112.961157 223.630409 
L 113.037523 223.520712 
L 113.150361 223.342712 
L 113.205578 223.233015 
L 113.314186 223.032248 
L 113.316674 223.032248 
L 113.381222 222.921516 
L 113.492132 222.727994 
L 113.492173 222.727994 
L 113.554419 222.618296 
L 113.66394 222.436158 
L 113.665516 222.436158 
L 113.732364 222.32646 
L 113.842217 222.102926 
L 113.843378 222.102926 
L 113.893598 221.993229 
L 113.893598 221.992194 
L 114.020204 221.802811 
L 114.088297 221.693114 
L 114.199 221.504766 
L 114.199394 221.504766 
L 114.259607 221.395068 
L 114.370372 221.190162 
L 114.370704 221.190162 
L 114.43353 221.080465 
L 114.43353 221.07943 
L 114.548401 220.892117 
L 114.618235 220.78242 
L 114.728295 220.614769 
L 114.729311 220.614769 
L 114.801157 220.505072 
L 114.911632 220.308445 
L 114.912254 220.308445 
L 114.980347 220.198747 
L 115.090178 220.014539 
L 115.091319 220.014539 
L 115.150828 219.904841 
L 115.261592 219.710284 
L 115.261924 219.710284 
L 115.32699 219.600587 
L 115.446878 219.383262 
L 115.503442 219.273565 
L 115.613336 219.062449 
L 115.614539 219.062449 
L 115.680641 218.952752 
L 115.800156 218.743706 
L 115.861345 218.634009 
L 115.974121 218.466359 
L 116.054281 218.356661 
L 116.169401 218.155895 
L 116.22949 218.046197 
L 116.344775 217.835082 
L 116.396778 217.72435 
L 116.506713 217.570153 
L 116.507812 217.570153 
L 116.575304 217.462525 
L 116.688184 217.284526 
L 116.74085 217.174829 
L 116.857877 216.976132 
L 116.928084 216.866434 
L 117.03773 216.680156 
L 117.039181 216.680156 
L 117.110426 216.570459 
L 117.220755 216.369692 
L 117.22144 216.369692 
L 117.281197 216.25896 
L 117.392128 216.075786 
L 117.392273 216.075786 
L 117.454456 215.966089 
L 117.564143 215.744625 
L 117.56547 215.744625 
L 117.619982 215.634927 
L 117.7328 215.456928 
L 117.796891 215.3493 
L 117.908796 215.18165 
L 117.987464 215.071953 
L 118.104967 214.83393 
L 118.168022 214.724233 
L 118.286085 214.552443 
L 118.349865 214.442746 
L 118.460775 214.260607 
L 118.460837 214.260607 
L 118.531709 214.15091 
L 118.64463 213.968771 
L 118.716849 213.859074 
L 118.829625 213.683144 
L 118.887724 213.573447 
L 118.887724 213.572412 
L 119.030586 213.314727 
L 119.105563 213.205029 
L 119.220828 212.998054 
L 119.294187 212.889391 
L 119.406424 212.720706 
L 119.476508 212.613078 
L 119.586049 212.418521 
L 119.587563 212.418521 
L 119.650182 212.308824 
L 119.763559 212.08115 
L 119.840568 211.971453 
L 119.95801 211.762407 
L 120.022951 211.65271 
L 120.134048 211.468501 
L 120.224949 211.358804 
L 120.340006 211.162177 
L 120.410981 211.051445 
L 120.521124 210.851713 
L 120.522077 210.851713 
L 120.595209 210.742016 
L 120.708109 210.559877 
L 120.774958 210.450179 
L 120.88423 210.245273 
L 120.886034 210.245273 
L 120.958937 210.134541 
L 121.076711 209.969995 
L 121.167011 209.862368 
L 121.167011 209.859263 
L 121.276822 209.649182 
L 121.278024 209.649182 
L 121.341141 209.539485 
L 121.460283 209.338718 
L 121.531735 209.229021 
L 121.640841 209.06344 
L 121.642831 209.06344 
L 121.729834 208.953743 
L 121.844539 208.771604 
L 121.915327 208.661907 
L 122.033598 208.483908 
L 122.091427 208.37421 
L 122.212601 208.175514 
L 122.292202 208.064781 
L 122.406574 207.902305 
L 122.466332 207.792608 
L 122.582363 207.546307 
L 122.636606 207.436609 
L 122.749527 207.252401 
L 122.822306 207.142703 
L 122.94802 206.937797 
L 123.025382 206.8281 
L 123.147613 206.608705 
L 123.208013 206.499008 
L 123.319006 206.329288 
L 123.319069 206.329288 
L 123.378474 206.219591 
L 123.493489 206.025033 
L 123.566807 205.915336 
L 123.684746 205.745616 
L 123.740481 205.635918 
L 123.850666 205.410315 
L 123.851537 205.410315 
L 123.942064 205.300617 
L 123.942064 205.299582 
L 124.07966 205.085362 
L 124.143896 204.975665 
L 124.263038 204.774898 
L 124.345936 204.665201 
L 124.454834 204.507899 
L 124.456991 204.507899 
L 124.525208 204.397167 
L 124.639664 204.226412 
L 124.713687 204.116715 
L 124.824659 203.957343 
L 124.824783 203.957343 
L 124.885453 203.847646 
L 125.002397 203.655158 
L 125.069578 203.544426 
L 125.17773 203.365392 
L 125.180674 203.365392 
L 125.255154 203.255695 
L 125.370065 203.063207 
L 125.443466 202.95351 
L 125.443466 202.952475 
L 125.562442 202.756883 
L 125.656329 202.647185 
L 125.656329 202.646151 
L 125.775347 202.450558 
L 125.853454 202.340861 
L 125.966832 202.111118 
L 126.048962 202.000386 
L 126.167606 201.811003 
L 126.219588 201.701305 
L 126.335599 201.539864 
L 126.418787 201.430167 
L 126.418787 201.429132 
L 126.536291 201.270795 
L 126.605441 201.160063 
L 126.713884 200.956192 
L 126.716538 200.956192 
L 126.785087 200.846495 
L 126.894151 200.687123 
L 126.896183 200.687123 
L 126.97512 200.577426 
L 127.089804 200.397357 
L 127.173739 200.287659 
L 127.28863 200.097242 
L 127.353301 199.987544 
L 127.462262 199.809545 
L 127.464274 199.809545 
L 127.543397 199.699848 
L 127.653167 199.550825 
L 127.654453 199.550825 
L 127.714583 199.441128 
L 127.827546 199.25278 
L 127.885977 199.145152 
L 127.996638 199.010618 
L 127.997073 199.010618 
L 128.06019 198.900921 
L 128.168715 198.706363 
L 128.171245 198.706363 
L 128.246139 198.596666 
L 128.360615 198.426946 
L 128.423462 198.317248 
L 128.538519 198.118551 
L 128.6153 198.008854 
L 128.725194 197.837064 
L 128.726355 197.837064 
L 128.795112 197.727367 
L 128.910687 197.501763 
L 128.966609 197.392066 
L 129.083864 197.18716 
L 129.162573 197.077462 
L 129.273379 196.897393 
L 129.273566 196.897393 
L 129.347568 196.787696 
L 129.347568 196.786661 
L 129.461858 196.624185 
L 129.537457 196.514488 
L 129.646832 196.332349 
L 129.648553 196.332349 
L 129.723551 196.222652 
L 129.83274 196.021885 
L 129.834523 196.021885 
L 129.903052 195.911153 
L 130.013443 195.730049 
L 130.014148 195.730049 
L 130.10534 195.620351 
L 130.219443 195.469259 
L 130.286064 195.359562 
L 130.405185 195.20226 
L 130.477528 195.091528 
L 130.604964 194.891796 
L 130.683175 194.781064 
L 130.801363 194.606169 
L 130.882809 194.495437 
L 130.992268 194.364007 
L 130.993906 194.364007 
L 131.066788 194.25431 
L 131.181286 194.08252 
L 131.26296 193.972823 
L 131.368914 193.765847 
L 131.374036 193.765847 
L 131.435431 193.65615 
L 131.550074 193.48022 
L 131.616653 193.370523 
L 131.72721 193.2215 
L 131.727708 193.2215 
L 131.811352 193.111803 
L 131.925663 192.950362 
L 132.007337 192.840664 
L 132.007337 192.839629 
L 132.133445 192.656456 
L 132.205105 192.546758 
L 132.320017 192.354271 
L 132.422197 192.244573 
L 132.536819 192.066574 
L 132.616191 191.956877 
L 132.725007 191.768529 
L 132.727288 191.768529 
L 132.799652 191.658831 
L 132.912574 191.468414 
L 132.991366 191.358716 
L 133.097611 191.180717 
L 133.102421 191.180717 
L 133.168876 191.069985 
L 133.299982 190.824718 
L 133.362932 190.715021 
L 133.468949 190.543231 
L 133.473987 190.543231 
L 133.53926 190.433534 
L 133.649694 190.29693 
L 133.650357 190.29693 
L 133.721436 190.187232 
L 133.835228 190.050628 
L 133.922915 189.940931 
L 134.035774 189.765001 
L 134.106894 189.655304 
L 134.221557 189.475235 
L 134.309763 189.364503 
L 134.424219 189.195817 
L 134.499818 189.08612 
L 134.609878 188.910191 
L 134.610831 188.910191 
L 134.671626 188.800493 
L 134.789772 188.626634 
L 134.8611 188.515901 
L 134.971947 188.349286 
L 134.972113 188.349286 
L 135.053684 188.238554 
L 135.162666 188.088496 
L 135.164698 188.088496 
L 135.231754 187.978799 
L 135.352471 187.738707 
L 135.405552 187.629009 
L 135.405552 187.627975 
L 135.523574 187.457219 
L 135.592953 187.347522 
L 135.703967 187.212988 
L 135.769862 187.10329 
L 135.879548 186.948059 
L 135.880917 186.948059 
L 135.941296 186.838361 
L 135.941296 186.837326 
L 136.055794 186.668641 
L 136.117542 186.558944 
L 136.117542 186.557909 
L 136.241328 186.349898 
L 136.306352 186.239166 
L 136.442165 185.998039 
L 136.51965 185.888342 
L 136.632551 185.704133 
L 136.703339 185.594436 
L 136.703339 185.593401 
L 136.818272 185.397809 
L 136.886468 185.287076 
L 137.004408 185.118391 
L 137.071858 185.008694 
L 137.071858 185.007659 
L 137.186459 184.832764 
L 137.284409 184.722032 
L 137.399591 184.518161 
L 137.446555 184.408463 
L 137.561073 184.238743 
L 137.632214 184.129046 
L 137.737007 183.977953 
L 137.743228 183.977953 
L 137.829111 183.868256 
L 137.942136 183.671629 
L 138.019746 183.561932 
L 138.136939 183.410839 
L 138.211045 183.301142 
L 138.327449 183.125212 
L 138.405516 183.015515 
L 138.522874 182.860283 
L 138.59642 182.749551 
L 138.707206 182.547749 
L 138.707496 182.547749 
L 138.780089 182.437017 
L 138.887619 182.28282 
L 138.891185 182.28282 
L 138.971076 182.173123 
L 139.086942 182.013751 
L 139.1772 181.904054 
L 139.299805 181.715706 
L 139.37416 181.606009 
L 139.490046 181.448707 
L 139.565749 181.33901 
L 139.678276 181.189987 
L 139.756653 181.079255 
L 139.871192 180.90643 
L 139.958112 180.795698 
L 140.06811 180.610454 
L 140.069209 180.610454 
L 140.158036 180.500757 
L 140.27386 180.341386 
L 140.339196 180.231688 
L 140.449774 180.090945 
L 140.450209 180.090945 
L 140.520148 179.981248 
L 140.520148 179.980213 
L 140.63311 179.78876 
L 140.717915 179.679063 
L 140.717915 179.678028 
L 140.832081 179.5259 
L 140.903574 179.416203 
L 141.013261 179.275459 
L 141.014671 179.275459 
L 141.084754 179.165762 
L 141.194773 178.991902 
L 141.19583 178.991902 
L 141.270869 178.882205 
L 141.380017 178.741461 
L 141.381925 178.741461 
L 141.449147 178.630729 
L 141.563105 178.484811 
L 141.642643 178.374079 
L 141.751998 178.232301 
L 141.75374 178.232301 
L 141.834398 178.122603 
L 141.834398 178.121568 
L 141.94902 177.946674 
L 142.046722 177.836977 
L 142.161468 177.646559 
L 142.231364 177.535826 
L 142.361744 177.348513 
L 142.449805 177.238816 
L 142.449805 177.237781 
L 142.566852 177.087724 
L 142.637454 176.978026 
L 142.75502 176.818655 
L 142.823694 176.708957 
L 142.940098 176.528888 
L 143.007528 176.419191 
L 143.118541 176.295006 
L 143.118583 176.295006 
L 143.197437 176.185308 
L 143.197437 176.184273 
L 143.312287 175.99696 
L 143.38407 175.886228 
L 143.502487 175.705124 
L 143.58217 175.595427 
L 143.692562 175.446404 
L 143.693267 175.446404 
L 143.762583 175.336707 
L 143.875567 175.146289 
L 143.968707 175.036592 
L 144.077481 174.891709 
L 144.079762 174.891709 
L 144.178667 174.782011 
L 144.285451 174.659895 
L 144.289764 174.659895 
L 144.35879 174.550198 
L 144.471276 174.403245 
L 144.551892 174.293548 
L 144.662699 174.136246 
L 144.662989 174.136246 
L 144.734316 174.025514 
L 144.843796 173.854759 
L 144.845247 173.854759 
L 144.925677 173.745062 
L 145.04457 173.591899 
L 145.145486 173.482202 
L 145.259776 173.322831 
L 145.345576 173.212099 
L 145.456175 173.055832 
L 145.456652 173.055832 
L 145.529307 172.946134 
L 145.64171 172.801251 
L 145.722202 172.691554 
L 145.830147 172.532183 
L 145.833133 172.532183 
L 145.89795 172.422485 
L 146.005148 172.285881 
L 146.009046 172.285881 
L 146.09128 172.176184 
L 146.205591 172.012673 
L 146.276441 171.902976 
L 146.387538 171.733255 
L 146.456087 171.623558 
L 146.568511 171.489024 
L 146.654747 171.379326 
L 146.767357 171.222025 
L 146.832588 171.112327 
L 146.941073 170.973653 
L 146.943685 170.973653 
L 147.014142 170.862921 
L 147.151157 170.652841 
L 147.215559 170.543143 
L 147.215559 170.542109 
L 147.334058 170.358935 
L 147.417101 170.249238 
L 147.527078 170.096075 
L 147.528114 170.096075 
L 147.616196 169.986378 
L 147.730734 169.812518 
L 147.804156 169.702821 
L 147.920644 169.524822 
L 147.992365 169.415124 
L 148.103337 169.272311 
L 148.10342 169.272311 
L 148.195856 169.162614 
L 148.305874 169.001173 
L 148.30689 169.001173 
L 148.393043 168.891475 
L 148.501175 168.777638 
L 148.50414 168.777638 
L 148.584051 168.666906 
L 148.694775 168.518919 
L 148.695148 168.518919 
L 148.752666 168.409221 
L 148.861088 168.227082 
L 148.863763 168.227082 
L 148.939072 168.117385 
L 149.053859 167.931107 
L 149.129665 167.82141 
L 149.244162 167.651689 
L 149.314557 167.541992 
L 149.435274 167.38469 
L 149.519893 167.274993 
L 149.628543 167.13011 
L 149.630948 167.13011 
L 149.740345 167.020413 
L 149.8514 166.840343 
L 149.943379 166.729611 
L 150.05769 166.569205 
L 150.149192 166.459508 
L 150.259128 166.322904 
L 150.260268 166.322904 
L 150.362221 166.213206 
L 150.47479 166.062114 
L 150.562767 165.952417 
L 150.682593 165.735092 
L 150.758005 165.625395 
L 150.870678 165.463953 
L 150.955151 165.353221 
L 151.066041 165.180396 
L 151.066248 165.180396 
L 151.153043 165.070699 
L 151.265861 164.8927 
L 151.341813 164.781967 
L 151.457637 164.662956 
L 151.5232 164.552224 
L 151.633343 164.398027 
L 151.634255 164.398027 
L 151.70917 164.28833 
L 151.830053 164.095842 
L 151.912702 163.986145 
L 152.028008 163.845401 
L 152.10087 163.735704 
L 152.219224 163.555635 
L 152.291629 163.445938 
L 152.406707 163.313473 
L 152.481891 163.202741 
L 152.590707 163.048544 
L 152.592905 163.048544 
L 152.669001 162.938847 
L 152.778066 162.773266 
L 152.780098 162.773266 
L 152.870792 162.663568 
L 152.986595 162.508336 
L 153.074987 162.398639 
L 153.188863 162.259965 
L 153.263632 162.149233 
L 153.372863 162.001245 
L 153.374729 162.001245 
L 153.455885 161.891548 
L 153.58021 161.730107 
L 153.651475 161.62041 
L 153.764334 161.44448 
L 153.858429 161.333748 
L 153.967825 161.156783 
L 153.969484 161.156783 
L 154.057524 161.046051 
L 154.168247 160.906343 
L 154.16862 160.906343 
L 154.263419 160.796645 
L 154.37746 160.649692 
L 154.444392 160.539995 
L 154.56285 160.357856 
L 154.639506 160.248159 
L 154.755828 160.076369 
L 154.841048 159.966672 
L 154.963901 159.774184 
L 155.048602 159.664487 
L 155.161275 159.507185 
L 155.247158 159.397488 
L 155.361158 159.252605 
L 155.433004 159.142907 
L 155.544743 159.006303 
L 155.635851 158.896606 
L 155.749436 158.770351 
L 155.870776 158.6027 
L 155.957323 158.491968 
L 156.071488 158.337771 
L 156.145802 158.228074 
L 156.258453 158.072842 
L 156.352361 157.963144 
L 156.468185 157.805843 
L 156.552099 157.696145 
L 156.664439 157.57196 
L 156.742319 157.462262 
L 156.854826 157.321519 
L 156.937226 157.211822 
L 157.05589 157.062799 
L 157.140385 156.952067 
L 157.26216 156.777172 
L 157.369337 156.66644 
L 157.497872 156.497754 
L 157.573305 156.387022 
L 157.683054 156.249383 
L 157.684402 156.249383 
L 157.748659 156.139686 
L 157.864918 155.969966 
L 157.957893 155.860268 
L 157.957893 155.859234 
L 158.081016 155.713316 
L 158.181434 155.603618 
L 158.181434 155.602583 
L 158.296263 155.4132 
L 158.402487 155.302468 
L 158.519016 155.168969 
L 158.594034 155.059272 
L 158.707827 154.924737 
L 158.834267 154.81504 
L 158.943705 154.688785 
L 158.945364 154.688785 
L 159.020258 154.581157 
L 159.020258 154.578052 
L 159.130525 154.427995 
L 159.131313 154.427995 
L 159.205087 154.318298 
L 159.313219 154.156856 
L 159.316142 154.156856 
L 159.400263 154.047159 
L 159.515196 153.854671 
L 159.602033 153.743939 
L 159.713088 153.569045 
L 159.71313 153.569045 
L 159.828954 153.459347 
L 159.942829 153.320673 
L 160.021393 153.210976 
L 160.138295 153.068163 
L 160.211136 152.958465 
L 160.321653 152.840489 
L 160.322233 152.840489 
L 160.399346 152.730792 
L 160.517845 152.546583 
L 160.586311 152.436886 
L 160.694961 152.283724 
L 160.697407 152.283724 
L 160.783332 152.174027 
L 160.897311 152.027074 
L 160.984915 151.917376 
L 161.09738 151.778702 
L 161.176255 151.669005 
L 161.288907 151.513773 
L 161.37618 151.404076 
L 161.487152 151.240565 
L 161.487256 151.240565 
L 161.586015 151.130868 
L 161.693131 150.990124 
L 161.697112 150.990124 
L 161.796037 150.880427 
L 161.90844 150.747962 
L 161.998781 150.63723 
L 162.112843 150.489242 
L 162.209405 150.379545 
L 162.322409 150.189127 
L 162.3848 150.078395 
L 162.493409 149.955244 
L 162.495897 149.955244 
L 162.5829 149.845547 
L 162.693872 149.704803 
L 162.693976 149.704803 
L 162.77764 149.594071 
L 162.89135 149.462641 
L 162.982582 149.352944 
L 163.09625 149.224619 
L 163.19727 149.114922 
L 163.311269 148.970039 
L 163.403705 148.860341 
L 163.517767 148.707179 
L 163.60197 148.597482 
L 163.718168 148.471227 
L 163.802641 148.360494 
L 163.934307 148.160763 
L 164.023922 148.051065 
L 164.139622 147.899973 
L 164.242342 147.789241 
L 164.360613 147.612276 
L 164.470424 147.501544 
L 164.581023 147.326649 
L 164.5815 147.326649 
L 164.668689 147.216952 
L 164.778542 147.074139 
L 164.779745 147.074139 
L 164.886985 146.964441 
L 165.000673 146.834047 
L 165.082762 146.724349 
L 165.193237 146.573257 
L 165.193797 146.573257 
L 165.293427 146.46356 
L 165.402782 146.339374 
L 165.404524 146.339374 
L 165.494761 146.229677 
L 165.608802 146.080654 
L 165.705737 145.970957 
L 165.821167 145.828143 
L 165.902779 145.718446 
L 166.011181 145.60254 
L 166.013876 145.60254 
L 166.091714 145.492842 
L 166.202023 145.350029 
L 166.202811 145.350029 
L 166.311419 145.240332 
L 166.422101 145.101658 
L 166.422495 145.101658 
L 166.517025 144.990926 
L 166.626007 144.871914 
L 166.628122 144.871914 
L 166.73474 144.762217 
L 166.84509 144.631822 
L 166.845816 144.631822 
L 166.910695 144.522125 
L 167.027929 144.371033 
L 167.101579 144.261335 
L 167.101579 144.260301 
L 167.225655 144.101964 
L 167.300674 143.992267 
L 167.406628 143.857732 
L 167.41177 143.857732 
L 167.515361 143.748035 
L 167.628054 143.588663 
L 167.719515 143.478966 
L 167.829161 143.344432 
L 167.830612 143.344432 
L 167.902644 143.2337 
L 168.012953 143.081572 
L 168.013679 143.081572 
L 168.099334 142.971875 
L 168.210306 142.833201 
L 168.210389 142.833201 
L 168.298761 142.723504 
L 168.414461 142.570342 
L 168.507601 142.460644 
L 168.620149 142.315761 
L 168.729504 142.205029 
L 168.84508 142.094297 
L 168.939713 141.9846 
L 169.050395 141.845926 
L 169.05081 141.845926 
L 169.143245 141.736229 
L 169.257203 141.593415 
L 169.332429 141.482683 
L 169.443194 141.29123 
L 169.443525 141.29123 
L 169.527356 141.180498 
L 169.634368 141.049068 
L 169.638453 141.049068 
L 169.741566 140.939371 
L 169.853824 140.823465 
L 169.948167 140.713767 
L 170.062374 140.558535 
L 170.150082 140.448838 
L 170.260743 140.310164 
L 170.261137 140.310164 
L 170.370472 140.199432 
L 170.495668 140.063863 
L 170.572366 139.954166 
L 170.572366 139.953131 
L 170.697832 139.778236 
L 170.76607 139.668539 
L 170.882723 139.531935 
L 170.981835 139.422237 
L 171.094176 139.291842 
L 171.175 139.182145 
L 171.175 139.18111 
L 171.302933 139.047611 
L 171.397981 138.937914 
L 171.515693 138.774403 
L 171.601389 138.664705 
L 171.718955 138.503264 
L 171.813464 138.393567 
L 171.92427 138.261102 
L 171.924561 138.261102 
L 172.050711 138.116219 
L 172.152021 138.006522 
L 172.262019 137.890615 
L 172.263117 137.890615 
L 172.361193 137.780918 
L 172.361193 137.779883 
L 172.474612 137.665011 
L 172.574989 137.555314 
L 172.687184 137.445617 
L 172.802221 137.33592 
L 172.916096 137.191036 
L 173.020267 137.081339 
L 173.131011 136.967502 
L 173.131364 136.967502 
L 173.244617 136.85677 
L 173.353557 136.758457 
L 173.35561 136.758457 
L 173.437284 136.647724 
L 173.551138 136.503876 
L 173.639095 136.393144 
L 173.74619 136.309319 
L 173.750109 136.309319 
L 173.848205 136.199622 
L 173.960629 136.058878 
L 174.075001 135.948146 
L 174.185124 135.827065 
L 174.185974 135.827065 
L 174.297153 135.716333 
L 174.411277 135.566275 
L 174.528512 135.456578 
L 174.638489 135.324113 
L 174.639608 135.324113 
L 174.744028 135.214416 
L 174.859687 135.063323 
L 174.967155 134.953626 
L 175.084244 134.83565 
L 175.171973 134.725953 
L 175.284334 134.597628 
L 175.40134 134.450675 
L 175.510509 134.340977 
L 175.620817 134.249908 
L 175.621481 134.249908 
L 175.724325 134.140211 
L 175.841891 133.980839 
L 175.935716 133.870107 
L 176.049093 133.757305 
L 176.157557 133.647608 
L 176.273111 133.500655 
L 176.37776 133.389923 
L 176.505942 133.254354 
L 176.591286 133.144656 
L 176.703627 133.018401 
L 176.817999 132.908704 
L 176.932061 132.757611 
L 177.024269 132.647914 
L 177.136402 132.542356 
L 177.241942 132.432659 
L 177.356066 132.281566 
L 177.46654 132.171869 
L 177.575978 132.033195 
L 177.577596 132.033195 
L 177.708183 131.922463 
L 177.817849 131.807592 
L 177.819259 131.807592 
L 177.919055 131.697894 
L 178.028701 131.581988 
L 178.03011 131.581988 
L 178.129886 131.47229 
L 178.242206 131.346035 
L 178.340717 131.236338 
L 178.447542 131.13492 
L 178.451813 131.13492 
L 178.547359 131.024188 
L 178.664262 130.880339 
L 178.75931 130.770642 
L 178.871526 130.656805 
L 178.963671 130.546073 
L 179.074478 130.396015 
L 179.074768 130.396015 
L 179.199674 130.286318 
L 179.315208 130.174551 
L 179.411127 130.063819 
L 179.521643 129.944808 
L 179.522099 129.944808 
L 179.610056 129.835111 
L 179.722314 129.717134 
L 179.859163 129.607437 
L 179.973287 129.452205 
L 180.082642 129.342508 
L 180.198943 129.214183 
L 180.306245 129.103451 
L 180.416844 128.988579 
L 180.417321 128.988579 
L 180.537272 128.878882 
L 180.643599 128.762975 
L 180.648327 128.762975 
L 180.73535 128.654313 
L 180.847297 128.524953 
L 180.941599 128.415255 
L 180.941599 128.414221 
L 181.057941 128.284861 
L 181.162714 128.175163 
L 181.276071 128.061327 
L 181.364214 127.951629 
L 181.469713 127.854351 
L 181.47529 127.854351 
L 181.582427 127.744653 
L 181.693482 127.637026 
L 181.773435 127.527329 
L 181.882686 127.382445 
L 181.884428 127.382445 
L 181.984224 127.272748 
L 182.097664 127.156842 
L 182.224457 127.047144 
L 182.338228 126.91261 
L 182.446712 126.802913 
L 182.446712 126.801878 
L 182.560401 126.670448 
L 182.678776 126.559716 
L 182.800903 126.455193 
L 182.888818 126.344461 
L 183.002466 126.217171 
L 183.114723 126.107473 
L 183.229801 125.972939 
L 183.333267 125.863242 
L 183.447205 125.718359 
L 183.547374 125.608661 
L 183.654345 125.503104 
L 183.658471 125.503104 
L 183.752026 125.393406 
L 183.86642 125.283709 
L 184.004596 125.172977 
L 184.115423 125.037408 
L 184.115693 125.037408 
L 184.230563 124.926676 
L 184.34392 124.813874 
L 184.452197 124.704176 
L 184.561925 124.59034 
L 184.563293 124.59034 
L 184.647103 124.480642 
L 184.647103 124.479607 
L 184.769894 124.337829 
L 184.859613 124.228132 
L 184.971892 124.099807 
L 185.050601 123.989074 
L 185.159666 123.874203 
L 185.161698 123.874203 
L 185.332593 123.764506 
L 185.445888 123.652738 
L 185.547509 123.543041 
L 185.65958 123.435414 
L 185.768769 123.325716 
L 185.878705 123.197391 
L 185.879866 123.197391 
L 185.986836 123.086659 
L 186.10011 122.977997 
L 186.181328 122.8683 
L 186.294644 122.756533 
L 186.413184 122.646835 
L 186.525483 122.526789 
L 186.652567 122.417092 
L 186.763643 122.297046 
L 186.854938 122.187349 
L 186.854938 122.186314 
L 186.968025 122.083861 
L 187.088742 121.973129 
L 187.205603 121.83135 
L 187.319437 121.721653 
L 187.433188 121.634723 
L 187.533212 121.525026 
L 187.533212 121.523991 
L 187.662846 121.376003 
L 187.75553 121.266306 
L 187.86756 121.171097 
L 187.986142 121.060365 
L 188.103625 120.902028 
L 188.234648 120.791296 
L 188.344894 120.668145 
L 188.345723 120.668145 
L 188.437412 120.558448 
L 188.437412 120.557413 
L 188.553029 120.446681 
L 188.665577 120.336984 
L 188.776011 120.202449 
L 188.776591 120.202449 
L 188.868985 120.091717 
L 188.979833 119.991334 
L 188.980061 119.991334 
L 189.089064 119.880602 
L 189.196096 119.751242 
L 189.200119 119.751242 
L 189.305721 119.641544 
L 189.418414 119.560824 
L 189.524659 119.451126 
L 189.634346 119.362127 
L 189.635756 119.362127 
L 189.715253 119.252429 
L 189.827759 119.182058 
L 189.932138 119.07236 
L 190.043069 118.935756 
L 190.043235 118.935756 
L 190.181121 118.826059 
L 190.291139 118.739129 
L 190.292134 118.739129 
L 190.42268 118.628397 
L 190.534648 118.534223 
L 190.614891 118.424526 
L 190.614891 118.423491 
L 190.727647 118.341735 
L 190.852055 118.232038 
L 190.967444 118.12648 
L 191.08642 118.015748 
L 191.192934 117.913295 
L 191.197454 117.913295 
L 191.323522 117.803598 
L 191.43692 117.685621 
L 191.557907 117.574889 
L 191.672031 117.424832 
L 191.789597 117.315134 
L 191.904384 117.193019 
L 192.011044 117.083321 
L 192.120088 116.973624 
L 192.122141 116.973624 
L 192.235642 116.863927 
L 192.340353 116.772857 
L 192.346698 116.772857 
L 192.476124 116.66316 
L 192.58185 116.553463 
L 192.587221 116.553463 
L 192.718513 116.443766 
L 192.829319 116.346487 
L 192.829589 116.346487 
L 192.939649 116.23679 
L 193.052674 116.141581 
L 193.19 116.031883 
L 193.30203 115.932535 
L 193.40985 115.822838 
L 193.523062 115.71728 
L 193.635465 115.607583 
L 193.750315 115.483397 
L 193.864957 115.3737 
L 193.977277 115.251584 
L 194.083315 115.141887 
L 194.192172 115.036329 
L 194.19437 115.036329 
L 194.299205 114.926632 
L 194.299205 114.925597 
L 194.414614 114.819004 
L 194.521357 114.709307 
L 194.634713 114.59754 
L 194.794972 114.487843 
L 194.909718 114.367797 
L 195.058303 114.257065 
L 195.1694 114.140123 
L 195.291797 114.030426 
L 195.405817 113.935217 
L 195.533129 113.82552 
L 195.644972 113.746869 
L 195.803178 113.637172 
L 195.910045 113.525405 
L 195.914275 113.525405 
L 196.026408 113.415707 
L 196.1368 113.322568 
L 196.137505 113.322568 
L 196.278833 113.211836 
L 196.389846 113.117662 
L 196.389888 113.117662 
L 196.504095 113.007965 
L 196.617369 112.898267 
L 196.751502 112.787535 
L 196.862059 112.69957 
L 196.862515 112.69957 
L 196.98767 112.589873 
L 197.103121 112.482246 
L 197.223839 112.372548 
L 197.336636 112.283549 
L 197.472096 112.173851 
L 197.582508 112.074503 
L 197.583172 112.074503 
L 197.715418 111.964806 
L 197.814903 111.884085 
L 197.826452 111.884085 
L 197.934999 111.774388 
L 198.050574 111.664691 
L 198.156114 111.554993 
L 198.261115 111.468063 
L 198.267045 111.468063 
L 198.370615 111.358366 
L 198.482541 111.275576 
L 198.62277 111.165878 
L 198.62277 111.164844 
L 198.748961 111.045832 
L 198.87395 110.936135 
L 198.986478 110.865763 
L 199.122124 110.756066 
L 199.234196 110.652578 
L 199.343841 110.542881 
L 199.45755 110.410416 
L 199.586935 110.300719 
L 199.699773 110.213789 
L 199.817256 110.104092 
L 199.927192 109.992325 
L 199.928353 109.992325 
L 200.084112 109.881593 
L 200.197262 109.77707 
L 200.347527 109.667373 
L 200.460904 109.592861 
L 200.624128 109.483164 
L 200.734395 109.398304 
L 200.735142 109.398304 
L 200.889823 109.288606 
L 200.998722 109.216165 
L 201.000919 109.216165 
L 201.190684 109.106468 
L 201.303398 109.021607 
L 201.433114 108.91191 
L 201.541391 108.82705 
L 201.544128 108.82705 
L 201.678323 108.717353 
L 201.793194 108.624214 
L 201.936305 108.514516 
L 202.04483 108.444145 
L 202.047401 108.444145 
L 202.186614 108.334447 
L 202.296882 108.239238 
L 202.297587 108.239238 
L 202.473583 108.129541 
L 202.577381 108.036402 
L 202.58468 108.036402 
L 202.696523 107.957751 
L 202.851971 107.848054 
L 202.963835 107.771473 
L 203.118848 107.661775 
L 203.230608 107.576915 
L 203.358542 107.467218 
L 203.468353 107.392707 
L 203.469618 107.392707 
L 203.590149 107.283009 
L 203.705517 107.177452 
L 203.843921 107.067754 
L 203.9579 106.970476 
L 204.109761 106.860778 
L 204.21754 106.780058 
L 204.220816 106.780058 
L 204.352503 106.670361 
L 204.464366 106.59171 
L 204.588899 106.482012 
L 204.698171 106.41578 
L 204.699996 106.41578 
L 204.846466 106.306083 
L 204.961171 106.217083 
L 205.121222 106.107386 
L 205.233542 105.9832 
L 205.411778 105.873503 
L 205.521029 105.805201 
L 205.522875 105.805201 
L 205.648237 105.695504 
L 205.759043 105.610644 
L 205.759209 105.610644 
L 205.91812 105.500946 
L 206.034318 105.399528 
L 206.164656 105.288796 
L 206.275338 105.188413 
L 206.275753 105.188413 
L 206.446814 105.078715 
L 206.554718 105.014553 
L 206.557911 105.014553 
L 206.70463 104.904856 
L 206.817365 104.824135 
L 206.943784 104.714438 
L 207.056498 104.633717 
L 207.224284 104.52402 
L 207.332478 104.453648 
L 207.335339 104.453648 
L 207.474842 104.343951 
L 207.587888 104.246672 
L 207.747131 104.13594 
L 207.849913 104.068673 
L 207.858103 104.068673 
L 208.049029 103.958975 
L 208.162572 103.898952 
L 208.389203 103.789255 
L 208.505234 103.731302 
L 208.682931 103.621605 
L 208.792493 103.534675 
L 208.793986 103.534675 
L 208.994491 103.424977 
L 209.104178 103.364954 
L 209.105546 103.364954 
L 209.229374 103.255257 
L 209.335308 103.182816 
L 209.340429 103.182816 
L 209.497889 103.073118 
L 209.610396 103.000677 
L 209.77758 102.890979 
L 209.889796 102.833026 
L 210.016879 102.723329 
L 210.130381 102.644678 
L 210.312992 102.533946 
L 210.425188 102.479097 
L 210.605373 102.3694 
L 210.715557 102.299028 
L 210.716469 102.299028 
L 210.89823 102.189331 
L 210.89823 102.188296 
L 211.011442 102.135517 
L 211.133631 102.024785 
L 211.253022 101.947169 
L 211.420248 101.836437 
L 211.529976 101.76296 
L 211.53122 101.76296 
L 211.693179 101.653263 
L 211.806494 101.580822 
L 211.983673 101.471124 
L 212.095412 101.404892 
L 212.278417 101.295195 
L 212.389306 101.228962 
L 212.389513 101.228962 
L 212.523356 101.119265 
L 212.634888 101.053033 
L 212.830044 100.943336 
L 212.942384 100.881243 
L 213.111621 100.771546 
L 213.21853 100.688755 
L 213.222594 100.688755 
L 213.4192 100.579058 
L 213.4192 100.578023 
L 213.53349 100.500407 
L 213.713654 100.39071 
L 213.827426 100.30171 
L 213.995336 100.192013 
L 214.09337 100.140269 
L 214.106432 100.140269 
L 214.325267 100.030572 
L 214.43176 99.95606 
L 214.436322 99.95606 
L 214.622271 99.846363 
L 214.732124 99.78634 
L 214.733368 99.78634 
L 214.926284 99.675608 
L 215.035659 99.61455 
L 215.037277 99.61455 
L 215.253934 99.503818 
L 215.361962 99.434481 
L 215.364989 99.434481 
L 215.565743 99.324784 
L 215.676715 99.250272 
L 215.895964 99.140575 
L 216.005361 99.088831 
L 216.007061 99.088831 
L 216.240534 98.978099 
L 216.349143 98.892204 
L 216.351216 98.892204 
L 216.526839 98.782506 
L 216.632545 98.724553 
L 216.637915 98.724553 
L 216.814575 98.614856 
L 216.927227 98.563112 
L 217.174012 98.453415 
L 217.286498 98.385113 
L 217.486484 98.275415 
L 217.587628 98.217462 
L 217.597498 98.217462 
L 217.743678 98.107765 
L 217.855687 98.06016 
L 218.050428 97.950463 
L 218.150825 97.882161 
L 218.161524 97.882161 
L 218.419216 97.772464 
L 218.524755 97.71658 
L 218.530188 97.71658 
L 218.765195 97.606883 
L 218.87538 97.513744 
L 218.876126 97.513744 
L 219.068835 97.404047 
L 219.17848 97.344024 
L 219.179931 97.344024 
L 219.388316 97.233291 
L 219.496551 97.178443 
L 219.499329 97.178443 
L 219.671759 97.068745 
L 219.786049 96.990095 
L 220.010938 96.880397 
L 220.120874 96.799677 
L 220.121869 96.799677 
L 220.287664 96.689979 
L 220.397309 96.617538 
L 220.398719 96.617538 
L 220.60926 96.507841 
L 220.718366 96.42712 
L 220.720273 96.42712 
L 220.948148 96.317423 
L 221.057047 96.226353 
L 221.059224 96.226353 
L 221.218156 96.116656 
L 221.311379 96.060773 
L 221.329211 96.060773 
L 221.643259 95.951075 
L 221.753568 95.905541 
L 221.7539 95.905541 
L 222.020134 95.795843 
L 222.129779 95.754448 
L 222.131231 95.754448 
L 222.400388 95.644751 
L 222.511754 95.588867 
L 222.841146 95.47917 
L 222.933914 95.433635 
L 222.952202 95.433635 
L 223.352382 95.323938 
L 223.462152 95.276334 
L 223.463188 95.276334 
L 223.770519 95.166636 
L 223.875561 95.143869 
L 223.881615 95.143869 
L 224.249574 95.034172 
L 224.357768 95.001056 
L 224.360588 95.001056 
L 224.668581 94.891358 
L 224.777812 94.845824 
L 224.779678 94.845824 
L 225.137435 94.736126 
L 225.247163 94.711289 
L 225.248532 94.711289 
L 225.592853 94.600557 
L 225.694992 94.574685 
L 225.70395 94.574685 
L 226.012441 94.463953 
L 226.108194 94.44429 
L 226.123372 94.44429 
L 226.567178 94.336663 
L 226.671764 94.303547 
L 226.67815 94.303547 
L 227.0244 94.193849 
L 227.13589 94.152454 
L 227.49597 94.042757 
L 227.602256 93.991013 
L 227.607066 93.991013 
L 227.967353 93.881316 
L 228.0793 93.837851 
L 228.478547 93.728153 
L 228.581848 93.697107 
L 228.589644 93.697107 
L 228.868194 93.58741 
L 228.981033 93.546015 
L 229.361266 93.436317 
L 229.469128 93.399062 
L 229.471658 93.399062 
L 229.940429 93.289364 
L 230.049577 93.254178 
L 230.051526 93.254178 
L 230.400885 93.144481 
L 230.512542 93.088598 
L 230.956763 92.977866 
L 231.053552 92.937505 
L 231.067859 92.937505 
L 231.431878 92.827808 
L 231.539989 92.802971 
L 231.542913 92.802971 
L 231.926568 92.693274 
L 232.038743 92.668436 
L 232.48118 92.558739 
L 232.570174 92.540111 
L 232.592277 92.540111 
L 233.068989 92.430414 
L 233.180853 92.391089 
L 233.677616 92.281391 
L 233.778262 92.239996 
L 233.788671 92.239996 
L 234.203739 92.130299 
L 234.303846 92.101322 
L 234.314815 92.101322 
L 234.786178 91.991625 
L 234.898021 91.954369 
L 235.347094 91.843637 
L 235.454707 91.803277 
L 235.45819 91.803277 
L 235.974112 91.69358 
L 236.085769 91.666673 
L 236.490531 91.556976 
L 236.601193 91.52179 
L 236.601545 91.52179 
L 237.027851 91.412092 
L 237.101522 91.393465 
L 237.138948 91.393465 
L 237.577571 91.283767 
L 237.687672 91.248581 
L 237.688667 91.248581 
L 238.112693 91.138884 
L 238.222752 91.105768 
L 238.223748 91.105768 
L 238.651339 90.996071 
L 238.7631 90.962955 
L 239.093031 90.853257 
L 239.205911 90.82635 
L 239.608932 90.716653 
L 239.720256 90.685607 
L 240.186912 90.575909 
L 240.297594 90.534514 
L 240.297968 90.534514 
L 240.756827 90.424817 
L 240.868505 90.387561 
L 241.29282 90.277864 
L 241.405327 90.244748 
L 241.785146 90.135051 
L 241.897466 90.093655 
L 242.30198 89.983958 
L 242.406151 89.961191 
L 242.413076 89.961191 
L 242.938992 89.851494 
L 243.047767 89.814238 
L 243.050047 89.814238 
L 243.477598 89.704541 
L 243.588321 89.665215 
L 243.588694 89.665215 
L 244.029141 89.555518 
L 244.138745 89.505844 
L 244.140238 89.505844 
L 244.63613 89.396146 
L 244.738995 89.36303 
L 244.747227 89.36303 
L 245.165032 89.253333 
L 245.276833 89.218147 
L 245.789147 89.107415 
L 245.904018 89.075334 
L 246.367024 88.964602 
L 246.482351 88.913892 
L 246.847946 88.804195 
L 246.959664 88.771079 
L 247.355014 88.661382 
L 247.466297 88.638614 
L 247.919641 88.528917 
L 248.03165 88.50822 
L 248.440539 88.398522 
L 248.553129 88.363336 
L 249.018001 88.253639 
L 249.129222 88.224662 
L 249.606329 88.114965 
L 249.717633 88.088058 
L 250.14058 87.978361 
L 250.14058 87.977326 
L 250.252713 87.953524 
L 250.639043 87.843827 
L 250.750513 87.81899 
L 251.254118 87.709292 
L 251.353023 87.659618 
L 251.365194 87.659618 
L 251.756562 87.549921 
L 251.869649 87.518874 
L 252.327182 87.409177 
L 252.439025 87.369852 
L 252.959799 87.260154 
L 252.959799 87.25912 
L 253.073093 87.235317 
L 253.515261 87.12562 
L 253.627125 87.088364 
L 254.157769 86.977632 
L 254.270483 86.95176 
L 254.715948 86.842063 
L 254.827293 86.815156 
L 255.22455 86.704424 
L 255.339545 86.670273 
L 255.728466 86.560576 
L 255.837241 86.52125 
L 255.839356 86.52125 
L 256.330686 86.410518 
L 256.444561 86.378437 
L 256.951733 86.26874 
L 257.064364 86.231484 
L 257.488223 86.121787 
L 257.598407 86.101089 
L 257.59932 86.101089 
L 258.036387 85.991392 
L 258.147836 85.956206 
L 258.670725 85.846509 
L 258.78234 85.819602 
L 259.352193 85.709904 
L 259.352193 85.70887 
L 259.464036 85.691277 
L 259.894572 85.581579 
L 259.988479 85.556742 
L 260.005669 85.556742 
L 260.586241 85.447045 
L 260.69767 85.428417 
L 261.15035 85.31872 
L 261.262442 85.295953 
L 261.752715 85.186255 
L 261.864994 85.149 
L 262.256507 85.039302 
L 262.368039 84.995837 
L 262.81649 84.88614 
L 262.929059 84.850954 
L 263.377634 84.741257 
L 263.484833 84.699862 
L 263.488731 84.699862 
L 263.978506 84.590165 
L 264.089789 84.567397 
L 264.629017 84.4577 
L 264.740487 84.428723 
L 265.157794 84.319026 
L 265.270383 84.292119 
L 265.839096 84.182422 
L 265.950607 84.161724 
L 266.347615 84.052027 
L 266.459437 84.02926 
L 266.814499 83.919562 
L 266.924269 83.894725 
L 266.925596 83.894725 
L 267.407948 83.785028 
L 267.522486 83.751912 
L 267.938695 83.642215 
L 268.052943 83.607029 
L 268.620785 83.497331 
L 268.620785 83.496297 
L 268.734079 83.472494 
L 269.082837 83.362797 
L 269.197936 83.323472 
L 269.686799 83.213774 
L 269.79831 83.193077 
L 270.206473 83.083379 
L 270.319374 83.025426 
L 270.808175 82.914694 
L 270.921967 82.884683 
L 271.38543 82.774985 
L 271.38543 82.77395 
L 271.499097 82.746009 
L 272.12425 82.636311 
L 272.236507 82.609405 
L 272.581492 82.498672 
L 272.696238 82.47487 
L 273.27934 82.365173 
L 273.387596 82.334127 
L 273.390416 82.334127 
L 273.696067 82.224429 
L 273.807786 82.193383 
L 274.299779 82.083686 
L 274.411623 82.067128 
L 274.891093 81.95743 
L 275.004968 81.913965 
L 275.47096 81.803233 
L 275.583363 81.78357 
L 276.139344 81.673873 
L 276.253136 81.638687 
L 276.651347 81.52899 
L 276.651347 81.527955 
L 276.765139 81.497944 
L 277.164449 81.388246 
L 277.264971 81.361339 
L 277.275504 81.361339 
L 277.7591 81.251642 
L 277.871254 81.216456 
L 278.375482 81.106759 
L 278.486869 81.077782 
L 278.998312 80.968085 
L 279.110549 80.941178 
L 279.462438 80.830446 
L 279.561467 80.792156 
L 279.573535 80.792156 
L 279.969423 80.682458 
L 280.080561 80.653482 
L 280.613133 80.54275 
L 280.72369 80.525157 
L 280.724188 80.525157 
L 281.251804 80.415459 
L 281.360288 80.378204 
L 281.362859 80.378204 
L 281.755679 80.268506 
L 281.869201 80.231251 
L 282.28966 80.121553 
L 282.394516 80.102926 
L 282.400674 80.102926 
L 282.86339 79.993228 
L 282.977805 79.955973 
L 283.38404 79.845241 
L 283.501294 79.815229 
L 284.013256 79.705532 
L 284.12174 79.664137 
L 284.124332 79.664137 
L 284.579915 79.553404 
L 284.698456 79.521323 
L 285.12669 79.411626 
L 285.238575 79.386789 
L 285.620799 79.277091 
L 285.734695 79.233627 
L 286.251363 79.123929 
L 286.362812 79.105301 
L 286.80892 78.995604 
L 286.921302 78.964558 
L 287.389202 78.854861 
L 287.500859 78.838302 
L 287.969733 78.728605 
L 288.082572 78.68307 
L 288.579044 78.573373 
L 288.579044 78.572338 
L 288.694122 78.544397 
L 289.244546 78.433664 
L 289.361656 78.403653 
L 289.798744 78.293956 
L 289.910919 78.269119 
L 290.333286 78.159421 
L 290.437519 78.136654 
L 290.444382 78.136654 
L 290.919622 78.026957 
L 291.033041 77.99591 
L 291.596674 77.885178 
L 291.709533 77.859306 
L 292.395728 77.749609 
L 292.507364 77.720632 
L 293.051381 77.610935 
L 293.162872 77.592307 
L 293.462323 77.48261 
L 293.572072 77.449494 
L 293.573378 77.449494 
L 293.946707 77.339796 
L 294.061038 77.30875 
L 294.637713 77.199053 
L 294.751899 77.168006 
L 295.133148 77.058309 
L 295.246215 77.021053 
L 295.833008 76.911356 
L 295.945183 76.884449 
L 296.383349 76.774752 
L 296.494964 76.747845 
L 297.067969 76.638148 
L 297.179791 76.600892 
L 297.639915 76.491195 
L 297.7518 76.466358 
L 298.062614 76.356661 
L 298.174436 76.340103 
L 298.627469 76.230405 
L 298.739541 76.209708 
L 299.354097 76.10001 
L 299.467433 76.071034 
L 299.971889 75.960302 
L 300.08396 75.936499 
L 300.589556 75.826802 
L 300.589556 75.825767 
L 300.703783 75.799895 
L 301.288814 75.689163 
L 301.404016 75.67157 
L 301.800215 75.561873 
L 301.9138 75.534966 
L 302.485395 75.424234 
L 302.603438 75.400432 
L 303.122096 75.290734 
L 303.233504 75.272107 
L 303.816046 75.162409 
L 303.927806 75.141712 
L 304.474208 75.032014 
L 304.58545 75.017526 
L 304.983246 74.907829 
L 305.095607 74.885062 
L 305.50037 74.775364 
L 305.611653 74.748457 
L 306.16243 74.63876 
L 306.274501 74.622202 
L 306.729898 74.512505 
L 306.842115 74.483528 
L 307.395317 74.373831 
L 307.508819 74.346924 
L 307.938816 74.237227 
L 308.043693 74.20825 
L 308.049789 74.20825 
L 308.505165 74.097518 
L 308.605521 74.065437 
L 308.616179 74.065437 
L 309.101869 73.955739 
L 309.214376 73.935042 
L 309.748793 73.825345 
L 309.808011 73.810856 
L 309.859786 73.810856 
L 310.353915 73.701159 
L 310.46609 73.680461 
L 311.032273 73.570764 
L 311.147703 73.543857 
L 311.573511 73.43416 
L 311.686412 73.401044 
L 312.309574 73.290312 
L 312.422785 73.274788 
L 312.968067 73.165091 
L 313.080284 73.136115 
L 313.548972 73.026417 
L 313.660773 72.989162 
L 314.26179 72.879464 
L 314.383068 72.83186 
L 315.011268 72.722163 
L 315.12363 72.703535 
L 315.642537 72.592803 
L 315.75523 72.569 
L 316.200799 72.459303 
L 316.312476 72.440675 
L 316.736813 72.329943 
L 316.857779 72.291653 
L 317.296319 72.181955 
L 317.407706 72.165397 
L 317.962298 72.054665 
L 318.074286 72.030863 
L 318.545006 71.921166 
L 318.65801 71.892189 
L 319.112681 71.782492 
L 319.225437 71.757655 
L 319.740177 71.647957 
L 319.851439 71.612771 
L 320.368107 71.503074 
L 320.479639 71.482377 
L 321.047626 71.371644 
L 321.16061 71.351982 
L 321.661125 71.24125 
L 321.774254 71.223657 
L 322.430778 71.113959 
L 322.543554 71.093262 
L 323.165824 70.983565 
L 323.279409 70.956658 
L 323.793589 70.84696 
L 323.90649 70.820054 
L 324.409203 70.710356 
L 324.522747 70.683449 
L 325.093906 70.573752 
L 325.206806 70.538566 
L 325.790634 70.428869 
L 325.904281 70.389544 
L 326.448008 70.279846 
L 326.561635 70.259149 
L 327.094434 70.149451 
L 327.20719 70.132893 
L 327.75243 70.023196 
L 327.865435 70.006638 
L 328.294996 69.896941 
L 328.407109 69.878313 
L 328.913824 69.768616 
L 328.913824 69.767581 
L 329.027596 69.745848 
L 329.583038 69.635116 
L 329.69515 69.611314 
L 330.188347 69.501617 
L 330.300356 69.480919 
L 330.747957 69.370187 
L 330.854139 69.321548 
L 330.859053 69.321548 
L 331.481075 69.21185 
L 331.593747 69.191153 
L 332.179026 69.080421 
L 332.29286 69.058688 
L 332.758127 68.947956 
L 332.876792 68.915875 
L 333.420913 68.806177 
L 333.532465 68.791689 
L 333.968164 68.681992 
L 334.081418 68.655085 
L 334.781505 68.545388 
L 334.894613 68.503992 
L 335.411488 68.39326 
L 335.523726 68.377737 
L 336.121467 68.26804 
L 336.232874 68.247342 
L 336.725677 68.137645 
L 336.838764 68.104529 
L 337.35226 67.993797 
L 337.46628 67.976204 
L 338.068188 67.866507 
L 338.179596 67.849948 
L 338.754861 67.740251 
L 338.838712 67.711275 
L 338.865937 67.711275 
L 339.522543 67.601577 
L 339.634511 67.585019 
L 340.251245 67.475322 
L 340.251245 67.474287 
L 340.364705 67.448415 
L 340.871628 67.338718 
L 340.984612 67.309741 
L 341.636823 67.199009 
L 341.738527 67.175207 
L 341.747878 67.175207 
L 342.301143 67.06551 
L 342.41365 67.048951 
L 343.013734 66.939254 
L 343.013734 66.938219 
L 343.130719 66.904068 
L 343.684585 66.794371 
L 343.778078 66.777813 
L 343.795599 66.777813 
L 344.29344 66.668116 
L 344.404827 66.643279 
L 344.906711 66.533581 
L 344.906711 66.532546 
L 345.019653 66.504605 
L 345.53912 66.394907 
L 345.651088 66.368001 
L 346.195893 66.258303 
L 346.308338 66.231396 
L 346.842133 66.120664 
L 346.95636 66.101002 
L 347.52105 65.991304 
L 347.635236 65.974746 
L 348.232873 65.865049 
L 348.344509 65.838142 
L 348.999851 65.728445 
L 349.115053 65.699468 
L 349.613744 65.589771 
L 349.727454 65.560794 
L 350.376223 65.451097 
L 350.488667 65.42626 
L 351.020285 65.316563 
L 351.132688 65.297935 
L 351.596835 65.188238 
L 351.708284 65.171679 
L 352.248445 65.061982 
L 352.360329 65.043354 
L 352.926802 64.933657 
L 353.033524 64.902611 
L 353.037816 64.902611 
L 353.720404 64.791879 
L 353.832185 64.774286 
L 354.398595 64.664588 
L 354.510646 64.641821 
L 355.009399 64.532124 
L 355.124021 64.501077 
L 355.769451 64.390345 
L 355.88737 64.366543 
L 356.389938 64.256846 
L 356.502901 64.232009 
L 357.139084 64.122311 
L 357.253768 64.091265 
L 357.750697 63.980533 
L 357.862872 63.954661 
L 358.342777 63.844964 
L 358.45545 63.822196 
L 358.935894 63.712499 
L 359.049064 63.681452 
L 359.586467 63.571755 
L 359.698684 63.551058 
L 360.231649 63.44136 
L 360.343119 63.420663 
L 360.853878 63.310966 
L 360.967546 63.277849 
L 361.510879 63.167117 
L 361.628133 63.130896 
L 362.473343 63.021199 
L 362.586161 62.998432 
L 363.133517 62.888735 
L 363.245152 62.859758 
L 363.835553 62.750061 
L 363.949511 62.716944 
L 364.521355 62.607247 
L 364.634649 62.590689 
L 365.12488 62.479957 
L 365.200645 62.460294 
L 365.235853 62.460294 
L 365.817006 62.350597 
L 365.911307 62.317481 
L 365.928082 62.317481 
L 366.706339 62.207784 
L 366.818908 62.191226 
L 367.382333 62.081528 
L 367.494031 62.060831 
L 368.170232 61.951133 
L 368.282822 61.928366 
L 368.836066 61.818669 
L 368.941855 61.802111 
L 368.947121 61.802111 
L 369.535656 61.692413 
L 369.640242 61.661367 
L 369.646711 61.661367 
L 370.252995 61.55167 
L 370.364465 61.530972 
L 371.081804 61.42024 
L 371.195015 61.408856 
L 371.802087 61.299159 
L 371.913494 61.282601 
L 372.509971 61.171869 
L 372.624634 61.154276 
L 373.288104 61.044579 
L 373.399408 61.025951 
L 373.997315 60.916254 
L 374.109178 60.897626 
L 374.715483 60.787928 
L 374.823511 60.769301 
L 374.826497 60.769301 
L 375.44576 60.659603 
L 375.557064 60.645115 
L 376.232021 60.534383 
L 376.341832 60.504371 
L 376.342993 60.504371 
L 376.962464 60.394674 
L 377.077501 60.373977 
L 377.892355 60.264279 
L 378.002975 60.239442 
L 378.00341 60.239442 
L 378.708329 60.129745 
L 378.818513 60.104908 
L 378.819384 60.104908 
L 379.338001 59.994176 
L 379.450259 59.966234 
L 379.97066 59.856537 
L 380.083705 59.82756 
L 380.664734 59.717863 
L 380.77608 59.705444 
L 381.426155 59.595747 
L 381.537729 59.57298 
L 382.055786 59.463282 
L 382.168541 59.446724 
L 382.869686 59.337027 
L 382.98126 59.31426 
L 383.726487 59.203527 
L 383.841212 59.179725 
L 384.499582 59.068993 
L 384.612524 59.05554 
L 385.258535 58.945842 
L 385.370109 58.929284 
L 386.102791 58.818552 
L 386.216252 58.79268 
L 386.827885 58.682983 
L 386.827885 58.681948 
L 386.941304 58.664355 
L 387.538423 58.554658 
L 387.650598 58.54017 
L 388.372249 58.430472 
L 388.483844 58.405635 
L 389.120151 58.295938 
L 389.231828 58.283519 
L 389.878545 58.173822 
L 389.989807 58.155194 
L 390.643408 58.045497 
L 390.754795 58.031009 
L 391.408519 57.921311 
L 391.496683 57.898544 
L 391.519595 57.898544 
L 392.169443 57.788847 
L 392.281078 57.75987 
L 392.855928 57.650173 
L 392.855928 57.649138 
L 392.969617 57.621196 
L 393.467893 57.510464 
L 393.579695 57.494941 
L 394.189047 57.385244 
L 394.301305 57.368686 
L 394.918785 57.258988 
L 395.031458 57.221733 
L 395.659637 57.112035 
L 395.771605 57.091338 
L 396.380335 56.98164 
L 396.494687 56.954734 
L 397.079925 56.844001 
L 397.192929 56.824339 
L 397.702299 56.713607 
L 397.814972 56.698083 
L 398.294649 56.588386 
L 398.404045 56.567689 
L 398.405704 56.567689 
L 399.010453 56.457991 
L 399.122856 56.426945 
L 399.845524 56.317248 
L 399.845524 56.316213 
L 399.957118 56.304829 
L 400.595665 56.195132 
L 400.703569 56.186853 
L 400.70672 56.186853 
L 401.410043 56.077156 
L 401.515126 56.058528 
L 401.521139 56.058528 
L 402.356791 55.94883 
L 402.468302 55.919854 
L 403.128703 55.810157 
L 403.224124 55.791529 
L 403.239717 55.791529 
L 403.851889 55.681831 
L 403.963152 55.671483 
L 404.502835 55.56075 
L 404.607981 55.539018 
L 404.613849 55.539018 
L 405.308504 55.429321 
L 405.413795 55.418972 
L 405.419601 55.418972 
L 405.99499 55.309275 
L 406.082781 55.292717 
L 406.105755 55.292717 
L 406.841029 55.183019 
L 406.953183 55.164392 
L 407.667371 55.054694 
L 407.778737 55.040206 
L 408.816904 54.930509 
L 408.882302 54.92016 
L 408.927918 54.92016 
L 409.775554 54.810463 
L 409.879684 54.800114 
L 409.886526 54.800114 
L 410.590657 54.690417 
L 410.701816 54.675928 
L 411.579766 54.566231 
L 411.684891 54.547603 
L 411.690863 54.547603 
L 412.48604 54.437906 
L 412.48604 54.436871 
L 412.59809 54.415139 
L 413.488067 54.305441 
L 413.564163 54.290953 
L 413.599163 54.290953 
L 414.479767 54.181256 
L 414.559638 54.166767 
L 414.59074 54.166767 
L 414.72 54.144 
L 414.72 54.144 
" clip-path="url(#pdfad8ab135)" style="fill: none; stroke: #ff8c00; stroke-width: 1.5; stroke-linecap: square"/>
   </g>
   <g id="line2d_14">
    <path d="M 74.605714 307.584 
L 414.72 54.144 
" clip-path="url(#pdfad8ab135)" style="fill: none; stroke-dasharray: 5.55,2.4; stroke-dashoffset: 0; stroke: #0000ff; stroke-width: 1.5"/>
   </g>
   <g id="patch_3">
    <path d="M 57.6 307.584 
L 57.6 41.472 
" style="fill: none; stroke: #000000; stroke-width: 0.8; stroke-linejoin: miter; stroke-linecap: square"/>
   </g>
   <g id="patch_4">
    <path d="M 414.72 307.584 
L 414.72 41.472 
" style="fill: none; stroke: #000000; stroke-width: 0.8; stroke-linejoin: miter; stroke-linecap: square"/>
   </g>
   <g id="patch_5">
    <path d="M 57.6 307.584 
L 414.72 307.584 
" style="fill: none; stroke: #000000; stroke-width: 0.8; stroke-linejoin: miter; stroke-linecap: square"/>
   </g>
   <g id="patch_6">
    <path d="M 57.6 41.472 
L 414.72 41.472 
" style="fill: none; stroke: #000000; stroke-width: 0.8; stroke-linejoin: miter; stroke-linecap: square"/>
   </g>
   <g id="text_15">
    <!-- ROC CURVE -->
    <g transform="translate(200.855625 35.472)scale(0.12 -0.12)">
     <defs>
      <path id="DejaVuSans-4f" d="M 2522 4238 
Q 1834 4238 1429 3725 
Q 1025 3213 1025 2328 
Q 1025 1447 1429 934 
Q 1834 422 2522 422 
Q 3209 422 3611 934 
Q 4013 1447 4013 2328 
Q 4013 3213 3611 3725 
Q 3209 4238 2522 4238 
z
M 2522 4750 
Q 3503 4750 4090 4092 
Q 4678 3434 4678 2328 
Q 4678 1225 4090 567 
Q 3503 -91 2522 -91 
Q 1538 -91 948 565 
Q 359 1222 359 2328 
Q 359 3434 948 4092 
Q 1538 4750 2522 4750 
z
" transform="scale(0.015625)"/>
      <path id="DejaVuSans-43" d="M 4122 4306 
L 4122 3641 
Q 3803 3938 3442 4084 
Q 3081 4231 2675 4231 
Q 1875 4231 1450 3742 
Q 1025 3253 1025 2328 
Q 1025 1406 1450 917 
Q 1875 428 2675 428 
Q 3081 428 3442 575 
Q 3803 722 4122 1019 
L 4122 359 
Q 3791 134 3420 21 
Q 3050 -91 2638 -91 
Q 1578 -91 968 557 
Q 359 1206 359 2328 
Q 359 3453 968 4101 
Q 1578 4750 2638 4750 
Q 3056 4750 3426 4639 
Q 3797 4528 4122 4306 
z
" transform="scale(0.015625)"/>
      <path id="DejaVuSans-55" d="M 556 4666 
L 1191 4666 
L 1191 1831 
Q 1191 1081 1462 751 
Q 1734 422 2344 422 
Q 2950 422 3222 751 
Q 3494 1081 3494 1831 
L 3494 4666 
L 4128 4666 
L 4128 1753 
Q 4128 841 3676 375 
Q 3225 -91 2344 -91 
Q 1459 -91 1007 375 
Q 556 841 556 1753 
L 556 4666 
z
" transform="scale(0.015625)"/>
      <path id="DejaVuSans-56" d="M 1831 0 
L 50 4666 
L 709 4666 
L 2188 738 
L 3669 4666 
L 4325 4666 
L 2547 0 
L 1831 0 
z
" transform="scale(0.015625)"/>
      <path id="DejaVuSans-45" d="M 628 4666 
L 3578 4666 
L 3578 4134 
L 1259 4134 
L 1259 2753 
L 3481 2753 
L 3481 2222 
L 1259 2222 
L 1259 531 
L 3634 531 
L 3634 0 
L 628 0 
L 628 4666 
z
" transform="scale(0.015625)"/>
     </defs>
     <use xlink:href="#DejaVuSans-52"/>
     <use xlink:href="#DejaVuSans-4f" x="69.482422"/>
     <use xlink:href="#DejaVuSans-43" x="148.193359"/>
     <use xlink:href="#DejaVuSans-20" x="218.017578"/>
     <use xlink:href="#DejaVuSans-43" x="249.804688"/>
     <use xlink:href="#DejaVuSans-55" x="319.628906"/>
     <use xlink:href="#DejaVuSans-52" x="392.822266"/>
     <use xlink:href="#DejaVuSans-56" x="456.804688"/>
     <use xlink:href="#DejaVuSans-45" x="525.212891"/>
    </g>
   </g>
   <g id="legend_1">
    <g id="patch_7">
     <path d="M 234.97 302.584 
L 407.72 302.584 
Q 409.72 302.584 409.72 300.584 
L 409.72 286.905875 
Q 409.72 284.905875 407.72 284.905875 
L 234.97 284.905875 
Q 232.97 284.905875 232.97 286.905875 
L 232.97 300.584 
Q 232.97 302.584 234.97 302.584 
z
" style="fill: #ffffff; opacity: 0.8; stroke: #cccccc; stroke-linejoin: miter"/>
    </g>
    <g id="line2d_15">
     <path d="M 236.97 293.004312 
L 246.97 293.004312 
L 256.97 293.004312 
" style="fill: none; stroke: #ff8c00; stroke-width: 1.5; stroke-linecap: square"/>
    </g>
    <g id="text_16">
     <!-- ROC curve (ROC AUC=0.75) -->
     <g transform="translate(264.97 296.504312)scale(0.1 -0.1)">
      <defs>
       <path id="DejaVuSans-63" d="M 3122 3366 
L 3122 2828 
Q 2878 2963 2633 3030 
Q 2388 3097 2138 3097 
Q 1578 3097 1268 2742 
Q 959 2388 959 1747 
Q 959 1106 1268 751 
Q 1578 397 2138 397 
Q 2388 397 2633 464 
Q 2878 531 3122 666 
L 3122 134 
Q 2881 22 2623 -34 
Q 2366 -91 2075 -91 
Q 1284 -91 818 406 
Q 353 903 353 1747 
Q 353 2603 823 3093 
Q 1294 3584 2113 3584 
Q 2378 3584 2631 3529 
Q 2884 3475 3122 3366 
z
" transform="scale(0.015625)"/>
       <path id="DejaVuSans-28" d="M 1984 4856 
Q 1566 4138 1362 3434 
Q 1159 2731 1159 2009 
Q 1159 1288 1364 580 
Q 1569 -128 1984 -844 
L 1484 -844 
Q 1016 -109 783 600 
Q 550 1309 550 2009 
Q 550 2706 781 3412 
Q 1013 4119 1484 4856 
L 1984 4856 
z
" transform="scale(0.015625)"/>
       <path id="DejaVuSans-41" d="M 2188 4044 
L 1331 1722 
L 3047 1722 
L 2188 4044 
z
M 1831 4666 
L 2547 4666 
L 4325 0 
L 3669 0 
L 3244 1197 
L 1141 1197 
L 716 0 
L 50 0 
L 1831 4666 
z
" transform="scale(0.015625)"/>
       <path id="DejaVuSans-3d" d="M 678 2906 
L 4684 2906 
L 4684 2381 
L 678 2381 
L 678 2906 
z
M 678 1631 
L 4684 1631 
L 4684 1100 
L 678 1100 
L 678 1631 
z
" transform="scale(0.015625)"/>
       <path id="DejaVuSans-37" d="M 525 4666 
L 3525 4666 
L 3525 4397 
L 1831 0 
L 1172 0 
L 2766 4134 
L 525 4134 
L 525 4666 
z
" transform="scale(0.015625)"/>
       <path id="DejaVuSans-35" d="M 691 4666 
L 3169 4666 
L 3169 4134 
L 1269 4134 
L 1269 2991 
Q 1406 3038 1543 3061 
Q 1681 3084 1819 3084 
Q 2600 3084 3056 2656 
Q 3513 2228 3513 1497 
Q 3513 744 3044 326 
Q 2575 -91 1722 -91 
Q 1428 -91 1123 -41 
Q 819 9 494 109 
L 494 744 
Q 775 591 1075 516 
Q 1375 441 1709 441 
Q 2250 441 2565 725 
Q 2881 1009 2881 1497 
Q 2881 1984 2565 2268 
Q 2250 2553 1709 2553 
Q 1456 2553 1204 2497 
Q 953 2441 691 2322 
L 691 4666 
z
" transform="scale(0.015625)"/>
       <path id="DejaVuSans-29" d="M 513 4856 
L 1013 4856 
Q 1481 4119 1714 3412 
Q 1947 2706 1947 2009 
Q 1947 1309 1714 600 
Q 1481 -109 1013 -844 
L 513 -844 
Q 928 -128 1133 580 
Q 1338 1288 1338 2009 
Q 1338 2731 1133 3434 
Q 928 4138 513 4856 
z
" transform="scale(0.015625)"/>
      </defs>
      <use xlink:href="#DejaVuSans-52"/>
      <use xlink:href="#DejaVuSans-4f" x="69.482422"/>
      <use xlink:href="#DejaVuSans-43" x="148.193359"/>
      <use xlink:href="#DejaVuSans-20" x="218.017578"/>
      <use xlink:href="#DejaVuSans-63" x="249.804688"/>
      <use xlink:href="#DejaVuSans-75" x="304.785156"/>
      <use xlink:href="#DejaVuSans-72" x="368.164062"/>
      <use xlink:href="#DejaVuSans-76" x="409.277344"/>
      <use xlink:href="#DejaVuSans-65" x="468.457031"/>
      <use xlink:href="#DejaVuSans-20" x="529.980469"/>
      <use xlink:href="#DejaVuSans-28" x="561.767578"/>
      <use xlink:href="#DejaVuSans-52" x="600.78125"/>
      <use xlink:href="#DejaVuSans-4f" x="670.263672"/>
      <use xlink:href="#DejaVuSans-43" x="748.974609"/>
      <use xlink:href="#DejaVuSans-20" x="818.798828"/>
      <use xlink:href="#DejaVuSans-41" x="850.585938"/>
      <use xlink:href="#DejaVuSans-55" x="918.994141"/>
      <use xlink:href="#DejaVuSans-43" x="992.1875"/>
      <use xlink:href="#DejaVuSans-3d" x="1062.011719"/>
      <use xlink:href="#DejaVuSans-30" x="1145.800781"/>
      <use xlink:href="#DejaVuSans-2e" x="1209.423828"/>
      <use xlink:href="#DejaVuSans-37" x="1241.210938"/>
      <use xlink:href="#DejaVuSans-35" x="1304.833984"/>
      <use xlink:href="#DejaVuSans-29" x="1368.457031"/>
     </g>
    </g>
   </g>
  </g>
 </g>
 <defs>
  <clipPath id="pdfad8ab135">
   <rect x="57.6" y="41.472" width="357.12" height="266.112"/>
  </clipPath>
 </defs>
</svg>
