<?xml version="1.0" encoding="utf-8" standalone="no"?>
<!DOCTYPE svg PUBLIC "-//W3C//DTD SVG 1.1//EN"
  "http://www.w3.org/Graphics/SVG/1.1/DTD/svg11.dtd">
<svg xmlns:xlink="http://www.w3.org/1999/xlink" width="460.8pt" height="345.6pt" viewBox="0 0 460.8 345.6" xmlns="http://www.w3.org/2000/svg" version="1.1">
 <metadata>
  <rdf:RDF xmlns:dc="http://purl.org/dc/elements/1.1/" xmlns:cc="http://creativecommons.org/ns#" xmlns:rdf="http://www.w3.org/1999/02/22-rdf-syntax-ns#">
   <cc:Work>
    <dc:type rdf:resource="http://purl.org/dc/dcmitype/StillImage"/>
    <dc:date>2022-05-22T16:54:49.743330</dc:date>
    <dc:format>image/svg+xml</dc:format>
    <dc:creator>
     <cc:Agent>
      <dc:title>Matplotlib v3.5.1, https://matplotlib.org/</dc:title>
     </cc:Agent>
    </dc:creator>
   </cc:Work>
  </rdf:RDF>
 </metadata>
 <defs>
  <style type="text/css">*{stroke-linejoin: round; stroke-linecap: butt}</style>
 </defs>
 <g id="figure_1">
  <g id="patch_1">
   <path d="M 0 345.6 
L 460.8 345.6 
L 460.8 0 
L 0 0 
z
" style="fill: #ffffff"/>
  </g>
  <g id="axes_1">
   <g id="patch_2">
    <path d="M 57.6 307.584 
L 414.72 307.584 
L 414.72 41.472 
L 57.6 41.472 
z
" style="fill: #ffffff"/>
   </g>
   <g id="matplotlib.axis_1">
    <g id="xtick_1">
     <g id="line2d_1">
      <defs>
       <path id="maf7010102d" d="M 0 0 
L 0 3.5 
" style="stroke: #000000; stroke-width: 0.8"/>
      </defs>
      <g>
       <use xlink:href="#maf7010102d" x="74.605714" y="307.584" style="stroke: #000000; stroke-width: 0.8"/>
      </g>
     </g>
     <g id="text_1">
      <!-- 0.0 -->
      <g transform="translate(66.654152 322.182437)scale(0.1 -0.1)">
       <defs>
        <path id="DejaVuSans-30" d="M 2034 4250 
Q 1547 4250 1301 3770 
Q 1056 3291 1056 2328 
Q 1056 1369 1301 889 
Q 1547 409 2034 409 
Q 2525 409 2770 889 
Q 3016 1369 3016 2328 
Q 3016 3291 2770 3770 
Q 2525 4250 2034 4250 
z
M 2034 4750 
Q 2819 4750 3233 4129 
Q 3647 3509 3647 2328 
Q 3647 1150 3233 529 
Q 2819 -91 2034 -91 
Q 1250 -91 836 529 
Q 422 1150 422 2328 
Q 422 3509 836 4129 
Q 1250 4750 2034 4750 
z
" transform="scale(0.015625)"/>
        <path id="DejaVuSans-2e" d="M 684 794 
L 1344 794 
L 1344 0 
L 684 0 
L 684 794 
z
" transform="scale(0.015625)"/>
       </defs>
       <use xlink:href="#DejaVuSans-30"/>
       <use xlink:href="#DejaVuSans-2e" x="63.623047"/>
       <use xlink:href="#DejaVuSans-30" x="95.410156"/>
      </g>
     </g>
    </g>
    <g id="xtick_2">
     <g id="line2d_2">
      <g>
       <use xlink:href="#maf7010102d" x="142.628571" y="307.584" style="stroke: #000000; stroke-width: 0.8"/>
      </g>
     </g>
     <g id="text_2">
      <!-- 0.2 -->
      <g transform="translate(134.677009 322.182437)scale(0.1 -0.1)">
       <defs>
        <path id="DejaVuSans-32" d="M 1228 531 
L 3431 531 
L 3431 0 
L 469 0 
L 469 531 
Q 828 903 1448 1529 
Q 2069 2156 2228 2338 
Q 2531 2678 2651 2914 
Q 2772 3150 2772 3378 
Q 2772 3750 2511 3984 
Q 2250 4219 1831 4219 
Q 1534 4219 1204 4116 
Q 875 4013 500 3803 
L 500 4441 
Q 881 4594 1212 4672 
Q 1544 4750 1819 4750 
Q 2544 4750 2975 4387 
Q 3406 4025 3406 3419 
Q 3406 3131 3298 2873 
Q 3191 2616 2906 2266 
Q 2828 2175 2409 1742 
Q 1991 1309 1228 531 
z
" transform="scale(0.015625)"/>
       </defs>
       <use xlink:href="#DejaVuSans-30"/>
       <use xlink:href="#DejaVuSans-2e" x="63.623047"/>
       <use xlink:href="#DejaVuSans-32" x="95.410156"/>
      </g>
     </g>
    </g>
    <g id="xtick_3">
     <g id="line2d_3">
      <g>
       <use xlink:href="#maf7010102d" x="210.651429" y="307.584" style="stroke: #000000; stroke-width: 0.8"/>
      </g>
     </g>
     <g id="text_3">
      <!-- 0.4 -->
      <g transform="translate(202.699866 322.182437)scale(0.1 -0.1)">
       <defs>
        <path id="DejaVuSans-34" d="M 2419 4116 
L 825 1625 
L 2419 1625 
L 2419 4116 
z
M 2253 4666 
L 3047 4666 
L 3047 1625 
L 3713 1625 
L 3713 1100 
L 3047 1100 
L 3047 0 
L 2419 0 
L 2419 1100 
L 313 1100 
L 313 1709 
L 2253 4666 
z
" transform="scale(0.015625)"/>
       </defs>
       <use xlink:href="#DejaVuSans-30"/>
       <use xlink:href="#DejaVuSans-2e" x="63.623047"/>
       <use xlink:href="#DejaVuSans-34" x="95.410156"/>
      </g>
     </g>
    </g>
    <g id="xtick_4">
     <g id="line2d_4">
      <g>
       <use xlink:href="#maf7010102d" x="278.674286" y="307.584" style="stroke: #000000; stroke-width: 0.8"/>
      </g>
     </g>
     <g id="text_4">
      <!-- 0.6 -->
      <g transform="translate(270.722723 322.182437)scale(0.1 -0.1)">
       <defs>
        <path id="DejaVuSans-36" d="M 2113 2584 
Q 1688 2584 1439 2293 
Q 1191 2003 1191 1497 
Q 1191 994 1439 701 
Q 1688 409 2113 409 
Q 2538 409 2786 701 
Q 3034 994 3034 1497 
Q 3034 2003 2786 2293 
Q 2538 2584 2113 2584 
z
M 3366 4563 
L 3366 3988 
Q 3128 4100 2886 4159 
Q 2644 4219 2406 4219 
Q 1781 4219 1451 3797 
Q 1122 3375 1075 2522 
Q 1259 2794 1537 2939 
Q 1816 3084 2150 3084 
Q 2853 3084 3261 2657 
Q 3669 2231 3669 1497 
Q 3669 778 3244 343 
Q 2819 -91 2113 -91 
Q 1303 -91 875 529 
Q 447 1150 447 2328 
Q 447 3434 972 4092 
Q 1497 4750 2381 4750 
Q 2619 4750 2861 4703 
Q 3103 4656 3366 4563 
z
" transform="scale(0.015625)"/>
       </defs>
       <use xlink:href="#DejaVuSans-30"/>
       <use xlink:href="#DejaVuSans-2e" x="63.623047"/>
       <use xlink:href="#DejaVuSans-36" x="95.410156"/>
      </g>
     </g>
    </g>
    <g id="xtick_5">
     <g id="line2d_5">
      <g>
       <use xlink:href="#maf7010102d" x="346.697143" y="307.584" style="stroke: #000000; stroke-width: 0.8"/>
      </g>
     </g>
     <g id="text_5">
      <!-- 0.8 -->
      <g transform="translate(338.74558 322.182437)scale(0.1 -0.1)">
       <defs>
        <path id="DejaVuSans-38" d="M 2034 2216 
Q 1584 2216 1326 1975 
Q 1069 1734 1069 1313 
Q 1069 891 1326 650 
Q 1584 409 2034 409 
Q 2484 409 2743 651 
Q 3003 894 3003 1313 
Q 3003 1734 2745 1975 
Q 2488 2216 2034 2216 
z
M 1403 2484 
Q 997 2584 770 2862 
Q 544 3141 544 3541 
Q 544 4100 942 4425 
Q 1341 4750 2034 4750 
Q 2731 4750 3128 4425 
Q 3525 4100 3525 3541 
Q 3525 3141 3298 2862 
Q 3072 2584 2669 2484 
Q 3125 2378 3379 2068 
Q 3634 1759 3634 1313 
Q 3634 634 3220 271 
Q 2806 -91 2034 -91 
Q 1263 -91 848 271 
Q 434 634 434 1313 
Q 434 1759 690 2068 
Q 947 2378 1403 2484 
z
M 1172 3481 
Q 1172 3119 1398 2916 
Q 1625 2713 2034 2713 
Q 2441 2713 2670 2916 
Q 2900 3119 2900 3481 
Q 2900 3844 2670 4047 
Q 2441 4250 2034 4250 
Q 1625 4250 1398 4047 
Q 1172 3844 1172 3481 
z
" transform="scale(0.015625)"/>
       </defs>
       <use xlink:href="#DejaVuSans-30"/>
       <use xlink:href="#DejaVuSans-2e" x="63.623047"/>
       <use xlink:href="#DejaVuSans-38" x="95.410156"/>
      </g>
     </g>
    </g>
    <g id="xtick_6">
     <g id="line2d_6">
      <g>
       <use xlink:href="#maf7010102d" x="414.72" y="307.584" style="stroke: #000000; stroke-width: 0.8"/>
      </g>
     </g>
     <g id="text_6">
      <!-- 1.0 -->
      <g transform="translate(406.768438 322.182437)scale(0.1 -0.1)">
       <defs>
        <path id="DejaVuSans-31" d="M 794 531 
L 1825 531 
L 1825 4091 
L 703 3866 
L 703 4441 
L 1819 4666 
L 2450 4666 
L 2450 531 
L 3481 531 
L 3481 0 
L 794 0 
L 794 531 
z
" transform="scale(0.015625)"/>
       </defs>
       <use xlink:href="#DejaVuSans-31"/>
       <use xlink:href="#DejaVuSans-2e" x="63.623047"/>
       <use xlink:href="#DejaVuSans-30" x="95.410156"/>
      </g>
     </g>
    </g>
    <g id="text_7">
     <!-- False Positive Rate -->
     <g transform="translate(189.693594 335.860562)scale(0.1 -0.1)">
      <defs>
       <path id="DejaVuSans-46" d="M 628 4666 
L 3309 4666 
L 3309 4134 
L 1259 4134 
L 1259 2759 
L 3109 2759 
L 3109 2228 
L 1259 2228 
L 1259 0 
L 628 0 
L 628 4666 
z
" transform="scale(0.015625)"/>
       <path id="DejaVuSans-61" d="M 2194 1759 
Q 1497 1759 1228 1600 
Q 959 1441 959 1056 
Q 959 750 1161 570 
Q 1363 391 1709 391 
Q 2188 391 2477 730 
Q 2766 1069 2766 1631 
L 2766 1759 
L 2194 1759 
z
M 3341 1997 
L 3341 0 
L 2766 0 
L 2766 531 
Q 2569 213 2275 61 
Q 1981 -91 1556 -91 
Q 1019 -91 701 211 
Q 384 513 384 1019 
Q 384 1609 779 1909 
Q 1175 2209 1959 2209 
L 2766 2209 
L 2766 2266 
Q 2766 2663 2505 2880 
Q 2244 3097 1772 3097 
Q 1472 3097 1187 3025 
Q 903 2953 641 2809 
L 641 3341 
Q 956 3463 1253 3523 
Q 1550 3584 1831 3584 
Q 2591 3584 2966 3190 
Q 3341 2797 3341 1997 
z
" transform="scale(0.015625)"/>
       <path id="DejaVuSans-6c" d="M 603 4863 
L 1178 4863 
L 1178 0 
L 603 0 
L 603 4863 
z
" transform="scale(0.015625)"/>
       <path id="DejaVuSans-73" d="M 2834 3397 
L 2834 2853 
Q 2591 2978 2328 3040 
Q 2066 3103 1784 3103 
Q 1356 3103 1142 2972 
Q 928 2841 928 2578 
Q 928 2378 1081 2264 
Q 1234 2150 1697 2047 
L 1894 2003 
Q 2506 1872 2764 1633 
Q 3022 1394 3022 966 
Q 3022 478 2636 193 
Q 2250 -91 1575 -91 
Q 1294 -91 989 -36 
Q 684 19 347 128 
L 347 722 
Q 666 556 975 473 
Q 1284 391 1588 391 
Q 1994 391 2212 530 
Q 2431 669 2431 922 
Q 2431 1156 2273 1281 
Q 2116 1406 1581 1522 
L 1381 1569 
Q 847 1681 609 1914 
Q 372 2147 372 2553 
Q 372 3047 722 3315 
Q 1072 3584 1716 3584 
Q 2034 3584 2315 3537 
Q 2597 3491 2834 3397 
z
" transform="scale(0.015625)"/>
       <path id="DejaVuSans-65" d="M 3597 1894 
L 3597 1613 
L 953 1613 
Q 991 1019 1311 708 
Q 1631 397 2203 397 
Q 2534 397 2845 478 
Q 3156 559 3463 722 
L 3463 178 
Q 3153 47 2828 -22 
Q 2503 -91 2169 -91 
Q 1331 -91 842 396 
Q 353 884 353 1716 
Q 353 2575 817 3079 
Q 1281 3584 2069 3584 
Q 2775 3584 3186 3129 
Q 3597 2675 3597 1894 
z
M 3022 2063 
Q 3016 2534 2758 2815 
Q 2500 3097 2075 3097 
Q 1594 3097 1305 2825 
Q 1016 2553 972 2059 
L 3022 2063 
z
" transform="scale(0.015625)"/>
       <path id="DejaVuSans-20" transform="scale(0.015625)"/>
       <path id="DejaVuSans-50" d="M 1259 4147 
L 1259 2394 
L 2053 2394 
Q 2494 2394 2734 2622 
Q 2975 2850 2975 3272 
Q 2975 3691 2734 3919 
Q 2494 4147 2053 4147 
L 1259 4147 
z
M 628 4666 
L 2053 4666 
Q 2838 4666 3239 4311 
Q 3641 3956 3641 3272 
Q 3641 2581 3239 2228 
Q 2838 1875 2053 1875 
L 1259 1875 
L 1259 0 
L 628 0 
L 628 4666 
z
" transform="scale(0.015625)"/>
       <path id="DejaVuSans-6f" d="M 1959 3097 
Q 1497 3097 1228 2736 
Q 959 2375 959 1747 
Q 959 1119 1226 758 
Q 1494 397 1959 397 
Q 2419 397 2687 759 
Q 2956 1122 2956 1747 
Q 2956 2369 2687 2733 
Q 2419 3097 1959 3097 
z
M 1959 3584 
Q 2709 3584 3137 3096 
Q 3566 2609 3566 1747 
Q 3566 888 3137 398 
Q 2709 -91 1959 -91 
Q 1206 -91 779 398 
Q 353 888 353 1747 
Q 353 2609 779 3096 
Q 1206 3584 1959 3584 
z
" transform="scale(0.015625)"/>
       <path id="DejaVuSans-69" d="M 603 3500 
L 1178 3500 
L 1178 0 
L 603 0 
L 603 3500 
z
M 603 4863 
L 1178 4863 
L 1178 4134 
L 603 4134 
L 603 4863 
z
" transform="scale(0.015625)"/>
       <path id="DejaVuSans-74" d="M 1172 4494 
L 1172 3500 
L 2356 3500 
L 2356 3053 
L 1172 3053 
L 1172 1153 
Q 1172 725 1289 603 
Q 1406 481 1766 481 
L 2356 481 
L 2356 0 
L 1766 0 
Q 1100 0 847 248 
Q 594 497 594 1153 
L 594 3053 
L 172 3053 
L 172 3500 
L 594 3500 
L 594 4494 
L 1172 4494 
z
" transform="scale(0.015625)"/>
       <path id="DejaVuSans-76" d="M 191 3500 
L 800 3500 
L 1894 563 
L 2988 3500 
L 3597 3500 
L 2284 0 
L 1503 0 
L 191 3500 
z
" transform="scale(0.015625)"/>
       <path id="DejaVuSans-52" d="M 2841 2188 
Q 3044 2119 3236 1894 
Q 3428 1669 3622 1275 
L 4263 0 
L 3584 0 
L 2988 1197 
Q 2756 1666 2539 1819 
Q 2322 1972 1947 1972 
L 1259 1972 
L 1259 0 
L 628 0 
L 628 4666 
L 2053 4666 
Q 2853 4666 3247 4331 
Q 3641 3997 3641 3322 
Q 3641 2881 3436 2590 
Q 3231 2300 2841 2188 
z
M 1259 4147 
L 1259 2491 
L 2053 2491 
Q 2509 2491 2742 2702 
Q 2975 2913 2975 3322 
Q 2975 3731 2742 3939 
Q 2509 4147 2053 4147 
L 1259 4147 
z
" transform="scale(0.015625)"/>
      </defs>
      <use xlink:href="#DejaVuSans-46"/>
      <use xlink:href="#DejaVuSans-61" x="48.394531"/>
      <use xlink:href="#DejaVuSans-6c" x="109.673828"/>
      <use xlink:href="#DejaVuSans-73" x="137.457031"/>
      <use xlink:href="#DejaVuSans-65" x="189.556641"/>
      <use xlink:href="#DejaVuSans-20" x="251.080078"/>
      <use xlink:href="#DejaVuSans-50" x="282.867188"/>
      <use xlink:href="#DejaVuSans-6f" x="339.544922"/>
      <use xlink:href="#DejaVuSans-73" x="400.726562"/>
      <use xlink:href="#DejaVuSans-69" x="452.826172"/>
      <use xlink:href="#DejaVuSans-74" x="480.609375"/>
      <use xlink:href="#DejaVuSans-69" x="519.818359"/>
      <use xlink:href="#DejaVuSans-76" x="547.601562"/>
      <use xlink:href="#DejaVuSans-65" x="606.78125"/>
      <use xlink:href="#DejaVuSans-20" x="668.304688"/>
      <use xlink:href="#DejaVuSans-52" x="700.091797"/>
      <use xlink:href="#DejaVuSans-61" x="767.324219"/>
      <use xlink:href="#DejaVuSans-74" x="828.603516"/>
      <use xlink:href="#DejaVuSans-65" x="867.8125"/>
     </g>
    </g>
   </g>
   <g id="matplotlib.axis_2">
    <g id="ytick_1">
     <g id="line2d_7">
      <defs>
       <path id="m76ece73f6d" d="M 0 0 
L -3.5 0 
" style="stroke: #000000; stroke-width: 0.8"/>
      </defs>
      <g>
       <use xlink:href="#m76ece73f6d" x="57.6" y="307.584" style="stroke: #000000; stroke-width: 0.8"/>
      </g>
     </g>
     <g id="text_8">
      <!-- 0.0 -->
      <g transform="translate(34.696875 311.383219)scale(0.1 -0.1)">
       <use xlink:href="#DejaVuSans-30"/>
       <use xlink:href="#DejaVuSans-2e" x="63.623047"/>
       <use xlink:href="#DejaVuSans-30" x="95.410156"/>
      </g>
     </g>
    </g>
    <g id="ytick_2">
     <g id="line2d_8">
      <g>
       <use xlink:href="#m76ece73f6d" x="57.6" y="256.896" style="stroke: #000000; stroke-width: 0.8"/>
      </g>
     </g>
     <g id="text_9">
      <!-- 0.2 -->
      <g transform="translate(34.696875 260.695219)scale(0.1 -0.1)">
       <use xlink:href="#DejaVuSans-30"/>
       <use xlink:href="#DejaVuSans-2e" x="63.623047"/>
       <use xlink:href="#DejaVuSans-32" x="95.410156"/>
      </g>
     </g>
    </g>
    <g id="ytick_3">
     <g id="line2d_9">
      <g>
       <use xlink:href="#m76ece73f6d" x="57.6" y="206.208" style="stroke: #000000; stroke-width: 0.8"/>
      </g>
     </g>
     <g id="text_10">
      <!-- 0.4 -->
      <g transform="translate(34.696875 210.007219)scale(0.1 -0.1)">
       <use xlink:href="#DejaVuSans-30"/>
       <use xlink:href="#DejaVuSans-2e" x="63.623047"/>
       <use xlink:href="#DejaVuSans-34" x="95.410156"/>
      </g>
     </g>
    </g>
    <g id="ytick_4">
     <g id="line2d_10">
      <g>
       <use xlink:href="#m76ece73f6d" x="57.6" y="155.52" style="stroke: #000000; stroke-width: 0.8"/>
      </g>
     </g>
     <g id="text_11">
      <!-- 0.6 -->
      <g transform="translate(34.696875 159.319219)scale(0.1 -0.1)">
       <use xlink:href="#DejaVuSans-30"/>
       <use xlink:href="#DejaVuSans-2e" x="63.623047"/>
       <use xlink:href="#DejaVuSans-36" x="95.410156"/>
      </g>
     </g>
    </g>
    <g id="ytick_5">
     <g id="line2d_11">
      <g>
       <use xlink:href="#m76ece73f6d" x="57.6" y="104.832" style="stroke: #000000; stroke-width: 0.8"/>
      </g>
     </g>
     <g id="text_12">
      <!-- 0.8 -->
      <g transform="translate(34.696875 108.631219)scale(0.1 -0.1)">
       <use xlink:href="#DejaVuSans-30"/>
       <use xlink:href="#DejaVuSans-2e" x="63.623047"/>
       <use xlink:href="#DejaVuSans-38" x="95.410156"/>
      </g>
     </g>
    </g>
    <g id="ytick_6">
     <g id="line2d_12">
      <g>
       <use xlink:href="#m76ece73f6d" x="57.6" y="54.144" style="stroke: #000000; stroke-width: 0.8"/>
      </g>
     </g>
     <g id="text_13">
      <!-- 1.0 -->
      <g transform="translate(34.696875 57.943219)scale(0.1 -0.1)">
       <use xlink:href="#DejaVuSans-31"/>
       <use xlink:href="#DejaVuSans-2e" x="63.623047"/>
       <use xlink:href="#DejaVuSans-30" x="95.410156"/>
      </g>
     </g>
    </g>
    <g id="text_14">
     <!-- True Positive Rate -->
     <g transform="translate(28.617187 219.057687)rotate(-90)scale(0.1 -0.1)">
      <defs>
       <path id="DejaVuSans-54" d="M -19 4666 
L 3928 4666 
L 3928 4134 
L 2272 4134 
L 2272 0 
L 1638 0 
L 1638 4134 
L -19 4134 
L -19 4666 
z
" transform="scale(0.015625)"/>
       <path id="DejaVuSans-72" d="M 2631 2963 
Q 2534 3019 2420 3045 
Q 2306 3072 2169 3072 
Q 1681 3072 1420 2755 
Q 1159 2438 1159 1844 
L 1159 0 
L 581 0 
L 581 3500 
L 1159 3500 
L 1159 2956 
Q 1341 3275 1631 3429 
Q 1922 3584 2338 3584 
Q 2397 3584 2469 3576 
Q 2541 3569 2628 3553 
L 2631 2963 
z
" transform="scale(0.015625)"/>
       <path id="DejaVuSans-75" d="M 544 1381 
L 544 3500 
L 1119 3500 
L 1119 1403 
Q 1119 906 1312 657 
Q 1506 409 1894 409 
Q 2359 409 2629 706 
Q 2900 1003 2900 1516 
L 2900 3500 
L 3475 3500 
L 3475 0 
L 2900 0 
L 2900 538 
Q 2691 219 2414 64 
Q 2138 -91 1772 -91 
Q 1169 -91 856 284 
Q 544 659 544 1381 
z
M 1991 3584 
L 1991 3584 
z
" transform="scale(0.015625)"/>
      </defs>
      <use xlink:href="#DejaVuSans-54"/>
      <use xlink:href="#DejaVuSans-72" x="46.333984"/>
      <use xlink:href="#DejaVuSans-75" x="87.447266"/>
      <use xlink:href="#DejaVuSans-65" x="150.826172"/>
      <use xlink:href="#DejaVuSans-20" x="212.349609"/>
      <use xlink:href="#DejaVuSans-50" x="244.136719"/>
      <use xlink:href="#DejaVuSans-6f" x="300.814453"/>
      <use xlink:href="#DejaVuSans-73" x="361.996094"/>
      <use xlink:href="#DejaVuSans-69" x="414.095703"/>
      <use xlink:href="#DejaVuSans-74" x="441.878906"/>
      <use xlink:href="#DejaVuSans-69" x="481.087891"/>
      <use xlink:href="#DejaVuSans-76" x="508.871094"/>
      <use xlink:href="#DejaVuSans-65" x="568.050781"/>
      <use xlink:href="#DejaVuSans-20" x="629.574219"/>
      <use xlink:href="#DejaVuSans-52" x="661.361328"/>
      <use xlink:href="#DejaVuSans-61" x="728.59375"/>
      <use xlink:href="#DejaVuSans-74" x="789.873047"/>
      <use xlink:href="#DejaVuSans-65" x="829.082031"/>
     </g>
    </g>
   </g>
   <g id="line2d_13">
    <path d="M 74.605714 307.584 
L 74.716562 306.244866 
L 74.716811 306.244866 
L 74.728796 306.135168 
L 74.839353 305.232753 
L 74.839892 305.232753 
L 74.854324 305.123056 
L 74.965255 304.359314 
L 74.965379 304.359314 
L 74.98487 304.249617 
L 75.095883 303.512783 
L 75.111891 303.403085 
L 75.222199 302.717995 
L 75.222946 302.717995 
L 75.245878 302.608298 
L 75.356934 301.972882 
L 75.356975 301.972882 
L 75.376507 301.863184 
L 75.48694 301.233977 
L 75.487438 301.233977 
L 75.503238 301.12428 
L 75.613796 300.501282 
L 75.614335 300.501282 
L 75.629222 300.391585 
L 75.740153 299.803773 
L 75.740236 299.803773 
L 75.760017 299.694076 
L 75.870989 299.035893 
L 75.871114 299.035893 
L 75.889319 298.926195 
L 76.000415 298.328035 
L 76.022021 298.218338 
L 76.133076 297.479433 
L 76.133118 297.479433 
L 76.152484 297.369736 
L 76.262627 296.661878 
L 76.26327 296.661878 
L 76.288296 296.552181 
L 76.398854 295.902277 
L 76.399393 295.902277 
L 76.416976 295.792579 
L 76.525419 295.219256 
L 76.528031 295.219256 
L 76.546444 295.109559 
L 76.657292 294.517607 
L 76.657541 294.517607 
L 76.675331 294.40791 
L 76.786386 293.726959 
L 76.804757 293.617262 
L 76.915647 292.959078 
L 76.915833 292.959078 
L 76.934432 292.849381 
L 77.045405 292.162221 
L 77.045487 292.162221 
L 77.064439 292.052524 
L 77.175536 291.406759 
L 77.193243 291.297061 
L 77.30434 290.605762 
L 77.322047 290.496064 
L 77.431983 289.883415 
L 77.43302 289.883415 
L 77.454211 289.773718 
L 77.564893 289.161069 
L 77.565307 289.161069 
L 77.585752 289.051372 
L 77.695563 288.46563 
L 77.696848 288.46563 
L 77.715634 288.355933 
L 77.825321 287.724656 
L 77.826731 287.724656 
L 77.846885 287.614959 
L 77.957608 286.925729 
L 77.957982 286.925729 
L 77.976933 286.816032 
L 78.087823 286.159918 
L 78.08803 286.159918 
L 78.106567 286.050221 
L 78.217415 285.398246 
L 78.217622 285.398246 
L 78.236574 285.290619 
L 78.236574 285.288549 
L 78.34767 284.67383 
L 78.367824 284.564133 
L 78.478838 283.856275 
L 78.478921 283.856275 
L 78.497624 283.746578 
L 78.608679 283.092534 
L 78.624437 282.982837 
L 78.735327 282.316374 
L 78.735534 282.316374 
L 78.755191 282.206677 
L 78.86608 281.527796 
L 78.866246 281.527796 
L 78.888411 281.418098 
L 79.005915 280.774403 
L 79.029594 280.664706 
L 79.140691 280.017906 
L 79.157445 279.907174 
L 79.2685 279.232432 
L 79.268541 279.232432 
L 79.291723 279.122735 
L 79.402653 278.47904 
L 79.402819 278.47904 
L 79.42654 278.369342 
L 79.537388 277.688392 
L 79.537637 277.688392 
L 79.555095 277.578694 
L 79.665694 276.893604 
L 79.66615 276.893604 
L 79.682531 276.783907 
L 79.793379 276.158839 
L 79.793503 276.158839 
L 79.80951 276.049142 
L 79.92011 275.45926 
L 79.920607 275.45926 
L 79.936988 275.349563 
L 80.046902 274.712077 
L 80.048064 274.712077 
L 80.069151 274.60238 
L 80.18004 273.929708 
L 80.180247 273.929708 
L 80.298145 273.248757 
L 80.317719 273.13906 
L 80.427903 272.545039 
L 80.428774 272.545039 
L 80.445113 272.435342 
L 80.555961 271.783367 
L 80.556168 271.783367 
L 80.575576 271.67367 
L 80.686134 271.061021 
L 80.686673 271.061021 
L 80.707179 270.951324 
L 80.824932 270.280722 
L 80.842308 270.171024 
L 80.952844 269.550097 
L 80.953321 269.550097 
L 80.969702 269.440399 
L 81.080301 268.865006 
L 81.080591 268.865006 
L 81.097635 268.755309 
L 81.208504 268.076428 
L 81.208711 268.076428 
L 81.232038 267.96673 
L 81.342471 267.356151 
L 81.343134 267.356151 
L 81.359349 267.246454 
L 81.470031 266.608968 
L 81.470446 266.608968 
L 81.490475 266.499271 
L 81.601551 265.936296 
L 81.623178 265.828669 
L 81.623178 265.826599 
L 81.73386 265.228438 
L 81.734254 265.228438 
L 81.759239 265.118741 
L 81.870128 264.493674 
L 81.870294 264.493674 
L 81.888375 264.383976 
L 81.999264 263.694747 
L 81.999472 263.694747 
L 82.023151 263.585049 
L 82.147269 262.931005 
L 82.166428 262.821308 
L 82.277483 262.190031 
L 82.277524 262.190031 
L 82.293573 262.082404 
L 82.404504 261.473894 
L 82.40467 261.473894 
L 82.427125 261.364197 
L 82.544339 260.751548 
L 82.565343 260.641851 
L 82.679654 260.147178 
L 82.698398 260.038516 
L 82.698398 260.037481 
L 82.809495 259.474507 
L 82.833671 259.364809 
L 82.944727 258.750091 
L 82.965876 258.640393 
L 83.076931 257.976001 
L 83.076973 257.976001 
L 83.102518 257.866303 
L 83.213117 257.257794 
L 83.213532 257.257794 
L 83.236755 257.147062 
L 83.347478 256.537518 
L 83.347851 256.537518 
L 83.374558 256.42782 
L 83.485571 255.852427 
L 83.485654 255.852427 
L 83.505974 255.74273 
L 83.616491 255.177686 
L 83.61703 255.177686 
L 83.642077 255.067988 
L 83.753008 254.569176 
L 83.753174 254.569176 
L 83.777143 254.459479 
L 83.887825 253.867528 
L 83.88824 253.867528 
L 83.90545 253.75783 
L 84.026167 253.277646 
L 84.053537 253.167949 
L 84.16395 252.611184 
L 84.164634 252.611184 
L 84.184 252.501486 
L 84.294827 251.967488 
L 84.294952 251.967488 
L 84.319439 251.857791 
L 84.429624 251.284468 
L 84.430536 251.284468 
L 84.458155 251.173735 
L 84.569169 250.682168 
L 84.594548 250.57247 
L 84.705603 250.06124 
L 84.727872 249.951542 
L 84.838222 249.407196 
L 84.838969 249.407196 
L 84.86074 249.296463 
L 84.971837 248.788337 
L 84.99506 248.68071 
L 85.105618 248.103247 
L 85.106157 248.103247 
L 85.128094 247.99355 
L 85.238942 247.492668 
L 85.23917 247.492668 
L 85.267431 247.382971 
L 85.378031 246.886228 
L 85.378528 246.886228 
L 85.407184 246.776531 
L 85.518197 246.261161 
L 85.518239 246.261161 
L 85.544323 246.151464 
L 85.654881 245.679558 
L 85.65542 245.679558 
L 85.680924 245.569861 
L 85.791896 245.035863 
L 85.791979 245.035863 
L 85.819577 244.926166 
L 85.935753 244.414935 
L 85.958893 244.305238 
L 86.069866 243.8561 
L 86.06999 243.8561 
L 86.095784 243.745368 
L 86.206798 243.245521 
L 86.206881 243.245521 
L 86.229482 243.135824 
L 86.339956 242.699105 
L 86.340537 242.699105 
L 86.364631 242.591477 
L 86.364631 242.589407 
L 86.474463 242.096805 
L 86.475727 242.096805 
L 86.505461 241.987107 
L 86.505461 241.986072 
L 86.640859 241.380668 
L 86.66742 241.27097 
L 86.783493 240.774228 
L 86.809183 240.664531 
L 86.919907 240.192626 
L 86.920197 240.192626 
L 86.946779 240.084998 
L 87.057482 239.654488 
L 87.057814 239.654488 
L 87.086075 239.544791 
L 87.197089 239.050118 
L 87.225537 238.939386 
L 87.336322 238.437469 
L 87.336592 238.437469 
L 87.364708 238.326737 
L 87.475764 237.905541 
L 87.495835 237.795844 
L 87.606309 237.307381 
L 87.606828 237.307381 
L 87.63455 237.198718 
L 87.63455 237.197683 
L 87.75025 236.731987 
L 87.772395 236.62229 
L 87.882994 236.160734 
L 87.883429 236.160734 
L 87.911131 236.050002 
L 88.021626 235.630875 
L 88.022186 235.630875 
L 88.044745 235.520143 
L 88.163825 235.121714 
L 88.187794 235.012017 
L 88.298725 234.564949 
L 88.29887 234.564949 
L 88.32199 234.455252 
L 88.432381 234.03716 
L 88.433086 234.03716 
L 88.465557 233.927463 
L 88.576529 233.499023 
L 88.576571 233.499023 
L 88.60817 233.389326 
L 88.729842 232.861537 
L 88.758829 232.75184 
L 88.869511 232.333748 
L 88.869884 232.333748 
L 88.900447 232.223016 
L 89.010839 231.787332 
L 89.011544 231.787332 
L 89.044927 231.677634 
L 89.154904 231.216078 
L 89.155982 231.216078 
L 89.189323 231.105346 
L 89.300213 230.646894 
L 89.30042 230.646894 
L 89.33343 230.537197 
L 89.444361 230.088059 
L 89.444527 230.088059 
L 89.474758 229.977327 
L 89.58573 229.578898 
L 89.585813 229.578898 
L 89.616127 229.469201 
L 89.730749 229.113202 
L 89.762431 229.003505 
L 89.873217 228.599902 
L 89.873487 228.599902 
L 89.909275 228.490205 
L 90.018464 228.084532 
L 90.020309 228.084532 
L 90.047244 227.976904 
L 90.047244 227.974834 
L 90.158092 227.556743 
L 90.158299 227.556743 
L 90.19529 227.447046 
L 90.304479 226.97928 
L 90.306262 226.97928 
L 90.344538 226.868548 
L 90.521986 226.211399 
L 90.55425 226.102737 
L 90.55425 226.101702 
L 90.674013 225.669122 
L 90.713409 225.559425 
L 90.822847 225.093729 
L 90.824485 225.093729 
L 90.853161 224.984032 
L 90.963263 224.590777 
L 90.964237 224.590777 
L 91.000378 224.48108 
L 91.11106 224.091965 
L 91.111475 224.091965 
L 91.139881 223.982268 
L 91.250646 223.615921 
L 91.250957 223.615921 
L 91.27955 223.506223 
L 91.390523 223.125388 
L 91.390564 223.125388 
L 91.422599 223.01569 
L 91.533427 222.616227 
L 91.533655 222.616227 
L 91.55864 222.506529 
L 91.669177 222.109136 
L 91.669737 222.109136 
L 91.698973 221.999438 
L 91.809738 221.649649 
L 91.810069 221.649649 
L 91.842664 221.539952 
L 91.952662 221.128069 
L 91.953678 221.128069 
L 91.988388 221.018372 
L 92.096022 220.69135 
L 92.099423 220.69135 
L 92.12814 220.581653 
L 92.238822 220.17805 
L 92.239216 220.17805 
L 92.273574 220.070422 
L 92.273574 220.067318 
L 92.392881 219.65854 
L 92.418426 219.550913 
L 92.529523 219.157658 
L 92.558096 219.047961 
L 92.558096 219.046926 
L 92.697516 218.578126 
L 92.736663 218.468428 
L 92.854955 218.10829 
L 92.885124 217.998593 
L 92.996221 217.615687 
L 93.033315 217.50599 
L 93.143437 217.104457 
L 93.14437 217.104457 
L 93.183497 216.994759 
L 93.293681 216.576668 
L 93.294593 216.576668 
L 93.413984 216.162716 
L 93.446807 216.051984 
L 93.574865 215.630788 
L 93.607107 215.521091 
L 93.717727 215.136115 
L 93.71808 215.136115 
L 93.749265 215.028488 
L 93.749265 215.026418 
L 93.859905 214.647652 
L 93.860361 214.647652 
L 93.896979 214.537955 
L 94.006624 214.194375 
L 94.008076 214.194375 
L 94.04517 214.084677 
L 94.159937 213.71626 
L 94.196223 213.606563 
L 94.307319 213.234006 
L 94.336058 213.124309 
L 94.336058 213.123274 
L 94.462042 212.753822 
L 94.502723 212.644125 
L 94.613074 212.290196 
L 94.61382 212.290196 
L 94.645026 212.180498 
L 94.759772 211.816221 
L 94.798691 211.706523 
L 94.913582 211.327757 
L 94.943295 211.21806 
L 95.071602 210.78962 
L 95.110707 210.679923 
L 95.221348 210.394296 
L 95.221804 210.394296 
L 95.259458 210.284599 
L 95.378268 209.899623 
L 95.413061 209.789926 
L 95.523494 209.423579 
L 95.524116 209.423579 
L 95.562476 209.313881 
L 95.673448 208.953743 
L 95.67351 208.953743 
L 95.712097 208.844046 
L 95.822157 208.55014 
L 95.823194 208.55014 
L 95.858899 208.440443 
L 95.977336 208.074095 
L 96.009309 207.963363 
L 96.118374 207.699469 
L 96.120385 207.699469 
L 96.164737 207.589772 
L 96.164737 207.588737 
L 96.283837 207.186168 
L 96.3302 207.075436 
L 96.455687 206.718403 
L 96.504289 206.608705 
L 96.61466 206.316869 
L 96.615385 206.316869 
L 96.657643 206.207172 
L 96.768657 205.865662 
L 96.76874 205.865662 
L 96.809172 205.75493 
L 96.918735 205.445501 
L 96.920269 205.445501 
L 96.96178 205.335803 
L 97.07269 205.025339 
L 97.072856 205.025339 
L 97.108167 204.915642 
L 97.2186 204.576201 
L 97.219139 204.576201 
L 97.26318 204.466504 
L 97.26318 204.465469 
L 97.381617 204.100157 
L 97.426798 203.99046 
L 97.544695 203.651019 
L 97.581354 203.541322 
L 97.702798 203.195672 
L 97.73701 203.085975 
L 97.847899 202.800348 
L 97.848107 202.800348 
L 97.891277 202.69065 
L 97.999636 202.345001 
L 98.002332 202.345001 
L 98.054252 202.235303 
L 98.165058 201.895863 
L 98.165307 201.895863 
L 98.208767 201.786165 
L 98.319863 201.481911 
L 98.367553 201.372214 
L 98.47865 201.046226 
L 98.603805 200.697472 
L 98.639883 200.58674 
L 98.750296 200.310427 
L 98.750897 200.310427 
L 98.794046 200.20073 
L 98.908502 199.865429 
L 98.942984 199.755731 
L 99.05238 199.50736 
L 99.053915 199.50736 
L 99.090905 199.396628 
L 99.201297 199.130664 
L 99.202002 199.130664 
L 99.239822 199.019932 
L 99.371799 198.675317 
L 99.412107 198.565619 
L 99.526044 198.282062 
L 99.57701 198.172365 
L 99.686614 197.832925 
L 99.688107 197.832925 
L 99.721034 197.725297 
L 99.721034 197.723227 
L 99.832131 197.452089 
L 99.867006 197.342391 
L 99.977232 197.118857 
L 99.978082 197.118857 
L 100.01074 197.00916 
L 100.124801 196.709045 
L 100.159781 196.599348 
L 100.269053 196.286814 
L 100.270878 196.286814 
L 100.31637 196.177117 
L 100.433666 195.868723 
L 100.476836 195.759025 
L 100.59069 195.481678 
L 100.635954 195.37198 
L 100.749788 195.098772 
L 100.801728 194.98804 
L 100.925017 194.68482 
L 100.967689 194.577193 
L 101.078412 194.270868 
L 101.078765 194.270868 
L 101.126185 194.161171 
L 101.236432 193.869335 
L 101.237261 193.869335 
L 101.283438 193.759638 
L 101.402911 193.48229 
L 101.45002 193.372592 
L 101.45002 193.371558 
L 101.559707 193.093175 
L 101.561096 193.093175 
L 101.612788 192.983478 
L 101.723304 192.710269 
L 101.723864 192.710269 
L 101.779786 192.600572 
L 101.893288 192.35634 
L 101.934135 192.245608 
L 102.04434 191.973435 
L 102.045211 191.973435 
L 102.090102 191.863738 
L 102.20041 191.613297 
L 102.201178 191.613297 
L 102.254404 191.502565 
L 102.364339 191.259368 
L 102.3655 191.259368 
L 102.421982 191.149671 
L 102.531751 190.932346 
L 102.533058 190.932346 
L 102.588026 190.821614 
L 102.699081 190.589801 
L 102.699122 190.589801 
L 102.82747 190.305209 
L 102.886564 190.196546 
L 102.886564 190.195511 
L 102.996832 189.897466 
L 102.997619 189.897466 
L 103.045351 189.786734 
L 103.174715 189.485584 
L 103.218196 189.375887 
L 103.328878 189.135794 
L 103.329209 189.135794 
L 103.37269 189.026097 
L 103.486544 188.750819 
L 103.5344 188.640087 
L 103.644253 188.394821 
L 103.645455 188.394821 
L 103.69638 188.285123 
L 103.69638 188.284088 
L 103.8341 187.956031 
L 103.878929 187.848404 
L 103.988159 187.595893 
L 103.990025 187.595893 
L 104.034895 187.486196 
L 104.14537 187.212988 
L 104.145971 187.212988 
L 104.185139 187.102256 
L 104.293603 186.823873 
L 104.296236 186.823873 
L 104.340359 186.714176 
L 104.448885 186.457525 
L 104.451435 186.457525 
L 104.516853 186.347828 
L 104.630604 186.078759 
L 104.674043 185.969062 
L 104.787566 185.724831 
L 104.838615 185.614098 
L 104.949214 185.335716 
L 104.949712 185.335716 
L 105.002461 185.226018 
L 105.112562 184.959019 
L 105.113516 184.959019 
L 105.16668 184.851392 
L 105.277341 184.605091 
L 105.277777 184.605091 
L 105.330318 184.495393 
L 105.436812 184.259441 
L 105.441332 184.259441 
L 105.492568 184.149743 
L 105.606547 183.862047 
L 105.665724 183.75235 
L 105.776613 183.530885 
L 105.77682 183.530885 
L 105.829404 183.421188 
L 105.944937 183.197654 
L 106.000009 183.087957 
L 106.113573 182.839586 
L 106.171112 182.729888 
L 106.281421 182.452541 
L 106.282167 182.452541 
L 106.346279 182.342843 
L 106.45609 182.125519 
L 106.457376 182.125519 
L 106.522192 182.014786 
L 106.644196 181.744683 
L 106.691844 181.634985 
L 106.802485 181.413521 
L 106.802941 181.413521 
L 106.85401 181.302789 
L 106.970291 181.043034 
L 107.021982 180.933337 
L 107.132602 180.705663 
L 107.133079 180.705663 
L 107.17401 180.595966 
L 107.283779 180.364153 
L 107.285106 180.364153 
L 107.333957 180.254456 
L 107.455629 179.991596 
L 107.51464 179.883969 
L 107.51464 179.880864 
L 107.639691 179.652156 
L 107.686862 179.542458 
L 107.797793 179.304436 
L 107.858712 179.194739 
L 107.969352 178.975344 
L 107.969767 178.975344 
L 108.037736 178.865647 
L 108.148252 178.646253 
L 108.148832 178.646253 
L 108.203821 178.536555 
L 108.31923 178.3213 
L 108.375878 178.211603 
L 108.496305 177.97772 
L 108.565683 177.868023 
L 108.680471 177.683814 
L 108.731686 177.574117 
L 108.731686 177.573082 
L 108.851512 177.356792 
L 108.902975 177.247095 
L 109.010692 177.023561 
L 109.014051 177.023561 
L 109.076712 176.913864 
L 109.076712 176.912829 
L 109.197637 176.669632 
L 109.250718 176.559935 
L 109.361731 176.390215 
L 109.361752 176.390215 
L 109.402371 176.280517 
L 109.402371 176.279482 
L 109.522094 176.065262 
L 109.5742 175.955565 
L 109.695312 175.707194 
L 109.741198 175.596462 
L 109.861127 175.378102 
L 109.912695 175.268405 
L 109.912695 175.26737 
L 110.029099 175.003476 
L 110.083217 174.893778 
L 110.083217 174.892743 
L 110.203976 174.653686 
L 110.256228 174.542954 
L 110.380512 174.326664 
L 110.431581 174.216967 
L 110.431581 174.215932 
L 110.546929 174.001712 
L 110.59522 173.89098 
L 110.711148 173.649853 
L 110.772398 173.539121 
L 110.88337 173.32904 
L 110.883474 173.32904 
L 110.964194 173.219343 
L 111.079728 172.995809 
L 111.13227 172.886111 
L 111.242994 172.668787 
L 111.243346 172.668787 
L 111.314487 172.559089 
L 111.425439 172.364532 
L 111.425584 172.364532 
L 111.483931 172.254835 
L 111.594199 172.03337 
L 111.595028 172.03337 
L 111.664489 171.922638 
L 111.774425 171.69393 
L 111.775586 171.69393 
L 111.835198 171.584233 
L 111.952785 171.368978 
L 112.010594 171.25928 
L 112.121317 171.048165 
L 112.121628 171.048165 
L 112.195174 170.937433 
L 112.30569 170.723213 
L 112.30625 170.723213 
L 112.35056 170.613515 
L 112.463938 170.381702 
L 112.523115 170.27097 
L 112.633382 170.083657 
L 112.634211 170.083657 
L 112.711096 169.97396 
L 112.821861 169.725588 
L 112.822192 169.725588 
L 112.892898 169.615891 
L 113.003165 169.462729 
L 113.003995 169.462729 
L 113.072502 169.353032 
L 113.182272 169.175032 
L 113.183599 169.175032 
L 113.245223 169.065335 
L 113.360259 168.866638 
L 113.423313 168.756941 
L 113.541605 168.518919 
L 113.609055 168.408186 
L 113.727512 168.222943 
L 113.790194 168.113246 
L 113.790194 168.112211 
L 113.910268 167.889712 
L 113.9755 167.778979 
L 114.086472 167.573038 
L 114.086597 167.573038 
L 114.162382 167.463341 
L 114.274619 167.345365 
L 114.347585 167.234633 
L 114.457188 167.063878 
L 114.45864 167.063878 
L 114.514416 166.95418 
L 114.631526 166.755483 
L 114.689272 166.645786 
L 114.796512 166.44295 
L 114.800369 166.44295 
L 114.869416 166.333252 
L 114.979434 166.157323 
L 114.980471 166.157323 
L 115.031395 166.047626 
L 115.142326 165.863417 
L 115.142492 165.863417 
L 115.201918 165.75372 
L 115.312475 165.594348 
L 115.312932 165.594348 
L 115.374016 165.484651 
L 115.48897 165.292163 
L 115.553144 165.182466 
L 115.668035 164.992048 
L 115.741892 164.881316 
L 115.852325 164.685724 
L 115.852989 164.685724 
L 115.910693 164.574992 
L 116.02575 164.37526 
L 116.085591 164.265562 
L 116.195402 164.102051 
L 116.196646 164.102051 
L 116.276288 163.991319 
L 116.391076 163.804006 
L 116.471464 163.693274 
L 116.590793 163.489403 
L 116.636139 163.37867 
L 116.744976 163.176869 
L 116.747215 163.176869 
L 116.810104 163.066137 
L 116.919334 162.895382 
L 116.921159 162.895382 
L 116.997027 162.785684 
L 117.106403 162.601476 
L 117.108103 162.601476 
L 117.16869 162.491778 
L 117.283229 162.319988 
L 117.366044 162.210291 
L 117.474383 162.003315 
L 117.47714 162.003315 
L 117.593213 161.839804 
L 117.683948 161.730107 
L 117.803692 161.514852 
L 117.858825 161.405155 
L 117.967848 161.254062 
L 117.969922 161.254062 
L 118.036916 161.144365 
L 118.146997 160.966366 
L 118.147992 160.966366 
L 118.214633 160.856668 
L 118.214633 160.855633 
L 118.334065 160.649692 
L 118.409208 160.539995 
L 118.409208 160.53896 
L 118.527686 160.355786 
L 118.590761 160.246089 
L 118.705839 160.045323 
L 118.777789 159.935625 
L 118.888719 159.755556 
L 118.888885 159.755556 
L 118.950156 159.644824 
L 119.064198 159.498906 
L 119.140646 159.388174 
L 119.249214 159.238116 
L 119.251681 159.238116 
L 119.330597 159.127384 
L 119.446422 158.971117 
L 119.517148 158.86142 
L 119.517148 158.860385 
L 119.63575 158.675142 
L 119.719933 158.564409 
L 119.830367 158.408143 
L 119.830989 158.408143 
L 119.907251 158.298445 
L 120.018327 158.147353 
L 120.018348 158.147353 
L 120.074124 158.037656 
L 120.187025 157.853447 
L 120.268823 157.74375 
L 120.381371 157.598867 
L 120.457696 157.489169 
L 120.568482 157.323589 
L 120.568772 157.323589 
L 120.642463 157.212856 
L 120.752585 157.05038 
L 120.753539 157.05038 
L 120.820616 156.940683 
L 120.928499 156.810288 
L 120.931651 156.810288 
L 121.015896 156.700591 
L 121.130725 156.514313 
L 121.226187 156.404615 
L 121.340249 156.255593 
L 121.40969 156.145895 
L 121.40969 156.14486 
L 121.531133 155.976175 
L 121.62135 155.865443 
L 121.731991 155.698827 
L 121.732447 155.698827 
L 121.821627 155.58913 
L 121.93432 155.425619 
L 121.996607 155.315922 
L 121.996607 155.314887 
L 122.115542 155.119295 
L 122.185086 155.009597 
L 122.301366 154.837807 
L 122.397327 154.72811 
L 122.397327 154.727075 
L 122.516178 154.531483 
L 122.580083 154.421786 
L 122.692693 154.268623 
L 122.764663 154.158926 
L 122.875013 154.005764 
L 122.87576 154.005764 
L 122.967615 153.896067 
L 123.078566 153.78016 
L 123.07867 153.78016 
L 123.140128 153.669428 
L 123.265096 153.500742 
L 123.347682 153.391045 
L 123.457079 153.235813 
L 123.458779 153.235813 
L 123.540142 153.126116 
L 123.652711 152.975024 
L 123.770878 152.865326 
L 123.880855 152.691466 
L 123.881975 152.691466 
L 123.976152 152.580734 
L 124.083641 152.447235 
L 124.087166 152.447235 
L 124.214975 152.285794 
L 124.294513 152.176096 
L 124.406916 152.043632 
L 124.504639 151.9329 
L 124.614264 151.758005 
L 124.615736 151.758005 
L 124.684803 151.647273 
L 124.801768 151.501355 
L 124.867103 151.391657 
L 124.977391 151.248844 
L 124.978055 151.248844 
L 125.061616 151.138112 
L 125.171717 151.031519 
L 125.172629 151.031519 
L 125.246901 150.921822 
L 125.246901 150.920787 
L 125.364343 150.76452 
L 125.446618 150.654823 
L 125.562608 150.491312 
L 125.651436 150.381615 
L 125.769956 150.197406 
L 125.874251 150.087709 
L 125.983855 149.951105 
L 125.985327 149.951105 
L 126.047055 149.841407 
L 126.157322 149.671687 
L 126.158068 149.671687 
L 126.262198 149.56199 
L 126.36442 149.419176 
L 126.373295 149.419176 
L 126.449557 149.309479 
L 126.563329 149.177015 
L 126.65848 149.067317 
L 126.775632 148.866551 
L 126.848825 148.756853 
L 126.958802 148.61197 
L 126.959922 148.61197 
L 127.049081 148.501238 
L 127.164843 148.386366 
L 127.261364 148.276669 
L 127.376006 148.10074 
L 127.4605 147.990007 
L 127.570415 147.833741 
L 127.571597 147.833741 
L 127.662332 147.724043 
L 127.773055 147.587439 
L 127.773346 147.587439 
L 127.866362 147.476707 
L 127.976733 147.32044 
L 127.977458 147.32044 
L 128.062097 147.210743 
L 128.172282 147.057581 
L 128.173111 147.057581 
L 128.268221 146.947883 
L 128.380707 146.803 
L 128.472106 146.693303 
L 128.580258 146.515304 
L 128.583203 146.515304 
L 128.655588 146.405606 
L 128.771391 146.248305 
L 128.871063 146.138607 
L 128.983715 145.981306 
L 129.070967 145.871608 
L 129.188781 145.706028 
L 129.278978 145.59633 
L 129.389452 145.484563 
L 129.390074 145.484563 
L 129.464802 145.376936 
L 129.464802 145.373831 
L 129.578014 145.263099 
L 129.666613 145.153402 
L 129.775927 145.025077 
L 129.777669 145.025077 
L 129.87593 144.915379 
L 129.985762 144.770496 
L 129.987006 144.770496 
L 130.073533 144.660799 
L 130.184049 144.551102 
L 130.184629 144.551102 
L 130.28314 144.441404 
L 130.395771 144.288242 
L 130.504317 144.178545 
L 130.612511 144.041941 
L 130.615414 144.041941 
L 130.710794 143.932244 
L 130.821476 143.781151 
L 130.821891 143.781151 
L 130.912626 143.670419 
L 131.02252 143.522431 
L 131.023722 143.522431 
L 131.127811 143.412734 
L 131.233392 143.323734 
L 131.238887 143.323734 
L 131.348719 143.214037 
L 131.459691 143.079503 
L 131.459815 143.079503 
L 131.541261 142.96877 
L 131.650699 142.84148 
L 131.652358 142.84148 
L 131.746991 142.731783 
L 131.856885 142.605528 
L 131.858088 142.605528 
L 131.940322 142.49583 
L 132.048723 142.379924 
L 132.051419 142.379924 
L 132.141449 142.270227 
L 132.251426 142.15225 
L 132.252525 142.15225 
L 132.354104 142.042553 
L 132.464247 141.916298 
L 132.465201 141.916298 
L 132.555314 141.8066 
L 132.669459 141.653438 
L 132.772594 141.543741 
L 132.772594 141.542706 
L 132.886324 141.411276 
L 132.987633 141.301579 
L 133.100866 141.196021 
L 133.203524 141.086324 
L 133.31462 140.970418 
L 133.424183 140.86072 
L 133.535279 140.734465 
L 133.637128 140.624768 
L 133.753326 140.498512 
L 133.845823 140.388815 
L 133.958102 140.270839 
L 134.066773 140.161142 
L 134.180192 140.045235 
L 134.284923 139.935538 
L 134.392743 139.803073 
L 134.39602 139.803073 
L 134.505229 139.693376 
L 134.617715 139.552632 
L 134.725246 139.442935 
L 134.725246 139.4419 
L 134.84107 139.324959 
L 134.971035 139.215261 
L 135.081696 139.062099 
L 135.082132 139.062099 
L 135.177263 138.952402 
L 135.288277 138.811658 
L 135.28836 138.811658 
L 135.385896 138.700926 
L 135.501907 138.579845 
L 135.611821 138.469113 
L 135.718128 138.345962 
L 135.722918 138.345962 
L 135.859187 138.23523 
L 135.967339 138.114149 
L 135.970283 138.114149 
L 136.05484 138.004452 
L 136.16718 137.878197 
L 136.242116 137.768499 
L 136.350019 137.640174 
L 136.353213 137.640174 
L 136.44457 137.529442 
L 136.552515 137.41871 
L 136.555625 137.41871 
L 136.673398 137.309013 
L 136.780431 137.205525 
L 136.784495 137.205525 
L 136.891113 137.095827 
L 137.003516 136.965433 
L 137.101197 136.8547 
L 137.210013 136.73362 
L 137.212294 136.73362 
L 137.322188 136.623922 
L 137.435856 136.495597 
L 137.538037 136.3859 
L 137.646687 136.234807 
L 137.649133 136.234807 
L 137.765455 136.12511 
L 137.765455 136.124075 
L 137.884804 135.986436 
L 137.990033 135.876739 
L 138.102519 135.733926 
L 138.203829 135.624228 
L 138.203829 135.623193 
L 138.317476 135.495903 
L 138.413042 135.386206 
L 138.526627 135.259951 
L 138.67965 135.150253 
L 138.789585 135.038486 
L 138.790726 135.038486 
L 138.893611 134.927754 
L 139.00701 134.812883 
L 139.095298 134.703185 
L 139.205317 134.583139 
L 139.206353 134.583139 
L 139.320332 134.473442 
L 139.432528 134.363745 
L 139.541966 134.254047 
L 139.541966 134.253013 
L 139.657209 134.14849 
L 139.760344 134.038792 
L 139.869906 133.949793 
L 139.871441 133.949793 
L 139.998628 133.840096 
L 140.106407 133.722119 
L 140.109724 133.722119 
L 140.219411 133.612422 
L 140.328953 133.496515 
L 140.330508 133.496515 
L 140.44119 133.386818 
L 140.550462 133.28333 
L 140.552286 133.28333 
L 140.689924 133.173633 
L 140.800647 133.072215 
L 140.80102 133.072215 
L 140.902475 132.961483 
L 141.021638 132.830053 
L 141.130703 132.720356 
L 141.23985 132.625147 
L 141.241799 132.625147 
L 141.33722 132.515449 
L 141.45037 132.411961 
L 141.567832 132.302264 
L 141.682412 132.188427 
L 141.82459 132.077695 
L 141.937844 131.971103 
L 142.047178 131.861405 
L 142.15475 131.743429 
L 142.158274 131.743429 
L 142.271693 131.633732 
L 142.38082 131.495058 
L 142.38279 131.495058 
L 142.494426 131.384326 
L 142.614231 131.279803 
L 142.719191 131.170106 
L 142.827612 131.05006 
L 142.830266 131.05006 
L 142.928985 130.940362 
L 143.037676 130.845153 
L 143.039998 130.845153 
L 143.145393 130.735456 
L 143.145393 130.734421 
L 143.258314 130.644387 
L 143.381292 130.534689 
L 143.494234 130.44362 
L 143.622976 130.333923 
L 143.732829 130.228365 
L 143.734073 130.228365 
L 143.858025 130.118668 
L 143.968334 130.040017 
L 143.96908 130.040017 
L 144.094857 129.93032 
L 144.205705 129.822692 
L 144.205954 129.822692 
L 144.351802 129.712995 
L 144.351802 129.71196 
L 144.465304 129.592949 
L 144.589629 129.483251 
L 144.694278 129.379763 
L 144.700685 129.379763 
L 144.832703 129.270066 
L 144.94467 129.183136 
L 145.080835 129.072404 
L 145.18426 128.994788 
L 145.191932 128.994788 
L 145.314951 128.884056 
L 145.428142 128.779533 
L 145.577639 128.668801 
L 145.693464 128.55186 
L 145.808749 128.442162 
L 145.920633 128.357302 
L 146.085972 128.24657 
L 146.191802 128.156536 
L 146.197069 128.156536 
L 146.309244 128.046838 
L 146.422393 127.94542 
L 146.563825 127.835723 
L 146.67235 127.744653 
L 146.674922 127.744653 
L 146.794022 127.634956 
L 146.906736 127.554235 
L 147.010451 127.444538 
L 147.110144 127.357608 
L 147.121548 127.357608 
L 147.294268 127.247911 
L 147.406256 127.158911 
L 147.53419 127.048179 
L 147.643607 126.960214 
L 147.645266 126.960214 
L 147.790118 126.850517 
L 147.897027 126.773936 
L 147.901215 126.773936 
L 148.031885 126.666309 
L 148.031885 126.664239 
L 148.145139 126.556611 
L 148.279624 126.446914 
L 148.389767 126.345496 
L 148.3907 126.345496 
L 148.534226 126.235799 
L 148.6492 126.107473 
L 148.78634 125.996741 
L 148.896234 125.904637 
L 148.897436 125.904637 
L 149.052242 125.79494 
L 149.164997 125.712149 
L 149.290733 125.601417 
L 149.399258 125.523801 
L 149.401809 125.523801 
L 149.517695 125.414104 
L 149.624811 125.308546 
L 149.628792 125.308546 
L 149.743268 125.197814 
L 149.853805 125.097431 
L 149.854344 125.097431 
L 149.995672 124.987733 
L 150.105856 124.902873 
L 150.106769 124.902873 
L 150.257759 124.793176 
L 150.366865 124.685549 
L 150.368856 124.685549 
L 150.483706 124.575851 
L 150.595984 124.513759 
L 150.713426 124.404061 
L 150.820562 124.323341 
L 150.824481 124.323341 
L 150.975139 124.213643 
L 151.079933 124.137062 
L 151.086112 124.137062 
L 151.229555 124.027365 
L 151.34372 123.925947 
L 151.481316 123.81625 
L 151.594548 123.710692 
L 151.761732 123.600995 
L 151.761732 123.59996 
L 151.876561 123.507855 
L 152.015484 123.398158 
L 152.126456 123.284321 
L 152.126539 123.284321 
L 152.292873 123.174624 
L 152.40256 123.079415 
L 152.40397 123.079415 
L 152.550357 122.968683 
L 152.661288 122.884858 
L 152.661454 122.884858 
L 152.792145 122.77516 
L 152.904009 122.69237 
L 153.062505 122.581638 
L 153.182435 122.475045 
L 153.310119 122.365348 
L 153.420843 122.278418 
L 153.421195 122.278418 
L 153.559226 122.168721 
L 153.669369 122.088 
L 153.670282 122.088 
L 153.804435 121.978303 
L 153.909519 121.891373 
L 153.915532 121.891373 
L 154.083152 121.781676 
L 154.189023 121.696816 
L 154.194248 121.696816 
L 154.315878 121.587118 
L 154.427721 121.510537 
L 154.576597 121.399805 
L 154.688233 121.31391 
L 154.821433 121.204213 
L 154.924609 121.111074 
L 154.932467 121.111074 
L 155.070291 121.001376 
L 155.174338 120.912377 
L 155.181388 120.912377 
L 155.375091 120.802679 
L 155.486022 120.688843 
L 155.486147 120.688843 
L 155.661977 120.578111 
L 155.769259 120.504634 
L 155.773032 120.504634 
L 155.916019 120.394937 
L 156.025416 120.28524 
L 156.027033 120.28524 
L 156.170642 120.175542 
L 156.276472 120.10931 
L 156.281718 120.10931 
L 156.462462 119.998578 
L 156.573269 119.920962 
L 156.573518 119.920962 
L 156.711984 119.811265 
L 156.821671 119.738823 
L 156.823039 119.738823 
L 156.958935 119.629126 
L 157.063894 119.535987 
L 157.06999 119.535987 
L 157.195767 119.426289 
L 157.308709 119.33522 
L 157.461897 119.225523 
L 157.573761 119.138593 
L 157.726286 119.028895 
L 157.840742 118.946105 
L 157.987709 118.836408 
L 158.099801 118.73499 
L 158.255519 118.625292 
L 158.366574 118.548711 
L 158.508151 118.439014 
L 158.508151 118.437979 
L 158.620616 118.368642 
L 158.772478 118.258945 
L 158.881293 118.176154 
L 158.883533 118.176154 
L 159.062805 118.066457 
L 159.175395 117.989876 
L 159.343823 117.880179 
L 159.458548 117.791179 
L 159.598715 117.681482 
L 159.598715 117.680447 
L 159.713254 117.596622 
L 159.869428 117.486924 
L 159.982059 117.410343 
L 160.134501 117.300646 
L 160.242695 117.215786 
L 160.245577 117.215786 
L 160.394183 117.106089 
L 160.504533 117.035717 
L 160.505279 117.035717 
L 160.65233 116.924985 
L 160.761104 116.843229 
L 160.763406 116.843229 
L 160.943612 116.733532 
L 161.044652 116.652811 
L 161.054688 116.652811 
L 161.238916 116.543114 
L 161.336908 116.481021 
L 161.350012 116.481021 
L 161.526921 116.370289 
L 161.641045 116.296813 
L 161.78878 116.187115 
L 161.78878 116.186081 
L 161.901639 116.098116 
L 162.012342 115.988418 
L 162.124372 115.895279 
L 162.246582 115.785582 
L 162.246582 115.784547 
L 162.361867 115.682094 
L 162.527165 115.572397 
L 162.633617 115.493746 
L 162.638261 115.493746 
L 162.781082 115.384049 
L 162.886995 115.292979 
L 162.892158 115.292979 
L 163.043605 115.183282 
L 163.15551 115.098422 
L 163.311974 114.988725 
L 163.422221 114.910074 
L 163.423009 114.910074 
L 163.566763 114.800376 
L 163.674376 114.715516 
L 163.677818 114.715516 
L 163.828684 114.604784 
L 163.939076 114.520959 
L 163.939781 114.520959 
L 164.098153 114.411262 
L 164.204936 114.345029 
L 164.209125 114.345029 
L 164.379585 114.235332 
L 164.491449 114.156681 
L 164.633731 114.046984 
L 164.745823 113.943496 
L 164.874917 113.833799 
L 164.987673 113.748939 
L 165.162508 113.639241 
L 165.267903 113.56473 
L 165.273605 113.56473 
L 165.458144 113.455033 
L 165.568038 113.374312 
L 165.56922 113.374312 
L 165.772441 113.264615 
L 165.880925 113.171476 
L 165.883496 113.171476 
L 166.049042 113.061778 
L 166.157112 112.995546 
L 166.160139 112.995546 
L 166.282515 112.885849 
L 166.396266 112.798919 
L 166.564839 112.688187 
L 166.679129 112.610571 
L 166.832317 112.500873 
L 166.937152 112.426362 
L 166.943414 112.426362 
L 167.120903 112.31563 
L 167.236064 112.215247 
L 167.42052 112.105549 
L 167.525065 112.047596 
L 167.531576 112.047596 
L 167.705582 111.937899 
L 167.807016 111.890294 
L 167.816616 111.890294 
L 167.96319 111.780597 
L 168.07607 111.691597 
L 168.237635 111.5819 
L 168.345248 111.484621 
L 168.348524 111.484621 
L 168.501961 111.374924 
L 168.501961 111.373889 
L 168.614675 111.292134 
L 168.737964 111.182437 
L 168.848148 111.107925 
L 168.849061 111.107925 
L 169.028748 110.998228 
L 169.137937 110.911298 
L 169.139845 110.911298 
L 169.306199 110.801601 
L 169.418063 110.72088 
L 169.607371 110.611183 
L 169.718302 110.520113 
L 169.718468 110.520113 
L 169.914805 110.410416 
L 170.025881 110.313138 
L 170.213427 110.202405 
L 170.326058 110.126859 
L 170.487478 110.016127 
L 170.602016 109.932302 
L 170.754334 109.822604 
L 170.866073 109.758442 
L 170.98901 109.648745 
L 171.090734 109.570094 
L 171.100065 109.570094 
L 171.255285 109.460397 
L 171.36437 109.387955 
L 171.366382 109.387955 
L 171.517082 109.278258 
L 171.625981 109.218235 
L 171.628178 109.218235 
L 171.805543 109.108537 
L 171.915023 109.040235 
L 171.916474 109.040235 
L 172.094337 108.929503 
L 172.204023 108.864306 
L 172.205392 108.864306 
L 172.403284 108.754608 
L 172.514257 108.671818 
L 172.514381 108.671818 
L 172.69496 108.561086 
L 172.807259 108.500028 
L 173.01189 108.390331 
L 173.125599 108.326168 
L 173.293012 108.216471 
L 173.404046 108.156448 
L 173.404067 108.156448 
L 173.591426 108.046751 
L 173.704264 107.959821 
L 173.95615 107.850124 
L 174.056299 107.773542 
L 174.067247 107.773542 
L 174.218341 107.663845 
L 174.330661 107.603822 
L 174.490111 107.494125 
L 174.600171 107.419614 
L 174.601083 107.419614 
L 174.792672 107.309916 
L 174.90323 107.222986 
L 174.903769 107.222986 
L 175.112733 107.113289 
L 175.222047 107.02222 
L 175.22383 107.02222 
L 175.405093 106.912522 
L 175.505449 106.84836 
L 175.51619 106.84836 
L 175.728306 106.738663 
L 175.838491 106.655872 
L 175.839382 106.655872 
L 176.016312 106.546175 
L 176.128694 106.479943 
L 176.317504 106.370245 
L 176.317504 106.36921 
L 176.435692 106.283315 
L 176.648991 106.172583 
L 176.761311 106.111525 
L 176.945477 106.001828 
L 177.057817 105.937666 
L 177.212581 105.826933 
L 177.321231 105.745178 
L 177.323574 105.745178 
L 177.539568 105.635481 
L 177.652324 105.550621 
L 177.837692 105.440923 
L 177.949494 105.368482 
L 178.114376 105.258784 
L 178.227339 105.198761 
L 178.426849 105.089064 
L 178.426849 105.088029 
L 178.539314 105.020762 
L 178.786389 104.911065 
L 178.892095 104.859321 
L 178.89732 104.859321 
L 179.144519 104.749624 
L 179.257524 104.687531 
L 179.429995 104.576799 
L 179.530186 104.513671 
L 179.541009 104.513671 
L 179.685157 104.403974 
L 179.685157 104.402939 
L 179.797995 104.317044 
L 180.067091 104.207347 
L 180.176943 104.172161 
L 180.178187 104.172161 
L 180.290114 104.124556 
L 180.510275 104.014859 
L 180.510275 104.013824 
L 180.623196 103.969324 
L 180.794963 103.858592 
L 180.899632 103.805813 
L 180.906039 103.805813 
L 181.161097 103.696116 
L 181.269996 103.648511 
L 181.272193 103.648511 
L 181.502349 103.538814 
L 181.614897 103.464303 
L 181.835183 103.354606 
L 181.943107 103.294583 
L 181.946197 103.294583 
L 182.18983 103.184885 
L 182.295245 103.114513 
L 182.300802 103.114513 
L 182.539044 103.004816 
L 182.648855 102.961351 
L 182.650099 102.961351 
L 182.854959 102.851654 
L 182.969705 102.793701 
L 183.165358 102.684003 
L 183.25572 102.621911 
L 183.276413 102.621911 
L 183.544015 102.512213 
L 183.641717 102.470818 
L 183.655112 102.470818 
L 183.854497 102.361121 
L 183.961986 102.299028 
L 183.965573 102.299028 
L 184.181028 102.189331 
L 184.292124 102.129308 
L 184.518672 102.019611 
L 184.627571 101.961657 
L 184.629644 101.961657 
L 184.909315 101.85196 
L 185.012781 101.781588 
L 185.020287 101.781588 
L 185.230039 101.671891 
L 185.332096 101.618077 
L 185.341136 101.618077 
L 185.533347 101.50838 
L 185.533347 101.507345 
L 185.647782 101.469055 
L 185.867342 101.359357 
L 185.976676 101.303474 
L 185.978397 101.303474 
L 186.177886 101.192742 
L 186.289501 101.16066 
L 186.547379 101.050963 
L 186.659119 100.986801 
L 186.938644 100.877103 
L 187.050383 100.812941 
L 187.377702 100.703243 
L 187.491577 100.659778 
L 187.799902 100.550081 
L 187.799902 100.549046 
L 187.912243 100.481779 
L 188.152849 100.372082 
L 188.261333 100.307919 
L 188.263904 100.307919 
L 188.540837 100.198222 
L 188.645548 100.144408 
L 188.651934 100.144408 
L 188.888144 100.034711 
L 188.992896 99.991246 
L 188.99922 99.991246 
L 189.278869 99.881549 
L 189.390298 99.848433 
L 189.695057 99.738735 
L 189.803417 99.689061 
L 189.806112 99.689061 
L 190.084331 99.579364 
L 190.194308 99.52348 
L 190.195428 99.52348 
L 190.447666 99.413783 
L 190.559322 99.35376 
L 190.820248 99.244063 
L 190.92527 99.204737 
L 190.931345 99.204737 
L 191.28877 99.09504 
L 191.397047 99.045366 
L 191.399867 99.045366 
L 191.70728 98.935669 
L 191.814313 98.900483 
L 191.818335 98.900483 
L 192.15177 98.789751 
L 192.26378 98.741111 
L 192.542599 98.631414 
L 192.647268 98.594158 
L 192.653613 98.594158 
L 193.016513 98.484461 
L 193.106916 98.445136 
L 193.127609 98.445136 
L 193.465834 98.335438 
L 193.567559 98.298183 
L 193.576931 98.298183 
L 193.973752 98.188485 
L 194.085471 98.1533 
L 194.406611 98.043602 
L 194.51949 98.000137 
L 194.898729 97.89044 
L 194.99527 97.849045 
L 195.009825 97.849045 
L 195.295716 97.739348 
L 195.397814 97.712441 
L 195.406813 97.712441 
L 195.779291 97.602743 
L 195.890305 97.573767 
L 196.261208 97.46407 
L 196.371807 97.430953 
L 196.372305 97.430953 
L 196.852646 97.321256 
L 196.947403 97.294349 
L 196.963722 97.294349 
L 197.373502 97.184652 
L 197.479623 97.145327 
L 197.484557 97.145327 
L 197.978625 97.035629 
L 197.978625 97.034594 
L 198.090509 96.996304 
L 198.675809 96.886607 
L 198.784542 96.851421 
L 198.786865 96.851421 
L 199.302289 96.741723 
L 199.400944 96.712747 
L 199.413344 96.712747 
L 199.929888 96.60305 
L 199.929888 96.602015 
L 200.042519 96.565794 
L 200.697944 96.456097 
L 200.804479 96.43126 
L 200.808999 96.43126 
L 201.349429 96.321562 
L 201.443606 96.294655 
L 201.460526 96.294655 
L 202.144564 96.184958 
L 202.249897 96.1684 
L 202.25564 96.1684 
L 202.801524 96.058703 
L 202.880979 96.021447 
L 202.912496 96.021447 
L 203.410171 95.91175 
L 203.508288 95.886913 
L 203.521268 95.886913 
L 204.165123 95.777215 
L 204.277049 95.73582 
L 204.864796 95.626123 
L 204.969257 95.603356 
L 204.975892 95.603356 
L 205.610458 95.493658 
L 205.719813 95.458472 
L 205.721347 95.458472 
L 206.341731 95.348775 
L 206.453159 95.328078 
L 206.937647 95.21838 
L 207.046836 95.185264 
L 207.048702 95.185264 
L 207.529458 95.075567 
L 207.639642 95.04866 
L 207.640554 95.04866 
L 207.982387 94.938963 
L 208.087388 94.903777 
L 208.09336 94.903777 
L 208.610235 94.79408 
L 208.710798 94.760963 
L 208.721249 94.760963 
L 209.113052 94.651266 
L 209.224273 94.630569 
L 209.632292 94.520871 
L 209.743056 94.489825 
L 209.743347 94.489825 
L 210.090944 94.380128 
L 210.201004 94.342872 
L 210.202041 94.342872 
L 210.515301 94.233175 
L 210.615864 94.18557 
L 210.626149 94.18557 
L 210.909302 94.075873 
L 211.010612 94.038617 
L 211.020399 94.038617 
L 211.440443 93.92892 
L 211.550089 93.875106 
L 211.55154 93.875106 
L 211.846243 93.765409 
L 211.957568 93.736432 
L 212.229441 93.626735 
L 212.340414 93.568782 
L 212.340538 93.568782 
L 212.60304 93.459085 
L 212.704889 93.41355 
L 212.714095 93.41355 
L 212.986093 93.303853 
L 213.094743 93.258318 
L 213.09719 93.258318 
L 213.328548 93.148621 
L 213.328548 93.147586 
L 213.441262 93.109295 
L 213.665902 92.998563 
L 213.772769 92.954063 
L 213.776999 92.954063 
L 213.999483 92.844366 
L 214.110828 92.805041 
L 214.388798 92.695343 
L 214.499273 92.616692 
L 214.499895 92.616692 
L 214.686963 92.506995 
L 214.800548 92.446972 
L 215.062262 92.339345 
L 215.171327 92.264833 
L 215.173234 92.264833 
L 215.429661 92.155136 
L 215.541152 92.103392 
L 215.783126 91.993695 
L 215.895176 91.937811 
L 216.090581 91.827079 
L 216.200475 91.772231 
L 216.201657 91.772231 
L 216.421341 91.662533 
L 216.533226 91.583882 
L 216.794152 91.474185 
L 216.905767 91.422441 
L 217.152178 91.312744 
L 217.267567 91.229953 
L 217.445139 91.120256 
L 217.559429 91.039536 
L 217.77055 90.929838 
L 217.881191 90.861536 
L 217.881481 90.861536 
L 218.068301 90.751839 
L 218.161524 90.704235 
L 218.179356 90.704235 
L 218.366715 90.594537 
L 218.479346 90.517956 
L 218.67388 90.408259 
L 218.784354 90.323399 
L 218.784852 90.323399 
L 218.970635 90.212667 
L 219.08111 90.151609 
L 219.08169 90.151609 
L 219.268635 90.040877 
L 219.382759 89.9674 
L 219.605242 89.857703 
L 219.713063 89.770773 
L 219.716339 89.770773 
L 219.909255 89.661076 
L 220.019232 89.570006 
L 220.02031 89.570006 
L 220.186064 89.460309 
L 220.293262 89.392007 
L 220.296995 89.392007 
L 220.500008 89.28231 
L 220.613365 89.205729 
L 220.791601 89.096031 
L 220.901329 89.033939 
L 220.902635 89.033939 
L 221.084956 88.924241 
L 221.084956 88.923206 
L 221.198831 88.855939 
L 221.383889 88.746242 
L 221.497826 88.653103 
L 221.653502 88.543405 
L 221.761924 88.444057 
L 221.764558 88.444057 
L 221.903273 88.33436 
L 222.010057 88.266058 
L 222.014245 88.266058 
L 222.181823 88.15636 
L 222.292422 88.085989 
L 222.292899 88.085989 
L 222.457098 87.975256 
L 222.5723 87.926617 
L 222.754434 87.81692 
L 222.867106 87.734129 
L 223.070473 87.624432 
L 223.180657 87.529223 
L 223.181548 87.529223 
L 223.382779 87.419526 
L 223.495493 87.338805 
L 223.660085 87.229108 
L 223.660085 87.228073 
L 223.779061 87.169085 
L 223.937475 87.059388 
L 224.046664 86.982807 
L 224.048447 86.982807 
L 224.247376 86.873109 
L 224.360588 86.802738 
L 224.526175 86.69304 
L 224.639159 86.597831 
L 224.850176 86.488134 
L 224.962869 86.409483 
L 225.168268 86.298751 
L 225.280754 86.229414 
L 225.421024 86.119717 
L 225.533012 86.030717 
L 225.723171 85.92102 
L 225.837896 85.860997 
L 226.010616 85.7513 
L 226.115119 85.670579 
L 226.121692 85.670579 
L 226.293811 85.559847 
L 226.403788 85.49258 
L 226.404887 85.49258 
L 226.575182 85.382882 
L 226.686237 85.31458 
L 226.845832 85.203848 
L 226.953072 85.14279 
L 226.956867 85.14279 
L 227.151898 85.033093 
L 227.259884 84.948233 
L 227.262787 84.948233 
L 227.463209 84.838536 
L 227.575985 84.755745 
L 227.69071 84.646048 
L 227.803445 84.565327 
L 227.954228 84.45563 
L 228.066009 84.381119 
L 228.243809 84.271422 
L 228.35698 84.203119 
L 228.581682 84.093422 
L 228.692779 84.026155 
L 228.890588 83.915423 
L 228.998823 83.85126 
L 229.001685 83.85126 
L 229.165365 83.741563 
L 229.2657 83.68154 
L 229.276441 83.68154 
L 229.462327 83.571843 
L 229.575124 83.486983 
L 229.726032 83.377285 
L 229.726032 83.37625 
L 229.839264 83.323472 
L 230.023243 83.213774 
L 230.132163 83.130984 
L 230.134257 83.130984 
L 230.30789 83.021287 
L 230.30789 83.020252 
L 230.425497 82.942636 
L 230.607839 82.832939 
L 230.720345 82.762567 
L 230.947888 82.652869 
L 231.05886 82.55973 
L 231.058964 82.55973 
L 231.232182 82.450033 
L 231.344585 82.38587 
L 231.541731 82.276173 
L 231.651314 82.195453 
L 231.652765 82.195453 
L 231.784638 82.085755 
L 231.896502 82.009174 
L 232.10244 81.899477 
L 232.10244 81.898442 
L 232.222141 81.833245 
L 232.399693 81.723547 
L 232.50996 81.663524 
L 232.510748 81.663524 
L 232.685044 81.553827 
L 232.786313 81.487595 
L 232.796141 81.487595 
L 232.96459 81.377898 
L 233.074857 81.297177 
L 233.075666 81.297177 
L 233.219752 81.18748 
L 233.329563 81.09641 
L 233.330848 81.09641 
L 233.487064 80.986713 
L 233.587627 80.920481 
L 233.59816 80.920481 
L 233.785105 80.810783 
L 233.785105 80.809749 
L 233.897611 80.740412 
L 234.102014 80.630714 
L 234.215765 80.564482 
L 234.362816 80.454785 
L 234.473415 80.398901 
L 234.473913 80.398901 
L 234.668944 80.289204 
L 234.76563 80.231251 
L 234.78004 80.231251 
L 234.999289 80.121553 
L 235.113538 80.044972 
L 235.273714 79.935275 
L 235.386946 79.864903 
L 235.558588 79.754171 
L 235.66645 79.682764 
L 235.669685 79.682764 
L 235.873196 79.572032 
L 235.988772 79.500626 
L 236.171465 79.389893 
L 236.285423 79.320556 
L 236.513423 79.210859 
L 236.625763 79.144627 
L 236.835806 79.03493 
L 236.945825 78.94386 
L 236.946882 78.94386 
L 237.128041 78.834163 
L 237.240755 78.751373 
L 237.519845 78.64064 
L 237.633803 78.571303 
L 237.835594 78.461606 
L 237.938023 78.389165 
L 237.94669 78.389165 
L 238.164384 78.279467 
L 238.275999 78.225654 
L 238.497488 78.114921 
L 238.626396 78.053864 
L 238.846142 77.944166 
L 238.846142 77.943131 
L 238.958711 77.869655 
L 239.121292 77.759958 
L 239.232679 77.699935 
L 239.443655 77.590237 
L 239.561262 77.501238 
L 239.817399 77.39154 
L 239.931295 77.348075 
L 240.15919 77.237343 
L 240.271323 77.186634 
L 240.512987 77.076937 
L 240.611311 77.029333 
L 240.624063 77.029333 
L 240.851004 76.919635 
L 240.961106 76.863752 
L 240.961997 76.863752 
L 241.16273 76.754054 
L 241.16273 76.75302 
L 241.274947 76.698171 
L 241.481527 76.588474 
L 241.481527 76.587439 
L 241.596231 76.53052 
L 241.772705 76.420823 
L 241.884299 76.36494 
L 242.184434 76.255242 
L 242.295967 76.207638 
L 242.538625 76.096906 
L 242.650738 76.046197 
L 242.90308 75.936499 
L 242.90308 75.935465 
L 243.017017 75.866128 
L 243.27504 75.75643 
L 243.389703 75.700547 
L 243.606713 75.589815 
L 243.723035 75.543245 
L 243.954579 75.433548 
L 244.066381 75.396292 
L 244.246773 75.286595 
L 244.246773 75.28556 
L 244.359881 75.236921 
L 244.64235 75.127223 
L 244.751187 75.075479 
L 244.753447 75.075479 
L 245.025528 74.965782 
L 245.025528 74.964747 
L 245.139569 74.893341 
L 245.352681 74.783643 
L 245.45905 74.750527 
L 245.463778 74.750527 
L 245.752944 74.64083 
L 245.863896 74.605644 
L 245.864041 74.605644 
L 246.123101 74.495947 
L 246.227853 74.435924 
L 246.234197 74.435924 
L 246.534353 74.326226 
L 246.6463 74.284831 
L 246.848319 74.175134 
L 246.848319 74.174099 
L 246.960079 74.135809 
L 247.244477 74.026111 
L 247.356341 73.988856 
L 247.607832 73.878123 
L 247.717519 73.825345 
L 247.718846 73.825345 
L 247.987879 73.714612 
L 248.10219 73.663903 
L 248.352209 73.554206 
L 248.463638 73.52109 
L 248.773228 73.411393 
L 248.773228 73.410358 
L 248.890275 73.355509 
L 249.125324 73.245812 
L 249.236753 73.210626 
L 249.529382 73.099894 
L 249.641329 73.055394 
L 249.889068 72.945697 
L 250.00118 72.896022 
L 250.304778 72.786325 
L 250.419068 72.736651 
L 250.6971 72.626954 
L 250.810187 72.579349 
L 251.060352 72.468617 
L 251.175056 72.411699 
L 251.483506 72.302001 
L 251.596158 72.252327 
L 251.838941 72.14263 
L 251.95122 72.103305 
L 252.297842 71.993607 
L 252.403942 71.954282 
L 252.408918 71.954282 
L 252.722759 71.844585 
L 252.834354 71.79491 
L 253.173968 71.685213 
L 253.286931 71.637609 
L 253.576761 71.527911 
L 253.689578 71.486516 
L 254.045926 71.376819 
L 254.159345 71.341633 
L 254.550236 71.231936 
L 254.662659 71.19882 
L 254.925783 71.088087 
L 255.015212 71.062215 
L 255.03688 71.062215 
L 255.376639 70.952518 
L 255.481391 70.913193 
L 255.487612 70.913193 
L 255.797928 70.803495 
L 255.910662 70.76417 
L 256.251769 70.654473 
L 256.359756 70.613078 
L 256.362845 70.613078 
L 256.637021 70.502345 
L 256.748719 70.470264 
L 257.131669 70.360567 
L 257.244134 70.327451 
L 257.623248 70.216719 
L 257.735734 70.182568 
L 258.102137 70.07287 
L 258.214996 70.029405 
L 258.532341 69.918673 
L 258.648725 69.888662 
L 258.981953 69.778964 
L 259.09332 69.745848 
L 259.487342 69.636151 
L 259.58691 69.613384 
L 259.598438 69.613384 
L 259.931418 69.503686 
L 260.042763 69.462291 
L 260.374539 69.351559 
L 260.477798 69.319478 
L 260.485636 69.319478 
L 260.878062 69.209781 
L 260.98611 69.172525 
L 260.989158 69.172525 
L 261.411857 69.062828 
L 261.411857 69.061793 
L 261.524218 69.031781 
L 261.900035 68.922084 
L 262.012708 68.880689 
L 262.310417 68.770991 
L 262.417906 68.744085 
L 262.421514 68.744085 
L 262.868264 68.633352 
L 262.979237 68.595062 
L 262.97932 68.595062 
L 263.274997 68.485365 
L 263.382672 68.458458 
L 263.386032 68.458458 
L 263.713309 68.348761 
L 263.825338 68.303226 
L 264.21285 68.192494 
L 264.32461 68.156273 
L 264.712121 68.046576 
L 264.809036 68.025878 
L 264.823197 68.025878 
L 265.142823 67.916181 
L 265.255164 67.854088 
L 265.7365 67.744391 
L 265.846809 67.690577 
L 265.847597 67.690577 
L 266.168239 67.579845 
L 266.276889 67.545694 
L 266.279336 67.545694 
L 266.633817 67.434962 
L 266.746199 67.40495 
L 267.168317 67.295253 
L 267.280512 67.268346 
L 267.681771 67.158649 
L 267.793199 67.121393 
L 268.167523 67.011696 
L 268.280154 66.988928 
L 268.654976 66.879231 
L 268.767255 66.841975 
L 269.195427 66.732278 
L 269.307623 66.697092 
L 269.793209 66.58636 
L 269.904472 66.568767 
L 270.27156 66.45907 
L 270.38361 66.428024 
L 270.806474 66.317291 
L 270.920432 66.293489 
L 271.416117 66.182757 
L 271.533517 66.144466 
L 271.895525 66.034769 
L 272.007181 66.018211 
L 272.59414 65.908514 
L 272.683569 65.881607 
L 272.705237 65.881607 
L 273.17633 65.77191 
L 273.289251 65.728445 
L 273.838515 65.617713 
L 273.951933 65.591841 
L 274.598111 65.482143 
L 274.710742 65.430399 
L 275.170078 65.319667 
L 275.282668 65.297935 
L 275.847213 65.187203 
L 275.962975 65.161331 
L 276.392951 65.051633 
L 276.505457 65.018517 
L 276.981942 64.90882 
L 277.093909 64.879843 
L 277.682216 64.769111 
L 277.794287 64.718402 
L 278.275084 64.608705 
L 278.375647 64.575589 
L 278.386056 64.575589 
L 278.825259 64.464857 
L 278.938492 64.432775 
L 279.548839 64.323078 
L 279.660351 64.314799 
L 280.300411 64.204067 
L 280.406407 64.190613 
L 280.411425 64.190613 
L 280.967655 64.079881 
L 281.053932 64.062288 
L 281.078731 64.062288 
L 281.607031 63.952591 
L 281.718543 63.931893 
L 282.457135 63.821161 
L 282.56875 63.795289 
L 283.141194 63.684557 
L 283.250259 63.654546 
L 283.25225 63.654546 
L 283.722057 63.544848 
L 283.826871 63.513802 
L 283.833112 63.513802 
L 284.383391 63.404105 
L 284.494633 63.385477 
L 285.005786 63.27578 
L 285.115286 63.246803 
L 285.116883 63.246803 
L 285.692873 63.137106 
L 285.805525 63.108129 
L 286.362273 62.998432 
L 286.473556 62.977734 
L 286.994662 62.867002 
L 287.106505 62.849409 
L 287.724732 62.738677 
L 287.838358 62.719014 
L 288.388679 62.609317 
L 288.500936 62.588619 
L 289.157419 62.478922 
L 289.255764 62.458225 
L 289.268515 62.458225 
L 289.944924 62.347492 
L 290.057327 62.315411 
L 290.696973 62.204679 
L 290.808235 62.195365 
L 291.360111 62.085668 
L 291.471685 62.0629 
L 292.002121 61.953203 
L 292.113549 61.934575 
L 292.782472 61.824878 
L 292.894025 61.800041 
L 293.681012 61.690344 
L 293.792627 61.673786 
L 294.508411 61.563053 
L 294.622431 61.539251 
L 295.33722 61.429554 
L 295.449083 61.415066 
L 296.177536 61.304334 
L 296.290333 61.278462 
L 297.042797 61.167729 
L 297.138218 61.139788 
L 297.153727 61.139788 
L 298.113538 61.03009 
L 298.225008 61.007323 
L 299.066548 60.896591 
L 299.172959 60.868649 
L 299.177583 60.868649 
L 300.127835 60.758952 
L 300.211603 60.738254 
L 300.238911 60.738254 
L 300.929896 60.628557 
L 300.929896 60.627522 
L 301.042879 60.59958 
L 301.737451 60.488848 
L 301.849191 60.473325 
L 302.596097 60.363628 
L 302.707795 60.334651 
L 303.567727 60.223919 
L 303.681188 60.210466 
L 304.31932 60.100768 
L 304.430976 60.08835 
L 305.287943 59.978652 
L 305.400595 59.960025 
L 306.715011 59.850327 
L 306.82673 59.819281 
L 307.706256 59.709584 
L 307.819467 59.686816 
L 308.728063 59.577119 
L 308.839326 59.558491 
L 309.689014 59.448794 
L 309.802516 59.426027 
L 310.522115 59.316329 
L 310.634 59.31012 
L 311.567872 59.200423 
L 311.679279 59.183865 
L 312.749275 59.073133 
L 312.860786 59.067958 
L 313.913862 58.958261 
L 314.026306 58.939633 
L 315.1228 58.828901 
L 315.237152 58.817517 
L 316.490567 58.70782 
L 316.601912 58.695401 
L 317.542606 58.584669 
L 317.654034 58.577425 
L 318.719261 58.466693 
L 318.83523 58.444961 
L 320.079977 58.335263 
L 320.192194 58.322845 
L 321.447288 58.213147 
L 321.559878 58.198659 
L 322.756686 58.088962 
L 322.868198 58.084822 
L 324.351146 57.975125 
L 324.463736 57.960637 
L 325.824847 57.85094 
L 325.86221 57.84473 
L 325.93586 57.84473 
L 327.231284 57.733998 
L 327.342919 57.722614 
L 328.739984 57.612917 
L 328.850957 57.608778 
L 330.341141 57.49908 
L 330.452238 57.490801 
L 331.879762 57.381104 
L 331.991564 57.364546 
L 333.305316 57.254849 
L 333.305316 57.253814 
L 333.416766 57.24657 
L 334.517821 57.136872 
L 334.629167 57.130663 
L 336.602429 57.020966 
L 336.713775 57.006478 
L 338.073331 56.89678 
L 338.18478 56.892641 
L 339.670714 56.782944 
L 339.782308 56.772595 
L 341.368453 56.661863 
L 341.479612 56.654618 
L 343.194914 56.544921 
L 343.306632 56.530433 
L 345.178191 56.420736 
L 345.289536 56.416596 
L 347.112825 56.306899 
L 347.224046 56.29655 
L 348.748671 56.186853 
L 348.860223 56.176504 
L 350.636568 56.066807 
L 350.748432 56.064737 
L 352.52629 55.95504 
L 352.52629 55.95297 
L 352.637263 55.95297 
L 354.885074 55.842238 
L 354.997186 55.839133 
L 357.156978 55.729436 
L 357.268096 55.721157 
L 360.229783 55.61146 
L 360.341481 55.60525 
L 362.803586 55.494518 
L 362.915408 55.489344 
L 365.047022 55.379647 
L 365.158906 55.371367 
L 368.420086 55.26167 
L 368.531245 55.247182 
L 371.556629 55.13645 
L 371.654849 55.133345 
L 371.667684 55.133345 
L 373.779558 55.022613 
L 373.887503 55.019508 
L 373.890655 55.019508 
L 376.92651 54.909811 
L 377.015462 54.903602 
L 377.037483 54.903602 
L 380.302291 54.793905 
L 380.413471 54.789765 
L 383.299082 54.679033 
L 383.316126 54.675928 
L 383.410096 54.675928 
L 387.335181 54.565196 
L 387.442006 54.555882 
L 387.446236 54.555882 
L 391.112427 54.446185 
L 391.22369 54.442045 
L 394.801385 54.332348 
L 394.912482 54.328209 
L 400.786052 54.218511 
L 400.897231 54.214372 
L 414.72 54.144 
L 414.72 54.144 
" clip-path="url(#p527f226c88)" style="fill: none; stroke: #ff8c00; stroke-width: 1.5; stroke-linecap: square"/>
   </g>
   <g id="line2d_14">
    <path d="M 74.605714 307.584 
L 414.72 54.144 
" clip-path="url(#p527f226c88)" style="fill: none; stroke-dasharray: 5.55,2.4; stroke-dashoffset: 0; stroke: #0000ff; stroke-width: 1.5"/>
   </g>
   <g id="patch_3">
    <path d="M 57.6 307.584 
L 57.6 41.472 
" style="fill: none; stroke: #000000; stroke-width: 0.8; stroke-linejoin: miter; stroke-linecap: square"/>
   </g>
   <g id="patch_4">
    <path d="M 414.72 307.584 
L 414.72 41.472 
" style="fill: none; stroke: #000000; stroke-width: 0.8; stroke-linejoin: miter; stroke-linecap: square"/>
   </g>
   <g id="patch_5">
    <path d="M 57.6 307.584 
L 414.72 307.584 
" style="fill: none; stroke: #000000; stroke-width: 0.8; stroke-linejoin: miter; stroke-linecap: square"/>
   </g>
   <g id="patch_6">
    <path d="M 57.6 41.472 
L 414.72 41.472 
" style="fill: none; stroke: #000000; stroke-width: 0.8; stroke-linejoin: miter; stroke-linecap: square"/>
   </g>
   <g id="text_15">
    <!-- ROC CURVE -->
    <g transform="translate(200.855625 35.472)scale(0.12 -0.12)">
     <defs>
      <path id="DejaVuSans-4f" d="M 2522 4238 
Q 1834 4238 1429 3725 
Q 1025 3213 1025 2328 
Q 1025 1447 1429 934 
Q 1834 422 2522 422 
Q 3209 422 3611 934 
Q 4013 1447 4013 2328 
Q 4013 3213 3611 3725 
Q 3209 4238 2522 4238 
z
M 2522 4750 
Q 3503 4750 4090 4092 
Q 4678 3434 4678 2328 
Q 4678 1225 4090 567 
Q 3503 -91 2522 -91 
Q 1538 -91 948 565 
Q 359 1222 359 2328 
Q 359 3434 948 4092 
Q 1538 4750 2522 4750 
z
" transform="scale(0.015625)"/>
      <path id="DejaVuSans-43" d="M 4122 4306 
L 4122 3641 
Q 3803 3938 3442 4084 
Q 3081 4231 2675 4231 
Q 1875 4231 1450 3742 
Q 1025 3253 1025 2328 
Q 1025 1406 1450 917 
Q 1875 428 2675 428 
Q 3081 428 3442 575 
Q 3803 722 4122 1019 
L 4122 359 
Q 3791 134 3420 21 
Q 3050 -91 2638 -91 
Q 1578 -91 968 557 
Q 359 1206 359 2328 
Q 359 3453 968 4101 
Q 1578 4750 2638 4750 
Q 3056 4750 3426 4639 
Q 3797 4528 4122 4306 
z
" transform="scale(0.015625)"/>
      <path id="DejaVuSans-55" d="M 556 4666 
L 1191 4666 
L 1191 1831 
Q 1191 1081 1462 751 
Q 1734 422 2344 422 
Q 2950 422 3222 751 
Q 3494 1081 3494 1831 
L 3494 4666 
L 4128 4666 
L 4128 1753 
Q 4128 841 3676 375 
Q 3225 -91 2344 -91 
Q 1459 -91 1007 375 
Q 556 841 556 1753 
L 556 4666 
z
" transform="scale(0.015625)"/>
      <path id="DejaVuSans-56" d="M 1831 0 
L 50 4666 
L 709 4666 
L 2188 738 
L 3669 4666 
L 4325 4666 
L 2547 0 
L 1831 0 
z
" transform="scale(0.015625)"/>
      <path id="DejaVuSans-45" d="M 628 4666 
L 3578 4666 
L 3578 4134 
L 1259 4134 
L 1259 2753 
L 3481 2753 
L 3481 2222 
L 1259 2222 
L 1259 531 
L 3634 531 
L 3634 0 
L 628 0 
L 628 4666 
z
" transform="scale(0.015625)"/>
     </defs>
     <use xlink:href="#DejaVuSans-52"/>
     <use xlink:href="#DejaVuSans-4f" x="69.482422"/>
     <use xlink:href="#DejaVuSans-43" x="148.193359"/>
     <use xlink:href="#DejaVuSans-20" x="218.017578"/>
     <use xlink:href="#DejaVuSans-43" x="249.804688"/>
     <use xlink:href="#DejaVuSans-55" x="319.628906"/>
     <use xlink:href="#DejaVuSans-52" x="392.822266"/>
     <use xlink:href="#DejaVuSans-56" x="456.804688"/>
     <use xlink:href="#DejaVuSans-45" x="525.212891"/>
    </g>
   </g>
   <g id="legend_1">
    <g id="patch_7">
     <path d="M 234.97 302.584 
L 407.72 302.584 
Q 409.72 302.584 409.72 300.584 
L 409.72 286.905875 
Q 409.72 284.905875 407.72 284.905875 
L 234.97 284.905875 
Q 232.97 284.905875 232.97 286.905875 
L 232.97 300.584 
Q 232.97 302.584 234.97 302.584 
z
" style="fill: #ffffff; opacity: 0.8; stroke: #cccccc; stroke-linejoin: miter"/>
    </g>
    <g id="line2d_15">
     <path d="M 236.97 293.004312 
L 246.97 293.004312 
L 256.97 293.004312 
" style="fill: none; stroke: #ff8c00; stroke-width: 1.5; stroke-linecap: square"/>
    </g>
    <g id="text_16">
     <!-- ROC curve (ROC AUC=0.83) -->
     <g transform="translate(264.97 296.504312)scale(0.1 -0.1)">
      <defs>
       <path id="DejaVuSans-63" d="M 3122 3366 
L 3122 2828 
Q 2878 2963 2633 3030 
Q 2388 3097 2138 3097 
Q 1578 3097 1268 2742 
Q 959 2388 959 1747 
Q 959 1106 1268 751 
Q 1578 397 2138 397 
Q 2388 397 2633 464 
Q 2878 531 3122 666 
L 3122 134 
Q 2881 22 2623 -34 
Q 2366 -91 2075 -91 
Q 1284 -91 818 406 
Q 353 903 353 1747 
Q 353 2603 823 3093 
Q 1294 3584 2113 3584 
Q 2378 3584 2631 3529 
Q 2884 3475 3122 3366 
z
" transform="scale(0.015625)"/>
       <path id="DejaVuSans-28" d="M 1984 4856 
Q 1566 4138 1362 3434 
Q 1159 2731 1159 2009 
Q 1159 1288 1364 580 
Q 1569 -128 1984 -844 
L 1484 -844 
Q 1016 -109 783 600 
Q 550 1309 550 2009 
Q 550 2706 781 3412 
Q 1013 4119 1484 4856 
L 1984 4856 
z
" transform="scale(0.015625)"/>
       <path id="DejaVuSans-41" d="M 2188 4044 
L 1331 1722 
L 3047 1722 
L 2188 4044 
z
M 1831 4666 
L 2547 4666 
L 4325 0 
L 3669 0 
L 3244 1197 
L 1141 1197 
L 716 0 
L 50 0 
L 1831 4666 
z
" transform="scale(0.015625)"/>
       <path id="DejaVuSans-3d" d="M 678 2906 
L 4684 2906 
L 4684 2381 
L 678 2381 
L 678 2906 
z
M 678 1631 
L 4684 1631 
L 4684 1100 
L 678 1100 
L 678 1631 
z
" transform="scale(0.015625)"/>
       <path id="DejaVuSans-33" d="M 2597 2516 
Q 3050 2419 3304 2112 
Q 3559 1806 3559 1356 
Q 3559 666 3084 287 
Q 2609 -91 1734 -91 
Q 1441 -91 1130 -33 
Q 819 25 488 141 
L 488 750 
Q 750 597 1062 519 
Q 1375 441 1716 441 
Q 2309 441 2620 675 
Q 2931 909 2931 1356 
Q 2931 1769 2642 2001 
Q 2353 2234 1838 2234 
L 1294 2234 
L 1294 2753 
L 1863 2753 
Q 2328 2753 2575 2939 
Q 2822 3125 2822 3475 
Q 2822 3834 2567 4026 
Q 2313 4219 1838 4219 
Q 1578 4219 1281 4162 
Q 984 4106 628 3988 
L 628 4550 
Q 988 4650 1302 4700 
Q 1616 4750 1894 4750 
Q 2613 4750 3031 4423 
Q 3450 4097 3450 3541 
Q 3450 3153 3228 2886 
Q 3006 2619 2597 2516 
z
" transform="scale(0.015625)"/>
       <path id="DejaVuSans-29" d="M 513 4856 
L 1013 4856 
Q 1481 4119 1714 3412 
Q 1947 2706 1947 2009 
Q 1947 1309 1714 600 
Q 1481 -109 1013 -844 
L 513 -844 
Q 928 -128 1133 580 
Q 1338 1288 1338 2009 
Q 1338 2731 1133 3434 
Q 928 4138 513 4856 
z
" transform="scale(0.015625)"/>
      </defs>
      <use xlink:href="#DejaVuSans-52"/>
      <use xlink:href="#DejaVuSans-4f" x="69.482422"/>
      <use xlink:href="#DejaVuSans-43" x="148.193359"/>
      <use xlink:href="#DejaVuSans-20" x="218.017578"/>
      <use xlink:href="#DejaVuSans-63" x="249.804688"/>
      <use xlink:href="#DejaVuSans-75" x="304.785156"/>
      <use xlink:href="#DejaVuSans-72" x="368.164062"/>
      <use xlink:href="#DejaVuSans-76" x="409.277344"/>
      <use xlink:href="#DejaVuSans-65" x="468.457031"/>
      <use xlink:href="#DejaVuSans-20" x="529.980469"/>
      <use xlink:href="#DejaVuSans-28" x="561.767578"/>
      <use xlink:href="#DejaVuSans-52" x="600.78125"/>
      <use xlink:href="#DejaVuSans-4f" x="670.263672"/>
      <use xlink:href="#DejaVuSans-43" x="748.974609"/>
      <use xlink:href="#DejaVuSans-20" x="818.798828"/>
      <use xlink:href="#DejaVuSans-41" x="850.585938"/>
      <use xlink:href="#DejaVuSans-55" x="918.994141"/>
      <use xlink:href="#DejaVuSans-43" x="992.1875"/>
      <use xlink:href="#DejaVuSans-3d" x="1062.011719"/>
      <use xlink:href="#DejaVuSans-30" x="1145.800781"/>
      <use xlink:href="#DejaVuSans-2e" x="1209.423828"/>
      <use xlink:href="#DejaVuSans-38" x="1241.210938"/>
      <use xlink:href="#DejaVuSans-33" x="1304.833984"/>
      <use xlink:href="#DejaVuSans-29" x="1368.457031"/>
     </g>
    </g>
   </g>
  </g>
 </g>
 <defs>
  <clipPath id="p527f226c88">
   <rect x="57.6" y="41.472" width="357.12" height="266.112"/>
  </clipPath>
 </defs>
</svg>
