<?xml version="1.0" encoding="utf-8" standalone="no"?>
<!DOCTYPE svg PUBLIC "-//W3C//DTD SVG 1.1//EN"
  "http://www.w3.org/Graphics/SVG/1.1/DTD/svg11.dtd">
<svg xmlns:xlink="http://www.w3.org/1999/xlink" width="460.8pt" height="345.6pt" viewBox="0 0 460.8 345.6" xmlns="http://www.w3.org/2000/svg" version="1.1">
 <metadata>
  <rdf:RDF xmlns:dc="http://purl.org/dc/elements/1.1/" xmlns:cc="http://creativecommons.org/ns#" xmlns:rdf="http://www.w3.org/1999/02/22-rdf-syntax-ns#">
   <cc:Work>
    <dc:type rdf:resource="http://purl.org/dc/dcmitype/StillImage"/>
    <dc:date>2022-05-21T10:34:25.980747</dc:date>
    <dc:format>image/svg+xml</dc:format>
    <dc:creator>
     <cc:Agent>
      <dc:title>Matplotlib v3.5.1, https://matplotlib.org/</dc:title>
     </cc:Agent>
    </dc:creator>
   </cc:Work>
  </rdf:RDF>
 </metadata>
 <defs>
  <style type="text/css">*{stroke-linejoin: round; stroke-linecap: butt}</style>
 </defs>
 <g id="figure_1">
  <g id="patch_1">
   <path d="M 0 345.6 
L 460.8 345.6 
L 460.8 0 
L 0 0 
z
" style="fill: #ffffff"/>
  </g>
  <g id="axes_1">
   <g id="patch_2">
    <path d="M 57.6 307.584 
L 414.72 307.584 
L 414.72 41.472 
L 57.6 41.472 
z
" style="fill: #ffffff"/>
   </g>
   <g id="matplotlib.axis_1">
    <g id="xtick_1">
     <g id="line2d_1">
      <defs>
       <path id="m592f830a52" d="M 0 0 
L 0 3.5 
" style="stroke: #000000; stroke-width: 0.8"/>
      </defs>
      <g>
       <use xlink:href="#m592f830a52" x="74.605714" y="307.584" style="stroke: #000000; stroke-width: 0.8"/>
      </g>
     </g>
     <g id="text_1">
      <!-- 0.0 -->
      <g transform="translate(66.654152 322.182437)scale(0.1 -0.1)">
       <defs>
        <path id="DejaVuSans-30" d="M 2034 4250 
Q 1547 4250 1301 3770 
Q 1056 3291 1056 2328 
Q 1056 1369 1301 889 
Q 1547 409 2034 409 
Q 2525 409 2770 889 
Q 3016 1369 3016 2328 
Q 3016 3291 2770 3770 
Q 2525 4250 2034 4250 
z
M 2034 4750 
Q 2819 4750 3233 4129 
Q 3647 3509 3647 2328 
Q 3647 1150 3233 529 
Q 2819 -91 2034 -91 
Q 1250 -91 836 529 
Q 422 1150 422 2328 
Q 422 3509 836 4129 
Q 1250 4750 2034 4750 
z
" transform="scale(0.015625)"/>
        <path id="DejaVuSans-2e" d="M 684 794 
L 1344 794 
L 1344 0 
L 684 0 
L 684 794 
z
" transform="scale(0.015625)"/>
       </defs>
       <use xlink:href="#DejaVuSans-30"/>
       <use xlink:href="#DejaVuSans-2e" x="63.623047"/>
       <use xlink:href="#DejaVuSans-30" x="95.410156"/>
      </g>
     </g>
    </g>
    <g id="xtick_2">
     <g id="line2d_2">
      <g>
       <use xlink:href="#m592f830a52" x="142.628571" y="307.584" style="stroke: #000000; stroke-width: 0.8"/>
      </g>
     </g>
     <g id="text_2">
      <!-- 0.2 -->
      <g transform="translate(134.677009 322.182437)scale(0.1 -0.1)">
       <defs>
        <path id="DejaVuSans-32" d="M 1228 531 
L 3431 531 
L 3431 0 
L 469 0 
L 469 531 
Q 828 903 1448 1529 
Q 2069 2156 2228 2338 
Q 2531 2678 2651 2914 
Q 2772 3150 2772 3378 
Q 2772 3750 2511 3984 
Q 2250 4219 1831 4219 
Q 1534 4219 1204 4116 
Q 875 4013 500 3803 
L 500 4441 
Q 881 4594 1212 4672 
Q 1544 4750 1819 4750 
Q 2544 4750 2975 4387 
Q 3406 4025 3406 3419 
Q 3406 3131 3298 2873 
Q 3191 2616 2906 2266 
Q 2828 2175 2409 1742 
Q 1991 1309 1228 531 
z
" transform="scale(0.015625)"/>
       </defs>
       <use xlink:href="#DejaVuSans-30"/>
       <use xlink:href="#DejaVuSans-2e" x="63.623047"/>
       <use xlink:href="#DejaVuSans-32" x="95.410156"/>
      </g>
     </g>
    </g>
    <g id="xtick_3">
     <g id="line2d_3">
      <g>
       <use xlink:href="#m592f830a52" x="210.651429" y="307.584" style="stroke: #000000; stroke-width: 0.8"/>
      </g>
     </g>
     <g id="text_3">
      <!-- 0.4 -->
      <g transform="translate(202.699866 322.182437)scale(0.1 -0.1)">
       <defs>
        <path id="DejaVuSans-34" d="M 2419 4116 
L 825 1625 
L 2419 1625 
L 2419 4116 
z
M 2253 4666 
L 3047 4666 
L 3047 1625 
L 3713 1625 
L 3713 1100 
L 3047 1100 
L 3047 0 
L 2419 0 
L 2419 1100 
L 313 1100 
L 313 1709 
L 2253 4666 
z
" transform="scale(0.015625)"/>
       </defs>
       <use xlink:href="#DejaVuSans-30"/>
       <use xlink:href="#DejaVuSans-2e" x="63.623047"/>
       <use xlink:href="#DejaVuSans-34" x="95.410156"/>
      </g>
     </g>
    </g>
    <g id="xtick_4">
     <g id="line2d_4">
      <g>
       <use xlink:href="#m592f830a52" x="278.674286" y="307.584" style="stroke: #000000; stroke-width: 0.8"/>
      </g>
     </g>
     <g id="text_4">
      <!-- 0.6 -->
      <g transform="translate(270.722723 322.182437)scale(0.1 -0.1)">
       <defs>
        <path id="DejaVuSans-36" d="M 2113 2584 
Q 1688 2584 1439 2293 
Q 1191 2003 1191 1497 
Q 1191 994 1439 701 
Q 1688 409 2113 409 
Q 2538 409 2786 701 
Q 3034 994 3034 1497 
Q 3034 2003 2786 2293 
Q 2538 2584 2113 2584 
z
M 3366 4563 
L 3366 3988 
Q 3128 4100 2886 4159 
Q 2644 4219 2406 4219 
Q 1781 4219 1451 3797 
Q 1122 3375 1075 2522 
Q 1259 2794 1537 2939 
Q 1816 3084 2150 3084 
Q 2853 3084 3261 2657 
Q 3669 2231 3669 1497 
Q 3669 778 3244 343 
Q 2819 -91 2113 -91 
Q 1303 -91 875 529 
Q 447 1150 447 2328 
Q 447 3434 972 4092 
Q 1497 4750 2381 4750 
Q 2619 4750 2861 4703 
Q 3103 4656 3366 4563 
z
" transform="scale(0.015625)"/>
       </defs>
       <use xlink:href="#DejaVuSans-30"/>
       <use xlink:href="#DejaVuSans-2e" x="63.623047"/>
       <use xlink:href="#DejaVuSans-36" x="95.410156"/>
      </g>
     </g>
    </g>
    <g id="xtick_5">
     <g id="line2d_5">
      <g>
       <use xlink:href="#m592f830a52" x="346.697143" y="307.584" style="stroke: #000000; stroke-width: 0.8"/>
      </g>
     </g>
     <g id="text_5">
      <!-- 0.8 -->
      <g transform="translate(338.74558 322.182437)scale(0.1 -0.1)">
       <defs>
        <path id="DejaVuSans-38" d="M 2034 2216 
Q 1584 2216 1326 1975 
Q 1069 1734 1069 1313 
Q 1069 891 1326 650 
Q 1584 409 2034 409 
Q 2484 409 2743 651 
Q 3003 894 3003 1313 
Q 3003 1734 2745 1975 
Q 2488 2216 2034 2216 
z
M 1403 2484 
Q 997 2584 770 2862 
Q 544 3141 544 3541 
Q 544 4100 942 4425 
Q 1341 4750 2034 4750 
Q 2731 4750 3128 4425 
Q 3525 4100 3525 3541 
Q 3525 3141 3298 2862 
Q 3072 2584 2669 2484 
Q 3125 2378 3379 2068 
Q 3634 1759 3634 1313 
Q 3634 634 3220 271 
Q 2806 -91 2034 -91 
Q 1263 -91 848 271 
Q 434 634 434 1313 
Q 434 1759 690 2068 
Q 947 2378 1403 2484 
z
M 1172 3481 
Q 1172 3119 1398 2916 
Q 1625 2713 2034 2713 
Q 2441 2713 2670 2916 
Q 2900 3119 2900 3481 
Q 2900 3844 2670 4047 
Q 2441 4250 2034 4250 
Q 1625 4250 1398 4047 
Q 1172 3844 1172 3481 
z
" transform="scale(0.015625)"/>
       </defs>
       <use xlink:href="#DejaVuSans-30"/>
       <use xlink:href="#DejaVuSans-2e" x="63.623047"/>
       <use xlink:href="#DejaVuSans-38" x="95.410156"/>
      </g>
     </g>
    </g>
    <g id="xtick_6">
     <g id="line2d_6">
      <g>
       <use xlink:href="#m592f830a52" x="414.72" y="307.584" style="stroke: #000000; stroke-width: 0.8"/>
      </g>
     </g>
     <g id="text_6">
      <!-- 1.0 -->
      <g transform="translate(406.768438 322.182437)scale(0.1 -0.1)">
       <defs>
        <path id="DejaVuSans-31" d="M 794 531 
L 1825 531 
L 1825 4091 
L 703 3866 
L 703 4441 
L 1819 4666 
L 2450 4666 
L 2450 531 
L 3481 531 
L 3481 0 
L 794 0 
L 794 531 
z
" transform="scale(0.015625)"/>
       </defs>
       <use xlink:href="#DejaVuSans-31"/>
       <use xlink:href="#DejaVuSans-2e" x="63.623047"/>
       <use xlink:href="#DejaVuSans-30" x="95.410156"/>
      </g>
     </g>
    </g>
    <g id="text_7">
     <!-- False Positive Rate -->
     <g transform="translate(189.693594 335.860562)scale(0.1 -0.1)">
      <defs>
       <path id="DejaVuSans-46" d="M 628 4666 
L 3309 4666 
L 3309 4134 
L 1259 4134 
L 1259 2759 
L 3109 2759 
L 3109 2228 
L 1259 2228 
L 1259 0 
L 628 0 
L 628 4666 
z
" transform="scale(0.015625)"/>
       <path id="DejaVuSans-61" d="M 2194 1759 
Q 1497 1759 1228 1600 
Q 959 1441 959 1056 
Q 959 750 1161 570 
Q 1363 391 1709 391 
Q 2188 391 2477 730 
Q 2766 1069 2766 1631 
L 2766 1759 
L 2194 1759 
z
M 3341 1997 
L 3341 0 
L 2766 0 
L 2766 531 
Q 2569 213 2275 61 
Q 1981 -91 1556 -91 
Q 1019 -91 701 211 
Q 384 513 384 1019 
Q 384 1609 779 1909 
Q 1175 2209 1959 2209 
L 2766 2209 
L 2766 2266 
Q 2766 2663 2505 2880 
Q 2244 3097 1772 3097 
Q 1472 3097 1187 3025 
Q 903 2953 641 2809 
L 641 3341 
Q 956 3463 1253 3523 
Q 1550 3584 1831 3584 
Q 2591 3584 2966 3190 
Q 3341 2797 3341 1997 
z
" transform="scale(0.015625)"/>
       <path id="DejaVuSans-6c" d="M 603 4863 
L 1178 4863 
L 1178 0 
L 603 0 
L 603 4863 
z
" transform="scale(0.015625)"/>
       <path id="DejaVuSans-73" d="M 2834 3397 
L 2834 2853 
Q 2591 2978 2328 3040 
Q 2066 3103 1784 3103 
Q 1356 3103 1142 2972 
Q 928 2841 928 2578 
Q 928 2378 1081 2264 
Q 1234 2150 1697 2047 
L 1894 2003 
Q 2506 1872 2764 1633 
Q 3022 1394 3022 966 
Q 3022 478 2636 193 
Q 2250 -91 1575 -91 
Q 1294 -91 989 -36 
Q 684 19 347 128 
L 347 722 
Q 666 556 975 473 
Q 1284 391 1588 391 
Q 1994 391 2212 530 
Q 2431 669 2431 922 
Q 2431 1156 2273 1281 
Q 2116 1406 1581 1522 
L 1381 1569 
Q 847 1681 609 1914 
Q 372 2147 372 2553 
Q 372 3047 722 3315 
Q 1072 3584 1716 3584 
Q 2034 3584 2315 3537 
Q 2597 3491 2834 3397 
z
" transform="scale(0.015625)"/>
       <path id="DejaVuSans-65" d="M 3597 1894 
L 3597 1613 
L 953 1613 
Q 991 1019 1311 708 
Q 1631 397 2203 397 
Q 2534 397 2845 478 
Q 3156 559 3463 722 
L 3463 178 
Q 3153 47 2828 -22 
Q 2503 -91 2169 -91 
Q 1331 -91 842 396 
Q 353 884 353 1716 
Q 353 2575 817 3079 
Q 1281 3584 2069 3584 
Q 2775 3584 3186 3129 
Q 3597 2675 3597 1894 
z
M 3022 2063 
Q 3016 2534 2758 2815 
Q 2500 3097 2075 3097 
Q 1594 3097 1305 2825 
Q 1016 2553 972 2059 
L 3022 2063 
z
" transform="scale(0.015625)"/>
       <path id="DejaVuSans-20" transform="scale(0.015625)"/>
       <path id="DejaVuSans-50" d="M 1259 4147 
L 1259 2394 
L 2053 2394 
Q 2494 2394 2734 2622 
Q 2975 2850 2975 3272 
Q 2975 3691 2734 3919 
Q 2494 4147 2053 4147 
L 1259 4147 
z
M 628 4666 
L 2053 4666 
Q 2838 4666 3239 4311 
Q 3641 3956 3641 3272 
Q 3641 2581 3239 2228 
Q 2838 1875 2053 1875 
L 1259 1875 
L 1259 0 
L 628 0 
L 628 4666 
z
" transform="scale(0.015625)"/>
       <path id="DejaVuSans-6f" d="M 1959 3097 
Q 1497 3097 1228 2736 
Q 959 2375 959 1747 
Q 959 1119 1226 758 
Q 1494 397 1959 397 
Q 2419 397 2687 759 
Q 2956 1122 2956 1747 
Q 2956 2369 2687 2733 
Q 2419 3097 1959 3097 
z
M 1959 3584 
Q 2709 3584 3137 3096 
Q 3566 2609 3566 1747 
Q 3566 888 3137 398 
Q 2709 -91 1959 -91 
Q 1206 -91 779 398 
Q 353 888 353 1747 
Q 353 2609 779 3096 
Q 1206 3584 1959 3584 
z
" transform="scale(0.015625)"/>
       <path id="DejaVuSans-69" d="M 603 3500 
L 1178 3500 
L 1178 0 
L 603 0 
L 603 3500 
z
M 603 4863 
L 1178 4863 
L 1178 4134 
L 603 4134 
L 603 4863 
z
" transform="scale(0.015625)"/>
       <path id="DejaVuSans-74" d="M 1172 4494 
L 1172 3500 
L 2356 3500 
L 2356 3053 
L 1172 3053 
L 1172 1153 
Q 1172 725 1289 603 
Q 1406 481 1766 481 
L 2356 481 
L 2356 0 
L 1766 0 
Q 1100 0 847 248 
Q 594 497 594 1153 
L 594 3053 
L 172 3053 
L 172 3500 
L 594 3500 
L 594 4494 
L 1172 4494 
z
" transform="scale(0.015625)"/>
       <path id="DejaVuSans-76" d="M 191 3500 
L 800 3500 
L 1894 563 
L 2988 3500 
L 3597 3500 
L 2284 0 
L 1503 0 
L 191 3500 
z
" transform="scale(0.015625)"/>
       <path id="DejaVuSans-52" d="M 2841 2188 
Q 3044 2119 3236 1894 
Q 3428 1669 3622 1275 
L 4263 0 
L 3584 0 
L 2988 1197 
Q 2756 1666 2539 1819 
Q 2322 1972 1947 1972 
L 1259 1972 
L 1259 0 
L 628 0 
L 628 4666 
L 2053 4666 
Q 2853 4666 3247 4331 
Q 3641 3997 3641 3322 
Q 3641 2881 3436 2590 
Q 3231 2300 2841 2188 
z
M 1259 4147 
L 1259 2491 
L 2053 2491 
Q 2509 2491 2742 2702 
Q 2975 2913 2975 3322 
Q 2975 3731 2742 3939 
Q 2509 4147 2053 4147 
L 1259 4147 
z
" transform="scale(0.015625)"/>
      </defs>
      <use xlink:href="#DejaVuSans-46"/>
      <use xlink:href="#DejaVuSans-61" x="48.394531"/>
      <use xlink:href="#DejaVuSans-6c" x="109.673828"/>
      <use xlink:href="#DejaVuSans-73" x="137.457031"/>
      <use xlink:href="#DejaVuSans-65" x="189.556641"/>
      <use xlink:href="#DejaVuSans-20" x="251.080078"/>
      <use xlink:href="#DejaVuSans-50" x="282.867188"/>
      <use xlink:href="#DejaVuSans-6f" x="339.544922"/>
      <use xlink:href="#DejaVuSans-73" x="400.726562"/>
      <use xlink:href="#DejaVuSans-69" x="452.826172"/>
      <use xlink:href="#DejaVuSans-74" x="480.609375"/>
      <use xlink:href="#DejaVuSans-69" x="519.818359"/>
      <use xlink:href="#DejaVuSans-76" x="547.601562"/>
      <use xlink:href="#DejaVuSans-65" x="606.78125"/>
      <use xlink:href="#DejaVuSans-20" x="668.304688"/>
      <use xlink:href="#DejaVuSans-52" x="700.091797"/>
      <use xlink:href="#DejaVuSans-61" x="767.324219"/>
      <use xlink:href="#DejaVuSans-74" x="828.603516"/>
      <use xlink:href="#DejaVuSans-65" x="867.8125"/>
     </g>
    </g>
   </g>
   <g id="matplotlib.axis_2">
    <g id="ytick_1">
     <g id="line2d_7">
      <defs>
       <path id="m19dbb76a06" d="M 0 0 
L -3.5 0 
" style="stroke: #000000; stroke-width: 0.8"/>
      </defs>
      <g>
       <use xlink:href="#m19dbb76a06" x="57.6" y="307.584" style="stroke: #000000; stroke-width: 0.8"/>
      </g>
     </g>
     <g id="text_8">
      <!-- 0.0 -->
      <g transform="translate(34.696875 311.383219)scale(0.1 -0.1)">
       <use xlink:href="#DejaVuSans-30"/>
       <use xlink:href="#DejaVuSans-2e" x="63.623047"/>
       <use xlink:href="#DejaVuSans-30" x="95.410156"/>
      </g>
     </g>
    </g>
    <g id="ytick_2">
     <g id="line2d_8">
      <g>
       <use xlink:href="#m19dbb76a06" x="57.6" y="256.896" style="stroke: #000000; stroke-width: 0.8"/>
      </g>
     </g>
     <g id="text_9">
      <!-- 0.2 -->
      <g transform="translate(34.696875 260.695219)scale(0.1 -0.1)">
       <use xlink:href="#DejaVuSans-30"/>
       <use xlink:href="#DejaVuSans-2e" x="63.623047"/>
       <use xlink:href="#DejaVuSans-32" x="95.410156"/>
      </g>
     </g>
    </g>
    <g id="ytick_3">
     <g id="line2d_9">
      <g>
       <use xlink:href="#m19dbb76a06" x="57.6" y="206.208" style="stroke: #000000; stroke-width: 0.8"/>
      </g>
     </g>
     <g id="text_10">
      <!-- 0.4 -->
      <g transform="translate(34.696875 210.007219)scale(0.1 -0.1)">
       <use xlink:href="#DejaVuSans-30"/>
       <use xlink:href="#DejaVuSans-2e" x="63.623047"/>
       <use xlink:href="#DejaVuSans-34" x="95.410156"/>
      </g>
     </g>
    </g>
    <g id="ytick_4">
     <g id="line2d_10">
      <g>
       <use xlink:href="#m19dbb76a06" x="57.6" y="155.52" style="stroke: #000000; stroke-width: 0.8"/>
      </g>
     </g>
     <g id="text_11">
      <!-- 0.6 -->
      <g transform="translate(34.696875 159.319219)scale(0.1 -0.1)">
       <use xlink:href="#DejaVuSans-30"/>
       <use xlink:href="#DejaVuSans-2e" x="63.623047"/>
       <use xlink:href="#DejaVuSans-36" x="95.410156"/>
      </g>
     </g>
    </g>
    <g id="ytick_5">
     <g id="line2d_11">
      <g>
       <use xlink:href="#m19dbb76a06" x="57.6" y="104.832" style="stroke: #000000; stroke-width: 0.8"/>
      </g>
     </g>
     <g id="text_12">
      <!-- 0.8 -->
      <g transform="translate(34.696875 108.631219)scale(0.1 -0.1)">
       <use xlink:href="#DejaVuSans-30"/>
       <use xlink:href="#DejaVuSans-2e" x="63.623047"/>
       <use xlink:href="#DejaVuSans-38" x="95.410156"/>
      </g>
     </g>
    </g>
    <g id="ytick_6">
     <g id="line2d_12">
      <g>
       <use xlink:href="#m19dbb76a06" x="57.6" y="54.144" style="stroke: #000000; stroke-width: 0.8"/>
      </g>
     </g>
     <g id="text_13">
      <!-- 1.0 -->
      <g transform="translate(34.696875 57.943219)scale(0.1 -0.1)">
       <use xlink:href="#DejaVuSans-31"/>
       <use xlink:href="#DejaVuSans-2e" x="63.623047"/>
       <use xlink:href="#DejaVuSans-30" x="95.410156"/>
      </g>
     </g>
    </g>
    <g id="text_14">
     <!-- True Positive Rate -->
     <g transform="translate(28.617187 219.057687)rotate(-90)scale(0.1 -0.1)">
      <defs>
       <path id="DejaVuSans-54" d="M -19 4666 
L 3928 4666 
L 3928 4134 
L 2272 4134 
L 2272 0 
L 1638 0 
L 1638 4134 
L -19 4134 
L -19 4666 
z
" transform="scale(0.015625)"/>
       <path id="DejaVuSans-72" d="M 2631 2963 
Q 2534 3019 2420 3045 
Q 2306 3072 2169 3072 
Q 1681 3072 1420 2755 
Q 1159 2438 1159 1844 
L 1159 0 
L 581 0 
L 581 3500 
L 1159 3500 
L 1159 2956 
Q 1341 3275 1631 3429 
Q 1922 3584 2338 3584 
Q 2397 3584 2469 3576 
Q 2541 3569 2628 3553 
L 2631 2963 
z
" transform="scale(0.015625)"/>
       <path id="DejaVuSans-75" d="M 544 1381 
L 544 3500 
L 1119 3500 
L 1119 1403 
Q 1119 906 1312 657 
Q 1506 409 1894 409 
Q 2359 409 2629 706 
Q 2900 1003 2900 1516 
L 2900 3500 
L 3475 3500 
L 3475 0 
L 2900 0 
L 2900 538 
Q 2691 219 2414 64 
Q 2138 -91 1772 -91 
Q 1169 -91 856 284 
Q 544 659 544 1381 
z
M 1991 3584 
L 1991 3584 
z
" transform="scale(0.015625)"/>
      </defs>
      <use xlink:href="#DejaVuSans-54"/>
      <use xlink:href="#DejaVuSans-72" x="46.333984"/>
      <use xlink:href="#DejaVuSans-75" x="87.447266"/>
      <use xlink:href="#DejaVuSans-65" x="150.826172"/>
      <use xlink:href="#DejaVuSans-20" x="212.349609"/>
      <use xlink:href="#DejaVuSans-50" x="244.136719"/>
      <use xlink:href="#DejaVuSans-6f" x="300.814453"/>
      <use xlink:href="#DejaVuSans-73" x="361.996094"/>
      <use xlink:href="#DejaVuSans-69" x="414.095703"/>
      <use xlink:href="#DejaVuSans-74" x="441.878906"/>
      <use xlink:href="#DejaVuSans-69" x="481.087891"/>
      <use xlink:href="#DejaVuSans-76" x="508.871094"/>
      <use xlink:href="#DejaVuSans-65" x="568.050781"/>
      <use xlink:href="#DejaVuSans-20" x="629.574219"/>
      <use xlink:href="#DejaVuSans-52" x="661.361328"/>
      <use xlink:href="#DejaVuSans-61" x="728.59375"/>
      <use xlink:href="#DejaVuSans-74" x="789.873047"/>
      <use xlink:href="#DejaVuSans-65" x="829.082031"/>
     </g>
    </g>
   </g>
   <g id="line2d_13">
    <path d="M 74.605714 307.584 
L 74.688239 307.474303 
L 74.798216 307.15556 
L 74.799335 307.15556 
L 74.834335 307.045862 
L 74.944603 306.729189 
L 74.945432 306.729189 
L 74.980391 306.619492 
L 75.089912 306.20347 
L 75.091488 306.20347 
L 75.133455 306.093773 
L 75.244095 305.671542 
L 75.24451 305.671542 
L 75.282206 305.561845 
L 75.391416 305.209986 
L 75.393302 305.209986 
L 75.426188 305.100288 
L 75.536994 304.74636 
L 75.537284 304.74636 
L 75.564945 304.636662 
L 75.676041 304.266175 
L 75.712534 304.158548 
L 75.712534 304.156478 
L 75.823631 303.761154 
L 75.851208 303.655596 
L 75.961227 303.27476 
L 75.962098 303.27476 
L 75.994319 303.165063 
L 76.105126 302.767669 
L 76.105416 302.767669 
L 76.142946 302.657972 
L 76.253835 302.200555 
L 76.254001 302.200555 
L 76.283942 302.090858 
L 76.395039 301.676906 
L 76.431615 301.567209 
L 76.542214 301.178094 
L 76.542712 301.178094 
L 76.567386 301.068397 
L 76.677529 300.6917 
L 76.678483 300.6917 
L 76.711327 300.582003 
L 76.821013 300.219795 
L 76.822423 300.219795 
L 76.84913 300.110098 
L 76.957199 299.733402 
L 76.960206 299.733402 
L 76.990333 299.623704 
L 77.101181 299.220101 
L 77.10143 299.220101 
L 77.130624 299.110404 
L 77.241348 298.733708 
L 77.24168 298.733708 
L 77.272616 298.62401 
L 77.383381 298.174873 
L 77.383712 298.174873 
L 77.416307 298.065175 
L 77.526699 297.68227 
L 77.527404 297.68227 
L 77.554318 297.572573 
L 77.665207 297.183458 
L 77.665373 297.183458 
L 77.699627 297.07376 
L 77.810558 296.672227 
L 77.810724 296.672227 
L 77.837264 296.561495 
L 77.946702 296.192043 
L 77.948319 296.192043 
L 77.980707 296.082346 
L 78.091679 295.684952 
L 78.091804 295.684952 
L 78.120542 295.575254 
L 78.229379 295.188209 
L 78.231639 295.188209 
L 78.26695 295.077477 
L 78.377611 294.631444 
L 78.378047 294.631444 
L 78.493518 294.194725 
L 78.529141 294.085028 
L 78.638993 293.689703 
L 78.640237 293.689703 
L 78.672749 293.580006 
L 78.783597 293.170194 
L 78.783846 293.170194 
L 78.815902 293.060497 
L 78.926211 292.675521 
L 78.926999 292.675521 
L 78.95694 292.565824 
L 79.067746 292.17257 
L 79.067953 292.17257 
L 79.100714 292.061837 
L 79.211749 291.667548 
L 79.211811 291.667548 
L 79.241213 291.557851 
L 79.352227 291.141829 
L 79.35231 291.141829 
L 79.383868 291.032132 
L 79.49484 290.61818 
L 79.520136 290.508483 
L 79.520136 290.507448 
L 79.640522 290.044857 
L 79.669883 289.935159 
L 79.780606 289.469463 
L 79.780897 289.469463 
L 79.810132 289.359766 
L 79.921105 288.956163 
L 79.921229 288.956163 
L 79.95851 288.846466 
L 80.06886 288.370421 
L 80.069586 288.370421 
L 80.107427 288.260724 
L 80.107427 288.259689 
L 80.226196 287.877818 
L 80.25651 287.768121 
L 80.367482 287.43282 
L 80.367607 287.43282 
L 80.486645 287.037496 
L 80.517104 286.927799 
L 80.62818 286.476591 
L 80.653269 286.365859 
L 80.763889 285.97157 
L 80.764366 285.97157 
L 80.797603 285.861872 
L 80.797603 285.860838 
L 80.931011 285.303037 
L 80.960288 285.19334 
L 80.960288 285.192305 
L 81.079637 284.779388 
L 81.119863 284.669691 
L 81.229674 284.319901 
L 81.230959 284.319901 
L 81.261211 284.210204 
L 81.390907 283.746578 
L 81.425741 283.636881 
L 81.536237 283.268464 
L 81.536838 283.268464 
L 81.57499 283.158766 
L 81.685029 282.78207 
L 81.686045 282.78207 
L 81.715696 282.672373 
L 81.715696 282.671338 
L 81.834693 282.277049 
L 81.873985 282.166317 
L 81.984086 281.796864 
L 81.985082 281.796864 
L 82.0206 281.687167 
L 82.136259 281.23182 
L 82.166386 281.122123 
L 82.277483 280.772333 
L 82.30676 280.664706 
L 82.417525 280.298358 
L 82.417857 280.298358 
L 82.455262 280.188661 
L 82.566152 279.828523 
L 82.566359 279.828523 
L 82.604179 279.718826 
L 82.71511 279.309013 
L 82.715193 279.309013 
L 82.744429 279.199316 
L 82.744429 279.198281 
L 82.874643 278.723271 
L 82.904833 278.613574 
L 83.01593 278.234808 
L 83.045166 278.125111 
L 83.156014 277.758763 
L 83.156242 277.758763 
L 83.188567 277.649066 
L 83.299291 277.237184 
L 83.299643 277.237184 
L 83.340221 277.127487 
L 83.45053 276.721814 
L 83.451276 276.721814 
L 83.480927 276.612117 
L 83.591319 276.249909 
L 83.592024 276.249909 
L 83.624307 276.140211 
L 83.743677 275.72419 
L 83.772208 275.614492 
L 83.88202 275.239866 
L 83.883305 275.239866 
L 83.913723 275.130169 
L 84.032844 274.730705 
L 84.069088 274.621008 
L 84.17977 274.252591 
L 84.180185 274.252591 
L 84.211805 274.141858 
L 84.321347 273.784825 
L 84.322798 273.784825 
L 84.35332 273.675128 
L 84.463048 273.290152 
L 84.464334 273.290152 
L 84.494648 273.17942 
L 84.61267 272.832735 
L 84.647131 272.723038 
L 84.75715 272.340133 
L 84.758228 272.340133 
L 84.790242 272.230435 
L 84.790242 272.2294 
L 84.918798 271.793716 
L 84.951745 271.682984 
L 85.070452 271.301113 
L 85.111029 271.191416 
L 85.111029 271.190381 
L 85.23071 270.762976 
L 85.263658 270.653278 
L 85.374298 270.286931 
L 85.374754 270.286931 
L 85.407723 270.177234 
L 85.518405 269.798468 
L 85.518819 269.798468 
L 85.549673 269.687736 
L 85.660769 269.330702 
L 85.698465 269.221005 
L 85.808276 268.780146 
L 85.809541 268.780146 
L 85.846366 268.670449 
L 85.956861 268.258567 
L 85.957463 268.258567 
L 86.004012 268.148869 
L 86.114964 267.770103 
L 86.115109 267.770103 
L 86.149694 267.660406 
L 86.258718 267.287849 
L 86.26075 267.287849 
L 86.291686 267.177117 
L 86.402617 266.824223 
L 86.402783 266.824223 
L 86.428245 266.714526 
L 86.539093 266.327481 
L 86.539321 266.327481 
L 86.578198 266.217784 
L 86.689046 265.867994 
L 86.689274 265.867994 
L 86.720086 265.757262 
L 86.839767 265.325717 
L 86.88358 265.214985 
L 86.99393 264.833114 
L 86.994676 264.833114 
L 87.03345 264.723417 
L 87.03345 264.722382 
L 87.153235 264.286698 
L 87.18867 264.177001 
L 87.18867 264.175966 
L 87.353387 263.510538 
L 87.406779 263.400841 
L 87.521401 263.044842 
L 87.557417 262.935145 
L 87.668431 262.560518 
L 87.668451 262.560518 
L 87.697957 262.450821 
L 87.808556 262.109311 
L 87.809054 262.109311 
L 87.847206 261.999613 
L 87.958178 261.614638 
L 87.958219 261.614638 
L 87.99465 261.504941 
L 88.104752 261.142733 
L 88.105726 261.142733 
L 88.144998 261.032001 
L 88.253275 260.706014 
L 88.256053 260.706014 
L 88.293873 260.596316 
L 88.404223 260.258945 
L 88.404928 260.258945 
L 88.449342 260.149248 
L 88.449342 260.148213 
L 88.567738 259.782901 
L 88.609166 259.673204 
L 88.719516 259.393786 
L 88.720242 259.393786 
L 88.746471 259.284089 
L 88.857112 258.880486 
L 88.857568 258.880486 
L 88.908969 258.770788 
L 89.023611 258.41479 
L 89.060416 258.304057 
L 89.180117 257.874582 
L 89.317029 257.448212 
L 89.352091 257.338515 
L 89.466899 256.965958 
L 89.502625 256.856261 
L 89.625914 256.450588 
L 89.660417 256.34089 
L 89.769709 256.009729 
L 89.771513 256.009729 
L 89.797556 255.900032 
L 89.915869 255.539893 
L 89.947593 255.429161 
L 90.065864 255.072128 
L 90.107727 254.962431 
L 90.222224 254.62299 
L 90.251626 254.512258 
L 90.361707 254.198689 
L 90.362723 254.198689 
L 90.391171 254.088992 
L 90.506103 253.701947 
L 90.543882 253.59225 
L 90.654689 253.261088 
L 90.654979 253.261088 
L 90.694271 253.151391 
L 90.816088 252.795392 
L 90.8599 252.685695 
L 90.978669 252.302789 
L 91.021486 252.193092 
L 91.132168 251.828814 
L 91.132583 251.828814 
L 91.160948 251.719117 
L 91.275901 251.334142 
L 91.309574 251.226514 
L 91.309574 251.22341 
L 91.419676 250.901562 
L 91.42065 250.901562 
L 91.46015 250.791865 
L 91.571081 250.464843 
L 91.571164 250.464843 
L 91.598368 250.354111 
L 91.709444 250.011565 
L 91.752344 249.901868 
L 91.863316 249.595544 
L 91.863441 249.595544 
L 91.901634 249.485846 
L 92.012275 249.177452 
L 92.012731 249.177452 
L 92.0542 249.067755 
L 92.16511 248.740733 
L 92.165297 248.740733 
L 92.20716 248.631036 
L 92.322051 248.24813 
L 92.354149 248.138433 
L 92.464789 247.770016 
L 92.465246 247.770016 
L 92.504496 247.660318 
L 92.615531 247.30018 
L 92.615572 247.30018 
L 92.656295 247.189448 
L 92.78116 246.846903 
L 92.815165 246.736171 
L 92.933311 246.383277 
L 92.972189 246.272545 
L 93.089485 245.963116 
L 93.123387 245.852383 
L 93.246696 245.549164 
L 93.280494 245.438431 
L 93.391549 245.102096 
L 93.431609 244.991363 
L 93.54171 244.684004 
L 93.542664 244.684004 
L 93.580194 244.573272 
L 93.690834 244.243145 
L 93.69127 244.243145 
L 93.724528 244.132413 
L 93.842861 243.77124 
L 93.88064 243.660508 
L 93.991654 243.291056 
L 93.991695 243.291056 
L 94.026156 243.183428 
L 94.026156 243.181359 
L 94.140239 242.883313 
L 94.178847 242.772581 
L 94.289902 242.474536 
L 94.330293 242.363804 
L 94.441307 242.094735 
L 94.441349 242.094735 
L 94.478319 241.984003 
L 94.588358 241.653876 
L 94.589332 241.653876 
L 94.626572 241.544179 
L 94.626572 241.543144 
L 94.764873 241.092971 
L 94.812438 240.983274 
L 94.930605 240.631415 
L 94.975185 240.521717 
L 95.092668 240.202974 
L 95.131483 240.093277 
L 95.131483 240.092242 
L 95.250584 239.691744 
L 95.290975 239.582047 
L 95.40201 239.284001 
L 95.402051 239.284001 
L 95.450197 239.174304 
L 95.561024 238.86177 
L 95.561294 238.86177 
L 95.602888 238.751038 
L 95.720806 238.408493 
L 95.754645 238.298796 
L 95.872916 237.940727 
L 95.917288 237.83103 
L 96.027846 237.493659 
L 96.028344 237.493659 
L 96.058409 237.383962 
L 96.168821 237.011405 
L 96.169506 237.011405 
L 96.210768 236.901708 
L 96.210768 236.900673 
L 96.335715 236.556058 
L 96.368144 236.446361 
L 96.485565 236.131757 
L 96.527387 236.02206 
L 96.638256 235.68055 
L 96.638484 235.68055 
L 96.670291 235.570852 
L 96.784913 235.216923 
L 96.827958 235.107226 
L 96.946063 234.755367 
L 96.987367 234.64567 
L 96.987367 234.644635 
L 97.105202 234.308299 
L 97.148185 234.198602 
L 97.256462 233.892277 
L 97.25924 233.892277 
L 97.307967 233.78258 
L 97.307967 233.781545 
L 97.432956 233.43693 
L 97.478116 233.327233 
L 97.594811 233.047815 
L 97.635327 232.938118 
L 97.746341 232.623515 
L 97.746424 232.623515 
L 97.794176 232.513817 
L 97.903925 232.215772 
L 97.905252 232.215772 
L 97.944067 232.10504 
L 98.053712 231.781122 
L 98.055164 231.781122 
L 98.103144 231.671425 
L 98.236945 231.296799 
L 98.277979 231.187101 
L 98.388371 230.845591 
L 98.389014 230.845591 
L 98.423164 230.735894 
L 98.533639 230.419221 
L 98.53424 230.419221 
L 98.57515 230.308488 
L 98.685997 230.028036 
L 98.686184 230.028036 
L 98.731116 229.918339 
L 98.841446 229.630642 
L 98.842213 229.630642 
L 98.896849 229.520945 
L 99.010786 229.224969 
L 99.048109 229.115272 
L 99.15821 228.806878 
L 99.159164 228.806878 
L 99.201193 228.696146 
L 99.344222 228.301856 
L 99.378869 228.192159 
L 99.489448 227.908602 
L 99.489966 227.908602 
L 99.523722 227.798905 
L 99.523722 227.79787 
L 99.640666 227.504999 
L 99.676081 227.394267 
L 99.799701 227.082768 
L 99.838392 226.973071 
L 99.838392 226.972036 
L 99.956954 226.598444 
L 99.994318 226.488747 
L 99.994318 226.487712 
L 100.119555 226.136888 
L 100.172657 226.026156 
L 100.289705 225.729145 
L 100.332957 225.619448 
L 100.441752 225.327612 
L 100.444054 225.327612 
L 100.483616 225.217915 
L 100.483616 225.21688 
L 100.608024 224.886753 
L 100.64713 224.777056 
L 100.764654 224.456243 
L 100.805212 224.346546 
L 100.805212 224.345511 
L 100.929931 224.007105 
L 100.970343 223.897408 
L 101.081274 223.597293 
L 101.081398 223.597293 
L 101.12067 223.487595 
L 101.242632 223.127457 
L 101.277424 223.01776 
L 101.395716 222.659692 
L 101.451389 222.548959 
L 101.561926 222.220903 
L 101.56232 222.220903 
L 101.601757 222.111205 
L 101.715487 221.842137 
L 101.761 221.732439 
L 101.871848 221.426115 
L 101.872055 221.426115 
L 101.923311 221.316418 
L 101.923311 221.315383 
L 102.040131 221.030791 
L 102.074633 220.921093 
L 102.185357 220.633397 
L 102.185689 220.633397 
L 102.224525 220.522665 
L 102.348519 220.202887 
L 102.392165 220.092155 
L 102.502764 219.786865 
L 102.503241 219.786865 
L 102.546038 219.677168 
L 102.664288 219.31703 
L 102.7109 219.206298 
L 102.834893 218.88652 
L 102.873875 218.776822 
L 102.984722 218.466359 
L 102.984909 218.466359 
L 103.031915 218.357696 
L 103.143011 218.058616 
L 103.19348 217.948919 
L 103.304494 217.605339 
L 103.304535 217.605339 
L 103.340572 217.495641 
L 103.340572 217.494606 
L 103.465478 217.152061 
L 103.50703 217.042364 
L 103.624493 216.725691 
L 103.665796 216.615993 
L 103.784212 216.249646 
L 103.826926 216.139949 
L 103.937566 215.831554 
L 103.93796 215.831554 
L 103.984696 215.720822 
L 104.10164 215.430021 
L 104.142757 215.320324 
L 104.253854 215.00986 
L 104.299802 214.902232 
L 104.299802 214.900163 
L 104.417762 214.556583 
L 104.462902 214.44585 
L 104.580779 214.107445 
L 104.612005 213.997747 
L 104.735709 213.683144 
L 104.775747 213.572412 
L 104.885019 213.265053 
L 104.886844 213.265053 
L 104.930325 213.155355 
L 104.930325 213.15432 
L 105.051789 212.809705 
L 105.093113 212.700008 
L 105.203463 212.375056 
L 105.204189 212.375056 
L 105.242113 212.265359 
L 105.242113 212.264324 
L 105.365733 211.952825 
L 105.403263 211.843128 
L 105.513738 211.609245 
L 105.514298 211.609245 
L 105.563522 211.499548 
L 105.680839 211.189084 
L 105.722474 211.079386 
L 105.845908 210.669574 
L 105.887793 210.559877 
L 105.997935 210.265971 
L 105.998889 210.265971 
L 106.039239 210.156274 
L 106.152824 209.901693 
L 106.192013 209.791996 
L 106.192013 209.790961 
L 106.309972 209.448416 
L 106.354075 209.338718 
L 106.468572 208.993069 
L 106.504858 208.885441 
L 106.614524 208.583256 
L 106.615955 208.583256 
L 106.659021 208.473559 
L 106.781128 208.200351 
L 106.834934 208.089619 
L 106.945845 207.821585 
L 106.945907 207.821585 
L 106.989512 207.711887 
L 107.105937 207.446958 
L 107.145105 207.337261 
L 107.145105 207.336226 
L 107.262547 207.020588 
L 107.312103 206.91089 
L 107.426061 206.625264 
L 107.470765 206.514531 
L 107.593763 206.217521 
L 107.629966 206.107824 
L 107.741022 205.789081 
L 107.787301 205.679383 
L 107.901301 205.389617 
L 107.950152 205.27992 
L 108.066806 205.002572 
L 108.115325 204.892875 
L 108.226111 204.615527 
L 108.226401 204.615527 
L 108.275501 204.50583 
L 108.385333 204.230552 
L 108.386577 204.230552 
L 108.439803 204.119819 
L 108.54922 203.849716 
L 108.550837 203.849716 
L 108.591457 203.740019 
L 108.705664 203.429555 
L 108.761502 203.318822 
L 108.884356 203.025952 
L 108.937229 202.915219 
L 109.04561 202.628558 
L 109.048326 202.628558 
L 109.079055 202.51886 
L 109.188824 202.18149 
L 109.190131 202.18149 
L 109.238691 202.071792 
L 109.238691 202.070757 
L 109.358891 201.844119 
L 109.405958 201.734421 
L 109.526324 201.426027 
L 109.572355 201.315295 
L 109.683286 201.012075 
L 109.683368 201.012075 
L 109.725771 200.902378 
L 109.725771 200.901343 
L 109.862351 200.587775 
L 109.916883 200.478077 
L 110.035092 200.122079 
L 110.085042 200.012381 
L 110.194894 199.708127 
L 110.196138 199.708127 
L 110.245529 199.59843 
L 110.365168 199.314872 
L 110.425257 199.205175 
L 110.535898 198.898851 
L 110.536354 198.898851 
L 110.583007 198.789153 
L 110.694 198.501457 
L 110.694083 198.501457 
L 110.747226 198.39176 
L 110.857991 198.143388 
L 110.858095 198.143388 
L 110.901638 198.032656 
L 111.027539 197.78946 
L 111.077199 197.681832 
L 111.188088 197.385856 
L 111.188254 197.385856 
L 111.226074 197.276159 
L 111.336756 197.031928 
L 111.33715 197.031928 
L 111.403232 196.92223 
L 111.403232 196.921195 
L 111.520217 196.628324 
L 111.571162 196.517592 
L 111.68736 196.264047 
L 111.737953 196.154349 
L 111.737953 196.153315 
L 111.853549 195.924606 
L 111.9024 195.814909 
L 112.012957 195.537561 
L 112.013476 195.537561 
L 112.065541 195.427864 
L 112.17614 195.140167 
L 112.176617 195.140167 
L 112.216614 195.03047 
L 112.326923 194.786238 
L 112.32769 194.786238 
L 112.376105 194.676541 
L 112.485668 194.413682 
L 112.487161 194.413682 
L 112.539039 194.303984 
L 112.649265 194.061822 
L 112.650136 194.061822 
L 112.689117 193.952125 
L 112.799384 193.64994 
L 112.800151 193.64994 
L 112.851802 193.540243 
L 112.960804 193.291872 
L 112.962774 193.291872 
L 113.007727 193.182175 
L 113.007727 193.18114 
L 113.138729 192.853083 
L 113.187725 192.743386 
L 113.304047 192.482596 
L 113.345724 192.372899 
L 113.455182 192.118318 
L 113.4568 192.118318 
L 113.496859 192.008621 
L 113.607749 191.772668 
L 113.607914 191.772668 
L 113.656724 191.661936 
L 113.765996 191.402181 
L 113.767759 191.402181 
L 113.809912 191.292484 
L 113.937369 191.023415 
L 113.990304 190.913718 
L 114.101318 190.696393 
L 114.101401 190.696393 
L 114.152139 190.586696 
L 114.152139 190.585661 
L 114.292513 190.298999 
L 114.348144 190.189302 
L 114.458744 189.959559 
L 114.459096 189.959559 
L 114.505314 189.849862 
L 114.616328 189.636676 
L 114.61641 189.636676 
L 114.661612 189.525944 
L 114.786415 189.301375 
L 114.833648 189.190643 
L 114.949597 188.949516 
L 115.002222 188.839819 
L 115.115371 188.634913 
L 115.157089 188.52418 
L 115.267066 188.280984 
L 115.268165 188.280984 
L 115.319608 188.171286 
L 115.319608 188.170252 
L 115.435142 187.949822 
L 115.481547 187.840125 
L 115.592229 187.583475 
L 115.592602 187.583475 
L 115.648046 187.472743 
L 115.758438 187.264732 
L 115.759102 187.264732 
L 115.839615 187.155034 
L 115.953303 186.894245 
L 116.004642 186.784547 
L 116.004642 186.783513 
L 116.121089 186.517548 
L 116.182194 186.407851 
L 116.303741 186.147062 
L 116.352737 186.037364 
L 116.352737 186.036329 
L 116.48799 185.739319 
L 116.525706 185.629622 
L 116.646258 185.395739 
L 116.713107 185.285007 
L 116.822794 185.054228 
L 116.824183 185.054228 
L 116.881556 184.946601 
L 116.881556 184.945566 
L 116.996219 184.677532 
L 117.054027 184.567835 
L 117.054027 184.5668 
L 117.171137 184.26358 
L 117.221979 184.153883 
L 117.342904 183.909651 
L 117.38711 183.799954 
L 117.496755 183.553653 
L 117.498207 183.553653 
L 117.567917 183.442921 
L 117.678848 183.220421 
L 117.678993 183.220421 
L 117.732634 183.110724 
L 117.732634 183.109689 
L 117.877486 182.835446 
L 117.929282 182.724714 
L 118.050456 182.475308 
L 118.112909 182.365611 
L 118.23344 182.131728 
L 118.273789 182.022031 
L 118.384617 181.77159 
L 118.384845 181.77159 
L 118.460195 181.661892 
L 118.5738 181.411451 
L 118.630655 181.301754 
L 118.741607 181.088569 
L 118.741731 181.088569 
L 118.79249 180.977837 
L 118.902923 180.722221 
L 118.903545 180.722221 
L 118.957144 180.612524 
L 119.067121 180.401409 
L 119.068241 180.401409 
L 119.12974 180.290677 
L 119.250458 180.051619 
L 119.303684 179.940887 
L 119.418886 179.734946 
L 119.4684 179.625249 
L 119.579435 179.428622 
L 119.579497 179.428622 
L 119.650078 179.318924 
L 119.650078 179.31789 
L 119.765757 179.087111 
L 119.83385 178.977414 
L 119.944636 178.774578 
L 119.944947 178.774578 
L 119.997696 178.663845 
L 120.108461 178.468253 
L 120.108793 178.468253 
L 120.146882 178.357521 
L 120.263681 178.072929 
L 120.308385 177.963232 
L 120.419295 177.729349 
L 120.419482 177.729349 
L 120.483967 177.619652 
L 120.601471 177.406466 
L 120.657807 177.296769 
L 120.768447 177.085654 
L 120.768883 177.085654 
L 120.81199 176.975956 
L 120.921988 176.793818 
L 120.923066 176.793818 
L 120.979382 176.68412 
L 121.095642 176.4254 
L 121.149386 176.316738 
L 121.26324 176.108727 
L 121.313522 175.997995 
L 121.428932 175.783775 
L 121.485579 175.673043 
L 121.618986 175.3988 
L 121.667837 175.289102 
L 121.780717 175.104894 
L 121.840952 174.995196 
L 121.954122 174.788221 
L 122.00797 174.677488 
L 122.118258 174.438431 
L 122.119004 174.438431 
L 122.170655 174.328734 
L 122.285732 174.130037 
L 122.34041 174.02034 
L 122.450491 173.807154 
L 122.451507 173.807154 
L 122.509937 173.696422 
L 122.619126 173.509109 
L 122.620951 173.509109 
L 122.66974 173.398377 
L 122.777851 173.211064 
L 122.780836 173.211064 
L 122.837525 173.101366 
L 122.950612 172.89439 
L 123.014227 172.784693 
L 123.014227 172.783658 
L 123.129885 172.55702 
L 123.175211 172.446287 
L 123.291491 172.186533 
L 123.356723 172.075801 
L 123.464772 171.876069 
L 123.46782 171.876069 
L 123.533196 171.766371 
L 123.642779 171.573884 
L 123.644293 171.573884 
L 123.731109 171.464187 
L 123.8409 171.26342 
L 123.842206 171.26342 
L 123.905385 171.153723 
L 123.905385 171.152688 
L 124.040782 170.9157 
L 124.084325 170.806003 
L 124.197496 170.594887 
L 124.255387 170.484155 
L 124.363933 170.290633 
L 124.366484 170.290633 
L 124.433021 170.179901 
L 124.54362 169.996727 
L 124.544118 169.996727 
L 124.608126 169.885995 
L 124.718186 169.71317 
L 124.719202 169.71317 
L 124.781614 169.603473 
L 124.891632 169.390287 
L 124.89271 169.390287 
L 124.947118 169.279555 
L 125.068168 169.032219 
L 125.129418 168.921487 
L 125.239292 168.709336 
L 125.240515 168.709336 
L 125.293036 168.598604 
L 125.414604 168.338849 
L 125.472495 168.228117 
L 125.580295 168.055292 
L 125.583592 168.055292 
L 125.641193 167.94456 
L 125.751211 167.715852 
L 125.752269 167.715852 
L 125.831372 167.60512 
L 125.946408 167.409527 
L 126.014335 167.298795 
L 126.137126 167.107342 
L 126.198128 166.997645 
L 126.198128 166.99661 
L 126.323552 166.761693 
L 126.382999 166.65096 
L 126.493432 166.445019 
L 126.494075 166.445019 
L 126.546762 166.335322 
L 126.658957 166.115928 
L 126.728149 166.005195 
L 126.838562 165.824091 
L 126.839246 165.824091 
L 126.912419 165.714394 
L 127.028305 165.476372 
L 127.094698 165.36564 
L 127.205504 165.143141 
L 127.205794 165.143141 
L 127.253858 165.033443 
L 127.370428 164.853374 
L 127.432757 164.742642 
L 127.542091 164.561538 
L 127.543833 164.561538 
L 127.593285 164.451841 
L 127.701749 164.226237 
L 127.704361 164.226237 
L 127.78815 164.115505 
L 127.898542 163.926122 
L 127.899247 163.926122 
L 127.946999 163.81539 
L 128.056997 163.609449 
L 128.058096 163.609449 
L 128.113996 163.498716 
L 128.239006 163.270008 
L 128.282549 163.159276 
L 128.393273 162.99473 
L 128.393646 162.99473 
L 128.454067 162.883998 
L 128.564127 162.682196 
L 128.565122 162.682196 
L 128.643727 162.571464 
L 128.763927 162.344825 
L 128.812819 162.234093 
L 128.923833 162.042641 
L 128.923874 162.042641 
L 128.986908 161.932943 
L 128.986908 161.931908 
L 129.101716 161.746665 
L 129.155834 161.635933 
L 129.264173 161.44241 
L 129.266889 161.44241 
L 129.340186 161.332713 
L 129.451014 161.150574 
L 129.451242 161.150574 
L 129.505297 161.040877 
L 129.620209 160.850459 
L 129.703874 160.739727 
L 129.81495 160.560693 
L 129.879912 160.449961 
L 129.990552 160.291624 
L 129.990967 160.291624 
L 130.055784 160.180892 
L 130.163231 160.022555 
L 130.16688 160.022555 
L 130.233107 159.912858 
L 130.233107 159.911823 
L 130.365187 159.654138 
L 130.429838 159.543406 
L 130.548856 159.347814 
L 130.618835 159.237081 
L 130.742331 159.03321 
L 130.823052 158.923513 
L 130.936118 158.724816 
L 130.99034 158.615119 
L 131.101291 158.416422 
L 131.101395 158.416422 
L 131.176911 158.30569 
L 131.2878 158.093539 
L 131.287987 158.093539 
L 131.349092 157.982807 
L 131.463859 157.799633 
L 131.544268 157.688901 
L 131.659014 157.507797 
L 131.736189 157.397065 
L 131.863624 157.197333 
L 131.926098 157.087636 
L 132.033504 156.874451 
L 132.037091 156.874451 
L 132.094588 156.764753 
L 132.207883 156.541219 
L 132.289308 156.430487 
L 132.398435 156.245244 
L 132.400322 156.245244 
L 132.469265 156.135547 
L 132.579201 155.947198 
L 132.580341 155.947198 
L 132.639705 155.836466 
L 132.747753 155.659502 
L 132.750781 155.659502 
L 132.827706 155.54877 
L 132.935921 155.355247 
L 132.938803 155.355247 
L 133.014029 155.24555 
L 133.124524 155.044783 
L 133.125105 155.044783 
L 133.198609 154.934051 
L 133.313895 154.72604 
L 133.383024 154.615308 
L 133.497977 154.423855 
L 133.579527 154.314158 
L 133.690582 154.142368 
L 133.770701 154.032671 
L 133.880824 153.844323 
L 133.881798 153.844323 
L 133.946097 153.73359 
L 134.060532 153.564905 
L 134.154771 153.454173 
L 134.273415 153.26686 
L 134.343229 153.156127 
L 134.452314 152.981233 
L 134.454284 152.981233 
L 134.531376 152.870501 
L 134.646288 152.681118 
L 134.71718 152.570386 
L 134.82753 152.387212 
L 134.828131 152.387212 
L 134.909577 152.277515 
L 135.018435 152.080887 
L 135.020653 152.080887 
L 135.14388 151.88219 
L 135.231007 151.772493 
L 135.345608 151.598633 
L 135.425188 151.488936 
L 135.537944 151.319216 
L 135.610411 151.209519 
L 135.713629 151.02531 
L 135.721508 151.02531 
L 135.780395 150.915613 
L 135.889439 150.739683 
L 135.891388 150.739683 
L 135.967422 150.629986 
L 136.080198 150.458196 
L 136.156502 150.348499 
L 136.267433 150.170499 
L 136.267599 150.170499 
L 136.345665 150.059767 
L 136.456451 149.878663 
L 136.456762 149.878663 
L 136.523486 149.768966 
L 136.633899 149.607525 
L 136.634583 149.607525 
L 136.713188 149.497827 
L 136.822481 149.330177 
L 136.824202 149.330177 
L 136.895509 149.219445 
L 136.995637 149.034201 
L 137.006585 149.034201 
L 137.090083 148.924504 
L 137.199418 148.738226 
L 137.20118 148.738226 
L 137.276302 148.627493 
L 137.390551 148.471227 
L 137.458374 148.361529 
L 137.575276 148.218716 
L 137.629373 148.109019 
L 137.740428 147.903077 
L 137.864111 147.697136 
L 137.938383 147.586404 
L 138.049231 147.436347 
L 138.04948 147.436347 
L 138.148923 147.325615 
L 138.258216 147.167278 
L 138.26002 147.167278 
L 138.335764 147.057581 
L 138.446114 146.881651 
L 138.446861 146.881651 
L 138.522626 146.771954 
L 138.632126 146.608443 
L 138.633681 146.608443 
L 138.707144 146.498746 
L 138.817494 146.329025 
L 138.818199 146.329025 
L 138.899998 146.218293 
L 139.019243 146.016492 
L 139.096957 145.906794 
L 139.218877 145.693609 
L 139.283528 145.582877 
L 139.401322 145.416261 
L 139.48368 145.305529 
L 139.594238 145.105797 
L 139.594736 145.105797 
L 139.666996 144.995065 
L 139.776413 144.836729 
L 139.778093 144.836729 
L 139.84208 144.725996 
L 139.956453 144.56352 
L 140.04358 144.453823 
L 140.152977 144.30894 
L 140.154636 144.30894 
L 140.251425 144.198208 
L 140.359412 144.006755 
L 140.362501 144.006755 
L 140.420662 143.896023 
L 140.54109 143.743895 
L 140.621934 143.633163 
L 140.735996 143.485176 
L 140.800191 143.375478 
L 140.911122 143.193339 
L 140.911288 143.193339 
L 140.984854 143.082607 
L 141.099082 142.924271 
L 141.172877 142.814573 
L 141.281009 142.682109 
L 141.283974 142.682109 
L 141.351279 142.571377 
L 141.463474 142.4089 
L 141.537912 142.299203 
L 141.537912 142.298168 
L 141.652368 142.131553 
L 141.724193 142.020821 
L 141.833755 141.833507 
L 141.835207 141.833507 
L 141.907695 141.722775 
L 142.016159 141.576857 
L 142.018771 141.576857 
L 142.093789 141.46716 
L 142.093789 141.466125 
L 142.20837 141.292265 
L 142.299976 141.181533 
L 142.411072 140.99629 
L 142.532142 140.833813 
L 142.591506 140.723081 
L 142.701711 140.589582 
L 142.702582 140.589582 
L 142.783966 140.479884 
L 142.89357 140.291536 
L 142.895021 140.291536 
L 142.981526 140.181839 
L 143.090923 140.057654 
L 143.092623 140.057654 
L 143.195571 139.946921 
L 143.319855 139.786515 
L 143.400492 139.675783 
L 143.52094 139.523656 
L 143.609208 139.413958 
L 143.723187 139.269075 
L 143.810812 139.158343 
L 143.92166 139.033122 
L 143.921888 139.033122 
L 144.014945 138.923425 
L 144.129484 138.751635 
L 144.206555 138.640903 
L 144.316594 138.497055 
L 144.317631 138.497055 
L 144.400176 138.386323 
L 144.514196 138.240405 
L 144.60798 138.129672 
L 144.716878 137.989964 
L 144.719014 137.989964 
L 144.81485 137.880266 
L 144.930156 137.741592 
L 145.007103 137.63086 
L 145.118075 137.478733 
L 145.118178 137.478733 
L 145.209722 137.368001 
L 145.314744 137.230362 
L 145.320819 137.230362 
L 145.384744 137.120665 
L 145.497437 136.955084 
L 145.59402 136.845387 
L 145.702898 136.717061 
L 145.705117 136.717061 
L 145.804477 136.607364 
L 145.915346 136.447993 
L 145.915553 136.447993 
L 145.993371 136.338295 
L 146.10144 136.199622 
L 146.104447 136.199622 
L 146.222738 136.088889 
L 146.332301 135.959529 
L 146.333814 135.959529 
L 146.411819 135.848797 
L 146.526336 135.678042 
L 146.613028 135.568345 
L 146.613028 135.56731 
L 146.733808 135.408973 
L 146.802813 135.298241 
L 146.916606 135.163707 
L 147.007403 135.052975 
L 147.117484 134.908091 
L 147.1185 134.908091 
L 147.206747 134.797359 
L 147.317035 134.616255 
L 147.317781 134.616255 
L 147.393836 134.506558 
L 147.503855 134.374094 
L 147.504891 134.374094 
L 147.587043 134.263361 
L 147.695091 134.125722 
L 147.698139 134.125722 
L 147.794203 134.01499 
L 147.90783 133.88356 
L 148.00746 133.772828 
L 148.11526 133.608282 
L 148.118557 133.608282 
L 148.211117 133.498585 
L 148.319995 133.380609 
L 148.322192 133.380609 
L 148.414068 133.272981 
L 148.414068 133.269877 
L 148.527632 133.144656 
L 148.617849 133.033924 
L 148.727142 132.892146 
L 148.728946 132.892146 
L 148.833615 132.782448 
L 148.947676 132.635495 
L 149.047307 132.525798 
L 149.15633 132.362287 
L 149.158404 132.362287 
L 149.253825 132.25259 
L 149.364818 132.091149 
L 149.364922 132.091149 
L 149.454952 131.982486 
L 149.454952 131.980416 
L 149.569014 131.826219 
L 149.678286 131.716522 
L 149.678286 131.715487 
L 149.79695 131.592337 
L 149.902781 131.481604 
L 150.010083 131.358454 
L 150.013836 131.358454 
L 150.099014 131.247722 
L 150.213242 131.091455 
L 150.318097 130.980723 
L 150.428987 130.828595 
L 150.429152 130.828595 
L 150.509271 130.717863 
L 150.618523 130.592643 
L 150.620244 130.592643 
L 150.718858 130.48191 
L 150.829623 130.35462 
L 150.829768 130.35462 
L 150.916108 130.244923 
L 151.032575 130.112458 
L 151.113316 130.002761 
L 151.222795 129.870296 
L 151.224392 129.870296 
L 151.295159 129.759564 
L 151.403975 129.615716 
L 151.406256 129.615716 
L 151.484094 129.506019 
L 151.595191 129.341473 
L 151.715763 129.187276 
L 151.812512 129.077579 
L 151.927776 128.940974 
L 152.008517 128.830242 
L 152.119469 128.71951 
L 152.119593 128.71951 
L 152.217067 128.608778 
L 152.326298 128.466999 
L 152.328102 128.466999 
L 152.407723 128.356267 
L 152.517244 128.247605 
L 152.518799 128.247605 
L 152.605926 128.136873 
L 152.71524 128.013722 
L 152.717023 128.013722 
L 152.826689 127.90299 
L 152.935422 127.786049 
L 152.937786 127.786049 
L 153.043948 127.675316 
L 153.154132 127.552166 
L 153.155003 127.552166 
L 153.264005 127.442468 
L 153.377839 127.305864 
L 153.49443 127.195132 
L 153.603972 127.057493 
L 153.605506 127.057493 
L 153.708371 126.946761 
L 153.821396 126.850517 
L 153.908524 126.739785 
L 154.021818 126.631123 
L 154.133516 126.521425 
L 154.248947 126.378612 
L 154.366471 126.26788 
L 154.474167 126.155078 
L 154.477506 126.155078 
L 154.576431 126.044346 
L 154.686719 125.888079 
L 154.687528 125.888079 
L 154.809655 125.778382 
L 154.920503 125.676963 
L 154.920752 125.676963 
L 155.01862 125.567266 
L 155.129323 125.422383 
L 155.129675 125.422383 
L 155.218067 125.311651 
L 155.33159 125.1885 
L 155.440986 125.077768 
L 155.557682 124.987733 
L 155.651651 124.878036 
L 155.760861 124.745572 
L 155.762727 124.745572 
L 155.849585 124.634839 
L 155.962963 124.519968 
L 156.041091 124.409236 
L 156.151275 124.284015 
L 156.152167 124.284015 
L 156.249911 124.174318 
L 156.249911 124.173283 
L 156.363475 124.050132 
L 156.445564 123.940435 
L 156.558132 123.793482 
L 156.662511 123.68275 
L 156.781446 123.55546 
L 156.883751 123.444728 
L 156.99265 123.319507 
L 156.994827 123.319507 
L 157.094291 123.208775 
L 157.203854 123.102182 
L 157.205388 123.102182 
L 157.319222 122.99145 
L 157.434984 122.876579 
L 157.52294 122.765846 
L 157.638661 122.650975 
L 157.726079 122.541278 
L 157.836284 122.43365 
L 157.837175 122.43365 
L 157.959614 122.322918 
L 158.069798 122.197697 
L 158.070524 122.197697 
L 158.176209 122.088 
L 158.287306 121.986582 
L 158.383411 121.87585 
L 158.493782 121.787885 
L 158.494446 121.787885 
L 158.595196 121.677153 
L 158.708511 121.566421 
L 158.812599 121.455689 
L 158.923675 121.355305 
L 159.014348 121.245608 
L 159.125072 121.14005 
L 159.125424 121.14005 
L 159.231151 121.030353 
L 159.344839 120.902028 
L 159.455915 120.792331 
L 159.561953 120.659866 
L 159.566991 120.659866 
L 159.670914 120.549134 
L 159.776557 120.438402 
L 159.781969 120.438402 
L 159.926822 120.32767 
L 160.036446 120.19831 
L 160.037898 120.19831 
L 160.146029 120.087577 
L 160.256856 119.980985 
L 160.257126 119.980985 
L 160.341185 119.871288 
L 160.341185 119.870253 
L 160.454873 119.740893 
L 160.561533 119.630161 
L 160.676963 119.521498 
L 160.772405 119.410766 
L 160.878193 119.312452 
L 160.883481 119.312452 
L 160.986346 119.202755 
L 161.099454 119.103407 
L 161.184072 118.992675 
L 161.297927 118.855036 
L 161.408899 118.744303 
L 161.519975 118.644955 
L 161.634659 118.534223 
L 161.742977 118.420386 
L 161.745755 118.420386 
L 161.854094 118.309654 
L 161.963097 118.205131 
L 161.965191 118.205131 
L 162.081575 118.095434 
L 162.194808 117.989876 
L 162.332777 117.879144 
L 162.443334 117.776691 
L 162.443873 117.776691 
L 162.557292 117.656645 
L 162.671043 117.546948 
L 162.785872 117.420692 
L 162.921643 117.30996 
L 163.032615 117.217856 
L 163.032657 117.217856 
L 163.150534 117.108158 
L 163.258541 116.986043 
L 163.261589 116.986043 
L 163.364641 116.876345 
L 163.475198 116.725253 
L 163.475675 116.725253 
L 163.614867 116.615556 
L 163.614867 116.614521 
L 163.728577 116.483091 
L 163.819229 116.373394 
L 163.929745 116.286464 
L 163.930326 116.286464 
L 164.048368 116.176767 
L 164.048368 116.175732 
L 164.16411 116.06086 
L 164.25076 115.951163 
L 164.364739 115.853884 
L 164.500883 115.743152 
L 164.610943 115.638629 
L 164.61198 115.638629 
L 164.753121 115.527897 
L 164.866602 115.408886 
L 165.015353 115.298154 
L 165.125621 115.185352 
L 165.126347 115.185352 
L 165.274807 115.07462 
L 165.385655 114.974236 
L 165.385821 114.974236 
L 165.478858 114.863504 
L 165.585248 114.763121 
L 165.589934 114.763121 
L 165.692695 114.652389 
L 165.802382 114.533377 
L 165.803792 114.533377 
L 165.904044 114.422645 
L 166.015079 114.305704 
L 166.01512 114.305704 
L 166.145873 114.196007 
L 166.253528 114.094588 
L 166.256929 114.094588 
L 166.391186 113.983856 
L 166.501225 113.889682 
L 166.502262 113.889682 
L 166.63513 113.77895 
L 166.745729 113.686846 
L 166.746206 113.686846 
L 166.863585 113.576114 
L 166.979907 113.446754 
L 167.091564 113.337056 
L 167.207658 113.239778 
L 167.327732 113.129046 
L 167.43829 113.034871 
L 167.438829 113.034871 
L 167.585838 112.924139 
L 167.694592 112.803058 
L 167.696873 112.803058 
L 167.831773 112.693361 
L 167.942206 112.602292 
L 167.94287 112.602292 
L 168.044242 112.49156 
L 168.153286 112.401525 
L 168.155318 112.401525 
L 168.292561 112.291828 
L 168.292561 112.290793 
L 168.408323 112.175921 
L 168.535365 112.066224 
L 168.535365 112.065189 
L 168.648037 111.985503 
L 168.776427 111.874771 
L 168.890178 111.741272 
L 169.030552 111.63054 
L 169.143432 111.542575 
L 169.285859 111.431843 
L 169.394882 111.348017 
L 169.396955 111.348017 
L 169.500546 111.23832 
L 169.610938 111.136902 
L 169.611622 111.136902 
L 169.744345 111.02617 
L 169.856893 110.954763 
L 169.992706 110.845066 
L 170.102683 110.772624 
L 170.103782 110.772624 
L 170.23609 110.661892 
L 170.34897 110.573927 
L 170.472798 110.46423 
L 170.472798 110.463195 
L 170.5863 110.344184 
L 170.681306 110.233452 
L 170.794829 110.112371 
L 170.974951 110.001639 
L 171.088039 109.901255 
L 171.217299 109.791558 
L 171.325514 109.68807 
L 171.328354 109.68807 
L 171.486146 109.577338 
L 171.599025 109.489373 
L 171.757584 109.378641 
L 171.866773 109.25963 
L 171.868618 109.25963 
L 172.009988 109.149933 
L 172.116025 109.067142 
L 172.121043 109.067142 
L 172.276367 108.95641 
L 172.390698 108.876724 
L 172.492651 108.767027 
L 172.601736 108.661469 
L 172.603685 108.661469 
L 172.719883 108.550737 
L 172.834173 108.473121 
L 172.943051 108.362389 
L 173.052986 108.282703 
L 173.054127 108.282703 
L 173.208538 108.173006 
L 173.208538 108.171971 
L 173.321501 108.079867 
L 173.458392 107.97017 
L 173.458392 107.969135 
L 173.571023 107.887379 
L 173.754691 107.777682 
L 173.865767 107.692822 
L 173.983769 107.58209 
L 174.089412 107.492055 
L 174.094782 107.492055 
L 174.24345 107.382358 
L 174.24345 107.381323 
L 174.356413 107.287149 
L 174.533301 107.176417 
L 174.646119 107.090522 
L 174.79686 106.97979 
L 174.907625 106.885616 
L 174.907936 106.885616 
L 175.063053 106.774883 
L 175.172698 106.680709 
L 175.174067 106.680709 
L 175.320247 106.569977 
L 175.432587 106.50685 
L 175.554093 106.396117 
L 175.659799 106.312292 
L 175.665086 106.312292 
L 175.817445 106.202595 
L 175.929516 106.105316 
L 176.09867 105.994584 
L 176.204417 105.921108 
L 176.209642 105.921108 
L 176.376308 105.810375 
L 176.484481 105.718271 
L 176.487384 105.718271 
L 176.655937 105.607539 
L 176.766017 105.536132 
L 176.767033 105.536132 
L 176.917194 105.426435 
L 177.030157 105.333296 
L 177.2227 105.223599 
L 177.2227 105.222564 
L 177.335476 105.136669 
L 177.49615 105.025936 
L 177.60847 104.964879 
L 177.71911 104.855181 
L 177.71911 104.854146 
L 177.833628 104.770321 
L 177.984847 104.659589 
L 178.093144 104.567485 
L 178.095902 104.567485 
L 178.261282 104.456753 
L 178.373913 104.381206 
L 178.559178 104.270474 
L 178.666563 104.184579 
L 178.670254 104.184579 
L 178.808596 104.074882 
L 178.912415 104.014859 
L 178.919568 104.014859 
L 179.077215 103.904127 
L 179.18744 103.855487 
L 179.18827 103.855487 
L 179.364142 103.744755 
L 179.471092 103.673349 
L 179.475238 103.673349 
L 179.651007 103.563651 
L 179.751176 103.495349 
L 179.762083 103.495349 
L 179.897895 103.384617 
L 180.004969 103.331838 
L 180.008971 103.331838 
L 180.192246 103.221106 
L 180.306598 103.14142 
L 180.481412 103.030688 
L 180.590415 102.961351 
L 180.592467 102.961351 
L 180.782377 102.850619 
L 180.887626 102.783352 
L 180.893453 102.783352 
L 181.057527 102.673655 
L 181.169308 102.601213 
L 181.366122 102.490481 
L 181.479437 102.435632 
L 181.692093 102.3249 
L 181.804433 102.263842 
L 181.987376 102.15311 
L 182.095279 102.067215 
L 182.098452 102.067215 
L 182.319318 101.956483 
L 182.433753 101.903704 
L 182.709173 101.794007 
L 182.81915 101.723635 
L 182.820249 101.723635 
L 182.989382 101.613938 
L 183.100479 101.561159 
L 183.331546 101.450427 
L 183.437812 101.382125 
L 183.442643 101.382125 
L 183.651753 101.271392 
L 183.76426 101.202056 
L 183.979735 101.092358 
L 184.090376 101.024056 
L 184.090769 101.024056 
L 184.252148 100.913324 
L 184.350576 100.852266 
L 184.363141 100.852266 
L 184.580109 100.741534 
L 184.688656 100.686685 
L 184.691206 100.686685 
L 184.876367 100.575953 
L 184.975002 100.525244 
L 184.987339 100.525244 
L 185.18463 100.415547 
L 185.294131 100.349315 
L 185.295727 100.349315 
L 185.50971 100.238582 
L 185.625223 100.167176 
L 185.810736 100.056444 
L 185.923202 99.989176 
L 186.119394 99.878444 
L 186.23275 99.823596 
L 186.418015 99.713898 
L 186.530646 99.637317 
L 186.729202 99.526585 
L 186.842911 99.461388 
L 187.041799 99.35169 
L 187.153621 99.279249 
L 187.317612 99.168517 
L 187.423567 99.103319 
L 187.428709 99.103319 
L 187.667262 98.992587 
L 187.77952 98.933599 
L 188.019089 98.822867 
L 188.13114 98.776297 
L 188.364012 98.665565 
L 188.472205 98.600368 
L 188.475087 98.600368 
L 188.652328 98.489635 
L 188.758117 98.434787 
L 188.763404 98.434787 
L 188.967537 98.32509 
L 188.967537 98.324055 
L 189.079235 98.289904 
L 189.297448 98.180206 
L 189.409975 98.109835 
L 189.594079 98.000137 
L 189.594079 97.999102 
L 189.706005 97.956672 
L 189.917852 97.846975 
L 190.016176 97.80144 
L 190.028948 97.80144 
L 190.266983 97.690708 
L 190.376214 97.63379 
L 190.378059 97.63379 
L 190.631541 97.524093 
L 190.737185 97.476488 
L 190.742597 97.476488 
L 190.982228 97.366791 
L 190.982228 97.365756 
L 191.094237 97.317117 
L 191.299739 97.206385 
L 191.410048 97.151536 
L 191.410794 97.151536 
L 191.61472 97.040804 
L 191.723329 96.983885 
L 191.725755 96.983885 
L 191.975048 96.874188 
L 192.080795 96.826584 
L 192.086104 96.826584 
L 192.312154 96.715851 
L 192.424329 96.661003 
L 192.687494 96.550271 
L 192.800809 96.495422 
L 193.021883 96.385725 
L 193.133498 96.327772 
L 193.318079 96.218074 
L 193.42677 96.162191 
L 193.429092 96.162191 
L 193.651742 96.051459 
L 193.765265 95.99247 
L 193.966391 95.881738 
L 194.076099 95.812401 
L 194.077405 95.812401 
L 194.329104 95.701669 
L 194.443083 95.657169 
L 194.596085 95.547472 
L 194.705336 95.491589 
L 194.707181 95.491589 
L 194.98878 95.381891 
L 195.100333 95.328078 
L 195.355494 95.217345 
L 195.46769 95.158357 
L 195.711986 95.047625 
L 195.819351 94.998986 
L 195.823042 94.998986 
L 196.019586 94.888254 
L 196.131575 94.841684 
L 196.354203 94.730952 
L 196.466523 94.669894 
L 196.656205 94.559162 
L 196.771884 94.506383 
L 196.989578 94.396686 
L 196.989578 94.395651 
L 197.104137 94.340802 
L 197.377048 94.231105 
L 197.487688 94.18971 
L 197.488124 94.18971 
L 197.788342 94.078978 
L 197.900662 94.01792 
L 198.180042 93.908222 
L 198.286245 93.854409 
L 198.291118 93.854409 
L 198.509994 93.744711 
L 198.621754 93.676409 
L 198.903228 93.565677 
L 199.013433 93.508759 
L 199.014325 93.508759 
L 199.303077 93.399062 
L 199.414982 93.316271 
L 199.670745 93.206574 
L 199.780203 93.1569 
L 199.781821 93.1569 
L 200.0008 93.047202 
L 200.112436 92.993389 
L 200.399343 92.883691 
L 200.511683 92.821599 
L 200.809932 92.710867 
L 200.910806 92.672576 
L 200.921029 92.672576 
L 201.278101 92.561844 
L 201.391645 92.502856 
L 201.582446 92.393158 
L 201.582446 92.392124 
L 201.694455 92.347624 
L 201.989717 92.236892 
L 202.098139 92.173764 
L 202.100793 92.173764 
L 202.360496 92.063032 
L 202.465911 92.018532 
L 202.471551 92.018532 
L 202.758002 91.908835 
L 202.869948 91.86537 
L 203.13923 91.754638 
L 203.239669 91.718417 
L 203.250265 91.718417 
L 203.533335 91.607685 
L 203.64692 91.569394 
L 203.888376 91.458662 
L 204.002977 91.403813 
L 204.274934 91.293081 
L 204.38292 91.252721 
L 204.38601 91.252721 
L 204.639388 91.143024 
L 204.639388 91.141989 
L 204.751625 91.080931 
L 204.971538 90.971234 
L 204.971538 90.970199 
L 205.084667 90.921559 
L 205.352228 90.810827 
L 205.448209 90.764258 
L 205.4632 90.764258 
L 205.768954 90.65456 
L 205.875261 90.596607 
L 205.879968 90.596607 
L 206.160115 90.485875 
L 206.260471 90.435166 
L 206.271191 90.435166 
L 206.644997 90.325469 
L 206.757898 90.267515 
L 207.064461 90.156783 
L 207.177527 90.109179 
L 207.464496 89.998447 
L 207.578226 89.934284 
L 207.870731 89.823552 
L 207.981247 89.758354 
L 207.981827 89.758354 
L 208.265582 89.648657 
L 208.371226 89.586564 
L 208.376658 89.586564 
L 208.683512 89.476867 
L 208.683512 89.475832 
L 208.797718 89.427193 
L 209.049397 89.316461 
L 209.155952 89.253333 
L 209.160493 89.253333 
L 209.438401 89.142601 
L 209.545164 89.100171 
L 209.549477 89.100171 
L 209.808267 88.990474 
L 209.920256 88.947009 
L 210.158207 88.837311 
L 210.27117 88.777288 
L 210.487122 88.667591 
L 210.574063 88.632405 
L 210.598178 88.632405 
L 210.858627 88.522708 
L 210.858627 88.521673 
L 210.972232 88.460615 
L 211.241079 88.349883 
L 211.35342 88.288825 
L 211.635682 88.179128 
L 211.748935 88.127384 
L 212.04822 88.016652 
L 212.157264 87.961803 
L 212.159316 87.961803 
L 212.431978 87.852106 
L 212.539052 87.806571 
L 212.543075 87.806571 
L 212.756228 87.695839 
L 212.84773 87.657548 
L 212.867262 87.657548 
L 213.073138 87.546816 
L 213.184939 87.512665 
L 213.409414 87.402968 
L 213.409414 87.401933 
L 213.52136 87.357433 
L 213.779757 87.246701 
L 213.885794 87.21255 
L 213.890853 87.21255 
L 214.187111 87.102853 
L 214.299307 87.044899 
L 214.50852 86.935202 
L 214.617709 86.889668 
L 214.619596 86.889668 
L 214.855765 86.77997 
L 214.965286 86.726156 
L 214.966862 86.726156 
L 215.227248 86.615424 
L 215.339361 86.564715 
L 215.579573 86.455018 
L 215.690939 86.421902 
L 215.996445 86.31117 
L 216.105344 86.270809 
L 216.107521 86.270809 
L 216.399445 86.160077 
L 216.511537 86.111438 
L 216.782457 86.000706 
L 216.895213 85.960345 
L 217.204637 85.850648 
L 217.204637 85.849613 
L 217.317683 85.803044 
L 217.601997 85.693346 
L 217.710855 85.658161 
L 217.713032 85.658161 
L 218.014183 85.547428 
L 218.121092 85.504998 
L 218.125238 85.504998 
L 218.341336 85.394266 
L 218.446876 85.345627 
L 218.452433 85.345627 
L 218.801896 85.234895 
L 218.914112 85.180046 
L 219.158699 85.070349 
L 219.158699 85.069314 
L 219.270729 85.022744 
L 219.52502 84.912012 
L 219.634644 84.855094 
L 219.636116 84.855094 
L 219.934012 84.744362 
L 220.041543 84.695722 
L 220.045109 84.695722 
L 220.334089 84.58499 
L 220.444564 84.54049 
L 220.445144 84.54049 
L 220.724918 84.429758 
L 220.824258 84.385258 
L 220.836015 84.385258 
L 221.094349 84.274526 
L 221.206275 84.232096 
L 221.406738 84.122399 
L 221.515596 84.072725 
L 221.517773 84.072725 
L 221.803788 83.961992 
L 221.915963 83.909214 
L 222.143858 83.799516 
L 222.248693 83.751912 
L 222.254955 83.751912 
L 222.458362 83.64118 
L 222.566888 83.600819 
L 222.569459 83.600819 
L 222.877722 83.490087 
L 222.990934 83.437308 
L 223.290551 83.326576 
L 223.397584 83.284146 
L 223.401627 83.284146 
L 223.674703 83.173414 
L 223.774251 83.128914 
L 223.7858 83.128914 
L 224.066901 83.019217 
L 224.066901 83.018182 
L 224.178703 82.979892 
L 224.458373 82.869159 
L 224.557879 82.810171 
L 224.569449 82.810171 
L 224.778517 82.699439 
L 224.891563 82.652869 
L 225.129805 82.543172 
L 225.234557 82.503847 
L 225.240881 82.503847 
L 225.46212 82.393115 
L 225.57583 82.329987 
L 225.781622 82.219255 
L 225.891392 82.172685 
L 225.892719 82.172685 
L 226.156506 82.062988 
L 226.259537 82.013314 
L 226.267603 82.013314 
L 226.50939 81.902582 
L 226.617273 81.856012 
L 226.620487 81.856012 
L 226.893729 81.74528 
L 227.000285 81.696641 
L 227.004826 81.696641 
L 227.271931 81.586943 
L 227.378818 81.549688 
L 227.382903 81.549688 
L 227.627843 81.43999 
L 227.729215 81.388246 
L 227.738898 81.388246 
L 228.029785 81.277514 
L 228.138311 81.235084 
L 228.140841 81.235084 
L 228.326437 81.125387 
L 228.436995 81.079852 
L 228.437534 81.079852 
L 228.685003 80.970155 
L 228.685003 80.96912 
L 228.797613 80.893574 
L 229.063868 80.782842 
L 229.176064 80.727993 
L 229.464401 80.618296 
L 229.576078 80.589319 
L 229.867899 80.479622 
L 229.977399 80.419599 
L 229.978975 80.419599 
L 230.211971 80.308867 
L 230.315023 80.254018 
L 230.323026 80.254018 
L 230.5836 80.144321 
L 230.689907 80.092577 
L 230.694696 80.092577 
L 230.924147 79.98288 
L 230.924147 79.981845 
L 231.036363 79.926996 
L 231.339941 79.817299 
L 231.339941 79.816264 
L 231.451846 79.775904 
L 231.704312 79.666206 
L 231.814476 79.614462 
L 231.815388 79.614462 
L 232.112952 79.50373 
L 232.221581 79.46544 
L 232.224049 79.46544 
L 232.485265 79.355742 
L 232.596942 79.326766 
L 232.859589 79.216034 
L 232.962599 79.173604 
L 232.970686 79.173604 
L 233.267628 79.062871 
L 233.371198 79.012162 
L 233.378683 79.012162 
L 233.629159 78.90143 
L 233.741064 78.859 
L 234.059363 78.748268 
L 234.171497 78.697559 
L 234.436466 78.586827 
L 234.542503 78.538187 
L 234.547562 78.538187 
L 234.755117 78.42849 
L 234.866877 78.360188 
L 235.153328 78.249456 
L 235.261397 78.196677 
L 235.264424 78.196677 
L 235.478096 78.085945 
L 235.584652 78.037305 
L 235.589192 78.037305 
L 235.866478 77.926573 
L 235.96333 77.886213 
L 235.977533 77.886213 
L 236.240284 77.776516 
L 236.347959 77.735121 
L 236.351339 77.735121 
L 236.579069 77.625423 
L 236.579069 77.624388 
L 236.691223 77.57161 
L 236.913354 77.461912 
L 236.913354 77.460877 
L 237.025446 77.410168 
L 237.283697 77.299436 
L 237.388677 77.252867 
L 237.394794 77.252867 
L 237.684292 77.142134 
L 237.794663 77.087286 
L 237.795306 77.087286 
L 238.109624 76.977589 
L 238.221073 76.958961 
L 238.585673 76.848229 
L 238.694426 76.809938 
L 238.696769 76.809938 
L 238.919937 76.700241 
L 238.919937 76.699206 
L 239.033916 76.654706 
L 239.402932 76.545009 
L 239.513656 76.507753 
L 239.514008 76.507753 
L 239.776033 76.397021 
L 239.88912 76.348382 
L 240.163855 76.237649 
L 240.27601 76.184871 
L 240.578239 76.074138 
L 240.690227 76.029639 
L 241.021983 75.918906 
L 241.124558 75.882686 
L 241.133038 75.882686 
L 241.430831 75.772988 
L 241.54228 75.737802 
L 241.7833 75.62707 
L 241.896097 75.58671 
L 242.180267 75.475978 
L 242.289186 75.421129 
L 242.291363 75.421129 
L 242.637219 75.310397 
L 242.744044 75.274176 
L 242.748295 75.274176 
L 243.058383 75.163444 
L 243.169417 75.124119 
L 243.169479 75.124119 
L 243.477867 75.013387 
L 243.573392 74.98027 
L 243.588922 74.98027 
L 243.861895 74.870573 
L 243.973137 74.841597 
L 244.297076 74.731899 
L 244.402201 74.694644 
L 244.408152 74.694644 
L 244.757967 74.584946 
L 244.847852 74.55597 
L 244.869023 74.55597 
L 245.180251 74.446272 
L 245.264289 74.404877 
L 245.291327 74.404877 
L 245.591255 74.294145 
L 245.703305 74.247576 
L 245.998236 74.137878 
L 246.10925 74.094413 
L 246.109291 74.094413 
L 246.448097 73.984716 
L 246.555586 73.9516 
L 246.559152 73.9516 
L 246.899077 73.840868 
L 247.008681 73.798438 
L 247.010174 73.798438 
L 247.288766 73.687706 
L 247.393746 73.628717 
L 247.399821 73.628717 
L 247.624669 73.51902 
L 247.726393 73.458997 
L 247.735745 73.458997 
L 247.982094 73.348265 
L 248.090392 73.295486 
L 248.093129 73.295486 
L 248.502515 73.185789 
L 248.502515 73.184754 
L 248.614109 73.150603 
L 248.939313 73.040906 
L 249.051032 73.009859 
L 249.375489 72.899127 
L 249.487187 72.869116 
L 249.737455 72.759418 
L 249.842746 72.703535 
L 249.84851 72.703535 
L 250.169816 72.592803 
L 250.267435 72.544163 
L 250.280892 72.544163 
L 250.492842 72.434466 
L 250.60454 72.40342 
L 250.935508 72.292688 
L 251.043557 72.250257 
L 251.046563 72.250257 
L 251.338654 72.14056 
L 251.45058 72.099165 
L 251.776924 71.989468 
L 251.888808 71.948073 
L 252.136547 71.838375 
L 252.136547 71.83734 
L 252.248224 71.807329 
L 252.468116 71.697632 
L 252.573614 71.666585 
L 252.579192 71.666585 
L 252.985904 71.555853 
L 253.097788 71.513423 
L 253.334724 71.402691 
L 253.443188 71.37061 
L 253.445821 71.37061 
L 253.767292 71.259877 
L 253.875984 71.229866 
L 253.878347 71.229866 
L 254.191877 71.119134 
L 254.302684 71.087053 
L 254.302953 71.087053 
L 254.61978 70.97632 
L 254.730503 70.942169 
L 254.730835 70.942169 
L 255.042312 70.831437 
L 255.15175 70.770379 
L 255.153409 70.770379 
L 255.479027 70.660682 
L 255.591119 70.637915 
L 255.824198 70.527183 
L 255.935668 70.50752 
L 256.28227 70.396788 
L 256.395005 70.356427 
L 256.773455 70.245695 
L 256.886003 70.211544 
L 257.318509 70.101847 
L 257.406756 70.064591 
L 257.429585 70.064591 
L 257.74776 69.954894 
L 257.859167 69.921778 
L 258.161293 69.812081 
L 258.161293 69.811046 
L 258.272888 69.787243 
L 258.713397 69.677546 
L 258.713397 69.676511 
L 258.825448 69.629942 
L 259.182085 69.520244 
L 259.291751 69.497477 
L 259.293182 69.497477 
L 259.797927 69.386745 
L 259.907116 69.344315 
L 259.909003 69.344315 
L 260.335952 69.233583 
L 260.428906 69.209781 
L 260.447049 69.209781 
L 260.746479 69.099048 
L 260.858115 69.071107 
L 261.224021 68.960374 
L 261.336776 68.920014 
L 261.681657 68.809282 
L 261.79095 68.779271 
L 261.792754 68.779271 
L 262.134276 68.668538 
L 262.244812 68.624039 
L 262.245372 68.624039 
L 262.682709 68.514341 
L 262.794055 68.489504 
L 263.169872 68.378772 
L 263.268155 68.348761 
L 263.280886 68.348761 
L 263.625746 68.238028 
L 263.738522 68.197668 
L 264.159292 68.087971 
L 264.159292 68.086936 
L 264.270928 68.061064 
L 264.695637 67.951367 
L 264.806153 67.92239 
L 264.806713 67.92239 
L 265.220122 67.811658 
L 265.331219 67.783716 
L 265.832191 67.672984 
L 265.937316 67.638833 
L 265.943288 67.638833 
L 266.227354 67.528101 
L 266.343862 67.48981 
L 266.771122 67.380113 
L 266.771122 67.379078 
L 266.882799 67.351136 
L 267.290092 67.240404 
L 267.389639 67.220742 
L 267.401188 67.220742 
L 267.943567 67.110009 
L 268.05568 67.086207 
L 268.515867 66.975475 
L 268.624662 66.941324 
L 268.626922 66.941324 
L 269.080494 66.830592 
L 269.192338 66.792301 
L 269.634319 66.681569 
L 269.745789 66.659837 
L 270.313548 66.549104 
L 270.421057 66.512884 
L 270.424644 66.512884 
L 270.858581 66.403186 
L 270.970051 66.380419 
L 271.392936 66.270722 
L 271.499761 66.231396 
L 271.504032 66.231396 
L 271.992107 66.121699 
L 272.103328 66.105141 
L 272.488331 65.995444 
L 272.600008 65.966467 
L 273.108673 65.855735 
L 273.203327 65.836072 
L 273.219769 65.836072 
L 273.666541 65.72534 
L 273.763289 65.691189 
L 273.777637 65.691189 
L 274.24392 65.580457 
L 274.353275 65.546306 
L 274.354934 65.546306 
L 274.820014 65.435574 
L 274.907141 65.409702 
L 274.93109 65.409702 
L 275.513985 65.29897 
L 275.624439 65.279307 
L 275.62504 65.279307 
L 276.10028 65.168575 
L 276.21204 65.136494 
L 276.774428 65.025761 
L 276.878392 64.99161 
L 276.885484 64.99161 
L 277.337998 64.880878 
L 277.436488 64.852936 
L 277.449074 64.852936 
L 277.894726 64.742204 
L 278.006175 64.724611 
L 278.563877 64.614914 
L 278.674953 64.583868 
L 278.674974 64.583868 
L 279.181379 64.473136 
L 279.286296 64.432775 
L 279.292372 64.432775 
L 279.897888 64.322043 
L 280.007595 64.298241 
L 280.008881 64.298241 
L 280.506929 64.187509 
L 280.611847 64.159567 
L 280.618026 64.159567 
L 281.117422 64.048835 
L 281.215497 64.025033 
L 281.228498 64.025033 
L 281.709876 63.9143 
L 281.815146 63.894638 
L 281.820952 63.894638 
L 282.282839 63.78494 
L 282.282839 63.783906 
L 282.394205 63.764243 
L 282.87693 63.654546 
L 282.980459 63.629708 
L 282.987944 63.629708 
L 283.510874 63.520011 
L 283.618466 63.505523 
L 283.621971 63.505523 
L 284.226284 63.395826 
L 284.337526 63.375128 
L 284.842521 63.265431 
L 284.948413 63.244733 
L 284.953597 63.244733 
L 285.468585 63.135036 
L 285.573565 63.108129 
L 285.57962 63.108129 
L 286.25298 62.998432 
L 286.363413 62.957037 
L 286.364056 62.957037 
L 287.082245 62.847339 
L 287.162198 62.828712 
L 287.193342 62.828712 
L 287.831453 62.717979 
L 287.942239 62.698317 
L 287.942467 62.698317 
L 288.810921 62.588619 
L 288.912811 62.567922 
L 288.922017 62.567922 
L 289.62395 62.45719 
L 289.732331 62.433387 
L 289.734985 62.433387 
L 290.370131 62.32369 
L 290.474116 62.305062 
L 290.481186 62.305062 
L 291.010358 62.195365 
L 291.119733 62.168458 
L 291.121351 62.168458 
L 291.810283 62.058761 
L 291.904771 62.042203 
L 291.921338 62.042203 
L 292.639942 61.932506 
L 292.745025 61.909738 
L 292.751038 61.909738 
L 293.497406 61.799006 
L 293.601888 61.779343 
L 293.608503 61.779343 
L 294.289203 61.668611 
L 294.401316 61.655158 
L 295.192014 61.544426 
L 295.304189 61.535112 
L 296.115083 61.42438 
L 296.221328 61.390229 
L 296.22618 61.390229 
L 296.846812 61.279496 
L 296.949262 61.270182 
L 296.957888 61.270182 
L 297.706681 61.160485 
L 297.813216 61.131509 
L 297.817737 61.131509 
L 298.59081 61.020776 
L 298.702156 61.009393 
L 299.623172 60.898661 
L 299.734435 60.889347 
L 300.508006 60.778615 
L 300.619559 60.769301 
L 301.396966 60.659603 
L 301.481979 60.638906 
L 301.508063 60.638906 
L 302.393084 60.528174 
L 302.504616 60.506441 
L 303.049048 60.396744 
L 303.161057 60.367767 
L 304.108385 60.257035 
L 304.209509 60.243582 
L 304.219482 60.243582 
L 304.994982 60.13285 
L 305.10359 60.123536 
L 305.106037 60.123536 
L 305.906978 60.013838 
L 305.991887 60.00349 
L 306.018075 60.00349 
L 307.057756 59.892757 
L 307.160103 59.873095 
L 307.168811 59.873095 
L 307.899151 59.762363 
L 308.011616 59.7427 
L 308.834287 59.633003 
L 308.939226 59.614375 
L 308.945342 59.614375 
L 309.820991 59.504678 
L 309.921472 59.488119 
L 309.932088 59.488119 
L 310.920575 59.378422 
L 311.029453 59.366004 
L 311.031671 59.366004 
L 311.846816 59.256306 
L 311.957809 59.241818 
L 311.957913 59.241818 
L 312.928423 59.131086 
L 312.98337 59.121772 
L 313.039499 59.121772 
L 313.832747 59.012075 
L 313.832747 59.01104 
L 313.944072 58.999656 
L 315.1194 58.888924 
L 315.2306 58.87961 
L 316.118669 58.768878 
L 316.22085 58.751285 
L 316.229765 58.751285 
L 317.089179 58.641588 
L 317.200773 58.616751 
L 318.18389 58.506018 
L 318.295422 58.496705 
L 319.304996 58.385972 
L 319.41686 58.374589 
L 320.543129 58.264891 
L 320.543129 58.263857 
L 320.654682 58.242124 
L 321.974075 58.131392 
L 322.080879 58.120008 
L 322.085088 58.120008 
L 323.140549 58.010311 
L 323.251832 58.002032 
L 324.530833 57.892335 
L 324.634507 57.881986 
L 324.641909 57.881986 
L 325.727124 57.771254 
L 325.818668 57.753661 
L 325.838179 57.753661 
L 327.098353 57.642929 
L 327.209699 57.631545 
L 328.291886 57.520813 
L 328.383181 57.507359 
L 328.402983 57.507359 
L 329.55826 57.396627 
L 329.612419 57.391453 
L 329.669336 57.391453 
L 330.902285 57.280721 
L 331.013838 57.271407 
L 332.389795 57.16171 
L 332.486585 57.151361 
L 332.500829 57.151361 
L 334.007643 57.041664 
L 334.113598 57.023036 
L 334.118678 57.023036 
L 335.179529 56.912304 
L 335.253801 56.905059 
L 335.290522 56.905059 
L 336.606369 56.795362 
L 336.693828 56.778804 
L 336.717445 56.778804 
L 338.106693 56.668072 
L 338.184863 56.660828 
L 338.217748 56.660828 
L 339.582529 56.550096 
L 339.693812 56.538712 
L 341.441232 56.42798 
L 341.552474 56.424875 
L 343.126696 56.314143 
L 343.238063 56.29448 
L 345.493608 56.183748 
L 345.583845 56.174434 
L 345.604684 56.174434 
L 347.698083 56.064737 
L 347.809325 56.058528 
L 350.499636 55.94883 
L 350.610961 55.944691 
L 352.658453 55.834994 
L 352.721446 55.822575 
L 352.769488 55.822575 
L 355.423513 55.712878 
L 355.53461 55.708738 
L 357.85379 55.598006 
L 357.965094 55.594902 
L 360.63523 55.484169 
L 360.747052 55.478995 
L 363.642368 55.368263 
L 363.642368 55.367228 
L 363.753444 55.367228 
L 367.073572 55.257531 
L 367.184793 55.245112 
L 370.175779 55.13438 
L 370.268069 55.127136 
L 370.286834 55.127136 
L 373.335483 55.017439 
L 373.446621 55.013299 
L 376.497509 54.903602 
L 376.608647 54.899462 
L 380.784083 54.789765 
L 380.88954 54.781486 
L 380.89518 54.781486 
L 384.361198 54.671789 
L 384.361198 54.669719 
L 384.472212 54.669719 
L 389.301 54.560022 
L 389.301 54.557952 
L 389.412055 54.557952 
L 393.914892 54.448255 
L 394.000672 54.437906 
L 394.025948 54.437906 
L 399.541014 54.328209 
L 399.64618 54.324069 
L 399.65209 54.324069 
L 405.885303 54.214372 
L 405.885303 54.212302 
L 405.9964 54.212302 
L 414.72 54.144 
L 414.72 54.144 
" clip-path="url(#paa8328787a)" style="fill: none; stroke: #ff8c00; stroke-width: 1.5; stroke-linecap: square"/>
   </g>
   <g id="line2d_14">
    <path d="M 74.605714 307.584 
L 414.72 54.144 
" clip-path="url(#paa8328787a)" style="fill: none; stroke-dasharray: 5.55,2.4; stroke-dashoffset: 0; stroke: #0000ff; stroke-width: 1.5"/>
   </g>
   <g id="patch_3">
    <path d="M 57.6 307.584 
L 57.6 41.472 
" style="fill: none; stroke: #000000; stroke-width: 0.8; stroke-linejoin: miter; stroke-linecap: square"/>
   </g>
   <g id="patch_4">
    <path d="M 414.72 307.584 
L 414.72 41.472 
" style="fill: none; stroke: #000000; stroke-width: 0.8; stroke-linejoin: miter; stroke-linecap: square"/>
   </g>
   <g id="patch_5">
    <path d="M 57.6 307.584 
L 414.72 307.584 
" style="fill: none; stroke: #000000; stroke-width: 0.8; stroke-linejoin: miter; stroke-linecap: square"/>
   </g>
   <g id="patch_6">
    <path d="M 57.6 41.472 
L 414.72 41.472 
" style="fill: none; stroke: #000000; stroke-width: 0.8; stroke-linejoin: miter; stroke-linecap: square"/>
   </g>
   <g id="text_15">
    <!-- ROC CURVE -->
    <g transform="translate(200.855625 35.472)scale(0.12 -0.12)">
     <defs>
      <path id="DejaVuSans-4f" d="M 2522 4238 
Q 1834 4238 1429 3725 
Q 1025 3213 1025 2328 
Q 1025 1447 1429 934 
Q 1834 422 2522 422 
Q 3209 422 3611 934 
Q 4013 1447 4013 2328 
Q 4013 3213 3611 3725 
Q 3209 4238 2522 4238 
z
M 2522 4750 
Q 3503 4750 4090 4092 
Q 4678 3434 4678 2328 
Q 4678 1225 4090 567 
Q 3503 -91 2522 -91 
Q 1538 -91 948 565 
Q 359 1222 359 2328 
Q 359 3434 948 4092 
Q 1538 4750 2522 4750 
z
" transform="scale(0.015625)"/>
      <path id="DejaVuSans-43" d="M 4122 4306 
L 4122 3641 
Q 3803 3938 3442 4084 
Q 3081 4231 2675 4231 
Q 1875 4231 1450 3742 
Q 1025 3253 1025 2328 
Q 1025 1406 1450 917 
Q 1875 428 2675 428 
Q 3081 428 3442 575 
Q 3803 722 4122 1019 
L 4122 359 
Q 3791 134 3420 21 
Q 3050 -91 2638 -91 
Q 1578 -91 968 557 
Q 359 1206 359 2328 
Q 359 3453 968 4101 
Q 1578 4750 2638 4750 
Q 3056 4750 3426 4639 
Q 3797 4528 4122 4306 
z
" transform="scale(0.015625)"/>
      <path id="DejaVuSans-55" d="M 556 4666 
L 1191 4666 
L 1191 1831 
Q 1191 1081 1462 751 
Q 1734 422 2344 422 
Q 2950 422 3222 751 
Q 3494 1081 3494 1831 
L 3494 4666 
L 4128 4666 
L 4128 1753 
Q 4128 841 3676 375 
Q 3225 -91 2344 -91 
Q 1459 -91 1007 375 
Q 556 841 556 1753 
L 556 4666 
z
" transform="scale(0.015625)"/>
      <path id="DejaVuSans-56" d="M 1831 0 
L 50 4666 
L 709 4666 
L 2188 738 
L 3669 4666 
L 4325 4666 
L 2547 0 
L 1831 0 
z
" transform="scale(0.015625)"/>
      <path id="DejaVuSans-45" d="M 628 4666 
L 3578 4666 
L 3578 4134 
L 1259 4134 
L 1259 2753 
L 3481 2753 
L 3481 2222 
L 1259 2222 
L 1259 531 
L 3634 531 
L 3634 0 
L 628 0 
L 628 4666 
z
" transform="scale(0.015625)"/>
     </defs>
     <use xlink:href="#DejaVuSans-52"/>
     <use xlink:href="#DejaVuSans-4f" x="69.482422"/>
     <use xlink:href="#DejaVuSans-43" x="148.193359"/>
     <use xlink:href="#DejaVuSans-20" x="218.017578"/>
     <use xlink:href="#DejaVuSans-43" x="249.804688"/>
     <use xlink:href="#DejaVuSans-55" x="319.628906"/>
     <use xlink:href="#DejaVuSans-52" x="392.822266"/>
     <use xlink:href="#DejaVuSans-56" x="456.804688"/>
     <use xlink:href="#DejaVuSans-45" x="525.212891"/>
    </g>
   </g>
   <g id="legend_1">
    <g id="patch_7">
     <path d="M 234.97 302.584 
L 407.72 302.584 
Q 409.72 302.584 409.72 300.584 
L 409.72 286.905875 
Q 409.72 284.905875 407.72 284.905875 
L 234.97 284.905875 
Q 232.97 284.905875 232.97 286.905875 
L 232.97 300.584 
Q 232.97 302.584 234.97 302.584 
z
" style="fill: #ffffff; opacity: 0.8; stroke: #cccccc; stroke-linejoin: miter"/>
    </g>
    <g id="line2d_15">
     <path d="M 236.97 293.004312 
L 246.97 293.004312 
L 256.97 293.004312 
" style="fill: none; stroke: #ff8c00; stroke-width: 1.5; stroke-linecap: square"/>
    </g>
    <g id="text_16">
     <!-- ROC curve (ROC AUC=0.81) -->
     <g transform="translate(264.97 296.504312)scale(0.1 -0.1)">
      <defs>
       <path id="DejaVuSans-63" d="M 3122 3366 
L 3122 2828 
Q 2878 2963 2633 3030 
Q 2388 3097 2138 3097 
Q 1578 3097 1268 2742 
Q 959 2388 959 1747 
Q 959 1106 1268 751 
Q 1578 397 2138 397 
Q 2388 397 2633 464 
Q 2878 531 3122 666 
L 3122 134 
Q 2881 22 2623 -34 
Q 2366 -91 2075 -91 
Q 1284 -91 818 406 
Q 353 903 353 1747 
Q 353 2603 823 3093 
Q 1294 3584 2113 3584 
Q 2378 3584 2631 3529 
Q 2884 3475 3122 3366 
z
" transform="scale(0.015625)"/>
       <path id="DejaVuSans-28" d="M 1984 4856 
Q 1566 4138 1362 3434 
Q 1159 2731 1159 2009 
Q 1159 1288 1364 580 
Q 1569 -128 1984 -844 
L 1484 -844 
Q 1016 -109 783 600 
Q 550 1309 550 2009 
Q 550 2706 781 3412 
Q 1013 4119 1484 4856 
L 1984 4856 
z
" transform="scale(0.015625)"/>
       <path id="DejaVuSans-41" d="M 2188 4044 
L 1331 1722 
L 3047 1722 
L 2188 4044 
z
M 1831 4666 
L 2547 4666 
L 4325 0 
L 3669 0 
L 3244 1197 
L 1141 1197 
L 716 0 
L 50 0 
L 1831 4666 
z
" transform="scale(0.015625)"/>
       <path id="DejaVuSans-3d" d="M 678 2906 
L 4684 2906 
L 4684 2381 
L 678 2381 
L 678 2906 
z
M 678 1631 
L 4684 1631 
L 4684 1100 
L 678 1100 
L 678 1631 
z
" transform="scale(0.015625)"/>
       <path id="DejaVuSans-29" d="M 513 4856 
L 1013 4856 
Q 1481 4119 1714 3412 
Q 1947 2706 1947 2009 
Q 1947 1309 1714 600 
Q 1481 -109 1013 -844 
L 513 -844 
Q 928 -128 1133 580 
Q 1338 1288 1338 2009 
Q 1338 2731 1133 3434 
Q 928 4138 513 4856 
z
" transform="scale(0.015625)"/>
      </defs>
      <use xlink:href="#DejaVuSans-52"/>
      <use xlink:href="#DejaVuSans-4f" x="69.482422"/>
      <use xlink:href="#DejaVuSans-43" x="148.193359"/>
      <use xlink:href="#DejaVuSans-20" x="218.017578"/>
      <use xlink:href="#DejaVuSans-63" x="249.804688"/>
      <use xlink:href="#DejaVuSans-75" x="304.785156"/>
      <use xlink:href="#DejaVuSans-72" x="368.164062"/>
      <use xlink:href="#DejaVuSans-76" x="409.277344"/>
      <use xlink:href="#DejaVuSans-65" x="468.457031"/>
      <use xlink:href="#DejaVuSans-20" x="529.980469"/>
      <use xlink:href="#DejaVuSans-28" x="561.767578"/>
      <use xlink:href="#DejaVuSans-52" x="600.78125"/>
      <use xlink:href="#DejaVuSans-4f" x="670.263672"/>
      <use xlink:href="#DejaVuSans-43" x="748.974609"/>
      <use xlink:href="#DejaVuSans-20" x="818.798828"/>
      <use xlink:href="#DejaVuSans-41" x="850.585938"/>
      <use xlink:href="#DejaVuSans-55" x="918.994141"/>
      <use xlink:href="#DejaVuSans-43" x="992.1875"/>
      <use xlink:href="#DejaVuSans-3d" x="1062.011719"/>
      <use xlink:href="#DejaVuSans-30" x="1145.800781"/>
      <use xlink:href="#DejaVuSans-2e" x="1209.423828"/>
      <use xlink:href="#DejaVuSans-38" x="1241.210938"/>
      <use xlink:href="#DejaVuSans-31" x="1304.833984"/>
      <use xlink:href="#DejaVuSans-29" x="1368.457031"/>
     </g>
    </g>
   </g>
  </g>
 </g>
 <defs>
  <clipPath id="paa8328787a">
   <rect x="57.6" y="41.472" width="357.12" height="266.112"/>
  </clipPath>
 </defs>
</svg>
