<?xml version="1.0" encoding="utf-8" standalone="no"?>
<!DOCTYPE svg PUBLIC "-//W3C//DTD SVG 1.1//EN"
  "http://www.w3.org/Graphics/SVG/1.1/DTD/svg11.dtd">
<svg xmlns:xlink="http://www.w3.org/1999/xlink" width="460.8pt" height="345.6pt" viewBox="0 0 460.8 345.6" xmlns="http://www.w3.org/2000/svg" version="1.1">
 <metadata>
  <rdf:RDF xmlns:dc="http://purl.org/dc/elements/1.1/" xmlns:cc="http://creativecommons.org/ns#" xmlns:rdf="http://www.w3.org/1999/02/22-rdf-syntax-ns#">
   <cc:Work>
    <dc:type rdf:resource="http://purl.org/dc/dcmitype/StillImage"/>
    <dc:date>2022-05-21T19:04:33.575769</dc:date>
    <dc:format>image/svg+xml</dc:format>
    <dc:creator>
     <cc:Agent>
      <dc:title>Matplotlib v3.5.1, https://matplotlib.org/</dc:title>
     </cc:Agent>
    </dc:creator>
   </cc:Work>
  </rdf:RDF>
 </metadata>
 <defs>
  <style type="text/css">*{stroke-linejoin: round; stroke-linecap: butt}</style>
 </defs>
 <g id="figure_1">
  <g id="patch_1">
   <path d="M 0 345.6 
L 460.8 345.6 
L 460.8 0 
L 0 0 
z
" style="fill: #ffffff"/>
  </g>
  <g id="axes_1">
   <g id="patch_2">
    <path d="M 57.6 307.584 
L 414.72 307.584 
L 414.72 41.472 
L 57.6 41.472 
z
" style="fill: #ffffff"/>
   </g>
   <g id="matplotlib.axis_1">
    <g id="xtick_1">
     <g id="line2d_1">
      <defs>
       <path id="m4d488d8436" d="M 0 0 
L 0 3.5 
" style="stroke: #000000; stroke-width: 0.8"/>
      </defs>
      <g>
       <use xlink:href="#m4d488d8436" x="74.605714" y="307.584" style="stroke: #000000; stroke-width: 0.8"/>
      </g>
     </g>
     <g id="text_1">
      <!-- 0.0 -->
      <g transform="translate(66.654152 322.182437)scale(0.1 -0.1)">
       <defs>
        <path id="DejaVuSans-30" d="M 2034 4250 
Q 1547 4250 1301 3770 
Q 1056 3291 1056 2328 
Q 1056 1369 1301 889 
Q 1547 409 2034 409 
Q 2525 409 2770 889 
Q 3016 1369 3016 2328 
Q 3016 3291 2770 3770 
Q 2525 4250 2034 4250 
z
M 2034 4750 
Q 2819 4750 3233 4129 
Q 3647 3509 3647 2328 
Q 3647 1150 3233 529 
Q 2819 -91 2034 -91 
Q 1250 -91 836 529 
Q 422 1150 422 2328 
Q 422 3509 836 4129 
Q 1250 4750 2034 4750 
z
" transform="scale(0.015625)"/>
        <path id="DejaVuSans-2e" d="M 684 794 
L 1344 794 
L 1344 0 
L 684 0 
L 684 794 
z
" transform="scale(0.015625)"/>
       </defs>
       <use xlink:href="#DejaVuSans-30"/>
       <use xlink:href="#DejaVuSans-2e" x="63.623047"/>
       <use xlink:href="#DejaVuSans-30" x="95.410156"/>
      </g>
     </g>
    </g>
    <g id="xtick_2">
     <g id="line2d_2">
      <g>
       <use xlink:href="#m4d488d8436" x="142.628571" y="307.584" style="stroke: #000000; stroke-width: 0.8"/>
      </g>
     </g>
     <g id="text_2">
      <!-- 0.2 -->
      <g transform="translate(134.677009 322.182437)scale(0.1 -0.1)">
       <defs>
        <path id="DejaVuSans-32" d="M 1228 531 
L 3431 531 
L 3431 0 
L 469 0 
L 469 531 
Q 828 903 1448 1529 
Q 2069 2156 2228 2338 
Q 2531 2678 2651 2914 
Q 2772 3150 2772 3378 
Q 2772 3750 2511 3984 
Q 2250 4219 1831 4219 
Q 1534 4219 1204 4116 
Q 875 4013 500 3803 
L 500 4441 
Q 881 4594 1212 4672 
Q 1544 4750 1819 4750 
Q 2544 4750 2975 4387 
Q 3406 4025 3406 3419 
Q 3406 3131 3298 2873 
Q 3191 2616 2906 2266 
Q 2828 2175 2409 1742 
Q 1991 1309 1228 531 
z
" transform="scale(0.015625)"/>
       </defs>
       <use xlink:href="#DejaVuSans-30"/>
       <use xlink:href="#DejaVuSans-2e" x="63.623047"/>
       <use xlink:href="#DejaVuSans-32" x="95.410156"/>
      </g>
     </g>
    </g>
    <g id="xtick_3">
     <g id="line2d_3">
      <g>
       <use xlink:href="#m4d488d8436" x="210.651429" y="307.584" style="stroke: #000000; stroke-width: 0.8"/>
      </g>
     </g>
     <g id="text_3">
      <!-- 0.4 -->
      <g transform="translate(202.699866 322.182437)scale(0.1 -0.1)">
       <defs>
        <path id="DejaVuSans-34" d="M 2419 4116 
L 825 1625 
L 2419 1625 
L 2419 4116 
z
M 2253 4666 
L 3047 4666 
L 3047 1625 
L 3713 1625 
L 3713 1100 
L 3047 1100 
L 3047 0 
L 2419 0 
L 2419 1100 
L 313 1100 
L 313 1709 
L 2253 4666 
z
" transform="scale(0.015625)"/>
       </defs>
       <use xlink:href="#DejaVuSans-30"/>
       <use xlink:href="#DejaVuSans-2e" x="63.623047"/>
       <use xlink:href="#DejaVuSans-34" x="95.410156"/>
      </g>
     </g>
    </g>
    <g id="xtick_4">
     <g id="line2d_4">
      <g>
       <use xlink:href="#m4d488d8436" x="278.674286" y="307.584" style="stroke: #000000; stroke-width: 0.8"/>
      </g>
     </g>
     <g id="text_4">
      <!-- 0.6 -->
      <g transform="translate(270.722723 322.182437)scale(0.1 -0.1)">
       <defs>
        <path id="DejaVuSans-36" d="M 2113 2584 
Q 1688 2584 1439 2293 
Q 1191 2003 1191 1497 
Q 1191 994 1439 701 
Q 1688 409 2113 409 
Q 2538 409 2786 701 
Q 3034 994 3034 1497 
Q 3034 2003 2786 2293 
Q 2538 2584 2113 2584 
z
M 3366 4563 
L 3366 3988 
Q 3128 4100 2886 4159 
Q 2644 4219 2406 4219 
Q 1781 4219 1451 3797 
Q 1122 3375 1075 2522 
Q 1259 2794 1537 2939 
Q 1816 3084 2150 3084 
Q 2853 3084 3261 2657 
Q 3669 2231 3669 1497 
Q 3669 778 3244 343 
Q 2819 -91 2113 -91 
Q 1303 -91 875 529 
Q 447 1150 447 2328 
Q 447 3434 972 4092 
Q 1497 4750 2381 4750 
Q 2619 4750 2861 4703 
Q 3103 4656 3366 4563 
z
" transform="scale(0.015625)"/>
       </defs>
       <use xlink:href="#DejaVuSans-30"/>
       <use xlink:href="#DejaVuSans-2e" x="63.623047"/>
       <use xlink:href="#DejaVuSans-36" x="95.410156"/>
      </g>
     </g>
    </g>
    <g id="xtick_5">
     <g id="line2d_5">
      <g>
       <use xlink:href="#m4d488d8436" x="346.697143" y="307.584" style="stroke: #000000; stroke-width: 0.8"/>
      </g>
     </g>
     <g id="text_5">
      <!-- 0.8 -->
      <g transform="translate(338.74558 322.182437)scale(0.1 -0.1)">
       <defs>
        <path id="DejaVuSans-38" d="M 2034 2216 
Q 1584 2216 1326 1975 
Q 1069 1734 1069 1313 
Q 1069 891 1326 650 
Q 1584 409 2034 409 
Q 2484 409 2743 651 
Q 3003 894 3003 1313 
Q 3003 1734 2745 1975 
Q 2488 2216 2034 2216 
z
M 1403 2484 
Q 997 2584 770 2862 
Q 544 3141 544 3541 
Q 544 4100 942 4425 
Q 1341 4750 2034 4750 
Q 2731 4750 3128 4425 
Q 3525 4100 3525 3541 
Q 3525 3141 3298 2862 
Q 3072 2584 2669 2484 
Q 3125 2378 3379 2068 
Q 3634 1759 3634 1313 
Q 3634 634 3220 271 
Q 2806 -91 2034 -91 
Q 1263 -91 848 271 
Q 434 634 434 1313 
Q 434 1759 690 2068 
Q 947 2378 1403 2484 
z
M 1172 3481 
Q 1172 3119 1398 2916 
Q 1625 2713 2034 2713 
Q 2441 2713 2670 2916 
Q 2900 3119 2900 3481 
Q 2900 3844 2670 4047 
Q 2441 4250 2034 4250 
Q 1625 4250 1398 4047 
Q 1172 3844 1172 3481 
z
" transform="scale(0.015625)"/>
       </defs>
       <use xlink:href="#DejaVuSans-30"/>
       <use xlink:href="#DejaVuSans-2e" x="63.623047"/>
       <use xlink:href="#DejaVuSans-38" x="95.410156"/>
      </g>
     </g>
    </g>
    <g id="xtick_6">
     <g id="line2d_6">
      <g>
       <use xlink:href="#m4d488d8436" x="414.72" y="307.584" style="stroke: #000000; stroke-width: 0.8"/>
      </g>
     </g>
     <g id="text_6">
      <!-- 1.0 -->
      <g transform="translate(406.768438 322.182437)scale(0.1 -0.1)">
       <defs>
        <path id="DejaVuSans-31" d="M 794 531 
L 1825 531 
L 1825 4091 
L 703 3866 
L 703 4441 
L 1819 4666 
L 2450 4666 
L 2450 531 
L 3481 531 
L 3481 0 
L 794 0 
L 794 531 
z
" transform="scale(0.015625)"/>
       </defs>
       <use xlink:href="#DejaVuSans-31"/>
       <use xlink:href="#DejaVuSans-2e" x="63.623047"/>
       <use xlink:href="#DejaVuSans-30" x="95.410156"/>
      </g>
     </g>
    </g>
    <g id="text_7">
     <!-- False Positive Rate -->
     <g transform="translate(189.693594 335.860562)scale(0.1 -0.1)">
      <defs>
       <path id="DejaVuSans-46" d="M 628 4666 
L 3309 4666 
L 3309 4134 
L 1259 4134 
L 1259 2759 
L 3109 2759 
L 3109 2228 
L 1259 2228 
L 1259 0 
L 628 0 
L 628 4666 
z
" transform="scale(0.015625)"/>
       <path id="DejaVuSans-61" d="M 2194 1759 
Q 1497 1759 1228 1600 
Q 959 1441 959 1056 
Q 959 750 1161 570 
Q 1363 391 1709 391 
Q 2188 391 2477 730 
Q 2766 1069 2766 1631 
L 2766 1759 
L 2194 1759 
z
M 3341 1997 
L 3341 0 
L 2766 0 
L 2766 531 
Q 2569 213 2275 61 
Q 1981 -91 1556 -91 
Q 1019 -91 701 211 
Q 384 513 384 1019 
Q 384 1609 779 1909 
Q 1175 2209 1959 2209 
L 2766 2209 
L 2766 2266 
Q 2766 2663 2505 2880 
Q 2244 3097 1772 3097 
Q 1472 3097 1187 3025 
Q 903 2953 641 2809 
L 641 3341 
Q 956 3463 1253 3523 
Q 1550 3584 1831 3584 
Q 2591 3584 2966 3190 
Q 3341 2797 3341 1997 
z
" transform="scale(0.015625)"/>
       <path id="DejaVuSans-6c" d="M 603 4863 
L 1178 4863 
L 1178 0 
L 603 0 
L 603 4863 
z
" transform="scale(0.015625)"/>
       <path id="DejaVuSans-73" d="M 2834 3397 
L 2834 2853 
Q 2591 2978 2328 3040 
Q 2066 3103 1784 3103 
Q 1356 3103 1142 2972 
Q 928 2841 928 2578 
Q 928 2378 1081 2264 
Q 1234 2150 1697 2047 
L 1894 2003 
Q 2506 1872 2764 1633 
Q 3022 1394 3022 966 
Q 3022 478 2636 193 
Q 2250 -91 1575 -91 
Q 1294 -91 989 -36 
Q 684 19 347 128 
L 347 722 
Q 666 556 975 473 
Q 1284 391 1588 391 
Q 1994 391 2212 530 
Q 2431 669 2431 922 
Q 2431 1156 2273 1281 
Q 2116 1406 1581 1522 
L 1381 1569 
Q 847 1681 609 1914 
Q 372 2147 372 2553 
Q 372 3047 722 3315 
Q 1072 3584 1716 3584 
Q 2034 3584 2315 3537 
Q 2597 3491 2834 3397 
z
" transform="scale(0.015625)"/>
       <path id="DejaVuSans-65" d="M 3597 1894 
L 3597 1613 
L 953 1613 
Q 991 1019 1311 708 
Q 1631 397 2203 397 
Q 2534 397 2845 478 
Q 3156 559 3463 722 
L 3463 178 
Q 3153 47 2828 -22 
Q 2503 -91 2169 -91 
Q 1331 -91 842 396 
Q 353 884 353 1716 
Q 353 2575 817 3079 
Q 1281 3584 2069 3584 
Q 2775 3584 3186 3129 
Q 3597 2675 3597 1894 
z
M 3022 2063 
Q 3016 2534 2758 2815 
Q 2500 3097 2075 3097 
Q 1594 3097 1305 2825 
Q 1016 2553 972 2059 
L 3022 2063 
z
" transform="scale(0.015625)"/>
       <path id="DejaVuSans-20" transform="scale(0.015625)"/>
       <path id="DejaVuSans-50" d="M 1259 4147 
L 1259 2394 
L 2053 2394 
Q 2494 2394 2734 2622 
Q 2975 2850 2975 3272 
Q 2975 3691 2734 3919 
Q 2494 4147 2053 4147 
L 1259 4147 
z
M 628 4666 
L 2053 4666 
Q 2838 4666 3239 4311 
Q 3641 3956 3641 3272 
Q 3641 2581 3239 2228 
Q 2838 1875 2053 1875 
L 1259 1875 
L 1259 0 
L 628 0 
L 628 4666 
z
" transform="scale(0.015625)"/>
       <path id="DejaVuSans-6f" d="M 1959 3097 
Q 1497 3097 1228 2736 
Q 959 2375 959 1747 
Q 959 1119 1226 758 
Q 1494 397 1959 397 
Q 2419 397 2687 759 
Q 2956 1122 2956 1747 
Q 2956 2369 2687 2733 
Q 2419 3097 1959 3097 
z
M 1959 3584 
Q 2709 3584 3137 3096 
Q 3566 2609 3566 1747 
Q 3566 888 3137 398 
Q 2709 -91 1959 -91 
Q 1206 -91 779 398 
Q 353 888 353 1747 
Q 353 2609 779 3096 
Q 1206 3584 1959 3584 
z
" transform="scale(0.015625)"/>
       <path id="DejaVuSans-69" d="M 603 3500 
L 1178 3500 
L 1178 0 
L 603 0 
L 603 3500 
z
M 603 4863 
L 1178 4863 
L 1178 4134 
L 603 4134 
L 603 4863 
z
" transform="scale(0.015625)"/>
       <path id="DejaVuSans-74" d="M 1172 4494 
L 1172 3500 
L 2356 3500 
L 2356 3053 
L 1172 3053 
L 1172 1153 
Q 1172 725 1289 603 
Q 1406 481 1766 481 
L 2356 481 
L 2356 0 
L 1766 0 
Q 1100 0 847 248 
Q 594 497 594 1153 
L 594 3053 
L 172 3053 
L 172 3500 
L 594 3500 
L 594 4494 
L 1172 4494 
z
" transform="scale(0.015625)"/>
       <path id="DejaVuSans-76" d="M 191 3500 
L 800 3500 
L 1894 563 
L 2988 3500 
L 3597 3500 
L 2284 0 
L 1503 0 
L 191 3500 
z
" transform="scale(0.015625)"/>
       <path id="DejaVuSans-52" d="M 2841 2188 
Q 3044 2119 3236 1894 
Q 3428 1669 3622 1275 
L 4263 0 
L 3584 0 
L 2988 1197 
Q 2756 1666 2539 1819 
Q 2322 1972 1947 1972 
L 1259 1972 
L 1259 0 
L 628 0 
L 628 4666 
L 2053 4666 
Q 2853 4666 3247 4331 
Q 3641 3997 3641 3322 
Q 3641 2881 3436 2590 
Q 3231 2300 2841 2188 
z
M 1259 4147 
L 1259 2491 
L 2053 2491 
Q 2509 2491 2742 2702 
Q 2975 2913 2975 3322 
Q 2975 3731 2742 3939 
Q 2509 4147 2053 4147 
L 1259 4147 
z
" transform="scale(0.015625)"/>
      </defs>
      <use xlink:href="#DejaVuSans-46"/>
      <use xlink:href="#DejaVuSans-61" x="48.394531"/>
      <use xlink:href="#DejaVuSans-6c" x="109.673828"/>
      <use xlink:href="#DejaVuSans-73" x="137.457031"/>
      <use xlink:href="#DejaVuSans-65" x="189.556641"/>
      <use xlink:href="#DejaVuSans-20" x="251.080078"/>
      <use xlink:href="#DejaVuSans-50" x="282.867188"/>
      <use xlink:href="#DejaVuSans-6f" x="339.544922"/>
      <use xlink:href="#DejaVuSans-73" x="400.726562"/>
      <use xlink:href="#DejaVuSans-69" x="452.826172"/>
      <use xlink:href="#DejaVuSans-74" x="480.609375"/>
      <use xlink:href="#DejaVuSans-69" x="519.818359"/>
      <use xlink:href="#DejaVuSans-76" x="547.601562"/>
      <use xlink:href="#DejaVuSans-65" x="606.78125"/>
      <use xlink:href="#DejaVuSans-20" x="668.304688"/>
      <use xlink:href="#DejaVuSans-52" x="700.091797"/>
      <use xlink:href="#DejaVuSans-61" x="767.324219"/>
      <use xlink:href="#DejaVuSans-74" x="828.603516"/>
      <use xlink:href="#DejaVuSans-65" x="867.8125"/>
     </g>
    </g>
   </g>
   <g id="matplotlib.axis_2">
    <g id="ytick_1">
     <g id="line2d_7">
      <defs>
       <path id="m2b85717351" d="M 0 0 
L -3.5 0 
" style="stroke: #000000; stroke-width: 0.8"/>
      </defs>
      <g>
       <use xlink:href="#m2b85717351" x="57.6" y="307.584" style="stroke: #000000; stroke-width: 0.8"/>
      </g>
     </g>
     <g id="text_8">
      <!-- 0.0 -->
      <g transform="translate(34.696875 311.383219)scale(0.1 -0.1)">
       <use xlink:href="#DejaVuSans-30"/>
       <use xlink:href="#DejaVuSans-2e" x="63.623047"/>
       <use xlink:href="#DejaVuSans-30" x="95.410156"/>
      </g>
     </g>
    </g>
    <g id="ytick_2">
     <g id="line2d_8">
      <g>
       <use xlink:href="#m2b85717351" x="57.6" y="256.896" style="stroke: #000000; stroke-width: 0.8"/>
      </g>
     </g>
     <g id="text_9">
      <!-- 0.2 -->
      <g transform="translate(34.696875 260.695219)scale(0.1 -0.1)">
       <use xlink:href="#DejaVuSans-30"/>
       <use xlink:href="#DejaVuSans-2e" x="63.623047"/>
       <use xlink:href="#DejaVuSans-32" x="95.410156"/>
      </g>
     </g>
    </g>
    <g id="ytick_3">
     <g id="line2d_9">
      <g>
       <use xlink:href="#m2b85717351" x="57.6" y="206.208" style="stroke: #000000; stroke-width: 0.8"/>
      </g>
     </g>
     <g id="text_10">
      <!-- 0.4 -->
      <g transform="translate(34.696875 210.007219)scale(0.1 -0.1)">
       <use xlink:href="#DejaVuSans-30"/>
       <use xlink:href="#DejaVuSans-2e" x="63.623047"/>
       <use xlink:href="#DejaVuSans-34" x="95.410156"/>
      </g>
     </g>
    </g>
    <g id="ytick_4">
     <g id="line2d_10">
      <g>
       <use xlink:href="#m2b85717351" x="57.6" y="155.52" style="stroke: #000000; stroke-width: 0.8"/>
      </g>
     </g>
     <g id="text_11">
      <!-- 0.6 -->
      <g transform="translate(34.696875 159.319219)scale(0.1 -0.1)">
       <use xlink:href="#DejaVuSans-30"/>
       <use xlink:href="#DejaVuSans-2e" x="63.623047"/>
       <use xlink:href="#DejaVuSans-36" x="95.410156"/>
      </g>
     </g>
    </g>
    <g id="ytick_5">
     <g id="line2d_11">
      <g>
       <use xlink:href="#m2b85717351" x="57.6" y="104.832" style="stroke: #000000; stroke-width: 0.8"/>
      </g>
     </g>
     <g id="text_12">
      <!-- 0.8 -->
      <g transform="translate(34.696875 108.631219)scale(0.1 -0.1)">
       <use xlink:href="#DejaVuSans-30"/>
       <use xlink:href="#DejaVuSans-2e" x="63.623047"/>
       <use xlink:href="#DejaVuSans-38" x="95.410156"/>
      </g>
     </g>
    </g>
    <g id="ytick_6">
     <g id="line2d_12">
      <g>
       <use xlink:href="#m2b85717351" x="57.6" y="54.144" style="stroke: #000000; stroke-width: 0.8"/>
      </g>
     </g>
     <g id="text_13">
      <!-- 1.0 -->
      <g transform="translate(34.696875 57.943219)scale(0.1 -0.1)">
       <use xlink:href="#DejaVuSans-31"/>
       <use xlink:href="#DejaVuSans-2e" x="63.623047"/>
       <use xlink:href="#DejaVuSans-30" x="95.410156"/>
      </g>
     </g>
    </g>
    <g id="text_14">
     <!-- True Positive Rate -->
     <g transform="translate(28.617187 219.057687)rotate(-90)scale(0.1 -0.1)">
      <defs>
       <path id="DejaVuSans-54" d="M -19 4666 
L 3928 4666 
L 3928 4134 
L 2272 4134 
L 2272 0 
L 1638 0 
L 1638 4134 
L -19 4134 
L -19 4666 
z
" transform="scale(0.015625)"/>
       <path id="DejaVuSans-72" d="M 2631 2963 
Q 2534 3019 2420 3045 
Q 2306 3072 2169 3072 
Q 1681 3072 1420 2755 
Q 1159 2438 1159 1844 
L 1159 0 
L 581 0 
L 581 3500 
L 1159 3500 
L 1159 2956 
Q 1341 3275 1631 3429 
Q 1922 3584 2338 3584 
Q 2397 3584 2469 3576 
Q 2541 3569 2628 3553 
L 2631 2963 
z
" transform="scale(0.015625)"/>
       <path id="DejaVuSans-75" d="M 544 1381 
L 544 3500 
L 1119 3500 
L 1119 1403 
Q 1119 906 1312 657 
Q 1506 409 1894 409 
Q 2359 409 2629 706 
Q 2900 1003 2900 1516 
L 2900 3500 
L 3475 3500 
L 3475 0 
L 2900 0 
L 2900 538 
Q 2691 219 2414 64 
Q 2138 -91 1772 -91 
Q 1169 -91 856 284 
Q 544 659 544 1381 
z
M 1991 3584 
L 1991 3584 
z
" transform="scale(0.015625)"/>
      </defs>
      <use xlink:href="#DejaVuSans-54"/>
      <use xlink:href="#DejaVuSans-72" x="46.333984"/>
      <use xlink:href="#DejaVuSans-75" x="87.447266"/>
      <use xlink:href="#DejaVuSans-65" x="150.826172"/>
      <use xlink:href="#DejaVuSans-20" x="212.349609"/>
      <use xlink:href="#DejaVuSans-50" x="244.136719"/>
      <use xlink:href="#DejaVuSans-6f" x="300.814453"/>
      <use xlink:href="#DejaVuSans-73" x="361.996094"/>
      <use xlink:href="#DejaVuSans-69" x="414.095703"/>
      <use xlink:href="#DejaVuSans-74" x="441.878906"/>
      <use xlink:href="#DejaVuSans-69" x="481.087891"/>
      <use xlink:href="#DejaVuSans-76" x="508.871094"/>
      <use xlink:href="#DejaVuSans-65" x="568.050781"/>
      <use xlink:href="#DejaVuSans-20" x="629.574219"/>
      <use xlink:href="#DejaVuSans-52" x="661.361328"/>
      <use xlink:href="#DejaVuSans-61" x="728.59375"/>
      <use xlink:href="#DejaVuSans-74" x="789.873047"/>
      <use xlink:href="#DejaVuSans-65" x="829.082031"/>
     </g>
    </g>
   </g>
   <g id="line2d_13">
    <path d="M 74.605714 307.584 
L 74.631259 307.476372 
L 74.631259 307.474303 
L 74.742024 307.132792 
L 74.785236 307.023095 
L 74.896291 306.780933 
L 74.957956 306.671236 
L 75.067228 306.470469 
L 75.068638 306.470469 
L 75.127027 306.360772 
L 75.237833 306.164145 
L 75.237875 306.164145 
L 75.31563 306.054448 
L 75.423782 305.853681 
L 75.426727 305.853681 
L 75.488972 305.743984 
L 75.599323 305.528729 
L 75.599572 305.528729 
L 75.672268 305.419031 
L 75.782162 305.205846 
L 75.782618 305.205846 
L 75.834123 305.096149 
L 75.942026 304.926429 
L 75.945012 304.926429 
L 76.030854 304.816731 
L 76.14166 304.626313 
L 76.141826 304.626313 
L 76.212532 304.516616 
L 76.323214 304.274454 
L 76.390643 304.164757 
L 76.500869 303.957781 
L 76.501242 303.957781 
L 76.550549 303.848084 
L 76.660983 303.647317 
L 76.661605 303.647317 
L 76.728827 303.53762 
L 76.83814 303.334783 
L 76.839882 303.334783 
L 76.894 303.225086 
L 77.014593 302.984994 
L 77.092763 302.875297 
L 77.203279 302.643484 
L 77.203859 302.643484 
L 77.256111 302.533786 
L 77.366669 302.343369 
L 77.367166 302.343369 
L 77.430614 302.233671 
L 77.539223 302.028765 
L 77.541628 302.028765 
L 77.597736 301.919068 
L 77.706428 301.720371 
L 77.708045 301.720371 
L 77.77506 301.610674 
L 77.893787 301.356093 
L 77.953213 301.246396 
L 78.068705 301.006304 
L 78.126016 300.896607 
L 78.236034 300.702049 
L 78.237071 300.702049 
L 78.299773 300.592352 
L 78.403488 300.362609 
L 78.410828 300.362609 
L 78.458767 300.252911 
L 78.569615 300.021098 
L 78.569864 300.021098 
L 78.63551 299.911401 
L 78.746399 299.675448 
L 78.746565 299.675448 
L 78.824071 299.565751 
L 78.934795 299.323589 
L 78.935168 299.323589 
L 78.98659 299.213892 
L 79.097646 298.998637 
L 79.156283 298.88894 
L 79.267297 298.669545 
L 79.332031 298.559848 
L 79.443003 298.354942 
L 79.491357 298.245244 
L 79.601251 298.009292 
L 79.602412 298.009292 
L 79.652217 297.899595 
L 79.765304 297.690549 
L 79.82755 297.580852 
L 79.93848 297.33662 
L 79.99011 297.226923 
L 80.097599 297.015807 
L 80.101207 297.015807 
L 80.155863 296.90611 
L 80.262316 296.670157 
L 80.266919 296.670157 
L 80.324271 296.56046 
L 80.434829 296.318298 
L 80.435326 296.318298 
L 80.487122 296.208601 
L 80.598218 295.964369 
L 80.651195 295.854672 
L 80.764511 295.622859 
L 80.808676 295.513162 
L 80.919441 295.302046 
L 80.919524 295.302046 
L 80.983718 295.192349 
L 81.094691 294.964675 
L 81.161954 294.854978 
L 81.272989 294.616956 
L 81.273009 294.616956 
L 81.32045 294.507258 
L 81.430884 294.250608 
L 81.431506 294.250608 
L 81.490434 294.140911 
L 81.601365 293.938075 
L 81.664896 293.828377 
L 81.775951 293.604843 
L 81.832557 293.494111 
L 81.94187 293.2861 
L 81.943612 293.2861 
L 81.989146 293.175368 
L 82.096593 292.925962 
L 82.100201 292.925962 
L 82.150586 292.818335 
L 82.260854 292.59687 
L 82.261393 292.59687 
L 82.321648 292.487173 
L 82.43262 292.25122 
L 82.432724 292.25122 
L 82.509256 292.141523 
L 82.620145 291.905571 
L 82.620352 291.905571 
L 82.663564 291.795873 
L 82.779346 291.549572 
L 82.832966 291.439875 
L 82.948728 291.205992 
L 83.017962 291.096295 
L 83.128975 290.870691 
L 83.183218 290.760994 
L 83.294065 290.510553 
L 83.360582 290.400855 
L 83.475619 290.204228 
L 83.528472 290.094531 
L 83.641911 289.856509 
L 83.696236 289.746811 
L 83.806587 289.527417 
L 83.807209 289.527417 
L 83.860331 289.41772 
L 83.97122 289.183837 
L 83.971407 289.183837 
L 84.031061 289.074139 
L 84.140582 288.860954 
L 84.142075 288.860954 
L 84.2173 288.751257 
L 84.333332 288.494607 
L 84.400263 288.384909 
L 84.51107 288.180003 
L 84.511194 288.180003 
L 84.564545 288.069271 
L 84.690591 287.824005 
L 84.731978 287.714307 
L 84.841416 287.51768 
L 84.843074 287.51768 
L 84.897358 287.407983 
L 85.00833 287.149263 
L 85.008413 287.149263 
L 85.057637 287.039566 
L 85.166412 286.83259 
L 85.168734 286.83259 
L 85.215014 286.722892 
L 85.324037 286.48487 
L 85.325655 286.48487 
L 85.377491 286.375173 
L 85.49315 286.14336 
L 85.545609 286.033662 
L 85.660852 285.822547 
L 85.712648 285.71285 
L 85.822086 285.425153 
L 85.823703 285.425153 
L 85.87243 285.315456 
L 85.983112 285.071224 
L 85.983526 285.071224 
L 86.036483 284.961527 
L 86.146957 284.754551 
L 86.147538 284.754551 
L 86.193528 284.644854 
L 86.304127 284.41718 
L 86.304624 284.41718 
L 86.350987 284.307483 
L 86.458476 284.081879 
L 86.462042 284.081879 
L 86.514294 283.974252 
L 86.623939 283.709322 
L 86.625225 283.709322 
L 86.676605 283.599625 
L 86.787122 283.378161 
L 86.787661 283.378161 
L 86.835931 283.267429 
L 86.945286 283.001465 
L 86.946945 283.001465 
L 87.012011 282.891767 
L 87.120702 282.662024 
L 87.123107 282.662024 
L 87.176313 282.552327 
L 87.283677 282.326723 
L 87.287326 282.326723 
L 87.334187 282.217026 
L 87.443169 281.995561 
L 87.445263 281.995561 
L 87.495047 281.885864 
L 87.603241 281.649912 
L 87.605978 281.649912 
L 87.654704 281.540214 
L 87.765428 281.32082 
L 87.76576 281.32082 
L 87.816103 281.211122 
L 87.927159 280.964821 
L 87.985257 280.855124 
L 88.095276 280.63366 
L 88.096354 280.63366 
L 88.153126 280.523962 
L 88.263808 280.242475 
L 88.264223 280.242475 
L 88.31042 280.132778 
L 88.420728 279.861639 
L 88.421475 279.861639 
L 88.467381 279.751942 
L 88.583517 279.501501 
L 88.638754 279.391804 
L 88.752401 279.128944 
L 88.804694 279.019247 
L 88.915583 278.764667 
L 88.915791 278.764667 
L 88.971567 278.653934 
L 89.082 278.433505 
L 89.082623 278.433505 
L 89.140887 278.323808 
L 89.250989 278.071297 
L 89.251984 278.071297 
L 89.299383 277.9616 
L 89.41019 277.733926 
L 89.451245 277.624229 
L 89.561968 277.392416 
L 89.5623 277.392416 
L 89.619403 277.281684 
L 89.730376 277.067464 
L 89.772592 276.957766 
L 89.882942 276.701116 
L 89.883647 276.701116 
L 89.938345 276.591419 
L 90.047907 276.372024 
L 90.049442 276.372024 
L 90.114258 276.262327 
L 90.223862 276.028444 
L 90.225314 276.028444 
L 90.274496 275.918747 
L 90.274496 275.917712 
L 90.396002 275.660027 
L 90.449788 275.55033 
L 90.56047 275.343354 
L 90.560885 275.343354 
L 90.626489 275.233657 
L 90.736383 275.001844 
L 90.737296 275.001844 
L 90.789423 274.892146 
L 90.789423 274.891111 
L 90.911841 274.60238 
L 90.963304 274.492683 
L 91.07436 274.271218 
L 91.126362 274.160486 
L 91.236671 273.958685 
L 91.23721 273.958685 
L 91.290623 273.848987 
L 91.401098 273.584058 
L 91.40172 273.584058 
L 91.441033 273.474361 
L 91.551798 273.261176 
L 91.552129 273.261176 
L 91.608403 273.151478 
L 91.7195 272.913456 
L 91.770798 272.803759 
L 91.880567 272.592643 
L 91.881832 272.592643 
L 91.925977 272.482946 
L 92.041842 272.222156 
L 92.093886 272.112459 
L 92.209503 271.884785 
L 92.256924 271.777158 
L 92.369099 271.561903 
L 92.418219 271.452206 
L 92.529171 271.201765 
L 92.529233 271.201765 
L 92.581899 271.092068 
L 92.692788 270.903719 
L 92.692975 270.903719 
L 92.744833 270.794022 
L 92.855598 270.55393 
L 92.855929 270.55393 
L 92.898643 270.444233 
L 93.007127 270.237257 
L 93.009657 270.237257 
L 93.051541 270.12756 
L 93.173897 269.846072 
L 93.236163 269.736375 
L 93.345559 269.496283 
L 93.34726 269.496283 
L 93.407142 269.386586 
L 93.523298 269.132005 
L 93.585626 269.022308 
L 93.701948 268.759448 
L 93.749679 268.649751 
L 93.862891 268.420008 
L 93.923602 268.310311 
L 94.033372 268.035033 
L 94.034699 268.035033 
L 94.08467 267.925335 
L 94.200452 267.689383 
L 94.259795 267.579685 
L 94.367865 267.341663 
L 94.37085 267.341663 
L 94.424678 267.231966 
L 94.533908 266.998083 
L 94.535733 266.998083 
L 94.58305 266.888386 
L 94.698667 266.660712 
L 94.738229 266.551015 
L 94.854882 266.273667 
L 94.987667 266.006668 
L 95.034238 265.896971 
L 95.144049 265.665158 
L 95.145334 265.665158 
L 95.193356 265.55546 
L 95.308496 265.354694 
L 95.350691 265.244996 
L 95.46666 265.000765 
L 95.524033 264.890033 
L 95.635068 264.663394 
L 95.635089 264.663394 
L 95.681078 264.553697 
L 95.786618 264.290837 
L 95.792175 264.290837 
L 95.856411 264.18114 
L 95.966969 263.957606 
L 95.967425 263.957606 
L 96.02909 263.847909 
L 96.138632 263.614026 
L 96.140187 263.614026 
L 96.193973 263.504329 
L 96.303037 263.31805 
L 96.305069 263.31805 
L 96.364122 263.208353 
L 96.474887 262.995168 
L 96.475177 262.995168 
L 96.530663 262.88547 
L 96.641014 262.647448 
L 96.64176 262.647448 
L 96.700066 262.537751 
L 96.811038 262.303868 
L 96.811163 262.303868 
L 96.858438 262.194171 
L 96.969369 261.962358 
L 97.027633 261.85266 
L 97.143665 261.60015 
L 97.195046 261.490452 
L 97.308257 261.277267 
L 97.360633 261.16757 
L 97.482761 260.894362 
L 97.532773 260.784664 
L 97.642543 260.56527 
L 97.64387 260.56527 
L 97.696992 260.455573 
L 97.810142 260.246527 
L 97.869007 260.13683 
L 97.979648 259.925714 
L 97.980104 259.925714 
L 98.041811 259.816017 
L 98.150399 259.567646 
L 98.152866 259.567646 
L 98.27321 259.337902 
L 98.322518 259.228205 
L 98.433573 258.994322 
L 98.496109 258.88359 
L 98.606542 258.685928 
L 98.607205 258.685928 
L 98.657052 258.576231 
L 98.767858 258.319581 
L 98.767983 258.319581 
L 98.825501 258.209883 
L 98.939334 257.936675 
L 98.9869 257.826978 
L 99.103429 257.555839 
L 99.157671 257.446142 
L 99.157671 257.445107 
L 99.284899 257.179143 
L 99.350712 257.069446 
L 99.461808 256.821075 
L 99.513023 256.711377 
L 99.633492 256.479564 
L 99.684582 256.369867 
L 99.798416 256.08631 
L 99.854897 255.976613 
L 99.965248 255.755148 
L 99.965953 255.755148 
L 100.03023 255.645451 
L 100.140809 255.432266 
L 100.141327 255.432266 
L 100.190302 255.322569 
L 100.301233 255.128011 
L 100.301399 255.128011 
L 100.355226 255.018314 
L 100.471009 254.784431 
L 100.515838 254.674734 
L 100.623638 254.418084 
L 100.626893 254.418084 
L 100.684411 254.308386 
L 100.794761 254.097271 
L 100.795425 254.097271 
L 100.84241 253.986539 
L 100.953133 253.724714 
L 100.953506 253.724714 
L 101.012766 253.615017 
L 101.123822 253.368716 
L 101.181091 253.259018 
L 101.294883 252.981671 
L 101.345766 252.871973 
L 101.456697 252.652579 
L 101.518404 252.542881 
L 101.629086 252.313138 
L 101.629459 252.313138 
L 101.673541 252.203441 
L 101.783933 251.95714 
L 101.784638 251.95714 
L 101.844229 251.847442 
L 101.955243 251.630117 
L 101.955305 251.630117 
L 102.018816 251.52042 
L 102.127963 251.317584 
L 102.129912 251.317584 
L 102.188426 251.206852 
L 102.298983 251.023678 
L 102.299481 251.023678 
L 102.347503 250.913981 
L 102.457853 250.700795 
L 102.458599 250.700795 
L 102.521923 250.591098 
L 102.521923 250.590063 
L 102.642268 250.361355 
L 102.7002 250.251658 
L 102.810012 250.009496 
L 102.811297 250.009496 
L 102.860148 249.899798 
L 102.975724 249.676264 
L 103.025943 249.566567 
L 103.141311 249.347173 
L 103.204842 249.237475 
L 103.315151 249.034639 
L 103.315939 249.034639 
L 103.384467 248.923907 
L 103.513292 248.631036 
L 103.563636 248.521338 
L 103.674235 248.287456 
L 103.674733 248.287456 
L 103.72657 248.177758 
L 103.837625 247.941806 
L 103.894106 247.832109 
L 104.010014 247.592016 
L 104.062804 247.481284 
L 104.183895 247.233948 
L 104.24357 247.124251 
L 104.353671 246.890368 
L 104.354583 246.890368 
L 104.404388 246.78274 
L 104.514904 246.552997 
L 104.515464 246.552997 
L 104.578933 246.4433 
L 104.689512 246.18044 
L 104.69003 246.18044 
L 104.755095 246.069708 
L 104.870712 245.83479 
L 104.932212 245.727163 
L 105.043184 245.507768 
L 105.043288 245.507768 
L 105.084902 245.398071 
L 105.195957 245.176607 
L 105.195999 245.176607 
L 105.242445 245.06691 
L 105.352505 244.839236 
L 105.353541 244.839236 
L 105.403719 244.728504 
L 105.525515 244.46254 
L 105.57333 244.352843 
L 105.688988 244.121029 
L 105.754758 244.011332 
L 105.870002 243.800217 
L 105.923892 243.690519 
L 106.038928 243.493892 
L 106.091491 243.384195 
L 106.202587 243.179289 
L 106.25289 243.069592 
L 106.368631 242.837778 
L 106.423288 242.728081 
L 106.534302 242.512826 
L 106.534343 242.512826 
L 106.593396 242.403129 
L 106.704368 242.183734 
L 106.70443 242.183734 
L 106.773166 242.074037 
L 106.883931 241.796689 
L 106.884221 241.796689 
L 106.957041 241.689062 
L 107.067931 241.44483 
L 107.068138 241.44483 
L 107.116201 241.335133 
L 107.227298 241.110564 
L 107.343163 240.869437 
L 107.391144 240.75974 
L 107.50759 240.492741 
L 107.556441 240.383044 
L 107.556441 240.382009 
L 107.675707 240.176068 
L 107.736418 240.06637 
L 107.84652 239.840766 
L 107.847432 239.840766 
L 107.900057 239.731069 
L 108.010407 239.499256 
L 108.011154 239.499256 
L 108.05791 239.389559 
L 108.171101 239.170164 
L 108.238158 239.060467 
L 108.348922 238.807956 
L 108.349192 238.807956 
L 108.401174 238.698259 
L 108.510861 238.480934 
L 108.512271 238.480934 
L 108.557182 238.371237 
L 108.667325 238.162191 
L 108.668237 238.162191 
L 108.7287 238.052494 
L 108.83876 237.808263 
L 108.839797 237.808263 
L 108.894536 237.698565 
L 109.003145 237.497799 
L 109.005633 237.497799 
L 109.055313 237.388101 
L 109.055313 237.387066 
L 109.170806 237.166637 
L 109.228925 237.055905 
L 109.354847 236.812708 
L 109.407721 236.703011 
L 109.407721 236.701976 
L 109.528895 236.45257 
L 109.579197 236.342873 
L 109.689589 236.125548 
L 109.690211 236.125548 
L 109.747688 236.015851 
L 109.863387 235.779898 
L 109.916178 235.670201 
L 110.025948 235.450806 
L 110.027275 235.450806 
L 110.08189 235.341109 
L 110.19224 235.123784 
L 110.192904 235.123784 
L 110.246275 235.014087 
L 110.368527 234.736739 
L 110.43915 234.627042 
L 110.549313 234.376601 
L 110.550205 234.376601 
L 110.609838 234.266904 
L 110.720935 234.051649 
L 110.786995 233.941951 
L 110.89353 233.743255 
L 110.898051 233.743255 
L 110.95138 233.633557 
L 111.059699 233.422442 
L 111.062436 233.422442 
L 111.112821 233.312745 
L 111.223462 233.080931 
L 111.223876 233.080931 
L 111.28888 232.971234 
L 111.402112 232.74977 
L 111.46753 232.640073 
L 111.593846 232.426887 
L 111.642676 232.31719 
L 111.753483 232.085377 
L 111.753732 232.085377 
L 111.809384 231.97568 
L 111.919568 231.743867 
L 111.92048 231.743867 
L 111.98791 231.634169 
L 112.098965 231.452031 
L 112.099006 231.452031 
L 112.157893 231.342333 
L 112.273883 231.098102 
L 112.336253 230.988404 
L 112.444136 230.713126 
L 112.44735 230.713126 
L 112.501716 230.603429 
L 112.612647 230.394383 
L 112.612813 230.394383 
L 112.680284 230.284686 
L 112.796398 230.025966 
L 112.855741 229.916269 
L 112.971151 229.696874 
L 113.014611 229.587177 
L 113.124132 229.378131 
L 113.125666 229.378131 
L 113.176715 229.267399 
L 113.297433 229.026272 
L 113.346574 228.916575 
L 113.346574 228.91554 
L 113.462523 228.672343 
L 113.518672 228.562646 
L 113.629271 228.378438 
L 113.629562 228.378438 
L 113.676422 228.26874 
L 113.792205 228.026578 
L 113.856939 227.916881 
L 113.968035 227.689208 
L 114.025844 227.57951 
L 114.148469 227.293883 
L 114.215525 227.184186 
L 114.325046 226.944094 
L 114.326622 226.944094 
L 114.369916 226.834397 
L 114.480764 226.592235 
L 114.48095 226.592235 
L 114.546493 226.482538 
L 114.657175 226.246585 
L 114.65759 226.246585 
L 114.706067 226.136888 
L 114.815174 225.952679 
L 114.816915 225.952679 
L 114.863569 225.842982 
L 114.974375 225.617378 
L 114.974624 225.617378 
L 115.025382 225.507681 
L 115.140916 225.286217 
L 115.205153 225.176519 
L 115.315212 224.955055 
L 115.316125 224.955055 
L 115.379884 224.845358 
L 115.496807 224.65287 
L 115.557062 224.543173 
L 115.672762 224.31343 
L 115.724392 224.203732 
L 115.834203 223.96778 
L 115.835447 223.96778 
L 115.896241 223.858082 
L 116.007172 223.640758 
L 116.007338 223.640758 
L 116.055111 223.53106 
L 116.164549 223.326154 
L 116.166187 223.326154 
L 116.230153 223.215422 
L 116.341043 223.01776 
L 116.34125 223.01776 
L 116.402106 222.907028 
L 116.530226 222.626575 
L 116.587558 222.516878 
L 116.700334 222.318181 
L 116.766934 222.208484 
L 116.877533 221.98702 
L 116.877948 221.98702 
L 116.936689 221.877322 
L 117.050171 221.628951 
L 117.110053 221.519254 
L 117.221108 221.303999 
L 117.27394 221.194302 
L 117.39528 220.939721 
L 117.472579 220.830024 
L 117.583551 220.567165 
L 117.629043 220.457467 
L 117.737859 220.269119 
L 117.740098 220.269119 
L 117.786378 220.161492 
L 117.897267 219.927609 
L 117.897392 219.927609 
L 117.953334 219.817912 
L 118.072227 219.559192 
L 118.132731 219.448459 
L 118.24275 219.221821 
L 118.243807 219.221821 
L 118.293218 219.112124 
L 118.399172 218.915496 
L 118.404149 218.915496 
L 118.45781 218.805799 
L 118.567165 218.569847 
L 118.568865 218.569847 
L 118.632438 218.460149 
L 118.742747 218.232476 
L 118.743493 218.232476 
L 118.812913 218.122778 
L 118.92148 217.888896 
L 118.923968 217.888896 
L 118.974644 217.779198 
L 119.087918 217.561874 
L 119.134385 217.452176 
L 119.244237 217.263828 
L 119.245357 217.263828 
L 119.307229 217.154131 
L 119.422514 216.932667 
L 119.478457 216.824004 
L 119.478457 216.822969 
L 119.593597 216.622203 
L 119.64985 216.512505 
L 119.765343 216.288971 
L 119.82539 216.179274 
L 119.935243 215.932973 
L 119.936487 215.932973 
L 120.001304 215.823275 
L 120.116299 215.622509 
L 120.167534 215.512812 
L 120.280642 215.309975 
L 120.335631 215.200278 
L 120.451807 214.947767 
L 120.508227 214.83807 
L 120.617706 214.57728 
L 120.619157 214.57728 
L 120.675349 214.466548 
L 120.784496 214.258537 
L 120.786424 214.258537 
L 120.848898 214.14884 
L 120.980066 213.865283 
L 121.039326 213.755586 
L 121.149842 213.563098 
L 121.150423 213.563098 
L 121.210927 213.453401 
L 121.325714 213.269192 
L 121.381117 213.159495 
L 121.492007 212.94424 
L 121.492214 212.94424 
L 121.553257 212.834543 
L 121.662529 212.625497 
L 121.664354 212.625497 
L 121.715486 212.514765 
L 121.826209 212.277777 
L 121.826541 212.277777 
L 121.874563 212.16808 
L 121.983378 211.967313 
L 121.985659 211.967313 
L 122.035049 211.857616 
L 122.150542 211.638221 
L 122.204369 211.528524 
L 122.323926 211.315339 
L 122.374643 211.205642 
L 122.484309 211.023503 
L 122.48574 211.023503 
L 122.539152 210.913806 
L 122.648798 210.70062 
L 122.650249 210.70062 
L 122.763212 210.512272 
L 122.807626 210.402575 
L 122.918639 210.203878 
L 122.918722 210.203878 
L 122.993119 210.093146 
L 123.108735 209.868577 
L 123.171105 209.75888 
L 123.281933 209.527067 
L 123.282202 209.527067 
L 123.335242 209.417369 
L 123.443726 209.233161 
L 123.446338 209.233161 
L 123.560048 208.966162 
L 123.634859 208.856464 
L 123.7506 208.624651 
L 123.81127 208.514954 
L 123.81127 208.513919 
L 123.925103 208.307978 
L 123.988261 208.198281 
L 124.091769 208.024421 
L 124.099358 208.024421 
L 124.158037 207.914724 
L 124.268636 207.680841 
L 124.269093 207.680841 
L 124.339383 207.571144 
L 124.454751 207.357958 
L 124.506464 207.248261 
L 124.628094 207.072332 
L 124.695813 206.962634 
L 124.815785 206.74324 
L 124.89242 206.633543 
L 124.89242 206.632508 
L 125.008493 206.385171 
L 125.06315 206.275474 
L 125.178477 206.064359 
L 125.246362 205.954661 
L 125.359325 205.766313 
L 125.418834 205.655581 
L 125.533538 205.466198 
L 125.585085 205.356501 
L 125.696016 205.157804 
L 125.696181 205.157804 
L 125.753077 205.048107 
L 125.862972 204.793526 
L 125.864133 204.793526 
L 125.931811 204.683829 
L 126.046951 204.480993 
L 126.113032 204.371295 
L 126.113032 204.37026 
L 126.244905 204.114645 
L 126.310303 204.004948 
L 126.424634 203.843507 
L 126.492603 203.733809 
L 126.609712 203.526833 
L 126.66864 203.417136 
L 126.66864 203.416101 
L 126.800347 203.162556 
L 126.851065 203.052858 
L 126.961747 202.814836 
L 126.96212 202.814836 
L 127.022873 202.705139 
L 127.133472 202.52093 
L 127.133762 202.52093 
L 127.191653 202.411233 
L 127.308888 202.204257 
L 127.371921 202.09456 
L 127.497636 201.854468 
L 127.557248 201.74477 
L 127.689619 201.537794 
L 127.751076 201.427062 
L 127.859892 201.219051 
L 127.862173 201.219051 
L 127.914715 201.109354 
L 128.025148 200.892029 
L 128.025812 200.892029 
L 128.096683 200.782332 
L 128.212134 200.560868 
L 128.26337 200.45117 
L 128.376229 200.275241 
L 128.428066 200.165544 
L 128.536218 199.962707 
L 128.539121 199.962707 
L 128.586375 199.85301 
L 128.698612 199.627406 
L 128.766373 199.517709 
L 128.87635 199.327291 
L 128.87747 199.327291 
L 128.93561 199.217594 
L 129.049029 198.979571 
L 129.112187 198.869874 
L 129.222828 198.640131 
L 129.223243 198.640131 
L 129.272259 198.530434 
L 129.38769 198.315179 
L 129.45232 198.205481 
L 129.572685 197.973668 
L 129.637315 197.863971 
L 129.637315 197.862936 
L 129.758613 197.60939 
L 129.836161 197.499693 
L 129.952338 197.247183 
L 130.020991 197.13645 
L 130.131797 196.876696 
L 130.132087 196.876696 
L 130.177953 196.766998 
L 130.288925 196.551743 
L 130.289049 196.551743 
L 130.351336 196.442046 
L 130.461231 196.259907 
L 130.462433 196.259907 
L 130.521071 196.15021 
L 130.630633 195.899769 
L 130.632126 195.899769 
L 130.683673 195.790072 
L 130.793484 195.574817 
L 130.794769 195.574817 
L 130.848846 195.464085 
L 130.959403 195.264353 
L 130.959942 195.264353 
L 131.030316 195.154656 
L 131.140065 194.960098 
L 131.141413 194.960098 
L 131.198972 194.849366 
L 131.309406 194.655843 
L 131.310069 194.655843 
L 131.371734 194.545111 
L 131.482727 194.357798 
L 131.482789 194.357798 
L 131.5418 194.248101 
L 131.652192 194.032846 
L 131.652358 194.032846 
L 131.710789 193.923149 
L 131.821885 193.73894 
L 131.884048 193.629243 
L 132.003522 193.422267 
L 132.060003 193.312569 
L 132.17479 193.128361 
L 132.234797 193.018664 
L 132.345562 192.846874 
L 132.345852 192.846874 
L 132.399762 192.737176 
L 132.399762 192.736141 
L 132.53035 192.497084 
L 132.582767 192.387387 
L 132.698177 192.172132 
L 132.76797 192.062435 
L 132.872265 191.880296 
L 132.878859 191.880296 
L 132.940275 191.770599 
L 133.05527 191.576041 
L 133.115152 191.466344 
L 133.115152 191.465309 
L 133.243293 191.255228 
L 133.305207 191.145531 
L 133.415308 190.955113 
L 133.416303 190.955113 
L 133.483318 190.845416 
L 133.483318 190.844381 
L 133.598935 190.619812 
L 133.670967 190.510115 
L 133.781193 190.282441 
L 133.782064 190.282441 
L 133.840121 190.172744 
L 133.956174 189.924373 
L 134.023458 189.814676 
L 134.133435 189.630467 
L 134.134389 189.630467 
L 134.189875 189.519735 
L 134.300723 189.309654 
L 134.30093 189.309654 
L 134.369147 189.199957 
L 134.483935 189.015748 
L 134.54108 188.906051 
L 134.658314 188.701145 
L 134.725826 188.591448 
L 134.838706 188.409309 
L 134.885318 188.299612 
L 135.000478 188.094705 
L 135.055467 187.985008 
L 135.166315 187.755265 
L 135.166564 187.755265 
L 135.233247 187.645568 
L 135.346002 187.479987 
L 135.407087 187.372359 
L 135.407087 187.370289 
L 135.522455 187.155034 
L 135.586546 187.045337 
L 135.704547 186.815594 
L 135.770193 186.705897 
L 135.885644 186.488572 
L 135.957677 186.378875 
L 136.065954 186.194666 
L 136.068691 186.194666 
L 136.134834 186.084969 
L 136.242282 185.913179 
L 136.245765 185.913179 
L 136.292626 185.803481 
L 136.408699 185.550971 
L 136.46968 185.441273 
L 136.58258 185.254995 
L 136.653804 185.145298 
L 136.778295 184.880369 
L 136.847446 184.769636 
L 136.956801 184.545068 
L 136.958501 184.545068 
L 137.017636 184.43537 
L 137.128733 184.232534 
L 137.200309 184.122837 
L 137.315449 183.92207 
L 137.37869 183.814442 
L 137.490803 183.613676 
L 137.554749 183.503978 
L 137.665763 183.305282 
L 137.725188 183.194549 
L 137.835933 183.005166 
L 137.836223 183.005166 
L 137.89343 182.895469 
L 138.002412 182.729888 
L 138.004444 182.729888 
L 138.080955 182.620191 
L 138.18919 182.423564 
L 138.192052 182.423564 
L 138.264126 182.313867 
L 138.264126 182.312832 
L 138.384055 182.094472 
L 138.4412 181.984775 
L 138.551924 181.775729 
L 138.552131 181.775729 
L 138.613423 181.666032 
L 138.726261 181.479753 
L 138.783779 181.370056 
L 138.894752 181.177569 
L 138.894835 181.177569 
L 138.954924 181.066836 
L 139.065813 180.867105 
L 139.065979 180.867105 
L 139.116033 180.757407 
L 139.22657 180.55871 
L 139.22713 180.55871 
L 139.28386 180.447978 
L 139.394625 180.246177 
L 139.394957 180.246177 
L 139.46363 180.136479 
L 139.572985 179.952271 
L 139.574685 179.952271 
L 139.64284 179.842574 
L 139.763413 179.656295 
L 139.842619 179.545563 
L 139.962777 179.320994 
L 140.026495 179.211297 
L 140.137011 179.018809 
L 140.137509 179.018809 
L 140.187231 178.909112 
L 140.297581 178.691787 
L 140.298244 178.691787 
L 140.360179 178.58209 
L 140.472665 178.373044 
L 140.540716 178.263347 
L 140.540716 178.262312 
L 140.659361 178.072929 
L 140.722104 177.963232 
L 140.832039 177.779023 
L 140.833138 177.779023 
L 140.897271 177.668291 
L 141.008119 177.449931 
L 141.008243 177.449931 
L 141.089689 177.340234 
L 141.202611 177.156026 
L 141.261414 177.046328 
L 141.376202 176.85798 
L 141.435296 176.748283 
L 141.546102 176.570284 
L 141.546351 176.570284 
L 141.619586 176.460586 
L 141.730558 176.270168 
L 141.730683 176.270168 
L 141.810553 176.160471 
L 141.920737 175.957635 
L 141.921608 175.957635 
L 141.986508 175.847937 
L 142.095593 175.65131 
L 142.097563 175.65131 
L 142.159228 175.541613 
L 142.268998 175.316009 
L 142.270325 175.316009 
L 142.327968 175.206312 
L 142.438774 175.034522 
L 142.438981 175.034522 
L 142.518229 174.924825 
L 142.632768 174.750965 
L 142.697357 174.641268 
L 142.810631 174.419803 
L 142.865868 174.310106 
L 142.981195 174.096921 
L 143.046758 173.987224 
L 143.156196 173.803015 
L 143.157855 173.803015 
L 143.210065 173.693318 
L 143.319668 173.531876 
L 143.321161 173.531876 
L 143.39253 173.422179 
L 143.502963 173.208994 
L 143.503585 173.208994 
L 143.584617 173.099297 
L 143.701146 172.915088 
L 143.787817 172.805391 
L 143.898375 172.619112 
L 143.898914 172.619112 
L 143.966136 172.509415 
L 144.080509 172.343834 
L 144.134212 172.234137 
L 144.244189 172.018882 
L 144.245246 172.018882 
L 144.311369 171.909185 
L 144.426488 171.708418 
L 144.478159 171.598721 
L 144.593569 171.383466 
L 144.646111 171.273769 
L 144.755756 171.068862 
L 144.757207 171.068862 
L 144.811242 170.959165 
L 144.930094 170.766678 
L 144.999348 170.65698 
L 145.110403 170.474841 
L 145.110424 170.474841 
L 145.173354 170.365144 
L 145.283206 170.220261 
L 145.28445 170.220261 
L 145.364445 170.110564 
L 145.474256 169.922216 
L 145.4755 169.922216 
L 145.541354 169.811483 
L 145.650501 169.605542 
L 145.652326 169.605542 
L 145.717309 169.495845 
L 145.831433 169.344753 
L 145.887126 169.235055 
L 145.996979 169.052917 
L 145.998223 169.052917 
L 146.065694 168.943219 
L 146.176666 168.754871 
L 146.17679 168.754871 
L 146.243556 168.645174 
L 146.353036 168.454756 
L 146.354363 168.454756 
L 146.426146 168.345059 
L 146.535854 168.138083 
L 146.537201 168.138083 
L 146.595798 168.028385 
L 146.706604 167.82141 
L 146.706895 167.82141 
L 146.777247 167.711712 
L 146.890065 167.537852 
L 146.971345 167.428155 
L 147.081986 167.262574 
L 147.082359 167.262574 
L 147.140831 167.152877 
L 147.255411 166.976948 
L 147.328439 166.86725 
L 147.328439 166.866215 
L 147.447083 166.678902 
L 147.538731 166.569205 
L 147.538731 166.56817 
L 147.65443 166.339462 
L 147.723104 166.229764 
L 147.83335 166.041416 
L 147.834118 166.041416 
L 147.911251 165.931719 
L 148.030061 165.741301 
L 148.10765 165.631604 
L 148.213086 165.420488 
L 148.218726 165.420488 
L 148.291028 165.310791 
L 148.397439 165.165908 
L 148.402104 165.165908 
L 148.459767 165.05828 
L 148.571818 164.865793 
L 148.650361 164.756095 
L 148.759301 164.569817 
L 148.761437 164.569817 
L 148.841328 164.46012 
L 148.841328 164.459085 
L 148.959433 164.28626 
L 149.029268 164.176563 
L 149.138498 163.963378 
L 149.140281 163.963378 
L 149.208374 163.85368 
L 149.320363 163.663262 
L 149.384122 163.553565 
L 149.495011 163.385915 
L 149.495136 163.385915 
L 149.577162 163.276217 
L 149.688259 163.08373 
L 149.747643 162.974032 
L 149.862389 162.789824 
L 149.937366 162.680127 
L 150.047094 162.493848 
L 150.048463 162.493848 
L 150.106022 162.384151 
L 150.215834 162.208221 
L 150.216829 162.208221 
L 150.29786 162.097489 
L 150.405183 161.920525 
L 150.408957 161.920525 
L 150.477299 161.810827 
L 150.586861 161.630758 
L 150.588312 161.630758 
L 150.654124 161.521061 
L 150.762443 161.328573 
L 150.765221 161.328573 
L 150.826264 161.218876 
L 150.826264 161.217841 
L 150.943996 161.053295 
L 151.00931 160.943598 
L 151.124637 160.732483 
L 151.199531 160.624855 
L 151.199531 160.622785 
L 151.319004 160.415809 
L 151.392944 160.306112 
L 151.502009 160.15709 
L 151.504041 160.15709 
L 151.585446 160.047392 
L 151.694801 159.879742 
L 151.696542 159.879742 
L 151.753148 159.770044 
L 151.862793 159.604464 
L 151.864203 159.604464 
L 151.933333 159.494766 
L 152.047747 159.329186 
L 152.114181 159.219488 
L 152.224573 159.060117 
L 152.225195 159.060117 
L 152.297933 158.95042 
L 152.415913 158.780699 
L 152.49852 158.671002 
L 152.608 158.503352 
L 152.609534 158.503352 
L 152.67659 158.393654 
L 152.785489 158.244632 
L 152.787646 158.244632 
L 152.867806 158.134934 
L 152.978529 157.985912 
L 152.978903 157.985912 
L 153.045378 157.876214 
L 153.166428 157.710634 
L 153.235972 157.599901 
L 153.346944 157.420867 
L 153.347027 157.420867 
L 153.412673 157.31117 
L 153.523708 157.149729 
L 153.523749 157.149729 
L 153.602686 157.038997 
L 153.70889 156.862032 
L 153.713659 156.862032 
L 153.788262 156.7513 
L 153.899193 156.572266 
L 153.899359 156.572266 
L 153.958992 156.462569 
L 154.071913 156.28043 
L 154.147346 156.169698 
L 154.273372 155.986524 
L 154.355026 155.876827 
L 154.475121 155.653293 
L 154.537699 155.543595 
L 154.652486 155.355247 
L 154.727753 155.24555 
L 154.838477 155.090318 
L 154.838808 155.090318 
L 154.908228 154.980621 
L 155.011736 154.829528 
L 155.019325 154.829528 
L 155.10019 154.719831 
L 155.212967 154.55218 
L 155.29547 154.442483 
L 155.405032 154.260344 
L 155.406567 154.260344 
L 155.47495 154.149612 
L 155.58501 154.026461 
L 155.586047 154.026461 
L 155.654803 153.916764 
L 155.764241 153.771881 
L 155.765817 153.771881 
L 155.838969 153.662184 
L 155.949858 153.52351 
L 155.950066 153.52351 
L 156.033958 153.412778 
L 156.152333 153.231674 
L 156.237117 153.121976 
L 156.346514 152.972954 
L 156.348173 152.972954 
L 156.446248 152.863257 
L 156.555769 152.699745 
L 156.557096 152.699745 
L 156.622078 152.589013 
L 156.732926 152.453444 
L 156.733175 152.453444 
L 156.79455 152.343747 
L 156.908964 152.178166 
L 156.987839 152.068469 
L 157.097484 151.898749 
L 157.098936 151.898749 
L 157.217559 151.71247 
L 157.291271 151.604843 
L 157.291271 151.603808 
L 157.40469 151.426843 
L 157.460902 151.317146 
L 157.57372 151.143286 
L 157.640361 151.033589 
L 157.640361 151.032554 
L 157.773395 150.818334 
L 157.852436 150.708637 
L 157.96175 150.555474 
L 157.963533 150.555474 
L 158.032828 150.445777 
L 158.143013 150.300894 
L 158.143883 150.300894 
L 158.224251 150.191197 
L 158.334643 150.042174 
L 158.335327 150.042174 
L 158.395479 149.934547 
L 158.395479 149.932477 
L 158.502553 149.804152 
L 158.506534 149.804152 
L 158.575332 149.694454 
L 158.685806 149.499897 
L 158.686428 149.499897 
L 158.774136 149.3902 
L 158.888592 149.21841 
L 158.966969 149.108712 
L 159.07649 148.967969 
L 159.078066 148.967969 
L 159.136289 148.858272 
L 159.246639 148.70304 
L 159.247386 148.70304 
L 159.313198 148.595412 
L 159.313198 148.592307 
L 159.429935 148.452599 
L 159.534603 148.342901 
L 159.643668 148.150414 
L 159.645659 148.150414 
L 159.711388 148.040717 
L 159.711388 148.039682 
L 159.829057 147.877205 
L 159.909778 147.767508 
L 160.020335 147.585369 
L 160.020874 147.585369 
L 160.090916 147.475672 
L 160.205248 147.314231 
L 160.255135 147.204534 
L 160.365424 147.028604 
L 160.366149 147.028604 
L 160.437352 146.918907 
L 160.546541 146.755396 
L 160.548449 146.755396 
L 160.639889 146.645699 
L 160.750032 146.488397 
L 160.750903 146.488397 
L 160.826709 146.377665 
L 160.943736 146.229677 
L 161.012492 146.11998 
L 161.126844 145.958538 
L 161.190687 145.848841 
L 161.190687 145.847806 
L 161.307299 145.712237 
L 161.369005 145.60254 
L 161.477904 145.418331 
L 161.480102 145.418331 
L 161.5647 145.308634 
L 161.674843 145.153402 
L 161.675776 145.153402 
L 161.784405 145.04267 
L 161.901971 144.882263 
L 162.001664 144.772566 
L 162.116078 144.606985 
L 162.174467 144.497288 
L 162.284776 144.331707 
L 162.285522 144.331707 
L 162.357015 144.22201 
L 162.467034 144.097824 
L 162.468112 144.097824 
L 162.546904 143.988127 
L 162.661215 143.828756 
L 162.747679 143.719058 
L 162.860455 143.551408 
L 162.927262 143.441711 
L 163.038359 143.303037 
L 163.140871 143.193339 
L 163.250185 143.031898 
L 163.251885 143.031898 
L 163.317822 142.922201 
L 163.435139 142.769039 
L 163.510489 142.659341 
L 163.628635 142.485482 
L 163.716094 142.375784 
L 163.826652 142.206064 
L 163.827108 142.206064 
L 163.904594 142.095332 
L 164.02218 141.934926 
L 164.102714 141.825228 
L 164.213728 141.669996 
L 164.282028 141.560299 
L 164.396733 141.37816 
L 164.481994 141.267428 
L 164.592178 141.133929 
L 164.593091 141.133929 
L 164.662469 141.024231 
L 164.662469 141.023196 
L 164.776634 140.868999 
L 164.848916 140.759302 
L 164.959473 140.570954 
L 164.960012 140.570954 
L 165.056616 140.461257 
L 165.176359 140.291536 
L 165.258095 140.181839 
L 165.372178 140.032816 
L 165.436455 139.923119 
L 165.54693 139.774096 
L 165.547552 139.774096 
L 165.630283 139.664399 
L 165.738809 139.480191 
L 165.741256 139.480191 
L 165.803543 139.370493 
L 165.913064 139.209052 
L 165.91464 139.209052 
L 165.997496 139.099355 
L 166.107639 138.97103 
L 166.108592 138.97103 
L 166.17399 138.861332 
L 166.284547 138.720589 
L 166.285086 138.720589 
L 166.348825 138.610892 
L 166.462949 138.459799 
L 166.535852 138.350102 
L 166.656611 138.1928 
L 166.744236 138.083103 
L 166.857904 137.948568 
L 166.93483 137.838871 
L 167.045471 137.704337 
L 167.045678 137.704337 
L 167.130317 137.593605 
L 167.239962 137.433198 
L 167.241372 137.433198 
L 167.32568 137.322466 
L 167.436735 137.168269 
L 167.436776 137.168269 
L 167.524899 137.058572 
L 167.635042 136.8992 
L 167.635996 136.8992 
L 167.720967 136.789503 
L 167.837289 136.661178 
L 167.912763 136.551481 
L 168.023818 136.437644 
L 168.023839 136.437644 
L 168.106591 136.327947 
L 168.220798 136.168575 
L 168.317277 136.058878 
L 168.429597 135.926413 
L 168.531487 135.816716 
L 168.641962 135.675972 
L 168.642584 135.675972 
L 168.744558 135.566275 
L 168.744558 135.56524 
L 168.860962 135.431741 
L 168.943652 135.322043 
L 168.943652 135.321009 
L 169.059767 135.195788 
L 169.160641 135.086091 
L 169.160641 135.085056 
L 169.27462 134.937068 
L 169.379704 134.827371 
L 169.490303 134.713534 
L 169.490801 134.713534 
L 169.586346 134.603837 
L 169.697236 134.465163 
L 169.779677 134.355466 
L 169.890317 134.208513 
L 169.890774 134.208513 
L 169.990922 134.098815 
L 170.100588 133.9767 
L 170.102019 133.9767 
L 170.200302 133.867002 
L 170.31397 133.738677 
L 170.396908 133.62898 
L 170.507673 133.482027 
L 170.507756 133.482027 
L 170.605666 133.37233 
L 170.714108 133.241935 
L 170.716721 133.241935 
L 170.804595 133.132238 
L 170.914199 132.985285 
L 170.91565 132.985285 
L 171.020858 132.874553 
L 171.131457 132.745193 
L 171.131872 132.745193 
L 171.221363 132.635495 
L 171.331962 132.449217 
L 171.332418 132.449217 
L 171.42307 132.33952 
L 171.533255 132.211195 
L 171.534001 132.211195 
L 171.649743 132.101497 
L 171.76057 131.933847 
L 171.760632 131.933847 
L 171.843156 131.823115 
L 171.953714 131.689615 
L 171.954211 131.689615 
L 172.036114 131.579918 
L 172.036114 131.578883 
L 172.14974 131.453663 
L 172.259302 131.343965 
L 172.370109 131.188733 
L 172.370399 131.188733 
L 172.440358 131.079036 
L 172.545483 130.971409 
L 172.551455 130.971409 
L 172.63966 130.861711 
L 172.750508 130.737526 
L 172.750715 130.737526 
L 172.850989 130.627829 
L 172.964781 130.493294 
L 173.047782 130.383597 
L 173.15977 130.253202 
L 173.260209 130.143505 
L 173.370311 130.021389 
L 173.371265 130.021389 
L 173.465856 129.911692 
L 173.580644 129.725413 
L 173.69371 129.615716 
L 173.806176 129.477042 
L 173.891167 129.367345 
L 173.891167 129.36631 
L 174.007925 129.226601 
L 174.149232 129.116904 
L 174.259354 128.97616 
L 174.260121 128.97616 
L 174.365827 128.866463 
L 174.475182 128.729859 
L 174.476924 128.729859 
L 174.569732 128.620162 
L 174.569732 128.619127 
L 174.686842 128.471139 
L 174.805279 128.361442 
L 174.915505 128.218628 
L 174.916375 128.218628 
L 175.003461 128.107896 
L 175.117544 127.957839 
L 175.228122 127.848141 
L 175.340546 127.711537 
L 175.422344 127.60184 
L 175.527801 127.485933 
L 175.5334 127.485933 
L 175.622186 127.376236 
L 175.731831 127.227213 
L 175.733283 127.227213 
L 175.873823 127.117516 
L 175.983509 126.989191 
L 175.984919 126.989191 
L 176.105098 126.879494 
L 176.217895 126.788424 
L 176.336332 126.678727 
L 176.441374 126.585588 
L 176.447428 126.585588 
L 176.542767 126.475891 
L 176.653614 126.326868 
L 176.653863 126.326868 
L 176.75227 126.217171 
L 176.865669 126.099194 
L 176.948711 125.989497 
L 177.065033 125.859102 
L 177.202753 125.749405 
L 177.311693 125.596243 
L 177.31385 125.596243 
L 177.434733 125.486546 
L 177.545457 125.356151 
L 177.545789 125.356151 
L 177.609942 125.245419 
L 177.723112 125.136756 
L 177.811608 125.027059 
L 177.811608 125.026024 
L 177.927598 124.902873 
L 178.054951 124.793176 
L 178.158334 124.693828 
L 178.166047 124.693828 
L 178.2793 124.58413 
L 178.2793 124.583095 
L 178.394586 124.480642 
L 178.48644 124.370945 
L 178.595008 124.23848 
L 178.597454 124.23848 
L 178.692834 124.128783 
L 178.801899 124.012877 
L 178.803931 124.012877 
L 178.899642 123.903179 
L 179.012978 123.791412 
L 179.140207 123.681715 
L 179.250308 123.580297 
L 179.251303 123.580297 
L 179.404865 123.4706 
L 179.513017 123.369181 
L 179.515961 123.369181 
L 179.621045 123.259484 
L 179.733469 123.116671 
L 179.829305 123.006973 
L 179.938867 122.891067 
L 179.94036 122.891067 
L 180.048554 122.780335 
L 180.159402 122.665463 
L 180.159651 122.665463 
L 180.266725 122.555766 
L 180.376246 122.43158 
L 180.377821 122.43158 
L 180.472621 122.321883 
L 180.582142 122.197697 
L 180.583717 122.197697 
L 180.667652 122.088 
L 180.775306 121.961745 
L 180.778458 121.961745 
L 180.896604 121.852048 
L 181.007452 121.734071 
L 181.007577 121.734071 
L 181.1166 121.624374 
L 181.224545 121.510537 
L 181.227614 121.510537 
L 181.348539 121.40084 
L 181.458143 121.301492 
L 181.459635 121.301492 
L 181.597978 121.191794 
L 181.597978 121.190759 
L 181.714258 121.063469 
L 181.804164 120.953772 
L 181.915178 120.862702 
L 181.915198 120.862702 
L 182.033531 120.753005 
L 182.143011 120.62261 
L 182.144628 120.62261 
L 182.271504 120.511878 
L 182.381958 120.392867 
L 182.382248 120.392867 
L 182.458137 120.28317 
L 182.566663 120.163124 
L 182.569234 120.163124 
L 182.700568 120.053426 
L 182.805403 119.952008 
L 182.811499 119.952008 
L 182.910901 119.842311 
L 183.021956 119.720195 
L 183.021998 119.720195 
L 183.158494 119.610498 
L 183.273344 119.486312 
L 183.404471 119.376615 
L 183.51395 119.252429 
L 183.515526 119.252429 
L 183.644828 119.142732 
L 183.755675 119.018547 
L 183.755758 119.018547 
L 183.873905 118.908849 
L 183.987407 118.784664 
L 184.088012 118.674967 
L 184.197657 118.581827 
L 184.199067 118.581827 
L 184.297723 118.47213 
L 184.408322 118.362433 
L 184.408757 118.362433 
L 184.517428 118.252736 
L 184.627073 118.134759 
L 184.628483 118.134759 
L 184.721582 118.025062 
L 184.831933 117.911225 
L 184.832472 117.911225 
L 184.945227 117.800493 
L 185.054582 117.675273 
L 185.056282 117.675273 
L 185.181893 117.565575 
L 185.181893 117.56454 
L 185.29693 117.468297 
L 185.386794 117.358599 
L 185.496232 117.250972 
L 185.497891 117.250972 
L 185.619769 117.141275 
L 185.730783 117.015019 
L 185.730866 117.015019 
L 185.855192 116.905322 
L 185.9638 116.772857 
L 185.966288 116.772857 
L 186.077261 116.66316 
L 186.186823 116.555533 
L 186.18786 116.555533 
L 186.315047 116.445835 
L 186.424733 116.31958 
L 186.426102 116.31958 
L 186.530978 116.208848 
L 186.640623 116.096046 
L 186.642033 116.096046 
L 186.766856 115.986349 
L 186.874304 115.878721 
L 186.87787 115.878721 
L 186.953199 115.767989 
L 187.070537 115.667606 
L 187.201705 115.557908 
L 187.312802 115.444072 
L 187.420166 115.334374 
L 187.525374 115.247445 
L 187.531263 115.247445 
L 187.628551 115.137747 
L 187.73774 115.021841 
L 187.739606 115.021841 
L 187.831917 114.912143 
L 187.942723 114.831423 
L 187.943013 114.831423 
L 188.056184 114.721726 
L 188.163465 114.626517 
L 188.16728 114.626517 
L 188.262245 114.516819 
L 188.374918 114.438169 
L 188.508222 114.328471 
L 188.620148 114.245681 
L 188.727865 114.135984 
L 188.830253 114.003519 
L 188.838961 114.003519 
L 188.930609 113.893822 
L 189.041581 113.775845 
L 189.041706 113.775845 
L 189.141315 113.666148 
L 189.25179 113.56266 
L 189.252391 113.56266 
L 189.392247 113.452963 
L 189.503157 113.339126 
L 189.503344 113.339126 
L 189.634221 113.229429 
L 189.742705 113.123871 
L 189.745194 113.123871 
L 189.830538 113.014174 
L 189.934958 112.906546 
L 189.941634 112.906546 
L 190.066686 112.796849 
L 190.178798 112.693361 
L 190.305031 112.583664 
L 190.416045 112.494664 
L 190.526437 112.384967 
L 190.636331 112.252502 
L 190.637368 112.252502 
L 190.773305 112.142805 
L 190.883613 111.997922 
L 190.884028 111.997922 
L 190.995788 111.888225 
L 191.106678 111.774388 
L 191.106844 111.774388 
L 191.217235 111.664691 
L 191.326383 111.58397 
L 191.328332 111.58397 
L 191.441834 111.474273 
L 191.551355 111.370785 
L 191.552931 111.370785 
L 191.689738 111.261087 
L 191.799135 111.159669 
L 191.800711 111.159669 
L 191.931879 111.049972 
L 192.037916 110.958903 
L 192.042851 110.958903 
L 192.178871 110.849205 
L 192.285572 110.743648 
L 192.289967 110.743648 
L 192.392936 110.63395 
L 192.503991 110.520113 
L 192.624585 110.410416 
L 192.73763 110.308998 
L 192.843295 110.199301 
L 192.95352 110.064766 
L 192.954391 110.064766 
L 193.056033 109.955069 
L 193.167876 109.872279 
L 193.277148 109.762581 
L 193.381071 109.632187 
L 193.388245 109.632187 
L 193.525841 109.522489 
L 193.636523 109.414862 
L 193.636896 109.414862 
L 193.725433 109.305165 
L 193.836281 109.187188 
L 193.986857 109.077491 
L 194.095258 108.976073 
L 194.097953 108.976073 
L 194.219542 108.866376 
L 194.325247 108.775306 
L 194.330473 108.775306 
L 194.437174 108.665609 
L 194.534876 108.57247 
L 194.548229 108.57247 
L 194.659823 108.462772 
L 194.767727 108.355145 
L 194.77092 108.355145 
L 194.876066 108.245448 
L 194.985441 108.129541 
L 194.987142 108.129541 
L 195.098943 108.019844 
L 195.209128 107.903937 
L 195.21004 107.903937 
L 195.355722 107.79631 
L 195.355722 107.793205 
L 195.470966 107.686613 
L 195.584675 107.576915 
L 195.695233 107.438241 
L 195.695772 107.438241 
L 195.801395 107.327509 
L 195.911413 107.206428 
L 195.912491 107.206428 
L 196.044447 107.096731 
L 196.153139 107.001522 
L 196.155502 107.001522 
L 196.27199 106.891825 
L 196.378816 106.786267 
L 196.383066 106.786267 
L 196.503805 106.67657 
L 196.503805 106.675535 
L 196.61938 106.564803 
L 196.735536 106.455106 
L 196.844684 106.349548 
L 196.846591 106.349548 
L 196.991693 106.239851 
L 197.095491 106.132223 
L 197.10279 106.132223 
L 197.209573 106.022526 
L 197.320629 105.89834 
L 197.425671 105.787608 
L 197.536353 105.695504 
L 197.536685 105.695504 
L 197.646496 105.585806 
L 197.751289 105.476109 
L 197.757509 105.476109 
L 197.883245 105.366412 
L 197.993554 105.269133 
L 197.994342 105.269133 
L 198.088602 105.159436 
L 198.197625 105.053878 
L 198.199657 105.053878 
L 198.300262 104.944181 
L 198.409078 104.811716 
L 198.411359 104.811716 
L 198.512005 104.702019 
L 198.621526 104.579903 
L 198.623102 104.579903 
L 198.748257 104.470206 
L 198.859104 104.354299 
L 198.859353 104.354299 
L 198.975177 104.244602 
L 199.085362 104.114207 
L 199.086274 104.114207 
L 199.194385 104.00451 
L 199.301915 103.909301 
L 199.305399 103.909301 
L 199.404677 103.799604 
L 199.404677 103.798569 
L 199.518967 103.720953 
L 199.641219 103.611256 
L 199.753269 103.516047 
L 199.895178 103.40635 
L 200.001713 103.294583 
L 200.006233 103.294583 
L 200.111482 103.184885 
L 200.221335 103.0607 
L 200.222558 103.0607 
L 200.309914 102.951002 
L 200.423499 102.824747 
L 200.53982 102.71505 
L 200.650378 102.62398 
L 200.650793 102.62398 
L 200.758489 102.514283 
L 200.758489 102.513248 
L 200.875391 102.419074 
L 200.980309 102.309377 
L 201.087259 102.168633 
L 201.091406 102.168633 
L 201.200346 102.058936 
L 201.308167 101.953378 
L 201.311318 101.953378 
L 201.440662 101.843681 
L 201.546533 101.727774 
L 201.551717 101.727774 
L 201.667209 101.618077 
L 201.777933 101.512519 
L 201.778265 101.512519 
L 201.886293 101.402822 
L 201.997348 101.286916 
L 201.997389 101.286916 
L 202.138717 101.177218 
L 202.247575 101.057172 
L 202.249772 101.057172 
L 202.374015 100.947475 
L 202.484158 100.848127 
L 202.485112 100.848127 
L 202.607156 100.738429 
L 202.71759 100.622523 
L 202.718253 100.622523 
L 202.836441 100.512826 
L 202.949611 100.398989 
L 203.069375 100.289292 
L 203.17902 100.183734 
L 203.180057 100.183734 
L 203.291361 100.074037 
L 203.401131 99.943642 
L 203.402458 99.943642 
L 203.519485 99.833944 
L 203.629835 99.759433 
L 203.630581 99.759433 
L 203.75669 99.649736 
L 203.869653 99.550387 
L 204.024375 99.44069 
L 204.136302 99.35169 
L 204.264442 99.241993 
L 204.37529 99.157133 
L 204.497293 99.047436 
L 204.608141 98.937738 
L 204.60839 98.937738 
L 204.78476 98.828041 
L 204.900584 98.710065 
L 205.062398 98.600368 
L 205.17196 98.509298 
L 205.173474 98.509298 
L 205.318845 98.399601 
L 205.428988 98.302322 
L 205.429942 98.302322 
L 205.583296 98.192625 
L 205.693646 98.103625 
L 205.694268 98.103625 
L 205.876526 97.993928 
L 205.986794 97.917347 
L 205.987623 97.917347 
L 206.143507 97.80765 
L 206.250581 97.710371 
L 206.254562 97.710371 
L 206.425831 97.600674 
L 206.535269 97.534441 
L 206.536928 97.534441 
L 206.718315 97.423709 
L 206.829246 97.354372 
L 206.82937 97.354372 
L 206.983305 97.244675 
L 207.093821 97.184652 
L 207.094277 97.184652 
L 207.267951 97.074955 
L 207.37486 97.012862 
L 207.378965 97.012862 
L 207.600246 96.903165 
L 207.709767 96.845211 
L 207.711177 96.845211 
L 207.893062 96.735514 
L 208.003495 96.677561 
L 208.004159 96.677561 
L 208.243396 96.567864 
L 208.354327 96.532678 
L 208.354493 96.532678 
L 208.622386 96.42298 
L 208.72834 96.367097 
L 208.733482 96.367097 
L 209.01759 96.2574 
L 209.115831 96.216005 
L 209.128686 96.216005 
L 209.482172 96.106307 
L 209.585929 96.071121 
L 209.59302 96.071121 
L 210.039936 95.961424 
L 210.144149 95.934517 
L 210.15095 95.934517 
L 210.767767 95.82482 
L 210.852655 95.808262 
L 210.878864 95.808262 
L 213.007035 95.698565 
L 213.058126 95.692355 
L 213.116432 95.692355 
L 215.091374 95.582658 
L 215.178335 95.5661 
L 215.20247 95.5661 
L 216.111149 95.456403 
L 216.205492 95.437775 
L 216.222246 95.437775 
L 217.225351 95.328078 
L 217.334125 95.31152 
L 217.336323 95.31152 
L 218.002945 95.201822 
L 218.115244 95.172846 
L 218.825575 95.063148 
L 218.923318 95.038311 
L 218.93605 95.038311 
L 219.514466 94.928614 
L 219.617351 94.895498 
L 219.625355 94.895498 
L 220.035695 94.785801 
L 220.145465 94.752684 
L 220.146294 94.752684 
L 220.556593 94.642987 
L 220.664041 94.62229 
L 220.667649 94.62229 
L 221.210235 94.512592 
L 221.320751 94.485685 
L 221.321042 94.485685 
L 221.8747 94.375988 
L 221.944576 94.35943 
L 221.985797 94.35943 
L 222.47099 94.249733 
L 222.567116 94.224896 
L 222.581921 94.224896 
L 223.10369 94.115198 
L 223.209893 94.092431 
L 223.214745 94.092431 
L 223.594045 93.982734 
L 223.705287 93.947548 
L 224.11484 93.837851 
L 224.217808 93.815083 
L 224.225895 93.815083 
L 224.8435 93.705386 
L 224.930046 93.6702 
L 224.954472 93.6702 
L 225.411175 93.560503 
L 225.514476 93.523247 
L 225.522023 93.523247 
L 225.969769 93.41355 
L 226.07647 93.378364 
L 226.080824 93.378364 
L 226.481668 93.268667 
L 226.582522 93.235551 
L 226.592765 93.235551 
L 226.906315 93.125853 
L 227.014136 93.109295 
L 227.017288 93.109295 
L 227.436917 92.999598 
L 227.546853 92.970621 
L 227.548014 92.970621 
L 227.963123 92.860924 
L 228.073515 92.81332 
L 228.074178 92.81332 
L 228.481865 92.703622 
L 228.594454 92.666367 
L 228.925505 92.555635 
L 229.03486 92.500786 
L 229.036602 92.500786 
L 229.393986 92.391089 
L 229.505953 92.347624 
L 229.873 92.237926 
L 229.983142 92.20688 
L 229.984096 92.20688 
L 230.405011 92.097183 
L 230.515237 92.064067 
L 230.516067 92.064067 
L 230.92931 91.953334 
L 231.031491 91.931602 
L 231.040324 91.931602 
L 231.446351 91.821905 
L 231.558402 91.7743 
L 231.889287 91.664603 
L 231.998932 91.627347 
L 232.000342 91.627347 
L 232.301991 91.51765 
L 232.41288 91.492813 
L 232.413087 91.492813 
L 232.790999 91.383116 
L 232.902925 91.335511 
L 233.257033 91.225814 
L 233.3656 91.184419 
L 233.368088 91.184419 
L 233.720122 91.074722 
L 233.831592 91.035396 
L 234.212199 90.925699 
L 234.32398 90.892583 
L 234.664548 90.782885 
L 234.776308 90.749769 
L 235.119592 90.640072 
L 235.22903 90.609026 
L 235.230606 90.609026 
L 235.623985 90.499328 
L 235.731847 90.460003 
L 235.735082 90.460003 
L 236.249801 90.350306 
L 236.362598 90.30891 
L 236.685148 90.199213 
L 236.794959 90.14126 
L 236.796078 90.14126 
L 237.128995 90.031563 
L 237.23101 89.981888 
L 237.240009 89.981888 
L 237.585491 89.872191 
L 237.585491 89.871156 
L 237.699657 89.832866 
L 238.029878 89.722134 
L 238.133137 89.690052 
L 238.140933 89.690052 
L 238.468832 89.580355 
L 238.581401 89.545169 
L 238.852549 89.435472 
L 238.956347 89.406495 
L 238.963625 89.406495 
L 239.278565 89.296798 
L 239.39045 89.257473 
L 239.734273 89.147775 
L 239.847692 89.091892 
L 240.327701 88.98116 
L 240.435688 88.947009 
L 240.438736 88.947009 
L 240.765909 88.837311 
L 240.878125 88.781428 
L 241.207766 88.671731 
L 241.308413 88.640684 
L 241.318821 88.640684 
L 241.61595 88.530987 
L 241.722858 88.489592 
L 241.727047 88.489592 
L 242.139046 88.379894 
L 242.238448 88.33022 
L 242.250143 88.33022 
L 242.553575 88.220523 
L 242.665501 88.177058 
L 243.010485 88.067361 
L 243.120545 88.028035 
L 243.121582 88.028035 
L 243.392212 87.918338 
L 243.504055 87.876943 
L 243.852233 87.767246 
L 243.9642 87.723781 
L 244.329546 87.614083 
L 244.439067 87.585107 
L 244.44056 87.585107 
L 244.748077 87.475409 
L 244.859319 87.450572 
L 245.175275 87.340875 
L 245.284091 87.29741 
L 245.286351 87.29741 
L 245.633263 87.187713 
L 245.745065 87.152527 
L 246.023989 87.04283 
L 246.131353 87.005574 
L 246.135085 87.005574 
L 246.399951 86.894842 
L 246.512665 86.852412 
L 246.796731 86.742715 
L 246.908657 86.69925 
L 247.172942 86.589552 
L 247.284702 86.556436 
L 247.633087 86.446739 
L 247.745386 86.417762 
L 248.128689 86.308065 
L 248.237712 86.26253 
L 248.239785 86.26253 
L 248.524059 86.152833 
L 248.635798 86.121787 
L 248.934233 86.012089 
L 249.048357 85.964485 
L 249.470475 85.854788 
L 249.582525 85.800974 
L 249.995022 85.691277 
L 250.106824 85.654021 
L 250.417741 85.543289 
L 250.531098 85.509138 
L 250.818896 85.399441 
L 250.930822 85.353906 
L 251.293514 85.244209 
L 251.399883 85.213162 
L 251.404611 85.213162 
L 251.725336 85.103465 
L 251.837054 85.070349 
L 252.12253 84.960652 
L 252.225457 84.925466 
L 252.233544 84.925466 
L 252.499114 84.815768 
L 252.499114 84.814733 
L 252.611123 84.790931 
L 252.98551 84.681234 
L 253.097311 84.646048 
L 253.446982 84.536351 
L 253.558784 84.511514 
L 253.834929 84.401816 
L 253.943081 84.362491 
L 253.946026 84.362491 
L 254.336253 84.252794 
L 254.450605 84.215538 
L 254.788851 84.104806 
L 254.891654 84.078934 
L 254.899948 84.078934 
L 255.261727 83.969237 
L 255.373156 83.93612 
L 255.672068 83.825388 
L 255.784657 83.787098 
L 256.214696 83.677401 
L 256.326808 83.627726 
L 256.676914 83.518029 
L 256.788467 83.493192 
L 257.178073 83.383495 
L 257.290248 83.358658 
L 257.633615 83.247925 
L 257.741684 83.199286 
L 257.74467 83.199286 
L 258.100561 83.089589 
L 258.212342 83.052333 
L 258.74002 82.942636 
L 258.852527 82.90952 
L 259.218702 82.799822 
L 259.330297 82.772916 
L 259.678557 82.663218 
L 259.784263 82.640451 
L 259.789613 82.640451 
L 260.160557 82.530754 
L 260.273603 82.483149 
L 260.68386 82.373452 
L 260.797196 82.338266 
L 261.093869 82.228569 
L 261.202104 82.191313 
L 261.204966 82.191313 
L 261.482811 82.081616 
L 261.595401 82.04643 
L 261.907127 81.936733 
L 262.010469 81.899477 
L 262.018182 81.899477 
L 262.343883 81.78978 
L 262.456265 81.758733 
L 262.686587 81.649036 
L 262.79109 81.603501 
L 262.797642 81.603501 
L 263.310619 81.493804 
L 263.422214 81.460688 
L 263.718098 81.350991 
L 263.827246 81.305456 
L 263.829112 81.305456 
L 264.268191 81.195759 
L 264.380158 81.152294 
L 264.727133 81.042596 
L 264.834166 81.017759 
L 264.838189 81.017759 
L 265.280709 80.908062 
L 265.390686 80.870806 
L 265.391723 80.870806 
L 265.793438 80.761109 
L 265.905862 80.727993 
L 266.27523 80.618296 
L 266.385269 80.589319 
L 266.386202 80.589319 
L 266.763823 80.479622 
L 266.876579 80.458924 
L 267.28074 80.349227 
L 267.393662 80.303692 
L 267.839085 80.193995 
L 267.95097 80.15467 
L 268.333111 80.044972 
L 268.444913 80.009786 
L 268.893695 79.900089 
L 269.007197 79.862833 
L 269.458509 79.753136 
L 269.571182 79.715881 
L 270.002257 79.606183 
L 270.116837 79.566858 
L 270.498066 79.457161 
L 270.608209 79.424044 
L 270.609163 79.424044 
L 270.973285 79.314347 
L 271.085771 79.268812 
L 271.528955 79.159115 
L 271.639555 79.11772 
L 271.640052 79.11772 
L 271.933656 79.008023 
L 272.045375 78.974907 
L 272.465917 78.865209 
L 272.571104 78.834163 
L 272.577013 78.834163 
L 272.888242 78.724466 
L 272.999504 78.705838 
L 273.399063 78.596141 
L 273.51074 78.567164 
L 273.930701 78.457467 
L 274.042378 78.42849 
L 274.592222 78.317758 
L 274.695564 78.283607 
L 274.703319 78.283607 
L 275.092137 78.17391 
L 275.205182 78.126305 
L 275.666903 78.016608 
L 275.779078 77.960724 
L 276.097066 77.851027 
L 276.211397 77.813771 
L 276.588148 77.704074 
L 276.700115 77.660609 
L 277.11765 77.550912 
L 277.229431 77.513656 
L 277.658765 77.403959 
L 277.77264 77.372913 
L 278.197495 77.263215 
L 278.310416 77.236308 
L 278.791503 77.125576 
L 278.895218 77.095565 
L 278.902559 77.095565 
L 279.282626 76.985868 
L 279.395278 76.946542 
L 279.753346 76.83581 
L 279.861913 76.809938 
L 279.86436 76.809938 
L 280.352331 76.700241 
L 280.463925 76.671264 
L 280.771712 76.561567 
L 280.868377 76.528451 
L 280.882767 76.528451 
L 281.258605 76.418753 
L 281.371319 76.393916 
L 281.824165 76.284219 
L 281.824165 76.283184 
L 281.938829 76.240754 
L 282.440277 76.131057 
L 282.552991 76.10622 
L 282.945085 75.996522 
L 283.05668 75.971685 
L 283.520225 75.861988 
L 283.622282 75.851639 
L 283.631198 75.851639 
L 284.173577 75.741942 
L 284.28513 75.715035 
L 284.721222 75.605338 
L 284.833646 75.574291 
L 285.302624 75.463559 
L 285.417827 75.435618 
L 285.874405 75.32592 
L 285.986083 75.294874 
L 286.393748 75.185177 
L 286.505985 75.145851 
L 286.873115 75.035119 
L 286.986285 75.013387 
L 287.476247 74.903689 
L 287.587737 74.878852 
L 288.062874 74.769155 
L 288.174344 74.750527 
L 288.689975 74.64083 
L 288.801735 74.607714 
L 289.310939 74.498016 
L 289.421538 74.477319 
L 289.421953 74.477319 
L 289.757275 74.367622 
L 289.870777 74.336575 
L 290.333368 74.226878 
L 290.445046 74.195832 
L 290.92999 74.086134 
L 291.041895 74.067506 
L 291.482363 73.957809 
L 291.594704 73.928833 
L 291.977301 73.819135 
L 292.088978 73.790159 
L 292.598223 73.679427 
L 292.711269 73.657694 
L 293.2709 73.546962 
L 293.383904 73.500392 
L 293.858605 73.390695 
L 293.971983 73.361718 
L 294.462027 73.252021 
L 294.573373 73.239603 
L 295.071463 73.129905 
L 295.184508 73.09265 
L 295.712166 72.982952 
L 295.799003 72.943627 
L 295.823262 72.943627 
L 296.201257 72.83393 
L 296.295641 72.811162 
L 296.312353 72.811162 
L 296.770736 72.701465 
L 296.884508 72.666279 
L 297.223832 72.556582 
L 297.335156 72.529675 
L 297.891345 72.419978 
L 297.994521 72.39928 
L 298.002421 72.39928 
L 298.489915 72.289583 
L 298.570843 72.264746 
L 298.60097 72.264746 
L 299.038929 72.155049 
L 299.151685 72.130211 
L 299.622301 72.019479 
L 299.736695 71.981189 
L 300.243535 71.871491 
L 300.355087 71.848724 
L 300.820831 71.739027 
L 300.935204 71.701771 
L 301.388589 71.592074 
L 301.483513 71.561027 
L 301.499686 71.561027 
L 301.966218 71.45133 
L 302.076029 71.426493 
L 302.077314 71.426493 
L 302.433247 71.315761 
L 302.540902 71.304377 
L 302.544302 71.304377 
L 302.981141 71.19468 
L 303.092902 71.173982 
L 303.577306 71.064285 
L 303.688984 71.033239 
L 304.202438 70.923542 
L 304.314385 70.892495 
L 304.783073 70.782798 
L 304.894999 70.7621 
L 305.405032 70.652403 
L 305.516543 70.625496 
L 306.016955 70.515799 
L 306.129586 70.476473 
L 306.607066 70.366776 
L 306.718619 70.344009 
L 307.217248 70.234312 
L 307.329029 70.211544 
L 307.940952 70.101847 
L 308.052069 70.07287 
L 308.658975 69.962138 
L 308.770486 69.940406 
L 309.342848 69.830708 
L 309.454857 69.807941 
L 309.977538 69.698244 
L 310.089195 69.671337 
L 310.613555 69.56164 
L 310.721293 69.538872 
L 310.724486 69.538872 
L 311.359716 69.429175 
L 311.471559 69.410547 
L 312.025798 69.30085 
L 312.10741 69.282222 
L 312.136895 69.282222 
L 312.752053 69.172525 
L 312.863689 69.145618 
L 313.417348 69.035921 
L 313.531886 69.013153 
L 314.221441 68.903456 
L 314.33345 68.891038 
L 314.940024 68.78134 
L 315.053443 68.746154 
L 315.682037 68.636457 
L 315.793652 68.60748 
L 316.360726 68.497783 
L 316.472756 68.472946 
L 317.102884 68.362214 
L 317.214748 68.3529 
L 317.864409 68.243203 
L 317.975734 68.232854 
L 318.460159 68.123157 
L 318.558898 68.09418 
L 318.571215 68.09418 
L 319.04096 67.984483 
L 319.152782 67.959646 
L 319.861827 67.849948 
L 319.974375 67.829251 
L 320.602804 67.719554 
L 320.714315 67.692647 
L 321.428461 67.582949 
L 321.528278 67.556043 
L 321.539558 67.556043 
L 322.103542 67.446345 
L 322.214929 67.415299 
L 322.840206 67.305602 
L 322.951697 67.282834 
L 323.479375 67.173137 
L 323.479375 67.172102 
L 323.59466 67.154509 
L 324.247929 67.044812 
L 324.247929 67.043777 
L 324.359751 67.026184 
L 325.162102 66.916487 
L 325.273303 66.901999 
L 325.840232 66.792301 
L 325.912015 66.773673 
L 325.951245 66.773673 
L 326.585811 66.663976 
L 326.697862 66.639139 
L 327.346486 66.529442 
L 327.458578 66.506674 
L 328.060258 66.396977 
L 328.158458 66.37421 
L 328.171293 66.37421 
L 328.821306 66.264513 
L 328.933626 66.235536 
L 329.468064 66.125839 
L 329.579534 66.105141 
L 330.274645 65.995444 
L 330.274645 65.994409 
L 330.387587 65.974746 
L 331.085746 65.865049 
L 331.188093 65.850561 
L 331.196843 65.850561 
L 331.729601 65.740863 
L 331.84103 65.720166 
L 332.532574 65.610468 
L 332.64392 65.59391 
L 333.289931 65.484213 
L 333.401194 65.467655 
L 334.238587 65.357958 
L 334.33857 65.333121 
L 334.349559 65.333121 
L 335.090722 65.223423 
L 335.202669 65.194447 
L 335.705735 65.08475 
L 335.817246 65.059912 
L 336.521066 64.950215 
L 336.603673 64.935727 
L 336.632163 64.935727 
L 337.185946 64.82603 
L 337.29837 64.794983 
L 338.080318 64.685286 
L 338.18959 64.660449 
L 338.191415 64.660449 
L 338.90809 64.549717 
L 339.020099 64.527984 
L 339.62574 64.418287 
L 339.738931 64.39138 
L 340.287945 64.281683 
L 340.38573 64.252706 
L 340.398918 64.252706 
L 341.10676 64.143009 
L 341.212383 64.124381 
L 341.217774 64.124381 
L 342.045504 64.014684 
L 342.15685 63.998126 
L 342.884639 63.887394 
L 342.989598 63.867731 
L 342.995694 63.867731 
L 343.808206 63.758034 
L 343.85067 63.745615 
L 343.919302 63.745615 
L 344.552023 63.635918 
L 344.665359 63.623499 
L 345.381391 63.513802 
L 345.490788 63.491035 
L 345.492488 63.491035 
L 346.09591 63.381337 
L 346.208085 63.35443 
L 346.924843 63.243698 
L 347.038014 63.221966 
L 347.614709 63.111234 
L 347.72848 63.089501 
L 348.332566 62.978769 
L 348.448846 62.954967 
L 349.111446 62.84527 
L 349.216425 62.812153 
L 349.222521 62.812153 
L 349.887464 62.702456 
L 349.999265 62.685898 
L 350.597297 62.576201 
L 350.708953 62.559643 
L 351.362927 62.449945 
L 351.474044 62.433387 
L 352.334784 62.32369 
L 352.446088 62.300923 
L 353.215305 62.191226 
L 353.326527 62.170528 
L 354.196473 62.060831 
L 354.300147 62.046342 
L 354.307528 62.046342 
L 354.919908 61.936645 
L 355.031855 61.922157 
L 355.780026 61.81246 
L 355.889381 61.785553 
L 355.89104 61.785553 
L 356.607342 61.675855 
L 356.719517 61.651018 
L 357.430988 61.541321 
L 357.543059 61.522693 
L 358.271325 61.412996 
L 358.38379 61.396438 
L 359.040978 61.286741 
L 359.094079 61.274322 
L 359.152033 61.274322 
L 359.950652 61.164625 
L 360.06291 61.148067 
L 360.641741 61.038369 
L 360.754268 61.017672 
L 361.530307 60.907975 
L 361.642648 60.889347 
L 362.206529 60.779649 
L 362.320259 60.761022 
L 363.148031 60.651324 
L 363.260164 60.632697 
L 363.792218 60.522999 
L 363.898877 60.502302 
L 363.90319 60.502302 
L 364.544515 60.392604 
L 364.647194 60.369837 
L 364.655363 60.369837 
L 365.422175 60.26014 
L 365.534433 60.247721 
L 366.440831 60.138024 
L 366.556324 60.119396 
L 367.278639 60.009699 
L 367.390814 59.984862 
L 368.283112 59.875164 
L 368.39537 59.848258 
L 369.227082 59.73856 
L 369.334695 59.719933 
L 369.338178 59.719933 
L 369.964906 59.610235 
L 370.076915 59.589538 
L 370.819551 59.478806 
L 370.930233 59.461213 
L 370.930606 59.461213 
L 371.711683 59.351515 
L 371.823444 59.337027 
L 372.476173 59.22733 
L 372.588058 59.208702 
L 373.427794 59.099005 
L 373.539865 59.080377 
L 374.237837 58.97068 
L 374.349598 58.956191 
L 375.068015 58.845459 
L 375.149191 58.836145 
L 375.179028 58.836145 
L 375.90068 58.726448 
L 376.011901 58.716099 
L 376.981292 58.606402 
L 377.093197 58.587774 
L 377.813252 58.478077 
L 377.882879 58.465658 
L 377.924349 58.465658 
L 378.694437 58.355961 
L 378.806321 58.345612 
L 379.682986 58.235915 
L 379.794539 58.211078 
L 380.60311 58.10138 
L 380.714124 58.080683 
L 380.714166 58.080683 
L 381.536339 57.970986 
L 381.649385 57.950288 
L 382.316546 57.840591 
L 382.429053 57.819893 
L 383.133992 57.710196 
L 383.240486 57.697777 
L 383.244964 57.697777 
L 384.19279 57.58808 
L 384.304343 57.563243 
L 385.071238 57.453546 
L 385.180925 57.443197 
L 385.182252 57.443197 
L 385.879727 57.3335 
L 385.991114 57.312802 
L 386.855711 57.203105 
L 386.959675 57.184477 
L 386.966766 57.184477 
L 387.736232 57.07478 
L 387.847951 57.058222 
L 388.432546 56.948524 
L 388.520627 56.931966 
L 388.543601 56.931966 
L 389.191852 56.822269 
L 389.29818 56.791223 
L 389.302866 56.791223 
L 390.030821 56.681525 
L 390.030821 56.68049 
L 390.142498 56.667037 
L 390.841632 56.55734 
L 390.952977 56.544921 
L 392.050259 56.435224 
L 392.15667 56.404178 
L 392.161273 56.404178 
L 392.885289 56.29448 
L 392.996593 56.284131 
L 393.76216 56.174434 
L 393.874252 56.151667 
L 394.83396 56.04197 
L 394.945201 56.023342 
L 395.752778 55.913645 
L 395.864289 55.890877 
L 396.658015 55.78118 
L 396.769319 55.768761 
L 397.584982 55.659064 
L 397.697074 55.644576 
L 398.364566 55.534878 
L 398.459324 55.52039 
L 398.475622 55.52039 
L 399.290248 55.410693 
L 399.396327 55.400344 
L 399.401345 55.400344 
L 400.661311 55.290647 
L 400.773362 55.267879 
L 401.824903 55.158182 
L 401.937161 55.137485 
L 403.027062 55.027787 
L 403.12663 55.017439 
L 403.138075 55.017439 
L 404.110908 54.907741 
L 404.216821 54.880834 
L 404.222004 54.880834 
L 405.301413 54.771137 
L 405.412634 54.760788 
L 406.472677 54.651091 
L 406.555408 54.638673 
L 406.583732 54.638673 
L 407.644106 54.528975 
L 407.755307 54.522766 
L 409.202902 54.413069 
L 409.314248 54.40065 
L 411.087523 54.290953 
L 411.198247 54.282674 
L 413.682807 54.172977 
L 413.772962 54.166767 
L 413.793323 54.166767 
L 414.72 54.144 
L 414.72 54.144 
" clip-path="url(#p94eec8ff0b)" style="fill: none; stroke: #ff8c00; stroke-width: 1.5; stroke-linecap: square"/>
   </g>
   <g id="line2d_14">
    <path d="M 74.605714 307.584 
L 414.72 54.144 
" clip-path="url(#p94eec8ff0b)" style="fill: none; stroke-dasharray: 5.55,2.4; stroke-dashoffset: 0; stroke: #0000ff; stroke-width: 1.5"/>
   </g>
   <g id="patch_3">
    <path d="M 57.6 307.584 
L 57.6 41.472 
" style="fill: none; stroke: #000000; stroke-width: 0.8; stroke-linejoin: miter; stroke-linecap: square"/>
   </g>
   <g id="patch_4">
    <path d="M 414.72 307.584 
L 414.72 41.472 
" style="fill: none; stroke: #000000; stroke-width: 0.8; stroke-linejoin: miter; stroke-linecap: square"/>
   </g>
   <g id="patch_5">
    <path d="M 57.6 307.584 
L 414.72 307.584 
" style="fill: none; stroke: #000000; stroke-width: 0.8; stroke-linejoin: miter; stroke-linecap: square"/>
   </g>
   <g id="patch_6">
    <path d="M 57.6 41.472 
L 414.72 41.472 
" style="fill: none; stroke: #000000; stroke-width: 0.8; stroke-linejoin: miter; stroke-linecap: square"/>
   </g>
   <g id="text_15">
    <!-- ROC CURVE -->
    <g transform="translate(200.855625 35.472)scale(0.12 -0.12)">
     <defs>
      <path id="DejaVuSans-4f" d="M 2522 4238 
Q 1834 4238 1429 3725 
Q 1025 3213 1025 2328 
Q 1025 1447 1429 934 
Q 1834 422 2522 422 
Q 3209 422 3611 934 
Q 4013 1447 4013 2328 
Q 4013 3213 3611 3725 
Q 3209 4238 2522 4238 
z
M 2522 4750 
Q 3503 4750 4090 4092 
Q 4678 3434 4678 2328 
Q 4678 1225 4090 567 
Q 3503 -91 2522 -91 
Q 1538 -91 948 565 
Q 359 1222 359 2328 
Q 359 3434 948 4092 
Q 1538 4750 2522 4750 
z
" transform="scale(0.015625)"/>
      <path id="DejaVuSans-43" d="M 4122 4306 
L 4122 3641 
Q 3803 3938 3442 4084 
Q 3081 4231 2675 4231 
Q 1875 4231 1450 3742 
Q 1025 3253 1025 2328 
Q 1025 1406 1450 917 
Q 1875 428 2675 428 
Q 3081 428 3442 575 
Q 3803 722 4122 1019 
L 4122 359 
Q 3791 134 3420 21 
Q 3050 -91 2638 -91 
Q 1578 -91 968 557 
Q 359 1206 359 2328 
Q 359 3453 968 4101 
Q 1578 4750 2638 4750 
Q 3056 4750 3426 4639 
Q 3797 4528 4122 4306 
z
" transform="scale(0.015625)"/>
      <path id="DejaVuSans-55" d="M 556 4666 
L 1191 4666 
L 1191 1831 
Q 1191 1081 1462 751 
Q 1734 422 2344 422 
Q 2950 422 3222 751 
Q 3494 1081 3494 1831 
L 3494 4666 
L 4128 4666 
L 4128 1753 
Q 4128 841 3676 375 
Q 3225 -91 2344 -91 
Q 1459 -91 1007 375 
Q 556 841 556 1753 
L 556 4666 
z
" transform="scale(0.015625)"/>
      <path id="DejaVuSans-56" d="M 1831 0 
L 50 4666 
L 709 4666 
L 2188 738 
L 3669 4666 
L 4325 4666 
L 2547 0 
L 1831 0 
z
" transform="scale(0.015625)"/>
      <path id="DejaVuSans-45" d="M 628 4666 
L 3578 4666 
L 3578 4134 
L 1259 4134 
L 1259 2753 
L 3481 2753 
L 3481 2222 
L 1259 2222 
L 1259 531 
L 3634 531 
L 3634 0 
L 628 0 
L 628 4666 
z
" transform="scale(0.015625)"/>
     </defs>
     <use xlink:href="#DejaVuSans-52"/>
     <use xlink:href="#DejaVuSans-4f" x="69.482422"/>
     <use xlink:href="#DejaVuSans-43" x="148.193359"/>
     <use xlink:href="#DejaVuSans-20" x="218.017578"/>
     <use xlink:href="#DejaVuSans-43" x="249.804688"/>
     <use xlink:href="#DejaVuSans-55" x="319.628906"/>
     <use xlink:href="#DejaVuSans-52" x="392.822266"/>
     <use xlink:href="#DejaVuSans-56" x="456.804688"/>
     <use xlink:href="#DejaVuSans-45" x="525.212891"/>
    </g>
   </g>
   <g id="legend_1">
    <g id="patch_7">
     <path d="M 234.97 302.584 
L 407.72 302.584 
Q 409.72 302.584 409.72 300.584 
L 409.72 286.905875 
Q 409.72 284.905875 407.72 284.905875 
L 234.97 284.905875 
Q 232.97 284.905875 232.97 286.905875 
L 232.97 300.584 
Q 232.97 302.584 234.97 302.584 
z
" style="fill: #ffffff; opacity: 0.8; stroke: #cccccc; stroke-linejoin: miter"/>
    </g>
    <g id="line2d_15">
     <path d="M 236.97 293.004312 
L 246.97 293.004312 
L 256.97 293.004312 
" style="fill: none; stroke: #ff8c00; stroke-width: 1.5; stroke-linecap: square"/>
    </g>
    <g id="text_16">
     <!-- ROC curve (ROC AUC=0.75) -->
     <g transform="translate(264.97 296.504312)scale(0.1 -0.1)">
      <defs>
       <path id="DejaVuSans-63" d="M 3122 3366 
L 3122 2828 
Q 2878 2963 2633 3030 
Q 2388 3097 2138 3097 
Q 1578 3097 1268 2742 
Q 959 2388 959 1747 
Q 959 1106 1268 751 
Q 1578 397 2138 397 
Q 2388 397 2633 464 
Q 2878 531 3122 666 
L 3122 134 
Q 2881 22 2623 -34 
Q 2366 -91 2075 -91 
Q 1284 -91 818 406 
Q 353 903 353 1747 
Q 353 2603 823 3093 
Q 1294 3584 2113 3584 
Q 2378 3584 2631 3529 
Q 2884 3475 3122 3366 
z
" transform="scale(0.015625)"/>
       <path id="DejaVuSans-28" d="M 1984 4856 
Q 1566 4138 1362 3434 
Q 1159 2731 1159 2009 
Q 1159 1288 1364 580 
Q 1569 -128 1984 -844 
L 1484 -844 
Q 1016 -109 783 600 
Q 550 1309 550 2009 
Q 550 2706 781 3412 
Q 1013 4119 1484 4856 
L 1984 4856 
z
" transform="scale(0.015625)"/>
       <path id="DejaVuSans-41" d="M 2188 4044 
L 1331 1722 
L 3047 1722 
L 2188 4044 
z
M 1831 4666 
L 2547 4666 
L 4325 0 
L 3669 0 
L 3244 1197 
L 1141 1197 
L 716 0 
L 50 0 
L 1831 4666 
z
" transform="scale(0.015625)"/>
       <path id="DejaVuSans-3d" d="M 678 2906 
L 4684 2906 
L 4684 2381 
L 678 2381 
L 678 2906 
z
M 678 1631 
L 4684 1631 
L 4684 1100 
L 678 1100 
L 678 1631 
z
" transform="scale(0.015625)"/>
       <path id="DejaVuSans-37" d="M 525 4666 
L 3525 4666 
L 3525 4397 
L 1831 0 
L 1172 0 
L 2766 4134 
L 525 4134 
L 525 4666 
z
" transform="scale(0.015625)"/>
       <path id="DejaVuSans-35" d="M 691 4666 
L 3169 4666 
L 3169 4134 
L 1269 4134 
L 1269 2991 
Q 1406 3038 1543 3061 
Q 1681 3084 1819 3084 
Q 2600 3084 3056 2656 
Q 3513 2228 3513 1497 
Q 3513 744 3044 326 
Q 2575 -91 1722 -91 
Q 1428 -91 1123 -41 
Q 819 9 494 109 
L 494 744 
Q 775 591 1075 516 
Q 1375 441 1709 441 
Q 2250 441 2565 725 
Q 2881 1009 2881 1497 
Q 2881 1984 2565 2268 
Q 2250 2553 1709 2553 
Q 1456 2553 1204 2497 
Q 953 2441 691 2322 
L 691 4666 
z
" transform="scale(0.015625)"/>
       <path id="DejaVuSans-29" d="M 513 4856 
L 1013 4856 
Q 1481 4119 1714 3412 
Q 1947 2706 1947 2009 
Q 1947 1309 1714 600 
Q 1481 -109 1013 -844 
L 513 -844 
Q 928 -128 1133 580 
Q 1338 1288 1338 2009 
Q 1338 2731 1133 3434 
Q 928 4138 513 4856 
z
" transform="scale(0.015625)"/>
      </defs>
      <use xlink:href="#DejaVuSans-52"/>
      <use xlink:href="#DejaVuSans-4f" x="69.482422"/>
      <use xlink:href="#DejaVuSans-43" x="148.193359"/>
      <use xlink:href="#DejaVuSans-20" x="218.017578"/>
      <use xlink:href="#DejaVuSans-63" x="249.804688"/>
      <use xlink:href="#DejaVuSans-75" x="304.785156"/>
      <use xlink:href="#DejaVuSans-72" x="368.164062"/>
      <use xlink:href="#DejaVuSans-76" x="409.277344"/>
      <use xlink:href="#DejaVuSans-65" x="468.457031"/>
      <use xlink:href="#DejaVuSans-20" x="529.980469"/>
      <use xlink:href="#DejaVuSans-28" x="561.767578"/>
      <use xlink:href="#DejaVuSans-52" x="600.78125"/>
      <use xlink:href="#DejaVuSans-4f" x="670.263672"/>
      <use xlink:href="#DejaVuSans-43" x="748.974609"/>
      <use xlink:href="#DejaVuSans-20" x="818.798828"/>
      <use xlink:href="#DejaVuSans-41" x="850.585938"/>
      <use xlink:href="#DejaVuSans-55" x="918.994141"/>
      <use xlink:href="#DejaVuSans-43" x="992.1875"/>
      <use xlink:href="#DejaVuSans-3d" x="1062.011719"/>
      <use xlink:href="#DejaVuSans-30" x="1145.800781"/>
      <use xlink:href="#DejaVuSans-2e" x="1209.423828"/>
      <use xlink:href="#DejaVuSans-37" x="1241.210938"/>
      <use xlink:href="#DejaVuSans-35" x="1304.833984"/>
      <use xlink:href="#DejaVuSans-29" x="1368.457031"/>
     </g>
    </g>
   </g>
  </g>
 </g>
 <defs>
  <clipPath id="p94eec8ff0b">
   <rect x="57.6" y="41.472" width="357.12" height="266.112"/>
  </clipPath>
 </defs>
</svg>
