<?xml version="1.0" encoding="utf-8" standalone="no"?>
<!DOCTYPE svg PUBLIC "-//W3C//DTD SVG 1.1//EN"
  "http://www.w3.org/Graphics/SVG/1.1/DTD/svg11.dtd">
<svg xmlns:xlink="http://www.w3.org/1999/xlink" width="460.8pt" height="345.6pt" viewBox="0 0 460.8 345.6" xmlns="http://www.w3.org/2000/svg" version="1.1">
 <metadata>
  <rdf:RDF xmlns:dc="http://purl.org/dc/elements/1.1/" xmlns:cc="http://creativecommons.org/ns#" xmlns:rdf="http://www.w3.org/1999/02/22-rdf-syntax-ns#">
   <cc:Work>
    <dc:type rdf:resource="http://purl.org/dc/dcmitype/StillImage"/>
    <dc:date>2022-05-24T13:13:37.145444</dc:date>
    <dc:format>image/svg+xml</dc:format>
    <dc:creator>
     <cc:Agent>
      <dc:title>Matplotlib v3.5.1, https://matplotlib.org/</dc:title>
     </cc:Agent>
    </dc:creator>
   </cc:Work>
  </rdf:RDF>
 </metadata>
 <defs>
  <style type="text/css">*{stroke-linejoin: round; stroke-linecap: butt}</style>
 </defs>
 <g id="figure_1">
  <g id="patch_1">
   <path d="M 0 345.6 
L 460.8 345.6 
L 460.8 0 
L 0 0 
z
" style="fill: #ffffff"/>
  </g>
  <g id="axes_1">
   <g id="patch_2">
    <path d="M 57.6 307.584 
L 414.72 307.584 
L 414.72 41.472 
L 57.6 41.472 
z
" style="fill: #ffffff"/>
   </g>
   <g id="matplotlib.axis_1">
    <g id="xtick_1">
     <g id="line2d_1">
      <defs>
       <path id="m39586c6284" d="M 0 0 
L 0 3.5 
" style="stroke: #000000; stroke-width: 0.8"/>
      </defs>
      <g>
       <use xlink:href="#m39586c6284" x="74.605714" y="307.584" style="stroke: #000000; stroke-width: 0.8"/>
      </g>
     </g>
     <g id="text_1">
      <!-- 0.0 -->
      <g transform="translate(66.654152 322.182437)scale(0.1 -0.1)">
       <defs>
        <path id="DejaVuSans-30" d="M 2034 4250 
Q 1547 4250 1301 3770 
Q 1056 3291 1056 2328 
Q 1056 1369 1301 889 
Q 1547 409 2034 409 
Q 2525 409 2770 889 
Q 3016 1369 3016 2328 
Q 3016 3291 2770 3770 
Q 2525 4250 2034 4250 
z
M 2034 4750 
Q 2819 4750 3233 4129 
Q 3647 3509 3647 2328 
Q 3647 1150 3233 529 
Q 2819 -91 2034 -91 
Q 1250 -91 836 529 
Q 422 1150 422 2328 
Q 422 3509 836 4129 
Q 1250 4750 2034 4750 
z
" transform="scale(0.015625)"/>
        <path id="DejaVuSans-2e" d="M 684 794 
L 1344 794 
L 1344 0 
L 684 0 
L 684 794 
z
" transform="scale(0.015625)"/>
       </defs>
       <use xlink:href="#DejaVuSans-30"/>
       <use xlink:href="#DejaVuSans-2e" x="63.623047"/>
       <use xlink:href="#DejaVuSans-30" x="95.410156"/>
      </g>
     </g>
    </g>
    <g id="xtick_2">
     <g id="line2d_2">
      <g>
       <use xlink:href="#m39586c6284" x="142.628571" y="307.584" style="stroke: #000000; stroke-width: 0.8"/>
      </g>
     </g>
     <g id="text_2">
      <!-- 0.2 -->
      <g transform="translate(134.677009 322.182437)scale(0.1 -0.1)">
       <defs>
        <path id="DejaVuSans-32" d="M 1228 531 
L 3431 531 
L 3431 0 
L 469 0 
L 469 531 
Q 828 903 1448 1529 
Q 2069 2156 2228 2338 
Q 2531 2678 2651 2914 
Q 2772 3150 2772 3378 
Q 2772 3750 2511 3984 
Q 2250 4219 1831 4219 
Q 1534 4219 1204 4116 
Q 875 4013 500 3803 
L 500 4441 
Q 881 4594 1212 4672 
Q 1544 4750 1819 4750 
Q 2544 4750 2975 4387 
Q 3406 4025 3406 3419 
Q 3406 3131 3298 2873 
Q 3191 2616 2906 2266 
Q 2828 2175 2409 1742 
Q 1991 1309 1228 531 
z
" transform="scale(0.015625)"/>
       </defs>
       <use xlink:href="#DejaVuSans-30"/>
       <use xlink:href="#DejaVuSans-2e" x="63.623047"/>
       <use xlink:href="#DejaVuSans-32" x="95.410156"/>
      </g>
     </g>
    </g>
    <g id="xtick_3">
     <g id="line2d_3">
      <g>
       <use xlink:href="#m39586c6284" x="210.651429" y="307.584" style="stroke: #000000; stroke-width: 0.8"/>
      </g>
     </g>
     <g id="text_3">
      <!-- 0.4 -->
      <g transform="translate(202.699866 322.182437)scale(0.1 -0.1)">
       <defs>
        <path id="DejaVuSans-34" d="M 2419 4116 
L 825 1625 
L 2419 1625 
L 2419 4116 
z
M 2253 4666 
L 3047 4666 
L 3047 1625 
L 3713 1625 
L 3713 1100 
L 3047 1100 
L 3047 0 
L 2419 0 
L 2419 1100 
L 313 1100 
L 313 1709 
L 2253 4666 
z
" transform="scale(0.015625)"/>
       </defs>
       <use xlink:href="#DejaVuSans-30"/>
       <use xlink:href="#DejaVuSans-2e" x="63.623047"/>
       <use xlink:href="#DejaVuSans-34" x="95.410156"/>
      </g>
     </g>
    </g>
    <g id="xtick_4">
     <g id="line2d_4">
      <g>
       <use xlink:href="#m39586c6284" x="278.674286" y="307.584" style="stroke: #000000; stroke-width: 0.8"/>
      </g>
     </g>
     <g id="text_4">
      <!-- 0.6 -->
      <g transform="translate(270.722723 322.182437)scale(0.1 -0.1)">
       <defs>
        <path id="DejaVuSans-36" d="M 2113 2584 
Q 1688 2584 1439 2293 
Q 1191 2003 1191 1497 
Q 1191 994 1439 701 
Q 1688 409 2113 409 
Q 2538 409 2786 701 
Q 3034 994 3034 1497 
Q 3034 2003 2786 2293 
Q 2538 2584 2113 2584 
z
M 3366 4563 
L 3366 3988 
Q 3128 4100 2886 4159 
Q 2644 4219 2406 4219 
Q 1781 4219 1451 3797 
Q 1122 3375 1075 2522 
Q 1259 2794 1537 2939 
Q 1816 3084 2150 3084 
Q 2853 3084 3261 2657 
Q 3669 2231 3669 1497 
Q 3669 778 3244 343 
Q 2819 -91 2113 -91 
Q 1303 -91 875 529 
Q 447 1150 447 2328 
Q 447 3434 972 4092 
Q 1497 4750 2381 4750 
Q 2619 4750 2861 4703 
Q 3103 4656 3366 4563 
z
" transform="scale(0.015625)"/>
       </defs>
       <use xlink:href="#DejaVuSans-30"/>
       <use xlink:href="#DejaVuSans-2e" x="63.623047"/>
       <use xlink:href="#DejaVuSans-36" x="95.410156"/>
      </g>
     </g>
    </g>
    <g id="xtick_5">
     <g id="line2d_5">
      <g>
       <use xlink:href="#m39586c6284" x="346.697143" y="307.584" style="stroke: #000000; stroke-width: 0.8"/>
      </g>
     </g>
     <g id="text_5">
      <!-- 0.8 -->
      <g transform="translate(338.74558 322.182437)scale(0.1 -0.1)">
       <defs>
        <path id="DejaVuSans-38" d="M 2034 2216 
Q 1584 2216 1326 1975 
Q 1069 1734 1069 1313 
Q 1069 891 1326 650 
Q 1584 409 2034 409 
Q 2484 409 2743 651 
Q 3003 894 3003 1313 
Q 3003 1734 2745 1975 
Q 2488 2216 2034 2216 
z
M 1403 2484 
Q 997 2584 770 2862 
Q 544 3141 544 3541 
Q 544 4100 942 4425 
Q 1341 4750 2034 4750 
Q 2731 4750 3128 4425 
Q 3525 4100 3525 3541 
Q 3525 3141 3298 2862 
Q 3072 2584 2669 2484 
Q 3125 2378 3379 2068 
Q 3634 1759 3634 1313 
Q 3634 634 3220 271 
Q 2806 -91 2034 -91 
Q 1263 -91 848 271 
Q 434 634 434 1313 
Q 434 1759 690 2068 
Q 947 2378 1403 2484 
z
M 1172 3481 
Q 1172 3119 1398 2916 
Q 1625 2713 2034 2713 
Q 2441 2713 2670 2916 
Q 2900 3119 2900 3481 
Q 2900 3844 2670 4047 
Q 2441 4250 2034 4250 
Q 1625 4250 1398 4047 
Q 1172 3844 1172 3481 
z
" transform="scale(0.015625)"/>
       </defs>
       <use xlink:href="#DejaVuSans-30"/>
       <use xlink:href="#DejaVuSans-2e" x="63.623047"/>
       <use xlink:href="#DejaVuSans-38" x="95.410156"/>
      </g>
     </g>
    </g>
    <g id="xtick_6">
     <g id="line2d_6">
      <g>
       <use xlink:href="#m39586c6284" x="414.72" y="307.584" style="stroke: #000000; stroke-width: 0.8"/>
      </g>
     </g>
     <g id="text_6">
      <!-- 1.0 -->
      <g transform="translate(406.768438 322.182437)scale(0.1 -0.1)">
       <defs>
        <path id="DejaVuSans-31" d="M 794 531 
L 1825 531 
L 1825 4091 
L 703 3866 
L 703 4441 
L 1819 4666 
L 2450 4666 
L 2450 531 
L 3481 531 
L 3481 0 
L 794 0 
L 794 531 
z
" transform="scale(0.015625)"/>
       </defs>
       <use xlink:href="#DejaVuSans-31"/>
       <use xlink:href="#DejaVuSans-2e" x="63.623047"/>
       <use xlink:href="#DejaVuSans-30" x="95.410156"/>
      </g>
     </g>
    </g>
    <g id="text_7">
     <!-- False Positive Rate -->
     <g transform="translate(189.693594 335.860562)scale(0.1 -0.1)">
      <defs>
       <path id="DejaVuSans-46" d="M 628 4666 
L 3309 4666 
L 3309 4134 
L 1259 4134 
L 1259 2759 
L 3109 2759 
L 3109 2228 
L 1259 2228 
L 1259 0 
L 628 0 
L 628 4666 
z
" transform="scale(0.015625)"/>
       <path id="DejaVuSans-61" d="M 2194 1759 
Q 1497 1759 1228 1600 
Q 959 1441 959 1056 
Q 959 750 1161 570 
Q 1363 391 1709 391 
Q 2188 391 2477 730 
Q 2766 1069 2766 1631 
L 2766 1759 
L 2194 1759 
z
M 3341 1997 
L 3341 0 
L 2766 0 
L 2766 531 
Q 2569 213 2275 61 
Q 1981 -91 1556 -91 
Q 1019 -91 701 211 
Q 384 513 384 1019 
Q 384 1609 779 1909 
Q 1175 2209 1959 2209 
L 2766 2209 
L 2766 2266 
Q 2766 2663 2505 2880 
Q 2244 3097 1772 3097 
Q 1472 3097 1187 3025 
Q 903 2953 641 2809 
L 641 3341 
Q 956 3463 1253 3523 
Q 1550 3584 1831 3584 
Q 2591 3584 2966 3190 
Q 3341 2797 3341 1997 
z
" transform="scale(0.015625)"/>
       <path id="DejaVuSans-6c" d="M 603 4863 
L 1178 4863 
L 1178 0 
L 603 0 
L 603 4863 
z
" transform="scale(0.015625)"/>
       <path id="DejaVuSans-73" d="M 2834 3397 
L 2834 2853 
Q 2591 2978 2328 3040 
Q 2066 3103 1784 3103 
Q 1356 3103 1142 2972 
Q 928 2841 928 2578 
Q 928 2378 1081 2264 
Q 1234 2150 1697 2047 
L 1894 2003 
Q 2506 1872 2764 1633 
Q 3022 1394 3022 966 
Q 3022 478 2636 193 
Q 2250 -91 1575 -91 
Q 1294 -91 989 -36 
Q 684 19 347 128 
L 347 722 
Q 666 556 975 473 
Q 1284 391 1588 391 
Q 1994 391 2212 530 
Q 2431 669 2431 922 
Q 2431 1156 2273 1281 
Q 2116 1406 1581 1522 
L 1381 1569 
Q 847 1681 609 1914 
Q 372 2147 372 2553 
Q 372 3047 722 3315 
Q 1072 3584 1716 3584 
Q 2034 3584 2315 3537 
Q 2597 3491 2834 3397 
z
" transform="scale(0.015625)"/>
       <path id="DejaVuSans-65" d="M 3597 1894 
L 3597 1613 
L 953 1613 
Q 991 1019 1311 708 
Q 1631 397 2203 397 
Q 2534 397 2845 478 
Q 3156 559 3463 722 
L 3463 178 
Q 3153 47 2828 -22 
Q 2503 -91 2169 -91 
Q 1331 -91 842 396 
Q 353 884 353 1716 
Q 353 2575 817 3079 
Q 1281 3584 2069 3584 
Q 2775 3584 3186 3129 
Q 3597 2675 3597 1894 
z
M 3022 2063 
Q 3016 2534 2758 2815 
Q 2500 3097 2075 3097 
Q 1594 3097 1305 2825 
Q 1016 2553 972 2059 
L 3022 2063 
z
" transform="scale(0.015625)"/>
       <path id="DejaVuSans-20" transform="scale(0.015625)"/>
       <path id="DejaVuSans-50" d="M 1259 4147 
L 1259 2394 
L 2053 2394 
Q 2494 2394 2734 2622 
Q 2975 2850 2975 3272 
Q 2975 3691 2734 3919 
Q 2494 4147 2053 4147 
L 1259 4147 
z
M 628 4666 
L 2053 4666 
Q 2838 4666 3239 4311 
Q 3641 3956 3641 3272 
Q 3641 2581 3239 2228 
Q 2838 1875 2053 1875 
L 1259 1875 
L 1259 0 
L 628 0 
L 628 4666 
z
" transform="scale(0.015625)"/>
       <path id="DejaVuSans-6f" d="M 1959 3097 
Q 1497 3097 1228 2736 
Q 959 2375 959 1747 
Q 959 1119 1226 758 
Q 1494 397 1959 397 
Q 2419 397 2687 759 
Q 2956 1122 2956 1747 
Q 2956 2369 2687 2733 
Q 2419 3097 1959 3097 
z
M 1959 3584 
Q 2709 3584 3137 3096 
Q 3566 2609 3566 1747 
Q 3566 888 3137 398 
Q 2709 -91 1959 -91 
Q 1206 -91 779 398 
Q 353 888 353 1747 
Q 353 2609 779 3096 
Q 1206 3584 1959 3584 
z
" transform="scale(0.015625)"/>
       <path id="DejaVuSans-69" d="M 603 3500 
L 1178 3500 
L 1178 0 
L 603 0 
L 603 3500 
z
M 603 4863 
L 1178 4863 
L 1178 4134 
L 603 4134 
L 603 4863 
z
" transform="scale(0.015625)"/>
       <path id="DejaVuSans-74" d="M 1172 4494 
L 1172 3500 
L 2356 3500 
L 2356 3053 
L 1172 3053 
L 1172 1153 
Q 1172 725 1289 603 
Q 1406 481 1766 481 
L 2356 481 
L 2356 0 
L 1766 0 
Q 1100 0 847 248 
Q 594 497 594 1153 
L 594 3053 
L 172 3053 
L 172 3500 
L 594 3500 
L 594 4494 
L 1172 4494 
z
" transform="scale(0.015625)"/>
       <path id="DejaVuSans-76" d="M 191 3500 
L 800 3500 
L 1894 563 
L 2988 3500 
L 3597 3500 
L 2284 0 
L 1503 0 
L 191 3500 
z
" transform="scale(0.015625)"/>
       <path id="DejaVuSans-52" d="M 2841 2188 
Q 3044 2119 3236 1894 
Q 3428 1669 3622 1275 
L 4263 0 
L 3584 0 
L 2988 1197 
Q 2756 1666 2539 1819 
Q 2322 1972 1947 1972 
L 1259 1972 
L 1259 0 
L 628 0 
L 628 4666 
L 2053 4666 
Q 2853 4666 3247 4331 
Q 3641 3997 3641 3322 
Q 3641 2881 3436 2590 
Q 3231 2300 2841 2188 
z
M 1259 4147 
L 1259 2491 
L 2053 2491 
Q 2509 2491 2742 2702 
Q 2975 2913 2975 3322 
Q 2975 3731 2742 3939 
Q 2509 4147 2053 4147 
L 1259 4147 
z
" transform="scale(0.015625)"/>
      </defs>
      <use xlink:href="#DejaVuSans-46"/>
      <use xlink:href="#DejaVuSans-61" x="48.394531"/>
      <use xlink:href="#DejaVuSans-6c" x="109.673828"/>
      <use xlink:href="#DejaVuSans-73" x="137.457031"/>
      <use xlink:href="#DejaVuSans-65" x="189.556641"/>
      <use xlink:href="#DejaVuSans-20" x="251.080078"/>
      <use xlink:href="#DejaVuSans-50" x="282.867188"/>
      <use xlink:href="#DejaVuSans-6f" x="339.544922"/>
      <use xlink:href="#DejaVuSans-73" x="400.726562"/>
      <use xlink:href="#DejaVuSans-69" x="452.826172"/>
      <use xlink:href="#DejaVuSans-74" x="480.609375"/>
      <use xlink:href="#DejaVuSans-69" x="519.818359"/>
      <use xlink:href="#DejaVuSans-76" x="547.601562"/>
      <use xlink:href="#DejaVuSans-65" x="606.78125"/>
      <use xlink:href="#DejaVuSans-20" x="668.304688"/>
      <use xlink:href="#DejaVuSans-52" x="700.091797"/>
      <use xlink:href="#DejaVuSans-61" x="767.324219"/>
      <use xlink:href="#DejaVuSans-74" x="828.603516"/>
      <use xlink:href="#DejaVuSans-65" x="867.8125"/>
     </g>
    </g>
   </g>
   <g id="matplotlib.axis_2">
    <g id="ytick_1">
     <g id="line2d_7">
      <defs>
       <path id="m9e841c6dcb" d="M 0 0 
L -3.5 0 
" style="stroke: #000000; stroke-width: 0.8"/>
      </defs>
      <g>
       <use xlink:href="#m9e841c6dcb" x="57.6" y="307.584" style="stroke: #000000; stroke-width: 0.8"/>
      </g>
     </g>
     <g id="text_8">
      <!-- 0.0 -->
      <g transform="translate(34.696875 311.383219)scale(0.1 -0.1)">
       <use xlink:href="#DejaVuSans-30"/>
       <use xlink:href="#DejaVuSans-2e" x="63.623047"/>
       <use xlink:href="#DejaVuSans-30" x="95.410156"/>
      </g>
     </g>
    </g>
    <g id="ytick_2">
     <g id="line2d_8">
      <g>
       <use xlink:href="#m9e841c6dcb" x="57.6" y="256.896" style="stroke: #000000; stroke-width: 0.8"/>
      </g>
     </g>
     <g id="text_9">
      <!-- 0.2 -->
      <g transform="translate(34.696875 260.695219)scale(0.1 -0.1)">
       <use xlink:href="#DejaVuSans-30"/>
       <use xlink:href="#DejaVuSans-2e" x="63.623047"/>
       <use xlink:href="#DejaVuSans-32" x="95.410156"/>
      </g>
     </g>
    </g>
    <g id="ytick_3">
     <g id="line2d_9">
      <g>
       <use xlink:href="#m9e841c6dcb" x="57.6" y="206.208" style="stroke: #000000; stroke-width: 0.8"/>
      </g>
     </g>
     <g id="text_10">
      <!-- 0.4 -->
      <g transform="translate(34.696875 210.007219)scale(0.1 -0.1)">
       <use xlink:href="#DejaVuSans-30"/>
       <use xlink:href="#DejaVuSans-2e" x="63.623047"/>
       <use xlink:href="#DejaVuSans-34" x="95.410156"/>
      </g>
     </g>
    </g>
    <g id="ytick_4">
     <g id="line2d_10">
      <g>
       <use xlink:href="#m9e841c6dcb" x="57.6" y="155.52" style="stroke: #000000; stroke-width: 0.8"/>
      </g>
     </g>
     <g id="text_11">
      <!-- 0.6 -->
      <g transform="translate(34.696875 159.319219)scale(0.1 -0.1)">
       <use xlink:href="#DejaVuSans-30"/>
       <use xlink:href="#DejaVuSans-2e" x="63.623047"/>
       <use xlink:href="#DejaVuSans-36" x="95.410156"/>
      </g>
     </g>
    </g>
    <g id="ytick_5">
     <g id="line2d_11">
      <g>
       <use xlink:href="#m9e841c6dcb" x="57.6" y="104.832" style="stroke: #000000; stroke-width: 0.8"/>
      </g>
     </g>
     <g id="text_12">
      <!-- 0.8 -->
      <g transform="translate(34.696875 108.631219)scale(0.1 -0.1)">
       <use xlink:href="#DejaVuSans-30"/>
       <use xlink:href="#DejaVuSans-2e" x="63.623047"/>
       <use xlink:href="#DejaVuSans-38" x="95.410156"/>
      </g>
     </g>
    </g>
    <g id="ytick_6">
     <g id="line2d_12">
      <g>
       <use xlink:href="#m9e841c6dcb" x="57.6" y="54.144" style="stroke: #000000; stroke-width: 0.8"/>
      </g>
     </g>
     <g id="text_13">
      <!-- 1.0 -->
      <g transform="translate(34.696875 57.943219)scale(0.1 -0.1)">
       <use xlink:href="#DejaVuSans-31"/>
       <use xlink:href="#DejaVuSans-2e" x="63.623047"/>
       <use xlink:href="#DejaVuSans-30" x="95.410156"/>
      </g>
     </g>
    </g>
    <g id="text_14">
     <!-- True Positive Rate -->
     <g transform="translate(28.617187 219.057687)rotate(-90)scale(0.1 -0.1)">
      <defs>
       <path id="DejaVuSans-54" d="M -19 4666 
L 3928 4666 
L 3928 4134 
L 2272 4134 
L 2272 0 
L 1638 0 
L 1638 4134 
L -19 4134 
L -19 4666 
z
" transform="scale(0.015625)"/>
       <path id="DejaVuSans-72" d="M 2631 2963 
Q 2534 3019 2420 3045 
Q 2306 3072 2169 3072 
Q 1681 3072 1420 2755 
Q 1159 2438 1159 1844 
L 1159 0 
L 581 0 
L 581 3500 
L 1159 3500 
L 1159 2956 
Q 1341 3275 1631 3429 
Q 1922 3584 2338 3584 
Q 2397 3584 2469 3576 
Q 2541 3569 2628 3553 
L 2631 2963 
z
" transform="scale(0.015625)"/>
       <path id="DejaVuSans-75" d="M 544 1381 
L 544 3500 
L 1119 3500 
L 1119 1403 
Q 1119 906 1312 657 
Q 1506 409 1894 409 
Q 2359 409 2629 706 
Q 2900 1003 2900 1516 
L 2900 3500 
L 3475 3500 
L 3475 0 
L 2900 0 
L 2900 538 
Q 2691 219 2414 64 
Q 2138 -91 1772 -91 
Q 1169 -91 856 284 
Q 544 659 544 1381 
z
M 1991 3584 
L 1991 3584 
z
" transform="scale(0.015625)"/>
      </defs>
      <use xlink:href="#DejaVuSans-54"/>
      <use xlink:href="#DejaVuSans-72" x="46.333984"/>
      <use xlink:href="#DejaVuSans-75" x="87.447266"/>
      <use xlink:href="#DejaVuSans-65" x="150.826172"/>
      <use xlink:href="#DejaVuSans-20" x="212.349609"/>
      <use xlink:href="#DejaVuSans-50" x="244.136719"/>
      <use xlink:href="#DejaVuSans-6f" x="300.814453"/>
      <use xlink:href="#DejaVuSans-73" x="361.996094"/>
      <use xlink:href="#DejaVuSans-69" x="414.095703"/>
      <use xlink:href="#DejaVuSans-74" x="441.878906"/>
      <use xlink:href="#DejaVuSans-69" x="481.087891"/>
      <use xlink:href="#DejaVuSans-76" x="508.871094"/>
      <use xlink:href="#DejaVuSans-65" x="568.050781"/>
      <use xlink:href="#DejaVuSans-20" x="629.574219"/>
      <use xlink:href="#DejaVuSans-52" x="661.361328"/>
      <use xlink:href="#DejaVuSans-61" x="728.59375"/>
      <use xlink:href="#DejaVuSans-74" x="789.873047"/>
      <use xlink:href="#DejaVuSans-65" x="829.082031"/>
     </g>
    </g>
   </g>
   <g id="line2d_13">
    <path d="M 74.605714 307.584 
L 74.75517 303.757014 
L 74.866184 301.03735 
L 75.171814 294.565212 
L 75.178076 294.455515 
L 75.289173 292.551336 
L 75.295061 292.441638 
L 75.454968 290.005531 
L 75.462639 289.897904 
L 75.462639 289.895834 
L 75.573529 288.331096 
L 75.573736 288.331096 
L 75.700425 286.772567 
L 75.707765 286.662869 
L 75.818447 285.4562 
L 75.818738 285.4562 
L 75.829229 285.346502 
L 75.939746 284.117065 
L 75.939953 284.117065 
L 75.949989 284.007368 
L 76.060919 282.835884 
L 76.061044 282.835884 
L 76.073941 282.726187 
L 76.208799 281.534005 
L 76.220369 281.424308 
L 76.330886 280.391498 
L 76.331466 280.391498 
L 76.3454 280.2818 
L 76.456455 279.42078 
L 76.456497 279.42078 
L 76.623204 278.034041 
L 76.635313 277.924344 
L 76.764449 277.021929 
L 76.777097 276.912232 
L 76.887862 276.175397 
L 76.888152 276.175397 
L 76.90192 276.0657 
L 77.013017 275.320586 
L 77.028526 275.210889 
L 77.139457 274.480264 
L 77.139623 274.480264 
L 77.153889 274.370567 
L 77.264944 273.65029 
L 77.282195 273.540593 
L 77.411082 272.646457 
L 77.428541 272.53676 
L 77.538228 271.841321 
L 77.539472 271.841321 
L 77.558631 271.731623 
L 77.669686 270.992719 
L 77.692079 270.885092 
L 77.803093 270.21242 
L 77.803176 270.21242 
L 77.930322 269.405213 
L 77.946038 269.295516 
L 78.056824 268.666309 
L 78.057052 268.666309 
L 78.078533 268.556612 
L 78.188925 268.010195 
L 78.189381 268.010195 
L 78.21418 267.900498 
L 78.356213 267.128478 
L 78.381509 267.018781 
L 78.490906 266.457876 
L 78.492565 266.457876 
L 78.515497 266.348178 
L 78.626221 265.762436 
L 78.626428 265.762436 
L 78.645255 265.652739 
L 78.769207 265.011114 
L 78.789735 264.901416 
L 78.900334 264.412953 
L 78.900831 264.412953 
L 78.921359 264.303256 
L 79.043362 263.74856 
L 79.074671 263.638863 
L 79.198168 263.013796 
L 79.22392 262.906168 
L 79.22392 262.904098 
L 79.344969 262.405286 
L 79.368358 262.295589 
L 79.478957 261.678801 
L 79.479413 261.678801 
L 79.497038 261.569103 
L 79.607927 261.111686 
L 79.63198 261.001989 
L 79.754854 260.414177 
L 79.78185 260.30448 
L 79.903314 259.760133 
L 79.923925 259.650436 
L 80.034068 259.180601 
L 80.034938 259.180601 
L 80.057498 259.070903 
L 80.173903 258.526557 
L 80.203968 258.416859 
L 80.314857 258.007047 
L 80.337541 257.89735 
L 80.447933 257.437863 
L 80.448306 257.437863 
L 80.472317 257.328166 
L 80.582833 256.916284 
L 80.583289 256.916284 
L 80.611903 256.806586 
L 80.722875 256.361588 
L 80.723 256.361588 
L 80.855163 255.833799 
L 80.876188 255.724102 
L 81.007978 255.206662 
L 81.037463 255.096965 
L 81.15872 254.587804 
L 81.191439 254.478107 
L 81.301872 254.066225 
L 81.302411 254.066225 
L 81.322648 253.956527 
L 81.452075 253.478413 
L 81.481062 253.368716 
L 81.591993 252.923717 
L 81.592096 252.923717 
L 81.616667 252.81402 
L 81.727556 252.404208 
L 81.727681 252.404208 
L 81.754511 252.29658 
L 81.865318 251.903326 
L 81.865567 251.903326 
L 81.897083 251.793628 
L 82.01664 251.365188 
L 82.047286 251.255491 
L 82.166925 250.822911 
L 82.19529 250.713214 
L 82.306055 250.274425 
L 82.306263 250.274425 
L 82.33243 250.164728 
L 82.451157 249.777683 
L 82.483088 249.667985 
L 82.602334 249.260243 
L 82.634867 249.150545 
L 82.754382 248.730384 
L 82.787723 248.620687 
L 82.897617 248.270898 
L 82.898405 248.270898 
L 82.929466 248.1612 
L 83.039899 247.767946 
L 83.040563 247.767946 
L 83.074277 247.658249 
L 83.185291 247.277413 
L 83.185332 247.277413 
L 83.21631 247.167716 
L 83.326702 246.759973 
L 83.327324 246.759973 
L 83.359172 246.650276 
L 83.493699 246.18458 
L 83.529612 246.074883 
L 83.640335 245.691977 
L 83.640501 245.691977 
L 83.674921 245.58228 
L 83.785686 245.249048 
L 83.786018 245.249048 
L 83.819069 245.139351 
L 83.929875 244.80405 
L 83.930166 244.80405 
L 83.964461 244.694353 
L 84.082441 244.348703 
L 84.114663 244.239006 
L 84.225594 243.868519 
L 84.225718 243.868519 
L 84.264451 243.758822 
L 84.375382 243.42559 
L 84.375465 243.42559 
L 84.410838 243.315893 
L 84.520898 242.988871 
L 84.521893 242.988871 
L 84.559423 242.879174 
L 84.669732 242.543873 
L 84.67052 242.543873 
L 84.705935 242.434175 
L 84.816119 242.115432 
L 84.81699 242.115432 
L 84.856303 242.005735 
L 84.973952 241.676643 
L 85.006257 241.566946 
L 85.11698 241.18611 
L 85.117146 241.18611 
L 85.147709 241.076413 
L 85.258764 240.730763 
L 85.300192 240.621066 
L 85.418629 240.248509 
L 85.455081 240.138812 
L 85.566053 239.81179 
L 85.566178 239.81179 
L 85.601427 239.702093 
L 85.712482 239.389559 
L 85.742174 239.279862 
L 85.853271 238.937316 
L 85.977057 238.619608 
L 86.017117 238.509911 
L 86.12784 238.178749 
L 86.128213 238.178749 
L 86.168646 238.069052 
L 86.286544 237.727542 
L 86.322249 237.617845 
L 86.432972 237.323939 
L 86.468553 237.214241 
L 86.579401 236.897568 
L 86.579567 236.897568 
L 86.624064 236.787871 
L 86.734829 236.533291 
L 86.73487 236.533291 
L 86.77634 236.423593 
L 86.894237 236.067595 
L 86.943835 235.957897 
L 86.943835 235.956862 
L 87.069943 235.583271 
L 87.108842 235.473574 
L 87.219482 235.173458 
L 87.219648 235.173458 
L 87.254441 235.063761 
L 87.365165 234.755367 
L 87.365496 234.755367 
L 87.490444 234.409717 
L 87.543732 234.30002 
L 87.660469 234.014393 
L 87.69974 233.904696 
L 87.810837 233.625278 
L 87.846376 233.515581 
L 87.957266 233.221675 
L 87.957473 233.221675 
L 87.995666 233.111978 
L 88.106431 232.847049 
L 88.106722 232.847049 
L 88.146988 232.737351 
L 88.264679 232.397911 
L 88.304282 232.288214 
L 88.421558 231.97361 
L 88.461908 231.863913 
L 88.571263 231.534821 
L 88.57288 231.534821 
L 88.612234 231.425124 
L 88.72275 231.141567 
L 88.723331 231.141567 
L 88.757875 231.031869 
L 88.868785 230.781428 
L 88.868847 230.781428 
L 88.90335 230.671731 
L 89.020169 230.377825 
L 89.057948 230.270198 
L 89.168713 230.001129 
L 89.168962 230.001129 
L 89.216403 229.891432 
L 89.326463 229.609945 
L 89.3275 229.609945 
L 89.369301 229.500247 
L 89.486494 229.183574 
L 89.532566 229.073877 
L 89.642916 228.817227 
L 89.643165 228.817227 
L 89.690855 228.709599 
L 89.801827 228.430182 
L 89.801952 228.430182 
L 89.847817 228.320484 
L 89.958541 228.078322 
L 90.00395 227.968625 
L 90.114279 227.685068 
L 90.115005 227.685068 
L 90.161948 227.575371 
L 90.273045 227.316651 
L 90.310824 227.209023 
L 90.421837 226.923396 
L 90.421879 226.923396 
L 90.47326 226.813699 
L 90.584315 226.536351 
L 90.641335 226.426654 
L 90.750442 226.138958 
L 90.752225 226.138958 
L 90.793445 226.02926 
L 90.909726 225.77054 
L 90.956752 225.660843 
L 91.064075 225.391774 
L 91.067683 225.391774 
L 91.131463 225.282077 
L 91.248573 224.979892 
L 91.297341 224.870195 
L 91.407733 224.582498 
L 91.408396 224.582498 
L 91.448995 224.471766 
L 91.559594 224.212011 
L 91.559718 224.212011 
L 91.613794 224.102314 
L 91.723647 223.87671 
L 91.724891 223.87671 
L 91.769139 223.767013 
L 91.88007 223.497944 
L 91.880153 223.497944 
L 91.933731 223.388247 
L 92.044247 223.135736 
L 92.096375 223.026039 
L 92.205273 222.802505 
L 92.207471 222.802505 
L 92.269676 222.692808 
L 92.376542 222.432018 
L 92.380772 222.432018 
L 92.422325 222.322321 
L 92.53226 222.082229 
L 92.53338 222.082229 
L 92.571407 221.974601 
L 92.571407 221.971497 
L 92.682338 221.765555 
L 92.735419 221.655858 
L 92.844608 221.411627 
L 92.846474 221.411627 
L 92.895367 221.301929 
L 93.006381 221.101163 
L 93.047228 220.991465 
L 93.158076 220.753443 
L 93.158242 220.753443 
L 93.22986 220.645815 
L 93.22986 220.643746 
L 93.345103 220.43263 
L 93.395613 220.322933 
L 93.506627 220.047655 
L 93.54764 219.937958 
L 93.658695 219.728912 
L 93.722102 219.619215 
L 93.837532 219.40396 
L 93.877613 219.294262 
L 93.988087 219.079007 
L 93.988461 219.079007 
L 94.034284 218.96931 
L 94.144842 218.743706 
L 94.145174 218.743706 
L 94.207212 218.634009 
L 94.317894 218.360801 
L 94.318018 218.360801 
L 94.377029 218.253173 
L 94.377029 218.251104 
L 94.488043 218.035849 
L 94.488126 218.035849 
L 94.540792 217.926151 
L 94.650686 217.723315 
L 94.651682 217.723315 
L 94.708453 217.613618 
L 94.824278 217.375595 
L 94.87259 217.265898 
L 94.982732 217.036155 
L 94.983686 217.036155 
L 95.040334 216.926457 
L 95.150394 216.72776 
L 95.15143 216.72776 
L 95.231176 216.618063 
L 95.347456 216.359343 
L 95.392575 216.249646 
L 95.502843 216.011624 
L 95.503382 216.011624 
L 95.559282 215.901926 
L 95.667684 215.69909 
L 95.670379 215.69909 
L 95.72769 215.589393 
L 95.838704 215.336882 
L 95.890416 215.227185 
L 96.001471 215.028488 
L 96.050737 214.91879 
L 96.161336 214.705605 
L 96.161792 214.705605 
L 96.225158 214.595908 
L 96.225158 214.594873 
L 96.346124 214.345467 
L 96.411273 214.23577 
L 96.521208 214.018445 
L 96.522121 214.018445 
L 96.585362 213.908748 
L 96.696458 213.689353 
L 96.748834 213.579656 
L 96.858915 213.378889 
L 96.859889 213.378889 
L 96.903432 213.269192 
L 97.018344 213.072565 
L 97.07607 212.962868 
L 97.185881 212.735194 
L 97.187125 212.735194 
L 97.257043 212.625497 
L 97.367476 212.399893 
L 97.368098 212.399893 
L 97.427606 212.290196 
L 97.538703 212.023197 
L 97.592572 211.913499 
L 97.703461 211.687896 
L 97.703669 211.687896 
L 97.770559 211.578198 
L 97.885181 211.39399 
L 97.939837 211.284293 
L 98.054998 211.079386 
L 98.106793 210.969689 
L 98.216853 210.781341 
L 98.217517 210.781341 
L 98.284283 210.671644 
L 98.397536 210.437761 
L 98.450492 210.328064 
L 98.565777 210.110739 
L 98.637768 210.001042 
L 98.748658 209.814763 
L 98.811443 209.705066 
L 98.91833 209.520857 
L 98.922539 209.520857 
L 99.00158 209.41116 
L 99.111764 209.208324 
L 99.112677 209.208324 
L 99.187902 209.100696 
L 99.297257 208.908208 
L 99.298916 208.908208 
L 99.361328 208.798511 
L 99.469853 208.63293 
L 99.472424 208.63293 
L 99.539439 208.522198 
L 99.65008 208.322466 
L 99.65037 208.322466 
L 99.718836 208.212769 
L 99.827403 208.03684 
L 99.829933 208.03684 
L 99.883967 207.927142 
L 99.991705 207.734655 
L 99.994815 207.734655 
L 100.072488 207.624957 
L 100.182672 207.451098 
L 100.183543 207.451098 
L 100.256467 207.3414 
L 100.369409 207.153052 
L 100.436299 207.043355 
L 100.550631 206.844658 
L 100.627432 206.734961 
L 100.73716 206.56731 
L 100.73828 206.56731 
L 100.819684 206.456578 
L 100.930201 206.273404 
L 100.93074 206.273404 
L 101.001818 206.163707 
L 101.110427 206.006405 
L 101.112915 206.006405 
L 101.205973 205.896708 
L 101.315576 205.714569 
L 101.316986 205.714569 
L 101.381223 205.604872 
L 101.492195 205.441361 
L 101.492278 205.441361 
L 101.568374 205.331664 
L 101.682913 205.159874 
L 101.754862 205.050176 
L 101.864798 204.903224 
L 101.865793 204.903224 
L 101.920533 204.793526 
L 102.034864 204.632085 
L 102.090848 204.522388 
L 102.20999 204.323691 
L 102.284469 204.213994 
L 102.393907 204.048413 
L 102.395524 204.048413 
L 102.466022 203.938716 
L 102.575668 203.758646 
L 102.577119 203.758646 
L 102.657777 203.648949 
L 102.775302 203.489578 
L 102.834561 203.37988 
L 102.944207 203.222579 
L 102.945658 203.222579 
L 103.035523 203.112881 
L 103.146163 202.94937 
L 103.146536 202.94937 
L 103.216869 202.839673 
L 103.327924 202.682371 
L 103.406052 202.572674 
L 103.520549 202.382256 
L 103.60042 202.272559 
L 103.71135 202.121467 
L 103.810006 202.011769 
L 103.920315 201.819282 
L 103.920771 201.819282 
L 104.004581 201.709584 
L 104.118995 201.541934 
L 104.19053 201.432237 
L 104.304737 201.277005 
L 104.396011 201.167307 
L 104.505657 201.022424 
L 104.506942 201.022424 
L 104.600414 200.912727 
L 104.710682 200.755425 
L 104.71147 200.755425 
L 104.779977 200.645728 
L 104.88983 200.492566 
L 104.890991 200.492566 
L 104.983012 200.382868 
L 105.093528 200.227636 
L 105.094088 200.227636 
L 105.187124 200.117939 
L 105.296148 199.960637 
L 105.29818 199.960637 
L 105.411889 199.85094 
L 105.521866 199.724685 
L 105.522654 199.724685 
L 105.602939 199.614988 
L 105.71615 199.50529 
L 105.795025 199.395593 
L 105.909191 199.240361 
L 106.010335 199.130664 
L 106.120768 198.98785 
L 106.121432 198.98785 
L 106.222493 198.878153 
L 106.333133 198.691875 
L 106.333548 198.691875 
L 106.430628 198.582178 
L 106.539734 198.429015 
L 106.541476 198.429015 
L 106.62682 198.319318 
L 106.736797 198.168226 
L 106.737585 198.168226 
L 106.842751 198.058528 
L 106.95306 197.917785 
L 106.953848 197.917785 
L 107.059512 197.808087 
L 107.173139 197.681832 
L 107.267979 197.572135 
L 107.381191 197.460368 
L 107.473253 197.350671 
L 107.583313 197.222345 
L 107.583728 197.222345 
L 107.673343 197.112648 
L 107.78303 196.971905 
L 107.784399 196.971905 
L 107.881727 196.862207 
L 107.994877 196.760789 
L 108.090858 196.651092 
L 108.204816 196.506209 
L 108.315166 196.396511 
L 108.4256 196.288884 
L 108.426222 196.288884 
L 108.506672 196.179187 
L 108.61611 196.055001 
L 108.617396 196.055001 
L 108.723931 195.945304 
L 108.83482 195.825258 
L 108.936669 195.71556 
L 109.050296 195.589305 
L 109.160314 195.479608 
L 109.271328 195.37198 
L 109.377075 195.262283 
L 109.485103 195.098772 
L 109.488172 195.098772 
L 109.588569 194.98804 
L 109.699625 194.842122 
L 109.699666 194.842122 
L 109.804086 194.732425 
L 109.912923 194.633076 
L 109.915058 194.633076 
L 110.058584 194.523379 
L 110.172128 194.401263 
L 110.263029 194.291566 
L 110.374001 194.152892 
L 110.374125 194.152892 
L 110.489079 194.043195 
L 110.594784 193.956265 
L 110.600175 193.956265 
L 110.701651 193.846567 
L 110.816356 193.757568 
L 110.900083 193.647871 
L 111.01375 193.517476 
L 111.127004 193.407778 
L 111.235985 193.283593 
L 111.237851 193.283593 
L 111.359647 193.175965 
L 111.359647 193.173896 
L 111.47344 193.033152 
L 111.581053 192.923455 
L 111.691984 192.828246 
L 111.69215 192.828246 
L 111.79375 192.717514 
L 111.904183 192.598502 
L 111.904805 192.598502 
L 112.025357 192.488805 
L 112.135043 192.379108 
L 112.136412 192.379108 
L 112.258208 192.269411 
L 112.375152 192.120388 
L 112.483594 192.010691 
L 112.59664 191.913412 
L 112.716528 191.803715 
L 112.827542 191.691948 
L 112.827584 191.691948 
L 112.943657 191.58225 
L 113.051975 191.49532 
L 113.054753 191.49532 
L 113.189612 191.385623 
L 113.299672 191.263507 
L 113.300709 191.263507 
L 113.402184 191.15381 
L 113.512825 191.044113 
L 113.51324 191.044113 
L 113.631469 190.934416 
L 113.738585 190.791602 
L 113.74211 190.791602 
L 113.854326 190.681905 
L 113.961981 190.561859 
L 113.965423 190.561859 
L 114.064784 190.452162 
L 114.175341 190.344534 
L 114.270016 190.236907 
L 114.378376 190.102372 
L 114.381113 190.102372 
L 114.484828 189.992675 
L 114.595634 189.874699 
L 114.595842 189.874699 
L 114.712578 189.765001 
L 114.825541 189.671862 
L 114.969751 189.562165 
L 115.081656 189.469026 
L 115.189892 189.359329 
L 115.303352 189.237213 
L 115.410675 189.127515 
L 115.521025 189.013679 
L 115.52173 189.013679 
L 115.64025 188.903981 
L 115.753462 188.796354 
L 115.894458 188.686657 
L 116.002735 188.597657 
L 116.005306 188.597657 
L 116.119596 188.486925 
L 116.232807 188.369983 
L 116.381766 188.260286 
L 116.492655 188.156798 
L 116.492862 188.156798 
L 116.60031 188.047101 
L 116.709831 187.951892 
L 116.711324 187.951892 
L 116.823623 187.842195 
L 116.928002 187.726288 
L 116.93472 187.726288 
L 117.062611 187.616591 
L 117.172132 187.517242 
L 117.173687 187.517242 
L 117.309728 187.407545 
L 117.423064 187.289569 
L 117.53582 187.179872 
L 117.645589 187.078453 
L 117.646916 187.078453 
L 117.75905 186.958407 
L 117.886071 186.84871 
L 117.998702 186.75971 
L 118.12734 186.650013 
L 118.12734 186.648978 
L 118.248555 186.525828 
L 118.343396 186.4182 
L 118.343396 186.41613 
L 118.456442 186.316782 
L 118.551614 186.207085 
L 118.661176 186.103597 
L 118.662669 186.103597 
L 118.765016 185.993899 
L 118.875242 185.89869 
L 118.876113 185.89869 
L 118.982523 185.787958 
L 119.0908 185.693784 
L 119.093413 185.693784 
L 119.224995 185.584087 
L 119.337004 185.464041 
L 119.474849 185.354344 
L 119.587646 185.269483 
L 119.729845 185.159786 
L 119.839531 185.062507 
L 119.840858 185.062507 
L 119.973229 184.95281 
L 120.08839 184.853462 
L 120.213462 184.743764 
L 120.213462 184.74273 
L 120.328705 184.638207 
L 120.442207 184.528509 
L 120.552226 184.43951 
L 120.552889 184.43951 
L 120.691107 184.331882 
L 120.691107 184.329813 
L 120.804526 184.209766 
L 120.937436 184.100069 
L 121.04621 183.992442 
L 121.048491 183.992442 
L 121.168752 183.882744 
L 121.279725 183.779256 
L 121.279807 183.779256 
L 121.409731 183.669559 
L 121.510689 183.588839 
L 121.520662 183.588839 
L 121.633542 183.479141 
L 121.74638 183.390142 
L 121.89621 183.280444 
L 122.009338 183.179026 
L 122.140465 183.069329 
L 122.246005 182.982399 
L 122.25123 182.982399 
L 122.370081 182.872702 
L 122.485947 182.754725 
L 122.615083 182.645028 
L 122.724065 182.568447 
L 122.726138 182.568447 
L 122.868835 182.45875 
L 122.979807 182.375959 
L 123.120264 182.266262 
L 123.233641 182.152425 
L 123.349797 182.042728 
L 123.458862 181.920612 
L 123.46077 181.920612 
L 123.569544 181.810915 
L 123.678899 181.730194 
L 123.680641 181.730194 
L 123.846436 181.620497 
L 123.956828 181.514939 
L 123.957242 181.514939 
L 124.081236 181.405242 
L 124.194157 181.307963 
L 124.313216 181.198266 
L 124.422364 181.100987 
L 124.424271 181.100987 
L 124.526162 180.99129 
L 124.639083 180.894012 
L 124.791152 180.784314 
L 124.900258 180.697384 
L 124.902124 180.697384 
L 125.035697 180.587687 
L 125.148494 180.500757 
L 125.261872 180.39106 
L 125.370356 180.310339 
L 125.372844 180.310339 
L 125.502519 180.200642 
L 125.615772 180.093015 
L 125.725666 179.983317 
L 125.838961 179.87155 
L 125.945288 179.761853 
L 126.056385 179.670784 
L 126.223549 179.561086 
L 126.332987 179.472087 
L 126.334645 179.472087 
L 126.501684 179.362389 
L 126.610376 179.27132 
L 126.612781 179.27132 
L 126.737106 179.161623 
L 126.851106 179.01674 
L 126.955899 178.907042 
L 127.066167 178.807694 
L 127.066996 178.807694 
L 127.187175 178.697997 
L 127.289894 178.621415 
L 127.298188 178.621415 
L 127.417849 178.511718 
L 127.529754 178.430998 
L 127.686882 178.3213 
L 127.800591 178.184696 
L 127.945941 178.074999 
L 128.06048 177.990139 
L 128.190611 177.880441 
L 128.303989 177.764535 
L 128.431507 177.654838 
L 128.547767 177.572047 
L 128.682895 177.46235 
L 128.795775 177.367141 
L 128.900444 177.257444 
L 129.015812 177.151886 
L 129.140718 177.042189 
L 129.248788 176.94698 
L 129.251774 176.94698 
L 129.405625 176.837283 
L 129.51863 176.735864 
L 129.621184 176.626167 
L 129.73452 176.5144 
L 129.903342 176.404703 
L 130.012365 176.309494 
L 130.014356 176.309494 
L 130.168 176.199797 
L 130.281377 176.08596 
L 130.405703 175.976263 
L 130.520573 175.881054 
L 130.648838 175.771356 
L 130.757571 175.667868 
L 130.759852 175.667868 
L 130.851666 175.558171 
L 130.96214 175.446404 
L 130.962721 175.446404 
L 131.107657 175.336707 
L 131.211786 175.245637 
L 131.21867 175.245637 
L 131.346189 175.13594 
L 131.461764 175.026243 
L 131.585634 174.916546 
L 131.698368 174.829616 
L 131.848799 174.719918 
L 131.959481 174.630919 
L 131.959813 174.630919 
L 132.136514 174.521222 
L 132.251799 174.417734 
L 132.372641 174.308036 
L 132.487429 174.216967 
L 132.597738 174.10727 
L 132.706719 173.993433 
L 132.708751 173.993433 
L 132.827022 173.883736 
L 132.93646 173.805085 
L 132.938119 173.805085 
L 133.095205 173.695387 
L 133.209931 173.606388 
L 133.33747 173.496691 
L 133.443176 173.382854 
L 133.448567 173.382854 
L 133.603165 173.273156 
L 133.716335 173.169668 
L 133.866579 173.059971 
L 133.975851 172.952344 
L 133.977634 172.952344 
L 134.127795 172.842646 
L 134.241007 172.737089 
L 134.385611 172.627391 
L 134.493929 172.55288 
L 134.496666 172.55288 
L 134.642265 172.443183 
L 134.75697 172.354183 
L 134.870928 172.244486 
L 134.981361 172.138928 
L 134.982025 172.138928 
L 135.136913 172.029231 
L 135.250374 171.911255 
L 135.368644 171.801557 
L 135.481317 171.685651 
L 135.606057 171.575954 
L 135.716905 171.484884 
L 135.717112 171.484884 
L 135.833351 171.375187 
L 135.946812 171.257211 
L 136.081836 171.147513 
L 136.192477 171.052304 
L 136.192933 171.052304 
L 136.309877 170.942607 
L 136.423794 170.874305 
L 136.570264 170.764608 
L 136.676218 170.683887 
L 136.68136 170.683887 
L 136.833885 170.57419 
L 136.946516 170.491399 
L 137.084983 170.381702 
L 137.194628 170.263726 
L 137.196079 170.263726 
L 137.318539 170.154029 
L 137.421134 170.062959 
L 137.429428 170.062959 
L 137.581082 169.953262 
L 137.694211 169.849774 
L 137.812896 169.740077 
L 137.92785 169.644868 
L 138.086263 169.535171 
L 138.198936 169.45652 
L 138.359879 169.346822 
L 138.472676 169.261962 
L 138.58398 169.152265 
L 138.699887 169.059126 
L 138.849218 168.949429 
L 138.95849 168.85008 
L 138.960232 168.85008 
L 139.06656 168.740383 
L 139.181679 168.638965 
L 139.28444 168.529267 
L 139.390644 168.415431 
L 139.395537 168.415431 
L 139.515011 168.305733 
L 139.627891 168.214664 
L 139.777077 168.104967 
L 139.889231 167.995269 
L 140.00829 167.885572 
L 140.121792 167.759317 
L 140.232101 167.649619 
L 140.34299 167.541992 
L 140.343156 167.541992 
L 140.498666 167.432295 
L 140.607482 167.349504 
L 140.609763 167.349504 
L 140.717293 167.239807 
L 140.829966 167.161156 
L 140.952052 167.051459 
L 141.055975 166.935552 
L 141.063066 166.935552 
L 141.179885 166.825855 
L 141.289157 166.703739 
L 141.290941 166.703739 
L 141.429863 166.594042 
L 141.53926 166.505042 
L 141.540836 166.505042 
L 141.714468 166.395345 
L 141.714468 166.39431 
L 141.830666 166.26909 
L 141.967473 166.159393 
L 142.080685 166.086951 
L 142.219732 165.977254 
L 142.329709 165.875835 
L 142.330414 165.875835 
L 142.465729 165.766138 
L 142.581056 165.66058 
L 142.715956 165.550883 
L 142.829727 165.418419 
L 142.9153 165.310791 
L 142.9153 165.308721 
L 143.029092 165.170047 
L 143.166812 165.06035 
L 143.275255 164.97549 
L 143.277867 164.97549 
L 143.393194 164.865793 
L 143.50371 164.756095 
L 143.504208 164.756095 
L 143.614475 164.646398 
L 143.723291 164.534631 
L 143.725406 164.534631 
L 143.859808 164.424934 
L 143.974513 164.329725 
L 144.089259 164.220028 
L 144.205498 164.137237 
L 144.321654 164.02754 
L 144.43217 163.930261 
L 144.43275 163.930261 
L 144.543018 163.820564 
L 144.655773 163.735704 
L 144.80075 163.626007 
L 144.909857 163.532868 
L 144.911764 163.532868 
L 145.045047 163.42317 
L 145.150711 163.303124 
L 145.156144 163.303124 
L 145.286068 163.193427 
L 145.396998 163.098218 
L 145.397123 163.098218 
L 145.5246 162.99059 
L 145.635448 162.878823 
L 145.635697 162.878823 
L 145.759379 162.769126 
L 145.873939 162.65322 
L 145.98856 162.543522 
L 146.101109 162.471081 
L 146.22419 162.361384 
L 146.342046 162.245477 
L 146.463261 162.13578 
L 146.571455 162.061268 
L 146.574275 162.061268 
L 146.730698 161.951571 
L 146.840841 161.856362 
L 146.841753 161.856362 
L 146.956333 161.746665 
L 147.065191 161.651456 
L 147.067389 161.651456 
L 147.198557 161.543829 
L 147.309653 161.44655 
L 147.416644 161.336853 
L 147.52969 161.233365 
L 147.654928 161.123667 
L 147.767974 161.020179 
L 147.909633 160.910482 
L 148.015671 160.786296 
L 148.02073 160.786296 
L 148.163053 160.676599 
L 148.27357 160.564832 
L 148.274109 160.564832 
L 148.385454 160.455135 
L 148.498749 160.345438 
L 148.623862 160.23574 
L 148.725214 160.123973 
L 148.734959 160.123973 
L 148.865007 160.014276 
L 148.980831 159.89837 
L 149.117929 159.788672 
L 149.228902 159.683115 
L 149.351568 159.573417 
L 149.462126 159.46579 
L 149.462541 159.46579 
L 149.605901 159.356093 
L 149.716251 159.227767 
L 149.716873 159.227767 
L 149.828343 159.11807 
L 149.94143 159.018722 
L 150.043321 158.909024 
L 150.154003 158.795188 
L 150.154334 158.795188 
L 150.255727 158.68549 
L 150.366492 158.60063 
L 150.366824 158.60063 
L 150.475598 158.490933 
L 150.591588 158.368817 
L 150.701358 158.25912 
L 150.808805 158.157702 
L 150.812455 158.157702 
L 150.929005 158.048004 
L 151.043108 157.944516 
L 151.132848 157.834819 
L 151.240751 157.73961 
L 151.243903 157.73961 
L 151.344964 157.629913 
L 151.459544 157.542983 
L 151.596435 157.433286 
L 151.712798 157.302891 
L 151.830779 157.193194 
L 151.950667 157.05038 
L 152.068523 156.940683 
L 152.18186 156.824776 
L 152.312322 156.715079 
L 152.419272 156.617801 
L 152.423295 156.617801 
L 152.547371 156.508103 
L 152.663279 156.381848 
L 152.767823 156.272151 
L 152.877095 156.166593 
L 152.878878 156.166593 
L 153.000799 156.056896 
L 153.11625 155.949268 
L 153.251233 155.839571 
L 153.362205 155.721595 
L 153.48512 155.611897 
L 153.598415 155.5022 
L 153.713742 155.392503 
L 153.826704 155.293154 
L 153.930917 155.183457 
L 154.043839 155.092388 
L 154.179858 154.98269 
L 154.287181 154.850226 
L 154.290914 154.850226 
L 154.415571 154.740529 
L 154.521277 154.647389 
L 154.526668 154.647389 
L 154.643943 154.537692 
L 154.756948 154.434204 
L 154.911795 154.324507 
L 155.022311 154.21274 
L 155.02285 154.21274 
L 155.126855 154.103043 
L 155.2314 153.989206 
L 155.237952 153.989206 
L 155.355435 153.879508 
L 155.465536 153.761532 
L 155.46649 153.761532 
L 155.568215 153.651835 
L 155.678441 153.542138 
L 155.67927 153.542138 
L 155.798163 153.43244 
L 155.798163 153.431406 
L 155.914775 153.295836 
L 156.050256 153.186139 
L 156.16015 153.086791 
L 156.16127 153.086791 
L 156.270334 152.977093 
L 156.383422 152.877745 
L 156.514382 152.768048 
L 156.622991 152.625234 
L 156.625437 152.625234 
L 156.732138 152.515537 
L 156.842572 152.418258 
L 156.843235 152.418258 
L 156.949563 152.308561 
L 157.063023 152.190585 
L 157.191496 152.080887 
L 157.305578 151.925655 
L 157.445206 151.815958 
L 157.567209 151.683494 
L 157.667192 151.573796 
L 157.780196 151.476518 
L 157.876157 151.36682 
L 157.984972 151.252983 
L 157.987129 151.252983 
L 158.088563 151.143286 
L 158.195596 151.033589 
L 158.199535 151.033589 
L 158.350609 150.923892 
L 158.460544 150.807985 
L 158.461498 150.807985 
L 158.547381 150.698288 
L 158.655658 150.557544 
L 158.658478 150.557544 
L 158.747969 150.447847 
L 158.861678 150.311243 
L 158.955482 150.201546 
L 159.066372 150.116685 
L 159.066538 150.116685 
L 159.202557 150.006988 
L 159.31042 149.891082 
L 159.313654 149.891082 
L 159.443329 149.781384 
L 159.556831 149.655129 
L 159.668965 149.545432 
L 159.772763 149.415037 
L 159.78002 149.415037 
L 159.906585 149.30534 
L 160.021579 149.205991 
L 160.132593 149.096294 
L 160.246054 148.978318 
L 160.319662 148.86862 
L 160.430551 148.777551 
L 160.430759 148.777551 
L 160.539616 148.667854 
L 160.65034 148.570575 
L 160.65063 148.570575 
L 160.781715 148.460878 
L 160.892604 148.359459 
L 160.89277 148.359459 
L 161.000508 148.249762 
L 161.116871 148.119367 
L 161.231534 148.00967 
L 161.345119 147.885485 
L 161.448959 147.775787 
L 161.564575 147.66402 
L 161.714239 147.554323 
L 161.714239 147.553288 
L 161.830851 147.417719 
L 161.933405 147.308022 
L 162.040147 147.194185 
L 162.044419 147.194185 
L 162.151825 147.084488 
L 162.265617 146.949953 
L 162.378704 146.840256 
L 162.492579 146.701582 
L 162.582858 146.593955 
L 162.693208 146.478048 
L 162.693913 146.478048 
L 162.808742 146.380769 
L 162.911877 146.271072 
L 163.018868 146.153096 
L 163.022974 146.153096 
L 163.12926 146.043398 
L 163.239237 145.931631 
L 163.240315 145.931631 
L 163.341874 145.821934 
L 163.450234 145.708097 
L 163.452888 145.708097 
L 163.56357 145.5984 
L 163.674086 145.459726 
L 163.674625 145.459726 
L 163.779211 145.350029 
L 163.894247 145.25275 
L 163.986434 145.143053 
L 164.092761 145.037495 
L 164.097116 145.037495 
L 164.203402 144.927798 
L 164.318604 144.82638 
L 164.451431 144.716683 
L 164.562403 144.613195 
L 164.562528 144.613195 
L 164.696723 144.503497 
L 164.812858 144.379312 
L 164.945747 144.269614 
L 165.054563 144.153708 
L 165.056844 144.153708 
L 165.149321 144.044011 
L 165.259712 143.96122 
L 165.260417 143.96122 
L 165.38495 143.851523 
L 165.493559 143.758384 
L 165.496005 143.758384 
L 165.615686 143.648687 
L 165.73093 143.547268 
L 165.840824 143.437571 
L 165.956462 143.325804 
L 166.054101 143.216107 
L 166.162461 143.10434 
L 166.165157 143.10434 
L 166.283054 142.994642 
L 166.401035 142.882875 
L 166.536391 142.773178 
L 166.641143 142.659341 
L 166.647488 142.659341 
L 166.750084 142.549644 
L 166.863212 142.448226 
L 166.993426 142.338529 
L 167.104067 142.208134 
L 167.104523 142.208134 
L 167.225738 142.098437 
L 167.338826 141.997018 
L 167.462819 141.887321 
L 167.581588 141.763135 
L 167.707157 141.653438 
L 167.817756 141.54788 
L 167.818213 141.54788 
L 167.929765 141.438183 
L 168.038415 141.320207 
L 168.040862 141.320207 
L 168.145324 141.21051 
L 168.255715 141.088394 
L 168.25642 141.088394 
L 168.377097 140.978697 
L 168.487779 140.871069 
L 168.488193 140.871069 
L 168.581665 140.761372 
L 168.69185 140.643396 
L 168.692721 140.643396 
L 168.803444 140.533698 
L 168.91649 140.43435 
L 169.044962 140.324653 
L 169.157884 140.231513 
L 169.299792 140.121816 
L 169.412714 140.028677 
L 169.52775 139.91898 
L 169.635571 139.807213 
L 169.638764 139.807213 
L 169.768522 139.697515 
L 169.881733 139.585748 
L 170.008423 139.475016 
L 170.116865 139.347726 
L 170.119519 139.347726 
L 170.233726 139.238029 
L 170.342708 139.099355 
L 170.344781 139.099355 
L 170.457661 138.989658 
L 170.570873 138.8841 
L 170.688771 138.774403 
L 170.80418 138.668845 
L 170.93004 138.559148 
L 171.043376 138.441171 
L 171.159905 138.331474 
L 171.270173 138.227986 
L 171.270878 138.227986 
L 171.399018 138.118289 
L 171.508 138.029289 
L 171.509908 138.029289 
L 171.619511 137.919592 
L 171.733096 137.795406 
L 171.827522 137.685709 
L 171.937997 137.584291 
L 171.938577 137.584291 
L 172.042915 137.474593 
L 172.15397 137.360757 
L 172.154011 137.360757 
L 172.286714 137.251059 
L 172.401791 137.153781 
L 172.483113 137.044083 
L 172.600555 136.940595 
L 172.716586 136.830898 
L 172.824448 136.723271 
L 172.827641 136.723271 
L 172.917423 136.613573 
L 173.027814 136.487318 
L 173.028478 136.487318 
L 173.156453 136.377621 
L 173.269001 136.29897 
L 173.396685 136.189273 
L 173.51251 136.071296 
L 173.628375 135.961599 
L 173.739431 135.839483 
L 173.854467 135.729786 
L 173.965232 135.624228 
L 173.965481 135.624228 
L 174.109255 135.514531 
L 174.216951 135.419322 
L 174.220186 135.419322 
L 174.350732 135.309625 
L 174.465312 135.224765 
L 174.596729 135.115067 
L 174.711392 135.028138 
L 174.809467 134.92051 
L 174.809467 134.91844 
L 174.922969 134.798394 
L 175.044599 134.688697 
L 175.154825 134.585209 
L 175.155571 134.585209 
L 175.281017 134.475512 
L 175.389957 134.367884 
L 175.391947 134.367884 
L 175.507772 134.258187 
L 175.623886 134.134001 
L 175.744604 134.024304 
L 175.854207 133.898049 
L 175.855659 133.898049 
L 175.976003 133.790421 
L 175.976003 133.788352 
L 176.089049 133.691073 
L 176.190483 133.581376 
L 176.303197 133.475818 
L 176.423749 133.366121 
L 176.53045 133.256423 
L 176.534763 133.256423 
L 176.676008 133.146726 
L 176.791998 133.02668 
L 176.900358 132.916983 
L 177.010542 132.805216 
L 177.011413 132.805216 
L 177.130679 132.695518 
L 177.241112 132.573403 
L 177.241693 132.573403 
L 177.375847 132.463705 
L 177.491754 132.345729 
L 177.624415 132.236032 
L 177.737917 132.111846 
L 177.861952 132.002149 
L 177.975744 131.867615 
L 178.084021 131.757917 
L 178.199949 131.637871 
L 178.292778 131.528174 
L 178.408353 131.416407 
L 178.496766 131.30671 
L 178.609937 131.201152 
L 178.706602 131.091455 
L 178.821099 131.008664 
L 178.92469 130.898967 
L 179.038026 130.780991 
L 179.155758 130.671293 
L 179.268679 130.565736 
L 179.406648 130.456038 
L 179.520896 130.294597 
L 179.649078 130.1849 
L 179.758724 130.077272 
L 179.759885 130.077272 
L 179.908263 129.967575 
L 180.016871 129.878576 
L 180.019359 129.878576 
L 180.136345 129.768878 
L 180.246736 129.677809 
L 180.247317 129.677809 
L 180.379397 129.568112 
L 180.492775 129.454275 
L 180.60918 129.344578 
L 180.724796 129.232811 
L 180.838547 129.123113 
L 180.952257 128.986509 
L 181.052861 128.876812 
L 181.160184 128.777463 
L 181.163917 128.777463 
L 181.264231 128.667766 
L 181.374747 128.543581 
L 181.375328 128.543581 
L 181.459594 128.433883 
L 181.573386 128.299349 
L 181.676065 128.189652 
L 181.786125 128.067536 
L 181.78712 128.067536 
L 181.876569 127.957839 
L 181.986546 127.872978 
L 181.987583 127.872978 
L 182.103407 127.763281 
L 182.21297 127.628747 
L 182.214463 127.628747 
L 182.331116 127.51905 
L 182.442089 127.401073 
L 182.552232 127.291376 
L 182.662665 127.189958 
L 182.663287 127.189958 
L 182.79292 127.08026 
L 182.906049 126.974703 
L 183.03871 126.865005 
L 183.152129 126.74289 
L 183.263889 126.635262 
L 183.37623 126.511077 
L 183.478867 126.401379 
L 183.589756 126.287543 
L 183.589963 126.287543 
L 183.698904 126.177845 
L 183.816719 126.068148 
L 183.918899 125.958451 
L 184.02925 125.848753 
L 184.029955 125.848753 
L 184.123551 125.739056 
L 184.237177 125.608661 
L 184.34703 125.498964 
L 184.462398 125.387197 
L 184.56574 125.2775 
L 184.679698 125.134686 
L 184.773253 125.024989 
L 184.886382 124.923571 
L 184.992129 124.813874 
L 185.102728 124.693828 
L 185.103184 124.693828 
L 185.216189 124.58413 
L 185.327037 124.468224 
L 185.327285 124.468224 
L 185.422997 124.358527 
L 185.536623 124.230201 
L 185.630966 124.120504 
L 185.738953 123.992179 
L 185.74198 123.992179 
L 185.845695 123.882482 
L 185.962515 123.741738 
L 186.103469 123.632041 
L 186.207848 123.528553 
L 186.214525 123.528553 
L 186.303684 123.418856 
L 186.417476 123.282252 
L 186.516837 123.172554 
L 186.625363 123.058717 
L 186.627892 123.058717 
L 186.734552 122.94902 
L 186.845524 122.841393 
L 186.957077 122.731695 
L 187.073233 122.60544 
L 187.179768 122.495743 
L 187.289911 122.363278 
L 187.290823 122.363278 
L 187.40391 122.253581 
L 187.514924 122.139744 
L 187.515007 122.139744 
L 187.606821 122.030047 
L 187.715346 121.92035 
L 187.717876 121.92035 
L 187.83905 121.810652 
L 187.947243 121.65956 
L 187.949814 121.65956 
L 188.058796 121.549863 
L 188.179472 121.392561 
L 188.269212 121.282864 
L 188.378982 121.177306 
L 188.380309 121.177306 
L 188.471459 121.067609 
L 188.471459 121.066574 
L 188.600387 120.964121 
L 188.707213 120.854423 
L 188.821005 120.71575 
L 188.916426 120.606052 
L 189.027316 120.502564 
L 189.027523 120.502564 
L 189.14654 120.392867 
L 189.259918 120.27696 
L 189.370558 120.167263 
L 189.484102 120.045147 
L 189.609174 119.93545 
L 189.717616 119.829892 
L 189.72027 119.829892 
L 189.821829 119.720195 
L 189.930147 119.59394 
L 189.932801 119.59394 
L 190.037222 119.484243 
L 190.153004 119.364196 
L 190.25477 119.254499 
L 190.365535 119.16136 
L 190.365701 119.16136 
L 190.464606 119.051663 
L 190.578025 118.933686 
L 190.690739 118.823989 
L 190.804034 118.710152 
L 190.923756 118.600455 
L 191.037175 118.480409 
L 191.148437 118.370712 
L 191.256465 118.279642 
L 191.259534 118.279642 
L 191.347366 118.172015 
L 191.460412 118.074736 
L 191.604685 117.965039 
L 191.713252 117.849132 
L 191.715698 117.849132 
L 191.860841 117.739435 
L 191.974509 117.61111 
L 192.093527 117.501413 
L 192.206075 117.426901 
L 192.328783 117.317204 
L 192.444607 117.199228 
L 192.585935 117.089531 
L 192.685503 117.015019 
L 192.697032 117.015019 
L 192.813478 116.905322 
L 192.930546 116.808043 
L 193.089291 116.698346 
L 193.192882 116.598998 
L 193.200264 116.598998 
L 193.316627 116.497579 
L 193.510912 116.313371 
L 193.695243 116.203673 
L 193.807833 116.125023 
L 193.915322 116.015325 
L 194.030234 115.920116 
L 194.186698 115.810419 
L 194.302605 115.733838 
L 194.408974 115.624141 
L 194.518122 115.54342 
L 194.520071 115.54342 
L 194.6823 115.433723 
L 194.797004 115.344723 
L 194.926223 115.235026 
L 195.038605 115.166724 
L 195.172966 115.057027 
L 195.285556 114.982515 
L 195.434141 114.872818 
L 195.546233 114.812795 
L 195.737946 114.703098 
L 195.851199 114.5934 
L 196.037605 114.483703 
L 196.150319 114.400913 
L 196.350658 114.291216 
L 196.457566 114.212565 
L 196.461754 114.212565 
L 196.672876 114.102867 
L 196.791437 114.013868 
L 196.964199 113.904171 
L 197.073305 113.833799 
L 197.075295 113.833799 
L 197.263733 113.724101 
L 197.377525 113.65373 
L 197.59018 113.546102 
L 197.824856 113.372242 
L 197.979703 113.262545 
L 198.095693 113.204592 
L 198.229764 113.094894 
L 198.342063 113.034871 
L 198.541199 112.925174 
L 198.65325 112.869291 
L 198.852096 112.759593 
L 198.967671 112.685082 
L 199.160131 112.575385 
L 199.272887 112.488455 
L 199.434618 112.378758 
L 199.546627 112.324944 
L 199.691562 112.215247 
L 199.804235 112.134526 
L 200.005403 112.024829 
L 200.122762 111.950317 
L 200.316383 111.84062 
L 200.432746 111.75576 
L 200.638891 111.646063 
L 200.755171 111.58397 
L 200.97666 111.474273 
L 201.091613 111.379064 
L 201.262343 111.269366 
L 201.369749 111.198995 
L 201.373357 111.198995 
L 201.56084 111.089297 
L 201.670237 111.010647 
L 201.671895 111.010647 
L 201.855564 110.900949 
L 201.970807 110.834717 
L 202.137141 110.72502 
L 202.247616 110.652578 
L 202.248238 110.652578 
L 202.410964 110.542881 
L 202.530687 110.46216 
L 202.746286 110.352463 
L 202.852987 110.275882 
L 202.857176 110.275882 
L 203.010405 110.166185 
L 203.127971 110.087534 
L 203.261545 109.977836 
L 203.379401 109.897116 
L 203.566345 109.787419 
L 203.674498 109.717047 
L 203.677442 109.717047 
L 203.851738 109.607349 
L 203.96495 109.499722 
L 204.120045 109.390025 
L 204.234211 109.315513 
L 204.38064 109.205816 
L 204.494722 109.131305 
L 204.67528 109.021607 
L 204.783972 108.91191 
L 204.78476 108.91191 
L 207.956635 106.5855 
L 210.407688 106.475803 
L 210.520982 106.467524 
L 211.693531 106.357827 
L 211.809563 106.343339 
L 212.699249 106.233641 
L 212.816608 106.219153 
L 213.398839 106.109456 
L 213.524906 106.082549 
L 214.070437 105.972852 
L 214.185929 105.954224 
L 214.897172 105.844526 
L 214.994833 105.823829 
L 215.00802 105.823829 
L 215.535304 105.714132 
L 215.647894 105.689294 
L 216.006646 105.579597 
L 216.127198 105.542342 
L 216.501087 105.432644 
L 216.613925 105.391249 
L 216.918767 105.281552 
L 217.03455 105.238087 
L 217.353118 105.12839 
L 217.46604 105.084925 
L 217.679276 104.975227 
L 217.789751 104.913135 
L 217.790331 104.913135 
L 217.98445 104.803437 
L 218.096873 104.737205 
L 218.251057 104.627508 
L 218.370116 104.552996 
L 218.495229 104.443299 
L 218.608482 104.335672 
L 218.792109 104.225974 
L 218.89993 104.143184 
L 218.903164 104.143184 
L 219.073438 104.033487 
L 219.186525 103.985882 
L 219.362356 103.876185 
L 219.465449 103.803743 
L 219.473411 103.803743 
L 219.732637 103.694046 
L 219.844687 103.640232 
L 220.078492 103.530535 
L 220.19245 103.460163 
L 220.411948 103.350466 
L 220.523957 103.300792 
L 220.712104 103.191095 
L 220.81557 103.14349 
L 220.823159 103.14349 
L 221.093747 103.033793 
L 221.205591 102.988258 
L 221.438981 102.878561 
L 221.544023 102.837166 
L 221.550077 102.837166 
L 221.887597 102.727468 
L 221.999524 102.686073 
L 222.319792 102.576376 
L 222.431843 102.522562 
L 222.722129 102.412865 
L 222.829742 102.3694 
L 222.833226 102.3694 
L 223.177256 102.259703 
L 223.290053 102.218308 
L 223.645405 102.10861 
L 223.7237 102.081703 
L 223.756502 102.081703 
L 224.123216 101.972006 
L 224.226641 101.93889 
L 224.234313 101.93889 
L 224.500381 101.829193 
L 224.604967 101.800216 
L 224.611312 101.800216 
L 225.022026 101.690519 
L 225.123045 101.673961 
L 225.132956 101.673961 
L 225.658126 101.564263 
L 225.763085 101.520799 
L 225.769223 101.520799 
L 226.22547 101.411101 
L 226.33781 101.373846 
L 226.779626 101.264148 
L 226.89176 101.239311 
L 227.346389 101.129614 
L 227.457984 101.104777 
L 227.97855 100.99508 
L 228.089978 100.978521 
L 228.725374 100.868824 
L 228.839788 100.831569 
L 229.356041 100.721871 
L 229.46353 100.686685 
L 229.467096 100.686685 
L 229.896596 100.576988 
L 230.007444 100.543872 
L 230.007692 100.543872 
L 230.621814 100.434175 
L 230.731791 100.413477 
L 230.73291 100.413477 
L 231.272884 100.30378 
L 231.386386 100.276873 
L 232.168874 100.167176 
L 232.270184 100.13406 
L 232.279846 100.13406 
L 232.828031 100.024362 
L 232.940123 99.997455 
L 233.437632 99.887758 
L 233.54736 99.858782 
L 233.548729 99.858782 
L 234.145765 99.749084 
L 234.257276 99.728387 
L 234.898684 99.618689 
L 234.978596 99.608341 
L 235.00974 99.608341 
L 235.661515 99.498643 
L 235.77029 99.475876 
L 235.772239 99.475876 
L 236.462291 99.366179 
L 236.573719 99.345481 
L 237.149606 99.235784 
L 237.241046 99.213016 
L 237.260536 99.213016 
L 238.026602 99.103319 
L 238.138072 99.084691 
L 238.887093 98.974994 
L 238.980939 98.964645 
L 238.99819 98.964645 
L 239.707774 98.854948 
L 239.819617 98.83839 
L 240.391813 98.728693 
L 240.502993 98.710065 
L 241.166546 98.600368 
L 241.27814 98.587949 
L 241.924151 98.478252 
L 242.032967 98.461694 
L 242.034626 98.461694 
L 242.787587 98.351996 
L 242.899181 98.337508 
L 243.75142 98.227811 
L 243.840331 98.215392 
L 243.862144 98.215392 
L 244.714341 98.105695 
L 244.805948 98.097416 
L 244.825397 98.097416 
L 245.481195 97.987719 
L 245.585947 97.960812 
L 245.592209 97.960812 
L 246.278736 97.851115 
L 246.370673 97.832487 
L 246.389542 97.832487 
L 247.109369 97.72279 
L 247.220839 97.702092 
L 247.99835 97.592395 
L 248.109613 97.582046 
L 248.918392 97.472349 
L 249.012237 97.453721 
L 249.028949 97.453721 
L 249.869535 97.344024 
L 249.972421 97.329535 
L 249.9803 97.329535 
L 250.779956 97.219838 
L 250.881722 97.20328 
L 250.891053 97.20328 
L 251.745739 97.093583 
L 251.855923 97.068745 
L 251.856794 97.068745 
L 252.846255 96.959048 
L 252.928904 96.94663 
L 252.957352 96.94663 
L 253.834431 96.836932 
L 253.903644 96.824514 
L 253.945528 96.824514 
L 254.746635 96.714817 
L 254.855368 96.696189 
L 254.856902 96.696189 
L 255.694752 96.586491 
L 255.787187 96.565794 
L 255.805848 96.565794 
L 256.728668 96.456097 
L 256.80265 96.445748 
L 256.839558 96.445748 
L 257.406362 96.336051 
L 257.517459 96.319492 
L 258.237991 96.209795 
L 258.349088 96.193237 
L 259.223471 96.08354 
L 259.328597 96.062842 
L 259.334402 96.062842 
L 260.027502 95.953145 
L 260.138765 95.936587 
L 260.976386 95.82689 
L 261.087939 95.802053 
L 261.835343 95.692355 
L 261.91455 95.684076 
L 261.94644 95.684076 
L 262.645905 95.574379 
L 262.752979 95.555751 
L 262.757002 95.555751 
L 263.562297 95.446054 
L 263.66792 95.423287 
L 263.673394 95.423287 
L 264.471889 95.313589 
L 264.554703 95.294961 
L 264.582944 95.294961 
L 265.276148 95.185264 
L 265.387286 95.166636 
L 266.292481 95.056939 
L 266.393045 95.034172 
L 266.403557 95.034172 
L 267.274686 94.924474 
L 267.37923 94.903777 
L 267.385741 94.903777 
L 268.224793 94.79408 
L 268.325522 94.771312 
L 268.335889 94.771312 
L 268.447193 94.758894 
L 269.225409 94.649196 
L 269.336962 94.626429 
L 270.178461 94.516732 
L 270.289433 94.502244 
L 270.991801 94.392546 
L 271.074782 94.373918 
L 271.102774 94.373918 
L 271.748453 94.264221 
L 271.830646 94.247663 
L 271.85955 94.247663 
L 272.66667 94.137966 
L 272.75189 94.119338 
L 272.777767 94.119338 
L 273.678111 94.009641 
L 273.789498 93.986873 
L 274.762579 93.877176 
L 274.85207 93.860618 
L 274.873592 93.860618 
L 275.669599 93.750921 
L 275.778912 93.726084 
L 275.780654 93.726084 
L 276.876485 93.616386 
L 276.969501 93.597759 
L 276.98754 93.597759 
L 277.816556 93.488061 
L 277.927964 93.471503 
L 278.607379 93.361806 
L 278.713541 93.341108 
L 278.718434 93.341108 
L 279.373735 93.231411 
L 279.471188 93.206574 
L 279.484811 93.206574 
L 280.143491 93.096877 
L 280.252141 93.06997 
L 280.254463 93.06997 
L 280.882684 92.960273 
L 280.986565 92.931296 
L 280.993781 92.931296 
L 281.857009 92.821599 
L 281.959895 92.798831 
L 281.967899 92.798831 
L 282.734835 92.689134 
L 282.84249 92.678785 
L 282.84589 92.678785 
L 283.788823 92.568053 
L 283.898219 92.54839 
L 283.899795 92.54839 
L 284.501517 92.438693 
L 284.597726 92.422135 
L 284.612572 92.422135 
L 285.572798 92.312438 
L 285.683729 92.275182 
L 285.683853 92.275182 
L 286.474552 92.165485 
L 286.554712 92.142718 
L 286.585441 92.142718 
L 287.374232 92.03302 
L 287.476495 92.016462 
L 287.485121 92.016462 
L 288.258485 91.906765 
L 288.352745 91.890207 
L 288.36954 91.890207 
L 289.114 91.78051 
L 289.223314 91.763951 
L 289.224682 91.763951 
L 289.922862 91.654254 
L 290.026287 91.645975 
L 290.033959 91.645975 
L 290.790569 91.536278 
L 290.901749 91.51972 
L 291.7041 91.410023 
L 291.815446 91.391395 
L 292.738473 91.281697 
L 292.793959 91.267209 
L 292.84957 91.267209 
L 293.840732 91.157512 
L 293.945732 91.138884 
L 293.951704 91.138884 
L 294.849269 91.029187 
L 294.938097 91.010559 
L 294.960366 91.010559 
L 295.730495 90.900862 
L 295.831017 90.880164 
L 295.841302 90.880164 
L 296.585513 90.772537 
L 296.585513 90.769432 
L 296.685827 90.749769 
L 296.696195 90.749769 
L 297.48652 90.640072 
L 297.598073 90.617305 
L 298.276845 90.507607 
L 298.378653 90.48898 
L 298.386946 90.48898 
L 299.061945 90.379282 
L 299.153821 90.364794 
L 299.173042 90.364794 
L 300.001311 90.255097 
L 300.112284 90.242678 
L 300.967301 90.132981 
L 301.037696 90.122632 
L 301.078398 90.122632 
L 301.856241 90.012935 
L 301.959375 89.996377 
L 301.967213 89.996377 
L 302.834505 89.886679 
L 302.94469 89.857703 
L 302.945353 89.857703 
L 303.614753 89.748006 
L 303.697775 89.729378 
L 303.724896 89.729378 
L 304.422205 89.61968 
L 304.528906 89.603122 
L 304.533178 89.603122 
L 305.404783 89.493425 
L 305.507461 89.474797 
L 305.515755 89.474797 
L 306.34162 89.3651 
L 306.435631 89.350612 
L 306.452426 89.350612 
L 307.430484 89.240914 
L 307.502184 89.234705 
L 307.54158 89.234705 
L 308.242622 89.125008 
L 308.344471 89.100171 
L 308.353594 89.100171 
L 309.013207 88.990474 
L 309.120655 88.973915 
L 309.124221 88.973915 
L 309.957757 88.864218 
L 310.053469 88.843521 
L 310.068833 88.843521 
L 310.996858 88.733823 
L 311.09796 88.719335 
L 311.107954 88.719335 
L 311.878499 88.609638 
L 311.987149 88.584801 
L 311.989554 88.584801 
L 312.77708 88.475103 
L 312.888405 88.450266 
L 313.599606 88.340569 
L 313.670021 88.317802 
L 313.71062 88.317802 
L 314.550169 88.208104 
L 314.640282 88.189477 
L 314.661266 88.189477 
L 315.476514 88.079779 
L 315.581805 88.065291 
L 315.587569 88.065291 
L 316.276875 87.955594 
L 316.315856 87.951454 
L 316.38793 87.951454 
L 317.197704 87.841757 
L 317.304779 87.810711 
L 317.308801 87.810711 
L 318.056744 87.699978 
L 318.163528 87.680316 
L 318.1678 87.680316 
L 318.89111 87.570618 
L 318.997935 87.551991 
L 319.001999 87.551991 
L 319.73236 87.441258 
L 319.834748 87.413317 
L 319.843083 87.413317 
L 320.50871 87.303619 
L 320.616115 87.278782 
L 320.619723 87.278782 
L 321.470345 87.169085 
L 321.575304 87.144248 
L 321.581442 87.144248 
L 322.467644 87.034551 
L 322.560785 87.011783 
L 322.578741 87.011783 
L 323.511763 86.902086 
L 323.621366 86.877249 
L 323.622818 86.877249 
L 324.693352 86.767552 
L 324.804739 86.750994 
L 325.737304 86.641296 
L 325.835629 86.618529 
L 325.84836 86.618529 
L 326.487197 86.508832 
L 326.595225 86.494343 
L 326.598211 86.494343 
L 327.207107 86.384646 
L 327.306385 86.359809 
L 327.318204 86.359809 
L 328.081988 86.250112 
L 328.190887 86.214926 
L 328.193043 86.214926 
L 328.852864 86.105229 
L 328.935264 86.086601 
L 328.963753 86.086601 
L 329.670061 85.976903 
L 329.781075 85.958276 
L 329.781158 85.958276 
L 330.438781 85.848578 
L 330.550251 85.819602 
L 331.439315 85.709904 
L 331.548836 85.689207 
L 331.55037 85.689207 
L 332.197625 85.57951 
L 332.308971 85.554673 
L 332.841854 85.444975 
L 332.947124 85.426347 
L 332.95295 85.426347 
L 333.730171 85.31665 
L 333.839775 85.300092 
L 333.841226 85.300092 
L 334.507185 85.190395 
L 334.612724 85.175907 
L 334.617991 85.175907 
L 335.370247 85.066209 
L 335.466332 85.045512 
L 335.481302 85.045512 
L 335.991543 84.935814 
L 335.991543 84.93478 
L 336.104153 84.913047 
L 336.865719 84.80335 
L 336.951063 84.784722 
L 336.976816 84.784722 
L 337.801726 84.675025 
L 337.88678 84.654327 
L 337.912243 84.654327 
L 338.547638 84.54463 
L 338.65438 84.521862 
L 338.658651 84.521862 
L 339.379681 84.41113 
L 339.486092 84.395607 
L 339.490363 84.395607 
L 340.03042 84.28591 
L 340.140065 84.275561 
L 340.141517 84.275561 
L 340.789021 84.165864 
L 340.897464 84.143096 
L 340.900118 84.143096 
L 341.488486 84.033399 
L 341.564334 84.020981 
L 341.599583 84.020981 
L 342.314517 83.911283 
L 342.423001 83.884376 
L 342.425323 83.884376 
L 343.064824 83.774679 
L 343.157384 83.749842 
L 343.175921 83.749842 
L 343.766197 83.63911 
L 343.87663 83.617377 
L 343.877211 83.617377 
L 344.440325 83.50768 
L 344.545864 83.499401 
L 344.551255 83.499401 
L 345.273239 83.389704 
L 345.372517 83.366937 
L 345.384336 83.366937 
L 345.965074 83.257239 
L 346.073973 83.232402 
L 346.076129 83.232402 
L 346.79069 83.122705 
L 346.899174 83.108217 
L 346.901703 83.108217 
L 347.718051 82.998519 
L 347.829334 82.973682 
L 348.367483 82.863985 
L 348.478165 82.843287 
L 348.47858 82.843287 
L 348.990852 82.73359 
L 349.094858 82.710823 
L 349.101908 82.710823 
L 349.712089 82.601125 
L 349.814934 82.586637 
L 349.823103 82.586637 
L 350.440791 82.47694 
L 350.542184 82.458312 
L 350.551639 82.458312 
L 351.106542 82.34758 
L 351.216145 82.325847 
L 351.217265 82.325847 
L 351.875676 82.21615 
L 351.974456 82.183034 
L 351.986773 82.183034 
L 352.809319 82.073337 
L 352.912164 82.052639 
L 352.920209 82.052639 
L 353.705101 81.942942 
L 353.806577 81.932593 
L 353.815949 81.932593 
L 354.448898 81.822896 
L 354.543427 81.806338 
L 354.559994 81.806338 
L 355.143138 81.696641 
L 355.229934 81.678013 
L 355.254193 81.678013 
L 355.914926 81.568315 
L 356.018517 81.551757 
L 356.02594 81.551757 
L 356.613397 81.44206 
L 356.723747 81.419293 
L 356.724493 81.419293 
L 357.321571 81.309595 
L 357.430552 81.280619 
L 357.432543 81.280619 
L 358.03016 81.170922 
L 358.120065 81.135736 
L 358.14109 81.135736 
L 358.575898 81.026038 
L 358.686621 80.994992 
L 358.686787 80.994992 
L 359.183716 80.885295 
L 359.293651 80.860458 
L 359.294771 80.860458 
L 359.948993 80.75076 
L 360.059675 80.734202 
L 360.060007 80.734202 
L 360.645349 80.624505 
L 360.728225 80.593459 
L 360.756404 80.593459 
L 361.293102 80.482726 
L 361.387859 80.456854 
L 361.404115 80.456854 
L 361.97826 80.346122 
L 362.082805 80.32232 
L 362.089274 80.32232 
L 362.635261 80.212623 
L 362.635261 80.211588 
L 362.747229 80.189855 
L 363.353554 80.080158 
L 363.453951 80.044972 
L 363.46465 80.044972 
L 364.064009 79.935275 
L 364.171207 79.912508 
L 364.175105 79.912508 
L 364.683272 79.80281 
L 364.769736 79.780043 
L 364.794369 79.780043 
L 365.291878 79.670346 
L 365.397003 79.63309 
L 365.402892 79.63309 
L 366.032564 79.523393 
L 366.129188 79.506835 
L 366.143619 79.506835 
L 366.661656 79.397138 
L 366.733771 79.366091 
L 366.772711 79.366091 
L 367.262383 79.256394 
L 367.372152 79.246045 
L 367.373479 79.246045 
L 367.865805 79.136348 
L 367.976694 79.099092 
L 367.976777 79.099092 
L 368.559672 78.989395 
L 368.671308 78.960418 
L 369.269505 78.850721 
L 369.380021 78.815535 
L 369.380436 78.815535 
L 369.780533 78.705838 
L 369.891049 78.674791 
L 369.891588 78.674791 
L 370.321419 78.565094 
L 370.388351 78.538187 
L 370.43235 78.538187 
L 370.919202 78.42849 
L 371.023954 78.405723 
L 371.030299 78.405723 
L 371.500106 78.296025 
L 371.603655 78.262909 
L 371.611203 78.262909 
L 372.067491 78.153212 
L 372.162 78.124235 
L 372.17809 78.124235 
L 372.641429 78.014538 
L 372.747093 77.977282 
L 372.752526 77.977282 
L 373.124465 77.867585 
L 373.234898 77.836539 
L 373.235562 77.836539 
L 373.725607 77.726842 
L 373.82277 77.695795 
L 373.836703 77.695795 
L 374.23734 77.586098 
L 374.345782 77.546772 
L 374.348436 77.546772 
L 374.715234 77.437075 
L 374.826745 77.416378 
L 375.234287 77.30668 
L 375.345611 77.279773 
L 375.728209 77.170076 
L 375.83437 77.143169 
L 375.839264 77.143169 
L 376.237371 77.033472 
L 376.350002 76.992077 
L 376.849709 76.88238 
L 376.943845 76.857542 
L 376.96064 76.857542 
L 377.317485 76.747845 
L 377.317485 76.74681 
L 377.429784 76.718869 
L 377.876327 76.609171 
L 377.974402 76.573985 
L 377.987258 76.573985 
L 378.419784 76.464288 
L 378.516367 76.429102 
L 378.53084 76.429102 
L 378.927163 76.319405 
L 379.027354 76.286289 
L 379.038219 76.286289 
L 379.489033 76.176592 
L 379.599425 76.145545 
L 379.600109 76.145545 
L 379.928775 76.035848 
L 380.034647 76.004801 
L 380.039831 76.004801 
L 380.344092 75.895104 
L 380.45154 75.864058 
L 380.455106 75.864058 
L 380.836666 75.754361 
L 380.927837 75.727454 
L 380.947763 75.727454 
L 381.341184 75.617756 
L 381.45 75.592919 
L 381.452281 75.592919 
L 381.79656 75.482187 
L 381.90239 75.448036 
L 381.907615 75.448036 
L 382.214241 75.338339 
L 382.322227 75.309362 
L 382.325254 75.309362 
L 382.723942 75.199665 
L 382.833546 75.162409 
L 382.834997 75.162409 
L 383.26516 75.052712 
L 383.373934 75.011317 
L 383.376215 75.011317 
L 383.794891 74.90162 
L 383.898067 74.862294 
L 383.905988 74.862294 
L 384.237578 74.752597 
L 384.237578 74.751562 
L 384.350706 74.702923 
L 384.591354 74.593225 
L 384.693057 74.547691 
L 384.70245 74.547691 
L 385.090812 74.437993 
L 385.183994 74.406947 
L 385.201909 74.406947 
L 385.529517 74.29725 
L 385.62979 74.266203 
L 385.640531 74.266203 
L 385.890426 74.156506 
L 386.001398 74.104762 
L 386.001523 74.104762 
L 386.347544 73.995065 
L 386.456526 73.955739 
L 386.458641 73.955739 
L 386.820296 73.846042 
L 386.932264 73.800507 
L 387.24117 73.69081 
L 387.342521 73.653555 
L 387.352266 73.653555 
L 387.726445 73.543857 
L 387.834515 73.496253 
L 387.837335 73.496253 
L 388.138984 73.386556 
L 388.249583 73.353439 
L 388.25008 73.353439 
L 388.555959 73.243742 
L 388.666268 73.202347 
L 388.667014 73.202347 
L 389.024854 73.09265 
L 389.134873 73.063673 
L 389.135951 73.063673 
L 389.474052 72.953976 
L 389.577352 72.904302 
L 389.585148 72.904302 
L 389.864818 72.794604 
L 389.972888 72.74907 
L 389.975915 72.74907 
L 390.278767 72.639372 
L 390.375764 72.602117 
L 390.389822 72.602117 
L 390.59974 72.492419 
L 390.698396 72.457233 
L 390.710505 72.457233 
L 391.036746 72.346501 
L 391.146515 72.297862 
L 391.147718 72.297862 
L 391.354111 72.188165 
L 391.462637 72.14056 
L 391.465187 72.14056 
L 391.781703 72.030863 
L 391.855975 72.001886 
L 391.8928 72.001886 
L 392.198513 71.892189 
L 392.308656 71.844585 
L 392.309568 71.844585 
L 392.543995 71.734887 
L 392.646466 71.683143 
L 392.65505 71.683143 
L 392.927297 71.573446 
L 393.03404 71.527911 
L 393.038394 71.527911 
L 393.258099 71.418214 
L 393.365422 71.3644 
L 393.369196 71.3644 
L 393.613492 71.254703 
L 393.722889 71.205029 
L 393.724589 71.205029 
L 393.986344 71.095332 
L 394.093667 71.031169 
L 394.097275 71.031169 
L 394.35281 70.921472 
L 394.464944 70.869728 
L 394.715046 70.760031 
L 394.82664 70.708287 
L 395.079438 70.598589 
L 395.188669 70.550985 
L 395.190535 70.550985 
L 395.448516 70.441288 
L 395.557996 70.401962 
L 395.559613 70.401962 
L 395.795222 70.292265 
L 395.906795 70.223963 
L 396.101495 70.114265 
L 396.211098 70.056312 
L 396.212508 70.056312 
L 396.494584 69.946615 
L 396.605597 69.880383 
L 396.60568 69.880383 
L 396.821944 69.770685 
L 396.931755 69.714802 
L 396.932957 69.714802 
L 397.127905 69.60407 
L 397.237302 69.543012 
L 397.238961 69.543012 
L 397.469863 69.433315 
L 397.577186 69.38778 
L 397.58071 69.38778 
L 397.843503 69.278083 
L 397.953065 69.220129 
L 397.954475 69.220129 
L 398.225561 69.110432 
L 398.335206 69.056618 
L 398.336657 69.056618 
L 398.569633 68.946921 
L 398.681559 68.899317 
L 398.910927 68.789619 
L 399.017959 68.733736 
L 399.022003 68.733736 
L 399.238701 68.624039 
L 399.347185 68.549527 
L 399.349798 68.549527 
L 399.569959 68.43983 
L 399.678692 68.383946 
L 399.680849 68.383946 
L 399.957284 68.274249 
L 400.059258 68.214226 
L 400.068381 68.214226 
L 400.247653 68.104529 
L 400.341209 68.058994 
L 400.358709 68.058994 
L 400.583141 67.949297 
L 400.692994 67.885134 
L 400.693989 67.885134 
L 400.883961 67.775437 
L 400.994062 67.727833 
L 400.994933 67.727833 
L 401.201368 67.618135 
L 401.307862 67.570531 
L 401.312465 67.570531 
L 401.497792 67.460834 
L 401.602254 67.388392 
L 401.608889 67.388392 
L 401.821378 67.278695 
L 401.929365 67.216602 
L 401.932392 67.216602 
L 402.118341 67.106905 
L 402.22019 67.034463 
L 402.229438 67.034463 
L 402.423391 66.924766 
L 402.533492 66.846115 
L 402.534446 66.846115 
L 402.755519 66.736418 
L 402.864004 66.668116 
L 402.866575 66.668116 
L 403.095196 66.558418 
L 403.205629 66.488047 
L 403.206251 66.488047 
L 403.382372 66.378349 
L 403.480198 66.320396 
L 403.493386 66.320396 
L 403.647942 66.210699 
L 403.7585 66.121699 
L 403.759039 66.121699 
L 403.957885 66.012002 
L 404.069853 65.923002 
L 404.264967 65.813305 
L 404.369179 65.751212 
L 404.376063 65.751212 
L 404.542149 65.641515 
L 404.645449 65.564934 
L 404.653245 65.564934 
L 404.795444 65.455237 
L 404.901357 65.374516 
L 404.906541 65.374516 
L 405.042395 65.264819 
L 405.144327 65.192377 
L 405.153491 65.192377 
L 405.321692 65.08268 
L 405.430881 65.004029 
L 405.432788 65.004029 
L 405.558399 64.894332 
L 405.669289 64.807402 
L 405.66933 64.807402 
L 405.843295 64.697704 
L 405.947466 64.629402 
L 405.954391 64.629402 
L 406.131839 64.519705 
L 406.24024 64.443124 
L 406.242936 64.443124 
L 406.415407 64.333427 
L 406.528038 64.252706 
L 406.685332 64.143009 
L 406.796387 64.018823 
L 406.939001 63.909126 
L 407.048812 63.826336 
L 407.050098 63.826336 
L 407.189145 63.716638 
L 407.298624 63.61729 
L 407.300241 63.61729 
L 407.450776 63.507593 
L 407.559882 63.437221 
L 407.561789 63.437221 
L 407.712158 63.327524 
L 407.818568 63.257152 
L 407.823171 63.257152 
L 407.964292 63.147454 
L 408.074684 63.035687 
L 408.075389 63.035687 
L 408.23318 62.92599 
L 408.337807 62.8432 
L 408.344277 62.8432 
L 408.484029 62.733503 
L 408.589361 62.625875 
L 408.595126 62.625875 
L 408.721027 62.516178 
L 408.829843 62.433387 
L 408.832082 62.433387 
L 408.939446 62.32369 
L 409.046355 62.253318 
L 409.050543 62.253318 
L 409.190751 62.143621 
L 409.301848 62.054621 
L 409.441766 61.944924 
L 409.55166 61.845576 
L 409.552656 61.845576 
L 409.691039 61.735878 
L 409.800353 61.611693 
L 409.802136 61.611693 
L 409.930442 61.501996 
L 410.039922 61.386089 
L 410.041456 61.386089 
L 410.156285 61.276392 
L 410.266387 61.177043 
L 410.267382 61.177043 
L 410.378105 61.067346 
L 410.378105 61.066311 
L 410.493847 60.94523 
L 410.634635 60.835533 
L 410.745732 60.711347 
L 410.844139 60.60165 
L 410.95395 60.460906 
L 410.955111 60.460906 
L 411.073009 60.351209 
L 411.17772 60.229093 
L 411.184064 60.229093 
L 411.291844 60.119396 
L 411.40294 59.993141 
L 411.490399 59.883444 
L 411.598054 59.794444 
L 411.601413 59.794444 
L 411.707036 59.684747 
L 411.816391 59.587468 
L 411.818133 59.587468 
L 411.900698 59.477771 
L 412.011173 59.339097 
L 412.011795 59.339097 
L 412.096144 59.229399 
L 412.205499 59.096935 
L 412.207241 59.096935 
L 412.2648 58.987238 
L 412.374528 58.850633 
L 412.375897 58.850633 
L 412.468208 58.740936 
L 412.575946 58.589844 
L 412.57918 58.589844 
L 412.639601 58.480146 
L 412.747961 58.283519 
L 412.750656 58.283519 
L 412.825426 58.173822 
L 412.93503 57.962707 
L 412.936232 57.962707 
L 413.030244 57.853009 
L 413.14134 57.67087 
L 413.204249 57.561173 
L 413.312485 57.364546 
L 413.315097 57.364546 
L 413.370832 57.254849 
L 413.479482 57.060291 
L 413.481929 57.060291 
L 413.540525 56.950594 
L 413.650668 56.747758 
L 413.651622 56.747758 
L 413.710301 56.63806 
L 413.821357 56.412457 
L 413.821398 56.412457 
L 413.871493 56.302759 
L 413.981056 56.068876 
L 413.98259 56.068876 
L 414.044711 55.959179 
L 414.155725 55.677692 
L 414.155766 55.677692 
L 414.199931 55.567995 
L 414.313931 55.276159 
L 414.346816 55.166461 
L 414.457747 54.845649 
L 414.457871 54.845649 
L 414.503986 54.735951 
L 414.613797 54.433766 
L 414.614958 54.433766 
L 414.656469 54.324069 
L 414.72 54.144 
L 414.72 54.144 
" clip-path="url(#pb083fa1ed7)" style="fill: none; stroke: #ff8c00; stroke-width: 1.5; stroke-linecap: square"/>
   </g>
   <g id="line2d_14">
    <path d="M 74.605714 307.584 
L 414.72 54.144 
" clip-path="url(#pb083fa1ed7)" style="fill: none; stroke-dasharray: 5.55,2.4; stroke-dashoffset: 0; stroke: #0000ff; stroke-width: 1.5"/>
   </g>
   <g id="patch_3">
    <path d="M 57.6 307.584 
L 57.6 41.472 
" style="fill: none; stroke: #000000; stroke-width: 0.8; stroke-linejoin: miter; stroke-linecap: square"/>
   </g>
   <g id="patch_4">
    <path d="M 414.72 307.584 
L 414.72 41.472 
" style="fill: none; stroke: #000000; stroke-width: 0.8; stroke-linejoin: miter; stroke-linecap: square"/>
   </g>
   <g id="patch_5">
    <path d="M 57.6 307.584 
L 414.72 307.584 
" style="fill: none; stroke: #000000; stroke-width: 0.8; stroke-linejoin: miter; stroke-linecap: square"/>
   </g>
   <g id="patch_6">
    <path d="M 57.6 41.472 
L 414.72 41.472 
" style="fill: none; stroke: #000000; stroke-width: 0.8; stroke-linejoin: miter; stroke-linecap: square"/>
   </g>
   <g id="text_15">
    <!-- ROC CURVE -->
    <g transform="translate(200.855625 35.472)scale(0.12 -0.12)">
     <defs>
      <path id="DejaVuSans-4f" d="M 2522 4238 
Q 1834 4238 1429 3725 
Q 1025 3213 1025 2328 
Q 1025 1447 1429 934 
Q 1834 422 2522 422 
Q 3209 422 3611 934 
Q 4013 1447 4013 2328 
Q 4013 3213 3611 3725 
Q 3209 4238 2522 4238 
z
M 2522 4750 
Q 3503 4750 4090 4092 
Q 4678 3434 4678 2328 
Q 4678 1225 4090 567 
Q 3503 -91 2522 -91 
Q 1538 -91 948 565 
Q 359 1222 359 2328 
Q 359 3434 948 4092 
Q 1538 4750 2522 4750 
z
" transform="scale(0.015625)"/>
      <path id="DejaVuSans-43" d="M 4122 4306 
L 4122 3641 
Q 3803 3938 3442 4084 
Q 3081 4231 2675 4231 
Q 1875 4231 1450 3742 
Q 1025 3253 1025 2328 
Q 1025 1406 1450 917 
Q 1875 428 2675 428 
Q 3081 428 3442 575 
Q 3803 722 4122 1019 
L 4122 359 
Q 3791 134 3420 21 
Q 3050 -91 2638 -91 
Q 1578 -91 968 557 
Q 359 1206 359 2328 
Q 359 3453 968 4101 
Q 1578 4750 2638 4750 
Q 3056 4750 3426 4639 
Q 3797 4528 4122 4306 
z
" transform="scale(0.015625)"/>
      <path id="DejaVuSans-55" d="M 556 4666 
L 1191 4666 
L 1191 1831 
Q 1191 1081 1462 751 
Q 1734 422 2344 422 
Q 2950 422 3222 751 
Q 3494 1081 3494 1831 
L 3494 4666 
L 4128 4666 
L 4128 1753 
Q 4128 841 3676 375 
Q 3225 -91 2344 -91 
Q 1459 -91 1007 375 
Q 556 841 556 1753 
L 556 4666 
z
" transform="scale(0.015625)"/>
      <path id="DejaVuSans-56" d="M 1831 0 
L 50 4666 
L 709 4666 
L 2188 738 
L 3669 4666 
L 4325 4666 
L 2547 0 
L 1831 0 
z
" transform="scale(0.015625)"/>
      <path id="DejaVuSans-45" d="M 628 4666 
L 3578 4666 
L 3578 4134 
L 1259 4134 
L 1259 2753 
L 3481 2753 
L 3481 2222 
L 1259 2222 
L 1259 531 
L 3634 531 
L 3634 0 
L 628 0 
L 628 4666 
z
" transform="scale(0.015625)"/>
     </defs>
     <use xlink:href="#DejaVuSans-52"/>
     <use xlink:href="#DejaVuSans-4f" x="69.482422"/>
     <use xlink:href="#DejaVuSans-43" x="148.193359"/>
     <use xlink:href="#DejaVuSans-20" x="218.017578"/>
     <use xlink:href="#DejaVuSans-43" x="249.804688"/>
     <use xlink:href="#DejaVuSans-55" x="319.628906"/>
     <use xlink:href="#DejaVuSans-52" x="392.822266"/>
     <use xlink:href="#DejaVuSans-56" x="456.804688"/>
     <use xlink:href="#DejaVuSans-45" x="525.212891"/>
    </g>
   </g>
   <g id="legend_1">
    <g id="patch_7">
     <path d="M 234.97 302.584 
L 407.72 302.584 
Q 409.72 302.584 409.72 300.584 
L 409.72 286.905875 
Q 409.72 284.905875 407.72 284.905875 
L 234.97 284.905875 
Q 232.97 284.905875 232.97 286.905875 
L 232.97 300.584 
Q 232.97 302.584 234.97 302.584 
z
" style="fill: #ffffff; opacity: 0.8; stroke: #cccccc; stroke-linejoin: miter"/>
    </g>
    <g id="line2d_15">
     <path d="M 236.97 293.004312 
L 246.97 293.004312 
L 256.97 293.004312 
" style="fill: none; stroke: #ff8c00; stroke-width: 1.5; stroke-linecap: square"/>
    </g>
    <g id="text_16">
     <!-- ROC curve (ROC AUC=0.74) -->
     <g transform="translate(264.97 296.504312)scale(0.1 -0.1)">
      <defs>
       <path id="DejaVuSans-63" d="M 3122 3366 
L 3122 2828 
Q 2878 2963 2633 3030 
Q 2388 3097 2138 3097 
Q 1578 3097 1268 2742 
Q 959 2388 959 1747 
Q 959 1106 1268 751 
Q 1578 397 2138 397 
Q 2388 397 2633 464 
Q 2878 531 3122 666 
L 3122 134 
Q 2881 22 2623 -34 
Q 2366 -91 2075 -91 
Q 1284 -91 818 406 
Q 353 903 353 1747 
Q 353 2603 823 3093 
Q 1294 3584 2113 3584 
Q 2378 3584 2631 3529 
Q 2884 3475 3122 3366 
z
" transform="scale(0.015625)"/>
       <path id="DejaVuSans-28" d="M 1984 4856 
Q 1566 4138 1362 3434 
Q 1159 2731 1159 2009 
Q 1159 1288 1364 580 
Q 1569 -128 1984 -844 
L 1484 -844 
Q 1016 -109 783 600 
Q 550 1309 550 2009 
Q 550 2706 781 3412 
Q 1013 4119 1484 4856 
L 1984 4856 
z
" transform="scale(0.015625)"/>
       <path id="DejaVuSans-41" d="M 2188 4044 
L 1331 1722 
L 3047 1722 
L 2188 4044 
z
M 1831 4666 
L 2547 4666 
L 4325 0 
L 3669 0 
L 3244 1197 
L 1141 1197 
L 716 0 
L 50 0 
L 1831 4666 
z
" transform="scale(0.015625)"/>
       <path id="DejaVuSans-3d" d="M 678 2906 
L 4684 2906 
L 4684 2381 
L 678 2381 
L 678 2906 
z
M 678 1631 
L 4684 1631 
L 4684 1100 
L 678 1100 
L 678 1631 
z
" transform="scale(0.015625)"/>
       <path id="DejaVuSans-37" d="M 525 4666 
L 3525 4666 
L 3525 4397 
L 1831 0 
L 1172 0 
L 2766 4134 
L 525 4134 
L 525 4666 
z
" transform="scale(0.015625)"/>
       <path id="DejaVuSans-29" d="M 513 4856 
L 1013 4856 
Q 1481 4119 1714 3412 
Q 1947 2706 1947 2009 
Q 1947 1309 1714 600 
Q 1481 -109 1013 -844 
L 513 -844 
Q 928 -128 1133 580 
Q 1338 1288 1338 2009 
Q 1338 2731 1133 3434 
Q 928 4138 513 4856 
z
" transform="scale(0.015625)"/>
      </defs>
      <use xlink:href="#DejaVuSans-52"/>
      <use xlink:href="#DejaVuSans-4f" x="69.482422"/>
      <use xlink:href="#DejaVuSans-43" x="148.193359"/>
      <use xlink:href="#DejaVuSans-20" x="218.017578"/>
      <use xlink:href="#DejaVuSans-63" x="249.804688"/>
      <use xlink:href="#DejaVuSans-75" x="304.785156"/>
      <use xlink:href="#DejaVuSans-72" x="368.164062"/>
      <use xlink:href="#DejaVuSans-76" x="409.277344"/>
      <use xlink:href="#DejaVuSans-65" x="468.457031"/>
      <use xlink:href="#DejaVuSans-20" x="529.980469"/>
      <use xlink:href="#DejaVuSans-28" x="561.767578"/>
      <use xlink:href="#DejaVuSans-52" x="600.78125"/>
      <use xlink:href="#DejaVuSans-4f" x="670.263672"/>
      <use xlink:href="#DejaVuSans-43" x="748.974609"/>
      <use xlink:href="#DejaVuSans-20" x="818.798828"/>
      <use xlink:href="#DejaVuSans-41" x="850.585938"/>
      <use xlink:href="#DejaVuSans-55" x="918.994141"/>
      <use xlink:href="#DejaVuSans-43" x="992.1875"/>
      <use xlink:href="#DejaVuSans-3d" x="1062.011719"/>
      <use xlink:href="#DejaVuSans-30" x="1145.800781"/>
      <use xlink:href="#DejaVuSans-2e" x="1209.423828"/>
      <use xlink:href="#DejaVuSans-37" x="1241.210938"/>
      <use xlink:href="#DejaVuSans-34" x="1304.833984"/>
      <use xlink:href="#DejaVuSans-29" x="1368.457031"/>
     </g>
    </g>
   </g>
  </g>
 </g>
 <defs>
  <clipPath id="pb083fa1ed7">
   <rect x="57.6" y="41.472" width="357.12" height="266.112"/>
  </clipPath>
 </defs>
</svg>
