<?xml version="1.0" encoding="utf-8" standalone="no"?>
<!DOCTYPE svg PUBLIC "-//W3C//DTD SVG 1.1//EN"
  "http://www.w3.org/Graphics/SVG/1.1/DTD/svg11.dtd">
<svg xmlns:xlink="http://www.w3.org/1999/xlink" width="460.8pt" height="345.6pt" viewBox="0 0 460.8 345.6" xmlns="http://www.w3.org/2000/svg" version="1.1">
 <metadata>
  <rdf:RDF xmlns:dc="http://purl.org/dc/elements/1.1/" xmlns:cc="http://creativecommons.org/ns#" xmlns:rdf="http://www.w3.org/1999/02/22-rdf-syntax-ns#">
   <cc:Work>
    <dc:type rdf:resource="http://purl.org/dc/dcmitype/StillImage"/>
    <dc:date>2022-05-25T07:41:21.078733</dc:date>
    <dc:format>image/svg+xml</dc:format>
    <dc:creator>
     <cc:Agent>
      <dc:title>Matplotlib v3.5.1, https://matplotlib.org/</dc:title>
     </cc:Agent>
    </dc:creator>
   </cc:Work>
  </rdf:RDF>
 </metadata>
 <defs>
  <style type="text/css">*{stroke-linejoin: round; stroke-linecap: butt}</style>
 </defs>
 <g id="figure_1">
  <g id="patch_1">
   <path d="M 0 345.6 
L 460.8 345.6 
L 460.8 0 
L 0 0 
z
" style="fill: #ffffff"/>
  </g>
  <g id="axes_1">
   <g id="patch_2">
    <path d="M 57.6 307.584 
L 414.72 307.584 
L 414.72 41.472 
L 57.6 41.472 
z
" style="fill: #ffffff"/>
   </g>
   <g id="matplotlib.axis_1">
    <g id="xtick_1">
     <g id="line2d_1">
      <defs>
       <path id="m8ebd29987c" d="M 0 0 
L 0 3.5 
" style="stroke: #000000; stroke-width: 0.8"/>
      </defs>
      <g>
       <use xlink:href="#m8ebd29987c" x="74.605714" y="307.584" style="stroke: #000000; stroke-width: 0.8"/>
      </g>
     </g>
     <g id="text_1">
      <!-- 0.0 -->
      <g transform="translate(66.654152 322.182437)scale(0.1 -0.1)">
       <defs>
        <path id="DejaVuSans-30" d="M 2034 4250 
Q 1547 4250 1301 3770 
Q 1056 3291 1056 2328 
Q 1056 1369 1301 889 
Q 1547 409 2034 409 
Q 2525 409 2770 889 
Q 3016 1369 3016 2328 
Q 3016 3291 2770 3770 
Q 2525 4250 2034 4250 
z
M 2034 4750 
Q 2819 4750 3233 4129 
Q 3647 3509 3647 2328 
Q 3647 1150 3233 529 
Q 2819 -91 2034 -91 
Q 1250 -91 836 529 
Q 422 1150 422 2328 
Q 422 3509 836 4129 
Q 1250 4750 2034 4750 
z
" transform="scale(0.015625)"/>
        <path id="DejaVuSans-2e" d="M 684 794 
L 1344 794 
L 1344 0 
L 684 0 
L 684 794 
z
" transform="scale(0.015625)"/>
       </defs>
       <use xlink:href="#DejaVuSans-30"/>
       <use xlink:href="#DejaVuSans-2e" x="63.623047"/>
       <use xlink:href="#DejaVuSans-30" x="95.410156"/>
      </g>
     </g>
    </g>
    <g id="xtick_2">
     <g id="line2d_2">
      <g>
       <use xlink:href="#m8ebd29987c" x="142.628571" y="307.584" style="stroke: #000000; stroke-width: 0.8"/>
      </g>
     </g>
     <g id="text_2">
      <!-- 0.2 -->
      <g transform="translate(134.677009 322.182437)scale(0.1 -0.1)">
       <defs>
        <path id="DejaVuSans-32" d="M 1228 531 
L 3431 531 
L 3431 0 
L 469 0 
L 469 531 
Q 828 903 1448 1529 
Q 2069 2156 2228 2338 
Q 2531 2678 2651 2914 
Q 2772 3150 2772 3378 
Q 2772 3750 2511 3984 
Q 2250 4219 1831 4219 
Q 1534 4219 1204 4116 
Q 875 4013 500 3803 
L 500 4441 
Q 881 4594 1212 4672 
Q 1544 4750 1819 4750 
Q 2544 4750 2975 4387 
Q 3406 4025 3406 3419 
Q 3406 3131 3298 2873 
Q 3191 2616 2906 2266 
Q 2828 2175 2409 1742 
Q 1991 1309 1228 531 
z
" transform="scale(0.015625)"/>
       </defs>
       <use xlink:href="#DejaVuSans-30"/>
       <use xlink:href="#DejaVuSans-2e" x="63.623047"/>
       <use xlink:href="#DejaVuSans-32" x="95.410156"/>
      </g>
     </g>
    </g>
    <g id="xtick_3">
     <g id="line2d_3">
      <g>
       <use xlink:href="#m8ebd29987c" x="210.651429" y="307.584" style="stroke: #000000; stroke-width: 0.8"/>
      </g>
     </g>
     <g id="text_3">
      <!-- 0.4 -->
      <g transform="translate(202.699866 322.182437)scale(0.1 -0.1)">
       <defs>
        <path id="DejaVuSans-34" d="M 2419 4116 
L 825 1625 
L 2419 1625 
L 2419 4116 
z
M 2253 4666 
L 3047 4666 
L 3047 1625 
L 3713 1625 
L 3713 1100 
L 3047 1100 
L 3047 0 
L 2419 0 
L 2419 1100 
L 313 1100 
L 313 1709 
L 2253 4666 
z
" transform="scale(0.015625)"/>
       </defs>
       <use xlink:href="#DejaVuSans-30"/>
       <use xlink:href="#DejaVuSans-2e" x="63.623047"/>
       <use xlink:href="#DejaVuSans-34" x="95.410156"/>
      </g>
     </g>
    </g>
    <g id="xtick_4">
     <g id="line2d_4">
      <g>
       <use xlink:href="#m8ebd29987c" x="278.674286" y="307.584" style="stroke: #000000; stroke-width: 0.8"/>
      </g>
     </g>
     <g id="text_4">
      <!-- 0.6 -->
      <g transform="translate(270.722723 322.182437)scale(0.1 -0.1)">
       <defs>
        <path id="DejaVuSans-36" d="M 2113 2584 
Q 1688 2584 1439 2293 
Q 1191 2003 1191 1497 
Q 1191 994 1439 701 
Q 1688 409 2113 409 
Q 2538 409 2786 701 
Q 3034 994 3034 1497 
Q 3034 2003 2786 2293 
Q 2538 2584 2113 2584 
z
M 3366 4563 
L 3366 3988 
Q 3128 4100 2886 4159 
Q 2644 4219 2406 4219 
Q 1781 4219 1451 3797 
Q 1122 3375 1075 2522 
Q 1259 2794 1537 2939 
Q 1816 3084 2150 3084 
Q 2853 3084 3261 2657 
Q 3669 2231 3669 1497 
Q 3669 778 3244 343 
Q 2819 -91 2113 -91 
Q 1303 -91 875 529 
Q 447 1150 447 2328 
Q 447 3434 972 4092 
Q 1497 4750 2381 4750 
Q 2619 4750 2861 4703 
Q 3103 4656 3366 4563 
z
" transform="scale(0.015625)"/>
       </defs>
       <use xlink:href="#DejaVuSans-30"/>
       <use xlink:href="#DejaVuSans-2e" x="63.623047"/>
       <use xlink:href="#DejaVuSans-36" x="95.410156"/>
      </g>
     </g>
    </g>
    <g id="xtick_5">
     <g id="line2d_5">
      <g>
       <use xlink:href="#m8ebd29987c" x="346.697143" y="307.584" style="stroke: #000000; stroke-width: 0.8"/>
      </g>
     </g>
     <g id="text_5">
      <!-- 0.8 -->
      <g transform="translate(338.74558 322.182437)scale(0.1 -0.1)">
       <defs>
        <path id="DejaVuSans-38" d="M 2034 2216 
Q 1584 2216 1326 1975 
Q 1069 1734 1069 1313 
Q 1069 891 1326 650 
Q 1584 409 2034 409 
Q 2484 409 2743 651 
Q 3003 894 3003 1313 
Q 3003 1734 2745 1975 
Q 2488 2216 2034 2216 
z
M 1403 2484 
Q 997 2584 770 2862 
Q 544 3141 544 3541 
Q 544 4100 942 4425 
Q 1341 4750 2034 4750 
Q 2731 4750 3128 4425 
Q 3525 4100 3525 3541 
Q 3525 3141 3298 2862 
Q 3072 2584 2669 2484 
Q 3125 2378 3379 2068 
Q 3634 1759 3634 1313 
Q 3634 634 3220 271 
Q 2806 -91 2034 -91 
Q 1263 -91 848 271 
Q 434 634 434 1313 
Q 434 1759 690 2068 
Q 947 2378 1403 2484 
z
M 1172 3481 
Q 1172 3119 1398 2916 
Q 1625 2713 2034 2713 
Q 2441 2713 2670 2916 
Q 2900 3119 2900 3481 
Q 2900 3844 2670 4047 
Q 2441 4250 2034 4250 
Q 1625 4250 1398 4047 
Q 1172 3844 1172 3481 
z
" transform="scale(0.015625)"/>
       </defs>
       <use xlink:href="#DejaVuSans-30"/>
       <use xlink:href="#DejaVuSans-2e" x="63.623047"/>
       <use xlink:href="#DejaVuSans-38" x="95.410156"/>
      </g>
     </g>
    </g>
    <g id="xtick_6">
     <g id="line2d_6">
      <g>
       <use xlink:href="#m8ebd29987c" x="414.72" y="307.584" style="stroke: #000000; stroke-width: 0.8"/>
      </g>
     </g>
     <g id="text_6">
      <!-- 1.0 -->
      <g transform="translate(406.768438 322.182437)scale(0.1 -0.1)">
       <defs>
        <path id="DejaVuSans-31" d="M 794 531 
L 1825 531 
L 1825 4091 
L 703 3866 
L 703 4441 
L 1819 4666 
L 2450 4666 
L 2450 531 
L 3481 531 
L 3481 0 
L 794 0 
L 794 531 
z
" transform="scale(0.015625)"/>
       </defs>
       <use xlink:href="#DejaVuSans-31"/>
       <use xlink:href="#DejaVuSans-2e" x="63.623047"/>
       <use xlink:href="#DejaVuSans-30" x="95.410156"/>
      </g>
     </g>
    </g>
    <g id="text_7">
     <!-- False Positive Rate -->
     <g transform="translate(189.693594 335.860562)scale(0.1 -0.1)">
      <defs>
       <path id="DejaVuSans-46" d="M 628 4666 
L 3309 4666 
L 3309 4134 
L 1259 4134 
L 1259 2759 
L 3109 2759 
L 3109 2228 
L 1259 2228 
L 1259 0 
L 628 0 
L 628 4666 
z
" transform="scale(0.015625)"/>
       <path id="DejaVuSans-61" d="M 2194 1759 
Q 1497 1759 1228 1600 
Q 959 1441 959 1056 
Q 959 750 1161 570 
Q 1363 391 1709 391 
Q 2188 391 2477 730 
Q 2766 1069 2766 1631 
L 2766 1759 
L 2194 1759 
z
M 3341 1997 
L 3341 0 
L 2766 0 
L 2766 531 
Q 2569 213 2275 61 
Q 1981 -91 1556 -91 
Q 1019 -91 701 211 
Q 384 513 384 1019 
Q 384 1609 779 1909 
Q 1175 2209 1959 2209 
L 2766 2209 
L 2766 2266 
Q 2766 2663 2505 2880 
Q 2244 3097 1772 3097 
Q 1472 3097 1187 3025 
Q 903 2953 641 2809 
L 641 3341 
Q 956 3463 1253 3523 
Q 1550 3584 1831 3584 
Q 2591 3584 2966 3190 
Q 3341 2797 3341 1997 
z
" transform="scale(0.015625)"/>
       <path id="DejaVuSans-6c" d="M 603 4863 
L 1178 4863 
L 1178 0 
L 603 0 
L 603 4863 
z
" transform="scale(0.015625)"/>
       <path id="DejaVuSans-73" d="M 2834 3397 
L 2834 2853 
Q 2591 2978 2328 3040 
Q 2066 3103 1784 3103 
Q 1356 3103 1142 2972 
Q 928 2841 928 2578 
Q 928 2378 1081 2264 
Q 1234 2150 1697 2047 
L 1894 2003 
Q 2506 1872 2764 1633 
Q 3022 1394 3022 966 
Q 3022 478 2636 193 
Q 2250 -91 1575 -91 
Q 1294 -91 989 -36 
Q 684 19 347 128 
L 347 722 
Q 666 556 975 473 
Q 1284 391 1588 391 
Q 1994 391 2212 530 
Q 2431 669 2431 922 
Q 2431 1156 2273 1281 
Q 2116 1406 1581 1522 
L 1381 1569 
Q 847 1681 609 1914 
Q 372 2147 372 2553 
Q 372 3047 722 3315 
Q 1072 3584 1716 3584 
Q 2034 3584 2315 3537 
Q 2597 3491 2834 3397 
z
" transform="scale(0.015625)"/>
       <path id="DejaVuSans-65" d="M 3597 1894 
L 3597 1613 
L 953 1613 
Q 991 1019 1311 708 
Q 1631 397 2203 397 
Q 2534 397 2845 478 
Q 3156 559 3463 722 
L 3463 178 
Q 3153 47 2828 -22 
Q 2503 -91 2169 -91 
Q 1331 -91 842 396 
Q 353 884 353 1716 
Q 353 2575 817 3079 
Q 1281 3584 2069 3584 
Q 2775 3584 3186 3129 
Q 3597 2675 3597 1894 
z
M 3022 2063 
Q 3016 2534 2758 2815 
Q 2500 3097 2075 3097 
Q 1594 3097 1305 2825 
Q 1016 2553 972 2059 
L 3022 2063 
z
" transform="scale(0.015625)"/>
       <path id="DejaVuSans-20" transform="scale(0.015625)"/>
       <path id="DejaVuSans-50" d="M 1259 4147 
L 1259 2394 
L 2053 2394 
Q 2494 2394 2734 2622 
Q 2975 2850 2975 3272 
Q 2975 3691 2734 3919 
Q 2494 4147 2053 4147 
L 1259 4147 
z
M 628 4666 
L 2053 4666 
Q 2838 4666 3239 4311 
Q 3641 3956 3641 3272 
Q 3641 2581 3239 2228 
Q 2838 1875 2053 1875 
L 1259 1875 
L 1259 0 
L 628 0 
L 628 4666 
z
" transform="scale(0.015625)"/>
       <path id="DejaVuSans-6f" d="M 1959 3097 
Q 1497 3097 1228 2736 
Q 959 2375 959 1747 
Q 959 1119 1226 758 
Q 1494 397 1959 397 
Q 2419 397 2687 759 
Q 2956 1122 2956 1747 
Q 2956 2369 2687 2733 
Q 2419 3097 1959 3097 
z
M 1959 3584 
Q 2709 3584 3137 3096 
Q 3566 2609 3566 1747 
Q 3566 888 3137 398 
Q 2709 -91 1959 -91 
Q 1206 -91 779 398 
Q 353 888 353 1747 
Q 353 2609 779 3096 
Q 1206 3584 1959 3584 
z
" transform="scale(0.015625)"/>
       <path id="DejaVuSans-69" d="M 603 3500 
L 1178 3500 
L 1178 0 
L 603 0 
L 603 3500 
z
M 603 4863 
L 1178 4863 
L 1178 4134 
L 603 4134 
L 603 4863 
z
" transform="scale(0.015625)"/>
       <path id="DejaVuSans-74" d="M 1172 4494 
L 1172 3500 
L 2356 3500 
L 2356 3053 
L 1172 3053 
L 1172 1153 
Q 1172 725 1289 603 
Q 1406 481 1766 481 
L 2356 481 
L 2356 0 
L 1766 0 
Q 1100 0 847 248 
Q 594 497 594 1153 
L 594 3053 
L 172 3053 
L 172 3500 
L 594 3500 
L 594 4494 
L 1172 4494 
z
" transform="scale(0.015625)"/>
       <path id="DejaVuSans-76" d="M 191 3500 
L 800 3500 
L 1894 563 
L 2988 3500 
L 3597 3500 
L 2284 0 
L 1503 0 
L 191 3500 
z
" transform="scale(0.015625)"/>
       <path id="DejaVuSans-52" d="M 2841 2188 
Q 3044 2119 3236 1894 
Q 3428 1669 3622 1275 
L 4263 0 
L 3584 0 
L 2988 1197 
Q 2756 1666 2539 1819 
Q 2322 1972 1947 1972 
L 1259 1972 
L 1259 0 
L 628 0 
L 628 4666 
L 2053 4666 
Q 2853 4666 3247 4331 
Q 3641 3997 3641 3322 
Q 3641 2881 3436 2590 
Q 3231 2300 2841 2188 
z
M 1259 4147 
L 1259 2491 
L 2053 2491 
Q 2509 2491 2742 2702 
Q 2975 2913 2975 3322 
Q 2975 3731 2742 3939 
Q 2509 4147 2053 4147 
L 1259 4147 
z
" transform="scale(0.015625)"/>
      </defs>
      <use xlink:href="#DejaVuSans-46"/>
      <use xlink:href="#DejaVuSans-61" x="48.394531"/>
      <use xlink:href="#DejaVuSans-6c" x="109.673828"/>
      <use xlink:href="#DejaVuSans-73" x="137.457031"/>
      <use xlink:href="#DejaVuSans-65" x="189.556641"/>
      <use xlink:href="#DejaVuSans-20" x="251.080078"/>
      <use xlink:href="#DejaVuSans-50" x="282.867188"/>
      <use xlink:href="#DejaVuSans-6f" x="339.544922"/>
      <use xlink:href="#DejaVuSans-73" x="400.726562"/>
      <use xlink:href="#DejaVuSans-69" x="452.826172"/>
      <use xlink:href="#DejaVuSans-74" x="480.609375"/>
      <use xlink:href="#DejaVuSans-69" x="519.818359"/>
      <use xlink:href="#DejaVuSans-76" x="547.601562"/>
      <use xlink:href="#DejaVuSans-65" x="606.78125"/>
      <use xlink:href="#DejaVuSans-20" x="668.304688"/>
      <use xlink:href="#DejaVuSans-52" x="700.091797"/>
      <use xlink:href="#DejaVuSans-61" x="767.324219"/>
      <use xlink:href="#DejaVuSans-74" x="828.603516"/>
      <use xlink:href="#DejaVuSans-65" x="867.8125"/>
     </g>
    </g>
   </g>
   <g id="matplotlib.axis_2">
    <g id="ytick_1">
     <g id="line2d_7">
      <defs>
       <path id="ma36dcbc020" d="M 0 0 
L -3.5 0 
" style="stroke: #000000; stroke-width: 0.8"/>
      </defs>
      <g>
       <use xlink:href="#ma36dcbc020" x="57.6" y="307.584" style="stroke: #000000; stroke-width: 0.8"/>
      </g>
     </g>
     <g id="text_8">
      <!-- 0.0 -->
      <g transform="translate(34.696875 311.383219)scale(0.1 -0.1)">
       <use xlink:href="#DejaVuSans-30"/>
       <use xlink:href="#DejaVuSans-2e" x="63.623047"/>
       <use xlink:href="#DejaVuSans-30" x="95.410156"/>
      </g>
     </g>
    </g>
    <g id="ytick_2">
     <g id="line2d_8">
      <g>
       <use xlink:href="#ma36dcbc020" x="57.6" y="256.896" style="stroke: #000000; stroke-width: 0.8"/>
      </g>
     </g>
     <g id="text_9">
      <!-- 0.2 -->
      <g transform="translate(34.696875 260.695219)scale(0.1 -0.1)">
       <use xlink:href="#DejaVuSans-30"/>
       <use xlink:href="#DejaVuSans-2e" x="63.623047"/>
       <use xlink:href="#DejaVuSans-32" x="95.410156"/>
      </g>
     </g>
    </g>
    <g id="ytick_3">
     <g id="line2d_9">
      <g>
       <use xlink:href="#ma36dcbc020" x="57.6" y="206.208" style="stroke: #000000; stroke-width: 0.8"/>
      </g>
     </g>
     <g id="text_10">
      <!-- 0.4 -->
      <g transform="translate(34.696875 210.007219)scale(0.1 -0.1)">
       <use xlink:href="#DejaVuSans-30"/>
       <use xlink:href="#DejaVuSans-2e" x="63.623047"/>
       <use xlink:href="#DejaVuSans-34" x="95.410156"/>
      </g>
     </g>
    </g>
    <g id="ytick_4">
     <g id="line2d_10">
      <g>
       <use xlink:href="#ma36dcbc020" x="57.6" y="155.52" style="stroke: #000000; stroke-width: 0.8"/>
      </g>
     </g>
     <g id="text_11">
      <!-- 0.6 -->
      <g transform="translate(34.696875 159.319219)scale(0.1 -0.1)">
       <use xlink:href="#DejaVuSans-30"/>
       <use xlink:href="#DejaVuSans-2e" x="63.623047"/>
       <use xlink:href="#DejaVuSans-36" x="95.410156"/>
      </g>
     </g>
    </g>
    <g id="ytick_5">
     <g id="line2d_11">
      <g>
       <use xlink:href="#ma36dcbc020" x="57.6" y="104.832" style="stroke: #000000; stroke-width: 0.8"/>
      </g>
     </g>
     <g id="text_12">
      <!-- 0.8 -->
      <g transform="translate(34.696875 108.631219)scale(0.1 -0.1)">
       <use xlink:href="#DejaVuSans-30"/>
       <use xlink:href="#DejaVuSans-2e" x="63.623047"/>
       <use xlink:href="#DejaVuSans-38" x="95.410156"/>
      </g>
     </g>
    </g>
    <g id="ytick_6">
     <g id="line2d_12">
      <g>
       <use xlink:href="#ma36dcbc020" x="57.6" y="54.144" style="stroke: #000000; stroke-width: 0.8"/>
      </g>
     </g>
     <g id="text_13">
      <!-- 1.0 -->
      <g transform="translate(34.696875 57.943219)scale(0.1 -0.1)">
       <use xlink:href="#DejaVuSans-31"/>
       <use xlink:href="#DejaVuSans-2e" x="63.623047"/>
       <use xlink:href="#DejaVuSans-30" x="95.410156"/>
      </g>
     </g>
    </g>
    <g id="text_14">
     <!-- True Positive Rate -->
     <g transform="translate(28.617187 219.057687)rotate(-90)scale(0.1 -0.1)">
      <defs>
       <path id="DejaVuSans-54" d="M -19 4666 
L 3928 4666 
L 3928 4134 
L 2272 4134 
L 2272 0 
L 1638 0 
L 1638 4134 
L -19 4134 
L -19 4666 
z
" transform="scale(0.015625)"/>
       <path id="DejaVuSans-72" d="M 2631 2963 
Q 2534 3019 2420 3045 
Q 2306 3072 2169 3072 
Q 1681 3072 1420 2755 
Q 1159 2438 1159 1844 
L 1159 0 
L 581 0 
L 581 3500 
L 1159 3500 
L 1159 2956 
Q 1341 3275 1631 3429 
Q 1922 3584 2338 3584 
Q 2397 3584 2469 3576 
Q 2541 3569 2628 3553 
L 2631 2963 
z
" transform="scale(0.015625)"/>
       <path id="DejaVuSans-75" d="M 544 1381 
L 544 3500 
L 1119 3500 
L 1119 1403 
Q 1119 906 1312 657 
Q 1506 409 1894 409 
Q 2359 409 2629 706 
Q 2900 1003 2900 1516 
L 2900 3500 
L 3475 3500 
L 3475 0 
L 2900 0 
L 2900 538 
Q 2691 219 2414 64 
Q 2138 -91 1772 -91 
Q 1169 -91 856 284 
Q 544 659 544 1381 
z
M 1991 3584 
L 1991 3584 
z
" transform="scale(0.015625)"/>
      </defs>
      <use xlink:href="#DejaVuSans-54"/>
      <use xlink:href="#DejaVuSans-72" x="46.333984"/>
      <use xlink:href="#DejaVuSans-75" x="87.447266"/>
      <use xlink:href="#DejaVuSans-65" x="150.826172"/>
      <use xlink:href="#DejaVuSans-20" x="212.349609"/>
      <use xlink:href="#DejaVuSans-50" x="244.136719"/>
      <use xlink:href="#DejaVuSans-6f" x="300.814453"/>
      <use xlink:href="#DejaVuSans-73" x="361.996094"/>
      <use xlink:href="#DejaVuSans-69" x="414.095703"/>
      <use xlink:href="#DejaVuSans-74" x="441.878906"/>
      <use xlink:href="#DejaVuSans-69" x="481.087891"/>
      <use xlink:href="#DejaVuSans-76" x="508.871094"/>
      <use xlink:href="#DejaVuSans-65" x="568.050781"/>
      <use xlink:href="#DejaVuSans-20" x="629.574219"/>
      <use xlink:href="#DejaVuSans-52" x="661.361328"/>
      <use xlink:href="#DejaVuSans-61" x="728.59375"/>
      <use xlink:href="#DejaVuSans-74" x="789.873047"/>
      <use xlink:href="#DejaVuSans-65" x="829.082031"/>
     </g>
    </g>
   </g>
   <g id="line2d_13">
    <path d="M 74.605714 307.584 
L 74.637936 307.474303 
L 74.748328 307.147281 
L 74.748867 307.147281 
L 74.786646 307.037583 
L 74.897286 306.735399 
L 74.897742 306.735399 
L 74.953104 306.625701 
L 75.064118 306.414586 
L 75.064201 306.414586 
L 75.13445 306.304889 
L 75.244551 306.097913 
L 75.245464 306.097913 
L 75.311691 305.988215 
L 75.422746 305.797797 
L 75.506721 305.6881 
L 75.610893 305.532868 
L 75.617818 305.532868 
L 75.696071 305.423171 
L 75.805509 305.265869 
L 75.807126 305.265869 
L 75.898608 305.156172 
L 76.008129 305.019568 
L 76.009663 305.019568 
L 76.087543 304.909871 
L 76.19781 304.787755 
L 76.198619 304.787755 
L 76.303391 304.678057 
L 76.412041 304.580779 
L 76.414405 304.580779 
L 76.501118 304.471081 
L 76.614537 304.355175 
L 76.717132 304.245478 
L 76.828105 304.13992 
L 76.955374 304.030223 
L 77.062988 303.918456 
L 77.06643 303.918456 
L 77.199795 303.808758 
L 77.31027 303.70527 
L 77.310726 303.70527 
L 77.443553 303.595573 
L 77.55324 303.498294 
L 77.554608 303.498294 
L 77.694651 303.388597 
L 77.80525 303.289249 
L 77.805747 303.289249 
L 77.947075 303.179551 
L 78.057425 303.069854 
L 78.05813 303.069854 
L 78.184737 302.960157 
L 78.293677 302.84839 
L 78.295833 302.84839 
L 78.438986 302.738693 
L 78.54917 302.664181 
L 78.550083 302.664181 
L 78.724711 302.554484 
L 78.837425 302.471694 
L 78.945453 302.361996 
L 79.058747 302.252299 
L 79.229892 302.142602 
L 79.334602 302.07223 
L 79.340947 302.07223 
L 79.491647 301.962533 
L 79.603822 301.89837 
L 79.733746 301.788673 
L 79.844303 301.699673 
L 79.844801 301.699673 
L 79.961496 301.589976 
L 80.070022 301.513395 
L 80.07251 301.513395 
L 80.2551 301.403698 
L 80.367399 301.343675 
L 80.509847 301.233977 
L 80.509847 301.232942 
L 80.619285 301.171885 
L 80.620902 301.171885 
L 80.792917 301.062187 
L 80.901153 300.989746 
L 80.903931 300.989746 
L 81.077232 300.880048 
L 81.184679 300.815886 
L 81.188267 300.815886 
L 81.361422 300.706189 
L 81.469969 300.642026 
L 81.472519 300.642026 
L 81.689467 300.532329 
L 81.801289 300.457818 
L 82.001006 300.34812 
L 82.110112 300.277748 
L 82.112103 300.277748 
L 82.274953 300.167016 
L 82.385262 300.120447 
L 82.38605 300.120447 
L 82.567106 300.010749 
L 82.675631 299.961075 
L 82.677497 299.961075 
L 82.8785 299.851378 
L 82.984662 299.791355 
L 82.989576 299.791355 
L 83.172228 299.681658 
L 83.282889 299.613356 
L 83.283035 299.613356 
L 83.537035 299.503658 
L 83.537035 299.502623 
L 83.650413 299.447775 
L 83.900059 299.338078 
L 84.005184 299.284264 
L 84.011114 299.284264 
L 84.231856 299.174567 
L 84.231856 299.173532 
L 84.345482 299.112474 
L 84.580241 299.001742 
L 84.694075 298.959312 
L 84.93974 298.849614 
L 85.043953 298.79994 
L 85.050795 298.79994 
L 85.247588 298.689208 
L 85.359494 298.638499 
L 85.590935 298.527767 
L 85.690399 298.479127 
L 85.702032 298.479127 
L 85.813667 298.441872 
L 86.008325 298.332174 
L 86.118737 298.270082 
L 86.11938 298.270082 
L 86.325276 298.160384 
L 86.436663 298.100361 
L 86.711315 297.990664 
L 86.813828 297.945129 
L 86.822371 297.945129 
L 87.081887 297.835432 
L 87.193979 297.783688 
L 87.488059 297.673991 
L 87.601623 297.613968 
L 87.923924 297.50427 
L 88.026644 297.460806 
L 88.034979 297.460806 
L 88.255058 297.350073 
L 88.368187 297.301434 
L 88.704006 297.190702 
L 88.816969 297.146202 
L 89.133464 297.03547 
L 89.243856 296.974412 
L 89.244519 296.974412 
L 89.52448 296.864715 
L 89.52448 296.86368 
L 89.637774 296.808831 
L 89.871413 296.699134 
L 89.980996 296.661878 
L 89.98251 296.661878 
L 90.268608 296.552181 
L 90.372489 296.496298 
L 90.379663 296.496298 
L 90.660909 296.3866 
L 90.77128 296.341066 
L 90.771964 296.341066 
L 91.048877 296.230333 
L 91.16074 296.187903 
L 91.44012 296.078206 
L 91.545619 296.032671 
L 91.551176 296.032671 
L 91.862155 295.922974 
L 91.975159 295.877439 
L 92.331963 295.767742 
L 92.443847 295.729452 
L 92.696811 295.618719 
L 92.810437 295.556627 
L 93.07721 295.446929 
L 93.189033 295.409674 
L 93.47652 295.298942 
L 93.593008 295.235814 
L 93.855924 295.125082 
L 93.968887 295.09714 
L 94.246027 294.986408 
L 94.358327 294.956396 
L 94.692405 294.845664 
L 94.804331 294.805304 
L 95.119374 294.695607 
L 95.231446 294.641793 
L 95.553186 294.532096 
L 95.665652 294.498979 
L 95.946441 294.389282 
L 96.059259 294.333399 
L 96.385603 294.222667 
L 96.504081 294.167818 
L 96.836293 294.058121 
L 96.943844 294.020865 
L 96.947349 294.020865 
L 97.253932 293.911168 
L 97.365775 293.873912 
L 97.715052 293.76318 
L 97.827621 293.726959 
L 98.131385 293.617262 
L 98.234747 293.561378 
L 98.24244 293.561378 
L 98.527626 293.451681 
L 98.640215 293.414425 
L 98.885507 293.304728 
L 98.998055 293.269542 
L 99.276979 293.159845 
L 99.38932 293.12052 
L 99.669736 293.010822 
L 99.776644 292.965288 
L 99.78075 292.965288 
L 100.125154 292.85559 
L 100.23596 292.814195 
L 100.236209 292.814195 
L 100.565808 292.704498 
L 100.679227 292.667242 
L 100.925017 292.557545 
L 101.037565 292.522359 
L 101.407099 292.412662 
L 101.407099 292.411627 
L 101.520228 292.362987 
L 101.845929 292.25329 
L 101.953169 292.205686 
L 101.957005 292.205686 
L 102.2306 292.094954 
L 102.343604 292.048384 
L 102.713512 291.938687 
L 102.824256 291.895222 
L 102.824547 291.895222 
L 103.192775 291.785525 
L 103.30383 291.73585 
L 103.647073 291.626153 
L 103.75535 291.586828 
L 103.758169 291.586828 
L 104.094756 291.47713 
L 104.206911 291.458503 
L 104.484051 291.348805 
L 104.586377 291.31155 
L 104.595148 291.31155 
L 104.901172 291.200817 
L 105.015109 291.156318 
L 105.342801 291.04662 
L 105.447138 291.003155 
L 105.45369 291.003155 
L 105.706384 290.893458 
L 105.818953 290.843784 
L 106.086182 290.734087 
L 106.19786 290.698901 
L 106.49532 290.589203 
L 106.607267 290.560227 
L 107.035377 290.45053 
L 107.14946 290.402925 
L 107.426434 290.292193 
L 107.528428 290.251833 
L 107.537448 290.251833 
L 107.933461 290.141101 
L 108.048103 290.111089 
L 108.320226 290.001392 
L 108.432193 289.957927 
L 108.744127 289.84823 
L 108.854809 289.810974 
L 108.855182 289.810974 
L 109.162139 289.701277 
L 109.27392 289.661951 
L 109.620128 289.552254 
L 109.726849 289.523277 
L 109.731058 289.523277 
L 110.068599 289.41358 
L 110.18009 289.370115 
L 110.520056 289.259383 
L 110.617012 289.233511 
L 110.631029 289.233511 
L 110.98269 289.123814 
L 111.094699 289.094837 
L 111.498363 288.98514 
L 111.610164 288.947884 
L 111.917909 288.838187 
L 112.033568 288.796792 
L 112.381123 288.687094 
L 112.493132 288.63949 
L 112.857856 288.529793 
L 112.970218 288.498746 
L 113.260214 288.389049 
L 113.372389 288.351793 
L 113.720608 288.242096 
L 113.832555 288.194492 
L 114.116164 288.084794 
L 114.228526 288.043399 
L 114.553087 287.932667 
L 114.667231 287.898516 
L 114.988972 287.788819 
L 115.103573 287.753633 
L 115.353696 287.642901 
L 115.467219 287.583912 
L 115.703989 287.474215 
L 115.815832 287.43282 
L 116.162351 287.322088 
L 116.274049 287.292076 
L 116.72138 287.182379 
L 116.832788 287.145123 
L 117.19635 287.035426 
L 117.307364 286.99817 
L 117.307426 286.99817 
L 117.607437 286.887438 
L 117.71107 286.851218 
L 117.718534 286.851218 
L 117.996836 286.74152 
L 117.996836 286.740485 
L 118.110317 286.704265 
L 118.44002 286.593532 
L 118.550909 286.553172 
L 118.551075 286.553172 
L 118.831305 286.443475 
L 118.945574 286.408289 
L 119.296074 286.298592 
L 119.407731 286.267545 
L 119.672057 286.156813 
L 119.783838 286.116453 
L 120.134939 286.006756 
L 120.247052 285.96743 
L 120.59328 285.857733 
L 120.705331 285.805989 
L 121.037273 285.696292 
L 121.150796 285.665245 
L 121.471355 285.555548 
L 121.585189 285.520362 
L 121.881737 285.410665 
L 121.994741 285.36513 
L 122.235845 285.254398 
L 122.352291 285.19127 
L 122.689064 285.081573 
L 122.79788 285.044317 
L 122.799954 285.044317 
L 123.158457 284.93462 
L 123.276127 284.907713 
L 123.543833 284.796981 
L 123.654391 284.752481 
L 123.65493 284.752481 
L 123.938871 284.642784 
L 124.038813 284.603459 
L 124.049968 284.603459 
L 124.162765 284.562063 
L 124.568419 284.452366 
L 124.686317 284.396483 
L 125.022137 284.286785 
L 125.134125 284.237111 
L 125.454601 284.127414 
L 125.566216 284.098437 
L 125.923393 283.98874 
L 126.034821 283.947345 
L 126.449847 283.837647 
L 126.563847 283.792113 
L 126.997079 283.681381 
L 127.111203 283.64723 
L 127.363959 283.536497 
L 127.480094 283.498207 
L 127.797273 283.38851 
L 127.909282 283.340905 
L 128.236228 283.230173 
L 128.348154 283.189813 
L 128.675327 283.080115 
L 128.787855 283.034581 
L 129.047163 282.923849 
L 129.142875 282.869 
L 129.158053 282.869 
L 129.533227 282.759303 
L 129.647392 282.711698 
L 130.005357 282.602001 
L 130.118278 282.575094 
L 130.439418 282.465397 
L 130.551012 282.432281 
L 130.817039 282.321549 
L 130.930499 282.285328 
L 131.143694 282.17563 
L 131.257486 282.134235 
L 131.658164 282.024538 
L 131.762211 281.981073 
L 131.769198 281.981073 
L 132.080779 281.871376 
L 132.194157 281.83619 
L 132.480089 281.726493 
L 132.592015 281.680958 
L 132.924227 281.570226 
L 133.038351 281.536075 
L 133.343607 281.426377 
L 133.456778 281.382913 
L 133.815696 281.273215 
L 133.928451 281.23389 
L 134.217867 281.124193 
L 134.329274 281.093146 
L 134.752989 280.983449 
L 134.860726 280.942054 
L 134.864085 280.942054 
L 135.176351 280.832356 
L 135.288235 280.793031 
L 135.584161 280.682299 
L 135.699073 280.637799 
L 135.967629 280.527067 
L 136.081774 280.492916 
L 136.384024 280.383219 
L 136.498522 280.350102 
L 136.828059 280.240405 
L 136.941478 280.19694 
L 137.222661 280.087243 
L 137.222661 280.086208 
L 137.336495 280.052057 
L 137.700721 279.94236 
L 137.81497 279.892686 
L 138.139095 279.782988 
L 138.139095 279.781953 
L 138.259315 279.712616 
L 138.652155 279.602919 
L 138.77026 279.551175 
L 139.071101 279.441478 
L 139.187029 279.391804 
L 139.500206 279.282106 
L 139.612464 279.222083 
L 140.020959 279.112386 
L 140.135104 279.070991 
L 140.426178 278.960259 
L 140.534973 278.919899 
L 140.537192 278.919899 
L 140.832496 278.810201 
L 140.947325 278.760527 
L 141.294258 278.65083 
L 141.406101 278.613574 
L 141.774412 278.503877 
L 141.888516 278.464551 
L 142.170923 278.354854 
L 142.284508 278.325878 
L 142.550866 278.215145 
L 142.668577 278.166506 
L 142.961932 278.056809 
L 143.075496 278.007135 
L 143.311955 277.897437 
L 143.425913 277.851903 
L 143.730797 277.742205 
L 143.844506 277.70495 
L 144.227456 277.595252 
L 144.343632 277.543508 
L 144.674393 277.433811 
L 144.788517 277.394486 
L 145.04005 277.284788 
L 145.154983 277.230975 
L 145.513652 277.121277 
L 145.627569 277.086091 
L 146.036831 276.976394 
L 146.148508 276.943278 
L 146.463344 276.833581 
L 146.576991 276.804604 
L 146.895975 276.693872 
L 147.023887 276.643163 
L 147.439204 276.532431 
L 147.55536 276.512768 
L 147.886535 276.403071 
L 147.998129 276.376164 
L 148.278276 276.266467 
L 148.391032 276.212653 
L 148.697097 276.102956 
L 148.809542 276.055351 
L 149.165681 275.945654 
L 149.280448 275.887701 
L 149.666716 275.776969 
L 149.781897 275.730399 
L 150.048463 275.620702 
L 150.164494 275.562748 
L 150.494425 275.453051 
L 150.610395 275.428214 
L 150.887473 275.317482 
L 151.000353 275.272982 
L 151.370095 275.163285 
L 151.482477 275.11982 
L 151.794452 275.009088 
L 151.918404 274.962518 
L 152.190195 274.852821 
L 152.30378 274.823844 
L 152.555085 274.714147 
L 152.66444 274.672752 
L 152.666098 274.672752 
L 152.9365 274.563054 
L 153.049815 274.521659 
L 153.25397 274.411962 
L 153.368114 274.362288 
L 153.636235 274.252591 
L 153.753635 274.194637 
L 154.026774 274.08494 
L 154.141375 274.037336 
L 154.485779 273.927638 
L 154.602018 273.867615 
L 154.856723 273.757918 
L 154.968732 273.722732 
L 155.253337 273.612 
L 155.375112 273.56957 
L 155.714643 273.458838 
L 155.840089 273.412268 
L 156.142401 273.302571 
L 156.257811 273.250827 
L 156.489293 273.14113 
L 156.601136 273.089386 
L 156.815119 272.979688 
L 156.927957 272.936223 
L 157.21364 272.826526 
L 157.326396 272.801689 
L 157.630844 272.691992 
L 157.745072 272.642318 
L 157.968177 272.53262 
L 158.079917 272.497434 
L 158.337898 272.387737 
L 158.455692 272.317365 
L 158.739592 272.207668 
L 158.854214 272.151784 
L 159.131106 272.042087 
L 159.233825 272.013111 
L 159.242161 272.013111 
L 159.518762 271.903413 
L 159.633612 271.84339 
L 159.882118 271.733693 
L 159.995495 271.690228 
L 160.25555 271.580531 
L 160.374775 271.518438 
L 160.614178 271.408741 
L 160.731578 271.334229 
L 160.998932 271.224532 
L 161.113014 271.193486 
L 161.401766 271.083788 
L 161.519622 271.027905 
L 161.882356 270.918208 
L 161.99845 270.876813 
L 162.293526 270.76608 
L 162.417561 270.719511 
L 162.608237 270.609814 
L 162.721491 270.584976 
L 163.017292 270.474244 
L 163.133904 270.409047 
L 163.405011 270.300384 
L 163.518741 270.245536 
L 163.819146 270.135839 
L 163.933643 270.082025 
L 164.196228 269.972328 
L 164.311575 269.914374 
L 164.575093 269.804677 
L 164.688387 269.748794 
L 164.958188 269.639096 
L 165.076956 269.581143 
L 165.35194 269.471446 
L 165.466375 269.43833 
L 165.738104 269.327597 
L 165.861994 269.26654 
L 166.103823 269.156842 
L 166.216558 269.115447 
L 166.471533 269.00575 
L 166.583356 268.968494 
L 166.705919 268.910541 
L 166.933752 268.800844 
L 167.029297 268.755309 
L 167.044848 268.755309 
L 167.388299 268.645612 
L 167.501054 268.606286 
L 167.790138 268.496589 
L 167.903266 268.446915 
L 168.018842 268.395171 
L 168.342262 268.285473 
L 168.458004 268.237869 
L 168.687703 268.128172 
L 168.804647 268.080567 
L 169.111148 267.969835 
L 169.242233 267.912917 
L 169.479915 267.803219 
L 169.592898 267.768034 
L 169.856852 267.658336 
L 169.971971 267.616941 
L 170.198892 267.507244 
L 170.316914 267.443081 
L 170.609191 267.333384 
L 170.725554 267.289919 
L 170.97265 267.180222 
L 171.095254 267.11192 
L 171.313301 267.002222 
L 171.426554 266.948409 
L 171.682669 266.838711 
L 171.790366 266.782828 
L 171.793725 266.782828 
L 172.031884 266.673131 
L 172.150072 266.619317 
L 172.357129 266.50962 
L 172.470009 266.464085 
L 172.715466 266.353353 
L 172.837096 266.294365 
L 173.122406 266.184667 
L 173.23709 266.149481 
L 173.452773 266.039784 
L 173.565051 265.99011 
L 173.810592 265.880413 
L 173.929755 265.845227 
L 174.203184 265.73553 
L 174.316893 265.683786 
L 174.552294 265.574088 
L 174.668015 265.511995 
L 174.880919 265.402298 
L 174.998568 265.348484 
L 175.294701 265.238787 
L 175.41687 265.187043 
L 175.64516 265.077346 
L 175.762021 265.017323 
L 175.9731 264.907626 
L 176.09585 264.843463 
L 176.258763 264.733766 
L 176.379273 264.686161 
L 176.598584 264.576464 
L 176.713123 264.52265 
L 176.974401 264.412953 
L 177.094974 264.35707 
L 177.307277 264.247372 
L 177.419929 264.197698 
L 177.651577 264.086966 
L 177.778785 264.017629 
L 177.957933 263.907932 
L 178.073446 263.847909 
L 178.285127 263.738211 
L 178.399396 263.688537 
L 178.608319 263.577805 
L 178.733619 263.525026 
L 178.910943 263.415329 
L 179.027327 263.361515 
L 179.267435 263.251818 
L 179.383632 263.200074 
L 179.622517 263.090377 
L 179.744645 263.034493 
L 179.989792 262.924796 
L 180.103148 262.868912 
L 180.304047 262.759215 
L 180.422277 262.705401 
L 180.627053 262.595704 
L 180.742483 262.54396 
L 180.966667 262.434263 
L 181.080729 262.386658 
L 181.270908 262.276961 
L 181.388142 262.20452 
L 181.632045 262.094822 
L 181.74874 262.02859 
L 182.020469 261.918893 
L 182.135152 261.85887 
L 182.325746 261.749172 
L 182.442877 261.693289 
L 182.709898 261.583592 
L 182.826054 261.521499 
L 183.094859 261.411802 
L 183.212695 261.326941 
L 183.400552 261.217244 
L 183.517931 261.128245 
L 183.780889 261.017512 
L 183.918547 260.929548 
L 184.150216 260.81985 
L 184.266434 260.757758 
L 184.4901 260.65013 
L 184.612601 260.573549 
L 184.818082 260.463852 
L 184.941163 260.385201 
L 185.169743 260.277573 
L 185.28142 260.234108 
L 185.535669 260.124411 
L 185.656553 260.041621 
L 185.87489 259.931923 
L 185.994633 259.8719 
L 186.175999 259.762203 
L 186.289439 259.720808 
L 186.532015 259.611111 
L 186.649726 259.561436 
L 186.872376 259.451739 
L 186.988863 259.395856 
L 187.234819 259.286158 
L 187.353193 259.217856 
L 187.549012 259.108159 
L 187.674043 259.029508 
L 187.918111 258.919811 
L 188.032339 258.855648 
L 188.26407 258.745951 
L 188.375747 258.694207 
L 188.619152 258.58451 
L 188.743001 258.518278 
L 189.007825 258.40858 
L 189.124313 258.342348 
L 189.376489 258.231616 
L 189.495921 258.168488 
L 189.692714 258.058791 
L 189.814696 257.98221 
L 190.034941 257.872513 
L 190.155949 257.802141 
L 190.362093 257.692444 
L 190.485299 257.613793 
L 190.67411 257.504095 
L 190.788876 257.433724 
L 190.951126 257.322991 
L 191.109083 257.212259 
L 191.328871 257.102562 
L 191.44764 257.050818 
L 191.606447 256.941121 
L 191.727227 256.872819 
L 191.918152 256.763121 
L 192.035428 256.676192 
L 192.20313 256.566494 
L 192.323164 256.498192 
L 192.518858 256.388495 
L 192.637979 256.34296 
L 192.814888 256.232228 
L 192.969362 256.144263 
L 193.212228 256.034566 
L 193.328404 255.951776 
L 193.514416 255.841044 
L 193.655267 255.771707 
L 193.827199 255.662009 
L 193.953163 255.577149 
L 194.089659 255.467452 
L 194.209631 255.390871 
L 194.41026 255.281174 
L 194.52681 255.217011 
L 194.708882 255.107314 
L 194.822632 255.041081 
L 194.96761 254.931384 
L 195.092764 254.863082 
L 195.308634 254.753385 
L 195.425868 254.668525 
L 195.690982 254.558827 
L 195.812633 254.484316 
L 196.024335 254.374619 
L 196.139371 254.295968 
L 196.265376 254.196619 
L 196.47094 254.086922 
L 196.58749 254.02276 
L 196.838712 253.913062 
L 196.955386 253.821993 
L 197.134016 253.712296 
L 197.252536 253.654342 
L 197.439086 253.544645 
L 197.556797 253.474273 
L 197.742912 253.364576 
L 197.860955 253.300414 
L 198.036018 253.190716 
L 198.153273 253.118275 
L 198.309053 253.008577 
L 198.427718 252.950624 
L 198.574562 252.840927 
L 198.700815 252.760206 
L 198.874365 252.650509 
L 198.986457 252.594625 
L 199.23714 252.484928 
L 199.356074 252.408347 
L 199.538229 252.30072 
L 199.654489 252.240697 
L 199.824555 252.130999 
L 199.941395 252.075116 
L 200.120854 251.965419 
L 200.239208 251.897116 
L 200.40859 251.787419 
L 200.531319 251.710838 
L 200.726309 251.601141 
L 200.854947 251.499723 
L 201.053337 251.390025 
L 201.179694 251.286537 
L 201.333878 251.17684 
L 201.4536 251.083701 
L 201.644671 250.974004 
L 201.766736 250.889144 
L 201.933692 250.779446 
L 202.049102 250.704935 
L 202.284234 250.597307 
L 202.398316 250.520726 
L 202.560669 250.411029 
L 202.686798 250.326169 
L 202.837623 250.216472 
L 202.952514 250.164728 
L 203.125069 250.05503 
L 203.253126 249.955682 
L 203.412017 249.845985 
L 203.531303 249.777683 
L 203.692951 249.667985 
L 203.827603 249.566567 
L 203.988836 249.45687 
L 204.104702 249.380289 
L 204.260337 249.270591 
L 204.38375 249.173313 
L 204.540297 249.062581 
L 204.677001 248.945639 
L 204.840888 248.835942 
L 204.958765 248.755221 
L 205.107143 248.645524 
L 205.231717 248.556524 
L 205.432554 248.446827 
L 205.562893 248.349548 
L 205.701235 248.239851 
L 205.825042 248.140503 
L 205.964835 248.030805 
L 206.090156 247.943876 
L 206.266795 247.834178 
L 206.384755 247.770016 
L 206.574685 247.660318 
L 206.687109 247.587877 
L 206.887759 247.47818 
L 207.012043 247.382971 
L 207.176055 247.273273 
L 207.29528 247.196692 
L 207.449629 247.086995 
L 207.57468 246.985577 
L 207.721047 246.87588 
L 207.844709 246.793089 
L 207.970859 246.683392 
L 208.091991 246.588183 
L 208.248103 246.478486 
L 208.363326 246.383277 
L 208.510459 246.273579 
L 208.633603 246.194929 
L 208.787372 246.085231 
L 208.915201 245.963116 
L 209.069737 245.853418 
L 209.195908 245.760279 
L 209.376881 245.650582 
L 209.494281 245.571931 
L 209.665426 245.462234 
L 209.788942 245.364955 
L 209.927886 245.254223 
L 210.045929 245.14556 
L 210.245293 245.035863 
L 210.379426 244.924096 
L 210.558305 244.814399 
L 210.677322 244.739888 
L 210.812264 244.629155 
L 210.93493 244.539121 
L 211.080239 244.429424 
L 211.199485 244.330075 
L 211.329678 244.222448 
L 211.448198 244.133448 
L 211.589671 244.023751 
L 211.71721 243.922333 
L 211.887069 243.812635 
L 212.008492 243.731915 
L 212.146046 243.622217 
L 212.262327 243.537357 
L 212.403862 243.42766 
L 212.528187 243.322102 
L 212.640031 243.212405 
L 212.760375 243.098568 
L 212.91207 242.988871 
L 213.030175 242.904011 
L 213.172519 242.794314 
L 213.292511 242.699105 
L 213.426748 242.589407 
L 213.551115 242.502477 
L 213.679401 242.39278 
L 213.818468 242.270664 
L 213.959962 242.160967 
L 214.077176 242.059549 
L 214.229887 241.949852 
L 214.353632 241.840154 
L 214.485277 241.730457 
L 214.607591 241.62076 
L 214.748297 241.513132 
L 214.86636 241.428272 
L 214.976234 241.318575 
L 215.091291 241.231645 
L 215.21205 241.121948 
L 215.343736 241.028809 
L 215.443906 240.919111 
L 215.568148 240.815623 
L 215.723949 240.705926 
L 215.843568 240.600368 
L 215.973823 240.490671 
L 216.106754 240.351997 
L 216.205347 240.243335 
L 216.330523 240.1533 
L 216.426297 240.043603 
L 216.550498 239.927696 
L 216.669245 239.817999 
L 216.801181 239.712441 
L 216.922251 239.602744 
L 217.057317 239.462 
L 217.172996 239.352303 
L 217.29249 239.230187 
L 217.443315 239.12049 
L 217.565214 239.017002 
L 217.67092 238.907305 
L 217.815503 238.766561 
L 217.95314 238.656864 
L 218.096003 238.524399 
L 218.25284 238.414702 
L 218.382017 238.292586 
L 218.491621 238.182889 
L 218.628553 238.064913 
L 218.746347 237.955215 
L 218.869781 237.822751 
L 218.986912 237.713054 
L 219.123222 237.57231 
L 219.229156 237.462613 
L 219.353191 237.361194 
L 219.482327 237.251497 
L 219.603874 237.13973 
L 219.714971 237.030033 
L 219.840229 236.893429 
L 219.945168 236.783731 
L 220.080835 236.647127 
L 220.201387 236.53743 
L 220.369981 236.361501 
L 220.477967 236.251803 
L 220.608721 236.137966 
L 220.719942 236.028269 
L 220.843479 235.908223 
L 220.949392 235.798526 
L 221.065175 235.682619 
L 221.18865 235.571887 
L 221.317641 235.450806 
L 221.436907 235.341109 
L 221.606974 235.16104 
L 221.70227 235.051343 
L 221.845983 234.914739 
L 221.962657 234.805041 
L 222.080638 234.693274 
L 222.217736 234.567019 
L 222.35923 234.457322 
L 222.488055 234.30209 
L 222.597451 234.194462 
L 222.715121 234.076486 
L 222.840193 233.966789 
L 222.975259 233.803278 
L 223.088221 233.69358 
L 223.211427 233.588023 
L 223.332725 233.478325 
L 223.455662 233.356209 
L 223.578515 233.246512 
L 223.69915 233.130606 
L 223.789968 233.020908 
L 223.915102 232.884304 
L 224.017843 232.776677 
L 224.133584 232.646282 
L 224.233111 232.536585 
L 224.372489 232.368934 
L 224.491403 232.259237 
L 224.641834 232.099865 
L 224.738499 231.990168 
L 224.869791 231.853564 
L 224.983335 231.743867 
L 225.099843 231.656937 
L 225.222593 231.54724 
L 225.352579 231.379589 
L 225.455257 231.271962 
L 225.57357 231.153985 
L 225.670629 231.044288 
L 225.799329 230.903544 
L 225.922411 230.793847 
L 226.043626 230.669661 
L 226.137637 230.559964 
L 226.267644 230.408872 
L 226.386143 230.299174 
L 226.543043 230.129454 
L 226.644995 230.019757 
L 226.780414 229.839688 
L 226.865841 229.729991 
L 227.018283 229.554061 
L 227.112087 229.444364 
L 227.230648 229.326387 
L 227.323498 229.21669 
L 227.456242 229.080086 
L 227.572585 228.969354 
L 227.701534 228.866901 
L 227.816964 228.757204 
L 227.952445 228.589553 
L 228.055185 228.479856 
L 228.20149 228.314275 
L 228.311861 228.204578 
L 228.42924 228.080392 
L 228.52039 227.970695 
L 228.636815 227.865137 
L 228.730225 227.75544 
L 228.862119 227.587789 
L 228.944788 227.478092 
L 229.079025 227.291814 
L 229.185083 227.182116 
L 229.31171 227.084838 
L 229.432407 226.97514 
L 229.563637 226.826118 
L 229.65232 226.716421 
L 229.775712 226.581886 
L 229.90122 226.472189 
L 230.037136 226.312817 
L 230.117462 226.20312 
L 230.271314 226.052028 
L 230.352117 225.94233 
L 230.483389 225.816075 
L 230.567157 225.706378 
L 230.703861 225.553216 
L 230.807763 225.443518 
L 230.96205 225.238612 
L 231.063567 225.128915 
L 231.222126 224.934357 
L 231.322192 224.82466 
L 231.442702 224.688056 
L 231.540549 224.578359 
L 231.676652 224.418987 
L 231.773442 224.30929 
L 231.90548 224.151988 
L 232.009465 224.042291 
L 232.141504 223.874641 
L 232.291126 223.657316 
L 232.362702 223.547618 
L 232.540793 223.340643 
L 232.634286 223.230945 
L 232.752556 223.090202 
L 232.843623 222.980504 
L 232.988435 222.802505 
L 233.074463 222.692808 
L 233.199266 222.545855 
L 233.33174 222.419599 
L 233.455588 222.309902 
L 233.608942 222.129833 
L 233.707889 222.022206 
L 233.841607 221.829718 
L 233.919963 221.720021 
L 234.073649 221.562719 
L 234.158745 221.453022 
L 234.32201 221.266743 
L 234.410506 221.157046 
L 234.553658 220.997675 
L 234.648561 220.887977 
L 234.823355 220.635467 
L 234.927506 220.525769 
L 235.121873 220.254631 
L 235.210452 220.144934 
L 235.366253 219.952446 
L 235.474861 219.842749 
L 235.624815 219.65854 
L 235.706406 219.548843 
L 235.818498 219.416378 
L 235.917423 219.306681 
L 236.039779 219.182495 
L 236.123589 219.072798 
L 236.289321 218.847194 
L 236.399838 218.737497 
L 236.530135 218.582265 
L 236.622487 218.472568 
L 236.738975 218.340103 
L 236.813703 218.230406 
L 237.034652 217.944779 
L 237.106934 217.835082 
L 237.274553 217.648803 
L 237.38482 217.539106 
L 237.554348 217.327991 
L 237.649997 217.218293 
L 237.868665 216.947155 
L 237.958198 216.836423 
L 238.201852 216.55804 
L 238.303265 216.448343 
L 238.429851 216.29725 
L 238.512583 216.189623 
L 238.653745 216.001275 
L 238.732868 215.891578 
L 238.889789 215.692881 
L 238.991576 215.585253 
L 239.114927 215.44244 
L 239.193304 215.332742 
L 239.355657 215.148534 
L 239.443697 215.040906 
L 239.56346 214.881535 
L 239.661494 214.771838 
L 239.779392 214.604187 
L 239.859013 214.49449 
L 240.009008 214.297863 
L 240.095493 214.188165 
L 240.220503 213.993608 
L 240.313892 213.88598 
L 240.432308 213.722469 
L 240.607371 213.517563 
L 240.685956 213.406831 
L 240.945099 213.109821 
L 241.020407 213.000123 
L 241.157049 212.824194 
L 241.239864 212.714496 
L 241.358135 212.532358 
L 241.453348 212.421625 
L 241.600669 212.203266 
L 241.683919 212.093569 
L 241.837024 211.894872 
L 241.9436 211.785174 
L 242.088163 211.584408 
L 242.173673 211.47471 
L 242.322818 211.294641 
L 242.417203 211.184944 
L 242.554031 211.021433 
L 242.780869 210.719248 
L 242.865964 210.609551 
L 243.018717 210.410854 
L 243.112293 210.301157 
L 243.332745 210.034158 
L 243.418421 209.92446 
L 243.532918 209.742322 
L 243.606298 209.632624 
L 243.762161 209.429788 
L 243.843379 209.320091 
L 244.007163 209.123463 
L 244.089148 209.015836 
L 244.217123 208.848185 
L 244.309641 208.738488 
L 244.482942 208.46735 
L 244.564346 208.358687 
L 244.692653 208.200351 
L 244.782621 208.090653 
L 244.933342 207.867119 
L 245.01993 207.756387 
L 245.171065 207.544237 
L 245.263439 207.43454 
L 245.402735 207.252401 
L 245.485674 207.142703 
L 245.627852 206.927448 
L 245.714212 206.817751 
L 245.845774 206.619054 
L 245.939267 206.511427 
L 246.076178 206.327218 
L 246.149455 206.217521 
L 246.400656 205.859452 
L 246.492718 205.749755 
L 246.637695 205.553128 
L 246.731707 205.445501 
L 246.86302 205.294408 
L 246.943616 205.184711 
L 247.078972 204.988084 
L 247.16726 204.880456 
L 247.304815 204.723154 
L 247.411951 204.613457 
L 247.564414 204.437528 
L 247.689486 204.32783 
L 247.836225 204.127064 
L 247.994245 203.953204 
L 248.080356 203.845576 
L 248.207087 203.686205 
L 248.36154 203.518554 
L 248.447133 203.410927 
L 248.573656 203.230858 
L 248.753634 202.980417 
L 248.852082 202.87072 
L 248.999506 202.698929 
L 249.107181 202.589232 
L 249.224353 202.43814 
L 249.322429 202.328443 
L 249.469065 202.160792 
L 249.567804 202.051095 
L 249.73675 201.83377 
L 249.812183 201.724073 
L 249.934663 201.585399 
L 250.013891 201.475702 
L 250.159863 201.266656 
L 250.251366 201.156959 
L 250.379817 200.995517 
L 250.48233 200.88582 
L 250.631039 200.707821 
L 250.712465 200.598123 
L 250.855431 200.420124 
L 250.960929 200.310427 
L 251.106984 200.126218 
L 251.209642 200.016521 
L 251.340374 199.859219 
L 251.495636 199.670871 
L 251.576916 199.561174 
L 251.706197 199.401802 
L 251.801992 199.292105 
L 251.953314 199.07685 
L 252.040296 198.967153 
L 252.167794 198.764316 
L 252.247187 198.654619 
L 252.386006 198.447643 
L 252.472636 198.337946 
L 252.61554 198.145458 
L 252.689687 198.035761 
L 252.826184 197.859831 
L 252.90875 197.750134 
L 253.036517 197.588693 
L 253.12831 197.478996 
L 253.243616 197.338252 
L 253.331407 197.228555 
L 253.477752 197.017439 
L 253.559737 196.907742 
L 253.699469 196.723533 
L 253.783507 196.613836 
L 253.95687 196.429627 
L 254.056168 196.31993 
L 254.180701 196.154349 
L 254.282467 196.044652 
L 254.400987 195.895629 
L 254.515712 195.785932 
L 254.630707 195.647258 
L 254.779935 195.477538 
L 254.880436 195.367841 
L 255.053074 195.171214 
L 255.168214 195.063586 
L 255.306473 194.877308 
L 255.397167 194.76761 
L 255.550355 194.556495 
L 255.638768 194.448867 
L 255.769293 194.293636 
L 255.849744 194.183938 
L 255.998184 194.032846 
L 256.101463 193.922114 
L 256.223736 193.778265 
L 256.309163 193.668568 
L 256.442239 193.517476 
L 256.555202 193.407778 
L 256.714735 193.175965 
L 256.812105 193.066268 
L 256.969585 192.867571 
L 257.090572 192.757874 
L 257.221823 192.596433 
L 257.326181 192.486735 
L 257.491126 192.265271 
L 257.585718 192.157644 
L 257.717114 191.994133 
L 257.806999 191.884435 
L 257.972628 191.66918 
L 258.079287 191.559483 
L 258.204069 191.441507 
L 258.300237 191.331809 
L 258.437293 191.15381 
L 258.529273 191.044113 
L 258.665521 190.849555 
L 258.75524 190.739858 
L 258.894867 190.557719 
L 258.986432 190.448022 
L 259.105864 190.307278 
L 259.191125 190.197581 
L 259.316861 190.056838 
L 259.406995 189.94714 
L 259.528811 189.783629 
L 259.679822 189.613909 
L 259.78389 189.506281 
L 259.900668 189.359329 
L 260.048672 189.17512 
L 260.138371 189.065423 
L 260.279844 188.906051 
L 260.394631 188.796354 
L 260.522461 188.634913 
L 260.614606 188.525215 
L 260.738807 188.411379 
L 260.835867 188.301681 
L 260.988122 188.14231 
L 261.081345 188.034682 
L 261.201109 187.914636 
L 261.297131 187.804939 
L 261.445364 187.670405 
L 263.936476 184.739625 
L 264.042058 184.629928 
L 264.192509 184.478835 
L 264.296908 184.371208 
L 264.41493 184.244952 
L 264.509854 184.135255 
L 264.634905 183.982093 
L 264.734473 183.872396 
L 264.861951 183.713024 
L 264.967013 183.603327 
L 265.089991 183.458444 
L 265.176953 183.348746 
L 265.176953 183.347712 
L 265.357428 183.14798 
L 265.43763 183.038283 
L 265.550945 182.928585 
L 265.712614 182.721609 
L 265.80198 182.611912 
L 265.929748 182.450471 
L 266.042192 182.340774 
L 266.180265 182.168983 
L 266.283192 182.059286 
L 266.459064 181.887496 
L 266.548327 181.777799 
L 266.715387 181.585311 
L 266.812654 181.475614 
L 266.938389 181.316242 
L 267.018943 181.206545 
L 267.163817 181.028546 
L 267.261436 180.918849 
L 267.410996 180.747059 
L 267.507122 180.637361 
L 267.626513 180.498687 
L 267.73848 180.387955 
L 267.913917 180.2172 
L 268.014211 180.107503 
L 268.15388 179.948131 
L 268.23968 179.838434 
L 268.353348 179.69976 
L 268.488041 179.538319 
L 268.618255 179.428622 
L 268.743783 179.289948 
L 268.869643 179.171971 
L 268.982689 179.062274 
L 269.113774 178.900833 
L 269.201274 178.791136 
L 269.316787 178.681438 
L 269.416957 178.571741 
L 269.550489 178.418579 
L 269.643899 178.308882 
L 269.764347 178.178487 
L 269.84065 178.06879 
L 269.976795 177.897 
L 270.071179 177.787302 
L 270.18887 177.679675 
L 270.272845 177.569978 
L 270.415708 177.420955 
L 270.551893 177.311258 
L 270.697493 177.104282 
L 270.813358 176.994584 
L 271.041814 176.737934 
L 271.125146 176.628237 
L 271.28582 176.466796 
L 271.41027 176.357098 
L 271.521263 176.239122 
L 271.639326 176.129425 
L 271.780385 175.972123 
L 271.874251 175.864496 
L 272.002412 175.715473 
L 272.119709 175.607845 
L 272.244324 175.475381 
L 272.352767 175.365683 
L 272.489139 175.268405 
L 272.609857 175.158708 
L 272.744778 174.993127 
L 272.83541 174.883429 
L 272.971761 174.734407 
L 273.098139 174.62471 
L 273.242204 174.477757 
L 273.373414 174.368059 
L 273.49494 174.239734 
L 273.587168 174.130037 
L 273.729885 173.964456 
L 273.848301 173.858898 
L 273.967754 173.734713 
L 274.057453 173.625016 
L 274.178357 173.482202 
L 274.284042 173.372505 
L 274.402914 173.24625 
L 274.528359 173.122064 
L 274.630955 173.014437 
L 274.752916 172.863344 
L 274.840541 172.753647 
L 274.970838 172.610833 
L 275.074553 172.501136 
L 275.200766 172.352113 
L 275.309789 172.242416 
L 275.44865 172.114091 
L 275.550105 172.004394 
L 275.695828 171.851232 
L 275.81553 171.741534 
L 275.941348 171.598721 
L 276.049438 171.489024 
L 276.175568 171.358629 
L 276.304787 171.248932 
L 276.465875 171.052304 
L 276.578029 170.944677 
L 276.708616 170.801863 
L 276.842355 170.669399 
L 276.98273 170.558667 
L 277.119288 170.408609 
L 277.213797 170.298912 
L 277.334266 170.164377 
L 277.427863 170.05468 
L 277.580325 169.858053 
L 277.698036 169.750426 
L 277.817717 169.6221 
L 277.922842 169.512403 
L 278.0351 169.384078 
L 278.148125 169.274381 
L 278.273135 169.181242 
L 278.381474 169.071544 
L 278.526285 168.93701 
L 278.640057 168.827313 
L 278.774874 168.686569 
L 278.896587 168.575837 
L 279.019399 168.427849 
L 279.129853 168.318152 
L 279.251338 168.189827 
L 279.356463 168.082199 
L 279.477201 167.953874 
L 279.586825 167.844177 
L 279.694936 167.746898 
L 279.697694 167.746898 
L 279.856004 167.593736 
L 279.983481 167.484039 
L 280.126468 167.316388 
L 280.238663 167.206691 
L 280.347645 167.088715 
L 280.349719 167.088715 
L 280.450116 166.979017 
L 280.589578 166.861041 
L 280.717553 166.751344 
L 280.836943 166.61474 
L 280.951565 166.507112 
L 281.074439 166.399485 
L 281.170793 166.291857 
L 281.292983 166.17802 
L 281.41341 166.068323 
L 281.560088 165.939998 
L 281.676161 165.830301 
L 281.794888 165.704045 
L 281.915606 165.594348 
L 282.032384 165.503279 
L 282.170187 165.393581 
L 282.298825 165.275605 
L 282.405153 165.165908 
L 282.540882 165.029304 
L 282.651108 164.919606 
L 282.793473 164.764375 
L 282.870772 164.654677 
L 283.014381 164.482887 
L 283.125021 164.37319 
L 283.305662 164.186912 
L 283.386714 164.077214 
L 283.519458 163.94061 
L 283.631322 163.830913 
L 283.753574 163.694309 
L 283.872177 163.584612 
L 283.999944 163.472844 
L 284.115602 163.363147 
L 284.261699 163.207915 
L 284.387393 163.098218 
L 284.528099 162.942986 
L 284.65087 162.833289 
L 284.779404 162.74015 
L 284.903958 162.632522 
L 285.024634 162.516616 
L 285.123953 162.406918 
L 285.239695 162.293081 
L 285.341647 162.183384 
L 285.481358 162.05092 
L 285.592206 161.940187 
L 285.701042 161.839804 
L 285.703261 161.839804 
L 285.825098 161.730107 
L 285.95187 161.632828 
L 286.075449 161.523131 
L 286.199982 161.417573 
L 286.30463 161.307876 
L 286.424539 161.181621 
L 286.561119 161.070888 
L 286.750489 160.916691 
L 286.871871 160.806994 
L 287.001836 160.705576 
L 287.11793 160.594844 
L 287.396667 160.32474 
L 287.500465 160.215043 
L 287.613448 160.119834 
L 287.742294 160.010137 
L 287.866474 159.8963 
L 287.956214 159.786603 
L 288.10708 159.647929 
L 288.19344 159.538231 
L 288.326785 159.385069 
L 288.426478 159.275372 
L 288.591195 159.111861 
L 288.722052 159.002164 
L 288.858942 158.867629 
L 288.992578 158.757932 
L 289.104815 158.637886 
L 289.20177 158.528189 
L 289.352906 158.381236 
L 289.474038 158.271538 
L 289.662496 158.062493 
L 289.797127 157.952795 
L 289.923754 157.849308 
L 290.038894 157.73961 
L 290.165044 157.617494 
L 290.28742 157.507797 
L 290.425928 157.344286 
L 290.528627 157.234589 
L 290.650174 157.145589 
L 290.748499 157.035892 
L 290.87131 156.926195 
L 290.987923 156.816497 
L 291.116934 156.696451 
L 291.246713 156.586754 
L 291.390218 156.435662 
L 291.50061 156.325964 
L 291.642414 156.174872 
L 291.75264 156.065175 
L 291.881859 155.93271 
L 292.004173 155.823013 
L 292.12373 155.680199 
L 292.263793 155.570502 
L 292.376942 155.448386 
L 292.485572 155.338689 
L 292.620078 155.210364 
L 292.757943 155.100667 
L 292.890065 154.968202 
L 293.003463 154.858505 
L 293.119121 154.746738 
L 293.215662 154.637041 
L 293.358794 154.502506 
L 293.506446 154.392809 
L 293.642425 154.264484 
L 293.740189 154.154787 
L 293.890868 153.995415 
L 294.000721 153.885718 
L 294.132407 153.720137 
L 294.254473 153.61044 
L 294.401627 153.480045 
L 294.53265 153.370348 
L 294.649925 153.270999 
L 294.769357 153.161302 
L 294.891734 153.041256 
L 295.034264 152.931559 
L 295.166179 152.790815 
L 295.282148 152.681118 
L 295.413855 152.530025 
L 295.545749 152.39963 
L 295.652761 152.289933 
L 295.775738 152.14505 
L 295.914827 152.035353 
L 296.035254 151.921516 
L 296.169304 151.811819 
L 296.288052 151.720749 
L 296.416214 151.611052 
L 296.553001 151.469273 
L 296.668783 151.358541 
L 296.789708 151.219867 
L 296.919881 151.11017 
L 297.053765 150.965287 
L 297.163908 150.857659 
L 297.285289 150.739683 
L 297.418489 150.629986 
L 297.534832 150.540986 
L 297.664984 150.430254 
L 297.820681 150.271917 
L 297.915024 150.16222 
L 298.04246 150.052523 
L 298.174042 149.942826 
L 298.295278 149.802082 
L 298.436088 149.692385 
L 298.575798 149.543362 
L 298.696329 149.433665 
L 298.812444 149.334316 
L 298.926879 149.224619 
L 299.057259 149.104573 
L 299.187888 148.994876 
L 299.309207 148.878969 
L 299.418748 148.770307 
L 299.539507 148.671993 
L 299.663584 148.562296 
L 299.784426 148.487785 
L 299.911634 148.378087 
L 300.023705 148.278739 
L 300.16242 148.168007 
L 300.337919 147.997252 
L 300.434439 147.887554 
L 300.565255 147.788206 
L 300.690327 147.678509 
L 300.80951 147.546044 
L 300.931306 147.436347 
L 301.044268 147.339068 
L 301.165857 147.223161 
L 301.30339 147.113464 
L 301.45324 146.97893 
L 301.574248 146.869233 
L 301.690902 146.76057 
L 301.819706 146.618792 
L 301.966301 146.508059 
L 302.1452 146.339374 
L 302.2688 146.228642 
L 302.427275 146.074445 
L 302.534806 145.964748 
L 302.659276 145.85919 
L 302.799588 145.749493 
L 302.92862 145.646005 
L 303.060742 145.536307 
L 303.188634 145.414192 
L 303.322974 145.304494 
L 303.460031 145.16996 
L 303.5805 145.060263 
L 303.702482 144.956775 
L 303.850134 144.849147 
L 303.964922 144.753938 
L 304.086593 144.644241 
L 304.213137 144.530404 
L 304.360084 144.420707 
L 304.489096 144.300661 
L 304.60463 144.190964 
L 304.727628 144.077127 
L 304.842996 143.96743 
L 304.963838 143.87429 
L 305.104046 143.764593 
L 305.218751 143.644547 
L 305.375568 143.53485 
L 305.487929 143.460338 
L 305.598487 143.350641 
L 305.728037 143.203688 
L 305.87683 143.093991 
L 305.995744 143.000852 
L 306.128176 142.855969 
L 306.241036 142.746271 
L 306.375459 142.632435 
L 306.511396 142.521702 
L 306.627303 142.444086 
L 306.767221 142.334389 
L 306.883626 142.203994 
L 306.98676 142.094297 
L 307.106897 141.9846 
L 307.209244 141.874902 
L 307.327494 141.757961 
L 307.476743 141.647229 
L 307.609632 141.537532 
L 307.726057 141.448532 
L 307.878395 141.338835 
L 308.005997 141.243626 
L 308.180811 141.133929 
L 308.312041 141.015952 
L 308.471803 140.906255 
L 308.634715 140.703419 
L 308.770486 140.593721 
L 308.89672 140.461257 
L 309.012917 140.351559 
L 309.143297 140.231513 
L 309.290679 140.121816 
L 309.403476 140.032816 
L 309.523365 139.923119 
L 309.523365 139.922084 
L 309.638857 139.812387 
L 309.785659 139.676818 
L 309.91579 139.56712 
L 310.039867 139.465702 
L 310.194258 139.356005 
L 310.321051 139.231819 
L 310.452156 139.122122 
L 310.583221 139.020704 
L 310.73081 138.909972 
L 310.850097 138.801309 
L 310.972764 138.691612 
L 311.091636 138.583985 
L 311.185378 138.474287 
L 311.302322 138.360451 
L 311.418416 138.250753 
L 311.564741 138.134847 
L 311.706587 138.02515 
L 311.845696 137.915452 
L 311.963511 137.805755 
L 312.097188 137.67329 
L 312.22282 137.563593 
L 312.337732 137.470454 
L 312.453888 137.360757 
L 312.567037 137.255199 
L 312.696359 137.147571 
L 312.809115 137.027525 
L 312.932155 136.917828 
L 313.064525 136.808131 
L 313.176286 136.698434 
L 313.29663 136.582527 
L 313.415191 136.47283 
L 313.531078 136.354853 
L 313.641822 136.245156 
L 313.762726 136.12718 
L 313.891758 136.017483 
L 314.014052 135.930553 
L 314.161372 135.820856 
L 314.291441 135.680112 
L 314.431152 135.570415 
L 314.546084 135.475206 
L 314.67155 135.367578 
L 314.783559 135.257881 
L 314.916386 135.148184 
L 315.019355 135.050905 
L 315.027441 135.050905 
L 315.1764 134.940173 
L 315.304789 134.854278 
L 315.427622 134.743546 
L 315.575087 134.647302 
L 315.714051 134.537605 
L 315.845136 134.436186 
L 315.959219 134.326489 
L 316.072016 134.23542 
L 316.196051 134.125722 
L 316.317432 134.016025 
L 316.432095 133.906328 
L 316.562454 133.786282 
L 316.68962 133.676585 
L 316.811209 133.577236 
L 316.954071 133.467539 
L 317.07566 133.36819 
L 317.214852 133.257458 
L 317.338742 133.150866 
L 317.482952 133.041168 
L 317.618143 132.931471 
L 317.7874 132.821774 
L 317.901441 132.724495 
L 318.05691 132.614798 
L 318.17064 132.525798 
L 318.310786 132.416101 
L 318.432852 132.329171 
L 318.553217 132.218439 
L 318.722785 132.074591 
L 318.841678 131.964893 
L 318.965299 131.855196 
L 319.083819 131.744464 
L 319.206776 131.65236 
L 319.327929 131.542662 
L 319.446988 131.447453 
L 319.584314 131.337756 
L 319.701963 131.246687 
L 319.812769 131.136989 
L 319.930003 131.035571 
L 320.036124 130.925874 
L 320.162564 130.838944 
L 320.295349 130.729247 
L 320.412749 130.623689 
L 320.529735 130.513992 
L 320.649581 130.408434 
L 320.745251 130.298737 
L 320.869577 130.193179 
L 321.036388 130.083482 
L 321.150761 130.000691 
L 321.317323 129.890994 
L 321.442187 129.758529 
L 321.594442 129.648832 
L 321.713211 129.568112 
L 321.845727 129.458414 
L 321.96464 129.363205 
L 322.09415 129.253508 
L 322.215676 129.172787 
L 322.35858 129.06309 
L 322.480334 128.961672 
L 322.603789 128.851975 
L 322.724133 128.765045 
L 322.84315 128.655348 
L 322.961504 128.535302 
L 323.074011 128.425604 
L 323.196449 128.328326 
L 323.32938 128.218628 
L 323.445764 128.113071 
L 323.579067 128.002338 
L 323.690164 127.916443 
L 323.816605 127.806746 
L 323.928406 127.717746 
L 324.071559 127.607014 
L 324.189913 127.51905 
L 324.331075 127.408317 
L 324.463176 127.301725 
L 324.58719 127.192028 
L 324.706996 127.08647 
L 324.856555 126.976773 
L 324.97522 126.871215 
L 325.080324 126.761517 
L 325.208444 126.647681 
L 325.363499 126.537983 
L 325.477581 126.436565 
L 325.614949 126.325833 
L 325.766665 126.184055 
L 325.898662 126.074357 
L 326.016892 125.975009 
L 326.159443 125.865312 
L 326.27985 125.734917 
L 326.418358 125.625219 
L 326.533933 125.53622 
L 326.668045 125.426523 
L 326.788763 125.335453 
L 326.917816 125.225756 
L 327.032997 125.122268 
L 327.174781 125.011536 
L 327.290046 124.909083 
L 327.436391 124.799385 
L 327.549354 124.704176 
L 327.6878 124.594479 
L 327.810799 124.466154 
L 327.913726 124.356457 
L 328.027331 124.24469 
L 328.172018 124.134992 
L 328.29199 124.039784 
L 328.422888 123.929051 
L 328.565978 123.820389 
L 328.711868 123.710692 
L 328.834099 123.576157 
L 328.961514 123.46646 
L 329.07456 123.367112 
L 329.223829 123.25638 
L 329.350042 123.135299 
L 329.495827 123.025601 
L 329.612688 122.932462 
L 329.726356 122.822765 
L 329.841704 122.739974 
L 329.969222 122.632347 
L 329.969222 122.631312 
L 330.082268 122.549557 
L 330.223057 122.439859 
L 330.345744 122.34879 
L 330.489229 122.239093 
L 330.605654 122.133535 
L 330.732053 122.022803 
L 330.842528 121.951396 
L 330.843108 121.951396 
L 330.992067 121.841699 
L 331.107538 121.729932 
L 331.225021 121.620235 
L 331.357869 121.48363 
L 331.50098 121.373933 
L 331.615498 121.289073 
L 331.74764 121.179376 
L 331.868399 121.061399 
L 332.014994 120.951702 
L 332.148609 120.819238 
L 332.255703 120.70954 
L 332.372689 120.62675 
L 332.5079 120.517053 
L 332.630111 120.430123 
L 332.752902 120.322495 
L 332.877269 120.171403 
L 333.004373 120.061705 
L 333.130398 119.962357 
L 333.232558 119.85266 
L 333.355619 119.738823 
L 333.509471 119.629126 
L 333.637031 119.519428 
L 333.768696 119.409731 
L 333.883753 119.310383 
L 334.041814 119.200685 
L 334.15741 119.103407 
L 334.31317 118.99371 
L 334.441704 118.90057 
L 334.579466 118.789838 
L 334.71306 118.658408 
L 334.852459 118.548711 
L 334.968325 118.455572 
L 335.096217 118.345875 
L 335.21428 118.207201 
L 335.344412 118.097504 
L 335.465129 118.006434 
L 335.636481 117.896737 
L 335.74934 117.805667 
L 335.9198 117.69597 
L 336.033759 117.61111 
L 336.166419 117.500378 
L 336.297339 117.399995 
L 336.399913 117.290297 
L 336.515717 117.199228 
L 336.632951 117.099879 
L 336.78533 116.990182 
L 336.916353 116.882555 
L 337.046236 116.774927 
L 337.162889 116.66523 
L 337.280455 116.555533 
L 337.398477 116.443766 
L 337.549882 116.334068 
L 337.662493 116.259557 
L 337.794656 116.14986 
L 337.913072 116.06086 
L 338.032525 115.951163 
L 338.147706 115.849745 
L 338.262805 115.740047 
L 338.385492 115.640699 
L 338.506894 115.531002 
L 338.61994 115.433723 
L 338.76133 115.324026 
L 338.876781 115.216398 
L 339.029492 115.105666 
L 339.146125 115.015631 
L 339.261866 114.905934 
L 339.378396 114.816935 
L 339.504546 114.707237 
L 339.617384 114.616168 
L 339.768499 114.506471 
L 339.887931 114.405052 
L 340.028036 114.295355 
L 340.14923 114.187728 
L 340.266754 114.07803 
L 340.392366 113.972473 
L 340.528468 113.862775 
L 340.648439 113.73859 
L 340.810917 113.631997 
L 340.923361 113.544032 
L 341.077648 113.434335 
L 341.19312 113.363963 
L 341.33845 113.254266 
L 341.451558 113.150778 
L 341.621189 113.041081 
L 341.751237 112.931383 
L 341.858871 112.821686 
L 341.983839 112.730617 
L 342.116894 112.62092 
L 342.233755 112.552617 
L 342.358931 112.44292 
L 342.476662 112.351851 
L 342.620769 112.242154 
L 342.735826 112.144875 
L 342.877092 112.035178 
L 342.990034 111.937899 
L 343.134161 111.828202 
L 343.250255 111.728853 
L 343.432928 111.619156 
L 343.550224 111.534296 
L 343.73045 111.424598 
L 343.849551 111.339738 
L 343.984969 111.229006 
L 344.112384 111.120344 
L 344.27596 111.009612 
L 344.394501 110.919577 
L 344.526146 110.80988 
L 344.64535 110.739508 
L 344.784687 110.629811 
L 344.897857 110.526323 
L 345.011235 110.416626 
L 345.130999 110.311068 
L 345.270232 110.200336 
L 345.384211 110.114441 
L 345.506816 110.004743 
L 345.636429 109.880558 
L 345.784848 109.77086 
L 345.911495 109.667373 
L 346.069121 109.557675 
L 346.182416 109.443838 
L 346.359615 109.333106 
L 346.472951 109.222374 
L 346.656163 109.112677 
L 346.77292 109.021607 
L 346.970418 108.910875 
L 347.085289 108.816701 
L 347.198044 108.707004 
L 347.317891 108.599377 
L 347.461458 108.489679 
L 347.582757 108.365494 
L 347.757302 108.255796 
L 347.873582 108.173006 
L 347.994507 108.063309 
L 348.109315 107.972239 
L 348.232707 107.862542 
L 348.348241 107.752845 
L 348.501969 107.643148 
L 348.621546 107.53966 
L 348.762936 107.429962 
L 348.878304 107.324405 
L 349.028797 107.214707 
L 349.028797 107.213672 
L 349.147607 107.121568 
L 349.328808 107.011871 
L 349.44063 106.939429 
L 349.548948 106.829732 
L 349.660605 106.7635 
L 349.812736 106.653802 
L 349.929555 106.560663 
L 350.058484 106.449931 
L 350.176257 106.370245 
L 350.323847 106.259513 
L 350.419807 106.190176 
L 350.434861 106.190176 
L 350.589749 106.080479 
L 350.714883 105.968712 
L 350.873193 105.859015 
L 350.988188 105.761736 
L 351.16265 105.653074 
L 351.16265 105.652039 
L 351.279303 105.563039 
L 351.455466 105.453342 
L 351.570004 105.366412 
L 351.716433 105.256715 
L 351.831345 105.163575 
L 351.951399 105.053878 
L 352.065813 104.971088 
L 352.229327 104.861391 
L 352.339968 104.764112 
L 352.3403 104.764112 
L 352.474412 104.654415 
L 352.591999 104.575764 
L 352.758996 104.466066 
L 352.875131 104.397764 
L 353.041673 104.287032 
L 353.156211 104.203207 
L 353.305958 104.092475 
L 353.412368 104.021068 
L 353.417013 104.021068 
L 353.585835 103.911371 
L 353.702945 103.814092 
L 353.864137 103.704395 
L 353.98191 103.623674 
L 354.097527 103.513977 
L 354.209536 103.418768 
L 354.378524 103.309071 
L 354.492067 103.186955 
L 354.656473 103.077258 
L 354.777958 102.988258 
L 354.927207 102.878561 
L 355.040729 102.781282 
L 355.19089 102.671585 
L 355.310281 102.584655 
L 355.443667 102.474958 
L 355.556257 102.400446 
L 355.722218 102.290749 
L 355.838332 102.210028 
L 355.966722 102.100331 
L 356.080618 102.032029 
L 356.205337 101.921297 
L 356.31407 101.827123 
L 356.316434 101.827123 
L 356.440718 101.717426 
L 356.561767 101.622217 
L 356.735462 101.512519 
L 356.847471 101.417311 
L 356.966302 101.33659 
L 357.125918 101.226893 
L 357.239544 101.144102 
L 357.383733 101.03337 
L 357.496613 100.945405 
L 357.636117 100.835708 
L 357.750863 100.746708 
L 357.930384 100.635976 
L 358.054585 100.533523 
L 358.202258 100.423826 
L 358.320155 100.330687 
L 358.458456 100.220989 
L 358.577556 100.146478 
L 358.744844 100.036781 
L 358.860254 99.931223 
L 359.014396 99.820491 
L 359.124953 99.753224 
L 359.125493 99.753224 
L 359.271113 99.643526 
L 359.386792 99.554527 
L 359.552255 99.44483 
L 359.665591 99.370318 
L 359.815918 99.260621 
L 359.925273 99.161272 
L 359.926931 99.161272 
L 360.079829 99.051575 
L 360.196898 98.968785 
L 360.35668 98.858053 
L 360.487184 98.759739 
L 360.62337 98.650042 
L 360.737411 98.5776 
L 360.894995 98.467903 
L 361.004681 98.397531 
L 361.006071 98.397531 
L 361.129297 98.287834 
L 361.248605 98.219532 
L 361.378404 98.1088 
L 361.493772 98.004277 
L 361.651149 97.896649 
L 361.758037 97.811789 
L 361.762204 97.811789 
L 361.959931 97.702092 
L 362.075693 97.627581 
L 362.221271 97.517883 
L 362.33552 97.414395 
L 362.475085 97.303663 
L 362.592838 97.242605 
L 362.711855 97.132908 
L 362.828592 97.041839 
L 362.979375 96.931106 
L 363.097646 96.845211 
L 363.231447 96.734479 
L 363.345218 96.669282 
L 363.465563 96.559585 
L 363.579293 96.472655 
L 363.752303 96.362957 
L 363.866863 96.296725 
L 364.026064 96.187028 
L 364.026064 96.185993 
L 364.142635 96.120796 
L 364.284792 96.011098 
L 364.399434 95.924168 
L 364.564047 95.814471 
L 364.681157 95.717192 
L 364.825699 95.60646 
L 364.944861 95.530914 
L 365.114057 95.421217 
L 365.22928 95.319799 
L 365.375107 95.210101 
L 365.375107 95.209066 
L 365.503414 95.123171 
L 365.665642 95.013474 
L 365.769482 94.947242 
L 365.776656 94.947242 
L 365.957421 94.837545 
L 366.080254 94.746475 
L 366.220918 94.636778 
L 366.344415 94.556057 
L 366.515186 94.44636 
L 366.632876 94.338733 
L 366.797468 94.229035 
L 366.908462 94.150384 
L 366.908482 94.150384 
L 367.0529 94.040687 
L 367.168703 93.947548 
L 367.318595 93.837851 
L 367.438089 93.7592 
L 367.609109 93.649503 
L 367.718257 93.556363 
L 367.720206 93.556363 
L 367.880775 93.446666 
L 367.993697 93.353527 
L 368.149166 93.24383 
L 368.149166 93.242795 
L 368.276042 93.15276 
L 368.445465 93.043063 
L 368.558221 92.960273 
L 368.683293 92.850575 
L 368.789517 92.773994 
L 368.794306 92.773994 
L 368.951973 92.664297 
L 369.067714 92.589786 
L 369.234795 92.480088 
L 369.349251 92.393158 
L 369.505383 92.283461 
L 369.623737 92.20688 
L 369.807488 92.097183 
L 369.807488 92.096148 
L 369.923313 92.020602 
L 370.095991 91.910904 
L 370.205885 91.826044 
L 370.207005 91.826044 
L 370.351858 91.716347 
L 370.45632 91.635626 
L 370.462851 91.635626 
L 370.599348 91.525929 
L 370.703872 91.465906 
L 370.710382 91.465906 
L 370.859527 91.356209 
L 370.859527 91.355174 
L 370.984039 91.267209 
L 371.150933 91.157512 
L 371.263274 91.095419 
L 371.430977 90.985722 
L 371.543359 90.91949 
L 371.678985 90.809792 
L 371.792756 90.722862 
L 371.979493 90.61213 
L 372.094115 90.524165 
L 372.23706 90.416538 
L 372.23706 90.414468 
L 372.34994 90.317189 
L 372.484757 90.206457 
L 372.61634 90.114353 
L 372.75858 90.004656 
L 372.871833 89.892889 
L 373.030993 89.783192 
L 373.144827 89.692122 
L 373.305604 89.582425 
L 373.418401 89.495495 
L 373.585647 89.384763 
L 373.703524 89.303007 
L 373.888416 89.192275 
L 374.006002 89.087752 
L 374.187867 88.978055 
L 374.303981 88.878707 
L 374.449249 88.769009 
L 374.567893 88.67794 
L 374.781544 88.567208 
L 374.90929 88.470964 
L 375.095385 88.360232 
L 375.194123 88.263988 
L 375.20644 88.263988 
L 375.368855 88.154291 
L 375.484389 88.067361 
L 375.636271 87.957663 
L 375.74857 87.89764 
L 375.890686 87.787943 
L 376.00425 87.72792 
L 376.190883 87.618223 
L 376.306625 87.543712 
L 376.453966 87.434014 
L 376.564689 87.351224 
L 376.565042 87.351224 
L 376.748938 87.240492 
L 376.859662 87.144248 
L 376.860035 87.144248 
L 377.017536 87.034551 
L 377.130333 86.947621 
L 377.2598 86.837924 
L 377.366543 86.773761 
L 377.370897 86.773761 
L 377.502314 86.664064 
L 377.61312 86.568855 
L 377.613411 86.568855 
L 377.800728 86.459157 
L 377.906351 86.374297 
L 377.911804 86.374297 
L 378.061136 86.2646 
L 378.175032 86.171461 
L 378.363427 86.061764 
L 378.491547 85.964485 
L 378.671048 85.854788 
L 378.781771 85.778207 
L 378.782103 85.778207 
L 378.959696 85.667474 
L 379.072514 85.57951 
L 379.265969 85.468777 
L 379.376734 85.387022 
L 379.377024 85.387022 
L 379.56712 85.27629 
L 379.6817 85.190395 
L 379.850232 85.082767 
L 379.963133 84.991698 
L 380.090009 84.882001 
L 380.199364 84.793001 
L 380.201064 84.793001 
L 380.363583 84.682269 
L 380.476463 84.594304 
L 380.694509 84.484607 
L 380.807016 84.408026 
L 380.933124 84.297294 
L 381.043703 84.221747 
L 381.044221 84.221747 
L 381.184512 84.11205 
L 381.298388 84.043748 
L 381.455432 83.934051 
L 381.567815 83.867818 
L 381.711693 83.757086 
L 381.837408 83.642215 
L 382.023523 83.532517 
L 382.13634 83.445587 
L 382.313892 83.334855 
L 382.409894 83.25517 
L 382.424926 83.25517 
L 382.587342 83.146507 
L 382.699724 83.050263 
L 382.845033 82.940566 
L 382.965792 82.849497 
L 383.102309 82.739799 
L 383.212743 82.667358 
L 383.213323 82.667358 
L 383.390025 82.557661 
L 383.499898 82.487289 
L 383.50108 82.487289 
L 383.637348 82.377591 
L 383.750062 82.294801 
L 383.901675 82.185104 
L 384.006095 82.102313 
L 384.012606 82.102313 
L 384.182382 81.992616 
L 384.295427 81.895337 
L 384.445257 81.78564 
L 384.55569 81.715268 
L 384.556353 81.715268 
L 384.704068 81.605571 
L 384.816056 81.516571 
L 384.955331 81.406874 
L 385.061866 81.299247 
L 385.066303 81.299247 
L 385.184906 81.189549 
L 385.291483 81.119178 
L 385.296003 81.119178 
L 385.445749 81.00948 
L 385.559002 80.957736 
L 385.751877 80.848039 
L 385.868758 80.779737 
L 386.026653 80.669005 
L 386.135718 80.595528 
L 386.137709 80.595528 
L 386.264626 80.485831 
L 386.381176 80.378204 
L 386.528973 80.267471 
L 386.635218 80.187786 
L 386.64007 80.187786 
L 386.797695 80.078088 
L 386.903256 79.987019 
L 386.908792 79.987019 
L 387.075064 79.877322 
L 387.187923 79.786252 
L 387.356247 79.67552 
L 387.466266 79.624811 
L 387.467344 79.624811 
L 387.6264 79.515114 
L 387.73928 79.455091 
L 387.934498 79.344359 
L 388.05028 79.268812 
L 388.209938 79.15808 
L 388.331858 79.074255 
L 388.518512 78.964558 
L 388.626913 78.875558 
L 388.629464 78.875558 
L 388.782424 78.765861 
L 388.897481 78.668582 
L 389.044304 78.558885 
L 389.153161 78.476095 
L 389.1554 78.476095 
L 389.320179 78.366397 
L 389.432271 78.264979 
L 389.574055 78.155282 
L 389.685961 78.072491 
L 389.84425 77.962794 
L 389.959576 77.859306 
L 390.121203 77.749609 
L 390.232798 77.697865 
L 390.368465 77.588168 
L 390.483294 77.497098 
L 390.656222 77.387401 
L 390.766738 77.30668 
L 390.767298 77.30668 
L 390.903649 77.196983 
L 391.015513 77.118332 
L 391.188524 77.008635 
L 391.300782 76.950682 
L 391.438502 76.840984 
L 391.551382 76.747845 
L 391.68425 76.638148 
L 391.796902 76.561567 
L 391.920004 76.45187 
L 392.03081 76.389777 
L 392.030976 76.389777 
L 392.16343 76.28008 
L 392.272743 76.178661 
L 392.274485 76.178661 
L 392.420665 76.068964 
L 392.530642 75.990313 
L 392.53172 75.990313 
L 392.673255 75.879581 
L 392.781242 75.797826 
L 392.78431 75.797826 
L 392.956035 75.688128 
L 393.072274 75.605338 
L 393.228283 75.495641 
L 393.228283 75.494606 
L 393.345973 75.388013 
L 393.488503 75.278316 
L 393.601342 75.191386 
L 393.748185 75.081689 
L 393.861915 75.017526 
L 394.052613 74.907829 
L 394.164705 74.80848 
L 394.309226 74.698783 
L 394.421857 74.620132 
L 394.540335 74.510435 
L 394.653298 74.417296 
L 394.794709 74.307599 
L 394.905349 74.214459 
L 394.905805 74.214459 
L 395.048087 74.103727 
L 395.162709 74.017832 
L 395.296531 73.908135 
L 395.40402 73.827414 
L 395.407627 73.827414 
L 395.569275 73.716682 
L 395.685846 73.628717 
L 395.853632 73.51902 
L 395.966408 73.43623 
L 396.131021 73.326532 
L 396.245684 73.239603 
L 396.409239 73.129905 
L 396.51959 73.030557 
L 396.520274 73.030557 
L 396.685716 72.92086 
L 396.793371 72.858767 
L 396.796813 72.858767 
L 396.920703 72.74907 
L 397.032567 72.670419 
L 397.157598 72.560721 
L 397.264298 72.496559 
L 397.268653 72.496559 
L 397.421012 72.386862 
L 397.529205 72.324769 
L 397.532108 72.324769 
L 397.685628 72.214037 
L 397.793946 72.155049 
L 397.796642 72.155049 
L 397.943402 72.045351 
L 398.055785 71.96877 
L 398.204245 71.859073 
L 398.312232 71.757655 
L 398.315321 71.757655 
L 398.483563 71.647957 
L 398.483563 71.646923 
L 398.595572 71.602423 
L 398.748325 71.492725 
L 398.857307 71.424423 
L 398.859422 71.424423 
L 399.035169 71.314726 
L 399.142782 71.236075 
L 399.146224 71.236075 
L 399.318157 71.126378 
L 399.428217 71.035309 
L 399.429212 71.035309 
L 399.56743 70.925611 
L 399.678444 70.809705 
L 399.678526 70.809705 
L 399.817532 70.700007 
L 399.929956 70.633775 
L 400.073565 70.523043 
L 400.180639 70.430939 
L 400.18462 70.430939 
L 400.307452 70.320207 
L 400.417139 70.234312 
L 400.418549 70.234312 
L 400.557099 70.123579 
L 400.667967 70.041824 
L 400.668195 70.041824 
L 400.796129 69.932127 
L 400.907018 69.828639 
L 400.907205 69.828639 
L 401.029187 69.718941 
L 401.135598 69.619593 
L 401.140242 69.619593 
L 401.264609 69.509896 
L 401.264609 69.508861 
L 401.38458 69.402268 
L 401.512762 69.292571 
L 401.622242 69.189083 
L 401.623735 69.189083 
L 401.757681 69.079386 
L 401.757681 69.078351 
L 401.870976 68.969688 
L 402.016243 68.859991 
L 402.130989 68.770991 
L 402.295208 68.661294 
L 402.398011 68.582643 
L 402.406222 68.582643 
L 402.537639 68.471911 
L 402.642225 68.381877 
L 402.648694 68.381877 
L 402.826515 68.272179 
L 402.935497 68.195598 
L 402.937612 68.195598 
L 403.10519 68.085901 
L 403.214752 67.994832 
L 403.216079 67.994832 
L 403.319007 67.885134 
L 403.432239 67.779577 
L 403.547586 67.669879 
L 403.657646 67.564322 
L 403.658683 67.564322 
L 403.793334 67.454624 
L 403.902897 67.359415 
L 403.90439 67.359415 
L 404.023511 67.248683 
L 404.133384 67.154509 
L 404.134566 67.154509 
L 404.262686 67.043777 
L 404.37316 66.947533 
L 404.373783 66.947533 
L 404.507563 66.837836 
L 404.618411 66.742627 
L 404.61866 66.742627 
L 404.76372 66.63293 
L 404.873199 66.537721 
L 404.874817 66.537721 
L 404.965552 66.428024 
L 404.965552 66.426989 
L 405.080754 66.324536 
L 405.218163 66.213803 
L 405.333593 66.107211 
L 405.508885 65.996479 
L 405.614342 65.894026 
L 405.61994 65.894026 
L 405.730809 65.784328 
L 405.841885 65.68498 
L 405.957419 65.575283 
L 406.066566 65.469725 
L 406.068432 65.469725 
L 406.193753 65.360028 
L 406.306882 65.258609 
L 406.405372 65.148912 
L 406.514768 65.072331 
L 406.516468 65.072331 
L 406.661529 64.962634 
L 406.769722 64.842588 
L 406.772625 64.842588 
L 406.869851 64.731856 
L 406.98752 64.625263 
L 407.103282 64.514531 
L 407.216307 64.418287 
L 407.337605 64.310659 
L 407.337605 64.30859 
L 407.448661 64.197858 
L 407.448702 64.197858 
L 407.584349 64.087125 
L 407.700173 63.971219 
L 407.797253 63.861522 
L 407.906566 63.764243 
L 407.90835 63.764243 
L 408.009452 63.654546 
L 408.1186 63.553127 
L 408.120549 63.553127 
L 408.223891 63.44343 
L 408.33138 63.36271 
L 408.334884 63.36271 
L 408.424271 63.253012 
L 408.535327 63.132966 
L 408.535347 63.132966 
L 408.635309 63.023269 
L 408.743545 62.894944 
L 408.746406 62.894944 
L 408.858498 62.785247 
L 408.965531 62.681759 
L 408.969595 62.681759 
L 409.067794 62.572061 
L 409.067794 62.571026 
L 409.181711 62.431318 
L 409.289615 62.32162 
L 409.400711 62.182947 
L 409.49974 62.073249 
L 409.610796 61.926296 
L 409.71252 61.816599 
L 409.820009 61.698623 
L 409.823617 61.698623 
L 409.937658 61.588925 
L 410.047303 61.448182 
L 410.048755 61.448182 
L 410.14148 61.338485 
L 410.247559 61.232927 
L 410.252577 61.232927 
L 410.348579 61.12323 
L 410.459468 60.980416 
L 410.459676 60.980416 
L 410.528266 60.870719 
L 410.639197 60.748603 
L 410.639363 60.748603 
L 410.747847 60.638906 
L 410.857866 60.508511 
L 410.858944 60.508511 
L 410.958263 60.398814 
L 411.06853 60.287047 
L 411.069318 60.287047 
L 411.170131 60.177349 
L 411.279403 60.036606 
L 411.281207 60.036606 
L 411.363005 59.926908 
L 411.472858 59.788235 
L 411.47406 59.788235 
L 411.572136 59.678537 
L 411.678339 59.552282 
L 411.683232 59.552282 
L 411.761361 59.442585 
L 411.761361 59.44155 
L 411.880129 59.252167 
L 411.95295 59.14247 
L 412.061724 58.974819 
L 412.064046 58.974819 
L 412.151547 58.865122 
L 412.261441 58.749215 
L 412.262644 58.749215 
L 412.335381 58.639518 
L 412.434825 58.471867 
L 412.446478 58.471867 
L 412.536923 58.36217 
L 412.64802 58.182101 
L 412.721794 58.072404 
L 412.826006 57.910963 
L 412.832849 57.910963 
L 412.888045 57.801265 
L 412.998229 57.621196 
L 412.999038 57.621196 
L 413.053798 57.511499 
L 413.164895 57.292104 
L 413.228841 57.182407 
L 413.336827 56.991989 
L 413.339938 56.991989 
L 413.420222 56.882292 
L 413.531195 56.671177 
L 413.531319 56.671177 
L 413.588796 56.561479 
L 413.698192 56.331736 
L 413.699851 56.331736 
L 413.761143 56.222039 
L 413.872074 56.010923 
L 413.872198 56.010923 
L 413.934983 55.901226 
L 414.045126 55.69425 
L 414.04608 55.69425 
L 414.108782 55.584553 
L 414.217763 55.361019 
L 414.219878 55.361019 
L 414.282787 55.251321 
L 414.393262 55.017439 
L 414.393884 55.017439 
L 414.44908 54.907741 
L 414.559347 54.591068 
L 414.560177 54.591068 
L 414.611101 54.481371 
L 414.719461 54.144 
L 414.72 54.144 
" clip-path="url(#pab6a7f2f89)" style="fill: none; stroke: #ff8c00; stroke-width: 1.5; stroke-linecap: square"/>
   </g>
   <g id="line2d_14">
    <path d="M 74.605714 307.584 
L 414.72 54.144 
" clip-path="url(#pab6a7f2f89)" style="fill: none; stroke-dasharray: 5.55,2.4; stroke-dashoffset: 0; stroke: #0000ff; stroke-width: 1.5"/>
   </g>
   <g id="patch_3">
    <path d="M 57.6 307.584 
L 57.6 41.472 
" style="fill: none; stroke: #000000; stroke-width: 0.8; stroke-linejoin: miter; stroke-linecap: square"/>
   </g>
   <g id="patch_4">
    <path d="M 414.72 307.584 
L 414.72 41.472 
" style="fill: none; stroke: #000000; stroke-width: 0.8; stroke-linejoin: miter; stroke-linecap: square"/>
   </g>
   <g id="patch_5">
    <path d="M 57.6 307.584 
L 414.72 307.584 
" style="fill: none; stroke: #000000; stroke-width: 0.8; stroke-linejoin: miter; stroke-linecap: square"/>
   </g>
   <g id="patch_6">
    <path d="M 57.6 41.472 
L 414.72 41.472 
" style="fill: none; stroke: #000000; stroke-width: 0.8; stroke-linejoin: miter; stroke-linecap: square"/>
   </g>
   <g id="text_15">
    <!-- ROC CURVE -->
    <g transform="translate(200.855625 35.472)scale(0.12 -0.12)">
     <defs>
      <path id="DejaVuSans-4f" d="M 2522 4238 
Q 1834 4238 1429 3725 
Q 1025 3213 1025 2328 
Q 1025 1447 1429 934 
Q 1834 422 2522 422 
Q 3209 422 3611 934 
Q 4013 1447 4013 2328 
Q 4013 3213 3611 3725 
Q 3209 4238 2522 4238 
z
M 2522 4750 
Q 3503 4750 4090 4092 
Q 4678 3434 4678 2328 
Q 4678 1225 4090 567 
Q 3503 -91 2522 -91 
Q 1538 -91 948 565 
Q 359 1222 359 2328 
Q 359 3434 948 4092 
Q 1538 4750 2522 4750 
z
" transform="scale(0.015625)"/>
      <path id="DejaVuSans-43" d="M 4122 4306 
L 4122 3641 
Q 3803 3938 3442 4084 
Q 3081 4231 2675 4231 
Q 1875 4231 1450 3742 
Q 1025 3253 1025 2328 
Q 1025 1406 1450 917 
Q 1875 428 2675 428 
Q 3081 428 3442 575 
Q 3803 722 4122 1019 
L 4122 359 
Q 3791 134 3420 21 
Q 3050 -91 2638 -91 
Q 1578 -91 968 557 
Q 359 1206 359 2328 
Q 359 3453 968 4101 
Q 1578 4750 2638 4750 
Q 3056 4750 3426 4639 
Q 3797 4528 4122 4306 
z
" transform="scale(0.015625)"/>
      <path id="DejaVuSans-55" d="M 556 4666 
L 1191 4666 
L 1191 1831 
Q 1191 1081 1462 751 
Q 1734 422 2344 422 
Q 2950 422 3222 751 
Q 3494 1081 3494 1831 
L 3494 4666 
L 4128 4666 
L 4128 1753 
Q 4128 841 3676 375 
Q 3225 -91 2344 -91 
Q 1459 -91 1007 375 
Q 556 841 556 1753 
L 556 4666 
z
" transform="scale(0.015625)"/>
      <path id="DejaVuSans-56" d="M 1831 0 
L 50 4666 
L 709 4666 
L 2188 738 
L 3669 4666 
L 4325 4666 
L 2547 0 
L 1831 0 
z
" transform="scale(0.015625)"/>
      <path id="DejaVuSans-45" d="M 628 4666 
L 3578 4666 
L 3578 4134 
L 1259 4134 
L 1259 2753 
L 3481 2753 
L 3481 2222 
L 1259 2222 
L 1259 531 
L 3634 531 
L 3634 0 
L 628 0 
L 628 4666 
z
" transform="scale(0.015625)"/>
     </defs>
     <use xlink:href="#DejaVuSans-52"/>
     <use xlink:href="#DejaVuSans-4f" x="69.482422"/>
     <use xlink:href="#DejaVuSans-43" x="148.193359"/>
     <use xlink:href="#DejaVuSans-20" x="218.017578"/>
     <use xlink:href="#DejaVuSans-43" x="249.804688"/>
     <use xlink:href="#DejaVuSans-55" x="319.628906"/>
     <use xlink:href="#DejaVuSans-52" x="392.822266"/>
     <use xlink:href="#DejaVuSans-56" x="456.804688"/>
     <use xlink:href="#DejaVuSans-45" x="525.212891"/>
    </g>
   </g>
   <g id="legend_1">
    <g id="patch_7">
     <path d="M 234.97 302.584 
L 407.72 302.584 
Q 409.72 302.584 409.72 300.584 
L 409.72 286.905875 
Q 409.72 284.905875 407.72 284.905875 
L 234.97 284.905875 
Q 232.97 284.905875 232.97 286.905875 
L 232.97 300.584 
Q 232.97 302.584 234.97 302.584 
z
" style="fill: #ffffff; opacity: 0.8; stroke: #cccccc; stroke-linejoin: miter"/>
    </g>
    <g id="line2d_15">
     <path d="M 236.97 293.004312 
L 246.97 293.004312 
L 256.97 293.004312 
" style="fill: none; stroke: #ff8c00; stroke-width: 1.5; stroke-linecap: square"/>
    </g>
    <g id="text_16">
     <!-- ROC curve (ROC AUC=0.44) -->
     <g transform="translate(264.97 296.504312)scale(0.1 -0.1)">
      <defs>
       <path id="DejaVuSans-63" d="M 3122 3366 
L 3122 2828 
Q 2878 2963 2633 3030 
Q 2388 3097 2138 3097 
Q 1578 3097 1268 2742 
Q 959 2388 959 1747 
Q 959 1106 1268 751 
Q 1578 397 2138 397 
Q 2388 397 2633 464 
Q 2878 531 3122 666 
L 3122 134 
Q 2881 22 2623 -34 
Q 2366 -91 2075 -91 
Q 1284 -91 818 406 
Q 353 903 353 1747 
Q 353 2603 823 3093 
Q 1294 3584 2113 3584 
Q 2378 3584 2631 3529 
Q 2884 3475 3122 3366 
z
" transform="scale(0.015625)"/>
       <path id="DejaVuSans-28" d="M 1984 4856 
Q 1566 4138 1362 3434 
Q 1159 2731 1159 2009 
Q 1159 1288 1364 580 
Q 1569 -128 1984 -844 
L 1484 -844 
Q 1016 -109 783 600 
Q 550 1309 550 2009 
Q 550 2706 781 3412 
Q 1013 4119 1484 4856 
L 1984 4856 
z
" transform="scale(0.015625)"/>
       <path id="DejaVuSans-41" d="M 2188 4044 
L 1331 1722 
L 3047 1722 
L 2188 4044 
z
M 1831 4666 
L 2547 4666 
L 4325 0 
L 3669 0 
L 3244 1197 
L 1141 1197 
L 716 0 
L 50 0 
L 1831 4666 
z
" transform="scale(0.015625)"/>
       <path id="DejaVuSans-3d" d="M 678 2906 
L 4684 2906 
L 4684 2381 
L 678 2381 
L 678 2906 
z
M 678 1631 
L 4684 1631 
L 4684 1100 
L 678 1100 
L 678 1631 
z
" transform="scale(0.015625)"/>
       <path id="DejaVuSans-29" d="M 513 4856 
L 1013 4856 
Q 1481 4119 1714 3412 
Q 1947 2706 1947 2009 
Q 1947 1309 1714 600 
Q 1481 -109 1013 -844 
L 513 -844 
Q 928 -128 1133 580 
Q 1338 1288 1338 2009 
Q 1338 2731 1133 3434 
Q 928 4138 513 4856 
z
" transform="scale(0.015625)"/>
      </defs>
      <use xlink:href="#DejaVuSans-52"/>
      <use xlink:href="#DejaVuSans-4f" x="69.482422"/>
      <use xlink:href="#DejaVuSans-43" x="148.193359"/>
      <use xlink:href="#DejaVuSans-20" x="218.017578"/>
      <use xlink:href="#DejaVuSans-63" x="249.804688"/>
      <use xlink:href="#DejaVuSans-75" x="304.785156"/>
      <use xlink:href="#DejaVuSans-72" x="368.164062"/>
      <use xlink:href="#DejaVuSans-76" x="409.277344"/>
      <use xlink:href="#DejaVuSans-65" x="468.457031"/>
      <use xlink:href="#DejaVuSans-20" x="529.980469"/>
      <use xlink:href="#DejaVuSans-28" x="561.767578"/>
      <use xlink:href="#DejaVuSans-52" x="600.78125"/>
      <use xlink:href="#DejaVuSans-4f" x="670.263672"/>
      <use xlink:href="#DejaVuSans-43" x="748.974609"/>
      <use xlink:href="#DejaVuSans-20" x="818.798828"/>
      <use xlink:href="#DejaVuSans-41" x="850.585938"/>
      <use xlink:href="#DejaVuSans-55" x="918.994141"/>
      <use xlink:href="#DejaVuSans-43" x="992.1875"/>
      <use xlink:href="#DejaVuSans-3d" x="1062.011719"/>
      <use xlink:href="#DejaVuSans-30" x="1145.800781"/>
      <use xlink:href="#DejaVuSans-2e" x="1209.423828"/>
      <use xlink:href="#DejaVuSans-34" x="1241.210938"/>
      <use xlink:href="#DejaVuSans-34" x="1304.833984"/>
      <use xlink:href="#DejaVuSans-29" x="1368.457031"/>
     </g>
    </g>
   </g>
  </g>
 </g>
 <defs>
  <clipPath id="pab6a7f2f89">
   <rect x="57.6" y="41.472" width="357.12" height="266.112"/>
  </clipPath>
 </defs>
</svg>
