<?xml version="1.0" encoding="utf-8" standalone="no"?>
<!DOCTYPE svg PUBLIC "-//W3C//DTD SVG 1.1//EN"
  "http://www.w3.org/Graphics/SVG/1.1/DTD/svg11.dtd">
<svg xmlns:xlink="http://www.w3.org/1999/xlink" width="460.8pt" height="345.6pt" viewBox="0 0 460.8 345.6" xmlns="http://www.w3.org/2000/svg" version="1.1">
 <metadata>
  <rdf:RDF xmlns:dc="http://purl.org/dc/elements/1.1/" xmlns:cc="http://creativecommons.org/ns#" xmlns:rdf="http://www.w3.org/1999/02/22-rdf-syntax-ns#">
   <cc:Work>
    <dc:type rdf:resource="http://purl.org/dc/dcmitype/StillImage"/>
    <dc:date>2022-07-01T21:22:20.784608</dc:date>
    <dc:format>image/svg+xml</dc:format>
    <dc:creator>
     <cc:Agent>
      <dc:title>Matplotlib v3.5.1, https://matplotlib.org/</dc:title>
     </cc:Agent>
    </dc:creator>
   </cc:Work>
  </rdf:RDF>
 </metadata>
 <defs>
  <style type="text/css">*{stroke-linejoin: round; stroke-linecap: butt}</style>
 </defs>
 <g id="figure_1">
  <g id="patch_1">
   <path d="M 0 345.6 
L 460.8 345.6 
L 460.8 0 
L 0 0 
z
" style="fill: #ffffff"/>
  </g>
  <g id="axes_1">
   <g id="patch_2">
    <path d="M 57.6 307.584 
L 414.72 307.584 
L 414.72 41.472 
L 57.6 41.472 
z
" style="fill: #ffffff"/>
   </g>
   <g id="matplotlib.axis_1">
    <g id="xtick_1">
     <g id="line2d_1">
      <defs>
       <path id="m9fbb20f9a6" d="M 0 0 
L 0 3.5 
" style="stroke: #000000; stroke-width: 0.8"/>
      </defs>
      <g>
       <use xlink:href="#m9fbb20f9a6" x="74.605714" y="307.584" style="stroke: #000000; stroke-width: 0.8"/>
      </g>
     </g>
     <g id="text_1">
      <!-- 0.0 -->
      <g transform="translate(66.654152 322.182437)scale(0.1 -0.1)">
       <defs>
        <path id="DejaVuSans-30" d="M 2034 4250 
Q 1547 4250 1301 3770 
Q 1056 3291 1056 2328 
Q 1056 1369 1301 889 
Q 1547 409 2034 409 
Q 2525 409 2770 889 
Q 3016 1369 3016 2328 
Q 3016 3291 2770 3770 
Q 2525 4250 2034 4250 
z
M 2034 4750 
Q 2819 4750 3233 4129 
Q 3647 3509 3647 2328 
Q 3647 1150 3233 529 
Q 2819 -91 2034 -91 
Q 1250 -91 836 529 
Q 422 1150 422 2328 
Q 422 3509 836 4129 
Q 1250 4750 2034 4750 
z
" transform="scale(0.015625)"/>
        <path id="DejaVuSans-2e" d="M 684 794 
L 1344 794 
L 1344 0 
L 684 0 
L 684 794 
z
" transform="scale(0.015625)"/>
       </defs>
       <use xlink:href="#DejaVuSans-30"/>
       <use xlink:href="#DejaVuSans-2e" x="63.623047"/>
       <use xlink:href="#DejaVuSans-30" x="95.410156"/>
      </g>
     </g>
    </g>
    <g id="xtick_2">
     <g id="line2d_2">
      <g>
       <use xlink:href="#m9fbb20f9a6" x="142.628571" y="307.584" style="stroke: #000000; stroke-width: 0.8"/>
      </g>
     </g>
     <g id="text_2">
      <!-- 0.2 -->
      <g transform="translate(134.677009 322.182437)scale(0.1 -0.1)">
       <defs>
        <path id="DejaVuSans-32" d="M 1228 531 
L 3431 531 
L 3431 0 
L 469 0 
L 469 531 
Q 828 903 1448 1529 
Q 2069 2156 2228 2338 
Q 2531 2678 2651 2914 
Q 2772 3150 2772 3378 
Q 2772 3750 2511 3984 
Q 2250 4219 1831 4219 
Q 1534 4219 1204 4116 
Q 875 4013 500 3803 
L 500 4441 
Q 881 4594 1212 4672 
Q 1544 4750 1819 4750 
Q 2544 4750 2975 4387 
Q 3406 4025 3406 3419 
Q 3406 3131 3298 2873 
Q 3191 2616 2906 2266 
Q 2828 2175 2409 1742 
Q 1991 1309 1228 531 
z
" transform="scale(0.015625)"/>
       </defs>
       <use xlink:href="#DejaVuSans-30"/>
       <use xlink:href="#DejaVuSans-2e" x="63.623047"/>
       <use xlink:href="#DejaVuSans-32" x="95.410156"/>
      </g>
     </g>
    </g>
    <g id="xtick_3">
     <g id="line2d_3">
      <g>
       <use xlink:href="#m9fbb20f9a6" x="210.651429" y="307.584" style="stroke: #000000; stroke-width: 0.8"/>
      </g>
     </g>
     <g id="text_3">
      <!-- 0.4 -->
      <g transform="translate(202.699866 322.182437)scale(0.1 -0.1)">
       <defs>
        <path id="DejaVuSans-34" d="M 2419 4116 
L 825 1625 
L 2419 1625 
L 2419 4116 
z
M 2253 4666 
L 3047 4666 
L 3047 1625 
L 3713 1625 
L 3713 1100 
L 3047 1100 
L 3047 0 
L 2419 0 
L 2419 1100 
L 313 1100 
L 313 1709 
L 2253 4666 
z
" transform="scale(0.015625)"/>
       </defs>
       <use xlink:href="#DejaVuSans-30"/>
       <use xlink:href="#DejaVuSans-2e" x="63.623047"/>
       <use xlink:href="#DejaVuSans-34" x="95.410156"/>
      </g>
     </g>
    </g>
    <g id="xtick_4">
     <g id="line2d_4">
      <g>
       <use xlink:href="#m9fbb20f9a6" x="278.674286" y="307.584" style="stroke: #000000; stroke-width: 0.8"/>
      </g>
     </g>
     <g id="text_4">
      <!-- 0.6 -->
      <g transform="translate(270.722723 322.182437)scale(0.1 -0.1)">
       <defs>
        <path id="DejaVuSans-36" d="M 2113 2584 
Q 1688 2584 1439 2293 
Q 1191 2003 1191 1497 
Q 1191 994 1439 701 
Q 1688 409 2113 409 
Q 2538 409 2786 701 
Q 3034 994 3034 1497 
Q 3034 2003 2786 2293 
Q 2538 2584 2113 2584 
z
M 3366 4563 
L 3366 3988 
Q 3128 4100 2886 4159 
Q 2644 4219 2406 4219 
Q 1781 4219 1451 3797 
Q 1122 3375 1075 2522 
Q 1259 2794 1537 2939 
Q 1816 3084 2150 3084 
Q 2853 3084 3261 2657 
Q 3669 2231 3669 1497 
Q 3669 778 3244 343 
Q 2819 -91 2113 -91 
Q 1303 -91 875 529 
Q 447 1150 447 2328 
Q 447 3434 972 4092 
Q 1497 4750 2381 4750 
Q 2619 4750 2861 4703 
Q 3103 4656 3366 4563 
z
" transform="scale(0.015625)"/>
       </defs>
       <use xlink:href="#DejaVuSans-30"/>
       <use xlink:href="#DejaVuSans-2e" x="63.623047"/>
       <use xlink:href="#DejaVuSans-36" x="95.410156"/>
      </g>
     </g>
    </g>
    <g id="xtick_5">
     <g id="line2d_5">
      <g>
       <use xlink:href="#m9fbb20f9a6" x="346.697143" y="307.584" style="stroke: #000000; stroke-width: 0.8"/>
      </g>
     </g>
     <g id="text_5">
      <!-- 0.8 -->
      <g transform="translate(338.74558 322.182437)scale(0.1 -0.1)">
       <defs>
        <path id="DejaVuSans-38" d="M 2034 2216 
Q 1584 2216 1326 1975 
Q 1069 1734 1069 1313 
Q 1069 891 1326 650 
Q 1584 409 2034 409 
Q 2484 409 2743 651 
Q 3003 894 3003 1313 
Q 3003 1734 2745 1975 
Q 2488 2216 2034 2216 
z
M 1403 2484 
Q 997 2584 770 2862 
Q 544 3141 544 3541 
Q 544 4100 942 4425 
Q 1341 4750 2034 4750 
Q 2731 4750 3128 4425 
Q 3525 4100 3525 3541 
Q 3525 3141 3298 2862 
Q 3072 2584 2669 2484 
Q 3125 2378 3379 2068 
Q 3634 1759 3634 1313 
Q 3634 634 3220 271 
Q 2806 -91 2034 -91 
Q 1263 -91 848 271 
Q 434 634 434 1313 
Q 434 1759 690 2068 
Q 947 2378 1403 2484 
z
M 1172 3481 
Q 1172 3119 1398 2916 
Q 1625 2713 2034 2713 
Q 2441 2713 2670 2916 
Q 2900 3119 2900 3481 
Q 2900 3844 2670 4047 
Q 2441 4250 2034 4250 
Q 1625 4250 1398 4047 
Q 1172 3844 1172 3481 
z
" transform="scale(0.015625)"/>
       </defs>
       <use xlink:href="#DejaVuSans-30"/>
       <use xlink:href="#DejaVuSans-2e" x="63.623047"/>
       <use xlink:href="#DejaVuSans-38" x="95.410156"/>
      </g>
     </g>
    </g>
    <g id="xtick_6">
     <g id="line2d_6">
      <g>
       <use xlink:href="#m9fbb20f9a6" x="414.72" y="307.584" style="stroke: #000000; stroke-width: 0.8"/>
      </g>
     </g>
     <g id="text_6">
      <!-- 1.0 -->
      <g transform="translate(406.768438 322.182437)scale(0.1 -0.1)">
       <defs>
        <path id="DejaVuSans-31" d="M 794 531 
L 1825 531 
L 1825 4091 
L 703 3866 
L 703 4441 
L 1819 4666 
L 2450 4666 
L 2450 531 
L 3481 531 
L 3481 0 
L 794 0 
L 794 531 
z
" transform="scale(0.015625)"/>
       </defs>
       <use xlink:href="#DejaVuSans-31"/>
       <use xlink:href="#DejaVuSans-2e" x="63.623047"/>
       <use xlink:href="#DejaVuSans-30" x="95.410156"/>
      </g>
     </g>
    </g>
    <g id="text_7">
     <!-- False Positive Rate -->
     <g transform="translate(189.693594 335.860562)scale(0.1 -0.1)">
      <defs>
       <path id="DejaVuSans-46" d="M 628 4666 
L 3309 4666 
L 3309 4134 
L 1259 4134 
L 1259 2759 
L 3109 2759 
L 3109 2228 
L 1259 2228 
L 1259 0 
L 628 0 
L 628 4666 
z
" transform="scale(0.015625)"/>
       <path id="DejaVuSans-61" d="M 2194 1759 
Q 1497 1759 1228 1600 
Q 959 1441 959 1056 
Q 959 750 1161 570 
Q 1363 391 1709 391 
Q 2188 391 2477 730 
Q 2766 1069 2766 1631 
L 2766 1759 
L 2194 1759 
z
M 3341 1997 
L 3341 0 
L 2766 0 
L 2766 531 
Q 2569 213 2275 61 
Q 1981 -91 1556 -91 
Q 1019 -91 701 211 
Q 384 513 384 1019 
Q 384 1609 779 1909 
Q 1175 2209 1959 2209 
L 2766 2209 
L 2766 2266 
Q 2766 2663 2505 2880 
Q 2244 3097 1772 3097 
Q 1472 3097 1187 3025 
Q 903 2953 641 2809 
L 641 3341 
Q 956 3463 1253 3523 
Q 1550 3584 1831 3584 
Q 2591 3584 2966 3190 
Q 3341 2797 3341 1997 
z
" transform="scale(0.015625)"/>
       <path id="DejaVuSans-6c" d="M 603 4863 
L 1178 4863 
L 1178 0 
L 603 0 
L 603 4863 
z
" transform="scale(0.015625)"/>
       <path id="DejaVuSans-73" d="M 2834 3397 
L 2834 2853 
Q 2591 2978 2328 3040 
Q 2066 3103 1784 3103 
Q 1356 3103 1142 2972 
Q 928 2841 928 2578 
Q 928 2378 1081 2264 
Q 1234 2150 1697 2047 
L 1894 2003 
Q 2506 1872 2764 1633 
Q 3022 1394 3022 966 
Q 3022 478 2636 193 
Q 2250 -91 1575 -91 
Q 1294 -91 989 -36 
Q 684 19 347 128 
L 347 722 
Q 666 556 975 473 
Q 1284 391 1588 391 
Q 1994 391 2212 530 
Q 2431 669 2431 922 
Q 2431 1156 2273 1281 
Q 2116 1406 1581 1522 
L 1381 1569 
Q 847 1681 609 1914 
Q 372 2147 372 2553 
Q 372 3047 722 3315 
Q 1072 3584 1716 3584 
Q 2034 3584 2315 3537 
Q 2597 3491 2834 3397 
z
" transform="scale(0.015625)"/>
       <path id="DejaVuSans-65" d="M 3597 1894 
L 3597 1613 
L 953 1613 
Q 991 1019 1311 708 
Q 1631 397 2203 397 
Q 2534 397 2845 478 
Q 3156 559 3463 722 
L 3463 178 
Q 3153 47 2828 -22 
Q 2503 -91 2169 -91 
Q 1331 -91 842 396 
Q 353 884 353 1716 
Q 353 2575 817 3079 
Q 1281 3584 2069 3584 
Q 2775 3584 3186 3129 
Q 3597 2675 3597 1894 
z
M 3022 2063 
Q 3016 2534 2758 2815 
Q 2500 3097 2075 3097 
Q 1594 3097 1305 2825 
Q 1016 2553 972 2059 
L 3022 2063 
z
" transform="scale(0.015625)"/>
       <path id="DejaVuSans-20" transform="scale(0.015625)"/>
       <path id="DejaVuSans-50" d="M 1259 4147 
L 1259 2394 
L 2053 2394 
Q 2494 2394 2734 2622 
Q 2975 2850 2975 3272 
Q 2975 3691 2734 3919 
Q 2494 4147 2053 4147 
L 1259 4147 
z
M 628 4666 
L 2053 4666 
Q 2838 4666 3239 4311 
Q 3641 3956 3641 3272 
Q 3641 2581 3239 2228 
Q 2838 1875 2053 1875 
L 1259 1875 
L 1259 0 
L 628 0 
L 628 4666 
z
" transform="scale(0.015625)"/>
       <path id="DejaVuSans-6f" d="M 1959 3097 
Q 1497 3097 1228 2736 
Q 959 2375 959 1747 
Q 959 1119 1226 758 
Q 1494 397 1959 397 
Q 2419 397 2687 759 
Q 2956 1122 2956 1747 
Q 2956 2369 2687 2733 
Q 2419 3097 1959 3097 
z
M 1959 3584 
Q 2709 3584 3137 3096 
Q 3566 2609 3566 1747 
Q 3566 888 3137 398 
Q 2709 -91 1959 -91 
Q 1206 -91 779 398 
Q 353 888 353 1747 
Q 353 2609 779 3096 
Q 1206 3584 1959 3584 
z
" transform="scale(0.015625)"/>
       <path id="DejaVuSans-69" d="M 603 3500 
L 1178 3500 
L 1178 0 
L 603 0 
L 603 3500 
z
M 603 4863 
L 1178 4863 
L 1178 4134 
L 603 4134 
L 603 4863 
z
" transform="scale(0.015625)"/>
       <path id="DejaVuSans-74" d="M 1172 4494 
L 1172 3500 
L 2356 3500 
L 2356 3053 
L 1172 3053 
L 1172 1153 
Q 1172 725 1289 603 
Q 1406 481 1766 481 
L 2356 481 
L 2356 0 
L 1766 0 
Q 1100 0 847 248 
Q 594 497 594 1153 
L 594 3053 
L 172 3053 
L 172 3500 
L 594 3500 
L 594 4494 
L 1172 4494 
z
" transform="scale(0.015625)"/>
       <path id="DejaVuSans-76" d="M 191 3500 
L 800 3500 
L 1894 563 
L 2988 3500 
L 3597 3500 
L 2284 0 
L 1503 0 
L 191 3500 
z
" transform="scale(0.015625)"/>
       <path id="DejaVuSans-52" d="M 2841 2188 
Q 3044 2119 3236 1894 
Q 3428 1669 3622 1275 
L 4263 0 
L 3584 0 
L 2988 1197 
Q 2756 1666 2539 1819 
Q 2322 1972 1947 1972 
L 1259 1972 
L 1259 0 
L 628 0 
L 628 4666 
L 2053 4666 
Q 2853 4666 3247 4331 
Q 3641 3997 3641 3322 
Q 3641 2881 3436 2590 
Q 3231 2300 2841 2188 
z
M 1259 4147 
L 1259 2491 
L 2053 2491 
Q 2509 2491 2742 2702 
Q 2975 2913 2975 3322 
Q 2975 3731 2742 3939 
Q 2509 4147 2053 4147 
L 1259 4147 
z
" transform="scale(0.015625)"/>
      </defs>
      <use xlink:href="#DejaVuSans-46"/>
      <use xlink:href="#DejaVuSans-61" x="48.394531"/>
      <use xlink:href="#DejaVuSans-6c" x="109.673828"/>
      <use xlink:href="#DejaVuSans-73" x="137.457031"/>
      <use xlink:href="#DejaVuSans-65" x="189.556641"/>
      <use xlink:href="#DejaVuSans-20" x="251.080078"/>
      <use xlink:href="#DejaVuSans-50" x="282.867188"/>
      <use xlink:href="#DejaVuSans-6f" x="339.544922"/>
      <use xlink:href="#DejaVuSans-73" x="400.726562"/>
      <use xlink:href="#DejaVuSans-69" x="452.826172"/>
      <use xlink:href="#DejaVuSans-74" x="480.609375"/>
      <use xlink:href="#DejaVuSans-69" x="519.818359"/>
      <use xlink:href="#DejaVuSans-76" x="547.601562"/>
      <use xlink:href="#DejaVuSans-65" x="606.78125"/>
      <use xlink:href="#DejaVuSans-20" x="668.304688"/>
      <use xlink:href="#DejaVuSans-52" x="700.091797"/>
      <use xlink:href="#DejaVuSans-61" x="767.324219"/>
      <use xlink:href="#DejaVuSans-74" x="828.603516"/>
      <use xlink:href="#DejaVuSans-65" x="867.8125"/>
     </g>
    </g>
   </g>
   <g id="matplotlib.axis_2">
    <g id="ytick_1">
     <g id="line2d_7">
      <defs>
       <path id="m95619612e5" d="M 0 0 
L -3.5 0 
" style="stroke: #000000; stroke-width: 0.8"/>
      </defs>
      <g>
       <use xlink:href="#m95619612e5" x="57.6" y="307.584" style="stroke: #000000; stroke-width: 0.8"/>
      </g>
     </g>
     <g id="text_8">
      <!-- 0.0 -->
      <g transform="translate(34.696875 311.383219)scale(0.1 -0.1)">
       <use xlink:href="#DejaVuSans-30"/>
       <use xlink:href="#DejaVuSans-2e" x="63.623047"/>
       <use xlink:href="#DejaVuSans-30" x="95.410156"/>
      </g>
     </g>
    </g>
    <g id="ytick_2">
     <g id="line2d_8">
      <g>
       <use xlink:href="#m95619612e5" x="57.6" y="256.896" style="stroke: #000000; stroke-width: 0.8"/>
      </g>
     </g>
     <g id="text_9">
      <!-- 0.2 -->
      <g transform="translate(34.696875 260.695219)scale(0.1 -0.1)">
       <use xlink:href="#DejaVuSans-30"/>
       <use xlink:href="#DejaVuSans-2e" x="63.623047"/>
       <use xlink:href="#DejaVuSans-32" x="95.410156"/>
      </g>
     </g>
    </g>
    <g id="ytick_3">
     <g id="line2d_9">
      <g>
       <use xlink:href="#m95619612e5" x="57.6" y="206.208" style="stroke: #000000; stroke-width: 0.8"/>
      </g>
     </g>
     <g id="text_10">
      <!-- 0.4 -->
      <g transform="translate(34.696875 210.007219)scale(0.1 -0.1)">
       <use xlink:href="#DejaVuSans-30"/>
       <use xlink:href="#DejaVuSans-2e" x="63.623047"/>
       <use xlink:href="#DejaVuSans-34" x="95.410156"/>
      </g>
     </g>
    </g>
    <g id="ytick_4">
     <g id="line2d_10">
      <g>
       <use xlink:href="#m95619612e5" x="57.6" y="155.52" style="stroke: #000000; stroke-width: 0.8"/>
      </g>
     </g>
     <g id="text_11">
      <!-- 0.6 -->
      <g transform="translate(34.696875 159.319219)scale(0.1 -0.1)">
       <use xlink:href="#DejaVuSans-30"/>
       <use xlink:href="#DejaVuSans-2e" x="63.623047"/>
       <use xlink:href="#DejaVuSans-36" x="95.410156"/>
      </g>
     </g>
    </g>
    <g id="ytick_5">
     <g id="line2d_11">
      <g>
       <use xlink:href="#m95619612e5" x="57.6" y="104.832" style="stroke: #000000; stroke-width: 0.8"/>
      </g>
     </g>
     <g id="text_12">
      <!-- 0.8 -->
      <g transform="translate(34.696875 108.631219)scale(0.1 -0.1)">
       <use xlink:href="#DejaVuSans-30"/>
       <use xlink:href="#DejaVuSans-2e" x="63.623047"/>
       <use xlink:href="#DejaVuSans-38" x="95.410156"/>
      </g>
     </g>
    </g>
    <g id="ytick_6">
     <g id="line2d_12">
      <g>
       <use xlink:href="#m95619612e5" x="57.6" y="54.144" style="stroke: #000000; stroke-width: 0.8"/>
      </g>
     </g>
     <g id="text_13">
      <!-- 1.0 -->
      <g transform="translate(34.696875 57.943219)scale(0.1 -0.1)">
       <use xlink:href="#DejaVuSans-31"/>
       <use xlink:href="#DejaVuSans-2e" x="63.623047"/>
       <use xlink:href="#DejaVuSans-30" x="95.410156"/>
      </g>
     </g>
    </g>
    <g id="text_14">
     <!-- True Positive Rate -->
     <g transform="translate(28.617187 219.057687)rotate(-90)scale(0.1 -0.1)">
      <defs>
       <path id="DejaVuSans-54" d="M -19 4666 
L 3928 4666 
L 3928 4134 
L 2272 4134 
L 2272 0 
L 1638 0 
L 1638 4134 
L -19 4134 
L -19 4666 
z
" transform="scale(0.015625)"/>
       <path id="DejaVuSans-72" d="M 2631 2963 
Q 2534 3019 2420 3045 
Q 2306 3072 2169 3072 
Q 1681 3072 1420 2755 
Q 1159 2438 1159 1844 
L 1159 0 
L 581 0 
L 581 3500 
L 1159 3500 
L 1159 2956 
Q 1341 3275 1631 3429 
Q 1922 3584 2338 3584 
Q 2397 3584 2469 3576 
Q 2541 3569 2628 3553 
L 2631 2963 
z
" transform="scale(0.015625)"/>
       <path id="DejaVuSans-75" d="M 544 1381 
L 544 3500 
L 1119 3500 
L 1119 1403 
Q 1119 906 1312 657 
Q 1506 409 1894 409 
Q 2359 409 2629 706 
Q 2900 1003 2900 1516 
L 2900 3500 
L 3475 3500 
L 3475 0 
L 2900 0 
L 2900 538 
Q 2691 219 2414 64 
Q 2138 -91 1772 -91 
Q 1169 -91 856 284 
Q 544 659 544 1381 
z
M 1991 3584 
L 1991 3584 
z
" transform="scale(0.015625)"/>
      </defs>
      <use xlink:href="#DejaVuSans-54"/>
      <use xlink:href="#DejaVuSans-72" x="46.333984"/>
      <use xlink:href="#DejaVuSans-75" x="87.447266"/>
      <use xlink:href="#DejaVuSans-65" x="150.826172"/>
      <use xlink:href="#DejaVuSans-20" x="212.349609"/>
      <use xlink:href="#DejaVuSans-50" x="244.136719"/>
      <use xlink:href="#DejaVuSans-6f" x="300.814453"/>
      <use xlink:href="#DejaVuSans-73" x="361.996094"/>
      <use xlink:href="#DejaVuSans-69" x="414.095703"/>
      <use xlink:href="#DejaVuSans-74" x="441.878906"/>
      <use xlink:href="#DejaVuSans-69" x="481.087891"/>
      <use xlink:href="#DejaVuSans-76" x="508.871094"/>
      <use xlink:href="#DejaVuSans-65" x="568.050781"/>
      <use xlink:href="#DejaVuSans-20" x="629.574219"/>
      <use xlink:href="#DejaVuSans-52" x="661.361328"/>
      <use xlink:href="#DejaVuSans-61" x="728.59375"/>
      <use xlink:href="#DejaVuSans-74" x="789.873047"/>
      <use xlink:href="#DejaVuSans-65" x="829.082031"/>
     </g>
    </g>
   </g>
   <g id="line2d_13">
    <path d="M 74.605714 307.584 
L 75.67488 302.751111 
L 75.716847 302.641414 
L 75.827156 302.304043 
L 75.827902 302.304043 
L 75.859875 302.194346 
L 75.970931 301.873533 
L 76.024841 301.763836 
L 76.135606 301.517534 
L 76.135938 301.517534 
L 76.185701 301.407837 
L 76.303267 301.084955 
L 76.350376 300.975257 
L 76.460353 300.702049 
L 76.461224 300.702049 
L 76.500662 300.592352 
L 76.617066 300.306725 
L 76.661646 300.197028 
L 76.77237 299.913471 
L 76.772743 299.913471 
L 76.832127 299.805843 
L 76.943182 299.549193 
L 77.006257 299.439496 
L 77.116151 299.180776 
L 77.116898 299.180776 
L 77.173753 299.071079 
L 77.284725 298.864103 
L 77.322752 298.754405 
L 77.433849 298.497755 
L 77.482161 298.388058 
L 77.593133 298.11278 
L 77.593258 298.11278 
L 77.643892 298.003083 
L 77.754989 297.736084 
L 77.79849 297.626386 
L 77.908716 297.378015 
L 77.909006 297.378015 
L 77.965446 297.268318 
L 78.076211 297.050993 
L 78.076294 297.050993 
L 78.137088 296.941296 
L 78.248144 296.748808 
L 78.299192 296.639111 
L 78.409045 296.427995 
L 78.410289 296.427995 
L 78.458062 296.318298 
L 78.568412 296.092694 
L 78.568868 296.092694 
L 78.62367 295.982997 
L 78.736654 295.773951 
L 78.793384 295.664254 
L 78.903486 295.44279 
L 78.904356 295.44279 
L 78.968136 295.333093 
L 79.078611 295.111628 
L 79.079233 295.111628 
L 79.132521 295.004001 
L 79.243452 294.759769 
L 79.298026 294.652142 
L 79.298026 294.650072 
L 79.406137 294.451375 
L 79.409081 294.451375 
L 79.476967 294.341678 
L 79.587981 294.155399 
L 79.647862 294.045702 
L 79.757964 293.834587 
L 79.758918 293.834587 
L 79.825269 293.724889 
L 79.934956 293.55103 
L 79.936366 293.55103 
L 80.024156 293.441332 
L 80.133097 293.261263 
L 80.134963 293.261263 
L 80.190656 293.151566 
L 80.300841 292.957009 
L 80.376979 292.847311 
L 80.487785 292.673451 
L 80.488075 292.673451 
L 80.571719 292.563754 
L 80.682484 292.358848 
L 80.682609 292.358848 
L 80.759742 292.249151 
L 80.867811 292.093919 
L 80.870714 292.093919 
L 80.950087 291.984221 
L 81.058861 291.804152 
L 81.059981 291.804152 
L 81.119241 291.696525 
L 81.119241 291.694455 
L 81.233074 291.549572 
L 81.308756 291.439875 
L 81.41836 291.268085 
L 81.419853 291.268085 
L 81.497318 291.158387 
L 81.60829 290.988667 
L 81.608332 290.988667 
L 81.673397 290.87897 
L 81.783747 290.680273 
L 81.784286 290.680273 
L 81.851467 290.570576 
L 81.961071 290.404995 
L 81.962356 290.404995 
L 82.02369 290.295298 
L 82.133791 290.133856 
L 82.134703 290.133856 
L 82.204787 290.024159 
L 82.314308 289.873067 
L 82.315386 289.873067 
L 82.414208 289.763369 
L 82.524807 289.608137 
L 82.524973 289.608137 
L 82.607787 289.49844 
L 82.72046 289.322511 
L 82.778683 289.212813 
L 82.888867 289.026535 
L 82.889697 289.026535 
L 82.972138 288.916838 
L 83.083069 288.755396 
L 83.083235 288.755396 
L 83.147305 288.645699 
L 83.257241 288.500816 
L 83.258236 288.500816 
L 83.328236 288.391119 
L 83.43896 288.246236 
L 83.43925 288.246236 
L 83.513356 288.136538 
L 83.622835 287.995795 
L 83.624432 287.995795 
L 83.726799 287.886097 
L 83.840467 287.753633 
L 83.912624 287.643935 
L 84.021315 287.476285 
L 84.023638 287.476285 
L 84.081571 287.366588 
L 84.195197 287.238263 
L 84.26217 287.128565 
L 84.370281 286.985752 
L 84.372935 286.985752 
L 84.456372 286.876055 
L 84.566556 286.74566 
L 84.567137 286.74566 
L 84.654969 286.635963 
L 84.766066 286.48901 
L 84.862067 286.379312 
L 84.976482 286.205453 
L 85.047975 286.095755 
L 85.15874 285.957081 
L 85.222769 285.847384 
L 85.330341 285.704571 
L 85.333492 285.704571 
L 85.42684 285.594873 
L 85.537564 285.460339 
L 85.537895 285.460339 
L 85.617351 285.350642 
L 85.726664 285.19541 
L 85.728448 285.19541 
L 85.80077 285.085713 
L 85.906517 284.951178 
L 85.911369 284.951178 
L 86.009693 284.841481 
L 86.12023 284.688319 
L 86.12079 284.688319 
L 86.23114 284.578621 
L 86.341117 284.446157 
L 86.34203 284.446157 
L 86.434465 284.33646 
L 86.545438 284.214344 
L 86.54552 284.214344 
L 86.650811 284.104646 
L 86.759213 283.992879 
L 86.761825 283.992879 
L 86.854841 283.883182 
L 86.965938 283.754857 
L 87.068616 283.64516 
L 87.179008 283.496137 
L 87.179672 283.496137 
L 87.277954 283.38644 
L 87.388429 283.260185 
L 87.458844 283.150487 
L 87.568945 283.026302 
L 87.569485 283.026302 
L 87.664989 282.916604 
L 87.773929 282.78621 
L 87.775546 282.78621 
L 87.868728 282.676512 
L 87.979576 282.52128 
L 87.979783 282.52128 
L 88.074292 282.411583 
L 88.183647 282.274979 
L 88.185348 282.274979 
L 88.266462 282.165282 
L 88.38015 282.034887 
L 88.476007 281.92519 
L 88.587062 281.774097 
L 88.587104 281.774097 
L 88.654782 281.6644 
L 88.761276 281.525726 
L 88.765879 281.525726 
L 88.843302 281.416029 
L 88.950252 281.304262 
L 88.953611 281.304262 
L 89.049323 281.194564 
L 89.1593 281.06003 
L 89.160087 281.06003 
L 89.240704 280.950333 
L 89.351179 280.790961 
L 89.351801 280.790961 
L 89.450083 280.681264 
L 89.559356 280.526032 
L 89.561097 280.526032 
L 89.632632 280.416335 
L 89.743397 280.321126 
L 89.743604 280.321126 
L 89.860797 280.211429 
L 89.971272 280.068615 
L 89.971852 280.068615 
L 90.067979 279.957883 
L 90.177375 279.843011 
L 90.178992 279.843011 
L 90.27064 279.733314 
L 90.377838 279.600849 
L 90.381695 279.600849 
L 90.456547 279.491152 
L 90.569137 279.33592 
L 90.685832 279.226223 
L 90.79668 279.093758 
L 90.796804 279.093758 
L 90.884222 278.986131 
L 90.993204 278.859876 
L 90.995319 278.859876 
L 91.085017 278.750178 
L 91.193916 278.588737 
L 91.195326 278.588737 
L 91.270759 278.47904 
L 91.381856 278.354854 
L 91.473337 278.245157 
L 91.581448 278.083716 
L 91.584393 278.083716 
L 91.689061 277.972983 
L 91.799661 277.833275 
L 91.799826 277.833275 
L 91.896409 277.723577 
L 92.010077 277.595252 
L 92.130172 277.485555 
L 92.240108 277.365509 
L 92.241227 277.365509 
L 92.313011 277.255812 
L 92.420666 277.146115 
L 92.423278 277.146115 
L 92.508623 277.036417 
L 92.618558 276.912232 
L 92.619346 276.912232 
L 92.713938 276.802534 
L 92.822712 276.686628 
L 92.824993 276.686628 
L 92.898767 276.576931 
L 93.007998 276.473443 
L 93.009864 276.473443 
L 93.137258 276.363745 
L 93.244167 276.249909 
L 93.248313 276.249909 
L 93.349001 276.140211 
L 93.458978 275.999468 
L 93.460098 275.999468 
L 93.571485 275.88977 
L 93.672422 275.767655 
L 93.682582 275.767655 
L 93.78609 275.657957 
L 93.896315 275.542051 
L 93.896854 275.542051 
L 93.993478 275.432354 
L 94.103497 275.277122 
L 94.10387 275.277122 
L 94.209825 275.167424 
L 94.317728 275.03496 
L 94.320921 275.03496 
L 94.409832 274.925262 
L 94.523458 274.799007 
L 94.628956 274.69138 
L 94.737441 274.536148 
L 94.740012 274.536148 
L 94.82942 274.42645 
L 94.943378 274.283637 
L 95.047342 274.17394 
L 95.1579 274.047684 
L 95.158314 274.047684 
L 95.273931 273.937987 
L 95.38395 273.795174 
L 95.385028 273.795174 
L 95.502221 273.685476 
L 95.610663 273.536454 
L 95.613276 273.536454 
L 95.706914 273.426756 
L 95.817554 273.288083 
L 95.818011 273.288083 
L 95.904018 273.178385 
L 96.011092 273.043851 
L 96.01499 273.043851 
L 96.10104 272.934154 
L 96.21197 272.780991 
L 96.312161 272.671294 
L 96.422428 272.53262 
L 96.423133 272.53262 
L 96.509224 272.422923 
L 96.623306 272.2739 
L 96.709936 272.164203 
L 96.709936 272.163168 
L 96.828041 271.990343 
L 96.927899 271.880646 
L 97.038333 271.750251 
L 97.122101 271.640554 
L 97.232493 271.528787 
L 97.233156 271.528787 
L 97.331563 271.41909 
L 97.442618 271.284555 
L 97.54426 271.174858 
L 97.653532 271.011347 
L 97.655357 271.011347 
L 97.732075 270.90165 
L 97.842384 270.775394 
L 97.842923 270.775394 
L 97.937805 270.665697 
L 98.046248 270.543581 
L 98.048736 270.543581 
L 98.132836 270.433884 
L 98.24074 270.320047 
L 98.243933 270.320047 
L 98.337986 270.21035 
L 98.44647 270.077885 
L 98.449082 270.077885 
L 98.548733 269.968188 
L 98.659374 269.825375 
L 98.659664 269.825375 
L 98.764043 269.715677 
L 98.877752 269.581143 
L 98.967077 269.471446 
L 99.080289 269.357609 
L 99.17484 269.247912 
L 99.284941 269.113377 
L 99.285812 269.113377 
L 99.398858 269.00368 
L 99.508213 268.860867 
L 99.509788 268.860867 
L 99.615038 268.751169 
L 99.725056 268.616635 
L 99.725761 268.616635 
L 99.819109 268.505903 
L 99.929252 268.374473 
L 99.93004 268.374473 
L 100.029567 268.264776 
L 100.139875 268.130241 
L 100.140663 268.130241 
L 100.251262 268.020544 
L 100.365304 267.873591 
L 100.468936 267.763894 
L 100.578415 267.62729 
L 100.579742 267.62729 
L 100.673505 267.517593 
L 100.779252 267.412035 
L 100.784477 267.412035 
L 100.874549 267.302338 
L 100.984235 267.140896 
L 100.985479 267.140896 
L 101.073892 267.031199 
L 101.188929 266.900804 
L 101.301435 266.791107 
L 101.408178 266.654503 
L 101.412491 266.654503 
L 101.528439 266.544806 
L 101.636467 266.381295 
L 101.639536 266.381295 
L 101.73475 266.271597 
L 101.848459 266.134993 
L 101.94699 266.027366 
L 101.94699 266.025296 
L 102.0607 265.890762 
L 102.156577 265.781064 
L 102.271157 265.665158 
L 102.383996 265.55546 
L 102.488582 265.439554 
L 102.494761 265.439554 
L 102.607392 265.329857 
L 102.717908 265.207741 
L 102.718488 265.207741 
L 102.837298 265.098044 
L 102.9508 264.973858 
L 103.049664 264.864161 
L 103.160594 264.739975 
L 103.160719 264.739975 
L 103.257011 264.630278 
L 103.3679 264.52886 
L 103.367983 264.52886 
L 103.472528 264.419162 
L 103.582795 264.305326 
L 103.583459 264.305326 
L 103.672991 264.195628 
L 103.780853 264.042466 
L 103.784005 264.042466 
L 103.875404 263.932769 
L 103.989611 263.777537 
L 104.101951 263.66784 
L 104.213048 263.498119 
L 104.295489 263.388422 
L 104.406586 263.262167 
L 104.520503 263.152469 
L 104.630397 263.042772 
L 104.631558 263.042772 
L 104.730546 262.933075 
L 104.839859 262.821308 
L 104.841559 262.821308 
L 104.937105 262.71368 
L 105.051312 262.558448 
L 105.154986 262.448751 
L 105.265999 262.328705 
L 105.266082 262.328705 
L 105.350887 262.219008 
L 105.460616 262.082404 
L 105.46186 262.082404 
L 105.583075 261.972706 
L 105.69355 261.813335 
L 105.694006 261.813335 
L 105.792786 261.703638 
L 105.902556 261.564964 
L 105.903717 261.564964 
L 106.001129 261.455267 
L 106.114133 261.3435 
L 106.211151 261.233802 
L 106.323512 261.097198 
L 106.421836 260.987501 
L 106.532187 260.875734 
L 106.532892 260.875734 
L 106.626861 260.766037 
L 106.737626 260.612874 
L 106.737917 260.612874 
L 106.863196 260.503177 
L 106.976905 260.370713 
L 107.074234 260.261015 
L 107.184045 260.138899 
L 107.185206 260.138899 
L 107.295805 260.029202 
L 107.405534 259.905017 
L 107.406861 259.905017 
L 107.492205 259.795319 
L 107.601933 259.666994 
L 107.603011 259.666994 
L 107.692171 259.559367 
L 107.802645 259.455879 
L 107.803226 259.455879 
L 107.904328 259.346181 
L 108.020318 259.226135 
L 108.112547 259.116438 
L 108.220243 258.977764 
L 108.223602 258.977764 
L 108.355848 258.868067 
L 108.465493 258.700416 
L 108.466903 258.700416 
L 108.540926 258.590719 
L 108.646756 258.460324 
L 108.65194 258.460324 
L 108.783398 258.350627 
L 108.891509 258.187116 
L 108.894412 258.187116 
L 109.001445 258.077419 
L 109.112085 257.949094 
L 109.112458 257.949094 
L 109.216796 257.839396 
L 109.327395 257.688304 
L 109.327851 257.688304 
L 109.420328 257.578607 
L 109.535634 257.439933 
L 109.638167 257.330236 
L 109.747895 257.20605 
L 109.749181 257.20605 
L 109.892043 257.096353 
L 110.002186 256.970097 
L 110.003098 256.970097 
L 110.095907 256.8604 
L 110.209367 256.740354 
L 110.305867 256.630657 
L 110.416756 256.502332 
L 110.416943 256.502332 
L 110.540377 256.392634 
L 110.649814 256.247751 
L 110.651432 256.247751 
L 110.737191 256.138054 
L 110.851356 255.980752 
L 110.940764 255.871055 
L 111.047921 255.726172 
L 111.051861 255.726172 
L 111.147821 255.616475 
L 111.256057 255.477801 
L 111.258711 255.477801 
L 111.359979 255.368103 
L 111.4695 255.252197 
L 111.471076 255.252197 
L 111.570354 255.1425 
L 111.680787 255.012105 
L 111.68145 255.012105 
L 111.774383 254.902408 
L 111.882951 254.753385 
L 111.885314 254.753385 
L 111.987661 254.643688 
L 112.098426 254.521572 
L 112.098633 254.521572 
L 112.197496 254.411874 
L 112.313943 254.27941 
L 112.418363 254.169713 
L 112.532321 254.026899 
L 112.639727 253.917202 
L 112.748957 253.776458 
L 112.750824 253.776458 
L 112.82862 253.666761 
L 112.93951 253.565343 
L 112.939634 253.565343 
L 113.037626 253.455646 
L 113.151667 253.306623 
L 113.258244 253.196926 
L 113.368926 253.0686 
L 113.369216 253.0686 
L 113.461237 252.958903 
L 113.572085 252.822299 
L 113.572168 252.822299 
L 113.676629 252.712602 
L 113.785031 252.55323 
L 113.787726 252.55323 
L 113.913337 252.443533 
L 114.023853 252.306929 
L 114.024434 252.306929 
L 114.113013 252.197232 
L 114.223695 252.083395 
L 114.224109 252.083395 
L 114.324631 251.973698 
L 114.442405 251.808117 
L 114.540853 251.69842 
L 114.650623 251.599071 
L 114.651742 251.599071 
L 114.750108 251.489374 
L 114.864398 251.319654 
L 114.955631 251.209956 
L 115.064903 251.083701 
L 115.066603 251.083701 
L 115.157338 250.974004 
L 115.267066 250.843609 
L 115.268393 250.843609 
L 115.342873 250.733912 
L 115.460065 250.580749 
L 115.558638 250.471052 
L 115.674711 250.348936 
L 115.74919 250.239239 
L 115.859955 250.117123 
L 115.860121 250.117123 
L 115.962675 250.007426 
L 116.075845 249.899798 
L 116.180888 249.790101 
L 116.289662 249.665916 
L 116.291984 249.665916 
L 116.381952 249.556218 
L 116.497258 249.417544 
L 116.616151 249.307847 
L 116.729529 249.191941 
L 116.824784 249.082243 
L 116.934015 248.943569 
L 116.935715 248.943569 
L 117.040425 248.833872 
L 117.156374 248.709687 
L 117.244787 248.599989 
L 117.354847 248.471664 
L 117.355718 248.471664 
L 117.436832 248.361967 
L 117.55079 248.217084 
L 117.63771 248.107387 
L 117.74663 247.970782 
L 117.748807 247.970782 
L 117.849453 247.863155 
L 117.849453 247.861085 
L 117.963121 247.73069 
L 118.076664 247.620993 
L 118.187637 247.482319 
L 118.18772 247.482319 
L 118.312916 247.372622 
L 118.428077 247.269134 
L 118.552029 247.159437 
L 118.661176 247.022832 
L 118.663126 247.022832 
L 118.751995 246.913135 
L 118.865289 246.799298 
L 118.956771 246.689601 
L 119.074171 246.534369 
L 119.178757 246.424672 
L 119.289688 246.2653 
L 119.289854 246.2653 
L 119.368065 246.155603 
L 119.482148 246.006581 
L 119.610164 245.896883 
L 119.721717 245.770628 
L 119.836919 245.660931 
L 119.947559 245.513978 
L 119.947974 245.513978 
L 120.057246 245.40428 
L 120.165813 245.267676 
L 120.168343 245.267676 
L 120.275832 245.157979 
L 120.389707 245.019305 
L 120.513783 244.909608 
L 120.627576 244.773004 
L 120.721214 244.663306 
L 120.837204 244.54326 
L 120.952945 244.433563 
L 121.066074 244.328005 
L 121.169872 244.218308 
L 121.284348 244.106541 
L 121.405958 243.996844 
L 121.515603 243.887147 
L 121.517013 243.887147 
L 121.635823 243.760891 
L 121.735598 243.651194 
L 121.846156 243.520799 
L 121.846612 243.520799 
L 121.955718 243.411102 
L 122.071543 243.295195 
L 122.158546 243.185498 
L 122.272006 243.065452 
L 122.367137 242.955755 
L 122.477031 242.82122 
L 122.478151 242.82122 
L 122.569466 242.711523 
L 122.677163 242.56664 
L 122.680522 242.56664 
L 122.786808 242.456943 
L 122.900268 242.338966 
L 123.019576 242.229269 
L 123.132871 242.119572 
L 123.224767 242.009875 
L 123.348139 241.860852 
L 123.456167 241.751155 
L 123.572157 241.631109 
L 123.671891 241.521411 
L 123.784812 241.422063 
L 123.894582 241.312366 
L 124.012687 241.138506 
L 124.108896 241.028809 
L 124.21908 240.912902 
L 124.219993 240.912902 
L 124.381641 240.803205 
L 124.495101 240.676949 
L 124.599272 240.567252 
L 124.712484 240.451346 
L 124.846555 240.341648 
L 124.960513 240.198835 
L 125.071776 240.089138 
L 125.185568 239.952534 
L 125.283892 239.842836 
L 125.397643 239.708302 
L 125.513612 239.598605 
L 125.625932 239.47028 
L 125.765643 239.360582 
L 125.879 239.248815 
L 125.998701 239.141188 
L 126.112162 239.019072 
L 126.217411 238.909375 
L 126.318472 238.791398 
L 126.328446 238.791398 
L 126.452253 238.681701 
L 126.565796 238.553376 
L 126.666525 238.443679 
L 126.780152 238.317423 
L 126.916296 238.207726 
L 127.033198 238.064913 
L 127.114396 237.955215 
L 127.225327 237.835169 
L 127.225409 237.835169 
L 127.33352 237.727542 
L 127.445695 237.619914 
L 127.569233 237.510217 
L 127.684808 237.39845 
L 127.810419 237.288753 
L 127.927197 237.148009 
L 128.027305 237.038312 
L 128.14035 236.941033 
L 128.243983 236.831336 
L 128.357609 236.705081 
L 128.437935 236.595383 
L 128.554091 236.471198 
L 128.661373 236.361501 
L 128.76629 236.266292 
L 128.772428 236.266292 
L 128.88452 236.156594 
L 128.995285 236.046897 
L 128.995617 236.046897 
L 129.11621 235.9372 
L 129.229421 235.831642 
L 129.327746 235.721945 
L 129.435608 235.574992 
L 129.438759 235.574992 
L 129.526841 235.465295 
L 129.636776 235.353528 
L 129.637937 235.353528 
L 129.717102 235.24383 
L 129.830895 235.109296 
L 129.923828 234.999599 
L 130.034261 234.90025 
L 130.034883 234.90025 
L 130.170156 234.790553 
L 130.283285 234.687065 
L 130.403339 234.577368 
L 130.51709 234.442833 
L 130.652571 234.333136 
L 130.77022 234.227578 
L 130.89807 234.116846 
L 131.013479 234.010254 
L 131.131709 233.900556 
L 131.245169 233.78051 
L 131.359003 233.670813 
L 131.474661 233.559046 
L 131.572903 233.449349 
L 131.683502 233.339651 
L 131.683999 233.339651 
L 131.768556 233.229954 
L 131.886204 233.122327 
L 131.988758 233.012629 
L 132.101763 232.915351 
L 132.204607 232.805653 
L 132.315413 232.677328 
L 132.315579 232.677328 
L 132.418921 232.566596 
L 132.528608 232.470352 
L 132.529976 232.470352 
L 132.652809 232.360655 
L 132.766187 232.238539 
L 132.929701 232.128842 
L 133.046354 232.037773 
L 133.193654 231.928075 
L 133.307819 231.853564 
L 133.449562 231.743867 
L 133.557092 231.62589 
L 133.560659 231.62589 
L 133.711151 231.516193 
L 133.82457 231.398217 
L 133.964737 231.28852 
L 134.08081 231.166404 
L 134.202482 231.056707 
L 134.312459 230.963567 
L 134.313578 230.963567 
L 134.420113 230.85387 
L 134.532952 230.760731 
L 134.668598 230.651034 
L 134.775963 230.545476 
L 134.779695 230.545476 
L 134.892741 230.448197 
L 135.02366 230.3385 
L 135.138987 230.235012 
L 135.255433 230.125315 
L 135.368852 230.009408 
L 135.49409 229.901781 
L 135.606804 229.808641 
L 135.774465 229.698944 
L 135.895182 229.607875 
L 136.08279 229.498177 
L 136.197204 229.332597 
L 136.360967 229.222899 
L 136.470032 229.125621 
L 136.472064 229.125621 
L 136.587266 229.024203 
L 136.717936 228.914505 
L 136.836995 228.819296 
L 136.989686 228.709599 
L 137.106091 228.624739 
L 137.23531 228.517111 
L 137.348397 228.417763 
L 137.477201 228.308066 
L 137.590081 228.214927 
L 137.690354 228.105229 
L 137.799211 228.047276 
L 137.801368 228.047276 
L 137.950948 227.937579 
L 138.070505 227.83616 
L 138.23999 227.726463 
L 138.353368 227.604347 
L 138.466165 227.49465 
L 138.578174 227.399441 
L 138.727381 227.289744 
L 138.839908 227.211093 
L 139.023971 227.101396 
L 139.136768 227.008257 
L 139.280293 226.898559 
L 139.393298 226.80335 
L 139.534211 226.693653 
L 139.648957 226.63363 
L 139.77772 226.523933 
L 139.886079 226.432863 
L 139.888733 226.432863 
L 140.055026 226.323166 
L 140.159114 226.234167 
L 140.166123 226.234167 
L 140.339216 226.124469 
L 140.44542 226.0334 
L 140.450313 226.0334 
L 140.635059 225.923703 
L 140.752812 225.845052 
L 140.90457 225.735354 
L 141.019647 225.636006 
L 141.161514 225.526309 
L 141.274436 225.4311 
L 141.439401 225.321403 
L 141.560492 225.226194 
L 141.685688 225.116496 
L 141.799107 225.039915 
L 141.96511 224.930218 
L 142.07376 224.861916 
L 142.076165 224.861916 
L 142.223257 224.752219 
L 142.343602 224.640452 
L 142.518064 224.530754 
L 142.63903 224.435545 
L 142.801051 224.325848 
L 142.917871 224.232709 
L 143.070437 224.123012 
L 143.179667 224.05471 
L 143.181492 224.05471 
L 143.378762 223.945012 
L 143.497448 223.872571 
L 143.677923 223.762873 
L 143.79607 223.678013 
L 143.981438 223.568316 
L 144.093924 223.497944 
L 144.240871 223.388247 
L 144.358624 223.309596 
L 144.548948 223.199899 
L 144.664067 223.135736 
L 144.82754 223.026039 
L 144.939839 222.966016 
L 145.152163 222.856319 
L 145.258698 222.779738 
L 145.263259 222.779738 
L 145.42329 222.67004 
L 145.538783 222.599669 
L 145.791456 222.489971 
L 145.90417 222.409251 
L 146.071043 222.299553 
L 146.188526 222.222972 
L 146.396952 222.113275 
L 146.511242 222.032554 
L 146.693044 221.922857 
L 146.812559 221.842137 
L 147.03355 221.732439 
L 147.141577 221.678626 
L 147.144418 221.678626 
L 147.43261 221.568928 
L 147.545697 221.521324 
L 147.743092 221.411627 
L 147.85224 221.359883 
L 147.854106 221.359883 
L 148.085257 221.250185 
L 148.197349 221.196372 
L 148.425472 221.086674 
L 148.54395 221.018372 
L 148.701908 220.908675 
L 148.818312 220.854861 
L 149.065802 220.747234 
L 149.179719 220.69135 
L 149.299524 220.625118 
L 149.515082 220.515421 
L 149.637127 220.43056 
L 149.859549 220.320863 
L 149.973693 220.25877 
L 150.183695 220.149073 
L 150.299353 220.095259 
L 150.529882 219.985562 
L 150.653958 219.923469 
L 150.934375 219.813772 
L 151.046384 219.753749 
L 151.246599 219.644052 
L 151.359893 219.586099 
L 151.549948 219.476401 
L 151.664611 219.416378 
L 151.905963 219.306681 
L 152.024856 219.234239 
L 152.28968 219.124542 
L 152.410232 219.064519 
L 152.649677 218.954822 
L 152.764547 218.894799 
L 152.996278 218.785102 
L 153.116789 218.741637 
L 153.387294 218.631939 
L 153.500672 218.576056 
L 153.714239 218.466359 
L 153.829317 218.418754 
L 154.103886 218.309057 
L 154.215812 218.267662 
L 154.503611 218.157964 
L 154.621259 218.097941 
L 154.865556 217.988244 
L 154.981297 217.93443 
L 155.249149 217.824733 
L 155.362029 217.779198 
L 155.58924 217.669501 
L 155.704483 217.628106 
L 155.924686 217.518409 
L 156.036405 217.477013 
L 156.313628 217.367316 
L 156.426218 217.327991 
L 156.745533 217.218293 
L 156.855178 217.166549 
L 156.856588 217.166549 
L 157.092135 217.056852 
L 157.20854 216.994759 
L 157.459305 216.885062 
L 157.578613 216.822969 
L 157.836802 216.713272 
L 157.95105 216.661528 
L 158.199494 216.551831 
L 158.319092 216.485599 
L 158.586653 216.375901 
L 158.706168 216.309669 
L 158.92579 216.199972 
L 159.046383 216.137879 
L 159.359561 216.028182 
L 159.476629 215.982647 
L 159.741785 215.87295 
L 159.863539 215.823275 
L 160.20135 215.715648 
L 160.314644 215.680462 
L 160.632093 215.570765 
L 160.744475 215.52316 
L 160.960448 215.413463 
L 161.085893 215.359649 
L 161.321108 215.249952 
L 161.435149 215.216836 
L 161.745382 215.107139 
L 161.860294 215.074022 
L 162.16074 214.964325 
L 162.27785 214.929139 
L 162.595921 214.819442 
L 162.716722 214.765628 
L 162.996641 214.655931 
L 163.10923 214.620745 
L 163.452473 214.511048 
L 163.570329 214.469653 
L 163.825035 214.359955 
L 163.939076 214.314421 
L 164.166909 214.204723 
L 164.278337 214.155049 
L 164.557593 214.045352 
L 164.672588 213.999817 
L 165.01525 213.89012 
L 165.128296 213.840446 
L 165.405395 213.730748 
L 165.523168 213.668656 
L 165.812334 213.558958 
L 165.931103 213.511354 
L 166.208865 213.401657 
L 166.324607 213.347843 
L 166.660551 213.238146 
L 166.775795 213.188471 
L 167.100293 213.078774 
L 167.213754 213.018751 
L 167.335674 212.981495 
L 167.639438 212.871798 
L 167.75294 212.834543 
L 168.109079 212.724845 
L 168.221379 212.664822 
L 168.583407 212.55409 
L 168.690813 212.5158 
L 168.694255 212.5158 
L 168.957296 212.406102 
L 169.068849 212.375056 
L 169.373069 212.265359 
L 169.49192 212.217754 
L 169.775654 212.108057 
L 169.888451 212.066662 
L 170.18699 211.956964 
L 170.302773 211.915569 
L 170.63627 211.805872 
L 170.750685 211.754128 
L 171.021978 211.644431 
L 171.133738 211.607175 
L 171.352572 211.497478 
L 171.4606 211.435385 
L 171.463503 211.435385 
L 171.759471 211.325688 
L 171.874673 211.278083 
L 172.158034 211.168386 
L 172.276014 211.126991 
L 172.542166 211.017294 
L 172.658322 210.971759 
L 172.976683 210.862062 
L 173.091014 210.810318 
L 173.377568 210.70062 
L 173.492024 210.671644 
L 173.80856 210.561946 
L 173.92032 210.516412 
L 174.240382 210.406714 
L 174.353386 210.35911 
L 174.67888 210.249413 
L 174.791013 210.230785 
L 175.114517 210.121088 
L 175.229719 210.073483 
L 175.554217 209.963786 
L 175.668466 209.9286 
L 176.005695 209.818903 
L 176.114263 209.767159 
L 176.116626 209.767159 
L 176.395177 209.657461 
L 176.507393 209.595369 
L 176.624586 209.537415 
L 176.92582 209.427718 
L 177.045252 209.363556 
L 177.382316 209.253858 
L 177.494118 209.214533 
L 177.79755 209.104836 
L 177.915116 209.057231 
L 178.261676 208.947534 
L 178.375676 208.901999 
L 178.634735 208.792302 
L 178.749979 208.744697 
L 178.969311 208.635 
L 179.08273 208.579117 
L 179.282613 208.469419 
L 179.400469 208.419745 
L 179.743422 208.310048 
L 179.844483 208.266583 
L 179.854518 208.266583 
L 180.131907 208.156886 
L 180.247483 208.11756 
L 180.628048 208.007863 
L 180.742587 207.968538 
L 181.056469 207.85884 
L 181.169847 207.802957 
L 181.509274 207.69326 
L 181.622942 207.627027 
L 181.849365 207.51733 
L 181.964112 207.459377 
L 182.214587 207.349679 
L 182.331614 207.314494 
L 182.608506 207.204796 
L 182.72122 207.17375 
L 183.02262 207.064053 
L 183.142508 207.030936 
L 183.411313 206.921239 
L 183.527718 206.859146 
L 183.791754 206.749449 
L 183.909942 206.705984 
L 184.284038 206.596287 
L 184.402724 206.548682 
L 184.71814 206.438985 
L 184.833882 206.385171 
L 185.133581 206.275474 
L 185.255046 206.22787 
L 185.508839 206.118172 
L 185.620765 206.068498 
L 185.942153 205.958801 
L 186.056609 205.919476 
L 186.347476 205.809778 
L 186.465995 205.764244 
L 186.697271 205.654546 
L 186.811021 205.62557 
L 187.137386 205.515872 
L 187.250722 205.478617 
L 187.4849 205.368919 
L 187.597946 205.321315 
L 187.838054 205.211618 
L 187.950105 205.186781 
L 188.248561 205.077083 
L 188.362767 205.035688 
L 188.644179 204.925991 
L 188.758096 204.878386 
L 189.059372 204.768689 
L 189.176689 204.723154 
L 189.550702 204.613457 
L 189.667563 204.578271 
L 189.966931 204.468574 
L 190.083667 204.402342 
L 190.405802 204.292644 
L 190.519138 204.257459 
L 190.768038 204.147761 
L 190.884318 204.100157 
L 191.160754 203.99046 
L 191.279481 203.951134 
L 191.529708 203.841437 
L 191.642671 203.795902 
L 191.883733 203.686205 
L 192.001423 203.624112 
L 192.252272 203.514415 
L 192.364322 203.460601 
L 192.637523 203.350904 
L 192.753016 203.29916 
L 193.020286 203.189463 
L 193.134369 203.154277 
L 193.348973 203.044579 
L 193.461438 202.974208 
L 193.755996 202.86451 
L 193.873645 202.804487 
L 194.175335 202.69479 
L 194.28722 202.651325 
L 194.533549 202.541628 
L 194.647714 202.494023 
L 194.884214 202.384326 
L 194.996472 202.322233 
L 195.279004 202.212536 
L 195.394952 202.154583 
L 195.661726 202.044885 
L 195.775808 201.995211 
L 196.04764 201.885514 
L 196.161889 201.850328 
L 196.469509 201.740631 
L 196.582348 201.697166 
L 196.9411 201.586434 
L 197.050455 201.537794 
L 197.051989 201.537794 
L 197.33647 201.428097 
L 197.451879 201.374283 
L 197.765513 201.264586 
L 197.880881 201.225261 
L 198.104111 201.115563 
L 198.217406 201.06175 
L 198.499481 200.952052 
L 198.606348 200.904448 
L 198.610536 200.904448 
L 198.841148 200.794751 
L 198.957014 200.738867 
L 199.240458 200.628135 
L 199.353172 200.587775 
L 199.663197 200.478077 
L 199.777446 200.442891 
L 200.024521 200.333194 
L 200.142875 200.264892 
L 200.39447 200.155195 
L 200.513404 200.095172 
L 200.713619 199.985475 
L 200.827411 199.944079 
L 201.132772 199.834382 
L 201.244262 199.790917 
L 201.507884 199.68122 
L 201.621303 199.646034 
L 201.885007 199.536337 
L 201.995855 199.488732 
L 201.996021 199.488732 
L 202.326242 199.379035 
L 202.444969 199.321082 
L 202.697477 199.211384 
L 202.811767 199.15964 
L 203.122746 199.049943 
L 203.238944 199.004408 
L 203.510818 198.894711 
L 203.62828 198.836758 
L 203.926798 198.727061 
L 204.039139 198.664968 
L 204.258885 198.555271 
L 204.375788 198.501457 
L 204.603165 198.39176 
L 204.71252 198.350364 
L 204.714261 198.350364 
L 205.068825 198.240667 
L 205.164703 198.197202 
L 205.179881 198.197202 
L 205.45134 198.087505 
L 205.565298 198.0399 
L 205.884323 197.929168 
L 206.003879 197.884669 
L 206.314485 197.774971 
L 206.426121 197.745995 
L 206.716781 197.636297 
L 206.833185 197.574205 
L 207.104852 197.464507 
L 207.220552 197.410694 
L 207.477787 197.300996 
L 207.590335 197.26581 
L 207.890325 197.156113 
L 207.992838 197.125067 
L 208.00138 197.125067 
L 208.249782 197.015369 
L 208.366146 196.978114 
L 208.542598 196.867382 
L 208.68148 196.798045 
L 208.978235 196.688347 
L 209.090327 196.638673 
L 209.367965 196.528976 
L 209.484598 196.479302 
L 209.772666 196.369604 
L 209.885006 196.307512 
L 210.157254 196.197814 
L 210.270175 196.154349 
L 210.514513 196.044652 
L 210.627932 195.986699 
L 210.911666 195.877002 
L 211.026163 195.823188 
L 211.294471 195.713491 
L 211.406812 195.651398 
L 211.677649 195.541701 
L 211.791068 195.485817 
L 212.02197 195.37612 
L 212.135596 195.336794 
L 212.394075 195.227097 
L 212.503596 195.185702 
L 212.505006 195.185702 
L 212.731305 195.076005 
L 212.843252 195.03254 
L 213.06501 194.922842 
L 213.178263 194.866959 
L 213.494405 194.757262 
L 213.611785 194.711727 
L 213.89809 194.60203 
L 214.015117 194.548216 
L 214.210396 194.438519 
L 214.322364 194.392984 
L 214.562016 194.283287 
L 214.681738 194.229473 
L 214.88668 194.119776 
L 214.999436 194.08045 
L 215.222749 193.970753 
L 215.33679 193.925218 
L 215.555251 193.815521 
L 215.66726 193.769986 
L 215.946101 193.660289 
L 216.053528 193.612685 
L 216.057115 193.612685 
L 216.172607 193.542313 
L 216.463267 193.432616 
L 216.579879 193.382941 
L 216.82036 193.273244 
L 216.936433 193.215291 
L 217.164308 193.105593 
L 217.2781 193.035222 
L 217.565608 192.925524 
L 217.677617 192.87792 
L 217.914968 192.768223 
L 218.03301 192.710269 
L 218.318611 192.600572 
L 218.433025 192.548828 
L 218.637801 192.439131 
L 218.750059 192.381178 
L 219.065683 192.27148 
L 219.179558 192.240434 
L 219.396319 192.130737 
L 219.509116 192.089341 
L 219.73359 191.979644 
L 219.847548 191.93204 
L 220.167631 191.822342 
L 220.280531 191.764389 
L 220.529721 191.654692 
L 220.648282 191.58432 
L 220.935251 191.474623 
L 221.050785 191.422879 
L 221.339495 191.313182 
L 221.449929 191.263507 
L 221.450571 191.263507 
L 221.658354 191.15381 
L 221.774137 191.097927 
L 221.996952 190.988229 
L 222.110662 190.921997 
L 222.312825 190.8123 
L 222.419692 190.764695 
L 222.423922 190.764695 
L 222.641181 190.654998 
L 222.756134 190.609463 
L 222.996242 190.499766 
L 223.109371 190.448022 
L 223.319787 190.338325 
L 223.434906 190.272093 
L 223.703587 190.162395 
L 223.816923 190.106512 
L 224.012037 189.996814 
L 224.127571 189.94507 
L 224.374646 189.835373 
L 224.489765 189.787769 
L 224.717723 189.678071 
L 224.824009 189.628397 
L 224.828778 189.628397 
L 225.160471 189.517665 
L 225.276151 189.477305 
L 225.520779 189.367608 
L 225.636106 189.330352 
L 225.900556 189.220655 
L 226.009745 189.166841 
L 226.011612 189.166841 
L 226.204776 189.057144 
L 226.317159 188.990911 
L 226.636598 188.881214 
L 226.751178 188.841889 
L 226.971132 188.732191 
L 227.082851 188.694936 
L 227.376081 188.585238 
L 227.494933 188.512797 
L 227.726955 188.4031 
L 227.84083 188.359635 
L 228.149902 188.249937 
L 228.271241 188.189914 
L 228.487546 188.080217 
L 228.602956 188.011915 
L 228.815445 187.902218 
L 228.815445 187.901183 
L 228.928367 187.854613 
L 229.188173 187.744916 
L 229.302629 187.691102 
L 229.561066 187.581405 
L 229.671417 187.54208 
L 229.67208 187.54208 
L 229.939226 187.432382 
L 230.055797 187.36822 
L 230.346954 187.258522 
L 230.460083 187.202639 
L 230.743651 187.092942 
L 230.854706 187.045337 
L 230.854748 187.045337 
L 231.075282 186.93564 
L 231.193097 186.873547 
L 231.450208 186.76385 
L 231.5623 186.712106 
L 231.800252 186.602409 
L 231.912198 186.558944 
L 232.229875 186.449246 
L 232.347649 186.366456 
L 232.583568 186.256759 
L 232.687118 186.198806 
L 232.694582 186.198806 
L 232.962392 186.089108 
L 233.070378 186.037364 
L 233.073447 186.037364 
L 233.317951 185.927667 
L 233.430956 185.882132 
L 233.658167 185.772435 
L 233.770466 185.710342 
L 234.094716 185.600645 
L 234.207098 185.534413 
L 234.511608 185.424715 
L 234.623928 185.360553 
L 234.873844 185.250856 
L 234.994645 185.188763 
L 235.251507 185.079066 
L 235.365465 185.008694 
L 235.604992 184.898996 
L 235.716877 184.853462 
L 235.983857 184.743764 
L 235.983857 184.74273 
L 236.09852 184.718927 
L 236.343978 184.60923 
L 236.456609 184.555416 
L 236.751955 184.445719 
L 236.865229 184.391905 
L 237.136667 184.282208 
L 237.25386 184.226325 
L 237.475721 184.116627 
L 237.588892 184.060744 
L 237.850564 183.951047 
L 237.9656 183.886884 
L 238.262397 183.777187 
L 238.375153 183.735792 
L 238.679746 183.626094 
L 238.793414 183.561932 
L 239.014363 183.452234 
L 239.127948 183.388072 
L 239.318334 183.278375 
L 239.433744 183.210073 
L 239.690523 183.100375 
L 239.803361 183.05691 
L 240.050188 182.947213 
L 240.164643 182.907888 
L 240.385302 182.79819 
L 240.488769 182.750586 
L 240.496233 182.750586 
L 240.742313 182.640889 
L 240.859257 182.570517 
L 241.128186 182.46082 
L 241.241771 182.400797 
L 241.532638 182.291099 
L 241.644647 182.245565 
L 241.925354 182.135867 
L 242.039768 182.082054 
L 242.300072 181.972356 
L 242.413159 181.922682 
L 242.639085 181.812985 
L 242.754619 181.742613 
L 242.972168 181.632916 
L 243.08173 181.587381 
L 243.083223 181.587381 
L 243.37861 181.477684 
L 243.490702 181.42594 
L 243.705265 181.315208 
L 243.814496 181.264498 
L 243.816362 181.264498 
L 244.071565 181.154801 
L 244.184652 181.107197 
L 244.409085 180.997499 
L 244.521716 180.914709 
L 244.773311 180.805012 
L 244.887477 180.757407 
L 245.159267 180.64771 
L 245.263024 180.606315 
L 245.270281 180.606315 
L 245.53892 180.496618 
L 245.648649 180.434525 
L 245.649934 180.434525 
L 245.890167 180.324828 
L 246.004747 180.285502 
L 246.225572 180.175805 
L 246.339571 180.105433 
L 246.596682 179.994701 
L 246.703466 179.952271 
L 246.707696 179.952271 
L 246.925328 179.842574 
L 247.038539 179.79083 
L 247.266082 179.681132 
L 247.379501 179.623179 
L 247.581582 179.513482 
L 247.690149 179.451389 
L 247.692554 179.451389 
L 247.982343 179.341692 
L 248.096135 179.275459 
L 248.367055 179.165762 
L 248.479728 179.082972 
L 248.672022 178.973275 
L 248.787763 178.898763 
L 249.099717 178.789066 
L 249.211228 178.745601 
L 249.447459 178.635904 
L 249.563781 178.573811 
L 249.791863 178.464114 
L 249.903976 178.41237 
L 250.139004 178.302672 
L 250.254579 178.242649 
L 250.513059 178.132952 
L 250.513059 178.131917 
L 250.634979 178.072929 
L 250.912804 177.963232 
L 251.024294 177.919767 
L 251.284142 177.81007 
L 251.392958 177.747977 
L 251.395239 177.747977 
L 251.656455 177.640349 
L 251.656455 177.63828 
L 251.768899 177.594815 
L 252.002144 177.485117 
L 252.115646 177.427164 
L 252.36409 177.317467 
L 252.479043 177.255374 
L 252.722842 177.145677 
L 252.833773 177.073235 
L 252.833897 177.073235 
L 253.126008 176.963538 
L 253.242164 176.903515 
L 253.488534 176.793818 
L 253.600751 176.737934 
L 253.938893 176.628237 
L 254.052312 176.572353 
L 254.304446 176.462656 
L 254.417824 176.404703 
L 254.624673 176.295006 
L 254.73096 176.261889 
L 254.735687 176.261889 
L 254.998376 176.152192 
L 255.113142 176.079751 
L 255.336912 175.969018 
L 255.447075 175.91624 
L 255.448008 175.91624 
L 255.725729 175.806542 
L 255.839729 175.73617 
L 256.106626 175.626473 
L 256.220294 175.56438 
L 256.398779 175.454683 
L 256.51141 175.402939 
L 256.760268 175.293242 
L 256.872692 175.22494 
L 257.193002 175.115243 
L 257.306172 175.061429 
L 257.553786 174.951732 
L 257.665795 174.904127 
L 257.907853 174.79443 
L 258.018742 174.740616 
L 258.018949 174.740616 
L 258.21199 174.630919 
L 258.324206 174.570896 
L 258.55233 174.461199 
L 258.668569 174.399106 
L 258.900632 174.289408 
L 258.995099 174.239734 
L 259.011728 174.239734 
L 259.285012 174.130037 
L 259.383627 174.082432 
L 259.396109 174.082432 
L 259.651789 173.9717 
L 259.768878 173.916852 
L 259.980497 173.807154 
L 260.092547 173.75748 
L 260.284841 173.647783 
L 260.396809 173.604318 
L 260.654293 173.494621 
L 260.766467 173.438737 
L 260.989863 173.32904 
L 261.104236 173.277296 
L 261.384943 173.167599 
L 261.495791 173.105506 
L 261.495998 173.105506 
L 261.678526 172.995809 
L 261.792671 172.937855 
L 262.065416 172.828158 
L 262.171577 172.770205 
L 262.176512 172.770205 
L 262.379339 172.660508 
L 262.492696 172.617043 
L 262.715367 172.507345 
L 262.829117 172.443183 
L 263.033106 172.333486 
L 263.145032 172.290021 
L 263.405958 172.180323 
L 263.513239 172.138928 
L 263.517054 172.138928 
L 263.722784 172.029231 
L 263.830315 171.977487 
L 263.833881 171.977487 
L 264.082242 171.86779 
L 264.194458 171.811906 
L 264.426148 171.701174 
L 264.536954 171.656674 
L 264.537224 171.656674 
L 264.794231 171.546977 
L 264.794231 171.545942 
L 264.907691 171.489024 
L 265.132332 171.379326 
L 265.245626 171.325513 
L 265.520942 171.215815 
L 265.635481 171.162002 
L 265.888237 171.052304 
L 265.998546 170.979863 
L 265.999251 170.979863 
L 266.23488 170.870166 
L 266.349212 170.789445 
L 266.565599 170.679748 
L 266.669605 170.603167 
L 266.676675 170.603167 
L 266.871976 170.493469 
L 266.984213 170.437586 
L 267.197096 170.327888 
L 267.311096 170.272005 
L 267.535902 170.162308 
L 267.64422 170.112633 
L 267.646957 170.112633 
L 267.9061 170.002936 
L 268.018337 169.938774 
L 268.24109 169.829076 
L 268.353721 169.750426 
L 268.589143 169.640728 
L 268.701111 169.595194 
L 268.913227 169.485496 
L 269.026854 169.446171 
L 269.261032 169.336474 
L 269.369557 169.301288 
L 269.372087 169.301288 
L 269.620448 169.19159 
L 269.730217 169.131567 
L 269.731503 169.131567 
L 269.974597 169.02187 
L 270.089177 168.965987 
L 270.281471 168.856289 
L 270.281471 168.855254 
L 270.394724 168.802476 
L 270.614885 168.692778 
L 270.725194 168.624476 
L 270.725899 168.624476 
L 270.928892 168.514779 
L 271.041109 168.452686 
L 271.264753 168.342989 
L 271.378919 168.268478 
L 271.657967 168.15878 
L 271.767488 168.082199 
L 271.769001 168.082199 
L 271.991216 167.972502 
L 272.104883 167.910409 
L 272.288013 167.800712 
L 272.392516 167.73241 
L 272.399026 167.73241 
L 272.655142 167.622713 
L 272.767939 167.581317 
L 273.027662 167.47162 
L 273.027662 167.470585 
L 273.143486 167.415737 
L 273.353156 167.306039 
L 273.465704 167.231528 
L 273.690717 167.121831 
L 273.804551 167.053529 
L 274.060252 166.943831 
L 274.172053 166.904506 
L 274.409508 166.793774 
L 274.520438 166.745135 
L 274.520604 166.745135 
L 274.763781 166.635437 
L 274.876371 166.560926 
L 275.073081 166.450194 
L 275.185422 166.387066 
L 275.47125 166.277369 
L 275.58328 166.227695 
L 275.777378 166.117997 
L 275.892041 166.062114 
L 276.111829 165.952417 
L 276.221433 165.888254 
L 276.222802 165.888254 
L 276.471079 165.778557 
L 276.584001 165.730952 
L 276.893902 165.621255 
L 277.007197 165.565372 
L 277.22093 165.455674 
L 277.332815 165.41014 
L 277.545014 165.300442 
L 277.658018 165.238349 
L 277.844216 165.128652 
L 277.956267 165.068629 
L 278.135788 164.958932 
L 278.248875 164.909258 
L 278.469244 164.79956 
L 278.582953 164.735398 
L 278.816592 164.625701 
L 278.925823 164.573957 
L 278.927648 164.573957 
L 279.17887 164.464259 
L 279.282046 164.408376 
L 279.289966 164.408376 
L 279.490679 164.298679 
L 279.609074 164.211749 
L 279.756913 164.102051 
L 279.869253 164.037889 
L 280.106832 163.928192 
L 280.219048 163.872308 
L 280.424986 163.762611 
L 280.533802 163.717076 
L 280.536082 163.717076 
L 280.718714 163.607379 
L 280.83064 163.565984 
L 281.018953 163.456286 
L 281.132828 163.387984 
L 281.338682 163.278287 
L 281.45094 163.216194 
L 281.634526 163.106497 
L 281.744088 163.044404 
L 281.745539 163.044404 
L 281.943515 162.934707 
L 282.055855 162.864335 
L 282.213771 162.754638 
L 282.327771 162.709103 
L 282.613537 162.598371 
L 282.724177 162.545592 
L 282.724634 162.545592 
L 282.919333 162.435895 
L 283.028646 162.396569 
L 283.030429 162.396569 
L 283.192948 162.286872 
L 283.306575 162.247547 
L 283.497915 162.13785 
L 283.610421 162.063338 
L 283.840577 161.955711 
L 283.840577 161.953641 
L 283.945121 161.912246 
L 283.951674 161.912246 
L 284.216021 161.801514 
L 284.329626 161.740456 
L 284.586364 161.630758 
L 284.698622 161.568666 
L 284.956437 161.458968 
L 285.070064 161.396876 
L 285.280811 161.287178 
L 285.39564 161.194039 
L 285.605891 161.084342 
L 285.718978 161.032598 
L 285.913594 160.922901 
L 286.024525 160.858738 
L 286.024691 160.858738 
L 286.202553 160.751111 
L 286.202553 160.749041 
L 286.314562 160.699367 
L 286.544386 160.589669 
L 286.659879 160.519297 
L 286.912511 160.4096 
L 287.023359 160.353717 
L 287.023607 160.353717 
L 287.239166 160.244019 
L 287.344166 160.161229 
L 287.350055 160.161229 
L 287.57681 160.051532 
L 287.677954 159.995648 
L 287.687782 159.995648 
L 287.938507 159.885951 
L 288.050806 159.821788 
L 288.272834 159.712091 
L 288.385216 159.647929 
L 288.510993 159.538231 
L 288.610851 159.478208 
L 288.622089 159.478208 
L 288.847849 159.368511 
L 288.960273 159.298139 
L 289.182425 159.188442 
L 289.294766 159.12221 
L 289.558346 159.012512 
L 289.67023 158.973187 
L 289.838679 158.86349 
L 289.838679 158.862455 
L 289.950605 158.842792 
L 290.156087 158.733095 
L 290.266167 158.662723 
L 290.267142 158.662723 
L 290.491782 158.553026 
L 290.603708 158.509561 
L 290.844811 158.399864 
L 290.957982 158.34812 
L 291.196555 158.238422 
L 291.308855 158.17633 
L 291.469383 158.066632 
L 291.580397 158.010749 
L 291.58048 158.010749 
L 291.797033 157.901052 
L 291.909623 157.82654 
L 292.111123 157.716843 
L 292.217948 157.617494 
L 292.22222 157.617494 
L 292.461955 157.507797 
L 292.570107 157.443635 
L 292.573051 157.443635 
L 292.78778 157.333937 
L 292.900204 157.265635 
L 293.056129 157.155938 
L 293.168304 157.100055 
L 293.337873 156.990357 
L 293.450545 156.953102 
L 293.651382 156.843404 
L 293.769197 156.781312 
L 293.888629 156.671614 
L 294.00466 156.592963 
L 294.227559 156.483266 
L 294.341144 156.423243 
L 294.527964 156.313546 
L 294.63819 156.249383 
L 294.63906 156.249383 
L 294.874483 156.139686 
L 294.991551 156.069314 
L 295.214698 155.959617 
L 295.32256 155.916152 
L 295.325753 155.916152 
L 295.517425 155.806455 
L 295.631134 155.742292 
L 295.817706 155.632595 
L 295.928388 155.58499 
L 295.928719 155.58499 
L 296.145439 155.475293 
L 296.259563 155.427689 
L 296.508463 155.317991 
L 296.617195 155.231062 
L 296.619559 155.231062 
L 296.822552 155.121364 
L 296.924692 155.053062 
L 296.933649 155.053062 
L 297.142779 154.943365 
L 297.255203 154.877133 
L 297.476733 154.767435 
L 297.588535 154.721901 
L 297.727416 154.612203 
L 297.841084 154.548041 
L 298.007998 154.438344 
L 298.120795 154.353483 
L 298.297704 154.243786 
L 298.409879 154.179624 
L 298.608103 154.069926 
L 298.715343 154.022322 
L 298.7192 154.022322 
L 298.89756 153.912625 
L 299.011643 153.86295 
L 299.202692 153.753253 
L 299.317024 153.674602 
L 299.491652 153.564905 
L 299.602085 153.506952 
L 299.602748 153.506952 
L 299.809639 153.397254 
L 299.921731 153.345511 
L 300.118504 153.234778 
L 300.227154 153.142674 
L 300.229559 153.142674 
L 300.479164 153.032977 
L 300.593081 152.962605 
L 300.774302 152.852908 
L 300.882289 152.788745 
L 300.885399 152.788745 
L 301.076863 152.679048 
L 301.190987 152.631443 
L 301.429354 152.521746 
L 301.54157 152.459653 
L 301.754972 152.349956 
L 301.862917 152.289933 
L 301.866069 152.289933 
L 302.100413 152.179201 
L 302.213189 152.095376 
L 302.387838 151.985678 
L 302.387838 151.984644 
L 302.503081 151.88219 
L 302.701554 151.772493 
L 302.807882 151.702121 
L 302.81261 151.702121 
L 303.014856 151.591389 
L 303.11994 151.530331 
L 303.125911 151.530331 
L 303.340557 151.420634 
L 303.453727 151.36889 
L 303.631217 151.259193 
L 303.737462 151.19917 
L 303.742189 151.19917 
L 303.94315 151.089472 
L 304.05773 151.02117 
L 304.219337 150.911473 
L 304.331346 150.863869 
L 304.572781 150.754171 
L 304.683878 150.687939 
L 304.864685 150.578242 
L 304.977067 150.514079 
L 305.222193 150.404382 
L 305.331341 150.350568 
L 305.333248 150.350568 
L 305.533048 150.240871 
L 305.645223 150.187057 
L 305.906812 150.07736 
L 306.019609 150.015267 
L 306.201287 149.90557 
L 306.314519 149.853826 
L 306.497047 149.744129 
L 306.607605 149.667548 
L 306.608061 149.667548 
L 306.84481 149.55785 
L 306.959473 149.489548 
L 307.136797 149.379851 
L 307.252082 149.276363 
L 307.488292 149.166666 
L 307.600861 149.090085 
L 307.809639 148.980387 
L 307.924343 148.891388 
L 308.130405 148.78169 
L 308.239968 148.721667 
L 308.24146 148.721667 
L 308.414264 148.61197 
L 308.527973 148.547808 
L 308.721843 148.43811 
L 308.834267 148.371878 
L 309.060317 148.262181 
L 309.163285 148.1856 
L 309.171289 148.1856 
L 309.307848 148.075902 
L 309.413844 148.017949 
L 309.418945 148.017949 
L 309.617127 147.908252 
L 309.725279 147.831671 
L 309.728224 147.831671 
L 309.951537 147.721974 
L 310.066076 147.637113 
L 310.302949 147.527416 
L 310.409028 147.475672 
L 310.414046 147.475672 
L 310.648867 147.365975 
L 310.760067 147.291464 
L 310.909938 147.181766 
L 311.02232 147.115534 
L 311.236012 147.005837 
L 311.348643 146.925116 
L 311.512074 146.815419 
L 311.623088 146.745047 
L 311.623171 146.745047 
L 311.794191 146.63535 
L 311.897201 146.587745 
L 311.905288 146.587745 
L 312.086551 146.478048 
L 312.193667 146.407676 
L 312.197565 146.407676 
L 312.397406 146.297979 
L 312.513521 146.217258 
L 312.717177 146.107561 
L 312.826822 146.03305 
L 312.828191 146.03305 
L 313.029152 145.923352 
L 313.129923 145.86126 
L 313.140249 145.86126 
L 313.297874 145.751562 
L 313.410215 145.6874 
L 313.608149 145.577703 
L 313.608149 145.576668 
L 313.724471 145.51561 
L 313.877866 145.405912 
L 313.987345 145.331401 
L 313.98888 145.331401 
L 314.127927 145.221704 
L 314.2406 145.140983 
L 314.472082 145.031286 
L 314.585086 144.985751 
L 314.754945 144.876054 
L 314.86542 144.791194 
L 314.866042 144.791194 
L 315.025699 144.681497 
L 315.138538 144.592497 
L 315.343148 144.4828 
L 315.451757 144.387591 
L 315.454245 144.387591 
L 315.659809 144.277893 
L 315.772523 144.193033 
L 315.893738 144.082301 
L 316.006245 144.006755 
L 316.214919 143.897058 
L 316.327385 143.828756 
L 316.53469 143.719058 
L 316.645787 143.648687 
L 316.782927 143.538989 
L 316.896677 143.474827 
L 317.07906 143.365129 
L 317.19194 143.269921 
L 317.386722 143.159188 
L 317.496824 143.10227 
L 317.497694 143.10227 
L 317.665853 142.992573 
L 317.776369 142.92841 
L 317.776867 142.92841 
L 318.019712 142.818713 
L 318.13591 142.75869 
L 318.289181 142.648993 
L 318.393559 142.58483 
L 318.400236 142.58483 
L 318.584029 142.475133 
L 318.696701 142.394412 
L 318.871868 142.284715 
L 318.980518 142.206064 
L 318.982965 142.206064 
L 319.162818 142.095332 
L 319.272919 142.011507 
L 319.273832 142.011507 
L 319.415243 141.901809 
L 319.527583 141.835577 
L 319.696406 141.72588 
L 319.808995 141.64102 
L 320.014435 141.531322 
L 320.117901 141.46509 
L 320.12549 141.46509 
L 320.312186 141.355393 
L 320.419882 141.266393 
L 320.423282 141.266393 
L 320.629552 141.156696 
L 320.741975 141.088394 
L 320.941734 140.978697 
L 321.050218 140.897976 
L 321.052789 140.897976 
L 321.24218 140.788279 
L 321.351037 140.717907 
L 321.353194 140.717907 
L 321.528112 140.60821 
L 321.638296 140.539908 
L 321.639209 140.539908 
L 321.834986 140.43021 
L 321.943636 140.328792 
L 321.945958 140.328792 
L 322.096555 140.219095 
L 322.210368 140.167351 
L 322.380932 140.057654 
L 322.494558 139.981072 
L 322.67437 139.871375 
L 322.781858 139.815492 
L 322.785466 139.815492 
L 322.94417 139.705794 
L 323.055018 139.639562 
L 323.055225 139.639562 
L 323.258052 139.529865 
L 323.370476 139.461563 
L 323.547758 139.351865 
L 323.656325 139.269075 
L 323.658772 139.269075 
L 323.81959 139.159378 
L 323.93218 139.082797 
L 324.128414 138.972065 
L 324.241542 138.869611 
L 324.396762 138.759914 
L 324.509062 138.699891 
L 324.674898 138.590194 
L 324.783299 138.507404 
L 324.785953 138.507404 
L 324.963028 138.397706 
L 325.072632 138.321125 
L 325.074083 138.321125 
L 325.248919 138.211428 
L 325.359269 138.141056 
L 325.360015 138.141056 
L 325.604022 138.031359 
L 325.71433 137.958917 
L 325.715118 137.958917 
L 325.907412 137.84922 
L 326.019546 137.789197 
L 326.169541 137.6795 
L 326.27902 137.611198 
L 326.280513 137.611198 
L 326.430923 137.5015 
L 326.543678 137.41664 
L 326.725771 137.306943 
L 326.832347 137.24485 
L 326.836867 137.24485 
L 326.956217 137.135153 
L 327.06553 137.054432 
L 327.067313 137.054432 
L 327.234186 136.944735 
L 327.345159 136.857805 
L 327.501001 136.748108 
L 327.609568 136.659108 
L 327.611973 136.659108 
L 327.789877 136.549411 
L 327.903338 136.47283 
L 328.060631 136.363133 
L 328.173097 136.292761 
L 328.359377 136.183063 
L 328.469894 136.118901 
L 328.470391 136.118901 
L 328.66227 136.009204 
L 328.771999 135.924343 
L 328.772952 135.924343 
L 328.88774 135.814646 
L 328.999998 135.754623 
L 329.177031 135.644926 
L 329.288003 135.555926 
L 329.288128 135.555926 
L 329.464414 135.446229 
L 329.573189 135.371718 
L 329.575511 135.371718 
L 329.730897 135.26202 
L 329.840584 135.193718 
L 329.841911 135.193718 
L 329.979963 135.084021 
L 330.08994 134.992952 
L 330.091059 134.992952 
L 330.234295 134.883254 
L 330.345018 134.792185 
L 330.345267 134.792185 
L 330.505257 134.682488 
L 330.615358 134.624534 
L 330.616353 134.624534 
L 330.774435 134.514837 
L 330.886838 134.450675 
L 331.057505 134.340977 
L 331.171546 134.266466 
L 331.300434 134.156769 
L 331.413106 134.076048 
L 331.597313 133.966351 
L 331.709737 133.900119 
L 331.886978 133.790421 
L 332.00189 133.697282 
L 332.189083 133.587585 
L 332.297318 133.517213 
L 332.300179 133.517213 
L 332.466057 133.407516 
L 332.578813 133.320586 
L 332.756012 133.210889 
L 332.869576 133.150866 
L 333.028217 133.041168 
L 333.124966 132.964587 
L 333.138982 132.964587 
L 333.320494 132.85489 
L 333.428149 132.7721 
L 333.431549 132.7721 
L 333.552557 132.662402 
L 333.658968 132.589961 
L 333.663654 132.589961 
L 333.866896 132.482333 
L 333.977702 132.414031 
L 333.977993 132.414031 
L 334.116418 132.304334 
L 334.23021 132.215334 
L 334.410063 132.105637 
L 334.509714 132.029056 
L 334.520994 132.029056 
L 334.708892 131.919359 
L 334.823306 131.838638 
L 335.037164 131.728941 
L 335.146975 131.65236 
L 335.148261 131.65236 
L 335.292575 131.542662 
L 335.40533 131.457802 
L 335.591818 131.348105 
L 335.69064 131.248756 
L 335.702625 131.248756 
L 335.904581 131.139059 
L 336.015346 131.039711 
L 336.015678 131.039711 
L 336.201129 130.930013 
L 336.312019 130.861711 
L 336.312185 130.861711 
L 336.454591 130.752014 
L 336.563697 130.673363 
L 336.565563 130.673363 
L 336.710333 130.563666 
L 336.82002 130.485015 
L 336.82143 130.485015 
L 336.978765 130.375318 
L 337.086005 130.296667 
L 337.08982 130.296667 
L 337.223393 130.18697 
L 337.332499 130.116598 
L 337.334469 130.116598 
L 337.493857 130.006901 
L 337.60682 129.913761 
L 337.763409 129.804064 
L 337.875936 129.733692 
L 338.021846 129.623995 
L 338.132611 129.539135 
L 338.132902 129.539135 
L 338.311511 129.429438 
L 338.419145 129.367345 
L 338.422607 129.367345 
L 338.603269 129.257648 
L 338.716833 129.176927 
L 338.838048 129.06723 
L 338.946325 128.984439 
L 338.949145 128.984439 
L 339.097067 128.874742 
L 339.204804 128.812649 
L 339.208163 128.812649 
L 339.369687 128.702952 
L 339.471163 128.624301 
L 339.480784 128.624301 
L 339.632147 128.514604 
L 339.744654 128.429744 
L 339.925212 128.320047 
L 340.028347 128.241396 
L 340.036226 128.241396 
L 340.183111 128.131698 
L 340.294166 128.046838 
L 340.428216 127.937141 
L 340.542029 127.848141 
L 340.713049 127.738444 
L 340.819833 127.672212 
L 340.824021 127.672212 
L 340.962882 127.562514 
L 341.074911 127.469375 
L 341.23685 127.359678 
L 341.349149 127.291376 
L 341.520211 127.181679 
L 341.631017 127.107167 
L 341.631266 127.107167 
L 341.787938 126.99747 
L 341.90061 126.918819 
L 342.061512 126.809122 
L 342.175677 126.730471 
L 342.357023 126.620774 
L 342.463517 126.56489 
L 342.468037 126.56489 
L 342.618447 126.455193 
L 342.725106 126.343426 
L 342.729419 126.343426 
L 342.894965 126.233729 
L 342.894965 126.232694 
L 343.008923 126.163357 
L 343.174594 126.05366 
L 343.289008 125.972939 
L 343.430377 125.863242 
L 343.539981 125.784591 
L 343.541474 125.784591 
L 343.684709 125.673859 
L 343.803105 125.585894 
L 343.983621 125.476197 
L 344.096211 125.401685 
L 344.251722 125.291988 
L 344.362818 125.205058 
L 344.50257 125.095361 
L 344.617109 125.010501 
L 344.735712 124.900804 
L 344.845689 124.822153 
L 344.846808 124.822153 
L 344.970387 124.712455 
L 345.082977 124.635874 
L 345.230152 124.525142 
L 345.338429 124.468224 
L 345.341249 124.468224 
L 345.545859 124.358527 
L 345.660688 124.259178 
L 345.832247 124.149481 
L 345.941893 124.060481 
L 345.943344 124.060481 
L 346.076503 123.950784 
L 346.191207 123.861784 
L 346.368862 123.752087 
L 346.47915 123.677576 
L 346.479669 123.677576 
L 346.619048 123.567878 
L 346.726246 123.485088 
L 346.730144 123.485088 
L 346.889055 123.374356 
L 346.9936 123.290531 
L 347.00011 123.290531 
L 347.148364 123.180833 
L 347.258797 123.089764 
L 347.259461 123.089764 
L 347.405682 122.980067 
L 347.518769 122.880718 
L 347.671211 122.771021 
L 347.781561 122.69444 
L 347.782225 122.69444 
L 347.907421 122.584743 
L 348.015366 122.497813 
L 348.018435 122.497813 
L 348.193643 122.388115 
L 348.193643 122.38708 
L 348.312909 122.288767 
L 348.437898 122.17907 
L 348.548 122.114907 
L 348.548995 122.114907 
L 348.670169 122.00521 
L 348.77886 121.91828 
L 348.781224 121.91828 
L 348.951207 121.808583 
L 349.061185 121.709234 
L 349.062304 121.709234 
L 349.196043 121.599537 
L 349.308508 121.525026 
L 349.435488 121.415328 
L 349.547414 121.328398 
L 349.664814 121.218701 
L 349.775372 121.119353 
L 349.77589 121.119353 
L 349.918524 121.008621 
L 350.029082 120.931005 
L 350.0296 120.931005 
L 350.220961 120.821307 
L 350.3259 120.738517 
L 350.332058 120.738517 
L 350.468866 120.62882 
L 350.581704 120.517053 
L 350.689608 120.407355 
L 350.802073 120.339053 
L 350.929674 120.229356 
L 351.042388 120.148635 
L 351.212206 120.038938 
L 351.32268 119.954078 
L 351.323302 119.954078 
L 351.457394 119.844381 
L 351.570709 119.771939 
L 351.745959 119.662242 
L 351.850753 119.573242 
L 351.857015 119.573242 
L 352.008855 119.463545 
L 352.120926 119.353848 
L 352.304346 119.24415 
L 352.304346 119.243116 
L 352.418926 119.157221 
L 352.553245 119.047523 
L 352.661522 118.954384 
L 352.664342 118.954384 
L 352.849669 118.844687 
L 352.955375 118.766036 
L 352.960724 118.766036 
L 353.082562 118.656339 
L 353.186609 118.571479 
L 353.193658 118.571479 
L 353.346266 118.461781 
L 353.45446 118.378991 
L 353.457363 118.378991 
L 353.613412 118.269294 
L 353.726209 118.184433 
L 353.852816 118.074736 
L 353.961797 117.994016 
L 353.963912 117.994016 
L 354.122077 117.884318 
L 354.232883 117.799458 
L 354.233174 117.799458 
L 354.367141 117.689761 
L 354.47888 117.606971 
L 354.586908 117.497273 
L 354.699539 117.420692 
L 354.829463 117.310995 
L 354.933468 117.232344 
L 354.940477 117.232344 
L 355.083215 117.122647 
L 355.196509 117.01088 
L 355.297384 116.901183 
L 355.409082 116.83288 
L 355.519059 116.723183 
L 355.63169 116.644532 
L 355.833522 116.534835 
L 355.833522 116.5338 
L 355.947065 116.464463 
L 356.075081 116.354766 
L 356.186842 116.282324 
L 356.343182 116.172627 
L 356.453781 116.087767 
L 356.454278 116.087767 
L 356.565997 116.007046 
L 356.713504 115.897349 
L 356.824518 115.795931 
L 356.95863 115.686234 
L 357.066907 115.584815 
L 357.069353 115.584815 
L 357.219141 115.475118 
L 357.330155 115.390258 
L 357.453838 115.279526 
L 357.570927 115.183282 
L 357.695418 115.073585 
L 357.805727 114.988725 
L 357.806515 114.988725 
L 357.93196 114.879027 
L 357.93196 114.877992 
L 358.044508 114.806586 
L 358.159917 114.696888 
L 358.258366 114.628586 
L 358.270434 114.628586 
L 358.385263 114.518889 
L 358.480352 114.456796 
L 358.49611 114.456796 
L 358.629227 114.347099 
L 358.737836 114.268448 
L 358.740283 114.268448 
L 358.874271 114.158751 
L 358.986653 114.086309 
L 359.177786 113.976612 
L 359.285316 113.891752 
L 359.28855 113.891752 
L 359.414286 113.782055 
L 359.527145 113.693055 
L 359.679732 113.583358 
L 359.788838 113.498498 
L 359.790787 113.498498 
L 359.932696 113.3888 
L 360.04288 113.281173 
L 360.043792 113.281173 
L 360.207307 113.171476 
L 360.323836 113.082476 
L 360.499293 112.972779 
L 360.606906 112.894128 
L 360.61039 112.894128 
L 360.718832 112.784431 
L 360.826943 112.70164 
L 360.829929 112.70164 
L 360.947744 112.591943 
L 361.056477 112.507083 
L 361.058758 112.507083 
L 361.168154 112.397385 
L 361.278878 112.331153 
L 361.278961 112.331153 
L 361.435342 112.221456 
L 361.544241 112.153154 
L 361.546314 112.153154 
L 361.720196 112.043457 
L 361.83067 111.960666 
L 361.831085 111.960666 
L 362.005257 111.850969 
L 362.11316 111.770248 
L 362.116333 111.770248 
L 362.269708 111.660551 
L 362.379975 111.592249 
L 362.380597 111.592249 
L 362.520059 111.482552 
L 362.630762 111.383203 
L 362.631155 111.383203 
L 362.751002 111.273506 
L 362.861394 111.186576 
L 362.862099 111.186576 
L 362.990903 111.076879 
L 363.096153 110.9796 
L 363.101958 110.9796 
L 363.233499 110.869903 
L 363.342917 110.751927 
L 363.344596 110.751927 
L 363.470083 110.642229 
L 363.576037 110.54909 
L 363.581138 110.54909 
L 363.712928 110.439393 
L 363.825932 110.342114 
L 363.973937 110.232417 
L 364.080182 110.137208 
L 364.084702 110.137208 
L 364.226486 110.027511 
L 364.226486 110.026476 
L 364.340237 109.959209 
L 364.446233 109.849511 
L 364.555007 109.762581 
L 364.557329 109.762581 
L 364.690571 109.652884 
L 364.690571 109.651849 
L 364.80822 109.574233 
L 364.935614 109.464536 
L 365.041734 109.377606 
L 365.04669 109.377606 
L 365.193098 109.267909 
L 365.296523 109.189258 
L 365.304194 109.189258 
L 365.404924 109.079561 
L 365.511956 109.005049 
L 365.515896 109.005049 
L 365.692432 108.895352 
L 365.796147 108.808422 
L 365.803487 108.808422 
L 365.915496 108.698725 
L 366.019605 108.638702 
L 366.026551 108.638702 
L 366.175095 108.529005 
L 366.282584 108.440005 
L 366.286191 108.440005 
L 366.427105 108.330308 
L 366.536335 108.247517 
L 366.538035 108.247517 
L 366.671235 108.13782 
L 366.780176 108.067448 
L 366.782291 108.067448 
L 366.950242 107.957751 
L 367.060302 107.860472 
L 367.061256 107.860472 
L 367.194912 107.750775 
L 367.302401 107.667985 
L 367.306009 107.667985 
L 367.419262 107.558287 
L 367.525258 107.471358 
L 367.530358 107.471358 
L 367.665217 107.36166 
L 367.778056 107.27473 
L 367.879822 107.165033 
L 367.990669 107.061545 
L 367.990898 107.061545 
L 368.15352 106.951848 
L 368.266317 106.862848 
L 368.424813 106.753151 
L 368.535537 106.645523 
L 368.535889 106.645523 
L 368.64203 106.535826 
L 368.754744 106.455106 
L 368.871647 106.345408 
L 368.981665 106.227432 
L 368.982702 106.227432 
L 369.088491 106.117735 
L 369.196767 106.028735 
L 369.199567 106.028735 
L 369.319724 105.919038 
L 369.432853 105.803131 
L 369.575259 105.693434 
L 369.671842 105.627202 
L 369.686356 105.627202 
L 369.837512 105.517504 
L 369.946784 105.430574 
L 369.94836 105.430574 
L 370.093462 105.320877 
L 370.206051 105.236017 
L 370.348748 105.12632 
L 370.459098 105.03939 
L 370.459762 105.03939 
L 370.575627 104.929693 
L 370.686662 104.813786 
L 370.686683 104.813786 
L 370.825066 104.704089 
L 370.938361 104.594392 
L 371.097064 104.484694 
L 371.207746 104.360509 
L 371.344264 104.250811 
L 371.455236 104.134905 
L 371.455361 104.134905 
L 371.607512 104.025208 
L 371.718111 103.936208 
L 371.718484 103.936208 
L 371.846376 103.826511 
L 371.950838 103.731302 
L 371.957348 103.731302 
L 372.110371 103.621605 
L 372.219726 103.528465 
L 372.221426 103.528465 
L 372.379466 103.418768 
L 372.489526 103.31528 
L 372.490521 103.31528 
L 372.634586 103.205583 
L 372.743734 103.114513 
L 372.745642 103.114513 
L 372.911602 103.004816 
L 373.022575 102.897189 
L 373.022616 102.897189 
L 373.124838 102.787491 
L 373.229673 102.698492 
L 373.235914 102.698492 
L 373.373406 102.588794 
L 373.478531 102.485307 
L 373.484503 102.485307 
L 373.621062 102.375609 
L 373.730168 102.290749 
L 373.732117 102.290749 
L 373.85607 102.181052 
L 373.965756 102.065145 
L 373.967166 102.065145 
L 374.095265 101.955448 
L 374.206238 101.858169 
L 374.206321 101.858169 
L 374.330646 101.748472 
L 374.441079 101.659472 
L 374.441743 101.659472 
L 374.583859 101.549775 
L 374.687366 101.473194 
L 374.694872 101.473194 
L 374.79838 101.365567 
L 374.79838 101.362462 
L 374.908191 101.268288 
L 374.909435 101.268288 
L 375.023974 101.158591 
L 375.130945 101.057172 
L 375.135029 101.057172 
L 375.26176 100.947475 
L 375.370534 100.860545 
L 375.372732 100.860545 
L 375.532804 100.750848 
L 375.532804 100.749813 
L 375.648007 100.64943 
L 375.771959 100.539732 
L 375.882517 100.452803 
L 375.883014 100.452803 
L 375.997055 100.343105 
L 376.109977 100.252036 
L 376.254498 100.142339 
L 376.364723 100.024362 
L 376.365553 100.024362 
L 376.518534 99.914665 
L 376.629382 99.836014 
L 376.62963 99.836014 
L 376.820473 99.726317 
L 376.928294 99.620759 
L 376.93157 99.620759 
L 377.050711 99.511062 
L 377.163654 99.419992 
L 377.291815 99.310295 
L 377.397562 99.217156 
L 377.402829 99.217156 
L 377.557344 99.107459 
L 377.667031 98.974994 
L 377.668316 98.974994 
L 377.792268 98.865297 
L 377.901126 98.774227 
L 377.903365 98.774227 
L 378.031962 98.66453 
L 378.143017 98.556903 
L 378.260708 98.447205 
L 378.36575 98.349927 
L 378.371514 98.349927 
L 378.523956 98.240229 
L 378.63414 98.14916 
L 378.635052 98.14916 
L 378.742002 98.039463 
L 378.852021 97.952533 
L 378.853078 97.952533 
L 378.991234 97.842836 
L 379.098308 97.745557 
L 379.102123 97.745557 
L 379.22168 97.63586 
L 379.331739 97.530302 
L 379.332735 97.530302 
L 379.470248 97.420605 
L 379.581178 97.321256 
L 379.687548 97.211559 
L 379.794124 97.099792 
L 379.798644 97.099792 
L 379.951169 96.990095 
L 380.0621 96.888676 
L 380.062266 96.888676 
L 380.16992 96.778979 
L 380.28081 96.68791 
L 380.281017 96.68791 
L 380.388174 96.578212 
L 380.496368 96.480934 
L 380.498815 96.480934 
L 380.663117 96.370202 
L 380.770046 96.271888 
L 380.774213 96.271888 
L 380.896341 96.162191 
L 381.004245 96.069052 
L 381.007355 96.069052 
L 381.110821 95.959354 
L 381.213582 95.886913 
L 381.221918 95.886913 
L 381.325011 95.777215 
L 381.433702 95.665448 
L 381.436108 95.665448 
L 381.559562 95.555751 
L 381.668378 95.446054 
L 381.670659 95.446054 
L 381.791459 95.336357 
L 381.89673 95.259776 
L 381.902515 95.259776 
L 382.035196 95.150078 
L 382.035196 95.149043 
L 382.148242 95.05073 
L 382.327743 94.941033 
L 382.437637 94.827196 
L 382.438756 94.827196 
L 382.566939 94.717499 
L 382.673515 94.595383 
L 382.678035 94.595383 
L 382.797094 94.485685 
L 382.904044 94.392546 
L 382.908108 94.392546 
L 383.002824 94.282849 
L 383.11504 94.171082 
L 383.229952 94.061385 
L 383.339473 93.949618 
L 383.341049 93.949618 
L 383.454841 93.83992 
L 383.565938 93.715735 
L 383.706685 93.606038 
L 383.806088 93.481852 
L 383.817699 93.481852 
L 383.923405 93.372155 
L 384.03334 93.235551 
L 384.034502 93.235551 
L 384.191878 93.125853 
L 384.300984 93.026505 
L 384.302975 93.026505 
L 384.403663 92.916808 
L 384.516128 92.778134 
L 384.610429 92.668436 
L 384.721277 92.585646 
L 384.862357 92.475949 
L 384.972997 92.372461 
L 384.973453 92.372461 
L 385.100847 92.262764 
L 385.208253 92.175834 
L 385.211944 92.175834 
L 385.349042 92.066136 
L 385.458439 91.939881 
L 385.460139 91.939881 
L 385.571899 91.829149 
L 385.679056 91.747393 
L 385.682996 91.747393 
L 385.806658 91.637696 
L 385.916386 91.550766 
L 385.917713 91.550766 
L 386.030137 91.441069 
L 386.140798 91.321023 
L 386.141026 91.321023 
L 386.271821 91.211326 
L 386.377941 91.126466 
L 386.382876 91.126466 
L 386.485471 91.016768 
L 386.592131 90.91742 
L 386.596527 90.91742 
L 386.717369 90.807723 
L 386.825936 90.681467 
L 386.8283 90.681467 
L 386.96743 90.57177 
L 387.077863 90.462073 
L 387.078526 90.462073 
L 387.189167 90.352375 
L 387.300098 90.244748 
L 387.300222 90.244748 
L 387.408292 90.135051 
L 387.408292 90.134016 
L 387.521088 90.043981 
L 387.654454 89.934284 
L 387.763602 89.818377 
L 387.765551 89.818377 
L 387.88237 89.70868 
L 387.993343 89.547239 
L 388.088723 89.437542 
L 388.197829 89.319565 
L 388.199778 89.319565 
L 388.343884 89.209868 
L 388.45382 89.093962 
L 388.454856 89.093962 
L 388.564709 88.984264 
L 388.675702 88.884916 
L 388.675764 88.884916 
L 388.806269 88.775219 
L 388.806269 88.774184 
L 388.919605 88.663452 
L 389.011294 88.553754 
L 389.121976 88.450266 
L 389.122391 88.450266 
L 389.240122 88.340569 
L 389.240122 88.339534 
L 389.356071 88.220523 
L 389.463104 88.109791 
L 389.571152 87.996989 
L 389.574034 87.996989 
L 389.672815 87.887292 
L 389.780594 87.794152 
L 389.783663 87.794152 
L 389.873403 87.684455 
L 389.98284 87.564409 
L 389.984499 87.564409 
L 390.117741 87.454712 
L 390.228215 87.345015 
L 390.228796 87.345015 
L 390.338192 87.235317 
L 390.447962 87.135969 
L 390.448791 87.135969 
L 390.569302 87.025237 
L 390.676334 86.912435 
L 390.680398 86.912435 
L 390.79332 86.802738 
L 390.90338 86.676482 
L 390.904416 86.676482 
L 391.007178 86.566785 
L 391.120846 86.43432 
L 391.235426 86.326693 
L 391.235426 86.324623 
L 391.342168 86.202507 
L 391.346522 86.202507 
L 391.441861 86.091775 
L 391.552667 85.960345 
L 391.552916 85.960345 
L 391.659575 85.850648 
L 391.769138 85.716114 
L 391.770672 85.716114 
L 391.881313 85.606417 
L 391.992078 85.494649 
L 391.992409 85.494649 
L 392.093305 85.383917 
L 392.204028 85.258697 
L 392.204318 85.258697 
L 392.312885 85.149 
L 392.421618 85.053791 
L 392.423858 85.053791 
L 392.570286 84.944093 
L 392.681134 84.832326 
L 392.681259 84.832326 
L 392.786218 84.722629 
L 392.901918 84.608792 
L 393.008287 84.499095 
L 393.115403 84.360421 
L 393.119176 84.360421 
L 393.230315 84.250724 
L 393.340706 84.107911 
L 393.341411 84.107911 
L 393.46752 83.998213 
L 393.57588 83.85126 
L 393.578617 83.85126 
L 393.658404 83.741563 
L 393.766224 83.648424 
L 393.769418 83.648424 
L 393.876948 83.538727 
L 393.984727 83.412471 
L 393.988045 83.412471 
L 394.103122 83.302774 
L 394.214178 83.188937 
L 394.214219 83.188937 
L 394.293467 83.07924 
L 394.402656 82.965403 
L 394.404564 82.965403 
L 394.482983 82.855706 
L 394.589062 82.73773 
L 394.594079 82.73773 
L 394.703476 82.628032 
L 394.814407 82.526614 
L 394.814448 82.526614 
L 394.896889 82.416917 
L 395.005913 82.309289 
L 395.007986 82.309289 
L 395.148236 82.199592 
L 395.256139 82.081616 
L 395.259291 82.081616 
L 395.355459 81.971919 
L 395.465353 81.851873 
L 395.466535 81.851873 
L 395.56405 81.742175 
L 395.668595 81.628338 
L 395.675106 81.628338 
L 395.76356 81.518641 
L 395.873454 81.388246 
L 395.874657 81.388246 
L 395.965433 81.278549 
L 396.07031 81.156433 
L 396.076323 81.156433 
L 396.190737 81.046736 
L 396.300714 80.912202 
L 396.301668 80.912202 
L 396.399536 80.802504 
L 396.51001 80.694877 
L 396.510632 80.694877 
L 396.608417 80.58518 
L 396.718975 80.460994 
L 396.719473 80.460994 
L 396.808964 80.351297 
L 396.919666 80.23539 
L 396.92006 80.23539 
L 397.022863 80.125693 
L 397.129689 79.970461 
L 397.13396 79.970461 
L 397.220921 79.860764 
L 397.327166 79.763485 
L 397.331935 79.763485 
L 397.446391 79.653788 
L 397.560556 79.500626 
L 397.679118 79.390928 
L 397.79009 79.229487 
L 397.790214 79.229487 
L 397.897993 79.11979 
L 398.008468 78.985255 
L 398.00909 78.985255 
L 398.080998 78.875558 
L 398.191639 78.77207 
L 398.19197 78.77207 
L 398.281959 78.662373 
L 398.392475 78.527838 
L 398.393056 78.527838 
L 398.4942 78.418141 
L 398.605172 78.287746 
L 398.605297 78.287746 
L 398.689604 78.178049 
L 398.800493 78.072491 
L 398.800639 78.072491 
L 398.901015 77.962794 
L 399.011324 77.853097 
L 399.012071 77.853097 
L 399.107575 77.742365 
L 399.218132 77.586098 
L 399.218672 77.586098 
L 399.297878 77.476401 
L 399.408685 77.30668 
L 399.408933 77.30668 
L 399.505226 77.196983 
L 399.616073 77.070728 
L 399.616281 77.070728 
L 399.71079 76.96103 
L 399.821886 76.857542 
L 399.909968 76.747845 
L 400.019654 76.600892 
L 400.021044 76.600892 
L 400.112504 76.491195 
L 400.224887 76.352521 
L 400.315456 76.242824 
L 400.426304 76.10208 
L 400.426553 76.10208 
L 400.526162 75.992383 
L 400.636305 75.857849 
L 400.637259 75.857849 
L 400.716134 75.748151 
L 400.827148 75.58671 
L 400.928499 75.477013 
L 401.034122 75.334199 
L 401.039596 75.334199 
L 401.118885 75.224502 
L 401.228655 75.087898 
L 401.229941 75.087898 
L 401.292643 74.98027 
L 401.292643 74.977166 
L 401.403739 74.831248 
L 401.496506 74.72155 
L 401.606649 74.582877 
L 401.607603 74.582877 
L 401.692284 74.473179 
L 401.80479 74.313808 
L 401.896148 74.204111 
L 402.006539 74.046809 
L 402.007244 74.046809 
L 402.112909 73.937112 
L 402.219983 73.78188 
L 402.223964 73.78188 
L 402.305203 73.672182 
L 402.416133 73.51902 
L 402.416258 73.51902 
L 402.493598 73.409323 
L 402.604239 73.245812 
L 402.604695 73.245812 
L 402.708783 73.136115 
L 402.816397 73.00365 
L 402.819839 73.00365 
L 402.899875 72.893953 
L 403.00782 72.782186 
L 403.010971 72.782186 
L 403.078318 72.672488 
L 403.186097 72.537954 
L 403.189415 72.537954 
L 403.285748 72.428257 
L 403.39361 72.262676 
L 403.396845 72.262676 
L 403.467675 72.152979 
L 403.578025 71.989468 
L 403.57873 71.989468 
L 403.649974 71.87977 
L 403.75456 71.782492 
L 403.761071 71.782492 
L 403.850521 71.672795 
L 403.961576 71.492725 
L 403.961617 71.492725 
L 404.038958 71.383028 
L 404.149972 71.248494 
L 404.150055 71.248494 
L 404.222875 71.137762 
L 404.333474 70.971146 
L 404.333972 70.971146 
L 404.40559 70.861449 
L 404.515815 70.704147 
L 404.516686 70.704147 
L 404.604477 70.59445 
L 404.714869 70.410241 
L 404.715491 70.410241 
L 404.792417 70.300544 
L 404.903223 70.118405 
L 404.903431 70.118405 
L 404.977454 70.008708 
L 405.087099 69.834848 
L 405.088509 69.834848 
L 405.180654 69.725151 
L 405.290672 69.549221 
L 405.291751 69.549221 
L 405.378173 69.439524 
L 405.488731 69.280152 
L 405.48927 69.280152 
L 405.57507 69.170455 
L 405.686125 68.996595 
L 405.766037 68.886898 
L 405.876138 68.704759 
L 405.877134 68.704759 
L 405.958372 68.597132 
L 406.06781 68.410853 
L 406.069428 68.410853 
L 406.13412 68.301156 
L 406.244636 68.152133 
L 406.245134 68.152133 
L 406.309577 68.042436 
L 406.419264 67.868576 
L 406.420674 67.868576 
L 406.500669 67.758879 
L 406.611102 67.597438 
L 406.611765 67.597438 
L 406.677329 67.48774 
L 406.787845 67.334578 
L 406.788384 67.334578 
L 406.853988 67.224881 
L 406.964131 67.040672 
L 406.965044 67.040672 
L 407.026501 66.930975 
L 407.137142 66.748836 
L 407.137598 66.748836 
L 407.205732 66.639139 
L 407.315875 66.457 
L 407.316788 66.457 
L 407.376006 66.347303 
L 407.4859 66.152746 
L 407.487061 66.152746 
L 407.554491 66.043048 
L 407.665173 65.910584 
L 407.665587 65.910584 
L 407.732975 65.800886 
L 407.84374 65.627027 
L 407.844072 65.627027 
L 407.92415 65.517329 
L 408.03508 65.343469 
L 408.035246 65.343469 
L 408.118393 65.233772 
L 408.229157 65.053703 
L 408.229406 65.053703 
L 408.309401 64.944006 
L 408.419585 64.716332 
L 408.420498 64.716332 
L 408.493899 64.606635 
L 408.604746 64.434845 
L 408.604995 64.434845 
L 408.661477 64.325148 
L 408.772159 64.13266 
L 408.772573 64.13266 
L 408.837763 64.022963 
L 408.948197 63.820126 
L 408.94886 63.820126 
L 409.022344 63.710429 
L 409.133192 63.52829 
L 409.133316 63.52829 
L 409.203275 63.418593 
L 409.313418 63.217826 
L 409.314372 63.217826 
L 409.39221 63.108129 
L 409.502975 62.907362 
L 409.503182 62.907362 
L 409.558834 62.797665 
L 409.668936 62.627945 
L 409.669765 62.627945 
L 409.741051 62.518248 
L 409.851899 62.350597 
L 409.852107 62.350597 
L 409.912942 62.2409 
L 410.021717 62.002877 
L 410.024039 62.002877 
L 410.097979 61.89318 
L 410.208744 61.692413 
L 410.209034 61.692413 
L 410.28484 61.582716 
L 410.395274 61.384019 
L 410.395937 61.384019 
L 410.462247 61.274322 
L 410.572556 61.079765 
L 410.573344 61.079765 
L 410.640192 60.970067 
L 410.640192 60.969032 
L 410.761781 60.709278 
L 410.822202 60.59958 
L 410.932946 60.405023 
L 410.933298 60.405023 
L 411.003257 60.295326 
L 411.111907 60.092489 
L 411.114313 60.092489 
L 411.171375 59.982792 
L 411.279444 59.73856 
L 411.28243 59.73856 
L 411.344676 59.628863 
L 411.454901 59.419817 
L 411.455772 59.419817 
L 411.512088 59.31012 
L 411.622811 59.119702 
L 411.623143 59.119702 
L 411.670252 59.010005 
L 411.781266 58.803029 
L 411.781349 58.803029 
L 411.835384 58.693332 
L 411.943039 58.484286 
L 411.946356 58.484286 
L 411.99981 58.374589 
L 412.110866 58.157264 
L 412.110907 58.157264 
L 412.171162 58.047567 
L 412.282176 57.795056 
L 412.282259 57.795056 
L 412.32717 57.685359 
L 412.437935 57.463894 
L 412.438267 57.463894 
L 412.481976 57.353162 
L 412.592948 57.120314 
L 412.59299 57.120314 
L 412.652954 57.010617 
L 412.763429 56.81399 
L 412.763968 56.81399 
L 412.824223 56.704293 
L 412.934864 56.486968 
L 412.935279 56.486968 
L 412.986493 56.377271 
L 413.095641 56.201341 
L 413.09759 56.201341 
L 413.157472 56.091644 
L 413.268071 55.874319 
L 413.268569 55.874319 
L 413.359553 55.764622 
L 413.470649 55.534878 
L 413.532688 55.425181 
L 413.642209 55.230624 
L 413.643784 55.230624 
L 413.714034 55.120927 
L 413.824716 54.953276 
L 413.825047 54.953276 
L 413.909894 54.843579 
L 414.019581 54.709044 
L 414.020949 54.709044 
L 414.125328 54.599347 
L 414.235637 54.479301 
L 414.236425 54.479301 
L 414.352663 54.369604 
L 414.461272 54.282674 
L 414.46376 54.282674 
L 414.660408 54.172977 
L 414.716268 54.144 
L 414.72 54.144 
" clip-path="url(#pa3a79a72f1)" style="fill: none; stroke: #ff8c00; stroke-width: 1.5; stroke-linecap: square"/>
   </g>
   <g id="line2d_14">
    <path d="M 74.605714 307.584 
L 414.72 54.144 
" clip-path="url(#pa3a79a72f1)" style="fill: none; stroke-dasharray: 5.55,2.4; stroke-dashoffset: 0; stroke: #0000ff; stroke-width: 1.5"/>
   </g>
   <g id="patch_3">
    <path d="M 57.6 307.584 
L 57.6 41.472 
" style="fill: none; stroke: #000000; stroke-width: 0.8; stroke-linejoin: miter; stroke-linecap: square"/>
   </g>
   <g id="patch_4">
    <path d="M 414.72 307.584 
L 414.72 41.472 
" style="fill: none; stroke: #000000; stroke-width: 0.8; stroke-linejoin: miter; stroke-linecap: square"/>
   </g>
   <g id="patch_5">
    <path d="M 57.6 307.584 
L 414.72 307.584 
" style="fill: none; stroke: #000000; stroke-width: 0.8; stroke-linejoin: miter; stroke-linecap: square"/>
   </g>
   <g id="patch_6">
    <path d="M 57.6 41.472 
L 414.72 41.472 
" style="fill: none; stroke: #000000; stroke-width: 0.8; stroke-linejoin: miter; stroke-linecap: square"/>
   </g>
   <g id="text_15">
    <!-- ROC CURVE -->
    <g transform="translate(200.855625 35.472)scale(0.12 -0.12)">
     <defs>
      <path id="DejaVuSans-4f" d="M 2522 4238 
Q 1834 4238 1429 3725 
Q 1025 3213 1025 2328 
Q 1025 1447 1429 934 
Q 1834 422 2522 422 
Q 3209 422 3611 934 
Q 4013 1447 4013 2328 
Q 4013 3213 3611 3725 
Q 3209 4238 2522 4238 
z
M 2522 4750 
Q 3503 4750 4090 4092 
Q 4678 3434 4678 2328 
Q 4678 1225 4090 567 
Q 3503 -91 2522 -91 
Q 1538 -91 948 565 
Q 359 1222 359 2328 
Q 359 3434 948 4092 
Q 1538 4750 2522 4750 
z
" transform="scale(0.015625)"/>
      <path id="DejaVuSans-43" d="M 4122 4306 
L 4122 3641 
Q 3803 3938 3442 4084 
Q 3081 4231 2675 4231 
Q 1875 4231 1450 3742 
Q 1025 3253 1025 2328 
Q 1025 1406 1450 917 
Q 1875 428 2675 428 
Q 3081 428 3442 575 
Q 3803 722 4122 1019 
L 4122 359 
Q 3791 134 3420 21 
Q 3050 -91 2638 -91 
Q 1578 -91 968 557 
Q 359 1206 359 2328 
Q 359 3453 968 4101 
Q 1578 4750 2638 4750 
Q 3056 4750 3426 4639 
Q 3797 4528 4122 4306 
z
" transform="scale(0.015625)"/>
      <path id="DejaVuSans-55" d="M 556 4666 
L 1191 4666 
L 1191 1831 
Q 1191 1081 1462 751 
Q 1734 422 2344 422 
Q 2950 422 3222 751 
Q 3494 1081 3494 1831 
L 3494 4666 
L 4128 4666 
L 4128 1753 
Q 4128 841 3676 375 
Q 3225 -91 2344 -91 
Q 1459 -91 1007 375 
Q 556 841 556 1753 
L 556 4666 
z
" transform="scale(0.015625)"/>
      <path id="DejaVuSans-56" d="M 1831 0 
L 50 4666 
L 709 4666 
L 2188 738 
L 3669 4666 
L 4325 4666 
L 2547 0 
L 1831 0 
z
" transform="scale(0.015625)"/>
      <path id="DejaVuSans-45" d="M 628 4666 
L 3578 4666 
L 3578 4134 
L 1259 4134 
L 1259 2753 
L 3481 2753 
L 3481 2222 
L 1259 2222 
L 1259 531 
L 3634 531 
L 3634 0 
L 628 0 
L 628 4666 
z
" transform="scale(0.015625)"/>
     </defs>
     <use xlink:href="#DejaVuSans-52"/>
     <use xlink:href="#DejaVuSans-4f" x="69.482422"/>
     <use xlink:href="#DejaVuSans-43" x="148.193359"/>
     <use xlink:href="#DejaVuSans-20" x="218.017578"/>
     <use xlink:href="#DejaVuSans-43" x="249.804688"/>
     <use xlink:href="#DejaVuSans-55" x="319.628906"/>
     <use xlink:href="#DejaVuSans-52" x="392.822266"/>
     <use xlink:href="#DejaVuSans-56" x="456.804688"/>
     <use xlink:href="#DejaVuSans-45" x="525.212891"/>
    </g>
   </g>
   <g id="legend_1">
    <g id="patch_7">
     <path d="M 234.97 302.584 
L 407.72 302.584 
Q 409.72 302.584 409.72 300.584 
L 409.72 286.905875 
Q 409.72 284.905875 407.72 284.905875 
L 234.97 284.905875 
Q 232.97 284.905875 232.97 286.905875 
L 232.97 300.584 
Q 232.97 302.584 234.97 302.584 
z
" style="fill: #ffffff; opacity: 0.8; stroke: #cccccc; stroke-linejoin: miter"/>
    </g>
    <g id="line2d_15">
     <path d="M 236.97 293.004312 
L 246.97 293.004312 
L 256.97 293.004312 
" style="fill: none; stroke: #ff8c00; stroke-width: 1.5; stroke-linecap: square"/>
    </g>
    <g id="text_16">
     <!-- ROC curve (ROC AUC=0.51) -->
     <g transform="translate(264.97 296.504312)scale(0.1 -0.1)">
      <defs>
       <path id="DejaVuSans-63" d="M 3122 3366 
L 3122 2828 
Q 2878 2963 2633 3030 
Q 2388 3097 2138 3097 
Q 1578 3097 1268 2742 
Q 959 2388 959 1747 
Q 959 1106 1268 751 
Q 1578 397 2138 397 
Q 2388 397 2633 464 
Q 2878 531 3122 666 
L 3122 134 
Q 2881 22 2623 -34 
Q 2366 -91 2075 -91 
Q 1284 -91 818 406 
Q 353 903 353 1747 
Q 353 2603 823 3093 
Q 1294 3584 2113 3584 
Q 2378 3584 2631 3529 
Q 2884 3475 3122 3366 
z
" transform="scale(0.015625)"/>
       <path id="DejaVuSans-28" d="M 1984 4856 
Q 1566 4138 1362 3434 
Q 1159 2731 1159 2009 
Q 1159 1288 1364 580 
Q 1569 -128 1984 -844 
L 1484 -844 
Q 1016 -109 783 600 
Q 550 1309 550 2009 
Q 550 2706 781 3412 
Q 1013 4119 1484 4856 
L 1984 4856 
z
" transform="scale(0.015625)"/>
       <path id="DejaVuSans-41" d="M 2188 4044 
L 1331 1722 
L 3047 1722 
L 2188 4044 
z
M 1831 4666 
L 2547 4666 
L 4325 0 
L 3669 0 
L 3244 1197 
L 1141 1197 
L 716 0 
L 50 0 
L 1831 4666 
z
" transform="scale(0.015625)"/>
       <path id="DejaVuSans-3d" d="M 678 2906 
L 4684 2906 
L 4684 2381 
L 678 2381 
L 678 2906 
z
M 678 1631 
L 4684 1631 
L 4684 1100 
L 678 1100 
L 678 1631 
z
" transform="scale(0.015625)"/>
       <path id="DejaVuSans-35" d="M 691 4666 
L 3169 4666 
L 3169 4134 
L 1269 4134 
L 1269 2991 
Q 1406 3038 1543 3061 
Q 1681 3084 1819 3084 
Q 2600 3084 3056 2656 
Q 3513 2228 3513 1497 
Q 3513 744 3044 326 
Q 2575 -91 1722 -91 
Q 1428 -91 1123 -41 
Q 819 9 494 109 
L 494 744 
Q 775 591 1075 516 
Q 1375 441 1709 441 
Q 2250 441 2565 725 
Q 2881 1009 2881 1497 
Q 2881 1984 2565 2268 
Q 2250 2553 1709 2553 
Q 1456 2553 1204 2497 
Q 953 2441 691 2322 
L 691 4666 
z
" transform="scale(0.015625)"/>
       <path id="DejaVuSans-29" d="M 513 4856 
L 1013 4856 
Q 1481 4119 1714 3412 
Q 1947 2706 1947 2009 
Q 1947 1309 1714 600 
Q 1481 -109 1013 -844 
L 513 -844 
Q 928 -128 1133 580 
Q 1338 1288 1338 2009 
Q 1338 2731 1133 3434 
Q 928 4138 513 4856 
z
" transform="scale(0.015625)"/>
      </defs>
      <use xlink:href="#DejaVuSans-52"/>
      <use xlink:href="#DejaVuSans-4f" x="69.482422"/>
      <use xlink:href="#DejaVuSans-43" x="148.193359"/>
      <use xlink:href="#DejaVuSans-20" x="218.017578"/>
      <use xlink:href="#DejaVuSans-63" x="249.804688"/>
      <use xlink:href="#DejaVuSans-75" x="304.785156"/>
      <use xlink:href="#DejaVuSans-72" x="368.164062"/>
      <use xlink:href="#DejaVuSans-76" x="409.277344"/>
      <use xlink:href="#DejaVuSans-65" x="468.457031"/>
      <use xlink:href="#DejaVuSans-20" x="529.980469"/>
      <use xlink:href="#DejaVuSans-28" x="561.767578"/>
      <use xlink:href="#DejaVuSans-52" x="600.78125"/>
      <use xlink:href="#DejaVuSans-4f" x="670.263672"/>
      <use xlink:href="#DejaVuSans-43" x="748.974609"/>
      <use xlink:href="#DejaVuSans-20" x="818.798828"/>
      <use xlink:href="#DejaVuSans-41" x="850.585938"/>
      <use xlink:href="#DejaVuSans-55" x="918.994141"/>
      <use xlink:href="#DejaVuSans-43" x="992.1875"/>
      <use xlink:href="#DejaVuSans-3d" x="1062.011719"/>
      <use xlink:href="#DejaVuSans-30" x="1145.800781"/>
      <use xlink:href="#DejaVuSans-2e" x="1209.423828"/>
      <use xlink:href="#DejaVuSans-35" x="1241.210938"/>
      <use xlink:href="#DejaVuSans-31" x="1304.833984"/>
      <use xlink:href="#DejaVuSans-29" x="1368.457031"/>
     </g>
    </g>
   </g>
  </g>
 </g>
 <defs>
  <clipPath id="pa3a79a72f1">
   <rect x="57.6" y="41.472" width="357.12" height="266.112"/>
  </clipPath>
 </defs>
</svg>
