<?xml version="1.0" encoding="utf-8" standalone="no"?>
<!DOCTYPE svg PUBLIC "-//W3C//DTD SVG 1.1//EN"
  "http://www.w3.org/Graphics/SVG/1.1/DTD/svg11.dtd">
<svg xmlns:xlink="http://www.w3.org/1999/xlink" width="460.8pt" height="345.6pt" viewBox="0 0 460.8 345.6" xmlns="http://www.w3.org/2000/svg" version="1.1">
 <metadata>
  <rdf:RDF xmlns:dc="http://purl.org/dc/elements/1.1/" xmlns:cc="http://creativecommons.org/ns#" xmlns:rdf="http://www.w3.org/1999/02/22-rdf-syntax-ns#">
   <cc:Work>
    <dc:type rdf:resource="http://purl.org/dc/dcmitype/StillImage"/>
    <dc:date>2022-05-22T20:35:07.058854</dc:date>
    <dc:format>image/svg+xml</dc:format>
    <dc:creator>
     <cc:Agent>
      <dc:title>Matplotlib v3.5.1, https://matplotlib.org/</dc:title>
     </cc:Agent>
    </dc:creator>
   </cc:Work>
  </rdf:RDF>
 </metadata>
 <defs>
  <style type="text/css">*{stroke-linejoin: round; stroke-linecap: butt}</style>
 </defs>
 <g id="figure_1">
  <g id="patch_1">
   <path d="M 0 345.6 
L 460.8 345.6 
L 460.8 0 
L 0 0 
z
" style="fill: #ffffff"/>
  </g>
  <g id="axes_1">
   <g id="patch_2">
    <path d="M 57.6 307.584 
L 414.72 307.584 
L 414.72 41.472 
L 57.6 41.472 
z
" style="fill: #ffffff"/>
   </g>
   <g id="matplotlib.axis_1">
    <g id="xtick_1">
     <g id="line2d_1">
      <defs>
       <path id="md4949d610c" d="M 0 0 
L 0 3.5 
" style="stroke: #000000; stroke-width: 0.8"/>
      </defs>
      <g>
       <use xlink:href="#md4949d610c" x="74.605714" y="307.584" style="stroke: #000000; stroke-width: 0.8"/>
      </g>
     </g>
     <g id="text_1">
      <!-- 0.0 -->
      <g transform="translate(66.654152 322.182437)scale(0.1 -0.1)">
       <defs>
        <path id="DejaVuSans-30" d="M 2034 4250 
Q 1547 4250 1301 3770 
Q 1056 3291 1056 2328 
Q 1056 1369 1301 889 
Q 1547 409 2034 409 
Q 2525 409 2770 889 
Q 3016 1369 3016 2328 
Q 3016 3291 2770 3770 
Q 2525 4250 2034 4250 
z
M 2034 4750 
Q 2819 4750 3233 4129 
Q 3647 3509 3647 2328 
Q 3647 1150 3233 529 
Q 2819 -91 2034 -91 
Q 1250 -91 836 529 
Q 422 1150 422 2328 
Q 422 3509 836 4129 
Q 1250 4750 2034 4750 
z
" transform="scale(0.015625)"/>
        <path id="DejaVuSans-2e" d="M 684 794 
L 1344 794 
L 1344 0 
L 684 0 
L 684 794 
z
" transform="scale(0.015625)"/>
       </defs>
       <use xlink:href="#DejaVuSans-30"/>
       <use xlink:href="#DejaVuSans-2e" x="63.623047"/>
       <use xlink:href="#DejaVuSans-30" x="95.410156"/>
      </g>
     </g>
    </g>
    <g id="xtick_2">
     <g id="line2d_2">
      <g>
       <use xlink:href="#md4949d610c" x="142.628571" y="307.584" style="stroke: #000000; stroke-width: 0.8"/>
      </g>
     </g>
     <g id="text_2">
      <!-- 0.2 -->
      <g transform="translate(134.677009 322.182437)scale(0.1 -0.1)">
       <defs>
        <path id="DejaVuSans-32" d="M 1228 531 
L 3431 531 
L 3431 0 
L 469 0 
L 469 531 
Q 828 903 1448 1529 
Q 2069 2156 2228 2338 
Q 2531 2678 2651 2914 
Q 2772 3150 2772 3378 
Q 2772 3750 2511 3984 
Q 2250 4219 1831 4219 
Q 1534 4219 1204 4116 
Q 875 4013 500 3803 
L 500 4441 
Q 881 4594 1212 4672 
Q 1544 4750 1819 4750 
Q 2544 4750 2975 4387 
Q 3406 4025 3406 3419 
Q 3406 3131 3298 2873 
Q 3191 2616 2906 2266 
Q 2828 2175 2409 1742 
Q 1991 1309 1228 531 
z
" transform="scale(0.015625)"/>
       </defs>
       <use xlink:href="#DejaVuSans-30"/>
       <use xlink:href="#DejaVuSans-2e" x="63.623047"/>
       <use xlink:href="#DejaVuSans-32" x="95.410156"/>
      </g>
     </g>
    </g>
    <g id="xtick_3">
     <g id="line2d_3">
      <g>
       <use xlink:href="#md4949d610c" x="210.651429" y="307.584" style="stroke: #000000; stroke-width: 0.8"/>
      </g>
     </g>
     <g id="text_3">
      <!-- 0.4 -->
      <g transform="translate(202.699866 322.182437)scale(0.1 -0.1)">
       <defs>
        <path id="DejaVuSans-34" d="M 2419 4116 
L 825 1625 
L 2419 1625 
L 2419 4116 
z
M 2253 4666 
L 3047 4666 
L 3047 1625 
L 3713 1625 
L 3713 1100 
L 3047 1100 
L 3047 0 
L 2419 0 
L 2419 1100 
L 313 1100 
L 313 1709 
L 2253 4666 
z
" transform="scale(0.015625)"/>
       </defs>
       <use xlink:href="#DejaVuSans-30"/>
       <use xlink:href="#DejaVuSans-2e" x="63.623047"/>
       <use xlink:href="#DejaVuSans-34" x="95.410156"/>
      </g>
     </g>
    </g>
    <g id="xtick_4">
     <g id="line2d_4">
      <g>
       <use xlink:href="#md4949d610c" x="278.674286" y="307.584" style="stroke: #000000; stroke-width: 0.8"/>
      </g>
     </g>
     <g id="text_4">
      <!-- 0.6 -->
      <g transform="translate(270.722723 322.182437)scale(0.1 -0.1)">
       <defs>
        <path id="DejaVuSans-36" d="M 2113 2584 
Q 1688 2584 1439 2293 
Q 1191 2003 1191 1497 
Q 1191 994 1439 701 
Q 1688 409 2113 409 
Q 2538 409 2786 701 
Q 3034 994 3034 1497 
Q 3034 2003 2786 2293 
Q 2538 2584 2113 2584 
z
M 3366 4563 
L 3366 3988 
Q 3128 4100 2886 4159 
Q 2644 4219 2406 4219 
Q 1781 4219 1451 3797 
Q 1122 3375 1075 2522 
Q 1259 2794 1537 2939 
Q 1816 3084 2150 3084 
Q 2853 3084 3261 2657 
Q 3669 2231 3669 1497 
Q 3669 778 3244 343 
Q 2819 -91 2113 -91 
Q 1303 -91 875 529 
Q 447 1150 447 2328 
Q 447 3434 972 4092 
Q 1497 4750 2381 4750 
Q 2619 4750 2861 4703 
Q 3103 4656 3366 4563 
z
" transform="scale(0.015625)"/>
       </defs>
       <use xlink:href="#DejaVuSans-30"/>
       <use xlink:href="#DejaVuSans-2e" x="63.623047"/>
       <use xlink:href="#DejaVuSans-36" x="95.410156"/>
      </g>
     </g>
    </g>
    <g id="xtick_5">
     <g id="line2d_5">
      <g>
       <use xlink:href="#md4949d610c" x="346.697143" y="307.584" style="stroke: #000000; stroke-width: 0.8"/>
      </g>
     </g>
     <g id="text_5">
      <!-- 0.8 -->
      <g transform="translate(338.74558 322.182437)scale(0.1 -0.1)">
       <defs>
        <path id="DejaVuSans-38" d="M 2034 2216 
Q 1584 2216 1326 1975 
Q 1069 1734 1069 1313 
Q 1069 891 1326 650 
Q 1584 409 2034 409 
Q 2484 409 2743 651 
Q 3003 894 3003 1313 
Q 3003 1734 2745 1975 
Q 2488 2216 2034 2216 
z
M 1403 2484 
Q 997 2584 770 2862 
Q 544 3141 544 3541 
Q 544 4100 942 4425 
Q 1341 4750 2034 4750 
Q 2731 4750 3128 4425 
Q 3525 4100 3525 3541 
Q 3525 3141 3298 2862 
Q 3072 2584 2669 2484 
Q 3125 2378 3379 2068 
Q 3634 1759 3634 1313 
Q 3634 634 3220 271 
Q 2806 -91 2034 -91 
Q 1263 -91 848 271 
Q 434 634 434 1313 
Q 434 1759 690 2068 
Q 947 2378 1403 2484 
z
M 1172 3481 
Q 1172 3119 1398 2916 
Q 1625 2713 2034 2713 
Q 2441 2713 2670 2916 
Q 2900 3119 2900 3481 
Q 2900 3844 2670 4047 
Q 2441 4250 2034 4250 
Q 1625 4250 1398 4047 
Q 1172 3844 1172 3481 
z
" transform="scale(0.015625)"/>
       </defs>
       <use xlink:href="#DejaVuSans-30"/>
       <use xlink:href="#DejaVuSans-2e" x="63.623047"/>
       <use xlink:href="#DejaVuSans-38" x="95.410156"/>
      </g>
     </g>
    </g>
    <g id="xtick_6">
     <g id="line2d_6">
      <g>
       <use xlink:href="#md4949d610c" x="414.72" y="307.584" style="stroke: #000000; stroke-width: 0.8"/>
      </g>
     </g>
     <g id="text_6">
      <!-- 1.0 -->
      <g transform="translate(406.768438 322.182437)scale(0.1 -0.1)">
       <defs>
        <path id="DejaVuSans-31" d="M 794 531 
L 1825 531 
L 1825 4091 
L 703 3866 
L 703 4441 
L 1819 4666 
L 2450 4666 
L 2450 531 
L 3481 531 
L 3481 0 
L 794 0 
L 794 531 
z
" transform="scale(0.015625)"/>
       </defs>
       <use xlink:href="#DejaVuSans-31"/>
       <use xlink:href="#DejaVuSans-2e" x="63.623047"/>
       <use xlink:href="#DejaVuSans-30" x="95.410156"/>
      </g>
     </g>
    </g>
    <g id="text_7">
     <!-- False Positive Rate -->
     <g transform="translate(189.693594 335.860562)scale(0.1 -0.1)">
      <defs>
       <path id="DejaVuSans-46" d="M 628 4666 
L 3309 4666 
L 3309 4134 
L 1259 4134 
L 1259 2759 
L 3109 2759 
L 3109 2228 
L 1259 2228 
L 1259 0 
L 628 0 
L 628 4666 
z
" transform="scale(0.015625)"/>
       <path id="DejaVuSans-61" d="M 2194 1759 
Q 1497 1759 1228 1600 
Q 959 1441 959 1056 
Q 959 750 1161 570 
Q 1363 391 1709 391 
Q 2188 391 2477 730 
Q 2766 1069 2766 1631 
L 2766 1759 
L 2194 1759 
z
M 3341 1997 
L 3341 0 
L 2766 0 
L 2766 531 
Q 2569 213 2275 61 
Q 1981 -91 1556 -91 
Q 1019 -91 701 211 
Q 384 513 384 1019 
Q 384 1609 779 1909 
Q 1175 2209 1959 2209 
L 2766 2209 
L 2766 2266 
Q 2766 2663 2505 2880 
Q 2244 3097 1772 3097 
Q 1472 3097 1187 3025 
Q 903 2953 641 2809 
L 641 3341 
Q 956 3463 1253 3523 
Q 1550 3584 1831 3584 
Q 2591 3584 2966 3190 
Q 3341 2797 3341 1997 
z
" transform="scale(0.015625)"/>
       <path id="DejaVuSans-6c" d="M 603 4863 
L 1178 4863 
L 1178 0 
L 603 0 
L 603 4863 
z
" transform="scale(0.015625)"/>
       <path id="DejaVuSans-73" d="M 2834 3397 
L 2834 2853 
Q 2591 2978 2328 3040 
Q 2066 3103 1784 3103 
Q 1356 3103 1142 2972 
Q 928 2841 928 2578 
Q 928 2378 1081 2264 
Q 1234 2150 1697 2047 
L 1894 2003 
Q 2506 1872 2764 1633 
Q 3022 1394 3022 966 
Q 3022 478 2636 193 
Q 2250 -91 1575 -91 
Q 1294 -91 989 -36 
Q 684 19 347 128 
L 347 722 
Q 666 556 975 473 
Q 1284 391 1588 391 
Q 1994 391 2212 530 
Q 2431 669 2431 922 
Q 2431 1156 2273 1281 
Q 2116 1406 1581 1522 
L 1381 1569 
Q 847 1681 609 1914 
Q 372 2147 372 2553 
Q 372 3047 722 3315 
Q 1072 3584 1716 3584 
Q 2034 3584 2315 3537 
Q 2597 3491 2834 3397 
z
" transform="scale(0.015625)"/>
       <path id="DejaVuSans-65" d="M 3597 1894 
L 3597 1613 
L 953 1613 
Q 991 1019 1311 708 
Q 1631 397 2203 397 
Q 2534 397 2845 478 
Q 3156 559 3463 722 
L 3463 178 
Q 3153 47 2828 -22 
Q 2503 -91 2169 -91 
Q 1331 -91 842 396 
Q 353 884 353 1716 
Q 353 2575 817 3079 
Q 1281 3584 2069 3584 
Q 2775 3584 3186 3129 
Q 3597 2675 3597 1894 
z
M 3022 2063 
Q 3016 2534 2758 2815 
Q 2500 3097 2075 3097 
Q 1594 3097 1305 2825 
Q 1016 2553 972 2059 
L 3022 2063 
z
" transform="scale(0.015625)"/>
       <path id="DejaVuSans-20" transform="scale(0.015625)"/>
       <path id="DejaVuSans-50" d="M 1259 4147 
L 1259 2394 
L 2053 2394 
Q 2494 2394 2734 2622 
Q 2975 2850 2975 3272 
Q 2975 3691 2734 3919 
Q 2494 4147 2053 4147 
L 1259 4147 
z
M 628 4666 
L 2053 4666 
Q 2838 4666 3239 4311 
Q 3641 3956 3641 3272 
Q 3641 2581 3239 2228 
Q 2838 1875 2053 1875 
L 1259 1875 
L 1259 0 
L 628 0 
L 628 4666 
z
" transform="scale(0.015625)"/>
       <path id="DejaVuSans-6f" d="M 1959 3097 
Q 1497 3097 1228 2736 
Q 959 2375 959 1747 
Q 959 1119 1226 758 
Q 1494 397 1959 397 
Q 2419 397 2687 759 
Q 2956 1122 2956 1747 
Q 2956 2369 2687 2733 
Q 2419 3097 1959 3097 
z
M 1959 3584 
Q 2709 3584 3137 3096 
Q 3566 2609 3566 1747 
Q 3566 888 3137 398 
Q 2709 -91 1959 -91 
Q 1206 -91 779 398 
Q 353 888 353 1747 
Q 353 2609 779 3096 
Q 1206 3584 1959 3584 
z
" transform="scale(0.015625)"/>
       <path id="DejaVuSans-69" d="M 603 3500 
L 1178 3500 
L 1178 0 
L 603 0 
L 603 3500 
z
M 603 4863 
L 1178 4863 
L 1178 4134 
L 603 4134 
L 603 4863 
z
" transform="scale(0.015625)"/>
       <path id="DejaVuSans-74" d="M 1172 4494 
L 1172 3500 
L 2356 3500 
L 2356 3053 
L 1172 3053 
L 1172 1153 
Q 1172 725 1289 603 
Q 1406 481 1766 481 
L 2356 481 
L 2356 0 
L 1766 0 
Q 1100 0 847 248 
Q 594 497 594 1153 
L 594 3053 
L 172 3053 
L 172 3500 
L 594 3500 
L 594 4494 
L 1172 4494 
z
" transform="scale(0.015625)"/>
       <path id="DejaVuSans-76" d="M 191 3500 
L 800 3500 
L 1894 563 
L 2988 3500 
L 3597 3500 
L 2284 0 
L 1503 0 
L 191 3500 
z
" transform="scale(0.015625)"/>
       <path id="DejaVuSans-52" d="M 2841 2188 
Q 3044 2119 3236 1894 
Q 3428 1669 3622 1275 
L 4263 0 
L 3584 0 
L 2988 1197 
Q 2756 1666 2539 1819 
Q 2322 1972 1947 1972 
L 1259 1972 
L 1259 0 
L 628 0 
L 628 4666 
L 2053 4666 
Q 2853 4666 3247 4331 
Q 3641 3997 3641 3322 
Q 3641 2881 3436 2590 
Q 3231 2300 2841 2188 
z
M 1259 4147 
L 1259 2491 
L 2053 2491 
Q 2509 2491 2742 2702 
Q 2975 2913 2975 3322 
Q 2975 3731 2742 3939 
Q 2509 4147 2053 4147 
L 1259 4147 
z
" transform="scale(0.015625)"/>
      </defs>
      <use xlink:href="#DejaVuSans-46"/>
      <use xlink:href="#DejaVuSans-61" x="48.394531"/>
      <use xlink:href="#DejaVuSans-6c" x="109.673828"/>
      <use xlink:href="#DejaVuSans-73" x="137.457031"/>
      <use xlink:href="#DejaVuSans-65" x="189.556641"/>
      <use xlink:href="#DejaVuSans-20" x="251.080078"/>
      <use xlink:href="#DejaVuSans-50" x="282.867188"/>
      <use xlink:href="#DejaVuSans-6f" x="339.544922"/>
      <use xlink:href="#DejaVuSans-73" x="400.726562"/>
      <use xlink:href="#DejaVuSans-69" x="452.826172"/>
      <use xlink:href="#DejaVuSans-74" x="480.609375"/>
      <use xlink:href="#DejaVuSans-69" x="519.818359"/>
      <use xlink:href="#DejaVuSans-76" x="547.601562"/>
      <use xlink:href="#DejaVuSans-65" x="606.78125"/>
      <use xlink:href="#DejaVuSans-20" x="668.304688"/>
      <use xlink:href="#DejaVuSans-52" x="700.091797"/>
      <use xlink:href="#DejaVuSans-61" x="767.324219"/>
      <use xlink:href="#DejaVuSans-74" x="828.603516"/>
      <use xlink:href="#DejaVuSans-65" x="867.8125"/>
     </g>
    </g>
   </g>
   <g id="matplotlib.axis_2">
    <g id="ytick_1">
     <g id="line2d_7">
      <defs>
       <path id="m3fdd897680" d="M 0 0 
L -3.5 0 
" style="stroke: #000000; stroke-width: 0.8"/>
      </defs>
      <g>
       <use xlink:href="#m3fdd897680" x="57.6" y="307.584" style="stroke: #000000; stroke-width: 0.8"/>
      </g>
     </g>
     <g id="text_8">
      <!-- 0.0 -->
      <g transform="translate(34.696875 311.383219)scale(0.1 -0.1)">
       <use xlink:href="#DejaVuSans-30"/>
       <use xlink:href="#DejaVuSans-2e" x="63.623047"/>
       <use xlink:href="#DejaVuSans-30" x="95.410156"/>
      </g>
     </g>
    </g>
    <g id="ytick_2">
     <g id="line2d_8">
      <g>
       <use xlink:href="#m3fdd897680" x="57.6" y="256.896" style="stroke: #000000; stroke-width: 0.8"/>
      </g>
     </g>
     <g id="text_9">
      <!-- 0.2 -->
      <g transform="translate(34.696875 260.695219)scale(0.1 -0.1)">
       <use xlink:href="#DejaVuSans-30"/>
       <use xlink:href="#DejaVuSans-2e" x="63.623047"/>
       <use xlink:href="#DejaVuSans-32" x="95.410156"/>
      </g>
     </g>
    </g>
    <g id="ytick_3">
     <g id="line2d_9">
      <g>
       <use xlink:href="#m3fdd897680" x="57.6" y="206.208" style="stroke: #000000; stroke-width: 0.8"/>
      </g>
     </g>
     <g id="text_10">
      <!-- 0.4 -->
      <g transform="translate(34.696875 210.007219)scale(0.1 -0.1)">
       <use xlink:href="#DejaVuSans-30"/>
       <use xlink:href="#DejaVuSans-2e" x="63.623047"/>
       <use xlink:href="#DejaVuSans-34" x="95.410156"/>
      </g>
     </g>
    </g>
    <g id="ytick_4">
     <g id="line2d_10">
      <g>
       <use xlink:href="#m3fdd897680" x="57.6" y="155.52" style="stroke: #000000; stroke-width: 0.8"/>
      </g>
     </g>
     <g id="text_11">
      <!-- 0.6 -->
      <g transform="translate(34.696875 159.319219)scale(0.1 -0.1)">
       <use xlink:href="#DejaVuSans-30"/>
       <use xlink:href="#DejaVuSans-2e" x="63.623047"/>
       <use xlink:href="#DejaVuSans-36" x="95.410156"/>
      </g>
     </g>
    </g>
    <g id="ytick_5">
     <g id="line2d_11">
      <g>
       <use xlink:href="#m3fdd897680" x="57.6" y="104.832" style="stroke: #000000; stroke-width: 0.8"/>
      </g>
     </g>
     <g id="text_12">
      <!-- 0.8 -->
      <g transform="translate(34.696875 108.631219)scale(0.1 -0.1)">
       <use xlink:href="#DejaVuSans-30"/>
       <use xlink:href="#DejaVuSans-2e" x="63.623047"/>
       <use xlink:href="#DejaVuSans-38" x="95.410156"/>
      </g>
     </g>
    </g>
    <g id="ytick_6">
     <g id="line2d_12">
      <g>
       <use xlink:href="#m3fdd897680" x="57.6" y="54.144" style="stroke: #000000; stroke-width: 0.8"/>
      </g>
     </g>
     <g id="text_13">
      <!-- 1.0 -->
      <g transform="translate(34.696875 57.943219)scale(0.1 -0.1)">
       <use xlink:href="#DejaVuSans-31"/>
       <use xlink:href="#DejaVuSans-2e" x="63.623047"/>
       <use xlink:href="#DejaVuSans-30" x="95.410156"/>
      </g>
     </g>
    </g>
    <g id="text_14">
     <!-- True Positive Rate -->
     <g transform="translate(28.617187 219.057687)rotate(-90)scale(0.1 -0.1)">
      <defs>
       <path id="DejaVuSans-54" d="M -19 4666 
L 3928 4666 
L 3928 4134 
L 2272 4134 
L 2272 0 
L 1638 0 
L 1638 4134 
L -19 4134 
L -19 4666 
z
" transform="scale(0.015625)"/>
       <path id="DejaVuSans-72" d="M 2631 2963 
Q 2534 3019 2420 3045 
Q 2306 3072 2169 3072 
Q 1681 3072 1420 2755 
Q 1159 2438 1159 1844 
L 1159 0 
L 581 0 
L 581 3500 
L 1159 3500 
L 1159 2956 
Q 1341 3275 1631 3429 
Q 1922 3584 2338 3584 
Q 2397 3584 2469 3576 
Q 2541 3569 2628 3553 
L 2631 2963 
z
" transform="scale(0.015625)"/>
       <path id="DejaVuSans-75" d="M 544 1381 
L 544 3500 
L 1119 3500 
L 1119 1403 
Q 1119 906 1312 657 
Q 1506 409 1894 409 
Q 2359 409 2629 706 
Q 2900 1003 2900 1516 
L 2900 3500 
L 3475 3500 
L 3475 0 
L 2900 0 
L 2900 538 
Q 2691 219 2414 64 
Q 2138 -91 1772 -91 
Q 1169 -91 856 284 
Q 544 659 544 1381 
z
M 1991 3584 
L 1991 3584 
z
" transform="scale(0.015625)"/>
      </defs>
      <use xlink:href="#DejaVuSans-54"/>
      <use xlink:href="#DejaVuSans-72" x="46.333984"/>
      <use xlink:href="#DejaVuSans-75" x="87.447266"/>
      <use xlink:href="#DejaVuSans-65" x="150.826172"/>
      <use xlink:href="#DejaVuSans-20" x="212.349609"/>
      <use xlink:href="#DejaVuSans-50" x="244.136719"/>
      <use xlink:href="#DejaVuSans-6f" x="300.814453"/>
      <use xlink:href="#DejaVuSans-73" x="361.996094"/>
      <use xlink:href="#DejaVuSans-69" x="414.095703"/>
      <use xlink:href="#DejaVuSans-74" x="441.878906"/>
      <use xlink:href="#DejaVuSans-69" x="481.087891"/>
      <use xlink:href="#DejaVuSans-76" x="508.871094"/>
      <use xlink:href="#DejaVuSans-65" x="568.050781"/>
      <use xlink:href="#DejaVuSans-20" x="629.574219"/>
      <use xlink:href="#DejaVuSans-52" x="661.361328"/>
      <use xlink:href="#DejaVuSans-61" x="728.59375"/>
      <use xlink:href="#DejaVuSans-74" x="789.873047"/>
      <use xlink:href="#DejaVuSans-65" x="829.082031"/>
     </g>
    </g>
   </g>
   <g id="line2d_13">
    <path d="M 74.605714 307.584 
L 76.839011 307.474303 
L 76.940279 307.437047 
L 76.949859 307.437047 
L 77.258578 307.326315 
L 77.369613 307.259048 
L 77.369675 307.259048 
L 77.563731 307.14935 
L 77.673874 307.110025 
L 77.674828 307.110025 
L 77.900381 307.000328 
L 78.012307 306.958933 
L 78.232675 306.8482 
L 78.344767 306.797491 
L 78.460965 306.737468 
L 78.733564 306.626736 
L 78.849036 306.557399 
L 79.10849 306.447702 
L 79.221826 306.393888 
L 79.531126 306.284191 
L 79.646681 306.232447 
L 79.920939 306.12275 
L 80.033197 306.064796 
L 80.324644 305.955099 
L 80.431034 305.903355 
L 80.435616 305.903355 
L 80.684371 305.793658 
L 80.799034 305.752263 
L 81.096785 305.642565 
L 81.212112 305.5991 
L 81.551809 305.488368 
L 81.665974 305.454217 
L 82.022218 305.34452 
L 82.136445 305.303125 
L 82.449581 305.192393 
L 82.573036 305.141684 
L 82.917917 305.031986 
L 83.034695 304.984382 
L 83.367923 304.87365 
L 83.480823 304.82915 
L 83.771669 304.719453 
L 83.885399 304.682197 
L 84.168138 304.571465 
L 84.28981 304.529035 
L 84.699051 304.419337 
L 84.811869 304.375873 
L 85.121148 304.26514 
L 85.244603 304.214431 
L 85.553384 304.104734 
L 85.665331 304.059199 
L 85.945271 303.949502 
L 86.061924 303.908107 
L 86.35727 303.797375 
L 86.479625 303.744596 
L 86.782622 303.633864 
L 86.898073 303.581085 
L 87.192569 303.472422 
L 87.310736 303.432062 
L 87.677056 303.322365 
L 87.790206 303.27476 
L 88.140125 303.165063 
L 88.255224 303.125738 
L 88.646571 303.01604 
L 88.759783 302.982924 
L 89.122184 302.874262 
L 89.235313 302.842181 
L 89.586559 302.731448 
L 89.702695 302.701437 
L 90.089729 302.59174 
L 90.210841 302.546205 
L 90.505896 302.436508 
L 90.624084 302.376485 
L 90.977238 302.266787 
L 91.092834 302.231602 
L 91.359151 302.121904 
L 91.478231 302.066021 
L 91.86738 301.956323 
L 91.9938 301.90458 
L 92.325659 301.794882 
L 92.440737 301.759696 
L 92.918693 301.648964 
L 93.049032 301.614813 
L 93.405172 301.504081 
L 93.535593 301.455442 
L 93.940812 301.345744 
L 94.059436 301.29607 
L 94.320196 301.185338 
L 94.44448 301.157396 
L 94.946239 301.046664 
L 95.085286 301.016653 
L 95.344699 300.90592 
L 95.469978 300.8697 
L 95.919445 300.758968 
L 96.042899 300.714468 
L 96.423693 300.603736 
L 96.571469 300.555096 
L 96.951765 300.444364 
L 97.074867 300.412283 
L 97.444277 300.302586 
L 97.55979 300.257051 
L 97.890966 300.146319 
L 98.023917 300.116307 
L 98.371928 300.00661 
L 98.491402 299.969354 
L 98.870039 299.858622 
L 98.989595 299.818262 
L 99.495419 299.70753 
L 99.629075 299.66303 
L 100.049472 299.553333 
L 100.169008 299.507798 
L 100.502567 299.397066 
L 100.633321 299.369124 
L 100.928459 299.259427 
L 101.049902 299.218031 
L 101.370834 299.107299 
L 101.504781 299.081427 
L 101.897891 298.97173 
L 102.017343 298.936544 
L 102.402947 298.825812 
L 102.573138 298.785452 
L 102.868131 298.675754 
L 102.98352 298.642638 
L 103.397053 298.532941 
L 103.517564 298.489476 
L 103.877145 298.379779 
L 103.993281 298.350802 
L 104.372747 298.24007 
L 104.523281 298.191431 
L 104.870546 298.081733 
L 104.992114 298.050687 
L 105.379688 297.939955 
L 105.520622 297.891316 
L 105.851942 297.780583 
L 106.014046 297.729874 
L 106.426979 297.620177 
L 106.543093 297.584991 
L 107.020261 297.475294 
L 107.142327 297.444247 
L 107.501266 297.33455 
L 107.621009 297.301434 
L 108.006136 297.191737 
L 108.132348 297.1669 
L 108.513515 297.057202 
L 108.629235 297.026156 
L 109.003435 296.916459 
L 109.14186 296.877133 
L 109.663194 296.766401 
L 109.79544 296.738459 
L 110.185336 296.627727 
L 110.321687 296.585297 
L 110.811877 296.474565 
L 110.933445 296.432135 
L 111.280109 296.321403 
L 111.431016 296.291391 
L 111.902213 296.181694 
L 112.024631 296.146508 
L 112.444737 296.035776 
L 112.6051 295.991276 
L 112.976811 295.880544 
L 113.10829 295.856742 
L 113.493853 295.74601 
L 113.667796 295.713928 
L 114.025844 295.603196 
L 114.155871 295.562836 
L 114.610252 295.452104 
L 114.768375 295.407604 
L 115.10293 295.296872 
L 115.259457 295.244093 
L 115.664738 295.134396 
L 115.787073 295.088861 
L 116.300651 294.978129 
L 116.44482 294.933629 
L 116.876268 294.823932 
L 117.00501 294.778397 
L 117.372409 294.667665 
L 117.527318 294.631444 
L 117.956921 294.521747 
L 118.083714 294.478282 
L 118.553916 294.368585 
L 118.678739 294.340643 
L 118.831367 294.292003 
L 119.205982 294.182306 
L 119.320831 294.157469 
L 119.691465 294.047772 
L 119.810461 294.022935 
L 120.245331 293.913237 
L 120.361238 293.8884 
L 120.701267 293.778703 
L 120.818605 293.749726 
L 121.104537 293.638994 
L 121.23782 293.604843 
L 121.671964 293.495146 
L 121.803111 293.470309 
L 122.162921 293.360612 
L 122.285255 293.327495 
L 122.615207 293.216763 
L 122.739284 293.180543 
L 123.221035 293.06981 
L 123.358755 293.035659 
L 123.817656 292.924927 
L 124.027574 292.851451 
L 124.439408 292.741754 
L 124.557865 292.716916 
L 125.057427 292.607219 
L 125.179969 292.572033 
L 125.644303 292.462336 
L 125.776259 292.42715 
L 126.181913 292.320557 
L 126.298318 292.284337 
L 126.427267 292.25536 
L 126.820004 292.144628 
L 126.971015 292.108407 
L 127.420751 291.997675 
L 127.545637 291.963524 
L 128.066721 291.852792 
L 128.201621 291.831059 
L 128.673834 291.720327 
L 128.865403 291.673758 
L 129.292891 291.563025 
L 129.427957 291.530944 
L 129.894156 291.421247 
L 130.023873 291.39227 
L 130.534258 291.282573 
L 130.65396 291.241178 
L 131.059801 291.131481 
L 131.186407 291.100434 
L 131.689494 290.990737 
L 131.811435 290.967969 
L 132.294264 290.857237 
L 132.467171 290.796179 
L 132.972269 290.686482 
L 133.099228 290.659575 
L 133.553526 290.549878 
L 133.678971 290.53125 
L 134.22531 290.420518 
L 134.375098 290.392576 
L 134.832963 290.281844 
L 134.958698 290.255972 
L 135.448183 290.14524 
L 135.587873 290.111089 
L 135.939949 290.000357 
L 136.102198 289.972415 
L 136.514612 289.861683 
L 136.760526 289.796486 
L 137.072376 289.686788 
L 137.202963 289.647463 
L 137.842319 289.536731 
L 137.973466 289.50051 
L 138.555656 289.389778 
L 138.719066 289.357696 
L 139.271295 289.246964 
L 139.416002 289.208674 
L 139.965784 289.097942 
L 140.153371 289.041023 
L 140.742134 288.930291 
L 140.915103 288.879582 
L 141.53277 288.769885 
L 141.648635 288.72849 
L 142.16972 288.618792 
L 142.303376 288.589816 
L 142.907151 288.480118 
L 143.030046 288.453212 
L 143.524134 288.342479 
L 143.757669 288.285561 
L 144.165127 288.175864 
L 144.288789 288.151027 
L 144.690877 288.040294 
L 144.86961 287.991655 
L 145.373195 287.880923 
L 145.493083 287.871609 
L 145.989224 287.761912 
L 146.120765 287.728796 
L 146.653917 287.618063 
L 146.813305 287.596331 
L 147.332959 287.485599 
L 147.483555 287.441099 
L 148.019279 287.330367 
L 148.189843 287.283797 
L 148.658966 287.173065 
L 148.793265 287.143054 
L 149.301764 287.032322 
L 149.435316 286.978508 
L 149.984455 286.867776 
L 150.122092 286.842938 
L 150.560362 286.733241 
L 150.685579 286.706334 
L 151.221095 286.595602 
L 151.393401 286.565591 
L 151.873347 286.454859 
L 152.030081 286.40208 
L 152.614117 286.291348 
L 152.76349 286.257197 
L 153.291147 286.146464 
L 153.448835 286.114383 
L 153.93382 286.003651 
L 154.072556 285.979849 
L 154.652797 285.870151 
L 154.766714 285.849454 
L 155.217093 285.739757 
L 155.339801 285.71078 
L 155.867707 285.600048 
L 155.99788 285.570036 
L 156.507954 285.459304 
L 156.680778 285.421014 
L 157.25936 285.312351 
L 157.382877 285.28234 
L 157.887208 285.172642 
L 158.010518 285.147805 
L 158.448725 285.038108 
L 158.567784 285.01948 
L 159.125652 284.908748 
L 159.298331 284.870458 
L 159.762312 284.76076 
L 159.891635 284.727644 
L 160.321943 284.617947 
L 160.445646 284.599319 
L 161.022093 284.489622 
L 161.146107 284.464785 
L 161.675817 284.354053 
L 161.801905 284.321971 
L 162.281914 284.212274 
L 162.397137 284.177088 
L 163.034108 284.066356 
L 163.231482 284.007368 
L 163.756962 283.897671 
L 163.884004 283.871799 
L 164.052868 283.847996 
L 164.469014 283.737264 
L 164.662842 283.711392 
L 165.247417 283.60066 
L 165.39822 283.578928 
L 165.738705 283.46923 
L 165.86668 283.448533 
L 166.451172 283.338835 
L 166.594988 283.29951 
L 167.092974 283.189813 
L 167.221156 283.160836 
L 167.821572 283.051139 
L 167.939552 283.03872 
L 168.286589 282.927988 
L 168.451327 282.900046 
L 169.068579 282.789314 
L 169.237277 282.751024 
L 169.856022 282.641326 
L 169.973567 282.620629 
L 170.511945 282.510932 
L 170.640811 282.488164 
L 171.206973 282.377432 
L 171.375899 282.332932 
L 171.897626 282.2222 
L 172.04221 282.190119 
L 172.529953 282.080422 
L 172.665703 282.049375 
L 173.202422 281.938643 
L 173.406493 281.905527 
L 173.963614 281.794795 
L 174.135713 281.759609 
L 174.60919 281.650946 
L 174.730343 281.629214 
L 175.246783 281.519517 
L 175.371254 281.49261 
L 176.010485 281.381878 
L 176.147998 281.341517 
L 176.795191 281.23182 
L 176.925219 281.206983 
L 177.556591 281.096251 
L 177.698541 281.06417 
L 178.307396 280.953437 
L 178.468961 280.919286 
L 179.066204 280.808554 
L 179.187979 280.788892 
L 179.746096 280.679194 
L 179.892566 280.641939 
L 180.430612 280.531206 
L 180.579798 280.515683 
L 181.184423 280.405986 
L 181.314409 280.377009 
L 181.800846 280.266277 
L 181.9666 280.238335 
L 182.611097 280.127603 
L 182.764182 280.101731 
L 183.462611 279.992034 
L 183.582706 279.958918 
L 184.159339 279.849221 
L 184.277859 279.826453 
L 184.867161 279.716756 
L 184.988438 279.691919 
L 185.529014 279.582222 
L 185.648425 279.563594 
L 186.221989 279.453897 
L 186.346356 279.433199 
L 186.929873 279.322467 
L 187.059299 279.306944 
L 187.666184 279.197246 
L 187.800276 279.174479 
L 188.340913 279.063747 
L 188.481743 279.046154 
L 189.04295 278.935422 
L 189.242024 278.892992 
L 189.810093 278.783294 
L 189.953329 278.756388 
L 190.609915 278.645655 
L 190.790058 278.613574 
L 191.375441 278.503877 
L 191.495744 278.470761 
L 192.08685 278.360029 
L 192.225337 278.342436 
L 192.745282 278.231703 
L 192.953624 278.183064 
L 193.586386 278.073367 
L 193.709426 278.034041 
L 194.27339 277.924344 
L 194.403604 277.905716 
L 194.775482 277.796019 
L 194.893773 277.7836 
L 195.478679 277.673903 
L 195.629193 277.619055 
L 195.809564 277.584904 
L 196.396834 277.475206 
L 196.517552 277.456578 
L 197.042597 277.345846 
L 197.188237 277.324114 
L 197.749568 277.213382 
L 197.877481 277.191649 
L 198.511673 277.081952 
L 198.626025 277.063324 
L 199.337455 276.952592 
L 199.480317 276.937069 
L 200.043555 276.826337 
L 200.186791 276.794255 
L 200.705367 276.683523 
L 200.849908 276.663861 
L 201.439438 276.554163 
L 201.563598 276.535535 
L 202.073818 276.424803 
L 202.207121 276.403071 
L 202.794619 276.292339 
L 202.956474 276.24163 
L 203.577065 276.131932 
L 203.692412 276.100886 
L 204.368904 275.990154 
L 204.51724 275.960142 
L 205.114836 275.850445 
L 205.242334 275.840096 
L 205.783572 275.729364 
L 205.953908 275.699353 
L 206.769488 275.589655 
L 206.888692 275.566888 
L 207.370381 275.456156 
L 207.534165 275.409586 
L 208.174432 275.298854 
L 208.351113 275.260563 
L 208.979541 275.150866 
L 209.107723 275.108436 
L 209.79931 274.997704 
L 209.92152 274.974937 
L 210.622997 274.864204 
L 210.746161 274.836263 
L 211.344441 274.726565 
L 211.462111 274.697589 
L 212.141588 274.587892 
L 212.259859 274.569264 
L 212.76278 274.459566 
L 212.881113 274.438869 
L 213.533988 274.328137 
L 213.684418 274.296055 
L 214.312432 274.185323 
L 214.442356 274.155312 
L 214.974305 274.04458 
L 215.125897 274.016638 
L 215.57188 273.906941 
L 215.687871 273.875894 
L 216.274601 273.766197 
L 216.393453 273.74136 
L 217.001955 273.630628 
L 217.132148 273.600616 
L 217.740962 273.489884 
L 217.879511 273.472291 
L 218.469808 273.361559 
L 218.597016 273.352245 
L 219.282216 273.241513 
L 219.417987 273.201153 
L 220.114923 273.09042 
L 220.253244 273.070758 
L 221.023042 272.96106 
L 221.141002 272.942433 
L 221.69943 272.831701 
L 221.855479 272.814108 
L 222.637365 272.703375 
L 222.777988 272.679573 
L 223.459663 272.568841 
L 223.578805 272.555388 
L 224.267634 272.44569 
L 224.387418 272.429132 
L 225.165904 272.3184 
L 225.302732 272.282179 
L 226.03471 272.171447 
L 226.159658 272.147645 
L 226.933229 272.037948 
L 227.049613 272.02139 
L 227.638459 271.910657 
L 227.775661 271.895134 
L 228.418665 271.785437 
L 228.541311 271.754391 
L 229.329024 271.643658 
L 229.47651 271.621926 
L 230.172596 271.512229 
L 230.2935 271.483252 
L 230.891801 271.37252 
L 231.029106 271.342508 
L 231.612913 271.231776 
L 231.76718 271.212114 
L 232.421941 271.101381 
L 232.564181 271.077579 
L 233.199971 270.966847 
L 233.380881 270.924417 
L 233.916521 270.813685 
L 234.034813 270.796092 
L 234.651775 270.686395 
L 234.780144 270.657418 
L 235.368243 270.546686 
L 235.502355 270.516674 
L 236.147475 270.405942 
L 236.30141 270.361442 
L 236.968571 270.251745 
L 237.083607 270.233117 
L 237.928257 270.12342 
L 238.046238 270.098583 
L 238.694675 269.988886 
L 238.817342 269.974397 
L 239.531964 269.8647 
L 239.647312 269.852281 
L 240.208041 269.741549 
L 240.350074 269.717747 
L 241.095301 269.60805 
L 241.223628 269.574934 
L 241.887928 269.465236 
L 242.006841 269.43419 
L 242.643004 269.323458 
L 242.759761 269.305865 
L 243.443157 269.196168 
L 243.557074 269.167191 
L 244.220544 269.057494 
L 244.337508 269.036796 
L 244.917169 268.927099 
L 245.03629 268.906401 
L 245.663204 268.795669 
L 245.776955 268.788425 
L 246.412724 268.677693 
L 246.547727 268.65596 
L 247.245244 268.546263 
L 247.357108 268.537984 
L 248.177685 268.428287 
L 248.294691 268.405519 
L 249.143882 268.294787 
L 249.26771 268.275125 
L 249.977501 268.164392 
L 250.11462 268.135416 
L 250.758993 268.024684 
L 250.886159 268.001916 
L 251.471978 267.892219 
L 251.585583 267.869452 
L 252.298195 267.75872 
L 252.415222 267.739057 
L 253.124246 267.62936 
L 253.242351 267.600383 
L 254.056542 267.490686 
L 254.177114 267.459639 
L 254.782631 267.349942 
L 254.899616 267.329244 
L 255.495014 267.219547 
L 255.619443 267.190571 
L 256.367428 267.080873 
L 256.481448 267.058106 
L 257.05155 266.947374 
L 257.169655 266.921502 
L 257.708882 266.811805 
L 257.822156 266.780758 
L 258.455809 266.670026 
L 258.572007 266.640015 
L 259.094584 266.530317 
L 259.210181 266.511689 
L 259.868342 266.401992 
L 259.984851 266.366806 
L 260.482402 266.256074 
L 260.602663 266.226063 
L 261.051487 266.116365 
L 261.165424 266.087389 
L 261.711764 265.976657 
L 261.842165 265.942506 
L 262.21512 265.832808 
L 262.324309 265.803832 
L 262.326155 265.803832 
L 262.754555 265.694134 
L 262.867207 265.671367 
L 263.221045 265.560635 
L 263.349538 265.534763 
L 263.733338 265.425066 
L 263.848105 265.38367 
L 264.127236 265.272938 
L 264.240614 265.236717 
L 264.695326 265.125985 
L 264.820419 265.085625 
L 265.169447 264.975928 
L 265.283405 264.942812 
L 265.520942 264.832079 
L 265.637596 264.78137 
L 265.954567 264.671673 
L 266.070723 264.619929 
L 266.418549 264.509197 
L 266.54163 264.481255 
L 266.895821 264.370523 
L 267.025413 264.319814 
L 267.309603 264.209082 
L 267.433825 264.160442 
L 267.710696 264.04971 
L 267.832885 264.01142 
L 268.129434 263.900688 
L 268.254423 263.841699 
L 268.510497 263.730967 
L 268.631753 263.676119 
L 268.818677 263.566421 
L 268.932863 263.507433 
L 269.185599 263.396701 
L 269.301796 263.326329 
L 269.560545 263.216632 
L 269.678443 263.14419 
L 269.913077 263.035528 
L 270.031037 262.959982 
L 270.276764 262.84925 
L 270.395968 262.773703 
L 270.638046 262.662971 
L 270.758577 262.601913 
L 270.947844 262.491181 
L 271.067566 262.436333 
L 271.316735 262.326635 
L 271.439091 262.254194 
L 271.676525 262.143462 
L 271.799191 262.078264 
L 271.993185 261.967532 
L 272.126054 261.889916 
L 272.338709 261.779184 
L 272.479539 261.703638 
L 272.752865 261.59394 
L 272.88312 261.51322 
L 273.087295 261.402488 
L 273.216203 261.353848 
L 273.428257 261.244151 
L 273.550592 261.171709 
L 273.812866 261.060977 
L 273.948595 260.970943 
L 274.155113 260.860211 
L 274.290076 260.797083 
L 274.496863 260.687386 
L 274.623138 260.600456 
L 274.828204 260.490759 
L 274.962814 260.414177 
L 275.195002 260.30448 
L 275.328554 260.203062 
L 275.518173 260.09233 
L 275.645256 260.022993 
L 275.81385 259.912261 
L 275.939088 259.842924 
L 276.123213 259.734261 
L 276.238933 259.685622 
L 276.467803 259.575925 
L 276.5851 259.501413 
L 276.712224 259.439321 
L 276.88567 259.328589 
L 277.040497 259.226135 
L 277.243282 259.116438 
L 277.365534 259.019159 
L 277.535289 258.908427 
L 277.675871 258.826672 
L 277.867626 258.71594 
L 277.997964 258.6673 
L 278.182317 258.556568 
L 278.337019 258.427208 
L 278.513368 258.316476 
L 278.632489 258.255418 
L 278.808547 258.144686 
L 278.933433 258.06707 
L 279.111399 257.956338 
L 279.248766 257.89114 
L 279.451573 257.780408 
L 279.593315 257.694513 
L 279.775595 257.583781 
L 279.904523 257.522723 
L 280.083443 257.411991 
L 280.239119 257.299189 
L 280.4079 257.188457 
L 280.53405 257.102562 
L 280.673678 256.992865 
L 280.796034 256.928702 
L 280.958407 256.81797 
L 281.079001 256.744494 
L 281.314609 256.634796 
L 281.434912 256.547866 
L 281.577028 256.437134 
L 281.696046 256.362623 
L 281.824705 256.251891 
L 281.944572 256.185658 
L 282.129049 256.074926 
L 282.255946 255.984892 
L 282.429246 255.87416 
L 282.621561 255.730311 
L 282.840188 255.619579 
L 282.98247 255.546103 
L 283.143143 255.436405 
L 283.276634 255.341197 
L 283.482281 255.230464 
L 283.64932 255.119732 
L 283.804353 255.010035 
L 283.917171 254.950012 
L 284.074589 254.83928 
L 284.260683 254.722338 
L 284.433798 254.611606 
L 284.596379 254.523641 
L 284.762132 254.413944 
L 284.893321 254.318735 
L 285.066539 254.209038 
L 285.183089 254.117969 
L 285.357343 254.007236 
L 285.484385 253.927551 
L 285.61348 253.816819 
L 285.754911 253.730924 
L 285.948491 253.620191 
L 286.174997 253.443227 
L 286.32549 253.33353 
L 286.450893 253.250739 
L 286.599976 253.140007 
L 286.745637 253.056182 
L 286.916637 252.94545 
L 287.036463 252.878183 
L 287.20035 252.768485 
L 287.32169 252.681555 
L 287.487112 252.571858 
L 287.611002 252.480789 
L 287.785194 252.370057 
L 287.908193 252.301754 
L 288.08394 252.191022 
L 288.22249 252.089604 
L 288.361786 251.979907 
L 288.479455 251.911605 
L 288.627978 251.800873 
L 288.787843 251.706699 
L 288.967012 251.595966 
L 289.094053 251.52663 
L 289.27513 251.416932 
L 289.40072 251.327933 
L 289.620882 251.2172 
L 289.804778 251.075422 
L 289.966364 250.965725 
L 290.089279 250.899492 
L 290.298617 250.78876 
L 290.430386 250.715284 
L 290.569205 250.604552 
L 290.700394 250.524866 
L 290.870129 250.414134 
L 291.031818 250.293053 
L 291.202921 250.182321 
L 291.334939 250.094356 
L 291.457212 249.983624 
L 291.597544 249.88531 
L 291.71059 249.775613 
L 291.835393 249.699032 
L 291.982257 249.5883 
L 292.252721 249.403056 
L 292.387911 249.292324 
L 292.513895 249.218847 
L 292.694785 249.108115 
L 292.819069 249.038778 
L 292.983869 248.929081 
L 293.113627 248.846291 
L 293.317781 248.735559 
L 293.480528 248.610338 
L 293.623121 248.499606 
L 293.84069 248.366107 
L 294.052495 248.256409 
L 294.17736 248.154991 
L 294.346597 248.044259 
L 294.546355 247.914899 
L 294.692411 247.804167 
L 294.824823 247.749318 
L 295.000591 247.638586 
L 295.140302 247.531993 
L 295.280572 247.422296 
L 295.403923 247.347785 
L 295.539051 247.237053 
L 295.701135 247.13046 
L 295.858677 247.019728 
L 296.0388 246.886228 
L 296.214672 246.775496 
L 296.382458 246.654415 
L 296.519887 246.543683 
L 296.718692 246.416393 
L 296.852099 246.306696 
L 296.982127 246.22287 
L 297.133905 246.112138 
L 297.270277 246.023139 
L 297.418323 245.912406 
L 297.580054 245.814093 
L 297.763992 245.703361 
L 297.889334 245.609187 
L 298.039495 245.501559 
L 298.158844 245.414629 
L 298.338489 245.303897 
L 298.468538 245.220072 
L 298.616812 245.10934 
L 298.789076 245.000677 
L 298.95373 244.89098 
L 299.081125 244.810259 
L 299.223386 244.700562 
L 299.3694 244.595004 
L 299.535506 244.485307 
L 299.672562 244.398377 
L 299.865706 244.28868 
L 300.027748 244.152076 
L 300.153173 244.041344 
L 300.277581 243.965797 
L 300.457496 243.8561 
L 300.575249 243.781589 
L 300.765573 243.670857 
L 300.959007 243.524939 
L 301.14535 243.415241 
L 301.279172 243.291056 
L 301.435388 243.180324 
L 301.633259 243.040615 
L 301.771664 242.929883 
L 301.957219 242.806732 
L 302.111941 242.697035 
L 302.278835 242.578024 
L 302.431547 242.467291 
L 302.585813 242.380362 
L 302.737695 242.270664 
L 302.863617 242.141304 
L 303.032647 242.018154 
L 303.252642 241.908456 
L 303.373111 241.820492 
L 303.520369 241.695271 
L 303.67138 241.584539 
L 303.863384 241.44897 
L 304.021133 241.340307 
L 304.160492 241.235784 
L 304.327883 241.125052 
L 304.477982 241.020529 
L 304.619393 240.909797 
L 304.752779 240.819763 
L 304.930849 240.709031 
L 305.064733 240.616926 
L 305.196938 240.507229 
L 305.328438 240.402706 
L 305.546837 240.24023 
L 305.684453 240.129498 
L 305.808032 240.051882 
L 305.94428 239.942185 
L 306.075344 239.840766 
L 306.261231 239.731069 
L 306.391756 239.63793 
L 306.534038 239.527198 
L 306.64866 239.439233 
L 306.769896 239.323327 
L 306.900462 239.213629 
L 307.018173 239.128769 
L 307.177022 239.019072 
L 307.297636 238.928002 
L 307.488271 238.81727 
L 307.969048 238.449888 
L 308.110998 238.340191 
L 308.252885 238.218075 
L 308.422744 238.107343 
L 308.570458 237.965564 
L 308.719624 237.855867 
L 308.866177 237.721333 
L 309.040494 237.61474 
L 309.160237 237.512287 
L 309.301897 237.40259 
L 309.440115 237.290823 
L 309.551211 237.18009 
L 309.735108 237.038312 
L 309.879421 236.92758 
L 310.000181 236.833406 
L 310.158532 236.722674 
L 310.303862 236.614011 
L 310.462814 236.503279 
L 310.582661 236.407035 
L 310.717561 236.299408 
L 310.846365 236.179362 
L 311.001129 236.06863 
L 311.141814 235.930991 
L 311.295065 235.821293 
L 311.431976 235.715735 
L 311.547261 235.605003 
L 311.721868 235.475643 
L 311.839372 235.365946 
L 311.971204 235.270737 
L 312.128663 235.160005 
L 312.267109 235.026506 
L 312.447107 234.916808 
L 312.61481 234.757437 
L 312.785726 234.64774 
L 312.93118 234.511135 
L 313.053743 234.401438 
L 313.191671 234.30209 
L 313.318754 234.191358 
L 313.448346 234.090974 
L 313.605806 233.981277 
L 313.726979 233.886068 
L 313.928376 233.775336 
L 314.059876 233.664604 
L 314.211032 233.553872 
L 314.332081 233.457628 
L 314.455557 233.346896 
L 314.66873 233.159582 
L 314.804377 233.049885 
L 314.959473 232.908107 
L 315.134204 232.770468 
L 315.269208 232.659735 
L 315.407364 232.53555 
L 315.568224 232.424818 
L 315.734973 232.306841 
L 315.875927 232.196109 
L 316.000564 232.089517 
L 316.11927 231.978784 
L 316.300015 231.834936 
L 316.441467 231.724204 
L 316.59252 231.624856 
L 316.74183 231.514123 
L 316.936115 231.381659 
L 317.09119 231.271962 
L 317.221798 231.140532 
L 317.373162 231.031869 
L 317.456266 230.921137 
L 317.626063 230.777289 
L 317.758309 230.667592 
L 317.910419 230.545476 
L 318.007105 230.434744 
L 318.170578 230.299174 
L 318.279062 230.188442 
L 318.426839 230.048734 
L 318.537438 229.939036 
L 318.66987 229.814851 
L 318.803962 229.705153 
L 318.93119 229.603735 
L 319.063229 229.494038 
L 319.185626 229.385376 
L 319.402014 229.169086 
L 319.51226 229.059388 
L 319.656782 228.939342 
L 319.774617 228.82861 
L 319.98524 228.655785 
L 320.133929 228.545053 
L 320.413682 228.314275 
L 320.545908 228.203543 
L 320.700589 228.084532 
L 320.812681 227.9738 
L 321.032738 227.761649 
L 321.1513 227.650917 
L 321.309858 227.538115 
L 321.429104 227.427383 
L 321.747734 227.146931 
L 321.856529 227.036198 
L 321.985458 226.925466 
L 322.103252 226.814734 
L 322.2316 226.685374 
L 322.3456 226.574642 
L 322.508658 226.449422 
L 322.684841 226.338689 
L 322.886133 226.166899 
L 323.005794 226.056167 
L 323.146064 225.921633 
L 323.283432 225.811936 
L 323.411655 225.700169 
L 323.549023 225.590471 
L 323.714403 225.438344 
L 323.862885 225.329682 
L 324.027124 225.164101 
L 324.162605 225.054404 
L 324.30723 224.928148 
L 324.40995 224.818451 
L 324.557166 224.69323 
L 324.773326 224.499708 
L 324.887346 224.390011 
L 325.04493 224.261686 
L 325.164072 224.150953 
L 325.374426 223.959501 
L 325.504578 223.848769 
L 325.654573 223.713199 
L 325.786093 223.602467 
L 325.94546 223.468968 
L 326.060994 223.358235 
L 326.205018 223.23405 
L 326.324035 223.123318 
L 326.470174 222.988783 
L 326.603291 222.881156 
L 326.734189 222.707296 
L 326.862309 222.596564 
L 327.112805 222.355437 
L 327.202898 222.24574 
L 327.326808 222.122589 
L 327.442176 222.011857 
L 327.573448 221.885601 
L 327.693212 221.775904 
L 327.818844 221.670346 
L 327.929878 221.559614 
L 328.057977 221.424045 
L 328.166752 221.315383 
L 328.293835 221.189127 
L 328.416439 221.078395 
L 328.53809 220.962489 
L 328.646719 220.852791 
L 328.777991 220.726536 
L 328.873163 220.615804 
L 329.07315 220.471956 
L 329.177259 220.362258 
L 329.323708 220.219445 
L 329.425163 220.110783 
L 329.550215 219.985562 
L 329.693637 219.826191 
L 329.818564 219.716493 
L 329.982596 219.509517 
L 330.099664 219.39982 
L 330.249017 219.22803 
L 330.35466 219.118333 
L 330.482303 218.97345 
L 330.640012 218.828566 
L 330.764337 218.718869 
L 330.889927 218.592614 
L 331.008924 218.481882 
L 331.180836 218.309057 
L 331.32347 218.198325 
L 331.567186 217.93443 
L 331.691698 217.824733 
L 331.829356 217.686059 
L 331.911735 217.575327 
L 332.053934 217.458386 
L 332.152071 217.348688 
L 332.268642 217.210014 
L 332.436738 217.048573 
L 332.566019 216.937841 
L 332.725387 216.804342 
L 332.853424 216.694644 
L 332.995042 216.551831 
L 333.110348 216.442134 
L 333.248752 216.280692 
L 333.407829 216.117181 
L 333.530807 216.007484 
L 333.657102 215.881229 
L 333.776161 215.770497 
L 333.915643 215.636997 
L 334.025931 215.5273 
L 334.159297 215.375172 
L 334.401313 215.127836 
L 334.518962 215.017104 
L 334.77628 214.75114 
L 334.875641 214.641443 
L 335.025055 214.500699 
L 335.124375 214.391002 
L 335.25546 214.23577 
L 335.892742 213.581726 
L 335.97595 213.470994 
L 336.190327 213.234006 
L 336.287054 213.123274 
L 336.501472 212.886287 
L 336.567014 212.775554 
L 336.919712 212.389544 
L 337.020193 212.278812 
L 337.197371 212.074941 
L 337.287132 211.965243 
L 337.471982 211.7355 
L 337.573997 211.625803 
L 337.721068 211.456083 
L 337.798036 211.34535 
L 337.995886 211.149758 
L 338.108518 211.039026 
L 338.868715 210.199738 
L 338.959264 210.089006 
L 339.184464 209.8396 
L 339.295726 209.729903 
L 339.452045 209.534311 
L 339.548856 209.423579 
L 339.684482 209.303533 
L 339.783739 209.193835 
L 339.921003 209.048952 
L 340.003444 208.939255 
L 340.142989 208.790232 
L 340.243407 208.6795 
L 340.509372 208.382489 
L 340.622023 208.271757 
L 340.849069 207.987165 
L 340.977603 207.877468 
L 341.090442 207.737759 
L 341.573105 207.208936 
L 341.6723 207.099239 
L 341.870379 206.861216 
L 341.95958 206.750484 
L 342.134456 206.538334 
L 342.230645 206.427601 
L 342.558254 206.020894 
L 342.694502 205.910162 
L 342.845222 205.722848 
L 342.955427 205.612116 
L 343.088814 205.44757 
L 343.188776 205.336838 
L 343.31758 205.203339 
L 343.382542 205.092607 
L 343.515162 204.946688 
L 343.607742 204.835956 
L 343.772127 204.674515 
L 344.059739 204.33197 
L 344.165133 204.222273 
L 344.303766 204.03289 
L 344.663368 203.582717 
L 344.758831 203.47302 
L 344.905612 203.305369 
L 344.994668 203.195672 
L 345.139707 203.015603 
L 345.263348 202.905905 
L 345.408927 202.723767 
L 345.498086 202.613034 
L 345.759945 202.258071 
L 345.862354 202.148373 
L 346.000738 201.984862 
L 346.083532 201.87413 
L 346.255049 201.653701 
L 346.360672 201.544004 
L 346.51357 201.366004 
L 346.59145 201.255272 
L 346.766534 201.022424 
L 346.851733 200.911692 
L 347.251125 200.426333 
L 347.337817 200.315601 
L 347.554619 200.02273 
L 347.647449 199.913033 
L 347.833626 199.650174 
L 347.900288 199.539441 
L 348.184852 199.126524 
L 348.284213 199.016827 
L 348.49326 198.755002 
L 348.568652 198.64427 
L 348.722545 198.441434 
L 348.823482 198.331737 
L 349.009908 198.077156 
L 349.104914 197.967459 
L 349.226648 197.806018 
L 349.614615 197.35895 
L 349.714868 197.248217 
L 349.926528 196.980184 
L 350.011395 196.869451 
L 350.134953 196.702836 
L 350.207504 196.592104 
L 350.344747 196.429627 
L 350.445249 196.31993 
L 350.576976 196.137791 
L 350.640591 196.027059 
L 354.471457 190.8123 
L 354.603206 190.6343 
L 354.669723 190.524603 
L 354.802487 190.330046 
L 354.866246 190.219314 
L 355.237813 189.702909 
L 355.315921 189.592176 
L 355.73864 189.065423 
L 355.819443 188.95469 
L 356.667245 187.759404 
L 356.750329 187.649707 
L 356.915833 187.436522 
L 357.010736 187.326825 
L 357.215036 186.983244 
L 357.315164 186.872512 
L 357.494104 186.626211 
L 357.573684 186.515479 
L 357.834507 186.198806 
L 357.916388 186.088073 
L 358.141775 185.770365 
L 358.22378 185.660668 
L 358.445041 185.333646 
L 358.512657 185.224984 
L 358.636153 185.058368 
L 358.712643 184.948671 
L 358.85731 184.714788 
L 358.929943 184.605091 
L 359.060904 184.408463 
L 359.132791 184.297731 
L 359.340408 183.992442 
L 359.41667 183.88171 
L 359.538549 183.704745 
L 359.609006 183.595048 
L 359.770073 183.342537 
L 359.835636 183.23284 
L 359.95596 183.046562 
L 360.841686 181.788148 
L 360.90812 181.677416 
L 361.444901 180.81743 
L 361.539575 180.706698 
L 361.82586 180.266874 
L 361.888956 180.157177 
L 362.045544 179.87776 
L 362.123797 179.767027 
L 362.673351 178.917391 
L 362.74756 178.807694 
L 362.89034 178.558288 
L 366.139244 173.538086 
L 366.208021 173.428388 
L 366.352128 173.180017 
L 366.425363 173.07239 
L 366.5675 172.873693 
L 366.639802 172.76503 
L 366.770866 172.59531 
L 367.080415 172.1203 
L 367.143759 172.009568 
L 367.360271 171.648395 
L 367.4384 171.537663 
L 367.713405 171.126816 
L 367.786557 171.016084 
L 368.846807 169.220567 
L 368.915439 169.111905 
L 369.074515 168.821103 
L 369.126767 168.711406 
L 369.25723 168.456826 
L 369.330278 168.346094 
L 369.712026 167.755177 
L 369.778211 167.64548 
L 369.921363 167.432295 
L 369.986844 167.321563 
L 370.258013 166.86932 
L 370.328096 166.759623 
L 370.497146 166.494694 
L 370.58162 166.384996 
L 370.7583 166.068323 
L 370.831494 165.958626 
L 370.982111 165.718534 
L 371.041827 165.607802 
L 371.189997 165.328384 
L 375.933089 157.223205 
L 376.055838 157.040031 
L 376.125403 156.929299 
L 376.259142 156.691277 
L 376.330947 156.582615 
L 376.45718 156.397371 
L 376.507399 156.290778 
L 376.630688 156.077593 
L 376.697703 155.966861 
L 376.873388 155.684339 
L 376.9279 155.573607 
L 377.04532 155.383189 
L 377.22028 155.038574 
L 377.286942 154.927842 
L 377.837926 153.904346 
L 377.900732 153.798788 
L 378.025057 153.552486 
L 378.191578 153.254441 
L 378.240512 153.144744 
L 378.399236 152.83428 
L 378.480973 152.723548 
L 378.80205 152.105724 
L 378.85961 151.994992 
L 379.062167 151.590354 
L 379.123376 151.481692 
L 379.302006 151.116379 
L 379.374038 151.005647 
L 379.535085 150.702427 
L 379.596854 150.59273 
L 379.744817 150.313313 
L 379.804865 150.205685 
L 379.937256 149.925233 
L 380.137823 149.595106 
L 380.195134 149.485409 
L 380.345813 149.228759 
L 380.569852 148.893457 
L 380.624529 148.78376 
L 380.813692 148.44018 
L 380.891448 148.330483 
L 381.027924 148.081077 
L 381.255508 147.734392 
L 381.308133 147.62366 
L 381.519482 147.252138 
L 381.564186 147.142441 
L 381.732469 146.813349 
L 381.782896 146.703652 
L 382.166551 145.987515 
L 382.223468 145.877818 
L 382.377796 145.614958 
L 382.444562 145.504226 
L 382.604738 145.178239 
L 382.674552 145.070611 
L 382.80404 144.765322 
L 382.863549 144.65459 
L 383.040603 144.317219 
L 383.100837 144.206487 
L 383.241792 143.879465 
L 383.395685 143.61971 
L 383.446941 143.508978 
L 383.597952 143.230595 
L 383.661629 143.119863 
L 383.859334 142.787667 
L 383.919403 142.677969 
L 384.124159 142.24332 
L 384.176908 142.132588 
L 384.318277 141.830403 
L 384.386888 141.719671 
L 384.521146 141.533392 
L 384.580364 141.423695 
L 384.74788 141.055278 
L 385.077873 140.467466 
L 385.124983 140.361908 
L 385.255114 140.092839 
L 385.598958 139.383947 
L 385.649634 139.273215 
L 385.932144 138.755775 
L 385.97662 138.646077 
L 386.104118 138.372869 
L 386.41883 137.754011 
L 386.461004 137.643279 
L 386.942216 136.636341 
L 386.983312 136.526644 
L 387.142534 136.154087 
L 387.195781 136.043355 
L 387.349343 135.748414 
L 387.406902 135.637682 
L 387.828253 134.74458 
L 387.879032 134.634883 
L 388.068693 134.208513 
L 388.117813 134.100885 
L 388.241538 133.831816 
L 388.306064 133.724189 
L 388.432359 133.473748 
L 388.481625 133.364051 
L 388.716052 132.863169 
L 388.759844 132.753472 
L 388.944756 132.34159 
L 388.989191 132.231892 
L 389.186316 131.834498 
L 389.237987 131.724801 
L 389.39132 131.428826 
L 389.448154 131.320163 
L 389.581292 130.990036 
L 396.166602 115.775233 
L 396.308469 115.437862 
L 396.362462 115.32713 
L 399.276957 107.572776 
L 399.318178 107.463078 
L 399.514432 106.862848 
L 399.561126 106.753151 
L 399.727523 106.299874 
L 399.762689 106.189141 
L 399.900927 105.823829 
L 399.938499 105.715166 
L 400.079391 105.292935 
L 400.123452 105.183238 
L 400.269819 104.809647 
L 400.776845 103.412559 
L 400.814562 103.302862 
L 400.928499 103.003781 
L 400.964246 102.893049 
L 401.101676 102.520492 
L 401.136572 102.412865 
L 401.292062 101.950274 
L 401.33322 101.841611 
L 401.473221 101.411101 
L 401.502706 101.301404 
L 401.67441 100.841917 
L 401.713226 100.73429 
L 401.828117 100.351384 
L 401.864361 100.240652 
L 402.033474 99.720108 
L 402.073596 99.61041 
L 402.239079 99.107459 
L 402.274722 98.998796 
L 402.392123 98.676949 
L 402.428782 98.567251 
L 402.567538 98.1088 
L 402.809554 97.392663 
L 402.845197 97.281931 
L 402.999049 96.812095 
L 403.037802 96.702398 
L 403.156716 96.312248 
L 403.320852 95.787564 
L 403.353509 95.676832 
L 403.594136 94.87687 
L 403.622625 94.767173 
L 403.820435 94.106919 
L 403.849691 93.997222 
L 404.033215 93.401131 
L 404.060895 93.292469 
L 404.208257 92.751227 
L 404.242407 92.640495 
L 404.389147 92.049578 
L 404.4217 91.939881 
L 404.583908 91.306535 
L 404.613911 91.196837 
L 404.780328 90.509677 
L 404.815059 90.39998 
L 404.947285 89.863912 
L 404.980025 89.754215 
L 405.165041 89.087752 
L 405.457276 87.888327 
L 405.57816 87.396759 
L 405.605695 87.286026 
L 406.025387 85.583649 
L 406.059392 85.472917 
L 406.210942 84.80128 
L 406.238499 84.691583 
L 406.366411 84.132748 
L 406.389862 84.022016 
L 407.312039 79.533742 
L 407.334122 79.424044 
L 407.477046 78.790698 
L 407.499087 78.681001 
L 407.642136 78.043515 
L 407.667101 77.933817 
L 407.901175 76.71059 
L 407.922698 76.599857 
L 408.132202 75.512199 
L 408.152771 75.402501 
L 408.282632 74.700853 
L 408.309608 74.590121 
L 408.51171 73.458997 
L 408.530288 73.3493 
L 408.958688 70.919402 
L 408.981849 70.809705 
L 409.117599 69.981801 
L 409.137069 69.872104 
L 409.326336 68.760643 
L 409.343815 68.650945 
L 409.479835 67.823042 
L 409.498413 67.715414 
L 409.498413 67.713344 
L 409.620914 66.943394 
L 409.635657 66.832662 
L 409.761786 66.082374 
L 409.780779 65.971642 
L 409.92783 65.074401 
L 409.945164 64.964703 
L 410.098145 63.921545 
L 410.115894 63.811847 
L 410.115894 63.810812 
L 410.265557 62.849409 
L 410.282974 62.738677 
L 410.393656 62.073249 
L 410.39405 62.073249 
L 410.412774 61.962517 
L 410.523124 61.29088 
L 410.52387 61.29088 
L 410.544232 61.181183 
L 410.690827 60.297395 
L 410.713303 60.187698 
L 410.82299 59.589538 
L 410.824317 59.589538 
L 410.845342 59.48398 
L 410.845342 59.47984 
L 410.956397 58.811308 
L 410.956438 58.811308 
L 410.978708 58.701611 
L 411.096439 58.033078 
L 411.121528 57.923381 
L 411.256449 57.32936 
L 411.284835 57.219663 
L 411.395144 56.72706 
L 411.395911 56.72706 
L 411.419528 56.617363 
L 411.539624 56.168225 
L 411.569316 56.057493 
L 411.680412 55.723227 
L 411.720638 55.613529 
L 411.720638 55.612494 
L 411.843387 55.323763 
L 411.904762 55.214066 
L 412.012915 55.054694 
L 412.015859 55.054694 
L 412.130356 54.882904 
L 412.195173 54.775277 
L 412.195173 54.773207 
L 412.304528 54.630394 
L 412.30627 54.630394 
L 412.467752 54.520696 
L 412.568564 54.433766 
L 412.578807 54.433766 
L 412.76712 54.324069 
L 412.878922 54.280604 
L 413.551017 54.170907 
L 413.624211 54.166767 
L 413.662114 54.166767 
L 414.72 54.144 
L 414.72 54.144 
" clip-path="url(#p19dcb284ca)" style="fill: none; stroke: #ff8c00; stroke-width: 1.5; stroke-linecap: square"/>
   </g>
   <g id="line2d_14">
    <path d="M 74.605714 307.584 
L 414.72 54.144 
" clip-path="url(#p19dcb284ca)" style="fill: none; stroke-dasharray: 5.55,2.4; stroke-dashoffset: 0; stroke: #0000ff; stroke-width: 1.5"/>
   </g>
   <g id="patch_3">
    <path d="M 57.6 307.584 
L 57.6 41.472 
" style="fill: none; stroke: #000000; stroke-width: 0.8; stroke-linejoin: miter; stroke-linecap: square"/>
   </g>
   <g id="patch_4">
    <path d="M 414.72 307.584 
L 414.72 41.472 
" style="fill: none; stroke: #000000; stroke-width: 0.8; stroke-linejoin: miter; stroke-linecap: square"/>
   </g>
   <g id="patch_5">
    <path d="M 57.6 307.584 
L 414.72 307.584 
" style="fill: none; stroke: #000000; stroke-width: 0.8; stroke-linejoin: miter; stroke-linecap: square"/>
   </g>
   <g id="patch_6">
    <path d="M 57.6 41.472 
L 414.72 41.472 
" style="fill: none; stroke: #000000; stroke-width: 0.8; stroke-linejoin: miter; stroke-linecap: square"/>
   </g>
   <g id="text_15">
    <!-- ROC CURVE -->
    <g transform="translate(200.855625 35.472)scale(0.12 -0.12)">
     <defs>
      <path id="DejaVuSans-4f" d="M 2522 4238 
Q 1834 4238 1429 3725 
Q 1025 3213 1025 2328 
Q 1025 1447 1429 934 
Q 1834 422 2522 422 
Q 3209 422 3611 934 
Q 4013 1447 4013 2328 
Q 4013 3213 3611 3725 
Q 3209 4238 2522 4238 
z
M 2522 4750 
Q 3503 4750 4090 4092 
Q 4678 3434 4678 2328 
Q 4678 1225 4090 567 
Q 3503 -91 2522 -91 
Q 1538 -91 948 565 
Q 359 1222 359 2328 
Q 359 3434 948 4092 
Q 1538 4750 2522 4750 
z
" transform="scale(0.015625)"/>
      <path id="DejaVuSans-43" d="M 4122 4306 
L 4122 3641 
Q 3803 3938 3442 4084 
Q 3081 4231 2675 4231 
Q 1875 4231 1450 3742 
Q 1025 3253 1025 2328 
Q 1025 1406 1450 917 
Q 1875 428 2675 428 
Q 3081 428 3442 575 
Q 3803 722 4122 1019 
L 4122 359 
Q 3791 134 3420 21 
Q 3050 -91 2638 -91 
Q 1578 -91 968 557 
Q 359 1206 359 2328 
Q 359 3453 968 4101 
Q 1578 4750 2638 4750 
Q 3056 4750 3426 4639 
Q 3797 4528 4122 4306 
z
" transform="scale(0.015625)"/>
      <path id="DejaVuSans-55" d="M 556 4666 
L 1191 4666 
L 1191 1831 
Q 1191 1081 1462 751 
Q 1734 422 2344 422 
Q 2950 422 3222 751 
Q 3494 1081 3494 1831 
L 3494 4666 
L 4128 4666 
L 4128 1753 
Q 4128 841 3676 375 
Q 3225 -91 2344 -91 
Q 1459 -91 1007 375 
Q 556 841 556 1753 
L 556 4666 
z
" transform="scale(0.015625)"/>
      <path id="DejaVuSans-56" d="M 1831 0 
L 50 4666 
L 709 4666 
L 2188 738 
L 3669 4666 
L 4325 4666 
L 2547 0 
L 1831 0 
z
" transform="scale(0.015625)"/>
      <path id="DejaVuSans-45" d="M 628 4666 
L 3578 4666 
L 3578 4134 
L 1259 4134 
L 1259 2753 
L 3481 2753 
L 3481 2222 
L 1259 2222 
L 1259 531 
L 3634 531 
L 3634 0 
L 628 0 
L 628 4666 
z
" transform="scale(0.015625)"/>
     </defs>
     <use xlink:href="#DejaVuSans-52"/>
     <use xlink:href="#DejaVuSans-4f" x="69.482422"/>
     <use xlink:href="#DejaVuSans-43" x="148.193359"/>
     <use xlink:href="#DejaVuSans-20" x="218.017578"/>
     <use xlink:href="#DejaVuSans-43" x="249.804688"/>
     <use xlink:href="#DejaVuSans-55" x="319.628906"/>
     <use xlink:href="#DejaVuSans-52" x="392.822266"/>
     <use xlink:href="#DejaVuSans-56" x="456.804688"/>
     <use xlink:href="#DejaVuSans-45" x="525.212891"/>
    </g>
   </g>
   <g id="legend_1">
    <g id="patch_7">
     <path d="M 234.97 302.584 
L 407.72 302.584 
Q 409.72 302.584 409.72 300.584 
L 409.72 286.905875 
Q 409.72 284.905875 407.72 284.905875 
L 234.97 284.905875 
Q 232.97 284.905875 232.97 286.905875 
L 232.97 300.584 
Q 232.97 302.584 234.97 302.584 
z
" style="fill: #ffffff; opacity: 0.8; stroke: #cccccc; stroke-linejoin: miter"/>
    </g>
    <g id="line2d_15">
     <path d="M 236.97 293.004312 
L 246.97 293.004312 
L 256.97 293.004312 
" style="fill: none; stroke: #ff8c00; stroke-width: 1.5; stroke-linecap: square"/>
    </g>
    <g id="text_16">
     <!-- ROC curve (ROC AUC=0.25) -->
     <g transform="translate(264.97 296.504312)scale(0.1 -0.1)">
      <defs>
       <path id="DejaVuSans-63" d="M 3122 3366 
L 3122 2828 
Q 2878 2963 2633 3030 
Q 2388 3097 2138 3097 
Q 1578 3097 1268 2742 
Q 959 2388 959 1747 
Q 959 1106 1268 751 
Q 1578 397 2138 397 
Q 2388 397 2633 464 
Q 2878 531 3122 666 
L 3122 134 
Q 2881 22 2623 -34 
Q 2366 -91 2075 -91 
Q 1284 -91 818 406 
Q 353 903 353 1747 
Q 353 2603 823 3093 
Q 1294 3584 2113 3584 
Q 2378 3584 2631 3529 
Q 2884 3475 3122 3366 
z
" transform="scale(0.015625)"/>
       <path id="DejaVuSans-28" d="M 1984 4856 
Q 1566 4138 1362 3434 
Q 1159 2731 1159 2009 
Q 1159 1288 1364 580 
Q 1569 -128 1984 -844 
L 1484 -844 
Q 1016 -109 783 600 
Q 550 1309 550 2009 
Q 550 2706 781 3412 
Q 1013 4119 1484 4856 
L 1984 4856 
z
" transform="scale(0.015625)"/>
       <path id="DejaVuSans-41" d="M 2188 4044 
L 1331 1722 
L 3047 1722 
L 2188 4044 
z
M 1831 4666 
L 2547 4666 
L 4325 0 
L 3669 0 
L 3244 1197 
L 1141 1197 
L 716 0 
L 50 0 
L 1831 4666 
z
" transform="scale(0.015625)"/>
       <path id="DejaVuSans-3d" d="M 678 2906 
L 4684 2906 
L 4684 2381 
L 678 2381 
L 678 2906 
z
M 678 1631 
L 4684 1631 
L 4684 1100 
L 678 1100 
L 678 1631 
z
" transform="scale(0.015625)"/>
       <path id="DejaVuSans-35" d="M 691 4666 
L 3169 4666 
L 3169 4134 
L 1269 4134 
L 1269 2991 
Q 1406 3038 1543 3061 
Q 1681 3084 1819 3084 
Q 2600 3084 3056 2656 
Q 3513 2228 3513 1497 
Q 3513 744 3044 326 
Q 2575 -91 1722 -91 
Q 1428 -91 1123 -41 
Q 819 9 494 109 
L 494 744 
Q 775 591 1075 516 
Q 1375 441 1709 441 
Q 2250 441 2565 725 
Q 2881 1009 2881 1497 
Q 2881 1984 2565 2268 
Q 2250 2553 1709 2553 
Q 1456 2553 1204 2497 
Q 953 2441 691 2322 
L 691 4666 
z
" transform="scale(0.015625)"/>
       <path id="DejaVuSans-29" d="M 513 4856 
L 1013 4856 
Q 1481 4119 1714 3412 
Q 1947 2706 1947 2009 
Q 1947 1309 1714 600 
Q 1481 -109 1013 -844 
L 513 -844 
Q 928 -128 1133 580 
Q 1338 1288 1338 2009 
Q 1338 2731 1133 3434 
Q 928 4138 513 4856 
z
" transform="scale(0.015625)"/>
      </defs>
      <use xlink:href="#DejaVuSans-52"/>
      <use xlink:href="#DejaVuSans-4f" x="69.482422"/>
      <use xlink:href="#DejaVuSans-43" x="148.193359"/>
      <use xlink:href="#DejaVuSans-20" x="218.017578"/>
      <use xlink:href="#DejaVuSans-63" x="249.804688"/>
      <use xlink:href="#DejaVuSans-75" x="304.785156"/>
      <use xlink:href="#DejaVuSans-72" x="368.164062"/>
      <use xlink:href="#DejaVuSans-76" x="409.277344"/>
      <use xlink:href="#DejaVuSans-65" x="468.457031"/>
      <use xlink:href="#DejaVuSans-20" x="529.980469"/>
      <use xlink:href="#DejaVuSans-28" x="561.767578"/>
      <use xlink:href="#DejaVuSans-52" x="600.78125"/>
      <use xlink:href="#DejaVuSans-4f" x="670.263672"/>
      <use xlink:href="#DejaVuSans-43" x="748.974609"/>
      <use xlink:href="#DejaVuSans-20" x="818.798828"/>
      <use xlink:href="#DejaVuSans-41" x="850.585938"/>
      <use xlink:href="#DejaVuSans-55" x="918.994141"/>
      <use xlink:href="#DejaVuSans-43" x="992.1875"/>
      <use xlink:href="#DejaVuSans-3d" x="1062.011719"/>
      <use xlink:href="#DejaVuSans-30" x="1145.800781"/>
      <use xlink:href="#DejaVuSans-2e" x="1209.423828"/>
      <use xlink:href="#DejaVuSans-32" x="1241.210938"/>
      <use xlink:href="#DejaVuSans-35" x="1304.833984"/>
      <use xlink:href="#DejaVuSans-29" x="1368.457031"/>
     </g>
    </g>
   </g>
  </g>
 </g>
 <defs>
  <clipPath id="p19dcb284ca">
   <rect x="57.6" y="41.472" width="357.12" height="266.112"/>
  </clipPath>
 </defs>
</svg>
