<?xml version="1.0" encoding="utf-8" standalone="no"?>
<!DOCTYPE svg PUBLIC "-//W3C//DTD SVG 1.1//EN"
  "http://www.w3.org/Graphics/SVG/1.1/DTD/svg11.dtd">
<svg xmlns:xlink="http://www.w3.org/1999/xlink" width="460.8pt" height="345.6pt" viewBox="0 0 460.8 345.6" xmlns="http://www.w3.org/2000/svg" version="1.1">
 <metadata>
  <rdf:RDF xmlns:dc="http://purl.org/dc/elements/1.1/" xmlns:cc="http://creativecommons.org/ns#" xmlns:rdf="http://www.w3.org/1999/02/22-rdf-syntax-ns#">
   <cc:Work>
    <dc:type rdf:resource="http://purl.org/dc/dcmitype/StillImage"/>
    <dc:date>2022-05-27T12:36:48.817736</dc:date>
    <dc:format>image/svg+xml</dc:format>
    <dc:creator>
     <cc:Agent>
      <dc:title>Matplotlib v3.5.1, https://matplotlib.org/</dc:title>
     </cc:Agent>
    </dc:creator>
   </cc:Work>
  </rdf:RDF>
 </metadata>
 <defs>
  <style type="text/css">*{stroke-linejoin: round; stroke-linecap: butt}</style>
 </defs>
 <g id="figure_1">
  <g id="patch_1">
   <path d="M 0 345.6 
L 460.8 345.6 
L 460.8 0 
L 0 0 
z
" style="fill: #ffffff"/>
  </g>
  <g id="axes_1">
   <g id="patch_2">
    <path d="M 57.6 307.584 
L 414.72 307.584 
L 414.72 41.472 
L 57.6 41.472 
z
" style="fill: #ffffff"/>
   </g>
   <g id="matplotlib.axis_1">
    <g id="xtick_1">
     <g id="line2d_1">
      <defs>
       <path id="m5af9b03403" d="M 0 0 
L 0 3.5 
" style="stroke: #000000; stroke-width: 0.8"/>
      </defs>
      <g>
       <use xlink:href="#m5af9b03403" x="74.605714" y="307.584" style="stroke: #000000; stroke-width: 0.8"/>
      </g>
     </g>
     <g id="text_1">
      <!-- 0.0 -->
      <g transform="translate(66.654152 322.182437)scale(0.1 -0.1)">
       <defs>
        <path id="DejaVuSans-30" d="M 2034 4250 
Q 1547 4250 1301 3770 
Q 1056 3291 1056 2328 
Q 1056 1369 1301 889 
Q 1547 409 2034 409 
Q 2525 409 2770 889 
Q 3016 1369 3016 2328 
Q 3016 3291 2770 3770 
Q 2525 4250 2034 4250 
z
M 2034 4750 
Q 2819 4750 3233 4129 
Q 3647 3509 3647 2328 
Q 3647 1150 3233 529 
Q 2819 -91 2034 -91 
Q 1250 -91 836 529 
Q 422 1150 422 2328 
Q 422 3509 836 4129 
Q 1250 4750 2034 4750 
z
" transform="scale(0.015625)"/>
        <path id="DejaVuSans-2e" d="M 684 794 
L 1344 794 
L 1344 0 
L 684 0 
L 684 794 
z
" transform="scale(0.015625)"/>
       </defs>
       <use xlink:href="#DejaVuSans-30"/>
       <use xlink:href="#DejaVuSans-2e" x="63.623047"/>
       <use xlink:href="#DejaVuSans-30" x="95.410156"/>
      </g>
     </g>
    </g>
    <g id="xtick_2">
     <g id="line2d_2">
      <g>
       <use xlink:href="#m5af9b03403" x="142.628571" y="307.584" style="stroke: #000000; stroke-width: 0.8"/>
      </g>
     </g>
     <g id="text_2">
      <!-- 0.2 -->
      <g transform="translate(134.677009 322.182437)scale(0.1 -0.1)">
       <defs>
        <path id="DejaVuSans-32" d="M 1228 531 
L 3431 531 
L 3431 0 
L 469 0 
L 469 531 
Q 828 903 1448 1529 
Q 2069 2156 2228 2338 
Q 2531 2678 2651 2914 
Q 2772 3150 2772 3378 
Q 2772 3750 2511 3984 
Q 2250 4219 1831 4219 
Q 1534 4219 1204 4116 
Q 875 4013 500 3803 
L 500 4441 
Q 881 4594 1212 4672 
Q 1544 4750 1819 4750 
Q 2544 4750 2975 4387 
Q 3406 4025 3406 3419 
Q 3406 3131 3298 2873 
Q 3191 2616 2906 2266 
Q 2828 2175 2409 1742 
Q 1991 1309 1228 531 
z
" transform="scale(0.015625)"/>
       </defs>
       <use xlink:href="#DejaVuSans-30"/>
       <use xlink:href="#DejaVuSans-2e" x="63.623047"/>
       <use xlink:href="#DejaVuSans-32" x="95.410156"/>
      </g>
     </g>
    </g>
    <g id="xtick_3">
     <g id="line2d_3">
      <g>
       <use xlink:href="#m5af9b03403" x="210.651429" y="307.584" style="stroke: #000000; stroke-width: 0.8"/>
      </g>
     </g>
     <g id="text_3">
      <!-- 0.4 -->
      <g transform="translate(202.699866 322.182437)scale(0.1 -0.1)">
       <defs>
        <path id="DejaVuSans-34" d="M 2419 4116 
L 825 1625 
L 2419 1625 
L 2419 4116 
z
M 2253 4666 
L 3047 4666 
L 3047 1625 
L 3713 1625 
L 3713 1100 
L 3047 1100 
L 3047 0 
L 2419 0 
L 2419 1100 
L 313 1100 
L 313 1709 
L 2253 4666 
z
" transform="scale(0.015625)"/>
       </defs>
       <use xlink:href="#DejaVuSans-30"/>
       <use xlink:href="#DejaVuSans-2e" x="63.623047"/>
       <use xlink:href="#DejaVuSans-34" x="95.410156"/>
      </g>
     </g>
    </g>
    <g id="xtick_4">
     <g id="line2d_4">
      <g>
       <use xlink:href="#m5af9b03403" x="278.674286" y="307.584" style="stroke: #000000; stroke-width: 0.8"/>
      </g>
     </g>
     <g id="text_4">
      <!-- 0.6 -->
      <g transform="translate(270.722723 322.182437)scale(0.1 -0.1)">
       <defs>
        <path id="DejaVuSans-36" d="M 2113 2584 
Q 1688 2584 1439 2293 
Q 1191 2003 1191 1497 
Q 1191 994 1439 701 
Q 1688 409 2113 409 
Q 2538 409 2786 701 
Q 3034 994 3034 1497 
Q 3034 2003 2786 2293 
Q 2538 2584 2113 2584 
z
M 3366 4563 
L 3366 3988 
Q 3128 4100 2886 4159 
Q 2644 4219 2406 4219 
Q 1781 4219 1451 3797 
Q 1122 3375 1075 2522 
Q 1259 2794 1537 2939 
Q 1816 3084 2150 3084 
Q 2853 3084 3261 2657 
Q 3669 2231 3669 1497 
Q 3669 778 3244 343 
Q 2819 -91 2113 -91 
Q 1303 -91 875 529 
Q 447 1150 447 2328 
Q 447 3434 972 4092 
Q 1497 4750 2381 4750 
Q 2619 4750 2861 4703 
Q 3103 4656 3366 4563 
z
" transform="scale(0.015625)"/>
       </defs>
       <use xlink:href="#DejaVuSans-30"/>
       <use xlink:href="#DejaVuSans-2e" x="63.623047"/>
       <use xlink:href="#DejaVuSans-36" x="95.410156"/>
      </g>
     </g>
    </g>
    <g id="xtick_5">
     <g id="line2d_5">
      <g>
       <use xlink:href="#m5af9b03403" x="346.697143" y="307.584" style="stroke: #000000; stroke-width: 0.8"/>
      </g>
     </g>
     <g id="text_5">
      <!-- 0.8 -->
      <g transform="translate(338.74558 322.182437)scale(0.1 -0.1)">
       <defs>
        <path id="DejaVuSans-38" d="M 2034 2216 
Q 1584 2216 1326 1975 
Q 1069 1734 1069 1313 
Q 1069 891 1326 650 
Q 1584 409 2034 409 
Q 2484 409 2743 651 
Q 3003 894 3003 1313 
Q 3003 1734 2745 1975 
Q 2488 2216 2034 2216 
z
M 1403 2484 
Q 997 2584 770 2862 
Q 544 3141 544 3541 
Q 544 4100 942 4425 
Q 1341 4750 2034 4750 
Q 2731 4750 3128 4425 
Q 3525 4100 3525 3541 
Q 3525 3141 3298 2862 
Q 3072 2584 2669 2484 
Q 3125 2378 3379 2068 
Q 3634 1759 3634 1313 
Q 3634 634 3220 271 
Q 2806 -91 2034 -91 
Q 1263 -91 848 271 
Q 434 634 434 1313 
Q 434 1759 690 2068 
Q 947 2378 1403 2484 
z
M 1172 3481 
Q 1172 3119 1398 2916 
Q 1625 2713 2034 2713 
Q 2441 2713 2670 2916 
Q 2900 3119 2900 3481 
Q 2900 3844 2670 4047 
Q 2441 4250 2034 4250 
Q 1625 4250 1398 4047 
Q 1172 3844 1172 3481 
z
" transform="scale(0.015625)"/>
       </defs>
       <use xlink:href="#DejaVuSans-30"/>
       <use xlink:href="#DejaVuSans-2e" x="63.623047"/>
       <use xlink:href="#DejaVuSans-38" x="95.410156"/>
      </g>
     </g>
    </g>
    <g id="xtick_6">
     <g id="line2d_6">
      <g>
       <use xlink:href="#m5af9b03403" x="414.72" y="307.584" style="stroke: #000000; stroke-width: 0.8"/>
      </g>
     </g>
     <g id="text_6">
      <!-- 1.0 -->
      <g transform="translate(406.768438 322.182437)scale(0.1 -0.1)">
       <defs>
        <path id="DejaVuSans-31" d="M 794 531 
L 1825 531 
L 1825 4091 
L 703 3866 
L 703 4441 
L 1819 4666 
L 2450 4666 
L 2450 531 
L 3481 531 
L 3481 0 
L 794 0 
L 794 531 
z
" transform="scale(0.015625)"/>
       </defs>
       <use xlink:href="#DejaVuSans-31"/>
       <use xlink:href="#DejaVuSans-2e" x="63.623047"/>
       <use xlink:href="#DejaVuSans-30" x="95.410156"/>
      </g>
     </g>
    </g>
    <g id="text_7">
     <!-- False Positive Rate -->
     <g transform="translate(189.693594 335.860562)scale(0.1 -0.1)">
      <defs>
       <path id="DejaVuSans-46" d="M 628 4666 
L 3309 4666 
L 3309 4134 
L 1259 4134 
L 1259 2759 
L 3109 2759 
L 3109 2228 
L 1259 2228 
L 1259 0 
L 628 0 
L 628 4666 
z
" transform="scale(0.015625)"/>
       <path id="DejaVuSans-61" d="M 2194 1759 
Q 1497 1759 1228 1600 
Q 959 1441 959 1056 
Q 959 750 1161 570 
Q 1363 391 1709 391 
Q 2188 391 2477 730 
Q 2766 1069 2766 1631 
L 2766 1759 
L 2194 1759 
z
M 3341 1997 
L 3341 0 
L 2766 0 
L 2766 531 
Q 2569 213 2275 61 
Q 1981 -91 1556 -91 
Q 1019 -91 701 211 
Q 384 513 384 1019 
Q 384 1609 779 1909 
Q 1175 2209 1959 2209 
L 2766 2209 
L 2766 2266 
Q 2766 2663 2505 2880 
Q 2244 3097 1772 3097 
Q 1472 3097 1187 3025 
Q 903 2953 641 2809 
L 641 3341 
Q 956 3463 1253 3523 
Q 1550 3584 1831 3584 
Q 2591 3584 2966 3190 
Q 3341 2797 3341 1997 
z
" transform="scale(0.015625)"/>
       <path id="DejaVuSans-6c" d="M 603 4863 
L 1178 4863 
L 1178 0 
L 603 0 
L 603 4863 
z
" transform="scale(0.015625)"/>
       <path id="DejaVuSans-73" d="M 2834 3397 
L 2834 2853 
Q 2591 2978 2328 3040 
Q 2066 3103 1784 3103 
Q 1356 3103 1142 2972 
Q 928 2841 928 2578 
Q 928 2378 1081 2264 
Q 1234 2150 1697 2047 
L 1894 2003 
Q 2506 1872 2764 1633 
Q 3022 1394 3022 966 
Q 3022 478 2636 193 
Q 2250 -91 1575 -91 
Q 1294 -91 989 -36 
Q 684 19 347 128 
L 347 722 
Q 666 556 975 473 
Q 1284 391 1588 391 
Q 1994 391 2212 530 
Q 2431 669 2431 922 
Q 2431 1156 2273 1281 
Q 2116 1406 1581 1522 
L 1381 1569 
Q 847 1681 609 1914 
Q 372 2147 372 2553 
Q 372 3047 722 3315 
Q 1072 3584 1716 3584 
Q 2034 3584 2315 3537 
Q 2597 3491 2834 3397 
z
" transform="scale(0.015625)"/>
       <path id="DejaVuSans-65" d="M 3597 1894 
L 3597 1613 
L 953 1613 
Q 991 1019 1311 708 
Q 1631 397 2203 397 
Q 2534 397 2845 478 
Q 3156 559 3463 722 
L 3463 178 
Q 3153 47 2828 -22 
Q 2503 -91 2169 -91 
Q 1331 -91 842 396 
Q 353 884 353 1716 
Q 353 2575 817 3079 
Q 1281 3584 2069 3584 
Q 2775 3584 3186 3129 
Q 3597 2675 3597 1894 
z
M 3022 2063 
Q 3016 2534 2758 2815 
Q 2500 3097 2075 3097 
Q 1594 3097 1305 2825 
Q 1016 2553 972 2059 
L 3022 2063 
z
" transform="scale(0.015625)"/>
       <path id="DejaVuSans-20" transform="scale(0.015625)"/>
       <path id="DejaVuSans-50" d="M 1259 4147 
L 1259 2394 
L 2053 2394 
Q 2494 2394 2734 2622 
Q 2975 2850 2975 3272 
Q 2975 3691 2734 3919 
Q 2494 4147 2053 4147 
L 1259 4147 
z
M 628 4666 
L 2053 4666 
Q 2838 4666 3239 4311 
Q 3641 3956 3641 3272 
Q 3641 2581 3239 2228 
Q 2838 1875 2053 1875 
L 1259 1875 
L 1259 0 
L 628 0 
L 628 4666 
z
" transform="scale(0.015625)"/>
       <path id="DejaVuSans-6f" d="M 1959 3097 
Q 1497 3097 1228 2736 
Q 959 2375 959 1747 
Q 959 1119 1226 758 
Q 1494 397 1959 397 
Q 2419 397 2687 759 
Q 2956 1122 2956 1747 
Q 2956 2369 2687 2733 
Q 2419 3097 1959 3097 
z
M 1959 3584 
Q 2709 3584 3137 3096 
Q 3566 2609 3566 1747 
Q 3566 888 3137 398 
Q 2709 -91 1959 -91 
Q 1206 -91 779 398 
Q 353 888 353 1747 
Q 353 2609 779 3096 
Q 1206 3584 1959 3584 
z
" transform="scale(0.015625)"/>
       <path id="DejaVuSans-69" d="M 603 3500 
L 1178 3500 
L 1178 0 
L 603 0 
L 603 3500 
z
M 603 4863 
L 1178 4863 
L 1178 4134 
L 603 4134 
L 603 4863 
z
" transform="scale(0.015625)"/>
       <path id="DejaVuSans-74" d="M 1172 4494 
L 1172 3500 
L 2356 3500 
L 2356 3053 
L 1172 3053 
L 1172 1153 
Q 1172 725 1289 603 
Q 1406 481 1766 481 
L 2356 481 
L 2356 0 
L 1766 0 
Q 1100 0 847 248 
Q 594 497 594 1153 
L 594 3053 
L 172 3053 
L 172 3500 
L 594 3500 
L 594 4494 
L 1172 4494 
z
" transform="scale(0.015625)"/>
       <path id="DejaVuSans-76" d="M 191 3500 
L 800 3500 
L 1894 563 
L 2988 3500 
L 3597 3500 
L 2284 0 
L 1503 0 
L 191 3500 
z
" transform="scale(0.015625)"/>
       <path id="DejaVuSans-52" d="M 2841 2188 
Q 3044 2119 3236 1894 
Q 3428 1669 3622 1275 
L 4263 0 
L 3584 0 
L 2988 1197 
Q 2756 1666 2539 1819 
Q 2322 1972 1947 1972 
L 1259 1972 
L 1259 0 
L 628 0 
L 628 4666 
L 2053 4666 
Q 2853 4666 3247 4331 
Q 3641 3997 3641 3322 
Q 3641 2881 3436 2590 
Q 3231 2300 2841 2188 
z
M 1259 4147 
L 1259 2491 
L 2053 2491 
Q 2509 2491 2742 2702 
Q 2975 2913 2975 3322 
Q 2975 3731 2742 3939 
Q 2509 4147 2053 4147 
L 1259 4147 
z
" transform="scale(0.015625)"/>
      </defs>
      <use xlink:href="#DejaVuSans-46"/>
      <use xlink:href="#DejaVuSans-61" x="48.394531"/>
      <use xlink:href="#DejaVuSans-6c" x="109.673828"/>
      <use xlink:href="#DejaVuSans-73" x="137.457031"/>
      <use xlink:href="#DejaVuSans-65" x="189.556641"/>
      <use xlink:href="#DejaVuSans-20" x="251.080078"/>
      <use xlink:href="#DejaVuSans-50" x="282.867188"/>
      <use xlink:href="#DejaVuSans-6f" x="339.544922"/>
      <use xlink:href="#DejaVuSans-73" x="400.726562"/>
      <use xlink:href="#DejaVuSans-69" x="452.826172"/>
      <use xlink:href="#DejaVuSans-74" x="480.609375"/>
      <use xlink:href="#DejaVuSans-69" x="519.818359"/>
      <use xlink:href="#DejaVuSans-76" x="547.601562"/>
      <use xlink:href="#DejaVuSans-65" x="606.78125"/>
      <use xlink:href="#DejaVuSans-20" x="668.304688"/>
      <use xlink:href="#DejaVuSans-52" x="700.091797"/>
      <use xlink:href="#DejaVuSans-61" x="767.324219"/>
      <use xlink:href="#DejaVuSans-74" x="828.603516"/>
      <use xlink:href="#DejaVuSans-65" x="867.8125"/>
     </g>
    </g>
   </g>
   <g id="matplotlib.axis_2">
    <g id="ytick_1">
     <g id="line2d_7">
      <defs>
       <path id="m41df410fd7" d="M 0 0 
L -3.5 0 
" style="stroke: #000000; stroke-width: 0.8"/>
      </defs>
      <g>
       <use xlink:href="#m41df410fd7" x="57.6" y="307.584" style="stroke: #000000; stroke-width: 0.8"/>
      </g>
     </g>
     <g id="text_8">
      <!-- 0.0 -->
      <g transform="translate(34.696875 311.383219)scale(0.1 -0.1)">
       <use xlink:href="#DejaVuSans-30"/>
       <use xlink:href="#DejaVuSans-2e" x="63.623047"/>
       <use xlink:href="#DejaVuSans-30" x="95.410156"/>
      </g>
     </g>
    </g>
    <g id="ytick_2">
     <g id="line2d_8">
      <g>
       <use xlink:href="#m41df410fd7" x="57.6" y="256.896" style="stroke: #000000; stroke-width: 0.8"/>
      </g>
     </g>
     <g id="text_9">
      <!-- 0.2 -->
      <g transform="translate(34.696875 260.695219)scale(0.1 -0.1)">
       <use xlink:href="#DejaVuSans-30"/>
       <use xlink:href="#DejaVuSans-2e" x="63.623047"/>
       <use xlink:href="#DejaVuSans-32" x="95.410156"/>
      </g>
     </g>
    </g>
    <g id="ytick_3">
     <g id="line2d_9">
      <g>
       <use xlink:href="#m41df410fd7" x="57.6" y="206.208" style="stroke: #000000; stroke-width: 0.8"/>
      </g>
     </g>
     <g id="text_10">
      <!-- 0.4 -->
      <g transform="translate(34.696875 210.007219)scale(0.1 -0.1)">
       <use xlink:href="#DejaVuSans-30"/>
       <use xlink:href="#DejaVuSans-2e" x="63.623047"/>
       <use xlink:href="#DejaVuSans-34" x="95.410156"/>
      </g>
     </g>
    </g>
    <g id="ytick_4">
     <g id="line2d_10">
      <g>
       <use xlink:href="#m41df410fd7" x="57.6" y="155.52" style="stroke: #000000; stroke-width: 0.8"/>
      </g>
     </g>
     <g id="text_11">
      <!-- 0.6 -->
      <g transform="translate(34.696875 159.319219)scale(0.1 -0.1)">
       <use xlink:href="#DejaVuSans-30"/>
       <use xlink:href="#DejaVuSans-2e" x="63.623047"/>
       <use xlink:href="#DejaVuSans-36" x="95.410156"/>
      </g>
     </g>
    </g>
    <g id="ytick_5">
     <g id="line2d_11">
      <g>
       <use xlink:href="#m41df410fd7" x="57.6" y="104.832" style="stroke: #000000; stroke-width: 0.8"/>
      </g>
     </g>
     <g id="text_12">
      <!-- 0.8 -->
      <g transform="translate(34.696875 108.631219)scale(0.1 -0.1)">
       <use xlink:href="#DejaVuSans-30"/>
       <use xlink:href="#DejaVuSans-2e" x="63.623047"/>
       <use xlink:href="#DejaVuSans-38" x="95.410156"/>
      </g>
     </g>
    </g>
    <g id="ytick_6">
     <g id="line2d_12">
      <g>
       <use xlink:href="#m41df410fd7" x="57.6" y="54.144" style="stroke: #000000; stroke-width: 0.8"/>
      </g>
     </g>
     <g id="text_13">
      <!-- 1.0 -->
      <g transform="translate(34.696875 57.943219)scale(0.1 -0.1)">
       <use xlink:href="#DejaVuSans-31"/>
       <use xlink:href="#DejaVuSans-2e" x="63.623047"/>
       <use xlink:href="#DejaVuSans-30" x="95.410156"/>
      </g>
     </g>
    </g>
    <g id="text_14">
     <!-- True Positive Rate -->
     <g transform="translate(28.617187 219.057687)rotate(-90)scale(0.1 -0.1)">
      <defs>
       <path id="DejaVuSans-54" d="M -19 4666 
L 3928 4666 
L 3928 4134 
L 2272 4134 
L 2272 0 
L 1638 0 
L 1638 4134 
L -19 4134 
L -19 4666 
z
" transform="scale(0.015625)"/>
       <path id="DejaVuSans-72" d="M 2631 2963 
Q 2534 3019 2420 3045 
Q 2306 3072 2169 3072 
Q 1681 3072 1420 2755 
Q 1159 2438 1159 1844 
L 1159 0 
L 581 0 
L 581 3500 
L 1159 3500 
L 1159 2956 
Q 1341 3275 1631 3429 
Q 1922 3584 2338 3584 
Q 2397 3584 2469 3576 
Q 2541 3569 2628 3553 
L 2631 2963 
z
" transform="scale(0.015625)"/>
       <path id="DejaVuSans-75" d="M 544 1381 
L 544 3500 
L 1119 3500 
L 1119 1403 
Q 1119 906 1312 657 
Q 1506 409 1894 409 
Q 2359 409 2629 706 
Q 2900 1003 2900 1516 
L 2900 3500 
L 3475 3500 
L 3475 0 
L 2900 0 
L 2900 538 
Q 2691 219 2414 64 
Q 2138 -91 1772 -91 
Q 1169 -91 856 284 
Q 544 659 544 1381 
z
M 1991 3584 
L 1991 3584 
z
" transform="scale(0.015625)"/>
      </defs>
      <use xlink:href="#DejaVuSans-54"/>
      <use xlink:href="#DejaVuSans-72" x="46.333984"/>
      <use xlink:href="#DejaVuSans-75" x="87.447266"/>
      <use xlink:href="#DejaVuSans-65" x="150.826172"/>
      <use xlink:href="#DejaVuSans-20" x="212.349609"/>
      <use xlink:href="#DejaVuSans-50" x="244.136719"/>
      <use xlink:href="#DejaVuSans-6f" x="300.814453"/>
      <use xlink:href="#DejaVuSans-73" x="361.996094"/>
      <use xlink:href="#DejaVuSans-69" x="414.095703"/>
      <use xlink:href="#DejaVuSans-74" x="441.878906"/>
      <use xlink:href="#DejaVuSans-69" x="481.087891"/>
      <use xlink:href="#DejaVuSans-76" x="508.871094"/>
      <use xlink:href="#DejaVuSans-65" x="568.050781"/>
      <use xlink:href="#DejaVuSans-20" x="629.574219"/>
      <use xlink:href="#DejaVuSans-52" x="661.361328"/>
      <use xlink:href="#DejaVuSans-61" x="728.59375"/>
      <use xlink:href="#DejaVuSans-74" x="789.873047"/>
      <use xlink:href="#DejaVuSans-65" x="829.082031"/>
     </g>
    </g>
   </g>
   <g id="line2d_13">
    <path d="M 74.605714 307.584 
L 74.725819 306.913641 
L 74.741513 306.805622 
L 74.852227 306.182919 
L 74.867578 306.074899 
L 74.97855 304.975638 
L 74.989956 304.870795 
L 75.099812 304.044761 
L 75.127598 303.936741 
L 75.238055 303.231435 
L 75.238484 303.231435 
L 75.262454 303.123415 
L 75.373554 302.510244 
L 75.405885 302.402224 
L 75.515827 301.938374 
L 75.516428 301.938374 
L 75.546143 301.833531 
L 75.657158 301.423691 
L 75.68057 301.315671 
L 75.789226 300.851821 
L 75.791413 300.851821 
L 75.820957 300.743801 
L 75.931842 300.251358 
L 75.953153 300.143338 
L 76.064168 299.628655 
L 76.094141 299.520635 
L 76.211716 299.0409 
L 76.244561 298.93288 
L 76.355447 298.472207 
L 76.383233 298.364188 
L 76.494162 297.86539 
L 76.494204 297.86539 
L 76.518002 297.75737 
L 76.629017 297.280812 
L 76.629103 297.280812 
L 76.654444 297.172792 
L 76.763358 296.842378 
L 76.765245 296.842378 
L 76.805465 296.734359 
L 76.915622 296.36582 
L 76.916437 296.36582 
L 76.941693 296.2578 
L 77.052493 295.841606 
L 77.052793 295.841606 
L 77.08015 295.731998 
L 77.190607 295.272913 
L 77.191165 295.272913 
L 77.212561 295.164894 
L 77.323147 294.777293 
L 77.323276 294.777293 
L 77.345787 294.669273 
L 77.455387 294.246725 
L 77.456888 294.246725 
L 77.486903 294.137116 
L 77.596931 293.671678 
L 77.598003 293.671678 
L 77.615884 293.563658 
L 77.725827 293.102985 
L 77.726727 293.102985 
L 77.74821 292.994965 
L 77.853907 292.585125 
L 77.859138 292.585125 
L 77.887825 292.480282 
L 77.993479 292.022787 
L 77.998711 292.022787 
L 78.035329 291.914767 
L 78.145744 291.44774 
L 78.146215 291.44774 
L 78.173101 291.33972 
L 78.284008 290.894932 
L 78.284029 290.894932 
L 78.321291 290.786912 
L 78.432263 290.421551 
L 78.462536 290.313531 
L 78.573036 289.868744 
L 78.573593 289.868744 
L 78.593747 289.760724 
L 78.70326 289.363592 
L 78.704632 289.363592 
L 78.723414 289.258749 
L 78.831555 288.775837 
L 78.834514 288.775837 
L 78.861485 288.667817 
L 78.972371 288.181728 
L 78.972542 288.181728 
L 78.994797 288.073708 
L 79.111171 287.654336 
L 79.138142 287.546317 
L 79.248342 287.091998 
L 79.249242 287.091998 
L 79.270253 286.983978 
L 79.380367 286.542367 
L 79.381225 286.542367 
L 79.414113 286.434347 
L 79.523799 286.005445 
L 79.525085 286.005445 
L 79.551885 285.897425 
L 79.66277 285.392274 
L 79.662985 285.392274 
L 79.688841 285.284254 
L 79.807016 284.756863 
L 79.833602 284.65202 
L 79.944144 284.264419 
L 79.944702 284.264419 
L 79.976261 284.156399 
L 80.087361 283.689372 
L 80.112874 283.581352 
L 80.223889 283.104794 
L 80.2458 282.996774 
L 80.356386 282.485269 
L 80.356772 282.485269 
L 80.385287 282.377249 
L 80.495615 281.846681 
L 80.496387 281.846681 
L 80.520785 281.738661 
L 80.631843 281.312935 
L 80.631886 281.312935 
L 80.658771 281.204916 
L 80.769657 280.712472 
L 80.802352 280.604452 
L 80.916647 280.099301 
L 80.943618 279.991281 
L 81.052917 279.533785 
L 81.054547 279.533785 
L 81.083748 279.425765 
L 81.194676 278.933322 
L 81.194848 278.933322 
L 81.213286 278.825302 
L 81.324343 278.351921 
L 81.34917 278.243901 
L 81.459799 277.64026 
L 81.460099 277.64026 
L 81.49153 277.53224 
L 81.601687 277.017558 
L 81.602587 277.017558 
L 81.62214 276.909538 
L 81.736371 276.442511 
L 81.758625 276.334491 
L 81.869597 275.835693 
L 81.869704 275.835693 
L 81.903257 275.727673 
L 82.014314 275.317833 
L 82.043472 275.209814 
L 82.161454 274.698308 
L 82.197323 274.590288 
L 82.305422 274.107376 
L 82.308423 274.107376 
L 82.341526 273.999356 
L 82.450697 273.554568 
L 82.452584 273.554568 
L 82.479169 273.446548 
L 82.589626 272.966813 
L 82.590269 272.966813 
L 82.621142 272.858793 
L 82.732028 272.375881 
L 82.732242 272.375881 
L 82.771606 272.267861 
L 82.889223 271.775418 
L 82.914265 271.667398 
L 83.03274 271.11459 
L 83.058039 271.00657 
L 83.168453 270.485533 
L 83.168882 270.485533 
L 83.193838 270.377514 
L 83.304295 269.907309 
L 83.304938 269.907309 
L 83.328651 269.797701 
L 83.446226 269.310023 
L 83.469166 269.202003 
L 83.586741 268.719091 
L 83.611311 268.611071 
L 83.728672 268.147221 
L 83.75635 268.039201 
L 83.870216 267.629361 
L 83.987448 267.165511 
L 84.016949 267.057491 
L 84.133538 266.647651 
L 84.156778 266.539632 
L 84.267278 266.117083 
L 84.267879 266.117083 
L 84.308014 266.009063 
L 84.418814 265.535682 
L 84.419093 265.535682 
L 84.447286 265.430839 
L 84.447286 265.427662 
L 84.565332 264.909803 
L 84.59389 264.801783 
L 84.704947 264.391943 
L 84.70499 264.391943 
L 84.729817 264.283923 
L 84.855497 263.743823 
L 84.878094 263.635804 
L 84.98883 263.140183 
L 84.989066 263.140183 
L 85.024012 263.032163 
L 85.141759 262.53972 
L 85.167486 262.4317 
L 85.277343 261.990089 
L 85.278415 261.990089 
L 85.308109 261.882069 
L 85.42905 261.392803 
L 85.460266 261.284783 
L 85.570123 260.795517 
L 85.571324 260.795517 
L 85.599367 260.690674 
L 85.710167 260.25224 
L 85.710424 260.25224 
L 85.737481 260.144221 
L 85.848195 259.734381 
L 85.848581 259.734381 
L 85.877053 259.629538 
L 85.877053 259.626361 
L 85.994328 259.165688 
L 86.021428 259.057668 
L 86.131199 258.654182 
L 86.132507 258.654182 
L 86.165331 258.546162 
L 86.291739 257.980646 
L 86.320597 257.872627 
L 86.430925 257.446901 
L 86.431654 257.446901 
L 86.460812 257.338881 
L 86.577358 256.932218 
L 86.609131 256.824199 
L 86.726706 256.344463 
L 86.748961 256.236443 
L 86.866407 255.763062 
L 86.888233 255.655042 
L 86.998733 255.251557 
L 86.999333 255.251557 
L 87.024417 255.146714 
L 87.024417 255.143537 
L 87.140835 254.746405 
L 87.166863 254.638385 
L 87.277534 254.250784 
L 87.277963 254.250784 
L 87.310079 254.142764 
L 87.427869 253.64079 
L 87.454411 253.53277 
L 87.570957 253.126107 
L 87.601873 253.018087 
L 87.712159 252.589185 
L 87.71293 252.589185 
L 87.750107 252.481165 
L 87.860392 252.071325 
L 87.861207 252.071325 
L 87.890193 251.963305 
L 87.999321 251.505809 
L 88.000951 251.505809 
L 88.02209 251.397789 
L 88.132547 250.978418 
L 88.133169 250.978418 
L 88.160547 250.870398 
L 88.27109 250.387486 
L 88.271605 250.387486 
L 88.396555 249.869626 
L 88.431952 249.761606 
L 88.545861 249.339058 
L 88.574033 249.231038 
L 88.683975 248.811667 
L 88.685133 248.811667 
L 88.713948 248.703647 
L 88.830408 248.300161 
L 88.8708 248.192141 
L 88.976155 247.852196 
L 88.981772 247.852196 
L 89.015689 247.744177 
L 89.139568 247.270795 
L 89.185792 247.162776 
L 89.295048 246.794237 
L 89.296892 246.794237 
L 89.413588 246.378043 
L 89.436593 246.270023 
L 89.547607 245.914193 
L 89.547693 245.914193 
L 89.584398 245.806173 
L 89.694126 245.456697 
L 89.695412 245.456697 
L 89.73038 245.348677 
L 89.87096 244.865765 
L 89.898102 244.757745 
L 90.021509 244.300249 
L 90.053583 244.192229 
L 90.169357 243.842753 
L 90.201688 243.734734 
L 90.318105 243.337602 
L 90.348292 243.229582 
L 90.473114 242.714899 
L 90.504759 242.605291 
L 90.61573 242.225633 
L 90.615859 242.225633 
L 90.648705 242.117613 
L 90.766108 241.650586 
L 90.791922 241.542566 
L 90.906109 241.075539 
L 90.937883 240.967519 
L 91.048618 240.538617 
L 91.048961 240.538617 
L 91.080542 240.430597 
L 91.191642 239.985809 
L 91.220757 239.880966 
L 91.220757 239.877789 
L 91.339426 239.502897 
L 91.368348 239.394877 
L 91.48588 238.918319 
L 91.524793 238.810299 
L 91.638273 238.454469 
L 91.684797 238.34486 
L 91.793711 237.968379 
L 91.795897 237.968379 
L 91.826428 237.858771 
L 91.937013 237.475936 
L 91.937528 237.475936 
L 91.968058 237.367916 
L 91.968058 237.366328 
L 92.090092 236.961253 
L 92.141119 236.853233 
L 92.251919 236.491049 
L 92.252176 236.491049 
L 92.287509 236.383029 
L 92.404526 235.944596 
L 92.440202 235.834987 
L 92.556876 235.420382 
L 92.582432 235.312362 
L 92.693426 234.854866 
L 92.693533 234.854866 
L 92.716087 234.750023 
L 92.826416 234.394193 
L 92.827102 234.394193 
L 92.86029 234.286173 
L 92.971262 233.943051 
L 93.005222 233.835031 
L 93.118981 233.418837 
L 93.152899 233.310817 
L 93.275619 232.875561 
L 93.3206 232.767541 
L 93.430285 232.373586 
L 93.431657 232.373586 
L 93.461415 232.265566 
L 93.570758 231.925622 
L 93.572516 231.925622 
L 93.603646 231.820779 
L 93.603646 231.817602 
L 93.71466 231.461772 
L 93.742275 231.353752 
L 93.856162 230.940735 
L 93.887893 230.832715 
L 94.003796 230.476885 
L 94.032439 230.368865 
L 94.148813 229.978087 
L 94.267846 229.587309 
L 94.298677 229.47929 
L 94.407697 229.10122 
L 94.409777 229.10122 
L 94.449097 228.9932 
L 94.566243 228.545236 
L 94.600547 228.437216 
L 94.711518 228.027376 
L 94.711626 228.027376 
L 94.751761 227.917767 
L 94.902439 227.433266 
L 94.930889 227.325247 
L 95.041003 226.947177 
L 95.041989 226.947177 
L 95.078265 226.839157 
L 95.187264 226.499212 
L 95.189237 226.499212 
L 95.222854 226.391192 
L 95.333526 226.038539 
L 95.333954 226.038539 
L 95.369115 225.93052 
L 95.477171 225.587398 
L 95.480216 225.587398 
L 95.515977 225.482555 
L 95.631001 225.0886 
L 95.663996 224.98058 
L 95.783973 224.653344 
L 95.811587 224.545324 
L 95.922687 224.189494 
L 95.958449 224.081474 
L 96.069291 223.760591 
L 96.069506 223.760591 
L 96.105417 223.652571 
L 96.228845 223.28721 
L 96.253458 223.17919 
L 96.368589 222.880547 
L 96.406773 222.772527 
L 96.525742 222.38175 
L 96.562361 222.272141 
L 96.69698 221.927431 
L 96.731134 221.819411 
L 96.842234 221.48582 
L 96.890559 221.3778 
L 97.00689 220.9902 
L 97.041237 220.88218 
L 97.152294 220.542235 
L 97.190971 220.434215 
L 97.304301 220.09427 
L 97.333202 219.98625 
L 97.44889 219.636774 
L 97.493056 219.528755 
L 97.60823 219.22058 
L 97.637773 219.114149 
L 97.752133 218.753553 
L 97.785921 218.645533 
L 97.906327 218.302411 
L 97.933083 218.194392 
L 98.052073 217.902103 
L 98.081831 217.794083 
L 98.190659 217.454138 
L 98.192932 217.454138 
L 98.228136 217.34453 
L 98.338464 217.06336 
L 98.33915 217.06336 
L 98.378728 216.95534 
L 98.488156 216.628104 
L 98.489807 216.628104 
L 98.520594 216.520084 
L 98.634246 216.126129 
L 98.672365 216.018109 
L 98.78338 215.703581 
L 98.821071 215.595561 
L 98.941176 215.26197 
L 98.974922 215.15395 
L 99.086022 214.855307 
L 99.135419 214.747287 
L 99.244654 214.404165 
L 99.246519 214.404165 
L 99.296988 214.296146 
L 99.412162 213.987971 
L 99.443549 213.879951 
L 99.572466 213.441518 
L 99.605033 213.339852 
L 99.714933 212.952252 
L 99.715983 212.952252 
L 99.760663 212.844232 
L 99.882441 212.529703 
L 99.922211 212.421683 
L 100.031811 212.126217 
L 100.033311 212.126217 
L 100.072289 212.018197 
L 100.182746 211.662367 
L 100.183389 211.662367 
L 100.218336 211.554347 
L 100.331601 211.227111 
L 100.36286 211.12068 
L 100.478656 210.858573 
L 100.531783 210.750553 
L 100.652767 210.385191 
L 100.690522 210.277172 
L 100.801537 209.96582 
L 100.854707 209.8578 
L 100.970396 209.511501 
L 101.001054 209.403482 
L 101.116571 209.069891 
L 101.151989 208.961871 
L 101.264891 208.688644 
L 101.297693 208.580624 
L 101.40755 208.196201 
L 101.408708 208.196201 
L 101.471483 208.088181 
L 101.581983 207.751413 
L 101.582476 207.751413 
L 101.624391 207.643393 
L 101.740722 207.252616 
L 101.795908 207.144596 
L 101.910524 206.884077 
L 101.9465 206.776057 
L 102.0573 206.4933 
L 102.057515 206.4933 
L 102.105196 206.38528 
L 102.215868 206.099345 
L 102.216211 206.099345 
L 102.267194 205.991325 
L 102.377137 205.673619 
L 102.378252 205.673619 
L 102.406595 205.5656 
L 102.517567 205.203415 
L 102.517695 205.203415 
L 102.545588 205.095395 
L 102.662413 204.812638 
L 102.704435 204.704618 
L 102.819265 204.425037 
L 102.866947 204.317017 
L 102.986666 203.996135 
L 103.023757 203.888115 
L 103.138545 203.614888 
L 103.191458 203.506868 
L 103.191458 203.50528 
L 103.312249 203.144684 
L 103.352598 203.036664 
L 103.463655 202.734844 
L 103.499888 202.626824 
L 103.615727 202.270994 
L 103.650995 202.162974 
L 103.776331 201.813498 
L 103.825535 201.705478 
L 103.938544 201.42272 
L 103.969674 201.3147 
L 104.083819 201.073244 
L 104.12464 200.965224 
L 104.235354 200.666581 
L 104.23574 200.666581 
L 104.274868 200.558562 
L 104.388219 200.224971 
L 104.42621 200.116951 
L 104.536195 199.786537 
L 104.53731 199.786537 
L 104.579203 199.678517 
L 104.689532 199.411645 
L 104.690304 199.411645 
L 104.737299 199.303625 
L 104.847371 198.979565 
L 104.8484 198.979565 
L 104.894366 198.871546 
L 105.015586 198.493476 
L 105.054606 198.385456 
L 105.177734 198.08999 
L 105.218362 197.98197 
L 105.338038 197.664265 
L 105.382247 197.556245 
L 105.491846 197.254425 
L 105.493304 197.254425 
L 105.545145 197.146405 
L 105.655345 196.812814 
L 105.656117 196.812814 
L 105.698096 196.704794 
L 105.81357 196.364849 
L 105.853233 196.25683 
L 105.963647 195.958186 
L 105.964333 195.958186 
L 106.001981 195.850167 
L 106.112674 195.596002 
L 106.113082 195.596002 
L 106.1756 195.487982 
L 106.286486 195.205224 
L 106.2867 195.205224 
L 106.354964 195.097205 
L 106.467908 194.823978 
L 106.529054 194.715958 
L 106.640154 194.430023 
L 106.674458 194.322003 
L 106.674458 194.320415 
L 106.793276 194.036068 
L 106.827708 193.928049 
L 106.937522 193.664353 
L 106.938808 193.664353 
L 106.973498 193.556333 
L 107.086399 193.289461 
L 107.128335 193.181441 
L 107.243509 192.879621 
L 107.277298 192.771601 
L 107.396545 192.46978 
L 107.441225 192.361761 
L 107.551982 192.05994 
L 107.552197 192.05994 
L 107.592804 191.951921 
L 107.708535 191.608799 
L 107.755916 191.500779 
L 107.870833 191.211667 
L 107.921302 191.103647 
L 108.031373 190.83042 
L 108.032402 190.83042 
L 108.081456 190.7224 
L 108.189469 190.493653 
L 108.192513 190.493653 
L 108.239423 190.385633 
L 108.34868 190.048865 
L 108.350481 190.048865 
L 108.39336 189.940845 
L 108.504375 189.642202 
L 108.504417 189.642202 
L 108.540265 189.534182 
L 108.64995 189.235539 
L 108.651365 189.235539 
L 108.68301 189.127519 
L 108.801056 188.870178 
L 108.85397 188.762158 
L 108.961554 188.536587 
L 108.964984 188.536587 
L 109.007006 188.428567 
L 109.121579 188.171226 
L 109.159442 188.063206 
L 109.269641 187.824927 
L 109.27037 187.824927 
L 109.323927 187.716907 
L 109.434941 187.504044 
L 109.435027 187.504044 
L 109.474562 187.396024 
L 109.474562 187.394436 
L 109.591494 187.170453 
L 109.647773 187.062434 
L 109.763611 186.827331 
L 109.818111 186.719312 
L 109.927367 186.423846 
L 109.929168 186.423846 
L 109.988256 186.315826 
L 110.102701 186.058484 
L 110.159773 185.950464 
L 110.279063 185.648644 
L 110.338151 185.540624 
L 110.447922 185.222919 
L 110.44923 185.222919 
L 110.4881 185.114899 
L 110.599071 184.902036 
L 110.599157 184.902036 
L 110.646239 184.794017 
L 110.756567 184.543029 
L 110.757296 184.543029 
L 110.875686 184.27298 
L 110.924011 184.16496 
L 111.036998 183.882202 
L 111.078848 183.774182 
L 111.194129 183.462831 
L 111.245691 183.354811 
L 111.358206 183.145125 
L 111.409705 183.037105 
L 111.518532 182.782941 
L 111.520805 182.782941 
L 111.576548 182.674921 
L 111.687348 182.512891 
L 111.687605 182.512891 
L 111.744249 182.404871 
L 111.854749 182.176124 
L 111.855349 182.176124 
L 111.909549 182.068104 
L 112.025623 181.880657 
L 112.099975 181.772638 
L 112.214335 181.528004 
L 112.253655 181.419985 
L 112.253655 181.418396 
L 112.375647 181.013322 
L 112.413723 180.905302 
L 112.524095 180.682908 
L 112.524781 180.682908 
L 112.57272 180.5733 
L 112.681719 180.384265 
L 112.683777 180.384265 
L 112.74175 180.276245 
L 112.855895 180.050674 
L 112.934793 179.942654 
L 113.045678 179.7425 
L 113.045786 179.7425 
L 113.094346 179.63448 
L 113.215824 179.380315 
L 113.249527 179.275473 
L 113.249527 179.272296 
L 113.371518 179.005423 
L 113.437424 178.897403 
L 113.546637 178.681363 
L 113.548481 178.681363 
L 113.587759 178.573344 
L 113.696243 178.357304 
L 113.698859 178.357304 
L 113.762192 178.249284 
L 113.876679 177.991943 
L 113.92702 177.883923 
L 114.037262 177.6933 
L 114.038077 177.6933 
L 114.098494 177.58528 
L 114.208608 177.343823 
L 114.20953 177.343823 
L 114.269883 177.235804 
L 114.382827 176.962577 
L 114.441314 176.854557 
L 114.550828 176.644871 
L 114.552393 176.644871 
L 114.668145 176.416124 
L 114.727105 176.308104 
L 114.838076 176.146074 
L 114.838205 176.146074 
L 114.902352 176.036466 
L 115.011737 175.793421 
L 115.01341 175.793421 
L 115.061542 175.683812 
L 115.175879 175.440768 
L 115.239769 175.332748 
L 115.350655 175.154833 
L 115.350763 175.154833 
L 115.406527 175.046813 
L 115.5208 174.805357 
L 115.581861 174.697337 
L 115.692746 174.509891 
L 115.692961 174.509891 
L 115.741972 174.401871 
L 115.8523 174.150884 
L 115.853029 174.150884 
L 115.944019 174.042864 
L 116.057092 173.896719 
L 116.120467 173.788699 
L 116.23131 173.598076 
L 116.23146 173.598076 
L 116.293828 173.490056 
L 116.406001 173.328026 
L 116.477781 173.220007 
L 116.586608 173.016675 
L 116.588795 173.016675 
L 116.636477 172.908655 
L 116.746377 172.721209 
L 116.747577 172.721209 
L 116.814898 172.613189 
L 116.93764 172.400327 
L 117.000865 172.292307 
L 117.110593 172.095329 
L 117.111923 172.095329 
L 117.17324 171.987309 
L 117.282454 171.77127 
L 117.284212 171.77127 
L 117.367955 171.66325 
L 117.477126 171.513928 
L 117.479055 171.513928 
L 117.562027 171.405908 
L 117.676171 171.170806 
L 117.73899 171.062787 
L 117.852663 170.853101 
L 117.906047 170.745081 
L 118.019334 170.583051 
L 118.087127 170.475031 
L 118.197069 170.268523 
L 118.198141 170.268523 
L 118.255771 170.160503 
L 118.366614 169.998473 
L 118.366871 169.998473 
L 118.428832 169.890453 
L 118.537702 169.715715 
L 118.539889 169.715715 
L 118.608367 169.607696 
L 118.722212 169.404364 
L 118.796479 169.296344 
L 118.907 169.124783 
L 118.907579 169.124783 
L 119.007316 169.016763 
L 119.117002 168.813432 
L 119.118417 168.813432 
L 119.172016 168.705412 
L 119.282945 168.543382 
L 119.283116 168.543382 
L 119.350479 168.433774 
L 119.472814 168.228854 
L 119.544894 168.120834 
L 119.655994 168.000106 
L 119.713195 167.892086 
L 119.81096 167.707817 
L 119.824296 167.707817 
L 119.880703 167.599797 
L 119.995641 167.399643 
L 120.063605 167.291623 
L 120.171575 167.158186 
L 120.174662 167.158186 
L 120.253174 167.050167 
L 120.366719 166.865897 
L 120.426921 166.757878 
L 120.536135 166.573608 
L 120.537936 166.573608 
L 120.630898 166.464 
L 120.74187 166.274965 
L 120.741956 166.274965 
L 120.796498 166.166945 
L 120.906312 165.992207 
L 120.907555 165.992207 
L 120.99177 165.884188 
L 121.101756 165.725335 
L 121.102849 165.725335 
L 121.184148 165.617315 
L 121.298743 165.445754 
L 121.375497 165.337734 
L 121.48381 165.166173 
L 121.486598 165.166173 
L 121.550423 165.058153 
L 121.666905 164.899301 
L 121.741558 164.791281 
L 121.851286 164.65149 
L 121.85253 164.65149 
L 121.90943 164.54347 
L 122.017015 164.416388 
L 122.020531 164.416388 
L 122.102816 164.308368 
L 122.213059 164.174932 
L 122.213873 164.174932 
L 122.278878 164.066912 
L 122.389014 163.933476 
L 122.389893 163.933476 
L 122.453612 163.825456 
L 122.561968 163.666603 
L 122.564669 163.666603 
L 122.625686 163.558584 
L 122.7352 163.425147 
L 122.736701 163.425147 
L 122.835066 163.317127 
L 122.948653 163.170983 
L 123.03171 163.061375 
L 123.141867 162.913641 
L 123.142811 162.913641 
L 123.230499 162.805622 
L 123.3431 162.691248 
L 123.412221 162.583228 
L 123.525937 162.389427 
L 123.620657 162.281408 
L 123.73373 162.135263 
L 123.832524 162.027243 
L 123.832524 162.025655 
L 123.948491 161.846151 
L 124.027153 161.738131 
L 124.136367 161.528446 
L 124.138254 161.528446 
L 124.197984 161.418837 
L 124.305397 161.261573 
L 124.309042 161.261573 
L 124.402776 161.151965 
L 124.512247 160.9947 
L 124.513876 160.9947 
L 124.600835 160.885092 
L 124.71125 160.711943 
L 124.711807 160.711943 
L 124.846748 160.603923 
L 124.962651 160.426008 
L 125.041935 160.317988 
L 125.148619 160.14325 
L 125.152906 160.14325 
L 125.253115 160.03523 
L 125.360228 159.882731 
L 125.364173 159.882731 
L 125.437496 159.774712 
L 125.543966 159.669869 
L 125.548597 159.669869 
L 125.624193 159.561849 
L 125.73122 159.425236 
L 125.735164 159.425236 
L 125.810804 159.317216 
L 125.924048 159.158363 
L 125.982192 159.050343 
L 126.088704 158.89149 
L 126.093207 158.89149 
L 126.159241 158.78347 
L 126.272099 158.637326 
L 126.346109 158.529306 
L 126.456737 158.389516 
L 126.457209 158.389516 
L 126.53988 158.281496 
L 126.53988 158.279907 
L 126.653982 158.170299 
L 126.734938 158.065456 
L 126.848268 157.925666 
L 126.94376 157.817646 
L 127.049887 157.665147 
L 127.054818 157.665147 
L 127.147266 157.557127 
L 127.262525 157.404629 
L 127.31145 157.296609 
L 127.31145 157.29502 
L 127.436358 157.128225 
L 127.511997 157.020205 
L 127.621961 156.905831 
L 127.623097 156.905831 
L 127.749848 156.797811 
L 127.859662 156.629427 
L 127.860863 156.629427 
L 127.934058 156.521408 
L 128.047302 156.356201 
L 128.165134 156.248181 
L 128.274605 156.13063 
L 128.276192 156.13063 
L 128.348443 156.02261 
L 128.458858 155.895528 
L 128.459501 155.895528 
L 128.541529 155.787508 
L 128.650657 155.679488 
L 128.652586 155.679488 
L 128.728654 155.571468 
L 128.83135 155.463448 
L 128.839755 155.463448 
L 128.941336 155.355429 
L 128.941336 155.35384 
L 129.055673 155.2347 
L 129.160792 155.126681 
L 129.273779 154.98689 
L 129.376346 154.87887 
L 129.48616 154.707309 
L 129.487189 154.707309 
L 129.598246 154.59929 
L 129.706817 154.459499 
L 129.709347 154.459499 
L 129.784557 154.351479 
L 129.897608 154.205335 
L 129.972368 154.097315 
L 130.082868 153.967056 
L 130.083469 153.967056 
L 130.167469 153.859036 
L 130.278441 153.716068 
L 130.278527 153.716068 
L 130.366386 153.608049 
L 130.472041 153.493675 
L 130.477487 153.493675 
L 130.556642 153.385655 
L 130.666949 153.255395 
L 130.667699 153.255395 
L 130.772453 153.147376 
L 130.887884 152.988523 
L 130.965046 152.880503 
L 131.077068 152.74389 
L 131.154679 152.63587 
L 131.264536 152.470663 
L 131.26578 152.470663 
L 131.373492 152.362643 
L 131.491754 152.187905 
L 131.579485 152.079885 
L 131.692364 151.946449 
L 131.795854 151.838429 
L 131.905196 151.743117 
L 131.906954 151.743117 
L 131.991898 151.635098 
L 132.102955 151.517547 
L 132.222052 151.409527 
L 132.333946 151.288799 
L 132.454308 151.180779 
L 132.560906 151.079113 
L 132.565408 151.079113 
L 132.659142 150.971093 
L 132.766469 150.81224 
L 132.7702 150.81224 
L 132.862562 150.704221 
L 132.969331 150.580315 
L 132.973641 150.580315 
L 133.046471 150.472296 
L 133.155642 150.37063 
L 133.157571 150.37063 
L 133.261511 150.26261 
L 133.371453 150.157767 
L 133.372611 150.157767 
L 133.453096 150.049747 
L 133.559093 149.954436 
L 133.564153 149.954436 
L 133.659388 149.846416 
L 133.764399 149.725688 
L 133.770402 149.725688 
L 133.857447 149.617668 
L 133.967133 149.461992 
L 133.968548 149.461992 
L 134.087752 149.353972 
L 134.19778 149.211005 
L 134.198724 149.211005 
L 134.288106 149.102985 
L 134.400085 148.960018 
L 134.516116 148.851998 
L 134.628117 148.696322 
L 134.769833 148.588302 
L 134.880612 148.467574 
L 134.880933 148.467574 
L 134.984144 148.359554 
L 135.091857 148.24518 
L 135.095201 148.24518 
L 135.19987 148.137161 
L 135.308354 148.003724 
L 135.31097 148.003724 
L 135.415295 147.895704 
L 135.52944 147.778153 
L 135.611297 147.670133 
L 135.715493 147.53352 
L 135.722097 147.53352 
L 135.821791 147.4255 
L 135.93392 147.273002 
L 136.060972 147.164982 
L 136.167398 147.041077 
L 136.172072 147.041077 
L 136.272624 146.933057 
L 136.385311 146.815506 
L 136.469354 146.707486 
L 136.582084 146.580404 
L 136.715996 146.472384 
L 136.82894 146.335771 
L 136.940684 146.227751 
L 137.048096 146.072075 
L 137.051698 146.072075 
L 137.155595 145.964055 
L 137.266438 145.865566 
L 137.266695 145.865566 
L 137.374451 145.757547 
L 137.482721 145.67812 
L 137.485551 145.67812 
L 137.587947 145.5701 
L 137.698747 145.465258 
L 137.804358 145.357238 
L 137.914473 145.252395 
L 137.915073 145.252395 
L 138.024115 145.144375 
L 138.136373 145.055418 
L 138.256735 144.947398 
L 138.363119 144.813961 
L 138.367707 144.813961 
L 138.524216 144.705942 
L 138.630728 144.594745 
L 138.635316 144.594745 
L 138.765712 144.486725 
L 138.878356 144.372351 
L 138.993316 144.264331 
L 139.100128 144.169019 
L 139.10433 144.169019 
L 139.230653 144.060999 
L 139.34171 143.95298 
L 139.45251 143.84496 
L 139.562581 143.708346 
L 139.563568 143.708346 
L 139.660561 143.600327 
L 139.770589 143.482776 
L 139.771618 143.482776 
L 139.869854 143.374756 
L 139.978811 143.288975 
L 139.980912 143.288975 
L 140.085066 143.180955 
L 140.195951 143.066581 
L 140.19608 143.066581 
L 140.323132 142.958562 
L 140.433932 142.84101 
L 140.434232 142.84101 
L 140.564242 142.732991 
L 140.672684 142.590023 
L 140.675085 142.590023 
L 140.805738 142.482003 
L 140.918382 142.358098 
L 141.054052 142.250078 
L 141.158978 142.142058 
L 141.165152 142.142058 
L 141.301509 142.034039 
L 141.408964 141.929196 
L 141.412609 141.929196 
L 141.582239 141.821176 
L 141.582239 141.819587 
L 141.696513 141.703625 
L 141.865671 141.595605 
L 141.979259 141.500293 
L 142.107811 141.392274 
L 142.214881 141.300139 
L 142.218868 141.300139 
L 142.369117 141.192119 
L 142.477688 141.090453 
L 142.480196 141.090453 
L 142.58793 140.982434 
L 142.69693 140.877591 
L 142.698559 140.877591 
L 142.860257 140.769571 
L 142.962824 140.661551 
L 142.971271 140.661551 
L 143.107628 140.553531 
L 143.219371 140.451865 
L 143.335145 140.342257 
L 143.445002 140.216763 
L 143.446245 140.216763 
L 143.550828 140.108744 
L 143.663258 140.007078 
L 143.775387 139.899058 
L 143.887688 139.797392 
L 144.045827 139.689372 
L 144.154569 139.565467 
L 144.15682 139.565467 
L 144.279304 139.457447 
L 144.392034 139.336719 
L 144.528776 139.228699 
L 144.639448 139.101617 
L 144.639877 139.101617 
L 144.744974 138.993597 
L 144.852343 138.860161 
L 144.856074 138.860161 
L 145.024632 138.752141 
L 145.137341 138.672715 
L 145.238857 138.564695 
L 145.346249 138.475737 
L 145.349872 138.475737 
L 145.460586 138.367718 
L 145.568385 138.288291 
L 145.571558 138.288291 
L 145.686174 138.180271 
L 145.686174 138.178683 
L 145.799461 138.097668 
L 145.897977 137.989648 
L 146.009399 137.894336 
L 146.129868 137.786317 
L 146.24219 137.694182 
L 146.358736 137.584574 
L 146.468421 137.490851 
L 146.469751 137.490851 
L 146.610523 137.382831 
L 146.720037 137.277988 
L 146.721624 137.277988 
L 146.833067 137.169968 
L 146.938979 137.100073 
L 146.944124 137.100073 
L 147.092358 136.992053 
L 147.204616 136.88721 
L 147.347018 136.77919 
L 147.453659 136.680702 
L 147.458119 136.680702 
L 147.565724 136.572682 
L 147.677403 136.455131 
L 147.804883 136.347111 
L 147.912725 136.226383 
L 147.915941 136.226383 
L 148.053069 136.118363 
L 148.165327 136.007166 
L 148.316905 135.899146 
L 148.424661 135.81972 
L 148.428005 135.81972 
L 148.587045 135.7117 
L 148.696816 135.625919 
L 148.698124 135.625919 
L 148.887329 135.5179 
L 148.99993 135.406703 
L 149.116776 135.30186 
L 149.224038 135.225611 
L 149.22779 135.225611 
L 149.409641 135.117591 
L 149.521342 135.015925 
L 149.658856 134.907905 
L 149.769913 134.828479 
L 149.769935 134.828479 
L 149.893577 134.720459 
L 149.9937 134.628324 
L 150.004635 134.628324 
L 150.109389 134.520304 
L 150.222762 134.437701 
L 150.377599 134.329681 
L 150.489942 134.237547 
L 150.597977 134.129527 
L 150.70957 134.040569 
L 150.844769 133.932549 
L 150.953854 133.853123 
L 150.955826 133.853123 
L 151.100458 133.745103 
L 151.203926 133.668854 
L 151.21143 133.668854 
L 151.325274 133.560834 
L 151.435302 133.481408 
L 151.436331 133.481408 
L 151.58255 133.371799 
L 151.696737 133.259014 
L 151.857535 133.150994 
L 151.962375 133.039797 
L 151.968549 133.039797 
L 152.082265 132.931777 
L 152.183761 132.833288 
L 152.192336 132.833288 
L 152.349789 132.725269 
L 152.461704 132.649019 
L 152.63603 132.540999 
L 152.748781 132.458396 
L 152.890926 132.350376 
L 152.999968 132.24871 
L 153.002026 132.24871 
L 153.157893 132.140691 
L 153.26359 132.048556 
L 153.26895 132.048556 
L 153.421772 131.940536 
L 153.534459 131.822985 
L 153.68325 131.714965 
L 153.791863 131.610122 
L 153.79435 131.610122 
L 153.98452 131.502103 
L 154.0977 131.425853 
L 154.252515 131.317833 
L 154.362844 131.225699 
L 154.363573 131.225699 
L 154.508848 131.117679 
L 154.619262 131.025544 
L 154.619948 131.025544 
L 154.762007 130.917525 
L 154.874222 130.831744 
L 155.084159 130.723724 
L 155.195174 130.622058 
L 155.318323 130.514039 
L 155.415359 130.428258 
L 155.429381 130.428258 
L 155.568181 130.320238 
L 155.67881 130.231281 
L 155.679195 130.231281 
L 155.812121 130.123261 
L 155.926395 130.040657 
L 156.071713 129.932638 
L 156.182598 129.850034 
L 156.182813 129.850034 
L 156.301717 129.742014 
L 156.301717 129.740426 
L 156.415304 129.64988 
L 156.550117 129.54186 
L 156.663961 129.440194 
L 156.788847 129.332174 
L 156.900784 129.208269 
L 157.040528 129.100249 
L 157.150813 129.014469 
L 157.151585 129.014469 
L 157.321215 128.906449 
L 157.433516 128.814314 
L 157.602504 128.706295 
L 157.711546 128.61416 
L 157.713518 128.61416 
L 157.858622 128.50614 
L 157.965734 128.410828 
L 157.969658 128.410828 
L 158.095401 128.302809 
L 158.203629 128.226559 
L 158.206459 128.226559 
L 158.337798 128.118539 
L 158.449327 128.035936 
L 158.577708 127.927916 
L 158.683105 127.823073 
L 158.688765 127.823073 
L 158.858438 127.715054 
L 158.967695 127.626096 
L 158.969453 127.626096 
L 159.162453 127.518076 
L 159.265877 127.425942 
L 159.27351 127.425942 
L 159.406993 127.317922 
L 159.514449 127.241672 
L 159.518051 127.241672 
L 159.656465 127.133653 
L 159.766622 127.066934 
L 159.767437 127.066934 
L 159.902249 126.958915 
L 160.011034 126.879488 
L 160.013349 126.879488 
L 160.185939 126.771468 
L 160.294252 126.682511 
L 160.297039 126.682511 
L 160.448489 126.574491 
L 160.550498 126.479179 
L 160.55946 126.479179 
L 160.732864 126.371159 
L 160.844479 126.291733 
L 160.988639 126.183713 
L 161.093222 126.10111 
L 161.099697 126.10111 
L 161.271685 125.991501 
L 161.382786 125.926372 
L 161.568539 125.818352 
L 161.677366 125.700801 
L 161.679553 125.700801 
L 161.81338 125.592781 
L 161.925766 125.497469 
L 162.043341 125.38945 
L 162.153198 125.303669 
L 162.154442 125.303669 
L 162.303747 125.195649 
L 162.401555 125.116223 
L 162.414848 125.116223 
L 162.587265 125.008203 
L 162.689875 124.919245 
L 162.698194 124.919245 
L 162.88116 124.811226 
L 162.992646 124.747685 
L 163.139122 124.639665 
L 163.24825 124.576124 
L 163.250222 124.576124 
L 163.406131 124.468104 
L 163.518003 124.410917 
L 163.6767 124.302897 
L 163.786642 124.198054 
L 163.787285 124.198054 
L 163.944138 124.090034 
L 164.055152 124.013785 
L 164.198798 123.905765 
L 164.31097 123.819985 
L 164.440209 123.711965 
L 164.440209 123.710376 
L 164.556025 123.623007 
L 164.687922 123.514987 
L 164.796771 123.422853 
L 164.798851 123.422853 
L 164.925259 123.314833 
L 165.036359 123.216344 
L 165.188881 123.108324 
L 165.292606 123.013013 
L 165.29981 123.013013 
L 165.421544 122.904993 
L 165.535389 122.803327 
L 165.646446 122.695307 
L 165.753816 122.628589 
L 165.756946 122.628589 
L 165.936911 122.520569 
L 166.04621 122.441143 
L 166.047968 122.441143 
L 166.250573 122.333123 
L 166.357814 122.285467 
L 166.36163 122.285467 
L 166.507848 122.177447 
L 166.621264 122.091667 
L 166.795611 121.983647 
L 166.906026 121.888335 
L 166.906647 121.888335 
L 167.048063 121.780315 
L 167.159785 121.67865 
L 167.33752 121.57063 
L 167.442531 121.519797 
L 167.448406 121.519797 
L 167.580817 121.411777 
L 167.692989 121.332351 
L 167.837321 121.224331 
L 167.946106 121.141728 
L 167.948379 121.141728 
L 168.092796 121.033708 
L 168.205954 120.928865 
L 168.423824 120.820845 
L 168.536082 120.712825 
L 168.647483 120.604805 
L 168.756782 120.515848 
L 168.758583 120.515848 
L 168.909475 120.407828 
L 169.016459 120.306162 
L 169.020533 120.306162 
L 169.155731 120.198142 
L 169.25654 120.134601 
L 169.266831 120.134601 
L 169.435604 120.026581 
L 169.54902 119.940801 
L 169.693866 119.832781 
L 169.803037 119.750178 
L 169.804924 119.750178 
L 169.962762 119.642158 
L 170.073541 119.534138 
L 170.073562 119.534138 
L 170.240577 119.426118 
L 170.354207 119.333983 
L 170.491464 119.225964 
L 170.603551 119.152891 
L 170.775196 119.044871 
L 170.884624 118.917789 
L 170.886254 118.917789 
L 171.071707 118.809769 
L 171.181864 118.752582 
L 171.182721 118.752582 
L 171.298581 118.644563 
L 171.410839 118.558782 
L 171.597107 118.450762 
L 171.705377 118.380867 
L 171.708121 118.380867 
L 171.854854 118.272847 
L 171.966726 118.21566 
L 172.097723 118.10764 
L 172.2064 118.028214 
L 172.20878 118.028214 
L 172.330279 117.920194 
L 172.441829 117.847122 
L 172.580372 117.739102 
L 172.685041 117.646967 
L 172.691344 117.646967 
L 172.851455 117.538948 
L 172.959168 117.462698 
L 172.962427 117.462698 
L 173.136002 117.354678 
L 173.24826 117.268898 
L 173.388475 117.160878 
L 173.498161 117.100514 
L 173.499533 117.100514 
L 173.707712 116.992494 
L 173.81937 116.944838 
L 173.992645 116.836819 
L 174.104817 116.747861 
L 174.269902 116.643018 
L 174.378516 116.538175 
L 174.38096 116.538175 
L 174.553592 116.430156 
L 174.663148 116.350729 
L 174.664521 116.350729 
L 174.798132 116.242709 
L 174.909233 116.175991 
L 175.078906 116.067971 
L 175.191722 116.00443 
L 175.379061 115.89641 
L 175.489904 115.813807 
L 175.490162 115.813807 
L 175.665281 115.705787 
L 175.777238 115.639069 
L 175.937821 115.531049 
L 176.048836 115.4548 
L 176.048879 115.4548 
L 176.263683 115.34678 
L 176.375233 115.280062 
L 176.51249 115.172042 
L 176.620031 115.09897 
L 176.62359 115.09897 
L 176.789147 114.99095 
L 176.895402 114.908346 
L 176.900204 114.908346 
L 177.094791 114.800327 
L 177.204047 114.701838 
L 177.205891 114.701838 
L 177.359871 114.593818 
L 177.471914 114.520746 
L 177.674648 114.412726 
L 177.674648 114.411137 
L 177.790036 114.3333 
L 177.981149 114.223691 
L 178.08779 114.139499 
L 178.092228 114.139499 
L 178.242069 114.031479 
L 178.354027 113.964761 
L 178.521385 113.856741 
L 178.521385 113.855153 
L 178.63553 113.742367 
L 178.776002 113.637525 
L 178.776002 113.634347 
L 178.88826 113.542213 
L 179.030277 113.434193 
L 179.140948 113.348413 
L 179.141334 113.348413 
L 179.307105 113.240393 
L 179.411345 113.157789 
L 179.418034 113.157789 
L 179.570084 113.049769 
L 179.679212 112.957635 
L 179.681099 112.957635 
L 179.820371 112.852792 
L 179.921823 112.792428 
L 179.931471 112.792428 
L 180.056293 112.684408 
L 180.165592 112.620867 
L 180.167393 112.620867 
L 180.324117 112.512847 
L 180.434188 112.45566 
L 180.435217 112.45566 
L 180.592112 112.34764 
L 180.703984 112.280922 
L 180.886822 112.172902 
L 180.99998 112.096653 
L 181.165773 111.987045 
L 181.280411 111.899676 
L 181.472853 111.791656 
L 181.579151 111.702698 
L 181.583953 111.702698 
L 181.830424 111.594678 
L 181.935907 111.531137 
L 181.941352 111.531137 
L 182.075222 111.423117 
L 182.187051 111.365931 
L 182.302396 111.257911 
L 182.405178 111.178484 
L 182.413453 111.178484 
L 182.662368 111.070464 
L 182.774197 111.003746 
L 182.961065 110.895726 
L 183.071522 110.848071 
L 183.071865 110.848071 
L 183.252001 110.740051 
L 183.360529 110.682864 
L 183.363058 110.682864 
L 183.56026 110.574844 
L 183.56026 110.573255 
L 183.674019 110.476355 
L 183.921776 110.368335 
L 184.030175 110.285732 
L 184.032833 110.285732 
L 184.206623 110.177712 
L 184.307561 110.10464 
L 184.317637 110.10464 
L 184.489541 109.99662 
L 184.597768 109.939433 
L 184.600598 109.939433 
L 184.811007 109.831413 
L 184.921721 109.751987 
L 184.922064 109.751987 
L 185.071413 109.643967 
L 185.176596 109.574072 
L 185.18247 109.574072 
L 185.361448 109.466052 
L 185.471477 109.367563 
L 185.472506 109.367563 
L 185.66126 109.259543 
L 185.756967 109.173763 
L 185.772018 109.173763 
L 186.007768 109.065743 
L 186.007768 109.064154 
L 186.120798 108.986317 
L 186.355562 108.878297 
L 186.466448 108.814756 
L 186.466641 108.814756 
L 186.618198 108.706736 
L 186.729641 108.652726 
L 186.912607 108.544706 
L 187.014017 108.487519 
L 187.023707 108.487519 
L 187.189264 108.379499 
L 187.296248 108.309604 
L 187.300365 108.309604 
L 187.487147 108.201584 
L 187.593616 108.125335 
L 187.598076 108.125335 
L 187.794634 108.017315 
L 187.906378 107.969659 
L 188.120431 107.861639 
L 188.231531 107.779036 
L 188.371575 107.671016 
L 188.472427 107.626537 
L 188.48259 107.626537 
L 188.700202 107.516929 
L 188.806114 107.432737 
L 188.811045 107.432737 
L 188.973515 107.324717 
L 189.085173 107.264353 
L 189.294852 107.156333 
L 189.403337 107.086438 
L 189.405953 107.086438 
L 189.667345 106.978418 
L 189.776944 106.927585 
L 189.778445 106.927585 
L 189.949534 106.819565 
L 190.062864 106.736962 
L 190.233437 106.628942 
L 190.344924 106.562224 
L 190.524845 106.454204 
L 190.634359 106.365247 
L 190.63586 106.365247 
L 190.789282 106.257227 
L 190.894465 106.203217 
L 190.900339 106.203217 
L 191.036138 106.095197 
L 191.143465 106.028479 
L 191.147195 106.028479 
L 191.331748 105.920459 
L 191.442719 105.834678 
L 191.676026 105.726659 
L 191.676026 105.72507 
L 191.788069 105.679003 
L 191.994748 105.570983 
L 192.105162 105.501088 
L 192.105848 105.501088 
L 192.299019 105.393068 
L 192.40373 105.319996 
L 192.410119 105.319996 
L 192.59986 105.211976 
L 192.711689 105.142081 
L 192.928787 105.034061 
L 192.928787 105.032472 
L 193.041045 104.983228 
L 193.151931 104.875208 
L 193.255571 104.827552 
L 193.263032 104.827552 
L 193.471168 104.719532 
L 193.572877 104.652814 
L 193.582139 104.652814 
L 193.779899 104.544794 
L 193.894258 104.465368 
L 194.088844 104.357348 
L 194.197929 104.271568 
L 194.199944 104.271568 
L 194.408209 104.163548 
L 194.516265 104.103184 
L 194.519309 104.103184 
L 194.697687 103.995164 
L 194.806215 103.925269 
L 194.808745 103.925269 
L 195.026743 103.817249 
L 195.133598 103.769593 
L 195.137843 103.769593 
L 195.335131 103.661573 
L 195.447475 103.61074 
L 195.657326 103.50272 
L 195.765639 103.432825 
L 195.768426 103.432825 
L 196.002076 103.324805 
L 196.113948 103.258087 
L 196.317196 103.150067 
L 196.429239 103.076995 
L 196.61555 102.968975 
L 196.727336 102.918142 
L 196.948936 102.810122 
L 197.05755 102.762467 
L 197.059951 102.762467 
L 197.247805 102.654447 
L 197.358091 102.603614 
L 197.358648 102.603614 
L 197.545816 102.495594 
L 197.657217 102.451115 
L 197.887821 102.343095 
L 198.001023 102.266846 
L 198.168038 102.158826 
L 198.275064 102.11117 
L 198.279095 102.11117 
L 198.534999 102.003151 
L 198.646742 101.955495 
L 198.889996 101.847475 
L 198.996594 101.783934 
L 199.001097 101.783934 
L 199.299151 101.675914 
L 199.412266 101.602842 
L 199.722584 101.494822 
L 199.835549 101.450343 
L 200.112442 101.342323 
L 200.223843 101.29149 
L 200.439483 101.181882 
L 200.538298 101.135815 
L 200.550583 101.135815 
L 200.777586 101.027795 
L 200.886971 100.973785 
L 200.888686 100.973785 
L 201.162428 100.865765 
L 201.2743 100.805401 
L 201.425793 100.697381 
L 201.538394 100.643371 
L 201.81295 100.535351 
L 201.920491 100.481341 
L 201.924007 100.481341 
L 202.243758 100.373322 
L 202.355502 100.325666 
L 202.596012 100.217646 
L 202.69592 100.163636 
L 202.707112 100.163636 
L 202.970519 100.055616 
L 203.083206 99.995252 
L 203.295416 99.885644 
L 203.40047 99.833222 
L 203.406216 99.833222 
L 203.640466 99.725202 
L 203.738531 99.687078 
L 203.751566 99.687078 
L 203.982985 99.579058 
L 204.084138 99.531402 
L 204.094086 99.531402 
L 204.430602 99.423382 
L 204.541403 99.343956 
L 204.541617 99.343956 
L 204.831438 99.235936 
L 204.925129 99.194634 
L 204.942496 99.194634 
L 205.191753 99.086614 
L 205.299594 99.023073 
L 205.302789 99.023073 
L 205.541562 98.915054 
L 205.643143 98.861044 
L 205.652555 98.861044 
L 205.887555 98.753024 
L 205.995954 98.673597 
L 205.998613 98.673597 
L 206.1953 98.565577 
L 206.3052 98.514745 
L 206.3064 98.514745 
L 206.535676 98.406725 
L 206.641502 98.333653 
L 206.646733 98.333653 
L 206.868505 98.225633 
L 206.978448 98.184331 
L 206.979605 98.184331 
L 207.258557 98.076311 
L 207.369807 98.038186 
L 207.571104 97.930167 
L 207.68274 97.847563 
L 207.902454 97.739543 
L 208.013811 97.679179 
L 208.263755 97.571159 
L 208.375498 97.523504 
L 208.618795 97.415484 
L 208.730239 97.364651 
L 208.939618 97.256631 
L 209.051147 97.189913 
L 209.35409 97.081893 
L 209.45923 97.0533 
L 209.46519 97.0533 
L 209.672383 96.94528 
L 209.771048 96.916686 
L 209.783483 96.916686 
L 209.999294 96.808666 
L 210.111295 96.776896 
L 210.339456 96.668876 
L 210.4518 96.608512 
L 210.740806 96.500492 
L 210.849762 96.446482 
L 210.851821 96.446482 
L 211.188037 96.338462 
L 211.300896 96.274921 
L 211.623176 96.166901 
L 211.735777 96.112891 
L 211.99777 96.004871 
L 212.102481 95.976278 
L 212.108827 95.976278 
L 212.369919 95.868258 
L 212.482349 95.836488 
L 212.738853 95.728468 
L 212.846995 95.664927 
L 212.849867 95.664927 
L 213.091707 95.556907 
L 213.204051 95.464772 
L 213.495415 95.356752 
L 213.606987 95.315451 
L 213.893164 95.207431 
L 213.999419 95.159775 
L 214.004264 95.159775 
L 214.234226 95.051755 
L 214.34524 95.016808 
L 214.607747 94.908788 
L 214.719491 94.857955 
L 214.949152 94.749935 
L 215.050176 94.689571 
L 215.060253 94.689571 
L 215.342527 94.581551 
L 215.453413 94.543426 
L 215.453584 94.543426 
L 215.746622 94.435407 
L 215.853305 94.375042 
L 215.857636 94.375042 
L 216.142398 94.267023 
L 216.254012 94.228898 
L 216.487619 94.120878 
L 216.594517 94.089108 
L 216.598676 94.089108 
L 216.89047 93.981088 
L 216.997111 93.923901 
L 217.001441 93.923901 
L 217.207219 93.815881 
L 217.320206 93.745986 
L 217.670659 93.637966 
L 217.779915 93.596664 
L 217.781716 93.596664 
L 218.011978 93.488644 
L 218.09868 93.453697 
L 218.123078 93.453697 
L 218.37225 93.345677 
L 218.482793 93.291667 
L 218.483307 93.291667 
L 218.763052 93.183647 
L 218.858115 93.135991 
L 218.874109 93.135991 
L 219.18477 93.027971 
L 219.296256 92.98667 
L 219.541826 92.87865 
L 219.653826 92.808755 
L 219.964487 92.700735 
L 220.075952 92.646725 
L 220.35739 92.538705 
L 220.469648 92.487872 
L 220.779279 92.379852 
L 220.890851 92.344905 
L 221.147741 92.235296 
L 221.254725 92.186052 
L 221.258799 92.186052 
L 221.496093 92.078032 
L 221.606807 92.03673 
L 221.607193 92.03673 
L 221.867706 91.92871 
L 221.978956 91.906471 
L 222.252827 91.798451 
L 222.360625 91.731733 
L 222.363884 91.731733 
L 222.624076 91.622125 
L 222.724284 91.576057 
L 222.735133 91.576057 
L 223.033144 91.468038 
L 223.141457 91.417205 
L 223.14403 91.417205 
L 223.484149 91.309185 
L 223.588088 91.261529 
L 223.595206 91.261529 
L 223.846307 91.153509 
L 223.95968 91.099499 
L 224.204049 90.991479 
L 224.31605 90.959709 
L 224.678123 90.851689 
L 224.77458 90.810387 
L 224.789009 90.810387 
L 225.17668 90.702367 
L 225.288124 90.676951 
L 225.550674 90.568931 
L 225.659887 90.527629 
L 225.661688 90.527629 
L 225.944563 90.419609 
L 226.056263 90.371954 
L 226.287426 90.263934 
L 226.396596 90.216278 
L 226.39844 90.216278 
L 226.643453 90.108258 
L 226.643453 90.10667 
L 226.756311 90.038363 
L 227.020319 89.930343 
L 227.131162 89.889041 
L 227.131333 89.889041 
L 227.441308 89.781022 
L 227.551679 89.723835 
L 227.552322 89.723835 
L 227.830523 89.615815 
L 227.926487 89.584044 
L 227.941623 89.584044 
L 228.216094 89.476024 
L 228.32252 89.422014 
L 228.327194 89.422014 
L 228.64866 89.313994 
L 228.75037 89.27587 
L 228.759739 89.27587 
L 229.050825 89.16785 
L 229.162697 89.107486 
L 229.437639 88.999466 
L 229.549554 88.967696 
L 229.932359 88.859676 
L 230.044982 88.827905 
L 230.302472 88.719885 
L 230.414044 88.681761 
L 230.668618 88.573741 
L 230.668618 88.572152 
L 230.781005 88.526085 
L 231.09947 88.418065 
L 231.199507 88.386295 
L 231.210527 88.386295 
L 231.527898 88.278275 
L 231.639234 88.24015 
L 232.0426 88.13213 
L 232.154215 88.094006 
L 232.565106 87.985986 
L 232.676485 87.935153 
L 233.016646 87.827133 
L 233.128304 87.785831 
L 233.448226 87.677811 
L 233.557311 87.63651 
L 233.559326 87.63651 
L 233.891555 87.52849 
L 234.003899 87.480834 
L 234.403963 87.372814 
L 234.478573 87.334689 
L 234.515063 87.334689 
L 234.819228 87.22667 
L 234.930606 87.182191 
L 235.228961 87.074171 
L 235.322223 87.026515 
L 235.340061 87.026515 
L 235.693729 86.918495 
L 235.792052 86.877194 
L 235.80483 86.877194 
L 235.991569 86.769174 
L 236.089934 86.74058 
L 236.102669 86.74058 
L 236.348625 86.63256 
L 236.457024 86.597613 
L 236.459682 86.597613 
L 236.745837 86.489593 
L 236.857045 86.460999 
L 237.194505 86.351391 
L 237.306677 86.321209 
L 237.623963 86.213189 
L 237.735342 86.16871 
L 238.082964 86.060691 
L 238.159589 86.02892 
L 238.194043 86.02892 
L 238.518704 85.9209 
L 238.63019 85.885953 
L 239.015675 85.777933 
L 239.015675 85.776344 
L 239.127032 85.749339 
L 239.559513 85.641319 
L 239.667483 85.593664 
L 239.670527 85.593664 
L 240.049023 85.485644 
L 240.159094 85.447519 
L 240.159995 85.447519 
L 240.452946 85.339499 
L 240.565011 85.304552 
L 240.810345 85.194943 
L 240.901764 85.171115 
L 240.921445 85.171115 
L 241.313662 85.063095 
L 241.426392 85.002731 
L 241.779203 84.894712 
L 241.887473 84.847056 
L 241.890089 84.847056 
L 242.160121 84.739036 
L 242.271822 84.707265 
L 242.60941 84.599245 
L 242.722076 84.548413 
L 243.056791 84.440393 
L 243.158544 84.408622 
L 243.167892 84.408622 
L 243.435158 84.300602 
L 243.539141 84.246592 
L 243.546216 84.246592 
L 243.886206 84.138573 
L 243.996234 84.106802 
L 243.997263 84.106802 
L 244.332494 83.998782 
L 244.446467 83.947949 
L 244.803094 83.839929 
L 244.914709 83.801805 
L 245.287501 83.693785 
L 245.398473 83.649306 
L 245.681734 83.541286 
L 245.793434 83.496808 
L 246.034159 83.388788 
L 246.133038 83.347486 
L 246.145259 83.347486 
L 246.460164 83.239466 
L 246.548239 83.188633 
L 246.571222 83.188633 
L 246.983378 83.080613 
L 247.094628 83.05202 
L 247.463497 82.944 
L 247.575069 82.902698 
L 247.861117 82.794678 
L 247.965142 82.7502 
L 247.972132 82.7502 
L 248.371938 82.64218 
L 248.483467 82.610409 
L 248.813638 82.502389 
L 248.925467 82.476973 
L 249.189689 82.368953 
L 249.301304 82.349891 
L 249.694207 82.241871 
L 249.797203 82.216454 
L 249.805093 82.216454 
L 250.166523 82.108435 
L 250.265145 82.067133 
L 250.277366 82.067133 
L 250.642955 81.959113 
L 250.642955 81.957525 
L 250.754398 81.946405 
L 251.106716 81.838385 
L 251.217966 81.812969 
L 251.556627 81.704949 
L 251.668199 81.663647 
L 252.012862 81.555627 
L 252.124349 81.523857 
L 252.425318 81.415837 
L 252.523341 81.396774 
L 252.536419 81.396774 
L 252.881854 81.288755 
L 252.988752 81.241099 
L 252.992912 81.241099 
L 253.332216 81.133079 
L 253.444302 81.098131 
L 253.873824 80.990111 
L 253.980122 80.955164 
L 253.984882 80.955164 
L 254.369552 80.847144 
L 254.480781 80.812196 
L 254.784023 80.704177 
L 254.88316 80.672406 
L 254.895123 80.672406 
L 255.299561 80.564386 
L 255.411819 80.523084 
L 255.792115 80.415065 
L 255.886064 80.396002 
L 255.903173 80.396002 
L 256.217478 80.287982 
L 256.329393 80.246681 
L 256.761745 80.138661 
L 256.873231 80.10689 
L 257.222569 79.99887 
L 257.332447 79.951215 
L 257.333669 79.951215 
L 257.717396 79.843195 
L 257.818248 79.798716 
L 257.828368 79.798716 
L 258.131996 79.690696 
L 258.219984 79.658926 
L 258.243096 79.658926 
L 258.576397 79.550906 
L 258.687283 79.509604 
L 259.075083 79.399996 
L 259.181853 79.357105 
L 259.186184 79.357105 
L 259.556232 79.249085 
L 259.645914 79.226846 
L 259.667332 79.226846 
L 260.046471 79.118826 
L 260.133773 79.074347 
L 260.157228 79.074347 
L 260.636662 78.966328 
L 260.740773 78.934557 
L 260.747762 78.934557 
L 261.158803 78.826537 
L 261.266473 78.797944 
L 261.269818 78.797944 
L 261.675927 78.689924 
L 261.774014 78.651799 
L 261.786942 78.651799 
L 262.313585 78.543779 
L 262.421084 78.502478 
L 262.424643 78.502478 
L 262.884952 78.394458 
L 262.994895 78.346802 
L 262.995967 78.346802 
L 263.45113 78.238782 
L 263.560516 78.194303 
L 263.562231 78.194303 
L 263.989437 78.086284 
L 264.099337 78.060867 
L 264.10028 78.060867 
L 264.612216 77.952847 
L 264.723274 77.914723 
L 265.103184 77.806703 
L 265.21154 77.752693 
L 265.214242 77.752693 
L 265.762754 77.644673 
L 265.872096 77.616079 
L 265.873811 77.616079 
L 266.317998 77.50806 
L 266.429655 77.466758 
L 266.844941 77.358738 
L 266.956428 77.330145 
L 267.453656 77.222125 
L 267.565271 77.184 
L 267.938063 77.074392 
L 268.04136 77.037855 
L 268.049078 77.037855 
L 268.533614 76.929836 
L 268.645057 76.904419 
L 268.954603 76.796399 
L 269.047051 76.755098 
L 269.065575 76.755098 
L 269.473743 76.647078 
L 269.585229 76.615307 
L 270.114702 76.507287 
L 270.226189 76.478694 
L 270.662271 76.370674 
L 270.753904 76.335726 
L 270.773371 76.335726 
L 271.197705 76.227707 
L 271.308977 76.205467 
L 271.647637 76.097447 
L 271.758866 76.072031 
L 272.091738 75.964011 
L 272.196021 75.935418 
L 272.202796 75.935418 
L 272.598743 75.827398 
L 272.710187 75.798804 
L 273.152615 75.690784 
L 273.262515 75.643129 
L 273.263673 75.643129 
L 273.560612 75.535109 
L 273.672784 75.493807 
L 274.090986 75.385787 
L 274.202043 75.350839 
L 274.202086 75.350839 
L 274.697942 75.24282 
L 274.763033 75.223757 
L 274.809043 75.223757 
L 275.358198 75.115737 
L 275.443056 75.096675 
L 275.469255 75.096675 
L 276.190228 74.988655 
L 276.297898 74.944177 
L 276.301285 74.944177 
L 276.643934 74.836157 
L 276.755334 74.807563 
L 277.184727 74.699543 
L 277.296256 74.667773 
L 277.805577 74.559753 
L 277.917578 74.527982 
L 278.259154 74.419962 
L 278.370512 74.397723 
L 278.984672 74.289703 
L 279.095129 74.264287 
L 279.095686 74.264287 
L 279.477312 74.156267 
L 279.561141 74.143559 
L 279.588412 74.143559 
L 280.099233 74.035539 
L 280.210763 74.003768 
L 280.736463 73.895748 
L 280.837444 73.860801 
L 280.84752 73.860801 
L 281.216025 73.752781 
L 281.327554 73.72101 
L 281.774871 73.612991 
L 281.885628 73.58122 
L 281.885928 73.58122 
L 282.530576 73.4732 
L 282.630141 73.428721 
L 282.641633 73.428721 
L 283.071069 73.320702 
L 283.18307 73.288931 
L 283.698694 73.180911 
L 283.799546 73.145964 
L 283.809537 73.145964 
L 284.346042 73.037944 
L 284.346042 73.036355 
L 284.457872 73.00935 
L 284.881948 72.90133 
L 284.955336 72.879091 
L 284.993005 72.879091 
L 285.444481 72.771071 
L 285.528653 72.742478 
L 285.555582 72.742478 
L 285.964093 72.634458 
L 286.045606 72.612218 
L 286.075064 72.612218 
L 286.575509 72.504199 
L 286.686909 72.478782 
L 287.15528 72.370762 
L 287.26132 72.319929 
L 287.26638 72.319929 
L 287.697188 72.21191 
L 287.797354 72.18967 
L 287.808074 72.18967 
L 288.264567 72.08165 
L 288.375968 72.056234 
L 289.101314 71.948214 
L 289.187115 71.913266 
L 289.212414 71.913266 
L 289.665991 71.805247 
L 289.767058 71.770299 
L 289.776834 71.770299 
L 290.246234 71.662279 
L 290.357592 71.636863 
L 290.805809 71.528843 
L 290.805809 71.527254 
L 290.917467 71.503426 
L 291.33747 71.395407 
L 291.435835 71.357282 
L 291.448527 71.357282 
L 291.920757 71.249262 
L 292.026068 71.220669 
L 292.031728 71.220669 
L 292.58157 71.112649 
L 292.673074 71.077701 
L 292.69267 71.077701 
L 293.115974 70.969681 
L 293.214254 70.950619 
L 293.226989 70.950619 
L 293.67765 70.842599 
L 293.67765 70.84101 
L 293.78978 70.801297 
L 294.169047 70.693277 
L 294.280576 70.655153 
L 294.734325 70.547133 
L 294.845682 70.528071 
L 295.403928 70.420051 
L 295.481668 70.397811 
L 295.514857 70.397811 
L 295.872727 70.289792 
L 295.956942 70.270729 
L 295.983828 70.270729 
L 296.502367 70.162709 
L 296.613853 70.124585 
L 297.006328 70.016565 
L 297.117771 69.991148 
L 297.551666 69.883129 
L 297.64197 69.851358 
L 297.662724 69.851358 
L 298.080283 69.743338 
L 298.186109 69.708391 
L 298.191168 69.708391 
L 298.729732 69.600371 
L 298.774284 69.581308 
L 298.840833 69.581308 
L 299.555888 69.473288 
L 299.638816 69.447872 
L 299.666645 69.447872 
L 300.183426 69.339852 
L 300.291568 69.311259 
L 300.294484 69.311259 
L 300.921894 69.203239 
L 301.022489 69.174645 
L 301.032265 69.174645 
L 301.562168 69.066625 
L 301.673268 69.034855 
L 302.196867 68.926835 
L 302.308696 68.901419 
L 302.814072 68.793399 
L 302.925729 68.771159 
L 303.4492 68.66314 
L 303.54898 68.6409 
L 303.560171 68.6409 
L 304.049639 68.53288 
L 304.125878 68.513818 
L 304.160482 68.513818 
L 304.608313 68.405798 
L 304.686482 68.374028 
L 304.71907 68.374028 
L 305.304244 68.266008 
L 305.406597 68.240591 
L 305.415302 68.240591 
L 306.088635 68.130983 
L 306.189745 68.110332 
L 306.199693 68.110332 
L 306.790055 68.002312 
L 306.899654 67.967365 
L 306.900512 67.967365 
L 307.549447 67.859345 
L 307.646397 67.837105 
L 307.660547 67.837105 
L 308.183203 67.729085 
L 308.290402 67.706846 
L 308.294218 67.706846 
L 308.936421 67.598826 
L 309.001255 67.586118 
L 309.047393 67.586118 
L 309.806356 67.478098 
L 309.917714 67.459036 
L 310.886743 67.351016 
L 310.980049 67.335131 
L 310.997801 67.335131 
L 311.426679 67.227111 
L 311.527489 67.208049 
L 311.537694 67.208049 
L 312.197906 67.100029 
L 312.275304 67.071435 
L 312.308964 67.071435 
L 313.14704 66.963415 
L 313.236014 66.941176 
L 313.258097 66.941176 
L 313.982071 66.833156 
L 314.093386 66.814094 
L 314.710033 66.706074 
L 314.821734 66.683835 
L 315.49511 66.575815 
L 315.606211 66.566284 
L 316.162827 66.458264 
L 316.258748 66.445555 
L 316.273798 66.445555 
L 316.981436 66.337536 
L 317.077571 66.318473 
L 317.092407 66.318473 
L 317.678867 66.210453 
L 317.790311 66.185037 
L 318.291784 66.077017 
L 318.294871 66.067486 
L 318.402413 66.067486 
L 318.880817 65.959466 
L 318.984585 65.940404 
L 318.991574 65.940404 
L 319.622972 65.832384 
L 319.734244 65.819676 
L 320.428417 65.711656 
L 320.538059 65.667177 
L 320.539517 65.667177 
L 321.086185 65.559157 
L 321.126106 65.546449 
L 321.1972 65.546449 
L 321.980562 65.438429 
L 322.092005 65.403482 
L 322.683525 65.295462 
L 322.794797 65.273222 
L 323.62181 65.165202 
L 323.715501 65.14614 
L 323.732867 65.14614 
L 324.348614 65.03812 
L 324.44342 65.015881 
L 324.459714 65.015881 
L 325.259113 64.907861 
L 325.361895 64.891976 
L 325.370171 64.891976 
L 326.162151 64.783956 
L 326.273423 64.768071 
L 327.370233 64.660051 
L 327.481976 64.637811 
L 328.062262 64.529792 
L 328.15025 64.510729 
L 328.173276 64.510729 
L 328.833918 64.402709 
L 328.938372 64.38047 
L 328.944675 64.38047 
L 329.532507 64.27245 
L 329.643736 64.259742 
L 330.292243 64.151722 
L 330.403472 64.126306 
L 331.086196 64.018286 
L 331.197596 63.996046 
L 331.896915 63.888026 
L 331.950342 63.875318 
L 332.007972 63.875318 
L 332.73066 63.767298 
L 332.821264 63.748236 
L 332.841717 63.748236 
L 333.415485 63.640216 
L 333.495112 63.627508 
L 333.526585 63.627508 
L 334.487725 63.519488 
L 334.592436 63.500426 
L 334.598654 63.500426 
L 335.418849 63.392406 
L 335.525833 63.373344 
L 335.529821 63.373344 
L 336.091668 63.265324 
L 336.157488 63.255793 
L 336.202683 63.255793 
L 336.99625 63.147773 
L 337.107564 63.131887 
L 338.02784 63.023868 
L 338.094989 62.998451 
L 338.138383 62.998451 
L 338.778742 62.890431 
L 338.833199 62.8809 
L 338.8898 62.8809 
L 339.649364 62.77288 
L 339.700261 62.760172 
L 339.760421 62.760172 
L 340.69043 62.652152 
L 340.774345 62.623559 
L 340.801273 62.623559 
L 341.400726 62.515539 
L 341.511869 62.496477 
L 342.36804 62.388457 
L 342.474381 62.369394 
L 342.479055 62.369394 
L 343.401345 62.261375 
L 343.512917 62.245489 
L 344.075622 62.137469 
L 344.186294 62.127938 
L 345.207936 62.019918 
L 345.319036 62.004033 
L 346.085976 61.89919 
L 346.192145 61.86742 
L 346.197033 61.86742 
L 347.168678 61.7594 
L 347.279821 61.749869 
L 348.040028 61.641849 
L 348.12613 61.625964 
L 348.151086 61.625964 
L 349.147729 61.517944 
L 349.259344 61.498881 
L 350.12036 61.390862 
L 350.17576 61.38133 
L 350.231075 61.38133 
L 351.057959 61.273311 
L 351.157482 61.263779 
L 351.168974 61.263779 
L 352.139632 61.15576 
L 352.20721 61.143051 
L 352.25069 61.143051 
L 352.864636 61.035031 
L 352.97595 61.019146 
L 353.883619 60.911126 
L 353.977697 60.898418 
L 353.994591 60.898418 
L 354.822162 60.790398 
L 354.932018 60.768159 
L 354.93309 60.768159 
L 356.185037 60.660139 
L 356.296309 60.644254 
L 357.358687 60.536234 
L 357.464727 60.513994 
L 357.469744 60.513994 
L 357.952565 60.405975 
L 358.032492 60.390089 
L 358.063537 60.390089 
L 358.901184 60.282069 
L 359.012327 60.272538 
L 359.825404 60.164518 
L 359.919567 60.142279 
L 359.936419 60.142279 
L 360.603878 60.034259 
L 360.65439 60.018374 
L 360.714935 60.018374 
L 361.552711 59.910354 
L 361.66454 59.894469 
L 362.494126 59.786449 
L 362.605569 59.757855 
L 363.562635 59.649836 
L 363.669233 59.630773 
L 363.673393 59.630773 
L 364.385103 59.522753 
L 364.496332 59.513222 
L 365.193893 59.405202 
L 365.275792 59.392494 
L 365.304993 59.392494 
L 366.330237 59.284474 
L 366.441509 59.268589 
L 367.468854 59.160569 
L 367.554098 59.141507 
L 367.579954 59.141507 
L 368.567979 59.033487 
L 368.679165 59.020779 
L 369.533535 58.912759 
L 369.64425 58.906405 
L 370.877973 58.798385 
L 370.989116 58.785677 
L 371.706015 58.677657 
L 371.817373 58.658595 
L 372.602535 58.550575 
L 372.711535 58.534689 
L 372.71355 58.534689 
L 373.753459 58.42667 
L 373.812032 58.420315 
L 373.86443 58.420315 
L 374.851598 58.312296 
L 374.851598 58.309119 
L 374.962698 58.309119 
L 375.895023 58.201099 
L 375.895023 58.197922 
L 376.00608 58.197922 
L 376.847929 58.089902 
L 376.856376 58.083548 
L 376.958644 58.083548 
L 377.709589 57.975528 
L 377.8149 57.956466 
L 377.820217 57.956466 
L 378.656878 57.848446 
L 378.716738 57.842092 
L 378.767936 57.842092 
L 380.177164 57.734072 
L 380.288607 57.721363 
L 381.369037 57.613344 
L 381.480009 57.591104 
L 382.408002 57.483084 
L 382.49732 57.470376 
L 382.518545 57.470376 
L 383.451256 57.362356 
L 383.527667 57.340117 
L 383.562185 57.340117 
L 384.750284 57.232097 
L 384.84196 57.219389 
L 384.861042 57.219389 
L 386.060933 57.111369 
L 386.162728 57.079598 
L 386.17199 57.079598 
L 387.058348 56.971579 
L 387.166404 56.95887 
L 387.169234 56.95887 
L 388.258154 56.850851 
L 388.290013 56.841319 
L 388.369212 56.841319 
L 389.215306 56.7333 
L 389.326149 56.71106 
L 390.575695 56.60304 
L 390.672216 56.587155 
L 390.686795 56.587155 
L 391.599995 56.479135 
L 391.707537 56.466427 
L 391.71101 56.466427 
L 392.885431 56.358407 
L 392.996874 56.332991 
L 393.909775 56.224971 
L 394.014786 56.21544 
L 394.020275 56.21544 
L 395.088098 56.10742 
L 395.177458 56.08518 
L 395.199155 56.08518 
L 396.314703 55.977161 
L 396.318005 55.970806 
L 396.425761 55.970806 
L 397.259549 55.862787 
L 397.350967 55.843724 
L 397.368505 55.843724 
L 398.305846 55.735704 
L 398.361504 55.726173 
L 398.416389 55.726173 
L 399.517187 55.618153 
L 399.61821 55.595914 
L 399.627858 55.595914 
L 400.86111 55.487894 
L 400.939836 55.475186 
L 400.972124 55.475186 
L 401.962465 55.367166 
L 402.062202 55.34175 
L 402.073007 55.34175 
L 403.066349 55.23373 
L 403.177321 55.221022 
L 404.485354 55.113002 
L 404.596154 55.100293 
L 405.793301 54.992274 
L 405.880003 54.970034 
L 405.904316 54.970034 
L 407.283186 54.862014 
L 407.38824 54.839775 
L 407.39227 54.839775 
L 408.592119 54.731755 
L 408.695844 54.722224 
L 408.702919 54.722224 
L 409.71114 54.614204 
L 409.820997 54.60785 
L 409.821426 54.60785 
L 410.863307 54.49983 
L 410.970548 54.477591 
L 410.972092 54.477591 
L 412.155175 54.369571 
L 412.229442 54.350509 
L 412.26576 54.350509 
L 413.967726 54.242489 
L 414.076039 54.226603 
L 414.077025 54.226603 
L 414.72 54.144 
L 414.72 54.144 
" clip-path="url(#pd037bde8cd)" style="fill: none; stroke: #ff8c00; stroke-width: 1.5; stroke-linecap: square"/>
   </g>
   <g id="line2d_14">
    <path d="M 74.605714 307.584 
L 414.72 54.144 
" clip-path="url(#pd037bde8cd)" style="fill: none; stroke-dasharray: 5.55,2.4; stroke-dashoffset: 0; stroke: #0000ff; stroke-width: 1.5"/>
   </g>
   <g id="patch_3">
    <path d="M 57.6 307.584 
L 57.6 41.472 
" style="fill: none; stroke: #000000; stroke-width: 0.8; stroke-linejoin: miter; stroke-linecap: square"/>
   </g>
   <g id="patch_4">
    <path d="M 414.72 307.584 
L 414.72 41.472 
" style="fill: none; stroke: #000000; stroke-width: 0.8; stroke-linejoin: miter; stroke-linecap: square"/>
   </g>
   <g id="patch_5">
    <path d="M 57.6 307.584 
L 414.72 307.584 
" style="fill: none; stroke: #000000; stroke-width: 0.8; stroke-linejoin: miter; stroke-linecap: square"/>
   </g>
   <g id="patch_6">
    <path d="M 57.6 41.472 
L 414.72 41.472 
" style="fill: none; stroke: #000000; stroke-width: 0.8; stroke-linejoin: miter; stroke-linecap: square"/>
   </g>
   <g id="text_15">
    <!-- ROC CURVE -->
    <g transform="translate(200.855625 35.472)scale(0.12 -0.12)">
     <defs>
      <path id="DejaVuSans-4f" d="M 2522 4238 
Q 1834 4238 1429 3725 
Q 1025 3213 1025 2328 
Q 1025 1447 1429 934 
Q 1834 422 2522 422 
Q 3209 422 3611 934 
Q 4013 1447 4013 2328 
Q 4013 3213 3611 3725 
Q 3209 4238 2522 4238 
z
M 2522 4750 
Q 3503 4750 4090 4092 
Q 4678 3434 4678 2328 
Q 4678 1225 4090 567 
Q 3503 -91 2522 -91 
Q 1538 -91 948 565 
Q 359 1222 359 2328 
Q 359 3434 948 4092 
Q 1538 4750 2522 4750 
z
" transform="scale(0.015625)"/>
      <path id="DejaVuSans-43" d="M 4122 4306 
L 4122 3641 
Q 3803 3938 3442 4084 
Q 3081 4231 2675 4231 
Q 1875 4231 1450 3742 
Q 1025 3253 1025 2328 
Q 1025 1406 1450 917 
Q 1875 428 2675 428 
Q 3081 428 3442 575 
Q 3803 722 4122 1019 
L 4122 359 
Q 3791 134 3420 21 
Q 3050 -91 2638 -91 
Q 1578 -91 968 557 
Q 359 1206 359 2328 
Q 359 3453 968 4101 
Q 1578 4750 2638 4750 
Q 3056 4750 3426 4639 
Q 3797 4528 4122 4306 
z
" transform="scale(0.015625)"/>
      <path id="DejaVuSans-55" d="M 556 4666 
L 1191 4666 
L 1191 1831 
Q 1191 1081 1462 751 
Q 1734 422 2344 422 
Q 2950 422 3222 751 
Q 3494 1081 3494 1831 
L 3494 4666 
L 4128 4666 
L 4128 1753 
Q 4128 841 3676 375 
Q 3225 -91 2344 -91 
Q 1459 -91 1007 375 
Q 556 841 556 1753 
L 556 4666 
z
" transform="scale(0.015625)"/>
      <path id="DejaVuSans-56" d="M 1831 0 
L 50 4666 
L 709 4666 
L 2188 738 
L 3669 4666 
L 4325 4666 
L 2547 0 
L 1831 0 
z
" transform="scale(0.015625)"/>
      <path id="DejaVuSans-45" d="M 628 4666 
L 3578 4666 
L 3578 4134 
L 1259 4134 
L 1259 2753 
L 3481 2753 
L 3481 2222 
L 1259 2222 
L 1259 531 
L 3634 531 
L 3634 0 
L 628 0 
L 628 4666 
z
" transform="scale(0.015625)"/>
     </defs>
     <use xlink:href="#DejaVuSans-52"/>
     <use xlink:href="#DejaVuSans-4f" x="69.482422"/>
     <use xlink:href="#DejaVuSans-43" x="148.193359"/>
     <use xlink:href="#DejaVuSans-20" x="218.017578"/>
     <use xlink:href="#DejaVuSans-43" x="249.804688"/>
     <use xlink:href="#DejaVuSans-55" x="319.628906"/>
     <use xlink:href="#DejaVuSans-52" x="392.822266"/>
     <use xlink:href="#DejaVuSans-56" x="456.804688"/>
     <use xlink:href="#DejaVuSans-45" x="525.212891"/>
    </g>
   </g>
   <g id="legend_1">
    <g id="patch_7">
     <path d="M 234.97 302.584 
L 407.72 302.584 
Q 409.72 302.584 409.72 300.584 
L 409.72 286.905875 
Q 409.72 284.905875 407.72 284.905875 
L 234.97 284.905875 
Q 232.97 284.905875 232.97 286.905875 
L 232.97 300.584 
Q 232.97 302.584 234.97 302.584 
z
" style="fill: #ffffff; opacity: 0.8; stroke: #cccccc; stroke-linejoin: miter"/>
    </g>
    <g id="line2d_15">
     <path d="M 236.97 293.004312 
L 246.97 293.004312 
L 256.97 293.004312 
" style="fill: none; stroke: #ff8c00; stroke-width: 1.5; stroke-linecap: square"/>
    </g>
    <g id="text_16">
     <!-- ROC curve (ROC AUC=0.80) -->
     <g transform="translate(264.97 296.504312)scale(0.1 -0.1)">
      <defs>
       <path id="DejaVuSans-63" d="M 3122 3366 
L 3122 2828 
Q 2878 2963 2633 3030 
Q 2388 3097 2138 3097 
Q 1578 3097 1268 2742 
Q 959 2388 959 1747 
Q 959 1106 1268 751 
Q 1578 397 2138 397 
Q 2388 397 2633 464 
Q 2878 531 3122 666 
L 3122 134 
Q 2881 22 2623 -34 
Q 2366 -91 2075 -91 
Q 1284 -91 818 406 
Q 353 903 353 1747 
Q 353 2603 823 3093 
Q 1294 3584 2113 3584 
Q 2378 3584 2631 3529 
Q 2884 3475 3122 3366 
z
" transform="scale(0.015625)"/>
       <path id="DejaVuSans-28" d="M 1984 4856 
Q 1566 4138 1362 3434 
Q 1159 2731 1159 2009 
Q 1159 1288 1364 580 
Q 1569 -128 1984 -844 
L 1484 -844 
Q 1016 -109 783 600 
Q 550 1309 550 2009 
Q 550 2706 781 3412 
Q 1013 4119 1484 4856 
L 1984 4856 
z
" transform="scale(0.015625)"/>
       <path id="DejaVuSans-41" d="M 2188 4044 
L 1331 1722 
L 3047 1722 
L 2188 4044 
z
M 1831 4666 
L 2547 4666 
L 4325 0 
L 3669 0 
L 3244 1197 
L 1141 1197 
L 716 0 
L 50 0 
L 1831 4666 
z
" transform="scale(0.015625)"/>
       <path id="DejaVuSans-3d" d="M 678 2906 
L 4684 2906 
L 4684 2381 
L 678 2381 
L 678 2906 
z
M 678 1631 
L 4684 1631 
L 4684 1100 
L 678 1100 
L 678 1631 
z
" transform="scale(0.015625)"/>
       <path id="DejaVuSans-29" d="M 513 4856 
L 1013 4856 
Q 1481 4119 1714 3412 
Q 1947 2706 1947 2009 
Q 1947 1309 1714 600 
Q 1481 -109 1013 -844 
L 513 -844 
Q 928 -128 1133 580 
Q 1338 1288 1338 2009 
Q 1338 2731 1133 3434 
Q 928 4138 513 4856 
z
" transform="scale(0.015625)"/>
      </defs>
      <use xlink:href="#DejaVuSans-52"/>
      <use xlink:href="#DejaVuSans-4f" x="69.482422"/>
      <use xlink:href="#DejaVuSans-43" x="148.193359"/>
      <use xlink:href="#DejaVuSans-20" x="218.017578"/>
      <use xlink:href="#DejaVuSans-63" x="249.804688"/>
      <use xlink:href="#DejaVuSans-75" x="304.785156"/>
      <use xlink:href="#DejaVuSans-72" x="368.164062"/>
      <use xlink:href="#DejaVuSans-76" x="409.277344"/>
      <use xlink:href="#DejaVuSans-65" x="468.457031"/>
      <use xlink:href="#DejaVuSans-20" x="529.980469"/>
      <use xlink:href="#DejaVuSans-28" x="561.767578"/>
      <use xlink:href="#DejaVuSans-52" x="600.78125"/>
      <use xlink:href="#DejaVuSans-4f" x="670.263672"/>
      <use xlink:href="#DejaVuSans-43" x="748.974609"/>
      <use xlink:href="#DejaVuSans-20" x="818.798828"/>
      <use xlink:href="#DejaVuSans-41" x="850.585938"/>
      <use xlink:href="#DejaVuSans-55" x="918.994141"/>
      <use xlink:href="#DejaVuSans-43" x="992.1875"/>
      <use xlink:href="#DejaVuSans-3d" x="1062.011719"/>
      <use xlink:href="#DejaVuSans-30" x="1145.800781"/>
      <use xlink:href="#DejaVuSans-2e" x="1209.423828"/>
      <use xlink:href="#DejaVuSans-38" x="1241.210938"/>
      <use xlink:href="#DejaVuSans-30" x="1304.833984"/>
      <use xlink:href="#DejaVuSans-29" x="1368.457031"/>
     </g>
    </g>
   </g>
  </g>
 </g>
 <defs>
  <clipPath id="pd037bde8cd">
   <rect x="57.6" y="41.472" width="357.12" height="266.112"/>
  </clipPath>
 </defs>
</svg>
