<?xml version="1.0" encoding="utf-8" standalone="no"?>
<!DOCTYPE svg PUBLIC "-//W3C//DTD SVG 1.1//EN"
  "http://www.w3.org/Graphics/SVG/1.1/DTD/svg11.dtd">
<svg xmlns:xlink="http://www.w3.org/1999/xlink" width="460.8pt" height="345.6pt" viewBox="0 0 460.8 345.6" xmlns="http://www.w3.org/2000/svg" version="1.1">
 <metadata>
  <rdf:RDF xmlns:dc="http://purl.org/dc/elements/1.1/" xmlns:cc="http://creativecommons.org/ns#" xmlns:rdf="http://www.w3.org/1999/02/22-rdf-syntax-ns#">
   <cc:Work>
    <dc:type rdf:resource="http://purl.org/dc/dcmitype/StillImage"/>
    <dc:date>2022-05-27T12:32:29.605427</dc:date>
    <dc:format>image/svg+xml</dc:format>
    <dc:creator>
     <cc:Agent>
      <dc:title>Matplotlib v3.5.1, https://matplotlib.org/</dc:title>
     </cc:Agent>
    </dc:creator>
   </cc:Work>
  </rdf:RDF>
 </metadata>
 <defs>
  <style type="text/css">*{stroke-linejoin: round; stroke-linecap: butt}</style>
 </defs>
 <g id="figure_1">
  <g id="patch_1">
   <path d="M 0 345.6 
L 460.8 345.6 
L 460.8 0 
L 0 0 
z
" style="fill: #ffffff"/>
  </g>
  <g id="axes_1">
   <g id="patch_2">
    <path d="M 57.6 307.584 
L 414.72 307.584 
L 414.72 41.472 
L 57.6 41.472 
z
" style="fill: #ffffff"/>
   </g>
   <g id="matplotlib.axis_1">
    <g id="xtick_1">
     <g id="line2d_1">
      <defs>
       <path id="mdef863a041" d="M 0 0 
L 0 3.5 
" style="stroke: #000000; stroke-width: 0.8"/>
      </defs>
      <g>
       <use xlink:href="#mdef863a041" x="74.605714" y="307.584" style="stroke: #000000; stroke-width: 0.8"/>
      </g>
     </g>
     <g id="text_1">
      <!-- 0.0 -->
      <g transform="translate(66.654152 322.182437)scale(0.1 -0.1)">
       <defs>
        <path id="DejaVuSans-30" d="M 2034 4250 
Q 1547 4250 1301 3770 
Q 1056 3291 1056 2328 
Q 1056 1369 1301 889 
Q 1547 409 2034 409 
Q 2525 409 2770 889 
Q 3016 1369 3016 2328 
Q 3016 3291 2770 3770 
Q 2525 4250 2034 4250 
z
M 2034 4750 
Q 2819 4750 3233 4129 
Q 3647 3509 3647 2328 
Q 3647 1150 3233 529 
Q 2819 -91 2034 -91 
Q 1250 -91 836 529 
Q 422 1150 422 2328 
Q 422 3509 836 4129 
Q 1250 4750 2034 4750 
z
" transform="scale(0.015625)"/>
        <path id="DejaVuSans-2e" d="M 684 794 
L 1344 794 
L 1344 0 
L 684 0 
L 684 794 
z
" transform="scale(0.015625)"/>
       </defs>
       <use xlink:href="#DejaVuSans-30"/>
       <use xlink:href="#DejaVuSans-2e" x="63.623047"/>
       <use xlink:href="#DejaVuSans-30" x="95.410156"/>
      </g>
     </g>
    </g>
    <g id="xtick_2">
     <g id="line2d_2">
      <g>
       <use xlink:href="#mdef863a041" x="142.628571" y="307.584" style="stroke: #000000; stroke-width: 0.8"/>
      </g>
     </g>
     <g id="text_2">
      <!-- 0.2 -->
      <g transform="translate(134.677009 322.182437)scale(0.1 -0.1)">
       <defs>
        <path id="DejaVuSans-32" d="M 1228 531 
L 3431 531 
L 3431 0 
L 469 0 
L 469 531 
Q 828 903 1448 1529 
Q 2069 2156 2228 2338 
Q 2531 2678 2651 2914 
Q 2772 3150 2772 3378 
Q 2772 3750 2511 3984 
Q 2250 4219 1831 4219 
Q 1534 4219 1204 4116 
Q 875 4013 500 3803 
L 500 4441 
Q 881 4594 1212 4672 
Q 1544 4750 1819 4750 
Q 2544 4750 2975 4387 
Q 3406 4025 3406 3419 
Q 3406 3131 3298 2873 
Q 3191 2616 2906 2266 
Q 2828 2175 2409 1742 
Q 1991 1309 1228 531 
z
" transform="scale(0.015625)"/>
       </defs>
       <use xlink:href="#DejaVuSans-30"/>
       <use xlink:href="#DejaVuSans-2e" x="63.623047"/>
       <use xlink:href="#DejaVuSans-32" x="95.410156"/>
      </g>
     </g>
    </g>
    <g id="xtick_3">
     <g id="line2d_3">
      <g>
       <use xlink:href="#mdef863a041" x="210.651429" y="307.584" style="stroke: #000000; stroke-width: 0.8"/>
      </g>
     </g>
     <g id="text_3">
      <!-- 0.4 -->
      <g transform="translate(202.699866 322.182437)scale(0.1 -0.1)">
       <defs>
        <path id="DejaVuSans-34" d="M 2419 4116 
L 825 1625 
L 2419 1625 
L 2419 4116 
z
M 2253 4666 
L 3047 4666 
L 3047 1625 
L 3713 1625 
L 3713 1100 
L 3047 1100 
L 3047 0 
L 2419 0 
L 2419 1100 
L 313 1100 
L 313 1709 
L 2253 4666 
z
" transform="scale(0.015625)"/>
       </defs>
       <use xlink:href="#DejaVuSans-30"/>
       <use xlink:href="#DejaVuSans-2e" x="63.623047"/>
       <use xlink:href="#DejaVuSans-34" x="95.410156"/>
      </g>
     </g>
    </g>
    <g id="xtick_4">
     <g id="line2d_4">
      <g>
       <use xlink:href="#mdef863a041" x="278.674286" y="307.584" style="stroke: #000000; stroke-width: 0.8"/>
      </g>
     </g>
     <g id="text_4">
      <!-- 0.6 -->
      <g transform="translate(270.722723 322.182437)scale(0.1 -0.1)">
       <defs>
        <path id="DejaVuSans-36" d="M 2113 2584 
Q 1688 2584 1439 2293 
Q 1191 2003 1191 1497 
Q 1191 994 1439 701 
Q 1688 409 2113 409 
Q 2538 409 2786 701 
Q 3034 994 3034 1497 
Q 3034 2003 2786 2293 
Q 2538 2584 2113 2584 
z
M 3366 4563 
L 3366 3988 
Q 3128 4100 2886 4159 
Q 2644 4219 2406 4219 
Q 1781 4219 1451 3797 
Q 1122 3375 1075 2522 
Q 1259 2794 1537 2939 
Q 1816 3084 2150 3084 
Q 2853 3084 3261 2657 
Q 3669 2231 3669 1497 
Q 3669 778 3244 343 
Q 2819 -91 2113 -91 
Q 1303 -91 875 529 
Q 447 1150 447 2328 
Q 447 3434 972 4092 
Q 1497 4750 2381 4750 
Q 2619 4750 2861 4703 
Q 3103 4656 3366 4563 
z
" transform="scale(0.015625)"/>
       </defs>
       <use xlink:href="#DejaVuSans-30"/>
       <use xlink:href="#DejaVuSans-2e" x="63.623047"/>
       <use xlink:href="#DejaVuSans-36" x="95.410156"/>
      </g>
     </g>
    </g>
    <g id="xtick_5">
     <g id="line2d_5">
      <g>
       <use xlink:href="#mdef863a041" x="346.697143" y="307.584" style="stroke: #000000; stroke-width: 0.8"/>
      </g>
     </g>
     <g id="text_5">
      <!-- 0.8 -->
      <g transform="translate(338.74558 322.182437)scale(0.1 -0.1)">
       <defs>
        <path id="DejaVuSans-38" d="M 2034 2216 
Q 1584 2216 1326 1975 
Q 1069 1734 1069 1313 
Q 1069 891 1326 650 
Q 1584 409 2034 409 
Q 2484 409 2743 651 
Q 3003 894 3003 1313 
Q 3003 1734 2745 1975 
Q 2488 2216 2034 2216 
z
M 1403 2484 
Q 997 2584 770 2862 
Q 544 3141 544 3541 
Q 544 4100 942 4425 
Q 1341 4750 2034 4750 
Q 2731 4750 3128 4425 
Q 3525 4100 3525 3541 
Q 3525 3141 3298 2862 
Q 3072 2584 2669 2484 
Q 3125 2378 3379 2068 
Q 3634 1759 3634 1313 
Q 3634 634 3220 271 
Q 2806 -91 2034 -91 
Q 1263 -91 848 271 
Q 434 634 434 1313 
Q 434 1759 690 2068 
Q 947 2378 1403 2484 
z
M 1172 3481 
Q 1172 3119 1398 2916 
Q 1625 2713 2034 2713 
Q 2441 2713 2670 2916 
Q 2900 3119 2900 3481 
Q 2900 3844 2670 4047 
Q 2441 4250 2034 4250 
Q 1625 4250 1398 4047 
Q 1172 3844 1172 3481 
z
" transform="scale(0.015625)"/>
       </defs>
       <use xlink:href="#DejaVuSans-30"/>
       <use xlink:href="#DejaVuSans-2e" x="63.623047"/>
       <use xlink:href="#DejaVuSans-38" x="95.410156"/>
      </g>
     </g>
    </g>
    <g id="xtick_6">
     <g id="line2d_6">
      <g>
       <use xlink:href="#mdef863a041" x="414.72" y="307.584" style="stroke: #000000; stroke-width: 0.8"/>
      </g>
     </g>
     <g id="text_6">
      <!-- 1.0 -->
      <g transform="translate(406.768438 322.182437)scale(0.1 -0.1)">
       <defs>
        <path id="DejaVuSans-31" d="M 794 531 
L 1825 531 
L 1825 4091 
L 703 3866 
L 703 4441 
L 1819 4666 
L 2450 4666 
L 2450 531 
L 3481 531 
L 3481 0 
L 794 0 
L 794 531 
z
" transform="scale(0.015625)"/>
       </defs>
       <use xlink:href="#DejaVuSans-31"/>
       <use xlink:href="#DejaVuSans-2e" x="63.623047"/>
       <use xlink:href="#DejaVuSans-30" x="95.410156"/>
      </g>
     </g>
    </g>
    <g id="text_7">
     <!-- False Positive Rate -->
     <g transform="translate(189.693594 335.860562)scale(0.1 -0.1)">
      <defs>
       <path id="DejaVuSans-46" d="M 628 4666 
L 3309 4666 
L 3309 4134 
L 1259 4134 
L 1259 2759 
L 3109 2759 
L 3109 2228 
L 1259 2228 
L 1259 0 
L 628 0 
L 628 4666 
z
" transform="scale(0.015625)"/>
       <path id="DejaVuSans-61" d="M 2194 1759 
Q 1497 1759 1228 1600 
Q 959 1441 959 1056 
Q 959 750 1161 570 
Q 1363 391 1709 391 
Q 2188 391 2477 730 
Q 2766 1069 2766 1631 
L 2766 1759 
L 2194 1759 
z
M 3341 1997 
L 3341 0 
L 2766 0 
L 2766 531 
Q 2569 213 2275 61 
Q 1981 -91 1556 -91 
Q 1019 -91 701 211 
Q 384 513 384 1019 
Q 384 1609 779 1909 
Q 1175 2209 1959 2209 
L 2766 2209 
L 2766 2266 
Q 2766 2663 2505 2880 
Q 2244 3097 1772 3097 
Q 1472 3097 1187 3025 
Q 903 2953 641 2809 
L 641 3341 
Q 956 3463 1253 3523 
Q 1550 3584 1831 3584 
Q 2591 3584 2966 3190 
Q 3341 2797 3341 1997 
z
" transform="scale(0.015625)"/>
       <path id="DejaVuSans-6c" d="M 603 4863 
L 1178 4863 
L 1178 0 
L 603 0 
L 603 4863 
z
" transform="scale(0.015625)"/>
       <path id="DejaVuSans-73" d="M 2834 3397 
L 2834 2853 
Q 2591 2978 2328 3040 
Q 2066 3103 1784 3103 
Q 1356 3103 1142 2972 
Q 928 2841 928 2578 
Q 928 2378 1081 2264 
Q 1234 2150 1697 2047 
L 1894 2003 
Q 2506 1872 2764 1633 
Q 3022 1394 3022 966 
Q 3022 478 2636 193 
Q 2250 -91 1575 -91 
Q 1294 -91 989 -36 
Q 684 19 347 128 
L 347 722 
Q 666 556 975 473 
Q 1284 391 1588 391 
Q 1994 391 2212 530 
Q 2431 669 2431 922 
Q 2431 1156 2273 1281 
Q 2116 1406 1581 1522 
L 1381 1569 
Q 847 1681 609 1914 
Q 372 2147 372 2553 
Q 372 3047 722 3315 
Q 1072 3584 1716 3584 
Q 2034 3584 2315 3537 
Q 2597 3491 2834 3397 
z
" transform="scale(0.015625)"/>
       <path id="DejaVuSans-65" d="M 3597 1894 
L 3597 1613 
L 953 1613 
Q 991 1019 1311 708 
Q 1631 397 2203 397 
Q 2534 397 2845 478 
Q 3156 559 3463 722 
L 3463 178 
Q 3153 47 2828 -22 
Q 2503 -91 2169 -91 
Q 1331 -91 842 396 
Q 353 884 353 1716 
Q 353 2575 817 3079 
Q 1281 3584 2069 3584 
Q 2775 3584 3186 3129 
Q 3597 2675 3597 1894 
z
M 3022 2063 
Q 3016 2534 2758 2815 
Q 2500 3097 2075 3097 
Q 1594 3097 1305 2825 
Q 1016 2553 972 2059 
L 3022 2063 
z
" transform="scale(0.015625)"/>
       <path id="DejaVuSans-20" transform="scale(0.015625)"/>
       <path id="DejaVuSans-50" d="M 1259 4147 
L 1259 2394 
L 2053 2394 
Q 2494 2394 2734 2622 
Q 2975 2850 2975 3272 
Q 2975 3691 2734 3919 
Q 2494 4147 2053 4147 
L 1259 4147 
z
M 628 4666 
L 2053 4666 
Q 2838 4666 3239 4311 
Q 3641 3956 3641 3272 
Q 3641 2581 3239 2228 
Q 2838 1875 2053 1875 
L 1259 1875 
L 1259 0 
L 628 0 
L 628 4666 
z
" transform="scale(0.015625)"/>
       <path id="DejaVuSans-6f" d="M 1959 3097 
Q 1497 3097 1228 2736 
Q 959 2375 959 1747 
Q 959 1119 1226 758 
Q 1494 397 1959 397 
Q 2419 397 2687 759 
Q 2956 1122 2956 1747 
Q 2956 2369 2687 2733 
Q 2419 3097 1959 3097 
z
M 1959 3584 
Q 2709 3584 3137 3096 
Q 3566 2609 3566 1747 
Q 3566 888 3137 398 
Q 2709 -91 1959 -91 
Q 1206 -91 779 398 
Q 353 888 353 1747 
Q 353 2609 779 3096 
Q 1206 3584 1959 3584 
z
" transform="scale(0.015625)"/>
       <path id="DejaVuSans-69" d="M 603 3500 
L 1178 3500 
L 1178 0 
L 603 0 
L 603 3500 
z
M 603 4863 
L 1178 4863 
L 1178 4134 
L 603 4134 
L 603 4863 
z
" transform="scale(0.015625)"/>
       <path id="DejaVuSans-74" d="M 1172 4494 
L 1172 3500 
L 2356 3500 
L 2356 3053 
L 1172 3053 
L 1172 1153 
Q 1172 725 1289 603 
Q 1406 481 1766 481 
L 2356 481 
L 2356 0 
L 1766 0 
Q 1100 0 847 248 
Q 594 497 594 1153 
L 594 3053 
L 172 3053 
L 172 3500 
L 594 3500 
L 594 4494 
L 1172 4494 
z
" transform="scale(0.015625)"/>
       <path id="DejaVuSans-76" d="M 191 3500 
L 800 3500 
L 1894 563 
L 2988 3500 
L 3597 3500 
L 2284 0 
L 1503 0 
L 191 3500 
z
" transform="scale(0.015625)"/>
       <path id="DejaVuSans-52" d="M 2841 2188 
Q 3044 2119 3236 1894 
Q 3428 1669 3622 1275 
L 4263 0 
L 3584 0 
L 2988 1197 
Q 2756 1666 2539 1819 
Q 2322 1972 1947 1972 
L 1259 1972 
L 1259 0 
L 628 0 
L 628 4666 
L 2053 4666 
Q 2853 4666 3247 4331 
Q 3641 3997 3641 3322 
Q 3641 2881 3436 2590 
Q 3231 2300 2841 2188 
z
M 1259 4147 
L 1259 2491 
L 2053 2491 
Q 2509 2491 2742 2702 
Q 2975 2913 2975 3322 
Q 2975 3731 2742 3939 
Q 2509 4147 2053 4147 
L 1259 4147 
z
" transform="scale(0.015625)"/>
      </defs>
      <use xlink:href="#DejaVuSans-46"/>
      <use xlink:href="#DejaVuSans-61" x="48.394531"/>
      <use xlink:href="#DejaVuSans-6c" x="109.673828"/>
      <use xlink:href="#DejaVuSans-73" x="137.457031"/>
      <use xlink:href="#DejaVuSans-65" x="189.556641"/>
      <use xlink:href="#DejaVuSans-20" x="251.080078"/>
      <use xlink:href="#DejaVuSans-50" x="282.867188"/>
      <use xlink:href="#DejaVuSans-6f" x="339.544922"/>
      <use xlink:href="#DejaVuSans-73" x="400.726562"/>
      <use xlink:href="#DejaVuSans-69" x="452.826172"/>
      <use xlink:href="#DejaVuSans-74" x="480.609375"/>
      <use xlink:href="#DejaVuSans-69" x="519.818359"/>
      <use xlink:href="#DejaVuSans-76" x="547.601562"/>
      <use xlink:href="#DejaVuSans-65" x="606.78125"/>
      <use xlink:href="#DejaVuSans-20" x="668.304688"/>
      <use xlink:href="#DejaVuSans-52" x="700.091797"/>
      <use xlink:href="#DejaVuSans-61" x="767.324219"/>
      <use xlink:href="#DejaVuSans-74" x="828.603516"/>
      <use xlink:href="#DejaVuSans-65" x="867.8125"/>
     </g>
    </g>
   </g>
   <g id="matplotlib.axis_2">
    <g id="ytick_1">
     <g id="line2d_7">
      <defs>
       <path id="m9c48a99b99" d="M 0 0 
L -3.5 0 
" style="stroke: #000000; stroke-width: 0.8"/>
      </defs>
      <g>
       <use xlink:href="#m9c48a99b99" x="57.6" y="307.584" style="stroke: #000000; stroke-width: 0.8"/>
      </g>
     </g>
     <g id="text_8">
      <!-- 0.0 -->
      <g transform="translate(34.696875 311.383219)scale(0.1 -0.1)">
       <use xlink:href="#DejaVuSans-30"/>
       <use xlink:href="#DejaVuSans-2e" x="63.623047"/>
       <use xlink:href="#DejaVuSans-30" x="95.410156"/>
      </g>
     </g>
    </g>
    <g id="ytick_2">
     <g id="line2d_8">
      <g>
       <use xlink:href="#m9c48a99b99" x="57.6" y="256.896" style="stroke: #000000; stroke-width: 0.8"/>
      </g>
     </g>
     <g id="text_9">
      <!-- 0.2 -->
      <g transform="translate(34.696875 260.695219)scale(0.1 -0.1)">
       <use xlink:href="#DejaVuSans-30"/>
       <use xlink:href="#DejaVuSans-2e" x="63.623047"/>
       <use xlink:href="#DejaVuSans-32" x="95.410156"/>
      </g>
     </g>
    </g>
    <g id="ytick_3">
     <g id="line2d_9">
      <g>
       <use xlink:href="#m9c48a99b99" x="57.6" y="206.208" style="stroke: #000000; stroke-width: 0.8"/>
      </g>
     </g>
     <g id="text_10">
      <!-- 0.4 -->
      <g transform="translate(34.696875 210.007219)scale(0.1 -0.1)">
       <use xlink:href="#DejaVuSans-30"/>
       <use xlink:href="#DejaVuSans-2e" x="63.623047"/>
       <use xlink:href="#DejaVuSans-34" x="95.410156"/>
      </g>
     </g>
    </g>
    <g id="ytick_4">
     <g id="line2d_10">
      <g>
       <use xlink:href="#m9c48a99b99" x="57.6" y="155.52" style="stroke: #000000; stroke-width: 0.8"/>
      </g>
     </g>
     <g id="text_11">
      <!-- 0.6 -->
      <g transform="translate(34.696875 159.319219)scale(0.1 -0.1)">
       <use xlink:href="#DejaVuSans-30"/>
       <use xlink:href="#DejaVuSans-2e" x="63.623047"/>
       <use xlink:href="#DejaVuSans-36" x="95.410156"/>
      </g>
     </g>
    </g>
    <g id="ytick_5">
     <g id="line2d_11">
      <g>
       <use xlink:href="#m9c48a99b99" x="57.6" y="104.832" style="stroke: #000000; stroke-width: 0.8"/>
      </g>
     </g>
     <g id="text_12">
      <!-- 0.8 -->
      <g transform="translate(34.696875 108.631219)scale(0.1 -0.1)">
       <use xlink:href="#DejaVuSans-30"/>
       <use xlink:href="#DejaVuSans-2e" x="63.623047"/>
       <use xlink:href="#DejaVuSans-38" x="95.410156"/>
      </g>
     </g>
    </g>
    <g id="ytick_6">
     <g id="line2d_12">
      <g>
       <use xlink:href="#m9c48a99b99" x="57.6" y="54.144" style="stroke: #000000; stroke-width: 0.8"/>
      </g>
     </g>
     <g id="text_13">
      <!-- 1.0 -->
      <g transform="translate(34.696875 57.943219)scale(0.1 -0.1)">
       <use xlink:href="#DejaVuSans-31"/>
       <use xlink:href="#DejaVuSans-2e" x="63.623047"/>
       <use xlink:href="#DejaVuSans-30" x="95.410156"/>
      </g>
     </g>
    </g>
    <g id="text_14">
     <!-- True Positive Rate -->
     <g transform="translate(28.617187 219.057687)rotate(-90)scale(0.1 -0.1)">
      <defs>
       <path id="DejaVuSans-54" d="M -19 4666 
L 3928 4666 
L 3928 4134 
L 2272 4134 
L 2272 0 
L 1638 0 
L 1638 4134 
L -19 4134 
L -19 4666 
z
" transform="scale(0.015625)"/>
       <path id="DejaVuSans-72" d="M 2631 2963 
Q 2534 3019 2420 3045 
Q 2306 3072 2169 3072 
Q 1681 3072 1420 2755 
Q 1159 2438 1159 1844 
L 1159 0 
L 581 0 
L 581 3500 
L 1159 3500 
L 1159 2956 
Q 1341 3275 1631 3429 
Q 1922 3584 2338 3584 
Q 2397 3584 2469 3576 
Q 2541 3569 2628 3553 
L 2631 2963 
z
" transform="scale(0.015625)"/>
       <path id="DejaVuSans-75" d="M 544 1381 
L 544 3500 
L 1119 3500 
L 1119 1403 
Q 1119 906 1312 657 
Q 1506 409 1894 409 
Q 2359 409 2629 706 
Q 2900 1003 2900 1516 
L 2900 3500 
L 3475 3500 
L 3475 0 
L 2900 0 
L 2900 538 
Q 2691 219 2414 64 
Q 2138 -91 1772 -91 
Q 1169 -91 856 284 
Q 544 659 544 1381 
z
M 1991 3584 
L 1991 3584 
z
" transform="scale(0.015625)"/>
      </defs>
      <use xlink:href="#DejaVuSans-54"/>
      <use xlink:href="#DejaVuSans-72" x="46.333984"/>
      <use xlink:href="#DejaVuSans-75" x="87.447266"/>
      <use xlink:href="#DejaVuSans-65" x="150.826172"/>
      <use xlink:href="#DejaVuSans-20" x="212.349609"/>
      <use xlink:href="#DejaVuSans-50" x="244.136719"/>
      <use xlink:href="#DejaVuSans-6f" x="300.814453"/>
      <use xlink:href="#DejaVuSans-73" x="361.996094"/>
      <use xlink:href="#DejaVuSans-69" x="414.095703"/>
      <use xlink:href="#DejaVuSans-74" x="441.878906"/>
      <use xlink:href="#DejaVuSans-69" x="481.087891"/>
      <use xlink:href="#DejaVuSans-76" x="508.871094"/>
      <use xlink:href="#DejaVuSans-65" x="568.050781"/>
      <use xlink:href="#DejaVuSans-20" x="629.574219"/>
      <use xlink:href="#DejaVuSans-52" x="661.361328"/>
      <use xlink:href="#DejaVuSans-61" x="728.59375"/>
      <use xlink:href="#DejaVuSans-74" x="789.873047"/>
      <use xlink:href="#DejaVuSans-65" x="829.082031"/>
     </g>
    </g>
   </g>
   <g id="line2d_13">
    <path d="M 74.605714 307.584 
L 74.725305 306.948589 
L 74.742628 306.840569 
L 74.853428 306.329063 
L 74.883486 306.221044 
L 74.994587 305.725423 
L 75.013196 305.62058 
L 75.124297 304.981992 
L 75.14698 304.873972 
L 75.25808 304.546736 
L 75.288739 304.438716 
L 75.399496 304.073355 
L 75.436458 303.965335 
L 75.545286 303.752472 
L 75.547258 303.752472 
L 75.582247 303.644452 
L 75.691675 303.345809 
L 75.692876 303.345809 
L 75.743517 303.237789 
L 75.85436 302.89149 
L 75.892222 302.78347 
L 76.001178 302.437172 
L 76.003322 302.437172 
L 76.050404 302.329152 
L 76.161161 302.049571 
L 76.16129 302.049571 
L 76.194693 301.941551 
L 76.304935 301.611137 
L 76.305793 301.611137 
L 76.379717 301.503117 
L 76.490817 301.271192 
L 76.548275 301.163173 
L 76.658389 300.858175 
L 76.658947 300.858175 
L 76.709373 300.750156 
L 76.817986 300.445158 
L 76.819573 300.445158 
L 76.851861 300.337138 
L 76.962446 300.000371 
L 76.962961 300.000371 
L 77.012272 299.892351 
L 77.123372 299.628655 
L 77.170025 299.520635 
L 77.28104 299.228346 
L 77.327607 299.120327 
L 77.43845 298.840746 
L 77.472753 298.732726 
L 77.580209 298.399135 
L 77.583768 298.399135 
L 77.629991 298.291115 
L 77.738562 297.932108 
L 77.741092 297.932108 
L 77.774323 297.824088 
L 77.884995 297.531799 
L 77.885381 297.531799 
L 77.935678 297.423779 
L 78.043562 297.175969 
L 78.046478 297.175969 
L 78.08254 297.067949 
L 78.191882 296.794723 
L 78.193425 296.794723 
L 78.229959 296.686703 
L 78.340844 296.407122 
L 78.341016 296.407122 
L 78.388955 296.299102 
L 78.498812 296.048115 
L 78.499712 296.048115 
L 78.53646 295.940095 
L 78.646531 295.571557 
L 78.647217 295.571557 
L 78.691769 295.463537 
L 78.799138 295.10453 
L 78.802869 295.10453 
L 78.827396 294.99651 
L 78.937424 294.637502 
L 78.938496 294.637502 
L 78.985449 294.529483 
L 79.095777 294.2086 
L 79.096292 294.2086 
L 79.133082 294.10058 
L 79.243625 293.779698 
L 79.244054 293.779698 
L 79.27497 293.671678 
L 79.382511 293.33491 
L 79.386027 293.33491 
L 79.432809 293.22689 
L 79.54258 292.813873 
L 79.543737 292.813873 
L 79.575725 292.705853 
L 79.685582 292.378617 
L 79.686397 292.378617 
L 79.718213 292.270597 
L 79.828456 291.962423 
L 79.829271 291.962423 
L 79.871057 291.854403 
L 79.984451 291.473156 
L 80.016996 291.365136 
L 80.125138 291.095087 
L 80.128097 291.095087 
L 80.164673 290.987067 
L 80.275687 290.643945 
L 80.275773 290.643945 
L 80.316465 290.535925 
L 80.425164 290.199157 
L 80.427523 290.199157 
L 80.451878 290.091137 
L 80.56285 289.719422 
L 80.587591 289.611402 
L 80.698563 289.284165 
L 80.698606 289.284165 
L 80.737411 289.176146 
L 80.852885 288.842555 
L 80.895465 288.734535 
L 81.005579 288.39459 
L 81.006565 288.39459 
L 81.043227 288.28657 
L 81.153727 287.889438 
L 81.154113 287.889438 
L 81.193862 287.781419 
L 81.304104 287.444651 
L 81.304919 287.444651 
L 81.350114 287.336631 
L 81.459756 286.952207 
L 81.461043 286.952207 
L 81.497404 286.844188 
L 81.606189 286.488357 
L 81.608483 286.488357 
L 81.6543 286.380338 
L 81.770031 286.02133 
L 81.810595 285.913311 
L 81.927183 285.50347 
L 81.97345 285.395451 
L 82.088324 285.112693 
L 82.122885 285.004673 
L 82.233642 284.601187 
L 82.261127 284.493167 
L 82.371413 284.051557 
L 82.372185 284.051557 
L 82.400335 283.943537 
L 82.51433 283.498749 
L 82.549448 283.390729 
L 82.662821 283.047607 
L 82.695838 282.939587 
L 82.806681 282.536101 
L 82.806852 282.536101 
L 82.83378 282.428082 
L 82.944752 282.075429 
L 82.944881 282.075429 
L 82.972709 281.96582 
L 83.082823 281.573454 
L 83.08381 281.573454 
L 83.120386 281.465434 
L 83.230586 281.087365 
L 83.231443 281.087365 
L 83.254083 280.979345 
L 83.364798 280.677525 
L 83.364926 280.677525 
L 83.398286 280.569505 
L 83.512002 280.178727 
L 83.545148 280.070707 
L 83.655948 279.756179 
L 83.656163 279.756179 
L 83.690552 279.648159 
L 83.799594 279.298683 
L 83.801652 279.298683 
L 83.849077 279.190663 
L 83.959962 278.825302 
L 83.960177 278.825302 
L 83.992165 278.717282 
L 84.102879 278.329681 
L 84.103222 278.329681 
L 84.13804 278.221661 
L 84.254586 277.814998 
L 84.287239 277.706978 
L 84.400976 277.313024 
L 84.426275 277.205004 
L 84.542692 276.811049 
L 84.568463 276.703029 
L 84.675318 276.334491 
L 84.679434 276.334491 
L 84.710779 276.226471 
L 84.82025 275.83887 
L 84.821836 275.83887 
L 84.861521 275.730851 
L 84.975044 275.371843 
L 85.0271 275.263823 
L 85.137857 274.895285 
L 85.137986 274.895285 
L 85.168644 274.787265 
L 85.168644 274.785677 
L 85.289478 274.425081 
L 85.317736 274.317061 
L 85.428536 273.935815 
L 85.428793 273.935815 
L 85.47328 273.827795 
L 85.585946 273.545037 
L 85.624237 273.437017 
L 85.735251 273.128843 
L 85.772985 273.020823 
L 85.883335 272.633222 
L 85.884064 272.633222 
L 85.920383 272.525202 
L 86.033906 272.134425 
L 86.071468 272.026405 
L 86.180853 271.705522 
L 86.182525 271.705522 
L 86.215542 271.597502 
L 86.325828 271.260735 
L 86.326428 271.260735 
L 86.372674 271.151126 
L 86.488169 270.822301 
L 86.529976 270.714281 
L 86.640519 270.345743 
L 86.640991 270.345743 
L 86.676666 270.237723 
L 86.787424 269.862831 
L 86.787724 269.862831 
L 86.833262 269.754811 
L 86.944147 269.405335 
L 86.944362 269.405335 
L 86.980552 269.297315 
L 87.091524 268.919245 
L 87.146238 268.811226 
L 87.263234 268.372792 
L 87.299231 268.264772 
L 87.409731 267.947067 
L 87.410288 267.947067 
L 87.444763 267.839047 
L 87.555177 267.499102 
L 87.555864 267.499102 
L 87.589524 267.391082 
L 87.700024 267.01619 
L 87.700581 267.01619 
L 87.733427 266.90817 
L 87.843627 266.511038 
L 87.844313 266.511038 
L 87.873471 266.403018 
L 87.982298 265.996355 
L 87.984528 265.996355 
L 88.015787 265.888335 
L 88.137971 265.478495 
L 88.17101 265.370475 
L 88.281553 265.001937 
L 88.282067 265.001937 
L 88.310882 264.892329 
L 88.421168 264.525379 
L 88.421854 264.525379 
L 88.460617 264.417359 
L 88.571503 264.010696 
L 88.571674 264.010696 
L 88.621886 263.902676 
L 88.732 263.597679 
L 88.732943 263.597679 
L 88.775179 263.489659 
L 88.896356 263.117944 
L 88.931689 263.009924 
L 89.042103 262.666802 
L 89.042768 262.666802 
L 89.079708 262.558782 
L 89.190122 262.218837 
L 89.190808 262.218837 
L 89.231201 262.110817 
L 89.341701 261.777227 
L 89.342301 261.777227 
L 89.468666 261.402334 
L 89.51549 261.294314 
L 89.63075 260.982963 
L 89.668055 260.874943 
L 89.77907 260.560415 
L 89.815753 260.452395 
L 89.93395 260.102919 
L 89.967867 259.994899 
L 90.088744 259.632715 
L 90.126306 259.523106 
L 90.237085 259.124386 
L 90.237192 259.124386 
L 90.268408 259.016366 
L 90.378308 258.736785 
L 90.379508 258.736785 
L 90.410725 258.628766 
L 90.521739 258.190332 
L 90.521825 258.190332 
L 90.559559 258.082312 
L 90.559559 258.080724 
L 90.679578 257.748721 
L 90.710151 257.640702 
L 90.819493 257.313465 
L 90.821187 257.313465 
L 90.852982 257.203857 
L 90.973001 256.875031 
L 91.01335 256.770189 
L 91.12445 256.40165 
L 91.157789 256.29363 
L 91.271226 255.931446 
L 91.305015 255.823426 
L 91.415944 255.448534 
L 91.416073 255.448534 
L 91.45014 255.340514 
L 91.569409 254.937028 
L 91.59548 254.829008 
L 91.722745 254.431876 
L 91.774801 254.323857 
L 91.890575 253.974381 
L 91.930753 253.864772 
L 92.041339 253.491468 
L 92.04181 253.491468 
L 92.086276 253.383448 
L 92.197333 253.056212 
L 92.243429 252.951369 
L 92.3532 252.636841 
L 92.354529 252.636841 
L 92.390805 252.528821 
L 92.506022 252.220646 
L 92.531921 252.112627 
L 92.649367 251.798098 
L 92.687015 251.690078 
L 92.797172 251.302478 
L 92.798115 251.302478 
L 92.833191 251.194458 
L 92.946521 250.860867 
L 92.989872 250.751259 
L 93.100157 250.431965 
L 93.100886 250.431965 
L 93.146252 250.323945 
L 93.261726 249.999885 
L 93.303019 249.891865 
L 93.418707 249.551921 
L 93.453869 249.443901 
L 93.575388 249.0563 
L 93.611621 248.94828 
L 93.731769 248.614689 
L 93.777221 248.50667 
L 93.892953 248.154017 
L 93.950218 248.045997 
L 94.063634 247.702875 
L 94.11421 247.594855 
L 94.225117 247.242202 
L 94.225289 247.242202 
L 94.259656 247.134182 
L 94.386622 246.800591 
L 94.431302 246.690983 
L 94.541674 246.339918 
L 94.542317 246.339918 
L 94.571753 246.231899 
L 94.684976 245.914193 
L 94.715849 245.806173 
L 94.826006 245.463051 
L 94.826907 245.463051 
L 94.865584 245.355031 
L 94.976127 245.040503 
L 94.976598 245.040503 
L 95.034014 244.932483 
L 95.159607 244.576653 
L 95.192753 244.468633 
L 95.307819 244.163636 
L 95.353593 244.055616 
L 95.462549 243.67437 
L 95.464693 243.67437 
L 95.504228 243.569527 
L 95.620045 243.216874 
L 95.661595 243.108854 
L 95.774711 242.787971 
L 95.811072 242.679951 
L 95.922173 242.333653 
L 95.967903 242.225633 
L 96.081083 241.914281 
L 96.116566 241.804673 
L 96.232662 241.431369 
L 96.265379 241.323349 
L 96.376222 240.996113 
L 96.376436 240.996113 
L 96.408553 240.888093 
L 96.523641 240.58945 
L 96.566927 240.48143 
L 96.684417 240.166901 
L 96.72453 240.058881 
L 96.835587 239.760238 
L 96.83563 239.760238 
L 96.882197 239.652218 
L 96.992611 239.305919 
L 96.993298 239.305919 
L 97.050499 239.1979 
L 97.16638 238.842069 
L 97.223216 238.73405 
L 97.223216 238.732461 
L 97.343407 238.397282 
L 97.378525 238.289262 
L 97.494642 237.917547 
L 97.531776 237.807938 
L 97.675765 237.406041 
L 97.721174 237.298021 
L 97.830473 236.958076 
L 97.832274 236.958076 
L 97.861775 236.851645 
L 97.975577 236.545059 
L 98.009837 236.437039 
L 98.120766 236.170167 
L 98.120873 236.170167 
L 98.150353 236.062147 
L 98.269128 235.779389 
L 98.312458 235.66978 
L 98.435543 235.375903 
L 98.479644 235.267883 
L 98.59664 234.975594 
L 98.640013 234.867574 
L 98.640013 234.865986 
L 98.768972 234.425964 
L 98.807907 234.317944 
L 98.917163 234.057425 
L 98.918964 234.057425 
L 98.956741 233.949405 
L 99.066147 233.571336 
L 99.067777 233.571336 
L 99.109134 233.463316 
L 99.222335 233.139256 
L 99.266801 233.031237 
L 99.380195 232.688115 
L 99.411026 232.580095 
L 99.52785 232.29416 
L 99.58042 232.18614 
L 99.690256 231.890674 
L 99.691456 231.890674 
L 99.739888 231.782654 
L 99.850903 231.455418 
L 99.897684 231.347398 
L 100.021691 230.966151 
L 100.058353 230.858131 
L 100.168381 230.489593 
L 100.16941 230.489593 
L 100.225411 230.381573 
L 100.33471 230.051159 
L 100.336489 230.051159 
L 100.384836 229.94314 
L 100.495422 229.625434 
L 100.495936 229.625434 
L 100.549492 229.517414 
L 100.659649 229.202886 
L 100.660571 229.202886 
L 100.712241 229.094866 
L 100.829537 228.783515 
L 100.878934 228.675495 
L 100.988233 228.38956 
L 100.990034 228.38956 
L 101.034586 228.28154 
L 101.144057 228.008313 
L 101.145686 228.008313 
L 101.20606 227.900293 
L 101.315831 227.563526 
L 101.317118 227.563526 
L 101.350821 227.455506 
L 101.466616 227.102853 
L 101.508574 226.993244 
L 101.618087 226.756554 
L 101.619653 226.756554 
L 101.663883 226.648534 
L 101.786796 226.299058 
L 101.826567 226.18945 
L 101.937067 225.870156 
L 101.937667 225.870156 
L 101.966589 225.762136 
L 102.079726 225.450784 
L 102.124878 225.342764 
L 102.234477 225.053653 
L 102.235978 225.053653 
L 102.272168 224.945633 
L 102.3879 224.602511 
L 102.445036 224.492902 
L 102.561346 224.10689 
L 102.59312 223.99887 
L 102.708422 223.687519 
L 102.739167 223.579499 
L 102.859829 223.226846 
L 102.895462 223.118826 
L 102.999573 222.861485 
L 103.006519 222.861485 
L 103.035484 222.753465 
L 103.150401 222.470707 
L 103.186612 222.362687 
L 103.299685 222.048159 
L 103.337054 221.943316 
L 103.46149 221.549361 
L 103.509515 221.439753 
L 103.624624 221.136344 
L 103.659014 221.028324 
L 103.769857 220.767806 
L 103.770114 220.767806 
L 103.804932 220.659786 
L 103.91987 220.373851 
L 103.970918 220.265831 
L 104.086006 219.970365 
L 104.119216 219.862345 
L 104.240714 219.477922 
L 104.293327 219.369902 
L 104.409316 219.007718 
L 104.463365 218.899698 
L 104.578775 218.578815 
L 104.615158 218.470795 
L 104.732647 218.156267 
L 104.781251 218.048247 
L 104.896918 217.708302 
L 104.931585 217.600282 
L 104.931585 217.598694 
L 105.060052 217.2794 
L 105.101087 217.17138 
L 105.213774 216.933101 
L 105.257125 216.825081 
L 105.377316 216.488313 
L 105.428171 216.380293 
L 105.553335 216.033994 
L 105.585559 215.925975 
L 105.707937 215.592384 
L 105.74462 215.484364 
L 105.864939 215.144419 
L 105.897828 215.036399 
L 105.897828 215.034811 
L 106.019047 214.661507 
L 106.062313 214.553487 
L 106.179673 214.245313 
L 106.22504 214.137293 
L 106.334253 213.794171 
L 106.336097 213.794171 
L 106.378204 213.686151 
L 106.487182 213.46058 
L 106.489262 213.46058 
L 106.5348 213.35256 
L 106.650531 213.006261 
L 106.702372 212.898242 
L 106.822091 212.580536 
L 106.871831 212.472516 
L 106.991121 212.170696 
L 107.039446 212.062676 
L 107.15016 211.779918 
L 107.150546 211.779918 
L 107.196663 211.671899 
L 107.313745 211.376432 
L 107.357396 211.268413 
L 107.472227 210.992009 
L 107.507388 210.883989 
L 107.622262 210.604408 
L 107.66244 210.496388 
L 107.7801 210.165975 
L 107.810373 210.057955 
L 107.917743 209.733895 
L 107.921409 209.733895 
L 107.955369 209.625875 
L 108.068506 209.324055 
L 108.09715 209.219212 
L 108.207929 208.885622 
L 108.208207 208.885622 
L 108.250015 208.777602 
L 108.364802 208.504375 
L 108.403137 208.399532 
L 108.403137 208.396355 
L 108.52843 208.135837 
L 108.574825 208.027817 
L 108.684854 207.773653 
L 108.685883 207.773653 
L 108.739225 207.665633 
L 108.857314 207.401937 
L 108.892261 207.293917 
L 109.004905 207.049284 
L 109.051922 206.941264 
L 109.166795 206.655329 
L 109.199577 206.547309 
L 109.314558 206.251843 
L 109.367106 206.143823 
L 109.367106 206.142235 
L 109.485732 205.864243 
L 109.519671 205.756223 
L 109.634759 205.460757 
L 109.680768 205.352737 
L 109.790861 205.041386 
L 109.791868 205.041386 
L 109.835605 204.933366 
L 109.946556 204.609306 
L 109.946663 204.609306 
L 109.998032 204.501286 
L 110.116293 204.234414 
L 110.156643 204.126394 
L 110.270916 203.891292 
L 110.304748 203.783272 
L 110.420951 203.529108 
L 110.470305 203.421088 
L 110.581105 203.081143 
L 110.581362 203.081143 
L 110.620597 202.973123 
L 110.730925 202.65224 
L 110.731697 202.65224 
L 110.776849 202.544221 
L 110.889943 202.236046 
L 110.946008 202.128026 
L 111.06354 201.889747 
L 111.113194 201.781728 
L 111.228068 201.489438 
L 111.27009 201.381419 
L 111.383377 201.047828 
L 111.439291 200.939808 
L 111.548591 200.653873 
L 111.550391 200.653873 
L 111.609372 200.545853 
L 111.727076 200.218617 
L 111.767232 200.110597 
L 111.873487 199.888203 
L 111.87829 199.888203 
L 111.930688 199.780183 
L 112.041745 199.510133 
L 112.041788 199.510133 
L 112.156726 199.224199 
L 112.196497 199.116179 
L 112.307554 198.830244 
L 112.307597 198.830244 
L 112.35172 198.720635 
L 112.469938 198.455351 
L 112.513718 198.347331 
L 112.623232 198.099521 
L 112.624732 198.099521 
L 112.665082 197.991501 
L 112.769557 197.740514 
L 112.776139 197.740514 
L 112.816703 197.632494 
L 112.925659 197.359268 
L 112.927803 197.359268 
L 113.04079 197.079687 
L 113.082383 196.971667 
L 113.190675 196.723857 
L 113.193483 196.723857 
L 113.243266 196.615837 
L 113.367445 196.291777 
L 113.399004 196.183757 
L 113.510083 195.907354 
L 113.572622 195.799334 
L 113.69187 195.497514 
L 113.728338 195.389494 
L 113.840875 195.170277 
L 113.878352 195.060669 
L 113.988594 194.769968 
L 113.989452 194.769968 
L 114.112944 194.464971 
L 114.156381 194.356951 
L 114.269347 194.071016 
L 114.314949 193.962996 
L 114.432738 193.715186 
L 114.503124 193.605577 
L 114.653674 193.244982 
L 114.700562 193.136962 
L 114.811534 192.895506 
L 114.81162 192.895506 
L 114.865648 192.787486 
L 114.980564 192.504728 
L 115.046963 192.396708 
L 115.161901 192.110773 
L 115.20984 192.002753 
L 115.322677 191.742235 
L 115.359488 191.632627 
L 115.478736 191.332395 
L 115.533493 191.224375 
L 115.652054 190.947971 
L 115.707154 190.839951 
L 115.823786 190.566725 
L 115.870888 190.458705 
L 115.990715 190.201363 
L 116.043456 190.093344 
L 116.043456 190.091755 
L 116.159145 189.750222 
L 116.210471 189.642202 
L 116.328368 189.391215 
L 116.362928 189.283195 
L 116.486099 188.984552 
L 116.537726 188.876532 
L 116.647325 188.596951 
L 116.648783 188.596951 
L 116.690891 188.487343 
L 116.805529 188.222058 
L 116.853703 188.11245 
L 116.964461 187.840812 
L 116.964761 187.840812 
L 117.010384 187.732792 
L 117.128946 187.364254 
L 117.173026 187.256234 
L 117.283654 187.014778 
L 117.284083 187.014778 
L 117.330886 186.906758 
L 117.443723 186.646239 
L 117.49938 186.53822 
L 117.607264 186.280878 
L 117.61048 186.280878 
L 117.665173 186.17127 
L 117.78933 185.848799 
L 117.830708 185.740779 
L 117.939986 185.489792 
L 117.941787 185.489792 
L 118.005141 185.381772 
L 118.120144 185.09266 
L 118.175887 184.98464 
L 118.295048 184.685997 
L 118.345496 184.577977 
L 118.458804 184.25074 
L 118.5058 184.14272 
L 118.616429 183.882202 
L 118.616857 183.882202 
L 118.663574 183.772593 
L 118.78726 183.462831 
L 118.832369 183.354811 
L 118.948357 182.98945 
L 119.007874 182.88143 
L 119.124377 182.614557 
L 119.182307 182.506537 
L 119.297009 182.236488 
L 119.343576 182.128468 
L 119.460872 181.82347 
L 119.510183 181.715451 
L 119.629281 181.419985 
L 119.680135 181.315142 
L 119.680135 181.311965 
L 119.789135 181.067331 
L 119.791236 181.067331 
L 119.838253 180.957723 
L 119.971157 180.730564 
L 120.012407 180.622544 
L 120.012407 180.620955 
L 120.129082 180.416035 
L 120.189627 180.308015 
L 120.303901 180.072913 
L 120.347445 179.964894 
L 120.46815 179.682136 
L 120.516067 179.574116 
L 120.516067 179.572527 
L 120.6339 179.319951 
L 120.681496 179.211932 
L 120.681496 179.210343 
L 120.816716 178.916466 
L 120.872094 178.806857 
L 121.001761 178.535219 
L 121.039109 178.427199 
L 121.15334 178.185743 
L 121.197355 178.077723 
L 121.310642 177.747309 
L 121.382294 177.63929 
L 121.495581 177.31523 
L 121.536938 177.20721 
L 121.651297 176.965754 
L 121.703653 176.857734 
L 121.818698 176.562268 
L 121.882631 176.454248 
L 121.987406 176.187376 
L 121.993624 176.187376 
L 122.063303 176.077767 
L 122.184544 175.828368 
L 122.26014 175.720349 
L 122.374392 175.485247 
L 122.422245 175.377227 
L 122.537934 175.151656 
L 122.579848 175.043636 
L 122.689383 174.722753 
L 122.690863 174.722753 
L 122.741417 174.613145 
L 122.851489 174.360569 
L 122.852496 174.360569 
L 122.894325 174.252549 
L 123.006926 174.026978 
L 123.053279 173.918959 
L 123.163007 173.671148 
L 123.164379 173.671148 
L 123.208716 173.563129 
L 123.321574 173.289902 
L 123.375088 173.181882 
L 123.488139 172.959488 
L 123.526366 172.851468 
L 123.637338 172.667199 
L 123.637466 172.667199 
L 123.675393 172.559179 
L 123.788423 172.273244 
L 123.845688 172.165224 
L 123.960605 171.882467 
L 124.016776 171.774447 
L 124.016776 171.772858 
L 124.14237 171.507574 
L 124.183706 171.399554 
L 124.294806 171.164452 
L 124.337985 171.056432 
L 124.445805 170.792737 
L 124.449043 170.792737 
L 124.508902 170.684717 
L 124.628385 170.436907 
L 124.708034 170.328887 
L 124.824365 170.135087 
L 124.904807 170.027067 
L 125.014857 169.772902 
L 125.015864 169.772902 
L 125.09399 169.663294 
L 125.214524 169.42978 
L 125.278543 169.320172 
L 125.392709 169.089836 
L 125.480076 168.981816 
L 125.591069 168.743537 
L 125.591176 168.743537 
L 125.638772 168.635517 
L 125.746142 168.403592 
L 125.749829 168.403592 
L 125.797146 168.295572 
L 125.909512 168.104949 
L 125.971172 167.996929 
L 125.971172 167.99534 
L 126.096144 167.739587 
L 126.15461 167.631568 
L 126.264702 167.393288 
L 126.26571 167.393288 
L 126.334317 167.285269 
L 126.448419 167.062875 
L 126.495157 166.954855 
L 126.610888 166.726107 
L 126.657134 166.618087 
L 126.769413 166.436995 
L 126.841193 166.328975 
L 126.949013 166.090696 
L 126.952251 166.090696 
L 127.011724 165.981088 
L 127.118965 165.798407 
L 127.122782 165.798407 
L 127.17831 165.690387 
L 127.295156 165.474347 
L 127.339386 165.366328 
L 127.455246 165.131226 
L 127.505394 165.023206 
L 127.614607 164.794458 
L 127.616472 164.794458 
L 127.684929 164.684849 
L 127.806706 164.489461 
L 127.858805 164.381441 
L 127.972606 164.181286 
L 128.04593 164.073266 
L 128.156816 163.866758 
L 128.156987 163.866758 
L 128.226237 163.758738 
L 128.226237 163.757149 
L 128.344949 163.571292 
L 128.390851 163.461683 
L 128.500665 163.253586 
L 128.501908 163.253586 
L 128.553214 163.145566 
L 128.670124 162.8501 
L 128.734336 162.740492 
L 128.862137 162.49427 
L 128.922383 162.389427 
L 128.922383 162.384662 
L 129.038972 162.182919 
L 129.108651 162.074899 
L 129.219022 161.858859 
L 129.219751 161.858859 
L 129.281111 161.750839 
L 129.394184 161.604695 
L 129.444481 161.496675 
L 129.558755 161.261573 
L 129.622516 161.153553 
L 129.732159 160.924805 
L 129.733616 160.924805 
L 129.800251 160.816785 
L 129.910751 160.6071 
L 129.911351 160.6071 
L 129.980558 160.49908 
L 130.090758 160.321165 
L 130.091659 160.321165 
L 130.148045 160.213145 
L 130.148045 160.211557 
L 130.272867 159.958981 
L 130.347648 159.850961 
L 130.461964 159.603151 
L 130.529456 159.495131 
L 130.639999 159.288622 
L 130.640471 159.288622 
L 130.692183 159.180602 
L 130.802726 158.942323 
L 130.803283 158.942323 
L 130.856454 158.834303 
L 130.966868 158.618264 
L 130.967554 158.618264 
L 131.023383 158.510244 
L 131.132511 158.259256 
L 131.134355 158.259256 
L 131.196873 158.151237 
L 131.31359 157.944728 
L 131.369247 157.83512 
L 131.480133 157.646085 
L 131.480326 157.646085 
L 131.526186 157.538065 
L 131.635592 157.350619 
L 131.637222 157.350619 
L 131.686254 157.242599 
L 131.794224 157.055153 
L 131.797333 157.055153 
L 131.835753 156.947133 
L 131.835753 156.945544 
L 131.949576 156.737447 
L 132.002961 156.629427 
L 132.002961 156.627839 
L 132.119678 156.419742 
L 132.179538 156.311722 
L 132.293168 156.124276 
L 132.355686 156.016256 
L 132.463913 155.765269 
L 132.466786 155.765269 
L 132.545555 155.657249 
L 132.653783 155.476157 
L 132.656655 155.476157 
L 132.7294 155.368137 
L 132.847726 155.155274 
L 132.920492 155.047254 
L 133.034336 154.840746 
L 133.105516 154.732726 
L 133.219532 154.516686 
L 133.280678 154.408666 
L 133.390449 154.202158 
L 133.391735 154.202158 
L 133.486113 154.094138 
L 133.594897 153.9194 
L 133.597213 153.9194 
L 133.665048 153.81138 
L 133.777949 153.67159 
L 133.846127 153.56357 
L 133.954226 153.398363 
L 133.957185 153.398363 
L 134.023776 153.290343 
L 134.13389 153.125136 
L 134.134877 153.125136 
L 134.222222 153.017116 
L 134.328777 152.864618 
L 134.333236 152.864618 
L 134.404802 152.756598 
L 134.5117 152.562798 
L 134.515859 152.562798 
L 134.600203 152.454778 
L 134.70903 152.295925 
L 134.711303 152.295925 
L 134.801092 152.187905 
L 134.910735 152.038584 
L 134.912192 152.038584 
L 134.999323 151.930564 
L 135.10918 151.765357 
L 135.110424 151.765357 
L 135.212219 151.655748 
L 135.322419 151.501661 
L 135.323276 151.501661 
L 135.383136 151.393641 
L 135.493636 151.231612 
L 135.494236 151.231612 
L 135.565459 151.123592 
L 135.677588 150.958385 
L 135.753484 150.850365 
L 135.860768 150.735991 
L 135.864284 150.735991 
L 135.954202 150.627971 
L 136.064917 150.47865 
L 136.065303 150.47865 
L 136.186565 150.37063 
L 136.302297 150.199069 
L 136.381066 150.091049 
L 136.488907 149.929019 
L 136.492123 149.929019 
L 136.57428 149.820999 
L 136.691126 149.681209 
L 136.812603 149.573189 
L 136.921431 149.439753 
L 136.923682 149.439753 
L 137.024941 149.331733 
L 137.1384 149.156995 
L 137.224759 149.048975 
L 137.333587 148.921893 
L 137.335773 148.921893 
L 137.404423 148.813873 
L 137.515352 148.642312 
L 137.515524 148.642312 
L 137.59232 148.534292 
L 137.702177 148.343669 
L 137.703421 148.343669 
L 137.801486 148.235649 
L 137.911171 148.05138 
L 137.912586 148.05138 
L 137.994099 147.94336 
L 138.104835 147.825809 
L 138.105114 147.825809 
L 138.201121 147.717789 
L 138.307204 147.568468 
L 138.312221 147.568468 
L 138.392748 147.458859 
L 138.502562 147.320657 
L 138.503806 147.320657 
L 138.610961 147.212638 
L 138.71996 147.076024 
L 138.721976 147.076024 
L 138.838093 146.968004 
L 138.950951 146.828214 
L 139.057849 146.718606 
L 139.16479 146.564518 
L 139.168906 146.564518 
L 139.28914 146.456499 
L 139.400026 146.323062 
L 139.400197 146.323062 
L 139.494317 146.215042 
L 139.603059 146.065721 
L 139.605418 146.065721 
L 139.703654 145.957701 
L 139.822108 145.824265 
L 139.949996 145.714656 
L 140.059895 145.611402 
L 140.061053 145.611402 
L 140.183173 145.503382 
L 140.183173 145.501794 
L 140.298004 145.363592 
L 140.371371 145.255572 
L 140.483972 145.144375 
L 140.585767 145.036355 
L 140.696267 144.937867 
L 140.696867 144.937867 
L 140.808997 144.829847 
L 140.920955 144.693233 
L 141.033213 144.585213 
L 141.143798 144.467662 
L 141.144313 144.467662 
L 141.271021 144.359643 
L 141.385037 144.216675 
L 141.487476 144.108655 
L 141.596647 143.994281 
L 141.598576 143.994281 
L 141.702902 143.886261 
L 141.815717 143.759179 
L 141.911252 143.651159 
L 142.021195 143.530431 
L 142.022352 143.530431 
L 142.139799 143.422411 
L 142.250642 143.30486 
L 142.250856 143.30486 
L 142.359169 143.196841 
L 142.468769 143.095175 
L 142.470227 143.095175 
L 142.581155 142.987155 
L 142.692985 142.879135 
L 142.790964 142.769527 
L 142.900692 142.624971 
L 142.902064 142.624971 
L 143.010034 142.515362 
L 143.11526 142.364452 
L 143.121135 142.364452 
L 143.213882 142.254844 
L 143.324404 142.173829 
L 143.324983 142.173829 
L 143.443287 142.065809 
L 143.548555 141.960966 
L 143.554387 141.960966 
L 143.692072 141.852946 
L 143.786235 141.748104 
L 143.803173 141.748104 
L 143.89219 141.640084 
L 143.994886 141.541595 
L 144.00329 141.541595 
L 144.113962 141.433575 
L 144.22384 141.347795 
L 144.225019 141.347795 
L 144.343752 141.239775 
L 144.343752 141.238186 
L 144.458154 141.112693 
L 144.548758 141.004673 
L 144.659344 140.874414 
L 144.65973 140.874414 
L 144.768343 140.766394 
L 144.880987 140.65202 
L 144.996032 140.544 
L 145.100357 140.432803 
L 145.107089 140.432803 
L 145.21253 140.324783 
L 145.319599 140.213586 
L 145.32363 140.213586 
L 145.454112 140.105566 
L 145.454112 140.103978 
L 145.568385 139.988015 
L 145.672539 139.879996 
L 145.787069 139.752913 
L 145.901771 139.644894 
L 146.013901 139.565467 
L 146.103519 139.457447 
L 146.21046 139.349427 
L 146.214619 139.349427 
L 146.291416 139.241408 
L 146.386736 139.146096 
L 146.402516 139.146096 
L 146.532783 139.038076 
L 146.632756 138.965004 
L 146.643884 138.965004 
L 146.754684 138.856984 
L 146.867027 138.764849 
L 146.979157 138.65683 
L 147.079323 138.574226 
L 147.090128 138.574226 
L 147.203801 138.466206 
L 147.298029 138.374072 
L 147.314902 138.374072 
L 147.426388 138.266052 
L 147.537402 138.148501 
L 147.537445 138.148501 
L 147.667755 138.040481 
L 147.780099 137.948346 
L 147.88168 137.840327 
L 147.989908 137.70689 
L 147.992652 137.70689 
L 148.086858 137.59887 
L 148.194613 137.487673 
L 148.197915 137.487673 
L 148.316562 137.379654 
L 148.428863 137.287519 
L 148.562604 137.179499 
L 148.673104 137.055594 
L 148.673489 137.055594 
L 148.796039 136.947574 
L 148.899978 136.858617 
L 148.907139 136.858617 
L 149.016009 136.750597 
L 149.125523 136.633046 
L 149.127067 136.633046 
L 149.260679 136.525026 
L 149.369292 136.404298 
L 149.371693 136.404298 
L 149.508564 136.296278 
L 149.508564 136.294689 
L 149.621508 136.226383 
L 149.74976 136.118363 
L 149.861375 136.019874 
L 149.981222 135.911854 
L 150.089793 135.816543 
L 150.092323 135.816543 
L 150.21187 135.708523 
L 150.322027 135.600503 
L 150.322885 135.600503 
L 150.503407 135.492483 
L 150.610047 135.413057 
L 150.614464 135.413057 
L 150.757874 135.305037 
L 150.869682 135.19384 
L 150.980096 135.08582 
L 151.084764 134.974623 
L 151.091196 134.974623 
L 151.234885 134.866603 
L 151.234885 134.865015 
L 151.348043 134.780823 
L 151.451854 134.672803 
L 151.564498 134.558429 
L 151.715154 134.448821 
L 151.828891 134.345566 
L 151.948075 134.237547 
L 152.059582 134.177183 
L 152.171819 134.091402 
L 152.298291 133.983382 
L 152.298291 133.981794 
L 152.415652 133.869008 
L 152.524651 133.760988 
L 152.636523 133.703801 
L 152.762031 133.595782 
L 152.870323 133.462345 
L 152.87311 133.462345 
L 152.979172 133.354325 
L 153.092073 133.220889 
L 153.253085 133.112869 
L 153.36307 132.995318 
L 153.364185 132.995318 
L 153.467202 132.887298 
L 153.578667 132.826934 
L 153.71944 132.718915 
L 153.832041 132.607718 
L 153.974229 132.499698 
L 153.974229 132.498109 
L 154.08683 132.385324 
L 154.208007 132.277304 
L 154.316384 132.169284 
L 154.319085 132.169284 
L 154.43338 132.061264 
L 154.543023 131.978661 
L 154.544438 131.978661 
L 154.698846 131.870641 
L 154.804158 131.794392 
L 154.809946 131.794392 
L 154.913414 131.686372 
L 155.015038 131.606945 
L 155.024386 131.606945 
L 155.17382 131.498926 
L 155.284556 131.403614 
L 155.28492 131.403614 
L 155.481693 131.295594 
L 155.592494 131.225699 
L 155.592794 131.225699 
L 155.731808 131.117679 
L 155.844195 131.022367 
L 155.973433 130.914347 
L 156.087235 130.815859 
L 156.221661 130.707839 
L 156.331561 130.622058 
L 156.332762 130.622058 
L 156.520402 130.514039 
L 156.630344 130.440966 
L 156.631459 130.440966 
L 156.812109 130.332946 
L 156.919737 130.237635 
L 156.92321 130.237635 
L 157.03684 130.129615 
L 157.139536 130.021595 
L 157.147897 130.021595 
L 157.249993 129.913575 
L 157.362165 129.830972 
L 157.442778 129.722952 
L 157.553621 129.653057 
L 157.553879 129.653057 
L 157.66828 129.545037 
L 157.772391 129.462434 
L 157.779338 129.462434 
L 157.914365 129.354414 
L 158.014788 129.29405 
L 158.025379 129.29405 
L 158.178887 129.18603 
L 158.291574 129.062125 
L 158.44877 128.954105 
L 158.555796 128.852439 
L 158.559848 128.852439 
L 158.701715 128.744419 
L 158.806726 128.674524 
L 158.812772 128.674524 
L 158.928203 128.564916 
L 159.037502 128.458484 
L 159.039303 128.458484 
L 159.211421 128.350464 
L 159.321663 128.239268 
L 159.32235 128.239268 
L 159.416169 128.131248 
L 159.526884 128.045467 
L 159.527227 128.045467 
L 159.639828 127.937447 
L 159.745654 127.829427 
L 159.750928 127.829427 
L 159.862157 127.721408 
L 159.971542 127.622919 
L 159.973257 127.622919 
L 160.146404 127.514899 
L 160.257397 127.41641 
L 160.257504 127.41641 
L 160.359514 127.308391 
L 160.468642 127.194017 
L 160.470571 127.194017 
L 160.619148 127.085997 
L 160.731856 127.00657 
L 160.848381 126.89855 
L 160.953028 126.822301 
L 160.959481 126.822301 
L 161.146306 126.714281 
L 161.257407 126.634855 
L 161.411536 126.526835 
L 161.523215 126.437878 
L 161.671664 126.329858 
L 161.782742 126.228192 
L 161.782764 126.228192 
L 161.944505 126.123349 
L 162.055133 126.018506 
L 162.055605 126.018506 
L 162.259324 125.910486 
L 162.365193 125.834237 
L 162.370382 125.834237 
L 162.504594 125.726217 
L 162.594598 125.656322 
L 162.615608 125.656322 
L 162.709235 125.548302 
L 162.709235 125.546714 
L 162.821729 125.443459 
L 162.948609 125.33544 
L 163.058595 125.249659 
L 163.059709 125.249659 
L 163.215661 125.140051 
L 163.326762 125.06539 
L 163.484815 124.95737 
L 163.597159 124.865236 
L 163.724553 124.757216 
L 163.835482 124.677789 
L 163.835653 124.677789 
L 163.962619 124.569769 
L 164.069388 124.46175 
L 164.073612 124.46175 
L 164.187692 124.35373 
L 164.187692 124.352141 
L 164.303381 124.267949 
L 164.451186 124.159929 
L 164.557355 124.093211 
L 164.562243 124.093211 
L 164.733717 123.985191 
L 164.845632 123.92165 
L 164.967881 123.81363 
L 165.078467 123.731027 
L 165.07896 123.731027 
L 165.277041 123.623007 
L 165.386297 123.540404 
L 165.388055 123.540404 
L 165.57964 123.432384 
L 165.693785 123.321187 
L 165.832156 123.213167 
L 165.944114 123.149626 
L 166.153408 123.041606 
L 166.26498 122.952649 
L 166.415143 122.844629 
L 166.524657 122.739786 
L 166.526201 122.739786 
L 166.70788 122.631766 
L 166.816665 122.545986 
L 166.818552 122.545986 
L 166.999931 122.437966 
L 167.108673 122.374425 
L 167.110989 122.374425 
L 167.219345 122.266405 
L 167.331517 122.183801 
L 167.526575 122.075782 
L 167.6312 121.996355 
L 167.637632 121.996355 
L 167.791355 121.888335 
L 167.900997 121.78667 
L 167.902455 121.78667 
L 168.077917 121.67865 
L 168.190068 121.599223 
L 168.340853 121.491204 
L 168.426311 121.411777 
L 168.451867 121.411777 
L 168.597914 121.303757 
L 168.705799 121.2148 
L 168.708843 121.2148 
L 168.85296 121.10678 
L 168.963417 121.020999 
L 168.964061 121.020999 
L 169.086267 120.91298 
L 169.196895 120.839907 
L 169.197367 120.839907 
L 169.330293 120.731887 
L 169.441221 120.633399 
L 169.585296 120.525379 
L 169.690779 120.44913 
L 169.696396 120.44913 
L 169.805567 120.34111 
L 169.914009 120.248975 
L 169.916667 120.248975 
L 170.040631 120.140955 
L 170.154604 120.036113 
L 170.294605 119.928093 
L 170.408664 119.816896 
L 170.573106 119.708876 
L 170.683413 119.591325 
L 170.684164 119.591325 
L 170.828581 119.483305 
L 170.938395 119.362577 
L 170.939596 119.362577 
L 171.055113 119.254557 
L 171.167499 119.156068 
L 171.334257 119.048049 
L 171.441755 118.984507 
L 171.445357 118.984507 
L 171.65195 118.876488 
L 171.75486 118.809769 
L 171.762921 118.809769 
L 171.955964 118.70175 
L 172.060075 118.615969 
L 172.067064 118.615969 
L 172.215341 118.507949 
L 172.317436 118.403106 
L 172.326312 118.403106 
L 172.480378 118.295087 
L 172.587619 118.190244 
L 172.591478 118.190244 
L 172.753605 118.082224 
L 172.864019 118.012329 
L 172.864705 118.012329 
L 173.020314 117.904309 
L 173.12554 117.837591 
L 173.131414 117.837591 
L 173.212756 117.729571 
L 173.323513 117.640613 
L 173.323813 117.640613 
L 173.463043 117.532593 
L 173.463043 117.531005 
L 173.575386 117.430928 
L 173.711014 117.322908 
L 173.816711 117.218065 
L 173.822114 117.218065 
L 174.006195 117.110045 
L 174.110649 117.011557 
L 174.117295 117.011557 
L 174.255538 116.903537 
L 174.367667 116.827287 
L 174.524948 116.719268 
L 174.622563 116.639841 
L 174.636049 116.639841 
L 174.798819 116.531821 
L 174.909061 116.423801 
L 174.909876 116.423801 
L 175.038943 116.315782 
L 175.148413 116.214116 
L 175.150043 116.214116 
L 175.267575 116.106096 
L 175.366626 116.036201 
L 175.378632 116.036201 
L 175.506413 115.928181 
L 175.617963 115.858286 
L 175.768491 115.750266 
L 175.873695 115.680371 
L 175.879506 115.680371 
L 176.092916 115.572351 
L 176.202987 115.492924 
L 176.203887 115.492924 
L 176.39157 115.383316 
L 176.50117 115.283239 
L 176.50237 115.283239 
L 176.624533 115.175219 
L 176.736191 115.083084 
L 176.859255 114.975065 
L 176.97117 114.847982 
L 177.100322 114.739962 
L 177.212966 114.61288 
L 177.337187 114.50486 
L 177.446315 114.431788 
L 177.448266 114.431788 
L 177.585459 114.323768 
L 177.6933 114.263404 
L 177.696473 114.263404 
L 177.826226 114.155384 
L 177.932524 114.101375 
L 177.937069 114.101375 
L 178.089205 113.993355 
L 178.193659 113.932991 
L 178.200219 113.932991 
L 178.384514 113.824971 
L 178.487553 113.745544 
L 178.495615 113.745544 
L 178.679095 113.637525 
L 178.789381 113.548567 
L 178.790153 113.548567 
L 178.922478 113.438959 
L 179.028133 113.361121 
L 179.033535 113.361121 
L 179.212599 113.253101 
L 179.319154 113.183206 
L 179.323314 113.183206 
L 179.526948 113.075186 
L 179.636504 112.992582 
L 179.637919 112.992582 
L 179.872812 112.884563 
L 179.985542 112.75748 
L 180.14188 112.649461 
L 180.250536 112.573211 
L 180.25298 112.573211 
L 180.399627 112.465191 
L 180.50481 112.392119 
L 180.510684 112.392119 
L 180.708144 112.284099 
L 180.819973 112.204673 
L 180.969622 112.095065 
L 181.077292 112.023581 
L 181.08055 112.023581 
L 181.235045 111.915561 
L 181.345652 111.842489 
L 181.346102 111.842489 
L 181.524523 111.734469 
L 181.524523 111.73288 
L 181.636309 111.674105 
L 181.779269 111.566085 
L 181.887196 111.512075 
L 181.890283 111.512075 
L 182.024024 111.404055 
L 182.132208 111.346868 
L 182.135124 111.346868 
L 182.313673 111.23726 
L 182.417055 111.165776 
L 182.424709 111.165776 
L 182.664512 111.057756 
L 182.774326 110.975153 
L 182.775569 110.975153 
L 182.931178 110.867133 
L 183.031945 110.803592 
L 183.041935 110.803592 
L 183.23129 110.695572 
L 183.344234 110.625677 
L 183.501387 110.517657 
L 183.60314 110.457293 
L 183.612359 110.457293 
L 183.867062 110.349273 
L 183.977948 110.279378 
L 183.978162 110.279378 
L 184.200277 110.171358 
L 184.31232 110.123702 
L 184.49087 110.015682 
L 184.597425 109.936256 
L 184.601927 109.936256 
L 184.798657 109.828236 
L 184.904698 109.755164 
L 184.909715 109.755164 
L 185.120467 109.647144 
L 185.229037 109.561363 
L 185.23131 109.561363 
L 185.426753 109.453344 
L 185.535024 109.39298 
L 185.537811 109.39298 
L 185.674896 109.28496 
L 185.674896 109.283371 
L 185.788054 109.20871 
L 186.026592 109.100691 
L 186.135463 109.011733 
L 186.137692 109.011733 
L 186.290385 108.903713 
L 186.398356 108.824287 
L 186.401486 108.824287 
L 186.545003 108.716267 
L 186.657046 108.646372 
L 186.787828 108.538352 
L 186.897685 108.474811 
L 186.898886 108.474811 
L 187.09047 108.366791 
L 187.190979 108.290542 
L 187.201528 108.290542 
L 187.38638 108.182522 
L 187.473511 108.147574 
L 187.497481 108.147574 
L 187.705574 108.039554 
L 187.80812 107.956951 
L 187.816546 107.956951 
L 188.005215 107.848931 
L 188.117451 107.763151 
L 188.34216 107.655131 
L 188.455104 107.588413 
L 188.601408 107.480393 
L 188.691583 107.439091 
L 188.712509 107.439091 
L 188.890286 107.331071 
L 188.998771 107.26753 
L 189.001043 107.26753 
L 189.189326 107.15951 
L 189.292322 107.089615 
L 189.300427 107.089615 
L 189.472716 106.981595 
L 189.583087 106.902169 
L 189.58373 106.902169 
L 189.736509 106.794149 
L 189.84851 106.727431 
L 190.022514 106.619411 
L 190.131964 106.53363 
L 190.133614 106.53363 
L 190.388489 106.425611 
L 190.388489 106.424022 
L 190.503791 106.349361 
L 190.678567 106.241341 
L 190.787481 106.161915 
L 190.789625 106.161915 
L 190.980245 106.053895 
L 191.091838 105.964938 
L 191.234926 105.856918 
L 191.345426 105.793377 
L 191.345769 105.793377 
L 191.478224 105.685357 
L 191.59001 105.609108 
L 191.789699 105.501088 
L 191.899212 105.443901 
L 191.900799 105.443901 
L 192.103447 105.335881 
L 192.203741 105.278694 
L 192.214461 105.278694 
L 192.402701 105.170674 
L 192.510328 105.094425 
L 192.513759 105.094425 
L 192.734544 104.986405 
L 192.83351 104.926041 
L 192.845559 104.926041 
L 192.988132 104.818021 
L 193.100519 104.716355 
L 193.286186 104.608335 
L 193.359553 104.541617 
L 193.397244 104.541617 
L 193.558899 104.433597 
L 193.667855 104.373233 
L 193.669956 104.373233 
L 193.843188 104.265213 
L 193.953774 104.208026 
L 193.954246 104.208026 
L 194.152991 104.100007 
L 194.262419 104.039643 
L 194.263706 104.039643 
L 194.433508 103.931623 
L 194.543236 103.861728 
L 194.544608 103.861728 
L 194.800254 103.753708 
L 194.912427 103.667927 
L 195.168974 103.559907 
L 195.280546 103.486835 
L 195.475775 103.378815 
L 195.585589 103.318451 
L 195.586747 103.318451 
L 195.815465 103.210431 
L 195.928409 103.143713 
L 196.089764 103.035693 
L 196.200049 102.978506 
L 196.200778 102.978506 
L 196.470275 102.870486 
L 196.579145 102.794237 
L 196.581289 102.794237 
L 196.855116 102.686217 
L 196.955111 102.641739 
L 196.966174 102.641739 
L 197.114107 102.533719 
L 197.222077 102.473355 
L 197.225122 102.473355 
L 197.507911 102.365335 
L 197.617639 102.292263 
L 197.619011 102.292263 
L 197.825218 102.184243 
L 197.928085 102.13341 
L 197.936275 102.13341 
L 198.1785 102.02539 
L 198.287328 101.97138 
L 198.289579 101.97138 
L 198.566858 101.86336 
L 198.674356 101.783934 
L 198.677873 101.783934 
L 198.945825 101.675914 
L 199.051266 101.606019 
L 199.056926 101.606019 
L 199.270593 101.497999 
L 199.383151 101.42175 
L 199.567018 101.31373 
L 199.67979 101.253366 
L 199.916999 101.145346 
L 200.007088 101.091336 
L 200.028013 101.091336 
L 200.296266 100.983316 
L 200.388628 100.938837 
L 200.407366 100.938837 
L 200.60221 100.830817 
L 200.713739 100.799047 
L 200.915958 100.691027 
L 201.015995 100.617955 
L 201.027058 100.617955 
L 201.270012 100.509935 
L 201.37318 100.452748 
L 201.380984 100.452748 
L 201.647479 100.344728 
L 201.759394 100.281187 
L 202.005135 100.173167 
L 202.116793 100.128688 
L 202.297357 100.020669 
L 202.409487 99.982544 
L 202.632716 99.872935 
L 202.731038 99.826868 
L 202.743774 99.826868 
L 202.949509 99.718848 
L 203.061123 99.680724 
L 203.275048 99.572704 
L 203.378752 99.483746 
L 203.386063 99.483746 
L 203.666793 99.375726 
L 203.756325 99.315362 
L 203.777551 99.315362 
L 203.991604 99.207343 
L 204.087782 99.169218 
L 204.102704 99.169218 
L 204.282926 99.061198 
L 204.383435 99.029427 
L 204.393898 99.029427 
L 204.708117 98.921408 
L 204.819432 98.88646 
L 205.04845 98.77844 
L 205.157578 98.721253 
L 205.159336 98.721253 
L 205.359368 98.613233 
L 205.464165 98.575109 
L 205.470447 98.575109 
L 205.662182 98.467089 
L 205.767665 98.390839 
L 205.773153 98.390839 
L 206.024469 98.28282 
L 206.135869 98.22881 
L 206.419387 98.12079 
L 206.527658 98.044541 
L 206.53023 98.044541 
L 206.727732 97.936521 
L 206.819537 97.885688 
L 206.838833 97.885688 
L 207.059661 97.777668 
L 207.171833 97.736366 
L 207.381299 97.628346 
L 207.487982 97.590222 
L 207.49227 97.590222 
L 207.795127 97.482202 
L 207.907342 97.399598 
L 208.214358 97.28999 
L 208.318319 97.262985 
L 208.325437 97.262985 
L 208.561551 97.154965 
L 208.673981 97.100955 
L 208.922338 96.992935 
L 209.033996 96.948457 
L 209.367061 96.840437 
L 209.474666 96.780073 
L 209.478097 96.780073 
L 209.754925 96.670464 
L 209.839783 96.630751 
L 209.866026 96.630751 
L 210.141654 96.522731 
L 210.253997 96.478253 
L 210.490734 96.370233 
L 210.589013 96.313046 
L 210.601834 96.313046 
L 210.868887 96.205026 
L 210.976299 96.154193 
L 210.979858 96.154193 
L 211.273925 96.046173 
L 211.384296 95.985809 
L 211.384982 95.985809 
L 211.572665 95.877789 
L 211.684494 95.811071 
L 211.98958 95.703051 
L 212.101516 95.63951 
L 212.318293 95.53149 
L 212.430465 95.493366 
L 212.651894 95.385346 
L 212.76368 95.334513 
L 212.942444 95.226493 
L 213.053866 95.169306 
L 213.310906 95.061286 
L 213.420677 95.004099 
L 213.422006 95.004099 
L 213.683999 94.896079 
L 213.784336 94.838892 
L 213.794842 94.838892 
L 214.116522 94.729284 
L 214.229938 94.673686 
L 214.583649 94.565666 
L 214.695993 94.521187 
L 214.929599 94.413167 
L 215.041857 94.371865 
L 215.246435 94.263846 
L 215.32649 94.222544 
L 215.357535 94.222544 
L 215.579092 94.114524 
L 215.679322 94.079576 
L 215.690192 94.079576 
L 216.005527 93.971557 
L 216.117077 93.933432 
L 216.315844 93.825412 
L 216.411229 93.790464 
L 216.426859 93.790464 
L 216.754585 93.682445 
L 216.854323 93.622081 
L 216.8656 93.622081 
L 217.177032 93.514061 
L 217.28944 93.466405 
L 217.49554 93.358385 
L 217.607497 93.326614 
L 217.822816 93.218595 
L 217.934838 93.174116 
L 218.236794 93.066096 
L 218.347423 93.002555 
L 218.34783 93.002555 
L 218.647278 92.892946 
L 218.75707 92.859587 
L 218.758378 92.859587 
L 219.034092 92.751568 
L 219.14635 92.710266 
L 219.337956 92.602246 
L 219.450107 92.551413 
L 219.743144 92.443393 
L 219.854802 92.402092 
L 220.102001 92.292483 
L 220.200237 92.259124 
L 220.213101 92.259124 
L 220.493103 92.151104 
L 220.604911 92.097094 
L 220.842355 91.989074 
L 220.954055 91.938242 
L 221.219221 91.830222 
L 221.326312 91.785743 
L 221.330321 91.785743 
L 221.56307 91.677723 
L 221.675414 91.633244 
L 221.952286 91.525224 
L 222.063386 91.490277 
L 222.400246 91.382257 
L 222.499554 91.328247 
L 222.511346 91.328247 
L 222.703488 91.220227 
L 222.813088 91.16304 
L 222.814545 91.16304 
L 223.075959 91.05502 
L 223.18811 91.004188 
L 223.481919 90.894579 
L 223.586137 90.851689 
L 223.593019 90.851689 
L 223.923125 90.743669 
L 224.035276 90.692836 
L 224.292809 90.584816 
L 224.394562 90.530806 
L 224.40391 90.530806 
L 224.748316 90.422787 
L 224.855857 90.3656 
L 224.859374 90.3656 
L 225.109488 90.25758 
L 225.214586 90.219455 
L 225.220503 90.219455 
L 225.572756 90.111435 
L 225.674938 90.054248 
L 225.683857 90.054248 
L 225.99426 89.946228 
L 226.09612 89.908104 
L 226.105339 89.908104 
L 226.464432 89.800084 
L 226.559495 89.77149 
L 226.575532 89.77149 
L 226.852918 89.66347 
L 226.963589 89.628523 
L 226.964018 89.628523 
L 227.361252 89.520503 
L 227.470637 89.479201 
L 227.472309 89.479201 
L 227.664666 89.371181 
L 227.776581 89.352119 
L 228.02318 89.244099 
L 228.134452 89.215506 
L 228.655178 89.107486 
L 228.766535 89.088424 
L 229.131245 88.980404 
L 229.243525 88.92004 
L 229.5955 88.81202 
L 229.70898 88.742125 
L 229.969085 88.632516 
L 230.066786 88.599157 
L 230.080164 88.599157 
L 230.39046 88.489549 
L 230.494786 88.424419 
L 230.501432 88.424419 
L 230.847554 88.314811 
L 230.957453 88.278275 
L 230.958611 88.278275 
L 231.224591 88.170255 
L 231.330503 88.13213 
L 231.335649 88.13213 
L 231.645173 88.022522 
L 231.756509 87.998694 
L 232.151363 87.890674 
L 232.264029 87.843018 
L 232.532817 87.734998 
L 232.644154 87.687343 
L 232.96905 87.579323 
L 233.081737 87.541198 
L 233.493485 87.433178 
L 233.605979 87.404585 
L 233.962692 87.296565 
L 234.073192 87.239378 
L 234.073792 87.239378 
L 234.393286 87.131358 
L 234.503036 87.083702 
L 234.5043 87.083702 
L 234.800468 86.975682 
L 234.903292 86.931204 
L 234.911525 86.931204 
L 235.2492 86.823184 
L 235.360943 86.772351 
L 235.665558 86.664331 
L 235.769368 86.616675 
L 235.776658 86.616675 
L 236.132556 86.508655 
L 236.244728 86.451468 
L 236.551015 86.343448 
L 236.663016 86.27673 
L 237.008152 86.16871 
L 237.110161 86.127409 
L 237.119166 86.127409 
L 237.517343 86.019389 
L 237.628765 85.968556 
L 237.966825 85.860536 
L 238.078076 85.816057 
L 238.462017 85.706449 
L 238.570866 85.644496 
L 238.573074 85.644496 
L 238.874001 85.536477 
L 238.983772 85.51106 
L 238.985037 85.51106 
L 239.279211 85.40304 
L 239.38568 85.355384 
L 239.390311 85.355384 
L 239.795992 85.247365 
L 239.907521 85.215594 
L 240.228687 85.107574 
L 240.339187 85.066272 
L 240.339573 85.066272 
L 240.699845 84.958253 
L 240.811546 84.926482 
L 241.086745 84.818462 
L 241.198017 84.780338 
L 241.448796 84.672318 
L 241.562233 84.621485 
L 241.97782 84.513465 
L 242.086004 84.481694 
L 242.088791 84.481694 
L 242.348383 84.373675 
L 242.44767 84.33555 
L 242.459354 84.33555 
L 242.791626 84.22753 
L 242.791626 84.225942 
L 242.904098 84.176697 
L 243.204639 84.068677 
L 243.316211 84.03373 
L 243.650584 83.92571 
L 243.758726 83.890762 
L 243.761684 83.890762 
L 243.986157 83.782742 
L 244.097258 83.744618 
L 244.422326 83.636598 
L 244.533726 83.608004 
L 244.871229 83.499985 
L 244.959518 83.468214 
L 244.982329 83.468214 
L 245.393885 83.360194 
L 245.505457 83.315715 
L 245.805312 83.207696 
L 245.90715 83.179102 
L 245.916412 83.179102 
L 246.277756 83.071082 
L 246.389457 83.026603 
L 246.732662 82.918584 
L 246.831671 82.874105 
L 246.843677 82.874105 
L 247.248972 82.766085 
L 247.36033 82.747023 
L 247.682568 82.639003 
L 247.794461 82.597701 
L 248.156984 82.489681 
L 248.156984 82.488093 
L 248.269114 82.451557 
L 248.643943 82.343537 
L 248.755451 82.283173 
L 249.061094 82.175153 
L 249.150283 82.143382 
L 249.172195 82.143382 
L 249.580341 82.035362 
L 249.691763 81.98453 
L 250.071159 81.87651 
L 250.18316 81.847916 
L 250.45793 81.739896 
L 250.567401 81.704949 
L 250.569009 81.704949 
L 251.027968 81.596929 
L 251.139626 81.577867 
L 251.46375 81.469847 
L 251.567304 81.428545 
L 251.574829 81.428545 
L 251.901977 81.320525 
L 252.009346 81.2824 
L 252.013034 81.2824 
L 252.387113 81.174381 
L 252.48878 81.152141 
L 252.497999 81.152141 
L 252.938777 81.042533 
L 253.051571 81.00282 
L 253.421362 80.893211 
L 253.533748 80.847144 
L 253.891919 80.737536 
L 254.002634 80.707354 
L 254.003019 80.707354 
L 254.378685 80.599334 
L 254.471776 80.564386 
L 254.489742 80.564386 
L 254.876428 80.456366 
L 254.9877 80.424596 
L 255.44698 80.316576 
L 255.556708 80.291159 
L 255.557994 80.291159 
L 255.937991 80.18314 
L 256.049563 80.157723 
L 256.449455 80.049703 
L 256.550393 80.008402 
L 256.560555 80.008402 
L 256.913838 79.900382 
L 257.025667 79.874965 
L 257.575423 79.766945 
L 257.672244 79.738352 
L 257.686523 79.738352 
L 258.073037 79.630332 
L 258.184395 79.592207 
L 258.560489 79.484188 
L 258.672104 79.446063 
L 258.913729 79.338043 
L 259.024357 79.303095 
L 259.024765 79.303095 
L 259.393762 79.195076 
L 259.503083 79.153774 
L 259.504777 79.153774 
L 259.96187 79.045754 
L 260.016155 79.013983 
L 260.072928 79.013983 
L 260.461929 78.905964 
L 260.574144 78.874193 
L 260.922924 78.766173 
L 261.030808 78.731226 
L 261.033981 78.731226 
L 261.462517 78.623206 
L 261.548619 78.585081 
L 261.573617 78.585081 
L 262.041602 78.477061 
L 262.15296 78.454822 
L 262.607652 78.346802 
L 262.713821 78.292792 
L 262.718709 78.292792 
L 263.05544 78.184772 
L 263.164375 78.146648 
L 263.166369 78.146648 
L 263.66021 78.037039 
L 263.752701 77.994149 
L 263.771267 77.994149 
L 264.159111 77.886129 
L 264.270339 77.873421 
L 264.691886 77.765401 
L 264.803158 77.746339 
L 265.263896 77.638319 
L 265.360439 77.622434 
L 265.374996 77.622434 
L 265.737755 77.514414 
L 265.848984 77.473112 
L 266.329146 77.365092 
L 266.440675 77.333322 
L 266.852059 77.225302 
L 266.958915 77.193531 
L 266.963138 77.193531 
L 267.412963 77.085511 
L 267.524278 77.047387 
L 268.044018 76.939367 
L 268.155376 76.91395 
L 268.63155 76.805931 
L 268.732788 76.748744 
L 268.742651 76.748744 
L 269.106053 76.640724 
L 269.217453 76.618484 
L 269.685995 76.510464 
L 269.79568 76.488225 
L 269.797053 76.488225 
L 270.18987 76.380205 
L 270.303028 76.329372 
L 270.722967 76.221352 
L 270.834646 76.192759 
L 271.199506 76.083151 
L 271.287237 76.065677 
L 271.310606 76.065677 
L 271.767742 75.957657 
L 271.867908 75.925886 
L 271.8788 75.925886 
L 272.240873 75.817867 
L 272.352273 75.79245 
L 272.738358 75.68443 
L 272.811296 75.655837 
L 272.849416 75.655837 
L 273.183403 75.547817 
L 273.29268 75.503338 
L 273.294417 75.503338 
L 273.715363 75.395318 
L 273.823848 75.354017 
L 273.826378 75.354017 
L 274.240978 75.245997 
L 274.351885 75.211049 
L 274.352078 75.211049 
L 274.890213 75.103029 
L 274.994667 75.074436 
L 275.001271 75.074436 
L 275.551283 74.964827 
L 275.652821 74.928291 
L 275.662341 74.928291 
L 276.100867 74.820271 
L 276.212868 74.785324 
L 276.712969 74.677304 
L 276.824413 74.658242 
L 277.174651 74.550222 
L 277.28618 74.518451 
L 277.776033 74.410431 
L 277.883017 74.372307 
L 277.887005 74.372307 
L 278.25403 74.264287 
L 278.365538 74.242047 
L 278.803207 74.134028 
L 278.915808 74.076841 
L 279.386537 73.968821 
L 279.49292 73.949758 
L 279.497508 73.949758 
L 279.907006 73.841739 
L 280.018449 73.816322 
L 280.352779 73.708302 
L 280.389355 73.68924 
L 280.463836 73.68924 
L 280.996483 73.58122 
L 281.102137 73.546272 
L 281.107583 73.546272 
L 281.649234 73.438253 
L 281.722215 73.425544 
L 281.760163 73.425544 
L 282.228963 73.317525 
L 282.316822 73.307993 
L 282.340063 73.307993 
L 282.799901 73.199974 
L 282.91173 73.174557 
L 283.283236 73.064949 
L 283.38546 73.044298 
L 283.394208 73.044298 
L 283.890707 72.936278 
L 284.002622 72.907685 
L 284.583465 72.799665 
L 284.683159 72.777425 
L 284.694522 72.777425 
L 285.179016 72.669405 
L 285.283898 72.647166 
L 285.290073 72.647166 
L 285.802695 72.539146 
L 285.908736 72.504199 
L 285.913624 72.504199 
L 286.421872 72.396179 
L 286.499998 72.377116 
L 286.532244 72.377116 
L 286.987322 72.269097 
L 287.098636 72.250034 
L 287.560017 72.142014 
L 287.671332 72.119775 
L 288.112088 72.011755 
L 288.182239 71.999047 
L 288.222846 71.999047 
L 288.666003 71.891027 
L 288.772258 71.859256 
L 288.777104 71.859256 
L 289.229609 71.751237 
L 289.338865 71.722643 
L 289.340666 71.722643 
L 289.815983 71.614623 
L 289.922753 71.576499 
L 289.927084 71.576499 
L 290.269432 71.468479 
L 290.380789 71.449416 
L 290.880633 71.339808 
L 290.987124 71.31598 
L 290.991734 71.31598 
L 291.477685 71.20796 
L 291.582353 71.179367 
L 291.588785 71.179367 
L 292.009302 71.071347 
L 292.099949 71.055462 
L 292.12036 71.055462 
L 292.557686 70.947442 
L 292.65485 70.928379 
L 292.668786 70.928379 
L 293.313734 70.82036 
L 293.425391 70.775881 
L 293.964384 70.667861 
L 294.069095 70.617028 
L 294.075442 70.617028 
L 294.475248 70.509008 
L 294.580731 70.489946 
L 294.58622 70.489946 
L 295.135847 70.381926 
L 295.246947 70.372395 
L 295.775048 70.264375 
L 295.880017 70.22625 
L 295.88602 70.22625 
L 296.278709 70.118231 
L 296.374715 70.080106 
L 296.389766 70.080106 
L 296.810712 69.972086 
L 296.909592 69.933961 
L 296.921598 69.933961 
L 297.51389 69.825942 
L 297.625204 69.810056 
L 298.188553 69.702036 
L 298.289919 69.670266 
L 298.29961 69.670266 
L 298.934738 69.562246 
L 299.045881 69.549538 
L 299.473174 69.441518 
L 299.584488 69.409747 
L 300.151953 69.301728 
L 300.264125 69.260426 
L 300.839566 69.152406 
L 300.942948 69.123812 
L 300.950623 69.123812 
L 301.494032 69.015793 
L 301.574731 68.974491 
L 301.60509 68.974491 
L 302.14524 68.866471 
L 302.256726 68.828346 
L 302.759057 68.720327 
L 302.858023 68.691733 
L 302.870158 68.691733 
L 303.425959 68.583713 
L 303.523038 68.55512 
L 303.537017 68.55512 
L 304.212323 68.4471 
L 304.323766 68.421683 
L 304.940928 68.313664 
L 305.052157 68.28507 
L 305.653367 68.17705 
L 305.764553 68.154811 
L 306.630158 68.046791 
L 306.729981 68.024552 
L 306.741258 68.024552 
L 307.568872 67.916532 
L 307.675813 67.878407 
L 307.679843 67.878407 
L 308.300264 67.770387 
L 308.388166 67.754502 
L 308.411235 67.754502 
L 308.873088 67.646482 
L 308.982345 67.60518 
L 308.983803 67.60518 
L 309.668714 67.497161 
L 309.757002 67.468567 
L 309.779814 67.468567 
L 310.393889 67.360547 
L 310.497699 67.322423 
L 310.504989 67.322423 
L 311.047669 67.214403 
L 311.159113 67.188986 
L 311.914774 67.080966 
L 311.974505 67.061904 
L 312.025875 67.061904 
L 312.738314 66.953884 
L 312.848943 66.922114 
L 312.849415 66.922114 
L 313.396469 66.814094 
L 313.493204 66.798208 
L 313.507569 66.798208 
L 314.34706 66.690189 
L 314.458332 66.674303 
L 315.154091 66.566284 
L 315.253657 66.540867 
L 315.264763 66.540867 
L 315.963738 66.432847 
L 316.042636 66.416962 
L 316.074667 66.416962 
L 316.78582 66.308942 
L 316.897349 66.28988 
L 317.550744 66.18186 
L 317.657385 66.146912 
L 317.661844 66.146912 
L 318.427712 66.038892 
L 318.538983 66.01983 
L 319.322688 65.91181 
L 319.413378 65.889571 
L 319.433746 65.889571 
L 320.181732 65.781551 
L 320.290217 65.759312 
L 320.292747 65.759312 
L 321.017793 65.651292 
L 321.118816 65.629052 
L 321.128764 65.629052 
L 321.717326 65.521033 
L 321.828555 65.511501 
L 322.631512 65.403482 
L 322.742784 65.384419 
L 323.525203 65.276399 
L 323.633001 65.247806 
L 323.636174 65.247806 
L 324.395824 65.139786 
L 324.47991 65.111192 
L 324.506924 65.111192 
L 325.24149 65.003173 
L 325.35289 64.977756 
L 326.121587 64.869736 
L 326.232988 64.847497 
L 326.915369 64.739477 
L 327.012534 64.698175 
L 327.026341 64.698175 
L 327.61696 64.590156 
L 327.71554 64.567916 
L 327.72806 64.567916 
L 328.558461 64.459896 
L 328.670376 64.440834 
L 329.512268 64.332814 
L 329.583619 64.316929 
L 329.623197 64.316929 
L 330.341682 64.208909 
L 330.423668 64.18667 
L 330.45274 64.18667 
L 331.285885 64.07865 
L 331.387294 64.05641 
L 331.396213 64.05641 
L 332.052995 63.948391 
L 332.151103 63.926151 
L 332.164053 63.926151 
L 332.799824 63.818131 
L 332.91101 63.8086 
L 333.740339 63.70058 
L 333.851696 63.675164 
L 334.601741 63.567144 
L 334.713184 63.548082 
L 335.633203 63.440062 
L 335.744346 63.433708 
L 336.408889 63.325688 
L 336.502366 63.300271 
L 336.519989 63.300271 
L 337.156018 63.192252 
L 337.267461 63.166835 
L 337.957389 63.058815 
L 338.066389 63.030222 
L 338.068318 63.030222 
L 339.053341 62.922202 
L 339.164913 62.90314 
L 339.900765 62.79512 
L 339.987681 62.785589 
L 340.011822 62.785589 
L 340.74463 62.677569 
L 340.818639 62.668038 
L 340.855687 62.668038 
L 341.733727 62.560018 
L 341.845084 62.537778 
L 342.436776 62.429758 
L 342.53424 62.41705 
L 342.547833 62.41705 
L 343.264946 62.30903 
L 343.356365 62.293145 
L 343.375918 62.293145 
L 344.343104 62.185125 
L 344.43092 62.162886 
L 344.454032 62.162886 
L 345.263336 62.054866 
L 345.36972 62.042158 
L 345.374265 62.042158 
L 346.15887 61.934138 
L 346.208996 61.92143 
L 346.269885 61.92143 
L 346.860762 61.81341 
L 346.970661 61.797525 
L 346.971862 61.797525 
L 348.121842 61.689505 
L 348.217206 61.670442 
L 348.232856 61.670442 
L 348.864211 61.562423 
L 348.973082 61.546537 
L 348.975011 61.546537 
L 349.783929 61.438517 
L 349.895587 61.419455 
L 351.114817 61.311435 
L 351.225574 61.29555 
L 352.403426 61.18753 
L 352.514569 61.171645 
L 353.317784 61.063625 
L 353.429313 61.028677 
L 354.21602 60.920657 
L 354.272449 60.914303 
L 354.32712 60.914303 
L 355.255714 60.806284 
L 355.367029 60.796752 
L 356.428635 60.688732 
L 356.540078 60.66967 
L 357.400751 60.56165 
L 357.51168 60.548942 
L 358.003677 60.440922 
L 358.097025 60.428214 
L 358.114692 60.428214 
L 358.699394 60.320194 
L 358.793428 60.304309 
L 358.810408 60.304309 
L 359.799462 60.196289 
L 359.895855 60.17405 
L 359.910177 60.17405 
L 360.716822 60.06603 
L 360.782556 60.056499 
L 360.827751 60.056499 
L 361.516092 59.948479 
L 361.624448 59.926239 
L 361.62715 59.926239 
L 362.331485 59.81822 
L 362.430236 59.805511 
L 362.442542 59.805511 
L 363.169132 59.697491 
L 363.249445 59.675252 
L 363.280189 59.675252 
L 364.137861 59.567232 
L 364.22392 59.551347 
L 364.248961 59.551347 
L 365.201182 59.443327 
L 365.310653 59.430619 
L 365.31224 59.430619 
L 366.405019 59.322599 
L 366.50184 59.30036 
L 366.516119 59.30036 
L 367.428419 59.19234 
L 367.517436 59.179632 
L 367.539262 59.179632 
L 368.455935 59.071612 
L 368.551599 59.055726 
L 368.567036 59.055726 
L 369.424493 58.947707 
L 369.52839 58.928644 
L 369.535593 58.928644 
L 370.53481 58.820624 
L 370.640293 58.807916 
L 370.645824 58.807916 
L 371.722524 58.699896 
L 371.833409 58.680834 
L 371.833581 58.680834 
L 372.839401 58.572814 
L 372.947113 58.563283 
L 372.950458 58.563283 
L 373.69823 58.455263 
L 373.79681 58.442555 
L 373.809245 58.442555 
L 374.887316 58.334535 
L 374.971145 58.312296 
L 374.998245 58.312296 
L 376.328661 58.204276 
L 376.439847 58.191568 
L 377.683132 58.083548 
L 377.715549 58.074017 
L 377.794061 58.074017 
L 378.641828 57.965997 
L 378.753142 57.943757 
L 379.510305 57.835737 
L 379.621362 57.816675 
L 380.607415 57.708655 
L 380.668604 57.702301 
L 380.718001 57.702301 
L 381.72262 57.594281 
L 381.833634 57.587927 
L 382.656016 57.479907 
L 382.753953 57.467199 
L 382.767117 57.467199 
L 383.723154 57.359179 
L 383.834254 57.346471 
L 384.636611 57.238451 
L 384.73875 57.222566 
L 384.747669 57.222566 
L 385.760521 57.114546 
L 385.842677 57.098661 
L 385.871621 57.098661 
L 386.817152 56.990641 
L 386.817152 56.987464 
L 386.928253 56.987464 
L 387.984155 56.879444 
L 388.073859 56.869913 
L 388.095213 56.869913 
L 389.105664 56.761893 
L 389.186491 56.749185 
L 389.216721 56.749185 
L 390.159337 56.641165 
L 390.270523 56.622103 
L 391.458965 56.514083 
L 391.553557 56.507729 
L 391.569422 56.507729 
L 392.653668 56.399709 
L 392.714643 56.390178 
L 392.764683 56.390178 
L 393.816255 56.282158 
L 393.880745 56.275804 
L 393.926926 56.275804 
L 394.679844 56.167784 
L 394.733958 56.158253 
L 394.790944 56.158253 
L 395.740035 56.050233 
L 395.780556 56.043879 
L 395.850964 56.043879 
L 396.671116 55.935859 
L 396.706963 55.913619 
L 396.782216 55.913619 
L 397.745242 55.8056 
L 397.82294 55.78336 
L 397.8563 55.78336 
L 398.749904 55.67534 
L 398.780692 55.668986 
L 398.860662 55.668986 
L 400.007297 55.560966 
L 400.111751 55.538727 
L 400.118097 55.538727 
L 401.228028 55.430707 
L 401.3393 55.414822 
L 402.123219 55.306802 
L 402.176904 55.297271 
L 402.234319 55.297271 
L 403.529146 55.189251 
L 403.576913 55.176543 
L 403.640203 55.176543 
L 404.965474 55.068523 
L 405.070828 55.046284 
L 405.073572 55.046284 
L 406.299449 54.938264 
L 406.322603 54.93191 
L 406.410334 54.93191 
L 407.609797 54.82389 
L 407.701559 54.808004 
L 407.719482 54.808004 
L 409.002131 54.699985 
L 409.113103 54.687276 
L 410.029133 54.579256 
L 410.073985 54.569725 
L 410.139719 54.569725 
L 411.373485 54.461705 
L 411.482012 54.439466 
L 411.484242 54.439466 
L 412.748839 54.331446 
L 412.855093 54.318738 
L 412.859038 54.318738 
L 414.248842 54.210718 
L 414.342576 54.201187 
L 414.359557 54.201187 
L 414.72 54.144 
L 414.72 54.144 
" clip-path="url(#p8910b43c20)" style="fill: none; stroke: #ff8c00; stroke-width: 1.5; stroke-linecap: square"/>
   </g>
   <g id="line2d_14">
    <path d="M 74.605714 307.584 
L 414.72 54.144 
" clip-path="url(#p8910b43c20)" style="fill: none; stroke-dasharray: 5.55,2.4; stroke-dashoffset: 0; stroke: #0000ff; stroke-width: 1.5"/>
   </g>
   <g id="patch_3">
    <path d="M 57.6 307.584 
L 57.6 41.472 
" style="fill: none; stroke: #000000; stroke-width: 0.8; stroke-linejoin: miter; stroke-linecap: square"/>
   </g>
   <g id="patch_4">
    <path d="M 414.72 307.584 
L 414.72 41.472 
" style="fill: none; stroke: #000000; stroke-width: 0.8; stroke-linejoin: miter; stroke-linecap: square"/>
   </g>
   <g id="patch_5">
    <path d="M 57.6 307.584 
L 414.72 307.584 
" style="fill: none; stroke: #000000; stroke-width: 0.8; stroke-linejoin: miter; stroke-linecap: square"/>
   </g>
   <g id="patch_6">
    <path d="M 57.6 41.472 
L 414.72 41.472 
" style="fill: none; stroke: #000000; stroke-width: 0.8; stroke-linejoin: miter; stroke-linecap: square"/>
   </g>
   <g id="text_15">
    <!-- ROC CURVE -->
    <g transform="translate(200.855625 35.472)scale(0.12 -0.12)">
     <defs>
      <path id="DejaVuSans-4f" d="M 2522 4238 
Q 1834 4238 1429 3725 
Q 1025 3213 1025 2328 
Q 1025 1447 1429 934 
Q 1834 422 2522 422 
Q 3209 422 3611 934 
Q 4013 1447 4013 2328 
Q 4013 3213 3611 3725 
Q 3209 4238 2522 4238 
z
M 2522 4750 
Q 3503 4750 4090 4092 
Q 4678 3434 4678 2328 
Q 4678 1225 4090 567 
Q 3503 -91 2522 -91 
Q 1538 -91 948 565 
Q 359 1222 359 2328 
Q 359 3434 948 4092 
Q 1538 4750 2522 4750 
z
" transform="scale(0.015625)"/>
      <path id="DejaVuSans-43" d="M 4122 4306 
L 4122 3641 
Q 3803 3938 3442 4084 
Q 3081 4231 2675 4231 
Q 1875 4231 1450 3742 
Q 1025 3253 1025 2328 
Q 1025 1406 1450 917 
Q 1875 428 2675 428 
Q 3081 428 3442 575 
Q 3803 722 4122 1019 
L 4122 359 
Q 3791 134 3420 21 
Q 3050 -91 2638 -91 
Q 1578 -91 968 557 
Q 359 1206 359 2328 
Q 359 3453 968 4101 
Q 1578 4750 2638 4750 
Q 3056 4750 3426 4639 
Q 3797 4528 4122 4306 
z
" transform="scale(0.015625)"/>
      <path id="DejaVuSans-55" d="M 556 4666 
L 1191 4666 
L 1191 1831 
Q 1191 1081 1462 751 
Q 1734 422 2344 422 
Q 2950 422 3222 751 
Q 3494 1081 3494 1831 
L 3494 4666 
L 4128 4666 
L 4128 1753 
Q 4128 841 3676 375 
Q 3225 -91 2344 -91 
Q 1459 -91 1007 375 
Q 556 841 556 1753 
L 556 4666 
z
" transform="scale(0.015625)"/>
      <path id="DejaVuSans-56" d="M 1831 0 
L 50 4666 
L 709 4666 
L 2188 738 
L 3669 4666 
L 4325 4666 
L 2547 0 
L 1831 0 
z
" transform="scale(0.015625)"/>
      <path id="DejaVuSans-45" d="M 628 4666 
L 3578 4666 
L 3578 4134 
L 1259 4134 
L 1259 2753 
L 3481 2753 
L 3481 2222 
L 1259 2222 
L 1259 531 
L 3634 531 
L 3634 0 
L 628 0 
L 628 4666 
z
" transform="scale(0.015625)"/>
     </defs>
     <use xlink:href="#DejaVuSans-52"/>
     <use xlink:href="#DejaVuSans-4f" x="69.482422"/>
     <use xlink:href="#DejaVuSans-43" x="148.193359"/>
     <use xlink:href="#DejaVuSans-20" x="218.017578"/>
     <use xlink:href="#DejaVuSans-43" x="249.804688"/>
     <use xlink:href="#DejaVuSans-55" x="319.628906"/>
     <use xlink:href="#DejaVuSans-52" x="392.822266"/>
     <use xlink:href="#DejaVuSans-56" x="456.804688"/>
     <use xlink:href="#DejaVuSans-45" x="525.212891"/>
    </g>
   </g>
   <g id="legend_1">
    <g id="patch_7">
     <path d="M 234.97 302.584 
L 407.72 302.584 
Q 409.72 302.584 409.72 300.584 
L 409.72 286.905875 
Q 409.72 284.905875 407.72 284.905875 
L 234.97 284.905875 
Q 232.97 284.905875 232.97 286.905875 
L 232.97 300.584 
Q 232.97 302.584 234.97 302.584 
z
" style="fill: #ffffff; opacity: 0.8; stroke: #cccccc; stroke-linejoin: miter"/>
    </g>
    <g id="line2d_15">
     <path d="M 236.97 293.004312 
L 246.97 293.004312 
L 256.97 293.004312 
" style="fill: none; stroke: #ff8c00; stroke-width: 1.5; stroke-linecap: square"/>
    </g>
    <g id="text_16">
     <!-- ROC curve (ROC AUC=0.79) -->
     <g transform="translate(264.97 296.504312)scale(0.1 -0.1)">
      <defs>
       <path id="DejaVuSans-63" d="M 3122 3366 
L 3122 2828 
Q 2878 2963 2633 3030 
Q 2388 3097 2138 3097 
Q 1578 3097 1268 2742 
Q 959 2388 959 1747 
Q 959 1106 1268 751 
Q 1578 397 2138 397 
Q 2388 397 2633 464 
Q 2878 531 3122 666 
L 3122 134 
Q 2881 22 2623 -34 
Q 2366 -91 2075 -91 
Q 1284 -91 818 406 
Q 353 903 353 1747 
Q 353 2603 823 3093 
Q 1294 3584 2113 3584 
Q 2378 3584 2631 3529 
Q 2884 3475 3122 3366 
z
" transform="scale(0.015625)"/>
       <path id="DejaVuSans-28" d="M 1984 4856 
Q 1566 4138 1362 3434 
Q 1159 2731 1159 2009 
Q 1159 1288 1364 580 
Q 1569 -128 1984 -844 
L 1484 -844 
Q 1016 -109 783 600 
Q 550 1309 550 2009 
Q 550 2706 781 3412 
Q 1013 4119 1484 4856 
L 1984 4856 
z
" transform="scale(0.015625)"/>
       <path id="DejaVuSans-41" d="M 2188 4044 
L 1331 1722 
L 3047 1722 
L 2188 4044 
z
M 1831 4666 
L 2547 4666 
L 4325 0 
L 3669 0 
L 3244 1197 
L 1141 1197 
L 716 0 
L 50 0 
L 1831 4666 
z
" transform="scale(0.015625)"/>
       <path id="DejaVuSans-3d" d="M 678 2906 
L 4684 2906 
L 4684 2381 
L 678 2381 
L 678 2906 
z
M 678 1631 
L 4684 1631 
L 4684 1100 
L 678 1100 
L 678 1631 
z
" transform="scale(0.015625)"/>
       <path id="DejaVuSans-37" d="M 525 4666 
L 3525 4666 
L 3525 4397 
L 1831 0 
L 1172 0 
L 2766 4134 
L 525 4134 
L 525 4666 
z
" transform="scale(0.015625)"/>
       <path id="DejaVuSans-39" d="M 703 97 
L 703 672 
Q 941 559 1184 500 
Q 1428 441 1663 441 
Q 2288 441 2617 861 
Q 2947 1281 2994 2138 
Q 2813 1869 2534 1725 
Q 2256 1581 1919 1581 
Q 1219 1581 811 2004 
Q 403 2428 403 3163 
Q 403 3881 828 4315 
Q 1253 4750 1959 4750 
Q 2769 4750 3195 4129 
Q 3622 3509 3622 2328 
Q 3622 1225 3098 567 
Q 2575 -91 1691 -91 
Q 1453 -91 1209 -44 
Q 966 3 703 97 
z
M 1959 2075 
Q 2384 2075 2632 2365 
Q 2881 2656 2881 3163 
Q 2881 3666 2632 3958 
Q 2384 4250 1959 4250 
Q 1534 4250 1286 3958 
Q 1038 3666 1038 3163 
Q 1038 2656 1286 2365 
Q 1534 2075 1959 2075 
z
" transform="scale(0.015625)"/>
       <path id="DejaVuSans-29" d="M 513 4856 
L 1013 4856 
Q 1481 4119 1714 3412 
Q 1947 2706 1947 2009 
Q 1947 1309 1714 600 
Q 1481 -109 1013 -844 
L 513 -844 
Q 928 -128 1133 580 
Q 1338 1288 1338 2009 
Q 1338 2731 1133 3434 
Q 928 4138 513 4856 
z
" transform="scale(0.015625)"/>
      </defs>
      <use xlink:href="#DejaVuSans-52"/>
      <use xlink:href="#DejaVuSans-4f" x="69.482422"/>
      <use xlink:href="#DejaVuSans-43" x="148.193359"/>
      <use xlink:href="#DejaVuSans-20" x="218.017578"/>
      <use xlink:href="#DejaVuSans-63" x="249.804688"/>
      <use xlink:href="#DejaVuSans-75" x="304.785156"/>
      <use xlink:href="#DejaVuSans-72" x="368.164062"/>
      <use xlink:href="#DejaVuSans-76" x="409.277344"/>
      <use xlink:href="#DejaVuSans-65" x="468.457031"/>
      <use xlink:href="#DejaVuSans-20" x="529.980469"/>
      <use xlink:href="#DejaVuSans-28" x="561.767578"/>
      <use xlink:href="#DejaVuSans-52" x="600.78125"/>
      <use xlink:href="#DejaVuSans-4f" x="670.263672"/>
      <use xlink:href="#DejaVuSans-43" x="748.974609"/>
      <use xlink:href="#DejaVuSans-20" x="818.798828"/>
      <use xlink:href="#DejaVuSans-41" x="850.585938"/>
      <use xlink:href="#DejaVuSans-55" x="918.994141"/>
      <use xlink:href="#DejaVuSans-43" x="992.1875"/>
      <use xlink:href="#DejaVuSans-3d" x="1062.011719"/>
      <use xlink:href="#DejaVuSans-30" x="1145.800781"/>
      <use xlink:href="#DejaVuSans-2e" x="1209.423828"/>
      <use xlink:href="#DejaVuSans-37" x="1241.210938"/>
      <use xlink:href="#DejaVuSans-39" x="1304.833984"/>
      <use xlink:href="#DejaVuSans-29" x="1368.457031"/>
     </g>
    </g>
   </g>
  </g>
 </g>
 <defs>
  <clipPath id="p8910b43c20">
   <rect x="57.6" y="41.472" width="357.12" height="266.112"/>
  </clipPath>
 </defs>
</svg>
