<?xml version="1.0" encoding="utf-8" standalone="no"?>
<!DOCTYPE svg PUBLIC "-//W3C//DTD SVG 1.1//EN"
  "http://www.w3.org/Graphics/SVG/1.1/DTD/svg11.dtd">
<svg xmlns:xlink="http://www.w3.org/1999/xlink" width="460.8pt" height="345.6pt" viewBox="0 0 460.8 345.6" xmlns="http://www.w3.org/2000/svg" version="1.1">
 <metadata>
  <rdf:RDF xmlns:dc="http://purl.org/dc/elements/1.1/" xmlns:cc="http://creativecommons.org/ns#" xmlns:rdf="http://www.w3.org/1999/02/22-rdf-syntax-ns#">
   <cc:Work>
    <dc:type rdf:resource="http://purl.org/dc/dcmitype/StillImage"/>
    <dc:date>2022-05-23T19:00:48.519612</dc:date>
    <dc:format>image/svg+xml</dc:format>
    <dc:creator>
     <cc:Agent>
      <dc:title>Matplotlib v3.5.1, https://matplotlib.org/</dc:title>
     </cc:Agent>
    </dc:creator>
   </cc:Work>
  </rdf:RDF>
 </metadata>
 <defs>
  <style type="text/css">*{stroke-linejoin: round; stroke-linecap: butt}</style>
 </defs>
 <g id="figure_1">
  <g id="patch_1">
   <path d="M 0 345.6 
L 460.8 345.6 
L 460.8 0 
L 0 0 
z
" style="fill: #ffffff"/>
  </g>
  <g id="axes_1">
   <g id="patch_2">
    <path d="M 57.6 307.584 
L 414.72 307.584 
L 414.72 41.472 
L 57.6 41.472 
z
" style="fill: #ffffff"/>
   </g>
   <g id="matplotlib.axis_1">
    <g id="xtick_1">
     <g id="line2d_1">
      <defs>
       <path id="m61808c721a" d="M 0 0 
L 0 3.5 
" style="stroke: #000000; stroke-width: 0.8"/>
      </defs>
      <g>
       <use xlink:href="#m61808c721a" x="74.605714" y="307.584" style="stroke: #000000; stroke-width: 0.8"/>
      </g>
     </g>
     <g id="text_1">
      <!-- 0.0 -->
      <g transform="translate(66.654152 322.182437)scale(0.1 -0.1)">
       <defs>
        <path id="DejaVuSans-30" d="M 2034 4250 
Q 1547 4250 1301 3770 
Q 1056 3291 1056 2328 
Q 1056 1369 1301 889 
Q 1547 409 2034 409 
Q 2525 409 2770 889 
Q 3016 1369 3016 2328 
Q 3016 3291 2770 3770 
Q 2525 4250 2034 4250 
z
M 2034 4750 
Q 2819 4750 3233 4129 
Q 3647 3509 3647 2328 
Q 3647 1150 3233 529 
Q 2819 -91 2034 -91 
Q 1250 -91 836 529 
Q 422 1150 422 2328 
Q 422 3509 836 4129 
Q 1250 4750 2034 4750 
z
" transform="scale(0.015625)"/>
        <path id="DejaVuSans-2e" d="M 684 794 
L 1344 794 
L 1344 0 
L 684 0 
L 684 794 
z
" transform="scale(0.015625)"/>
       </defs>
       <use xlink:href="#DejaVuSans-30"/>
       <use xlink:href="#DejaVuSans-2e" x="63.623047"/>
       <use xlink:href="#DejaVuSans-30" x="95.410156"/>
      </g>
     </g>
    </g>
    <g id="xtick_2">
     <g id="line2d_2">
      <g>
       <use xlink:href="#m61808c721a" x="142.628571" y="307.584" style="stroke: #000000; stroke-width: 0.8"/>
      </g>
     </g>
     <g id="text_2">
      <!-- 0.2 -->
      <g transform="translate(134.677009 322.182437)scale(0.1 -0.1)">
       <defs>
        <path id="DejaVuSans-32" d="M 1228 531 
L 3431 531 
L 3431 0 
L 469 0 
L 469 531 
Q 828 903 1448 1529 
Q 2069 2156 2228 2338 
Q 2531 2678 2651 2914 
Q 2772 3150 2772 3378 
Q 2772 3750 2511 3984 
Q 2250 4219 1831 4219 
Q 1534 4219 1204 4116 
Q 875 4013 500 3803 
L 500 4441 
Q 881 4594 1212 4672 
Q 1544 4750 1819 4750 
Q 2544 4750 2975 4387 
Q 3406 4025 3406 3419 
Q 3406 3131 3298 2873 
Q 3191 2616 2906 2266 
Q 2828 2175 2409 1742 
Q 1991 1309 1228 531 
z
" transform="scale(0.015625)"/>
       </defs>
       <use xlink:href="#DejaVuSans-30"/>
       <use xlink:href="#DejaVuSans-2e" x="63.623047"/>
       <use xlink:href="#DejaVuSans-32" x="95.410156"/>
      </g>
     </g>
    </g>
    <g id="xtick_3">
     <g id="line2d_3">
      <g>
       <use xlink:href="#m61808c721a" x="210.651429" y="307.584" style="stroke: #000000; stroke-width: 0.8"/>
      </g>
     </g>
     <g id="text_3">
      <!-- 0.4 -->
      <g transform="translate(202.699866 322.182437)scale(0.1 -0.1)">
       <defs>
        <path id="DejaVuSans-34" d="M 2419 4116 
L 825 1625 
L 2419 1625 
L 2419 4116 
z
M 2253 4666 
L 3047 4666 
L 3047 1625 
L 3713 1625 
L 3713 1100 
L 3047 1100 
L 3047 0 
L 2419 0 
L 2419 1100 
L 313 1100 
L 313 1709 
L 2253 4666 
z
" transform="scale(0.015625)"/>
       </defs>
       <use xlink:href="#DejaVuSans-30"/>
       <use xlink:href="#DejaVuSans-2e" x="63.623047"/>
       <use xlink:href="#DejaVuSans-34" x="95.410156"/>
      </g>
     </g>
    </g>
    <g id="xtick_4">
     <g id="line2d_4">
      <g>
       <use xlink:href="#m61808c721a" x="278.674286" y="307.584" style="stroke: #000000; stroke-width: 0.8"/>
      </g>
     </g>
     <g id="text_4">
      <!-- 0.6 -->
      <g transform="translate(270.722723 322.182437)scale(0.1 -0.1)">
       <defs>
        <path id="DejaVuSans-36" d="M 2113 2584 
Q 1688 2584 1439 2293 
Q 1191 2003 1191 1497 
Q 1191 994 1439 701 
Q 1688 409 2113 409 
Q 2538 409 2786 701 
Q 3034 994 3034 1497 
Q 3034 2003 2786 2293 
Q 2538 2584 2113 2584 
z
M 3366 4563 
L 3366 3988 
Q 3128 4100 2886 4159 
Q 2644 4219 2406 4219 
Q 1781 4219 1451 3797 
Q 1122 3375 1075 2522 
Q 1259 2794 1537 2939 
Q 1816 3084 2150 3084 
Q 2853 3084 3261 2657 
Q 3669 2231 3669 1497 
Q 3669 778 3244 343 
Q 2819 -91 2113 -91 
Q 1303 -91 875 529 
Q 447 1150 447 2328 
Q 447 3434 972 4092 
Q 1497 4750 2381 4750 
Q 2619 4750 2861 4703 
Q 3103 4656 3366 4563 
z
" transform="scale(0.015625)"/>
       </defs>
       <use xlink:href="#DejaVuSans-30"/>
       <use xlink:href="#DejaVuSans-2e" x="63.623047"/>
       <use xlink:href="#DejaVuSans-36" x="95.410156"/>
      </g>
     </g>
    </g>
    <g id="xtick_5">
     <g id="line2d_5">
      <g>
       <use xlink:href="#m61808c721a" x="346.697143" y="307.584" style="stroke: #000000; stroke-width: 0.8"/>
      </g>
     </g>
     <g id="text_5">
      <!-- 0.8 -->
      <g transform="translate(338.74558 322.182437)scale(0.1 -0.1)">
       <defs>
        <path id="DejaVuSans-38" d="M 2034 2216 
Q 1584 2216 1326 1975 
Q 1069 1734 1069 1313 
Q 1069 891 1326 650 
Q 1584 409 2034 409 
Q 2484 409 2743 651 
Q 3003 894 3003 1313 
Q 3003 1734 2745 1975 
Q 2488 2216 2034 2216 
z
M 1403 2484 
Q 997 2584 770 2862 
Q 544 3141 544 3541 
Q 544 4100 942 4425 
Q 1341 4750 2034 4750 
Q 2731 4750 3128 4425 
Q 3525 4100 3525 3541 
Q 3525 3141 3298 2862 
Q 3072 2584 2669 2484 
Q 3125 2378 3379 2068 
Q 3634 1759 3634 1313 
Q 3634 634 3220 271 
Q 2806 -91 2034 -91 
Q 1263 -91 848 271 
Q 434 634 434 1313 
Q 434 1759 690 2068 
Q 947 2378 1403 2484 
z
M 1172 3481 
Q 1172 3119 1398 2916 
Q 1625 2713 2034 2713 
Q 2441 2713 2670 2916 
Q 2900 3119 2900 3481 
Q 2900 3844 2670 4047 
Q 2441 4250 2034 4250 
Q 1625 4250 1398 4047 
Q 1172 3844 1172 3481 
z
" transform="scale(0.015625)"/>
       </defs>
       <use xlink:href="#DejaVuSans-30"/>
       <use xlink:href="#DejaVuSans-2e" x="63.623047"/>
       <use xlink:href="#DejaVuSans-38" x="95.410156"/>
      </g>
     </g>
    </g>
    <g id="xtick_6">
     <g id="line2d_6">
      <g>
       <use xlink:href="#m61808c721a" x="414.72" y="307.584" style="stroke: #000000; stroke-width: 0.8"/>
      </g>
     </g>
     <g id="text_6">
      <!-- 1.0 -->
      <g transform="translate(406.768438 322.182437)scale(0.1 -0.1)">
       <defs>
        <path id="DejaVuSans-31" d="M 794 531 
L 1825 531 
L 1825 4091 
L 703 3866 
L 703 4441 
L 1819 4666 
L 2450 4666 
L 2450 531 
L 3481 531 
L 3481 0 
L 794 0 
L 794 531 
z
" transform="scale(0.015625)"/>
       </defs>
       <use xlink:href="#DejaVuSans-31"/>
       <use xlink:href="#DejaVuSans-2e" x="63.623047"/>
       <use xlink:href="#DejaVuSans-30" x="95.410156"/>
      </g>
     </g>
    </g>
    <g id="text_7">
     <!-- False Positive Rate -->
     <g transform="translate(189.693594 335.860562)scale(0.1 -0.1)">
      <defs>
       <path id="DejaVuSans-46" d="M 628 4666 
L 3309 4666 
L 3309 4134 
L 1259 4134 
L 1259 2759 
L 3109 2759 
L 3109 2228 
L 1259 2228 
L 1259 0 
L 628 0 
L 628 4666 
z
" transform="scale(0.015625)"/>
       <path id="DejaVuSans-61" d="M 2194 1759 
Q 1497 1759 1228 1600 
Q 959 1441 959 1056 
Q 959 750 1161 570 
Q 1363 391 1709 391 
Q 2188 391 2477 730 
Q 2766 1069 2766 1631 
L 2766 1759 
L 2194 1759 
z
M 3341 1997 
L 3341 0 
L 2766 0 
L 2766 531 
Q 2569 213 2275 61 
Q 1981 -91 1556 -91 
Q 1019 -91 701 211 
Q 384 513 384 1019 
Q 384 1609 779 1909 
Q 1175 2209 1959 2209 
L 2766 2209 
L 2766 2266 
Q 2766 2663 2505 2880 
Q 2244 3097 1772 3097 
Q 1472 3097 1187 3025 
Q 903 2953 641 2809 
L 641 3341 
Q 956 3463 1253 3523 
Q 1550 3584 1831 3584 
Q 2591 3584 2966 3190 
Q 3341 2797 3341 1997 
z
" transform="scale(0.015625)"/>
       <path id="DejaVuSans-6c" d="M 603 4863 
L 1178 4863 
L 1178 0 
L 603 0 
L 603 4863 
z
" transform="scale(0.015625)"/>
       <path id="DejaVuSans-73" d="M 2834 3397 
L 2834 2853 
Q 2591 2978 2328 3040 
Q 2066 3103 1784 3103 
Q 1356 3103 1142 2972 
Q 928 2841 928 2578 
Q 928 2378 1081 2264 
Q 1234 2150 1697 2047 
L 1894 2003 
Q 2506 1872 2764 1633 
Q 3022 1394 3022 966 
Q 3022 478 2636 193 
Q 2250 -91 1575 -91 
Q 1294 -91 989 -36 
Q 684 19 347 128 
L 347 722 
Q 666 556 975 473 
Q 1284 391 1588 391 
Q 1994 391 2212 530 
Q 2431 669 2431 922 
Q 2431 1156 2273 1281 
Q 2116 1406 1581 1522 
L 1381 1569 
Q 847 1681 609 1914 
Q 372 2147 372 2553 
Q 372 3047 722 3315 
Q 1072 3584 1716 3584 
Q 2034 3584 2315 3537 
Q 2597 3491 2834 3397 
z
" transform="scale(0.015625)"/>
       <path id="DejaVuSans-65" d="M 3597 1894 
L 3597 1613 
L 953 1613 
Q 991 1019 1311 708 
Q 1631 397 2203 397 
Q 2534 397 2845 478 
Q 3156 559 3463 722 
L 3463 178 
Q 3153 47 2828 -22 
Q 2503 -91 2169 -91 
Q 1331 -91 842 396 
Q 353 884 353 1716 
Q 353 2575 817 3079 
Q 1281 3584 2069 3584 
Q 2775 3584 3186 3129 
Q 3597 2675 3597 1894 
z
M 3022 2063 
Q 3016 2534 2758 2815 
Q 2500 3097 2075 3097 
Q 1594 3097 1305 2825 
Q 1016 2553 972 2059 
L 3022 2063 
z
" transform="scale(0.015625)"/>
       <path id="DejaVuSans-20" transform="scale(0.015625)"/>
       <path id="DejaVuSans-50" d="M 1259 4147 
L 1259 2394 
L 2053 2394 
Q 2494 2394 2734 2622 
Q 2975 2850 2975 3272 
Q 2975 3691 2734 3919 
Q 2494 4147 2053 4147 
L 1259 4147 
z
M 628 4666 
L 2053 4666 
Q 2838 4666 3239 4311 
Q 3641 3956 3641 3272 
Q 3641 2581 3239 2228 
Q 2838 1875 2053 1875 
L 1259 1875 
L 1259 0 
L 628 0 
L 628 4666 
z
" transform="scale(0.015625)"/>
       <path id="DejaVuSans-6f" d="M 1959 3097 
Q 1497 3097 1228 2736 
Q 959 2375 959 1747 
Q 959 1119 1226 758 
Q 1494 397 1959 397 
Q 2419 397 2687 759 
Q 2956 1122 2956 1747 
Q 2956 2369 2687 2733 
Q 2419 3097 1959 3097 
z
M 1959 3584 
Q 2709 3584 3137 3096 
Q 3566 2609 3566 1747 
Q 3566 888 3137 398 
Q 2709 -91 1959 -91 
Q 1206 -91 779 398 
Q 353 888 353 1747 
Q 353 2609 779 3096 
Q 1206 3584 1959 3584 
z
" transform="scale(0.015625)"/>
       <path id="DejaVuSans-69" d="M 603 3500 
L 1178 3500 
L 1178 0 
L 603 0 
L 603 3500 
z
M 603 4863 
L 1178 4863 
L 1178 4134 
L 603 4134 
L 603 4863 
z
" transform="scale(0.015625)"/>
       <path id="DejaVuSans-74" d="M 1172 4494 
L 1172 3500 
L 2356 3500 
L 2356 3053 
L 1172 3053 
L 1172 1153 
Q 1172 725 1289 603 
Q 1406 481 1766 481 
L 2356 481 
L 2356 0 
L 1766 0 
Q 1100 0 847 248 
Q 594 497 594 1153 
L 594 3053 
L 172 3053 
L 172 3500 
L 594 3500 
L 594 4494 
L 1172 4494 
z
" transform="scale(0.015625)"/>
       <path id="DejaVuSans-76" d="M 191 3500 
L 800 3500 
L 1894 563 
L 2988 3500 
L 3597 3500 
L 2284 0 
L 1503 0 
L 191 3500 
z
" transform="scale(0.015625)"/>
       <path id="DejaVuSans-52" d="M 2841 2188 
Q 3044 2119 3236 1894 
Q 3428 1669 3622 1275 
L 4263 0 
L 3584 0 
L 2988 1197 
Q 2756 1666 2539 1819 
Q 2322 1972 1947 1972 
L 1259 1972 
L 1259 0 
L 628 0 
L 628 4666 
L 2053 4666 
Q 2853 4666 3247 4331 
Q 3641 3997 3641 3322 
Q 3641 2881 3436 2590 
Q 3231 2300 2841 2188 
z
M 1259 4147 
L 1259 2491 
L 2053 2491 
Q 2509 2491 2742 2702 
Q 2975 2913 2975 3322 
Q 2975 3731 2742 3939 
Q 2509 4147 2053 4147 
L 1259 4147 
z
" transform="scale(0.015625)"/>
      </defs>
      <use xlink:href="#DejaVuSans-46"/>
      <use xlink:href="#DejaVuSans-61" x="48.394531"/>
      <use xlink:href="#DejaVuSans-6c" x="109.673828"/>
      <use xlink:href="#DejaVuSans-73" x="137.457031"/>
      <use xlink:href="#DejaVuSans-65" x="189.556641"/>
      <use xlink:href="#DejaVuSans-20" x="251.080078"/>
      <use xlink:href="#DejaVuSans-50" x="282.867188"/>
      <use xlink:href="#DejaVuSans-6f" x="339.544922"/>
      <use xlink:href="#DejaVuSans-73" x="400.726562"/>
      <use xlink:href="#DejaVuSans-69" x="452.826172"/>
      <use xlink:href="#DejaVuSans-74" x="480.609375"/>
      <use xlink:href="#DejaVuSans-69" x="519.818359"/>
      <use xlink:href="#DejaVuSans-76" x="547.601562"/>
      <use xlink:href="#DejaVuSans-65" x="606.78125"/>
      <use xlink:href="#DejaVuSans-20" x="668.304688"/>
      <use xlink:href="#DejaVuSans-52" x="700.091797"/>
      <use xlink:href="#DejaVuSans-61" x="767.324219"/>
      <use xlink:href="#DejaVuSans-74" x="828.603516"/>
      <use xlink:href="#DejaVuSans-65" x="867.8125"/>
     </g>
    </g>
   </g>
   <g id="matplotlib.axis_2">
    <g id="ytick_1">
     <g id="line2d_7">
      <defs>
       <path id="m4cf6b47e34" d="M 0 0 
L -3.5 0 
" style="stroke: #000000; stroke-width: 0.8"/>
      </defs>
      <g>
       <use xlink:href="#m4cf6b47e34" x="57.6" y="307.584" style="stroke: #000000; stroke-width: 0.8"/>
      </g>
     </g>
     <g id="text_8">
      <!-- 0.0 -->
      <g transform="translate(34.696875 311.383219)scale(0.1 -0.1)">
       <use xlink:href="#DejaVuSans-30"/>
       <use xlink:href="#DejaVuSans-2e" x="63.623047"/>
       <use xlink:href="#DejaVuSans-30" x="95.410156"/>
      </g>
     </g>
    </g>
    <g id="ytick_2">
     <g id="line2d_8">
      <g>
       <use xlink:href="#m4cf6b47e34" x="57.6" y="256.896" style="stroke: #000000; stroke-width: 0.8"/>
      </g>
     </g>
     <g id="text_9">
      <!-- 0.2 -->
      <g transform="translate(34.696875 260.695219)scale(0.1 -0.1)">
       <use xlink:href="#DejaVuSans-30"/>
       <use xlink:href="#DejaVuSans-2e" x="63.623047"/>
       <use xlink:href="#DejaVuSans-32" x="95.410156"/>
      </g>
     </g>
    </g>
    <g id="ytick_3">
     <g id="line2d_9">
      <g>
       <use xlink:href="#m4cf6b47e34" x="57.6" y="206.208" style="stroke: #000000; stroke-width: 0.8"/>
      </g>
     </g>
     <g id="text_10">
      <!-- 0.4 -->
      <g transform="translate(34.696875 210.007219)scale(0.1 -0.1)">
       <use xlink:href="#DejaVuSans-30"/>
       <use xlink:href="#DejaVuSans-2e" x="63.623047"/>
       <use xlink:href="#DejaVuSans-34" x="95.410156"/>
      </g>
     </g>
    </g>
    <g id="ytick_4">
     <g id="line2d_10">
      <g>
       <use xlink:href="#m4cf6b47e34" x="57.6" y="155.52" style="stroke: #000000; stroke-width: 0.8"/>
      </g>
     </g>
     <g id="text_11">
      <!-- 0.6 -->
      <g transform="translate(34.696875 159.319219)scale(0.1 -0.1)">
       <use xlink:href="#DejaVuSans-30"/>
       <use xlink:href="#DejaVuSans-2e" x="63.623047"/>
       <use xlink:href="#DejaVuSans-36" x="95.410156"/>
      </g>
     </g>
    </g>
    <g id="ytick_5">
     <g id="line2d_11">
      <g>
       <use xlink:href="#m4cf6b47e34" x="57.6" y="104.832" style="stroke: #000000; stroke-width: 0.8"/>
      </g>
     </g>
     <g id="text_12">
      <!-- 0.8 -->
      <g transform="translate(34.696875 108.631219)scale(0.1 -0.1)">
       <use xlink:href="#DejaVuSans-30"/>
       <use xlink:href="#DejaVuSans-2e" x="63.623047"/>
       <use xlink:href="#DejaVuSans-38" x="95.410156"/>
      </g>
     </g>
    </g>
    <g id="ytick_6">
     <g id="line2d_12">
      <g>
       <use xlink:href="#m4cf6b47e34" x="57.6" y="54.144" style="stroke: #000000; stroke-width: 0.8"/>
      </g>
     </g>
     <g id="text_13">
      <!-- 1.0 -->
      <g transform="translate(34.696875 57.943219)scale(0.1 -0.1)">
       <use xlink:href="#DejaVuSans-31"/>
       <use xlink:href="#DejaVuSans-2e" x="63.623047"/>
       <use xlink:href="#DejaVuSans-30" x="95.410156"/>
      </g>
     </g>
    </g>
    <g id="text_14">
     <!-- True Positive Rate -->
     <g transform="translate(28.617187 219.057687)rotate(-90)scale(0.1 -0.1)">
      <defs>
       <path id="DejaVuSans-54" d="M -19 4666 
L 3928 4666 
L 3928 4134 
L 2272 4134 
L 2272 0 
L 1638 0 
L 1638 4134 
L -19 4134 
L -19 4666 
z
" transform="scale(0.015625)"/>
       <path id="DejaVuSans-72" d="M 2631 2963 
Q 2534 3019 2420 3045 
Q 2306 3072 2169 3072 
Q 1681 3072 1420 2755 
Q 1159 2438 1159 1844 
L 1159 0 
L 581 0 
L 581 3500 
L 1159 3500 
L 1159 2956 
Q 1341 3275 1631 3429 
Q 1922 3584 2338 3584 
Q 2397 3584 2469 3576 
Q 2541 3569 2628 3553 
L 2631 2963 
z
" transform="scale(0.015625)"/>
       <path id="DejaVuSans-75" d="M 544 1381 
L 544 3500 
L 1119 3500 
L 1119 1403 
Q 1119 906 1312 657 
Q 1506 409 1894 409 
Q 2359 409 2629 706 
Q 2900 1003 2900 1516 
L 2900 3500 
L 3475 3500 
L 3475 0 
L 2900 0 
L 2900 538 
Q 2691 219 2414 64 
Q 2138 -91 1772 -91 
Q 1169 -91 856 284 
Q 544 659 544 1381 
z
M 1991 3584 
L 1991 3584 
z
" transform="scale(0.015625)"/>
      </defs>
      <use xlink:href="#DejaVuSans-54"/>
      <use xlink:href="#DejaVuSans-72" x="46.333984"/>
      <use xlink:href="#DejaVuSans-75" x="87.447266"/>
      <use xlink:href="#DejaVuSans-65" x="150.826172"/>
      <use xlink:href="#DejaVuSans-20" x="212.349609"/>
      <use xlink:href="#DejaVuSans-50" x="244.136719"/>
      <use xlink:href="#DejaVuSans-6f" x="300.814453"/>
      <use xlink:href="#DejaVuSans-73" x="361.996094"/>
      <use xlink:href="#DejaVuSans-69" x="414.095703"/>
      <use xlink:href="#DejaVuSans-74" x="441.878906"/>
      <use xlink:href="#DejaVuSans-69" x="481.087891"/>
      <use xlink:href="#DejaVuSans-76" x="508.871094"/>
      <use xlink:href="#DejaVuSans-65" x="568.050781"/>
      <use xlink:href="#DejaVuSans-20" x="629.574219"/>
      <use xlink:href="#DejaVuSans-52" x="661.361328"/>
      <use xlink:href="#DejaVuSans-61" x="728.59375"/>
      <use xlink:href="#DejaVuSans-74" x="789.873047"/>
      <use xlink:href="#DejaVuSans-65" x="829.082031"/>
     </g>
    </g>
   </g>
   <g id="line2d_13">
    <path d="M 74.605714 307.584 
L 74.626988 307.474303 
L 74.737255 306.818189 
L 74.738002 306.818189 
L 74.766699 306.708492 
L 74.877588 306.416656 
L 74.921629 306.306958 
L 75.032103 306.015122 
L 75.032518 306.015122 
L 75.08647 305.905425 
L 75.197525 305.648775 
L 75.243888 305.539077 
L 75.354943 305.265869 
L 75.413208 305.156172 
L 75.523268 304.91815 
L 75.523641 304.91815 
L 75.568345 304.808452 
L 75.6794 304.57043 
L 75.724975 304.460733 
L 75.835574 304.164757 
L 75.835906 304.164757 
L 75.879034 304.05506 
L 75.990131 303.817037 
L 76.038816 303.70734 
L 76.147549 303.44862 
L 76.149913 303.44862 
L 76.20204 303.338923 
L 76.312639 303.071924 
L 76.313054 303.071924 
L 76.360578 302.962227 
L 76.470389 302.6766 
L 76.471674 302.6766 
L 76.519738 302.566903 
L 76.630793 302.262648 
L 76.673299 302.152951 
L 76.783691 301.852836 
L 76.784188 301.852836 
L 76.828436 301.742103 
L 76.937542 301.472 
L 76.939118 301.472 
L 76.979095 301.362302 
L 77.090192 301.113931 
L 77.124362 301.004234 
L 77.235335 300.733096 
L 77.235459 300.733096 
L 77.281407 300.623398 
L 77.391633 300.329492 
L 77.392504 300.329492 
L 77.437457 300.219795 
L 77.545941 299.944517 
L 77.548512 299.944517 
L 77.598317 299.83482 
L 77.706469 299.569891 
L 77.709414 299.569891 
L 77.749058 299.460193 
L 77.860031 299.124892 
L 77.860155 299.124892 
L 77.910955 299.015195 
L 78.02172 298.739917 
L 78.022052 298.739917 
L 78.061552 298.63022 
L 78.175676 298.325965 
L 78.212314 298.216268 
L 78.32171 297.957548 
L 78.322996 297.957548 
L 78.36799 297.847851 
L 78.478506 297.553945 
L 78.479004 297.553945 
L 78.517695 297.444247 
L 78.628709 297.092388 
L 78.628792 297.092388 
L 78.667234 296.982691 
L 78.778331 296.674297 
L 78.816358 296.5646 
L 78.929777 296.312089 
L 78.965234 296.202392 
L 79.073593 295.945741 
L 79.07633 295.945741 
L 79.110999 295.836044 
L 79.220478 295.537999 
L 79.222095 295.537999 
L 79.259397 295.427267 
L 79.377108 295.09714 
L 79.420631 294.987443 
L 79.420631 294.986408 
L 79.538383 294.654211 
L 79.585783 294.544514 
L 79.696879 294.268201 
L 79.821246 293.936005 
L 79.854256 293.826308 
L 79.965021 293.515844 
L 79.965187 293.515844 
L 80.004583 293.406146 
L 80.004583 293.405111 
L 80.122563 293.062566 
L 80.162374 292.952869 
L 80.279857 292.629986 
L 80.32199 292.520289 
L 80.432755 292.213965 
L 80.433045 292.213965 
L 80.472566 292.104268 
L 80.591376 291.719292 
L 80.624717 291.609595 
L 80.735026 291.290852 
L 80.735814 291.290852 
L 80.780684 291.181155 
L 80.891615 290.87483 
L 80.891781 290.87483 
L 80.925371 290.765133 
L 81.036177 290.454669 
L 81.036343 290.454669 
L 81.086148 290.344972 
L 81.197245 290.031403 
L 81.321073 289.715765 
L 81.36953 289.606068 
L 81.484172 289.24179 
L 81.523153 289.132093 
L 81.523153 289.131058 
L 81.647354 288.805071 
L 81.68899 288.695373 
L 81.799319 288.420095 
L 81.800086 288.420095 
L 81.851301 288.310398 
L 81.962191 287.966818 
L 81.962356 287.966818 
L 81.997191 287.857121 
L 82.108287 287.559075 
L 82.149508 287.449378 
L 82.260315 287.120286 
L 82.260605 287.120286 
L 82.295356 287.009554 
L 82.406121 286.712544 
L 82.406453 286.712544 
L 82.444315 286.602846 
L 82.553462 286.271685 
L 82.555411 286.271685 
L 82.602272 286.161988 
L 82.720335 285.814268 
L 82.758653 285.704571 
L 82.758653 285.703536 
L 82.88049 285.437572 
L 82.926895 285.327874 
L 82.926895 285.32684 
L 83.07125 284.915992 
L 83.119479 284.806295 
L 83.229933 284.50204 
L 83.230576 284.50204 
L 83.271547 284.392343 
L 83.381359 284.025996 
L 83.382603 284.025996 
L 83.430749 283.916298 
L 83.430749 283.915263 
L 83.548066 283.605834 
L 83.587607 283.495102 
L 83.720185 283.140138 
L 83.767771 283.030441 
L 83.87696 282.713768 
L 83.878847 282.713768 
L 83.929378 282.604071 
L 84.040433 282.316374 
L 84.080575 282.206677 
L 84.191527 281.83205 
L 84.191589 281.83205 
L 84.24156 281.722353 
L 84.352076 281.451215 
L 84.352656 281.451215 
L 84.387429 281.340482 
L 84.518825 281.006216 
L 84.559796 280.896519 
L 84.670644 280.623311 
L 84.670852 280.623311 
L 84.709543 280.513613 
L 84.82377 280.19901 
L 84.865592 280.089313 
L 84.975735 279.791267 
L 84.976606 279.791267 
L 85.017329 279.68157 
L 85.127804 279.354548 
L 85.128405 279.354548 
L 85.170517 279.244851 
L 85.170517 279.243816 
L 85.288581 278.895061 
L 85.336644 278.785364 
L 85.450602 278.499737 
L 85.490745 278.39004 
L 85.600265 278.083716 
L 85.601779 278.083716 
L 85.649116 277.974018 
L 85.649116 277.972983 
L 85.781114 277.628369 
L 85.816446 277.518671 
L 85.927294 277.220626 
L 85.927542 277.220626 
L 85.972164 277.110929 
L 86.082472 276.790116 
L 86.08324 276.790116 
L 86.127508 276.680419 
L 86.245074 276.357536 
L 86.287705 276.247839 
L 86.396106 275.970491 
L 86.398781 275.970491 
L 86.432309 275.860794 
L 86.542327 275.571027 
L 86.543364 275.571027 
L 86.58952 275.46133 
L 86.699165 275.177773 
L 86.700616 275.177773 
L 86.751002 275.067041 
L 86.867842 274.780379 
L 86.901329 274.670682 
L 87.027022 274.308474 
L 87.064221 274.198777 
L 87.174363 273.855197 
L 87.175172 273.855197 
L 87.222883 273.745499 
L 87.333979 273.432966 
L 87.375034 273.323268 
L 87.486131 273.010735 
L 87.531892 272.901037 
L 87.653585 272.549178 
L 87.688378 272.439481 
L 87.799184 272.124878 
L 87.799474 272.124878 
L 87.835014 272.01518 
L 87.947582 271.721274 
L 87.994049 271.611577 
L 88.103528 271.340439 
L 88.105104 271.340439 
L 88.139109 271.230741 
L 88.256634 270.909929 
L 88.294454 270.800231 
L 88.410506 270.54979 
L 88.451043 270.440093 
L 88.562056 270.073746 
L 88.562139 270.073746 
L 88.727395 269.628747 
L 88.772348 269.51905 
L 88.882201 269.210656 
L 88.883424 269.210656 
L 88.929351 269.100959 
L 89.040365 268.771867 
L 89.040427 268.771867 
L 89.076298 268.66217 
L 89.190775 268.31445 
L 89.233198 268.203718 
L 89.344253 267.902568 
L 89.344295 267.902568 
L 89.380083 267.792871 
L 89.488816 267.505174 
L 89.49118 267.505174 
L 89.532774 267.395477 
L 89.642398 267.091222 
L 89.64387 267.091222 
L 89.684158 266.981525 
L 89.798489 266.658642 
L 89.856567 266.548945 
L 89.980105 266.238481 
L 90.034326 266.128784 
L 90.148595 265.805901 
L 90.189028 265.696204 
L 90.298258 265.410577 
L 90.300062 265.410577 
L 90.34657 265.30088 
L 90.34657 265.299845 
L 90.470647 264.977998 
L 90.513568 264.8683 
L 90.624623 264.580604 
L 90.624644 264.580604 
L 90.669493 264.469872 
L 90.787308 264.133536 
L 90.832572 264.023838 
L 90.946509 263.736142 
L 90.978192 263.626444 
L 91.089289 263.32219 
L 91.125927 263.212493 
L 91.244094 262.860633 
L 91.296304 262.749901 
L 91.407194 262.450821 
L 91.407359 262.450821 
L 91.453681 262.341124 
L 91.453681 262.340089 
L 91.570791 262.041009 
L 91.695987 261.691219 
L 91.736751 261.581522 
L 91.736751 261.580487 
L 91.876939 261.221384 
L 91.90887 261.111686 
L 92.030936 260.747409 
L 92.075474 260.637712 
L 92.186508 260.339666 
L 92.220783 260.229969 
L 92.331548 259.919505 
L 92.331818 259.919505 
L 92.367896 259.808773 
L 92.482124 259.495204 
L 92.514262 259.385507 
L 92.631787 259.062624 
L 92.673505 258.952927 
L 92.790283 258.665231 
L 92.832126 258.555533 
L 92.943098 258.245069 
L 92.943202 258.245069 
L 92.982743 258.135372 
L 93.093632 257.841466 
L 93.09384 257.841466 
L 93.137383 257.731769 
L 93.246655 257.442003 
L 93.248272 257.442003 
L 93.299694 257.332305 
L 93.416472 257.048748 
L 93.456366 256.939051 
L 93.567131 256.634796 
L 93.567462 256.634796 
L 93.601675 256.525099 
L 93.711818 256.2581 
L 93.712772 256.2581 
L 93.759445 256.148403 
L 93.873238 255.877264 
L 93.919538 255.767567 
L 94.030635 255.434336 
L 94.070487 255.324638 
L 94.070487 255.323604 
L 94.209887 254.974849 
L 94.257846 254.865152 
L 94.375246 254.550548 
L 94.417504 254.440851 
L 94.52858 254.155224 
L 94.5286 254.155224 
L 94.569033 254.045527 
L 94.6793 253.724714 
L 94.680109 253.724714 
L 94.738519 253.613982 
L 94.849097 253.345948 
L 94.849491 253.345948 
L 94.884035 253.236251 
L 95.007904 252.919578 
L 95.044356 252.808846 
L 95.155038 252.513905 
L 95.155453 252.513905 
L 95.203785 252.404208 
L 95.317474 252.130999 
L 95.353801 252.021302 
L 95.464152 251.723257 
L 95.464877 251.723257 
L 95.517854 251.613559 
L 95.628184 251.34656 
L 95.628868 251.34656 
L 95.661007 251.236863 
L 95.77086 250.938818 
L 95.772042 250.938818 
L 95.813283 250.828086 
L 95.941424 250.547633 
L 95.98733 250.437936 
L 96.111034 250.123332 
L 96.156484 250.013635 
L 96.270484 249.721799 
L 96.308698 249.611067 
L 96.467879 249.136057 
L 96.519798 249.025325 
L 96.654698 248.732454 
L 96.689844 248.622757 
L 96.809525 248.3392 
L 96.857194 248.229502 
L 96.974532 247.919038 
L 97.025892 247.809341 
L 97.150756 247.467831 
L 97.196995 247.358134 
L 97.196995 247.357099 
L 97.314063 247.060088 
L 97.357274 246.950391 
L 97.47426 246.656485 
L 97.515356 246.545753 
L 97.65432 246.201138 
L 97.695002 246.091441 
L 97.806015 245.787186 
L 97.806098 245.787186 
L 97.84821 245.676454 
L 97.977989 245.369095 
L 98.03022 245.259397 
L 98.144323 244.946864 
L 98.18289 244.836131 
L 98.293945 244.559819 
L 98.34093 244.450121 
L 98.451653 244.150006 
L 98.451985 244.150006 
L 98.498763 244.040309 
L 98.61552 243.758822 
L 98.657529 243.648089 
L 98.774244 243.367637 
L 98.814387 243.256905 
L 98.937717 242.953685 
L 98.98719 242.843988 
L 99.098017 242.56871 
L 99.098183 242.56871 
L 99.145562 242.459012 
L 99.255207 242.22513 
L 99.256659 242.22513 
L 99.300388 242.115432 
L 99.417125 241.831875 
L 99.451399 241.722178 
L 99.451399 241.721143 
L 99.568426 241.426202 
L 99.614333 241.316505 
L 99.731961 240.990518 
L 99.865431 240.621066 
L 99.906485 240.511369 
L 100.046777 240.192626 
L 100.093388 240.082928 
L 100.210581 239.776604 
L 100.25458 239.666907 
L 100.378035 239.360582 
L 100.419711 239.250885 
L 100.530767 239.008723 
L 100.582396 238.899026 
L 100.692809 238.644445 
L 100.693493 238.644445 
L 100.755158 238.534748 
L 100.868909 238.26361 
L 100.907579 238.153912 
L 101.024295 237.874495 
L 101.065702 237.764798 
L 101.182916 237.460543 
L 101.240579 237.350846 
L 101.366107 237.065219 
L 101.412532 236.955522 
L 101.532918 236.725778 
L 101.580525 236.616081 
L 101.580525 236.615046 
L 101.710615 236.301477 
L 101.756708 236.190745 
L 101.87417 235.870967 
L 101.914561 235.76127 
L 101.914561 235.760235 
L 102.037809 235.459085 
L 102.074779 235.349388 
L 102.188778 235.059622 
L 102.238479 234.951994 
L 102.355174 234.670507 
L 102.407053 234.56081 
L 102.407053 234.559775 
L 102.523934 234.271043 
L 102.573179 234.161346 
L 102.573179 234.160311 
L 102.702958 233.931603 
L 102.739265 233.82294 
L 102.849366 233.542488 
L 102.850341 233.542488 
L 102.894568 233.432791 
L 103.005665 233.174071 
L 103.058974 233.063339 
L 103.171791 232.805653 
L 103.214318 232.695956 
L 103.327944 232.441376 
L 103.367486 232.331678 
L 103.478043 232.033633 
L 103.47852 232.033633 
L 103.522416 231.922901 
L 103.633015 231.650728 
L 103.633409 231.650728 
L 103.678092 231.54103 
L 103.801215 231.242985 
L 103.846458 231.133288 
L 103.956684 230.882847 
L 103.957555 230.882847 
L 103.992368 230.773149 
L 104.111987 230.491662 
L 104.161502 230.38093 
L 104.277699 230.127384 
L 104.330282 230.017687 
L 104.439762 229.756897 
L 104.441379 229.756897 
L 104.486539 229.64927 
L 104.486539 229.6472 
L 104.602923 229.382271 
L 104.656854 229.272574 
L 104.767578 229.036621 
L 104.767951 229.036621 
L 104.810208 228.926924 
L 104.920351 228.674413 
L 104.921264 228.674413 
L 104.964433 228.563681 
L 105.074659 228.314275 
L 105.075468 228.314275 
L 105.133546 228.204578 
L 105.244228 227.968625 
L 105.244622 227.968625 
L 105.294012 227.858928 
L 105.4077 227.593999 
L 105.453856 227.486371 
L 105.453856 227.483266 
L 105.564331 227.217302 
L 105.564953 227.217302 
L 105.617329 227.107605 
L 105.738876 226.848885 
L 105.788017 226.739188 
L 105.788017 226.738153 
L 105.910165 226.46391 
L 105.953688 226.354213 
L 106.064473 226.023051 
L 106.064784 226.023051 
L 106.119856 225.913354 
L 106.119856 225.912319 
L 106.241258 225.656704 
L 106.278228 225.547006 
L 106.278228 225.545971 
L 106.401537 225.242752 
L 106.448066 225.13202 
L 106.574465 224.880544 
L 106.618567 224.769812 
L 106.73941 224.528685 
L 106.786685 224.418987 
L 106.902882 224.164407 
L 106.962971 224.05471 
L 106.962971 224.053675 
L 107.08456 223.79185 
L 107.128227 223.682153 
L 107.245254 223.384107 
L 107.292529 223.27441 
L 107.401096 222.997062 
L 107.403585 222.997062 
L 107.459568 222.8884 
L 107.459568 222.88633 
L 107.575641 222.638994 
L 107.624575 222.529297 
L 107.738492 222.247809 
L 107.782325 222.138112 
L 107.897818 221.916648 
L 107.937048 221.805916 
L 108.0706 221.529603 
L 108.122375 221.419906 
L 108.232331 221.179813 
L 108.233471 221.179813 
L 108.281783 221.070116 
L 108.401755 220.77621 
L 108.44592 220.666513 
L 108.55627 220.401584 
L 108.556933 220.401584 
L 108.599958 220.291887 
L 108.716591 220.014539 
L 108.758475 219.904841 
L 108.875605 219.604726 
L 108.922777 219.493994 
L 109.044697 219.22596 
L 109.079552 219.116263 
L 109.188513 218.923775 
L 109.190628 218.923775 
L 109.234337 218.816148 
L 109.234337 218.813043 
L 109.37185 218.487056 
L 109.428539 218.377359 
L 109.549194 218.137267 
L 109.608226 218.027569 
L 109.7249 217.748152 
L 109.774933 217.638455 
L 109.885594 217.377665 
L 109.885988 217.377665 
L 109.929822 217.267968 
L 110.045749 217.019597 
L 110.089189 216.909899 
L 110.205324 216.659458 
L 110.262199 216.548726 
L 110.373172 216.309669 
L 110.373296 216.309669 
L 110.439709 216.199972 
L 110.553294 215.943322 
L 110.602664 215.833624 
L 110.602664 215.832589 
L 110.719608 215.541788 
L 110.763192 215.432091 
L 110.872091 215.175441 
L 110.874247 215.175441 
L 110.922476 215.065743 
L 111.032992 214.800814 
L 111.033448 214.800814 
L 111.097394 214.690082 
L 111.221305 214.370304 
L 111.267834 214.260607 
L 111.392284 213.929445 
L 111.440679 213.819748 
L 111.556855 213.567237 
L 111.597599 213.45754 
L 111.707949 213.219518 
L 111.708696 213.219518 
L 111.752736 213.108786 
L 111.875154 212.828333 
L 111.940759 212.717601 
L 112.049533 212.486823 
L 112.051856 212.486823 
L 112.10361 212.376091 
L 112.235545 212.120475 
L 112.289807 212.009743 
L 112.406503 211.727221 
L 112.459376 211.617524 
L 112.568275 211.385711 
L 112.570473 211.385711 
L 112.636534 211.274979 
L 112.744085 211.064898 
L 112.747527 211.064898 
L 112.789846 210.955201 
L 112.905546 210.725457 
L 112.961654 210.61576 
L 112.961654 210.614725 
L 113.077603 210.373598 
L 113.145613 210.263901 
L 113.256627 210.042437 
L 113.301497 209.931705 
L 113.411971 209.707136 
L 113.41249 209.707136 
L 113.465819 209.597438 
L 113.588154 209.374939 
L 113.636943 209.266277 
L 113.746754 209.051022 
L 113.747957 209.051022 
L 113.810451 208.941325 
L 113.927001 208.670186 
L 113.978797 208.560489 
L 114.096425 208.345234 
L 114.145151 208.234502 
L 114.255792 207.962328 
L 114.256227 207.962328 
L 114.308209 207.852631 
L 114.428844 207.616678 
L 114.477882 207.506981 
L 114.595821 207.281377 
L 114.652447 207.17168 
L 114.652447 207.170645 
L 114.775114 206.883984 
L 114.814676 206.774286 
L 114.930728 206.525915 
L 114.98269 206.415183 
L 115.121343 206.145079 
L 115.18025 206.035382 
L 115.294457 205.725953 
L 115.422992 205.439291 
L 115.460045 205.328559 
L 115.576843 205.041897 
L 115.636103 204.9322 
L 115.746661 204.731433 
L 115.7472 204.731433 
L 115.803951 204.621736 
L 115.926887 204.387853 
L 115.977978 204.278156 
L 116.0853 204.06911 
L 116.089012 204.06911 
L 116.133447 203.959413 
L 116.250059 203.684135 
L 116.302994 203.574438 
L 116.302994 203.573403 
L 116.418176 203.369532 
L 116.472065 203.258799 
L 116.587952 203.019742 
L 116.63784 202.910045 
L 116.743815 202.69065 
L 116.748874 202.69065 
L 116.797414 202.580953 
L 116.908262 202.332582 
L 116.908469 202.332582 
L 116.96437 202.222885 
L 117.075011 202.00349 
L 117.075384 202.00349 
L 117.1334 201.893793 
L 117.251152 201.645422 
L 117.301621 201.535725 
L 117.415185 201.289423 
L 117.466669 201.179726 
L 117.585251 200.929285 
L 117.636964 200.818553 
L 117.751564 200.554658 
L 117.809062 200.444961 
L 117.919868 200.250404 
L 117.920138 200.250404 
L 117.975562 200.139672 
L 118.086658 199.904754 
L 118.148904 199.795057 
L 118.259752 199.559104 
L 118.259959 199.559104 
L 118.305203 199.449407 
L 118.41547 199.205175 
L 118.416299 199.205175 
L 118.476098 199.095478 
L 118.596567 198.863665 
L 118.645211 198.756037 
L 118.754815 198.551131 
L 118.756307 198.551131 
L 118.808974 198.441434 
L 118.919552 198.248946 
L 118.920029 198.248946 
L 118.969336 198.139249 
L 119.091671 197.859831 
L 119.137868 197.750134 
L 119.248488 197.53074 
L 119.248882 197.53074 
L 119.306006 197.421042 
L 119.421809 197.18716 
L 119.490711 197.076427 
L 119.617089 196.824952 
L 119.666417 196.715254 
L 119.77994 196.472058 
L 119.848862 196.361325 
L 119.970388 196.102605 
L 120.024444 195.992908 
L 120.139708 195.785932 
L 120.198305 195.676235 
L 120.198305 195.6752 
L 120.326341 195.396817 
L 120.386182 195.28712 
L 120.5024 195.03254 
L 120.544844 194.922842 
L 120.655796 194.717936 
L 120.65592 194.717936 
L 120.698198 194.608239 
L 120.81707 194.349519 
L 120.870462 194.239822 
L 120.989397 193.981102 
L 121.041565 193.873474 
L 121.041565 193.87037 
L 121.151335 193.664429 
L 121.152558 193.664429 
L 121.200933 193.554731 
L 121.310516 193.343616 
L 121.312009 193.343616 
L 121.371662 193.233919 
L 121.48504 193.004175 
L 121.547493 192.894478 
L 121.657055 192.693711 
L 121.65859 192.693711 
L 121.714947 192.584014 
L 121.828656 192.317015 
L 121.877383 192.207318 
L 122.008841 191.956877 
L 122.071086 191.84718 
L 122.180151 191.598808 
L 122.182142 191.598808 
L 122.236404 191.489111 
L 122.349367 191.288345 
L 122.396995 191.178647 
L 122.531874 190.919927 
L 122.591259 190.81023 
L 122.704781 190.563929 
L 122.754628 190.453196 
L 122.873604 190.257604 
L 122.931495 190.147907 
L 123.041223 189.911954 
L 123.042592 189.911954 
L 123.108176 189.802257 
L 123.227628 189.524909 
L 123.289418 189.414177 
L 123.404952 189.191678 
L 123.471137 189.081981 
L 123.592497 188.8274 
L 123.649559 188.717703 
L 123.765093 188.492099 
L 123.812949 188.382402 
L 123.929001 188.131961 
L 123.97495 188.022264 
L 124.090608 187.795625 
L 124.222543 187.54001 
L 124.296255 187.430313 
L 124.405859 187.223337 
L 124.407331 187.223337 
L 124.457115 187.113639 
L 124.56703 186.908733 
L 124.568191 186.908733 
L 124.621334 186.799036 
L 124.73467 186.567223 
L 124.796087 186.456491 
L 124.905628 186.256759 
L 124.907183 186.256759 
L 124.963665 186.146027 
L 125.095911 185.886272 
L 125.149261 185.776575 
L 125.265479 185.519924 
L 125.321733 185.409192 
L 125.434094 185.219809 
L 125.504012 185.110112 
L 125.614901 184.901066 
L 125.615026 184.901066 
L 125.679511 184.791369 
L 125.679511 184.790334 
L 125.814722 184.493324 
L 125.87987 184.382591 
L 126.012801 184.114558 
L 126.076498 184.00486 
L 126.189585 183.798919 
L 126.32602 183.551583 
L 126.388141 183.441886 
L 126.388141 183.440851 
L 126.513275 183.210073 
L 126.579357 183.09934 
L 126.702853 182.895469 
L 126.761615 182.785772 
L 126.761615 182.784737 
L 126.882125 182.551889 
L 126.930603 182.442192 
L 127.041036 182.231076 
L 127.0417 182.231076 
L 127.10154 182.121379 
L 127.206375 181.916473 
L 127.212595 181.916473 
L 127.265054 181.806776 
L 127.37783 181.634985 
L 127.453699 181.525288 
L 127.564713 181.303824 
L 127.564754 181.303824 
L 127.633386 181.193092 
L 127.743197 180.983011 
L 127.744483 180.983011 
L 127.813923 180.872279 
L 127.924294 180.682896 
L 127.924999 180.682896 
L 127.981667 180.573199 
L 128.106387 180.349665 
L 128.165232 180.239967 
L 128.165232 180.238933 
L 128.295612 180.001945 
L 128.354789 179.892248 
L 128.475154 179.658365 
L 128.55546 179.548668 
L 128.55546 179.547633 
L 128.674373 179.352041 
L 128.744104 179.242343 
L 128.854828 179.039507 
L 128.85516 179.039507 
L 128.919479 178.928775 
L 129.034432 178.733182 
L 129.090872 178.623485 
L 129.201844 178.445486 
L 129.201969 178.445486 
L 129.273172 178.335789 
L 129.383771 178.095696 
L 129.384227 178.095696 
L 129.44048 177.985999 
L 129.558378 177.760395 
L 129.619027 177.650698 
L 129.734271 177.435443 
L 129.795438 177.324711 
L 129.906493 177.129119 
L 129.968117 177.018387 
L 130.100819 176.752422 
L 130.143574 176.64169 
L 130.252307 176.4254 
L 130.25463 176.4254 
L 130.316627 176.315703 
L 130.43158 176.123216 
L 130.492001 176.013518 
L 130.615684 175.765147 
L 130.669532 175.654415 
L 130.788881 175.450544 
L 130.849696 175.340846 
L 130.982294 175.106964 
L 131.056463 174.997266 
L 131.17152 174.800639 
L 131.231194 174.689907 
L 131.345733 174.517082 
L 131.400452 174.407385 
L 131.514866 174.231455 
L 131.593409 174.120723 
L 131.708528 173.918921 
L 131.768742 173.808189 
L 131.888236 173.600178 
L 131.95832 173.489446 
L 132.077586 173.287645 
L 132.139666 173.177948 
L 132.260964 172.977181 
L 132.331089 172.867484 
L 132.444052 172.679135 
L 132.52133 172.568403 
L 132.636511 172.364532 
L 132.709767 172.2538 
L 132.831688 172.076835 
L 132.903077 171.967138 
L 133.012308 171.78293 
L 133.014132 171.78293 
L 133.083718 171.673232 
L 133.190046 171.493163 
L 133.194773 171.493163 
L 133.272363 171.383466 
L 133.38995 171.168211 
L 133.463807 171.058514 
L 133.463807 171.057479 
L 133.597276 170.839119 
L 133.665431 170.729422 
L 133.780467 170.532795 
L 133.856958 170.423097 
L 133.967184 170.23268 
L 133.967868 170.23268 
L 134.036707 170.122982 
L 134.150997 169.961541 
L 134.214839 169.850809 
L 134.324319 169.640728 
L 134.325936 169.640728 
L 134.399254 169.531031 
L 134.399254 169.529996 
L 134.530505 169.28266 
L 134.600319 169.172963 
L 134.713572 168.953568 
L 134.780856 168.842836 
L 134.896556 168.614127 
L 134.962119 168.503395 
L 135.089824 168.299524 
L 135.153086 168.188792 
L 135.262441 168.015967 
L 135.264183 168.015967 
L 135.321286 167.905235 
L 135.439039 167.740689 
L 135.507505 167.629957 
L 135.631354 167.419876 
L 135.687006 167.310179 
L 135.804136 167.107342 
L 135.86831 166.997645 
L 135.978246 166.769972 
L 135.979365 166.769972 
L 136.05795 166.659239 
L 136.162702 166.490554 
L 136.169047 166.490554 
L 136.231002 166.379822 
L 136.361112 166.146974 
L 136.432544 166.037277 
L 136.547103 165.863417 
L 136.612417 165.752685 
L 136.727309 165.563302 
L 136.809086 165.453604 
L 136.809086 165.45257 
L 136.938305 165.23007 
L 137.029517 165.120373 
L 137.144139 164.940304 
L 137.236367 164.830607 
L 137.351009 164.650538 
L 137.428723 164.539806 
L 137.555848 164.344213 
L 137.631924 164.234516 
L 137.749904 164.062726 
L 137.821107 163.955098 
L 137.931043 163.777099 
L 137.932163 163.777099 
L 138.008674 163.666367 
L 138.119501 163.5101 
L 138.11977 163.5101 
L 138.192425 163.399368 
L 138.311857 163.193427 
L 138.400685 163.08373 
L 138.400685 163.082695 
L 138.515596 162.893312 
L 138.632582 162.748429 
L 138.71606 162.638731 
L 138.835368 162.47729 
L 138.916192 162.367593 
L 139.028926 162.193733 
L 139.10749 162.084036 
L 139.218338 161.903967 
L 139.218504 161.903967 
L 139.297794 161.793235 
L 139.41735 161.583154 
L 139.484385 161.472422 
L 139.602656 161.293388 
L 139.667826 161.182655 
L 139.78732 160.974645 
L 139.852365 160.863912 
L 140.046442 160.531716 
L 140.119387 160.420984 
L 140.229675 160.256438 
L 140.230483 160.256438 
L 140.290863 160.146741 
L 140.401794 159.941835 
L 140.401939 159.941835 
L 140.475008 159.832137 
L 140.605015 159.627231 
L 140.661952 159.517534 
L 140.774687 159.351953 
L 140.850597 159.241221 
L 140.979878 159.018722 
L 141.04739 158.909024 
L 141.161431 158.760002 
L 141.234003 158.650305 
L 141.350076 158.486793 
L 141.434902 158.379166 
L 141.549461 158.207376 
L 141.632317 158.096644 
L 141.745197 157.91347 
L 141.825523 157.802738 
L 141.939834 157.638192 
L 142.033825 157.528495 
L 142.142827 157.340147 
L 142.144921 157.340147 
L 142.218613 157.229414 
L 142.327843 157.042101 
L 142.329709 157.042101 
L 142.386958 156.931369 
L 142.509023 156.752335 
L 142.572285 156.642638 
L 142.689001 156.45429 
L 142.765139 156.344592 
L 142.884778 156.133477 
L 142.959008 156.02378 
L 143.076284 155.818873 
L 143.160426 155.708141 
L 143.271439 155.568432 
L 143.271481 155.568432 
L 143.3245 155.458735 
L 143.433461 155.286945 
L 143.435472 155.286945 
L 143.509868 155.176213 
L 143.633136 154.976481 
L 143.699259 154.865749 
L 143.818256 154.670157 
L 143.885934 154.560459 
L 144.000639 154.372111 
L 144.071489 154.262414 
L 144.200169 154.047159 
L 144.260942 153.937462 
L 144.371707 153.771881 
L 144.371998 153.771881 
L 144.454729 153.662184 
L 144.562674 153.513161 
L 144.565826 153.513161 
L 144.650216 153.402429 
L 144.768031 153.235813 
L 144.849643 153.126116 
L 144.96356 152.981233 
L 145.039656 152.870501 
L 145.150483 152.730792 
L 145.150691 152.730792 
L 145.236325 152.621095 
L 145.350884 152.449305 
L 145.420429 152.339607 
L 145.530779 152.163678 
L 145.531525 152.163678 
L 145.605217 152.05398 
L 145.708973 151.904958 
L 145.716293 151.904958 
L 145.80877 151.794226 
L 145.931146 151.608982 
L 146.003158 151.499285 
L 146.115706 151.346123 
L 146.188775 151.236425 
L 146.299042 151.052217 
L 146.299872 151.052217 
L 146.357473 150.94252 
L 146.468362 150.750032 
L 146.468549 150.750032 
L 146.558226 150.640335 
L 146.558226 150.6393 
L 146.672475 150.483033 
L 146.757612 150.373336 
L 146.872524 150.180848 
L 146.946505 150.071151 
L 147.057187 149.893151 
L 147.057602 149.893151 
L 147.145579 149.782419 
L 147.273969 149.613734 
L 147.356804 149.504037 
L 147.47831 149.359153 
L 147.548974 149.250491 
L 147.548974 149.249456 
L 147.667141 149.073527 
L 147.74473 148.963829 
L 147.862877 148.78997 
L 147.936817 148.679237 
L 148.064605 148.475366 
L 148.158699 148.365669 
L 148.268697 148.195948 
L 148.269734 148.195948 
L 148.359308 148.085216 
L 148.483758 147.92274 
L 148.573974 147.812008 
L 148.684014 147.635044 
L 148.68505 147.635044 
L 148.775868 147.525346 
L 148.88823 147.380463 
L 148.963414 147.270766 
L 149.07675 147.154859 
L 149.160021 147.045162 
L 149.160021 147.044127 
L 149.308544 146.846465 
L 149.377736 146.736768 
L 149.487153 146.579466 
L 149.488832 146.579466 
L 149.574446 146.468734 
L 149.69873 146.252444 
L 149.786251 146.142747 
L 149.901536 145.933701 
L 149.987523 145.822969 
L 150.105297 145.658423 
L 150.180108 145.548726 
L 150.293796 145.420401 
L 150.365829 145.310704 
L 150.479662 145.174099 
L 150.551052 145.064402 
L 150.665238 144.9071 
L 150.779528 144.799473 
L 150.779528 144.796368 
L 150.896824 144.642171 
L 150.966016 144.532474 
L 151.085573 144.3938 
L 151.190449 144.284103 
L 151.304241 144.149568 
L 151.399331 144.039871 
L 151.517208 143.870151 
L 151.614184 143.760454 
L 151.7292 143.632128 
L 151.795882 143.522431 
L 151.908285 143.386862 
L 152.040656 143.216107 
L 152.123844 143.105375 
L 152.24058 142.938759 
L 152.361091 142.785597 
L 152.444983 142.674865 
L 152.560351 142.570342 
L 152.638604 142.460644 
L 152.747296 142.319901 
L 152.74968 142.319901 
L 152.861378 142.209169 
L 152.97177 142.030134 
L 152.972454 142.030134 
L 153.064558 141.920437 
L 153.190708 141.736229 
L 153.286067 141.626531 
L 153.286067 141.625496 
L 153.403135 141.477509 
L 153.48877 141.367811 
L 153.48877 141.366777 
L 153.609902 141.202231 
L 153.708765 141.091498 
L 153.819862 140.95179 
L 153.90137 140.842092 
L 154.016987 140.69307 
L 154.098827 140.583372 
L 154.215978 140.43435 
L 154.338521 140.324653 
L 154.452064 140.202537 
L 154.537056 140.092839 
L 154.649334 139.974863 
L 154.733206 139.865166 
L 154.847641 139.699585 
L 154.945323 139.589888 
L 155.057726 139.457423 
L 155.13855 139.347726 
L 155.248029 139.204913 
L 155.249646 139.204913 
L 155.369265 139.09418 
L 155.49019 138.933774 
L 155.587602 138.823042 
L 155.701124 138.695752 
L 155.817944 138.586054 
L 155.930596 138.430822 
L 156.005821 138.321125 
L 156.127161 138.153475 
L 156.203112 138.042742 
L 156.308631 137.909243 
L 156.314126 137.909243 
L 156.410916 137.799546 
L 156.521992 137.658802 
L 156.62552 137.54807 
L 156.748291 137.406291 
L 156.839171 137.295559 
L 156.944047 137.166199 
L 156.950206 137.166199 
L 157.040049 137.056502 
L 157.040049 137.055467 
L 157.159253 136.924037 
L 157.253907 136.81434 
L 157.366497 136.650829 
L 157.472576 136.541132 
L 157.586409 136.398318 
L 157.668104 136.287586 
L 157.789527 136.189273 
L 157.914018 136.079575 
L 158.024493 135.95539 
L 158.025073 135.95539 
L 158.117675 135.845693 
L 158.230803 135.742205 
L 158.310777 135.632507 
L 158.426995 135.462787 
L 158.507778 135.352055 
L 158.618336 135.208207 
L 158.618875 135.208207 
L 158.679503 135.097475 
L 158.788443 135.0033 
L 158.790558 135.0033 
L 158.878349 134.893603 
L 158.992411 134.74458 
L 159.087625 134.634883 
L 159.199903 134.504488 
L 159.300985 134.393756 
L 159.414902 134.254047 
L 159.528673 134.143315 
L 159.643668 134.047071 
L 159.726338 133.936339 
L 159.856552 133.751096 
L 159.928937 133.641399 
L 159.928937 133.640364 
L 160.046482 133.479957 
L 160.153618 133.37026 
L 160.26063 133.235726 
L 160.264673 133.235726 
L 160.385785 133.126028 
L 160.49796 133.014261 
L 160.606382 132.904564 
L 160.720174 132.76796 
L 160.827704 132.658263 
L 160.827704 132.657228 
L 160.944711 132.51131 
L 161.037416 132.401613 
L 161.144179 132.262939 
L 161.148471 132.262939 
L 161.26979 132.153241 
L 161.382276 132.014568 
L 161.509608 131.903835 
L 161.623856 131.747569 
L 161.716644 131.637871 
L 161.829959 131.521965 
L 161.944726 131.412267 
L 161.944726 131.411233 
L 162.066688 131.279803 
L 162.165157 131.169071 
L 162.274491 131.064548 
L 162.276233 131.064548 
L 162.388512 130.954851 
L 162.500977 130.818246 
L 162.587835 130.707514 
L 162.698807 130.563666 
L 162.69889 130.563666 
L 162.793233 130.453969 
L 162.908476 130.317365 
L 163.004395 130.207667 
L 163.118353 130.064854 
L 163.266109 129.955157 
L 163.266109 129.954122 
L 163.382016 129.835111 
L 163.47667 129.725413 
L 163.590939 129.568112 
L 163.705831 129.443926 
L 163.813921 129.334229 
L 163.930699 129.193485 
L 164.017826 129.082753 
L 164.124652 128.965812 
L 164.128923 128.965812 
L 164.233364 128.856114 
L 164.349105 128.72365 
L 164.457817 128.613952 
L 164.573849 128.491837 
L 164.665745 128.381104 
L 164.767801 128.276582 
L 164.776842 128.276582 
L 164.863679 128.166884 
L 164.974672 128.03442 
L 164.974776 128.03442 
L 165.090102 127.924722 
L 165.206528 127.792258 
L 165.311964 127.682561 
L 165.425694 127.552166 
L 165.518565 127.442468 
L 165.629537 127.310004 
L 165.629599 127.310004 
L 165.734828 127.200307 
L 165.844971 127.049214 
L 165.845925 127.049214 
L 165.961376 126.941587 
L 166.089931 126.833959 
L 166.089931 126.831889 
L 166.198457 126.720122 
L 166.201007 126.720122 
L 166.305738 126.610425 
L 166.419199 126.490379 
L 166.536184 126.380682 
L 166.642968 126.285473 
L 166.647281 126.285473 
L 166.73109 126.175776 
L 166.835718 126.064008 
L 166.842146 126.064008 
L 166.936427 125.954311 
L 167.050157 125.821847 
L 167.135791 125.712149 
L 167.252403 125.575545 
L 167.369845 125.465848 
L 167.478744 125.345802 
L 167.480941 125.345802 
L 167.588845 125.238174 
L 167.701476 125.130547 
L 167.81531 125.019815 
L 167.926282 124.916327 
L 167.926323 124.916327 
L 168.052266 124.799385 
L 168.163902 124.689688 
L 168.272718 124.58413 
L 168.274999 124.58413 
L 168.417115 124.474433 
L 168.526013 124.341968 
L 168.528087 124.341968 
L 168.642211 124.232271 
L 168.642211 124.231236 
L 168.76042 124.114295 
L 168.855157 124.004598 
L 168.962915 123.903179 
L 168.966253 123.903179 
L 169.076811 123.793482 
L 169.190686 123.700343 
L 169.326416 123.589611 
L 169.436766 123.507855 
L 169.43745 123.507855 
L 169.542347 123.397123 
L 169.657964 123.286391 
L 169.75888 123.176694 
L 169.867178 123.050438 
L 169.869914 123.050438 
L 170.007718 122.940741 
L 170.118171 122.828974 
L 170.118814 122.828974 
L 170.211561 122.719277 
L 170.324088 122.574394 
L 170.468526 122.464696 
L 170.58292 122.357069 
L 170.691176 122.247372 
L 170.800904 122.152163 
L 170.802231 122.152163 
L 170.918449 122.042465 
L 171.032718 121.936908 
L 171.157044 121.82721 
L 171.267622 121.729932 
L 171.26812 121.729932 
L 171.378677 121.620235 
L 171.490832 121.506398 
L 171.59521 121.395666 
L 171.713688 121.307701 
L 171.841539 121.198004 
L 171.950728 121.109004 
L 171.952553 121.109004 
L 172.107026 120.999307 
L 172.210161 120.916516 
L 172.218123 120.916516 
L 172.338592 120.806819 
L 172.450477 120.726098 
L 172.601591 120.616401 
L 172.706302 120.53775 
L 172.712688 120.53775 
L 172.846054 120.428053 
L 172.952464 120.328704 
L 172.95713 120.328704 
L 173.081144 120.219007 
L 173.194812 120.088612 
L 173.330044 119.978915 
L 173.446449 119.894055 
L 173.55655 119.783323 
L 173.663749 119.672591 
L 173.667605 119.672591 
L 173.764727 119.561859 
L 173.877648 119.469754 
L 173.999651 119.360057 
L 174.117031 119.258639 
L 174.229724 119.148941 
L 174.343247 119.070291 
L 174.505579 118.959558 
L 174.604691 118.859175 
L 174.616655 118.859175 
L 174.758667 118.749478 
L 174.874906 118.621153 
L 174.998858 118.511456 
L 175.104647 118.426595 
L 175.109934 118.426595 
L 175.229346 118.316898 
L 175.341852 118.247561 
L 175.456308 118.165806 
L 175.606386 118.056108 
L 175.715865 117.95676 
L 175.717441 117.95676 
L 175.864326 117.847063 
L 175.971815 117.743575 
L 175.975402 117.743575 
L 176.097841 117.633877 
L 176.205247 117.553157 
L 176.208854 117.553157 
L 176.369175 117.44346 
L 176.474922 117.360669 
L 176.480189 117.360669 
L 176.617868 117.250972 
L 176.725771 117.151623 
L 176.728923 117.151623 
L 176.854928 117.041926 
L 176.966875 116.957066 
L 177.137107 116.847369 
L 177.249489 116.783206 
L 177.371783 116.673509 
L 177.481469 116.584509 
L 177.482817 116.584509 
L 177.603804 116.475847 
L 177.714569 116.394091 
L 177.714901 116.394091 
L 177.82069 116.284394 
L 177.928925 116.222301 
L 177.931786 116.222301 
L 178.0586 116.112604 
L 178.164513 116.002907 
L 178.169572 116.002907 
L 178.316706 115.89321 
L 178.423822 115.808349 
L 178.427803 115.808349 
L 178.53185 115.697617 
L 178.646803 115.603443 
L 178.748403 115.492711 
L 178.859251 115.417165 
L 178.859438 115.417165 
L 178.982581 115.307468 
L 179.094528 115.222607 
L 179.23654 115.11291 
L 179.347139 115.034259 
L 179.347616 115.034259 
L 179.471092 114.924562 
L 179.585858 114.833493 
L 179.717462 114.723795 
L 179.811556 114.655493 
L 179.828517 114.655493 
L 179.965905 114.545796 
L 180.072793 114.479564 
L 180.077002 114.479564 
L 180.18899 114.390564 
L 180.327104 114.280867 
L 180.43986 114.198076 
L 180.603021 114.087344 
L 180.723469 113.999379 
L 180.892416 113.888647 
L 181.009505 113.792403 
L 181.13721 113.682706 
L 181.13721 113.681671 
L 181.2498 113.601986 
L 181.387603 113.491253 
L 181.495693 113.428126 
L 181.4987 113.428126 
L 181.64376 113.318429 
L 181.751809 113.229429 
L 181.754732 113.229429 
L 181.93952 113.119732 
L 182.052649 113.018313 
L 182.232834 112.908616 
L 182.345382 112.832035 
L 182.503837 112.722338 
L 182.618251 112.641617 
L 182.821555 112.53192 
L 182.933481 112.449129 
L 183.056791 112.338397 
L 183.160298 112.281479 
L 183.167887 112.281479 
L 183.303285 112.171782 
L 183.412599 112.080712 
L 183.41434 112.080712 
L 183.581421 111.971015 
L 183.690278 111.877876 
L 183.692476 111.877876 
L 183.845167 111.768179 
L 183.954522 111.677109 
L 183.95618 111.677109 
L 184.088385 111.567412 
L 184.198715 111.486691 
L 184.19944 111.486691 
L 184.386219 111.375959 
L 184.499306 111.275576 
L 184.665847 111.165878 
L 184.77852 111.085158 
L 184.904006 110.975461 
L 185.010873 110.911298 
L 185.015041 110.911298 
L 185.175839 110.800566 
L 185.290626 110.710531 
L 185.420053 110.600834 
L 185.531979 110.509765 
L 185.731675 110.400067 
L 185.844368 110.321417 
L 186.013647 110.211719 
L 186.12748 110.139278 
L 186.275319 110.02958 
L 186.384715 109.969557 
L 186.386374 109.969557 
L 186.571452 109.858825 
L 186.680766 109.789488 
L 186.682528 109.789488 
L 186.858628 109.679791 
L 186.960146 109.613559 
L 186.969725 109.613559 
L 187.127641 109.503861 
L 187.232911 109.423141 
L 187.238738 109.423141 
L 187.363561 109.313444 
L 187.473579 109.232723 
L 187.474616 109.232723 
L 187.661602 109.123026 
L 187.774233 109.046445 
L 187.975526 108.936747 
L 188.088157 108.858096 
L 188.28157 108.748399 
L 188.391547 108.65733 
L 188.392646 108.65733 
L 188.541418 108.547633 
L 188.653696 108.48761 
L 188.816236 108.377912 
L 188.924347 108.322029 
L 188.927291 108.322029 
L 189.159313 108.212331 
L 189.262448 108.144029 
L 189.270368 108.144029 
L 189.43409 108.034332 
L 189.544647 107.96603 
L 189.545145 107.96603 
L 189.70248 107.856333 
L 189.809388 107.777682 
L 189.813577 107.777682 
L 189.95901 107.667985 
L 190.070853 107.593473 
L 190.282016 107.483776 
L 190.385358 107.417544 
L 190.392822 107.417544 
L 190.590051 107.307846 
L 190.698411 107.227126 
L 190.701148 107.227126 
L 190.942998 107.117429 
L 191.054094 107.051196 
L 191.238302 106.941499 
L 191.349979 106.883546 
L 191.531284 106.773849 
L 191.640742 106.695198 
L 191.642339 106.695198 
L 191.86503 106.5855 
L 191.968932 106.523408 
L 191.976064 106.523408 
L 192.206282 106.41371 
L 192.316881 106.337129 
L 192.317379 106.337129 
L 192.489477 106.227432 
L 192.59792 106.148781 
L 192.600574 106.148781 
L 192.78559 106.039084 
L 192.89764 105.991479 
L 193.082822 105.881782 
L 193.180566 105.832108 
L 193.193919 105.832108 
L 193.353867 105.722411 
L 193.458038 105.662388 
L 193.464963 105.662388 
L 193.6641 105.55269 
L 193.772294 105.500946 
L 193.775176 105.500946 
L 193.96608 105.391249 
L 194.077177 105.327087 
L 194.266734 105.217389 
L 194.376172 105.173924 
L 194.377831 105.173924 
L 194.619515 105.064227 
L 194.729036 105.004204 
L 194.730612 105.004204 
L 194.923942 104.894507 
L 195.033173 104.834484 
L 195.034997 104.834484 
L 195.227374 104.724786 
L 195.334697 104.652345 
L 195.33843 104.652345 
L 195.544242 104.542648 
L 195.652975 104.484694 
L 195.655256 104.484694 
L 195.900963 104.374997 
L 196.002978 104.302555 
L 196.012039 104.302555 
L 196.258347 104.192858 
L 196.365255 104.124556 
L 196.369423 104.124556 
L 196.529723 104.014859 
L 196.636051 103.944487 
L 196.640737 103.944487 
L 196.811218 103.83479 
L 196.922231 103.776837 
L 196.922314 103.776837 
L 197.153507 103.667139 
L 197.261244 103.605046 
L 197.264562 103.605046 
L 197.48858 103.495349 
L 197.599096 103.453954 
L 197.599635 103.453954 
L 197.841112 103.344257 
L 197.943293 103.278024 
L 197.952167 103.278024 
L 198.194266 103.168327 
L 198.300469 103.106234 
L 198.30528 103.106234 
L 198.507153 102.996537 
L 198.618747 102.930305 
L 198.839282 102.820608 
L 198.839282 102.819573 
L 198.950088 102.773003 
L 198.950379 102.773003 
L 199.113851 102.663306 
L 199.221091 102.592934 
L 199.224948 102.592934 
L 199.446271 102.483237 
L 199.558798 102.412865 
L 199.791172 102.303168 
L 199.902227 102.239005 
L 199.902269 102.239005 
L 200.109948 102.129308 
L 200.202964 102.085843 
L 200.22092 102.085843 
L 200.409233 101.976146 
L 200.515768 101.914053 
L 200.520288 101.914053 
L 200.754425 101.804356 
L 200.857435 101.748472 
L 200.86548 101.748472 
L 201.062336 101.638775 
L 201.169493 101.576682 
L 201.173308 101.576682 
L 201.359506 101.466985 
L 201.469939 101.380055 
L 201.470437 101.380055 
L 201.642286 101.270358 
L 201.753176 101.210335 
L 201.7533 101.210335 
L 201.927306 101.100637 
L 202.038361 101.053033 
L 202.248611 100.943336 
L 202.357344 100.868824 
L 202.359667 100.868824 
L 202.537736 100.759127 
L 202.644645 100.682546 
L 202.648833 100.682546 
L 202.857839 100.572849 
L 202.966158 100.483849 
L 202.968936 100.483849 
L 203.157083 100.374152 
L 203.265069 100.274803 
L 203.26818 100.274803 
L 203.498625 100.165106 
L 203.608934 100.098874 
L 203.609598 100.098874 
L 203.775268 99.989176 
L 203.879937 99.910525 
L 203.886365 99.910525 
L 204.051165 99.799793 
L 204.151231 99.70355 
L 204.16222 99.70355 
L 204.34058 99.593852 
L 204.446742 99.492434 
L 204.451677 99.492434 
L 204.623692 99.382737 
L 204.73425 99.295807 
L 204.734789 99.295807 
L 204.916093 99.18611 
L 205.0252 99.105389 
L 205.026775 99.105389 
L 205.195141 98.995692 
L 205.304953 98.929459 
L 205.306114 98.929459 
L 205.428117 98.819762 
L 205.537638 98.741111 
L 205.539006 98.741111 
L 205.759582 98.631414 
L 205.869393 98.561042 
L 205.869974 98.561042 
L 206.024116 98.451345 
L 206.134508 98.362345 
L 206.282139 98.252648 
L 206.387637 98.178137 
L 206.393236 98.178137 
L 206.547917 98.068439 
L 206.658972 97.962882 
L 206.791633 97.853184 
L 206.899702 97.770394 
L 206.902274 97.770394 
L 207.063382 97.660697 
L 207.173318 97.577906 
L 207.174438 97.577906 
L 207.316636 97.468209 
L 207.426199 97.37093 
L 207.426904 97.37093 
L 207.596141 97.261233 
L 207.702759 97.170164 
L 207.705827 97.170164 
L 207.8343 97.060466 
L 207.941208 96.977676 
L 207.944069 96.977676 
L 208.151417 96.867979 
L 208.262057 96.799677 
L 208.262514 96.799677 
L 208.457503 96.689979 
L 208.568102 96.607189 
L 208.777316 96.497492 
L 208.887002 96.42919 
L 208.888163 96.42919 
L 209.093769 96.319492 
L 209.204575 96.25326 
L 209.204741 96.25326 
L 209.452646 96.143563 
L 209.563162 96.102168 
L 209.563494 96.102168 
L 210.009747 95.99247 
L 210.120677 95.973843 
L 210.651735 95.864145 
L 210.737121 95.851727 
L 210.760593 95.851727 
L 213.253198 95.74203 
L 213.347541 95.731681 
L 213.362553 95.731681 
L 214.400949 95.621983 
L 214.495706 95.597146 
L 214.512045 95.597146 
L 215.037463 95.487449 
L 215.111611 95.466752 
L 215.147192 95.466752 
L 215.771597 95.357054 
L 215.879377 95.332217 
L 215.882694 95.332217 
L 216.33608 95.22252 
L 216.428266 95.212171 
L 216.447011 95.212171 
L 216.964633 95.102474 
L 217.075895 95.083846 
L 217.547237 94.974149 
L 217.651118 94.947242 
L 217.658085 94.947242 
L 218.10525 94.837545 
L 218.216824 94.814777 
L 218.663512 94.70508 
L 218.771333 94.686452 
L 218.774567 94.686452 
L 219.179931 94.576755 
L 219.292148 94.547778 
L 219.696807 94.437046 
L 219.796748 94.404965 
L 219.807655 94.404965 
L 220.146129 94.295268 
L 220.250839 94.251803 
L 220.257205 94.251803 
L 220.695309 94.142105 
L 220.796867 94.111059 
L 220.806323 94.111059 
L 221.219483 94.001362 
L 221.329646 93.968246 
L 221.330497 93.968246 
L 221.669281 93.857513 
L 221.78156 93.798525 
L 222.187048 93.688828 
L 222.282884 93.659851 
L 222.298104 93.659851 
L 222.704961 93.550154 
L 222.817467 93.517038 
L 223.220551 93.407341 
L 223.332601 93.359736 
L 223.662988 93.250039 
L 223.774603 93.223132 
L 224.148223 93.113435 
L 224.260522 93.051342 
L 224.65726 92.941645 
L 224.76815 92.912668 
L 224.768357 92.912668 
L 225.14266 92.801936 
L 225.255831 92.751227 
L 225.696402 92.64153 
L 225.808266 92.604274 
L 226.1174 92.494577 
L 226.229243 92.471809 
L 226.598778 92.362112 
L 226.710621 92.322787 
L 227.023674 92.213089 
L 227.129753 92.175834 
L 227.134522 92.175834 
L 227.486183 92.066136 
L 227.598773 92.03095 
L 227.938781 91.920218 
L 228.049711 91.894346 
L 228.049836 91.894346 
L 228.362225 91.784649 
L 228.472824 91.739114 
L 228.473322 91.739114 
L 228.816917 91.628382 
L 228.928823 91.588022 
L 229.293008 91.47729 
L 229.400144 91.438999 
L 229.404063 91.438999 
L 229.817555 91.329302 
L 229.921768 91.304465 
L 229.928465 91.304465 
L 230.197498 91.194768 
L 230.305733 91.155442 
L 230.308595 91.155442 
L 230.639936 91.045745 
L 230.754558 91.010559 
L 231.068357 90.900862 
L 231.171699 90.869815 
L 231.179267 90.869815 
L 231.512474 90.760118 
L 231.624006 90.714583 
L 231.935649 90.604886 
L 232.050064 90.553142 
L 232.306967 90.443445 
L 232.306967 90.44241 
L 232.419225 90.414468 
L 232.705572 90.304771 
L 232.705572 90.303736 
L 232.820235 90.244748 
L 233.184917 90.135051 
L 233.296118 90.108144 
L 233.673303 89.998447 
L 233.784856 89.952912 
L 233.89786 89.923935 
L 234.16708 89.813203 
L 234.272039 89.772843 
L 234.278177 89.772843 
L 234.646757 89.662111 
L 234.765049 89.62589 
L 235.112169 89.515158 
L 235.22507 89.487216 
L 235.532296 89.377519 
L 235.644616 89.348542 
L 235.934364 89.238845 
L 236.047679 89.19745 
L 236.365459 89.087752 
L 236.479293 89.052566 
L 236.801179 88.942869 
L 236.914349 88.893195 
L 237.262734 88.783498 
L 237.37437 88.752451 
L 237.644046 88.641719 
L 237.753774 88.595149 
L 237.755101 88.595149 
L 238.060897 88.485452 
L 238.172865 88.439917 
L 238.530124 88.33022 
L 238.642714 88.295034 
L 238.921409 88.185337 
L 239.033812 88.154291 
L 239.377304 88.044593 
L 239.494994 88.001128 
L 239.830399 87.891431 
L 239.942678 87.843827 
L 240.194335 87.734129 
L 240.306096 87.696874 
L 240.585227 87.587177 
L 240.657259 87.562339 
L 240.696323 87.562339 
L 240.967803 87.451607 
L 241.084063 87.415386 
L 241.430084 87.304654 
L 241.548376 87.260154 
L 241.869785 87.150457 
L 241.981773 87.106992 
L 242.271997 86.99626 
L 242.387946 86.962109 
L 242.784311 86.851377 
L 242.900052 86.819296 
L 243.273029 86.709598 
L 243.386572 86.649575 
L 243.687101 86.539878 
L 243.799587 86.506762 
L 244.053297 86.39603 
L 244.165825 86.357739 
L 244.414268 86.248042 
L 244.527522 86.196298 
L 244.849739 86.086601 
L 244.963303 86.024508 
L 245.263978 85.914811 
L 245.373913 85.863067 
L 245.375054 85.863067 
L 245.625135 85.755439 
L 245.737891 85.701625 
L 246.041655 85.590893 
L 246.160278 85.552603 
L 246.390102 85.441871 
L 246.50661 85.393231 
L 246.92595 85.283534 
L 247.037834 85.244209 
L 247.378382 85.134511 
L 247.378382 85.133476 
L 247.49122 85.091046 
L 247.830959 84.981349 
L 247.943569 84.931675 
L 248.242833 84.821978 
L 248.354842 84.793001 
L 248.703912 84.683304 
L 248.807938 84.658467 
L 248.815008 84.658467 
L 249.204282 84.548769 
L 249.321993 84.509444 
L 249.657419 84.399747 
L 249.76893 84.37491 
L 250.113542 84.264177 
L 250.227002 84.227957 
L 250.602052 84.118259 
L 250.714393 84.089283 
L 251.074763 83.979585 
L 251.192121 83.93819 
L 251.533767 83.828493 
L 251.646544 83.795377 
L 251.944315 83.68568 
L 252.05817 83.648424 
L 252.426792 83.538727 
L 252.539423 83.486983 
L 252.876611 83.37625 
L 252.992124 83.33589 
L 253.348222 83.225158 
L 253.464026 83.199286 
L 253.746122 83.088554 
L 253.857861 83.052333 
L 254.147899 82.942636 
L 254.259618 82.90745 
L 254.57491 82.797753 
L 254.686235 82.760497 
L 254.9669 82.6508 
L 255.078349 82.615614 
L 255.362747 82.505917 
L 255.477825 82.466591 
L 255.809498 82.356894 
L 255.922004 82.311359 
L 256.300786 82.201662 
L 256.414288 82.156127 
L 256.827034 82.04643 
L 256.941884 81.996756 
L 257.286018 81.887058 
L 257.407793 81.837384 
L 257.809031 81.727687 
L 257.920833 81.692501 
L 258.212902 81.581769 
L 258.319561 81.53106 
L 258.323833 81.53106 
L 258.698675 81.421362 
L 258.805542 81.361339 
L 258.809772 81.361339 
L 259.125064 81.250607 
L 259.247876 81.201968 
L 259.614591 81.091236 
L 259.728321 81.050876 
L 260.065343 80.940143 
L 260.184257 80.891504 
L 260.546887 80.781807 
L 260.661799 80.738342 
L 260.971886 80.628645 
L 261.085471 80.589319 
L 261.37555 80.479622 
L 261.490607 80.440296 
L 261.863459 80.330599 
L 261.977086 80.291274 
L 262.277801 80.181576 
L 262.392444 80.131902 
L 262.757914 80.022205 
L 262.871147 79.97874 
L 263.182562 79.869043 
L 263.297017 79.835927 
L 263.62558 79.726229 
L 263.740886 79.693113 
L 264.051762 79.583416 
L 264.165139 79.54823 
L 264.450387 79.438533 
L 264.563536 79.388859 
L 264.866823 79.279161 
L 264.980615 79.237766 
L 265.307125 79.127034 
L 265.420047 79.078395 
L 265.726278 78.968697 
L 265.839054 78.910744 
L 266.22414 78.800012 
L 266.319519 78.755512 
L 266.335236 78.755512 
L 266.714433 78.645815 
L 266.827334 78.612699 
L 267.175615 78.503001 
L 267.287583 78.476095 
L 267.636901 78.366397 
L 267.749387 78.312583 
L 268.118631 78.202886 
L 268.118631 78.201851 
L 268.239929 78.161491 
L 268.534279 78.051794 
L 268.654313 77.99591 
L 268.978334 77.886213 
L 269.091733 77.82826 
L 269.4763 77.718562 
L 269.589719 77.693725 
L 269.918675 77.582993 
L 270.038543 77.536424 
L 270.412991 77.425691 
L 270.525622 77.389471 
L 270.873489 77.279773 
L 270.988194 77.238378 
L 271.305083 77.127646 
L 271.416946 77.089356 
L 271.804354 76.979658 
L 271.917317 76.934124 
L 272.190248 76.824426 
L 272.306508 76.770613 
L 272.668806 76.65988 
L 272.786102 76.602962 
L 273.293626 76.493265 
L 273.406486 76.466358 
L 273.873743 76.356661 
L 273.985379 76.325614 
L 274.376187 76.214882 
L 274.488217 76.168312 
L 275.025827 76.05758 
L 275.138935 76.027569 
L 275.544444 75.917872 
L 275.656619 75.882686 
L 276.065632 75.772988 
L 276.18042 75.748151 
L 276.521693 75.639489 
L 276.635755 75.609477 
L 277.078959 75.49978 
L 277.194037 75.460455 
L 277.590755 75.350757 
L 277.703676 75.32799 
L 278.091457 75.218293 
L 278.201787 75.183107 
L 278.20245 75.183107 
L 278.622577 75.072375 
L 278.732243 75.038224 
L 278.733529 75.038224 
L 279.047204 74.928526 
L 279.161121 74.89748 
L 279.443528 74.787783 
L 279.556014 74.767085 
L 279.841013 74.657388 
L 279.954494 74.626342 
L 280.244282 74.515609 
L 280.3588 74.485598 
L 280.73694 74.375901 
L 280.849985 74.348994 
L 281.211848 74.239296 
L 281.326573 74.204111 
L 281.796796 74.094413 
L 281.90924 74.061297 
L 282.15109 73.9516 
L 282.264053 73.928833 
L 282.6904 73.8181 
L 282.780203 73.792228 
L 282.801373 73.792228 
L 283.173934 73.682531 
L 283.28868 73.639066 
L 283.766969 73.529369 
L 283.884721 73.479695 
L 284.334271 73.369997 
L 284.4525 73.326532 
L 284.832298 73.216835 
L 284.946381 73.183719 
L 285.384506 73.074022 
L 285.497614 73.040906 
L 285.92927 72.931208 
L 286.04302 72.908441 
L 286.412099 72.798744 
L 286.524025 72.767697 
L 286.954146 72.658 
L 287.064206 72.624884 
L 287.06516 72.624884 
L 287.472017 72.515187 
L 287.576852 72.48621 
L 287.58303 72.48621 
L 288.019766 72.376513 
L 288.133372 72.343397 
L 288.542033 72.233699 
L 288.654581 72.186095 
L 289.090653 72.075363 
L 289.203782 72.05363 
L 289.608254 71.943933 
L 289.720139 71.919096 
L 290.178335 71.809399 
L 290.293558 71.761794 
L 290.668981 71.652097 
L 290.781363 71.639678 
L 291.168273 71.529981 
L 291.285238 71.498935 
L 291.69338 71.388203 
L 291.807691 71.351982 
L 292.263938 71.242285 
L 292.376113 71.205029 
L 292.722881 71.094297 
L 292.840965 71.064285 
L 293.242348 70.954588 
L 293.354212 70.929751 
L 293.665668 70.820054 
L 293.778175 70.786937 
L 294.185384 70.67724 
L 294.296771 70.652403 
L 294.743252 70.541671 
L 294.864032 70.497171 
L 295.271884 70.387474 
L 295.386776 70.344009 
L 295.788967 70.234312 
L 295.90307 70.215684 
L 296.542758 70.104952 
L 296.658022 70.07701 
L 297.029008 69.966278 
L 297.141681 69.942475 
L 297.561642 69.832778 
L 297.674978 69.803802 
L 298.102756 69.694104 
L 298.215553 69.663058 
L 298.682769 69.553361 
L 298.797411 69.518175 
L 299.200868 69.408477 
L 299.31269 69.400198 
L 299.652429 69.289466 
L 299.769082 69.263594 
L 300.109961 69.153897 
L 300.222551 69.12906 
L 300.608466 69.019363 
L 300.722963 68.994526 
L 301.16368 68.884828 
L 301.275647 68.864131 
L 301.734217 68.753399 
L 301.84718 68.725457 
L 302.299093 68.614725 
L 302.402435 68.597132 
L 302.410148 68.597132 
L 302.818954 68.487434 
L 302.933203 68.456388 
L 303.265332 68.346691 
L 303.38043 68.311505 
L 303.840783 68.201808 
L 303.956586 68.168691 
L 304.402093 68.058994 
L 304.518083 68.027948 
L 304.924235 67.918251 
L 305.036679 67.897553 
L 305.561786 67.786821 
L 305.67365 67.74853 
L 306.121334 67.638833 
L 306.23299 67.605717 
L 306.72401 67.494985 
L 306.841099 67.471182 
L 307.33415 67.361485 
L 307.447424 67.344927 
L 307.91833 67.23523 
L 308.033076 67.197974 
L 308.511758 67.088277 
L 308.623042 67.067579 
L 309.095628 66.957882 
L 309.212717 66.918557 
L 309.642672 66.808859 
L 309.757128 66.777813 
L 310.319102 66.668116 
L 310.434034 66.62879 
L 310.905666 66.519093 
L 310.905666 66.518058 
L 311.026674 66.494256 
L 311.446594 66.384559 
L 311.559329 66.368001 
L 312.040354 66.258303 
L 312.152259 66.239675 
L 312.642055 66.129978 
L 312.754624 66.103071 
L 313.232643 65.993374 
L 313.346891 65.970607 
L 313.885579 65.860909 
L 314.002046 65.840212 
L 314.452882 65.730515 
L 314.568561 65.697398 
L 315.038306 65.587701 
L 315.150502 65.571143 
L 315.59661 65.460411 
L 315.712952 65.436609 
L 316.267689 65.326911 
L 316.381627 65.295865 
L 316.843265 65.186168 
L 316.95685 65.159261 
L 317.47244 65.049564 
L 317.586584 65.026796 
L 318.188078 64.916064 
L 318.307033 64.881913 
L 318.854327 64.772216 
L 318.970109 64.743239 
L 319.33164 64.633542 
L 319.444852 64.608705 
L 320.06905 64.497973 
L 320.181515 64.47624 
L 320.679066 64.366543 
L 320.790557 64.362403 
L 321.253791 64.252706 
L 321.368289 64.21752 
L 321.713729 64.107823 
L 321.827086 64.080916 
L 322.42153 63.971219 
L 322.536152 63.948451 
L 323.097337 63.837719 
L 323.215339 63.803568 
L 323.740259 63.693871 
L 323.85316 63.669034 
L 324.4503 63.560372 
L 324.562599 63.536569 
L 325.100251 63.426872 
L 325.213483 63.399965 
L 325.76426 63.290268 
L 325.876165 63.267501 
L 326.477078 63.157803 
L 326.590248 63.135036 
L 327.027814 63.024304 
L 327.139532 62.994292 
L 327.584914 62.88356 
L 327.697608 62.859758 
L 328.307748 62.749026 
L 328.421768 62.731433 
L 329.02799 62.621736 
L 329.139791 62.603108 
L 329.661685 62.492376 
L 329.775726 62.472713 
L 330.241075 62.363016 
L 330.354142 62.338178 
L 331.00401 62.228481 
L 331.118279 62.205714 
L 331.902591 62.096017 
L 332.016197 62.0629 
L 332.597661 61.952168 
L 332.70969 61.930436 
L 333.394704 61.819704 
L 333.513348 61.787622 
L 334.058547 61.67689 
L 334.171738 61.661367 
L 334.880161 61.55167 
L 334.992668 61.537181 
L 335.64859 61.426449 
L 335.76035 61.408856 
L 336.370242 61.298124 
L 336.483599 61.263973 
L 337.168612 61.154276 
L 337.283171 61.125299 
L 337.883919 61.015602 
L 337.99599 60.990765 
L 338.51384 60.881068 
L 338.626865 60.852091 
L 339.303128 60.742394 
L 339.415469 60.727905 
L 340.11058 60.618208 
L 340.21923 60.589232 
L 340.221574 60.589232 
L 340.841044 60.479534 
L 340.953717 60.460906 
L 341.562095 60.351209 
L 341.67485 60.332581 
L 342.310847 60.222884 
L 342.422172 60.193907 
L 343.196572 60.085245 
L 343.308125 60.063513 
L 343.880819 59.95278 
L 343.993408 59.931048 
L 344.60755 59.821351 
L 344.719269 59.804793 
L 345.497734 59.695095 
L 345.61078 59.678537 
L 346.427231 59.56884 
L 346.539364 59.550212 
L 347.221018 59.440515 
L 347.334811 59.421887 
L 348.08122 59.31219 
L 348.192461 59.303911 
L 348.948657 59.195248 
L 349.061288 59.173516 
L 349.838986 59.063819 
L 349.951762 59.036912 
L 350.862846 58.927215 
L 350.974752 58.908587 
L 351.632043 58.798889 
L 351.744052 58.778192 
L 352.57962 58.668495 
L 352.690634 58.658146 
L 353.279791 58.548449 
L 353.39153 58.53396 
L 354.179699 58.424263 
L 354.291936 58.411844 
L 355.011224 58.302147 
L 355.123896 58.283519 
L 355.994444 58.172787 
L 356.084868 58.161403 
L 356.105375 58.161403 
L 356.995185 58.051706 
L 357.10792 58.031009 
L 358.105219 57.921311 
L 358.216814 57.906823 
L 358.869522 57.797126 
L 358.980785 57.784707 
L 359.75757 57.67501 
L 359.853966 57.652243 
L 359.868646 57.652243 
L 360.640517 57.542545 
L 360.754019 57.534266 
L 361.596285 57.424569 
L 361.708273 57.403871 
L 362.725125 57.294174 
L 362.836305 57.285895 
L 363.801403 57.176198 
L 363.91449 57.167919 
L 365.005324 57.058222 
L 365.116711 57.039594 
L 366.046498 56.929896 
L 366.161016 56.915408 
L 367.343663 56.805711 
L 367.454988 56.803641 
L 368.426762 56.693944 
L 368.539041 56.683595 
L 369.497753 56.573898 
L 369.609637 56.55527 
L 370.779781 56.445573 
L 370.891459 56.435224 
L 372.03021 56.325527 
L 372.143505 56.308969 
L 373.411268 56.199271 
L 373.522655 56.184783 
L 374.682577 56.075086 
L 374.793984 56.066807 
L 376.128472 55.957109 
L 376.24073 55.936412 
L 377.646918 55.826715 
L 377.759217 55.810157 
L 378.963097 55.699424 
L 379.074587 55.69011 
L 380.418592 55.580413 
L 380.529709 55.572134 
L 382.037705 55.462437 
L 382.149134 55.445879 
L 383.627935 55.336182 
L 383.739115 55.325833 
L 385.469781 55.216136 
L 385.581561 55.209926 
L 387.259188 55.100229 
L 387.370928 55.08988 
L 388.773591 54.980183 
L 388.818585 54.976043 
L 388.884646 54.976043 
L 391.251267 54.866346 
L 391.251267 54.865311 
L 391.363131 54.855997 
L 393.33631 54.7463 
L 393.33631 54.745265 
L 393.447697 54.731812 
L 396.039747 54.622114 
L 396.039747 54.620045 
L 396.15076 54.620045 
L 398.644983 54.510347 
L 398.683425 54.504138 
L 398.755706 54.504138 
L 402.222305 54.394441 
L 402.280694 54.388232 
L 402.333194 54.388232 
L 406.557523 54.278534 
L 406.629348 54.272325 
L 406.668578 54.272325 
L 413.606586 54.162628 
L 413.606586 54.160558 
L 413.717268 54.160558 
L 414.72 54.144 
L 414.72 54.144 
" clip-path="url(#p53584ac9f1)" style="fill: none; stroke: #ff8c00; stroke-width: 1.5; stroke-linecap: square"/>
   </g>
   <g id="line2d_14">
    <path d="M 74.605714 307.584 
L 414.72 54.144 
" clip-path="url(#p53584ac9f1)" style="fill: none; stroke-dasharray: 5.55,2.4; stroke-dashoffset: 0; stroke: #0000ff; stroke-width: 1.5"/>
   </g>
   <g id="patch_3">
    <path d="M 57.6 307.584 
L 57.6 41.472 
" style="fill: none; stroke: #000000; stroke-width: 0.8; stroke-linejoin: miter; stroke-linecap: square"/>
   </g>
   <g id="patch_4">
    <path d="M 414.72 307.584 
L 414.72 41.472 
" style="fill: none; stroke: #000000; stroke-width: 0.8; stroke-linejoin: miter; stroke-linecap: square"/>
   </g>
   <g id="patch_5">
    <path d="M 57.6 307.584 
L 414.72 307.584 
" style="fill: none; stroke: #000000; stroke-width: 0.8; stroke-linejoin: miter; stroke-linecap: square"/>
   </g>
   <g id="patch_6">
    <path d="M 57.6 41.472 
L 414.72 41.472 
" style="fill: none; stroke: #000000; stroke-width: 0.8; stroke-linejoin: miter; stroke-linecap: square"/>
   </g>
   <g id="text_15">
    <!-- ROC CURVE -->
    <g transform="translate(200.855625 35.472)scale(0.12 -0.12)">
     <defs>
      <path id="DejaVuSans-4f" d="M 2522 4238 
Q 1834 4238 1429 3725 
Q 1025 3213 1025 2328 
Q 1025 1447 1429 934 
Q 1834 422 2522 422 
Q 3209 422 3611 934 
Q 4013 1447 4013 2328 
Q 4013 3213 3611 3725 
Q 3209 4238 2522 4238 
z
M 2522 4750 
Q 3503 4750 4090 4092 
Q 4678 3434 4678 2328 
Q 4678 1225 4090 567 
Q 3503 -91 2522 -91 
Q 1538 -91 948 565 
Q 359 1222 359 2328 
Q 359 3434 948 4092 
Q 1538 4750 2522 4750 
z
" transform="scale(0.015625)"/>
      <path id="DejaVuSans-43" d="M 4122 4306 
L 4122 3641 
Q 3803 3938 3442 4084 
Q 3081 4231 2675 4231 
Q 1875 4231 1450 3742 
Q 1025 3253 1025 2328 
Q 1025 1406 1450 917 
Q 1875 428 2675 428 
Q 3081 428 3442 575 
Q 3803 722 4122 1019 
L 4122 359 
Q 3791 134 3420 21 
Q 3050 -91 2638 -91 
Q 1578 -91 968 557 
Q 359 1206 359 2328 
Q 359 3453 968 4101 
Q 1578 4750 2638 4750 
Q 3056 4750 3426 4639 
Q 3797 4528 4122 4306 
z
" transform="scale(0.015625)"/>
      <path id="DejaVuSans-55" d="M 556 4666 
L 1191 4666 
L 1191 1831 
Q 1191 1081 1462 751 
Q 1734 422 2344 422 
Q 2950 422 3222 751 
Q 3494 1081 3494 1831 
L 3494 4666 
L 4128 4666 
L 4128 1753 
Q 4128 841 3676 375 
Q 3225 -91 2344 -91 
Q 1459 -91 1007 375 
Q 556 841 556 1753 
L 556 4666 
z
" transform="scale(0.015625)"/>
      <path id="DejaVuSans-56" d="M 1831 0 
L 50 4666 
L 709 4666 
L 2188 738 
L 3669 4666 
L 4325 4666 
L 2547 0 
L 1831 0 
z
" transform="scale(0.015625)"/>
      <path id="DejaVuSans-45" d="M 628 4666 
L 3578 4666 
L 3578 4134 
L 1259 4134 
L 1259 2753 
L 3481 2753 
L 3481 2222 
L 1259 2222 
L 1259 531 
L 3634 531 
L 3634 0 
L 628 0 
L 628 4666 
z
" transform="scale(0.015625)"/>
     </defs>
     <use xlink:href="#DejaVuSans-52"/>
     <use xlink:href="#DejaVuSans-4f" x="69.482422"/>
     <use xlink:href="#DejaVuSans-43" x="148.193359"/>
     <use xlink:href="#DejaVuSans-20" x="218.017578"/>
     <use xlink:href="#DejaVuSans-43" x="249.804688"/>
     <use xlink:href="#DejaVuSans-55" x="319.628906"/>
     <use xlink:href="#DejaVuSans-52" x="392.822266"/>
     <use xlink:href="#DejaVuSans-56" x="456.804688"/>
     <use xlink:href="#DejaVuSans-45" x="525.212891"/>
    </g>
   </g>
   <g id="legend_1">
    <g id="patch_7">
     <path d="M 234.97 302.584 
L 407.72 302.584 
Q 409.72 302.584 409.72 300.584 
L 409.72 286.905875 
Q 409.72 284.905875 407.72 284.905875 
L 234.97 284.905875 
Q 232.97 284.905875 232.97 286.905875 
L 232.97 300.584 
Q 232.97 302.584 234.97 302.584 
z
" style="fill: #ffffff; opacity: 0.8; stroke: #cccccc; stroke-linejoin: miter"/>
    </g>
    <g id="line2d_15">
     <path d="M 236.97 293.004312 
L 246.97 293.004312 
L 256.97 293.004312 
" style="fill: none; stroke: #ff8c00; stroke-width: 1.5; stroke-linecap: square"/>
    </g>
    <g id="text_16">
     <!-- ROC curve (ROC AUC=0.78) -->
     <g transform="translate(264.97 296.504312)scale(0.1 -0.1)">
      <defs>
       <path id="DejaVuSans-63" d="M 3122 3366 
L 3122 2828 
Q 2878 2963 2633 3030 
Q 2388 3097 2138 3097 
Q 1578 3097 1268 2742 
Q 959 2388 959 1747 
Q 959 1106 1268 751 
Q 1578 397 2138 397 
Q 2388 397 2633 464 
Q 2878 531 3122 666 
L 3122 134 
Q 2881 22 2623 -34 
Q 2366 -91 2075 -91 
Q 1284 -91 818 406 
Q 353 903 353 1747 
Q 353 2603 823 3093 
Q 1294 3584 2113 3584 
Q 2378 3584 2631 3529 
Q 2884 3475 3122 3366 
z
" transform="scale(0.015625)"/>
       <path id="DejaVuSans-28" d="M 1984 4856 
Q 1566 4138 1362 3434 
Q 1159 2731 1159 2009 
Q 1159 1288 1364 580 
Q 1569 -128 1984 -844 
L 1484 -844 
Q 1016 -109 783 600 
Q 550 1309 550 2009 
Q 550 2706 781 3412 
Q 1013 4119 1484 4856 
L 1984 4856 
z
" transform="scale(0.015625)"/>
       <path id="DejaVuSans-41" d="M 2188 4044 
L 1331 1722 
L 3047 1722 
L 2188 4044 
z
M 1831 4666 
L 2547 4666 
L 4325 0 
L 3669 0 
L 3244 1197 
L 1141 1197 
L 716 0 
L 50 0 
L 1831 4666 
z
" transform="scale(0.015625)"/>
       <path id="DejaVuSans-3d" d="M 678 2906 
L 4684 2906 
L 4684 2381 
L 678 2381 
L 678 2906 
z
M 678 1631 
L 4684 1631 
L 4684 1100 
L 678 1100 
L 678 1631 
z
" transform="scale(0.015625)"/>
       <path id="DejaVuSans-37" d="M 525 4666 
L 3525 4666 
L 3525 4397 
L 1831 0 
L 1172 0 
L 2766 4134 
L 525 4134 
L 525 4666 
z
" transform="scale(0.015625)"/>
       <path id="DejaVuSans-29" d="M 513 4856 
L 1013 4856 
Q 1481 4119 1714 3412 
Q 1947 2706 1947 2009 
Q 1947 1309 1714 600 
Q 1481 -109 1013 -844 
L 513 -844 
Q 928 -128 1133 580 
Q 1338 1288 1338 2009 
Q 1338 2731 1133 3434 
Q 928 4138 513 4856 
z
" transform="scale(0.015625)"/>
      </defs>
      <use xlink:href="#DejaVuSans-52"/>
      <use xlink:href="#DejaVuSans-4f" x="69.482422"/>
      <use xlink:href="#DejaVuSans-43" x="148.193359"/>
      <use xlink:href="#DejaVuSans-20" x="218.017578"/>
      <use xlink:href="#DejaVuSans-63" x="249.804688"/>
      <use xlink:href="#DejaVuSans-75" x="304.785156"/>
      <use xlink:href="#DejaVuSans-72" x="368.164062"/>
      <use xlink:href="#DejaVuSans-76" x="409.277344"/>
      <use xlink:href="#DejaVuSans-65" x="468.457031"/>
      <use xlink:href="#DejaVuSans-20" x="529.980469"/>
      <use xlink:href="#DejaVuSans-28" x="561.767578"/>
      <use xlink:href="#DejaVuSans-52" x="600.78125"/>
      <use xlink:href="#DejaVuSans-4f" x="670.263672"/>
      <use xlink:href="#DejaVuSans-43" x="748.974609"/>
      <use xlink:href="#DejaVuSans-20" x="818.798828"/>
      <use xlink:href="#DejaVuSans-41" x="850.585938"/>
      <use xlink:href="#DejaVuSans-55" x="918.994141"/>
      <use xlink:href="#DejaVuSans-43" x="992.1875"/>
      <use xlink:href="#DejaVuSans-3d" x="1062.011719"/>
      <use xlink:href="#DejaVuSans-30" x="1145.800781"/>
      <use xlink:href="#DejaVuSans-2e" x="1209.423828"/>
      <use xlink:href="#DejaVuSans-37" x="1241.210938"/>
      <use xlink:href="#DejaVuSans-38" x="1304.833984"/>
      <use xlink:href="#DejaVuSans-29" x="1368.457031"/>
     </g>
    </g>
   </g>
  </g>
 </g>
 <defs>
  <clipPath id="p53584ac9f1">
   <rect x="57.6" y="41.472" width="357.12" height="266.112"/>
  </clipPath>
 </defs>
</svg>
