<?xml version="1.0" encoding="utf-8" standalone="no"?>
<!DOCTYPE svg PUBLIC "-//W3C//DTD SVG 1.1//EN"
  "http://www.w3.org/Graphics/SVG/1.1/DTD/svg11.dtd">
<svg xmlns:xlink="http://www.w3.org/1999/xlink" width="460.8pt" height="345.6pt" viewBox="0 0 460.8 345.6" xmlns="http://www.w3.org/2000/svg" version="1.1">
 <metadata>
  <rdf:RDF xmlns:dc="http://purl.org/dc/elements/1.1/" xmlns:cc="http://creativecommons.org/ns#" xmlns:rdf="http://www.w3.org/1999/02/22-rdf-syntax-ns#">
   <cc:Work>
    <dc:type rdf:resource="http://purl.org/dc/dcmitype/StillImage"/>
    <dc:date>2022-05-23T18:50:46.543681</dc:date>
    <dc:format>image/svg+xml</dc:format>
    <dc:creator>
     <cc:Agent>
      <dc:title>Matplotlib v3.5.1, https://matplotlib.org/</dc:title>
     </cc:Agent>
    </dc:creator>
   </cc:Work>
  </rdf:RDF>
 </metadata>
 <defs>
  <style type="text/css">*{stroke-linejoin: round; stroke-linecap: butt}</style>
 </defs>
 <g id="figure_1">
  <g id="patch_1">
   <path d="M 0 345.6 
L 460.8 345.6 
L 460.8 0 
L 0 0 
z
" style="fill: #ffffff"/>
  </g>
  <g id="axes_1">
   <g id="patch_2">
    <path d="M 57.6 307.584 
L 414.72 307.584 
L 414.72 41.472 
L 57.6 41.472 
z
" style="fill: #ffffff"/>
   </g>
   <g id="matplotlib.axis_1">
    <g id="xtick_1">
     <g id="line2d_1">
      <defs>
       <path id="m24be26a78c" d="M 0 0 
L 0 3.5 
" style="stroke: #000000; stroke-width: 0.8"/>
      </defs>
      <g>
       <use xlink:href="#m24be26a78c" x="74.605714" y="307.584" style="stroke: #000000; stroke-width: 0.8"/>
      </g>
     </g>
     <g id="text_1">
      <!-- 0.0 -->
      <g transform="translate(66.654152 322.182437)scale(0.1 -0.1)">
       <defs>
        <path id="DejaVuSans-30" d="M 2034 4250 
Q 1547 4250 1301 3770 
Q 1056 3291 1056 2328 
Q 1056 1369 1301 889 
Q 1547 409 2034 409 
Q 2525 409 2770 889 
Q 3016 1369 3016 2328 
Q 3016 3291 2770 3770 
Q 2525 4250 2034 4250 
z
M 2034 4750 
Q 2819 4750 3233 4129 
Q 3647 3509 3647 2328 
Q 3647 1150 3233 529 
Q 2819 -91 2034 -91 
Q 1250 -91 836 529 
Q 422 1150 422 2328 
Q 422 3509 836 4129 
Q 1250 4750 2034 4750 
z
" transform="scale(0.015625)"/>
        <path id="DejaVuSans-2e" d="M 684 794 
L 1344 794 
L 1344 0 
L 684 0 
L 684 794 
z
" transform="scale(0.015625)"/>
       </defs>
       <use xlink:href="#DejaVuSans-30"/>
       <use xlink:href="#DejaVuSans-2e" x="63.623047"/>
       <use xlink:href="#DejaVuSans-30" x="95.410156"/>
      </g>
     </g>
    </g>
    <g id="xtick_2">
     <g id="line2d_2">
      <g>
       <use xlink:href="#m24be26a78c" x="142.628571" y="307.584" style="stroke: #000000; stroke-width: 0.8"/>
      </g>
     </g>
     <g id="text_2">
      <!-- 0.2 -->
      <g transform="translate(134.677009 322.182437)scale(0.1 -0.1)">
       <defs>
        <path id="DejaVuSans-32" d="M 1228 531 
L 3431 531 
L 3431 0 
L 469 0 
L 469 531 
Q 828 903 1448 1529 
Q 2069 2156 2228 2338 
Q 2531 2678 2651 2914 
Q 2772 3150 2772 3378 
Q 2772 3750 2511 3984 
Q 2250 4219 1831 4219 
Q 1534 4219 1204 4116 
Q 875 4013 500 3803 
L 500 4441 
Q 881 4594 1212 4672 
Q 1544 4750 1819 4750 
Q 2544 4750 2975 4387 
Q 3406 4025 3406 3419 
Q 3406 3131 3298 2873 
Q 3191 2616 2906 2266 
Q 2828 2175 2409 1742 
Q 1991 1309 1228 531 
z
" transform="scale(0.015625)"/>
       </defs>
       <use xlink:href="#DejaVuSans-30"/>
       <use xlink:href="#DejaVuSans-2e" x="63.623047"/>
       <use xlink:href="#DejaVuSans-32" x="95.410156"/>
      </g>
     </g>
    </g>
    <g id="xtick_3">
     <g id="line2d_3">
      <g>
       <use xlink:href="#m24be26a78c" x="210.651429" y="307.584" style="stroke: #000000; stroke-width: 0.8"/>
      </g>
     </g>
     <g id="text_3">
      <!-- 0.4 -->
      <g transform="translate(202.699866 322.182437)scale(0.1 -0.1)">
       <defs>
        <path id="DejaVuSans-34" d="M 2419 4116 
L 825 1625 
L 2419 1625 
L 2419 4116 
z
M 2253 4666 
L 3047 4666 
L 3047 1625 
L 3713 1625 
L 3713 1100 
L 3047 1100 
L 3047 0 
L 2419 0 
L 2419 1100 
L 313 1100 
L 313 1709 
L 2253 4666 
z
" transform="scale(0.015625)"/>
       </defs>
       <use xlink:href="#DejaVuSans-30"/>
       <use xlink:href="#DejaVuSans-2e" x="63.623047"/>
       <use xlink:href="#DejaVuSans-34" x="95.410156"/>
      </g>
     </g>
    </g>
    <g id="xtick_4">
     <g id="line2d_4">
      <g>
       <use xlink:href="#m24be26a78c" x="278.674286" y="307.584" style="stroke: #000000; stroke-width: 0.8"/>
      </g>
     </g>
     <g id="text_4">
      <!-- 0.6 -->
      <g transform="translate(270.722723 322.182437)scale(0.1 -0.1)">
       <defs>
        <path id="DejaVuSans-36" d="M 2113 2584 
Q 1688 2584 1439 2293 
Q 1191 2003 1191 1497 
Q 1191 994 1439 701 
Q 1688 409 2113 409 
Q 2538 409 2786 701 
Q 3034 994 3034 1497 
Q 3034 2003 2786 2293 
Q 2538 2584 2113 2584 
z
M 3366 4563 
L 3366 3988 
Q 3128 4100 2886 4159 
Q 2644 4219 2406 4219 
Q 1781 4219 1451 3797 
Q 1122 3375 1075 2522 
Q 1259 2794 1537 2939 
Q 1816 3084 2150 3084 
Q 2853 3084 3261 2657 
Q 3669 2231 3669 1497 
Q 3669 778 3244 343 
Q 2819 -91 2113 -91 
Q 1303 -91 875 529 
Q 447 1150 447 2328 
Q 447 3434 972 4092 
Q 1497 4750 2381 4750 
Q 2619 4750 2861 4703 
Q 3103 4656 3366 4563 
z
" transform="scale(0.015625)"/>
       </defs>
       <use xlink:href="#DejaVuSans-30"/>
       <use xlink:href="#DejaVuSans-2e" x="63.623047"/>
       <use xlink:href="#DejaVuSans-36" x="95.410156"/>
      </g>
     </g>
    </g>
    <g id="xtick_5">
     <g id="line2d_5">
      <g>
       <use xlink:href="#m24be26a78c" x="346.697143" y="307.584" style="stroke: #000000; stroke-width: 0.8"/>
      </g>
     </g>
     <g id="text_5">
      <!-- 0.8 -->
      <g transform="translate(338.74558 322.182437)scale(0.1 -0.1)">
       <defs>
        <path id="DejaVuSans-38" d="M 2034 2216 
Q 1584 2216 1326 1975 
Q 1069 1734 1069 1313 
Q 1069 891 1326 650 
Q 1584 409 2034 409 
Q 2484 409 2743 651 
Q 3003 894 3003 1313 
Q 3003 1734 2745 1975 
Q 2488 2216 2034 2216 
z
M 1403 2484 
Q 997 2584 770 2862 
Q 544 3141 544 3541 
Q 544 4100 942 4425 
Q 1341 4750 2034 4750 
Q 2731 4750 3128 4425 
Q 3525 4100 3525 3541 
Q 3525 3141 3298 2862 
Q 3072 2584 2669 2484 
Q 3125 2378 3379 2068 
Q 3634 1759 3634 1313 
Q 3634 634 3220 271 
Q 2806 -91 2034 -91 
Q 1263 -91 848 271 
Q 434 634 434 1313 
Q 434 1759 690 2068 
Q 947 2378 1403 2484 
z
M 1172 3481 
Q 1172 3119 1398 2916 
Q 1625 2713 2034 2713 
Q 2441 2713 2670 2916 
Q 2900 3119 2900 3481 
Q 2900 3844 2670 4047 
Q 2441 4250 2034 4250 
Q 1625 4250 1398 4047 
Q 1172 3844 1172 3481 
z
" transform="scale(0.015625)"/>
       </defs>
       <use xlink:href="#DejaVuSans-30"/>
       <use xlink:href="#DejaVuSans-2e" x="63.623047"/>
       <use xlink:href="#DejaVuSans-38" x="95.410156"/>
      </g>
     </g>
    </g>
    <g id="xtick_6">
     <g id="line2d_6">
      <g>
       <use xlink:href="#m24be26a78c" x="414.72" y="307.584" style="stroke: #000000; stroke-width: 0.8"/>
      </g>
     </g>
     <g id="text_6">
      <!-- 1.0 -->
      <g transform="translate(406.768438 322.182437)scale(0.1 -0.1)">
       <defs>
        <path id="DejaVuSans-31" d="M 794 531 
L 1825 531 
L 1825 4091 
L 703 3866 
L 703 4441 
L 1819 4666 
L 2450 4666 
L 2450 531 
L 3481 531 
L 3481 0 
L 794 0 
L 794 531 
z
" transform="scale(0.015625)"/>
       </defs>
       <use xlink:href="#DejaVuSans-31"/>
       <use xlink:href="#DejaVuSans-2e" x="63.623047"/>
       <use xlink:href="#DejaVuSans-30" x="95.410156"/>
      </g>
     </g>
    </g>
    <g id="text_7">
     <!-- False Positive Rate -->
     <g transform="translate(189.693594 335.860562)scale(0.1 -0.1)">
      <defs>
       <path id="DejaVuSans-46" d="M 628 4666 
L 3309 4666 
L 3309 4134 
L 1259 4134 
L 1259 2759 
L 3109 2759 
L 3109 2228 
L 1259 2228 
L 1259 0 
L 628 0 
L 628 4666 
z
" transform="scale(0.015625)"/>
       <path id="DejaVuSans-61" d="M 2194 1759 
Q 1497 1759 1228 1600 
Q 959 1441 959 1056 
Q 959 750 1161 570 
Q 1363 391 1709 391 
Q 2188 391 2477 730 
Q 2766 1069 2766 1631 
L 2766 1759 
L 2194 1759 
z
M 3341 1997 
L 3341 0 
L 2766 0 
L 2766 531 
Q 2569 213 2275 61 
Q 1981 -91 1556 -91 
Q 1019 -91 701 211 
Q 384 513 384 1019 
Q 384 1609 779 1909 
Q 1175 2209 1959 2209 
L 2766 2209 
L 2766 2266 
Q 2766 2663 2505 2880 
Q 2244 3097 1772 3097 
Q 1472 3097 1187 3025 
Q 903 2953 641 2809 
L 641 3341 
Q 956 3463 1253 3523 
Q 1550 3584 1831 3584 
Q 2591 3584 2966 3190 
Q 3341 2797 3341 1997 
z
" transform="scale(0.015625)"/>
       <path id="DejaVuSans-6c" d="M 603 4863 
L 1178 4863 
L 1178 0 
L 603 0 
L 603 4863 
z
" transform="scale(0.015625)"/>
       <path id="DejaVuSans-73" d="M 2834 3397 
L 2834 2853 
Q 2591 2978 2328 3040 
Q 2066 3103 1784 3103 
Q 1356 3103 1142 2972 
Q 928 2841 928 2578 
Q 928 2378 1081 2264 
Q 1234 2150 1697 2047 
L 1894 2003 
Q 2506 1872 2764 1633 
Q 3022 1394 3022 966 
Q 3022 478 2636 193 
Q 2250 -91 1575 -91 
Q 1294 -91 989 -36 
Q 684 19 347 128 
L 347 722 
Q 666 556 975 473 
Q 1284 391 1588 391 
Q 1994 391 2212 530 
Q 2431 669 2431 922 
Q 2431 1156 2273 1281 
Q 2116 1406 1581 1522 
L 1381 1569 
Q 847 1681 609 1914 
Q 372 2147 372 2553 
Q 372 3047 722 3315 
Q 1072 3584 1716 3584 
Q 2034 3584 2315 3537 
Q 2597 3491 2834 3397 
z
" transform="scale(0.015625)"/>
       <path id="DejaVuSans-65" d="M 3597 1894 
L 3597 1613 
L 953 1613 
Q 991 1019 1311 708 
Q 1631 397 2203 397 
Q 2534 397 2845 478 
Q 3156 559 3463 722 
L 3463 178 
Q 3153 47 2828 -22 
Q 2503 -91 2169 -91 
Q 1331 -91 842 396 
Q 353 884 353 1716 
Q 353 2575 817 3079 
Q 1281 3584 2069 3584 
Q 2775 3584 3186 3129 
Q 3597 2675 3597 1894 
z
M 3022 2063 
Q 3016 2534 2758 2815 
Q 2500 3097 2075 3097 
Q 1594 3097 1305 2825 
Q 1016 2553 972 2059 
L 3022 2063 
z
" transform="scale(0.015625)"/>
       <path id="DejaVuSans-20" transform="scale(0.015625)"/>
       <path id="DejaVuSans-50" d="M 1259 4147 
L 1259 2394 
L 2053 2394 
Q 2494 2394 2734 2622 
Q 2975 2850 2975 3272 
Q 2975 3691 2734 3919 
Q 2494 4147 2053 4147 
L 1259 4147 
z
M 628 4666 
L 2053 4666 
Q 2838 4666 3239 4311 
Q 3641 3956 3641 3272 
Q 3641 2581 3239 2228 
Q 2838 1875 2053 1875 
L 1259 1875 
L 1259 0 
L 628 0 
L 628 4666 
z
" transform="scale(0.015625)"/>
       <path id="DejaVuSans-6f" d="M 1959 3097 
Q 1497 3097 1228 2736 
Q 959 2375 959 1747 
Q 959 1119 1226 758 
Q 1494 397 1959 397 
Q 2419 397 2687 759 
Q 2956 1122 2956 1747 
Q 2956 2369 2687 2733 
Q 2419 3097 1959 3097 
z
M 1959 3584 
Q 2709 3584 3137 3096 
Q 3566 2609 3566 1747 
Q 3566 888 3137 398 
Q 2709 -91 1959 -91 
Q 1206 -91 779 398 
Q 353 888 353 1747 
Q 353 2609 779 3096 
Q 1206 3584 1959 3584 
z
" transform="scale(0.015625)"/>
       <path id="DejaVuSans-69" d="M 603 3500 
L 1178 3500 
L 1178 0 
L 603 0 
L 603 3500 
z
M 603 4863 
L 1178 4863 
L 1178 4134 
L 603 4134 
L 603 4863 
z
" transform="scale(0.015625)"/>
       <path id="DejaVuSans-74" d="M 1172 4494 
L 1172 3500 
L 2356 3500 
L 2356 3053 
L 1172 3053 
L 1172 1153 
Q 1172 725 1289 603 
Q 1406 481 1766 481 
L 2356 481 
L 2356 0 
L 1766 0 
Q 1100 0 847 248 
Q 594 497 594 1153 
L 594 3053 
L 172 3053 
L 172 3500 
L 594 3500 
L 594 4494 
L 1172 4494 
z
" transform="scale(0.015625)"/>
       <path id="DejaVuSans-76" d="M 191 3500 
L 800 3500 
L 1894 563 
L 2988 3500 
L 3597 3500 
L 2284 0 
L 1503 0 
L 191 3500 
z
" transform="scale(0.015625)"/>
       <path id="DejaVuSans-52" d="M 2841 2188 
Q 3044 2119 3236 1894 
Q 3428 1669 3622 1275 
L 4263 0 
L 3584 0 
L 2988 1197 
Q 2756 1666 2539 1819 
Q 2322 1972 1947 1972 
L 1259 1972 
L 1259 0 
L 628 0 
L 628 4666 
L 2053 4666 
Q 2853 4666 3247 4331 
Q 3641 3997 3641 3322 
Q 3641 2881 3436 2590 
Q 3231 2300 2841 2188 
z
M 1259 4147 
L 1259 2491 
L 2053 2491 
Q 2509 2491 2742 2702 
Q 2975 2913 2975 3322 
Q 2975 3731 2742 3939 
Q 2509 4147 2053 4147 
L 1259 4147 
z
" transform="scale(0.015625)"/>
      </defs>
      <use xlink:href="#DejaVuSans-46"/>
      <use xlink:href="#DejaVuSans-61" x="48.394531"/>
      <use xlink:href="#DejaVuSans-6c" x="109.673828"/>
      <use xlink:href="#DejaVuSans-73" x="137.457031"/>
      <use xlink:href="#DejaVuSans-65" x="189.556641"/>
      <use xlink:href="#DejaVuSans-20" x="251.080078"/>
      <use xlink:href="#DejaVuSans-50" x="282.867188"/>
      <use xlink:href="#DejaVuSans-6f" x="339.544922"/>
      <use xlink:href="#DejaVuSans-73" x="400.726562"/>
      <use xlink:href="#DejaVuSans-69" x="452.826172"/>
      <use xlink:href="#DejaVuSans-74" x="480.609375"/>
      <use xlink:href="#DejaVuSans-69" x="519.818359"/>
      <use xlink:href="#DejaVuSans-76" x="547.601562"/>
      <use xlink:href="#DejaVuSans-65" x="606.78125"/>
      <use xlink:href="#DejaVuSans-20" x="668.304688"/>
      <use xlink:href="#DejaVuSans-52" x="700.091797"/>
      <use xlink:href="#DejaVuSans-61" x="767.324219"/>
      <use xlink:href="#DejaVuSans-74" x="828.603516"/>
      <use xlink:href="#DejaVuSans-65" x="867.8125"/>
     </g>
    </g>
   </g>
   <g id="matplotlib.axis_2">
    <g id="ytick_1">
     <g id="line2d_7">
      <defs>
       <path id="m34b5a2f413" d="M 0 0 
L -3.5 0 
" style="stroke: #000000; stroke-width: 0.8"/>
      </defs>
      <g>
       <use xlink:href="#m34b5a2f413" x="57.6" y="307.584" style="stroke: #000000; stroke-width: 0.8"/>
      </g>
     </g>
     <g id="text_8">
      <!-- 0.0 -->
      <g transform="translate(34.696875 311.383219)scale(0.1 -0.1)">
       <use xlink:href="#DejaVuSans-30"/>
       <use xlink:href="#DejaVuSans-2e" x="63.623047"/>
       <use xlink:href="#DejaVuSans-30" x="95.410156"/>
      </g>
     </g>
    </g>
    <g id="ytick_2">
     <g id="line2d_8">
      <g>
       <use xlink:href="#m34b5a2f413" x="57.6" y="256.896" style="stroke: #000000; stroke-width: 0.8"/>
      </g>
     </g>
     <g id="text_9">
      <!-- 0.2 -->
      <g transform="translate(34.696875 260.695219)scale(0.1 -0.1)">
       <use xlink:href="#DejaVuSans-30"/>
       <use xlink:href="#DejaVuSans-2e" x="63.623047"/>
       <use xlink:href="#DejaVuSans-32" x="95.410156"/>
      </g>
     </g>
    </g>
    <g id="ytick_3">
     <g id="line2d_9">
      <g>
       <use xlink:href="#m34b5a2f413" x="57.6" y="206.208" style="stroke: #000000; stroke-width: 0.8"/>
      </g>
     </g>
     <g id="text_10">
      <!-- 0.4 -->
      <g transform="translate(34.696875 210.007219)scale(0.1 -0.1)">
       <use xlink:href="#DejaVuSans-30"/>
       <use xlink:href="#DejaVuSans-2e" x="63.623047"/>
       <use xlink:href="#DejaVuSans-34" x="95.410156"/>
      </g>
     </g>
    </g>
    <g id="ytick_4">
     <g id="line2d_10">
      <g>
       <use xlink:href="#m34b5a2f413" x="57.6" y="155.52" style="stroke: #000000; stroke-width: 0.8"/>
      </g>
     </g>
     <g id="text_11">
      <!-- 0.6 -->
      <g transform="translate(34.696875 159.319219)scale(0.1 -0.1)">
       <use xlink:href="#DejaVuSans-30"/>
       <use xlink:href="#DejaVuSans-2e" x="63.623047"/>
       <use xlink:href="#DejaVuSans-36" x="95.410156"/>
      </g>
     </g>
    </g>
    <g id="ytick_5">
     <g id="line2d_11">
      <g>
       <use xlink:href="#m34b5a2f413" x="57.6" y="104.832" style="stroke: #000000; stroke-width: 0.8"/>
      </g>
     </g>
     <g id="text_12">
      <!-- 0.8 -->
      <g transform="translate(34.696875 108.631219)scale(0.1 -0.1)">
       <use xlink:href="#DejaVuSans-30"/>
       <use xlink:href="#DejaVuSans-2e" x="63.623047"/>
       <use xlink:href="#DejaVuSans-38" x="95.410156"/>
      </g>
     </g>
    </g>
    <g id="ytick_6">
     <g id="line2d_12">
      <g>
       <use xlink:href="#m34b5a2f413" x="57.6" y="54.144" style="stroke: #000000; stroke-width: 0.8"/>
      </g>
     </g>
     <g id="text_13">
      <!-- 1.0 -->
      <g transform="translate(34.696875 57.943219)scale(0.1 -0.1)">
       <use xlink:href="#DejaVuSans-31"/>
       <use xlink:href="#DejaVuSans-2e" x="63.623047"/>
       <use xlink:href="#DejaVuSans-30" x="95.410156"/>
      </g>
     </g>
    </g>
    <g id="text_14">
     <!-- True Positive Rate -->
     <g transform="translate(28.617187 219.057687)rotate(-90)scale(0.1 -0.1)">
      <defs>
       <path id="DejaVuSans-54" d="M -19 4666 
L 3928 4666 
L 3928 4134 
L 2272 4134 
L 2272 0 
L 1638 0 
L 1638 4134 
L -19 4134 
L -19 4666 
z
" transform="scale(0.015625)"/>
       <path id="DejaVuSans-72" d="M 2631 2963 
Q 2534 3019 2420 3045 
Q 2306 3072 2169 3072 
Q 1681 3072 1420 2755 
Q 1159 2438 1159 1844 
L 1159 0 
L 581 0 
L 581 3500 
L 1159 3500 
L 1159 2956 
Q 1341 3275 1631 3429 
Q 1922 3584 2338 3584 
Q 2397 3584 2469 3576 
Q 2541 3569 2628 3553 
L 2631 2963 
z
" transform="scale(0.015625)"/>
       <path id="DejaVuSans-75" d="M 544 1381 
L 544 3500 
L 1119 3500 
L 1119 1403 
Q 1119 906 1312 657 
Q 1506 409 1894 409 
Q 2359 409 2629 706 
Q 2900 1003 2900 1516 
L 2900 3500 
L 3475 3500 
L 3475 0 
L 2900 0 
L 2900 538 
Q 2691 219 2414 64 
Q 2138 -91 1772 -91 
Q 1169 -91 856 284 
Q 544 659 544 1381 
z
M 1991 3584 
L 1991 3584 
z
" transform="scale(0.015625)"/>
      </defs>
      <use xlink:href="#DejaVuSans-54"/>
      <use xlink:href="#DejaVuSans-72" x="46.333984"/>
      <use xlink:href="#DejaVuSans-75" x="87.447266"/>
      <use xlink:href="#DejaVuSans-65" x="150.826172"/>
      <use xlink:href="#DejaVuSans-20" x="212.349609"/>
      <use xlink:href="#DejaVuSans-50" x="244.136719"/>
      <use xlink:href="#DejaVuSans-6f" x="300.814453"/>
      <use xlink:href="#DejaVuSans-73" x="361.996094"/>
      <use xlink:href="#DejaVuSans-69" x="414.095703"/>
      <use xlink:href="#DejaVuSans-74" x="441.878906"/>
      <use xlink:href="#DejaVuSans-69" x="481.087891"/>
      <use xlink:href="#DejaVuSans-76" x="508.871094"/>
      <use xlink:href="#DejaVuSans-65" x="568.050781"/>
      <use xlink:href="#DejaVuSans-20" x="629.574219"/>
      <use xlink:href="#DejaVuSans-52" x="661.361328"/>
      <use xlink:href="#DejaVuSans-61" x="728.59375"/>
      <use xlink:href="#DejaVuSans-74" x="789.873047"/>
      <use xlink:href="#DejaVuSans-65" x="829.082031"/>
     </g>
    </g>
   </g>
   <g id="line2d_13">
    <path d="M 74.605714 307.584 
L 74.631633 307.474303 
L 74.742024 306.816119 
L 74.742398 306.816119 
L 74.775034 306.706422 
L 74.885716 306.420795 
L 74.886006 306.420795 
L 74.925402 306.311098 
L 75.036375 306.021331 
L 75.036499 306.021331 
L 75.086221 305.911634 
L 75.195161 305.665333 
L 75.197318 305.665333 
L 75.252389 305.555636 
L 75.363279 305.288637 
L 75.42598 305.181009 
L 75.42598 305.178939 
L 75.536455 304.934708 
L 75.537036 304.934708 
L 75.579334 304.82501 
L 75.689643 304.56836 
L 75.689892 304.56836 
L 75.739241 304.458663 
L 75.849964 304.216501 
L 75.850254 304.216501 
L 75.90769 304.106804 
L 76.01692 303.874991 
L 76.018538 303.874991 
L 76.057809 303.765293 
L 76.168491 303.479667 
L 76.168906 303.479667 
L 76.22124 303.368934 
L 76.33213 303.131947 
L 76.332337 303.131947 
L 76.382474 303.02225 
L 76.49216 302.788367 
L 76.493487 302.788367 
L 76.534625 302.67867 
L 76.643773 302.41788 
L 76.64568 302.41788 
L 76.690011 302.308183 
L 76.800071 302.034974 
L 76.801025 302.034974 
L 76.842577 301.925277 
L 76.952928 301.658278 
L 76.953135 301.658278 
L 76.993277 301.548581 
L 77.104208 301.302279 
L 77.104374 301.302279 
L 77.221318 301.004234 
L 77.259428 300.894537 
L 77.368908 300.623398 
L 77.370318 300.623398 
L 77.411082 300.513701 
L 77.522096 300.281888 
L 77.522179 300.281888 
L 77.55975 300.171156 
L 77.669893 299.911401 
L 77.670847 299.911401 
L 77.713353 299.801704 
L 77.82416 299.516077 
L 77.824367 299.516077 
L 77.890718 299.40638 
L 78.001359 299.118683 
L 78.00169 299.118683 
L 78.050417 299.008986 
L 78.050417 299.007951 
L 78.173333 298.71301 
L 78.211443 298.603313 
L 78.322125 298.344593 
L 78.368571 298.234896 
L 78.479585 297.982385 
L 78.519022 297.872688 
L 78.629953 297.580852 
L 78.630057 297.580852 
L 78.678928 297.471154 
L 78.795872 297.173109 
L 78.846465 297.063412 
L 78.956774 296.771576 
L 78.957437 296.771576 
L 78.999612 296.661878 
L 79.110335 296.341066 
L 79.110708 296.341066 
L 79.152717 296.231368 
L 79.263689 295.925044 
L 79.312209 295.815347 
L 79.422725 295.515231 
L 79.423305 295.515231 
L 79.463282 295.405534 
L 79.463282 295.404499 
L 79.579853 295.128186 
L 79.631399 295.018489 
L 79.74826 294.726653 
L 79.788942 294.616956 
L 79.899624 294.289934 
L 79.899997 294.289934 
L 79.946069 294.180236 
L 80.056834 293.880121 
L 80.090342 293.770424 
L 80.20119 293.428914 
L 80.201397 293.428914 
L 80.235029 293.318182 
L 80.345773 293.004613 
L 80.346084 293.004613 
L 80.394479 292.894916 
L 80.504497 292.543057 
L 80.505575 292.543057 
L 80.541571 292.433359 
L 80.65837 292.149802 
L 80.693971 292.040105 
L 80.811993 291.686176 
L 80.847077 291.576479 
L 80.847077 291.575444 
L 80.95751 291.286712 
L 80.958132 291.286712 
L 80.996657 291.177015 
L 81.107608 290.872761 
L 81.107754 290.872761 
L 81.144703 290.763063 
L 81.255219 290.485715 
L 81.2558 290.485715 
L 81.380996 290.135926 
L 81.430759 290.026229 
L 81.541773 289.721974 
L 81.541856 289.721974 
L 81.582061 289.611242 
L 81.712814 289.287325 
L 81.754097 289.177627 
L 81.865069 288.881652 
L 81.865193 288.881652 
L 81.904092 288.774024 
L 81.904092 288.771954 
L 82.01494 288.471839 
L 82.015188 288.471839 
L 82.051495 288.362142 
L 82.165764 288.043399 
L 82.212334 287.933702 
L 82.212334 287.932667 
L 82.334586 287.652215 
L 82.379415 287.541482 
L 82.489309 287.242402 
L 82.49047 287.242402 
L 82.530447 287.13167 
L 82.638599 286.855357 
L 82.641523 286.855357 
L 82.688694 286.74566 
L 82.688694 286.744625 
L 82.805389 286.466242 
L 82.843375 286.356545 
L 82.953684 286.068848 
L 82.95443 286.068848 
L 82.990053 285.959151 
L 82.990053 285.958116 
L 83.115332 285.605222 
L 83.154521 285.495525 
L 83.274616 285.19541 
L 83.320274 285.085713 
L 83.43079 284.802155 
L 83.431371 284.802155 
L 83.465583 284.692458 
L 83.576514 284.390273 
L 83.60716 284.280576 
L 83.60716 284.279541 
L 83.730573 283.974252 
L 83.771566 283.864554 
L 83.892677 283.531323 
L 83.948993 283.420591 
L 84.060048 283.12358 
L 84.112217 283.013883 
L 84.223313 282.719977 
L 84.263373 282.61028 
L 84.38125 282.26877 
L 84.430578 282.159072 
L 84.541405 281.850678 
L 84.541674 281.850678 
L 84.591438 281.740981 
L 84.701249 281.469842 
L 84.702493 281.469842 
L 84.74417 281.360145 
L 84.858688 281.018635 
L 84.901422 280.908938 
L 85.011689 280.581916 
L 85.012519 280.581916 
L 85.04416 280.472218 
L 85.15422 280.186591 
L 85.155257 280.186591 
L 85.202573 280.075859 
L 85.313172 279.778849 
L 85.313587 279.778849 
L 85.356798 279.669152 
L 85.466775 279.412501 
L 85.467874 279.412501 
L 85.519151 279.304874 
L 85.629875 278.99648 
L 85.630248 278.99648 
L 85.665497 278.886782 
L 85.665497 278.885748 
L 85.790154 278.549412 
L 85.834858 278.438679 
L 85.945499 278.168576 
L 85.945955 278.168576 
L 85.982407 278.058879 
L 86.091575 277.793949 
L 86.093462 277.793949 
L 86.131282 277.684252 
L 86.131282 277.683217 
L 86.270142 277.340672 
L 86.316485 277.230975 
L 86.426752 276.874976 
L 86.42754 276.874976 
L 86.461669 276.765279 
L 86.578841 276.461024 
L 86.636276 276.350292 
L 86.754029 276.018096 
L 86.785173 275.908398 
L 86.894921 275.612423 
L 86.896269 275.612423 
L 86.942259 275.502725 
L 87.051863 275.217099 
L 87.053293 275.217099 
L 87.191076 274.888007 
L 87.235407 274.777275 
L 87.346254 274.478194 
L 87.346462 274.478194 
L 87.395893 274.368497 
L 87.395893 274.367462 
L 87.513252 274.051824 
L 87.567204 273.942127 
L 87.676745 273.662709 
L 87.6783 273.662709 
L 87.711932 273.553012 
L 87.82278 273.273594 
L 87.823029 273.273594 
L 87.937402 272.940363 
L 87.977627 272.829631 
L 88.087189 272.561597 
L 88.088724 272.561597 
L 88.131562 272.4519 
L 88.24243 272.157994 
L 88.242658 272.157994 
L 88.286201 272.048296 
L 88.286201 272.047262 
L 88.401611 271.717135 
L 88.442417 271.607438 
L 88.566245 271.290764 
L 88.606263 271.181067 
L 88.715908 270.89751 
L 88.717359 270.89751 
L 88.761027 270.787813 
L 88.761027 270.786778 
L 88.88585 270.444233 
L 88.927444 270.334535 
L 89.036343 269.972328 
L 89.03825 269.972328 
L 89.076278 269.86263 
L 89.186877 269.508701 
L 89.187333 269.508701 
L 89.220094 269.399004 
L 89.331025 269.076122 
L 89.33119 269.076122 
L 89.377346 268.968494 
L 89.377346 268.965389 
L 89.487821 268.691146 
L 89.488443 268.691146 
L 89.527258 268.581449 
L 89.63794 268.256497 
L 89.638334 268.256497 
L 89.689736 268.1468 
L 89.807923 267.792871 
L 89.85213 267.683173 
L 89.961485 267.420314 
L 89.963227 267.420314 
L 90.008345 267.310617 
L 90.125538 267.002222 
L 90.186478 266.892525 
L 90.30394 266.571712 
L 90.356399 266.462015 
L 90.466998 266.199156 
L 90.467495 266.199156 
L 90.498929 266.089458 
L 90.498929 266.088424 
L 90.62425 265.73553 
L 90.673785 265.624797 
L 90.790563 265.342275 
L 90.841467 265.232578 
L 90.959303 264.897277 
L 91.092357 264.535069 
L 91.137227 264.425372 
L 91.254482 264.119047 
L 91.296615 264.00935 
L 91.413891 263.698886 
L 91.452976 263.589189 
L 91.563202 263.276655 
L 91.564052 263.276655 
L 91.595755 263.166958 
L 91.717178 262.823378 
L 91.758191 262.71368 
L 91.8685 262.388728 
L 91.869163 262.388728 
L 91.912478 262.277996 
L 92.02316 262.009962 
L 92.023388 262.009962 
L 92.071327 261.89923 
L 92.180806 261.627057 
L 92.182362 261.627057 
L 92.219124 261.517359 
L 92.336586 261.200686 
L 92.376376 261.090989 
L 92.487141 260.778455 
L 92.487432 260.778455 
L 92.537755 260.668758 
L 92.651983 260.356224 
L 92.699755 260.245492 
L 92.823168 259.940203 
L 92.860118 259.830505 
L 92.977103 259.537634 
L 93.099023 259.2696 
L 93.140037 259.159903 
L 93.25047 258.863927 
L 93.251133 258.863927 
L 93.29874 258.75423 
L 93.416534 258.418929 
L 93.452447 258.309232 
L 93.571651 258.036024 
L 93.61254 257.926326 
L 93.61254 257.925291 
L 93.743915 257.591025 
L 93.790382 257.480293 
L 93.907408 257.185352 
L 93.952092 257.07462 
L 94.062815 256.835563 
L 94.063189 256.835563 
L 94.101672 256.725866 
L 94.21252 256.463006 
L 94.212769 256.463006 
L 94.262657 256.353309 
L 94.373048 256.063543 
L 94.373712 256.063543 
L 94.413813 255.952811 
L 94.524329 255.637172 
L 94.524868 255.637172 
L 94.566586 255.527475 
L 94.677683 255.239778 
L 94.713139 255.130081 
L 94.823282 254.856873 
L 94.824236 254.856873 
L 94.869832 254.746141 
L 94.993079 254.444991 
L 95.035337 254.334258 
L 95.201069 253.952388 
L 95.2296 253.841656 
L 95.339411 253.583971 
L 95.340697 253.583971 
L 95.38113 253.476343 
L 95.38113 253.474273 
L 95.48555 253.215553 
L 95.492143 253.215553 
L 95.528844 253.105856 
L 95.639733 252.793322 
L 95.63992 252.793322 
L 95.678839 252.68259 
L 95.78977 252.375231 
L 95.789894 252.375231 
L 95.834246 252.264499 
L 95.959048 251.924023 
L 95.996951 251.814326 
L 96.107965 251.52249 
L 96.108006 251.52249 
L 96.14732 251.412793 
L 96.258375 251.101294 
L 96.258416 251.101294 
L 96.38382 250.74633 
L 96.527284 250.346866 
L 96.575741 250.237169 
L 96.685655 249.949473 
L 96.686796 249.949473 
L 96.827087 249.589334 
L 96.872994 249.478602 
L 96.984008 249.247824 
L 96.984049 249.247824 
L 97.110344 248.869058 
L 97.150176 248.758326 
L 97.282795 248.403362 
L 97.33853 248.29263 
L 97.484378 247.863155 
L 97.528149 247.753458 
L 97.647478 247.480249 
L 97.697241 247.370552 
L 97.811323 247.070437 
L 97.858827 246.96074 
L 97.979689 246.637857 
L 98.035259 246.52816 
L 98.145692 246.285998 
L 98.146335 246.285998 
L 98.187161 246.176301 
L 98.309455 245.898953 
L 98.351546 245.790291 
L 98.471683 245.451885 
L 98.516284 245.341153 
L 98.654937 245.000677 
L 98.702461 244.889945 
L 98.846816 244.479098 
L 98.897512 244.368366 
L 99.021278 244.052727 
L 99.064199 243.941995 
L 99.202894 243.60152 
L 99.254129 243.491823 
L 99.364396 243.206196 
L 99.365101 243.206196 
L 99.415031 243.096498 
L 99.525879 242.800523 
L 99.526127 242.800523 
L 99.570251 242.689791 
L 99.692752 242.405199 
L 99.730717 242.295501 
L 99.84735 242.018154 
L 99.896056 241.908456 
L 100.023512 241.583504 
L 100.081611 241.473807 
L 100.192583 241.229575 
L 100.192708 241.229575 
L 100.244648 241.119878 
L 100.35842 240.848739 
L 100.406234 240.739042 
L 100.516501 240.461694 
L 100.517331 240.461694 
L 100.562926 240.351997 
L 100.676801 240.06637 
L 100.722978 239.955638 
L 100.83395 239.664837 
L 100.834074 239.664837 
L 100.873636 239.55514 
L 100.873636 239.554105 
L 100.989854 239.29642 
L 101.039224 239.185688 
L 101.149636 238.915584 
L 101.1503 238.915584 
L 101.196911 238.805887 
L 101.310766 238.528539 
L 101.350908 238.418842 
L 101.464452 238.17047 
L 101.520207 238.060773 
L 101.629251 237.797914 
L 101.631159 237.797914 
L 101.672815 237.688216 
L 101.786379 237.441915 
L 101.844271 237.332218 
L 101.955367 237.077637 
L 101.999636 236.966905 
L 102.13464 236.570546 
L 102.180878 236.460849 
L 102.180878 236.459814 
L 102.304789 236.142106 
L 102.353599 236.032409 
L 102.353599 236.031374 
L 102.475581 235.76127 
L 102.517527 235.651573 
L 102.625389 235.388713 
L 102.628624 235.388713 
L 102.669223 235.279016 
L 102.777956 234.999599 
L 102.780278 234.999599 
L 102.828465 234.888867 
L 102.950137 234.627042 
L 102.986837 234.517345 
L 103.100671 234.242067 
L 103.151679 234.131334 
L 103.262651 233.86537 
L 103.262775 233.86537 
L 103.323694 233.755673 
L 103.434417 233.499023 
L 103.43477 233.499023 
L 103.488058 233.389326 
L 103.611285 233.087141 
L 103.673779 232.977443 
L 103.784046 232.74977 
L 103.784751 232.74977 
L 103.825205 232.640073 
L 103.825205 232.639038 
L 103.955481 232.323399 
L 104.011299 232.212667 
L 104.12223 231.988098 
L 104.122396 231.988098 
L 104.163741 231.878401 
L 104.163741 231.877366 
L 104.286138 231.596914 
L 104.336378 231.487217 
L 104.336378 231.486182 
L 104.465639 231.187101 
L 104.51167 231.077404 
L 104.621502 230.795917 
L 104.622725 230.795917 
L 104.678626 230.68622 
L 104.792211 230.435779 
L 104.833639 230.326081 
L 104.950479 230.040455 
L 104.994913 229.930757 
L 105.105512 229.715502 
L 105.105906 229.715502 
L 105.151004 229.605805 
L 105.259447 229.332597 
L 105.262101 229.332597 
L 105.305437 229.223934 
L 105.305437 229.221865 
L 105.450995 228.883459 
L 105.504449 228.773762 
L 105.627572 228.475716 
L 105.685069 228.366019 
L 105.804252 228.09902 
L 105.857914 227.988288 
L 105.996152 227.654022 
L 106.05367 227.544324 
L 106.170863 227.24007 
L 106.224359 227.130372 
L 106.342505 226.89649 
L 106.392891 226.785757 
L 106.503531 226.542561 
L 106.503967 226.542561 
L 106.554622 226.431829 
L 106.665656 226.178283 
L 106.665698 226.178283 
L 106.714092 226.068586 
L 106.838563 225.803657 
L 106.886709 225.693959 
L 107.012859 225.395914 
L 107.071767 225.286217 
L 107.191945 224.984032 
L 107.238453 224.874334 
L 107.354692 224.615614 
L 107.40317 224.505917 
L 107.40317 224.504882 
L 107.540724 224.178895 
L 107.59592 224.070233 
L 107.718752 223.779432 
L 107.769677 223.669734 
L 107.880318 223.402735 
L 107.880774 223.402735 
L 107.933233 223.293038 
L 108.046569 223.067434 
L 108.094777 222.956702 
L 108.226131 222.622436 
L 108.270172 222.512739 
L 108.38666 222.24367 
L 108.428544 222.133973 
L 108.543953 221.916648 
L 108.585257 221.805916 
L 108.714414 221.508905 
L 108.768054 221.399208 
L 108.886159 221.165325 
L 108.932896 221.055628 
L 109.043992 220.804152 
L 109.160978 220.511281 
L 109.212483 220.401584 
L 109.32275 220.130445 
L 109.323579 220.130445 
L 109.369465 220.020748 
L 109.483195 219.751679 
L 109.53665 219.640947 
L 109.659192 219.356355 
L 109.71022 219.245623 
L 109.826853 218.96724 
L 109.875538 218.857543 
L 109.992212 218.580195 
L 110.046268 218.470498 
L 110.156991 218.215918 
L 110.157323 218.215918 
L 110.227448 218.10622 
L 110.337964 217.859919 
L 110.338462 217.859919 
L 110.3847 217.750222 
L 110.3847 217.749187 
L 110.54077 217.381804 
L 110.592317 217.272107 
L 110.710692 217.032015 
L 110.762197 216.922318 
L 110.762197 216.921283 
L 110.882354 216.696714 
L 110.9271 216.585982 
L 111.042779 216.353134 
L 111.095342 216.243437 
L 111.214691 215.970228 
L 111.264682 215.860531 
L 111.375737 215.643206 
L 111.375779 215.643206 
L 111.417124 215.533509 
L 111.417124 215.532474 
L 111.577424 215.129906 
L 111.614353 215.020209 
L 111.725408 214.74907 
L 111.725429 214.74907 
L 111.78502 214.638338 
L 111.916292 214.391002 
L 111.970264 214.28027 
L 112.108337 213.948073 
L 112.16515 213.838376 
L 112.284831 213.554819 
L 112.32827 213.445122 
L 112.445546 213.134658 
L 112.494936 213.02496 
L 112.607671 212.861449 
L 112.652147 212.750717 
L 112.808176 212.383335 
L 112.872951 212.273638 
L 112.983322 212.019057 
L 112.984006 212.019057 
L 113.036963 211.90936 
L 113.157349 211.679617 
L 113.198072 211.569919 
L 113.198072 211.568884 
L 113.314622 211.296711 
L 113.367433 211.187014 
L 113.48361 210.934503 
L 113.535405 210.824806 
L 113.645486 210.611621 
L 113.646481 210.611621 
L 113.69019 210.502958 
L 113.69019 210.500889 
L 113.811737 210.241134 
L 113.870997 210.131436 
L 113.984665 209.870647 
L 114.032272 209.760949 
L 114.143285 209.50016 
L 114.143368 209.50016 
L 114.207418 209.389428 
L 114.318141 209.148301 
L 114.318515 209.148301 
L 114.371554 209.037568 
L 114.542305 208.674326 
L 114.604301 208.563593 
L 114.714527 208.326606 
L 114.715274 208.326606 
L 114.771548 208.216909 
L 114.882644 207.99234 
L 115.006306 207.680841 
L 115.065483 207.570109 
L 115.186595 207.320703 
L 115.238805 207.209971 
L 115.368335 206.906751 
L 115.412438 206.797054 
L 115.530356 206.57145 
L 115.575496 206.461753 
L 115.705191 206.155428 
L 115.766856 206.045731 
L 115.887989 205.79529 
L 115.951727 205.685593 
L 116.065312 205.433082 
L 116.119305 205.323385 
L 116.119305 205.32235 
L 116.241703 205.041897 
L 116.294327 204.9322 
L 116.413469 204.665201 
L 116.467836 204.554469 
L 116.599232 204.305063 
L 116.649057 204.194331 
L 116.765172 203.944925 
L 116.833368 203.835228 
L 116.833368 203.834193 
L 116.954459 203.586856 
L 117.00472 203.477159 
L 117.124028 203.203951 
L 117.171801 203.093219 
L 117.288122 202.833464 
L 117.340291 202.723767 
L 117.462356 202.450558 
L 117.517034 202.340861 
L 117.632195 202.138025 
L 117.687681 202.028327 
L 117.80166 201.740631 
L 117.858597 201.630933 
L 117.977221 201.382562 
L 118.021842 201.272865 
L 118.021842 201.27183 
L 118.138039 201.016215 
L 118.188259 200.905483 
L 118.299314 200.670565 
L 118.299355 200.670565 
L 118.351669 200.559833 
L 118.487668 200.252474 
L 118.553708 200.142776 
L 118.667293 199.884056 
L 118.72703 199.774359 
L 118.72703 199.773324 
L 118.846462 199.567383 
L 118.888927 199.457686 
L 118.888927 199.456651 
L 119.00952 199.221733 
L 119.060548 199.111001 
L 119.213799 198.81813 
L 119.269119 198.708433 
L 119.386457 198.501457 
L 119.444203 198.390725 
L 119.576967 198.124761 
L 119.62474 198.015063 
L 119.76159 197.733576 
L 119.821409 197.622844 
L 119.931117 197.381717 
L 119.932506 197.381717 
L 119.998816 197.27202 
L 120.10985 197.089881 
L 120.109871 197.089881 
L 120.168675 196.980184 
L 120.283877 196.773208 
L 120.341105 196.66351 
L 120.451828 196.479302 
L 120.452139 196.479302 
L 120.506257 196.369604 
L 120.63983 196.052931 
L 120.783563 195.788002 
L 120.843507 195.678305 
L 120.961446 195.452701 
L 121.022531 195.343004 
L 121.141341 195.088423 
L 121.194629 194.977691 
L 121.311013 194.713797 
L 121.377696 194.604099 
L 121.499762 194.330891 
L 121.556201 194.221194 
L 121.556201 194.220159 
L 121.67779 193.960404 
L 121.731099 193.850707 
L 121.846695 193.627173 
L 121.899963 193.517476 
L 122.013154 193.302221 
L 122.096507 193.191489 
L 122.204763 192.958641 
L 122.207562 192.958641 
L 122.262509 192.847908 
L 122.384181 192.584014 
L 122.430253 192.474317 
L 122.541226 192.221806 
L 122.54135 192.221806 
L 122.578237 192.111074 
L 122.706647 191.826482 
L 122.761885 191.716785 
L 122.877564 191.489111 
L 122.938441 191.379414 
L 123.063534 191.149671 
L 123.115516 191.039973 
L 123.228852 190.804021 
L 123.274323 190.694323 
L 123.382351 190.505975 
L 123.385337 190.505975 
L 123.437381 190.396278 
L 123.550862 190.156186 
L 123.591481 190.046489 
L 123.704652 189.840548 
L 123.823814 189.640816 
L 123.871442 189.531119 
L 124.010883 189.253771 
L 124.074912 189.144073 
L 124.188725 188.870865 
L 124.245725 188.761168 
L 124.354976 188.57282 
L 124.356738 188.57282 
L 124.404822 188.463123 
L 124.518096 188.245798 
L 124.586915 188.136101 
L 124.696975 187.904287 
L 124.698011 187.904287 
L 124.745805 187.793555 
L 124.870234 187.575196 
L 124.928478 187.465498 
L 125.041897 187.227476 
L 125.087347 187.117779 
L 125.200621 186.896315 
L 125.270352 186.786617 
L 125.38373 186.558944 
L 125.431565 186.448212 
L 125.551971 186.217433 
L 125.608308 186.107736 
L 125.717538 185.869714 
L 125.719404 185.869714 
L 125.777151 185.760016 
L 125.777151 185.758982 
L 125.892933 185.526134 
L 125.956651 185.416436 
L 126.066213 185.219809 
L 126.067686 185.219809 
L 126.123421 185.109077 
L 126.246315 184.816206 
L 126.312044 184.706509 
L 126.430295 184.470556 
L 126.492291 184.360859 
L 126.605296 184.166302 
L 126.663581 184.056604 
L 126.776834 183.83307 
L 126.835928 183.722338 
L 126.955692 183.508118 
L 127.015035 183.397386 
L 127.130672 183.168677 
L 127.19213 183.05898 
L 127.310691 182.812679 
L 127.378121 182.702981 
L 127.495687 182.489796 
L 127.548436 182.380099 
L 127.664841 182.11517 
L 127.720596 182.005472 
L 127.831693 181.808845 
L 127.893752 181.699148 
L 128.014739 181.504591 
L 128.082127 181.393858 
L 128.212797 181.152731 
L 128.289101 181.043034 
L 128.404967 180.805012 
L 128.468001 180.695315 
L 128.589361 180.440734 
L 128.632075 180.331037 
L 128.751735 180.113712 
L 128.811907 180.006085 
L 128.811907 180.00505 
L 128.924331 179.807388 
L 128.979568 179.696656 
L 129.099975 179.465877 
L 129.15685 179.35618 
L 129.272259 179.132646 
L 129.342675 179.022949 
L 129.461733 178.826322 
L 129.522113 178.716624 
L 129.627943 178.49516 
L 129.633168 178.49516 
L 129.700598 178.385463 
L 129.813913 178.161929 
L 129.96115 177.911488 
L 130.031876 177.800756 
L 130.157093 177.567908 
L 130.225477 177.457176 
L 130.357578 177.199491 
L 130.406657 177.089793 
L 130.519391 176.926282 
L 130.574857 176.816585 
L 130.683134 176.622028 
L 130.685912 176.622028 
L 130.739843 176.511295 
L 130.854631 176.328122 
L 130.917167 176.21739 
L 131.025443 176.021797 
L 131.028243 176.021797 
L 131.093059 175.9121 
L 131.207826 175.725822 
L 131.2703 175.61509 
L 131.422057 175.332567 
L 131.501347 175.22287 
L 131.614185 175.044871 
L 131.677157 174.934139 
L 131.78788 174.742686 
L 131.788254 174.742686 
L 131.848343 174.631954 
L 131.958859 174.440501 
L 131.959439 174.440501 
L 132.024878 174.330804 
L 132.139707 174.144525 
L 132.196666 174.034828 
L 132.312428 173.798875 
L 132.379691 173.689178 
L 132.492488 173.513249 
L 132.550939 173.403551 
L 132.667386 173.227622 
L 132.722644 173.117924 
L 132.831957 172.9006 
L 132.83372 172.9006 
L 132.904052 172.790902 
L 133.016994 172.604624 
L 133.073434 172.494927 
L 133.188429 172.300369 
L 133.261581 172.189637 
L 133.368842 172.031301 
L 133.372636 172.031301 
L 133.431129 171.920569 
L 133.550581 171.671162 
L 133.618135 171.561465 
L 133.733151 171.366908 
L 133.809724 171.257211 
L 133.919369 171.08749 
L 133.920821 171.08749 
L 133.97894 170.977793 
L 134.098932 170.756329 
L 134.16914 170.646631 
L 134.279179 170.458283 
L 134.280237 170.458283 
L 134.364648 170.348586 
L 134.481405 170.162308 
L 134.556942 170.05261 
L 134.676001 169.855983 
L 134.731321 169.745251 
L 134.860104 169.528961 
L 134.926746 169.419264 
L 135.044167 169.210218 
L 135.120408 169.101556 
L 135.120408 169.100521 
L 135.233392 168.905964 
L 135.310546 168.795231 
L 135.421559 168.616197 
L 135.421601 168.616197 
L 135.497988 168.5065 
L 135.608753 168.351268 
L 135.609064 168.351268 
L 135.704609 168.241571 
L 135.827421 168.009758 
L 135.88778 167.90006 
L 136.013204 167.699294 
L 136.085776 167.588562 
L 136.19426 167.38469 
L 136.196873 167.38469 
L 136.275001 167.274993 
L 136.384688 167.080436 
L 136.386056 167.080436 
L 136.446851 166.970738 
L 136.557761 166.78446 
L 136.623054 166.673728 
L 136.731621 166.502973 
L 136.734151 166.502973 
L 136.80863 166.393275 
L 136.923231 166.217346 
L 136.995201 166.107649 
L 137.111834 165.92344 
L 137.18453 165.813743 
L 137.298654 165.66265 
L 137.369754 165.552953 
L 137.488771 165.356326 
L 137.537435 165.245594 
L 137.651559 165.093466 
L 137.708269 164.983769 
L 137.823139 164.795421 
L 137.897162 164.685724 
L 138.00743 164.513934 
L 138.008218 164.513934 
L 138.09408 164.403201 
L 138.215046 164.240725 
L 138.281481 164.131028 
L 138.399047 163.917843 
L 138.46969 163.808146 
L 138.579107 163.630146 
L 138.580683 163.630146 
L 138.644276 163.520449 
L 138.762257 163.350729 
L 138.825643 163.239997 
L 138.948227 163.050614 
L 139.021897 162.940916 
L 139.021897 162.939881 
L 139.14108 162.74015 
L 139.203824 162.629417 
L 139.312308 162.450383 
L 139.314775 162.450383 
L 139.38434 162.339651 
L 139.510947 162.148198 
L 139.581196 162.038501 
L 139.581196 162.037466 
L 139.699135 161.866711 
L 139.78394 161.757014 
L 139.78394 161.755979 
L 139.903745 161.539689 
L 139.980298 161.429992 
L 140.091312 161.206458 
L 140.091374 161.206458 
L 140.178398 161.09676 
L 140.28852 160.949807 
L 140.289494 160.949807 
L 140.370235 160.84011 
L 140.483115 160.662111 
L 140.550628 160.552414 
L 140.668836 160.316461 
L 140.754865 160.206764 
L 140.869362 160.034974 
L 140.935755 159.925276 
L 141.050459 159.738998 
L 141.129023 159.629301 
L 141.242214 159.418185 
L 141.322229 159.307453 
L 141.432683 159.113931 
L 141.433285 159.113931 
L 141.509049 159.004233 
L 141.621908 158.824164 
L 141.696014 158.714467 
L 141.809641 158.542677 
L 141.892103 158.43298 
L 142.006662 158.25912 
L 142.06783 158.151492 
L 142.179839 157.961075 
L 142.25324 157.850342 
L 142.372547 157.646471 
L 142.442423 157.536774 
L 142.555179 157.364984 
L 142.62182 157.255286 
L 142.731341 157.058659 
L 142.732917 157.058659 
L 142.810755 156.948962 
L 142.925501 156.762684 
L 143.00139 156.652986 
L 143.111284 156.481196 
L 143.112487 156.481196 
L 143.185867 156.371499 
L 143.298934 156.168663 
L 143.371132 156.058965 
L 143.486749 155.909943 
L 143.546755 155.800245 
L 143.657251 155.663641 
L 143.657852 155.663641 
L 143.731999 155.553944 
L 143.731999 155.552909 
L 143.849441 155.396642 
L 143.92477 155.286945 
L 144.039454 155.108946 
L 144.117956 154.999248 
L 144.232246 154.839877 
L 144.302495 154.73018 
L 144.416702 154.572878 
L 144.496116 154.463181 
L 144.612728 154.281042 
L 144.688617 154.17031 
L 144.808132 153.960229 
L 144.899738 153.849497 
L 145.034141 153.662184 
L 145.111523 153.552486 
L 145.221748 153.380696 
L 145.222578 153.380696 
L 145.291293 153.270999 
L 145.405603 153.097139 
L 145.467289 152.987442 
L 145.581786 152.815652 
L 145.713804 152.648002 
L 145.784012 152.537269 
L 145.898074 152.385142 
L 145.980868 152.275445 
L 146.090119 152.080887 
L 146.091882 152.080887 
L 146.153277 151.97119 
L 146.275405 151.789051 
L 146.352331 151.679354 
L 146.466351 151.530331 
L 146.537471 151.420634 
L 146.660988 151.244704 
L 146.755372 151.133972 
L 146.865868 150.969426 
L 146.866386 150.969426 
L 146.936345 150.859729 
L 147.047276 150.704497 
L 147.0474 150.704497 
L 147.10751 150.5948 
L 147.227875 150.412661 
L 147.307352 150.302964 
L 147.424067 150.16429 
L 147.485898 150.054593 
L 147.596912 149.90764 
L 147.596995 149.90764 
L 147.680888 149.797942 
L 147.807308 149.582687 
L 147.888754 149.47299 
L 148.00153 149.29913 
L 148.068068 149.188398 
L 148.182295 149.030062 
L 148.248169 148.919329 
L 148.362335 148.765132 
L 148.450603 148.655435 
L 148.575177 148.467087 
L 148.661848 148.35739 
L 148.77479 148.171111 
L 148.848233 148.061414 
L 148.970049 147.850299 
L 149.039469 147.740601 
L 149.164354 147.572951 
L 149.222349 147.463254 
L 149.222349 147.462219 
L 149.331497 147.279045 
L 149.333425 147.279045 
L 149.423912 147.168313 
L 149.54407 147.020325 
L 149.6217 146.910628 
L 149.6217 146.909593 
L 149.739287 146.749186 
L 149.82967 146.639489 
L 149.943752 146.542211 
L 150.05771 146.432513 
L 150.168102 146.271072 
L 150.168786 146.271072 
L 150.255935 146.161375 
L 150.365227 146.049608 
L 150.366969 146.049608 
L 150.470124 145.93991 
L 150.576576 145.809516 
L 150.581159 145.809516 
L 150.66868 145.699818 
L 150.783385 145.517679 
L 150.872959 145.407982 
L 150.986419 145.290006 
L 151.055466 145.180309 
L 151.169528 145.031286 
L 151.254022 144.921589 
L 151.369721 144.770496 
L 151.458383 144.660799 
L 151.566245 144.517986 
L 151.56948 144.517986 
L 151.637697 144.407253 
L 151.748504 144.275824 
L 151.748752 144.275824 
L 151.834719 144.166126 
L 151.945193 144.037801 
L 151.945795 144.037801 
L 152.02751 143.928104 
L 152.138234 143.785291 
L 152.138607 143.785291 
L 152.224262 143.675593 
L 152.340646 143.501734 
L 152.428105 143.392036 
L 152.53887 143.230595 
L 152.539181 143.230595 
L 152.6176 143.120898 
L 152.734399 142.93255 
L 152.822687 142.822852 
L 152.940149 142.665551 
L 153.040029 142.555853 
L 153.148492 142.439947 
L 153.151125 142.439947 
L 153.246547 142.33025 
L 153.360214 142.201925 
L 153.464635 142.091192 
L 153.587612 141.947344 
L 153.668001 141.837647 
L 153.796618 141.667927 
L 153.879599 141.557194 
L 154.021487 141.345044 
L 154.141209 141.235347 
L 154.254835 141.109091 
L 154.355772 140.998359 
L 154.464961 140.875209 
L 154.466869 140.875209 
L 154.551964 140.764476 
L 154.661298 140.633047 
L 154.66304 140.633047 
L 154.756367 140.522315 
L 154.873228 140.380536 
L 154.963009 140.270839 
L 155.07759 140.157002 
L 155.198224 140.047305 
L 155.316599 139.904491 
L 155.391182 139.793759 
L 155.495415 139.676818 
L 155.502278 139.676818 
L 155.593573 139.56712 
L 155.703903 139.426377 
L 155.704649 139.426377 
L 155.806706 139.31668 
L 155.806706 139.315645 
L 155.937542 139.124192 
L 156.019838 139.014495 
L 156.132262 138.88203 
L 156.222686 138.771298 
L 156.328806 138.62124 
L 156.333762 138.62124 
L 156.422196 138.513613 
L 156.530846 138.36459 
L 156.533292 138.36459 
L 156.616107 138.253858 
L 156.735103 138.097591 
L 156.805601 137.987894 
L 156.920741 137.855429 
L 156.995552 137.745732 
L 157.112455 137.602919 
L 157.19274 137.493221 
L 157.306698 137.348338 
L 157.419951 137.237606 
L 157.531006 137.110316 
L 157.531048 137.110316 
L 157.629392 137.000619 
L 157.741878 136.859875 
L 157.837258 136.750178 
L 157.948313 136.592876 
L 157.948334 136.592876 
L 158.038717 136.483179 
L 158.152862 136.332086 
L 158.25751 136.222389 
L 158.36645 136.102343 
L 158.368565 136.102343 
L 158.464691 135.991611 
L 158.578649 135.849832 
L 158.677222 135.740135 
L 158.787635 135.582833 
L 158.788195 135.582833 
L 158.892076 135.473136 
L 159.005889 135.338602 
L 159.092871 135.228904 
L 159.205294 135.09023 
L 159.298062 134.980533 
L 159.413554 134.83565 
L 159.506674 134.724918 
L 159.625214 134.603837 
L 159.718604 134.49414 
L 159.718604 134.493105 
L 159.84239 134.338908 
L 159.95133 134.22921 
L 160.066657 134.088467 
L 160.158574 133.978769 
L 160.272636 133.829747 
L 160.356632 133.720049 
L 160.469947 133.608282 
L 160.570552 133.49755 
L 160.68733 133.357842 
L 160.781632 133.248144 
L 160.88883 133.140517 
L 160.892646 133.140517 
L 161.012741 133.030819 
L 161.123755 132.921122 
L 161.216895 132.811425 
L 161.325193 132.656193 
L 161.327992 132.656193 
L 161.450368 132.546496 
L 161.567271 132.403682 
L 161.648282 132.293985 
L 161.76253 132.186358 
L 161.859299 132.07666 
L 161.973029 131.944196 
L 162.062603 131.833464 
L 162.180397 131.666848 
L 162.295267 131.557151 
L 162.295267 131.556116 
L 162.41161 131.426756 
L 162.515678 131.317058 
L 162.626194 131.180454 
L 162.626733 131.180454 
L 162.717675 131.070757 
L 162.8335 130.954851 
L 162.924193 130.845153 
L 163.03417 130.70234 
L 163.035166 130.70234 
L 163.145226 130.592643 
L 163.257815 130.435341 
L 163.354252 130.325644 
L 163.472959 130.176621 
L 163.593552 130.066924 
L 163.710537 129.92204 
L 163.823168 129.812343 
L 163.933332 129.696437 
L 163.934265 129.696437 
L 164.027447 129.586739 
L 164.139788 129.456345 
L 164.246033 129.346647 
L 164.358602 129.197625 
L 164.455018 129.086892 
L 164.568458 128.969951 
L 164.66193 128.860254 
L 164.772653 128.773324 
L 164.773006 128.773324 
L 164.886694 128.644999 
L 164.998247 128.535302 
L 165.108701 128.415255 
L 165.109344 128.415255 
L 165.214801 128.305558 
L 165.214801 128.304523 
L 165.330418 128.193791 
L 165.410101 128.083059 
L 165.528497 127.964048 
L 165.597502 127.853316 
L 165.713347 127.734305 
L 165.855608 127.624607 
L 165.967866 127.498352 
L 166.084768 127.388655 
L 166.194849 127.25412 
L 166.195844 127.25412 
L 166.295537 127.144423 
L 166.405804 127.047144 
L 166.406633 127.047144 
L 166.498903 126.937447 
L 166.608216 126.842238 
L 166.61 126.842238 
L 166.760306 126.731506 
L 166.870677 126.591797 
L 166.871382 126.591797 
L 166.979513 126.481065 
L 167.101288 126.351705 
L 167.206745 126.242008 
L 167.319791 126.14059 
L 167.429519 126.030892 
L 167.541653 125.925335 
L 167.650137 125.815637 
L 167.650137 125.814602 
L 167.77608 125.697661 
L 167.89321 125.587964 
L 168.005261 125.488615 
L 168.102113 125.378918 
L 168.208337 125.289918 
L 168.213168 125.289918 
L 168.349602 125.180221 
L 168.463125 125.060175 
L 168.578472 124.949443 
L 168.691974 124.828362 
L 168.821732 124.71763 
L 168.92918 124.59034 
L 168.932725 124.59034 
L 169.064474 124.480642 
L 169.182247 124.350247 
L 169.306759 124.24055 
L 169.420074 124.130853 
L 169.554912 124.021156 
L 169.554912 124.020121 
L 169.668248 123.905249 
L 169.794461 123.795552 
L 169.907693 123.689994 
L 170.027789 123.580297 
L 170.027789 123.579262 
L 170.142991 123.478879 
L 170.256638 123.369181 
L 170.37041 123.234647 
L 170.45733 123.12495 
L 170.570686 123.013183 
L 170.686718 122.903486 
L 170.803434 122.764812 
L 170.910777 122.654079 
L 171.026539 122.539208 
L 171.138237 122.429511 
L 171.251262 122.334302 
L 171.40076 122.223569 
L 171.510156 122.104558 
L 171.511753 122.104558 
L 171.648851 121.994861 
L 171.761026 121.881024 
L 171.862108 121.770292 
L 171.980088 121.65749 
L 172.106985 121.547793 
L 172.106985 121.546758 
L 172.222809 121.429817 
L 172.352069 121.320119 
L 172.465095 121.22491 
L 172.573392 121.115213 
L 172.681296 120.999307 
L 172.684468 120.999307 
L 172.829051 120.889609 
L 172.930859 120.792331 
L 172.940127 120.792331 
L 173.094829 120.682633 
L 173.094829 120.681599 
L 173.211027 120.556378 
L 173.336223 120.445646 
L 173.445744 120.355611 
L 173.447278 120.355611 
L 173.577326 120.244879 
L 173.687096 120.125868 
L 173.688402 120.125868 
L 173.830684 120.015136 
L 173.941179 119.910613 
L 173.94176 119.910613 
L 174.076494 119.800916 
L 174.190079 119.672591 
L 174.32979 119.562893 
L 174.438502 119.480103 
L 174.440887 119.480103 
L 174.578814 119.372476 
L 174.578814 119.370406 
L 174.688874 119.277267 
L 174.689869 119.277267 
L 174.810421 119.167569 
L 174.924358 119.07443 
L 175.083788 118.964733 
L 175.19646 118.886082 
L 175.339343 118.77535 
L 175.45214 118.691525 
L 175.589632 118.581827 
L 175.589632 118.580792 
L 175.705996 118.449363 
L 175.845955 118.339665 
L 175.958939 118.246526 
L 176.07441 118.136829 
L 176.1887 118.031271 
L 176.33177 117.921574 
L 176.444691 117.828435 
L 176.573786 117.718738 
L 176.687205 117.600761 
L 176.810991 117.492099 
L 176.810991 117.491064 
L 176.922917 117.406204 
L 177.071191 117.295472 
L 177.1894 117.17853 
L 177.306593 117.068833 
L 177.416238 116.957066 
L 177.417648 116.957066 
L 177.581203 116.847369 
L 177.688858 116.739741 
L 177.692217 116.739741 
L 177.815257 116.629009 
L 177.926147 116.528626 
L 177.926312 116.528626 
L 178.090075 116.417894 
L 178.198352 116.325789 
L 178.201089 116.325789 
L 178.346564 116.216092 
L 178.450984 116.125023 
L 178.45764 116.125023 
L 178.593556 116.015325 
L 178.703036 115.922186 
L 178.704653 115.922186 
L 178.845815 115.811454 
L 178.951272 115.723489 
L 178.956912 115.723489 
L 179.111012 115.613792 
L 179.224245 115.508234 
L 179.348881 115.398537 
L 179.463627 115.309537 
L 179.586978 115.19984 
L 179.698842 115.123259 
L 179.849335 115.012527 
L 179.95956 114.920423 
L 179.960411 114.920423 
L 180.09106 114.812795 
L 180.200913 114.740353 
L 180.201991 114.740353 
L 180.326192 114.630656 
L 180.4314 114.556145 
L 180.437247 114.556145 
L 180.593794 114.446448 
L 180.708001 114.34296 
L 180.858909 114.233262 
L 180.971353 114.16289 
L 181.107021 114.053193 
L 181.218905 113.972473 
L 181.402076 113.862775 
L 181.5145 113.796543 
L 181.721805 113.686846 
L 181.832695 113.599916 
L 181.832902 113.599916 
L 181.984349 113.490219 
L 182.096897 113.417777 
L 182.246228 113.30808 
L 182.358009 113.237708 
L 182.507362 113.128011 
L 182.616965 113.016244 
L 182.618417 113.016244 
L 182.739508 112.906546 
L 182.849277 112.819616 
L 182.850501 112.819616 
L 183.023656 112.709919 
L 183.129943 112.62092 
L 183.134691 112.62092 
L 183.285038 112.511222 
L 183.394311 112.413944 
L 183.396135 112.413944 
L 183.556249 112.304246 
L 183.668009 112.233874 
L 183.809316 112.124177 
L 183.92145 112.020689 
L 184.057635 111.910992 
L 184.170246 111.830271 
L 184.332018 111.720574 
L 184.440212 111.641923 
L 184.443094 111.641923 
L 184.608702 111.532226 
L 184.608702 111.531191 
L 184.72602 111.457715 
L 184.858349 111.346982 
L 184.971311 111.254878 
L 185.1279 111.145181 
L 185.226763 111.06446 
L 185.238955 111.06446 
L 185.390443 110.954763 
L 185.498969 110.876112 
L 185.501519 110.876112 
L 185.656283 110.766415 
L 185.769536 110.696043 
L 185.92005 110.586346 
L 186.029571 110.509765 
L 186.031147 110.509765 
L 186.198932 110.400067 
L 186.303352 110.327626 
L 186.310008 110.327626 
L 186.505765 110.217929 
L 186.615348 110.137208 
L 186.616861 110.137208 
L 186.792339 110.027511 
L 186.906318 109.932302 
L 187.048351 109.822604 
L 187.14541 109.766721 
L 187.159427 109.766721 
L 187.33731 109.657024 
L 187.447702 109.594931 
L 187.448407 109.594931 
L 187.644143 109.485234 
L 187.749683 109.425211 
L 187.755198 109.425211 
L 187.940111 109.315513 
L 188.050378 109.247211 
L 188.051124 109.247211 
L 188.223886 109.137514 
L 188.333614 109.063003 
L 188.334858 109.063003 
L 188.530055 108.953305 
L 188.642251 108.897422 
L 188.819056 108.787725 
L 188.928494 108.709074 
L 188.930153 108.709074 
L 189.066629 108.599377 
L 189.177228 108.547633 
L 189.177725 108.547633 
L 189.329338 108.437935 
L 189.43778 108.369633 
L 189.440352 108.369633 
L 189.631754 108.258901 
L 189.746355 108.173006 
L 189.946901 108.062274 
L 190.057085 107.96396 
L 190.057998 107.96396 
L 190.28073 107.854263 
L 190.391475 107.79631 
L 190.391703 107.79631 
L 190.590341 107.686613 
L 190.700629 107.61831 
L 190.701397 107.61831 
L 190.85869 107.508613 
L 190.85869 107.507578 
L 190.973063 107.425823 
L 191.146198 107.316126 
L 191.253915 107.251963 
L 191.257295 107.251963 
L 191.476171 107.142266 
L 191.586853 107.078103 
L 191.587226 107.078103 
L 191.774461 106.968406 
L 191.883401 106.906313 
L 191.885516 106.906313 
L 192.065908 106.796616 
L 192.177005 106.722105 
L 192.403926 106.612407 
L 192.510212 106.548245 
L 192.515022 106.548245 
L 192.675737 106.438547 
L 192.788721 106.376455 
L 192.987899 106.266757 
L 193.097419 106.208804 
L 193.098933 106.208804 
L 193.304767 106.099107 
L 193.416258 106.053572 
L 193.575604 105.943875 
L 193.687945 105.881782 
L 193.845529 105.772085 
L 193.956501 105.714132 
L 193.956584 105.714132 
L 194.182053 105.604434 
L 194.292611 105.538202 
L 194.29315 105.538202 
L 194.456561 105.428505 
L 194.567512 105.376761 
L 194.771459 105.267063 
L 194.879839 105.20911 
L 194.882556 105.20911 
L 195.130502 105.099413 
L 195.241184 105.03525 
L 195.241515 105.03525 
L 195.42763 104.925553 
L 195.535575 104.86346 
L 195.538727 104.86346 
L 195.771827 104.752728 
L 195.880062 104.673042 
L 195.882924 104.673042 
L 196.09927 104.563345 
L 196.209662 104.488834 
L 196.210325 104.488834 
L 196.416138 104.379137 
L 196.526696 104.304625 
L 196.527214 104.304625 
L 196.780302 104.193893 
L 196.88889 104.120417 
L 196.891378 104.120417 
L 197.115769 104.010719 
L 197.223756 103.940348 
L 197.226866 103.940348 
L 197.447276 103.83065 
L 197.552401 103.774767 
L 197.558373 103.774767 
L 197.746603 103.66507 
L 197.855004 103.592628 
L 197.8577 103.592628 
L 198.102328 103.482931 
L 198.212969 103.424977 
L 198.213425 103.424977 
L 198.423343 103.31528 
L 198.533528 103.242839 
L 198.534336 103.242839 
L 198.762149 103.133141 
L 198.867315 103.085537 
L 198.873245 103.085537 
L 199.071677 102.97584 
L 199.179995 102.915817 
L 199.182774 102.915817 
L 199.363 102.806119 
L 199.475299 102.746096 
L 199.71831 102.636399 
L 199.829075 102.576376 
L 199.829366 102.576376 
L 199.983715 102.466679 
L 200.092033 102.406656 
L 200.094729 102.406656 
L 200.277775 102.296958 
L 200.277775 102.295923 
L 200.390074 102.234866 
L 200.594311 102.125168 
L 200.696658 102.067215 
L 200.704786 102.067215 
L 200.915326 101.957518 
L 201.025469 101.889216 
L 201.026423 101.889216 
L 201.209677 101.779518 
L 201.315631 101.719495 
L 201.320773 101.719495 
L 201.518624 101.609798 
L 201.629514 101.537357 
L 201.62968 101.537357 
L 201.85631 101.427659 
L 201.966246 101.33452 
L 201.967407 101.33452 
L 202.142242 101.224823 
L 202.253214 101.150312 
L 202.413681 101.040614 
L 202.52542 100.974382 
L 202.713318 100.864685 
L 202.823005 100.794313 
L 202.824332 100.794313 
L 202.991952 100.684616 
L 203.10226 100.624593 
L 203.102841 100.624593 
L 203.266396 100.514895 
L 203.37683 100.427965 
L 203.377493 100.427965 
L 203.537317 100.318268 
L 203.64663 100.243757 
L 203.648413 100.243757 
L 203.82018 100.13406 
L 203.928747 100.057478 
L 203.931069 100.057478 
L 204.075341 99.947781 
L 204.182789 99.881549 
L 204.186438 99.881549 
L 204.363264 99.771852 
L 204.474278 99.705619 
L 204.607685 99.595922 
L 204.711815 99.515201 
L 204.718782 99.515201 
L 204.888558 99.405504 
L 204.994595 99.306156 
L 204.999654 99.306156 
L 205.134472 99.196458 
L 205.244739 99.134366 
L 205.245527 99.134366 
L 205.385528 99.024668 
L 205.494178 98.950157 
L 205.496293 98.950157 
L 205.657485 98.84046 
L 205.767047 98.770088 
L 205.768581 98.770088 
L 205.926331 98.660391 
L 206.033613 98.590019 
L 206.03693 98.590019 
L 206.251825 98.480322 
L 206.36288 98.40374 
L 206.527099 98.294043 
L 206.637325 98.215392 
L 206.791633 98.105695 
L 206.904223 98.006347 
L 207.097678 97.896649 
L 207.207904 97.80765 
L 207.208774 97.80765 
L 207.354664 97.697952 
L 207.464931 97.606883 
L 207.465761 97.606883 
L 207.585732 97.497186 
L 207.696787 97.401977 
L 207.833139 97.29228 
L 207.942908 97.219838 
L 207.943945 97.219838 
L 208.095765 97.110141 
L 208.19807 97.02942 
L 208.206115 97.02942 
L 208.364155 96.919723 
L 208.471063 96.832793 
L 208.475252 96.832793 
L 208.616704 96.723096 
L 208.7244 96.623747 
L 208.727137 96.623747 
L 208.848892 96.51612 
L 208.959035 96.445748 
L 208.959781 96.445748 
L 209.110067 96.336051 
L 209.219919 96.249121 
L 209.221122 96.249121 
L 209.460649 96.139423 
L 209.569673 96.093889 
L 209.571248 96.093889 
L 209.99967 95.984191 
L 210.084475 95.961424 
L 210.110766 95.961424 
L 210.747613 95.851727 
L 210.806707 95.845518 
L 210.853982 95.845518 
L 213.920193 95.73582 
L 213.992184 95.729611 
L 214.028843 95.729611 
L 214.814109 95.619914 
L 214.921971 95.597146 
L 214.924915 95.597146 
L 215.426862 95.487449 
L 215.535138 95.470891 
L 215.537917 95.470891 
L 215.977327 95.361194 
L 216.080213 95.340496 
L 216.088424 95.340496 
L 216.717599 95.230799 
L 216.822807 95.199753 
L 216.828613 95.199753 
L 217.390068 95.090055 
L 217.491544 95.075567 
L 217.501123 95.075567 
L 217.900308 94.96587 
L 218.006014 94.934823 
L 218.011073 94.934823 
L 218.431988 94.825126 
L 218.543728 94.79408 
L 218.950004 94.684382 
L 219.061204 94.647127 
L 219.427214 94.537429 
L 219.532215 94.500174 
L 219.538103 94.500174 
L 219.900588 94.390476 
L 220.001815 94.36357 
L 220.011643 94.36357 
L 220.434777 94.252837 
L 220.546475 94.220756 
L 220.92252 94.111059 
L 221.0354 94.077943 
L 221.497577 93.968246 
L 221.583149 93.937199 
L 221.608549 93.937199 
L 221.929772 93.827502 
L 221.929772 93.826467 
L 222.041947 93.800595 
L 222.395018 93.690898 
L 222.506488 93.651572 
L 222.909737 93.541875 
L 223.009264 93.510829 
L 223.020751 93.510829 
L 223.355451 93.400096 
L 223.466216 93.357666 
L 223.466547 93.357666 
L 223.844873 93.247969 
L 223.948257 93.225202 
L 223.95597 93.225202 
L 224.343253 93.115505 
L 224.455553 93.086528 
L 224.753843 92.976831 
L 224.865478 92.949924 
L 225.218923 92.840227 
L 225.330227 92.81332 
L 225.713985 92.703622 
L 225.825849 92.666367 
L 226.131666 92.556669 
L 226.244629 92.511135 
L 226.584098 92.400403 
L 226.698429 92.364182 
L 227.060416 92.254485 
L 227.060416 92.25345 
L 227.173026 92.217229 
L 227.496343 92.107532 
L 227.605449 92.064067 
L 227.60744 92.064067 
L 227.949459 91.954369 
L 228.063148 91.904695 
L 228.383333 91.794998 
L 228.495322 91.749463 
L 228.821956 91.639766 
L 228.932804 91.583882 
L 228.933011 91.583882 
L 229.269246 91.474185 
L 229.380716 91.436929 
L 229.755475 91.326197 
L 229.873788 91.289977 
L 230.225905 91.180279 
L 230.33866 91.140954 
L 230.664527 91.031257 
L 230.77608 91.00435 
L 231.141799 90.894652 
L 231.254804 90.849118 
L 231.675138 90.73942 
L 231.787728 90.691816 
L 232.082431 90.582119 
L 232.196347 90.528305 
L 232.515351 90.417573 
L 232.62848 90.368933 
L 233.005458 90.259236 
L 233.116866 90.217841 
L 233.407546 90.108144 
L 233.519949 90.070888 
L 233.85834 89.961191 
L 233.966845 89.917726 
L 233.969437 89.917726 
L 234.278135 89.808029 
L 234.391222 89.758354 
L 234.781865 89.647622 
L 234.894413 89.613471 
L 235.27278 89.503774 
L 235.383317 89.456169 
L 235.383794 89.456169 
L 235.833302 89.346472 
L 235.946804 89.309217 
L 236.390963 89.199519 
L 236.390963 89.198484 
L 236.503802 89.156054 
L 236.809805 89.045322 
L 236.926251 89.007032 
L 237.310383 88.896299 
L 237.423615 88.872497 
L 237.708697 88.7628 
L 237.820457 88.727614 
L 238.162477 88.616882 
L 238.281473 88.557894 
L 238.536801 88.448197 
L 238.647027 88.408871 
L 238.647815 88.408871 
L 239.006152 88.299174 
L 239.118037 88.257779 
L 239.405918 88.148081 
L 239.405918 88.147046 
L 239.519212 88.094268 
L 239.794404 87.98457 
L 239.906371 87.936966 
L 240.158858 87.827269 
L 240.263569 87.777594 
L 240.269934 87.777594 
L 240.554042 87.667897 
L 240.655144 87.634781 
L 240.665076 87.634781 
L 240.990985 87.524049 
L 241.104072 87.494037 
L 241.385442 87.38434 
L 241.500582 87.330526 
L 241.887534 87.220829 
L 242.002777 87.173225 
L 242.359767 87.062492 
L 242.476442 87.011783 
L 242.77948 86.901051 
L 242.888192 86.852412 
L 242.890473 86.852412 
L 243.262786 86.74168 
L 243.381098 86.705459 
L 243.740182 86.595762 
L 243.855384 86.548157 
L 244.114942 86.437425 
L 244.221021 86.407414 
L 244.226039 86.407414 
L 244.559494 86.297716 
L 244.672312 86.254251 
L 244.954678 86.144554 
L 245.06621 86.101089 
L 245.439352 85.990357 
L 245.549039 85.966555 
L 245.550407 85.966555 
L 245.835054 85.856857 
L 245.948514 85.819602 
L 246.348446 85.70887 
L 246.46089 85.676788 
L 246.784456 85.567091 
L 246.898704 85.531905 
L 247.267326 85.422208 
L 247.267326 85.421173 
L 247.379232 85.378743 
L 247.718431 85.269046 
L 247.830399 85.225581 
L 248.131343 85.115883 
L 248.245259 85.078628 
L 248.595967 84.968931 
L 248.710858 84.906838 
L 249.046387 84.79714 
L 249.15821 84.772303 
L 249.474477 84.662606 
L 249.588186 84.621211 
L 249.895951 84.511514 
L 250.008811 84.465979 
L 250.408431 84.356282 
L 250.520129 84.325235 
L 250.858665 84.215538 
L 250.971421 84.176213 
L 251.311035 84.066515 
L 251.423023 84.031329 
L 251.798819 83.921632 
L 251.913213 83.869888 
L 252.239992 83.760191 
L 252.351234 83.727075 
L 252.636337 83.618412 
L 252.748014 83.573913 
L 253.137122 83.46318 
L 253.250251 83.414541 
L 253.547815 83.304844 
L 253.663867 83.265518 
L 254.022371 83.155821 
L 254.022371 83.154786 
L 254.137573 83.126844 
L 254.474098 83.017147 
L 254.59071 82.965403 
L 254.876269 82.855706 
L 254.989833 82.826729 
L 255.303135 82.717032 
L 255.416305 82.675637 
L 255.772154 82.56594 
L 255.885864 82.536963 
L 256.200098 82.427266 
L 256.311796 82.398289 
L 256.613425 82.288592 
L 256.727403 82.251336 
L 256.986733 82.141639 
L 257.099032 82.108523 
L 257.41617 81.998825 
L 257.531414 81.95743 
L 257.819564 81.847733 
L 257.932174 81.810477 
L 258.278092 81.70078 
L 258.391407 81.659385 
L 258.731478 81.549688 
L 258.846535 81.504153 
L 259.213747 81.394456 
L 259.333117 81.35513 
L 259.721706 81.244398 
L 259.837614 81.201968 
L 260.150604 81.091236 
L 260.267092 81.052945 
L 260.567704 80.943248 
L 260.567704 80.942213 
L 260.689334 80.893574 
L 261.038445 80.783877 
L 261.152673 80.75283 
L 261.501617 80.642098 
L 261.616405 80.610017 
L 262.029358 80.500319 
L 262.148956 80.458924 
L 262.504391 80.348192 
L 262.617996 80.309902 
L 262.909485 80.200204 
L 263.022883 80.156739 
L 263.433493 80.047042 
L 263.549048 80.015996 
L 263.940665 79.905264 
L 264.057899 79.869043 
L 264.370475 79.759345 
L 264.486756 79.711741 
L 264.890565 79.602044 
L 265.004917 79.562718 
L 265.298914 79.453021 
L 265.410965 79.419905 
L 265.771957 79.310208 
L 265.883592 79.277091 
L 266.196977 79.167394 
L 266.309774 79.142557 
L 266.622516 79.03286 
L 266.735209 78.993534 
L 267.067069 78.883837 
L 267.180384 78.842442 
L 267.496755 78.732745 
L 267.608888 78.699629 
L 268.021385 78.589931 
L 268.021385 78.588896 
L 268.138598 78.544397 
L 268.472137 78.434699 
L 268.584685 78.407792 
L 268.942132 78.29706 
L 269.052295 78.269119 
L 269.053083 78.269119 
L 269.439724 78.159421 
L 269.551318 78.134584 
L 269.958175 78.023852 
L 270.069728 78.00005 
L 270.439138 77.889318 
L 270.553511 77.861376 
L 270.90343 77.751679 
L 271.016725 77.710283 
L 271.387213 77.599551 
L 271.499056 77.557121 
L 271.9016 77.446389 
L 272.011805 77.420517 
L 272.012489 77.420517 
L 272.324506 77.31082 
L 272.436805 77.279773 
L 272.838997 77.169041 
L 272.952395 77.151448 
L 273.323858 77.041751 
L 273.439205 77.004495 
L 273.815831 76.894798 
L 273.927715 76.865821 
L 274.332312 76.756124 
L 274.44486 76.720938 
L 274.79111 76.611241 
L 274.906187 76.580195 
L 275.244205 76.470497 
L 275.356961 76.431172 
L 275.759961 76.32044 
L 275.878626 76.282149 
L 276.383724 76.172452 
L 276.497578 76.135196 
L 276.846938 76.025499 
L 276.962845 75.998592 
L 277.400203 75.888895 
L 277.511548 75.855779 
L 277.825742 75.746082 
L 277.938829 75.708826 
L 278.218167 75.598094 
L 278.331565 75.559803 
L 278.596576 75.450106 
L 278.708523 75.41699 
L 279.112456 75.307292 
L 279.225378 75.270037 
L 279.576562 75.16034 
L 279.688363 75.125154 
L 280.002121 75.014421 
L 280.11554 74.978201 
L 280.513378 74.868503 
L 280.625822 74.825038 
L 281.015345 74.714306 
L 281.130278 74.688434 
L 281.592559 74.578737 
L 281.7066 74.5539 
L 282.162245 74.444203 
L 282.27751 74.402808 
L 282.656541 74.29311 
L 282.7694 74.266203 
L 283.184634 74.155471 
L 283.303838 74.104762 
L 283.661512 73.99403 
L 283.782457 73.970228 
L 284.133953 73.859496 
L 284.248139 73.825345 
L 284.697689 73.715647 
L 284.811294 73.682531 
L 284.926683 73.653555 
L 285.401135 73.542822 
L 285.519199 73.51902 
L 285.952119 73.409323 
L 286.067363 73.376207 
L 286.442558 73.266509 
L 286.554525 73.239603 
L 286.667177 73.216835 
L 287.175551 73.107138 
L 287.290028 73.067813 
L 287.809599 72.95708 
L 287.928119 72.91879 
L 288.362781 72.809093 
L 288.477133 72.771837 
L 288.995377 72.66214 
L 289.109293 72.639372 
L 289.577173 72.529675 
L 289.691919 72.48621 
L 290.296855 72.375478 
L 290.41498 72.362024 
L 290.816198 72.251292 
L 290.938781 72.196444 
L 291.399466 72.086746 
L 291.512055 72.047421 
L 291.922852 71.937724 
L 292.038095 71.912887 
L 292.396101 71.803189 
L 292.396101 71.802154 
L 292.509624 71.776283 
L 292.866821 71.666585 
L 292.97995 71.643818 
L 293.347805 71.534121 
L 293.462903 71.488586 
L 293.902791 71.378889 
L 294.018615 71.341633 
L 294.384583 71.231936 
L 294.499267 71.19675 
L 294.847735 71.086018 
L 294.96443 71.045657 
L 295.383437 70.93596 
L 295.49584 70.904914 
L 295.870538 70.795216 
L 295.983625 70.770379 
L 296.368254 70.660682 
L 296.480968 70.639984 
L 296.832567 70.529252 
L 296.94891 70.50338 
L 297.367378 70.392648 
L 297.483949 70.360567 
L 297.875586 70.25087 
L 297.989545 70.223963 
L 298.470445 70.114265 
L 298.581832 70.085289 
L 299.003162 69.975592 
L 299.11938 69.938336 
L 299.539901 69.828639 
L 299.653445 69.795523 
L 300.174405 69.685825 
L 300.287181 69.656849 
L 300.717344 69.547151 
L 300.832069 69.509896 
L 301.341024 69.399164 
L 301.455272 69.371222 
L 301.909529 69.261525 
L 302.022989 69.238757 
L 302.531011 69.12906 
L 302.64302 69.100083 
L 303.167091 68.989351 
L 303.284615 68.967619 
L 303.740302 68.857921 
L 303.851648 68.833084 
L 304.25272 68.723387 
L 304.364978 68.69855 
L 304.888613 68.588853 
L 305.00058 68.561946 
L 305.471341 68.452248 
L 305.584263 68.408784 
L 306.020522 68.299086 
L 306.133339 68.278389 
L 306.574823 68.168691 
L 306.690336 68.141785 
L 307.128192 68.032087 
L 307.239662 68.013459 
L 307.676107 67.903762 
L 307.788261 67.874786 
L 308.235821 67.765088 
L 308.348618 67.738181 
L 308.752986 67.628484 
L 308.865576 67.605717 
L 309.330469 67.494985 
L 309.444158 67.473252 
L 310.003125 67.363555 
L 310.116544 67.32009 
L 310.530326 67.210393 
L 310.642957 67.189695 
L 311.174223 67.079998 
L 311.174223 67.078963 
L 311.294173 67.055161 
L 311.788427 66.945463 
L 311.903588 66.910278 
L 312.335326 66.80058 
L 312.439166 66.777813 
L 312.446299 66.777813 
L 312.875964 66.668116 
L 312.988989 66.637069 
L 313.493029 66.526337 
L 313.610512 66.510814 
L 314.102112 66.401117 
L 314.215428 66.380419 
L 314.760813 66.270722 
L 314.873216 66.245885 
L 315.429446 66.135153 
L 315.547427 66.092722 
L 316.049975 65.98199 
L 316.153835 65.947839 
L 316.16103 65.947839 
L 316.724724 65.838142 
L 316.837127 65.807096 
L 317.249272 65.697398 
L 317.361343 65.678771 
L 318.02303 65.569073 
L 318.137589 65.540097 
L 318.647021 65.430399 
L 318.759444 65.415911 
L 319.302218 65.306214 
L 319.41518 65.271028 
L 319.923886 65.160296 
L 320.041121 65.130284 
L 320.527806 65.019552 
L 320.642262 64.99161 
L 321.023698 64.880878 
L 321.139979 64.857076 
L 321.486539 64.746344 
L 321.603794 64.726681 
L 322.164585 64.616984 
L 322.277113 64.596286 
L 322.842653 64.486589 
L 322.954019 64.451403 
L 323.348435 64.341706 
L 323.462041 64.318938 
L 324.087608 64.209241 
L 324.200508 64.180265 
L 324.80111 64.070567 
L 324.915504 64.033312 
L 325.429041 63.923614 
L 325.542958 63.896707 
L 326.099727 63.785975 
L 326.215841 63.758034 
L 326.735371 63.648336 
L 326.849536 63.633848 
L 327.404398 63.524151 
L 327.515826 63.491035 
L 328.25813 63.381337 
L 328.376857 63.3565 
L 328.973602 63.246803 
L 329.084824 63.221966 
L 329.682295 63.112269 
L 329.794304 63.091571 
L 330.317068 62.980839 
L 330.436542 62.954967 
L 331.05452 62.84527 
L 331.168125 62.818363 
L 331.713387 62.708665 
L 331.826494 62.685898 
L 332.506075 62.576201 
L 332.506075 62.575166 
L 332.622418 62.551364 
L 333.26364 62.441666 
L 333.376851 62.416829 
L 333.82356 62.307132 
L 333.935424 62.286434 
L 334.501545 62.176737 
L 334.614611 62.145691 
L 335.237317 62.035994 
L 335.35028 62.000808 
L 335.88704 61.89111 
L 335.999982 61.868343 
L 336.541843 61.758646 
L 336.656257 61.71932 
L 337.223995 61.608588 
L 337.337745 61.597205 
L 337.882903 61.487507 
L 337.995223 61.470949 
L 338.583509 61.360217 
L 338.695476 61.336415 
L 339.337818 61.226718 
L 339.450635 61.20602 
L 340.003465 61.095288 
L 340.091256 61.075625 
L 340.114499 61.075625 
L 340.712385 60.965928 
L 340.825286 60.939021 
L 341.472334 60.828289 
L 341.585255 60.800347 
L 342.245346 60.69065 
L 342.358246 60.672022 
L 342.914704 60.562325 
L 343.025946 60.539557 
L 343.594866 60.428825 
L 343.706315 60.407093 
L 344.396554 60.297395 
L 344.509662 60.282907 
L 345.339072 60.17321 
L 345.451682 60.154582 
L 346.123736 60.04385 
L 346.218577 60.030396 
L 346.234812 60.030396 
L 346.855776 59.919664 
L 346.971787 59.906211 
L 347.484474 59.795479 
L 347.597395 59.775816 
L 348.1783 59.666119 
L 348.290848 59.645421 
L 349.075927 59.535724 
L 349.187894 59.504678 
L 350.132382 59.39498 
L 350.245926 59.372213 
L 350.937367 59.262516 
L 351.049189 59.241818 
L 351.83263 59.132121 
L 351.945116 59.113493 
L 352.65016 59.003796 
L 352.763703 58.981028 
L 353.31083 58.870296 
L 353.435819 58.840285 
L 354.07505 58.729553 
L 354.190356 58.716099 
L 354.943048 58.605367 
L 355.056571 58.591913 
L 356.057333 58.481181 
L 356.171664 58.469798 
L 356.987762 58.359066 
L 357.100621 58.349752 
L 357.75277 58.240054 
L 357.865298 58.223496 
L 358.59035 58.113799 
L 358.702193 58.095171 
L 359.434025 57.984439 
L 359.545288 57.968916 
L 360.400223 57.859219 
L 360.511879 57.8468 
L 361.429889 57.737103 
L 361.542997 57.716405 
L 362.491237 57.606708 
L 362.604885 57.58601 
L 363.441697 57.476313 
L 363.55296 57.459755 
L 364.361096 57.350058 
L 364.472669 57.337639 
L 365.386014 57.227942 
L 365.497857 57.215523 
L 366.431874 57.105826 
L 366.543862 57.093408 
L 367.290292 56.98371 
L 367.290292 56.982675 
L 367.401596 56.971292 
L 368.27544 56.86056 
L 368.371815 56.853315 
L 368.386454 56.853315 
L 369.325924 56.743618 
L 369.43785 56.737409 
L 370.534033 56.627712 
L 370.645172 56.621502 
L 371.671168 56.511805 
L 371.782679 56.489038 
L 373.148144 56.37934 
L 373.259386 56.364852 
L 374.333031 56.255155 
L 374.446678 56.242736 
L 375.508503 56.132004 
L 375.609399 56.12476 
L 375.619579 56.12476 
L 376.871418 56.015063 
L 376.973827 55.998505 
L 376.982515 55.998505 
L 378.355154 55.888807 
L 378.467537 55.874319 
L 379.763893 55.763587 
L 379.876545 55.756343 
L 380.902064 55.645611 
L 381.013824 55.630087 
L 382.368549 55.52039 
L 382.480392 55.503832 
L 383.991456 55.394135 
L 384.102719 55.383786 
L 385.6515 55.274089 
L 385.7627 55.26167 
L 387.100609 55.151973 
L 387.211975 55.137485 
L 388.722376 55.026752 
L 388.834344 55.019508 
L 390.686018 54.909811 
L 390.750565 54.901532 
L 390.797114 54.901532 
L 392.67058 54.791835 
L 392.781926 54.783556 
L 395.219978 54.673858 
L 395.331407 54.667649 
L 398.109571 54.557952 
L 398.220709 54.551743 
L 400.303845 54.442045 
L 400.396031 54.431697 
L 400.414941 54.431697 
L 403.593825 54.321999 
L 403.593825 54.31993 
L 403.704507 54.31993 
L 411.157731 54.210232 
L 411.157731 54.208163 
L 411.268496 54.208163 
L 414.72 54.144 
L 414.72 54.144 
" clip-path="url(#pc375dd4b06)" style="fill: none; stroke: #ff8c00; stroke-width: 1.5; stroke-linecap: square"/>
   </g>
   <g id="line2d_14">
    <path d="M 74.605714 307.584 
L 414.72 54.144 
" clip-path="url(#pc375dd4b06)" style="fill: none; stroke-dasharray: 5.55,2.4; stroke-dashoffset: 0; stroke: #0000ff; stroke-width: 1.5"/>
   </g>
   <g id="patch_3">
    <path d="M 57.6 307.584 
L 57.6 41.472 
" style="fill: none; stroke: #000000; stroke-width: 0.8; stroke-linejoin: miter; stroke-linecap: square"/>
   </g>
   <g id="patch_4">
    <path d="M 414.72 307.584 
L 414.72 41.472 
" style="fill: none; stroke: #000000; stroke-width: 0.8; stroke-linejoin: miter; stroke-linecap: square"/>
   </g>
   <g id="patch_5">
    <path d="M 57.6 307.584 
L 414.72 307.584 
" style="fill: none; stroke: #000000; stroke-width: 0.8; stroke-linejoin: miter; stroke-linecap: square"/>
   </g>
   <g id="patch_6">
    <path d="M 57.6 41.472 
L 414.72 41.472 
" style="fill: none; stroke: #000000; stroke-width: 0.8; stroke-linejoin: miter; stroke-linecap: square"/>
   </g>
   <g id="text_15">
    <!-- ROC CURVE -->
    <g transform="translate(200.855625 35.472)scale(0.12 -0.12)">
     <defs>
      <path id="DejaVuSans-4f" d="M 2522 4238 
Q 1834 4238 1429 3725 
Q 1025 3213 1025 2328 
Q 1025 1447 1429 934 
Q 1834 422 2522 422 
Q 3209 422 3611 934 
Q 4013 1447 4013 2328 
Q 4013 3213 3611 3725 
Q 3209 4238 2522 4238 
z
M 2522 4750 
Q 3503 4750 4090 4092 
Q 4678 3434 4678 2328 
Q 4678 1225 4090 567 
Q 3503 -91 2522 -91 
Q 1538 -91 948 565 
Q 359 1222 359 2328 
Q 359 3434 948 4092 
Q 1538 4750 2522 4750 
z
" transform="scale(0.015625)"/>
      <path id="DejaVuSans-43" d="M 4122 4306 
L 4122 3641 
Q 3803 3938 3442 4084 
Q 3081 4231 2675 4231 
Q 1875 4231 1450 3742 
Q 1025 3253 1025 2328 
Q 1025 1406 1450 917 
Q 1875 428 2675 428 
Q 3081 428 3442 575 
Q 3803 722 4122 1019 
L 4122 359 
Q 3791 134 3420 21 
Q 3050 -91 2638 -91 
Q 1578 -91 968 557 
Q 359 1206 359 2328 
Q 359 3453 968 4101 
Q 1578 4750 2638 4750 
Q 3056 4750 3426 4639 
Q 3797 4528 4122 4306 
z
" transform="scale(0.015625)"/>
      <path id="DejaVuSans-55" d="M 556 4666 
L 1191 4666 
L 1191 1831 
Q 1191 1081 1462 751 
Q 1734 422 2344 422 
Q 2950 422 3222 751 
Q 3494 1081 3494 1831 
L 3494 4666 
L 4128 4666 
L 4128 1753 
Q 4128 841 3676 375 
Q 3225 -91 2344 -91 
Q 1459 -91 1007 375 
Q 556 841 556 1753 
L 556 4666 
z
" transform="scale(0.015625)"/>
      <path id="DejaVuSans-56" d="M 1831 0 
L 50 4666 
L 709 4666 
L 2188 738 
L 3669 4666 
L 4325 4666 
L 2547 0 
L 1831 0 
z
" transform="scale(0.015625)"/>
      <path id="DejaVuSans-45" d="M 628 4666 
L 3578 4666 
L 3578 4134 
L 1259 4134 
L 1259 2753 
L 3481 2753 
L 3481 2222 
L 1259 2222 
L 1259 531 
L 3634 531 
L 3634 0 
L 628 0 
L 628 4666 
z
" transform="scale(0.015625)"/>
     </defs>
     <use xlink:href="#DejaVuSans-52"/>
     <use xlink:href="#DejaVuSans-4f" x="69.482422"/>
     <use xlink:href="#DejaVuSans-43" x="148.193359"/>
     <use xlink:href="#DejaVuSans-20" x="218.017578"/>
     <use xlink:href="#DejaVuSans-43" x="249.804688"/>
     <use xlink:href="#DejaVuSans-55" x="319.628906"/>
     <use xlink:href="#DejaVuSans-52" x="392.822266"/>
     <use xlink:href="#DejaVuSans-56" x="456.804688"/>
     <use xlink:href="#DejaVuSans-45" x="525.212891"/>
    </g>
   </g>
   <g id="legend_1">
    <g id="patch_7">
     <path d="M 234.97 302.584 
L 407.72 302.584 
Q 409.72 302.584 409.72 300.584 
L 409.72 286.905875 
Q 409.72 284.905875 407.72 284.905875 
L 234.97 284.905875 
Q 232.97 284.905875 232.97 286.905875 
L 232.97 300.584 
Q 232.97 302.584 234.97 302.584 
z
" style="fill: #ffffff; opacity: 0.8; stroke: #cccccc; stroke-linejoin: miter"/>
    </g>
    <g id="line2d_15">
     <path d="M 236.97 293.004312 
L 246.97 293.004312 
L 256.97 293.004312 
" style="fill: none; stroke: #ff8c00; stroke-width: 1.5; stroke-linecap: square"/>
    </g>
    <g id="text_16">
     <!-- ROC curve (ROC AUC=0.78) -->
     <g transform="translate(264.97 296.504312)scale(0.1 -0.1)">
      <defs>
       <path id="DejaVuSans-63" d="M 3122 3366 
L 3122 2828 
Q 2878 2963 2633 3030 
Q 2388 3097 2138 3097 
Q 1578 3097 1268 2742 
Q 959 2388 959 1747 
Q 959 1106 1268 751 
Q 1578 397 2138 397 
Q 2388 397 2633 464 
Q 2878 531 3122 666 
L 3122 134 
Q 2881 22 2623 -34 
Q 2366 -91 2075 -91 
Q 1284 -91 818 406 
Q 353 903 353 1747 
Q 353 2603 823 3093 
Q 1294 3584 2113 3584 
Q 2378 3584 2631 3529 
Q 2884 3475 3122 3366 
z
" transform="scale(0.015625)"/>
       <path id="DejaVuSans-28" d="M 1984 4856 
Q 1566 4138 1362 3434 
Q 1159 2731 1159 2009 
Q 1159 1288 1364 580 
Q 1569 -128 1984 -844 
L 1484 -844 
Q 1016 -109 783 600 
Q 550 1309 550 2009 
Q 550 2706 781 3412 
Q 1013 4119 1484 4856 
L 1984 4856 
z
" transform="scale(0.015625)"/>
       <path id="DejaVuSans-41" d="M 2188 4044 
L 1331 1722 
L 3047 1722 
L 2188 4044 
z
M 1831 4666 
L 2547 4666 
L 4325 0 
L 3669 0 
L 3244 1197 
L 1141 1197 
L 716 0 
L 50 0 
L 1831 4666 
z
" transform="scale(0.015625)"/>
       <path id="DejaVuSans-3d" d="M 678 2906 
L 4684 2906 
L 4684 2381 
L 678 2381 
L 678 2906 
z
M 678 1631 
L 4684 1631 
L 4684 1100 
L 678 1100 
L 678 1631 
z
" transform="scale(0.015625)"/>
       <path id="DejaVuSans-37" d="M 525 4666 
L 3525 4666 
L 3525 4397 
L 1831 0 
L 1172 0 
L 2766 4134 
L 525 4134 
L 525 4666 
z
" transform="scale(0.015625)"/>
       <path id="DejaVuSans-29" d="M 513 4856 
L 1013 4856 
Q 1481 4119 1714 3412 
Q 1947 2706 1947 2009 
Q 1947 1309 1714 600 
Q 1481 -109 1013 -844 
L 513 -844 
Q 928 -128 1133 580 
Q 1338 1288 1338 2009 
Q 1338 2731 1133 3434 
Q 928 4138 513 4856 
z
" transform="scale(0.015625)"/>
      </defs>
      <use xlink:href="#DejaVuSans-52"/>
      <use xlink:href="#DejaVuSans-4f" x="69.482422"/>
      <use xlink:href="#DejaVuSans-43" x="148.193359"/>
      <use xlink:href="#DejaVuSans-20" x="218.017578"/>
      <use xlink:href="#DejaVuSans-63" x="249.804688"/>
      <use xlink:href="#DejaVuSans-75" x="304.785156"/>
      <use xlink:href="#DejaVuSans-72" x="368.164062"/>
      <use xlink:href="#DejaVuSans-76" x="409.277344"/>
      <use xlink:href="#DejaVuSans-65" x="468.457031"/>
      <use xlink:href="#DejaVuSans-20" x="529.980469"/>
      <use xlink:href="#DejaVuSans-28" x="561.767578"/>
      <use xlink:href="#DejaVuSans-52" x="600.78125"/>
      <use xlink:href="#DejaVuSans-4f" x="670.263672"/>
      <use xlink:href="#DejaVuSans-43" x="748.974609"/>
      <use xlink:href="#DejaVuSans-20" x="818.798828"/>
      <use xlink:href="#DejaVuSans-41" x="850.585938"/>
      <use xlink:href="#DejaVuSans-55" x="918.994141"/>
      <use xlink:href="#DejaVuSans-43" x="992.1875"/>
      <use xlink:href="#DejaVuSans-3d" x="1062.011719"/>
      <use xlink:href="#DejaVuSans-30" x="1145.800781"/>
      <use xlink:href="#DejaVuSans-2e" x="1209.423828"/>
      <use xlink:href="#DejaVuSans-37" x="1241.210938"/>
      <use xlink:href="#DejaVuSans-38" x="1304.833984"/>
      <use xlink:href="#DejaVuSans-29" x="1368.457031"/>
     </g>
    </g>
   </g>
  </g>
 </g>
 <defs>
  <clipPath id="pc375dd4b06">
   <rect x="57.6" y="41.472" width="357.12" height="266.112"/>
  </clipPath>
 </defs>
</svg>
