<?xml version="1.0" encoding="utf-8" standalone="no"?>
<!DOCTYPE svg PUBLIC "-//W3C//DTD SVG 1.1//EN"
  "http://www.w3.org/Graphics/SVG/1.1/DTD/svg11.dtd">
<svg xmlns:xlink="http://www.w3.org/1999/xlink" width="460.8pt" height="345.6pt" viewBox="0 0 460.8 345.6" xmlns="http://www.w3.org/2000/svg" version="1.1">
 <metadata>
  <rdf:RDF xmlns:dc="http://purl.org/dc/elements/1.1/" xmlns:cc="http://creativecommons.org/ns#" xmlns:rdf="http://www.w3.org/1999/02/22-rdf-syntax-ns#">
   <cc:Work>
    <dc:type rdf:resource="http://purl.org/dc/dcmitype/StillImage"/>
    <dc:date>2022-05-24T20:20:25.926620</dc:date>
    <dc:format>image/svg+xml</dc:format>
    <dc:creator>
     <cc:Agent>
      <dc:title>Matplotlib v3.5.1, https://matplotlib.org/</dc:title>
     </cc:Agent>
    </dc:creator>
   </cc:Work>
  </rdf:RDF>
 </metadata>
 <defs>
  <style type="text/css">*{stroke-linejoin: round; stroke-linecap: butt}</style>
 </defs>
 <g id="figure_1">
  <g id="patch_1">
   <path d="M 0 345.6 
L 460.8 345.6 
L 460.8 0 
L 0 0 
z
" style="fill: #ffffff"/>
  </g>
  <g id="axes_1">
   <g id="patch_2">
    <path d="M 57.6 307.584 
L 414.72 307.584 
L 414.72 41.472 
L 57.6 41.472 
z
" style="fill: #ffffff"/>
   </g>
   <g id="matplotlib.axis_1">
    <g id="xtick_1">
     <g id="line2d_1">
      <defs>
       <path id="m3f8199a56c" d="M 0 0 
L 0 3.5 
" style="stroke: #000000; stroke-width: 0.8"/>
      </defs>
      <g>
       <use xlink:href="#m3f8199a56c" x="74.605714" y="307.584" style="stroke: #000000; stroke-width: 0.8"/>
      </g>
     </g>
     <g id="text_1">
      <!-- 0.0 -->
      <g transform="translate(66.654152 322.182437)scale(0.1 -0.1)">
       <defs>
        <path id="DejaVuSans-30" d="M 2034 4250 
Q 1547 4250 1301 3770 
Q 1056 3291 1056 2328 
Q 1056 1369 1301 889 
Q 1547 409 2034 409 
Q 2525 409 2770 889 
Q 3016 1369 3016 2328 
Q 3016 3291 2770 3770 
Q 2525 4250 2034 4250 
z
M 2034 4750 
Q 2819 4750 3233 4129 
Q 3647 3509 3647 2328 
Q 3647 1150 3233 529 
Q 2819 -91 2034 -91 
Q 1250 -91 836 529 
Q 422 1150 422 2328 
Q 422 3509 836 4129 
Q 1250 4750 2034 4750 
z
" transform="scale(0.015625)"/>
        <path id="DejaVuSans-2e" d="M 684 794 
L 1344 794 
L 1344 0 
L 684 0 
L 684 794 
z
" transform="scale(0.015625)"/>
       </defs>
       <use xlink:href="#DejaVuSans-30"/>
       <use xlink:href="#DejaVuSans-2e" x="63.623047"/>
       <use xlink:href="#DejaVuSans-30" x="95.410156"/>
      </g>
     </g>
    </g>
    <g id="xtick_2">
     <g id="line2d_2">
      <g>
       <use xlink:href="#m3f8199a56c" x="142.628571" y="307.584" style="stroke: #000000; stroke-width: 0.8"/>
      </g>
     </g>
     <g id="text_2">
      <!-- 0.2 -->
      <g transform="translate(134.677009 322.182437)scale(0.1 -0.1)">
       <defs>
        <path id="DejaVuSans-32" d="M 1228 531 
L 3431 531 
L 3431 0 
L 469 0 
L 469 531 
Q 828 903 1448 1529 
Q 2069 2156 2228 2338 
Q 2531 2678 2651 2914 
Q 2772 3150 2772 3378 
Q 2772 3750 2511 3984 
Q 2250 4219 1831 4219 
Q 1534 4219 1204 4116 
Q 875 4013 500 3803 
L 500 4441 
Q 881 4594 1212 4672 
Q 1544 4750 1819 4750 
Q 2544 4750 2975 4387 
Q 3406 4025 3406 3419 
Q 3406 3131 3298 2873 
Q 3191 2616 2906 2266 
Q 2828 2175 2409 1742 
Q 1991 1309 1228 531 
z
" transform="scale(0.015625)"/>
       </defs>
       <use xlink:href="#DejaVuSans-30"/>
       <use xlink:href="#DejaVuSans-2e" x="63.623047"/>
       <use xlink:href="#DejaVuSans-32" x="95.410156"/>
      </g>
     </g>
    </g>
    <g id="xtick_3">
     <g id="line2d_3">
      <g>
       <use xlink:href="#m3f8199a56c" x="210.651429" y="307.584" style="stroke: #000000; stroke-width: 0.8"/>
      </g>
     </g>
     <g id="text_3">
      <!-- 0.4 -->
      <g transform="translate(202.699866 322.182437)scale(0.1 -0.1)">
       <defs>
        <path id="DejaVuSans-34" d="M 2419 4116 
L 825 1625 
L 2419 1625 
L 2419 4116 
z
M 2253 4666 
L 3047 4666 
L 3047 1625 
L 3713 1625 
L 3713 1100 
L 3047 1100 
L 3047 0 
L 2419 0 
L 2419 1100 
L 313 1100 
L 313 1709 
L 2253 4666 
z
" transform="scale(0.015625)"/>
       </defs>
       <use xlink:href="#DejaVuSans-30"/>
       <use xlink:href="#DejaVuSans-2e" x="63.623047"/>
       <use xlink:href="#DejaVuSans-34" x="95.410156"/>
      </g>
     </g>
    </g>
    <g id="xtick_4">
     <g id="line2d_4">
      <g>
       <use xlink:href="#m3f8199a56c" x="278.674286" y="307.584" style="stroke: #000000; stroke-width: 0.8"/>
      </g>
     </g>
     <g id="text_4">
      <!-- 0.6 -->
      <g transform="translate(270.722723 322.182437)scale(0.1 -0.1)">
       <defs>
        <path id="DejaVuSans-36" d="M 2113 2584 
Q 1688 2584 1439 2293 
Q 1191 2003 1191 1497 
Q 1191 994 1439 701 
Q 1688 409 2113 409 
Q 2538 409 2786 701 
Q 3034 994 3034 1497 
Q 3034 2003 2786 2293 
Q 2538 2584 2113 2584 
z
M 3366 4563 
L 3366 3988 
Q 3128 4100 2886 4159 
Q 2644 4219 2406 4219 
Q 1781 4219 1451 3797 
Q 1122 3375 1075 2522 
Q 1259 2794 1537 2939 
Q 1816 3084 2150 3084 
Q 2853 3084 3261 2657 
Q 3669 2231 3669 1497 
Q 3669 778 3244 343 
Q 2819 -91 2113 -91 
Q 1303 -91 875 529 
Q 447 1150 447 2328 
Q 447 3434 972 4092 
Q 1497 4750 2381 4750 
Q 2619 4750 2861 4703 
Q 3103 4656 3366 4563 
z
" transform="scale(0.015625)"/>
       </defs>
       <use xlink:href="#DejaVuSans-30"/>
       <use xlink:href="#DejaVuSans-2e" x="63.623047"/>
       <use xlink:href="#DejaVuSans-36" x="95.410156"/>
      </g>
     </g>
    </g>
    <g id="xtick_5">
     <g id="line2d_5">
      <g>
       <use xlink:href="#m3f8199a56c" x="346.697143" y="307.584" style="stroke: #000000; stroke-width: 0.8"/>
      </g>
     </g>
     <g id="text_5">
      <!-- 0.8 -->
      <g transform="translate(338.74558 322.182437)scale(0.1 -0.1)">
       <defs>
        <path id="DejaVuSans-38" d="M 2034 2216 
Q 1584 2216 1326 1975 
Q 1069 1734 1069 1313 
Q 1069 891 1326 650 
Q 1584 409 2034 409 
Q 2484 409 2743 651 
Q 3003 894 3003 1313 
Q 3003 1734 2745 1975 
Q 2488 2216 2034 2216 
z
M 1403 2484 
Q 997 2584 770 2862 
Q 544 3141 544 3541 
Q 544 4100 942 4425 
Q 1341 4750 2034 4750 
Q 2731 4750 3128 4425 
Q 3525 4100 3525 3541 
Q 3525 3141 3298 2862 
Q 3072 2584 2669 2484 
Q 3125 2378 3379 2068 
Q 3634 1759 3634 1313 
Q 3634 634 3220 271 
Q 2806 -91 2034 -91 
Q 1263 -91 848 271 
Q 434 634 434 1313 
Q 434 1759 690 2068 
Q 947 2378 1403 2484 
z
M 1172 3481 
Q 1172 3119 1398 2916 
Q 1625 2713 2034 2713 
Q 2441 2713 2670 2916 
Q 2900 3119 2900 3481 
Q 2900 3844 2670 4047 
Q 2441 4250 2034 4250 
Q 1625 4250 1398 4047 
Q 1172 3844 1172 3481 
z
" transform="scale(0.015625)"/>
       </defs>
       <use xlink:href="#DejaVuSans-30"/>
       <use xlink:href="#DejaVuSans-2e" x="63.623047"/>
       <use xlink:href="#DejaVuSans-38" x="95.410156"/>
      </g>
     </g>
    </g>
    <g id="xtick_6">
     <g id="line2d_6">
      <g>
       <use xlink:href="#m3f8199a56c" x="414.72" y="307.584" style="stroke: #000000; stroke-width: 0.8"/>
      </g>
     </g>
     <g id="text_6">
      <!-- 1.0 -->
      <g transform="translate(406.768438 322.182437)scale(0.1 -0.1)">
       <defs>
        <path id="DejaVuSans-31" d="M 794 531 
L 1825 531 
L 1825 4091 
L 703 3866 
L 703 4441 
L 1819 4666 
L 2450 4666 
L 2450 531 
L 3481 531 
L 3481 0 
L 794 0 
L 794 531 
z
" transform="scale(0.015625)"/>
       </defs>
       <use xlink:href="#DejaVuSans-31"/>
       <use xlink:href="#DejaVuSans-2e" x="63.623047"/>
       <use xlink:href="#DejaVuSans-30" x="95.410156"/>
      </g>
     </g>
    </g>
    <g id="text_7">
     <!-- False Positive Rate -->
     <g transform="translate(189.693594 335.860562)scale(0.1 -0.1)">
      <defs>
       <path id="DejaVuSans-46" d="M 628 4666 
L 3309 4666 
L 3309 4134 
L 1259 4134 
L 1259 2759 
L 3109 2759 
L 3109 2228 
L 1259 2228 
L 1259 0 
L 628 0 
L 628 4666 
z
" transform="scale(0.015625)"/>
       <path id="DejaVuSans-61" d="M 2194 1759 
Q 1497 1759 1228 1600 
Q 959 1441 959 1056 
Q 959 750 1161 570 
Q 1363 391 1709 391 
Q 2188 391 2477 730 
Q 2766 1069 2766 1631 
L 2766 1759 
L 2194 1759 
z
M 3341 1997 
L 3341 0 
L 2766 0 
L 2766 531 
Q 2569 213 2275 61 
Q 1981 -91 1556 -91 
Q 1019 -91 701 211 
Q 384 513 384 1019 
Q 384 1609 779 1909 
Q 1175 2209 1959 2209 
L 2766 2209 
L 2766 2266 
Q 2766 2663 2505 2880 
Q 2244 3097 1772 3097 
Q 1472 3097 1187 3025 
Q 903 2953 641 2809 
L 641 3341 
Q 956 3463 1253 3523 
Q 1550 3584 1831 3584 
Q 2591 3584 2966 3190 
Q 3341 2797 3341 1997 
z
" transform="scale(0.015625)"/>
       <path id="DejaVuSans-6c" d="M 603 4863 
L 1178 4863 
L 1178 0 
L 603 0 
L 603 4863 
z
" transform="scale(0.015625)"/>
       <path id="DejaVuSans-73" d="M 2834 3397 
L 2834 2853 
Q 2591 2978 2328 3040 
Q 2066 3103 1784 3103 
Q 1356 3103 1142 2972 
Q 928 2841 928 2578 
Q 928 2378 1081 2264 
Q 1234 2150 1697 2047 
L 1894 2003 
Q 2506 1872 2764 1633 
Q 3022 1394 3022 966 
Q 3022 478 2636 193 
Q 2250 -91 1575 -91 
Q 1294 -91 989 -36 
Q 684 19 347 128 
L 347 722 
Q 666 556 975 473 
Q 1284 391 1588 391 
Q 1994 391 2212 530 
Q 2431 669 2431 922 
Q 2431 1156 2273 1281 
Q 2116 1406 1581 1522 
L 1381 1569 
Q 847 1681 609 1914 
Q 372 2147 372 2553 
Q 372 3047 722 3315 
Q 1072 3584 1716 3584 
Q 2034 3584 2315 3537 
Q 2597 3491 2834 3397 
z
" transform="scale(0.015625)"/>
       <path id="DejaVuSans-65" d="M 3597 1894 
L 3597 1613 
L 953 1613 
Q 991 1019 1311 708 
Q 1631 397 2203 397 
Q 2534 397 2845 478 
Q 3156 559 3463 722 
L 3463 178 
Q 3153 47 2828 -22 
Q 2503 -91 2169 -91 
Q 1331 -91 842 396 
Q 353 884 353 1716 
Q 353 2575 817 3079 
Q 1281 3584 2069 3584 
Q 2775 3584 3186 3129 
Q 3597 2675 3597 1894 
z
M 3022 2063 
Q 3016 2534 2758 2815 
Q 2500 3097 2075 3097 
Q 1594 3097 1305 2825 
Q 1016 2553 972 2059 
L 3022 2063 
z
" transform="scale(0.015625)"/>
       <path id="DejaVuSans-20" transform="scale(0.015625)"/>
       <path id="DejaVuSans-50" d="M 1259 4147 
L 1259 2394 
L 2053 2394 
Q 2494 2394 2734 2622 
Q 2975 2850 2975 3272 
Q 2975 3691 2734 3919 
Q 2494 4147 2053 4147 
L 1259 4147 
z
M 628 4666 
L 2053 4666 
Q 2838 4666 3239 4311 
Q 3641 3956 3641 3272 
Q 3641 2581 3239 2228 
Q 2838 1875 2053 1875 
L 1259 1875 
L 1259 0 
L 628 0 
L 628 4666 
z
" transform="scale(0.015625)"/>
       <path id="DejaVuSans-6f" d="M 1959 3097 
Q 1497 3097 1228 2736 
Q 959 2375 959 1747 
Q 959 1119 1226 758 
Q 1494 397 1959 397 
Q 2419 397 2687 759 
Q 2956 1122 2956 1747 
Q 2956 2369 2687 2733 
Q 2419 3097 1959 3097 
z
M 1959 3584 
Q 2709 3584 3137 3096 
Q 3566 2609 3566 1747 
Q 3566 888 3137 398 
Q 2709 -91 1959 -91 
Q 1206 -91 779 398 
Q 353 888 353 1747 
Q 353 2609 779 3096 
Q 1206 3584 1959 3584 
z
" transform="scale(0.015625)"/>
       <path id="DejaVuSans-69" d="M 603 3500 
L 1178 3500 
L 1178 0 
L 603 0 
L 603 3500 
z
M 603 4863 
L 1178 4863 
L 1178 4134 
L 603 4134 
L 603 4863 
z
" transform="scale(0.015625)"/>
       <path id="DejaVuSans-74" d="M 1172 4494 
L 1172 3500 
L 2356 3500 
L 2356 3053 
L 1172 3053 
L 1172 1153 
Q 1172 725 1289 603 
Q 1406 481 1766 481 
L 2356 481 
L 2356 0 
L 1766 0 
Q 1100 0 847 248 
Q 594 497 594 1153 
L 594 3053 
L 172 3053 
L 172 3500 
L 594 3500 
L 594 4494 
L 1172 4494 
z
" transform="scale(0.015625)"/>
       <path id="DejaVuSans-76" d="M 191 3500 
L 800 3500 
L 1894 563 
L 2988 3500 
L 3597 3500 
L 2284 0 
L 1503 0 
L 191 3500 
z
" transform="scale(0.015625)"/>
       <path id="DejaVuSans-52" d="M 2841 2188 
Q 3044 2119 3236 1894 
Q 3428 1669 3622 1275 
L 4263 0 
L 3584 0 
L 2988 1197 
Q 2756 1666 2539 1819 
Q 2322 1972 1947 1972 
L 1259 1972 
L 1259 0 
L 628 0 
L 628 4666 
L 2053 4666 
Q 2853 4666 3247 4331 
Q 3641 3997 3641 3322 
Q 3641 2881 3436 2590 
Q 3231 2300 2841 2188 
z
M 1259 4147 
L 1259 2491 
L 2053 2491 
Q 2509 2491 2742 2702 
Q 2975 2913 2975 3322 
Q 2975 3731 2742 3939 
Q 2509 4147 2053 4147 
L 1259 4147 
z
" transform="scale(0.015625)"/>
      </defs>
      <use xlink:href="#DejaVuSans-46"/>
      <use xlink:href="#DejaVuSans-61" x="48.394531"/>
      <use xlink:href="#DejaVuSans-6c" x="109.673828"/>
      <use xlink:href="#DejaVuSans-73" x="137.457031"/>
      <use xlink:href="#DejaVuSans-65" x="189.556641"/>
      <use xlink:href="#DejaVuSans-20" x="251.080078"/>
      <use xlink:href="#DejaVuSans-50" x="282.867188"/>
      <use xlink:href="#DejaVuSans-6f" x="339.544922"/>
      <use xlink:href="#DejaVuSans-73" x="400.726562"/>
      <use xlink:href="#DejaVuSans-69" x="452.826172"/>
      <use xlink:href="#DejaVuSans-74" x="480.609375"/>
      <use xlink:href="#DejaVuSans-69" x="519.818359"/>
      <use xlink:href="#DejaVuSans-76" x="547.601562"/>
      <use xlink:href="#DejaVuSans-65" x="606.78125"/>
      <use xlink:href="#DejaVuSans-20" x="668.304688"/>
      <use xlink:href="#DejaVuSans-52" x="700.091797"/>
      <use xlink:href="#DejaVuSans-61" x="767.324219"/>
      <use xlink:href="#DejaVuSans-74" x="828.603516"/>
      <use xlink:href="#DejaVuSans-65" x="867.8125"/>
     </g>
    </g>
   </g>
   <g id="matplotlib.axis_2">
    <g id="ytick_1">
     <g id="line2d_7">
      <defs>
       <path id="m93555cd381" d="M 0 0 
L -3.5 0 
" style="stroke: #000000; stroke-width: 0.8"/>
      </defs>
      <g>
       <use xlink:href="#m93555cd381" x="57.6" y="307.584" style="stroke: #000000; stroke-width: 0.8"/>
      </g>
     </g>
     <g id="text_8">
      <!-- 0.0 -->
      <g transform="translate(34.696875 311.383219)scale(0.1 -0.1)">
       <use xlink:href="#DejaVuSans-30"/>
       <use xlink:href="#DejaVuSans-2e" x="63.623047"/>
       <use xlink:href="#DejaVuSans-30" x="95.410156"/>
      </g>
     </g>
    </g>
    <g id="ytick_2">
     <g id="line2d_8">
      <g>
       <use xlink:href="#m93555cd381" x="57.6" y="256.896" style="stroke: #000000; stroke-width: 0.8"/>
      </g>
     </g>
     <g id="text_9">
      <!-- 0.2 -->
      <g transform="translate(34.696875 260.695219)scale(0.1 -0.1)">
       <use xlink:href="#DejaVuSans-30"/>
       <use xlink:href="#DejaVuSans-2e" x="63.623047"/>
       <use xlink:href="#DejaVuSans-32" x="95.410156"/>
      </g>
     </g>
    </g>
    <g id="ytick_3">
     <g id="line2d_9">
      <g>
       <use xlink:href="#m93555cd381" x="57.6" y="206.208" style="stroke: #000000; stroke-width: 0.8"/>
      </g>
     </g>
     <g id="text_10">
      <!-- 0.4 -->
      <g transform="translate(34.696875 210.007219)scale(0.1 -0.1)">
       <use xlink:href="#DejaVuSans-30"/>
       <use xlink:href="#DejaVuSans-2e" x="63.623047"/>
       <use xlink:href="#DejaVuSans-34" x="95.410156"/>
      </g>
     </g>
    </g>
    <g id="ytick_4">
     <g id="line2d_10">
      <g>
       <use xlink:href="#m93555cd381" x="57.6" y="155.52" style="stroke: #000000; stroke-width: 0.8"/>
      </g>
     </g>
     <g id="text_11">
      <!-- 0.6 -->
      <g transform="translate(34.696875 159.319219)scale(0.1 -0.1)">
       <use xlink:href="#DejaVuSans-30"/>
       <use xlink:href="#DejaVuSans-2e" x="63.623047"/>
       <use xlink:href="#DejaVuSans-36" x="95.410156"/>
      </g>
     </g>
    </g>
    <g id="ytick_5">
     <g id="line2d_11">
      <g>
       <use xlink:href="#m93555cd381" x="57.6" y="104.832" style="stroke: #000000; stroke-width: 0.8"/>
      </g>
     </g>
     <g id="text_12">
      <!-- 0.8 -->
      <g transform="translate(34.696875 108.631219)scale(0.1 -0.1)">
       <use xlink:href="#DejaVuSans-30"/>
       <use xlink:href="#DejaVuSans-2e" x="63.623047"/>
       <use xlink:href="#DejaVuSans-38" x="95.410156"/>
      </g>
     </g>
    </g>
    <g id="ytick_6">
     <g id="line2d_12">
      <g>
       <use xlink:href="#m93555cd381" x="57.6" y="54.144" style="stroke: #000000; stroke-width: 0.8"/>
      </g>
     </g>
     <g id="text_13">
      <!-- 1.0 -->
      <g transform="translate(34.696875 57.943219)scale(0.1 -0.1)">
       <use xlink:href="#DejaVuSans-31"/>
       <use xlink:href="#DejaVuSans-2e" x="63.623047"/>
       <use xlink:href="#DejaVuSans-30" x="95.410156"/>
      </g>
     </g>
    </g>
    <g id="text_14">
     <!-- True Positive Rate -->
     <g transform="translate(28.617187 219.057687)rotate(-90)scale(0.1 -0.1)">
      <defs>
       <path id="DejaVuSans-54" d="M -19 4666 
L 3928 4666 
L 3928 4134 
L 2272 4134 
L 2272 0 
L 1638 0 
L 1638 4134 
L -19 4134 
L -19 4666 
z
" transform="scale(0.015625)"/>
       <path id="DejaVuSans-72" d="M 2631 2963 
Q 2534 3019 2420 3045 
Q 2306 3072 2169 3072 
Q 1681 3072 1420 2755 
Q 1159 2438 1159 1844 
L 1159 0 
L 581 0 
L 581 3500 
L 1159 3500 
L 1159 2956 
Q 1341 3275 1631 3429 
Q 1922 3584 2338 3584 
Q 2397 3584 2469 3576 
Q 2541 3569 2628 3553 
L 2631 2963 
z
" transform="scale(0.015625)"/>
       <path id="DejaVuSans-75" d="M 544 1381 
L 544 3500 
L 1119 3500 
L 1119 1403 
Q 1119 906 1312 657 
Q 1506 409 1894 409 
Q 2359 409 2629 706 
Q 2900 1003 2900 1516 
L 2900 3500 
L 3475 3500 
L 3475 0 
L 2900 0 
L 2900 538 
Q 2691 219 2414 64 
Q 2138 -91 1772 -91 
Q 1169 -91 856 284 
Q 544 659 544 1381 
z
M 1991 3584 
L 1991 3584 
z
" transform="scale(0.015625)"/>
      </defs>
      <use xlink:href="#DejaVuSans-54"/>
      <use xlink:href="#DejaVuSans-72" x="46.333984"/>
      <use xlink:href="#DejaVuSans-75" x="87.447266"/>
      <use xlink:href="#DejaVuSans-65" x="150.826172"/>
      <use xlink:href="#DejaVuSans-20" x="212.349609"/>
      <use xlink:href="#DejaVuSans-50" x="244.136719"/>
      <use xlink:href="#DejaVuSans-6f" x="300.814453"/>
      <use xlink:href="#DejaVuSans-73" x="361.996094"/>
      <use xlink:href="#DejaVuSans-69" x="414.095703"/>
      <use xlink:href="#DejaVuSans-74" x="441.878906"/>
      <use xlink:href="#DejaVuSans-69" x="481.087891"/>
      <use xlink:href="#DejaVuSans-76" x="508.871094"/>
      <use xlink:href="#DejaVuSans-65" x="568.050781"/>
      <use xlink:href="#DejaVuSans-20" x="629.574219"/>
      <use xlink:href="#DejaVuSans-52" x="661.361328"/>
      <use xlink:href="#DejaVuSans-61" x="728.59375"/>
      <use xlink:href="#DejaVuSans-74" x="789.873047"/>
      <use xlink:href="#DejaVuSans-65" x="829.082031"/>
     </g>
    </g>
   </g>
   <g id="line2d_13">
    <path d="M 74.605714 307.584 
L 75.218177 307.474303 
L 75.326827 307.455675 
L 75.329191 307.455675 
L 75.78888 307.345978 
L 75.889236 307.308722 
L 75.899313 307.308722 
L 76.297212 307.199025 
L 76.401591 307.147281 
L 76.408309 307.147281 
L 76.823667 307.036549 
L 76.932711 306.996188 
L 76.934681 306.996188 
L 77.22194 306.886491 
L 77.22194 306.885456 
L 77.326692 306.849235 
L 77.333037 306.849235 
L 77.648412 306.739538 
L 77.757228 306.702282 
L 77.759426 306.702282 
L 78.043658 306.59155 
L 78.150524 306.54912 
L 78.154713 306.54912 
L 78.428494 306.439423 
L 78.530634 306.404237 
L 78.539591 306.404237 
L 78.859694 306.29454 
L 78.956027 306.236586 
L 78.970749 306.236586 
L 79.308435 306.126889 
L 79.420651 306.071006 
L 79.614355 305.960274 
L 79.71637 305.921983 
L 79.72541 305.921983 
L 79.940637 305.812286 
L 80.053019 305.770891 
L 80.318465 305.660158 
L 80.42782 305.613589 
L 80.429438 305.613589 
L 80.751282 305.503892 
L 80.860305 305.468706 
L 80.862337 305.468706 
L 81.123678 305.359008 
L 81.230462 305.305195 
L 81.234775 305.305195 
L 81.517223 305.195497 
L 81.517223 305.194462 
L 81.630435 305.143753 
L 81.902226 305.033021 
L 82.015354 304.982312 
L 82.289302 304.872615 
L 82.39339 304.806383 
L 82.400398 304.806383 
L 82.592941 304.69565 
L 82.705821 304.649081 
L 82.927144 304.539384 
L 83.030195 304.495919 
L 83.03824 304.495919 
L 83.226076 304.386221 
L 83.338002 304.301361 
L 83.525092 304.191664 
L 83.636064 304.131641 
L 83.636189 304.131641 
L 83.834786 304.021944 
L 83.946753 303.978479 
L 84.156755 303.868781 
L 84.265114 303.79634 
L 84.267851 303.79634 
L 84.452577 303.685608 
L 84.5678 303.62041 
L 84.767932 303.509678 
L 84.875213 303.434132 
L 84.878966 303.434132 
L 85.120505 303.3234 
L 85.223163 303.272691 
L 85.231519 303.272691 
L 85.446663 303.162993 
L 85.557759 303.092622 
L 85.706427 302.982924 
L 85.815699 302.927041 
L 85.817524 302.927041 
L 86.045399 302.817344 
L 86.045399 302.816309 
L 86.157988 302.742832 
L 86.368031 302.633135 
L 86.473986 302.575182 
L 86.479128 302.575182 
L 86.670053 302.465484 
L 86.778911 302.397182 
L 86.781067 302.397182 
L 87.083504 302.287485 
L 87.195907 302.223322 
L 87.416835 302.11259 
L 87.522831 302.049463 
L 87.527891 302.049463 
L 87.730262 301.938731 
L 87.838891 301.869394 
L 87.841338 301.869394 
L 88.031662 301.759696 
L 88.145143 301.701743 
L 88.329827 301.592046 
L 88.329827 301.591011 
L 88.441919 301.536162 
L 88.683894 301.42543 
L 88.79499 301.378861 
L 88.97391 301.269163 
L 89.081254 301.225698 
L 89.084945 301.225698 
L 89.293868 301.116001 
L 89.402186 301.066327 
L 89.404965 301.066327 
L 89.583449 300.95663 
L 89.695583 300.896607 
L 89.906206 300.786909 
L 90.016017 300.735165 
L 90.017303 300.735165 
L 90.232239 300.625468 
L 90.341345 300.548887 
L 90.343253 300.548887 
L 90.511868 300.438155 
L 90.62228 300.372957 
L 90.622964 300.372957 
L 90.79979 300.26326 
L 90.79979 300.262225 
L 90.913831 300.190819 
L 91.137352 300.081121 
L 91.231239 300.039726 
L 91.248283 300.039726 
L 91.467697 299.930029 
L 91.575373 299.863796 
L 91.578753 299.863796 
L 91.756615 299.754099 
L 91.756615 299.753064 
L 91.870325 299.689937 
L 92.057932 299.580239 
L 92.165007 299.511937 
L 92.168988 299.511937 
L 92.32765 299.40224 
L 92.437627 299.309101 
L 92.438622 299.309101 
L 92.625774 299.199404 
L 92.735958 299.133171 
L 92.736788 299.133171 
L 92.893915 299.022439 
L 93.000492 298.946893 
L 93.005012 298.946893 
L 93.195191 298.836161 
L 93.301021 298.773033 
L 93.306122 298.773033 
L 93.516662 298.663336 
L 93.629916 298.607452 
L 93.805539 298.497755 
L 93.914728 298.427383 
L 93.916552 298.427383 
L 94.120458 298.317686 
L 94.22662 298.261803 
L 94.231555 298.261803 
L 94.41626 298.152105 
L 94.523665 298.102431 
L 94.527356 298.102431 
L 94.676874 297.992734 
L 94.791144 297.94306 
L 94.948893 297.833362 
L 95.058912 297.736084 
L 95.059907 297.736084 
L 95.220394 297.626386 
L 95.220394 297.625351 
L 95.33485 297.543596 
L 95.51491 297.432864 
L 95.628702 297.365597 
L 95.800013 297.255899 
L 95.912519 297.185527 
L 96.106223 297.07583 
L 96.218792 297.001319 
L 96.427446 296.891622 
L 96.529834 296.831599 
L 96.538543 296.831599 
L 96.722335 296.721901 
L 96.722335 296.720866 
L 96.83393 296.64739 
L 97.006194 296.537693 
L 97.119094 296.448693 
L 97.296853 296.338996 
L 97.399822 296.270694 
L 97.407929 296.270694 
L 97.61057 296.160996 
L 97.721293 296.094764 
L 97.721625 296.094764 
L 97.947634 295.985067 
L 98.062794 295.906416 
L 98.242792 295.795684 
L 98.358015 295.730486 
L 98.505771 295.620789 
L 98.616038 295.544208 
L 98.616868 295.544208 
L 98.785047 295.433476 
L 98.897367 295.368279 
L 99.089744 295.258581 
L 99.192713 295.192349 
L 99.200799 295.192349 
L 99.36759 295.082652 
L 99.480967 295.004001 
L 99.697935 294.893269 
L 99.816766 294.801164 
L 100.01499 294.691467 
L 100.12843 294.614886 
L 100.285599 294.505189 
L 100.395784 294.443096 
L 100.396696 294.443096 
L 100.585672 294.333399 
L 100.682421 294.273376 
L 100.696769 294.273376 
L 100.837371 294.163678 
L 100.949194 294.085028 
L 101.142275 293.97533 
L 101.254036 293.907028 
L 101.406851 293.797331 
L 101.521058 293.72075 
L 101.697759 293.611053 
L 101.811634 293.542751 
L 101.950184 293.433053 
L 102.060389 293.366821 
L 102.061218 293.366821 
L 102.225251 293.257124 
L 102.33473 293.178473 
L 102.336264 293.178473 
L 102.502972 293.067741 
L 102.610336 292.998404 
L 102.613985 292.998404 
L 102.76398 292.888706 
L 102.870495 292.793498 
L 102.875036 292.793498 
L 103.023082 292.6838 
L 103.130736 292.611359 
L 103.134137 292.611359 
L 103.313783 292.501661 
L 103.418203 292.410592 
L 103.424838 292.410592 
L 103.605562 292.300895 
L 103.605562 292.29986 
L 103.72433 292.207756 
L 103.881044 292.098058 
L 103.993965 292.006989 
L 104.163658 291.897292 
L 104.277139 291.839338 
L 104.462321 291.729641 
L 104.576072 291.665478 
L 104.720344 291.555781 
L 104.832187 291.470921 
L 105.037544 291.361224 
L 105.150134 291.282573 
L 105.282131 291.172876 
L 105.282131 291.171841 
L 105.396981 291.079737 
L 105.513365 290.970039 
L 105.623217 290.88104 
L 105.624441 290.88104 
L 105.832348 290.771342 
L 105.932248 290.694761 
L 105.943445 290.694761 
L 106.122551 290.584029 
L 106.23286 290.514692 
L 106.233648 290.514692 
L 106.389449 290.404995 
L 106.498472 290.336693 
L 106.500379 290.336693 
L 106.670446 290.226996 
L 106.77611 290.146275 
L 106.781542 290.146275 
L 106.941532 290.036578 
L 107.05437 289.945508 
L 107.195408 289.835811 
L 107.306463 289.746811 
L 107.492454 289.636079 
L 107.597662 289.548114 
L 107.60355 289.548114 
L 107.777204 289.438417 
L 107.890395 289.370115 
L 108.006634 289.260418 
L 108.120882 289.181767 
L 108.242636 289.07207 
L 108.347284 288.995489 
L 108.353609 288.995489 
L 108.486808 288.884756 
L 108.601347 288.800931 
L 108.781822 288.691234 
L 108.781822 288.690199 
L 108.907143 288.577397 
L 109.019816 288.4677 
L 109.12973 288.395258 
L 109.130871 288.395258 
L 109.297682 288.285561 
L 109.41137 288.200701 
L 109.548344 288.089969 
L 109.658445 288.016492 
L 109.659441 288.016492 
L 109.791645 287.906795 
L 109.901913 287.826074 
L 109.902535 287.826074 
L 110.056345 287.716377 
L 110.171049 287.627377 
L 110.288035 287.51768 
L 110.288035 287.516645 
L 110.40162 287.455587 
L 110.56165 287.34589 
L 110.666402 287.283797 
L 110.672747 287.283797 
L 110.816688 287.1741 
L 110.924011 287.083031 
L 110.927784 287.083031 
L 111.061627 286.973333 
L 111.173449 286.898822 
L 111.379242 286.789125 
L 111.497761 286.669079 
L 111.656154 286.559381 
L 111.762482 286.460033 
L 111.767126 286.460033 
L 111.918324 286.350336 
L 112.033692 286.282034 
L 112.180452 286.171301 
L 112.297479 286.075058 
L 112.399702 285.96536 
L 112.509202 285.899128 
L 112.510715 285.899128 
L 112.690485 285.789431 
L 112.796647 285.700431 
L 112.801582 285.700431 
L 112.991181 285.590734 
L 113.105222 285.516223 
L 113.241241 285.406525 
L 113.354121 285.317526 
L 113.496673 285.207828 
L 113.608537 285.120898 
L 113.723324 285.011201 
L 113.834006 284.899434 
L 113.834379 284.899434 
L 114.002932 284.789737 
L 114.117242 284.684179 
L 114.246959 284.574482 
L 114.360295 284.462715 
L 114.480266 284.353018 
L 114.480266 284.351983 
L 114.594266 284.280576 
L 114.769848 284.170879 
L 114.884117 284.092228 
L 115.034423 283.982531 
L 115.147261 283.893531 
L 115.27648 283.783834 
L 115.389256 283.698974 
L 115.572385 283.589276 
L 115.684457 283.481649 
L 115.843699 283.371952 
L 115.952184 283.262254 
L 115.954775 283.262254 
L 116.143461 283.152557 
L 116.257046 283.071836 
L 116.420001 282.962139 
L 116.535369 282.877279 
L 116.674084 282.766547 
L 116.785015 282.672373 
L 116.785181 282.672373 
L 116.896319 282.562676 
L 117.007042 282.486094 
L 117.007333 282.486094 
L 117.145364 282.375362 
L 117.26295 282.270839 
L 117.399758 282.161142 
L 117.508076 282.051445 
L 117.510813 282.051445 
L 117.635097 281.941748 
L 117.744369 281.867236 
L 117.746173 281.867236 
L 117.874625 281.757539 
L 117.986551 281.674749 
L 118.103578 281.565051 
L 118.21426 281.461563 
L 118.214675 281.461563 
L 118.365603 281.351866 
L 118.477757 281.246308 
L 118.631443 281.136611 
L 118.742063 281.031053 
L 118.742498 281.031053 
L 118.849738 280.921356 
L 118.963447 280.836496 
L 119.102868 280.726799 
L 119.212264 280.652287 
L 119.213882 280.652287 
L 119.339513 280.54259 
L 119.451502 280.45359 
L 119.616052 280.343893 
L 119.731545 280.230056 
L 119.856907 280.120359 
L 119.964852 280.033429 
L 119.968004 280.033429 
L 120.1248 279.923732 
L 120.234984 279.836802 
L 120.235772 279.836802 
L 120.371419 279.727105 
L 120.480069 279.615338 
L 120.482515 279.615338 
L 120.624092 279.505641 
L 120.736101 279.412501 
L 120.907515 279.302804 
L 121.019462 279.207595 
L 121.154404 279.097898 
L 121.270809 278.99441 
L 121.364861 278.884713 
L 121.472869 278.791573 
L 121.475875 278.791573 
L 121.592114 278.681876 
L 121.709514 278.580458 
L 121.833383 278.470761 
L 121.948751 278.365203 
L 122.062834 278.254471 
L 122.171567 278.158227 
L 122.173848 278.158227 
L 122.314346 278.047495 
L 122.422125 277.9616 
L 122.42536 277.9616 
L 122.551178 277.850868 
L 122.656594 277.773252 
L 122.662275 277.773252 
L 122.801198 277.66252 
L 122.914202 277.564206 
L 123.042135 277.454509 
L 123.042135 277.453474 
L 123.158582 277.367579 
L 123.285167 277.257882 
L 123.399561 277.150254 
L 123.538442 277.040557 
L 123.650244 276.963976 
L 123.779172 276.854278 
L 123.888361 276.775628 
L 123.890248 276.775628 
L 124.000578 276.66593 
L 124.118351 276.535535 
L 124.269839 276.425838 
L 124.269839 276.424803 
L 124.385788 276.305792 
L 124.495018 276.196095 
L 124.603399 276.090537 
L 124.606073 276.090537 
L 124.730731 275.98084 
L 124.843735 275.883561 
L 124.973203 275.773864 
L 125.085958 275.689004 
L 125.176113 275.578272 
L 125.292891 275.486167 
L 125.407139 275.37647 
L 125.52429 275.279191 
L 125.662716 275.169494 
L 125.775886 275.063936 
L 125.924388 274.954239 
L 126.034137 274.848681 
L 126.035485 274.848681 
L 126.168062 274.738984 
L 126.284053 274.618938 
L 126.395502 274.509241 
L 126.512135 274.401613 
L 126.607286 274.291916 
L 126.719399 274.186358 
L 126.864376 274.076661 
L 126.976385 273.983522 
L 127.095776 273.873824 
L 127.208531 273.786895 
L 127.320914 273.677197 
L 127.431471 273.561291 
L 127.43201 273.561291 
L 127.567533 273.451594 
L 127.681408 273.360524 
L 127.816142 273.250827 
L 127.931303 273.151478 
L 128.068484 273.041781 
L 128.180493 272.948642 
L 128.288645 272.838945 
L 128.288645 272.83791 
L 128.403267 272.752015 
L 128.530246 272.644387 
L 128.530246 272.643352 
L 128.639788 272.542969 
L 128.641343 272.542969 
L 128.76036 272.433272 
L 128.76036 272.432237 
L 128.875355 272.333923 
L 129.009924 272.224226 
L 129.120357 272.110389 
L 129.121 272.110389 
L 129.268237 272.000692 
L 129.382029 271.866158 
L 129.531817 271.755425 
L 129.646729 271.661251 
L 129.796143 271.551554 
L 129.90612 271.462555 
L 129.90724 271.462555 
L 130.042741 271.352857 
L 130.157425 271.232811 
L 130.277811 271.122079 
L 130.38812 271.027905 
L 130.388866 271.027905 
L 130.5089 270.918208 
L 130.625533 270.81058 
L 130.72338 270.700883 
L 130.839308 270.580837 
L 130.956521 270.47114 
L 131.076907 270.359373 
L 131.213881 270.24864 
L 131.325579 270.158606 
L 131.445654 270.048909 
L 131.561644 269.9537 
L 131.715889 269.844002 
L 131.828935 269.746724 
L 131.92813 269.637026 
L 132.034893 269.52112 
L 132.039227 269.52112 
L 132.173712 269.411423 
L 132.284726 269.274819 
L 132.284809 269.274819 
L 132.385704 269.164086 
L 132.494686 269.055424 
L 132.496759 269.055424 
L 132.638253 268.945727 
L 132.746945 268.844309 
L 132.74935 268.844309 
L 132.874795 268.734611 
L 132.986514 268.66217 
L 133.107729 268.551438 
L 133.223097 268.444845 
L 133.332618 268.334113 
L 133.454082 268.208892 
L 133.561156 268.099195 
L 133.671382 268.012265 
L 133.67217 268.012265 
L 133.784055 267.902568 
L 133.899962 267.784592 
L 134.004009 267.674894 
L 134.112907 267.534151 
L 134.115064 267.534151 
L 134.218468 267.424453 
L 134.330705 267.304407 
L 134.445327 267.19471 
L 134.556382 267.085013 
L 134.679837 266.975316 
L 134.792634 266.884246 
L 134.930623 266.774549 
L 135.042902 266.648294 
L 135.147571 266.538596 
L 135.256594 266.42062 
L 135.258667 266.42062 
L 135.374367 266.309888 
L 135.490046 266.195016 
L 135.615305 266.085319 
L 135.728558 265.975622 
L 135.848695 265.86489 
L 135.967629 265.770715 
L 136.10114 265.661018 
L 136.2157 265.547181 
L 136.333058 265.436449 
L 136.438515 265.329857 
L 136.443989 265.329857 
L 136.54447 265.220159 
L 136.655027 265.114602 
L 136.655483 265.114602 
L 136.763553 265.004904 
L 136.877926 264.924184 
L 137.012743 264.813452 
L 137.122388 264.69651 
L 137.123798 264.69651 
L 137.242318 264.586813 
L 137.355488 264.475046 
L 137.47069 264.365349 
L 137.584482 264.228745 
L 137.709181 264.119047 
L 137.821729 264.046606 
L 137.911428 263.935874 
L 138.032892 263.810653 
L 138.153858 263.700956 
L 138.266904 263.591259 
L 138.370578 263.481561 
L 138.48551 263.355306 
L 138.60799 263.245609 
L 138.720124 263.129702 
L 138.86112 263.020005 
L 138.971512 262.914447 
L 138.972217 262.914447 
L 139.086527 262.80475 
L 139.204321 262.672285 
L 139.306336 262.561553 
L 139.4165 262.46324 
L 139.417391 262.46324 
L 139.538939 262.352507 
L 139.64396 262.245915 
L 139.649994 262.245915 
L 139.740294 262.135183 
L 139.860244 261.991334 
L 139.994107 261.881637 
L 140.107278 261.77401 
L 140.210993 261.664312 
L 140.327356 261.533917 
L 140.446373 261.423185 
L 140.567008 261.308314 
L 140.681256 261.198616 
L 140.794261 261.103407 
L 140.907763 260.99371 
L 141.023981 260.867455 
L 141.121911 260.756723 
L 141.245283 260.639781 
L 141.367161 260.530084 
L 141.48058 260.412108 
L 141.588816 260.30241 
L 141.588816 260.301376 
L 141.704101 260.198922 
L 141.843729 260.089225 
L 141.957065 259.977458 
L 142.069157 259.867761 
L 142.182534 259.751854 
L 142.273477 259.642157 
L 142.387144 259.511762 
L 142.495152 259.402065 
L 142.612987 259.2696 
L 142.709155 259.159903 
L 142.824025 259.066764 
L 142.934707 258.957067 
L 143.045141 258.847369 
L 143.045804 258.847369 
L 143.156113 258.737672 
L 143.269407 258.625905 
L 143.377933 258.516208 
L 143.488988 258.40858 
L 143.600313 258.298883 
L 143.714831 258.185046 
L 143.798226 258.075349 
L 143.911624 257.957373 
L 144.041279 257.847675 
L 144.160296 257.71935 
L 144.262974 257.609653 
L 144.262974 257.608618 
L 144.378591 257.495816 
L 144.480274 257.385084 
L 144.59133 257.29298 
L 144.707465 257.182248 
L 144.820905 257.065306 
L 144.956012 256.955609 
L 145.071753 256.841772 
L 145.195187 256.732075 
L 145.311571 256.628587 
L 145.422129 256.51889 
L 145.538492 256.413332 
L 145.614547 256.303635 
L 145.73145 256.189798 
L 145.829691 256.080101 
L 145.829691 256.079066 
L 145.95808 255.941427 
L 146.056404 255.833799 
L 146.056404 255.83173 
L 146.165594 255.699265 
L 146.167439 255.699265 
L 146.285979 255.589568 
L 146.399896 255.496429 
L 146.491958 255.386731 
L 146.611929 255.241848 
L 146.698103 255.132151 
L 146.813098 255.001756 
L 146.928798 254.892059 
L 147.045493 254.753385 
L 147.13204 254.643688 
L 147.240855 254.5402 
L 147.243012 254.5402 
L 147.35019 254.430502 
L 147.462302 254.316666 
L 147.548932 254.205933 
L 147.653953 254.099341 
L 147.660029 254.099341 
L 147.757897 253.989643 
L 147.871565 253.861318 
L 147.98461 253.751621 
L 148.098361 253.617087 
L 148.225797 253.507389 
L 148.225797 253.506355 
L 148.351242 253.368716 
L 148.441148 253.259018 
L 148.54959 253.118275 
L 148.552244 253.118275 
L 148.664855 253.008577 
L 148.77958 252.886462 
L 148.882839 252.776764 
L 148.998746 252.656718 
L 149.110133 252.547021 
L 149.22094 252.426975 
L 149.221188 252.426975 
L 149.330336 252.317278 
L 149.443548 252.20965 
L 149.56665 252.099953 
L 149.680338 251.971628 
L 149.803544 251.824675 
L 149.900417 251.714978 
L 150.011472 251.594932 
L 150.131692 251.485234 
L 150.131692 251.484199 
L 150.245111 251.369328 
L 150.350941 251.259631 
L 150.464277 251.143724 
L 150.56144 251.034027 
L 150.672267 250.926399 
L 150.672516 250.926399 
L 150.784753 250.816702 
L 150.895643 250.704935 
L 150.895808 250.704935 
L 151.025691 250.595238 
L 151.141639 250.475192 
L 151.231504 250.365494 
L 151.341605 250.255797 
L 151.342517 250.255797 
L 151.453614 250.1461 
L 151.565831 250.017775 
L 151.680618 249.907043 
L 151.78678 249.779752 
L 151.791694 249.779752 
L 151.875898 249.670055 
L 151.992386 249.533451 
L 152.097179 249.423754 
L 152.208234 249.28094 
L 152.299965 249.171243 
L 152.418318 249.02429 
L 152.513947 248.914593 
L 152.627532 248.790407 
L 152.747379 248.68071 
L 152.863535 248.556524 
L 152.975336 248.446827 
L 153.089211 248.308153 
L 153.196203 248.198456 
L 153.196203 248.197421 
L 153.317584 248.072201 
L 153.420718 247.962503 
L 153.531815 247.823829 
L 153.663107 247.714132 
L 153.773002 247.583737 
L 153.774204 247.583737 
L 153.844225 247.47404 
L 153.959614 247.333296 
L 154.065569 247.223599 
L 154.181476 247.103553 
L 154.280795 246.993856 
L 154.390689 246.886228 
L 154.391767 246.886228 
L 154.481093 246.776531 
L 154.600442 246.641997 
L 154.689601 246.532299 
L 154.800573 246.393626 
L 154.800677 246.393626 
L 154.906569 246.283928 
L 155.020154 246.155603 
L 155.108692 246.045906 
L 155.227087 245.92793 
L 155.317739 245.818232 
L 155.436632 245.691977 
L 155.526953 245.58435 
L 155.640309 245.472583 
L 155.753542 245.362885 
L 155.869283 245.244909 
L 155.964165 245.135212 
L 156.077543 245.017235 
L 156.162887 244.907538 
L 156.279789 244.760585 
L 156.384749 244.650888 
L 156.498333 244.526702 
L 156.590022 244.417005 
L 156.706344 244.28868 
L 156.838093 244.178983 
L 156.951927 244.042379 
L 157.072437 243.932681 
L 157.185814 243.812635 
L 157.272859 243.702938 
L 157.386983 243.549776 
L 157.487712 243.442148 
L 157.598145 243.332451 
L 157.598809 243.332451 
L 157.694645 243.222754 
L 157.804891 243.067522 
L 157.8057 243.067522 
L 157.901702 242.957825 
L 158.008403 242.831569 
L 158.012715 242.831569 
L 158.10822 242.722907 
L 158.218736 242.603896 
L 158.219275 242.603896 
L 158.307646 242.494198 
L 158.416172 242.365873 
L 158.418743 242.365873 
L 158.523288 242.256176 
L 158.639775 242.121642 
L 158.74461 242.011944 
L 158.854649 241.869131 
L 158.855707 241.869131 
L 158.945986 241.759434 
L 159.063137 241.610411 
L 159.167682 241.500714 
L 159.285538 241.366179 
L 159.387428 241.256482 
L 159.497239 241.130227 
L 159.498504 241.130227 
L 159.596082 241.020529 
L 159.713752 240.890135 
L 159.80768 240.780437 
L 159.921721 240.627275 
L 160.034953 240.517578 
L 160.153038 240.380974 
L 160.259573 240.271276 
L 160.369301 240.116045 
L 160.370586 240.116045 
L 160.474467 240.006347 
L 160.588177 239.873883 
L 160.719262 239.764185 
L 160.831851 239.615163 
L 160.93397 239.505465 
L 161.052013 239.368861 
L 161.155935 239.259164 
L 161.265581 239.126699 
L 161.267011 239.126699 
L 161.3841 239.017002 
L 161.491672 238.867979 
L 161.495156 238.867979 
L 161.592816 238.758282 
L 161.706484 238.619608 
L 161.797344 238.509911 
L 161.910804 238.385725 
L 162.036581 238.276028 
L 162.152322 238.162191 
L 162.235095 238.052494 
L 162.34897 237.91175 
L 162.429006 237.802053 
L 162.544706 237.688216 
L 162.676662 237.578519 
L 162.792072 237.464682 
L 162.88853 237.354985 
L 162.995231 237.243218 
L 162.999585 237.243218 
L 163.096706 237.133521 
L 163.205854 236.982428 
L 163.207803 236.982428 
L 163.30451 236.872731 
L 163.420583 236.750615 
L 163.497841 236.640918 
L 163.611384 236.512593 
L 163.722481 236.402896 
L 163.838885 236.270431 
L 163.917636 236.160734 
L 164.028235 236.028269 
L 164.028629 236.028269 
L 164.107981 235.918572 
L 164.222188 235.76334 
L 164.321714 235.653643 
L 164.437995 235.521178 
L 164.509281 235.411481 
L 164.625603 235.283156 
L 164.728281 235.172424 
L 164.844686 235.040994 
L 164.929989 234.931297 
L 165.041085 234.807111 
L 165.136838 234.697414 
L 165.247023 234.562879 
L 165.247914 234.562879 
L 165.363676 234.452147 
L 165.480786 234.304159 
L 165.582842 234.194462 
L 165.69875 234.076486 
L 165.796659 233.965754 
L 165.913167 233.832254 
L 166.021838 233.722557 
L 166.140337 233.575604 
L 166.225495 233.464872 
L 166.341941 233.333442 
L 166.448061 233.223745 
L 166.564466 233.09128 
L 166.654787 232.981583 
L 166.768289 232.853258 
L 166.854545 232.742526 
L 166.964564 232.635933 
L 166.965642 232.635933 
L 167.056667 232.526236 
L 167.170377 232.395841 
L 167.250682 232.285109 
L 167.369389 232.159888 
L 167.449051 232.050191 
L 167.562802 231.917727 
L 167.66743 231.808029 
L 167.777448 231.692123 
L 167.778485 231.692123 
L 167.872703 231.582425 
L 167.988777 231.46031 
L 168.082995 231.349578 
L 168.19347 231.220218 
L 168.19405 231.220218 
L 168.304442 231.11052 
L 168.417405 231.015311 
L 168.510172 230.904579 
L 168.618822 230.795917 
L 168.621103 230.795917 
L 168.719634 230.68622 
L 168.830275 230.59308 
L 168.83069 230.59308 
L 168.934571 230.483383 
L 169.054003 230.346779 
L 169.133666 230.237082 
L 169.24725 230.112896 
L 169.351007 230.003199 
L 169.46426 229.895571 
L 169.563372 229.785874 
L 169.677206 229.64927 
L 169.769973 229.541642 
L 169.875699 229.421596 
L 169.880904 229.421596 
L 169.985946 229.311899 
L 170.10316 229.160807 
L 170.209176 229.051109 
L 170.319444 228.935203 
L 170.32019 228.935203 
L 170.402548 228.825506 
L 170.519347 228.682692 
L 170.612425 228.572995 
L 170.728955 228.438461 
L 170.816538 228.328763 
L 170.930164 228.198368 
L 171.023222 228.088671 
L 171.136434 227.978974 
L 171.238511 227.869277 
L 171.355848 227.747161 
L 171.438953 227.637464 
L 171.560023 227.517418 
L 171.661188 227.40772 
L 171.774752 227.285604 
L 171.879566 227.175907 
L 171.993898 227.012396 
L 172.096701 226.902699 
L 172.210742 226.755746 
L 172.310227 226.646049 
L 172.419665 226.507375 
L 172.421241 226.507375 
L 172.518113 226.397678 
L 172.633025 226.269352 
L 172.726622 226.159655 
L 172.844893 226.043749 
L 172.953501 225.934051 
L 173.063976 225.77468 
L 173.064473 225.77468 
L 173.151767 225.664983 
L 173.268462 225.526309 
L 173.368942 225.416611 
L 173.486259 225.263449 
L 173.580271 225.153752 
L 173.693814 225.027497 
L 173.783554 224.917799 
L 173.897844 224.758428 
L 174.00158 224.648731 
L 174.113278 224.526615 
L 174.21098 224.416918 
L 174.327011 224.294802 
L 174.418659 224.185104 
L 174.532451 224.05057 
L 174.637535 223.940873 
L 174.753027 223.79599 
L 174.865244 223.686292 
L 174.981462 223.560037 
L 175.086732 223.45241 
L 175.197829 223.311666 
L 175.294701 223.201969 
L 175.416642 223.069504 
L 175.524816 222.959807 
L 175.634585 222.8439 
L 175.635891 222.8439 
L 175.740498 222.734203 
L 175.854042 222.610017 
L 175.954647 222.50032 
L 176.069185 222.386483 
L 176.158386 222.276786 
L 176.271929 222.15467 
L 176.363121 222.044973 
L 176.473948 221.918718 
L 176.474176 221.918718 
L 176.578762 221.80902 
L 176.687868 221.647579 
L 176.689859 221.647579 
L 176.784492 221.537882 
L 176.890654 221.411627 
L 176.895589 221.411627 
L 177.024476 221.301929 
L 177.137107 221.146697 
L 177.220378 221.037 
L 177.333755 220.923163 
L 177.432287 220.813466 
L 177.55317 220.654094 
L 177.644444 220.544397 
L 177.75438 220.43677 
L 177.755541 220.43677 
L 177.859588 220.327072 
L 177.969565 220.217375 
L 177.970643 220.217375 
L 178.083316 220.107678 
L 178.19717 219.969004 
L 178.285853 219.859307 
L 178.396452 219.728912 
L 178.396908 219.728912 
L 178.477193 219.619215 
L 178.597454 219.470192 
L 178.686199 219.360495 
L 178.805341 219.2301 
L 178.876378 219.120403 
L 178.996971 218.965171 
L 179.093802 218.855473 
L 179.206703 218.764404 
L 179.289331 218.654707 
L 179.392382 218.520172 
L 179.400345 218.520172 
L 179.480961 218.410475 
L 179.597822 218.267662 
L 179.679393 218.157964 
L 179.78854 218.031709 
L 179.790323 218.031709 
L 179.903577 217.922012 
L 180.017452 217.781268 
L 180.107254 217.671571 
L 180.222352 217.539106 
L 180.342593 217.429409 
L 180.454416 217.286596 
L 180.568 217.16241 
L 180.66591 217.052713 
L 180.779744 216.916109 
L 180.884039 216.806411 
L 180.997707 216.676016 
L 181.077038 216.566319 
L 181.196678 216.427645 
L 181.290772 216.317948 
L 181.408276 216.158577 
L 181.489908 216.048879 
L 181.603866 215.903996 
L 181.701071 215.794299 
L 181.831741 215.620439 
L 181.915758 215.510742 
L 182.029509 215.376207 
L 182.129409 215.26858 
L 182.240506 215.140255 
L 182.339825 215.030558 
L 182.453327 214.910511 
L 182.534814 214.800814 
L 182.648316 214.676629 
L 182.743903 214.566931 
L 182.8533 214.413769 
L 182.854979 214.413769 
L 182.948058 214.304072 
L 183.061933 214.165398 
L 183.171868 214.055701 
L 183.282094 213.902538 
L 183.282924 213.902538 
L 183.383819 213.792841 
L 183.383819 213.791806 
L 183.510508 213.641749 
L 183.617375 213.533086 
L 183.731996 213.397517 
L 183.815931 213.28782 
L 183.92512 213.157425 
L 183.926903 213.157425 
L 184.03012 213.047728 
L 184.143332 212.935961 
L 184.255507 212.826263 
L 184.363576 212.673101 
L 184.366583 212.673101 
L 184.471812 212.563404 
L 184.590373 212.439218 
L 184.718348 212.329521 
L 184.83243 212.176359 
L 184.926981 212.066662 
L 185.039404 211.934197 
L 185.142663 211.8245 
L 185.253221 211.700314 
L 185.25376 211.700314 
L 185.352043 211.590617 
L 185.466332 211.429176 
L 185.560385 211.319478 
L 185.677536 211.168386 
L 185.78204 211.058689 
L 185.895832 210.920015 
L 185.968445 210.810318 
L 186.097519 210.636458 
L 186.198061 210.52676 
L 186.311356 210.412924 
L 186.422328 210.302192 
L 186.560878 210.139715 
L 186.643402 210.028983 
L 186.761341 209.858228 
L 186.880566 209.748531 
L 186.991579 209.632624 
L 186.991662 209.632624 
L 187.100955 209.522927 
L 187.230734 209.386323 
L 187.325761 209.276626 
L 187.442062 209.104836 
L 187.518449 208.995138 
L 187.637093 208.873023 
L 187.734795 208.763325 
L 187.856674 208.63293 
L 187.957445 208.523233 
L 188.071279 208.386629 
L 188.165124 208.276932 
L 188.274189 208.125839 
L 188.276013 208.125839 
L 188.375291 208.016142 
L 188.49041 207.883677 
L 188.58409 207.77605 
L 188.698546 207.60633 
L 188.803961 207.496632 
L 188.923683 207.355889 
L 189.028021 207.246191 
L 189.137998 207.090959 
L 189.139117 207.090959 
L 189.226079 206.983332 
L 189.336802 206.8281 
L 189.337176 206.8281 
L 189.462662 206.718403 
L 189.576164 206.594217 
L 189.672871 206.48452 
L 189.786497 206.354125 
L 189.869436 206.244428 
L 189.996436 206.091266 
L 190.08628 205.981568 
L 190.191488 205.840825 
L 190.197211 205.840825 
L 190.317514 205.731127 
L 190.440927 205.613151 
L 190.532367 205.503454 
L 190.641432 205.389617 
L 190.643381 205.389617 
L 190.749086 205.27992 
L 190.85811 205.174362 
L 190.860038 205.174362 
L 190.964437 205.064665 
L 191.072631 204.921851 
L 191.075534 204.921851 
L 191.206744 204.812154 
L 191.325097 204.669341 
L 191.395969 204.559643 
L 191.506195 204.396132 
L 191.507065 204.396132 
L 191.608997 204.286435 
L 191.718269 204.153971 
L 191.720011 204.153971 
L 191.814271 204.044273 
L 191.931049 203.90353 
L 192.005114 203.793832 
L 192.12156 203.661368 
L 192.225026 203.55167 
L 192.338362 203.437834 
L 192.4444 203.328136 
L 192.558441 203.181183 
L 192.652328 203.071486 
L 192.763093 202.918324 
L 192.763424 202.918324 
L 192.85503 202.808627 
L 192.963846 202.678232 
L 192.96592 202.678232 
L 193.067852 202.568535 
L 193.183925 202.444349 
L 193.287205 202.334652 
L 193.400312 202.195978 
L 193.490011 202.086281 
L 193.609111 201.955886 
L 193.713946 201.846189 
L 193.828858 201.719933 
L 193.935517 201.610236 
L 194.044665 201.481911 
L 194.046614 201.481911 
L 194.128226 201.372214 
L 194.24206 201.235609 
L 194.352742 201.125912 
L 194.462719 201.014145 
L 194.463797 201.014145 
L 194.580824 200.904448 
L 194.697851 200.757495 
L 194.803764 200.647798 
L 194.931656 200.465659 
L 195.023967 200.355962 
L 195.139915 200.235915 
L 195.231521 200.126218 
L 195.341374 200.006172 
L 195.342618 200.006172 
L 195.440735 199.896475 
L 195.559006 199.778499 
L 195.670558 199.670871 
L 195.784517 199.528058 
L 195.907474 199.41836 
L 196.020519 199.319012 
L 196.106983 199.209315 
L 196.215923 199.097548 
L 196.217955 199.097548 
L 196.326813 198.98785 
L 196.446369 198.849177 
L 196.544776 198.739479 
L 196.667153 198.602875 
L 196.783247 198.493178 
L 196.903612 198.364853 
L 197.003885 198.255156 
L 197.114359 198.122691 
L 197.114961 198.122691 
L 197.237192 198.012994 
L 197.350404 197.901227 
L 197.446406 197.791529 
L 197.554724 197.659065 
L 197.557212 197.659065 
L 197.642515 197.549367 
L 197.75979 197.450019 
L 197.862552 197.340322 
L 197.983933 197.172671 
L 198.08798 197.061939 
L 198.195883 196.940858 
L 198.199076 196.940858 
L 198.314154 196.831161 
L 198.430725 196.694557 
L 198.531039 196.584859 
L 198.644002 196.481371 
L 198.749998 196.373744 
L 198.859934 196.276465 
L 198.860971 196.276465 
L 198.968957 196.166768 
L 199.082604 196.040513 
L 199.191938 195.932885 
L 199.304611 195.771444 
L 199.39319 195.661747 
L 199.506982 195.525143 
L 199.631224 195.415445 
L 199.750325 195.258144 
L 199.830775 195.148446 
L 199.946869 195.024261 
L 200.052098 194.914563 
L 200.162241 194.796587 
L 200.163195 194.796587 
L 200.274913 194.68689 
L 200.395341 194.533728 
L 200.506106 194.42403 
L 200.627404 194.25638 
L 200.719425 194.146683 
L 200.835581 194.020427 
L 200.94224 193.91073 
L 201.055784 193.782405 
L 201.161987 193.672708 
L 201.278516 193.538173 
L 201.394962 193.428476 
L 201.509128 193.324988 
L 201.614377 193.215291 
L 201.728004 193.082826 
L 201.83259 192.973129 
L 201.948746 192.846874 
L 202.0688 192.737176 
L 202.184748 192.61506 
L 202.297919 192.505363 
L 202.417682 192.36462 
L 202.51526 192.254922 
L 202.634775 192.118318 
L 202.751802 192.008621 
L 202.870612 191.882366 
L 202.982953 191.772668 
L 203.093427 191.667111 
L 203.094049 191.667111 
L 203.192622 191.557413 
L 203.300567 191.470483 
L 203.303719 191.470483 
L 203.424291 191.360786 
L 203.538809 191.24488 
L 203.64974 191.135182 
L 203.766062 191.004787 
L 203.874297 190.89509 
L 203.9912 190.752277 
L 204.116645 190.642579 
L 204.116645 190.641545 
L 204.233174 190.503906 
L 204.328927 190.394208 
L 204.439609 190.286581 
L 204.440024 190.286581 
L 204.571772 190.176884 
L 204.685523 190.040279 
L 204.792888 189.930582 
L 204.908007 189.829164 
L 204.998783 189.718432 
L 205.123399 189.611839 
L 205.24478 189.502142 
L 205.357951 189.394514 
L 205.477631 189.284817 
L 205.589931 189.150283 
L 205.687923 189.039551 
L 205.803706 188.924679 
L 205.917291 188.814982 
L 206.033944 188.678378 
L 206.124928 188.56868 
L 206.239052 188.417588 
L 206.361056 188.307891 
L 206.476382 188.167147 
L 206.582917 188.05745 
L 206.70351 187.956031 
L 206.827297 187.846334 
L 206.949341 187.666265 
L 207.043394 187.556568 
L 207.156523 187.45101 
L 207.263597 187.341313 
L 207.381163 187.212988 
L 207.496863 187.10329 
L 207.6204 186.952198 
L 207.728221 186.842501 
L 207.843465 186.736943 
L 207.952032 186.629316 
L 208.066446 186.517548 
L 208.154859 186.407851 
L 208.26438 186.269177 
L 208.265748 186.269177 
L 208.351258 186.16155 
L 208.351258 186.160515 
L 208.468803 186.000109 
L 208.598126 185.890411 
L 208.708642 185.776575 
L 208.709223 185.776575 
L 208.81103 185.666877 
L 208.81103 185.665842 
L 208.926149 185.563389 
L 209.04413 185.452657 
L 209.168704 185.323297 
L 209.310426 185.2136 
L 209.423244 185.1246 
L 209.533677 185.014903 
L 209.640233 184.919694 
L 209.644732 184.919694 
L 209.745296 184.812067 
L 209.859047 184.675462 
L 209.988431 184.565765 
L 210.100606 184.453998 
L 210.220868 184.346371 
L 210.334287 184.230464 
L 210.431118 184.120767 
L 210.546403 184.017279 
L 210.685201 183.907582 
L 210.798164 183.812373 
L 210.933189 183.702675 
L 211.046193 183.601257 
L 211.158679 183.49156 
L 211.270875 183.375653 
L 211.391883 183.268026 
L 211.504099 183.14591 
L 211.670702 183.036213 
L 211.784474 182.947213 
L 211.890574 182.837516 
L 212.008285 182.707121 
L 212.102275 182.597424 
L 212.217208 182.467029 
L 212.341409 182.357332 
L 212.451884 182.220727 
L 212.452464 182.220727 
L 212.567625 182.11103 
L 212.674284 182.003403 
L 212.678722 182.003403 
L 212.76448 181.893705 
L 212.871223 181.746752 
L 212.875494 181.746752 
L 213.014956 181.637055 
L 213.134305 181.502521 
L 213.231012 181.391789 
L 213.347624 181.256219 
L 213.459716 181.146522 
L 213.575374 181.032685 
L 213.687446 180.922988 
L 213.809387 180.807082 
L 213.91588 180.697384 
L 214.028967 180.591827 
L 214.143631 180.482129 
L 214.253234 180.39106 
L 214.254644 180.39106 
L 214.362838 180.281363 
L 214.476008 180.177875 
L 214.582958 180.068177 
L 214.582958 180.067143 
L 214.698741 179.952271 
L 214.812699 179.842574 
L 214.931302 179.720458 
L 215.02975 179.610761 
L 215.148228 179.490714 
L 215.274254 179.381017 
L 215.389581 179.277529 
L 215.491554 179.167832 
L 215.601718 179.049856 
L 215.602651 179.049856 
L 215.729091 178.940158 
L 215.842344 178.828391 
L 215.97741 178.718694 
L 216.094935 178.615206 
L 216.251067 178.505509 
L 216.367597 178.370974 
L 216.477532 178.261277 
L 216.477532 178.260242 
L 216.593398 178.143301 
L 216.717723 178.033604 
L 216.831142 177.917697 
L 216.944603 177.81007 
L 217.062749 177.669326 
L 217.187158 177.559629 
L 217.29672 177.433373 
L 217.298234 177.433373 
L 217.401596 177.323676 
L 217.509956 177.218118 
L 217.512652 177.218118 
L 217.623209 177.108421 
L 217.735882 177.025631 
L 217.834869 176.915933 
L 217.957059 176.781399 
L 218.074273 176.671702 
L 218.186199 176.572353 
L 218.323317 176.462656 
L 218.443268 176.355029 
L 218.547107 176.245331 
L 218.661812 176.156332 
L 218.768347 176.046634 
L 218.881434 175.941077 
L 219.021352 175.830345 
L 219.136306 175.73617 
L 219.262207 175.626473 
L 219.380893 175.500218 
L 219.485167 175.390521 
L 219.604226 175.280823 
L 219.710326 175.171126 
L 219.823724 175.057289 
L 219.971625 174.947592 
L 219.971625 174.946557 
L 220.085583 174.87722 
L 220.190045 174.767523 
L 220.301017 174.655756 
L 220.301141 174.655756 
L 220.430443 174.546059 
L 220.542763 174.417734 
L 220.670717 174.308036 
L 220.801429 174.175572 
L 220.906305 174.065874 
L 221.019268 173.970665 
L 221.130717 173.859933 
L 221.24876 173.747131 
L 221.334685 173.637434 
L 221.450634 173.542225 
L 221.598348 173.432528 
L 221.721139 173.320761 
L 221.831904 173.211064 
L 221.942482 173.111715 
L 221.942959 173.111715 
L 222.038111 173.002018 
L 222.160715 172.892321 
L 222.289271 172.781589 
L 222.407231 172.670856 
L 222.511671 172.561159 
L 222.626003 172.455601 
L 222.755678 172.344869 
L 222.88724 172.225858 
L 222.992199 172.115126 
L 223.116296 171.989905 
L 223.249102 171.880208 
L 223.361215 171.77879 
L 223.46663 171.669093 
L 223.580734 171.569744 
L 223.683246 171.460047 
L 223.79793 171.342071 
L 223.916035 171.232373 
L 224.022736 171.133025 
L 224.027132 171.133025 
L 224.154858 171.023328 
L 224.273253 170.905351 
L 224.400606 170.795654 
L 224.515725 170.696306 
L 224.631591 170.586608 
L 224.748991 170.499679 
L 224.876551 170.389981 
L 224.986694 170.31133 
L 224.987565 170.31133 
L 225.124994 170.201633 
L 225.242871 170.108494 
L 225.364315 169.998797 
L 225.475163 169.860123 
L 225.475328 169.860123 
L 225.577675 169.750426 
L 225.688523 169.638659 
L 225.688772 169.638659 
L 225.806711 169.528961 
L 225.929585 169.402706 
L 226.041345 169.293009 
L 226.154059 169.212288 
L 226.29348 169.102591 
L 226.406588 169.001173 
L 226.52604 168.891475 
L 226.643067 168.808685 
L 226.755885 168.698988 
L 226.870776 168.574802 
L 226.990332 168.465105 
L 227.093135 168.345059 
L 227.101429 168.345059 
L 227.231685 168.235361 
L 227.344482 168.146362 
L 227.457569 168.036665 
L 227.576338 167.931107 
L 227.691395 167.82141 
L 227.806099 167.699294 
L 227.954663 167.589596 
L 228.069866 167.486108 
L 228.189381 167.376411 
L 228.302675 167.264644 
L 228.405437 167.154947 
L 228.52433 167.082505 
L 228.674076 166.972808 
L 228.783223 166.875529 
L 228.785173 166.875529 
L 228.897389 166.765832 
L 228.897389 166.764797 
L 229.018977 166.637507 
L 229.127088 166.52781 
L 229.127088 166.526775 
L 229.241855 166.434671 
L 229.402404 166.323938 
L 229.521878 166.223555 
L 229.637909 166.112823 
L 229.755931 166.028998 
L 229.883533 165.9193 
L 229.998569 165.819952 
L 230.111636 165.70922 
L 230.226029 165.627464 
L 230.361531 165.517767 
L 230.472565 165.424628 
L 230.58868 165.314931 
L 230.69169 165.213512 
L 230.699569 165.213512 
L 230.819457 165.103815 
L 230.932793 164.989978 
L 231.043558 164.880281 
L 231.16241 164.727119 
L 231.271785 164.617422 
L 231.392939 164.522213 
L 231.521245 164.412515 
L 231.630517 164.302818 
L 231.632259 164.302818 
L 231.729712 164.192086 
L 231.844914 164.091703 
L 231.969717 163.982005 
L 232.087386 163.874378 
L 232.207814 163.763646 
L 232.318496 163.663262 
L 232.318869 163.663262 
L 232.437223 163.553565 
L 232.552798 163.443868 
L 232.683427 163.334171 
L 232.793487 163.243101 
L 232.794524 163.243101 
L 232.943399 163.133404 
L 233.059057 163.019567 
L 233.174985 162.908835 
L 233.296636 162.781545 
L 233.434024 162.671848 
L 233.541886 162.56629 
L 233.545017 162.56629 
L 233.670151 162.456593 
L 233.783114 162.363453 
L 233.945757 162.252721 
L 234.064671 162.158547 
L 234.172927 162.04885 
L 234.286035 161.945362 
L 234.430287 161.835665 
L 234.542192 161.748735 
L 234.656544 161.639037 
L 234.769777 161.53348 
L 234.897896 161.423782 
L 235.005219 161.316155 
L 235.008972 161.316155 
L 235.150694 161.206458 
L 235.265689 161.111249 
L 235.394825 161.001551 
L 235.507705 160.910482 
L 235.629708 160.800785 
L 235.742505 160.715925 
L 235.862062 160.605192 
L 235.979047 160.508949 
L 236.107768 160.399251 
L 236.217704 160.297833 
L 236.21874 160.297833 
L 236.399755 160.188136 
L 236.512552 160.103276 
L 236.63356 159.992544 
L 236.741546 159.902509 
L 236.744636 159.902509 
L 236.889592 159.792812 
L 237.005499 159.672766 
L 237.107431 159.563069 
L 237.227444 159.418185 
L 237.381047 159.308488 
L 237.483518 159.231907 
L 237.492143 159.231907 
L 237.617754 159.121175 
L 237.73333 159.010443 
L 237.886145 158.900745 
L 237.996827 158.788978 
L 237.997159 158.788978 
L 238.133676 158.679281 
L 238.242409 158.582002 
L 238.244648 158.582002 
L 238.365428 158.472305 
L 238.481273 158.379166 
L 238.618413 158.268434 
L 238.733532 158.17012 
L 238.869884 158.059388 
L 238.986579 157.969354 
L 239.100288 157.859656 
L 239.204625 157.760308 
L 239.211343 157.760308 
L 239.336415 157.650611 
L 239.449088 157.56782 
L 239.563419 157.458123 
L 239.680653 157.358774 
L 239.839896 157.248042 
L 239.945726 157.13731 
L 239.950868 157.13731 
L 240.073245 157.027613 
L 240.190976 156.919985 
L 240.340743 156.810288 
L 240.455925 156.731637 
L 240.598829 156.62194 
L 240.713823 156.526731 
L 240.857598 156.417034 
L 240.976657 156.307337 
L 241.102558 156.197639 
L 241.217263 156.10657 
L 241.36929 155.996873 
L 241.482108 155.909943 
L 241.613877 155.800245 
L 241.721946 155.709176 
L 241.724953 155.709176 
L 241.850667 155.599479 
L 241.96956 155.5022 
L 242.117109 155.392503 
L 242.240833 155.255899 
L 242.357818 155.146201 
L 242.476545 155.055132 
L 242.586502 154.945435 
L 242.586502 154.9444 
L 242.69963 154.844016 
L 242.829057 154.736389 
L 242.829057 154.734319 
L 242.941978 154.64325 
L 243.061161 154.545971 
L 243.188783 154.436274 
L 243.304048 154.355553 
L 243.439819 154.245856 
L 243.547764 154.129949 
L 243.550916 154.129949 
L 243.675386 154.020252 
L 243.788453 153.95609 
L 243.896107 153.846392 
L 244.008656 153.771881 
L 244.157987 153.662184 
L 244.273355 153.556626 
L 244.413004 153.446929 
L 244.527273 153.343441 
L 244.65081 153.233743 
L 244.763649 153.146814 
L 244.904541 153.037116 
L 245.016633 152.92328 
L 245.132851 152.813582 
L 245.243119 152.705955 
L 245.243948 152.705955 
L 245.38681 152.596258 
L 245.501059 152.4907 
L 245.623891 152.381003 
L 245.740047 152.300282 
L 245.873952 152.190585 
L 245.986086 152.078818 
L 246.113438 151.96912 
L 246.113438 151.968085 
L 246.233513 151.88219 
L 246.37565 151.771458 
L 246.48882 151.669005 
L 246.620734 151.559308 
L 246.731541 151.443401 
L 246.731831 151.443401 
L 246.884522 151.333704 
L 246.995328 151.221937 
L 246.995618 151.221937 
L 247.160833 151.11224 
L 247.272883 151.017031 
L 247.391071 150.907334 
L 247.504283 150.836962 
L 247.650338 150.727265 
L 247.764711 150.644474 
L 247.882671 150.534777 
L 247.994659 150.435428 
L 248.139595 150.325731 
L 248.253076 150.203615 
L 248.418021 150.093918 
L 248.418021 150.092883 
L 248.532311 150.015267 
L 248.686868 149.90557 
L 248.686868 149.904535 
L 248.808456 149.777245 
L 248.944227 149.667548 
L 249.057273 149.570269 
L 249.197274 149.460572 
L 249.307977 149.377781 
L 249.308329 149.377781 
L 249.450528 149.267049 
L 249.573195 149.177015 
L 249.703616 149.067317 
L 249.816455 148.980387 
L 249.970389 148.869655 
L 250.080781 148.779621 
L 250.081486 148.779621 
L 250.248442 148.668889 
L 250.358046 148.578854 
L 250.359539 148.578854 
L 250.48092 148.468122 
L 250.596329 148.361529 
L 250.725051 148.250797 
L 250.841041 148.193879 
L 250.969803 148.084181 
L 251.078951 147.984833 
L 251.0809 147.984833 
L 251.230916 147.875136 
L 251.355511 147.769578 
L 251.482034 147.659881 
L 251.596822 147.568811 
L 251.724838 147.459114 
L 251.839169 147.378393 
L 251.982529 147.268696 
L 252.089831 147.187976 
L 252.093626 147.187976 
L 252.223094 147.078278 
L 252.336056 146.983069 
L 252.486839 146.873372 
L 252.603617 146.782303 
L 252.742457 146.672605 
L 252.847085 146.577396 
L 252.853429 146.577396 
L 253.002554 146.466664 
L 253.116926 146.384909 
L 253.274552 146.275212 
L 253.387432 146.184142 
L 253.526686 146.074445 
L 253.640147 145.995794 
L 253.789395 145.886097 
L 253.906858 145.799167 
L 254.073917 145.68947 
L 254.188705 145.5984 
L 254.304716 145.488703 
L 254.422572 145.379006 
L 254.55347 145.269308 
L 254.670165 145.178239 
L 254.836085 145.068542 
L 254.949338 144.960914 
L 255.0589 144.850182 
L 255.167758 144.760147 
L 255.169997 144.760147 
L 255.339151 144.65045 
L 255.453565 144.56973 
L 255.609242 144.460032 
L 255.722578 144.344126 
L 255.854927 144.234429 
L 255.966812 144.145429 
L 256.104387 144.035732 
L 256.206029 143.952941 
L 256.215442 143.952941 
L 256.371533 143.843244 
L 256.488498 143.748035 
L 256.615125 143.638338 
L 256.729995 143.514152 
L 256.876963 143.40342 
L 256.992082 143.305106 
L 257.153233 143.195409 
L 257.267481 143.118828 
L 257.41814 143.009131 
L 257.531393 142.934619 
L 257.651945 142.823887 
L 257.769345 142.748341 
L 257.913907 142.638644 
L 258.026932 142.541365 
L 258.185864 142.431668 
L 258.303471 142.32611 
L 258.445421 142.216413 
L 258.561702 142.133622 
L 258.742405 142.02289 
L 258.854849 141.953553 
L 259.027777 141.843856 
L 259.027777 141.842821 
L 259.14327 141.734159 
L 259.276594 141.624462 
L 259.276594 141.623427 
L 259.406414 141.529253 
L 259.565843 141.41852 
L 259.673975 141.330556 
L 259.67694 141.330556 
L 259.81466 141.220858 
L 259.934466 141.115301 
L 260.12622 141.005603 
L 260.12622 141.004569 
L 260.245673 140.904185 
L 260.420032 140.794488 
L 260.535234 140.691 
L 260.669678 140.581303 
L 260.780629 140.477815 
L 260.780733 140.477815 
L 260.928779 140.368117 
L 261.038839 140.279118 
L 261.039876 140.279118 
L 261.196547 140.168386 
L 261.314113 140.09077 
L 261.442752 139.981072 
L 261.557269 139.867236 
L 261.698328 139.756503 
L 261.806957 139.664399 
L 261.8093 139.664399 
L 261.974535 139.553667 
L 262.101287 139.449144 
L 262.238385 139.339447 
L 262.353587 139.238029 
L 262.500202 139.128331 
L 262.611962 139.062099 
L 262.758122 138.951367 
L 262.871001 138.863402 
L 263.019006 138.753705 
L 263.133337 138.672984 
L 263.284742 138.562252 
L 263.399862 138.497055 
L 263.538121 138.387357 
L 263.649964 138.310776 
L 263.790587 138.201079 
L 263.907365 138.11001 
L 264.052363 138.000312 
L 264.169328 137.903034 
L 264.348787 137.792302 
L 264.458743 137.700197 
L 264.459883 137.700197 
L 264.60596 137.589465 
L 264.720208 137.511849 
L 264.919386 137.402152 
L 265.029695 137.311082 
L 265.030483 137.311082 
L 265.187444 137.201385 
L 265.187444 137.20035 
L 265.305757 137.114455 
L 265.449034 137.003723 
L 265.566185 136.90541 
L 265.711515 136.794677 
L 265.839158 136.683945 
L 265.972586 136.574248 
L 266.080863 136.46869 
L 266.083558 136.46869 
L 266.220324 136.358993 
L 266.332769 136.292761 
L 266.480068 136.183063 
L 266.595208 136.083715 
L 266.74624 135.974018 
L 266.858623 135.899506 
L 267.042208 135.788774 
L 267.159359 135.717368 
L 267.31686 135.60767 
L 267.429512 135.529019 
L 267.603082 135.419322 
L 267.721001 135.338602 
L 267.886609 135.228904 
L 268.00347 135.158532 
L 268.159686 135.048835 
L 268.267734 134.966045 
L 268.270782 134.966045 
L 268.413458 134.856348 
L 268.527022 134.771487 
L 268.671958 134.66179 
L 268.671958 134.660755 
L 268.785501 134.599697 
L 268.961664 134.49 
L 269.07529 134.427907 
L 269.222921 134.31821 
L 269.337377 134.251978 
L 269.46249 134.141246 
L 269.577941 134.069839 
L 269.736396 133.959107 
L 269.851308 133.864933 
L 269.975799 133.755235 
L 270.087518 133.693143 
L 270.239214 133.583445 
L 270.35116 133.494446 
L 270.564583 133.386818 
L 270.564583 133.384748 
L 270.674125 133.304028 
L 270.675638 133.304028 
L 270.860136 133.194331 
L 270.972228 133.142587 
L 271.136571 133.032889 
L 271.250094 132.952169 
L 271.461733 132.841436 
L 271.577475 132.726565 
L 271.713204 132.616868 
L 271.825835 132.540286 
L 271.990469 132.430589 
L 272.103328 132.34159 
L 272.259088 132.230857 
L 272.381775 132.120125 
L 272.56196 132.010428 
L 272.677722 131.919359 
L 272.876506 131.809661 
L 272.982585 131.73101 
L 272.98752 131.73101 
L 273.126857 131.621313 
L 273.242992 131.540593 
L 273.386705 131.430895 
L 273.386705 131.42986 
L 273.500746 131.358454 
L 273.678028 131.248756 
L 273.787466 131.182524 
L 273.789083 131.182524 
L 273.94592 131.072827 
L 274.058925 130.973478 
L 274.239607 130.863781 
L 274.350704 130.756154 
L 274.471919 130.646456 
L 274.575323 130.557457 
L 274.582954 130.557457 
L 274.744042 130.447759 
L 274.856714 130.369109 
L 275.028356 130.259411 
L 275.142522 130.1849 
L 275.302947 130.075203 
L 275.413089 129.988273 
L 275.414002 129.988273 
L 275.54602 129.878576 
L 275.652887 129.812343 
L 275.657034 129.812343 
L 275.804748 129.702646 
L 275.804748 129.701611 
L 275.921215 129.615716 
L 276.104779 129.506019 
L 276.216954 129.452205 
L 276.38503 129.341473 
L 276.499818 129.251438 
L 276.618462 129.141741 
L 276.731964 129.081718 
L 276.891248 128.972021 
L 277.003133 128.89337 
L 277.166025 128.783673 
L 277.275877 128.713301 
L 277.277038 128.713301 
L 277.420647 128.602569 
L 277.52486 128.520813 
L 277.531744 128.520813 
L 277.680536 128.411116 
L 277.793167 128.332465 
L 277.977935 128.221733 
L 278.094319 128.135838 
L 278.269527 128.026141 
L 278.380541 127.953699 
L 278.545693 127.844002 
L 278.659216 127.763281 
L 278.82331 127.653584 
L 278.933992 127.572863 
L 278.934386 127.572863 
L 279.107003 127.462131 
L 279.220795 127.396934 
L 279.368966 127.287236 
L 279.480892 127.202376 
L 279.649714 127.092679 
L 279.763216 127.014028 
L 279.946304 126.903296 
L 280.056778 126.82775 
L 280.057359 126.82775 
L 280.255044 126.717018 
L 280.373978 126.622844 
L 280.549249 126.513146 
L 280.664223 126.417937 
L 280.858881 126.30824 
L 280.972548 126.22338 
L 281.12047 126.113683 
L 281.232997 126.043311 
L 281.388715 125.932579 
L 281.495313 125.871521 
L 281.499812 125.871521 
L 281.677384 125.760789 
L 281.798682 125.70594 
L 281.957967 125.596243 
L 282.070328 125.53415 
L 282.221194 125.424453 
L 282.334966 125.337523 
L 282.45446 125.226791 
L 282.569413 125.132617 
L 282.717501 125.022919 
L 282.825529 124.944269 
L 282.828597 124.944269 
L 282.997254 124.834571 
L 283.103374 124.766269 
L 283.10835 124.766269 
L 283.233796 124.656572 
L 283.346468 124.575851 
L 283.480891 124.465119 
L 283.597607 124.375085 
L 283.767508 124.265387 
L 283.87821 124.174318 
L 283.878604 124.174318 
L 284.082634 124.064621 
L 284.082634 124.063586 
L 284.19539 123.98183 
L 284.363134 123.872133 
L 284.477195 123.799691 
L 284.632561 123.689994 
L 284.746042 123.611343 
L 284.900039 123.501646 
L 285.013914 123.410577 
L 285.162064 123.299844 
L 285.275462 123.242926 
L 285.433544 123.132194 
L 285.550363 123.03802 
L 285.733845 122.928323 
L 285.847616 122.841393 
L 286.011815 122.731695 
L 286.124093 122.667533 
L 286.337412 122.556801 
L 286.459851 122.468836 
L 286.616004 122.359139 
L 286.725525 122.266 
L 286.727059 122.266 
L 286.873695 122.156302 
L 286.873695 122.155267 
L 286.987985 122.077651 
L 287.191828 121.967954 
L 287.303734 121.885164 
L 287.464013 121.775466 
L 287.574363 121.711304 
L 287.57511 121.711304 
L 287.710093 121.601607 
L 287.822454 121.539514 
L 287.980598 121.429817 
L 288.096485 121.334608 
L 288.288302 121.22491 
L 288.398113 121.137981 
L 288.399398 121.137981 
L 288.611411 121.028283 
L 288.724726 120.955842 
L 288.896825 120.84511 
L 289.003443 120.779912 
L 289.007901 120.779912 
L 289.157833 120.670215 
L 289.267603 120.587424 
L 289.268889 120.587424 
L 289.453221 120.477727 
L 289.563612 120.386658 
L 289.564317 120.386658 
L 289.749976 120.27696 
L 289.859414 120.216937 
L 289.86099 120.216937 
L 290.036903 120.106205 
L 290.152645 120.051357 
L 290.326941 119.941659 
L 290.437332 119.860939 
L 290.438037 119.860939 
L 290.655006 119.751242 
L 290.748271 119.685009 
L 290.766019 119.685009 
L 290.954125 119.574277 
L 291.060079 119.511149 
L 291.06518 119.511149 
L 291.281278 119.401452 
L 291.281278 119.400417 
L 291.39986 119.310383 
L 291.527212 119.199651 
L 291.641896 119.111686 
L 291.819054 119.001989 
L 291.927662 118.927477 
L 291.930109 118.927477 
L 292.054932 118.81778 
L 292.167542 118.743269 
L 292.351874 118.633571 
L 292.463614 118.552851 
L 292.678301 118.443153 
L 292.792425 118.368642 
L 292.949719 118.258945 
L 293.064527 118.167875 
L 293.226361 118.057143 
L 293.340651 117.977458 
L 293.524361 117.866725 
L 293.63807 117.801528 
L 293.762043 117.691831 
L 293.874716 117.640087 
L 294.034975 117.530389 
L 294.144827 117.460018 
L 294.146051 117.460018 
L 294.288187 117.35032 
L 294.400735 117.273739 
L 294.596907 117.164042 
L 294.710181 117.09367 
L 294.91506 116.982938 
L 295.057778 116.851508 
L 295.251357 116.741811 
L 295.364071 116.66109 
L 295.517425 116.551393 
L 295.620954 116.483091 
L 295.62846 116.483091 
L 295.789527 116.373394 
L 295.903174 116.290603 
L 296.081866 116.180906 
L 296.081866 116.179871 
L 296.194663 116.093976 
L 296.337795 115.984279 
L 296.451877 115.926326 
L 296.634032 115.816628 
L 296.743408 115.742117 
L 296.745087 115.742117 
L 296.940554 115.631385 
L 297.045326 115.591025 
L 297.051609 115.591025 
L 297.188894 115.481327 
L 297.306045 115.398537 
L 297.499997 115.28884 
L 297.607673 115.191561 
L 297.610928 115.191561 
L 297.795799 115.081864 
L 297.908368 115.007352 
L 298.061162 114.897655 
L 298.176302 114.819004 
L 298.324535 114.708272 
L 298.437995 114.651354 
L 298.635432 114.541656 
L 298.742464 114.471285 
L 298.746466 114.471285 
L 298.922089 114.360553 
L 299.043719 114.293285 
L 299.221457 114.182553 
L 299.334192 114.100798 
L 299.535568 113.990066 
L 299.644674 113.926938 
L 299.646664 113.926938 
L 299.815445 113.817241 
L 299.931809 113.73238 
L 300.114502 113.621648 
L 300.230098 113.550242 
L 300.446113 113.440544 
L 300.547464 113.39501 
L 300.557127 113.39501 
L 300.724912 113.284278 
L 300.841358 113.22115 
L 301.017977 113.110418 
L 301.138238 113.024523 
L 301.328127 112.913791 
L 301.442044 112.844454 
L 301.61381 112.733721 
L 301.724077 112.672664 
L 301.724782 112.672664 
L 301.893957 112.562966 
L 302.009056 112.484315 
L 302.172653 112.374618 
L 302.172653 112.373583 
L 302.286922 112.295967 
L 302.426404 112.18627 
L 302.53605 112.132456 
L 302.53746 112.132456 
L 302.774955 112.021724 
L 302.884227 111.958596 
L 302.886031 111.958596 
L 303.064702 111.848899 
L 303.179925 111.782667 
L 303.33554 111.67297 
L 303.452193 111.58397 
L 303.660287 111.474273 
L 303.77101 111.399761 
L 303.771321 111.399761 
L 303.945555 111.289029 
L 304.063495 111.23832 
L 304.244384 111.127588 
L 304.358218 111.060321 
L 304.516714 110.949589 
L 304.614624 110.880252 
L 304.627811 110.880252 
L 304.808328 110.770554 
L 304.922389 110.72295 
L 305.089864 110.613253 
L 305.197062 110.536672 
L 305.200961 110.536672 
L 305.419484 110.426974 
L 305.531472 110.327626 
L 305.725259 110.217929 
L 305.835402 110.159975 
L 305.836356 110.159975 
L 305.972127 110.050278 
L 306.079553 109.990255 
L 306.083182 109.990255 
L 306.24228 109.880558 
L 306.35601 109.816395 
L 306.534826 109.706698 
L 306.649199 109.625977 
L 306.836579 109.51628 
L 306.948484 109.43349 
L 307.10557 109.322758 
L 307.215423 109.245142 
L 307.216543 109.245142 
L 307.411283 109.135444 
L 307.411283 109.134409 
L 307.524827 109.052654 
L 307.692425 108.941922 
L 307.809597 108.843608 
L 308.024326 108.732876 
L 308.133453 108.667679 
L 308.13534 108.667679 
L 308.342231 108.557981 
L 308.447937 108.491749 
L 308.453204 108.491749 
L 308.616241 108.381017 
L 308.733745 108.305471 
L 308.873414 108.195773 
L 308.987372 108.125402 
L 309.150098 108.015704 
L 309.150098 108.014669 
L 309.263351 107.961891 
L 309.462778 107.852193 
L 309.573335 107.788031 
L 309.573833 107.788031 
L 309.719101 107.677299 
L 309.815641 107.591404 
L 309.830197 107.591404 
L 310.018759 107.481706 
L 310.129399 107.390637 
L 310.129835 107.390637 
L 310.333305 107.28094 
L 310.445894 107.202289 
L 310.627966 107.091557 
L 310.750861 106.999452 
L 310.911659 106.889755 
L 311.027317 106.817313 
L 311.185544 106.707616 
L 311.296267 106.628965 
L 311.296641 106.628965 
L 311.466624 106.519268 
L 311.579379 106.436478 
L 311.740986 106.32678 
L 311.858365 106.252269 
L 312.009832 106.141537 
L 312.120514 106.06806 
L 312.120929 106.06806 
L 312.288839 105.957328 
L 312.401325 105.885922 
L 312.582401 105.776224 
L 312.695675 105.722411 
L 312.862984 105.611678 
L 312.97549 105.540272 
L 313.139502 105.430574 
L 313.25176 105.372621 
L 313.412205 105.261889 
L 313.510447 105.20911 
L 313.52324 105.20911 
L 313.715969 105.098378 
L 313.830923 105.004204 
L 314.064603 104.894507 
L 314.17458 104.832414 
L 314.175638 104.832414 
L 314.293515 104.770321 
L 314.532462 104.659589 
L 314.634559 104.579903 
L 314.643558 104.579903 
L 314.798986 104.470206 
L 314.910663 104.406043 
L 315.104906 104.296346 
L 315.217019 104.246672 
L 315.420406 104.136975 
L 315.532995 104.060394 
L 315.697961 103.949661 
L 315.80603 103.872045 
L 315.809058 103.872045 
L 316.030919 103.762348 
L 316.030919 103.761313 
L 316.144608 103.698186 
L 316.294292 103.588488 
L 316.400288 103.522256 
L 316.405389 103.522256 
L 316.563761 103.411524 
L 316.670627 103.342187 
L 316.674816 103.342187 
L 316.886186 103.231455 
L 316.980632 103.172467 
L 316.997282 103.172467 
L 317.1987 103.062769 
L 317.309112 102.979979 
L 317.309755 102.979979 
L 317.467256 102.869247 
L 317.567405 102.80198 
L 317.578353 102.80198 
L 317.786198 102.692282 
L 317.786198 102.691248 
L 317.89661 102.62605 
L 317.897294 102.62605 
L 318.063421 102.516353 
L 318.175658 102.460469 
L 318.357232 102.349737 
L 318.471087 102.28247 
L 318.668834 102.172773 
L 318.764172 102.11068 
L 318.779889 102.11068 
L 318.940189 102.000983 
L 319.053401 101.932681 
L 319.243849 101.822983 
L 319.353142 101.719495 
L 319.354946 101.719495 
L 319.534011 101.608763 
L 319.648384 101.529078 
L 319.794066 101.41938 
L 319.904935 101.346939 
L 319.905101 101.346939 
L 320.040478 101.236207 
L 320.151118 101.168939 
L 320.151554 101.168939 
L 320.342998 101.059242 
L 320.455629 100.980591 
L 320.666439 100.869859 
L 320.775441 100.808801 
L 320.777535 100.808801 
L 320.961224 100.699104 
L 321.063924 100.628732 
L 321.072321 100.628732 
L 321.216676 100.519035 
L 321.320516 100.442454 
L 321.327711 100.442454 
L 321.469764 100.334826 
L 321.469764 100.333791 
L 321.580115 100.264454 
L 321.580861 100.264454 
L 321.74309 100.153722 
L 321.852279 100.082316 
L 321.854145 100.082316 
L 322.015751 99.971583 
L 322.125646 99.891898 
L 322.126848 99.891898 
L 322.272323 99.7822 
L 322.380455 99.69527 
L 322.383378 99.69527 
L 322.536338 99.584538 
L 322.64843 99.531759 
L 322.80504 99.422062 
L 322.91454 99.380667 
L 322.915991 99.380667 
L 323.074177 99.27097 
L 323.184423 99.219226 
L 323.185232 99.219226 
L 323.335849 99.109529 
L 323.449745 99.041226 
L 323.625887 98.931529 
L 323.625887 98.930494 
L 323.739513 98.867367 
L 323.925483 98.756634 
L 324.037865 98.693507 
L 324.235757 98.582775 
L 324.349218 98.525856 
L 324.512939 98.415124 
L 324.634631 98.333369 
L 324.782055 98.222636 
L 324.893152 98.14916 
L 325.050798 98.038428 
L 325.163802 97.991858 
L 325.359746 97.882161 
L 325.475383 97.809719 
L 325.598879 97.698987 
L 325.712983 97.623441 
L 325.885558 97.513744 
L 325.998106 97.441302 
L 326.130207 97.33057 
L 326.249826 97.250884 
L 326.409234 97.140152 
L 326.52002 97.066676 
L 326.520269 97.066676 
L 326.707877 96.955944 
L 326.825318 96.85349 
L 326.999946 96.743793 
L 327.111603 96.677561 
L 327.29919 96.566829 
L 327.411717 96.495422 
L 327.623149 96.38469 
L 327.740466 96.311213 
L 327.911383 96.201516 
L 328.023143 96.135284 
L 328.191032 96.024552 
L 328.303062 95.973843 
L 328.497056 95.86311 
L 328.612134 95.799983 
L 328.799203 95.689251 
L 328.915131 95.611635 
L 329.055525 95.500903 
L 329.171847 95.417077 
L 329.369657 95.30738 
L 329.480318 95.187334 
L 329.480733 95.187334 
L 329.644184 95.077637 
L 329.756753 95.005195 
L 329.938079 94.895498 
L 329.938079 94.894463 
L 330.051622 94.835475 
L 330.256502 94.725778 
L 330.256502 94.724743 
L 330.372554 94.645057 
L 330.515292 94.53536 
L 330.515292 94.534325 
L 330.628027 94.452569 
L 330.786793 94.341837 
L 330.893784 94.266291 
L 330.897848 94.266291 
L 331.03196 94.156594 
L 331.14285 94.096571 
L 331.142974 94.096571 
L 331.341696 93.986873 
L 331.449226 93.899943 
L 331.452585 93.899943 
L 331.625824 93.789211 
L 331.748781 93.697107 
L 331.940929 93.58741 
L 331.940929 93.586375 
L 332.055634 93.49841 
L 332.214421 93.388713 
L 332.323776 93.307992 
L 332.325476 93.307992 
L 332.472651 93.19726 
L 332.585448 93.111365 
L 332.741912 93.001668 
L 332.85359 92.941645 
L 333.017601 92.831947 
L 333.13073 92.763645 
L 333.307929 92.653948 
L 333.417823 92.589786 
L 333.418984 92.589786 
L 333.623885 92.480088 
L 333.734505 92.401437 
L 333.734961 92.401437 
L 333.895344 92.290705 
L 334.014154 92.219299 
L 334.20537 92.108566 
L 334.313771 92.043369 
L 334.316425 92.043369 
L 334.469406 91.932637 
L 334.584401 91.869509 
L 334.760646 91.758777 
L 334.866372 91.68737 
L 334.871701 91.68737 
L 335.081993 91.577673 
L 335.195495 91.51765 
L 335.352083 91.407953 
L 335.464113 91.314814 
L 335.704304 91.205116 
L 335.81762 91.132675 
L 335.995835 91.022978 
L 336.110498 90.954675 
L 336.314445 90.843943 
L 336.423364 90.770467 
L 336.425541 90.770467 
L 336.599236 90.659735 
L 336.716346 90.604886 
L 336.928462 90.495189 
L 337.024132 90.410329 
L 337.039559 90.410329 
L 337.236041 90.299597 
L 337.348838 90.215771 
L 337.506796 90.106074 
L 337.61669 90.021214 
L 337.617851 90.021214 
L 337.796709 89.911517 
L 337.905359 89.845284 
L 337.907785 89.845284 
L 338.058671 89.735587 
L 338.169104 89.673494 
L 338.169726 89.673494 
L 338.345474 89.563797 
L 338.345474 89.562762 
L 338.453958 89.501704 
L 338.45655 89.501704 
L 338.65749 89.390972 
L 338.765601 89.342333 
L 338.768566 89.342333 
L 338.943754 89.232635 
L 339.053938 89.143636 
L 339.054643 89.143636 
L 339.178057 89.033939 
L 339.286499 88.942869 
L 339.289153 88.942869 
L 339.475745 88.833172 
L 339.475745 88.832137 
L 339.5947 88.773149 
L 339.783552 88.663452 
L 339.783552 88.662417 
L 339.897884 88.582731 
L 340.075539 88.473034 
L 340.075539 88.471999 
L 340.189248 88.408871 
L 340.361263 88.298139 
L 340.475035 88.230872 
L 340.644189 88.12014 
L 340.758085 88.050803 
L 340.971259 87.941105 
L 341.08304 87.868664 
L 341.261731 87.758967 
L 341.372413 87.692734 
L 341.372828 87.692734 
L 341.569352 87.582002 
L 341.683144 87.516805 
L 341.851614 87.406073 
L 341.96833 87.316038 
L 342.150629 87.206341 
L 342.264588 87.135969 
L 342.43399 87.025237 
L 342.541189 86.960039 
L 342.545087 86.960039 
L 342.770432 86.850342 
L 342.882337 86.769621 
L 343.05342 86.658889 
L 343.161406 86.593692 
L 343.164434 86.593692 
L 343.328487 86.483995 
L 343.440869 86.419832 
L 343.654665 86.310135 
L 343.766861 86.254251 
L 343.97313 86.144554 
L 344.08574 86.067973 
L 344.257569 85.958276 
L 344.368396 85.867206 
L 344.368624 85.867206 
L 344.580927 85.757509 
L 344.697933 85.687137 
L 344.894291 85.57744 
L 344.894291 85.576405 
L 345.008 85.513277 
L 345.210703 85.402545 
L 345.323106 85.337348 
L 345.526949 85.226616 
L 345.640783 85.159348 
L 345.823145 85.049651 
L 345.934864 84.983419 
L 346.117246 84.872687 
L 346.229711 84.80335 
L 346.409378 84.693653 
L 346.409378 84.692618 
L 346.523813 84.610862 
L 346.768504 84.50013 
L 346.891149 84.45356 
L 347.052777 84.343863 
L 347.165097 84.28384 
L 347.338066 84.174143 
L 347.449785 84.11205 
L 347.679277 84.002353 
L 347.792924 83.94026 
L 348.007155 83.829528 
L 348.117236 83.76847 
L 348.118252 83.76847 
L 348.343763 83.657738 
L 348.451044 83.59254 
L 348.454859 83.59254 
L 348.708238 83.481808 
L 348.816432 83.397983 
L 348.819231 83.397983 
L 349.061807 83.288286 
L 349.172613 83.222053 
L 349.172862 83.222053 
L 349.360801 83.112356 
L 349.471712 83.027496 
L 349.471898 83.027496 
L 349.698073 82.916764 
L 349.81456 82.853636 
L 349.97202 82.742904 
L 350.093733 82.661149 
L 350.243811 82.551451 
L 350.347588 82.491428 
L 350.354907 82.491428 
L 350.506893 82.381731 
L 350.506893 82.380696 
L 350.620727 82.313429 
L 350.815571 82.203732 
L 350.927456 82.123011 
L 351.120019 82.012279 
L 351.229706 81.942942 
L 351.231095 81.942942 
L 351.456627 81.83221 
L 351.569756 81.729757 
L 351.788611 81.619025 
L 351.905658 81.547618 
L 352.103965 81.436886 
L 352.222423 81.348921 
L 352.42807 81.238189 
L 352.538524 81.170922 
L 352.539104 81.170922 
L 352.704028 81.061224 
L 352.814047 80.992922 
L 352.815084 80.992922 
L 353.018284 80.883225 
L 353.130169 80.798365 
L 353.319 80.688668 
L 353.430802 80.616226 
L 353.646712 80.506529 
L 353.752522 80.427878 
L 353.757726 80.427878 
L 353.969386 80.317146 
L 354.079426 80.260227 
L 354.080483 80.260227 
L 354.259382 80.149495 
L 354.372221 80.0636 
L 354.556283 79.952868 
L 354.66879 79.881461 
L 354.821397 79.771764 
L 354.93322 79.697253 
L 355.119459 79.586521 
L 355.222925 79.515114 
L 355.230473 79.515114 
L 355.37856 79.404382 
L 355.492601 79.332975 
L 355.733145 79.223278 
L 355.733145 79.222243 
L 355.845548 79.154976 
L 356.111118 79.045278 
L 356.111118 79.044244 
L 356.225968 78.985255 
L 356.422844 78.875558 
L 356.531536 78.801047 
L 356.53392 78.801047 
L 356.694241 78.690315 
L 356.808821 78.60442 
L 357.013287 78.494722 
L 357.013287 78.493687 
L 357.127888 78.405723 
L 357.357691 78.294991 
L 357.470094 78.229793 
L 357.662491 78.119061 
L 357.772427 78.026957 
L 357.773546 78.026957 
L 358.020539 77.916225 
L 358.135471 77.82205 
L 358.313686 77.712353 
L 358.422461 77.644051 
L 358.424741 77.644051 
L 358.596943 77.533319 
L 358.696138 77.474331 
L 358.70804 77.474331 
L 358.895441 77.363599 
L 359.008238 77.279773 
L 359.21685 77.169041 
L 359.330476 77.105914 
L 359.525631 76.995181 
L 359.62889 76.929984 
L 359.636728 76.929984 
L 359.862405 76.820287 
L 359.972216 76.766473 
L 359.973502 76.766473 
L 360.132973 76.656776 
L 360.244733 76.588474 
L 360.466118 76.478776 
L 360.576385 76.414614 
L 360.577214 76.414614 
L 360.762914 76.304917 
L 360.873285 76.259382 
L 360.874011 76.259382 
L 361.056435 76.149685 
L 361.168859 76.083452 
L 361.329097 75.973755 
L 361.438494 75.907523 
L 361.440152 75.907523 
L 361.647728 75.796791 
L 361.757021 75.744012 
L 361.758804 75.744012 
L 361.95313 75.634314 
L 362.064164 75.564978 
L 362.064226 75.564978 
L 362.246962 75.454245 
L 362.357125 75.404571 
L 362.358058 75.404571 
L 362.620249 75.293839 
L 362.730454 75.236921 
L 362.731346 75.236921 
L 362.904004 75.126189 
L 363.013898 75.07134 
L 363.015101 75.07134 
L 363.253363 74.960608 
L 363.361847 74.903689 
L 363.36446 74.903689 
L 363.57469 74.792957 
L 363.686885 74.736039 
L 363.857408 74.626342 
L 363.954529 74.578737 
L 363.968463 74.578737 
L 364.192896 74.46904 
L 364.303474 74.411087 
L 364.303992 74.411087 
L 364.523055 74.301389 
L 364.634649 74.249645 
L 364.874799 74.138913 
L 364.991141 74.055088 
L 365.202926 73.945391 
L 365.313401 73.889507 
L 365.314023 73.889507 
L 365.527798 73.778775 
L 365.637733 73.713578 
L 365.638874 73.713578 
L 365.789263 73.60388 
L 365.901396 73.552136 
L 366.109842 73.442439 
L 366.221541 73.376207 
L 366.401228 73.265475 
L 366.516409 73.218905 
L 366.738872 73.108173 
L 366.848849 73.051254 
L 366.849969 73.051254 
L 367.047944 72.941557 
L 367.157714 72.877395 
L 367.158999 72.877395 
L 367.403503 72.766662 
L 367.51854 72.703535 
L 367.709963 72.592803 
L 367.821847 72.552442 
L 367.996102 72.442745 
L 368.104151 72.391001 
L 368.107157 72.391001 
L 368.340755 72.280269 
L 368.445258 72.204723 
L 368.45181 72.204723 
L 368.673547 72.093991 
L 368.784395 72.020514 
L 368.784644 72.020514 
L 369.063609 71.909782 
L 369.172425 71.830096 
L 369.174664 71.830096 
L 369.383007 71.720399 
L 369.490496 71.664515 
L 369.494104 71.664515 
L 369.716857 71.553783 
L 369.830214 71.498935 
L 370.035695 71.389237 
L 370.035695 71.388203 
L 370.149135 71.331284 
L 370.359613 71.221587 
L 370.471124 71.176052 
L 370.687553 71.06739 
L 370.687553 71.06532 
L 370.787308 71.002192 
L 370.798609 71.002192 
L 371.010497 70.892495 
L 371.122153 70.824193 
L 371.387807 70.713461 
L 371.493844 70.648263 
L 371.498738 70.648263 
L 371.736606 70.538566 
L 371.736606 70.537531 
L 371.849943 70.482683 
L 372.057622 70.372985 
L 372.156277 70.329521 
L 372.168677 70.329521 
L 372.397215 70.218788 
L 372.507441 70.178428 
L 372.508312 70.178428 
L 372.739338 70.067696 
L 372.844837 70.014917 
L 372.850435 70.014917 
L 373.032299 69.90522 
L 373.139208 69.841057 
L 373.143355 69.841057 
L 373.330776 69.730325 
L 373.432894 69.660988 
L 373.441872 69.660988 
L 373.696536 69.551291 
L 373.788101 69.480919 
L 373.807592 69.480919 
L 374.009963 69.370187 
L 374.12419 69.321548 
L 374.361292 69.21185 
L 374.466666 69.168385 
L 374.472389 69.168385 
L 374.679612 69.057653 
L 374.784944 68.996595 
L 374.790625 68.996595 
L 375.057005 68.886898 
L 375.057005 68.885863 
L 375.169179 68.833084 
L 375.369373 68.723387 
L 375.479931 68.661294 
L 375.480429 68.661294 
L 375.683505 68.550562 
L 375.79145 68.501923 
L 375.794601 68.501923 
L 376.029318 68.391191 
L 376.141493 68.338412 
L 376.351412 68.228714 
L 376.461555 68.197668 
L 376.462508 68.197668 
L 376.674625 68.086936 
L 376.784726 68.038297 
L 376.78568 68.038297 
L 376.981955 67.928599 
L 377.093508 67.876855 
L 377.285968 67.767158 
L 377.397479 67.717484 
L 377.651645 67.607787 
L 377.753453 67.545694 
L 377.762701 67.545694 
L 378.010066 67.434962 
L 378.117679 67.375973 
L 378.12108 67.375973 
L 378.337302 67.266276 
L 378.449477 67.212462 
L 378.646539 67.10173 
L 378.758673 67.051021 
L 379.014353 66.940289 
L 379.121116 66.88751 
L 379.125429 66.88751 
L 379.302586 66.777813 
L 379.411236 66.730208 
L 379.413683 66.730208 
L 379.646783 66.620511 
L 379.750125 66.566697 
L 379.757818 66.566697 
L 380.015737 66.455965 
L 380.117648 66.380419 
L 380.126813 66.380419 
L 380.357425 66.270722 
L 380.469807 66.206559 
L 380.805398 66.095827 
L 380.918776 66.040978 
L 381.13703 65.930246 
L 381.24597 65.889886 
L 381.248085 65.889886 
L 381.498685 65.780189 
L 381.498685 65.779154 
L 381.613224 65.695329 
L 381.835583 65.585631 
L 381.94867 65.538027 
L 382.219798 65.42833 
L 382.327121 65.368307 
L 382.330894 65.368307 
L 382.542534 65.257574 
L 382.650935 65.204796 
L 382.653527 65.204796 
L 382.948499 65.095098 
L 383.053417 65.030936 
L 383.059554 65.030936 
L 383.284319 64.921239 
L 383.388241 64.875704 
L 383.395416 64.875704 
L 383.654392 64.764972 
L 383.759227 64.728751 
L 383.765448 64.728751 
L 383.974827 64.619054 
L 384.085882 64.56317 
L 384.085903 64.56317 
L 384.358088 64.452438 
L 384.468853 64.399659 
L 384.469184 64.399659 
L 384.726129 64.288927 
L 384.834862 64.246497 
L 384.837226 64.246497 
L 385.067216 64.1368 
L 385.177649 64.087125 
L 385.178312 64.087125 
L 385.376868 63.977428 
L 385.376868 63.976393 
L 385.489126 63.915335 
L 385.70174 63.804603 
L 385.812712 63.743545 
L 385.812816 63.743545 
L 386.03785 63.633848 
L 386.149403 63.584174 
L 386.348373 63.473442 
L 386.452628 63.431012 
L 386.45947 63.431012 
L 386.713056 63.320279 
L 386.820918 63.257152 
L 386.824132 63.257152 
L 387.057688 63.14642 
L 387.165198 63.089501 
L 387.168722 63.089501 
L 387.357699 62.979804 
L 387.469998 62.919781 
L 387.734573 62.809049 
L 387.84934 62.766619 
L 388.043106 62.655887 
L 388.149144 62.601038 
L 388.154161 62.601038 
L 388.447973 62.490306 
L 388.558655 62.435457 
L 388.559069 62.435457 
L 388.812282 62.32576 
L 388.924042 62.259528 
L 389.203671 62.14983 
L 389.203671 62.148795 
L 389.316468 62.108435 
L 389.588922 61.998738 
L 389.588922 61.997703 
L 389.701055 61.946994 
L 389.969135 61.837297 
L 390.081289 61.783483 
L 390.335041 61.672751 
L 390.447216 61.619972 
L 390.745194 61.510275 
L 390.745194 61.50924 
L 390.858779 61.448182 
L 391.124723 61.338485 
L 391.124723 61.33745 
L 391.236711 61.28881 
L 391.507424 61.178078 
L 391.618251 61.141857 
L 391.618521 61.141857 
L 391.876129 61.031125 
L 391.991559 60.961788 
L 392.300362 60.852091 
L 392.409261 60.798277 
L 392.411458 60.798277 
L 392.699381 60.68858 
L 392.807202 60.638906 
L 392.810478 60.638906 
L 393.036631 60.529209 
L 393.142337 60.473325 
L 393.147604 60.473325 
L 393.426216 60.362593 
L 393.536359 60.318093 
L 393.537292 60.318093 
L 393.787913 60.207361 
L 393.891628 60.162861 
L 393.89901 60.162861 
L 394.246524 60.052129 
L 394.344101 59.99935 
L 394.357621 59.99935 
L 394.627545 59.889653 
L 394.738559 59.8317 
L 394.738642 59.8317 
L 394.943004 59.722002 
L 395.051944 59.678537 
L 395.054059 59.678537 
L 395.289709 59.567805 
L 395.398815 59.506747 
L 395.400744 59.506747 
L 395.651613 59.396015 
L 395.765799 59.347376 
L 395.982996 59.237679 
L 396.072051 59.206632 
L 396.09403 59.206632 
L 396.352924 59.096935 
L 396.46315 59.043121 
L 396.463896 59.043121 
L 396.741327 58.933424 
L 396.847738 58.88168 
L 396.852424 58.88168 
L 397.235643 58.771983 
L 397.343049 58.732657 
L 397.346698 58.732657 
L 397.649674 58.621925 
L 397.737589 58.593983 
L 397.760688 58.593983 
L 398.059434 58.483251 
L 398.156721 58.432542 
L 398.170531 58.432542 
L 398.518335 58.32181 
L 398.629349 58.28145 
L 398.629432 58.28145 
L 398.872256 58.170717 
L 398.984742 58.136566 
L 399.29199 58.026869 
L 399.29199 58.025834 
L 399.407482 57.995823 
L 399.71361 57.886125 
L 399.822218 57.84473 
L 399.824665 57.84473 
L 400.117813 57.735033 
L 400.225094 57.691568 
L 400.228868 57.691568 
L 400.491245 57.580836 
L 400.604083 57.538406 
L 400.954832 57.427674 
L 401.061699 57.383174 
L 401.065908 57.383174 
L 401.358745 57.273477 
L 401.46499 57.223802 
L 401.469842 57.223802 
L 401.760211 57.11307 
L 401.872904 57.07478 
L 402.217329 56.965082 
L 402.327845 56.913338 
L 402.328384 56.913338 
L 402.656988 56.802606 
L 402.763108 56.772595 
L 402.768023 56.772595 
L 403.050533 56.661863 
L 403.16163 56.621502 
L 403.557912 56.511805 
L 403.661835 56.480759 
L 403.668967 56.480759 
L 404.012293 56.371061 
L 404.118206 56.323457 
L 404.123369 56.323457 
L 404.486787 56.21376 
L 404.486787 56.212725 
L 404.598588 56.178574 
L 404.960658 56.067842 
L 405.070387 56.015063 
L 405.071714 56.015063 
L 405.428932 55.904331 
L 405.534969 55.859831 
L 405.539987 55.859831 
L 406.001127 55.750133 
L 406.107414 55.719087 
L 406.112224 55.719087 
L 406.47786 55.60939 
L 406.588294 55.567995 
L 406.588874 55.567995 
L 406.945429 55.457263 
L 407.043172 55.427251 
L 407.056525 55.427251 
L 407.40491 55.317554 
L 407.504976 55.257531 
L 407.515966 55.257531 
L 407.993321 55.147833 
L 407.993321 55.146799 
L 408.104998 55.118857 
L 408.447245 55.00916 
L 408.552993 54.986392 
L 408.558321 54.986392 
L 409.082267 54.876695 
L 409.188097 54.862207 
L 409.193364 54.862207 
L 409.831206 54.751474 
L 409.932931 54.729742 
L 409.942303 54.729742 
L 410.565713 54.620045 
L 410.667189 54.595208 
L 410.67681 54.595208 
L 411.2274 54.48551 
L 411.335386 54.464813 
L 411.338414 54.464813 
L 412.253064 54.355115 
L 412.359019 54.340627 
L 412.364161 54.340627 
L 413.634868 54.23093 
L 413.731078 54.220581 
L 413.745882 54.220581 
L 414.72 54.144 
L 414.72 54.144 
" clip-path="url(#p6d21de311d)" style="fill: none; stroke: #ff8c00; stroke-width: 1.5; stroke-linecap: square"/>
   </g>
   <g id="line2d_14">
    <path d="M 74.605714 307.584 
L 414.72 54.144 
" clip-path="url(#p6d21de311d)" style="fill: none; stroke-dasharray: 5.55,2.4; stroke-dashoffset: 0; stroke: #0000ff; stroke-width: 1.5"/>
   </g>
   <g id="patch_3">
    <path d="M 57.6 307.584 
L 57.6 41.472 
" style="fill: none; stroke: #000000; stroke-width: 0.8; stroke-linejoin: miter; stroke-linecap: square"/>
   </g>
   <g id="patch_4">
    <path d="M 414.72 307.584 
L 414.72 41.472 
" style="fill: none; stroke: #000000; stroke-width: 0.8; stroke-linejoin: miter; stroke-linecap: square"/>
   </g>
   <g id="patch_5">
    <path d="M 57.6 307.584 
L 414.72 307.584 
" style="fill: none; stroke: #000000; stroke-width: 0.8; stroke-linejoin: miter; stroke-linecap: square"/>
   </g>
   <g id="patch_6">
    <path d="M 57.6 41.472 
L 414.72 41.472 
" style="fill: none; stroke: #000000; stroke-width: 0.8; stroke-linejoin: miter; stroke-linecap: square"/>
   </g>
   <g id="text_15">
    <!-- ROC CURVE -->
    <g transform="translate(200.855625 35.472)scale(0.12 -0.12)">
     <defs>
      <path id="DejaVuSans-4f" d="M 2522 4238 
Q 1834 4238 1429 3725 
Q 1025 3213 1025 2328 
Q 1025 1447 1429 934 
Q 1834 422 2522 422 
Q 3209 422 3611 934 
Q 4013 1447 4013 2328 
Q 4013 3213 3611 3725 
Q 3209 4238 2522 4238 
z
M 2522 4750 
Q 3503 4750 4090 4092 
Q 4678 3434 4678 2328 
Q 4678 1225 4090 567 
Q 3503 -91 2522 -91 
Q 1538 -91 948 565 
Q 359 1222 359 2328 
Q 359 3434 948 4092 
Q 1538 4750 2522 4750 
z
" transform="scale(0.015625)"/>
      <path id="DejaVuSans-43" d="M 4122 4306 
L 4122 3641 
Q 3803 3938 3442 4084 
Q 3081 4231 2675 4231 
Q 1875 4231 1450 3742 
Q 1025 3253 1025 2328 
Q 1025 1406 1450 917 
Q 1875 428 2675 428 
Q 3081 428 3442 575 
Q 3803 722 4122 1019 
L 4122 359 
Q 3791 134 3420 21 
Q 3050 -91 2638 -91 
Q 1578 -91 968 557 
Q 359 1206 359 2328 
Q 359 3453 968 4101 
Q 1578 4750 2638 4750 
Q 3056 4750 3426 4639 
Q 3797 4528 4122 4306 
z
" transform="scale(0.015625)"/>
      <path id="DejaVuSans-55" d="M 556 4666 
L 1191 4666 
L 1191 1831 
Q 1191 1081 1462 751 
Q 1734 422 2344 422 
Q 2950 422 3222 751 
Q 3494 1081 3494 1831 
L 3494 4666 
L 4128 4666 
L 4128 1753 
Q 4128 841 3676 375 
Q 3225 -91 2344 -91 
Q 1459 -91 1007 375 
Q 556 841 556 1753 
L 556 4666 
z
" transform="scale(0.015625)"/>
      <path id="DejaVuSans-56" d="M 1831 0 
L 50 4666 
L 709 4666 
L 2188 738 
L 3669 4666 
L 4325 4666 
L 2547 0 
L 1831 0 
z
" transform="scale(0.015625)"/>
      <path id="DejaVuSans-45" d="M 628 4666 
L 3578 4666 
L 3578 4134 
L 1259 4134 
L 1259 2753 
L 3481 2753 
L 3481 2222 
L 1259 2222 
L 1259 531 
L 3634 531 
L 3634 0 
L 628 0 
L 628 4666 
z
" transform="scale(0.015625)"/>
     </defs>
     <use xlink:href="#DejaVuSans-52"/>
     <use xlink:href="#DejaVuSans-4f" x="69.482422"/>
     <use xlink:href="#DejaVuSans-43" x="148.193359"/>
     <use xlink:href="#DejaVuSans-20" x="218.017578"/>
     <use xlink:href="#DejaVuSans-43" x="249.804688"/>
     <use xlink:href="#DejaVuSans-55" x="319.628906"/>
     <use xlink:href="#DejaVuSans-52" x="392.822266"/>
     <use xlink:href="#DejaVuSans-56" x="456.804688"/>
     <use xlink:href="#DejaVuSans-45" x="525.212891"/>
    </g>
   </g>
   <g id="legend_1">
    <g id="patch_7">
     <path d="M 234.97 302.584 
L 407.72 302.584 
Q 409.72 302.584 409.72 300.584 
L 409.72 286.905875 
Q 409.72 284.905875 407.72 284.905875 
L 234.97 284.905875 
Q 232.97 284.905875 232.97 286.905875 
L 232.97 300.584 
Q 232.97 302.584 234.97 302.584 
z
" style="fill: #ffffff; opacity: 0.8; stroke: #cccccc; stroke-linejoin: miter"/>
    </g>
    <g id="line2d_15">
     <path d="M 236.97 293.004312 
L 246.97 293.004312 
L 256.97 293.004312 
" style="fill: none; stroke: #ff8c00; stroke-width: 1.5; stroke-linecap: square"/>
    </g>
    <g id="text_16">
     <!-- ROC curve (ROC AUC=0.55) -->
     <g transform="translate(264.97 296.504312)scale(0.1 -0.1)">
      <defs>
       <path id="DejaVuSans-63" d="M 3122 3366 
L 3122 2828 
Q 2878 2963 2633 3030 
Q 2388 3097 2138 3097 
Q 1578 3097 1268 2742 
Q 959 2388 959 1747 
Q 959 1106 1268 751 
Q 1578 397 2138 397 
Q 2388 397 2633 464 
Q 2878 531 3122 666 
L 3122 134 
Q 2881 22 2623 -34 
Q 2366 -91 2075 -91 
Q 1284 -91 818 406 
Q 353 903 353 1747 
Q 353 2603 823 3093 
Q 1294 3584 2113 3584 
Q 2378 3584 2631 3529 
Q 2884 3475 3122 3366 
z
" transform="scale(0.015625)"/>
       <path id="DejaVuSans-28" d="M 1984 4856 
Q 1566 4138 1362 3434 
Q 1159 2731 1159 2009 
Q 1159 1288 1364 580 
Q 1569 -128 1984 -844 
L 1484 -844 
Q 1016 -109 783 600 
Q 550 1309 550 2009 
Q 550 2706 781 3412 
Q 1013 4119 1484 4856 
L 1984 4856 
z
" transform="scale(0.015625)"/>
       <path id="DejaVuSans-41" d="M 2188 4044 
L 1331 1722 
L 3047 1722 
L 2188 4044 
z
M 1831 4666 
L 2547 4666 
L 4325 0 
L 3669 0 
L 3244 1197 
L 1141 1197 
L 716 0 
L 50 0 
L 1831 4666 
z
" transform="scale(0.015625)"/>
       <path id="DejaVuSans-3d" d="M 678 2906 
L 4684 2906 
L 4684 2381 
L 678 2381 
L 678 2906 
z
M 678 1631 
L 4684 1631 
L 4684 1100 
L 678 1100 
L 678 1631 
z
" transform="scale(0.015625)"/>
       <path id="DejaVuSans-35" d="M 691 4666 
L 3169 4666 
L 3169 4134 
L 1269 4134 
L 1269 2991 
Q 1406 3038 1543 3061 
Q 1681 3084 1819 3084 
Q 2600 3084 3056 2656 
Q 3513 2228 3513 1497 
Q 3513 744 3044 326 
Q 2575 -91 1722 -91 
Q 1428 -91 1123 -41 
Q 819 9 494 109 
L 494 744 
Q 775 591 1075 516 
Q 1375 441 1709 441 
Q 2250 441 2565 725 
Q 2881 1009 2881 1497 
Q 2881 1984 2565 2268 
Q 2250 2553 1709 2553 
Q 1456 2553 1204 2497 
Q 953 2441 691 2322 
L 691 4666 
z
" transform="scale(0.015625)"/>
       <path id="DejaVuSans-29" d="M 513 4856 
L 1013 4856 
Q 1481 4119 1714 3412 
Q 1947 2706 1947 2009 
Q 1947 1309 1714 600 
Q 1481 -109 1013 -844 
L 513 -844 
Q 928 -128 1133 580 
Q 1338 1288 1338 2009 
Q 1338 2731 1133 3434 
Q 928 4138 513 4856 
z
" transform="scale(0.015625)"/>
      </defs>
      <use xlink:href="#DejaVuSans-52"/>
      <use xlink:href="#DejaVuSans-4f" x="69.482422"/>
      <use xlink:href="#DejaVuSans-43" x="148.193359"/>
      <use xlink:href="#DejaVuSans-20" x="218.017578"/>
      <use xlink:href="#DejaVuSans-63" x="249.804688"/>
      <use xlink:href="#DejaVuSans-75" x="304.785156"/>
      <use xlink:href="#DejaVuSans-72" x="368.164062"/>
      <use xlink:href="#DejaVuSans-76" x="409.277344"/>
      <use xlink:href="#DejaVuSans-65" x="468.457031"/>
      <use xlink:href="#DejaVuSans-20" x="529.980469"/>
      <use xlink:href="#DejaVuSans-28" x="561.767578"/>
      <use xlink:href="#DejaVuSans-52" x="600.78125"/>
      <use xlink:href="#DejaVuSans-4f" x="670.263672"/>
      <use xlink:href="#DejaVuSans-43" x="748.974609"/>
      <use xlink:href="#DejaVuSans-20" x="818.798828"/>
      <use xlink:href="#DejaVuSans-41" x="850.585938"/>
      <use xlink:href="#DejaVuSans-55" x="918.994141"/>
      <use xlink:href="#DejaVuSans-43" x="992.1875"/>
      <use xlink:href="#DejaVuSans-3d" x="1062.011719"/>
      <use xlink:href="#DejaVuSans-30" x="1145.800781"/>
      <use xlink:href="#DejaVuSans-2e" x="1209.423828"/>
      <use xlink:href="#DejaVuSans-35" x="1241.210938"/>
      <use xlink:href="#DejaVuSans-35" x="1304.833984"/>
      <use xlink:href="#DejaVuSans-29" x="1368.457031"/>
     </g>
    </g>
   </g>
  </g>
 </g>
 <defs>
  <clipPath id="p6d21de311d">
   <rect x="57.6" y="41.472" width="357.12" height="266.112"/>
  </clipPath>
 </defs>
</svg>
