<?xml version="1.0" encoding="utf-8" standalone="no"?>
<!DOCTYPE svg PUBLIC "-//W3C//DTD SVG 1.1//EN"
  "http://www.w3.org/Graphics/SVG/1.1/DTD/svg11.dtd">
<svg xmlns:xlink="http://www.w3.org/1999/xlink" width="460.8pt" height="345.6pt" viewBox="0 0 460.8 345.6" xmlns="http://www.w3.org/2000/svg" version="1.1">
 <metadata>
  <rdf:RDF xmlns:dc="http://purl.org/dc/elements/1.1/" xmlns:cc="http://creativecommons.org/ns#" xmlns:rdf="http://www.w3.org/1999/02/22-rdf-syntax-ns#">
   <cc:Work>
    <dc:type rdf:resource="http://purl.org/dc/dcmitype/StillImage"/>
    <dc:date>2022-05-22T14:50:24.996279</dc:date>
    <dc:format>image/svg+xml</dc:format>
    <dc:creator>
     <cc:Agent>
      <dc:title>Matplotlib v3.5.1, https://matplotlib.org/</dc:title>
     </cc:Agent>
    </dc:creator>
   </cc:Work>
  </rdf:RDF>
 </metadata>
 <defs>
  <style type="text/css">*{stroke-linejoin: round; stroke-linecap: butt}</style>
 </defs>
 <g id="figure_1">
  <g id="patch_1">
   <path d="M 0 345.6 
L 460.8 345.6 
L 460.8 0 
L 0 0 
z
" style="fill: #ffffff"/>
  </g>
  <g id="axes_1">
   <g id="patch_2">
    <path d="M 57.6 307.584 
L 414.72 307.584 
L 414.72 41.472 
L 57.6 41.472 
z
" style="fill: #ffffff"/>
   </g>
   <g id="matplotlib.axis_1">
    <g id="xtick_1">
     <g id="line2d_1">
      <defs>
       <path id="m4fce68c80b" d="M 0 0 
L 0 3.5 
" style="stroke: #000000; stroke-width: 0.8"/>
      </defs>
      <g>
       <use xlink:href="#m4fce68c80b" x="74.605714" y="307.584" style="stroke: #000000; stroke-width: 0.8"/>
      </g>
     </g>
     <g id="text_1">
      <!-- 0.0 -->
      <g transform="translate(66.654152 322.182437)scale(0.1 -0.1)">
       <defs>
        <path id="DejaVuSans-30" d="M 2034 4250 
Q 1547 4250 1301 3770 
Q 1056 3291 1056 2328 
Q 1056 1369 1301 889 
Q 1547 409 2034 409 
Q 2525 409 2770 889 
Q 3016 1369 3016 2328 
Q 3016 3291 2770 3770 
Q 2525 4250 2034 4250 
z
M 2034 4750 
Q 2819 4750 3233 4129 
Q 3647 3509 3647 2328 
Q 3647 1150 3233 529 
Q 2819 -91 2034 -91 
Q 1250 -91 836 529 
Q 422 1150 422 2328 
Q 422 3509 836 4129 
Q 1250 4750 2034 4750 
z
" transform="scale(0.015625)"/>
        <path id="DejaVuSans-2e" d="M 684 794 
L 1344 794 
L 1344 0 
L 684 0 
L 684 794 
z
" transform="scale(0.015625)"/>
       </defs>
       <use xlink:href="#DejaVuSans-30"/>
       <use xlink:href="#DejaVuSans-2e" x="63.623047"/>
       <use xlink:href="#DejaVuSans-30" x="95.410156"/>
      </g>
     </g>
    </g>
    <g id="xtick_2">
     <g id="line2d_2">
      <g>
       <use xlink:href="#m4fce68c80b" x="142.628571" y="307.584" style="stroke: #000000; stroke-width: 0.8"/>
      </g>
     </g>
     <g id="text_2">
      <!-- 0.2 -->
      <g transform="translate(134.677009 322.182437)scale(0.1 -0.1)">
       <defs>
        <path id="DejaVuSans-32" d="M 1228 531 
L 3431 531 
L 3431 0 
L 469 0 
L 469 531 
Q 828 903 1448 1529 
Q 2069 2156 2228 2338 
Q 2531 2678 2651 2914 
Q 2772 3150 2772 3378 
Q 2772 3750 2511 3984 
Q 2250 4219 1831 4219 
Q 1534 4219 1204 4116 
Q 875 4013 500 3803 
L 500 4441 
Q 881 4594 1212 4672 
Q 1544 4750 1819 4750 
Q 2544 4750 2975 4387 
Q 3406 4025 3406 3419 
Q 3406 3131 3298 2873 
Q 3191 2616 2906 2266 
Q 2828 2175 2409 1742 
Q 1991 1309 1228 531 
z
" transform="scale(0.015625)"/>
       </defs>
       <use xlink:href="#DejaVuSans-30"/>
       <use xlink:href="#DejaVuSans-2e" x="63.623047"/>
       <use xlink:href="#DejaVuSans-32" x="95.410156"/>
      </g>
     </g>
    </g>
    <g id="xtick_3">
     <g id="line2d_3">
      <g>
       <use xlink:href="#m4fce68c80b" x="210.651429" y="307.584" style="stroke: #000000; stroke-width: 0.8"/>
      </g>
     </g>
     <g id="text_3">
      <!-- 0.4 -->
      <g transform="translate(202.699866 322.182437)scale(0.1 -0.1)">
       <defs>
        <path id="DejaVuSans-34" d="M 2419 4116 
L 825 1625 
L 2419 1625 
L 2419 4116 
z
M 2253 4666 
L 3047 4666 
L 3047 1625 
L 3713 1625 
L 3713 1100 
L 3047 1100 
L 3047 0 
L 2419 0 
L 2419 1100 
L 313 1100 
L 313 1709 
L 2253 4666 
z
" transform="scale(0.015625)"/>
       </defs>
       <use xlink:href="#DejaVuSans-30"/>
       <use xlink:href="#DejaVuSans-2e" x="63.623047"/>
       <use xlink:href="#DejaVuSans-34" x="95.410156"/>
      </g>
     </g>
    </g>
    <g id="xtick_4">
     <g id="line2d_4">
      <g>
       <use xlink:href="#m4fce68c80b" x="278.674286" y="307.584" style="stroke: #000000; stroke-width: 0.8"/>
      </g>
     </g>
     <g id="text_4">
      <!-- 0.6 -->
      <g transform="translate(270.722723 322.182437)scale(0.1 -0.1)">
       <defs>
        <path id="DejaVuSans-36" d="M 2113 2584 
Q 1688 2584 1439 2293 
Q 1191 2003 1191 1497 
Q 1191 994 1439 701 
Q 1688 409 2113 409 
Q 2538 409 2786 701 
Q 3034 994 3034 1497 
Q 3034 2003 2786 2293 
Q 2538 2584 2113 2584 
z
M 3366 4563 
L 3366 3988 
Q 3128 4100 2886 4159 
Q 2644 4219 2406 4219 
Q 1781 4219 1451 3797 
Q 1122 3375 1075 2522 
Q 1259 2794 1537 2939 
Q 1816 3084 2150 3084 
Q 2853 3084 3261 2657 
Q 3669 2231 3669 1497 
Q 3669 778 3244 343 
Q 2819 -91 2113 -91 
Q 1303 -91 875 529 
Q 447 1150 447 2328 
Q 447 3434 972 4092 
Q 1497 4750 2381 4750 
Q 2619 4750 2861 4703 
Q 3103 4656 3366 4563 
z
" transform="scale(0.015625)"/>
       </defs>
       <use xlink:href="#DejaVuSans-30"/>
       <use xlink:href="#DejaVuSans-2e" x="63.623047"/>
       <use xlink:href="#DejaVuSans-36" x="95.410156"/>
      </g>
     </g>
    </g>
    <g id="xtick_5">
     <g id="line2d_5">
      <g>
       <use xlink:href="#m4fce68c80b" x="346.697143" y="307.584" style="stroke: #000000; stroke-width: 0.8"/>
      </g>
     </g>
     <g id="text_5">
      <!-- 0.8 -->
      <g transform="translate(338.74558 322.182437)scale(0.1 -0.1)">
       <defs>
        <path id="DejaVuSans-38" d="M 2034 2216 
Q 1584 2216 1326 1975 
Q 1069 1734 1069 1313 
Q 1069 891 1326 650 
Q 1584 409 2034 409 
Q 2484 409 2743 651 
Q 3003 894 3003 1313 
Q 3003 1734 2745 1975 
Q 2488 2216 2034 2216 
z
M 1403 2484 
Q 997 2584 770 2862 
Q 544 3141 544 3541 
Q 544 4100 942 4425 
Q 1341 4750 2034 4750 
Q 2731 4750 3128 4425 
Q 3525 4100 3525 3541 
Q 3525 3141 3298 2862 
Q 3072 2584 2669 2484 
Q 3125 2378 3379 2068 
Q 3634 1759 3634 1313 
Q 3634 634 3220 271 
Q 2806 -91 2034 -91 
Q 1263 -91 848 271 
Q 434 634 434 1313 
Q 434 1759 690 2068 
Q 947 2378 1403 2484 
z
M 1172 3481 
Q 1172 3119 1398 2916 
Q 1625 2713 2034 2713 
Q 2441 2713 2670 2916 
Q 2900 3119 2900 3481 
Q 2900 3844 2670 4047 
Q 2441 4250 2034 4250 
Q 1625 4250 1398 4047 
Q 1172 3844 1172 3481 
z
" transform="scale(0.015625)"/>
       </defs>
       <use xlink:href="#DejaVuSans-30"/>
       <use xlink:href="#DejaVuSans-2e" x="63.623047"/>
       <use xlink:href="#DejaVuSans-38" x="95.410156"/>
      </g>
     </g>
    </g>
    <g id="xtick_6">
     <g id="line2d_6">
      <g>
       <use xlink:href="#m4fce68c80b" x="414.72" y="307.584" style="stroke: #000000; stroke-width: 0.8"/>
      </g>
     </g>
     <g id="text_6">
      <!-- 1.0 -->
      <g transform="translate(406.768438 322.182437)scale(0.1 -0.1)">
       <defs>
        <path id="DejaVuSans-31" d="M 794 531 
L 1825 531 
L 1825 4091 
L 703 3866 
L 703 4441 
L 1819 4666 
L 2450 4666 
L 2450 531 
L 3481 531 
L 3481 0 
L 794 0 
L 794 531 
z
" transform="scale(0.015625)"/>
       </defs>
       <use xlink:href="#DejaVuSans-31"/>
       <use xlink:href="#DejaVuSans-2e" x="63.623047"/>
       <use xlink:href="#DejaVuSans-30" x="95.410156"/>
      </g>
     </g>
    </g>
    <g id="text_7">
     <!-- False Positive Rate -->
     <g transform="translate(189.693594 335.860562)scale(0.1 -0.1)">
      <defs>
       <path id="DejaVuSans-46" d="M 628 4666 
L 3309 4666 
L 3309 4134 
L 1259 4134 
L 1259 2759 
L 3109 2759 
L 3109 2228 
L 1259 2228 
L 1259 0 
L 628 0 
L 628 4666 
z
" transform="scale(0.015625)"/>
       <path id="DejaVuSans-61" d="M 2194 1759 
Q 1497 1759 1228 1600 
Q 959 1441 959 1056 
Q 959 750 1161 570 
Q 1363 391 1709 391 
Q 2188 391 2477 730 
Q 2766 1069 2766 1631 
L 2766 1759 
L 2194 1759 
z
M 3341 1997 
L 3341 0 
L 2766 0 
L 2766 531 
Q 2569 213 2275 61 
Q 1981 -91 1556 -91 
Q 1019 -91 701 211 
Q 384 513 384 1019 
Q 384 1609 779 1909 
Q 1175 2209 1959 2209 
L 2766 2209 
L 2766 2266 
Q 2766 2663 2505 2880 
Q 2244 3097 1772 3097 
Q 1472 3097 1187 3025 
Q 903 2953 641 2809 
L 641 3341 
Q 956 3463 1253 3523 
Q 1550 3584 1831 3584 
Q 2591 3584 2966 3190 
Q 3341 2797 3341 1997 
z
" transform="scale(0.015625)"/>
       <path id="DejaVuSans-6c" d="M 603 4863 
L 1178 4863 
L 1178 0 
L 603 0 
L 603 4863 
z
" transform="scale(0.015625)"/>
       <path id="DejaVuSans-73" d="M 2834 3397 
L 2834 2853 
Q 2591 2978 2328 3040 
Q 2066 3103 1784 3103 
Q 1356 3103 1142 2972 
Q 928 2841 928 2578 
Q 928 2378 1081 2264 
Q 1234 2150 1697 2047 
L 1894 2003 
Q 2506 1872 2764 1633 
Q 3022 1394 3022 966 
Q 3022 478 2636 193 
Q 2250 -91 1575 -91 
Q 1294 -91 989 -36 
Q 684 19 347 128 
L 347 722 
Q 666 556 975 473 
Q 1284 391 1588 391 
Q 1994 391 2212 530 
Q 2431 669 2431 922 
Q 2431 1156 2273 1281 
Q 2116 1406 1581 1522 
L 1381 1569 
Q 847 1681 609 1914 
Q 372 2147 372 2553 
Q 372 3047 722 3315 
Q 1072 3584 1716 3584 
Q 2034 3584 2315 3537 
Q 2597 3491 2834 3397 
z
" transform="scale(0.015625)"/>
       <path id="DejaVuSans-65" d="M 3597 1894 
L 3597 1613 
L 953 1613 
Q 991 1019 1311 708 
Q 1631 397 2203 397 
Q 2534 397 2845 478 
Q 3156 559 3463 722 
L 3463 178 
Q 3153 47 2828 -22 
Q 2503 -91 2169 -91 
Q 1331 -91 842 396 
Q 353 884 353 1716 
Q 353 2575 817 3079 
Q 1281 3584 2069 3584 
Q 2775 3584 3186 3129 
Q 3597 2675 3597 1894 
z
M 3022 2063 
Q 3016 2534 2758 2815 
Q 2500 3097 2075 3097 
Q 1594 3097 1305 2825 
Q 1016 2553 972 2059 
L 3022 2063 
z
" transform="scale(0.015625)"/>
       <path id="DejaVuSans-20" transform="scale(0.015625)"/>
       <path id="DejaVuSans-50" d="M 1259 4147 
L 1259 2394 
L 2053 2394 
Q 2494 2394 2734 2622 
Q 2975 2850 2975 3272 
Q 2975 3691 2734 3919 
Q 2494 4147 2053 4147 
L 1259 4147 
z
M 628 4666 
L 2053 4666 
Q 2838 4666 3239 4311 
Q 3641 3956 3641 3272 
Q 3641 2581 3239 2228 
Q 2838 1875 2053 1875 
L 1259 1875 
L 1259 0 
L 628 0 
L 628 4666 
z
" transform="scale(0.015625)"/>
       <path id="DejaVuSans-6f" d="M 1959 3097 
Q 1497 3097 1228 2736 
Q 959 2375 959 1747 
Q 959 1119 1226 758 
Q 1494 397 1959 397 
Q 2419 397 2687 759 
Q 2956 1122 2956 1747 
Q 2956 2369 2687 2733 
Q 2419 3097 1959 3097 
z
M 1959 3584 
Q 2709 3584 3137 3096 
Q 3566 2609 3566 1747 
Q 3566 888 3137 398 
Q 2709 -91 1959 -91 
Q 1206 -91 779 398 
Q 353 888 353 1747 
Q 353 2609 779 3096 
Q 1206 3584 1959 3584 
z
" transform="scale(0.015625)"/>
       <path id="DejaVuSans-69" d="M 603 3500 
L 1178 3500 
L 1178 0 
L 603 0 
L 603 3500 
z
M 603 4863 
L 1178 4863 
L 1178 4134 
L 603 4134 
L 603 4863 
z
" transform="scale(0.015625)"/>
       <path id="DejaVuSans-74" d="M 1172 4494 
L 1172 3500 
L 2356 3500 
L 2356 3053 
L 1172 3053 
L 1172 1153 
Q 1172 725 1289 603 
Q 1406 481 1766 481 
L 2356 481 
L 2356 0 
L 1766 0 
Q 1100 0 847 248 
Q 594 497 594 1153 
L 594 3053 
L 172 3053 
L 172 3500 
L 594 3500 
L 594 4494 
L 1172 4494 
z
" transform="scale(0.015625)"/>
       <path id="DejaVuSans-76" d="M 191 3500 
L 800 3500 
L 1894 563 
L 2988 3500 
L 3597 3500 
L 2284 0 
L 1503 0 
L 191 3500 
z
" transform="scale(0.015625)"/>
       <path id="DejaVuSans-52" d="M 2841 2188 
Q 3044 2119 3236 1894 
Q 3428 1669 3622 1275 
L 4263 0 
L 3584 0 
L 2988 1197 
Q 2756 1666 2539 1819 
Q 2322 1972 1947 1972 
L 1259 1972 
L 1259 0 
L 628 0 
L 628 4666 
L 2053 4666 
Q 2853 4666 3247 4331 
Q 3641 3997 3641 3322 
Q 3641 2881 3436 2590 
Q 3231 2300 2841 2188 
z
M 1259 4147 
L 1259 2491 
L 2053 2491 
Q 2509 2491 2742 2702 
Q 2975 2913 2975 3322 
Q 2975 3731 2742 3939 
Q 2509 4147 2053 4147 
L 1259 4147 
z
" transform="scale(0.015625)"/>
      </defs>
      <use xlink:href="#DejaVuSans-46"/>
      <use xlink:href="#DejaVuSans-61" x="48.394531"/>
      <use xlink:href="#DejaVuSans-6c" x="109.673828"/>
      <use xlink:href="#DejaVuSans-73" x="137.457031"/>
      <use xlink:href="#DejaVuSans-65" x="189.556641"/>
      <use xlink:href="#DejaVuSans-20" x="251.080078"/>
      <use xlink:href="#DejaVuSans-50" x="282.867188"/>
      <use xlink:href="#DejaVuSans-6f" x="339.544922"/>
      <use xlink:href="#DejaVuSans-73" x="400.726562"/>
      <use xlink:href="#DejaVuSans-69" x="452.826172"/>
      <use xlink:href="#DejaVuSans-74" x="480.609375"/>
      <use xlink:href="#DejaVuSans-69" x="519.818359"/>
      <use xlink:href="#DejaVuSans-76" x="547.601562"/>
      <use xlink:href="#DejaVuSans-65" x="606.78125"/>
      <use xlink:href="#DejaVuSans-20" x="668.304688"/>
      <use xlink:href="#DejaVuSans-52" x="700.091797"/>
      <use xlink:href="#DejaVuSans-61" x="767.324219"/>
      <use xlink:href="#DejaVuSans-74" x="828.603516"/>
      <use xlink:href="#DejaVuSans-65" x="867.8125"/>
     </g>
    </g>
   </g>
   <g id="matplotlib.axis_2">
    <g id="ytick_1">
     <g id="line2d_7">
      <defs>
       <path id="mff668c1645" d="M 0 0 
L -3.5 0 
" style="stroke: #000000; stroke-width: 0.8"/>
      </defs>
      <g>
       <use xlink:href="#mff668c1645" x="57.6" y="307.584" style="stroke: #000000; stroke-width: 0.8"/>
      </g>
     </g>
     <g id="text_8">
      <!-- 0.0 -->
      <g transform="translate(34.696875 311.383219)scale(0.1 -0.1)">
       <use xlink:href="#DejaVuSans-30"/>
       <use xlink:href="#DejaVuSans-2e" x="63.623047"/>
       <use xlink:href="#DejaVuSans-30" x="95.410156"/>
      </g>
     </g>
    </g>
    <g id="ytick_2">
     <g id="line2d_8">
      <g>
       <use xlink:href="#mff668c1645" x="57.6" y="256.896" style="stroke: #000000; stroke-width: 0.8"/>
      </g>
     </g>
     <g id="text_9">
      <!-- 0.2 -->
      <g transform="translate(34.696875 260.695219)scale(0.1 -0.1)">
       <use xlink:href="#DejaVuSans-30"/>
       <use xlink:href="#DejaVuSans-2e" x="63.623047"/>
       <use xlink:href="#DejaVuSans-32" x="95.410156"/>
      </g>
     </g>
    </g>
    <g id="ytick_3">
     <g id="line2d_9">
      <g>
       <use xlink:href="#mff668c1645" x="57.6" y="206.208" style="stroke: #000000; stroke-width: 0.8"/>
      </g>
     </g>
     <g id="text_10">
      <!-- 0.4 -->
      <g transform="translate(34.696875 210.007219)scale(0.1 -0.1)">
       <use xlink:href="#DejaVuSans-30"/>
       <use xlink:href="#DejaVuSans-2e" x="63.623047"/>
       <use xlink:href="#DejaVuSans-34" x="95.410156"/>
      </g>
     </g>
    </g>
    <g id="ytick_4">
     <g id="line2d_10">
      <g>
       <use xlink:href="#mff668c1645" x="57.6" y="155.52" style="stroke: #000000; stroke-width: 0.8"/>
      </g>
     </g>
     <g id="text_11">
      <!-- 0.6 -->
      <g transform="translate(34.696875 159.319219)scale(0.1 -0.1)">
       <use xlink:href="#DejaVuSans-30"/>
       <use xlink:href="#DejaVuSans-2e" x="63.623047"/>
       <use xlink:href="#DejaVuSans-36" x="95.410156"/>
      </g>
     </g>
    </g>
    <g id="ytick_5">
     <g id="line2d_11">
      <g>
       <use xlink:href="#mff668c1645" x="57.6" y="104.832" style="stroke: #000000; stroke-width: 0.8"/>
      </g>
     </g>
     <g id="text_12">
      <!-- 0.8 -->
      <g transform="translate(34.696875 108.631219)scale(0.1 -0.1)">
       <use xlink:href="#DejaVuSans-30"/>
       <use xlink:href="#DejaVuSans-2e" x="63.623047"/>
       <use xlink:href="#DejaVuSans-38" x="95.410156"/>
      </g>
     </g>
    </g>
    <g id="ytick_6">
     <g id="line2d_12">
      <g>
       <use xlink:href="#mff668c1645" x="57.6" y="54.144" style="stroke: #000000; stroke-width: 0.8"/>
      </g>
     </g>
     <g id="text_13">
      <!-- 1.0 -->
      <g transform="translate(34.696875 57.943219)scale(0.1 -0.1)">
       <use xlink:href="#DejaVuSans-31"/>
       <use xlink:href="#DejaVuSans-2e" x="63.623047"/>
       <use xlink:href="#DejaVuSans-30" x="95.410156"/>
      </g>
     </g>
    </g>
    <g id="text_14">
     <!-- True Positive Rate -->
     <g transform="translate(28.617187 219.057687)rotate(-90)scale(0.1 -0.1)">
      <defs>
       <path id="DejaVuSans-54" d="M -19 4666 
L 3928 4666 
L 3928 4134 
L 2272 4134 
L 2272 0 
L 1638 0 
L 1638 4134 
L -19 4134 
L -19 4666 
z
" transform="scale(0.015625)"/>
       <path id="DejaVuSans-72" d="M 2631 2963 
Q 2534 3019 2420 3045 
Q 2306 3072 2169 3072 
Q 1681 3072 1420 2755 
Q 1159 2438 1159 1844 
L 1159 0 
L 581 0 
L 581 3500 
L 1159 3500 
L 1159 2956 
Q 1341 3275 1631 3429 
Q 1922 3584 2338 3584 
Q 2397 3584 2469 3576 
Q 2541 3569 2628 3553 
L 2631 2963 
z
" transform="scale(0.015625)"/>
       <path id="DejaVuSans-75" d="M 544 1381 
L 544 3500 
L 1119 3500 
L 1119 1403 
Q 1119 906 1312 657 
Q 1506 409 1894 409 
Q 2359 409 2629 706 
Q 2900 1003 2900 1516 
L 2900 3500 
L 3475 3500 
L 3475 0 
L 2900 0 
L 2900 538 
Q 2691 219 2414 64 
Q 2138 -91 1772 -91 
Q 1169 -91 856 284 
Q 544 659 544 1381 
z
M 1991 3584 
L 1991 3584 
z
" transform="scale(0.015625)"/>
      </defs>
      <use xlink:href="#DejaVuSans-54"/>
      <use xlink:href="#DejaVuSans-72" x="46.333984"/>
      <use xlink:href="#DejaVuSans-75" x="87.447266"/>
      <use xlink:href="#DejaVuSans-65" x="150.826172"/>
      <use xlink:href="#DejaVuSans-20" x="212.349609"/>
      <use xlink:href="#DejaVuSans-50" x="244.136719"/>
      <use xlink:href="#DejaVuSans-6f" x="300.814453"/>
      <use xlink:href="#DejaVuSans-73" x="361.996094"/>
      <use xlink:href="#DejaVuSans-69" x="414.095703"/>
      <use xlink:href="#DejaVuSans-74" x="441.878906"/>
      <use xlink:href="#DejaVuSans-69" x="481.087891"/>
      <use xlink:href="#DejaVuSans-76" x="508.871094"/>
      <use xlink:href="#DejaVuSans-65" x="568.050781"/>
      <use xlink:href="#DejaVuSans-20" x="629.574219"/>
      <use xlink:href="#DejaVuSans-52" x="661.361328"/>
      <use xlink:href="#DejaVuSans-61" x="728.59375"/>
      <use xlink:href="#DejaVuSans-74" x="789.873047"/>
      <use xlink:href="#DejaVuSans-65" x="829.082031"/>
     </g>
    </g>
   </g>
   <g id="line2d_13">
    <path d="M 74.605714 307.584 
L 74.617118 307.474303 
L 74.727676 306.358702 
L 74.728215 306.358702 
L 74.744596 306.249005 
L 74.854614 305.443869 
L 74.855692 305.443869 
L 74.87651 305.334171 
L 74.987192 304.754639 
L 74.987441 304.754639 
L 75.0117 304.644941 
L 75.12259 304.121292 
L 75.143242 304.011595 
L 75.25355 303.527271 
L 75.254297 303.527271 
L 75.279261 303.419644 
L 75.388368 302.980855 
L 75.390151 302.980855 
L 75.422248 302.871157 
L 75.532972 302.450996 
L 75.565608 302.341299 
L 75.676705 301.977021 
L 75.706563 301.867324 
L 75.817079 301.523744 
L 75.817618 301.523744 
L 75.849757 301.414046 
L 75.960314 301.03735 
L 75.960688 301.03735 
L 75.988514 300.927653 
L 76.09961 300.658584 
L 76.13121 300.548887 
L 76.241975 300.254981 
L 76.242017 300.254981 
L 76.279256 300.145284 
L 76.390311 299.845169 
L 76.434103 299.735471 
L 76.544951 299.420868 
L 76.5452 299.420868 
L 76.594258 299.311171 
L 76.705272 298.980009 
L 76.753418 298.870312 
L 76.864183 298.592964 
L 76.864515 298.592964 
L 76.917844 298.483267 
L 77.026577 298.212128 
L 77.0289 298.212128 
L 77.072111 298.102431 
L 77.180885 297.889246 
L 77.183208 297.889246 
L 77.237533 297.779549 
L 77.345851 297.541526 
L 77.348505 297.541526 
L 77.404613 297.431829 
L 77.511563 297.220713 
L 77.515668 297.220713 
L 77.573726 297.111016 
L 77.684698 296.90818 
L 77.684781 296.90818 
L 77.730231 296.798482 
L 77.840747 296.529414 
L 77.841328 296.529414 
L 77.8857 296.419716 
L 77.996216 296.208601 
L 77.99659 296.208601 
L 78.059167 296.098904 
L 78.169891 295.889858 
L 78.240803 295.780161 
L 78.351776 295.562836 
L 78.351859 295.562836 
L 78.434093 295.453139 
L 78.549419 295.239953 
L 78.608513 295.130256 
L 78.71961 294.948117 
L 78.772898 294.83842 
L 78.883248 294.633514 
L 78.883746 294.633514 
L 78.94848 294.523817 
L 79.059369 294.341678 
L 79.129038 294.23198 
L 79.239513 294.037423 
L 79.24001 294.037423 
L 79.306527 293.927726 
L 79.416836 293.762145 
L 79.417624 293.762145 
L 79.484265 293.652448 
L 79.484265 293.651413 
L 79.604527 293.424774 
L 79.675854 293.315077 
L 79.784753 293.153636 
L 79.786785 293.153636 
L 79.87383 293.043938 
L 79.983599 292.913544 
L 79.984926 292.913544 
L 80.066082 292.803846 
L 80.176059 292.615498 
L 80.176764 292.615498 
L 80.236895 292.505801 
L 80.347701 292.34022 
L 80.347991 292.34022 
L 80.41455 292.230523 
L 80.518265 292.07943 
L 80.525605 292.07943 
L 80.586358 291.969733 
L 80.694593 291.783455 
L 80.697413 291.783455 
L 80.79665 291.673758 
L 80.906212 291.516456 
L 80.907746 291.516456 
L 80.986082 291.406759 
L 81.099543 291.274294 
L 81.174644 291.164597 
L 81.283667 291.001086 
L 81.285741 291.001086 
L 81.349189 290.891388 
L 81.459767 290.70925 
L 81.460203 290.70925 
L 81.540405 290.599552 
L 81.648059 290.392576 
L 81.651045 290.392576 
L 81.746508 290.282879 
L 81.854785 290.148345 
L 81.857563 290.148345 
L 81.954975 290.038647 
L 82.063169 289.873067 
L 82.065823 289.873067 
L 82.146854 289.763369 
L 82.25737 289.591579 
L 82.257826 289.591579 
L 82.337904 289.481882 
L 82.448793 289.355627 
L 82.448918 289.355627 
L 82.51249 289.245929 
L 82.622841 289.096907 
L 82.623504 289.096907 
L 82.691307 288.987209 
L 82.798464 288.860954 
L 82.802403 288.860954 
L 82.873938 288.751257 
L 82.982961 288.593955 
L 82.984993 288.593955 
L 83.072784 288.484258 
L 83.183425 288.314538 
L 83.286145 288.20484 
L 83.3972 288.043399 
L 83.460109 287.933702 
L 83.564985 287.811586 
L 83.570957 287.811586 
L 83.68562 287.701889 
L 83.796468 287.550796 
L 83.796675 287.550796 
L 83.882227 287.441099 
L 83.991623 287.294146 
L 83.993324 287.294146 
L 84.062826 287.184449 
L 84.17666 287.047845 
L 84.26329 286.937113 
L 84.37223 286.774636 
L 84.374262 286.774636 
L 84.4854 286.664939 
L 84.595709 286.520056 
L 84.596497 286.520056 
L 84.679519 286.410359 
L 84.790574 286.261336 
L 84.885456 286.151639 
L 84.993484 286.004686 
L 84.99647 286.004686 
L 85.117312 285.894989 
L 85.231187 285.754245 
L 85.33569 285.644548 
L 85.449482 285.499664 
L 85.542167 285.389967 
L 85.654964 285.28027 
L 85.757393 285.170573 
L 85.864716 285.046387 
L 85.868448 285.046387 
L 85.97602 284.93669 
L 86.086453 284.789737 
L 86.086868 284.789737 
L 86.1747 284.68004 
L 86.280157 284.553784 
L 86.285756 284.553784 
L 86.395982 284.444087 
L 86.500982 284.311622 
L 86.507078 284.311622 
L 86.601919 284.201925 
L 86.709491 284.090158 
L 86.712725 284.090158 
L 86.814077 283.980461 
L 86.927454 283.864554 
L 87.038344 283.754857 
L 87.152219 283.616183 
L 87.219855 283.506486 
L 87.336882 283.357463 
L 87.419199 283.247766 
L 87.535397 283.121511 
L 87.643549 283.011813 
L 87.76211 282.887628 
L 87.869371 282.777931 
L 87.984594 282.641326 
L 88.081508 282.531629 
L 88.194844 282.417792 
L 88.300965 282.308095 
L 88.406255 282.190119 
L 88.41202 282.190119 
L 88.523531 282.080422 
L 88.639065 281.970724 
L 88.762437 281.861027 
L 88.869552 281.755469 
L 88.873451 281.755469 
L 88.982349 281.645772 
L 89.09129 281.540214 
L 89.093405 281.540214 
L 89.209353 281.430517 
L 89.317671 281.31461 
L 89.32045 281.31461 
L 89.432252 281.204913 
L 89.540487 281.099355 
L 89.543141 281.099355 
L 89.650174 280.989658 
L 89.759819 280.875821 
L 89.761229 280.875821 
L 89.868925 280.766124 
L 89.976746 280.62952 
L 89.980022 280.62952 
L 90.070176 280.519823 
L 90.184135 280.37494 
L 90.300539 280.265242 
L 90.416446 280.147266 
L 90.521447 280.037569 
L 90.631217 279.923732 
L 90.632544 279.923732 
L 90.744926 279.814035 
L 90.860626 279.700198 
L 90.954969 279.590501 
L 91.065485 279.476664 
L 91.066045 279.476664 
L 91.171937 279.366967 
L 91.285149 279.261409 
L 91.403586 279.151712 
L 91.517336 279.008898 
L 91.624203 278.899201 
L 91.743801 278.760527 
L 91.854027 278.65083 
L 91.959816 278.578388 
L 91.964999 278.578388 
L 92.078999 278.468691 
L 92.200131 278.30518 
L 92.292235 278.195483 
L 92.40582 278.067158 
L 92.518866 277.95746 
L 92.628926 277.858112 
L 92.629838 277.858112 
L 92.721278 277.748415 
L 92.835153 277.607671 
L 92.927423 277.497974 
L 92.927423 277.496939 
L 93.040966 277.375858 
L 93.160854 277.266161 
L 93.271039 277.137835 
L 93.271868 277.137835 
L 93.410459 277.028138 
L 93.518943 276.899813 
L 93.521556 276.899813 
L 93.639371 276.790116 
L 93.745636 276.663861 
L 93.750467 276.663861 
L 93.867701 276.554163 
L 93.981162 276.436187 
L 94.115813 276.32649 
L 94.22156 276.187816 
L 94.226744 276.187816 
L 94.333113 276.078119 
L 94.446615 275.958072 
L 94.580064 275.848375 
L 94.696261 275.72005 
L 94.805658 275.610353 
L 94.919035 275.494446 
L 95.015742 275.384749 
L 95.125802 275.29368 
L 95.126756 275.29368 
L 95.212556 275.183982 
L 95.326079 275.063936 
L 95.429504 274.954239 
L 95.543524 274.852821 
L 95.660592 274.743124 
L 95.769699 274.625147 
L 95.771399 274.625147 
L 95.886767 274.51545 
L 95.989694 274.378846 
L 95.997822 274.378846 
L 96.101579 274.269149 
L 96.212261 274.159451 
L 96.212675 274.159451 
L 96.330822 274.049754 
L 96.437772 273.919359 
L 96.441919 273.919359 
L 96.578934 273.809662 
L 96.700813 273.679267 
L 96.828207 273.56957 
L 96.94146 273.461942 
L 97.051561 273.352245 
L 97.163861 273.230129 
L 97.281883 273.120432 
L 97.397168 272.998316 
L 97.491843 272.888619 
L 97.605137 272.770643 
L 97.723823 272.65991 
L 97.840103 272.53262 
L 97.960157 272.422923 
L 98.073618 272.302877 
L 98.176545 272.19318 
L 98.285319 272.071064 
L 98.287517 272.071064 
L 98.391481 271.961367 
L 98.514936 271.828902 
L 98.641086 271.719205 
L 98.75803 271.574322 
L 98.887871 271.464624 
L 98.998594 271.315602 
L 98.998885 271.315602 
L 99.120473 271.205904 
L 99.230077 271.058951 
L 99.23157 271.058951 
L 99.336695 270.949254 
L 99.450031 270.833348 
L 99.549184 270.72365 
L 99.667953 270.599465 
L 99.776271 270.489767 
L 99.88658 270.396628 
L 99.887243 270.396628 
L 100.002321 270.286931 
L 100.110722 270.181373 
L 100.113376 270.181373 
L 100.245706 270.071676 
L 100.361488 269.9537 
L 100.473788 269.844002 
L 100.583101 269.742584 
L 100.584718 269.742584 
L 100.714808 269.632887 
L 100.831089 269.504562 
L 100.914774 269.394865 
L 101.030308 269.281028 
L 101.120628 269.171331 
L 101.229278 269.061633 
L 101.231601 269.061633 
L 101.362105 268.951936 
L 101.47258 268.846378 
L 101.473202 268.846378 
L 101.603084 268.736681 
L 101.719033 268.616635 
L 101.847547 268.506938 
L 101.958146 268.405519 
L 101.95856 268.405519 
L 102.068413 268.295822 
L 102.184901 268.163358 
L 102.307028 268.05366 
L 102.424304 267.952242 
L 102.568908 267.842545 
L 102.679092 267.739057 
L 102.680005 267.739057 
L 102.769911 267.62936 
L 102.880344 267.521732 
L 102.880966 267.521732 
L 102.986464 267.412035 
L 103.0998 267.298198 
L 103.201317 267.188501 
L 103.314031 267.097431 
L 103.418825 266.987734 
L 103.528304 266.884246 
L 103.529839 266.884246 
L 103.66901 266.774549 
L 103.779236 266.660712 
L 103.780065 266.660712 
L 103.913307 266.551015 
L 104.026332 266.449597 
L 104.143296 266.339899 
L 104.263973 266.223993 
L 104.372747 266.114296 
L 104.49164 265.98804 
L 104.621978 265.878343 
L 104.730753 265.747948 
L 104.732909 265.747948 
L 104.844504 265.638251 
L 104.962567 265.524414 
L 105.066407 265.414717 
L 105.18024 265.278113 
L 105.297392 265.168415 
L 105.413506 265.04216 
L 105.538039 264.932463 
L 105.65237 264.853812 
L 105.767241 264.744115 
L 105.882899 264.632348 
L 105.989185 264.52265 
L 106.09966 264.379837 
L 106.100199 264.379837 
L 106.214821 264.27014 
L 106.327535 264.189419 
L 106.428057 264.078687 
L 106.544793 263.938978 
L 106.681767 263.829281 
L 106.797923 263.703026 
L 106.907983 263.593328 
L 107.022687 263.504329 
L 107.138263 263.394631 
L 107.254294 263.270446 
L 107.370907 263.160749 
L 107.488846 263.048982 
L 107.628598 262.939284 
L 107.747615 262.810959 
L 107.841709 262.701262 
L 107.959441 262.591565 
L 108.076261 262.481867 
L 108.192126 262.363891 
L 108.298122 262.254194 
L 108.412454 262.175543 
L 108.531595 262.065846 
L 108.645429 261.925102 
L 108.737699 261.815405 
L 108.850869 261.711917 
L 108.953091 261.60222 
L 109.067671 261.517359 
L 109.174289 261.407662 
L 109.289657 261.302104 
L 109.392958 261.192407 
L 109.500695 261.07857 
L 109.50393 261.07857 
L 109.627509 260.981292 
L 109.720193 260.871594 
L 109.834069 260.720502 
L 109.962499 260.610805 
L 110.075836 260.488689 
L 110.221725 260.378992 
L 110.335351 260.252736 
L 110.487835 260.143039 
L 110.600673 260.05197 
L 110.709987 259.942272 
L 110.819425 259.828435 
L 110.821042 259.828435 
L 110.924798 259.718738 
L 111.040872 259.596622 
L 111.167602 259.488995 
L 111.28098 259.368949 
L 111.38652 259.259252 
L 111.502261 259.145415 
L 111.615597 259.035718 
L 111.731048 258.92809 
L 111.847162 258.818393 
L 111.962862 258.704556 
L 112.072217 258.594859 
L 112.182692 258.483092 
L 112.183065 258.483092 
L 112.270151 258.373394 
L 112.387219 258.274046 
L 112.505158 258.164349 
L 112.618702 258.083628 
L 112.721422 257.973931 
L 112.835877 257.864234 
L 112.938971 257.754536 
L 113.058403 257.617932 
L 113.188534 257.508235 
L 113.303943 257.400607 
L 113.388873 257.29091 
L 113.50449 257.177073 
L 113.62245 257.067376 
L 113.741778 256.953539 
L 113.844705 256.843842 
L 113.976246 256.705168 
L 114.095637 256.595471 
L 114.21341 256.485774 
L 114.325668 256.376076 
L 114.440248 256.289146 
L 114.584396 256.179449 
L 114.695202 256.051124 
L 114.807212 255.941427 
L 114.923202 255.813102 
L 115.036164 255.703404 
L 115.152196 255.581289 
L 115.288879 255.471591 
L 115.402153 255.359824 
L 115.526251 255.250127 
L 115.639421 255.144569 
L 115.796922 255.034872 
L 115.91963 254.894128 
L 116.058615 254.784431 
L 116.176616 254.689222 
L 116.283027 254.579525 
L 116.402542 254.478107 
L 116.52977 254.36841 
L 116.645843 254.246294 
L 116.782651 254.136596 
L 116.896319 254.008271 
L 117.033707 253.898574 
L 117.152434 253.807505 
L 117.296126 253.697807 
L 117.411204 253.600529 
L 117.526364 253.490831 
L 117.641111 253.399762 
L 117.742089 253.290065 
L 117.864092 253.186577 
L 117.962955 253.076879 
L 118.085788 252.965112 
L 118.198833 252.855415 
L 118.315404 252.766416 
L 118.44031 252.656718 
L 118.555305 252.55944 
L 118.678179 252.449742 
L 118.792137 252.356603 
L 118.925544 252.246906 
L 119.043981 252.157906 
L 119.167767 252.048209 
L 119.290559 251.936442 
L 119.409617 251.826745 
L 119.532409 251.714978 
L 119.656651 251.60528 
L 119.772081 251.497653 
L 119.900533 251.371398 
L 120.023366 251.2617 
L 120.143668 251.149933 
L 120.24643 251.040236 
L 120.359517 250.936748 
L 120.474014 250.827051 
L 120.599086 250.717353 
L 120.728388 250.607656 
L 120.844544 250.481401 
L 120.981559 250.371704 
L 121.104392 250.259937 
L 121.217189 250.150239 
L 121.336413 250.015705 
L 121.464678 249.906008 
L 121.59116 249.781822 
L 121.729046 249.672125 
L 121.847193 249.587265 
L 121.95605 249.477567 
L 122.079256 249.361661 
L 122.215815 249.251964 
L 122.328736 249.154685 
L 122.468239 249.044988 
L 122.468239 249.043953 
L 122.589413 248.966337 
L 122.701277 248.85664 
L 122.820357 248.744873 
L 122.969813 248.635175 
L 123.082776 248.537897 
L 123.210958 248.428199 
L 123.327238 248.345409 
L 123.472464 248.235712 
L 123.588413 248.109456 
L 123.702578 248.001829 
L 123.818485 247.881783 
L 123.961555 247.772085 
L 124.081194 247.689295 
L 124.255221 247.579598 
L 124.372808 247.490598 
L 124.510072 247.380901 
L 124.623076 247.283622 
L 124.75217 247.173925 
L 124.866668 247.082856 
L 124.988256 246.973158 
L 125.108186 246.865531 
L 125.233133 246.755833 
L 125.353685 246.639927 
L 125.474029 246.53023 
L 125.596613 246.420532 
L 125.736531 246.310835 
L 125.859986 246.190789 
L 126.013091 246.081092 
L 126.129745 245.992092 
L 126.257305 245.882395 
L 126.375244 245.745791 
L 126.514747 245.638163 
L 126.630509 245.542954 
L 126.769328 245.433257 
L 126.891 245.350467 
L 127.027932 245.240769 
L 127.158395 245.110375 
L 127.265718 245.000677 
L 127.378556 244.913747 
L 127.51694 244.80405 
L 127.633013 244.704702 
L 127.778654 244.595004 
L 127.89257 244.524633 
L 128.025438 244.414935 
L 128.143253 244.334215 
L 128.305793 244.224517 
L 128.422343 244.147936 
L 128.532361 244.040309 
L 128.647812 243.928542 
L 128.776409 243.818845 
L 128.894721 243.717426 
L 129.02365 243.607729 
L 129.14246 243.524939 
L 129.271679 243.415241 
L 129.400068 243.299335 
L 129.575526 243.189638 
L 129.693299 243.106847 
L 129.821896 242.99715 
L 129.948606 242.893662 
L 130.105671 242.783965 
L 130.225269 242.701174 
L 130.357059 242.593547 
L 130.472137 242.494198 
L 130.61558 242.384501 
L 130.735219 242.301711 
L 130.909059 242.192013 
L 131.036951 242.05334 
L 131.245916 241.943642 
L 131.367753 241.860852 
L 131.498133 241.753224 
L 131.614123 241.672504 
L 131.747033 241.562807 
L 131.871524 241.457249 
L 132.044245 241.347552 
L 132.17027 241.248203 
L 132.325553 241.138506 
L 132.45952 241.041227 
L 132.614699 240.93153 
L 132.731103 240.84667 
L 132.891963 240.736972 
L 133.014381 240.629345 
L 133.153345 240.521717 
L 133.270372 240.440997 
L 133.448774 240.3313 
L 133.584379 240.2423 
L 133.812378 240.132603 
L 133.927829 240.062231 
L 134.053689 239.952534 
L 134.175651 239.882162 
L 134.324651 239.772464 
L 134.454077 239.658628 
L 134.583005 239.54893 
L 134.708741 239.430954 
L 134.860561 239.321257 
L 134.994134 239.219839 
L 135.179129 239.110141 
L 135.318881 238.977677 
L 135.497034 238.867979 
L 135.621525 238.77691 
L 135.757877 238.667213 
L 135.882907 238.574074 
L 136.067322 238.464376 
L 136.193845 238.387795 
L 136.353835 238.278098 
L 136.4697 238.201517 
L 136.630851 238.09182 
L 136.751941 238.025587 
L 136.898329 237.91589 
L 137.016351 237.847588 
L 137.14501 237.737891 
L 137.268651 237.646821 
L 137.393059 237.537124 
L 137.525347 237.441915 
L 137.681728 237.332218 
L 137.799046 237.257706 
L 137.961274 237.148009 
L 138.087756 237.044521 
L 138.291288 236.934824 
L 138.407776 236.870661 
L 138.566479 236.760964 
L 138.684916 236.703011 
L 138.880942 236.593314 
L 139.008295 236.512593 
L 139.201501 236.402896 
L 139.323007 236.322175 
L 139.455419 236.212478 
L 139.582025 236.123478 
L 139.732062 236.013781 
L 139.853775 235.910293 
L 139.983823 235.800596 
L 140.106946 235.732294 
L 140.308861 235.622596 
L 140.424146 235.556364 
L 140.622287 235.446667 
L 140.753662 235.355597 
L 140.991261 235.2459 
L 141.115359 235.134133 
L 141.288328 235.024436 
L 141.41539 234.931297 
L 141.659729 234.821599 
L 141.786791 234.740879 
L 142.00492 234.631181 
L 142.128416 234.55874 
L 142.305823 234.449043 
L 142.42202 234.364182 
L 142.599302 234.254485 
L 142.732461 234.165486 
L 142.935371 234.055788 
L 143.051776 233.991626 
L 143.25282 233.881928 
L 143.373123 233.823975 
L 143.535849 233.714278 
L 143.659842 233.645976 
L 143.875152 233.536279 
L 143.994335 233.457628 
L 144.149555 233.34793 
L 144.277323 233.26514 
L 144.477911 233.155443 
L 144.624049 233.070583 
L 144.851426 232.960885 
L 144.97571 232.886374 
L 145.187536 232.776677 
L 145.30703 232.712514 
L 145.513569 232.606956 
L 145.631799 232.542794 
L 145.846776 232.433097 
L 145.966001 232.371004 
L 146.173141 232.261307 
L 146.295808 232.197144 
L 146.506514 232.087447 
L 146.623748 232.041912 
L 146.855563 231.932215 
L 146.979183 231.88668 
L 147.190138 231.776983 
L 147.321099 231.696262 
L 147.524424 231.586565 
L 147.646717 231.532751 
L 147.862151 231.423054 
L 148.004889 231.348543 
L 148.248439 231.238845 
L 148.396692 231.160194 
L 148.654674 231.050497 
L 148.772738 230.994614 
L 149.043948 230.884916 
L 149.181253 230.797987 
L 149.456528 230.688289 
L 149.593543 230.630336 
L 149.86214 230.520639 
L 149.986922 230.462685 
L 150.247972 230.352988 
L 150.388595 230.282616 
L 150.662335 230.172919 
L 150.80329 230.123245 
L 151.054097 230.013548 
L 151.186302 229.953525 
L 151.428193 229.843827 
L 151.572797 229.775525 
L 151.788646 229.665828 
L 151.914962 229.634782 
L 152.149969 229.525084 
L 152.279686 229.465061 
L 152.533396 229.355364 
L 152.670867 229.289132 
L 152.887297 229.179435 
L 153.009507 229.127691 
L 153.203709 229.017993 
L 153.33948 228.95797 
L 153.623089 228.850343 
L 153.736052 228.808948 
L 153.99843 228.69925 
L 154.118069 228.666134 
L 154.415156 228.556437 
L 154.539026 228.521251 
L 154.8476 228.411554 
L 154.976155 228.35567 
L 155.211577 228.244938 
L 155.374179 228.18181 
L 155.669276 228.072113 
L 155.79468 228.024509 
L 156.079243 227.914811 
L 156.198509 227.871346 
L 156.524957 227.761649 
L 156.652393 227.711975 
L 156.910996 227.602278 
L 157.036441 227.554673 
L 157.254902 227.444976 
L 157.380057 227.391162 
L 157.661801 227.281465 
L 157.791642 227.215233 
L 158.080974 227.105535 
L 158.21886 227.039303 
L 158.531789 226.929606 
L 158.659432 226.884071 
L 158.943747 226.774374 
L 159.085489 226.695723 
L 159.375402 226.586026 
L 159.499603 226.54463 
L 159.730091 226.434933 
L 159.843758 226.391468 
L 160.105804 226.281771 
L 160.229383 226.240376 
L 160.512827 226.130679 
L 160.650257 226.081004 
L 160.923499 225.971307 
L 161.058959 225.911284 
L 161.353371 225.801587 
L 161.483129 225.727075 
L 161.727799 225.617378 
L 161.857391 225.553216 
L 162.15987 225.443518 
L 162.28096 225.397984 
L 162.540933 225.288286 
L 162.657918 225.251031 
L 163.00002 225.141333 
L 163.133614 225.099938 
L 163.409262 224.990241 
L 163.520027 224.919869 
L 163.520338 224.919869 
L 163.821302 224.810172 
L 163.938039 224.752219 
L 164.206305 224.642521 
L 164.333989 224.590777 
L 164.55809 224.48108 
L 164.672795 224.431406 
L 164.999491 224.321709 
L 165.130286 224.265825 
L 165.384079 224.156128 
L 165.496503 224.123012 
L 165.728359 224.013314 
L 165.8915 223.938803 
L 166.14239 223.829106 
L 166.269204 223.785641 
L 166.533406 223.675944 
L 166.676765 223.609711 
L 166.915008 223.500014 
L 167.039416 223.444131 
L 167.290265 223.334433 
L 167.436984 223.259922 
L 167.729095 223.150225 
L 167.846495 223.10262 
L 168.167012 222.992923 
L 168.282546 222.914272 
L 168.593629 222.804575 
L 168.718929 222.732133 
L 169.000175 222.622436 
L 169.116829 222.581041 
L 169.312026 222.473413 
L 169.434195 222.407181 
L 169.726886 222.297484 
L 169.84354 222.24574 
L 169.967326 222.198135 
L 170.248862 222.088438 
L 170.362261 222.047043 
L 170.662562 221.937345 
L 170.791366 221.893881 
L 171.099194 221.784183 
L 171.25344 221.703463 
L 171.537734 221.593765 
L 171.651858 221.544091 
L 171.965864 221.434394 
L 172.092139 221.399208 
L 172.301477 221.289511 
L 172.430613 221.227418 
L 172.668689 221.117721 
L 172.814039 221.047349 
L 173.068703 220.937652 
L 173.208787 220.885908 
L 173.508404 220.77621 
L 173.641148 220.720327 
L 173.891872 220.61063 
L 174.010641 220.552676 
L 174.31739 220.442979 
L 174.4441 220.401584 
L 174.687091 220.291887 
L 174.817968 220.240143 
L 175.097473 220.130445 
L 175.236727 220.09319 
L 175.510799 219.983492 
L 175.670518 219.906911 
L 175.930097 219.797214 
L 176.04364 219.733051 
L 176.329074 219.623354 
L 176.463187 219.548843 
L 176.661245 219.439146 
L 176.827351 219.343937 
L 177.103848 219.234239 
L 177.245176 219.174216 
L 177.482133 219.064519 
L 177.619107 219.006566 
L 177.843995 218.895834 
L 177.963013 218.847194 
L 178.235136 218.737497 
L 178.34702 218.685753 
L 178.624451 218.576056 
L 178.752177 218.54087 
L 178.977398 218.433242 
L 178.977398 218.431173 
L 179.108275 218.385638 
L 179.363934 218.275941 
L 179.48092 218.222127 
L 179.740809 218.11243 
L 179.874009 218.060686 
L 180.099478 217.950988 
L 180.223472 217.897175 
L 180.405544 217.787477 
L 180.527609 217.750222 
L 180.771906 217.642594 
L 180.891048 217.59292 
L 181.132234 217.483223 
L 181.268834 217.406642 
L 181.522006 217.296944 
L 181.66097 217.238991 
L 181.866098 217.129294 
L 181.995172 217.052713 
L 182.220476 216.943015 
L 182.341235 216.889202 
L 182.613358 216.779504 
L 182.741374 216.73397 
L 182.958923 216.624272 
L 183.075286 216.576668 
L 183.298433 216.466971 
L 183.436485 216.411087 
L 183.652043 216.30346 
L 183.76878 216.257925 
L 184.067609 216.148228 
L 184.187373 216.086135 
L 184.363659 215.976438 
L 184.492298 215.916415 
L 184.696286 215.806717 
L 184.80985 215.754973 
L 185.017674 215.645276 
L 185.140382 215.597672 
L 185.358512 215.487974 
L 185.499715 215.417603 
L 185.721038 215.307905 
L 185.842958 215.247882 
L 186.062705 215.138185 
L 186.191053 215.078162 
L 186.464627 214.96743 
L 186.648212 214.877395 
L 186.866466 214.767698 
L 186.988262 214.718024 
L 187.304176 214.608327 
L 187.435842 214.533815 
L 187.681383 214.426188 
L 187.806662 214.362025 
L 187.938535 214.295793 
L 188.172754 214.186096 
L 188.286298 214.126073 
L 188.561862 214.016375 
L 188.67383 213.948073 
L 188.90241 213.838376 
L 189.030758 213.770074 
L 189.229749 213.660377 
L 189.34887 213.614842 
L 189.663789 213.505145 
L 189.785668 213.465819 
L 190.039295 213.356122 
L 190.167353 213.298169 
L 190.433877 213.188471 
L 190.560027 213.142937 
L 190.816391 213.033239 
L 190.949135 212.971147 
L 191.157188 212.861449 
L 191.288293 212.820054 
L 191.510507 212.710357 
L 191.641095 212.633776 
L 191.86955 212.524079 
L 191.994041 212.457846 
L 192.216608 212.348149 
L 192.319121 212.310893 
L 192.327249 212.310893 
L 192.52597 212.201196 
L 192.65917 212.137034 
L 192.950701 212.027336 
L 193.077804 211.956964 
L 193.30684 211.847267 
L 193.424945 211.793453 
L 193.688194 211.683756 
L 193.814178 211.634082 
L 194.024843 211.524385 
L 194.150163 211.468501 
L 194.347371 211.360874 
L 194.46869 211.292572 
L 194.738988 211.182874 
L 194.876833 211.102154 
L 195.1028 210.992456 
L 195.218251 210.948991 
L 195.445981 210.839294 
L 195.576257 210.779271 
L 195.878569 210.669574 
L 196.009364 210.6199 
L 196.282565 210.512272 
L 196.404029 210.44604 
L 196.622324 210.336343 
L 196.747873 210.265971 
L 197.011018 210.156274 
L 197.139075 210.09832 
L 197.371678 209.988623 
L 197.496874 209.920321 
L 197.773019 209.810624 
L 197.916835 209.725764 
L 198.122233 209.616066 
L 198.245688 209.547764 
L 198.46587 209.438067 
L 198.59341 209.378044 
L 198.843906 209.268347 
L 198.965598 209.214533 
L 199.206204 209.104836 
L 199.324184 209.051022 
L 199.506899 208.941325 
L 199.629856 208.885441 
L 199.854869 208.775744 
L 199.969532 208.72607 
L 200.216442 208.616372 
L 200.344707 208.539791 
L 200.602439 208.430094 
L 200.732073 208.365931 
L 201.010043 208.258304 
L 201.130512 208.198281 
L 201.464507 208.088584 
L 201.592938 208.020282 
L 201.866221 207.910584 
L 201.988722 207.854701 
L 202.204032 207.745004 
L 202.326532 207.69119 
L 202.577962 207.581493 
L 202.707512 207.51733 
L 202.983492 207.407633 
L 203.107734 207.357958 
L 203.36696 207.248261 
L 203.494935 207.190308 
L 203.722436 207.080611 
L 203.843029 207.008169 
L 204.09759 206.898472 
L 204.232718 206.82396 
L 204.466523 206.714263 
L 204.594041 206.670798 
L 204.843356 206.561101 
L 204.968013 206.494869 
L 205.288074 206.385171 
L 205.402738 206.323079 
L 205.693729 206.213381 
L 205.817266 206.130591 
L 206.05696 206.020894 
L 206.176807 205.954661 
L 206.463775 205.844964 
L 206.588225 205.780802 
L 206.789062 205.673174 
L 206.908245 205.611081 
L 207.122974 205.501384 
L 207.240996 205.433082 
L 207.416578 205.323385 
L 207.540986 205.259222 
L 207.771183 205.149525 
L 207.886012 205.10399 
L 208.081209 204.994293 
L 208.19525 204.946688 
L 208.494121 204.836991 
L 208.613304 204.785247 
L 208.869129 204.67555 
L 208.993703 204.632085 
L 209.224398 204.522388 
L 209.349511 204.476853 
L 209.629223 204.367156 
L 209.763128 204.313342 
L 210.001743 204.203645 
L 210.128018 204.149831 
L 210.332856 204.040134 
L 210.450671 203.98425 
L 210.680557 203.874553 
L 210.805214 203.822809 
L 211.035909 203.713112 
L 211.16944 203.64067 
L 211.465035 203.530973 
L 211.585586 203.458531 
L 211.7632 203.348834 
L 211.896317 203.278462 
L 212.132486 203.168765 
L 212.271782 203.094254 
L 212.414478 202.984556 
L 212.540794 202.918324 
L 212.788699 202.808627 
L 212.918498 202.725836 
L 213.113114 202.616139 
L 213.231924 202.558186 
L 213.444746 202.448489 
L 213.580765 202.390535 
L 213.846979 202.280838 
L 213.978333 202.195978 
L 214.286617 202.086281 
L 214.409574 202.028327 
L 214.639771 201.91863 
L 214.753232 201.877235 
L 214.961616 201.767538 
L 215.089342 201.684747 
L 215.27104 201.57505 
L 215.393023 201.510887 
L 215.558652 201.40119 
L 215.673937 201.363935 
L 215.903429 201.254237 
L 216.031901 201.185935 
L 216.284492 201.076238 
L 216.408278 201.005866 
L 216.612557 200.896169 
L 216.755087 200.815448 
L 217.028869 200.705751 
L 217.148218 200.6271 
L 217.360417 200.517403 
L 217.48354 200.467729 
L 217.709922 200.358031 
L 217.839265 200.277311 
L 218.124534 200.167613 
L 218.239819 200.101381 
L 218.455667 199.991684 
L 218.580366 199.900614 
L 218.7834 199.790917 
L 218.907933 199.724685 
L 219.095873 199.614988 
L 219.217213 199.546686 
L 219.478595 199.436988 
L 219.596451 199.381105 
L 219.906062 199.271407 
L 220.032917 199.203105 
L 220.251254 199.093408 
L 220.363221 199.041664 
L 220.540711 198.931967 
L 220.670095 198.867804 
L 220.894901 198.758107 
L 221.02582 198.702224 
L 221.212931 198.592526 
L 221.335203 198.520085 
L 221.554224 198.410387 
L 221.67743 198.329667 
L 221.909037 198.21997 
L 222.022083 198.168226 
L 222.203263 198.058528 
L 222.333871 197.981947 
L 222.551752 197.87225 
L 222.670334 197.810157 
L 222.924044 197.70046 
L 223.0385 197.644576 
L 223.232452 197.534879 
L 223.356239 197.489344 
L 223.607419 197.379647 
L 223.73359 197.315485 
L 223.950662 197.205787 
L 224.068166 197.143695 
L 224.253928 197.033997 
L 224.377922 196.971905 
L 224.638723 196.862207 
L 224.761846 196.804254 
L 224.988187 196.694557 
L 225.106914 196.646952 
L 225.360209 196.537255 
L 225.486815 196.460674 
L 225.697605 196.350977 
L 225.81994 196.288884 
L 226.122625 196.179187 
L 226.24861 196.110884 
L 226.453925 196.001187 
L 226.578955 195.949443 
L 226.824911 195.839746 
L 226.939076 195.756956 
L 227.170725 195.647258 
L 227.308694 195.54791 
L 227.570034 195.438213 
L 227.683121 195.394748 
L 227.906994 195.28505 
L 228.030926 195.222958 
L 228.28024 195.11326 
L 228.39988 195.059447 
L 228.606273 194.949749 
L 228.729189 194.873168 
L 228.946945 194.763471 
L 229.065921 194.703448 
L 229.288239 194.593751 
L 229.288239 194.592716 
L 229.419365 194.502681 
L 229.654207 194.392984 
L 229.778553 194.328821 
L 229.943539 194.219124 
L 230.055507 194.16945 
L 230.310005 194.059753 
L 230.436113 193.985241 
L 230.640931 193.875544 
L 230.761732 193.813451 
L 230.964352 193.703754 
L 231.079471 193.633382 
L 231.286113 193.523685 
L 231.398184 193.469871 
L 231.513449 193.428476 
L 231.771099 193.318779 
L 231.894014 193.260825 
L 232.127695 193.151128 
L 232.246505 193.093175 
L 232.510831 192.983478 
L 232.623089 192.925524 
L 232.836739 192.815827 
L 232.961521 192.739246 
L 233.186949 192.629549 
L 233.316044 192.573665 
L 233.495275 192.466038 
L 233.61255 192.401875 
L 233.823049 192.292178 
L 233.950029 192.223876 
L 234.178982 192.114179 
L 234.287259 192.056225 
L 234.290078 192.056225 
L 234.486105 191.946528 
L 234.585777 191.884435 
L 234.597118 191.884435 
L 234.82661 191.774738 
L 234.943637 191.702296 
L 235.165831 191.592599 
L 235.281116 191.542925 
L 235.50248 191.433228 
L 235.622866 191.373205 
L 235.835397 191.263507 
L 235.95346 191.176577 
L 236.156205 191.06688 
L 236.277917 191.017206 
L 236.512261 190.907509 
L 236.630574 190.839207 
L 236.797945 190.729509 
L 236.923307 190.659138 
L 237.173368 190.54944 
L 237.291929 190.493557 
L 237.495378 190.38386 
L 237.623228 190.319697 
L 237.88233 190.21 
L 237.996412 190.137558 
L 238.176846 190.027861 
L 238.302042 189.967838 
L 238.476338 189.858141 
L 238.594319 189.793978 
L 238.829078 189.684281 
L 238.952325 189.615979 
L 239.18078 189.506281 
L 239.293411 189.460747 
L 239.5166 189.351049 
L 239.640303 189.291026 
L 239.880868 189.181329 
L 240.004571 189.110957 
L 240.204703 189.00126 
L 240.328738 188.939167 
L 240.535297 188.82947 
L 240.672395 188.759098 
L 240.924198 188.649401 
L 241.045662 188.608006 
L 241.301321 188.498308 
L 241.40881 188.438285 
L 241.412377 188.438285 
L 241.649167 188.328588 
L 241.766153 188.258216 
L 242.004809 188.148519 
L 242.122873 188.096775 
L 242.246867 188.032613 
L 242.474576 187.922915 
L 242.591768 187.864962 
L 242.806082 187.755265 
L 242.927754 187.686963 
L 243.141819 187.577265 
L 243.259634 187.513103 
L 243.470423 187.403406 
L 243.594459 187.355801 
L 243.779412 187.248174 
L 243.894946 187.177802 
L 244.069325 187.068105 
L 244.194107 187.001872 
L 244.374209 186.892175 
L 244.492148 186.828012 
L 244.712019 186.718315 
L 244.827802 186.67485 
L 245.02333 186.565153 
L 245.138201 186.50306 
L 245.360809 186.393363 
L 245.491355 186.325061 
L 245.688791 186.215364 
L 245.803081 186.165689 
L 246.02996 186.055992 
L 246.137076 186.006318 
L 246.141057 186.006318 
L 246.351183 185.896621 
L 246.47331 185.824179 
L 246.734029 185.714482 
L 246.852113 185.631691 
L 247.10178 185.521994 
L 247.212213 185.47439 
L 247.212877 185.47439 
L 247.391735 185.366762 
L 247.509715 185.30053 
L 247.740576 185.190833 
L 247.864528 185.12874 
L 248.070797 185.019043 
L 248.188902 184.965229 
L 248.372322 184.855531 
L 248.492127 184.809997 
L 248.707685 184.7003 
L 248.823344 184.627858 
L 249.01514 184.518161 
L 249.132333 184.460207 
L 249.326783 184.35051 
L 249.445386 184.280138 
L 249.643838 184.170441 
L 249.766318 184.08972 
L 250.041696 183.982093 
L 250.157458 183.934488 
L 250.322133 183.824791 
L 250.434847 183.760629 
L 250.669523 183.650931 
L 250.788291 183.592978 
L 250.978097 183.483281 
L 251.093051 183.421188 
L 251.31682 183.311491 
L 251.430405 183.247328 
L 251.65208 183.137631 
L 251.770185 183.079678 
L 251.931978 182.96998 
L 252.045438 182.912027 
L 252.237774 182.80233 
L 252.35957 182.744377 
L 252.582841 182.634679 
L 252.712392 182.562238 
L 252.902198 182.45461 
L 253.018188 182.396657 
L 253.274054 182.28696 
L 253.388593 182.231076 
L 253.657605 182.121379 
L 253.777411 182.055147 
L 254.005783 181.945449 
L 254.127911 181.893705 
L 254.303741 181.784008 
L 254.420685 181.713636 
L 254.651463 181.603939 
L 254.769568 181.552195 
L 254.964599 181.442498 
L 255.07864 181.370056 
L 255.358807 181.260359 
L 255.47571 181.192057 
L 255.721209 181.08236 
L 255.825297 181.038895 
L 255.832306 181.038895 
L 256.059558 180.929197 
L 256.173102 180.873314 
L 256.40558 180.763617 
L 256.525157 180.699454 
L 256.717015 180.589757 
L 256.830994 180.513176 
L 257.045744 180.403478 
L 257.162107 180.366223 
L 257.407814 180.256526 
L 257.524633 180.163386 
L 257.781288 180.053689 
L 257.899849 180.008154 
L 258.115739 179.898457 
L 258.236001 179.811527 
L 258.494811 179.70183 
L 258.612502 179.623179 
L 258.840003 179.513482 
L 258.961094 179.449319 
L 259.149366 179.339622 
L 259.27 179.296157 
L 259.527152 179.18646 
L 259.642064 179.126437 
L 259.94616 179.018809 
L 260.059496 178.969135 
L 260.273271 178.859438 
L 260.401785 178.791136 
L 260.589849 178.681438 
L 260.703558 178.652462 
L 260.94715 178.54173 
L 261.041825 178.49309 
L 261.058164 178.49309 
L 261.295328 178.383393 
L 261.416626 178.304742 
L 261.627871 178.195045 
L 261.7427 178.132952 
L 261.973727 178.023255 
L 262.085901 177.969441 
L 262.333101 177.859744 
L 262.456473 177.791442 
L 262.658927 177.681745 
L 262.774212 177.615512 
L 262.958668 177.505815 
L 263.070511 177.456141 
L 263.280761 177.345409 
L 263.391236 177.296769 
L 263.391609 177.296769 
L 263.618986 177.187072 
L 263.738667 177.12084 
L 264.065986 177.011142 
L 264.18492 176.951119 
L 264.385798 176.841422 
L 264.502784 176.787608 
L 264.72477 176.677911 
L 264.836654 176.59719 
L 265.021152 176.487493 
L 265.139962 176.42954 
L 265.345982 176.318808 
L 265.459774 176.25361 
L 265.674877 176.143913 
L 265.794682 176.08389 
L 266.035827 175.974193 
L 266.149163 175.918309 
L 266.34071 175.808612 
L 266.460101 175.756868 
L 266.6514 175.647171 
L 266.765358 175.576799 
L 266.960306 175.467102 
L 267.077415 175.39466 
L 267.296001 175.283928 
L 267.409544 175.22287 
L 267.659564 175.113173 
L 267.774849 175.044871 
L 268.052736 174.935173 
L 268.171339 174.87722 
L 268.368858 174.767523 
L 268.48858 174.701291 
L 268.749464 174.591593 
L 268.86334 174.548128 
L 269.038755 174.438431 
L 269.164035 174.357711 
L 269.435411 174.248013 
L 269.554096 174.175572 
L 269.797108 174.065874 
L 269.91853 173.999642 
L 270.132139 173.889945 
L 270.245558 173.831992 
L 270.470696 173.722294 
L 270.592139 173.666411 
L 270.767742 173.556714 
L 270.885225 173.488411 
L 271.080422 173.378714 
L 271.193924 173.320761 
L 271.373238 173.211064 
L 271.494287 173.134483 
L 271.676296 173.024785 
L 271.8 172.954413 
L 272.044151 172.844716 
L 272.163231 172.776414 
L 272.362284 172.666717 
L 272.478171 172.610833 
L 272.746167 172.501136 
L 272.863236 172.418346 
L 273.116199 172.308648 
L 273.232148 172.227928 
L 273.456456 172.118231 
L 273.569212 172.03544 
L 273.762459 171.925743 
L 273.878864 171.86365 
L 274.086129 171.753953 
L 274.204524 171.698069 
L 274.459934 171.588372 
L 274.577376 171.526279 
L 274.746032 171.416582 
L 274.861857 171.333792 
L 275.066425 171.224094 
L 275.179927 171.166141 
L 275.381593 171.056444 
L 275.50032 170.984002 
L 275.748432 170.874305 
L 275.867056 170.818422 
L 276.067955 170.708724 
L 276.183115 170.628004 
L 276.440516 170.518306 
L 276.552816 170.452074 
L 276.779736 170.342377 
L 276.894234 170.257517 
L 277.14558 170.146785 
L 277.253733 170.094006 
L 277.256511 170.094006 
L 277.464937 169.984308 
L 277.574291 169.924285 
L 277.57595 169.924285 
L 277.796443 169.814588 
L 277.911977 169.742146 
L 278.108086 169.632449 
L 278.227104 169.582775 
L 278.412804 169.473078 
L 278.526306 169.394427 
L 278.740206 169.28473 
L 278.858601 169.228846 
L 279.105842 169.119149 
L 279.22403 169.065335 
L 279.385429 168.955638 
L 279.503161 168.874917 
L 279.712727 168.76522 
L 279.827908 168.707267 
L 280.027293 168.599639 
L 280.142579 168.531337 
L 280.368421 168.42164 
L 280.484536 168.361617 
L 280.680023 168.253989 
L 280.793649 168.191897 
L 280.992661 168.082199 
L 281.113752 168.005618 
L 281.297794 167.895921 
L 281.414654 167.827619 
L 281.628056 167.717922 
L 281.746825 167.64548 
L 281.936216 167.535783 
L 282.051999 167.461271 
L 282.239938 167.351574 
L 282.362149 167.289481 
L 282.545734 167.179784 
L 282.659651 167.136319 
L 282.889392 167.026622 
L 283.012452 166.941762 
L 283.233962 166.832064 
L 283.347298 166.776181 
L 283.596446 166.666484 
L 283.708911 166.594042 
L 283.946718 166.484345 
L 284.063268 166.418112 
L 284.248305 166.308415 
L 284.363673 166.240113 
L 284.542261 166.129381 
L 284.668225 166.066253 
L 284.887059 165.956556 
L 285.005288 165.890324 
L 285.196172 165.780627 
L 285.310587 165.728883 
L 285.539063 165.619185 
L 285.653995 165.544674 
L 285.903517 165.434977 
L 286.017102 165.370814 
L 286.240539 165.261117 
L 286.352465 165.217652 
L 286.573705 165.107955 
L 286.694837 165.043792 
L 286.910935 164.934095 
L 287.028293 164.874072 
L 287.268111 164.76334 
L 287.38292 164.704351 
L 287.564245 164.594654 
L 287.681147 164.524282 
L 287.874353 164.414585 
L 288.003614 164.344213 
L 288.181767 164.234516 
L 288.298669 164.166214 
L 288.450696 164.056517 
L 288.572907 163.984075 
L 288.779508 163.874378 
L 288.897322 163.793657 
L 289.173385 163.68396 
L 289.28896 163.623937 
L 289.472379 163.51424 
L 289.587167 163.454217 
L 289.795551 163.344519 
L 289.916559 163.24931 
L 290.138586 163.139613 
L 290.253996 163.071311 
L 290.450727 162.961614 
L 290.562943 162.901591 
L 290.793514 162.791894 
L 290.908384 162.731871 
L 291.122657 162.622173 
L 291.246319 162.539383 
L 291.457398 162.429686 
L 291.570403 162.363453 
L 291.792472 162.253756 
L 291.904688 162.191663 
L 292.106976 162.081966 
L 292.220561 162.042641 
L 292.402778 161.932943 
L 292.524781 161.862571 
L 292.726447 161.752874 
L 292.846294 161.686642 
L 293.061562 161.576945 
L 293.17975 161.492085 
L 293.391286 161.382387 
L 293.508105 161.314085 
L 293.691566 161.204388 
L 293.804135 161.127807 
L 294.018428 161.01811 
L 294.128737 160.960156 
L 294.129442 160.960156 
L 294.305646 160.850459 
L 294.418153 160.771808 
L 294.659339 160.662111 
L 294.776283 160.591739 
L 294.989312 160.482042 
L 295.102979 160.417879 
L 295.314391 160.308182 
L 295.430795 160.223322 
L 295.657799 160.113625 
L 295.778351 160.024625 
L 295.985118 159.914928 
L 296.100279 159.863184 
L 296.301177 159.753486 
L 296.419884 159.672766 
L 296.628973 159.563069 
L 296.737581 159.500976 
L 296.740069 159.500976 
L 297.008045 159.390244 
L 297.124699 159.322976 
L 297.358794 159.213279 
L 297.479885 159.136698 
L 297.652149 159.025966 
L 297.768637 158.962838 
L 297.981458 158.853141 
L 298.093882 158.77656 
L 298.263202 158.666863 
L 298.378321 158.60063 
L 298.554939 158.490933 
L 298.670473 158.420561 
L 298.919622 158.310864 
L 299.043823 158.207376 
L 299.217124 158.097679 
L 299.332367 158.031446 
L 299.542224 157.921749 
L 299.656804 157.853447 
L 299.812128 157.742715 
L 299.925422 157.687866 
L 300.11162 157.578169 
L 300.231716 157.509867 
L 300.399086 157.40017 
L 300.511386 157.340147 
L 300.669467 157.230449 
L 300.787199 157.151799 
L 300.945488 157.042101 
L 301.061727 156.959311 
L 301.260946 156.849614 
L 301.37901 156.764753 
L 301.585404 156.654021 
L 301.701186 156.597103 
L 301.935489 156.487406 
L 302.046005 156.437731 
L 302.046544 156.437731 
L 302.250118 156.328034 
L 302.370669 156.239035 
L 302.541938 156.129337 
L 302.657058 156.065175 
L 302.860465 155.955477 
L 302.973013 155.883036 
L 303.165681 155.773339 
L 303.279639 155.702967 
L 303.450576 155.593269 
L 303.568847 155.527037 
L 303.758445 155.41734 
L 303.874933 155.311782 
L 304.0535 155.202085 
L 304.168246 155.144132 
L 304.344865 155.034434 
L 304.462099 154.959923 
L 304.641579 154.850226 
L 304.753878 154.788133 
L 304.930289 154.678436 
L 305.042506 154.622552 
L 305.222234 154.514925 
L 305.336151 154.446623 
L 305.499955 154.336925 
L 305.613706 154.270693 
L 305.801356 154.160996 
L 305.910171 154.098903 
L 305.912411 154.098903 
L 306.075303 153.989206 
L 306.187602 153.927113 
L 306.411371 153.817416 
L 306.523712 153.755323 
L 306.68648 153.645626 
L 306.800936 153.591812 
L 307.00198 153.482115 
L 307.115689 153.417952 
L 307.286833 153.308255 
L 307.40075 153.237883 
L 307.552404 153.128186 
L 307.654667 153.059884 
L 307.663459 153.059884 
L 307.895232 152.950186 
L 308.007697 152.871536 
L 308.198996 152.761838 
L 308.313244 152.681118 
L 308.471637 152.57142 
L 308.583459 152.496909 
L 308.753028 152.387212 
L 308.870345 152.3127 
L 309.072426 152.203003 
L 309.184684 152.14505 
L 309.397671 152.035353 
L 309.51026 151.958772 
L 309.684474 151.849074 
L 309.798929 151.795261 
L 309.982349 151.685563 
L 310.099935 151.608982 
L 310.282505 151.499285 
L 310.395053 151.426843 
L 310.567773 151.316111 
L 310.67717 151.248844 
L 310.678745 151.248844 
L 310.84226 151.139147 
L 310.958623 151.054287 
L 311.099744 150.944589 
L 311.215609 150.886636 
L 311.382939 150.776939 
L 311.496772 150.710706 
L 311.673349 150.601009 
L 311.786084 150.520289 
L 311.978108 150.410591 
L 312.096898 150.362987 
L 312.270095 150.25329 
L 312.380424 150.180848 
L 312.381067 150.180848 
L 312.586797 150.071151 
L 312.69694 149.98836 
L 312.697894 149.98836 
L 312.89927 149.878663 
L 313.014804 149.808291 
L 313.219372 149.698594 
L 313.334658 149.630292 
L 313.534789 149.520595 
L 313.659612 149.435735 
L 313.822525 149.326037 
L 313.942724 149.249456 
L 314.113579 149.139759 
L 314.225961 149.073527 
L 314.399428 148.963829 
L 314.51239 148.87069 
L 314.682996 148.760993 
L 314.795005 148.709249 
L 314.992607 148.599552 
L 315.106192 148.539529 
L 315.307402 148.429831 
L 315.419535 148.376018 
L 315.598642 148.26632 
L 315.711957 148.210437 
L 315.87263 148.10074 
L 315.987501 148.038647 
L 316.197875 147.928949 
L 316.315607 147.848229 
L 316.466224 147.738532 
L 316.580887 147.651602 
L 316.78077 147.543974 
L 316.78077 147.541904 
L 316.896221 147.471533 
L 317.043873 147.361835 
L 317.163533 147.289394 
L 317.325223 147.179696 
L 317.438891 147.115534 
L 317.591001 147.005837 
L 317.703507 146.935465 
L 317.897253 146.825768 
L 317.99624 146.745047 
L 318.008349 146.745047 
L 318.212835 146.63535 
L 318.32584 146.538071 
L 318.524396 146.428374 
L 318.640137 146.353862 
L 318.7864 146.244165 
L 318.900275 146.175863 
L 319.072622 146.066166 
L 319.189193 145.966817 
L 319.323885 145.85712 
L 319.436724 145.77019 
L 319.583381 145.659458 
L 319.706441 145.579772 
L 319.917853 145.470075 
L 320.035501 145.364517 
L 320.218755 145.25482 
L 320.334455 145.180309 
L 320.537655 145.070611 
L 320.642739 145.006449 
L 320.648752 145.006449 
L 320.813013 144.896752 
L 320.927676 144.809822 
L 321.075887 144.700124 
L 321.189721 144.633892 
L 321.383819 144.52316 
L 321.526826 144.433125 
L 321.74761 144.323428 
L 321.859785 144.265475 
L 322.034745 144.155778 
L 322.147666 144.064708 
L 322.33262 143.955011 
L 322.449771 143.872221 
L 322.580524 143.762523 
L 322.696867 143.677663 
L 322.870396 143.567966 
L 322.988708 143.514152 
L 323.191618 143.404455 
L 323.308521 143.311316 
L 323.497912 143.201618 
L 323.613694 143.127107 
L 323.807523 143.01741 
L 323.921356 142.947038 
L 324.057169 142.837341 
L 324.169717 142.76076 
L 324.35322 142.651062 
L 324.475472 142.564132 
L 324.63884 142.454435 
L 324.766981 142.363366 
L 324.915711 142.253669 
L 325.027886 142.189506 
L 325.20098 142.079809 
L 325.316016 141.98253 
L 325.47783 141.871798 
L 325.596433 141.781763 
L 325.758578 141.672066 
L 325.869509 141.576857 
L 326.038539 141.46716 
L 326.152331 141.398858 
L 326.328161 141.289161 
L 326.440585 141.222928 
L 326.609988 141.113231 
L 326.7266 141.024231 
L 326.928805 140.914534 
L 327.043717 140.821395 
L 327.216437 140.711698 
L 327.334294 140.602 
L 327.489141 140.492303 
L 327.608365 140.395024 
L 327.791287 140.285327 
L 327.909434 140.200467 
L 328.04367 140.09077 
L 328.160697 140.007979 
L 328.341214 139.898282 
L 328.454405 139.792724 
L 328.632412 139.683027 
L 328.745126 139.598167 
L 328.921413 139.48847 
L 329.034252 139.40154 
L 329.195236 139.291842 
L 329.313548 139.192494 
L 329.475404 139.082797 
L 329.6023 138.977239 
L 329.770003 138.867542 
L 329.887278 138.782682 
L 330.080319 138.672984 
L 330.193593 138.619171 
L 330.337969 138.509473 
L 330.443965 138.441171 
L 330.449045 138.441171 
L 330.592094 138.331474 
L 330.708561 138.242474 
L 330.85219 138.131742 
L 330.966729 138.047917 
L 331.11295 137.93822 
L 331.11295 137.937185 
L 331.23006 137.865778 
L 331.404688 137.758151 
L 331.404688 137.756081 
L 331.517734 137.658802 
L 331.666402 137.549105 
L 331.781231 137.455966 
L 331.93305 137.346268 
L 332.049248 137.263478 
L 332.204675 137.153781 
L 332.315108 137.07306 
L 332.315565 137.07306 
L 332.451066 136.963363 
L 332.56604 136.884712 
L 332.717196 136.775015 
L 332.826717 136.698434 
L 332.828293 136.698434 
L 332.981481 136.588736 
L 333.095688 136.510085 
L 333.235689 136.400388 
L 333.344961 136.321737 
L 333.346661 136.321737 
L 333.504515 136.21204 
L 333.617499 136.143738 
L 333.759822 136.034041 
L 333.872577 135.949181 
L 334.013947 135.839483 
L 334.126495 135.760832 
L 334.288101 135.651135 
L 334.40011 135.551787 
L 334.544652 135.442089 
L 334.663566 135.332392 
L 334.854616 135.222695 
L 334.968781 135.146114 
L 335.081827 135.036417 
L 335.192467 134.961905 
L 335.192882 134.961905 
L 335.350964 134.852208 
L 335.462931 134.761139 
L 335.598122 134.650406 
L 335.709011 134.560372 
L 335.709219 134.560372 
L 335.87634 134.450675 
L 335.994363 134.367884 
L 336.149583 134.258187 
L 336.270135 134.169187 
L 336.399022 134.05949 
L 336.513892 133.999467 
L 336.672596 133.88977 
L 336.785807 133.784212 
L 336.900844 133.686933 
L 337.046153 133.577236 
L 337.15895 133.492376 
L 337.312221 133.382679 
L 337.430243 133.299888 
L 337.580404 133.192261 
L 337.692745 133.130168 
L 337.849333 133.019436 
L 337.960347 132.94389 
L 337.96043 132.94389 
L 338.125686 132.834192 
L 338.245761 132.749332 
L 338.380599 132.639635 
L 338.500819 132.51338 
L 338.620728 132.407822 
L 338.753948 132.298125 
L 338.86687 132.202916 
L 339.017031 132.093218 
L 339.130076 131.99387 
L 339.279076 131.884173 
L 339.389447 131.793103 
L 339.390173 131.793103 
L 339.549416 131.683406 
L 339.662192 131.600616 
L 339.789731 131.499197 
L 339.955733 131.3895 
L 340.069235 131.329477 
L 340.212139 131.21978 
L 340.327093 131.124571 
L 340.472609 131.014874 
L 340.587231 130.925874 
L 340.726817 130.816177 
L 340.842143 130.712689 
L 340.981813 130.602991 
L 341.089592 130.489155 
L 341.092826 130.489155 
L 341.284706 130.379457 
L 341.396383 130.311155 
L 341.546544 130.201458 
L 341.652187 130.129016 
L 341.657558 130.129016 
L 341.810746 130.019319 
L 341.926321 129.909622 
L 342.098171 129.799925 
L 342.212004 129.708855 
L 342.379914 129.601228 
L 342.491882 129.512228 
L 342.633127 129.402531 
L 342.742316 129.32388 
L 342.74414 129.32388 
L 342.909521 129.214183 
L 343.019622 129.143811 
L 343.020617 129.143811 
L 343.135032 129.06309 
L 343.281606 128.952358 
L 343.394257 128.870603 
L 343.553293 128.760905 
L 343.668495 128.659487 
L 343.829189 128.54979 
L 343.928177 128.473209 
L 343.940244 128.473209 
L 344.079209 128.363511 
L 344.179813 128.289 
L 344.190305 128.289 
L 344.346977 128.179303 
L 344.459484 128.106861 
L 344.613086 127.996129 
L 344.72099 127.922653 
L 344.724059 127.922653 
L 344.842682 127.815025 
L 344.956702 127.697049 
L 345.132367 127.587352 
L 345.252048 127.483864 
L 345.400053 127.374166 
L 345.508495 127.291376 
L 345.511149 127.291376 
L 345.641902 127.181679 
L 345.758556 127.092679 
L 345.903409 126.982982 
L 346.018528 126.879494 
L 346.124856 126.769797 
L 346.244869 126.674588 
L 346.346054 126.56489 
L 346.455119 126.465542 
L 346.457109 126.465542 
L 346.592549 126.355845 
L 346.710405 126.246147 
L 346.822621 126.13852 
L 346.93716 126.05366 
L 347.071604 125.943962 
L 347.182493 125.834265 
L 347.182701 125.834265 
L 347.304372 125.724568 
L 347.416879 125.650057 
L 347.554599 125.540359 
L 347.667396 125.453429 
L 347.808952 125.343732 
L 347.920816 125.254732 
L 348.051901 125.144 
L 348.162417 125.045687 
L 348.162956 125.045687 
L 348.30304 124.935989 
L 348.417537 124.853199 
L 348.58188 124.743502 
L 348.689203 124.617246 
L 348.692894 124.617246 
L 348.828126 124.507549 
L 348.940799 124.420619 
L 349.091043 124.312992 
L 349.091043 124.309887 
L 349.1999 124.221922 
L 349.202139 124.221922 
L 349.324391 124.112225 
L 349.43329 124.014946 
L 349.435446 124.014946 
L 349.572586 123.905249 
L 349.690318 123.797622 
L 349.846616 123.687924 
L 349.954603 123.582367 
L 349.957589 123.582367 
L 350.11596 123.472669 
L 350.229545 123.375391 
L 350.365109 123.264659 
L 350.480104 123.168415 
L 350.667297 123.058717 
L 350.784904 122.95316 
L 350.907198 122.843462 
L 351.020202 122.748254 
L 351.143325 122.638556 
L 351.252141 122.52265 
L 351.254422 122.52265 
L 351.396786 122.412952 
L 351.510122 122.297046 
L 351.648299 122.187349 
L 351.764206 122.108698 
L 351.907234 121.999001 
L 352.026542 121.899652 
L 352.144232 121.789955 
L 352.256759 121.719583 
L 352.396449 121.609886 
L 352.51161 121.510537 
L 352.671807 121.40084 
L 352.784438 121.322189 
L 352.927673 121.212492 
L 353.035245 121.123492 
L 353.038687 121.123492 
L 353.189719 121.013795 
L 353.302018 120.949632 
L 353.441107 120.839935 
L 353.555811 120.748866 
L 353.708253 120.639168 
L 353.817898 120.543959 
L 353.81935 120.543959 
L 353.94749 120.434262 
L 354.05668 120.332844 
L 354.058546 120.332844 
L 354.190377 120.223147 
L 354.299774 120.103101 
L 354.301474 120.103101 
L 354.426836 119.993403 
L 354.536979 119.906474 
L 354.537933 119.906474 
L 354.658858 119.796776 
L 354.774682 119.68087 
L 354.918871 119.571172 
L 355.034571 119.457336 
L 355.168269 119.347638 
L 355.281086 119.260709 
L 355.425545 119.151011 
L 355.542074 119.0765 
L 355.651554 118.965768 
L 355.778409 118.840547 
L 355.926828 118.73085 
L 356.04203 118.629432 
L 356.194514 118.519735 
L 356.304656 118.432805 
L 356.30561 118.432805 
L 356.435866 118.323107 
L 356.552146 118.238247 
L 356.670376 118.12855 
L 356.778611 118.04369 
L 356.781224 118.04369 
L 356.897255 117.933993 
L 357.007149 117.849132 
L 357.00831 117.849132 
L 357.137239 117.739435 
L 357.247257 117.640087 
L 357.248253 117.640087 
L 357.391198 117.530389 
L 357.507064 117.451739 
L 357.635909 117.342041 
L 357.749079 117.238553 
L 357.870792 117.128856 
L 357.979235 117.056414 
L 357.981806 117.056414 
L 358.131677 116.946717 
L 358.246755 116.849439 
L 358.36121 116.739741 
L 358.471892 116.656951 
L 358.472307 116.656951 
L 358.609654 116.547254 
L 358.7199 116.443766 
L 358.720751 116.443766 
L 358.871202 116.334068 
L 358.983833 116.255417 
L 359.091446 116.14572 
L 359.191761 116.031883 
L 359.202543 116.031883 
L 359.364564 115.922186 
L 359.475578 115.826977 
L 359.58796 115.71728 
L 359.701296 115.603443 
L 359.846315 115.493746 
L 359.959257 115.402677 
L 360.101725 115.292979 
L 360.214647 115.20191 
L 360.358338 115.091178 
L 360.473582 114.988725 
L 360.576219 114.879027 
L 360.684164 114.796237 
L 360.687316 114.796237 
L 360.807162 114.68654 
L 360.915688 114.576842 
L 360.918259 114.576842 
L 361.069084 114.46611 
L 361.179019 114.351239 
L 361.18016 114.351239 
L 361.323996 114.241541 
L 361.434844 114.158751 
L 361.435072 114.158751 
L 361.567007 114.049054 
L 361.680053 113.951775 
L 361.804171 113.844147 
L 361.916056 113.759287 
L 362.064309 113.64959 
L 362.179636 113.546102 
L 362.332492 113.436405 
L 362.438364 113.332917 
L 362.443506 113.332917 
L 362.579028 113.22322 
L 362.693526 113.140429 
L 362.813248 113.030732 
L 362.920986 112.950011 
L 362.924345 112.950011 
L 363.05037 112.840314 
L 363.158979 112.751314 
L 363.161426 112.751314 
L 363.300846 112.641617 
L 363.411445 112.540199 
L 363.41186 112.540199 
L 363.544894 112.430502 
L 363.65599 112.327014 
L 363.763562 112.217316 
L 363.873664 112.109689 
L 363.874576 112.109689 
L 363.99774 111.999992 
L 364.107178 111.915131 
L 364.108837 111.915131 
L 364.239798 111.804399 
L 364.359064 111.706086 
L 364.515735 111.596389 
L 364.629196 111.476342 
L 364.761857 111.366645 
L 364.87793 111.244529 
L 364.985128 111.134832 
L 365.095852 111.014786 
L 365.096225 111.014786 
L 365.231084 110.905089 
L 365.349106 110.793322 
L 365.495327 110.683624 
L 365.608808 110.563578 
L 365.724944 110.453881 
L 365.842593 110.348323 
L 365.969531 110.238626 
L 366.079549 110.149627 
L 366.080607 110.149627 
L 366.239082 110.039929 
L 366.35698 109.930232 
L 366.476785 109.820535 
L 366.587177 109.702558 
L 366.58784 109.702558 
L 366.727344 109.592861 
L 366.838191 109.512141 
L 366.83844 109.512141 
L 366.959987 109.402443 
L 367.071913 109.313444 
L 367.195368 109.203746 
L 367.308994 109.075421 
L 367.443231 108.965724 
L 367.561087 108.856027 
L 367.711787 108.746329 
L 367.82222 108.620074 
L 367.822884 108.620074 
L 367.958116 108.510377 
L 368.068259 108.427586 
L 368.069213 108.427586 
L 368.19217 108.317889 
L 368.3031 108.204052 
L 368.303225 108.204052 
L 368.439784 108.094355 
L 368.55283 107.992937 
L 368.686403 107.88324 
L 368.794928 107.79424 
L 368.797499 107.79424 
L 368.916475 107.684543 
L 369.017412 107.589334 
L 369.027489 107.589334 
L 369.171678 107.479637 
L 369.284475 107.390637 
L 369.411123 107.28094 
L 369.411123 107.279905 
L 369.528523 107.177452 
L 369.628174 107.067754 
L 369.743916 106.951848 
L 369.85439 106.842151 
L 369.959992 106.740732 
L 369.965446 106.740732 
L 370.058213 106.631035 
L 370.171134 106.537896 
L 370.33639 106.428199 
L 370.445786 106.343339 
L 370.447279 106.343339 
L 370.56497 106.233641 
L 370.67362 106.148781 
L 370.676025 106.148781 
L 370.825937 106.039084 
L 370.940061 105.887991 
L 371.037058 105.778294 
L 371.148072 105.691364 
L 371.148113 105.691364 
L 371.298274 105.581667 
L 371.406053 105.480249 
L 371.409164 105.480249 
L 371.548335 105.370551 
L 371.662003 105.240157 
L 371.757632 105.130459 
L 371.867318 105.045599 
L 371.868604 105.045599 
L 372.003504 104.935902 
L 372.113896 104.848972 
L 372.114601 104.848972 
L 372.250952 104.739275 
L 372.361842 104.644066 
L 372.362049 104.644066 
L 372.495954 104.534369 
L 372.609248 104.424671 
L 372.753645 104.314974 
L 372.863995 104.192858 
L 372.864742 104.192858 
L 372.974595 104.083161 
L 373.092078 103.975533 
L 373.209726 103.865836 
L 373.320408 103.770627 
L 373.320782 103.770627 
L 373.464722 103.66093 
L 373.567566 103.561582 
L 373.575819 103.561582 
L 373.691809 103.451884 
L 373.80274 103.342187 
L 373.802864 103.342187 
L 373.920679 103.23249 
L 374.034056 103.118653 
L 374.150254 103.008956 
L 374.263279 102.909607 
L 374.396624 102.79991 
L 374.504569 102.704701 
L 374.5077 102.704701 
L 374.63864 102.595004 
L 374.755169 102.503934 
L 374.904708 102.394237 
L 375.013607 102.290749 
L 375.015722 102.290749 
L 375.131546 102.181052 
L 375.24455 102.083773 
L 375.34304 101.974076 
L 375.451276 101.897495 
L 375.454116 101.897495 
L 375.602556 101.787797 
L 375.712284 101.68224 
L 375.713611 101.68224 
L 375.870781 101.572542 
L 375.979804 101.454566 
L 375.981877 101.454566 
L 376.097536 101.344869 
L 376.207305 101.255869 
L 376.208591 101.255869 
L 376.32371 101.146172 
L 376.434724 101.053033 
L 376.434765 101.053033 
L 376.563694 100.943336 
L 376.67703 100.831569 
L 376.791195 100.721871 
L 376.899389 100.620453 
L 376.902085 100.620453 
L 377.010279 100.510756 
L 377.010279 100.509721 
L 377.126144 100.38864 
L 377.262496 100.278943 
L 377.375459 100.183734 
L 377.497296 100.074037 
L 377.608144 99.978828 
L 377.608393 99.978828 
L 377.713767 99.86913 
L 377.713767 99.868095 
L 377.828264 99.78427 
L 377.979379 99.674573 
L 377.979379 99.673538 
L 378.095203 99.556597 
L 378.226495 99.446899 
L 378.337343 99.345481 
L 378.33755 99.345481 
L 378.465111 99.235784 
L 378.572351 99.136435 
L 378.576207 99.136435 
L 378.676771 99.026738 
L 378.787867 98.935669 
L 378.932264 98.825971 
L 379.042137 98.714204 
L 379.043236 98.714204 
L 379.141395 98.604507 
L 379.252367 98.505159 
L 379.252471 98.505159 
L 379.400289 98.395461 
L 379.514454 98.308532 
L 379.629573 98.198834 
L 379.74548 98.080858 
L 379.841814 97.97323 
L 379.841814 97.971161 
L 379.951957 97.861463 
L 379.952869 97.861463 
L 380.07002 97.751766 
L 380.182734 97.650348 
L 380.304924 97.540651 
L 380.417037 97.437163 
L 380.534313 97.327465 
L 380.647338 97.230187 
L 380.747756 97.120489 
L 380.858811 97.02735 
L 380.966134 96.917653 
L 381.077106 96.793467 
L 381.077169 96.793467 
L 381.195834 96.68377 
L 381.288062 96.607189 
L 381.306889 96.607189 
L 381.420805 96.497492 
L 381.526594 96.402283 
L 381.531902 96.402283 
L 381.669042 96.292586 
L 381.777816 96.180819 
L 381.780138 96.180819 
L 381.918398 96.071121 
L 381.918398 96.070086 
L 382.03136 95.975912 
L 382.159708 95.866215 
L 382.263299 95.771006 
L 382.270639 95.771006 
L 382.385675 95.661309 
L 382.489142 95.5661 
L 382.496772 95.5661 
L 382.613882 95.456403 
L 382.724523 95.348775 
L 382.724979 95.348775 
L 382.838978 95.238043 
L 382.936514 95.13766 
L 382.950075 95.13766 
L 383.066853 95.027962 
L 383.180396 94.903777 
L 383.312684 94.796149 
L 383.421624 94.70715 
L 383.423698 94.70715 
L 383.56515 94.597452 
L 383.67322 94.491895 
L 383.676205 94.491895 
L 383.796259 94.382197 
L 383.906817 94.27043 
L 383.907356 94.27043 
L 384.048352 94.160733 
L 384.158371 94.038617 
L 384.159408 94.038617 
L 384.259556 93.92892 
L 384.370052 93.821293 
L 384.370653 93.821293 
L 384.516045 93.711595 
L 384.6254 93.601898 
L 384.626976 93.601898 
L 384.747984 93.492201 
L 384.85908 93.380434 
L 384.97308 93.270737 
L 385.078371 93.173458 
L 385.084177 93.173458 
L 385.18192 93.063761 
L 385.29169 92.937505 
L 385.293017 92.937505 
L 385.425719 92.827808 
L 385.536028 92.699483 
L 385.536816 92.699483 
L 385.666076 92.589786 
L 385.775099 92.482158 
L 385.777131 92.482158 
L 385.865835 92.372461 
L 385.974236 92.252415 
L 385.97689 92.252415 
L 386.082347 92.142718 
L 386.193029 92.047509 
L 386.193319 92.047509 
L 386.336513 91.937811 
L 386.445702 91.794998 
L 386.44761 91.794998 
L 386.551657 91.685301 
L 386.661551 91.60044 
L 386.662753 91.60044 
L 386.768335 91.490743 
L 386.768335 91.489708 
L 386.881215 91.34586 
L 386.98663 91.236163 
L 387.090096 91.138884 
L 387.097685 91.138884 
L 387.197295 91.029187 
L 387.311004 90.896722 
L 387.436532 90.787025 
L 387.549661 90.685607 
L 387.662126 90.575909 
L 387.77596 90.437236 
L 387.862258 90.327538 
L 387.97294 90.201283 
L 387.973355 90.201283 
L 388.060979 90.091586 
L 388.174564 89.96533 
L 388.279275 89.855633 
L 388.392528 89.739727 
L 388.509845 89.630029 
L 388.623305 89.505844 
L 388.707571 89.396146 
L 388.823727 89.269891 
L 388.924954 89.160194 
L 389.038042 89.060845 
L 389.142586 88.951148 
L 389.24796 88.860079 
L 389.2536 88.860079 
L 389.350597 88.750381 
L 389.460118 88.632405 
L 389.461652 88.632405 
L 389.567316 88.522708 
L 389.678164 88.41922 
L 389.678413 88.41922 
L 389.795399 88.309523 
L 389.912425 88.16257 
L 389.997272 88.052872 
L 390.109364 87.939036 
L 390.197984 87.829338 
L 390.311445 87.709292 
L 390.416404 87.599595 
L 390.526796 87.481619 
L 390.527459 87.481619 
L 390.628333 87.371922 
L 390.628333 87.370887 
L 390.742478 87.218759 
L 390.875056 87.109062 
L 390.98466 86.941411 
L 390.986132 86.941411 
L 391.080454 86.830679 
L 391.186989 86.701319 
L 391.191344 86.701319 
L 391.290953 86.591622 
L 391.401262 86.477785 
L 391.401926 86.477785 
L 391.504521 86.368088 
L 391.614664 86.243902 
L 391.61512 86.243902 
L 391.720536 86.134205 
L 391.826241 86.038996 
L 391.831632 86.038996 
L 391.938541 85.929299 
L 392.051773 85.823741 
L 392.14116 85.714044 
L 392.249769 85.57744 
L 392.252257 85.57744 
L 392.342536 85.467743 
L 392.449486 85.329069 
L 392.453218 85.329069 
L 392.564647 85.219371 
L 392.674126 85.107604 
L 392.675702 85.107604 
L 392.806331 84.997907 
L 392.914898 84.853024 
L 392.917386 84.853024 
L 393.00132 84.743327 
L 393.110468 84.617071 
L 393.112209 84.617071 
L 393.202032 84.507374 
L 393.312756 84.379049 
L 393.313005 84.379049 
L 393.399468 84.269352 
L 393.516951 84.107911 
L 393.625353 83.998213 
L 393.734998 83.890586 
L 393.736449 83.890586 
L 393.814993 83.779854 
L 393.926089 83.656703 
L 394.014627 83.545971 
L 394.125184 83.435239 
L 394.125723 83.435239 
L 394.215214 83.325541 
L 394.319054 83.217914 
L 394.326311 83.217914 
L 394.439896 83.093728 
L 394.535939 82.984031 
L 394.64347 82.870194 
L 394.646953 82.870194 
L 394.736776 82.760497 
L 394.847499 82.634242 
L 394.84779 82.634242 
L 394.943709 82.524544 
L 395.054142 82.396219 
L 395.054598 82.396219 
L 395.172744 82.286522 
L 395.283551 82.154057 
L 395.382912 82.04436 
L 395.493946 81.930523 
L 395.494008 81.930523 
L 395.602078 81.820826 
L 395.712594 81.682152 
L 395.713174 81.682152 
L 395.808886 81.572455 
L 395.918739 81.466897 
L 395.919941 81.466897 
L 396.010386 81.3572 
L 396.120736 81.218526 
L 396.121358 81.218526 
L 396.204214 81.108829 
L 396.314896 80.943248 
L 396.315311 80.943248 
L 396.411603 80.833551 
L 396.522576 80.694877 
L 396.5227 80.694877 
L 396.633382 80.58518 
L 396.743152 80.438227 
L 396.744313 80.438227 
L 396.841559 80.328529 
L 396.952572 80.185716 
L 396.952655 80.185716 
L 397.024232 80.076019 
L 397.133379 79.953903 
L 397.134997 79.953903 
L 397.220216 79.844206 
L 397.330981 79.697253 
L 397.331292 79.697253 
L 397.431752 79.587555 
L 397.54119 79.46337 
L 397.542849 79.46337 
L 397.616291 79.353673 
L 397.724527 79.198441 
L 397.727264 79.198441 
L 397.830357 79.088743 
L 397.940458 78.958349 
L 397.941412 78.958349 
L 398.03505 78.848651 
L 398.143659 78.701698 
L 398.145773 78.701698 
L 398.229169 78.592001 
L 398.335413 78.469885 
L 398.340099 78.469885 
L 398.414827 78.360188 
L 398.522731 78.248421 
L 398.525924 78.248421 
L 398.628229 78.138724 
L 398.740487 77.99798 
L 398.837028 77.888283 
L 398.938006 77.770306 
L 398.948083 77.770306 
L 399.061129 77.659574 
L 399.171935 77.521935 
L 399.172143 77.521935 
L 399.265739 77.412238 
L 399.374555 77.236308 
L 399.376504 77.236308 
L 399.461143 77.126611 
L 399.571908 76.973449 
L 399.572157 76.973449 
L 399.680641 76.863752 
L 399.791531 76.718869 
L 399.791655 76.718869 
L 399.857094 76.609171 
L 399.966407 76.487055 
L 399.968149 76.487055 
L 400.046236 76.377358 
L 400.157001 76.234545 
L 400.157333 76.234545 
L 400.245207 76.124848 
L 400.357796 75.975825 
L 400.459687 75.866128 
L 400.570618 75.690198 
L 400.570742 75.690198 
L 400.643936 75.580501 
L 400.754908 75.437687 
L 400.755032 75.437687 
L 400.827148 75.32799 
L 400.936005 75.187246 
L 400.938244 75.187246 
L 401.00584 75.077549 
L 401.116771 74.947154 
L 401.116853 74.947154 
L 401.203898 74.837457 
L 401.310516 74.698783 
L 401.314995 74.698783 
L 401.409752 74.589086 
L 401.519481 74.427645 
L 401.520808 74.427645 
L 401.58861 74.317947 
L 401.698629 74.183413 
L 401.699707 74.183413 
L 401.786917 74.073716 
L 401.895816 73.937112 
L 401.898014 73.937112 
L 401.964821 73.827414 
L 402.073098 73.69081 
L 402.075545 73.69081 
L 402.155912 73.581113 
L 402.266429 73.409323 
L 402.267009 73.409323 
L 402.369066 73.299626 
L 402.479374 73.123696 
L 402.480162 73.123696 
L 402.55431 73.013999 
L 402.665033 72.869116 
L 402.665386 72.869116 
L 402.744903 72.759418 
L 402.855461 72.595907 
L 402.855751 72.595907 
L 402.939437 72.48621 
L 403.049372 72.31442 
L 403.050533 72.31442 
L 403.130652 72.204723 
L 403.240463 72.051561 
L 403.241417 72.051561 
L 403.330577 71.941863 
L 403.440885 71.780422 
L 403.441673 71.780422 
L 403.517355 71.670725 
L 403.627374 71.548609 
L 403.628369 71.548609 
L 403.703968 71.438912 
L 403.814733 71.231936 
L 403.814857 71.231936 
L 403.880545 71.121204 
L 403.991641 70.979425 
L 404.066826 70.869728 
L 404.177466 70.702077 
L 404.177756 70.702077 
L 404.259824 70.59238 
L 404.369387 70.459915 
L 404.370838 70.459915 
L 404.426946 70.350218 
L 404.535887 70.213614 
L 404.537919 70.213614 
L 404.615301 70.103917 
L 404.725485 69.942475 
L 404.726397 69.942475 
L 404.802204 69.832778 
L 404.912222 69.689965 
L 404.913176 69.689965 
L 404.981849 69.579233 
L 405.090499 69.431245 
L 405.09278 69.431245 
L 405.178456 69.321548 
L 405.289014 69.137339 
L 405.289511 69.137339 
L 405.354452 69.027642 
L 405.465259 68.886898 
L 405.465425 68.886898 
L 405.521657 68.777201 
L 405.631925 68.636457 
L 405.632733 68.636457 
L 405.71955 68.52676 
L 405.828241 68.35704 
L 405.830646 68.35704 
L 405.906079 68.247342 
L 406.016803 68.052785 
L 406.017176 68.052785 
L 406.087881 67.943088 
L 406.1979 67.767158 
L 406.198937 67.767158 
L 406.280507 67.657461 
L 406.388535 67.469113 
L 406.391604 67.469113 
L 406.456628 67.359415 
L 406.567434 67.171067 
L 406.567642 67.171067 
L 406.63532 67.06344 
L 406.63532 67.06137 
L 406.745629 66.893719 
L 406.746396 66.893719 
L 406.80887 66.784022 
L 406.919883 66.614302 
L 406.986442 66.504605 
L 407.096834 66.363861 
L 407.097414 66.363861 
L 407.166295 66.254164 
L 407.277392 66.069955 
L 407.34507 65.962328 
L 407.454135 65.776049 
L 407.456084 65.776049 
L 407.534502 65.666352 
L 407.643982 65.461446 
L 407.645599 65.461446 
L 407.736376 65.351749 
L 407.736376 65.350714 
L 407.8505 65.198586 
L 407.91175 65.088889 
L 408.021976 64.919169 
L 408.022805 64.919169 
L 408.081733 64.809472 
L 408.189637 64.639751 
L 408.192789 64.639751 
L 408.24587 64.530054 
L 408.35622 64.366543 
L 408.356925 64.366543 
L 408.435302 64.256846 
L 408.546109 64.020893 
L 408.546399 64.020893 
L 408.616192 63.911196 
L 408.727123 63.726987 
L 408.727247 63.726987 
L 408.792188 63.61729 
L 408.903244 63.416523 
L 408.982865 63.306826 
L 409.093713 63.083292 
L 409.093962 63.083292 
L 409.161142 62.973595 
L 409.272239 62.795595 
L 409.336724 62.685898 
L 409.336724 62.684863 
L 409.451553 62.49962 
L 409.508034 62.389922 
L 409.61855 62.213993 
L 409.618799 62.213993 
L 409.679635 62.104296 
L 409.792432 61.928366 
L 409.854263 61.818669 
L 409.964903 61.588925 
L 409.965277 61.588925 
L 410.040005 61.479228 
L 410.150687 61.301229 
L 410.151101 61.301229 
L 410.221226 61.191532 
L 410.332323 60.992835 
L 410.412276 60.883137 
L 410.522543 60.721696 
L 410.523373 60.721696 
L 410.569777 60.611999 
L 410.680874 60.425721 
L 410.735116 60.316023 
L 410.845217 60.098699 
L 410.846213 60.098699 
L 410.915633 59.989001 
L 411.025112 59.782025 
L 411.026729 59.782025 
L 411.092749 59.672328 
L 411.202311 59.494329 
L 411.203721 59.494329 
L 411.280564 59.384631 
L 411.390997 59.196283 
L 411.391619 59.196283 
L 411.452787 59.086586 
L 411.563344 58.896168 
L 411.563883 58.896168 
L 411.648315 58.786471 
L 411.76161 58.567076 
L 411.829412 58.457379 
L 411.94026 58.240054 
L 411.940509 58.240054 
L 412.004911 58.130357 
L 412.115593 57.863358 
L 412.115966 57.863358 
L 412.185054 57.753661 
L 412.296027 57.532197 
L 412.296151 57.532197 
L 412.358646 57.422499 
L 412.469245 57.207244 
L 412.469576 57.207244 
L 412.528961 57.097547 
L 412.639352 56.936106 
L 412.640057 56.936106 
L 412.712173 56.826409 
L 412.821818 56.615293 
L 412.823269 56.615293 
L 412.906084 56.505596 
L 413.016476 56.313108 
L 413.017181 56.313108 
L 413.076067 56.203411 
L 413.19156 55.984016 
L 413.266703 55.874319 
L 413.377509 55.663204 
L 413.377758 55.663204 
L 413.425489 55.553506 
L 413.535176 55.334112 
L 413.536586 55.334112 
L 413.631883 55.224415 
L 413.741362 55.081601 
L 413.742979 55.081601 
L 413.812026 54.973974 
L 413.812026 54.971904 
L 413.923081 54.812532 
L 413.998348 54.702835 
L 414.102893 54.591068 
L 414.109404 54.591068 
L 414.215897 54.481371 
L 414.326455 54.386162 
L 414.326994 54.386162 
L 414.465046 54.276465 
L 414.574774 54.210232 
L 414.576101 54.210232 
L 414.72 54.144 
L 414.72 54.144 
" clip-path="url(#p7c7dacc1f7)" style="fill: none; stroke: #ff8c00; stroke-width: 1.5; stroke-linecap: square"/>
   </g>
   <g id="line2d_14">
    <path d="M 74.605714 307.584 
L 414.72 54.144 
" clip-path="url(#p7c7dacc1f7)" style="fill: none; stroke-dasharray: 5.55,2.4; stroke-dashoffset: 0; stroke: #0000ff; stroke-width: 1.5"/>
   </g>
   <g id="patch_3">
    <path d="M 57.6 307.584 
L 57.6 41.472 
" style="fill: none; stroke: #000000; stroke-width: 0.8; stroke-linejoin: miter; stroke-linecap: square"/>
   </g>
   <g id="patch_4">
    <path d="M 414.72 307.584 
L 414.72 41.472 
" style="fill: none; stroke: #000000; stroke-width: 0.8; stroke-linejoin: miter; stroke-linecap: square"/>
   </g>
   <g id="patch_5">
    <path d="M 57.6 307.584 
L 414.72 307.584 
" style="fill: none; stroke: #000000; stroke-width: 0.8; stroke-linejoin: miter; stroke-linecap: square"/>
   </g>
   <g id="patch_6">
    <path d="M 57.6 41.472 
L 414.72 41.472 
" style="fill: none; stroke: #000000; stroke-width: 0.8; stroke-linejoin: miter; stroke-linecap: square"/>
   </g>
   <g id="text_15">
    <!-- ROC CURVE -->
    <g transform="translate(200.855625 35.472)scale(0.12 -0.12)">
     <defs>
      <path id="DejaVuSans-4f" d="M 2522 4238 
Q 1834 4238 1429 3725 
Q 1025 3213 1025 2328 
Q 1025 1447 1429 934 
Q 1834 422 2522 422 
Q 3209 422 3611 934 
Q 4013 1447 4013 2328 
Q 4013 3213 3611 3725 
Q 3209 4238 2522 4238 
z
M 2522 4750 
Q 3503 4750 4090 4092 
Q 4678 3434 4678 2328 
Q 4678 1225 4090 567 
Q 3503 -91 2522 -91 
Q 1538 -91 948 565 
Q 359 1222 359 2328 
Q 359 3434 948 4092 
Q 1538 4750 2522 4750 
z
" transform="scale(0.015625)"/>
      <path id="DejaVuSans-43" d="M 4122 4306 
L 4122 3641 
Q 3803 3938 3442 4084 
Q 3081 4231 2675 4231 
Q 1875 4231 1450 3742 
Q 1025 3253 1025 2328 
Q 1025 1406 1450 917 
Q 1875 428 2675 428 
Q 3081 428 3442 575 
Q 3803 722 4122 1019 
L 4122 359 
Q 3791 134 3420 21 
Q 3050 -91 2638 -91 
Q 1578 -91 968 557 
Q 359 1206 359 2328 
Q 359 3453 968 4101 
Q 1578 4750 2638 4750 
Q 3056 4750 3426 4639 
Q 3797 4528 4122 4306 
z
" transform="scale(0.015625)"/>
      <path id="DejaVuSans-55" d="M 556 4666 
L 1191 4666 
L 1191 1831 
Q 1191 1081 1462 751 
Q 1734 422 2344 422 
Q 2950 422 3222 751 
Q 3494 1081 3494 1831 
L 3494 4666 
L 4128 4666 
L 4128 1753 
Q 4128 841 3676 375 
Q 3225 -91 2344 -91 
Q 1459 -91 1007 375 
Q 556 841 556 1753 
L 556 4666 
z
" transform="scale(0.015625)"/>
      <path id="DejaVuSans-56" d="M 1831 0 
L 50 4666 
L 709 4666 
L 2188 738 
L 3669 4666 
L 4325 4666 
L 2547 0 
L 1831 0 
z
" transform="scale(0.015625)"/>
      <path id="DejaVuSans-45" d="M 628 4666 
L 3578 4666 
L 3578 4134 
L 1259 4134 
L 1259 2753 
L 3481 2753 
L 3481 2222 
L 1259 2222 
L 1259 531 
L 3634 531 
L 3634 0 
L 628 0 
L 628 4666 
z
" transform="scale(0.015625)"/>
     </defs>
     <use xlink:href="#DejaVuSans-52"/>
     <use xlink:href="#DejaVuSans-4f" x="69.482422"/>
     <use xlink:href="#DejaVuSans-43" x="148.193359"/>
     <use xlink:href="#DejaVuSans-20" x="218.017578"/>
     <use xlink:href="#DejaVuSans-43" x="249.804688"/>
     <use xlink:href="#DejaVuSans-55" x="319.628906"/>
     <use xlink:href="#DejaVuSans-52" x="392.822266"/>
     <use xlink:href="#DejaVuSans-56" x="456.804688"/>
     <use xlink:href="#DejaVuSans-45" x="525.212891"/>
    </g>
   </g>
   <g id="legend_1">
    <g id="patch_7">
     <path d="M 234.97 302.584 
L 407.72 302.584 
Q 409.72 302.584 409.72 300.584 
L 409.72 286.905875 
Q 409.72 284.905875 407.72 284.905875 
L 234.97 284.905875 
Q 232.97 284.905875 232.97 286.905875 
L 232.97 300.584 
Q 232.97 302.584 234.97 302.584 
z
" style="fill: #ffffff; opacity: 0.8; stroke: #cccccc; stroke-linejoin: miter"/>
    </g>
    <g id="line2d_15">
     <path d="M 236.97 293.004312 
L 246.97 293.004312 
L 256.97 293.004312 
" style="fill: none; stroke: #ff8c00; stroke-width: 1.5; stroke-linecap: square"/>
    </g>
    <g id="text_16">
     <!-- ROC curve (ROC AUC=0.49) -->
     <g transform="translate(264.97 296.504312)scale(0.1 -0.1)">
      <defs>
       <path id="DejaVuSans-63" d="M 3122 3366 
L 3122 2828 
Q 2878 2963 2633 3030 
Q 2388 3097 2138 3097 
Q 1578 3097 1268 2742 
Q 959 2388 959 1747 
Q 959 1106 1268 751 
Q 1578 397 2138 397 
Q 2388 397 2633 464 
Q 2878 531 3122 666 
L 3122 134 
Q 2881 22 2623 -34 
Q 2366 -91 2075 -91 
Q 1284 -91 818 406 
Q 353 903 353 1747 
Q 353 2603 823 3093 
Q 1294 3584 2113 3584 
Q 2378 3584 2631 3529 
Q 2884 3475 3122 3366 
z
" transform="scale(0.015625)"/>
       <path id="DejaVuSans-28" d="M 1984 4856 
Q 1566 4138 1362 3434 
Q 1159 2731 1159 2009 
Q 1159 1288 1364 580 
Q 1569 -128 1984 -844 
L 1484 -844 
Q 1016 -109 783 600 
Q 550 1309 550 2009 
Q 550 2706 781 3412 
Q 1013 4119 1484 4856 
L 1984 4856 
z
" transform="scale(0.015625)"/>
       <path id="DejaVuSans-41" d="M 2188 4044 
L 1331 1722 
L 3047 1722 
L 2188 4044 
z
M 1831 4666 
L 2547 4666 
L 4325 0 
L 3669 0 
L 3244 1197 
L 1141 1197 
L 716 0 
L 50 0 
L 1831 4666 
z
" transform="scale(0.015625)"/>
       <path id="DejaVuSans-3d" d="M 678 2906 
L 4684 2906 
L 4684 2381 
L 678 2381 
L 678 2906 
z
M 678 1631 
L 4684 1631 
L 4684 1100 
L 678 1100 
L 678 1631 
z
" transform="scale(0.015625)"/>
       <path id="DejaVuSans-39" d="M 703 97 
L 703 672 
Q 941 559 1184 500 
Q 1428 441 1663 441 
Q 2288 441 2617 861 
Q 2947 1281 2994 2138 
Q 2813 1869 2534 1725 
Q 2256 1581 1919 1581 
Q 1219 1581 811 2004 
Q 403 2428 403 3163 
Q 403 3881 828 4315 
Q 1253 4750 1959 4750 
Q 2769 4750 3195 4129 
Q 3622 3509 3622 2328 
Q 3622 1225 3098 567 
Q 2575 -91 1691 -91 
Q 1453 -91 1209 -44 
Q 966 3 703 97 
z
M 1959 2075 
Q 2384 2075 2632 2365 
Q 2881 2656 2881 3163 
Q 2881 3666 2632 3958 
Q 2384 4250 1959 4250 
Q 1534 4250 1286 3958 
Q 1038 3666 1038 3163 
Q 1038 2656 1286 2365 
Q 1534 2075 1959 2075 
z
" transform="scale(0.015625)"/>
       <path id="DejaVuSans-29" d="M 513 4856 
L 1013 4856 
Q 1481 4119 1714 3412 
Q 1947 2706 1947 2009 
Q 1947 1309 1714 600 
Q 1481 -109 1013 -844 
L 513 -844 
Q 928 -128 1133 580 
Q 1338 1288 1338 2009 
Q 1338 2731 1133 3434 
Q 928 4138 513 4856 
z
" transform="scale(0.015625)"/>
      </defs>
      <use xlink:href="#DejaVuSans-52"/>
      <use xlink:href="#DejaVuSans-4f" x="69.482422"/>
      <use xlink:href="#DejaVuSans-43" x="148.193359"/>
      <use xlink:href="#DejaVuSans-20" x="218.017578"/>
      <use xlink:href="#DejaVuSans-63" x="249.804688"/>
      <use xlink:href="#DejaVuSans-75" x="304.785156"/>
      <use xlink:href="#DejaVuSans-72" x="368.164062"/>
      <use xlink:href="#DejaVuSans-76" x="409.277344"/>
      <use xlink:href="#DejaVuSans-65" x="468.457031"/>
      <use xlink:href="#DejaVuSans-20" x="529.980469"/>
      <use xlink:href="#DejaVuSans-28" x="561.767578"/>
      <use xlink:href="#DejaVuSans-52" x="600.78125"/>
      <use xlink:href="#DejaVuSans-4f" x="670.263672"/>
      <use xlink:href="#DejaVuSans-43" x="748.974609"/>
      <use xlink:href="#DejaVuSans-20" x="818.798828"/>
      <use xlink:href="#DejaVuSans-41" x="850.585938"/>
      <use xlink:href="#DejaVuSans-55" x="918.994141"/>
      <use xlink:href="#DejaVuSans-43" x="992.1875"/>
      <use xlink:href="#DejaVuSans-3d" x="1062.011719"/>
      <use xlink:href="#DejaVuSans-30" x="1145.800781"/>
      <use xlink:href="#DejaVuSans-2e" x="1209.423828"/>
      <use xlink:href="#DejaVuSans-34" x="1241.210938"/>
      <use xlink:href="#DejaVuSans-39" x="1304.833984"/>
      <use xlink:href="#DejaVuSans-29" x="1368.457031"/>
     </g>
    </g>
   </g>
  </g>
 </g>
 <defs>
  <clipPath id="p7c7dacc1f7">
   <rect x="57.6" y="41.472" width="357.12" height="266.112"/>
  </clipPath>
 </defs>
</svg>
