<?xml version="1.0" encoding="utf-8" standalone="no"?>
<!DOCTYPE svg PUBLIC "-//W3C//DTD SVG 1.1//EN"
  "http://www.w3.org/Graphics/SVG/1.1/DTD/svg11.dtd">
<svg xmlns:xlink="http://www.w3.org/1999/xlink" width="460.8pt" height="345.6pt" viewBox="0 0 460.8 345.6" xmlns="http://www.w3.org/2000/svg" version="1.1">
 <metadata>
  <rdf:RDF xmlns:dc="http://purl.org/dc/elements/1.1/" xmlns:cc="http://creativecommons.org/ns#" xmlns:rdf="http://www.w3.org/1999/02/22-rdf-syntax-ns#">
   <cc:Work>
    <dc:type rdf:resource="http://purl.org/dc/dcmitype/StillImage"/>
    <dc:date>2022-05-23T15:10:47.226416</dc:date>
    <dc:format>image/svg+xml</dc:format>
    <dc:creator>
     <cc:Agent>
      <dc:title>Matplotlib v3.5.1, https://matplotlib.org/</dc:title>
     </cc:Agent>
    </dc:creator>
   </cc:Work>
  </rdf:RDF>
 </metadata>
 <defs>
  <style type="text/css">*{stroke-linejoin: round; stroke-linecap: butt}</style>
 </defs>
 <g id="figure_1">
  <g id="patch_1">
   <path d="M 0 345.6 
L 460.8 345.6 
L 460.8 0 
L 0 0 
z
" style="fill: #ffffff"/>
  </g>
  <g id="axes_1">
   <g id="patch_2">
    <path d="M 57.6 307.584 
L 414.72 307.584 
L 414.72 41.472 
L 57.6 41.472 
z
" style="fill: #ffffff"/>
   </g>
   <g id="matplotlib.axis_1">
    <g id="xtick_1">
     <g id="line2d_1">
      <defs>
       <path id="m84afd53ce7" d="M 0 0 
L 0 3.5 
" style="stroke: #000000; stroke-width: 0.8"/>
      </defs>
      <g>
       <use xlink:href="#m84afd53ce7" x="74.605714" y="307.584" style="stroke: #000000; stroke-width: 0.8"/>
      </g>
     </g>
     <g id="text_1">
      <!-- 0.0 -->
      <g transform="translate(66.654152 322.182437)scale(0.1 -0.1)">
       <defs>
        <path id="DejaVuSans-30" d="M 2034 4250 
Q 1547 4250 1301 3770 
Q 1056 3291 1056 2328 
Q 1056 1369 1301 889 
Q 1547 409 2034 409 
Q 2525 409 2770 889 
Q 3016 1369 3016 2328 
Q 3016 3291 2770 3770 
Q 2525 4250 2034 4250 
z
M 2034 4750 
Q 2819 4750 3233 4129 
Q 3647 3509 3647 2328 
Q 3647 1150 3233 529 
Q 2819 -91 2034 -91 
Q 1250 -91 836 529 
Q 422 1150 422 2328 
Q 422 3509 836 4129 
Q 1250 4750 2034 4750 
z
" transform="scale(0.015625)"/>
        <path id="DejaVuSans-2e" d="M 684 794 
L 1344 794 
L 1344 0 
L 684 0 
L 684 794 
z
" transform="scale(0.015625)"/>
       </defs>
       <use xlink:href="#DejaVuSans-30"/>
       <use xlink:href="#DejaVuSans-2e" x="63.623047"/>
       <use xlink:href="#DejaVuSans-30" x="95.410156"/>
      </g>
     </g>
    </g>
    <g id="xtick_2">
     <g id="line2d_2">
      <g>
       <use xlink:href="#m84afd53ce7" x="142.628571" y="307.584" style="stroke: #000000; stroke-width: 0.8"/>
      </g>
     </g>
     <g id="text_2">
      <!-- 0.2 -->
      <g transform="translate(134.677009 322.182437)scale(0.1 -0.1)">
       <defs>
        <path id="DejaVuSans-32" d="M 1228 531 
L 3431 531 
L 3431 0 
L 469 0 
L 469 531 
Q 828 903 1448 1529 
Q 2069 2156 2228 2338 
Q 2531 2678 2651 2914 
Q 2772 3150 2772 3378 
Q 2772 3750 2511 3984 
Q 2250 4219 1831 4219 
Q 1534 4219 1204 4116 
Q 875 4013 500 3803 
L 500 4441 
Q 881 4594 1212 4672 
Q 1544 4750 1819 4750 
Q 2544 4750 2975 4387 
Q 3406 4025 3406 3419 
Q 3406 3131 3298 2873 
Q 3191 2616 2906 2266 
Q 2828 2175 2409 1742 
Q 1991 1309 1228 531 
z
" transform="scale(0.015625)"/>
       </defs>
       <use xlink:href="#DejaVuSans-30"/>
       <use xlink:href="#DejaVuSans-2e" x="63.623047"/>
       <use xlink:href="#DejaVuSans-32" x="95.410156"/>
      </g>
     </g>
    </g>
    <g id="xtick_3">
     <g id="line2d_3">
      <g>
       <use xlink:href="#m84afd53ce7" x="210.651429" y="307.584" style="stroke: #000000; stroke-width: 0.8"/>
      </g>
     </g>
     <g id="text_3">
      <!-- 0.4 -->
      <g transform="translate(202.699866 322.182437)scale(0.1 -0.1)">
       <defs>
        <path id="DejaVuSans-34" d="M 2419 4116 
L 825 1625 
L 2419 1625 
L 2419 4116 
z
M 2253 4666 
L 3047 4666 
L 3047 1625 
L 3713 1625 
L 3713 1100 
L 3047 1100 
L 3047 0 
L 2419 0 
L 2419 1100 
L 313 1100 
L 313 1709 
L 2253 4666 
z
" transform="scale(0.015625)"/>
       </defs>
       <use xlink:href="#DejaVuSans-30"/>
       <use xlink:href="#DejaVuSans-2e" x="63.623047"/>
       <use xlink:href="#DejaVuSans-34" x="95.410156"/>
      </g>
     </g>
    </g>
    <g id="xtick_4">
     <g id="line2d_4">
      <g>
       <use xlink:href="#m84afd53ce7" x="278.674286" y="307.584" style="stroke: #000000; stroke-width: 0.8"/>
      </g>
     </g>
     <g id="text_4">
      <!-- 0.6 -->
      <g transform="translate(270.722723 322.182437)scale(0.1 -0.1)">
       <defs>
        <path id="DejaVuSans-36" d="M 2113 2584 
Q 1688 2584 1439 2293 
Q 1191 2003 1191 1497 
Q 1191 994 1439 701 
Q 1688 409 2113 409 
Q 2538 409 2786 701 
Q 3034 994 3034 1497 
Q 3034 2003 2786 2293 
Q 2538 2584 2113 2584 
z
M 3366 4563 
L 3366 3988 
Q 3128 4100 2886 4159 
Q 2644 4219 2406 4219 
Q 1781 4219 1451 3797 
Q 1122 3375 1075 2522 
Q 1259 2794 1537 2939 
Q 1816 3084 2150 3084 
Q 2853 3084 3261 2657 
Q 3669 2231 3669 1497 
Q 3669 778 3244 343 
Q 2819 -91 2113 -91 
Q 1303 -91 875 529 
Q 447 1150 447 2328 
Q 447 3434 972 4092 
Q 1497 4750 2381 4750 
Q 2619 4750 2861 4703 
Q 3103 4656 3366 4563 
z
" transform="scale(0.015625)"/>
       </defs>
       <use xlink:href="#DejaVuSans-30"/>
       <use xlink:href="#DejaVuSans-2e" x="63.623047"/>
       <use xlink:href="#DejaVuSans-36" x="95.410156"/>
      </g>
     </g>
    </g>
    <g id="xtick_5">
     <g id="line2d_5">
      <g>
       <use xlink:href="#m84afd53ce7" x="346.697143" y="307.584" style="stroke: #000000; stroke-width: 0.8"/>
      </g>
     </g>
     <g id="text_5">
      <!-- 0.8 -->
      <g transform="translate(338.74558 322.182437)scale(0.1 -0.1)">
       <defs>
        <path id="DejaVuSans-38" d="M 2034 2216 
Q 1584 2216 1326 1975 
Q 1069 1734 1069 1313 
Q 1069 891 1326 650 
Q 1584 409 2034 409 
Q 2484 409 2743 651 
Q 3003 894 3003 1313 
Q 3003 1734 2745 1975 
Q 2488 2216 2034 2216 
z
M 1403 2484 
Q 997 2584 770 2862 
Q 544 3141 544 3541 
Q 544 4100 942 4425 
Q 1341 4750 2034 4750 
Q 2731 4750 3128 4425 
Q 3525 4100 3525 3541 
Q 3525 3141 3298 2862 
Q 3072 2584 2669 2484 
Q 3125 2378 3379 2068 
Q 3634 1759 3634 1313 
Q 3634 634 3220 271 
Q 2806 -91 2034 -91 
Q 1263 -91 848 271 
Q 434 634 434 1313 
Q 434 1759 690 2068 
Q 947 2378 1403 2484 
z
M 1172 3481 
Q 1172 3119 1398 2916 
Q 1625 2713 2034 2713 
Q 2441 2713 2670 2916 
Q 2900 3119 2900 3481 
Q 2900 3844 2670 4047 
Q 2441 4250 2034 4250 
Q 1625 4250 1398 4047 
Q 1172 3844 1172 3481 
z
" transform="scale(0.015625)"/>
       </defs>
       <use xlink:href="#DejaVuSans-30"/>
       <use xlink:href="#DejaVuSans-2e" x="63.623047"/>
       <use xlink:href="#DejaVuSans-38" x="95.410156"/>
      </g>
     </g>
    </g>
    <g id="xtick_6">
     <g id="line2d_6">
      <g>
       <use xlink:href="#m84afd53ce7" x="414.72" y="307.584" style="stroke: #000000; stroke-width: 0.8"/>
      </g>
     </g>
     <g id="text_6">
      <!-- 1.0 -->
      <g transform="translate(406.768438 322.182437)scale(0.1 -0.1)">
       <defs>
        <path id="DejaVuSans-31" d="M 794 531 
L 1825 531 
L 1825 4091 
L 703 3866 
L 703 4441 
L 1819 4666 
L 2450 4666 
L 2450 531 
L 3481 531 
L 3481 0 
L 794 0 
L 794 531 
z
" transform="scale(0.015625)"/>
       </defs>
       <use xlink:href="#DejaVuSans-31"/>
       <use xlink:href="#DejaVuSans-2e" x="63.623047"/>
       <use xlink:href="#DejaVuSans-30" x="95.410156"/>
      </g>
     </g>
    </g>
    <g id="text_7">
     <!-- False Positive Rate -->
     <g transform="translate(189.693594 335.860562)scale(0.1 -0.1)">
      <defs>
       <path id="DejaVuSans-46" d="M 628 4666 
L 3309 4666 
L 3309 4134 
L 1259 4134 
L 1259 2759 
L 3109 2759 
L 3109 2228 
L 1259 2228 
L 1259 0 
L 628 0 
L 628 4666 
z
" transform="scale(0.015625)"/>
       <path id="DejaVuSans-61" d="M 2194 1759 
Q 1497 1759 1228 1600 
Q 959 1441 959 1056 
Q 959 750 1161 570 
Q 1363 391 1709 391 
Q 2188 391 2477 730 
Q 2766 1069 2766 1631 
L 2766 1759 
L 2194 1759 
z
M 3341 1997 
L 3341 0 
L 2766 0 
L 2766 531 
Q 2569 213 2275 61 
Q 1981 -91 1556 -91 
Q 1019 -91 701 211 
Q 384 513 384 1019 
Q 384 1609 779 1909 
Q 1175 2209 1959 2209 
L 2766 2209 
L 2766 2266 
Q 2766 2663 2505 2880 
Q 2244 3097 1772 3097 
Q 1472 3097 1187 3025 
Q 903 2953 641 2809 
L 641 3341 
Q 956 3463 1253 3523 
Q 1550 3584 1831 3584 
Q 2591 3584 2966 3190 
Q 3341 2797 3341 1997 
z
" transform="scale(0.015625)"/>
       <path id="DejaVuSans-6c" d="M 603 4863 
L 1178 4863 
L 1178 0 
L 603 0 
L 603 4863 
z
" transform="scale(0.015625)"/>
       <path id="DejaVuSans-73" d="M 2834 3397 
L 2834 2853 
Q 2591 2978 2328 3040 
Q 2066 3103 1784 3103 
Q 1356 3103 1142 2972 
Q 928 2841 928 2578 
Q 928 2378 1081 2264 
Q 1234 2150 1697 2047 
L 1894 2003 
Q 2506 1872 2764 1633 
Q 3022 1394 3022 966 
Q 3022 478 2636 193 
Q 2250 -91 1575 -91 
Q 1294 -91 989 -36 
Q 684 19 347 128 
L 347 722 
Q 666 556 975 473 
Q 1284 391 1588 391 
Q 1994 391 2212 530 
Q 2431 669 2431 922 
Q 2431 1156 2273 1281 
Q 2116 1406 1581 1522 
L 1381 1569 
Q 847 1681 609 1914 
Q 372 2147 372 2553 
Q 372 3047 722 3315 
Q 1072 3584 1716 3584 
Q 2034 3584 2315 3537 
Q 2597 3491 2834 3397 
z
" transform="scale(0.015625)"/>
       <path id="DejaVuSans-65" d="M 3597 1894 
L 3597 1613 
L 953 1613 
Q 991 1019 1311 708 
Q 1631 397 2203 397 
Q 2534 397 2845 478 
Q 3156 559 3463 722 
L 3463 178 
Q 3153 47 2828 -22 
Q 2503 -91 2169 -91 
Q 1331 -91 842 396 
Q 353 884 353 1716 
Q 353 2575 817 3079 
Q 1281 3584 2069 3584 
Q 2775 3584 3186 3129 
Q 3597 2675 3597 1894 
z
M 3022 2063 
Q 3016 2534 2758 2815 
Q 2500 3097 2075 3097 
Q 1594 3097 1305 2825 
Q 1016 2553 972 2059 
L 3022 2063 
z
" transform="scale(0.015625)"/>
       <path id="DejaVuSans-20" transform="scale(0.015625)"/>
       <path id="DejaVuSans-50" d="M 1259 4147 
L 1259 2394 
L 2053 2394 
Q 2494 2394 2734 2622 
Q 2975 2850 2975 3272 
Q 2975 3691 2734 3919 
Q 2494 4147 2053 4147 
L 1259 4147 
z
M 628 4666 
L 2053 4666 
Q 2838 4666 3239 4311 
Q 3641 3956 3641 3272 
Q 3641 2581 3239 2228 
Q 2838 1875 2053 1875 
L 1259 1875 
L 1259 0 
L 628 0 
L 628 4666 
z
" transform="scale(0.015625)"/>
       <path id="DejaVuSans-6f" d="M 1959 3097 
Q 1497 3097 1228 2736 
Q 959 2375 959 1747 
Q 959 1119 1226 758 
Q 1494 397 1959 397 
Q 2419 397 2687 759 
Q 2956 1122 2956 1747 
Q 2956 2369 2687 2733 
Q 2419 3097 1959 3097 
z
M 1959 3584 
Q 2709 3584 3137 3096 
Q 3566 2609 3566 1747 
Q 3566 888 3137 398 
Q 2709 -91 1959 -91 
Q 1206 -91 779 398 
Q 353 888 353 1747 
Q 353 2609 779 3096 
Q 1206 3584 1959 3584 
z
" transform="scale(0.015625)"/>
       <path id="DejaVuSans-69" d="M 603 3500 
L 1178 3500 
L 1178 0 
L 603 0 
L 603 3500 
z
M 603 4863 
L 1178 4863 
L 1178 4134 
L 603 4134 
L 603 4863 
z
" transform="scale(0.015625)"/>
       <path id="DejaVuSans-74" d="M 1172 4494 
L 1172 3500 
L 2356 3500 
L 2356 3053 
L 1172 3053 
L 1172 1153 
Q 1172 725 1289 603 
Q 1406 481 1766 481 
L 2356 481 
L 2356 0 
L 1766 0 
Q 1100 0 847 248 
Q 594 497 594 1153 
L 594 3053 
L 172 3053 
L 172 3500 
L 594 3500 
L 594 4494 
L 1172 4494 
z
" transform="scale(0.015625)"/>
       <path id="DejaVuSans-76" d="M 191 3500 
L 800 3500 
L 1894 563 
L 2988 3500 
L 3597 3500 
L 2284 0 
L 1503 0 
L 191 3500 
z
" transform="scale(0.015625)"/>
       <path id="DejaVuSans-52" d="M 2841 2188 
Q 3044 2119 3236 1894 
Q 3428 1669 3622 1275 
L 4263 0 
L 3584 0 
L 2988 1197 
Q 2756 1666 2539 1819 
Q 2322 1972 1947 1972 
L 1259 1972 
L 1259 0 
L 628 0 
L 628 4666 
L 2053 4666 
Q 2853 4666 3247 4331 
Q 3641 3997 3641 3322 
Q 3641 2881 3436 2590 
Q 3231 2300 2841 2188 
z
M 1259 4147 
L 1259 2491 
L 2053 2491 
Q 2509 2491 2742 2702 
Q 2975 2913 2975 3322 
Q 2975 3731 2742 3939 
Q 2509 4147 2053 4147 
L 1259 4147 
z
" transform="scale(0.015625)"/>
      </defs>
      <use xlink:href="#DejaVuSans-46"/>
      <use xlink:href="#DejaVuSans-61" x="48.394531"/>
      <use xlink:href="#DejaVuSans-6c" x="109.673828"/>
      <use xlink:href="#DejaVuSans-73" x="137.457031"/>
      <use xlink:href="#DejaVuSans-65" x="189.556641"/>
      <use xlink:href="#DejaVuSans-20" x="251.080078"/>
      <use xlink:href="#DejaVuSans-50" x="282.867188"/>
      <use xlink:href="#DejaVuSans-6f" x="339.544922"/>
      <use xlink:href="#DejaVuSans-73" x="400.726562"/>
      <use xlink:href="#DejaVuSans-69" x="452.826172"/>
      <use xlink:href="#DejaVuSans-74" x="480.609375"/>
      <use xlink:href="#DejaVuSans-69" x="519.818359"/>
      <use xlink:href="#DejaVuSans-76" x="547.601562"/>
      <use xlink:href="#DejaVuSans-65" x="606.78125"/>
      <use xlink:href="#DejaVuSans-20" x="668.304688"/>
      <use xlink:href="#DejaVuSans-52" x="700.091797"/>
      <use xlink:href="#DejaVuSans-61" x="767.324219"/>
      <use xlink:href="#DejaVuSans-74" x="828.603516"/>
      <use xlink:href="#DejaVuSans-65" x="867.8125"/>
     </g>
    </g>
   </g>
   <g id="matplotlib.axis_2">
    <g id="ytick_1">
     <g id="line2d_7">
      <defs>
       <path id="mdcf2736cfe" d="M 0 0 
L -3.5 0 
" style="stroke: #000000; stroke-width: 0.8"/>
      </defs>
      <g>
       <use xlink:href="#mdcf2736cfe" x="57.6" y="307.584" style="stroke: #000000; stroke-width: 0.8"/>
      </g>
     </g>
     <g id="text_8">
      <!-- 0.0 -->
      <g transform="translate(34.696875 311.383219)scale(0.1 -0.1)">
       <use xlink:href="#DejaVuSans-30"/>
       <use xlink:href="#DejaVuSans-2e" x="63.623047"/>
       <use xlink:href="#DejaVuSans-30" x="95.410156"/>
      </g>
     </g>
    </g>
    <g id="ytick_2">
     <g id="line2d_8">
      <g>
       <use xlink:href="#mdcf2736cfe" x="57.6" y="256.896" style="stroke: #000000; stroke-width: 0.8"/>
      </g>
     </g>
     <g id="text_9">
      <!-- 0.2 -->
      <g transform="translate(34.696875 260.695219)scale(0.1 -0.1)">
       <use xlink:href="#DejaVuSans-30"/>
       <use xlink:href="#DejaVuSans-2e" x="63.623047"/>
       <use xlink:href="#DejaVuSans-32" x="95.410156"/>
      </g>
     </g>
    </g>
    <g id="ytick_3">
     <g id="line2d_9">
      <g>
       <use xlink:href="#mdcf2736cfe" x="57.6" y="206.208" style="stroke: #000000; stroke-width: 0.8"/>
      </g>
     </g>
     <g id="text_10">
      <!-- 0.4 -->
      <g transform="translate(34.696875 210.007219)scale(0.1 -0.1)">
       <use xlink:href="#DejaVuSans-30"/>
       <use xlink:href="#DejaVuSans-2e" x="63.623047"/>
       <use xlink:href="#DejaVuSans-34" x="95.410156"/>
      </g>
     </g>
    </g>
    <g id="ytick_4">
     <g id="line2d_10">
      <g>
       <use xlink:href="#mdcf2736cfe" x="57.6" y="155.52" style="stroke: #000000; stroke-width: 0.8"/>
      </g>
     </g>
     <g id="text_11">
      <!-- 0.6 -->
      <g transform="translate(34.696875 159.319219)scale(0.1 -0.1)">
       <use xlink:href="#DejaVuSans-30"/>
       <use xlink:href="#DejaVuSans-2e" x="63.623047"/>
       <use xlink:href="#DejaVuSans-36" x="95.410156"/>
      </g>
     </g>
    </g>
    <g id="ytick_5">
     <g id="line2d_11">
      <g>
       <use xlink:href="#mdcf2736cfe" x="57.6" y="104.832" style="stroke: #000000; stroke-width: 0.8"/>
      </g>
     </g>
     <g id="text_12">
      <!-- 0.8 -->
      <g transform="translate(34.696875 108.631219)scale(0.1 -0.1)">
       <use xlink:href="#DejaVuSans-30"/>
       <use xlink:href="#DejaVuSans-2e" x="63.623047"/>
       <use xlink:href="#DejaVuSans-38" x="95.410156"/>
      </g>
     </g>
    </g>
    <g id="ytick_6">
     <g id="line2d_12">
      <g>
       <use xlink:href="#mdcf2736cfe" x="57.6" y="54.144" style="stroke: #000000; stroke-width: 0.8"/>
      </g>
     </g>
     <g id="text_13">
      <!-- 1.0 -->
      <g transform="translate(34.696875 57.943219)scale(0.1 -0.1)">
       <use xlink:href="#DejaVuSans-31"/>
       <use xlink:href="#DejaVuSans-2e" x="63.623047"/>
       <use xlink:href="#DejaVuSans-30" x="95.410156"/>
      </g>
     </g>
    </g>
    <g id="text_14">
     <!-- True Positive Rate -->
     <g transform="translate(28.617187 219.057687)rotate(-90)scale(0.1 -0.1)">
      <defs>
       <path id="DejaVuSans-54" d="M -19 4666 
L 3928 4666 
L 3928 4134 
L 2272 4134 
L 2272 0 
L 1638 0 
L 1638 4134 
L -19 4134 
L -19 4666 
z
" transform="scale(0.015625)"/>
       <path id="DejaVuSans-72" d="M 2631 2963 
Q 2534 3019 2420 3045 
Q 2306 3072 2169 3072 
Q 1681 3072 1420 2755 
Q 1159 2438 1159 1844 
L 1159 0 
L 581 0 
L 581 3500 
L 1159 3500 
L 1159 2956 
Q 1341 3275 1631 3429 
Q 1922 3584 2338 3584 
Q 2397 3584 2469 3576 
Q 2541 3569 2628 3553 
L 2631 2963 
z
" transform="scale(0.015625)"/>
       <path id="DejaVuSans-75" d="M 544 1381 
L 544 3500 
L 1119 3500 
L 1119 1403 
Q 1119 906 1312 657 
Q 1506 409 1894 409 
Q 2359 409 2629 706 
Q 2900 1003 2900 1516 
L 2900 3500 
L 3475 3500 
L 3475 0 
L 2900 0 
L 2900 538 
Q 2691 219 2414 64 
Q 2138 -91 1772 -91 
Q 1169 -91 856 284 
Q 544 659 544 1381 
z
M 1991 3584 
L 1991 3584 
z
" transform="scale(0.015625)"/>
      </defs>
      <use xlink:href="#DejaVuSans-54"/>
      <use xlink:href="#DejaVuSans-72" x="46.333984"/>
      <use xlink:href="#DejaVuSans-75" x="87.447266"/>
      <use xlink:href="#DejaVuSans-65" x="150.826172"/>
      <use xlink:href="#DejaVuSans-20" x="212.349609"/>
      <use xlink:href="#DejaVuSans-50" x="244.136719"/>
      <use xlink:href="#DejaVuSans-6f" x="300.814453"/>
      <use xlink:href="#DejaVuSans-73" x="361.996094"/>
      <use xlink:href="#DejaVuSans-69" x="414.095703"/>
      <use xlink:href="#DejaVuSans-74" x="441.878906"/>
      <use xlink:href="#DejaVuSans-69" x="481.087891"/>
      <use xlink:href="#DejaVuSans-76" x="508.871094"/>
      <use xlink:href="#DejaVuSans-65" x="568.050781"/>
      <use xlink:href="#DejaVuSans-20" x="629.574219"/>
      <use xlink:href="#DejaVuSans-52" x="661.361328"/>
      <use xlink:href="#DejaVuSans-61" x="728.59375"/>
      <use xlink:href="#DejaVuSans-74" x="789.873047"/>
      <use xlink:href="#DejaVuSans-65" x="829.082031"/>
     </g>
    </g>
   </g>
   <g id="line2d_13">
    <path d="M 74.605714 307.584 
L 74.616123 307.474303 
L 74.72581 307.06449 
L 74.726515 307.06449 
L 74.851379 306.954793 
L 74.962269 306.886491 
L 75.251518 306.776794 
L 75.362449 306.731259 
L 75.362574 306.731259 
L 75.600608 306.621562 
L 75.711124 306.544981 
L 75.711498 306.544981 
L 75.879615 306.435283 
L 75.990504 306.362842 
L 76.107863 306.253145 
L 76.213693 306.12068 
L 76.218586 306.12068 
L 76.354938 306.010983 
L 76.464625 305.85989 
L 76.466035 305.85989 
L 76.548227 305.750193 
L 76.657458 305.578403 
L 76.659282 305.578403 
L 76.737411 305.470775 
L 76.848051 305.288637 
L 76.848508 305.288637 
L 76.917098 305.178939 
L 77.028195 304.992661 
L 77.088242 304.882964 
L 77.197888 304.663569 
L 77.199132 304.663569 
L 77.258267 304.553872 
L 77.36924 304.328268 
L 77.369323 304.328268 
L 77.438411 304.218571 
L 77.548346 303.997107 
L 77.549342 303.997107 
L 77.621208 303.887409 
L 77.732305 303.612131 
L 77.79538 303.502434 
L 77.906228 303.283039 
L 77.906352 303.283039 
L 77.962336 303.173342 
L 78.071774 302.914622 
L 78.073267 302.914622 
L 78.128877 302.804925 
L 78.23985 302.558624 
L 78.239933 302.558624 
L 78.289406 302.448926 
L 78.400336 302.212974 
L 78.400461 302.212974 
L 78.444336 302.103276 
L 78.555308 301.840417 
L 78.555432 301.840417 
L 78.603869 301.73072 
L 78.71312 301.486488 
L 78.714965 301.486488 
L 78.759089 301.376791 
L 78.869667 301.132559 
L 78.870144 301.132559 
L 78.920322 301.022862 
L 79.031377 300.770351 
L 79.071312 300.660654 
L 79.182077 300.395725 
L 79.182326 300.395725 
L 79.23296 300.286027 
L 79.343477 300.010749 
L 79.344057 300.010749 
L 79.397138 299.901052 
L 79.507157 299.654751 
L 79.508235 299.654751 
L 79.556588 299.545053 
L 79.663745 299.263566 
L 79.667685 299.263566 
L 79.70169 299.153869 
L 79.811128 298.891009 
L 79.812662 298.891009 
L 79.863172 298.781312 
L 79.973564 298.522592 
L 79.974269 298.522592 
L 80.021751 298.412895 
L 80.135626 298.135547 
L 80.178423 298.02792 
L 80.288649 297.721595 
L 80.28952 297.721595 
L 80.331487 297.611898 
L 80.331487 297.610863 
L 80.454713 297.309713 
L 80.498816 297.200016 
L 80.608586 296.895761 
L 80.60983 296.895761 
L 80.660547 296.786064 
L 80.787029 296.481809 
L 80.823854 296.372112 
L 80.940383 296.100973 
L 80.986414 295.991276 
L 81.097428 295.695301 
L 81.097511 295.695301 
L 81.136616 295.585603 
L 81.247672 295.281349 
L 81.247713 295.281349 
L 81.289307 295.171651 
L 81.40003 294.875676 
L 81.400362 294.875676 
L 81.438265 294.765978 
L 81.547828 294.461724 
L 81.549341 294.461724 
L 81.601365 294.352027 
L 81.715903 294.004307 
L 81.762432 293.89461 
L 81.872077 293.524123 
L 81.873529 293.524123 
L 81.908653 293.414425 
L 82.019211 293.11431 
L 82.01975 293.11431 
L 82.063003 293.004613 
L 82.173975 292.677591 
L 82.174099 292.677591 
L 82.212625 292.567894 
L 82.322975 292.278127 
L 82.323721 292.278127 
L 82.370665 292.16843 
L 82.480974 291.868315 
L 82.481761 291.868315 
L 82.521945 291.758618 
L 82.632358 291.444014 
L 82.633042 291.444014 
L 82.679322 291.336387 
L 82.790294 291.038341 
L 82.790419 291.038341 
L 82.832759 290.928644 
L 82.832759 290.927609 
L 82.957748 290.582994 
L 83.005313 290.473297 
L 83.115788 290.142135 
L 83.11641 290.142135 
L 83.1466 290.032438 
L 83.257158 289.728183 
L 83.257655 289.728183 
L 83.290997 289.618486 
L 83.398942 289.32458 
L 83.402093 289.32458 
L 83.440867 289.214883 
L 83.550907 288.920977 
L 83.551881 288.920977 
L 83.590779 288.81128 
L 83.700798 288.515304 
L 83.701835 288.515304 
L 83.74882 288.405607 
L 83.866012 288.099283 
L 83.901365 287.989585 
L 84.01551 287.683261 
L 84.060794 287.573564 
L 84.174856 287.26103 
L 84.207347 287.151333 
L 84.317656 286.797404 
L 84.318361 286.797404 
L 84.360909 286.687707 
L 84.471591 286.350336 
L 84.472006 286.350336 
L 84.514761 286.240638 
L 84.62424 285.979849 
L 84.625857 285.979849 
L 84.663221 285.870151 
L 84.773945 285.567967 
L 84.774277 285.567967 
L 84.812926 285.457234 
L 84.922654 285.160224 
L 84.923981 285.160224 
L 84.96769 285.050527 
L 85.078621 284.735923 
L 85.078787 284.735923 
L 85.114326 284.626226 
L 85.224718 284.371645 
L 85.225423 284.371645 
L 85.266353 284.261948 
L 85.377429 283.928717 
L 85.414316 283.81902 
L 85.528482 283.508556 
L 85.56257 283.398858 
L 85.671842 283.084255 
L 85.673666 283.084255 
L 85.716214 282.974558 
L 85.826585 282.676512 
L 85.827269 282.676512 
L 85.87048 282.566815 
L 85.980084 282.219095 
L 85.981577 282.219095 
L 86.022756 282.109398 
L 86.13348 281.774097 
L 86.133832 281.774097 
L 86.167195 281.6644 
L 86.275762 281.368424 
L 86.278291 281.368424 
L 86.305682 281.258727 
L 86.305682 281.257692 
L 86.422564 280.966891 
L 86.4614 280.856159 
L 86.578033 280.579846 
L 86.61125 280.470149 
L 86.7216 280.126568 
L 86.722201 280.126568 
L 86.759482 280.016871 
L 86.873523 279.720896 
L 86.904667 279.611198 
L 87.018853 279.302804 
L 87.047425 279.193107 
L 87.156988 278.837108 
L 87.158481 278.837108 
L 87.196135 278.727411 
L 87.306941 278.383831 
L 87.307232 278.383831 
L 87.339702 278.273099 
L 87.448269 277.936763 
L 87.450799 277.936763 
L 87.492227 277.827065 
L 87.603158 277.493834 
L 87.603241 277.493834 
L 87.63849 277.384137 
L 87.749379 277.065394 
L 87.749586 277.065394 
L 87.786038 276.955697 
L 87.896388 276.626605 
L 87.897135 276.626605 
L 87.95204 276.516908 
L 88.07083 276.134002 
L 88.109998 276.024305 
L 88.221053 275.662097 
L 88.253855 275.5524 
L 88.36491 275.186052 
L 88.40045 275.076355 
L 88.5108 274.730705 
L 88.511546 274.730705 
L 88.54721 274.621008 
L 88.657623 274.320893 
L 88.658307 274.320893 
L 88.696086 274.211195 
L 88.806933 273.886243 
L 88.807079 273.886243 
L 88.840565 273.776546 
L 88.951372 273.437105 
L 88.95162 273.437105 
L 88.989876 273.327408 
L 88.989876 273.326373 
L 89.10908 272.921735 
L 89.143873 272.812038 
L 89.253808 272.439481 
L 89.25497 272.439481 
L 89.30042 272.329784 
L 89.411247 271.986204 
L 89.411517 271.986204 
L 89.459704 271.875472 
L 89.570511 271.580531 
L 89.57078 271.580531 
L 89.608455 271.470834 
L 89.608455 271.469799 
L 89.72627 271.133463 
L 89.760068 271.023765 
L 89.871123 270.706057 
L 89.871164 270.706057 
L 89.988979 270.369721 
L 90.028583 270.260024 
L 90.146667 269.912305 
L 90.177085 269.802607 
L 90.287476 269.479725 
L 90.288098 269.479725 
L 90.324612 269.370027 
L 90.448212 269.059564 
L 90.487276 268.949866 
L 90.597046 268.643542 
L 90.598269 268.643542 
L 90.636401 268.533845 
L 90.755376 268.14059 
L 90.795768 268.030893 
L 90.910472 267.668685 
L 90.949329 267.558988 
L 91.059223 267.213338 
L 91.060426 267.213338 
L 91.096276 267.103641 
L 91.210794 266.760061 
L 91.245359 266.650363 
L 91.245359 266.649328 
L 91.389362 266.242621 
L 91.4215 266.131889 
L 91.530897 265.81625 
L 91.532556 265.81625 
L 91.567141 265.706553 
L 91.686034 265.313299 
L 91.713611 265.203601 
L 91.823464 264.893137 
L 91.824708 264.893137 
L 91.859418 264.78344 
L 91.973749 264.460558 
L 92.004147 264.35086 
L 92.114621 264.015559 
L 92.115243 264.015559 
L 92.157874 263.905862 
L 92.276394 263.533305 
L 92.313177 263.423608 
L 92.424025 263.086237 
L 92.424274 263.086237 
L 92.460767 262.97654 
L 92.57035 262.647448 
L 92.571864 262.647448 
L 92.690715 262.258333 
L 92.724907 262.147601 
L 92.838284 261.807126 
L 92.873264 261.697428 
L 92.873264 261.696394 
L 92.99226 261.302104 
L 93.037234 261.191372 
L 93.148331 260.852967 
L 93.182377 260.743269 
L 93.182377 260.742234 
L 93.308838 260.360364 
L 93.337742 260.250666 
L 93.452468 259.888459 
L 93.49261 259.778761 
L 93.603023 259.389646 
L 93.603707 259.389646 
L 93.645384 259.279949 
L 93.75619 258.913602 
L 93.756439 258.913602 
L 93.790817 258.803904 
L 93.901623 258.435487 
L 93.901872 258.435487 
L 93.932518 258.324755 
L 94.043076 257.976001 
L 94.043532 257.976001 
L 94.075961 257.866303 
L 94.194004 257.516514 
L 94.234623 257.406817 
L 94.345222 257.038399 
L 94.345679 257.038399 
L 94.376656 256.928702 
L 94.487193 256.612029 
L 94.487629 256.612029 
L 94.521509 256.502332 
L 94.632606 256.156682 
L 94.662588 256.046985 
L 94.777334 255.680637 
L 94.807607 255.57094 
L 94.918144 255.210802 
L 94.918704 255.210802 
L 94.946219 255.10007 
L 95.085535 254.633339 
L 95.120245 254.523641 
L 95.2313 254.161434 
L 95.231321 254.161434 
L 95.34982 253.790947 
L 95.379305 253.681249 
L 95.488079 253.325251 
L 95.490402 253.325251 
L 95.523038 253.215553 
L 95.633886 252.917508 
L 95.634093 252.917508 
L 95.672162 252.807811 
L 95.783093 252.495277 
L 95.783238 252.495277 
L 95.818467 252.38558 
L 95.928444 252.056488 
L 95.929543 252.056488 
L 95.969913 251.945756 
L 96.080968 251.603211 
L 96.115761 251.493513 
L 96.226734 251.120957 
L 96.226858 251.120957 
L 96.275709 251.011259 
L 96.390476 250.642842 
L 96.421827 250.533145 
L 96.54949 250.121263 
L 96.588596 250.010531 
L 96.71682 249.585195 
L 96.746616 249.474463 
L 96.856033 249.129848 
L 96.857671 249.129848 
L 96.903308 249.020151 
L 97.013866 248.643454 
L 97.014405 248.643454 
L 97.143333 248.200526 
L 97.180365 248.090828 
L 97.288704 247.792783 
L 97.291421 247.792783 
L 97.329116 247.683086 
L 97.440151 247.289831 
L 97.440213 247.289831 
L 97.471917 247.180134 
L 97.587057 246.770322 
L 97.634663 246.662694 
L 97.634663 246.660625 
L 97.745677 246.294277 
L 97.745719 246.294277 
L 97.779309 246.18458 
L 97.88997 245.799605 
L 97.890406 245.799605 
L 97.927293 245.689907 
L 98.041852 245.333909 
L 98.074364 245.223176 
L 98.185399 244.870282 
L 98.225562 244.760585 
L 98.336431 244.427354 
L 98.336576 244.427354 
L 98.373898 244.317657 
L 98.484829 243.959588 
L 98.484933 243.959588 
L 98.519663 243.849891 
L 98.630138 243.518729 
L 98.63076 243.518729 
L 98.661572 243.409032 
L 98.661572 243.407997 
L 98.79021 242.972313 
L 98.818845 242.862616 
L 98.818845 242.861581 
L 98.936743 242.523175 
L 99.077034 242.040921 
L 99.113154 241.931224 
L 99.231901 241.548318 
L 99.265865 241.437586 
L 99.376112 241.10332 
L 99.37692 241.10332 
L 99.421458 240.993623 
L 99.536495 240.600368 
L 99.567701 240.489636 
L 99.694618 240.095347 
L 99.728706 239.98565 
L 99.839408 239.590326 
L 99.839802 239.590326 
L 99.869681 239.479593 
L 99.979803 239.12256 
L 99.980757 239.12256 
L 100.018204 239.012863 
L 100.12928 238.709643 
L 100.288087 238.118726 
L 100.321512 238.009029 
L 100.44084 237.599217 
L 100.474658 237.491589 
L 100.474658 237.48952 
L 100.59407 237.071428 
L 100.625939 236.961731 
L 100.735377 236.649197 
L 100.737036 236.649197 
L 100.778526 236.538465 
L 100.898207 236.10899 
L 100.927795 235.998258 
L 101.072524 235.581201 
L 101.122453 235.471504 
L 101.241387 235.080319 
L 101.277487 234.970622 
L 101.392067 234.622902 
L 101.43646 234.51217 
L 101.547308 234.177904 
L 101.547557 234.177904 
L 101.58745 234.068207 
L 101.698049 233.728766 
L 101.698526 233.728766 
L 101.831933 233.285838 
L 101.870562 233.17614 
L 101.988647 232.826351 
L 102.031153 232.716654 
L 102.149361 232.360655 
L 102.182019 232.250958 
L 102.296516 231.907378 
L 102.328012 231.79768 
L 102.438238 231.489286 
L 102.439067 231.489286 
L 102.475229 231.379589 
L 102.585579 230.994614 
L 102.586325 230.994614 
L 102.622487 230.884916 
L 102.733252 230.477174 
L 102.733583 230.477174 
L 102.769869 230.367477 
L 102.880717 230.007338 
L 102.880945 230.007338 
L 102.926292 229.897641 
L 103.035502 229.578898 
L 103.037368 229.578898 
L 103.068366 229.469201 
L 103.179359 229.152528 
L 103.179463 229.152528 
L 103.22058 229.04283 
L 103.339577 228.649576 
L 103.379512 228.539879 
L 103.379512 228.538844 
L 103.497824 228.177671 
L 103.53581 228.067974 
L 103.645248 227.697487 
L 103.646907 227.697487 
L 103.681534 227.586754 
L 103.791387 227.223512 
L 103.792631 227.223512 
L 103.823982 227.113814 
L 103.823982 227.112779 
L 103.951106 226.714351 
L 103.993654 226.603619 
L 104.112941 226.194841 
L 104.141036 226.084109 
L 104.255948 225.700169 
L 104.298931 225.590471 
L 104.409634 225.240682 
L 104.409987 225.240682 
L 104.445443 225.12995 
L 104.555441 224.764637 
L 104.55654 224.764637 
L 104.595397 224.65701 
L 104.595397 224.653905 
L 104.706037 224.30929 
L 104.70641 224.30929 
L 104.741784 224.199593 
L 104.852258 223.820827 
L 104.85288 223.820827 
L 104.88813 223.711129 
L 104.998998 223.371689 
L 104.999226 223.371689 
L 105.038249 223.260957 
L 105.149304 222.860458 
L 105.186855 222.750761 
L 105.297806 222.405111 
L 105.297952 222.405111 
L 105.329966 222.294379 
L 105.456614 221.908369 
L 105.49375 221.797637 
L 105.604038 221.436464 
L 105.604846 221.436464 
L 105.640469 221.326766 
L 105.748144 220.993535 
L 105.751545 220.993535 
L 105.781672 220.883838 
L 105.896584 220.503002 
L 105.929221 220.393305 
L 106.044029 220.020748 
L 106.081953 219.910016 
L 106.191888 219.610936 
L 106.192904 219.610936 
L 106.231222 219.501238 
L 106.34574 219.159728 
L 106.378708 219.050031 
L 106.378708 219.048996 
L 106.497477 218.667125 
L 106.535483 218.557428 
L 106.657258 218.203499 
L 106.690517 218.093802 
L 106.690517 218.092767 
L 106.800618 217.741943 
L 106.801593 217.741943 
L 106.833794 217.632245 
L 106.944559 217.278316 
L 106.944891 217.278316 
L 106.980596 217.167584 
L 107.09078 216.783644 
L 107.091672 216.783644 
L 107.125698 216.672912 
L 107.236628 216.363483 
L 107.236753 216.363483 
L 107.268415 216.253785 
L 107.379159 215.86674 
L 107.379449 215.86674 
L 107.412272 215.756008 
L 107.546903 215.367928 
L 107.594303 215.258231 
L 107.704445 214.887744 
L 107.705399 214.887744 
L 107.728601 214.778047 
L 107.84737 214.395141 
L 107.887326 214.285444 
L 107.99834 213.902538 
L 107.998402 213.902538 
L 108.028488 213.792841 
L 108.139377 213.440982 
L 108.139585 213.440982 
L 108.185367 213.33025 
L 108.295987 212.954589 
L 108.296422 212.954589 
L 108.329929 212.844891 
L 108.329929 212.843856 
L 108.458775 212.401963 
L 108.494563 212.292265 
L 108.605639 211.917639 
L 108.655755 211.806907 
L 108.798472 211.358804 
L 109.040841 210.640597 
L 109.076919 210.529865 
L 109.195397 210.154204 
L 109.232969 210.044506 
L 109.351447 209.676089 
L 109.388832 209.566392 
L 109.502686 209.286974 
L 109.541667 209.176242 
L 109.652764 208.827488 
L 109.692139 208.717791 
L 109.815926 208.297629 
L 109.863719 208.187932 
L 109.972079 207.823654 
L 109.974733 207.823654 
L 110.016866 207.713957 
L 110.134743 207.376586 
L 110.171298 207.266889 
L 110.282229 206.948146 
L 110.282395 206.948146 
L 110.318308 206.837414 
L 110.436578 206.48038 
L 110.470957 206.370683 
L 110.581182 206.010545 
L 110.582053 206.010545 
L 110.607599 205.900848 
L 110.718467 205.588314 
L 110.718654 205.588314 
L 110.755603 205.477582 
L 110.883329 205.064665 
L 110.917583 204.954968 
L 110.917583 204.953933 
L 111.044044 204.572062 
L 111.074918 204.46133 
L 111.185206 204.06911 
L 111.186015 204.06911 
L 111.221367 203.958378 
L 111.359938 203.504066 
L 111.397053 203.394369 
L 111.397053 203.393334 
L 111.515158 203.04251 
L 111.564755 202.931777 
L 111.691071 202.554046 
L 111.723376 202.443314 
L 111.833643 202.150443 
L 111.834473 202.150443 
L 111.866114 202.040746 
L 111.983825 201.709584 
L 112.018017 201.599887 
L 112.128574 201.237679 
L 112.129113 201.237679 
L 112.16515 201.127982 
L 112.278569 200.769913 
L 112.323771 200.660216 
L 112.441254 200.341473 
L 112.47389 200.230741 
L 112.584655 199.913033 
L 112.58478 199.913033 
L 112.628551 199.803336 
L 112.739378 199.463895 
L 112.739627 199.463895 
L 112.77583 199.354198 
L 112.89746 199.004408 
L 112.93868 198.893676 
L 113.084528 198.464201 
L 113.12127 198.354504 
L 113.12127 198.353469 
L 113.232222 198.006784 
L 113.232367 198.006784 
L 113.267284 197.897087 
L 113.378091 197.576274 
L 113.37834 197.576274 
L 113.419602 197.466577 
L 113.529786 197.135416 
L 113.530698 197.135416 
L 113.568228 197.025718 
L 113.682435 196.713185 
L 113.726372 196.602452 
L 113.843503 196.301302 
L 113.887087 196.191605 
L 114.005482 195.827327 
L 114.04633 195.71763 
L 114.04633 195.716595 
L 114.194002 195.264353 
L 114.234041 195.154656 
L 114.234041 195.153621 
L 114.359486 194.797622 
L 114.39683 194.68689 
L 114.507574 194.357798 
L 114.507885 194.357798 
L 114.543051 194.248101 
L 114.6607 193.921079 
L 114.689106 193.811382 
L 114.80406 193.523685 
L 114.84669 193.413988 
L 114.957663 193.13457 
L 114.957746 193.13457 
L 114.99117 193.026943 
L 114.99117 193.024873 
L 115.101354 192.685432 
L 115.102184 192.685432 
L 115.142534 192.5747 
L 115.265698 192.27562 
L 115.305094 192.164888 
L 115.415652 191.849249 
L 115.416108 191.849249 
L 115.454343 191.739552 
L 115.5649 191.439437 
L 115.565419 191.439437 
L 115.60355 191.330775 
L 115.60355 191.328705 
L 115.720328 191.042043 
L 115.756572 190.931311 
L 115.879799 190.630161 
L 115.92444 190.520464 
L 115.92444 190.519429 
L 116.06863 190.110651 
L 116.110949 190.000954 
L 116.225094 189.696699 
L 116.264988 189.585967 
L 116.375732 189.233073 
L 116.376043 189.233073 
L 116.410276 189.123376 
L 116.53089 188.808772 
L 116.567134 188.69804 
L 116.685198 188.351356 
L 116.749289 188.241658 
L 116.749289 188.240623 
L 116.874734 187.88359 
L 116.920827 187.773893 
L 116.920827 187.772858 
L 117.045816 187.428243 
L 117.087908 187.318545 
L 117.197553 187.045337 
L 117.198963 187.045337 
L 117.240826 186.93564 
L 117.355946 186.627246 
L 117.407658 186.517548 
L 117.527795 186.217433 
L 117.578533 186.107736 
L 117.689547 185.81176 
L 117.68963 185.81176 
L 117.739227 185.702063 
L 117.847794 185.437134 
L 117.850303 185.437134 
L 117.886693 185.327437 
L 118.013714 184.932113 
L 118.045935 184.82138 
L 118.156991 184.52644 
L 118.157011 184.52644 
L 118.199912 184.416742 
L 118.199912 184.415708 
L 118.317747 184.079372 
L 118.359756 183.968639 
L 118.49364 183.592978 
L 118.53034 183.482246 
L 118.638037 183.170747 
L 118.641416 183.170747 
L 118.678096 183.06105 
L 118.787928 182.777493 
L 118.789193 182.777493 
L 118.823944 182.666761 
L 118.934626 182.417355 
L 118.935041 182.417355 
L 118.971886 182.306622 
L 119.088768 182.015821 
L 119.126816 181.906124 
L 119.240961 181.59773 
L 119.282306 181.488033 
L 119.39332 181.221034 
L 119.393382 181.221034 
L 119.438377 181.111336 
L 119.558783 180.802942 
L 119.596894 180.693245 
L 119.596894 180.69221 
L 119.720804 180.374502 
L 119.755805 180.26377 
L 119.873163 179.952271 
L 119.913513 179.842574 
L 120.021914 179.523831 
L 120.02461 179.523831 
L 120.066038 179.414133 
L 120.177031 179.18853 
L 120.177093 179.18853 
L 120.221216 179.077797 
L 120.328353 178.797345 
L 120.332292 178.797345 
L 120.375275 178.689717 
L 120.375275 178.686613 
L 120.486248 178.402021 
L 120.486331 178.402021 
L 120.525644 178.292324 
L 120.63956 178.006697 
L 120.677878 177.897 
L 120.787275 177.658977 
L 120.788933 177.658977 
L 120.826671 177.54928 
L 120.959207 177.195351 
L 121.006482 177.085654 
L 121.122866 176.820725 
L 121.173376 176.711027 
L 121.290631 176.398494 
L 121.333428 176.288796 
L 121.453233 175.99903 
L 121.491551 175.889333 
L 121.491551 175.888298 
L 121.615295 175.574729 
L 121.657947 175.465032 
L 121.771387 175.22701 
L 121.809746 175.117312 
L 121.809746 175.116277 
L 121.932309 174.831685 
L 121.984125 174.721988 
L 122.094226 174.432222 
L 122.095097 174.432222 
L 122.132358 174.322525 
L 122.246046 174.055526 
L 122.30033 173.945828 
L 122.30033 173.944793 
L 122.40985 173.722294 
L 122.411343 173.722294 
L 122.454264 173.614667 
L 122.454264 173.612597 
L 122.573074 173.358017 
L 122.61782 173.248319 
L 122.734598 172.962693 
L 122.784859 172.852995 
L 122.90738 172.569438 
L 122.947855 172.459741 
L 123.065047 172.155486 
L 123.104423 172.044754 
L 123.227172 171.756023 
L 123.271918 171.646325 
L 123.38768 171.410373 
L 123.430642 171.300676 
L 123.544269 171.039886 
L 123.594094 170.930189 
L 123.594094 170.929154 
L 123.716906 170.636283 
L 123.772662 170.526585 
L 123.883717 170.280284 
L 123.883738 170.280284 
L 123.935367 170.169552 
L 124.052041 169.891169 
L 124.100001 169.780437 
L 124.222191 169.504124 
L 124.272472 169.394427 
L 124.396528 169.137777 
L 124.446312 169.028079 
L 124.559918 168.773499 
L 124.603129 168.663802 
L 124.714184 168.407152 
L 124.75358 168.297454 
L 124.869799 168.042874 
L 124.917717 167.933177 
L 125.033665 167.691015 
L 125.085709 167.581317 
L 125.202156 167.314318 
L 125.249846 167.204621 
L 125.360901 166.947971 
L 125.360942 166.947971 
L 125.419062 166.838274 
L 125.533123 166.536089 
L 125.591347 166.426392 
L 125.706922 166.202857 
L 125.758365 166.092125 
L 125.87562 165.784766 
L 125.922356 165.675069 
L 126.03337 165.418419 
L 126.033453 165.418419 
L 126.082511 165.308721 
L 126.192944 165.056211 
L 126.193608 165.056211 
L 126.251789 164.946513 
L 126.251789 164.945478 
L 126.368837 164.646398 
L 126.428221 164.536701 
L 126.541827 164.28419 
L 126.589496 164.174493 
L 126.589496 164.173458 
L 126.70532 163.936471 
L 126.749941 163.826773 
L 126.868793 163.570123 
L 126.923429 163.460426 
L 127.041306 163.236892 
L 127.091484 163.12616 
L 127.201689 162.897451 
L 127.202539 162.897451 
L 127.260866 162.787754 
L 127.371465 162.595266 
L 127.371942 162.595266 
L 127.421311 162.485569 
L 127.532076 162.21857 
L 127.532408 162.21857 
L 127.584162 162.107838 
L 127.695113 161.864641 
L 127.695238 161.864641 
L 127.745623 161.754944 
L 127.853299 161.537619 
L 127.85672 161.537619 
L 127.910361 161.427922 
L 128.020255 161.214737 
L 128.021416 161.214737 
L 128.074289 161.105039 
L 128.19395 160.821482 
L 128.245683 160.711785 
L 128.362067 160.448926 
L 128.414484 160.338194 
L 128.537752 160.138462 
L 128.591808 160.02773 
L 128.707673 159.786603 
L 128.770106 159.676905 
L 128.880643 159.451301 
L 128.881161 159.451301 
L 128.933848 159.341604 
L 129.052119 159.101512 
L 129.109761 158.991815 
L 129.228592 158.799327 
L 129.28244 158.68963 
L 129.395548 158.476445 
L 129.454352 158.365713 
L 129.563417 158.145283 
L 129.565428 158.145283 
L 129.612143 158.035586 
L 129.723095 157.82654 
L 129.723178 157.82654 
L 129.80114 157.716843 
L 129.91118 157.48503 
L 129.912133 157.48503 
L 129.9682 157.375333 
L 130.083693 157.155938 
L 130.146353 157.046241 
L 130.146353 157.045206 
L 130.261804 156.828916 
L 130.307669 156.719219 
L 130.417418 156.485336 
L 130.418662 156.485336 
L 130.47222 156.375639 
L 130.59385 156.114849 
L 130.656013 156.004117 
L 130.766446 155.787827 
L 130.767089 155.787827 
L 130.820377 155.67813 
L 130.935766 155.462875 
L 130.995544 155.353177 
L 131.108818 155.136887 
L 131.224372 154.914388 
L 131.284192 154.804691 
L 131.392718 154.608064 
L 131.395247 154.608064 
L 131.52936 154.324507 
L 131.605228 154.213775 
L 131.715972 154.026461 
L 131.716221 154.026461 
L 131.762107 153.915729 
L 131.881788 153.703579 
L 131.941048 153.593882 
L 132.049262 153.409673 
L 132.052041 153.409673 
L 132.118765 153.298941 
L 132.241867 153.101279 
L 132.303843 152.991582 
L 132.41465 152.807373 
L 132.414899 152.807373 
L 132.469307 152.696641 
L 132.584778 152.478281 
L 132.644183 152.368584 
L 132.753891 152.157468 
L 132.755197 152.157468 
L 132.824534 152.047771 
L 132.934345 151.824237 
L 132.935631 151.824237 
L 133.000676 151.713505 
L 133.11565 151.519982 
L 133.173707 151.410285 
L 133.284617 151.230216 
L 133.284638 151.230216 
L 133.352233 151.119484 
L 133.489041 150.868008 
L 133.560928 150.757276 
L 133.694315 150.483033 
L 133.753409 150.373336 
L 133.753409 150.372301 
L 133.870311 150.228452 
L 133.954162 150.118755 
L 133.954162 150.11772 
L 134.074341 149.891082 
L 134.145834 149.781384 
L 134.255272 149.580618 
L 134.256931 149.580618 
L 134.37205 149.377781 
L 134.439977 149.268084 
L 134.549664 149.061108 
L 134.551032 149.061108 
L 134.618171 148.951411 
L 134.728895 148.734086 
L 134.729165 148.734086 
L 134.794769 148.623354 
L 134.921355 148.433971 
L 134.994611 148.323239 
L 135.109522 148.131786 
L 135.175832 148.021054 
L 135.29543 147.810973 
L 135.355167 147.701276 
L 135.355167 147.700241 
L 135.469892 147.517067 
L 135.543832 147.406335 
L 135.669091 147.173487 
L 135.7495 147.06379 
L 135.7495 147.062755 
L 135.871565 146.883721 
L 135.935491 146.774024 
L 136.050361 146.585675 
L 136.149597 146.474943 
L 136.269009 146.269002 
L 136.3348 146.159305 
L 136.449899 145.960608 
L 136.521226 145.850911 
L 136.634168 145.658423 
L 136.713333 145.548726 
L 136.828619 145.33968 
L 136.892481 145.229983 
L 137.003392 145.095449 
L 137.003454 145.095449 
L 137.079094 144.985751 
L 137.193653 144.813961 
L 137.253598 144.704264 
L 137.36202 144.528334 
L 137.36457 144.528334 
L 137.424908 144.418637 
L 137.535258 144.240638 
L 137.535963 144.240638 
L 137.615377 144.130941 
L 137.725582 143.938453 
L 137.726474 143.938453 
L 137.804229 143.828756 
L 137.914268 143.669384 
L 137.915305 143.669384 
L 137.975063 143.558652 
L 138.097107 143.379618 
L 138.179632 143.268886 
L 138.301946 143.085712 
L 138.379162 142.976015 
L 138.487439 142.820783 
L 138.490217 142.820783 
L 138.573156 142.711085 
L 138.683734 142.591039 
L 138.684087 142.591039 
L 138.763667 142.481342 
L 138.873022 142.317831 
L 138.874743 142.317831 
L 138.961684 142.208134 
L 139.075766 142.059111 
L 139.161587 141.949414 
L 139.276043 141.781763 
L 139.35075 141.672066 
L 139.35075 141.671031 
L 139.465019 141.510625 
L 139.533257 141.400928 
L 139.644271 141.224998 
L 139.644354 141.224998 
L 139.696813 141.114266 
L 139.831713 140.922813 
L 139.914403 140.813116 
L 140.028962 140.639256 
L 140.106697 140.529559 
L 140.106697 140.528524 
L 140.225756 140.330862 
L 140.323707 140.221165 
L 140.436172 140.08456 
L 140.521972 139.974863 
L 140.632654 139.813422 
L 140.633048 139.813422 
L 140.711695 139.70269 
L 140.822294 139.496749 
L 140.822771 139.496749 
L 140.93704 139.387051 
L 141.047971 139.231819 
L 141.048137 139.231819 
L 141.114986 139.122122 
L 141.221645 138.960681 
L 141.226062 138.960681 
L 141.295544 138.850984 
L 141.406516 138.659531 
L 141.546704 138.459799 
L 141.621141 138.349067 
L 141.730724 138.213498 
L 141.732176 138.213498 
L 141.794753 138.1038 
L 141.908732 137.958917 
L 141.995984 137.848185 
L 142.122714 137.656732 
L 142.193171 137.546 
L 142.30715 137.402152 
L 142.395812 137.292455 
L 142.509645 137.151711 
L 142.594077 137.042014 
L 142.704842 136.878503 
L 142.705153 136.878503 
L 142.790663 136.767771 
L 142.910614 136.623922 
L 142.993718 136.514225 
L 143.104069 136.373481 
L 143.104774 136.373481 
L 143.192751 136.262749 
L 143.299058 136.087855 
L 143.303806 136.087855 
L 143.386102 135.978157 
L 143.50033 135.820856 
L 143.586939 135.711158 
L 143.586939 135.710123 
L 143.700897 135.568345 
L 143.776828 135.458648 
L 143.889957 135.357229 
L 143.991992 135.247532 
L 144.099833 135.0923 
L 144.103089 135.0923 
L 144.196748 134.982603 
L 144.196748 134.981568 
L 144.310415 134.854278 
L 144.423129 134.74458 
L 144.423129 134.743546 
L 144.544054 134.583139 
L 144.63537 134.473442 
L 144.746177 134.359605 
L 144.746467 134.359605 
L 144.83714 134.249908 
L 144.83714 134.248873 
L 144.950932 134.115374 
L 145.052366 134.005676 
L 145.164998 133.846305 
L 145.27004 133.736608 
L 145.384433 133.571027 
L 145.468907 133.46133 
L 145.582533 133.335074 
L 145.656846 133.225377 
L 145.656846 133.224342 
L 145.78225 133.086703 
L 145.869066 132.977006 
L 145.989182 132.830053 
L 146.083111 132.720356 
L 146.19709 132.577542 
L 146.282372 132.467845 
L 146.282372 132.46681 
L 146.39888 132.33331 
L 146.48777 132.223613 
L 146.596876 132.0808 
L 146.598867 132.0808 
L 146.699865 131.970068 
L 146.804866 131.848987 
L 146.810817 131.848987 
L 146.906736 131.739289 
L 147.019243 131.596476 
L 147.131894 131.486779 
L 147.244256 131.352244 
L 147.331756 131.242547 
L 147.452122 131.091455 
L 147.527534 130.980723 
L 147.638568 130.853432 
L 147.638589 130.853432 
L 147.737535 130.7427 
L 147.847844 130.609201 
L 147.84857 130.609201 
L 147.974741 130.501573 
L 148.085381 130.373248 
L 148.085837 130.373248 
L 148.174022 130.263551 
L 148.288789 130.141435 
L 148.373055 130.030703 
L 148.483467 129.92204 
L 148.484151 129.92204 
L 148.587742 129.812343 
L 148.701659 129.6716 
L 148.808132 129.560867 
L 148.92182 129.431507 
L 148.99941 129.320775 
L 149.107189 129.183136 
L 149.110506 129.183136 
L 149.192968 129.073439 
L 149.307549 128.959602 
L 149.414623 128.84887 
L 149.523086 128.71951 
L 149.525699 128.71951 
L 149.626926 128.611883 
L 149.626926 128.609813 
L 149.74049 128.483558 
L 149.823263 128.372825 
L 149.940062 128.231047 
L 150.04556 128.120315 
L 150.158896 128.007513 
L 150.262839 127.896781 
L 150.37885 127.7757 
L 150.490589 127.664968 
L 150.606372 127.548026 
L 150.710129 127.437294 
L 150.827508 127.281027 
L 150.919508 127.170295 
L 151.032865 127.055423 
L 151.134071 126.944691 
L 151.247366 126.833959 
L 151.353175 126.723227 
L 151.464065 126.618704 
L 151.464189 126.618704 
L 151.593449 126.507972 
L 151.707366 126.368263 
L 151.841229 126.258566 
L 151.95075 126.142659 
L 151.952243 126.142659 
L 152.076299 126.032962 
L 152.188536 125.912916 
L 152.302702 125.803219 
L 152.413549 125.681103 
L 152.413757 125.681103 
L 152.494747 125.571406 
L 152.608083 125.459639 
L 152.714245 125.349941 
L 152.82503 125.198849 
L 152.825341 125.198849 
L 152.931793 125.088117 
L 153.044653 125.000152 
L 153.175489 124.890455 
L 153.287643 124.784897 
L 153.418645 124.6752 
L 153.418645 124.674165 
L 153.535962 124.573782 
L 153.649671 124.463049 
L 153.774391 124.33162 
L 153.896705 124.221922 
L 154.007263 124.118434 
L 154.007802 124.118434 
L 154.126695 124.007702 
L 154.237086 123.882482 
L 154.237708 123.882482 
L 154.370556 123.77175 
L 154.489366 123.646529 
L 154.613795 123.536832 
L 154.72738 123.408507 
L 154.84082 123.29881 
L 154.949304 123.193252 
L 154.951875 123.193252 
L 155.112507 123.083555 
L 155.226797 122.975927 
L 155.331134 122.86623 
L 155.441671 122.758602 
L 155.44221 122.758602 
L 155.55793 122.64787 
L 155.674688 122.555766 
L 155.762105 122.446069 
L 155.874363 122.330162 
L 156.001322 122.220465 
L 156.117333 122.098349 
L 156.249247 121.988652 
L 156.365237 121.82721 
L 156.485291 121.717513 
L 156.485291 121.716478 
L 156.605947 121.601607 
L 156.720713 121.491909 
L 156.835501 121.40084 
L 156.958147 121.291143 
L 157.070114 121.202143 
L 157.196762 121.092446 
L 157.309518 121.007586 
L 157.409874 120.896854 
L 157.519291 120.788191 
L 157.520971 120.788191 
L 157.647598 120.677459 
L 157.768564 120.558448 
L 157.889593 120.448751 
L 158.003012 120.332844 
L 158.094369 120.223147 
L 158.094369 120.222112 
L 158.216289 120.119659 
L 158.365351 120.008927 
L 158.478335 119.914753 
L 158.625593 119.805055 
L 158.741168 119.695358 
L 158.854629 119.585661 
L 158.966907 119.467684 
L 159.130069 119.356952 
L 159.245769 119.24415 
L 159.406504 119.134453 
L 159.514615 119.070291 
L 159.51756 119.070291 
L 159.625587 118.959558 
L 159.735565 118.855036 
L 159.736643 118.855036 
L 159.859931 118.744303 
L 159.966384 118.660478 
L 159.970924 118.660478 
L 160.082643 118.550781 
L 160.196124 118.47213 
L 160.326028 118.361398 
L 160.439571 118.240317 
L 160.582703 118.13062 
L 160.582703 118.129585 
L 160.696993 118.049899 
L 160.829736 117.939167 
L 160.946618 117.844993 
L 161.075899 117.735296 
L 161.186167 117.652505 
L 161.186975 117.652505 
L 161.27827 117.542808 
L 161.390238 117.44346 
L 161.519622 117.333762 
L 161.630595 117.248902 
L 161.630698 117.248902 
L 161.784675 117.139205 
L 161.896601 117.052275 
L 162.045186 116.942578 
L 162.155349 116.83288 
L 162.15622 116.83288 
L 162.28998 116.723183 
L 162.401906 116.640393 
L 162.529445 116.530696 
L 162.646721 116.431347 
L 162.780626 116.32165 
L 162.893091 116.249208 
L 163.016981 116.139511 
L 163.12897 116.042232 
L 163.288171 115.932535 
L 163.288171 115.9315 
L 163.401631 115.874582 
L 163.525127 115.764884 
L 163.640288 115.663466 
L 163.807617 115.553769 
L 163.918486 115.489606 
L 163.918652 115.489606 
L 164.063816 115.379909 
L 164.176115 115.317816 
L 164.32329 115.208119 
L 164.435714 115.137747 
L 164.631657 115.02805 
L 164.738939 114.961818 
L 164.742754 114.961818 
L 164.88487 114.85212 
L 164.993354 114.790028 
L 164.995925 114.790028 
L 165.158361 114.68033 
L 165.269375 114.59547 
L 165.269458 114.59547 
L 165.414145 114.485773 
L 165.518109 114.405052 
L 165.525241 114.405052 
L 165.702814 114.295355 
L 165.810696 114.196007 
L 165.813869 114.196007 
L 165.99451 114.086309 
L 165.99451 114.085274 
L 166.111226 113.99524 
L 166.270489 113.884508 
L 166.379657 113.788264 
L 166.381544 113.788264 
L 166.592873 113.677532 
L 166.697189 113.599916 
L 166.703969 113.599916 
L 166.894812 113.490219 
L 167.004913 113.423986 
L 167.005826 113.423986 
L 167.167868 113.313254 
L 167.281971 113.239778 
L 167.431427 113.13008 
L 167.431427 113.129046 
L 167.544348 113.036941 
L 167.694426 112.926209 
L 167.800878 112.856872 
L 167.80544 112.856872 
L 167.93949 112.74614 
L 168.052225 112.662315 
L 168.198653 112.551583 
L 168.305106 112.490525 
L 168.309688 112.490525 
L 168.515211 112.380827 
L 168.626867 112.324944 
L 168.824096 112.215247 
L 168.932746 112.144875 
L 168.935151 112.144875 
L 169.090289 112.035178 
L 169.090289 112.034143 
L 169.205636 111.966875 
L 169.374147 111.857178 
L 169.471953 111.801295 
L 169.485161 111.801295 
L 169.614919 111.691597 
L 169.724398 111.629505 
L 169.725995 111.629505 
L 169.948458 111.519807 
L 170.056361 111.455645 
L 170.059534 111.455645 
L 170.256203 111.345948 
L 170.256203 111.344913 
L 170.369082 111.256948 
L 170.578586 111.147251 
L 170.688978 111.081018 
L 170.689683 111.081018 
L 170.881811 110.971321 
L 170.994152 110.909228 
L 171.185741 110.799531 
L 171.295552 110.71881 
L 171.296837 110.71881 
L 171.51281 110.609113 
L 171.51281 110.608078 
L 171.624778 110.561509 
L 171.784643 110.450777 
L 171.891634 110.373161 
L 171.895719 110.373161 
L 172.083596 110.263463 
L 172.193863 110.188952 
L 172.194693 110.188952 
L 172.335772 110.079255 
L 172.444422 110.015092 
L 172.446848 110.015092 
L 172.620543 109.905395 
L 172.728778 109.847442 
L 172.73164 109.847442 
L 172.948857 109.737744 
L 172.948857 109.736709 
L 173.062815 109.667373 
L 173.28845 109.557675 
L 173.400086 109.501792 
L 173.599015 109.392094 
L 173.703539 109.334141 
L 173.710112 109.334141 
L 173.918786 109.224444 
L 174.026233 109.139584 
L 174.029862 109.139584 
L 174.20281 109.029887 
L 174.306318 108.980212 
L 174.313803 108.980212 
L 174.512961 108.870515 
L 174.624513 108.818771 
L 174.833229 108.709074 
L 174.941071 108.65733 
L 174.944326 108.65733 
L 175.10755 108.547633 
L 175.214956 108.48761 
L 175.218646 108.48761 
L 175.454276 108.376877 
L 175.563507 108.330308 
L 175.565352 108.330308 
L 175.786446 108.220611 
L 175.786446 108.219576 
L 175.898497 108.173006 
L 176.170205 108.063309 
L 176.281965 107.995007 
L 176.512867 107.885309 
L 176.622098 107.823217 
L 176.623922 107.823217 
L 176.863989 107.713519 
L 176.97606 107.661775 
L 177.183304 107.552078 
L 177.293862 107.481706 
L 177.294401 107.481706 
L 177.478173 107.372009 
L 177.590513 107.309916 
L 177.786187 107.200219 
L 177.89604 107.146405 
L 177.897284 107.146405 
L 178.104051 107.036708 
L 178.212949 106.968406 
L 178.215106 106.968406 
L 178.475451 106.858709 
L 178.584267 106.798686 
L 178.586548 106.798686 
L 178.867027 106.688988 
L 178.978932 106.606198 
L 179.162393 106.496501 
L 179.272785 106.41992 
L 179.273448 106.41992 
L 179.451311 106.309187 
L 179.561993 106.24399 
L 179.562387 106.24399 
L 179.774109 106.134293 
L 179.871065 106.07634 
L 179.885206 106.07634 
L 180.054339 105.966642 
L 180.166037 105.904549 
L 180.403947 105.794852 
L 180.51409 105.732759 
L 180.515023 105.732759 
L 180.703854 105.623062 
L 180.808834 105.573388 
L 180.814951 105.573388 
L 181.041665 105.463691 
L 181.153259 105.409877 
L 181.404979 105.30018 
L 181.510726 105.244296 
L 181.516075 105.244296 
L 181.703061 105.134599 
L 181.811628 105.099413 
L 181.814158 105.099413 
L 182.01317 104.989716 
L 182.124018 104.933832 
L 182.124267 104.933832 
L 182.327799 104.824135 
L 182.439393 104.768251 
L 182.71475 104.658554 
L 182.826842 104.60888 
L 183.075079 104.499183 
L 183.185906 104.455718 
L 183.186134 104.455718 
L 183.380626 104.34602 
L 183.488405 104.292207 
L 183.491722 104.292207 
L 183.798327 104.181475 
L 183.904385 104.141114 
L 183.909382 104.141114 
L 184.119529 104.031417 
L 184.230459 103.979673 
L 184.230625 103.979673 
L 184.429368 103.869976 
L 184.541605 103.812022 
L 184.801701 103.702325 
L 184.91201 103.642302 
L 184.912777 103.642302 
L 185.196345 103.53157 
L 185.306592 103.49121 
L 185.307421 103.49121 
L 185.536478 103.381512 
L 185.648632 103.348396 
L 185.906116 103.237664 
L 186.016964 103.172467 
L 186.017088 103.172467 
L 186.317991 103.062769 
L 186.425853 103.006886 
L 186.429088 103.006886 
L 186.633926 102.896154 
L 186.741975 102.855793 
L 186.744961 102.855793 
L 187.066225 102.746096 
L 187.178068 102.706771 
L 187.446665 102.597074 
L 187.55461 102.549469 
L 187.557762 102.549469 
L 187.843653 102.439772 
L 187.950063 102.402516 
L 187.954625 102.402516 
L 188.25362 102.292819 
L 188.348336 102.251424 
L 188.364717 102.251424 
L 188.614114 102.140692 
L 188.722639 102.104471 
L 188.725211 102.104471 
L 189.00034 101.994773 
L 189.00034 101.993739 
L 189.112204 101.953378 
L 189.348725 101.842646 
L 189.460547 101.804356 
L 189.736278 101.694658 
L 189.831409 101.622217 
L 189.847333 101.622217 
L 190.118668 101.512519 
L 190.227027 101.460775 
L 190.229764 101.460775 
L 190.508356 101.351078 
L 190.612984 101.313823 
L 190.619411 101.313823 
L 190.904514 101.204125 
L 191.016502 101.16066 
L 191.305151 101.050963 
L 191.405403 101.019917 
L 191.416227 101.019917 
L 191.730959 100.910219 
L 191.841683 100.870894 
L 191.841931 100.870894 
L 192.110985 100.761197 
L 192.110985 100.760162 
L 192.224446 100.703243 
L 192.48222 100.593546 
L 192.578678 100.556291 
L 192.593275 100.556291 
L 192.847276 100.445558 
L 192.953313 100.405198 
L 192.958372 100.405198 
L 193.176419 100.295501 
L 193.287184 100.235478 
L 193.287516 100.235478 
L 193.572452 100.12578 
L 193.682222 100.074037 
L 193.683528 100.074037 
L 194.00954 99.964339 
L 194.117154 99.916735 
L 194.120637 99.916735 
L 194.43595 99.807038 
L 194.43595 99.806003 
L 194.547752 99.771852 
L 194.891886 99.662154 
L 195.002568 99.593852 
L 195.002942 99.593852 
L 195.271083 99.484155 
L 195.378199 99.446899 
L 195.381744 99.446899 
L 195.735168 99.337202 
L 195.841039 99.291667 
L 195.846244 99.291667 
L 196.136095 99.18197 
L 196.229774 99.142645 
L 196.247109 99.142645 
L 196.570073 99.032947 
L 196.676048 98.991552 
L 196.681086 98.991552 
L 196.973156 98.881855 
L 197.069365 98.830111 
L 197.08417 98.830111 
L 197.464631 98.719379 
L 197.574795 98.687298 
L 197.575666 98.687298 
L 197.878393 98.5776 
L 197.990672 98.519647 
L 198.358278 98.40995 
L 198.466223 98.354066 
L 198.46925 98.354066 
L 198.740958 98.244369 
L 198.852511 98.192625 
L 199.206079 98.082928 
L 199.316388 98.051881 
L 199.317135 98.051881 
L 199.686006 97.942184 
L 199.786154 97.89458 
L 199.797102 97.89458 
L 200.157223 97.784882 
L 200.260524 97.745557 
L 200.26832 97.745557 
L 200.642831 97.63586 
L 200.75372 97.586185 
L 200.753927 97.586185 
L 201.154564 97.476488 
L 201.265661 97.422674 
L 201.597499 97.312977 
L 201.704034 97.259163 
L 201.708596 97.259163 
L 202.119641 97.149466 
L 202.229328 97.122559 
L 202.230738 97.122559 
L 202.738988 97.012862 
L 202.846725 96.975606 
L 202.850084 96.975606 
L 203.197868 96.865909 
L 203.309297 96.832793 
L 203.705724 96.723096 
L 203.811056 96.689979 
L 203.816738 96.689979 
L 204.170763 96.580282 
L 204.273068 96.540957 
L 204.281859 96.540957 
L 204.59429 96.43126 
L 204.696347 96.406422 
L 204.705304 96.406422 
L 205.14289 96.296725 
L 205.247559 96.278097 
L 205.253987 96.278097 
L 205.852267 96.1684 
L 205.962119 96.151842 
L 205.963363 96.151842 
L 206.731378 96.042145 
L 206.832439 96.025587 
L 206.842475 96.025587 
L 208.290174 95.915889 
L 208.367887 95.90761 
L 208.401229 95.90761 
L 210.651072 95.797913 
L 210.72128 95.791704 
L 210.762169 95.791704 
L 213.02495 95.682007 
L 213.105484 95.673727 
L 213.136047 95.673727 
L 214.667017 95.56403 
L 214.75489 95.557821 
L 214.77803 95.557821 
L 216.131635 95.448124 
L 216.242442 95.435705 
L 217.828939 95.326008 
L 217.937009 95.297031 
L 217.940036 95.297031 
L 218.718459 95.187334 
L 218.82404 95.172846 
L 218.829266 95.172846 
L 219.512662 95.063148 
L 219.623489 95.0528 
L 220.188179 94.943102 
L 220.284885 94.924474 
L 220.299275 94.924474 
L 220.707625 94.814777 
L 220.815778 94.781661 
L 220.818722 94.781661 
L 221.350734 94.671964 
L 221.453827 94.655406 
L 221.461789 94.655406 
L 221.880216 94.545708 
L 221.976218 94.527081 
L 221.991271 94.527081 
L 222.389668 94.417383 
L 222.497696 94.388407 
L 222.500724 94.388407 
L 222.88726 94.278709 
L 222.999269 94.249733 
L 223.366855 94.140036 
L 223.477454 94.096571 
L 223.47791 94.096571 
L 223.78354 93.986873 
L 223.893517 93.949618 
L 223.894637 93.949618 
L 224.304314 93.83992 
L 224.416115 93.802665 
L 224.716935 93.692967 
L 224.826456 93.661921 
L 224.828031 93.661921 
L 225.178241 93.551189 
L 225.29137 93.50255 
L 225.639257 93.392852 
L 225.639257 93.391817 
L 225.751598 93.361806 
L 226.168677 93.252109 
L 226.280043 93.206574 
L 226.701767 93.096877 
L 226.813963 93.061691 
L 227.137964 92.951994 
L 227.246883 92.918877 
L 227.24906 92.918877 
L 227.561699 92.80918 
L 227.561699 92.808145 
L 227.669354 92.757436 
L 227.672775 92.757436 
L 227.992193 92.647739 
L 228.106898 92.600134 
L 228.405146 92.490437 
L 228.405146 92.489402 
L 228.516865 92.457321 
L 228.811671 92.346589 
L 228.916133 92.306229 
L 228.922727 92.306229 
L 229.275404 92.195496 
L 229.38791 92.161345 
L 229.797359 92.051648 
L 229.901157 92.016462 
L 229.908415 92.016462 
L 230.200608 91.906765 
L 230.312265 91.879858 
L 230.606926 91.770161 
L 230.718894 91.726696 
L 231.01312 91.615964 
L 231.125336 91.561115 
L 231.422879 91.451418 
L 231.536133 91.399674 
L 231.935401 91.289977 
L 231.935401 91.288942 
L 232.047202 91.254791 
L 232.314245 91.145093 
L 232.425673 91.109907 
L 232.743309 90.999175 
L 232.856396 90.950536 
L 233.168827 90.840839 
L 233.279592 90.809792 
L 233.279924 90.809792 
L 233.538071 90.69906 
L 233.652983 90.65456 
L 233.89222 90.544863 
L 233.89222 90.543828 
L 234.004146 90.497259 
L 234.339593 90.386526 
L 234.451561 90.344096 
L 234.780621 90.234399 
L 234.884129 90.201283 
L 234.891676 90.201283 
L 235.176551 90.091586 
L 235.289306 90.037772 
L 235.474612 89.928075 
L 235.588446 89.88461 
L 235.867245 89.774912 
L 235.977616 89.733517 
L 235.978321 89.733517 
L 236.2684 89.62382 
L 236.380119 89.561727 
L 236.658897 89.45203 
L 236.770326 89.412705 
L 237.023455 89.303007 
L 237.138513 89.257473 
L 237.402652 89.147775 
L 237.516113 89.102241 
L 237.823526 88.992543 
L 237.930745 88.93252 
L 237.934623 88.93252 
L 238.230051 88.822823 
L 238.341936 88.783498 
L 238.598424 88.6738 
L 238.710309 88.630335 
L 239.000554 88.520638 
L 239.115113 88.464755 
L 239.364511 88.354022 
L 239.480895 88.305383 
L 239.72374 88.195686 
L 239.837283 88.15843 
L 240.126056 88.047698 
L 240.2413 87.999059 
L 240.513215 87.888327 
L 240.626281 87.839687 
L 240.916816 87.72999 
L 241.02866 87.692734 
L 241.311647 87.582002 
L 241.430043 87.537502 
L 241.738285 87.42677 
L 241.851911 87.365712 
L 242.155592 87.25498 
L 242.273843 87.202201 
L 242.495932 87.094574 
L 242.495932 87.093539 
L 242.609061 87.032481 
L 242.88193 86.921749 
L 242.999144 86.877249 
L 243.238277 86.767552 
L 243.347197 86.705459 
L 243.349167 86.705459 
L 243.560557 86.595762 
L 243.672131 86.546087 
L 243.927541 86.435355 
L 244.037933 86.384646 
L 244.038617 86.384646 
L 244.328717 86.274949 
L 244.430379 86.227344 
L 244.439814 86.227344 
L 244.705094 86.117647 
L 244.816771 86.059694 
L 245.065505 85.949997 
L 245.182967 85.898253 
L 245.495999 85.78752 
L 245.609377 85.732672 
L 245.892302 85.622975 
L 246.00456 85.565021 
L 246.264532 85.455324 
L 246.379652 85.413929 
L 246.681674 85.304232 
L 246.796109 85.237999 
L 247.062633 85.128302 
L 247.175492 85.095186 
L 247.457236 84.985489 
L 247.569328 84.935814 
L 247.809374 84.826117 
L 247.921486 84.776443 
L 248.126532 84.666746 
L 248.231906 84.621211 
L 248.237587 84.621211 
L 248.477696 84.511514 
L 248.587134 84.468049 
L 248.588772 84.468049 
L 248.806113 84.357317 
L 248.919511 84.321096 
L 249.18502 84.210364 
L 249.300471 84.138957 
L 249.5107 84.02926 
L 249.624202 83.971306 
L 249.936281 83.860574 
L 250.055547 83.782958 
L 250.324373 83.673261 
L 250.433105 83.623587 
L 250.435428 83.623587 
L 250.69851 83.512855 
L 250.806206 83.443518 
L 250.809565 83.443518 
L 251.046149 83.33382 
L 251.15795 83.292425 
L 251.478945 83.182728 
L 251.592032 83.116496 
L 251.769418 83.006798 
L 251.876243 82.955054 
L 251.880514 82.955054 
L 252.105071 82.845357 
L 252.218864 82.808101 
L 252.473984 82.698404 
L 252.585578 82.640451 
L 252.871282 82.529719 
L 252.984162 82.485219 
L 253.267751 82.374487 
L 253.383098 82.325847 
L 253.625798 82.21615 
L 253.737289 82.166476 
L 253.993114 82.055744 
L 254.106139 82.009174 
L 254.380895 81.899477 
L 254.495745 81.839454 
L 254.782299 81.729757 
L 254.88589 81.669734 
L 254.893313 81.669734 
L 255.096513 81.560036 
L 255.208605 81.510362 
L 255.461631 81.400665 
L 255.573287 81.342712 
L 255.798384 81.233014 
L 255.912466 81.160573 
L 256.142145 81.05191 
L 256.255419 80.986713 
L 256.542802 80.877016 
L 256.657362 80.810783 
L 256.963095 80.701086 
L 256.963095 80.700051 
L 257.075685 80.643133 
L 257.364292 80.533436 
L 257.47742 80.467203 
L 257.748154 80.357506 
L 257.860018 80.318181 
L 258.085715 80.208483 
L 258.198595 80.15053 
L 258.449402 80.040833 
L 258.562635 79.999438 
L 258.824307 79.888705 
L 258.936752 79.815229 
L 259.214659 79.705532 
L 259.326938 79.645509 
L 259.596095 79.535811 
L 259.708312 79.479928 
L 259.95972 79.370231 
L 260.072642 79.326766 
L 260.320214 79.217068 
L 260.430192 79.146697 
L 260.431249 79.146697 
L 260.736755 79.035964 
L 260.848929 78.983186 
L 261.08572 78.872453 
L 261.20256 78.819675 
L 261.459899 78.709977 
L 261.575869 78.666512 
L 261.748112 78.556815 
L 261.860764 78.503001 
L 262.109415 78.392269 
L 262.228556 78.331211 
L 262.533627 78.221514 
L 262.647377 78.157352 
L 262.864532 78.046619 
L 262.980439 78.00212 
L 263.243459 77.891387 
L 263.3558 77.830329 
L 263.606297 77.720632 
L 263.718679 77.679237 
L 263.97525 77.568505 
L 264.09518 77.501238 
L 264.30315 77.390506 
L 264.421379 77.335657 
L 264.665551 77.22596 
L 264.778763 77.174216 
L 265.043462 77.064518 
L 265.159204 77.010705 
L 265.442378 76.899973 
L 265.558679 76.838915 
L 265.817594 76.728182 
L 265.925684 76.689892 
L 265.928566 76.689892 
L 266.111239 76.57916 
L 266.223331 76.518102 
L 266.513866 76.408405 
L 266.628965 76.354591 
L 266.866688 76.243859 
L 266.983819 76.18901 
L 267.242174 76.078278 
L 267.354805 76.002732 
L 267.660683 75.893034 
L 267.766617 75.84336 
L 267.771739 75.84336 
L 268.063808 75.733663 
L 268.173101 75.686058 
L 268.174905 75.686058 
L 268.480742 75.575326 
L 268.591797 75.54428 
L 268.707622 75.50185 
L 268.954406 75.391118 
L 269.067867 75.334199 
L 269.358485 75.224502 
L 269.358485 75.223467 
L 269.470453 75.181037 
L 269.697021 75.07134 
L 269.811497 75.017526 
L 270.008229 74.906794 
L 270.124924 74.856085 
L 270.295488 74.746388 
L 270.4076 74.711202 
L 270.648476 74.601504 
L 270.648476 74.60047 
L 270.761003 74.566319 
L 271.020415 74.455586 
L 271.13879 74.388319 
L 271.370003 74.277587 
L 271.484065 74.231017 
L 271.712997 74.12132 
L 271.82963 74.053018 
L 272.031648 73.943321 
L 272.146643 73.897786 
L 272.393055 73.788089 
L 272.502244 73.732205 
L 272.504069 73.732205 
L 272.750853 73.622508 
L 272.864521 73.558346 
L 273.156591 73.448648 
L 273.272436 73.392765 
L 273.448079 73.283068 
L 273.561872 73.231324 
L 273.854978 73.121626 
L 273.968459 73.061603 
L 274.233076 72.951906 
L 274.346204 72.900162 
L 274.610614 72.78943 
L 274.731083 72.738721 
L 275.031384 72.629023 
L 275.144637 72.558652 
L 275.438096 72.448954 
L 275.553381 72.391001 
L 275.863178 72.281304 
L 275.975934 72.239909 
L 276.268252 72.130211 
L 276.380925 72.078467 
L 276.652259 71.96877 
L 276.754938 71.931514 
L 276.763252 71.931514 
L 277.036723 71.820782 
L 277.15545 71.763864 
L 277.438769 71.654167 
L 277.438769 71.653132 
L 277.554179 71.602423 
L 277.890579 71.491691 
L 277.981667 71.45547 
L 278.001551 71.45547 
L 278.369261 71.345772 
L 278.483136 71.289889 
L 278.7773 71.180192 
L 278.889641 71.138797 
L 279.198443 71.029099 
L 279.3135 70.983565 
L 279.638807 70.873867 
L 279.748743 70.820054 
L 279.74978 70.820054 
L 280.014272 70.710356 
L 280.125742 70.671031 
L 280.360625 70.560299 
L 280.467658 70.499241 
L 280.47166 70.499241 
L 280.789253 70.389544 
L 280.902755 70.344009 
L 281.224351 70.234312 
L 281.3307 70.194986 
L 281.335386 70.194986 
L 281.611344 70.084254 
L 281.723851 70.045963 
L 282.031886 69.936266 
L 282.147358 69.876243 
L 282.490082 69.765511 
L 282.602402 69.735499 
L 282.890615 69.624767 
L 283.006709 69.580268 
L 283.269625 69.47057 
L 283.381717 69.420896 
L 283.716728 69.311199 
L 283.828882 69.276013 
L 284.143719 69.165281 
L 284.23885 69.118711 
L 284.254774 69.118711 
L 284.588354 69.007979 
L 284.692069 68.965549 
L 284.699368 68.965549 
L 284.960253 68.855852 
L 285.072033 68.820666 
L 285.442169 68.710968 
L 285.553909 68.673713 
L 285.997984 68.564016 
L 286.104872 68.520551 
L 286.109081 68.520551 
L 286.530494 68.410853 
L 286.645675 68.35497 
L 287.119734 68.244238 
L 287.224216 68.216296 
L 287.23083 68.216296 
L 287.527938 68.106599 
L 287.642228 68.075552 
L 288.063247 67.965855 
L 288.176956 67.92032 
L 288.529073 67.810623 
L 288.637184 67.775437 
L 288.64017 67.775437 
L 288.959215 67.66574 
L 289.072925 67.624345 
L 289.411938 67.513612 
L 289.525543 67.485671 
L 289.907187 67.374939 
L 290.027303 67.340788 
L 290.41836 67.23109 
L 290.531593 67.195904 
L 290.959951 67.086207 
L 291.074863 67.05723 
L 291.428619 66.947533 
L 291.542701 66.908208 
L 291.918186 66.797476 
L 292.031626 66.761255 
L 292.482835 66.651558 
L 292.594802 66.622581 
L 292.928611 66.512884 
L 292.928611 66.511849 
L 293.043896 66.475628 
L 293.447891 66.365931 
L 293.554468 66.343163 
L 293.558988 66.343163 
L 293.997403 66.233466 
L 294.097635 66.19828 
L 294.108479 66.19828 
L 294.45786 66.088583 
L 294.573974 66.053397 
L 294.856029 65.9437 
L 294.967582 65.898165 
L 295.502206 65.788468 
L 295.61463 65.76777 
L 296.161011 65.657038 
L 296.275363 65.620817 
L 296.617859 65.510085 
L 296.730034 65.494562 
L 297.301856 65.38383 
L 297.41173 65.345539 
L 297.412932 65.345539 
L 297.913324 65.234807 
L 298.026349 65.215144 
L 298.506005 65.105447 
L 298.61113 65.07647 
L 298.617102 65.07647 
L 298.991198 64.965738 
L 299.103643 64.946076 
L 299.528829 64.835343 
L 299.641895 64.805332 
L 300.115601 64.695635 
L 300.228066 64.662519 
L 300.686677 64.551786 
L 300.806109 64.515566 
L 301.487183 64.405868 
L 301.600312 64.374822 
L 302.061349 64.265125 
L 302.171243 64.232009 
L 302.172383 64.232009 
L 302.620958 64.122311 
L 302.736181 64.080916 
L 303.241445 63.970184 
L 303.35588 63.942242 
L 304.058145 63.832545 
L 304.169884 63.811847 
L 304.73136 63.701115 
L 304.845692 63.664894 
L 305.41994 63.555197 
L 305.531286 63.526221 
L 305.95811 63.416523 
L 306.070451 63.387547 
L 306.62129 63.277849 
L 306.733009 63.259222 
L 307.365252 63.148489 
L 307.477634 63.118478 
L 308.013254 63.007746 
L 308.117508 62.977734 
L 308.124288 62.977734 
L 308.659514 62.868037 
L 308.659514 62.867002 
L 308.771461 62.855618 
L 309.358814 62.745921 
L 309.47132 62.727293 
L 310.154198 62.617596 
L 310.265627 62.603108 
L 310.973075 62.49341 
L 311.085333 62.472713 
L 311.676625 62.361981 
L 311.791641 62.346458 
L 312.649416 62.23676 
L 312.760865 62.226411 
L 313.506611 62.116714 
L 313.618786 62.098086 
L 314.334362 61.987354 
L 314.448113 61.971831 
L 315.068994 61.861099 
L 315.182516 61.847645 
L 316.013336 61.737948 
L 316.124703 61.71932 
L 316.879924 61.609623 
L 316.879924 61.608588 
L 316.991228 61.597205 
L 317.661146 61.487507 
L 317.772222 61.470949 
L 318.605178 61.361252 
L 318.717788 61.342624 
L 319.679217 61.232927 
L 319.791848 61.220508 
L 320.773948 61.110811 
L 320.88548 61.100462 
L 321.800442 60.98973 
L 321.884687 60.976277 
L 321.911518 60.976277 
L 322.828595 60.865544 
L 322.94106 60.86037 
L 324.009521 60.750673 
L 324.12099 60.738254 
L 324.961058 60.627522 
L 325.075431 60.611999 
L 326.037004 60.502302 
L 326.037004 60.501267 
L 326.148599 60.489883 
L 327.07428 60.380186 
L 327.185667 60.365698 
L 328.22568 60.256 
L 328.337171 60.237372 
L 329.46966 60.12664 
L 329.583826 60.119396 
L 330.736781 60.009699 
L 330.848105 59.99935 
L 331.919884 59.889653 
L 332.032453 59.877234 
L 333.232703 59.767537 
L 333.34407 59.755118 
L 334.585437 59.645421 
L 334.697115 59.635072 
L 336.064239 59.52434 
L 336.177243 59.510887 
L 337.171245 59.40119 
L 337.282529 59.39291 
L 338.660601 59.283213 
L 338.771822 59.270795 
L 339.912854 59.161097 
L 340.024531 59.148679 
L 341.483676 59.038982 
L 341.595084 59.030703 
L 342.623133 58.921005 
L 342.734395 58.908587 
L 343.914865 58.798889 
L 344.026542 58.79268 
L 345.083599 58.681948 
L 345.196085 58.668495 
L 346.100389 58.558797 
L 346.211569 58.552588 
L 347.341777 58.442891 
L 347.453061 58.432542 
L 348.628824 58.32388 
L 348.722877 58.306287 
L 348.739858 58.306287 
L 349.911889 58.195555 
L 350.018797 58.182101 
L 350.022861 58.182101 
L 351.055161 58.071369 
L 351.166444 58.062055 
L 352.497034 57.952358 
L 352.608586 57.937869 
L 354.331124 57.827137 
L 354.442781 57.813684 
L 355.8408 57.703987 
L 355.952332 57.689498 
L 357.607212 57.579801 
L 357.718599 57.561173 
L 359.194747 57.451476 
L 359.274534 57.439057 
L 359.305843 57.439057 
L 360.916725 57.32936 
L 361.027801 57.325221 
L 362.312276 57.215523 
L 362.423393 57.209314 
L 363.800594 57.098582 
L 363.904434 57.083059 
L 363.911546 57.083059 
L 365.173317 56.973361 
L 365.284725 56.965082 
L 366.572974 56.855385 
L 366.68463 56.838827 
L 368.181802 56.72913 
L 368.294019 56.712572 
L 369.654051 56.602874 
L 369.733175 56.590456 
L 369.765127 56.590456 
L 371.038986 56.480759 
L 371.15027 56.476619 
L 372.714042 56.366922 
L 372.714042 56.365887 
L 372.825304 56.358643 
L 374.051847 56.248946 
L 374.051847 56.247911 
L 374.163483 56.236527 
L 375.425896 56.125795 
L 375.537698 56.110272 
L 376.536573 56.000574 
L 376.634316 55.988156 
L 376.64767 55.988156 
L 377.825776 55.878459 
L 377.934073 55.86604 
L 377.936872 55.86604 
L 379.067247 55.756343 
L 379.176602 55.743924 
L 379.178302 55.743924 
L 381.474342 55.634227 
L 381.585771 55.617669 
L 383.036166 55.507972 
L 383.042324 55.503832 
L 383.147262 55.503832 
L 385.131576 55.3931 
L 385.239438 55.381716 
L 385.242652 55.381716 
L 386.758652 55.270984 
L 386.870847 55.253391 
L 388.699236 55.143694 
L 388.699236 55.142659 
L 388.811204 55.135415 
L 390.753675 55.025718 
L 390.864792 55.023648 
L 393.113827 54.913951 
L 393.224965 54.907741 
L 395.776042 54.798044 
L 395.879923 54.787695 
L 395.886932 54.787695 
L 397.793573 54.677998 
L 397.875185 54.673858 
L 397.904546 54.673858 
L 400.399266 54.564161 
L 400.510736 54.555882 
L 402.855378 54.446185 
L 402.855378 54.444115 
L 402.966309 54.444115 
L 405.253018 54.334418 
L 405.32841 54.31786 
L 405.364032 54.31786 
L 408.314833 54.208163 
L 408.420415 54.197814 
L 408.42593 54.197814 
L 414.72 54.144 
L 414.72 54.144 
" clip-path="url(#p8cbc831524)" style="fill: none; stroke: #ff8c00; stroke-width: 1.5; stroke-linecap: square"/>
   </g>
   <g id="line2d_14">
    <path d="M 74.605714 307.584 
L 414.72 54.144 
" clip-path="url(#p8cbc831524)" style="fill: none; stroke-dasharray: 5.55,2.4; stroke-dashoffset: 0; stroke: #0000ff; stroke-width: 1.5"/>
   </g>
   <g id="patch_3">
    <path d="M 57.6 307.584 
L 57.6 41.472 
" style="fill: none; stroke: #000000; stroke-width: 0.8; stroke-linejoin: miter; stroke-linecap: square"/>
   </g>
   <g id="patch_4">
    <path d="M 414.72 307.584 
L 414.72 41.472 
" style="fill: none; stroke: #000000; stroke-width: 0.8; stroke-linejoin: miter; stroke-linecap: square"/>
   </g>
   <g id="patch_5">
    <path d="M 57.6 307.584 
L 414.72 307.584 
" style="fill: none; stroke: #000000; stroke-width: 0.8; stroke-linejoin: miter; stroke-linecap: square"/>
   </g>
   <g id="patch_6">
    <path d="M 57.6 41.472 
L 414.72 41.472 
" style="fill: none; stroke: #000000; stroke-width: 0.8; stroke-linejoin: miter; stroke-linecap: square"/>
   </g>
   <g id="text_15">
    <!-- ROC CURVE -->
    <g transform="translate(200.855625 35.472)scale(0.12 -0.12)">
     <defs>
      <path id="DejaVuSans-4f" d="M 2522 4238 
Q 1834 4238 1429 3725 
Q 1025 3213 1025 2328 
Q 1025 1447 1429 934 
Q 1834 422 2522 422 
Q 3209 422 3611 934 
Q 4013 1447 4013 2328 
Q 4013 3213 3611 3725 
Q 3209 4238 2522 4238 
z
M 2522 4750 
Q 3503 4750 4090 4092 
Q 4678 3434 4678 2328 
Q 4678 1225 4090 567 
Q 3503 -91 2522 -91 
Q 1538 -91 948 565 
Q 359 1222 359 2328 
Q 359 3434 948 4092 
Q 1538 4750 2522 4750 
z
" transform="scale(0.015625)"/>
      <path id="DejaVuSans-43" d="M 4122 4306 
L 4122 3641 
Q 3803 3938 3442 4084 
Q 3081 4231 2675 4231 
Q 1875 4231 1450 3742 
Q 1025 3253 1025 2328 
Q 1025 1406 1450 917 
Q 1875 428 2675 428 
Q 3081 428 3442 575 
Q 3803 722 4122 1019 
L 4122 359 
Q 3791 134 3420 21 
Q 3050 -91 2638 -91 
Q 1578 -91 968 557 
Q 359 1206 359 2328 
Q 359 3453 968 4101 
Q 1578 4750 2638 4750 
Q 3056 4750 3426 4639 
Q 3797 4528 4122 4306 
z
" transform="scale(0.015625)"/>
      <path id="DejaVuSans-55" d="M 556 4666 
L 1191 4666 
L 1191 1831 
Q 1191 1081 1462 751 
Q 1734 422 2344 422 
Q 2950 422 3222 751 
Q 3494 1081 3494 1831 
L 3494 4666 
L 4128 4666 
L 4128 1753 
Q 4128 841 3676 375 
Q 3225 -91 2344 -91 
Q 1459 -91 1007 375 
Q 556 841 556 1753 
L 556 4666 
z
" transform="scale(0.015625)"/>
      <path id="DejaVuSans-56" d="M 1831 0 
L 50 4666 
L 709 4666 
L 2188 738 
L 3669 4666 
L 4325 4666 
L 2547 0 
L 1831 0 
z
" transform="scale(0.015625)"/>
      <path id="DejaVuSans-45" d="M 628 4666 
L 3578 4666 
L 3578 4134 
L 1259 4134 
L 1259 2753 
L 3481 2753 
L 3481 2222 
L 1259 2222 
L 1259 531 
L 3634 531 
L 3634 0 
L 628 0 
L 628 4666 
z
" transform="scale(0.015625)"/>
     </defs>
     <use xlink:href="#DejaVuSans-52"/>
     <use xlink:href="#DejaVuSans-4f" x="69.482422"/>
     <use xlink:href="#DejaVuSans-43" x="148.193359"/>
     <use xlink:href="#DejaVuSans-20" x="218.017578"/>
     <use xlink:href="#DejaVuSans-43" x="249.804688"/>
     <use xlink:href="#DejaVuSans-55" x="319.628906"/>
     <use xlink:href="#DejaVuSans-52" x="392.822266"/>
     <use xlink:href="#DejaVuSans-56" x="456.804688"/>
     <use xlink:href="#DejaVuSans-45" x="525.212891"/>
    </g>
   </g>
   <g id="legend_1">
    <g id="patch_7">
     <path d="M 234.97 302.584 
L 407.72 302.584 
Q 409.72 302.584 409.72 300.584 
L 409.72 286.905875 
Q 409.72 284.905875 407.72 284.905875 
L 234.97 284.905875 
Q 232.97 284.905875 232.97 286.905875 
L 232.97 300.584 
Q 232.97 302.584 234.97 302.584 
z
" style="fill: #ffffff; opacity: 0.8; stroke: #cccccc; stroke-linejoin: miter"/>
    </g>
    <g id="line2d_15">
     <path d="M 236.97 293.004312 
L 246.97 293.004312 
L 256.97 293.004312 
" style="fill: none; stroke: #ff8c00; stroke-width: 1.5; stroke-linecap: square"/>
    </g>
    <g id="text_16">
     <!-- ROC curve (ROC AUC=0.79) -->
     <g transform="translate(264.97 296.504312)scale(0.1 -0.1)">
      <defs>
       <path id="DejaVuSans-63" d="M 3122 3366 
L 3122 2828 
Q 2878 2963 2633 3030 
Q 2388 3097 2138 3097 
Q 1578 3097 1268 2742 
Q 959 2388 959 1747 
Q 959 1106 1268 751 
Q 1578 397 2138 397 
Q 2388 397 2633 464 
Q 2878 531 3122 666 
L 3122 134 
Q 2881 22 2623 -34 
Q 2366 -91 2075 -91 
Q 1284 -91 818 406 
Q 353 903 353 1747 
Q 353 2603 823 3093 
Q 1294 3584 2113 3584 
Q 2378 3584 2631 3529 
Q 2884 3475 3122 3366 
z
" transform="scale(0.015625)"/>
       <path id="DejaVuSans-28" d="M 1984 4856 
Q 1566 4138 1362 3434 
Q 1159 2731 1159 2009 
Q 1159 1288 1364 580 
Q 1569 -128 1984 -844 
L 1484 -844 
Q 1016 -109 783 600 
Q 550 1309 550 2009 
Q 550 2706 781 3412 
Q 1013 4119 1484 4856 
L 1984 4856 
z
" transform="scale(0.015625)"/>
       <path id="DejaVuSans-41" d="M 2188 4044 
L 1331 1722 
L 3047 1722 
L 2188 4044 
z
M 1831 4666 
L 2547 4666 
L 4325 0 
L 3669 0 
L 3244 1197 
L 1141 1197 
L 716 0 
L 50 0 
L 1831 4666 
z
" transform="scale(0.015625)"/>
       <path id="DejaVuSans-3d" d="M 678 2906 
L 4684 2906 
L 4684 2381 
L 678 2381 
L 678 2906 
z
M 678 1631 
L 4684 1631 
L 4684 1100 
L 678 1100 
L 678 1631 
z
" transform="scale(0.015625)"/>
       <path id="DejaVuSans-37" d="M 525 4666 
L 3525 4666 
L 3525 4397 
L 1831 0 
L 1172 0 
L 2766 4134 
L 525 4134 
L 525 4666 
z
" transform="scale(0.015625)"/>
       <path id="DejaVuSans-39" d="M 703 97 
L 703 672 
Q 941 559 1184 500 
Q 1428 441 1663 441 
Q 2288 441 2617 861 
Q 2947 1281 2994 2138 
Q 2813 1869 2534 1725 
Q 2256 1581 1919 1581 
Q 1219 1581 811 2004 
Q 403 2428 403 3163 
Q 403 3881 828 4315 
Q 1253 4750 1959 4750 
Q 2769 4750 3195 4129 
Q 3622 3509 3622 2328 
Q 3622 1225 3098 567 
Q 2575 -91 1691 -91 
Q 1453 -91 1209 -44 
Q 966 3 703 97 
z
M 1959 2075 
Q 2384 2075 2632 2365 
Q 2881 2656 2881 3163 
Q 2881 3666 2632 3958 
Q 2384 4250 1959 4250 
Q 1534 4250 1286 3958 
Q 1038 3666 1038 3163 
Q 1038 2656 1286 2365 
Q 1534 2075 1959 2075 
z
" transform="scale(0.015625)"/>
       <path id="DejaVuSans-29" d="M 513 4856 
L 1013 4856 
Q 1481 4119 1714 3412 
Q 1947 2706 1947 2009 
Q 1947 1309 1714 600 
Q 1481 -109 1013 -844 
L 513 -844 
Q 928 -128 1133 580 
Q 1338 1288 1338 2009 
Q 1338 2731 1133 3434 
Q 928 4138 513 4856 
z
" transform="scale(0.015625)"/>
      </defs>
      <use xlink:href="#DejaVuSans-52"/>
      <use xlink:href="#DejaVuSans-4f" x="69.482422"/>
      <use xlink:href="#DejaVuSans-43" x="148.193359"/>
      <use xlink:href="#DejaVuSans-20" x="218.017578"/>
      <use xlink:href="#DejaVuSans-63" x="249.804688"/>
      <use xlink:href="#DejaVuSans-75" x="304.785156"/>
      <use xlink:href="#DejaVuSans-72" x="368.164062"/>
      <use xlink:href="#DejaVuSans-76" x="409.277344"/>
      <use xlink:href="#DejaVuSans-65" x="468.457031"/>
      <use xlink:href="#DejaVuSans-20" x="529.980469"/>
      <use xlink:href="#DejaVuSans-28" x="561.767578"/>
      <use xlink:href="#DejaVuSans-52" x="600.78125"/>
      <use xlink:href="#DejaVuSans-4f" x="670.263672"/>
      <use xlink:href="#DejaVuSans-43" x="748.974609"/>
      <use xlink:href="#DejaVuSans-20" x="818.798828"/>
      <use xlink:href="#DejaVuSans-41" x="850.585938"/>
      <use xlink:href="#DejaVuSans-55" x="918.994141"/>
      <use xlink:href="#DejaVuSans-43" x="992.1875"/>
      <use xlink:href="#DejaVuSans-3d" x="1062.011719"/>
      <use xlink:href="#DejaVuSans-30" x="1145.800781"/>
      <use xlink:href="#DejaVuSans-2e" x="1209.423828"/>
      <use xlink:href="#DejaVuSans-37" x="1241.210938"/>
      <use xlink:href="#DejaVuSans-39" x="1304.833984"/>
      <use xlink:href="#DejaVuSans-29" x="1368.457031"/>
     </g>
    </g>
   </g>
  </g>
 </g>
 <defs>
  <clipPath id="p8cbc831524">
   <rect x="57.6" y="41.472" width="357.12" height="266.112"/>
  </clipPath>
 </defs>
</svg>
