<?xml version="1.0" encoding="utf-8" standalone="no"?>
<!DOCTYPE svg PUBLIC "-//W3C//DTD SVG 1.1//EN"
  "http://www.w3.org/Graphics/SVG/1.1/DTD/svg11.dtd">
<svg xmlns:xlink="http://www.w3.org/1999/xlink" width="460.8pt" height="345.6pt" viewBox="0 0 460.8 345.6" xmlns="http://www.w3.org/2000/svg" version="1.1">
 <metadata>
  <rdf:RDF xmlns:dc="http://purl.org/dc/elements/1.1/" xmlns:cc="http://creativecommons.org/ns#" xmlns:rdf="http://www.w3.org/1999/02/22-rdf-syntax-ns#">
   <cc:Work>
    <dc:type rdf:resource="http://purl.org/dc/dcmitype/StillImage"/>
    <dc:date>2022-05-22T18:47:06.070347</dc:date>
    <dc:format>image/svg+xml</dc:format>
    <dc:creator>
     <cc:Agent>
      <dc:title>Matplotlib v3.5.1, https://matplotlib.org/</dc:title>
     </cc:Agent>
    </dc:creator>
   </cc:Work>
  </rdf:RDF>
 </metadata>
 <defs>
  <style type="text/css">*{stroke-linejoin: round; stroke-linecap: butt}</style>
 </defs>
 <g id="figure_1">
  <g id="patch_1">
   <path d="M 0 345.6 
L 460.8 345.6 
L 460.8 0 
L 0 0 
z
" style="fill: #ffffff"/>
  </g>
  <g id="axes_1">
   <g id="patch_2">
    <path d="M 57.6 307.584 
L 414.72 307.584 
L 414.72 41.472 
L 57.6 41.472 
z
" style="fill: #ffffff"/>
   </g>
   <g id="matplotlib.axis_1">
    <g id="xtick_1">
     <g id="line2d_1">
      <defs>
       <path id="m95dc1e6071" d="M 0 0 
L 0 3.5 
" style="stroke: #000000; stroke-width: 0.8"/>
      </defs>
      <g>
       <use xlink:href="#m95dc1e6071" x="74.605714" y="307.584" style="stroke: #000000; stroke-width: 0.8"/>
      </g>
     </g>
     <g id="text_1">
      <!-- 0.0 -->
      <g transform="translate(66.654152 322.182437)scale(0.1 -0.1)">
       <defs>
        <path id="DejaVuSans-30" d="M 2034 4250 
Q 1547 4250 1301 3770 
Q 1056 3291 1056 2328 
Q 1056 1369 1301 889 
Q 1547 409 2034 409 
Q 2525 409 2770 889 
Q 3016 1369 3016 2328 
Q 3016 3291 2770 3770 
Q 2525 4250 2034 4250 
z
M 2034 4750 
Q 2819 4750 3233 4129 
Q 3647 3509 3647 2328 
Q 3647 1150 3233 529 
Q 2819 -91 2034 -91 
Q 1250 -91 836 529 
Q 422 1150 422 2328 
Q 422 3509 836 4129 
Q 1250 4750 2034 4750 
z
" transform="scale(0.015625)"/>
        <path id="DejaVuSans-2e" d="M 684 794 
L 1344 794 
L 1344 0 
L 684 0 
L 684 794 
z
" transform="scale(0.015625)"/>
       </defs>
       <use xlink:href="#DejaVuSans-30"/>
       <use xlink:href="#DejaVuSans-2e" x="63.623047"/>
       <use xlink:href="#DejaVuSans-30" x="95.410156"/>
      </g>
     </g>
    </g>
    <g id="xtick_2">
     <g id="line2d_2">
      <g>
       <use xlink:href="#m95dc1e6071" x="142.628571" y="307.584" style="stroke: #000000; stroke-width: 0.8"/>
      </g>
     </g>
     <g id="text_2">
      <!-- 0.2 -->
      <g transform="translate(134.677009 322.182437)scale(0.1 -0.1)">
       <defs>
        <path id="DejaVuSans-32" d="M 1228 531 
L 3431 531 
L 3431 0 
L 469 0 
L 469 531 
Q 828 903 1448 1529 
Q 2069 2156 2228 2338 
Q 2531 2678 2651 2914 
Q 2772 3150 2772 3378 
Q 2772 3750 2511 3984 
Q 2250 4219 1831 4219 
Q 1534 4219 1204 4116 
Q 875 4013 500 3803 
L 500 4441 
Q 881 4594 1212 4672 
Q 1544 4750 1819 4750 
Q 2544 4750 2975 4387 
Q 3406 4025 3406 3419 
Q 3406 3131 3298 2873 
Q 3191 2616 2906 2266 
Q 2828 2175 2409 1742 
Q 1991 1309 1228 531 
z
" transform="scale(0.015625)"/>
       </defs>
       <use xlink:href="#DejaVuSans-30"/>
       <use xlink:href="#DejaVuSans-2e" x="63.623047"/>
       <use xlink:href="#DejaVuSans-32" x="95.410156"/>
      </g>
     </g>
    </g>
    <g id="xtick_3">
     <g id="line2d_3">
      <g>
       <use xlink:href="#m95dc1e6071" x="210.651429" y="307.584" style="stroke: #000000; stroke-width: 0.8"/>
      </g>
     </g>
     <g id="text_3">
      <!-- 0.4 -->
      <g transform="translate(202.699866 322.182437)scale(0.1 -0.1)">
       <defs>
        <path id="DejaVuSans-34" d="M 2419 4116 
L 825 1625 
L 2419 1625 
L 2419 4116 
z
M 2253 4666 
L 3047 4666 
L 3047 1625 
L 3713 1625 
L 3713 1100 
L 3047 1100 
L 3047 0 
L 2419 0 
L 2419 1100 
L 313 1100 
L 313 1709 
L 2253 4666 
z
" transform="scale(0.015625)"/>
       </defs>
       <use xlink:href="#DejaVuSans-30"/>
       <use xlink:href="#DejaVuSans-2e" x="63.623047"/>
       <use xlink:href="#DejaVuSans-34" x="95.410156"/>
      </g>
     </g>
    </g>
    <g id="xtick_4">
     <g id="line2d_4">
      <g>
       <use xlink:href="#m95dc1e6071" x="278.674286" y="307.584" style="stroke: #000000; stroke-width: 0.8"/>
      </g>
     </g>
     <g id="text_4">
      <!-- 0.6 -->
      <g transform="translate(270.722723 322.182437)scale(0.1 -0.1)">
       <defs>
        <path id="DejaVuSans-36" d="M 2113 2584 
Q 1688 2584 1439 2293 
Q 1191 2003 1191 1497 
Q 1191 994 1439 701 
Q 1688 409 2113 409 
Q 2538 409 2786 701 
Q 3034 994 3034 1497 
Q 3034 2003 2786 2293 
Q 2538 2584 2113 2584 
z
M 3366 4563 
L 3366 3988 
Q 3128 4100 2886 4159 
Q 2644 4219 2406 4219 
Q 1781 4219 1451 3797 
Q 1122 3375 1075 2522 
Q 1259 2794 1537 2939 
Q 1816 3084 2150 3084 
Q 2853 3084 3261 2657 
Q 3669 2231 3669 1497 
Q 3669 778 3244 343 
Q 2819 -91 2113 -91 
Q 1303 -91 875 529 
Q 447 1150 447 2328 
Q 447 3434 972 4092 
Q 1497 4750 2381 4750 
Q 2619 4750 2861 4703 
Q 3103 4656 3366 4563 
z
" transform="scale(0.015625)"/>
       </defs>
       <use xlink:href="#DejaVuSans-30"/>
       <use xlink:href="#DejaVuSans-2e" x="63.623047"/>
       <use xlink:href="#DejaVuSans-36" x="95.410156"/>
      </g>
     </g>
    </g>
    <g id="xtick_5">
     <g id="line2d_5">
      <g>
       <use xlink:href="#m95dc1e6071" x="346.697143" y="307.584" style="stroke: #000000; stroke-width: 0.8"/>
      </g>
     </g>
     <g id="text_5">
      <!-- 0.8 -->
      <g transform="translate(338.74558 322.182437)scale(0.1 -0.1)">
       <defs>
        <path id="DejaVuSans-38" d="M 2034 2216 
Q 1584 2216 1326 1975 
Q 1069 1734 1069 1313 
Q 1069 891 1326 650 
Q 1584 409 2034 409 
Q 2484 409 2743 651 
Q 3003 894 3003 1313 
Q 3003 1734 2745 1975 
Q 2488 2216 2034 2216 
z
M 1403 2484 
Q 997 2584 770 2862 
Q 544 3141 544 3541 
Q 544 4100 942 4425 
Q 1341 4750 2034 4750 
Q 2731 4750 3128 4425 
Q 3525 4100 3525 3541 
Q 3525 3141 3298 2862 
Q 3072 2584 2669 2484 
Q 3125 2378 3379 2068 
Q 3634 1759 3634 1313 
Q 3634 634 3220 271 
Q 2806 -91 2034 -91 
Q 1263 -91 848 271 
Q 434 634 434 1313 
Q 434 1759 690 2068 
Q 947 2378 1403 2484 
z
M 1172 3481 
Q 1172 3119 1398 2916 
Q 1625 2713 2034 2713 
Q 2441 2713 2670 2916 
Q 2900 3119 2900 3481 
Q 2900 3844 2670 4047 
Q 2441 4250 2034 4250 
Q 1625 4250 1398 4047 
Q 1172 3844 1172 3481 
z
" transform="scale(0.015625)"/>
       </defs>
       <use xlink:href="#DejaVuSans-30"/>
       <use xlink:href="#DejaVuSans-2e" x="63.623047"/>
       <use xlink:href="#DejaVuSans-38" x="95.410156"/>
      </g>
     </g>
    </g>
    <g id="xtick_6">
     <g id="line2d_6">
      <g>
       <use xlink:href="#m95dc1e6071" x="414.72" y="307.584" style="stroke: #000000; stroke-width: 0.8"/>
      </g>
     </g>
     <g id="text_6">
      <!-- 1.0 -->
      <g transform="translate(406.768438 322.182437)scale(0.1 -0.1)">
       <defs>
        <path id="DejaVuSans-31" d="M 794 531 
L 1825 531 
L 1825 4091 
L 703 3866 
L 703 4441 
L 1819 4666 
L 2450 4666 
L 2450 531 
L 3481 531 
L 3481 0 
L 794 0 
L 794 531 
z
" transform="scale(0.015625)"/>
       </defs>
       <use xlink:href="#DejaVuSans-31"/>
       <use xlink:href="#DejaVuSans-2e" x="63.623047"/>
       <use xlink:href="#DejaVuSans-30" x="95.410156"/>
      </g>
     </g>
    </g>
    <g id="text_7">
     <!-- False Positive Rate -->
     <g transform="translate(189.693594 335.860562)scale(0.1 -0.1)">
      <defs>
       <path id="DejaVuSans-46" d="M 628 4666 
L 3309 4666 
L 3309 4134 
L 1259 4134 
L 1259 2759 
L 3109 2759 
L 3109 2228 
L 1259 2228 
L 1259 0 
L 628 0 
L 628 4666 
z
" transform="scale(0.015625)"/>
       <path id="DejaVuSans-61" d="M 2194 1759 
Q 1497 1759 1228 1600 
Q 959 1441 959 1056 
Q 959 750 1161 570 
Q 1363 391 1709 391 
Q 2188 391 2477 730 
Q 2766 1069 2766 1631 
L 2766 1759 
L 2194 1759 
z
M 3341 1997 
L 3341 0 
L 2766 0 
L 2766 531 
Q 2569 213 2275 61 
Q 1981 -91 1556 -91 
Q 1019 -91 701 211 
Q 384 513 384 1019 
Q 384 1609 779 1909 
Q 1175 2209 1959 2209 
L 2766 2209 
L 2766 2266 
Q 2766 2663 2505 2880 
Q 2244 3097 1772 3097 
Q 1472 3097 1187 3025 
Q 903 2953 641 2809 
L 641 3341 
Q 956 3463 1253 3523 
Q 1550 3584 1831 3584 
Q 2591 3584 2966 3190 
Q 3341 2797 3341 1997 
z
" transform="scale(0.015625)"/>
       <path id="DejaVuSans-6c" d="M 603 4863 
L 1178 4863 
L 1178 0 
L 603 0 
L 603 4863 
z
" transform="scale(0.015625)"/>
       <path id="DejaVuSans-73" d="M 2834 3397 
L 2834 2853 
Q 2591 2978 2328 3040 
Q 2066 3103 1784 3103 
Q 1356 3103 1142 2972 
Q 928 2841 928 2578 
Q 928 2378 1081 2264 
Q 1234 2150 1697 2047 
L 1894 2003 
Q 2506 1872 2764 1633 
Q 3022 1394 3022 966 
Q 3022 478 2636 193 
Q 2250 -91 1575 -91 
Q 1294 -91 989 -36 
Q 684 19 347 128 
L 347 722 
Q 666 556 975 473 
Q 1284 391 1588 391 
Q 1994 391 2212 530 
Q 2431 669 2431 922 
Q 2431 1156 2273 1281 
Q 2116 1406 1581 1522 
L 1381 1569 
Q 847 1681 609 1914 
Q 372 2147 372 2553 
Q 372 3047 722 3315 
Q 1072 3584 1716 3584 
Q 2034 3584 2315 3537 
Q 2597 3491 2834 3397 
z
" transform="scale(0.015625)"/>
       <path id="DejaVuSans-65" d="M 3597 1894 
L 3597 1613 
L 953 1613 
Q 991 1019 1311 708 
Q 1631 397 2203 397 
Q 2534 397 2845 478 
Q 3156 559 3463 722 
L 3463 178 
Q 3153 47 2828 -22 
Q 2503 -91 2169 -91 
Q 1331 -91 842 396 
Q 353 884 353 1716 
Q 353 2575 817 3079 
Q 1281 3584 2069 3584 
Q 2775 3584 3186 3129 
Q 3597 2675 3597 1894 
z
M 3022 2063 
Q 3016 2534 2758 2815 
Q 2500 3097 2075 3097 
Q 1594 3097 1305 2825 
Q 1016 2553 972 2059 
L 3022 2063 
z
" transform="scale(0.015625)"/>
       <path id="DejaVuSans-20" transform="scale(0.015625)"/>
       <path id="DejaVuSans-50" d="M 1259 4147 
L 1259 2394 
L 2053 2394 
Q 2494 2394 2734 2622 
Q 2975 2850 2975 3272 
Q 2975 3691 2734 3919 
Q 2494 4147 2053 4147 
L 1259 4147 
z
M 628 4666 
L 2053 4666 
Q 2838 4666 3239 4311 
Q 3641 3956 3641 3272 
Q 3641 2581 3239 2228 
Q 2838 1875 2053 1875 
L 1259 1875 
L 1259 0 
L 628 0 
L 628 4666 
z
" transform="scale(0.015625)"/>
       <path id="DejaVuSans-6f" d="M 1959 3097 
Q 1497 3097 1228 2736 
Q 959 2375 959 1747 
Q 959 1119 1226 758 
Q 1494 397 1959 397 
Q 2419 397 2687 759 
Q 2956 1122 2956 1747 
Q 2956 2369 2687 2733 
Q 2419 3097 1959 3097 
z
M 1959 3584 
Q 2709 3584 3137 3096 
Q 3566 2609 3566 1747 
Q 3566 888 3137 398 
Q 2709 -91 1959 -91 
Q 1206 -91 779 398 
Q 353 888 353 1747 
Q 353 2609 779 3096 
Q 1206 3584 1959 3584 
z
" transform="scale(0.015625)"/>
       <path id="DejaVuSans-69" d="M 603 3500 
L 1178 3500 
L 1178 0 
L 603 0 
L 603 3500 
z
M 603 4863 
L 1178 4863 
L 1178 4134 
L 603 4134 
L 603 4863 
z
" transform="scale(0.015625)"/>
       <path id="DejaVuSans-74" d="M 1172 4494 
L 1172 3500 
L 2356 3500 
L 2356 3053 
L 1172 3053 
L 1172 1153 
Q 1172 725 1289 603 
Q 1406 481 1766 481 
L 2356 481 
L 2356 0 
L 1766 0 
Q 1100 0 847 248 
Q 594 497 594 1153 
L 594 3053 
L 172 3053 
L 172 3500 
L 594 3500 
L 594 4494 
L 1172 4494 
z
" transform="scale(0.015625)"/>
       <path id="DejaVuSans-76" d="M 191 3500 
L 800 3500 
L 1894 563 
L 2988 3500 
L 3597 3500 
L 2284 0 
L 1503 0 
L 191 3500 
z
" transform="scale(0.015625)"/>
       <path id="DejaVuSans-52" d="M 2841 2188 
Q 3044 2119 3236 1894 
Q 3428 1669 3622 1275 
L 4263 0 
L 3584 0 
L 2988 1197 
Q 2756 1666 2539 1819 
Q 2322 1972 1947 1972 
L 1259 1972 
L 1259 0 
L 628 0 
L 628 4666 
L 2053 4666 
Q 2853 4666 3247 4331 
Q 3641 3997 3641 3322 
Q 3641 2881 3436 2590 
Q 3231 2300 2841 2188 
z
M 1259 4147 
L 1259 2491 
L 2053 2491 
Q 2509 2491 2742 2702 
Q 2975 2913 2975 3322 
Q 2975 3731 2742 3939 
Q 2509 4147 2053 4147 
L 1259 4147 
z
" transform="scale(0.015625)"/>
      </defs>
      <use xlink:href="#DejaVuSans-46"/>
      <use xlink:href="#DejaVuSans-61" x="48.394531"/>
      <use xlink:href="#DejaVuSans-6c" x="109.673828"/>
      <use xlink:href="#DejaVuSans-73" x="137.457031"/>
      <use xlink:href="#DejaVuSans-65" x="189.556641"/>
      <use xlink:href="#DejaVuSans-20" x="251.080078"/>
      <use xlink:href="#DejaVuSans-50" x="282.867188"/>
      <use xlink:href="#DejaVuSans-6f" x="339.544922"/>
      <use xlink:href="#DejaVuSans-73" x="400.726562"/>
      <use xlink:href="#DejaVuSans-69" x="452.826172"/>
      <use xlink:href="#DejaVuSans-74" x="480.609375"/>
      <use xlink:href="#DejaVuSans-69" x="519.818359"/>
      <use xlink:href="#DejaVuSans-76" x="547.601562"/>
      <use xlink:href="#DejaVuSans-65" x="606.78125"/>
      <use xlink:href="#DejaVuSans-20" x="668.304688"/>
      <use xlink:href="#DejaVuSans-52" x="700.091797"/>
      <use xlink:href="#DejaVuSans-61" x="767.324219"/>
      <use xlink:href="#DejaVuSans-74" x="828.603516"/>
      <use xlink:href="#DejaVuSans-65" x="867.8125"/>
     </g>
    </g>
   </g>
   <g id="matplotlib.axis_2">
    <g id="ytick_1">
     <g id="line2d_7">
      <defs>
       <path id="m258cc7e26d" d="M 0 0 
L -3.5 0 
" style="stroke: #000000; stroke-width: 0.8"/>
      </defs>
      <g>
       <use xlink:href="#m258cc7e26d" x="57.6" y="307.584" style="stroke: #000000; stroke-width: 0.8"/>
      </g>
     </g>
     <g id="text_8">
      <!-- 0.0 -->
      <g transform="translate(34.696875 311.383219)scale(0.1 -0.1)">
       <use xlink:href="#DejaVuSans-30"/>
       <use xlink:href="#DejaVuSans-2e" x="63.623047"/>
       <use xlink:href="#DejaVuSans-30" x="95.410156"/>
      </g>
     </g>
    </g>
    <g id="ytick_2">
     <g id="line2d_8">
      <g>
       <use xlink:href="#m258cc7e26d" x="57.6" y="256.896" style="stroke: #000000; stroke-width: 0.8"/>
      </g>
     </g>
     <g id="text_9">
      <!-- 0.2 -->
      <g transform="translate(34.696875 260.695219)scale(0.1 -0.1)">
       <use xlink:href="#DejaVuSans-30"/>
       <use xlink:href="#DejaVuSans-2e" x="63.623047"/>
       <use xlink:href="#DejaVuSans-32" x="95.410156"/>
      </g>
     </g>
    </g>
    <g id="ytick_3">
     <g id="line2d_9">
      <g>
       <use xlink:href="#m258cc7e26d" x="57.6" y="206.208" style="stroke: #000000; stroke-width: 0.8"/>
      </g>
     </g>
     <g id="text_10">
      <!-- 0.4 -->
      <g transform="translate(34.696875 210.007219)scale(0.1 -0.1)">
       <use xlink:href="#DejaVuSans-30"/>
       <use xlink:href="#DejaVuSans-2e" x="63.623047"/>
       <use xlink:href="#DejaVuSans-34" x="95.410156"/>
      </g>
     </g>
    </g>
    <g id="ytick_4">
     <g id="line2d_10">
      <g>
       <use xlink:href="#m258cc7e26d" x="57.6" y="155.52" style="stroke: #000000; stroke-width: 0.8"/>
      </g>
     </g>
     <g id="text_11">
      <!-- 0.6 -->
      <g transform="translate(34.696875 159.319219)scale(0.1 -0.1)">
       <use xlink:href="#DejaVuSans-30"/>
       <use xlink:href="#DejaVuSans-2e" x="63.623047"/>
       <use xlink:href="#DejaVuSans-36" x="95.410156"/>
      </g>
     </g>
    </g>
    <g id="ytick_5">
     <g id="line2d_11">
      <g>
       <use xlink:href="#m258cc7e26d" x="57.6" y="104.832" style="stroke: #000000; stroke-width: 0.8"/>
      </g>
     </g>
     <g id="text_12">
      <!-- 0.8 -->
      <g transform="translate(34.696875 108.631219)scale(0.1 -0.1)">
       <use xlink:href="#DejaVuSans-30"/>
       <use xlink:href="#DejaVuSans-2e" x="63.623047"/>
       <use xlink:href="#DejaVuSans-38" x="95.410156"/>
      </g>
     </g>
    </g>
    <g id="ytick_6">
     <g id="line2d_12">
      <g>
       <use xlink:href="#m258cc7e26d" x="57.6" y="54.144" style="stroke: #000000; stroke-width: 0.8"/>
      </g>
     </g>
     <g id="text_13">
      <!-- 1.0 -->
      <g transform="translate(34.696875 57.943219)scale(0.1 -0.1)">
       <use xlink:href="#DejaVuSans-31"/>
       <use xlink:href="#DejaVuSans-2e" x="63.623047"/>
       <use xlink:href="#DejaVuSans-30" x="95.410156"/>
      </g>
     </g>
    </g>
    <g id="text_14">
     <!-- True Positive Rate -->
     <g transform="translate(28.617187 219.057687)rotate(-90)scale(0.1 -0.1)">
      <defs>
       <path id="DejaVuSans-54" d="M -19 4666 
L 3928 4666 
L 3928 4134 
L 2272 4134 
L 2272 0 
L 1638 0 
L 1638 4134 
L -19 4134 
L -19 4666 
z
" transform="scale(0.015625)"/>
       <path id="DejaVuSans-72" d="M 2631 2963 
Q 2534 3019 2420 3045 
Q 2306 3072 2169 3072 
Q 1681 3072 1420 2755 
Q 1159 2438 1159 1844 
L 1159 0 
L 581 0 
L 581 3500 
L 1159 3500 
L 1159 2956 
Q 1341 3275 1631 3429 
Q 1922 3584 2338 3584 
Q 2397 3584 2469 3576 
Q 2541 3569 2628 3553 
L 2631 2963 
z
" transform="scale(0.015625)"/>
       <path id="DejaVuSans-75" d="M 544 1381 
L 544 3500 
L 1119 3500 
L 1119 1403 
Q 1119 906 1312 657 
Q 1506 409 1894 409 
Q 2359 409 2629 706 
Q 2900 1003 2900 1516 
L 2900 3500 
L 3475 3500 
L 3475 0 
L 2900 0 
L 2900 538 
Q 2691 219 2414 64 
Q 2138 -91 1772 -91 
Q 1169 -91 856 284 
Q 544 659 544 1381 
z
M 1991 3584 
L 1991 3584 
z
" transform="scale(0.015625)"/>
      </defs>
      <use xlink:href="#DejaVuSans-54"/>
      <use xlink:href="#DejaVuSans-72" x="46.333984"/>
      <use xlink:href="#DejaVuSans-75" x="87.447266"/>
      <use xlink:href="#DejaVuSans-65" x="150.826172"/>
      <use xlink:href="#DejaVuSans-20" x="212.349609"/>
      <use xlink:href="#DejaVuSans-50" x="244.136719"/>
      <use xlink:href="#DejaVuSans-6f" x="300.814453"/>
      <use xlink:href="#DejaVuSans-73" x="361.996094"/>
      <use xlink:href="#DejaVuSans-69" x="414.095703"/>
      <use xlink:href="#DejaVuSans-74" x="441.878906"/>
      <use xlink:href="#DejaVuSans-69" x="481.087891"/>
      <use xlink:href="#DejaVuSans-76" x="508.871094"/>
      <use xlink:href="#DejaVuSans-65" x="568.050781"/>
      <use xlink:href="#DejaVuSans-20" x="629.574219"/>
      <use xlink:href="#DejaVuSans-52" x="661.361328"/>
      <use xlink:href="#DejaVuSans-61" x="728.59375"/>
      <use xlink:href="#DejaVuSans-74" x="789.873047"/>
      <use xlink:href="#DejaVuSans-65" x="829.082031"/>
     </g>
    </g>
   </g>
   <g id="line2d_13">
    <path d="M 74.605714 307.584 
L 74.716438 307.122444 
L 74.716645 307.122444 
L 74.752558 307.012746 
L 74.863032 306.611213 
L 74.863571 306.611213 
L 74.893678 306.501516 
L 75.004194 306.064796 
L 75.004734 306.064796 
L 75.031647 305.955099 
L 75.142371 305.414892 
L 75.142661 305.414892 
L 75.160949 305.305195 
L 75.271921 304.678057 
L 75.272046 304.678057 
L 75.290748 304.56836 
L 75.401596 304.019874 
L 75.401804 304.019874 
L 75.42428 303.912246 
L 75.42428 303.910177 
L 75.534796 303.415504 
L 75.535377 303.415504 
L 75.558724 303.307877 
L 75.558724 303.305807 
L 75.669406 302.823553 
L 75.669779 302.823553 
L 75.696112 302.713856 
L 75.806877 302.15916 
L 75.807209 302.15916 
L 75.828483 302.049463 
L 75.938377 301.488558 
L 75.93958 301.488558 
L 75.966162 301.38093 
L 75.966162 301.379895 
L 76.07701 300.836584 
L 76.077175 300.836584 
L 76.099133 300.725851 
L 76.210168 300.17426 
L 76.234594 300.064563 
L 76.345068 299.524356 
L 76.345607 299.524356 
L 76.370862 299.414659 
L 76.49469 298.775103 
L 76.513932 298.665406 
L 76.63664 298.085873 
L 76.657789 297.977211 
L 76.657789 297.976176 
L 76.768596 297.479433 
L 76.768886 297.479433 
L 76.790492 297.369736 
L 76.901381 296.846087 
L 76.901588 296.846087 
L 76.92166 296.73639 
L 77.038686 296.144438 
L 77.065185 296.034741 
L 77.175536 295.583534 
L 77.176075 295.583534 
L 77.201371 295.473836 
L 77.311473 295.032977 
L 77.312385 295.032977 
L 77.341953 294.92328 
L 77.452676 294.463794 
L 77.475526 294.354096 
L 77.586166 293.863563 
L 77.586498 293.863563 
L 77.604994 293.753866 
L 77.715012 293.230217 
L 77.716049 293.230217 
L 77.741345 293.124659 
L 77.741345 293.12052 
L 77.863058 292.590661 
L 77.886198 292.480964 
L 77.996382 291.934547 
L 77.997274 291.934547 
L 78.026116 291.823815 
L 78.137213 291.358119 
L 78.165868 291.247387 
L 78.276094 290.771342 
L 78.276882 290.771342 
L 78.306284 290.661645 
L 78.41738 290.166973 
L 78.448607 290.059345 
L 78.559165 289.577091 
L 78.559704 289.577091 
L 78.593709 289.467394 
L 78.704474 288.989279 
L 78.704681 288.989279 
L 78.73176 288.879582 
L 78.842733 288.438723 
L 78.842816 288.438723 
L 78.866039 288.331096 
L 78.866039 288.327991 
L 78.975767 287.8654 
L 78.977094 287.8654 
L 79.010021 287.755703 
L 79.130282 287.298286 
L 79.157984 287.188588 
L 79.268666 286.774636 
L 79.26908 286.774636 
L 79.296367 286.667009 
L 79.407215 286.219941 
L 79.407422 286.219941 
L 79.434046 286.109209 
L 79.544417 285.669385 
L 79.545122 285.669385 
L 79.67573 285.182991 
L 79.708263 285.072259 
L 79.822138 284.651063 
L 79.851975 284.541366 
L 79.96274 284.139832 
L 79.963072 284.139832 
L 80.000063 284.030135 
L 80.110496 283.572718 
L 80.111159 283.572718 
L 80.13036 283.463021 
L 80.241125 283.03665 
L 80.241415 283.03665 
L 80.273512 282.931093 
L 80.38436 282.471606 
L 80.384568 282.471606 
L 80.409242 282.363979 
L 80.409242 282.361909 
L 80.524486 281.941748 
L 80.550383 281.83205 
L 80.67813 281.275285 
L 80.709336 281.165588 
L 80.833931 280.71438 
L 80.861259 280.604683 
L 80.972314 280.209359 
L 80.998523 280.101731 
L 81.119158 279.625687 
L 81.151753 279.518059 
L 81.151753 279.515989 
L 81.28205 279.037875 
L 81.306413 278.928178 
L 81.43304 278.410738 
L 81.464142 278.30104 
L 81.575114 277.843624 
L 81.575239 277.843624 
L 81.606424 277.733926 
L 81.717479 277.293067 
L 81.717521 277.293067 
L 81.749411 277.18337 
L 81.860466 276.684558 
L 81.886218 276.574861 
L 82.013364 276.042933 
L 82.044217 275.933235 
L 82.164271 275.484098 
L 82.199769 275.373365 
L 82.310285 274.927332 
L 82.310658 274.927332 
L 82.341429 274.817635 
L 82.452525 274.391264 
L 82.583196 273.904871 
L 82.605797 273.794139 
L 82.774536 273.079037 
L 82.797697 272.96934 
L 82.917564 272.53262 
L 82.946966 272.422923 
L 83.057192 272.013111 
L 83.058063 272.013111 
L 83.08508 271.902378 
L 83.204699 271.474973 
L 83.232525 271.364241 
L 83.364398 270.847836 
L 83.394048 270.737104 
L 83.504772 270.311768 
L 83.505145 270.311768 
L 83.535542 270.202071 
L 83.66107 269.723956 
L 83.694743 269.616329 
L 83.694743 269.614259 
L 83.813305 269.241702 
L 83.841255 269.132005 
L 83.971635 268.651821 
L 84.003732 268.541089 
L 84.133947 268.064009 
L 84.160052 267.954312 
L 84.26978 267.534151 
L 84.271128 267.534151 
L 84.29377 267.423419 
L 84.404576 267.058106 
L 84.404867 267.058106 
L 84.434517 266.948409 
L 84.545199 266.528247 
L 84.545614 266.528247 
L 84.572424 266.417515 
L 84.692084 265.98804 
L 84.723684 265.878343 
L 84.84266 265.478879 
L 84.86862 265.369182 
L 84.86862 265.368147 
L 84.979447 264.967649 
L 84.979675 264.967649 
L 85.014426 264.857951 
L 85.124652 264.431581 
L 85.125419 264.431581 
L 85.159113 264.321884 
L 85.26992 263.901722 
L 85.270127 263.901722 
L 85.30181 263.792025 
L 85.30181 263.79099 
L 85.442287 263.305632 
L 85.472208 263.195934 
L 85.583221 262.775773 
L 85.583304 262.775773 
L 85.614614 262.666076 
L 85.746445 262.150706 
L 85.79003 262.041009 
L 85.910125 261.583592 
L 85.942243 261.473894 
L 86.062318 261.018547 
L 86.095515 260.90885 
L 86.216128 260.432805 
L 86.245468 260.323108 
L 86.361272 259.851203 
L 86.397309 259.741506 
L 86.507866 259.368949 
L 86.508385 259.368949 
L 86.541498 259.261321 
L 86.541498 259.258217 
L 86.652595 258.853579 
L 86.68519 258.743881 
L 86.805223 258.294744 
L 86.835765 258.185046 
L 86.946655 257.798001 
L 86.946862 257.798001 
L 87.065299 257.427514 
L 87.089102 257.317817 
L 87.19966 256.932842 
L 87.200116 256.932842 
L 87.228523 256.823144 
L 87.228523 256.82211 
L 87.34783 256.411262 
L 87.375864 256.301565 
L 87.504419 255.866915 
L 87.535977 255.761358 
L 87.535977 255.758253 
L 87.646099 255.353615 
L 87.647032 255.353615 
L 87.682199 255.242883 
L 87.838456 254.683013 
L 87.872502 254.573316 
L 87.983516 254.169713 
L 87.983557 254.169713 
L 88.01186 254.05898 
L 88.12248 253.683319 
L 88.122915 253.683319 
L 88.155925 253.573622 
L 88.280147 253.138972 
L 88.308927 253.02824 
L 88.428089 252.625672 
L 88.462405 252.51494 
L 88.60562 251.984046 
L 88.633964 251.874349 
L 88.752526 251.501792 
L 88.782591 251.394165 
L 88.782591 251.392095 
L 88.900945 251.029887 
L 88.930264 250.92019 
L 89.058114 250.504168 
L 89.084447 250.394471 
L 89.195502 249.995007 
L 89.195523 249.995007 
L 89.230876 249.88531 
L 89.349893 249.489986 
L 89.489625 249.016011 
L 89.521349 248.907349 
L 89.636986 248.566873 
L 89.678497 248.456141 
L 89.806783 248.028736 
L 89.842468 247.919038 
L 89.961464 247.521645 
L 89.997107 247.411947 
L 90.107872 247.076646 
L 90.108162 247.076646 
L 90.145361 246.966949 
L 90.255296 246.590253 
L 90.256457 246.590253 
L 90.285755 246.480555 
L 90.400978 246.068673 
L 90.431998 245.958976 
L 90.542431 245.586419 
L 90.543094 245.586419 
L 90.569241 245.476722 
L 90.69284 245.0607 
L 90.728359 244.951003 
L 90.847459 244.551539 
L 90.881775 244.441842 
L 90.992603 244.063076 
L 90.992851 244.063076 
L 91.02866 243.953379 
L 91.139757 243.506311 
L 91.174467 243.396614 
L 91.174467 243.395579 
L 91.300493 243.024057 
L 91.33852 242.91436 
L 91.449078 242.558361 
L 91.449617 242.558361 
L 91.486587 242.447629 
L 91.62072 242.067828 
L 91.658789 241.958131 
L 91.768807 241.583504 
L 91.769885 241.583504 
L 91.806462 241.475877 
L 91.92552 241.078483 
L 91.966865 240.968786 
L 92.077651 240.602438 
L 92.077962 240.602438 
L 92.105996 240.492741 
L 92.23368 240.080859 
L 92.277016 239.971161 
L 92.395784 239.586186 
L 92.425269 239.476489 
L 92.536158 239.137048 
L 92.536366 239.137048 
L 92.574725 239.027351 
L 92.685075 238.727236 
L 92.685822 238.727236 
L 92.71767 238.617539 
L 92.71767 238.616504 
L 92.844567 238.224284 
L 92.88218 238.114587 
L 92.99282 237.777216 
L 92.993235 237.777216 
L 93.022637 237.671658 
L 93.022637 237.666484 
L 93.149492 237.274265 
L 93.179474 237.164567 
L 93.289659 236.860313 
L 93.290529 236.860313 
L 93.324783 236.750615 
L 93.43588 236.404965 
L 93.466899 236.295268 
L 93.581458 235.949618 
L 93.622907 235.839921 
L 93.740473 235.517039 
L 93.770829 235.407341 
L 93.879893 235.098947 
L 93.881905 235.098947 
L 94.01496 234.734669 
L 94.056491 234.623937 
L 94.17441 234.281392 
L 94.206963 234.171695 
L 94.206963 234.17066 
L 94.316774 233.823975 
L 94.31806 233.823975 
L 94.36745 233.714278 
L 94.482072 233.360349 
L 94.518026 233.250652 
L 94.627505 232.913281 
L 94.629122 232.913281 
L 94.666818 232.803584 
L 94.666818 232.802549 
L 94.79301 232.420678 
L 94.83139 232.310981 
L 94.953994 231.930145 
L 94.992727 231.820448 
L 94.992727 231.819413 
L 95.120287 231.410635 
L 95.156448 231.300938 
L 95.267337 231.015311 
L 95.267483 231.015311 
L 95.302773 230.905614 
L 95.302773 230.904579 
L 95.420733 230.562034 
L 95.464939 230.452337 
L 95.575621 230.133594 
L 95.576036 230.133594 
L 95.624099 230.023896 
L 95.624099 230.022862 
L 95.782098 229.56027 
L 95.822157 229.450573 
L 95.932839 229.092505 
L 95.933213 229.092505 
L 95.971945 228.984877 
L 95.971945 228.982807 
L 96.086276 228.653716 
L 96.133759 228.544018 
L 96.243819 228.200438 
L 96.244856 228.200438 
L 96.273262 228.090741 
L 96.387801 227.745091 
L 96.420603 227.635394 
L 96.534935 227.308372 
L 96.573792 227.198675 
L 96.68466 226.857164 
L 96.684888 226.857164 
L 96.723248 226.747467 
L 96.833805 226.432863 
L 96.834303 226.432863 
L 96.866607 226.322131 
L 96.976045 226.03133 
L 96.977704 226.03133 
L 97.0188 225.921633 
L 97.127243 225.594611 
L 97.129897 225.594611 
L 97.171989 225.484914 
L 97.282795 225.191008 
L 97.283085 225.191008 
L 97.325363 225.08131 
L 97.439591 224.766707 
L 97.482595 224.65701 
L 97.599373 224.369313 
L 97.638686 224.259616 
L 97.749658 223.96778 
L 97.749783 223.96778 
L 97.793533 223.858082 
L 97.793533 223.857048 
L 97.911306 223.524851 
L 97.941081 223.417224 
L 97.941081 223.414119 
L 98.066817 223.050876 
L 98.105923 222.940144 
L 98.216853 222.638994 
L 98.216978 222.638994 
L 98.270826 222.529297 
L 98.391917 222.198135 
L 98.42559 222.088438 
L 98.539818 221.775904 
L 98.57685 221.666207 
L 98.694851 221.320557 
L 98.740302 221.21086 
L 98.855297 220.821745 
L 98.900187 220.712048 
L 99.010123 220.393305 
L 99.011284 220.393305 
L 99.0569 220.282573 
L 99.167914 219.995911 
L 99.167956 219.995911 
L 99.200551 219.886214 
L 99.317992 219.561261 
L 99.364521 219.451564 
L 99.478977 219.114193 
L 99.517543 219.004496 
L 99.517543 219.003461 
L 99.676164 218.534661 
L 99.716058 218.427033 
L 99.82591 218.114499 
L 99.827154 218.114499 
L 99.863523 218.003767 
L 99.9735 217.731594 
L 99.974599 217.731594 
L 100.025627 217.621897 
L 100.136081 217.3342 
L 100.136724 217.3342 
L 100.179479 217.224503 
L 100.303141 216.909899 
L 100.359 216.800202 
L 100.469931 216.516645 
L 100.470055 216.516645 
L 100.510758 216.406948 
L 100.620921 216.133739 
L 100.621834 216.133739 
L 100.659156 216.024042 
L 100.767288 215.715648 
L 100.770253 215.715648 
L 100.816554 215.605951 
L 100.927547 215.35137 
L 100.971255 215.241673 
L 101.082145 214.925 
L 101.082269 214.925 
L 101.135309 214.815303 
L 101.244249 214.571071 
L 101.246405 214.571071 
L 101.300979 214.461374 
L 101.409049 214.184026 
L 101.412055 214.184026 
L 101.452799 214.074329 
L 101.562506 213.784562 
L 101.563771 213.784562 
L 101.605697 213.674865 
L 101.71642 213.428564 
L 101.716793 213.428564 
L 101.758346 213.318866 
L 101.868986 213.012542 
L 101.869401 213.012542 
L 101.906309 212.902845 
L 102.023294 212.606869 
L 102.067003 212.499241 
L 102.067003 212.496137 
L 102.176358 212.203266 
L 102.178017 212.203266 
L 102.228444 212.093569 
L 102.343501 211.795523 
L 102.380657 211.685826 
L 102.49389 211.460222 
L 102.551657 211.350525 
L 102.660721 211.118712 
L 102.662712 211.118712 
L 102.710195 211.009014 
L 102.823489 210.78548 
L 102.862553 210.675783 
L 102.973546 210.379808 
L 102.973609 210.379808 
L 103.01512 210.27011 
L 103.01512 210.269075 
L 103.138699 209.959646 
L 103.173491 209.849949 
L 103.283323 209.58088 
L 103.284547 209.58088 
L 103.404352 209.293184 
L 103.44437 209.183486 
L 103.554389 208.914418 
L 103.555467 208.914418 
L 103.671374 208.672256 
L 103.70766 208.562559 
L 103.81801 208.303839 
L 103.818632 208.303839 
L 103.862465 208.194141 
L 103.972898 207.939561 
L 103.973479 207.939561 
L 104.02573 207.829864 
L 104.146531 207.589772 
L 104.20154 207.480074 
L 104.315187 207.221354 
L 104.361509 207.111657 
L 104.469827 206.863286 
L 104.472605 206.863286 
L 104.528672 206.753589 
L 104.644082 206.538334 
L 104.697121 206.428636 
L 104.807057 206.157498 
L 104.808176 206.157498 
L 104.859142 206.047801 
L 104.96941 205.782871 
L 104.970218 205.782871 
L 105.012704 205.673174 
L 105.123469 205.428942 
L 105.123635 205.428942 
L 105.166929 205.319245 
L 105.277943 205.052246 
L 105.278005 205.052246 
L 105.323269 204.942549 
L 105.432686 204.679689 
L 105.434365 204.679689 
L 105.476996 204.569992 
L 105.588051 204.267807 
L 105.635762 204.15811 
L 105.753846 203.918018 
L 105.816175 203.808321 
L 105.93175 203.584787 
L 105.973012 203.475089 
L 106.089666 203.197742 
L 106.137853 203.088044 
L 106.247063 202.802417 
L 106.24895 202.802417 
L 106.297428 202.69272 
L 106.4067 202.450558 
L 106.408442 202.450558 
L 106.456422 202.339826 
L 106.567145 202.111118 
L 106.567519 202.111118 
L 106.602809 202.00142 
L 106.713615 201.757189 
L 106.713906 201.757189 
L 106.759066 201.647492 
L 106.86925 201.376353 
L 106.870121 201.376353 
L 106.928344 201.266656 
L 106.928344 201.265621 
L 107.05155 200.962401 
L 107.107451 200.852704 
L 107.218423 200.54431 
L 107.218506 200.54431 
L 107.263957 200.434612 
L 107.375054 200.169683 
L 107.418348 200.059986 
L 107.527495 199.797126 
L 107.529444 199.797126 
L 107.569421 199.687429 
L 107.680227 199.426639 
L 107.680518 199.426639 
L 107.73364 199.315907 
L 107.844073 199.089269 
L 107.844737 199.089269 
L 107.903789 198.979571 
L 108.016918 198.758107 
L 108.076758 198.64841 
L 108.186652 198.414527 
L 108.187772 198.414527 
L 108.245912 198.30483 
L 108.354065 198.008854 
L 108.357009 198.008854 
L 108.473082 197.758413 
L 108.51422 197.648716 
L 108.622994 197.423112 
L 108.625316 197.423112 
L 108.684701 197.313415 
L 108.795797 197.127136 
L 108.853564 197.017439 
L 108.962214 196.771138 
L 108.964661 196.771138 
L 109.027695 196.661441 
L 109.141197 196.400651 
L 109.20365 196.290954 
L 109.318935 196.081908 
L 109.374338 195.972211 
L 109.490909 195.699002 
L 109.54287 195.589305 
L 109.656372 195.343004 
L 109.714927 195.233306 
L 109.824157 195.022191 
L 109.826023 195.022191 
L 109.888933 194.912494 
L 109.999905 194.693099 
L 109.999988 194.693099 
L 110.054852 194.583402 
L 110.165949 194.326752 
L 110.216894 194.217054 
L 110.332863 193.972823 
L 110.395814 193.863126 
L 110.506372 193.635452 
L 110.506869 193.635452 
L 110.557752 193.525755 
L 110.668144 193.291872 
L 110.668849 193.291872 
L 110.725911 193.182175 
L 110.836344 192.940013 
L 110.836925 192.940013 
L 110.886398 192.830315 
L 111.002844 192.563316 
L 111.043443 192.453619 
L 111.162875 192.178341 
L 111.210067 192.070714 
L 111.210067 192.067609 
L 111.319463 191.836831 
L 111.321122 191.836831 
L 111.374991 191.727134 
L 111.48588 191.507739 
L 111.486088 191.507739 
L 111.541491 191.398042 
L 111.651261 191.124833 
L 111.652588 191.124833 
L 111.697126 191.015136 
L 111.697126 191.014101 
L 111.820083 190.717091 
L 111.854129 190.607394 
L 111.963318 190.348674 
L 111.965205 190.348674 
L 112.016855 190.238976 
L 112.127247 189.988535 
L 112.127869 189.988535 
L 112.180992 189.878838 
L 112.29777 189.593211 
L 112.341395 189.482479 
L 112.451186 189.253771 
L 112.452471 189.253771 
L 112.502504 189.144073 
L 112.618038 188.910191 
L 112.670124 188.800493 
L 112.778857 188.558332 
L 112.7812 188.558332 
L 112.831772 188.448634 
L 112.942827 188.218891 
L 113.000801 188.109194 
L 113.110239 187.825637 
L 113.111898 187.825637 
L 113.157722 187.715939 
L 113.267906 187.502754 
L 113.268819 187.502754 
L 113.312403 187.395127 
L 113.424661 187.161244 
L 113.48504 187.051546 
L 113.594769 186.815594 
L 113.596096 186.815594 
L 113.634102 186.705897 
L 113.747625 186.461665 
L 113.790546 186.351968 
L 113.912508 186.082899 
L 113.971146 185.973202 
L 114.081206 185.745528 
L 114.082242 185.745528 
L 114.144654 185.635831 
L 114.260582 185.393669 
L 114.325627 185.283972 
L 114.440829 185.074926 
L 114.500545 184.965229 
L 114.613632 184.747904 
L 114.669035 184.638207 
L 114.779551 184.425021 
L 114.780132 184.425021 
L 114.84358 184.315324 
L 114.954304 184.112488 
L 114.954553 184.112488 
L 115.016923 184.002791 
L 115.132146 183.797884 
L 115.183381 183.688187 
L 115.292902 183.49363 
L 115.294478 183.49363 
L 115.358984 183.383932 
L 115.472465 183.139701 
L 115.531144 183.030003 
L 115.646097 182.837516 
L 115.713485 182.727819 
L 115.823213 182.53947 
L 115.824582 182.53947 
L 115.89114 182.429773 
L 116.000039 182.243495 
L 116.002237 182.243495 
L 116.066142 182.132763 
L 116.187606 181.875078 
L 116.256528 181.76538 
L 116.371108 181.583241 
L 116.43493 181.473544 
L 116.544575 181.268638 
L 116.546026 181.268638 
L 116.599335 181.158941 
L 116.71433 180.962314 
L 116.769256 180.852616 
L 116.879482 180.680826 
L 116.880312 180.680826 
L 116.93418 180.573199 
L 117.044717 180.38692 
L 117.045277 180.38692 
L 117.122369 180.277223 
L 117.232844 180.095084 
L 117.233466 180.095084 
L 117.280907 179.985387 
L 117.388022 179.782551 
L 117.392003 179.782551 
L 117.464658 179.672853 
L 117.574884 179.457598 
L 117.575713 179.457598 
L 117.648243 179.347901 
L 117.75934 179.140925 
L 117.815821 179.030193 
L 117.926918 178.788031 
L 118.046392 178.58002 
L 118.117719 178.470323 
L 118.228608 178.284045 
L 118.228795 178.284045 
L 118.299438 178.174347 
L 118.409374 178.002557 
L 118.410411 178.002557 
L 118.492603 177.89286 
L 118.60202 177.702442 
L 118.6037 177.702442 
L 118.678801 177.592745 
L 118.793671 177.402327 
L 118.86278 177.29263 
L 118.975805 177.098072 
L 119.045806 176.988375 
L 119.150848 176.802097 
L 119.156861 176.802097 
L 119.233372 176.692399 
L 119.341898 176.510261 
L 119.344448 176.510261 
L 119.429647 176.399528 
L 119.53979 176.241192 
L 119.540723 176.241192 
L 119.605105 176.131495 
L 119.715082 175.934867 
L 119.71616 175.934867 
L 119.790266 175.82517 
L 119.897755 175.636822 
L 119.901321 175.636822 
L 119.996991 175.527125 
L 120.107714 175.359474 
L 120.108088 175.359474 
L 120.205002 175.249777 
L 120.318193 175.038661 
L 120.38668 174.928964 
L 120.49591 174.746825 
L 120.497735 174.746825 
L 120.558156 174.637128 
L 120.672383 174.481896 
L 120.75186 174.372199 
L 120.864574 174.208688 
L 120.942827 174.097956 
L 121.05778 173.906503 
L 121.134664 173.795771 
L 121.245056 173.664341 
L 121.245761 173.664341 
L 121.325009 173.554644 
L 121.435608 173.422179 
L 121.436023 173.422179 
L 121.519584 173.312482 
L 121.630266 173.142762 
L 121.630681 173.142762 
L 121.691807 173.033064 
L 121.805868 172.886111 
L 121.897329 172.775379 
L 122.014439 172.627391 
L 122.06922 172.517694 
L 122.179073 172.362462 
L 122.180296 172.362462 
L 122.261141 172.252765 
L 122.371077 172.12444 
L 122.372238 172.12444 
L 122.45584 172.014743 
L 122.564283 171.845022 
L 122.566937 171.845022 
L 122.641582 171.735325 
L 122.750439 171.555256 
L 122.752679 171.555256 
L 122.849551 171.444524 
L 122.958823 171.300676 
L 122.960648 171.300676 
L 123.036122 171.190978 
L 123.148836 171.029537 
L 123.228603 170.918805 
L 123.342291 170.789445 
L 123.433151 170.679748 
L 123.542879 170.501748 
L 123.544123 170.501748 
L 123.627643 170.392051 
L 123.627643 170.391016 
L 123.746163 170.207842 
L 123.810399 170.098145 
L 123.922657 169.97189 
L 124.003481 169.862193 
L 124.113748 169.70903 
L 124.114536 169.70903 
L 124.232682 169.599333 
L 124.339466 169.448241 
L 124.343779 169.448241 
L 124.439408 169.338543 
L 124.546938 169.230916 
L 124.550463 169.230916 
L 124.647336 169.121219 
L 124.755343 169.036358 
L 124.758391 169.036358 
L 124.859203 168.926661 
L 124.97001 168.796266 
L 124.970279 168.796266 
L 125.053591 168.686569 
L 125.166077 168.547895 
L 125.246963 168.437163 
L 125.361046 168.289175 
L 125.432353 168.179478 
L 125.539137 168.053223 
L 125.543449 168.053223 
L 125.641981 167.943525 
L 125.756105 167.792433 
L 125.860152 167.682736 
L 125.970626 167.56062 
L 125.971248 167.56062 
L 126.070485 167.450923 
L 126.180047 167.330876 
L 126.181374 167.330876 
L 126.275095 167.221179 
L 126.384782 167.109412 
L 126.38615 167.109412 
L 126.487129 166.999715 
L 126.599386 166.883808 
L 126.716206 166.773076 
L 126.826618 166.631298 
L 126.827303 166.631298 
L 126.905431 166.5216 
L 127.01292 166.393275 
L 127.016424 166.393275 
L 127.115702 166.283578 
L 127.230282 166.169741 
L 127.321619 166.060044 
L 127.431637 165.931719 
L 127.432384 165.931719 
L 127.495376 165.822022 
L 127.605394 165.679208 
L 127.606389 165.679208 
L 127.697622 165.569511 
L 127.811726 165.420488 
L 127.915047 165.312861 
L 127.915047 165.311826 
L 128.027263 165.14521 
L 128.124592 165.035513 
L 128.232827 164.938234 
L 128.235689 164.938234 
L 128.332437 164.830607 
L 128.438765 164.704351 
L 128.443492 164.704351 
L 128.551437 164.594654 
L 128.661995 164.429073 
L 128.662492 164.429073 
L 128.787108 164.319376 
L 128.896712 164.182772 
L 128.89808 164.182772 
L 128.971772 164.07204 
L 129.082039 163.959238 
L 129.082848 163.959238 
L 129.168793 163.849541 
L 129.279185 163.67982 
L 129.279848 163.67982 
L 129.356069 163.570123 
L 129.461236 163.42938 
L 129.467124 163.42938 
L 129.575692 163.318647 
L 129.683015 163.189287 
L 129.686788 163.189287 
L 129.754549 163.07959 
L 129.865397 162.924358 
L 129.865605 162.924358 
L 129.943028 162.814661 
L 130.052342 162.669778 
L 130.054083 162.669778 
L 130.133871 162.559046 
L 130.243848 162.440034 
L 130.244843 162.440034 
L 130.340264 162.330337 
L 130.450822 162.193733 
L 130.451319 162.193733 
L 130.527913 162.083001 
L 130.65029 161.897757 
L 130.719171 161.787025 
L 130.82498 161.603852 
L 130.830226 161.603852 
L 130.901222 161.494154 
L 130.901222 161.493119 
L 131.01941 161.318225 
L 131.105044 161.208527 
L 131.214067 161.042947 
L 131.216141 161.042947 
L 131.307021 160.933249 
L 131.421166 160.780087 
L 131.514182 160.67039 
L 131.624698 160.521367 
L 131.625196 160.521367 
L 131.706517 160.41167 
L 131.816867 160.244019 
L 131.817572 160.244019 
L 131.884629 160.135357 
L 131.884629 160.133287 
L 131.998711 159.985299 
L 132.067385 159.875602 
L 132.180057 159.716231 
L 132.263037 159.606533 
L 132.263037 159.605499 
L 132.378032 159.411976 
L 132.476087 159.301244 
L 132.598525 159.116 
L 132.688431 159.006303 
L 132.798284 158.853141 
L 132.799528 158.853141 
L 132.877947 158.742409 
L 132.988836 158.563375 
L 132.98896 158.563375 
L 133.079488 158.452642 
L 133.19693 158.296376 
L 133.263074 158.185643 
L 133.371972 158.039725 
L 133.37417 158.039725 
L 133.453854 157.928993 
L 133.568165 157.766517 
L 133.655375 157.65682 
L 133.655375 157.655785 
L 133.77348 157.48296 
L 133.861001 157.373263 
L 133.973798 157.203543 
L 134.039589 157.093845 
L 134.150645 156.936544 
L 134.150686 156.936544 
L 134.234869 156.826846 
L 134.343561 156.675754 
L 134.345966 156.675754 
L 134.421503 156.565022 
L 134.535067 156.439801 
L 134.62153 156.330104 
L 134.732337 156.185221 
L 134.732627 156.185221 
L 134.801632 156.075523 
L 134.912646 155.895454 
L 134.912688 155.895454 
L 134.983227 155.785757 
L 135.093909 155.628455 
L 135.094324 155.628455 
L 135.163744 155.518758 
L 135.272891 155.359387 
L 135.27484 155.359387 
L 135.360682 155.249689 
L 135.467922 155.082039 
L 135.471696 155.082039 
L 135.544268 154.972342 
L 135.654618 154.800552 
L 135.655323 154.800552 
L 135.736271 154.689819 
L 135.846165 154.537692 
L 135.847368 154.537692 
L 135.926201 154.427995 
L 136.037236 154.266554 
L 136.037257 154.266554 
L 136.128904 154.156856 
L 136.240001 154.04302 
L 136.327501 153.933322 
L 136.327501 153.932287 
L 136.441625 153.78016 
L 136.533252 153.669428 
L 136.648537 153.461417 
L 136.765502 153.316534 
L 136.841909 153.205802 
L 136.949668 153.039186 
L 136.952923 153.039186 
L 137.013904 152.929489 
L 137.122098 152.724583 
L 137.124918 152.724583 
L 137.206716 152.614885 
L 137.206716 152.61385 
L 137.321297 152.438956 
L 137.419724 152.329259 
L 137.419724 152.328224 
L 137.534491 152.14091 
L 137.605984 152.030178 
L 137.721166 151.826307 
L 137.791913 151.715575 
L 137.901848 151.548959 
L 137.903009 151.548959 
L 137.964301 151.439262 
L 138.073615 151.240565 
L 138.075398 151.240565 
L 138.14714 151.130868 
L 138.251498 150.946659 
L 138.258216 150.946659 
L 138.328528 150.835927 
L 138.437509 150.627916 
L 138.439583 150.627916 
L 138.530152 150.518219 
L 138.649875 150.305034 
L 138.717698 150.194301 
L 138.827737 150.019407 
L 138.828774 150.019407 
L 138.908914 149.908675 
L 139.019409 149.748268 
L 139.019907 149.748268 
L 139.090156 149.638571 
L 139.090156 149.637536 
L 139.208012 149.47092 
L 139.27851 149.361223 
L 139.389275 149.193573 
L 139.389524 149.193573 
L 139.464003 149.083875 
L 139.579268 148.876899 
L 139.634215 148.766167 
L 139.755907 148.593342 
L 139.819811 148.483645 
L 139.934723 148.293227 
L 140.001738 148.18353 
L 140.109952 147.978624 
L 140.112834 147.978624 
L 140.174334 147.867892 
L 140.282403 147.717834 
L 140.28543 147.717834 
L 140.346142 147.607102 
L 140.460908 147.421858 
L 140.526824 147.312161 
L 140.634811 147.090697 
L 140.637921 147.090697 
L 140.692972 146.979965 
L 140.81201 146.782303 
L 140.876868 146.67157 
L 140.992153 146.455281 
L 141.050749 146.344548 
L 141.1611 146.140677 
L 141.161805 146.140677 
L 141.228011 146.029945 
L 141.343088 145.824004 
L 141.40494 145.714307 
L 141.512802 145.517679 
L 141.515995 145.517679 
L 141.570631 145.406947 
L 141.691287 145.16996 
L 141.737546 145.059228 
L 141.854137 144.784985 
L 141.912236 144.675287 
L 142.021508 144.441404 
L 142.023333 144.441404 
L 142.076434 144.330672 
L 142.18722 144.124731 
L 142.18751 144.124731 
L 142.23379 144.015034 
L 142.344452 143.739756 
L 142.344846 143.739756 
L 142.386398 143.630059 
L 142.512424 143.383757 
L 142.564053 143.273025 
L 142.674362 143.01948 
L 142.675108 143.01948 
L 142.734285 142.909782 
L 142.845009 142.682109 
L 142.845361 142.682109 
L 142.892035 142.571377 
L 143.002344 142.305413 
L 143.003132 142.305413 
L 143.056939 142.195715 
L 143.173696 141.914228 
L 143.223045 141.803496 
L 143.346706 141.491997 
L 143.402234 141.3823 
L 143.402234 141.381265 
L 143.518805 141.109091 
L 143.570393 140.999394 
L 143.680888 140.699279 
L 143.681427 140.699279 
L 143.734052 140.588547 
L 143.855371 140.335001 
L 143.917865 140.225304 
L 144.027013 139.995561 
L 144.028962 139.995561 
L 144.078456 139.885863 
L 144.191605 139.681992 
L 144.308508 139.393261 
L 144.35796 139.282529 
L 144.474344 139.016564 
L 144.519422 138.906867 
L 144.630083 138.681263 
L 144.630435 138.681263 
L 144.679411 138.571566 
L 144.790383 138.308707 
L 144.790487 138.308707 
L 144.835087 138.197974 
L 144.956966 137.929941 
L 145.007248 137.819208 
L 145.129977 137.530477 
L 145.174038 137.419745 
L 145.283455 137.133083 
L 145.285093 137.133083 
L 145.325049 137.022351 
L 145.446865 136.756387 
L 145.499905 136.645655 
L 145.610608 136.375551 
L 145.610981 136.375551 
L 145.726826 136.139598 
L 145.772525 136.028866 
L 145.888619 135.775321 
L 145.939543 135.665624 
L 146.049852 135.450369 
L 146.050619 135.450369 
L 146.089601 135.340671 
L 146.203082 135.100579 
L 146.250647 134.989847 
L 146.361703 134.763208 
L 146.361744 134.763208 
L 146.410471 134.653511 
L 146.521236 134.438256 
L 146.521422 134.438256 
L 146.576432 134.327524 
L 146.687528 134.093641 
L 146.738992 133.982909 
L 146.852245 133.761445 
L 146.903667 133.651747 
L 146.903667 133.650713 
L 147.019325 133.422004 
L 147.075392 133.311272 
L 147.190802 133.092912 
L 147.244007 132.983215 
L 147.350646 132.784518 
L 147.355062 132.784518 
L 147.421268 132.674821 
L 147.532303 132.471984 
L 147.600105 132.362287 
L 147.709398 132.16566 
L 147.711202 132.16566 
L 147.7659 132.054928 
L 147.873825 131.842777 
L 147.876976 131.842777 
L 147.93775 131.732045 
L 148.048515 131.55922 
L 148.048826 131.55922 
L 148.111735 131.448488 
L 148.232183 131.296361 
L 148.311224 131.188733 
L 148.311224 131.185629 
L 148.426654 130.969339 
L 148.49116 130.859642 
L 148.601655 130.683712 
L 148.602257 130.683712 
L 148.660811 130.574015 
L 148.769627 130.408434 
L 148.771908 130.408434 
L 148.83714 130.298737 
L 148.947552 130.089691 
L 148.948236 130.089691 
L 149.00704 129.979994 
L 149.00704 129.978959 
L 149.131718 129.75646 
L 149.194192 129.645728 
L 149.305164 129.466693 
L 149.305247 129.466693 
L 149.372054 129.356996 
L 149.481575 129.174857 
L 149.483006 129.174857 
L 149.557879 129.06516 
L 149.557879 129.064125 
L 149.672977 128.864393 
L 149.738313 128.754696 
L 149.738313 128.753661 
L 149.856749 128.568418 
L 149.914973 128.459755 
L 149.914973 128.45872 
L 150.027956 128.270372 
L 150.106976 128.15964 
L 150.217658 128.013722 
L 150.218031 128.013722 
L 150.275425 127.90299 
L 150.383121 127.728095 
L 150.386522 127.728095 
L 150.439395 127.619433 
L 150.549663 127.456957 
L 150.550451 127.456957 
L 150.621612 127.347259 
L 150.722217 127.156842 
L 150.732709 127.156842 
L 150.796842 127.046109 
L 150.911878 126.850517 
L 150.983122 126.739785 
L 151.09059 126.577309 
L 151.094136 126.577309 
L 151.164821 126.467612 
L 151.272952 126.297891 
L 151.275918 126.297891 
L 151.340237 126.188194 
L 151.451333 125.983288 
L 151.528425 125.873591 
L 151.63919 125.662475 
L 151.639522 125.662475 
L 151.724037 125.552778 
L 151.837165 125.349941 
L 151.892776 125.239209 
L 152.002048 125.078803 
L 152.003873 125.078803 
L 152.069374 124.968071 
L 152.18837 124.770409 
L 152.25327 124.659677 
L 152.367809 124.488921 
L 152.427234 124.378189 
L 152.537543 124.207434 
L 152.53829 124.207434 
L 152.61084 124.097737 
L 152.726478 123.948714 
L 152.800252 123.839017 
L 152.9111 123.64239 
L 152.911307 123.64239 
L 152.965798 123.532692 
L 153.074137 123.333996 
L 153.076895 123.333996 
L 153.147683 123.223263 
L 153.258697 123.050438 
L 153.258759 123.050438 
L 153.330398 122.939706 
L 153.440168 122.717207 
L 153.441474 122.717207 
L 153.501833 122.60751 
L 153.612183 122.423301 
L 153.612929 122.423301 
L 153.682204 122.312569 
L 153.80796 122.071442 
L 153.892164 121.96071 
L 154.002411 121.783746 
L 154.003199 121.783746 
L 154.065112 121.674048 
L 154.175255 121.460863 
L 154.176209 121.460863 
L 154.240362 121.351166 
L 154.353201 121.173166 
L 154.444869 121.062434 
L 154.558889 120.916516 
L 154.62636 120.806819 
L 154.737457 120.638134 
L 154.810029 120.527401 
L 154.917538 120.336984 
L 154.921125 120.336984 
L 154.993904 120.227286 
L 155.107821 120.082403 
L 155.181242 119.971671 
L 155.29095 119.815404 
L 155.292318 119.815404 
L 155.373806 119.705707 
L 155.478122 119.550475 
L 155.484861 119.550475 
L 155.562264 119.440778 
L 155.674791 119.293825 
L 155.743797 119.184127 
L 155.853608 119.037174 
L 155.854872 119.037174 
L 155.918735 118.927477 
L 155.918735 118.926442 
L 156.041796 118.73085 
L 156.137964 118.621153 
L 156.137964 118.620118 
L 156.251963 118.4742 
L 156.34189 118.363468 
L 156.451349 118.21548 
L 156.452883 118.21548 
L 156.529436 118.104748 
L 156.640221 117.967109 
L 156.640449 117.967109 
L 156.715219 117.856377 
L 156.825776 117.731156 
L 156.826295 117.731156 
L 156.932311 117.621459 
L 156.932311 117.620424 
L 157.049131 117.478645 
L 157.117327 117.368948 
L 157.231057 117.236484 
L 157.31495 117.126786 
L 157.424554 117.027438 
L 157.426026 117.027438 
L 157.502931 116.916706 
L 157.609508 116.810113 
L 157.614007 116.810113 
L 157.72075 116.699381 
L 157.836678 116.5783 
L 157.931477 116.468603 
L 158.041827 116.354766 
L 158.042574 116.354766 
L 158.138886 116.245069 
L 158.251144 116.127092 
L 158.369146 116.019465 
L 158.369146 116.01843 
L 158.477215 115.901489 
L 158.480242 115.901489 
L 158.578898 115.790756 
L 158.689248 115.688303 
L 158.689953 115.688303 
L 158.795701 115.578606 
L 158.906258 115.468909 
L 158.906776 115.468909 
L 159.030563 115.358177 
L 159.143381 115.272282 
L 159.256281 115.162584 
L 159.369659 115.048748 
L 159.482041 114.938015 
L 159.595543 114.819004 
L 159.69368 114.709307 
L 159.69368 114.708272 
L 159.807182 114.585121 
L 159.934556 114.474389 
L 160.04982 114.371936 
L 160.170082 114.262239 
L 160.282961 114.173239 
L 160.416037 114.063542 
L 160.526221 113.972473 
L 160.527113 113.972473 
L 160.682437 113.862775 
L 160.793326 113.788264 
L 160.793492 113.788264 
L 160.910498 113.677532 
L 161.020247 113.595776 
L 161.021595 113.595776 
L 161.148388 113.485044 
L 161.251688 113.401219 
L 161.259485 113.401219 
L 161.392187 113.291522 
L 161.502454 113.212871 
L 161.503242 113.212871 
L 161.648675 113.103174 
L 161.758694 113.018313 
L 161.759772 113.018313 
L 161.881858 112.907581 
L 161.989928 112.813407 
L 161.992914 112.813407 
L 162.159289 112.70371 
L 162.267898 112.61885 
L 162.270344 112.61885 
L 162.401305 112.509153 
L 162.401305 112.508118 
L 162.514724 112.393246 
L 162.652299 112.282514 
L 162.767148 112.19041 
L 162.905905 112.079677 
L 163.017002 111.989643 
L 163.211183 111.878911 
L 163.326551 111.774388 
L 163.515838 111.664691 
L 163.628573 111.58397 
L 163.758518 111.474273 
L 163.860947 111.391482 
L 163.869573 111.391482 
L 163.988466 111.281785 
L 163.988466 111.28075 
L 164.10315 111.192785 
L 164.274564 111.083088 
L 164.387858 110.973391 
L 164.534453 110.863694 
L 164.644699 110.80574 
L 164.645446 110.80574 
L 164.809603 110.695008 
L 164.921902 110.631881 
L 165.068103 110.521148 
L 165.180858 110.439393 
L 165.351878 110.328661 
L 165.46059 110.257254 
L 165.462954 110.257254 
L 165.663583 110.147557 
L 165.763525 110.087534 
L 165.77468 110.087534 
L 166.028929 109.977836 
L 166.138886 109.907465 
L 166.139985 109.907465 
L 166.302462 109.797767 
L 166.413497 109.714977 
L 166.413517 109.714977 
L 166.622669 109.604245 
L 166.735196 109.526629 
L 166.89589 109.415897 
L 167.004043 109.356909 
L 167.006987 109.356909 
L 167.185886 109.247211 
L 167.29352 109.17477 
L 167.296817 109.17477 
L 167.456495 109.064038 
L 167.56359 108.990561 
L 167.56753 108.990561 
L 167.767184 108.880864 
L 167.878965 108.806352 
L 168.05857 108.69769 
L 168.05857 108.69562 
L 168.171221 108.615935 
L 168.365485 108.506237 
L 168.476561 108.431726 
L 168.68509 108.322029 
L 168.795503 108.247517 
L 168.796187 108.247517 
L 168.968285 108.136785 
L 169.079092 108.086076 
L 169.079382 108.086076 
L 169.254342 107.976379 
L 169.363282 107.906007 
L 169.365438 107.906007 
L 169.517777 107.79631 
L 169.627816 107.719729 
L 169.628852 107.719729 
L 169.781004 107.610031 
L 169.889447 107.545869 
L 169.892059 107.545869 
L 170.089703 107.436172 
L 170.199949 107.357521 
L 170.200799 107.357521 
L 170.399397 107.247823 
L 170.510327 107.156754 
L 170.510493 107.156754 
L 170.714026 107.046022 
L 170.829974 106.968406 
L 171.025503 106.858709 
L 171.135438 106.782128 
L 171.136579 106.782128 
L 171.339986 106.671395 
L 171.450855 106.618617 
L 171.451062 106.618617 
L 171.620527 106.507884 
L 171.73094 106.426129 
L 171.731603 106.426129 
L 171.896984 106.316432 
L 172.008744 106.24813 
L 172.20956 106.138432 
L 172.317588 106.082549 
L 172.320656 106.082549 
L 172.534328 105.972852 
L 172.641858 105.927317 
L 172.645342 105.927317 
L 172.799919 105.816585 
L 172.913462 105.757597 
L 173.098748 105.646864 
L 173.211317 105.573388 
L 173.344786 105.463691 
L 173.454162 105.370551 
L 173.455883 105.370551 
L 173.624394 105.259819 
L 173.72728 105.198761 
L 173.735491 105.198761 
L 173.887103 105.088029 
L 173.999672 105.012483 
L 174.167976 104.902786 
L 174.271048 104.834484 
L 174.279052 104.834484 
L 174.449989 104.724786 
L 174.552481 104.662694 
L 174.561065 104.662694 
L 174.733516 104.551962 
L 174.84059 104.486764 
L 174.844592 104.486764 
L 175.020485 104.377067 
L 175.1321 104.306695 
L 175.313404 104.196998 
L 175.424086 104.124556 
L 175.424501 104.124556 
L 175.604665 104.014859 
L 175.604665 104.013824 
L 175.717172 103.944487 
L 175.927443 103.833755 
L 176.039265 103.797534 
L 176.20958 103.687837 
L 176.322128 103.615395 
L 176.536878 103.504663 
L 176.650712 103.437396 
L 176.806201 103.326664 
L 176.91848 103.267676 
L 177.074384 103.157978 
L 177.186062 103.100025 
L 177.40556 102.990328 
L 177.514023 102.907537 
L 177.516615 102.907537 
L 177.707602 102.796805 
L 177.819611 102.750236 
L 178.018665 102.639504 
L 178.126403 102.574306 
L 178.129741 102.574306 
L 178.293898 102.463574 
L 178.406031 102.412865 
L 178.589575 102.302133 
L 178.693954 102.226587 
L 178.700672 102.226587 
L 178.948659 102.116889 
L 179.052789 102.061006 
L 179.059756 102.061006 
L 179.272328 101.951309 
L 179.382368 101.889216 
L 179.383425 101.889216 
L 179.617002 101.779518 
L 179.720219 101.725705 
L 179.728078 101.725705 
L 180.004472 101.614973 
L 180.119052 101.560124 
L 180.346056 101.449392 
L 180.446702 101.406962 
L 180.457111 101.406962 
L 180.727824 101.29623 
L 180.832576 101.24552 
L 180.8389 101.24552 
L 181.082989 101.134788 
L 181.193401 101.090288 
L 181.194065 101.090288 
L 181.431022 100.980591 
L 181.536706 100.928847 
L 181.542118 100.928847 
L 181.786332 100.81915 
L 181.898424 100.769476 
L 182.14413 100.659778 
L 182.255828 100.599755 
L 182.419405 100.489023 
L 182.522954 100.448663 
L 182.530439 100.448663 
L 182.830429 100.337931 
L 182.9436 100.287222 
L 183.157354 100.17649 
L 183.270649 100.142339 
L 183.469826 100.031606 
L 183.571883 99.997455 
L 183.580861 99.997455 
L 183.887507 99.887758 
L 183.992943 99.840154 
L 183.998583 99.840154 
L 184.298511 99.730456 
L 184.409483 99.674573 
L 184.409587 99.674573 
L 184.6617 99.563841 
L 184.774995 99.52969 
L 185.090204 99.419992 
L 185.090204 99.418958 
L 185.2024 99.364109 
L 185.538614 99.254412 
L 185.538614 99.253377 
L 185.65025 99.225435 
L 185.999754 99.115738 
L 186.10461 99.082622 
L 186.110747 99.082622 
L 186.492329 98.971889 
L 186.601891 98.935669 
L 186.603425 98.935669 
L 186.968481 98.825971 
L 187.079992 98.803204 
L 187.407062 98.692472 
L 187.518781 98.658321 
L 187.909879 98.547589 
L 188.01799 98.511368 
L 188.020935 98.511368 
L 188.372741 98.400636 
L 188.475087 98.372694 
L 188.483838 98.372694 
L 188.86658 98.262997 
L 188.86658 98.261962 
L 188.979501 98.217462 
L 189.339726 98.10673 
L 189.453663 98.06223 
L 189.855606 97.951498 
L 189.967947 97.933905 
L 190.371279 97.823173 
L 190.48277 97.80351 
L 190.903125 97.693813 
L 191.007358 97.660697 
L 191.014201 97.660697 
L 191.360035 97.549965 
L 191.473703 97.522023 
L 191.913425 97.411291 
L 192.024127 97.37714 
L 192.024501 97.37714 
L 192.528085 97.267442 
L 192.639783 97.238466 
L 193.09095 97.127734 
L 193.194189 97.101862 
L 193.202047 97.101862 
L 193.744509 96.991129 
L 193.852558 96.963188 
L 193.855606 96.963188 
L 194.378163 96.852456 
L 194.488181 96.822444 
L 194.489259 96.822444 
L 194.945651 96.712747 
L 195.056935 96.68791 
L 195.576257 96.578212 
L 195.683124 96.557515 
L 195.687229 96.557515 
L 196.348709 96.447818 
L 196.459971 96.42919 
L 196.889719 96.319492 
L 196.889719 96.318458 
L 197.001687 96.298795 
L 197.693605 96.189098 
L 197.693605 96.188063 
L 197.805407 96.153912 
L 198.594177 96.04318 
L 198.706414 96.027656 
L 199.304652 95.916924 
L 199.414837 95.895192 
L 199.415749 95.895192 
L 200.247087 95.785494 
L 200.35636 95.771006 
L 200.358143 95.771006 
L 201.059661 95.660274 
L 201.171069 95.640611 
L 201.958781 95.529879 
L 202.071018 95.514356 
L 202.997363 95.403624 
L 203.108688 95.39017 
L 204.159441 95.279438 
L 204.23757 95.263915 
L 204.270517 95.263915 
L 205.437841 95.153183 
L 205.549291 95.13559 
L 206.57454 95.025893 
L 206.662559 95.015544 
L 206.68543 95.015544 
L 207.981268 94.904812 
L 208.092655 94.891358 
L 209.173598 94.781661 
L 209.279925 94.769243 
L 209.284694 94.769243 
L 210.621318 94.659545 
L 210.732539 94.645057 
L 212.066922 94.53536 
L 212.143351 94.52915 
L 212.177874 94.52915 
L 213.651968 94.419453 
L 213.763086 94.407035 
L 215.384438 94.297337 
L 215.450707 94.286989 
L 215.495514 94.286989 
L 216.742605 94.177291 
L 216.828011 94.164873 
L 216.853681 94.164873 
L 217.664803 94.055175 
L 217.714442 94.048966 
L 217.775775 94.048966 
L 218.297378 93.939269 
L 218.404577 93.908222 
L 218.408475 93.908222 
L 218.930451 93.79749 
L 219.015505 93.779897 
L 219.041465 93.779897 
L 219.484939 93.6702 
L 219.593963 93.635014 
L 219.595995 93.635014 
L 220.141069 93.525317 
L 220.252747 93.483922 
L 220.627091 93.37319 
L 220.737483 93.345248 
L 220.738147 93.345248 
L 221.250543 93.235551 
L 221.359484 93.208644 
L 221.361599 93.208644 
L 221.713633 93.098946 
L 221.817763 93.084458 
L 221.82473 93.084458 
L 222.203719 92.974761 
L 222.296735 92.951994 
L 222.314733 92.951994 
L 222.607217 92.842296 
L 222.715452 92.80918 
L 222.718272 92.80918 
L 223.099418 92.699483 
L 223.208815 92.651878 
L 223.210515 92.651878 
L 223.587514 92.542181 
L 223.688948 92.504925 
L 223.698611 92.504925 
L 224.029703 92.395228 
L 224.137689 92.353833 
L 224.140758 92.353833 
L 224.469258 92.243101 
L 224.580956 92.21102 
L 224.861622 92.101322 
L 224.966208 92.068206 
L 224.972698 92.068206 
L 225.39973 91.958509 
L 225.509955 91.912974 
L 225.510826 91.912974 
L 225.800822 91.803277 
L 225.912292 91.766021 
L 226.294765 91.655289 
L 226.408101 91.621138 
L 226.729407 91.511441 
L 226.840752 91.486604 
L 227.109391 91.375872 
L 227.219202 91.335511 
L 227.220384 91.335511 
L 227.526533 91.225814 
L 227.632155 91.17821 
L 227.637609 91.17821 
L 227.944586 91.067477 
L 228.05334 91.022978 
L 228.055559 91.022978 
L 228.359654 90.91328 
L 228.449187 90.871885 
L 228.470751 90.871885 
L 228.934048 90.761153 
L 229.040251 90.729072 
L 229.045145 90.729072 
L 229.367362 90.61834 
L 229.471617 90.57384 
L 229.478418 90.57384 
L 229.849528 90.464142 
L 229.95146 90.428957 
L 229.960625 90.428957 
L 230.277037 90.319259 
L 230.38747 90.261306 
L 230.387967 90.261306 
L 230.620694 90.151609 
L 230.73007 90.112283 
L 230.731749 90.112283 
L 231.036716 90.002586 
L 231.036716 90.001551 
L 231.149264 89.9674 
L 231.508846 89.857703 
L 231.620419 89.810098 
L 231.849476 89.699366 
L 231.957131 89.669355 
L 231.960552 89.669355 
L 232.278934 89.559657 
L 232.381612 89.512053 
L 232.39001 89.512053 
L 232.613489 89.402356 
L 232.715732 89.348542 
L 232.724565 89.348542 
L 233.005168 89.23781 
L 233.11699 89.19745 
L 233.331056 89.086717 
L 233.437549 89.031869 
L 233.442111 89.031869 
L 233.706852 88.921137 
L 233.817327 88.874567 
L 233.817886 88.874567 
L 234.10923 88.76487 
L 234.214521 88.727614 
L 234.220285 88.727614 
L 234.492864 88.617917 
L 234.492864 88.616882 
L 234.604998 88.562033 
L 234.896611 88.451301 
L 235.007168 88.41922 
L 235.007708 88.41922 
L 235.288373 88.308488 
L 235.398557 88.259848 
L 235.399428 88.259848 
L 235.62863 88.150151 
L 235.62863 88.149116 
L 235.740826 88.094268 
L 236.003846 87.983535 
L 236.114154 87.934896 
L 236.114818 87.934896 
L 236.382047 87.824164 
L 236.490905 87.785873 
L 236.492957 87.785873 
L 236.731407 87.676176 
L 236.84016 87.609944 
L 236.842483 87.609944 
L 237.059451 87.499212 
L 237.172911 87.440224 
L 237.443956 87.330526 
L 237.554099 87.282922 
L 237.555011 87.282922 
L 237.799017 87.17219 
L 237.896554 87.111132 
L 237.910073 87.111132 
L 238.101579 87.001435 
L 238.208943 86.933132 
L 238.212675 86.933132 
L 238.468086 86.8224 
L 238.581318 86.769621 
L 238.807804 86.659924 
L 238.916723 86.614389 
L 238.91888 86.614389 
L 239.170081 86.503657 
L 239.272842 86.457088 
L 239.280846 86.457088 
L 239.528585 86.34739 
L 239.639184 86.272879 
L 239.63964 86.272879 
L 239.95093 86.162147 
L 240.063478 86.09074 
L 240.310657 85.981043 
L 240.411843 85.92516 
L 240.421754 85.92516 
L 240.627277 85.814427 
L 240.734268 85.7513 
L 240.738373 85.7513 
L 240.922125 85.640568 
L 241.030339 85.589858 
L 241.033221 85.589858 
L 241.249547 85.479126 
L 241.339266 85.434626 
L 241.360498 85.434626 
L 241.569007 85.323894 
L 241.683193 85.248348 
L 241.892842 85.137616 
L 242.008811 85.080698 
L 242.210747 84.971 
L 242.319563 84.919256 
L 242.321843 84.919256 
L 242.451892 84.808524 
L 242.541652 84.755745 
L 242.562968 84.755745 
L 242.784145 84.645013 
L 242.888213 84.592234 
L 242.89518 84.592234 
L 243.082912 84.482537 
L 243.19179 84.420444 
L 243.193988 84.420444 
L 243.401211 84.309712 
L 243.511644 84.246584 
L 243.512266 84.246584 
L 243.741343 84.135852 
L 243.851901 84.049957 
L 243.85244 84.049957 
L 244.018173 83.94026 
L 244.018173 83.939225 
L 244.130493 83.878167 
L 244.329215 83.76847 
L 244.329215 83.767435 
L 244.443007 83.702238 
L 244.625929 83.591505 
L 244.738643 83.50561 
L 244.905412 83.394878 
L 245.019785 83.315193 
L 245.218693 83.20446 
L 245.332568 83.137193 
L 245.447356 83.07924 
L 245.625571 82.968508 
L 245.737808 82.911589 
L 245.935327 82.800857 
L 246.045698 82.723241 
L 246.046382 82.723241 
L 246.225406 82.612509 
L 246.338182 82.528684 
L 246.49645 82.418987 
L 246.595542 82.348615 
L 246.607547 82.348615 
L 246.766935 82.238918 
L 246.8794 82.166476 
L 247.10798 82.055744 
L 247.218683 81.992616 
L 247.219077 81.992616 
L 247.358891 81.881884 
L 247.471688 81.793919 
L 247.658694 81.683187 
L 247.769169 81.607641 
L 247.769791 81.607641 
L 247.933409 81.496909 
L 248.045708 81.435851 
L 248.230247 81.326154 
L 248.339747 81.264061 
L 248.341344 81.264061 
L 248.511162 81.154363 
L 248.623171 81.061224 
L 248.770553 80.951527 
L 248.770553 80.950492 
L 248.884511 80.881155 
L 249.063784 80.770423 
L 249.173968 80.703156 
L 249.174756 80.703156 
L 249.334082 80.593459 
L 249.446132 80.49825 
L 249.619184 80.387518 
L 249.731401 80.332669 
L 249.891348 80.222972 
L 250.000226 80.131902 
L 250.002404 80.131902 
L 250.145971 80.022205 
L 250.256819 79.949763 
L 250.257047 79.949763 
L 250.43493 79.839031 
L 250.547603 79.761415 
L 250.713729 79.651718 
L 250.81873 79.581346 
L 250.824826 79.581346 
L 251.000283 79.470614 
L 251.110758 79.384719 
L 251.111359 79.384719 
L 251.283147 79.273987 
L 251.380579 79.20672 
L 251.394243 79.20672 
L 251.549028 79.097022 
L 251.660726 79.036999 
L 251.814806 78.927302 
L 251.925011 78.817605 
L 251.925861 78.817605 
L 252.116704 78.706873 
L 252.225872 78.627187 
L 252.227738 78.627187 
L 252.382088 78.516455 
L 252.490945 78.453327 
L 252.493101 78.453327 
L 252.671026 78.342595 
L 252.780029 78.248421 
L 252.782123 78.248421 
L 252.963697 78.138724 
L 253.070771 78.047654 
L 253.074773 78.047654 
L 253.245316 77.936922 
L 253.358154 77.848957 
L 253.513084 77.738225 
L 253.62727 77.662679 
L 253.786389 77.552982 
L 253.894355 77.453633 
L 253.897423 77.453633 
L 254.075991 77.342901 
L 254.178835 77.265285 
L 254.187088 77.265285 
L 254.349814 77.154553 
L 254.459977 77.066588 
L 254.46091 77.066588 
L 254.632967 76.956891 
L 254.739585 76.853403 
L 254.744064 76.853403 
L 254.940152 76.743706 
L 255.048906 76.667125 
L 255.051249 76.667125 
L 255.24458 76.557427 
L 255.357149 76.482916 
L 255.506376 76.372184 
L 255.607044 76.306986 
L 255.617473 76.306986 
L 255.79799 76.196254 
L 255.913213 76.131057 
L 256.073326 76.02136 
L 256.184153 75.924081 
L 256.184402 75.924081 
L 256.342961 75.813349 
L 256.459138 75.731593 
L 256.624746 75.621896 
L 256.73522 75.551524 
L 256.735801 75.551524 
L 256.906324 75.440792 
L 257.017192 75.373525 
L 257.01742 75.373525 
L 257.213281 75.263828 
L 257.323175 75.172758 
L 257.324274 75.172758 
L 257.514183 75.062026 
L 257.624761 74.994759 
L 257.625238 74.994759 
L 257.791282 74.884027 
L 257.902047 74.822969 
L 257.902358 74.822969 
L 258.036574 74.712237 
L 258.150905 74.632551 
L 258.327026 74.521819 
L 258.434059 74.462831 
L 258.438123 74.462831 
L 258.617997 74.355203 
L 258.617997 74.353133 
L 258.729943 74.266203 
L 258.925472 74.156506 
L 259.031426 74.094413 
L 259.036548 74.094413 
L 259.190296 73.984716 
L 259.298199 73.94746 
L 259.301393 73.94746 
L 259.468826 73.837763 
L 259.468826 73.836728 
L 259.581477 73.759112 
L 259.767758 73.64838 
L 259.880223 73.581113 
L 260.059289 73.470381 
L 260.170385 73.396904 
L 260.339145 73.286172 
L 260.444333 73.198207 
L 260.450221 73.198207 
L 260.671834 73.087475 
L 260.780132 73.020208 
L 260.782869 73.020208 
L 260.964028 72.910511 
L 261.073632 72.838069 
L 261.075125 72.838069 
L 261.2161 72.727337 
L 261.328317 72.670419 
L 261.518765 72.560721 
L 261.628825 72.477931 
L 261.629675 72.477931 
L 261.80055 72.368234 
L 261.913036 72.299932 
L 262.088867 72.1892 
L 262.202389 72.130211 
L 262.421369 72.019479 
L 262.532154 71.943933 
L 262.532445 71.943933 
L 262.731042 71.834236 
L 262.841641 71.765934 
L 262.842014 71.765934 
L 263.049403 71.655202 
L 263.163278 71.587934 
L 263.472806 71.478237 
L 263.472806 71.477202 
L 263.585106 71.418214 
L 263.82171 71.307482 
L 263.932247 71.252633 
L 263.932765 71.252633 
L 264.183635 71.142936 
L 264.183635 71.141901 
L 264.296079 71.074634 
L 264.562562 70.963902 
L 264.675193 70.886286 
L 264.911548 70.775554 
L 265.020716 70.714496 
L 265.022645 70.714496 
L 265.233724 70.603764 
L 265.344634 70.544776 
L 265.344821 70.544776 
L 265.576698 70.434043 
L 265.683668 70.372985 
L 265.687774 70.372985 
L 265.941318 70.263288 
L 266.04636 70.203265 
L 266.052415 70.203265 
L 266.305544 70.092533 
L 266.401733 70.039754 
L 266.416599 70.039754 
L 266.623428 69.929022 
L 266.726895 69.857615 
L 266.734525 69.857615 
L 266.981621 69.747918 
L 267.090105 69.683755 
L 267.092655 69.683755 
L 267.348999 69.573023 
L 267.445747 69.528524 
L 267.460096 69.528524 
L 267.77064 69.417791 
L 267.884556 69.373292 
L 268.115935 69.262559 
L 268.222429 69.222199 
L 268.227032 69.222199 
L 268.448541 69.112502 
L 268.554392 69.062828 
L 268.559617 69.062828 
L 268.814613 68.95313 
L 268.920236 68.903456 
L 268.925668 68.903456 
L 269.231962 68.792724 
L 269.328233 68.758573 
L 269.342975 68.758573 
L 269.639648 68.648876 
L 269.751574 68.60748 
L 270.022847 68.496748 
L 270.134814 68.454318 
L 270.385476 68.343586 
L 270.494914 68.311505 
L 270.496552 68.311505 
L 270.756898 68.200773 
L 270.86337 68.164552 
L 270.867994 68.164552 
L 271.180653 68.05382 
L 271.292476 68.00932 
L 271.570757 67.899623 
L 271.676151 67.852018 
L 271.681853 67.852018 
L 271.989308 67.741286 
L 272.095636 67.705065 
L 272.100343 67.705065 
L 272.347148 67.594333 
L 272.460111 67.547764 
L 272.842584 67.437031 
L 272.954427 67.394601 
L 273.264204 67.284904 
L 273.369412 67.251788 
L 273.37528 67.251788 
L 273.697166 67.141056 
L 273.808739 67.115184 
L 274.092308 67.004452 
L 274.200771 66.966161 
L 274.203404 66.966161 
L 274.50271 66.855429 
L 274.614574 66.817138 
L 274.946827 66.707441 
L 274.946827 66.706406 
L 275.058712 66.668116 
L 275.417195 66.557384 
L 275.526073 66.517023 
L 275.528271 66.517023 
L 275.916425 66.406291 
L 276.011017 66.380419 
L 276.02748 66.380419 
L 276.353182 66.270722 
L 276.463345 66.233466 
L 276.464216 66.233466 
L 276.81256 66.122734 
L 276.924548 66.076164 
L 277.23532 65.966467 
L 277.339512 65.916793 
L 277.346313 65.916793 
L 277.667183 65.807096 
L 277.771811 65.76777 
L 277.778197 65.76777 
L 278.179746 65.658073 
L 278.288603 65.624957 
L 278.290842 65.624957 
L 278.632364 65.514225 
L 278.744311 65.471795 
L 279.059894 65.362097 
L 279.171384 65.322772 
L 279.548217 65.21204 
L 279.647433 65.188238 
L 279.659231 65.188238 
L 280.172934 65.077505 
L 280.279884 65.035075 
L 280.283969 65.035075 
L 280.773537 64.925378 
L 280.879076 64.900541 
L 280.884633 64.900541 
L 281.401467 64.790844 
L 281.510407 64.753588 
L 281.512522 64.753588 
L 281.984072 64.642856 
L 282.097657 64.604565 
L 282.615092 64.494868 
L 282.712068 64.467961 
L 282.726168 64.467961 
L 283.359324 64.358264 
L 283.469467 64.325148 
L 283.4704 64.325148 
L 283.976928 64.21545 
L 284.088689 64.180265 
L 284.552089 64.069532 
L 284.660408 64.056079 
L 284.663165 64.056079 
L 285.237331 63.945347 
L 285.349215 63.927754 
L 285.89118 63.817022 
L 286.003147 63.797359 
L 286.537751 63.687662 
L 286.649014 63.671104 
L 287.120998 63.560372 
L 287.22799 63.536569 
L 287.232074 63.536569 
L 287.689441 63.426872 
L 287.797573 63.402035 
L 287.800538 63.402035 
L 288.204658 63.292338 
L 288.310903 63.263361 
L 288.315734 63.263361 
L 288.956831 63.152629 
L 289.069234 63.132966 
L 289.734093 63.022234 
L 289.84575 62.994292 
L 290.444216 62.884595 
L 290.555914 62.855618 
L 290.96302 62.744886 
L 291.068954 62.721084 
L 291.074096 62.721084 
L 291.575732 62.611387 
L 291.68716 62.574131 
L 292.187303 62.464434 
L 292.294086 62.429248 
L 292.298358 62.429248 
L 292.840861 62.318516 
L 292.952829 62.298853 
L 293.548476 62.189156 
L 293.650387 62.168458 
L 293.659572 62.168458 
L 294.257251 62.057726 
L 294.369903 62.033924 
L 295.161078 61.924227 
L 295.27064 61.901459 
L 295.272113 61.901459 
L 295.950221 61.790727 
L 296.061588 61.775204 
L 296.728085 61.664472 
L 296.841711 61.63653 
L 297.496514 61.525798 
L 297.585528 61.506135 
L 297.607611 61.506135 
L 298.178272 61.395403 
L 298.26768 61.37988 
L 298.289369 61.37988 
L 299.183616 61.270182 
L 299.283288 61.253624 
L 299.29463 61.253624 
L 299.945017 61.143927 
L 300.056279 61.127369 
L 300.692753 61.017672 
L 300.802833 61.005253 
L 300.803849 61.005253 
L 301.582335 60.894521 
L 301.668073 60.885207 
L 301.693411 60.885207 
L 302.372639 60.774475 
L 302.479879 60.761022 
L 302.483715 60.761022 
L 303.322539 60.651324 
L 303.434009 60.632697 
L 304.163001 60.521964 
L 304.247163 60.506441 
L 304.274056 60.506441 
L 304.852576 60.395709 
L 304.951853 60.384325 
L 304.963672 60.384325 
L 305.763577 60.274628 
L 305.873512 60.256 
L 305.874653 60.256 
L 306.677128 60.146303 
L 306.677128 60.145268 
L 306.767014 60.133884 
L 306.788225 60.133884 
L 307.68579 60.024187 
L 307.797157 60.009699 
L 308.580245 59.900002 
L 308.691425 59.893792 
L 309.768408 59.78306 
L 309.880044 59.771677 
L 310.630724 59.660944 
L 310.742152 59.643351 
L 311.4225 59.532619 
L 311.534281 59.523305 
L 312.318759 59.412573 
L 312.430105 59.39912 
L 313.07031 59.288388 
L 313.158205 59.277004 
L 313.181324 59.277004 
L 314.203028 59.166272 
L 314.301808 59.148679 
L 314.314063 59.148679 
L 315.262117 59.037947 
L 315.374354 59.022424 
L 316.435516 58.912726 
L 316.435516 58.911691 
L 316.547007 58.887889 
L 317.487949 58.778192 
L 317.599564 58.761634 
L 318.445355 58.651937 
L 318.547847 58.639518 
L 318.556451 58.639518 
L 319.558706 58.528786 
L 319.674344 58.509123 
L 320.548064 58.398391 
L 320.659762 58.384938 
L 321.626021 58.27524 
L 321.737429 58.260752 
L 322.82932 58.15002 
L 322.940666 58.136566 
L 324.200861 58.026869 
L 324.284007 58.02066 
L 324.311957 58.02066 
L 325.477768 57.910963 
L 325.589072 57.896474 
L 326.733194 57.786777 
L 326.793283 57.778498 
L 326.84427 57.778498 
L 327.896972 57.668801 
L 327.896972 57.667766 
L 328.008566 57.662591 
L 329.107279 57.551859 
L 329.217588 57.538406 
L 329.218376 57.538406 
L 330.405294 57.427674 
L 330.517718 57.408011 
L 331.784465 57.298314 
L 331.895748 57.287965 
L 333.489814 57.177233 
L 333.601491 57.163779 
L 335.279802 57.053047 
L 335.391314 57.031315 
L 336.726755 56.920583 
L 336.837997 56.909199 
L 338.3541 56.798467 
L 338.46644 56.780874 
L 340.059241 56.671177 
L 340.170483 56.664967 
L 341.859514 56.554235 
L 341.97115 56.542851 
L 343.446405 56.432119 
L 343.557834 56.426945 
L 344.844507 56.316213 
L 344.956972 56.302759 
L 346.533372 56.193062 
L 346.549939 56.188923 
L 346.644448 56.188923 
L 348.185142 56.079225 
L 348.292963 56.066807 
L 348.296239 56.066807 
L 349.859783 55.957109 
L 349.96611 55.94883 
L 349.970776 55.94883 
L 352.256531 55.838098 
L 352.368706 55.832924 
L 354.707045 55.723227 
L 354.783349 55.712878 
L 354.818121 55.712878 
L 356.718252 55.602146 
L 356.829535 55.596971 
L 358.74671 55.486239 
L 358.85818 55.478995 
L 361.263264 55.369298 
L 361.374465 55.363088 
L 364.443288 55.253391 
L 364.554758 55.247182 
L 368.071452 55.13645 
L 368.182777 55.131275 
L 370.790004 55.021578 
L 370.901246 55.015369 
L 374.174037 54.905672 
L 374.174037 54.904637 
L 374.285403 54.899462 
L 377.69863 54.78873 
L 377.779703 54.783556 
L 377.809706 54.783556 
L 381.105554 54.672824 
L 381.216734 54.669719 
L 385.961857 54.558987 
L 386.07312 54.551743 
L 391.334787 54.441011 
L 391.44607 54.437906 
L 396.829076 54.328209 
L 396.879379 54.324069 
L 396.940173 54.324069 
L 404.626415 54.214372 
L 404.626415 54.212302 
L 404.737511 54.212302 
L 414.72 54.144 
L 414.72 54.144 
" clip-path="url(#p79d326b3ea)" style="fill: none; stroke: #ff8c00; stroke-width: 1.5; stroke-linecap: square"/>
   </g>
   <g id="line2d_14">
    <path d="M 74.605714 307.584 
L 414.72 54.144 
" clip-path="url(#p79d326b3ea)" style="fill: none; stroke-dasharray: 5.55,2.4; stroke-dashoffset: 0; stroke: #0000ff; stroke-width: 1.5"/>
   </g>
   <g id="patch_3">
    <path d="M 57.6 307.584 
L 57.6 41.472 
" style="fill: none; stroke: #000000; stroke-width: 0.8; stroke-linejoin: miter; stroke-linecap: square"/>
   </g>
   <g id="patch_4">
    <path d="M 414.72 307.584 
L 414.72 41.472 
" style="fill: none; stroke: #000000; stroke-width: 0.8; stroke-linejoin: miter; stroke-linecap: square"/>
   </g>
   <g id="patch_5">
    <path d="M 57.6 307.584 
L 414.72 307.584 
" style="fill: none; stroke: #000000; stroke-width: 0.8; stroke-linejoin: miter; stroke-linecap: square"/>
   </g>
   <g id="patch_6">
    <path d="M 57.6 41.472 
L 414.72 41.472 
" style="fill: none; stroke: #000000; stroke-width: 0.8; stroke-linejoin: miter; stroke-linecap: square"/>
   </g>
   <g id="text_15">
    <!-- ROC CURVE -->
    <g transform="translate(200.855625 35.472)scale(0.12 -0.12)">
     <defs>
      <path id="DejaVuSans-4f" d="M 2522 4238 
Q 1834 4238 1429 3725 
Q 1025 3213 1025 2328 
Q 1025 1447 1429 934 
Q 1834 422 2522 422 
Q 3209 422 3611 934 
Q 4013 1447 4013 2328 
Q 4013 3213 3611 3725 
Q 3209 4238 2522 4238 
z
M 2522 4750 
Q 3503 4750 4090 4092 
Q 4678 3434 4678 2328 
Q 4678 1225 4090 567 
Q 3503 -91 2522 -91 
Q 1538 -91 948 565 
Q 359 1222 359 2328 
Q 359 3434 948 4092 
Q 1538 4750 2522 4750 
z
" transform="scale(0.015625)"/>
      <path id="DejaVuSans-43" d="M 4122 4306 
L 4122 3641 
Q 3803 3938 3442 4084 
Q 3081 4231 2675 4231 
Q 1875 4231 1450 3742 
Q 1025 3253 1025 2328 
Q 1025 1406 1450 917 
Q 1875 428 2675 428 
Q 3081 428 3442 575 
Q 3803 722 4122 1019 
L 4122 359 
Q 3791 134 3420 21 
Q 3050 -91 2638 -91 
Q 1578 -91 968 557 
Q 359 1206 359 2328 
Q 359 3453 968 4101 
Q 1578 4750 2638 4750 
Q 3056 4750 3426 4639 
Q 3797 4528 4122 4306 
z
" transform="scale(0.015625)"/>
      <path id="DejaVuSans-55" d="M 556 4666 
L 1191 4666 
L 1191 1831 
Q 1191 1081 1462 751 
Q 1734 422 2344 422 
Q 2950 422 3222 751 
Q 3494 1081 3494 1831 
L 3494 4666 
L 4128 4666 
L 4128 1753 
Q 4128 841 3676 375 
Q 3225 -91 2344 -91 
Q 1459 -91 1007 375 
Q 556 841 556 1753 
L 556 4666 
z
" transform="scale(0.015625)"/>
      <path id="DejaVuSans-56" d="M 1831 0 
L 50 4666 
L 709 4666 
L 2188 738 
L 3669 4666 
L 4325 4666 
L 2547 0 
L 1831 0 
z
" transform="scale(0.015625)"/>
      <path id="DejaVuSans-45" d="M 628 4666 
L 3578 4666 
L 3578 4134 
L 1259 4134 
L 1259 2753 
L 3481 2753 
L 3481 2222 
L 1259 2222 
L 1259 531 
L 3634 531 
L 3634 0 
L 628 0 
L 628 4666 
z
" transform="scale(0.015625)"/>
     </defs>
     <use xlink:href="#DejaVuSans-52"/>
     <use xlink:href="#DejaVuSans-4f" x="69.482422"/>
     <use xlink:href="#DejaVuSans-43" x="148.193359"/>
     <use xlink:href="#DejaVuSans-20" x="218.017578"/>
     <use xlink:href="#DejaVuSans-43" x="249.804688"/>
     <use xlink:href="#DejaVuSans-55" x="319.628906"/>
     <use xlink:href="#DejaVuSans-52" x="392.822266"/>
     <use xlink:href="#DejaVuSans-56" x="456.804688"/>
     <use xlink:href="#DejaVuSans-45" x="525.212891"/>
    </g>
   </g>
   <g id="legend_1">
    <g id="patch_7">
     <path d="M 234.97 302.584 
L 407.72 302.584 
Q 409.72 302.584 409.72 300.584 
L 409.72 286.905875 
Q 409.72 284.905875 407.72 284.905875 
L 234.97 284.905875 
Q 232.97 284.905875 232.97 286.905875 
L 232.97 300.584 
Q 232.97 302.584 234.97 302.584 
z
" style="fill: #ffffff; opacity: 0.8; stroke: #cccccc; stroke-linejoin: miter"/>
    </g>
    <g id="line2d_15">
     <path d="M 236.97 293.004312 
L 246.97 293.004312 
L 256.97 293.004312 
" style="fill: none; stroke: #ff8c00; stroke-width: 1.5; stroke-linecap: square"/>
    </g>
    <g id="text_16">
     <!-- ROC curve (ROC AUC=0.81) -->
     <g transform="translate(264.97 296.504312)scale(0.1 -0.1)">
      <defs>
       <path id="DejaVuSans-63" d="M 3122 3366 
L 3122 2828 
Q 2878 2963 2633 3030 
Q 2388 3097 2138 3097 
Q 1578 3097 1268 2742 
Q 959 2388 959 1747 
Q 959 1106 1268 751 
Q 1578 397 2138 397 
Q 2388 397 2633 464 
Q 2878 531 3122 666 
L 3122 134 
Q 2881 22 2623 -34 
Q 2366 -91 2075 -91 
Q 1284 -91 818 406 
Q 353 903 353 1747 
Q 353 2603 823 3093 
Q 1294 3584 2113 3584 
Q 2378 3584 2631 3529 
Q 2884 3475 3122 3366 
z
" transform="scale(0.015625)"/>
       <path id="DejaVuSans-28" d="M 1984 4856 
Q 1566 4138 1362 3434 
Q 1159 2731 1159 2009 
Q 1159 1288 1364 580 
Q 1569 -128 1984 -844 
L 1484 -844 
Q 1016 -109 783 600 
Q 550 1309 550 2009 
Q 550 2706 781 3412 
Q 1013 4119 1484 4856 
L 1984 4856 
z
" transform="scale(0.015625)"/>
       <path id="DejaVuSans-41" d="M 2188 4044 
L 1331 1722 
L 3047 1722 
L 2188 4044 
z
M 1831 4666 
L 2547 4666 
L 4325 0 
L 3669 0 
L 3244 1197 
L 1141 1197 
L 716 0 
L 50 0 
L 1831 4666 
z
" transform="scale(0.015625)"/>
       <path id="DejaVuSans-3d" d="M 678 2906 
L 4684 2906 
L 4684 2381 
L 678 2381 
L 678 2906 
z
M 678 1631 
L 4684 1631 
L 4684 1100 
L 678 1100 
L 678 1631 
z
" transform="scale(0.015625)"/>
       <path id="DejaVuSans-29" d="M 513 4856 
L 1013 4856 
Q 1481 4119 1714 3412 
Q 1947 2706 1947 2009 
Q 1947 1309 1714 600 
Q 1481 -109 1013 -844 
L 513 -844 
Q 928 -128 1133 580 
Q 1338 1288 1338 2009 
Q 1338 2731 1133 3434 
Q 928 4138 513 4856 
z
" transform="scale(0.015625)"/>
      </defs>
      <use xlink:href="#DejaVuSans-52"/>
      <use xlink:href="#DejaVuSans-4f" x="69.482422"/>
      <use xlink:href="#DejaVuSans-43" x="148.193359"/>
      <use xlink:href="#DejaVuSans-20" x="218.017578"/>
      <use xlink:href="#DejaVuSans-63" x="249.804688"/>
      <use xlink:href="#DejaVuSans-75" x="304.785156"/>
      <use xlink:href="#DejaVuSans-72" x="368.164062"/>
      <use xlink:href="#DejaVuSans-76" x="409.277344"/>
      <use xlink:href="#DejaVuSans-65" x="468.457031"/>
      <use xlink:href="#DejaVuSans-20" x="529.980469"/>
      <use xlink:href="#DejaVuSans-28" x="561.767578"/>
      <use xlink:href="#DejaVuSans-52" x="600.78125"/>
      <use xlink:href="#DejaVuSans-4f" x="670.263672"/>
      <use xlink:href="#DejaVuSans-43" x="748.974609"/>
      <use xlink:href="#DejaVuSans-20" x="818.798828"/>
      <use xlink:href="#DejaVuSans-41" x="850.585938"/>
      <use xlink:href="#DejaVuSans-55" x="918.994141"/>
      <use xlink:href="#DejaVuSans-43" x="992.1875"/>
      <use xlink:href="#DejaVuSans-3d" x="1062.011719"/>
      <use xlink:href="#DejaVuSans-30" x="1145.800781"/>
      <use xlink:href="#DejaVuSans-2e" x="1209.423828"/>
      <use xlink:href="#DejaVuSans-38" x="1241.210938"/>
      <use xlink:href="#DejaVuSans-31" x="1304.833984"/>
      <use xlink:href="#DejaVuSans-29" x="1368.457031"/>
     </g>
    </g>
   </g>
  </g>
 </g>
 <defs>
  <clipPath id="p79d326b3ea">
   <rect x="57.6" y="41.472" width="357.12" height="266.112"/>
  </clipPath>
 </defs>
</svg>
