<?xml version="1.0" encoding="utf-8" standalone="no"?>
<!DOCTYPE svg PUBLIC "-//W3C//DTD SVG 1.1//EN"
  "http://www.w3.org/Graphics/SVG/1.1/DTD/svg11.dtd">
<svg xmlns:xlink="http://www.w3.org/1999/xlink" width="460.8pt" height="345.6pt" viewBox="0 0 460.8 345.6" xmlns="http://www.w3.org/2000/svg" version="1.1">
 <metadata>
  <rdf:RDF xmlns:dc="http://purl.org/dc/elements/1.1/" xmlns:cc="http://creativecommons.org/ns#" xmlns:rdf="http://www.w3.org/1999/02/22-rdf-syntax-ns#">
   <cc:Work>
    <dc:type rdf:resource="http://purl.org/dc/dcmitype/StillImage"/>
    <dc:date>2022-05-22T18:41:53.649053</dc:date>
    <dc:format>image/svg+xml</dc:format>
    <dc:creator>
     <cc:Agent>
      <dc:title>Matplotlib v3.5.1, https://matplotlib.org/</dc:title>
     </cc:Agent>
    </dc:creator>
   </cc:Work>
  </rdf:RDF>
 </metadata>
 <defs>
  <style type="text/css">*{stroke-linejoin: round; stroke-linecap: butt}</style>
 </defs>
 <g id="figure_1">
  <g id="patch_1">
   <path d="M 0 345.6 
L 460.8 345.6 
L 460.8 0 
L 0 0 
z
" style="fill: #ffffff"/>
  </g>
  <g id="axes_1">
   <g id="patch_2">
    <path d="M 57.6 307.584 
L 414.72 307.584 
L 414.72 41.472 
L 57.6 41.472 
z
" style="fill: #ffffff"/>
   </g>
   <g id="matplotlib.axis_1">
    <g id="xtick_1">
     <g id="line2d_1">
      <defs>
       <path id="m3624702b49" d="M 0 0 
L 0 3.5 
" style="stroke: #000000; stroke-width: 0.8"/>
      </defs>
      <g>
       <use xlink:href="#m3624702b49" x="74.605714" y="307.584" style="stroke: #000000; stroke-width: 0.8"/>
      </g>
     </g>
     <g id="text_1">
      <!-- 0.0 -->
      <g transform="translate(66.654152 322.182437)scale(0.1 -0.1)">
       <defs>
        <path id="DejaVuSans-30" d="M 2034 4250 
Q 1547 4250 1301 3770 
Q 1056 3291 1056 2328 
Q 1056 1369 1301 889 
Q 1547 409 2034 409 
Q 2525 409 2770 889 
Q 3016 1369 3016 2328 
Q 3016 3291 2770 3770 
Q 2525 4250 2034 4250 
z
M 2034 4750 
Q 2819 4750 3233 4129 
Q 3647 3509 3647 2328 
Q 3647 1150 3233 529 
Q 2819 -91 2034 -91 
Q 1250 -91 836 529 
Q 422 1150 422 2328 
Q 422 3509 836 4129 
Q 1250 4750 2034 4750 
z
" transform="scale(0.015625)"/>
        <path id="DejaVuSans-2e" d="M 684 794 
L 1344 794 
L 1344 0 
L 684 0 
L 684 794 
z
" transform="scale(0.015625)"/>
       </defs>
       <use xlink:href="#DejaVuSans-30"/>
       <use xlink:href="#DejaVuSans-2e" x="63.623047"/>
       <use xlink:href="#DejaVuSans-30" x="95.410156"/>
      </g>
     </g>
    </g>
    <g id="xtick_2">
     <g id="line2d_2">
      <g>
       <use xlink:href="#m3624702b49" x="142.628571" y="307.584" style="stroke: #000000; stroke-width: 0.8"/>
      </g>
     </g>
     <g id="text_2">
      <!-- 0.2 -->
      <g transform="translate(134.677009 322.182437)scale(0.1 -0.1)">
       <defs>
        <path id="DejaVuSans-32" d="M 1228 531 
L 3431 531 
L 3431 0 
L 469 0 
L 469 531 
Q 828 903 1448 1529 
Q 2069 2156 2228 2338 
Q 2531 2678 2651 2914 
Q 2772 3150 2772 3378 
Q 2772 3750 2511 3984 
Q 2250 4219 1831 4219 
Q 1534 4219 1204 4116 
Q 875 4013 500 3803 
L 500 4441 
Q 881 4594 1212 4672 
Q 1544 4750 1819 4750 
Q 2544 4750 2975 4387 
Q 3406 4025 3406 3419 
Q 3406 3131 3298 2873 
Q 3191 2616 2906 2266 
Q 2828 2175 2409 1742 
Q 1991 1309 1228 531 
z
" transform="scale(0.015625)"/>
       </defs>
       <use xlink:href="#DejaVuSans-30"/>
       <use xlink:href="#DejaVuSans-2e" x="63.623047"/>
       <use xlink:href="#DejaVuSans-32" x="95.410156"/>
      </g>
     </g>
    </g>
    <g id="xtick_3">
     <g id="line2d_3">
      <g>
       <use xlink:href="#m3624702b49" x="210.651429" y="307.584" style="stroke: #000000; stroke-width: 0.8"/>
      </g>
     </g>
     <g id="text_3">
      <!-- 0.4 -->
      <g transform="translate(202.699866 322.182437)scale(0.1 -0.1)">
       <defs>
        <path id="DejaVuSans-34" d="M 2419 4116 
L 825 1625 
L 2419 1625 
L 2419 4116 
z
M 2253 4666 
L 3047 4666 
L 3047 1625 
L 3713 1625 
L 3713 1100 
L 3047 1100 
L 3047 0 
L 2419 0 
L 2419 1100 
L 313 1100 
L 313 1709 
L 2253 4666 
z
" transform="scale(0.015625)"/>
       </defs>
       <use xlink:href="#DejaVuSans-30"/>
       <use xlink:href="#DejaVuSans-2e" x="63.623047"/>
       <use xlink:href="#DejaVuSans-34" x="95.410156"/>
      </g>
     </g>
    </g>
    <g id="xtick_4">
     <g id="line2d_4">
      <g>
       <use xlink:href="#m3624702b49" x="278.674286" y="307.584" style="stroke: #000000; stroke-width: 0.8"/>
      </g>
     </g>
     <g id="text_4">
      <!-- 0.6 -->
      <g transform="translate(270.722723 322.182437)scale(0.1 -0.1)">
       <defs>
        <path id="DejaVuSans-36" d="M 2113 2584 
Q 1688 2584 1439 2293 
Q 1191 2003 1191 1497 
Q 1191 994 1439 701 
Q 1688 409 2113 409 
Q 2538 409 2786 701 
Q 3034 994 3034 1497 
Q 3034 2003 2786 2293 
Q 2538 2584 2113 2584 
z
M 3366 4563 
L 3366 3988 
Q 3128 4100 2886 4159 
Q 2644 4219 2406 4219 
Q 1781 4219 1451 3797 
Q 1122 3375 1075 2522 
Q 1259 2794 1537 2939 
Q 1816 3084 2150 3084 
Q 2853 3084 3261 2657 
Q 3669 2231 3669 1497 
Q 3669 778 3244 343 
Q 2819 -91 2113 -91 
Q 1303 -91 875 529 
Q 447 1150 447 2328 
Q 447 3434 972 4092 
Q 1497 4750 2381 4750 
Q 2619 4750 2861 4703 
Q 3103 4656 3366 4563 
z
" transform="scale(0.015625)"/>
       </defs>
       <use xlink:href="#DejaVuSans-30"/>
       <use xlink:href="#DejaVuSans-2e" x="63.623047"/>
       <use xlink:href="#DejaVuSans-36" x="95.410156"/>
      </g>
     </g>
    </g>
    <g id="xtick_5">
     <g id="line2d_5">
      <g>
       <use xlink:href="#m3624702b49" x="346.697143" y="307.584" style="stroke: #000000; stroke-width: 0.8"/>
      </g>
     </g>
     <g id="text_5">
      <!-- 0.8 -->
      <g transform="translate(338.74558 322.182437)scale(0.1 -0.1)">
       <defs>
        <path id="DejaVuSans-38" d="M 2034 2216 
Q 1584 2216 1326 1975 
Q 1069 1734 1069 1313 
Q 1069 891 1326 650 
Q 1584 409 2034 409 
Q 2484 409 2743 651 
Q 3003 894 3003 1313 
Q 3003 1734 2745 1975 
Q 2488 2216 2034 2216 
z
M 1403 2484 
Q 997 2584 770 2862 
Q 544 3141 544 3541 
Q 544 4100 942 4425 
Q 1341 4750 2034 4750 
Q 2731 4750 3128 4425 
Q 3525 4100 3525 3541 
Q 3525 3141 3298 2862 
Q 3072 2584 2669 2484 
Q 3125 2378 3379 2068 
Q 3634 1759 3634 1313 
Q 3634 634 3220 271 
Q 2806 -91 2034 -91 
Q 1263 -91 848 271 
Q 434 634 434 1313 
Q 434 1759 690 2068 
Q 947 2378 1403 2484 
z
M 1172 3481 
Q 1172 3119 1398 2916 
Q 1625 2713 2034 2713 
Q 2441 2713 2670 2916 
Q 2900 3119 2900 3481 
Q 2900 3844 2670 4047 
Q 2441 4250 2034 4250 
Q 1625 4250 1398 4047 
Q 1172 3844 1172 3481 
z
" transform="scale(0.015625)"/>
       </defs>
       <use xlink:href="#DejaVuSans-30"/>
       <use xlink:href="#DejaVuSans-2e" x="63.623047"/>
       <use xlink:href="#DejaVuSans-38" x="95.410156"/>
      </g>
     </g>
    </g>
    <g id="xtick_6">
     <g id="line2d_6">
      <g>
       <use xlink:href="#m3624702b49" x="414.72" y="307.584" style="stroke: #000000; stroke-width: 0.8"/>
      </g>
     </g>
     <g id="text_6">
      <!-- 1.0 -->
      <g transform="translate(406.768438 322.182437)scale(0.1 -0.1)">
       <defs>
        <path id="DejaVuSans-31" d="M 794 531 
L 1825 531 
L 1825 4091 
L 703 3866 
L 703 4441 
L 1819 4666 
L 2450 4666 
L 2450 531 
L 3481 531 
L 3481 0 
L 794 0 
L 794 531 
z
" transform="scale(0.015625)"/>
       </defs>
       <use xlink:href="#DejaVuSans-31"/>
       <use xlink:href="#DejaVuSans-2e" x="63.623047"/>
       <use xlink:href="#DejaVuSans-30" x="95.410156"/>
      </g>
     </g>
    </g>
    <g id="text_7">
     <!-- False Positive Rate -->
     <g transform="translate(189.693594 335.860562)scale(0.1 -0.1)">
      <defs>
       <path id="DejaVuSans-46" d="M 628 4666 
L 3309 4666 
L 3309 4134 
L 1259 4134 
L 1259 2759 
L 3109 2759 
L 3109 2228 
L 1259 2228 
L 1259 0 
L 628 0 
L 628 4666 
z
" transform="scale(0.015625)"/>
       <path id="DejaVuSans-61" d="M 2194 1759 
Q 1497 1759 1228 1600 
Q 959 1441 959 1056 
Q 959 750 1161 570 
Q 1363 391 1709 391 
Q 2188 391 2477 730 
Q 2766 1069 2766 1631 
L 2766 1759 
L 2194 1759 
z
M 3341 1997 
L 3341 0 
L 2766 0 
L 2766 531 
Q 2569 213 2275 61 
Q 1981 -91 1556 -91 
Q 1019 -91 701 211 
Q 384 513 384 1019 
Q 384 1609 779 1909 
Q 1175 2209 1959 2209 
L 2766 2209 
L 2766 2266 
Q 2766 2663 2505 2880 
Q 2244 3097 1772 3097 
Q 1472 3097 1187 3025 
Q 903 2953 641 2809 
L 641 3341 
Q 956 3463 1253 3523 
Q 1550 3584 1831 3584 
Q 2591 3584 2966 3190 
Q 3341 2797 3341 1997 
z
" transform="scale(0.015625)"/>
       <path id="DejaVuSans-6c" d="M 603 4863 
L 1178 4863 
L 1178 0 
L 603 0 
L 603 4863 
z
" transform="scale(0.015625)"/>
       <path id="DejaVuSans-73" d="M 2834 3397 
L 2834 2853 
Q 2591 2978 2328 3040 
Q 2066 3103 1784 3103 
Q 1356 3103 1142 2972 
Q 928 2841 928 2578 
Q 928 2378 1081 2264 
Q 1234 2150 1697 2047 
L 1894 2003 
Q 2506 1872 2764 1633 
Q 3022 1394 3022 966 
Q 3022 478 2636 193 
Q 2250 -91 1575 -91 
Q 1294 -91 989 -36 
Q 684 19 347 128 
L 347 722 
Q 666 556 975 473 
Q 1284 391 1588 391 
Q 1994 391 2212 530 
Q 2431 669 2431 922 
Q 2431 1156 2273 1281 
Q 2116 1406 1581 1522 
L 1381 1569 
Q 847 1681 609 1914 
Q 372 2147 372 2553 
Q 372 3047 722 3315 
Q 1072 3584 1716 3584 
Q 2034 3584 2315 3537 
Q 2597 3491 2834 3397 
z
" transform="scale(0.015625)"/>
       <path id="DejaVuSans-65" d="M 3597 1894 
L 3597 1613 
L 953 1613 
Q 991 1019 1311 708 
Q 1631 397 2203 397 
Q 2534 397 2845 478 
Q 3156 559 3463 722 
L 3463 178 
Q 3153 47 2828 -22 
Q 2503 -91 2169 -91 
Q 1331 -91 842 396 
Q 353 884 353 1716 
Q 353 2575 817 3079 
Q 1281 3584 2069 3584 
Q 2775 3584 3186 3129 
Q 3597 2675 3597 1894 
z
M 3022 2063 
Q 3016 2534 2758 2815 
Q 2500 3097 2075 3097 
Q 1594 3097 1305 2825 
Q 1016 2553 972 2059 
L 3022 2063 
z
" transform="scale(0.015625)"/>
       <path id="DejaVuSans-20" transform="scale(0.015625)"/>
       <path id="DejaVuSans-50" d="M 1259 4147 
L 1259 2394 
L 2053 2394 
Q 2494 2394 2734 2622 
Q 2975 2850 2975 3272 
Q 2975 3691 2734 3919 
Q 2494 4147 2053 4147 
L 1259 4147 
z
M 628 4666 
L 2053 4666 
Q 2838 4666 3239 4311 
Q 3641 3956 3641 3272 
Q 3641 2581 3239 2228 
Q 2838 1875 2053 1875 
L 1259 1875 
L 1259 0 
L 628 0 
L 628 4666 
z
" transform="scale(0.015625)"/>
       <path id="DejaVuSans-6f" d="M 1959 3097 
Q 1497 3097 1228 2736 
Q 959 2375 959 1747 
Q 959 1119 1226 758 
Q 1494 397 1959 397 
Q 2419 397 2687 759 
Q 2956 1122 2956 1747 
Q 2956 2369 2687 2733 
Q 2419 3097 1959 3097 
z
M 1959 3584 
Q 2709 3584 3137 3096 
Q 3566 2609 3566 1747 
Q 3566 888 3137 398 
Q 2709 -91 1959 -91 
Q 1206 -91 779 398 
Q 353 888 353 1747 
Q 353 2609 779 3096 
Q 1206 3584 1959 3584 
z
" transform="scale(0.015625)"/>
       <path id="DejaVuSans-69" d="M 603 3500 
L 1178 3500 
L 1178 0 
L 603 0 
L 603 3500 
z
M 603 4863 
L 1178 4863 
L 1178 4134 
L 603 4134 
L 603 4863 
z
" transform="scale(0.015625)"/>
       <path id="DejaVuSans-74" d="M 1172 4494 
L 1172 3500 
L 2356 3500 
L 2356 3053 
L 1172 3053 
L 1172 1153 
Q 1172 725 1289 603 
Q 1406 481 1766 481 
L 2356 481 
L 2356 0 
L 1766 0 
Q 1100 0 847 248 
Q 594 497 594 1153 
L 594 3053 
L 172 3053 
L 172 3500 
L 594 3500 
L 594 4494 
L 1172 4494 
z
" transform="scale(0.015625)"/>
       <path id="DejaVuSans-76" d="M 191 3500 
L 800 3500 
L 1894 563 
L 2988 3500 
L 3597 3500 
L 2284 0 
L 1503 0 
L 191 3500 
z
" transform="scale(0.015625)"/>
       <path id="DejaVuSans-52" d="M 2841 2188 
Q 3044 2119 3236 1894 
Q 3428 1669 3622 1275 
L 4263 0 
L 3584 0 
L 2988 1197 
Q 2756 1666 2539 1819 
Q 2322 1972 1947 1972 
L 1259 1972 
L 1259 0 
L 628 0 
L 628 4666 
L 2053 4666 
Q 2853 4666 3247 4331 
Q 3641 3997 3641 3322 
Q 3641 2881 3436 2590 
Q 3231 2300 2841 2188 
z
M 1259 4147 
L 1259 2491 
L 2053 2491 
Q 2509 2491 2742 2702 
Q 2975 2913 2975 3322 
Q 2975 3731 2742 3939 
Q 2509 4147 2053 4147 
L 1259 4147 
z
" transform="scale(0.015625)"/>
      </defs>
      <use xlink:href="#DejaVuSans-46"/>
      <use xlink:href="#DejaVuSans-61" x="48.394531"/>
      <use xlink:href="#DejaVuSans-6c" x="109.673828"/>
      <use xlink:href="#DejaVuSans-73" x="137.457031"/>
      <use xlink:href="#DejaVuSans-65" x="189.556641"/>
      <use xlink:href="#DejaVuSans-20" x="251.080078"/>
      <use xlink:href="#DejaVuSans-50" x="282.867188"/>
      <use xlink:href="#DejaVuSans-6f" x="339.544922"/>
      <use xlink:href="#DejaVuSans-73" x="400.726562"/>
      <use xlink:href="#DejaVuSans-69" x="452.826172"/>
      <use xlink:href="#DejaVuSans-74" x="480.609375"/>
      <use xlink:href="#DejaVuSans-69" x="519.818359"/>
      <use xlink:href="#DejaVuSans-76" x="547.601562"/>
      <use xlink:href="#DejaVuSans-65" x="606.78125"/>
      <use xlink:href="#DejaVuSans-20" x="668.304688"/>
      <use xlink:href="#DejaVuSans-52" x="700.091797"/>
      <use xlink:href="#DejaVuSans-61" x="767.324219"/>
      <use xlink:href="#DejaVuSans-74" x="828.603516"/>
      <use xlink:href="#DejaVuSans-65" x="867.8125"/>
     </g>
    </g>
   </g>
   <g id="matplotlib.axis_2">
    <g id="ytick_1">
     <g id="line2d_7">
      <defs>
       <path id="m2bb71f189d" d="M 0 0 
L -3.5 0 
" style="stroke: #000000; stroke-width: 0.8"/>
      </defs>
      <g>
       <use xlink:href="#m2bb71f189d" x="57.6" y="307.584" style="stroke: #000000; stroke-width: 0.8"/>
      </g>
     </g>
     <g id="text_8">
      <!-- 0.0 -->
      <g transform="translate(34.696875 311.383219)scale(0.1 -0.1)">
       <use xlink:href="#DejaVuSans-30"/>
       <use xlink:href="#DejaVuSans-2e" x="63.623047"/>
       <use xlink:href="#DejaVuSans-30" x="95.410156"/>
      </g>
     </g>
    </g>
    <g id="ytick_2">
     <g id="line2d_8">
      <g>
       <use xlink:href="#m2bb71f189d" x="57.6" y="256.896" style="stroke: #000000; stroke-width: 0.8"/>
      </g>
     </g>
     <g id="text_9">
      <!-- 0.2 -->
      <g transform="translate(34.696875 260.695219)scale(0.1 -0.1)">
       <use xlink:href="#DejaVuSans-30"/>
       <use xlink:href="#DejaVuSans-2e" x="63.623047"/>
       <use xlink:href="#DejaVuSans-32" x="95.410156"/>
      </g>
     </g>
    </g>
    <g id="ytick_3">
     <g id="line2d_9">
      <g>
       <use xlink:href="#m2bb71f189d" x="57.6" y="206.208" style="stroke: #000000; stroke-width: 0.8"/>
      </g>
     </g>
     <g id="text_10">
      <!-- 0.4 -->
      <g transform="translate(34.696875 210.007219)scale(0.1 -0.1)">
       <use xlink:href="#DejaVuSans-30"/>
       <use xlink:href="#DejaVuSans-2e" x="63.623047"/>
       <use xlink:href="#DejaVuSans-34" x="95.410156"/>
      </g>
     </g>
    </g>
    <g id="ytick_4">
     <g id="line2d_10">
      <g>
       <use xlink:href="#m2bb71f189d" x="57.6" y="155.52" style="stroke: #000000; stroke-width: 0.8"/>
      </g>
     </g>
     <g id="text_11">
      <!-- 0.6 -->
      <g transform="translate(34.696875 159.319219)scale(0.1 -0.1)">
       <use xlink:href="#DejaVuSans-30"/>
       <use xlink:href="#DejaVuSans-2e" x="63.623047"/>
       <use xlink:href="#DejaVuSans-36" x="95.410156"/>
      </g>
     </g>
    </g>
    <g id="ytick_5">
     <g id="line2d_11">
      <g>
       <use xlink:href="#m2bb71f189d" x="57.6" y="104.832" style="stroke: #000000; stroke-width: 0.8"/>
      </g>
     </g>
     <g id="text_12">
      <!-- 0.8 -->
      <g transform="translate(34.696875 108.631219)scale(0.1 -0.1)">
       <use xlink:href="#DejaVuSans-30"/>
       <use xlink:href="#DejaVuSans-2e" x="63.623047"/>
       <use xlink:href="#DejaVuSans-38" x="95.410156"/>
      </g>
     </g>
    </g>
    <g id="ytick_6">
     <g id="line2d_12">
      <g>
       <use xlink:href="#m2bb71f189d" x="57.6" y="54.144" style="stroke: #000000; stroke-width: 0.8"/>
      </g>
     </g>
     <g id="text_13">
      <!-- 1.0 -->
      <g transform="translate(34.696875 57.943219)scale(0.1 -0.1)">
       <use xlink:href="#DejaVuSans-31"/>
       <use xlink:href="#DejaVuSans-2e" x="63.623047"/>
       <use xlink:href="#DejaVuSans-30" x="95.410156"/>
      </g>
     </g>
    </g>
    <g id="text_14">
     <!-- True Positive Rate -->
     <g transform="translate(28.617187 219.057687)rotate(-90)scale(0.1 -0.1)">
      <defs>
       <path id="DejaVuSans-54" d="M -19 4666 
L 3928 4666 
L 3928 4134 
L 2272 4134 
L 2272 0 
L 1638 0 
L 1638 4134 
L -19 4134 
L -19 4666 
z
" transform="scale(0.015625)"/>
       <path id="DejaVuSans-72" d="M 2631 2963 
Q 2534 3019 2420 3045 
Q 2306 3072 2169 3072 
Q 1681 3072 1420 2755 
Q 1159 2438 1159 1844 
L 1159 0 
L 581 0 
L 581 3500 
L 1159 3500 
L 1159 2956 
Q 1341 3275 1631 3429 
Q 1922 3584 2338 3584 
Q 2397 3584 2469 3576 
Q 2541 3569 2628 3553 
L 2631 2963 
z
" transform="scale(0.015625)"/>
       <path id="DejaVuSans-75" d="M 544 1381 
L 544 3500 
L 1119 3500 
L 1119 1403 
Q 1119 906 1312 657 
Q 1506 409 1894 409 
Q 2359 409 2629 706 
Q 2900 1003 2900 1516 
L 2900 3500 
L 3475 3500 
L 3475 0 
L 2900 0 
L 2900 538 
Q 2691 219 2414 64 
Q 2138 -91 1772 -91 
Q 1169 -91 856 284 
Q 544 659 544 1381 
z
M 1991 3584 
L 1991 3584 
z
" transform="scale(0.015625)"/>
      </defs>
      <use xlink:href="#DejaVuSans-54"/>
      <use xlink:href="#DejaVuSans-72" x="46.333984"/>
      <use xlink:href="#DejaVuSans-75" x="87.447266"/>
      <use xlink:href="#DejaVuSans-65" x="150.826172"/>
      <use xlink:href="#DejaVuSans-20" x="212.349609"/>
      <use xlink:href="#DejaVuSans-50" x="244.136719"/>
      <use xlink:href="#DejaVuSans-6f" x="300.814453"/>
      <use xlink:href="#DejaVuSans-73" x="361.996094"/>
      <use xlink:href="#DejaVuSans-69" x="414.095703"/>
      <use xlink:href="#DejaVuSans-74" x="441.878906"/>
      <use xlink:href="#DejaVuSans-69" x="481.087891"/>
      <use xlink:href="#DejaVuSans-76" x="508.871094"/>
      <use xlink:href="#DejaVuSans-65" x="568.050781"/>
      <use xlink:href="#DejaVuSans-20" x="629.574219"/>
      <use xlink:href="#DejaVuSans-52" x="661.361328"/>
      <use xlink:href="#DejaVuSans-61" x="728.59375"/>
      <use xlink:href="#DejaVuSans-74" x="789.873047"/>
      <use xlink:href="#DejaVuSans-65" x="829.082031"/>
     </g>
    </g>
   </g>
   <g id="line2d_13">
    <path d="M 74.605714 307.584 
L 74.716313 307.139002 
L 74.716604 307.139002 
L 74.747167 307.029304 
L 74.857227 306.642259 
L 74.858056 306.642259 
L 74.889241 306.532562 
L 75.000338 306.073075 
L 75.024183 305.965448 
L 75.024183 305.963378 
L 75.13445 305.408683 
L 75.135155 305.408683 
L 75.1573 305.298985 
L 75.268355 304.698755 
L 75.288011 304.589058 
L 75.399108 304.038502 
L 75.427266 303.928804 
L 75.536911 303.398946 
L 75.538363 303.398946 
L 75.559056 303.289249 
L 75.669904 302.800785 
L 75.670153 302.800785 
L 75.691551 302.691088 
L 75.801735 302.173648 
L 75.802565 302.173648 
L 75.827156 302.063951 
L 75.937797 301.513395 
L 75.938211 301.513395 
L 75.965581 301.403698 
L 76.076636 300.882118 
L 76.095256 300.772421 
L 76.205648 300.213586 
L 76.206311 300.213586 
L 76.225429 300.103889 
L 76.336443 299.617495 
L 76.336525 299.617495 
L 76.359707 299.507798 
L 76.470762 298.988288 
L 76.4944 298.878591 
L 76.605331 298.313547 
L 76.605496 298.313547 
L 76.628844 298.203849 
L 76.738904 297.611898 
L 76.73994 297.611898 
L 76.7625 297.502201 
L 76.87227 296.957854 
L 76.873431 296.957854 
L 76.895658 296.848157 
L 77.017786 296.281043 
L 77.039972 296.171345 
L 77.150903 295.715998 
L 77.151027 295.715998 
L 77.180263 295.605266 
L 77.29136 295.084721 
L 77.309648 294.975024 
L 77.420289 294.513468 
L 77.420703 294.513468 
L 77.445543 294.402736 
L 77.580527 293.80768 
L 77.603708 293.697982 
L 77.714805 293.234356 
L 77.741677 293.124659 
L 77.852587 292.634126 
L 77.852774 292.634126 
L 77.881056 292.523394 
L 78.015002 291.955245 
L 78.03893 291.845548 
L 78.149197 291.348805 
L 78.150027 291.348805 
L 78.171549 291.239108 
L 78.282273 290.767203 
L 78.282605 290.767203 
L 78.318061 290.659575 
L 78.429116 290.247693 
L 78.429158 290.247693 
L 78.448171 290.137996 
L 78.563519 289.711625 
L 78.590101 289.601928 
L 78.710155 289.15279 
L 78.735783 289.043093 
L 78.846175 288.596025 
L 78.846838 288.596025 
L 78.871844 288.486328 
L 78.9829 288.051678 
L 78.982941 288.051678 
L 79.013753 287.940946 
L 79.124684 287.476285 
L 79.124829 287.476285 
L 79.158232 287.366588 
L 79.279738 286.847078 
L 79.305843 286.737381 
L 79.421024 286.325499 
L 79.446653 286.215801 
L 79.567163 285.739757 
L 79.59926 285.630059 
L 79.59926 285.629024 
L 79.710315 285.19334 
L 79.729391 285.083643 
L 79.840447 284.671761 
L 79.840488 284.671761 
L 79.868003 284.561028 
L 79.988783 284.07567 
L 80.020507 283.968042 
L 80.131168 283.531323 
L 80.131604 283.531323 
L 80.160632 283.421626 
L 80.27598 282.986976 
L 80.30872 282.877279 
L 80.42894 282.421932 
L 80.457243 282.312235 
L 80.57288 281.852748 
L 80.603485 281.743051 
L 80.714457 281.289773 
L 80.71454 281.289773 
L 80.749872 281.180076 
L 80.869885 280.735078 
L 80.895057 280.62538 
L 81.005946 280.209359 
L 81.006112 280.209359 
L 81.036551 280.099662 
L 81.158056 279.578082 
L 81.189905 279.468385 
L 81.300338 279.048224 
L 81.301001 279.048224 
L 81.332062 278.940596 
L 81.332062 278.937491 
L 81.476542 278.383831 
L 81.509842 278.274134 
L 81.620689 277.800159 
L 81.620876 277.800159 
L 81.648723 277.690461 
L 81.759757 277.27444 
L 81.759819 277.27444 
L 81.788682 277.164742 
L 81.899737 276.75079 
L 81.925822 276.641093 
L 82.047037 276.131932 
L 82.072769 276.022235 
L 82.196742 275.593795 
L 82.225812 275.485132 
L 82.225812 275.484098 
L 82.383354 274.906635 
L 82.409812 274.796937 
L 82.519727 274.422311 
L 82.520909 274.422311 
L 82.559061 274.314683 
L 82.559061 274.313648 
L 82.668996 273.917289 
L 82.670157 273.917289 
L 82.696573 273.806557 
L 82.81642 273.368803 
L 82.852042 273.258071 
L 82.982422 272.778922 
L 83.008092 272.669224 
L 83.118048 272.253203 
L 83.119085 272.253203 
L 83.156179 272.143505 
L 83.266903 271.681949 
L 83.267276 271.681949 
L 83.294646 271.572252 
L 83.405743 271.162439 
L 83.43585 271.054812 
L 83.43585 271.052742 
L 83.54678 270.566349 
L 83.546905 270.566349 
L 83.579334 270.456651 
L 83.698351 270.059257 
L 83.725306 269.95163 
L 83.725306 269.94956 
L 83.85071 269.475585 
L 83.87949 269.365888 
L 83.87949 269.364853 
L 84.007112 268.954006 
L 84.046881 268.843274 
L 84.166915 268.395171 
L 84.20291 268.284439 
L 84.313592 267.838405 
L 84.313945 267.838405 
L 84.346395 267.728708 
L 84.455998 267.329244 
L 84.457491 267.329244 
L 84.489672 267.219547 
L 84.600395 266.84699 
L 84.600768 266.84699 
L 84.623245 266.737293 
L 84.762872 266.265388 
L 84.784893 266.156726 
L 84.903661 265.770715 
L 84.929829 265.661018 
L 85.050214 265.197392 
L 85.079285 265.087695 
L 85.189759 264.69858 
L 85.190381 264.69858 
L 85.218622 264.588883 
L 85.329055 264.170791 
L 85.329677 264.170791 
L 85.357379 264.061094 
L 85.477723 263.593328 
L 85.509655 263.483631 
L 85.620378 263.111074 
L 85.620668 263.111074 
L 85.658447 263.000342 
L 85.788537 262.527402 
L 85.822293 262.41667 
L 85.93256 262.053427 
L 85.93339 262.053427 
L 85.968597 261.94373 
L 86.077994 261.533917 
L 86.079652 261.533917 
L 86.105032 261.42422 
L 86.216004 261.059942 
L 86.216128 261.059942 
L 86.25059 260.952315 
L 86.369773 260.548712 
L 86.40129 260.439015 
L 86.40129 260.43798 
L 86.520141 260.05197 
L 86.555639 259.942272 
L 86.671194 259.493134 
L 86.702026 259.383437 
L 86.702026 259.382402 
L 86.832157 258.909462 
L 86.861476 258.79873 
L 86.971702 258.423069 
L 86.972573 258.423069 
L 87.000067 258.313371 
L 87.115394 257.884931 
L 87.148984 257.775234 
L 87.259874 257.398538 
L 87.260081 257.398538 
L 87.293609 257.28884 
L 87.420277 256.7714 
L 87.455858 256.661703 
L 87.584828 256.216705 
L 87.616428 256.107008 
L 87.727359 255.705474 
L 87.727525 255.705474 
L 87.761613 255.595777 
L 87.761613 255.594742 
L 87.91563 255.061779 
L 87.94526 254.952082 
L 88.060483 254.53813 
L 88.09793 254.428433 
L 88.20772 254.091062 
L 88.208819 254.091062 
L 88.235899 253.98033 
L 88.346394 253.623296 
L 88.346954 253.623296 
L 88.378471 253.512564 
L 88.489029 253.124484 
L 88.489547 253.124484 
L 88.528093 253.014787 
L 88.638816 252.621532 
L 88.639169 252.621532 
L 88.670416 252.511835 
L 88.779937 252.139278 
L 88.781513 252.139278 
L 88.813527 252.029581 
L 88.931985 251.663234 
L 88.964808 251.553536 
L 89.084986 251.100259 
L 89.12546 250.989527 
L 89.236308 250.593168 
L 89.236557 250.593168 
L 89.26231 250.483471 
L 89.388128 250.115053 
L 89.42205 250.004321 
L 89.532774 249.632799 
L 89.533147 249.632799 
L 89.573973 249.523102 
L 89.689093 249.121569 
L 89.715405 249.010837 
L 89.826502 248.651733 
L 89.857936 248.542036 
L 89.857936 248.541001 
L 89.9845 248.157061 
L 90.013405 248.047364 
L 90.132007 247.672737 
L 90.162197 247.56304 
L 90.270391 247.233948 
L 90.273294 247.233948 
L 90.314473 247.123216 
L 90.425487 246.770322 
L 90.425528 246.770322 
L 90.453976 246.65959 
L 90.563539 246.298417 
L 90.565073 246.298417 
L 90.594371 246.188719 
L 90.717059 245.801674 
L 90.741194 245.691977 
L 90.851358 245.31942 
L 90.852249 245.31942 
L 90.881921 245.209723 
L 90.994697 244.853724 
L 91.030734 244.742992 
L 91.150207 244.325936 
L 91.190059 244.216238 
L 91.301115 243.889216 
L 91.301156 243.889216 
L 91.332217 243.778484 
L 91.484078 243.272428 
L 91.513936 243.162731 
L 91.624908 242.839848 
L 91.66389 242.729116 
L 91.774613 242.384501 
L 91.774986 242.384501 
L 91.813283 242.274804 
L 91.92832 241.87948 
L 91.959111 241.769782 
L 92.06971 241.415854 
L 92.070207 241.415854 
L 92.101081 241.306156 
L 92.224101 240.906693 
L 92.261755 240.796995 
L 92.261755 240.795961 
L 92.372478 240.461694 
L 92.372852 240.461694 
L 92.411211 240.351997 
L 92.52098 240.037394 
L 92.522287 240.037394 
L 92.554778 239.927696 
L 92.673298 239.55307 
L 92.712611 239.443373 
L 92.823521 239.12256 
L 92.823666 239.12256 
L 92.85904 239.012863 
L 92.978347 238.60098 
L 93.01484 238.490248 
L 93.142069 238.08975 
L 93.170392 237.980053 
L 93.288933 237.609566 
L 93.318687 237.499868 
L 93.429452 237.234939 
L 93.429742 237.234939 
L 93.458688 237.127312 
L 93.577581 236.738197 
L 93.609305 236.6285 
L 93.717623 236.338733 
L 93.720236 236.338733 
L 93.766765 236.229036 
L 93.876286 235.877177 
L 93.877799 235.877177 
L 93.913028 235.767479 
L 94.022445 235.430109 
L 94.024124 235.430109 
L 94.063686 235.320411 
L 94.189712 234.949924 
L 94.228444 234.839192 
L 94.338235 234.523554 
L 94.3395 234.523554 
L 94.381322 234.413857 
L 94.495943 234.061998 
L 94.528932 233.9523 
L 94.528932 233.951265 
L 94.64683 233.604581 
L 94.691451 233.494883 
L 94.802423 233.17821 
L 94.802548 233.17821 
L 94.839331 233.068513 
L 94.839331 233.067478 
L 94.966062 232.679398 
L 95.011927 232.569701 
L 95.011927 232.568666 
L 95.1297 232.23026 
L 95.17739 232.122633 
L 95.17739 232.120563 
L 95.288031 231.770774 
L 95.288445 231.770774 
L 95.320957 231.661076 
L 95.439436 231.28852 
L 95.491584 231.177787 
L 95.616241 230.841452 
L 95.654455 230.732789 
L 95.764017 230.408872 
L 95.76551 230.408872 
L 95.798478 230.299174 
L 95.909534 229.984571 
L 95.945861 229.874874 
L 96.056875 229.535433 
L 96.056916 229.535433 
L 96.089864 229.424701 
L 96.215495 229.063528 
L 96.257089 228.953831 
L 96.371358 228.630948 
L 96.412019 228.520216 
L 96.521955 228.198368 
L 96.523054 228.198368 
L 96.57769 228.088671 
L 96.695422 227.75751 
L 96.730297 227.646777 
L 96.848319 227.300093 
L 96.887964 227.190395 
L 96.997941 226.836467 
L 96.99904 226.836467 
L 97.042231 226.726769 
L 97.042231 226.725734 
L 97.166598 226.395608 
L 97.214246 226.285911 
L 97.325135 225.963028 
L 97.325301 225.963028 
L 97.364407 225.853331 
L 97.475089 225.536658 
L 97.475504 225.536658 
L 97.523567 225.42696 
L 97.634456 225.093729 
L 97.634581 225.093729 
L 97.678414 224.984032 
L 97.792123 224.721172 
L 97.831146 224.61044 
L 97.94162 224.31136 
L 97.942243 224.31136 
L 97.987154 224.201663 
L 97.987154 224.200628 
L 98.114299 223.802199 
L 98.148968 223.692502 
L 98.259277 223.355131 
L 98.260023 223.355131 
L 98.292867 223.247503 
L 98.292867 223.245434 
L 98.403881 222.901853 
L 98.446304 222.792156 
L 98.568017 222.440297 
L 98.614069 222.3306 
L 98.728089 222.011857 
L 98.786312 221.901125 
L 98.896372 221.566858 
L 98.897367 221.566858 
L 98.936266 221.457161 
L 99.054246 221.111511 
L 99.096794 221.001814 
L 99.211167 220.670653 
L 99.243347 220.560955 
L 99.357678 220.238073 
L 99.390854 220.128376 
L 99.500707 219.83033 
L 99.501909 219.83033 
L 99.538361 219.722703 
L 99.653148 219.352216 
L 99.695033 219.242518 
L 99.804305 218.919636 
L 99.806129 218.919636 
L 99.847847 218.809939 
L 99.957078 218.534661 
L 99.958944 218.534661 
L 100.011735 218.424963 
L 100.121297 218.155895 
L 100.122707 218.155895 
L 100.162518 218.046197 
L 100.292939 217.727454 
L 100.335819 217.617757 
L 100.445132 217.301084 
L 100.446915 217.301084 
L 100.486726 217.191387 
L 100.597284 216.930597 
L 100.597823 216.930597 
L 100.641822 216.8209 
L 100.752898 216.495947 
L 100.79642 216.38625 
L 100.91212 216.150297 
L 100.959437 216.0406 
L 101.084633 215.690811 
L 101.14663 215.581114 
L 101.257332 215.295487 
L 101.257644 215.295487 
L 101.312839 215.185789 
L 101.428995 214.931209 
L 101.483777 214.821512 
L 101.593297 214.521397 
L 101.594832 214.521397 
L 101.634269 214.413769 
L 101.634269 214.411699 
L 101.750881 214.136421 
L 101.789946 214.026724 
L 101.90013 213.796981 
L 101.901042 213.796981 
L 101.950267 213.687283 
L 102.061322 213.393378 
L 102.109385 213.282645 
L 102.22044 212.989774 
L 102.220482 212.989774 
L 102.268503 212.880077 
L 102.378812 212.590311 
L 102.3796 212.590311 
L 102.419577 212.482683 
L 102.419577 212.481648 
L 102.530549 212.205336 
L 102.574797 212.095638 
L 102.685893 211.849337 
L 102.725165 211.73964 
L 102.83622 211.485059 
L 102.878229 211.375362 
L 102.988289 211.087665 
L 102.988745 211.087665 
L 103.037928 210.976933 
L 103.147656 210.731667 
L 103.149024 210.731667 
L 103.203806 210.621969 
L 103.313472 210.315645 
L 103.314902 210.315645 
L 103.364168 210.205948 
L 103.475057 209.916181 
L 103.475244 209.916181 
L 103.521337 209.806484 
L 103.638281 209.512578 
L 103.681534 209.402881 
L 103.798022 209.131742 
L 103.84849 209.022045 
L 103.84849 209.02101 
L 103.978248 208.713651 
L 104.022786 208.603954 
L 104.133717 208.361792 
L 104.133862 208.361792 
L 104.196751 208.252095 
L 104.316971 207.94784 
L 104.379341 207.838143 
L 104.379341 207.837108 
L 104.50885 207.533888 
L 104.572132 207.424191 
L 104.572132 207.423156 
L 104.689532 207.109587 
L 104.746636 206.99989 
L 104.857193 206.722542 
L 104.857608 206.722542 
L 104.895864 206.612845 
L 105.01569 206.321009 
L 105.071964 206.211312 
L 105.182169 205.931894 
L 105.18306 205.931894 
L 105.241201 205.822197 
L 105.351095 205.567616 
L 105.352214 205.567616 
L 105.404715 205.457919 
L 105.514401 205.19506 
L 105.515791 205.19506 
L 105.56516 205.085362 
L 105.675635 204.8432 
L 105.676195 204.8432 
L 105.733236 204.733503 
L 105.849889 204.456155 
L 105.896377 204.346458 
L 106.0054 204.102227 
L 106.007473 204.102227 
L 106.06101 203.992529 
L 106.171983 203.704833 
L 106.172107 203.704833 
L 106.212747 203.595135 
L 106.323346 203.344694 
L 106.323803 203.344694 
L 106.366931 203.234997 
L 106.474959 202.984556 
L 106.478027 202.984556 
L 106.520741 202.874859 
L 106.631713 202.649255 
L 106.631838 202.649255 
L 106.674924 202.539558 
L 106.785524 202.268419 
L 106.786021 202.268419 
L 106.834126 202.158722 
L 106.834126 202.157687 
L 106.957249 201.856537 
L 107.022978 201.74684 
L 107.133577 201.515027 
L 107.134074 201.515027 
L 107.182469 201.40533 
L 107.292985 201.121773 
L 107.293566 201.121773 
L 107.338312 201.012075 
L 107.449077 200.745076 
L 107.449367 200.745076 
L 107.500955 200.635379 
L 107.612052 200.378729 
L 107.665879 200.269032 
L 107.776789 200.0248 
L 107.776934 200.0248 
L 107.824748 199.917173 
L 107.935389 199.664662 
L 107.935721 199.664662 
L 107.984406 199.557034 
L 108.094839 199.263128 
L 108.095461 199.263128 
L 108.148459 199.153431 
L 108.264615 198.898851 
L 108.305753 198.789153 
L 108.415522 198.518015 
L 108.416829 198.518015 
L 108.462383 198.408318 
L 108.572567 198.13097 
L 108.573438 198.13097 
L 108.632574 198.021273 
L 108.742219 197.808087 
L 108.74367 197.808087 
L 108.793143 197.69839 
L 108.903742 197.464507 
L 108.90424 197.464507 
L 108.94741 197.35481 
L 109.057491 197.09402 
L 109.058507 197.09402 
L 109.103377 196.986393 
L 109.214473 196.783556 
L 109.255652 196.673859 
L 109.366666 196.454465 
L 109.366708 196.454465 
L 109.426341 196.344767 
L 109.536152 196.057071 
L 109.537272 196.057071 
L 109.589855 195.947373 
L 109.699044 195.763165 
L 109.700952 195.763165 
L 109.752083 195.653468 
L 109.862496 195.367841 
L 109.863097 195.367841 
L 109.924866 195.258144 
L 110.038347 195.009772 
L 110.08301 194.900075 
L 110.198461 194.680681 
L 110.251334 194.570983 
L 110.361768 194.34124 
L 110.362431 194.34124 
L 110.406223 194.231543 
L 110.516615 194.008009 
L 110.517195 194.008009 
L 110.564056 193.898311 
L 110.680377 193.633382 
L 110.733852 193.523685 
L 110.847168 193.296011 
L 110.90734 193.186314 
L 111.017732 192.948292 
L 111.018312 192.948292 
L 111.095197 192.838594 
L 111.095197 192.83756 
L 111.211021 192.600572 
L 111.262692 192.490875 
L 111.37864 192.246643 
L 111.432385 192.136946 
L 111.54315 191.915482 
L 111.543481 191.915482 
L 111.597226 191.805784 
L 111.713382 191.551204 
L 111.761258 191.441507 
L 111.874698 191.201415 
L 111.931014 191.090682 
L 112.053556 190.806091 
L 112.108213 190.696393 
L 112.217029 190.46458 
L 112.219309 190.46458 
L 112.270856 190.354883 
L 112.381372 190.094093 
L 112.381953 190.094093 
L 112.441959 189.984396 
L 112.55036 189.738095 
L 112.553035 189.738095 
L 112.612979 189.628397 
L 112.723454 189.398654 
L 112.723661 189.398654 
L 112.785782 189.288957 
L 112.896879 189.029202 
L 113.013408 188.759098 
L 113.062757 188.649401 
L 113.173688 188.409309 
L 113.173771 188.409309 
L 113.234399 188.299612 
L 113.350078 188.071938 
L 113.397167 187.962241 
L 113.506812 187.724218 
L 113.50818 187.724218 
L 113.559271 187.614521 
L 113.670368 187.36201 
L 113.713993 187.251278 
L 113.824883 187.032919 
L 113.825049 187.032919 
L 113.872365 186.922187 
L 113.982384 186.695548 
L 113.983213 186.695548 
L 114.028125 186.585851 
L 114.13835 186.343689 
L 114.13918 186.343689 
L 114.179343 186.233991 
L 114.292285 186.012527 
L 114.347066 185.90283 
L 114.457956 185.685505 
L 114.45808 185.685505 
L 114.511368 185.575808 
L 114.622465 185.339855 
L 114.691595 185.230158 
L 114.801406 184.985926 
L 114.802691 184.985926 
L 114.857327 184.876229 
L 114.978605 184.675462 
L 115.048522 184.565765 
L 115.158209 184.369138 
L 115.159619 184.369138 
L 115.2127 184.259441 
L 115.32305 184.033837 
L 115.323797 184.033837 
L 115.38795 183.92414 
L 115.498383 183.731652 
L 115.499047 183.731652 
L 115.554242 183.621955 
L 115.665007 183.398421 
L 115.665339 183.398421 
L 115.732064 183.288723 
L 115.842517 183.042422 
L 115.843077 183.042422 
L 115.898398 182.932725 
L 116.008955 182.700912 
L 116.009453 182.700912 
L 116.082771 182.591214 
L 116.193577 182.386308 
L 116.193743 182.386308 
L 116.261007 182.276611 
L 116.37173 182.092402 
L 116.372062 182.092402 
L 116.443846 181.98167 
L 116.554859 181.757101 
L 116.554942 181.757101 
L 116.61528 181.647404 
L 116.72223 181.456986 
L 116.726211 181.456986 
L 116.788084 181.347289 
L 116.8986 181.136173 
L 116.899139 181.136173 
L 116.953796 181.026476 
L 117.061326 180.827779 
L 117.064851 180.827779 
L 117.135805 180.718082 
L 117.246777 180.515245 
L 117.24686 180.515245 
L 117.309811 180.405548 
L 117.419954 180.235828 
L 117.420534 180.235828 
L 117.480043 180.126131 
L 117.588735 179.943992 
L 117.591057 179.943992 
L 117.651913 179.834295 
L 117.769127 179.631458 
L 117.838878 179.522796 
L 117.838878 179.521761 
L 117.948026 179.337552 
L 117.949975 179.337552 
L 118.03026 179.227855 
L 118.145006 179.045716 
L 118.211108 178.936019 
L 118.320463 178.770438 
L 118.322164 178.770438 
L 118.407114 178.660741 
L 118.520346 178.445486 
L 118.578113 178.335789 
L 118.689168 178.188836 
L 118.761574 178.079138 
L 118.885402 177.870093 
L 118.951297 177.760395 
L 119.065504 177.601024 
L 119.13115 177.491327 
L 119.240837 177.294699 
L 119.242247 177.294699 
L 119.322946 177.185002 
L 119.433794 177.007003 
L 119.434043 177.007003 
L 119.548374 176.839352 
L 119.613606 176.729655 
L 119.723127 176.555795 
L 119.724661 176.555795 
L 119.788275 176.446098 
L 119.90808 176.230843 
L 119.967465 176.121146 
L 120.078064 175.934867 
L 120.078561 175.934867 
L 120.153206 175.82517 
L 120.26281 175.649241 
L 120.264241 175.649241 
L 120.34944 175.541613 
L 120.34944 175.539543 
L 120.463004 175.417427 
L 120.523114 175.30773 
L 120.634086 175.129731 
L 120.634211 175.129731 
L 120.709934 175.020034 
L 120.819745 174.821337 
L 120.821031 174.821337 
L 120.904384 174.711639 
L 121.01913 174.529501 
L 121.08967 174.419803 
L 121.199253 174.289408 
L 121.200767 174.289408 
L 121.264899 174.179711 
L 121.377675 174.009991 
L 121.447593 173.900294 
L 121.561593 173.75541 
L 121.642126 173.645713 
L 121.756209 173.494621 
L 121.848105 173.384923 
L 121.956962 173.24625 
L 121.959202 173.24625 
L 122.046454 173.136552 
L 122.160743 172.975111 
L 122.219091 172.865414 
L 122.32828 172.741228 
L 122.330125 172.741228 
L 122.420218 172.630496 
L 122.530485 172.436974 
L 122.531315 172.436974 
L 122.602103 172.327276 
L 122.709032 172.145137 
L 122.713137 172.145137 
L 122.787347 172.03544 
L 122.897697 171.876069 
L 122.898319 171.876069 
L 123.007426 171.766371 
L 123.119891 171.623558 
L 123.212533 171.513861 
L 123.212533 171.512826 
L 123.32898 171.381396 
L 123.397321 171.271699 
L 123.505308 171.112327 
L 123.508418 171.112327 
L 123.577838 171.001595 
L 123.688686 170.841189 
L 123.688893 170.841189 
L 123.778716 170.731492 
L 123.889564 170.578329 
L 123.889792 170.578329 
L 123.989215 170.468632 
L 123.989215 170.467597 
L 124.106906 170.305121 
L 124.186278 170.195424 
L 124.296255 170.079517 
L 124.297375 170.079517 
L 124.390432 169.968785 
L 124.499912 169.833216 
L 124.501529 169.833216 
L 124.587205 169.723519 
L 124.695337 169.588984 
L 124.698302 169.588984 
L 124.793101 169.479287 
L 124.904135 169.344753 
L 124.904197 169.344753 
L 125.004906 169.235055 
L 125.118387 169.115009 
L 125.205432 169.004277 
L 125.312029 168.874917 
L 125.316466 168.874917 
L 125.419248 168.764185 
L 125.52993 168.634825 
L 125.530324 168.634825 
L 125.610464 168.525128 
L 125.718782 168.369896 
L 125.721561 168.369896 
L 125.828345 168.259164 
L 125.941701 168.146362 
L 126.02209 168.036665 
L 126.132565 167.9042 
L 126.133166 167.9042 
L 126.262115 167.794503 
L 126.372175 167.64548 
L 126.373212 167.64548 
L 126.502244 167.535783 
L 126.614751 167.392969 
L 126.705051 167.283272 
L 126.812208 167.159086 
L 126.816147 167.159086 
L 126.938607 167.049389 
L 127.049703 166.933483 
L 127.162459 166.823785 
L 127.272851 166.691321 
L 127.273514 166.691321 
L 127.356163 166.581624 
L 127.467239 166.449159 
L 127.467259 166.449159 
L 127.563759 166.339462 
L 127.673487 166.200788 
L 127.674856 166.200788 
L 127.768701 166.090056 
L 127.879051 165.952417 
L 127.879798 165.952417 
L 127.983928 165.842719 
L 128.092287 165.695766 
L 128.095024 165.695766 
L 128.182898 165.586069 
L 128.293829 165.459814 
L 128.293953 165.459814 
L 128.384108 165.350117 
L 128.493795 165.219722 
L 128.495163 165.219722 
L 128.5944 165.110024 
L 128.705289 165.006536 
L 128.705496 165.006536 
L 128.813483 164.896839 
L 128.813483 164.895804 
L 128.927026 164.772654 
L 129.000987 164.661921 
L 129.111068 164.516003 
L 129.112084 164.516003 
L 129.207857 164.406306 
L 129.318726 164.265562 
L 129.318913 164.265562 
L 129.41479 164.155865 
L 129.523606 164.013052 
L 129.525887 164.013052 
L 129.625787 163.903355 
L 129.736427 163.743983 
L 129.736883 163.743983 
L 129.795894 163.634286 
L 129.795894 163.633251 
L 129.910184 163.474914 
L 130.005688 163.365217 
L 130.112099 163.245171 
L 130.116785 163.245171 
L 130.209615 163.134439 
L 130.323801 162.980242 
L 130.40421 162.86951 
L 130.514063 162.748429 
L 130.515307 162.748429 
L 130.590574 162.638731 
L 130.700862 162.47729 
L 130.701588 162.47729 
L 130.796179 162.366558 
L 130.906903 162.226849 
L 130.907235 162.226849 
L 131.004646 162.117152 
L 131.117112 161.974339 
L 131.205359 161.864641 
L 131.31405 161.709409 
L 131.316414 161.709409 
L 131.41055 161.599712 
L 131.52061 161.419643 
L 131.521584 161.419643 
L 131.599464 161.309946 
L 131.712116 161.148504 
L 131.804281 161.038807 
L 131.916892 160.887715 
L 132.007668 160.778017 
L 132.118765 160.620716 
L 132.195608 160.509984 
L 132.317611 160.330949 
L 132.399078 160.220217 
L 132.513347 160.061881 
L 132.616357 159.952183 
L 132.726666 159.801091 
L 132.727413 159.801091 
L 132.806205 159.691394 
L 132.916555 159.55272 
L 132.917281 159.55272 
L 133.005424 159.443022 
L 133.116479 159.285721 
L 133.116521 159.285721 
L 133.190792 159.176023 
L 133.190792 159.174989 
L 133.30502 159.018722 
L 133.378981 158.909024 
L 133.489124 158.728955 
L 133.490015 158.728955 
L 133.563188 158.619258 
L 133.678764 158.472305 
L 133.762366 158.362608 
L 133.871016 158.165981 
L 133.873421 158.165981 
L 133.973446 158.058353 
L 134.075129 157.919679 
L 134.084522 157.919679 
L 134.17084 157.809982 
L 134.280154 157.648541 
L 134.281896 157.648541 
L 134.3554 157.537809 
L 134.469441 157.387751 
L 134.547176 157.278054 
L 134.656655 157.129031 
L 134.658231 157.129031 
L 134.740133 157.019334 
L 134.851188 156.835125 
L 134.932593 156.724393 
L 135.046634 156.578475 
L 135.119745 156.469813 
L 135.119745 156.468778 
L 135.230261 156.294918 
L 135.230841 156.294918 
L 135.308534 156.184186 
L 135.428609 155.961687 
L 135.498734 155.851989 
L 135.608172 155.690548 
L 135.609831 155.690548 
L 135.689286 155.580851 
L 135.804903 155.431828 
L 135.894685 155.322131 
L 136.00545 155.16069 
L 136.005761 155.16069 
L 136.092224 155.050992 
L 136.204752 154.908179 
L 136.289391 154.798482 
L 136.289391 154.797447 
L 136.40874 154.593576 
L 136.504618 154.485948 
L 136.504618 154.483878 
L 136.619778 154.281042 
L 136.699006 154.17031 
L 136.80946 154.011973 
L 136.810061 154.011973 
L 136.895882 153.902276 
L 137.006979 153.756358 
L 137.122367 153.542138 
L 137.177045 153.43244 
L 137.286732 153.227534 
L 137.288142 153.227534 
L 137.343006 153.116802 
L 137.467082 152.958465 
L 137.541727 152.847733 
L 137.659459 152.683187 
L 137.747458 152.57349 
L 137.855983 152.420328 
L 137.858554 152.420328 
L 137.935729 152.310631 
L 138.046121 152.126422 
L 138.046763 152.126422 
L 138.105567 152.01569 
L 138.235325 151.786981 
L 138.30149 151.677284 
L 138.41128 151.526192 
L 138.412586 151.526192 
L 138.480182 151.416495 
L 138.590615 151.19503 
L 138.591278 151.19503 
L 138.643343 151.084298 
L 138.758525 150.876287 
L 138.826161 150.76659 
L 138.937009 150.603079 
L 138.937217 150.603079 
L 139.002593 150.493382 
L 139.115452 150.315382 
L 139.175894 150.20465 
L 139.28697 150.029756 
L 139.344613 149.919023 
L 139.452039 149.739989 
L 139.455668 149.739989 
L 139.526622 149.629257 
L 139.650533 149.419176 
L 139.724888 149.308444 
L 139.835964 149.092154 
L 139.885996 148.981422 
L 139.996513 148.808597 
L 139.997093 148.808597 
L 140.073231 148.697865 
L 140.182607 148.52504 
L 140.184328 148.52504 
L 140.247818 148.415343 
L 140.247818 148.414308 
L 140.362647 148.229065 
L 140.432771 148.118332 
L 140.541235 147.912391 
L 140.543847 147.912391 
L 140.592595 147.802694 
L 140.592595 147.801659 
L 140.707507 147.610207 
L 140.777714 147.500509 
L 140.777714 147.499474 
L 140.886095 147.31837 
L 140.888811 147.31837 
L 140.946246 147.208673 
L 141.054419 147.005837 
L 141.057177 147.005837 
L 141.114073 146.898209 
L 141.114073 146.896139 
L 141.223864 146.695373 
L 141.22517 146.695373 
L 141.28134 146.584641 
L 141.391214 146.355932 
L 141.392416 146.355932 
L 141.45516 146.246235 
L 141.566256 146.035119 
L 141.628212 145.924387 
L 141.738852 145.712237 
L 141.739288 145.712237 
L 141.794338 145.601505 
L 141.91348 145.401773 
L 141.973487 145.291041 
L 142.084044 145.072681 
L 142.084583 145.072681 
L 142.127463 144.962984 
L 142.127463 144.961949 
L 142.248305 144.718752 
L 142.299748 144.60802 
L 142.410077 144.364823 
L 142.410844 144.364823 
L 142.463552 144.255126 
L 142.576826 144.035732 
L 142.615932 143.924999 
L 142.72595 143.710779 
L 142.726987 143.710779 
L 142.77787 143.600047 
L 142.888593 143.325804 
L 142.888946 143.325804 
L 142.950217 143.216107 
L 143.060567 142.949108 
L 143.061314 142.949108 
L 143.108091 142.83941 
L 143.217571 142.613807 
L 143.219188 142.613807 
L 143.267272 142.503075 
L 143.393443 142.255738 
L 143.441215 142.146041 
L 143.441215 142.145006 
L 143.562286 141.89767 
L 143.617834 141.787973 
L 143.734259 141.523043 
L 143.773137 141.412311 
L 143.883508 141.140138 
L 143.884234 141.140138 
L 143.939575 141.029406 
L 144.061391 140.763442 
L 144.1192 140.653744 
L 144.230255 140.395024 
L 144.230296 140.395024 
L 144.284041 140.285327 
L 144.394516 140.045235 
L 144.395138 140.045235 
L 144.445233 139.935538 
L 144.556122 139.685097 
L 144.556329 139.685097 
L 144.606964 139.5754 
L 144.716899 139.345656 
L 144.718019 139.345656 
L 144.769959 139.235959 
L 144.883606 138.979309 
L 144.934655 138.868577 
L 145.044135 138.569496 
L 145.045711 138.569496 
L 145.083323 138.458764 
L 145.194254 138.167963 
L 145.194358 138.167963 
L 145.251897 138.057231 
L 145.358867 137.805755 
L 145.362952 137.805755 
L 145.411699 137.696058 
L 145.411699 137.695023 
L 145.527959 137.437338 
L 145.571647 137.327641 
L 145.685273 137.062711 
L 145.730019 136.953014 
L 145.730019 136.951979 
L 145.846051 136.706713 
L 145.891501 136.597015 
L 145.891501 136.59598 
L 146.008093 136.313458 
L 146.064325 136.203761 
L 146.174613 135.971948 
L 146.17538 135.971948 
L 146.218426 135.862251 
L 146.327221 135.649065 
L 146.329439 135.649065 
L 146.383868 135.539368 
L 146.383868 135.538333 
L 146.496478 135.305485 
L 146.553209 135.195788 
L 146.666669 134.953626 
L 146.721077 134.842894 
L 146.836362 134.632813 
L 146.890231 134.523116 
L 146.890231 134.522081 
L 147.006677 134.256117 
L 147.068259 134.14642 
L 147.176516 133.914607 
L 147.179356 133.914607 
L 147.228912 133.80491 
L 147.338329 133.595864 
L 147.340009 133.595864 
L 147.393339 133.486167 
L 147.501325 133.277121 
L 147.504394 133.277121 
L 147.570247 133.167424 
L 147.680929 132.94389 
L 147.681344 132.94389 
L 147.743424 132.834192 
L 147.852302 132.627216 
L 147.8545 132.627216 
L 147.919876 132.517519 
L 147.919876 132.516484 
L 148.034498 132.33538 
L 148.091187 132.225683 
L 148.091187 132.224648 
L 148.206389 132.020777 
L 148.261336 131.91108 
L 148.376663 131.697894 
L 148.437955 131.588197 
L 148.546791 131.381221 
L 148.54901 131.381221 
L 148.610385 131.271524 
L 148.718744 131.070757 
L 148.721398 131.070757 
L 148.78522 130.96106 
L 148.895943 130.803758 
L 148.896317 130.803758 
L 148.960594 130.694061 
L 148.960594 130.693026 
L 149.079798 130.491224 
L 149.143143 130.381527 
L 149.254157 130.189039 
L 149.25424 130.189039 
L 149.31408 130.079342 
L 149.31408 130.078307 
L 149.429572 129.857878 
L 149.500195 129.747146 
L 149.611292 129.586739 
L 149.656369 129.477042 
L 149.766387 129.251438 
L 149.767445 129.251438 
L 149.847419 129.140706 
L 149.956877 128.922347 
L 149.958515 128.922347 
L 150.017029 128.812649 
L 150.133392 128.63879 
L 150.180875 128.529092 
L 150.291909 128.332465 
L 150.291971 128.332465 
L 150.372008 128.222768 
L 150.479828 128.03028 
L 150.483104 128.03028 
L 150.548108 127.919548 
L 150.672827 127.752932 
L 150.743533 127.6422 
L 150.854007 127.475585 
L 150.854608 127.475585 
L 150.926786 127.365887 
L 150.926786 127.364852 
L 151.044725 127.196167 
L 151.108132 127.08647 
L 151.218026 126.860866 
L 151.219229 126.860866 
L 151.291593 126.751169 
L 151.400367 126.587658 
L 151.40269 126.587658 
L 151.487536 126.47796 
L 151.598426 126.302031 
L 151.598633 126.302031 
L 151.652419 126.191299 
L 151.761276 125.989497 
L 151.763516 125.989497 
L 151.827337 125.878765 
L 151.945338 125.70801 
L 152.010922 125.598313 
L 152.11866 125.422383 
L 152.121936 125.422383 
L 152.201184 125.311651 
L 152.311535 125.097431 
L 152.312281 125.097431 
L 152.36644 124.987733 
L 152.476666 124.782827 
L 152.477495 124.782827 
L 152.554504 124.67313 
L 152.664958 124.476503 
L 152.66558 124.476503 
L 152.722995 124.366806 
L 152.833677 124.176388 
L 152.834091 124.176388 
L 152.886923 124.06669 
L 152.999907 123.878342 
L 153.063832 123.768645 
L 153.173519 123.561669 
L 153.174929 123.561669 
L 153.246464 123.451972 
L 153.35615 123.319507 
L 153.35754 123.319507 
L 153.428473 123.20981 
L 153.534096 123.015253 
L 153.539549 123.015253 
L 153.592485 122.90452 
L 153.703291 122.713068 
L 153.703582 122.713068 
L 153.765744 122.60337 
L 153.876717 122.43158 
L 153.876841 122.43158 
L 153.936433 122.321883 
L 154.047073 122.112837 
L 154.047364 122.112837 
L 154.110895 122.00314 
L 154.220333 121.806513 
L 154.221971 121.806513 
L 154.271796 121.696816 
L 154.384676 121.508467 
L 154.462597 121.39877 
L 154.573653 121.22491 
L 154.657317 121.114178 
L 154.76802 120.947563 
L 154.768372 120.947563 
L 154.842706 120.837865 
L 154.842706 120.83683 
L 154.957452 120.655727 
L 155.047338 120.546029 
L 155.047338 120.544994 
L 155.161835 120.376309 
L 155.220369 120.265577 
L 155.331134 120.067915 
L 155.331466 120.067915 
L 155.408454 119.958218 
L 155.52519 119.771939 
L 155.588535 119.661207 
L 155.698636 119.498731 
L 155.699611 119.498731 
L 155.767019 119.387999 
L 155.876748 119.258639 
L 155.878095 119.258639 
L 155.950024 119.148941 
L 156.068585 118.964733 
L 156.139851 118.855036 
L 156.139851 118.854001 
L 156.253933 118.706013 
L 156.333347 118.595281 
L 156.444299 118.447293 
L 156.444382 118.447293 
L 156.520146 118.339665 
L 156.628527 118.155457 
L 156.631202 118.155457 
L 156.731413 118.04576 
L 156.842012 117.8719 
L 156.842447 117.8719 
L 156.929948 117.762203 
L 157.039386 117.644226 
L 157.040899 117.644226 
L 157.128151 117.534529 
L 157.128151 117.533494 
L 157.241715 117.408274 
L 157.328884 117.298576 
L 157.433304 117.17853 
L 157.439981 117.17853 
L 157.548797 117.068833 
L 157.659437 116.934299 
L 157.659873 116.934299 
L 157.736861 116.823567 
L 157.846506 116.677648 
L 157.847937 116.677648 
L 157.935665 116.567951 
L 158.046555 116.429277 
L 158.04672 116.429277 
L 158.164618 116.318545 
L 158.280816 116.193325 
L 158.390046 116.083627 
L 158.500562 115.97186 
L 158.501122 115.97186 
L 158.617465 115.861128 
L 158.724663 115.725559 
L 158.728561 115.725559 
L 158.846936 115.607583 
L 158.993344 115.497885 
L 159.10245 115.392328 
L 159.104399 115.392328 
L 159.244815 115.28263 
L 159.354481 115.20398 
L 159.355912 115.20398 
L 159.465557 115.093247 
L 159.579225 114.963887 
L 159.699569 114.85419 
L 159.80712 114.705168 
L 159.810666 114.705168 
L 159.946934 114.59547 
L 160.053635 114.479564 
L 160.05801 114.479564 
L 160.177899 114.369866 
L 160.285906 114.247751 
L 160.288892 114.247751 
L 160.392607 114.138053 
L 160.505673 114.038705 
L 160.622431 113.929008 
L 160.735912 113.811031 
L 160.900317 113.701334 
L 160.99719 113.604055 
L 161.011414 113.604055 
L 161.137834 113.493323 
L 161.244307 113.384661 
L 161.248889 113.384661 
L 161.366351 113.274964 
L 161.474918 113.192173 
L 161.477448 113.192173 
L 161.576062 113.082476 
L 161.576062 113.081441 
L 161.689025 112.989337 
L 161.84155 112.879639 
L 161.951527 112.778221 
L 161.952647 112.778221 
L 162.06733 112.667489 
L 162.176292 112.560897 
L 162.178427 112.560897 
L 162.341444 112.451199 
L 162.454365 112.36013 
L 162.606123 112.250433 
L 162.71865 112.177991 
L 162.89108 112.067259 
L 163.002156 111.985503 
L 163.111221 111.875806 
L 163.221965 111.780597 
L 163.222297 111.780597 
L 163.341169 111.6709 
L 163.451768 111.563272 
L 163.452224 111.563272 
L 163.618579 111.453575 
L 163.728535 111.364575 
L 163.729613 111.364575 
L 163.922592 111.253843 
L 164.028028 111.211413 
L 164.033667 111.211413 
L 164.174042 111.101716 
L 164.285719 111.043763 
L 164.422216 110.934065 
L 164.422216 110.933031 
L 164.536526 110.853345 
L 164.711984 110.742613 
L 164.822707 110.660857 
L 164.82308 110.660857 
L 164.976123 110.550125 
L 165.091927 110.474579 
L 165.268794 110.364882 
L 165.378688 110.308998 
L 165.379808 110.308998 
L 165.584004 110.198266 
L 165.698293 110.11858 
L 165.918393 110.008883 
L 166.030402 109.915744 
L 166.203143 109.805012 
L 166.313825 109.717047 
L 166.314198 109.717047 
L 166.460544 109.607349 
L 166.564383 109.561815 
L 166.571599 109.561815 
L 166.766277 109.451083 
L 166.878991 109.371397 
L 167.040536 109.260665 
L 167.156132 109.189258 
L 167.295283 109.079561 
L 167.402253 109.009189 
L 167.406379 109.009189 
L 167.618433 108.899492 
L 167.730339 108.818771 
L 167.906003 108.709074 
L 168.015462 108.640772 
L 168.017038 108.640772 
L 168.169832 108.53004 
L 168.279726 108.442075 
L 168.280887 108.442075 
L 168.465302 108.332378 
L 168.465302 108.331343 
L 168.579343 108.259936 
L 168.743707 108.149204 
L 168.856525 108.057099 
L 169.015768 107.947402 
L 169.125952 107.887379 
L 169.126844 107.887379 
L 169.241279 107.804589 
L 169.430981 107.693857 
L 169.533784 107.632799 
L 169.542078 107.632799 
L 169.732111 107.522067 
L 169.848081 107.444451 
L 170.019205 107.334753 
L 170.132084 107.245754 
L 170.322035 107.135022 
L 170.434666 107.059475 
L 170.596128 106.949778 
L 170.707992 106.873197 
L 170.88432 106.762465 
L 170.996474 106.703477 
L 171.192583 106.592745 
L 171.306935 106.513059 
L 171.498338 106.403362 
L 171.608232 106.33299 
L 171.609393 106.33299 
L 171.768511 106.223292 
L 171.878944 106.144642 
L 171.879587 106.144642 
L 172.080154 106.033909 
L 172.183268 105.962503 
L 172.19123 105.962503 
L 172.394265 105.851771 
L 172.504055 105.782434 
L 172.505299 105.782434 
L 172.658695 105.672736 
L 172.769045 105.587876 
L 172.76975 105.587876 
L 172.947156 105.477144 
L 173.046351 105.411947 
L 173.058253 105.411947 
L 173.255316 105.302249 
L 173.255316 105.301215 
L 173.367657 105.240157 
L 173.530259 105.130459 
L 173.632066 105.055948 
L 173.641355 105.055948 
L 173.820089 104.946251 
L 173.820089 104.945216 
L 173.932927 104.859321 
L 174.066334 104.749624 
L 174.176643 104.666833 
L 174.177431 104.666833 
L 174.329541 104.557136 
L 174.442442 104.468136 
L 174.620035 104.357404 
L 174.734553 104.273579 
L 174.924338 104.164916 
L 175.029338 104.112138 
L 175.035414 104.112138 
L 175.262728 104.00244 
L 175.372871 103.932069 
L 175.373722 103.932069 
L 175.578975 103.821336 
L 175.689159 103.74993 
L 175.690071 103.74993 
L 175.887611 103.639198 
L 175.997319 103.57607 
L 175.998687 103.57607 
L 176.195004 103.465338 
L 176.307552 103.393931 
L 176.492754 103.284234 
L 176.605054 103.222141 
L 176.796891 103.111409 
L 176.910103 103.0607 
L 177.094352 102.951002 
L 177.198855 102.88477 
L 177.205449 102.88477 
L 177.417814 102.774038 
L 177.533161 102.706771 
L 177.707561 102.597074 
L 177.707561 102.596039 
L 177.819819 102.53912 
L 178.019992 102.429423 
L 178.131566 102.381819 
L 178.344449 102.271086 
L 178.450051 102.222447 
L 178.455504 102.222447 
L 178.710002 102.11275 
L 178.810379 102.063076 
L 178.821099 102.063076 
L 179.01078 101.953378 
L 179.10983 101.893355 
L 179.121836 101.893355 
L 179.307951 101.783658 
L 179.418259 101.711216 
L 179.419027 101.711216 
L 179.64178 101.601519 
L 179.742157 101.547705 
L 179.752877 101.547705 
L 179.99935 101.438008 
L 179.99935 101.436973 
L 180.114076 101.380055 
L 180.323434 101.269323 
L 180.439404 101.212404 
L 180.692969 101.101672 
L 180.805496 101.030265 
L 181.093502 100.919533 
L 181.206858 100.864685 
L 181.484227 100.754987 
L 181.591819 100.705313 
L 181.595324 100.705313 
L 181.808041 100.595616 
L 181.919656 100.542837 
L 182.033366 100.479709 
L 182.301632 100.368977 
L 182.409037 100.316198 
L 182.412666 100.316198 
L 182.715352 100.205466 
L 182.824603 100.165106 
L 182.826448 100.165106 
L 183.097928 100.055409 
L 183.097928 100.054374 
L 183.211015 100.024362 
L 183.564169 99.91363 
L 183.677049 99.8712 
L 183.936856 99.761503 
L 183.936856 99.760468 
L 184.048657 99.724247 
L 184.32926 99.61455 
L 184.440689 99.581434 
L 184.730084 99.470702 
L 184.827578 99.426202 
L 184.841139 99.426202 
L 185.15921 99.31547 
L 185.262054 99.27097 
L 185.270306 99.27097 
L 185.720665 99.161272 
L 185.832135 99.119877 
L 186.201835 99.009145 
L 186.313595 98.993622 
L 186.622439 98.88289 
L 186.734697 98.854948 
L 187.07118 98.744216 
L 187.171101 98.722483 
L 187.182235 98.722483 
L 187.492116 98.612786 
L 187.603959 98.575531 
L 188.097923 98.465833 
L 188.209621 98.436857 
L 188.48672 98.326124 
L 188.598563 98.289904 
L 188.975023 98.180206 
L 188.975023 98.179172 
L 189.086679 98.14916 
L 189.485014 98.039463 
L 189.594245 97.987719 
L 189.596111 97.987719 
L 190.065006 97.878022 
L 190.177015 97.832487 
L 190.571556 97.72279 
L 190.571556 97.721755 
L 190.685078 97.695883 
L 191.039912 97.585151 
L 191.150428 97.54686 
L 191.150988 97.54686 
L 191.583888 97.436128 
L 191.695503 97.410256 
L 192.184718 97.300559 
L 192.29005 97.279861 
L 192.295815 97.279861 
L 192.745655 97.170164 
L 192.858286 97.147396 
L 193.311443 97.036664 
L 193.423287 97.017001 
L 193.966433 96.907304 
L 193.966433 96.906269 
L 194.078089 96.876258 
L 194.513229 96.765526 
L 194.624595 96.752072 
L 195.089115 96.64134 
L 195.203778 96.611329 
L 196.055437 96.501631 
L 196.167135 96.472655 
L 196.712645 96.361923 
L 196.821502 96.333981 
L 196.823638 96.333981 
L 197.33112 96.224284 
L 197.431642 96.201516 
L 197.442176 96.201516 
L 198.149458 96.091819 
L 198.253484 96.077331 
L 198.260534 96.077331 
L 199.052062 95.967633 
L 199.162371 95.955215 
L 199.163076 95.955215 
L 199.981621 95.844483 
L 200.093443 95.82482 
L 200.941079 95.714088 
L 201.047324 95.696495 
L 201.052176 95.696495 
L 201.745462 95.586798 
L 201.845901 95.56817 
L 201.856559 95.56817 
L 202.9335 95.457438 
L 203.013889 95.441914 
L 203.044556 95.441914 
L 203.88396 95.332217 
L 203.963457 95.321868 
L 203.995056 95.321868 
L 204.998659 95.211136 
L 205.107599 95.197683 
L 205.109735 95.197683 
L 206.173468 95.086951 
L 206.284731 95.077637 
L 207.40281 94.967939 
L 207.478015 94.95966 
L 207.513865 94.95966 
L 208.726101 94.848928 
L 208.818702 94.841684 
L 208.837156 94.841684 
L 210.07842 94.730952 
L 210.185038 94.725778 
L 210.189351 94.725778 
L 211.550275 94.615045 
L 211.615548 94.607801 
L 211.661227 94.607801 
L 213.239472 94.498104 
L 213.332737 94.481546 
L 213.350444 94.481546 
L 214.951953 94.371849 
L 215.042813 94.353221 
L 215.06305 94.353221 
L 216.72469 94.243524 
L 216.798464 94.239384 
L 216.835787 94.239384 
L 217.708139 94.129687 
L 217.805592 94.111059 
L 217.819069 94.111059 
L 218.440842 94.001362 
L 218.549471 93.974455 
L 218.551918 93.974455 
L 219.122434 93.864758 
L 219.210536 93.833711 
L 219.23351 93.833711 
L 219.808609 93.724014 
L 219.91336 93.695037 
L 219.919705 93.695037 
L 220.356089 93.58534 
L 220.418873 93.568782 
L 220.467185 93.568782 
L 220.81698 93.459085 
L 220.81698 93.45805 
L 220.928927 93.434248 
L 221.308704 93.323515 
L 221.419075 93.287295 
L 221.41978 93.287295 
L 221.826803 93.177597 
L 221.934831 93.132063 
L 221.937879 93.132063 
L 222.367565 93.022365 
L 222.367565 93.02133 
L 222.479533 92.9789 
L 222.817053 92.869203 
L 222.928336 92.840227 
L 223.303407 92.729494 
L 223.41413 92.680855 
L 223.414462 92.680855 
L 223.745906 92.571158 
L 223.853416 92.529763 
L 223.856941 92.529763 
L 224.148969 92.420065 
L 224.258614 92.370391 
L 224.260024 92.370391 
L 224.627091 92.259659 
L 224.739162 92.21102 
L 225.082073 92.101322 
L 225.161923 92.059927 
L 225.19317 92.059927 
L 225.524014 91.949195 
L 225.625738 91.921253 
L 225.63511 91.921253 
L 225.992245 91.810521 
L 226.099444 91.768091 
L 226.103342 91.768091 
L 226.385542 91.658394 
L 226.496618 91.630452 
L 226.496638 91.630452 
L 226.84662 91.51972 
L 226.939429 91.494883 
L 226.957717 91.494883 
L 227.326443 91.385185 
L 227.411745 91.356209 
L 227.437539 91.356209 
L 227.792684 91.246512 
L 227.900878 91.207186 
L 227.903739 91.207186 
L 228.195394 91.097489 
L 228.303359 91.056094 
L 228.306449 91.056094 
L 228.684733 90.946396 
L 228.797572 90.890513 
L 229.209986 90.780816 
L 229.305241 90.733211 
L 229.321082 90.733211 
L 229.731133 90.623514 
L 229.824397 90.590398 
L 229.842188 90.590398 
L 230.182528 90.480701 
L 230.293541 90.433096 
L 230.293604 90.433096 
L 230.622394 90.323399 
L 230.73036 90.277864 
L 230.733491 90.277864 
L 231.053801 90.168167 
L 231.158636 90.13919 
L 231.164815 90.13919 
L 231.507602 90.029493 
L 231.507602 90.028458 
L 231.620378 89.988098 
L 231.93088 89.8784 
L 232.01073 89.847354 
L 232.041977 89.847354 
L 232.290587 89.736622 
L 232.402844 89.679704 
L 232.677124 89.570006 
L 232.784322 89.528611 
L 232.78822 89.528611 
L 233.049084 89.418914 
L 233.153857 89.36717 
L 233.160181 89.36717 
L 233.440162 89.256438 
L 233.55074 89.220217 
L 233.551258 89.220217 
L 233.826761 89.11052 
L 233.937422 89.069124 
L 233.937775 89.069124 
L 234.178069 88.959427 
L 234.27969 88.922171 
L 234.289166 88.922171 
L 234.625546 88.811439 
L 234.737575 88.7628 
L 234.998481 88.653103 
L 234.998481 88.652068 
L 235.110427 88.607568 
L 235.398454 88.496836 
L 235.507518 88.450266 
L 235.50955 88.450266 
L 235.769626 88.339534 
L 235.880515 88.282616 
L 235.880702 88.282616 
L 236.159315 88.172918 
L 236.268214 88.119105 
L 236.270411 88.119105 
L 236.528953 88.008373 
L 236.629496 87.959733 
L 236.640008 87.959733 
L 236.915635 87.849001 
L 237.01483 87.81278 
L 237.026669 87.81278 
L 237.230015 87.703083 
L 237.341796 87.633746 
L 237.593972 87.523014 
L 237.705794 87.485758 
L 237.950505 87.376061 
L 238.061602 87.302585 
L 238.314421 87.191852 
L 238.415482 87.158736 
L 238.425497 87.158736 
L 238.657166 87.049039 
L 238.768802 86.991086 
L 239.011543 86.881388 
L 239.121458 86.825505 
L 239.122619 86.825505 
L 239.347301 86.715808 
L 239.347301 86.714773 
L 239.46072 86.657854 
L 239.677418 86.548157 
L 239.677418 86.547122 
L 239.791356 86.477785 
L 240.025721 86.368088 
L 240.136776 86.318414 
L 240.444023 86.208717 
L 240.544898 86.148694 
L 240.55512 86.148694 
L 240.807544 86.038996 
L 240.916941 85.968624 
L 240.918641 85.968624 
L 241.101729 85.857892 
L 241.212494 85.805113 
L 241.212805 85.805113 
L 241.424112 85.694381 
L 241.53496 85.643672 
L 241.535209 85.643672 
L 241.807373 85.533975 
L 241.917433 85.465673 
L 241.91847 85.465673 
L 242.089055 85.354941 
L 242.196979 85.295953 
L 242.200151 85.295953 
L 242.396613 85.186255 
L 242.504434 85.134511 
L 242.50771 85.134511 
L 242.717711 85.024814 
L 242.828642 84.971 
L 242.828808 84.971 
L 243.052681 84.860268 
L 243.163404 84.770234 
L 243.163777 84.770234 
L 243.422754 84.659501 
L 243.531591 84.619141 
L 243.533851 84.619141 
L 243.719116 84.509444 
L 243.829632 84.439072 
L 243.830212 84.439072 
L 244.02742 84.32834 
L 244.136983 84.254863 
L 244.138496 84.254863 
L 244.325192 84.145166 
L 244.433842 84.076864 
L 244.436227 84.076864 
L 244.624892 83.967167 
L 244.735408 83.915423 
L 244.735926 83.915423 
L 244.924343 83.805726 
L 245.02528 83.731214 
L 245.03544 83.731214 
L 245.251724 83.621517 
L 245.363463 83.557354 
L 245.532658 83.446622 
L 245.643133 83.364867 
L 245.643631 83.364867 
L 245.80335 83.254135 
L 245.913493 83.180658 
L 245.914385 83.180658 
L 246.114475 83.069926 
L 246.226546 83.017147 
L 246.394622 82.90745 
L 246.50715 82.832939 
L 246.712755 82.723241 
L 246.817362 82.64873 
L 246.823852 82.64873 
L 247.018758 82.539033 
L 247.118617 82.481079 
L 247.129855 82.481079 
L 247.330028 82.371382 
L 247.435402 82.280313 
L 247.441042 82.280313 
L 247.625187 82.169581 
L 247.737507 82.104383 
L 247.932082 81.993651 
L 248.04096 81.907756 
L 248.043179 81.907756 
L 248.180857 81.797024 
L 248.281794 81.740105 
L 248.291912 81.740105 
L 248.503635 81.629373 
L 248.613653 81.553827 
L 248.614732 81.553827 
L 248.743847 81.44413 
L 248.852331 81.367549 
L 248.854943 81.367549 
L 249.047507 81.256817 
L 249.160097 81.179201 
L 249.315483 81.068468 
L 249.428839 81.01362 
L 249.592893 80.902888 
L 249.699759 80.8439 
L 249.703948 80.8439 
L 249.892219 80.733167 
L 250.008272 80.653482 
L 250.185927 80.54275 
L 250.295095 80.469273 
L 250.297023 80.469273 
L 250.489525 80.358541 
L 250.599854 80.280925 
L 250.600601 80.280925 
L 250.778401 80.170193 
L 250.891032 80.092577 
L 251.040633 79.98288 
L 251.149884 79.89595 
L 251.151688 79.89595 
L 251.351571 79.786252 
L 251.459226 79.713811 
L 251.462668 79.713811 
L 251.606152 79.603079 
L 251.71644 79.525463 
L 251.717249 79.525463 
L 251.902866 79.414731 
L 252.010231 79.343324 
L 252.013963 79.343324 
L 252.204059 79.233627 
L 252.307173 79.157045 
L 252.315156 79.157045 
L 252.4654 79.047348 
L 252.576248 78.974907 
L 252.576496 78.974907 
L 252.706628 78.864174 
L 252.82013 78.805186 
L 253.000003 78.694454 
L 253.106932 78.631326 
L 253.111079 78.631326 
L 253.267585 78.521629 
L 253.381025 78.405723 
L 253.562143 78.294991 
L 253.676661 78.211165 
L 253.822944 78.101468 
L 253.930267 78.020747 
L 253.934041 78.020747 
L 254.155861 77.910015 
L 254.268741 77.82205 
L 254.414402 77.711318 
L 254.514696 77.639912 
L 254.525499 77.639912 
L 254.73096 77.529179 
L 254.840895 77.449494 
L 254.842015 77.449494 
L 255.003829 77.338762 
L 255.109472 77.257006 
L 255.114863 77.257006 
L 255.296271 77.146274 
L 255.40687 77.045891 
L 255.407347 77.045891 
L 255.558794 76.935158 
L 255.664126 76.888589 
L 255.669828 76.888589 
L 255.844104 76.777857 
L 255.956859 76.696101 
L 256.155374 76.585369 
L 256.26759 76.528451 
L 256.474917 76.418753 
L 256.586843 76.333893 
L 256.739575 76.223161 
L 256.853865 76.145545 
L 257.028555 76.034813 
L 257.142741 75.959267 
L 257.297982 75.848535 
L 257.410032 75.801965 
L 257.592933 75.691233 
L 257.703387 75.619826 
L 257.70403 75.619826 
L 257.866984 75.510129 
L 257.866984 75.509094 
L 257.979885 75.41699 
L 258.15443 75.306258 
L 258.268886 75.224502 
L 258.474222 75.11377 
L 258.586521 75.054782 
L 258.768655 74.94405 
L 258.88083 74.887131 
L 259.046998 74.776399 
L 259.15795 74.709132 
L 259.158033 74.709132 
L 259.323952 74.5984 
L 259.43368 74.508365 
L 259.435007 74.508365 
L 259.58183 74.397633 
L 259.692699 74.342784 
L 259.692844 74.342784 
L 259.868757 74.232052 
L 259.977552 74.162715 
L 259.979833 74.162715 
L 260.171256 74.051983 
L 260.283742 73.978507 
L 260.504152 73.867775 
L 260.61075 73.808786 
L 260.615249 73.808786 
L 260.783677 73.699089 
L 260.877751 73.645275 
L 260.894774 73.645275 
L 261.06625 73.534543 
L 261.167809 73.469346 
L 261.177305 73.469346 
L 261.354753 73.359649 
L 261.456851 73.283068 
L 261.465746 73.283068 
L 261.632226 73.172335 
L 261.741829 73.09058 
L 261.743301 73.09058 
L 261.892778 72.979848 
L 262.001138 72.908441 
L 262.003875 72.908441 
L 262.237597 72.798744 
L 262.33928 72.740791 
L 262.348673 72.740791 
L 262.490457 72.630058 
L 262.592617 72.577279 
L 262.601554 72.577279 
L 262.819372 72.467582 
L 262.930241 72.391001 
L 262.930406 72.391001 
L 263.112934 72.280269 
L 263.227452 72.196444 
L 263.391194 72.085712 
L 263.494827 72.035002 
L 263.50225 72.035002 
L 263.706031 71.92427 
L 263.816132 71.873561 
L 263.817127 71.873561 
L 264.068495 71.762829 
L 264.168664 71.71212 
L 264.179571 71.71212 
L 264.355318 71.601388 
L 264.465751 71.552748 
L 264.466332 71.552748 
L 264.685374 71.443051 
L 264.797528 71.391307 
L 264.979703 71.28161 
L 265.092044 71.217447 
L 265.266506 71.106715 
L 265.378743 71.049797 
L 265.618934 70.9401 
L 265.72887 70.886286 
L 265.73001 70.886286 
L 265.966386 70.776589 
L 265.966386 70.775554 
L 266.078292 70.735193 
L 266.314543 70.624461 
L 266.428667 70.550985 
L 266.698281 70.441288 
L 266.80295 70.397823 
L 266.809357 70.397823 
L 267.013221 70.28709 
L 267.125686 70.219823 
L 267.357749 70.110126 
L 267.469406 70.054242 
L 267.697177 69.94351 
L 267.802426 69.884522 
L 267.808211 69.884522 
L 268.07318 69.77379 
L 268.180275 69.737569 
L 268.184236 69.737569 
L 268.409394 69.627872 
L 268.520988 69.576128 
L 268.735406 69.466431 
L 268.843932 69.433315 
L 268.846441 69.433315 
L 269.090841 69.322582 
L 269.204115 69.269804 
L 269.411151 69.160106 
L 269.512627 69.120781 
L 269.522123 69.120781 
L 269.747261 69.010049 
L 269.85925 68.961409 
L 270.140848 68.850677 
L 270.251654 68.802038 
L 270.251945 68.802038 
L 270.525809 68.691306 
L 270.613724 68.646806 
L 270.636906 68.646806 
L 270.901605 68.537109 
L 271.006212 68.503992 
L 271.012702 68.503992 
L 271.36739 68.39326 
L 271.476123 68.344621 
L 271.478466 68.344621 
L 271.758344 68.234924 
L 271.758344 68.233889 
L 271.870228 68.195598 
L 272.172541 68.084866 
L 272.284674 68.034157 
L 272.5614 67.923425 
L 272.673658 67.866507 
L 273.009042 67.755774 
L 273.121922 67.709205 
L 273.372688 67.598473 
L 273.484904 67.543624 
L 273.813218 67.432892 
L 273.921993 67.388392 
L 273.924315 67.388392 
L 274.297727 67.278695 
L 274.409777 67.23109 
L 274.80637 67.121393 
L 274.80637 67.120358 
L 274.920515 67.071719 
L 275.210387 66.962022 
L 275.210387 66.960987 
L 275.322873 66.924766 
L 275.581393 66.814034 
L 275.693858 66.781952 
L 276.035111 66.67122 
L 276.146767 66.643279 
L 276.424468 66.532546 
L 276.532081 66.490116 
L 276.535564 66.490116 
L 276.8154 66.379384 
L 276.921355 66.345233 
L 276.926393 66.345233 
L 277.217903 66.235536 
L 277.325931 66.20242 
L 277.328937 66.20242 
L 277.669422 66.091688 
L 277.782717 66.038909 
L 278.067405 65.929211 
L 278.176905 65.891956 
L 278.178502 65.891956 
L 278.577542 65.782259 
L 278.577542 65.781224 
L 278.689924 65.751212 
L 279.004242 65.641515 
L 279.112892 65.608399 
L 279.115297 65.608399 
L 279.464677 65.497667 
L 279.574364 65.442818 
L 279.575753 65.442818 
L 279.941389 65.332086 
L 280.053709 65.303109 
L 280.423949 65.192377 
L 280.535771 65.157191 
L 281.019285 65.046459 
L 281.12584 65.006099 
L 281.130381 65.006099 
L 281.634111 64.895367 
L 281.745664 64.867425 
L 282.311556 64.756693 
L 282.413571 64.724611 
L 282.422549 64.724611 
L 282.867081 64.613879 
L 282.979712 64.577658 
L 283.436457 64.466926 
L 283.547326 64.432775 
L 283.547512 64.432775 
L 284.008404 64.323078 
L 284.11158 64.30445 
L 284.11948 64.30445 
L 284.601583 64.194753 
L 284.71127 64.155427 
L 284.71268 64.155427 
L 285.256925 64.044695 
L 285.3595 64.016754 
L 285.368001 64.016754 
L 285.94905 63.906021 
L 286.060562 63.886359 
L 286.533148 63.775627 
L 286.64412 63.743545 
L 286.644203 63.743545 
L 287.110237 63.633848 
L 287.213102 63.611081 
L 287.221313 63.611081 
L 287.821459 63.500349 
L 287.933945 63.480686 
L 288.49596 63.369954 
L 288.607057 63.345117 
L 288.966618 63.234384 
L 289.079539 63.205408 
L 289.58669 63.094676 
L 289.69111 63.068804 
L 289.697787 63.068804 
L 290.224428 62.958071 
L 290.333286 62.92599 
L 290.335525 62.92599 
L 290.988897 62.816293 
L 290.988897 62.815258 
L 291.100408 62.795595 
L 291.681334 62.685898 
L 291.792949 62.656921 
L 292.325417 62.546189 
L 292.416027 62.526527 
L 292.436493 62.526527 
L 292.948018 62.415794 
L 293.044393 62.381643 
L 293.059053 62.381643 
L 293.587436 62.271946 
L 293.696003 62.245039 
L 293.698533 62.245039 
L 294.203424 62.134307 
L 294.299819 62.114644 
L 294.314437 62.114644 
L 295.006812 62.003912 
L 295.122926 61.975971 
L 295.817581 61.865238 
L 295.910991 61.847645 
L 295.928678 61.847645 
L 296.492953 61.737948 
L 296.598182 61.715181 
L 296.604029 61.715181 
L 297.363812 61.604449 
L 297.448223 61.590995 
L 297.474639 61.590995 
L 298.150674 61.480263 
L 298.262683 61.458531 
L 298.763883 61.347798 
L 298.871144 61.321926 
L 298.87498 61.321926 
L 299.69338 61.211194 
L 299.803958 61.199811 
L 299.804414 61.199811 
L 300.400683 61.089079 
L 300.512837 61.079765 
L 301.227107 60.970067 
L 301.299368 60.95144 
L 301.338183 60.95144 
L 301.949879 60.841742 
L 302.042687 60.827254 
L 302.060934 60.827254 
L 303.059063 60.716522 
L 303.170636 60.69272 
L 303.895128 60.583022 
L 303.99507 60.574743 
L 304.006184 60.574743 
L 304.780958 60.464011 
L 304.887389 60.446418 
L 304.892013 60.446418 
L 305.787588 60.336721 
L 305.898975 60.320163 
L 306.5149 60.210466 
L 306.626204 60.187698 
L 307.445807 60.076966 
L 307.560801 60.061443 
L 308.532244 59.951746 
L 308.623767 59.939327 
L 308.643341 59.939327 
L 309.651091 59.82963 
L 309.755117 59.806862 
L 309.762187 59.806862 
L 309.874611 59.794444 
L 310.752644 59.683712 
L 310.864425 59.668189 
L 311.652179 59.557456 
L 311.763504 59.544003 
L 312.509498 59.434306 
L 312.621258 59.413608 
L 313.416207 59.303911 
L 313.416207 59.302876 
L 313.529191 59.283213 
L 314.470838 59.173516 
L 314.582121 59.154888 
L 315.510146 59.045191 
L 315.510146 59.044156 
L 315.622321 59.034842 
L 316.582049 58.925145 
L 316.693332 58.912726 
L 317.639105 58.803029 
L 317.733303 58.786471 
L 317.750161 58.786471 
L 318.445272 58.676774 
L 318.556638 58.664355 
L 319.427061 58.554658 
L 319.538324 58.5381 
L 320.500374 58.427368 
L 320.590902 58.418054 
L 320.611471 58.418054 
L 321.801168 58.308356 
L 321.801168 58.307322 
L 321.912762 58.302147 
L 322.875434 58.191415 
L 322.986925 58.171752 
L 324.262464 58.06102 
L 324.336694 58.053776 
L 324.37354 58.053776 
L 325.523529 57.943044 
L 325.635373 57.93373 
L 326.89789 57.824033 
L 327.007535 57.809544 
L 327.008945 57.809544 
L 328.108902 57.699847 
L 328.220434 57.689498 
L 329.408845 57.578766 
L 329.52044 57.567382 
L 330.586537 57.45665 
L 330.698483 57.449406 
L 331.8989 57.339709 
L 331.97311 57.32936 
L 332.009997 57.32936 
L 333.405735 57.219663 
L 333.51706 57.213454 
L 335.161987 57.103756 
L 335.273209 57.089268 
L 336.762999 56.979571 
L 336.867647 56.967152 
L 336.873951 56.967152 
L 338.16504 56.85642 
L 338.276344 56.845036 
L 339.560032 56.735339 
L 339.671543 56.72913 
L 341.428065 56.618398 
L 341.443285 56.615293 
L 341.539162 56.615293 
L 341.650674 56.607014 
L 343.120497 56.497317 
L 343.231946 56.493177 
L 344.667183 56.38348 
L 344.778239 56.375201 
L 346.155585 56.265504 
L 346.229587 56.259294 
L 346.266681 56.259294 
L 347.929255 56.149597 
L 348.040704 56.133039 
L 349.361921 56.022307 
L 349.473868 56.019202 
L 351.650248 55.909505 
L 351.650248 55.90847 
L 351.761614 55.903296 
L 353.915974 55.793598 
L 354.017221 55.785319 
L 354.02707 55.785319 
L 356.432009 55.675622 
L 356.432009 55.674587 
L 356.544039 55.669413 
L 358.515228 55.559716 
L 358.578448 55.555576 
L 358.626304 55.555576 
L 360.775542 55.445879 
L 360.88695 55.443809 
L 363.174696 55.334112 
L 363.259024 55.325833 
L 363.285792 55.325833 
L 366.409936 55.216136 
L 366.480455 55.209926 
L 366.520971 55.209926 
L 369.898472 55.099194 
L 370.00735 55.096089 
L 370.009507 55.096089 
L 373.150529 54.986392 
L 373.261729 54.976043 
L 376.457097 54.865311 
L 376.569334 54.862207 
L 380.059321 54.752509 
L 380.16511 54.7463 
L 380.170418 54.7463 
L 383.02443 54.635568 
L 383.02443 54.634533 
L 383.135526 54.634533 
L 388.073835 54.524836 
L 388.073835 54.523801 
L 388.184952 54.520696 
L 393.165788 54.410999 
L 393.170681 54.406859 
L 393.276885 54.406859 
L 398.718342 54.297162 
L 398.718342 54.295092 
L 398.829356 54.295092 
L 407.800405 54.185395 
L 407.800405 54.183325 
L 407.911501 54.183325 
L 414.72 54.144 
L 414.72 54.144 
" clip-path="url(#pe557986340)" style="fill: none; stroke: #ff8c00; stroke-width: 1.5; stroke-linecap: square"/>
   </g>
   <g id="line2d_14">
    <path d="M 74.605714 307.584 
L 414.72 54.144 
" clip-path="url(#pe557986340)" style="fill: none; stroke-dasharray: 5.55,2.4; stroke-dashoffset: 0; stroke: #0000ff; stroke-width: 1.5"/>
   </g>
   <g id="patch_3">
    <path d="M 57.6 307.584 
L 57.6 41.472 
" style="fill: none; stroke: #000000; stroke-width: 0.8; stroke-linejoin: miter; stroke-linecap: square"/>
   </g>
   <g id="patch_4">
    <path d="M 414.72 307.584 
L 414.72 41.472 
" style="fill: none; stroke: #000000; stroke-width: 0.8; stroke-linejoin: miter; stroke-linecap: square"/>
   </g>
   <g id="patch_5">
    <path d="M 57.6 307.584 
L 414.72 307.584 
" style="fill: none; stroke: #000000; stroke-width: 0.8; stroke-linejoin: miter; stroke-linecap: square"/>
   </g>
   <g id="patch_6">
    <path d="M 57.6 41.472 
L 414.72 41.472 
" style="fill: none; stroke: #000000; stroke-width: 0.8; stroke-linejoin: miter; stroke-linecap: square"/>
   </g>
   <g id="text_15">
    <!-- ROC CURVE -->
    <g transform="translate(200.855625 35.472)scale(0.12 -0.12)">
     <defs>
      <path id="DejaVuSans-4f" d="M 2522 4238 
Q 1834 4238 1429 3725 
Q 1025 3213 1025 2328 
Q 1025 1447 1429 934 
Q 1834 422 2522 422 
Q 3209 422 3611 934 
Q 4013 1447 4013 2328 
Q 4013 3213 3611 3725 
Q 3209 4238 2522 4238 
z
M 2522 4750 
Q 3503 4750 4090 4092 
Q 4678 3434 4678 2328 
Q 4678 1225 4090 567 
Q 3503 -91 2522 -91 
Q 1538 -91 948 565 
Q 359 1222 359 2328 
Q 359 3434 948 4092 
Q 1538 4750 2522 4750 
z
" transform="scale(0.015625)"/>
      <path id="DejaVuSans-43" d="M 4122 4306 
L 4122 3641 
Q 3803 3938 3442 4084 
Q 3081 4231 2675 4231 
Q 1875 4231 1450 3742 
Q 1025 3253 1025 2328 
Q 1025 1406 1450 917 
Q 1875 428 2675 428 
Q 3081 428 3442 575 
Q 3803 722 4122 1019 
L 4122 359 
Q 3791 134 3420 21 
Q 3050 -91 2638 -91 
Q 1578 -91 968 557 
Q 359 1206 359 2328 
Q 359 3453 968 4101 
Q 1578 4750 2638 4750 
Q 3056 4750 3426 4639 
Q 3797 4528 4122 4306 
z
" transform="scale(0.015625)"/>
      <path id="DejaVuSans-55" d="M 556 4666 
L 1191 4666 
L 1191 1831 
Q 1191 1081 1462 751 
Q 1734 422 2344 422 
Q 2950 422 3222 751 
Q 3494 1081 3494 1831 
L 3494 4666 
L 4128 4666 
L 4128 1753 
Q 4128 841 3676 375 
Q 3225 -91 2344 -91 
Q 1459 -91 1007 375 
Q 556 841 556 1753 
L 556 4666 
z
" transform="scale(0.015625)"/>
      <path id="DejaVuSans-56" d="M 1831 0 
L 50 4666 
L 709 4666 
L 2188 738 
L 3669 4666 
L 4325 4666 
L 2547 0 
L 1831 0 
z
" transform="scale(0.015625)"/>
      <path id="DejaVuSans-45" d="M 628 4666 
L 3578 4666 
L 3578 4134 
L 1259 4134 
L 1259 2753 
L 3481 2753 
L 3481 2222 
L 1259 2222 
L 1259 531 
L 3634 531 
L 3634 0 
L 628 0 
L 628 4666 
z
" transform="scale(0.015625)"/>
     </defs>
     <use xlink:href="#DejaVuSans-52"/>
     <use xlink:href="#DejaVuSans-4f" x="69.482422"/>
     <use xlink:href="#DejaVuSans-43" x="148.193359"/>
     <use xlink:href="#DejaVuSans-20" x="218.017578"/>
     <use xlink:href="#DejaVuSans-43" x="249.804688"/>
     <use xlink:href="#DejaVuSans-55" x="319.628906"/>
     <use xlink:href="#DejaVuSans-52" x="392.822266"/>
     <use xlink:href="#DejaVuSans-56" x="456.804688"/>
     <use xlink:href="#DejaVuSans-45" x="525.212891"/>
    </g>
   </g>
   <g id="legend_1">
    <g id="patch_7">
     <path d="M 234.97 302.584 
L 407.72 302.584 
Q 409.72 302.584 409.72 300.584 
L 409.72 286.905875 
Q 409.72 284.905875 407.72 284.905875 
L 234.97 284.905875 
Q 232.97 284.905875 232.97 286.905875 
L 232.97 300.584 
Q 232.97 302.584 234.97 302.584 
z
" style="fill: #ffffff; opacity: 0.8; stroke: #cccccc; stroke-linejoin: miter"/>
    </g>
    <g id="line2d_15">
     <path d="M 236.97 293.004312 
L 246.97 293.004312 
L 256.97 293.004312 
" style="fill: none; stroke: #ff8c00; stroke-width: 1.5; stroke-linecap: square"/>
    </g>
    <g id="text_16">
     <!-- ROC curve (ROC AUC=0.81) -->
     <g transform="translate(264.97 296.504312)scale(0.1 -0.1)">
      <defs>
       <path id="DejaVuSans-63" d="M 3122 3366 
L 3122 2828 
Q 2878 2963 2633 3030 
Q 2388 3097 2138 3097 
Q 1578 3097 1268 2742 
Q 959 2388 959 1747 
Q 959 1106 1268 751 
Q 1578 397 2138 397 
Q 2388 397 2633 464 
Q 2878 531 3122 666 
L 3122 134 
Q 2881 22 2623 -34 
Q 2366 -91 2075 -91 
Q 1284 -91 818 406 
Q 353 903 353 1747 
Q 353 2603 823 3093 
Q 1294 3584 2113 3584 
Q 2378 3584 2631 3529 
Q 2884 3475 3122 3366 
z
" transform="scale(0.015625)"/>
       <path id="DejaVuSans-28" d="M 1984 4856 
Q 1566 4138 1362 3434 
Q 1159 2731 1159 2009 
Q 1159 1288 1364 580 
Q 1569 -128 1984 -844 
L 1484 -844 
Q 1016 -109 783 600 
Q 550 1309 550 2009 
Q 550 2706 781 3412 
Q 1013 4119 1484 4856 
L 1984 4856 
z
" transform="scale(0.015625)"/>
       <path id="DejaVuSans-41" d="M 2188 4044 
L 1331 1722 
L 3047 1722 
L 2188 4044 
z
M 1831 4666 
L 2547 4666 
L 4325 0 
L 3669 0 
L 3244 1197 
L 1141 1197 
L 716 0 
L 50 0 
L 1831 4666 
z
" transform="scale(0.015625)"/>
       <path id="DejaVuSans-3d" d="M 678 2906 
L 4684 2906 
L 4684 2381 
L 678 2381 
L 678 2906 
z
M 678 1631 
L 4684 1631 
L 4684 1100 
L 678 1100 
L 678 1631 
z
" transform="scale(0.015625)"/>
       <path id="DejaVuSans-29" d="M 513 4856 
L 1013 4856 
Q 1481 4119 1714 3412 
Q 1947 2706 1947 2009 
Q 1947 1309 1714 600 
Q 1481 -109 1013 -844 
L 513 -844 
Q 928 -128 1133 580 
Q 1338 1288 1338 2009 
Q 1338 2731 1133 3434 
Q 928 4138 513 4856 
z
" transform="scale(0.015625)"/>
      </defs>
      <use xlink:href="#DejaVuSans-52"/>
      <use xlink:href="#DejaVuSans-4f" x="69.482422"/>
      <use xlink:href="#DejaVuSans-43" x="148.193359"/>
      <use xlink:href="#DejaVuSans-20" x="218.017578"/>
      <use xlink:href="#DejaVuSans-63" x="249.804688"/>
      <use xlink:href="#DejaVuSans-75" x="304.785156"/>
      <use xlink:href="#DejaVuSans-72" x="368.164062"/>
      <use xlink:href="#DejaVuSans-76" x="409.277344"/>
      <use xlink:href="#DejaVuSans-65" x="468.457031"/>
      <use xlink:href="#DejaVuSans-20" x="529.980469"/>
      <use xlink:href="#DejaVuSans-28" x="561.767578"/>
      <use xlink:href="#DejaVuSans-52" x="600.78125"/>
      <use xlink:href="#DejaVuSans-4f" x="670.263672"/>
      <use xlink:href="#DejaVuSans-43" x="748.974609"/>
      <use xlink:href="#DejaVuSans-20" x="818.798828"/>
      <use xlink:href="#DejaVuSans-41" x="850.585938"/>
      <use xlink:href="#DejaVuSans-55" x="918.994141"/>
      <use xlink:href="#DejaVuSans-43" x="992.1875"/>
      <use xlink:href="#DejaVuSans-3d" x="1062.011719"/>
      <use xlink:href="#DejaVuSans-30" x="1145.800781"/>
      <use xlink:href="#DejaVuSans-2e" x="1209.423828"/>
      <use xlink:href="#DejaVuSans-38" x="1241.210938"/>
      <use xlink:href="#DejaVuSans-31" x="1304.833984"/>
      <use xlink:href="#DejaVuSans-29" x="1368.457031"/>
     </g>
    </g>
   </g>
  </g>
 </g>
 <defs>
  <clipPath id="pe557986340">
   <rect x="57.6" y="41.472" width="357.12" height="266.112"/>
  </clipPath>
 </defs>
</svg>
