<?xml version="1.0" encoding="utf-8" standalone="no"?>
<!DOCTYPE svg PUBLIC "-//W3C//DTD SVG 1.1//EN"
  "http://www.w3.org/Graphics/SVG/1.1/DTD/svg11.dtd">
<svg xmlns:xlink="http://www.w3.org/1999/xlink" width="460.8pt" height="345.6pt" viewBox="0 0 460.8 345.6" xmlns="http://www.w3.org/2000/svg" version="1.1">
 <metadata>
  <rdf:RDF xmlns:dc="http://purl.org/dc/elements/1.1/" xmlns:cc="http://creativecommons.org/ns#" xmlns:rdf="http://www.w3.org/1999/02/22-rdf-syntax-ns#">
   <cc:Work>
    <dc:type rdf:resource="http://purl.org/dc/dcmitype/StillImage"/>
    <dc:date>2022-05-22T19:49:40.205602</dc:date>
    <dc:format>image/svg+xml</dc:format>
    <dc:creator>
     <cc:Agent>
      <dc:title>Matplotlib v3.5.1, https://matplotlib.org/</dc:title>
     </cc:Agent>
    </dc:creator>
   </cc:Work>
  </rdf:RDF>
 </metadata>
 <defs>
  <style type="text/css">*{stroke-linejoin: round; stroke-linecap: butt}</style>
 </defs>
 <g id="figure_1">
  <g id="patch_1">
   <path d="M 0 345.6 
L 460.8 345.6 
L 460.8 0 
L 0 0 
z
" style="fill: #ffffff"/>
  </g>
  <g id="axes_1">
   <g id="patch_2">
    <path d="M 57.6 307.584 
L 414.72 307.584 
L 414.72 41.472 
L 57.6 41.472 
z
" style="fill: #ffffff"/>
   </g>
   <g id="matplotlib.axis_1">
    <g id="xtick_1">
     <g id="line2d_1">
      <defs>
       <path id="me46788ac32" d="M 0 0 
L 0 3.5 
" style="stroke: #000000; stroke-width: 0.8"/>
      </defs>
      <g>
       <use xlink:href="#me46788ac32" x="74.605714" y="307.584" style="stroke: #000000; stroke-width: 0.8"/>
      </g>
     </g>
     <g id="text_1">
      <!-- 0.0 -->
      <g transform="translate(66.654152 322.182437)scale(0.1 -0.1)">
       <defs>
        <path id="DejaVuSans-30" d="M 2034 4250 
Q 1547 4250 1301 3770 
Q 1056 3291 1056 2328 
Q 1056 1369 1301 889 
Q 1547 409 2034 409 
Q 2525 409 2770 889 
Q 3016 1369 3016 2328 
Q 3016 3291 2770 3770 
Q 2525 4250 2034 4250 
z
M 2034 4750 
Q 2819 4750 3233 4129 
Q 3647 3509 3647 2328 
Q 3647 1150 3233 529 
Q 2819 -91 2034 -91 
Q 1250 -91 836 529 
Q 422 1150 422 2328 
Q 422 3509 836 4129 
Q 1250 4750 2034 4750 
z
" transform="scale(0.015625)"/>
        <path id="DejaVuSans-2e" d="M 684 794 
L 1344 794 
L 1344 0 
L 684 0 
L 684 794 
z
" transform="scale(0.015625)"/>
       </defs>
       <use xlink:href="#DejaVuSans-30"/>
       <use xlink:href="#DejaVuSans-2e" x="63.623047"/>
       <use xlink:href="#DejaVuSans-30" x="95.410156"/>
      </g>
     </g>
    </g>
    <g id="xtick_2">
     <g id="line2d_2">
      <g>
       <use xlink:href="#me46788ac32" x="142.628571" y="307.584" style="stroke: #000000; stroke-width: 0.8"/>
      </g>
     </g>
     <g id="text_2">
      <!-- 0.2 -->
      <g transform="translate(134.677009 322.182437)scale(0.1 -0.1)">
       <defs>
        <path id="DejaVuSans-32" d="M 1228 531 
L 3431 531 
L 3431 0 
L 469 0 
L 469 531 
Q 828 903 1448 1529 
Q 2069 2156 2228 2338 
Q 2531 2678 2651 2914 
Q 2772 3150 2772 3378 
Q 2772 3750 2511 3984 
Q 2250 4219 1831 4219 
Q 1534 4219 1204 4116 
Q 875 4013 500 3803 
L 500 4441 
Q 881 4594 1212 4672 
Q 1544 4750 1819 4750 
Q 2544 4750 2975 4387 
Q 3406 4025 3406 3419 
Q 3406 3131 3298 2873 
Q 3191 2616 2906 2266 
Q 2828 2175 2409 1742 
Q 1991 1309 1228 531 
z
" transform="scale(0.015625)"/>
       </defs>
       <use xlink:href="#DejaVuSans-30"/>
       <use xlink:href="#DejaVuSans-2e" x="63.623047"/>
       <use xlink:href="#DejaVuSans-32" x="95.410156"/>
      </g>
     </g>
    </g>
    <g id="xtick_3">
     <g id="line2d_3">
      <g>
       <use xlink:href="#me46788ac32" x="210.651429" y="307.584" style="stroke: #000000; stroke-width: 0.8"/>
      </g>
     </g>
     <g id="text_3">
      <!-- 0.4 -->
      <g transform="translate(202.699866 322.182437)scale(0.1 -0.1)">
       <defs>
        <path id="DejaVuSans-34" d="M 2419 4116 
L 825 1625 
L 2419 1625 
L 2419 4116 
z
M 2253 4666 
L 3047 4666 
L 3047 1625 
L 3713 1625 
L 3713 1100 
L 3047 1100 
L 3047 0 
L 2419 0 
L 2419 1100 
L 313 1100 
L 313 1709 
L 2253 4666 
z
" transform="scale(0.015625)"/>
       </defs>
       <use xlink:href="#DejaVuSans-30"/>
       <use xlink:href="#DejaVuSans-2e" x="63.623047"/>
       <use xlink:href="#DejaVuSans-34" x="95.410156"/>
      </g>
     </g>
    </g>
    <g id="xtick_4">
     <g id="line2d_4">
      <g>
       <use xlink:href="#me46788ac32" x="278.674286" y="307.584" style="stroke: #000000; stroke-width: 0.8"/>
      </g>
     </g>
     <g id="text_4">
      <!-- 0.6 -->
      <g transform="translate(270.722723 322.182437)scale(0.1 -0.1)">
       <defs>
        <path id="DejaVuSans-36" d="M 2113 2584 
Q 1688 2584 1439 2293 
Q 1191 2003 1191 1497 
Q 1191 994 1439 701 
Q 1688 409 2113 409 
Q 2538 409 2786 701 
Q 3034 994 3034 1497 
Q 3034 2003 2786 2293 
Q 2538 2584 2113 2584 
z
M 3366 4563 
L 3366 3988 
Q 3128 4100 2886 4159 
Q 2644 4219 2406 4219 
Q 1781 4219 1451 3797 
Q 1122 3375 1075 2522 
Q 1259 2794 1537 2939 
Q 1816 3084 2150 3084 
Q 2853 3084 3261 2657 
Q 3669 2231 3669 1497 
Q 3669 778 3244 343 
Q 2819 -91 2113 -91 
Q 1303 -91 875 529 
Q 447 1150 447 2328 
Q 447 3434 972 4092 
Q 1497 4750 2381 4750 
Q 2619 4750 2861 4703 
Q 3103 4656 3366 4563 
z
" transform="scale(0.015625)"/>
       </defs>
       <use xlink:href="#DejaVuSans-30"/>
       <use xlink:href="#DejaVuSans-2e" x="63.623047"/>
       <use xlink:href="#DejaVuSans-36" x="95.410156"/>
      </g>
     </g>
    </g>
    <g id="xtick_5">
     <g id="line2d_5">
      <g>
       <use xlink:href="#me46788ac32" x="346.697143" y="307.584" style="stroke: #000000; stroke-width: 0.8"/>
      </g>
     </g>
     <g id="text_5">
      <!-- 0.8 -->
      <g transform="translate(338.74558 322.182437)scale(0.1 -0.1)">
       <defs>
        <path id="DejaVuSans-38" d="M 2034 2216 
Q 1584 2216 1326 1975 
Q 1069 1734 1069 1313 
Q 1069 891 1326 650 
Q 1584 409 2034 409 
Q 2484 409 2743 651 
Q 3003 894 3003 1313 
Q 3003 1734 2745 1975 
Q 2488 2216 2034 2216 
z
M 1403 2484 
Q 997 2584 770 2862 
Q 544 3141 544 3541 
Q 544 4100 942 4425 
Q 1341 4750 2034 4750 
Q 2731 4750 3128 4425 
Q 3525 4100 3525 3541 
Q 3525 3141 3298 2862 
Q 3072 2584 2669 2484 
Q 3125 2378 3379 2068 
Q 3634 1759 3634 1313 
Q 3634 634 3220 271 
Q 2806 -91 2034 -91 
Q 1263 -91 848 271 
Q 434 634 434 1313 
Q 434 1759 690 2068 
Q 947 2378 1403 2484 
z
M 1172 3481 
Q 1172 3119 1398 2916 
Q 1625 2713 2034 2713 
Q 2441 2713 2670 2916 
Q 2900 3119 2900 3481 
Q 2900 3844 2670 4047 
Q 2441 4250 2034 4250 
Q 1625 4250 1398 4047 
Q 1172 3844 1172 3481 
z
" transform="scale(0.015625)"/>
       </defs>
       <use xlink:href="#DejaVuSans-30"/>
       <use xlink:href="#DejaVuSans-2e" x="63.623047"/>
       <use xlink:href="#DejaVuSans-38" x="95.410156"/>
      </g>
     </g>
    </g>
    <g id="xtick_6">
     <g id="line2d_6">
      <g>
       <use xlink:href="#me46788ac32" x="414.72" y="307.584" style="stroke: #000000; stroke-width: 0.8"/>
      </g>
     </g>
     <g id="text_6">
      <!-- 1.0 -->
      <g transform="translate(406.768438 322.182437)scale(0.1 -0.1)">
       <defs>
        <path id="DejaVuSans-31" d="M 794 531 
L 1825 531 
L 1825 4091 
L 703 3866 
L 703 4441 
L 1819 4666 
L 2450 4666 
L 2450 531 
L 3481 531 
L 3481 0 
L 794 0 
L 794 531 
z
" transform="scale(0.015625)"/>
       </defs>
       <use xlink:href="#DejaVuSans-31"/>
       <use xlink:href="#DejaVuSans-2e" x="63.623047"/>
       <use xlink:href="#DejaVuSans-30" x="95.410156"/>
      </g>
     </g>
    </g>
    <g id="text_7">
     <!-- False Positive Rate -->
     <g transform="translate(189.693594 335.860562)scale(0.1 -0.1)">
      <defs>
       <path id="DejaVuSans-46" d="M 628 4666 
L 3309 4666 
L 3309 4134 
L 1259 4134 
L 1259 2759 
L 3109 2759 
L 3109 2228 
L 1259 2228 
L 1259 0 
L 628 0 
L 628 4666 
z
" transform="scale(0.015625)"/>
       <path id="DejaVuSans-61" d="M 2194 1759 
Q 1497 1759 1228 1600 
Q 959 1441 959 1056 
Q 959 750 1161 570 
Q 1363 391 1709 391 
Q 2188 391 2477 730 
Q 2766 1069 2766 1631 
L 2766 1759 
L 2194 1759 
z
M 3341 1997 
L 3341 0 
L 2766 0 
L 2766 531 
Q 2569 213 2275 61 
Q 1981 -91 1556 -91 
Q 1019 -91 701 211 
Q 384 513 384 1019 
Q 384 1609 779 1909 
Q 1175 2209 1959 2209 
L 2766 2209 
L 2766 2266 
Q 2766 2663 2505 2880 
Q 2244 3097 1772 3097 
Q 1472 3097 1187 3025 
Q 903 2953 641 2809 
L 641 3341 
Q 956 3463 1253 3523 
Q 1550 3584 1831 3584 
Q 2591 3584 2966 3190 
Q 3341 2797 3341 1997 
z
" transform="scale(0.015625)"/>
       <path id="DejaVuSans-6c" d="M 603 4863 
L 1178 4863 
L 1178 0 
L 603 0 
L 603 4863 
z
" transform="scale(0.015625)"/>
       <path id="DejaVuSans-73" d="M 2834 3397 
L 2834 2853 
Q 2591 2978 2328 3040 
Q 2066 3103 1784 3103 
Q 1356 3103 1142 2972 
Q 928 2841 928 2578 
Q 928 2378 1081 2264 
Q 1234 2150 1697 2047 
L 1894 2003 
Q 2506 1872 2764 1633 
Q 3022 1394 3022 966 
Q 3022 478 2636 193 
Q 2250 -91 1575 -91 
Q 1294 -91 989 -36 
Q 684 19 347 128 
L 347 722 
Q 666 556 975 473 
Q 1284 391 1588 391 
Q 1994 391 2212 530 
Q 2431 669 2431 922 
Q 2431 1156 2273 1281 
Q 2116 1406 1581 1522 
L 1381 1569 
Q 847 1681 609 1914 
Q 372 2147 372 2553 
Q 372 3047 722 3315 
Q 1072 3584 1716 3584 
Q 2034 3584 2315 3537 
Q 2597 3491 2834 3397 
z
" transform="scale(0.015625)"/>
       <path id="DejaVuSans-65" d="M 3597 1894 
L 3597 1613 
L 953 1613 
Q 991 1019 1311 708 
Q 1631 397 2203 397 
Q 2534 397 2845 478 
Q 3156 559 3463 722 
L 3463 178 
Q 3153 47 2828 -22 
Q 2503 -91 2169 -91 
Q 1331 -91 842 396 
Q 353 884 353 1716 
Q 353 2575 817 3079 
Q 1281 3584 2069 3584 
Q 2775 3584 3186 3129 
Q 3597 2675 3597 1894 
z
M 3022 2063 
Q 3016 2534 2758 2815 
Q 2500 3097 2075 3097 
Q 1594 3097 1305 2825 
Q 1016 2553 972 2059 
L 3022 2063 
z
" transform="scale(0.015625)"/>
       <path id="DejaVuSans-20" transform="scale(0.015625)"/>
       <path id="DejaVuSans-50" d="M 1259 4147 
L 1259 2394 
L 2053 2394 
Q 2494 2394 2734 2622 
Q 2975 2850 2975 3272 
Q 2975 3691 2734 3919 
Q 2494 4147 2053 4147 
L 1259 4147 
z
M 628 4666 
L 2053 4666 
Q 2838 4666 3239 4311 
Q 3641 3956 3641 3272 
Q 3641 2581 3239 2228 
Q 2838 1875 2053 1875 
L 1259 1875 
L 1259 0 
L 628 0 
L 628 4666 
z
" transform="scale(0.015625)"/>
       <path id="DejaVuSans-6f" d="M 1959 3097 
Q 1497 3097 1228 2736 
Q 959 2375 959 1747 
Q 959 1119 1226 758 
Q 1494 397 1959 397 
Q 2419 397 2687 759 
Q 2956 1122 2956 1747 
Q 2956 2369 2687 2733 
Q 2419 3097 1959 3097 
z
M 1959 3584 
Q 2709 3584 3137 3096 
Q 3566 2609 3566 1747 
Q 3566 888 3137 398 
Q 2709 -91 1959 -91 
Q 1206 -91 779 398 
Q 353 888 353 1747 
Q 353 2609 779 3096 
Q 1206 3584 1959 3584 
z
" transform="scale(0.015625)"/>
       <path id="DejaVuSans-69" d="M 603 3500 
L 1178 3500 
L 1178 0 
L 603 0 
L 603 3500 
z
M 603 4863 
L 1178 4863 
L 1178 4134 
L 603 4134 
L 603 4863 
z
" transform="scale(0.015625)"/>
       <path id="DejaVuSans-74" d="M 1172 4494 
L 1172 3500 
L 2356 3500 
L 2356 3053 
L 1172 3053 
L 1172 1153 
Q 1172 725 1289 603 
Q 1406 481 1766 481 
L 2356 481 
L 2356 0 
L 1766 0 
Q 1100 0 847 248 
Q 594 497 594 1153 
L 594 3053 
L 172 3053 
L 172 3500 
L 594 3500 
L 594 4494 
L 1172 4494 
z
" transform="scale(0.015625)"/>
       <path id="DejaVuSans-76" d="M 191 3500 
L 800 3500 
L 1894 563 
L 2988 3500 
L 3597 3500 
L 2284 0 
L 1503 0 
L 191 3500 
z
" transform="scale(0.015625)"/>
       <path id="DejaVuSans-52" d="M 2841 2188 
Q 3044 2119 3236 1894 
Q 3428 1669 3622 1275 
L 4263 0 
L 3584 0 
L 2988 1197 
Q 2756 1666 2539 1819 
Q 2322 1972 1947 1972 
L 1259 1972 
L 1259 0 
L 628 0 
L 628 4666 
L 2053 4666 
Q 2853 4666 3247 4331 
Q 3641 3997 3641 3322 
Q 3641 2881 3436 2590 
Q 3231 2300 2841 2188 
z
M 1259 4147 
L 1259 2491 
L 2053 2491 
Q 2509 2491 2742 2702 
Q 2975 2913 2975 3322 
Q 2975 3731 2742 3939 
Q 2509 4147 2053 4147 
L 1259 4147 
z
" transform="scale(0.015625)"/>
      </defs>
      <use xlink:href="#DejaVuSans-46"/>
      <use xlink:href="#DejaVuSans-61" x="48.394531"/>
      <use xlink:href="#DejaVuSans-6c" x="109.673828"/>
      <use xlink:href="#DejaVuSans-73" x="137.457031"/>
      <use xlink:href="#DejaVuSans-65" x="189.556641"/>
      <use xlink:href="#DejaVuSans-20" x="251.080078"/>
      <use xlink:href="#DejaVuSans-50" x="282.867188"/>
      <use xlink:href="#DejaVuSans-6f" x="339.544922"/>
      <use xlink:href="#DejaVuSans-73" x="400.726562"/>
      <use xlink:href="#DejaVuSans-69" x="452.826172"/>
      <use xlink:href="#DejaVuSans-74" x="480.609375"/>
      <use xlink:href="#DejaVuSans-69" x="519.818359"/>
      <use xlink:href="#DejaVuSans-76" x="547.601562"/>
      <use xlink:href="#DejaVuSans-65" x="606.78125"/>
      <use xlink:href="#DejaVuSans-20" x="668.304688"/>
      <use xlink:href="#DejaVuSans-52" x="700.091797"/>
      <use xlink:href="#DejaVuSans-61" x="767.324219"/>
      <use xlink:href="#DejaVuSans-74" x="828.603516"/>
      <use xlink:href="#DejaVuSans-65" x="867.8125"/>
     </g>
    </g>
   </g>
   <g id="matplotlib.axis_2">
    <g id="ytick_1">
     <g id="line2d_7">
      <defs>
       <path id="m5a8adf59e7" d="M 0 0 
L -3.5 0 
" style="stroke: #000000; stroke-width: 0.8"/>
      </defs>
      <g>
       <use xlink:href="#m5a8adf59e7" x="57.6" y="307.584" style="stroke: #000000; stroke-width: 0.8"/>
      </g>
     </g>
     <g id="text_8">
      <!-- 0.0 -->
      <g transform="translate(34.696875 311.383219)scale(0.1 -0.1)">
       <use xlink:href="#DejaVuSans-30"/>
       <use xlink:href="#DejaVuSans-2e" x="63.623047"/>
       <use xlink:href="#DejaVuSans-30" x="95.410156"/>
      </g>
     </g>
    </g>
    <g id="ytick_2">
     <g id="line2d_8">
      <g>
       <use xlink:href="#m5a8adf59e7" x="57.6" y="256.896" style="stroke: #000000; stroke-width: 0.8"/>
      </g>
     </g>
     <g id="text_9">
      <!-- 0.2 -->
      <g transform="translate(34.696875 260.695219)scale(0.1 -0.1)">
       <use xlink:href="#DejaVuSans-30"/>
       <use xlink:href="#DejaVuSans-2e" x="63.623047"/>
       <use xlink:href="#DejaVuSans-32" x="95.410156"/>
      </g>
     </g>
    </g>
    <g id="ytick_3">
     <g id="line2d_9">
      <g>
       <use xlink:href="#m5a8adf59e7" x="57.6" y="206.208" style="stroke: #000000; stroke-width: 0.8"/>
      </g>
     </g>
     <g id="text_10">
      <!-- 0.4 -->
      <g transform="translate(34.696875 210.007219)scale(0.1 -0.1)">
       <use xlink:href="#DejaVuSans-30"/>
       <use xlink:href="#DejaVuSans-2e" x="63.623047"/>
       <use xlink:href="#DejaVuSans-34" x="95.410156"/>
      </g>
     </g>
    </g>
    <g id="ytick_4">
     <g id="line2d_10">
      <g>
       <use xlink:href="#m5a8adf59e7" x="57.6" y="155.52" style="stroke: #000000; stroke-width: 0.8"/>
      </g>
     </g>
     <g id="text_11">
      <!-- 0.6 -->
      <g transform="translate(34.696875 159.319219)scale(0.1 -0.1)">
       <use xlink:href="#DejaVuSans-30"/>
       <use xlink:href="#DejaVuSans-2e" x="63.623047"/>
       <use xlink:href="#DejaVuSans-36" x="95.410156"/>
      </g>
     </g>
    </g>
    <g id="ytick_5">
     <g id="line2d_11">
      <g>
       <use xlink:href="#m5a8adf59e7" x="57.6" y="104.832" style="stroke: #000000; stroke-width: 0.8"/>
      </g>
     </g>
     <g id="text_12">
      <!-- 0.8 -->
      <g transform="translate(34.696875 108.631219)scale(0.1 -0.1)">
       <use xlink:href="#DejaVuSans-30"/>
       <use xlink:href="#DejaVuSans-2e" x="63.623047"/>
       <use xlink:href="#DejaVuSans-38" x="95.410156"/>
      </g>
     </g>
    </g>
    <g id="ytick_6">
     <g id="line2d_12">
      <g>
       <use xlink:href="#m5a8adf59e7" x="57.6" y="54.144" style="stroke: #000000; stroke-width: 0.8"/>
      </g>
     </g>
     <g id="text_13">
      <!-- 1.0 -->
      <g transform="translate(34.696875 57.943219)scale(0.1 -0.1)">
       <use xlink:href="#DejaVuSans-31"/>
       <use xlink:href="#DejaVuSans-2e" x="63.623047"/>
       <use xlink:href="#DejaVuSans-30" x="95.410156"/>
      </g>
     </g>
    </g>
    <g id="text_14">
     <!-- True Positive Rate -->
     <g transform="translate(28.617187 219.057687)rotate(-90)scale(0.1 -0.1)">
      <defs>
       <path id="DejaVuSans-54" d="M -19 4666 
L 3928 4666 
L 3928 4134 
L 2272 4134 
L 2272 0 
L 1638 0 
L 1638 4134 
L -19 4134 
L -19 4666 
z
" transform="scale(0.015625)"/>
       <path id="DejaVuSans-72" d="M 2631 2963 
Q 2534 3019 2420 3045 
Q 2306 3072 2169 3072 
Q 1681 3072 1420 2755 
Q 1159 2438 1159 1844 
L 1159 0 
L 581 0 
L 581 3500 
L 1159 3500 
L 1159 2956 
Q 1341 3275 1631 3429 
Q 1922 3584 2338 3584 
Q 2397 3584 2469 3576 
Q 2541 3569 2628 3553 
L 2631 2963 
z
" transform="scale(0.015625)"/>
       <path id="DejaVuSans-75" d="M 544 1381 
L 544 3500 
L 1119 3500 
L 1119 1403 
Q 1119 906 1312 657 
Q 1506 409 1894 409 
Q 2359 409 2629 706 
Q 2900 1003 2900 1516 
L 2900 3500 
L 3475 3500 
L 3475 0 
L 2900 0 
L 2900 538 
Q 2691 219 2414 64 
Q 2138 -91 1772 -91 
Q 1169 -91 856 284 
Q 544 659 544 1381 
z
M 1991 3584 
L 1991 3584 
z
" transform="scale(0.015625)"/>
      </defs>
      <use xlink:href="#DejaVuSans-54"/>
      <use xlink:href="#DejaVuSans-72" x="46.333984"/>
      <use xlink:href="#DejaVuSans-75" x="87.447266"/>
      <use xlink:href="#DejaVuSans-65" x="150.826172"/>
      <use xlink:href="#DejaVuSans-20" x="212.349609"/>
      <use xlink:href="#DejaVuSans-50" x="244.136719"/>
      <use xlink:href="#DejaVuSans-6f" x="300.814453"/>
      <use xlink:href="#DejaVuSans-73" x="361.996094"/>
      <use xlink:href="#DejaVuSans-69" x="414.095703"/>
      <use xlink:href="#DejaVuSans-74" x="441.878906"/>
      <use xlink:href="#DejaVuSans-69" x="481.087891"/>
      <use xlink:href="#DejaVuSans-76" x="508.871094"/>
      <use xlink:href="#DejaVuSans-65" x="568.050781"/>
      <use xlink:href="#DejaVuSans-20" x="629.574219"/>
      <use xlink:href="#DejaVuSans-52" x="661.361328"/>
      <use xlink:href="#DejaVuSans-61" x="728.59375"/>
      <use xlink:href="#DejaVuSans-74" x="789.873047"/>
      <use xlink:href="#DejaVuSans-65" x="829.082031"/>
     </g>
    </g>
   </g>
   <g id="line2d_13">
    <path d="M 74.605714 307.584 
L 74.626988 307.474303 
L 74.737919 307.004467 
L 74.738002 307.004467 
L 74.770929 306.89477 
L 74.881984 306.472539 
L 74.905041 306.362842 
L 75.016055 305.754332 
L 75.016138 305.754332 
L 75.04077 305.644635 
L 75.151411 305.060963 
L 75.151867 305.060963 
L 75.171648 304.951266 
L 75.282745 304.348966 
L 75.302235 304.239268 
L 75.413332 303.643178 
L 75.438048 303.53348 
L 75.549145 302.972575 
L 75.571746 302.862878 
L 75.68251 302.287485 
L 75.682801 302.287485 
L 75.706397 302.177788 
L 75.817286 301.612743 
L 75.817494 301.612743 
L 75.838436 301.503046 
L 75.948205 300.993885 
L 75.949532 300.993885 
L 75.972714 300.884188 
L 76.083811 300.273609 
L 76.108568 300.163912 
L 76.219416 299.615425 
L 76.219664 299.615425 
L 76.240814 299.505728 
L 76.357675 298.922056 
L 76.38011 298.812359 
L 76.502528 298.247314 
L 76.524133 298.137617 
L 76.635189 297.620177 
L 76.662144 297.51048 
L 76.771416 297.063412 
L 76.773199 297.063412 
L 76.801357 296.953714 
L 76.91237 296.469391 
L 76.940279 296.358659 
L 77.05121 295.896067 
L 77.051376 295.896067 
L 77.07746 295.78637 
L 77.188101 295.314465 
L 77.188516 295.314465 
L 77.21178 295.204768 
L 77.322711 294.716304 
L 77.322856 294.716304 
L 77.355181 294.606607 
L 77.476583 294.093307 
L 77.504015 293.983609 
L 77.614946 293.439263 
L 77.637982 293.329565 
L 77.748644 292.909404 
L 77.748976 292.909404 
L 77.772862 292.799707 
L 77.88371 292.33815 
L 77.883876 292.33815 
L 77.913858 292.228453 
L 78.023835 291.833129 
L 78.024955 291.833129 
L 78.050998 291.727571 
L 78.161928 291.326038 
L 78.162053 291.326038 
L 78.183327 291.216341 
L 78.294382 290.858272 
L 78.331622 290.748575 
L 78.452671 290.251833 
L 78.487008 290.141101 
L 78.597814 289.777858 
L 78.598104 289.777858 
L 78.626179 289.66816 
L 78.740676 289.310092 
L 78.778123 289.200395 
L 78.888142 288.863024 
L 78.889096 288.863024 
L 78.91771 288.753327 
L 79.028806 288.324886 
L 79.065341 288.215189 
L 79.185022 287.782609 
L 79.216165 287.672912 
L 79.326889 287.300355 
L 79.326972 287.300355 
L 79.36247 287.190658 
L 79.472654 286.847078 
L 79.473566 286.847078 
L 79.504876 286.737381 
L 79.615889 286.335847 
L 79.615972 286.335847 
L 79.645913 286.22615 
L 79.756844 285.874291 
L 79.75701 285.874291 
L 79.793213 285.763559 
L 79.912396 285.360991 
L 79.944659 285.251293 
L 80.055549 284.868388 
L 80.055735 284.868388 
L 80.0886 284.758691 
L 80.2077 284.359227 
L 80.24241 284.24953 
L 80.352926 283.870764 
L 80.353424 283.870764 
L 80.388134 283.760031 
L 80.499106 283.402998 
L 80.499231 283.402998 
L 80.620321 282.902116 
L 80.661169 282.792419 
L 80.772017 282.473676 
L 80.772266 282.473676 
L 80.797811 282.363979 
L 80.917077 281.956236 
L 80.947101 281.846539 
L 81.057949 281.509168 
L 81.058156 281.509168 
L 81.08847 281.399471 
L 81.19853 280.983449 
L 81.199567 280.983449 
L 81.234526 280.875821 
L 81.234526 280.872717 
L 81.364367 280.405986 
L 81.396879 280.296289 
L 81.507664 279.969267 
L 81.507975 279.969267 
L 81.543142 279.859569 
L 81.651999 279.491152 
L 81.654155 279.491152 
L 81.687538 279.381455 
L 81.798096 278.99648 
L 81.798614 278.99648 
L 81.833635 278.886782 
L 81.944359 278.522505 
L 81.94469 278.522505 
L 81.979483 278.414877 
L 82.089751 278.052669 
L 82.090539 278.052669 
L 82.113264 277.942972 
L 82.224174 277.52902 
L 82.224298 277.52902 
L 82.260563 277.419323 
L 82.3711 277.059185 
L 82.371639 277.059185 
L 82.405748 276.949487 
L 82.515269 276.589349 
L 82.516803 276.589349 
L 82.543675 276.479652 
L 82.654399 276.115374 
L 82.654772 276.115374 
L 82.685169 276.005677 
L 82.796141 275.651748 
L 82.796266 275.651748 
L 82.830105 275.542051 
L 82.830105 275.541016 
L 82.987813 274.962518 
L 83.017671 274.851786 
L 83.128644 274.51959 
L 83.128747 274.51959 
L 83.272066 273.986626 
L 83.45702 273.254966 
L 83.496229 273.144234 
L 83.606496 272.760294 
L 83.607284 272.760294 
L 83.638138 272.650597 
L 83.749234 272.242854 
L 83.774862 272.134192 
L 83.774862 272.133157 
L 83.893092 271.773018 
L 83.916854 271.663321 
L 84.02766 271.32802 
L 84.027909 271.32802 
L 84.063448 271.218323 
L 84.173591 270.794022 
L 84.174545 270.794022 
L 84.208716 270.684325 
L 84.208716 270.68329 
L 84.340008 270.179304 
L 84.372728 270.069606 
L 84.4837 269.723956 
L 84.483824 269.723956 
L 84.516171 269.614259 
L 84.626065 269.206516 
L 84.627247 269.206516 
L 84.667576 269.096819 
L 84.776723 268.684937 
L 84.778672 268.684937 
L 84.816161 268.57524 
L 84.93099 268.198544 
L 84.958028 268.088846 
L 84.958028 268.087811 
L 85.084136 267.71422 
L 85.120215 267.604523 
L 85.230938 267.213338 
L 85.231312 267.213338 
L 85.260796 267.103641 
L 85.371852 266.729014 
L 85.371893 266.729014 
L 85.413114 266.619317 
L 85.52421 266.192946 
L 85.561077 266.083249 
L 85.672091 265.712762 
L 85.672153 265.712762 
L 85.699875 265.60203 
L 85.810682 265.207741 
L 85.810951 265.207741 
L 85.849248 265.098044 
L 85.960345 264.768952 
L 85.991323 264.660289 
L 86.10217 264.251512 
L 86.102378 264.251512 
L 86.132111 264.143884 
L 86.132111 264.14078 
L 86.243208 263.74856 
L 86.277586 263.638863 
L 86.277586 263.637828 
L 86.387771 263.282864 
L 86.388662 263.282864 
L 86.421444 263.173167 
L 86.532541 262.773703 
L 86.570402 262.664006 
L 86.570402 262.662971 
L 86.754734 261.937521 
L 86.782477 261.826788 
L 86.914848 261.297965 
L 86.944374 261.188268 
L 87.055139 260.886083 
L 87.055388 260.886083 
L 87.087734 260.776385 
L 87.21434 260.39141 
L 87.251663 260.280678 
L 87.361847 259.87811 
L 87.362759 259.87811 
L 87.395064 259.768412 
L 87.521297 259.391716 
L 87.551777 259.282019 
L 87.662376 258.93223 
L 87.662874 258.93223 
L 87.706956 258.822532 
L 87.817389 258.481022 
L 87.81797 258.481022 
L 87.85015 258.371325 
L 87.960998 257.986349 
L 87.961164 257.986349 
L 87.994795 257.878722 
L 88.105871 257.491677 
L 88.105892 257.491677 
L 88.145744 257.38198 
L 88.256509 257.003214 
L 88.256841 257.003214 
L 88.28815 256.892481 
L 88.398791 256.500262 
L 88.399206 256.500262 
L 88.43404 256.390565 
L 88.542649 256.007659 
L 88.545095 256.007659 
L 88.578851 255.897962 
L 88.68945 255.550242 
L 88.689824 255.550242 
L 88.723331 255.440545 
L 88.834013 255.121802 
L 88.834366 255.121802 
L 88.86976 255.012105 
L 88.86976 255.01107 
L 88.998439 254.573316 
L 89.035264 254.463618 
L 89.035264 254.462584 
L 89.174104 254.002062 
L 89.20842 253.892365 
L 89.343009 253.41839 
L 89.394556 253.308693 
L 89.504782 252.956833 
L 89.505653 252.956833 
L 89.543473 252.847136 
L 89.543473 252.846101 
L 89.662034 252.47251 
L 89.694753 252.362812 
L 89.694753 252.361778 
L 89.813356 251.986116 
L 89.840726 251.876419 
L 89.950164 251.551467 
L 89.951781 251.551467 
L 89.990223 251.440734 
L 90.11007 250.998841 
L 90.14308 250.889144 
L 90.251896 250.584889 
L 90.254052 250.584889 
L 90.279514 250.475192 
L 90.394385 250.098495 
L 90.426897 249.987763 
L 90.53704 249.62866 
L 90.537952 249.62866 
L 90.575109 249.518963 
L 90.694665 249.096732 
L 90.730909 248.987034 
L 90.849885 248.59378 
L 90.887415 248.483048 
L 90.997517 248.206735 
L 90.998512 248.206735 
L 91.033491 248.096003 
L 91.1517 247.738969 
L 91.184751 247.631342 
L 91.184751 247.629272 
L 91.295599 247.298111 
L 91.295807 247.298111 
L 91.333378 247.188413 
L 91.44265 246.87174 
L 91.444475 246.87174 
L 91.479185 246.762043 
L 91.602639 246.35223 
L 91.636831 246.242533 
L 91.763437 245.857558 
L 91.807021 245.746826 
L 91.944493 245.311141 
L 91.986646 245.200409 
L 92.096997 244.88891 
L 92.09766 244.88891 
L 92.134319 244.779213 
L 92.244918 244.450121 
L 92.245395 244.450121 
L 92.279255 244.340424 
L 92.390103 243.957518 
L 92.390352 243.957518 
L 92.42585 243.847821 
L 92.543706 243.506311 
L 92.597699 243.396614 
L 92.708713 243.042685 
L 92.708775 243.042685 
L 92.744625 242.932987 
L 92.863435 242.545942 
L 92.890722 242.436245 
L 93.000782 242.107153 
L 93.001798 242.107153 
L 93.031262 241.997456 
L 93.031262 241.996421 
L 93.158304 241.600062 
L 93.201329 241.490365 
L 93.311223 241.155064 
L 93.312425 241.155064 
L 93.3422 241.045367 
L 93.452011 240.728693 
L 93.453297 240.728693 
L 93.489189 240.618996 
L 93.603665 240.275416 
L 93.643476 240.165719 
L 93.754552 239.830418 
L 93.785177 239.72072 
L 93.895527 239.408187 
L 93.896274 239.408187 
L 93.93314 239.298489 
L 94.051162 238.9487 
L 94.088775 238.839003 
L 94.199665 238.530609 
L 94.199789 238.530609 
L 94.236697 238.420911 
L 94.346757 238.104238 
L 94.347793 238.104238 
L 94.378481 237.994541 
L 94.488209 237.717193 
L 94.489536 237.717193 
L 94.528766 237.607496 
L 94.639863 237.265985 
L 94.679425 237.156288 
L 94.790522 236.829266 
L 94.829213 236.719569 
L 94.943668 236.36978 
L 94.981654 236.260082 
L 95.09271 235.93927 
L 95.092751 235.93927 
L 95.131857 235.829572 
L 95.250563 235.448737 
L 95.287243 235.339039 
L 95.405452 234.98511 
L 95.441675 234.875413 
L 95.559117 234.55667 
L 95.600545 234.446973 
L 95.71131 234.146858 
L 95.711641 234.146858 
L 95.746517 234.03716 
L 95.863565 233.741185 
L 95.907958 233.631488 
L 96.034647 233.244442 
L 96.06633 233.134745 
L 96.176804 232.847049 
L 96.177426 232.847049 
L 96.217569 232.737351 
L 96.328355 232.447585 
L 96.328666 232.447585 
L 96.360804 232.336853 
L 96.47186 232.031563 
L 96.519923 231.921866 
L 96.629153 231.596914 
L 96.630978 231.596914 
L 96.667886 231.486182 
L 96.778941 231.131218 
L 96.810292 231.021521 
L 96.920393 230.67794 
L 96.921389 230.67794 
L 96.963294 230.568243 
L 97.077729 230.232942 
L 97.117042 230.123245 
L 97.227765 229.796223 
L 97.228118 229.796223 
L 97.268612 229.685491 
L 97.378299 229.415387 
L 97.379668 229.415387 
L 97.406457 229.30569 
L 97.517222 229.017993 
L 97.517512 229.017993 
L 97.561677 228.907261 
L 97.694421 228.550228 
L 97.726187 228.44053 
L 97.837034 228.117648 
L 97.837242 228.117648 
L 97.873071 228.01002 
L 97.873071 228.007951 
L 97.990181 227.707835 
L 98.036565 227.598138 
L 98.150523 227.310442 
L 98.184797 227.200744 
L 98.294443 226.882001 
L 98.295894 226.882001 
L 98.328696 226.772304 
L 98.439254 226.422515 
L 98.439752 226.422515 
L 98.473798 226.312817 
L 98.473798 226.311783 
L 98.592774 225.919563 
L 98.635861 225.809866 
L 98.746626 225.505611 
L 98.746916 225.505611 
L 98.787183 225.395914 
L 98.898114 225.075101 
L 98.934358 224.964369 
L 99.045455 224.623894 
L 99.080455 224.514196 
L 99.195035 224.166477 
L 99.234307 224.056779 
L 99.345403 223.764943 
L 99.384758 223.655246 
L 99.384758 223.654211 
L 99.525609 223.286829 
L 99.561833 223.177132 
L 99.672763 222.856319 
L 99.672846 222.856319 
L 99.810732 222.41339 
L 99.855229 222.303693 
L 99.962967 221.98081 
L 99.966326 221.98081 
L 100.008376 221.871113 
L 100.118187 221.558579 
L 100.119473 221.558579 
L 100.163098 221.448882 
L 100.273117 221.128069 
L 100.274195 221.128069 
L 100.319024 221.018372 
L 100.437709 220.639606 
L 100.487721 220.529909 
L 100.611922 220.202887 
L 100.657373 220.095259 
L 100.768283 219.805493 
L 100.768387 219.805493 
L 100.799406 219.695796 
L 100.910378 219.385332 
L 100.910461 219.385332 
L 100.956036 219.275635 
L 101.073229 218.96724 
L 101.114532 218.857543 
L 101.22368 218.534661 
L 101.225629 218.534661 
L 101.260961 218.424963 
L 101.260961 218.423928 
L 101.395529 218.035849 
L 101.427959 217.926151 
L 101.538537 217.648803 
L 101.539014 217.648803 
L 101.586206 217.539106 
L 101.694566 217.232782 
L 101.697303 217.232782 
L 101.73533 217.125154 
L 101.846054 216.839527 
L 101.846427 216.839527 
L 101.888104 216.72983 
L 101.998537 216.411087 
L 101.999076 216.411087 
L 102.041002 216.30139 
L 102.151518 215.990926 
L 102.152057 215.990926 
L 102.193858 215.881229 
L 102.193858 215.880194 
L 102.317769 215.562486 
L 102.371306 215.452788 
L 102.482237 215.18165 
L 102.482403 215.18165 
L 102.523416 215.071953 
L 102.523416 215.070918 
L 102.655289 214.728373 
L 102.69568 214.618675 
L 102.803625 214.341328 
L 102.806694 214.341328 
L 102.854964 214.23163 
L 102.854964 214.230595 
L 102.977382 213.950143 
L 103.017193 213.840446 
L 103.12829 213.538261 
L 103.176602 213.430633 
L 103.29056 213.138797 
L 103.348161 213.0291 
L 103.459133 212.720706 
L 103.459258 212.720706 
L 103.501059 212.609974 
L 103.611699 212.315033 
L 103.612155 212.315033 
L 103.659306 212.205336 
L 103.770403 211.884523 
L 103.830326 211.774826 
L 103.941423 211.509896 
L 103.989092 211.400199 
L 104.10303 211.116642 
L 104.149185 211.006945 
L 104.259204 210.692341 
L 104.26022 210.692341 
L 104.295075 210.582644 
L 104.405923 210.299087 
L 104.406171 210.299087 
L 104.442872 210.18939 
L 104.553305 209.92446 
L 104.553969 209.92446 
L 104.596931 209.816833 
L 104.707882 209.469113 
L 104.707986 209.469113 
L 104.749539 209.359416 
L 104.865736 209.104836 
L 104.916598 208.995138 
L 105.027467 208.690884 
L 105.027633 208.690884 
L 105.08175 208.581186 
L 105.192308 208.347304 
L 105.192723 208.347304 
L 105.249536 208.237606 
L 105.359928 208.001654 
L 105.36055 208.001654 
L 105.41164 207.891956 
L 105.535592 207.571144 
L 105.584982 207.461446 
L 105.701138 207.206866 
L 105.758822 207.097169 
L 105.874896 206.840519 
L 105.925986 206.730821 
L 106.033433 206.513497 
L 106.037083 206.513497 
L 106.082989 206.403799 
L 106.199187 206.149219 
L 106.256705 206.039522 
L 106.366599 205.762174 
L 106.367781 205.762174 
L 106.414247 205.654546 
L 106.414247 205.651442 
L 106.535919 205.389617 
L 106.577471 205.27992 
L 106.706939 204.977735 
L 106.763876 204.868038 
L 106.874102 204.584481 
L 106.87489 204.584481 
L 106.917231 204.474783 
L 107.033221 204.228482 
L 107.079729 204.11775 
L 107.19574 203.870413 
L 107.23555 203.760716 
L 107.352225 203.481299 
L 107.404497 203.371601 
L 107.515469 203.098393 
L 107.515594 203.098393 
L 107.568301 202.988696 
L 107.67917 202.707209 
L 107.679191 202.707209 
L 107.724973 202.597511 
L 107.835033 202.355349 
L 107.836028 202.355349 
L 107.886289 202.245652 
L 107.997324 201.976583 
L 107.997344 201.976583 
L 108.051711 201.866886 
L 108.162725 201.612306 
L 108.162766 201.612306 
L 108.213234 201.502608 
L 108.333102 201.212842 
L 108.382554 201.103145 
L 108.492117 200.842355 
L 108.493568 200.842355 
L 108.549801 200.732658 
L 108.660731 200.476008 
L 108.716301 200.36631 
L 108.827397 200.130358 
L 108.870111 200.02066 
L 108.97988 199.811615 
L 108.981207 199.811615 
L 109.012828 199.701918 
L 109.133006 199.401802 
L 109.186191 199.292105 
L 109.295505 199.016827 
L 109.297288 199.016827 
L 109.338923 198.90713 
L 109.338923 198.906095 
L 109.459309 198.673247 
L 109.514588 198.56355 
L 109.63091 198.29862 
L 109.679553 198.188923 
L 109.79546 197.946761 
L 109.841201 197.837064 
L 109.949789 197.557646 
L 109.952298 197.557646 
L 110.007245 197.446914 
L 110.117886 197.214066 
L 110.118342 197.214066 
L 110.158443 197.104369 
L 110.265558 196.882905 
L 110.269415 196.882905 
L 110.337923 196.773208 
L 110.446987 196.537255 
L 110.448978 196.537255 
L 110.500151 196.427558 
L 110.614524 196.183326 
L 110.673411 196.073629 
L 110.782848 195.827327 
L 110.784507 195.827327 
L 110.828506 195.71763 
L 110.939499 195.471329 
L 110.939562 195.471329 
L 110.982648 195.361632 
L 111.099053 195.094633 
L 111.147572 194.987005 
L 111.25672 194.709657 
L 111.258669 194.709657 
L 111.312849 194.59996 
L 111.426372 194.355728 
L 111.484553 194.246031 
L 111.484553 194.244996 
L 111.606349 193.979032 
L 111.668553 193.869335 
L 111.778074 193.618894 
L 111.779567 193.618894 
L 111.841647 193.509197 
L 111.841647 193.508162 
L 111.958093 193.240128 
L 112.005078 193.130431 
L 112.114309 192.896548 
L 112.116009 192.896548 
L 112.170707 192.78685 
L 112.290098 192.511572 
L 112.353048 192.401875 
L 112.462569 192.201109 
L 112.464104 192.201109 
L 112.510881 192.091411 
L 112.620195 191.867877 
L 112.621936 191.867877 
L 112.668921 191.75818 
L 112.785741 191.470483 
L 112.842264 191.360786 
L 112.958088 191.124833 
L 113.016394 191.015136 
L 113.125873 190.783323 
L 113.127491 190.783323 
L 113.182355 190.673626 
L 113.292664 190.46458 
L 113.29341 190.46458 
L 113.346532 190.354883 
L 113.457588 190.111686 
L 113.591658 189.829164 
L 113.643205 189.719467 
L 113.753763 189.493863 
L 113.754302 189.493863 
L 113.805682 189.384166 
L 113.916447 189.133725 
L 113.916738 189.133725 
L 113.96646 189.022993 
L 114.076851 188.812912 
L 114.077349 188.812912 
L 114.137853 188.70218 
L 114.248825 188.458983 
L 114.24895 188.458983 
L 114.311693 188.349286 
L 114.422541 188.109194 
L 114.422748 188.109194 
L 114.476036 187.999496 
L 114.58676 187.804939 
L 114.587133 187.804939 
L 114.702708 187.579335 
L 114.770864 187.469638 
L 114.888616 187.250243 
L 114.938379 187.140546 
L 115.04873 186.912873 
L 115.049435 186.912873 
L 115.106206 186.803175 
L 115.225763 186.523758 
L 115.285935 186.414061 
L 115.396244 186.217433 
L 115.396949 186.217433 
L 115.452601 186.107736 
L 115.572821 185.880063 
L 115.623185 185.770365 
L 115.735879 185.604784 
L 115.80223 185.495087 
L 115.912165 185.29639 
L 115.913285 185.29639 
L 115.982622 185.186693 
L 116.092101 184.975578 
L 116.093429 184.975578 
L 116.149412 184.86795 
L 116.149412 184.866915 
L 116.258021 184.621649 
L 116.260509 184.621649 
L 116.328934 184.511951 
L 116.438952 184.340161 
L 116.44003 184.340161 
L 116.497922 184.232534 
L 116.608562 184.035907 
L 116.608998 184.035907 
L 116.653971 183.926209 
L 116.764819 183.723373 
L 116.765068 183.723373 
L 116.839091 183.613676 
L 116.954169 183.414979 
L 117.032961 183.305282 
L 117.143477 183.104515 
L 117.143892 183.104515 
L 117.207838 182.994818 
L 117.323102 182.787842 
L 117.379231 182.678144 
L 117.490203 182.496005 
L 117.490328 182.496005 
L 117.556969 182.385273 
L 117.666905 182.2021 
L 117.668066 182.2021 
L 117.727906 182.092402 
L 117.84259 181.914403 
L 117.908506 181.804706 
L 118.023874 181.591521 
L 118.086119 181.481823 
L 118.196345 181.287266 
L 118.197216 181.287266 
L 118.257969 181.177569 
L 118.368485 180.974732 
L 118.369024 180.974732 
L 118.434712 180.865035 
L 118.541703 180.662198 
L 118.545808 180.662198 
L 118.601792 180.552501 
L 118.716746 180.360014 
L 118.785792 180.250316 
L 118.785792 180.249281 
L 118.91103 180.014364 
L 118.967843 179.904666 
L 119.074793 179.718388 
L 119.078919 179.718388 
L 119.142015 179.608691 
L 119.252655 179.412064 
L 119.253112 179.412064 
L 119.307022 179.302366 
L 119.418036 179.120227 
L 119.418077 179.120227 
L 119.49803 179.01053 
L 119.609044 178.809764 
L 119.674483 178.700066 
L 119.785372 178.503439 
L 119.785497 178.503439 
L 119.859064 178.393742 
L 119.967216 178.230231 
L 119.970139 178.230231 
L 120.039435 178.119499 
L 120.154202 177.934255 
L 120.213793 177.826628 
L 120.213793 177.824558 
L 120.328539 177.642419 
L 120.39122 177.532722 
L 120.503997 177.363002 
L 120.570721 177.253304 
L 120.681154 177.062886 
L 120.681818 177.062886 
L 120.73353 176.953189 
L 120.843922 176.731725 
L 120.844627 176.731725 
L 120.908117 176.622028 
L 121.01884 176.406773 
L 121.019172 176.406773 
L 121.095061 176.297075 
L 121.202674 176.112867 
L 121.206158 176.112867 
L 121.290133 176.003169 
L 121.400857 175.8231 
L 121.401126 175.8231 
L 121.467954 175.713403 
L 121.578346 175.554032 
L 121.578802 175.554032 
L 121.657594 175.444334 
L 121.771677 175.293242 
L 121.832761 175.183545 
L 121.943485 175.015894 
L 121.943734 175.015894 
L 122.017508 174.906197 
L 122.13215 174.730267 
L 122.201819 174.62057 
L 122.312169 174.457059 
L 122.312916 174.457059 
L 122.378043 174.347362 
L 122.48773 174.173502 
L 122.48914 174.173502 
L 122.550225 174.063805 
L 122.668433 173.827852 
L 122.731488 173.71919 
L 122.841423 173.527737 
L 122.842543 173.527737 
L 122.898941 173.41804 
L 123.016922 173.248319 
L 123.085761 173.137587 
L 123.193001 172.973041 
L 123.196817 172.973041 
L 123.263831 172.863344 
L 123.374638 172.701903 
L 123.374907 172.701903 
L 123.446795 172.592206 
L 123.556004 172.38316 
L 123.557891 172.38316 
L 123.620593 172.273463 
L 123.729119 172.093393 
L 123.73169 172.093393 
L 123.811332 171.983696 
L 123.923756 171.842953 
L 123.998836 171.73222 
L 124.109518 171.561465 
L 124.109933 171.561465 
L 124.186859 171.451768 
L 124.294016 171.327582 
L 124.297831 171.327582 
L 124.378531 171.217885 
L 124.487865 171.037816 
L 124.489627 171.037816 
L 124.567839 170.928119 
L 124.676489 170.764608 
L 124.678915 170.764608 
L 124.765441 170.654911 
L 124.876413 170.501748 
L 124.876537 170.501748 
L 124.942101 170.391016 
L 125.061657 170.180936 
L 125.132777 170.071238 
L 125.243418 169.940843 
L 125.243874 169.940843 
L 125.319141 169.831146 
L 125.433555 169.665565 
L 125.502685 169.555868 
L 125.621619 169.361311 
L 125.684093 169.250579 
L 125.798694 169.075684 
L 125.86745 168.965987 
L 125.980496 168.769359 
L 126.056178 168.658627 
L 126.167109 168.500291 
L 126.167275 168.500291 
L 126.239431 168.390593 
L 126.350362 168.225013 
L 126.350507 168.225013 
L 126.438402 168.115315 
L 126.438402 168.114281 
L 126.555512 167.966293 
L 126.613942 167.855561 
L 126.732379 167.672387 
L 126.805096 167.56269 
L 126.918038 167.378481 
L 126.983601 167.268784 
L 127.094573 167.088715 
L 127.094594 167.088715 
L 127.157897 166.979017 
L 127.268787 166.817576 
L 127.268952 166.817576 
L 127.348242 166.707879 
L 127.46305 166.52367 
L 127.545098 166.413973 
L 127.656028 166.26495 
L 127.656194 166.26495 
L 127.717942 166.155253 
L 127.828293 165.964835 
L 127.828998 165.964835 
L 127.896095 165.854103 
L 128.004953 165.679208 
L 128.00715 165.679208 
L 128.070101 165.569511 
L 128.179767 165.418419 
L 128.181115 165.418419 
L 128.246554 165.308721 
L 128.355162 165.155559 
L 128.357547 165.155559 
L 128.438723 165.045862 
L 128.549115 164.8927 
L 128.54982 164.8927 
L 128.609536 164.783002 
L 128.609536 164.781967 
L 128.724531 164.588445 
L 128.80183 164.477713 
L 128.912636 164.354562 
L 128.912927 164.354562 
L 128.994331 164.244865 
L 129.104101 164.085493 
L 129.105428 164.085493 
L 129.175532 163.975796 
L 129.288474 163.787448 
L 129.351342 163.677751 
L 129.466026 163.499751 
L 129.548384 163.390054 
L 129.66145 163.193427 
L 129.739372 163.08373 
L 129.853226 162.947126 
L 129.945102 162.837428 
L 130.055079 162.707033 
L 130.056198 162.707033 
L 130.136898 162.597336 
L 130.251022 162.446244 
L 130.318949 162.335512 
L 130.429859 162.183384 
L 130.430046 162.183384 
L 130.494904 162.073687 
L 130.608406 161.951571 
L 130.679318 161.840839 
L 130.789586 161.668014 
L 130.790208 161.668014 
L 130.857471 161.558317 
L 130.968568 161.409294 
L 131.045909 161.298562 
L 131.16082 161.109179 
L 131.24716 160.999482 
L 131.358029 160.806994 
L 131.358257 160.806994 
L 131.437422 160.697297 
L 131.548311 160.531716 
L 131.548519 160.531716 
L 131.619141 160.424089 
L 131.619141 160.420984 
L 131.737723 160.23574 
L 131.811476 160.128113 
L 131.922241 159.974951 
L 131.922532 159.974951 
L 131.9888 159.866288 
L 132.098984 159.716231 
L 132.099855 159.716231 
L 132.182504 159.605499 
L 132.291693 159.46372 
L 132.2936 159.46372 
L 132.380106 159.354023 
L 132.489088 159.163605 
L 132.491078 159.163605 
L 132.574826 159.052873 
L 132.689883 158.853141 
L 132.786589 158.743444 
L 132.897645 158.590281 
L 132.897665 158.590281 
L 132.993273 158.480584 
L 133.104038 158.337771 
L 133.104266 158.337771 
L 133.21443 158.228074 
L 133.325361 158.058353 
L 133.325506 158.058353 
L 133.390426 157.948656 
L 133.506188 157.795494 
L 133.594083 157.684762 
L 133.712437 157.505727 
L 133.769789 157.39603 
L 133.879849 157.232519 
L 133.880886 157.232519 
L 133.964696 157.122822 
L 134.071604 156.96759 
L 134.075792 156.96759 
L 134.165325 156.856858 
L 134.274763 156.681963 
L 134.27638 156.681963 
L 134.337631 156.572266 
L 134.448561 156.414964 
L 134.448727 156.414964 
L 134.526358 156.305267 
L 134.526358 156.304232 
L 134.650621 156.143826 
L 134.720601 156.034128 
L 134.720601 156.033093 
L 134.842044 155.864408 
L 134.912895 155.754711 
L 135.021089 155.601549 
L 135.023992 155.601549 
L 135.084931 155.491851 
L 135.20202 155.293154 
L 135.299225 155.183457 
L 135.410238 155.034434 
L 135.41028 155.034434 
L 135.501388 154.924737 
L 135.608836 154.802621 
L 135.612464 154.802621 
L 135.691152 154.692924 
L 135.799056 154.55632 
L 135.802249 154.55632 
L 135.887593 154.445588 
L 135.995995 154.312088 
L 135.99869 154.312088 
L 136.094319 154.201356 
L 136.203508 154.067857 
L 136.205332 154.067857 
L 136.29248 153.957124 
L 136.406625 153.804997 
L 136.487698 153.6953 
L 136.597405 153.542138 
L 136.598774 153.542138 
L 136.696476 153.43244 
L 136.809003 153.289627 
L 136.888459 153.17993 
L 136.999265 153.047465 
L 136.999535 153.047465 
L 137.082391 152.936733 
L 137.196805 152.770117 
L 137.278728 152.66042 
L 137.389078 152.523816 
L 137.389783 152.523816 
L 137.474713 152.414119 
L 137.585063 152.271305 
L 137.585789 152.271305 
L 137.659356 152.161608 
L 137.768317 152.035353 
L 137.77039 152.035353 
L 137.855734 151.925655 
L 137.965628 151.772493 
L 137.966831 151.772493 
L 138.049355 151.662796 
L 138.15448 151.501355 
L 138.160452 151.501355 
L 138.242686 151.391657 
L 138.353534 151.257123 
L 138.353783 151.257123 
L 138.440122 151.147426 
L 138.550161 151.029449 
L 138.551177 151.029449 
L 138.623998 150.919752 
L 138.72962 150.797636 
L 138.735053 150.797636 
L 138.813223 150.687939 
L 138.923407 150.540986 
L 138.92432 150.540986 
L 139.005931 150.430254 
L 139.124119 150.255359 
L 139.213652 150.144627 
L 139.323712 149.978012 
L 139.324728 149.978012 
L 139.412415 149.867279 
L 139.519697 149.711013 
L 139.523512 149.711013 
L 139.593803 149.601315 
L 139.704153 149.441944 
L 139.704858 149.441944 
L 139.778881 149.334316 
L 139.778881 149.331212 
L 139.893585 149.152177 
L 139.976027 149.04248 
L 140.085299 148.903806 
L 140.087123 148.903806 
L 140.18184 148.793074 
L 140.295425 148.669923 
L 140.387051 148.559191 
L 140.500574 148.43811 
L 140.582642 148.328413 
L 140.691499 148.200088 
L 140.693697 148.200088 
L 140.773941 148.090391 
L 140.883876 147.933089 
L 140.885037 147.933089 
L 140.958729 147.822357 
L 141.074822 147.697136 
L 141.169559 147.586404 
L 141.285612 147.463254 
L 141.387399 147.353556 
L 141.498246 147.196255 
L 141.498495 147.196255 
L 141.581123 147.085522 
L 141.694729 146.960302 
L 141.790979 146.85164 
L 141.899007 146.714001 
L 141.902035 146.714001 
L 141.997705 146.604303 
L 142.107412 146.500815 
L 142.108801 146.500815 
L 142.220188 146.391118 
L 142.220188 146.390083 
L 142.339123 146.196561 
L 142.444227 146.085829 
L 142.554723 145.954399 
L 142.555282 145.954399 
L 142.668722 145.844702 
L 142.7838 145.714307 
L 142.872171 145.604609 
L 142.986399 145.449377 
L 143.100419 145.33968 
L 143.208841 145.217564 
L 143.211475 145.217564 
L 143.313697 145.107867 
L 143.423923 144.952635 
L 143.424794 144.952635 
L 143.515943 144.842938 
L 143.625381 144.708403 
L 143.62704 144.708403 
L 143.725115 144.598706 
L 143.831609 144.470381 
L 143.836212 144.470381 
L 143.932463 144.360684 
L 144.042937 144.242708 
L 144.043539 144.242708 
L 144.157144 144.13301 
L 144.265587 144.017104 
L 144.268241 144.017104 
L 144.349417 143.907406 
L 144.461406 143.818407 
L 144.563379 143.70871 
L 144.673812 143.578315 
L 144.674476 143.578315 
L 144.773464 143.468617 
L 144.884146 143.344432 
L 144.884539 143.344432 
L 144.983195 143.2337 
L 145.09987 143.096061 
L 145.194648 142.985329 
L 145.305309 142.895294 
L 145.3056 142.895294 
L 145.386299 142.785597 
L 145.494908 142.655202 
L 145.497375 142.655202 
L 145.602625 142.545505 
L 145.602625 142.54447 
L 145.716168 142.423389 
L 145.831723 142.276436 
L 145.927642 142.166739 
L 146.036831 142.036344 
L 146.038718 142.036344 
L 146.121055 141.925612 
L 146.230493 141.779694 
L 146.232152 141.779694 
L 146.329419 141.668961 
L 146.442962 141.54788 
L 146.539316 141.438183 
L 146.65145 141.332625 
L 146.737271 141.222928 
L 146.849404 141.11944 
L 146.979349 141.009743 
L 147.088061 140.887627 
L 147.090404 140.887627 
L 147.183005 140.776895 
L 147.292983 140.657884 
L 147.294061 140.657884 
L 147.395868 140.548187 
L 147.395868 140.547152 
L 147.512024 140.421931 
L 147.638174 140.312234 
L 147.745456 140.163211 
L 147.749209 140.163211 
L 147.874447 140.053514 
L 147.98658 139.950026 
L 148.079078 139.840329 
L 148.192538 139.722352 
L 148.276431 139.612655 
L 148.386864 139.496749 
L 148.387486 139.496749 
L 148.49004 139.386017 
L 148.600349 139.246308 
L 148.601116 139.246308 
L 148.692453 139.13661 
L 148.80243 139.033122 
L 148.803466 139.033122 
L 148.877158 138.923425 
L 148.98531 138.813728 
L 148.988192 138.813728 
L 149.108516 138.704031 
L 149.218244 138.577775 
L 149.219613 138.577775 
L 149.313665 138.470148 
L 149.313665 138.467043 
L 149.421963 138.350102 
L 149.424741 138.350102 
L 149.536481 138.240405 
L 149.647453 138.114149 
L 149.647577 138.114149 
L 149.736218 138.004452 
L 149.850031 137.869918 
L 149.941057 137.76022 
L 150.054662 137.636035 
L 150.153049 137.526337 
L 150.153049 137.525303 
L 150.266675 137.395943 
L 150.350278 137.286245 
L 150.459425 137.184827 
L 150.461374 137.184827 
L 150.580018 137.07513 
L 150.693728 136.942665 
L 150.79935 136.832968 
L 150.909037 136.706713 
L 150.910364 136.706713 
L 150.978146 136.597015 
L 151.090715 136.447993 
L 151.188956 136.338295 
L 151.298187 136.205831 
L 151.29997 136.205831 
L 151.41766 136.096134 
L 151.41766 136.095099 
L 151.534749 135.947111 
L 151.646779 135.837414 
L 151.756486 135.717368 
L 151.757855 135.717368 
L 151.897711 135.606635 
L 152.006112 135.497973 
L 152.008787 135.497973 
L 152.113933 135.388276 
L 152.223453 135.282718 
L 152.225029 135.282718 
L 152.326588 135.171986 
L 152.433869 135.052975 
L 152.437643 135.052975 
L 152.536216 134.942243 
L 152.649905 134.810813 
L 152.741034 134.701116 
L 152.846905 134.603837 
L 152.852089 134.603837 
L 152.956468 134.49414 
L 153.063832 134.369954 
L 153.067502 134.369954 
L 153.167879 134.259222 
L 153.276612 134.084327 
L 153.278976 134.084327 
L 153.357809 133.97463 
L 153.466957 133.838026 
L 153.468906 133.838026 
L 153.572642 133.727294 
L 153.683386 133.602073 
L 153.683697 133.602073 
L 153.764251 133.492376 
L 153.878562 133.330935 
L 153.969069 133.221237 
L 154.079254 133.086703 
L 154.080083 133.086703 
L 154.166879 132.975971 
L 154.275985 132.85075 
L 154.277954 132.85075 
L 154.361909 132.740018 
L 154.472426 132.589961 
L 154.472965 132.589961 
L 154.5321 132.479229 
L 154.64583 132.345729 
L 154.723482 132.236032 
L 154.834558 132.085974 
L 154.931368 131.975242 
L 155.045326 131.832429 
L 155.127249 131.722731 
L 155.239403 131.617174 
L 155.333249 131.507476 
L 155.445838 131.357419 
L 155.530249 131.246687 
L 155.644062 131.108013 
L 155.738986 130.998316 
L 155.848071 130.816177 
L 155.850083 130.816177 
L 155.943513 130.705445 
L 156.053905 130.540899 
L 156.05461 130.540899 
L 156.125191 130.430166 
L 156.236205 130.240783 
L 156.236246 130.240783 
L 156.315121 130.131086 
L 156.426011 130.017249 
L 156.426135 130.017249 
L 156.494974 129.907552 
L 156.494974 129.906517 
L 156.612914 129.731623 
L 156.683992 129.62089 
L 156.792933 129.489461 
L 156.795027 129.489461 
L 156.872471 129.381833 
L 156.872471 129.379763 
L 156.983174 129.228671 
L 156.983568 129.228671 
L 157.044092 129.117939 
L 157.15351 128.955463 
L 157.155168 128.955463 
L 157.234686 128.845765 
L 157.349287 128.669836 
L 157.414643 128.560139 
L 157.528559 128.419395 
L 157.609176 128.309698 
L 157.716997 128.166884 
L 157.720273 128.166884 
L 157.825896 128.056152 
L 157.936951 127.883327 
L 158.032766 127.77363 
L 158.032766 127.772595 
L 158.150021 127.620468 
L 158.220001 127.509736 
L 158.330994 127.330701 
L 158.331077 127.330701 
L 158.393799 127.219969 
L 158.508338 127.049214 
L 158.595569 126.939517 
L 158.706106 126.82568 
L 158.706666 126.82568 
L 158.802315 126.714948 
L 158.919819 126.556611 
L 158.984117 126.446914 
L 159.096727 126.285473 
L 159.191817 126.175776 
L 159.191817 126.174741 
L 159.30847 126.035032 
L 159.382203 125.9243 
L 159.491807 125.755614 
L 159.493238 125.755614 
L 159.569915 125.644882 
L 159.679892 125.503104 
L 159.680991 125.503104 
L 159.769072 125.393406 
L 159.769072 125.392371 
L 159.885166 125.269221 
L 160.024938 125.159524 
L 160.141841 125.01671 
L 160.216237 124.907013 
L 160.327064 124.778688 
L 160.327334 124.778688 
L 160.420308 124.667956 
L 160.529746 124.555154 
L 160.531384 124.555154 
L 160.633503 124.445456 
L 160.744392 124.352317 
L 160.7446 124.352317 
L 160.839067 124.24262 
L 160.950164 124.080144 
L 161.063915 123.946644 
L 161.157221 123.836947 
L 161.267156 123.700343 
L 161.268276 123.700343 
L 161.387086 123.589611 
L 161.497934 123.437483 
L 161.498183 123.437483 
L 161.596465 123.327786 
L 161.706277 123.20981 
L 161.707562 123.20981 
L 161.819944 123.100113 
L 161.927931 122.975927 
L 161.93102 122.975927 
L 162.069632 122.86623 
L 162.179899 122.739974 
L 162.180646 122.739974 
L 162.298295 122.630277 
L 162.40879 122.512301 
L 162.40935 122.512301 
L 162.535293 122.402604 
L 162.648712 122.286697 
L 162.760099 122.177 
L 162.870366 122.077651 
L 162.871195 122.077651 
L 162.974268 121.967954 
L 163.086277 121.868606 
L 163.202412 121.758908 
L 163.314711 121.636793 
L 163.432277 121.527095 
L 163.432277 121.52606 
L 163.549387 121.378073 
L 163.700294 121.26734 
L 163.81023 121.152469 
L 163.81135 121.152469 
L 163.915272 121.042772 
L 164.025622 120.931005 
L 164.026286 120.931005 
L 164.136864 120.820272 
L 164.247733 120.703331 
L 164.24794 120.703331 
L 164.347094 120.593634 
L 164.459932 120.506704 
L 164.566218 120.395972 
L 164.681897 120.28317 
L 164.811884 120.173473 
L 164.925033 120.072054 
L 165.027193 119.962357 
L 165.13773 119.883706 
L 165.138248 119.883706 
L 165.274621 119.772974 
L 165.387853 119.666381 
L 165.514127 119.556684 
L 165.623379 119.442847 
L 165.625224 119.442847 
L 165.759046 119.332115 
L 165.872631 119.208965 
L 165.969815 119.098232 
L 166.07973 119.018547 
L 166.080891 119.018547 
L 166.214236 118.907814 
L 166.329272 118.811571 
L 166.440555 118.701873 
L 166.547878 118.610804 
L 166.55159 118.610804 
L 166.693851 118.501107 
L 166.804823 118.38313 
L 166.804927 118.38313 
L 166.914717 118.272398 
L 167.02569 118.169945 
L 167.025773 118.169945 
L 167.13069 118.059213 
L 167.238013 117.944341 
L 167.241787 117.944341 
L 167.358897 117.834644 
L 167.466842 117.702179 
L 167.469973 117.702179 
L 167.566866 117.592482 
L 167.675184 117.493134 
L 167.677963 117.493134 
L 167.775167 117.383437 
L 167.885911 117.26546 
L 167.886202 117.26546 
L 167.978575 117.155763 
L 167.978575 117.154728 
L 168.097655 117.025368 
L 168.213686 116.915671 
L 168.328868 116.781136 
L 168.441623 116.670404 
L 168.551559 116.565881 
L 168.552699 116.565881 
L 168.6532 116.455149 
L 168.76156 116.344417 
L 168.764276 116.344417 
L 168.871164 116.23472 
L 168.980726 116.116744 
L 168.982261 116.116744 
L 169.07001 116.007046 
L 169.180796 115.901489 
L 169.181107 115.901489 
L 169.266409 115.790756 
L 169.376428 115.671745 
L 169.377465 115.671745 
L 169.477738 115.562048 
L 169.583443 115.429583 
L 169.588772 115.429583 
L 169.674676 115.319886 
L 169.781045 115.172933 
L 169.785773 115.172933 
L 169.872693 115.063236 
L 169.982048 114.94112 
L 169.98379 114.94112 
L 170.105689 114.830388 
L 170.226137 114.678261 
L 170.34756 114.568563 
L 170.457578 114.440238 
L 170.458511 114.440238 
L 170.559842 114.330541 
L 170.559842 114.329506 
L 170.67633 114.196007 
L 170.760181 114.086309 
L 170.874222 113.937287 
L 170.947872 113.827589 
L 171.056688 113.686846 
L 171.058969 113.686846 
L 171.161688 113.577148 
L 171.269716 113.448823 
L 171.272661 113.448823 
L 171.356678 113.339126 
L 171.466634 113.198382 
L 171.467692 113.198382 
L 171.556395 113.08765 
L 171.665169 112.952081 
L 171.667471 112.952081 
L 171.759139 112.842384 
L 171.868473 112.685082 
L 171.870215 112.685082 
L 171.97196 112.575385 
L 171.97196 112.57435 
L 172.085794 112.438781 
L 172.169873 112.328049 
L 172.283873 112.18213 
L 172.389185 112.072433 
L 172.499493 111.92548 
L 172.500178 111.92548 
L 172.603043 111.814748 
L 172.711859 111.683318 
L 172.714098 111.683318 
L 172.791148 111.573621 
L 172.902121 111.459784 
L 172.902245 111.459784 
L 172.996422 111.350087 
L 172.996422 111.349052 
L 173.112682 111.221762 
L 173.197342 111.112065 
L 173.303172 110.992019 
L 173.308438 110.992019 
L 173.431976 110.882321 
L 173.545685 110.751927 
L 173.652345 110.641194 
L 173.759688 110.509765 
L 173.763421 110.509765 
L 173.858365 110.399033 
L 173.968943 110.300719 
L 173.96942 110.300719 
L 174.087401 110.191022 
L 174.087401 110.189987 
L 174.20111 110.060627 
L 174.284713 109.95093 
L 174.284713 109.949895 
L 174.400081 109.845372 
L 174.531497 109.73464 
L 174.638095 109.621838 
L 174.642553 109.621838 
L 174.747761 109.512141 
L 174.857489 109.394164 
L 174.858857 109.394164 
L 174.998091 109.284467 
L 174.998091 109.283432 
L 175.110929 109.193398 
L 175.234612 109.082665 
L 175.344921 108.986422 
L 175.345667 108.986422 
L 175.470325 108.876724 
L 175.583039 108.796004 
L 175.739316 108.685272 
L 175.847116 108.615935 
L 175.850413 108.615935 
L 175.978326 108.506237 
L 176.082538 108.429656 
L 176.089422 108.429656 
L 176.264382 108.319959 
L 176.374421 108.197843 
L 176.375479 108.197843 
L 176.560868 108.088146 
L 176.673022 107.982588 
L 176.833675 107.872891 
L 176.942698 107.802519 
L 176.944647 107.802519 
L 177.128315 107.691787 
L 177.242771 107.610031 
L 177.409313 107.500334 
L 177.409313 107.499299 
L 177.521861 107.427893 
L 177.687676 107.31716 
L 177.798089 107.229196 
L 177.798773 107.229196 
L 177.972924 107.119498 
L 178.083606 107.051196 
L 178.084 107.051196 
L 178.261697 106.941499 
L 178.373519 106.864918 
L 178.582401 106.755221 
L 178.689848 106.668291 
L 178.693498 106.668291 
L 178.913866 106.558594 
L 179.023968 106.513059 
L 179.024901 106.513059 
L 179.236955 106.402327 
L 179.341479 106.33092 
L 179.348031 106.33092 
L 179.569188 106.220188 
L 179.677444 106.181897 
L 179.680243 106.181897 
L 179.861589 106.071165 
L 179.973888 106.012177 
L 180.196641 105.90248 
L 180.308567 105.861085 
L 180.527174 105.750352 
L 180.636487 105.685155 
L 180.638229 105.685155 
L 180.879312 105.574423 
L 180.984582 105.498877 
L 180.990408 105.498877 
L 181.219693 105.389179 
L 181.323968 105.320877 
L 181.330769 105.320877 
L 181.586615 105.210145 
L 181.696239 105.149087 
L 181.697712 105.149087 
L 181.961105 105.03939 
L 181.961105 105.038355 
L 182.073508 104.966948 
L 182.309801 104.856216 
L 182.415424 104.791019 
L 182.420877 104.791019 
L 182.652588 104.681321 
L 182.759351 104.619229 
L 182.763622 104.619229 
L 182.973769 104.508497 
L 183.082356 104.459857 
L 183.084865 104.459857 
L 183.262106 104.35016 
L 183.362732 104.281858 
L 183.373203 104.281858 
L 183.550837 104.171126 
L 183.665832 104.107998 
L 183.940132 103.998301 
L 184.046729 103.936208 
L 184.051228 103.936208 
L 184.296209 103.825476 
L 184.404299 103.74579 
L 184.407223 103.74579 
L 184.620708 103.635058 
L 184.730747 103.57607 
L 184.731659 103.57607 
L 184.952401 103.466373 
L 185.058625 103.391861 
L 185.063498 103.391861 
L 185.242605 103.282164 
L 185.242605 103.281129 
L 185.35111 103.224211 
L 185.353701 103.224211 
L 185.465918 103.166257 
L 185.652572 103.055525 
L 185.767028 103.002746 
L 185.99399 102.892014 
L 186.104382 102.847514 
L 186.105024 102.847514 
L 186.307872 102.736782 
L 186.415734 102.690213 
L 186.418886 102.690213 
L 186.648461 102.580515 
L 186.75906 102.524632 
L 186.759537 102.524632 
L 187.018203 102.4139 
L 187.132555 102.363191 
L 187.385332 102.253493 
L 187.494563 102.205889 
L 187.496367 102.205889 
L 187.860365 102.096192 
L 187.964204 102.048587 
L 187.971462 102.048587 
L 188.26266 101.93889 
L 188.363307 101.883006 
L 188.373674 101.883006 
L 188.607831 101.772274 
L 188.713682 101.727774 
L 188.718866 101.727774 
L 188.956403 101.618077 
L 189.062254 101.576682 
L 189.067375 101.576682 
L 189.293591 101.466985 
L 189.391231 101.429729 
L 189.404522 101.429729 
L 189.741378 101.320032 
L 189.850609 101.272427 
L 189.852434 101.272427 
L 190.212637 101.161695 
L 190.311957 101.121335 
L 190.323651 101.121335 
L 190.672472 101.010603 
L 190.786948 100.957824 
L 191.10504 100.847092 
L 191.212238 100.786034 
L 191.216116 100.786034 
L 191.44256 100.675302 
L 191.551479 100.641151 
L 191.553636 100.641151 
L 191.917074 100.531453 
L 192.023775 100.485919 
L 192.028171 100.485919 
L 192.355614 100.375187 
L 192.46248 100.341036 
L 192.46669 100.341036 
L 192.720192 100.231338 
L 192.831683 100.187873 
L 193.206339 100.078176 
L 193.315134 100.055409 
L 193.317332 100.055409 
L 193.605462 99.945711 
L 193.716953 99.904316 
L 194.015118 99.794619 
L 194.120181 99.744945 
L 194.126215 99.744945 
L 194.41196 99.635247 
L 194.41196 99.634213 
L 194.523928 99.589713 
L 194.837188 99.478981 
L 194.94928 99.419992 
L 195.26733 99.310295 
L 195.379028 99.250272 
L 195.772076 99.140575 
L 195.882986 99.090901 
L 196.154839 98.980169 
L 196.265459 98.92739 
L 196.265894 98.92739 
L 196.574717 98.817692 
L 196.67781 98.770088 
L 196.685773 98.770088 
L 196.998577 98.660391 
L 197.107558 98.608647 
L 197.109653 98.608647 
L 197.399213 98.498949 
L 197.494759 98.445136 
L 197.51031 98.445136 
L 197.798813 98.335438 
L 197.905784 98.291973 
L 197.909868 98.291973 
L 198.21019 98.182276 
L 198.21019 98.181241 
L 198.324604 98.128462 
L 198.617545 98.01773 
L 198.728019 97.960812 
L 198.728538 97.960812 
L 198.976131 97.851115 
L 199.082231 97.80558 
L 199.087228 97.80558 
L 199.428812 97.695883 
L 199.527323 97.654487 
L 199.539909 97.654487 
L 199.876558 97.54479 
L 199.974115 97.511674 
L 199.987654 97.511674 
L 200.329861 97.401977 
L 200.432705 97.368861 
L 200.440916 97.368861 
L 200.750029 97.259163 
L 200.858679 97.219838 
L 200.861084 97.219838 
L 201.211709 97.109106 
L 201.313558 97.052187 
L 201.322785 97.052187 
L 201.727216 96.94456 
L 201.727216 96.94249 
L 201.839038 96.896955 
L 202.196692 96.786223 
L 202.295182 96.760351 
L 202.307768 96.760351 
L 202.653146 96.650654 
L 202.761796 96.623747 
L 202.76389 96.623747 
L 203.112545 96.51405 
L 203.219453 96.472655 
L 203.2236 96.472655 
L 203.578268 96.362957 
L 203.687498 96.325702 
L 203.689344 96.325702 
L 204.05838 96.21497 
L 204.167072 96.187028 
L 204.169456 96.187028 
L 204.545978 96.076296 
L 204.654048 96.033866 
L 204.657034 96.033866 
L 204.976017 95.923134 
L 205.086512 95.874494 
L 205.087031 95.874494 
L 205.402779 95.763762 
L 205.513565 95.725471 
L 205.513855 95.725471 
L 205.903606 95.614739 
L 206.004377 95.582658 
L 206.014703 95.582658 
L 206.399415 95.472961 
L 206.501907 95.439845 
L 206.510491 95.439845 
L 206.881622 95.329112 
L 206.976379 95.31152 
L 206.992718 95.31152 
L 207.332892 95.201822 
L 207.332892 95.200787 
L 207.444798 95.160427 
L 207.858725 95.049695 
L 207.950269 95.025893 
L 207.969822 95.025893 
L 208.461982 94.916195 
L 208.565697 94.87273 
L 208.573078 94.87273 
L 209.062169 94.761998 
L 209.168953 94.721638 
L 209.173266 94.721638 
L 209.535357 94.611941 
L 209.535357 94.610906 
L 209.646827 94.589173 
L 210.083459 94.478441 
L 210.195198 94.44636 
L 210.581901 94.335628 
L 210.687109 94.297337 
L 210.692998 94.297337 
L 211.08194 94.18764 
L 211.191544 94.154524 
L 211.192995 94.154524 
L 211.692785 94.044827 
L 211.692785 94.043792 
L 211.80525 94.009641 
L 212.170928 93.899943 
L 212.280366 93.84613 
L 212.281983 93.84613 
L 212.625537 93.735398 
L 212.707149 93.709526 
L 212.736613 93.709526 
L 213.073449 93.598793 
L 213.184939 93.572921 
L 213.628289 93.462189 
L 213.733 93.436317 
L 213.739386 93.436317 
L 214.085739 93.325585 
L 214.196836 93.276946 
L 214.565209 93.166214 
L 214.674481 93.132063 
L 214.676264 93.132063 
L 215.058924 93.02133 
L 215.171845 92.976831 
L 215.54167 92.866099 
L 215.653492 92.829878 
L 216.097216 92.72018 
L 216.203689 92.695343 
L 216.208312 92.695343 
L 216.58274 92.585646 
L 216.678037 92.560809 
L 216.693837 92.560809 
L 217.128188 92.450077 
L 217.240985 92.409717 
L 217.505809 92.298984 
L 217.616781 92.262764 
L 217.616864 92.262764 
L 218.014805 92.152031 
L 218.112777 92.113741 
L 218.125861 92.113741 
L 218.454713 92.003009 
L 218.561912 91.956439 
L 218.56581 91.956439 
L 218.877909 91.846742 
L 218.98855 91.794998 
L 218.989006 91.794998 
L 219.332041 91.684266 
L 219.441562 91.643905 
L 219.443138 91.643905 
L 219.894824 91.533173 
L 219.998974 91.484534 
L 220.00592 91.484534 
L 220.399922 91.373802 
L 220.508945 91.34379 
L 220.510998 91.34379 
L 220.853224 91.234093 
L 220.965607 91.203047 
L 221.403566 91.092314 
L 221.505518 91.056094 
L 221.514662 91.056094 
L 221.626547 91.016768 
L 221.964751 90.906036 
L 222.077901 90.873955 
L 222.437648 90.764258 
L 222.548579 90.720793 
L 222.548683 90.720793 
L 222.822568 90.61006 
L 222.932151 90.557282 
L 222.933623 90.557282 
L 223.234028 90.447584 
L 223.234028 90.446549 
L 223.346887 90.404119 
L 223.597073 90.293387 
L 223.699689 90.242678 
L 223.707858 90.242678 
L 224.001047 90.132981 
L 224.112828 90.097795 
L 224.384598 89.987063 
L 224.499593 89.942563 
L 224.747062 89.832866 
L 224.747062 89.831831 
L 224.859341 89.766633 
L 225.098744 89.655901 
L 225.208514 89.609332 
L 225.209841 89.609332 
L 225.483519 89.4986 
L 225.589411 89.456169 
L 225.594615 89.456169 
L 225.858506 89.346472 
L 225.967281 89.311286 
L 225.969582 89.311286 
L 226.293811 89.200554 
L 226.405696 89.162264 
L 226.69337 89.051531 
L 226.803741 88.992543 
L 226.804404 88.992543 
L 227.164131 88.882846 
L 227.269692 88.829032 
L 227.275228 88.829032 
L 227.553239 88.7183 
L 227.660935 88.67587 
L 227.664274 88.67587 
L 227.918585 88.565138 
L 228.030428 88.528917 
L 228.388559 88.41922 
L 228.388559 88.418185 
L 228.50063 88.404732 
L 228.826269 88.295034 
L 228.917191 88.251569 
L 228.937324 88.251569 
L 229.173513 88.140837 
L 229.285377 88.102547 
L 229.609046 87.991815 
L 229.718007 87.965943 
L 229.720122 87.965943 
L 230.029899 87.85521 
L 230.12503 87.81692 
L 230.140975 87.81692 
L 230.407334 87.706188 
L 230.51926 87.663758 
L 230.865882 87.553025 
L 230.977912 87.506456 
L 231.280411 87.396759 
L 231.392026 87.345015 
L 231.704457 87.234282 
L 231.814973 87.191852 
L 231.815512 87.191852 
L 232.175965 87.08112 
L 232.285237 87.032481 
L 232.287041 87.032481 
L 232.580106 86.921749 
L 232.692135 86.875179 
L 232.946406 86.764447 
L 233.058601 86.703389 
L 233.282723 86.592657 
L 233.395686 86.548157 
L 233.643072 86.437425 
L 233.750892 86.397065 
L 233.754127 86.397065 
L 233.966907 86.286333 
L 234.075557 86.237693 
L 234.078004 86.237693 
L 234.371193 86.126961 
L 234.482891 86.09695 
L 234.701704 85.987252 
L 234.701704 85.986217 
L 234.81363 85.943787 
L 235.105265 85.833055 
L 235.217315 85.782346 
L 235.512661 85.672649 
L 235.614696 85.643672 
L 235.623716 85.643672 
L 235.926505 85.53294 
L 236.03105 85.484301 
L 236.037519 85.484301 
L 236.279058 85.373569 
L 236.391088 85.324929 
L 236.619294 85.214197 
L 236.723839 85.182116 
L 236.730391 85.182116 
L 237.000336 85.072419 
L 237.106125 85.010326 
L 237.111412 85.010326 
L 237.399625 84.900628 
L 237.504107 84.846815 
L 237.510577 84.846815 
L 237.767169 84.737117 
L 237.87924 84.689513 
L 238.100894 84.578781 
L 238.210602 84.54049 
L 238.21197 84.54049 
L 238.435512 84.429758 
L 238.546588 84.379049 
L 238.546608 84.379049 
L 238.76283 84.268317 
L 238.871003 84.219678 
L 238.873906 84.219678 
L 239.100412 84.10998 
L 239.100412 84.108945 
L 239.214122 84.068585 
L 239.434387 83.957853 
L 239.537812 83.903004 
L 239.545421 83.903004 
L 239.74464 83.792272 
L 239.850222 83.741563 
L 239.855488 83.741563 
L 240.103517 83.630831 
L 240.213868 83.588401 
L 240.214614 83.588401 
L 240.465898 83.477669 
L 240.574382 83.42696 
L 240.576933 83.42696 
L 240.809867 83.316227 
L 240.919471 83.2531 
L 240.920963 83.2531 
L 241.1918 83.143403 
L 241.302669 83.08131 
L 241.302897 83.08131 
L 241.492122 82.971612 
L 241.597413 82.928148 
L 241.603198 82.928148 
L 241.855042 82.817415 
L 241.965787 82.756357 
L 241.966139 82.756357 
L 242.248132 82.645625 
L 242.356927 82.592846 
L 242.359207 82.592846 
L 242.578374 82.483149 
L 242.688454 82.427266 
L 242.68947 82.427266 
L 242.896901 82.316534 
L 243.002606 82.251336 
L 243.007894 82.251336 
L 243.166203 82.141639 
L 243.276678 82.083686 
L 243.277259 82.083686 
L 243.525163 81.972953 
L 243.627178 81.916035 
L 243.636198 81.916035 
L 243.847422 81.805303 
L 243.957544 81.750454 
L 243.958519 81.750454 
L 244.200452 81.639722 
L 244.31045 81.576594 
L 244.311549 81.576594 
L 244.523271 81.465862 
L 244.633766 81.390316 
L 244.634347 81.390316 
L 244.846194 81.280619 
L 244.952915 81.237154 
L 244.957228 81.237154 
L 245.172869 81.127457 
L 245.28125 81.061224 
L 245.283966 81.061224 
L 245.495274 80.950492 
L 245.597828 80.901853 
L 245.606308 80.901853 
L 245.785 80.792156 
L 245.895869 80.732133 
L 245.896097 80.732133 
L 246.120944 80.6214 
L 246.231315 80.562412 
L 246.232 80.562412 
L 246.43549 80.45168 
L 246.544016 80.405111 
L 246.546566 80.405111 
L 246.737222 80.294378 
L 246.849273 80.23953 
L 247.044594 80.128798 
L 247.156997 80.0636 
L 247.348959 79.952868 
L 247.459288 79.89388 
L 247.460056 79.89388 
L 247.674868 79.783148 
L 247.784326 79.728299 
L 247.785923 79.728299 
L 248.012657 79.618602 
L 248.118632 79.560649 
L 248.123754 79.560649 
L 248.342256 79.449916 
L 248.452109 79.384719 
L 248.453332 79.384719 
L 248.628085 79.273987 
L 248.742686 79.219138 
L 248.943253 79.109441 
L 249.055241 79.018372 
L 249.266196 78.907639 
L 249.374349 78.846581 
L 249.377272 78.846581 
L 249.598118 78.736884 
L 249.707929 78.674791 
L 249.709173 78.674791 
L 249.912332 78.564059 
L 250.021936 78.51749 
L 250.023429 78.51749 
L 250.274277 78.406758 
L 250.38724 78.314653 
L 250.622206 78.203921 
L 250.734879 78.126305 
L 250.946124 78.015573 
L 251.050627 77.933817 
L 251.0572 77.933817 
L 251.259281 77.823085 
L 251.373488 77.747539 
L 251.587906 77.637842 
L 251.587906 77.636807 
L 251.700392 77.56333 
L 251.906619 77.452598 
L 252.015394 77.387401 
L 252.017716 77.387401 
L 252.2086 77.276669 
L 252.315923 77.207332 
L 252.319635 77.207332 
L 252.508238 77.0966 
L 252.617821 77.027263 
L 252.619314 77.027263 
L 252.8159 76.917565 
L 252.925773 76.834775 
L 252.926955 76.834775 
L 253.141953 76.724043 
L 253.251101 76.665055 
L 253.253029 76.665055 
L 253.44862 76.555358 
L 253.44862 76.554323 
L 253.560961 76.493265 
L 253.780438 76.382533 
L 253.889461 76.298707 
L 253.891514 76.298707 
L 254.099027 76.187975 
L 254.209751 76.120708 
L 254.210124 76.120708 
L 254.364452 76.011011 
L 254.470531 75.93236 
L 254.475487 75.93236 
L 254.657496 75.821628 
L 254.770231 75.739872 
L 254.98919 75.62914 
L 255.100225 75.566012 
L 255.100287 75.566012 
L 255.32136 75.45528 
L 255.430073 75.371455 
L 255.432271 75.371455 
L 255.676795 75.260723 
L 255.781008 75.212084 
L 255.78783 75.212084 
L 255.968595 75.102386 
L 256.080169 75.052712 
L 256.269145 74.943015 
L 256.379309 74.876782 
L 256.380221 74.876782 
L 256.521943 74.76605 
L 256.627732 74.688434 
L 256.63304 74.688434 
L 256.828776 74.577702 
L 256.941158 74.512505 
L 257.145727 74.402808 
L 257.254667 74.340715 
L 257.256823 74.340715 
L 257.4808 74.229983 
L 257.589865 74.179273 
L 257.591876 74.179273 
L 257.826738 74.068541 
L 257.934829 73.990925 
L 257.937835 73.990925 
L 258.176015 73.881228 
L 258.283939 73.817066 
L 258.287091 73.817066 
L 258.487285 73.706333 
L 258.593343 73.643206 
L 258.59834 73.643206 
L 258.785284 73.532474 
L 258.901731 73.446579 
L 259.152061 73.335846 
L 259.262328 73.2603 
L 259.263137 73.2603 
L 259.460594 73.149568 
L 259.553029 73.080231 
L 259.571691 73.080231 
L 259.759879 72.970534 
L 259.873796 72.902232 
L 260.103993 72.7915 
L 260.218677 72.734581 
L 260.431353 72.624884 
L 260.542076 72.581419 
L 260.542325 72.581419 
L 260.8007 72.470687 
L 260.913477 72.386862 
L 261.184065 72.276129 
L 261.297256 72.22542 
L 261.52341 72.114688 
L 261.63038 72.0557 
L 261.634506 72.0557 
L 261.831424 71.944968 
L 261.938229 71.894259 
L 261.942521 71.894259 
L 262.137718 71.784562 
L 262.243527 71.730748 
L 262.248773 71.730748 
L 262.514385 71.620016 
L 262.623636 71.558958 
L 262.625461 71.558958 
L 262.910128 71.448226 
L 263.012433 71.378889 
L 263.021162 71.378889 
L 263.261022 71.268157 
L 263.367764 71.205029 
L 263.372098 71.205029 
L 263.634848 71.094297 
L 263.740347 71.02496 
L 263.745945 71.02496 
L 263.986841 70.914228 
L 264.098622 70.875937 
L 264.372051 70.76624 
L 264.483791 70.702077 
L 264.754628 70.591345 
L 264.867943 70.536496 
L 265.105397 70.425764 
L 265.210709 70.387474 
L 265.216494 70.387474 
L 265.44553 70.276742 
L 265.540598 70.228102 
L 265.556626 70.228102 
L 265.802955 70.11737 
L 265.915213 70.060452 
L 266.144539 69.950754 
L 266.253666 69.874173 
L 266.255636 69.874173 
L 266.476108 69.764476 
L 266.476108 69.763441 
L 266.588532 69.696174 
L 266.844647 69.586477 
L 266.952281 69.530593 
L 266.955723 69.530593 
L 267.232408 69.419861 
L 267.340187 69.38778 
L 267.343504 69.38778 
L 267.608515 69.278083 
L 267.717663 69.234618 
L 267.71957 69.234618 
L 268.001272 69.123886 
L 268.113343 69.075246 
L 268.434753 68.965549 
L 268.545476 68.909665 
L 268.545808 68.909665 
L 268.876734 68.799968 
L 268.988598 68.762712 
L 269.237519 68.65198 
L 269.350689 68.601271 
L 269.614953 68.490539 
L 269.724246 68.433621 
L 269.72605 68.433621 
L 269.97157 68.322889 
L 270.07091 68.282528 
L 270.082646 68.282528 
L 270.343634 68.171796 
L 270.449464 68.131436 
L 270.45473 68.131436 
L 270.774916 68.021738 
L 270.885308 67.978274 
L 270.886013 67.978274 
L 271.304419 67.868576 
L 271.415827 67.829251 
L 271.735784 67.718519 
L 271.849991 67.669879 
L 272.194292 67.560182 
L 272.305036 67.535345 
L 272.305305 67.535345 
L 272.62773 67.425648 
L 272.62773 67.424613 
L 272.739843 67.373904 
L 273.02648 67.263172 
L 273.138365 67.224881 
L 273.595732 67.114149 
L 273.705709 67.079998 
L 273.706787 67.079998 
L 274.026019 66.969266 
L 274.135996 66.933045 
L 274.137074 66.933045 
L 274.519028 66.823348 
L 274.621582 66.786092 
L 274.630125 66.786092 
L 275.031384 66.67536 
L 275.142273 66.63086 
L 275.142439 66.63086 
L 275.469675 66.521163 
L 275.581082 66.488047 
L 275.928327 66.377314 
L 276.040129 66.341094 
L 276.467845 66.231396 
L 276.579895 66.183792 
L 276.893135 66.07306 
L 277.001204 66.038909 
L 277.004128 66.038909 
L 277.426743 65.929211 
L 277.531744 65.898165 
L 277.537819 65.898165 
L 277.954027 65.787433 
L 278.066368 65.757421 
L 278.452532 65.646689 
L 278.565142 65.624957 
L 278.947719 65.51526 
L 279.05415 65.482143 
L 279.058774 65.482143 
L 279.443466 65.371411 
L 279.554853 65.355888 
L 280.084272 65.245156 
L 280.187614 65.202726 
L 280.195369 65.202726 
L 280.548793 65.091994 
L 280.661279 65.072331 
L 281.070354 64.962634 
L 281.165755 64.939866 
L 281.181327 64.939866 
L 281.59683 64.830169 
L 281.708217 64.799123 
L 282.11412 64.688391 
L 282.225777 64.658379 
L 282.750345 64.548682 
L 282.855677 64.515566 
L 282.861338 64.515566 
L 283.401706 64.404833 
L 283.501751 64.381031 
L 283.512719 64.381031 
L 283.949538 64.270299 
L 284.050039 64.236148 
L 284.060572 64.236148 
L 284.527726 64.125416 
L 284.639528 64.091265 
L 285.080037 63.981568 
L 285.191963 63.971219 
L 285.699155 63.861522 
L 285.79694 63.842894 
L 285.810231 63.842894 
L 286.419999 63.732162 
L 286.531862 63.693871 
L 286.999472 63.584174 
L 287.099642 63.561406 
L 287.110569 63.561406 
L 287.711938 63.450674 
L 287.791954 63.422733 
L 287.822931 63.422733 
L 288.390959 63.312 
L 288.492954 63.296477 
L 288.502056 63.296477 
L 288.946401 63.185745 
L 289.057892 63.159873 
L 289.602946 63.049141 
L 289.677985 63.027408 
L 289.71396 63.027408 
L 290.316283 62.916676 
L 290.427836 62.894944 
L 290.911681 62.784212 
L 291.01832 62.772828 
L 291.022757 62.772828 
L 291.580272 62.662096 
L 291.691763 62.642433 
L 292.105193 62.532736 
L 292.213864 62.518248 
L 292.216145 62.518248 
L 292.895228 62.407515 
L 292.992142 62.389922 
L 293.006324 62.389922 
L 293.661791 62.280225 
L 293.744668 62.269876 
L 293.772763 62.269876 
L 294.214786 62.159144 
L 294.326422 62.147761 
L 295.094229 62.038063 
L 295.187577 62.011156 
L 295.205305 62.011156 
L 295.766201 61.901459 
L 295.877401 61.886971 
L 296.619393 61.777274 
L 296.72033 61.758646 
L 296.730449 61.758646 
L 297.372562 61.647914 
L 297.483389 61.630321 
L 297.483638 61.630321 
L 298.134543 61.519589 
L 298.241347 61.499926 
L 298.245619 61.499926 
L 298.971624 61.389194 
L 299.071898 61.363322 
L 299.082618 61.363322 
L 299.744263 61.253624 
L 299.856459 61.218439 
L 300.60604 61.107706 
L 300.704675 61.088044 
L 300.717116 61.088044 
L 301.401362 60.978346 
L 301.503626 60.953509 
L 301.512438 60.953509 
L 302.346285 60.843812 
L 302.431422 60.833463 
L 302.457382 60.833463 
L 303.196078 60.722731 
L 303.308916 60.705138 
L 304.203039 60.594406 
L 304.314717 60.564394 
L 305.147071 60.453662 
L 305.259121 60.43193 
L 306.00974 60.321198 
L 306.122226 60.301535 
L 307.024021 60.191838 
L 307.135304 60.17321 
L 307.894299 60.062478 
L 308.006018 60.049024 
L 308.809281 59.939327 
L 308.809281 59.938292 
L 308.920917 59.908281 
L 309.801252 59.798583 
L 309.913198 59.771677 
L 310.564953 59.661979 
L 310.66645 59.6537 
L 310.676029 59.6537 
L 311.388703 59.544003 
L 311.50011 59.535724 
L 312.56486 59.424992 
L 312.659763 59.411538 
L 312.675936 59.411538 
L 313.544431 59.301841 
L 313.656419 59.281143 
L 314.48556 59.170411 
L 314.56798 59.154888 
L 314.596615 59.154888 
L 315.485637 59.044156 
L 315.593914 59.020354 
L 315.596713 59.020354 
L 316.477546 58.909622 
L 316.58887 58.896168 
L 317.406897 58.786471 
L 317.518118 58.771983 
L 318.565222 58.66125 
L 318.675635 58.647797 
L 318.676298 58.647797 
L 319.564885 58.5381 
L 319.6686 58.515332 
L 319.67594 58.515332 
L 320.784544 58.405635 
L 320.872729 58.391147 
L 320.89562 58.391147 
L 321.948509 58.280415 
L 322.06031 58.264891 
L 323.141523 58.155194 
L 323.253055 58.134497 
L 324.519616 58.024799 
L 324.63063 58.014451 
L 325.558924 57.903718 
L 325.670393 57.884056 
L 326.769168 57.773324 
L 326.880638 57.755731 
L 327.961665 57.646033 
L 327.961665 57.644998 
L 328.075643 57.627405 
L 329.258353 57.517708 
L 329.369698 57.50322 
L 330.513903 57.393523 
L 330.619671 57.376965 
L 330.624979 57.376965 
L 331.976676 57.266232 
L 332.087794 57.263128 
L 333.523156 57.153431 
L 333.523156 57.152396 
L 333.635185 57.145151 
L 335.135488 57.035454 
L 335.135488 57.034419 
L 335.247311 57.025105 
L 336.932983 56.915408 
L 337.044224 56.89885 
L 338.56265 56.788118 
L 338.673912 56.785013 
L 340.003237 56.674281 
L 340.114707 56.667037 
L 341.53147 56.55734 
L 341.642587 56.549061 
L 343.222636 56.438329 
L 343.334624 56.426945 
L 344.916187 56.317248 
L 345.027532 56.304829 
L 346.591014 56.195132 
L 346.6623 56.188923 
L 346.702069 56.188923 
L 348.444865 56.079225 
L 348.527182 56.073016 
L 348.555962 56.073016 
L 350.202217 55.963319 
L 350.312629 55.946761 
L 350.313272 55.946761 
L 352.190201 55.836029 
L 352.301381 55.830854 
L 353.851219 55.721157 
L 353.851219 55.720122 
L 353.962523 55.710808 
L 355.772645 55.600076 
L 355.884094 55.596971 
L 357.71184 55.486239 
L 357.824533 55.470716 
L 360.238927 55.359984 
L 360.350584 55.356879 
L 363.251186 55.247182 
L 363.362304 55.238903 
L 366.57063 55.128171 
L 366.681727 55.125066 
L 369.695977 55.015369 
L 369.695977 55.014334 
L 369.807198 55.00709 
L 373.534888 54.897393 
L 373.646151 54.893253 
L 377.304608 54.783556 
L 377.415726 54.779416 
L 381.519129 54.669719 
L 381.618345 54.665579 
L 381.630185 54.665579 
L 386.859692 54.555882 
L 386.970934 54.549673 
L 391.887015 54.439976 
L 391.887015 54.437906 
L 391.998111 54.437906 
L 398.657424 54.328209 
L 398.70472 54.321999 
L 398.76852 54.321999 
L 406.89129 54.211267 
L 407.002428 54.210232 
L 414.72 54.144 
L 414.72 54.144 
" clip-path="url(#p075b1057bd)" style="fill: none; stroke: #ff8c00; stroke-width: 1.5; stroke-linecap: square"/>
   </g>
   <g id="line2d_14">
    <path d="M 74.605714 307.584 
L 414.72 54.144 
" clip-path="url(#p075b1057bd)" style="fill: none; stroke-dasharray: 5.55,2.4; stroke-dashoffset: 0; stroke: #0000ff; stroke-width: 1.5"/>
   </g>
   <g id="patch_3">
    <path d="M 57.6 307.584 
L 57.6 41.472 
" style="fill: none; stroke: #000000; stroke-width: 0.8; stroke-linejoin: miter; stroke-linecap: square"/>
   </g>
   <g id="patch_4">
    <path d="M 414.72 307.584 
L 414.72 41.472 
" style="fill: none; stroke: #000000; stroke-width: 0.8; stroke-linejoin: miter; stroke-linecap: square"/>
   </g>
   <g id="patch_5">
    <path d="M 57.6 307.584 
L 414.72 307.584 
" style="fill: none; stroke: #000000; stroke-width: 0.8; stroke-linejoin: miter; stroke-linecap: square"/>
   </g>
   <g id="patch_6">
    <path d="M 57.6 41.472 
L 414.72 41.472 
" style="fill: none; stroke: #000000; stroke-width: 0.8; stroke-linejoin: miter; stroke-linecap: square"/>
   </g>
   <g id="text_15">
    <!-- ROC CURVE -->
    <g transform="translate(200.855625 35.472)scale(0.12 -0.12)">
     <defs>
      <path id="DejaVuSans-4f" d="M 2522 4238 
Q 1834 4238 1429 3725 
Q 1025 3213 1025 2328 
Q 1025 1447 1429 934 
Q 1834 422 2522 422 
Q 3209 422 3611 934 
Q 4013 1447 4013 2328 
Q 4013 3213 3611 3725 
Q 3209 4238 2522 4238 
z
M 2522 4750 
Q 3503 4750 4090 4092 
Q 4678 3434 4678 2328 
Q 4678 1225 4090 567 
Q 3503 -91 2522 -91 
Q 1538 -91 948 565 
Q 359 1222 359 2328 
Q 359 3434 948 4092 
Q 1538 4750 2522 4750 
z
" transform="scale(0.015625)"/>
      <path id="DejaVuSans-43" d="M 4122 4306 
L 4122 3641 
Q 3803 3938 3442 4084 
Q 3081 4231 2675 4231 
Q 1875 4231 1450 3742 
Q 1025 3253 1025 2328 
Q 1025 1406 1450 917 
Q 1875 428 2675 428 
Q 3081 428 3442 575 
Q 3803 722 4122 1019 
L 4122 359 
Q 3791 134 3420 21 
Q 3050 -91 2638 -91 
Q 1578 -91 968 557 
Q 359 1206 359 2328 
Q 359 3453 968 4101 
Q 1578 4750 2638 4750 
Q 3056 4750 3426 4639 
Q 3797 4528 4122 4306 
z
" transform="scale(0.015625)"/>
      <path id="DejaVuSans-55" d="M 556 4666 
L 1191 4666 
L 1191 1831 
Q 1191 1081 1462 751 
Q 1734 422 2344 422 
Q 2950 422 3222 751 
Q 3494 1081 3494 1831 
L 3494 4666 
L 4128 4666 
L 4128 1753 
Q 4128 841 3676 375 
Q 3225 -91 2344 -91 
Q 1459 -91 1007 375 
Q 556 841 556 1753 
L 556 4666 
z
" transform="scale(0.015625)"/>
      <path id="DejaVuSans-56" d="M 1831 0 
L 50 4666 
L 709 4666 
L 2188 738 
L 3669 4666 
L 4325 4666 
L 2547 0 
L 1831 0 
z
" transform="scale(0.015625)"/>
      <path id="DejaVuSans-45" d="M 628 4666 
L 3578 4666 
L 3578 4134 
L 1259 4134 
L 1259 2753 
L 3481 2753 
L 3481 2222 
L 1259 2222 
L 1259 531 
L 3634 531 
L 3634 0 
L 628 0 
L 628 4666 
z
" transform="scale(0.015625)"/>
     </defs>
     <use xlink:href="#DejaVuSans-52"/>
     <use xlink:href="#DejaVuSans-4f" x="69.482422"/>
     <use xlink:href="#DejaVuSans-43" x="148.193359"/>
     <use xlink:href="#DejaVuSans-20" x="218.017578"/>
     <use xlink:href="#DejaVuSans-43" x="249.804688"/>
     <use xlink:href="#DejaVuSans-55" x="319.628906"/>
     <use xlink:href="#DejaVuSans-52" x="392.822266"/>
     <use xlink:href="#DejaVuSans-56" x="456.804688"/>
     <use xlink:href="#DejaVuSans-45" x="525.212891"/>
    </g>
   </g>
   <g id="legend_1">
    <g id="patch_7">
     <path d="M 234.97 302.584 
L 407.72 302.584 
Q 409.72 302.584 409.72 300.584 
L 409.72 286.905875 
Q 409.72 284.905875 407.72 284.905875 
L 234.97 284.905875 
Q 232.97 284.905875 232.97 286.905875 
L 232.97 300.584 
Q 232.97 302.584 234.97 302.584 
z
" style="fill: #ffffff; opacity: 0.8; stroke: #cccccc; stroke-linejoin: miter"/>
    </g>
    <g id="line2d_15">
     <path d="M 236.97 293.004312 
L 246.97 293.004312 
L 256.97 293.004312 
" style="fill: none; stroke: #ff8c00; stroke-width: 1.5; stroke-linecap: square"/>
    </g>
    <g id="text_16">
     <!-- ROC curve (ROC AUC=0.80) -->
     <g transform="translate(264.97 296.504312)scale(0.1 -0.1)">
      <defs>
       <path id="DejaVuSans-63" d="M 3122 3366 
L 3122 2828 
Q 2878 2963 2633 3030 
Q 2388 3097 2138 3097 
Q 1578 3097 1268 2742 
Q 959 2388 959 1747 
Q 959 1106 1268 751 
Q 1578 397 2138 397 
Q 2388 397 2633 464 
Q 2878 531 3122 666 
L 3122 134 
Q 2881 22 2623 -34 
Q 2366 -91 2075 -91 
Q 1284 -91 818 406 
Q 353 903 353 1747 
Q 353 2603 823 3093 
Q 1294 3584 2113 3584 
Q 2378 3584 2631 3529 
Q 2884 3475 3122 3366 
z
" transform="scale(0.015625)"/>
       <path id="DejaVuSans-28" d="M 1984 4856 
Q 1566 4138 1362 3434 
Q 1159 2731 1159 2009 
Q 1159 1288 1364 580 
Q 1569 -128 1984 -844 
L 1484 -844 
Q 1016 -109 783 600 
Q 550 1309 550 2009 
Q 550 2706 781 3412 
Q 1013 4119 1484 4856 
L 1984 4856 
z
" transform="scale(0.015625)"/>
       <path id="DejaVuSans-41" d="M 2188 4044 
L 1331 1722 
L 3047 1722 
L 2188 4044 
z
M 1831 4666 
L 2547 4666 
L 4325 0 
L 3669 0 
L 3244 1197 
L 1141 1197 
L 716 0 
L 50 0 
L 1831 4666 
z
" transform="scale(0.015625)"/>
       <path id="DejaVuSans-3d" d="M 678 2906 
L 4684 2906 
L 4684 2381 
L 678 2381 
L 678 2906 
z
M 678 1631 
L 4684 1631 
L 4684 1100 
L 678 1100 
L 678 1631 
z
" transform="scale(0.015625)"/>
       <path id="DejaVuSans-29" d="M 513 4856 
L 1013 4856 
Q 1481 4119 1714 3412 
Q 1947 2706 1947 2009 
Q 1947 1309 1714 600 
Q 1481 -109 1013 -844 
L 513 -844 
Q 928 -128 1133 580 
Q 1338 1288 1338 2009 
Q 1338 2731 1133 3434 
Q 928 4138 513 4856 
z
" transform="scale(0.015625)"/>
      </defs>
      <use xlink:href="#DejaVuSans-52"/>
      <use xlink:href="#DejaVuSans-4f" x="69.482422"/>
      <use xlink:href="#DejaVuSans-43" x="148.193359"/>
      <use xlink:href="#DejaVuSans-20" x="218.017578"/>
      <use xlink:href="#DejaVuSans-63" x="249.804688"/>
      <use xlink:href="#DejaVuSans-75" x="304.785156"/>
      <use xlink:href="#DejaVuSans-72" x="368.164062"/>
      <use xlink:href="#DejaVuSans-76" x="409.277344"/>
      <use xlink:href="#DejaVuSans-65" x="468.457031"/>
      <use xlink:href="#DejaVuSans-20" x="529.980469"/>
      <use xlink:href="#DejaVuSans-28" x="561.767578"/>
      <use xlink:href="#DejaVuSans-52" x="600.78125"/>
      <use xlink:href="#DejaVuSans-4f" x="670.263672"/>
      <use xlink:href="#DejaVuSans-43" x="748.974609"/>
      <use xlink:href="#DejaVuSans-20" x="818.798828"/>
      <use xlink:href="#DejaVuSans-41" x="850.585938"/>
      <use xlink:href="#DejaVuSans-55" x="918.994141"/>
      <use xlink:href="#DejaVuSans-43" x="992.1875"/>
      <use xlink:href="#DejaVuSans-3d" x="1062.011719"/>
      <use xlink:href="#DejaVuSans-30" x="1145.800781"/>
      <use xlink:href="#DejaVuSans-2e" x="1209.423828"/>
      <use xlink:href="#DejaVuSans-38" x="1241.210938"/>
      <use xlink:href="#DejaVuSans-30" x="1304.833984"/>
      <use xlink:href="#DejaVuSans-29" x="1368.457031"/>
     </g>
    </g>
   </g>
  </g>
 </g>
 <defs>
  <clipPath id="p075b1057bd">
   <rect x="57.6" y="41.472" width="357.12" height="266.112"/>
  </clipPath>
 </defs>
</svg>
