<?xml version="1.0" encoding="utf-8" standalone="no"?>
<!DOCTYPE svg PUBLIC "-//W3C//DTD SVG 1.1//EN"
  "http://www.w3.org/Graphics/SVG/1.1/DTD/svg11.dtd">
<svg xmlns:xlink="http://www.w3.org/1999/xlink" width="460.8pt" height="345.6pt" viewBox="0 0 460.8 345.6" xmlns="http://www.w3.org/2000/svg" version="1.1">
 <metadata>
  <rdf:RDF xmlns:dc="http://purl.org/dc/elements/1.1/" xmlns:cc="http://creativecommons.org/ns#" xmlns:rdf="http://www.w3.org/1999/02/22-rdf-syntax-ns#">
   <cc:Work>
    <dc:type rdf:resource="http://purl.org/dc/dcmitype/StillImage"/>
    <dc:date>2022-05-26T08:18:28.508532</dc:date>
    <dc:format>image/svg+xml</dc:format>
    <dc:creator>
     <cc:Agent>
      <dc:title>Matplotlib v3.5.1, https://matplotlib.org/</dc:title>
     </cc:Agent>
    </dc:creator>
   </cc:Work>
  </rdf:RDF>
 </metadata>
 <defs>
  <style type="text/css">*{stroke-linejoin: round; stroke-linecap: butt}</style>
 </defs>
 <g id="figure_1">
  <g id="patch_1">
   <path d="M 0 345.6 
L 460.8 345.6 
L 460.8 0 
L 0 0 
z
" style="fill: #ffffff"/>
  </g>
  <g id="axes_1">
   <g id="patch_2">
    <path d="M 57.6 307.584 
L 414.72 307.584 
L 414.72 41.472 
L 57.6 41.472 
z
" style="fill: #ffffff"/>
   </g>
   <g id="matplotlib.axis_1">
    <g id="xtick_1">
     <g id="line2d_1">
      <defs>
       <path id="mf9ffb3f19a" d="M 0 0 
L 0 3.5 
" style="stroke: #000000; stroke-width: 0.8"/>
      </defs>
      <g>
       <use xlink:href="#mf9ffb3f19a" x="74.605714" y="307.584" style="stroke: #000000; stroke-width: 0.8"/>
      </g>
     </g>
     <g id="text_1">
      <!-- 0.0 -->
      <g transform="translate(66.654152 322.182437)scale(0.1 -0.1)">
       <defs>
        <path id="DejaVuSans-30" d="M 2034 4250 
Q 1547 4250 1301 3770 
Q 1056 3291 1056 2328 
Q 1056 1369 1301 889 
Q 1547 409 2034 409 
Q 2525 409 2770 889 
Q 3016 1369 3016 2328 
Q 3016 3291 2770 3770 
Q 2525 4250 2034 4250 
z
M 2034 4750 
Q 2819 4750 3233 4129 
Q 3647 3509 3647 2328 
Q 3647 1150 3233 529 
Q 2819 -91 2034 -91 
Q 1250 -91 836 529 
Q 422 1150 422 2328 
Q 422 3509 836 4129 
Q 1250 4750 2034 4750 
z
" transform="scale(0.015625)"/>
        <path id="DejaVuSans-2e" d="M 684 794 
L 1344 794 
L 1344 0 
L 684 0 
L 684 794 
z
" transform="scale(0.015625)"/>
       </defs>
       <use xlink:href="#DejaVuSans-30"/>
       <use xlink:href="#DejaVuSans-2e" x="63.623047"/>
       <use xlink:href="#DejaVuSans-30" x="95.410156"/>
      </g>
     </g>
    </g>
    <g id="xtick_2">
     <g id="line2d_2">
      <g>
       <use xlink:href="#mf9ffb3f19a" x="142.628571" y="307.584" style="stroke: #000000; stroke-width: 0.8"/>
      </g>
     </g>
     <g id="text_2">
      <!-- 0.2 -->
      <g transform="translate(134.677009 322.182437)scale(0.1 -0.1)">
       <defs>
        <path id="DejaVuSans-32" d="M 1228 531 
L 3431 531 
L 3431 0 
L 469 0 
L 469 531 
Q 828 903 1448 1529 
Q 2069 2156 2228 2338 
Q 2531 2678 2651 2914 
Q 2772 3150 2772 3378 
Q 2772 3750 2511 3984 
Q 2250 4219 1831 4219 
Q 1534 4219 1204 4116 
Q 875 4013 500 3803 
L 500 4441 
Q 881 4594 1212 4672 
Q 1544 4750 1819 4750 
Q 2544 4750 2975 4387 
Q 3406 4025 3406 3419 
Q 3406 3131 3298 2873 
Q 3191 2616 2906 2266 
Q 2828 2175 2409 1742 
Q 1991 1309 1228 531 
z
" transform="scale(0.015625)"/>
       </defs>
       <use xlink:href="#DejaVuSans-30"/>
       <use xlink:href="#DejaVuSans-2e" x="63.623047"/>
       <use xlink:href="#DejaVuSans-32" x="95.410156"/>
      </g>
     </g>
    </g>
    <g id="xtick_3">
     <g id="line2d_3">
      <g>
       <use xlink:href="#mf9ffb3f19a" x="210.651429" y="307.584" style="stroke: #000000; stroke-width: 0.8"/>
      </g>
     </g>
     <g id="text_3">
      <!-- 0.4 -->
      <g transform="translate(202.699866 322.182437)scale(0.1 -0.1)">
       <defs>
        <path id="DejaVuSans-34" d="M 2419 4116 
L 825 1625 
L 2419 1625 
L 2419 4116 
z
M 2253 4666 
L 3047 4666 
L 3047 1625 
L 3713 1625 
L 3713 1100 
L 3047 1100 
L 3047 0 
L 2419 0 
L 2419 1100 
L 313 1100 
L 313 1709 
L 2253 4666 
z
" transform="scale(0.015625)"/>
       </defs>
       <use xlink:href="#DejaVuSans-30"/>
       <use xlink:href="#DejaVuSans-2e" x="63.623047"/>
       <use xlink:href="#DejaVuSans-34" x="95.410156"/>
      </g>
     </g>
    </g>
    <g id="xtick_4">
     <g id="line2d_4">
      <g>
       <use xlink:href="#mf9ffb3f19a" x="278.674286" y="307.584" style="stroke: #000000; stroke-width: 0.8"/>
      </g>
     </g>
     <g id="text_4">
      <!-- 0.6 -->
      <g transform="translate(270.722723 322.182437)scale(0.1 -0.1)">
       <defs>
        <path id="DejaVuSans-36" d="M 2113 2584 
Q 1688 2584 1439 2293 
Q 1191 2003 1191 1497 
Q 1191 994 1439 701 
Q 1688 409 2113 409 
Q 2538 409 2786 701 
Q 3034 994 3034 1497 
Q 3034 2003 2786 2293 
Q 2538 2584 2113 2584 
z
M 3366 4563 
L 3366 3988 
Q 3128 4100 2886 4159 
Q 2644 4219 2406 4219 
Q 1781 4219 1451 3797 
Q 1122 3375 1075 2522 
Q 1259 2794 1537 2939 
Q 1816 3084 2150 3084 
Q 2853 3084 3261 2657 
Q 3669 2231 3669 1497 
Q 3669 778 3244 343 
Q 2819 -91 2113 -91 
Q 1303 -91 875 529 
Q 447 1150 447 2328 
Q 447 3434 972 4092 
Q 1497 4750 2381 4750 
Q 2619 4750 2861 4703 
Q 3103 4656 3366 4563 
z
" transform="scale(0.015625)"/>
       </defs>
       <use xlink:href="#DejaVuSans-30"/>
       <use xlink:href="#DejaVuSans-2e" x="63.623047"/>
       <use xlink:href="#DejaVuSans-36" x="95.410156"/>
      </g>
     </g>
    </g>
    <g id="xtick_5">
     <g id="line2d_5">
      <g>
       <use xlink:href="#mf9ffb3f19a" x="346.697143" y="307.584" style="stroke: #000000; stroke-width: 0.8"/>
      </g>
     </g>
     <g id="text_5">
      <!-- 0.8 -->
      <g transform="translate(338.74558 322.182437)scale(0.1 -0.1)">
       <defs>
        <path id="DejaVuSans-38" d="M 2034 2216 
Q 1584 2216 1326 1975 
Q 1069 1734 1069 1313 
Q 1069 891 1326 650 
Q 1584 409 2034 409 
Q 2484 409 2743 651 
Q 3003 894 3003 1313 
Q 3003 1734 2745 1975 
Q 2488 2216 2034 2216 
z
M 1403 2484 
Q 997 2584 770 2862 
Q 544 3141 544 3541 
Q 544 4100 942 4425 
Q 1341 4750 2034 4750 
Q 2731 4750 3128 4425 
Q 3525 4100 3525 3541 
Q 3525 3141 3298 2862 
Q 3072 2584 2669 2484 
Q 3125 2378 3379 2068 
Q 3634 1759 3634 1313 
Q 3634 634 3220 271 
Q 2806 -91 2034 -91 
Q 1263 -91 848 271 
Q 434 634 434 1313 
Q 434 1759 690 2068 
Q 947 2378 1403 2484 
z
M 1172 3481 
Q 1172 3119 1398 2916 
Q 1625 2713 2034 2713 
Q 2441 2713 2670 2916 
Q 2900 3119 2900 3481 
Q 2900 3844 2670 4047 
Q 2441 4250 2034 4250 
Q 1625 4250 1398 4047 
Q 1172 3844 1172 3481 
z
" transform="scale(0.015625)"/>
       </defs>
       <use xlink:href="#DejaVuSans-30"/>
       <use xlink:href="#DejaVuSans-2e" x="63.623047"/>
       <use xlink:href="#DejaVuSans-38" x="95.410156"/>
      </g>
     </g>
    </g>
    <g id="xtick_6">
     <g id="line2d_6">
      <g>
       <use xlink:href="#mf9ffb3f19a" x="414.72" y="307.584" style="stroke: #000000; stroke-width: 0.8"/>
      </g>
     </g>
     <g id="text_6">
      <!-- 1.0 -->
      <g transform="translate(406.768438 322.182437)scale(0.1 -0.1)">
       <defs>
        <path id="DejaVuSans-31" d="M 794 531 
L 1825 531 
L 1825 4091 
L 703 3866 
L 703 4441 
L 1819 4666 
L 2450 4666 
L 2450 531 
L 3481 531 
L 3481 0 
L 794 0 
L 794 531 
z
" transform="scale(0.015625)"/>
       </defs>
       <use xlink:href="#DejaVuSans-31"/>
       <use xlink:href="#DejaVuSans-2e" x="63.623047"/>
       <use xlink:href="#DejaVuSans-30" x="95.410156"/>
      </g>
     </g>
    </g>
    <g id="text_7">
     <!-- False Positive Rate -->
     <g transform="translate(189.693594 335.860562)scale(0.1 -0.1)">
      <defs>
       <path id="DejaVuSans-46" d="M 628 4666 
L 3309 4666 
L 3309 4134 
L 1259 4134 
L 1259 2759 
L 3109 2759 
L 3109 2228 
L 1259 2228 
L 1259 0 
L 628 0 
L 628 4666 
z
" transform="scale(0.015625)"/>
       <path id="DejaVuSans-61" d="M 2194 1759 
Q 1497 1759 1228 1600 
Q 959 1441 959 1056 
Q 959 750 1161 570 
Q 1363 391 1709 391 
Q 2188 391 2477 730 
Q 2766 1069 2766 1631 
L 2766 1759 
L 2194 1759 
z
M 3341 1997 
L 3341 0 
L 2766 0 
L 2766 531 
Q 2569 213 2275 61 
Q 1981 -91 1556 -91 
Q 1019 -91 701 211 
Q 384 513 384 1019 
Q 384 1609 779 1909 
Q 1175 2209 1959 2209 
L 2766 2209 
L 2766 2266 
Q 2766 2663 2505 2880 
Q 2244 3097 1772 3097 
Q 1472 3097 1187 3025 
Q 903 2953 641 2809 
L 641 3341 
Q 956 3463 1253 3523 
Q 1550 3584 1831 3584 
Q 2591 3584 2966 3190 
Q 3341 2797 3341 1997 
z
" transform="scale(0.015625)"/>
       <path id="DejaVuSans-6c" d="M 603 4863 
L 1178 4863 
L 1178 0 
L 603 0 
L 603 4863 
z
" transform="scale(0.015625)"/>
       <path id="DejaVuSans-73" d="M 2834 3397 
L 2834 2853 
Q 2591 2978 2328 3040 
Q 2066 3103 1784 3103 
Q 1356 3103 1142 2972 
Q 928 2841 928 2578 
Q 928 2378 1081 2264 
Q 1234 2150 1697 2047 
L 1894 2003 
Q 2506 1872 2764 1633 
Q 3022 1394 3022 966 
Q 3022 478 2636 193 
Q 2250 -91 1575 -91 
Q 1294 -91 989 -36 
Q 684 19 347 128 
L 347 722 
Q 666 556 975 473 
Q 1284 391 1588 391 
Q 1994 391 2212 530 
Q 2431 669 2431 922 
Q 2431 1156 2273 1281 
Q 2116 1406 1581 1522 
L 1381 1569 
Q 847 1681 609 1914 
Q 372 2147 372 2553 
Q 372 3047 722 3315 
Q 1072 3584 1716 3584 
Q 2034 3584 2315 3537 
Q 2597 3491 2834 3397 
z
" transform="scale(0.015625)"/>
       <path id="DejaVuSans-65" d="M 3597 1894 
L 3597 1613 
L 953 1613 
Q 991 1019 1311 708 
Q 1631 397 2203 397 
Q 2534 397 2845 478 
Q 3156 559 3463 722 
L 3463 178 
Q 3153 47 2828 -22 
Q 2503 -91 2169 -91 
Q 1331 -91 842 396 
Q 353 884 353 1716 
Q 353 2575 817 3079 
Q 1281 3584 2069 3584 
Q 2775 3584 3186 3129 
Q 3597 2675 3597 1894 
z
M 3022 2063 
Q 3016 2534 2758 2815 
Q 2500 3097 2075 3097 
Q 1594 3097 1305 2825 
Q 1016 2553 972 2059 
L 3022 2063 
z
" transform="scale(0.015625)"/>
       <path id="DejaVuSans-20" transform="scale(0.015625)"/>
       <path id="DejaVuSans-50" d="M 1259 4147 
L 1259 2394 
L 2053 2394 
Q 2494 2394 2734 2622 
Q 2975 2850 2975 3272 
Q 2975 3691 2734 3919 
Q 2494 4147 2053 4147 
L 1259 4147 
z
M 628 4666 
L 2053 4666 
Q 2838 4666 3239 4311 
Q 3641 3956 3641 3272 
Q 3641 2581 3239 2228 
Q 2838 1875 2053 1875 
L 1259 1875 
L 1259 0 
L 628 0 
L 628 4666 
z
" transform="scale(0.015625)"/>
       <path id="DejaVuSans-6f" d="M 1959 3097 
Q 1497 3097 1228 2736 
Q 959 2375 959 1747 
Q 959 1119 1226 758 
Q 1494 397 1959 397 
Q 2419 397 2687 759 
Q 2956 1122 2956 1747 
Q 2956 2369 2687 2733 
Q 2419 3097 1959 3097 
z
M 1959 3584 
Q 2709 3584 3137 3096 
Q 3566 2609 3566 1747 
Q 3566 888 3137 398 
Q 2709 -91 1959 -91 
Q 1206 -91 779 398 
Q 353 888 353 1747 
Q 353 2609 779 3096 
Q 1206 3584 1959 3584 
z
" transform="scale(0.015625)"/>
       <path id="DejaVuSans-69" d="M 603 3500 
L 1178 3500 
L 1178 0 
L 603 0 
L 603 3500 
z
M 603 4863 
L 1178 4863 
L 1178 4134 
L 603 4134 
L 603 4863 
z
" transform="scale(0.015625)"/>
       <path id="DejaVuSans-74" d="M 1172 4494 
L 1172 3500 
L 2356 3500 
L 2356 3053 
L 1172 3053 
L 1172 1153 
Q 1172 725 1289 603 
Q 1406 481 1766 481 
L 2356 481 
L 2356 0 
L 1766 0 
Q 1100 0 847 248 
Q 594 497 594 1153 
L 594 3053 
L 172 3053 
L 172 3500 
L 594 3500 
L 594 4494 
L 1172 4494 
z
" transform="scale(0.015625)"/>
       <path id="DejaVuSans-76" d="M 191 3500 
L 800 3500 
L 1894 563 
L 2988 3500 
L 3597 3500 
L 2284 0 
L 1503 0 
L 191 3500 
z
" transform="scale(0.015625)"/>
       <path id="DejaVuSans-52" d="M 2841 2188 
Q 3044 2119 3236 1894 
Q 3428 1669 3622 1275 
L 4263 0 
L 3584 0 
L 2988 1197 
Q 2756 1666 2539 1819 
Q 2322 1972 1947 1972 
L 1259 1972 
L 1259 0 
L 628 0 
L 628 4666 
L 2053 4666 
Q 2853 4666 3247 4331 
Q 3641 3997 3641 3322 
Q 3641 2881 3436 2590 
Q 3231 2300 2841 2188 
z
M 1259 4147 
L 1259 2491 
L 2053 2491 
Q 2509 2491 2742 2702 
Q 2975 2913 2975 3322 
Q 2975 3731 2742 3939 
Q 2509 4147 2053 4147 
L 1259 4147 
z
" transform="scale(0.015625)"/>
      </defs>
      <use xlink:href="#DejaVuSans-46"/>
      <use xlink:href="#DejaVuSans-61" x="48.394531"/>
      <use xlink:href="#DejaVuSans-6c" x="109.673828"/>
      <use xlink:href="#DejaVuSans-73" x="137.457031"/>
      <use xlink:href="#DejaVuSans-65" x="189.556641"/>
      <use xlink:href="#DejaVuSans-20" x="251.080078"/>
      <use xlink:href="#DejaVuSans-50" x="282.867188"/>
      <use xlink:href="#DejaVuSans-6f" x="339.544922"/>
      <use xlink:href="#DejaVuSans-73" x="400.726562"/>
      <use xlink:href="#DejaVuSans-69" x="452.826172"/>
      <use xlink:href="#DejaVuSans-74" x="480.609375"/>
      <use xlink:href="#DejaVuSans-69" x="519.818359"/>
      <use xlink:href="#DejaVuSans-76" x="547.601562"/>
      <use xlink:href="#DejaVuSans-65" x="606.78125"/>
      <use xlink:href="#DejaVuSans-20" x="668.304688"/>
      <use xlink:href="#DejaVuSans-52" x="700.091797"/>
      <use xlink:href="#DejaVuSans-61" x="767.324219"/>
      <use xlink:href="#DejaVuSans-74" x="828.603516"/>
      <use xlink:href="#DejaVuSans-65" x="867.8125"/>
     </g>
    </g>
   </g>
   <g id="matplotlib.axis_2">
    <g id="ytick_1">
     <g id="line2d_7">
      <defs>
       <path id="m8eadbef0d2" d="M 0 0 
L -3.5 0 
" style="stroke: #000000; stroke-width: 0.8"/>
      </defs>
      <g>
       <use xlink:href="#m8eadbef0d2" x="57.6" y="307.584" style="stroke: #000000; stroke-width: 0.8"/>
      </g>
     </g>
     <g id="text_8">
      <!-- 0.0 -->
      <g transform="translate(34.696875 311.383219)scale(0.1 -0.1)">
       <use xlink:href="#DejaVuSans-30"/>
       <use xlink:href="#DejaVuSans-2e" x="63.623047"/>
       <use xlink:href="#DejaVuSans-30" x="95.410156"/>
      </g>
     </g>
    </g>
    <g id="ytick_2">
     <g id="line2d_8">
      <g>
       <use xlink:href="#m8eadbef0d2" x="57.6" y="256.896" style="stroke: #000000; stroke-width: 0.8"/>
      </g>
     </g>
     <g id="text_9">
      <!-- 0.2 -->
      <g transform="translate(34.696875 260.695219)scale(0.1 -0.1)">
       <use xlink:href="#DejaVuSans-30"/>
       <use xlink:href="#DejaVuSans-2e" x="63.623047"/>
       <use xlink:href="#DejaVuSans-32" x="95.410156"/>
      </g>
     </g>
    </g>
    <g id="ytick_3">
     <g id="line2d_9">
      <g>
       <use xlink:href="#m8eadbef0d2" x="57.6" y="206.208" style="stroke: #000000; stroke-width: 0.8"/>
      </g>
     </g>
     <g id="text_10">
      <!-- 0.4 -->
      <g transform="translate(34.696875 210.007219)scale(0.1 -0.1)">
       <use xlink:href="#DejaVuSans-30"/>
       <use xlink:href="#DejaVuSans-2e" x="63.623047"/>
       <use xlink:href="#DejaVuSans-34" x="95.410156"/>
      </g>
     </g>
    </g>
    <g id="ytick_4">
     <g id="line2d_10">
      <g>
       <use xlink:href="#m8eadbef0d2" x="57.6" y="155.52" style="stroke: #000000; stroke-width: 0.8"/>
      </g>
     </g>
     <g id="text_11">
      <!-- 0.6 -->
      <g transform="translate(34.696875 159.319219)scale(0.1 -0.1)">
       <use xlink:href="#DejaVuSans-30"/>
       <use xlink:href="#DejaVuSans-2e" x="63.623047"/>
       <use xlink:href="#DejaVuSans-36" x="95.410156"/>
      </g>
     </g>
    </g>
    <g id="ytick_5">
     <g id="line2d_11">
      <g>
       <use xlink:href="#m8eadbef0d2" x="57.6" y="104.832" style="stroke: #000000; stroke-width: 0.8"/>
      </g>
     </g>
     <g id="text_12">
      <!-- 0.8 -->
      <g transform="translate(34.696875 108.631219)scale(0.1 -0.1)">
       <use xlink:href="#DejaVuSans-30"/>
       <use xlink:href="#DejaVuSans-2e" x="63.623047"/>
       <use xlink:href="#DejaVuSans-38" x="95.410156"/>
      </g>
     </g>
    </g>
    <g id="ytick_6">
     <g id="line2d_12">
      <g>
       <use xlink:href="#m8eadbef0d2" x="57.6" y="54.144" style="stroke: #000000; stroke-width: 0.8"/>
      </g>
     </g>
     <g id="text_13">
      <!-- 1.0 -->
      <g transform="translate(34.696875 57.943219)scale(0.1 -0.1)">
       <use xlink:href="#DejaVuSans-31"/>
       <use xlink:href="#DejaVuSans-2e" x="63.623047"/>
       <use xlink:href="#DejaVuSans-30" x="95.410156"/>
      </g>
     </g>
    </g>
    <g id="text_14">
     <!-- True Positive Rate -->
     <g transform="translate(28.617187 219.057687)rotate(-90)scale(0.1 -0.1)">
      <defs>
       <path id="DejaVuSans-54" d="M -19 4666 
L 3928 4666 
L 3928 4134 
L 2272 4134 
L 2272 0 
L 1638 0 
L 1638 4134 
L -19 4134 
L -19 4666 
z
" transform="scale(0.015625)"/>
       <path id="DejaVuSans-72" d="M 2631 2963 
Q 2534 3019 2420 3045 
Q 2306 3072 2169 3072 
Q 1681 3072 1420 2755 
Q 1159 2438 1159 1844 
L 1159 0 
L 581 0 
L 581 3500 
L 1159 3500 
L 1159 2956 
Q 1341 3275 1631 3429 
Q 1922 3584 2338 3584 
Q 2397 3584 2469 3576 
Q 2541 3569 2628 3553 
L 2631 2963 
z
" transform="scale(0.015625)"/>
       <path id="DejaVuSans-75" d="M 544 1381 
L 544 3500 
L 1119 3500 
L 1119 1403 
Q 1119 906 1312 657 
Q 1506 409 1894 409 
Q 2359 409 2629 706 
Q 2900 1003 2900 1516 
L 2900 3500 
L 3475 3500 
L 3475 0 
L 2900 0 
L 2900 538 
Q 2691 219 2414 64 
Q 2138 -91 1772 -91 
Q 1169 -91 856 284 
Q 544 659 544 1381 
z
M 1991 3584 
L 1991 3584 
z
" transform="scale(0.015625)"/>
      </defs>
      <use xlink:href="#DejaVuSans-54"/>
      <use xlink:href="#DejaVuSans-72" x="46.333984"/>
      <use xlink:href="#DejaVuSans-75" x="87.447266"/>
      <use xlink:href="#DejaVuSans-65" x="150.826172"/>
      <use xlink:href="#DejaVuSans-20" x="212.349609"/>
      <use xlink:href="#DejaVuSans-50" x="244.136719"/>
      <use xlink:href="#DejaVuSans-6f" x="300.814453"/>
      <use xlink:href="#DejaVuSans-73" x="361.996094"/>
      <use xlink:href="#DejaVuSans-69" x="414.095703"/>
      <use xlink:href="#DejaVuSans-74" x="441.878906"/>
      <use xlink:href="#DejaVuSans-69" x="481.087891"/>
      <use xlink:href="#DejaVuSans-76" x="508.871094"/>
      <use xlink:href="#DejaVuSans-65" x="568.050781"/>
      <use xlink:href="#DejaVuSans-20" x="629.574219"/>
      <use xlink:href="#DejaVuSans-52" x="661.361328"/>
      <use xlink:href="#DejaVuSans-61" x="728.59375"/>
      <use xlink:href="#DejaVuSans-74" x="789.873047"/>
      <use xlink:href="#DejaVuSans-65" x="829.082031"/>
     </g>
    </g>
   </g>
   <g id="line2d_13">
    <path d="M 74.605714 307.584 
L 74.716671 306.546884 
L 74.801668 306.43695 
L 74.909768 306.291754 
L 74.912707 306.291754 
L 74.986029 306.181819 
L 75.094005 306.088479 
L 75.09711 306.088479 
L 75.336825 305.978545 
L 75.44302 305.959877 
L 75.447905 305.959877 
L 76.83904 305.849942 
L 76.948589 305.8292 
L 76.950058 305.8292 
L 78.68257 305.719266 
L 78.768147 305.708895 
L 78.79365 305.708895 
L 79.620316 305.59896 
L 79.689871 305.586515 
L 79.731396 305.586515 
L 80.343643 305.476581 
L 80.446774 305.462061 
L 80.454599 305.462061 
L 80.988183 305.352127 
L 81.086802 305.321013 
L 81.099263 305.321013 
L 81.389571 305.211079 
L 81.486617 305.171669 
L 81.500403 305.171669 
L 81.780734 305.061734 
L 81.887881 305.024398 
L 81.891524 305.024398 
L 82.211393 304.914464 
L 82.319699 304.885425 
L 82.322225 304.885425 
L 82.635097 304.77549 
L 82.74597 304.731931 
L 83.078176 304.621997 
L 83.1864 304.576364 
L 83.189257 304.576364 
L 83.549161 304.46643 
L 83.659041 304.424945 
L 83.659827 304.424945 
L 84.053349 304.315011 
L 84.164347 304.281823 
L 84.164409 304.281823 
L 84.581758 304.171889 
L 84.690271 304.134553 
L 84.692818 304.134553 
L 84.985092 304.024618 
L 85.089673 303.999728 
L 85.096131 303.999728 
L 85.439371 303.888756 
L 85.532421 303.846234 
L 85.550389 303.846234 
L 85.814821 303.7363 
L 85.923314 303.686519 
L 85.925819 303.686519 
L 86.272288 303.576584 
L 86.375689 303.524729 
L 86.383327 303.524729 
L 86.657364 303.414794 
L 86.767389 303.362938 
L 86.768383 303.362938 
L 87.062541 303.253004 
L 87.169481 303.188703 
L 87.173621 303.188703 
L 87.403193 303.078769 
L 87.513404 303.028987 
L 87.514274 303.028987 
L 87.705114 302.918016 
L 87.81754 302.852677 
L 87.988653 302.741706 
L 88.098616 302.653551 
L 88.099734 302.653551 
L 88.327856 302.543617 
L 88.438854 302.487613 
L 88.438937 302.487613 
L 88.701174 302.377678 
L 88.814656 302.317526 
L 89.025183 302.207591 
L 89.025183 302.206554 
L 89.137154 302.161958 
L 89.311517 302.052024 
L 89.419451 301.989797 
L 89.422597 301.989797 
L 89.634946 301.878826 
L 89.744287 301.798968 
L 89.746026 301.798968 
L 89.952537 301.687996 
L 90.064777 301.628881 
L 90.273151 301.518947 
L 90.37591 301.448423 
L 90.38419 301.448423 
L 90.543835 301.337451 
L 90.653549 301.276261 
L 90.654874 301.276261 
L 90.845694 301.166327 
L 90.955367 301.089581 
L 90.956754 301.089581 
L 91.144944 300.979646 
L 91.144944 300.978609 
L 91.257619 300.900825 
L 91.472886 300.790891 
L 91.578916 300.728664 
L 91.583967 300.728664 
L 91.767086 300.61873 
L 91.876593 300.546132 
L 91.878084 300.546132 
L 92.028496 300.43516 
L 92.136347 300.357377 
L 92.139576 300.357377 
L 92.302409 300.247442 
L 92.40583 300.170696 
L 92.413406 300.170696 
L 92.593627 300.060762 
L 92.705432 299.988164 
L 92.902773 299.877192 
L 93.015178 299.811854 
L 93.189251 299.700882 
L 93.30176 299.631396 
L 93.469933 299.521461 
L 93.580351 299.444715 
L 93.581014 299.444715 
L 93.764568 299.333743 
L 93.877077 299.264257 
L 94.055352 299.154322 
L 94.055352 299.153285 
L 94.171483 299.071353 
L 94.386461 298.960382 
L 94.497355 298.892969 
L 94.497562 298.892969 
L 94.679191 298.783035 
L 94.787497 298.708363 
L 94.790292 298.708363 
L 94.968629 298.597391 
L 95.071057 298.534127 
L 95.079627 298.534127 
L 95.237305 298.424193 
L 95.348903 298.355743 
L 95.504407 298.245809 
L 95.504407 298.244772 
L 95.617061 298.164914 
L 95.77387 298.05498 
L 95.886275 297.990678 
L 96.049107 297.879707 
L 96.161761 297.801923 
L 96.364277 297.691989 
L 96.476744 297.623539 
L 96.653922 297.512568 
L 96.764009 297.422339 
L 96.765003 297.422339 
L 96.892851 297.311368 
L 96.998611 297.258475 
L 97.003931 297.258475 
L 97.151818 297.147503 
L 97.257309 297.080091 
L 97.262898 297.080091 
L 97.466263 296.969119 
L 97.578565 296.910004 
L 97.72109 296.800069 
L 97.72109 296.799032 
L 97.835275 296.723323 
L 97.97749 296.613389 
L 98.088156 296.509677 
L 98.08857 296.509677 
L 98.253286 296.398706 
L 98.364222 296.329219 
L 98.364367 296.329219 
L 98.524136 296.218247 
L 98.636955 296.132167 
L 98.807633 296.021195 
L 98.916436 295.945486 
L 98.918589 295.945486 
L 99.072769 295.835552 
L 99.176356 295.77125 
L 99.183849 295.77125 
L 99.369204 295.661316 
L 99.479332 295.565902 
L 99.480285 295.565902 
L 99.6367 295.455967 
L 99.748732 295.360553 
L 99.915291 295.250618 
L 100.010805 295.17802 
L 100.026392 295.17802 
L 100.188831 295.068086 
L 100.294944 294.974746 
L 100.299912 294.974746 
L 100.432832 294.864811 
L 100.432832 294.863774 
L 100.54563 294.779768 
L 100.748953 294.669833 
L 100.857674 294.574419 
L 100.860055 294.574419 
L 100.99906 294.463447 
L 101.102813 294.389812 
L 101.110141 294.389812 
L 101.24482 294.278841 
L 101.350353 294.196909 
L 101.355901 294.196909 
L 101.525316 294.086974 
L 101.635817 293.995708 
L 101.636314 293.995708 
L 101.810614 293.885774 
L 101.917596 293.811102 
L 101.921695 293.811102 
L 102.057554 293.70013 
L 102.167123 293.609901 
L 102.168614 293.609901 
L 102.313478 293.49893 
L 102.425945 293.431517 
L 102.551082 293.321583 
L 102.661624 293.238614 
L 102.662162 293.238614 
L 102.826754 293.128679 
L 102.939553 293.043636 
L 103.053863 292.933702 
L 103.166827 292.840361 
L 103.3291 292.730427 
L 103.439891 292.628789 
L 103.440181 292.628789 
L 103.579683 292.518855 
L 103.688673 292.425515 
L 103.690702 292.425515 
L 103.854342 292.314543 
L 103.963414 292.220166 
L 103.965443 292.220166 
L 104.07317 292.109194 
L 104.176425 292.037633 
L 104.184229 292.037633 
L 104.357888 291.927699 
L 104.468679 291.850953 
L 104.468907 291.850953 
L 104.597024 291.741018 
L 104.706096 291.660123 
L 104.708125 291.660123 
L 104.821048 291.549152 
L 104.931797 291.446477 
L 104.932149 291.446477 
L 105.078731 291.335506 
L 105.186541 291.255648 
L 105.189833 291.255648 
L 105.337284 291.144677 
L 105.447081 291.052373 
L 105.448323 291.052373 
L 105.579504 290.941402 
L 105.692758 290.832505 
L 105.832364 290.721533 
L 105.94715 290.627156 
L 106.066242 290.516184 
L 106.177302 290.430104 
L 106.177343 290.430104 
L 106.293371 290.319132 
L 106.403706 290.233052 
L 106.404472 290.233052 
L 106.50129 290.12208 
L 106.611998 290.042223 
L 106.612329 290.042223 
L 106.741419 289.931251 
L 106.852437 289.851393 
L 106.85252 289.851393 
L 106.975607 289.740422 
L 107.086563 289.65849 
L 107.086708 289.65849 
L 107.192696 289.548555 
L 107.192696 289.547518 
L 107.305681 289.453141 
L 107.445722 289.342169 
L 107.556616 289.243643 
L 107.556823 289.243643 
L 107.681442 289.132672 
L 107.789997 289.023775 
L 107.792523 289.023775 
L 107.934571 288.91384 
L 108.045548 288.818426 
L 108.045611 288.818426 
L 108.173541 288.707454 
L 108.284042 288.594409 
L 108.284643 288.594409 
L 108.40419 288.483437 
L 108.514546 288.407728 
L 108.515291 288.407728 
L 108.629228 288.297794 
L 108.739915 288.189934 
L 108.740329 288.189934 
L 108.865652 288.078962 
L 108.974869 287.976288 
L 108.976732 287.976288 
L 109.115842 287.865316 
L 109.21858 287.764716 
L 109.226881 287.764716 
L 109.367853 287.653745 
L 109.480921 287.555219 
L 109.614089 287.445284 
L 109.72695 287.358167 
L 109.860201 287.248232 
L 109.969998 287.171486 
L 109.971302 287.171486 
L 110.125419 287.061552 
L 110.24064 286.959914 
L 110.408109 286.84998 
L 110.5189 286.73486 
L 110.519148 286.73486 
L 110.622652 286.623889 
L 110.735844 286.516029 
L 110.841998 286.406094 
L 110.841998 286.405057 
L 110.955459 286.286826 
L 111.05977 286.175855 
L 111.172672 286.086663 
L 111.287562 285.975691 
L 111.402989 285.868868 
L 111.507777 285.758934 
L 111.616911 285.669742 
L 111.618837 285.669742 
L 111.761983 285.558771 
L 111.87503 285.460245 
L 111.987642 285.349273 
L 112.107603 285.24245 
L 112.187446 285.131479 
L 112.305151 285.024656 
L 112.415051 284.914722 
L 112.525304 284.792342 
L 112.52607 284.792342 
L 112.632948 284.682408 
L 112.632948 284.681371 
L 112.74616 284.572474 
L 112.880964 284.462539 
L 112.880964 284.461502 
L 112.994342 284.348457 
L 113.124074 284.237485 
L 113.237949 284.0954 
L 113.361905 283.985466 
L 113.471827 283.892126 
L 113.472945 283.892126 
L 113.583156 283.782191 
L 113.692704 283.645292 
L 113.694174 283.645292 
L 113.810409 283.535358 
L 113.91975 283.442017 
L 113.921489 283.442017 
L 114.027891 283.332083 
L 114.136612 283.197258 
L 114.138951 283.197258 
L 114.243262 283.086287 
L 114.353494 282.989835 
L 114.354343 282.989835 
L 114.432323 282.878863 
L 114.540961 282.749224 
L 114.54332 282.749224 
L 114.640055 282.63929 
L 114.750618 282.504465 
L 114.751136 282.504465 
L 114.867329 282.393493 
L 114.985531 282.278373 
L 115.102263 282.167402 
L 115.213012 282.025317 
L 115.21326 282.025317 
L 115.316516 281.914346 
L 115.426685 281.76189 
L 115.427596 281.76189 
L 115.589311 281.650918 
L 115.699563 281.515056 
L 115.700391 281.515056 
L 115.804744 281.404085 
L 115.91361 281.259926 
L 115.915824 281.259926 
L 116.015685 281.148954 
L 116.128939 281.040057 
L 116.236128 280.929086 
L 116.35404 280.757961 
L 116.439492 280.648027 
L 116.548027 280.480014 
L 116.550552 280.480014 
L 116.650951 280.369043 
L 116.760727 280.216587 
L 116.762011 280.216587 
L 116.866529 280.105616 
L 116.979949 279.988421 
L 117.102974 279.878487 
L 117.215172 279.768553 
L 117.324244 279.658619 
L 117.43665 279.523794 
L 117.540485 279.412822 
L 117.656575 279.289405 
L 117.759209 279.178434 
L 117.866191 279.050869 
L 117.87029 279.050869 
L 117.966694 278.939897 
L 118.076635 278.814406 
L 118.077795 278.814406 
L 118.163744 278.704472 
L 118.277682 278.563424 
L 118.353798 278.452453 
L 118.474236 278.299997 
L 118.548096 278.189025 
L 118.65692 278.06146 
L 118.659176 278.06146 
L 118.762287 277.950489 
L 118.871836 277.812552 
L 118.873388 277.812552 
L 118.981281 277.701581 
L 119.095032 277.569867 
L 119.2152 277.458896 
L 119.324914 277.331331 
L 119.326301 277.331331 
L 119.409725 277.221396 
L 119.523579 277.082423 
L 119.620997 276.972489 
L 119.620997 276.971451 
L 119.738599 276.810699 
L 119.843407 276.699727 
L 119.945544 276.60535 
L 119.954446 276.60535 
L 120.054513 276.494378 
L 120.170935 276.362664 
L 120.259472 276.25273 
L 120.378315 276.099237 
L 120.474077 275.989303 
L 120.474077 275.988266 
L 120.592465 275.868997 
L 120.67738 275.758026 
L 120.787466 275.613867 
L 120.788439 275.613867 
L 120.862238 275.502895 
L 120.978514 275.37533 
L 121.088477 275.264359 
L 121.196349 275.132645 
L 121.199578 275.132645 
L 121.263874 275.021674 
L 121.383753 274.878552 
L 121.479121 274.76758 
L 121.593203 274.618236 
L 121.702462 274.508301 
L 121.815075 274.354808 
L 121.895021 274.243837 
L 122.00546 274.110049 
L 122.006122 274.110049 
L 122.087311 274.000115 
L 122.200068 273.832102 
L 122.310258 273.722168 
L 122.310258 273.72113 
L 122.424734 273.552081 
L 122.524118 273.442146 
L 122.636399 273.315618 
L 122.722204 273.204647 
L 122.83639 273.050116 
L 122.921304 272.939145 
L 123.031846 272.790838 
L 123.032405 272.790838 
L 123.114277 272.680903 
L 123.232334 272.544004 
L 123.339709 272.43407 
L 123.450313 272.241166 
L 123.45081 272.241166 
L 123.540982 272.131232 
L 123.651525 271.990184 
L 123.652042 271.990184 
L 123.73706 271.88025 
L 123.846009 271.737128 
L 123.848141 271.737128 
L 123.931772 271.626156 
L 124.041631 271.477849 
L 124.042873 271.477849 
L 124.126194 271.366877 
L 124.240359 271.214421 
L 124.326371 271.10345 
L 124.443785 270.946846 
L 124.544826 270.835874 
L 124.671556 270.644008 
L 124.755332 270.533036 
L 124.869373 270.384729 
L 124.955965 270.273757 
L 125.069736 270.137895 
L 125.14341 270.027961 
L 125.14341 270.026924 
L 125.261384 269.8558 
L 125.351702 269.745865 
L 125.461436 269.569556 
L 125.462699 269.569556 
L 125.533662 269.458584 
L 125.640726 269.333093 
L 125.644742 269.333093 
L 125.727214 269.222122 
L 125.835231 269.061369 
L 125.838315 269.061369 
L 125.903005 268.950398 
L 126.013485 268.804164 
L 126.014106 268.804164 
L 126.096288 268.693193 
L 126.206085 268.553182 
L 126.207369 268.553182 
L 126.288702 268.442211 
L 126.409616 268.281458 
L 126.48656 268.170486 
L 126.600684 268.020105 
L 126.71783 267.87076 
L 126.805974 267.759789 
L 126.916268 267.58659 
L 126.917054 267.58659 
L 127.014265 267.475619 
L 127.128347 267.327311 
L 127.204402 267.217377 
L 127.204402 267.21634 
L 127.318443 267.070106 
L 127.3999 266.959135 
L 127.508724 266.808753 
L 127.510981 266.808753 
L 127.589519 266.698819 
L 127.698302 266.495544 
L 127.7006 266.495544 
L 127.783983 266.384573 
L 127.900839 266.242488 
L 127.968261 266.131517 
L 128.091555 265.931353 
L 128.16881 265.820382 
L 128.283803 265.626441 
L 128.349363 265.51547 
L 128.457255 265.383756 
L 128.460464 265.383756 
L 128.534221 265.272785 
L 128.644163 265.124477 
L 128.645219 265.124477 
L 128.706658 265.013506 
L 128.83076 264.854827 
L 128.910209 264.744893 
L 129.021186 264.583103 
L 129.021269 264.583103 
L 129.098814 264.472131 
L 129.207369 264.286488 
L 129.209874 264.286488 
L 129.271273 264.175516 
L 129.385272 264.031357 
L 129.452529 263.920386 
L 129.562057 263.732668 
L 129.56363 263.732668 
L 129.68239 263.541838 
L 129.763931 263.431904 
L 129.876729 263.259743 
L 129.938894 263.149809 
L 130.049602 262.96935 
L 130.049974 262.96935 
L 130.113609 262.859416 
L 130.113609 262.858379 
L 130.228188 262.681032 
L 130.315483 262.570061 
L 130.433829 262.39064 
L 130.506965 262.281743 
L 130.506965 262.279668 
L 130.621937 262.085728 
L 130.684226 261.975793 
L 130.798722 261.801558 
L 130.890551 261.690587 
L 131.021463 261.446864 
L 131.097393 261.335893 
L 131.208349 261.187585 
L 131.208474 261.187585 
L 131.273164 261.077651 
L 131.383871 260.911713 
L 131.384265 260.911713 
L 131.448665 260.801778 
L 131.448665 260.800741 
L 131.571773 260.602652 
L 131.633606 260.491681 
L 131.752428 260.299814 
L 131.835646 260.188843 
L 131.950638 259.994902 
L 132.022801 259.883931 
L 132.146551 259.67547 
L 132.201035 259.565536 
L 132.201035 259.564499 
L 132.320313 259.360187 
L 132.3926 259.249216 
L 132.510264 259.086389 
L 132.596255 258.975417 
L 132.70688 258.783551 
L 132.707335 258.783551 
L 132.779457 258.673617 
L 132.779457 258.672579 
L 132.894201 258.491084 
L 132.961003 258.380113 
L 133.071255 258.227657 
L 133.072063 258.227657 
L 133.128307 258.116685 
L 133.247771 257.909262 
L 133.308424 257.798291 
L 133.425736 257.644798 
L 133.501397 257.533826 
L 133.612374 257.351294 
L 133.612498 257.351294 
L 133.727429 257.159427 
L 133.776697 257.049493 
L 133.887343 256.854515 
L 133.887798 256.854515 
L 134.010512 256.663686 
L 134.090355 256.552715 
L 134.201084 256.340106 
L 134.201394 256.340106 
L 134.258218 256.229135 
L 134.377372 256.028971 
L 134.465205 255.918 
L 134.594627 255.692946 
L 134.662484 255.583011 
L 134.773399 255.373514 
L 134.773502 255.373514 
L 134.854629 255.262543 
L 134.965626 255.062379 
L 134.96573 255.062379 
L 135.024002 254.952445 
L 135.141045 254.755393 
L 135.212152 254.644421 
L 135.322881 254.427664 
L 135.323253 254.427664 
L 135.438639 254.211944 
L 135.491033 254.100973 
L 135.605488 253.933997 
L 135.656971 253.823026 
L 135.776393 253.61664 
L 135.856319 253.506705 
L 135.856319 253.505668 
L 135.970319 253.361509 
L 136.020497 253.250538 
L 136.139071 253.064894 
L 136.19662 252.95496 
L 136.19662 252.953923 
L 136.316456 252.737165 
L 136.369492 252.627231 
L 136.478564 252.438476 
L 136.48051 252.438476 
L 136.539445 252.328542 
L 136.65448 252.13149 
L 136.70942 252.020518 
L 136.817354 251.809984 
L 136.8205 251.809984 
L 136.880491 251.699012 
L 137.000618 251.473958 
L 137.05976 251.364024 
L 137.170261 251.154527 
L 137.17084 251.154527 
L 137.224248 251.043555 
L 137.335329 250.846503 
L 137.394409 250.735532 
L 137.520539 250.550925 
L 137.587589 250.439954 
L 137.698338 250.248087 
L 137.698545 250.248087 
L 137.765264 250.137116 
L 137.876137 249.957695 
L 137.876282 249.957695 
L 137.938302 249.847761 
L 137.938302 249.846724 
L 138.049237 249.65382 
L 138.049382 249.65382 
L 138.117198 249.542849 
L 138.228278 249.320906 
L 138.278333 249.210972 
L 138.38931 248.997326 
L 138.389434 248.997326 
L 138.458492 248.886354 
L 138.574064 248.6613 
L 138.635028 248.550329 
L 138.750021 248.356388 
L 138.821149 248.245417 
L 138.936515 248.032808 
L 139.009733 247.922874 
L 139.118309 247.734119 
L 139.120793 247.734119 
L 139.182026 247.624184 
L 139.300662 247.437503 
L 139.365207 247.327569 
L 139.365207 247.326532 
L 139.485106 247.107701 
L 139.539881 246.996729 
L 139.664168 246.779972 
L 139.720267 246.670038 
L 139.833521 246.450169 
L 139.893968 246.339198 
L 140.015626 246.076807 
L 140.076694 245.965836 
L 140.187505 245.780192 
L 140.187795 245.780192 
L 140.256563 245.669221 
L 140.379691 245.471132 
L 140.446865 245.361198 
L 140.560036 245.153774 
L 140.631723 245.042803 
L 140.740402 244.863382 
L 140.742783 244.863382 
L 140.80265 244.752411 
L 140.921617 244.556396 
L 140.983098 244.445424 
L 141.092606 244.224519 
L 141.094158 244.224519 
L 141.15417 244.113547 
L 141.276594 243.927903 
L 141.326173 243.816932 
L 141.441435 243.608472 
L 141.504738 243.498537 
L 141.617909 243.288003 
L 141.664776 243.177032 
L 141.770536 243.000722 
L 141.775835 243.000722 
L 141.828477 242.88975 
L 141.944319 242.652251 
L 142.01642 242.54128 
L 142.13516 242.351487 
L 142.194923 242.240516 
L 142.305631 242.014425 
L 142.306003 242.014425 
L 142.426378 241.783148 
L 142.489392 241.672176 
L 142.609477 241.448159 
L 142.662388 241.337188 
L 142.772723 241.115245 
L 142.773489 241.115245 
L 142.841802 241.004274 
L 142.961059 240.802036 
L 143.015958 240.692102 
L 143.015958 240.691065 
L 143.138486 240.503347 
L 143.210235 240.392375 
L 143.320839 240.198435 
L 143.321315 240.198435 
L 143.384308 240.087463 
L 143.521844 239.827147 
L 143.581731 239.716176 
L 143.700988 239.513938 
L 143.766196 239.402967 
L 143.881851 239.175839 
L 143.924909 239.065904 
L 144.035803 238.860555 
L 144.035948 238.860555 
L 144.168516 238.651058 
L 144.212753 238.541124 
L 144.32371 238.377259 
L 144.323813 238.377259 
L 144.379788 238.266288 
L 144.490827 238.07857 
L 144.553696 237.967599 
L 144.686574 237.698986 
L 144.741866 237.589051 
L 144.741866 237.588014 
L 144.862055 237.360886 
L 144.927034 237.250952 
L 144.927034 237.249914 
L 145.050535 237.045603 
L 145.114977 236.934631 
L 145.22347 236.728245 
L 145.226078 236.728245 
L 145.289278 236.618311 
L 145.403298 236.396368 
L 145.457948 236.285397 
L 145.577205 236.083159 
L 145.646801 235.972188 
L 145.757654 235.747134 
L 145.757902 235.747134 
L 145.826836 235.636162 
L 145.937668 235.46089 
L 145.937916 235.46089 
L 145.996065 235.350955 
L 146.10907 235.158052 
L 146.169827 235.048118 
L 146.277368 234.834472 
L 146.280908 234.834472 
L 146.333653 234.725574 
L 146.444403 234.506743 
L 146.444734 234.506743 
L 146.512115 234.396809 
L 146.512115 234.395772 
L 146.627977 234.158272 
L 146.704756 234.047301 
L 146.812897 233.851286 
L 146.815795 233.851286 
L 146.867713 233.741352 
L 146.978069 233.502815 
L 146.978794 233.502815 
L 147.040337 233.391844 
L 147.150776 233.13775 
L 147.151397 233.13775 
L 147.227762 233.026779 
L 147.337973 232.805873 
L 147.338801 232.805873 
L 147.393348 232.694902 
L 147.513329 232.473996 
L 147.579386 232.363025 
L 147.689845 232.160787 
L 147.690466 232.160787 
L 147.756108 232.049816 
L 147.876007 231.830984 
L 147.932438 231.72105 
L 148.043208 231.492884 
L 148.043539 231.492884 
L 148.103199 231.381913 
L 148.226617 231.179675 
L 148.299297 231.068704 
L 148.407852 230.835353 
L 148.410378 230.835353 
L 148.479705 230.724382 
L 148.590288 230.551183 
L 148.590764 230.551183 
L 148.645539 230.441249 
L 148.754942 230.25042 
L 148.75664 230.25042 
L 148.841161 230.141522 
L 148.951331 229.960027 
L 148.9522 229.960027 
L 149.02103 229.850093 
L 149.131386 229.667561 
L 149.132111 229.667561 
L 149.184608 229.556589 
L 149.295357 229.352277 
L 149.295709 229.352277 
L 149.363753 229.241306 
L 149.482389 229.051514 
L 149.549791 228.940542 
L 149.660188 228.744527 
L 149.660788 228.744527 
L 149.7409 228.633556 
L 149.865561 228.410576 
L 149.929981 228.299605 
L 150.041062 228.104627 
L 150.09625 227.993656 
L 150.229232 227.724005 
L 150.284917 227.613034 
L 150.394756 227.408722 
L 150.395977 227.408722 
L 150.456444 227.297751 
L 150.572182 227.066474 
L 150.659332 226.955503 
L 150.77447 226.753265 
L 150.835745 226.642294 
L 150.946804 226.454576 
L 150.946846 226.454576 
L 151.009279 226.343604 
L 151.120049 226.151738 
L 151.120318 226.151738 
L 151.200493 226.040766 
L 151.315444 225.846826 
L 151.381004 225.736891 
L 151.491442 225.535691 
L 151.492105 225.535691 
L 151.556277 225.42472 
L 151.671995 225.193443 
L 151.728321 225.083508 
L 151.841534 224.867788 
L 151.896453 224.756817 
L 152.020969 224.535911 
L 152.091972 224.425977 
L 152.201355 224.266261 
L 152.203032 224.266261 
L 152.274822 224.15529 
L 152.390975 223.903271 
L 152.461813 223.793336 
L 152.461813 223.792299 
L 152.57722 223.577616 
L 152.648141 223.466645 
L 152.762388 223.31004 
L 152.814885 223.199069 
L 152.92934 223.032093 
L 152.989952 222.922159 
L 152.989952 222.921122 
L 153.104303 222.758295 
L 153.161831 222.647323 
L 153.276637 222.46168 
L 153.341182 222.350708 
L 153.456092 222.158842 
L 153.53165 222.04787 
L 153.646788 221.845633 
L 153.717212 221.734661 
L 153.836138 221.540721 
L 153.898675 221.429749 
L 154.03321 221.200547 
L 154.10794 221.089575 
L 154.218027 220.874892 
L 154.219041 220.874892 
L 154.287478 220.764958 
L 154.404147 220.580351 
L 154.478774 220.46938 
L 154.585921 220.277514 
L 154.589854 220.277514 
L 154.644608 220.166542 
L 154.759352 219.980898 
L 154.829818 219.869927 
L 154.940443 219.669764 
L 154.940919 219.669764 
L 155.026952 219.559829 
L 155.143663 219.371074 
L 155.212451 219.260103 
L 155.322911 219.101424 
L 155.323511 219.101424 
L 155.37193 218.990453 
L 155.487337 218.77577 
L 155.544699 218.664798 
L 155.652178 218.462561 
L 155.6558 218.462561 
L 155.719393 218.351589 
L 155.829501 218.16802 
L 155.830494 218.16802 
L 155.905038 218.057049 
L 156.016035 217.873479 
L 156.081698 217.763545 
L 156.196174 217.595532 
L 156.271752 217.485598 
L 156.381694 217.288546 
L 156.382791 217.288546 
L 156.437462 217.177574 
L 156.552103 217.000228 
L 156.623542 216.890293 
L 156.738597 216.693241 
L 156.806309 216.58227 
L 156.92153 216.37381 
L 156.98092 216.263875 
L 156.98092 216.262838 
L 157.095913 216.068897 
L 157.177143 215.957926 
L 157.283172 215.770208 
L 157.288244 215.770208 
L 157.403299 215.573156 
L 157.473019 215.462185 
L 157.583603 215.291061 
L 157.5841 215.291061 
L 157.638564 215.180089 
L 157.768068 214.953998 
L 157.828266 214.843027 
L 157.948951 214.60449 
L 158.008859 214.493519 
L 158.128696 214.274687 
L 158.211458 214.163716 
L 158.333945 213.975998 
L 158.395364 213.865026 
L 158.510564 213.660714 
L 158.573929 213.549743 
L 158.684533 213.393139 
L 158.68503 213.393139 
L 158.753094 213.283204 
L 158.862105 213.106895 
L 158.864133 213.106895 
L 158.937663 212.995923 
L 159.052531 212.806131 
L 159.134693 212.69516 
L 159.256351 212.521961 
L 159.320317 212.41099 
L 159.430693 212.25646 
L 159.431356 212.25646 
L 159.509977 212.145488 
L 159.627993 211.974364 
L 159.675729 211.86443 
L 159.675729 211.863393 
L 159.790183 211.696417 
L 159.864955 211.586483 
L 159.980072 211.385282 
L 160.048985 211.274311 
L 160.159527 211.111484 
L 160.160065 211.111484 
L 160.233139 211.000512 
L 160.347262 210.850131 
L 160.421578 210.739159 
L 160.531644 210.543144 
L 160.532659 210.543144 
L 160.615855 210.43321 
L 160.726108 210.273494 
L 160.726956 210.273494 
L 160.794855 210.162523 
L 160.909931 209.962359 
L 160.975159 209.851388 
L 161.090131 209.658484 
L 161.158071 209.547513 
L 161.272298 209.391946 
L 161.333138 209.280974 
L 161.452312 209.080811 
L 161.523399 208.96984 
L 161.63715 208.833977 
L 161.717241 208.724043 
L 161.828197 208.518694 
L 161.828342 208.518694 
L 161.916797 208.407723 
L 162.026221 208.278083 
L 162.027877 208.278083 
L 162.10093 208.167112 
L 162.219815 207.973171 
L 162.292309 207.8622 
L 162.40695 207.680705 
L 162.46899 207.569733 
L 162.587999 207.373718 
L 162.674094 207.263784 
L 162.784056 207.116513 
L 162.785174 207.116513 
L 162.868309 207.005542 
L 162.97765 206.824047 
L 162.979389 206.824047 
L 163.055775 206.713075 
L 163.166234 206.541951 
L 163.166855 206.541951 
L 163.250756 206.43098 
L 163.365335 206.255707 
L 163.436877 206.145773 
L 163.436877 206.144736 
L 163.553795 206.000577 
L 163.628297 205.889605 
L 163.746457 205.713296 
L 163.820752 205.602324 
L 163.950919 205.367936 
L 164.035399 205.256965 
L 164.153642 205.079618 
L 164.229531 204.969684 
L 164.338438 204.818265 
L 164.340611 204.818265 
L 164.39847 204.70833 
L 164.509488 204.549652 
L 164.509571 204.549652 
L 164.632099 204.361934 
L 164.695485 204.250962 
L 164.803978 204.083987 
L 164.806586 204.083987 
L 164.873408 203.974052 
L 164.981653 203.835079 
L 164.984489 203.835079 
L 165.086129 203.725145 
L 165.200108 203.577874 
L 165.299244 203.466903 
L 165.414341 203.266739 
L 165.493687 203.155768 
L 165.615097 202.986718 
L 165.682064 202.876784 
L 165.798465 202.700474 
L 165.872925 202.59054 
L 165.872925 202.589503 
L 165.987421 202.418379 
L 166.064304 202.307407 
L 166.182009 202.142506 
L 166.263922 202.031534 
L 166.379412 201.812703 
L 166.456646 201.701732 
L 166.567209 201.534756 
L 166.567747 201.534756 
L 166.645541 201.424822 
L 166.756456 201.26718 
L 166.756642 201.26718 
L 166.845221 201.156209 
L 166.958723 201.028643 
L 167.038608 200.917672 
L 167.155816 200.765216 
L 167.238702 200.654245 
L 167.353198 200.485195 
L 167.434986 200.374223 
L 167.5494 200.209322 
L 167.630257 200.098351 
L 167.751771 199.927226 
L 167.840722 199.816255 
L 167.959545 199.624389 
L 168.031004 199.513417 
L 168.145003 199.363035 
L 168.216855 199.252064 
L 168.344103 199.053975 
L 168.416494 198.944041 
L 168.53041 198.802993 
L 168.605037 198.692021 
L 168.718932 198.552011 
L 168.809064 198.441039 
L 168.918033 198.29688 
L 168.920103 198.29688 
L 169.002575 198.185909 
L 169.123467 198.025156 
L 169.200971 197.914185 
L 169.311099 197.749283 
L 169.312072 197.749283 
L 169.399926 197.639349 
L 169.509061 197.492078 
L 169.510986 197.492078 
L 169.57787 197.382144 
L 169.57787 197.381107 
L 169.703483 197.20376 
L 169.779082 197.092789 
L 169.899768 196.936184 
L 169.978659 196.825213 
L 170.092844 196.670683 
L 170.203842 196.560748 
L 170.314488 196.401033 
L 170.314922 196.401033 
L 170.411077 196.290061 
L 170.532136 196.127234 
L 170.618147 196.016263 
L 170.728151 195.861732 
L 170.729166 195.861732 
L 170.815302 195.750761 
L 170.921952 195.590008 
L 170.926341 195.590008 
L 171.007529 195.480074 
L 171.12333 195.324506 
L 171.199053 195.213535 
L 171.313073 195.067302 
L 171.399292 194.95633 
L 171.521468 194.774835 
L 171.59007 194.663863 
L 171.699867 194.509333 
L 171.701151 194.509333 
L 171.794449 194.398362 
L 171.904867 194.225163 
L 171.905447 194.225163 
L 172.00686 194.116266 
L 172.00686 194.115229 
L 172.123675 193.974181 
L 172.200558 193.86321 
L 172.314453 193.723199 
L 172.390529 193.612228 
L 172.504466 193.465995 
L 172.576484 193.355023 
L 172.686509 193.190122 
L 172.687544 193.190122 
L 172.77074 193.080188 
L 172.884284 192.955734 
L 172.961684 192.845799 
L 172.961684 192.844762 
L 173.081107 192.638376 
L 173.157265 192.527405 
L 173.271016 192.395691 
L 173.373713 192.286794 
L 173.487381 192.159229 
L 173.58482 192.048257 
L 173.690269 191.920692 
L 173.695921 191.920692 
L 173.766945 191.809721 
L 173.887134 191.661413 
L 173.957227 191.551479 
L 173.957227 191.550442 
L 174.066982 191.408357 
L 174.068266 191.408357 
L 174.144735 191.297385 
L 174.269788 191.126261 
L 174.370228 191.01529 
L 174.48015 190.871131 
L 174.481288 190.871131 
L 174.582536 190.761197 
L 174.691712 190.624297 
L 174.693616 190.624297 
L 174.769857 190.514363 
L 174.868269 190.396132 
L 174.880896 190.396132 
L 174.97227 190.286197 
L 175.090616 190.143076 
L 175.186316 190.033141 
L 175.299818 189.912836 
L 175.397112 189.801864 
L 175.50635 189.657705 
L 175.50813 189.657705 
L 175.588118 189.546734 
L 175.714745 189.396352 
L 175.79525 189.285381 
L 175.912893 189.122554 
L 176.008696 189.012619 
L 176.008696 189.011582 
L 176.122385 188.879868 
L 176.201483 188.768897 
L 176.317531 188.64548 
L 176.417765 188.534509 
L 176.538429 188.377904 
L 176.630672 188.26797 
L 176.742995 188.143516 
L 176.834534 188.032545 
L 176.959277 187.900831 
L 177.057916 187.78986 
L 177.171957 187.641552 
L 177.277696 187.531618 
L 177.390246 187.384347 
L 177.492343 187.274413 
L 177.604769 187.141662 
L 177.706969 187.030691 
L 177.825501 186.909348 
L 177.916668 186.798377 
L 178.03961 186.685331 
L 178.145039 186.57436 
L 178.252973 186.455092 
L 178.256099 186.455092 
L 178.373513 186.34412 
L 178.48685 186.229 
L 178.573794 186.118029 
L 178.690298 185.982167 
L 178.784548 185.871195 
L 178.903123 185.749853 
L 178.981227 185.638881 
L 179.089409 185.496796 
L 179.092328 185.496796 
L 179.180575 185.385825 
L 179.301634 185.222998 
L 179.422795 185.112027 
L 179.528079 184.994832 
L 179.533834 184.994832 
L 179.630507 184.883861 
L 179.754132 184.731405 
L 179.840868 184.620434 
L 179.950686 184.470052 
L 179.951949 184.470052 
L 180.035891 184.35908 
L 180.151401 184.250183 
L 180.248757 184.139212 
L 180.357333 184.015795 
L 180.359755 184.015795 
L 180.453922 183.905861 
L 180.566162 183.791778 
L 180.643625 183.680807 
L 180.758824 183.580206 
L 180.847838 183.469235 
L 180.96341 183.358264 
L 181.063043 183.248329 
L 181.175304 183.12595 
L 181.290752 183.014978 
L 181.405538 182.924749 
L 181.525623 182.813778 
L 181.636 182.667544 
L 181.636683 182.667544 
L 181.760453 182.556573 
L 181.873873 182.441453 
L 181.988741 182.330482 
L 182.104687 182.210176 
L 182.218748 182.099205 
L 182.329269 181.995493 
L 182.329849 181.995493 
L 182.416585 181.884522 
L 182.530481 181.744511 
L 182.611131 181.63354 
L 182.720163 181.543311 
L 182.722171 181.543311 
L 182.839006 181.432339 
L 182.955034 181.310997 
L 183.044917 181.201063 
L 183.044917 181.200026 
L 183.158502 181.074535 
L 183.253912 180.963563 
L 183.36346 180.821478 
L 183.364909 180.821478 
L 183.470794 180.711544 
L 183.588312 180.552865 
L 183.677015 180.441894 
L 183.787868 180.336108 
L 183.788116 180.336108 
L 183.869367 180.225137 
L 183.978812 180.112091 
L 183.980427 180.112091 
L 184.084055 180.002157 
L 184.194949 179.877703 
L 184.195115 179.877703 
L 184.291187 179.767769 
L 184.407132 179.647463 
L 184.503764 179.537529 
L 184.503764 179.536492 
L 184.62035 179.40063 
L 184.728202 179.289658 
L 184.844499 179.160019 
L 184.964294 179.049047 
L 185.077817 178.92563 
L 185.178713 178.814659 
L 185.289379 178.68502 
L 185.289793 178.68502 
L 185.377979 178.574048 
L 185.491398 178.456854 
L 185.588858 178.345883 
L 185.702567 178.216243 
L 185.785743 178.105272 
L 185.89614 177.979781 
L 185.896824 177.979781 
L 186.019973 177.869847 
L 186.019973 177.868809 
L 186.133765 177.735021 
L 186.241802 177.62405 
L 186.355139 177.513079 
L 186.443345 177.402107 
L 186.554157 177.274542 
L 186.554405 177.274542 
L 186.661304 177.164608 
L 186.661304 177.163571 
L 186.777911 177.025634 
L 186.899011 176.9157 
L 187.009781 176.789172 
L 187.010112 176.789172 
L 187.113409 176.6782 
L 187.226974 176.554784 
L 187.33617 176.443812 
L 187.441724 176.312099 
L 187.447272 176.312099 
L 187.532207 176.202164 
L 187.532207 176.201127 
L 187.645337 176.09949 
L 187.747764 175.988518 
L 187.861205 175.872361 
L 188.003253 175.76139 
L 188.11392 175.650419 
L 188.114293 175.650419 
L 188.198214 175.539447 
L 188.316643 175.420179 
L 188.425136 175.309208 
L 188.539114 175.166086 
L 188.646262 175.055114 
L 188.759805 174.932734 
L 188.86155 174.8228 
L 188.86155 174.821763 
L 188.975239 174.690049 
L 189.079177 174.579078 
L 189.189657 174.470181 
L 189.190237 174.470181 
L 189.290263 174.359209 
L 189.403931 174.231644 
L 189.514805 174.120673 
L 189.630812 173.997256 
L 189.742534 173.886285 
L 189.850323 173.773239 
L 189.853635 173.773239 
L 189.971547 173.662268 
L 190.081075 173.538851 
L 190.082648 173.538851 
L 190.215423 173.427879 
L 190.324951 173.331428 
L 190.326483 173.331428 
L 190.440441 173.220456 
L 190.549368 173.099114 
L 190.5515 173.099114 
L 190.666411 172.988142 
L 190.775131 172.899987 
L 190.77747 172.899987 
L 190.855202 172.789016 
L 190.97361 172.669748 
L 191.075686 172.558776 
L 191.18894 172.451953 
L 191.273813 172.342019 
L 191.273813 172.340982 
L 191.387295 172.217565 
L 191.50057 172.106594 
L 191.607945 171.999771 
L 191.61165 171.999771 
L 191.741589 171.889837 
L 191.856002 171.723898 
L 191.957043 171.612927 
L 192.075224 171.497807 
L 192.202016 171.387872 
L 192.311254 171.253047 
L 192.313097 171.253047 
L 192.444153 171.142076 
L 192.559974 171.022808 
L 192.679294 170.912873 
L 192.787269 170.807088 
L 192.790333 170.807088 
L 192.918201 170.696116 
L 193.037521 170.562328 
L 193.115853 170.452394 
L 193.226064 170.348682 
L 193.226892 170.348682 
L 193.33083 170.238748 
L 193.442987 170.130888 
L 193.554813 170.019917 
L 193.66964 169.92865 
L 193.76712 169.817679 
L 193.888013 169.699448 
L 194.018449 169.588476 
L 194.132034 169.462985 
L 194.237856 169.353051 
L 194.35494 169.23482 
L 194.466538 169.124886 
L 194.580185 168.99732 
L 194.735069 168.886349 
L 194.848178 168.786786 
L 194.947273 168.675815 
L 195.060775 168.554472 
L 195.155543 168.443501 
L 195.262049 168.347049 
L 195.266582 168.347049 
L 195.370169 168.237115 
L 195.476799 168.133403 
L 195.481125 168.133403 
L 195.581917 168.022432 
L 195.699746 167.913534 
L 195.810351 167.802563 
L 195.919754 167.701963 
L 195.92139 167.701963 
L 196.031725 167.592028 
L 196.141895 167.502837 
L 196.142743 167.502837 
L 196.247821 167.391865 
L 196.363062 167.289191 
L 196.47849 167.178219 
L 196.589239 167.067248 
L 196.589591 167.067248 
L 196.723194 166.956276 
L 196.836427 166.849454 
L 196.948522 166.738482 
L 197.059085 166.635808 
L 197.059623 166.635808 
L 197.165839 166.524836 
L 197.275863 166.397271 
L 197.276836 166.397271 
L 197.369866 166.2863 
L 197.480056 166.160809 
L 197.480925 166.160809 
L 197.589667 166.049837 
L 197.703045 165.934717 
L 197.822696 165.824783 
L 197.934977 165.704478 
L 198.06831 165.593506 
L 198.174071 165.474238 
L 198.179412 165.474238 
L 198.29486 165.363267 
L 198.415421 165.248147 
L 198.521886 165.138212 
L 198.632324 165.00961 
L 198.632966 165.00961 
L 198.774042 164.899676 
L 198.882059 164.812558 
L 198.885081 164.812558 
L 199.007298 164.702624 
L 199.121111 164.611358 
L 199.236084 164.500386 
L 199.349296 164.389415 
L 199.472031 164.278443 
L 199.584147 164.176806 
L 199.718412 164.065835 
L 199.841106 163.924787 
L 199.938192 163.813815 
L 200.051467 163.704918 
L 200.178446 163.594984 
L 200.292383 163.501644 
L 200.411516 163.390672 
L 200.524729 163.283849 
L 200.638128 163.172878 
L 200.75695 163.047387 
L 200.891485 162.936415 
L 200.998963 162.815073 
L 201.002544 162.815073 
L 201.146146 162.704101 
L 201.25586 162.618021 
L 201.257164 162.618021 
L 201.386793 162.508087 
L 201.498846 162.410598 
L 201.598665 162.299626 
L 201.709456 162.194878 
L 201.709725 162.194878 
L 201.834841 162.084943 
L 201.834841 162.083906 
L 201.948426 161.958415 
L 202.037895 161.848481 
L 202.147754 161.748918 
L 202.148996 161.748918 
L 202.260097 161.637946 
L 202.37331 161.531123 
L 202.500951 161.420152 
L 202.614163 161.313329 
L 202.762712 161.202358 
L 202.878243 161.093461 
L 202.98922 160.982489 
L 203.112162 160.869444 
L 203.224299 160.758472 
L 203.336911 160.680688 
L 203.449213 160.570754 
L 203.561121 160.485711 
L 203.724181 160.375776 
L 203.83816 160.280362 
L 203.972591 160.16939 
L 204.079821 160.072939 
L 204.083692 160.072939 
L 204.243005 159.963004 
L 204.349676 159.869664 
L 204.354086 159.869664 
L 204.475247 159.75973 
L 204.475247 159.758692 
L 204.588294 159.658092 
L 204.716495 159.547121 
L 204.832667 159.42163 
L 204.972667 159.311696 
L 205.078386 159.199687 
L 205.083747 159.199687 
L 205.193441 159.089753 
L 205.305598 158.983967 
L 205.444728 158.874033 
L 205.444728 158.872996 
L 205.561108 158.741282 
L 205.670428 158.63031 
L 205.779729 158.527636 
L 205.781405 158.527636 
L 205.88553 158.416665 
L 205.996197 158.322287 
L 205.996632 158.322287 
L 206.111542 158.212353 
L 206.228439 158.119012 
L 206.366886 158.008041 
L 206.47747 157.913663 
L 206.477946 157.913663 
L 206.625894 157.803729 
L 206.741632 157.689646 
L 206.844764 157.578675 
L 206.961703 157.484297 
L 207.085079 157.373326 
L 207.196077 157.276874 
L 207.336532 157.16694 
L 207.453119 157.05908 
L 207.610569 156.948109 
L 207.718358 156.84336 
L 207.721608 156.84336 
L 207.808779 156.733426 
L 207.919797 156.635937 
L 207.91988 156.635937 
L 208.005975 156.524965 
L 208.124052 156.41192 
L 208.237016 156.300948 
L 208.351285 156.223165 
L 208.468265 156.11323 
L 208.581767 155.992925 
L 208.695125 155.881953 
L 208.80842 155.773056 
L 208.904431 155.663122 
L 209.013545 155.576004 
L 209.015532 155.576004 
L 209.139095 155.46607 
L 209.246118 155.368581 
L 209.250113 155.368581 
L 209.381191 155.258647 
L 209.494797 155.132119 
L 209.647734 155.021147 
L 209.760595 154.93403 
L 209.923551 154.823058 
L 210.038834 154.719347 
L 210.157802 154.608375 
L 210.27265 154.516072 
L 210.406315 154.406138 
L 210.519755 154.329391 
L 210.635286 154.21842 
L 210.754254 154.124042 
L 210.858668 154.014108 
L 210.975131 153.908322 
L 211.123804 153.797351 
L 211.236768 153.705047 
L 211.379397 153.595113 
L 211.497122 153.487253 
L 211.590545 153.377319 
L 211.700073 153.273607 
L 211.701646 153.273607 
L 211.849884 153.162636 
L 211.975538 153.047516 
L 212.064945 152.937582 
L 212.064945 152.936544 
L 212.177475 152.858761 
L 212.294061 152.747789 
L 212.408475 152.665857 
L 212.534418 152.554886 
L 212.644484 152.466731 
L 212.645519 152.466731 
L 212.744511 152.35576 
L 212.857537 152.257234 
L 213.022812 152.146262 
L 213.132071 152.039439 
L 213.133872 152.039439 
L 213.251577 151.929505 
L 213.364748 151.825793 
L 213.511599 151.714822 
L 213.624874 151.605925 
L 213.753529 151.495991 
L 213.862995 151.40265 
L 213.864631 151.40265 
L 214.011358 151.292716 
L 214.124322 151.199375 
L 214.253909 151.088404 
L 214.362692 150.960839 
L 214.364989 150.960839 
L 214.494556 150.849867 
L 214.607955 150.734747 
L 214.703054 150.624813 
L 214.703054 150.623776 
L 214.816432 150.508656 
L 214.969556 150.397685 
L 215.083059 150.278416 
L 215.201281 150.167445 
L 215.311513 150.056474 
L 215.312361 150.056474 
L 215.458571 149.945502 
L 215.573812 149.842828 
L 215.694933 149.731856 
L 215.809636 149.643702 
L 215.956466 149.53273 
L 216.069472 149.436278 
L 216.195871 149.325307 
L 216.303702 149.230929 
L 216.306889 149.230929 
L 216.434179 149.119958 
L 216.551904 149.011061 
L 216.684203 148.90009 
L 216.797084 148.811935 
L 216.928348 148.702 
L 216.928348 148.700963 
L 217.044459 148.577547 
L 217.172121 148.466575 
L 217.281297 148.368049 
L 217.283201 148.368049 
L 217.392791 148.257078 
L 217.506252 148.135735 
L 217.648529 148.024764 
L 217.761182 147.94698 
L 217.893398 147.836009 
L 218.008267 147.743705 
L 218.147811 147.632734 
L 218.253654 147.540431 
L 218.258871 147.540431 
L 218.402452 147.429459 
L 218.507322 147.345453 
L 218.513532 147.345453 
L 218.634114 147.234481 
L 218.741303 147.142178 
L 218.745215 147.142178 
L 218.900823 147.032244 
L 219.013498 146.953423 
L 219.140062 146.842452 
L 219.247913 146.752223 
L 219.251163 146.752223 
L 219.383607 146.642288 
L 219.496551 146.551022 
L 219.650958 146.441088 
L 219.762949 146.347747 
L 219.901127 146.237813 
L 220.013615 146.169364 
L 220.158189 146.059429 
L 220.272106 145.966089 
L 220.43351 145.855117 
L 220.548544 145.758666 
L 220.696182 145.648731 
L 220.80867 145.580282 
L 220.922752 145.470347 
L 221.034599 145.395675 
L 221.174267 145.285741 
L 221.288639 145.177881 
L 221.462505 145.066909 
L 221.576546 144.995348 
L 221.683507 144.885414 
L 221.791772 144.806593 
L 221.794546 144.806593 
L 221.910739 144.696659 
L 221.910739 144.695622 
L 222.025608 144.603319 
L 222.177096 144.492347 
L 222.290578 144.373079 
L 222.43302 144.263145 
L 222.546088 144.165656 
L 222.694865 144.054684 
L 222.804517 143.95201 
L 222.805966 143.95201 
L 222.929508 143.841038 
L 223.039595 143.771552 
L 223.040589 143.771552 
L 223.195679 143.661617 
L 223.301108 143.564128 
L 223.306759 143.564128 
L 223.452017 143.454194 
L 223.559516 143.379522 
L 223.563056 143.379522 
L 223.719057 143.26855 
L 223.833719 143.180396 
L 223.977279 143.069424 
L 224.090471 142.964676 
L 224.235749 142.853704 
L 224.350721 142.757252 
L 224.479646 142.646281 
L 224.594059 142.564349 
L 224.786721 142.453377 
L 224.900824 142.379742 
L 225.00588 142.269808 
L 225.122861 142.174393 
L 225.271099 142.063422 
L 225.384063 141.971119 
L 225.507233 141.860147 
L 225.620094 141.769918 
L 225.74256 141.658947 
L 225.856186 141.531381 
L 226.007882 141.42041 
L 226.122481 141.334329 
L 226.262915 141.223358 
L 226.37619 141.114461 
L 226.517804 141.003489 
L 226.617417 140.898741 
L 226.628905 140.898741 
L 226.775301 140.787769 
L 226.890315 140.691318 
L 227.040458 140.580346 
L 227.15543 140.483894 
L 227.311038 140.372923 
L 227.421125 140.274397 
L 227.422139 140.274397 
L 227.587828 140.164463 
L 227.699923 140.062825 
L 227.850873 139.951854 
L 227.961871 139.857476 
L 227.961974 139.857476 
L 228.122592 139.746505 
L 228.235722 139.645905 
L 228.386237 139.534933 
L 228.493509 139.436407 
L 228.497338 139.436407 
L 228.619535 139.326473 
L 228.735087 139.216539 
L 228.88347 139.106605 
L 228.997842 138.99667 
L 229.109068 138.886736 
L 229.109068 138.885699 
L 229.221928 138.797544 
L 229.320795 138.68761 
L 229.435312 138.571453 
L 229.551775 138.460481 
L 229.655134 138.407588 
L 229.662876 138.407588 
L 229.777144 138.297654 
L 229.888887 138.231279 
L 230.03282 138.120307 
L 230.145846 138.023856 
L 230.302799 137.912884 
L 230.408705 137.808136 
L 230.413839 137.808136 
L 230.543136 137.698201 
L 230.656079 137.606935 
L 230.800819 137.497001 
L 230.905462 137.387066 
L 230.91192 137.387066 
L 231.021966 137.277132 
L 231.131452 137.190014 
L 231.133046 137.190014 
L 231.27259 137.079043 
L 231.385762 136.976369 
L 231.565465 136.865397 
L 231.678802 136.752352 
L 231.819422 136.64138 
L 231.932718 136.530409 
L 232.062201 136.419437 
L 232.169307 136.343728 
L 232.173302 136.343728 
L 232.307237 136.232757 
L 232.42223 136.136305 
L 232.560676 136.025333 
L 232.670805 135.943401 
L 232.671674 135.943401 
L 232.799501 135.833467 
L 232.912921 135.757757 
L 233.091652 135.646786 
L 233.204181 135.574188 
L 233.352917 135.463217 
L 233.470725 135.383359 
L 233.625008 135.273424 
L 233.625008 135.272387 
L 233.739504 135.188381 
L 233.902957 135.078447 
L 233.902957 135.07741 
L 234.02296 134.993403 
L 234.204733 134.882432 
L 234.32043 134.808796 
L 234.465253 134.697825 
L 234.58095 134.584779 
L 234.703064 134.473808 
L 234.816856 134.40847 
L 234.939653 134.317204 
L 235.069509 134.206232 
L 235.184792 134.13882 
L 235.313427 134.028885 
L 235.426432 133.966658 
L 235.585042 133.856724 
L 235.698544 133.775829 
L 235.846596 133.664858 
L 235.956207 133.572554 
L 235.957677 133.572554 
L 236.105356 133.461583 
L 236.224013 133.371354 
L 236.382188 133.260383 
L 236.498361 133.17845 
L 236.685247 133.067479 
L 236.797901 132.989695 
L 236.969656 132.878724 
L 237.079515 132.780198 
L 237.080674 132.780198 
L 237.24568 132.669227 
L 237.358292 132.591443 
L 237.512596 132.481509 
L 237.621213 132.379871 
L 237.623697 132.379871 
L 237.75788 132.2689 
L 237.872003 132.195265 
L 238.023574 132.084293 
L 238.143618 132.000287 
L 238.300986 131.889315 
L 238.415482 131.803235 
L 238.57877 131.6933 
L 238.687242 131.59996 
L 238.689809 131.59996 
L 238.831775 131.488989 
L 238.939667 131.402908 
L 238.942876 131.402908 
L 239.1161 131.291937 
L 239.229147 131.195485 
L 239.364862 131.087625 
L 239.364862 131.084513 
L 239.480248 130.977691 
L 239.637698 130.866719 
L 239.746025 130.786861 
L 239.748758 130.786861 
L 239.865821 130.676927 
L 239.978744 130.583587 
L 240.115886 130.473652 
L 240.228499 130.394831 
L 240.39394 130.284897 
L 240.506593 130.208151 
L 240.650153 130.097179 
L 240.763159 130.002802 
L 240.876806 129.892867 
L 240.988383 129.841012 
L 241.12681 129.73004 
L 241.242341 129.658479 
L 241.380601 129.548545 
L 241.489695 129.448982 
L 241.491703 129.448982 
L 241.607068 129.33801 
L 241.72086 129.272672 
L 241.874046 129.161701 
L 241.978358 129.098437 
L 241.985127 129.098437 
L 242.125375 128.988502 
L 242.229872 128.909682 
L 242.236455 128.909682 
L 242.38283 128.79871 
L 242.505027 128.71263 
L 242.676761 128.601658 
L 242.790574 128.534246 
L 242.93844 128.424311 
L 243.051197 128.341342 
L 243.200077 128.231408 
L 243.313414 128.146364 
L 243.49496 128.03643 
L 243.606992 127.94309 
L 243.735958 127.832118 
L 243.850641 127.743963 
L 244.026929 127.634029 
L 244.141032 127.559357 
L 244.308811 127.448385 
L 244.424902 127.368527 
L 244.548444 127.257556 
L 244.661118 127.179772 
L 244.830906 127.068801 
L 244.947721 127.001388 
L 245.089356 126.890417 
L 245.202548 126.783594 
L 245.35712 126.67366 
L 245.469712 126.598987 
L 245.603439 126.488016 
L 245.716072 126.412307 
L 245.874992 126.301335 
L 245.987584 126.2277 
L 246.176644 126.117766 
L 246.288511 126.041019 
L 246.469995 125.930048 
L 246.585547 125.858487 
L 246.768811 125.747515 
L 246.882583 125.682177 
L 247.046077 125.571206 
L 247.15869 125.495496 
L 247.313532 125.384525 
L 247.424612 125.279776 
L 247.574113 125.169842 
L 247.684883 125.093095 
L 247.685069 125.093095 
L 247.847819 124.983161 
L 247.963516 124.893969 
L 248.156033 124.782998 
L 248.267114 124.715585 
L 248.417401 124.604614 
L 248.530656 124.497791 
L 248.695599 124.386819 
L 248.812435 124.294516 
L 248.997396 124.183545 
L 249.107359 124.076722 
L 249.108497 124.076722 
L 249.307018 123.96575 
L 249.42317 123.883818 
L 249.588445 123.772847 
L 249.696959 123.695063 
L 249.699526 123.695063 
L 249.869893 123.585129 
L 249.982609 123.504234 
L 250.119441 123.393262 
L 250.233379 123.323776 
L 250.360751 123.213841 
L 250.360751 123.212804 
L 250.477855 123.141243 
L 250.699271 123.030272 
L 250.801574 122.958711 
L 250.810351 122.958711 
L 250.965338 122.847739 
L 251.077888 122.77203 
L 251.226354 122.661059 
L 251.342838 122.597794 
L 251.524363 122.486823 
L 251.637079 122.406965 
L 251.796495 122.295994 
L 251.909336 122.209913 
L 252.138224 122.099979 
L 252.138224 122.098942 
L 252.251168 122.006638 
L 252.401248 121.895667 
L 252.520009 121.803364 
L 252.684166 121.692392 
L 252.795164 121.623943 
L 252.795205 121.623943 
L 252.940194 121.512971 
L 253.052765 121.440373 
L 253.196449 121.329402 
L 253.313884 121.226727 
L 253.51373 121.115756 
L 253.630255 121.027601 
L 253.784517 120.917667 
L 253.898102 120.857514 
L 254.047707 120.746543 
L 254.158042 120.674982 
L 254.158787 120.674982 
L 254.326836 120.565047 
L 254.438703 120.488301 
L 254.607746 120.378367 
L 254.720317 120.303694 
L 254.904368 120.192723 
L 255.017456 120.094197 
L 255.178922 119.983225 
L 255.293232 119.932407 
L 255.448509 119.821435 
L 255.562674 119.743652 
L 255.746704 119.633717 
L 255.856894 119.561119 
L 255.857805 119.561119 
L 256.008734 119.450148 
L 256.109941 119.391032 
L 256.119836 119.391032 
L 256.324566 119.280061 
L 256.437241 119.202277 
L 256.603344 119.091306 
L 256.719268 119.013522 
L 256.86672 118.903588 
L 256.97335 118.841361 
L 256.977801 118.841361 
L 257.154399 118.730389 
L 257.268502 118.656754 
L 257.455492 118.54682 
L 257.568953 118.467999 
L 257.758117 118.357028 
L 257.871081 118.264724 
L 258.030477 118.153753 
L 258.148803 118.067672 
L 258.30853 117.956701 
L 258.424662 117.897585 
L 258.559238 117.787651 
L 258.671995 117.704682 
L 258.816176 117.594748 
L 258.932556 117.491036 
L 259.084293 117.380065 
L 259.197215 117.285687 
L 259.353569 117.174716 
L 259.47117 117.096932 
L 259.669939 116.985961 
L 259.775865 116.926845 
L 259.781019 116.926845 
L 259.955672 116.815874 
L 260.072611 116.721496 
L 260.326734 116.610525 
L 260.436013 116.543112 
L 260.437773 116.543112 
L 260.650722 116.432141 
L 260.763189 116.364728 
L 260.969824 116.253757 
L 261.083782 116.182196 
L 261.26568 116.072262 
L 261.380652 115.997589 
L 261.533404 115.887655 
L 261.649514 115.80676 
L 261.849567 115.696826 
L 261.962076 115.624228 
L 262.169684 115.513256 
L 262.296476 115.435472 
L 262.463076 115.325538 
L 262.575792 115.26746 
L 262.768516 115.157525 
L 262.879079 115.095298 
L 262.879473 115.095298 
L 263.086688 114.984327 
L 263.200708 114.912766 
L 263.403513 114.801795 
L 263.520887 114.69912 
L 263.670202 114.589186 
L 263.785691 114.504142 
L 263.954009 114.395245 
L 264.06569 114.344427 
L 264.25711 114.236567 
L 264.25711 114.233455 
L 264.368978 114.190933 
L 264.533963 114.079962 
L 264.654193 113.993881 
L 264.84019 113.88291 
L 264.952864 113.805126 
L 265.130146 113.694155 
L 265.24547 113.624668 
L 265.398697 113.513697 
L 265.515387 113.423468 
L 265.680808 113.313533 
L 265.794289 113.234713 
L 265.977057 113.123741 
L 266.090911 113.054254 
L 266.305971 112.943283 
L 266.418874 112.85098 
L 266.608969 112.741045 
L 266.724956 112.684004 
L 266.90615 112.573033 
L 267.02667 112.483841 
L 267.245146 112.373906 
L 267.357551 112.309605 
L 267.537565 112.198634 
L 267.654566 112.129147 
L 267.796077 112.019213 
L 267.911691 111.946615 
L 268.133375 111.83668 
L 268.245118 111.772379 
L 268.418301 111.662445 
L 268.530727 111.59607 
L 268.758643 111.485098 
L 268.878583 111.417686 
L 269.098094 111.306714 
L 269.21493 111.239302 
L 269.375402 111.129367 
L 269.489215 111.077512 
L 269.644989 110.96654 
L 269.759795 110.892905 
L 269.968646 110.781934 
L 270.079291 110.716595 
L 270.079705 110.716595 
L 270.239619 110.605624 
L 270.361547 110.521618 
L 270.52175 110.410646 
L 270.641235 110.310046 
L 270.816385 110.199075 
L 270.937298 110.123365 
L 271.085847 110.012394 
L 271.199805 109.942907 
L 271.36301 109.831936 
L 271.478769 109.756226 
L 271.71159 109.646292 
L 271.826542 109.548803 
L 272.006308 109.438869 
L 272.119996 109.351751 
L 272.30651 109.241817 
L 272.415956 109.16507 
L 272.417591 109.16507 
L 272.586758 109.055136 
L 272.70558 108.974241 
L 272.925692 108.864306 
L 273.039112 108.78756 
L 273.255725 108.677626 
L 273.36989 108.600879 
L 273.580789 108.490945 
L 273.693236 108.424569 
L 273.882483 108.313598 
L 273.995695 108.262779 
L 274.199888 108.151808 
L 274.310927 108.067801 
L 274.47022 107.95683 
L 274.583494 107.901863 
L 274.814784 107.790892 
L 274.92839 107.729702 
L 275.159121 107.61873 
L 275.271734 107.538872 
L 275.469323 107.427901 
L 275.582121 107.387453 
L 275.817241 107.276482 
L 275.92917 107.236035 
L 276.15367 107.125063 
L 276.267504 107.057651 
L 276.484738 106.947716 
L 276.59793 106.877192 
L 276.796306 106.766221 
L 276.916515 106.68014 
L 277.096115 106.569169 
L 277.21471 106.499682 
L 277.387996 106.388711 
L 277.500878 106.300556 
L 277.69294 106.189585 
L 277.805366 106.124246 
L 277.987657 106.014312 
L 278.104513 105.935491 
L 278.307836 105.825557 
L 278.419538 105.76333 
L 278.680471 105.653396 
L 278.792959 105.584946 
L 279.044764 105.475012 
L 279.159467 105.404488 
L 279.336769 105.293517 
L 279.453915 105.238549 
L 279.701248 105.128615 
L 279.814668 105.049794 
L 280.049001 104.93986 
L 280.162337 104.88593 
L 280.331525 104.775996 
L 280.444096 104.728288 
L 280.647461 104.617317 
L 280.75378 104.549904 
L 280.758479 104.549904 
L 281.003845 104.43997 
L 281.119521 104.38604 
L 281.326405 104.275069 
L 281.449616 104.207656 
L 281.642962 104.097722 
L 281.757996 104.035495 
L 281.955047 103.924524 
L 282.067142 103.871631 
L 282.282533 103.761696 
L 282.39705 103.695321 
L 282.578306 103.585387 
L 282.69156 103.531457 
L 282.91486 103.420485 
L 283.028528 103.357221 
L 283.238103 103.247287 
L 283.349804 103.187134 
L 283.576933 103.076163 
L 283.69499 103.02327 
L 283.911251 102.912299 
L 284.026948 102.838663 
L 284.229836 102.727692 
L 284.349632 102.64576 
L 284.558751 102.534788 
L 284.671715 102.490192 
L 284.897706 102.380258 
L 285.011146 102.320105 
L 285.224365 102.210171 
L 285.335466 102.13861 
L 285.520489 102.027639 
L 285.638546 101.944669 
L 285.856898 101.834735 
L 285.972264 101.766286 
L 286.146419 101.655314 
L 286.263027 101.589976 
L 286.453453 101.480042 
L 286.568177 101.409518 
L 286.777483 101.298546 
L 286.891503 101.251876 
L 287.164112 101.140905 
L 287.283514 101.063121 
L 287.476425 100.95215 
L 287.598125 100.882663 
L 287.811529 100.772729 
L 287.924721 100.702205 
L 288.099022 100.591233 
L 288.213373 100.540415 
L 288.411707 100.43048 
L 288.525644 100.374476 
L 288.717251 100.263505 
L 288.833486 100.216834 
L 288.998202 100.105863 
L 289.112512 100.055044 
L 289.307099 99.94511 
L 289.420581 99.884957 
L 289.632205 99.773986 
L 289.752042 99.719019 
L 289.963728 99.609085 
L 290.080729 99.52819 
L 290.319575 99.418255 
L 290.43581 99.358103 
L 290.669108 99.247131 
L 290.797018 99.173496 
L 290.997423 99.063562 
L 291.110718 99.009632 
L 291.330478 98.89866 
L 291.437749 98.856138 
L 291.441517 98.856138 
L 291.666493 98.746204 
L 291.775483 98.683977 
L 291.777511 98.683977 
L 292.064735 98.573006 
L 292.180183 98.503519 
L 292.400916 98.392548 
L 292.516881 98.314764 
L 292.772226 98.203793 
L 292.8849 98.126009 
L 293.107951 98.016075 
L 293.22017 97.957996 
L 293.431194 97.847025 
L 293.546912 97.77339 
L 293.724297 97.662418 
L 293.837468 97.611599 
L 294.138706 97.500628 
L 294.265892 97.439438 
L 294.443132 97.329504 
L 294.557731 97.261054 
L 294.713091 97.15112 
L 294.829139 97.093042 
L 295.093447 96.98207 
L 295.212953 96.929177 
L 295.460596 96.819243 
L 295.573685 96.771536 
L 295.779534 96.660564 
L 295.896679 96.605597 
L 296.124243 96.494626 
L 296.244949 96.42099 
L 296.43755 96.311056 
L 296.553992 96.238458 
L 296.786503 96.128524 
L 296.786503 96.127487 
L 296.90694 96.084965 
L 297.092854 95.975031 
L 297.208737 95.898284 
L 297.409452 95.78835 
L 297.52401 95.721974 
L 297.788856 95.61204 
L 297.900392 95.55811 
L 298.106655 95.447139 
L 298.223324 95.3818 
L 298.478482 95.270829 
L 298.591012 95.186823 
L 298.816092 95.075851 
L 298.929656 95.014661 
L 299.202058 94.90369 
L 299.302043 94.867391 
L 299.313138 94.867391 
L 299.580137 94.75642 
L 299.692335 94.701452 
L 299.963951 94.590481 
L 300.081655 94.541737 
L 300.273365 94.430765 
L 300.38811 94.37165 
L 300.595428 94.261715 
L 300.70715 94.197414 
L 300.919561 94.08748 
L 300.919561 94.086443 
L 301.035341 94.031476 
L 301.286586 93.921541 
L 301.39895 93.858277 
L 301.662492 93.747306 
L 301.773034 93.69545 
L 301.773531 93.69545 
L 302.001405 93.585516 
L 302.112941 93.541957 
L 302.344376 93.430985 
L 302.451875 93.388464 
L 302.455477 93.388464 
L 302.689686 93.277492 
L 302.803975 93.241193 
L 303.027316 93.131259 
L 303.140405 93.083552 
L 303.402166 92.97258 
L 303.515399 92.920724 
L 303.630061 92.880277 
L 303.858929 92.770343 
L 303.971624 92.718487 
L 304.302009 92.607515 
L 304.413793 92.573291 
L 304.618234 92.463356 
L 304.730184 92.417723 
L 305.028586 92.307789 
L 305.141944 92.251785 
L 305.342658 92.14185 
L 305.4579 92.094143 
L 305.679895 91.983172 
L 305.793025 91.934427 
L 306.038454 91.824493 
L 306.153695 91.776786 
L 306.41469 91.666851 
L 306.52664 91.625367 
L 306.852843 91.515432 
L 306.9644 91.467725 
L 307.205771 91.356754 
L 307.318425 91.31838 
L 307.574142 91.207409 
L 307.687085 91.193927 
L 307.963441 91.082955 
L 308.08156 90.998949 
L 308.278548 90.889015 
L 308.278548 90.887977 
L 308.391513 90.841307 
L 308.651059 90.730336 
L 308.768226 90.694037 
L 309.048183 90.583065 
L 309.16121 90.536395 
L 309.404941 90.425424 
L 309.520782 90.370457 
L 309.81285 90.260522 
L 309.928195 90.19311 
L 310.181572 90.082138 
L 310.295903 90.028208 
L 310.549343 89.918274 
L 310.662307 89.856047 
L 310.875711 89.746113 
L 310.875711 89.745076 
L 310.993437 89.683886 
L 311.249526 89.573952 
L 311.249526 89.572915 
L 311.362677 89.522096 
L 311.647085 89.411124 
L 311.759283 89.356157 
L 311.998771 89.245186 
L 312.115399 89.194367 
L 312.355259 89.083396 
L 312.470066 89.040874 
L 312.703467 88.93094 
L 312.817818 88.893604 
L 313.071507 88.782632 
L 313.193973 88.708997 
L 313.448675 88.599063 
L 313.558534 88.549281 
L 313.559673 88.549281 
L 313.859441 88.43831 
L 313.971515 88.385417 
L 314.206448 88.275483 
L 314.31786 88.244369 
L 314.582044 88.134435 
L 314.693931 88.090876 
L 314.937497 87.979905 
L 315.052469 87.918715 
L 315.33607 87.807743 
L 315.450297 87.758999 
L 315.731165 87.648027 
L 315.849139 87.597209 
L 316.117587 87.487275 
L 316.228999 87.449938 
L 316.465464 87.340004 
L 316.579235 87.288148 
L 316.790259 87.177177 
L 316.904611 87.149175 
L 317.151405 87.038203 
L 317.268944 86.99983 
L 317.500359 86.888859 
L 317.612495 86.833892 
L 317.846724 86.72292 
L 317.960185 86.665879 
L 318.173673 86.555945 
L 318.173673 86.554907 
L 318.288686 86.491643 
L 318.553387 86.381709 
L 318.553387 86.380672 
L 318.667055 86.317408 
L 318.918736 86.206436 
L 319.034557 86.151469 
L 319.276383 86.041535 
L 319.388499 86.006273 
L 319.614531 85.895302 
L 319.72971 85.848632 
L 320.015277 85.73766 
L 320.130291 85.703435 
L 320.376982 85.593501 
L 320.488539 85.547868 
L 320.722893 85.436897 
L 320.84275 85.381929 
L 321.069962 85.270958 
L 321.18038 85.232585 
L 321.180918 85.232585 
L 321.409041 85.12265 
L 321.520536 85.08324 
L 321.773996 84.972269 
L 321.892881 84.923524 
L 322.164475 84.81359 
L 322.27597 84.763808 
L 322.601717 84.653874 
L 322.715696 84.616538 
L 322.957109 84.506604 
L 323.068748 84.452674 
L 323.362637 84.342739 
L 323.474918 84.282587 
L 323.744587 84.172652 
L 323.858814 84.131168 
L 324.11656 84.021233 
L 324.225405 83.969378 
L 324.22764 83.969378 
L 324.460276 83.859443 
L 324.574772 83.793068 
L 324.822892 83.682096 
L 324.946455 83.61261 
L 325.225812 83.501638 
L 325.338673 83.457042 
L 325.614676 83.346071 
L 325.727889 83.295252 
L 326.014574 83.184281 
L 326.131513 83.141759 
L 326.406482 83.031825 
L 326.521889 82.973746 
L 326.749494 82.862775 
L 326.867033 82.803659 
L 327.186405 82.692688 
L 327.298665 82.635647 
L 327.565768 82.525712 
L 327.678401 82.471782 
L 327.940286 82.361848 
L 328.055548 82.295473 
L 328.315985 82.184501 
L 328.429343 82.150276 
L 328.704994 82.040342 
L 328.704994 82.039305 
L 328.817068 81.986412 
L 329.105948 81.876478 
L 329.218105 81.824622 
L 329.472352 81.713651 
L 329.585792 81.675277 
L 329.860264 81.564306 
L 329.973974 81.523858 
L 330.238219 81.412887 
L 330.352508 81.362068 
L 330.570405 81.251097 
L 330.675192 81.189907 
L 330.681465 81.189907 
L 330.798238 81.138051 
L 331.114712 81.02708 
L 331.226744 80.981447 
L 331.493371 80.870475 
L 331.609419 80.831065 
L 331.922022 80.720094 
L 332.034986 80.675498 
L 332.262157 80.565563 
L 332.374293 80.513708 
L 332.587263 80.402736 
L 332.700827 80.364363 
L 332.966232 80.254429 
L 333.080521 80.21087 
L 333.366378 80.100935 
L 333.477749 80.071896 
L 333.768222 79.961962 
L 333.879592 79.922552 
L 334.177001 79.81158 
L 334.293174 79.752465 
L 334.553652 79.64253 
L 334.665291 79.584452 
L 334.931048 79.47348 
L 335.04277 79.439256 
L 335.295692 79.329321 
L 335.415115 79.277465 
L 335.692775 79.167531 
L 335.804601 79.128121 
L 336.099773 79.017149 
L 336.212386 78.98085 
L 336.42076 78.869879 
L 336.532585 78.831506 
L 336.759673 78.721571 
L 336.872699 78.684235 
L 337.131584 78.573264 
L 337.243161 78.520371 
L 337.470311 78.4094 
L 337.584041 78.368952 
L 337.887059 78.257981 
L 337.998864 78.219607 
L 338.291925 78.108636 
L 338.412859 78.055743 
L 338.626388 77.944772 
L 338.745562 77.883582 
L 339.000182 77.773648 
L 339.000182 77.77261 
L 339.11886 77.72594 
L 339.465991 77.616006 
L 339.57525 77.56415 
L 339.577093 77.56415 
L 339.895719 77.453179 
L 339.995766 77.404434 
L 340.00682 77.404434 
L 340.240242 77.2945 
L 340.352855 77.242644 
L 340.572097 77.13271 
L 340.684088 77.085003 
L 340.968289 76.975068 
L 341.080322 76.927361 
L 341.341711 76.817427 
L 341.454344 76.780091 
L 341.753201 76.670156 
L 341.869084 76.614152 
L 342.174918 76.503181 
L 342.287365 76.468956 
L 342.572166 76.357984 
L 342.685462 76.334131 
L 342.990798 76.224196 
L 343.101672 76.161969 
L 343.101899 76.161969 
L 343.38018 76.050998 
L 343.495194 76.016773 
L 343.705307 75.905802 
L 343.812206 75.857057 
L 343.816346 75.857057 
L 344.070883 75.747123 
L 344.183123 75.691119 
L 344.422155 75.581185 
L 344.534601 75.537626 
L 344.813193 75.426654 
L 344.925184 75.379984 
L 345.193073 75.27005 
L 345.193073 75.269013 
L 345.3079 75.209897 
L 345.687325 75.099963 
L 345.786999 75.058478 
L 345.798302 75.058478 
L 346.104177 74.947507 
L 346.216272 74.896688 
L 346.461721 74.786754 
L 346.573837 74.736972 
L 346.887578 74.626001 
L 346.998306 74.585553 
L 346.998617 74.585553 
L 347.305382 74.474582 
L 347.420354 74.429986 
L 347.675678 74.320052 
L 347.789594 74.282716 
L 348.042537 74.171744 
L 348.155501 74.127148 
L 348.402627 74.017214 
L 348.402627 74.016177 
L 348.51644 73.973655 
L 348.768742 73.863721 
L 348.881043 73.803568 
L 349.198387 73.692597 
L 349.307894 73.631407 
L 349.309467 73.631407 
L 349.570235 73.520435 
L 349.684193 73.475839 
L 349.942891 73.365905 
L 350.055979 73.318198 
L 350.349682 73.207226 
L 350.462729 73.158482 
L 350.749538 73.048548 
L 350.856292 73.021583 
L 350.860619 73.021583 
L 351.198518 72.910611 
L 351.31142 72.866015 
L 351.652445 72.756081 
L 351.765119 72.704225 
L 352.057001 72.594291 
L 352.057001 72.593254 
L 352.172014 72.548658 
L 352.474556 72.438724 
L 352.586444 72.397239 
L 352.907824 72.286268 
L 353.019173 72.247894 
L 353.345335 72.136923 
L 353.461549 72.100624 
L 353.784751 71.989652 
L 353.907362 71.949205 
L 354.197732 71.838233 
L 354.302933 71.789489 
L 354.308709 71.789489 
L 354.546664 71.679555 
L 354.64874 71.631847 
L 354.657745 71.631847 
L 354.919631 71.520876 
L 355.031187 71.494948 
L 355.354927 71.385014 
L 355.45605 71.347678 
L 355.466007 71.347678 
L 355.739361 71.237743 
L 355.852098 71.196259 
L 356.119117 71.086325 
L 356.233282 71.038617 
L 356.538598 70.928683 
L 356.644566 70.895495 
L 356.649679 70.895495 
L 357.033554 70.785561 
L 357.145069 70.744076 
L 357.445666 70.633105 
L 357.562149 70.594732 
L 357.914746 70.484797 
L 358.022907 70.455758 
L 358.025743 70.455758 
L 358.311207 70.345824 
L 358.423198 70.302265 
L 358.781446 70.191294 
L 358.896419 70.146698 
L 359.188879 70.035726 
L 359.300705 69.999427 
L 359.611548 69.889493 
L 359.611548 69.888456 
L 359.724575 69.839711 
L 360.025274 69.730814 
L 360.136541 69.700738 
L 360.392734 69.589766 
L 360.507065 69.538948 
L 360.804618 69.429013 
L 360.916816 69.373009 
L 361.177522 69.263075 
L 361.289534 69.234036 
L 361.578248 69.124101 
L 361.689991 69.090914 
L 361.9644 68.979942 
L 362.077447 68.949866 
L 362.348586 68.838894 
L 362.467492 68.79015 
L 362.81038 68.679179 
L 362.922247 68.640805 
L 363.214211 68.529834 
L 363.333137 68.481089 
L 363.63009 68.370118 
L 363.741833 68.317225 
L 364.051641 68.206254 
L 364.171291 68.167881 
L 364.451062 68.057946 
L 364.56502 68.012313 
L 364.804715 67.902379 
L 364.91623 67.85882 
L 365.220283 67.747849 
L 365.331819 67.721921 
L 365.722422 67.610949 
L 365.836629 67.57465 
L 366.121989 67.464716 
L 366.234705 67.425306 
L 366.542215 67.315371 
L 366.654579 67.271812 
L 367.022639 67.160841 
L 367.110473 67.107948 
L 367.13374 67.107948 
L 367.463525 66.996977 
L 367.576862 66.962752 
L 367.886235 66.852818 
L 367.996591 66.817556 
L 367.997295 66.817556 
L 368.290791 66.707621 
L 368.290791 66.706584 
L 368.40626 66.655766 
L 368.704869 66.544794 
L 368.816694 66.506421 
L 369.234146 66.39545 
L 369.347939 66.330111 
L 369.597114 66.220177 
L 369.708422 66.186989 
L 370.031251 66.077055 
L 370.143077 66.039719 
L 370.454872 65.928747 
L 370.570921 65.911116 
L 370.880439 65.801182 
L 370.992451 65.772143 
L 371.369206 65.662209 
L 371.369206 65.661172 
L 371.481093 65.622798 
L 371.755938 65.511827 
L 371.872007 65.467231 
L 372.168505 65.357297 
L 372.28062 65.324109 
L 372.632948 65.214175 
L 372.744318 65.180987 
L 373.072301 65.070015 
L 373.183299 65.019197 
L 373.183402 65.019197 
L 373.501719 64.909263 
L 373.618223 64.865704 
L 374.021536 64.755769 
L 374.133527 64.712211 
L 374.463829 64.602276 
L 374.575758 64.560792 
L 374.897946 64.450857 
L 375.010786 64.432189 
L 375.318482 64.322255 
L 375.430515 64.274548 
L 375.805117 64.164613 
L 375.908827 64.108609 
L 375.916135 64.108609 
L 376.273327 63.998675 
L 376.384987 63.97171 
L 376.73423 63.860738 
L 376.845704 63.841033 
L 377.203704 63.731099 
L 377.315591 63.689614 
L 377.620949 63.57968 
L 377.733375 63.536121 
L 378.008385 63.426187 
L 378.008385 63.42515 
L 378.121328 63.380554 
L 378.493901 63.270619 
L 378.602642 63.214615 
L 378.604961 63.214615 
L 378.920255 63.104681 
L 379.016348 63.077716 
L 379.031294 63.077716 
L 379.395855 62.966745 
L 379.500187 62.926297 
L 379.506957 62.926297 
L 379.765986 62.816363 
L 379.877522 62.772804 
L 380.207389 62.66287 
L 380.320104 62.60894 
L 380.629002 62.499005 
L 380.74002 62.453372 
L 381.069949 62.343438 
L 381.181982 62.295731 
L 381.514975 62.185796 
L 381.623882 62.138089 
L 381.625931 62.138089 
L 382.00902 62.027118 
L 382.118093 61.997041 
L 382.120018 61.997041 
L 382.411092 61.887107 
L 382.525029 61.833177 
L 382.836327 61.723243 
L 382.948671 61.681758 
L 383.304062 61.571824 
L 383.304062 61.570787 
L 383.41595 61.532413 
L 383.69216 61.422479 
L 383.69216 61.421442 
L 383.804069 61.37892 
L 384.118783 61.267949 
L 384.224709 61.229575 
L 384.229843 61.229575 
L 384.621129 61.119641 
L 384.621129 61.118604 
L 384.735273 61.084379 
L 385.052409 60.974445 
L 385.162206 60.935035 
L 385.163511 60.935035 
L 385.548814 60.8251 
L 385.648344 60.783616 
L 385.659812 60.783616 
L 386.060952 60.673681 
L 386.172819 60.636345 
L 386.491777 60.526411 
L 386.599939 60.480778 
L 386.602837 60.480778 
L 386.945249 60.370844 
L 387.055046 60.335582 
L 387.056329 60.335582 
L 387.412714 60.225647 
L 387.524788 60.17794 
L 387.863763 60.066969 
L 387.976873 60.036892 
L 388.297942 59.925921 
L 388.409581 59.895844 
L 388.786833 59.784873 
L 388.898472 59.7465 
L 389.187558 59.635528 
L 389.294726 59.597155 
L 389.298639 59.597155 
L 389.676139 59.487221 
L 389.770162 59.460256 
L 389.787198 59.460256 
L 390.131597 59.349284 
L 390.241726 59.306763 
L 390.242699 59.306763 
L 390.603017 59.196828 
L 390.715091 59.165715 
L 391.044171 59.055781 
L 391.044171 59.054744 
L 391.156949 59.012222 
L 391.474127 58.902288 
L 391.584876 58.85458 
L 391.585207 58.85458 
L 391.932774 58.743609 
L 392.044723 58.699013 
L 392.33617 58.588041 
L 392.44754 58.568336 
L 392.851765 58.458402 
L 392.951625 58.429363 
L 392.962824 58.429363 
L 393.302607 58.319428 
L 393.416317 58.269647 
L 393.750262 58.159713 
L 393.750262 58.158675 
L 393.862481 58.132748 
L 394.270183 58.021776 
L 394.376833 57.979254 
L 394.381222 57.979254 
L 394.745142 57.86932 
L 394.848936 57.831984 
L 394.856243 57.831984 
L 395.135352 57.72205 
L 395.244321 57.680565 
L 395.24635 57.680565 
L 395.677961 57.569594 
L 395.780844 57.547814 
L 395.789021 57.547814 
L 396.172172 57.43788 
L 396.282031 57.400544 
L 396.283273 57.400544 
L 396.716975 57.290609 
L 396.795845 57.265719 
L 396.828014 57.265719 
L 397.242713 57.155784 
L 397.354187 57.1143 
L 397.81892 57.004366 
L 397.93118 56.9774 
L 398.288994 56.867466 
L 398.39848 56.840501 
L 398.400074 56.840501 
L 398.761427 56.730567 
L 398.87052 56.703602 
L 398.872383 56.703602 
L 399.318568 56.593668 
L 399.430187 56.566703 
L 399.80425 56.456768 
L 399.901834 56.427729 
L 399.915331 56.427729 
L 400.282128 56.316758 
L 400.386791 56.288756 
L 400.393188 56.288756 
L 400.84078 56.178821 
L 400.948238 56.149782 
L 400.951861 56.149782 
L 401.343685 56.038811 
L 401.455449 56.00666 
L 401.881202 55.896726 
L 401.984955 55.869761 
L 401.992303 55.869761 
L 402.495271 55.759826 
L 402.495271 55.758789 
L 402.60867 55.732861 
L 402.99093 55.622927 
L 403.090046 55.598036 
L 403.102032 55.598036 
L 403.601894 55.488102 
L 403.601894 55.487065 
L 403.715044 55.465286 
L 404.214264 55.355351 
L 404.324269 55.328386 
L 404.325304 55.328386 
L 404.924716 55.218452 
L 405.035217 55.201858 
L 405.035796 55.201858 
L 405.616371 55.091924 
L 405.727865 55.071182 
L 406.399689 54.961247 
L 406.506836 54.948802 
L 406.510604 54.948802 
L 407.175554 54.838868 
L 407.287132 54.813977 
L 408.245827 54.704043 
L 408.341216 54.69782 
L 408.356535 54.69782 
L 409.423702 54.587886 
L 409.423702 54.586848 
L 409.535279 54.57544 
L 411.05124 54.465506 
L 411.160457 54.450986 
L 411.162113 54.450986 
L 412.889719 54.341052 
L 412.889719 54.338978 
L 413.00082 54.338978 
L 414.546569 54.229043 
L 414.657401 54.173039 
L 414.72 54.144 
L 414.72 54.144 
" clip-path="url(#pb1c5f8d5ee)" style="fill: none; stroke: #ff8c00; stroke-width: 1.5; stroke-linecap: square"/>
   </g>
   <g id="line2d_14">
    <path d="M 74.605714 307.584 
L 414.72 54.144 
" clip-path="url(#pb1c5f8d5ee)" style="fill: none; stroke-dasharray: 5.55,2.4; stroke-dashoffset: 0; stroke: #0000ff; stroke-width: 1.5"/>
   </g>
   <g id="patch_3">
    <path d="M 57.6 307.584 
L 57.6 41.472 
" style="fill: none; stroke: #000000; stroke-width: 0.8; stroke-linejoin: miter; stroke-linecap: square"/>
   </g>
   <g id="patch_4">
    <path d="M 414.72 307.584 
L 414.72 41.472 
" style="fill: none; stroke: #000000; stroke-width: 0.8; stroke-linejoin: miter; stroke-linecap: square"/>
   </g>
   <g id="patch_5">
    <path d="M 57.6 307.584 
L 414.72 307.584 
" style="fill: none; stroke: #000000; stroke-width: 0.8; stroke-linejoin: miter; stroke-linecap: square"/>
   </g>
   <g id="patch_6">
    <path d="M 57.6 41.472 
L 414.72 41.472 
" style="fill: none; stroke: #000000; stroke-width: 0.8; stroke-linejoin: miter; stroke-linecap: square"/>
   </g>
   <g id="text_15">
    <!-- ROC CURVE -->
    <g transform="translate(200.855625 35.472)scale(0.12 -0.12)">
     <defs>
      <path id="DejaVuSans-4f" d="M 2522 4238 
Q 1834 4238 1429 3725 
Q 1025 3213 1025 2328 
Q 1025 1447 1429 934 
Q 1834 422 2522 422 
Q 3209 422 3611 934 
Q 4013 1447 4013 2328 
Q 4013 3213 3611 3725 
Q 3209 4238 2522 4238 
z
M 2522 4750 
Q 3503 4750 4090 4092 
Q 4678 3434 4678 2328 
Q 4678 1225 4090 567 
Q 3503 -91 2522 -91 
Q 1538 -91 948 565 
Q 359 1222 359 2328 
Q 359 3434 948 4092 
Q 1538 4750 2522 4750 
z
" transform="scale(0.015625)"/>
      <path id="DejaVuSans-43" d="M 4122 4306 
L 4122 3641 
Q 3803 3938 3442 4084 
Q 3081 4231 2675 4231 
Q 1875 4231 1450 3742 
Q 1025 3253 1025 2328 
Q 1025 1406 1450 917 
Q 1875 428 2675 428 
Q 3081 428 3442 575 
Q 3803 722 4122 1019 
L 4122 359 
Q 3791 134 3420 21 
Q 3050 -91 2638 -91 
Q 1578 -91 968 557 
Q 359 1206 359 2328 
Q 359 3453 968 4101 
Q 1578 4750 2638 4750 
Q 3056 4750 3426 4639 
Q 3797 4528 4122 4306 
z
" transform="scale(0.015625)"/>
      <path id="DejaVuSans-55" d="M 556 4666 
L 1191 4666 
L 1191 1831 
Q 1191 1081 1462 751 
Q 1734 422 2344 422 
Q 2950 422 3222 751 
Q 3494 1081 3494 1831 
L 3494 4666 
L 4128 4666 
L 4128 1753 
Q 4128 841 3676 375 
Q 3225 -91 2344 -91 
Q 1459 -91 1007 375 
Q 556 841 556 1753 
L 556 4666 
z
" transform="scale(0.015625)"/>
      <path id="DejaVuSans-56" d="M 1831 0 
L 50 4666 
L 709 4666 
L 2188 738 
L 3669 4666 
L 4325 4666 
L 2547 0 
L 1831 0 
z
" transform="scale(0.015625)"/>
      <path id="DejaVuSans-45" d="M 628 4666 
L 3578 4666 
L 3578 4134 
L 1259 4134 
L 1259 2753 
L 3481 2753 
L 3481 2222 
L 1259 2222 
L 1259 531 
L 3634 531 
L 3634 0 
L 628 0 
L 628 4666 
z
" transform="scale(0.015625)"/>
     </defs>
     <use xlink:href="#DejaVuSans-52"/>
     <use xlink:href="#DejaVuSans-4f" x="69.482422"/>
     <use xlink:href="#DejaVuSans-43" x="148.193359"/>
     <use xlink:href="#DejaVuSans-20" x="218.017578"/>
     <use xlink:href="#DejaVuSans-43" x="249.804688"/>
     <use xlink:href="#DejaVuSans-55" x="319.628906"/>
     <use xlink:href="#DejaVuSans-52" x="392.822266"/>
     <use xlink:href="#DejaVuSans-56" x="456.804688"/>
     <use xlink:href="#DejaVuSans-45" x="525.212891"/>
    </g>
   </g>
   <g id="legend_1">
    <g id="patch_7">
     <path d="M 234.97 302.584 
L 407.72 302.584 
Q 409.72 302.584 409.72 300.584 
L 409.72 286.905875 
Q 409.72 284.905875 407.72 284.905875 
L 234.97 284.905875 
Q 232.97 284.905875 232.97 286.905875 
L 232.97 300.584 
Q 232.97 302.584 234.97 302.584 
z
" style="fill: #ffffff; opacity: 0.8; stroke: #cccccc; stroke-linejoin: miter"/>
    </g>
    <g id="line2d_15">
     <path d="M 236.97 293.004312 
L 246.97 293.004312 
L 256.97 293.004312 
" style="fill: none; stroke: #ff8c00; stroke-width: 1.5; stroke-linecap: square"/>
    </g>
    <g id="text_16">
     <!-- ROC curve (ROC AUC=0.62) -->
     <g transform="translate(264.97 296.504312)scale(0.1 -0.1)">
      <defs>
       <path id="DejaVuSans-63" d="M 3122 3366 
L 3122 2828 
Q 2878 2963 2633 3030 
Q 2388 3097 2138 3097 
Q 1578 3097 1268 2742 
Q 959 2388 959 1747 
Q 959 1106 1268 751 
Q 1578 397 2138 397 
Q 2388 397 2633 464 
Q 2878 531 3122 666 
L 3122 134 
Q 2881 22 2623 -34 
Q 2366 -91 2075 -91 
Q 1284 -91 818 406 
Q 353 903 353 1747 
Q 353 2603 823 3093 
Q 1294 3584 2113 3584 
Q 2378 3584 2631 3529 
Q 2884 3475 3122 3366 
z
" transform="scale(0.015625)"/>
       <path id="DejaVuSans-28" d="M 1984 4856 
Q 1566 4138 1362 3434 
Q 1159 2731 1159 2009 
Q 1159 1288 1364 580 
Q 1569 -128 1984 -844 
L 1484 -844 
Q 1016 -109 783 600 
Q 550 1309 550 2009 
Q 550 2706 781 3412 
Q 1013 4119 1484 4856 
L 1984 4856 
z
" transform="scale(0.015625)"/>
       <path id="DejaVuSans-41" d="M 2188 4044 
L 1331 1722 
L 3047 1722 
L 2188 4044 
z
M 1831 4666 
L 2547 4666 
L 4325 0 
L 3669 0 
L 3244 1197 
L 1141 1197 
L 716 0 
L 50 0 
L 1831 4666 
z
" transform="scale(0.015625)"/>
       <path id="DejaVuSans-3d" d="M 678 2906 
L 4684 2906 
L 4684 2381 
L 678 2381 
L 678 2906 
z
M 678 1631 
L 4684 1631 
L 4684 1100 
L 678 1100 
L 678 1631 
z
" transform="scale(0.015625)"/>
       <path id="DejaVuSans-29" d="M 513 4856 
L 1013 4856 
Q 1481 4119 1714 3412 
Q 1947 2706 1947 2009 
Q 1947 1309 1714 600 
Q 1481 -109 1013 -844 
L 513 -844 
Q 928 -128 1133 580 
Q 1338 1288 1338 2009 
Q 1338 2731 1133 3434 
Q 928 4138 513 4856 
z
" transform="scale(0.015625)"/>
      </defs>
      <use xlink:href="#DejaVuSans-52"/>
      <use xlink:href="#DejaVuSans-4f" x="69.482422"/>
      <use xlink:href="#DejaVuSans-43" x="148.193359"/>
      <use xlink:href="#DejaVuSans-20" x="218.017578"/>
      <use xlink:href="#DejaVuSans-63" x="249.804688"/>
      <use xlink:href="#DejaVuSans-75" x="304.785156"/>
      <use xlink:href="#DejaVuSans-72" x="368.164062"/>
      <use xlink:href="#DejaVuSans-76" x="409.277344"/>
      <use xlink:href="#DejaVuSans-65" x="468.457031"/>
      <use xlink:href="#DejaVuSans-20" x="529.980469"/>
      <use xlink:href="#DejaVuSans-28" x="561.767578"/>
      <use xlink:href="#DejaVuSans-52" x="600.78125"/>
      <use xlink:href="#DejaVuSans-4f" x="670.263672"/>
      <use xlink:href="#DejaVuSans-43" x="748.974609"/>
      <use xlink:href="#DejaVuSans-20" x="818.798828"/>
      <use xlink:href="#DejaVuSans-41" x="850.585938"/>
      <use xlink:href="#DejaVuSans-55" x="918.994141"/>
      <use xlink:href="#DejaVuSans-43" x="992.1875"/>
      <use xlink:href="#DejaVuSans-3d" x="1062.011719"/>
      <use xlink:href="#DejaVuSans-30" x="1145.800781"/>
      <use xlink:href="#DejaVuSans-2e" x="1209.423828"/>
      <use xlink:href="#DejaVuSans-36" x="1241.210938"/>
      <use xlink:href="#DejaVuSans-32" x="1304.833984"/>
      <use xlink:href="#DejaVuSans-29" x="1368.457031"/>
     </g>
    </g>
   </g>
  </g>
 </g>
 <defs>
  <clipPath id="pb1c5f8d5ee">
   <rect x="57.6" y="41.472" width="357.12" height="266.112"/>
  </clipPath>
 </defs>
</svg>
