<?xml version="1.0" encoding="utf-8" standalone="no"?>
<!DOCTYPE svg PUBLIC "-//W3C//DTD SVG 1.1//EN"
  "http://www.w3.org/Graphics/SVG/1.1/DTD/svg11.dtd">
<svg xmlns:xlink="http://www.w3.org/1999/xlink" width="460.8pt" height="345.6pt" viewBox="0 0 460.8 345.6" xmlns="http://www.w3.org/2000/svg" version="1.1">
 <metadata>
  <rdf:RDF xmlns:dc="http://purl.org/dc/elements/1.1/" xmlns:cc="http://creativecommons.org/ns#" xmlns:rdf="http://www.w3.org/1999/02/22-rdf-syntax-ns#">
   <cc:Work>
    <dc:type rdf:resource="http://purl.org/dc/dcmitype/StillImage"/>
    <dc:date>2022-05-21T19:39:08.557322</dc:date>
    <dc:format>image/svg+xml</dc:format>
    <dc:creator>
     <cc:Agent>
      <dc:title>Matplotlib v3.5.1, https://matplotlib.org/</dc:title>
     </cc:Agent>
    </dc:creator>
   </cc:Work>
  </rdf:RDF>
 </metadata>
 <defs>
  <style type="text/css">*{stroke-linejoin: round; stroke-linecap: butt}</style>
 </defs>
 <g id="figure_1">
  <g id="patch_1">
   <path d="M 0 345.6 
L 460.8 345.6 
L 460.8 0 
L 0 0 
z
" style="fill: #ffffff"/>
  </g>
  <g id="axes_1">
   <g id="patch_2">
    <path d="M 57.6 307.584 
L 414.72 307.584 
L 414.72 41.472 
L 57.6 41.472 
z
" style="fill: #ffffff"/>
   </g>
   <g id="matplotlib.axis_1">
    <g id="xtick_1">
     <g id="line2d_1">
      <defs>
       <path id="m2327df4134" d="M 0 0 
L 0 3.5 
" style="stroke: #000000; stroke-width: 0.8"/>
      </defs>
      <g>
       <use xlink:href="#m2327df4134" x="74.605714" y="307.584" style="stroke: #000000; stroke-width: 0.8"/>
      </g>
     </g>
     <g id="text_1">
      <!-- 0.0 -->
      <g transform="translate(66.654152 322.182437)scale(0.1 -0.1)">
       <defs>
        <path id="DejaVuSans-30" d="M 2034 4250 
Q 1547 4250 1301 3770 
Q 1056 3291 1056 2328 
Q 1056 1369 1301 889 
Q 1547 409 2034 409 
Q 2525 409 2770 889 
Q 3016 1369 3016 2328 
Q 3016 3291 2770 3770 
Q 2525 4250 2034 4250 
z
M 2034 4750 
Q 2819 4750 3233 4129 
Q 3647 3509 3647 2328 
Q 3647 1150 3233 529 
Q 2819 -91 2034 -91 
Q 1250 -91 836 529 
Q 422 1150 422 2328 
Q 422 3509 836 4129 
Q 1250 4750 2034 4750 
z
" transform="scale(0.015625)"/>
        <path id="DejaVuSans-2e" d="M 684 794 
L 1344 794 
L 1344 0 
L 684 0 
L 684 794 
z
" transform="scale(0.015625)"/>
       </defs>
       <use xlink:href="#DejaVuSans-30"/>
       <use xlink:href="#DejaVuSans-2e" x="63.623047"/>
       <use xlink:href="#DejaVuSans-30" x="95.410156"/>
      </g>
     </g>
    </g>
    <g id="xtick_2">
     <g id="line2d_2">
      <g>
       <use xlink:href="#m2327df4134" x="142.628571" y="307.584" style="stroke: #000000; stroke-width: 0.8"/>
      </g>
     </g>
     <g id="text_2">
      <!-- 0.2 -->
      <g transform="translate(134.677009 322.182437)scale(0.1 -0.1)">
       <defs>
        <path id="DejaVuSans-32" d="M 1228 531 
L 3431 531 
L 3431 0 
L 469 0 
L 469 531 
Q 828 903 1448 1529 
Q 2069 2156 2228 2338 
Q 2531 2678 2651 2914 
Q 2772 3150 2772 3378 
Q 2772 3750 2511 3984 
Q 2250 4219 1831 4219 
Q 1534 4219 1204 4116 
Q 875 4013 500 3803 
L 500 4441 
Q 881 4594 1212 4672 
Q 1544 4750 1819 4750 
Q 2544 4750 2975 4387 
Q 3406 4025 3406 3419 
Q 3406 3131 3298 2873 
Q 3191 2616 2906 2266 
Q 2828 2175 2409 1742 
Q 1991 1309 1228 531 
z
" transform="scale(0.015625)"/>
       </defs>
       <use xlink:href="#DejaVuSans-30"/>
       <use xlink:href="#DejaVuSans-2e" x="63.623047"/>
       <use xlink:href="#DejaVuSans-32" x="95.410156"/>
      </g>
     </g>
    </g>
    <g id="xtick_3">
     <g id="line2d_3">
      <g>
       <use xlink:href="#m2327df4134" x="210.651429" y="307.584" style="stroke: #000000; stroke-width: 0.8"/>
      </g>
     </g>
     <g id="text_3">
      <!-- 0.4 -->
      <g transform="translate(202.699866 322.182437)scale(0.1 -0.1)">
       <defs>
        <path id="DejaVuSans-34" d="M 2419 4116 
L 825 1625 
L 2419 1625 
L 2419 4116 
z
M 2253 4666 
L 3047 4666 
L 3047 1625 
L 3713 1625 
L 3713 1100 
L 3047 1100 
L 3047 0 
L 2419 0 
L 2419 1100 
L 313 1100 
L 313 1709 
L 2253 4666 
z
" transform="scale(0.015625)"/>
       </defs>
       <use xlink:href="#DejaVuSans-30"/>
       <use xlink:href="#DejaVuSans-2e" x="63.623047"/>
       <use xlink:href="#DejaVuSans-34" x="95.410156"/>
      </g>
     </g>
    </g>
    <g id="xtick_4">
     <g id="line2d_4">
      <g>
       <use xlink:href="#m2327df4134" x="278.674286" y="307.584" style="stroke: #000000; stroke-width: 0.8"/>
      </g>
     </g>
     <g id="text_4">
      <!-- 0.6 -->
      <g transform="translate(270.722723 322.182437)scale(0.1 -0.1)">
       <defs>
        <path id="DejaVuSans-36" d="M 2113 2584 
Q 1688 2584 1439 2293 
Q 1191 2003 1191 1497 
Q 1191 994 1439 701 
Q 1688 409 2113 409 
Q 2538 409 2786 701 
Q 3034 994 3034 1497 
Q 3034 2003 2786 2293 
Q 2538 2584 2113 2584 
z
M 3366 4563 
L 3366 3988 
Q 3128 4100 2886 4159 
Q 2644 4219 2406 4219 
Q 1781 4219 1451 3797 
Q 1122 3375 1075 2522 
Q 1259 2794 1537 2939 
Q 1816 3084 2150 3084 
Q 2853 3084 3261 2657 
Q 3669 2231 3669 1497 
Q 3669 778 3244 343 
Q 2819 -91 2113 -91 
Q 1303 -91 875 529 
Q 447 1150 447 2328 
Q 447 3434 972 4092 
Q 1497 4750 2381 4750 
Q 2619 4750 2861 4703 
Q 3103 4656 3366 4563 
z
" transform="scale(0.015625)"/>
       </defs>
       <use xlink:href="#DejaVuSans-30"/>
       <use xlink:href="#DejaVuSans-2e" x="63.623047"/>
       <use xlink:href="#DejaVuSans-36" x="95.410156"/>
      </g>
     </g>
    </g>
    <g id="xtick_5">
     <g id="line2d_5">
      <g>
       <use xlink:href="#m2327df4134" x="346.697143" y="307.584" style="stroke: #000000; stroke-width: 0.8"/>
      </g>
     </g>
     <g id="text_5">
      <!-- 0.8 -->
      <g transform="translate(338.74558 322.182437)scale(0.1 -0.1)">
       <defs>
        <path id="DejaVuSans-38" d="M 2034 2216 
Q 1584 2216 1326 1975 
Q 1069 1734 1069 1313 
Q 1069 891 1326 650 
Q 1584 409 2034 409 
Q 2484 409 2743 651 
Q 3003 894 3003 1313 
Q 3003 1734 2745 1975 
Q 2488 2216 2034 2216 
z
M 1403 2484 
Q 997 2584 770 2862 
Q 544 3141 544 3541 
Q 544 4100 942 4425 
Q 1341 4750 2034 4750 
Q 2731 4750 3128 4425 
Q 3525 4100 3525 3541 
Q 3525 3141 3298 2862 
Q 3072 2584 2669 2484 
Q 3125 2378 3379 2068 
Q 3634 1759 3634 1313 
Q 3634 634 3220 271 
Q 2806 -91 2034 -91 
Q 1263 -91 848 271 
Q 434 634 434 1313 
Q 434 1759 690 2068 
Q 947 2378 1403 2484 
z
M 1172 3481 
Q 1172 3119 1398 2916 
Q 1625 2713 2034 2713 
Q 2441 2713 2670 2916 
Q 2900 3119 2900 3481 
Q 2900 3844 2670 4047 
Q 2441 4250 2034 4250 
Q 1625 4250 1398 4047 
Q 1172 3844 1172 3481 
z
" transform="scale(0.015625)"/>
       </defs>
       <use xlink:href="#DejaVuSans-30"/>
       <use xlink:href="#DejaVuSans-2e" x="63.623047"/>
       <use xlink:href="#DejaVuSans-38" x="95.410156"/>
      </g>
     </g>
    </g>
    <g id="xtick_6">
     <g id="line2d_6">
      <g>
       <use xlink:href="#m2327df4134" x="414.72" y="307.584" style="stroke: #000000; stroke-width: 0.8"/>
      </g>
     </g>
     <g id="text_6">
      <!-- 1.0 -->
      <g transform="translate(406.768438 322.182437)scale(0.1 -0.1)">
       <defs>
        <path id="DejaVuSans-31" d="M 794 531 
L 1825 531 
L 1825 4091 
L 703 3866 
L 703 4441 
L 1819 4666 
L 2450 4666 
L 2450 531 
L 3481 531 
L 3481 0 
L 794 0 
L 794 531 
z
" transform="scale(0.015625)"/>
       </defs>
       <use xlink:href="#DejaVuSans-31"/>
       <use xlink:href="#DejaVuSans-2e" x="63.623047"/>
       <use xlink:href="#DejaVuSans-30" x="95.410156"/>
      </g>
     </g>
    </g>
    <g id="text_7">
     <!-- False Positive Rate -->
     <g transform="translate(189.693594 335.860562)scale(0.1 -0.1)">
      <defs>
       <path id="DejaVuSans-46" d="M 628 4666 
L 3309 4666 
L 3309 4134 
L 1259 4134 
L 1259 2759 
L 3109 2759 
L 3109 2228 
L 1259 2228 
L 1259 0 
L 628 0 
L 628 4666 
z
" transform="scale(0.015625)"/>
       <path id="DejaVuSans-61" d="M 2194 1759 
Q 1497 1759 1228 1600 
Q 959 1441 959 1056 
Q 959 750 1161 570 
Q 1363 391 1709 391 
Q 2188 391 2477 730 
Q 2766 1069 2766 1631 
L 2766 1759 
L 2194 1759 
z
M 3341 1997 
L 3341 0 
L 2766 0 
L 2766 531 
Q 2569 213 2275 61 
Q 1981 -91 1556 -91 
Q 1019 -91 701 211 
Q 384 513 384 1019 
Q 384 1609 779 1909 
Q 1175 2209 1959 2209 
L 2766 2209 
L 2766 2266 
Q 2766 2663 2505 2880 
Q 2244 3097 1772 3097 
Q 1472 3097 1187 3025 
Q 903 2953 641 2809 
L 641 3341 
Q 956 3463 1253 3523 
Q 1550 3584 1831 3584 
Q 2591 3584 2966 3190 
Q 3341 2797 3341 1997 
z
" transform="scale(0.015625)"/>
       <path id="DejaVuSans-6c" d="M 603 4863 
L 1178 4863 
L 1178 0 
L 603 0 
L 603 4863 
z
" transform="scale(0.015625)"/>
       <path id="DejaVuSans-73" d="M 2834 3397 
L 2834 2853 
Q 2591 2978 2328 3040 
Q 2066 3103 1784 3103 
Q 1356 3103 1142 2972 
Q 928 2841 928 2578 
Q 928 2378 1081 2264 
Q 1234 2150 1697 2047 
L 1894 2003 
Q 2506 1872 2764 1633 
Q 3022 1394 3022 966 
Q 3022 478 2636 193 
Q 2250 -91 1575 -91 
Q 1294 -91 989 -36 
Q 684 19 347 128 
L 347 722 
Q 666 556 975 473 
Q 1284 391 1588 391 
Q 1994 391 2212 530 
Q 2431 669 2431 922 
Q 2431 1156 2273 1281 
Q 2116 1406 1581 1522 
L 1381 1569 
Q 847 1681 609 1914 
Q 372 2147 372 2553 
Q 372 3047 722 3315 
Q 1072 3584 1716 3584 
Q 2034 3584 2315 3537 
Q 2597 3491 2834 3397 
z
" transform="scale(0.015625)"/>
       <path id="DejaVuSans-65" d="M 3597 1894 
L 3597 1613 
L 953 1613 
Q 991 1019 1311 708 
Q 1631 397 2203 397 
Q 2534 397 2845 478 
Q 3156 559 3463 722 
L 3463 178 
Q 3153 47 2828 -22 
Q 2503 -91 2169 -91 
Q 1331 -91 842 396 
Q 353 884 353 1716 
Q 353 2575 817 3079 
Q 1281 3584 2069 3584 
Q 2775 3584 3186 3129 
Q 3597 2675 3597 1894 
z
M 3022 2063 
Q 3016 2534 2758 2815 
Q 2500 3097 2075 3097 
Q 1594 3097 1305 2825 
Q 1016 2553 972 2059 
L 3022 2063 
z
" transform="scale(0.015625)"/>
       <path id="DejaVuSans-20" transform="scale(0.015625)"/>
       <path id="DejaVuSans-50" d="M 1259 4147 
L 1259 2394 
L 2053 2394 
Q 2494 2394 2734 2622 
Q 2975 2850 2975 3272 
Q 2975 3691 2734 3919 
Q 2494 4147 2053 4147 
L 1259 4147 
z
M 628 4666 
L 2053 4666 
Q 2838 4666 3239 4311 
Q 3641 3956 3641 3272 
Q 3641 2581 3239 2228 
Q 2838 1875 2053 1875 
L 1259 1875 
L 1259 0 
L 628 0 
L 628 4666 
z
" transform="scale(0.015625)"/>
       <path id="DejaVuSans-6f" d="M 1959 3097 
Q 1497 3097 1228 2736 
Q 959 2375 959 1747 
Q 959 1119 1226 758 
Q 1494 397 1959 397 
Q 2419 397 2687 759 
Q 2956 1122 2956 1747 
Q 2956 2369 2687 2733 
Q 2419 3097 1959 3097 
z
M 1959 3584 
Q 2709 3584 3137 3096 
Q 3566 2609 3566 1747 
Q 3566 888 3137 398 
Q 2709 -91 1959 -91 
Q 1206 -91 779 398 
Q 353 888 353 1747 
Q 353 2609 779 3096 
Q 1206 3584 1959 3584 
z
" transform="scale(0.015625)"/>
       <path id="DejaVuSans-69" d="M 603 3500 
L 1178 3500 
L 1178 0 
L 603 0 
L 603 3500 
z
M 603 4863 
L 1178 4863 
L 1178 4134 
L 603 4134 
L 603 4863 
z
" transform="scale(0.015625)"/>
       <path id="DejaVuSans-74" d="M 1172 4494 
L 1172 3500 
L 2356 3500 
L 2356 3053 
L 1172 3053 
L 1172 1153 
Q 1172 725 1289 603 
Q 1406 481 1766 481 
L 2356 481 
L 2356 0 
L 1766 0 
Q 1100 0 847 248 
Q 594 497 594 1153 
L 594 3053 
L 172 3053 
L 172 3500 
L 594 3500 
L 594 4494 
L 1172 4494 
z
" transform="scale(0.015625)"/>
       <path id="DejaVuSans-76" d="M 191 3500 
L 800 3500 
L 1894 563 
L 2988 3500 
L 3597 3500 
L 2284 0 
L 1503 0 
L 191 3500 
z
" transform="scale(0.015625)"/>
       <path id="DejaVuSans-52" d="M 2841 2188 
Q 3044 2119 3236 1894 
Q 3428 1669 3622 1275 
L 4263 0 
L 3584 0 
L 2988 1197 
Q 2756 1666 2539 1819 
Q 2322 1972 1947 1972 
L 1259 1972 
L 1259 0 
L 628 0 
L 628 4666 
L 2053 4666 
Q 2853 4666 3247 4331 
Q 3641 3997 3641 3322 
Q 3641 2881 3436 2590 
Q 3231 2300 2841 2188 
z
M 1259 4147 
L 1259 2491 
L 2053 2491 
Q 2509 2491 2742 2702 
Q 2975 2913 2975 3322 
Q 2975 3731 2742 3939 
Q 2509 4147 2053 4147 
L 1259 4147 
z
" transform="scale(0.015625)"/>
      </defs>
      <use xlink:href="#DejaVuSans-46"/>
      <use xlink:href="#DejaVuSans-61" x="48.394531"/>
      <use xlink:href="#DejaVuSans-6c" x="109.673828"/>
      <use xlink:href="#DejaVuSans-73" x="137.457031"/>
      <use xlink:href="#DejaVuSans-65" x="189.556641"/>
      <use xlink:href="#DejaVuSans-20" x="251.080078"/>
      <use xlink:href="#DejaVuSans-50" x="282.867188"/>
      <use xlink:href="#DejaVuSans-6f" x="339.544922"/>
      <use xlink:href="#DejaVuSans-73" x="400.726562"/>
      <use xlink:href="#DejaVuSans-69" x="452.826172"/>
      <use xlink:href="#DejaVuSans-74" x="480.609375"/>
      <use xlink:href="#DejaVuSans-69" x="519.818359"/>
      <use xlink:href="#DejaVuSans-76" x="547.601562"/>
      <use xlink:href="#DejaVuSans-65" x="606.78125"/>
      <use xlink:href="#DejaVuSans-20" x="668.304688"/>
      <use xlink:href="#DejaVuSans-52" x="700.091797"/>
      <use xlink:href="#DejaVuSans-61" x="767.324219"/>
      <use xlink:href="#DejaVuSans-74" x="828.603516"/>
      <use xlink:href="#DejaVuSans-65" x="867.8125"/>
     </g>
    </g>
   </g>
   <g id="matplotlib.axis_2">
    <g id="ytick_1">
     <g id="line2d_7">
      <defs>
       <path id="m5730379969" d="M 0 0 
L -3.5 0 
" style="stroke: #000000; stroke-width: 0.8"/>
      </defs>
      <g>
       <use xlink:href="#m5730379969" x="57.6" y="307.584" style="stroke: #000000; stroke-width: 0.8"/>
      </g>
     </g>
     <g id="text_8">
      <!-- 0.0 -->
      <g transform="translate(34.696875 311.383219)scale(0.1 -0.1)">
       <use xlink:href="#DejaVuSans-30"/>
       <use xlink:href="#DejaVuSans-2e" x="63.623047"/>
       <use xlink:href="#DejaVuSans-30" x="95.410156"/>
      </g>
     </g>
    </g>
    <g id="ytick_2">
     <g id="line2d_8">
      <g>
       <use xlink:href="#m5730379969" x="57.6" y="256.896" style="stroke: #000000; stroke-width: 0.8"/>
      </g>
     </g>
     <g id="text_9">
      <!-- 0.2 -->
      <g transform="translate(34.696875 260.695219)scale(0.1 -0.1)">
       <use xlink:href="#DejaVuSans-30"/>
       <use xlink:href="#DejaVuSans-2e" x="63.623047"/>
       <use xlink:href="#DejaVuSans-32" x="95.410156"/>
      </g>
     </g>
    </g>
    <g id="ytick_3">
     <g id="line2d_9">
      <g>
       <use xlink:href="#m5730379969" x="57.6" y="206.208" style="stroke: #000000; stroke-width: 0.8"/>
      </g>
     </g>
     <g id="text_10">
      <!-- 0.4 -->
      <g transform="translate(34.696875 210.007219)scale(0.1 -0.1)">
       <use xlink:href="#DejaVuSans-30"/>
       <use xlink:href="#DejaVuSans-2e" x="63.623047"/>
       <use xlink:href="#DejaVuSans-34" x="95.410156"/>
      </g>
     </g>
    </g>
    <g id="ytick_4">
     <g id="line2d_10">
      <g>
       <use xlink:href="#m5730379969" x="57.6" y="155.52" style="stroke: #000000; stroke-width: 0.8"/>
      </g>
     </g>
     <g id="text_11">
      <!-- 0.6 -->
      <g transform="translate(34.696875 159.319219)scale(0.1 -0.1)">
       <use xlink:href="#DejaVuSans-30"/>
       <use xlink:href="#DejaVuSans-2e" x="63.623047"/>
       <use xlink:href="#DejaVuSans-36" x="95.410156"/>
      </g>
     </g>
    </g>
    <g id="ytick_5">
     <g id="line2d_11">
      <g>
       <use xlink:href="#m5730379969" x="57.6" y="104.832" style="stroke: #000000; stroke-width: 0.8"/>
      </g>
     </g>
     <g id="text_12">
      <!-- 0.8 -->
      <g transform="translate(34.696875 108.631219)scale(0.1 -0.1)">
       <use xlink:href="#DejaVuSans-30"/>
       <use xlink:href="#DejaVuSans-2e" x="63.623047"/>
       <use xlink:href="#DejaVuSans-38" x="95.410156"/>
      </g>
     </g>
    </g>
    <g id="ytick_6">
     <g id="line2d_12">
      <g>
       <use xlink:href="#m5730379969" x="57.6" y="54.144" style="stroke: #000000; stroke-width: 0.8"/>
      </g>
     </g>
     <g id="text_13">
      <!-- 1.0 -->
      <g transform="translate(34.696875 57.943219)scale(0.1 -0.1)">
       <use xlink:href="#DejaVuSans-31"/>
       <use xlink:href="#DejaVuSans-2e" x="63.623047"/>
       <use xlink:href="#DejaVuSans-30" x="95.410156"/>
      </g>
     </g>
    </g>
    <g id="text_14">
     <!-- True Positive Rate -->
     <g transform="translate(28.617187 219.057687)rotate(-90)scale(0.1 -0.1)">
      <defs>
       <path id="DejaVuSans-54" d="M -19 4666 
L 3928 4666 
L 3928 4134 
L 2272 4134 
L 2272 0 
L 1638 0 
L 1638 4134 
L -19 4134 
L -19 4666 
z
" transform="scale(0.015625)"/>
       <path id="DejaVuSans-72" d="M 2631 2963 
Q 2534 3019 2420 3045 
Q 2306 3072 2169 3072 
Q 1681 3072 1420 2755 
Q 1159 2438 1159 1844 
L 1159 0 
L 581 0 
L 581 3500 
L 1159 3500 
L 1159 2956 
Q 1341 3275 1631 3429 
Q 1922 3584 2338 3584 
Q 2397 3584 2469 3576 
Q 2541 3569 2628 3553 
L 2631 2963 
z
" transform="scale(0.015625)"/>
       <path id="DejaVuSans-75" d="M 544 1381 
L 544 3500 
L 1119 3500 
L 1119 1403 
Q 1119 906 1312 657 
Q 1506 409 1894 409 
Q 2359 409 2629 706 
Q 2900 1003 2900 1516 
L 2900 3500 
L 3475 3500 
L 3475 0 
L 2900 0 
L 2900 538 
Q 2691 219 2414 64 
Q 2138 -91 1772 -91 
Q 1169 -91 856 284 
Q 544 659 544 1381 
z
M 1991 3584 
L 1991 3584 
z
" transform="scale(0.015625)"/>
      </defs>
      <use xlink:href="#DejaVuSans-54"/>
      <use xlink:href="#DejaVuSans-72" x="46.333984"/>
      <use xlink:href="#DejaVuSans-75" x="87.447266"/>
      <use xlink:href="#DejaVuSans-65" x="150.826172"/>
      <use xlink:href="#DejaVuSans-20" x="212.349609"/>
      <use xlink:href="#DejaVuSans-50" x="244.136719"/>
      <use xlink:href="#DejaVuSans-6f" x="300.814453"/>
      <use xlink:href="#DejaVuSans-73" x="361.996094"/>
      <use xlink:href="#DejaVuSans-69" x="414.095703"/>
      <use xlink:href="#DejaVuSans-74" x="441.878906"/>
      <use xlink:href="#DejaVuSans-69" x="481.087891"/>
      <use xlink:href="#DejaVuSans-76" x="508.871094"/>
      <use xlink:href="#DejaVuSans-65" x="568.050781"/>
      <use xlink:href="#DejaVuSans-20" x="629.574219"/>
      <use xlink:href="#DejaVuSans-52" x="661.361328"/>
      <use xlink:href="#DejaVuSans-61" x="728.59375"/>
      <use xlink:href="#DejaVuSans-74" x="789.873047"/>
      <use xlink:href="#DejaVuSans-65" x="829.082031"/>
     </g>
    </g>
   </g>
   <g id="line2d_13">
    <path d="M 74.605714 307.584 
L 74.646188 307.474303 
L 74.755917 307.23628 
L 74.825627 307.126583 
L 74.934235 306.961002 
L 74.936724 306.961002 
L 75.007927 306.851305 
L 75.117365 306.733329 
L 75.11894 306.733329 
L 75.197649 306.623632 
L 75.307626 306.484958 
L 75.308746 306.484958 
L 75.378249 306.37526 
L 75.492207 306.20554 
L 75.567599 306.095843 
L 75.678115 305.942681 
L 75.678488 305.942681 
L 75.754211 305.832983 
L 75.8634 305.677751 
L 75.864686 305.677751 
L 75.937797 305.568054 
L 76.047815 305.381776 
L 76.048561 305.381776 
L 76.129261 305.272078 
L 76.239736 305.110637 
L 76.240067 305.110637 
L 76.30447 305.00094 
L 76.415235 304.767057 
L 76.463754 304.65943 
L 76.571865 304.48557 
L 76.574726 304.48557 
L 76.648334 304.375873 
L 76.759141 304.202013 
L 76.75939 304.202013 
L 76.833703 304.092315 
L 76.942975 303.928804 
L 76.943721 303.928804 
L 77.004308 303.819107 
L 77.115073 303.589364 
L 77.167159 303.479667 
L 77.278214 303.249923 
L 77.325282 303.140226 
L 77.436088 302.93118 
L 77.436379 302.93118 
L 77.483198 302.821483 
L 77.594253 302.637274 
L 77.644472 302.527577 
L 77.752749 302.295764 
L 77.755569 302.295764 
L 77.821174 302.186067 
L 77.931731 301.9853 
L 77.995055 301.875603 
L 78.104079 301.618953 
L 78.106152 301.618953 
L 78.156081 301.509255 
L 78.269583 301.265024 
L 78.328594 301.155327 
L 78.439027 300.875909 
L 78.439608 300.875909 
L 78.492025 300.766212 
L 78.601671 300.51991 
L 78.603122 300.51991 
L 78.655083 300.410213 
L 78.7656 300.149423 
L 78.76589 300.149423 
L 78.803212 300.039726 
L 78.913521 299.793425 
L 78.914226 299.793425 
L 78.969671 299.683727 
L 79.077657 299.447775 
L 79.080767 299.447775 
L 79.123274 299.338078 
L 79.233002 299.075218 
L 79.23437 299.075218 
L 79.29504 298.965521 
L 79.405722 298.688173 
L 79.406137 298.688173 
L 79.451836 298.578476 
L 79.562892 298.354942 
L 79.620368 298.245244 
L 79.736151 298.003083 
L 79.782514 297.895455 
L 79.892988 297.632596 
L 79.893528 297.632596 
L 79.954322 297.522898 
L 80.063884 297.278667 
L 80.064962 297.278667 
L 80.109749 297.168969 
L 80.22039 296.885412 
L 80.220805 296.885412 
L 80.267416 296.775715 
L 80.378223 296.529414 
L 80.378472 296.529414 
L 80.429686 296.419716 
L 80.53958 296.167206 
L 80.540783 296.167206 
L 80.584284 296.057508 
L 80.701228 295.763603 
L 80.750328 295.653905 
L 80.860927 295.428302 
L 80.861218 295.428302 
L 80.90418 295.318604 
L 81.021145 295.024698 
L 81.070058 294.915001 
L 81.181072 294.66456 
L 81.231581 294.554863 
L 81.34218 294.296143 
L 81.342678 294.296143 
L 81.391114 294.186446 
L 81.50105 293.909098 
L 81.502004 293.909098 
L 81.548616 293.799401 
L 81.665559 293.505495 
L 81.715696 293.394763 
L 81.825963 293.132938 
L 81.826793 293.132938 
L 81.867516 293.023241 
L 81.867516 293.022206 
L 81.989934 292.739684 
L 82.035218 292.629986 
L 82.145195 292.350569 
L 82.145817 292.350569 
L 82.190273 292.240872 
L 82.301369 291.982152 
L 82.340931 291.872454 
L 82.450411 291.593037 
L 82.451945 291.593037 
L 82.489724 291.48334 
L 82.600613 291.193573 
L 82.600737 291.193573 
L 82.641004 291.083876 
L 82.749302 290.771342 
L 82.752059 290.771342 
L 82.800413 290.661645 
L 82.911468 290.409134 
L 82.951071 290.299437 
L 83.061297 290.01795 
L 83.062168 290.01795 
L 83.109941 289.908253 
L 83.220457 289.630905 
L 83.220913 289.630905 
L 83.259397 289.521207 
L 83.370203 289.235581 
L 83.370411 289.235581 
L 83.413829 289.125883 
L 83.524677 288.908559 
L 83.524802 288.908559 
L 83.564405 288.798861 
L 83.678239 288.525653 
L 83.724311 288.415956 
L 83.834578 288.148957 
L 83.835366 288.148957 
L 83.879407 288.03926 
L 83.990089 287.772261 
L 83.990296 287.772261 
L 84.03753 287.662563 
L 84.154681 287.360378 
L 84.197768 287.250681 
L 84.308616 286.973333 
L 84.308865 286.973333 
L 84.35361 286.865706 
L 84.35361 286.863636 
L 84.464541 286.57594 
L 84.464583 286.57594 
L 84.514761 286.466242 
L 84.631456 286.178546 
L 84.686527 286.068848 
L 84.796815 285.787361 
L 84.797582 285.787361 
L 84.83619 285.677664 
L 84.947018 285.427223 
L 84.947287 285.427223 
L 84.996014 285.317526 
L 85.106903 285.02362 
L 85.107069 285.02362 
L 85.149326 284.913922 
L 85.260257 284.669691 
L 85.260423 284.669691 
L 85.311265 284.559994 
L 85.421573 284.326111 
L 85.422278 284.326111 
L 85.462504 284.216413 
L 85.573103 283.974252 
L 85.573393 283.974252 
L 85.622659 283.864554 
L 85.732802 283.585137 
L 85.733735 283.585137 
L 85.777382 283.47544 
L 85.894118 283.189813 
L 85.941476 283.080115 
L 86.051287 282.761372 
L 86.052573 282.761372 
L 86.094374 282.651675 
L 86.205305 282.386746 
L 86.243498 282.277049 
L 86.35049 282.018329 
L 86.354595 282.018329 
L 86.388683 281.908631 
L 86.499199 281.647842 
L 86.499614 281.647842 
L 86.541664 281.538145 
L 86.65218 281.254587 
L 86.652761 281.254587 
L 86.70072 281.14489 
L 86.814409 280.879961 
L 86.873005 280.770264 
L 86.981862 280.523962 
L 86.984102 280.523962 
L 87.034155 280.414265 
L 87.144257 280.178312 
L 87.145252 280.178312 
L 87.189064 280.068615 
L 87.302898 279.795407 
L 87.341402 279.68571 
L 87.451131 279.408362 
L 87.452333 279.408362 
L 87.498945 279.298665 
L 87.609959 279.023387 
L 87.61 279.023387 
L 87.654704 278.913689 
L 87.654704 278.912654 
L 87.77762 278.619783 
L 87.829954 278.510086 
L 87.940927 278.261715 
L 87.941051 278.261715 
L 87.99973 278.152018 
L 88.109915 277.889158 
L 88.110786 277.889158 
L 88.160922 277.779461 
L 88.271646 277.495904 
L 88.272019 277.495904 
L 88.313779 277.386207 
L 88.424295 277.065394 
L 88.424709 277.065394 
L 88.471259 276.955697 
L 88.602157 276.628675 
L 88.645161 276.518977 
L 88.755221 276.254048 
L 88.755968 276.254048 
L 88.801418 276.144351 
L 88.912142 275.89184 
L 88.912432 275.89184 
L 88.962651 275.782143 
L 89.073582 275.492377 
L 89.073707 275.492377 
L 89.117374 275.382679 
L 89.226356 275.126029 
L 89.228346 275.126029 
L 89.275995 275.015297 
L 89.38705 274.817635 
L 89.387091 274.817635 
L 89.424704 274.707938 
L 89.535345 274.407822 
L 89.535801 274.407822 
L 89.58374 274.300195 
L 89.58374 274.298125 
L 89.694422 274.022847 
L 89.694836 274.022847 
L 89.74688 273.91315 
L 89.857438 273.639942 
L 89.857977 273.639942 
L 89.912095 273.530244 
L 90.022113 273.265315 
L 90.023192 273.265315 
L 90.073328 273.155618 
L 90.18343 272.884479 
L 90.184425 272.884479 
L 90.243394 272.774782 
L 90.353537 272.53055 
L 90.354408 272.53055 
L 90.398988 272.420853 
L 90.50938 272.166273 
L 90.510085 272.166273 
L 90.56951 272.055541 
L 90.679736 271.7606 
L 90.680524 271.7606 
L 90.73601 271.650903 
L 90.846692 271.435648 
L 90.846775 271.435648 
L 90.902054 271.32595 
L 91.018749 271.034114 
L 91.069134 270.924417 
L 91.178821 270.663627 
L 91.180231 270.663627 
L 91.227921 270.55393 
L 91.338396 270.291071 
L 91.338976 270.291071 
L 91.372235 270.181373 
L 91.480304 269.935072 
L 91.48329 269.935072 
L 91.53662 269.825375 
L 91.646431 269.577003 
L 91.647716 269.577003 
L 91.693665 269.467306 
L 91.693665 269.466271 
L 91.816248 269.181679 
L 91.865597 269.071982 
L 91.975076 268.83189 
L 91.976569 268.83189 
L 92.024342 268.722193 
L 92.141286 268.428287 
L 92.1874 268.31859 
L 92.296548 268.05366 
L 92.298497 268.05366 
L 92.356844 267.943963 
L 92.467568 267.668685 
L 92.467817 267.668685 
L 92.531265 267.558988 
L 92.640744 267.320965 
L 92.642362 267.320965 
L 92.696479 267.211268 
L 92.807535 266.952548 
L 92.807576 266.952548 
L 92.85792 266.844921 
L 92.96856 266.598619 
L 92.968934 266.598619 
L 93.024752 266.488922 
L 93.024752 266.487887 
L 93.146589 266.219853 
L 93.192247 266.110156 
L 93.302638 265.843157 
L 93.303343 265.843157 
L 93.356756 265.73346 
L 93.467853 265.493368 
L 93.510235 265.38367 
L 93.621248 265.151857 
L 93.621331 265.151857 
L 93.670556 265.04216 
L 93.780906 264.820696 
L 93.781652 264.820696 
L 93.827559 264.713068 
L 93.827559 264.710999 
L 93.938614 264.425372 
L 93.985392 264.315674 
L 94.094996 264.073513 
L 94.096488 264.073513 
L 94.148408 263.963815 
L 94.259422 263.711305 
L 94.259505 263.711305 
L 94.29745 263.601607 
L 94.414145 263.31598 
L 94.462954 263.206283 
L 94.572599 262.945494 
L 94.574051 262.945494 
L 94.613986 262.835796 
L 94.724357 262.608123 
L 94.725083 262.608123 
L 94.777832 262.498425 
L 94.888597 262.235566 
L 94.888929 262.235566 
L 94.935996 262.125869 
L 95.046886 261.85887 
L 95.047052 261.85887 
L 95.100215 261.749172 
L 95.216289 261.490452 
L 95.268333 261.380755 
L 95.379429 261.128245 
L 95.427036 261.018547 
L 95.535852 260.788804 
L 95.537967 260.788804 
L 95.579478 260.679107 
L 95.696381 260.38934 
L 95.742743 260.279643 
L 95.853384 260.022993 
L 95.85384 260.022993 
L 95.901157 259.913296 
L 96.012046 259.658715 
L 96.012253 259.658715 
L 96.060068 259.549018 
L 96.170294 259.294437 
L 96.171144 259.294437 
L 96.221011 259.18474 
L 96.331983 258.923951 
L 96.386806 258.814253 
L 96.496451 258.563812 
L 96.497819 258.563812 
L 96.540657 258.454115 
L 96.65163 258.232651 
L 96.651713 258.232651 
L 96.694385 258.122954 
L 96.803864 257.880792 
L 96.80544 257.880792 
L 96.864534 257.771094 
L 96.974387 257.572397 
L 96.975589 257.572397 
L 97.034766 257.4627 
L 97.145738 257.232957 
L 97.145863 257.232957 
L 97.199732 257.12326 
L 97.309999 256.893516 
L 97.310704 256.893516 
L 97.367351 256.783819 
L 97.478158 256.552006 
L 97.478448 256.552006 
L 97.531322 256.442309 
L 97.648162 256.156682 
L 97.707691 256.04595 
L 97.818518 255.779986 
L 97.818788 255.779986 
L 97.867597 255.670288 
L 97.983919 255.407429 
L 98.031236 255.297732 
L 98.14225 255.072128 
L 98.19334 254.962431 
L 98.301949 254.683013 
L 98.304354 254.683013 
L 98.348436 254.573316 
L 98.459491 254.36634 
L 98.512821 254.255608 
L 98.623461 254.02276 
L 98.623752 254.02276 
L 98.66435 253.913062 
L 98.77524 253.695738 
L 98.775406 253.695738 
L 98.819239 253.585005 
L 98.939086 253.368716 
L 98.97844 253.259018 
L 99.089537 252.98374 
L 99.130716 252.874043 
L 99.241813 252.609114 
L 99.290539 252.499417 
L 99.40147 252.280022 
L 99.401595 252.280022 
L 99.445345 252.170325 
L 99.562372 251.87021 
L 99.629013 251.760512 
L 99.739094 251.568025 
L 99.74011 251.568025 
L 99.796218 251.458327 
L 99.907232 251.236863 
L 99.979347 251.127166 
L 100.089822 250.876725 
L 100.090444 250.876725 
L 100.146635 250.767028 
L 100.25628 250.518657 
L 100.257732 250.518657 
L 100.312223 250.408959 
L 100.423153 250.164728 
L 100.423319 250.164728 
L 100.475529 250.0571 
L 100.475529 250.053996 
L 100.59604 249.821148 
L 100.649618 249.71145 
L 100.759056 249.442382 
L 100.760715 249.442382 
L 100.803221 249.331649 
L 100.912037 249.061546 
L 100.914318 249.061546 
L 100.963501 248.951848 
L 101.074431 248.660012 
L 101.074597 248.660012 
L 101.128839 248.550315 
L 101.238816 248.355758 
L 101.239646 248.355758 
L 101.299154 248.24606 
L 101.408841 247.98734 
L 101.410168 247.98734 
L 101.452757 247.877643 
L 101.563564 247.625133 
L 101.563813 247.625133 
L 101.629044 247.515435 
L 101.738648 247.264994 
L 101.740141 247.264994 
L 101.791646 247.155297 
L 101.902038 246.942112 
L 101.902618 246.942112 
L 101.955699 246.832415 
L 102.066588 246.600602 
L 102.066796 246.600602 
L 102.117969 246.489869 
L 102.225582 246.254952 
L 102.229066 246.254952 
L 102.280281 246.145254 
L 102.390963 245.907232 
L 102.391377 245.907232 
L 102.447527 245.797535 
L 102.557006 245.58435 
L 102.558416 245.58435 
L 102.602664 245.474652 
L 102.713761 245.205584 
L 102.765805 245.095886 
L 102.876612 244.849585 
L 102.876694 244.849585 
L 102.920777 244.741957 
L 102.920777 244.739888 
L 103.039462 244.489447 
L 103.081097 244.378715 
L 103.191904 244.166564 
L 103.192194 244.166564 
L 103.253237 244.056867 
L 103.368543 243.847821 
L 103.413309 243.738124 
L 103.524323 243.543567 
L 103.524406 243.543567 
L 103.575745 243.433869 
L 103.682944 243.206196 
L 103.686842 243.206196 
L 103.743406 243.096498 
L 103.850688 242.852267 
L 103.854503 242.852267 
L 103.907418 242.74257 
L 104.017022 242.502477 
L 104.018432 242.502477 
L 104.08018 242.391745 
L 104.18883 242.148549 
L 104.191277 242.148549 
L 104.245021 242.038851 
L 104.355745 241.802899 
L 104.355869 241.802899 
L 104.409655 241.693201 
L 104.519798 241.45104 
L 104.520669 241.45104 
L 104.567073 241.341342 
L 104.677879 241.10539 
L 104.67817 241.10539 
L 104.731624 240.995692 
L 104.842368 240.801135 
L 104.842679 240.801135 
L 104.901192 240.690403 
L 105.010278 240.472043 
L 105.012289 240.472043 
L 105.064333 240.362346 
L 105.174849 240.091207 
L 105.17543 240.091207 
L 105.218268 239.98151 
L 105.218268 239.980475 
L 105.340188 239.712441 
L 105.388956 239.604814 
L 105.388956 239.602744 
L 105.496611 239.408187 
L 105.500053 239.408187 
L 105.558898 239.298489 
L 105.669995 239.071851 
L 105.7232 238.961119 
L 105.834297 238.729306 
L 105.884973 238.618573 
L 105.996069 238.369167 
L 106.052136 238.26154 
L 106.052136 238.25947 
L 106.162113 238.00489 
L 106.163191 238.00489 
L 106.201551 237.895192 
L 106.316919 237.677868 
L 106.370373 237.56817 
L 106.48093 237.344636 
L 106.481469 237.344636 
L 106.544669 237.234939 
L 106.6556 236.996917 
L 106.655766 236.996917 
L 106.703331 236.891359 
L 106.814428 236.62022 
L 106.878954 236.510523 
L 106.988392 236.27664 
L 106.99001 236.27664 
L 107.048564 236.166943 
L 107.15879 235.9372 
L 107.159371 235.9372 
L 107.222239 235.827503 
L 107.33064 235.595689 
L 107.333294 235.595689 
L 107.384177 235.485992 
L 107.494859 235.216923 
L 107.495191 235.216923 
L 107.546447 235.107226 
L 107.65576 234.891971 
L 107.657461 234.891971 
L 107.712242 234.782274 
L 107.822799 234.548391 
L 107.823214 234.548391 
L 107.877083 234.437659 
L 107.986148 234.20895 
L 107.98818 234.20895 
L 108.03956 234.099253 
L 108.155384 233.861231 
L 108.217423 233.751534 
L 108.335362 233.52593 
L 108.387323 233.416233 
L 108.503645 233.153373 
L 108.55797 233.043676 
L 108.55797 233.042641 
L 108.677651 232.830491 
L 108.718706 232.720793 
L 108.828724 232.526236 
L 108.829761 232.526236 
L 108.874009 232.415504 
L 108.984421 232.221981 
L 108.985064 232.221981 
L 109.03914 232.112284 
L 109.148371 231.921866 
L 109.150237 231.921866 
L 109.211902 231.811134 
L 109.322543 231.63003 
L 109.322999 231.63003 
L 109.385079 231.520333 
L 109.496175 231.28438 
L 109.561531 231.174683 
L 109.672255 230.975986 
L 109.672628 230.975986 
L 109.721645 230.866289 
L 109.83241 230.624127 
L 109.832742 230.624127 
L 109.90042 230.514429 
L 110.015871 230.297105 
L 110.067873 230.187407 
L 110.178887 229.970083 
L 110.233171 229.860385 
L 110.347958 229.663758 
L 110.399712 229.554061 
L 110.510394 229.318108 
L 110.510809 229.318108 
L 110.571997 229.208411 
L 110.689542 228.995226 
L 110.745153 228.885529 
L 110.854798 228.633018 
L 110.856001 228.633018 
L 110.904852 228.522286 
L 111.021008 228.27081 
L 111.082341 228.161113 
L 111.19323 227.956207 
L 111.193313 227.956207 
L 111.252241 227.846509 
L 111.361762 227.622975 
L 111.363297 227.622975 
L 111.417 227.513278 
L 111.527391 227.302163 
L 111.528096 227.302163 
L 111.616426 227.192465 
L 111.724952 226.97514 
L 111.727357 226.97514 
L 111.786078 226.864408 
L 111.895391 226.615002 
L 111.897133 226.615002 
L 111.9515 226.505305 
L 112.062596 226.304538 
L 112.121939 226.194841 
L 112.232953 225.985795 
L 112.233036 225.985795 
L 112.29072 225.876098 
L 112.400448 225.656704 
L 112.401817 225.656704 
L 112.449092 225.547006 
L 112.558281 225.3421 
L 112.560188 225.3421 
L 112.628032 225.232403 
L 112.73886 225.035776 
L 112.739088 225.035776 
L 112.790883 224.926078 
L 112.901192 224.719102 
L 112.901855 224.719102 
L 112.957134 224.609405 
L 113.073041 224.367243 
L 113.122307 224.257546 
L 113.232056 224.05057 
L 113.233404 224.05057 
L 113.291129 223.940873 
L 113.400816 223.731827 
L 113.402226 223.731827 
L 113.462357 223.621095 
L 113.582618 223.394456 
L 113.639141 223.284759 
L 113.749325 223.077783 
L 113.750238 223.077783 
L 113.820985 222.968086 
L 113.931148 222.779738 
L 113.93204 222.779738 
L 114.049606 222.562413 
L 114.102438 222.452716 
L 114.211171 222.24367 
L 114.21341 222.24367 
L 114.269767 222.133973 
L 114.269767 222.132938 
L 114.39119 221.877322 
L 114.449994 221.767625 
L 114.560095 221.558579 
L 114.56109 221.558579 
L 114.618401 221.448882 
L 114.728482 221.221209 
L 114.729456 221.221209 
L 114.777229 221.110476 
L 114.887538 220.877629 
L 114.888201 220.877629 
L 114.955589 220.767931 
L 115.071144 220.545432 
L 115.195822 220.322933 
L 115.246041 220.212201 
L 115.366137 219.981423 
L 115.424236 219.871725 
L 115.540101 219.629563 
L 115.597578 219.518831 
L 115.708592 219.302541 
L 115.708675 219.302541 
L 115.771708 219.192844 
L 115.881727 218.979659 
L 115.882556 218.979659 
L 115.94024 218.869962 
L 116.049844 218.669195 
L 116.051254 218.669195 
L 116.115532 218.559498 
L 116.224223 218.352522 
L 116.226463 218.352522 
L 116.303845 218.242824 
L 116.413905 217.990314 
L 116.414941 217.990314 
L 116.477228 217.880617 
L 116.587869 217.683989 
L 116.588325 217.683989 
L 116.637259 217.574292 
L 116.747319 217.390084 
L 116.748356 217.390084 
L 116.812302 217.280386 
L 116.922859 217.054782 
L 116.923357 217.054782 
L 116.986391 216.947155 
L 116.986391 216.945085 
L 117.095165 216.740179 
L 117.097487 216.740179 
L 117.149946 216.630482 
L 117.260462 216.433855 
L 117.261043 216.433855 
L 117.323164 216.324157 
L 117.434219 216.092344 
L 117.497709 215.982647 
L 117.613678 215.740485 
L 117.679677 215.630788 
L 117.790276 215.425882 
L 117.790774 215.425882 
L 117.8536 215.316184 
L 117.964572 215.100929 
L 118.013216 214.991232 
L 118.123566 214.800814 
L 118.124271 214.800814 
L 118.175279 214.691117 
L 118.286168 214.459304 
L 118.286375 214.459304 
L 118.355049 214.349607 
L 118.470749 214.119863 
L 118.518604 214.010166 
L 118.627545 213.80112 
L 118.629494 213.80112 
L 118.683736 213.691423 
L 118.794418 213.469959 
L 118.794791 213.469959 
L 118.853305 213.360261 
L 118.968424 213.157425 
L 119.055427 213.047728 
L 119.170753 212.830403 
L 119.225825 212.720706 
L 119.336382 212.50959 
L 119.336839 212.50959 
L 119.401033 212.399893 
L 119.511923 212.197057 
L 119.51213 212.197057 
L 119.570477 212.087359 
L 119.68145 211.857616 
L 119.681533 211.857616 
L 119.755452 211.747919 
L 119.865533 211.56164 
L 119.866487 211.56164 
L 119.92471 211.451943 
L 120.033484 211.244967 
L 120.035723 211.244967 
L 120.097306 211.13527 
L 120.207573 210.944852 
L 120.208402 210.944852 
L 120.268367 210.835155 
L 120.389002 210.592993 
L 120.453653 210.483296 
L 120.453653 210.482261 
L 120.568938 210.27425 
L 120.625834 210.164553 
L 120.742031 209.909972 
L 120.798928 209.79924 
L 120.907702 209.611927 
L 120.909983 209.611927 
L 120.963271 209.502229 
L 121.077893 209.3263 
L 121.145903 209.216603 
L 121.267035 208.968231 
L 121.340104 208.858534 
L 121.451159 208.649488 
L 121.513364 208.539791 
L 121.628815 208.322466 
L 121.695 208.212769 
L 121.805495 208.063747 
L 121.806055 208.063747 
L 121.851091 207.954049 
L 121.851091 207.953014 
L 121.962022 207.734655 
L 121.962188 207.734655 
L 122.032105 207.624957 
L 122.142994 207.453167 
L 122.14316 207.453167 
L 122.218759 207.34347 
L 122.327658 207.101308 
L 122.329856 207.101308 
L 122.384513 206.991611 
L 122.495153 206.803263 
L 122.495609 206.803263 
L 122.576807 206.693566 
L 122.576807 206.692531 
L 122.691242 206.525915 
L 122.766115 206.416218 
L 122.876838 206.219591 
L 122.877211 206.219591 
L 122.936264 206.109893 
L 123.047112 205.900848 
L 123.047319 205.900848 
L 123.115039 205.79115 
L 123.115039 205.790116 
L 123.233289 205.613151 
L 123.298583 205.503454 
L 123.409223 205.300617 
L 123.472734 205.19092 
L 123.585842 204.988084 
L 123.642116 204.878386 
L 123.754747 204.723154 
L 123.821015 204.613457 
L 123.932112 204.41269 
L 124.000412 204.302993 
L 124.115448 204.106366 
L 124.187978 203.996669 
L 124.296836 203.793832 
L 124.298992 203.793832 
L 124.351161 203.6831 
L 124.461221 203.479229 
L 124.462257 203.479229 
L 124.524752 203.369532 
L 124.635434 203.174974 
L 124.635724 203.174974 
L 124.692496 203.064242 
L 124.80239 202.883138 
L 124.803593 202.883138 
L 124.884541 202.773441 
L 125.009406 202.547837 
L 125.066841 202.43814 
L 125.177689 202.233234 
L 125.177937 202.233234 
L 125.251007 202.123536 
L 125.361937 201.912421 
L 125.362103 201.912421 
L 125.41987 201.804793 
L 125.41987 201.802724 
L 125.526986 201.601957 
L 125.530801 201.601957 
L 125.592093 201.49226 
L 125.702568 201.310121 
L 125.703148 201.310121 
L 125.748516 201.200423 
L 125.859239 200.997587 
L 125.859613 200.997587 
L 125.916965 200.88789 
L 125.916965 200.886855 
L 126.027771 200.691263 
L 126.028062 200.691263 
L 126.103494 200.581565 
L 126.214384 200.374589 
L 126.21455 200.374589 
L 126.282103 200.264892 
L 126.392993 200.097242 
L 126.393117 200.097242 
L 126.464569 199.987544 
L 126.579751 199.784708 
L 126.631193 199.675011 
L 126.741979 199.459756 
L 126.74229 199.459756 
L 126.807729 199.349023 
L 126.917872 199.153431 
L 126.918826 199.153431 
L 126.979496 199.043734 
L 127.094532 198.847107 
L 127.154206 198.739479 
L 127.154206 198.736375 
L 127.264888 198.553201 
L 127.265303 198.553201 
L 127.338248 198.443504 
L 127.449262 198.246876 
L 127.516732 198.137179 
L 127.626958 197.934343 
L 127.627497 197.934343 
L 127.69136 197.824645 
L 127.801877 197.640437 
L 127.802208 197.640437 
L 127.856741 197.53074 
L 127.971715 197.338252 
L 128.043934 197.228555 
L 128.151298 197.036067 
L 128.15501 197.036067 
L 128.227685 196.92637 
L 128.336833 196.75251 
L 128.338782 196.75251 
L 128.412349 196.642813 
L 128.522491 196.483441 
L 128.523425 196.483441 
L 128.575489 196.373744 
L 128.690111 196.197814 
L 128.754575 196.087082 
L 128.869176 195.903909 
L 128.926114 195.794211 
L 129.037211 195.589305 
L 129.090706 195.478573 
L 129.201637 195.276771 
L 129.201761 195.276771 
L 129.262141 195.166039 
L 129.372491 195.015982 
L 129.373196 195.015982 
L 129.438179 194.906284 
L 129.546269 194.728285 
L 129.549027 194.728285 
L 129.620437 194.618588 
L 129.729917 194.413682 
L 129.731534 194.413682 
L 129.799917 194.303984 
L 129.917234 194.099078 
L 129.99022 193.989381 
L 129.99022 193.988346 
L 130.111228 193.743079 
L 130.161717 193.633382 
L 130.274784 193.432616 
L 130.329399 193.322918 
L 130.440081 193.115942 
L 130.440454 193.115942 
L 130.499175 193.006245 
L 130.607079 192.819967 
L 130.610272 192.819967 
L 130.671978 192.710269 
L 130.78266 192.519851 
L 130.783075 192.519851 
L 130.852619 192.410154 
L 130.963509 192.201109 
L 130.963633 192.201109 
L 131.039896 192.091411 
L 131.152796 191.911342 
L 131.224683 191.801645 
L 131.333333 191.633994 
L 131.335656 191.633994 
L 131.401592 191.526367 
L 131.516338 191.344228 
L 131.576552 191.233496 
L 131.686757 191.062741 
L 131.6874 191.062741 
L 131.752237 190.953043 
L 131.866755 190.783323 
L 131.94534 190.673626 
L 131.94534 190.672591 
L 132.060418 190.474929 
L 132.134192 190.364197 
L 132.242842 190.181023 
L 132.245081 190.181023 
L 132.315248 190.071326 
L 132.425183 189.914024 
L 132.426261 189.914024 
L 132.48266 189.803292 
L 132.593756 189.609769 
L 132.659237 189.500072 
L 132.773568 189.334491 
L 132.845559 189.226864 
L 132.955661 189.050934 
L 132.956594 189.050934 
L 133.019026 188.943307 
L 133.131989 188.757028 
L 133.198132 188.647331 
L 133.306658 188.454844 
L 133.309229 188.454844 
L 133.380329 188.344111 
L 133.494784 188.177496 
L 133.571399 188.067798 
L 133.682081 187.887729 
L 133.682475 187.887729 
L 133.738355 187.778032 
L 133.848332 187.62487 
L 133.849452 187.62487 
L 133.918478 187.515173 
L 134.031254 187.347522 
L 134.101752 187.237825 
L 134.212434 187.051546 
L 134.212849 187.051546 
L 134.28766 186.941849 
L 134.398072 186.778338 
L 134.398715 186.778338 
L 134.470333 186.668641 
L 134.581181 186.472014 
L 134.581347 186.472014 
L 134.637164 186.362317 
L 134.74399 186.176038 
L 134.74822 186.176038 
L 134.823321 186.066341 
L 134.937611 185.90076 
L 134.993512 185.791063 
L 135.104152 185.571668 
L 135.104442 185.571668 
L 135.163454 185.460936 
L 135.272808 185.267414 
L 135.27455 185.267414 
L 135.329 185.157716 
L 135.439972 184.996275 
L 135.440055 184.996275 
L 135.489362 184.885543 
L 135.607882 184.702369 
L 135.673196 184.592672 
L 135.790969 184.427091 
L 135.866734 184.317394 
L 135.976877 184.141464 
L 135.977831 184.141464 
L 136.056498 184.031767 
L 136.17141 183.841349 
L 136.237015 183.731652 
L 136.347821 183.524676 
L 136.347946 183.524676 
L 136.428231 183.414979 
L 136.537378 183.236979 
L 136.539327 183.236979 
L 136.624547 183.127282 
L 136.735437 182.928585 
L 136.735644 182.928585 
L 136.818002 182.818888 
L 136.932562 182.647098 
L 136.993024 182.537401 
L 137.110694 182.320076 
L 137.189113 182.210379 
L 137.189113 182.209344 
L 137.3022 182.007542 
L 137.389161 181.897845 
L 137.499512 181.732264 
L 137.500258 181.732264 
L 137.56267 181.622567 
L 137.672854 181.436289 
L 137.673683 181.436289 
L 137.740117 181.326591 
L 137.851214 181.148592 
L 137.926191 181.03786 
L 138.035048 180.869174 
L 138.037246 180.869174 
L 138.104178 180.758442 
L 138.214196 180.56285 
L 138.215233 180.56285 
L 138.304973 180.453153 
L 138.419761 180.262735 
L 138.495193 180.153038 
L 138.605212 179.943992 
L 138.60629 179.943992 
L 138.696714 179.834295 
L 138.809905 179.621109 
L 138.895104 179.511412 
L 139.011571 179.333413 
L 139.092022 179.223715 
L 139.092022 179.222681 
L 139.210355 179.043646 
L 139.266194 178.933949 
L 139.266194 178.932914 
L 139.381272 178.735252 
L 139.454258 178.625555 
L 139.563862 178.457904 
L 139.565189 178.457904 
L 139.650574 178.348207 
L 139.755368 178.190905 
L 139.761547 178.190905 
L 139.829681 178.080173 
L 139.938912 177.89286 
L 139.940736 177.89286 
L 140.016791 177.783163 
L 140.126561 177.601024 
L 140.127846 177.601024 
L 140.18495 177.491327 
L 140.2953 177.358862 
L 140.296005 177.358862 
L 140.366545 177.249165 
L 140.477517 177.089793 
L 140.477641 177.089793 
L 140.546149 176.980096 
L 140.661061 176.787608 
L 140.744622 176.677911 
L 140.855698 176.508191 
L 140.855719 176.508191 
L 140.932686 176.398494 
L 141.043119 176.25361 
L 141.043783 176.25361 
L 141.121724 176.142878 
L 141.243956 175.957635 
L 141.321421 175.847937 
L 141.432248 175.700985 
L 141.432517 175.700985 
L 141.500237 175.591287 
L 141.610214 175.436055 
L 141.611126 175.436055 
L 141.703935 175.326358 
L 141.814576 175.148359 
L 141.814949 175.148359 
L 141.882046 175.038661 
L 141.992355 174.893778 
L 141.992977 174.893778 
L 142.057835 174.784081 
L 142.167937 174.585384 
L 142.168808 174.585384 
L 142.258631 174.475687 
L 142.369478 174.270781 
L 142.369727 174.270781 
L 142.427909 174.161083 
L 142.538508 174.049316 
L 142.539006 174.049316 
L 142.639445 173.939619 
L 142.75614 173.798875 
L 142.839369 173.689178 
L 142.952249 173.509109 
L 143.024198 173.399412 
L 143.138737 173.227622 
L 143.203803 173.117924 
L 143.31266 172.931646 
L 143.314899 172.931646 
L 143.400824 172.821949 
L 143.506737 172.656368 
L 143.511879 172.656368 
L 143.620073 172.546671 
L 143.729304 172.37902 
L 143.73117 172.37902 
L 143.810501 172.269323 
L 143.923257 172.101673 
L 144.002671 171.994045 
L 144.002671 171.991975 
L 144.112191 171.818115 
L 144.113684 171.818115 
L 144.185966 171.708418 
L 144.300463 171.538698 
L 144.363787 171.429001 
L 144.472561 171.242722 
L 144.474883 171.242722 
L 144.562094 171.13199 
L 144.680033 170.963305 
L 144.748375 170.853607 
L 144.858849 170.706654 
L 144.859388 170.706654 
L 144.927647 170.596957 
L 144.927647 170.595922 
L 145.041605 170.452074 
L 145.134808 170.342377 
L 145.247335 170.195424 
L 145.315304 170.085727 
L 145.425281 169.947053 
L 145.4264 169.947053 
L 145.49441 169.837355 
L 145.604097 169.675914 
L 145.605424 169.675914 
L 145.69956 169.566217 
L 145.810325 169.394427 
L 145.810615 169.394427 
L 145.89289 169.28473 
L 146.003655 169.131567 
L 146.003904 169.131567 
L 146.089497 169.02187 
L 146.19682 168.858359 
L 146.200552 168.858359 
L 146.264415 168.748662 
L 146.264415 168.747627 
L 146.379369 168.554104 
L 146.460359 168.444407 
L 146.568739 168.301594 
L 146.571455 168.301594 
L 146.646391 168.191897 
L 146.757487 168.026316 
L 146.823797 167.916618 
L 146.933442 167.742759 
L 146.934894 167.742759 
L 147.017418 167.633061 
L 147.13204 167.457132 
L 147.21332 167.347435 
L 147.321431 167.181854 
L 147.324396 167.181854 
L 147.410673 167.072157 
L 147.520857 166.904506 
L 147.52177 166.904506 
L 147.602013 166.794809 
L 147.602013 166.793774 
L 147.719952 166.623019 
L 147.812388 166.513321 
L 147.922199 166.347741 
L 147.923443 166.347741 
L 148.012892 166.238043 
L 148.123409 166.09937 
L 148.12374 166.09937 
L 148.19627 165.989672 
L 148.306372 165.819952 
L 148.307284 165.819952 
L 148.391592 165.710255 
L 148.502253 165.58193 
L 148.502688 165.58193 
L 148.583326 165.472232 
L 148.7 165.288024 
L 148.772406 165.178326 
L 148.882777 165.018955 
L 148.883502 165.018955 
L 148.961382 164.909258 
L 149.072043 164.764375 
L 149.072437 164.764375 
L 149.153344 164.654677 
L 149.266266 164.466329 
L 149.355135 164.356632 
L 149.465713 164.193121 
L 149.466211 164.193121 
L 149.551659 164.083424 
L 149.661636 163.913703 
L 149.662631 163.913703 
L 149.744077 163.802971 
L 149.853847 163.644635 
L 149.855153 163.644635 
L 149.943296 163.534937 
L 150.054268 163.354868 
L 150.054351 163.354868 
L 150.137747 163.244136 
L 150.246562 163.089939 
L 150.248802 163.089939 
L 150.329916 162.980242 
L 150.431392 162.827079 
L 150.441013 162.827079 
L 150.531126 162.717382 
L 150.639693 162.531104 
L 150.642223 162.531104 
L 150.726903 162.421407 
L 150.837378 162.259965 
L 150.838 162.259965 
L 150.924256 162.150268 
L 151.02963 161.997106 
L 151.035353 161.997106 
L 151.131023 161.887409 
L 151.241913 161.742525 
L 151.242058 161.742525 
L 151.318838 161.632828 
L 151.429811 161.483805 
L 151.429935 161.483805 
L 151.514657 161.374108 
L 151.514657 161.373073 
L 151.629113 161.206458 
L 151.712467 161.09676 
L 151.822983 160.92497 
L 151.823522 160.92497 
L 151.895513 160.815273 
L 152.005324 160.633134 
L 152.006444 160.633134 
L 152.102985 160.523437 
L 152.213584 160.341298 
L 152.214081 160.341298 
L 152.309585 160.231601 
L 152.309585 160.230566 
L 152.432003 160.045323 
L 152.525558 159.935625 
L 152.634291 159.796951 
L 152.636634 159.796951 
L 152.719345 159.687254 
L 152.829488 159.544441 
L 152.830069 159.544441 
L 152.929305 159.434743 
L 153.039365 159.267093 
L 153.04036 159.267093 
L 153.113098 159.157396 
L 153.113098 159.156361 
L 153.226683 159.03114 
L 153.311032 158.920408 
L 153.419972 158.749653 
L 153.422128 158.749653 
L 153.492336 158.639956 
L 153.492336 158.638921 
L 153.611188 158.447468 
L 153.678493 158.337771 
L 153.793322 158.151492 
L 153.883227 158.04076 
L 153.993453 157.861726 
L 153.994303 157.861726 
L 154.06532 157.750994 
L 154.175898 157.596797 
L 154.176417 157.596797 
L 154.261305 157.4871 
L 154.371074 157.329798 
L 154.37236 157.329798 
L 154.450779 157.220101 
L 154.561336 157.085566 
L 154.561751 157.085566 
L 154.632394 156.975869 
L 154.746083 156.843404 
L 154.853198 156.733707 
L 154.963341 156.605382 
L 154.964253 156.605382 
L 155.051837 156.495685 
L 155.161441 156.377708 
L 155.162892 156.377708 
L 155.243509 156.268011 
L 155.354274 156.067244 
L 155.354564 156.067244 
L 155.436466 155.957547 
L 155.550963 155.787827 
L 155.622623 155.67813 
L 155.733512 155.533246 
L 155.733719 155.533246 
L 155.826653 155.423549 
L 155.936173 155.270387 
L 155.937708 155.270387 
L 156.016624 155.16069 
L 156.127679 155.005458 
L 156.22082 154.89576 
L 156.330507 154.744668 
L 156.331792 154.744668 
L 156.405939 154.634971 
L 156.514963 154.502506 
L 156.516953 154.502506 
L 156.592511 154.392809 
L 156.700041 154.258275 
L 156.703607 154.258275 
L 156.782814 154.148577 
L 156.891505 154.009903 
L 156.893911 154.009903 
L 156.972578 153.900206 
L 157.083551 153.755323 
L 157.147289 153.645626 
L 157.253886 153.535928 
L 157.25822 153.535928 
L 157.361603 153.426231 
L 157.47071 153.26479 
L 157.4727 153.26479 
L 157.559454 153.155093 
L 157.668291 153.010209 
L 157.670551 153.010209 
L 157.760187 152.900512 
L 157.874187 152.753559 
L 157.969815 152.643862 
L 158.082384 152.478281 
L 158.161466 152.368584 
L 158.161466 152.367549 
L 158.276337 152.180236 
L 158.335431 152.070539 
L 158.446071 151.933934 
L 158.446528 151.933934 
L 158.552233 151.824237 
L 158.666855 151.646238 
L 158.751079 151.536541 
L 158.859232 151.36889 
L 158.862135 151.36889 
L 158.952289 151.259193 
L 159.066869 151.079124 
L 159.152794 150.969426 
L 159.263227 150.820404 
L 159.263891 150.820404 
L 159.361925 150.710706 
L 159.471114 150.582381 
L 159.473001 150.582381 
L 159.540492 150.472684 
L 159.650013 150.365057 
L 159.651547 150.365057 
L 159.717463 150.254324 
L 159.828 150.112546 
L 159.828539 150.112546 
L 159.924043 150.001814 
L 160.035098 149.864175 
L 160.03514 149.864175 
L 160.116213 149.754478 
L 160.224116 149.597176 
L 160.227227 149.597176 
L 160.311285 149.487479 
L 160.422009 149.342595 
L 160.422299 149.342595 
L 160.493129 149.232898 
L 160.602898 149.104573 
L 160.604184 149.104573 
L 160.69127 148.993841 
L 160.800957 148.825155 
L 160.802325 148.825155 
L 160.91421 148.715458 
L 161.021989 148.562296 
L 161.025306 148.562296 
L 161.106815 148.452599 
L 161.219301 148.309785 
L 161.295978 148.199053 
L 161.40583 148.059344 
L 161.407074 148.059344 
L 161.491133 147.949647 
L 161.601151 147.779927 
L 161.602105 147.779927 
L 161.682307 147.67023 
L 161.782746 147.483951 
L 161.793404 147.483951 
L 161.856562 147.373219 
L 161.966415 147.223161 
L 161.967659 147.223161 
L 162.061794 147.113464 
L 162.061794 147.112429 
L 162.179982 146.937535 
L 162.267441 146.827837 
L 162.267441 146.826802 
L 162.384717 146.674675 
L 162.45534 146.563943 
L 162.564985 146.397327 
L 162.566395 146.397327 
L 162.643362 146.28763 
L 162.751639 146.126189 
L 162.754417 146.126189 
L 162.832587 146.016492 
L 162.937111 145.917143 
L 162.943663 145.917143 
L 163.035166 145.809516 
L 163.035166 145.807446 
L 163.143194 145.68533 
L 163.146221 145.68533 
L 163.230362 145.575633 
L 163.341169 145.422471 
L 163.341418 145.422471 
L 163.434537 145.311738 
L 163.556147 145.138913 
L 163.649992 145.029216 
L 163.758061 144.902961 
L 163.761047 144.902961 
L 163.83366 144.793264 
L 163.944218 144.667008 
L 163.944757 144.667008 
L 164.030495 144.557311 
L 164.146547 144.3938 
L 164.247443 144.284103 
L 164.358373 144.149568 
L 164.358539 144.149568 
L 164.448321 144.039871 
L 164.558961 143.909476 
L 164.559334 143.909476 
L 164.642522 143.799779 
L 164.752499 143.634198 
L 164.753619 143.634198 
L 164.837097 143.524501 
L 164.948111 143.383757 
L 165.035238 143.27406 
L 165.142312 143.145735 
L 165.146335 143.145735 
L 165.231513 143.036038 
L 165.345098 142.909782 
L 165.448398 142.800085 
L 165.448398 142.79905 
L 165.566172 142.632435 
L 165.646498 142.522737 
L 165.753282 142.365436 
L 165.757595 142.365436 
L 165.87118 142.255738 
L 165.979747 142.129483 
L 165.982276 142.129483 
L 166.088977 142.019786 
L 166.200012 141.868693 
L 166.200074 141.868693 
L 166.298025 141.758996 
L 166.408168 141.574787 
L 166.409122 141.574787 
L 166.482232 141.46509 
L 166.592085 141.330556 
L 166.593122 141.330556 
L 166.684354 141.220858 
L 166.79541 141.067696 
L 166.879924 140.957999 
L 166.990772 140.811046 
L 166.991 140.811046 
L 167.063841 140.700314 
L 167.170791 140.558535 
L 167.174917 140.558535 
L 167.272516 140.448838 
L 167.378719 140.322583 
L 167.383613 140.322583 
L 167.482144 140.211851 
L 167.589882 140.065933 
L 167.593199 140.065933 
L 167.67985 139.9552 
L 167.793746 139.813422 
L 167.8856 139.70269 
L 167.996511 139.57126 
L 167.996635 139.57126 
L 168.090335 139.461563 
L 168.195916 139.329098 
L 168.201349 139.329098 
L 168.295277 139.219401 
L 168.405379 139.078657 
L 168.406333 139.078657 
L 168.48218 138.96896 
L 168.592779 138.855123 
L 168.593194 138.855123 
L 168.720505 138.745426 
L 168.831021 138.596403 
L 168.831519 138.596403 
L 168.907201 138.486706 
L 169.016183 138.383218 
L 169.018256 138.383218 
L 169.108742 138.272486 
L 169.218429 138.130707 
L 169.219839 138.130707 
L 169.302488 138.02101 
L 169.407945 137.898894 
L 169.413584 137.898894 
L 169.49416 137.789197 
L 169.604779 137.609128 
L 169.605256 137.609128 
L 169.696489 137.499431 
L 169.806632 137.377315 
L 169.807586 137.377315 
L 169.886585 137.267618 
L 169.886585 137.266583 
L 170.003488 137.122734 
L 170.117653 137.013037 
L 170.117653 137.012002 
L 170.235053 136.853666 
L 170.317536 136.743968 
L 170.431328 136.603225 
L 170.540393 136.493527 
L 170.65095 136.342435 
L 170.65149 136.342435 
L 170.732314 136.232738 
L 170.84312 136.102343 
L 170.843369 136.102343 
L 170.926971 135.994715 
L 171.036285 135.856041 
L 171.038047 135.856041 
L 171.169443 135.746344 
L 171.279876 135.601461 
L 171.280498 135.601461 
L 171.373058 135.491764 
L 171.479262 135.342741 
L 171.484072 135.342741 
L 171.579701 135.233044 
L 171.579701 135.232009 
L 171.696396 135.09437 
L 171.809898 134.984673 
L 171.920953 134.854278 
L 171.920974 134.854278 
L 172.044615 134.74458 
L 172.155504 134.618325 
L 172.155712 134.618325 
L 172.237199 134.508628 
L 172.346886 134.382373 
L 172.348275 134.382373 
L 172.436792 134.272675 
L 172.54681 134.167118 
L 172.547888 134.167118 
L 172.657326 134.05742 
L 172.771409 133.900119 
L 172.867659 133.790421 
L 172.977014 133.668305 
L 172.978756 133.668305 
L 173.053691 133.558608 
L 173.163171 133.419934 
L 173.164747 133.419934 
L 173.276797 133.310237 
L 173.387479 133.169493 
L 173.387894 133.169493 
L 173.465006 133.059796 
L 173.577472 132.923192 
L 173.676895 132.813495 
L 173.786353 132.691379 
L 173.78795 132.691379 
L 173.875907 132.581682 
L 173.986381 132.440938 
L 173.986879 132.440938 
L 174.103698 132.331241 
L 174.21438 132.225683 
L 174.214795 132.225683 
L 174.285127 132.115986 
L 174.391973 131.99594 
L 174.396224 131.99594 
L 174.486171 131.886242 
L 174.596397 131.766196 
L 174.596978 131.766196 
L 174.69667 131.656499 
L 174.810919 131.492988 
L 174.885398 131.383291 
L 174.998817 131.267384 
L 175.108172 131.157687 
L 175.218646 131.021083 
L 175.219268 131.021083 
L 175.326633 130.911386 
L 175.439036 130.778921 
L 175.524152 130.671293 
L 175.524152 130.668189 
L 175.639769 130.557457 
L 175.745184 130.446725 
L 175.855659 130.321504 
L 175.856281 130.321504 
L 175.977662 130.211807 
L 176.087059 130.050366 
L 176.088759 130.050366 
L 176.198819 129.940668 
L 176.308879 129.824762 
L 176.309915 129.824762 
L 176.414709 129.715065 
L 176.524831 129.601228 
L 176.525806 129.601228 
L 176.619568 129.49153 
L 176.730623 129.352857 
L 176.839232 129.243159 
L 176.94896 129.15209 
L 176.950204 129.15209 
L 177.032479 129.042393 
L 177.032479 129.041358 
L 177.149071 128.905788 
L 177.269187 128.796091 
L 177.269187 128.795056 
L 177.378915 128.63672 
L 177.380263 128.63672 
L 177.481138 128.525988 
L 177.582572 128.427674 
L 177.592234 128.427674 
L 177.707478 128.317977 
L 177.817745 128.181373 
L 177.818575 128.181373 
L 177.937385 128.071675 
L 178.048067 127.939211 
L 178.04844 127.939211 
L 178.164098 127.829513 
L 178.274573 127.703258 
L 178.275154 127.703258 
L 178.39865 127.593561 
L 178.512152 127.473515 
L 178.615991 127.363818 
L 178.725595 127.241702 
L 178.727088 127.241702 
L 178.822675 127.13097 
L 178.931947 127.007819 
L 178.933772 127.007819 
L 179.047128 126.897087 
L 179.154099 126.790494 
L 179.158163 126.790494 
L 179.289953 126.679762 
L 179.400718 126.558681 
L 179.401008 126.558681 
L 179.486974 126.448984 
L 179.597698 126.30617 
L 179.59805 126.30617 
L 179.693078 126.196473 
L 179.802889 126.037102 
L 179.804174 126.037102 
L 179.880229 125.927404 
L 179.880229 125.926369 
L 179.997422 125.776312 
L 180.096617 125.666615 
L 180.205433 125.542429 
L 180.207672 125.542429 
L 180.298242 125.432732 
L 180.406892 125.327174 
L 180.409297 125.327174 
L 180.529766 125.217477 
L 180.643143 125.10364 
L 180.743748 124.993943 
L 180.853932 124.892525 
L 180.854679 124.892525 
L 180.967725 124.782827 
L 181.077743 124.660711 
L 181.07878 124.660711 
L 181.189462 124.551014 
L 181.302922 124.420619 
L 181.411821 124.310922 
L 181.522503 124.186736 
L 181.522876 124.186736 
L 181.634305 124.077039 
L 181.744427 123.921807 
L 181.745153 123.921807 
L 181.839786 123.81211 
L 181.950551 123.652738 
L 181.950758 123.652738 
L 182.043774 123.543041 
L 182.153834 123.398158 
L 182.15483 123.398158 
L 182.245772 123.288461 
L 182.245772 123.287426 
L 182.359274 123.168415 
L 182.455048 123.058717 
L 182.567534 122.920044 
L 182.663162 122.810346 
L 182.774052 122.677882 
L 182.774259 122.677882 
L 182.889586 122.56715 
L 182.999148 122.450208 
L 183.000558 122.450208 
L 183.083787 122.340511 
L 183.194656 122.212186 
L 183.194718 122.212186 
L 183.318048 122.102489 
L 183.428855 121.974163 
L 183.429145 121.974163 
L 183.530952 121.864466 
L 183.641842 121.723722 
L 183.642049 121.723722 
L 183.758744 121.614025 
L 183.869053 121.510537 
L 183.869634 121.510537 
L 183.982389 121.40084 
L 184.092366 121.287003 
L 184.093486 121.287003 
L 184.211259 121.176271 
L 184.322314 121.05519 
L 184.322356 121.05519 
L 184.402558 120.945493 
L 184.402558 120.944458 
L 184.517138 120.771633 
L 184.63404 120.661936 
L 184.63404 120.660901 
L 184.750113 120.53775 
L 184.838319 120.428053 
L 184.947923 120.310077 
L 184.949374 120.310077 
L 185.045334 120.200379 
L 185.149755 120.096891 
L 185.156431 120.096891 
L 185.243932 119.987194 
L 185.354282 119.863009 
L 185.354904 119.863009 
L 185.442653 119.753311 
L 185.548691 119.645684 
L 185.553729 119.645684 
L 185.665096 119.535987 
L 185.773663 119.436638 
L 185.776192 119.436638 
L 185.889943 119.304173 
L 185.978066 119.193441 
L 186.083046 119.090988 
L 186.089121 119.090988 
L 186.194868 118.980256 
L 186.303891 118.869524 
L 186.305923 118.869524 
L 186.394295 118.758792 
L 186.511322 118.612874 
L 186.625155 118.503176 
L 186.735506 118.376921 
L 186.736211 118.376921 
L 186.851786 118.267224 
L 186.962219 118.140969 
L 186.96282 118.140969 
L 187.078541 118.031271 
L 187.189306 117.900876 
L 187.189513 117.900876 
L 187.307618 117.791179 
L 187.417471 117.638017 
L 187.418715 117.638017 
L 187.508994 117.52832 
L 187.620091 117.393785 
L 187.729155 117.284088 
L 187.839962 117.122647 
L 187.840211 117.122647 
L 187.917095 117.01295 
L 188.026243 116.878415 
L 188.028192 116.878415 
L 188.121166 116.768718 
L 188.121166 116.767683 
L 188.236534 116.66316 
L 188.33942 116.553463 
L 188.453171 116.416859 
L 188.554978 116.307161 
L 188.66566 116.162278 
L 188.666034 116.162278 
L 188.765934 116.052581 
L 188.875828 115.944954 
L 188.876864 115.944954 
L 188.983109 115.835256 
L 189.093916 115.711071 
L 189.094164 115.711071 
L 189.200036 115.601373 
L 189.308727 115.466839 
L 189.311091 115.466839 
L 189.397845 115.357142 
L 189.506288 115.232956 
L 189.508942 115.232956 
L 189.599885 115.123259 
L 189.710525 114.992864 
L 189.710961 114.992864 
L 189.781645 114.883167 
L 189.781645 114.882132 
L 189.898755 114.734144 
L 189.982855 114.624447 
L 190.092832 114.481633 
L 190.093662 114.481633 
L 190.200321 114.371936 
L 190.311231 114.233262 
L 190.311293 114.233262 
L 190.42268 114.123565 
L 190.53527 113.974542 
L 190.620407 113.864845 
L 190.73055 113.728241 
L 190.731462 113.728241 
L 190.821782 113.618544 
L 190.927488 113.496428 
L 190.932879 113.496428 
L 191.029337 113.386731 
L 191.140309 113.258406 
L 191.140434 113.258406 
L 191.223746 113.148708 
L 191.329452 113.001755 
L 191.334843 113.001755 
L 191.451123 112.892058 
L 191.561225 112.761663 
L 191.562137 112.761663 
L 191.649969 112.651966 
L 191.759158 112.513292 
L 191.761024 112.513292 
L 191.871499 112.403595 
L 191.981932 112.26906 
L 191.982596 112.26906 
L 192.084694 112.159363 
L 192.195417 112.043457 
L 192.195707 112.043457 
L 192.28072 111.933759 
L 192.391817 111.782667 
L 192.501213 111.67297 
L 192.610485 111.567412 
L 192.612061 111.567412 
L 192.696824 111.457715 
L 192.80365 111.356296 
L 192.807921 111.356296 
L 192.910019 111.246599 
L 193.02236 111.114135 
L 193.108575 111.004437 
L 193.108575 111.003402 
L 193.226265 110.838856 
L 193.307379 110.729159 
L 193.417522 110.623601 
L 193.418476 110.623601 
L 193.502866 110.513904 
L 193.613507 110.38144 
L 193.613963 110.38144 
L 193.71349 110.271742 
L 193.823923 110.151696 
L 193.824504 110.151696 
L 193.919801 110.041999 
L 194.028741 109.913674 
L 194.030897 109.913674 
L 194.143487 109.803977 
L 194.249358 109.683931 
L 194.254584 109.683931 
L 194.352286 109.574233 
L 194.460811 109.42728 
L 194.463382 109.42728 
L 194.550634 109.317583 
L 194.661482 109.191328 
L 194.661731 109.191328 
L 194.745416 109.081631 
L 194.856015 108.942957 
L 194.856471 108.942957 
L 194.968024 108.833259 
L 195.072569 108.698725 
L 195.0791 108.698725 
L 195.160401 108.589028 
L 195.268429 108.491749 
L 195.271498 108.491749 
L 195.370402 108.382052 
L 195.481002 108.274424 
L 195.481458 108.274424 
L 195.572193 108.164727 
L 195.679433 108.021914 
L 195.68329 108.021914 
L 195.773071 107.912216 
L 195.886863 107.775612 
L 196.00501 107.667985 
L 196.115692 107.545869 
L 196.116106 107.545869 
L 196.251421 107.436172 
L 196.361523 107.326474 
L 196.362518 107.326474 
L 196.461091 107.216777 
L 196.57451 107.096731 
L 196.690334 106.987034 
L 196.794837 106.864918 
L 196.801431 106.864918 
L 196.928286 106.755221 
L 197.039341 106.626896 
L 197.127215 106.517198 
L 197.237234 106.395082 
L 197.238312 106.395082 
L 197.353286 106.28435 
L 197.461003 106.190176 
L 197.464196 106.190176 
L 197.566999 106.080479 
L 197.675773 105.981131 
L 197.678095 105.981131 
L 197.771692 105.871433 
L 197.882747 105.73069 
L 197.882789 105.73069 
L 197.985923 105.620992 
L 198.094283 105.523714 
L 198.096771 105.523714 
L 198.215084 105.414016 
L 198.322987 105.289831 
L 198.326139 105.289831 
L 198.431679 105.182203 
L 198.542734 105.070436 
L 198.542775 105.070436 
L 198.643878 104.960739 
L 198.754021 104.822065 
L 198.754892 104.822065 
L 198.861841 104.712368 
L 198.971777 104.590252 
L 198.972938 104.590252 
L 199.044349 104.480555 
L 199.153413 104.379137 
L 199.155445 104.379137 
L 199.259534 104.269439 
L 199.371626 104.157672 
L 199.493504 104.047975 
L 199.601201 103.932069 
L 199.604601 103.932069 
L 199.72254 103.822371 
L 199.831646 103.700255 
L 199.833637 103.700255 
L 199.936315 103.590558 
L 200.044509 103.49121 
L 200.047371 103.49121 
L 200.176299 103.381512 
L 200.285115 103.271815 
L 200.287313 103.271815 
L 200.387296 103.161083 
L 200.503742 103.027584 
L 200.614217 102.917886 
L 200.724816 102.775073 
L 200.725313 102.775073 
L 200.830687 102.664341 
L 200.941618 102.555678 
L 200.941784 102.555678 
L 201.075399 102.445981 
L 201.185417 102.330075 
L 201.186454 102.330075 
L 201.318907 102.220377 
L 201.318907 102.219342 
L 201.432907 102.075494 
L 201.534673 101.965797 
L 201.645396 101.870588 
L 201.64577 101.870588 
L 201.748324 101.760891 
L 201.85855 101.647054 
L 201.85942 101.647054 
L 201.964131 101.537357 
L 202.074896 101.433869 
L 202.075227 101.433869 
L 202.188605 101.324171 
L 202.29825 101.208265 
L 202.299702 101.208265 
L 202.38065 101.098568 
L 202.491664 100.964033 
L 202.491705 100.964033 
L 202.582192 100.854336 
L 202.691215 100.73636 
L 202.693288 100.73636 
L 202.816867 100.626662 
L 202.926679 100.510756 
L 202.927923 100.510756 
L 203.028984 100.401059 
L 203.139998 100.281012 
L 203.14008 100.281012 
L 203.222169 100.171315 
L 203.334552 100.04299 
L 203.447162 99.933293 
L 203.557927 99.823596 
L 203.558238 99.823596 
L 203.653058 99.713898 
L 203.76063 99.593852 
L 203.764113 99.593852 
L 203.840458 99.484155 
L 203.948901 99.359969 
L 203.951514 99.359969 
L 204.054192 99.250272 
L 204.16504 99.134366 
L 204.165247 99.134366 
L 204.28555 99.024668 
L 204.396149 98.900483 
L 204.396647 98.900483 
L 204.49833 98.790786 
L 204.608017 98.693507 
L 204.609302 98.693507 
L 204.737941 98.58381 
L 204.848249 98.449275 
L 204.848996 98.449275 
L 204.987877 98.339578 
L 205.091095 98.23195 
L 205.098932 98.23195 
L 205.243868 98.122253 
L 205.353057 98.031184 
L 205.354944 98.031184 
L 205.491047 97.921486 
L 205.602952 97.834557 
L 205.731134 97.724859 
L 205.838374 97.623441 
L 205.841733 97.623441 
L 205.968049 97.513744 
L 206.079063 97.428884 
L 206.079146 97.428884 
L 206.238845 97.319186 
L 206.346168 97.250884 
L 206.349651 97.250884 
L 206.536969 97.141187 
L 206.646822 97.066676 
L 206.648066 97.066676 
L 206.797853 96.956978 
L 206.897878 96.886607 
L 206.908618 96.886607 
L 207.129899 96.776909 
L 207.238964 96.714817 
L 207.240996 96.714817 
L 207.429931 96.605119 
L 207.5363 96.549236 
L 207.540986 96.549236 
L 207.778482 96.439539 
L 207.887173 96.389864 
L 207.889496 96.389864 
L 208.231328 96.280167 
L 208.340766 96.226353 
L 208.342218 96.226353 
L 208.791166 96.116656 
L 208.900231 96.08561 
L 208.902222 96.08561 
L 209.44572 95.975912 
L 209.537534 95.953145 
L 209.556651 95.953145 
L 210.254126 95.843448 
L 210.361781 95.816541 
L 210.36514 95.816541 
L 212.65637 95.706844 
L 212.673455 95.702704 
L 212.766844 95.702704 
L 214.530416 95.593007 
L 214.618539 95.574379 
L 214.641513 95.574379 
L 215.860632 95.464682 
L 215.944857 95.446054 
L 215.971563 95.446054 
L 217.207602 95.336357 
L 217.266738 95.323938 
L 217.318491 95.323938 
L 218.180268 95.213206 
L 218.285228 95.195613 
L 218.291324 95.195613 
L 219.140743 95.085916 
L 219.229405 95.063148 
L 219.251674 95.063148 
L 220.156952 94.953451 
L 220.266929 94.930684 
L 220.267966 94.930684 
L 220.986217 94.820987 
L 221.086241 94.804428 
L 221.096982 94.804428 
L 221.639237 94.694731 
L 221.750582 94.674034 
L 222.482353 94.564336 
L 222.590132 94.545708 
L 222.593366 94.545708 
L 223.112605 94.436011 
L 223.221878 94.413244 
L 223.223578 94.413244 
L 223.653948 94.303547 
L 223.764962 94.284919 
L 224.195747 94.175221 
L 224.305226 94.150384 
L 224.306802 94.150384 
L 224.848434 94.040687 
L 224.960153 94.009641 
L 225.417852 93.899943 
L 225.524967 93.856479 
L 225.528948 93.856479 
L 225.990338 93.746781 
L 226.097163 93.707456 
L 226.101434 93.707456 
L 226.598902 93.597759 
L 226.702327 93.570852 
L 226.709999 93.570852 
L 227.088615 93.461154 
L 227.185695 93.438387 
L 227.199712 93.438387 
L 227.70087 93.32869 
L 227.809313 93.285225 
L 227.811926 93.285225 
L 228.254612 93.175528 
L 228.254612 93.174493 
L 228.369524 93.129993 
L 228.778786 93.020296 
L 228.886026 92.974761 
L 228.889883 92.974761 
L 229.2595 92.865064 
L 229.37209 92.831947 
L 229.761385 92.72225 
L 229.872792 92.691204 
L 230.202557 92.581507 
L 230.313198 92.523553 
L 230.313447 92.523553 
L 230.589841 92.413856 
L 230.70185 92.368321 
L 231.086479 92.257589 
L 231.19712 92.20895 
L 231.197576 92.20895 
L 231.511334 92.099253 
L 231.622057 92.061997 
L 231.622389 92.061997 
L 231.980519 91.9523 
L 232.09228 91.917114 
L 232.465629 91.807416 
L 232.569344 91.768091 
L 232.576643 91.768091 
L 232.885508 91.658394 
L 232.997143 91.629417 
L 233.320025 91.51972 
L 233.426643 91.474185 
L 233.43108 91.474185 
L 233.745667 91.364488 
L 233.857925 91.302395 
L 234.264699 91.191663 
L 234.36717 91.157512 
L 234.375589 91.157512 
L 234.69988 91.047815 
L 234.812345 91.012629 
L 235.149699 90.902931 
L 235.261542 90.859467 
L 235.501526 90.749769 
L 235.59703 90.714583 
L 235.612581 90.714583 
L 235.9608 90.604886 
L 236.062691 90.561421 
L 236.071814 90.561421 
L 236.396354 90.451724 
L 236.50828 90.406189 
L 236.750545 90.296492 
L 236.863259 90.257166 
L 237.181786 90.146434 
L 237.2945 90.108144 
L 237.553477 89.998447 
L 237.658788 89.963261 
L 237.664449 89.963261 
L 237.954652 89.855633 
L 238.066122 89.808029 
L 238.320952 89.698331 
L 238.424916 89.659006 
L 238.431966 89.659006 
L 238.820245 89.549309 
L 238.929848 89.505844 
L 238.931341 89.505844 
L 239.279726 89.396146 
L 239.391611 89.346472 
L 239.711714 89.236775 
L 239.823806 89.209868 
L 240.155561 89.100171 
L 240.267819 89.062915 
L 240.619563 88.953218 
L 240.72162 88.909753 
L 240.73066 88.909753 
L 241.034756 88.800056 
L 241.148672 88.756591 
L 241.508295 88.646893 
L 241.622668 88.595149 
L 241.897403 88.485452 
L 242.010242 88.444057 
L 242.438663 88.33436 
L 242.550631 88.288825 
L 242.847137 88.179128 
L 242.959105 88.131523 
L 243.27025 88.021826 
L 243.381347 87.992849 
L 243.713808 87.883152 
L 243.826522 87.843827 
L 244.079859 87.734129 
L 244.184362 87.690664 
L 244.190955 87.690664 
L 244.48008 87.580967 
L 244.59238 87.549921 
L 244.887767 87.440224 
L 244.99115 87.409177 
L 244.998822 87.409177 
L 245.361348 87.29948 
L 245.471159 87.270503 
L 245.472445 87.270503 
L 245.814444 87.160806 
L 245.926328 87.121481 
L 246.204547 87.011783 
L 246.31809 86.974528 
L 246.681943 86.863796 
L 246.797187 86.815156 
L 247.059979 86.705459 
L 247.172154 86.649575 
L 247.487405 86.539878 
L 247.599289 86.494343 
L 247.968782 86.384646 
L 248.080708 86.341181 
L 248.3751 86.231484 
L 248.486902 86.196298 
L 248.84412 86.086601 
L 248.958451 86.049345 
L 249.233311 85.939648 
L 249.331552 85.896183 
L 249.344366 85.896183 
L 249.677822 85.786486 
L 249.789624 85.7513 
L 250.14904 85.641602 
L 250.26194 85.614696 
L 250.541755 85.504998 
L 250.656419 85.473952 
L 250.921989 85.364255 
L 251.036901 85.32079 
L 251.368242 85.211092 
L 251.479836 85.180046 
L 251.796622 85.070349 
L 251.909377 85.026884 
L 252.256062 84.917187 
L 252.370414 84.879931 
L 252.748968 84.770234 
L 252.861392 84.739187 
L 253.190535 84.62949 
L 253.300056 84.598444 
L 253.301632 84.598444 
L 253.567948 84.488746 
L 253.685763 84.426654 
L 254.046796 84.316956 
L 254.158764 84.271422 
L 254.593613 84.161724 
L 254.706659 84.11412 
L 254.966174 84.004423 
L 255.077976 83.967167 
L 255.429845 83.856435 
L 255.543264 83.799516 
L 255.875351 83.689819 
L 255.988189 83.648424 
L 256.400894 83.538727 
L 256.516262 83.489052 
L 256.825209 83.379355 
L 256.936928 83.344169 
L 257.284235 83.234472 
L 257.394668 83.182728 
L 257.395331 83.182728 
L 257.6998 83.071996 
L 257.813841 83.037845 
L 258.197102 82.928148 
L 258.30909 82.882613 
L 258.645968 82.772916 
L 258.757645 82.743939 
L 259.071299 82.634242 
L 259.183578 82.594916 
L 259.542372 82.485219 
L 259.656081 82.456242 
L 259.997955 82.346545 
L 260.097109 82.30308 
L 260.108928 82.30308 
L 260.346879 82.193383 
L 260.464093 82.137499 
L 260.8227 82.027802 
L 260.934543 81.990546 
L 261.312496 81.880849 
L 261.423841 81.856012 
L 261.719477 81.746315 
L 261.83159 81.696641 
L 262.208734 81.586943 
L 262.323024 81.555897 
L 262.660254 81.4462 
L 262.772138 81.398595 
L 263.148474 81.288898 
L 263.260275 81.253712 
L 263.535674 81.144015 
L 263.648388 81.104689 
L 263.92246 80.994992 
L 264.036625 80.947388 
L 264.391272 80.83769 
L 264.487606 80.802504 
L 264.50212 80.802504 
L 264.922994 80.692807 
L 265.025755 80.657621 
L 265.03409 80.657621 
L 265.388074 80.546889 
L 265.47968 80.514808 
L 265.499087 80.514808 
L 265.78701 80.405111 
L 265.90611 80.355436 
L 266.356178 80.245739 
L 266.4691 80.202274 
L 266.819309 80.092577 
L 266.935403 80.057391 
L 267.301351 79.947694 
L 267.414521 79.908368 
L 267.780489 79.798671 
L 267.892913 79.767625 
L 268.282477 79.657927 
L 268.391127 79.620672 
L 268.39349 79.620672 
L 268.765845 79.510974 
L 268.878393 79.475788 
L 269.272602 79.366091 
L 269.385482 79.339184 
L 269.703677 79.229487 
L 269.815997 79.20672 
L 270.190528 79.097022 
L 270.304901 79.059767 
L 270.712214 78.950069 
L 270.823767 78.923163 
L 271.281797 78.813465 
L 271.394097 78.784489 
L 271.797615 78.674791 
L 271.90413 78.627187 
L 271.908567 78.627187 
L 272.243267 78.51749 
L 272.357764 78.478164 
L 272.820812 78.368467 
L 272.933568 78.329142 
L 273.314216 78.219444 
L 273.429086 78.175979 
L 273.826737 78.066282 
L 273.94281 78.031096 
L 274.384626 77.921399 
L 274.497133 77.888283 
L 274.879813 77.778586 
L 274.994974 77.7434 
L 275.397808 77.633702 
L 275.509693 77.592307 
L 275.86069 77.48261 
L 275.966976 77.453633 
L 275.971621 77.453633 
L 276.379867 77.343936 
L 276.493473 77.296332 
L 276.75529 77.186634 
L 276.868108 77.153518 
L 277.249088 77.043821 
L 277.36176 77.006565 
L 277.741331 76.896868 
L 277.85421 76.869961 
L 278.303822 76.760264 
L 278.417946 76.725078 
L 278.763511 76.615381 
L 278.877988 76.586404 
L 279.25621 76.476707 
L 279.25621 76.475672 
L 279.368841 76.460149 
L 279.737007 76.349416 
L 279.850426 76.323544 
L 280.282808 76.213847 
L 280.394837 76.180731 
L 280.788092 76.071034 
L 280.90091 76.027569 
L 281.411793 75.917872 
L 281.52345 75.888895 
L 281.969184 75.779198 
L 282.081069 75.76057 
L 282.599105 75.650873 
L 282.716423 75.630175 
L 283.106858 75.520478 
L 283.218016 75.505989 
L 283.611914 75.396292 
L 283.712892 75.352827 
L 283.72299 75.352827 
L 284.056384 75.24313 
L 284.16831 75.201735 
L 284.683402 75.092037 
L 284.799973 75.052712 
L 285.208717 74.943015 
L 285.320456 74.920247 
L 285.780664 74.81055 
L 285.891781 74.787783 
L 286.406231 74.678086 
L 286.517555 74.649109 
L 286.931587 74.539412 
L 287.04372 74.512505 
L 287.507432 74.402808 
L 287.619731 74.373831 
L 288.117613 74.264134 
L 288.230908 74.231017 
L 288.747037 74.120285 
L 288.86199 74.094413 
L 289.133574 73.984716 
L 289.241498 73.95367 
L 289.244671 73.95367 
L 289.356845 73.918484 
L 289.82599 73.808786 
L 289.931322 73.783949 
L 289.937086 73.783949 
L 290.41581 73.674252 
L 290.528316 73.641136 
L 291.06319 73.531439 
L 291.176982 73.490043 
L 291.702027 73.380346 
L 291.798174 73.336881 
L 291.813082 73.336881 
L 292.383785 73.227184 
L 292.497909 73.200277 
L 292.868439 73.09058 
L 292.980033 73.065743 
L 293.451022 72.956046 
L 293.562803 72.933278 
L 294.037484 72.823581 
L 294.148871 72.784255 
L 294.649925 72.674558 
L 294.759529 72.641442 
L 294.761022 72.641442 
L 295.382815 72.531745 
L 295.493414 72.502768 
L 295.493725 72.502768 
L 296.057648 72.393071 
L 296.169284 72.366164 
L 296.583854 72.256467 
L 296.692628 72.22956 
L 296.694909 72.22956 
L 297.438415 72.119863 
L 297.550258 72.103305 
L 297.980919 71.993607 
L 298.094172 71.97084 
L 298.565887 71.861143 
L 298.677564 71.830096 
L 299.12896 71.720399 
L 299.240824 71.693492 
L 299.73995 71.583795 
L 299.852477 71.554818 
L 300.539627 71.445121 
L 300.64075 71.422354 
L 300.650723 71.422354 
L 300.763769 71.401656 
L 301.313157 71.291959 
L 301.426119 71.262982 
L 301.970033 71.153285 
L 302.082 71.126378 
L 302.647644 71.016681 
L 302.761063 70.981495 
L 303.364029 70.871798 
L 303.46592 70.842821 
L 303.475084 70.842821 
L 304.054205 70.733124 
L 304.16779 70.710356 
L 304.789998 70.599624 
L 304.901468 70.575822 
L 305.484881 70.466125 
L 305.597035 70.447497 
L 306.364138 70.3378 
L 306.476437 70.319172 
L 306.911493 70.209474 
L 307.024373 70.182568 
L 307.598891 70.07287 
L 307.710693 70.054242 
L 308.236691 69.944545 
L 308.341734 69.921778 
L 308.347747 69.921778 
L 308.857158 69.811046 
L 308.96925 69.787243 
L 309.540492 69.677546 
L 309.653703 69.658918 
L 310.269483 69.549221 
L 310.382571 69.524384 
L 310.926028 69.414687 
L 311.025638 69.398129 
L 311.037125 69.398129 
L 311.637354 69.288431 
L 311.748865 69.257385 
L 312.419841 69.147688 
L 312.531643 69.12906 
L 313.028447 69.019363 
L 313.139875 68.986246 
L 313.735543 68.875514 
L 313.849708 68.855852 
L 314.53072 68.746154 
L 314.641941 68.723387 
L 315.311507 68.612655 
L 315.423101 68.599201 
L 316.015327 68.489504 
L 316.127377 68.464667 
L 316.738513 68.35497 
L 316.849983 68.336342 
L 317.50715 68.226645 
L 317.619221 68.212156 
L 318.273298 68.102459 
L 318.380704 68.079692 
L 318.384312 68.079692 
L 319.043427 67.969994 
L 319.155063 67.941018 
L 319.775198 67.831321 
L 319.888865 67.802344 
L 320.41926 67.692647 
L 320.531642 67.6616 
L 321.213131 67.551903 
L 321.326031 67.535345 
L 321.902125 67.425648 
L 321.957321 67.411159 
L 322.013222 67.411159 
L 322.622325 67.301462 
L 322.728073 67.286974 
L 322.733381 67.286974 
L 323.523706 67.177277 
L 323.63615 67.156579 
L 324.223752 67.046882 
L 324.33518 67.030324 
L 325.084181 66.920626 
L 325.196356 66.899929 
L 325.822669 66.790231 
L 325.93557 66.757115 
L 326.560847 66.647418 
L 326.672814 66.62672 
L 327.500918 66.515988 
L 327.613632 66.492186 
L 328.205546 66.382489 
L 328.319567 66.361791 
L 328.895992 66.252094 
L 329.00825 66.223117 
L 329.67029 66.11342 
L 329.767121 66.103071 
L 329.781283 66.103071 
L 330.308691 65.993374 
L 330.421115 65.962328 
L 331.225913 65.85263 
L 331.337383 65.829863 
L 332.190265 65.720166 
L 332.302253 65.691189 
L 333.00232 65.581492 
L 333.113914 65.562864 
L 333.752896 65.453167 
L 333.832124 65.432469 
L 333.863993 65.432469 
L 334.621682 65.322772 
L 334.733359 65.310353 
L 335.425236 65.200656 
L 335.537162 65.184098 
L 336.419591 65.074401 
L 336.530978 65.059912 
L 337.054239 64.94918 
L 337.166103 64.939866 
L 337.793723 64.830169 
L 337.905981 64.81982 
L 338.634765 64.710123 
L 338.746028 64.699774 
L 339.430937 64.590077 
L 339.542781 64.573519 
L 340.270425 64.463822 
L 340.384238 64.449333 
L 341.131351 64.339636 
L 341.24336 64.327218 
L 342.06655 64.21752 
L 342.17858 64.205102 
L 342.9157 64.095404 
L 343.027087 64.091265 
L 343.722986 63.981568 
L 343.835161 63.967079 
L 344.584555 63.857382 
L 344.697124 63.842894 
L 345.346557 63.733196 
L 345.457985 63.716638 
L 346.359469 63.606941 
L 346.471852 63.594523 
L 347.045893 63.484825 
L 347.157301 63.470337 
L 348.025319 63.36064 
L 348.129863 63.352361 
L 348.136291 63.352361 
L 348.771437 63.242663 
L 348.882783 63.224036 
L 349.536425 63.114338 
L 349.64072 63.077083 
L 349.647376 63.077083 
L 350.343628 62.967385 
L 350.455844 62.950827 
L 351.452438 62.84113 
L 351.564199 62.818363 
L 352.281869 62.708665 
L 352.378535 62.685898 
L 352.392966 62.685898 
L 353.040595 62.576201 
L 353.153371 62.555503 
L 353.988732 62.445806 
L 354.099891 62.429248 
L 354.815861 62.319551 
L 354.914786 62.294714 
L 354.926875 62.294714 
L 355.645499 62.183981 
L 355.75784 62.170528 
L 356.594404 62.059796 
L 356.705874 62.048412 
L 357.516145 61.938715 
L 357.62745 61.924227 
L 358.382132 61.814529 
L 358.493415 61.791762 
L 359.240529 61.682065 
L 359.352165 61.655158 
L 360.051838 61.544426 
L 360.17326 61.514414 
L 360.872767 61.404717 
L 360.984942 61.388159 
L 361.657743 61.278462 
L 361.769254 61.270182 
L 362.625433 61.160485 
L 362.736737 61.145997 
L 363.417914 61.0363 
L 363.417914 61.035265 
L 363.531541 61.015602 
L 364.314526 60.905905 
L 364.426825 60.889347 
L 365.219182 60.779649 
L 365.321446 60.758952 
L 365.330154 60.758952 
L 365.442391 60.748603 
L 366.234914 60.638906 
L 366.348188 60.618208 
L 367.238538 60.508511 
L 367.351418 60.481604 
L 367.992992 60.371907 
L 368.104669 60.34086 
L 368.856884 60.231163 
L 368.968644 60.214605 
L 369.638251 60.104908 
L 369.638251 60.103873 
L 369.750675 60.08835 
L 370.58417 59.978652 
L 370.695433 59.953815 
L 371.438565 59.844118 
L 371.54029 59.82342 
L 371.549662 59.82342 
L 372.20347 59.713723 
L 372.315645 59.688886 
L 372.898871 59.579189 
L 373.010217 59.564701 
L 373.837533 59.455003 
L 373.949044 59.434306 
L 374.620476 59.324608 
L 374.700222 59.299771 
L 374.731531 59.299771 
L 375.481154 59.190074 
L 375.593226 59.173516 
L 376.320351 59.063819 
L 376.431863 59.038982 
L 377.16214 58.929284 
L 377.274232 58.906517 
L 378.07451 58.79682 
L 378.186063 58.774052 
L 378.856541 58.664355 
L 378.968301 58.647797 
L 379.58968 58.5381 
L 379.683732 58.519472 
L 379.700735 58.519472 
L 380.365781 58.409775 
L 380.477748 58.389077 
L 381.177545 58.278345 
L 381.288393 58.244194 
L 381.288601 58.244194 
L 381.914665 58.134497 
L 382.025928 58.117939 
L 382.669638 58.008241 
L 382.781626 57.977195 
L 383.43448 57.867498 
L 383.545908 57.84473 
L 384.455209 57.735033 
L 384.455209 57.733998 
L 384.568297 57.712266 
L 385.169272 57.602568 
L 385.282401 57.579801 
L 385.892956 57.470104 
L 386.005131 57.455615 
L 386.599388 57.345918 
L 386.599388 57.344883 
L 386.710817 57.337639 
L 387.385649 57.227942 
L 387.483185 57.201035 
L 387.496746 57.201035 
L 388.18319 57.091338 
L 388.280519 57.076849 
L 388.294287 57.076849 
L 388.984878 56.967152 
L 389.098131 56.934036 
L 389.947384 56.824339 
L 390.059144 56.80985 
L 390.720292 56.700153 
L 390.831016 56.681525 
L 390.831389 56.681525 
L 391.439248 56.571828 
L 391.520653 56.55527 
L 391.550262 56.55527 
L 392.33926 56.445573 
L 392.450896 56.416596 
L 393.430902 56.306899 
L 393.541958 56.290341 
L 394.275055 56.180644 
L 394.386981 56.159946 
L 395.034319 56.050249 
L 395.138449 56.029551 
L 395.145416 56.029551 
L 395.857032 55.919854 
L 395.968585 55.909505 
L 396.580674 55.799808 
L 396.692227 55.774971 
L 397.641131 55.665273 
L 397.752394 55.646646 
L 398.570421 55.536948 
L 398.666588 55.516251 
L 398.681476 55.516251 
L 399.349176 55.406553 
L 399.460646 55.381716 
L 400.386908 55.272019 
L 400.492033 55.255461 
L 400.497963 55.255461 
L 401.335398 55.145764 
L 401.438532 55.135415 
L 401.446494 55.135415 
L 402.432638 55.025718 
L 402.535026 55.011229 
L 402.543693 55.011229 
L 403.622605 54.901532 
L 403.730715 54.882904 
L 403.733618 54.882904 
L 404.769692 54.772172 
L 404.84301 54.754579 
L 404.880664 54.754579 
L 406.300786 54.644882 
L 406.333256 54.638673 
L 406.411862 54.638673 
L 407.529899 54.528975 
L 407.637637 54.518626 
L 407.640996 54.518626 
L 409.313252 54.408929 
L 409.424142 54.396511 
L 411.105438 54.286813 
L 411.20849 54.276465 
L 411.216452 54.276465 
L 413.893348 54.166767 
L 413.893348 54.164698 
L 414.00262 54.164698 
L 414.72 54.144 
L 414.72 54.144 
" clip-path="url(#pc451478507)" style="fill: none; stroke: #ff8c00; stroke-width: 1.5; stroke-linecap: square"/>
   </g>
   <g id="line2d_14">
    <path d="M 74.605714 307.584 
L 414.72 54.144 
" clip-path="url(#pc451478507)" style="fill: none; stroke-dasharray: 5.55,2.4; stroke-dashoffset: 0; stroke: #0000ff; stroke-width: 1.5"/>
   </g>
   <g id="patch_3">
    <path d="M 57.6 307.584 
L 57.6 41.472 
" style="fill: none; stroke: #000000; stroke-width: 0.8; stroke-linejoin: miter; stroke-linecap: square"/>
   </g>
   <g id="patch_4">
    <path d="M 414.72 307.584 
L 414.72 41.472 
" style="fill: none; stroke: #000000; stroke-width: 0.8; stroke-linejoin: miter; stroke-linecap: square"/>
   </g>
   <g id="patch_5">
    <path d="M 57.6 307.584 
L 414.72 307.584 
" style="fill: none; stroke: #000000; stroke-width: 0.8; stroke-linejoin: miter; stroke-linecap: square"/>
   </g>
   <g id="patch_6">
    <path d="M 57.6 41.472 
L 414.72 41.472 
" style="fill: none; stroke: #000000; stroke-width: 0.8; stroke-linejoin: miter; stroke-linecap: square"/>
   </g>
   <g id="text_15">
    <!-- ROC CURVE -->
    <g transform="translate(200.855625 35.472)scale(0.12 -0.12)">
     <defs>
      <path id="DejaVuSans-4f" d="M 2522 4238 
Q 1834 4238 1429 3725 
Q 1025 3213 1025 2328 
Q 1025 1447 1429 934 
Q 1834 422 2522 422 
Q 3209 422 3611 934 
Q 4013 1447 4013 2328 
Q 4013 3213 3611 3725 
Q 3209 4238 2522 4238 
z
M 2522 4750 
Q 3503 4750 4090 4092 
Q 4678 3434 4678 2328 
Q 4678 1225 4090 567 
Q 3503 -91 2522 -91 
Q 1538 -91 948 565 
Q 359 1222 359 2328 
Q 359 3434 948 4092 
Q 1538 4750 2522 4750 
z
" transform="scale(0.015625)"/>
      <path id="DejaVuSans-43" d="M 4122 4306 
L 4122 3641 
Q 3803 3938 3442 4084 
Q 3081 4231 2675 4231 
Q 1875 4231 1450 3742 
Q 1025 3253 1025 2328 
Q 1025 1406 1450 917 
Q 1875 428 2675 428 
Q 3081 428 3442 575 
Q 3803 722 4122 1019 
L 4122 359 
Q 3791 134 3420 21 
Q 3050 -91 2638 -91 
Q 1578 -91 968 557 
Q 359 1206 359 2328 
Q 359 3453 968 4101 
Q 1578 4750 2638 4750 
Q 3056 4750 3426 4639 
Q 3797 4528 4122 4306 
z
" transform="scale(0.015625)"/>
      <path id="DejaVuSans-55" d="M 556 4666 
L 1191 4666 
L 1191 1831 
Q 1191 1081 1462 751 
Q 1734 422 2344 422 
Q 2950 422 3222 751 
Q 3494 1081 3494 1831 
L 3494 4666 
L 4128 4666 
L 4128 1753 
Q 4128 841 3676 375 
Q 3225 -91 2344 -91 
Q 1459 -91 1007 375 
Q 556 841 556 1753 
L 556 4666 
z
" transform="scale(0.015625)"/>
      <path id="DejaVuSans-56" d="M 1831 0 
L 50 4666 
L 709 4666 
L 2188 738 
L 3669 4666 
L 4325 4666 
L 2547 0 
L 1831 0 
z
" transform="scale(0.015625)"/>
      <path id="DejaVuSans-45" d="M 628 4666 
L 3578 4666 
L 3578 4134 
L 1259 4134 
L 1259 2753 
L 3481 2753 
L 3481 2222 
L 1259 2222 
L 1259 531 
L 3634 531 
L 3634 0 
L 628 0 
L 628 4666 
z
" transform="scale(0.015625)"/>
     </defs>
     <use xlink:href="#DejaVuSans-52"/>
     <use xlink:href="#DejaVuSans-4f" x="69.482422"/>
     <use xlink:href="#DejaVuSans-43" x="148.193359"/>
     <use xlink:href="#DejaVuSans-20" x="218.017578"/>
     <use xlink:href="#DejaVuSans-43" x="249.804688"/>
     <use xlink:href="#DejaVuSans-55" x="319.628906"/>
     <use xlink:href="#DejaVuSans-52" x="392.822266"/>
     <use xlink:href="#DejaVuSans-56" x="456.804688"/>
     <use xlink:href="#DejaVuSans-45" x="525.212891"/>
    </g>
   </g>
   <g id="legend_1">
    <g id="patch_7">
     <path d="M 234.97 302.584 
L 407.72 302.584 
Q 409.72 302.584 409.72 300.584 
L 409.72 286.905875 
Q 409.72 284.905875 407.72 284.905875 
L 234.97 284.905875 
Q 232.97 284.905875 232.97 286.905875 
L 232.97 300.584 
Q 232.97 302.584 234.97 302.584 
z
" style="fill: #ffffff; opacity: 0.8; stroke: #cccccc; stroke-linejoin: miter"/>
    </g>
    <g id="line2d_15">
     <path d="M 236.97 293.004312 
L 246.97 293.004312 
L 256.97 293.004312 
" style="fill: none; stroke: #ff8c00; stroke-width: 1.5; stroke-linecap: square"/>
    </g>
    <g id="text_16">
     <!-- ROC curve (ROC AUC=0.75) -->
     <g transform="translate(264.97 296.504312)scale(0.1 -0.1)">
      <defs>
       <path id="DejaVuSans-63" d="M 3122 3366 
L 3122 2828 
Q 2878 2963 2633 3030 
Q 2388 3097 2138 3097 
Q 1578 3097 1268 2742 
Q 959 2388 959 1747 
Q 959 1106 1268 751 
Q 1578 397 2138 397 
Q 2388 397 2633 464 
Q 2878 531 3122 666 
L 3122 134 
Q 2881 22 2623 -34 
Q 2366 -91 2075 -91 
Q 1284 -91 818 406 
Q 353 903 353 1747 
Q 353 2603 823 3093 
Q 1294 3584 2113 3584 
Q 2378 3584 2631 3529 
Q 2884 3475 3122 3366 
z
" transform="scale(0.015625)"/>
       <path id="DejaVuSans-28" d="M 1984 4856 
Q 1566 4138 1362 3434 
Q 1159 2731 1159 2009 
Q 1159 1288 1364 580 
Q 1569 -128 1984 -844 
L 1484 -844 
Q 1016 -109 783 600 
Q 550 1309 550 2009 
Q 550 2706 781 3412 
Q 1013 4119 1484 4856 
L 1984 4856 
z
" transform="scale(0.015625)"/>
       <path id="DejaVuSans-41" d="M 2188 4044 
L 1331 1722 
L 3047 1722 
L 2188 4044 
z
M 1831 4666 
L 2547 4666 
L 4325 0 
L 3669 0 
L 3244 1197 
L 1141 1197 
L 716 0 
L 50 0 
L 1831 4666 
z
" transform="scale(0.015625)"/>
       <path id="DejaVuSans-3d" d="M 678 2906 
L 4684 2906 
L 4684 2381 
L 678 2381 
L 678 2906 
z
M 678 1631 
L 4684 1631 
L 4684 1100 
L 678 1100 
L 678 1631 
z
" transform="scale(0.015625)"/>
       <path id="DejaVuSans-37" d="M 525 4666 
L 3525 4666 
L 3525 4397 
L 1831 0 
L 1172 0 
L 2766 4134 
L 525 4134 
L 525 4666 
z
" transform="scale(0.015625)"/>
       <path id="DejaVuSans-35" d="M 691 4666 
L 3169 4666 
L 3169 4134 
L 1269 4134 
L 1269 2991 
Q 1406 3038 1543 3061 
Q 1681 3084 1819 3084 
Q 2600 3084 3056 2656 
Q 3513 2228 3513 1497 
Q 3513 744 3044 326 
Q 2575 -91 1722 -91 
Q 1428 -91 1123 -41 
Q 819 9 494 109 
L 494 744 
Q 775 591 1075 516 
Q 1375 441 1709 441 
Q 2250 441 2565 725 
Q 2881 1009 2881 1497 
Q 2881 1984 2565 2268 
Q 2250 2553 1709 2553 
Q 1456 2553 1204 2497 
Q 953 2441 691 2322 
L 691 4666 
z
" transform="scale(0.015625)"/>
       <path id="DejaVuSans-29" d="M 513 4856 
L 1013 4856 
Q 1481 4119 1714 3412 
Q 1947 2706 1947 2009 
Q 1947 1309 1714 600 
Q 1481 -109 1013 -844 
L 513 -844 
Q 928 -128 1133 580 
Q 1338 1288 1338 2009 
Q 1338 2731 1133 3434 
Q 928 4138 513 4856 
z
" transform="scale(0.015625)"/>
      </defs>
      <use xlink:href="#DejaVuSans-52"/>
      <use xlink:href="#DejaVuSans-4f" x="69.482422"/>
      <use xlink:href="#DejaVuSans-43" x="148.193359"/>
      <use xlink:href="#DejaVuSans-20" x="218.017578"/>
      <use xlink:href="#DejaVuSans-63" x="249.804688"/>
      <use xlink:href="#DejaVuSans-75" x="304.785156"/>
      <use xlink:href="#DejaVuSans-72" x="368.164062"/>
      <use xlink:href="#DejaVuSans-76" x="409.277344"/>
      <use xlink:href="#DejaVuSans-65" x="468.457031"/>
      <use xlink:href="#DejaVuSans-20" x="529.980469"/>
      <use xlink:href="#DejaVuSans-28" x="561.767578"/>
      <use xlink:href="#DejaVuSans-52" x="600.78125"/>
      <use xlink:href="#DejaVuSans-4f" x="670.263672"/>
      <use xlink:href="#DejaVuSans-43" x="748.974609"/>
      <use xlink:href="#DejaVuSans-20" x="818.798828"/>
      <use xlink:href="#DejaVuSans-41" x="850.585938"/>
      <use xlink:href="#DejaVuSans-55" x="918.994141"/>
      <use xlink:href="#DejaVuSans-43" x="992.1875"/>
      <use xlink:href="#DejaVuSans-3d" x="1062.011719"/>
      <use xlink:href="#DejaVuSans-30" x="1145.800781"/>
      <use xlink:href="#DejaVuSans-2e" x="1209.423828"/>
      <use xlink:href="#DejaVuSans-37" x="1241.210938"/>
      <use xlink:href="#DejaVuSans-35" x="1304.833984"/>
      <use xlink:href="#DejaVuSans-29" x="1368.457031"/>
     </g>
    </g>
   </g>
  </g>
 </g>
 <defs>
  <clipPath id="pc451478507">
   <rect x="57.6" y="41.472" width="357.12" height="266.112"/>
  </clipPath>
 </defs>
</svg>
