<?xml version="1.0" encoding="utf-8" standalone="no"?>
<!DOCTYPE svg PUBLIC "-//W3C//DTD SVG 1.1//EN"
  "http://www.w3.org/Graphics/SVG/1.1/DTD/svg11.dtd">
<svg xmlns:xlink="http://www.w3.org/1999/xlink" width="460.8pt" height="345.6pt" viewBox="0 0 460.8 345.6" xmlns="http://www.w3.org/2000/svg" version="1.1">
 <metadata>
  <rdf:RDF xmlns:dc="http://purl.org/dc/elements/1.1/" xmlns:cc="http://creativecommons.org/ns#" xmlns:rdf="http://www.w3.org/1999/02/22-rdf-syntax-ns#">
   <cc:Work>
    <dc:type rdf:resource="http://purl.org/dc/dcmitype/StillImage"/>
    <dc:date>2022-05-20T11:54:15.185071</dc:date>
    <dc:format>image/svg+xml</dc:format>
    <dc:creator>
     <cc:Agent>
      <dc:title>Matplotlib v3.5.1, https://matplotlib.org/</dc:title>
     </cc:Agent>
    </dc:creator>
   </cc:Work>
  </rdf:RDF>
 </metadata>
 <defs>
  <style type="text/css">*{stroke-linejoin: round; stroke-linecap: butt}</style>
 </defs>
 <g id="figure_1">
  <g id="patch_1">
   <path d="M 0 345.6 
L 460.8 345.6 
L 460.8 0 
L 0 0 
z
" style="fill: #ffffff"/>
  </g>
  <g id="axes_1">
   <g id="patch_2">
    <path d="M 57.6 307.584 
L 414.72 307.584 
L 414.72 41.472 
L 57.6 41.472 
z
" style="fill: #ffffff"/>
   </g>
   <g id="matplotlib.axis_1">
    <g id="xtick_1">
     <g id="line2d_1">
      <defs>
       <path id="m1dfbdce03e" d="M 0 0 
L 0 3.5 
" style="stroke: #000000; stroke-width: 0.8"/>
      </defs>
      <g>
       <use xlink:href="#m1dfbdce03e" x="74.605714" y="307.584" style="stroke: #000000; stroke-width: 0.8"/>
      </g>
     </g>
     <g id="text_1">
      <!-- 0.0 -->
      <g transform="translate(66.654152 322.182437)scale(0.1 -0.1)">
       <defs>
        <path id="DejaVuSans-30" d="M 2034 4250 
Q 1547 4250 1301 3770 
Q 1056 3291 1056 2328 
Q 1056 1369 1301 889 
Q 1547 409 2034 409 
Q 2525 409 2770 889 
Q 3016 1369 3016 2328 
Q 3016 3291 2770 3770 
Q 2525 4250 2034 4250 
z
M 2034 4750 
Q 2819 4750 3233 4129 
Q 3647 3509 3647 2328 
Q 3647 1150 3233 529 
Q 2819 -91 2034 -91 
Q 1250 -91 836 529 
Q 422 1150 422 2328 
Q 422 3509 836 4129 
Q 1250 4750 2034 4750 
z
" transform="scale(0.015625)"/>
        <path id="DejaVuSans-2e" d="M 684 794 
L 1344 794 
L 1344 0 
L 684 0 
L 684 794 
z
" transform="scale(0.015625)"/>
       </defs>
       <use xlink:href="#DejaVuSans-30"/>
       <use xlink:href="#DejaVuSans-2e" x="63.623047"/>
       <use xlink:href="#DejaVuSans-30" x="95.410156"/>
      </g>
     </g>
    </g>
    <g id="xtick_2">
     <g id="line2d_2">
      <g>
       <use xlink:href="#m1dfbdce03e" x="142.628571" y="307.584" style="stroke: #000000; stroke-width: 0.8"/>
      </g>
     </g>
     <g id="text_2">
      <!-- 0.2 -->
      <g transform="translate(134.677009 322.182437)scale(0.1 -0.1)">
       <defs>
        <path id="DejaVuSans-32" d="M 1228 531 
L 3431 531 
L 3431 0 
L 469 0 
L 469 531 
Q 828 903 1448 1529 
Q 2069 2156 2228 2338 
Q 2531 2678 2651 2914 
Q 2772 3150 2772 3378 
Q 2772 3750 2511 3984 
Q 2250 4219 1831 4219 
Q 1534 4219 1204 4116 
Q 875 4013 500 3803 
L 500 4441 
Q 881 4594 1212 4672 
Q 1544 4750 1819 4750 
Q 2544 4750 2975 4387 
Q 3406 4025 3406 3419 
Q 3406 3131 3298 2873 
Q 3191 2616 2906 2266 
Q 2828 2175 2409 1742 
Q 1991 1309 1228 531 
z
" transform="scale(0.015625)"/>
       </defs>
       <use xlink:href="#DejaVuSans-30"/>
       <use xlink:href="#DejaVuSans-2e" x="63.623047"/>
       <use xlink:href="#DejaVuSans-32" x="95.410156"/>
      </g>
     </g>
    </g>
    <g id="xtick_3">
     <g id="line2d_3">
      <g>
       <use xlink:href="#m1dfbdce03e" x="210.651429" y="307.584" style="stroke: #000000; stroke-width: 0.8"/>
      </g>
     </g>
     <g id="text_3">
      <!-- 0.4 -->
      <g transform="translate(202.699866 322.182437)scale(0.1 -0.1)">
       <defs>
        <path id="DejaVuSans-34" d="M 2419 4116 
L 825 1625 
L 2419 1625 
L 2419 4116 
z
M 2253 4666 
L 3047 4666 
L 3047 1625 
L 3713 1625 
L 3713 1100 
L 3047 1100 
L 3047 0 
L 2419 0 
L 2419 1100 
L 313 1100 
L 313 1709 
L 2253 4666 
z
" transform="scale(0.015625)"/>
       </defs>
       <use xlink:href="#DejaVuSans-30"/>
       <use xlink:href="#DejaVuSans-2e" x="63.623047"/>
       <use xlink:href="#DejaVuSans-34" x="95.410156"/>
      </g>
     </g>
    </g>
    <g id="xtick_4">
     <g id="line2d_4">
      <g>
       <use xlink:href="#m1dfbdce03e" x="278.674286" y="307.584" style="stroke: #000000; stroke-width: 0.8"/>
      </g>
     </g>
     <g id="text_4">
      <!-- 0.6 -->
      <g transform="translate(270.722723 322.182437)scale(0.1 -0.1)">
       <defs>
        <path id="DejaVuSans-36" d="M 2113 2584 
Q 1688 2584 1439 2293 
Q 1191 2003 1191 1497 
Q 1191 994 1439 701 
Q 1688 409 2113 409 
Q 2538 409 2786 701 
Q 3034 994 3034 1497 
Q 3034 2003 2786 2293 
Q 2538 2584 2113 2584 
z
M 3366 4563 
L 3366 3988 
Q 3128 4100 2886 4159 
Q 2644 4219 2406 4219 
Q 1781 4219 1451 3797 
Q 1122 3375 1075 2522 
Q 1259 2794 1537 2939 
Q 1816 3084 2150 3084 
Q 2853 3084 3261 2657 
Q 3669 2231 3669 1497 
Q 3669 778 3244 343 
Q 2819 -91 2113 -91 
Q 1303 -91 875 529 
Q 447 1150 447 2328 
Q 447 3434 972 4092 
Q 1497 4750 2381 4750 
Q 2619 4750 2861 4703 
Q 3103 4656 3366 4563 
z
" transform="scale(0.015625)"/>
       </defs>
       <use xlink:href="#DejaVuSans-30"/>
       <use xlink:href="#DejaVuSans-2e" x="63.623047"/>
       <use xlink:href="#DejaVuSans-36" x="95.410156"/>
      </g>
     </g>
    </g>
    <g id="xtick_5">
     <g id="line2d_5">
      <g>
       <use xlink:href="#m1dfbdce03e" x="346.697143" y="307.584" style="stroke: #000000; stroke-width: 0.8"/>
      </g>
     </g>
     <g id="text_5">
      <!-- 0.8 -->
      <g transform="translate(338.74558 322.182437)scale(0.1 -0.1)">
       <defs>
        <path id="DejaVuSans-38" d="M 2034 2216 
Q 1584 2216 1326 1975 
Q 1069 1734 1069 1313 
Q 1069 891 1326 650 
Q 1584 409 2034 409 
Q 2484 409 2743 651 
Q 3003 894 3003 1313 
Q 3003 1734 2745 1975 
Q 2488 2216 2034 2216 
z
M 1403 2484 
Q 997 2584 770 2862 
Q 544 3141 544 3541 
Q 544 4100 942 4425 
Q 1341 4750 2034 4750 
Q 2731 4750 3128 4425 
Q 3525 4100 3525 3541 
Q 3525 3141 3298 2862 
Q 3072 2584 2669 2484 
Q 3125 2378 3379 2068 
Q 3634 1759 3634 1313 
Q 3634 634 3220 271 
Q 2806 -91 2034 -91 
Q 1263 -91 848 271 
Q 434 634 434 1313 
Q 434 1759 690 2068 
Q 947 2378 1403 2484 
z
M 1172 3481 
Q 1172 3119 1398 2916 
Q 1625 2713 2034 2713 
Q 2441 2713 2670 2916 
Q 2900 3119 2900 3481 
Q 2900 3844 2670 4047 
Q 2441 4250 2034 4250 
Q 1625 4250 1398 4047 
Q 1172 3844 1172 3481 
z
" transform="scale(0.015625)"/>
       </defs>
       <use xlink:href="#DejaVuSans-30"/>
       <use xlink:href="#DejaVuSans-2e" x="63.623047"/>
       <use xlink:href="#DejaVuSans-38" x="95.410156"/>
      </g>
     </g>
    </g>
    <g id="xtick_6">
     <g id="line2d_6">
      <g>
       <use xlink:href="#m1dfbdce03e" x="414.72" y="307.584" style="stroke: #000000; stroke-width: 0.8"/>
      </g>
     </g>
     <g id="text_6">
      <!-- 1.0 -->
      <g transform="translate(406.768438 322.182437)scale(0.1 -0.1)">
       <defs>
        <path id="DejaVuSans-31" d="M 794 531 
L 1825 531 
L 1825 4091 
L 703 3866 
L 703 4441 
L 1819 4666 
L 2450 4666 
L 2450 531 
L 3481 531 
L 3481 0 
L 794 0 
L 794 531 
z
" transform="scale(0.015625)"/>
       </defs>
       <use xlink:href="#DejaVuSans-31"/>
       <use xlink:href="#DejaVuSans-2e" x="63.623047"/>
       <use xlink:href="#DejaVuSans-30" x="95.410156"/>
      </g>
     </g>
    </g>
    <g id="text_7">
     <!-- False Positive Rate -->
     <g transform="translate(189.693594 335.860562)scale(0.1 -0.1)">
      <defs>
       <path id="DejaVuSans-46" d="M 628 4666 
L 3309 4666 
L 3309 4134 
L 1259 4134 
L 1259 2759 
L 3109 2759 
L 3109 2228 
L 1259 2228 
L 1259 0 
L 628 0 
L 628 4666 
z
" transform="scale(0.015625)"/>
       <path id="DejaVuSans-61" d="M 2194 1759 
Q 1497 1759 1228 1600 
Q 959 1441 959 1056 
Q 959 750 1161 570 
Q 1363 391 1709 391 
Q 2188 391 2477 730 
Q 2766 1069 2766 1631 
L 2766 1759 
L 2194 1759 
z
M 3341 1997 
L 3341 0 
L 2766 0 
L 2766 531 
Q 2569 213 2275 61 
Q 1981 -91 1556 -91 
Q 1019 -91 701 211 
Q 384 513 384 1019 
Q 384 1609 779 1909 
Q 1175 2209 1959 2209 
L 2766 2209 
L 2766 2266 
Q 2766 2663 2505 2880 
Q 2244 3097 1772 3097 
Q 1472 3097 1187 3025 
Q 903 2953 641 2809 
L 641 3341 
Q 956 3463 1253 3523 
Q 1550 3584 1831 3584 
Q 2591 3584 2966 3190 
Q 3341 2797 3341 1997 
z
" transform="scale(0.015625)"/>
       <path id="DejaVuSans-6c" d="M 603 4863 
L 1178 4863 
L 1178 0 
L 603 0 
L 603 4863 
z
" transform="scale(0.015625)"/>
       <path id="DejaVuSans-73" d="M 2834 3397 
L 2834 2853 
Q 2591 2978 2328 3040 
Q 2066 3103 1784 3103 
Q 1356 3103 1142 2972 
Q 928 2841 928 2578 
Q 928 2378 1081 2264 
Q 1234 2150 1697 2047 
L 1894 2003 
Q 2506 1872 2764 1633 
Q 3022 1394 3022 966 
Q 3022 478 2636 193 
Q 2250 -91 1575 -91 
Q 1294 -91 989 -36 
Q 684 19 347 128 
L 347 722 
Q 666 556 975 473 
Q 1284 391 1588 391 
Q 1994 391 2212 530 
Q 2431 669 2431 922 
Q 2431 1156 2273 1281 
Q 2116 1406 1581 1522 
L 1381 1569 
Q 847 1681 609 1914 
Q 372 2147 372 2553 
Q 372 3047 722 3315 
Q 1072 3584 1716 3584 
Q 2034 3584 2315 3537 
Q 2597 3491 2834 3397 
z
" transform="scale(0.015625)"/>
       <path id="DejaVuSans-65" d="M 3597 1894 
L 3597 1613 
L 953 1613 
Q 991 1019 1311 708 
Q 1631 397 2203 397 
Q 2534 397 2845 478 
Q 3156 559 3463 722 
L 3463 178 
Q 3153 47 2828 -22 
Q 2503 -91 2169 -91 
Q 1331 -91 842 396 
Q 353 884 353 1716 
Q 353 2575 817 3079 
Q 1281 3584 2069 3584 
Q 2775 3584 3186 3129 
Q 3597 2675 3597 1894 
z
M 3022 2063 
Q 3016 2534 2758 2815 
Q 2500 3097 2075 3097 
Q 1594 3097 1305 2825 
Q 1016 2553 972 2059 
L 3022 2063 
z
" transform="scale(0.015625)"/>
       <path id="DejaVuSans-20" transform="scale(0.015625)"/>
       <path id="DejaVuSans-50" d="M 1259 4147 
L 1259 2394 
L 2053 2394 
Q 2494 2394 2734 2622 
Q 2975 2850 2975 3272 
Q 2975 3691 2734 3919 
Q 2494 4147 2053 4147 
L 1259 4147 
z
M 628 4666 
L 2053 4666 
Q 2838 4666 3239 4311 
Q 3641 3956 3641 3272 
Q 3641 2581 3239 2228 
Q 2838 1875 2053 1875 
L 1259 1875 
L 1259 0 
L 628 0 
L 628 4666 
z
" transform="scale(0.015625)"/>
       <path id="DejaVuSans-6f" d="M 1959 3097 
Q 1497 3097 1228 2736 
Q 959 2375 959 1747 
Q 959 1119 1226 758 
Q 1494 397 1959 397 
Q 2419 397 2687 759 
Q 2956 1122 2956 1747 
Q 2956 2369 2687 2733 
Q 2419 3097 1959 3097 
z
M 1959 3584 
Q 2709 3584 3137 3096 
Q 3566 2609 3566 1747 
Q 3566 888 3137 398 
Q 2709 -91 1959 -91 
Q 1206 -91 779 398 
Q 353 888 353 1747 
Q 353 2609 779 3096 
Q 1206 3584 1959 3584 
z
" transform="scale(0.015625)"/>
       <path id="DejaVuSans-69" d="M 603 3500 
L 1178 3500 
L 1178 0 
L 603 0 
L 603 3500 
z
M 603 4863 
L 1178 4863 
L 1178 4134 
L 603 4134 
L 603 4863 
z
" transform="scale(0.015625)"/>
       <path id="DejaVuSans-74" d="M 1172 4494 
L 1172 3500 
L 2356 3500 
L 2356 3053 
L 1172 3053 
L 1172 1153 
Q 1172 725 1289 603 
Q 1406 481 1766 481 
L 2356 481 
L 2356 0 
L 1766 0 
Q 1100 0 847 248 
Q 594 497 594 1153 
L 594 3053 
L 172 3053 
L 172 3500 
L 594 3500 
L 594 4494 
L 1172 4494 
z
" transform="scale(0.015625)"/>
       <path id="DejaVuSans-76" d="M 191 3500 
L 800 3500 
L 1894 563 
L 2988 3500 
L 3597 3500 
L 2284 0 
L 1503 0 
L 191 3500 
z
" transform="scale(0.015625)"/>
       <path id="DejaVuSans-52" d="M 2841 2188 
Q 3044 2119 3236 1894 
Q 3428 1669 3622 1275 
L 4263 0 
L 3584 0 
L 2988 1197 
Q 2756 1666 2539 1819 
Q 2322 1972 1947 1972 
L 1259 1972 
L 1259 0 
L 628 0 
L 628 4666 
L 2053 4666 
Q 2853 4666 3247 4331 
Q 3641 3997 3641 3322 
Q 3641 2881 3436 2590 
Q 3231 2300 2841 2188 
z
M 1259 4147 
L 1259 2491 
L 2053 2491 
Q 2509 2491 2742 2702 
Q 2975 2913 2975 3322 
Q 2975 3731 2742 3939 
Q 2509 4147 2053 4147 
L 1259 4147 
z
" transform="scale(0.015625)"/>
      </defs>
      <use xlink:href="#DejaVuSans-46"/>
      <use xlink:href="#DejaVuSans-61" x="48.394531"/>
      <use xlink:href="#DejaVuSans-6c" x="109.673828"/>
      <use xlink:href="#DejaVuSans-73" x="137.457031"/>
      <use xlink:href="#DejaVuSans-65" x="189.556641"/>
      <use xlink:href="#DejaVuSans-20" x="251.080078"/>
      <use xlink:href="#DejaVuSans-50" x="282.867188"/>
      <use xlink:href="#DejaVuSans-6f" x="339.544922"/>
      <use xlink:href="#DejaVuSans-73" x="400.726562"/>
      <use xlink:href="#DejaVuSans-69" x="452.826172"/>
      <use xlink:href="#DejaVuSans-74" x="480.609375"/>
      <use xlink:href="#DejaVuSans-69" x="519.818359"/>
      <use xlink:href="#DejaVuSans-76" x="547.601562"/>
      <use xlink:href="#DejaVuSans-65" x="606.78125"/>
      <use xlink:href="#DejaVuSans-20" x="668.304688"/>
      <use xlink:href="#DejaVuSans-52" x="700.091797"/>
      <use xlink:href="#DejaVuSans-61" x="767.324219"/>
      <use xlink:href="#DejaVuSans-74" x="828.603516"/>
      <use xlink:href="#DejaVuSans-65" x="867.8125"/>
     </g>
    </g>
   </g>
   <g id="matplotlib.axis_2">
    <g id="ytick_1">
     <g id="line2d_7">
      <defs>
       <path id="m7150d77e14" d="M 0 0 
L -3.5 0 
" style="stroke: #000000; stroke-width: 0.8"/>
      </defs>
      <g>
       <use xlink:href="#m7150d77e14" x="57.6" y="307.584" style="stroke: #000000; stroke-width: 0.8"/>
      </g>
     </g>
     <g id="text_8">
      <!-- 0.0 -->
      <g transform="translate(34.696875 311.383219)scale(0.1 -0.1)">
       <use xlink:href="#DejaVuSans-30"/>
       <use xlink:href="#DejaVuSans-2e" x="63.623047"/>
       <use xlink:href="#DejaVuSans-30" x="95.410156"/>
      </g>
     </g>
    </g>
    <g id="ytick_2">
     <g id="line2d_8">
      <g>
       <use xlink:href="#m7150d77e14" x="57.6" y="256.896" style="stroke: #000000; stroke-width: 0.8"/>
      </g>
     </g>
     <g id="text_9">
      <!-- 0.2 -->
      <g transform="translate(34.696875 260.695219)scale(0.1 -0.1)">
       <use xlink:href="#DejaVuSans-30"/>
       <use xlink:href="#DejaVuSans-2e" x="63.623047"/>
       <use xlink:href="#DejaVuSans-32" x="95.410156"/>
      </g>
     </g>
    </g>
    <g id="ytick_3">
     <g id="line2d_9">
      <g>
       <use xlink:href="#m7150d77e14" x="57.6" y="206.208" style="stroke: #000000; stroke-width: 0.8"/>
      </g>
     </g>
     <g id="text_10">
      <!-- 0.4 -->
      <g transform="translate(34.696875 210.007219)scale(0.1 -0.1)">
       <use xlink:href="#DejaVuSans-30"/>
       <use xlink:href="#DejaVuSans-2e" x="63.623047"/>
       <use xlink:href="#DejaVuSans-34" x="95.410156"/>
      </g>
     </g>
    </g>
    <g id="ytick_4">
     <g id="line2d_10">
      <g>
       <use xlink:href="#m7150d77e14" x="57.6" y="155.52" style="stroke: #000000; stroke-width: 0.8"/>
      </g>
     </g>
     <g id="text_11">
      <!-- 0.6 -->
      <g transform="translate(34.696875 159.319219)scale(0.1 -0.1)">
       <use xlink:href="#DejaVuSans-30"/>
       <use xlink:href="#DejaVuSans-2e" x="63.623047"/>
       <use xlink:href="#DejaVuSans-36" x="95.410156"/>
      </g>
     </g>
    </g>
    <g id="ytick_5">
     <g id="line2d_11">
      <g>
       <use xlink:href="#m7150d77e14" x="57.6" y="104.832" style="stroke: #000000; stroke-width: 0.8"/>
      </g>
     </g>
     <g id="text_12">
      <!-- 0.8 -->
      <g transform="translate(34.696875 108.631219)scale(0.1 -0.1)">
       <use xlink:href="#DejaVuSans-30"/>
       <use xlink:href="#DejaVuSans-2e" x="63.623047"/>
       <use xlink:href="#DejaVuSans-38" x="95.410156"/>
      </g>
     </g>
    </g>
    <g id="ytick_6">
     <g id="line2d_12">
      <g>
       <use xlink:href="#m7150d77e14" x="57.6" y="54.144" style="stroke: #000000; stroke-width: 0.8"/>
      </g>
     </g>
     <g id="text_13">
      <!-- 1.0 -->
      <g transform="translate(34.696875 57.943219)scale(0.1 -0.1)">
       <use xlink:href="#DejaVuSans-31"/>
       <use xlink:href="#DejaVuSans-2e" x="63.623047"/>
       <use xlink:href="#DejaVuSans-30" x="95.410156"/>
      </g>
     </g>
    </g>
    <g id="text_14">
     <!-- True Positive Rate -->
     <g transform="translate(28.617187 219.057687)rotate(-90)scale(0.1 -0.1)">
      <defs>
       <path id="DejaVuSans-54" d="M -19 4666 
L 3928 4666 
L 3928 4134 
L 2272 4134 
L 2272 0 
L 1638 0 
L 1638 4134 
L -19 4134 
L -19 4666 
z
" transform="scale(0.015625)"/>
       <path id="DejaVuSans-72" d="M 2631 2963 
Q 2534 3019 2420 3045 
Q 2306 3072 2169 3072 
Q 1681 3072 1420 2755 
Q 1159 2438 1159 1844 
L 1159 0 
L 581 0 
L 581 3500 
L 1159 3500 
L 1159 2956 
Q 1341 3275 1631 3429 
Q 1922 3584 2338 3584 
Q 2397 3584 2469 3576 
Q 2541 3569 2628 3553 
L 2631 2963 
z
" transform="scale(0.015625)"/>
       <path id="DejaVuSans-75" d="M 544 1381 
L 544 3500 
L 1119 3500 
L 1119 1403 
Q 1119 906 1312 657 
Q 1506 409 1894 409 
Q 2359 409 2629 706 
Q 2900 1003 2900 1516 
L 2900 3500 
L 3475 3500 
L 3475 0 
L 2900 0 
L 2900 538 
Q 2691 219 2414 64 
Q 2138 -91 1772 -91 
Q 1169 -91 856 284 
Q 544 659 544 1381 
z
M 1991 3584 
L 1991 3584 
z
" transform="scale(0.015625)"/>
      </defs>
      <use xlink:href="#DejaVuSans-54"/>
      <use xlink:href="#DejaVuSans-72" x="46.333984"/>
      <use xlink:href="#DejaVuSans-75" x="87.447266"/>
      <use xlink:href="#DejaVuSans-65" x="150.826172"/>
      <use xlink:href="#DejaVuSans-20" x="212.349609"/>
      <use xlink:href="#DejaVuSans-50" x="244.136719"/>
      <use xlink:href="#DejaVuSans-6f" x="300.814453"/>
      <use xlink:href="#DejaVuSans-73" x="361.996094"/>
      <use xlink:href="#DejaVuSans-69" x="414.095703"/>
      <use xlink:href="#DejaVuSans-74" x="441.878906"/>
      <use xlink:href="#DejaVuSans-69" x="481.087891"/>
      <use xlink:href="#DejaVuSans-76" x="508.871094"/>
      <use xlink:href="#DejaVuSans-65" x="568.050781"/>
      <use xlink:href="#DejaVuSans-20" x="629.574219"/>
      <use xlink:href="#DejaVuSans-52" x="661.361328"/>
      <use xlink:href="#DejaVuSans-61" x="728.59375"/>
      <use xlink:href="#DejaVuSans-74" x="789.873047"/>
      <use xlink:href="#DejaVuSans-65" x="829.082031"/>
     </g>
    </g>
   </g>
   <g id="line2d_13">
    <path d="M 74.605714 307.584 
L 75.339351 304.13785 
L 75.365269 304.030223 
L 75.512983 303.423783 
L 75.537948 303.314086 
L 75.699554 302.686949 
L 75.728002 302.577251 
L 75.849674 302.045323 
L 75.874016 301.935626 
L 76.021731 301.325047 
L 76.050303 301.21535 
L 76.170896 300.739305 
L 76.311063 300.259121 
L 76.33806 300.149423 
L 76.460187 299.598867 
L 76.48283 299.49124 
L 76.48283 299.48917 
L 76.593802 299.017265 
L 76.593926 299.017265 
L 76.715556 298.489476 
L 76.745954 298.379779 
L 76.856967 297.951339 
L 76.879402 297.841641 
L 76.999788 297.378015 
L 77.032466 297.268318 
L 77.143231 296.864715 
L 77.143521 296.864715 
L 77.171513 296.755017 
L 77.282485 296.328647 
L 77.282568 296.328647 
L 77.310768 296.21895 
L 77.431195 295.747045 
L 77.47254 295.637347 
L 77.60404 295.130256 
L 77.634976 295.020559 
L 77.746031 294.565212 
L 77.775599 294.455515 
L 77.895736 293.996028 
L 77.923811 293.886331 
L 78.043741 293.437193 
L 78.072894 293.327495 
L 78.182497 292.901125 
L 78.183949 292.901125 
L 78.211609 292.791428 
L 78.322125 292.317453 
L 78.322623 292.317453 
L 78.348997 292.207756 
L 78.468803 291.766897 
L 78.501315 291.657199 
L 78.622405 291.150108 
L 78.650107 291.040411 
L 78.760913 290.560227 
L 78.761079 290.560227 
L 78.788449 290.45053 
L 78.899339 290.028299 
L 78.899463 290.028299 
L 78.928492 289.918601 
L 79.039505 289.512928 
L 79.067414 289.403231 
L 79.188008 288.927186 
L 79.219276 288.817489 
L 79.33962 288.333165 
L 79.37462 288.223468 
L 79.485012 287.78054 
L 79.485675 287.78054 
L 79.51205 287.670842 
L 79.622483 287.184449 
L 79.62269 287.184449 
L 79.650185 287.074752 
L 79.760784 286.644242 
L 79.76124 286.644242 
L 79.786993 286.534544 
L 79.89784 286.079197 
L 79.897882 286.079197 
L 79.924713 285.9695 
L 80.03386 285.503804 
L 80.035768 285.503804 
L 80.058244 285.394107 
L 80.169341 284.947039 
L 80.199365 284.837341 
L 80.310047 284.392343 
L 80.31042 284.392343 
L 80.337831 284.282646 
L 80.448887 283.794183 
L 80.480155 283.684485 
L 80.615304 283.078046 
L 80.644954 282.968348 
L 80.755222 282.52335 
L 80.755636 282.52335 
L 80.787526 282.413653 
L 80.89854 281.933469 
L 80.92873 281.823771 
L 81.039246 281.430517 
L 81.039744 281.430517 
L 81.063132 281.32082 
L 81.173814 280.89031 
L 81.174105 280.89031 
L 81.20529 280.780612 
L 81.315806 280.383219 
L 81.316221 280.383219 
L 81.345747 280.273521 
L 81.456678 279.888546 
L 81.485727 279.778849 
L 81.600929 279.369036 
L 81.629688 279.259339 
L 81.739665 278.810201 
L 81.740785 278.810201 
L 81.769565 278.700504 
L 81.880579 278.255506 
L 81.907783 278.145808 
L 82.018838 277.713229 
L 82.041605 277.603531 
L 82.15266 277.191649 
L 82.177376 277.081952 
L 82.297761 276.612117 
L 82.323638 276.502419 
L 82.434528 276.094677 
L 82.434694 276.094677 
L 82.463183 275.987049 
L 82.574072 275.535842 
L 82.57428 275.535842 
L 82.599618 275.426144 
L 82.710631 274.94596 
L 82.746171 274.836263 
L 82.857226 274.318823 
L 82.88725 274.209126 
L 82.998015 273.766197 
L 82.998305 273.766197 
L 83.017547 273.6565 
L 83.127358 273.215641 
L 83.128519 273.215641 
L 83.151991 273.108013 
L 83.260226 272.658876 
L 83.263088 272.658876 
L 83.290914 272.549178 
L 83.400891 272.097971 
L 83.401927 272.097971 
L 83.42627 271.988273 
L 83.536994 271.572252 
L 83.537367 271.572252 
L 83.565193 271.46152 
L 83.676289 271.023765 
L 83.705816 270.914068 
L 83.82558 270.481488 
L 83.852742 270.371791 
L 83.963383 269.94956 
L 83.963548 269.94956 
L 83.98984 269.839863 
L 84.100647 269.450748 
L 84.100937 269.450748 
L 84.12839 269.341051 
L 84.23903 268.889843 
L 84.239445 268.889843 
L 84.267976 268.780146 
L 84.378119 268.341357 
L 84.378948 268.341357 
L 84.407023 268.23166 
L 84.518078 267.79908 
L 84.551378 267.689383 
L 84.662226 267.300268 
L 84.662309 267.300268 
L 84.690716 267.190571 
L 84.801688 266.714526 
L 84.826196 266.604829 
L 84.937252 266.215714 
L 84.967649 266.106017 
L 85.086998 265.673437 
L 85.126933 265.563739 
L 85.246987 265.108392 
L 85.280204 264.998695 
L 85.391259 264.557836 
L 85.418754 264.448139 
L 85.529353 264.01349 
L 85.52985 264.01349 
L 85.565431 263.903792 
L 85.676528 263.425678 
L 85.707505 263.31598 
L 85.818353 262.864773 
L 85.818436 262.864773 
L 85.847714 262.755076 
L 85.958354 262.281101 
L 85.95881 262.281101 
L 85.991032 262.171403 
L 86.101217 261.765731 
L 86.102087 261.765731 
L 86.132153 261.656033 
L 86.242959 261.237942 
L 86.273647 261.128245 
L 86.384536 260.712223 
L 86.427374 260.602526 
L 86.538097 260.190643 
L 86.538429 260.190643 
L 86.565218 260.080946 
L 86.674366 259.662855 
L 86.676025 259.662855 
L 86.71144 259.553157 
L 86.821168 259.18267 
L 86.822205 259.18267 
L 86.848289 259.072973 
L 86.959095 258.659021 
L 86.959386 258.659021 
L 86.98717 258.549324 
L 87.098018 258.195395 
L 87.134387 258.085698 
L 87.245442 257.692444 
L 87.27472 257.584816 
L 87.27472 257.582746 
L 87.385775 257.185352 
L 87.414803 257.075655 
L 87.525527 256.674122 
L 87.525859 256.674122 
L 87.55298 256.564425 
L 87.664076 256.235333 
L 87.692276 256.127705 
L 87.692276 256.125635 
L 87.811708 255.709614 
L 87.845671 255.599917 
L 87.95627 255.239778 
L 87.956768 255.239778 
L 87.982935 255.130081 
L 88.093783 254.693362 
L 88.127498 254.583665 
L 88.238138 254.165573 
L 88.238429 254.165573 
L 88.273387 254.055876 
L 88.384111 253.650203 
L 88.38436 253.650203 
L 88.42388 253.540506 
L 88.533733 253.180367 
L 88.534852 253.180367 
L 88.563425 253.07067 
L 88.672448 252.691904 
L 88.674521 252.691904 
L 88.70015 252.582207 
L 88.818545 252.201371 
L 88.847657 252.091674 
L 88.958339 251.686001 
L 88.958463 251.686001 
L 88.988404 251.576304 
L 89.108043 251.149933 
L 89.144246 251.040236 
L 89.254596 250.6594 
L 89.255301 250.6594 
L 89.290219 250.549703 
L 89.400693 250.216472 
L 89.401315 250.216472 
L 89.430676 250.106774 
L 89.548615 249.761125 
L 89.577934 249.651427 
L 89.688948 249.28301 
L 89.689031 249.28301 
L 89.716566 249.175383 
L 89.826626 248.813175 
L 89.827497 248.813175 
L 89.855074 248.703477 
L 89.965632 248.370246 
L 89.966171 248.370246 
L 89.995863 248.260549 
L 90.10584 247.852806 
L 90.10696 247.852806 
L 90.141379 247.743109 
L 90.252435 247.380901 
L 90.284408 247.271204 
L 90.395214 246.900717 
L 90.395504 246.900717 
L 90.429592 246.791019 
L 90.54044 246.447439 
L 90.574984 246.337742 
L 90.700678 245.958976 
L 90.738167 245.849279 
L 90.857433 245.441536 
L 90.900893 245.331839 
L 91.01933 244.965491 
L 91.048109 244.855794 
L 91.158999 244.485307 
L 91.186908 244.37561 
L 91.298004 244.017541 
L 91.331387 243.907844 
L 91.440991 243.489753 
L 91.442443 243.489753 
L 91.483954 243.380056 
L 91.594055 243.032336 
L 91.59505 243.032336 
L 91.633368 242.922639 
L 91.633368 242.921604 
L 91.760348 242.525245 
L 91.800407 242.415548 
L 91.911255 242.086456 
L 91.945301 241.976758 
L 92.055859 241.591783 
L 92.056315 241.591783 
L 92.097785 241.482086 
L 92.208715 241.117808 
L 92.20884 241.117808 
L 92.250807 241.008111 
L 92.250807 241.007076 
L 92.37845 240.592089 
L 92.416083 240.482392 
L 92.530394 240.149161 
L 92.563445 240.039463 
L 92.674044 239.668976 
L 92.674376 239.668976 
L 92.709708 239.559279 
L 92.819934 239.215699 
L 92.820266 239.215699 
L 92.861403 239.108072 
L 92.971173 238.795538 
L 92.9725 238.795538 
L 93.011398 238.68791 
L 93.122163 238.325702 
L 93.122371 238.325702 
L 93.155795 238.216005 
L 93.265938 237.862076 
L 93.266228 237.862076 
L 93.297413 237.752379 
L 93.40822 237.388101 
L 93.408344 237.388101 
L 93.443054 237.278404 
L 93.443054 237.277369 
L 93.569909 236.88515 
L 93.596989 236.775452 
L 93.714845 236.438082 
L 93.747316 236.328384 
L 93.858246 236.009641 
L 93.858412 236.009641 
L 93.899467 235.899944 
L 94.010522 235.583271 
L 94.010564 235.583271 
L 94.039095 235.473574 
L 94.149155 235.171389 
L 94.150191 235.171389 
L 94.187597 235.061691 
L 94.297159 234.761576 
L 94.297989 234.761576 
L 94.338131 234.651879 
L 94.449103 234.291741 
L 94.490531 234.182044 
L 94.601172 233.877789 
L 94.601628 233.877789 
L 94.631984 233.770161 
L 94.74308 233.44107 
L 94.780818 233.331372 
L 94.891914 233.025048 
L 94.925878 232.915351 
L 95.035896 232.590398 
L 95.036684 232.590398 
L 95.076163 232.480701 
L 95.195222 232.070889 
L 95.226822 231.961191 
L 95.336052 231.654867 
L 95.337918 231.654867 
L 95.37238 231.54517 
L 95.48302 231.224357 
L 95.483435 231.224357 
L 95.526522 231.11466 
L 95.637245 230.797987 
L 95.637494 230.797987 
L 95.671374 230.690359 
L 95.782347 230.309523 
L 95.782471 230.309523 
L 95.817015 230.199826 
L 95.92778 229.916269 
L 95.92807 229.916269 
L 95.967466 229.806572 
L 96.077361 229.471271 
L 96.07848 229.471271 
L 96.123848 229.361573 
L 96.234654 229.0449 
L 96.234945 229.0449 
L 96.284749 228.935203 
L 96.395431 228.643367 
L 96.395763 228.643367 
L 96.439721 228.533669 
L 96.549988 228.219066 
L 96.599669 228.109369 
L 96.710682 227.782347 
L 96.710765 227.782347 
L 96.745475 227.672649 
L 96.855991 227.335279 
L 96.905547 227.225581 
L 97.015649 226.942024 
L 97.01652 226.942024 
L 97.059814 226.832327 
L 97.170371 226.492886 
L 97.17091 226.492886 
L 97.219471 226.383189 
L 97.330112 226.095493 
L 97.330568 226.095493 
L 97.374484 225.985795 
L 97.484503 225.708448 
L 97.485373 225.708448 
L 97.527672 225.59875 
L 97.638769 225.329682 
L 97.682436 225.218949 
L 97.793077 224.928148 
L 97.838486 224.818451 
L 97.953688 224.510057 
L 97.993913 224.400359 
L 98.104678 224.085756 
L 98.151041 223.976059 
L 98.262138 223.675944 
L 98.302239 223.566246 
L 98.412465 223.280619 
L 98.413128 223.280619 
L 98.455676 223.170922 
L 98.565985 222.92876 
L 98.566524 222.92876 
L 98.605878 222.819063 
L 98.722947 222.521018 
L 98.757532 222.41132 
L 98.868422 222.142252 
L 98.868587 222.142252 
L 98.919139 222.032554 
L 99.030111 221.740718 
L 99.030235 221.740718 
L 99.068512 221.631021 
L 99.179567 221.343324 
L 99.219875 221.233627 
L 99.330599 220.958349 
L 99.330931 220.958349 
L 99.369248 220.848652 
L 99.480055 220.60442 
L 99.480304 220.60442 
L 99.530482 220.494723 
L 99.641247 220.202887 
L 99.64133 220.202887 
L 99.68396 220.09319 
L 99.79373 219.803423 
L 99.795057 219.803423 
L 99.830928 219.693726 
L 99.940366 219.447425 
L 99.941983 219.447425 
L 99.988761 219.337727 
L 100.097245 219.041752 
L 100.099816 219.041752 
L 100.156546 218.932054 
L 100.266689 218.70852 
L 100.267477 218.70852 
L 100.303721 218.598823 
L 100.414445 218.311127 
L 100.414818 218.311127 
L 100.460227 218.201429 
L 100.571158 217.907523 
L 100.612669 217.797826 
L 100.728866 217.541176 
L 100.774856 217.431479 
L 100.88363 217.125154 
L 100.885745 217.125154 
L 100.935135 217.015457 
L 101.043454 216.767086 
L 101.046191 216.767086 
L 101.0899 216.657389 
L 101.200955 216.413157 
L 101.245037 216.30346 
L 101.361525 216.032321 
L 101.400381 215.922624 
L 101.510483 215.653555 
L 101.511312 215.653555 
L 101.556182 215.543858 
L 101.665869 215.237533 
L 101.667279 215.237533 
L 101.715674 215.127836 
L 101.825029 214.846349 
L 101.82677 214.846349 
L 101.872885 214.736652 
L 101.989248 214.471722 
L 102.03503 214.362025 
L 102.145671 214.105375 
L 102.146085 214.105375 
L 102.196616 213.995678 
L 102.310346 213.7204 
L 102.361188 213.610702 
L 102.471579 213.310587 
L 102.472284 213.310587 
L 102.520264 213.20089 
L 102.630781 212.923542 
L 102.631361 212.923542 
L 102.686142 212.813845 
L 102.796119 212.536497 
L 102.797198 212.536497 
L 102.849159 212.4268 
L 102.958514 212.128754 
L 102.960131 212.128754 
L 103.026192 212.019057 
L 103.026192 212.018022 
L 103.147241 211.770686 
L 103.197212 211.660989 
L 103.307562 211.381571 
L 103.307977 211.381571 
L 103.353096 211.271874 
L 103.463695 210.994526 
L 103.464151 210.994526 
L 103.505247 210.884829 
L 103.614602 210.628179 
L 103.616344 210.628179 
L 103.666605 210.518481 
L 103.776914 210.253552 
L 103.77708 210.253552 
L 103.822157 210.143855 
L 103.932839 209.883065 
L 103.933046 209.883065 
L 103.974972 209.773368 
L 104.085447 209.524997 
L 104.08582 209.524997 
L 104.142011 209.4153 
L 104.250536 209.160719 
L 104.252942 209.160719 
L 104.308428 209.051022 
L 104.308428 209.049987 
L 104.429933 208.790232 
L 104.479904 208.680535 
L 104.590171 208.405257 
L 104.591001 208.405257 
L 104.651546 208.29556 
L 104.761067 208.086514 
L 104.761814 208.086514 
L 104.812904 207.976817 
L 104.923835 207.724306 
L 104.978657 207.614609 
L 105.095104 207.34761 
L 105.146733 207.237912 
L 105.25783 207.00403 
L 105.312196 206.894332 
L 105.42321 206.65217 
L 105.474757 206.542473 
L 105.585107 206.30859 
L 105.585833 206.30859 
L 105.645072 206.198893 
L 105.756044 205.936034 
L 105.808254 205.826336 
L 105.917236 205.577965 
L 105.919185 205.577965 
L 105.973095 205.468268 
L 106.080584 205.246804 
L 106.08415 205.246804 
L 106.138683 205.137106 
L 106.24837 204.882526 
L 106.249738 204.882526 
L 106.31132 204.772829 
L 106.419348 204.507899 
L 106.422375 204.507899 
L 106.463264 204.398202 
L 106.573739 204.201575 
L 106.574361 204.201575 
L 106.623461 204.091878 
L 106.734184 203.876623 
L 106.734475 203.876623 
L 106.780174 203.766925 
L 106.889736 203.516485 
L 106.891271 203.516485 
L 106.946301 203.406787 
L 107.055365 203.201881 
L 107.057397 203.201881 
L 107.124205 203.094254 
L 107.233352 202.878999 
L 107.234721 202.878999 
L 107.284401 202.769301 
L 107.394295 202.512651 
L 107.395042 202.512651 
L 107.447045 202.402954 
L 107.558141 202.17942 
L 107.6281 202.068688 
L 107.737828 201.821351 
L 107.739155 201.821351 
L 107.809529 201.711654 
L 107.924565 201.515027 
L 107.980176 201.40533 
L 108.091024 201.188005 
L 108.091231 201.188005 
L 108.143815 201.078308 
L 108.25035 200.863053 
L 108.254745 200.863053 
L 108.307038 200.753355 
L 108.417928 200.550519 
L 108.418094 200.550519 
L 108.469557 200.440822 
L 108.579783 200.252474 
L 108.580239 200.252474 
L 108.629422 200.142776 
L 108.740394 199.873708 
L 108.803096 199.76401 
L 108.910668 199.546686 
L 108.914151 199.546686 
L 108.986764 199.436988 
L 108.986764 199.435953 
L 109.105906 199.236222 
L 109.16442 199.126524 
L 109.275475 198.913339 
L 109.327021 198.803642 
L 109.43762 198.588387 
L 109.438118 198.588387 
L 109.503515 198.47869 
L 109.614032 198.267574 
L 109.614529 198.267574 
L 109.684861 198.157877 
L 109.794092 197.984017 
L 109.795958 197.984017 
L 109.857623 197.87432 
L 109.968513 197.710809 
L 109.968554 197.710809 
L 110.022962 197.601111 
L 110.133312 197.423112 
L 110.134038 197.423112 
L 110.219237 197.313415 
L 110.327348 197.139555 
L 110.330168 197.139555 
L 110.401205 197.029858 
L 110.514043 196.8353 
L 110.588564 196.725603 
L 110.698956 196.524836 
L 110.699536 196.524836 
L 110.768583 196.415139 
L 110.877316 196.253698 
L 110.879514 196.253698 
L 110.952085 196.144001 
L 111.061814 195.953583 
L 111.063058 195.953583 
L 111.127709 195.843886 
L 111.237976 195.6307 
L 111.238805 195.6307 
L 111.315731 195.521003 
L 111.430664 195.328515 
L 111.496538 195.218818 
L 111.607635 195.051168 
L 111.668968 194.94147 
L 111.778447 194.732425 
L 111.779401 194.732425 
L 111.861179 194.622727 
L 111.972276 194.412647 
L 112.091708 194.206706 
L 112.148438 194.097008 
L 112.258954 193.929358 
L 112.259535 193.929358 
L 112.336544 193.819661 
L 112.445816 193.623033 
L 112.447474 193.623033 
L 112.523778 193.513336 
L 112.632677 193.333267 
L 112.634709 193.333267 
L 112.698613 193.22357 
L 112.809586 193.031082 
L 112.80971 193.031082 
L 112.870339 192.921385 
L 112.979776 192.726827 
L 112.981186 192.726827 
L 113.047579 192.61713 
L 113.157598 192.451549 
L 113.158551 192.451549 
L 113.22793 192.341852 
L 113.336621 192.170062 
L 113.338819 192.170062 
L 113.414211 192.060365 
L 113.522239 191.863738 
L 113.525183 191.863738 
L 113.595515 191.75404 
L 113.702838 191.571902 
L 113.70628 191.571902 
L 113.793532 191.462204 
L 113.901974 191.317321 
L 113.904546 191.317321 
L 114.001252 191.207624 
L 114.108783 191.050322 
L 114.112349 191.050322 
L 114.17982 190.940625 
L 114.288346 190.775044 
L 114.290917 190.775044 
L 114.365354 190.665347 
L 114.472802 190.470789 
L 114.476451 190.470789 
L 114.548193 190.361092 
L 114.659166 190.181023 
L 114.65929 190.181023 
L 114.735469 190.071326 
L 114.849759 189.905745 
L 114.917645 189.796048 
L 115.028285 189.632537 
L 115.028493 189.632537 
L 115.104133 189.52284 
L 115.213944 189.357259 
L 115.214815 189.357259 
L 115.278222 189.247561 
L 115.387618 189.09233 
L 115.389277 189.09233 
L 115.470225 188.982632 
L 115.580202 188.8274 
L 115.581322 188.8274 
L 115.648212 188.717703 
L 115.759143 188.554192 
L 115.759268 188.554192 
L 115.843285 188.444495 
L 115.952432 188.274774 
L 115.954381 188.274774 
L 116.040555 188.165077 
L 116.14962 188.020194 
L 116.151486 188.020194 
L 116.236664 187.909462 
L 116.347222 187.755265 
L 116.347761 187.755265 
L 116.420954 187.645568 
L 116.531885 187.457219 
L 116.53201 187.457219 
L 116.601222 187.346487 
L 116.71207 187.217127 
L 116.797373 187.10743 
L 116.905297 186.968756 
L 116.908096 186.968756 
L 116.975111 186.859059 
L 117.087742 186.703827 
L 117.169934 186.59413 
L 117.279124 186.436828 
L 117.281031 186.436828 
L 117.350285 186.327131 
L 117.461133 186.16155 
L 117.461382 186.16155 
L 117.543035 186.051853 
L 117.653966 185.894551 
L 117.654008 185.894551 
L 117.726579 185.784854 
L 117.835229 185.656528 
L 117.837593 185.656528 
L 117.943423 185.546831 
L 118.051534 185.424715 
L 118.054478 185.424715 
L 118.149526 185.315018 
L 118.256476 185.186693 
L 118.260623 185.186693 
L 118.357537 185.075961 
L 118.46627 184.932113 
L 118.468634 184.932113 
L 118.538717 184.822415 
L 118.649358 184.669253 
L 118.649731 184.669253 
L 118.753902 184.559556 
L 118.864045 184.398115 
L 118.864999 184.398115 
L 118.949514 184.288417 
L 119.055261 184.160092 
L 119.060569 184.160092 
L 119.176683 184.050395 
L 119.287407 183.888954 
L 119.28778 183.888954 
L 119.372212 183.779256 
L 119.372212 183.778222 
L 119.487704 183.66335 
L 119.583001 183.555722 
L 119.583001 183.553653 
L 119.696835 183.410839 
L 119.795159 183.301142 
L 119.902938 183.195584 
L 119.906173 183.195584 
L 120.040866 183.085887 
L 120.152419 183.06312 
L 120.321655 182.953422 
L 120.42873 182.901678 
L 120.432711 182.901678 
L 120.638607 182.790946 
L 120.752233 182.707121 
L 120.944071 182.599493 
L 120.944071 182.597424 
L 121.04903 182.527052 
L 121.055043 182.527052 
L 121.183474 182.417355 
L 121.294363 182.313867 
L 121.294571 182.313867 
L 121.481142 182.204169 
L 121.591409 182.090333 
L 121.592073 182.090333 
L 121.780759 181.980635 
L 121.890943 181.887496 
L 121.891275 181.887496 
L 122.030115 181.777799 
L 122.145856 181.663962 
L 122.29668 181.554265 
L 122.409477 181.465265 
L 122.701215 181.355568 
L 122.807169 181.305894 
L 122.81227 181.305894 
L 123.03351 181.196196 
L 123.146804 181.123755 
L 123.450734 181.014058 
L 123.563116 180.970593 
L 123.82201 180.860895 
L 123.931987 180.798803 
L 123.933107 180.798803 
L 124.148251 180.689105 
L 124.255864 180.635292 
L 124.259347 180.635292 
L 124.478348 180.525594 
L 124.588864 180.463502 
L 124.589154 180.463502 
L 124.778006 180.353804 
L 124.890098 180.30413 
L 125.171012 180.194433 
L 125.281487 180.13234 
L 125.282026 180.13234 
L 125.480043 180.022643 
L 125.58861 179.979178 
L 125.591139 179.979178 
L 125.803587 179.86948 
L 125.915762 179.811527 
L 126.105609 179.70183 
L 126.211937 179.645946 
L 126.216706 179.645946 
L 126.458017 179.535214 
L 126.567828 179.478296 
L 126.569114 179.478296 
L 126.777498 179.368599 
L 126.890129 179.292018 
L 127.075124 179.18232 
L 127.181867 179.134716 
L 127.186179 179.134716 
L 127.37951 179.025019 
L 127.487662 178.92567 
L 127.490607 178.92567 
L 127.685555 178.815973 
L 127.793914 178.75802 
L 127.796361 178.75802 
L 128.041155 178.648322 
L 128.147027 178.596578 
L 128.152086 178.596578 
L 128.325636 178.486881 
L 128.434037 178.399951 
L 128.436608 178.399951 
L 128.600288 178.290254 
L 128.600288 178.289219 
L 128.713417 178.228161 
L 128.916451 178.118464 
L 129.022821 178.070859 
L 129.027216 178.070859 
L 129.201844 177.961162 
L 129.201844 177.960127 
L 129.316798 177.865953 
L 129.478985 177.756256 
L 129.584939 177.681745 
L 129.589957 177.681745 
L 129.742109 177.572047 
L 129.8525 177.495466 
L 129.853205 177.495466 
L 130.063414 177.385769 
L 130.167254 177.313327 
L 130.174386 177.313327 
L 130.395294 177.20363 
L 130.505872 177.129119 
L 130.506225 177.129119 
L 130.685124 177.019421 
L 130.794189 176.94491 
L 130.795889 176.94491 
L 130.965375 176.835213 
L 131.07361 176.77105 
L 131.076472 176.77105 
L 131.256117 176.661353 
L 131.365016 176.576493 
L 131.366965 176.576493 
L 131.508127 176.466796 
L 131.615741 176.377796 
L 131.618851 176.377796 
L 131.821346 176.268099 
L 131.925683 176.203936 
L 131.932443 176.203936 
L 132.267101 176.094239 
L 132.378779 176.063192 
L 132.801726 175.95246 
L 132.912574 175.903821 
L 132.912781 175.903821 
L 133.180923 175.794124 
L 133.267926 175.754798 
L 133.291895 175.754798 
L 133.631945 175.645101 
L 133.737816 175.580938 
L 133.743041 175.580938 
L 134.099305 175.471241 
L 134.183903 175.444334 
L 134.210361 175.444334 
L 134.4773 175.334637 
L 134.589475 175.280823 
L 134.823487 175.171126 
L 134.935413 175.129731 
L 135.212636 175.020034 
L 135.320664 174.984848 
L 135.323733 174.984848 
L 135.658682 174.87515 
L 135.768659 174.798569 
L 135.769654 174.798569 
L 136.032488 174.688872 
L 136.141967 174.635058 
L 136.143584 174.635058 
L 136.348568 174.524326 
L 136.456264 174.479826 
L 136.459416 174.479826 
L 136.659506 174.370129 
L 136.766394 174.301827 
L 136.770561 174.301827 
L 136.947346 174.19213 
L 137.059852 174.159014 
L 137.415868 174.049316 
L 137.511621 174.01827 
L 137.526964 174.01827 
L 137.873773 173.908573 
L 137.985368 173.879596 
L 138.48549 173.769899 
L 138.48549 173.768864 
L 138.597996 173.734713 
L 138.991915 173.623981 
L 139.098947 173.58983 
L 139.103011 173.58983 
L 139.215767 173.550504 
L 139.53475 173.440807 
L 139.646759 173.393203 
L 139.937294 173.283505 
L 140.023385 173.24625 
L 140.047976 173.24625 
L 140.315703 173.136552 
L 140.42738 173.097227 
L 140.737365 172.98753 
L 140.846015 172.958553 
L 140.84842 172.958553 
L 141.314703 172.848856 
L 141.426836 172.824019 
L 141.797822 172.714321 
L 141.909955 172.662577 
L 142.298939 172.55288 
L 142.410036 172.513555 
L 142.77223 172.403857 
L 142.77223 172.402823 
L 142.886064 172.335555 
L 143.187298 172.225858 
L 143.299182 172.184463 
L 143.617502 172.074766 
L 143.726069 172.025091 
L 143.727894 172.025091 
L 143.958174 171.915394 
L 143.958174 171.914359 
L 144.070888 171.876069 
L 144.507147 171.766371 
L 144.617953 171.724976 
L 144.618243 171.724976 
L 145.296808 171.615279 
L 145.408112 171.596651 
L 145.974958 171.486954 
L 146.086885 171.445559 
L 146.606829 171.335861 
L 146.716142 171.292396 
L 146.717925 171.292396 
L 147.223314 171.182699 
L 147.332379 171.151653 
L 147.33439 171.151653 
L 147.652647 171.054374 
L 147.76391 171.00677 
L 148.102135 170.897072 
L 148.214061 170.853607 
L 148.528316 170.74391 
L 148.632571 170.714934 
L 148.639413 170.714934 
L 149.107811 170.604201 
L 149.210821 170.561771 
L 149.21841 170.561771 
L 149.540254 170.451039 
L 149.653051 170.410679 
L 150.102207 170.300982 
L 150.214755 170.265796 
L 150.880548 170.155064 
L 150.993013 170.118843 
L 151.576944 170.009145 
L 151.576944 170.008111 
L 151.688497 169.986378 
L 152.276908 169.876681 
L 152.388377 169.855983 
L 152.923417 169.746286 
L 153.033725 169.700751 
L 153.034389 169.700751 
L 153.579795 169.591054 
L 153.692136 169.551729 
L 154.140297 169.442031 
L 154.227341 169.413055 
L 154.251352 169.413055 
L 154.699222 169.303357 
L 154.796095 169.276451 
L 154.810319 169.276451 
L 155.338018 169.166753 
L 155.450296 169.146056 
L 155.939823 169.036358 
L 156.051168 169.02187 
L 156.522966 168.912173 
L 156.61393 168.874917 
L 156.633731 168.874917 
L 157.030553 168.76522 
L 157.133687 168.734174 
L 157.141608 168.734174 
L 157.586409 168.624476 
L 157.690829 168.599639 
L 157.697257 168.599639 
L 158.050743 168.489942 
L 158.16213 168.456826 
L 158.594615 168.347128 
L 158.594615 168.346094 
L 158.706375 168.311943 
L 159.13264 168.20121 
L 159.235982 168.171199 
L 159.243695 168.171199 
L 159.944488 168.061502 
L 160.055294 168.047013 
L 160.055543 168.047013 
L 160.710097 167.937316 
L 160.819286 167.914549 
L 160.821194 167.914549 
L 161.378709 167.804851 
L 161.492294 167.777945 
L 162.11106 167.667212 
L 162.220643 167.630992 
L 162.222053 167.630992 
L 162.767688 167.521294 
L 162.767688 167.52026 
L 162.879945 167.490248 
L 163.486893 167.380551 
L 163.599316 167.349504 
L 164.037358 167.239807 
L 164.037358 167.238772 
L 164.149409 167.21704 
L 164.753785 167.107342 
L 164.862663 167.074226 
L 164.86484 167.074226 
L 165.39088 166.963494 
L 165.503262 166.931413 
L 165.976885 166.821716 
L 166.084561 166.78239 
L 166.992597 166.672693 
L 167.103942 166.656135 
L 167.61381 166.546438 
L 167.711221 166.52988 
L 167.724823 166.52988 
L 168.242445 166.420182 
L 168.354164 166.389136 
L 168.954186 166.279439 
L 169.066734 166.258741 
L 169.432038 166.149044 
L 169.54355 166.124207 
L 169.863818 166.014509 
L 169.971183 165.971044 
L 169.974791 165.971044 
L 170.325332 165.861347 
L 170.436263 165.828231 
L 170.436387 165.828231 
L 170.778345 165.718534 
L 170.890271 165.675069 
L 171.276434 165.565372 
L 171.387987 165.534325 
L 171.852653 165.424628 
L 171.953299 165.393581 
L 171.963666 165.393581 
L 172.332081 165.283884 
L 172.443634 165.261117 
L 172.893744 165.15142 
L 172.99439 165.122443 
L 173.00484 165.122443 
L 173.342236 165.012746 
L 173.454494 164.981699 
L 173.826516 164.872002 
L 173.826516 164.870967 
L 173.938069 164.836816 
L 174.40966 164.727119 
L 174.521171 164.700212 
L 175.033444 164.58948 
L 175.13832 164.557399 
L 175.14454 164.557399 
L 175.661374 164.447701 
L 175.772305 164.429073 
L 175.772471 164.429073 
L 176.317878 164.319376 
L 176.420141 164.294539 
L 176.428974 164.294539 
L 176.863243 164.184842 
L 176.973095 164.164144 
L 176.974339 164.164144 
L 177.444354 164.054447 
L 177.548857 164.021331 
L 177.555451 164.021331 
L 178.023392 163.911634 
L 178.132374 163.880587 
L 178.134448 163.880587 
L 178.540206 163.77296 
L 178.655304 163.715006 
L 179.080739 163.605309 
L 179.192085 163.572193 
L 179.687189 163.461461 
L 179.791236 163.42938 
L 179.798286 163.42938 
L 180.253828 163.319682 
L 180.342987 163.294845 
L 180.344314 163.294845 
L 180.935337 163.184113 
L 181.047616 163.156171 
L 181.596153 163.045439 
L 181.710484 163.023707 
L 182.30582 162.914009 
L 182.30582 162.912975 
L 182.417746 162.893312 
L 183.083372 162.783615 
L 183.191649 162.756708 
L 183.194345 162.756708 
L 183.934989 162.64701 
L 184.043598 162.626313 
L 184.045982 162.626313 
L 184.672897 162.516616 
L 184.775617 162.466941 
L 184.783994 162.466941 
L 185.204785 162.357244 
L 185.304809 162.336546 
L 185.315798 162.336546 
L 185.825624 162.225814 
L 185.938753 162.204082 
L 186.381025 162.094385 
L 186.485362 162.059199 
L 186.492018 162.059199 
L 187.003813 161.949501 
L 187.116154 161.914315 
L 187.481914 161.804618 
L 187.593633 161.769432 
L 187.855803 161.659735 
L 187.966858 161.6142 
L 187.9669 161.6142 
L 188.27593 161.504503 
L 188.381014 161.467247 
L 188.386861 161.467247 
L 188.81099 161.35755 
L 188.922273 161.316155 
L 189.340866 161.206458 
L 189.449931 161.177481 
L 189.45188 161.177481 
L 189.753405 161.067784 
L 189.86757 161.020179 
L 190.218651 160.909447 
L 190.32419 160.862878 
L 190.329706 160.862878 
L 190.693766 160.752145 
L 190.804573 160.720064 
L 190.804739 160.720064 
L 191.210973 160.610367 
L 191.322277 160.591739 
L 191.63645 160.482042 
L 191.738631 160.459274 
L 191.747422 160.459274 
L 192.097591 160.349577 
L 192.209144 160.32681 
L 192.602689 160.217113 
L 192.709763 160.190206 
L 192.713785 160.190206 
L 193.124541 160.080508 
L 193.220916 160.043253 
L 193.235596 160.043253 
L 193.577221 159.933555 
L 193.689479 159.89423 
L 194.026958 159.784533 
L 194.026958 159.783498 
L 194.139838 159.738998 
L 194.753793 159.629301 
L 194.862878 159.596185 
L 194.864848 159.596185 
L 195.29076 159.486487 
L 195.402251 159.447162 
L 195.881762 159.337465 
L 195.993854 159.314697 
L 196.536317 159.205 
L 196.647704 159.171884 
L 197.140734 159.062187 
L 197.245196 159.039419 
L 197.251769 159.039419 
L 197.66947 158.929722 
L 197.75357 158.896606 
L 197.780442 158.896606 
L 198.223875 158.786909 
L 198.335469 158.760002 
L 198.846124 158.650305 
L 198.941297 158.610979 
L 198.95718 158.610979 
L 199.305274 158.501282 
L 199.406875 158.457817 
L 199.416288 158.457817 
L 199.776326 158.347085 
L 199.886863 158.315003 
L 199.887423 158.315003 
L 200.201595 158.205306 
L 200.201595 158.204271 
L 200.313812 158.178399 
L 200.620105 158.068702 
L 200.72718 158.039725 
L 200.731161 158.039725 
L 201.097004 157.930028 
L 201.202088 157.903121 
L 201.208059 157.903121 
L 201.56536 157.793424 
L 201.675711 157.764447 
L 201.676436 157.764447 
L 201.991667 157.65475 
L 202.100275 157.621634 
L 202.102722 157.621634 
L 202.513601 157.511937 
L 202.616031 157.470541 
L 202.624656 157.470541 
L 203.090359 157.360844 
L 203.198428 157.31324 
L 203.201414 157.31324 
L 203.62801 157.203543 
L 203.738692 157.174566 
L 203.739024 157.174566 
L 204.239146 157.064869 
L 204.350823 157.033822 
L 204.740553 156.924125 
L 204.852894 156.862032 
L 205.185603 156.752335 
L 205.299313 156.702661 
L 205.603491 156.591929 
L 205.701898 156.551568 
L 205.714505 156.551568 
L 206.058411 156.441871 
L 206.165693 156.400476 
L 206.169467 156.400476 
L 206.393277 156.290778 
L 206.499439 156.249383 
L 206.504374 156.249383 
L 206.915191 156.139686 
L 207.027097 156.100361 
L 207.351015 155.990663 
L 207.462443 155.951338 
L 207.892357 155.841641 
L 208.001422 155.802315 
L 208.003454 155.802315 
L 208.256252 155.692618 
L 208.363616 155.645013 
L 208.367265 155.645013 
L 208.714945 155.535316 
L 208.826934 155.489782 
L 209.151412 155.380084 
L 209.263193 155.346968 
L 209.630301 155.237271 
L 209.741812 155.216573 
L 210.082277 155.106876 
L 210.194327 155.055132 
L 210.516006 154.945435 
L 210.625361 154.908179 
L 210.627103 154.908179 
L 211.042793 154.798482 
L 211.150323 154.775714 
L 211.153848 154.775714 
L 211.475029 154.666017 
L 211.587494 154.620482 
L 211.932644 154.510785 
L 212.042787 154.452832 
L 212.043741 154.452832 
L 212.47125 154.343135 
L 212.582906 154.314158 
L 212.889884 154.203426 
L 212.999778 154.169275 
L 213.000939 154.169275 
L 213.364087 154.059578 
L 213.476096 154.014043 
L 213.803747 153.904346 
L 213.883036 153.877439 
L 213.914802 153.877439 
L 214.281786 153.766707 
L 214.395143 153.732556 
L 214.780104 153.622858 
L 214.891989 153.583533 
L 215.179123 153.472801 
L 215.280848 153.426231 
L 215.29022 153.426231 
L 215.605388 153.315499 
L 215.706739 153.26065 
L 215.716443 153.26065 
L 216.030947 153.150953 
L 216.134372 153.109558 
L 216.142044 153.109558 
L 216.387253 152.999861 
L 216.493871 152.948117 
L 216.498308 152.948117 
L 216.715982 152.838419 
L 216.823159 152.797024 
L 216.826995 152.797024 
L 217.088834 152.687327 
L 217.188651 152.650071 
L 217.19993 152.650071 
L 217.502409 152.540374 
L 217.615496 152.49277 
L 217.875675 152.383072 
L 217.985238 152.349956 
L 217.986772 152.349956 
L 218.100108 152.292003 
L 218.441194 152.182306 
L 218.548517 152.167817 
L 218.552125 152.167817 
L 218.980919 152.05812 
L 219.08901 152.031213 
L 219.091083 152.031213 
L 219.255385 151.991888 
L 219.545153 151.881156 
L 219.659401 151.844935 
L 220.097029 151.735237 
L 220.206881 151.71454 
L 220.208084 151.71454 
L 220.616475 151.604843 
L 220.730019 151.54482 
L 221.154376 151.435122 
L 221.154376 151.434087 
L 221.27049 151.397867 
L 221.69945 151.288169 
L 221.801134 151.252983 
L 221.810506 151.252983 
L 222.246847 151.143286 
L 222.356742 151.11431 
L 222.357944 151.11431 
L 222.80034 151.004612 
L 222.899971 150.971496 
L 222.911354 150.971496 
L 223.366399 150.861799 
L 223.473887 150.812125 
L 223.477454 150.812125 
L 223.817504 150.702427 
L 223.929305 150.667242 
L 224.275202 150.557544 
L 224.351091 150.534777 
L 224.386299 150.534777 
L 224.747581 150.42508 
L 224.747581 150.424045 
L 224.859714 150.400243 
L 225.445553 150.290545 
L 225.557231 150.261569 
L 226.176909 150.150836 
L 226.280914 150.131174 
L 226.288006 150.131174 
L 226.787692 150.021477 
L 226.899597 149.99457 
L 227.324784 149.884872 
L 227.436171 149.868314 
L 228.047887 149.758617 
L 228.128296 149.737919 
L 228.158963 149.737919 
L 228.818431 149.628222 
L 228.926252 149.595106 
L 228.929528 149.595106 
L 229.521007 149.484374 
L 229.611742 149.47092 
L 229.632103 149.47092 
L 230.130276 149.360188 
L 230.239673 149.328107 
L 230.241373 149.328107 
L 230.782135 149.21841 
L 230.88697 149.195642 
L 230.893231 149.195642 
L 231.433827 149.085945 
L 231.543763 149.061108 
L 231.544924 149.061108 
L 231.95626 148.951411 
L 232.061219 148.924504 
L 232.067315 148.924504 
L 232.57092 148.814807 
L 232.682266 148.7879 
L 233.070835 148.677168 
L 233.183362 148.643017 
L 233.461353 148.533319 
L 233.568468 148.493994 
L 233.572449 148.493994 
L 234.004292 148.383262 
L 234.100646 148.35739 
L 234.115368 148.35739 
L 234.496804 148.247692 
L 234.602966 148.216646 
L 234.607797 148.216646 
L 234.993525 148.106949 
L 234.993525 148.105914 
L 235.10599 148.071763 
L 235.551953 147.962066 
L 235.663589 147.933089 
L 235.969592 147.822357 
L 236.079403 147.784066 
L 236.080689 147.784066 
L 236.36123 147.674369 
L 236.457729 147.645392 
L 236.472285 147.645392 
L 236.822743 147.535695 
L 236.934255 147.4943 
L 237.322824 147.384603 
L 237.429379 147.341138 
L 237.433837 147.341138 
L 237.767791 147.23144 
L 237.875985 147.183836 
L 237.878888 147.183836 
L 238.3003 147.074139 
L 238.389626 147.041023 
L 238.411397 147.041023 
L 238.751571 146.931325 
L 238.859827 146.892 
L 238.862626 146.892 
L 239.361877 146.782303 
L 239.466567 146.749186 
L 239.472974 146.749186 
L 239.89729 146.639489 
L 240.006893 146.610513 
L 240.008345 146.610513 
L 240.341013 146.500815 
L 240.452711 146.469769 
L 240.887207 146.360072 
L 240.991544 146.329025 
L 240.998304 146.329025 
L 241.474166 146.219328 
L 241.585947 146.186212 
L 241.949655 146.076515 
L 242.049389 146.045468 
L 242.060752 146.045468 
L 242.549055 145.935771 
L 242.655465 145.896446 
L 242.660151 145.896446 
L 242.968601 145.786748 
L 242.968601 145.785713 
L 243.080569 145.743283 
L 243.563336 145.633586 
L 243.674619 145.60254 
L 244.130451 145.492842 
L 244.24246 145.461796 
L 244.684193 145.352099 
L 244.790832 145.329331 
L 244.79529 145.329331 
L 245.245565 145.219634 
L 245.355128 145.16996 
L 245.356662 145.16996 
L 245.896968 145.060263 
L 246.00765 145.029216 
L 246.007899 145.029216 
L 246.442374 144.919519 
L 246.55401 144.888473 
L 247.046709 144.778775 
L 247.155151 144.73945 
L 247.157805 144.73945 
L 247.617951 144.629753 
L 247.727596 144.596636 
L 247.729047 144.596636 
L 248.010044 144.486939 
L 248.11546 144.451753 
L 248.121141 144.451753 
L 248.544005 144.342056 
L 248.648591 144.300661 
L 248.655102 144.300661 
L 249.047196 144.190964 
L 249.158293 144.159917 
L 249.541927 144.049185 
L 249.647881 144.021243 
L 249.65294 144.021243 
L 250.03533 143.911546 
L 250.131581 143.884639 
L 250.146386 143.884639 
L 250.522348 143.774942 
L 250.633362 143.729407 
L 250.633382 143.729407 
L 250.885579 143.61971 
L 250.996966 143.586594 
L 251.400464 143.475862 
L 251.499368 143.441711 
L 251.51156 143.441711 
L 251.865834 143.330978 
L 251.974069 143.290618 
L 251.976848 143.290618 
L 252.334356 143.180921 
L 252.446282 143.139526 
L 253.045682 143.029828 
L 253.125262 143.007061 
L 253.156571 143.007061 
L 253.40713 142.897364 
L 253.517687 142.866317 
L 253.518227 142.866317 
L 253.99554 142.75662 
L 254.098799 142.711085 
L 254.106637 142.711085 
L 254.54584 142.601388 
L 254.642174 142.574481 
L 254.656895 142.574481 
L 255.162242 142.463749 
L 255.25617 142.448226 
L 255.273339 142.448226 
L 255.712583 142.338529 
L 255.823805 142.321971 
L 256.293612 142.212273 
L 256.400645 142.172948 
L 256.404419 142.172948 
L 256.701257 142.063251 
L 256.791702 142.044623 
L 256.812312 142.044623 
L 257.274448 141.934926 
L 257.382352 141.914228 
L 257.385296 141.914228 
L 257.855103 141.804531 
L 257.855103 141.803496 
L 257.967859 141.777624 
L 258.743836 141.667927 
L 258.852569 141.651368 
L 258.854829 141.651368 
L 259.467312 141.541671 
L 259.578616 141.523043 
L 260.163045 141.413346 
L 260.274868 141.37816 
L 260.827593 141.268463 
L 260.939499 141.249835 
L 261.38034 141.140138 
L 261.491976 141.111161 
L 262.194717 141.001464 
L 262.303989 140.964208 
L 262.30569 140.964208 
L 262.902477 140.854511 
L 263.013491 140.831744 
L 263.64196 140.722046 
L 263.735267 140.69307 
L 263.752974 140.69307 
L 264.286686 140.583372 
L 264.397783 140.554396 
L 264.634076 140.444699 
L 264.745919 140.363978 
L 265.091567 140.254281 
L 265.199512 140.206676 
L 265.202622 140.206676 
L 265.486771 140.096979 
L 265.596375 140.047305 
L 265.597868 140.047305 
L 265.849504 139.937607 
L 265.96029 139.904491 
L 265.960601 139.904491 
L 266.232268 139.796864 
L 266.232268 139.794794 
L 266.340627 139.757538 
L 266.343323 139.757538 
L 266.58198 139.647841 
L 266.687478 139.604376 
L 266.693076 139.604376 
L 267.004346 139.494679 
L 267.107273 139.459493 
L 267.115443 139.459493 
L 267.316072 139.349796 
L 267.420824 139.306331 
L 267.427127 139.306331 
L 267.746152 139.196634 
L 267.746152 139.195599 
L 267.860359 139.159378 
L 268.188258 139.048646 
L 268.282726 139.018634 
L 268.29923 139.018634 
L 268.728108 138.908937 
L 268.836218 138.869611 
L 268.839204 138.869611 
L 269.228354 138.758879 
L 269.341814 138.701961 
L 269.764347 138.591229 
L 269.876397 138.569496 
L 270.190362 138.459799 
L 270.301314 138.414264 
L 270.301376 138.414264 
L 270.639269 138.304567 
L 270.749786 138.259032 
L 270.750366 138.259032 
L 271.085232 138.149335 
L 271.193302 138.11001 
L 271.196287 138.11001 
L 271.509921 138.000312 
L 271.620188 137.969266 
L 271.620644 137.969266 
L 271.946263 137.859569 
L 272.05794 137.830592 
L 272.41408 137.720895 
L 272.525052 137.669151 
L 272.525176 137.669151 
L 272.735551 137.560488 
L 273.053497 137.391803 
L 273.309986 137.282106 
L 273.414945 137.217943 
L 273.420295 137.217943 
L 273.664343 137.108246 
L 273.773242 137.064781 
L 273.775274 137.064781 
L 274.116775 136.955084 
L 274.228763 136.911619 
L 274.60064 136.801922 
L 274.60064 136.800887 
L 274.712193 136.766736 
L 275.049672 136.656004 
L 275.149364 136.630132 
L 275.160768 136.630132 
L 275.482862 136.520434 
L 275.594705 136.481109 
L 275.933946 136.371412 
L 276.045229 136.342435 
L 276.364772 136.231703 
L 276.474024 136.201691 
L 276.475807 136.201691 
L 276.872048 136.091994 
L 276.975058 136.054738 
L 276.983124 136.054738 
L 277.386145 135.945041 
L 277.489321 135.922274 
L 277.497117 135.922274 
L 277.936361 135.812576 
L 278.04329 135.767042 
L 278.047417 135.767042 
L 278.476667 135.657344 
L 278.588427 135.634577 
L 278.988774 135.523845 
L 279.089669 135.502113 
L 279.099829 135.502113 
L 279.406703 135.392415 
L 279.49553 135.371718 
L 279.5178 135.371718 
L 280.114607 135.26202 
L 280.226927 135.222695 
L 280.794354 135.111963 
L 280.90431 135.084021 
L 280.90543 135.084021 
L 281.286638 134.974324 
L 281.388031 134.949487 
L 281.397735 134.949487 
L 281.799201 134.839789 
L 281.884794 134.808743 
L 281.910298 134.808743 
L 282.417552 134.699046 
L 282.417552 134.698011 
L 282.529395 134.680418 
L 283.008119 134.570721 
L 283.119547 134.543814 
L 283.714219 134.434117 
L 283.714219 134.433082 
L 283.828136 134.401 
L 284.332902 134.291303 
L 284.332902 134.290268 
L 284.445533 134.254047 
L 284.920234 134.14435 
L 285.031746 134.121583 
L 285.633903 134.011886 
L 285.745145 133.989118 
L 286.306725 133.879421 
L 286.306725 133.878386 
L 286.418775 133.856654 
L 286.853624 133.746956 
L 286.963601 133.720049 
L 286.964721 133.720049 
L 287.512615 133.610352 
L 287.624355 133.579306 
L 288.100611 133.469609 
L 288.211915 133.446841 
L 288.768103 133.337144 
L 288.870118 133.314377 
L 288.878785 133.314377 
L 289.475407 133.204679 
L 289.577836 133.179842 
L 289.586462 133.179842 
L 290.034208 133.070145 
L 290.141862 133.051517 
L 290.145284 133.051517 
L 290.613246 132.94182 
L 290.720403 132.902494 
L 290.724343 132.902494 
L 291.204144 132.791762 
L 291.313458 132.755541 
L 291.315158 132.755541 
L 291.74557 132.645844 
L 291.841779 132.625147 
L 291.856666 132.625147 
L 292.308103 132.515449 
L 292.417417 132.469915 
L 292.4192 132.469915 
L 292.769803 132.360217 
L 292.881149 132.33331 
L 293.282055 132.223613 
L 293.39396 132.182218 
L 293.806519 132.072521 
L 293.917823 132.051823 
L 294.274253 131.942126 
L 294.371956 131.9028 
L 294.385309 131.9028 
L 294.751152 131.793103 
L 294.857812 131.745499 
L 294.862208 131.745499 
L 295.168874 131.635801 
L 295.265042 131.596476 
L 295.27995 131.596476 
L 295.656265 131.486779 
L 295.758529 131.443314 
L 295.767362 131.443314 
L 296.065195 131.332582 
L 296.177744 131.298431 
L 296.51995 131.188733 
L 296.631751 131.153547 
L 297.027577 131.04385 
L 297.138487 131.016943 
L 297.138674 131.016943 
L 297.554032 130.907246 
L 297.666124 130.857572 
L 298.095541 130.74684 
L 298.20757 130.725107 
L 298.624525 130.61541 
L 298.735414 130.571945 
L 298.735497 130.571945 
L 299.158154 130.461213 
L 299.262243 130.44155 
L 299.268961 130.44155 
L 299.75125 130.331853 
L 299.849201 130.309086 
L 299.862306 130.309086 
L 300.312581 130.199388 
L 300.424155 130.176621 
L 300.868065 130.066924 
L 300.97095 130.040017 
L 300.979161 130.040017 
L 301.46282 129.93032 
L 301.568111 129.903413 
L 301.573834 129.903413 
L 301.998398 129.793715 
L 302.109329 129.764739 
L 302.109453 129.764739 
L 302.477204 129.655041 
L 302.477204 129.654007 
L 302.590001 129.636414 
L 303.014607 129.526716 
L 303.119732 129.481182 
L 303.125663 129.481182 
L 303.521737 129.371484 
L 303.521737 129.37045 
L 303.634368 129.332159 
L 304.047363 129.222462 
L 304.158999 129.195555 
L 304.515429 129.085858 
L 304.627085 129.056881 
L 304.969561 128.947184 
L 305.081238 128.918207 
L 305.51335 128.80851 
L 305.625027 128.779533 
L 306.033419 128.669836 
L 306.1424 128.63879 
L 306.144515 128.63879 
L 306.542208 128.528057 
L 306.653138 128.483558 
L 307.063728 128.37386 
L 307.166282 128.338674 
L 307.174783 128.338674 
L 307.664641 128.228977 
L 307.77721 128.191721 
L 308.260288 128.082024 
L 308.370928 128.061327 
L 308.371301 128.061327 
L 308.832939 127.951629 
L 308.943207 127.914374 
L 308.943829 127.914374 
L 309.422345 127.804676 
L 309.535142 127.763281 
L 309.871708 127.653584 
L 309.982017 127.605979 
L 309.982722 127.605979 
L 310.322937 127.496282 
L 310.432583 127.454887 
L 310.434013 127.454887 
L 310.546665 127.405213 
L 310.916241 127.295515 
L 311.024186 127.268609 
L 311.027296 127.268609 
L 311.370124 127.157876 
L 311.471144 127.129935 
L 311.481221 127.129935 
L 311.878374 127.020237 
L 311.990134 126.985052 
L 312.405285 126.875354 
L 312.5056 126.838099 
L 312.516175 126.838099 
L 312.850087 126.728401 
L 312.951936 126.678727 
L 312.961121 126.678727 
L 313.368621 126.56903 
L 313.479635 126.498658 
L 313.479697 126.498658 
L 313.624633 126.387926 
L 313.736289 126.349635 
L 313.916184 126.244078 
L 314.027488 126.173706 
L 314.288787 126.064008 
L 314.392585 126.028823 
L 314.783933 125.894288 
L 314.891007 125.850823 
L 314.894988 125.850823 
L 315.141669 125.741126 
L 315.253118 125.691452 
L 315.611373 125.581754 
L 315.712268 125.525871 
L 315.722387 125.525871 
L 316.008775 125.424453 
L 317.874839 124.84285 
L 318.277238 124.733153 
L 318.389516 124.6752 
L 318.733443 124.564468 
L 318.82986 124.532386 
L 318.84454 124.532386 
L 319.220129 124.421654 
L 319.330728 124.389573 
L 319.331226 124.389573 
L 319.70499 124.279876 
L 319.801531 124.24055 
L 319.816087 124.24055 
L 320.152072 124.130853 
L 320.257695 124.006667 
L 320.263169 124.006667 
L 320.429897 123.89697 
L 320.54201 123.836947 
L 320.735423 123.72725 
L 320.844363 123.669297 
L 320.846478 123.669297 
L 321.106181 123.559599 
L 321.21763 123.524413 
L 321.440404 123.413681 
L 321.548743 123.367112 
L 321.551459 123.367112 
L 321.829346 123.257414 
L 321.936752 123.20567 
L 321.940401 123.20567 
L 322.196932 123.095973 
L 322.309065 123.042159 
L 322.627094 122.931427 
L 322.73392 122.882788 
L 322.738191 122.882788 
L 323.01981 122.773091 
L 323.124313 122.739974 
L 323.130783 122.739974 
L 323.51197 122.630277 
L 323.623875 122.590952 
L 323.883578 122.481255 
L 323.986339 122.429511 
L 323.994674 122.429511 
L 324.228272 122.318778 
L 324.34026 122.274279 
L 324.572759 122.164581 
L 324.664116 122.112837 
L 324.675603 122.112837 
L 325.503458 121.806513 
L 325.608791 121.767187 
L 325.614555 121.767187 
L 325.827812 121.65749 
L 325.9398 121.564351 
L 326.138646 121.454654 
L 326.245803 121.392561 
L 326.249577 121.392561 
L 326.478405 121.282864 
L 326.590746 121.216631 
L 326.813686 121.106934 
L 326.917443 121.05312 
L 326.924783 121.05312 
L 327.159562 120.943423 
L 327.271965 120.902028 
L 327.546493 120.792331 
L 327.657424 120.742656 
L 327.657548 120.742656 
L 327.948871 120.632959 
L 328.061295 120.564657 
L 328.268393 120.45496 
L 328.3792 120.392867 
L 328.37949 120.392867 
L 328.659202 120.28317 
L 328.769759 120.225217 
L 328.770236 120.225217 
L 329.021935 120.115519 
L 329.120052 120.059636 
L 329.132907 120.059636 
L 329.4025 119.949938 
L 329.510777 119.904404 
L 329.513556 119.904404 
L 329.798866 119.794706 
L 329.903949 119.76159 
L 329.909879 119.76159 
L 330.233673 119.650858 
L 330.339627 119.602219 
L 330.344645 119.602219 
L 330.59425 119.491487 
L 330.700619 119.463545 
L 330.705347 119.463545 
L 331.011806 119.353848 
L 331.117014 119.314522 
L 331.122903 119.314522 
L 331.388784 119.20379 
L 331.502224 119.138593 
L 331.828008 119.028895 
L 331.93952 118.9875 
L 332.206749 118.877803 
L 332.291429 118.836408 
L 332.295618 118.836408 
L 332.956683 118.577688 
L 333.066162 118.519735 
L 333.067696 118.519735 
L 333.258788 118.410037 
L 333.365447 118.350014 
L 333.369843 118.350014 
L 333.509678 118.240317 
L 333.620609 118.190643 
L 333.620754 118.190643 
L 333.779395 118.080946 
L 333.88676 117.936062 
L 333.890409 117.936062 
L 334.054919 117.826365 
L 334.156436 117.712528 
L 334.166015 117.712528 
L 334.296499 117.602831 
L 334.503494 117.464157 
L 334.667588 117.35446 
L 334.776695 117.26546 
L 334.778436 117.26546 
L 334.964095 117.155763 
L 335.071667 117.085391 
L 335.07515 117.085391 
L 335.245839 116.975694 
L 335.358076 116.915671 
L 335.555989 116.805974 
L 335.664514 116.772857 
L 335.667086 116.772857 
L 335.885173 116.662125 
L 335.993575 116.609346 
L 335.996229 116.609346 
L 336.192877 116.499649 
L 336.298417 116.452045 
L 336.303808 116.452045 
L 336.618105 116.342347 
L 336.721447 116.278185 
L 336.72916 116.278185 
L 337.066348 116.168488 
L 337.143979 116.129162 
L 337.145099 116.129162 
L 337.516209 116.019465 
L 337.612999 115.994628 
L 337.627306 115.994628 
L 338.001526 115.883896 
L 338.111628 115.855954 
L 338.112582 115.855954 
L 338.619712 115.746257 
L 338.72915 115.71314 
L 338.730808 115.71314 
L 339.142061 115.602408 
L 339.23263 115.572397 
L 339.253137 115.572397 
L 339.70617 115.4627 
L 339.816355 115.435793 
L 339.817225 115.435793 
L 340.234699 115.326095 
L 340.346894 115.28884 
L 340.71336 115.178108 
L 340.825182 115.141887 
L 341.237679 115.03219 
L 341.340316 114.997004 
L 341.348776 114.997004 
L 341.731373 114.887306 
L 341.840977 114.85833 
L 341.842408 114.85833 
L 342.046168 114.748632 
L 342.159545 114.628586 
L 342.241779 114.518889 
L 342.354742 114.42575 
L 342.560058 114.316053 
L 342.655147 114.260169 
L 342.671113 114.260169 
L 342.877589 114.150472 
L 342.987774 114.073891 
L 342.988644 114.073891 
L 343.152698 113.964194 
L 343.259191 113.895891 
L 343.263753 113.895891 
L 343.518915 113.786194 
L 343.632126 113.717892 
L 343.826079 113.608195 
L 343.938005 113.525405 
L 344.188481 113.414672 
L 344.299328 113.357754 
L 344.299577 113.357754 
L 344.502239 113.247022 
L 344.607198 113.206662 
L 344.613335 113.206662 
L 344.874593 113.096964 
L 344.984197 113.053499 
L 344.985669 113.053499 
L 345.262229 112.942767 
L 345.370236 112.911721 
L 345.637299 112.800989 
L 345.749412 112.749245 
L 345.993978 112.639547 
L 346.103914 112.602292 
L 346.105034 112.602292 
L 346.332742 112.492594 
L 346.441683 112.455339 
L 346.443839 112.455339 
L 346.687845 112.345641 
L 346.687845 112.344607 
L 346.800186 112.279409 
L 347.029098 112.169712 
L 347.133642 112.117968 
L 347.140028 112.117968 
L 347.436908 112.007236 
L 347.550162 111.971015 
L 347.860685 111.861318 
L 347.968132 111.821992 
L 347.971719 111.821992 
L 348.303496 111.712295 
L 348.405801 111.677109 
L 348.41451 111.677109 
L 348.722545 111.566377 
L 348.830365 111.526017 
L 348.833517 111.526017 
L 349.187169 111.416319 
L 349.296773 111.374924 
L 349.298224 111.374924 
L 349.611609 111.265227 
L 349.723535 111.221762 
L 350.060972 111.11103 
L 350.172981 111.06653 
L 350.493913 110.956833 
L 350.591408 110.913368 
L 350.604803 110.913368 
L 350.856688 110.804705 
L 351.42117 110.54702 
L 351.733228 110.438358 
L 351.733228 110.436288 
L 351.83968 110.385579 
L 351.844325 110.385579 
L 352.115411 110.275882 
L 352.223936 110.240696 
L 352.226466 110.240696 
L 352.409885 110.129964 
L 352.690219 109.979906 
L 352.915606 109.870209 
L 353.019445 109.835023 
L 353.026702 109.835023 
L 353.320265 109.725326 
L 353.429122 109.683931 
L 353.431361 109.683931 
L 353.708668 109.574233 
L 353.812341 109.536978 
L 353.819682 109.536978 
L 354.093878 109.426246 
L 354.196805 109.400374 
L 354.204933 109.400374 
L 354.678639 109.290676 
L 354.788989 109.25963 
L 354.789694 109.25963 
L 355.138825 109.149933 
L 355.249341 109.120956 
L 355.249922 109.120956 
L 355.751122 109.011259 
L 355.859689 108.971933 
L 355.862177 108.971933 
L 356.216886 108.861201 
L 356.329123 108.800143 
L 356.485277 108.691481 
L 356.605994 108.630423 
L 356.86354 108.520726 
L 356.86354 108.519691 
L 356.977664 108.446214 
L 357.166392 108.336517 
L 357.270149 108.266145 
L 357.277447 108.266145 
L 357.584487 108.156448 
L 357.69463 108.108843 
L 357.695501 108.108843 
L 357.886385 107.999146 
L 357.996445 107.937053 
L 357.997461 107.937053 
L 358.225937 107.827356 
L 358.326832 107.769403 
L 358.337034 107.769403 
L 358.568184 107.659706 
L 358.676586 107.612101 
L 358.67924 107.612101 
L 358.985699 107.502404 
L 359.085682 107.454799 
L 359.096754 107.454799 
L 359.392141 107.345102 
L 359.500542 107.307846 
L 359.503176 107.307846 
L 359.765532 107.198149 
L 359.875178 107.152615 
L 359.876629 107.152615 
L 360.125612 107.042917 
L 360.239114 106.984964 
L 360.547688 106.875267 
L 360.620964 106.85043 
L 360.658764 106.85043 
L 360.881642 106.740732 
L 360.99025 106.688988 
L 360.992738 106.688988 
L 361.256111 106.579291 
L 361.367581 106.542035 
L 361.687559 106.432338 
L 361.795027 106.388873 
L 361.798407 106.388873 
L 362.020974 106.278141 
L 362.130826 106.196386 
L 362.131863 106.196386 
L 362.307901 106.086688 
L 362.418127 106.028735 
L 362.418956 106.028735 
L 362.637998 105.919038 
L 362.752163 105.844526 
L 363.012965 105.734829 
L 363.123813 105.658248 
L 363.124062 105.658248 
L 363.359028 105.548551 
L 363.459508 105.498877 
L 363.470124 105.498877 
L 363.670836 105.389179 
L 363.774635 105.327087 
L 363.781933 105.327087 
L 364.032741 105.217389 
L 364.146284 105.153227 
L 364.374242 105.043529 
L 364.478454 104.983506 
L 364.485214 104.983506 
L 364.782384 104.873809 
L 364.894352 104.824135 
L 365.156812 104.714438 
L 365.26654 104.668903 
L 365.267909 104.668903 
L 365.544717 104.559206 
L 365.653119 104.476415 
L 365.655773 104.476415 
L 365.888333 104.366718 
L 366.000716 104.300486 
L 366.272776 104.190788 
L 366.384391 104.132835 
L 366.644819 104.023138 
L 366.757119 103.958975 
L 367.047281 103.849278 
L 367.158211 103.803743 
L 367.158357 103.803743 
L 367.419469 103.694046 
L 367.524511 103.654721 
L 367.530462 103.654721 
L 367.787718 103.545023 
L 367.896161 103.485 
L 367.898607 103.485 
L 368.246743 103.375303 
L 368.246743 103.374268 
L 368.359706 103.327699 
L 368.67164 103.218001 
L 368.779792 103.186955 
L 368.782736 103.186955 
L 369.058177 103.077258 
L 369.157413 103.031723 
L 369.169273 103.031723 
L 369.464577 102.922026 
L 369.567919 102.880631 
L 369.575591 102.880631 
L 370.124896 102.770933 
L 370.233297 102.752305 
L 370.235992 102.752305 
L 370.654378 102.642608 
L 370.654378 102.641573 
L 370.766594 102.62605 
L 371.225205 102.516353 
L 371.335431 102.489446 
L 371.336302 102.489446 
L 371.754521 102.379749 
L 371.86595 102.344563 
L 372.215081 102.234866 
L 372.321596 102.171738 
L 372.526641 102.032029 
L 372.818172 101.922332 
L 372.930367 101.868518 
L 373.152664 101.758821 
L 373.264425 101.723635 
L 373.552928 101.612903 
L 373.660852 101.537357 
L 373.664024 101.537357 
L 373.950537 101.427659 
L 374.06435 101.293125 
L 374.268483 101.183428 
L 374.377797 101.135823 
L 374.37958 101.135823 
L 374.602644 101.026126 
L 374.711833 100.947475 
L 374.713741 100.947475 
L 374.877836 100.837778 
L 374.967451 100.746708 
L 375.182885 100.492128 
L 375.297756 100.382431 
L 375.408583 100.260315 
L 375.408645 100.260315 
L 375.560962 100.150618 
L 375.672681 100.080246 
L 375.791989 99.970549 
L 375.903915 99.881549 
L 375.983806 99.771852 
L 376.095711 99.682852 
L 376.251263 99.573155 
L 376.367087 99.457248 
L 376.515175 99.347551 
L 376.627391 99.291667 
L 376.824081 99.18197 
L 376.824081 99.180935 
L 376.936753 99.103319 
L 377.076464 98.993622 
L 377.186565 98.898413 
L 377.187519 98.898413 
L 377.375169 98.788716 
L 377.485146 98.701786 
L 377.486265 98.701786 
L 377.668689 98.592089 
L 377.77792 98.509298 
L 377.779786 98.509298 
L 377.896937 98.399601 
L 378.011683 98.310601 
L 378.145837 98.200904 
L 378.145837 98.199869 
L 378.259837 98.126393 
L 378.462083 98.016695 
L 378.574714 97.938045 
L 378.761493 97.828347 
L 378.761493 97.827312 
L 378.873875 97.762115 
L 378.990695 97.668976 
L 379.111122 97.559279 
L 379.219938 97.455791 
L 379.222219 97.455791 
L 379.315235 97.364721 
L 379.315235 97.362651 
L 379.42687 97.232256 
L 379.538859 97.122559 
L 379.652589 97.03356 
L 379.806772 96.923862 
L 379.916044 96.818305 
L 379.917827 96.818305 
L 380.040245 96.708607 
L 380.150056 96.60305 
L 380.151321 96.60305 
L 380.332647 96.493352 
L 380.445568 96.398143 
L 380.619574 96.288446 
L 380.728639 96.193237 
L 380.730629 96.193237 
L 380.880209 96.08354 
L 380.99311 95.99454 
L 381.125501 95.884843 
L 381.238132 95.808262 
L 381.382301 95.698565 
L 381.494828 95.628193 
L 381.636944 95.518496 
L 381.751524 95.433635 
L 381.904464 95.323938 
L 382.015519 95.243217 
L 382.01556 95.243217 
L 382.185088 95.13352 
L 382.294152 95.069358 
L 382.296184 95.069358 
L 382.540605 94.95966 
L 382.540605 94.958626 
L 382.65502 94.87687 
L 382.874144 94.767173 
L 382.986734 94.692661 
L 383.180438 94.582964 
L 383.290166 94.543639 
L 383.291514 94.543639 
L 383.514226 94.433941 
L 383.6247 94.373918 
L 383.625322 94.373918 
L 383.851165 94.264221 
L 383.949945 94.214547 
L 383.962179 94.214547 
L 384.170438 94.103815 
L 384.27913 94.038617 
L 384.281535 94.038617 
L 384.548474 93.92892 
L 384.65588 93.858548 
L 384.659571 93.858548 
L 384.819062 93.748851 
L 384.928915 93.67227 
L 384.930076 93.67227 
L 385.146215 93.561538 
L 385.256938 93.510829 
L 385.257229 93.510829 
L 385.479215 93.401131 
L 385.589358 93.339039 
L 385.590104 93.339039 
L 385.811551 93.229341 
L 385.811551 93.228306 
L 385.924348 93.185876 
L 386.108348 93.076179 
L 386.213307 93.020296 
L 386.219445 93.020296 
L 386.492355 92.910598 
L 386.603452 92.862994 
L 386.876694 92.753297 
L 386.978046 92.693274 
L 386.987791 92.693274 
L 387.234493 92.583576 
L 387.347808 92.529763 
L 387.511385 92.420065 
L 387.619205 92.368321 
L 387.62244 92.368321 
L 387.862258 92.258624 
L 387.974267 92.21102 
L 388.167328 92.100287 
L 388.263247 91.956439 
L 388.556581 91.525929 
L 388.657601 91.415197 
L 388.766956 91.277558 
L 388.768656 91.277558 
L 388.842637 91.167861 
L 388.942952 91.043675 
L 388.953734 91.043675 
L 389.067983 90.933978 
L 389.181402 90.801513 
L 389.339898 90.575909 
L 389.437351 90.466212 
L 389.543057 90.342027 
L 389.548448 90.342027 
L 389.64051 90.232329 
L 389.749533 90.124702 
L 389.751565 90.124702 
L 389.852751 90.015005 
L 389.96306 89.899098 
L 389.963765 89.899098 
L 390.077806 89.789401 
L 390.188736 89.650727 
L 390.188861 89.650727 
L 390.295976 89.54103 
L 390.403839 89.443751 
L 390.407032 89.443751 
L 390.54695 89.334054 
L 390.655724 89.218147 
L 390.658026 89.218147 
L 390.801448 89.107415 
L 390.910761 89.007032 
L 390.912544 89.007032 
L 391.077883 88.897334 
L 391.188482 88.806265 
L 391.188938 88.806265 
L 391.33292 88.696568 
L 391.445883 88.603428 
L 391.606038 88.492696 
L 391.714274 88.406801 
L 391.717135 88.406801 
L 391.866093 88.297104 
L 391.973831 88.206035 
L 391.97719 88.206035 
L 392.158619 88.096337 
L 392.271437 88.009407 
L 392.462134 87.89971 
L 392.569208 87.823129 
L 392.573106 87.823129 
L 392.744292 87.713432 
L 392.856799 87.64306 
L 393.02164 87.533363 
L 393.132447 87.460921 
L 393.132737 87.460921 
L 393.26772 87.351224 
L 393.378112 87.274643 
L 393.378775 87.274643 
L 393.582515 87.163911 
L 393.689506 87.104923 
L 393.693591 87.104923 
L 393.856462 86.995225 
L 393.966688 86.910365 
L 393.967476 86.910365 
L 394.037352 86.800668 
L 394.147702 86.69511 
L 394.148407 86.69511 
L 394.278829 86.585413 
L 394.381465 86.448809 
L 394.389925 86.448809 
L 394.521549 86.339111 
L 394.631609 86.237693 
L 394.632646 86.237693 
L 394.759086 86.127996 
L 394.869976 86.022438 
L 394.870142 86.022438 
L 395.02586 85.912741 
L 395.13621 85.809253 
L 395.136935 85.809253 
L 395.263231 85.699556 
L 395.372337 85.591928 
L 395.374286 85.591928 
L 395.46556 85.482231 
L 395.575206 85.31458 
L 395.576616 85.31458 
L 395.662996 85.204883 
L 395.772331 85.093116 
L 395.774093 85.093116 
L 395.884278 84.983419 
L 395.993632 84.88821 
L 395.995374 84.88821 
L 396.110742 84.778513 
L 396.218107 84.675025 
L 396.221797 84.675025 
L 396.372124 84.565327 
L 396.480608 84.45977 
L 396.48318 84.45977 
L 396.613269 84.350072 
L 396.722832 84.223817 
L 396.724242 84.223817 
L 396.861298 84.11412 
L 396.969243 83.996144 
L 396.972395 83.996144 
L 397.098545 83.886446 
L 397.208646 83.811935 
L 397.2096 83.811935 
L 397.360259 83.702238 
L 397.473263 83.607029 
L 397.678993 83.497331 
L 397.791168 83.433169 
L 397.993829 83.323472 
L 398.102148 83.232402 
L 398.104926 83.232402 
L 398.317747 83.122705 
L 398.428139 83.056473 
L 398.428761 83.056473 
L 398.598164 82.946775 
L 398.708556 82.866055 
L 398.709219 82.866055 
L 398.892473 82.756357 
L 398.996644 82.690125 
L 399.003569 82.690125 
L 399.186077 82.580428 
L 399.297049 82.507986 
L 399.297173 82.507986 
L 399.49096 82.398289 
L 399.603301 82.329987 
L 399.789623 82.219255 
L 399.899351 82.156127 
L 399.90072 82.156127 
L 400.051669 82.04643 
L 400.162475 81.969849 
L 400.162765 81.969849 
L 400.376748 81.860152 
L 400.483241 81.806338 
L 400.487803 81.806338 
L 400.645657 81.696641 
L 400.759055 81.622129 
L 400.946953 81.512432 
L 401.050005 81.464827 
L 401.05805 81.464827 
L 401.252873 81.35513 
L 401.362933 81.27441 
L 401.363929 81.27441 
L 401.54034 81.164712 
L 401.653012 81.086061 
L 401.868653 80.976364 
L 401.868653 80.975329 
L 401.986758 80.891504 
L 402.210237 80.781807 
L 402.320754 80.719714 
L 402.321334 80.719714 
L 402.553563 80.610017 
L 402.65761 80.533436 
L 402.66466 80.533436 
L 402.90228 80.423738 
L 403.008442 80.361646 
L 403.013294 80.361646 
L 403.252987 80.251948 
L 403.362218 80.198135 
L 403.364084 80.198135 
L 403.545015 80.088437 
L 403.653416 80.009786 
L 403.656112 80.009786 
L 403.831279 79.900089 
L 403.942977 79.840066 
L 404.111198 79.730369 
L 404.212425 79.659997 
L 404.222253 79.659997 
L 404.427154 79.5503 
L 404.535555 79.446812 
L 404.538167 79.446812 
L 404.618038 79.33608 
L 404.729051 78.293956 
L 404.753892 78.183224 
L 404.864242 77.65233 
L 404.864988 77.65233 
L 404.885267 77.542633 
L 404.996322 76.843054 
L 404.996364 76.843054 
L 405.021121 76.733357 
L 405.132135 76.153824 
L 405.132218 76.153824 
L 405.154984 76.044127 
L 405.265044 75.617756 
L 405.266081 75.617756 
L 405.305684 75.508059 
L 405.416781 75.029945 
L 405.444441 74.920247 
L 405.555331 74.564249 
L 405.555517 74.564249 
L 405.585769 74.456621 
L 405.585769 74.454551 
L 405.704869 74.055088 
L 405.732944 73.945391 
L 405.844 72.473792 
L 405.844041 72.473792 
L 405.85868 72.364094 
L 405.969735 71.527911 
L 405.985535 71.418214 
L 406.096258 70.565473 
L 406.096632 70.565473 
L 406.109819 70.455776 
L 406.220293 69.718941 
L 406.22075 69.718941 
L 406.237358 69.609244 
L 406.357184 68.725457 
L 406.366722 68.61576 
L 406.477777 68.058994 
L 406.477819 68.058994 
L 406.493868 67.949297 
L 406.604798 67.353206 
L 406.604902 67.353206 
L 406.630053 67.243509 
L 406.741109 66.711581 
L 406.760599 66.601883 
L 406.871364 66.146536 
L 406.871696 66.146536 
L 406.903171 66.036839 
L 407.013148 65.614608 
L 407.014247 65.614608 
L 407.044831 65.504911 
L 407.160406 65.051633 
L 407.191757 64.941936 
L 407.302812 64.56524 
L 407.302854 64.56524 
L 407.335947 64.455543 
L 407.446338 64.105753 
L 407.447002 64.105753 
L 407.484076 63.998126 
L 407.595089 63.644197 
L 407.595131 63.644197 
L 407.633863 63.533465 
L 407.744711 63.248873 
L 407.74496 63.248873 
L 407.788047 63.139175 
L 407.901839 62.865967 
L 407.944387 62.75627 
L 408.053327 62.487201 
L 408.055317 62.487201 
L 408.108067 62.377504 
L 408.217505 62.145691 
L 408.218997 62.145691 
L 408.271 62.034959 
L 408.378987 61.802111 
L 408.382097 61.802111 
L 408.437479 61.692413 
L 408.548389 61.46474 
L 408.548555 61.46474 
L 408.603627 61.355043 
L 408.714558 61.129439 
L 408.714723 61.129439 
L 408.770334 61.019742 
L 408.877616 60.814835 
L 408.881389 60.814835 
L 408.943386 60.705138 
L 409.053736 60.456767 
L 409.054483 60.456767 
L 409.128216 60.34707 
L 409.238566 60.185628 
L 409.239312 60.185628 
L 409.315906 60.075931 
L 409.426298 59.866885 
L 409.427003 59.866885 
L 409.487859 59.757188 
L 409.600677 59.581259 
L 409.683865 59.471561 
L 409.794547 59.30805 
L 409.794962 59.30805 
L 409.88636 59.198353 
L 409.998846 59.059679 
L 410.077576 58.949982 
L 410.19199 58.784401 
L 410.277334 58.674704 
L 410.387394 58.502914 
L 410.388348 58.502914 
L 410.494344 58.393217 
L 410.604985 58.260752 
L 410.605399 58.260752 
L 410.689458 58.151055 
L 410.799684 57.970986 
L 410.800513 57.970986 
L 410.873541 57.861288 
L 410.984306 57.714335 
L 410.984596 57.714335 
L 411.068738 57.604638 
L 411.178922 57.451476 
L 411.179752 57.451476 
L 411.261944 57.341779 
L 411.372336 57.201035 
L 411.372958 57.201035 
L 411.445488 57.091338 
L 411.555092 56.948524 
L 411.556585 56.948524 
L 411.639441 56.838827 
L 411.748298 56.712572 
L 411.750537 56.712572 
L 411.819335 56.602874 
L 411.93039 56.445573 
L 411.930432 56.445573 
L 412.036428 56.335875 
L 412.147193 56.195132 
L 412.147525 56.195132 
L 412.233574 56.085435 
L 412.344587 55.969528 
L 412.344629 55.969528 
L 412.455767 55.859831 
L 412.566491 55.702529 
L 412.566864 55.702529 
L 412.665354 55.592832 
L 412.775165 55.495553 
L 412.77645 55.495553 
L 412.882405 55.385856 
L 412.991594 55.26581 
L 412.99346 55.26581 
L 413.109741 55.156112 
L 413.215322 55.042276 
L 413.220837 55.042276 
L 413.324718 54.932578 
L 413.431544 54.855997 
L 413.435691 54.855997 
L 413.573784 54.7463 
L 413.684798 54.632463 
L 413.886381 54.522766 
L 413.995902 54.429627 
L 413.997395 54.429627 
L 414.192177 54.31993 
L 414.297882 54.268186 
L 414.30319 54.268186 
L 414.70532 54.158488 
L 414.715563 54.144 
L 414.72 54.144 
" clip-path="url(#p42cf814a84)" style="fill: none; stroke: #ff8c00; stroke-width: 1.5; stroke-linecap: square"/>
   </g>
   <g id="line2d_14">
    <path d="M 74.605714 307.584 
L 414.72 54.144 
" clip-path="url(#p42cf814a84)" style="fill: none; stroke-dasharray: 5.55,2.4; stroke-dashoffset: 0; stroke: #0000ff; stroke-width: 1.5"/>
   </g>
   <g id="patch_3">
    <path d="M 57.6 307.584 
L 57.6 41.472 
" style="fill: none; stroke: #000000; stroke-width: 0.8; stroke-linejoin: miter; stroke-linecap: square"/>
   </g>
   <g id="patch_4">
    <path d="M 414.72 307.584 
L 414.72 41.472 
" style="fill: none; stroke: #000000; stroke-width: 0.8; stroke-linejoin: miter; stroke-linecap: square"/>
   </g>
   <g id="patch_5">
    <path d="M 57.6 307.584 
L 414.72 307.584 
" style="fill: none; stroke: #000000; stroke-width: 0.8; stroke-linejoin: miter; stroke-linecap: square"/>
   </g>
   <g id="patch_6">
    <path d="M 57.6 41.472 
L 414.72 41.472 
" style="fill: none; stroke: #000000; stroke-width: 0.8; stroke-linejoin: miter; stroke-linecap: square"/>
   </g>
   <g id="text_15">
    <!-- ROC CURVE -->
    <g transform="translate(200.855625 35.472)scale(0.12 -0.12)">
     <defs>
      <path id="DejaVuSans-4f" d="M 2522 4238 
Q 1834 4238 1429 3725 
Q 1025 3213 1025 2328 
Q 1025 1447 1429 934 
Q 1834 422 2522 422 
Q 3209 422 3611 934 
Q 4013 1447 4013 2328 
Q 4013 3213 3611 3725 
Q 3209 4238 2522 4238 
z
M 2522 4750 
Q 3503 4750 4090 4092 
Q 4678 3434 4678 2328 
Q 4678 1225 4090 567 
Q 3503 -91 2522 -91 
Q 1538 -91 948 565 
Q 359 1222 359 2328 
Q 359 3434 948 4092 
Q 1538 4750 2522 4750 
z
" transform="scale(0.015625)"/>
      <path id="DejaVuSans-43" d="M 4122 4306 
L 4122 3641 
Q 3803 3938 3442 4084 
Q 3081 4231 2675 4231 
Q 1875 4231 1450 3742 
Q 1025 3253 1025 2328 
Q 1025 1406 1450 917 
Q 1875 428 2675 428 
Q 3081 428 3442 575 
Q 3803 722 4122 1019 
L 4122 359 
Q 3791 134 3420 21 
Q 3050 -91 2638 -91 
Q 1578 -91 968 557 
Q 359 1206 359 2328 
Q 359 3453 968 4101 
Q 1578 4750 2638 4750 
Q 3056 4750 3426 4639 
Q 3797 4528 4122 4306 
z
" transform="scale(0.015625)"/>
      <path id="DejaVuSans-55" d="M 556 4666 
L 1191 4666 
L 1191 1831 
Q 1191 1081 1462 751 
Q 1734 422 2344 422 
Q 2950 422 3222 751 
Q 3494 1081 3494 1831 
L 3494 4666 
L 4128 4666 
L 4128 1753 
Q 4128 841 3676 375 
Q 3225 -91 2344 -91 
Q 1459 -91 1007 375 
Q 556 841 556 1753 
L 556 4666 
z
" transform="scale(0.015625)"/>
      <path id="DejaVuSans-56" d="M 1831 0 
L 50 4666 
L 709 4666 
L 2188 738 
L 3669 4666 
L 4325 4666 
L 2547 0 
L 1831 0 
z
" transform="scale(0.015625)"/>
      <path id="DejaVuSans-45" d="M 628 4666 
L 3578 4666 
L 3578 4134 
L 1259 4134 
L 1259 2753 
L 3481 2753 
L 3481 2222 
L 1259 2222 
L 1259 531 
L 3634 531 
L 3634 0 
L 628 0 
L 628 4666 
z
" transform="scale(0.015625)"/>
     </defs>
     <use xlink:href="#DejaVuSans-52"/>
     <use xlink:href="#DejaVuSans-4f" x="69.482422"/>
     <use xlink:href="#DejaVuSans-43" x="148.193359"/>
     <use xlink:href="#DejaVuSans-20" x="218.017578"/>
     <use xlink:href="#DejaVuSans-43" x="249.804688"/>
     <use xlink:href="#DejaVuSans-55" x="319.628906"/>
     <use xlink:href="#DejaVuSans-52" x="392.822266"/>
     <use xlink:href="#DejaVuSans-56" x="456.804688"/>
     <use xlink:href="#DejaVuSans-45" x="525.212891"/>
    </g>
   </g>
   <g id="legend_1">
    <g id="patch_7">
     <path d="M 234.97 302.584 
L 407.72 302.584 
Q 409.72 302.584 409.72 300.584 
L 409.72 286.905875 
Q 409.72 284.905875 407.72 284.905875 
L 234.97 284.905875 
Q 232.97 284.905875 232.97 286.905875 
L 232.97 300.584 
Q 232.97 302.584 234.97 302.584 
z
" style="fill: #ffffff; opacity: 0.8; stroke: #cccccc; stroke-linejoin: miter"/>
    </g>
    <g id="line2d_15">
     <path d="M 236.97 293.004312 
L 246.97 293.004312 
L 256.97 293.004312 
" style="fill: none; stroke: #ff8c00; stroke-width: 1.5; stroke-linecap: square"/>
    </g>
    <g id="text_16">
     <!-- ROC curve (ROC AUC=0.63) -->
     <g transform="translate(264.97 296.504312)scale(0.1 -0.1)">
      <defs>
       <path id="DejaVuSans-63" d="M 3122 3366 
L 3122 2828 
Q 2878 2963 2633 3030 
Q 2388 3097 2138 3097 
Q 1578 3097 1268 2742 
Q 959 2388 959 1747 
Q 959 1106 1268 751 
Q 1578 397 2138 397 
Q 2388 397 2633 464 
Q 2878 531 3122 666 
L 3122 134 
Q 2881 22 2623 -34 
Q 2366 -91 2075 -91 
Q 1284 -91 818 406 
Q 353 903 353 1747 
Q 353 2603 823 3093 
Q 1294 3584 2113 3584 
Q 2378 3584 2631 3529 
Q 2884 3475 3122 3366 
z
" transform="scale(0.015625)"/>
       <path id="DejaVuSans-28" d="M 1984 4856 
Q 1566 4138 1362 3434 
Q 1159 2731 1159 2009 
Q 1159 1288 1364 580 
Q 1569 -128 1984 -844 
L 1484 -844 
Q 1016 -109 783 600 
Q 550 1309 550 2009 
Q 550 2706 781 3412 
Q 1013 4119 1484 4856 
L 1984 4856 
z
" transform="scale(0.015625)"/>
       <path id="DejaVuSans-41" d="M 2188 4044 
L 1331 1722 
L 3047 1722 
L 2188 4044 
z
M 1831 4666 
L 2547 4666 
L 4325 0 
L 3669 0 
L 3244 1197 
L 1141 1197 
L 716 0 
L 50 0 
L 1831 4666 
z
" transform="scale(0.015625)"/>
       <path id="DejaVuSans-3d" d="M 678 2906 
L 4684 2906 
L 4684 2381 
L 678 2381 
L 678 2906 
z
M 678 1631 
L 4684 1631 
L 4684 1100 
L 678 1100 
L 678 1631 
z
" transform="scale(0.015625)"/>
       <path id="DejaVuSans-33" d="M 2597 2516 
Q 3050 2419 3304 2112 
Q 3559 1806 3559 1356 
Q 3559 666 3084 287 
Q 2609 -91 1734 -91 
Q 1441 -91 1130 -33 
Q 819 25 488 141 
L 488 750 
Q 750 597 1062 519 
Q 1375 441 1716 441 
Q 2309 441 2620 675 
Q 2931 909 2931 1356 
Q 2931 1769 2642 2001 
Q 2353 2234 1838 2234 
L 1294 2234 
L 1294 2753 
L 1863 2753 
Q 2328 2753 2575 2939 
Q 2822 3125 2822 3475 
Q 2822 3834 2567 4026 
Q 2313 4219 1838 4219 
Q 1578 4219 1281 4162 
Q 984 4106 628 3988 
L 628 4550 
Q 988 4650 1302 4700 
Q 1616 4750 1894 4750 
Q 2613 4750 3031 4423 
Q 3450 4097 3450 3541 
Q 3450 3153 3228 2886 
Q 3006 2619 2597 2516 
z
" transform="scale(0.015625)"/>
       <path id="DejaVuSans-29" d="M 513 4856 
L 1013 4856 
Q 1481 4119 1714 3412 
Q 1947 2706 1947 2009 
Q 1947 1309 1714 600 
Q 1481 -109 1013 -844 
L 513 -844 
Q 928 -128 1133 580 
Q 1338 1288 1338 2009 
Q 1338 2731 1133 3434 
Q 928 4138 513 4856 
z
" transform="scale(0.015625)"/>
      </defs>
      <use xlink:href="#DejaVuSans-52"/>
      <use xlink:href="#DejaVuSans-4f" x="69.482422"/>
      <use xlink:href="#DejaVuSans-43" x="148.193359"/>
      <use xlink:href="#DejaVuSans-20" x="218.017578"/>
      <use xlink:href="#DejaVuSans-63" x="249.804688"/>
      <use xlink:href="#DejaVuSans-75" x="304.785156"/>
      <use xlink:href="#DejaVuSans-72" x="368.164062"/>
      <use xlink:href="#DejaVuSans-76" x="409.277344"/>
      <use xlink:href="#DejaVuSans-65" x="468.457031"/>
      <use xlink:href="#DejaVuSans-20" x="529.980469"/>
      <use xlink:href="#DejaVuSans-28" x="561.767578"/>
      <use xlink:href="#DejaVuSans-52" x="600.78125"/>
      <use xlink:href="#DejaVuSans-4f" x="670.263672"/>
      <use xlink:href="#DejaVuSans-43" x="748.974609"/>
      <use xlink:href="#DejaVuSans-20" x="818.798828"/>
      <use xlink:href="#DejaVuSans-41" x="850.585938"/>
      <use xlink:href="#DejaVuSans-55" x="918.994141"/>
      <use xlink:href="#DejaVuSans-43" x="992.1875"/>
      <use xlink:href="#DejaVuSans-3d" x="1062.011719"/>
      <use xlink:href="#DejaVuSans-30" x="1145.800781"/>
      <use xlink:href="#DejaVuSans-2e" x="1209.423828"/>
      <use xlink:href="#DejaVuSans-36" x="1241.210938"/>
      <use xlink:href="#DejaVuSans-33" x="1304.833984"/>
      <use xlink:href="#DejaVuSans-29" x="1368.457031"/>
     </g>
    </g>
   </g>
  </g>
 </g>
 <defs>
  <clipPath id="p42cf814a84">
   <rect x="57.6" y="41.472" width="357.12" height="266.112"/>
  </clipPath>
 </defs>
</svg>
