<?xml version="1.0" encoding="utf-8" standalone="no"?>
<!DOCTYPE svg PUBLIC "-//W3C//DTD SVG 1.1//EN"
  "http://www.w3.org/Graphics/SVG/1.1/DTD/svg11.dtd">
<svg xmlns:xlink="http://www.w3.org/1999/xlink" width="460.8pt" height="345.6pt" viewBox="0 0 460.8 345.6" xmlns="http://www.w3.org/2000/svg" version="1.1">
 <metadata>
  <rdf:RDF xmlns:dc="http://purl.org/dc/elements/1.1/" xmlns:cc="http://creativecommons.org/ns#" xmlns:rdf="http://www.w3.org/1999/02/22-rdf-syntax-ns#">
   <cc:Work>
    <dc:type rdf:resource="http://purl.org/dc/dcmitype/StillImage"/>
    <dc:date>2022-05-21T07:43:16.322478</dc:date>
    <dc:format>image/svg+xml</dc:format>
    <dc:creator>
     <cc:Agent>
      <dc:title>Matplotlib v3.5.1, https://matplotlib.org/</dc:title>
     </cc:Agent>
    </dc:creator>
   </cc:Work>
  </rdf:RDF>
 </metadata>
 <defs>
  <style type="text/css">*{stroke-linejoin: round; stroke-linecap: butt}</style>
 </defs>
 <g id="figure_1">
  <g id="patch_1">
   <path d="M 0 345.6 
L 460.8 345.6 
L 460.8 0 
L 0 0 
z
" style="fill: #ffffff"/>
  </g>
  <g id="axes_1">
   <g id="patch_2">
    <path d="M 57.6 307.584 
L 414.72 307.584 
L 414.72 41.472 
L 57.6 41.472 
z
" style="fill: #ffffff"/>
   </g>
   <g id="matplotlib.axis_1">
    <g id="xtick_1">
     <g id="line2d_1">
      <defs>
       <path id="m200e81d2c5" d="M 0 0 
L 0 3.5 
" style="stroke: #000000; stroke-width: 0.8"/>
      </defs>
      <g>
       <use xlink:href="#m200e81d2c5" x="74.605714" y="307.584" style="stroke: #000000; stroke-width: 0.8"/>
      </g>
     </g>
     <g id="text_1">
      <!-- 0.0 -->
      <g transform="translate(66.654152 322.182437)scale(0.1 -0.1)">
       <defs>
        <path id="DejaVuSans-30" d="M 2034 4250 
Q 1547 4250 1301 3770 
Q 1056 3291 1056 2328 
Q 1056 1369 1301 889 
Q 1547 409 2034 409 
Q 2525 409 2770 889 
Q 3016 1369 3016 2328 
Q 3016 3291 2770 3770 
Q 2525 4250 2034 4250 
z
M 2034 4750 
Q 2819 4750 3233 4129 
Q 3647 3509 3647 2328 
Q 3647 1150 3233 529 
Q 2819 -91 2034 -91 
Q 1250 -91 836 529 
Q 422 1150 422 2328 
Q 422 3509 836 4129 
Q 1250 4750 2034 4750 
z
" transform="scale(0.015625)"/>
        <path id="DejaVuSans-2e" d="M 684 794 
L 1344 794 
L 1344 0 
L 684 0 
L 684 794 
z
" transform="scale(0.015625)"/>
       </defs>
       <use xlink:href="#DejaVuSans-30"/>
       <use xlink:href="#DejaVuSans-2e" x="63.623047"/>
       <use xlink:href="#DejaVuSans-30" x="95.410156"/>
      </g>
     </g>
    </g>
    <g id="xtick_2">
     <g id="line2d_2">
      <g>
       <use xlink:href="#m200e81d2c5" x="142.628571" y="307.584" style="stroke: #000000; stroke-width: 0.8"/>
      </g>
     </g>
     <g id="text_2">
      <!-- 0.2 -->
      <g transform="translate(134.677009 322.182437)scale(0.1 -0.1)">
       <defs>
        <path id="DejaVuSans-32" d="M 1228 531 
L 3431 531 
L 3431 0 
L 469 0 
L 469 531 
Q 828 903 1448 1529 
Q 2069 2156 2228 2338 
Q 2531 2678 2651 2914 
Q 2772 3150 2772 3378 
Q 2772 3750 2511 3984 
Q 2250 4219 1831 4219 
Q 1534 4219 1204 4116 
Q 875 4013 500 3803 
L 500 4441 
Q 881 4594 1212 4672 
Q 1544 4750 1819 4750 
Q 2544 4750 2975 4387 
Q 3406 4025 3406 3419 
Q 3406 3131 3298 2873 
Q 3191 2616 2906 2266 
Q 2828 2175 2409 1742 
Q 1991 1309 1228 531 
z
" transform="scale(0.015625)"/>
       </defs>
       <use xlink:href="#DejaVuSans-30"/>
       <use xlink:href="#DejaVuSans-2e" x="63.623047"/>
       <use xlink:href="#DejaVuSans-32" x="95.410156"/>
      </g>
     </g>
    </g>
    <g id="xtick_3">
     <g id="line2d_3">
      <g>
       <use xlink:href="#m200e81d2c5" x="210.651429" y="307.584" style="stroke: #000000; stroke-width: 0.8"/>
      </g>
     </g>
     <g id="text_3">
      <!-- 0.4 -->
      <g transform="translate(202.699866 322.182437)scale(0.1 -0.1)">
       <defs>
        <path id="DejaVuSans-34" d="M 2419 4116 
L 825 1625 
L 2419 1625 
L 2419 4116 
z
M 2253 4666 
L 3047 4666 
L 3047 1625 
L 3713 1625 
L 3713 1100 
L 3047 1100 
L 3047 0 
L 2419 0 
L 2419 1100 
L 313 1100 
L 313 1709 
L 2253 4666 
z
" transform="scale(0.015625)"/>
       </defs>
       <use xlink:href="#DejaVuSans-30"/>
       <use xlink:href="#DejaVuSans-2e" x="63.623047"/>
       <use xlink:href="#DejaVuSans-34" x="95.410156"/>
      </g>
     </g>
    </g>
    <g id="xtick_4">
     <g id="line2d_4">
      <g>
       <use xlink:href="#m200e81d2c5" x="278.674286" y="307.584" style="stroke: #000000; stroke-width: 0.8"/>
      </g>
     </g>
     <g id="text_4">
      <!-- 0.6 -->
      <g transform="translate(270.722723 322.182437)scale(0.1 -0.1)">
       <defs>
        <path id="DejaVuSans-36" d="M 2113 2584 
Q 1688 2584 1439 2293 
Q 1191 2003 1191 1497 
Q 1191 994 1439 701 
Q 1688 409 2113 409 
Q 2538 409 2786 701 
Q 3034 994 3034 1497 
Q 3034 2003 2786 2293 
Q 2538 2584 2113 2584 
z
M 3366 4563 
L 3366 3988 
Q 3128 4100 2886 4159 
Q 2644 4219 2406 4219 
Q 1781 4219 1451 3797 
Q 1122 3375 1075 2522 
Q 1259 2794 1537 2939 
Q 1816 3084 2150 3084 
Q 2853 3084 3261 2657 
Q 3669 2231 3669 1497 
Q 3669 778 3244 343 
Q 2819 -91 2113 -91 
Q 1303 -91 875 529 
Q 447 1150 447 2328 
Q 447 3434 972 4092 
Q 1497 4750 2381 4750 
Q 2619 4750 2861 4703 
Q 3103 4656 3366 4563 
z
" transform="scale(0.015625)"/>
       </defs>
       <use xlink:href="#DejaVuSans-30"/>
       <use xlink:href="#DejaVuSans-2e" x="63.623047"/>
       <use xlink:href="#DejaVuSans-36" x="95.410156"/>
      </g>
     </g>
    </g>
    <g id="xtick_5">
     <g id="line2d_5">
      <g>
       <use xlink:href="#m200e81d2c5" x="346.697143" y="307.584" style="stroke: #000000; stroke-width: 0.8"/>
      </g>
     </g>
     <g id="text_5">
      <!-- 0.8 -->
      <g transform="translate(338.74558 322.182437)scale(0.1 -0.1)">
       <defs>
        <path id="DejaVuSans-38" d="M 2034 2216 
Q 1584 2216 1326 1975 
Q 1069 1734 1069 1313 
Q 1069 891 1326 650 
Q 1584 409 2034 409 
Q 2484 409 2743 651 
Q 3003 894 3003 1313 
Q 3003 1734 2745 1975 
Q 2488 2216 2034 2216 
z
M 1403 2484 
Q 997 2584 770 2862 
Q 544 3141 544 3541 
Q 544 4100 942 4425 
Q 1341 4750 2034 4750 
Q 2731 4750 3128 4425 
Q 3525 4100 3525 3541 
Q 3525 3141 3298 2862 
Q 3072 2584 2669 2484 
Q 3125 2378 3379 2068 
Q 3634 1759 3634 1313 
Q 3634 634 3220 271 
Q 2806 -91 2034 -91 
Q 1263 -91 848 271 
Q 434 634 434 1313 
Q 434 1759 690 2068 
Q 947 2378 1403 2484 
z
M 1172 3481 
Q 1172 3119 1398 2916 
Q 1625 2713 2034 2713 
Q 2441 2713 2670 2916 
Q 2900 3119 2900 3481 
Q 2900 3844 2670 4047 
Q 2441 4250 2034 4250 
Q 1625 4250 1398 4047 
Q 1172 3844 1172 3481 
z
" transform="scale(0.015625)"/>
       </defs>
       <use xlink:href="#DejaVuSans-30"/>
       <use xlink:href="#DejaVuSans-2e" x="63.623047"/>
       <use xlink:href="#DejaVuSans-38" x="95.410156"/>
      </g>
     </g>
    </g>
    <g id="xtick_6">
     <g id="line2d_6">
      <g>
       <use xlink:href="#m200e81d2c5" x="414.72" y="307.584" style="stroke: #000000; stroke-width: 0.8"/>
      </g>
     </g>
     <g id="text_6">
      <!-- 1.0 -->
      <g transform="translate(406.768438 322.182437)scale(0.1 -0.1)">
       <defs>
        <path id="DejaVuSans-31" d="M 794 531 
L 1825 531 
L 1825 4091 
L 703 3866 
L 703 4441 
L 1819 4666 
L 2450 4666 
L 2450 531 
L 3481 531 
L 3481 0 
L 794 0 
L 794 531 
z
" transform="scale(0.015625)"/>
       </defs>
       <use xlink:href="#DejaVuSans-31"/>
       <use xlink:href="#DejaVuSans-2e" x="63.623047"/>
       <use xlink:href="#DejaVuSans-30" x="95.410156"/>
      </g>
     </g>
    </g>
    <g id="text_7">
     <!-- False Positive Rate -->
     <g transform="translate(189.693594 335.860562)scale(0.1 -0.1)">
      <defs>
       <path id="DejaVuSans-46" d="M 628 4666 
L 3309 4666 
L 3309 4134 
L 1259 4134 
L 1259 2759 
L 3109 2759 
L 3109 2228 
L 1259 2228 
L 1259 0 
L 628 0 
L 628 4666 
z
" transform="scale(0.015625)"/>
       <path id="DejaVuSans-61" d="M 2194 1759 
Q 1497 1759 1228 1600 
Q 959 1441 959 1056 
Q 959 750 1161 570 
Q 1363 391 1709 391 
Q 2188 391 2477 730 
Q 2766 1069 2766 1631 
L 2766 1759 
L 2194 1759 
z
M 3341 1997 
L 3341 0 
L 2766 0 
L 2766 531 
Q 2569 213 2275 61 
Q 1981 -91 1556 -91 
Q 1019 -91 701 211 
Q 384 513 384 1019 
Q 384 1609 779 1909 
Q 1175 2209 1959 2209 
L 2766 2209 
L 2766 2266 
Q 2766 2663 2505 2880 
Q 2244 3097 1772 3097 
Q 1472 3097 1187 3025 
Q 903 2953 641 2809 
L 641 3341 
Q 956 3463 1253 3523 
Q 1550 3584 1831 3584 
Q 2591 3584 2966 3190 
Q 3341 2797 3341 1997 
z
" transform="scale(0.015625)"/>
       <path id="DejaVuSans-6c" d="M 603 4863 
L 1178 4863 
L 1178 0 
L 603 0 
L 603 4863 
z
" transform="scale(0.015625)"/>
       <path id="DejaVuSans-73" d="M 2834 3397 
L 2834 2853 
Q 2591 2978 2328 3040 
Q 2066 3103 1784 3103 
Q 1356 3103 1142 2972 
Q 928 2841 928 2578 
Q 928 2378 1081 2264 
Q 1234 2150 1697 2047 
L 1894 2003 
Q 2506 1872 2764 1633 
Q 3022 1394 3022 966 
Q 3022 478 2636 193 
Q 2250 -91 1575 -91 
Q 1294 -91 989 -36 
Q 684 19 347 128 
L 347 722 
Q 666 556 975 473 
Q 1284 391 1588 391 
Q 1994 391 2212 530 
Q 2431 669 2431 922 
Q 2431 1156 2273 1281 
Q 2116 1406 1581 1522 
L 1381 1569 
Q 847 1681 609 1914 
Q 372 2147 372 2553 
Q 372 3047 722 3315 
Q 1072 3584 1716 3584 
Q 2034 3584 2315 3537 
Q 2597 3491 2834 3397 
z
" transform="scale(0.015625)"/>
       <path id="DejaVuSans-65" d="M 3597 1894 
L 3597 1613 
L 953 1613 
Q 991 1019 1311 708 
Q 1631 397 2203 397 
Q 2534 397 2845 478 
Q 3156 559 3463 722 
L 3463 178 
Q 3153 47 2828 -22 
Q 2503 -91 2169 -91 
Q 1331 -91 842 396 
Q 353 884 353 1716 
Q 353 2575 817 3079 
Q 1281 3584 2069 3584 
Q 2775 3584 3186 3129 
Q 3597 2675 3597 1894 
z
M 3022 2063 
Q 3016 2534 2758 2815 
Q 2500 3097 2075 3097 
Q 1594 3097 1305 2825 
Q 1016 2553 972 2059 
L 3022 2063 
z
" transform="scale(0.015625)"/>
       <path id="DejaVuSans-20" transform="scale(0.015625)"/>
       <path id="DejaVuSans-50" d="M 1259 4147 
L 1259 2394 
L 2053 2394 
Q 2494 2394 2734 2622 
Q 2975 2850 2975 3272 
Q 2975 3691 2734 3919 
Q 2494 4147 2053 4147 
L 1259 4147 
z
M 628 4666 
L 2053 4666 
Q 2838 4666 3239 4311 
Q 3641 3956 3641 3272 
Q 3641 2581 3239 2228 
Q 2838 1875 2053 1875 
L 1259 1875 
L 1259 0 
L 628 0 
L 628 4666 
z
" transform="scale(0.015625)"/>
       <path id="DejaVuSans-6f" d="M 1959 3097 
Q 1497 3097 1228 2736 
Q 959 2375 959 1747 
Q 959 1119 1226 758 
Q 1494 397 1959 397 
Q 2419 397 2687 759 
Q 2956 1122 2956 1747 
Q 2956 2369 2687 2733 
Q 2419 3097 1959 3097 
z
M 1959 3584 
Q 2709 3584 3137 3096 
Q 3566 2609 3566 1747 
Q 3566 888 3137 398 
Q 2709 -91 1959 -91 
Q 1206 -91 779 398 
Q 353 888 353 1747 
Q 353 2609 779 3096 
Q 1206 3584 1959 3584 
z
" transform="scale(0.015625)"/>
       <path id="DejaVuSans-69" d="M 603 3500 
L 1178 3500 
L 1178 0 
L 603 0 
L 603 3500 
z
M 603 4863 
L 1178 4863 
L 1178 4134 
L 603 4134 
L 603 4863 
z
" transform="scale(0.015625)"/>
       <path id="DejaVuSans-74" d="M 1172 4494 
L 1172 3500 
L 2356 3500 
L 2356 3053 
L 1172 3053 
L 1172 1153 
Q 1172 725 1289 603 
Q 1406 481 1766 481 
L 2356 481 
L 2356 0 
L 1766 0 
Q 1100 0 847 248 
Q 594 497 594 1153 
L 594 3053 
L 172 3053 
L 172 3500 
L 594 3500 
L 594 4494 
L 1172 4494 
z
" transform="scale(0.015625)"/>
       <path id="DejaVuSans-76" d="M 191 3500 
L 800 3500 
L 1894 563 
L 2988 3500 
L 3597 3500 
L 2284 0 
L 1503 0 
L 191 3500 
z
" transform="scale(0.015625)"/>
       <path id="DejaVuSans-52" d="M 2841 2188 
Q 3044 2119 3236 1894 
Q 3428 1669 3622 1275 
L 4263 0 
L 3584 0 
L 2988 1197 
Q 2756 1666 2539 1819 
Q 2322 1972 1947 1972 
L 1259 1972 
L 1259 0 
L 628 0 
L 628 4666 
L 2053 4666 
Q 2853 4666 3247 4331 
Q 3641 3997 3641 3322 
Q 3641 2881 3436 2590 
Q 3231 2300 2841 2188 
z
M 1259 4147 
L 1259 2491 
L 2053 2491 
Q 2509 2491 2742 2702 
Q 2975 2913 2975 3322 
Q 2975 3731 2742 3939 
Q 2509 4147 2053 4147 
L 1259 4147 
z
" transform="scale(0.015625)"/>
      </defs>
      <use xlink:href="#DejaVuSans-46"/>
      <use xlink:href="#DejaVuSans-61" x="48.394531"/>
      <use xlink:href="#DejaVuSans-6c" x="109.673828"/>
      <use xlink:href="#DejaVuSans-73" x="137.457031"/>
      <use xlink:href="#DejaVuSans-65" x="189.556641"/>
      <use xlink:href="#DejaVuSans-20" x="251.080078"/>
      <use xlink:href="#DejaVuSans-50" x="282.867188"/>
      <use xlink:href="#DejaVuSans-6f" x="339.544922"/>
      <use xlink:href="#DejaVuSans-73" x="400.726562"/>
      <use xlink:href="#DejaVuSans-69" x="452.826172"/>
      <use xlink:href="#DejaVuSans-74" x="480.609375"/>
      <use xlink:href="#DejaVuSans-69" x="519.818359"/>
      <use xlink:href="#DejaVuSans-76" x="547.601562"/>
      <use xlink:href="#DejaVuSans-65" x="606.78125"/>
      <use xlink:href="#DejaVuSans-20" x="668.304688"/>
      <use xlink:href="#DejaVuSans-52" x="700.091797"/>
      <use xlink:href="#DejaVuSans-61" x="767.324219"/>
      <use xlink:href="#DejaVuSans-74" x="828.603516"/>
      <use xlink:href="#DejaVuSans-65" x="867.8125"/>
     </g>
    </g>
   </g>
   <g id="matplotlib.axis_2">
    <g id="ytick_1">
     <g id="line2d_7">
      <defs>
       <path id="mf4f9489afc" d="M 0 0 
L -3.5 0 
" style="stroke: #000000; stroke-width: 0.8"/>
      </defs>
      <g>
       <use xlink:href="#mf4f9489afc" x="57.6" y="307.584" style="stroke: #000000; stroke-width: 0.8"/>
      </g>
     </g>
     <g id="text_8">
      <!-- 0.0 -->
      <g transform="translate(34.696875 311.383219)scale(0.1 -0.1)">
       <use xlink:href="#DejaVuSans-30"/>
       <use xlink:href="#DejaVuSans-2e" x="63.623047"/>
       <use xlink:href="#DejaVuSans-30" x="95.410156"/>
      </g>
     </g>
    </g>
    <g id="ytick_2">
     <g id="line2d_8">
      <g>
       <use xlink:href="#mf4f9489afc" x="57.6" y="256.896" style="stroke: #000000; stroke-width: 0.8"/>
      </g>
     </g>
     <g id="text_9">
      <!-- 0.2 -->
      <g transform="translate(34.696875 260.695219)scale(0.1 -0.1)">
       <use xlink:href="#DejaVuSans-30"/>
       <use xlink:href="#DejaVuSans-2e" x="63.623047"/>
       <use xlink:href="#DejaVuSans-32" x="95.410156"/>
      </g>
     </g>
    </g>
    <g id="ytick_3">
     <g id="line2d_9">
      <g>
       <use xlink:href="#mf4f9489afc" x="57.6" y="206.208" style="stroke: #000000; stroke-width: 0.8"/>
      </g>
     </g>
     <g id="text_10">
      <!-- 0.4 -->
      <g transform="translate(34.696875 210.007219)scale(0.1 -0.1)">
       <use xlink:href="#DejaVuSans-30"/>
       <use xlink:href="#DejaVuSans-2e" x="63.623047"/>
       <use xlink:href="#DejaVuSans-34" x="95.410156"/>
      </g>
     </g>
    </g>
    <g id="ytick_4">
     <g id="line2d_10">
      <g>
       <use xlink:href="#mf4f9489afc" x="57.6" y="155.52" style="stroke: #000000; stroke-width: 0.8"/>
      </g>
     </g>
     <g id="text_11">
      <!-- 0.6 -->
      <g transform="translate(34.696875 159.319219)scale(0.1 -0.1)">
       <use xlink:href="#DejaVuSans-30"/>
       <use xlink:href="#DejaVuSans-2e" x="63.623047"/>
       <use xlink:href="#DejaVuSans-36" x="95.410156"/>
      </g>
     </g>
    </g>
    <g id="ytick_5">
     <g id="line2d_11">
      <g>
       <use xlink:href="#mf4f9489afc" x="57.6" y="104.832" style="stroke: #000000; stroke-width: 0.8"/>
      </g>
     </g>
     <g id="text_12">
      <!-- 0.8 -->
      <g transform="translate(34.696875 108.631219)scale(0.1 -0.1)">
       <use xlink:href="#DejaVuSans-30"/>
       <use xlink:href="#DejaVuSans-2e" x="63.623047"/>
       <use xlink:href="#DejaVuSans-38" x="95.410156"/>
      </g>
     </g>
    </g>
    <g id="ytick_6">
     <g id="line2d_12">
      <g>
       <use xlink:href="#mf4f9489afc" x="57.6" y="54.144" style="stroke: #000000; stroke-width: 0.8"/>
      </g>
     </g>
     <g id="text_13">
      <!-- 1.0 -->
      <g transform="translate(34.696875 57.943219)scale(0.1 -0.1)">
       <use xlink:href="#DejaVuSans-31"/>
       <use xlink:href="#DejaVuSans-2e" x="63.623047"/>
       <use xlink:href="#DejaVuSans-30" x="95.410156"/>
      </g>
     </g>
    </g>
    <g id="text_14">
     <!-- True Positive Rate -->
     <g transform="translate(28.617187 219.057687)rotate(-90)scale(0.1 -0.1)">
      <defs>
       <path id="DejaVuSans-54" d="M -19 4666 
L 3928 4666 
L 3928 4134 
L 2272 4134 
L 2272 0 
L 1638 0 
L 1638 4134 
L -19 4134 
L -19 4666 
z
" transform="scale(0.015625)"/>
       <path id="DejaVuSans-72" d="M 2631 2963 
Q 2534 3019 2420 3045 
Q 2306 3072 2169 3072 
Q 1681 3072 1420 2755 
Q 1159 2438 1159 1844 
L 1159 0 
L 581 0 
L 581 3500 
L 1159 3500 
L 1159 2956 
Q 1341 3275 1631 3429 
Q 1922 3584 2338 3584 
Q 2397 3584 2469 3576 
Q 2541 3569 2628 3553 
L 2631 2963 
z
" transform="scale(0.015625)"/>
       <path id="DejaVuSans-75" d="M 544 1381 
L 544 3500 
L 1119 3500 
L 1119 1403 
Q 1119 906 1312 657 
Q 1506 409 1894 409 
Q 2359 409 2629 706 
Q 2900 1003 2900 1516 
L 2900 3500 
L 3475 3500 
L 3475 0 
L 2900 0 
L 2900 538 
Q 2691 219 2414 64 
Q 2138 -91 1772 -91 
Q 1169 -91 856 284 
Q 544 659 544 1381 
z
M 1991 3584 
L 1991 3584 
z
" transform="scale(0.015625)"/>
      </defs>
      <use xlink:href="#DejaVuSans-54"/>
      <use xlink:href="#DejaVuSans-72" x="46.333984"/>
      <use xlink:href="#DejaVuSans-75" x="87.447266"/>
      <use xlink:href="#DejaVuSans-65" x="150.826172"/>
      <use xlink:href="#DejaVuSans-20" x="212.349609"/>
      <use xlink:href="#DejaVuSans-50" x="244.136719"/>
      <use xlink:href="#DejaVuSans-6f" x="300.814453"/>
      <use xlink:href="#DejaVuSans-73" x="361.996094"/>
      <use xlink:href="#DejaVuSans-69" x="414.095703"/>
      <use xlink:href="#DejaVuSans-74" x="441.878906"/>
      <use xlink:href="#DejaVuSans-69" x="481.087891"/>
      <use xlink:href="#DejaVuSans-76" x="508.871094"/>
      <use xlink:href="#DejaVuSans-65" x="568.050781"/>
      <use xlink:href="#DejaVuSans-20" x="629.574219"/>
      <use xlink:href="#DejaVuSans-52" x="661.361328"/>
      <use xlink:href="#DejaVuSans-61" x="728.59375"/>
      <use xlink:href="#DejaVuSans-74" x="789.873047"/>
      <use xlink:href="#DejaVuSans-65" x="829.082031"/>
     </g>
    </g>
   </g>
   <g id="line2d_13">
    <path d="M 74.605714 307.584 
L 74.611313 307.474303 
L 74.722326 306.20554 
L 74.73908 306.095843 
L 74.850052 305.212055 
L 74.850135 305.212055 
L 74.864235 305.102358 
L 74.97529 304.382082 
L 74.995776 304.272385 
L 75.106873 303.696991 
L 75.123875 303.589364 
L 75.123875 303.587294 
L 75.234765 303.02225 
L 75.234806 303.02225 
L 75.261056 302.912552 
L 75.37207 302.41788 
L 75.394173 302.308183 
L 75.504772 301.792812 
L 75.50527 301.792812 
L 75.523807 301.683115 
L 75.634447 301.289861 
L 75.634821 301.289861 
L 75.663476 301.180164 
L 75.773121 300.766212 
L 75.774531 300.766212 
L 75.810236 300.656514 
L 75.918555 300.217725 
L 75.921292 300.217725 
L 75.955545 300.108028 
L 76.066518 299.770657 
L 76.066642 299.770657 
L 76.103301 299.66096 
L 76.214108 299.263566 
L 76.263415 299.153869 
L 76.380504 298.853754 
L 76.425996 298.744057 
L 76.540348 298.417034 
L 76.579163 298.307337 
L 76.689679 298.02171 
L 76.69026 298.02171 
L 76.80708 297.734014 
L 76.844651 297.624317 
L 76.954752 297.286946 
L 76.955416 297.286946 
L 76.99759 297.177248 
L 77.106116 296.90818 
L 77.108521 296.90818 
L 77.147544 296.798482 
L 77.258475 296.531483 
L 77.313588 296.421786 
L 77.424643 296.179624 
L 77.465905 296.069927 
L 77.577002 295.819486 
L 77.627594 295.709789 
L 77.738235 295.448999 
L 77.738401 295.448999 
L 77.785303 295.339302 
L 77.896026 295.128186 
L 77.896399 295.128186 
L 77.960677 295.018489 
L 78.071318 294.794955 
L 78.071774 294.794955 
L 78.12245 294.685258 
L 78.232551 294.395491 
L 78.233422 294.395491 
L 78.289364 294.285794 
L 78.40382 294.116074 
L 78.462084 294.006377 
L 78.572476 293.762145 
L 78.573015 293.762145 
L 78.628584 293.652448 
L 78.739681 293.420635 
L 78.798153 293.310937 
L 78.906762 293.087403 
L 78.908877 293.087403 
L 78.951922 292.977706 
L 79.061152 292.762451 
L 79.062355 292.762451 
L 79.114109 292.652754 
L 79.225081 292.443708 
L 79.286415 292.334011 
L 79.401824 292.108407 
L 79.48074 291.99871 
L 79.591837 291.773106 
L 79.642471 291.663409 
L 79.758296 291.419177 
L 79.806732 291.30948 
L 79.916958 291.069388 
L 79.917787 291.069388 
L 79.986004 290.958656 
L 80.095816 290.767203 
L 80.097101 290.767203 
L 80.16001 290.657506 
L 80.26837 290.469157 
L 80.271066 290.469157 
L 80.328874 290.35946 
L 80.438146 290.169042 
L 80.439888 290.169042 
L 80.508312 290.061415 
L 80.619326 289.84823 
L 80.619409 289.84823 
L 80.687004 289.738532 
L 80.793788 289.533626 
L 80.797686 289.533626 
L 80.878801 289.423929 
L 80.989649 289.231441 
L 81.046337 289.121744 
L 81.046337 289.120709 
L 81.164235 288.952024 
L 81.214164 288.842326 
L 81.325095 288.666397 
L 81.325178 288.666397 
L 81.395178 288.556699 
L 81.504865 288.37663 
L 81.506275 288.37663 
L 81.569101 288.266933 
L 81.678498 288.088934 
L 81.679949 288.088934 
L 81.736306 287.979237 
L 81.847237 287.807446 
L 81.847279 287.807446 
L 81.902101 287.697749 
L 82.009797 287.554936 
L 82.013156 287.554936 
L 82.074905 287.445239 
L 82.184716 287.273449 
L 82.18596 287.273449 
L 82.266079 287.163751 
L 82.384433 286.983682 
L 82.453894 286.873985 
L 82.562254 286.714613 
L 82.564866 286.714613 
L 82.640341 286.604916 
L 82.750069 286.457963 
L 82.751272 286.457963 
L 82.828446 286.348266 
L 82.943483 286.151639 
L 83.01311 286.041942 
L 83.123004 285.859803 
L 83.124165 285.859803 
L 83.19487 285.750105 
L 83.305345 285.567967 
L 83.30576 285.567967 
L 83.372028 285.458269 
L 83.485323 285.300968 
L 83.579624 285.19127 
L 83.689145 285.038108 
L 83.690679 285.038108 
L 83.76209 284.927376 
L 83.871777 284.735923 
L 83.873187 284.735923 
L 83.933856 284.626226 
L 84.048271 284.456506 
L 84.106991 284.346808 
L 84.217881 284.168809 
L 84.217922 284.168809 
L 84.314048 284.059112 
L 84.427592 283.922508 
L 84.518908 283.81281 
L 84.626438 283.659648 
L 84.62988 283.659648 
L 84.700378 283.549951 
L 84.811392 283.367812 
L 84.811475 283.367812 
L 84.895803 283.258115 
L 85.012021 283.086325 
L 85.092099 282.976627 
L 85.202076 282.835884 
L 85.203154 282.835884 
L 85.294511 282.726187 
L 85.405483 282.595792 
L 85.405608 282.595792 
L 85.479755 282.486094 
L 85.587037 282.34949 
L 85.59081 282.34949 
L 85.649821 282.239793 
L 85.763614 282.105259 
L 85.846677 281.995561 
L 85.956944 281.846539 
L 85.957732 281.846539 
L 86.036441 281.736841 
L 86.146626 281.560912 
L 86.147538 281.560912 
L 86.220649 281.451215 
L 86.331683 281.306331 
L 86.331704 281.306331 
L 86.42472 281.196634 
L 86.535734 281.035193 
L 86.535817 281.035193 
L 86.624603 280.925496 
L 86.735658 280.772333 
L 86.823532 280.662636 
L 86.937241 280.530172 
L 87.023 280.420474 
L 87.133723 280.254894 
L 87.133972 280.254894 
L 87.22732 280.145196 
L 87.33709 280.006522 
L 87.338292 280.006522 
L 87.429525 279.896825 
L 87.547547 279.725035 
L 87.656488 279.615338 
L 87.770072 279.491152 
L 87.856329 279.381455 
L 87.966969 279.215874 
L 87.967426 279.215874 
L 88.058119 279.106177 
L 88.173653 278.959224 
L 88.256468 278.848492 
L 88.377932 278.723271 
L 88.470201 278.612539 
L 88.580344 278.47904 
L 88.581257 278.47904 
L 88.673941 278.369342 
L 88.783669 278.226529 
L 88.784955 278.226529 
L 88.880625 278.116832 
L 88.98998 277.976088 
L 88.991597 277.976088 
L 89.096349 277.866391 
L 89.213832 277.707019 
L 89.307636 277.597322 
L 89.413632 277.487625 
L 89.418712 277.487625 
L 89.495368 277.377928 
L 89.61169 277.247533 
L 89.70624 277.137835 
L 89.816342 276.999162 
L 89.81713 276.999162 
L 89.918357 276.889464 
L 90.030739 276.761139 
L 90.149093 276.653512 
L 90.264295 276.516908 
L 90.372904 276.40721 
L 90.487401 276.23542 
L 90.566732 276.125723 
L 90.684712 275.949793 
L 90.781461 275.840096 
L 90.900602 275.703492 
L 90.984993 275.593795 
L 91.098827 275.455121 
L 91.197731 275.345424 
L 91.311482 275.212959 
L 91.376631 275.103262 
L 91.48723 274.972867 
L 91.487686 274.972867 
L 91.605169 274.86317 
L 91.716183 274.712077 
L 91.716265 274.712077 
L 91.829311 274.60238 
L 91.94244 274.498892 
L 92.044787 274.389195 
L 92.157791 274.275358 
L 92.227294 274.165661 
L 92.341501 274.004219 
L 92.43319 273.894522 
L 92.54665 273.774476 
L 92.656793 273.664779 
L 92.771083 273.505407 
L 92.875047 273.39571 
L 92.983282 273.269455 
L 92.986019 273.269455 
L 93.080569 273.159757 
L 93.190878 273.023153 
L 93.191666 273.023153 
L 93.298865 272.913456 
L 93.409754 272.79341 
L 93.409837 272.79341 
L 93.524625 272.683713 
L 93.639205 272.501574 
L 93.757351 272.391877 
L 93.865752 272.261482 
L 93.868365 272.261482 
L 93.996547 272.151784 
L 94.103912 272.033808 
L 94.107602 272.033808 
L 94.208829 271.924111 
L 94.317479 271.795786 
L 94.319843 271.795786 
L 94.413896 271.686089 
L 94.53084 271.541205 
L 94.645752 271.431508 
L 94.755397 271.292834 
L 94.756558 271.292834 
L 94.840368 271.185207 
L 94.840368 271.183137 
L 94.953331 271.089998 
L 95.06084 270.980301 
L 95.176105 270.837487 
L 95.274968 270.72779 
L 95.38876 270.589116 
L 95.482647 270.479419 
L 95.595651 270.38214 
L 95.707909 270.272443 
L 95.821577 270.144118 
L 95.931388 270.03442 
L 96.041863 269.912305 
L 96.042402 269.912305 
L 96.153913 269.802607 
L 96.264388 269.663933 
L 96.26501 269.663933 
L 96.35251 269.554236 
L 96.465722 269.442469 
L 96.569769 269.332772 
L 96.674148 269.196168 
L 96.680824 269.196168 
L 96.805399 269.08647 
L 96.920891 268.976773 
L 97.016354 268.867076 
L 97.13027 268.724262 
L 97.221773 268.614565 
L 97.336291 268.500728 
L 97.440213 268.391031 
L 97.553839 268.250288 
L 97.652827 268.14059 
L 97.768195 268.035033 
L 97.873652 267.925335 
L 97.993499 267.782522 
L 98.11629 267.672825 
L 98.236593 267.521732 
L 98.341096 267.412035 
L 98.460238 267.27957 
L 98.550765 267.169873 
L 98.66435 267.043618 
L 98.759564 266.93392 
L 98.873066 266.811805 
L 98.962101 266.702107 
L 99.075105 266.602759 
L 99.177162 266.493062 
L 99.292364 266.391643 
L 99.40147 266.281946 
L 99.515179 266.143272 
L 99.637722 266.033575 
L 99.751638 265.892831 
L 99.855271 265.783134 
L 99.963091 265.640321 
L 99.966326 265.640321 
L 100.055568 265.530623 
L 100.169029 265.412647 
L 100.302726 265.30295 
L 100.410754 265.189113 
L 100.413698 265.189113 
L 100.533504 265.079416 
L 100.647379 264.938672 
L 100.773902 264.816556 
L 100.8427 264.706859 
L 100.95558 264.61579 
L 101.053489 264.506092 
L 101.164088 264.379837 
L 101.164503 264.379837 
L 101.283852 264.245303 
L 101.406021 264.135605 
L 101.525039 264.00521 
L 101.654838 263.895513 
L 101.771492 263.758909 
L 101.866374 263.649212 
L 101.979544 263.545724 
L 102.099474 263.436027 
L 102.213266 263.301492 
L 102.328551 263.191795 
L 102.444334 263.073819 
L 102.567166 262.964121 
L 102.681829 262.873052 
L 102.778992 262.763355 
L 102.887228 262.643309 
L 102.890089 262.643309 
L 103.005623 262.533611 
L 103.119042 262.409426 
L 103.242455 262.299729 
L 103.355584 262.19831 
L 103.446547 262.088613 
L 103.56007 261.989265 
L 103.669632 261.879567 
L 103.782678 261.778149 
L 103.890374 261.668452 
L 104.001181 261.562894 
L 104.001388 261.562894 
L 104.114309 261.453197 
L 104.242616 261.316593 
L 104.319334 261.206895 
L 104.436195 261.064082 
L 104.542274 260.95335 
L 104.653039 260.861246 
L 104.653371 260.861246 
L 104.749165 260.753618 
L 104.749165 260.751548 
L 104.86528 260.627363 
L 104.970239 260.517665 
L 105.087598 260.416247 
L 105.213997 260.30862 
L 105.213997 260.30655 
L 105.327872 260.167876 
L 105.430986 260.060249 
L 105.544094 259.923644 
L 105.650255 259.813947 
L 105.761145 259.70218 
L 105.761352 259.70218 
L 105.882484 259.606971 
L 105.97409 259.497274 
L 106.089583 259.389646 
L 106.193505 259.279949 
L 106.309454 259.155764 
L 106.399318 259.046066 
L 106.512157 258.959136 
L 106.631174 258.849439 
L 106.74957 258.731463 
L 106.856353 258.621766 
L 106.964174 258.512068 
L 106.967243 258.512068 
L 107.105792 258.402371 
L 107.218382 258.32165 
L 107.309449 258.210918 
L 107.425646 258.085698 
L 107.569504 257.976001 
L 107.684125 257.884931 
L 107.798934 257.775234 
L 107.912954 257.680025 
L 108.023636 257.570328 
L 108.137179 257.444072 
L 108.259307 257.334375 
L 108.365179 257.220538 
L 108.370321 257.220538 
L 108.460641 257.110841 
L 108.560914 257.015632 
L 108.571717 257.015632 
L 108.695939 256.905935 
L 108.812178 256.77761 
L 108.932481 256.667912 
L 109.046128 256.539587 
L 109.173501 256.42989 
L 109.28804 256.34503 
L 109.417342 256.235333 
L 109.530471 256.133914 
L 109.641277 256.024217 
L 109.751669 255.924869 
L 109.752332 255.924869 
L 109.845348 255.815172 
L 109.955574 255.676498 
L 109.956362 255.676498 
L 110.079609 255.5668 
L 110.19676 255.448824 
L 110.32345 255.339127 
L 110.447236 255.217011 
L 110.573842 255.107314 
L 110.694228 254.995547 
L 110.826184 254.885849 
L 110.945782 254.747176 
L 111.055261 254.637478 
L 111.169261 254.5402 
L 111.274199 254.430502 
L 111.388261 254.333224 
L 111.489198 254.222491 
L 111.604359 254.120038 
L 111.721966 254.010341 
L 111.843098 253.915132 
L 111.950795 253.805435 
L 112.065789 253.708156 
L 112.22101 253.598459 
L 112.340732 253.517738 
L 112.460869 253.408041 
L 112.571758 253.302483 
L 112.571924 253.302483 
L 112.684099 253.192786 
L 112.805646 253.066531 
L 112.955517 252.956833 
L 113.073332 252.847136 
L 113.215489 252.737439 
L 113.331769 252.654649 
L 113.46696 252.544951 
L 113.580006 252.445603 
L 113.684094 252.335906 
L 113.803319 252.203441 
L 113.909087 252.093744 
L 114.025305 251.992325 
L 114.187367 251.882628 
L 114.301699 251.801908 
L 114.409353 251.69221 
L 114.529926 251.578373 
L 114.663147 251.468676 
L 114.781604 251.34863 
L 114.904665 251.238933 
L 115.029156 251.110608 
L 115.168369 251.000911 
L 115.287635 250.901562 
L 115.428383 250.79083 
L 115.547732 250.690447 
L 115.701169 250.582819 
L 115.81492 250.49175 
L 115.933356 250.382052 
L 116.048102 250.293053 
L 116.208257 250.183355 
L 116.332832 250.052961 
L 116.486061 249.943263 
L 116.60201 249.823217 
L 116.715471 249.71352 
L 116.828599 249.612102 
L 116.965241 249.502405 
L 117.081936 249.411335 
L 117.19718 249.303708 
L 117.310889 249.237475 
L 117.41871 249.127778 
L 117.528189 249.02222 
L 117.529641 249.02222 
L 117.649114 248.912523 
L 117.764814 248.821454 
L 117.893494 248.711756 
L 118.00882 248.606199 
L 118.126386 248.496501 
L 118.239515 248.390944 
L 118.349907 248.281246 
L 118.47672 248.157061 
L 118.585495 248.047364 
L 118.71857 247.919038 
L 118.869021 247.809341 
L 118.983187 247.73483 
L 119.101665 247.625133 
L 119.220724 247.529924 
L 119.356122 247.420226 
L 119.481069 247.310529 
L 119.600336 247.200832 
L 119.720721 247.089065 
L 119.848862 246.979368 
L 119.961535 246.900717 
L 120.079971 246.791019 
L 120.193266 246.679252 
L 120.342307 246.569555 
L 120.465803 246.472276 
L 120.578973 246.362579 
L 120.695503 246.273579 
L 120.819248 246.163882 
L 120.942785 246.043836 
L 121.075114 245.934139 
L 121.187994 245.843069 
L 121.339233 245.733372 
L 121.339233 245.732337 
L 121.462398 245.638163 
L 121.621557 245.528466 
L 121.733649 245.427048 
L 121.885386 245.317351 
L 121.998349 245.220072 
L 122.119979 245.110375 
L 122.238208 244.994468 
L 122.397534 244.884771 
L 122.513151 244.773004 
L 122.653691 244.663306 
L 122.770137 244.576377 
L 122.928053 244.466679 
L 123.041472 244.350773 
L 123.17546 244.241076 
L 123.30866 244.127239 
L 123.428548 244.017541 
L 123.541552 243.955449 
L 123.673633 243.845751 
L 123.789249 243.733984 
L 123.949861 243.624287 
L 124.07402 243.518729 
L 124.254288 243.409032 
L 124.367126 243.322102 
L 124.481499 243.239312 
L 124.60881 243.129615 
L 124.728077 243.030266 
L 124.841662 242.920569 
L 124.947077 242.846058 
L 124.952758 242.846058 
L 125.124566 242.73843 
L 125.23869 242.634942 
L 125.404319 242.525245 
L 125.520434 242.444524 
L 125.645672 242.336897 
L 125.758966 242.260316 
L 125.924015 242.150618 
L 126.043944 242.065758 
L 126.190249 241.956061 
L 126.303377 241.854643 
L 126.427039 241.734597 
L 126.580725 241.624899 
L 126.697462 241.53176 
L 126.863029 241.422063 
L 126.978791 241.330993 
L 127.117464 241.221296 
L 127.23221 241.130227 
L 127.3747 241.020529 
L 127.495873 240.925321 
L 127.663908 240.815623 
L 127.781017 240.718345 
L 127.918281 240.608647 
L 128.032779 240.521717 
L 128.184826 240.41202 
L 128.304445 240.320951 
L 128.441211 240.211253 
L 128.558114 240.118114 
L 128.74456 240.008417 
L 128.864615 239.923557 
L 128.969201 239.81386 
L 129.092323 239.735209 
L 129.244807 239.625511 
L 129.363824 239.497186 
L 129.519583 239.387489 
L 129.639845 239.300559 
L 129.765539 239.190862 
L 129.879248 239.126699 
L 130.035629 239.017002 
L 130.150334 238.925933 
L 130.272669 238.816235 
L 130.389799 238.716887 
L 130.544584 238.60719 
L 130.669283 238.530609 
L 130.798916 238.420911 
L 130.922993 238.319493 
L 131.018331 238.209796 
L 131.137224 238.116657 
L 131.307498 238.006959 
L 131.428091 237.946936 
L 131.56013 237.837239 
L 131.69219 237.715123 
L 131.827401 237.605426 
L 131.94505 237.526775 
L 132.082106 237.417078 
L 132.197972 237.340497 
L 132.331669 237.2308 
L 132.447701 237.150079 
L 132.582062 237.040382 
L 132.700043 236.957591 
L 132.817401 236.847894 
L 132.935258 236.767173 
L 133.103789 236.657476 
L 133.226788 236.564337 
L 133.388892 236.45464 
L 133.506873 236.371849 
L 133.68345 236.262152 
L 133.805163 236.179362 
L 133.970253 236.069664 
L 134.086326 235.988944 
L 134.256599 235.879247 
L 134.376114 235.800596 
L 134.535979 235.690898 
L 134.65002 235.616387 
L 134.798978 235.50669 
L 134.918701 235.403202 
L 135.108382 235.293505 
L 135.228892 235.204505 
L 135.379302 235.094808 
L 135.515322 234.980971 
L 135.650678 234.871274 
L 135.765051 234.790553 
L 135.896779 234.680856 
L 136.020254 234.606344 
L 136.211926 234.496647 
L 136.336459 234.407647 
L 136.490186 234.29795 
L 136.608001 234.21723 
L 136.764797 234.107532 
L 136.881285 234.020602 
L 137.01689 233.910905 
L 137.121061 233.830184 
L 137.127738 233.830184 
L 137.303527 233.720487 
L 137.430465 233.641836 
L 137.559933 233.532139 
L 137.682019 233.447279 
L 137.91176 233.337582 
L 138.027625 233.281698 
L 138.204368 233.172001 
L 138.322058 233.107838 
L 138.480887 232.998141 
L 138.608778 232.900862 
L 138.774242 232.791165 
L 138.894876 232.729072 
L 139.046323 232.619375 
L 139.162727 232.557282 
L 139.319855 232.447585 
L 139.4436 232.364795 
L 139.614081 232.255097 
L 139.738863 232.14747 
L 139.926388 232.037773 
L 140.044327 231.954982 
L 140.23322 231.845285 
L 140.35344 231.768704 
L 140.511252 231.659007 
L 140.624236 231.594844 
L 140.824782 231.485147 
L 140.93957 231.392008 
L 141.102047 231.28231 
L 141.215466 231.203659 
L 141.390053 231.096032 
L 141.505918 231.017381 
L 141.652513 230.907684 
L 141.778414 230.822824 
L 141.933469 230.713126 
L 142.053896 230.622057 
L 142.241151 230.51236 
L 142.362429 230.433709 
L 142.586364 230.326081 
L 142.701939 230.239151 
L 142.846502 230.131524 
L 142.846502 230.129454 
L 142.965312 230.054943 
L 143.144667 229.945246 
L 143.264016 229.866595 
L 143.429936 229.756897 
L 143.556169 229.669968 
L 143.774008 229.56027 
L 143.890205 229.498177 
L 144.086356 229.38848 
L 144.195711 229.316039 
L 144.19737 229.316039 
L 144.369924 229.206341 
L 144.485582 229.13183 
L 144.649843 229.022133 
L 144.769731 228.937273 
L 144.930965 228.827575 
L 145.061096 228.753064 
L 145.206944 228.643367 
L 145.323971 228.560576 
L 145.470358 228.450879 
L 145.591905 228.382577 
L 145.764376 228.27288 
L 145.882647 228.204578 
L 146.100611 228.09488 
L 146.216124 228.024509 
L 146.395625 227.914811 
L 146.509707 227.8403 
L 146.673553 227.730603 
L 146.794644 227.651952 
L 146.968567 227.542255 
L 147.091275 227.478092 
L 147.279381 227.368395 
L 147.403499 227.293883 
L 147.621172 227.184186 
L 147.744481 227.126233 
L 147.91884 227.016536 
L 148.037442 226.946164 
L 148.168071 226.836467 
L 148.287337 226.784723 
L 148.457735 226.675025 
L 148.577955 226.588095 
L 148.758016 226.478398 
L 148.880019 226.408026 
L 149.064061 226.297294 
L 149.224381 226.194841 
L 149.447612 226.084109 
L 149.625018 225.954749 
L 149.791725 225.845052 
L 149.918166 225.768471 
L 150.126591 225.658773 
L 150.247433 225.582192 
L 150.471285 225.472495 
L 150.592086 225.395914 
L 150.804161 225.288286 
L 150.804161 225.286217 
L 150.931845 225.203426 
L 151.14251 225.093729 
L 151.260408 225.029566 
L 151.425291 224.919869 
L 151.548953 224.849497 
L 151.74303 224.7398 
L 151.871564 224.6508 
L 152.036385 224.541103 
L 152.156397 224.493499 
L 152.331855 224.383801 
L 152.451992 224.31343 
L 152.676673 224.203732 
L 152.796478 224.1375 
L 152.968846 224.027803 
L 153.095556 223.945012 
L 153.311737 223.835315 
L 153.439048 223.754594 
L 153.630098 223.644897 
L 153.758695 223.576595 
L 153.958826 223.466898 
L 154.078756 223.398596 
L 154.237377 223.288899 
L 154.354383 223.214387 
L 154.576182 223.10469 
L 154.698144 223.044667 
L 154.941756 222.93497 
L 155.072903 222.860458 
L 155.252528 222.750761 
L 155.372645 222.694878 
L 155.596041 222.58518 
L 155.730153 222.492041 
L 155.961221 222.382344 
L 156.088822 222.299553 
L 156.311762 222.189856 
L 156.432812 222.123624 
L 156.611628 222.013927 
L 156.736368 221.920787 
L 156.972827 221.81109 
L 157.10018 221.740718 
L 157.308688 221.631021 
L 157.438944 221.519254 
L 157.605983 221.409557 
L 157.72583 221.341255 
L 157.90448 221.231557 
L 158.021714 221.132209 
L 158.231032 221.022512 
L 158.349987 220.968698 
L 158.559905 220.859001 
L 158.687465 220.794838 
L 158.910944 220.685141 
L 159.033652 220.618909 
L 159.207492 220.509211 
L 159.324104 220.455398 
L 159.551523 220.3457 
L 159.675268 220.275328 
L 159.858646 220.165631 
L 159.976834 220.122166 
L 160.180242 220.012469 
L 160.30606 219.940027 
L 160.530783 219.83033 
L 160.657576 219.74133 
L 160.844956 219.631633 
L 160.970484 219.561261 
L 161.175758 219.451564 
L 161.30423 219.391541 
L 161.512096 219.281844 
L 161.640465 219.217681 
L 161.866598 219.107984 
L 161.986071 219.062449 
L 162.18811 218.952752 
L 162.316707 218.88445 
L 162.525091 218.774753 
L 162.643777 218.71059 
L 162.852866 218.600893 
L 162.980799 218.526382 
L 163.207637 218.416684 
L 163.328852 218.375289 
L 163.513931 218.265592 
L 163.635685 218.205569 
L 163.915604 218.095872 
L 164.065723 218.0255 
L 164.277674 217.915802 
L 164.406229 217.839221 
L 164.698382 217.729524 
L 164.817606 217.686059 
L 165.020952 217.576362 
L 165.145174 217.522548 
L 165.382503 217.412851 
L 165.50123 217.350758 
L 165.728027 217.241061 
L 165.857702 217.176898 
L 166.066211 217.067201 
L 166.197461 216.98648 
L 166.442463 216.876783 
L 166.561812 216.833318 
L 166.786328 216.723621 
L 166.923716 216.651179 
L 167.207284 216.541482 
L 167.331568 216.485599 
L 167.561143 216.375901 
L 167.679663 216.334506 
L 167.953113 216.224809 
L 168.08764 216.156507 
L 168.329863 216.046809 
L 168.453732 215.984717 
L 168.721293 215.875019 
L 168.849766 215.806717 
L 169.120665 215.69702 
L 169.243726 215.655625 
L 169.498452 215.545928 
L 169.635197 215.461068 
L 169.916277 215.35137 
L 170.052546 215.276859 
L 170.364687 215.167162 
L 170.48528 215.115418 
L 170.733226 215.00572 
L 170.900514 214.925 
L 171.149621 214.815303 
L 171.294287 214.734582 
L 171.508456 214.624885 
L 171.656523 214.540024 
L 171.919543 214.432397 
L 172.038104 214.372374 
L 172.290715 214.264746 
L 172.413113 214.217142 
L 172.656124 214.107445 
L 172.794258 214.051561 
L 173.104077 213.941864 
L 173.221498 213.910818 
L 173.463866 213.80112 
L 173.596402 213.743167 
L 173.838895 213.63347 
L 174.007572 213.569307 
L 174.313285 213.45961 
L 174.446153 213.412005 
L 174.736398 213.302308 
L 174.859604 213.252634 
L 175.056376 213.142937 
L 175.192189 213.082914 
L 175.371586 212.973216 
L 175.560852 212.842822 
L 175.781512 212.733124 
L 175.919232 212.673101 
L 176.197782 212.563404 
L 176.346616 212.480614 
L 176.606961 212.370916 
L 176.740037 212.319172 
L 176.9704 212.209475 
L 177.112433 212.153592 
L 177.388163 212.043894 
L 177.544171 211.959034 
L 177.818865 211.849337 
L 177.933507 211.807942 
L 178.076142 211.752058 
L 178.32077 211.642361 
L 178.451067 211.574059 
L 178.708883 211.464362 
L 178.848759 211.39192 
L 179.154431 211.282223 
L 179.296464 211.230479 
L 179.656999 211.120782 
L 179.810519 211.052479 
L 180.029312 210.942782 
L 180.159816 210.866201 
L 180.373384 210.756504 
L 180.499368 210.710969 
L 180.727533 210.601272 
L 180.888684 210.516412 
L 181.154876 210.406714 
L 181.281731 210.35704 
L 181.613238 210.247343 
L 181.74337 210.193529 
L 181.965231 210.083832 
L 182.103615 210.021739 
L 182.387224 209.912042 
L 182.517853 209.84374 
L 182.812701 209.734043 
L 182.937607 209.676089 
L 183.203592 209.566392 
L 183.399162 209.471183 
L 183.678833 209.361486 
L 183.815309 209.303533 
L 184.078101 209.193835 
L 184.227225 209.144161 
L 184.518548 209.034464 
L 184.630889 209.003417 
L 184.974111 208.89372 
L 185.11181 208.823348 
L 185.404626 208.713651 
L 185.551179 208.659837 
L 185.856145 208.55014 
L 185.987023 208.517024 
L 186.249774 208.407327 
L 186.37327 208.351443 
L 186.703201 208.241746 
L 186.85585 208.187932 
L 187.099442 208.078235 
L 187.218044 208.03063 
L 187.395948 207.954049 
L 187.700044 207.844352 
L 187.848795 207.790538 
L 188.108311 207.680841 
L 188.232719 207.616678 
L 188.473512 207.506981 
L 188.602502 207.473865 
L 188.908008 207.364168 
L 189.042493 207.308284 
L 189.402366 207.198587 
L 189.570441 207.128215 
L 189.909744 207.018518 
L 190.072471 206.929518 
L 190.343059 206.819821 
L 190.490276 206.763937 
L 190.798767 206.65424 
L 190.917535 206.612845 
L 191.159137 206.503148 
L 191.297976 206.445194 
L 191.628073 206.335497 
L 191.774129 206.269265 
L 192.162677 206.159568 
L 192.307675 206.093335 
L 192.627799 205.983638 
L 192.786108 205.933964 
L 193.010956 205.826336 
L 193.124043 205.772523 
L 193.434235 205.664895 
L 193.549105 205.604872 
L 193.695741 205.526221 
L 193.96662 205.416524 
L 194.121342 205.36685 
L 194.428755 205.257152 
L 194.553413 205.224036 
L 194.781785 205.114339 
L 194.925684 205.062595 
L 195.23994 204.952898 
L 195.367375 204.911503 
L 195.607027 204.801805 
L 195.761377 204.719015 
L 196.088488 204.609318 
L 196.222642 204.563783 
L 196.537104 204.454086 
L 196.69361 204.383714 
L 197.007285 204.274017 
L 197.126261 204.213994 
L 197.418621 204.104296 
L 197.60063 204.033924 
L 197.888283 203.924227 
L 198.039999 203.872483 
L 198.30698 203.762786 
L 198.418657 203.73174 
L 198.784128 203.622042 
L 198.91824 203.566159 
L 199.216944 203.456462 
L 199.341519 203.390229 
L 199.63703 203.280532 
L 199.786113 203.206021 
L 200.122928 203.096323 
L 200.251608 203.048719 
L 200.378463 203.015603 
L 200.714324 202.905905 
L 200.831185 202.860371 
L 201.115085 202.750673 
L 201.28569 202.686511 
L 201.530194 202.576814 
L 201.664099 202.523 
L 201.922952 202.413303 
L 202.042259 202.361559 
L 202.172059 202.320163 
L 202.433814 202.210466 
L 202.550592 202.162862 
L 202.688395 202.096629 
L 202.940654 201.986932 
L 203.055317 201.943467 
L 203.346433 201.83377 
L 203.485936 201.767538 
L 203.837638 201.65784 
L 203.950974 201.604027 
L 204.202487 201.494329 
L 204.336765 201.457074 
L 204.628171 201.347376 
L 204.751003 201.285284 
L 204.989038 201.175586 
L 205.125722 201.123842 
L 205.366079 201.014145 
L 205.512321 200.960331 
L 205.784962 200.852704 
L 205.90597 200.813378 
L 206.04228 200.751286 
L 206.395517 200.641588 
L 206.528717 200.583635 
L 206.862131 200.473938 
L 206.997529 200.420124 
L 207.279355 200.310427 
L 207.426613 200.248334 
L 207.635703 200.138637 
L 207.765709 200.095172 
L 208.043057 199.985475 
L 208.175511 199.93994 
L 208.389452 199.830243 
L 208.519873 199.776429 
L 208.798465 199.666732 
L 208.940373 199.59429 
L 209.217431 199.484593 
L 209.371614 199.403872 
L 209.691054 199.294175 
L 209.846108 199.217594 
L 210.07871 199.107896 
L 210.220868 199.045804 
L 210.48507 198.936106 
L 210.616818 198.876083 
L 210.879942 198.768456 
L 210.998006 198.714642 
L 211.244251 198.604945 
L 211.369199 198.544922 
L 211.672009 198.435225 
L 211.813876 198.38762 
L 212.133937 198.277923 
L 212.281444 198.21376 
L 212.563851 198.106133 
L 212.688591 198.052319 
L 212.885779 197.942622 
L 213.032622 197.855692 
L 213.282517 197.745995 
L 213.42173 197.681832 
L 213.69547 197.572135 
L 213.821081 197.52453 
L 214.087771 197.414833 
L 214.227109 197.365159 
L 214.551773 197.255462 
L 214.668344 197.216136 
L 214.912018 197.106439 
L 215.05683 197.036067 
L 215.35512 196.92637 
L 215.540343 196.816673 
L 215.77168 196.706975 
L 215.897333 196.644882 
L 216.113845 196.535185 
L 216.249492 196.475162 
L 216.486407 196.365465 
L 216.60671 196.328209 
L 216.831681 196.220582 
L 216.950699 196.177117 
L 217.233272 196.06742 
L 217.360334 196.030164 
L 217.669116 195.920467 
L 217.789253 195.870792 
L 218.063325 195.761095 
L 218.199635 195.709351 
L 218.43655 195.599654 
L 218.551006 195.54584 
L 218.824165 195.436143 
L 218.938745 195.37612 
L 219.246822 195.266423 
L 219.364263 195.2064 
L 219.634976 195.096702 
L 219.771286 195.011842 
L 220.119091 194.902145 
L 220.250341 194.85661 
L 220.549336 194.746913 
L 220.676067 194.693099 
L 220.895731 194.583402 
L 221.031958 194.508891 
L 221.307937 194.399193 
L 221.436161 194.33917 
L 221.702685 194.229473 
L 221.830411 194.190148 
L 222.072966 194.08045 
L 222.201272 194.026637 
L 222.480984 193.916939 
L 222.636184 193.813451 
L 222.891781 193.703754 
L 223.00437 193.660289 
L 223.134335 193.594057 
L 223.37349 193.484359 
L 223.501631 193.430546 
L 223.814642 193.320848 
L 223.929119 193.271174 
L 224.244473 193.161477 
L 224.390612 193.082826 
L 224.67277 192.973129 
L 224.810822 192.87792 
L 225.105711 192.768223 
L 225.225019 192.724758 
L 225.506762 192.61506 
L 225.634302 192.565386 
L 225.86763 192.455689 
L 225.991789 192.408084 
L 226.24861 192.298387 
L 226.383883 192.232155 
L 226.644726 192.122458 
L 226.749685 192.074853 
L 226.755574 192.074853 
L 226.992987 191.965156 
L 227.131536 191.92997 
L 227.402912 191.820273 
L 227.517658 191.778878 
L 227.824574 191.66918 
L 227.950102 191.615367 
L 228.243125 191.505669 
L 228.377445 191.443576 
L 228.660806 191.333879 
L 228.782518 191.275926 
L 229.100963 191.166229 
L 229.227983 191.075159 
L 229.431889 190.965462 
L 229.571102 190.901299 
L 229.829415 190.790567 
L 229.976839 190.708812 
L 230.263476 190.599115 
L 230.378969 190.557719 
L 230.624758 190.448022 
L 230.751323 190.402487 
L 231.003167 190.29486 
L 231.120567 190.261744 
L 231.39412 190.152046 
L 231.521991 190.073396 
L 231.815927 189.963698 
L 231.952196 189.889187 
L 232.204517 189.77949 
L 232.326665 189.719467 
L 232.588711 189.609769 
L 232.741857 189.537328 
L 233.008133 189.427631 
L 233.142038 189.367608 
L 233.402362 189.25791 
L 233.549475 189.17305 
L 233.818757 189.063353 
L 233.936095 189.011609 
L 234.192708 188.901912 
L 234.310606 188.850168 
L 234.707552 188.74047 
L 234.823666 188.678378 
L 235.129545 188.56868 
L 235.243296 188.529355 
L 235.498831 188.419658 
L 235.635804 188.361704 
L 235.876908 188.252007 
L 236.018567 188.191984 
L 236.259795 188.082287 
L 236.376615 188.030543 
L 236.655912 187.920846 
L 236.792367 187.848404 
L 237.071228 187.738707 
L 237.205631 187.693172 
L 237.421148 187.583475 
L 237.556463 187.511033 
L 237.808514 187.401336 
L 237.926785 187.357871 
L 238.24216 187.248174 
L 238.367688 187.19436 
L 238.640433 187.084663 
L 238.755055 187.028779 
L 238.978886 186.919082 
L 239.108789 186.85078 
L 239.417861 186.741083 
L 239.545172 186.67692 
L 239.771057 186.567223 
L 239.908175 186.513409 
L 240.114216 186.403712 
L 240.24638 186.349898 
L 240.516097 186.240201 
L 240.649877 186.173968 
L 240.935809 186.064271 
L 241.057896 186.006318 
L 241.327945 185.896621 
L 241.456044 185.844877 
L 241.651407 185.735179 
L 241.776769 185.691714 
L 242.061125 185.582017 
L 242.181096 185.526134 
L 242.43153 185.416436 
L 242.559464 185.358483 
L 242.854768 185.248786 
L 242.998998 185.178414 
L 243.281613 185.068717 
L 243.410583 185.019043 
L 243.661017 184.909345 
L 243.772653 184.878299 
L 244.083674 184.768602 
L 244.207792 184.69616 
L 244.494553 184.586463 
L 244.61552 184.528509 
L 244.888886 184.420882 
L 245.007779 184.383626 
L 245.282598 184.273929 
L 245.400371 184.224255 
L 245.6501 184.114558 
L 245.770403 184.056604 
L 245.985318 183.946907 
L 246.115014 183.897233 
L 246.337456 183.787536 
L 246.461492 183.74614 
L 246.771517 183.636443 
L 246.89012 183.586769 
L 247.231372 183.479141 
L 247.34475 183.450165 
L 247.580089 183.340467 
L 247.727098 183.272165 
L 247.956839 183.162468 
L 248.080999 183.121073 
L 248.362535 183.011376 
L 248.486197 182.963771 
L 248.725932 182.854074 
L 248.844783 182.816818 
L 249.151782 182.707121 
L 249.269845 182.669865 
L 249.543793 182.560168 
L 249.667455 182.520843 
L 249.876316 182.411145 
L 250.004145 182.351122 
L 250.216262 182.241425 
L 250.347637 182.173123 
L 250.558302 182.063426 
L 250.683457 181.995124 
L 250.969679 181.885426 
L 251.085793 181.825403 
L 251.36198 181.715706 
L 251.495553 181.643265 
L 251.732759 181.533567 
L 251.846012 181.471474 
L 252.090516 181.361777 
L 252.210673 181.291405 
L 252.475104 181.181708 
L 252.602042 181.140313 
L 252.834893 181.030616 
L 252.95476 181.001639 
L 253.24457 180.891942 
L 253.362384 180.854686 
L 253.644791 180.744989 
L 253.782263 180.676687 
L 254.039788 180.566989 
L 254.152626 180.515245 
L 254.467794 180.405548 
L 254.605639 180.339316 
L 254.839485 180.229619 
L 254.949048 180.177875 
L 254.950292 180.177875 
L 255.255134 180.068177 
L 255.367682 180.026782 
L 255.500177 179.977108 
L 255.776281 179.867411 
L 255.897247 179.809457 
L 256.131446 179.69976 
L 256.248182 179.654225 
L 256.531191 179.547633 
L 256.648218 179.488645 
L 256.87489 179.378947 
L 256.992891 179.335482 
L 257.288548 179.225785 
L 257.400681 179.190599 
L 257.66621 179.080902 
L 257.801193 179.037437 
L 258.053659 178.92774 
L 258.173423 178.882205 
L 258.298951 178.828391 
L 258.538106 178.718694 
L 258.655796 178.679369 
L 258.933475 178.569671 
L 259.065265 178.515858 
L 259.377987 178.40616 
L 259.497087 178.356486 
L 259.7475 178.246789 
L 259.869607 178.180557 
L 260.141896 178.070859 
L 260.266636 178.031534 
L 260.513794 177.921837 
L 260.639695 177.857674 
L 260.906261 177.747977 
L 261.031623 177.685884 
L 261.275298 177.576187 
L 261.402692 177.514094 
L 261.723749 177.404397 
L 261.840236 177.365071 
L 262.072756 177.255374 
L 262.188746 177.197421 
L 262.545591 177.087724 
L 262.666972 177.03184 
L 262.909983 176.922143 
L 263.040321 176.868329 
L 263.335833 176.758632 
L 263.45456 176.700678 
L 263.738584 176.590981 
L 263.860256 176.541307 
L 264.104925 176.433679 
L 264.219713 176.381935 
L 264.502701 176.272238 
L 264.630883 176.214285 
L 264.930085 176.104588 
L 265.042052 176.054913 
L 265.298645 175.945216 
L 265.428092 175.868635 
L 265.69897 175.758938 
L 265.813716 175.698915 
L 266.125484 175.589218 
L 266.237327 175.547822 
L 266.453798 175.43709 
L 266.568004 175.378102 
L 266.856259 175.268405 
L 266.978013 175.200103 
L 267.172215 175.090405 
L 267.286878 175.04901 
L 267.418419 174.991057 
L 267.675115 174.88136 
L 267.792639 174.821337 
L 267.985058 174.711639 
L 268.123897 174.653686 
L 268.425215 174.543989 
L 268.550556 174.481896 
L 268.850132 174.374269 
L 268.965437 174.341152 
L 269.237021 174.231455 
L 269.35384 174.179711 
L 269.567408 174.070014 
L 269.681698 174.02034 
L 269.916954 173.910642 
L 270.040036 173.850619 
L 270.257647 173.740922 
L 270.375565 173.693318 
L 270.634998 173.58362 
L 270.761646 173.542225 
L 271.016683 173.432528 
L 271.144326 173.376644 
L 271.384268 173.266947 
L 271.509589 173.219343 
L 271.767488 173.109645 
L 271.891896 173.059971 
L 272.118195 172.950274 
L 272.233231 172.888181 
L 272.483956 172.778484 
L 272.610272 172.703973 
L 272.881192 172.594275 
L 273.00249 172.542531 
L 273.212077 172.436974 
L 273.325641 172.38523 
L 273.575992 172.277602 
L 273.69051 172.215509 
L 273.993444 172.105812 
L 274.104044 172.070626 
L 274.104458 172.070626 
L 274.386948 171.960929 
L 274.516623 171.896766 
L 274.814333 171.787069 
L 274.93505 171.733255 
L 275.18988 171.623558 
L 275.30305 171.569744 
L 275.533496 171.460047 
L 275.654545 171.414512 
L 275.937409 171.304815 
L 276.070194 171.242722 
L 276.289111 171.133025 
L 276.410036 171.068862 
L 276.641021 170.959165 
L 276.755062 170.909491 
L 277.069256 170.798759 
L 277.232106 170.721143 
L 277.491145 170.611446 
L 277.617005 170.539004 
L 277.880668 170.429307 
L 278.001427 170.375493 
L 278.249124 170.265796 
L 278.364782 170.211982 
L 278.670371 170.102285 
L 278.791628 170.067099 
L 279.120729 169.957401 
L 279.241779 169.903588 
L 279.497438 169.79389 
L 279.617202 169.748356 
L 279.883394 169.638659 
L 280.010498 169.547589 
L 280.251187 169.437892 
L 280.376093 169.398566 
L 280.648796 169.288869 
L 280.77053 169.230916 
L 280.997264 169.121219 
L 281.121217 169.067405 
L 281.375217 168.957708 
L 281.491829 168.905964 
L 281.75205 168.796266 
L 281.886743 168.719685 
L 282.148415 168.609988 
L 282.27498 168.564453 
L 282.587162 168.454756 
L 282.701411 168.41957 
L 282.980314 168.309873 
L 283.096822 168.253989 
L 283.380971 168.144292 
L 283.500071 168.094618 
L 283.767217 167.984921 
L 283.888806 167.935246 
L 284.178926 167.825549 
L 284.302091 167.775875 
L 284.544397 167.666178 
L 284.65541 167.612364 
L 284.921022 167.502667 
L 285.043606 167.434364 
L 285.372542 167.324667 
L 285.493488 167.279133 
L 285.715826 167.169435 
L 285.827877 167.13218 
L 286.142298 167.022482 
L 286.25609 166.981087 
L 286.462443 166.87139 
L 286.58005 166.836204 
L 286.894347 166.726507 
L 287.012245 166.680972 
L 287.258615 166.571275 
L 287.381406 166.52367 
L 287.642995 166.413973 
L 287.758861 166.35395 
L 288.020243 166.244253 
L 288.14349 166.194578 
L 288.491253 166.084881 
L 288.607077 166.028998 
L 288.888904 165.9193 
L 289.003691 165.861347 
L 289.281993 165.75165 
L 289.401964 165.695766 
L 289.620965 165.586069 
L 289.740355 165.534325 
L 289.968935 165.424628 
L 290.093592 165.358396 
L 290.325572 165.248698 
L 290.441355 165.205233 
L 290.697512 165.095536 
L 290.814456 165.037583 
L 291.119961 164.927886 
L 291.238357 164.867863 
L 291.463163 164.758165 
L 291.583797 164.725049 
L 291.917087 164.615352 
L 292.035897 164.571887 
L 292.241876 164.46219 
L 292.361101 164.400097 
L 292.572347 164.2904 
L 292.686968 164.230377 
L 292.94072 164.119644 
L 293.052687 164.066866 
L 293.311664 163.957168 
L 293.43064 163.897145 
L 293.71848 163.787448 
L 293.832894 163.729495 
L 294.082416 163.619797 
L 294.206409 163.557705 
L 294.475795 163.448007 
L 294.603251 163.367287 
L 294.867018 163.257589 
L 294.992712 163.195497 
L 295.341346 163.085799 
L 295.468761 163.013358 
L 295.734559 162.903661 
L 295.851089 162.864335 
L 296.082281 162.754638 
L 296.201298 162.704964 
L 296.477443 162.595266 
L 296.605791 162.529034 
L 296.883388 162.419337 
L 297.00819 162.357244 
L 297.264244 162.247547 
L 297.382888 162.199942 
L 297.654471 162.090245 
L 297.773364 162.017803 
L 298.093716 161.908106 
L 298.21829 161.858432 
L 298.398019 161.748735 
L 298.511023 161.719758 
L 298.776054 161.610061 
L 298.896668 161.550038 
L 299.182206 161.440341 
L 299.293718 161.384457 
L 299.546557 161.27476 
L 299.660723 161.225086 
L 299.943918 161.115388 
L 300.064345 161.065714 
L 300.294418 160.958087 
L 300.411527 160.885645 
L 300.616801 160.775948 
L 300.732667 160.742832 
L 300.963859 160.633134 
L 301.080886 160.589669 
L 301.320206 160.479972 
L 301.435077 160.417879 
L 301.69592 160.308182 
L 301.812781 160.266787 
L 302.027675 160.15709 
L 302.142027 160.117764 
L 302.45958 160.008067 
L 302.574243 159.952183 
L 302.859387 159.842486 
L 302.975253 159.784533 
L 303.236386 159.674836 
L 303.361914 159.604464 
L 303.610772 159.496836 
L 303.610772 159.494766 
L 303.726057 159.443022 
L 303.992996 159.333325 
L 304.108489 159.279511 
L 304.404415 159.169814 
L 304.520778 159.107721 
L 304.768724 158.998024 
L 304.887078 158.911094 
L 305.122749 158.801397 
L 305.239444 158.749653 
L 305.53056 158.639956 
L 305.638298 158.582002 
L 305.641553 158.582002 
L 305.915811 158.472305 
L 306.039224 158.404003 
L 306.300067 158.294306 
L 306.422672 158.219794 
L 306.70709 158.110097 
L 306.821214 158.060423 
L 307.059042 157.950726 
L 307.184031 157.890703 
L 307.43799 157.781005 
L 307.554063 157.74582 
L 307.770036 157.636122 
L 307.770036 157.635087 
L 307.903443 157.582309 
L 308.211437 157.472611 
L 308.338582 157.402239 
L 308.614022 157.292542 
L 308.72599 157.249077 
L 308.985837 157.13938 
L 309.099422 157.079357 
L 309.375775 156.96966 
L 309.490065 156.919985 
L 309.723165 156.810288 
L 309.835505 156.744056 
L 310.127741 156.634359 
L 310.24398 156.582615 
L 310.434615 156.472917 
L 310.5516 156.402546 
L 310.772964 156.292848 
L 310.895341 156.247314 
L 311.150046 156.137616 
L 311.263797 156.067244 
L 311.489888 155.957547 
L 311.605671 155.901664 
L 311.833629 155.791966 
L 311.955259 155.709176 
L 312.234949 155.598444 
L 312.350711 155.543595 
L 312.575455 155.432863 
L 312.689434 155.367666 
L 312.980384 155.257968 
L 313.085136 155.193806 
L 313.091315 155.193806 
L 313.347513 155.086178 
L 313.460393 155.042713 
L 313.7445 154.933016 
L 313.863062 154.875063 
L 314.126476 154.765366 
L 314.248645 154.703273 
L 314.503972 154.593576 
L 314.621165 154.537692 
L 314.885574 154.427995 
L 314.999159 154.359693 
L 315.238645 154.249995 
L 315.362183 154.173414 
L 315.532083 154.065787 
L 315.646207 154.028531 
L 315.94205 153.918834 
L 316.062892 153.873299 
L 316.348368 153.763602 
L 316.462119 153.699439 
L 316.710272 153.589742 
L 316.833685 153.529719 
L 317.047129 153.420022 
L 317.159469 153.357929 
L 317.388754 153.248232 
L 317.506279 153.188209 
L 317.741576 153.078512 
L 317.853834 153.012279 
L 318.029623 152.902582 
L 318.141674 152.838419 
L 318.360176 152.728722 
L 318.482097 152.668699 
L 318.732904 152.559002 
L 318.848542 152.496909 
L 319.057154 152.387212 
L 319.169619 152.31891 
L 319.414289 152.209212 
L 319.538656 152.134701 
L 319.74845 152.025004 
L 319.863693 151.958772 
L 320.04844 151.849074 
L 320.165011 151.7994 
L 320.428155 151.689703 
L 320.543876 151.640029 
L 320.782242 151.530331 
L 320.895412 151.474448 
L 321.168821 151.363716 
L 321.28282 151.288169 
L 321.470635 151.178472 
L 321.584137 151.116379 
L 321.711863 151.043938 
L 321.950271 150.934241 
L 322.073228 150.878357 
L 322.282027 150.76866 
L 322.398307 150.6838 
L 322.614405 150.574102 
L 322.729234 150.514079 
L 322.929697 150.404382 
L 323.048486 150.356778 
L 323.285837 150.246045 
L 323.395565 150.195336 
L 323.396913 150.195336 
L 323.702605 150.085639 
L 323.826765 149.998709 
L 324.031002 149.889012 
L 324.139859 149.828989 
L 324.142098 149.828989 
L 324.360021 149.719292 
L 324.476425 149.657199 
L 324.672742 149.547502 
L 324.790764 149.483339 
L 325.028177 149.373642 
L 325.143337 149.307409 
L 325.39232 149.197712 
L 325.506983 149.141829 
L 325.746594 149.032131 
L 325.861671 148.986597 
L 326.090085 148.876899 
L 326.202882 148.821016 
L 326.390034 148.711319 
L 326.504987 148.649226 
L 326.73705 148.539529 
L 326.860215 148.460878 
L 327.043427 148.35118 
L 327.163025 148.287018 
L 327.355899 148.177321 
L 327.46795 148.125577 
L 327.680356 148.015879 
L 327.788882 147.955856 
L 327.791412 147.955856 
L 328.000812 147.846159 
L 328.126858 147.767508 
L 328.344158 147.657811 
L 328.460729 147.591579 
L 328.673426 147.481881 
L 328.785642 147.419789 
L 328.956828 147.310091 
L 329.07427 147.258347 
L 329.267227 147.14865 
L 329.383217 147.090697 
L 329.585547 146.981 
L 329.713687 146.896139 
L 329.982119 146.786442 
L 330.107067 146.695373 
L 330.314663 146.585675 
L 330.440067 146.504955 
L 330.641878 146.395258 
L 330.763197 146.335235 
L 330.954661 146.225537 
L 331.079899 146.144817 
L 331.337549 146.035119 
L 331.454285 145.983375 
L 331.627794 145.873678 
L 331.747143 145.792958 
L 331.936534 145.68326 
L 332.050575 145.610819 
L 332.29313 145.501121 
L 332.407254 145.42661 
L 332.61033 145.316913 
L 332.725822 145.244471 
L 332.906546 145.134774 
L 333.024112 145.058193 
L 333.205728 144.948496 
L 333.318048 144.882263 
L 333.504536 144.772566 
L 333.620319 144.695985 
L 333.812073 144.586288 
L 333.92881 144.517986 
L 334.090873 144.407253 
L 334.204748 144.339986 
L 334.391692 144.230289 
L 334.497647 144.164057 
L 334.502747 144.164057 
L 334.694958 144.053325 
L 334.834213 143.96743 
L 335.016927 143.857732 
L 335.12367 143.797709 
L 335.128024 143.797709 
L 335.320193 143.688012 
L 335.434732 143.630059 
L 335.604052 143.520361 
L 335.721037 143.44999 
L 335.889942 143.342362 
L 336.003776 143.27199 
L 336.202145 143.164363 
L 336.315336 143.10227 
L 336.526623 142.992573 
L 336.633614 142.905643 
L 336.637596 142.905643 
L 336.855269 142.795946 
L 336.975945 142.721434 
L 337.20015 142.611737 
L 337.313175 142.549644 
L 337.481582 142.439947 
L 337.593881 142.371645 
L 337.807781 142.261948 
L 337.925388 142.183297 
L 338.114199 142.073599 
L 338.228406 141.994949 
L 338.449645 141.885251 
L 338.561903 141.821089 
L 338.733214 141.711391 
L 338.84854 141.628601 
L 339.032623 141.518904 
L 339.156534 141.446462 
L 339.313454 141.336765 
L 339.427661 141.260184 
L 339.648694 141.150487 
L 339.763605 141.088394 
L 339.971741 140.978697 
L 340.086549 140.918674 
L 340.264432 140.808976 
L 340.37528 140.732395 
L 340.375487 140.732395 
L 340.537301 140.622698 
L 340.659014 140.554396 
L 340.881311 140.444699 
L 340.998628 140.359838 
L 341.174024 140.250141 
L 341.286489 140.181839 
L 341.477414 140.072142 
L 341.589672 140.010049 
L 341.766042 139.900352 
L 341.879461 139.842399 
L 342.074201 139.732701 
L 342.187869 139.670608 
L 342.410477 139.560911 
L 342.526053 139.48847 
L 342.699022 139.378772 
L 342.824508 139.283563 
L 342.962187 139.173866 
L 343.07432 139.120052 
L 343.24335 139.010355 
L 343.357764 138.929635 
L 343.520449 138.819937 
L 343.633039 138.741286 
L 343.787346 138.631589 
L 343.905576 138.546729 
L 344.107449 138.437032 
L 344.225471 138.354241 
L 344.390603 138.244544 
L 344.498714 138.182451 
L 344.501368 138.182451 
L 344.699633 138.072754 
L 344.819978 137.985824 
L 345.009286 137.876127 
L 345.128179 137.816104 
L 345.326444 137.706407 
L 345.441024 137.621546 
L 345.640534 137.511849 
L 345.758452 137.431129 
L 345.963706 137.321431 
L 346.071899 137.253129 
L 346.074761 137.253129 
L 346.229774 137.143432 
L 346.356131 137.056502 
L 346.508594 136.946805 
L 346.626761 136.872293 
L 346.773065 136.762596 
L 346.888558 136.692224 
L 347.040046 136.582527 
L 347.153838 136.516295 
L 347.320047 136.405563 
L 347.435872 136.350714 
L 347.609048 136.241017 
L 347.725266 136.158226 
L 347.924589 136.048529 
L 348.039626 135.982297 
L 348.262275 135.872599 
L 348.372625 135.812576 
L 348.37333 135.812576 
L 348.558181 135.702879 
L 348.678255 135.60767 
L 348.843449 135.497973 
L 348.9668 135.423462 
L 349.149141 135.313764 
L 349.261441 135.245462 
L 349.470115 135.135765 
L 349.582912 135.048835 
L 349.716195 134.939138 
L 349.826006 134.858417 
L 349.82725 134.858417 
L 350.002956 134.74872 
L 350.117619 134.66179 
L 350.297472 134.552093 
L 350.410103 134.475512 
L 350.58469 134.365814 
L 350.700846 134.285094 
L 350.876967 134.175397 
L 350.989515 134.100885 
L 351.141169 133.991188 
L 351.258071 133.898049 
L 351.390193 133.788352 
L 351.50469 133.699352 
L 351.661942 133.589655 
L 351.774117 133.535841 
L 351.930042 133.426144 
L 352.042798 133.337144 
L 352.239736 133.227447 
L 352.354607 133.132238 
L 352.535248 133.02254 
L 352.654307 132.927332 
L 352.8082 132.817634 
L 352.921577 132.761751 
L 353.061495 132.652053 
L 353.180554 132.556845 
L 353.35568 132.447147 
L 353.47026 132.362287 
L 353.625314 132.25259 
L 353.737862 132.169799 
L 353.90034 132.060102 
L 354.011312 131.99387 
L 354.011436 131.99387 
L 354.156414 131.884173 
L 354.259258 131.830359 
L 354.267344 131.830359 
L 354.457233 131.720662 
L 354.573016 131.64615 
L 354.745239 131.536453 
L 354.86015 131.441244 
L 355.027563 131.331547 
L 355.146787 131.232198 
L 355.326226 131.122501 
L 355.448934 131.010734 
L 355.621074 130.901037 
L 355.735903 130.809967 
L 355.905223 130.70027 
L 356.018185 130.602991 
L 356.166563 130.493294 
L 356.278593 130.391876 
L 356.469663 130.282179 
L 356.58246 130.197319 
L 356.718148 130.087621 
L 356.835424 129.988273 
L 356.96174 129.878576 
L 357.075076 129.760599 
L 357.215741 129.652972 
L 357.328579 129.559833 
L 357.473888 129.450135 
L 357.591413 129.373554 
L 357.719595 129.263857 
L 357.834672 129.166578 
L 358.008305 129.056881 
L 358.117784 128.963742 
L 358.119277 128.963742 
L 358.287146 128.854045 
L 358.39762 128.765045 
L 358.398118 128.765045 
L 358.553297 128.654313 
L 358.66767 128.574627 
L 358.782789 128.46493 
L 358.89882 128.386279 
L 359.080249 128.276582 
L 359.18355 128.216559 
L 359.191222 128.216559 
L 359.325417 128.106861 
L 359.325417 128.105826 
L 359.45024 128.015792 
L 359.604506 127.906095 
L 359.711663 127.831583 
L 359.715603 127.831583 
L 359.876588 127.721886 
L 360.000664 127.620468 
L 360.133014 127.51077 
L 360.244919 127.415562 
L 360.366549 127.305864 
L 360.477314 127.192028 
L 360.477646 127.192028 
L 360.591397 127.08233 
L 360.705977 126.99747 
L 360.852323 126.887773 
L 360.961221 126.792564 
L 360.963336 126.792564 
L 361.09438 126.682867 
L 361.207135 126.600076 
L 361.37264 126.490379 
L 361.491865 126.3931 
L 361.622701 126.283403 
L 361.737364 126.196473 
L 361.842904 126.086776 
L 361.94637 125.985358 
L 361.953959 125.985358 
L 362.054191 125.87566 
L 362.169559 125.770103 
L 362.344187 125.660405 
L 362.457067 125.563127 
L 362.567707 125.453429 
L 362.684962 125.354081 
L 362.833858 125.244384 
L 362.950139 125.161593 
L 363.075957 125.051896 
L 363.181206 124.935989 
L 363.187012 124.935989 
L 363.362055 124.826292 
L 363.481238 124.749711 
L 363.638615 124.640014 
L 363.753527 124.546875 
L 363.870802 124.437177 
L 363.986046 124.335759 
L 364.104275 124.226062 
L 364.214792 124.112225 
L 364.215289 124.112225 
L 364.332233 124.002528 
L 364.45913 123.886621 
L 364.583082 123.776924 
L 364.698408 123.673436 
L 364.828042 123.563739 
L 364.940963 123.46646 
L 365.080715 123.356763 
L 365.190112 123.238787 
L 365.191771 123.238787 
L 365.348401 123.129089 
L 365.463976 123.019392 
L 365.626288 122.909695 
L 365.735104 122.791718 
L 365.737343 122.791718 
L 365.8411 122.682021 
L 365.953772 122.60337 
L 366.073163 122.493673 
L 366.188821 122.381906 
L 366.29743 122.272209 
L 366.405914 122.17907 
L 366.408526 122.17907 
L 366.520577 122.069372 
L 366.636608 121.947257 
L 366.770638 121.837559 
L 366.881154 121.740281 
L 366.881651 121.740281 
L 367.012985 121.632653 
L 367.121988 121.537444 
L 367.124041 121.537444 
L 367.269018 121.427747 
L 367.384427 121.322189 
L 367.524096 121.212492 
L 367.639796 121.098655 
L 367.806421 120.988958 
L 367.919425 120.88754 
L 368.052418 120.777842 
L 368.16903 120.688843 
L 368.305298 120.579145 
L 368.418551 120.471518 
L 368.570869 120.361821 
L 368.681343 120.254193 
L 368.681965 120.254193 
L 368.793228 120.144496 
L 368.918632 120.02031 
L 369.024877 119.910613 
L 369.137922 119.811265 
L 369.255302 119.701567 
L 369.369446 119.600149 
L 369.468932 119.490452 
L 369.579655 119.372476 
L 369.579904 119.372476 
L 369.713809 119.262778 
L 369.826357 119.182058 
L 369.941393 119.07236 
L 370.056969 118.962663 
L 370.195643 118.852966 
L 370.308522 118.763966 
L 370.440934 118.654269 
L 370.554499 118.528014 
L 370.673081 118.418316 
L 370.785877 118.331386 
L 370.92932 118.221689 
L 371.045559 118.093364 
L 371.174239 117.983667 
L 371.287036 117.894667 
L 371.411279 117.78497 
L 371.522126 117.669063 
L 371.522313 117.669063 
L 371.650806 117.559366 
L 371.764308 117.43725 
L 371.875778 117.327553 
L 371.989073 117.217856 
L 372.106265 117.108158 
L 372.222421 116.983973 
L 372.318216 116.874276 
L 372.437316 116.743881 
L 372.550155 116.634184 
L 372.663719 116.512068 
L 372.771187 116.40237 
L 372.887301 116.278185 
L 372.991763 116.168488 
L 373.10514 116.052581 
L 373.211841 115.942884 
L 373.211841 115.941849 
L 373.338531 115.818698 
L 373.492133 115.709001 
L 373.60547 115.597234 
L 373.722206 115.487537 
L 373.83069 115.37163 
L 373.833178 115.37163 
L 373.931938 115.261933 
L 374.045834 115.170863 
L 374.166738 115.061166 
L 374.279431 114.982515 
L 374.393431 114.872818 
L 374.507223 114.738284 
L 374.593023 114.628586 
L 374.700471 114.533377 
L 374.704037 114.533377 
L 374.831597 114.42368 
L 374.944228 114.347099 
L 375.075438 114.239472 
L 375.188981 114.113216 
L 375.329314 114.002484 
L 375.439415 113.90831 
L 375.440411 113.90831 
L 375.561833 113.798613 
L 375.675169 113.684776 
L 375.786432 113.575079 
L 375.899643 113.467451 
L 376.00962 113.357754 
L 376.122998 113.241847 
L 376.230114 113.13215 
L 376.343657 113.010034 
L 376.462799 112.900337 
L 376.577006 112.823756 
L 376.7027 112.714059 
L 376.817819 112.61471 
L 376.915894 112.505013 
L 377.029147 112.393246 
L 377.119758 112.283549 
L 377.232721 112.19041 
L 377.346306 112.080712 
L 377.462545 111.954457 
L 377.573932 111.84476 
L 377.687973 111.697807 
L 377.774644 111.588109 
L 377.88827 111.459784 
L 377.996174 111.350087 
L 378.118177 111.217622 
L 378.215755 111.109995 
L 378.330127 111.029274 
L 378.424553 110.919577 
L 378.537972 110.803671 
L 378.636089 110.693973 
L 378.749819 110.563578 
L 378.847252 110.453881 
L 378.957809 110.335905 
L 378.958348 110.335905 
L 379.08566 110.226208 
L 379.205797 110.079255 
L 379.333523 109.969557 
L 379.44943 109.849511 
L 379.564217 109.738779 
L 379.677595 109.625977 
L 379.771896 109.51628 
L 379.885232 109.404513 
L 380.005452 109.294816 
L 380.11346 109.178909 
L 380.116549 109.178909 
L 380.229429 109.069212 
L 380.338991 108.959515 
L 380.340484 108.959515 
L 380.472025 108.849817 
L 380.58138 108.74426 
L 380.582998 108.74426 
L 380.699693 108.634562 
L 380.815849 108.508307 
L 380.937976 108.39861 
L 381.051312 108.284773 
L 381.15283 108.174041 
L 381.272801 108.067448 
L 381.369756 107.959821 
L 381.482014 107.835635 
L 381.584257 107.725938 
L 381.698858 107.607962 
L 381.800749 107.498264 
L 381.910974 107.36787 
L 381.911804 107.36787 
L 382.032231 107.258172 
L 382.146023 107.121568 
L 382.257079 107.011871 
L 382.368009 106.869057 
L 382.368175 106.869057 
L 382.475291 106.75936 
L 382.585434 106.641384 
L 382.586346 106.641384 
L 382.70188 106.531687 
L 382.818617 106.393013 
L 382.92482 106.283315 
L 383.040354 106.173618 
L 383.139051 106.063921 
L 383.244093 105.943875 
L 383.250148 105.943875 
L 383.368709 105.834178 
L 383.368709 105.833143 
L 383.484575 105.716201 
L 383.61255 105.606504 
L 383.721656 105.496807 
L 383.723605 105.496807 
L 383.847599 105.38711 
L 383.958239 105.252575 
L 383.958695 105.252575 
L 384.059756 105.142878 
L 384.169028 105.031111 
L 384.170812 105.031111 
L 384.261008 104.921414 
L 384.379403 104.803437 
L 384.471714 104.69374 
L 384.582313 104.577834 
L 384.582769 104.577834 
L 384.681176 104.468136 
L 384.789702 104.356369 
L 384.792232 104.356369 
L 384.882801 104.246672 
L 384.997588 104.124556 
L 385.077542 104.014859 
L 385.188016 103.913441 
L 385.188638 103.913441 
L 385.270333 103.803743 
L 385.382798 103.667139 
L 385.462254 103.557442 
L 385.578078 103.439466 
L 385.69892 103.329768 
L 385.809353 103.222141 
L 385.810017 103.222141 
L 385.924348 103.112444 
L 386.031671 102.984119 
L 386.035403 102.984119 
L 386.150896 102.874421 
L 386.269291 102.694352 
L 386.376904 102.584655 
L 386.490531 102.4584 
L 386.607433 102.350772 
L 386.717244 102.205889 
L 386.718488 102.205889 
L 386.822784 102.096192 
L 386.935208 101.963727 
L 387.026689 101.85403 
L 387.143799 101.705007 
L 387.263356 101.59531 
L 387.376941 101.469055 
L 387.47738 101.359357 
L 387.591545 101.204125 
L 387.671166 101.093393 
L 387.780521 100.959894 
L 387.78218 100.959894 
L 387.891079 100.850196 
L 387.998547 100.692895 
L 388.001885 100.692895 
L 388.081424 100.583197 
L 388.194719 100.465221 
L 388.292047 100.355524 
L 388.403144 100.220989 
L 388.507274 100.111292 
L 388.62231 100.014013 
L 388.699858 99.904316 
L 388.816885 99.757363 
L 388.913136 99.647666 
L 389.025601 99.508992 
L 389.10431 99.39826 
L 389.209435 99.285458 
L 389.215282 99.285458 
L 389.277403 99.175761 
L 389.386675 99.030878 
L 389.38821 99.030878 
L 389.462067 98.920145 
L 389.571712 98.801134 
L 389.573122 98.801134 
L 389.680652 98.691437 
L 389.680652 98.690402 
L 389.797306 98.552763 
L 389.888497 98.443066 
L 389.992503 98.298183 
L 389.999594 98.298183 
L 390.109364 98.190555 
L 390.219548 98.051881 
L 390.220336 98.051881 
L 390.323595 97.942184 
L 390.438134 97.770394 
L 390.566192 97.660697 
L 390.677288 97.511674 
L 390.758195 97.401977 
L 390.868815 97.269512 
L 390.869209 97.269512 
L 390.959737 97.161885 
L 390.959737 97.159815 
L 391.077386 96.998374 
L 391.185911 96.888676 
L 391.2951 96.762421 
L 391.296966 96.762421 
L 391.377417 96.652724 
L 391.491292 96.51405 
L 391.56092 96.404353 
L 391.67691 96.242911 
L 391.776478 96.133214 
L 391.886787 96.013168 
L 391.887575 96.013168 
L 391.972089 95.903471 
L 392.085757 95.773076 
L 392.16513 95.663379 
L 392.279046 95.522635 
L 392.369719 95.411903 
L 392.48374 95.261845 
L 392.557016 95.152148 
L 392.671099 95.003125 
L 392.799281 94.893428 
L 392.91328 94.746475 
L 392.991658 94.636778 
L 393.099188 94.491895 
L 393.102754 94.491895 
L 393.192246 94.382197 
L 393.30836 94.255942 
L 393.384996 94.146245 
L 393.49518 94.01585 
L 393.496092 94.01585 
L 393.61005 93.870967 
L 393.681378 93.76127 
L 393.791687 93.599828 
L 393.792475 93.599828 
L 393.882422 93.490131 
L 393.991694 93.353527 
L 393.993477 93.353527 
L 394.070196 93.24383 
L 394.188259 93.07204 
L 394.295831 92.962342 
L 394.405684 92.80711 
L 394.406928 92.80711 
L 394.484517 92.697413 
L 394.599263 92.509065 
L 394.687717 92.399368 
L 394.798731 92.256554 
L 394.798773 92.256554 
L 394.879141 92.146857 
L 394.99003 91.991625 
L 394.990237 91.991625 
L 395.054515 91.880893 
L 395.163828 91.703928 
L 395.16557 91.703928 
L 395.249463 91.594231 
L 395.354878 91.43279 
L 395.36056 91.43279 
L 395.437278 91.323093 
L 395.548167 91.167861 
L 395.620781 91.058163 
L 395.731587 90.886373 
L 395.731877 90.886373 
L 395.818963 90.776676 
L 395.929604 90.625584 
L 395.929977 90.625584 
L 396.012957 90.515886 
L 396.12252 90.348236 
L 396.124054 90.348236 
L 396.21989 90.238539 
L 396.330613 90.083307 
L 396.330945 90.083307 
L 396.411313 89.973609 
L 396.521705 89.837005 
L 396.521871 89.837005 
L 396.594525 89.727308 
L 396.705331 89.561727 
L 396.70558 89.561727 
L 396.781013 89.45203 
L 396.891778 89.317496 
L 396.89211 89.317496 
L 396.970943 89.207798 
L 397.080796 89.069124 
L 397.08204 89.069124 
L 397.167633 88.959427 
L 397.28213 88.785567 
L 397.357605 88.67587 
L 397.475751 88.50201 
L 397.540029 88.394383 
L 397.540029 88.392313 
L 397.650587 88.232942 
L 397.651126 88.232942 
L 397.721748 88.123244 
L 397.840226 87.941105 
L 397.907863 87.831408 
L 398.015269 87.663758 
L 398.018835 87.663758 
L 398.079049 87.55406 
L 398.188611 87.411247 
L 398.190146 87.411247 
L 398.265164 87.30155 
L 398.37991 87.117341 
L 398.446676 87.007644 
L 398.55769 86.839993 
L 398.631091 86.730296 
L 398.741773 86.568855 
L 398.742187 86.568855 
L 398.81592 86.459157 
L 398.933237 86.305995 
L 398.993866 86.196298 
L 399.103013 86.057624 
L 399.104921 86.057624 
L 399.164388 85.947927 
L 399.274821 85.774067 
L 399.275485 85.774067 
L 399.347268 85.66437 
L 399.455752 85.476022 
L 399.458324 85.476022 
L 399.518579 85.366324 
L 399.628929 85.217302 
L 399.629551 85.217302 
L 399.700091 85.107604 
L 399.812825 84.939954 
L 399.875838 84.832326 
L 399.985027 84.691583 
L 399.986935 84.691583 
L 400.042317 84.581885 
L 400.155467 84.37077 
L 400.228287 84.261073 
L 400.342494 84.103771 
L 400.407684 83.994074 
L 400.515214 83.820214 
L 400.518573 83.820214 
L 400.60172 83.710517 
L 400.712692 83.538727 
L 400.712816 83.538727 
L 400.786259 83.427994 
L 400.896899 83.25517 
L 400.897356 83.25517 
L 400.962089 83.145472 
L 401.072481 82.957124 
L 401.073186 82.957124 
L 401.145633 82.847427 
L 401.256108 82.6508 
L 401.256709 82.6508 
L 401.320551 82.543172 
L 401.320551 82.540068 
L 401.429139 82.332057 
L 401.431607 82.332057 
L 401.491032 82.222359 
L 401.601092 82.000895 
L 401.602005 82.000895 
L 401.669932 81.891198 
L 401.775845 81.690431 
L 401.780987 81.690431 
L 401.851817 81.580734 
L 401.966563 81.390316 
L 402.018192 81.280619 
L 402.126635 81.081922 
L 402.129289 81.081922 
L 402.203478 80.972225 
L 402.312709 80.804574 
L 402.314492 80.804574 
L 402.387063 80.694877 
L 402.49816 80.512738 
L 402.548504 80.403041 
L 402.661384 80.225041 
L 402.723837 80.115344 
L 402.834768 79.912508 
L 402.834892 79.912508 
L 402.90369 79.80281 
L 403.014123 79.595834 
L 403.014766 79.595834 
L 403.091547 79.486137 
L 403.200114 79.272952 
L 403.20256 79.272952 
L 403.258876 79.163255 
L 403.368438 78.935581 
L 403.369807 78.935581 
L 403.43367 78.825884 
L 403.539292 78.625117 
L 403.544766 78.625117 
L 403.597681 78.51542 
L 403.70828 78.312583 
L 403.708737 78.312583 
L 403.765633 78.202886 
L 403.87534 78.033166 
L 403.876729 78.033166 
L 403.937316 77.922434 
L 404.048392 77.714423 
L 404.048413 77.714423 
L 404.095232 77.604726 
L 404.210103 77.416378 
L 404.27156 77.30668 
L 404.382284 77.128681 
L 404.382616 77.128681 
L 404.436941 77.018984 
L 404.547913 76.803729 
L 404.548037 76.803729 
L 404.614264 76.694031 
L 404.724034 76.472567 
L 404.725278 76.472567 
L 404.787938 76.36287 
L 404.898703 76.160033 
L 404.89891 76.160033 
L 404.972519 76.050336 
L 405.082662 75.866128 
L 405.083284 75.866128 
L 405.14582 75.75643 
L 405.255921 75.557733 
L 405.256709 75.557733 
L 405.316549 75.448036 
L 405.42466 75.203804 
L 405.427273 75.203804 
L 405.475585 75.094107 
L 405.586225 74.876782 
L 405.586682 74.876782 
L 405.634164 74.767085 
L 405.743187 74.576667 
L 405.745178 74.576667 
L 405.788638 74.46697 
L 405.899527 74.224808 
L 405.899714 74.224808 
L 405.955677 74.115111 
L 406.066483 73.86881 
L 406.066774 73.86881 
L 406.124748 73.759112 
L 406.233854 73.52316 
L 406.235845 73.52316 
L 406.290626 73.413462 
L 406.290626 73.412428 
L 406.412131 73.154742 
L 406.467991 73.045045 
L 406.57859 72.753209 
L 406.578963 72.753209 
L 406.626653 72.643512 
L 406.736381 72.426187 
L 406.73775 72.426187 
L 406.789794 72.31649 
L 406.899688 72.05984 
L 406.900849 72.05984 
L 406.946382 71.950142 
L 407.056733 71.697632 
L 407.057396 71.697632 
L 407.102017 71.587934 
L 407.212409 71.308517 
L 407.213114 71.308517 
L 407.254957 71.19882 
L 407.364436 70.93389 
L 407.365929 70.93389 
L 407.403957 70.824193 
L 407.513892 70.548915 
L 407.515053 70.548915 
L 407.561831 70.439218 
L 407.561831 70.438183 
L 407.684166 70.15773 
L 407.733846 70.048033 
L 407.844072 69.828639 
L 407.844943 69.828639 
L 407.884629 69.718941 
L 407.995643 69.485059 
L 407.995726 69.485059 
L 408.055525 69.375361 
L 408.165875 69.120781 
L 408.166621 69.120781 
L 408.221569 69.011084 
L 408.332541 68.721317 
L 408.378779 68.61162 
L 408.489461 68.313575 
L 408.489793 68.313575 
L 408.52753 68.203877 
L 408.637756 67.914111 
L 408.638586 67.914111 
L 408.672383 67.804414 
L 408.782194 67.527066 
L 408.783438 67.527066 
L 408.832704 67.417369 
L 408.943801 67.154509 
L 408.993025 67.044812 
L 409.10379 66.738488 
L 409.104122 66.738488 
L 409.150816 66.62879 
L 409.150816 66.627755 
L 409.275059 66.299698 
L 409.322458 66.190001 
L 409.433141 65.906444 
L 409.433555 65.906444 
L 409.489954 65.796747 
L 409.600802 65.519399 
L 409.600926 65.519399 
L 409.642147 65.409702 
L 409.751585 65.134424 
L 409.753119 65.134424 
L 409.794464 65.026796 
L 409.794464 65.024727 
L 409.903404 64.726681 
L 409.905478 64.726681 
L 409.948979 64.616984 
L 410.056924 64.30445 
L 410.060034 64.30445 
L 410.093625 64.194753 
L 410.204597 63.921545 
L 410.204721 63.921545 
L 410.248721 63.811847 
L 410.359776 63.546918 
L 410.398633 63.439291 
L 410.50579 63.126757 
L 410.509605 63.126757 
L 410.544813 63.01706 
L 410.654872 62.721084 
L 410.655909 62.721084 
L 410.690246 62.611387 
L 410.801052 62.305062 
L 410.801177 62.305062 
L 410.836177 62.195365 
L 410.945656 61.889041 
L 410.947274 61.889041 
L 410.991729 61.779343 
L 411.101582 61.524763 
L 411.102743 61.524763 
L 411.150557 61.415066 
L 411.261446 61.061137 
L 411.261654 61.061137 
L 411.305487 60.95144 
L 411.41621 60.626487 
L 411.416584 60.626487 
L 411.461951 60.51679 
L 411.572094 60.202187 
L 411.572965 60.202187 
L 411.614144 60.092489 
L 411.725199 59.815141 
L 411.762812 59.705444 
L 411.871172 59.363934 
L 411.873909 59.363934 
L 411.920687 59.254237 
L 412.030664 59.007935 
L 412.031534 59.007935 
L 412.072174 58.898238 
L 412.19057 58.521542 
L 412.240458 58.411844 
L 412.351471 58.070334 
L 412.351513 58.070334 
L 412.396466 57.960637 
L 412.507562 57.668801 
L 412.560353 57.559103 
L 412.669169 57.261058 
L 412.67145 57.261058 
L 412.713417 57.151361 
L 412.824306 56.894711 
L 412.824472 56.894711 
L 412.87353 56.785013 
L 412.984047 56.544921 
L 412.984544 56.544921 
L 413.042228 56.435224 
L 413.152703 56.217899 
L 413.153284 56.217899 
L 413.200766 56.110272 
L 413.310867 55.876389 
L 413.31178 55.876389 
L 413.36005 55.766692 
L 413.471147 55.541088 
L 413.525057 55.431391 
L 413.6352 55.245112 
L 413.636154 55.245112 
L 413.69475 55.135415 
L 413.803857 54.976043 
L 413.805806 54.976043 
L 413.89032 54.866346 
L 414.000588 54.706975 
L 414.001417 54.706975 
L 414.101939 54.597277 
L 414.212538 54.48551 
L 414.213036 54.48551 
L 414.325169 54.375813 
L 414.432907 54.290953 
L 414.436266 54.290953 
L 414.60119 54.181256 
L 414.690349 54.14607 
L 414.712287 54.14607 
L 414.72 54.144 
L 414.72 54.144 
" clip-path="url(#pa3b0b9c478)" style="fill: none; stroke: #ff8c00; stroke-width: 1.5; stroke-linecap: square"/>
   </g>
   <g id="line2d_14">
    <path d="M 74.605714 307.584 
L 414.72 54.144 
" clip-path="url(#pa3b0b9c478)" style="fill: none; stroke-dasharray: 5.55,2.4; stroke-dashoffset: 0; stroke: #0000ff; stroke-width: 1.5"/>
   </g>
   <g id="patch_3">
    <path d="M 57.6 307.584 
L 57.6 41.472 
" style="fill: none; stroke: #000000; stroke-width: 0.8; stroke-linejoin: miter; stroke-linecap: square"/>
   </g>
   <g id="patch_4">
    <path d="M 414.72 307.584 
L 414.72 41.472 
" style="fill: none; stroke: #000000; stroke-width: 0.8; stroke-linejoin: miter; stroke-linecap: square"/>
   </g>
   <g id="patch_5">
    <path d="M 57.6 307.584 
L 414.72 307.584 
" style="fill: none; stroke: #000000; stroke-width: 0.8; stroke-linejoin: miter; stroke-linecap: square"/>
   </g>
   <g id="patch_6">
    <path d="M 57.6 41.472 
L 414.72 41.472 
" style="fill: none; stroke: #000000; stroke-width: 0.8; stroke-linejoin: miter; stroke-linecap: square"/>
   </g>
   <g id="text_15">
    <!-- ROC CURVE -->
    <g transform="translate(200.855625 35.472)scale(0.12 -0.12)">
     <defs>
      <path id="DejaVuSans-4f" d="M 2522 4238 
Q 1834 4238 1429 3725 
Q 1025 3213 1025 2328 
Q 1025 1447 1429 934 
Q 1834 422 2522 422 
Q 3209 422 3611 934 
Q 4013 1447 4013 2328 
Q 4013 3213 3611 3725 
Q 3209 4238 2522 4238 
z
M 2522 4750 
Q 3503 4750 4090 4092 
Q 4678 3434 4678 2328 
Q 4678 1225 4090 567 
Q 3503 -91 2522 -91 
Q 1538 -91 948 565 
Q 359 1222 359 2328 
Q 359 3434 948 4092 
Q 1538 4750 2522 4750 
z
" transform="scale(0.015625)"/>
      <path id="DejaVuSans-43" d="M 4122 4306 
L 4122 3641 
Q 3803 3938 3442 4084 
Q 3081 4231 2675 4231 
Q 1875 4231 1450 3742 
Q 1025 3253 1025 2328 
Q 1025 1406 1450 917 
Q 1875 428 2675 428 
Q 3081 428 3442 575 
Q 3803 722 4122 1019 
L 4122 359 
Q 3791 134 3420 21 
Q 3050 -91 2638 -91 
Q 1578 -91 968 557 
Q 359 1206 359 2328 
Q 359 3453 968 4101 
Q 1578 4750 2638 4750 
Q 3056 4750 3426 4639 
Q 3797 4528 4122 4306 
z
" transform="scale(0.015625)"/>
      <path id="DejaVuSans-55" d="M 556 4666 
L 1191 4666 
L 1191 1831 
Q 1191 1081 1462 751 
Q 1734 422 2344 422 
Q 2950 422 3222 751 
Q 3494 1081 3494 1831 
L 3494 4666 
L 4128 4666 
L 4128 1753 
Q 4128 841 3676 375 
Q 3225 -91 2344 -91 
Q 1459 -91 1007 375 
Q 556 841 556 1753 
L 556 4666 
z
" transform="scale(0.015625)"/>
      <path id="DejaVuSans-56" d="M 1831 0 
L 50 4666 
L 709 4666 
L 2188 738 
L 3669 4666 
L 4325 4666 
L 2547 0 
L 1831 0 
z
" transform="scale(0.015625)"/>
      <path id="DejaVuSans-45" d="M 628 4666 
L 3578 4666 
L 3578 4134 
L 1259 4134 
L 1259 2753 
L 3481 2753 
L 3481 2222 
L 1259 2222 
L 1259 531 
L 3634 531 
L 3634 0 
L 628 0 
L 628 4666 
z
" transform="scale(0.015625)"/>
     </defs>
     <use xlink:href="#DejaVuSans-52"/>
     <use xlink:href="#DejaVuSans-4f" x="69.482422"/>
     <use xlink:href="#DejaVuSans-43" x="148.193359"/>
     <use xlink:href="#DejaVuSans-20" x="218.017578"/>
     <use xlink:href="#DejaVuSans-43" x="249.804688"/>
     <use xlink:href="#DejaVuSans-55" x="319.628906"/>
     <use xlink:href="#DejaVuSans-52" x="392.822266"/>
     <use xlink:href="#DejaVuSans-56" x="456.804688"/>
     <use xlink:href="#DejaVuSans-45" x="525.212891"/>
    </g>
   </g>
   <g id="legend_1">
    <g id="patch_7">
     <path d="M 234.97 302.584 
L 407.72 302.584 
Q 409.72 302.584 409.72 300.584 
L 409.72 286.905875 
Q 409.72 284.905875 407.72 284.905875 
L 234.97 284.905875 
Q 232.97 284.905875 232.97 286.905875 
L 232.97 300.584 
Q 232.97 302.584 234.97 302.584 
z
" style="fill: #ffffff; opacity: 0.8; stroke: #cccccc; stroke-linejoin: miter"/>
    </g>
    <g id="line2d_15">
     <path d="M 236.97 293.004312 
L 246.97 293.004312 
L 256.97 293.004312 
" style="fill: none; stroke: #ff8c00; stroke-width: 1.5; stroke-linecap: square"/>
    </g>
    <g id="text_16">
     <!-- ROC curve (ROC AUC=0.49) -->
     <g transform="translate(264.97 296.504312)scale(0.1 -0.1)">
      <defs>
       <path id="DejaVuSans-63" d="M 3122 3366 
L 3122 2828 
Q 2878 2963 2633 3030 
Q 2388 3097 2138 3097 
Q 1578 3097 1268 2742 
Q 959 2388 959 1747 
Q 959 1106 1268 751 
Q 1578 397 2138 397 
Q 2388 397 2633 464 
Q 2878 531 3122 666 
L 3122 134 
Q 2881 22 2623 -34 
Q 2366 -91 2075 -91 
Q 1284 -91 818 406 
Q 353 903 353 1747 
Q 353 2603 823 3093 
Q 1294 3584 2113 3584 
Q 2378 3584 2631 3529 
Q 2884 3475 3122 3366 
z
" transform="scale(0.015625)"/>
       <path id="DejaVuSans-28" d="M 1984 4856 
Q 1566 4138 1362 3434 
Q 1159 2731 1159 2009 
Q 1159 1288 1364 580 
Q 1569 -128 1984 -844 
L 1484 -844 
Q 1016 -109 783 600 
Q 550 1309 550 2009 
Q 550 2706 781 3412 
Q 1013 4119 1484 4856 
L 1984 4856 
z
" transform="scale(0.015625)"/>
       <path id="DejaVuSans-41" d="M 2188 4044 
L 1331 1722 
L 3047 1722 
L 2188 4044 
z
M 1831 4666 
L 2547 4666 
L 4325 0 
L 3669 0 
L 3244 1197 
L 1141 1197 
L 716 0 
L 50 0 
L 1831 4666 
z
" transform="scale(0.015625)"/>
       <path id="DejaVuSans-3d" d="M 678 2906 
L 4684 2906 
L 4684 2381 
L 678 2381 
L 678 2906 
z
M 678 1631 
L 4684 1631 
L 4684 1100 
L 678 1100 
L 678 1631 
z
" transform="scale(0.015625)"/>
       <path id="DejaVuSans-39" d="M 703 97 
L 703 672 
Q 941 559 1184 500 
Q 1428 441 1663 441 
Q 2288 441 2617 861 
Q 2947 1281 2994 2138 
Q 2813 1869 2534 1725 
Q 2256 1581 1919 1581 
Q 1219 1581 811 2004 
Q 403 2428 403 3163 
Q 403 3881 828 4315 
Q 1253 4750 1959 4750 
Q 2769 4750 3195 4129 
Q 3622 3509 3622 2328 
Q 3622 1225 3098 567 
Q 2575 -91 1691 -91 
Q 1453 -91 1209 -44 
Q 966 3 703 97 
z
M 1959 2075 
Q 2384 2075 2632 2365 
Q 2881 2656 2881 3163 
Q 2881 3666 2632 3958 
Q 2384 4250 1959 4250 
Q 1534 4250 1286 3958 
Q 1038 3666 1038 3163 
Q 1038 2656 1286 2365 
Q 1534 2075 1959 2075 
z
" transform="scale(0.015625)"/>
       <path id="DejaVuSans-29" d="M 513 4856 
L 1013 4856 
Q 1481 4119 1714 3412 
Q 1947 2706 1947 2009 
Q 1947 1309 1714 600 
Q 1481 -109 1013 -844 
L 513 -844 
Q 928 -128 1133 580 
Q 1338 1288 1338 2009 
Q 1338 2731 1133 3434 
Q 928 4138 513 4856 
z
" transform="scale(0.015625)"/>
      </defs>
      <use xlink:href="#DejaVuSans-52"/>
      <use xlink:href="#DejaVuSans-4f" x="69.482422"/>
      <use xlink:href="#DejaVuSans-43" x="148.193359"/>
      <use xlink:href="#DejaVuSans-20" x="218.017578"/>
      <use xlink:href="#DejaVuSans-63" x="249.804688"/>
      <use xlink:href="#DejaVuSans-75" x="304.785156"/>
      <use xlink:href="#DejaVuSans-72" x="368.164062"/>
      <use xlink:href="#DejaVuSans-76" x="409.277344"/>
      <use xlink:href="#DejaVuSans-65" x="468.457031"/>
      <use xlink:href="#DejaVuSans-20" x="529.980469"/>
      <use xlink:href="#DejaVuSans-28" x="561.767578"/>
      <use xlink:href="#DejaVuSans-52" x="600.78125"/>
      <use xlink:href="#DejaVuSans-4f" x="670.263672"/>
      <use xlink:href="#DejaVuSans-43" x="748.974609"/>
      <use xlink:href="#DejaVuSans-20" x="818.798828"/>
      <use xlink:href="#DejaVuSans-41" x="850.585938"/>
      <use xlink:href="#DejaVuSans-55" x="918.994141"/>
      <use xlink:href="#DejaVuSans-43" x="992.1875"/>
      <use xlink:href="#DejaVuSans-3d" x="1062.011719"/>
      <use xlink:href="#DejaVuSans-30" x="1145.800781"/>
      <use xlink:href="#DejaVuSans-2e" x="1209.423828"/>
      <use xlink:href="#DejaVuSans-34" x="1241.210938"/>
      <use xlink:href="#DejaVuSans-39" x="1304.833984"/>
      <use xlink:href="#DejaVuSans-29" x="1368.457031"/>
     </g>
    </g>
   </g>
  </g>
 </g>
 <defs>
  <clipPath id="pa3b0b9c478">
   <rect x="57.6" y="41.472" width="357.12" height="266.112"/>
  </clipPath>
 </defs>
</svg>
