<?xml version="1.0" encoding="utf-8" standalone="no"?>
<!DOCTYPE svg PUBLIC "-//W3C//DTD SVG 1.1//EN"
  "http://www.w3.org/Graphics/SVG/1.1/DTD/svg11.dtd">
<svg xmlns:xlink="http://www.w3.org/1999/xlink" width="460.8pt" height="345.6pt" viewBox="0 0 460.8 345.6" xmlns="http://www.w3.org/2000/svg" version="1.1">
 <metadata>
  <rdf:RDF xmlns:dc="http://purl.org/dc/elements/1.1/" xmlns:cc="http://creativecommons.org/ns#" xmlns:rdf="http://www.w3.org/1999/02/22-rdf-syntax-ns#">
   <cc:Work>
    <dc:type rdf:resource="http://purl.org/dc/dcmitype/StillImage"/>
    <dc:date>2022-05-26T16:38:41.056183</dc:date>
    <dc:format>image/svg+xml</dc:format>
    <dc:creator>
     <cc:Agent>
      <dc:title>Matplotlib v3.5.1, https://matplotlib.org/</dc:title>
     </cc:Agent>
    </dc:creator>
   </cc:Work>
  </rdf:RDF>
 </metadata>
 <defs>
  <style type="text/css">*{stroke-linejoin: round; stroke-linecap: butt}</style>
 </defs>
 <g id="figure_1">
  <g id="patch_1">
   <path d="M 0 345.6 
L 460.8 345.6 
L 460.8 0 
L 0 0 
z
" style="fill: #ffffff"/>
  </g>
  <g id="axes_1">
   <g id="patch_2">
    <path d="M 57.6 307.584 
L 414.72 307.584 
L 414.72 41.472 
L 57.6 41.472 
z
" style="fill: #ffffff"/>
   </g>
   <g id="matplotlib.axis_1">
    <g id="xtick_1">
     <g id="line2d_1">
      <defs>
       <path id="m28468072e0" d="M 0 0 
L 0 3.5 
" style="stroke: #000000; stroke-width: 0.8"/>
      </defs>
      <g>
       <use xlink:href="#m28468072e0" x="74.605714" y="307.584" style="stroke: #000000; stroke-width: 0.8"/>
      </g>
     </g>
     <g id="text_1">
      <!-- 0.0 -->
      <g transform="translate(66.654152 322.182437)scale(0.1 -0.1)">
       <defs>
        <path id="DejaVuSans-30" d="M 2034 4250 
Q 1547 4250 1301 3770 
Q 1056 3291 1056 2328 
Q 1056 1369 1301 889 
Q 1547 409 2034 409 
Q 2525 409 2770 889 
Q 3016 1369 3016 2328 
Q 3016 3291 2770 3770 
Q 2525 4250 2034 4250 
z
M 2034 4750 
Q 2819 4750 3233 4129 
Q 3647 3509 3647 2328 
Q 3647 1150 3233 529 
Q 2819 -91 2034 -91 
Q 1250 -91 836 529 
Q 422 1150 422 2328 
Q 422 3509 836 4129 
Q 1250 4750 2034 4750 
z
" transform="scale(0.015625)"/>
        <path id="DejaVuSans-2e" d="M 684 794 
L 1344 794 
L 1344 0 
L 684 0 
L 684 794 
z
" transform="scale(0.015625)"/>
       </defs>
       <use xlink:href="#DejaVuSans-30"/>
       <use xlink:href="#DejaVuSans-2e" x="63.623047"/>
       <use xlink:href="#DejaVuSans-30" x="95.410156"/>
      </g>
     </g>
    </g>
    <g id="xtick_2">
     <g id="line2d_2">
      <g>
       <use xlink:href="#m28468072e0" x="142.628571" y="307.584" style="stroke: #000000; stroke-width: 0.8"/>
      </g>
     </g>
     <g id="text_2">
      <!-- 0.2 -->
      <g transform="translate(134.677009 322.182437)scale(0.1 -0.1)">
       <defs>
        <path id="DejaVuSans-32" d="M 1228 531 
L 3431 531 
L 3431 0 
L 469 0 
L 469 531 
Q 828 903 1448 1529 
Q 2069 2156 2228 2338 
Q 2531 2678 2651 2914 
Q 2772 3150 2772 3378 
Q 2772 3750 2511 3984 
Q 2250 4219 1831 4219 
Q 1534 4219 1204 4116 
Q 875 4013 500 3803 
L 500 4441 
Q 881 4594 1212 4672 
Q 1544 4750 1819 4750 
Q 2544 4750 2975 4387 
Q 3406 4025 3406 3419 
Q 3406 3131 3298 2873 
Q 3191 2616 2906 2266 
Q 2828 2175 2409 1742 
Q 1991 1309 1228 531 
z
" transform="scale(0.015625)"/>
       </defs>
       <use xlink:href="#DejaVuSans-30"/>
       <use xlink:href="#DejaVuSans-2e" x="63.623047"/>
       <use xlink:href="#DejaVuSans-32" x="95.410156"/>
      </g>
     </g>
    </g>
    <g id="xtick_3">
     <g id="line2d_3">
      <g>
       <use xlink:href="#m28468072e0" x="210.651429" y="307.584" style="stroke: #000000; stroke-width: 0.8"/>
      </g>
     </g>
     <g id="text_3">
      <!-- 0.4 -->
      <g transform="translate(202.699866 322.182437)scale(0.1 -0.1)">
       <defs>
        <path id="DejaVuSans-34" d="M 2419 4116 
L 825 1625 
L 2419 1625 
L 2419 4116 
z
M 2253 4666 
L 3047 4666 
L 3047 1625 
L 3713 1625 
L 3713 1100 
L 3047 1100 
L 3047 0 
L 2419 0 
L 2419 1100 
L 313 1100 
L 313 1709 
L 2253 4666 
z
" transform="scale(0.015625)"/>
       </defs>
       <use xlink:href="#DejaVuSans-30"/>
       <use xlink:href="#DejaVuSans-2e" x="63.623047"/>
       <use xlink:href="#DejaVuSans-34" x="95.410156"/>
      </g>
     </g>
    </g>
    <g id="xtick_4">
     <g id="line2d_4">
      <g>
       <use xlink:href="#m28468072e0" x="278.674286" y="307.584" style="stroke: #000000; stroke-width: 0.8"/>
      </g>
     </g>
     <g id="text_4">
      <!-- 0.6 -->
      <g transform="translate(270.722723 322.182437)scale(0.1 -0.1)">
       <defs>
        <path id="DejaVuSans-36" d="M 2113 2584 
Q 1688 2584 1439 2293 
Q 1191 2003 1191 1497 
Q 1191 994 1439 701 
Q 1688 409 2113 409 
Q 2538 409 2786 701 
Q 3034 994 3034 1497 
Q 3034 2003 2786 2293 
Q 2538 2584 2113 2584 
z
M 3366 4563 
L 3366 3988 
Q 3128 4100 2886 4159 
Q 2644 4219 2406 4219 
Q 1781 4219 1451 3797 
Q 1122 3375 1075 2522 
Q 1259 2794 1537 2939 
Q 1816 3084 2150 3084 
Q 2853 3084 3261 2657 
Q 3669 2231 3669 1497 
Q 3669 778 3244 343 
Q 2819 -91 2113 -91 
Q 1303 -91 875 529 
Q 447 1150 447 2328 
Q 447 3434 972 4092 
Q 1497 4750 2381 4750 
Q 2619 4750 2861 4703 
Q 3103 4656 3366 4563 
z
" transform="scale(0.015625)"/>
       </defs>
       <use xlink:href="#DejaVuSans-30"/>
       <use xlink:href="#DejaVuSans-2e" x="63.623047"/>
       <use xlink:href="#DejaVuSans-36" x="95.410156"/>
      </g>
     </g>
    </g>
    <g id="xtick_5">
     <g id="line2d_5">
      <g>
       <use xlink:href="#m28468072e0" x="346.697143" y="307.584" style="stroke: #000000; stroke-width: 0.8"/>
      </g>
     </g>
     <g id="text_5">
      <!-- 0.8 -->
      <g transform="translate(338.74558 322.182437)scale(0.1 -0.1)">
       <defs>
        <path id="DejaVuSans-38" d="M 2034 2216 
Q 1584 2216 1326 1975 
Q 1069 1734 1069 1313 
Q 1069 891 1326 650 
Q 1584 409 2034 409 
Q 2484 409 2743 651 
Q 3003 894 3003 1313 
Q 3003 1734 2745 1975 
Q 2488 2216 2034 2216 
z
M 1403 2484 
Q 997 2584 770 2862 
Q 544 3141 544 3541 
Q 544 4100 942 4425 
Q 1341 4750 2034 4750 
Q 2731 4750 3128 4425 
Q 3525 4100 3525 3541 
Q 3525 3141 3298 2862 
Q 3072 2584 2669 2484 
Q 3125 2378 3379 2068 
Q 3634 1759 3634 1313 
Q 3634 634 3220 271 
Q 2806 -91 2034 -91 
Q 1263 -91 848 271 
Q 434 634 434 1313 
Q 434 1759 690 2068 
Q 947 2378 1403 2484 
z
M 1172 3481 
Q 1172 3119 1398 2916 
Q 1625 2713 2034 2713 
Q 2441 2713 2670 2916 
Q 2900 3119 2900 3481 
Q 2900 3844 2670 4047 
Q 2441 4250 2034 4250 
Q 1625 4250 1398 4047 
Q 1172 3844 1172 3481 
z
" transform="scale(0.015625)"/>
       </defs>
       <use xlink:href="#DejaVuSans-30"/>
       <use xlink:href="#DejaVuSans-2e" x="63.623047"/>
       <use xlink:href="#DejaVuSans-38" x="95.410156"/>
      </g>
     </g>
    </g>
    <g id="xtick_6">
     <g id="line2d_6">
      <g>
       <use xlink:href="#m28468072e0" x="414.72" y="307.584" style="stroke: #000000; stroke-width: 0.8"/>
      </g>
     </g>
     <g id="text_6">
      <!-- 1.0 -->
      <g transform="translate(406.768438 322.182437)scale(0.1 -0.1)">
       <defs>
        <path id="DejaVuSans-31" d="M 794 531 
L 1825 531 
L 1825 4091 
L 703 3866 
L 703 4441 
L 1819 4666 
L 2450 4666 
L 2450 531 
L 3481 531 
L 3481 0 
L 794 0 
L 794 531 
z
" transform="scale(0.015625)"/>
       </defs>
       <use xlink:href="#DejaVuSans-31"/>
       <use xlink:href="#DejaVuSans-2e" x="63.623047"/>
       <use xlink:href="#DejaVuSans-30" x="95.410156"/>
      </g>
     </g>
    </g>
    <g id="text_7">
     <!-- False Positive Rate -->
     <g transform="translate(189.693594 335.860562)scale(0.1 -0.1)">
      <defs>
       <path id="DejaVuSans-46" d="M 628 4666 
L 3309 4666 
L 3309 4134 
L 1259 4134 
L 1259 2759 
L 3109 2759 
L 3109 2228 
L 1259 2228 
L 1259 0 
L 628 0 
L 628 4666 
z
" transform="scale(0.015625)"/>
       <path id="DejaVuSans-61" d="M 2194 1759 
Q 1497 1759 1228 1600 
Q 959 1441 959 1056 
Q 959 750 1161 570 
Q 1363 391 1709 391 
Q 2188 391 2477 730 
Q 2766 1069 2766 1631 
L 2766 1759 
L 2194 1759 
z
M 3341 1997 
L 3341 0 
L 2766 0 
L 2766 531 
Q 2569 213 2275 61 
Q 1981 -91 1556 -91 
Q 1019 -91 701 211 
Q 384 513 384 1019 
Q 384 1609 779 1909 
Q 1175 2209 1959 2209 
L 2766 2209 
L 2766 2266 
Q 2766 2663 2505 2880 
Q 2244 3097 1772 3097 
Q 1472 3097 1187 3025 
Q 903 2953 641 2809 
L 641 3341 
Q 956 3463 1253 3523 
Q 1550 3584 1831 3584 
Q 2591 3584 2966 3190 
Q 3341 2797 3341 1997 
z
" transform="scale(0.015625)"/>
       <path id="DejaVuSans-6c" d="M 603 4863 
L 1178 4863 
L 1178 0 
L 603 0 
L 603 4863 
z
" transform="scale(0.015625)"/>
       <path id="DejaVuSans-73" d="M 2834 3397 
L 2834 2853 
Q 2591 2978 2328 3040 
Q 2066 3103 1784 3103 
Q 1356 3103 1142 2972 
Q 928 2841 928 2578 
Q 928 2378 1081 2264 
Q 1234 2150 1697 2047 
L 1894 2003 
Q 2506 1872 2764 1633 
Q 3022 1394 3022 966 
Q 3022 478 2636 193 
Q 2250 -91 1575 -91 
Q 1294 -91 989 -36 
Q 684 19 347 128 
L 347 722 
Q 666 556 975 473 
Q 1284 391 1588 391 
Q 1994 391 2212 530 
Q 2431 669 2431 922 
Q 2431 1156 2273 1281 
Q 2116 1406 1581 1522 
L 1381 1569 
Q 847 1681 609 1914 
Q 372 2147 372 2553 
Q 372 3047 722 3315 
Q 1072 3584 1716 3584 
Q 2034 3584 2315 3537 
Q 2597 3491 2834 3397 
z
" transform="scale(0.015625)"/>
       <path id="DejaVuSans-65" d="M 3597 1894 
L 3597 1613 
L 953 1613 
Q 991 1019 1311 708 
Q 1631 397 2203 397 
Q 2534 397 2845 478 
Q 3156 559 3463 722 
L 3463 178 
Q 3153 47 2828 -22 
Q 2503 -91 2169 -91 
Q 1331 -91 842 396 
Q 353 884 353 1716 
Q 353 2575 817 3079 
Q 1281 3584 2069 3584 
Q 2775 3584 3186 3129 
Q 3597 2675 3597 1894 
z
M 3022 2063 
Q 3016 2534 2758 2815 
Q 2500 3097 2075 3097 
Q 1594 3097 1305 2825 
Q 1016 2553 972 2059 
L 3022 2063 
z
" transform="scale(0.015625)"/>
       <path id="DejaVuSans-20" transform="scale(0.015625)"/>
       <path id="DejaVuSans-50" d="M 1259 4147 
L 1259 2394 
L 2053 2394 
Q 2494 2394 2734 2622 
Q 2975 2850 2975 3272 
Q 2975 3691 2734 3919 
Q 2494 4147 2053 4147 
L 1259 4147 
z
M 628 4666 
L 2053 4666 
Q 2838 4666 3239 4311 
Q 3641 3956 3641 3272 
Q 3641 2581 3239 2228 
Q 2838 1875 2053 1875 
L 1259 1875 
L 1259 0 
L 628 0 
L 628 4666 
z
" transform="scale(0.015625)"/>
       <path id="DejaVuSans-6f" d="M 1959 3097 
Q 1497 3097 1228 2736 
Q 959 2375 959 1747 
Q 959 1119 1226 758 
Q 1494 397 1959 397 
Q 2419 397 2687 759 
Q 2956 1122 2956 1747 
Q 2956 2369 2687 2733 
Q 2419 3097 1959 3097 
z
M 1959 3584 
Q 2709 3584 3137 3096 
Q 3566 2609 3566 1747 
Q 3566 888 3137 398 
Q 2709 -91 1959 -91 
Q 1206 -91 779 398 
Q 353 888 353 1747 
Q 353 2609 779 3096 
Q 1206 3584 1959 3584 
z
" transform="scale(0.015625)"/>
       <path id="DejaVuSans-69" d="M 603 3500 
L 1178 3500 
L 1178 0 
L 603 0 
L 603 3500 
z
M 603 4863 
L 1178 4863 
L 1178 4134 
L 603 4134 
L 603 4863 
z
" transform="scale(0.015625)"/>
       <path id="DejaVuSans-74" d="M 1172 4494 
L 1172 3500 
L 2356 3500 
L 2356 3053 
L 1172 3053 
L 1172 1153 
Q 1172 725 1289 603 
Q 1406 481 1766 481 
L 2356 481 
L 2356 0 
L 1766 0 
Q 1100 0 847 248 
Q 594 497 594 1153 
L 594 3053 
L 172 3053 
L 172 3500 
L 594 3500 
L 594 4494 
L 1172 4494 
z
" transform="scale(0.015625)"/>
       <path id="DejaVuSans-76" d="M 191 3500 
L 800 3500 
L 1894 563 
L 2988 3500 
L 3597 3500 
L 2284 0 
L 1503 0 
L 191 3500 
z
" transform="scale(0.015625)"/>
       <path id="DejaVuSans-52" d="M 2841 2188 
Q 3044 2119 3236 1894 
Q 3428 1669 3622 1275 
L 4263 0 
L 3584 0 
L 2988 1197 
Q 2756 1666 2539 1819 
Q 2322 1972 1947 1972 
L 1259 1972 
L 1259 0 
L 628 0 
L 628 4666 
L 2053 4666 
Q 2853 4666 3247 4331 
Q 3641 3997 3641 3322 
Q 3641 2881 3436 2590 
Q 3231 2300 2841 2188 
z
M 1259 4147 
L 1259 2491 
L 2053 2491 
Q 2509 2491 2742 2702 
Q 2975 2913 2975 3322 
Q 2975 3731 2742 3939 
Q 2509 4147 2053 4147 
L 1259 4147 
z
" transform="scale(0.015625)"/>
      </defs>
      <use xlink:href="#DejaVuSans-46"/>
      <use xlink:href="#DejaVuSans-61" x="48.394531"/>
      <use xlink:href="#DejaVuSans-6c" x="109.673828"/>
      <use xlink:href="#DejaVuSans-73" x="137.457031"/>
      <use xlink:href="#DejaVuSans-65" x="189.556641"/>
      <use xlink:href="#DejaVuSans-20" x="251.080078"/>
      <use xlink:href="#DejaVuSans-50" x="282.867188"/>
      <use xlink:href="#DejaVuSans-6f" x="339.544922"/>
      <use xlink:href="#DejaVuSans-73" x="400.726562"/>
      <use xlink:href="#DejaVuSans-69" x="452.826172"/>
      <use xlink:href="#DejaVuSans-74" x="480.609375"/>
      <use xlink:href="#DejaVuSans-69" x="519.818359"/>
      <use xlink:href="#DejaVuSans-76" x="547.601562"/>
      <use xlink:href="#DejaVuSans-65" x="606.78125"/>
      <use xlink:href="#DejaVuSans-20" x="668.304688"/>
      <use xlink:href="#DejaVuSans-52" x="700.091797"/>
      <use xlink:href="#DejaVuSans-61" x="767.324219"/>
      <use xlink:href="#DejaVuSans-74" x="828.603516"/>
      <use xlink:href="#DejaVuSans-65" x="867.8125"/>
     </g>
    </g>
   </g>
   <g id="matplotlib.axis_2">
    <g id="ytick_1">
     <g id="line2d_7">
      <defs>
       <path id="mc01bf60846" d="M 0 0 
L -3.5 0 
" style="stroke: #000000; stroke-width: 0.8"/>
      </defs>
      <g>
       <use xlink:href="#mc01bf60846" x="57.6" y="307.584" style="stroke: #000000; stroke-width: 0.8"/>
      </g>
     </g>
     <g id="text_8">
      <!-- 0.0 -->
      <g transform="translate(34.696875 311.383219)scale(0.1 -0.1)">
       <use xlink:href="#DejaVuSans-30"/>
       <use xlink:href="#DejaVuSans-2e" x="63.623047"/>
       <use xlink:href="#DejaVuSans-30" x="95.410156"/>
      </g>
     </g>
    </g>
    <g id="ytick_2">
     <g id="line2d_8">
      <g>
       <use xlink:href="#mc01bf60846" x="57.6" y="256.896" style="stroke: #000000; stroke-width: 0.8"/>
      </g>
     </g>
     <g id="text_9">
      <!-- 0.2 -->
      <g transform="translate(34.696875 260.695219)scale(0.1 -0.1)">
       <use xlink:href="#DejaVuSans-30"/>
       <use xlink:href="#DejaVuSans-2e" x="63.623047"/>
       <use xlink:href="#DejaVuSans-32" x="95.410156"/>
      </g>
     </g>
    </g>
    <g id="ytick_3">
     <g id="line2d_9">
      <g>
       <use xlink:href="#mc01bf60846" x="57.6" y="206.208" style="stroke: #000000; stroke-width: 0.8"/>
      </g>
     </g>
     <g id="text_10">
      <!-- 0.4 -->
      <g transform="translate(34.696875 210.007219)scale(0.1 -0.1)">
       <use xlink:href="#DejaVuSans-30"/>
       <use xlink:href="#DejaVuSans-2e" x="63.623047"/>
       <use xlink:href="#DejaVuSans-34" x="95.410156"/>
      </g>
     </g>
    </g>
    <g id="ytick_4">
     <g id="line2d_10">
      <g>
       <use xlink:href="#mc01bf60846" x="57.6" y="155.52" style="stroke: #000000; stroke-width: 0.8"/>
      </g>
     </g>
     <g id="text_11">
      <!-- 0.6 -->
      <g transform="translate(34.696875 159.319219)scale(0.1 -0.1)">
       <use xlink:href="#DejaVuSans-30"/>
       <use xlink:href="#DejaVuSans-2e" x="63.623047"/>
       <use xlink:href="#DejaVuSans-36" x="95.410156"/>
      </g>
     </g>
    </g>
    <g id="ytick_5">
     <g id="line2d_11">
      <g>
       <use xlink:href="#mc01bf60846" x="57.6" y="104.832" style="stroke: #000000; stroke-width: 0.8"/>
      </g>
     </g>
     <g id="text_12">
      <!-- 0.8 -->
      <g transform="translate(34.696875 108.631219)scale(0.1 -0.1)">
       <use xlink:href="#DejaVuSans-30"/>
       <use xlink:href="#DejaVuSans-2e" x="63.623047"/>
       <use xlink:href="#DejaVuSans-38" x="95.410156"/>
      </g>
     </g>
    </g>
    <g id="ytick_6">
     <g id="line2d_12">
      <g>
       <use xlink:href="#mc01bf60846" x="57.6" y="54.144" style="stroke: #000000; stroke-width: 0.8"/>
      </g>
     </g>
     <g id="text_13">
      <!-- 1.0 -->
      <g transform="translate(34.696875 57.943219)scale(0.1 -0.1)">
       <use xlink:href="#DejaVuSans-31"/>
       <use xlink:href="#DejaVuSans-2e" x="63.623047"/>
       <use xlink:href="#DejaVuSans-30" x="95.410156"/>
      </g>
     </g>
    </g>
    <g id="text_14">
     <!-- True Positive Rate -->
     <g transform="translate(28.617187 219.057687)rotate(-90)scale(0.1 -0.1)">
      <defs>
       <path id="DejaVuSans-54" d="M -19 4666 
L 3928 4666 
L 3928 4134 
L 2272 4134 
L 2272 0 
L 1638 0 
L 1638 4134 
L -19 4134 
L -19 4666 
z
" transform="scale(0.015625)"/>
       <path id="DejaVuSans-72" d="M 2631 2963 
Q 2534 3019 2420 3045 
Q 2306 3072 2169 3072 
Q 1681 3072 1420 2755 
Q 1159 2438 1159 1844 
L 1159 0 
L 581 0 
L 581 3500 
L 1159 3500 
L 1159 2956 
Q 1341 3275 1631 3429 
Q 1922 3584 2338 3584 
Q 2397 3584 2469 3576 
Q 2541 3569 2628 3553 
L 2631 2963 
z
" transform="scale(0.015625)"/>
       <path id="DejaVuSans-75" d="M 544 1381 
L 544 3500 
L 1119 3500 
L 1119 1403 
Q 1119 906 1312 657 
Q 1506 409 1894 409 
Q 2359 409 2629 706 
Q 2900 1003 2900 1516 
L 2900 3500 
L 3475 3500 
L 3475 0 
L 2900 0 
L 2900 538 
Q 2691 219 2414 64 
Q 2138 -91 1772 -91 
Q 1169 -91 856 284 
Q 544 659 544 1381 
z
M 1991 3584 
L 1991 3584 
z
" transform="scale(0.015625)"/>
      </defs>
      <use xlink:href="#DejaVuSans-54"/>
      <use xlink:href="#DejaVuSans-72" x="46.333984"/>
      <use xlink:href="#DejaVuSans-75" x="87.447266"/>
      <use xlink:href="#DejaVuSans-65" x="150.826172"/>
      <use xlink:href="#DejaVuSans-20" x="212.349609"/>
      <use xlink:href="#DejaVuSans-50" x="244.136719"/>
      <use xlink:href="#DejaVuSans-6f" x="300.814453"/>
      <use xlink:href="#DejaVuSans-73" x="361.996094"/>
      <use xlink:href="#DejaVuSans-69" x="414.095703"/>
      <use xlink:href="#DejaVuSans-74" x="441.878906"/>
      <use xlink:href="#DejaVuSans-69" x="481.087891"/>
      <use xlink:href="#DejaVuSans-76" x="508.871094"/>
      <use xlink:href="#DejaVuSans-65" x="568.050781"/>
      <use xlink:href="#DejaVuSans-20" x="629.574219"/>
      <use xlink:href="#DejaVuSans-52" x="661.361328"/>
      <use xlink:href="#DejaVuSans-61" x="728.59375"/>
      <use xlink:href="#DejaVuSans-74" x="789.873047"/>
      <use xlink:href="#DejaVuSans-65" x="829.082031"/>
     </g>
    </g>
   </g>
   <g id="line2d_13">
    <path d="M 74.605714 307.584 
L 74.975034 307.47598 
L 75.084076 307.450564 
L 75.084376 307.450564 
L 75.519001 307.342544 
L 75.576073 307.317127 
L 75.6289 307.317127 
L 76.026005 307.209108 
L 76.087923 307.196399 
L 76.136977 307.196399 
L 76.518817 307.088379 
L 76.629103 307.053432 
L 76.629917 307.053432 
L 77.055838 306.945412 
L 77.158705 306.916819 
L 77.166252 306.916819 
L 77.630677 306.808799 
L 77.742078 306.783382 
L 78.183735 306.675362 
L 78.287031 306.6563 
L 78.294835 306.6563 
L 78.798753 306.54828 
L 78.892487 306.500624 
L 78.909853 306.500624 
L 79.432894 306.392605 
L 79.513036 306.367188 
L 79.543909 306.367188 
L 80.0245 306.259168 
L 80.135257 306.221044 
L 80.135472 306.221044 
L 80.542997 306.113024 
L 80.644492 306.081253 
L 80.654011 306.081253 
L 81.149867 305.973233 
L 81.261611 305.950994 
L 81.804763 305.842974 
L 81.906687 305.823912 
L 81.915863 305.823912 
L 82.583708 305.715892 
L 82.694937 305.684121 
L 83.23706 305.576101 
L 83.347517 305.547508 
L 83.348118 305.547508 
L 84.091002 305.439488 
L 84.146616 305.420426 
L 84.202059 305.420426 
L 84.806657 305.312406 
L 84.9178 305.306052 
L 85.548083 305.198032 
L 85.660041 305.166261 
L 86.234238 305.058242 
L 86.33286 305.023294 
L 86.345166 305.023294 
L 87.03801 304.915274 
L 87.149411 304.889858 
L 87.672967 304.781838 
L 87.752637 304.731005 
L 87.784024 304.731005 
L 88.169638 304.622985 
L 88.259599 304.6071 
L 88.280695 304.6071 
L 89.21555 304.49908 
L 89.302723 304.483195 
L 89.32665 304.483195 
L 90.065589 304.375175 
L 90.179005 304.343404 
L 90.817092 304.235384 
L 90.928535 304.194083 
L 91.693373 304.086063 
L 91.792381 304.063823 
L 91.804473 304.063823 
L 92.475406 303.955804 
L 92.586549 303.939918 
L 93.033994 303.831899 
L 93.130044 303.806482 
L 93.145009 303.806482 
L 93.960916 303.698462 
L 94.054393 303.673046 
L 94.071888 303.673046 
L 94.861725 303.565026 
L 94.968365 303.533255 
L 94.972696 303.533255 
L 95.583426 303.425236 
L 95.695899 303.393465 
L 96.24917 303.285445 
L 96.360571 303.263206 
L 96.869762 303.155186 
L 96.981549 303.126592 
L 97.456094 303.018573 
L 97.567451 302.996333 
L 98.001133 302.888313 
L 98.113348 302.847012 
L 98.725578 302.738992 
L 98.837879 302.710398 
L 99.433258 302.602378 
L 99.544616 302.576962 
L 100.05295 302.468942 
L 100.164393 302.437172 
L 100.906806 302.329152 
L 101.01812 302.306912 
L 101.527441 302.198892 
L 101.606639 302.17983 
L 101.638498 302.17983 
L 102.220799 302.07181 
L 102.332071 302.055925 
L 103.104456 301.947905 
L 103.216799 301.925666 
L 103.976921 301.817646 
L 104.089264 301.789052 
L 104.735241 301.681033 
L 104.848228 301.636554 
L 105.570916 301.528534 
L 105.682445 301.509472 
L 106.210203 301.401452 
L 106.322204 301.369681 
L 106.9786 301.261661 
L 107.090987 301.229891 
L 107.563474 301.121871 
L 107.674789 301.105986 
L 108.341133 300.997966 
L 108.452319 300.988435 
L 109.181353 300.880415 
L 109.292625 300.867707 
L 110.078731 300.759687 
L 110.19056 300.73427 
L 110.968948 300.62625 
L 111.081764 300.604011 
L 111.656861 300.495991 
L 111.768218 300.476929 
L 112.572763 300.368909 
L 112.684721 300.356201 
L 113.131223 300.248181 
L 113.243824 300.206879 
L 113.887656 300.098859 
L 113.999486 300.070266 
L 114.779589 299.962246 
L 114.892704 299.927298 
L 115.44902 299.819279 
L 115.562265 299.781154 
L 116.0459 299.673134 
L 116.159102 299.650895 
L 116.919052 299.542875 
L 117.032896 299.517458 
L 117.73929 299.409438 
L 117.850947 299.390376 
L 118.522909 299.282356 
L 118.635081 299.25694 
L 119.272611 299.14892 
L 119.384183 299.129858 
L 120.251588 299.021838 
L 120.36286 299.005953 
L 121.033535 298.897933 
L 121.144892 298.888402 
L 121.853644 298.780382 
L 121.966074 298.764496 
L 122.592069 298.656477 
L 122.698624 298.624706 
L 122.703169 298.624706 
L 123.24422 298.516686 
L 123.355449 298.503978 
L 123.957217 298.395958 
L 124.068875 298.376896 
L 124.182591 298.348302 
L 124.636297 298.240282 
L 124.747783 298.224397 
L 125.561418 298.116377 
L 125.672861 298.103669 
L 126.283591 297.995649 
L 126.396792 297.967056 
L 126.984067 297.859036 
L 127.09551 297.827265 
L 127.74809 297.719245 
L 127.859534 297.690652 
L 128.492947 297.582632 
L 128.605548 297.56357 
L 129.293418 297.45555 
L 129.406061 297.426956 
L 130.063959 297.318937 
L 130.178103 297.290343 
L 130.742352 297.182323 
L 130.854138 297.15373 
L 131.662628 297.04571 
L 131.7748 297.033002 
L 132.446804 296.924982 
L 132.559019 296.899565 
L 133.043384 296.791546 
L 133.157014 296.762952 
L 134.033853 296.654932 
L 134.145382 296.623162 
L 134.940236 296.515142 
L 135.05125 296.496079 
L 135.669612 296.38806 
L 135.782471 296.36582 
L 136.423388 296.2578 
L 136.535603 296.245092 
L 137.128495 296.137072 
L 137.241139 296.11801 
L 137.766625 296.00999 
L 137.880598 295.990928 
L 138.498188 295.882908 
L 138.611604 295.857491 
L 139.161317 295.749472 
L 139.273146 295.717701 
L 139.941634 295.609681 
L 140.053506 295.590619 
L 140.80621 295.482599 
L 140.918811 295.457183 
L 141.626576 295.349163 
L 141.735704 295.323746 
L 141.737462 295.323746 
L 142.315818 295.215726 
L 142.427648 295.19031 
L 143.236823 295.08229 
L 143.343635 295.056874 
L 143.347752 295.056874 
L 144.021728 294.948854 
L 144.136173 294.917083 
L 144.890849 294.809063 
L 145.003407 294.790001 
L 145.733084 294.681981 
L 145.844999 294.650211 
L 146.611853 294.542191 
L 146.723811 294.526306 
L 147.341058 294.418286 
L 147.452201 294.405577 
L 148.202503 294.297558 
L 148.315447 294.265787 
L 148.78995 294.157767 
L 148.901307 294.138705 
L 149.290137 294.030685 
L 149.401451 294.024331 
L 150.153168 293.916311 
L 150.257494 293.890895 
L 150.264054 293.890895 
L 151.033952 293.782875 
L 151.146896 293.763812 
L 151.91911 293.655793 
L 152.031625 293.630376 
L 152.829909 293.522356 
L 152.941995 293.500117 
L 153.746368 293.392097 
L 153.858798 293.373035 
L 154.306972 293.265015 
L 154.419273 293.236421 
L 155.236424 293.128402 
L 155.349797 293.096631 
L 155.983038 292.988611 
L 156.100527 292.953664 
L 156.800018 292.845644 
L 156.911332 292.823404 
L 157.65293 292.715384 
L 157.765059 292.705853 
L 158.536243 292.597833 
L 158.648801 292.578771 
L 159.346748 292.470751 
L 159.458963 292.451689 
L 160.015622 292.343669 
L 160.12788 292.318253 
L 160.856742 292.210233 
L 160.969429 292.178462 
L 161.771572 292.070442 
L 161.884731 292.035495 
L 162.589323 291.927475 
L 162.701153 291.91159 
L 163.448882 291.80357 
L 163.55921 291.765445 
L 163.559896 291.765445 
L 164.220281 291.657425 
L 164.31543 291.625655 
L 164.331166 291.625655 
L 165.008445 291.517635 
L 165.12036 291.498573 
L 165.618403 291.390553 
L 165.731219 291.37149 
L 166.333115 291.26347 
L 166.447217 291.234877 
L 167.150952 291.126857 
L 167.263082 291.110972 
L 167.810607 291.002952 
L 167.916948 290.980713 
L 167.921665 290.980713 
L 168.411775 290.872693 
L 168.52309 290.856808 
L 169.319058 290.748788 
L 169.430287 290.736079 
L 170.192595 290.62806 
L 170.306354 290.608997 
L 170.948943 290.500977 
L 171.062188 290.472384 
L 171.674333 290.364364 
L 171.786633 290.342125 
L 172.233307 290.234105 
L 172.344579 290.21822 
L 173.044841 290.1102 
L 173.156799 290.091137 
L 173.825073 289.983117 
L 173.936516 289.964055 
L 174.78008 289.856035 
L 174.894268 289.817911 
L 175.82209 289.709891 
L 175.934777 289.687651 
L 176.659823 289.579632 
L 176.771052 289.563746 
L 177.400392 289.455726 
L 177.511663 289.439841 
L 178.09465 289.331821 
L 178.206094 289.319113 
L 178.863776 289.211093 
L 178.975091 289.198385 
L 179.710814 289.090365 
L 179.822429 289.061772 
L 180.552749 288.953752 
L 180.666165 288.921981 
L 181.322647 288.813961 
L 181.435462 288.798076 
L 182.185593 288.690056 
L 182.298323 288.680525 
L 182.966211 288.572505 
L 183.077782 288.55662 
L 183.627109 288.4486 
L 183.74164 288.41683 
L 184.477191 288.30881 
L 184.588849 288.299279 
L 185.196106 288.191259 
L 185.309178 288.175373 
L 186.035211 288.067354 
L 186.148069 288.045114 
L 186.67497 287.937094 
L 186.790401 287.902147 
L 187.597347 287.794127 
L 187.710291 287.749648 
L 188.393272 287.641628 
L 188.504758 287.632097 
L 188.995598 287.524077 
L 189.108113 287.505015 
L 189.962269 287.396995 
L 190.074612 287.374756 
L 190.844382 287.266736 
L 190.955825 287.254028 
L 191.771561 287.146008 
L 191.882961 287.123768 
L 192.572503 287.015748 
L 192.66821 286.990332 
L 192.683518 286.990332 
L 193.332067 286.882312 
L 193.444625 286.86325 
L 194.022081 286.75523 
L 194.13391 286.729814 
L 194.708278 286.621794 
L 194.821651 286.580492 
L 195.784334 286.472472 
L 195.896635 286.450233 
L 196.750448 286.342213 
L 196.861763 286.307265 
L 197.410189 286.199245 
L 197.522576 286.18336 
L 198.023706 286.07534 
L 198.135407 286.053101 
L 198.770235 285.945081 
L 198.884465 285.916488 
L 199.485676 285.808468 
L 199.597548 285.789405 
L 200.245325 285.681386 
L 200.301583 285.649615 
L 200.356383 285.649615 
L 201.009606 285.541595 
L 201.120878 285.519356 
L 201.999775 285.411336 
L 202.112376 285.376388 
L 202.71796 285.268368 
L 202.829318 285.246129 
L 203.556122 285.138109 
L 203.66748 285.128578 
L 204.313713 285.020558 
L 204.427601 284.969725 
L 204.961491 284.861705 
L 205.073449 284.848997 
L 205.707248 284.740977 
L 205.820835 284.718738 
L 206.604583 284.610718 
L 206.706636 284.585302 
L 206.715683 284.585302 
L 207.40291 284.477282 
L 207.515082 284.451865 
L 208.335063 284.343846 
L 208.446635 284.324783 
L 208.927826 284.216763 
L 209.039098 284.200878 
L 209.548847 284.096035 
L 209.660376 284.061088 
L 210.268962 283.953068 
L 210.380277 283.927651 
L 211.076937 283.819632 
L 211.188766 283.800569 
L 211.965525 283.692549 
L 212.077526 283.660779 
L 212.696059 283.552759 
L 212.807803 283.527343 
L 213.430753 283.419323 
L 213.545112 283.393906 
L 214.277019 283.285886 
L 214.388334 283.270001 
L 215.0136 283.161981 
L 215.125043 283.136565 
L 215.838641 283.028545 
L 215.950684 282.993597 
L 216.743094 282.885577 
L 216.854408 282.869692 
L 217.488379 282.761672 
L 217.600208 282.736256 
L 218.193443 282.628236 
L 218.304715 282.618705 
L 218.777802 282.510685 
L 218.889631 282.491623 
L 219.549329 282.383603 
L 219.661116 282.367718 
L 220.070227 282.259698 
L 220.181799 282.22475 
L 220.696094 282.11673 
L 220.807322 282.104022 
L 221.306652 281.996002 
L 221.414708 281.970586 
L 221.417581 281.970586 
L 221.814 281.862566 
L 221.926086 281.840327 
L 222.500798 281.732307 
L 222.612112 281.716421 
L 223.177004 281.608402 
L 223.288405 281.586162 
L 223.770797 281.478142 
L 223.882369 281.462257 
L 224.655525 281.354237 
L 224.767226 281.331998 
L 225.320626 281.223978 
L 225.432841 281.198562 
L 226.140521 281.090542 
L 226.253551 281.074656 
L 226.947553 280.966637 
L 227.05891 280.94122 
L 227.622087 280.8332 
L 227.727827 280.807784 
L 227.733016 280.807784 
L 228.220124 280.699764 
L 228.333069 280.664816 
L 229.194299 280.556796 
L 229.305614 280.534557 
L 229.862916 280.426537 
L 229.974188 280.407475 
L 230.497701 280.299455 
L 230.609402 280.277216 
L 231.173994 280.169196 
L 231.285394 280.146956 
L 231.856246 280.038937 
L 231.969233 280.007166 
L 232.542744 279.899146 
L 232.655002 279.880084 
L 233.045118 279.772064 
L 233.156561 279.740293 
L 233.627676 279.632274 
L 233.740577 279.619565 
L 234.274167 279.511546 
L 234.385954 279.486129 
L 234.987807 279.378109 
L 235.058172 279.349516 
L 235.098865 279.349516 
L 235.739696 279.241496 
L 235.851568 279.222434 
L 236.56092 279.114414 
L 236.672321 279.088997 
L 237.374984 278.980977 
L 237.48677 278.955561 
L 238.142481 278.847541 
L 238.254052 278.809416 
L 238.802264 278.701397 
L 238.916109 278.663272 
L 239.661523 278.555252 
L 239.773009 278.517127 
L 240.351493 278.409108 
L 240.443041 278.380514 
L 240.462465 278.380514 
L 241.023884 278.272494 
L 241.127352 278.231192 
L 241.134984 278.231192 
L 241.619563 278.123173 
L 241.730749 278.100933 
L 242.339421 277.992913 
L 242.450864 277.96432 
L 243.11768 277.8563 
L 243.229638 277.82453 
L 243.783896 277.71651 
L 243.896325 277.69427 
L 244.670597 277.58625 
L 244.782512 277.567188 
L 245.340157 277.459168 
L 245.452029 277.430575 
L 245.925331 277.322555 
L 246.029056 277.278076 
L 246.036303 277.278076 
L 246.561746 277.170056 
L 246.673618 277.141463 
L 247.228219 277.033443 
L 247.339662 277.001672 
L 248.043697 276.893653 
L 248.155183 276.861882 
L 248.602715 276.753862 
L 248.714715 276.731623 
L 249.461801 276.623603 
L 249.573416 276.598186 
L 250.172826 276.490167 
L 250.284055 276.471104 
L 250.844316 276.363084 
L 250.956574 276.321783 
L 251.608382 276.213763 
L 251.720297 276.181992 
L 252.186009 276.073972 
L 252.29488 276.042202 
L 252.297109 276.042202 
L 252.743569 275.934182 
L 252.855355 275.918297 
L 253.568909 275.810277 
L 253.651281 275.794392 
L 253.68001 275.794392 
L 254.207597 275.686372 
L 254.319297 275.641893 
L 254.775619 275.533873 
L 254.886976 275.502103 
L 255.560867 275.394083 
L 255.671496 275.352781 
L 255.671925 275.352781 
L 256.264602 275.244761 
L 256.359023 275.228876 
L 256.375574 275.228876 
L 256.856465 275.120856 
L 256.958775 275.092263 
L 256.967566 275.092263 
L 257.475685 274.984243 
L 257.584299 274.942941 
L 257.586743 274.942941 
L 258.00949 274.834921 
L 258.123206 274.799974 
L 258.6366 274.691954 
L 258.74517 274.666537 
L 258.747657 274.666537 
L 259.177308 274.558517 
L 259.289051 274.533101 
L 259.681568 274.425081 
L 259.789838 274.396488 
L 259.792626 274.396488 
L 260.254521 274.288468 
L 260.365922 274.263051 
L 260.859377 274.155031 
L 260.937632 274.126438 
L 260.970434 274.126438 
L 261.285897 274.018418 
L 261.396912 274.008887 
L 261.936248 273.900867 
L 262.046019 273.850034 
L 262.047219 273.850034 
L 262.408477 273.742014 
L 262.510144 273.710244 
L 262.519492 273.710244 
L 263.006043 273.602224 
L 263.117529 273.567276 
L 263.59692 273.459256 
L 263.708578 273.440194 
L 264.037376 273.332174 
L 264.097107 273.309935 
L 264.148434 273.309935 
L 264.482592 273.201915 
L 264.574954 273.173322 
L 264.593649 273.173322 
L 264.990111 273.065302 
L 265.098467 273.030354 
L 265.101126 273.030354 
L 265.48198 272.922334 
L 265.5761 272.887387 
L 265.593037 272.887387 
L 265.85027 272.779367 
L 265.959398 272.731711 
L 265.96137 272.731711 
L 266.222463 272.623691 
L 266.334378 272.56015 
L 266.654386 272.45213 
L 266.762313 272.414006 
L 266.7654 272.414006 
L 267.122928 272.305986 
L 267.210059 272.274215 
L 267.234028 272.274215 
L 267.598073 272.166195 
L 267.706301 272.118539 
L 267.709088 272.118539 
L 267.973096 272.01052 
L 268.084796 271.966041 
L 268.366856 271.858021 
L 268.476713 271.804011 
L 268.477571 271.804011 
L 268.720268 271.695991 
L 268.812501 271.648335 
L 268.831368 271.648335 
L 269.116558 271.540315 
L 269.226586 271.479951 
L 269.227615 271.479951 
L 269.425804 271.371932 
L 269.537418 271.327453 
L 269.750786 271.219433 
L 269.85361 271.171777 
L 269.861843 271.171777 
L 270.015008 271.063757 
L 270.123964 271.012924 
L 270.126065 271.012924 
L 270.329356 270.904905 
L 270.441443 270.828655 
L 270.660342 270.720635 
L 270.773157 270.653917 
L 270.989269 270.549074 
L 270.989269 270.545897 
L 271.100798 270.51095 
L 271.293412 270.40293 
L 271.404984 270.326681 
L 271.60553 270.218661 
L 271.709255 270.142411 
L 271.71633 270.142411 
L 271.923566 270.034392 
L 272.035609 269.961319 
L 272.259825 269.8533 
L 272.368267 269.773873 
L 272.370926 269.773873 
L 272.521603 269.665853 
L 272.633304 269.608666 
L 272.832907 269.500646 
L 272.944693 269.437105 
L 273.105491 269.329085 
L 273.213675 269.230597 
L 273.216591 269.230597 
L 273.426485 269.122577 
L 273.539515 269.046328 
L 273.689936 268.938308 
L 273.798721 268.858881 
L 273.800993 268.858881 
L 273.953 268.750862 
L 274.059427 268.684143 
L 274.064101 268.684143 
L 274.167054 268.576124 
L 274.279097 268.506228 
L 274.411423 268.398208 
L 274.500912 268.325136 
L 274.52248 268.325136 
L 274.64623 268.217116 
L 274.757759 268.150398 
L 274.932406 268.042378 
L 275.040076 267.940713 
L 275.043507 267.940713 
L 275.148046 267.832693 
L 275.260047 267.750089 
L 275.411197 267.642069 
L 275.500986 267.546758 
L 275.522297 267.546758 
L 275.675762 267.438738 
L 275.785704 267.346603 
L 275.786862 267.346603 
L 275.937883 267.238584 
L 276.046925 267.143272 
L 276.04894 267.143272 
L 276.157554 267.035252 
L 276.269597 266.955826 
L 276.46457 266.847806 
L 276.577171 266.736609 
L 276.726391 266.628589 
L 276.838949 266.520569 
L 276.972303 266.412549 
L 277.08469 266.310884 
L 277.227435 266.202864 
L 277.342995 266.094844 
L 277.456711 265.986824 
L 277.569655 265.920106 
L 277.685429 265.812086 
L 277.796272 265.71042 
L 277.796401 265.71042 
L 277.912089 265.6024 
L 278.022289 265.500735 
L 278.023146 265.500735 
L 278.125499 265.392715 
L 278.239687 265.278341 
L 278.381403 265.173498 
L 278.494261 265.043239 
L 278.635806 264.935219 
L 278.74815 264.83673 
L 278.865725 264.72871 
L 278.977468 264.668346 
L 279.125959 264.560327 
L 279.23483 264.433244 
L 279.236931 264.433244 
L 279.350175 264.325224 
L 279.459003 264.204496 
L 279.461189 264.204496 
L 279.600118 264.096477 
L 279.699427 264.029758 
L 279.711133 264.029758 
L 279.833339 263.921739 
L 279.93775 263.845489 
L 279.944311 263.845489 
L 280.083025 263.737469 
L 280.196527 263.648512 
L 280.339958 263.540492 
L 280.4493 263.39117 
L 280.451015 263.39117 
L 280.560143 263.283151 
L 280.672487 263.187839 
L 280.772396 263.079819 
L 280.887312 262.984507 
L 280.986835 262.876488 
L 281.099179 262.781176 
L 281.232748 262.673156 
L 281.341232 262.587376 
L 281.343677 262.587376 
L 281.45795 262.479356 
L 281.568107 262.374513 
L 281.569007 262.374513 
L 281.681823 262.266493 
L 281.794938 262.18389 
L 281.929151 262.07587 
L 282.039736 261.977381 
L 282.040122 261.977381 
L 282.137158 261.869361 
L 282.249716 261.754987 
L 282.364976 261.646967 
L 282.475304 261.504 
L 282.47599 261.504 
L 282.567495 261.39598 
L 282.680825 261.313377 
L 282.76281 261.205357 
L 282.869494 261.103691 
L 282.873867 261.103691 
L 283.002291 260.995671 
L 283.11695 260.865412 
L 283.252449 260.757392 
L 283.363335 260.665258 
L 283.500505 260.557238 
L 283.616408 260.439687 
L 283.721205 260.331667 
L 283.827503 260.210939 
L 283.832305 260.210939 
L 283.941948 260.102919 
L 284.049446 259.985368 
L 284.053048 259.985368 
L 284.144638 259.877348 
L 284.262728 259.775682 
L 284.386135 259.667662 
L 284.498607 259.565997 
L 284.58265 259.457977 
L 284.693107 259.356311 
L 284.693622 259.356311 
L 284.780581 259.248291 
L 284.891167 259.114855 
L 284.89151 259.114855 
L 284.983272 259.006835 
L 285.098017 258.873399 
L 285.191451 258.765379 
L 285.303966 258.644651 
L 285.389339 258.536631 
L 285.501983 258.422257 
L 285.579251 258.314237 
L 285.693996 258.177624 
L 285.816159 258.069604 
L 285.928717 257.961584 
L 286.033986 257.853564 
L 286.140798 257.751899 
L 286.145086 257.751899 
L 286.284787 257.643879 
L 286.397259 257.539036 
L 286.474914 257.431016 
L 286.58953 257.345236 
L 286.679963 257.237216 
L 286.790291 257.087894 
L 286.790977 257.087894 
L 286.911725 256.979874 
L 287.029686 256.808313 
L 287.114502 256.700293 
L 287.227317 256.573211 
L 287.312046 256.465191 
L 287.42662 256.338109 
L 287.554743 256.230089 
L 287.667988 256.071237 
L 287.742469 255.963217 
L 287.85164 255.82978 
L 287.853569 255.82978 
L 287.959524 255.721761 
L 288.072554 255.578793 
L 288.18717 255.470773 
L 288.295054 255.353222 
L 288.29827 255.353222 
L 288.395735 255.245202 
L 288.503362 255.143537 
L 288.506792 255.143537 
L 288.590621 255.035517 
L 288.703523 254.902081 
L 288.810121 254.794061 
L 288.924351 254.679687 
L 289.038839 254.571667 
L 289.151183 254.463647 
L 289.257395 254.355627 
L 289.365665 254.219014 
L 289.368495 254.219014 
L 289.48667 254.110994 
L 289.599314 253.993443 
L 289.714745 253.885423 
L 289.827561 253.758341 
L 289.916449 253.650321 
L 290.026606 253.545478 
L 290.02755 253.545478 
L 290.125786 253.437458 
L 290.238773 253.291314 
L 290.325818 253.183294 
L 290.435932 253.06892 
L 290.436918 253.06892 
L 290.54476 252.9609 
L 290.652387 252.843349 
L 290.65586 252.843349 
L 290.752682 252.735329 
L 290.861938 252.633664 
L 290.863739 252.633664 
L 290.978784 252.525644 
L 291.0916 252.395384 
L 291.202571 252.287365 
L 291.31693 252.163459 
L 291.413966 252.05544 
L 291.523651 251.922003 
L 291.524938 251.922003 
L 291.613055 251.813983 
L 291.723769 251.661485 
L 291.724069 251.661485 
L 291.841902 251.53758 
L 291.923973 251.42956 
L 292.037131 251.26753 
L 292.128292 251.15951 
L 292.24248 251.045136 
L 292.34792 250.937116 
L 292.460993 250.784618 
L 292.556871 250.676598 
L 292.671187 250.559047 
L 292.785032 250.451027 
L 292.899005 250.343007 
L 292.980433 250.234987 
L 293.096121 250.066603 
L 293.178964 249.958584 
L 293.298769 249.831501 
L 293.390316 249.723482 
L 293.505619 249.567806 
L 293.580314 249.459786 
L 293.693215 249.32635 
L 293.781118 249.21833 
L 293.894362 249.059477 
L 293.985223 248.951457 
L 294.098296 248.805313 
L 294.214542 248.697293 
L 294.324999 248.541617 
L 294.325514 248.541617 
L 294.427266 248.433597 
L 294.544755 248.277922 
L 294.645136 248.169902 
L 294.755979 248.033288 
L 294.756065 248.033288 
L 294.858418 247.925269 
L 294.973463 247.779124 
L 295.060208 247.671104 
L 295.172851 247.540845 
L 295.247504 247.432825 
L 295.362721 247.280327 
L 295.445092 247.172307 
L 295.560309 247.019808 
L 295.683587 246.911788 
L 295.793915 246.752935 
L 295.794644 246.752935 
L 295.896268 246.648093 
L 296.010456 246.492417 
L 296.105862 246.384397 
L 296.217906 246.298617 
L 296.312326 246.190597 
L 296.420253 246.015859 
L 296.423341 246.015859 
L 296.513258 245.907839 
L 296.630362 245.799819 
L 296.717793 245.691799 
L 296.831466 245.586956 
L 296.923142 245.478937 
L 297.037629 245.355031 
L 297.14307 245.247012 
L 297.256271 245.091336 
L 297.369258 244.983316 
L 297.479072 244.843526 
L 297.48023 244.843526 
L 297.573621 244.735506 
L 297.680519 244.598892 
L 297.684592 244.598892 
L 297.762375 244.490873 
L 297.877378 244.347905 
L 297.961421 244.239885 
L 298.074537 244.087387 
L 298.172773 243.979367 
L 298.289919 243.830045 
L 298.383525 243.722025 
L 298.48442 243.585412 
L 298.494582 243.585412 
L 298.567606 243.477392 
L 298.680593 243.334425 
L 298.770982 243.226405 
L 298.884012 243.083437 
L 298.9708 242.975418 
L 299.083787 242.829273 
L 299.188327 242.721253 
L 299.298912 242.543338 
L 299.299384 242.543338 
L 299.384757 242.435318 
L 299.498001 242.276466 
L 299.579128 242.168446 
L 299.696489 242.015947 
L 299.771914 241.907927 
L 299.891933 241.68871 
L 299.982237 241.580691 
L 300.100755 241.399598 
L 300.195261 241.291579 
L 300.308205 241.148611 
L 300.411201 241.040591 
L 300.524274 240.878562 
L 300.606474 240.770542 
L 300.727651 240.586272 
L 300.80582 240.478253 
L 300.923523 240.309869 
L 301.038826 240.201849 
L 301.151855 240.046173 
L 301.255323 239.938153 
L 301.370454 239.788832 
L 301.445493 239.680812 
L 301.556293 239.512428 
L 301.55655 239.512428 
L 301.654915 239.404408 
L 301.764129 239.267795 
L 301.765758 239.267795 
L 301.862623 239.159775 
L 301.98157 238.965975 
L 302.049405 238.857955 
L 302.166466 238.708633 
L 302.266889 238.600613 
L 302.374816 238.470354 
L 302.377989 238.470354 
L 302.448826 238.362334 
L 302.563142 238.244783 
L 302.632306 238.136763 
L 302.747952 237.965202 
L 302.846445 237.857183 
L 302.96119 237.723746 
L 303.059727 237.615726 
L 303.173057 237.45052 
L 303.258215 237.3425 
L 303.371417 237.183647 
L 303.456618 237.075627 
L 303.569734 236.923129 
L 303.655492 236.815109 
L 303.76655 236.681672 
L 303.866501 236.573653 
L 303.977601 236.427508 
L 304.067734 236.319488 
L 304.184323 236.220999 
L 304.292421 236.11298 
L 304.400691 235.92871 
L 304.403436 235.92871 
L 304.490095 235.820691 
L 304.60604 235.639598 
L 304.680993 235.531579 
L 304.797539 235.328247 
L 304.886643 235.220227 
L 305.00276 235.035958 
L 305.068322 234.927938 
L 305.184139 234.813564 
L 305.272342 234.705544 
L 305.378897 234.5594 
L 305.383442 234.5594 
L 305.481078 234.45138 
L 305.594194 234.298881 
L 305.676994 234.190862 
L 305.790067 234.044717 
L 305.858116 233.936697 
L 305.968916 233.774667 
L 305.969216 233.774667 
L 306.047943 233.666648 
L 306.166204 233.49191 
L 306.231723 233.38389 
L 306.345268 233.196443 
L 306.428882 233.088424 
L 306.543928 232.942279 
L 306.641006 232.834259 
L 306.757038 232.653167 
L 306.839623 232.545147 
L 306.953682 232.437127 
L 307.009897 232.329108 
L 307.133861 232.141661 
L 307.205941 232.033641 
L 307.3206 231.900205 
L 307.385262 231.792185 
L 307.493018 231.595208 
L 307.496148 231.595208 
L 307.570329 231.490365 
L 307.683574 231.325158 
L 307.755096 231.217138 
L 307.865168 231.077348 
L 307.866154 231.077348 
L 307.955471 230.969328 
L 308.068801 230.804121 
L 308.144783 230.696101 
L 308.259914 230.54678 
L 308.335553 230.43876 
L 308.444424 230.289438 
L 308.446654 230.289438 
L 308.552437 230.181419 
L 308.670527 230.009858 
L 308.762974 229.901838 
L 308.87892 229.720746 
L 308.9784 229.612726 
L 309.095889 229.45705 
L 309.159393 229.34903 
L 309.274353 229.206063 
L 309.335156 229.098043 
L 309.444412 228.93919 
L 309.446256 228.93919 
L 309.528756 228.83117 
L 309.638613 228.685026 
L 309.639727 228.685026 
L 309.699501 228.577006 
L 309.809487 228.446747 
L 309.810516 228.446747 
L 309.879809 228.338727 
L 309.996269 228.14175 
L 310.089789 228.03373 
L 310.214181 227.839929 
L 310.275284 227.73191 
L 310.391702 227.534932 
L 310.451218 227.426912 
L 310.558502 227.24582 
L 310.562233 227.24582 
L 310.643103 227.1378 
L 310.756133 226.985302 
L 310.826498 226.877282 
L 310.951748 226.670773 
L 311.021813 226.562753 
L 311.132699 226.391192 
L 311.132913 226.391192 
L 311.221974 226.283173 
L 311.337233 226.130674 
L 311.427408 226.022654 
L 311.545112 225.901926 
L 311.608402 225.793906 
L 311.73288 225.596929 
L 311.821598 225.488909 
L 311.940802 225.288755 
L 312.009195 225.180735 
L 312.127284 225.005997 
L 312.197178 224.897977 
L 312.312694 224.735947 
L 312.399782 224.627927 
L 312.517143 224.472252 
L 312.58009 224.364232 
L 312.695735 224.195848 
L 312.744317 224.087828 
L 312.859363 223.941683 
L 312.93796 223.833664 
L 313.051162 223.674811 
L 313.096013 223.566791 
L 313.210973 223.423823 
L 313.29969 223.315804 
L 313.41615 223.118826 
L 313.491532 223.010806 
L 313.620942 222.788413 
L 313.703485 222.680393 
L 313.820545 222.531071 
L 313.910806 222.423051 
L 314.026794 222.241959 
L 314.115726 222.133939 
L 314.229099 221.943316 
L 314.288701 221.835296 
L 314.411636 221.663735 
L 314.515018 221.555715 
L 314.632765 221.393686 
L 314.722211 221.285666 
L 314.836227 221.069626 
L 314.939995 220.961606 
L 315.059114 220.764629 
L 315.134753 220.656609 
L 315.24804 220.481871 
L 315.307213 220.373851 
L 315.420329 220.22453 
L 315.500084 220.11651 
L 315.619846 219.903647 
L 315.692184 219.795627 
L 315.805128 219.655837 
L 315.865459 219.547817 
L 315.978574 219.398495 
L 316.042722 219.290475 
L 316.156095 219.118915 
L 316.236365 219.010895 
L 316.358099 218.817094 
L 316.422075 218.709074 
L 316.535405 218.543868 
L 316.613788 218.435848 
L 316.73012 218.242047 
L 316.775744 218.134028 
L 316.892804 217.987883 
L 316.974189 217.879863 
L 317.087648 217.701948 
L 317.149865 217.593928 
L 317.271128 217.406482 
L 317.357916 217.298462 
L 317.467215 217.155495 
L 317.468845 217.155495 
L 317.525016 217.050652 
L 317.638432 216.872737 
L 317.713085 216.764717 
L 317.837092 216.609041 
L 317.896008 216.501022 
L 318.012082 216.316752 
L 318.072971 216.208732 
L 318.188831 216.02764 
L 318.284538 215.919621 
L 318.399626 215.770299 
L 318.469262 215.662279 
L 318.582892 215.468479 
L 318.654414 215.360459 
L 318.771818 215.188898 
L 318.848786 215.080878 
L 318.968205 214.877547 
L 319.039085 214.769527 
L 319.159318 214.601143 
L 319.206657 214.493123 
L 319.325175 214.308854 
L 319.398842 214.200834 
L 319.509599 214.064221 
L 319.509942 214.064221 
L 319.564142 213.956201 
L 319.682789 213.771932 
L 319.735016 213.663912 
L 319.855249 213.435164 
L 319.930374 213.327144 
L 320.047777 213.092042 
L 320.140525 212.984022 
L 320.260501 212.821992 
L 320.339142 212.713972 
L 320.452601 212.536057 
L 320.503327 212.428038 
L 320.618887 212.259654 
L 320.66331 212.151634 
L 320.776768 211.976896 
L 320.846104 211.868876 
L 320.953131 211.703669 
L 320.957204 211.703669 
L 321.027055 211.595649 
L 321.140556 211.417734 
L 321.207534 211.309714 
L 321.325795 211.134976 
L 321.381667 211.026956 
L 321.491137 210.823625 
L 321.492724 210.823625 
L 321.571193 210.715605 
L 321.684952 210.515451 
L 321.745326 210.407431 
L 321.8608 210.245401 
L 321.937339 210.137381 
L 322.052942 209.96582 
L 322.11859 209.8578 
L 322.22566 209.698948 
L 322.229648 209.698948 
L 322.332558 209.590928 
L 322.44756 209.444783 
L 322.501717 209.336763 
L 322.614961 209.171557 
L 322.67392 209.063537 
L 322.784463 208.869736 
L 322.784806 208.869736 
L 322.879612 208.761716 
L 322.996844 208.612395 
L 323.086376 208.504375 
L 323.201164 208.367762 
L 323.296099 208.259742 
L 323.41213 208.07865 
L 323.488198 207.973807 
L 323.599298 207.783184 
L 323.693804 207.675164 
L 323.810179 207.481363 
L 323.881744 207.373344 
L 324.00618 207.179543 
L 324.080147 207.071523 
L 324.189875 206.931733 
L 324.191247 206.931733 
L 324.266929 206.823713 
L 324.370311 206.642621 
L 324.377901 206.642621 
L 324.445907 206.534601 
L 324.568799 206.36304 
L 324.63612 206.25502 
L 324.746963 206.092991 
L 324.747134 206.092991 
L 324.831564 205.984971 
L 324.951669 205.762577 
L 325.019589 205.654557 
L 325.13352 205.441694 
L 325.200797 205.333675 
L 325.310568 205.203415 
L 325.311898 205.203415 
L 325.390024 205.095395 
L 325.514331 204.901595 
L 325.559783 204.793575 
L 325.675257 204.631546 
L 325.758571 204.523526 
L 325.872159 204.336079 
L 325.945396 204.22806 
L 326.061642 204.037436 
L 326.146629 203.929416 
L 326.264118 203.694314 
L 326.343702 203.586295 
L 326.457332 203.398848 
L 326.511789 203.290828 
L 326.625119 203.122445 
L 326.725285 203.014425 
L 326.840202 202.874634 
L 326.903706 202.766614 
L 327.016607 202.633178 
L 327.075009 202.525158 
L 327.193356 202.347243 
L 327.268266 202.239223 
L 327.402306 202.032715 
L 327.480518 201.924695 
L 327.593848 201.759488 
L 327.671588 201.651468 
L 327.794095 201.486261 
L 327.857727 201.378242 
L 327.977404 201.165379 
L 328.043781 201.057359 
L 328.159769 200.876267 
L 328.213668 200.768247 
L 328.32717 200.587155 
L 328.400322 200.479135 
L 328.520641 200.310751 
L 328.596409 200.202731 
L 328.704851 200.015285 
L 328.707424 200.015285 
L 328.763467 199.907265 
L 328.892662 199.688049 
L 328.948963 199.580029 
L 329.062078 199.42753 
L 329.138018 199.31951 
L 329.251862 199.116179 
L 329.332818 199.008159 
L 329.450908 198.741286 
L 329.523503 198.633266 
L 329.655957 198.372748 
L 329.753164 198.264728 
L 329.869538 198.070928 
L 329.950366 197.962908 
L 330.063181 197.832649 
L 330.114251 197.724629 
L 330.238 197.54036 
L 330.31394 197.43234 
L 330.428084 197.317966 
L 330.498664 197.209946 
L 330.612337 197.016146 
L 330.650499 196.908126 
L 330.765887 196.749273 
L 330.838096 196.641253 
L 330.955714 196.479223 
L 331.013558 196.371204 
L 331.129204 196.20282 
L 331.190221 196.0948 
L 331.313285 195.875583 
L 331.366755 195.77074 
L 331.366755 195.767563 
L 331.4821 195.60871 
L 331.582181 195.500691 
L 331.706102 195.265589 
L 331.781484 195.157569 
L 331.891598 194.992362 
L 331.892541 194.992362 
L 331.96445 194.884342 
L 332.084597 194.719135 
L 332.156549 194.614292 
L 332.27571 194.468148 
L 332.337242 194.360128 
L 332.455075 194.112318 
L 332.501427 194.004298 
L 332.615014 193.820029 
L 332.68911 193.712009 
L 332.815904 193.483261 
L 332.902349 193.375241 
L 333.022539 193.152847 
L 333.090417 193.044827 
L 333.20722 192.831965 
L 333.267594 192.723945 
L 333.387528 192.507905 
L 333.443614 192.399885 
L 333.560417 192.1902 
L 333.629324 192.08218 
L 333.741454 191.923327 
L 333.809932 191.815307 
L 333.931709 191.61833 
L 334.015924 191.51031 
L 334.131527 191.329218 
L 334.221573 191.221198 
L 334.334003 191.021044 
L 334.395792 190.913024 
L 334.509422 190.712869 
L 334.578801 190.604849 
L 334.685227 190.426934 
L 334.689858 190.426934 
L 334.774545 190.318915 
L 334.884702 190.125114 
L 334.885645 190.125114 
L 334.984825 190.017094 
L 335.104501 189.807409 
L 335.170749 189.699389 
L 335.286481 189.527828 
L 335.343896 189.419808 
L 335.45967 189.248247 
L 335.523217 189.140227 
L 335.636804 188.955958 
L 335.694692 188.847938 
L 335.808064 188.679554 
L 335.87084 188.571534 
L 335.99266 188.374557 
L 336.057836 188.266537 
L 336.181929 188.028258 
L 336.235014 187.920238 
L 336.368797 187.685136 
L 336.41888 187.577116 
L 336.532853 187.364254 
L 336.620799 187.256234 
L 336.734129 187.091027 
L 336.803593 186.983007 
L 336.922154 186.795561 
L 336.991662 186.687541 
L 337.109323 186.525511 
L 337.191265 186.417491 
L 337.313171 186.220514 
L 337.385808 186.112494 
L 337.508572 185.896454 
L 337.579194 185.788435 
L 337.695826 185.578749 
L 337.762031 185.470729 
L 337.881193 185.273752 
L 337.939852 185.165732 
L 338.0612 184.978286 
L 338.121188 184.870266 
L 338.241422 184.701882 
L 338.324951 184.593862 
L 338.433864 184.406416 
L 338.435965 184.406416 
L 338.500156 184.298396 
L 338.616444 184.107773 
L 338.710907 183.999753 
L 338.824323 183.828192 
L 338.905536 183.720172 
L 339.021396 183.542257 
L 339.10008 183.434237 
L 339.225159 183.176896 
L 339.291236 183.068876 
L 339.399849 182.85919 
L 339.402336 182.85919 
L 339.480505 182.75117 
L 339.584873 182.566901 
L 339.591562 182.566901 
L 339.648892 182.458881 
L 339.75892 182.274612 
L 339.759992 182.274612 
L 339.833788 182.166592 
L 339.948747 182.023625 
L 340.004704 181.915605 
L 340.117691 181.766284 
L 340.201049 181.658264 
L 340.321797 181.419985 
L 340.400395 181.311965 
L 340.510509 181.159466 
L 340.511452 181.159466 
L 340.590007 181.054623 
L 340.590007 181.051446 
L 340.708611 180.867177 
L 340.777647 180.759157 
L 340.890805 180.600304 
L 340.953538 180.492285 
L 341.062451 180.320724 
L 341.064595 180.320724 
L 341.111505 180.212704 
L 341.227879 180.015726 
L 341.302232 179.907707 
L 341.428855 179.72026 
L 341.51457 179.61224 
L 341.628072 179.434325 
L 341.700066 179.326306 
L 341.809409 179.167453 
L 341.811124 179.167453 
L 341.87257 179.059433 
L 341.986329 178.862456 
L 342.056136 178.757613 
L 342.166422 178.570167 
L 342.167065 178.570167 
L 342.228211 178.462147 
L 342.362594 178.252461 
L 342.416708 178.144441 
L 342.52515 177.956995 
L 342.527808 177.956995 
L 342.587496 177.848975 
L 342.720894 177.61705 
L 342.786027 177.50903 
L 342.899658 177.318407 
L 342.973196 177.210387 
L 343.089313 177.022941 
L 343.137509 176.914921 
L 343.253798 176.721121 
L 343.306196 176.613101 
L 343.431704 176.349405 
L 343.505628 176.241386 
L 343.626762 176.057116 
L 343.685807 175.949097 
L 343.801452 175.780713 
L 343.870016 175.672693 
L 343.986819 175.45983 
L 344.055684 175.35181 
L 344.174845 175.154833 
L 344.241094 175.046813 
L 344.354638 174.865721 
L 344.419643 174.757701 
L 344.535374 174.582963 
L 344.603338 174.474943 
L 344.718812 174.312913 
L 344.798053 174.204894 
L 344.906195 174.020624 
L 344.909025 174.020624 
L 344.967383 173.912605 
L 345.077111 173.760106 
L 345.078484 173.760106 
L 345.148463 173.652086 
L 345.26518 173.445577 
L 345.32058 173.340735 
L 345.435411 173.156466 
L 345.489782 173.048446 
L 345.611816 172.848291 
L 345.67219 172.743448 
L 345.67219 172.740271 
L 345.788994 172.527409 
L 345.855414 172.419389 
L 345.966171 172.15887 
L 345.966514 172.15887 
L 346.012952 172.050851 
L 346.126325 171.87929 
L 346.191244 171.77127 
L 346.30436 171.612417 
L 346.369193 171.504397 
L 346.482781 171.316951 
L 346.529176 171.208931 
L 346.643063 170.999245 
L 346.70794 170.891226 
L 346.821827 170.68154 
L 346.870581 170.57352 
L 346.984726 170.347949 
L 347.055305 170.239929 
L 347.165848 170.081077 
L 347.16632 170.081077 
L 347.230767 169.973057 
L 347.336893 169.814204 
L 347.341867 169.814204 
L 347.409745 169.706184 
L 347.528864 169.509207 
L 347.604889 169.401187 
L 347.723322 169.220095 
L 347.793215 169.112075 
L 347.903801 168.873796 
L 347.904272 168.873796 
L 347.967605 168.765776 
L 348.081107 168.57833 
L 348.165879 168.47031 
L 348.279166 168.30828 
L 348.338297 168.20026 
L 348.455271 167.984221 
L 348.509771 167.876201 
L 348.629704 167.656984 
L 348.698826 167.548964 
L 348.805424 167.320216 
L 348.80984 167.320216 
L 348.887109 167.212196 
L 349.000653 167.031104 
L 349.049836 166.923084 
L 349.176501 166.694336 
L 349.241849 166.586317 
L 349.355051 166.427464 
L 349.400717 166.319444 
L 349.514047 166.15106 
L 349.591358 166.04304 
L 349.695812 165.865125 
L 349.702373 165.865125 
L 349.781871 165.757105 
L 349.895587 165.561716 
L 350.016893 165.375859 
L 350.063288 165.267839 
L 350.181764 165.086747 
L 350.250885 164.978727 
L 350.369961 164.778573 
L 350.438182 164.670553 
L 350.555671 164.435451 
L 350.608112 164.327431 
L 350.721785 164.130453 
L 350.793908 164.022434 
L 350.911827 163.771446 
L 350.978204 163.663426 
L 351.082014 163.479157 
L 351.089261 163.479157 
L 351.171075 163.371137 
L 351.291351 163.145566 
L 351.369177 163.037547 
L 351.489325 162.815153 
L 351.553258 162.707133 
L 351.670404 162.484739 
L 351.735967 162.376719 
L 351.846167 162.154325 
L 351.847067 162.154325 
L 351.901695 162.046306 
L 352.015325 161.852505 
L 352.081188 161.744485 
L 352.211584 161.461728 
L 352.275517 161.353708 
L 352.39828 161.140845 
L 352.445791 161.032825 
L 352.554747 160.810431 
L 352.556848 160.810431 
L 352.622196 160.702411 
L 352.742901 160.467309 
L 352.820341 160.35929 
L 352.933371 160.206791 
L 353.004508 160.098771 
L 353.117967 159.901794 
L 353.204454 159.793774 
L 353.318985 159.539609 
L 353.405987 159.43159 
L 353.516787 159.212373 
L 353.517001 159.212373 
L 353.578533 159.104353 
L 353.707728 158.885136 
L 353.804936 158.777116 
L 353.919166 158.538837 
L 353.974867 158.430817 
L 354.096001 158.183007 
L 354.172197 158.074987 
L 354.289429 157.839885 
L 354.352719 157.731865 
L 354.470208 157.496763 
L 354.552965 157.388744 
L 354.663851 157.179058 
L 354.663894 157.179058 
L 354.727441 157.071038 
L 354.843901 156.867707 
L 354.909292 156.759687 
L 355.023094 156.559532 
L 355.080466 156.451512 
L 355.198856 156.273597 
L 355.258544 156.165577 
L 355.369173 155.933653 
L 355.369602 155.933653 
L 355.442325 155.825633 
L 355.560414 155.654072 
L 355.680948 155.482511 
L 355.748955 155.374491 
L 355.86906 155.152097 
L 355.931235 155.044077 
L 356.049196 154.786736 
L 356.092332 154.678716 
L 356.212737 154.449968 
L 356.266637 154.341948 
L 356.391715 154.138617 
L 356.467183 154.030597 
L 356.582271 153.884452 
L 356.632954 153.776432 
L 356.735779 153.59534 
L 356.744055 153.59534 
L 356.800269 153.48732 
L 356.913599 153.322114 
L 356.960681 153.214094 
L 357.074483 153.010762 
L 357.126281 152.902742 
L 357.24004 152.705765 
L 357.312463 152.597745 
L 357.422148 152.356289 
L 357.423434 152.356289 
L 357.491141 152.248269 
L 357.599497 152.064 
L 357.602241 152.064 
L 357.659313 151.95598 
L 357.777403 151.784419 
L 357.845152 151.676399 
L 357.961398 151.485776 
L 358.033049 151.377756 
L 358.142349 151.164894 
L 358.14415 151.164894 
L 358.209198 151.060051 
L 358.326258 150.837657 
L 358.390191 150.729637 
L 358.503778 150.545368 
L 358.571099 150.437348 
L 358.691161 150.218131 
L 358.724564 150.110111 
L 358.834978 149.900426 
L 358.835621 149.900426 
L 358.898182 149.792406 
L 359.022446 149.55095 
L 359.081277 149.44293 
L 359.195636 149.201474 
L 359.282338 149.093454 
L 359.388936 148.899654 
L 359.393395 148.899654 
L 359.440477 148.791634 
L 359.558995 148.607365 
L 359.619584 148.499345 
L 359.747321 148.254712 
L 359.798776 148.146692 
L 359.913049 147.91159 
L 359.962704 147.80357 
L 360.083538 147.565291 
L 360.149186 147.457271 
L 360.267061 147.206284 
L 360.319545 147.098264 
L 360.435662 146.910817 
L 360.51053 146.802798 
L 360.626261 146.62806 
L 360.667425 146.523217 
L 360.667425 146.52004 
L 360.791346 146.284938 
L 360.862997 146.176918 
L 360.973626 145.97994 
L 361.034472 145.871921 
L 361.155477 145.690828 
L 361.234332 145.582809 
L 361.347919 145.395362 
L 361.421586 145.287343 
L 361.541777 145.061772 
L 361.631395 144.953752 
L 361.745282 144.747243 
L 361.799696 144.639223 
L 361.919629 144.477194 
L 361.983005 144.369174 
L 362.091747 144.153134 
L 362.094019 144.153134 
L 362.175318 144.045114 
L 362.298168 143.829074 
L 362.35777 143.721055 
L 362.473887 143.530431 
L 362.532975 143.422411 
L 362.649349 143.228611 
L 362.696388 143.120591 
L 362.810618 142.885489 
L 362.876609 142.777469 
L 362.990454 142.558253 
L 363.042166 142.450233 
L 363.158155 142.265964 
L 363.212955 142.157944 
L 363.330401 141.922842 
L 363.401495 141.814822 
L 363.516926 141.652792 
L 363.581845 141.544772 
L 363.695518 141.354149 
L 363.747831 141.246129 
L 363.860904 141.096808 
L 363.915017 140.988788 
L 364.034436 140.785456 
L 364.115521 140.677436 
L 364.236441 140.43598 
L 364.310536 140.32796 
L 364.424295 140.130983 
L 364.498862 140.022963 
L 364.608204 139.860933 
L 364.609877 139.860933 
L 364.730582 139.625831 
L 364.78491 139.517811 
L 364.893309 139.31448 
L 364.895967 139.31448 
L 364.960887 139.209637 
L 365.067099 139.022191 
L 365.071987 139.022191 
L 365.126358 138.914171 
L 365.24389 138.675892 
L 365.321073 138.567872 
L 365.430158 138.320062 
L 365.431959 138.320062 
L 365.486887 138.212042 
L 365.60116 137.97694 
L 365.667109 137.86892 
L 365.77748 137.700536 
L 365.778166 137.700536 
L 365.828506 137.592516 
L 365.938449 137.401893 
L 365.939607 137.401893 
L 365.98776 137.293873 
L 366.101562 137.093719 
L 366.16408 136.988876 
L 366.16408 136.985699 
L 366.290488 136.760128 
L 366.358623 136.652108 
L 366.468265 136.410652 
L 366.469552 136.410652 
L 366.531298 136.302632 
L 366.650417 136.105655 
L 366.730515 135.997635 
L 366.843416 135.85149 
L 366.913867 135.74347 
L 367.031828 135.575087 
L 367.077366 135.467067 
L 367.193826 135.270089 
L 367.264062 135.162069 
L 367.375034 134.9778 
L 367.375163 134.9778 
L 367.443555 134.86978 
L 367.557142 134.672803 
L 367.607569 134.564783 
L 367.721542 134.345566 
L 367.783974 134.237547 
L 367.917414 133.96432 
L 367.977317 133.8563 
L 368.087431 133.64026 
L 368.088331 133.64026 
L 368.135541 133.53224 
L 368.249257 133.335263 
L 368.318422 133.227243 
L 368.429179 132.992141 
L 368.429522 132.992141 
L 368.495899 132.887298 
L 368.609486 132.703029 
L 368.666644 132.595009 
L 368.783405 132.385324 
L 368.845194 132.277304 
L 368.966585 132.083504 
L 369.037164 131.978661 
L 369.15787 131.743559 
L 369.20508 131.635539 
L 369.319525 131.384552 
L 369.386459 131.276532 
L 369.500733 131.04143 
L 369.575385 130.93341 
L 369.68923 130.730078 
L 369.760667 130.622058 
L 369.878799 130.36154 
L 369.941446 130.25352 
L 370.051946 130.107376 
L 370.052503 130.107376 
L 370.110691 129.999356 
L 370.224406 129.805555 
L 370.290869 129.697536 
L 370.404585 129.503735 
L 370.465688 129.398892 
L 370.586694 129.154259 
L 370.651356 129.046239 
L 370.770989 128.836554 
L 370.824888 128.728534 
L 370.938476 128.537911 
L 371.001251 128.429891 
L 371.117668 128.232913 
L 371.17577 128.124894 
L 371.286055 127.912031 
L 371.286827 127.912031 
L 371.335366 127.804011 
L 371.448739 127.635627 
L 371.514173 127.527607 
L 371.643283 127.308391 
L 371.712618 127.200371 
L 371.831866 127.000216 
L 371.907676 126.892196 
L 372.023879 126.701573 
L 372.08361 126.593553 
L 372.197155 126.412461 
L 372.24981 126.304441 
L 372.364041 126.066162 
L 372.430847 125.958142 
L 372.548122 125.805644 
L 372.598805 125.700801 
L 372.712178 125.513355 
L 372.776325 125.405335 
L 372.892828 125.198826 
L 372.958605 125.090806 
L 373.074508 124.912891 
L 373.163097 124.804871 
L 373.276684 124.611071 
L 373.339245 124.503051 
L 373.452789 124.318782 
L 373.530443 124.210762 
L 373.647161 124.004254 
L 373.711223 123.896234 
L 373.824724 123.718319 
L 373.889729 123.610299 
L 374.014379 123.362489 
L 374.067335 123.254469 
L 374.181051 123.060669 
L 374.244598 122.952649 
L 374.354927 122.730255 
L 374.355656 122.730255 
L 374.427264 122.622235 
L 374.53755 122.39031 
L 374.538364 122.39031 
L 374.599382 122.28229 
L 374.709667 122.123437 
L 374.710396 122.123437 
L 374.786078 122.015418 
L 374.902967 121.802555 
L 374.946532 121.694535 
L 375.060506 121.481672 
L 375.092365 121.380007 
L 375.092365 121.373653 
L 375.205866 121.19256 
L 375.264783 121.084541 
L 375.372238 120.906625 
L 375.375883 120.906625 
L 375.421978 120.798606 
L 375.542083 120.576212 
L 375.615192 120.468192 
L 375.714501 120.271215 
L 375.72625 120.271215 
L 375.792198 120.163195 
L 375.911445 119.959863 
L 375.963329 119.851843 
L 376.077045 119.642158 
L 376.136647 119.534138 
L 376.254265 119.375285 
L 376.322186 119.267265 
L 376.444435 119.063934 
L 376.501808 118.955914 
L 376.61235 118.784353 
L 376.612908 118.784353 
L 376.662648 118.676333 
L 376.776321 118.48571 
L 376.839182 118.37769 
L 376.961345 118.174359 
L 377.036427 118.066339 
L 377.157732 117.815351 
L 377.212875 117.710509 
L 377.326848 117.491292 
L 377.40476 117.383272 
L 377.523536 117.195826 
L 377.580222 117.087806 
L 377.700799 116.855881 
L 377.761215 116.747861 
L 377.885866 116.500051 
L 377.941394 116.392031 
L 378.058155 116.182345 
L 378.100005 116.074325 
L 378.213849 115.867817 
L 378.269421 115.759797 
L 378.383437 115.537403 
L 378.457618 115.429383 
L 378.571591 115.216521 
L 378.63055 115.108501 
L 378.749069 114.889284 
L 378.793406 114.781264 
L 378.90635 114.638297 
L 378.979888 114.530277 
L 379.115129 114.27929 
L 379.179491 114.17127 
L 379.293765 113.932991 
L 379.33986 113.828148 
L 379.452718 113.564452 
L 379.503487 113.459609 
L 379.503487 113.456432 
L 379.617289 113.256278 
L 379.678349 113.148258 
L 379.789149 112.94175 
L 379.789278 112.94175 
L 379.856084 112.83373 
L 379.963668 112.646284 
L 379.967141 112.646284 
L 380.043638 112.538264 
L 380.163314 112.328578 
L 380.285949 112.115715 
L 380.354984 112.007696 
L 380.469344 111.763062 
L 380.557203 111.655042 
L 380.668003 111.49619 
L 380.668218 111.49619 
L 380.728549 111.38817 
L 380.849511 111.146714 
L 380.907098 111.038694 
L 381.015497 110.800415 
L 381.018199 110.800415 
L 381.088949 110.692395 
L 381.199364 110.482709 
L 381.20005 110.482709 
L 381.246231 110.374689 
L 381.36059 110.130056 
L 381.428168 110.022036 
L 381.538067 109.866361 
L 381.539268 109.866361 
L 381.610791 109.758341 
L 381.721248 109.558186 
L 381.721891 109.558186 
L 381.773346 109.450167 
L 381.882388 109.17694 
L 381.88436 109.17694 
L 381.94422 109.06892 
L 382.054763 108.856057 
L 382.055277 108.856057 
L 382.121612 108.748038 
L 382.242488 108.570122 
L 382.303077 108.462103 
L 382.408346 108.296896 
L 382.414177 108.296896 
L 382.479225 108.188876 
L 382.58921 107.963305 
L 382.590282 107.963305 
L 382.659361 107.855285 
L 382.770333 107.690078 
L 382.770461 107.690078 
L 382.845243 107.582058 
L 382.95377 107.381904 
L 382.956086 107.381904 
L 383.024049 107.273884 
L 383.144454 107.045136 
L 383.219665 106.937116 
L 383.334153 106.682952 
L 383.386594 106.574932 
L 383.500095 106.39384 
L 383.569474 106.28582 
L 383.690051 106.053895 
L 383.755227 105.945875 
L 383.869243 105.720304 
L 383.945354 105.615462 
L 384.057784 105.418484 
L 384.110568 105.310464 
L 384.224884 105.072185 
L 384.294006 104.964165 
L 384.411409 104.73224 
L 384.46891 104.624221 
L 384.585156 104.433597 
L 384.658951 104.325577 
L 384.776055 104.103184 
L 384.826695 103.998341 
L 384.826695 103.995164 
L 384.94054 103.788655 
L 385.00949 103.680635 
L 385.120461 103.486835 
L 385.180492 103.378815 
L 385.294337 103.172307 
L 385.360671 103.064287 
L 385.482877 102.860955 
L 385.536476 102.752935 
L 385.655209 102.470178 
L 385.744612 102.362158 
L 385.855713 102.136587 
L 385.919003 102.028567 
L 386.027401 101.815704 
L 386.030103 101.815704 
L 386.091249 101.707685 
L 386.208095 101.491645 
L 386.264781 101.383625 
L 386.374552 101.170762 
L 386.375881 101.170762 
L 386.434069 101.062742 
L 386.5504 100.868942 
L 386.607001 100.760922 
L 386.721446 100.513112 
L 386.771657 100.408269 
L 386.884001 100.179521 
L 386.929796 100.071501 
L 387.039181 99.906295 
L 387.040854 99.906295 
L 387.090294 99.798275 
L 387.206968 99.582235 
L 387.260138 99.474215 
L 387.37454 99.229582 
L 387.439974 99.121562 
L 387.553433 98.943647 
L 387.623412 98.835627 
L 387.737299 98.629119 
L 387.792056 98.521099 
L 387.901999 98.305059 
L 387.903156 98.305059 
L 387.978967 98.197039 
L 388.095685 97.987354 
L 388.139593 97.879334 
L 388.253223 97.691887 
L 388.308795 97.583868 
L 388.422639 97.377359 
L 388.490217 97.269339 
L 388.603804 97.08507 
L 388.663535 96.97705 
L 388.776565 96.827729 
L 388.832308 96.719709 
L 388.951641 96.516377 
L 389.006655 96.408357 
L 389.124659 96.151016 
L 389.192451 96.042996 
L 389.308869 95.846019 
L 389.362511 95.737999 
L 389.475969 95.550553 
L 389.566873 95.442533 
L 389.679989 95.293211 
L 389.733717 95.185191 
L 389.844431 95.029516 
L 389.844645 95.029516 
L 389.933749 94.921496 
L 390.03653 94.768997 
L 390.044849 94.768997 
L 390.113456 94.660977 
L 390.222884 94.422698 
L 390.224513 94.422698 
L 390.302854 94.314678 
L 390.416484 94.127232 
L 390.472441 94.019212 
L 390.591731 93.819058 
L 390.649233 93.711038 
L 390.763249 93.485467 
L 390.836658 93.377447 
L 390.947501 93.151876 
L 390.947715 93.151876 
L 390.995612 93.043857 
L 391.09805 92.808755 
L 391.106712 92.808755 
L 391.176519 92.700735 
L 391.287534 92.532351 
L 391.367418 92.424331 
L 391.480877 92.240062 
L 391.55167 92.132042 
L 391.666072 91.884232 
L 391.719071 91.776212 
L 391.829443 91.534756 
L 391.830171 91.534756 
L 391.891575 91.429913 
L 391.891575 91.426736 
L 392.005119 91.245644 
L 392.057346 91.137624 
L 392.16746 90.972417 
L 392.168446 90.972417 
L 392.23358 90.864397 
L 392.346738 90.702367 
L 392.398151 90.594347 
L 392.511909 90.39737 
L 392.566581 90.28935 
L 392.68347 90.073311 
L 392.758122 89.965291 
L 392.869094 89.723835 
L 392.86918 89.723835 
L 392.921364 89.615815 
L 393.038296 89.393421 
L 393.108789 89.285401 
L 393.219375 89.088424 
L 393.21989 89.088424 
L 393.288797 88.980404 
L 393.399468 88.792958 
L 393.399768 88.792958 
L 393.476651 88.684938 
L 393.590152 88.497491 
L 393.651298 88.389472 
L 393.761327 88.230619 
L 393.762313 88.230619 
L 393.815183 88.122599 
L 393.929028 87.919268 
L 394.002523 87.811248 
L 394.118726 87.623801 
L 394.167608 87.515782 
L 394.281238 87.325158 
L 394.339039 87.217138 
L 394.448896 86.997922 
L 394.45014 86.997922 
L 394.534012 86.889902 
L 394.644983 86.70881 
L 394.645112 86.70881 
L 394.697167 86.60079 
L 394.811269 86.378396 
L 394.886136 86.270376 
L 394.999681 86.086107 
L 395.070517 85.978087 
L 395.183762 85.774756 
L 395.239247 85.669913 
L 395.350133 85.514237 
L 395.350348 85.514237 
L 395.424443 85.406217 
L 395.534086 85.218771 
L 395.535543 85.218771 
L 395.615042 85.113928 
L 395.615042 85.110751 
L 395.73669 84.847056 
L 395.806669 84.739036 
L 395.922358 84.567475 
L 395.983203 84.459455 
L 396.096876 84.262478 
L 396.157679 84.154458 
L 396.274482 83.941595 
L 396.339702 83.833575 
L 396.449859 83.65566 
L 396.450759 83.65566 
L 396.52061 83.54764 
L 396.634111 83.350663 
L 396.710522 83.242643 
L 396.82501 82.991656 
L 396.882983 82.883636 
L 397.005617 82.670773 
L 397.049397 82.562753 
L 397.159726 82.403901 
L 397.160497 82.403901 
L 397.213582 82.295881 
L 397.327984 82.051248 
L 397.426778 81.943228 
L 397.535048 81.762136 
L 397.537835 81.762136 
L 397.613517 81.654116 
L 397.727405 81.44443 
L 397.804116 81.33641 
L 397.91796 81.126725 
L 397.984938 81.018705 
L 398.098954 80.802665 
L 398.182911 80.694645 
L 398.292339 80.513553 
L 398.293754 80.513553 
L 398.365663 80.405533 
L 398.475434 80.21491 
L 398.476678 80.21491 
L 398.549144 80.10689 
L 398.663117 79.894028 
L 398.733696 79.786008 
L 398.843767 79.617624 
L 398.844796 79.617624 
L 398.958598 79.411115 
L 399.03964 79.303095 
L 399.15327 79.115649 
L 399.214888 79.007629 
L 399.325773 78.82336 
L 399.325902 78.82336 
L 399.395838 78.71534 
L 399.509983 78.486592 
L 399.570486 78.378573 
L 399.68716 78.162533 
L 399.774034 78.054513 
L 399.884319 77.867067 
L 399.885005 77.867067 
L 399.930586 77.759047 
L 400.044345 77.555715 
L 400.130704 77.447696 
L 400.238031 77.250718 
L 400.241632 77.250718 
L 400.309939 77.142698 
L 400.423784 76.939367 
L 400.482357 76.834524 
L 400.595901 76.63437 
L 400.657647 76.52635 
L 400.77102 76.323018 
L 400.84413 76.214998 
L 400.955015 76.037083 
L 400.955187 76.037083 
L 401.030397 75.929063 
L 401.137124 75.773388 
L 401.141497 75.773388 
L 401.196211 75.665368 
L 401.305811 75.506515 
L 401.307054 75.506515 
L 401.356837 75.398495 
L 401.464636 75.182456 
L 401.467938 75.182456 
L 401.541647 75.074436 
L 401.65532 74.858396 
L 401.724356 74.750376 
L 401.838329 74.537514 
L 401.900418 74.429494 
L 402.008002 74.219808 
L 402.011476 74.219808 
L 402.102165 74.111788 
L 402.215324 73.949758 
L 402.270338 73.841739 
L 402.384182 73.632053 
L 402.45712 73.524033 
L 402.567106 73.323879 
L 402.568135 73.323879 
L 402.629624 73.215859 
L 402.739137 72.948986 
L 402.740681 72.948986 
L 402.816406 72.840966 
L 402.927206 72.666228 
L 403.010478 72.558208 
L 403.120034 72.354877 
L 403.121535 72.354877 
L 403.204249 72.246857 
L 403.317622 72.056234 
L 403.391074 71.948214 
L 403.504233 71.783007 
L 403.574469 71.674987 
L 403.690543 71.484364 
L 403.765539 71.376344 
L 403.876339 71.173013 
L 403.876597 71.173013 
L 403.9383 71.064993 
L 404.052102 70.858484 
L 404.117107 70.750464 
L 404.222332 70.537602 
L 404.228078 70.537602 
L 404.310964 70.429582 
L 404.420821 70.223073 
L 404.421978 70.223073 
L 404.477936 70.115054 
L 404.586378 69.933961 
L 404.588865 69.933961 
L 404.663732 69.825942 
L 404.773203 69.625787 
L 404.774704 69.625787 
L 404.845454 69.517767 
L 404.956426 69.336675 
L 404.956512 69.336675 
L 405.016757 69.228655 
L 405.130302 69.041209 
L 405.192091 68.933189 
L 405.302462 68.723504 
L 405.303148 68.723504 
L 405.357862 68.615484 
L 405.471406 68.431215 
L 405.537483 68.323195 
L 405.647512 68.189758 
L 405.648455 68.189758 
L 405.724351 68.081739 
L 405.840469 67.897469 
L 405.924383 67.78945 
L 406.038099 67.595649 
L 406.093842 67.490806 
L 406.093842 67.487629 
L 406.207944 67.255704 
L 406.275222 67.147685 
L 406.386322 66.960238 
L 406.443523 66.852218 
L 406.557453 66.633002 
L 406.613754 66.524982 
L 406.721681 66.362952 
L 406.724554 66.362952 
L 406.817902 66.254932 
L 406.926473 66.048424 
L 406.928574 66.048424 
L 407.000268 65.940404 
L 407.117157 65.727541 
L 407.170327 65.619521 
L 407.281342 65.397127 
L 407.358825 65.289108 
L 407.472197 65.117547 
L 407.526826 65.009527 
L 407.635525 64.872913 
L 407.637926 64.872913 
L 407.705632 64.764894 
L 407.816433 64.583801 
L 407.816733 64.583801 
L 407.895159 64.475782 
L 408.007974 64.323283 
L 408.073151 64.215263 
L 408.18245 64.069119 
L 408.183436 64.069119 
L 408.246598 63.961099 
L 408.362801 63.764121 
L 408.405594 63.656101 
L 408.520682 63.509957 
L 408.598637 63.401937 
L 408.708708 63.230376 
L 408.709737 63.230376 
L 408.782846 63.122356 
L 408.892746 62.909494 
L 408.893518 62.909494 
L 408.966198 62.801474 
L 409.071038 62.63309 
L 409.077298 62.63309 
L 409.134371 62.52507 
L 409.244914 62.293145 
L 409.245214 62.293145 
L 409.31455 62.185125 
L 409.422048 62.019918 
L 409.42535 62.019918 
L 409.492413 61.911899 
L 409.602355 61.737161 
L 409.603256 61.737161 
L 409.663073 61.629141 
L 409.771343 61.448049 
L 409.774173 61.448049 
L 409.83489 61.340029 
L 409.944961 61.209769 
L 409.945433 61.209769 
L 410.013482 61.10175 
L 410.123468 60.946074 
L 410.124325 60.946074 
L 410.222776 60.838054 
L 410.335634 60.602952 
L 410.405785 60.494932 
L 410.519415 60.307486 
L 410.566711 60.199466 
L 410.674981 60.04379 
L 410.677425 60.04379 
L 410.74466 59.935771 
L 410.857047 59.761033 
L 410.933072 59.653013 
L 411.043872 59.433796 
L 411.044043 59.433796 
L 411.121612 59.325776 
L 411.235456 59.11609 
L 411.335365 59.008071 
L 411.448438 58.842864 
L 411.523863 58.734844 
L 411.633891 58.598231 
L 411.634749 58.598231 
L 411.698596 58.490211 
L 411.804122 58.299587 
L 411.808796 58.299587 
L 411.873972 58.191568 
L 411.9822 58.013653 
L 411.98503 58.013653 
L 412.048834 57.905633 
L 412.157233 57.769019 
L 412.159934 57.769019 
L 412.240076 57.660999 
L 412.347531 57.518032 
L 412.350833 57.518032 
L 412.425357 57.410012 
L 412.534056 57.244805 
L 412.535814 57.244805 
L 412.595374 57.136785 
L 412.705916 57.000172 
L 412.706474 57.000172 
L 412.770407 56.892152 
L 412.879277 56.736477 
L 412.880392 56.736477 
L 412.955903 56.631634 
L 413.065502 56.421948 
L 413.06696 56.421948 
L 413.143157 56.313928 
L 413.256015 56.142367 
L 413.310472 56.034347 
L 413.419557 55.872318 
L 413.421572 55.872318 
L 413.492451 55.764298 
L 413.602908 55.618153 
L 413.603552 55.618153 
L 413.675546 55.510133 
L 413.785231 55.322687 
L 413.78596 55.322687 
L 413.860356 55.214667 
L 413.968326 55.068523 
L 413.968798 55.068523 
L 414.053913 54.960503 
L 414.160768 54.846129 
L 414.161583 54.846129 
L 414.245583 54.738109 
L 414.35291 54.630089 
L 414.424476 54.522069 
L 414.537677 54.356863 
L 414.617947 54.248843 
L 414.718028 54.144 
L 414.72 54.144 
" clip-path="url(#pd902eeb4c8)" style="fill: none; stroke: #ff8c00; stroke-width: 1.5; stroke-linecap: square"/>
   </g>
   <g id="line2d_14">
    <path d="M 74.605714 307.584 
L 414.72 54.144 
" clip-path="url(#pd902eeb4c8)" style="fill: none; stroke-dasharray: 5.55,2.4; stroke-dashoffset: 0; stroke: #0000ff; stroke-width: 1.5"/>
   </g>
   <g id="patch_3">
    <path d="M 57.6 307.584 
L 57.6 41.472 
" style="fill: none; stroke: #000000; stroke-width: 0.8; stroke-linejoin: miter; stroke-linecap: square"/>
   </g>
   <g id="patch_4">
    <path d="M 414.72 307.584 
L 414.72 41.472 
" style="fill: none; stroke: #000000; stroke-width: 0.8; stroke-linejoin: miter; stroke-linecap: square"/>
   </g>
   <g id="patch_5">
    <path d="M 57.6 307.584 
L 414.72 307.584 
" style="fill: none; stroke: #000000; stroke-width: 0.8; stroke-linejoin: miter; stroke-linecap: square"/>
   </g>
   <g id="patch_6">
    <path d="M 57.6 41.472 
L 414.72 41.472 
" style="fill: none; stroke: #000000; stroke-width: 0.8; stroke-linejoin: miter; stroke-linecap: square"/>
   </g>
   <g id="text_15">
    <!-- ROC CURVE -->
    <g transform="translate(200.855625 35.472)scale(0.12 -0.12)">
     <defs>
      <path id="DejaVuSans-4f" d="M 2522 4238 
Q 1834 4238 1429 3725 
Q 1025 3213 1025 2328 
Q 1025 1447 1429 934 
Q 1834 422 2522 422 
Q 3209 422 3611 934 
Q 4013 1447 4013 2328 
Q 4013 3213 3611 3725 
Q 3209 4238 2522 4238 
z
M 2522 4750 
Q 3503 4750 4090 4092 
Q 4678 3434 4678 2328 
Q 4678 1225 4090 567 
Q 3503 -91 2522 -91 
Q 1538 -91 948 565 
Q 359 1222 359 2328 
Q 359 3434 948 4092 
Q 1538 4750 2522 4750 
z
" transform="scale(0.015625)"/>
      <path id="DejaVuSans-43" d="M 4122 4306 
L 4122 3641 
Q 3803 3938 3442 4084 
Q 3081 4231 2675 4231 
Q 1875 4231 1450 3742 
Q 1025 3253 1025 2328 
Q 1025 1406 1450 917 
Q 1875 428 2675 428 
Q 3081 428 3442 575 
Q 3803 722 4122 1019 
L 4122 359 
Q 3791 134 3420 21 
Q 3050 -91 2638 -91 
Q 1578 -91 968 557 
Q 359 1206 359 2328 
Q 359 3453 968 4101 
Q 1578 4750 2638 4750 
Q 3056 4750 3426 4639 
Q 3797 4528 4122 4306 
z
" transform="scale(0.015625)"/>
      <path id="DejaVuSans-55" d="M 556 4666 
L 1191 4666 
L 1191 1831 
Q 1191 1081 1462 751 
Q 1734 422 2344 422 
Q 2950 422 3222 751 
Q 3494 1081 3494 1831 
L 3494 4666 
L 4128 4666 
L 4128 1753 
Q 4128 841 3676 375 
Q 3225 -91 2344 -91 
Q 1459 -91 1007 375 
Q 556 841 556 1753 
L 556 4666 
z
" transform="scale(0.015625)"/>
      <path id="DejaVuSans-56" d="M 1831 0 
L 50 4666 
L 709 4666 
L 2188 738 
L 3669 4666 
L 4325 4666 
L 2547 0 
L 1831 0 
z
" transform="scale(0.015625)"/>
      <path id="DejaVuSans-45" d="M 628 4666 
L 3578 4666 
L 3578 4134 
L 1259 4134 
L 1259 2753 
L 3481 2753 
L 3481 2222 
L 1259 2222 
L 1259 531 
L 3634 531 
L 3634 0 
L 628 0 
L 628 4666 
z
" transform="scale(0.015625)"/>
     </defs>
     <use xlink:href="#DejaVuSans-52"/>
     <use xlink:href="#DejaVuSans-4f" x="69.482422"/>
     <use xlink:href="#DejaVuSans-43" x="148.193359"/>
     <use xlink:href="#DejaVuSans-20" x="218.017578"/>
     <use xlink:href="#DejaVuSans-43" x="249.804688"/>
     <use xlink:href="#DejaVuSans-55" x="319.628906"/>
     <use xlink:href="#DejaVuSans-52" x="392.822266"/>
     <use xlink:href="#DejaVuSans-56" x="456.804688"/>
     <use xlink:href="#DejaVuSans-45" x="525.212891"/>
    </g>
   </g>
   <g id="legend_1">
    <g id="patch_7">
     <path d="M 234.97 302.584 
L 407.72 302.584 
Q 409.72 302.584 409.72 300.584 
L 409.72 286.905875 
Q 409.72 284.905875 407.72 284.905875 
L 234.97 284.905875 
Q 232.97 284.905875 232.97 286.905875 
L 232.97 300.584 
Q 232.97 302.584 234.97 302.584 
z
" style="fill: #ffffff; opacity: 0.8; stroke: #cccccc; stroke-linejoin: miter"/>
    </g>
    <g id="line2d_15">
     <path d="M 236.97 293.004312 
L 246.97 293.004312 
L 256.97 293.004312 
" style="fill: none; stroke: #ff8c00; stroke-width: 1.5; stroke-linecap: square"/>
    </g>
    <g id="text_16">
     <!-- ROC curve (ROC AUC=0.27) -->
     <g transform="translate(264.97 296.504312)scale(0.1 -0.1)">
      <defs>
       <path id="DejaVuSans-63" d="M 3122 3366 
L 3122 2828 
Q 2878 2963 2633 3030 
Q 2388 3097 2138 3097 
Q 1578 3097 1268 2742 
Q 959 2388 959 1747 
Q 959 1106 1268 751 
Q 1578 397 2138 397 
Q 2388 397 2633 464 
Q 2878 531 3122 666 
L 3122 134 
Q 2881 22 2623 -34 
Q 2366 -91 2075 -91 
Q 1284 -91 818 406 
Q 353 903 353 1747 
Q 353 2603 823 3093 
Q 1294 3584 2113 3584 
Q 2378 3584 2631 3529 
Q 2884 3475 3122 3366 
z
" transform="scale(0.015625)"/>
       <path id="DejaVuSans-28" d="M 1984 4856 
Q 1566 4138 1362 3434 
Q 1159 2731 1159 2009 
Q 1159 1288 1364 580 
Q 1569 -128 1984 -844 
L 1484 -844 
Q 1016 -109 783 600 
Q 550 1309 550 2009 
Q 550 2706 781 3412 
Q 1013 4119 1484 4856 
L 1984 4856 
z
" transform="scale(0.015625)"/>
       <path id="DejaVuSans-41" d="M 2188 4044 
L 1331 1722 
L 3047 1722 
L 2188 4044 
z
M 1831 4666 
L 2547 4666 
L 4325 0 
L 3669 0 
L 3244 1197 
L 1141 1197 
L 716 0 
L 50 0 
L 1831 4666 
z
" transform="scale(0.015625)"/>
       <path id="DejaVuSans-3d" d="M 678 2906 
L 4684 2906 
L 4684 2381 
L 678 2381 
L 678 2906 
z
M 678 1631 
L 4684 1631 
L 4684 1100 
L 678 1100 
L 678 1631 
z
" transform="scale(0.015625)"/>
       <path id="DejaVuSans-37" d="M 525 4666 
L 3525 4666 
L 3525 4397 
L 1831 0 
L 1172 0 
L 2766 4134 
L 525 4134 
L 525 4666 
z
" transform="scale(0.015625)"/>
       <path id="DejaVuSans-29" d="M 513 4856 
L 1013 4856 
Q 1481 4119 1714 3412 
Q 1947 2706 1947 2009 
Q 1947 1309 1714 600 
Q 1481 -109 1013 -844 
L 513 -844 
Q 928 -128 1133 580 
Q 1338 1288 1338 2009 
Q 1338 2731 1133 3434 
Q 928 4138 513 4856 
z
" transform="scale(0.015625)"/>
      </defs>
      <use xlink:href="#DejaVuSans-52"/>
      <use xlink:href="#DejaVuSans-4f" x="69.482422"/>
      <use xlink:href="#DejaVuSans-43" x="148.193359"/>
      <use xlink:href="#DejaVuSans-20" x="218.017578"/>
      <use xlink:href="#DejaVuSans-63" x="249.804688"/>
      <use xlink:href="#DejaVuSans-75" x="304.785156"/>
      <use xlink:href="#DejaVuSans-72" x="368.164062"/>
      <use xlink:href="#DejaVuSans-76" x="409.277344"/>
      <use xlink:href="#DejaVuSans-65" x="468.457031"/>
      <use xlink:href="#DejaVuSans-20" x="529.980469"/>
      <use xlink:href="#DejaVuSans-28" x="561.767578"/>
      <use xlink:href="#DejaVuSans-52" x="600.78125"/>
      <use xlink:href="#DejaVuSans-4f" x="670.263672"/>
      <use xlink:href="#DejaVuSans-43" x="748.974609"/>
      <use xlink:href="#DejaVuSans-20" x="818.798828"/>
      <use xlink:href="#DejaVuSans-41" x="850.585938"/>
      <use xlink:href="#DejaVuSans-55" x="918.994141"/>
      <use xlink:href="#DejaVuSans-43" x="992.1875"/>
      <use xlink:href="#DejaVuSans-3d" x="1062.011719"/>
      <use xlink:href="#DejaVuSans-30" x="1145.800781"/>
      <use xlink:href="#DejaVuSans-2e" x="1209.423828"/>
      <use xlink:href="#DejaVuSans-32" x="1241.210938"/>
      <use xlink:href="#DejaVuSans-37" x="1304.833984"/>
      <use xlink:href="#DejaVuSans-29" x="1368.457031"/>
     </g>
    </g>
   </g>
  </g>
 </g>
 <defs>
  <clipPath id="pd902eeb4c8">
   <rect x="57.6" y="41.472" width="357.12" height="266.112"/>
  </clipPath>
 </defs>
</svg>
