<?xml version="1.0" encoding="utf-8" standalone="no"?>
<!DOCTYPE svg PUBLIC "-//W3C//DTD SVG 1.1//EN"
  "http://www.w3.org/Graphics/SVG/1.1/DTD/svg11.dtd">
<svg xmlns:xlink="http://www.w3.org/1999/xlink" width="460.8pt" height="345.6pt" viewBox="0 0 460.8 345.6" xmlns="http://www.w3.org/2000/svg" version="1.1">
 <metadata>
  <rdf:RDF xmlns:dc="http://purl.org/dc/elements/1.1/" xmlns:cc="http://creativecommons.org/ns#" xmlns:rdf="http://www.w3.org/1999/02/22-rdf-syntax-ns#">
   <cc:Work>
    <dc:type rdf:resource="http://purl.org/dc/dcmitype/StillImage"/>
    <dc:date>2022-05-26T18:00:53.853877</dc:date>
    <dc:format>image/svg+xml</dc:format>
    <dc:creator>
     <cc:Agent>
      <dc:title>Matplotlib v3.5.1, https://matplotlib.org/</dc:title>
     </cc:Agent>
    </dc:creator>
   </cc:Work>
  </rdf:RDF>
 </metadata>
 <defs>
  <style type="text/css">*{stroke-linejoin: round; stroke-linecap: butt}</style>
 </defs>
 <g id="figure_1">
  <g id="patch_1">
   <path d="M 0 345.6 
L 460.8 345.6 
L 460.8 0 
L 0 0 
z
" style="fill: #ffffff"/>
  </g>
  <g id="axes_1">
   <g id="patch_2">
    <path d="M 57.6 307.584 
L 414.72 307.584 
L 414.72 41.472 
L 57.6 41.472 
z
" style="fill: #ffffff"/>
   </g>
   <g id="matplotlib.axis_1">
    <g id="xtick_1">
     <g id="line2d_1">
      <defs>
       <path id="m4b4c9602f5" d="M 0 0 
L 0 3.5 
" style="stroke: #000000; stroke-width: 0.8"/>
      </defs>
      <g>
       <use xlink:href="#m4b4c9602f5" x="74.605714" y="307.584" style="stroke: #000000; stroke-width: 0.8"/>
      </g>
     </g>
     <g id="text_1">
      <!-- 0.0 -->
      <g transform="translate(66.654152 322.182437)scale(0.1 -0.1)">
       <defs>
        <path id="DejaVuSans-30" d="M 2034 4250 
Q 1547 4250 1301 3770 
Q 1056 3291 1056 2328 
Q 1056 1369 1301 889 
Q 1547 409 2034 409 
Q 2525 409 2770 889 
Q 3016 1369 3016 2328 
Q 3016 3291 2770 3770 
Q 2525 4250 2034 4250 
z
M 2034 4750 
Q 2819 4750 3233 4129 
Q 3647 3509 3647 2328 
Q 3647 1150 3233 529 
Q 2819 -91 2034 -91 
Q 1250 -91 836 529 
Q 422 1150 422 2328 
Q 422 3509 836 4129 
Q 1250 4750 2034 4750 
z
" transform="scale(0.015625)"/>
        <path id="DejaVuSans-2e" d="M 684 794 
L 1344 794 
L 1344 0 
L 684 0 
L 684 794 
z
" transform="scale(0.015625)"/>
       </defs>
       <use xlink:href="#DejaVuSans-30"/>
       <use xlink:href="#DejaVuSans-2e" x="63.623047"/>
       <use xlink:href="#DejaVuSans-30" x="95.410156"/>
      </g>
     </g>
    </g>
    <g id="xtick_2">
     <g id="line2d_2">
      <g>
       <use xlink:href="#m4b4c9602f5" x="142.628571" y="307.584" style="stroke: #000000; stroke-width: 0.8"/>
      </g>
     </g>
     <g id="text_2">
      <!-- 0.2 -->
      <g transform="translate(134.677009 322.182437)scale(0.1 -0.1)">
       <defs>
        <path id="DejaVuSans-32" d="M 1228 531 
L 3431 531 
L 3431 0 
L 469 0 
L 469 531 
Q 828 903 1448 1529 
Q 2069 2156 2228 2338 
Q 2531 2678 2651 2914 
Q 2772 3150 2772 3378 
Q 2772 3750 2511 3984 
Q 2250 4219 1831 4219 
Q 1534 4219 1204 4116 
Q 875 4013 500 3803 
L 500 4441 
Q 881 4594 1212 4672 
Q 1544 4750 1819 4750 
Q 2544 4750 2975 4387 
Q 3406 4025 3406 3419 
Q 3406 3131 3298 2873 
Q 3191 2616 2906 2266 
Q 2828 2175 2409 1742 
Q 1991 1309 1228 531 
z
" transform="scale(0.015625)"/>
       </defs>
       <use xlink:href="#DejaVuSans-30"/>
       <use xlink:href="#DejaVuSans-2e" x="63.623047"/>
       <use xlink:href="#DejaVuSans-32" x="95.410156"/>
      </g>
     </g>
    </g>
    <g id="xtick_3">
     <g id="line2d_3">
      <g>
       <use xlink:href="#m4b4c9602f5" x="210.651429" y="307.584" style="stroke: #000000; stroke-width: 0.8"/>
      </g>
     </g>
     <g id="text_3">
      <!-- 0.4 -->
      <g transform="translate(202.699866 322.182437)scale(0.1 -0.1)">
       <defs>
        <path id="DejaVuSans-34" d="M 2419 4116 
L 825 1625 
L 2419 1625 
L 2419 4116 
z
M 2253 4666 
L 3047 4666 
L 3047 1625 
L 3713 1625 
L 3713 1100 
L 3047 1100 
L 3047 0 
L 2419 0 
L 2419 1100 
L 313 1100 
L 313 1709 
L 2253 4666 
z
" transform="scale(0.015625)"/>
       </defs>
       <use xlink:href="#DejaVuSans-30"/>
       <use xlink:href="#DejaVuSans-2e" x="63.623047"/>
       <use xlink:href="#DejaVuSans-34" x="95.410156"/>
      </g>
     </g>
    </g>
    <g id="xtick_4">
     <g id="line2d_4">
      <g>
       <use xlink:href="#m4b4c9602f5" x="278.674286" y="307.584" style="stroke: #000000; stroke-width: 0.8"/>
      </g>
     </g>
     <g id="text_4">
      <!-- 0.6 -->
      <g transform="translate(270.722723 322.182437)scale(0.1 -0.1)">
       <defs>
        <path id="DejaVuSans-36" d="M 2113 2584 
Q 1688 2584 1439 2293 
Q 1191 2003 1191 1497 
Q 1191 994 1439 701 
Q 1688 409 2113 409 
Q 2538 409 2786 701 
Q 3034 994 3034 1497 
Q 3034 2003 2786 2293 
Q 2538 2584 2113 2584 
z
M 3366 4563 
L 3366 3988 
Q 3128 4100 2886 4159 
Q 2644 4219 2406 4219 
Q 1781 4219 1451 3797 
Q 1122 3375 1075 2522 
Q 1259 2794 1537 2939 
Q 1816 3084 2150 3084 
Q 2853 3084 3261 2657 
Q 3669 2231 3669 1497 
Q 3669 778 3244 343 
Q 2819 -91 2113 -91 
Q 1303 -91 875 529 
Q 447 1150 447 2328 
Q 447 3434 972 4092 
Q 1497 4750 2381 4750 
Q 2619 4750 2861 4703 
Q 3103 4656 3366 4563 
z
" transform="scale(0.015625)"/>
       </defs>
       <use xlink:href="#DejaVuSans-30"/>
       <use xlink:href="#DejaVuSans-2e" x="63.623047"/>
       <use xlink:href="#DejaVuSans-36" x="95.410156"/>
      </g>
     </g>
    </g>
    <g id="xtick_5">
     <g id="line2d_5">
      <g>
       <use xlink:href="#m4b4c9602f5" x="346.697143" y="307.584" style="stroke: #000000; stroke-width: 0.8"/>
      </g>
     </g>
     <g id="text_5">
      <!-- 0.8 -->
      <g transform="translate(338.74558 322.182437)scale(0.1 -0.1)">
       <defs>
        <path id="DejaVuSans-38" d="M 2034 2216 
Q 1584 2216 1326 1975 
Q 1069 1734 1069 1313 
Q 1069 891 1326 650 
Q 1584 409 2034 409 
Q 2484 409 2743 651 
Q 3003 894 3003 1313 
Q 3003 1734 2745 1975 
Q 2488 2216 2034 2216 
z
M 1403 2484 
Q 997 2584 770 2862 
Q 544 3141 544 3541 
Q 544 4100 942 4425 
Q 1341 4750 2034 4750 
Q 2731 4750 3128 4425 
Q 3525 4100 3525 3541 
Q 3525 3141 3298 2862 
Q 3072 2584 2669 2484 
Q 3125 2378 3379 2068 
Q 3634 1759 3634 1313 
Q 3634 634 3220 271 
Q 2806 -91 2034 -91 
Q 1263 -91 848 271 
Q 434 634 434 1313 
Q 434 1759 690 2068 
Q 947 2378 1403 2484 
z
M 1172 3481 
Q 1172 3119 1398 2916 
Q 1625 2713 2034 2713 
Q 2441 2713 2670 2916 
Q 2900 3119 2900 3481 
Q 2900 3844 2670 4047 
Q 2441 4250 2034 4250 
Q 1625 4250 1398 4047 
Q 1172 3844 1172 3481 
z
" transform="scale(0.015625)"/>
       </defs>
       <use xlink:href="#DejaVuSans-30"/>
       <use xlink:href="#DejaVuSans-2e" x="63.623047"/>
       <use xlink:href="#DejaVuSans-38" x="95.410156"/>
      </g>
     </g>
    </g>
    <g id="xtick_6">
     <g id="line2d_6">
      <g>
       <use xlink:href="#m4b4c9602f5" x="414.72" y="307.584" style="stroke: #000000; stroke-width: 0.8"/>
      </g>
     </g>
     <g id="text_6">
      <!-- 1.0 -->
      <g transform="translate(406.768438 322.182437)scale(0.1 -0.1)">
       <defs>
        <path id="DejaVuSans-31" d="M 794 531 
L 1825 531 
L 1825 4091 
L 703 3866 
L 703 4441 
L 1819 4666 
L 2450 4666 
L 2450 531 
L 3481 531 
L 3481 0 
L 794 0 
L 794 531 
z
" transform="scale(0.015625)"/>
       </defs>
       <use xlink:href="#DejaVuSans-31"/>
       <use xlink:href="#DejaVuSans-2e" x="63.623047"/>
       <use xlink:href="#DejaVuSans-30" x="95.410156"/>
      </g>
     </g>
    </g>
    <g id="text_7">
     <!-- False Positive Rate -->
     <g transform="translate(189.693594 335.860562)scale(0.1 -0.1)">
      <defs>
       <path id="DejaVuSans-46" d="M 628 4666 
L 3309 4666 
L 3309 4134 
L 1259 4134 
L 1259 2759 
L 3109 2759 
L 3109 2228 
L 1259 2228 
L 1259 0 
L 628 0 
L 628 4666 
z
" transform="scale(0.015625)"/>
       <path id="DejaVuSans-61" d="M 2194 1759 
Q 1497 1759 1228 1600 
Q 959 1441 959 1056 
Q 959 750 1161 570 
Q 1363 391 1709 391 
Q 2188 391 2477 730 
Q 2766 1069 2766 1631 
L 2766 1759 
L 2194 1759 
z
M 3341 1997 
L 3341 0 
L 2766 0 
L 2766 531 
Q 2569 213 2275 61 
Q 1981 -91 1556 -91 
Q 1019 -91 701 211 
Q 384 513 384 1019 
Q 384 1609 779 1909 
Q 1175 2209 1959 2209 
L 2766 2209 
L 2766 2266 
Q 2766 2663 2505 2880 
Q 2244 3097 1772 3097 
Q 1472 3097 1187 3025 
Q 903 2953 641 2809 
L 641 3341 
Q 956 3463 1253 3523 
Q 1550 3584 1831 3584 
Q 2591 3584 2966 3190 
Q 3341 2797 3341 1997 
z
" transform="scale(0.015625)"/>
       <path id="DejaVuSans-6c" d="M 603 4863 
L 1178 4863 
L 1178 0 
L 603 0 
L 603 4863 
z
" transform="scale(0.015625)"/>
       <path id="DejaVuSans-73" d="M 2834 3397 
L 2834 2853 
Q 2591 2978 2328 3040 
Q 2066 3103 1784 3103 
Q 1356 3103 1142 2972 
Q 928 2841 928 2578 
Q 928 2378 1081 2264 
Q 1234 2150 1697 2047 
L 1894 2003 
Q 2506 1872 2764 1633 
Q 3022 1394 3022 966 
Q 3022 478 2636 193 
Q 2250 -91 1575 -91 
Q 1294 -91 989 -36 
Q 684 19 347 128 
L 347 722 
Q 666 556 975 473 
Q 1284 391 1588 391 
Q 1994 391 2212 530 
Q 2431 669 2431 922 
Q 2431 1156 2273 1281 
Q 2116 1406 1581 1522 
L 1381 1569 
Q 847 1681 609 1914 
Q 372 2147 372 2553 
Q 372 3047 722 3315 
Q 1072 3584 1716 3584 
Q 2034 3584 2315 3537 
Q 2597 3491 2834 3397 
z
" transform="scale(0.015625)"/>
       <path id="DejaVuSans-65" d="M 3597 1894 
L 3597 1613 
L 953 1613 
Q 991 1019 1311 708 
Q 1631 397 2203 397 
Q 2534 397 2845 478 
Q 3156 559 3463 722 
L 3463 178 
Q 3153 47 2828 -22 
Q 2503 -91 2169 -91 
Q 1331 -91 842 396 
Q 353 884 353 1716 
Q 353 2575 817 3079 
Q 1281 3584 2069 3584 
Q 2775 3584 3186 3129 
Q 3597 2675 3597 1894 
z
M 3022 2063 
Q 3016 2534 2758 2815 
Q 2500 3097 2075 3097 
Q 1594 3097 1305 2825 
Q 1016 2553 972 2059 
L 3022 2063 
z
" transform="scale(0.015625)"/>
       <path id="DejaVuSans-20" transform="scale(0.015625)"/>
       <path id="DejaVuSans-50" d="M 1259 4147 
L 1259 2394 
L 2053 2394 
Q 2494 2394 2734 2622 
Q 2975 2850 2975 3272 
Q 2975 3691 2734 3919 
Q 2494 4147 2053 4147 
L 1259 4147 
z
M 628 4666 
L 2053 4666 
Q 2838 4666 3239 4311 
Q 3641 3956 3641 3272 
Q 3641 2581 3239 2228 
Q 2838 1875 2053 1875 
L 1259 1875 
L 1259 0 
L 628 0 
L 628 4666 
z
" transform="scale(0.015625)"/>
       <path id="DejaVuSans-6f" d="M 1959 3097 
Q 1497 3097 1228 2736 
Q 959 2375 959 1747 
Q 959 1119 1226 758 
Q 1494 397 1959 397 
Q 2419 397 2687 759 
Q 2956 1122 2956 1747 
Q 2956 2369 2687 2733 
Q 2419 3097 1959 3097 
z
M 1959 3584 
Q 2709 3584 3137 3096 
Q 3566 2609 3566 1747 
Q 3566 888 3137 398 
Q 2709 -91 1959 -91 
Q 1206 -91 779 398 
Q 353 888 353 1747 
Q 353 2609 779 3096 
Q 1206 3584 1959 3584 
z
" transform="scale(0.015625)"/>
       <path id="DejaVuSans-69" d="M 603 3500 
L 1178 3500 
L 1178 0 
L 603 0 
L 603 3500 
z
M 603 4863 
L 1178 4863 
L 1178 4134 
L 603 4134 
L 603 4863 
z
" transform="scale(0.015625)"/>
       <path id="DejaVuSans-74" d="M 1172 4494 
L 1172 3500 
L 2356 3500 
L 2356 3053 
L 1172 3053 
L 1172 1153 
Q 1172 725 1289 603 
Q 1406 481 1766 481 
L 2356 481 
L 2356 0 
L 1766 0 
Q 1100 0 847 248 
Q 594 497 594 1153 
L 594 3053 
L 172 3053 
L 172 3500 
L 594 3500 
L 594 4494 
L 1172 4494 
z
" transform="scale(0.015625)"/>
       <path id="DejaVuSans-76" d="M 191 3500 
L 800 3500 
L 1894 563 
L 2988 3500 
L 3597 3500 
L 2284 0 
L 1503 0 
L 191 3500 
z
" transform="scale(0.015625)"/>
       <path id="DejaVuSans-52" d="M 2841 2188 
Q 3044 2119 3236 1894 
Q 3428 1669 3622 1275 
L 4263 0 
L 3584 0 
L 2988 1197 
Q 2756 1666 2539 1819 
Q 2322 1972 1947 1972 
L 1259 1972 
L 1259 0 
L 628 0 
L 628 4666 
L 2053 4666 
Q 2853 4666 3247 4331 
Q 3641 3997 3641 3322 
Q 3641 2881 3436 2590 
Q 3231 2300 2841 2188 
z
M 1259 4147 
L 1259 2491 
L 2053 2491 
Q 2509 2491 2742 2702 
Q 2975 2913 2975 3322 
Q 2975 3731 2742 3939 
Q 2509 4147 2053 4147 
L 1259 4147 
z
" transform="scale(0.015625)"/>
      </defs>
      <use xlink:href="#DejaVuSans-46"/>
      <use xlink:href="#DejaVuSans-61" x="48.394531"/>
      <use xlink:href="#DejaVuSans-6c" x="109.673828"/>
      <use xlink:href="#DejaVuSans-73" x="137.457031"/>
      <use xlink:href="#DejaVuSans-65" x="189.556641"/>
      <use xlink:href="#DejaVuSans-20" x="251.080078"/>
      <use xlink:href="#DejaVuSans-50" x="282.867188"/>
      <use xlink:href="#DejaVuSans-6f" x="339.544922"/>
      <use xlink:href="#DejaVuSans-73" x="400.726562"/>
      <use xlink:href="#DejaVuSans-69" x="452.826172"/>
      <use xlink:href="#DejaVuSans-74" x="480.609375"/>
      <use xlink:href="#DejaVuSans-69" x="519.818359"/>
      <use xlink:href="#DejaVuSans-76" x="547.601562"/>
      <use xlink:href="#DejaVuSans-65" x="606.78125"/>
      <use xlink:href="#DejaVuSans-20" x="668.304688"/>
      <use xlink:href="#DejaVuSans-52" x="700.091797"/>
      <use xlink:href="#DejaVuSans-61" x="767.324219"/>
      <use xlink:href="#DejaVuSans-74" x="828.603516"/>
      <use xlink:href="#DejaVuSans-65" x="867.8125"/>
     </g>
    </g>
   </g>
   <g id="matplotlib.axis_2">
    <g id="ytick_1">
     <g id="line2d_7">
      <defs>
       <path id="mc7ca75fa6d" d="M 0 0 
L -3.5 0 
" style="stroke: #000000; stroke-width: 0.8"/>
      </defs>
      <g>
       <use xlink:href="#mc7ca75fa6d" x="57.6" y="307.584" style="stroke: #000000; stroke-width: 0.8"/>
      </g>
     </g>
     <g id="text_8">
      <!-- 0.0 -->
      <g transform="translate(34.696875 311.383219)scale(0.1 -0.1)">
       <use xlink:href="#DejaVuSans-30"/>
       <use xlink:href="#DejaVuSans-2e" x="63.623047"/>
       <use xlink:href="#DejaVuSans-30" x="95.410156"/>
      </g>
     </g>
    </g>
    <g id="ytick_2">
     <g id="line2d_8">
      <g>
       <use xlink:href="#mc7ca75fa6d" x="57.6" y="256.896" style="stroke: #000000; stroke-width: 0.8"/>
      </g>
     </g>
     <g id="text_9">
      <!-- 0.2 -->
      <g transform="translate(34.696875 260.695219)scale(0.1 -0.1)">
       <use xlink:href="#DejaVuSans-30"/>
       <use xlink:href="#DejaVuSans-2e" x="63.623047"/>
       <use xlink:href="#DejaVuSans-32" x="95.410156"/>
      </g>
     </g>
    </g>
    <g id="ytick_3">
     <g id="line2d_9">
      <g>
       <use xlink:href="#mc7ca75fa6d" x="57.6" y="206.208" style="stroke: #000000; stroke-width: 0.8"/>
      </g>
     </g>
     <g id="text_10">
      <!-- 0.4 -->
      <g transform="translate(34.696875 210.007219)scale(0.1 -0.1)">
       <use xlink:href="#DejaVuSans-30"/>
       <use xlink:href="#DejaVuSans-2e" x="63.623047"/>
       <use xlink:href="#DejaVuSans-34" x="95.410156"/>
      </g>
     </g>
    </g>
    <g id="ytick_4">
     <g id="line2d_10">
      <g>
       <use xlink:href="#mc7ca75fa6d" x="57.6" y="155.52" style="stroke: #000000; stroke-width: 0.8"/>
      </g>
     </g>
     <g id="text_11">
      <!-- 0.6 -->
      <g transform="translate(34.696875 159.319219)scale(0.1 -0.1)">
       <use xlink:href="#DejaVuSans-30"/>
       <use xlink:href="#DejaVuSans-2e" x="63.623047"/>
       <use xlink:href="#DejaVuSans-36" x="95.410156"/>
      </g>
     </g>
    </g>
    <g id="ytick_5">
     <g id="line2d_11">
      <g>
       <use xlink:href="#mc7ca75fa6d" x="57.6" y="104.832" style="stroke: #000000; stroke-width: 0.8"/>
      </g>
     </g>
     <g id="text_12">
      <!-- 0.8 -->
      <g transform="translate(34.696875 108.631219)scale(0.1 -0.1)">
       <use xlink:href="#DejaVuSans-30"/>
       <use xlink:href="#DejaVuSans-2e" x="63.623047"/>
       <use xlink:href="#DejaVuSans-38" x="95.410156"/>
      </g>
     </g>
    </g>
    <g id="ytick_6">
     <g id="line2d_12">
      <g>
       <use xlink:href="#mc7ca75fa6d" x="57.6" y="54.144" style="stroke: #000000; stroke-width: 0.8"/>
      </g>
     </g>
     <g id="text_13">
      <!-- 1.0 -->
      <g transform="translate(34.696875 57.943219)scale(0.1 -0.1)">
       <use xlink:href="#DejaVuSans-31"/>
       <use xlink:href="#DejaVuSans-2e" x="63.623047"/>
       <use xlink:href="#DejaVuSans-30" x="95.410156"/>
      </g>
     </g>
    </g>
    <g id="text_14">
     <!-- True Positive Rate -->
     <g transform="translate(28.617187 219.057687)rotate(-90)scale(0.1 -0.1)">
      <defs>
       <path id="DejaVuSans-54" d="M -19 4666 
L 3928 4666 
L 3928 4134 
L 2272 4134 
L 2272 0 
L 1638 0 
L 1638 4134 
L -19 4134 
L -19 4666 
z
" transform="scale(0.015625)"/>
       <path id="DejaVuSans-72" d="M 2631 2963 
Q 2534 3019 2420 3045 
Q 2306 3072 2169 3072 
Q 1681 3072 1420 2755 
Q 1159 2438 1159 1844 
L 1159 0 
L 581 0 
L 581 3500 
L 1159 3500 
L 1159 2956 
Q 1341 3275 1631 3429 
Q 1922 3584 2338 3584 
Q 2397 3584 2469 3576 
Q 2541 3569 2628 3553 
L 2631 2963 
z
" transform="scale(0.015625)"/>
       <path id="DejaVuSans-75" d="M 544 1381 
L 544 3500 
L 1119 3500 
L 1119 1403 
Q 1119 906 1312 657 
Q 1506 409 1894 409 
Q 2359 409 2629 706 
Q 2900 1003 2900 1516 
L 2900 3500 
L 3475 3500 
L 3475 0 
L 2900 0 
L 2900 538 
Q 2691 219 2414 64 
Q 2138 -91 1772 -91 
Q 1169 -91 856 284 
Q 544 659 544 1381 
z
M 1991 3584 
L 1991 3584 
z
" transform="scale(0.015625)"/>
      </defs>
      <use xlink:href="#DejaVuSans-54"/>
      <use xlink:href="#DejaVuSans-72" x="46.333984"/>
      <use xlink:href="#DejaVuSans-75" x="87.447266"/>
      <use xlink:href="#DejaVuSans-65" x="150.826172"/>
      <use xlink:href="#DejaVuSans-20" x="212.349609"/>
      <use xlink:href="#DejaVuSans-50" x="244.136719"/>
      <use xlink:href="#DejaVuSans-6f" x="300.814453"/>
      <use xlink:href="#DejaVuSans-73" x="361.996094"/>
      <use xlink:href="#DejaVuSans-69" x="414.095703"/>
      <use xlink:href="#DejaVuSans-74" x="441.878906"/>
      <use xlink:href="#DejaVuSans-69" x="481.087891"/>
      <use xlink:href="#DejaVuSans-76" x="508.871094"/>
      <use xlink:href="#DejaVuSans-65" x="568.050781"/>
      <use xlink:href="#DejaVuSans-20" x="629.574219"/>
      <use xlink:href="#DejaVuSans-52" x="661.361328"/>
      <use xlink:href="#DejaVuSans-61" x="728.59375"/>
      <use xlink:href="#DejaVuSans-74" x="789.873047"/>
      <use xlink:href="#DejaVuSans-65" x="829.082031"/>
     </g>
    </g>
   </g>
   <g id="line2d_13">
    <path d="M 74.605714 307.584 
L 76.661734 306.939058 
L 76.93406 306.843746 
L 77.171998 306.735726 
L 77.410364 306.583228 
L 77.66258 306.475208 
L 77.810813 306.40849 
L 78.045406 306.30047 
L 78.184206 306.259168 
L 78.478916 306.151148 
L 78.603051 306.109847 
L 78.863972 306.001827 
L 78.990766 305.938286 
L 79.212666 305.830266 
L 79.34139 305.779433 
L 79.73425 305.671413 
L 79.861773 305.62058 
L 80.190057 305.51256 
L 80.312735 305.449019 
L 80.76687 305.340999 
L 80.883759 305.315583 
L 81.187515 305.207563 
L 81.308264 305.147199 
L 81.740658 305.039179 
L 81.859306 305.020117 
L 82.161433 304.912097 
L 82.275492 304.861264 
L 82.711446 304.753244 
L 82.826663 304.718297 
L 83.216049 304.610277 
L 83.330323 304.578506 
L 83.674729 304.470486 
L 83.788917 304.441893 
L 84.222641 304.333873 
L 84.338244 304.295748 
L 84.898505 304.187729 
L 85.010805 304.171843 
L 85.381969 304.063823 
L 85.50589 304.000282 
L 85.858229 303.892263 
L 85.974775 303.863669 
L 86.37664 303.755649 
L 86.493915 303.71117 
L 86.916533 303.603151 
L 87.029177 303.565026 
L 87.459857 303.457006 
L 87.575888 303.418881 
L 87.886077 303.310862 
L 87.998164 303.298153 
L 88.113509 303.26956 
L 88.484801 303.16154 
L 88.596458 303.132946 
L 88.907119 303.024927 
L 89.021692 302.993156 
L 89.347103 302.885136 
L 89.461591 302.853366 
L 89.919757 302.745346 
L 90.031371 302.723106 
L 90.370204 302.615087 
L 90.483062 302.592847 
L 90.926262 302.484827 
L 91.039678 302.453057 
L 91.517525 302.345037 
L 91.63137 302.300558 
L 92.036793 302.192538 
L 92.150724 302.151237 
L 92.450021 302.043217 
L 92.563051 302.008269 
L 92.950937 301.900249 
L 93.063538 301.865302 
L 93.177897 301.808115 
L 93.533924 301.700095 
L 93.648326 301.66197 
L 94.246364 301.55395 
L 94.358836 301.52218 
L 94.798306 301.41416 
L 94.909492 301.404629 
L 95.405563 301.296609 
L 95.521937 301.245776 
L 96.111656 301.137756 
L 96.22683 301.105986 
L 96.697516 300.997966 
L 96.811704 300.953487 
L 97.240197 300.845467 
L 97.352069 300.826405 
L 97.897493 300.718385 
L 98.009623 300.7025 
L 98.46007 300.59448 
L 98.573185 300.57224 
L 99.08049 300.464221 
L 99.193049 300.441981 
L 99.553664 300.333961 
L 99.666822 300.302191 
L 100.118984 300.194171 
L 100.233686 300.152869 
L 100.611324 300.044849 
L 100.725298 300.019433 
L 101.081024 299.911413 
L 101.194354 299.88282 
L 101.696642 299.7748 
L 101.809029 299.727144 
L 102.279415 299.619124 
L 102.393174 299.590531 
L 102.783375 299.482511 
L 102.895376 299.460271 
L 103.247844 299.352252 
L 103.359459 299.333189 
L 103.740999 299.225169 
L 103.854114 299.190222 
L 104.20551 299.085379 
L 104.317811 299.031369 
L 104.715217 298.923349 
L 104.828761 298.90111 
L 105.231012 298.79309 
L 105.344942 298.754965 
L 105.754697 298.646945 
L 105.868027 298.608821 
L 106.231471 298.500801 
L 106.344073 298.465853 
L 106.742807 298.357833 
L 106.854636 298.332417 
L 107.293463 298.224397 
L 107.401519 298.186272 
L 107.404306 298.186272 
L 107.825552 298.078253 
L 107.939826 298.043305 
L 108.295767 297.935285 
L 108.408368 297.900338 
L 108.779188 297.792318 
L 108.891275 297.773255 
L 109.231693 297.665236 
L 109.343994 297.646173 
L 109.778705 297.538153 
L 109.893192 297.500029 
L 110.308135 297.392009 
L 110.421551 297.366592 
L 110.828304 297.258573 
L 110.940691 297.226802 
L 111.369741 297.118782 
L 111.4841 297.074303 
L 111.865083 296.966284 
L 111.97644 296.940867 
L 112.333025 296.832847 
L 112.445454 296.801077 
L 113.012619 296.693057 
L 113.126292 296.648578 
L 113.661339 296.540558 
L 113.773855 296.489725 
L 114.366532 296.381705 
L 114.480034 296.349935 
L 114.874266 296.241915 
L 114.986782 296.206967 
L 115.557505 296.098948 
L 115.670792 296.054469 
L 116.20867 295.946449 
L 116.320714 295.908324 
L 117.000608 295.800304 
L 117.111837 295.765357 
L 117.528324 295.657337 
L 117.639981 295.635098 
L 118.079108 295.527078 
L 118.19098 295.498484 
L 118.608667 295.390464 
L 118.722341 295.342809 
L 119.084756 295.234789 
L 119.196285 295.193487 
L 119.676962 295.085467 
L 119.789735 295.063228 
L 120.230063 294.955208 
L 120.342449 294.923437 
L 120.767212 294.815418 
L 120.880713 294.774116 
L 121.312722 294.666096 
L 121.425109 294.631148 
L 121.811151 294.523129 
L 121.923452 294.504066 
L 122.353874 294.396046 
L 122.459872 294.345213 
L 122.464889 294.345213 
L 122.870227 294.237194 
L 122.98227 294.221308 
L 123.421011 294.113288 
L 123.528038 294.075164 
L 123.532069 294.075164 
L 123.897272 293.967144 
L 124.011717 293.929019 
L 124.41401 293.820999 
L 124.529013 293.795583 
L 125.05527 293.687563 
L 125.167871 293.662147 
L 125.615102 293.554127 
L 125.729118 293.519179 
L 126.246715 293.411159 
L 126.358286 293.392097 
L 126.767398 293.284077 
L 126.879484 293.261838 
L 127.572114 293.153818 
L 127.685058 293.122047 
L 128.151027 293.014028 
L 128.264443 292.956841 
L 128.63149 292.848821 
L 128.744691 292.810696 
L 129.050506 292.702676 
L 129.163708 292.670906 
L 129.612911 292.562886 
L 129.72414 292.534292 
L 130.168713 292.426272 
L 130.280413 292.404033 
L 130.662125 292.296013 
L 130.774554 292.248357 
L 131.24151 292.140338 
L 131.355912 292.092682 
L 131.832472 291.984662 
L 131.945202 291.946537 
L 132.368164 291.838517 
L 132.479607 291.822632 
L 132.844424 291.714612 
L 132.957668 291.676488 
L 133.474492 291.568468 
L 133.587436 291.539874 
L 133.917093 291.431854 
L 134.029351 291.412792 
L 134.416679 291.304772 
L 134.530652 291.282533 
L 134.931317 291.174513 
L 135.043103 291.149097 
L 135.348447 291.041077 
L 135.46109 291.022014 
L 135.840615 290.913994 
L 135.954031 290.869516 
L 136.478616 290.761496 
L 136.590746 290.732902 
L 137.021468 290.624883 
L 137.133941 290.589935 
L 137.61376 290.481915 
L 137.727562 290.450145 
L 138.077714 290.342125 
L 138.189243 290.307177 
L 138.617865 290.199157 
L 138.732695 290.16421 
L 139.211829 290.05619 
L 139.324644 290.030773 
L 139.753652 289.922753 
L 139.865738 289.887806 
L 140.177856 289.779786 
L 140.291101 289.741661 
L 140.639795 289.633641 
L 140.75201 289.605048 
L 141.051179 289.497028 
L 141.163223 289.471612 
L 141.538502 289.363592 
L 141.651532 289.338175 
L 142.06669 289.230156 
L 142.178304 289.207916 
L 142.568249 289.099896 
L 142.680207 289.068126 
L 143.068522 288.960106 
L 143.185068 288.925158 
L 143.645977 288.817138 
L 143.758664 288.80443 
L 144.252548 288.69641 
L 144.366006 288.655109 
L 144.945777 288.547089 
L 145.059365 288.50261 
L 145.409303 288.39459 
L 145.521775 288.334226 
L 145.855247 288.226206 
L 145.966734 288.197613 
L 146.321517 288.089593 
L 146.435104 288.045114 
L 146.898801 287.937094 
L 147.011616 287.908501 
L 147.481359 287.800481 
L 147.592717 287.771887 
L 148.130166 287.663868 
L 148.241309 287.651159 
L 148.551069 287.54314 
L 148.664699 287.498661 
L 149.012536 287.390641 
L 149.125437 287.35887 
L 149.51684 287.250851 
L 149.629441 287.215903 
L 149.905112 287.107883 
L 150.004935 287.07929 
L 150.016169 287.07929 
L 150.465287 286.97127 
L 150.563866 286.926791 
L 150.576387 286.926791 
L 150.873798 286.818771 
L 150.986871 286.793355 
L 151.391737 286.685335 
L 151.503652 286.663095 
L 151.887936 286.555076 
L 152.000537 286.529659 
L 152.439922 286.421639 
L 152.553123 286.383515 
L 152.952929 286.275495 
L 153.064587 286.227839 
L 153.505344 286.119819 
L 153.616701 286.09758 
L 153.989065 285.98956 
L 154.101151 285.964143 
L 154.477932 285.856124 
L 154.591176 285.805291 
L 154.978119 285.697271 
L 155.090849 285.655969 
L 155.555189 285.547949 
L 155.667103 285.509825 
L 156.075143 285.401805 
L 156.189674 285.36368 
L 156.506895 285.25566 
L 156.618252 285.230244 
L 157.041299 285.122224 
L 157.153171 285.090453 
L 157.523949 284.982434 
L 157.635821 284.944309 
L 157.748551 284.906184 
L 158.131548 284.798164 
L 158.242777 284.763217 
L 158.614369 284.655197 
L 158.725727 284.623426 
L 159.111212 284.515407 
L 159.225142 284.477282 
L 159.531043 284.369262 
L 159.643258 284.32796 
L 160.040878 284.21994 
L 160.152621 284.200878 
L 160.498014 284.092858 
L 160.610358 284.064265 
L 161.110116 283.956245 
L 161.22336 283.905412 
L 161.664203 283.797392 
L 161.775603 283.768799 
L 162.08412 283.660779 
L 162.19925 283.629008 
L 162.725723 283.520988 
L 162.840553 283.486041 
L 163.240874 283.378021 
L 163.353175 283.358959 
L 163.748179 283.250939 
L 163.86048 283.222345 
L 164.286143 283.114325 
L 164.399902 283.06667 
L 164.813044 282.95865 
L 164.91797 282.910994 
L 164.924059 282.910994 
L 165.299681 282.802974 
L 165.412797 282.768026 
L 165.822037 282.660007 
L 165.936525 282.612351 
L 166.327155 282.504331 
L 166.438898 282.456675 
L 166.858087 282.348655 
L 166.969358 282.323239 
L 167.30073 282.215219 
L 167.413288 282.189803 
L 167.772359 282.081783 
L 167.883717 282.056366 
L 168.212172 281.951523 
L 168.324044 281.910222 
L 168.717762 281.802202 
L 168.741774 281.786317 
L 168.828862 281.786317 
L 169.265588 281.678297 
L 169.377717 281.627464 
L 169.862082 281.519444 
L 169.975926 281.471788 
L 170.410765 281.363768 
L 170.522938 281.325644 
L 170.871932 281.217624 
L 170.984533 281.163614 
L 171.309816 281.055594 
L 171.423146 280.998407 
L 171.830585 280.890387 
L 171.944858 280.845908 
L 172.407912 280.737889 
L 172.520341 280.706118 
L 172.866506 280.598098 
L 172.978549 280.559974 
L 173.37767 280.451954 
L 173.490228 280.42336 
L 173.950323 280.31534 
L 174.062238 280.280393 
L 174.456342 280.172373 
L 174.567785 280.137425 
L 175.076205 280.029405 
L 175.188034 280.003989 
L 175.501096 279.895969 
L 175.614469 279.838782 
L 176.028297 279.730762 
L 176.14004 279.705346 
L 176.444826 279.597326 
L 176.55627 279.565555 
L 176.941068 279.457536 
L 177.053112 279.435296 
L 177.389672 279.327276 
L 177.504159 279.285975 
L 177.868805 279.177955 
L 177.980377 279.13983 
L 178.318609 279.03181 
L 178.430996 278.9778 
L 178.836462 278.86978 
L 178.948892 278.83801 
L 179.266842 278.72999 
L 179.378371 278.695042 
L 179.696449 278.587023 
L 179.811152 278.53619 
L 180.115509 278.42817 
L 180.228496 278.383691 
L 180.552792 278.275671 
L 180.666079 278.247078 
L 181.049291 278.139058 
L 181.161678 278.107287 
L 181.602992 277.999268 
L 181.716879 277.961143 
L 182.107467 277.853123 
L 182.219725 277.834061 
L 182.540633 277.726041 
L 182.654049 277.684739 
L 183.014707 277.576719 
L 183.127179 277.544949 
L 183.51618 277.436929 
L 183.629425 277.386096 
L 184.121851 277.278076 
L 184.234066 277.249483 
L 184.592837 277.141463 
L 184.705524 277.103338 
L 185.029134 276.995318 
L 185.140877 276.938131 
L 185.535881 276.830111 
L 185.64741 276.798341 
L 185.915406 276.690321 
L 186.02775 276.642665 
L 186.375115 276.534645 
L 186.488102 276.502875 
L 186.730027 276.394855 
L 186.842585 276.35673 
L 187.172842 276.24871 
L 187.285957 276.201055 
L 187.616342 276.093035 
L 187.728557 276.051733 
L 188.11014 275.943713 
L 188.222312 275.902411 
L 188.564875 275.794392 
L 188.677005 275.756267 
L 189.091476 275.648247 
L 189.203477 275.622831 
L 189.573225 275.514811 
L 189.685611 275.467155 
L 190.043096 275.359135 
L 190.155183 275.324188 
L 190.518671 275.216168 
L 190.630457 275.165335 
L 191.075501 275.057315 
L 191.187287 275.006482 
L 191.545287 274.898462 
L 191.658188 274.853983 
L 192.035869 274.745964 
L 192.148298 274.714193 
L 192.567958 274.606173 
L 192.679444 274.57758 
L 193.036757 274.46956 
L 193.149359 274.412373 
L 193.410108 274.304353 
L 193.522194 274.266228 
L 193.753828 274.158208 
L 193.86913 274.110553 
L 194.167699 274.002533 
L 194.279571 273.973939 
L 194.596621 273.865919 
L 194.710637 273.81191 
L 194.989438 273.70389 
L 195.102897 273.662588 
L 195.415272 273.554568 
L 195.526716 273.513266 
L 195.922449 273.405247 
L 196.034449 273.373476 
L 196.407113 273.265456 
L 196.511825 273.208269 
L 196.518214 273.208269 
L 196.851858 273.100249 
L 196.953567 273.068479 
L 196.962958 273.068479 
L 197.245146 272.960459 
L 197.358605 272.919157 
L 197.597529 272.811137 
L 197.708843 272.77619 
L 198.077262 272.66817 
L 198.191278 272.626868 
L 198.525522 272.518848 
L 198.637995 272.487078 
L 199.035915 272.379058 
L 199.148516 272.359996 
L 199.369087 272.251976 
L 199.481345 272.210674 
L 199.786517 272.102654 
L 199.898217 272.058175 
L 200.140657 271.950156 
L 200.253515 271.908854 
L 200.625579 271.800834 
L 200.737151 271.765886 
L 201.074911 271.657867 
L 201.187169 271.616565 
L 201.537579 271.508545 
L 201.651423 271.460889 
L 202.208683 271.352869 
L 202.3245 271.314745 
L 202.634088 271.206725 
L 202.74789 271.159069 
L 203.121712 271.051049 
L 203.235471 271.022456 
L 203.670181 270.914436 
L 203.781667 270.885842 
L 204.134993 270.777822 
L 204.246779 270.72699 
L 204.561599 270.61897 
L 204.675014 270.561783 
L 204.968137 270.453763 
L 205.08091 270.409284 
L 205.316575 270.301264 
L 205.428318 270.250431 
L 205.842532 270.142411 
L 205.955047 270.107464 
L 206.411712 269.999444 
L 206.501501 269.967673 
L 206.522812 269.967673 
L 206.79441 269.859654 
L 206.906196 269.808821 
L 207.234952 269.700801 
L 207.348067 269.649968 
L 207.633 269.541948 
L 207.745087 269.507001 
L 208.103944 269.398981 
L 208.216545 269.344971 
L 208.576688 269.236951 
L 208.688131 269.208357 
L 209.073745 269.100338 
L 209.186903 269.049505 
L 209.434059 268.941485 
L 209.547304 268.890652 
L 209.805008 268.782632 
L 209.916666 268.734976 
L 210.240448 268.626956 
L 210.352834 268.579301 
L 210.625547 268.471281 
L 210.739391 268.433156 
L 210.999197 268.325136 
L 211.111841 268.296543 
L 211.423145 268.188523 
L 211.535531 268.166284 
L 211.890872 268.058264 
L 212.002229 268.039201 
L 212.352896 267.931181 
L 212.464425 267.899411 
L 212.759264 267.791391 
L 212.872636 267.746912 
L 213.158856 267.638892 
L 213.268198 267.56582 
L 213.269956 267.56582 
L 213.604114 267.4578 
L 213.716287 267.419676 
L 214.014812 267.311656 
L 214.126985 267.273531 
L 214.459128 267.165511 
L 214.571557 267.143272 
L 214.900399 267.035252 
L 215.011842 267.000304 
L 215.34004 266.892285 
L 215.43103 266.85416 
L 215.451055 266.85416 
L 215.769948 266.74614 
L 215.881563 266.708015 
L 216.198141 266.603173 
L 216.309241 266.574579 
L 216.776668 266.466559 
L 216.892271 266.412549 
L 217.290662 266.30453 
L 217.404078 266.247343 
L 217.759676 266.139323 
L 217.871119 266.098021 
L 218.111544 265.990001 
L 218.227404 265.951876 
L 218.556331 265.843857 
L 218.669789 265.812086 
L 218.934912 265.704066 
L 219.0491 265.650056 
L 219.353114 265.542036 
L 219.465586 265.488026 
L 219.773846 265.380007 
L 219.88679 265.335528 
L 220.178197 265.227508 
L 220.283981 265.198915 
L 220.289298 265.198915 
L 220.53118 265.090895 
L 220.64421 265.043239 
L 220.910704 264.935219 
L 221.018374 264.89074 
L 221.021547 264.89074 
L 221.423927 264.785897 
L 221.423927 264.78272 
L 221.536271 264.735065 
L 221.843243 264.627045 
L 221.956402 264.576212 
L 222.152275 264.468192 
L 222.263118 264.430067 
L 222.263375 264.430067 
L 222.581411 264.322047 
L 222.694569 264.245798 
L 223.052568 264.137778 
L 223.163883 264.102831 
L 223.447401 263.994811 
L 223.534146 263.96304 
L 223.558501 263.96304 
L 223.96534 263.85502 
L 224.077427 263.820073 
L 224.406011 263.712053 
L 224.519941 263.673928 
L 224.875968 263.565908 
L 224.987368 263.534138 
L 225.282721 263.426118 
L 225.394936 263.381639 
L 225.683471 263.273619 
L 225.7953 263.216432 
L 226.091339 263.108413 
L 226.205869 263.060757 
L 226.451868 262.952737 
L 226.55182 262.924143 
L 226.562925 262.924143 
L 226.861537 262.816124 
L 226.974138 262.781176 
L 227.341785 262.673156 
L 227.453314 262.635031 
L 227.694939 262.527012 
L 227.806682 262.476179 
L 228.14217 262.368159 
L 228.256572 262.307795 
L 228.585199 262.199775 
L 228.696771 262.164827 
L 229.041949 262.056808 
L 229.150348 262.018683 
L 229.153049 262.018683 
L 229.468255 261.910663 
L 229.580985 261.850299 
L 229.937955 261.742279 
L 230.050342 261.694623 
L 230.421934 261.586603 
L 230.516054 261.551656 
L 230.533034 261.551656 
L 230.889833 261.443636 
L 230.997331 261.415042 
L 231.00089 261.415042 
L 231.31601 261.307023 
L 231.424623 261.259367 
L 231.426939 261.259367 
L 231.744975 261.151347 
L 231.857747 261.090983 
L 232.05139 260.982963 
L 232.163734 260.938484 
L 232.479754 260.830464 
L 232.591841 260.795517 
L 232.845215 260.687497 
L 232.956958 260.63031 
L 233.218264 260.52229 
L 233.330308 260.484165 
L 233.638825 260.376146 
L 233.750439 260.331667 
L 234.061014 260.223647 
L 234.168341 260.169637 
L 234.172115 260.169637 
L 234.552968 260.061617 
L 234.66454 260.017138 
L 234.952561 259.909119 
L 235.065848 259.855109 
L 235.348508 259.747089 
L 235.461452 259.680371 
L 235.691328 259.572351 
L 235.799127 259.527872 
L 235.802386 259.527872 
L 236.018283 259.419852 
L 236.130798 259.384905 
L 236.373323 259.276885 
L 236.488326 259.222875 
L 236.768456 259.114855 
L 236.880071 259.070376 
L 237.047643 258.962356 
L 237.160802 258.911523 
L 237.476651 258.803504 
L 237.589509 258.736785 
L 238.014314 258.628766 
L 238.119026 258.590641 
L 238.125415 258.590641 
L 238.382347 258.482621 
L 238.494863 258.428611 
L 238.751109 258.320591 
L 238.862853 258.272935 
L 239.109838 258.164916 
L 239.195167 258.126791 
L 239.220852 258.126791 
L 239.423886 258.018771 
L 239.531684 257.987001 
L 239.534943 257.987001 
L 239.941524 257.878981 
L 240.053096 257.840856 
L 240.350507 257.732836 
L 240.463966 257.669295 
L 240.70602 257.561275 
L 240.818706 257.523151 
L 241.151793 257.415131 
L 241.263279 257.380183 
L 241.628696 257.272163 
L 241.713983 257.24357 
L 241.739754 257.24357 
L 242.083903 257.13555 
L 242.195861 257.103779 
L 242.559177 256.99576 
L 242.672207 256.948104 
L 243.030764 256.840084 
L 243.142979 256.798782 
L 243.367409 256.690762 
L 243.479153 256.639929 
L 243.86318 256.53191 
L 243.974794 256.493785 
L 244.386736 256.385765 
L 244.498179 256.360349 
L 244.821146 256.252329 
L 244.933661 256.201496 
L 245.27408 256.093476 
L 245.387024 256.026758 
L 245.663853 255.918738 
L 245.776454 255.880613 
L 246.046637 255.772593 
L 246.15928 255.734469 
L 246.609642 255.626449 
L 246.720956 255.575616 
L 247.019139 255.467596 
L 247.130797 255.41994 
L 247.419632 255.311921 
L 247.531504 255.283327 
L 247.800614 255.175307 
L 247.913215 255.146714 
L 248.23138 255.038694 
L 248.33905 255.006923 
L 248.34248 255.006923 
L 248.652583 254.898903 
L 248.765613 254.87031 
L 249.092053 254.76229 
L 249.204182 254.720988 
L 249.515958 254.612969 
L 249.606605 254.587552 
L 249.627058 254.587552 
L 249.931758 254.479532 
L 250.034883 254.454116 
L 250.04273 254.454116 
L 250.35845 254.346096 
L 250.471523 254.29844 
L 250.869486 254.19042 
L 250.971667 254.13641 
L 250.980543 254.13641 
L 251.358096 254.028391 
L 251.461177 253.980735 
L 251.469153 253.980735 
L 251.696027 253.872715 
L 251.807728 253.828236 
L 252.285489 253.720216 
L 252.39749 253.685269 
L 252.696101 253.577249 
L 252.807802 253.53277 
L 253.185483 253.42475 
L 253.296283 253.389803 
L 253.296583 253.389803 
L 253.745444 253.281783 
L 253.858816 253.227773 
L 254.158714 253.119753 
L 254.255664 253.081628 
L 254.269814 253.081628 
L 254.539482 252.973608 
L 254.628157 252.935484 
L 254.650411 252.935484 
L 254.939975 252.827464 
L 255.051547 252.789339 
L 255.510184 252.681319 
L 255.621627 252.652726 
L 255.961875 252.544706 
L 256.07529 252.487519 
L 256.368413 252.379499 
L 256.477584 252.325489 
L 256.479385 252.325489 
L 256.880006 252.217469 
L 256.992136 252.172991 
L 257.282043 252.064971 
L 257.394987 252.0332 
L 257.685408 251.92518 
L 257.796894 251.89341 
L 258.124278 251.78539 
L 258.235721 251.756796 
L 258.575368 251.648777 
L 258.68754 251.62336 
L 259.053944 251.51534 
L 259.165559 251.477216 
L 259.502075 251.369196 
L 259.613776 251.312009 
L 259.994244 251.203989 
L 260.105988 251.156333 
L 260.449922 251.048313 
L 260.563038 251.013366 
L 260.844198 250.905346 
L 260.955855 250.864044 
L 261.252966 250.756024 
L 261.358535 250.714723 
L 261.36398 250.714723 
L 261.696338 250.606703 
L 261.808124 250.552693 
L 262.179759 250.444673 
L 262.28104 250.400194 
L 262.290817 250.400194 
L 262.662966 250.292174 
L 262.774452 250.263581 
L 263.094718 250.155561 
L 263.203717 250.114259 
L 263.205818 250.114259 
L 263.473471 250.006239 
L 263.585943 249.974469 
L 263.844334 249.866449 
L 263.955948 249.828324 
L 264.247056 249.720304 
L 264.359914 249.656763 
L 264.629282 249.548744 
L 264.740983 249.501088 
L 265.03209 249.393068 
L 265.145549 249.348589 
L 265.532063 249.240569 
L 265.630557 249.189736 
L 265.643077 249.189736 
L 265.951894 249.081716 
L 266.063295 249.043592 
L 266.464773 248.935572 
L 266.576431 248.89427 
L 266.918694 248.78625 
L 267.030523 248.729063 
L 267.364853 248.621044 
L 267.476639 248.589273 
L 267.771477 248.481253 
L 267.883607 248.443129 
L 268.27458 248.335109 
L 268.386066 248.277922 
L 268.648059 248.169902 
L 268.751698 248.109538 
L 268.759159 248.109538 
L 269.118445 248.001518 
L 269.229974 247.96657 
L 269.589603 247.85855 
L 269.704562 247.804541 
L 269.92539 247.696521 
L 270.036276 247.661573 
L 270.036405 247.661573 
L 270.350324 247.553553 
L 270.46181 247.515429 
L 270.794125 247.407409 
L 270.891247 247.356576 
L 270.905225 247.356576 
L 271.111989 247.248556 
L 271.222146 247.207254 
L 271.22309 247.207254 
L 271.579717 247.099234 
L 271.69116 247.064287 
L 271.982225 246.956267 
L 272.093839 246.914965 
L 272.488972 246.806945 
L 272.601402 246.75929 
L 272.850445 246.65127 
L 272.962274 246.59726 
L 273.208959 246.48924 
L 273.309768 246.460646 
L 273.31993 246.460646 
L 273.616398 246.352627 
L 273.728055 246.298617 
L 274.033528 246.190597 
L 274.145828 246.146118 
L 274.496624 246.038098 
L 274.59679 246.009505 
L 274.607681 246.009505 
L 275.016064 245.901485 
L 275.127807 245.847475 
L 275.544294 245.739455 
L 275.65608 245.685445 
L 275.916401 245.577425 
L 276.028487 245.539301 
L 276.423448 245.431281 
L 276.535149 245.383625 
L 276.741098 245.275605 
L 276.852584 245.231126 
L 277.21187 245.123106 
L 277.32177 245.078628 
L 277.322885 245.078628 
L 277.559878 244.970608 
L 277.672694 244.929306 
L 277.97525 244.821286 
L 278.088109 244.776808 
L 278.345084 244.668788 
L 278.456699 244.617955 
L 278.73863 244.509935 
L 278.847887 244.47181 
L 278.849731 244.47181 
L 279.158676 244.36379 
L 279.270162 244.322489 
L 279.648229 244.214469 
L 279.755213 244.179521 
L 279.759329 244.179521 
L 280.027368 244.071501 
L 280.129678 244.020669 
L 280.138168 244.020669 
L 280.498526 243.912649 
L 280.610312 243.880878 
L 280.941383 243.772858 
L 281.053469 243.696609 
L 281.342605 243.588589 
L 281.427806 243.559996 
L 281.453705 243.559996 
L 281.735894 243.451976 
L 281.846951 243.407497 
L 282.090077 243.299477 
L 282.192258 243.258175 
L 282.201177 243.258175 
L 282.506992 243.150156 
L 282.614105 243.121562 
L 282.618092 243.121562 
L 282.930125 243.013542 
L 283.043626 242.956355 
L 283.460585 242.848335 
L 283.572328 242.80068 
L 283.933458 242.69266 
L 284.045244 242.641827 
L 284.342912 242.533807 
L 284.443164 242.505213 
L 284.45397 242.505213 
L 284.707086 242.397194 
L 284.819516 242.349538 
L 284.999566 242.241518 
L 285.096259 242.203393 
L 285.110537 242.203393 
L 285.33574 242.095373 
L 285.448341 242.041363 
L 285.765562 241.933344 
L 285.866371 241.879334 
L 285.876662 241.879334 
L 286.170514 241.771314 
L 286.282257 241.720481 
L 286.640342 241.612461 
L 286.752772 241.564805 
L 287.054428 241.456785 
L 287.150777 241.40913 
L 287.165442 241.40913 
L 287.532703 241.30111 
L 287.646162 241.243923 
L 287.893447 241.135903 
L 287.977576 241.120018 
L 288.004504 241.120018 
L 288.241412 241.011998 
L 288.352856 240.97705 
L 288.720417 240.86903 
L 288.832289 240.811843 
L 289.121381 240.703823 
L 289.233254 240.643459 
L 289.483669 240.53544 
L 289.589152 240.471899 
L 289.59464 240.471899 
L 289.776792 240.363879 
L 289.879873 240.303515 
L 289.887849 240.303515 
L 290.119311 240.195495 
L 290.224537 240.135131 
L 290.230412 240.135131 
L 290.455957 240.027111 
L 290.567443 239.988986 
L 290.795604 239.880966 
L 290.903402 239.839665 
L 290.906704 239.839665 
L 291.11231 239.731645 
L 291.223711 239.69352 
L 291.511559 239.5855 
L 291.624246 239.525136 
L 291.931219 239.417116 
L 292.043563 239.372638 
L 292.277984 239.264618 
L 292.38887 239.22967 
L 292.388999 239.22967 
L 292.725816 239.12165 
L 292.829283 239.080349 
L 292.836916 239.080349 
L 293.04398 238.972329 
L 293.157739 238.902434 
L 293.406482 238.794414 
L 293.512436 238.727696 
L 293.517582 238.727696 
L 293.800028 238.619676 
L 293.910185 238.537072 
L 293.911085 238.537072 
L 294.196361 238.429052 
L 294.308019 238.384574 
L 294.533307 238.276554 
L 294.63313 238.238429 
L 294.644364 238.238429 
L 294.805505 238.130409 
L 294.90983 238.070045 
L 294.916219 238.070045 
L 295.2111 237.962025 
L 295.315382 237.908015 
L 295.322157 237.908015 
L 295.586851 237.799996 
L 295.699195 237.755517 
L 295.890394 237.647497 
L 296.001408 237.583956 
L 296.21975 237.475936 
L 296.331836 237.402864 
L 296.542931 237.294844 
L 296.654889 237.231303 
L 296.912808 237.123283 
L 297.02438 237.088335 
L 297.268835 236.980315 
L 297.375861 236.897712 
L 297.379892 236.897712 
L 297.598619 236.789692 
L 297.705946 236.754745 
L 297.709677 236.754745 
L 297.966009 236.646725 
L 298.076766 236.589538 
L 298.076981 236.589538 
L 298.232204 236.481518 
L 298.335028 236.402092 
L 298.343261 236.402092 
L 298.556243 236.294072 
L 298.666057 236.246416 
L 298.667257 236.246416 
L 298.897862 236.138396 
L 299.004203 236.078032 
L 299.008877 236.078032 
L 299.227261 235.970012 
L 299.339305 235.89694 
L 299.493113 235.78892 
L 299.597781 235.747618 
L 299.604084 235.747618 
L 299.832888 235.639598 
L 299.944417 235.566526 
L 300.172063 235.458506 
L 300.284107 235.382257 
L 300.471876 235.274237 
L 300.579374 235.204342 
L 300.582633 235.204342 
L 300.762297 235.096322 
L 300.874083 235.042312 
L 301.094269 234.934292 
L 301.20464 234.883459 
L 301.205326 234.883459 
L 301.396954 234.77544 
L 301.508697 234.724607 
L 301.781795 234.616587 
L 301.893839 234.546692 
L 302.119727 234.438672 
L 302.231685 234.371954 
L 302.454872 234.263934 
L 302.566744 234.197216 
L 302.719651 234.089196 
L 302.82522 234.028832 
L 302.830409 234.028832 
L 303.073663 233.920812 
L 303.185321 233.87951 
L 303.397273 233.77149 
L 303.505072 233.707949 
L 303.508373 233.707949 
L 303.651847 233.599929 
L 303.763805 233.533211 
L 303.973828 233.425191 
L 304.082484 233.374359 
L 304.084928 233.374359 
L 304.225401 233.266339 
L 304.310859 233.212329 
L 304.336501 233.212329 
L 304.586831 233.104309 
L 304.699174 233.012174 
L 304.892388 232.904154 
L 305.000401 232.818374 
L 305.003017 232.818374 
L 305.211882 232.710354 
L 305.323797 232.643636 
L 305.530861 232.535616 
L 305.640461 232.491137 
L 305.641962 232.491137 
L 305.892848 232.383117 
L 306.004249 232.313222 
L 306.187944 232.205202 
L 306.299902 232.141661 
L 306.433127 232.033641 
L 306.517342 231.9701 
L 306.544142 231.9701 
L 306.712615 231.862081 
L 306.823415 231.782654 
L 306.823629 231.782654 
L 307.017915 231.674634 
L 307.121941 231.617447 
L 307.12893 231.617447 
L 307.355461 231.509427 
L 307.460773 231.433178 
L 307.466476 231.433178 
L 307.609907 231.325158 
L 307.703513 231.274325 
L 307.720879 231.274325 
L 307.865125 231.166306 
L 307.965934 231.099587 
L 307.976225 231.099587 
L 308.192251 230.991568 
L 308.294561 230.90261 
L 308.303222 230.90261 
L 308.490777 230.79459 
L 308.600204 230.743757 
L 308.601448 230.743757 
L 308.814858 230.635737 
L 308.926859 230.553134 
L 309.078009 230.448291 
L 309.185893 230.362511 
L 309.189066 230.362511 
L 309.376105 230.254491 
L 309.485705 230.171887 
L 309.487206 230.171887 
L 309.626992 230.063868 
L 309.727887 230.016212 
L 309.737621 230.016212 
L 309.89383 229.908192 
L 310.006431 229.851005 
L 310.152735 229.742985 
L 310.263535 229.657205 
L 310.263793 229.657205 
L 310.424204 229.549185 
L 310.533889 229.469758 
L 310.534275 229.469758 
L 310.71231 229.361739 
L 310.823239 229.291843 
L 310.995271 229.183823 
L 311.104784 229.098043 
L 311.105856 229.098043 
L 311.274758 228.990023 
L 311.38723 228.88518 
L 311.577314 228.777161 
L 311.681297 228.672318 
L 311.688372 228.672318 
L 311.873053 228.564298 
L 311.980637 228.484871 
L 311.98411 228.484871 
L 312.156142 228.376852 
L 312.264755 228.287894 
L 312.267157 228.287894 
L 312.460456 228.179874 
L 312.569756 228.094094 
L 312.571385 228.094094 
L 312.674296 227.986074 
L 312.786682 227.890762 
L 312.938689 227.782742 
L 313.051119 227.681077 
L 313.190519 227.573057 
L 313.292444 227.484099 
L 313.30162 227.484099 
L 313.432702 227.376079 
L 313.53454 227.306184 
L 313.543073 227.306184 
L 313.711417 227.198164 
L 313.815142 227.109207 
L 313.822089 227.109207 
L 313.974482 227.001187 
L 314.07825 226.928115 
L 314.085539 226.928115 
L 314.208345 226.820095 
L 314.315415 226.731137 
L 314.319146 226.731137 
L 314.444567 226.623117 
L 314.553781 226.527806 
L 314.555539 226.527806 
L 314.741035 226.419786 
L 314.847419 226.334006 
L 314.851792 226.334006 
L 315.004142 226.225986 
L 315.111555 226.140205 
L 315.115243 226.140205 
L 315.226557 226.032185 
L 315.337057 225.927343 
L 315.337658 225.927343 
L 315.483919 225.819323 
L 315.590645 225.736719 
L 315.594419 225.736719 
L 315.709164 225.628699 
L 315.823394 225.514325 
L 315.943542 225.406306 
L 316.045766 225.320525 
L 316.054128 225.320525 
L 316.179678 225.212505 
L 316.291979 225.110839 
L 316.441757 225.00282 
L 316.549384 224.891623 
L 316.552857 224.891623 
L 316.65744 224.783603 
L 316.767854 224.688291 
L 316.768497 224.688291 
L 316.903953 224.580271 
L 317.012652 224.48496 
L 317.014753 224.48496 
L 317.120665 224.37694 
L 317.23125 224.278451 
L 317.364519 224.170431 
L 317.470989 224.033818 
L 317.475577 224.033818 
L 317.605244 223.925798 
L 317.715529 223.836841 
L 317.716301 223.836841 
L 317.854201 223.728821 
L 317.963329 223.61127 
L 317.965301 223.61127 
L 318.074858 223.50325 
L 318.185915 223.407938 
L 318.185958 223.407938 
L 318.329604 223.299918 
L 318.414119 223.217315 
L 318.440661 223.217315 
L 318.55978 223.109295 
L 318.667664 223.001275 
L 318.670794 223.001275 
L 318.804578 222.893255 
L 318.917179 222.778881 
L 319.025406 222.670862 
L 319.134491 222.566019 
L 319.136163 222.566019 
L 319.228825 222.457999 
L 319.33075 222.334094 
L 319.339883 222.334094 
L 319.437819 222.226074 
L 319.549648 222.146648 
L 319.676185 222.038628 
L 319.783555 221.914723 
L 319.787114 221.914723 
L 319.889553 221.806703 
L 319.996236 221.666912 
L 320.000567 221.666912 
L 320.097432 221.558892 
L 320.210075 221.425456 
L 320.317016 221.317436 
L 320.425287 221.206239 
L 320.427688 221.206239 
L 320.554396 221.09822 
L 320.660908 221.006085 
L 320.665496 221.006085 
L 320.753914 220.898065 
L 320.858239 220.780514 
L 320.864928 220.780514 
L 320.971054 220.672494 
L 321.076623 220.564474 
L 321.082155 220.564474 
L 321.204875 220.456454 
L 321.317862 220.31031 
L 321.410782 220.20229 
L 321.521453 220.068854 
L 321.624363 219.960834 
L 321.735249 219.821044 
L 321.831728 219.713024 
L 321.938497 219.563702 
L 321.942828 219.563702 
L 322.032274 219.455682 
L 322.138229 219.338131 
L 322.142088 219.338131 
L 322.274456 219.230111 
L 322.381355 219.1348 
L 322.385514 219.1348 
L 322.469772 219.02678 
L 322.579929 218.909229 
L 322.580658 218.909229 
L 322.682282 218.801209 
L 322.792653 218.677304 
L 322.793382 218.677304 
L 322.892261 218.569284 
L 323.002933 218.451733 
L 323.124496 218.343713 
L 323.234395 218.2071 
L 323.235553 218.2071 
L 323.336448 218.09908 
L 323.443818 217.984706 
L 323.447334 217.984706 
L 323.56611 217.876686 
L 323.670564 217.755958 
L 323.67691 217.755958 
L 323.797143 217.647938 
L 323.905414 217.543095 
L 323.908029 217.543095 
L 323.977579 217.435076 
L 324.08555 217.320702 
L 324.088465 217.320702 
L 324.169207 217.212682 
L 324.271646 217.082423 
L 324.27945 217.082423 
L 324.352044 216.974403 
L 324.462973 216.828258 
L 324.463102 216.828258 
L 324.547059 216.720238 
L 324.656745 216.615395 
L 324.657988 216.615395 
L 324.746191 216.507376 
L 324.858921 216.380293 
L 324.965261 216.272274 
L 325.071559 216.145191 
L 325.076104 216.145191 
L 325.167309 216.037172 
L 325.277294 215.88785 
L 325.277851 215.88785 
L 325.352376 215.77983 
L 325.453871 215.64004 
L 325.462747 215.64004 
L 325.526037 215.53202 
L 325.636494 215.373167 
L 325.636794 215.373167 
L 325.722767 215.265147 
L 325.829922 215.128534 
L 325.833782 215.128534 
L 325.931718 215.020514 
L 326.042304 214.864838 
L 326.118672 214.756819 
L 326.228185 214.632913 
L 326.2296 214.632913 
L 326.327322 214.524894 
L 326.437308 214.372395 
L 326.438337 214.372395 
L 326.517063 214.264375 
L 326.626277 214.14047 
L 326.62782 214.14047 
L 326.700587 214.03245 
L 326.811644 213.854535 
L 326.896717 213.746515 
L 327.009532 213.590839 
L 327.089845 213.48282 
L 327.202832 213.323967 
L 327.278685 213.219124 
L 327.378851 213.076157 
L 327.389786 213.076157 
L 327.481033 212.968137 
L 327.58926 212.844232 
L 327.591447 212.844232 
L 327.707178 212.736212 
L 327.807987 212.558297 
L 327.81815 212.558297 
L 327.904466 212.450277 
L 328.012993 212.300955 
L 328.015223 212.300955 
L 328.081171 212.192935 
L 328.193815 212.065853 
L 328.270912 211.957833 
L 328.382013 211.827574 
L 328.440028 211.719554 
L 328.542939 211.598826 
L 328.5504 211.598826 
L 328.607901 211.490806 
L 328.720802 211.30336 
L 328.777188 211.19534 
L 328.885416 210.998363 
L 328.888074 210.998363 
L 328.938886 210.890343 
L 329.047928 210.693366 
L 329.049343 210.693366 
L 329.118079 210.585346 
L 329.228622 210.394723 
L 329.312665 210.286703 
L 329.423637 210.12785 
L 329.49726 210.01983 
L 329.607975 209.851446 
L 329.709256 209.743426 
L 329.822414 209.571865 
L 329.919193 209.463846 
L 330.027506 209.292285 
L 330.030207 209.292285 
L 330.102587 209.184265 
L 330.211286 209.044474 
L 330.212916 209.044474 
L 330.285811 208.939632 
L 330.395153 208.768071 
L 330.396354 208.768071 
L 330.499393 208.660051 
L 330.610193 208.523437 
L 330.610278 208.523437 
L 330.698095 208.415418 
L 330.807566 208.275627 
L 330.808509 208.275627 
L 330.88715 208.167607 
L 330.997436 207.989692 
L 330.997993 207.989692 
L 331.071145 207.881672 
L 331.177357 207.725997 
L 331.181645 207.725997 
L 331.268819 207.617977 
L 331.378761 207.443239 
L 331.379919 207.443239 
L 331.464177 207.338396 
L 331.574591 207.166835 
L 331.575234 207.166835 
L 331.647186 207.058815 
L 331.756099 206.899962 
L 331.757257 206.899962 
L 331.819346 206.791943 
L 331.928731 206.604496 
L 331.930103 206.604496 
L 332.007715 206.496477 
L 332.113927 206.359863 
L 332.118772 206.359863 
L 332.190166 206.251843 
L 332.299466 206.073928 
L 332.300838 206.073928 
L 332.363656 205.965908 
L 332.474713 205.775285 
L 332.571749 205.667265 
L 332.684779 205.498881 
L 332.746911 205.390862 
L 332.857197 205.244717 
L 332.858011 205.244717 
L 332.944971 205.136697 
L 333.05457 204.965136 
L 333.055856 204.965136 
L 333.136555 204.857116 
L 333.249113 204.714149 
L 333.315362 204.606129 
L 333.421917 204.409152 
L 333.425905 204.409152 
L 333.505489 204.301132 
L 333.61466 204.0978 
L 333.616418 204.0978 
L 333.691499 203.992958 
L 333.800756 203.824574 
L 333.802042 203.824574 
L 333.901822 203.716554 
L 334.010521 203.570409 
L 334.012794 203.570409 
L 334.070081 203.462389 
L 334.178222 203.309891 
L 334.181095 203.309891 
L 334.238339 203.201871 
L 334.343436 202.995362 
L 334.349396 202.995362 
L 334.443259 202.887343 
L 334.550715 202.744375 
L 334.554102 202.744375 
L 334.627083 202.636355 
L 334.737668 202.471148 
L 334.738183 202.471148 
L 334.842294 202.363129 
L 334.95125 202.175682 
L 334.953094 202.175682 
L 335.015998 202.067662 
L 335.129071 201.905633 
L 335.219975 201.797613 
L 335.333348 201.629229 
L 335.396209 201.524386 
L 335.505251 201.330586 
L 335.507266 201.330586 
L 335.565196 201.222566 
L 335.672309 201.047828 
L 335.676253 201.047828 
L 335.755023 200.939808 
L 335.864708 200.761893 
L 335.86608 200.761893 
L 335.943477 200.653873 
L 336.052734 200.475958 
L 336.054492 200.475958 
L 336.117224 200.367938 
L 336.227939 200.1932 
L 336.308594 200.08518 
L 336.417894 199.942213 
L 336.418966 199.942213 
L 336.494433 199.834193 
L 336.605405 199.659455 
L 336.605534 199.659455 
L 336.658575 199.551435 
L 336.770104 199.402114 
L 336.828549 199.294094 
L 336.941493 199.12571 
L 337.019791 199.01769 
L 337.129862 198.871546 
L 337.130762 198.871546 
L 337.215792 198.763526 
L 337.326763 198.550663 
L 337.394556 198.442643 
L 337.507114 198.280613 
L 337.596474 198.172593 
L 337.705817 197.969262 
L 337.707189 197.969262 
L 337.776139 197.861242 
L 337.888011 197.721452 
L 337.969781 197.613432 
L 338.079981 197.425986 
L 338.080882 197.425986 
L 338.178046 197.317966 
L 338.29129 197.117811 
L 338.357496 197.012969 
L 338.357496 197.009792 
L 338.470569 196.844585 
L 338.528242 196.736565 
L 338.635654 196.580889 
L 338.639299 196.580889 
L 338.711422 196.472869 
L 338.818706 196.294954 
L 338.821965 196.294954 
L 338.887913 196.186934 
L 338.99777 195.980426 
L 338.999013 195.980426 
L 339.049782 195.872406 
L 339.160282 195.704022 
L 339.237294 195.596002 
L 339.346636 195.392671 
L 339.348094 195.392671 
L 339.417901 195.284651 
L 339.520983 195.106736 
L 339.52883 195.106736 
L 339.585945 194.998716 
L 339.697003 194.833509 
L 339.746914 194.725489 
L 339.860973 194.496741 
L 339.939914 194.388721 
L 340.04827 194.2394 
L 340.049685 194.2394 
L 340.122237 194.13138 
L 340.232908 193.934403 
L 340.233337 193.934403 
L 340.295169 193.826383 
L 340.40151 193.619874 
L 340.405154 193.619874 
L 340.488297 193.511854 
L 340.598368 193.324408 
L 340.598626 193.324408 
L 340.652868 193.216388 
L 340.763411 193.006703 
L 340.763797 193.006703 
L 340.83592 192.898683 
L 340.941746 192.749361 
L 340.94672 192.749361 
L 341.006451 192.641341 
L 341.115364 192.447541 
L 341.116136 192.447541 
L 341.197735 192.339521 
L 341.308407 192.110773 
L 341.38366 192.002753 
L 341.494503 191.818484 
L 341.584678 191.710464 
L 341.692477 191.538903 
L 341.695221 191.538903 
L 341.755681 191.430884 
L 341.860092 191.29427 
L 341.866695 191.29427 
L 341.94718 191.18625 
L 342.061796 190.922555 
L 342.149055 190.814535 
L 342.258912 190.665213 
L 342.259341 190.665213 
L 342.349773 190.557194 
L 342.459244 190.401518 
L 342.45993 190.401518 
L 342.532654 190.293498 
L 342.643111 190.099698 
L 342.643754 190.099698 
L 342.707301 189.991678 
L 342.817201 189.839179 
L 342.818358 189.839179 
L 342.87989 189.731159 
L 342.988118 189.550067 
L 342.990733 189.550067 
L 343.08361 189.442047 
L 343.194667 189.295903 
L 343.258171 189.187883 
L 343.371716 189.000437 
L 343.442853 188.892417 
L 343.553353 188.701794 
L 343.55391 188.701794 
L 343.628734 188.593774 
L 343.739663 188.399974 
L 343.795363 188.291954 
L 343.905477 188.133101 
L 343.906121 188.133101 
L 343.954874 188.025081 
L 344.064903 187.850343 
L 344.065717 187.850343 
L 344.128578 187.742323 
L 344.239035 187.567585 
L 344.239421 187.567585 
L 344.317247 187.459565 
L 344.430106 187.310244 
L 344.502829 187.202224 
L 344.6123 186.995715 
L 344.613886 186.995715 
L 344.675118 186.887696 
L 344.786132 186.719312 
L 344.853968 186.611292 
L 344.96331 186.449262 
L 344.96451 186.449262 
L 345.039764 186.341242 
L 345.148677 186.131557 
L 345.149492 186.131557 
L 345.236837 186.023537 
L 345.347079 185.791612 
L 345.347594 185.791612 
L 345.414143 185.683592 
L 345.527387 185.508854 
L 345.600196 185.400834 
L 345.713183 185.235627 
L 345.804344 185.127607 
L 345.91523 184.959223 
L 345.915445 184.959223 
L 345.98701 184.851204 
L 346.093737 184.663757 
L 346.09811 184.663757 
L 346.17658 184.555737 
L 346.286908 184.333344 
L 346.394149 184.225324 
L 346.504735 184.021992 
L 346.505164 184.021992 
L 346.587363 183.913972 
L 346.697949 183.729703 
L 346.757851 183.621683 
L 346.868094 183.456477 
L 346.940989 183.348457 
L 347.050846 183.221375 
L 347.052003 183.221375 
L 347.115336 183.113355 
L 347.225064 182.922731 
L 347.225236 182.922731 
L 347.276862 182.814712 
L 347.387448 182.624088 
L 347.38792 182.624088 
L 347.439718 182.516068 
L 347.548031 182.350862 
L 347.550432 182.350862 
L 347.633532 182.242842 
L 347.743647 182.071281 
L 347.744075 182.071281 
L 347.832107 181.963261 
L 347.939005 181.769461 
L 347.943207 181.769461 
L 348.019103 181.661441 
L 348.127716 181.483526 
L 348.186418 181.375506 
L 348.29709 181.172174 
L 348.297518 181.172174 
L 348.369341 181.064154 
L 348.475982 180.898948 
L 348.478941 180.898948 
L 348.546733 180.790928 
L 348.657233 180.574888 
L 348.716835 180.466868 
L 348.827721 180.250828 
L 348.827935 180.250828 
L 348.886551 180.142809 
L 348.996108 179.980779 
L 348.996194 179.980779 
L 349.049536 179.872759 
L 349.15995 179.682136 
L 349.223068 179.574116 
L 349.333354 179.396201 
L 349.333911 179.396201 
L 349.382408 179.288181 
L 349.490592 179.040371 
L 349.493251 179.040371 
L 349.568804 178.932351 
L 349.677975 178.725842 
L 349.679047 178.725842 
L 349.752027 178.617822 
L 349.861069 178.379543 
L 349.863127 178.379543 
L 349.915054 178.271523 
L 350.024954 178.061838 
L 350.025812 178.061838 
L 350.087215 177.953818 
L 350.195485 177.782257 
L 350.197629 177.782257 
L 350.276398 177.674237 
L 350.386727 177.489968 
L 350.387456 177.489968 
L 350.470684 177.381948 
L 350.583971 177.162731 
L 350.650949 177.054712 
L 350.760248 176.829141 
L 350.825682 176.721121 
L 350.931036 176.530498 
L 350.936654 176.530498 
L 351.005518 176.422478 
L 351.114989 176.257271 
L 351.184539 176.149251 
L 351.298126 175.952274 
L 351.357085 175.844254 
L 351.46617 175.644099 
L 351.467842 175.644099 
L 351.531904 175.536079 
L 351.639574 175.307331 
L 351.643004 175.307331 
L 351.70415 175.199312 
L 351.812549 175.040459 
L 351.815208 175.040459 
L 351.867263 174.932439 
L 351.975019 174.760878 
L 351.978363 174.760878 
L 352.038909 174.652858 
L 352.149709 174.468589 
L 352.234653 174.360569 
L 352.343695 174.195362 
L 352.345153 174.195362 
L 352.412816 174.087343 
L 352.523188 173.925313 
L 352.523316 173.925313 
L 352.579617 173.817293 
L 352.692733 173.648909 
L 352.781536 173.540889 
L 352.891349 173.353443 
L 352.892593 173.353443 
L 352.960685 173.245423 
L 353.068956 173.023029 
L 353.070971 173.023029 
L 353.111277 172.915009 
L 353.220705 172.718032 
L 353.222378 172.718032 
L 353.291585 172.610012 
L 353.402085 172.393972 
L 353.402171 172.393972 
L 353.463145 172.285953 
L 353.574159 172.092152 
L 353.649799 171.984132 
L 353.760727 171.783978 
L 353.823503 171.675958 
L 353.933917 171.485335 
L 353.934217 171.485335 
L 354.019289 171.377315 
L 354.125544 171.205754 
L 354.130047 171.205754 
L 354.185104 171.097734 
L 354.295904 170.87534 
L 354.296118 170.87534 
L 354.34097 170.76732 
L 354.450527 170.525864 
L 354.451641 170.525864 
L 354.535771 170.417844 
L 354.646356 170.243106 
L 354.646828 170.243106 
L 354.702228 170.135087 
L 354.812299 169.96988 
L 354.8132 169.96988 
L 354.867485 169.86186 
L 354.976098 169.648997 
L 354.978028 169.648997 
L 355.029097 169.540977 
L 355.139082 169.347177 
L 355.139726 169.347177 
L 355.183634 169.239157 
L 355.294734 169.000878 
L 355.360983 168.892858 
L 355.474742 168.679996 
L 355.524739 168.571976 
L 355.635582 168.359113 
L 355.685022 168.251093 
L 355.792863 168.054116 
L 355.793249 168.054116 
L 355.850107 167.946096 
L 355.960607 167.739587 
L 356.024497 167.631568 
L 356.135555 167.447298 
L 356.192027 167.339279 
L 356.302183 167.110531 
L 356.303084 167.110531 
L 356.369461 167.002511 
L 356.480004 166.783294 
L 356.480175 166.783294 
L 356.536819 166.675274 
L 356.645432 166.462411 
L 356.647834 166.462411 
L 356.70259 166.354392 
L 356.812576 166.112935 
L 356.860172 166.004916 
L 356.966427 165.827001 
L 356.971101 165.827001 
L 357.036148 165.718981 
L 357.145362 165.537889 
L 357.146177 165.537889 
L 357.206551 165.429869 
L 357.315636 165.19159 
L 357.317351 165.19159 
L 357.379397 165.08357 
L 357.490498 164.857999 
L 357.564121 164.749979 
L 357.671663 164.486284 
L 357.674107 164.486284 
L 357.731265 164.378264 
L 357.84155 164.13363 
L 357.842022 164.13363 
L 357.886574 164.025611 
L 357.994415 163.733322 
L 357.995316 163.733322 
L 358.071941 163.625302 
L 358.182913 163.393377 
L 358.223048 163.285357 
L 358.332947 163.047078 
L 358.333076 163.047078 
L 358.38839 162.939058 
L 358.498933 162.757966 
L 358.552704 162.649946 
L 358.661574 162.427552 
L 358.662903 162.427552 
L 358.708355 162.319532 
L 358.818427 162.113024 
L 358.81877 162.113024 
L 358.875027 162.005004 
L 358.989172 161.760371 
L 359.048731 161.655528 
L 359.158674 161.37277 
L 359.159403 161.37277 
L 359.215189 161.26475 
L 359.325517 161.042356 
L 359.376458 160.937514 
L 359.4849 160.686526 
L 359.487129 160.686526 
L 359.553549 160.578506 
L 359.662549 160.387883 
L 359.664092 160.387883 
L 359.708044 160.279863 
L 359.818372 160.016168 
L 359.818801 160.016168 
L 359.864596 159.908148 
L 359.974624 159.692108 
L 359.975567 159.692108 
L 360.02132 159.584088 
L 360.131691 159.368049 
L 360.202699 159.260029 
L 360.311398 159.040812 
L 360.313799 159.040812 
L 360.36564 158.932792 
L 360.476569 158.707221 
L 360.525752 158.599201 
L 360.636166 158.313266 
L 360.636809 158.313266 
L 360.69088 158.205247 
L 360.800522 157.897072 
L 360.801937 157.897072 
L 360.867757 157.789052 
L 360.978557 157.557127 
L 361.02268 157.449108 
L 361.132451 157.217183 
L 361.133566 157.217183 
L 361.174473 157.11234 
L 361.28553 156.902654 
L 361.335056 156.794634 
L 361.445984 156.559532 
L 361.506058 156.451512 
L 361.616901 156.248181 
L 361.659695 156.140161 
L 361.770581 155.885997 
L 361.818091 155.777977 
L 361.926876 155.552406 
L 361.929191 155.552406 
L 361.986264 155.444386 
L 362.096678 155.209284 
L 362.097064 155.209284 
L 362.157223 155.101264 
L 362.267509 154.805798 
L 362.267981 154.805798 
L 362.318064 154.697778 
L 362.425905 154.41502 
L 362.428821 154.41502 
L 362.490953 154.307001 
L 362.605827 154.02742 
L 362.65308 153.9194 
L 362.762379 153.639819 
L 362.76418 153.639819 
L 362.804958 153.531799 
L 362.915029 153.309405 
L 362.91593 153.309405 
L 362.970644 153.201386 
L 363.079943 152.944044 
L 363.081701 152.944044 
L 363.118663 152.836024 
L 363.228649 152.578683 
L 363.275987 152.470663 
L 363.389703 152.17202 
L 363.438628 152.064 
L 363.548743 151.800304 
L 363.605515 151.692285 
L 363.716272 151.444474 
L 363.716486 151.444474 
L 363.756235 151.336454 
L 363.864591 151.05052 
L 363.865878 151.05052 
L 363.91952 150.9425 
L 364.030363 150.675627 
L 364.030491 150.675627 
L 364.078045 150.567607 
L 364.187473 150.307089 
L 364.188802 150.307089 
L 364.233439 150.199069 
L 364.342524 149.96079 
L 364.344368 149.96079 
L 364.387376 149.85277 
L 364.50538 149.598606 
L 364.548731 149.490586 
L 364.658373 149.261838 
L 364.659617 149.261838 
L 364.717761 149.153818 
L 364.828818 148.8933 
L 364.871312 148.78528 
L 364.981769 148.540646 
L 364.982283 148.540646 
L 365.020274 148.432627 
L 365.131032 148.207056 
L 365.131375 148.207056 
L 365.188061 148.099036 
L 365.29899 147.78133 
L 365.299076 147.78133 
L 365.335823 147.673311 
L 365.445894 147.415969 
L 365.446623 147.415969 
L 365.491432 147.307949 
L 365.600303 147.082378 
L 365.602447 147.082378 
L 365.645026 146.974359 
L 365.75514 146.71384 
L 365.75574 146.71384 
L 365.821431 146.60582 
L 365.935276 146.307177 
L 365.982872 146.199157 
L 366.092428 145.868744 
L 366.093715 145.868744 
L 366.151216 145.760724 
L 366.259958 145.439841 
L 366.262016 145.439841 
L 366.312142 145.331821 
L 366.422042 145.058595 
L 366.423199 145.058595 
L 366.467108 144.950575 
L 366.576278 144.626515 
L 366.578122 144.626515 
L 366.626662 144.518495 
L 366.737462 144.267508 
L 366.737676 144.267508 
L 366.770007 144.159488 
L 366.873561 143.902147 
L 366.880979 143.902147 
L 366.912324 143.794127 
L 367.023209 143.5209 
L 367.057427 143.41288 
L 367.167541 143.171424 
L 367.168484 143.171424 
L 367.239192 143.063404 
L 367.349864 142.780646 
L 367.350207 142.780646 
L 367.398275 142.672627 
L 367.50856 142.393046 
L 367.508732 142.393046 
L 367.554441 142.288203 
L 367.660739 142.046747 
L 367.665498 142.046747 
L 367.711851 141.941904 
L 367.822051 141.68774 
L 367.865916 141.57972 
L 367.980833 141.274723 
L 368.023841 141.166703 
L 368.134555 140.89983 
L 368.181765 140.79181 
L 368.292094 140.502698 
L 368.292865 140.502698 
L 368.342477 140.394678 
L 368.450747 140.121452 
L 368.452119 140.121452 
L 368.49234 140.013432 
L 368.60254 139.702081 
L 368.603397 139.702081 
L 368.640359 139.594061 
L 368.755019 139.324011 
L 368.795711 139.215991 
L 368.90604 138.895109 
L 368.90664 138.895109 
L 368.941029 138.787089 
L 369.047841 138.520216 
L 369.051057 138.520216 
L 369.093122 138.412196 
L 369.204136 138.158032 
L 369.250746 138.050012 
L 369.360346 137.748192 
L 369.361289 137.748192 
L 369.405326 137.640172 
L 369.516298 137.40507 
L 369.516383 137.40507 
L 369.55952 137.29705 
L 369.669677 137.017469 
L 369.670406 137.017469 
L 369.71783 136.90945 
L 369.82833 136.636223 
L 369.87091 136.528203 
L 369.981667 136.185081 
L 370.011811 136.077061 
L 370.122482 135.730762 
L 370.160988 135.622742 
L 370.271702 135.374932 
L 370.319942 135.266912 
L 370.429927 135.00004 
L 370.431042 135.00004 
L 370.466975 134.89202 
L 370.577775 134.555252 
L 370.621855 134.447232 
L 370.732741 134.205776 
L 370.732955 134.205776 
L 370.778836 134.097756 
L 370.893538 133.82453 
L 370.939762 133.71651 
L 371.04636 133.433752 
L 371.049533 133.433752 
L 371.101503 133.325732 
L 371.210545 133.030266 
L 371.21226 133.030266 
L 371.267188 132.922246 
L 371.371771 132.668082 
L 371.378288 132.668082 
L 371.422154 132.560062 
L 371.532525 132.258242 
L 371.571974 132.150222 
L 371.682989 131.845224 
L 371.720122 131.737205 
L 371.82955 131.441739 
L 371.830837 131.441739 
L 371.883407 131.333719 
L 371.993135 131.104971 
L 371.993392 131.104971 
L 372.032541 130.996951 
L 372.140211 130.701485 
L 372.14347 130.701485 
L 372.19664 130.593465 
L 372.307397 130.320238 
L 372.352463 130.212218 
L 372.468409 129.850034 
L 372.51802 129.742014 
L 372.628949 129.402069 
L 372.629035 129.402069 
L 372.674315 129.29405 
L 372.783658 128.944574 
L 372.785287 128.944574 
L 372.816374 128.836554 
L 372.92726 128.518848 
L 372.927346 128.518848 
L 372.964908 128.410828 
L 373.07558 128.159841 
L 373.075709 128.159841 
L 373.107954 128.051821 
L 373.218154 127.800834 
L 373.218754 127.800834 
L 373.264206 127.692814 
L 373.374106 127.387817 
L 373.374406 127.387817 
L 373.431564 127.279797 
L 373.542107 126.981154 
L 373.542535 126.981154 
L 373.584043 126.873134 
L 373.693213 126.622147 
L 373.694886 126.622147 
L 373.740809 126.514127 
L 373.847236 126.215484 
L 373.850323 126.215484 
L 373.89689 126.107464 
L 374.007733 125.811998 
L 374.041522 125.703978 
L 374.152494 125.395804 
L 374.199747 125.287784 
L 374.310847 124.995495 
L 374.349095 124.887475 
L 374.459809 124.51576 
L 374.508949 124.40774 
L 374.619921 124.131336 
L 374.666488 124.023316 
L 374.776559 123.788214 
L 374.777416 123.788214 
L 374.836847 123.680194 
L 374.946318 123.378374 
L 374.947947 123.378374 
L 375.062478 123.060669 
L 375.1048 122.952649 
L 375.218001 122.717547 
L 375.260023 122.612704 
L 375.369279 122.320415 
L 375.370394 122.320415 
L 375.413145 122.212395 
L 375.523988 121.920106 
L 375.569697 121.812086 
L 375.679254 121.500735 
L 375.680798 121.500735 
L 375.722519 121.392715 
L 375.829374 121.132196 
L 375.833191 121.132196 
L 375.883145 121.024177 
L 375.994031 120.766835 
L 375.994245 120.766835 
L 376.042699 120.658815 
L 376.16349 120.296631 
L 376.210829 120.188611 
L 376.321843 119.889968 
L 376.321886 119.889968 
L 376.373213 119.781948 
L 376.484056 119.435649 
L 376.48427 119.435649 
L 376.538041 119.327629 
L 376.647554 119.03534 
L 376.649055 119.03534 
L 376.698495 118.92732 
L 376.808566 118.669979 
L 376.809595 118.669979 
L 376.856677 118.561959 
L 376.964732 118.282378 
L 376.96752 118.282378 
L 377.007097 118.174359 
L 377.113266 117.939256 
L 377.117383 117.939256 
L 377.163392 117.831237 
L 377.278523 117.500823 
L 377.331608 117.392803 
L 377.441593 117.090983 
L 377.442365 117.090983 
L 377.476668 116.982963 
L 377.585968 116.71609 
L 377.587597 116.71609 
L 377.642526 116.608071 
L 377.752125 116.30625 
L 377.753583 116.30625 
L 377.79569 116.198231 
L 377.905204 115.956774 
L 377.906533 115.956774 
L 377.93835 115.848755 
L 378.045162 115.572351 
L 378.04825 115.572351 
L 378.091815 115.464331 
L 378.206646 115.181573 
L 378.251026 115.073553 
L 378.359982 114.841628 
L 378.361569 114.841628 
L 378.400503 114.733608 
L 378.511132 114.469913 
L 378.511518 114.469913 
L 378.56263 114.361893 
L 378.673558 114.088666 
L 378.67373 114.088666 
L 378.730974 113.980646 
L 378.839287 113.710597 
L 378.84053 113.710597 
L 378.899404 113.605754 
L 379.010375 113.357944 
L 379.058357 113.249924 
L 379.167185 113.017999 
L 379.169415 113.017999 
L 379.226658 112.909979 
L 379.336558 112.658992 
L 379.337673 112.658992 
L 379.390758 112.550972 
L 379.501 112.306339 
L 379.5561 112.198319 
L 379.660511 111.896499 
L 379.666514 111.896499 
L 379.706521 111.788479 
L 379.821394 111.505721 
L 379.857499 111.397701 
L 379.965812 111.11812 
L 379.967913 111.11812 
L 379.997757 111.0101 
L 380.108 110.736874 
L 380.108171 110.736874 
L 380.156625 110.628854 
L 380.265281 110.355627 
L 380.267082 110.355627 
L 380.306402 110.247607 
L 380.414801 109.990266 
L 380.415401 109.990266 
L 380.467585 109.882246 
L 380.577228 109.577249 
L 380.578214 109.577249 
L 380.639917 109.469229 
L 380.745486 109.26272 
L 380.750975 109.26272 
L 380.798185 109.1547 
L 380.909028 108.840172 
L 380.961684 108.732152 
L 381.072741 108.468457 
L 381.120895 108.360437 
L 381.239156 108.080856 
L 381.295842 107.972836 
L 381.406385 107.683724 
L 381.406942 107.683724 
L 381.45754 107.575704 
L 381.565639 107.242114 
L 381.567611 107.242114 
L 381.622754 107.134094 
L 381.730338 106.879929 
L 381.733854 106.879929 
L 381.797659 106.77191 
L 381.908587 106.463735 
L 381.908716 106.463735 
L 381.942891 106.355715 
L 382.04876 106.120613 
L 382.053991 106.120613 
L 382.092582 106.012593 
L 382.203211 105.758429 
L 382.25085 105.650409 
L 382.359377 105.43437 
L 382.360364 105.43437 
L 382.400799 105.32635 
L 382.510227 105.027707 
L 382.555893 104.919687 
L 382.665021 104.668699 
L 382.666822 104.668699 
L 382.716648 104.56068 
L 382.827105 104.296984 
L 382.827491 104.296984 
L 382.875987 104.188964 
L 382.986959 103.91256 
L 383.048705 103.804541 
L 383.159334 103.528137 
L 383.210188 103.420117 
L 383.321246 103.162776 
L 383.39324 103.054756 
L 383.507085 102.826008 
L 383.554038 102.721165 
L 383.664838 102.457469 
L 383.732244 102.34945 
L 383.843344 102.057161 
L 383.888668 101.949141 
L 383.996681 101.720393 
L 383.999382 101.720393 
L 384.060914 101.612373 
L 384.171285 101.374094 
L 384.171714 101.374094 
L 384.227629 101.266074 
L 384.338386 101.024618 
L 384.399189 100.916598 
L 384.508102 100.700558 
L 384.510117 100.700558 
L 384.566632 100.592538 
L 384.677389 100.341551 
L 384.733261 100.233531 
L 384.841832 99.979367 
L 384.843332 99.979367 
L 384.895131 99.871347 
L 385.005416 99.62036 
L 385.005931 99.62036 
L 385.054684 99.51234 
L 385.165142 99.235936 
L 385.217926 99.127916 
L 385.328769 98.880106 
L 385.328898 98.880106 
L 385.394932 98.772086 
L 385.505517 98.527453 
L 385.506032 98.527453 
L 385.549855 98.419433 
L 385.659325 98.187508 
L 385.660826 98.187508 
L 385.702162 98.079488 
L 385.810304 97.869803 
L 385.81249 97.869803 
L 385.878224 97.761783 
L 385.988853 97.545743 
L 385.989196 97.545743 
L 386.033662 97.437723 
L 386.144419 97.237569 
L 386.195574 97.129549 
L 386.30616 96.929394 
L 386.358044 96.821375 
L 386.469144 96.554502 
L 386.532091 96.446482 
L 386.640833 96.26539 
L 386.643105 96.26539 
L 386.688257 96.15737 
L 386.796527 95.906383 
L 386.799186 95.906383 
L 386.849398 95.798363 
L 386.964228 95.518782 
L 387.019929 95.410762 
L 387.129314 95.178837 
L 387.1306 95.178837 
L 387.192561 95.070817 
L 387.303532 94.87384 
L 387.36039 94.76582 
L 387.470762 94.565666 
L 387.523546 94.457646 
L 387.634003 94.24796 
L 387.634389 94.24796 
L 387.672637 94.13994 
L 387.78228 93.936609 
L 387.783652 93.936609 
L 387.838323 93.828589 
L 387.948137 93.679268 
L 387.949423 93.679268 
L 388.00954 93.571248 
L 388.120211 93.348854 
L 388.166307 93.240834 
L 388.276335 93.053388 
L 388.277107 93.053388 
L 388.334694 92.945368 
L 388.443221 92.751568 
L 388.444207 92.751568 
L 388.500422 92.643548 
L 388.610279 92.449747 
L 388.655817 92.341728 
L 388.764773 92.135219 
L 388.766831 92.135219 
L 388.826862 92.027199 
L 388.937662 91.814336 
L 388.99898 91.706317 
L 389.108794 91.496631 
L 389.10978 91.496631 
L 389.168482 91.388611 
L 389.282584 91.166217 
L 389.345273 91.058197 
L 389.459203 90.819918 
L 389.518291 90.711899 
L 389.633036 90.438672 
L 389.67956 90.330652 
L 389.790489 90.155914 
L 389.852106 90.047894 
L 389.962864 89.87951 
L 390.020236 89.77149 
L 390.130908 89.593575 
L 390.189309 89.485555 
L 390.301653 89.266339 
L 390.363828 89.158319 
L 390.474071 88.958164 
L 390.520723 88.850145 
L 390.630452 88.602334 
L 390.630752 88.602334 
L 390.707548 88.494314 
L 390.818048 88.287806 
L 390.818263 88.287806 
L 390.885069 88.179786 
L 390.995998 87.976454 
L 391.071122 87.868435 
L 391.179307 87.658749 
L 391.181365 87.658749 
L 391.237965 87.550729 
L 391.348208 87.379168 
L 391.349066 87.379168 
L 391.393489 87.271148 
L 391.503388 87.080525 
L 391.566378 86.972505 
L 391.677135 86.696101 
L 391.749944 86.591259 
L 391.749944 86.588082 
L 391.86306 86.365688 
L 391.929823 86.257668 
L 392.033848 86.051159 
L 392.039594 86.051159 
L 392.099196 85.94314 
L 392.210168 85.723923 
L 392.292582 85.615903 
L 392.403382 85.437988 
L 392.475076 85.329968 
L 392.582703 85.142522 
L 392.585362 85.142522 
L 392.637117 85.034502 
L 392.74453 84.812108 
L 392.748174 84.812108 
L 392.811293 84.704088 
L 392.920849 84.526173 
L 392.921578 84.526173 
L 392.997389 84.418153 
L 393.106388 84.256124 
L 393.108489 84.256124 
L 393.156557 84.148104 
L 393.266971 83.893939 
L 393.339737 83.785919 
L 393.450409 83.614359 
L 393.517858 83.506339 
L 393.626943 83.29983 
L 393.628658 83.29983 
L 393.691862 83.19181 
L 393.802576 83.023426 
L 393.802834 83.023426 
L 393.865866 82.915407 
L 393.976495 82.734314 
L 394.024177 82.626295 
L 394.13472 82.461088 
L 394.220907 82.353068 
L 394.331536 82.137028 
L 394.331707 82.137028 
L 394.409319 82.029008 
L 394.516774 81.847916 
L 394.520376 81.847916 
L 394.587868 81.739896 
L 394.696481 81.527034 
L 394.698411 81.527034 
L 394.759385 81.419014 
L 394.869113 81.193443 
L 394.869714 81.193443 
L 394.945224 81.085423 
L 395.052508 80.917039 
L 395.056239 80.917039 
L 395.117685 80.809019 
L 395.226341 80.583448 
L 395.226598 80.583448 
L 395.286286 80.475429 
L 395.397215 80.291159 
L 395.446526 80.18314 
L 395.553253 79.995693 
L 395.557455 79.995693 
L 395.631422 79.887673 
L 395.744494 79.716113 
L 395.829138 79.608093 
L 395.942682 79.414292 
L 396.000398 79.306272 
L 396.109654 79.064816 
L 396.110555 79.064816 
L 396.177404 78.956796 
L 396.288204 78.734403 
L 396.386183 78.626383 
L 396.495825 78.43576 
L 396.496297 78.43576 
L 396.5583 78.32774 
L 396.669358 78.108523 
L 396.729475 78.000503 
L 396.839503 77.844827 
L 396.891516 77.736808 
L 397.001287 77.523945 
L 397.002101 77.523945 
L 397.074053 77.415925 
L 397.178421 77.222125 
L 397.185067 77.222125 
L 397.24021 77.114105 
L 397.350667 76.920304 
L 397.427678 76.812285 
L 397.537621 76.63437 
L 397.588519 76.52635 
L 397.702106 76.297602 
L 397.754376 76.189582 
L 397.863246 75.983073 
L 397.865004 75.983073 
L 397.936313 75.875054 
L 398.039094 75.709847 
L 398.046255 75.709847 
L 398.100154 75.601827 
L 398.214256 75.373079 
L 398.305075 75.265059 
L 398.418147 75.099852 
L 398.493186 74.995009 
L 398.604158 74.807563 
L 398.66629 74.699543 
L 398.776876 74.556576 
L 398.85929 74.448556 
L 398.970304 74.270641 
L 399.025618 74.162621 
L 399.13599 73.956113 
L 399.217332 73.848093 
L 399.328389 73.676532 
L 399.405743 73.568512 
L 399.514442 73.349295 
L 399.516286 73.349295 
L 399.562339 73.241275 
L 399.673096 73.044298 
L 399.730468 72.936278 
L 399.840582 72.783779 
L 399.841011 72.783779 
L 399.901171 72.67576 
L 400.012271 72.526438 
L 400.075475 72.418418 
L 400.183617 72.208732 
L 400.244034 72.100713 
L 400.354834 71.862434 
L 400.416537 71.754414 
L 400.524379 71.582853 
L 400.527595 71.582853 
L 400.613911 71.474833 
L 400.723596 71.293741 
L 400.725011 71.293741 
L 400.78963 71.185721 
L 400.887266 71.033222 
L 400.899015 71.033222 
L 400.952571 70.925202 
L 401.062728 70.737756 
L 401.125718 70.629736 
L 401.23566 70.426405 
L 401.308469 70.318385 
L 401.418455 70.124585 
L 401.501684 70.016565 
L 401.607939 69.806879 
L 401.611626 69.806879 
L 401.692111 69.698859 
L 401.802954 69.549538 
L 401.868216 69.441518 
L 401.979187 69.269957 
L 401.979273 69.269957 
L 402.052897 69.161937 
L 402.161682 69.015793 
L 402.163611 69.015793 
L 402.238693 68.907773 
L 402.347349 68.764805 
L 402.434308 68.656785 
L 402.540392 68.513818 
L 402.544337 68.513818 
L 402.611314 68.405798 
L 402.722157 68.205644 
L 402.789049 68.097624 
L 402.897362 67.903823 
L 402.899334 67.903823 
L 402.982006 67.795804 
L 403.091648 67.630597 
L 403.092634 67.630597 
L 403.171747 67.522577 
L 403.281689 67.389141 
L 403.28259 67.389141 
L 403.383613 67.281121 
L 403.493256 67.090498 
L 403.572625 66.982478 
L 403.681882 66.842687 
L 403.683725 66.842687 
L 403.770642 66.737844 
L 403.878398 66.610762 
L 403.881399 66.610762 
L 403.941001 66.502742 
L 404.046913 66.302588 
L 404.047428 66.302588 
L 404.138503 66.194568 
L 404.244758 65.997591 
L 404.248789 65.997591 
L 404.354358 65.889571 
L 404.465415 65.74978 
L 404.535566 65.641761 
L 404.642335 65.476554 
L 404.646494 65.476554 
L 404.7407 65.368534 
L 404.850085 65.235098 
L 404.851329 65.235098 
L 404.908315 65.127078 
L 405.019416 64.961871 
L 405.109462 64.853851 
L 405.219834 64.698175 
L 405.30229 64.590156 
L 405.406744 64.459896 
L 405.410475 64.459896 
L 405.513085 64.351876 
L 405.62187 64.21844 
L 405.622813 64.21844 
L 405.733185 64.11042 
L 405.84034 64.005577 
L 405.843599 64.005577 
L 405.936775 63.897558 
L 406.046375 63.741882 
L 406.136422 63.633862 
L 406.246021 63.50678 
L 406.247264 63.50678 
L 406.328735 63.39876 
L 406.435419 63.185897 
L 406.438592 63.185897 
L 406.537043 63.081055 
L 406.644498 62.973035 
L 406.646942 62.973035 
L 406.738661 62.865015 
L 406.851691 62.699808 
L 406.953358 62.591788 
L 407.064201 62.477414 
L 407.187222 62.369394 
L 407.283357 62.258197 
L 407.288245 62.258197 
L 407.369973 62.150178 
L 407.476657 62.016741 
L 407.479444 62.016741 
L 407.579867 61.908721 
L 407.689381 61.762577 
L 407.782515 61.654557 
L 407.889799 61.508413 
L 407.892715 61.508413 
L 407.966253 61.400393 
L 408.074051 61.247894 
L 408.074737 61.247894 
L 408.153121 61.139874 
L 408.259976 61.012792 
L 408.332356 60.904772 
L 408.442985 60.764982 
L 408.538734 60.656962 
L 408.649063 60.510817 
L 408.725302 60.402798 
L 408.834516 60.247122 
L 408.928207 60.139102 
L 409.038707 59.983426 
L 409.039264 59.983426 
L 409.115289 59.875407 
L 409.226261 59.729262 
L 409.306017 59.621242 
L 409.414887 59.516399 
L 409.416688 59.516399 
L 409.52573 59.408379 
L 409.632199 59.303537 
L 409.721217 59.195517 
L 409.830044 59.097028 
L 409.831931 59.097028 
L 409.928581 58.989008 
L 410.039124 58.877811 
L 410.161073 58.769792 
L 410.270372 58.642709 
L 410.335206 58.534689 
L 410.439059 58.442555 
L 410.446006 58.442555 
L 410.54064 58.334535 
L 410.651226 58.255109 
L 410.651612 58.255109 
L 410.776391 58.147089 
L 410.883117 58.032715 
L 410.887319 58.032715 
L 411.029764 57.924695 
L 411.137434 57.807144 
L 411.140865 57.807144 
L 411.218905 57.699124 
L 411.327475 57.575219 
L 411.328076 57.575219 
L 411.469106 57.467199 
L 411.579649 57.356002 
L 411.579734 57.356002 
L 411.699711 57.247982 
L 411.80708 57.146317 
L 411.95197 57.038297 
L 412.061612 56.933454 
L 412.062898 56.933454 
L 412.195996 56.825434 
L 412.305081 56.717414 
L 412.442595 56.609394 
L 412.547006 56.498197 
L 412.551165 56.498197 
L 412.693824 56.390178 
L 412.802009 56.259918 
L 412.916625 56.151899 
L 413.025967 56.024816 
L 413.126434 55.916796 
L 413.234104 55.78336 
L 413.234275 55.78336 
L 413.331354 55.67534 
L 413.442197 55.564143 
L 413.554798 55.456124 
L 413.664998 55.31951 
L 413.665555 55.31951 
L 413.776527 55.21149 
L 413.88321 55.090762 
L 413.885397 55.090762 
L 413.985006 54.982742 
L 414.095978 54.820713 
L 414.194557 54.712693 
L 414.293565 54.569725 
L 414.300598 54.569725 
L 414.406338 54.461705 
L 414.51255 54.344154 
L 414.61143 54.236135 
L 414.70525 54.144 
L 414.72 54.144 
" clip-path="url(#p79e313e22b)" style="fill: none; stroke: #ff8c00; stroke-width: 1.5; stroke-linecap: square"/>
   </g>
   <g id="line2d_14">
    <path d="M 74.605714 307.584 
L 414.72 54.144 
" clip-path="url(#p79e313e22b)" style="fill: none; stroke-dasharray: 5.55,2.4; stroke-dashoffset: 0; stroke: #0000ff; stroke-width: 1.5"/>
   </g>
   <g id="patch_3">
    <path d="M 57.6 307.584 
L 57.6 41.472 
" style="fill: none; stroke: #000000; stroke-width: 0.8; stroke-linejoin: miter; stroke-linecap: square"/>
   </g>
   <g id="patch_4">
    <path d="M 414.72 307.584 
L 414.72 41.472 
" style="fill: none; stroke: #000000; stroke-width: 0.8; stroke-linejoin: miter; stroke-linecap: square"/>
   </g>
   <g id="patch_5">
    <path d="M 57.6 307.584 
L 414.72 307.584 
" style="fill: none; stroke: #000000; stroke-width: 0.8; stroke-linejoin: miter; stroke-linecap: square"/>
   </g>
   <g id="patch_6">
    <path d="M 57.6 41.472 
L 414.72 41.472 
" style="fill: none; stroke: #000000; stroke-width: 0.8; stroke-linejoin: miter; stroke-linecap: square"/>
   </g>
   <g id="text_15">
    <!-- ROC CURVE -->
    <g transform="translate(200.855625 35.472)scale(0.12 -0.12)">
     <defs>
      <path id="DejaVuSans-4f" d="M 2522 4238 
Q 1834 4238 1429 3725 
Q 1025 3213 1025 2328 
Q 1025 1447 1429 934 
Q 1834 422 2522 422 
Q 3209 422 3611 934 
Q 4013 1447 4013 2328 
Q 4013 3213 3611 3725 
Q 3209 4238 2522 4238 
z
M 2522 4750 
Q 3503 4750 4090 4092 
Q 4678 3434 4678 2328 
Q 4678 1225 4090 567 
Q 3503 -91 2522 -91 
Q 1538 -91 948 565 
Q 359 1222 359 2328 
Q 359 3434 948 4092 
Q 1538 4750 2522 4750 
z
" transform="scale(0.015625)"/>
      <path id="DejaVuSans-43" d="M 4122 4306 
L 4122 3641 
Q 3803 3938 3442 4084 
Q 3081 4231 2675 4231 
Q 1875 4231 1450 3742 
Q 1025 3253 1025 2328 
Q 1025 1406 1450 917 
Q 1875 428 2675 428 
Q 3081 428 3442 575 
Q 3803 722 4122 1019 
L 4122 359 
Q 3791 134 3420 21 
Q 3050 -91 2638 -91 
Q 1578 -91 968 557 
Q 359 1206 359 2328 
Q 359 3453 968 4101 
Q 1578 4750 2638 4750 
Q 3056 4750 3426 4639 
Q 3797 4528 4122 4306 
z
" transform="scale(0.015625)"/>
      <path id="DejaVuSans-55" d="M 556 4666 
L 1191 4666 
L 1191 1831 
Q 1191 1081 1462 751 
Q 1734 422 2344 422 
Q 2950 422 3222 751 
Q 3494 1081 3494 1831 
L 3494 4666 
L 4128 4666 
L 4128 1753 
Q 4128 841 3676 375 
Q 3225 -91 2344 -91 
Q 1459 -91 1007 375 
Q 556 841 556 1753 
L 556 4666 
z
" transform="scale(0.015625)"/>
      <path id="DejaVuSans-56" d="M 1831 0 
L 50 4666 
L 709 4666 
L 2188 738 
L 3669 4666 
L 4325 4666 
L 2547 0 
L 1831 0 
z
" transform="scale(0.015625)"/>
      <path id="DejaVuSans-45" d="M 628 4666 
L 3578 4666 
L 3578 4134 
L 1259 4134 
L 1259 2753 
L 3481 2753 
L 3481 2222 
L 1259 2222 
L 1259 531 
L 3634 531 
L 3634 0 
L 628 0 
L 628 4666 
z
" transform="scale(0.015625)"/>
     </defs>
     <use xlink:href="#DejaVuSans-52"/>
     <use xlink:href="#DejaVuSans-4f" x="69.482422"/>
     <use xlink:href="#DejaVuSans-43" x="148.193359"/>
     <use xlink:href="#DejaVuSans-20" x="218.017578"/>
     <use xlink:href="#DejaVuSans-43" x="249.804688"/>
     <use xlink:href="#DejaVuSans-55" x="319.628906"/>
     <use xlink:href="#DejaVuSans-52" x="392.822266"/>
     <use xlink:href="#DejaVuSans-56" x="456.804688"/>
     <use xlink:href="#DejaVuSans-45" x="525.212891"/>
    </g>
   </g>
   <g id="legend_1">
    <g id="patch_7">
     <path d="M 234.97 302.584 
L 407.72 302.584 
Q 409.72 302.584 409.72 300.584 
L 409.72 286.905875 
Q 409.72 284.905875 407.72 284.905875 
L 234.97 284.905875 
Q 232.97 284.905875 232.97 286.905875 
L 232.97 300.584 
Q 232.97 302.584 234.97 302.584 
z
" style="fill: #ffffff; opacity: 0.8; stroke: #cccccc; stroke-linejoin: miter"/>
    </g>
    <g id="line2d_15">
     <path d="M 236.97 293.004312 
L 246.97 293.004312 
L 256.97 293.004312 
" style="fill: none; stroke: #ff8c00; stroke-width: 1.5; stroke-linecap: square"/>
    </g>
    <g id="text_16">
     <!-- ROC curve (ROC AUC=0.29) -->
     <g transform="translate(264.97 296.504312)scale(0.1 -0.1)">
      <defs>
       <path id="DejaVuSans-63" d="M 3122 3366 
L 3122 2828 
Q 2878 2963 2633 3030 
Q 2388 3097 2138 3097 
Q 1578 3097 1268 2742 
Q 959 2388 959 1747 
Q 959 1106 1268 751 
Q 1578 397 2138 397 
Q 2388 397 2633 464 
Q 2878 531 3122 666 
L 3122 134 
Q 2881 22 2623 -34 
Q 2366 -91 2075 -91 
Q 1284 -91 818 406 
Q 353 903 353 1747 
Q 353 2603 823 3093 
Q 1294 3584 2113 3584 
Q 2378 3584 2631 3529 
Q 2884 3475 3122 3366 
z
" transform="scale(0.015625)"/>
       <path id="DejaVuSans-28" d="M 1984 4856 
Q 1566 4138 1362 3434 
Q 1159 2731 1159 2009 
Q 1159 1288 1364 580 
Q 1569 -128 1984 -844 
L 1484 -844 
Q 1016 -109 783 600 
Q 550 1309 550 2009 
Q 550 2706 781 3412 
Q 1013 4119 1484 4856 
L 1984 4856 
z
" transform="scale(0.015625)"/>
       <path id="DejaVuSans-41" d="M 2188 4044 
L 1331 1722 
L 3047 1722 
L 2188 4044 
z
M 1831 4666 
L 2547 4666 
L 4325 0 
L 3669 0 
L 3244 1197 
L 1141 1197 
L 716 0 
L 50 0 
L 1831 4666 
z
" transform="scale(0.015625)"/>
       <path id="DejaVuSans-3d" d="M 678 2906 
L 4684 2906 
L 4684 2381 
L 678 2381 
L 678 2906 
z
M 678 1631 
L 4684 1631 
L 4684 1100 
L 678 1100 
L 678 1631 
z
" transform="scale(0.015625)"/>
       <path id="DejaVuSans-39" d="M 703 97 
L 703 672 
Q 941 559 1184 500 
Q 1428 441 1663 441 
Q 2288 441 2617 861 
Q 2947 1281 2994 2138 
Q 2813 1869 2534 1725 
Q 2256 1581 1919 1581 
Q 1219 1581 811 2004 
Q 403 2428 403 3163 
Q 403 3881 828 4315 
Q 1253 4750 1959 4750 
Q 2769 4750 3195 4129 
Q 3622 3509 3622 2328 
Q 3622 1225 3098 567 
Q 2575 -91 1691 -91 
Q 1453 -91 1209 -44 
Q 966 3 703 97 
z
M 1959 2075 
Q 2384 2075 2632 2365 
Q 2881 2656 2881 3163 
Q 2881 3666 2632 3958 
Q 2384 4250 1959 4250 
Q 1534 4250 1286 3958 
Q 1038 3666 1038 3163 
Q 1038 2656 1286 2365 
Q 1534 2075 1959 2075 
z
" transform="scale(0.015625)"/>
       <path id="DejaVuSans-29" d="M 513 4856 
L 1013 4856 
Q 1481 4119 1714 3412 
Q 1947 2706 1947 2009 
Q 1947 1309 1714 600 
Q 1481 -109 1013 -844 
L 513 -844 
Q 928 -128 1133 580 
Q 1338 1288 1338 2009 
Q 1338 2731 1133 3434 
Q 928 4138 513 4856 
z
" transform="scale(0.015625)"/>
      </defs>
      <use xlink:href="#DejaVuSans-52"/>
      <use xlink:href="#DejaVuSans-4f" x="69.482422"/>
      <use xlink:href="#DejaVuSans-43" x="148.193359"/>
      <use xlink:href="#DejaVuSans-20" x="218.017578"/>
      <use xlink:href="#DejaVuSans-63" x="249.804688"/>
      <use xlink:href="#DejaVuSans-75" x="304.785156"/>
      <use xlink:href="#DejaVuSans-72" x="368.164062"/>
      <use xlink:href="#DejaVuSans-76" x="409.277344"/>
      <use xlink:href="#DejaVuSans-65" x="468.457031"/>
      <use xlink:href="#DejaVuSans-20" x="529.980469"/>
      <use xlink:href="#DejaVuSans-28" x="561.767578"/>
      <use xlink:href="#DejaVuSans-52" x="600.78125"/>
      <use xlink:href="#DejaVuSans-4f" x="670.263672"/>
      <use xlink:href="#DejaVuSans-43" x="748.974609"/>
      <use xlink:href="#DejaVuSans-20" x="818.798828"/>
      <use xlink:href="#DejaVuSans-41" x="850.585938"/>
      <use xlink:href="#DejaVuSans-55" x="918.994141"/>
      <use xlink:href="#DejaVuSans-43" x="992.1875"/>
      <use xlink:href="#DejaVuSans-3d" x="1062.011719"/>
      <use xlink:href="#DejaVuSans-30" x="1145.800781"/>
      <use xlink:href="#DejaVuSans-2e" x="1209.423828"/>
      <use xlink:href="#DejaVuSans-32" x="1241.210938"/>
      <use xlink:href="#DejaVuSans-39" x="1304.833984"/>
      <use xlink:href="#DejaVuSans-29" x="1368.457031"/>
     </g>
    </g>
   </g>
  </g>
 </g>
 <defs>
  <clipPath id="p79e313e22b">
   <rect x="57.6" y="41.472" width="357.12" height="266.112"/>
  </clipPath>
 </defs>
</svg>
