<?xml version="1.0" encoding="utf-8" standalone="no"?>
<!DOCTYPE svg PUBLIC "-//W3C//DTD SVG 1.1//EN"
  "http://www.w3.org/Graphics/SVG/1.1/DTD/svg11.dtd">
<svg xmlns:xlink="http://www.w3.org/1999/xlink" width="460.8pt" height="345.6pt" viewBox="0 0 460.8 345.6" xmlns="http://www.w3.org/2000/svg" version="1.1">
 <metadata>
  <rdf:RDF xmlns:dc="http://purl.org/dc/elements/1.1/" xmlns:cc="http://creativecommons.org/ns#" xmlns:rdf="http://www.w3.org/1999/02/22-rdf-syntax-ns#">
   <cc:Work>
    <dc:type rdf:resource="http://purl.org/dc/dcmitype/StillImage"/>
    <dc:date>2022-05-23T20:40:03.666584</dc:date>
    <dc:format>image/svg+xml</dc:format>
    <dc:creator>
     <cc:Agent>
      <dc:title>Matplotlib v3.5.1, https://matplotlib.org/</dc:title>
     </cc:Agent>
    </dc:creator>
   </cc:Work>
  </rdf:RDF>
 </metadata>
 <defs>
  <style type="text/css">*{stroke-linejoin: round; stroke-linecap: butt}</style>
 </defs>
 <g id="figure_1">
  <g id="patch_1">
   <path d="M 0 345.6 
L 460.8 345.6 
L 460.8 0 
L 0 0 
z
" style="fill: #ffffff"/>
  </g>
  <g id="axes_1">
   <g id="patch_2">
    <path d="M 57.6 307.584 
L 414.72 307.584 
L 414.72 41.472 
L 57.6 41.472 
z
" style="fill: #ffffff"/>
   </g>
   <g id="matplotlib.axis_1">
    <g id="xtick_1">
     <g id="line2d_1">
      <defs>
       <path id="mc2f978531d" d="M 0 0 
L 0 3.5 
" style="stroke: #000000; stroke-width: 0.8"/>
      </defs>
      <g>
       <use xlink:href="#mc2f978531d" x="74.605714" y="307.584" style="stroke: #000000; stroke-width: 0.8"/>
      </g>
     </g>
     <g id="text_1">
      <!-- 0.0 -->
      <g transform="translate(66.654152 322.182437)scale(0.1 -0.1)">
       <defs>
        <path id="DejaVuSans-30" d="M 2034 4250 
Q 1547 4250 1301 3770 
Q 1056 3291 1056 2328 
Q 1056 1369 1301 889 
Q 1547 409 2034 409 
Q 2525 409 2770 889 
Q 3016 1369 3016 2328 
Q 3016 3291 2770 3770 
Q 2525 4250 2034 4250 
z
M 2034 4750 
Q 2819 4750 3233 4129 
Q 3647 3509 3647 2328 
Q 3647 1150 3233 529 
Q 2819 -91 2034 -91 
Q 1250 -91 836 529 
Q 422 1150 422 2328 
Q 422 3509 836 4129 
Q 1250 4750 2034 4750 
z
" transform="scale(0.015625)"/>
        <path id="DejaVuSans-2e" d="M 684 794 
L 1344 794 
L 1344 0 
L 684 0 
L 684 794 
z
" transform="scale(0.015625)"/>
       </defs>
       <use xlink:href="#DejaVuSans-30"/>
       <use xlink:href="#DejaVuSans-2e" x="63.623047"/>
       <use xlink:href="#DejaVuSans-30" x="95.410156"/>
      </g>
     </g>
    </g>
    <g id="xtick_2">
     <g id="line2d_2">
      <g>
       <use xlink:href="#mc2f978531d" x="142.628571" y="307.584" style="stroke: #000000; stroke-width: 0.8"/>
      </g>
     </g>
     <g id="text_2">
      <!-- 0.2 -->
      <g transform="translate(134.677009 322.182437)scale(0.1 -0.1)">
       <defs>
        <path id="DejaVuSans-32" d="M 1228 531 
L 3431 531 
L 3431 0 
L 469 0 
L 469 531 
Q 828 903 1448 1529 
Q 2069 2156 2228 2338 
Q 2531 2678 2651 2914 
Q 2772 3150 2772 3378 
Q 2772 3750 2511 3984 
Q 2250 4219 1831 4219 
Q 1534 4219 1204 4116 
Q 875 4013 500 3803 
L 500 4441 
Q 881 4594 1212 4672 
Q 1544 4750 1819 4750 
Q 2544 4750 2975 4387 
Q 3406 4025 3406 3419 
Q 3406 3131 3298 2873 
Q 3191 2616 2906 2266 
Q 2828 2175 2409 1742 
Q 1991 1309 1228 531 
z
" transform="scale(0.015625)"/>
       </defs>
       <use xlink:href="#DejaVuSans-30"/>
       <use xlink:href="#DejaVuSans-2e" x="63.623047"/>
       <use xlink:href="#DejaVuSans-32" x="95.410156"/>
      </g>
     </g>
    </g>
    <g id="xtick_3">
     <g id="line2d_3">
      <g>
       <use xlink:href="#mc2f978531d" x="210.651429" y="307.584" style="stroke: #000000; stroke-width: 0.8"/>
      </g>
     </g>
     <g id="text_3">
      <!-- 0.4 -->
      <g transform="translate(202.699866 322.182437)scale(0.1 -0.1)">
       <defs>
        <path id="DejaVuSans-34" d="M 2419 4116 
L 825 1625 
L 2419 1625 
L 2419 4116 
z
M 2253 4666 
L 3047 4666 
L 3047 1625 
L 3713 1625 
L 3713 1100 
L 3047 1100 
L 3047 0 
L 2419 0 
L 2419 1100 
L 313 1100 
L 313 1709 
L 2253 4666 
z
" transform="scale(0.015625)"/>
       </defs>
       <use xlink:href="#DejaVuSans-30"/>
       <use xlink:href="#DejaVuSans-2e" x="63.623047"/>
       <use xlink:href="#DejaVuSans-34" x="95.410156"/>
      </g>
     </g>
    </g>
    <g id="xtick_4">
     <g id="line2d_4">
      <g>
       <use xlink:href="#mc2f978531d" x="278.674286" y="307.584" style="stroke: #000000; stroke-width: 0.8"/>
      </g>
     </g>
     <g id="text_4">
      <!-- 0.6 -->
      <g transform="translate(270.722723 322.182437)scale(0.1 -0.1)">
       <defs>
        <path id="DejaVuSans-36" d="M 2113 2584 
Q 1688 2584 1439 2293 
Q 1191 2003 1191 1497 
Q 1191 994 1439 701 
Q 1688 409 2113 409 
Q 2538 409 2786 701 
Q 3034 994 3034 1497 
Q 3034 2003 2786 2293 
Q 2538 2584 2113 2584 
z
M 3366 4563 
L 3366 3988 
Q 3128 4100 2886 4159 
Q 2644 4219 2406 4219 
Q 1781 4219 1451 3797 
Q 1122 3375 1075 2522 
Q 1259 2794 1537 2939 
Q 1816 3084 2150 3084 
Q 2853 3084 3261 2657 
Q 3669 2231 3669 1497 
Q 3669 778 3244 343 
Q 2819 -91 2113 -91 
Q 1303 -91 875 529 
Q 447 1150 447 2328 
Q 447 3434 972 4092 
Q 1497 4750 2381 4750 
Q 2619 4750 2861 4703 
Q 3103 4656 3366 4563 
z
" transform="scale(0.015625)"/>
       </defs>
       <use xlink:href="#DejaVuSans-30"/>
       <use xlink:href="#DejaVuSans-2e" x="63.623047"/>
       <use xlink:href="#DejaVuSans-36" x="95.410156"/>
      </g>
     </g>
    </g>
    <g id="xtick_5">
     <g id="line2d_5">
      <g>
       <use xlink:href="#mc2f978531d" x="346.697143" y="307.584" style="stroke: #000000; stroke-width: 0.8"/>
      </g>
     </g>
     <g id="text_5">
      <!-- 0.8 -->
      <g transform="translate(338.74558 322.182437)scale(0.1 -0.1)">
       <defs>
        <path id="DejaVuSans-38" d="M 2034 2216 
Q 1584 2216 1326 1975 
Q 1069 1734 1069 1313 
Q 1069 891 1326 650 
Q 1584 409 2034 409 
Q 2484 409 2743 651 
Q 3003 894 3003 1313 
Q 3003 1734 2745 1975 
Q 2488 2216 2034 2216 
z
M 1403 2484 
Q 997 2584 770 2862 
Q 544 3141 544 3541 
Q 544 4100 942 4425 
Q 1341 4750 2034 4750 
Q 2731 4750 3128 4425 
Q 3525 4100 3525 3541 
Q 3525 3141 3298 2862 
Q 3072 2584 2669 2484 
Q 3125 2378 3379 2068 
Q 3634 1759 3634 1313 
Q 3634 634 3220 271 
Q 2806 -91 2034 -91 
Q 1263 -91 848 271 
Q 434 634 434 1313 
Q 434 1759 690 2068 
Q 947 2378 1403 2484 
z
M 1172 3481 
Q 1172 3119 1398 2916 
Q 1625 2713 2034 2713 
Q 2441 2713 2670 2916 
Q 2900 3119 2900 3481 
Q 2900 3844 2670 4047 
Q 2441 4250 2034 4250 
Q 1625 4250 1398 4047 
Q 1172 3844 1172 3481 
z
" transform="scale(0.015625)"/>
       </defs>
       <use xlink:href="#DejaVuSans-30"/>
       <use xlink:href="#DejaVuSans-2e" x="63.623047"/>
       <use xlink:href="#DejaVuSans-38" x="95.410156"/>
      </g>
     </g>
    </g>
    <g id="xtick_6">
     <g id="line2d_6">
      <g>
       <use xlink:href="#mc2f978531d" x="414.72" y="307.584" style="stroke: #000000; stroke-width: 0.8"/>
      </g>
     </g>
     <g id="text_6">
      <!-- 1.0 -->
      <g transform="translate(406.768438 322.182437)scale(0.1 -0.1)">
       <defs>
        <path id="DejaVuSans-31" d="M 794 531 
L 1825 531 
L 1825 4091 
L 703 3866 
L 703 4441 
L 1819 4666 
L 2450 4666 
L 2450 531 
L 3481 531 
L 3481 0 
L 794 0 
L 794 531 
z
" transform="scale(0.015625)"/>
       </defs>
       <use xlink:href="#DejaVuSans-31"/>
       <use xlink:href="#DejaVuSans-2e" x="63.623047"/>
       <use xlink:href="#DejaVuSans-30" x="95.410156"/>
      </g>
     </g>
    </g>
    <g id="text_7">
     <!-- False Positive Rate -->
     <g transform="translate(189.693594 335.860562)scale(0.1 -0.1)">
      <defs>
       <path id="DejaVuSans-46" d="M 628 4666 
L 3309 4666 
L 3309 4134 
L 1259 4134 
L 1259 2759 
L 3109 2759 
L 3109 2228 
L 1259 2228 
L 1259 0 
L 628 0 
L 628 4666 
z
" transform="scale(0.015625)"/>
       <path id="DejaVuSans-61" d="M 2194 1759 
Q 1497 1759 1228 1600 
Q 959 1441 959 1056 
Q 959 750 1161 570 
Q 1363 391 1709 391 
Q 2188 391 2477 730 
Q 2766 1069 2766 1631 
L 2766 1759 
L 2194 1759 
z
M 3341 1997 
L 3341 0 
L 2766 0 
L 2766 531 
Q 2569 213 2275 61 
Q 1981 -91 1556 -91 
Q 1019 -91 701 211 
Q 384 513 384 1019 
Q 384 1609 779 1909 
Q 1175 2209 1959 2209 
L 2766 2209 
L 2766 2266 
Q 2766 2663 2505 2880 
Q 2244 3097 1772 3097 
Q 1472 3097 1187 3025 
Q 903 2953 641 2809 
L 641 3341 
Q 956 3463 1253 3523 
Q 1550 3584 1831 3584 
Q 2591 3584 2966 3190 
Q 3341 2797 3341 1997 
z
" transform="scale(0.015625)"/>
       <path id="DejaVuSans-6c" d="M 603 4863 
L 1178 4863 
L 1178 0 
L 603 0 
L 603 4863 
z
" transform="scale(0.015625)"/>
       <path id="DejaVuSans-73" d="M 2834 3397 
L 2834 2853 
Q 2591 2978 2328 3040 
Q 2066 3103 1784 3103 
Q 1356 3103 1142 2972 
Q 928 2841 928 2578 
Q 928 2378 1081 2264 
Q 1234 2150 1697 2047 
L 1894 2003 
Q 2506 1872 2764 1633 
Q 3022 1394 3022 966 
Q 3022 478 2636 193 
Q 2250 -91 1575 -91 
Q 1294 -91 989 -36 
Q 684 19 347 128 
L 347 722 
Q 666 556 975 473 
Q 1284 391 1588 391 
Q 1994 391 2212 530 
Q 2431 669 2431 922 
Q 2431 1156 2273 1281 
Q 2116 1406 1581 1522 
L 1381 1569 
Q 847 1681 609 1914 
Q 372 2147 372 2553 
Q 372 3047 722 3315 
Q 1072 3584 1716 3584 
Q 2034 3584 2315 3537 
Q 2597 3491 2834 3397 
z
" transform="scale(0.015625)"/>
       <path id="DejaVuSans-65" d="M 3597 1894 
L 3597 1613 
L 953 1613 
Q 991 1019 1311 708 
Q 1631 397 2203 397 
Q 2534 397 2845 478 
Q 3156 559 3463 722 
L 3463 178 
Q 3153 47 2828 -22 
Q 2503 -91 2169 -91 
Q 1331 -91 842 396 
Q 353 884 353 1716 
Q 353 2575 817 3079 
Q 1281 3584 2069 3584 
Q 2775 3584 3186 3129 
Q 3597 2675 3597 1894 
z
M 3022 2063 
Q 3016 2534 2758 2815 
Q 2500 3097 2075 3097 
Q 1594 3097 1305 2825 
Q 1016 2553 972 2059 
L 3022 2063 
z
" transform="scale(0.015625)"/>
       <path id="DejaVuSans-20" transform="scale(0.015625)"/>
       <path id="DejaVuSans-50" d="M 1259 4147 
L 1259 2394 
L 2053 2394 
Q 2494 2394 2734 2622 
Q 2975 2850 2975 3272 
Q 2975 3691 2734 3919 
Q 2494 4147 2053 4147 
L 1259 4147 
z
M 628 4666 
L 2053 4666 
Q 2838 4666 3239 4311 
Q 3641 3956 3641 3272 
Q 3641 2581 3239 2228 
Q 2838 1875 2053 1875 
L 1259 1875 
L 1259 0 
L 628 0 
L 628 4666 
z
" transform="scale(0.015625)"/>
       <path id="DejaVuSans-6f" d="M 1959 3097 
Q 1497 3097 1228 2736 
Q 959 2375 959 1747 
Q 959 1119 1226 758 
Q 1494 397 1959 397 
Q 2419 397 2687 759 
Q 2956 1122 2956 1747 
Q 2956 2369 2687 2733 
Q 2419 3097 1959 3097 
z
M 1959 3584 
Q 2709 3584 3137 3096 
Q 3566 2609 3566 1747 
Q 3566 888 3137 398 
Q 2709 -91 1959 -91 
Q 1206 -91 779 398 
Q 353 888 353 1747 
Q 353 2609 779 3096 
Q 1206 3584 1959 3584 
z
" transform="scale(0.015625)"/>
       <path id="DejaVuSans-69" d="M 603 3500 
L 1178 3500 
L 1178 0 
L 603 0 
L 603 3500 
z
M 603 4863 
L 1178 4863 
L 1178 4134 
L 603 4134 
L 603 4863 
z
" transform="scale(0.015625)"/>
       <path id="DejaVuSans-74" d="M 1172 4494 
L 1172 3500 
L 2356 3500 
L 2356 3053 
L 1172 3053 
L 1172 1153 
Q 1172 725 1289 603 
Q 1406 481 1766 481 
L 2356 481 
L 2356 0 
L 1766 0 
Q 1100 0 847 248 
Q 594 497 594 1153 
L 594 3053 
L 172 3053 
L 172 3500 
L 594 3500 
L 594 4494 
L 1172 4494 
z
" transform="scale(0.015625)"/>
       <path id="DejaVuSans-76" d="M 191 3500 
L 800 3500 
L 1894 563 
L 2988 3500 
L 3597 3500 
L 2284 0 
L 1503 0 
L 191 3500 
z
" transform="scale(0.015625)"/>
       <path id="DejaVuSans-52" d="M 2841 2188 
Q 3044 2119 3236 1894 
Q 3428 1669 3622 1275 
L 4263 0 
L 3584 0 
L 2988 1197 
Q 2756 1666 2539 1819 
Q 2322 1972 1947 1972 
L 1259 1972 
L 1259 0 
L 628 0 
L 628 4666 
L 2053 4666 
Q 2853 4666 3247 4331 
Q 3641 3997 3641 3322 
Q 3641 2881 3436 2590 
Q 3231 2300 2841 2188 
z
M 1259 4147 
L 1259 2491 
L 2053 2491 
Q 2509 2491 2742 2702 
Q 2975 2913 2975 3322 
Q 2975 3731 2742 3939 
Q 2509 4147 2053 4147 
L 1259 4147 
z
" transform="scale(0.015625)"/>
      </defs>
      <use xlink:href="#DejaVuSans-46"/>
      <use xlink:href="#DejaVuSans-61" x="48.394531"/>
      <use xlink:href="#DejaVuSans-6c" x="109.673828"/>
      <use xlink:href="#DejaVuSans-73" x="137.457031"/>
      <use xlink:href="#DejaVuSans-65" x="189.556641"/>
      <use xlink:href="#DejaVuSans-20" x="251.080078"/>
      <use xlink:href="#DejaVuSans-50" x="282.867188"/>
      <use xlink:href="#DejaVuSans-6f" x="339.544922"/>
      <use xlink:href="#DejaVuSans-73" x="400.726562"/>
      <use xlink:href="#DejaVuSans-69" x="452.826172"/>
      <use xlink:href="#DejaVuSans-74" x="480.609375"/>
      <use xlink:href="#DejaVuSans-69" x="519.818359"/>
      <use xlink:href="#DejaVuSans-76" x="547.601562"/>
      <use xlink:href="#DejaVuSans-65" x="606.78125"/>
      <use xlink:href="#DejaVuSans-20" x="668.304688"/>
      <use xlink:href="#DejaVuSans-52" x="700.091797"/>
      <use xlink:href="#DejaVuSans-61" x="767.324219"/>
      <use xlink:href="#DejaVuSans-74" x="828.603516"/>
      <use xlink:href="#DejaVuSans-65" x="867.8125"/>
     </g>
    </g>
   </g>
   <g id="matplotlib.axis_2">
    <g id="ytick_1">
     <g id="line2d_7">
      <defs>
       <path id="mfbd4f57e55" d="M 0 0 
L -3.5 0 
" style="stroke: #000000; stroke-width: 0.8"/>
      </defs>
      <g>
       <use xlink:href="#mfbd4f57e55" x="57.6" y="307.584" style="stroke: #000000; stroke-width: 0.8"/>
      </g>
     </g>
     <g id="text_8">
      <!-- 0.0 -->
      <g transform="translate(34.696875 311.383219)scale(0.1 -0.1)">
       <use xlink:href="#DejaVuSans-30"/>
       <use xlink:href="#DejaVuSans-2e" x="63.623047"/>
       <use xlink:href="#DejaVuSans-30" x="95.410156"/>
      </g>
     </g>
    </g>
    <g id="ytick_2">
     <g id="line2d_8">
      <g>
       <use xlink:href="#mfbd4f57e55" x="57.6" y="256.896" style="stroke: #000000; stroke-width: 0.8"/>
      </g>
     </g>
     <g id="text_9">
      <!-- 0.2 -->
      <g transform="translate(34.696875 260.695219)scale(0.1 -0.1)">
       <use xlink:href="#DejaVuSans-30"/>
       <use xlink:href="#DejaVuSans-2e" x="63.623047"/>
       <use xlink:href="#DejaVuSans-32" x="95.410156"/>
      </g>
     </g>
    </g>
    <g id="ytick_3">
     <g id="line2d_9">
      <g>
       <use xlink:href="#mfbd4f57e55" x="57.6" y="206.208" style="stroke: #000000; stroke-width: 0.8"/>
      </g>
     </g>
     <g id="text_10">
      <!-- 0.4 -->
      <g transform="translate(34.696875 210.007219)scale(0.1 -0.1)">
       <use xlink:href="#DejaVuSans-30"/>
       <use xlink:href="#DejaVuSans-2e" x="63.623047"/>
       <use xlink:href="#DejaVuSans-34" x="95.410156"/>
      </g>
     </g>
    </g>
    <g id="ytick_4">
     <g id="line2d_10">
      <g>
       <use xlink:href="#mfbd4f57e55" x="57.6" y="155.52" style="stroke: #000000; stroke-width: 0.8"/>
      </g>
     </g>
     <g id="text_11">
      <!-- 0.6 -->
      <g transform="translate(34.696875 159.319219)scale(0.1 -0.1)">
       <use xlink:href="#DejaVuSans-30"/>
       <use xlink:href="#DejaVuSans-2e" x="63.623047"/>
       <use xlink:href="#DejaVuSans-36" x="95.410156"/>
      </g>
     </g>
    </g>
    <g id="ytick_5">
     <g id="line2d_11">
      <g>
       <use xlink:href="#mfbd4f57e55" x="57.6" y="104.832" style="stroke: #000000; stroke-width: 0.8"/>
      </g>
     </g>
     <g id="text_12">
      <!-- 0.8 -->
      <g transform="translate(34.696875 108.631219)scale(0.1 -0.1)">
       <use xlink:href="#DejaVuSans-30"/>
       <use xlink:href="#DejaVuSans-2e" x="63.623047"/>
       <use xlink:href="#DejaVuSans-38" x="95.410156"/>
      </g>
     </g>
    </g>
    <g id="ytick_6">
     <g id="line2d_12">
      <g>
       <use xlink:href="#mfbd4f57e55" x="57.6" y="54.144" style="stroke: #000000; stroke-width: 0.8"/>
      </g>
     </g>
     <g id="text_13">
      <!-- 1.0 -->
      <g transform="translate(34.696875 57.943219)scale(0.1 -0.1)">
       <use xlink:href="#DejaVuSans-31"/>
       <use xlink:href="#DejaVuSans-2e" x="63.623047"/>
       <use xlink:href="#DejaVuSans-30" x="95.410156"/>
      </g>
     </g>
    </g>
    <g id="text_14">
     <!-- True Positive Rate -->
     <g transform="translate(28.617187 219.057687)rotate(-90)scale(0.1 -0.1)">
      <defs>
       <path id="DejaVuSans-54" d="M -19 4666 
L 3928 4666 
L 3928 4134 
L 2272 4134 
L 2272 0 
L 1638 0 
L 1638 4134 
L -19 4134 
L -19 4666 
z
" transform="scale(0.015625)"/>
       <path id="DejaVuSans-72" d="M 2631 2963 
Q 2534 3019 2420 3045 
Q 2306 3072 2169 3072 
Q 1681 3072 1420 2755 
Q 1159 2438 1159 1844 
L 1159 0 
L 581 0 
L 581 3500 
L 1159 3500 
L 1159 2956 
Q 1341 3275 1631 3429 
Q 1922 3584 2338 3584 
Q 2397 3584 2469 3576 
Q 2541 3569 2628 3553 
L 2631 2963 
z
" transform="scale(0.015625)"/>
       <path id="DejaVuSans-75" d="M 544 1381 
L 544 3500 
L 1119 3500 
L 1119 1403 
Q 1119 906 1312 657 
Q 1506 409 1894 409 
Q 2359 409 2629 706 
Q 2900 1003 2900 1516 
L 2900 3500 
L 3475 3500 
L 3475 0 
L 2900 0 
L 2900 538 
Q 2691 219 2414 64 
Q 2138 -91 1772 -91 
Q 1169 -91 856 284 
Q 544 659 544 1381 
z
M 1991 3584 
L 1991 3584 
z
" transform="scale(0.015625)"/>
      </defs>
      <use xlink:href="#DejaVuSans-54"/>
      <use xlink:href="#DejaVuSans-72" x="46.333984"/>
      <use xlink:href="#DejaVuSans-75" x="87.447266"/>
      <use xlink:href="#DejaVuSans-65" x="150.826172"/>
      <use xlink:href="#DejaVuSans-20" x="212.349609"/>
      <use xlink:href="#DejaVuSans-50" x="244.136719"/>
      <use xlink:href="#DejaVuSans-6f" x="300.814453"/>
      <use xlink:href="#DejaVuSans-73" x="361.996094"/>
      <use xlink:href="#DejaVuSans-69" x="414.095703"/>
      <use xlink:href="#DejaVuSans-74" x="441.878906"/>
      <use xlink:href="#DejaVuSans-69" x="481.087891"/>
      <use xlink:href="#DejaVuSans-76" x="508.871094"/>
      <use xlink:href="#DejaVuSans-65" x="568.050781"/>
      <use xlink:href="#DejaVuSans-20" x="629.574219"/>
      <use xlink:href="#DejaVuSans-52" x="661.361328"/>
      <use xlink:href="#DejaVuSans-61" x="728.59375"/>
      <use xlink:href="#DejaVuSans-74" x="789.873047"/>
      <use xlink:href="#DejaVuSans-65" x="829.082031"/>
     </g>
    </g>
   </g>
   <g id="line2d_13">
    <path d="M 74.605714 307.584 
L 75.105048 305.899216 
L 75.151784 305.789518 
L 75.262259 305.52045 
L 75.262839 305.52045 
L 75.305802 305.412822 
L 75.416899 305.110637 
L 75.48354 305.00094 
L 75.588707 304.839499 
L 75.591983 304.839499 
L 75.711041 304.729801 
L 75.816913 304.638732 
L 75.820728 304.638732 
L 75.937838 304.529035 
L 76.047732 304.413128 
L 76.048313 304.413128 
L 76.133367 304.305501 
L 76.241187 304.127501 
L 76.244297 304.127501 
L 76.313634 304.017804 
L 76.420128 303.872921 
L 76.424192 303.872921 
L 76.517789 303.763224 
L 76.627973 303.645247 
L 76.628844 303.645247 
L 76.757109 303.53555 
L 76.864141 303.407225 
L 76.868164 303.407225 
L 77.005055 303.297528 
L 77.11752 303.216807 
L 77.255986 303.10711 
L 77.367747 303.036738 
L 77.521764 302.927041 
L 77.620876 302.858739 
L 77.632239 302.858739 
L 77.854723 302.749041 
L 77.967022 302.686949 
L 78.186893 302.577251 
L 78.294009 302.490321 
L 78.297948 302.490321 
L 78.498495 302.380624 
L 78.609301 302.308183 
L 78.609591 302.308183 
L 78.785505 302.198485 
L 78.894321 302.136393 
L 78.89627 302.136393 
L 79.099512 302.026695 
L 79.209489 301.923207 
L 79.210194 301.923207 
L 79.394235 301.81351 
L 79.504088 301.722441 
L 79.50529 301.722441 
L 79.640688 301.612743 
L 79.753195 301.529953 
L 79.9046 301.420256 
L 80.013913 301.337465 
L 80.015655 301.337465 
L 80.136746 301.227768 
L 80.241042 301.12221 
L 80.247469 301.12221 
L 80.365326 301.012513 
L 80.478828 300.880048 
L 80.583704 300.770351 
L 80.693639 300.613049 
L 80.694427 300.613049 
L 80.773344 300.503352 
L 80.883487 300.333632 
L 80.884026 300.333632 
L 80.974139 300.223935 
L 81.084116 300.045935 
L 81.084862 300.045935 
L 81.182647 299.936238 
L 81.29362 299.756169 
L 81.293744 299.756169 
L 81.374775 299.648541 
L 81.48496 299.528495 
L 81.610446 299.418798 
L 81.720299 299.261496 
L 81.720838 299.261496 
L 81.803445 299.151799 
L 81.913713 298.992428 
L 81.914127 298.992428 
L 81.971728 298.88273 
L 82.080627 298.694382 
L 82.082286 298.694382 
L 82.144449 298.584685 
L 82.25426 298.288709 
L 82.255504 298.288709 
L 82.312608 298.179012 
L 82.423704 297.823013 
L 82.451572 297.713316 
L 82.562046 297.375945 
L 82.591904 297.266248 
L 82.702255 296.65153 
L 82.702752 296.65153 
L 82.723736 296.541832 
L 82.834667 295.740835 
L 82.847356 295.631138 
L 82.958329 294.635584 
L 82.968779 294.527956 
L 82.968779 294.525886 
L 83.079793 293.395798 
L 83.079876 293.395798 
L 83.093312 293.2861 
L 83.204408 291.951105 
L 83.211002 291.843478 
L 83.211002 291.841408 
L 83.322057 290.268391 
L 83.329563 290.158693 
L 83.44066 288.339375 
L 83.447544 288.229677 
L 83.558558 286.40208 
L 83.56341 286.292382 
L 83.674009 284.729714 
L 83.674465 284.729714 
L 83.681598 284.620017 
L 83.792694 282.964209 
L 83.803352 282.854512 
L 83.914283 281.459494 
L 83.914366 281.459494 
L 83.921333 281.349796 
L 84.032346 280.006522 
L 84.032429 280.006522 
L 84.039977 279.896825 
L 84.15099 278.636341 
L 84.151073 278.636341 
L 84.160653 278.526644 
L 84.271045 277.415183 
L 84.27175 277.415183 
L 84.281578 277.305486 
L 84.391016 276.185746 
L 84.392011 276.185746 
L 84.403166 276.076049 
L 84.513973 275.016332 
L 84.51418 275.016332 
L 84.528321 274.906635 
L 84.639418 273.942127 
L 84.64908 273.832429 
L 84.759887 272.954851 
L 84.760011 272.954851 
L 84.770918 272.845154 
L 84.881724 271.785437 
L 84.893501 271.67574 
L 85.004225 270.785743 
L 85.004391 270.785743 
L 85.018034 270.676046 
L 85.129006 269.881258 
L 85.129131 269.881258 
L 85.142235 269.773631 
L 85.253083 269.036796 
L 85.275933 268.927099 
L 85.386407 268.550403 
L 85.386946 268.550403 
L 85.410252 268.440705 
L 85.520395 267.983289 
L 85.520893 267.983289 
L 85.551705 267.873591 
L 85.662801 267.314756 
L 85.678767 267.205059 
L 85.789781 266.695898 
L 85.81064 266.586201 
L 85.921405 266.029435 
L 85.921571 266.029435 
L 85.944172 265.919738 
L 86.055061 265.398159 
L 86.055185 265.398159 
L 86.075298 265.288461 
L 86.186146 264.715138 
L 86.207005 264.605441 
L 86.31777 264.125257 
L 86.318019 264.125257 
L 86.361645 264.015559 
L 86.471207 263.804444 
L 86.472576 263.804444 
L 86.529057 263.694747 
L 86.638412 263.504329 
L 86.639822 263.504329 
L 86.713928 263.394631 
L 86.82038 263.212493 
L 86.824569 263.212493 
L 86.91576 263.102795 
L 87.026691 262.937214 
L 87.026857 262.937214 
L 87.086821 262.827517 
L 87.197752 262.647448 
L 87.275259 262.537751 
L 87.386314 262.308008 
L 87.449638 262.19831 
L 87.559034 261.976846 
L 87.560361 261.976846 
L 87.604526 261.867149 
L 87.715333 261.585661 
L 87.715416 261.585661 
L 87.761571 261.475964 
L 87.87159 261.200686 
L 87.872378 261.200686 
L 87.918782 261.090989 
L 88.027142 260.811571 
L 88.029796 260.811571 
L 88.069565 260.701874 
L 88.180288 260.412108 
L 88.18062 260.412108 
L 88.218026 260.30241 
L 88.328334 259.931923 
L 88.329039 259.931923 
L 88.371877 259.822226 
L 88.486623 259.44139 
L 88.515237 259.331693 
L 88.62621 258.909462 
L 88.677507 258.79873 
L 88.786945 258.590719 
L 88.788355 258.590719 
L 88.873451 258.481022 
L 88.983884 258.271976 
L 88.984174 258.271976 
L 89.051562 258.162279 
L 89.164317 257.994628 
L 89.222292 257.884931 
L 89.325758 257.667606 
L 89.333347 257.667606 
L 89.385433 257.559979 
L 89.385433 257.557909 
L 89.496198 257.342654 
L 89.496529 257.342654 
L 89.542021 257.232957 
L 89.657472 257.015632 
L 89.700124 256.905935 
L 89.813729 256.643075 
L 89.853498 256.533378 
L 89.964554 256.237402 
L 89.964595 256.237402 
L 89.990928 256.127705 
L 90.101859 255.713753 
L 90.102025 255.713753 
L 90.130722 255.604056 
L 90.241155 255.202523 
L 90.241819 255.202523 
L 90.260853 255.092825 
L 90.371286 254.585734 
L 90.371701 254.585734 
L 90.39538 254.476037 
L 90.506103 253.991713 
L 90.506477 253.991713 
L 90.535961 253.882016 
L 90.646768 253.41839 
L 90.647058 253.41839 
L 90.675797 253.308693 
L 90.78652 252.869904 
L 90.786893 252.869904 
L 90.813351 252.759171 
L 90.923991 252.348324 
L 90.924447 252.348324 
L 90.951486 252.238627 
L 91.062002 251.760512 
L 91.062541 251.760512 
L 91.088874 251.650815 
L 91.199722 251.207887 
L 91.199888 251.207887 
L 91.227714 251.098189 
L 91.338437 250.651121 
L 91.33881 250.651121 
L 91.365351 250.541424 
L 91.475825 250.170937 
L 91.476448 250.170937 
L 91.502905 250.06124 
L 91.613006 249.63073 
L 91.613794 249.63073 
L 91.657254 249.521032 
L 91.767397 249.165034 
L 91.768351 249.165034 
L 91.801423 249.054302 
L 91.912416 248.722105 
L 91.958966 248.612408 
L 92.069876 248.301944 
L 92.069917 248.301944 
L 92.096292 248.192247 
L 92.21365 247.877643 
L 92.263248 247.767946 
L 92.374179 247.47611 
L 92.409801 247.366413 
L 92.520483 247.037321 
L 92.520732 247.037321 
L 92.563653 246.927624 
L 92.673173 246.592322 
L 92.6745 246.592322 
L 92.715555 246.482625 
L 92.826445 246.159743 
L 92.82661 246.159743 
L 92.86273 246.050045 
L 92.97362 245.677489 
L 93.006629 245.567791 
L 93.117353 245.211793 
L 93.117685 245.211793 
L 93.156666 245.102096 
L 93.267431 244.816469 
L 93.267763 244.816469 
L 93.309149 244.706771 
L 93.419334 244.417005 
L 93.420121 244.417005 
L 93.472332 244.307308 
L 93.581977 244.085844 
L 93.583262 244.085844 
L 93.652641 243.975111 
L 93.762162 243.787798 
L 93.763696 243.787798 
L 93.839212 243.678101 
L 93.94977 243.500102 
L 93.950309 243.500102 
L 94.010854 243.390404 
L 94.121578 243.235172 
L 94.121868 243.235172 
L 94.19614 243.125475 
L 94.305246 242.939197 
L 94.307153 242.939197 
L 94.366745 242.829499 
L 94.477137 242.65564 
L 94.477676 242.65564 
L 94.546059 242.545942 
L 94.657031 242.365873 
L 94.734828 242.256176 
L 94.844142 242.076107 
L 94.845634 242.076107 
L 94.916381 241.96641 
L 95.024078 241.771852 
L 95.027478 241.771852 
L 95.100672 241.66112 
L 95.211478 241.494504 
L 95.211561 241.494504 
L 95.267337 241.384807 
L 95.37804 241.152994 
L 95.37831 241.152994 
L 95.427949 241.043297 
L 95.53805 240.84667 
L 95.539045 240.84667 
L 95.588518 240.736972 
L 95.699491 240.565182 
L 95.750125 240.455485 
L 95.861014 240.225742 
L 95.861222 240.225742 
L 95.934706 240.116045 
L 96.04008 239.933906 
L 96.045636 239.933906 
L 96.103694 239.824208 
L 96.218274 239.650349 
L 96.306479 239.540651 
L 96.417203 239.404047 
L 96.417576 239.404047 
L 96.51449 239.29435 
L 96.625421 239.159816 
L 96.625545 239.159816 
L 96.737306 239.050118 
L 96.847283 238.944561 
L 96.848361 238.944561 
L 96.955974 238.834863 
L 97.066324 238.708608 
L 97.066988 238.708608 
L 97.176219 238.598911 
L 97.284537 238.4354 
L 97.287232 238.4354 
L 97.396691 238.324668 
L 97.506772 238.226354 
L 97.507725 238.226354 
L 97.601861 238.116657 
L 97.710055 237.99868 
L 97.712916 237.99868 
L 97.832825 237.887948 
L 97.94303 237.764798 
L 97.943818 237.764798 
L 98.029992 237.6551 
L 98.140591 237.524705 
L 98.140964 237.524705 
L 98.237733 237.415008 
L 98.350219 237.272195 
L 98.435729 237.164567 
L 98.546162 236.998986 
L 98.546826 236.998986 
L 98.610233 236.889289 
L 98.720334 236.723708 
L 98.721329 236.723708 
L 98.807544 236.614011 
L 98.917024 236.44843 
L 98.918558 236.44843 
L 98.98126 236.337698 
L 99.090698 236.162804 
L 99.092191 236.162804 
L 99.159703 236.053106 
L 99.270302 235.831642 
L 99.270758 235.831642 
L 99.318904 235.721945 
L 99.429213 235.50462 
L 99.430001 235.50462 
L 99.483248 235.394923 
L 99.59364 235.150691 
L 99.594345 235.150691 
L 99.649706 235.040994 
L 99.763747 234.745018 
L 99.820146 234.635321 
L 99.93089 234.399368 
L 99.931243 234.399368 
L 99.975988 234.289671 
L 100.092953 233.997835 
L 100.135065 233.888138 
L 100.245913 233.588023 
L 100.246162 233.588023 
L 100.285475 233.478325 
L 100.396406 233.203047 
L 100.396571 233.203047 
L 100.433728 233.09335 
L 100.542627 232.83463 
L 100.544825 232.83463 
L 100.591893 232.724933 
L 100.702658 232.420678 
L 100.702948 232.420678 
L 100.740685 232.312016 
L 100.740685 232.310981 
L 100.851492 231.938424 
L 100.851782 231.938424 
L 100.879898 231.828727 
L 100.990497 231.452031 
L 100.990953 231.452031 
L 101.022118 231.342333 
L 101.131867 230.980125 
L 101.133131 230.980125 
L 101.17288 230.870428 
L 101.282525 230.520639 
L 101.283935 230.520639 
L 101.332164 230.410942 
L 101.440959 230.135663 
L 101.44324 230.135663 
L 101.487841 230.025966 
L 101.598771 229.725851 
L 101.598854 229.725851 
L 101.63796 229.616154 
L 101.748476 229.342946 
L 101.749057 229.342946 
L 101.792517 229.235318 
L 101.792517 229.233248 
L 101.909792 228.922784 
L 101.952216 228.813087 
L 102.069865 228.486065 
L 102.099266 228.376368 
L 102.099266 228.375333 
L 102.217537 228.01623 
L 102.256477 227.905497 
L 102.362639 227.627115 
L 102.367574 227.627115 
L 102.400418 227.517418 
L 102.509316 227.163489 
L 102.511514 227.163489 
L 102.561278 227.053791 
L 102.672167 226.701932 
L 102.672291 226.701932 
L 102.727156 226.592235 
L 102.838086 226.298329 
L 102.838252 226.298329 
L 102.899876 226.188632 
L 102.899876 226.187597 
L 103.024201 225.85747 
L 103.064136 225.747773 
L 103.174736 225.497332 
L 103.175192 225.497332 
L 103.233332 225.389705 
L 103.233332 225.387635 
L 103.342334 225.149612 
L 103.344366 225.149612 
L 103.394233 225.039915 
L 103.507839 224.787405 
L 103.56571 224.677707 
L 103.675396 224.476941 
L 103.676806 224.476941 
L 103.741126 224.367243 
L 103.741126 224.366208 
L 103.85697 224.127151 
L 103.921269 224.017454 
L 104.032075 223.787711 
L 104.032303 223.787711 
L 104.09005 223.678013 
L 104.201022 223.44827 
L 104.201146 223.44827 
L 104.253854 223.338573 
L 104.363873 223.137806 
L 104.364868 223.137806 
L 104.443992 223.028109 
L 104.551978 222.850109 
L 104.555088 222.850109 
L 104.629236 222.740412 
L 104.629236 222.739377 
L 104.74788 222.552064 
L 104.819415 222.442367 
L 104.928355 222.206414 
L 104.930511 222.206414 
L 104.986868 222.096717 
L 105.097924 221.887671 
L 105.173605 221.777974 
L 105.282898 221.581347 
L 105.284619 221.581347 
L 105.345621 221.47165 
L 105.460159 221.29986 
L 105.51888 221.190162 
L 105.629147 221.010093 
L 105.629977 221.010093 
L 105.699998 220.899361 
L 105.809871 220.705838 
L 105.811074 220.705838 
L 105.870832 220.596141 
L 105.980726 220.424351 
L 105.981907 220.424351 
L 106.044672 220.314654 
L 106.044672 220.313619 
L 106.160288 220.08905 
L 106.210176 219.979353 
L 106.320609 219.757889 
L 106.321273 219.757889 
L 106.401558 219.648191 
L 106.516179 219.472262 
L 106.594681 219.362564 
L 106.70922 219.178356 
L 106.764996 219.068659 
L 106.885424 218.836846 
L 106.950987 218.727148 
L 107.061544 218.522242 
L 107.062083 218.522242 
L 107.120058 218.414615 
L 107.120058 218.412545 
L 107.233269 218.189011 
L 107.294893 218.079313 
L 107.294893 218.078279 
L 107.414719 217.861989 
L 107.485984 217.752291 
L 107.596894 217.50392 
L 107.596998 217.50392 
L 107.654848 217.394223 
L 107.654848 217.393188 
L 107.76412 217.181038 
L 107.765903 217.181038 
L 107.82564 217.071341 
L 107.935804 216.874713 
L 107.936716 216.874713 
L 108.003565 216.765016 
L 108.116528 216.570459 
L 108.179416 216.459727 
L 108.289559 216.274483 
L 108.290492 216.274483 
L 108.359746 216.166856 
L 108.469972 215.976438 
L 108.47076 215.976438 
L 108.5464 215.86674 
L 108.653267 215.643206 
L 108.657455 215.643206 
L 108.725631 215.535579 
L 108.725631 215.533509 
L 108.836002 215.336882 
L 108.836562 215.336882 
L 108.890016 215.22615 
L 109.000574 215.032627 
L 109.00103 215.032627 
L 109.08484 214.92293 
L 109.193801 214.713884 
L 109.195936 214.713884 
L 109.265418 214.604187 
L 109.378174 214.438606 
L 109.451471 214.328909 
L 109.560681 214.159189 
L 109.562506 214.159189 
L 109.654589 214.048457 
L 109.765644 213.873562 
L 109.765685 213.873562 
L 109.828595 213.763865 
L 109.939318 213.587935 
L 109.939608 213.587935 
L 110.001854 213.478238 
L 110.114692 213.304378 
L 110.188467 213.193646 
L 110.306945 213.010472 
L 110.374022 212.900775 
L 110.487959 212.757961 
L 110.552175 212.648264 
L 110.660431 212.439218 
L 110.66296 212.439218 
L 110.713885 212.328486 
L 110.824194 212.161871 
L 110.82494 212.161871 
L 110.901493 212.052173 
L 111.015969 211.884523 
L 111.082922 211.774826 
L 111.193769 211.581303 
L 111.193977 211.581303 
L 111.248012 211.470571 
L 111.355708 211.288432 
L 111.359108 211.288432 
L 111.440222 211.1777 
L 111.549992 211.013154 
L 111.551278 211.013154 
L 111.621112 210.903457 
L 111.735713 210.729597 
L 111.787384 210.618865 
L 111.910901 210.414993 
L 111.987661 210.305296 
L 112.098695 210.141785 
L 112.098737 210.141785 
L 112.153145 210.031053 
L 112.27237 209.829251 
L 112.335776 209.719554 
L 112.445981 209.562252 
L 112.44679 209.562252 
L 112.509471 209.452555 
L 112.622061 209.299393 
L 112.683602 209.189696 
L 112.792189 208.990999 
L 112.794698 208.990999 
L 112.856944 208.881302 
L 112.967502 208.730209 
L 112.967833 208.730209 
L 113.044552 208.620512 
L 113.155566 208.451826 
L 113.155607 208.451826 
L 113.227681 208.341094 
L 113.33828 208.140328 
L 113.338778 208.140328 
L 113.407824 208.03063 
L 113.518921 207.821585 
L 113.569058 207.711887 
L 113.678765 207.51526 
L 113.680154 207.51526 
L 113.73618 207.405563 
L 113.73618 207.404528 
L 113.856379 207.177889 
L 113.928909 207.068192 
L 114.038077 206.855007 
L 114.039985 206.855007 
L 114.116973 206.74531 
L 114.230226 206.530055 
L 114.282084 206.419322 
L 114.392309 206.184405 
L 114.393118 206.184405 
L 114.455571 206.073673 
L 114.571416 205.836685 
L 114.631464 205.726988 
L 114.74198 205.53243 
L 114.742498 205.53243 
L 114.795393 205.421698 
L 114.910512 205.219897 
L 114.966102 205.110199 
L 115.077136 204.907363 
L 115.077178 204.907363 
L 115.159847 204.796631 
L 115.269575 204.617597 
L 115.270923 204.617597 
L 115.338829 204.506865 
L 115.449822 204.276086 
L 115.449905 204.276086 
L 115.501784 204.166389 
L 115.612258 203.942855 
L 115.612839 203.942855 
L 115.670274 203.833158 
L 115.786015 203.601345 
L 115.84399 203.490613 
L 115.952515 203.263974 
L 115.955086 203.263974 
L 116.016088 203.153242 
L 116.127102 202.936952 
L 116.199756 202.82622 
L 116.313548 202.614069 
L 116.367479 202.503337 
L 116.47841 202.284978 
L 116.478576 202.284978 
L 116.533461 202.174245 
L 116.64348 201.964165 
L 116.644516 201.964165 
L 116.712091 201.853433 
L 116.822545 201.65991 
L 116.823167 201.65991 
L 116.890016 201.550213 
L 117.001009 201.343237 
L 117.001071 201.343237 
L 117.056412 201.23354 
L 117.056412 201.232505 
L 117.171842 201.016215 
L 117.242382 200.905483 
L 117.364882 200.622961 
L 117.414397 200.512228 
L 117.524623 200.304218 
L 117.525452 200.304218 
L 117.5793 200.193485 
L 117.694855 199.970986 
L 117.755774 199.861289 
L 117.871308 199.637755 
L 117.937389 199.527023 
L 118.04805 199.304524 
L 118.048465 199.304524 
L 118.09939 199.194826 
L 118.09939 199.193792 
L 118.217702 199.014757 
L 118.276132 198.90506 
L 118.400707 198.683596 
L 118.466498 198.573898 
L 118.579399 198.393829 
L 118.630199 198.283097 
L 118.740819 198.087505 
L 118.741213 198.087505 
L 118.795372 197.977808 
L 118.905432 197.791529 
L 118.906468 197.791529 
L 118.969626 197.680797 
L 119.079935 197.491414 
L 119.080723 197.491414 
L 119.154248 197.380682 
L 119.26323 197.230624 
L 119.265324 197.230624 
L 119.31967 197.120927 
L 119.429647 196.92223 
L 119.430746 196.92223 
L 119.486834 196.811498 
L 119.605105 196.634534 
L 119.700049 196.523802 
L 119.815272 196.31786 
L 119.88042 196.208163 
L 119.990107 196.038443 
L 119.991517 196.038443 
L 120.057661 195.927711 
L 120.176181 195.744537 
L 120.239567 195.633805 
L 120.358335 195.444422 
L 120.412681 195.334725 
L 120.52301 195.131888 
L 120.523778 195.131888 
L 120.603109 195.021156 
L 120.714122 194.810041 
L 120.781262 194.699308 
L 120.899408 194.525449 
L 120.966651 194.417821 
L 120.966651 194.415751 
L 121.082123 194.198427 
L 121.161412 194.087694 
L 121.272509 193.904521 
L 121.339026 193.794823 
L 121.449044 193.598196 
L 121.450081 193.598196 
L 121.511684 193.488499 
L 121.511684 193.487464 
L 121.635823 193.273244 
L 121.706155 193.162512 
L 121.8158 192.993826 
L 121.81721 192.993826 
L 121.878627 192.883094 
L 121.998888 192.654386 
L 122.055494 192.545723 
L 122.166508 192.35634 
L 122.166591 192.35634 
L 122.230371 192.246643 
L 122.339705 192.029318 
L 122.341467 192.029318 
L 122.412028 191.918586 
L 122.526628 191.741622 
L 122.604011 191.63089 
L 122.713677 191.420809 
L 122.715107 191.420809 
L 122.793028 191.310077 
L 122.903586 191.093787 
L 122.904125 191.093787 
L 122.957579 190.98409 
L 123.068406 190.791602 
L 123.068469 190.791602 
L 123.134861 190.68087 
L 123.244361 190.452162 
L 123.245958 190.452162 
L 123.310422 190.342464 
L 123.419985 190.160325 
L 123.421519 190.160325 
L 123.486709 190.050628 
L 123.597578 189.820885 
L 123.597723 189.820885 
L 123.674586 189.711188 
L 123.785683 189.5187 
L 123.900761 189.320003 
L 123.957615 189.209271 
L 124.077462 188.992981 
L 124.133695 188.882249 
L 124.254101 188.651471 
L 124.325346 188.540739 
L 124.434286 188.334797 
L 124.436422 188.334797 
L 124.492779 188.2251 
L 124.60033 188.05538 
L 124.603813 188.05538 
L 124.687188 187.944648 
L 124.797808 187.759404 
L 124.798243 187.759404 
L 124.859079 187.649707 
L 124.859079 187.648672 
L 124.974011 187.457219 
L 125.044095 187.347522 
L 125.153512 187.167453 
L 125.155191 187.167453 
L 125.2068 187.057756 
L 125.317835 186.832152 
L 125.382403 186.72142 
L 125.49775 186.5072 
L 125.553402 186.397502 
L 125.663814 186.180178 
L 125.664499 186.180178 
L 125.730352 186.07048 
L 125.843543 185.861435 
L 125.902637 185.753807 
L 125.902637 185.751737 
L 126.018026 185.534413 
L 126.085497 185.423681 
L 126.206505 185.176344 
L 126.274598 185.066647 
L 126.384782 184.824485 
L 126.385653 184.824485 
L 126.442217 184.716858 
L 126.442217 184.713753 
L 126.550929 184.518161 
L 126.553127 184.518161 
L 126.608365 184.408463 
L 126.72168 184.186999 
L 126.768831 184.077302 
L 126.887454 183.891023 
L 126.944537 183.780291 
L 127.05356 183.58056 
L 127.055633 183.58056 
L 127.121238 183.470862 
L 127.234533 183.249398 
L 127.296654 183.139701 
L 127.416936 182.912027 
L 127.473127 182.801295 
L 127.60782 182.510494 
L 127.674897 182.399762 
L 127.789643 182.218658 
L 127.840775 182.10896 
L 127.956806 181.85024 
L 128.01165 181.740543 
L 128.126437 181.552195 
L 128.183396 181.442498 
L 128.28991 181.270708 
L 128.294492 181.270708 
L 128.361673 181.159976 
L 128.471401 180.966453 
L 128.47277 180.966453 
L 128.535865 180.855721 
L 128.651275 180.641501 
L 128.716071 180.530769 
L 128.825509 180.343455 
L 128.827147 180.343455 
L 128.883691 180.233758 
L 128.999971 180.059898 
L 129.067089 179.950201 
L 129.177833 179.737016 
L 129.178165 179.737016 
L 129.236222 179.627319 
L 129.236222 179.626284 
L 129.367038 179.434831 
L 129.428724 179.325134 
L 129.539281 179.130576 
L 129.539779 179.130576 
L 129.601403 179.020879 
L 129.714241 178.832531 
L 129.779701 178.722834 
L 129.899755 178.501369 
L 129.970937 178.390637 
L 130.091738 178.14951 
L 130.146643 178.039813 
L 130.262115 177.822488 
L 130.320504 177.712791 
L 130.440973 177.480978 
L 130.512072 177.371281 
L 130.621614 177.162235 
L 130.623169 177.162235 
L 130.696197 177.051503 
L 130.805883 176.86005 
L 130.807293 176.86005 
L 130.875884 176.750353 
L 130.985405 176.533028 
L 130.986939 176.533028 
L 131.066519 176.422296 
L 131.198931 176.160471 
L 131.267978 176.049739 
L 131.376752 175.881054 
L 131.379054 175.881054 
L 131.448784 175.770321 
L 131.567677 175.576799 
L 131.636144 175.466067 
L 131.751574 175.247707 
L 131.81102 175.136975 
L 131.919919 174.928964 
L 131.922117 174.928964 
L 131.965598 174.819267 
L 132.083744 174.645407 
L 132.151319 174.534675 
L 132.262415 174.353571 
L 132.332126 174.242839 
L 132.446581 174.074153 
L 132.53601 173.964456 
L 132.646796 173.798875 
L 132.647107 173.798875 
L 132.709788 173.688143 
L 132.819889 173.492551 
L 132.820885 173.492551 
L 132.900382 173.382854 
L 132.900382 173.381819 
L 133.01774 173.227622 
L 133.084009 173.11689 
L 133.193426 172.956483 
L 133.195022 172.956483 
L 133.271533 172.845751 
L 133.380971 172.674996 
L 133.382547 172.674996 
L 133.446016 172.564264 
L 133.553837 172.407997 
L 133.557113 172.407997 
L 133.621204 172.2983 
L 133.621204 172.297265 
L 133.740387 172.097533 
L 133.817935 171.987836 
L 133.929011 171.803627 
L 134.024536 171.69393 
L 134.024536 171.692895 
L 134.148488 171.480745 
L 134.210838 171.371047 
L 134.210838 171.370012 
L 134.326289 171.153723 
L 134.400457 171.044025 
L 134.513067 170.890863 
L 134.579999 170.782201 
L 134.692402 170.584539 
L 134.777248 170.473807 
L 134.895167 170.305121 
L 134.962617 170.194389 
L 135.073009 170.029843 
L 135.073589 170.029843 
L 135.153687 169.919111 
L 135.26128 169.769053 
L 135.264784 169.769053 
L 135.321742 169.659356 
L 135.430828 169.508264 
L 135.432818 169.508264 
L 135.519158 169.397532 
L 135.629031 169.212288 
L 135.630213 169.212288 
L 135.705003 169.102591 
L 135.705003 169.101556 
L 135.823316 168.920452 
L 135.90922 168.810755 
L 136.024318 168.612058 
L 136.088015 168.50236 
L 136.202181 168.349198 
L 136.279397 168.239501 
L 136.392111 168.07185 
L 136.463687 167.962153 
L 136.463687 167.961118 
L 136.590128 167.773805 
L 136.669334 167.663073 
L 136.78039 167.51198 
L 136.862043 167.401248 
L 136.986907 167.231528 
L 137.060765 167.121831 
L 137.171281 166.981087 
L 137.17182 166.981087 
L 137.24746 166.870355 
L 137.357956 166.740995 
L 137.358557 166.740995 
L 137.440832 166.631298 
L 137.556656 166.395345 
L 137.649714 166.284613 
L 137.768234 166.09937 
L 137.843584 165.989672 
L 137.951218 165.830301 
L 137.954639 165.830301 
L 138.032436 165.720603 
L 138.143097 165.561232 
L 138.143532 165.561232 
L 138.205654 165.451535 
L 138.31617 165.292163 
L 138.31675 165.292163 
L 138.383952 165.181431 
L 138.495048 165.021025 
L 138.566065 164.910293 
L 138.680603 164.739537 
L 138.756202 164.628805 
L 138.872234 164.466329 
L 138.958076 164.358702 
L 138.958076 164.356632 
L 139.06826 164.226237 
L 139.069131 164.226237 
L 139.172079 164.115505 
L 139.293854 163.94061 
L 139.381748 163.830913 
L 139.490129 163.669472 
L 139.492824 163.669472 
L 139.573483 163.559774 
L 139.680059 163.381775 
L 139.684496 163.381775 
L 139.804633 163.203776 
L 139.878034 163.094078 
L 139.988882 162.938847 
L 139.989131 162.938847 
L 140.072132 162.829149 
L 140.072132 162.828114 
L 140.193576 162.659429 
L 140.287566 162.548697 
L 140.405609 162.375872 
L 140.484173 162.266175 
L 140.595104 162.106803 
L 140.595228 162.106803 
L 140.666949 161.997106 
L 140.77732 161.823246 
L 140.778005 161.823246 
L 140.855511 161.712514 
L 140.965571 161.587293 
L 140.966566 161.587293 
L 141.062527 161.477596 
L 141.172317 161.312015 
L 141.173603 161.312015 
L 141.261145 161.206458 
L 141.261145 161.202318 
L 141.372117 161.026389 
L 141.372241 161.026389 
L 141.471499 160.916691 
L 141.580107 160.749041 
L 141.582554 160.749041 
L 141.668852 160.638309 
L 141.779326 160.473763 
L 141.779928 160.473763 
L 141.856833 160.364065 
L 141.966395 160.215043 
L 141.96793 160.215043 
L 142.051076 160.10638 
L 142.160949 159.972881 
L 142.162069 159.972881 
L 142.22757 159.863184 
L 142.338045 159.683115 
L 142.338646 159.683115 
L 142.44205 159.573417 
L 142.551571 159.405767 
L 142.553147 159.405767 
L 142.63028 159.295035 
L 142.753963 159.089094 
L 142.807977 158.978361 
L 142.922578 158.799327 
L 142.981609 158.68963 
L 143.090446 158.486793 
L 143.092706 158.486793 
L 143.170586 158.376061 
L 143.287675 158.228074 
L 143.391576 158.117341 
L 143.501574 157.959005 
L 143.502673 157.959005 
L 143.587686 157.848273 
L 143.69872 157.692006 
L 143.767787 157.582309 
L 143.880501 157.418798 
L 143.995724 157.3091 
L 144.110781 157.110403 
L 144.187293 156.999671 
L 144.296046 156.841335 
L 144.298389 156.841335 
L 144.404427 156.730602 
L 144.513035 156.590894 
L 144.515461 156.590894 
L 144.586664 156.481196 
L 144.699337 156.321825 
L 144.781467 156.212128 
L 144.892149 156.085872 
L 144.892522 156.085872 
L 144.961299 155.976175 
L 145.07872 155.767129 
L 145.150898 155.656397 
L 145.259237 155.475293 
L 145.261974 155.475293 
L 145.364238 155.365596 
L 145.476972 155.197945 
L 145.550954 155.088248 
L 145.550954 155.087213 
L 145.665617 154.906109 
L 145.760022 154.795377 
L 145.873773 154.663947 
L 145.93606 154.55425 
L 146.041911 154.430065 
L 146.047157 154.430065 
L 146.14461 154.320367 
L 146.254587 154.129949 
L 146.255686 154.129949 
L 146.32579 154.019217 
L 146.440038 153.86295 
L 146.515554 153.753253 
L 146.629906 153.589742 
L 146.712991 153.480045 
L 146.821972 153.328952 
L 146.824087 153.328952 
L 146.901905 153.21822 
L 147.015407 153.09507 
L 147.106391 152.984337 
L 147.220992 152.807373 
L 147.301401 152.697676 
L 147.412 152.525886 
L 147.412498 152.525886 
L 147.506633 152.416188 
L 147.605393 152.281654 
L 147.617709 152.281654 
L 147.695133 152.171957 
L 147.695133 152.170922 
L 147.816617 152.000167 
L 147.889127 151.889435 
L 148.003707 151.71661 
L 148.071675 151.606912 
L 148.184348 151.449611 
L 148.302163 151.28403 
L 148.388398 151.174333 
L 148.502771 151.006682 
L 148.585648 150.896985 
L 148.703857 150.721055 
L 148.804337 150.611358 
L 148.91533 150.429219 
L 148.915434 150.429219 
L 148.99207 150.318487 
L 149.10213 150.16015 
L 149.103042 150.16015 
L 149.189858 150.050453 
L 149.300955 149.889012 
L 149.364507 149.779315 
L 149.479066 149.607525 
L 149.5613 149.497827 
L 149.673807 149.357084 
L 149.756974 149.246352 
L 149.870932 149.104573 
L 149.947837 148.993841 
L 150.058581 148.822051 
L 150.058913 148.822051 
L 150.131816 148.711319 
L 150.257925 148.566435 
L 150.356705 148.455703 
L 150.470083 148.340832 
L 150.546967 148.231134 
L 150.661008 148.084181 
L 150.739365 147.973449 
L 150.857698 147.794415 
L 150.941653 147.684718 
L 151.051899 147.521207 
L 151.052729 147.521207 
L 151.132267 147.410475 
L 151.238968 147.252138 
L 151.243364 147.252138 
L 151.347266 147.142441 
L 151.347266 147.141406 
L 151.4645 146.989279 
L 151.537424 146.879581 
L 151.537424 146.878546 
L 151.655964 146.757466 
L 151.737141 146.646733 
L 151.854665 146.488397 
L 151.941005 146.3787 
L 152.051708 146.20484 
L 152.052102 146.20484 
L 152.141178 146.094108 
L 152.246054 145.954399 
L 152.252275 145.954399 
L 152.313712 145.844702 
L 152.427939 145.68947 
L 152.512661 145.578737 
L 152.628776 145.455587 
L 152.717106 145.344855 
L 152.822127 145.203076 
L 152.828182 145.203076 
L 152.925863 145.092344 
L 153.035799 144.925728 
L 153.03696 144.925728 
L 153.142583 144.814996 
L 153.256707 144.664939 
L 153.350884 144.554206 
L 153.467848 144.408288 
L 153.55029 144.297556 
L 153.660495 144.182685 
L 153.661366 144.182685 
L 153.742687 144.071952 
L 153.862389 143.932244 
L 153.950325 143.822546 
L 153.950325 143.821511 
L 154.066336 143.700431 
L 154.162275 143.590733 
L 154.272335 143.474827 
L 154.273351 143.474827 
L 154.360728 143.364095 
L 154.474706 143.218177 
L 154.580847 143.108479 
L 154.690659 142.980154 
L 154.691923 142.980154 
L 154.771835 142.869422 
L 154.890148 142.690388 
L 154.979576 142.580691 
L 155.091793 142.468924 
L 155.187857 142.359226 
L 155.301608 142.226762 
L 155.400885 142.117064 
L 155.509577 141.98253 
L 155.511982 141.98253 
L 155.587332 141.872833 
L 155.695153 141.763135 
L 155.698429 141.763135 
L 155.797748 141.653438 
L 155.908596 141.500276 
L 155.908804 141.500276 
L 156.012187 141.390579 
L 156.126021 141.253975 
L 156.21348 141.144277 
L 156.21348 141.143242 
L 156.327189 141.011813 
L 156.427172 140.902115 
L 156.535739 140.782069 
L 156.538227 140.782069 
L 156.630165 140.671337 
L 156.740308 140.52128 
L 156.741241 140.52128 
L 156.850202 140.410548 
L 156.960386 140.285327 
L 156.961299 140.285327 
L 157.048447 140.174595 
L 157.163006 140.00177 
L 157.24383 139.891038 
L 157.350987 139.780306 
L 157.354927 139.780306 
L 157.436995 139.669574 
L 157.552031 139.57126 
L 157.633104 139.461563 
L 157.745942 139.372563 
L 157.834811 139.261831 
L 157.948935 139.105564 
L 158.035814 138.994832 
L 158.144298 138.861332 
L 158.146911 138.861332 
L 158.237729 138.751635 
L 158.347644 138.635729 
L 158.348826 138.635729 
L 158.432863 138.526031 
L 158.543815 138.393567 
L 158.543939 138.393567 
L 158.699782 138.282835 
L 158.809883 138.163823 
L 158.810858 138.163823 
L 158.890914 138.054126 
L 159.00678 137.93615 
L 159.104254 137.826453 
L 159.104254 137.825418 
L 159.223562 137.691918 
L 159.34853 137.581186 
L 159.45859 137.470454 
L 159.459606 137.470454 
L 159.567157 137.359722 
L 159.677963 137.24692 
L 159.678233 137.24692 
L 159.775417 137.136188 
L 159.886513 137.017177 
L 159.997112 136.907479 
L 160.110988 136.768805 
L 160.214682 136.659108 
L 160.326795 136.547341 
L 160.409029 136.437644 
L 160.516994 136.327947 
L 160.520105 136.327947 
L 160.630227 136.217214 
L 160.746383 136.091994 
L 160.85777 135.982297 
L 160.968866 135.87053 
L 161.093462 135.760832 
L 161.205968 135.618019 
L 161.306926 135.508322 
L 161.423082 135.384136 
L 161.517819 135.273404 
L 161.63414 135.144044 
L 161.736985 135.033312 
L 161.850611 134.908091 
L 161.937593 134.798394 
L 162.045393 134.686627 
L 162.048669 134.686627 
L 162.146454 134.575895 
L 162.254379 134.469302 
L 162.257468 134.469302 
L 162.347975 134.359605 
L 162.463053 134.227141 
L 162.563139 134.116408 
L 162.676268 134.016025 
L 162.784545 133.906328 
L 162.899353 133.815258 
L 163.012959 133.705561 
L 163.126191 133.595864 
L 163.243653 133.485132 
L 163.359187 133.376469 
L 163.441566 133.265737 
L 163.551585 133.146726 
L 163.552622 133.146726 
L 163.640869 133.037029 
L 163.75039 132.929401 
L 163.751903 132.929401 
L 163.869573 132.818669 
L 163.979819 132.672751 
L 163.98067 132.672751 
L 164.102362 132.563054 
L 164.102362 132.562019 
L 164.217958 132.451287 
L 164.323892 132.34159 
L 164.436232 132.217404 
L 164.525495 132.106672 
L 164.634456 131.981451 
L 164.636571 131.981451 
L 164.754573 131.870719 
L 164.863098 131.776545 
L 164.865669 131.776545 
L 164.972598 131.665813 
L 165.085997 131.550941 
L 165.196471 131.441244 
L 165.304562 131.327407 
L 165.307527 131.327407 
L 165.424782 131.21771 
L 165.534282 131.103873 
L 165.535878 131.103873 
L 165.637644 130.994176 
L 165.745071 130.86999 
L 165.748741 130.86999 
L 165.85764 130.760293 
L 165.968135 130.665084 
L 165.968716 130.665084 
L 166.062126 130.554352 
L 166.178406 130.427062 
L 166.287637 130.317365 
L 166.399895 130.201458 
L 166.514786 130.091761 
L 166.625157 129.996552 
L 166.625862 129.996552 
L 166.733288 129.886855 
L 166.845339 129.787506 
L 166.939537 129.677809 
L 166.939537 129.676774 
L 167.05337 129.541205 
L 167.167142 129.431507 
L 167.279856 129.309392 
L 167.381705 129.198659 
L 167.504206 129.089997 
L 167.649038 128.9803 
L 167.757439 128.866463 
L 167.760114 128.866463 
L 167.865944 128.756766 
L 167.973972 128.649138 
L 167.977041 128.649138 
L 168.108996 128.539441 
L 168.226956 128.427674 
L 168.335503 128.316942 
L 168.445853 128.185512 
L 168.446599 128.185512 
L 168.578783 128.07478 
L 168.69467 127.955769 
L 168.804108 127.846072 
L 168.914313 127.740514 
L 168.915142 127.740514 
L 169.04687 127.629782 
L 169.157448 127.51905 
L 169.157925 127.51905 
L 169.255316 127.408317 
L 169.365397 127.312074 
L 169.366351 127.312074 
L 169.474399 127.201341 
L 169.590327 127.08233 
L 169.678802 126.972633 
L 169.678802 126.971598 
L 169.793673 126.877424 
L 169.891313 126.767727 
L 170.004732 126.64975 
L 170.109836 126.539018 
L 170.227444 126.432426 
L 170.333937 126.321694 
L 170.447937 126.177845 
L 170.581593 126.067113 
L 170.694618 125.9688 
L 170.806502 125.859102 
L 170.918615 125.755614 
L 171.039436 125.644882 
L 171.150347 125.525871 
L 171.150512 125.525871 
L 171.250931 125.416174 
L 171.361157 125.312686 
L 171.362027 125.312686 
L 171.485938 125.202988 
L 171.596247 125.109849 
L 171.596931 125.109849 
L 171.720365 125.000152 
L 171.830467 124.888385 
L 171.8314 124.888385 
L 171.950023 124.778688 
L 171.950023 124.777653 
L 172.068937 124.650363 
L 172.193034 124.539631 
L 172.311678 124.449596 
L 172.439508 124.339899 
L 172.553507 124.24469 
L 172.68735 124.134992 
L 172.796995 124.033574 
L 172.798447 124.033574 
L 172.88151 123.922842 
L 172.997687 123.797622 
L 173.12506 123.68689 
L 173.235742 123.565809 
L 173.236157 123.565809 
L 173.363696 123.455076 
L 173.477219 123.327786 
L 173.608138 123.217054 
L 173.718613 123.104252 
L 173.719214 123.104252 
L 173.825189 122.99352 
L 173.936203 122.895206 
L 173.936265 122.895206 
L 174.044853 122.785509 
L 174.153918 122.679951 
L 174.15595 122.679951 
L 174.311543 122.570254 
L 174.421002 122.460557 
L 174.42264 122.460557 
L 174.546883 122.35086 
L 174.659928 122.245302 
L 174.80335 122.13457 
L 174.916915 122.011419 
L 175.033257 121.901722 
L 175.140891 121.769257 
L 175.144354 121.769257 
L 175.251905 121.65956 
L 175.365303 121.545723 
L 175.46935 121.436026 
L 175.579203 121.328398 
L 175.580385 121.328398 
L 175.726088 121.217666 
L 175.841767 121.104864 
L 175.97816 120.995167 
L 176.087846 120.868912 
L 176.089256 120.868912 
L 176.217086 120.75818 
L 176.325674 120.616401 
L 176.328183 120.616401 
L 176.481143 120.505669 
L 176.593898 120.421844 
L 176.700682 120.311112 
L 176.811281 120.204519 
L 176.811738 120.204519 
L 176.912342 120.094822 
L 176.912342 120.093787 
L 177.02771 119.989264 
L 177.132711 119.878532 
L 177.239599 119.798846 
L 177.243766 119.798846 
L 177.358678 119.689149 
L 177.453519 119.614637 
L 177.469775 119.614637 
L 177.61216 119.503905 
L 177.723112 119.42008 
L 177.723195 119.42008 
L 177.858406 119.310383 
L 177.966807 119.196546 
L 177.969482 119.196546 
L 178.103594 119.086849 
L 178.213488 119.010268 
L 178.214691 119.010268 
L 178.327198 118.90057 
L 178.436428 118.803292 
L 178.438274 118.803292 
L 178.561044 118.692559 
L 178.66731 118.569409 
L 178.672141 118.569409 
L 178.784274 118.458677 
L 178.909222 118.350014 
L 179.024134 118.240317 
L 179.131933 118.138899 
L 179.13523 118.138899 
L 179.258312 118.029202 
L 179.258312 118.028167 
L 179.374136 117.91226 
L 179.508684 117.801528 
L 179.625814 117.704249 
L 179.733241 117.593517 
L 179.848028 117.503483 
L 180.009033 117.39275 
L 180.121913 117.302716 
L 180.216899 117.193019 
L 180.330049 117.0916 
L 180.439984 116.980868 
L 180.550459 116.888764 
L 180.551081 116.888764 
L 180.70402 116.779067 
L 180.811219 116.677648 
L 180.815117 116.677648 
L 180.946036 116.566916 
L 181.05622 116.460324 
L 181.057133 116.460324 
L 181.169598 116.350626 
L 181.278289 116.257487 
L 181.280653 116.257487 
L 181.425091 116.14779 
L 181.425091 116.146755 
L 181.537764 116.067069 
L 181.66466 115.957372 
L 181.66466 115.956337 
L 181.779033 115.874582 
L 181.916712 115.764884 
L 181.916712 115.76385 
L 182.029965 115.653117 
L 182.161506 115.542385 
L 182.271545 115.446141 
L 182.272603 115.446141 
L 182.368335 115.336444 
L 182.480199 115.253654 
L 182.609169 115.143957 
L 182.719312 115.075654 
L 182.720224 115.075654 
L 182.856452 114.965957 
L 182.96676 114.897655 
L 182.967527 114.897655 
L 183.093367 114.786923 
L 183.198637 114.707237 
L 183.204422 114.707237 
L 183.381704 114.596505 
L 183.494812 114.494052 
L 183.622932 114.38332 
L 183.732805 114.299495 
L 183.734028 114.299495 
L 183.884231 114.189797 
L 183.996136 114.104937 
L 184.131493 113.99524 
L 184.243439 113.91038 
L 184.386633 113.799648 
L 184.497564 113.724101 
L 184.49773 113.724101 
L 184.66141 113.613369 
L 184.7757 113.535753 
L 184.959555 113.425021 
L 185.072435 113.337056 
L 185.205572 113.226324 
L 185.314699 113.13422 
L 185.316669 113.13422 
L 185.456421 113.023488 
L 185.563972 112.947942 
L 185.567435 112.947942 
L 185.698313 112.837209 
L 185.809389 112.751314 
L 185.946134 112.641617 
L 186.056713 112.567106 
L 186.057189 112.567106 
L 186.175834 112.457409 
L 186.286599 112.382897 
L 186.28693 112.382897 
L 186.425729 112.2732 
L 186.533715 112.221456 
L 186.536805 112.221456 
L 186.670896 112.111759 
L 186.779982 112.041387 
L 186.781972 112.041387 
L 186.964811 111.930655 
L 187.075389 111.836481 
L 187.075887 111.836481 
L 187.232766 111.726783 
L 187.339716 111.650202 
L 187.34378 111.650202 
L 187.490416 111.540505 
L 187.601098 111.447366 
L 187.601512 111.447366 
L 187.757292 111.337669 
L 187.869924 111.261087 
L 188.044572 111.15139 
L 188.150941 111.074809 
L 188.155627 111.074809 
L 188.317669 110.964077 
L 188.437516 110.882321 
L 188.630826 110.771589 
L 188.735184 110.700183 
L 188.741923 110.700183 
L 188.890135 110.590485 
L 189.002061 110.507695 
L 189.136816 110.397998 
L 189.248804 110.306928 
L 189.467265 110.197231 
L 189.576496 110.112371 
L 189.578341 110.112371 
L 189.793982 110.002674 
L 189.90595 109.915744 
L 190.103075 109.805012 
L 190.215416 109.741884 
L 190.389878 109.631152 
L 190.49774 109.553536 
L 190.500892 109.553536 
L 190.649104 109.443838 
L 190.76188 109.361048 
L 190.93402 109.251351 
L 191.045718 109.191328 
L 191.233678 109.081631 
L 191.342058 109.007119 
L 191.344775 109.007119 
L 191.54248 108.897422 
L 191.649202 108.82912 
L 191.653577 108.82912 
L 191.902767 108.718388 
L 192.013076 108.65526 
L 192.013864 108.65526 
L 192.166782 108.545563 
L 192.276614 108.48761 
L 192.277879 108.48761 
L 192.456571 108.377912 
L 192.568228 108.30961 
L 192.749781 108.199913 
L 192.860256 108.13989 
L 192.860857 108.13989 
L 193.025014 108.030193 
L 193.135364 107.949472 
L 193.136111 107.949472 
L 193.327554 107.839775 
L 193.43807 107.746636 
L 193.438651 107.746636 
L 193.652157 107.635903 
L 193.762528 107.574845 
L 193.763253 107.574845 
L 193.968693 107.465148 
L 194.078089 107.382358 
L 194.079748 107.382358 
L 194.253174 107.272661 
L 194.365348 107.165033 
L 194.545471 107.054301 
L 194.655324 106.984964 
L 194.656526 106.984964 
L 194.858089 106.875267 
L 194.965184 106.811104 
L 194.969185 106.811104 
L 195.168736 106.701407 
L 195.278195 106.637244 
L 195.279833 106.637244 
L 195.450356 106.527547 
L 195.56081 106.436478 
L 195.561411 106.436478 
L 195.723971 106.325746 
L 195.829552 106.266757 
L 195.835068 106.266757 
L 196.026449 106.158095 
L 196.137878 106.099107 
L 196.327601 105.98941 
L 196.438386 105.919038 
L 196.43849 105.919038 
L 196.652431 105.808306 
L 196.754529 105.734829 
L 196.763445 105.734829 
L 196.934009 105.624097 
L 197.043841 105.569248 
L 197.045105 105.569248 
L 197.26506 105.459551 
L 197.373067 105.399528 
L 197.376135 105.399528 
L 197.615725 105.289831 
L 197.725412 105.21118 
L 197.726822 105.21118 
L 197.933941 105.100448 
L 198.044395 105.031111 
L 198.044934 105.031111 
L 198.223647 104.921414 
L 198.335594 104.836553 
L 198.512876 104.726856 
L 198.512876 104.725821 
L 198.626523 104.663729 
L 198.829039 104.552996 
L 198.93885 104.486764 
L 198.940136 104.486764 
L 199.158721 104.376032 
L 199.272285 104.314974 
L 199.472272 104.205277 
L 199.5662 104.143184 
L 199.583369 104.143184 
L 199.790052 104.033487 
L 199.901937 103.952766 
L 200.115505 103.843069 
L 200.227141 103.789255 
L 200.444503 103.678523 
L 200.553816 103.615395 
L 200.555579 103.615395 
L 200.793137 103.504663 
L 200.89907 103.464303 
L 200.904171 103.464303 
L 201.085144 103.353571 
L 201.201093 103.275955 
L 201.392682 103.165223 
L 201.499258 103.102095 
L 201.503612 103.102095 
L 201.673077 102.991363 
L 201.783697 102.932375 
L 201.784133 102.932375 
L 202.009084 102.822677 
L 202.117506 102.744026 
L 202.120139 102.744026 
L 202.30277 102.634329 
L 202.410902 102.563957 
L 202.413867 102.563957 
L 202.630773 102.45426 
L 202.742388 102.399411 
L 202.959377 102.288679 
L 203.071573 102.232796 
L 203.273654 102.123099 
L 203.273654 102.122064 
L 203.38757 102.052727 
L 203.631639 101.941995 
L 203.744 101.874727 
L 203.933226 101.76503 
L 204.042187 101.692589 
L 204.044281 101.692589 
L 204.198672 101.582891 
L 204.310307 101.529078 
L 204.532045 101.418345 
L 204.63858 101.369706 
L 204.643141 101.369706 
L 204.815094 101.258974 
L 204.923537 101.185497 
L 204.926129 101.185497 
L 205.113778 101.0758 
L 205.219982 100.99094 
L 205.224834 100.99094 
L 205.438588 100.881243 
L 205.548254 100.833638 
L 205.549685 100.833638 
L 205.716869 100.722906 
L 205.822326 100.663918 
L 205.827883 100.663918 
L 205.994756 100.554221 
L 206.108341 100.494198 
L 206.365742 100.3845 
L 206.365742 100.383466 
L 206.476797 100.318268 
L 206.476838 100.318268 
L 206.660983 100.208571 
L 206.768783 100.148548 
L 206.772059 100.148548 
L 206.975467 100.037816 
L 207.07375 99.966409 
L 207.086502 99.966409 
L 207.326983 99.855677 
L 207.432087 99.798758 
L 207.438059 99.798758 
L 207.687 99.689061 
L 207.796666 99.643526 
L 207.798097 99.643526 
L 208.037334 99.533829 
L 208.135057 99.473806 
L 208.14839 99.473806 
L 208.332099 99.364109 
L 208.442325 99.306156 
L 208.443196 99.306156 
L 208.671776 99.195424 
L 208.784199 99.130226 
L 208.990593 99.020529 
L 209.097501 98.964645 
L 209.101669 98.964645 
L 209.356333 98.853913 
L 209.466497 98.792855 
L 209.467409 98.792855 
L 209.678571 98.682123 
L 209.783054 98.621065 
L 209.789647 98.621065 
L 209.96102 98.510333 
L 210.070582 98.443066 
L 210.072075 98.443066 
L 210.345732 98.333369 
L 210.452018 98.279555 
L 210.456808 98.279555 
L 210.684994 98.169858 
L 210.791695 98.122253 
L 210.796091 98.122253 
L 211.03763 98.011521 
L 211.145969 97.956672 
L 211.148664 97.956672 
L 211.3444 97.846975 
L 211.456637 97.789022 
L 211.727619 97.67829 
L 211.842034 97.639999 
L 212.167092 97.529267 
L 212.282916 97.474418 
L 212.50513 97.364721 
L 212.607933 97.312977 
L 212.616206 97.312977 
L 212.853059 97.202245 
L 212.964073 97.124629 
L 212.964135 97.124629 
L 213.210402 97.014932 
L 213.308767 96.971467 
L 213.321457 96.971467 
L 213.529924 96.86177 
L 213.641974 96.814165 
L 213.891372 96.704468 
L 213.994133 96.654794 
L 214.002468 96.654794 
L 214.352761 96.544061 
L 214.459918 96.487143 
L 214.463754 96.487143 
L 214.768534 96.376411 
L 214.883363 96.329841 
L 215.149514 96.220144 
L 215.253105 96.176679 
L 215.260569 96.176679 
L 215.509718 96.065947 
L 215.620296 95.99661 
L 215.620731 95.99661 
L 215.977701 95.886913 
L 216.087636 95.837238 
L 216.088756 95.837238 
L 216.438302 95.726506 
L 216.55027 95.684076 
L 216.854676 95.573344 
L 216.967867 95.516426 
L 217.251518 95.405694 
L 217.362283 95.348775 
L 217.362449 95.348775 
L 217.68898 95.238043 
L 217.801569 95.201822 
L 218.118438 95.092125 
L 218.231152 95.040381 
L 218.548849 94.930684 
L 218.651486 94.897568 
L 218.659946 94.897568 
L 219.024628 94.78787 
L 219.129961 94.758894 
L 219.135704 94.758894 
L 219.491616 94.649196 
L 219.491616 94.648162 
L 219.60545 94.61815 
L 219.947676 94.508453 
L 220.059374 94.44843 
L 220.440106 94.338733 
L 220.550788 94.297337 
L 220.551202 94.297337 
L 220.859735 94.18764 
L 220.966167 94.154524 
L 220.97079 94.154524 
L 221.294024 94.044827 
L 221.405266 94.01585 
L 221.753319 93.905118 
L 221.866407 93.875106 
L 222.337292 93.764374 
L 222.439432 93.734363 
L 222.448389 93.734363 
L 222.761691 93.624665 
L 222.869491 93.58948 
L 222.872788 93.58948 
L 223.2118 93.479782 
L 223.323602 93.442527 
L 223.849684 93.332829 
L 223.955555 93.310062 
L 223.960698 93.310062 
L 224.392561 93.200365 
L 224.489433 93.15483 
L 224.503616 93.15483 
L 225.002473 93.045133 
L 225.105835 93.018226 
L 225.113466 93.018226 
L 225.688025 92.908529 
L 225.788962 92.879552 
L 225.798998 92.879552 
L 226.307206 92.769855 
L 226.416146 92.742948 
L 226.418282 92.742948 
L 226.860367 92.632216 
L 226.952595 92.616692 
L 226.971443 92.616692 
L 227.515917 92.50596 
L 227.614946 92.486298 
L 227.626972 92.486298 
L 228.259588 92.3766 
L 228.350821 92.353833 
L 228.370685 92.353833 
L 228.911986 92.244136 
L 229.014747 92.217229 
L 229.023083 92.217229 
L 229.508732 92.107532 
L 229.615142 92.080625 
L 229.619828 92.080625 
L 230.277078 91.970927 
L 230.381664 91.941951 
L 230.38805 91.941951 
L 231.047913 91.832254 
L 231.158636 91.821905 
L 231.159009 91.821905 
L 231.758285 91.712207 
L 231.860424 91.695649 
L 231.86934 91.695649 
L 232.515351 91.585952 
L 232.625867 91.548696 
L 232.626427 91.548696 
L 233.328858 91.438999 
L 233.426477 91.43072 
L 233.439871 91.43072 
L 234.156049 91.321023 
L 234.265487 91.296186 
L 234.267104 91.296186 
L 235.056517 91.186489 
L 235.16778 91.17821 
L 236.249594 91.067477 
L 236.355134 91.047815 
L 236.360649 91.047815 
L 237.329293 90.938117 
L 237.409827 90.925699 
L 237.44039 90.925699 
L 238.454442 90.816002 
L 238.555877 90.799443 
L 238.565539 90.799443 
L 239.802698 90.689746 
L 239.873818 90.685607 
L 239.913712 90.685607 
L 241.221824 90.574875 
L 241.311316 90.557282 
L 241.33288 90.557282 
L 242.431655 90.447584 
L 242.523302 90.431026 
L 242.542668 90.431026 
L 243.560744 90.321329 
L 243.665579 90.302701 
L 243.671799 90.302701 
L 244.768584 90.193004 
L 244.865622 90.182655 
L 244.879597 90.182655 
L 246.011589 90.072958 
L 246.076945 90.064679 
L 246.122562 90.064679 
L 247.452902 89.954982 
L 247.563252 89.938423 
L 247.563999 89.938423 
L 248.658129 89.828726 
L 248.728379 89.808029 
L 248.769226 89.808029 
L 249.634196 89.698331 
L 249.705109 89.685913 
L 249.745293 89.685913 
L 250.638628 89.576216 
L 250.746739 89.551378 
L 250.7496 89.551378 
L 251.843503 89.440646 
L 251.954848 89.429263 
L 252.760579 89.319565 
L 252.856332 89.298868 
L 252.871593 89.298868 
L 253.760781 89.18917 
L 253.869805 89.172612 
L 253.871878 89.172612 
L 254.574786 89.06188 
L 254.659093 89.042218 
L 254.685841 89.042218 
L 255.531735 88.93252 
L 255.63997 88.915962 
L 255.642832 88.915962 
L 256.460651 88.80523 
L 256.564283 88.783498 
L 256.571623 88.783498 
L 257.691009 88.6738 
L 257.770755 88.661382 
L 257.802105 88.661382 
L 258.799156 88.551685 
L 258.879316 88.537196 
L 258.91017 88.537196 
L 259.991362 88.427499 
L 260.057796 88.41922 
L 260.102417 88.41922 
L 260.845923 88.309523 
L 260.940929 88.282616 
L 260.956978 88.282616 
L 261.841149 88.172918 
L 261.944242 88.152221 
L 261.952245 88.152221 
L 262.943034 88.042524 
L 263.049984 88.030105 
L 263.054131 88.030105 
L 263.914539 87.919373 
L 264.026258 87.905919 
L 264.962307 87.796222 
L 265.050139 87.781734 
L 265.073403 87.781734 
L 265.88861 87.672037 
L 265.988137 87.653409 
L 265.999707 87.653409 
L 266.754679 87.542677 
L 266.866232 87.518874 
L 267.678184 87.408142 
L 267.78476 87.392619 
L 267.78928 87.392619 
L 268.572473 87.282922 
L 268.683486 87.262224 
L 268.683569 87.262224 
L 269.627497 87.151492 
L 269.736977 87.133899 
L 269.738594 87.133899 
L 270.411934 87.026272 
L 270.411934 87.023167 
L 270.523653 87.015923 
L 271.310702 86.906226 
L 271.421508 86.891737 
L 271.421757 86.891737 
L 272.354924 86.78204 
L 272.466414 86.763412 
L 273.151946 86.653715 
L 273.227068 86.643366 
L 273.263043 86.643366 
L 274.116858 86.533669 
L 274.228079 86.510901 
L 274.803011 86.400169 
L 274.909837 86.372228 
L 274.914108 86.372228 
L 275.625724 86.26253 
L 275.735743 86.252182 
L 275.736365 86.252182 
L 276.567745 86.141449 
L 276.668474 86.130066 
L 276.678841 86.130066 
L 277.350937 86.019334 
L 277.461163 86.00381 
L 277.461909 86.00381 
L 278.047126 85.894113 
L 278.047126 85.893078 
L 278.158638 85.873416 
L 278.760899 85.763718 
L 278.865817 85.740951 
L 278.871954 85.740951 
L 279.491301 85.631254 
L 279.594228 85.620905 
L 279.602356 85.620905 
L 280.395418 85.511208 
L 280.504711 85.49051 
L 280.506515 85.49051 
L 281.009083 85.379778 
L 281.119433 85.358045 
L 281.12018 85.358045 
L 281.86663 85.248348 
L 281.967069 85.22765 
L 281.977727 85.22765 
L 282.621582 85.116918 
L 282.72878 85.097256 
L 282.732596 85.097256 
L 283.364777 84.987558 
L 283.475687 84.968931 
L 283.475853 84.968931 
L 283.986964 84.858198 
L 284.083028 84.840605 
L 284.09804 84.840605 
L 284.767171 84.730908 
L 284.856703 84.71849 
L 284.878226 84.71849 
L 285.594735 84.607757 
L 285.695631 84.600513 
L 285.705832 84.600513 
L 286.260362 84.489781 
L 286.362729 84.478398 
L 286.371417 84.478398 
L 287.013924 84.3687 
L 287.120252 84.348003 
L 287.125 84.348003 
L 287.700928 84.238305 
L 287.78959 84.221747 
L 287.811693 84.221747 
L 288.457414 84.11205 
L 288.568718 84.099631 
L 289.172389 83.988899 
L 289.28079 83.965097 
L 289.283486 83.965097 
L 289.966156 83.854365 
L 290.075926 83.820214 
L 290.077212 83.820214 
L 290.603355 83.709482 
L 290.692494 83.691889 
L 290.714452 83.691889 
L 291.448317 83.582192 
L 291.557858 83.551145 
L 291.559372 83.551145 
L 292.469419 83.440413 
L 292.579728 83.431099 
L 292.580475 83.431099 
L 293.21898 83.320367 
L 293.317988 83.300704 
L 293.330035 83.300704 
L 293.954254 83.191007 
L 294.065579 83.16203 
L 294.658675 83.052333 
L 294.751194 83.027496 
L 294.769751 83.027496 
L 295.435772 82.917799 
L 295.547014 82.892962 
L 296.223049 82.782229 
L 296.31874 82.758427 
L 296.334146 82.758427 
L 296.905864 82.64873 
L 296.995604 82.630102 
L 297.01692 82.630102 
L 297.606076 82.520405 
L 297.70776 82.507986 
L 297.717111 82.507986 
L 298.276472 82.397254 
L 298.362853 82.377591 
L 298.387548 82.377591 
L 299.030636 82.267894 
L 299.030636 82.266859 
L 299.142126 82.247197 
L 299.694582 82.136464 
L 299.774017 82.118871 
L 299.805679 82.118871 
L 300.249796 82.009174 
L 300.359856 81.984337 
L 300.360872 81.984337 
L 301.005121 81.87464 
L 301.114974 81.851873 
L 301.116218 81.851873 
L 301.59096 81.74114 
L 301.695837 81.729757 
L 301.701974 81.729757 
L 302.430178 81.619025 
L 302.532234 81.599362 
L 302.541254 81.599362 
L 303.054625 81.489665 
L 303.166116 81.466897 
L 303.756538 81.3572 
L 303.8678 81.340642 
L 304.467677 81.22991 
L 304.570065 81.201968 
L 304.578753 81.201968 
L 305.167578 81.092271 
L 305.27602 81.063294 
L 305.278674 81.063294 
L 305.885456 80.953597 
L 305.997008 80.930829 
L 306.725275 80.821132 
L 306.836019 80.798365 
L 306.836309 80.798365 
L 307.525988 80.687633 
L 307.63302 80.6659 
L 307.637043 80.6659 
L 308.137621 80.556203 
L 308.233001 80.531366 
L 308.248676 80.531366 
L 308.77511 80.421669 
L 308.875031 80.398901 
L 308.886145 80.398901 
L 309.523489 80.288169 
L 309.618744 80.268506 
L 309.634544 80.268506 
L 310.22733 80.157774 
L 310.338717 80.140181 
L 310.887835 80.029449 
L 310.991529 80.009786 
L 310.998869 80.009786 
L 311.572288 79.900089 
L 311.673639 79.883531 
L 311.683364 79.883531 
L 312.241979 79.773834 
L 312.32048 79.767625 
L 312.353075 79.767625 
L 312.994442 79.657927 
L 313.106244 79.63516 
L 313.66718 79.524428 
L 313.761503 79.498556 
L 313.778256 79.498556 
L 314.356756 79.387824 
L 314.459268 79.355742 
L 314.467811 79.355742 
L 315.040338 79.246045 
L 315.147329 79.221208 
L 315.151435 79.221208 
L 315.584252 79.111511 
L 315.68411 79.097022 
L 315.695348 79.097022 
L 316.070087 78.98629 
L 316.181474 78.970767 
L 316.807974 78.86107 
L 316.913099 78.836233 
L 316.919071 78.836233 
L 317.507295 78.725501 
L 317.609434 78.703768 
L 317.618391 78.703768 
L 318.239355 78.593036 
L 318.34108 78.565094 
L 318.35039 78.565094 
L 318.893184 78.454362 
L 318.975335 78.434699 
L 319.00428 78.434699 
L 319.61921 78.325002 
L 319.729457 78.289816 
L 319.730307 78.289816 
L 320.283074 78.179084 
L 320.370782 78.165631 
L 320.39415 78.165631 
L 320.898958 78.055933 
L 321.009951 78.035236 
L 321.010034 78.035236 
L 321.581981 77.925538 
L 321.693119 77.91312 
L 322.307697 77.803423 
L 322.409857 77.762027 
L 322.418773 77.762027 
L 323.073016 77.65233 
L 323.073016 77.651295 
L 323.184465 77.629563 
L 323.732214 77.519866 
L 323.835743 77.490889 
L 323.84329 77.490889 
L 324.366863 77.381192 
L 324.476176 77.348075 
L 324.477939 77.348075 
L 324.966947 77.238378 
L 325.068692 77.213541 
L 325.078002 77.213541 
L 325.577502 77.102809 
L 325.689075 77.091425 
L 326.29229 76.980693 
L 326.404113 76.9631 
L 326.833467 76.853403 
L 326.945165 76.824426 
L 327.456359 76.713694 
L 327.566149 76.685752 
L 327.567394 76.685752 
L 328.06652 76.576055 
L 328.176787 76.542939 
L 328.177596 76.542939 
L 328.737455 76.433242 
L 328.841667 76.400126 
L 328.848551 76.400126 
L 329.33053 76.290428 
L 329.43213 76.269731 
L 329.441565 76.269731 
L 329.974821 76.160033 
L 329.974821 76.158999 
L 330.087452 76.122778 
L 330.470422 76.013081 
L 330.563687 75.986174 
L 330.581498 75.986174 
L 331.15838 75.876476 
L 331.249675 75.84957 
L 331.269456 75.84957 
L 331.900455 75.739872 
L 332.003382 75.712965 
L 332.011511 75.712965 
L 332.513602 75.602233 
L 332.622605 75.566012 
L 332.624678 75.566012 
L 333.088182 75.456315 
L 333.197973 75.41699 
L 333.199279 75.41699 
L 333.784413 75.306258 
L 333.873573 75.284525 
L 333.895468 75.284525 
L 334.359097 75.173793 
L 334.466607 75.1562 
L 334.470194 75.1562 
L 334.985784 75.045468 
L 335.097419 75.013387 
L 335.725475 74.903689 
L 335.835078 74.876782 
L 335.836571 74.876782 
L 336.562785 74.76605 
L 336.669009 74.72776 
L 336.673881 74.72776 
L 337.241702 74.617028 
L 337.34859 74.593225 
L 337.352799 74.593225 
L 337.943448 74.483528 
L 338.054898 74.46697 
L 338.690148 74.357273 
L 338.791375 74.330366 
L 338.801244 74.330366 
L 339.237441 74.220669 
L 339.343686 74.191692 
L 339.348475 74.191692 
L 339.806319 74.081995 
L 339.909578 74.063367 
L 339.917353 74.063367 
L 340.424027 73.95367 
L 340.535435 73.922623 
L 341.141138 73.812926 
L 341.252442 73.790159 
L 341.868036 73.679427 
L 341.962565 73.657694 
L 341.979132 73.657694 
L 342.624874 73.547997 
L 342.736178 73.525229 
L 343.28088 73.414497 
L 343.388825 73.401044 
L 343.391831 73.401044 
L 344.004004 73.290312 
L 344.117609 73.252021 
L 344.590693 73.142324 
L 344.690282 73.119557 
L 344.70179 73.119557 
L 345.372351 73.008824 
L 345.4838 72.989162 
L 346.162137 72.879464 
L 346.261519 72.856697 
L 346.273234 72.856697 
L 346.888641 72.747 
L 346.999862 72.730442 
L 347.560259 72.620744 
L 347.671501 72.602117 
L 348.249046 72.491384 
L 348.338828 72.467582 
L 348.360102 72.467582 
L 348.817178 72.35685 
L 348.91911 72.333048 
L 348.928275 72.333048 
L 349.463646 72.223351 
L 349.574846 72.210932 
L 350.183722 72.101235 
L 350.27315 72.078467 
L 350.294797 72.078467 
L 350.959076 71.967735 
L 351.058893 71.950142 
L 351.070152 71.950142 
L 351.862945 71.840445 
L 351.973668 71.819747 
L 351.974021 71.819747 
L 352.518121 71.71005 
L 352.626667 71.689353 
L 352.629218 71.689353 
L 353.345914 71.57862 
L 353.457363 71.554818 
L 354.17126 71.445121 
L 354.279536 71.430633 
L 354.282315 71.430633 
L 354.931665 71.3199 
L 355.033451 71.296098 
L 355.042741 71.296098 
L 355.57469 71.185366 
L 355.678675 71.157424 
L 355.685787 71.157424 
L 356.246993 71.046692 
L 356.334473 71.01875 
L 356.35809 71.01875 
L 356.975031 70.909053 
L 357.081774 70.865588 
L 357.086107 70.865588 
L 357.819474 70.754856 
L 357.89895 70.733124 
L 357.93055 70.733124 
L 358.629227 70.622391 
L 358.740822 70.596519 
L 359.456025 70.485787 
L 359.56905 70.466125 
L 360.210126 70.356427 
L 360.315252 70.323311 
L 360.321223 70.323311 
L 360.937729 70.212579 
L 361.029542 70.186707 
L 361.048805 70.186707 
L 361.651564 70.075975 
L 361.746674 70.052173 
L 361.76266 70.052173 
L 362.288535 69.941441 
L 362.400067 69.919708 
L 362.887997 69.810011 
L 362.999363 69.781034 
L 363.525838 69.670302 
L 363.629346 69.656849 
L 363.636894 69.656849 
L 364.388632 69.547151 
L 364.497199 69.505756 
L 364.499728 69.505756 
L 365.131329 69.396059 
L 365.131329 69.395024 
L 365.243027 69.365013 
L 365.798552 69.255315 
L 365.909918 69.228408 
L 366.634576 69.117676 
L 366.746254 69.104223 
L 367.294252 68.994526 
L 367.393177 68.973828 
L 367.405286 68.973828 
L 367.948785 68.864131 
L 368.058431 68.843433 
L 368.059861 68.843433 
L 368.869967 68.733736 
L 368.979944 68.706829 
L 368.981043 68.706829 
L 369.519441 68.597132 
L 369.603417 68.568155 
L 369.630517 68.568155 
L 370.170014 68.458458 
L 370.281318 68.43776 
L 370.873627 68.328063 
L 370.978503 68.305296 
L 370.984703 68.305296 
L 371.60152 68.194563 
L 371.713073 68.170761 
L 372.55453 68.060029 
L 372.642777 68.034157 
L 372.665626 68.034157 
L 373.412243 67.923425 
L 373.518093 67.897553 
L 373.523339 67.897553 
L 374.220503 67.787856 
L 374.332098 67.763019 
L 375.149419 67.652286 
L 375.238641 67.624345 
L 375.260495 67.624345 
L 375.84507 67.513612 
L 375.951314 67.49602 
L 375.956104 67.49602 
L 376.670582 67.386322 
L 376.782155 67.363555 
L 377.271889 67.252823 
L 377.38367 67.2373 
L 377.971334 67.126567 
L 378.067978 67.108974 
L 378.08241 67.108974 
L 378.661054 66.999277 
L 378.661054 66.998242 
L 378.772669 66.986859 
L 379.334891 66.877161 
L 379.440846 66.860603 
L 379.445967 66.860603 
L 380.307537 66.749871 
L 380.418799 66.740557 
L 381.113828 66.629825 
L 381.225609 66.614302 
L 381.757164 66.504605 
L 381.859469 66.479768 
L 381.868178 66.479768 
L 382.530756 66.369035 
L 382.619377 66.341094 
L 382.641853 66.341094 
L 383.356393 66.231396 
L 383.454012 66.20449 
L 383.467448 66.20449 
L 383.99241 66.094792 
L 384.103838 66.061676 
L 384.733926 65.951979 
L 384.835277 65.923002 
L 384.844981 65.923002 
L 385.52226 65.813305 
L 385.63402 65.780189 
L 386.293945 65.669457 
L 386.391709 65.645654 
L 386.405021 65.645654 
L 386.980057 65.535957 
L 386.980057 65.534922 
L 387.092004 65.51319 
L 387.787571 65.402458 
L 387.894666 65.368307 
L 387.898668 65.368307 
L 388.441047 65.257574 
L 388.552787 65.221354 
L 389.088075 65.111656 
L 389.199109 65.08061 
L 389.986573 64.970913 
L 389.986573 64.969878 
L 390.09798 64.954355 
L 390.591135 64.844657 
L 390.702315 64.834309 
L 391.314591 64.723576 
L 391.41926 64.705984 
L 391.425605 64.705984 
L 391.914364 64.596286 
L 392.025626 64.577658 
L 392.669689 64.467961 
L 392.776721 64.451403 
L 392.780744 64.451403 
L 393.45425 64.341706 
L 393.560329 64.325148 
L 393.565326 64.325148 
L 394.166799 64.214416 
L 394.265227 64.188544 
L 394.277875 64.188544 
L 394.850195 64.077811 
L 394.955527 64.064358 
L 394.96125 64.064358 
L 395.520155 63.954661 
L 395.631874 63.936033 
L 396.279212 63.826336 
L 396.371171 63.803568 
L 396.390246 63.803568 
L 396.872827 63.693871 
L 396.963313 63.677313 
L 396.983882 63.677313 
L 397.511643 63.567616 
L 397.622885 63.559337 
L 398.081579 63.449639 
L 398.193173 63.422733 
L 398.859442 63.312 
L 398.971078 63.284059 
L 399.597454 63.173326 
L 399.699883 63.145385 
L 399.70855 63.145385 
L 400.253666 63.034653 
L 400.356138 63.002571 
L 400.364742 63.002571 
L 400.868472 62.891839 
L 400.978594 62.863897 
L 400.979424 62.863897 
L 401.50252 62.7542 
L 401.610838 62.731433 
L 401.613513 62.731433 
L 402.082823 62.621736 
L 402.190705 62.58655 
L 402.193857 62.58655 
L 402.666402 62.475817 
L 402.776544 62.447876 
L 402.777457 62.447876 
L 403.263064 62.338178 
L 403.355127 62.32369 
L 403.37412 62.32369 
L 403.80055 62.212958 
L 403.903809 62.174667 
L 403.911647 62.174667 
L 404.3404 62.063935 
L 404.433042 62.033924 
L 404.451476 62.033924 
L 404.921014 61.924227 
L 405.02421 61.89111 
L 405.03209 61.89111 
L 405.498061 61.781413 
L 405.608785 61.752436 
L 405.609158 61.752436 
L 405.957501 61.642739 
L 406.067499 61.611693 
L 406.068474 61.611693 
L 406.418435 61.501996 
L 406.508755 61.485437 
L 406.529531 61.485437 
L 406.933527 61.37574 
L 407.040871 61.332275 
L 407.044624 61.332275 
L 407.423903 61.222578 
L 407.527204 61.189462 
L 407.534876 61.189462 
L 407.885376 61.079765 
L 407.992989 61.044579 
L 407.996472 61.044579 
L 408.306539 60.934881 
L 408.405486 60.910044 
L 408.417595 60.910044 
L 408.724676 60.800347 
L 408.823373 60.765161 
L 408.835731 60.765161 
L 409.199377 60.654429 
L 409.308566 60.628557 
L 409.310432 60.628557 
L 409.611086 60.51886 
L 409.716999 60.483674 
L 409.722183 60.483674 
L 409.967433 60.373977 
L 410.070775 60.326372 
L 410.078509 60.326372 
L 410.331369 60.216675 
L 410.441802 60.150443 
L 410.442424 60.150443 
L 410.691635 60.03971 
L 410.800161 59.957955 
L 410.80267 59.957955 
L 410.976261 59.848258 
L 411.086653 59.786165 
L 411.087295 59.786165 
L 411.241831 59.676468 
L 411.352804 59.595747 
L 411.352928 59.595747 
L 411.538255 59.48605 
L 411.636413 59.407399 
L 411.64931 59.407399 
L 411.788399 59.297702 
L 411.788399 59.296667 
L 411.903456 59.196283 
L 412.056333 59.086586 
L 412.165854 59.003796 
L 412.16743 59.003796 
L 412.305523 58.894098 
L 412.415956 58.79061 
L 412.41662 58.79061 
L 412.524109 58.680913 
L 412.632634 58.573286 
L 412.635205 58.573286 
L 412.738755 58.463588 
L 412.846161 58.331124 
L 412.849768 58.331124 
L 412.930095 58.221427 
L 413.039616 58.070334 
L 413.041192 58.070334 
L 413.126826 57.962707 
L 413.126826 57.960637 
L 413.236637 57.790917 
L 413.237923 57.790917 
L 413.315802 57.681219 
L 413.426775 57.472174 
L 413.426899 57.472174 
L 413.49325 57.362476 
L 413.602522 57.151361 
L 413.604347 57.151361 
L 413.658879 57.041664 
L 413.768939 56.778804 
L 413.769934 56.778804 
L 413.807381 56.669107 
L 413.91798 56.402108 
L 413.918437 56.402108 
L 413.952068 56.292411 
L 414.061589 55.973668 
L 414.062958 55.973668 
L 414.097253 55.86397 
L 414.208225 55.561785 
L 414.20835 55.561785 
L 414.248575 55.452088 
L 414.278889 55.358949 
L 414.278972 55.358949 
L 414.72 54.144 
L 414.72 54.144 
" clip-path="url(#p86d6309891)" style="fill: none; stroke: #ff8c00; stroke-width: 1.5; stroke-linecap: square"/>
   </g>
   <g id="line2d_14">
    <path d="M 74.605714 307.584 
L 414.72 54.144 
" clip-path="url(#p86d6309891)" style="fill: none; stroke-dasharray: 5.55,2.4; stroke-dashoffset: 0; stroke: #0000ff; stroke-width: 1.5"/>
   </g>
   <g id="patch_3">
    <path d="M 57.6 307.584 
L 57.6 41.472 
" style="fill: none; stroke: #000000; stroke-width: 0.8; stroke-linejoin: miter; stroke-linecap: square"/>
   </g>
   <g id="patch_4">
    <path d="M 414.72 307.584 
L 414.72 41.472 
" style="fill: none; stroke: #000000; stroke-width: 0.8; stroke-linejoin: miter; stroke-linecap: square"/>
   </g>
   <g id="patch_5">
    <path d="M 57.6 307.584 
L 414.72 307.584 
" style="fill: none; stroke: #000000; stroke-width: 0.8; stroke-linejoin: miter; stroke-linecap: square"/>
   </g>
   <g id="patch_6">
    <path d="M 57.6 41.472 
L 414.72 41.472 
" style="fill: none; stroke: #000000; stroke-width: 0.8; stroke-linejoin: miter; stroke-linecap: square"/>
   </g>
   <g id="text_15">
    <!-- ROC CURVE -->
    <g transform="translate(200.855625 35.472)scale(0.12 -0.12)">
     <defs>
      <path id="DejaVuSans-4f" d="M 2522 4238 
Q 1834 4238 1429 3725 
Q 1025 3213 1025 2328 
Q 1025 1447 1429 934 
Q 1834 422 2522 422 
Q 3209 422 3611 934 
Q 4013 1447 4013 2328 
Q 4013 3213 3611 3725 
Q 3209 4238 2522 4238 
z
M 2522 4750 
Q 3503 4750 4090 4092 
Q 4678 3434 4678 2328 
Q 4678 1225 4090 567 
Q 3503 -91 2522 -91 
Q 1538 -91 948 565 
Q 359 1222 359 2328 
Q 359 3434 948 4092 
Q 1538 4750 2522 4750 
z
" transform="scale(0.015625)"/>
      <path id="DejaVuSans-43" d="M 4122 4306 
L 4122 3641 
Q 3803 3938 3442 4084 
Q 3081 4231 2675 4231 
Q 1875 4231 1450 3742 
Q 1025 3253 1025 2328 
Q 1025 1406 1450 917 
Q 1875 428 2675 428 
Q 3081 428 3442 575 
Q 3803 722 4122 1019 
L 4122 359 
Q 3791 134 3420 21 
Q 3050 -91 2638 -91 
Q 1578 -91 968 557 
Q 359 1206 359 2328 
Q 359 3453 968 4101 
Q 1578 4750 2638 4750 
Q 3056 4750 3426 4639 
Q 3797 4528 4122 4306 
z
" transform="scale(0.015625)"/>
      <path id="DejaVuSans-55" d="M 556 4666 
L 1191 4666 
L 1191 1831 
Q 1191 1081 1462 751 
Q 1734 422 2344 422 
Q 2950 422 3222 751 
Q 3494 1081 3494 1831 
L 3494 4666 
L 4128 4666 
L 4128 1753 
Q 4128 841 3676 375 
Q 3225 -91 2344 -91 
Q 1459 -91 1007 375 
Q 556 841 556 1753 
L 556 4666 
z
" transform="scale(0.015625)"/>
      <path id="DejaVuSans-56" d="M 1831 0 
L 50 4666 
L 709 4666 
L 2188 738 
L 3669 4666 
L 4325 4666 
L 2547 0 
L 1831 0 
z
" transform="scale(0.015625)"/>
      <path id="DejaVuSans-45" d="M 628 4666 
L 3578 4666 
L 3578 4134 
L 1259 4134 
L 1259 2753 
L 3481 2753 
L 3481 2222 
L 1259 2222 
L 1259 531 
L 3634 531 
L 3634 0 
L 628 0 
L 628 4666 
z
" transform="scale(0.015625)"/>
     </defs>
     <use xlink:href="#DejaVuSans-52"/>
     <use xlink:href="#DejaVuSans-4f" x="69.482422"/>
     <use xlink:href="#DejaVuSans-43" x="148.193359"/>
     <use xlink:href="#DejaVuSans-20" x="218.017578"/>
     <use xlink:href="#DejaVuSans-43" x="249.804688"/>
     <use xlink:href="#DejaVuSans-55" x="319.628906"/>
     <use xlink:href="#DejaVuSans-52" x="392.822266"/>
     <use xlink:href="#DejaVuSans-56" x="456.804688"/>
     <use xlink:href="#DejaVuSans-45" x="525.212891"/>
    </g>
   </g>
   <g id="legend_1">
    <g id="patch_7">
     <path d="M 234.97 302.584 
L 407.72 302.584 
Q 409.72 302.584 409.72 300.584 
L 409.72 286.905875 
Q 409.72 284.905875 407.72 284.905875 
L 234.97 284.905875 
Q 232.97 284.905875 232.97 286.905875 
L 232.97 300.584 
Q 232.97 302.584 234.97 302.584 
z
" style="fill: #ffffff; opacity: 0.8; stroke: #cccccc; stroke-linejoin: miter"/>
    </g>
    <g id="line2d_15">
     <path d="M 236.97 293.004312 
L 246.97 293.004312 
L 256.97 293.004312 
" style="fill: none; stroke: #ff8c00; stroke-width: 1.5; stroke-linecap: square"/>
    </g>
    <g id="text_16">
     <!-- ROC curve (ROC AUC=0.75) -->
     <g transform="translate(264.97 296.504312)scale(0.1 -0.1)">
      <defs>
       <path id="DejaVuSans-63" d="M 3122 3366 
L 3122 2828 
Q 2878 2963 2633 3030 
Q 2388 3097 2138 3097 
Q 1578 3097 1268 2742 
Q 959 2388 959 1747 
Q 959 1106 1268 751 
Q 1578 397 2138 397 
Q 2388 397 2633 464 
Q 2878 531 3122 666 
L 3122 134 
Q 2881 22 2623 -34 
Q 2366 -91 2075 -91 
Q 1284 -91 818 406 
Q 353 903 353 1747 
Q 353 2603 823 3093 
Q 1294 3584 2113 3584 
Q 2378 3584 2631 3529 
Q 2884 3475 3122 3366 
z
" transform="scale(0.015625)"/>
       <path id="DejaVuSans-28" d="M 1984 4856 
Q 1566 4138 1362 3434 
Q 1159 2731 1159 2009 
Q 1159 1288 1364 580 
Q 1569 -128 1984 -844 
L 1484 -844 
Q 1016 -109 783 600 
Q 550 1309 550 2009 
Q 550 2706 781 3412 
Q 1013 4119 1484 4856 
L 1984 4856 
z
" transform="scale(0.015625)"/>
       <path id="DejaVuSans-41" d="M 2188 4044 
L 1331 1722 
L 3047 1722 
L 2188 4044 
z
M 1831 4666 
L 2547 4666 
L 4325 0 
L 3669 0 
L 3244 1197 
L 1141 1197 
L 716 0 
L 50 0 
L 1831 4666 
z
" transform="scale(0.015625)"/>
       <path id="DejaVuSans-3d" d="M 678 2906 
L 4684 2906 
L 4684 2381 
L 678 2381 
L 678 2906 
z
M 678 1631 
L 4684 1631 
L 4684 1100 
L 678 1100 
L 678 1631 
z
" transform="scale(0.015625)"/>
       <path id="DejaVuSans-37" d="M 525 4666 
L 3525 4666 
L 3525 4397 
L 1831 0 
L 1172 0 
L 2766 4134 
L 525 4134 
L 525 4666 
z
" transform="scale(0.015625)"/>
       <path id="DejaVuSans-35" d="M 691 4666 
L 3169 4666 
L 3169 4134 
L 1269 4134 
L 1269 2991 
Q 1406 3038 1543 3061 
Q 1681 3084 1819 3084 
Q 2600 3084 3056 2656 
Q 3513 2228 3513 1497 
Q 3513 744 3044 326 
Q 2575 -91 1722 -91 
Q 1428 -91 1123 -41 
Q 819 9 494 109 
L 494 744 
Q 775 591 1075 516 
Q 1375 441 1709 441 
Q 2250 441 2565 725 
Q 2881 1009 2881 1497 
Q 2881 1984 2565 2268 
Q 2250 2553 1709 2553 
Q 1456 2553 1204 2497 
Q 953 2441 691 2322 
L 691 4666 
z
" transform="scale(0.015625)"/>
       <path id="DejaVuSans-29" d="M 513 4856 
L 1013 4856 
Q 1481 4119 1714 3412 
Q 1947 2706 1947 2009 
Q 1947 1309 1714 600 
Q 1481 -109 1013 -844 
L 513 -844 
Q 928 -128 1133 580 
Q 1338 1288 1338 2009 
Q 1338 2731 1133 3434 
Q 928 4138 513 4856 
z
" transform="scale(0.015625)"/>
      </defs>
      <use xlink:href="#DejaVuSans-52"/>
      <use xlink:href="#DejaVuSans-4f" x="69.482422"/>
      <use xlink:href="#DejaVuSans-43" x="148.193359"/>
      <use xlink:href="#DejaVuSans-20" x="218.017578"/>
      <use xlink:href="#DejaVuSans-63" x="249.804688"/>
      <use xlink:href="#DejaVuSans-75" x="304.785156"/>
      <use xlink:href="#DejaVuSans-72" x="368.164062"/>
      <use xlink:href="#DejaVuSans-76" x="409.277344"/>
      <use xlink:href="#DejaVuSans-65" x="468.457031"/>
      <use xlink:href="#DejaVuSans-20" x="529.980469"/>
      <use xlink:href="#DejaVuSans-28" x="561.767578"/>
      <use xlink:href="#DejaVuSans-52" x="600.78125"/>
      <use xlink:href="#DejaVuSans-4f" x="670.263672"/>
      <use xlink:href="#DejaVuSans-43" x="748.974609"/>
      <use xlink:href="#DejaVuSans-20" x="818.798828"/>
      <use xlink:href="#DejaVuSans-41" x="850.585938"/>
      <use xlink:href="#DejaVuSans-55" x="918.994141"/>
      <use xlink:href="#DejaVuSans-43" x="992.1875"/>
      <use xlink:href="#DejaVuSans-3d" x="1062.011719"/>
      <use xlink:href="#DejaVuSans-30" x="1145.800781"/>
      <use xlink:href="#DejaVuSans-2e" x="1209.423828"/>
      <use xlink:href="#DejaVuSans-37" x="1241.210938"/>
      <use xlink:href="#DejaVuSans-35" x="1304.833984"/>
      <use xlink:href="#DejaVuSans-29" x="1368.457031"/>
     </g>
    </g>
   </g>
  </g>
 </g>
 <defs>
  <clipPath id="p86d6309891">
   <rect x="57.6" y="41.472" width="357.12" height="266.112"/>
  </clipPath>
 </defs>
</svg>
