<?xml version="1.0" encoding="utf-8" standalone="no"?>
<!DOCTYPE svg PUBLIC "-//W3C//DTD SVG 1.1//EN"
  "http://www.w3.org/Graphics/SVG/1.1/DTD/svg11.dtd">
<svg xmlns:xlink="http://www.w3.org/1999/xlink" width="460.8pt" height="345.6pt" viewBox="0 0 460.8 345.6" xmlns="http://www.w3.org/2000/svg" version="1.1">
 <metadata>
  <rdf:RDF xmlns:dc="http://purl.org/dc/elements/1.1/" xmlns:cc="http://creativecommons.org/ns#" xmlns:rdf="http://www.w3.org/1999/02/22-rdf-syntax-ns#">
   <cc:Work>
    <dc:type rdf:resource="http://purl.org/dc/dcmitype/StillImage"/>
    <dc:date>2022-05-20T19:22:50.747133</dc:date>
    <dc:format>image/svg+xml</dc:format>
    <dc:creator>
     <cc:Agent>
      <dc:title>Matplotlib v3.5.1, https://matplotlib.org/</dc:title>
     </cc:Agent>
    </dc:creator>
   </cc:Work>
  </rdf:RDF>
 </metadata>
 <defs>
  <style type="text/css">*{stroke-linejoin: round; stroke-linecap: butt}</style>
 </defs>
 <g id="figure_1">
  <g id="patch_1">
   <path d="M 0 345.6 
L 460.8 345.6 
L 460.8 0 
L 0 0 
z
" style="fill: #ffffff"/>
  </g>
  <g id="axes_1">
   <g id="patch_2">
    <path d="M 57.6 307.584 
L 414.72 307.584 
L 414.72 41.472 
L 57.6 41.472 
z
" style="fill: #ffffff"/>
   </g>
   <g id="matplotlib.axis_1">
    <g id="xtick_1">
     <g id="line2d_1">
      <defs>
       <path id="m6d8f9ae396" d="M 0 0 
L 0 3.5 
" style="stroke: #000000; stroke-width: 0.8"/>
      </defs>
      <g>
       <use xlink:href="#m6d8f9ae396" x="74.605714" y="307.584" style="stroke: #000000; stroke-width: 0.8"/>
      </g>
     </g>
     <g id="text_1">
      <!-- 0.0 -->
      <g transform="translate(66.654152 322.182437)scale(0.1 -0.1)">
       <defs>
        <path id="DejaVuSans-30" d="M 2034 4250 
Q 1547 4250 1301 3770 
Q 1056 3291 1056 2328 
Q 1056 1369 1301 889 
Q 1547 409 2034 409 
Q 2525 409 2770 889 
Q 3016 1369 3016 2328 
Q 3016 3291 2770 3770 
Q 2525 4250 2034 4250 
z
M 2034 4750 
Q 2819 4750 3233 4129 
Q 3647 3509 3647 2328 
Q 3647 1150 3233 529 
Q 2819 -91 2034 -91 
Q 1250 -91 836 529 
Q 422 1150 422 2328 
Q 422 3509 836 4129 
Q 1250 4750 2034 4750 
z
" transform="scale(0.015625)"/>
        <path id="DejaVuSans-2e" d="M 684 794 
L 1344 794 
L 1344 0 
L 684 0 
L 684 794 
z
" transform="scale(0.015625)"/>
       </defs>
       <use xlink:href="#DejaVuSans-30"/>
       <use xlink:href="#DejaVuSans-2e" x="63.623047"/>
       <use xlink:href="#DejaVuSans-30" x="95.410156"/>
      </g>
     </g>
    </g>
    <g id="xtick_2">
     <g id="line2d_2">
      <g>
       <use xlink:href="#m6d8f9ae396" x="142.628571" y="307.584" style="stroke: #000000; stroke-width: 0.8"/>
      </g>
     </g>
     <g id="text_2">
      <!-- 0.2 -->
      <g transform="translate(134.677009 322.182437)scale(0.1 -0.1)">
       <defs>
        <path id="DejaVuSans-32" d="M 1228 531 
L 3431 531 
L 3431 0 
L 469 0 
L 469 531 
Q 828 903 1448 1529 
Q 2069 2156 2228 2338 
Q 2531 2678 2651 2914 
Q 2772 3150 2772 3378 
Q 2772 3750 2511 3984 
Q 2250 4219 1831 4219 
Q 1534 4219 1204 4116 
Q 875 4013 500 3803 
L 500 4441 
Q 881 4594 1212 4672 
Q 1544 4750 1819 4750 
Q 2544 4750 2975 4387 
Q 3406 4025 3406 3419 
Q 3406 3131 3298 2873 
Q 3191 2616 2906 2266 
Q 2828 2175 2409 1742 
Q 1991 1309 1228 531 
z
" transform="scale(0.015625)"/>
       </defs>
       <use xlink:href="#DejaVuSans-30"/>
       <use xlink:href="#DejaVuSans-2e" x="63.623047"/>
       <use xlink:href="#DejaVuSans-32" x="95.410156"/>
      </g>
     </g>
    </g>
    <g id="xtick_3">
     <g id="line2d_3">
      <g>
       <use xlink:href="#m6d8f9ae396" x="210.651429" y="307.584" style="stroke: #000000; stroke-width: 0.8"/>
      </g>
     </g>
     <g id="text_3">
      <!-- 0.4 -->
      <g transform="translate(202.699866 322.182437)scale(0.1 -0.1)">
       <defs>
        <path id="DejaVuSans-34" d="M 2419 4116 
L 825 1625 
L 2419 1625 
L 2419 4116 
z
M 2253 4666 
L 3047 4666 
L 3047 1625 
L 3713 1625 
L 3713 1100 
L 3047 1100 
L 3047 0 
L 2419 0 
L 2419 1100 
L 313 1100 
L 313 1709 
L 2253 4666 
z
" transform="scale(0.015625)"/>
       </defs>
       <use xlink:href="#DejaVuSans-30"/>
       <use xlink:href="#DejaVuSans-2e" x="63.623047"/>
       <use xlink:href="#DejaVuSans-34" x="95.410156"/>
      </g>
     </g>
    </g>
    <g id="xtick_4">
     <g id="line2d_4">
      <g>
       <use xlink:href="#m6d8f9ae396" x="278.674286" y="307.584" style="stroke: #000000; stroke-width: 0.8"/>
      </g>
     </g>
     <g id="text_4">
      <!-- 0.6 -->
      <g transform="translate(270.722723 322.182437)scale(0.1 -0.1)">
       <defs>
        <path id="DejaVuSans-36" d="M 2113 2584 
Q 1688 2584 1439 2293 
Q 1191 2003 1191 1497 
Q 1191 994 1439 701 
Q 1688 409 2113 409 
Q 2538 409 2786 701 
Q 3034 994 3034 1497 
Q 3034 2003 2786 2293 
Q 2538 2584 2113 2584 
z
M 3366 4563 
L 3366 3988 
Q 3128 4100 2886 4159 
Q 2644 4219 2406 4219 
Q 1781 4219 1451 3797 
Q 1122 3375 1075 2522 
Q 1259 2794 1537 2939 
Q 1816 3084 2150 3084 
Q 2853 3084 3261 2657 
Q 3669 2231 3669 1497 
Q 3669 778 3244 343 
Q 2819 -91 2113 -91 
Q 1303 -91 875 529 
Q 447 1150 447 2328 
Q 447 3434 972 4092 
Q 1497 4750 2381 4750 
Q 2619 4750 2861 4703 
Q 3103 4656 3366 4563 
z
" transform="scale(0.015625)"/>
       </defs>
       <use xlink:href="#DejaVuSans-30"/>
       <use xlink:href="#DejaVuSans-2e" x="63.623047"/>
       <use xlink:href="#DejaVuSans-36" x="95.410156"/>
      </g>
     </g>
    </g>
    <g id="xtick_5">
     <g id="line2d_5">
      <g>
       <use xlink:href="#m6d8f9ae396" x="346.697143" y="307.584" style="stroke: #000000; stroke-width: 0.8"/>
      </g>
     </g>
     <g id="text_5">
      <!-- 0.8 -->
      <g transform="translate(338.74558 322.182437)scale(0.1 -0.1)">
       <defs>
        <path id="DejaVuSans-38" d="M 2034 2216 
Q 1584 2216 1326 1975 
Q 1069 1734 1069 1313 
Q 1069 891 1326 650 
Q 1584 409 2034 409 
Q 2484 409 2743 651 
Q 3003 894 3003 1313 
Q 3003 1734 2745 1975 
Q 2488 2216 2034 2216 
z
M 1403 2484 
Q 997 2584 770 2862 
Q 544 3141 544 3541 
Q 544 4100 942 4425 
Q 1341 4750 2034 4750 
Q 2731 4750 3128 4425 
Q 3525 4100 3525 3541 
Q 3525 3141 3298 2862 
Q 3072 2584 2669 2484 
Q 3125 2378 3379 2068 
Q 3634 1759 3634 1313 
Q 3634 634 3220 271 
Q 2806 -91 2034 -91 
Q 1263 -91 848 271 
Q 434 634 434 1313 
Q 434 1759 690 2068 
Q 947 2378 1403 2484 
z
M 1172 3481 
Q 1172 3119 1398 2916 
Q 1625 2713 2034 2713 
Q 2441 2713 2670 2916 
Q 2900 3119 2900 3481 
Q 2900 3844 2670 4047 
Q 2441 4250 2034 4250 
Q 1625 4250 1398 4047 
Q 1172 3844 1172 3481 
z
" transform="scale(0.015625)"/>
       </defs>
       <use xlink:href="#DejaVuSans-30"/>
       <use xlink:href="#DejaVuSans-2e" x="63.623047"/>
       <use xlink:href="#DejaVuSans-38" x="95.410156"/>
      </g>
     </g>
    </g>
    <g id="xtick_6">
     <g id="line2d_6">
      <g>
       <use xlink:href="#m6d8f9ae396" x="414.72" y="307.584" style="stroke: #000000; stroke-width: 0.8"/>
      </g>
     </g>
     <g id="text_6">
      <!-- 1.0 -->
      <g transform="translate(406.768438 322.182437)scale(0.1 -0.1)">
       <defs>
        <path id="DejaVuSans-31" d="M 794 531 
L 1825 531 
L 1825 4091 
L 703 3866 
L 703 4441 
L 1819 4666 
L 2450 4666 
L 2450 531 
L 3481 531 
L 3481 0 
L 794 0 
L 794 531 
z
" transform="scale(0.015625)"/>
       </defs>
       <use xlink:href="#DejaVuSans-31"/>
       <use xlink:href="#DejaVuSans-2e" x="63.623047"/>
       <use xlink:href="#DejaVuSans-30" x="95.410156"/>
      </g>
     </g>
    </g>
    <g id="text_7">
     <!-- False Positive Rate -->
     <g transform="translate(189.693594 335.860562)scale(0.1 -0.1)">
      <defs>
       <path id="DejaVuSans-46" d="M 628 4666 
L 3309 4666 
L 3309 4134 
L 1259 4134 
L 1259 2759 
L 3109 2759 
L 3109 2228 
L 1259 2228 
L 1259 0 
L 628 0 
L 628 4666 
z
" transform="scale(0.015625)"/>
       <path id="DejaVuSans-61" d="M 2194 1759 
Q 1497 1759 1228 1600 
Q 959 1441 959 1056 
Q 959 750 1161 570 
Q 1363 391 1709 391 
Q 2188 391 2477 730 
Q 2766 1069 2766 1631 
L 2766 1759 
L 2194 1759 
z
M 3341 1997 
L 3341 0 
L 2766 0 
L 2766 531 
Q 2569 213 2275 61 
Q 1981 -91 1556 -91 
Q 1019 -91 701 211 
Q 384 513 384 1019 
Q 384 1609 779 1909 
Q 1175 2209 1959 2209 
L 2766 2209 
L 2766 2266 
Q 2766 2663 2505 2880 
Q 2244 3097 1772 3097 
Q 1472 3097 1187 3025 
Q 903 2953 641 2809 
L 641 3341 
Q 956 3463 1253 3523 
Q 1550 3584 1831 3584 
Q 2591 3584 2966 3190 
Q 3341 2797 3341 1997 
z
" transform="scale(0.015625)"/>
       <path id="DejaVuSans-6c" d="M 603 4863 
L 1178 4863 
L 1178 0 
L 603 0 
L 603 4863 
z
" transform="scale(0.015625)"/>
       <path id="DejaVuSans-73" d="M 2834 3397 
L 2834 2853 
Q 2591 2978 2328 3040 
Q 2066 3103 1784 3103 
Q 1356 3103 1142 2972 
Q 928 2841 928 2578 
Q 928 2378 1081 2264 
Q 1234 2150 1697 2047 
L 1894 2003 
Q 2506 1872 2764 1633 
Q 3022 1394 3022 966 
Q 3022 478 2636 193 
Q 2250 -91 1575 -91 
Q 1294 -91 989 -36 
Q 684 19 347 128 
L 347 722 
Q 666 556 975 473 
Q 1284 391 1588 391 
Q 1994 391 2212 530 
Q 2431 669 2431 922 
Q 2431 1156 2273 1281 
Q 2116 1406 1581 1522 
L 1381 1569 
Q 847 1681 609 1914 
Q 372 2147 372 2553 
Q 372 3047 722 3315 
Q 1072 3584 1716 3584 
Q 2034 3584 2315 3537 
Q 2597 3491 2834 3397 
z
" transform="scale(0.015625)"/>
       <path id="DejaVuSans-65" d="M 3597 1894 
L 3597 1613 
L 953 1613 
Q 991 1019 1311 708 
Q 1631 397 2203 397 
Q 2534 397 2845 478 
Q 3156 559 3463 722 
L 3463 178 
Q 3153 47 2828 -22 
Q 2503 -91 2169 -91 
Q 1331 -91 842 396 
Q 353 884 353 1716 
Q 353 2575 817 3079 
Q 1281 3584 2069 3584 
Q 2775 3584 3186 3129 
Q 3597 2675 3597 1894 
z
M 3022 2063 
Q 3016 2534 2758 2815 
Q 2500 3097 2075 3097 
Q 1594 3097 1305 2825 
Q 1016 2553 972 2059 
L 3022 2063 
z
" transform="scale(0.015625)"/>
       <path id="DejaVuSans-20" transform="scale(0.015625)"/>
       <path id="DejaVuSans-50" d="M 1259 4147 
L 1259 2394 
L 2053 2394 
Q 2494 2394 2734 2622 
Q 2975 2850 2975 3272 
Q 2975 3691 2734 3919 
Q 2494 4147 2053 4147 
L 1259 4147 
z
M 628 4666 
L 2053 4666 
Q 2838 4666 3239 4311 
Q 3641 3956 3641 3272 
Q 3641 2581 3239 2228 
Q 2838 1875 2053 1875 
L 1259 1875 
L 1259 0 
L 628 0 
L 628 4666 
z
" transform="scale(0.015625)"/>
       <path id="DejaVuSans-6f" d="M 1959 3097 
Q 1497 3097 1228 2736 
Q 959 2375 959 1747 
Q 959 1119 1226 758 
Q 1494 397 1959 397 
Q 2419 397 2687 759 
Q 2956 1122 2956 1747 
Q 2956 2369 2687 2733 
Q 2419 3097 1959 3097 
z
M 1959 3584 
Q 2709 3584 3137 3096 
Q 3566 2609 3566 1747 
Q 3566 888 3137 398 
Q 2709 -91 1959 -91 
Q 1206 -91 779 398 
Q 353 888 353 1747 
Q 353 2609 779 3096 
Q 1206 3584 1959 3584 
z
" transform="scale(0.015625)"/>
       <path id="DejaVuSans-69" d="M 603 3500 
L 1178 3500 
L 1178 0 
L 603 0 
L 603 3500 
z
M 603 4863 
L 1178 4863 
L 1178 4134 
L 603 4134 
L 603 4863 
z
" transform="scale(0.015625)"/>
       <path id="DejaVuSans-74" d="M 1172 4494 
L 1172 3500 
L 2356 3500 
L 2356 3053 
L 1172 3053 
L 1172 1153 
Q 1172 725 1289 603 
Q 1406 481 1766 481 
L 2356 481 
L 2356 0 
L 1766 0 
Q 1100 0 847 248 
Q 594 497 594 1153 
L 594 3053 
L 172 3053 
L 172 3500 
L 594 3500 
L 594 4494 
L 1172 4494 
z
" transform="scale(0.015625)"/>
       <path id="DejaVuSans-76" d="M 191 3500 
L 800 3500 
L 1894 563 
L 2988 3500 
L 3597 3500 
L 2284 0 
L 1503 0 
L 191 3500 
z
" transform="scale(0.015625)"/>
       <path id="DejaVuSans-52" d="M 2841 2188 
Q 3044 2119 3236 1894 
Q 3428 1669 3622 1275 
L 4263 0 
L 3584 0 
L 2988 1197 
Q 2756 1666 2539 1819 
Q 2322 1972 1947 1972 
L 1259 1972 
L 1259 0 
L 628 0 
L 628 4666 
L 2053 4666 
Q 2853 4666 3247 4331 
Q 3641 3997 3641 3322 
Q 3641 2881 3436 2590 
Q 3231 2300 2841 2188 
z
M 1259 4147 
L 1259 2491 
L 2053 2491 
Q 2509 2491 2742 2702 
Q 2975 2913 2975 3322 
Q 2975 3731 2742 3939 
Q 2509 4147 2053 4147 
L 1259 4147 
z
" transform="scale(0.015625)"/>
      </defs>
      <use xlink:href="#DejaVuSans-46"/>
      <use xlink:href="#DejaVuSans-61" x="48.394531"/>
      <use xlink:href="#DejaVuSans-6c" x="109.673828"/>
      <use xlink:href="#DejaVuSans-73" x="137.457031"/>
      <use xlink:href="#DejaVuSans-65" x="189.556641"/>
      <use xlink:href="#DejaVuSans-20" x="251.080078"/>
      <use xlink:href="#DejaVuSans-50" x="282.867188"/>
      <use xlink:href="#DejaVuSans-6f" x="339.544922"/>
      <use xlink:href="#DejaVuSans-73" x="400.726562"/>
      <use xlink:href="#DejaVuSans-69" x="452.826172"/>
      <use xlink:href="#DejaVuSans-74" x="480.609375"/>
      <use xlink:href="#DejaVuSans-69" x="519.818359"/>
      <use xlink:href="#DejaVuSans-76" x="547.601562"/>
      <use xlink:href="#DejaVuSans-65" x="606.78125"/>
      <use xlink:href="#DejaVuSans-20" x="668.304688"/>
      <use xlink:href="#DejaVuSans-52" x="700.091797"/>
      <use xlink:href="#DejaVuSans-61" x="767.324219"/>
      <use xlink:href="#DejaVuSans-74" x="828.603516"/>
      <use xlink:href="#DejaVuSans-65" x="867.8125"/>
     </g>
    </g>
   </g>
   <g id="matplotlib.axis_2">
    <g id="ytick_1">
     <g id="line2d_7">
      <defs>
       <path id="m2b0bf63081" d="M 0 0 
L -3.5 0 
" style="stroke: #000000; stroke-width: 0.8"/>
      </defs>
      <g>
       <use xlink:href="#m2b0bf63081" x="57.6" y="307.584" style="stroke: #000000; stroke-width: 0.8"/>
      </g>
     </g>
     <g id="text_8">
      <!-- 0.0 -->
      <g transform="translate(34.696875 311.383219)scale(0.1 -0.1)">
       <use xlink:href="#DejaVuSans-30"/>
       <use xlink:href="#DejaVuSans-2e" x="63.623047"/>
       <use xlink:href="#DejaVuSans-30" x="95.410156"/>
      </g>
     </g>
    </g>
    <g id="ytick_2">
     <g id="line2d_8">
      <g>
       <use xlink:href="#m2b0bf63081" x="57.6" y="256.896" style="stroke: #000000; stroke-width: 0.8"/>
      </g>
     </g>
     <g id="text_9">
      <!-- 0.2 -->
      <g transform="translate(34.696875 260.695219)scale(0.1 -0.1)">
       <use xlink:href="#DejaVuSans-30"/>
       <use xlink:href="#DejaVuSans-2e" x="63.623047"/>
       <use xlink:href="#DejaVuSans-32" x="95.410156"/>
      </g>
     </g>
    </g>
    <g id="ytick_3">
     <g id="line2d_9">
      <g>
       <use xlink:href="#m2b0bf63081" x="57.6" y="206.208" style="stroke: #000000; stroke-width: 0.8"/>
      </g>
     </g>
     <g id="text_10">
      <!-- 0.4 -->
      <g transform="translate(34.696875 210.007219)scale(0.1 -0.1)">
       <use xlink:href="#DejaVuSans-30"/>
       <use xlink:href="#DejaVuSans-2e" x="63.623047"/>
       <use xlink:href="#DejaVuSans-34" x="95.410156"/>
      </g>
     </g>
    </g>
    <g id="ytick_4">
     <g id="line2d_10">
      <g>
       <use xlink:href="#m2b0bf63081" x="57.6" y="155.52" style="stroke: #000000; stroke-width: 0.8"/>
      </g>
     </g>
     <g id="text_11">
      <!-- 0.6 -->
      <g transform="translate(34.696875 159.319219)scale(0.1 -0.1)">
       <use xlink:href="#DejaVuSans-30"/>
       <use xlink:href="#DejaVuSans-2e" x="63.623047"/>
       <use xlink:href="#DejaVuSans-36" x="95.410156"/>
      </g>
     </g>
    </g>
    <g id="ytick_5">
     <g id="line2d_11">
      <g>
       <use xlink:href="#m2b0bf63081" x="57.6" y="104.832" style="stroke: #000000; stroke-width: 0.8"/>
      </g>
     </g>
     <g id="text_12">
      <!-- 0.8 -->
      <g transform="translate(34.696875 108.631219)scale(0.1 -0.1)">
       <use xlink:href="#DejaVuSans-30"/>
       <use xlink:href="#DejaVuSans-2e" x="63.623047"/>
       <use xlink:href="#DejaVuSans-38" x="95.410156"/>
      </g>
     </g>
    </g>
    <g id="ytick_6">
     <g id="line2d_12">
      <g>
       <use xlink:href="#m2b0bf63081" x="57.6" y="54.144" style="stroke: #000000; stroke-width: 0.8"/>
      </g>
     </g>
     <g id="text_13">
      <!-- 1.0 -->
      <g transform="translate(34.696875 57.943219)scale(0.1 -0.1)">
       <use xlink:href="#DejaVuSans-31"/>
       <use xlink:href="#DejaVuSans-2e" x="63.623047"/>
       <use xlink:href="#DejaVuSans-30" x="95.410156"/>
      </g>
     </g>
    </g>
    <g id="text_14">
     <!-- True Positive Rate -->
     <g transform="translate(28.617187 219.057687)rotate(-90)scale(0.1 -0.1)">
      <defs>
       <path id="DejaVuSans-54" d="M -19 4666 
L 3928 4666 
L 3928 4134 
L 2272 4134 
L 2272 0 
L 1638 0 
L 1638 4134 
L -19 4134 
L -19 4666 
z
" transform="scale(0.015625)"/>
       <path id="DejaVuSans-72" d="M 2631 2963 
Q 2534 3019 2420 3045 
Q 2306 3072 2169 3072 
Q 1681 3072 1420 2755 
Q 1159 2438 1159 1844 
L 1159 0 
L 581 0 
L 581 3500 
L 1159 3500 
L 1159 2956 
Q 1341 3275 1631 3429 
Q 1922 3584 2338 3584 
Q 2397 3584 2469 3576 
Q 2541 3569 2628 3553 
L 2631 2963 
z
" transform="scale(0.015625)"/>
       <path id="DejaVuSans-75" d="M 544 1381 
L 544 3500 
L 1119 3500 
L 1119 1403 
Q 1119 906 1312 657 
Q 1506 409 1894 409 
Q 2359 409 2629 706 
Q 2900 1003 2900 1516 
L 2900 3500 
L 3475 3500 
L 3475 0 
L 2900 0 
L 2900 538 
Q 2691 219 2414 64 
Q 2138 -91 1772 -91 
Q 1169 -91 856 284 
Q 544 659 544 1381 
z
M 1991 3584 
L 1991 3584 
z
" transform="scale(0.015625)"/>
      </defs>
      <use xlink:href="#DejaVuSans-54"/>
      <use xlink:href="#DejaVuSans-72" x="46.333984"/>
      <use xlink:href="#DejaVuSans-75" x="87.447266"/>
      <use xlink:href="#DejaVuSans-65" x="150.826172"/>
      <use xlink:href="#DejaVuSans-20" x="212.349609"/>
      <use xlink:href="#DejaVuSans-50" x="244.136719"/>
      <use xlink:href="#DejaVuSans-6f" x="300.814453"/>
      <use xlink:href="#DejaVuSans-73" x="361.996094"/>
      <use xlink:href="#DejaVuSans-69" x="414.095703"/>
      <use xlink:href="#DejaVuSans-74" x="441.878906"/>
      <use xlink:href="#DejaVuSans-69" x="481.087891"/>
      <use xlink:href="#DejaVuSans-76" x="508.871094"/>
      <use xlink:href="#DejaVuSans-65" x="568.050781"/>
      <use xlink:href="#DejaVuSans-20" x="629.574219"/>
      <use xlink:href="#DejaVuSans-52" x="661.361328"/>
      <use xlink:href="#DejaVuSans-61" x="728.59375"/>
      <use xlink:href="#DejaVuSans-74" x="789.873047"/>
      <use xlink:href="#DejaVuSans-65" x="829.082031"/>
     </g>
    </g>
   </g>
   <g id="line2d_13">
    <path d="M 74.605714 307.584 
L 74.836927 302.256439 
L 74.83927 302.204695 
L 74.83927 302.191241 
L 74.952316 300.34812 
L 74.960589 300.241528 
L 75.07461 299.193194 
L 75.093063 299.083497 
L 75.203994 298.245244 
L 75.204119 298.245244 
L 75.230079 298.135547 
L 75.326039 297.783688 
L 75.326288 297.783688 
L 75.446425 297.636735 
L 75.529695 297.411131 
L 75.592895 297.300399 
L 75.608114 297.148272 
L 279.482716 255.363964 
L 279.592735 255.188034 
L 279.593564 255.188034 
L 279.715775 255.078337 
L 279.822559 254.960361 
L 279.823347 254.960361 
L 280.66385 254.602292 
L 280.768975 254.546409 
L 280.774781 254.546409 
L 281.014474 254.436712 
L 281.096376 254.407735 
L 281.107324 254.407735 
L 281.391224 254.298038 
L 281.498755 254.273201 
L 281.500828 254.273201 
L 281.704858 254.162468 
L 281.815084 254.115899 
L 281.815955 254.115899 
L 282.27017 254.006202 
L 282.363704 253.93169 
L 282.367664 253.93169 
L 282.775807 253.821993 
L 282.838716 253.766109 
L 282.840955 253.766109 
L 283.269252 253.656412 
L 283.376534 253.581901 
L 283.376658 253.581901 
L 283.501937 253.472204 
L 283.608845 253.424599 
L 283.612951 253.424599 
L 283.849451 253.33353 
L 284.089642 253.227972 
L 284.434129 253.107926 
L 284.638989 252.89888 
L 284.82755 252.789183 
L 284.82755 252.787113 
L 284.932717 252.787113 
L 285.409077 252.681555 
L 285.454154 252.656718 
L 285.984465 252.55323 
L 285.984465 252.549091 
L 286.095147 252.486998 
L 286.095521 252.486998 
L 286.275705 252.377301 
L 286.36134 252.350394 
L 286.361962 252.350394 
L 286.790881 252.246906 
L 286.90658 252.222069 
L 287.365108 252.112371 
L 287.472473 252.058558 
L 287.628481 251.953 
L 287.739578 251.915744 
L 288.182472 251.805012 
L 288.252762 251.758443 
L 288.655431 251.659094 
L 288.655431 251.64771 
L 288.765076 251.619769 
L 288.765118 251.619769 
L 289.16451 251.514211 
L 289.16451 251.510071 
L 289.25848 251.466606 
L 289.270091 251.466606 
L 289.442729 251.357944 
L 289.528405 251.313444 
L 289.53562 251.313444 
L 289.962673 251.185119 
L 290.054652 251.149933 
L 290.437789 251.044376 
L 290.545319 250.96469 
L 290.729029 250.740121 
L 291.111128 250.630424 
L 291.205803 250.593168 
L 291.213185 250.593168 
L 292.1229 250.295123 
L 292.235117 250.253727 
L 292.612489 250.160588 
L 292.857615 249.957752 
L 293.140416 249.84702 
L 293.252695 249.785962 
L 293.555546 249.675229 
L 293.661418 249.607962 
L 293.664777 249.607962 
L 294.005987 249.498265 
L 294.116047 249.469288 
L 294.11696 249.469288 
L 294.548844 249.360626 
L 294.663942 249.158824 
L 294.993687 249.049127 
L 295.086226 249.003592 
L 295.487028 248.893895 
L 295.551969 248.85043 
L 295.552177 248.85043 
L 295.870102 248.707617 
L 298.050505 247.840388 
L 298.413777 247.718272 
L 298.524086 247.687225 
L 298.524584 247.687225 
L 298.772364 247.604435 
L 299.109967 247.428505 
L 299.588607 247.318808 
L 299.588607 247.317773 
L 299.68971 247.287762 
L 300.147201 247.115972 
L 300.257012 247.070437 
L 300.258298 247.070437 
L 300.651884 246.96074 
L 300.741417 246.917275 
L 300.741707 246.917275 
L 301.11543 246.797229 
L 301.199862 246.706159 
L 301.202516 246.706159 
L 301.783047 246.559206 
L 301.891262 246.232184 
L 302.004162 242.020223 
L 302.368969 241.910526 
L 302.492756 241.811178 
L 302.966337 241.70148 
L 303.07706 241.61869 
L 303.541311 241.508993 
L 303.604262 241.453109 
L 303.634617 241.453109 
L 303.937386 241.343412 
L 304.044543 241.287528 
L 304.048317 241.287528 
L 304.361909 241.177831 
L 304.472425 241.140576 
L 304.472923 241.140576 
L 304.950319 241.032948 
L 307.51815 239.691744 
L 307.724295 239.582047 
L 307.827098 239.368861 
L 307.830622 239.368861 
L 308.102082 239.259164 
L 308.215584 239.219839 
L 308.693229 239.110141 
L 308.793212 239.052188 
L 308.804284 239.052188 
L 309.161585 238.942491 
L 309.332439 238.843142 
L 309.626416 238.735515 
L 309.743443 238.69205 
L 310.122723 238.582353 
L 310.204584 238.569934 
L 310.205828 238.569934 
L 310.302721 238.424016 
L 310.399532 238.391935 
L 310.627614 238.282237 
L 310.929968 238.131145 
L 311.140632 238.021448 
L 311.239744 237.959355 
L 311.24837 237.959355 
L 311.489059 237.849658 
L 314.297371 236.587104 
L 314.495305 236.515698 
L 314.855509 236.096571 
L 315.171257 235.986874 
L 315.279907 235.962037 
L 315.282147 235.962037 
L 315.572516 235.851305 
L 316.119353 235.597759 
L 316.240091 235.494271 
L 316.719603 235.383539 
L 316.823857 235.357667 
L 316.830534 235.357667 
L 316.91339 235.29247 
L 316.91339 235.257284 
L 317.016358 235.061691 
L 317.016939 235.061691 
L 317.703839 234.751227 
L 317.824598 234.707763 
L 318.125376 234.579437 
L 318.225649 234.451112 
L 318.337576 234.049579 
L 318.734438 233.939882 
L 318.829196 233.87158 
L 319.085146 233.761882 
L 319.194376 233.687371 
L 319.196242 233.687371 
L 319.381901 233.579744 
L 319.381901 233.577674 
L 319.487275 233.540418 
L 319.487607 233.540418 
L 319.801862 233.430721 
L 319.896828 233.389326 
L 319.91157 233.389326 
L 320.162813 233.279628 
L 320.271131 233.250652 
L 320.273868 233.250652 
L 320.449325 233.140954 
L 320.513644 233.128536 
L 320.560339 233.128536 
L 320.730074 233.018839 
L 320.789085 232.998141 
L 320.806502 232.998141 
L 321.040058 232.873955 
L 321.13834 232.809793 
L 321.304675 232.7032 
L 321.452803 232.524166 
L 321.825282 232.397911 
L 321.926675 232.346167 
L 321.926717 232.346167 
L 322.261583 232.23647 
L 322.370606 232.207493 
L 322.372638 232.207493 
L 322.727305 232.097796 
L 323.507159 231.685913 
L 323.616971 231.549309 
L 323.617136 231.549309 
L 323.772523 231.439612 
L 323.884034 231.389938 
L 324.086944 231.280241 
L 324.176394 231.242985 
L 324.177804 231.242985 
L 324.369496 231.133288 
L 324.483288 231.0298 
L 324.782926 230.920102 
L 324.89253 230.837312 
L 324.893795 230.837312 
L 325.139439 230.727615 
L 325.588346 230.539267 
L 325.690651 230.466825 
L 325.698012 230.466825 
L 325.851802 230.357128 
L 325.952904 230.272268 
L 325.962898 230.272268 
L 326.136946 230.161535 
L 326.324035 229.961804 
L 326.440647 225.681541 
L 326.599517 225.587367 
L 327.316213 225.155822 
L 327.553957 225.033706 
L 327.660741 224.917799 
L 327.664971 224.917799 
L 327.839724 224.807067 
L 327.936057 224.733591 
L 327.950696 224.733591 
L 328.084207 224.667358 
L 328.216266 224.547312 
L 329.623035 223.629374 
L 329.730192 223.53106 
L 329.733551 223.53106 
L 329.885578 223.421363 
L 329.996551 223.346852 
L 329.996675 223.346852 
L 330.112914 223.241294 
L 330.346097 223.130562 
L 330.456945 223.032248 
L 330.45711 223.032248 
L 330.611957 222.922551 
L 330.705181 222.866668 
L 330.722971 222.866668 
L 330.976391 222.76111 
L 330.976391 222.760075 
L 331.087965 222.440297 
L 331.301429 222.3306 
L 331.301429 222.329565 
L 331.410535 222.237461 
L 332.149376 221.840067 
L 332.313139 221.73037 
L 332.423758 221.688974 
L 332.519574 221.579277 
L 333.088224 221.248116 
L 333.198242 221.142558 
L 333.19932 221.142558 
L 333.535472 221.03493 
L 333.535472 221.031826 
L 333.648684 220.927303 
L 333.721089 220.819675 
L 333.721089 220.81864 
L 333.820284 220.757582 
L 333.832062 220.757582 
L 334.021411 220.647885 
L 334.147147 220.596141 
L 334.305933 220.488514 
L 334.305933 220.487479 
L 334.416408 220.418142 
L 334.41703 220.418142 
L 334.467747 220.317759 
L 334.57901 220.242212 
L 334.773709 220.13148 
L 334.891524 220.022818 
L 335.104055 219.913121 
L 335.208765 219.868621 
L 335.212124 219.868621 
L 335.384015 219.780656 
L 335.384015 219.773412 
L 335.494904 219.685447 
L 335.49507 219.685447 
L 335.69939 219.57575 
L 335.805967 219.389471 
L 335.810404 219.389471 
L 335.955547 219.278739 
L 336.064985 219.205263 
L 336.066602 219.205263 
L 336.335553 219.095565 
L 336.473957 219.041752 
L 336.627975 218.932054 
L 336.737993 218.843055 
L 336.738864 218.843055 
L 336.934019 218.735427 
L 337.411167 218.466359 
L 337.518739 218.398056 
L 337.522264 218.398056 
L 337.70023 218.287324 
L 337.886697 218.19729 
L 338.067463 218.087593 
L 338.167404 218.01929 
L 338.177087 218.01929 
L 338.331416 217.909593 
L 338.459349 217.787477 
L 338.62079 217.71814 
L 338.783433 217.454246 
L 338.927457 217.344549 
L 339.036583 217.257619 
L 339.037185 217.257619 
L 339.126095 217.147922 
L 339.23205 217.063061 
L 339.237192 217.063061 
L 339.380635 216.952329 
L 339.48435 216.862295 
L 339.484392 216.862295 
L 339.579854 216.768121 
L 339.579854 216.759842 
L 339.682491 216.502157 
L 339.68668 216.502157 
L 339.828194 216.382111 
L 339.973939 216.170995 
L 340.049579 216.086135 
L 340.160676 215.736346 
L 340.364249 215.626648 
L 340.472402 215.566625 
L 340.474019 215.566625 
L 340.73482 215.372068 
L 340.841936 215.320324 
L 341.072548 215.210627 
L 341.182981 215.144394 
L 341.183479 215.144394 
L 341.411602 215.036767 
L 341.411602 215.034697 
L 341.521455 214.949837 
L 341.521911 214.949837 
L 341.739791 214.844279 
L 341.739791 214.842209 
L 341.849022 214.761489 
L 341.850867 214.761489 
L 342.018881 214.650757 
L 342.28922 214.481036 
L 342.418667 214.333049 
L 342.525721 214.310281 
L 342.759381 214.140561 
L 342.930878 214.030864 
L 343.149463 213.834236 
L 343.386337 213.724539 
L 344.395164 212.915263 
L 344.614331 212.805566 
L 344.722359 212.726915 
L 344.725344 212.726915 
L 344.868808 212.617218 
L 344.999043 212.5158 
L 345.156336 212.406102 
L 345.266687 212.315033 
L 345.267433 212.315033 
L 345.321095 212.241556 
L 345.471836 211.933162 
L 345.815722 211.425036 
L 346.14501 211.315339 
L 346.316072 211.199432 
L 346.427085 211.102154 
L 346.427127 211.102154 
L 346.548674 210.994526 
L 346.675425 210.920015 
L 346.925258 210.750295 
L 347.049376 210.677853 
L 347.176024 210.572295 
L 347.176024 210.570225 
L 347.282144 210.462598 
L 347.286955 210.462598 
L 347.538592 210.352901 
L 347.640835 210.260796 
L 348.522952 209.469113 
L 348.628409 209.394602 
L 348.633759 209.394602 
L 348.819169 209.284905 
L 348.925745 209.183486 
L 348.930224 209.183486 
L 349.006818 209.073789 
L 349.105267 208.953743 
L 349.112607 208.953743 
L 349.287276 208.844046 
L 349.348278 208.784023 
L 349.3506 208.784023 
L 349.625854 208.630861 
L 349.741325 208.523233 
L 349.921033 208.413536 
L 350.029787 208.332815 
L 350.03186 208.332815 
L 350.153781 208.223118 
L 350.258159 208.12377 
L 350.264877 208.12377 
L 350.353394 208.014072 
L 350.463786 207.927142 
L 350.550892 207.831933 
L 350.550892 207.81641 
L 350.660911 207.68498 
L 350.661968 207.68498 
L 350.816359 207.574248 
L 350.927103 207.482144 
L 351.143864 207.3414 
L 351.254795 207.103378 
L 351.254919 207.103378 
L 351.390607 206.993681 
L 351.499216 206.906751 
L 351.733187 206.65217 
L 351.849218 206.503148 
L 351.958428 206.443125 
L 352.189185 206.217521 
L 352.325163 206.107824 
L 352.435265 206.04987 
L 352.43626 206.04987 
L 352.49017 205.989847 
L 352.49017 205.949487 
L 352.597286 205.751825 
L 352.601226 205.751825 
L 352.838224 205.641093 
L 352.944012 205.571756 
L 352.945007 205.571756 
L 353.160649 205.375129 
L 353.269755 205.226106 
L 353.271745 205.226106 
L 353.423275 205.116409 
L 353.531013 205.041897 
L 353.53433 205.041897 
L 353.613703 204.942549 
L 353.735001 204.75834 
L 353.849622 204.648643 
L 353.959973 204.547225 
L 353.960678 204.547225 
L 354.057882 204.437528 
L 354.161224 204.120854 
L 354.16873 204.120854 
L 354.334359 203.965622 
L 354.435586 203.702763 
L 354.445394 203.702763 
L 354.568309 203.60031 
L 355.264208 202.980417 
L 355.370183 202.835534 
L 355.375284 202.835534 
L 355.511055 202.725836 
L 355.619291 202.580953 
L 355.622152 202.580953 
L 355.835471 202.471256 
L 355.944204 202.369838 
L 355.945593 202.369838 
L 356.095692 202.26014 
L 356.166688 202.147339 
L 356.488532 201.759259 
L 356.598426 201.682677 
L 356.599608 201.682677 
L 356.655364 201.605062 
L 356.655364 201.596782 
L 356.76559 201.39912 
L 356.92645 201.289423 
L 357.035473 201.163168 
L 357.036883 201.163168 
L 357.255054 200.880646 
L 357.365528 200.734728 
L 357.366067 200.734728 
L 357.426488 200.62503 
L 357.52842 200.478077 
L 357.537502 200.478077 
L 357.608332 200.378729 
L 357.789243 200.088963 
L 357.86312 199.979265 
L 357.960905 199.923382 
L 357.966628 199.923382 
L 358.11737 199.775394 
L 358.254281 199.623267 
L 358.309871 199.544616 
L 358.309871 199.516674 
L 358.418314 199.389384 
L 358.420926 199.389384 
L 358.567023 199.279687 
L 358.675093 199.236222 
L 358.678078 199.236222 
L 358.818453 199.126524 
L 358.924594 199.012688 
L 358.926833 199.012688 
L 359.063993 198.884362 
L 359.174551 198.801572 
L 359.174924 198.801572 
L 359.334395 198.69084 
L 359.445471 198.462131 
L 359.577385 198.352434 
L 359.680561 198.259295 
L 359.687611 198.259295 
L 359.805841 198.149598 
L 359.913288 198.04611 
L 359.916917 198.04611 
L 359.991043 197.956075 
L 360.551068 197.193369 
L 360.682173 197.085741 
L 361.218996 196.597278 
L 361.319414 196.485511 
L 361.470176 196.384093 
L 361.470176 196.378918 
L 361.582393 196.261977 
L 361.657245 196.15228 
L 361.760587 196.046722 
L 361.7683 196.046722 
L 361.884788 195.937025 
L 361.994641 195.854234 
L 361.995885 195.854234 
L 362.094872 195.744537 
L 362.203522 195.63484 
L 362.205596 195.63484 
L 362.404255 195.381294 
L 362.565426 195.262283 
L 362.671671 195.069795 
L 362.674014 195.069795 
L 362.77916 194.960098 
L 362.886773 194.842122 
L 362.890091 194.842122 
L 362.992355 194.732425 
L 363.103327 194.657913 
L 363.103451 194.657913 
L 363.164038 194.548216 
L 363.164038 194.547181 
L 363.280982 194.403333 
L 363.383329 194.293636 
L 363.493472 194.161171 
L 363.494031 194.161171 
L 363.567536 194.051474 
L 363.673366 193.952125 
L 364.010202 193.43365 
L 364.128576 192.952431 
L 364.245977 192.841699 
L 364.35529 192.712339 
L 364.357073 192.712339 
L 364.426908 192.602642 
L 364.954213 191.762319 
L 365.099791 191.652622 
L 365.208566 191.354577 
L 365.251031 191.24488 
L 365.305832 191.036869 
L 365.563752 190.772974 
L 365.860466 190.38386 
L 365.996755 190.276232 
L 366.176712 190.003024 
L 366.305641 189.903675 
L 366.441495 189.613909 
L 366.515538 189.524909 
L 366.989721 188.779796 
L 367.313639 188.425867 
L 367.424653 188.320309 
L 367.424736 188.320309 
L 367.515056 188.210612 
L 367.622338 188.107124 
L 367.625676 188.107124 
L 367.715685 188.001566 
L 367.715685 187.998462 
L 367.824087 187.927055 
L 367.826782 187.927055 
L 367.932446 187.818392 
L 368.058783 187.62694 
L 368.157667 187.517242 
L 368.26528 187.397196 
L 368.266193 187.397196 
L 368.374096 187.250243 
L 368.472317 187.145721 
L 368.645887 187.019465 
L 368.870071 186.631385 
L 369.000534 186.521688 
L 369.000534 186.520653 
L 369.136803 186.207085 
L 369.210473 186.108771 
L 369.79596 185.356413 
L 369.918626 185.165995 
L 370.012265 185.055263 
L 370.12249 184.903136 
L 370.12332 184.903136 
L 370.232716 184.793439 
L 370.347835 184.590602 
L 370.394903 184.505742 
L 370.508696 184.323603 
L 370.608554 184.213906 
L 370.71795 184.08972 
L 370.718987 184.08972 
L 370.818265 183.967605 
L 370.928408 183.764768 
L 370.929279 183.764768 
L 371.016323 183.655071 
L 371.120578 183.454304 
L 371.127379 183.454304 
L 371.242373 183.344607 
L 371.348411 183.173852 
L 371.515699 182.984469 
L 371.625551 182.738167 
L 371.625676 182.738167 
L 371.716618 182.63261 
L 371.847288 182.37389 
L 371.894315 182.264192 
L 371.999647 182.104821 
L 372.004085 182.104821 
L 372.023409 182.07274 
L 372.171621 181.72916 
L 372.285994 181.498381 
L 372.359229 181.388684 
L 372.468667 181.256219 
L 372.469331 181.256219 
L 372.564461 181.149627 
L 372.673982 180.99129 
L 372.675517 180.99129 
L 372.750493 180.880558 
L 372.866898 180.749128 
L 373.076506 180.487304 
L 373.194341 180.3507 
L 373.30465 180.142689 
L 373.305438 180.142689 
L 373.37324 180.032991 
L 373.487862 179.854992 
L 373.517845 179.778411 
L 373.742091 179.372738 
L 373.833925 179.262006 
L 373.942699 179.066414 
L 373.94498 179.066414 
L 374.020206 178.956716 
L 374.131012 178.830461 
L 374.131302 178.830461 
L 374.246484 178.619346 
L 374.584605 178.093627 
L 374.753303 177.741768 
L 374.850134 177.611373 
L 374.962433 177.470629 
L 375.055408 177.360932 
L 375.20221 177.236746 
L 375.307999 176.982166 
L 375.308911 176.982166 
L 375.809758 176.098378 
L 375.85975 175.988681 
L 375.969437 175.833449 
L 375.970722 175.833449 
L 376.044247 175.723752 
L 376.153022 175.533334 
L 376.155261 175.533334 
L 376.286512 175.313939 
L 376.380897 175.204242 
L 376.537278 174.844104 
L 376.816077 174.322525 
L 376.856012 174.281129 
L 377.03375 173.786457 
L 377.086956 173.67676 
L 377.197741 173.514283 
L 377.470963 173.128273 
L 377.562009 173.017541 
L 377.700994 172.55702 
L 377.754117 172.447322 
L 377.863181 172.217579 
L 377.865213 172.217579 
L 377.898472 172.107882 
L 377.981908 171.967138 
L 378.094415 171.805697 
L 378.204599 171.584233 
L 378.249179 171.482814 
L 378.358783 171.236513 
L 378.360276 171.236513 
L 378.411283 171.126816 
L 378.525449 170.973653 
L 378.586118 170.863956 
L 378.695577 170.551423 
L 378.697008 170.551423 
L 378.77497 170.441725 
L 378.885901 170.303051 
L 378.886067 170.303051 
L 378.964693 170.192319 
L 379.075375 170.005006 
L 379.075748 170.005006 
L 379.159579 169.896344 
L 379.273641 169.804239 
L 379.352267 169.694542 
L 379.460606 169.463764 
L 379.622938 169.230916 
L 379.742536 169.02601 
L 379.830907 168.916312 
L 379.99042 168.657592 
L 380.072177 168.554104 
L 380.16623 168.355408 
L 380.274589 168.191897 
L 380.277326 168.191897 
L 380.336192 168.084269 
L 380.445775 167.860735 
L 380.447144 167.860735 
L 380.503293 167.751038 
L 380.613975 167.312249 
L 380.614245 167.312249 
L 380.674438 167.202551 
L 380.783482 166.966599 
L 380.785535 166.966599 
L 380.820991 166.87139 
L 381.128446 166.109718 
L 381.158262 166.068323 
L 381.700558 165.093466 
L 381.771679 164.983769 
L 381.879748 164.820258 
L 381.882734 164.820258 
L 381.942284 164.710561 
L 382.051971 164.505655 
L 382.053256 164.505655 
L 382.113677 164.395957 
L 382.224732 164.20347 
L 382.273832 164.093772 
L 382.384473 163.893006 
L 382.384929 163.893006 
L 382.453437 163.783308 
L 382.564326 163.487333 
L 382.564533 163.487333 
L 382.619045 163.377636 
L 382.818078 163.040265 
L 382.884761 162.929533 
L 382.979352 162.769126 
L 383.073094 162.585952 
L 383.216703 162.104733 
L 383.329251 161.559352 
L 383.512235 161.119528 
L 383.539771 161.051226 
L 383.539771 161.024319 
L 383.650494 160.67246 
L 383.650867 160.67246 
L 383.696318 160.568972 
L 383.696318 160.566902 
L 383.806461 160.337159 
L 383.807373 160.337159 
L 383.845774 160.227461 
L 383.956871 159.987369 
L 383.999937 159.879742 
L 384.116031 159.678975 
L 384.123951 159.569278 
L 384.234675 159.254674 
L 384.234986 159.254674 
L 384.305007 159.144977 
L 384.414486 158.871769 
L 384.416104 158.871769 
L 384.490334 158.761037 
L 384.60649 158.503352 
L 384.669399 158.393654 
L 384.669399 158.392619 
L 384.786011 158.118376 
L 384.824163 158.007644 
L 384.937375 157.73961 
L 384.944259 157.712703 
L 385.081585 157.285298 
L 385.315224 156.830986 
L 385.484233 156.568126 
L 385.594852 156.382883 
L 385.595205 156.382883 
L 386.007411 155.460805 
L 386.053567 155.351108 
L 386.163295 155.082039 
L 386.164498 155.082039 
L 386.225873 154.976481 
L 386.225873 154.972342 
L 386.336969 154.531483 
L 386.375391 154.42489 
L 387.238827 152.579699 
L 387.296365 152.472072 
L 387.296365 152.470002 
L 387.407421 152.254747 
L 387.461165 152.14505 
L 387.569815 151.871842 
L 387.57222 151.871842 
L 387.624513 151.762144 
L 387.735527 151.271611 
L 387.735569 151.271611 
L 387.782408 151.168123 
L 387.889835 150.959078 
L 388.000683 150.704497 
L 388.000849 150.704497 
L 388.050695 150.595835 
L 388.180702 150.178778 
L 388.185927 150.16222 
L 388.300424 149.715152 
L 388.368766 149.607525 
L 388.368766 149.605455 
L 388.479842 149.330177 
L 388.489483 149.230828 
L 388.610782 148.6989 
L 388.663365 148.588168 
L 388.774171 148.35325 
L 388.774296 148.35325 
L 388.826547 148.243553 
L 388.94036 147.970345 
L 388.993213 147.860647 
L 389.103605 147.564672 
L 389.10431 147.564672 
L 389.158635 147.454975 
L 389.319039 147.119673 
L 389.348524 146.988244 
L 389.472185 146.676745 
L 389.517097 146.570152 
L 389.67296 146.088933 
L 389.750031 145.979236 
L 389.857271 145.720516 
L 389.861128 145.720516 
L 389.906661 145.609784 
L 390.017633 145.366587 
L 390.017758 145.366587 
L 390.053712 145.25689 
L 390.165285 145.004379 
L 390.210964 144.894682 
L 390.275159 144.768426 
L 390.751456 143.731477 
L 390.790375 143.62178 
L 390.901265 143.313385 
L 390.901472 143.313385 
L 390.948416 143.203688 
L 391.058517 142.901503 
L 391.059512 142.901503 
L 391.122815 142.802155 
L 391.241128 142.238145 
L 391.77399 140.789314 
L 391.884464 140.575093 
L 391.885086 140.575093 
L 391.92836 140.473675 
L 392.121255 139.964514 
L 392.174668 139.856887 
L 392.174668 139.854817 
L 392.285764 139.565051 
L 392.338348 139.455353 
L 392.44932 139.190424 
L 392.449361 139.190424 
L 392.50464 139.082797 
L 392.50464 139.079692 
L 392.615696 138.803379 
L 392.615716 138.803379 
L 392.662929 138.699891 
L 392.662929 138.692647 
L 392.773777 138.408055 
L 392.774026 138.408055 
L 392.813505 138.300428 
L 392.923772 138.064475 
L 392.924374 138.064475 
L 392.987843 137.954778 
L 393.098856 137.702267 
L 393.098919 137.702267 
L 393.147915 137.59464 
L 393.147915 137.591535 
L 393.277175 137.139292 
L 393.334652 137.029595 
L 393.443385 136.737759 
L 393.444255 136.737759 
L 393.487923 136.628062 
L 393.597858 136.340365 
L 393.598937 136.340365 
L 393.641401 136.230668 
L 393.752083 135.924343 
L 393.752498 135.924343 
L 393.801017 135.814646 
L 393.911575 135.535229 
L 393.91201 135.535229 
L 393.950017 135.425531 
L 394.060948 135.135765 
L 394.061114 135.135765 
L 394.078116 135.031242 
L 394.231014 134.610046 
L 394.285173 134.500349 
L 394.392165 134.227141 
L 394.396021 134.227141 
L 394.45412 134.117443 
L 394.565175 133.831816 
L 394.565217 133.831816 
L 394.605069 133.721084 
L 394.715958 133.337144 
L 394.716103 133.337144 
L 394.757884 133.226412 
L 394.866119 132.900425 
L 394.868856 132.900425 
L 394.967885 132.557879 
L 395.078567 132.258799 
L 395.078899 132.258799 
L 395.132208 132.149102 
L 395.132208 132.148067 
L 395.248945 131.859336 
L 395.291285 131.748603 
L 395.449055 131.288082 
L 395.49463 131.178385 
L 395.605603 130.944502 
L 395.605623 130.944502 
L 395.653873 130.834804 
L 395.764638 130.516062 
L 395.76497 130.516062 
L 395.806481 130.406364 
L 395.917329 130.079342 
L 395.917495 130.079342 
L 395.962033 129.969645 
L 396.072342 129.686088 
L 396.073129 129.686088 
L 396.101785 129.576391 
L 396.210145 129.214183 
L 396.212799 129.214183 
L 396.256632 129.110695 
L 396.369429 128.671906 
L 396.397628 128.564278 
L 396.508559 128.301419 
L 396.508725 128.301419 
L 396.548494 128.191721 
L 396.659508 127.870909 
L 396.71346 127.761211 
L 396.824142 127.471445 
L 396.824556 127.471445 
L 396.842554 127.402108 
L 397.026741 126.626983 
L 397.075695 126.517286 
L 397.186294 126.153008 
L 397.186792 126.153008 
L 397.217645 126.043311 
L 397.328327 125.701801 
L 397.328659 125.701801 
L 397.349269 125.591068 
L 397.459122 125.294058 
L 397.459661 125.294058 
L 397.506397 125.184361 
L 397.506397 125.183326 
L 397.633543 124.784897 
L 397.664562 124.6752 
L 397.774912 124.310922 
L 397.775658 124.310922 
L 397.806097 124.201225 
L 397.916986 123.834877 
L 397.917173 123.834877 
L 397.946471 123.72518 
L 398.057526 123.391949 
L 398.057568 123.391949 
L 398.086223 123.282252 
L 398.195164 122.967648 
L 398.195972 122.967648 
L 398.235472 122.857951 
L 398.344951 122.52058 
L 398.346486 122.52058 
L 398.385467 122.412952 
L 398.494946 122.088 
L 398.496543 122.088 
L 398.517589 122.019698 
L 398.629059 121.603676 
L 398.666837 121.535374 
L 398.953225 120.703331 
L 399.064073 120.382518 
L 399.064281 120.382518 
L 399.107409 120.272821 
L 399.21834 119.84645 
L 399.218464 119.84645 
L 399.258524 119.736753 
L 399.368915 119.312452 
L 399.369579 119.312452 
L 399.396327 119.202755 
L 399.506884 118.81778 
L 399.507382 118.81778 
L 399.540765 118.708083 
L 399.651281 118.370712 
L 399.651364 118.370712 
L 401.617867 112.213177 
L 401.655874 112.111759 
L 401.821876 111.58604 
L 401.932102 111.186576 
L 401.932433 111.186576 
L 401.960384 111.076879 
L 402.067582 110.731229 
L 402.071232 110.731229 
L 402.113157 110.621532 
L 402.223964 110.20758 
L 402.224254 110.20758 
L 402.264148 110.097883 
L 402.37512 109.613559 
L 402.375244 109.613559 
L 402.404107 109.503861 
L 402.515121 109.08784 
L 402.546016 108.978143 
L 402.656988 108.622144 
L 402.657029 108.622144 
L 402.684648 108.512447 
L 402.794584 108.146099 
L 402.795703 108.146099 
L 402.826474 108.036402 
L 402.936948 107.570706 
L 402.937529 107.570706 
L 402.967885 107.461009 
L 403.077364 107.100871 
L 403.078981 107.100871 
L 403.101914 106.991173 
L 403.212969 106.583431 
L 403.213011 106.583431 
L 403.246352 106.473733 
L 403.356536 106.041154 
L 403.357428 106.041154 
L 403.391288 105.931456 
L 403.502198 105.505086 
L 403.502343 105.505086 
L 403.533321 105.395389 
L 403.653085 104.960739 
L 403.697208 104.853112 
L 403.808263 104.43295 
L 403.840485 104.325323 
L 403.840485 104.323253 
L 403.951499 103.948627 
L 403.951582 103.948627 
L 403.978164 103.838929 
L 404.08897 103.431187 
L 404.08926 103.431187 
L 404.120321 103.320455 
L 404.23119 102.924096 
L 404.231418 102.924096 
L 404.257627 102.814398 
L 404.367272 102.448051 
L 404.419565 102.272121 
L 404.530496 101.901634 
L 404.530662 101.901634 
L 404.564418 101.791937 
L 404.67539 101.42145 
L 404.675431 101.42145 
L 404.704667 101.311753 
L 404.815764 100.90608 
L 404.844129 100.798452 
L 404.844129 100.796383 
L 404.953982 100.409338 
L 404.955226 100.409338 
L 404.990765 100.29964 
L 405.100742 99.842223 
L 405.101862 99.842223 
L 405.133254 99.732526 
L 405.244144 99.35169 
L 405.24431 99.35169 
L 405.276428 99.240958 
L 405.396793 98.765948 
L 405.429512 98.655216 
L 405.539738 98.194695 
L 405.540485 98.194695 
L 405.564786 98.084997 
L 405.675634 97.697952 
L 405.675799 97.697952 
L 405.710426 97.588255 
L 405.820984 97.188792 
L 405.821482 97.188792 
L 405.850718 97.079094 
L 405.960487 96.648584 
L 405.961731 96.648584 
L 405.990138 96.538887 
L 406.100944 96.095958 
L 406.101235 96.095958 
L 406.125909 95.988331 
L 406.236923 95.574379 
L 406.236985 95.574379 
L 406.270181 95.464682 
L 406.379246 95.067288 
L 406.380988 95.067288 
L 406.40757 94.957591 
L 406.518418 94.496034 
L 406.518625 94.496034 
L 406.550308 94.386337 
L 406.661238 93.922711 
L 406.66128 93.922711 
L 406.696073 93.813014 
L 406.806589 93.432178 
L 406.807169 93.432178 
L 406.985322 92.767785 
L 407.023972 92.658088 
L 407.134488 92.173764 
L 407.134986 92.173764 
L 407.165797 92.064067 
L 407.276231 91.645975 
L 407.276583 91.645975 
L 407.302108 91.536278 
L 407.411297 91.105768 
L 407.413038 91.105768 
L 407.432239 90.996071 
L 407.543004 90.544863 
L 407.543335 90.544863 
L 407.565605 90.435166 
L 407.676287 89.923935 
L 407.676701 89.923935 
L 407.709462 89.814238 
L 407.818776 89.429263 
L 407.820476 89.429263 
L 407.846063 89.319565 
L 407.957159 88.793846 
L 407.978682 88.686219 
L 408.089322 88.214314 
L 408.089779 88.214314 
L 408.118766 88.104616 
L 408.229862 87.63892 
L 408.253666 87.531293 
L 408.364182 87.007644 
L 408.364389 87.007644 
L 408.391179 86.897947 
L 408.502068 86.463297 
L 408.502234 86.463297 
L 408.525664 86.3536 
L 408.635849 85.863067 
L 408.636657 85.863067 
L 408.661974 85.753369 
L 408.772781 85.223511 
L 408.772988 85.223511 
L 408.801934 85.113814 
L 408.912782 84.581885 
L 408.91303 84.581885 
L 408.938824 84.472188 
L 409.049548 83.973376 
L 409.049797 83.973376 
L 409.082309 83.862644 
L 409.218743 83.232402 
L 409.239229 83.122705 
L 409.350243 82.615614 
L 409.350326 82.615614 
L 409.377737 82.505917 
L 409.487507 82.005035 
L 409.488834 82.005035 
L 409.516328 81.897407 
L 409.516328 81.894303 
L 409.627342 81.386177 
L 409.627425 81.386177 
L 409.646542 81.276479 
L 409.757224 80.742481 
L 409.757598 80.742481 
L 409.782645 80.634854 
L 409.782645 80.632784 
L 409.891046 80.14846 
L 409.893742 80.14846 
L 409.918997 80.038763 
L 410.029596 79.554439 
L 410.030011 79.554439 
L 410.057422 79.444742 
L 410.168145 78.887977 
L 410.168456 78.887977 
L 410.193069 78.778279 
L 410.303792 78.269119 
L 410.304165 78.269119 
L 410.329213 78.159421 
L 410.440185 77.635772 
L 410.440268 77.635772 
L 410.461832 77.526075 
L 410.572639 77.05417 
L 410.572887 77.05417 
L 410.601377 76.944472 
L 410.712017 76.420823 
L 410.712474 76.420823 
L 410.732669 76.311126 
L 410.843517 75.789546 
L 410.843766 75.789546 
L 410.874909 75.679849 
L 410.985716 75.123084 
L 410.986006 75.123084 
L 411.01292 75.013387 
L 411.124017 74.477319 
L 411.144959 74.367622 
L 411.255889 73.829484 
L 411.256055 73.829484 
L 411.277454 73.719787 
L 411.388219 73.152673 
L 411.388509 73.152673 
L 411.409451 73.042975 
L 411.520465 72.455164 
L 411.520548 72.455164 
L 411.544351 72.347536 
L 411.654535 71.705911 
L 411.65524 71.705911 
L 411.672533 71.598283 
L 411.783547 70.991844 
L 411.783588 70.991844 
L 411.807433 70.884216 
L 411.918157 70.33159 
L 411.918489 70.33159 
L 411.940882 70.221893 
L 412.051689 69.656849 
L 412.051896 69.656849 
L 412.077566 69.547151 
L 412.188455 68.928293 
L 412.188621 68.928293 
L 412.207448 68.818596 
L 412.318213 68.170761 
L 412.318296 68.170761 
L 412.339155 68.061064 
L 412.450127 67.417369 
L 412.45021 67.417369 
L 412.466715 67.307671 
L 412.576858 66.661906 
L 412.577646 66.661906 
L 412.594109 66.552209 
L 412.705082 65.902305 
L 412.705206 65.902305 
L 412.730917 65.792607 
L 412.841848 65.115796 
L 412.841889 65.115796 
L 412.855491 65.006099 
L 412.965178 64.378961 
L 412.966546 64.378961 
L 412.98442 64.269264 
L 413.095434 63.687662 
L 413.095517 63.687662 
L 413.117412 63.582104 
L 413.117412 63.580034 
L 413.228426 62.932199 
L 413.245636 62.822502 
L 413.355364 62.23469 
L 413.356691 62.23469 
L 413.377219 62.124993 
L 413.487818 61.470949 
L 413.488274 61.470949 
L 413.505276 61.361252 
L 413.616083 60.68651 
L 413.616332 60.68651 
L 413.638062 60.578883 
L 413.748163 59.897932 
L 413.749117 59.897932 
L 413.769022 59.788235 
L 413.879082 59.092795 
L 413.880077 59.092795 
L 413.89538 58.985168 
L 414.006103 58.28145 
L 414.006435 58.28145 
L 414.025221 58.171752 
L 414.13611 57.488732 
L 414.136317 57.488732 
L 414.158379 57.379034 
L 414.268646 56.72706 
L 414.269434 56.72706 
L 414.287515 56.617363 
L 414.398446 55.942621 
L 414.398612 55.942621 
L 414.419015 55.832924 
L 414.529738 55.197508 
L 414.529945 55.197508 
L 414.552878 55.08781 
L 414.663643 54.384092 
L 414.663975 54.384092 
L 414.6867 54.274395 
L 414.72 54.144 
L 414.72 54.144 
" clip-path="url(#pcd42fdc3cd)" style="fill: none; stroke: #ff8c00; stroke-width: 1.5; stroke-linecap: square"/>
   </g>
   <g id="line2d_14">
    <path d="M 74.605714 307.584 
L 414.72 54.144 
" clip-path="url(#pcd42fdc3cd)" style="fill: none; stroke-dasharray: 5.55,2.4; stroke-dashoffset: 0; stroke: #0000ff; stroke-width: 1.5"/>
   </g>
   <g id="patch_3">
    <path d="M 57.6 307.584 
L 57.6 41.472 
" style="fill: none; stroke: #000000; stroke-width: 0.8; stroke-linejoin: miter; stroke-linecap: square"/>
   </g>
   <g id="patch_4">
    <path d="M 414.72 307.584 
L 414.72 41.472 
" style="fill: none; stroke: #000000; stroke-width: 0.8; stroke-linejoin: miter; stroke-linecap: square"/>
   </g>
   <g id="patch_5">
    <path d="M 57.6 307.584 
L 414.72 307.584 
" style="fill: none; stroke: #000000; stroke-width: 0.8; stroke-linejoin: miter; stroke-linecap: square"/>
   </g>
   <g id="patch_6">
    <path d="M 57.6 41.472 
L 414.72 41.472 
" style="fill: none; stroke: #000000; stroke-width: 0.8; stroke-linejoin: miter; stroke-linecap: square"/>
   </g>
   <g id="text_15">
    <!-- ROC CURVE -->
    <g transform="translate(200.855625 35.472)scale(0.12 -0.12)">
     <defs>
      <path id="DejaVuSans-4f" d="M 2522 4238 
Q 1834 4238 1429 3725 
Q 1025 3213 1025 2328 
Q 1025 1447 1429 934 
Q 1834 422 2522 422 
Q 3209 422 3611 934 
Q 4013 1447 4013 2328 
Q 4013 3213 3611 3725 
Q 3209 4238 2522 4238 
z
M 2522 4750 
Q 3503 4750 4090 4092 
Q 4678 3434 4678 2328 
Q 4678 1225 4090 567 
Q 3503 -91 2522 -91 
Q 1538 -91 948 565 
Q 359 1222 359 2328 
Q 359 3434 948 4092 
Q 1538 4750 2522 4750 
z
" transform="scale(0.015625)"/>
      <path id="DejaVuSans-43" d="M 4122 4306 
L 4122 3641 
Q 3803 3938 3442 4084 
Q 3081 4231 2675 4231 
Q 1875 4231 1450 3742 
Q 1025 3253 1025 2328 
Q 1025 1406 1450 917 
Q 1875 428 2675 428 
Q 3081 428 3442 575 
Q 3803 722 4122 1019 
L 4122 359 
Q 3791 134 3420 21 
Q 3050 -91 2638 -91 
Q 1578 -91 968 557 
Q 359 1206 359 2328 
Q 359 3453 968 4101 
Q 1578 4750 2638 4750 
Q 3056 4750 3426 4639 
Q 3797 4528 4122 4306 
z
" transform="scale(0.015625)"/>
      <path id="DejaVuSans-55" d="M 556 4666 
L 1191 4666 
L 1191 1831 
Q 1191 1081 1462 751 
Q 1734 422 2344 422 
Q 2950 422 3222 751 
Q 3494 1081 3494 1831 
L 3494 4666 
L 4128 4666 
L 4128 1753 
Q 4128 841 3676 375 
Q 3225 -91 2344 -91 
Q 1459 -91 1007 375 
Q 556 841 556 1753 
L 556 4666 
z
" transform="scale(0.015625)"/>
      <path id="DejaVuSans-56" d="M 1831 0 
L 50 4666 
L 709 4666 
L 2188 738 
L 3669 4666 
L 4325 4666 
L 2547 0 
L 1831 0 
z
" transform="scale(0.015625)"/>
      <path id="DejaVuSans-45" d="M 628 4666 
L 3578 4666 
L 3578 4134 
L 1259 4134 
L 1259 2753 
L 3481 2753 
L 3481 2222 
L 1259 2222 
L 1259 531 
L 3634 531 
L 3634 0 
L 628 0 
L 628 4666 
z
" transform="scale(0.015625)"/>
     </defs>
     <use xlink:href="#DejaVuSans-52"/>
     <use xlink:href="#DejaVuSans-4f" x="69.482422"/>
     <use xlink:href="#DejaVuSans-43" x="148.193359"/>
     <use xlink:href="#DejaVuSans-20" x="218.017578"/>
     <use xlink:href="#DejaVuSans-43" x="249.804688"/>
     <use xlink:href="#DejaVuSans-55" x="319.628906"/>
     <use xlink:href="#DejaVuSans-52" x="392.822266"/>
     <use xlink:href="#DejaVuSans-56" x="456.804688"/>
     <use xlink:href="#DejaVuSans-45" x="525.212891"/>
    </g>
   </g>
   <g id="legend_1">
    <g id="patch_7">
     <path d="M 234.97 302.584 
L 407.72 302.584 
Q 409.72 302.584 409.72 300.584 
L 409.72 286.905875 
Q 409.72 284.905875 407.72 284.905875 
L 234.97 284.905875 
Q 232.97 284.905875 232.97 286.905875 
L 232.97 300.584 
Q 232.97 302.584 234.97 302.584 
z
" style="fill: #ffffff; opacity: 0.8; stroke: #cccccc; stroke-linejoin: miter"/>
    </g>
    <g id="line2d_15">
     <path d="M 236.97 293.004312 
L 246.97 293.004312 
L 256.97 293.004312 
" style="fill: none; stroke: #ff8c00; stroke-width: 1.5; stroke-linecap: square"/>
    </g>
    <g id="text_16">
     <!-- ROC curve (ROC AUC=0.25) -->
     <g transform="translate(264.97 296.504312)scale(0.1 -0.1)">
      <defs>
       <path id="DejaVuSans-63" d="M 3122 3366 
L 3122 2828 
Q 2878 2963 2633 3030 
Q 2388 3097 2138 3097 
Q 1578 3097 1268 2742 
Q 959 2388 959 1747 
Q 959 1106 1268 751 
Q 1578 397 2138 397 
Q 2388 397 2633 464 
Q 2878 531 3122 666 
L 3122 134 
Q 2881 22 2623 -34 
Q 2366 -91 2075 -91 
Q 1284 -91 818 406 
Q 353 903 353 1747 
Q 353 2603 823 3093 
Q 1294 3584 2113 3584 
Q 2378 3584 2631 3529 
Q 2884 3475 3122 3366 
z
" transform="scale(0.015625)"/>
       <path id="DejaVuSans-28" d="M 1984 4856 
Q 1566 4138 1362 3434 
Q 1159 2731 1159 2009 
Q 1159 1288 1364 580 
Q 1569 -128 1984 -844 
L 1484 -844 
Q 1016 -109 783 600 
Q 550 1309 550 2009 
Q 550 2706 781 3412 
Q 1013 4119 1484 4856 
L 1984 4856 
z
" transform="scale(0.015625)"/>
       <path id="DejaVuSans-41" d="M 2188 4044 
L 1331 1722 
L 3047 1722 
L 2188 4044 
z
M 1831 4666 
L 2547 4666 
L 4325 0 
L 3669 0 
L 3244 1197 
L 1141 1197 
L 716 0 
L 50 0 
L 1831 4666 
z
" transform="scale(0.015625)"/>
       <path id="DejaVuSans-3d" d="M 678 2906 
L 4684 2906 
L 4684 2381 
L 678 2381 
L 678 2906 
z
M 678 1631 
L 4684 1631 
L 4684 1100 
L 678 1100 
L 678 1631 
z
" transform="scale(0.015625)"/>
       <path id="DejaVuSans-35" d="M 691 4666 
L 3169 4666 
L 3169 4134 
L 1269 4134 
L 1269 2991 
Q 1406 3038 1543 3061 
Q 1681 3084 1819 3084 
Q 2600 3084 3056 2656 
Q 3513 2228 3513 1497 
Q 3513 744 3044 326 
Q 2575 -91 1722 -91 
Q 1428 -91 1123 -41 
Q 819 9 494 109 
L 494 744 
Q 775 591 1075 516 
Q 1375 441 1709 441 
Q 2250 441 2565 725 
Q 2881 1009 2881 1497 
Q 2881 1984 2565 2268 
Q 2250 2553 1709 2553 
Q 1456 2553 1204 2497 
Q 953 2441 691 2322 
L 691 4666 
z
" transform="scale(0.015625)"/>
       <path id="DejaVuSans-29" d="M 513 4856 
L 1013 4856 
Q 1481 4119 1714 3412 
Q 1947 2706 1947 2009 
Q 1947 1309 1714 600 
Q 1481 -109 1013 -844 
L 513 -844 
Q 928 -128 1133 580 
Q 1338 1288 1338 2009 
Q 1338 2731 1133 3434 
Q 928 4138 513 4856 
z
" transform="scale(0.015625)"/>
      </defs>
      <use xlink:href="#DejaVuSans-52"/>
      <use xlink:href="#DejaVuSans-4f" x="69.482422"/>
      <use xlink:href="#DejaVuSans-43" x="148.193359"/>
      <use xlink:href="#DejaVuSans-20" x="218.017578"/>
      <use xlink:href="#DejaVuSans-63" x="249.804688"/>
      <use xlink:href="#DejaVuSans-75" x="304.785156"/>
      <use xlink:href="#DejaVuSans-72" x="368.164062"/>
      <use xlink:href="#DejaVuSans-76" x="409.277344"/>
      <use xlink:href="#DejaVuSans-65" x="468.457031"/>
      <use xlink:href="#DejaVuSans-20" x="529.980469"/>
      <use xlink:href="#DejaVuSans-28" x="561.767578"/>
      <use xlink:href="#DejaVuSans-52" x="600.78125"/>
      <use xlink:href="#DejaVuSans-4f" x="670.263672"/>
      <use xlink:href="#DejaVuSans-43" x="748.974609"/>
      <use xlink:href="#DejaVuSans-20" x="818.798828"/>
      <use xlink:href="#DejaVuSans-41" x="850.585938"/>
      <use xlink:href="#DejaVuSans-55" x="918.994141"/>
      <use xlink:href="#DejaVuSans-43" x="992.1875"/>
      <use xlink:href="#DejaVuSans-3d" x="1062.011719"/>
      <use xlink:href="#DejaVuSans-30" x="1145.800781"/>
      <use xlink:href="#DejaVuSans-2e" x="1209.423828"/>
      <use xlink:href="#DejaVuSans-32" x="1241.210938"/>
      <use xlink:href="#DejaVuSans-35" x="1304.833984"/>
      <use xlink:href="#DejaVuSans-29" x="1368.457031"/>
     </g>
    </g>
   </g>
  </g>
 </g>
 <defs>
  <clipPath id="pcd42fdc3cd">
   <rect x="57.6" y="41.472" width="357.12" height="266.112"/>
  </clipPath>
 </defs>
</svg>
