<?xml version="1.0" encoding="utf-8" standalone="no"?>
<!DOCTYPE svg PUBLIC "-//W3C//DTD SVG 1.1//EN"
  "http://www.w3.org/Graphics/SVG/1.1/DTD/svg11.dtd">
<svg xmlns:xlink="http://www.w3.org/1999/xlink" width="460.8pt" height="345.6pt" viewBox="0 0 460.8 345.6" xmlns="http://www.w3.org/2000/svg" version="1.1">
 <metadata>
  <rdf:RDF xmlns:dc="http://purl.org/dc/elements/1.1/" xmlns:cc="http://creativecommons.org/ns#" xmlns:rdf="http://www.w3.org/1999/02/22-rdf-syntax-ns#">
   <cc:Work>
    <dc:type rdf:resource="http://purl.org/dc/dcmitype/StillImage"/>
    <dc:date>2022-05-25T18:37:16.248548</dc:date>
    <dc:format>image/svg+xml</dc:format>
    <dc:creator>
     <cc:Agent>
      <dc:title>Matplotlib v3.5.1, https://matplotlib.org/</dc:title>
     </cc:Agent>
    </dc:creator>
   </cc:Work>
  </rdf:RDF>
 </metadata>
 <defs>
  <style type="text/css">*{stroke-linejoin: round; stroke-linecap: butt}</style>
 </defs>
 <g id="figure_1">
  <g id="patch_1">
   <path d="M 0 345.6 
L 460.8 345.6 
L 460.8 0 
L 0 0 
z
" style="fill: #ffffff"/>
  </g>
  <g id="axes_1">
   <g id="patch_2">
    <path d="M 57.6 307.584 
L 414.72 307.584 
L 414.72 41.472 
L 57.6 41.472 
z
" style="fill: #ffffff"/>
   </g>
   <g id="matplotlib.axis_1">
    <g id="xtick_1">
     <g id="line2d_1">
      <defs>
       <path id="m31df328ac2" d="M 0 0 
L 0 3.5 
" style="stroke: #000000; stroke-width: 0.8"/>
      </defs>
      <g>
       <use xlink:href="#m31df328ac2" x="74.605714" y="307.584" style="stroke: #000000; stroke-width: 0.8"/>
      </g>
     </g>
     <g id="text_1">
      <!-- 0.0 -->
      <g transform="translate(66.654152 322.182437)scale(0.1 -0.1)">
       <defs>
        <path id="DejaVuSans-30" d="M 2034 4250 
Q 1547 4250 1301 3770 
Q 1056 3291 1056 2328 
Q 1056 1369 1301 889 
Q 1547 409 2034 409 
Q 2525 409 2770 889 
Q 3016 1369 3016 2328 
Q 3016 3291 2770 3770 
Q 2525 4250 2034 4250 
z
M 2034 4750 
Q 2819 4750 3233 4129 
Q 3647 3509 3647 2328 
Q 3647 1150 3233 529 
Q 2819 -91 2034 -91 
Q 1250 -91 836 529 
Q 422 1150 422 2328 
Q 422 3509 836 4129 
Q 1250 4750 2034 4750 
z
" transform="scale(0.015625)"/>
        <path id="DejaVuSans-2e" d="M 684 794 
L 1344 794 
L 1344 0 
L 684 0 
L 684 794 
z
" transform="scale(0.015625)"/>
       </defs>
       <use xlink:href="#DejaVuSans-30"/>
       <use xlink:href="#DejaVuSans-2e" x="63.623047"/>
       <use xlink:href="#DejaVuSans-30" x="95.410156"/>
      </g>
     </g>
    </g>
    <g id="xtick_2">
     <g id="line2d_2">
      <g>
       <use xlink:href="#m31df328ac2" x="142.628571" y="307.584" style="stroke: #000000; stroke-width: 0.8"/>
      </g>
     </g>
     <g id="text_2">
      <!-- 0.2 -->
      <g transform="translate(134.677009 322.182437)scale(0.1 -0.1)">
       <defs>
        <path id="DejaVuSans-32" d="M 1228 531 
L 3431 531 
L 3431 0 
L 469 0 
L 469 531 
Q 828 903 1448 1529 
Q 2069 2156 2228 2338 
Q 2531 2678 2651 2914 
Q 2772 3150 2772 3378 
Q 2772 3750 2511 3984 
Q 2250 4219 1831 4219 
Q 1534 4219 1204 4116 
Q 875 4013 500 3803 
L 500 4441 
Q 881 4594 1212 4672 
Q 1544 4750 1819 4750 
Q 2544 4750 2975 4387 
Q 3406 4025 3406 3419 
Q 3406 3131 3298 2873 
Q 3191 2616 2906 2266 
Q 2828 2175 2409 1742 
Q 1991 1309 1228 531 
z
" transform="scale(0.015625)"/>
       </defs>
       <use xlink:href="#DejaVuSans-30"/>
       <use xlink:href="#DejaVuSans-2e" x="63.623047"/>
       <use xlink:href="#DejaVuSans-32" x="95.410156"/>
      </g>
     </g>
    </g>
    <g id="xtick_3">
     <g id="line2d_3">
      <g>
       <use xlink:href="#m31df328ac2" x="210.651429" y="307.584" style="stroke: #000000; stroke-width: 0.8"/>
      </g>
     </g>
     <g id="text_3">
      <!-- 0.4 -->
      <g transform="translate(202.699866 322.182437)scale(0.1 -0.1)">
       <defs>
        <path id="DejaVuSans-34" d="M 2419 4116 
L 825 1625 
L 2419 1625 
L 2419 4116 
z
M 2253 4666 
L 3047 4666 
L 3047 1625 
L 3713 1625 
L 3713 1100 
L 3047 1100 
L 3047 0 
L 2419 0 
L 2419 1100 
L 313 1100 
L 313 1709 
L 2253 4666 
z
" transform="scale(0.015625)"/>
       </defs>
       <use xlink:href="#DejaVuSans-30"/>
       <use xlink:href="#DejaVuSans-2e" x="63.623047"/>
       <use xlink:href="#DejaVuSans-34" x="95.410156"/>
      </g>
     </g>
    </g>
    <g id="xtick_4">
     <g id="line2d_4">
      <g>
       <use xlink:href="#m31df328ac2" x="278.674286" y="307.584" style="stroke: #000000; stroke-width: 0.8"/>
      </g>
     </g>
     <g id="text_4">
      <!-- 0.6 -->
      <g transform="translate(270.722723 322.182437)scale(0.1 -0.1)">
       <defs>
        <path id="DejaVuSans-36" d="M 2113 2584 
Q 1688 2584 1439 2293 
Q 1191 2003 1191 1497 
Q 1191 994 1439 701 
Q 1688 409 2113 409 
Q 2538 409 2786 701 
Q 3034 994 3034 1497 
Q 3034 2003 2786 2293 
Q 2538 2584 2113 2584 
z
M 3366 4563 
L 3366 3988 
Q 3128 4100 2886 4159 
Q 2644 4219 2406 4219 
Q 1781 4219 1451 3797 
Q 1122 3375 1075 2522 
Q 1259 2794 1537 2939 
Q 1816 3084 2150 3084 
Q 2853 3084 3261 2657 
Q 3669 2231 3669 1497 
Q 3669 778 3244 343 
Q 2819 -91 2113 -91 
Q 1303 -91 875 529 
Q 447 1150 447 2328 
Q 447 3434 972 4092 
Q 1497 4750 2381 4750 
Q 2619 4750 2861 4703 
Q 3103 4656 3366 4563 
z
" transform="scale(0.015625)"/>
       </defs>
       <use xlink:href="#DejaVuSans-30"/>
       <use xlink:href="#DejaVuSans-2e" x="63.623047"/>
       <use xlink:href="#DejaVuSans-36" x="95.410156"/>
      </g>
     </g>
    </g>
    <g id="xtick_5">
     <g id="line2d_5">
      <g>
       <use xlink:href="#m31df328ac2" x="346.697143" y="307.584" style="stroke: #000000; stroke-width: 0.8"/>
      </g>
     </g>
     <g id="text_5">
      <!-- 0.8 -->
      <g transform="translate(338.74558 322.182437)scale(0.1 -0.1)">
       <defs>
        <path id="DejaVuSans-38" d="M 2034 2216 
Q 1584 2216 1326 1975 
Q 1069 1734 1069 1313 
Q 1069 891 1326 650 
Q 1584 409 2034 409 
Q 2484 409 2743 651 
Q 3003 894 3003 1313 
Q 3003 1734 2745 1975 
Q 2488 2216 2034 2216 
z
M 1403 2484 
Q 997 2584 770 2862 
Q 544 3141 544 3541 
Q 544 4100 942 4425 
Q 1341 4750 2034 4750 
Q 2731 4750 3128 4425 
Q 3525 4100 3525 3541 
Q 3525 3141 3298 2862 
Q 3072 2584 2669 2484 
Q 3125 2378 3379 2068 
Q 3634 1759 3634 1313 
Q 3634 634 3220 271 
Q 2806 -91 2034 -91 
Q 1263 -91 848 271 
Q 434 634 434 1313 
Q 434 1759 690 2068 
Q 947 2378 1403 2484 
z
M 1172 3481 
Q 1172 3119 1398 2916 
Q 1625 2713 2034 2713 
Q 2441 2713 2670 2916 
Q 2900 3119 2900 3481 
Q 2900 3844 2670 4047 
Q 2441 4250 2034 4250 
Q 1625 4250 1398 4047 
Q 1172 3844 1172 3481 
z
" transform="scale(0.015625)"/>
       </defs>
       <use xlink:href="#DejaVuSans-30"/>
       <use xlink:href="#DejaVuSans-2e" x="63.623047"/>
       <use xlink:href="#DejaVuSans-38" x="95.410156"/>
      </g>
     </g>
    </g>
    <g id="xtick_6">
     <g id="line2d_6">
      <g>
       <use xlink:href="#m31df328ac2" x="414.72" y="307.584" style="stroke: #000000; stroke-width: 0.8"/>
      </g>
     </g>
     <g id="text_6">
      <!-- 1.0 -->
      <g transform="translate(406.768438 322.182437)scale(0.1 -0.1)">
       <defs>
        <path id="DejaVuSans-31" d="M 794 531 
L 1825 531 
L 1825 4091 
L 703 3866 
L 703 4441 
L 1819 4666 
L 2450 4666 
L 2450 531 
L 3481 531 
L 3481 0 
L 794 0 
L 794 531 
z
" transform="scale(0.015625)"/>
       </defs>
       <use xlink:href="#DejaVuSans-31"/>
       <use xlink:href="#DejaVuSans-2e" x="63.623047"/>
       <use xlink:href="#DejaVuSans-30" x="95.410156"/>
      </g>
     </g>
    </g>
    <g id="text_7">
     <!-- False Positive Rate -->
     <g transform="translate(189.693594 335.860562)scale(0.1 -0.1)">
      <defs>
       <path id="DejaVuSans-46" d="M 628 4666 
L 3309 4666 
L 3309 4134 
L 1259 4134 
L 1259 2759 
L 3109 2759 
L 3109 2228 
L 1259 2228 
L 1259 0 
L 628 0 
L 628 4666 
z
" transform="scale(0.015625)"/>
       <path id="DejaVuSans-61" d="M 2194 1759 
Q 1497 1759 1228 1600 
Q 959 1441 959 1056 
Q 959 750 1161 570 
Q 1363 391 1709 391 
Q 2188 391 2477 730 
Q 2766 1069 2766 1631 
L 2766 1759 
L 2194 1759 
z
M 3341 1997 
L 3341 0 
L 2766 0 
L 2766 531 
Q 2569 213 2275 61 
Q 1981 -91 1556 -91 
Q 1019 -91 701 211 
Q 384 513 384 1019 
Q 384 1609 779 1909 
Q 1175 2209 1959 2209 
L 2766 2209 
L 2766 2266 
Q 2766 2663 2505 2880 
Q 2244 3097 1772 3097 
Q 1472 3097 1187 3025 
Q 903 2953 641 2809 
L 641 3341 
Q 956 3463 1253 3523 
Q 1550 3584 1831 3584 
Q 2591 3584 2966 3190 
Q 3341 2797 3341 1997 
z
" transform="scale(0.015625)"/>
       <path id="DejaVuSans-6c" d="M 603 4863 
L 1178 4863 
L 1178 0 
L 603 0 
L 603 4863 
z
" transform="scale(0.015625)"/>
       <path id="DejaVuSans-73" d="M 2834 3397 
L 2834 2853 
Q 2591 2978 2328 3040 
Q 2066 3103 1784 3103 
Q 1356 3103 1142 2972 
Q 928 2841 928 2578 
Q 928 2378 1081 2264 
Q 1234 2150 1697 2047 
L 1894 2003 
Q 2506 1872 2764 1633 
Q 3022 1394 3022 966 
Q 3022 478 2636 193 
Q 2250 -91 1575 -91 
Q 1294 -91 989 -36 
Q 684 19 347 128 
L 347 722 
Q 666 556 975 473 
Q 1284 391 1588 391 
Q 1994 391 2212 530 
Q 2431 669 2431 922 
Q 2431 1156 2273 1281 
Q 2116 1406 1581 1522 
L 1381 1569 
Q 847 1681 609 1914 
Q 372 2147 372 2553 
Q 372 3047 722 3315 
Q 1072 3584 1716 3584 
Q 2034 3584 2315 3537 
Q 2597 3491 2834 3397 
z
" transform="scale(0.015625)"/>
       <path id="DejaVuSans-65" d="M 3597 1894 
L 3597 1613 
L 953 1613 
Q 991 1019 1311 708 
Q 1631 397 2203 397 
Q 2534 397 2845 478 
Q 3156 559 3463 722 
L 3463 178 
Q 3153 47 2828 -22 
Q 2503 -91 2169 -91 
Q 1331 -91 842 396 
Q 353 884 353 1716 
Q 353 2575 817 3079 
Q 1281 3584 2069 3584 
Q 2775 3584 3186 3129 
Q 3597 2675 3597 1894 
z
M 3022 2063 
Q 3016 2534 2758 2815 
Q 2500 3097 2075 3097 
Q 1594 3097 1305 2825 
Q 1016 2553 972 2059 
L 3022 2063 
z
" transform="scale(0.015625)"/>
       <path id="DejaVuSans-20" transform="scale(0.015625)"/>
       <path id="DejaVuSans-50" d="M 1259 4147 
L 1259 2394 
L 2053 2394 
Q 2494 2394 2734 2622 
Q 2975 2850 2975 3272 
Q 2975 3691 2734 3919 
Q 2494 4147 2053 4147 
L 1259 4147 
z
M 628 4666 
L 2053 4666 
Q 2838 4666 3239 4311 
Q 3641 3956 3641 3272 
Q 3641 2581 3239 2228 
Q 2838 1875 2053 1875 
L 1259 1875 
L 1259 0 
L 628 0 
L 628 4666 
z
" transform="scale(0.015625)"/>
       <path id="DejaVuSans-6f" d="M 1959 3097 
Q 1497 3097 1228 2736 
Q 959 2375 959 1747 
Q 959 1119 1226 758 
Q 1494 397 1959 397 
Q 2419 397 2687 759 
Q 2956 1122 2956 1747 
Q 2956 2369 2687 2733 
Q 2419 3097 1959 3097 
z
M 1959 3584 
Q 2709 3584 3137 3096 
Q 3566 2609 3566 1747 
Q 3566 888 3137 398 
Q 2709 -91 1959 -91 
Q 1206 -91 779 398 
Q 353 888 353 1747 
Q 353 2609 779 3096 
Q 1206 3584 1959 3584 
z
" transform="scale(0.015625)"/>
       <path id="DejaVuSans-69" d="M 603 3500 
L 1178 3500 
L 1178 0 
L 603 0 
L 603 3500 
z
M 603 4863 
L 1178 4863 
L 1178 4134 
L 603 4134 
L 603 4863 
z
" transform="scale(0.015625)"/>
       <path id="DejaVuSans-74" d="M 1172 4494 
L 1172 3500 
L 2356 3500 
L 2356 3053 
L 1172 3053 
L 1172 1153 
Q 1172 725 1289 603 
Q 1406 481 1766 481 
L 2356 481 
L 2356 0 
L 1766 0 
Q 1100 0 847 248 
Q 594 497 594 1153 
L 594 3053 
L 172 3053 
L 172 3500 
L 594 3500 
L 594 4494 
L 1172 4494 
z
" transform="scale(0.015625)"/>
       <path id="DejaVuSans-76" d="M 191 3500 
L 800 3500 
L 1894 563 
L 2988 3500 
L 3597 3500 
L 2284 0 
L 1503 0 
L 191 3500 
z
" transform="scale(0.015625)"/>
       <path id="DejaVuSans-52" d="M 2841 2188 
Q 3044 2119 3236 1894 
Q 3428 1669 3622 1275 
L 4263 0 
L 3584 0 
L 2988 1197 
Q 2756 1666 2539 1819 
Q 2322 1972 1947 1972 
L 1259 1972 
L 1259 0 
L 628 0 
L 628 4666 
L 2053 4666 
Q 2853 4666 3247 4331 
Q 3641 3997 3641 3322 
Q 3641 2881 3436 2590 
Q 3231 2300 2841 2188 
z
M 1259 4147 
L 1259 2491 
L 2053 2491 
Q 2509 2491 2742 2702 
Q 2975 2913 2975 3322 
Q 2975 3731 2742 3939 
Q 2509 4147 2053 4147 
L 1259 4147 
z
" transform="scale(0.015625)"/>
      </defs>
      <use xlink:href="#DejaVuSans-46"/>
      <use xlink:href="#DejaVuSans-61" x="48.394531"/>
      <use xlink:href="#DejaVuSans-6c" x="109.673828"/>
      <use xlink:href="#DejaVuSans-73" x="137.457031"/>
      <use xlink:href="#DejaVuSans-65" x="189.556641"/>
      <use xlink:href="#DejaVuSans-20" x="251.080078"/>
      <use xlink:href="#DejaVuSans-50" x="282.867188"/>
      <use xlink:href="#DejaVuSans-6f" x="339.544922"/>
      <use xlink:href="#DejaVuSans-73" x="400.726562"/>
      <use xlink:href="#DejaVuSans-69" x="452.826172"/>
      <use xlink:href="#DejaVuSans-74" x="480.609375"/>
      <use xlink:href="#DejaVuSans-69" x="519.818359"/>
      <use xlink:href="#DejaVuSans-76" x="547.601562"/>
      <use xlink:href="#DejaVuSans-65" x="606.78125"/>
      <use xlink:href="#DejaVuSans-20" x="668.304688"/>
      <use xlink:href="#DejaVuSans-52" x="700.091797"/>
      <use xlink:href="#DejaVuSans-61" x="767.324219"/>
      <use xlink:href="#DejaVuSans-74" x="828.603516"/>
      <use xlink:href="#DejaVuSans-65" x="867.8125"/>
     </g>
    </g>
   </g>
   <g id="matplotlib.axis_2">
    <g id="ytick_1">
     <g id="line2d_7">
      <defs>
       <path id="mc2ac5425c7" d="M 0 0 
L -3.5 0 
" style="stroke: #000000; stroke-width: 0.8"/>
      </defs>
      <g>
       <use xlink:href="#mc2ac5425c7" x="57.6" y="307.584" style="stroke: #000000; stroke-width: 0.8"/>
      </g>
     </g>
     <g id="text_8">
      <!-- 0.0 -->
      <g transform="translate(34.696875 311.383219)scale(0.1 -0.1)">
       <use xlink:href="#DejaVuSans-30"/>
       <use xlink:href="#DejaVuSans-2e" x="63.623047"/>
       <use xlink:href="#DejaVuSans-30" x="95.410156"/>
      </g>
     </g>
    </g>
    <g id="ytick_2">
     <g id="line2d_8">
      <g>
       <use xlink:href="#mc2ac5425c7" x="57.6" y="256.896" style="stroke: #000000; stroke-width: 0.8"/>
      </g>
     </g>
     <g id="text_9">
      <!-- 0.2 -->
      <g transform="translate(34.696875 260.695219)scale(0.1 -0.1)">
       <use xlink:href="#DejaVuSans-30"/>
       <use xlink:href="#DejaVuSans-2e" x="63.623047"/>
       <use xlink:href="#DejaVuSans-32" x="95.410156"/>
      </g>
     </g>
    </g>
    <g id="ytick_3">
     <g id="line2d_9">
      <g>
       <use xlink:href="#mc2ac5425c7" x="57.6" y="206.208" style="stroke: #000000; stroke-width: 0.8"/>
      </g>
     </g>
     <g id="text_10">
      <!-- 0.4 -->
      <g transform="translate(34.696875 210.007219)scale(0.1 -0.1)">
       <use xlink:href="#DejaVuSans-30"/>
       <use xlink:href="#DejaVuSans-2e" x="63.623047"/>
       <use xlink:href="#DejaVuSans-34" x="95.410156"/>
      </g>
     </g>
    </g>
    <g id="ytick_4">
     <g id="line2d_10">
      <g>
       <use xlink:href="#mc2ac5425c7" x="57.6" y="155.52" style="stroke: #000000; stroke-width: 0.8"/>
      </g>
     </g>
     <g id="text_11">
      <!-- 0.6 -->
      <g transform="translate(34.696875 159.319219)scale(0.1 -0.1)">
       <use xlink:href="#DejaVuSans-30"/>
       <use xlink:href="#DejaVuSans-2e" x="63.623047"/>
       <use xlink:href="#DejaVuSans-36" x="95.410156"/>
      </g>
     </g>
    </g>
    <g id="ytick_5">
     <g id="line2d_11">
      <g>
       <use xlink:href="#mc2ac5425c7" x="57.6" y="104.832" style="stroke: #000000; stroke-width: 0.8"/>
      </g>
     </g>
     <g id="text_12">
      <!-- 0.8 -->
      <g transform="translate(34.696875 108.631219)scale(0.1 -0.1)">
       <use xlink:href="#DejaVuSans-30"/>
       <use xlink:href="#DejaVuSans-2e" x="63.623047"/>
       <use xlink:href="#DejaVuSans-38" x="95.410156"/>
      </g>
     </g>
    </g>
    <g id="ytick_6">
     <g id="line2d_12">
      <g>
       <use xlink:href="#mc2ac5425c7" x="57.6" y="54.144" style="stroke: #000000; stroke-width: 0.8"/>
      </g>
     </g>
     <g id="text_13">
      <!-- 1.0 -->
      <g transform="translate(34.696875 57.943219)scale(0.1 -0.1)">
       <use xlink:href="#DejaVuSans-31"/>
       <use xlink:href="#DejaVuSans-2e" x="63.623047"/>
       <use xlink:href="#DejaVuSans-30" x="95.410156"/>
      </g>
     </g>
    </g>
    <g id="text_14">
     <!-- True Positive Rate -->
     <g transform="translate(28.617187 219.057687)rotate(-90)scale(0.1 -0.1)">
      <defs>
       <path id="DejaVuSans-54" d="M -19 4666 
L 3928 4666 
L 3928 4134 
L 2272 4134 
L 2272 0 
L 1638 0 
L 1638 4134 
L -19 4134 
L -19 4666 
z
" transform="scale(0.015625)"/>
       <path id="DejaVuSans-72" d="M 2631 2963 
Q 2534 3019 2420 3045 
Q 2306 3072 2169 3072 
Q 1681 3072 1420 2755 
Q 1159 2438 1159 1844 
L 1159 0 
L 581 0 
L 581 3500 
L 1159 3500 
L 1159 2956 
Q 1341 3275 1631 3429 
Q 1922 3584 2338 3584 
Q 2397 3584 2469 3576 
Q 2541 3569 2628 3553 
L 2631 2963 
z
" transform="scale(0.015625)"/>
       <path id="DejaVuSans-75" d="M 544 1381 
L 544 3500 
L 1119 3500 
L 1119 1403 
Q 1119 906 1312 657 
Q 1506 409 1894 409 
Q 2359 409 2629 706 
Q 2900 1003 2900 1516 
L 2900 3500 
L 3475 3500 
L 3475 0 
L 2900 0 
L 2900 538 
Q 2691 219 2414 64 
Q 2138 -91 1772 -91 
Q 1169 -91 856 284 
Q 544 659 544 1381 
z
M 1991 3584 
L 1991 3584 
z
" transform="scale(0.015625)"/>
      </defs>
      <use xlink:href="#DejaVuSans-54"/>
      <use xlink:href="#DejaVuSans-72" x="46.333984"/>
      <use xlink:href="#DejaVuSans-75" x="87.447266"/>
      <use xlink:href="#DejaVuSans-65" x="150.826172"/>
      <use xlink:href="#DejaVuSans-20" x="212.349609"/>
      <use xlink:href="#DejaVuSans-50" x="244.136719"/>
      <use xlink:href="#DejaVuSans-6f" x="300.814453"/>
      <use xlink:href="#DejaVuSans-73" x="361.996094"/>
      <use xlink:href="#DejaVuSans-69" x="414.095703"/>
      <use xlink:href="#DejaVuSans-74" x="441.878906"/>
      <use xlink:href="#DejaVuSans-69" x="481.087891"/>
      <use xlink:href="#DejaVuSans-76" x="508.871094"/>
      <use xlink:href="#DejaVuSans-65" x="568.050781"/>
      <use xlink:href="#DejaVuSans-20" x="629.574219"/>
      <use xlink:href="#DejaVuSans-52" x="661.361328"/>
      <use xlink:href="#DejaVuSans-61" x="728.59375"/>
      <use xlink:href="#DejaVuSans-74" x="789.873047"/>
      <use xlink:href="#DejaVuSans-65" x="829.082031"/>
     </g>
    </g>
   </g>
   <g id="line2d_13">
    <path d="M 74.605714 307.584 
L 74.716381 306.654744 
L 74.74412 306.54481 
L 74.854993 306.163151 
L 74.855076 306.163151 
L 74.883685 306.053217 
L 74.994765 305.665336 
L 75.026644 305.555401 
L 75.137725 305.163372 
L 75.166002 305.053437 
L 75.276503 304.6137 
L 75.276793 304.6137 
L 75.307637 304.503766 
L 75.418386 304.053658 
L 75.418717 304.053658 
L 75.448651 303.943723 
L 75.559069 303.406497 
L 75.559524 303.406497 
L 75.584945 303.296563 
L 75.695611 302.854752 
L 75.696025 302.854752 
L 75.716519 302.746892 
L 75.827185 302.336194 
L 75.82731 302.336194 
L 75.85567 302.22626 
L 75.966667 301.7803 
L 76.002728 301.670365 
L 76.112815 301.315672 
L 76.113767 301.315672 
L 76.145688 301.205738 
L 76.272252 300.815782 
L 76.313571 300.705848 
L 76.423078 300.394713 
L 76.42461 300.394713 
L 76.465474 300.284779 
L 76.57614 299.988164 
L 76.57643 299.988164 
L 76.621682 299.878229 
L 76.732141 299.51109 
L 76.732638 299.51109 
L 76.772466 299.401156 
L 76.890958 299.02572 
L 76.925155 298.914749 
L 77.035325 298.606725 
L 77.036194 298.606725 
L 77.075236 298.496791 
L 77.192237 298.183582 
L 77.23219 298.073648 
L 77.342732 297.808146 
L 77.343229 297.808146 
L 77.390468 297.698212 
L 77.499727 297.380854 
L 77.501507 297.380854 
L 77.544813 297.27092 
L 77.661855 296.970156 
L 77.702139 296.860222 
L 77.825723 296.549087 
L 77.870292 296.439153 
L 78.012899 296.092756 
L 78.05546 295.982822 
L 78.173165 295.650945 
L 78.21792 295.545159 
L 78.331981 295.321142 
L 78.376819 295.211208 
L 78.48732 294.974746 
L 78.487858 294.974746 
L 78.528846 294.864811 
L 78.651436 294.578567 
L 78.704596 294.470707 
L 78.821017 294.203131 
L 78.878565 294.095271 
L 78.994697 293.844289 
L 79.049222 293.734355 
L 79.172061 293.441888 
L 79.226049 293.331954 
L 79.335887 293.101714 
L 79.337129 293.101714 
L 79.396665 292.99178 
L 79.512051 292.773986 
L 79.556764 292.664051 
L 79.677719 292.417218 
L 79.742078 292.307284 
L 79.857713 292.081192 
L 79.915054 291.971258 
L 80.024768 291.73687 
L 80.026051 291.73687 
L 80.15303 291.473442 
L 80.201263 291.363508 
L 80.316856 291.137417 
L 80.372541 291.027483 
L 80.499727 290.759907 
L 80.568868 290.649972 
L 80.688974 290.423881 
L 80.735343 290.313947 
L 80.854828 290.104449 
L 80.906415 289.994515 
L 81.041094 289.702049 
L 81.09119 289.592114 
L 81.218376 289.324538 
L 81.270997 289.214604 
L 81.381871 288.969845 
L 81.382078 288.969845 
L 81.435403 288.861985 
L 81.548719 288.640042 
L 81.681183 288.376614 
L 81.732252 288.26668 
L 81.865069 287.999104 
L 81.937128 287.88917 
L 82.06065 287.640262 
L 82.133889 287.530328 
L 82.248985 287.327053 
L 82.388467 287.094739 
L 82.439557 286.984805 
L 82.558794 286.779456 
L 82.603507 286.669522 
L 82.733136 286.441356 
L 82.801407 286.333496 
L 82.911245 286.126073 
L 82.912363 286.126073 
L 82.968214 286.016139 
L 83.125043 285.738192 
L 83.197827 285.62722 
L 83.321535 285.437428 
L 83.390096 285.327494 
L 83.511734 285.064066 
L 83.580792 284.954132 
L 83.721433 284.713521 
L 83.773061 284.603587 
L 83.896355 284.400312 
L 83.966489 284.290378 
L 84.086843 284.051841 
L 84.162608 283.941907 
L 84.303622 283.697148 
L 84.372245 283.587213 
L 84.505041 283.346603 
L 84.570786 283.236668 
L 84.740285 282.937979 
L 84.796342 282.828045 
L 84.95549 282.535578 
L 85.020656 282.425644 
L 85.166638 282.182959 
L 85.256231 282.073024 
L 85.402627 281.826191 
L 85.479013 281.716256 
L 85.602514 281.508833 
L 85.665983 281.398899 
L 85.794659 281.181105 
L 85.86794 281.07117 
L 86.00589 280.807743 
L 86.075776 280.697809 
L 86.198904 280.498682 
L 86.26792 280.388748 
L 86.401772 280.164731 
L 86.472237 280.05376 
L 86.646124 279.749885 
L 86.714436 279.639951 
L 86.846797 279.432527 
L 86.912212 279.322593 
L 87.031324 279.121393 
L 87.08527 279.011458 
L 87.213284 278.801961 
L 87.278036 278.692027 
L 87.405698 278.488752 
L 87.480283 278.378818 
L 87.607096 278.185914 
L 87.674415 278.07598 
L 87.805534 277.878928 
L 87.881299 277.768994 
L 88.002812 277.553273 
L 88.068227 277.443339 
L 88.183841 277.215174 
L 88.256066 277.105239 
L 88.370707 276.92893 
L 88.441649 276.818995 
L 88.578998 276.584607 
L 88.657123 276.473636 
L 88.775118 276.300438 
L 88.914931 276.101311 
L 88.981132 275.991377 
L 89.150671 275.736247 
L 89.21826 275.626312 
L 89.341823 275.402295 
L 89.471203 275.176204 
L 89.644137 274.90448 
L 89.716114 274.794545 
L 89.876731 274.543563 
L 89.944464 274.433629 
L 90.116529 274.139088 
L 90.185545 274.029154 
L 90.335336 273.809285 
L 90.410729 273.699351 
L 90.541972 273.502299 
L 90.604819 273.392365 
L 90.784399 273.118566 
L 90.862586 273.008632 
L 90.984845 272.819877 
L 91.050425 272.708905 
L 91.198767 272.448589 
L 91.264678 272.338655 
L 91.390766 272.154048 
L 91.475412 272.044114 
L 91.59941 271.859507 
L 91.650416 271.749573 
L 91.802795 271.529705 
L 91.876241 271.41977 
L 92.004607 271.189531 
L 92.076025 271.079596 
L 92.193978 270.909509 
L 92.260759 270.799575 
L 92.383556 270.633637 
L 92.43684 270.522665 
L 93.030745 269.619337 
L 93.088873 269.508366 
L 93.233737 269.304054 
L 93.325173 269.19412 
L 93.443643 269.03233 
L 93.60631 268.754383 
L 93.682924 268.644448 
L 93.805473 268.47851 
L 93.885523 268.368576 
L 94.023141 268.183969 
L 94.092323 268.074035 
L 94.240148 267.852092 
L 94.317134 267.74112 
L 94.485804 267.549254 
L 94.578275 267.43932 
L 94.764209 267.153076 
L 94.833577 267.043141 
L 94.973867 266.866832 
L 95.057353 266.756897 
L 95.211408 266.526658 
L 95.29152 266.416723 
L 95.444955 266.190632 
L 95.532685 266.082772 
L 95.696014 265.867052 
L 95.768757 265.757118 
L 95.913952 265.551769 
L 95.977006 265.443909 
L 96.112224 265.228189 
L 96.21639 265.118254 
L 96.409053 264.805045 
L 96.491752 264.695111 
L 96.647008 264.458649 
L 96.723808 264.350789 
L 96.85857 264.157885 
L 96.943568 264.047951 
L 97.073942 263.859196 
L 97.173968 263.749262 
L 97.333861 263.500354 
L 97.408218 263.390419 
L 97.55834 263.182996 
L 97.632345 263.073062 
L 97.792714 262.849045 
L 97.88001 262.739111 
L 98.015248 262.558653 
L 98.07615 262.448718 
L 98.200106 262.266186 
L 98.2779 262.156252 
L 98.419286 261.996536 
L 98.487764 261.886601 
L 98.663431 261.629397 
L 98.74048 261.519462 
L 98.891016 261.307891 
L 98.978373 261.197957 
L 99.122782 260.963568 
L 99.170021 260.853634 
L 99.340099 260.619246 
L 99.410109 260.509312 
L 99.54779 260.301888 
L 99.620553 260.191954 
L 99.746248 259.984531 
L 99.844867 259.874597 
L 100.073859 259.534423 
L 100.138549 259.424488 
L 100.303638 259.237808 
L 100.379486 259.127873 
L 100.559645 258.825035 
L 100.634023 258.715101 
L 100.755867 258.563682 
L 100.988296 258.173727 
L 101.067663 258.065867 
L 101.206524 257.872963 
L 101.290403 257.767177 
L 101.416885 257.578422 
L 101.502462 257.468488 
L 101.628447 257.312921 
L 101.691254 257.201949 
L 101.81699 256.98934 
L 101.901615 256.879406 
L 102.060556 256.622201 
L 102.143069 256.512267 
L 102.269696 256.34218 
L 102.347407 256.232246 
L 102.588881 255.898295 
L 102.687997 255.790435 
L 102.835759 255.576789 
L 102.90846 255.466854 
L 103.068726 255.230392 
L 103.148258 255.120458 
L 103.276106 254.933777 
L 103.348683 254.823843 
L 103.498391 254.64131 
L 103.586577 254.531376 
L 103.777769 254.27832 
L 103.854404 254.168385 
L 103.984115 253.985853 
L 104.056464 253.877993 
L 104.201618 253.658124 
L 104.366955 253.434107 
L 104.457211 253.324173 
L 104.628945 253.104304 
L 104.71771 252.99437 
L 104.8923 252.762056 
L 104.980962 252.652122 
L 105.198899 252.309874 
L 105.294061 252.199939 
L 105.489311 251.913695 
L 105.561101 251.80791 
L 105.688867 251.627451 
L 105.832054 251.432474 
L 105.899187 251.322539 
L 106.096403 251.048741 
L 106.177923 250.938807 
L 106.339844 250.706493 
L 106.407474 250.596558 
L 106.539669 250.426471 
L 106.623093 250.316537 
L 106.783856 250.121559 
L 106.88206 250.010588 
L 107.153738 249.648634 
L 107.229585 249.5387 
L 107.403141 249.289792 
L 107.485985 249.181932 
L 107.638281 248.947544 
L 107.702019 248.83761 
L 107.842308 248.609444 
L 107.925256 248.501584 
L 108.09049 248.265122 
L 108.162177 248.155188 
L 108.521232 247.584774 
L 108.610142 247.47484 
L 108.836339 247.19067 
L 108.924111 247.080736 
L 109.069348 246.871238 
L 109.156291 246.761304 
L 109.391162 246.43565 
L 109.467962 246.325715 
L 109.619864 246.099624 
L 109.710327 245.991764 
L 109.827162 245.815454 
L 109.923711 245.70552 
L 110.167338 245.354975 
L 110.249583 245.245041 
L 110.370682 245.09777 
L 110.478658 244.987836 
L 110.706118 244.639365 
L 110.779109 244.528394 
L 111.41926 243.610546 
L 111.498813 243.500612 
L 111.6798 243.255852 
L 111.760575 243.145918 
L 111.900015 242.961311 
L 111.994742 242.853451 
L 112.133479 242.677142 
L 112.213136 242.56617 
L 112.370834 242.30378 
L 112.455583 242.193846 
L 112.642967 241.953235 
L 112.723824 241.847449 
L 112.84689 241.68151 
L 112.924912 241.571576 
L 113.118754 241.308149 
L 113.20607 241.198215 
L 113.378301 240.984569 
L 113.450795 240.874634 
L 113.587586 240.681731 
L 113.693056 240.571797 
L 113.856986 240.324963 
L 113.929852 240.215029 
L 114.081258 240.011754 
L 114.177517 239.90182 
L 114.32207 239.723436 
L 114.437539 239.613501 
L 114.588096 239.420598 
L 114.669616 239.310664 
L 114.813445 239.109463 
L 114.902479 238.999529 
L 115.132279 238.678023 
L 115.191235 238.568089 
L 115.334029 238.400076 
L 115.442584 238.290142 
L 115.631603 238.02464 
L 115.718794 237.914706 
L 115.85366 237.736322 
L 116.050814 237.508156 
L 116.147446 237.398222 
L 116.343689 237.14724 
L 116.421917 237.037306 
L 116.591726 236.792546 
L 116.664841 236.682612 
L 116.80954 236.491783 
L 116.87247 236.381849 
L 117.159218 236.004338 
L 117.240137 235.896478 
L 117.369124 235.757505 
L 117.786203 235.257615 
L 117.85435 235.149755 
L 118.001802 234.965148 
L 118.094314 234.855214 
L 118.32608 234.537857 
L 118.407517 234.427922 
L 118.564429 234.249538 
L 118.77802 233.944626 
L 118.881979 233.834692 
L 119.07992 233.538077 
L 119.179015 233.428143 
L 119.330896 233.222794 
L 119.434607 233.112859 
L 119.60158 232.915807 
L 119.701524 232.805873 
L 119.845684 232.588079 
L 120.001685 232.412806 
L 120.376494 231.95129 
L 120.459131 231.841355 
L 120.70841 231.515701 
L 120.7855 231.407841 
L 120.930074 231.202492 
L 121.018467 231.094632 
L 121.151262 230.918322 
L 121.232927 230.808388 
L 121.397146 230.578148 
L 121.481336 230.470288 
L 121.632494 230.287756 
L 121.743408 230.177822 
L 122.002189 229.827276 
L 122.103395 229.717342 
L 122.35934 229.383391 
L 122.455826 229.277605 
L 122.584709 229.107518 
L 122.651407 228.997584 
L 122.892447 228.663632 
L 122.983634 228.553698 
L 123.20683 228.219747 
L 123.269719 228.109812 
L 123.444351 227.83394 
L 123.534793 227.724005 
L 123.747121 227.477172 
L 123.84015 227.367238 
L 124.191049 226.931649 
L 124.280125 226.821715 
L 124.488334 226.570733 
L 125.267284 225.521171 
L 125.339405 225.411237 
L 125.675897 224.965277 
L 125.764455 224.859491 
L 125.894166 224.689404 
L 125.978563 224.57947 
L 126.232624 224.251742 
L 126.309755 224.145956 
L 126.438804 224.00076 
L 126.812909 223.48635 
L 126.918027 223.37849 
L 127.065872 223.210477 
L 127.163456 223.100543 
L 127.324715 222.903491 
L 127.766967 222.360042 
L 127.867283 222.249071 
L 128.030985 222.046833 
L 128.124511 221.936899 
L 128.291463 221.752292 
L 128.381325 221.642358 
L 128.598435 221.395524 
L 128.690284 221.28559 
L 128.990756 220.9226 
L 129.065072 220.812665 
L 129.309797 220.51605 
L 129.423154 220.406116 
L 129.685351 220.047274 
L 129.763517 219.936302 
L 129.955786 219.719545 
L 130.050036 219.611685 
L 130.216119 219.366926 
L 130.310142 219.256992 
L 130.687849 218.842145 
L 130.772391 218.732211 
L 131.108654 218.286251 
L 131.19241 218.176317 
L 131.401571 217.904593 
L 131.490356 217.794658 
L 131.813765 217.34455 
L 131.928406 217.234616 
L 132.090389 217.064529 
L 132.183647 216.954594 
L 132.382747 216.711909 
L 132.472754 216.601975 
L 132.680548 216.342696 
L 132.768361 216.232762 
L 132.971933 216.014967 
L 133.076099 215.905033 
L 133.577969 215.282764 
L 133.688698 215.172829 
L 133.894443 214.936367 
L 133.991716 214.828507 
L 134.186034 214.56508 
L 134.261551 214.455145 
L 134.525382 214.071412 
L 134.977757 213.530038 
L 135.107385 213.332986 
L 135.183316 213.223052 
L 135.505876 212.824799 
L 135.57514 212.714865 
L 135.774448 212.44314 
L 135.871327 212.33528 
L 136.028778 212.123709 
L 136.424453 211.578186 
L 136.506221 211.468252 
L 136.649098 211.275348 
L 136.74074 211.165414 
L 137.256024 210.482992 
L 137.338641 210.377206 
L 137.475846 210.205044 
L 137.566743 210.099259 
L 137.723345 209.858648 
L 137.815463 209.750788 
L 137.993531 209.497731 
L 138.098671 209.387797 
L 138.597229 208.759305 
L 138.683447 208.649371 
L 138.899978 208.390092 
L 138.997023 208.284306 
L 139.142901 208.103848 
L 139.74428 207.35505 
L 139.817561 207.245116 
L 140.199366 206.728632 
L 140.289974 206.617661 
L 140.673829 206.102214 
L 141.045843 205.672848 
L 141.136616 205.564988 
L 141.269266 205.43846 
L 141.354678 205.328526 
L 141.528813 205.143919 
L 141.600603 205.038133 
L 141.740292 204.841081 
L 142.243673 204.191847 
L 142.315484 204.081913 
L 142.658579 203.694031 
L 142.744984 203.586171 
L 142.934935 203.351783 
L 143.174567 203.065539 
L 143.27774 202.954568 
L 143.778492 202.401785 
L 143.94799 202.215104 
L 144.024169 202.10517 
L 144.457913 201.576241 
L 144.54171 201.466306 
L 144.966801 200.99753 
L 145.088149 200.887596 
L 145.641357 200.215545 
L 145.725567 200.10561 
L 146.378222 199.302883 
L 146.48065 199.199171 
L 146.609243 199.053975 
L 146.709435 198.944041 
L 147.030877 198.59557 
L 147.135167 198.489784 
L 147.270882 198.357033 
L 147.343293 198.249173 
L 147.667778 197.855069 
L 147.769936 197.745135 
L 148.030725 197.456816 
L 148.146732 197.346882 
L 148.35345 197.091752 
L 148.419817 196.981817 
L 148.724305 196.602233 
L 148.832508 196.492299 
L 149.137803 196.185312 
L 149.228432 196.075378 
L 149.419997 195.863807 
L 149.887814 195.318284 
L 149.977138 195.208349 
L 150.198347 194.953219 
L 150.289264 194.843285 
L 150.824711 194.210644 
L 150.919397 194.102784 
L 151.047493 193.970033 
L 151.363387 193.621562 
L 151.446811 193.513702 
L 151.585341 193.364357 
L 151.668682 193.256497 
L 151.835634 193.042851 
L 151.935599 192.934991 
L 152.087542 192.789795 
L 152.190218 192.679861 
L 152.385592 192.441324 
L 152.478394 192.33139 
L 152.80764 191.945583 
L 152.899303 191.835649 
L 153.330915 191.329536 
L 153.44243 191.219602 
L 153.645236 190.970694 
L 153.954775 190.667856 
L 154.069146 190.557922 
L 154.260277 190.300717 
L 154.337884 190.190783 
L 154.554456 189.91491 
L 154.674997 189.804976 
L 155.239507 189.180632 
L 155.321979 189.070698 
L 155.663149 188.695262 
L 157.031016 187.075287 
L 157.128558 186.965353 
L 157.361235 186.745484 
L 157.47629 186.63555 
L 157.631256 186.490353 
L 157.750037 186.379382 
L 158.089261 185.940682 
L 158.22214 185.760224 
L 158.524661 185.432495 
L 158.628538 185.322561 
L 158.765163 185.191884 
L 159.110287 184.816449 
L 159.211017 184.706514 
L 159.684299 184.171362 
L 160.675184 183.210993 
L 160.781751 183.101059 
L 160.970501 182.891561 
L 161.047177 182.781627 
L 161.589414 182.1801 
L 161.720822 182.070166 
L 161.939919 181.819184 
L 162.051745 181.713398 
L 162.195616 181.574424 
L 162.293448 181.46449 
L 162.837009 180.860889 
L 162.936538 180.750954 
L 163.357882 180.280104 
L 163.457267 180.170169 
L 163.631961 180.014602 
L 163.753806 179.904668 
L 164.243504 179.388184 
L 164.366466 179.27825 
L 164.531824 179.110237 
L 164.624895 179.000303 
L 165.548813 178.046156 
L 165.633479 177.936222 
L 165.817054 177.743318 
L 165.922317 177.633384 
L 166.292178 177.266245 
L 166.373574 177.156311 
L 166.564435 176.963407 
L 166.693298 176.853473 
L 166.845283 176.687534 
L 169.093969 174.524111 
L 169.219809 174.414177 
L 169.671003 173.976514 
L 169.789184 173.866579 
L 170.050573 173.603152 
L 170.202807 173.493218 
L 170.478997 173.213196 
L 170.587676 173.107411 
L 170.715897 172.97466 
L 170.815074 172.864725 
L 171.265917 172.373133 
L 171.369959 172.265272 
L 171.51768 172.118002 
L 171.616464 172.008068 
L 172.203745 171.371279 
L 172.320084 171.261344 
L 173.171259 170.321717 
L 173.289626 170.211783 
L 173.48765 170.002286 
L 173.786777 169.705671 
L 173.949298 169.595736 
L 174.72564 168.801306 
L 175.42454 168.07325 
L 175.692864 167.797377 
L 175.848224 167.689517 
L 176.006854 167.540173 
L 176.459104 167.085916 
L 176.561718 166.975982 
L 176.709066 166.83286 
L 176.819691 166.722925 
L 177.301109 166.285263 
L 177.450817 166.175328 
L 177.990983 165.660919 
L 178.097634 165.552022 
L 178.245024 165.447273 
L 178.344139 165.337339 
L 178.506827 165.179697 
L 180.414425 163.265181 
L 180.523643 163.157321 
L 180.732907 162.937453 
L 180.833285 162.827518 
L 181.237696 162.466602 
L 181.340993 162.356668 
L 181.616106 162.118131 
L 181.751614 162.008197 
L 181.895898 161.871297 
L 182.01646 161.763437 
L 182.20285 161.589202 
L 182.807975 160.964858 
L 182.949362 160.854924 
L 183.206859 160.616387 
L 183.666147 160.199467 
L 183.778511 160.089532 
L 184.257693 159.660166 
L 184.412494 159.550232 
L 184.586794 159.396739 
L 184.675394 159.288879 
L 184.830733 159.129163 
L 184.93287 159.019229 
L 185.087609 158.884404 
L 185.22885 158.77447 
L 185.626388 158.357549 
L 185.755271 158.249689 
L 185.901357 158.102418 
L 186.020242 157.992484 
L 186.704444 157.330804 
L 186.81685 157.225018 
L 186.976784 157.046635 
L 187.12467 156.9367 
L 187.462093 156.652531 
L 187.902689 156.277095 
L 188.01762 156.169235 
L 188.220777 155.984628 
L 188.332603 155.874694 
L 189.02993 155.291835 
L 189.155211 155.183974 
L 189.320114 155.026333 
L 189.416621 154.916399 
L 189.560409 154.767054 
L 189.691776 154.659194 
L 189.866615 154.505701 
L 189.99496 154.395766 
L 190.387053 154.026553 
L 190.551149 153.916619 
L 190.935107 153.593039 
L 191.0767 153.483104 
L 199.619504 146.121656 
L 199.714024 146.011722 
L 199.86576 145.878971 
L 200.783344 145.09906 
L 200.919783 144.989126 
L 201.118614 144.833558 
L 201.247249 144.723624 
L 202.686865 143.514347 
L 202.825104 143.404413 
L 202.998577 143.257142 
L 203.160147 143.147208 
L 203.361917 142.964676 
L 203.528828 142.854741 
L 204.055104 142.392188 
L 204.169041 142.282253 
L 204.375014 142.122537 
L 204.540993 142.012603 
L 205.142889 141.52101 
L 205.306384 141.411076 
L 206.555719 140.400925 
L 206.694186 140.290991 
L 206.985674 140.054528 
L 207.599225 139.509006 
L 207.735705 139.40322 
L 207.88471 139.305731 
L 208.292246 138.961408 
L 208.431749 138.851474 
L 208.870399 138.500929 
L 209.04087 138.390995 
L 209.653675 137.930515 
L 209.818826 137.820581 
L 210.007203 137.679533 
L 210.185727 137.569599 
L 210.383088 137.401586 
L 210.529029 137.291652 
L 210.722871 137.169272 
L 210.845089 137.059338 
L 211.14583 136.783465 
L 211.282455 136.673531 
L 211.987441 136.136305 
L 212.149818 136.026371 
L 212.361422 135.874952 
L 213.244352 135.192529 
L 213.358538 135.082595 
L 213.554864 134.929102 
L 213.689709 134.821242 
L 213.849064 134.711308 
L 213.99666 134.601373 
L 214.454603 134.24668 
L 214.609404 134.136745 
L 214.818192 133.941768 
L 214.968562 133.831833 
L 215.163605 133.69286 
L 215.310829 133.582926 
L 215.690441 133.358909 
L 215.822139 133.251048 
L 215.984889 133.116223 
L 216.130043 133.006289 
L 216.532218 132.703451 
L 216.673604 132.593517 
L 217.733319 131.823977 
L 217.90911 131.714043 
L 218.262845 131.440244 
L 218.414582 131.33031 
L 218.684355 131.162297 
L 218.857703 131.056511 
L 219.023972 130.913389 
L 220.929273 129.465576 
L 221.057328 129.355641 
L 221.972676 128.671145 
L 222.114352 128.561211 
L 222.692732 128.117325 
L 222.870221 128.007391 
L 223.399333 127.615361 
L 223.541713 127.507501 
L 223.710218 127.366453 
L 223.867875 127.258593 
L 224.017956 127.17355 
L 224.361465 126.955755 
L 224.506453 126.845821 
L 224.737971 126.71307 
L 225.381144 126.26711 
L 225.541658 126.157176 
L 225.843766 125.945604 
L 226.064685 125.837744 
L 226.246934 125.698771 
L 226.653643 125.41875 
L 226.819125 125.31089 
L 226.97908 125.211326 
L 227.123654 125.101392 
L 227.385064 124.923008 
L 227.546075 124.813074 
L 227.785914 124.622245 
L 227.929992 124.51231 
L 228.242739 124.290368 
L 228.381931 124.180433 
L 228.601443 124.010346 
L 228.780712 123.902486 
L 228.988009 123.755216 
L 230.19412 122.823886 
L 230.337494 122.713951 
L 230.659267 122.508603 
L 230.854931 122.398668 
L 231.178629 122.20369 
L 231.378123 122.09583 
L 231.534393 122.008713 
L 231.662221 121.898778 
L 231.849728 121.77225 
L 232.02022 121.66439 
L 232.18001 121.568976 
L 232.35429 121.461116 
L 232.558027 121.336662 
L 232.722929 121.230876 
L 232.871975 121.123016 
L 233.022904 121.015156 
L 233.226083 120.863737 
L 233.361714 120.753803 
L 233.842138 120.444742 
L 234.028694 120.334808 
L 234.561015 119.957298 
L 234.770403 119.849437 
L 234.922182 119.76232 
L 235.115237 119.652385 
L 236.121668 118.955444 
L 236.295514 118.845509 
L 236.459133 118.721055 
L 236.623994 118.611121 
L 236.748074 118.540597 
L 236.919684 118.430663 
L 237.850785 117.808394 
L 238.040425 117.698459 
L 238.195598 117.586451 
L 238.427654 117.478591 
L 238.580426 117.383176 
L 238.768513 117.275316 
L 238.972416 117.128046 
L 239.130653 117.020185 
L 239.274565 116.889509 
L 239.425805 116.779575 
L 239.60644 116.659269 
L 239.78368 116.549335 
L 240.055771 116.395842 
L 240.263028 116.285907 
L 240.57296 116.105449 
L 240.747964 115.995515 
L 240.906491 115.881432 
L 241.083235 115.773572 
L 241.223048 115.696826 
L 241.414447 115.586891 
L 241.832645 115.329687 
L 242.057497 115.219752 
L 242.749503 114.76757 
L 242.940137 114.657636 
L 243.084546 114.564295 
L 243.308777 114.454361 
L 243.490116 114.331981 
L 243.814539 114.137003 
L 243.97733 114.029143 
L 244.166866 113.896393 
L 244.295273 113.786458 
L 244.697303 113.500214 
L 244.900792 113.39028 
L 245.07058 113.29694 
L 245.291727 113.18908 
L 245.460583 113.093665 
L 245.609215 112.983731 
L 245.76534 112.867574 
L 245.92987 112.757639 
L 246.227589 112.554365 
L 246.431595 112.44443 
L 246.60662 112.363535 
L 246.912619 112.156112 
L 247.097747 112.046178 
L 247.357272 111.884388 
L 247.517786 111.774453 
L 247.997217 111.47369 
L 248.188575 111.363756 
L 248.372646 111.272489 
L 248.539867 111.162555 
L 248.983444 110.907425 
L 249.180598 110.79749 
L 249.613576 110.52784 
L 250.077936 110.266487 
L 250.301298 110.158627 
L 250.477379 110.046618 
L 250.644558 109.936684 
L 250.865022 109.818453 
L 251.040275 109.708519 
L 251.203024 109.604807 
L 251.380513 109.496947 
L 251.544339 109.399458 
L 251.696283 109.291598 
L 251.843052 109.219 
L 252.017849 109.11114 
L 252.199229 108.980463 
L 252.363221 108.872603 
L 252.520878 108.760595 
L 252.715756 108.640289 
L 252.931872 108.530355 
L 253.246213 108.354045 
L 253.446866 108.244111 
L 253.600756 108.138325 
L 253.752783 108.030465 
L 253.925841 107.91016 
L 254.123078 107.800226 
L 254.476379 107.596951 
L 254.656207 107.487017 
L 255.0217 107.271296 
L 255.178695 107.161362 
L 255.443499 107.01824 
L 255.650383 106.912454 
L 255.779307 106.846079 
L 255.973936 106.736145 
L 256.207151 106.595097 
L 256.396647 106.485163 
L 256.676604 106.35656 
L 256.843121 106.246626 
L 257.322593 105.956234 
L 257.473005 105.848374 
L 257.771138 105.667915 
L 257.946763 105.557981 
L 258.499682 105.267589 
L 258.704412 105.159729 
L 258.889974 105.06224 
L 259.077565 104.956454 
L 259.23249 104.858965 
L 259.395819 104.751105 
L 259.542919 104.680581 
L 259.77601 104.570647 
L 261.334158 103.635168 
L 261.532141 103.527308 
L 261.684209 103.411151 
L 261.846751 103.301217 
L 262.065062 103.158095 
L 262.269296 103.050235 
L 262.563123 102.878074 
L 263.554774 102.340848 
L 263.749154 102.230913 
L 264.588365 101.803622 
L 264.738073 101.693687 
L 265.08212 101.525675 
L 265.315666 101.417815 
L 265.549751 101.272618 
L 265.766944 101.162684 
L 269.06901 99.343583 
L 269.316798 99.233649 
L 269.562517 99.076007 
L 269.731932 98.966073 
L 269.936539 98.849916 
L 270.177123 98.739982 
L 270.689592 98.484851 
L 270.832345 98.374917 
L 270.988263 98.304393 
L 271.168132 98.194459 
L 271.380378 98.059634 
L 271.587137 97.949699 
L 271.751833 97.848062 
L 271.957557 97.740202 
L 272.09588 97.65101 
L 272.311085 97.541076 
L 272.454211 97.458106 
L 272.635839 97.348172 
L 273.180394 97.001775 
L 273.374651 96.891841 
L 273.528375 96.777758 
L 273.768421 96.669898 
L 273.981846 96.499811 
L 278.215034 94.133113 
L 278.411381 94.023179 
L 278.620563 93.888354 
L 278.81515 93.780494 
L 278.985891 93.70997 
L 279.153277 93.60211 
L 279.339108 93.481804 
L 279.512312 93.396761 
L 280.008054 93.114665 
L 280.19846 93.004731 
L 280.374169 92.892722 
L 280.522552 92.786937 
L 280.660543 92.726784 
L 280.950272 92.618924 
L 281.129665 92.53388 
L 281.335638 92.423946 
L 281.558834 92.291195 
L 281.773666 92.181261 
L 281.945566 92.081698 
L 282.128685 91.975912 
L 282.302158 91.890868 
L 282.481468 91.780934 
L 282.627988 91.71041 
L 282.812722 91.637812 
L 282.997125 91.529952 
L 283.19283 91.417944 
L 283.452501 91.308009 
L 283.88374 91.081918 
L 284.119729 90.971984 
L 284.712972 90.648404 
L 284.891123 90.538469 
L 285.169632 90.41609 
L 285.431 90.306155 
L 285.554252 90.223186 
L 285.761509 90.115326 
L 285.887618 90.044802 
L 286.063989 89.947313 
L 286.43623 89.735742 
L 286.669156 89.627882 
L 286.816338 89.546987 
L 287.068308 89.437052 
L 287.749282 89.065765 
L 288.007089 88.955831 
L 288.415847 88.731814 
L 288.683177 88.621879 
L 288.870892 88.543058 
L 289.126754 88.433124 
L 289.269507 88.352229 
L 289.440454 88.242295 
L 289.82702 88.059762 
L 290.035809 87.949828 
L 290.389792 87.777667 
L 290.609759 87.667733 
L 291.0836 87.410528 
L 291.331471 87.302668 
L 291.516205 87.190659 
L 291.815621 87.047537 
L 292.081709 86.937603 
L 292.836253 86.547648 
L 293.071145 86.437713 
L 293.736924 86.074723 
L 293.947348 85.964788 
L 294.145413 85.865225 
L 294.335777 85.757365 
L 294.476005 85.674396 
L 294.720978 85.564462 
L 295.056662 85.425488 
L 295.248931 85.317628 
L 295.425219 85.218065 
L 295.734489 85.108131 
L 295.864407 85.031384 
L 296.098905 84.923524 
L 296.301442 84.817738 
L 296.536023 84.707804 
L 296.730859 84.604092 
L 296.988584 84.496232 
L 297.171414 84.413263 
L 297.407817 84.303329 
L 297.568496 84.216211 
L 297.812103 84.106277 
L 298.180412 83.927893 
L 298.399923 83.817959 
L 298.66895 83.674837 
L 298.911771 83.564902 
L 299.268694 83.398964 
L 299.519587 83.28903 
L 299.654929 83.2351 
L 299.879947 83.125165 
L 300.325759 82.926039 
L 300.606296 82.816105 
L 300.797447 82.72069 
L 301.002675 82.61283 
L 301.146131 82.529861 
L 301.383901 82.422001 
L 301.541724 82.361848 
L 301.789471 82.251914 
L 302.118862 82.092198 
L 302.329016 81.982264 
L 302.505801 81.905517 
L 302.737774 81.795583 
L 302.88268 81.745801 
L 303.094076 81.615125 
L 303.323317 81.532155 
L 303.550053 81.422221 
L 303.81229 81.279099 
L 304.047389 81.169165 
L 304.17267 81.111086 
L 304.528393 80.938925 
L 304.760262 80.828991 
L 305.08425 80.658904 
L 305.401925 80.54897 
L 305.699685 80.430738 
L 305.976165 80.322878 
L 306.091096 80.273097 
L 306.329279 80.163162 
L 306.459073 80.111307 
L 306.671587 80.030412 
L 306.973488 79.920477 
L 307.172588 79.822988 
L 307.404313 79.713054 
L 307.634091 79.611417 
L 307.871985 79.501483 
L 308.179599 79.329321 
L 308.459101 79.219387 
L 308.784641 79.076265 
L 309.115896 78.966331 
L 309.258317 78.904104 
L 309.437006 78.794169 
L 309.563819 78.723646 
L 309.774843 78.613711 
L 310.048839 78.474738 
L 310.301057 78.364804 
L 310.556091 78.26524 
L 310.754777 78.155306 
L 310.884199 78.101376 
L 311.090958 77.993516 
L 311.244393 77.927141 
L 311.459764 77.821355 
L 311.574073 77.773648 
L 311.713203 77.746682 
L 312.056402 77.636748 
L 312.404382 77.477032 
L 312.688252 77.367098 
L 312.832392 77.311094 
L 313.141082 77.20116 
L 313.370488 77.095374 
L 313.713583 76.985439 
L 313.964642 76.865134 
L 314.244579 76.7552 
L 314.40292 76.666008 
L 314.6924 76.556073 
L 314.934806 76.448213 
L 315.148272 76.338279 
L 315.276845 76.280201 
L 315.568499 76.170266 
L 315.823449 76.062406 
L 316.02139 75.954546 
L 316.155656 75.910987 
L 316.424352 75.801053 
L 316.5782 75.745049 
L 316.792329 75.634078 
L 317.388926 75.373761 
L 317.636466 75.263827 
L 317.935158 75.137299 
L 318.195305 75.027365 
L 318.435124 74.91743 
L 318.687777 74.813719 
L 318.811526 74.774308 
L 319.043582 74.70171 
L 319.352355 74.591776 
L 319.512993 74.519178 
L 319.757884 74.411318 
L 319.904135 74.347017 
L 320.195995 74.239157 
L 320.368681 74.160336 
L 320.713308 74.050402 
L 320.955218 73.96121 
L 321.18984 73.851275 
L 321.315059 73.793197 
L 321.566471 73.683263 
L 321.800597 73.594071 
L 322.102497 73.486211 
L 322.219084 73.421909 
L 322.546115 73.311975 
L 322.747927 73.202041 
L 323.012173 73.092107 
L 323.139317 73.052696 
L 323.471896 72.942762 
L 323.618706 72.884683 
L 323.976871 72.774749 
L 324.165517 72.708374 
L 324.432061 72.598439 
L 324.562248 72.534138 
L 324.895365 72.424204 
L 325.094569 72.345383 
L 325.394337 72.235449 
L 325.630533 72.15248 
L 325.933551 72.042545 
L 326.145445 71.965799 
L 326.455377 71.855864 
L 326.586868 71.793638 
L 326.873616 71.683703 
L 327.027278 71.613179 
L 327.322947 71.503245 
L 327.461767 71.455538 
L 327.692249 71.347678 
L 327.831938 71.293748 
L 328.066561 71.214927 
L 328.38999 71.104993 
L 328.638027 70.995058 
L 328.95537 70.885124 
L 329.15151 70.818749 
L 329.519094 70.708814 
L 329.691366 70.65281 
L 329.964824 70.542876 
L 330.096481 70.472352 
L 330.414487 70.362418 
L 330.658487 70.271151 
L 330.882118 70.161217 
L 331.095087 70.090693 
L 331.358857 69.980759 
L 331.56367 69.899864 
L 331.902874 69.78993 
L 332.03598 69.738074 
L 332.468481 69.62814 
L 332.663504 69.551393 
L 333.002417 69.441459 
L 333.155893 69.385455 
L 333.473401 69.27552 
L 333.603361 69.231961 
L 333.755595 69.169734 
L 334.065237 69.0598 
L 334.349086 68.947792 
L 334.640761 68.837857 
L 334.767988 68.779779 
L 335.204091 68.669845 
L 335.393566 68.58895 
L 335.751234 68.479015 
L 335.944704 68.420937 
L 336.254594 68.309965 
L 336.602989 68.184474 
L 336.961734 68.07454 
L 337.150442 68.03513 
L 337.459774 67.925195 
L 337.625484 67.871265 
L 337.973278 67.761331 
L 338.110628 67.719846 
L 338.521331 67.609912 
L 338.664374 67.545611 
L 339.056198 67.435677 
L 339.207728 67.400415 
L 339.635365 67.290481 
L 339.888826 67.184695 
L 340.215236 67.07476 
L 340.330788 67.04987 
L 340.68266 66.939935 
L 340.880207 66.879783 
L 341.256734 66.769848 
L 341.428344 66.717993 
L 341.801165 66.608058 
L 341.997036 66.545831 
L 342.346507 66.435897 
L 342.506648 66.38819 
L 342.845934 66.278255 
L 342.990467 66.245068 
L 343.390365 66.135133 
L 343.536844 66.095723 
L 343.983443 65.985789 
L 344.206556 65.919413 
L 344.571097 65.809479 
L 344.726042 65.774217 
L 345.074561 65.664283 
L 345.257349 65.614501 
L 345.640872 65.504567 
L 345.788014 65.446489 
L 346.175698 65.336554 
L 346.370824 65.272253 
L 346.703672 65.162319 
L 346.87228 65.120834 
L 347.26928 65.0109 
L 347.431491 64.961118 
L 347.887157 64.851184 
L 348.030572 64.817996 
L 348.41453 64.710136 
L 348.554137 64.668652 
L 348.986742 64.558717 
L 349.135187 64.477822 
L 349.580979 64.369962 
L 349.695123 64.3347 
L 350.075562 64.224766 
L 350.190037 64.197801 
L 350.645993 64.087867 
L 350.771771 64.056753 
L 351.233627 63.948893 
L 351.345804 63.90326 
L 351.775884 63.793326 
L 351.893175 63.770509 
L 352.047188 63.729025 
L 352.250512 63.654352 
L 352.75942 63.544418 
L 352.951026 63.488414 
L 353.366202 63.37848 
L 353.53454 63.341143 
L 353.925247 63.231209 
L 354.106669 63.173131 
L 354.552626 63.063196 
L 354.667122 63.042454 
L 355.220661 62.93252 
L 355.335137 62.90348 
L 355.774697 62.793546 
L 355.982533 62.731319 
L 356.430581 62.621385 
L 356.558885 62.575752 
L 357.071933 62.465818 
L 357.24081 62.411888 
L 357.766486 62.301953 
L 357.893424 62.281211 
L 358.403243 62.171277 
L 358.557257 62.136015 
L 359.183911 62.02608 
L 359.337097 61.999115 
L 359.860206 61.889181 
L 359.98174 61.849771 
L 360.344894 61.739836 
L 360.468934 61.708723 
L 360.951428 61.598789 
L 361.085031 61.565601 
L 361.574977 61.455667 
L 361.712596 61.418331 
L 362.264438 61.308396 
L 362.411041 61.287654 
L 363.02366 61.17772 
L 363.167489 61.140384 
L 363.687824 61.030449 
L 363.831364 61.005558 
L 364.436862 60.895624 
L 364.575267 60.860362 
L 365.003608 60.750428 
L 365.132367 60.729686 
L 365.704185 60.619751 
L 365.861594 60.594861 
L 366.448937 60.484926 
L 366.58134 60.464184 
L 367.276721 60.35425 
L 367.413243 60.32521 
L 368.047825 60.215276 
L 368.181056 60.19246 
L 368.705945 60.0846 
L 368.825927 60.063857 
L 369.582748 59.953923 
L 369.710472 59.943552 
L 370.320855 59.833618 
L 370.461 59.798356 
L 370.995494 59.688421 
L 371.14071 59.649011 
L 371.873125 59.539077 
L 371.998448 59.524557 
L 372.686666 59.414623 
L 372.800314 59.391806 
L 373.481784 59.281872 
L 373.608576 59.263204 
L 374.505314 59.155344 
L 374.630098 59.126305 
L 375.256628 59.01637 
L 375.386422 58.993554 
L 376.167525 58.883619 
L 376.309015 58.858729 
L 376.920496 58.748794 
L 377.036772 58.730126 
L 377.750825 58.620192 
L 377.871304 58.611895 
L 378.558032 58.501961 
L 378.687391 58.483293 
L 379.524304 58.373358 
L 379.653974 58.356765 
L 379.797968 58.331874 
L 380.596853 58.22194 
L 380.708472 58.190826 
L 381.563767 58.080892 
L 381.685508 58.068446 
L 382.413721 57.958512 
L 382.52625 57.943992 
L 383.28009 57.834058 
L 383.408477 57.805019 
L 384.267684 57.695085 
L 384.379613 57.684714 
L 384.953253 57.574779 
L 385.07489 57.558185 
L 385.713179 57.448251 
L 385.830676 57.429583 
L 386.657011 57.319649 
L 386.788295 57.300981 
L 387.636738 57.191046 
L 387.752269 57.178601 
L 388.833865 57.068667 
L 388.951114 57.049999 
L 389.901156 56.940064 
L 390.018861 56.917248 
L 390.781023 56.807314 
L 390.897651 56.799017 
L 392.142266 56.689082 
L 392.255313 56.672488 
L 393.648994 56.562554 
L 393.768396 56.550109 
L 394.805671 56.440174 
L 394.91671 56.425655 
L 395.938418 56.315721 
L 396.059725 56.297053 
L 397.484851 56.187118 
L 397.60239 56.174673 
L 398.964667 56.064739 
L 399.079722 56.054367 
L 400.037631 55.944433 
L 400.150161 55.940285 
L 401.541254 55.83035 
L 401.652831 55.824128 
L 402.868382 55.714193 
L 402.979669 55.6976 
L 404.690631 55.587665 
L 404.802581 55.57522 
L 406.429912 55.465286 
L 406.544387 55.45284 
L 408.041924 55.342906 
L 408.153418 55.336683 
L 409.252051 55.226749 
L 409.363256 55.218452 
L 410.831729 55.108518 
L 410.943637 55.098147 
L 412.048066 54.988212 
L 412.159809 54.979915 
L 413.236705 54.869981 
L 413.348117 54.853387 
L 414.05861 54.743453 
L 414.158056 54.714414 
L 414.169566 54.714414 
L 414.413256 54.604479 
L 414.522763 54.509065 
L 414.579649 54.39913 
L 414.690522 54.173039 
L 414.690646 54.173039 
L 414.72 54.144 
L 414.72 54.144 
" clip-path="url(#p69b5d731fa)" style="fill: none; stroke: #ff8c00; stroke-width: 1.5; stroke-linecap: square"/>
   </g>
   <g id="line2d_14">
    <path d="M 74.605714 307.584 
L 414.72 54.144 
" clip-path="url(#p69b5d731fa)" style="fill: none; stroke-dasharray: 5.55,2.4; stroke-dashoffset: 0; stroke: #0000ff; stroke-width: 1.5"/>
   </g>
   <g id="patch_3">
    <path d="M 57.6 307.584 
L 57.6 41.472 
" style="fill: none; stroke: #000000; stroke-width: 0.8; stroke-linejoin: miter; stroke-linecap: square"/>
   </g>
   <g id="patch_4">
    <path d="M 414.72 307.584 
L 414.72 41.472 
" style="fill: none; stroke: #000000; stroke-width: 0.8; stroke-linejoin: miter; stroke-linecap: square"/>
   </g>
   <g id="patch_5">
    <path d="M 57.6 307.584 
L 414.72 307.584 
" style="fill: none; stroke: #000000; stroke-width: 0.8; stroke-linejoin: miter; stroke-linecap: square"/>
   </g>
   <g id="patch_6">
    <path d="M 57.6 41.472 
L 414.72 41.472 
" style="fill: none; stroke: #000000; stroke-width: 0.8; stroke-linejoin: miter; stroke-linecap: square"/>
   </g>
   <g id="text_15">
    <!-- ROC CURVE -->
    <g transform="translate(200.855625 35.472)scale(0.12 -0.12)">
     <defs>
      <path id="DejaVuSans-4f" d="M 2522 4238 
Q 1834 4238 1429 3725 
Q 1025 3213 1025 2328 
Q 1025 1447 1429 934 
Q 1834 422 2522 422 
Q 3209 422 3611 934 
Q 4013 1447 4013 2328 
Q 4013 3213 3611 3725 
Q 3209 4238 2522 4238 
z
M 2522 4750 
Q 3503 4750 4090 4092 
Q 4678 3434 4678 2328 
Q 4678 1225 4090 567 
Q 3503 -91 2522 -91 
Q 1538 -91 948 565 
Q 359 1222 359 2328 
Q 359 3434 948 4092 
Q 1538 4750 2522 4750 
z
" transform="scale(0.015625)"/>
      <path id="DejaVuSans-43" d="M 4122 4306 
L 4122 3641 
Q 3803 3938 3442 4084 
Q 3081 4231 2675 4231 
Q 1875 4231 1450 3742 
Q 1025 3253 1025 2328 
Q 1025 1406 1450 917 
Q 1875 428 2675 428 
Q 3081 428 3442 575 
Q 3803 722 4122 1019 
L 4122 359 
Q 3791 134 3420 21 
Q 3050 -91 2638 -91 
Q 1578 -91 968 557 
Q 359 1206 359 2328 
Q 359 3453 968 4101 
Q 1578 4750 2638 4750 
Q 3056 4750 3426 4639 
Q 3797 4528 4122 4306 
z
" transform="scale(0.015625)"/>
      <path id="DejaVuSans-55" d="M 556 4666 
L 1191 4666 
L 1191 1831 
Q 1191 1081 1462 751 
Q 1734 422 2344 422 
Q 2950 422 3222 751 
Q 3494 1081 3494 1831 
L 3494 4666 
L 4128 4666 
L 4128 1753 
Q 4128 841 3676 375 
Q 3225 -91 2344 -91 
Q 1459 -91 1007 375 
Q 556 841 556 1753 
L 556 4666 
z
" transform="scale(0.015625)"/>
      <path id="DejaVuSans-56" d="M 1831 0 
L 50 4666 
L 709 4666 
L 2188 738 
L 3669 4666 
L 4325 4666 
L 2547 0 
L 1831 0 
z
" transform="scale(0.015625)"/>
      <path id="DejaVuSans-45" d="M 628 4666 
L 3578 4666 
L 3578 4134 
L 1259 4134 
L 1259 2753 
L 3481 2753 
L 3481 2222 
L 1259 2222 
L 1259 531 
L 3634 531 
L 3634 0 
L 628 0 
L 628 4666 
z
" transform="scale(0.015625)"/>
     </defs>
     <use xlink:href="#DejaVuSans-52"/>
     <use xlink:href="#DejaVuSans-4f" x="69.482422"/>
     <use xlink:href="#DejaVuSans-43" x="148.193359"/>
     <use xlink:href="#DejaVuSans-20" x="218.017578"/>
     <use xlink:href="#DejaVuSans-43" x="249.804688"/>
     <use xlink:href="#DejaVuSans-55" x="319.628906"/>
     <use xlink:href="#DejaVuSans-52" x="392.822266"/>
     <use xlink:href="#DejaVuSans-56" x="456.804688"/>
     <use xlink:href="#DejaVuSans-45" x="525.212891"/>
    </g>
   </g>
   <g id="legend_1">
    <g id="patch_7">
     <path d="M 234.97 302.584 
L 407.72 302.584 
Q 409.72 302.584 409.72 300.584 
L 409.72 286.905875 
Q 409.72 284.905875 407.72 284.905875 
L 234.97 284.905875 
Q 232.97 284.905875 232.97 286.905875 
L 232.97 300.584 
Q 232.97 302.584 234.97 302.584 
z
" style="fill: #ffffff; opacity: 0.8; stroke: #cccccc; stroke-linejoin: miter"/>
    </g>
    <g id="line2d_15">
     <path d="M 236.97 293.004312 
L 246.97 293.004312 
L 256.97 293.004312 
" style="fill: none; stroke: #ff8c00; stroke-width: 1.5; stroke-linecap: square"/>
    </g>
    <g id="text_16">
     <!-- ROC curve (ROC AUC=0.69) -->
     <g transform="translate(264.97 296.504312)scale(0.1 -0.1)">
      <defs>
       <path id="DejaVuSans-63" d="M 3122 3366 
L 3122 2828 
Q 2878 2963 2633 3030 
Q 2388 3097 2138 3097 
Q 1578 3097 1268 2742 
Q 959 2388 959 1747 
Q 959 1106 1268 751 
Q 1578 397 2138 397 
Q 2388 397 2633 464 
Q 2878 531 3122 666 
L 3122 134 
Q 2881 22 2623 -34 
Q 2366 -91 2075 -91 
Q 1284 -91 818 406 
Q 353 903 353 1747 
Q 353 2603 823 3093 
Q 1294 3584 2113 3584 
Q 2378 3584 2631 3529 
Q 2884 3475 3122 3366 
z
" transform="scale(0.015625)"/>
       <path id="DejaVuSans-28" d="M 1984 4856 
Q 1566 4138 1362 3434 
Q 1159 2731 1159 2009 
Q 1159 1288 1364 580 
Q 1569 -128 1984 -844 
L 1484 -844 
Q 1016 -109 783 600 
Q 550 1309 550 2009 
Q 550 2706 781 3412 
Q 1013 4119 1484 4856 
L 1984 4856 
z
" transform="scale(0.015625)"/>
       <path id="DejaVuSans-41" d="M 2188 4044 
L 1331 1722 
L 3047 1722 
L 2188 4044 
z
M 1831 4666 
L 2547 4666 
L 4325 0 
L 3669 0 
L 3244 1197 
L 1141 1197 
L 716 0 
L 50 0 
L 1831 4666 
z
" transform="scale(0.015625)"/>
       <path id="DejaVuSans-3d" d="M 678 2906 
L 4684 2906 
L 4684 2381 
L 678 2381 
L 678 2906 
z
M 678 1631 
L 4684 1631 
L 4684 1100 
L 678 1100 
L 678 1631 
z
" transform="scale(0.015625)"/>
       <path id="DejaVuSans-39" d="M 703 97 
L 703 672 
Q 941 559 1184 500 
Q 1428 441 1663 441 
Q 2288 441 2617 861 
Q 2947 1281 2994 2138 
Q 2813 1869 2534 1725 
Q 2256 1581 1919 1581 
Q 1219 1581 811 2004 
Q 403 2428 403 3163 
Q 403 3881 828 4315 
Q 1253 4750 1959 4750 
Q 2769 4750 3195 4129 
Q 3622 3509 3622 2328 
Q 3622 1225 3098 567 
Q 2575 -91 1691 -91 
Q 1453 -91 1209 -44 
Q 966 3 703 97 
z
M 1959 2075 
Q 2384 2075 2632 2365 
Q 2881 2656 2881 3163 
Q 2881 3666 2632 3958 
Q 2384 4250 1959 4250 
Q 1534 4250 1286 3958 
Q 1038 3666 1038 3163 
Q 1038 2656 1286 2365 
Q 1534 2075 1959 2075 
z
" transform="scale(0.015625)"/>
       <path id="DejaVuSans-29" d="M 513 4856 
L 1013 4856 
Q 1481 4119 1714 3412 
Q 1947 2706 1947 2009 
Q 1947 1309 1714 600 
Q 1481 -109 1013 -844 
L 513 -844 
Q 928 -128 1133 580 
Q 1338 1288 1338 2009 
Q 1338 2731 1133 3434 
Q 928 4138 513 4856 
z
" transform="scale(0.015625)"/>
      </defs>
      <use xlink:href="#DejaVuSans-52"/>
      <use xlink:href="#DejaVuSans-4f" x="69.482422"/>
      <use xlink:href="#DejaVuSans-43" x="148.193359"/>
      <use xlink:href="#DejaVuSans-20" x="218.017578"/>
      <use xlink:href="#DejaVuSans-63" x="249.804688"/>
      <use xlink:href="#DejaVuSans-75" x="304.785156"/>
      <use xlink:href="#DejaVuSans-72" x="368.164062"/>
      <use xlink:href="#DejaVuSans-76" x="409.277344"/>
      <use xlink:href="#DejaVuSans-65" x="468.457031"/>
      <use xlink:href="#DejaVuSans-20" x="529.980469"/>
      <use xlink:href="#DejaVuSans-28" x="561.767578"/>
      <use xlink:href="#DejaVuSans-52" x="600.78125"/>
      <use xlink:href="#DejaVuSans-4f" x="670.263672"/>
      <use xlink:href="#DejaVuSans-43" x="748.974609"/>
      <use xlink:href="#DejaVuSans-20" x="818.798828"/>
      <use xlink:href="#DejaVuSans-41" x="850.585938"/>
      <use xlink:href="#DejaVuSans-55" x="918.994141"/>
      <use xlink:href="#DejaVuSans-43" x="992.1875"/>
      <use xlink:href="#DejaVuSans-3d" x="1062.011719"/>
      <use xlink:href="#DejaVuSans-30" x="1145.800781"/>
      <use xlink:href="#DejaVuSans-2e" x="1209.423828"/>
      <use xlink:href="#DejaVuSans-36" x="1241.210938"/>
      <use xlink:href="#DejaVuSans-39" x="1304.833984"/>
      <use xlink:href="#DejaVuSans-29" x="1368.457031"/>
     </g>
    </g>
   </g>
  </g>
 </g>
 <defs>
  <clipPath id="p69b5d731fa">
   <rect x="57.6" y="41.472" width="357.12" height="266.112"/>
  </clipPath>
 </defs>
</svg>
