<?xml version="1.0" encoding="utf-8" standalone="no"?>
<!DOCTYPE svg PUBLIC "-//W3C//DTD SVG 1.1//EN"
  "http://www.w3.org/Graphics/SVG/1.1/DTD/svg11.dtd">
<svg xmlns:xlink="http://www.w3.org/1999/xlink" width="460.8pt" height="345.6pt" viewBox="0 0 460.8 345.6" xmlns="http://www.w3.org/2000/svg" version="1.1">
 <metadata>
  <rdf:RDF xmlns:dc="http://purl.org/dc/elements/1.1/" xmlns:cc="http://creativecommons.org/ns#" xmlns:rdf="http://www.w3.org/1999/02/22-rdf-syntax-ns#">
   <cc:Work>
    <dc:type rdf:resource="http://purl.org/dc/dcmitype/StillImage"/>
    <dc:date>2022-05-20T16:53:28.742168</dc:date>
    <dc:format>image/svg+xml</dc:format>
    <dc:creator>
     <cc:Agent>
      <dc:title>Matplotlib v3.5.1, https://matplotlib.org/</dc:title>
     </cc:Agent>
    </dc:creator>
   </cc:Work>
  </rdf:RDF>
 </metadata>
 <defs>
  <style type="text/css">*{stroke-linejoin: round; stroke-linecap: butt}</style>
 </defs>
 <g id="figure_1">
  <g id="patch_1">
   <path d="M 0 345.6 
L 460.8 345.6 
L 460.8 0 
L 0 0 
z
" style="fill: #ffffff"/>
  </g>
  <g id="axes_1">
   <g id="patch_2">
    <path d="M 57.6 307.584 
L 414.72 307.584 
L 414.72 41.472 
L 57.6 41.472 
z
" style="fill: #ffffff"/>
   </g>
   <g id="matplotlib.axis_1">
    <g id="xtick_1">
     <g id="line2d_1">
      <defs>
       <path id="ma21b4e19db" d="M 0 0 
L 0 3.5 
" style="stroke: #000000; stroke-width: 0.8"/>
      </defs>
      <g>
       <use xlink:href="#ma21b4e19db" x="74.605714" y="307.584" style="stroke: #000000; stroke-width: 0.8"/>
      </g>
     </g>
     <g id="text_1">
      <!-- 0.0 -->
      <g transform="translate(66.654152 322.182437)scale(0.1 -0.1)">
       <defs>
        <path id="DejaVuSans-30" d="M 2034 4250 
Q 1547 4250 1301 3770 
Q 1056 3291 1056 2328 
Q 1056 1369 1301 889 
Q 1547 409 2034 409 
Q 2525 409 2770 889 
Q 3016 1369 3016 2328 
Q 3016 3291 2770 3770 
Q 2525 4250 2034 4250 
z
M 2034 4750 
Q 2819 4750 3233 4129 
Q 3647 3509 3647 2328 
Q 3647 1150 3233 529 
Q 2819 -91 2034 -91 
Q 1250 -91 836 529 
Q 422 1150 422 2328 
Q 422 3509 836 4129 
Q 1250 4750 2034 4750 
z
" transform="scale(0.015625)"/>
        <path id="DejaVuSans-2e" d="M 684 794 
L 1344 794 
L 1344 0 
L 684 0 
L 684 794 
z
" transform="scale(0.015625)"/>
       </defs>
       <use xlink:href="#DejaVuSans-30"/>
       <use xlink:href="#DejaVuSans-2e" x="63.623047"/>
       <use xlink:href="#DejaVuSans-30" x="95.410156"/>
      </g>
     </g>
    </g>
    <g id="xtick_2">
     <g id="line2d_2">
      <g>
       <use xlink:href="#ma21b4e19db" x="142.628571" y="307.584" style="stroke: #000000; stroke-width: 0.8"/>
      </g>
     </g>
     <g id="text_2">
      <!-- 0.2 -->
      <g transform="translate(134.677009 322.182437)scale(0.1 -0.1)">
       <defs>
        <path id="DejaVuSans-32" d="M 1228 531 
L 3431 531 
L 3431 0 
L 469 0 
L 469 531 
Q 828 903 1448 1529 
Q 2069 2156 2228 2338 
Q 2531 2678 2651 2914 
Q 2772 3150 2772 3378 
Q 2772 3750 2511 3984 
Q 2250 4219 1831 4219 
Q 1534 4219 1204 4116 
Q 875 4013 500 3803 
L 500 4441 
Q 881 4594 1212 4672 
Q 1544 4750 1819 4750 
Q 2544 4750 2975 4387 
Q 3406 4025 3406 3419 
Q 3406 3131 3298 2873 
Q 3191 2616 2906 2266 
Q 2828 2175 2409 1742 
Q 1991 1309 1228 531 
z
" transform="scale(0.015625)"/>
       </defs>
       <use xlink:href="#DejaVuSans-30"/>
       <use xlink:href="#DejaVuSans-2e" x="63.623047"/>
       <use xlink:href="#DejaVuSans-32" x="95.410156"/>
      </g>
     </g>
    </g>
    <g id="xtick_3">
     <g id="line2d_3">
      <g>
       <use xlink:href="#ma21b4e19db" x="210.651429" y="307.584" style="stroke: #000000; stroke-width: 0.8"/>
      </g>
     </g>
     <g id="text_3">
      <!-- 0.4 -->
      <g transform="translate(202.699866 322.182437)scale(0.1 -0.1)">
       <defs>
        <path id="DejaVuSans-34" d="M 2419 4116 
L 825 1625 
L 2419 1625 
L 2419 4116 
z
M 2253 4666 
L 3047 4666 
L 3047 1625 
L 3713 1625 
L 3713 1100 
L 3047 1100 
L 3047 0 
L 2419 0 
L 2419 1100 
L 313 1100 
L 313 1709 
L 2253 4666 
z
" transform="scale(0.015625)"/>
       </defs>
       <use xlink:href="#DejaVuSans-30"/>
       <use xlink:href="#DejaVuSans-2e" x="63.623047"/>
       <use xlink:href="#DejaVuSans-34" x="95.410156"/>
      </g>
     </g>
    </g>
    <g id="xtick_4">
     <g id="line2d_4">
      <g>
       <use xlink:href="#ma21b4e19db" x="278.674286" y="307.584" style="stroke: #000000; stroke-width: 0.8"/>
      </g>
     </g>
     <g id="text_4">
      <!-- 0.6 -->
      <g transform="translate(270.722723 322.182437)scale(0.1 -0.1)">
       <defs>
        <path id="DejaVuSans-36" d="M 2113 2584 
Q 1688 2584 1439 2293 
Q 1191 2003 1191 1497 
Q 1191 994 1439 701 
Q 1688 409 2113 409 
Q 2538 409 2786 701 
Q 3034 994 3034 1497 
Q 3034 2003 2786 2293 
Q 2538 2584 2113 2584 
z
M 3366 4563 
L 3366 3988 
Q 3128 4100 2886 4159 
Q 2644 4219 2406 4219 
Q 1781 4219 1451 3797 
Q 1122 3375 1075 2522 
Q 1259 2794 1537 2939 
Q 1816 3084 2150 3084 
Q 2853 3084 3261 2657 
Q 3669 2231 3669 1497 
Q 3669 778 3244 343 
Q 2819 -91 2113 -91 
Q 1303 -91 875 529 
Q 447 1150 447 2328 
Q 447 3434 972 4092 
Q 1497 4750 2381 4750 
Q 2619 4750 2861 4703 
Q 3103 4656 3366 4563 
z
" transform="scale(0.015625)"/>
       </defs>
       <use xlink:href="#DejaVuSans-30"/>
       <use xlink:href="#DejaVuSans-2e" x="63.623047"/>
       <use xlink:href="#DejaVuSans-36" x="95.410156"/>
      </g>
     </g>
    </g>
    <g id="xtick_5">
     <g id="line2d_5">
      <g>
       <use xlink:href="#ma21b4e19db" x="346.697143" y="307.584" style="stroke: #000000; stroke-width: 0.8"/>
      </g>
     </g>
     <g id="text_5">
      <!-- 0.8 -->
      <g transform="translate(338.74558 322.182437)scale(0.1 -0.1)">
       <defs>
        <path id="DejaVuSans-38" d="M 2034 2216 
Q 1584 2216 1326 1975 
Q 1069 1734 1069 1313 
Q 1069 891 1326 650 
Q 1584 409 2034 409 
Q 2484 409 2743 651 
Q 3003 894 3003 1313 
Q 3003 1734 2745 1975 
Q 2488 2216 2034 2216 
z
M 1403 2484 
Q 997 2584 770 2862 
Q 544 3141 544 3541 
Q 544 4100 942 4425 
Q 1341 4750 2034 4750 
Q 2731 4750 3128 4425 
Q 3525 4100 3525 3541 
Q 3525 3141 3298 2862 
Q 3072 2584 2669 2484 
Q 3125 2378 3379 2068 
Q 3634 1759 3634 1313 
Q 3634 634 3220 271 
Q 2806 -91 2034 -91 
Q 1263 -91 848 271 
Q 434 634 434 1313 
Q 434 1759 690 2068 
Q 947 2378 1403 2484 
z
M 1172 3481 
Q 1172 3119 1398 2916 
Q 1625 2713 2034 2713 
Q 2441 2713 2670 2916 
Q 2900 3119 2900 3481 
Q 2900 3844 2670 4047 
Q 2441 4250 2034 4250 
Q 1625 4250 1398 4047 
Q 1172 3844 1172 3481 
z
" transform="scale(0.015625)"/>
       </defs>
       <use xlink:href="#DejaVuSans-30"/>
       <use xlink:href="#DejaVuSans-2e" x="63.623047"/>
       <use xlink:href="#DejaVuSans-38" x="95.410156"/>
      </g>
     </g>
    </g>
    <g id="xtick_6">
     <g id="line2d_6">
      <g>
       <use xlink:href="#ma21b4e19db" x="414.72" y="307.584" style="stroke: #000000; stroke-width: 0.8"/>
      </g>
     </g>
     <g id="text_6">
      <!-- 1.0 -->
      <g transform="translate(406.768438 322.182437)scale(0.1 -0.1)">
       <defs>
        <path id="DejaVuSans-31" d="M 794 531 
L 1825 531 
L 1825 4091 
L 703 3866 
L 703 4441 
L 1819 4666 
L 2450 4666 
L 2450 531 
L 3481 531 
L 3481 0 
L 794 0 
L 794 531 
z
" transform="scale(0.015625)"/>
       </defs>
       <use xlink:href="#DejaVuSans-31"/>
       <use xlink:href="#DejaVuSans-2e" x="63.623047"/>
       <use xlink:href="#DejaVuSans-30" x="95.410156"/>
      </g>
     </g>
    </g>
    <g id="text_7">
     <!-- False Positive Rate -->
     <g transform="translate(189.693594 335.860562)scale(0.1 -0.1)">
      <defs>
       <path id="DejaVuSans-46" d="M 628 4666 
L 3309 4666 
L 3309 4134 
L 1259 4134 
L 1259 2759 
L 3109 2759 
L 3109 2228 
L 1259 2228 
L 1259 0 
L 628 0 
L 628 4666 
z
" transform="scale(0.015625)"/>
       <path id="DejaVuSans-61" d="M 2194 1759 
Q 1497 1759 1228 1600 
Q 959 1441 959 1056 
Q 959 750 1161 570 
Q 1363 391 1709 391 
Q 2188 391 2477 730 
Q 2766 1069 2766 1631 
L 2766 1759 
L 2194 1759 
z
M 3341 1997 
L 3341 0 
L 2766 0 
L 2766 531 
Q 2569 213 2275 61 
Q 1981 -91 1556 -91 
Q 1019 -91 701 211 
Q 384 513 384 1019 
Q 384 1609 779 1909 
Q 1175 2209 1959 2209 
L 2766 2209 
L 2766 2266 
Q 2766 2663 2505 2880 
Q 2244 3097 1772 3097 
Q 1472 3097 1187 3025 
Q 903 2953 641 2809 
L 641 3341 
Q 956 3463 1253 3523 
Q 1550 3584 1831 3584 
Q 2591 3584 2966 3190 
Q 3341 2797 3341 1997 
z
" transform="scale(0.015625)"/>
       <path id="DejaVuSans-6c" d="M 603 4863 
L 1178 4863 
L 1178 0 
L 603 0 
L 603 4863 
z
" transform="scale(0.015625)"/>
       <path id="DejaVuSans-73" d="M 2834 3397 
L 2834 2853 
Q 2591 2978 2328 3040 
Q 2066 3103 1784 3103 
Q 1356 3103 1142 2972 
Q 928 2841 928 2578 
Q 928 2378 1081 2264 
Q 1234 2150 1697 2047 
L 1894 2003 
Q 2506 1872 2764 1633 
Q 3022 1394 3022 966 
Q 3022 478 2636 193 
Q 2250 -91 1575 -91 
Q 1294 -91 989 -36 
Q 684 19 347 128 
L 347 722 
Q 666 556 975 473 
Q 1284 391 1588 391 
Q 1994 391 2212 530 
Q 2431 669 2431 922 
Q 2431 1156 2273 1281 
Q 2116 1406 1581 1522 
L 1381 1569 
Q 847 1681 609 1914 
Q 372 2147 372 2553 
Q 372 3047 722 3315 
Q 1072 3584 1716 3584 
Q 2034 3584 2315 3537 
Q 2597 3491 2834 3397 
z
" transform="scale(0.015625)"/>
       <path id="DejaVuSans-65" d="M 3597 1894 
L 3597 1613 
L 953 1613 
Q 991 1019 1311 708 
Q 1631 397 2203 397 
Q 2534 397 2845 478 
Q 3156 559 3463 722 
L 3463 178 
Q 3153 47 2828 -22 
Q 2503 -91 2169 -91 
Q 1331 -91 842 396 
Q 353 884 353 1716 
Q 353 2575 817 3079 
Q 1281 3584 2069 3584 
Q 2775 3584 3186 3129 
Q 3597 2675 3597 1894 
z
M 3022 2063 
Q 3016 2534 2758 2815 
Q 2500 3097 2075 3097 
Q 1594 3097 1305 2825 
Q 1016 2553 972 2059 
L 3022 2063 
z
" transform="scale(0.015625)"/>
       <path id="DejaVuSans-20" transform="scale(0.015625)"/>
       <path id="DejaVuSans-50" d="M 1259 4147 
L 1259 2394 
L 2053 2394 
Q 2494 2394 2734 2622 
Q 2975 2850 2975 3272 
Q 2975 3691 2734 3919 
Q 2494 4147 2053 4147 
L 1259 4147 
z
M 628 4666 
L 2053 4666 
Q 2838 4666 3239 4311 
Q 3641 3956 3641 3272 
Q 3641 2581 3239 2228 
Q 2838 1875 2053 1875 
L 1259 1875 
L 1259 0 
L 628 0 
L 628 4666 
z
" transform="scale(0.015625)"/>
       <path id="DejaVuSans-6f" d="M 1959 3097 
Q 1497 3097 1228 2736 
Q 959 2375 959 1747 
Q 959 1119 1226 758 
Q 1494 397 1959 397 
Q 2419 397 2687 759 
Q 2956 1122 2956 1747 
Q 2956 2369 2687 2733 
Q 2419 3097 1959 3097 
z
M 1959 3584 
Q 2709 3584 3137 3096 
Q 3566 2609 3566 1747 
Q 3566 888 3137 398 
Q 2709 -91 1959 -91 
Q 1206 -91 779 398 
Q 353 888 353 1747 
Q 353 2609 779 3096 
Q 1206 3584 1959 3584 
z
" transform="scale(0.015625)"/>
       <path id="DejaVuSans-69" d="M 603 3500 
L 1178 3500 
L 1178 0 
L 603 0 
L 603 3500 
z
M 603 4863 
L 1178 4863 
L 1178 4134 
L 603 4134 
L 603 4863 
z
" transform="scale(0.015625)"/>
       <path id="DejaVuSans-74" d="M 1172 4494 
L 1172 3500 
L 2356 3500 
L 2356 3053 
L 1172 3053 
L 1172 1153 
Q 1172 725 1289 603 
Q 1406 481 1766 481 
L 2356 481 
L 2356 0 
L 1766 0 
Q 1100 0 847 248 
Q 594 497 594 1153 
L 594 3053 
L 172 3053 
L 172 3500 
L 594 3500 
L 594 4494 
L 1172 4494 
z
" transform="scale(0.015625)"/>
       <path id="DejaVuSans-76" d="M 191 3500 
L 800 3500 
L 1894 563 
L 2988 3500 
L 3597 3500 
L 2284 0 
L 1503 0 
L 191 3500 
z
" transform="scale(0.015625)"/>
       <path id="DejaVuSans-52" d="M 2841 2188 
Q 3044 2119 3236 1894 
Q 3428 1669 3622 1275 
L 4263 0 
L 3584 0 
L 2988 1197 
Q 2756 1666 2539 1819 
Q 2322 1972 1947 1972 
L 1259 1972 
L 1259 0 
L 628 0 
L 628 4666 
L 2053 4666 
Q 2853 4666 3247 4331 
Q 3641 3997 3641 3322 
Q 3641 2881 3436 2590 
Q 3231 2300 2841 2188 
z
M 1259 4147 
L 1259 2491 
L 2053 2491 
Q 2509 2491 2742 2702 
Q 2975 2913 2975 3322 
Q 2975 3731 2742 3939 
Q 2509 4147 2053 4147 
L 1259 4147 
z
" transform="scale(0.015625)"/>
      </defs>
      <use xlink:href="#DejaVuSans-46"/>
      <use xlink:href="#DejaVuSans-61" x="48.394531"/>
      <use xlink:href="#DejaVuSans-6c" x="109.673828"/>
      <use xlink:href="#DejaVuSans-73" x="137.457031"/>
      <use xlink:href="#DejaVuSans-65" x="189.556641"/>
      <use xlink:href="#DejaVuSans-20" x="251.080078"/>
      <use xlink:href="#DejaVuSans-50" x="282.867188"/>
      <use xlink:href="#DejaVuSans-6f" x="339.544922"/>
      <use xlink:href="#DejaVuSans-73" x="400.726562"/>
      <use xlink:href="#DejaVuSans-69" x="452.826172"/>
      <use xlink:href="#DejaVuSans-74" x="480.609375"/>
      <use xlink:href="#DejaVuSans-69" x="519.818359"/>
      <use xlink:href="#DejaVuSans-76" x="547.601562"/>
      <use xlink:href="#DejaVuSans-65" x="606.78125"/>
      <use xlink:href="#DejaVuSans-20" x="668.304688"/>
      <use xlink:href="#DejaVuSans-52" x="700.091797"/>
      <use xlink:href="#DejaVuSans-61" x="767.324219"/>
      <use xlink:href="#DejaVuSans-74" x="828.603516"/>
      <use xlink:href="#DejaVuSans-65" x="867.8125"/>
     </g>
    </g>
   </g>
   <g id="matplotlib.axis_2">
    <g id="ytick_1">
     <g id="line2d_7">
      <defs>
       <path id="m5f42146cda" d="M 0 0 
L -3.5 0 
" style="stroke: #000000; stroke-width: 0.8"/>
      </defs>
      <g>
       <use xlink:href="#m5f42146cda" x="57.6" y="307.584" style="stroke: #000000; stroke-width: 0.8"/>
      </g>
     </g>
     <g id="text_8">
      <!-- 0.0 -->
      <g transform="translate(34.696875 311.383219)scale(0.1 -0.1)">
       <use xlink:href="#DejaVuSans-30"/>
       <use xlink:href="#DejaVuSans-2e" x="63.623047"/>
       <use xlink:href="#DejaVuSans-30" x="95.410156"/>
      </g>
     </g>
    </g>
    <g id="ytick_2">
     <g id="line2d_8">
      <g>
       <use xlink:href="#m5f42146cda" x="57.6" y="256.896" style="stroke: #000000; stroke-width: 0.8"/>
      </g>
     </g>
     <g id="text_9">
      <!-- 0.2 -->
      <g transform="translate(34.696875 260.695219)scale(0.1 -0.1)">
       <use xlink:href="#DejaVuSans-30"/>
       <use xlink:href="#DejaVuSans-2e" x="63.623047"/>
       <use xlink:href="#DejaVuSans-32" x="95.410156"/>
      </g>
     </g>
    </g>
    <g id="ytick_3">
     <g id="line2d_9">
      <g>
       <use xlink:href="#m5f42146cda" x="57.6" y="206.208" style="stroke: #000000; stroke-width: 0.8"/>
      </g>
     </g>
     <g id="text_10">
      <!-- 0.4 -->
      <g transform="translate(34.696875 210.007219)scale(0.1 -0.1)">
       <use xlink:href="#DejaVuSans-30"/>
       <use xlink:href="#DejaVuSans-2e" x="63.623047"/>
       <use xlink:href="#DejaVuSans-34" x="95.410156"/>
      </g>
     </g>
    </g>
    <g id="ytick_4">
     <g id="line2d_10">
      <g>
       <use xlink:href="#m5f42146cda" x="57.6" y="155.52" style="stroke: #000000; stroke-width: 0.8"/>
      </g>
     </g>
     <g id="text_11">
      <!-- 0.6 -->
      <g transform="translate(34.696875 159.319219)scale(0.1 -0.1)">
       <use xlink:href="#DejaVuSans-30"/>
       <use xlink:href="#DejaVuSans-2e" x="63.623047"/>
       <use xlink:href="#DejaVuSans-36" x="95.410156"/>
      </g>
     </g>
    </g>
    <g id="ytick_5">
     <g id="line2d_11">
      <g>
       <use xlink:href="#m5f42146cda" x="57.6" y="104.832" style="stroke: #000000; stroke-width: 0.8"/>
      </g>
     </g>
     <g id="text_12">
      <!-- 0.8 -->
      <g transform="translate(34.696875 108.631219)scale(0.1 -0.1)">
       <use xlink:href="#DejaVuSans-30"/>
       <use xlink:href="#DejaVuSans-2e" x="63.623047"/>
       <use xlink:href="#DejaVuSans-38" x="95.410156"/>
      </g>
     </g>
    </g>
    <g id="ytick_6">
     <g id="line2d_12">
      <g>
       <use xlink:href="#m5f42146cda" x="57.6" y="54.144" style="stroke: #000000; stroke-width: 0.8"/>
      </g>
     </g>
     <g id="text_13">
      <!-- 1.0 -->
      <g transform="translate(34.696875 57.943219)scale(0.1 -0.1)">
       <use xlink:href="#DejaVuSans-31"/>
       <use xlink:href="#DejaVuSans-2e" x="63.623047"/>
       <use xlink:href="#DejaVuSans-30" x="95.410156"/>
      </g>
     </g>
    </g>
    <g id="text_14">
     <!-- True Positive Rate -->
     <g transform="translate(28.617187 219.057687)rotate(-90)scale(0.1 -0.1)">
      <defs>
       <path id="DejaVuSans-54" d="M -19 4666 
L 3928 4666 
L 3928 4134 
L 2272 4134 
L 2272 0 
L 1638 0 
L 1638 4134 
L -19 4134 
L -19 4666 
z
" transform="scale(0.015625)"/>
       <path id="DejaVuSans-72" d="M 2631 2963 
Q 2534 3019 2420 3045 
Q 2306 3072 2169 3072 
Q 1681 3072 1420 2755 
Q 1159 2438 1159 1844 
L 1159 0 
L 581 0 
L 581 3500 
L 1159 3500 
L 1159 2956 
Q 1341 3275 1631 3429 
Q 1922 3584 2338 3584 
Q 2397 3584 2469 3576 
Q 2541 3569 2628 3553 
L 2631 2963 
z
" transform="scale(0.015625)"/>
       <path id="DejaVuSans-75" d="M 544 1381 
L 544 3500 
L 1119 3500 
L 1119 1403 
Q 1119 906 1312 657 
Q 1506 409 1894 409 
Q 2359 409 2629 706 
Q 2900 1003 2900 1516 
L 2900 3500 
L 3475 3500 
L 3475 0 
L 2900 0 
L 2900 538 
Q 2691 219 2414 64 
Q 2138 -91 1772 -91 
Q 1169 -91 856 284 
Q 544 659 544 1381 
z
M 1991 3584 
L 1991 3584 
z
" transform="scale(0.015625)"/>
      </defs>
      <use xlink:href="#DejaVuSans-54"/>
      <use xlink:href="#DejaVuSans-72" x="46.333984"/>
      <use xlink:href="#DejaVuSans-75" x="87.447266"/>
      <use xlink:href="#DejaVuSans-65" x="150.826172"/>
      <use xlink:href="#DejaVuSans-20" x="212.349609"/>
      <use xlink:href="#DejaVuSans-50" x="244.136719"/>
      <use xlink:href="#DejaVuSans-6f" x="300.814453"/>
      <use xlink:href="#DejaVuSans-73" x="361.996094"/>
      <use xlink:href="#DejaVuSans-69" x="414.095703"/>
      <use xlink:href="#DejaVuSans-74" x="441.878906"/>
      <use xlink:href="#DejaVuSans-69" x="481.087891"/>
      <use xlink:href="#DejaVuSans-76" x="508.871094"/>
      <use xlink:href="#DejaVuSans-65" x="568.050781"/>
      <use xlink:href="#DejaVuSans-20" x="629.574219"/>
      <use xlink:href="#DejaVuSans-52" x="661.361328"/>
      <use xlink:href="#DejaVuSans-61" x="728.59375"/>
      <use xlink:href="#DejaVuSans-74" x="789.873047"/>
      <use xlink:href="#DejaVuSans-65" x="829.082031"/>
     </g>
    </g>
   </g>
   <g id="line2d_13">
    <path d="M 74.605714 307.584 
L 74.716562 305.367287 
L 74.716811 305.367287 
L 74.721746 305.25759 
L 74.83276 302.780088 
L 74.839187 302.67246 
L 74.839187 302.669356 
L 74.950243 301.024932 
L 74.959532 300.915234 
L 75.069924 299.907261 
L 75.070628 299.907261 
L 75.088294 299.797564 
L 75.198686 298.671615 
L 75.199391 298.671615 
L 75.212869 298.561918 
L 75.323883 293.393728 
L 75.334416 293.284031 
L 75.438214 292.420941 
L 75.439002 292.420941 
L 75.502181 292.048384 
L 75.622421 287.058194 
L 75.647552 286.948496 
L 75.7556 286.462103 
L 75.871072 285.841175 
L 75.982003 285.176782 
L 75.982127 285.176782 
L 76.015718 285.067085 
L 76.126524 284.537226 
L 76.126752 284.537226 
L 76.139255 284.427529 
L 76.248527 284.063251 
L 76.250352 284.063251 
L 76.269511 283.955624 
L 76.269511 283.953554 
L 76.374843 283.204301 
L 76.378513 283.204301 
L 76.424938 283.051139 
L 76.532987 282.541978 
L 76.902708 281.426377 
L 76.983802 281.226646 
L 77.001322 281.226646 
L 77.069954 281.103495 
L 77.174458 280.747496 
L 77.180201 280.747496 
L 77.223143 280.637799 
L 77.333037 280.308707 
L 77.333555 280.308707 
L 77.36671 280.20108 
L 77.486349 279.77264 
L 77.526119 279.662942 
L 77.636842 279.044084 
L 77.637215 279.044084 
L 77.707112 278.933352 
L 77.804752 278.649795 
L 78.53532 276.62557 
L 78.605693 276.516908 
L 78.712477 276.272676 
L 78.788885 276.146421 
L 79.762194 273.758953 
L 79.867464 273.590267 
L 81.996589 270.325222 
L 82.181087 269.834689 
L 82.33216 269.656689 
L 82.430754 269.56562 
L 82.577307 269.445574 
L 82.696242 269.193063 
L 82.836533 269.061633 
L 83.186494 268.444845 
L 83.296346 268.306171 
L 83.29759 268.306171 
L 83.417354 268.200613 
L 83.417354 268.195439 
L 83.528368 268.045381 
L 83.528451 268.045381 
L 83.571538 267.935684 
L 83.68251 267.654197 
L 83.682634 267.654197 
L 83.744009 267.543465 
L 83.838808 267.478267 
L 83.939704 267.36857 
L 84.045782 267.180222 
L 84.046964 267.180222 
L 84.228725 267.085013 
L 84.642652 266.341969 
L 84.699714 266.232272 
L 84.809069 266.083249 
L 84.810687 266.083249 
L 84.913075 265.977691 
L 84.913075 265.976657 
L 85.102611 265.73139 
L 85.401336 265.598925 
L 85.512392 265.398159 
L 85.629916 265.288461 
L 85.742423 264.942812 
L 85.92381 264.833114 
L 85.92381 264.832079 
L 86.032999 264.586813 
L 86.034783 264.586813 
L 86.127508 264.477116 
L 86.198753 264.370523 
L 86.443962 264.22771 
L 86.602334 263.986583 
L 86.771571 263.829281 
L 87.010103 263.719584 
L 87.119665 263.549863 
L 87.120785 263.549863 
L 87.168267 263.439131 
L 87.276337 263.191795 
L 87.279281 263.191795 
L 87.367238 263.082098 
L 87.482233 262.875122 
L 87.649168 262.686774 
L 87.743864 262.536716 
L 87.988637 262.182787 
L 88.102906 262.014102 
L 88.224039 261.904404 
L 88.334596 261.716056 
L 88.335115 261.716056 
L 88.40244 261.606359 
L 88.504206 261.527708 
L 88.613105 261.401453 
L 88.722419 261.217244 
L 88.723766 261.217244 
L 88.856966 261.107547 
L 89.100828 260.902641 
L 89.207363 260.848827 
L 89.211924 260.848827 
L 89.298056 260.738095 
L 89.407245 260.64806 
L 89.409091 260.64806 
L 89.423087 260.538363 
L 89.525848 260.427631 
L 89.731018 260.277573 
L 89.737467 260.269294 
L 89.837636 260.269294 
L 89.926568 260.159597 
L 90.04233 260.032307 
L 90.104306 259.921575 
L 90.20151 259.770482 
L 90.209203 259.770482 
L 90.355279 259.660785 
L 90.459036 259.588343 
L 90.463411 259.588343 
L 90.560657 259.480716 
L 90.697817 259.350321 
L 90.808043 259.159903 
L 90.808914 259.159903 
L 90.93299 259.050206 
L 91.038198 258.905323 
L 91.043506 258.905323 
L 91.22929 258.795625 
L 91.337857 258.621766 
L 91.340137 258.621766 
L 91.878162 258.217128 
L 92.037654 258.083628 
L 92.146283 257.973931 
L 92.14817 257.973931 
L 92.265902 257.864234 
L 92.265902 257.863199 
L 92.372458 257.847675 
L 92.541715 257.736943 
L 92.65136 257.54963 
L 92.652667 257.54963 
L 92.728017 257.439933 
L 92.837724 257.344724 
L 92.838533 257.344724 
L 93.084302 257.233992 
L 93.194445 257.160515 
L 93.194569 257.160515 
L 93.798987 256.579948 
L 93.908964 256.510611 
L 93.910021 256.510611 
L 94.016287 256.400913 
L 94.126139 256.287077 
L 94.126512 256.287077 
L 94.319636 256.177379 
L 94.382462 256.125635 
L 94.400252 256.125635 
L 94.594806 255.99731 
L 95.220912 255.382592 
L 95.327593 255.235639 
L 95.538589 255.094895 
L 95.632144 255.010035 
L 95.642242 255.010035 
L 95.873953 254.896198 
L 95.983971 254.818582 
L 96.173901 254.638513 
L 96.275191 254.53399 
L 96.460165 254.403595 
L 96.550755 254.204898 
L 96.555068 254.204898 
L 96.686547 254.095201 
L 96.750203 254.060015 
L 96.776432 254.060015 
L 96.944487 253.952388 
L 96.944487 253.951353 
L 97.05519 253.807505 
L 97.055459 253.807505 
L 97.168878 253.696773 
L 97.262682 253.518773 
L 97.40795 253.389413 
L 97.516123 253.215553 
L 97.518528 253.215553 
L 97.606257 253.105856 
L 97.714243 252.952694 
L 97.717146 252.952694 
L 97.841866 252.841962 
L 97.954704 252.756067 
L 98.014275 252.646369 
L 98.095348 252.547021 
L 98.100469 252.547021 
L 98.25401 252.436289 
L 98.361271 252.350394 
L 98.661655 252.240697 
L 98.734848 252.141348 
L 98.771031 252.141348 
L 98.980928 252.034755 
L 99.100692 251.95093 
L 99.165758 251.840198 
L 99.275403 251.729466 
L 99.276149 251.729466 
L 99.352536 251.619769 
L 99.410801 251.601141 
L 99.628267 251.476955 
L 99.727358 251.363118 
L 99.739363 251.363118 
L 99.827465 251.252386 
L 99.954942 251.114747 
L 100.030292 250.984352 
L 100.122997 250.783586 
L 100.332149 250.673889 
L 100.434558 250.594203 
L 100.64713 250.460703 
L 100.753458 250.326169 
L 100.904614 250.210262 
L 101.013015 250.007426 
L 101.015586 250.007426 
L 101.081274 249.896694 
L 101.177068 249.808729 
L 101.17852 249.808729 
L 101.395612 249.699032 
L 101.506294 249.680404 
L 101.633523 249.570707 
L 101.740846 249.429963 
L 101.744474 249.429963 
L 101.836018 249.301638 
L 101.916075 249.144336 
L 101.918003 249.144336 
L 102.121038 249.034639 
L 102.230662 248.927011 
L 102.23201 248.927011 
L 102.338006 248.817314 
L 102.447278 248.717966 
L 102.44732 248.717966 
L 102.612866 248.542036 
L 102.723838 248.477874 
L 102.723962 248.477874 
L 102.828569 248.367141 
L 102.921958 248.345409 
L 103.107721 248.235712 
L 103.196963 248.16327 
L 103.218569 248.16327 
L 103.31258 248.053573 
L 103.424713 248.024596 
L 103.670669 247.914899 
L 103.779692 247.848667 
L 103.781641 247.848667 
L 103.871796 247.738969 
L 103.968627 247.625133 
L 103.977294 247.625133 
L 104.124241 247.5144 
L 104.234467 247.424366 
L 104.234778 247.424366 
L 104.31216 247.315703 
L 104.419317 247.204971 
L 104.423236 247.204971 
L 104.508808 247.095274 
L 104.508808 247.094239 
L 104.62061 246.931763 
L 104.743795 246.822066 
L 104.887819 246.691671 
L 105.026762 246.581974 
L 105.140409 246.451579 
L 105.276491 246.341882 
L 105.383545 246.132836 
L 105.385639 246.132836 
L 105.524188 246.025208 
L 105.626887 245.898953 
L 105.63487 245.898953 
L 105.729669 245.793395 
L 105.835334 245.660931 
L 105.840704 245.660931 
L 105.931895 245.550198 
L 106.04631 245.424978 
L 106.241486 245.315281 
L 106.241486 245.314246 
L 106.355527 245.240769 
L 106.434609 245.131072 
L 106.434609 245.130037 
L 106.539734 245.050352 
L 106.850548 244.939619 
L 106.958742 244.884771 
L 106.960151 244.884771 
L 107.089204 244.775074 
L 107.157339 244.750236 
L 107.167768 244.750236 
L 107.306878 244.640539 
L 107.417684 244.557749 
L 107.417912 244.557749 
L 107.568985 244.448051 
L 107.681554 244.299029 
L 107.765032 244.189332 
L 107.875922 244.052727 
L 107.876088 244.052727 
L 108.1784 243.94303 
L 108.1784 243.941995 
L 108.292814 243.76917 
L 108.425973 243.659473 
L 108.501406 243.547706 
L 108.502442 243.547706 
L 108.702864 243.426625 
L 108.814583 243.266219 
L 108.928956 243.156521 
L 108.934057 243.152382 
L 108.975049 243.152382 
L 109.163341 243.04165 
L 109.272696 242.937127 
L 109.274397 242.937127 
L 109.433639 242.826395 
L 109.524126 242.766372 
L 109.647829 242.633907 
L 109.77881 242.460047 
L 110.381963 241.693201 
L 110.49532 241.544179 
L 110.609755 241.435516 
L 110.609755 241.433447 
L 110.730348 241.198529 
L 110.847085 241.088832 
L 110.960151 240.989483 
L 111.018416 240.881856 
L 111.131918 240.722484 
L 111.223296 240.612787 
L 111.33319 240.457555 
L 111.334351 240.457555 
L 111.406549 240.347858 
L 111.406549 240.346823 
L 111.522581 240.225742 
L 111.602264 240.120184 
L 111.723894 239.973231 
L 111.801111 239.862499 
L 111.914384 239.735209 
L 112.015528 239.625511 
L 112.126501 239.475454 
L 112.250619 239.364722 
L 112.361259 239.238466 
L 112.361674 239.238466 
L 112.461615 239.128769 
L 112.571385 238.979746 
L 112.572712 238.979746 
L 112.652748 238.869014 
L 112.767142 238.700329 
L 112.811327 238.602015 
L 112.922341 238.495423 
L 112.922424 238.495423 
L 113.006669 238.384691 
L 113.218205 238.168401 
L 113.338031 238.058703 
L 113.447884 237.897262 
L 113.448941 237.897262 
L 113.5234 237.787565 
L 113.567814 237.7441 
L 113.570509 237.7441 
L 317.551854 195.917362 
L 317.848091 195.616212 
L 317.996116 195.50548 
L 318.110157 195.355422 
L 318.218268 195.24469 
L 318.327581 195.171214 
L 318.329365 195.171214 
L 318.366355 195.068761 
L 318.480915 194.94561 
L 318.622429 194.835913 
L 318.735392 194.655843 
L 318.947384 194.490263 
L 319.057651 194.34538 
L 319.058356 194.34538 
L 319.198896 194.237752 
L 319.310242 194.097008 
L 319.532187 193.987311 
L 319.644279 193.935567 
L 319.775612 193.82587 
L 319.8825 193.712033 
L 319.886688 193.712033 
L 320.001559 193.602336 
L 320.114936 193.488499 
L 320.218423 193.378802 
L 320.335575 193.175965 
L 320.445406 193.066268 
L 320.562682 192.96692 
L 320.641495 192.857222 
L 320.752384 192.726827 
L 320.752509 192.726827 
L 320.856327 192.654386 
L 321.019717 192.543654 
L 321.133447 192.410154 
L 321.286698 192.300457 
L 321.402252 192.153504 
L 321.50547 192.044842 
L 321.613228 191.915482 
L 321.616276 191.915482 
L 321.746863 191.805784 
L 321.855762 191.67539 
L 321.857691 191.67539 
L 321.984152 191.565692 
L 322.088738 191.464274 
L 322.095228 191.464274 
L 322.205433 191.354577 
L 322.313689 191.220042 
L 322.316447 191.220042 
L 322.392253 191.10931 
L 322.503329 191.005822 
L 322.651292 190.878532 
L 322.762243 190.768835 
L 322.871557 190.659138 
L 322.87334 190.659138 
L 322.958809 190.548405 
L 323.210528 190.274162 
L 323.320132 190.106512 
L 323.321584 190.106512 
L 323.435003 189.996814 
L 323.435003 189.99578 
L 323.551159 189.914024 
L 323.661923 189.804327 
L 323.661923 189.803292 
L 323.775425 189.678071 
L 323.856332 189.568374 
L 323.964194 189.479375 
L 323.967429 189.479375 
L 324.065007 189.368642 
L 324.177721 189.237213 
L 324.659098 188.713563 
L 324.765592 188.602831 
L 324.876357 188.454844 
L 324.876523 188.454844 
L 324.966014 188.344111 
L 325.078873 188.212682 
L 325.17755 188.102984 
L 325.288315 187.999496 
L 325.28848 187.999496 
L 325.391739 187.889799 
L 325.502256 187.659021 
L 325.680201 187.523452 
L 325.832 187.415824 
L 325.942454 187.322685 
L 325.943076 187.322685 
L 326.043847 187.212988 
L 326.151087 187.099151 
L 326.154715 187.099151 
L 326.223555 186.988419 
L 326.454229 186.716245 
L 326.566673 186.647943 
L 326.624813 186.539281 
L 326.738543 186.407851 
L 326.856337 186.297119 
L 326.963018 186.16155 
L 326.967413 186.16155 
L 327.103475 186.051853 
L 334.218972 178.933949 
L 334.322521 178.871856 
L 334.330027 178.871856 
L 334.444109 178.761124 
L 334.561095 178.616241 
L 334.686188 178.422718 
L 334.809663 178.313021 
L 334.916758 178.255068 
L 334.920697 178.255068 
L 335.052176 178.145371 
L 335.145358 178.097766 
L 335.14542 178.097766 
L 335.287059 177.988069 
L 335.385757 177.915627 
L 335.532704 177.804895 
L 335.641789 177.675535 
L 335.643738 177.675535 
L 335.735718 177.564803 
L 335.84217 177.443722 
L 335.846773 177.443722 
L 335.944661 177.334025 
L 336.054203 177.242955 
L 336.170276 177.133258 
L 336.27677 177.025631 
L 336.281352 177.025631 
L 336.379282 176.915933 
L 336.379282 176.914899 
L 336.479265 176.803132 
L 336.665442 176.667562 
L 336.785268 176.495772 
L 336.938332 176.38504 
L 337.047977 176.299145 
L 337.04891 176.299145 
L 337.169524 176.188413 
L 337.298557 176.092169 
L 337.439698 175.981437 
L 337.549716 175.91003 
L 337.649616 175.772391 
L 338.544859 174.924825 
L 338.639534 174.814093 
L 338.74949 174.713709 
L 338.750506 174.713709 
L 338.850821 174.606082 
L 338.850821 174.602977 
L 338.978982 174.392896 
L 339.120414 174.283199 
L 339.228815 174.115549 
L 339.23149 174.115549 
L 339.339228 174.005851 
L 339.453642 173.840271 
L 339.579046 173.731608 
L 339.707933 173.63019 
L 340.856989 172.546671 
L 340.967775 172.436974 
L 340.968045 172.436974 
L 341.149515 172.327276 
L 341.258787 172.246556 
L 341.258932 172.246556 
L 341.392443 172.136858 
L 341.540779 172.010603 
L 341.651959 171.920569 
L 341.651959 171.919534 
L 341.764673 171.716697 
L 341.920018 171.605965 
L 342.03551 171.495233 
L 342.152185 171.385536 
L 342.363306 171.162002 
L 342.482696 171.027467 
L 342.664478 170.91777 
L 342.664478 170.916735 
L 342.773128 170.806003 
L 342.930131 170.695271 
L 343.031731 170.599027 
L 343.037516 170.599027 
L 343.176439 170.48933 
L 343.291247 170.367214 
L 343.358117 170.256482 
L 343.468819 170.083657 
L 343.469151 170.083657 
L 343.557315 169.97396 
L 343.657236 169.866332 
L 343.665323 169.866332 
L 343.763004 169.760774 
L 343.871861 169.655217 
L 343.874018 169.655217 
L 343.972819 169.545519 
L 344.086092 169.475147 
L 344.212284 169.364415 
L 344.31799 169.175032 
L 344.321888 169.175032 
L 344.435867 169.0643 
L 344.538918 168.963917 
L 344.747676 168.845941 
L 344.852946 168.790057 
L 344.857196 168.790057 
L 345.327481 168.322291 
L 345.483738 168.211559 
L 345.644017 168.094618 
L 345.778627 167.984921 
L 345.884997 167.866944 
L 345.885328 167.866944 
L 346.061739 167.756212 
L 346.172836 167.628922 
L 346.291107 167.519225 
L 346.291107 167.51819 
L 346.404899 167.38469 
L 346.570383 167.273958 
L 346.668375 167.153912 
L 346.781566 167.047319 
L 346.958579 166.936587 
L 347.764517 166.362229 
L 347.86392 166.295997 
L 347.871633 166.295997 
L 347.978811 166.186299 
L 348.08717 166.09937 
L 348.360019 165.950347 
L 348.470908 165.805464 
L 348.471074 165.805464 
L 348.624262 165.695766 
L 348.731502 165.629534 
L 348.735234 165.629534 
L 348.902191 165.519837 
L 349.011006 165.431872 
L 349.212258 165.296303 
L 349.341145 165.161768 
L 349.548783 165.052071 
L 349.548783 165.051036 
L 349.661082 164.992048 
L 349.796853 164.882351 
L 349.906871 164.776793 
L 349.907908 164.776793 
L 350.062112 164.666061 
L 350.144243 164.594654 
L 350.17238 164.594654 
L 350.292869 164.484957 
L 350.292869 164.483922 
L 350.405003 164.425969 
L 350.537456 164.315237 
L 350.644033 164.251074 
L 350.774164 164.140342 
L 350.911386 163.986145 
L 351.139054 163.876448 
L 351.247745 163.752262 
L 351.250088 163.752262 
L 351.406656 163.642565 
L 351.515182 163.5991 
L 351.517711 163.5991 
L 351.758898 163.488368 
L 351.860539 163.33624 
L 351.864417 163.33624 
L 351.963363 163.225508 
L 352.118936 163.158241 
L 352.213569 163.047509 
L 352.311396 162.945056 
L 352.317098 162.945056 
L 352.426556 162.835359 
L 352.505721 162.783615 
L 352.533361 162.783615 
L 352.628264 162.673917 
L 352.736126 162.56836 
L 352.738552 162.56836 
L 352.924687 162.458662 
L 353.034664 162.311709 
L 353.035763 162.311709 
L 353.124778 162.202012 
L 353.238445 162.073687 
L 353.311929 161.96399 
L 353.421181 161.863606 
L 353.517535 161.752874 
L 353.628258 161.659735 
L 353.62859 161.659735 
L 353.741159 161.549003 
L 353.851406 161.44655 
L 353.852194 161.44655 
L 353.928663 161.339957 
L 354.411119 160.941528 
L 354.570092 160.830796 
L 354.664186 160.782157 
L 354.670179 160.782157 
L 354.913978 160.686948 
L 354.913978 160.682808 
L 355.024556 160.622785 
L 355.097273 160.512053 
L 355.208224 160.440647 
L 355.208349 160.440647 
L 355.332425 160.329914 
L 355.489927 160.142601 
L 355.605564 160.034974 
L 355.715997 159.921137 
L 355.716205 159.921137 
L 355.947978 159.814544 
L 356.065751 159.687254 
L 356.175894 159.576522 
L 356.282926 159.519604 
L 356.285332 159.519604 
L 356.437234 159.409906 
L 356.546444 159.355058 
L 357.07659 159.004233 
L 357.189864 158.890397 
L 357.423275 158.779664 
L 357.574576 158.650305 
L 357.787356 158.540607 
L 357.901832 158.457817 
L 358.217809 158.34812 
L 358.320487 158.221864 
L 358.325381 158.221864 
L 358.532728 158.111132 
L 358.660081 157.981772 
L 358.801243 157.87104 
L 358.903755 157.783075 
L 358.908856 157.783075 
L 359.048816 157.672343 
L 359.158751 157.605076 
L 359.159891 157.605076 
L 359.243618 157.494344 
L 359.370121 157.391891 
L 359.493285 157.284263 
L 359.604299 157.199403 
L 359.604361 157.199403 
L 359.715313 157.13731 
L 359.867423 157.026578 
L 359.975824 156.96759 
L 360.110227 156.856858 
L 360.210085 156.802009 
L 360.220515 156.802009 
L 360.365181 156.692312 
L 360.479968 156.570196 
L 360.596663 156.460499 
L 360.705977 156.379778 
L 360.707677 156.379778 
L 360.831173 156.270081 
L 360.935718 156.165558 
L 361.181694 156.054826 
L 361.296419 155.874757 
L 361.404509 155.76506 
L 361.574223 155.626386 
L 361.630912 155.516688 
L 361.734171 155.448386 
L 361.741843 155.448386 
L 361.847486 155.339724 
L 362.317439 154.910249 
L 362.417132 154.800552 
L 362.497852 154.670157 
L 362.52742 154.670157 
L 362.668416 154.560459 
L 362.779658 154.481809 
L 362.89007 154.372111 
L 363.001561 154.258275 
L 363.097915 154.147542 
L 363.207208 154.047159 
L 363.310094 153.937462 
L 363.420755 153.827765 
L 363.42119 153.827765 
L 363.556464 153.722207 
L 363.556464 153.718067 
L 363.675294 153.651835 
L 363.794685 153.541103 
L 363.904952 153.43658 
L 363.90572 153.43658 
L 364.10357 153.326883 
L 364.199116 153.206837 
L 364.358898 153.096104 
L 364.495084 152.978128 
L 364.624137 152.863257 
L 364.729801 152.668699 
L 364.731377 152.668699 
L 364.877681 152.530025 
L 364.979281 152.420328 
L 364.988384 152.420328 
L 365.100248 152.310631 
L 365.204419 152.252677 
L 365.206078 152.252677 
L 365.380954 152.141945 
L 365.49203 152.039492 
L 365.492051 152.039492 
L 365.637402 151.929795 
L 365.743232 151.702121 
L 365.748415 151.702121 
L 366.004116 151.592424 
L 366.108287 151.479622 
L 366.110734 151.479622 
L 366.708309 151.054287 
L 366.813476 150.961147 
L 366.81897 150.961147 
L 366.913065 150.850415 
L 367.049167 150.691044 
L 367.172767 150.451987 
L 367.30717 150.342289 
L 367.418308 150.242941 
L 368.663615 149.17598 
L 368.798329 149.067317 
L 368.798329 149.065248 
L 368.909343 148.953481 
L 368.909426 148.953481 
L 369.074039 148.842748 
L 369.185757 148.758923 
L 369.300897 148.649226 
L 369.40934 148.560226 
L 369.410605 148.560226 
L 369.508162 148.449494 
L 369.617434 148.373948 
L 369.619217 148.373948 
L 369.677502 148.263216 
L 369.800978 148.173181 
L 369.929823 148.062449 
L 370.056015 147.912391 
L 370.251523 147.802694 
L 370.354678 147.632974 
L 370.749841 147.423928 
L 371.136108 147.090697 
L 371.308807 146.954093 
L 371.419448 146.834047 
L 371.419842 146.834047 
L 371.491315 146.724349 
L 371.601582 146.639489 
L 371.601789 146.639489 
L 371.74208 146.531862 
L 371.855956 146.264863 
L 371.898731 146.164479 
L 372.028448 145.871608 
L 372.186633 145.761911 
L 372.289104 145.660493 
L 372.29773 145.660493 
L 372.404597 145.549761 
L 372.550445 145.441098 
L 372.659696 145.330366 
L 372.770585 145.25482 
L 372.911602 145.144088 
L 373.009926 145.060263 
L 373.02019 145.060263 
L 373.045072 144.988856 
L 373.161041 144.687706 
L 373.363993 144.580078 
L 373.363993 144.578009 
L 373.474841 144.418637 
L 373.47509 144.418637 
L 373.687247 144.307905 
L 373.798303 144.05229 
L 373.798344 144.05229 
L 373.949915 143.941558 
L 374.065988 143.87843 
L 374.159045 143.768733 
L 374.267281 143.66421 
L 374.40245 143.544164 
L 374.890982 143.01534 
L 375.00297 142.92634 
L 375.061919 142.816643 
L 375.061919 142.815608 
L 375.183963 142.636574 
L 375.324835 142.526877 
L 375.436139 142.473063 
L 375.542011 142.363366 
L 375.650557 142.257808 
L 375.65093 142.257808 
L 375.905594 142.074634 
L 376.019656 141.963902 
L 376.12814 141.843856 
L 376.130753 141.843856 
L 376.230487 141.734159 
L 376.337706 141.628601 
L 376.49218 141.495102 
L 376.598985 141.353323 
L 376.603256 141.353323 
L 376.726005 141.24673 
L 376.726005 141.243626 
L 376.830135 141.144277 
L 377.322129 140.682721 
L 377.433226 140.589582 
L 377.530264 140.47885 
L 377.626722 140.42814 
L 377.634622 140.42814 
L 377.800521 140.30499 
L 377.934654 140.045235 
L 378.123153 139.899317 
L 378.278042 139.672678 
L 378.476183 139.505028 
L 378.584086 139.353935 
L 378.587176 139.353935 
L 378.692778 139.244238 
L 378.782352 139.173866 
L 378.801884 139.173866 
L 378.996998 139.064169 
L 379.102621 138.995867 
L 379.106311 138.995867 
L 379.272314 138.88617 
L 379.38341 138.757844 
L 379.498571 138.647112 
L 379.621943 138.497055 
L 379.827942 138.301462 
L 380.053764 138.136917 
L 380.166022 137.992033 
L 380.254995 137.882336 
L 380.624467 137.513919 
L 380.733801 137.275897 
L 380.735543 137.275897 
L 380.836376 137.166199 
L 380.933912 136.994409 
L 380.93893 136.994409 
L 381.077189 136.861945 
L 381.187457 136.704643 
L 381.188162 136.704643 
L 381.323974 136.593911 
L 381.49205 136.393144 
L 381.590229 136.271028 
L 381.704083 136.133389 
L 381.827165 136.023692 
L 381.922565 135.980227 
L 382.015395 135.87053 
L 382.126201 135.752553 
L 382.126429 135.752553 
L 382.19475 135.642856 
L 382.305743 135.560066 
L 382.305764 135.560066 
L 382.445661 135.449334 
L 382.555348 135.326183 
L 382.556696 135.326183 
L 382.637914 135.215451 
L 382.765826 135.052975 
L 382.868836 134.943277 
L 382.868836 134.942243 
L 382.983292 134.860487 
L 383.08398 134.75079 
L 383.194123 134.599697 
L 383.195077 134.599697 
L 383.290083 134.488965 
L 383.401097 134.359605 
L 383.40118 134.359605 
L 383.538278 134.248873 
L 383.656549 134.06156 
L 383.795575 133.951863 
L 384.395058 133.304028 
L 384.50941 133.194331 
L 384.620299 133.055657 
L 384.620486 133.055657 
L 384.740478 132.944924 
L 384.848837 132.799006 
L 384.851533 132.799006 
L 384.930657 132.689309 
L 385.040095 132.556845 
L 385.041525 132.556845 
L 385.170765 132.446112 
L 385.280016 132.287776 
L 385.281136 132.287776 
L 385.323704 132.184288 
L 385.453545 132.035265 
L 385.576917 131.924533 
L 385.687931 131.805522 
L 385.688014 131.805522 
L 385.747066 131.695825 
L 385.859635 131.569569 
L 386.012968 131.459872 
L 386.123194 131.354314 
L 386.124044 131.354314 
L 386.236406 131.244617 
L 386.346922 131.118362 
L 386.347357 131.118362 
L 386.444831 131.007629 
L 386.552984 130.820316 
L 386.555928 130.820316 
L 386.616888 130.709584 
L 386.725725 130.569875 
L 386.726969 130.569875 
L 386.881132 130.459143 
L 386.997454 130.372213 
L 387.099012 130.246993 
L 387.209487 130.118668 
L 387.210109 130.118668 
L 387.299932 130.01104 
L 387.299932 130.00897 
L 387.40995 129.853738 
L 387.411029 129.853738 
L 387.558992 129.744041 
L 387.668886 129.609507 
L 387.66957 129.609507 
L 387.731961 129.503949 
L 387.837252 128.992718 
L 387.840258 128.992718 
L 387.919983 128.872672 
L 388.076427 128.613952 
L 388.166208 128.50322 
L 388.658098 127.633921 
L 389.059087 127.08026 
L 389.16838 126.972633 
L 389.277445 126.759448 
L 389.279456 126.759448 
L 389.413962 126.648716 
L 389.536256 126.465542 
L 389.654921 126.355845 
L 389.883335 126.006055 
L 389.96391 125.895323 
L 390.077785 125.757684 
L 390.182868 125.649022 
L 393.058154 121.569525 
L 393.221772 121.216631 
L 393.319018 121.106934 
L 393.429555 120.873051 
L 393.429949 120.873051 
L 393.443551 120.815098 
L 393.612933 120.53568 
L 393.677542 120.424948 
L 393.785757 120.258333 
L 393.788597 120.258333 
L 393.848645 120.157949 
L 394.051555 119.894055 
L 394.157738 119.784358 
L 394.267424 119.598079 
L 394.268834 119.598079 
L 394.356086 119.488382 
L 394.466893 119.351778 
L 394.467183 119.351778 
L 394.543321 119.243116 
L 394.999278 118.64599 
L 395.107223 118.451432 
L 395.109296 118.451432 
L 395.248447 118.3407 
L 395.48982 118.035411 
L 395.547877 117.925714 
L 395.658393 117.770482 
L 395.658974 117.770482 
L 395.722941 117.668028 
L 395.845462 117.228205 
L 395.948908 117.118507 
L 396.050736 116.934299 
L 396.05679 116.934299 
L 396.149495 116.823567 
L 396.258622 116.731462 
L 396.36354 116.621765 
L 396.476855 116.400301 
L 396.538956 116.292673 
L 396.649679 116.178836 
L 396.650011 116.178836 
L 396.715844 116.068104 
L 397.134976 115.350933 
L 397.194153 115.24641 
L 397.322605 114.986655 
L 397.367661 114.875923 
L 397.640509 113.730311 
L 397.700723 113.620613 
L 397.811447 113.421917 
L 397.811654 113.421917 
L 397.847649 113.312219 
L 397.847649 113.311184 
L 397.967164 113.101104 
L 398.017052 112.991407 
L 398.127195 112.780291 
L 398.127983 112.780291 
L 398.179405 112.672664 
L 398.179405 112.670594 
L 398.2831 112.52985 
L 398.284447 112.52985 
L 398.426439 112.241119 
L 398.535835 111.966875 
L 398.537536 111.966875 
L 398.610149 111.856143 
L 400.930199 107.415474 
L 401.050793 107.179521 
L 401.128258 107.069824 
L 401.233134 106.858709 
L 401.272115 106.751081 
L 401.38259 106.532722 
L 402.242459 104.541613 
L 402.393367 104.213556 
L 402.459013 104.103859 
L 402.569612 103.74372 
L 402.570109 103.74372 
L 402.622859 103.636093 
L 402.622859 103.634023 
L 402.732504 103.294583 
L 402.733893 103.294583 
L 402.813411 103.184885 
L 402.922932 102.996537 
L 402.924487 102.996537 
L 402.944911 102.892014 
L 403.062518 102.512213 
L 403.128828 102.401481 
L 403.239157 102.104471 
L 403.289854 101.994773 
L 403.400183 101.738123 
L 403.40095 101.738123 
L 403.436842 101.627391 
L 403.547835 101.411101 
L 403.547877 101.411101 
L 403.624097 101.300369 
L 403.734572 100.984731 
L 403.735153 100.984731 
L 403.790203 100.873999 
L 403.908433 100.516965 
L 403.949052 100.407268 
L 404.059568 100.086455 
L 404.060004 100.086455 
L 404.108793 99.975723 
L 404.225301 99.676643 
L 404.285038 99.566945 
L 404.391801 99.09297 
L 404.396135 99.09297 
L 404.445981 98.983273 
L 404.557036 98.660391 
L 404.656418 98.550693 
L 404.769671 98.302322 
L 404.794926 98.196764 
L 404.909278 97.757975 
L 404.998437 97.648278 
L 405.108497 97.373 
L 405.109451 97.373 
L 405.153035 97.263303 
L 405.261996 96.918688 
L 405.262349 96.918688 
L 405.492152 96.29362 
L 405.614528 96.013168 
L 405.654194 95.903471 
L 405.654194 95.902436 
L 405.773501 95.627158 
L 405.850614 95.516426 
L 405.957667 95.13352 
L 405.959036 95.13352 
L 406.006767 95.022788 
L 406.11691 94.767173 
L 406.117304 94.767173 
L 406.331846 94.302512 
L 406.447131 93.883385 
L 406.474958 93.773688 
L 406.581949 93.534631 
L 406.582032 93.534631 
L 406.812146 92.993389 
L 406.922081 92.622902 
L 406.923014 92.622902 
L 406.971928 92.513204 
L 407.082527 92.182043 
L 407.082983 92.182043 
L 407.134695 92.074415 
L 407.245709 91.701859 
L 407.24575 91.701859 
L 407.300075 91.591127 
L 407.411131 91.294116 
L 407.411172 91.294116 
L 407.460148 91.184419 
L 407.585634 90.824281 
L 407.625735 90.714583 
L 407.736708 90.449654 
L 407.736832 90.449654 
L 407.779297 90.339957 
L 407.889523 89.986028 
L 407.890352 89.986028 
L 407.934144 89.879435 
L 408.133715 89.274031 
L 408.192664 89.164333 
L 408.192664 89.163298 
L 408.310375 88.829032 
L 408.346599 88.719335 
L 408.457115 88.41715 
L 408.457696 88.41715 
L 408.482619 88.306418 
L 408.593176 87.943175 
L 408.593633 87.943175 
L 408.615736 87.833478 
L 408.726376 87.516805 
L 408.72677 87.516805 
L 408.761708 87.406073 
L 408.872805 87.057318 
L 408.904529 86.95176 
L 409.014423 86.641296 
L 409.015626 86.641296 
L 409.060517 86.531599 
L 409.17012 86.188019 
L 409.171447 86.188019 
L 409.197656 86.077287 
L 409.316736 85.668509 
L 409.360009 85.557777 
L 409.477015 85.262836 
L 409.521305 85.156244 
L 409.521305 85.152104 
L 409.632401 84.782652 
L 409.670802 84.672955 
L 409.780261 84.428723 
L 409.781816 84.428723 
L 409.813374 84.319026 
L 409.924471 83.93612 
L 409.957024 83.826423 
L 410.067748 83.369006 
L 410.068121 83.369006 
L 410.108927 83.259309 
L 410.216955 82.830869 
L 410.21992 82.830869 
L 410.242313 82.723241 
L 410.36836 82.222359 
L 410.401784 82.112662 
L 410.512508 81.731826 
L 410.51286 81.731826 
L 410.531128 81.629373 
L 410.531128 81.621094 
L 410.646537 81.18127 
L 410.682035 81.073643 
L 410.793132 80.533436 
L 410.821476 80.434087 
L 410.974809 79.169464 
L 411.001848 79.059767 
L 411.112944 78.658233 
L 411.142056 78.548536 
L 411.25307 77.983492 
L 411.253111 77.983492 
L 411.282845 77.87276 
L 411.393319 77.362564 
L 411.393941 77.362564 
L 411.509703 76.886519 
L 411.525794 76.775787 
L 411.7444 75.806105 
L 411.777078 75.696407 
L 411.888092 75.087898 
L 411.888174 75.087898 
L 411.906836 74.978201 
L 412.016999 74.475249 
L 412.328083 72.935348 
L 412.349439 72.825651 
L 412.460204 72.132281 
L 412.460536 72.132281 
L 412.485625 72.024654 
L 412.59639 71.478237 
L 412.596722 71.478237 
L 412.614678 71.36854 
L 412.725692 70.84696 
L 412.725775 70.84696 
L 412.751154 70.737263 
L 412.861795 69.876243 
L 412.862209 69.876243 
L 412.868761 69.822429 
L 412.868761 69.77172 
L 412.979775 69.079386 
L 412.979817 69.079386 
L 413.000178 68.969688 
L 413.111233 68.00932 
L 413.113017 67.979308 
L 413.226332 66.986859 
L 413.254179 66.879231 
L 413.364695 66.105141 
L 413.365275 66.105141 
L 413.379209 65.995444 
L 413.490264 65.140633 
L 413.490285 65.140633 
L 413.500632 65.030936 
L 413.610941 63.985707 
L 413.611687 63.985707 
L 413.631509 63.87808 
L 413.631509 63.874975 
L 413.742523 63.174361 
L 413.742565 63.174361 
L 413.756063 63.063629 
L 414.72 54.144 
L 414.72 54.144 
" clip-path="url(#p328bb8cc14)" style="fill: none; stroke: #ff8c00; stroke-width: 1.5; stroke-linecap: square"/>
   </g>
   <g id="line2d_14">
    <path d="M 74.605714 307.584 
L 414.72 54.144 
" clip-path="url(#p328bb8cc14)" style="fill: none; stroke-dasharray: 5.55,2.4; stroke-dashoffset: 0; stroke: #0000ff; stroke-width: 1.5"/>
   </g>
   <g id="patch_3">
    <path d="M 57.6 307.584 
L 57.6 41.472 
" style="fill: none; stroke: #000000; stroke-width: 0.8; stroke-linejoin: miter; stroke-linecap: square"/>
   </g>
   <g id="patch_4">
    <path d="M 414.72 307.584 
L 414.72 41.472 
" style="fill: none; stroke: #000000; stroke-width: 0.8; stroke-linejoin: miter; stroke-linecap: square"/>
   </g>
   <g id="patch_5">
    <path d="M 57.6 307.584 
L 414.72 307.584 
" style="fill: none; stroke: #000000; stroke-width: 0.8; stroke-linejoin: miter; stroke-linecap: square"/>
   </g>
   <g id="patch_6">
    <path d="M 57.6 41.472 
L 414.72 41.472 
" style="fill: none; stroke: #000000; stroke-width: 0.8; stroke-linejoin: miter; stroke-linecap: square"/>
   </g>
   <g id="text_15">
    <!-- ROC CURVE -->
    <g transform="translate(200.855625 35.472)scale(0.12 -0.12)">
     <defs>
      <path id="DejaVuSans-4f" d="M 2522 4238 
Q 1834 4238 1429 3725 
Q 1025 3213 1025 2328 
Q 1025 1447 1429 934 
Q 1834 422 2522 422 
Q 3209 422 3611 934 
Q 4013 1447 4013 2328 
Q 4013 3213 3611 3725 
Q 3209 4238 2522 4238 
z
M 2522 4750 
Q 3503 4750 4090 4092 
Q 4678 3434 4678 2328 
Q 4678 1225 4090 567 
Q 3503 -91 2522 -91 
Q 1538 -91 948 565 
Q 359 1222 359 2328 
Q 359 3434 948 4092 
Q 1538 4750 2522 4750 
z
" transform="scale(0.015625)"/>
      <path id="DejaVuSans-43" d="M 4122 4306 
L 4122 3641 
Q 3803 3938 3442 4084 
Q 3081 4231 2675 4231 
Q 1875 4231 1450 3742 
Q 1025 3253 1025 2328 
Q 1025 1406 1450 917 
Q 1875 428 2675 428 
Q 3081 428 3442 575 
Q 3803 722 4122 1019 
L 4122 359 
Q 3791 134 3420 21 
Q 3050 -91 2638 -91 
Q 1578 -91 968 557 
Q 359 1206 359 2328 
Q 359 3453 968 4101 
Q 1578 4750 2638 4750 
Q 3056 4750 3426 4639 
Q 3797 4528 4122 4306 
z
" transform="scale(0.015625)"/>
      <path id="DejaVuSans-55" d="M 556 4666 
L 1191 4666 
L 1191 1831 
Q 1191 1081 1462 751 
Q 1734 422 2344 422 
Q 2950 422 3222 751 
Q 3494 1081 3494 1831 
L 3494 4666 
L 4128 4666 
L 4128 1753 
Q 4128 841 3676 375 
Q 3225 -91 2344 -91 
Q 1459 -91 1007 375 
Q 556 841 556 1753 
L 556 4666 
z
" transform="scale(0.015625)"/>
      <path id="DejaVuSans-56" d="M 1831 0 
L 50 4666 
L 709 4666 
L 2188 738 
L 3669 4666 
L 4325 4666 
L 2547 0 
L 1831 0 
z
" transform="scale(0.015625)"/>
      <path id="DejaVuSans-45" d="M 628 4666 
L 3578 4666 
L 3578 4134 
L 1259 4134 
L 1259 2753 
L 3481 2753 
L 3481 2222 
L 1259 2222 
L 1259 531 
L 3634 531 
L 3634 0 
L 628 0 
L 628 4666 
z
" transform="scale(0.015625)"/>
     </defs>
     <use xlink:href="#DejaVuSans-52"/>
     <use xlink:href="#DejaVuSans-4f" x="69.482422"/>
     <use xlink:href="#DejaVuSans-43" x="148.193359"/>
     <use xlink:href="#DejaVuSans-20" x="218.017578"/>
     <use xlink:href="#DejaVuSans-43" x="249.804688"/>
     <use xlink:href="#DejaVuSans-55" x="319.628906"/>
     <use xlink:href="#DejaVuSans-52" x="392.822266"/>
     <use xlink:href="#DejaVuSans-56" x="456.804688"/>
     <use xlink:href="#DejaVuSans-45" x="525.212891"/>
    </g>
   </g>
   <g id="legend_1">
    <g id="patch_7">
     <path d="M 234.97 302.584 
L 407.72 302.584 
Q 409.72 302.584 409.72 300.584 
L 409.72 286.905875 
Q 409.72 284.905875 407.72 284.905875 
L 234.97 284.905875 
Q 232.97 284.905875 232.97 286.905875 
L 232.97 300.584 
Q 232.97 302.584 234.97 302.584 
z
" style="fill: #ffffff; opacity: 0.8; stroke: #cccccc; stroke-linejoin: miter"/>
    </g>
    <g id="line2d_15">
     <path d="M 236.97 293.004312 
L 246.97 293.004312 
L 256.97 293.004312 
" style="fill: none; stroke: #ff8c00; stroke-width: 1.5; stroke-linecap: square"/>
    </g>
    <g id="text_16">
     <!-- ROC curve (ROC AUC=0.42) -->
     <g transform="translate(264.97 296.504312)scale(0.1 -0.1)">
      <defs>
       <path id="DejaVuSans-63" d="M 3122 3366 
L 3122 2828 
Q 2878 2963 2633 3030 
Q 2388 3097 2138 3097 
Q 1578 3097 1268 2742 
Q 959 2388 959 1747 
Q 959 1106 1268 751 
Q 1578 397 2138 397 
Q 2388 397 2633 464 
Q 2878 531 3122 666 
L 3122 134 
Q 2881 22 2623 -34 
Q 2366 -91 2075 -91 
Q 1284 -91 818 406 
Q 353 903 353 1747 
Q 353 2603 823 3093 
Q 1294 3584 2113 3584 
Q 2378 3584 2631 3529 
Q 2884 3475 3122 3366 
z
" transform="scale(0.015625)"/>
       <path id="DejaVuSans-28" d="M 1984 4856 
Q 1566 4138 1362 3434 
Q 1159 2731 1159 2009 
Q 1159 1288 1364 580 
Q 1569 -128 1984 -844 
L 1484 -844 
Q 1016 -109 783 600 
Q 550 1309 550 2009 
Q 550 2706 781 3412 
Q 1013 4119 1484 4856 
L 1984 4856 
z
" transform="scale(0.015625)"/>
       <path id="DejaVuSans-41" d="M 2188 4044 
L 1331 1722 
L 3047 1722 
L 2188 4044 
z
M 1831 4666 
L 2547 4666 
L 4325 0 
L 3669 0 
L 3244 1197 
L 1141 1197 
L 716 0 
L 50 0 
L 1831 4666 
z
" transform="scale(0.015625)"/>
       <path id="DejaVuSans-3d" d="M 678 2906 
L 4684 2906 
L 4684 2381 
L 678 2381 
L 678 2906 
z
M 678 1631 
L 4684 1631 
L 4684 1100 
L 678 1100 
L 678 1631 
z
" transform="scale(0.015625)"/>
       <path id="DejaVuSans-29" d="M 513 4856 
L 1013 4856 
Q 1481 4119 1714 3412 
Q 1947 2706 1947 2009 
Q 1947 1309 1714 600 
Q 1481 -109 1013 -844 
L 513 -844 
Q 928 -128 1133 580 
Q 1338 1288 1338 2009 
Q 1338 2731 1133 3434 
Q 928 4138 513 4856 
z
" transform="scale(0.015625)"/>
      </defs>
      <use xlink:href="#DejaVuSans-52"/>
      <use xlink:href="#DejaVuSans-4f" x="69.482422"/>
      <use xlink:href="#DejaVuSans-43" x="148.193359"/>
      <use xlink:href="#DejaVuSans-20" x="218.017578"/>
      <use xlink:href="#DejaVuSans-63" x="249.804688"/>
      <use xlink:href="#DejaVuSans-75" x="304.785156"/>
      <use xlink:href="#DejaVuSans-72" x="368.164062"/>
      <use xlink:href="#DejaVuSans-76" x="409.277344"/>
      <use xlink:href="#DejaVuSans-65" x="468.457031"/>
      <use xlink:href="#DejaVuSans-20" x="529.980469"/>
      <use xlink:href="#DejaVuSans-28" x="561.767578"/>
      <use xlink:href="#DejaVuSans-52" x="600.78125"/>
      <use xlink:href="#DejaVuSans-4f" x="670.263672"/>
      <use xlink:href="#DejaVuSans-43" x="748.974609"/>
      <use xlink:href="#DejaVuSans-20" x="818.798828"/>
      <use xlink:href="#DejaVuSans-41" x="850.585938"/>
      <use xlink:href="#DejaVuSans-55" x="918.994141"/>
      <use xlink:href="#DejaVuSans-43" x="992.1875"/>
      <use xlink:href="#DejaVuSans-3d" x="1062.011719"/>
      <use xlink:href="#DejaVuSans-30" x="1145.800781"/>
      <use xlink:href="#DejaVuSans-2e" x="1209.423828"/>
      <use xlink:href="#DejaVuSans-34" x="1241.210938"/>
      <use xlink:href="#DejaVuSans-32" x="1304.833984"/>
      <use xlink:href="#DejaVuSans-29" x="1368.457031"/>
     </g>
    </g>
   </g>
  </g>
 </g>
 <defs>
  <clipPath id="p328bb8cc14">
   <rect x="57.6" y="41.472" width="357.12" height="266.112"/>
  </clipPath>
 </defs>
</svg>
