<?xml version="1.0" encoding="utf-8" standalone="no"?>
<!DOCTYPE svg PUBLIC "-//W3C//DTD SVG 1.1//EN"
  "http://www.w3.org/Graphics/SVG/1.1/DTD/svg11.dtd">
<svg xmlns:xlink="http://www.w3.org/1999/xlink" width="460.8pt" height="345.6pt" viewBox="0 0 460.8 345.6" xmlns="http://www.w3.org/2000/svg" version="1.1">
 <metadata>
  <rdf:RDF xmlns:dc="http://purl.org/dc/elements/1.1/" xmlns:cc="http://creativecommons.org/ns#" xmlns:rdf="http://www.w3.org/1999/02/22-rdf-syntax-ns#">
   <cc:Work>
    <dc:type rdf:resource="http://purl.org/dc/dcmitype/StillImage"/>
    <dc:date>2022-05-20T11:28:41.565523</dc:date>
    <dc:format>image/svg+xml</dc:format>
    <dc:creator>
     <cc:Agent>
      <dc:title>Matplotlib v3.5.1, https://matplotlib.org/</dc:title>
     </cc:Agent>
    </dc:creator>
   </cc:Work>
  </rdf:RDF>
 </metadata>
 <defs>
  <style type="text/css">*{stroke-linejoin: round; stroke-linecap: butt}</style>
 </defs>
 <g id="figure_1">
  <g id="patch_1">
   <path d="M 0 345.6 
L 460.8 345.6 
L 460.8 0 
L 0 0 
z
" style="fill: #ffffff"/>
  </g>
  <g id="axes_1">
   <g id="patch_2">
    <path d="M 57.6 307.584 
L 414.72 307.584 
L 414.72 41.472 
L 57.6 41.472 
z
" style="fill: #ffffff"/>
   </g>
   <g id="matplotlib.axis_1">
    <g id="xtick_1">
     <g id="line2d_1">
      <defs>
       <path id="m7d040346e9" d="M 0 0 
L 0 3.5 
" style="stroke: #000000; stroke-width: 0.8"/>
      </defs>
      <g>
       <use xlink:href="#m7d040346e9" x="74.605714" y="307.584" style="stroke: #000000; stroke-width: 0.8"/>
      </g>
     </g>
     <g id="text_1">
      <!-- 0.0 -->
      <g transform="translate(66.654152 322.182437)scale(0.1 -0.1)">
       <defs>
        <path id="DejaVuSans-30" d="M 2034 4250 
Q 1547 4250 1301 3770 
Q 1056 3291 1056 2328 
Q 1056 1369 1301 889 
Q 1547 409 2034 409 
Q 2525 409 2770 889 
Q 3016 1369 3016 2328 
Q 3016 3291 2770 3770 
Q 2525 4250 2034 4250 
z
M 2034 4750 
Q 2819 4750 3233 4129 
Q 3647 3509 3647 2328 
Q 3647 1150 3233 529 
Q 2819 -91 2034 -91 
Q 1250 -91 836 529 
Q 422 1150 422 2328 
Q 422 3509 836 4129 
Q 1250 4750 2034 4750 
z
" transform="scale(0.015625)"/>
        <path id="DejaVuSans-2e" d="M 684 794 
L 1344 794 
L 1344 0 
L 684 0 
L 684 794 
z
" transform="scale(0.015625)"/>
       </defs>
       <use xlink:href="#DejaVuSans-30"/>
       <use xlink:href="#DejaVuSans-2e" x="63.623047"/>
       <use xlink:href="#DejaVuSans-30" x="95.410156"/>
      </g>
     </g>
    </g>
    <g id="xtick_2">
     <g id="line2d_2">
      <g>
       <use xlink:href="#m7d040346e9" x="142.628571" y="307.584" style="stroke: #000000; stroke-width: 0.8"/>
      </g>
     </g>
     <g id="text_2">
      <!-- 0.2 -->
      <g transform="translate(134.677009 322.182437)scale(0.1 -0.1)">
       <defs>
        <path id="DejaVuSans-32" d="M 1228 531 
L 3431 531 
L 3431 0 
L 469 0 
L 469 531 
Q 828 903 1448 1529 
Q 2069 2156 2228 2338 
Q 2531 2678 2651 2914 
Q 2772 3150 2772 3378 
Q 2772 3750 2511 3984 
Q 2250 4219 1831 4219 
Q 1534 4219 1204 4116 
Q 875 4013 500 3803 
L 500 4441 
Q 881 4594 1212 4672 
Q 1544 4750 1819 4750 
Q 2544 4750 2975 4387 
Q 3406 4025 3406 3419 
Q 3406 3131 3298 2873 
Q 3191 2616 2906 2266 
Q 2828 2175 2409 1742 
Q 1991 1309 1228 531 
z
" transform="scale(0.015625)"/>
       </defs>
       <use xlink:href="#DejaVuSans-30"/>
       <use xlink:href="#DejaVuSans-2e" x="63.623047"/>
       <use xlink:href="#DejaVuSans-32" x="95.410156"/>
      </g>
     </g>
    </g>
    <g id="xtick_3">
     <g id="line2d_3">
      <g>
       <use xlink:href="#m7d040346e9" x="210.651429" y="307.584" style="stroke: #000000; stroke-width: 0.8"/>
      </g>
     </g>
     <g id="text_3">
      <!-- 0.4 -->
      <g transform="translate(202.699866 322.182437)scale(0.1 -0.1)">
       <defs>
        <path id="DejaVuSans-34" d="M 2419 4116 
L 825 1625 
L 2419 1625 
L 2419 4116 
z
M 2253 4666 
L 3047 4666 
L 3047 1625 
L 3713 1625 
L 3713 1100 
L 3047 1100 
L 3047 0 
L 2419 0 
L 2419 1100 
L 313 1100 
L 313 1709 
L 2253 4666 
z
" transform="scale(0.015625)"/>
       </defs>
       <use xlink:href="#DejaVuSans-30"/>
       <use xlink:href="#DejaVuSans-2e" x="63.623047"/>
       <use xlink:href="#DejaVuSans-34" x="95.410156"/>
      </g>
     </g>
    </g>
    <g id="xtick_4">
     <g id="line2d_4">
      <g>
       <use xlink:href="#m7d040346e9" x="278.674286" y="307.584" style="stroke: #000000; stroke-width: 0.8"/>
      </g>
     </g>
     <g id="text_4">
      <!-- 0.6 -->
      <g transform="translate(270.722723 322.182437)scale(0.1 -0.1)">
       <defs>
        <path id="DejaVuSans-36" d="M 2113 2584 
Q 1688 2584 1439 2293 
Q 1191 2003 1191 1497 
Q 1191 994 1439 701 
Q 1688 409 2113 409 
Q 2538 409 2786 701 
Q 3034 994 3034 1497 
Q 3034 2003 2786 2293 
Q 2538 2584 2113 2584 
z
M 3366 4563 
L 3366 3988 
Q 3128 4100 2886 4159 
Q 2644 4219 2406 4219 
Q 1781 4219 1451 3797 
Q 1122 3375 1075 2522 
Q 1259 2794 1537 2939 
Q 1816 3084 2150 3084 
Q 2853 3084 3261 2657 
Q 3669 2231 3669 1497 
Q 3669 778 3244 343 
Q 2819 -91 2113 -91 
Q 1303 -91 875 529 
Q 447 1150 447 2328 
Q 447 3434 972 4092 
Q 1497 4750 2381 4750 
Q 2619 4750 2861 4703 
Q 3103 4656 3366 4563 
z
" transform="scale(0.015625)"/>
       </defs>
       <use xlink:href="#DejaVuSans-30"/>
       <use xlink:href="#DejaVuSans-2e" x="63.623047"/>
       <use xlink:href="#DejaVuSans-36" x="95.410156"/>
      </g>
     </g>
    </g>
    <g id="xtick_5">
     <g id="line2d_5">
      <g>
       <use xlink:href="#m7d040346e9" x="346.697143" y="307.584" style="stroke: #000000; stroke-width: 0.8"/>
      </g>
     </g>
     <g id="text_5">
      <!-- 0.8 -->
      <g transform="translate(338.74558 322.182437)scale(0.1 -0.1)">
       <defs>
        <path id="DejaVuSans-38" d="M 2034 2216 
Q 1584 2216 1326 1975 
Q 1069 1734 1069 1313 
Q 1069 891 1326 650 
Q 1584 409 2034 409 
Q 2484 409 2743 651 
Q 3003 894 3003 1313 
Q 3003 1734 2745 1975 
Q 2488 2216 2034 2216 
z
M 1403 2484 
Q 997 2584 770 2862 
Q 544 3141 544 3541 
Q 544 4100 942 4425 
Q 1341 4750 2034 4750 
Q 2731 4750 3128 4425 
Q 3525 4100 3525 3541 
Q 3525 3141 3298 2862 
Q 3072 2584 2669 2484 
Q 3125 2378 3379 2068 
Q 3634 1759 3634 1313 
Q 3634 634 3220 271 
Q 2806 -91 2034 -91 
Q 1263 -91 848 271 
Q 434 634 434 1313 
Q 434 1759 690 2068 
Q 947 2378 1403 2484 
z
M 1172 3481 
Q 1172 3119 1398 2916 
Q 1625 2713 2034 2713 
Q 2441 2713 2670 2916 
Q 2900 3119 2900 3481 
Q 2900 3844 2670 4047 
Q 2441 4250 2034 4250 
Q 1625 4250 1398 4047 
Q 1172 3844 1172 3481 
z
" transform="scale(0.015625)"/>
       </defs>
       <use xlink:href="#DejaVuSans-30"/>
       <use xlink:href="#DejaVuSans-2e" x="63.623047"/>
       <use xlink:href="#DejaVuSans-38" x="95.410156"/>
      </g>
     </g>
    </g>
    <g id="xtick_6">
     <g id="line2d_6">
      <g>
       <use xlink:href="#m7d040346e9" x="414.72" y="307.584" style="stroke: #000000; stroke-width: 0.8"/>
      </g>
     </g>
     <g id="text_6">
      <!-- 1.0 -->
      <g transform="translate(406.768438 322.182437)scale(0.1 -0.1)">
       <defs>
        <path id="DejaVuSans-31" d="M 794 531 
L 1825 531 
L 1825 4091 
L 703 3866 
L 703 4441 
L 1819 4666 
L 2450 4666 
L 2450 531 
L 3481 531 
L 3481 0 
L 794 0 
L 794 531 
z
" transform="scale(0.015625)"/>
       </defs>
       <use xlink:href="#DejaVuSans-31"/>
       <use xlink:href="#DejaVuSans-2e" x="63.623047"/>
       <use xlink:href="#DejaVuSans-30" x="95.410156"/>
      </g>
     </g>
    </g>
    <g id="text_7">
     <!-- False Positive Rate -->
     <g transform="translate(189.693594 335.860562)scale(0.1 -0.1)">
      <defs>
       <path id="DejaVuSans-46" d="M 628 4666 
L 3309 4666 
L 3309 4134 
L 1259 4134 
L 1259 2759 
L 3109 2759 
L 3109 2228 
L 1259 2228 
L 1259 0 
L 628 0 
L 628 4666 
z
" transform="scale(0.015625)"/>
       <path id="DejaVuSans-61" d="M 2194 1759 
Q 1497 1759 1228 1600 
Q 959 1441 959 1056 
Q 959 750 1161 570 
Q 1363 391 1709 391 
Q 2188 391 2477 730 
Q 2766 1069 2766 1631 
L 2766 1759 
L 2194 1759 
z
M 3341 1997 
L 3341 0 
L 2766 0 
L 2766 531 
Q 2569 213 2275 61 
Q 1981 -91 1556 -91 
Q 1019 -91 701 211 
Q 384 513 384 1019 
Q 384 1609 779 1909 
Q 1175 2209 1959 2209 
L 2766 2209 
L 2766 2266 
Q 2766 2663 2505 2880 
Q 2244 3097 1772 3097 
Q 1472 3097 1187 3025 
Q 903 2953 641 2809 
L 641 3341 
Q 956 3463 1253 3523 
Q 1550 3584 1831 3584 
Q 2591 3584 2966 3190 
Q 3341 2797 3341 1997 
z
" transform="scale(0.015625)"/>
       <path id="DejaVuSans-6c" d="M 603 4863 
L 1178 4863 
L 1178 0 
L 603 0 
L 603 4863 
z
" transform="scale(0.015625)"/>
       <path id="DejaVuSans-73" d="M 2834 3397 
L 2834 2853 
Q 2591 2978 2328 3040 
Q 2066 3103 1784 3103 
Q 1356 3103 1142 2972 
Q 928 2841 928 2578 
Q 928 2378 1081 2264 
Q 1234 2150 1697 2047 
L 1894 2003 
Q 2506 1872 2764 1633 
Q 3022 1394 3022 966 
Q 3022 478 2636 193 
Q 2250 -91 1575 -91 
Q 1294 -91 989 -36 
Q 684 19 347 128 
L 347 722 
Q 666 556 975 473 
Q 1284 391 1588 391 
Q 1994 391 2212 530 
Q 2431 669 2431 922 
Q 2431 1156 2273 1281 
Q 2116 1406 1581 1522 
L 1381 1569 
Q 847 1681 609 1914 
Q 372 2147 372 2553 
Q 372 3047 722 3315 
Q 1072 3584 1716 3584 
Q 2034 3584 2315 3537 
Q 2597 3491 2834 3397 
z
" transform="scale(0.015625)"/>
       <path id="DejaVuSans-65" d="M 3597 1894 
L 3597 1613 
L 953 1613 
Q 991 1019 1311 708 
Q 1631 397 2203 397 
Q 2534 397 2845 478 
Q 3156 559 3463 722 
L 3463 178 
Q 3153 47 2828 -22 
Q 2503 -91 2169 -91 
Q 1331 -91 842 396 
Q 353 884 353 1716 
Q 353 2575 817 3079 
Q 1281 3584 2069 3584 
Q 2775 3584 3186 3129 
Q 3597 2675 3597 1894 
z
M 3022 2063 
Q 3016 2534 2758 2815 
Q 2500 3097 2075 3097 
Q 1594 3097 1305 2825 
Q 1016 2553 972 2059 
L 3022 2063 
z
" transform="scale(0.015625)"/>
       <path id="DejaVuSans-20" transform="scale(0.015625)"/>
       <path id="DejaVuSans-50" d="M 1259 4147 
L 1259 2394 
L 2053 2394 
Q 2494 2394 2734 2622 
Q 2975 2850 2975 3272 
Q 2975 3691 2734 3919 
Q 2494 4147 2053 4147 
L 1259 4147 
z
M 628 4666 
L 2053 4666 
Q 2838 4666 3239 4311 
Q 3641 3956 3641 3272 
Q 3641 2581 3239 2228 
Q 2838 1875 2053 1875 
L 1259 1875 
L 1259 0 
L 628 0 
L 628 4666 
z
" transform="scale(0.015625)"/>
       <path id="DejaVuSans-6f" d="M 1959 3097 
Q 1497 3097 1228 2736 
Q 959 2375 959 1747 
Q 959 1119 1226 758 
Q 1494 397 1959 397 
Q 2419 397 2687 759 
Q 2956 1122 2956 1747 
Q 2956 2369 2687 2733 
Q 2419 3097 1959 3097 
z
M 1959 3584 
Q 2709 3584 3137 3096 
Q 3566 2609 3566 1747 
Q 3566 888 3137 398 
Q 2709 -91 1959 -91 
Q 1206 -91 779 398 
Q 353 888 353 1747 
Q 353 2609 779 3096 
Q 1206 3584 1959 3584 
z
" transform="scale(0.015625)"/>
       <path id="DejaVuSans-69" d="M 603 3500 
L 1178 3500 
L 1178 0 
L 603 0 
L 603 3500 
z
M 603 4863 
L 1178 4863 
L 1178 4134 
L 603 4134 
L 603 4863 
z
" transform="scale(0.015625)"/>
       <path id="DejaVuSans-74" d="M 1172 4494 
L 1172 3500 
L 2356 3500 
L 2356 3053 
L 1172 3053 
L 1172 1153 
Q 1172 725 1289 603 
Q 1406 481 1766 481 
L 2356 481 
L 2356 0 
L 1766 0 
Q 1100 0 847 248 
Q 594 497 594 1153 
L 594 3053 
L 172 3053 
L 172 3500 
L 594 3500 
L 594 4494 
L 1172 4494 
z
" transform="scale(0.015625)"/>
       <path id="DejaVuSans-76" d="M 191 3500 
L 800 3500 
L 1894 563 
L 2988 3500 
L 3597 3500 
L 2284 0 
L 1503 0 
L 191 3500 
z
" transform="scale(0.015625)"/>
       <path id="DejaVuSans-52" d="M 2841 2188 
Q 3044 2119 3236 1894 
Q 3428 1669 3622 1275 
L 4263 0 
L 3584 0 
L 2988 1197 
Q 2756 1666 2539 1819 
Q 2322 1972 1947 1972 
L 1259 1972 
L 1259 0 
L 628 0 
L 628 4666 
L 2053 4666 
Q 2853 4666 3247 4331 
Q 3641 3997 3641 3322 
Q 3641 2881 3436 2590 
Q 3231 2300 2841 2188 
z
M 1259 4147 
L 1259 2491 
L 2053 2491 
Q 2509 2491 2742 2702 
Q 2975 2913 2975 3322 
Q 2975 3731 2742 3939 
Q 2509 4147 2053 4147 
L 1259 4147 
z
" transform="scale(0.015625)"/>
      </defs>
      <use xlink:href="#DejaVuSans-46"/>
      <use xlink:href="#DejaVuSans-61" x="48.394531"/>
      <use xlink:href="#DejaVuSans-6c" x="109.673828"/>
      <use xlink:href="#DejaVuSans-73" x="137.457031"/>
      <use xlink:href="#DejaVuSans-65" x="189.556641"/>
      <use xlink:href="#DejaVuSans-20" x="251.080078"/>
      <use xlink:href="#DejaVuSans-50" x="282.867188"/>
      <use xlink:href="#DejaVuSans-6f" x="339.544922"/>
      <use xlink:href="#DejaVuSans-73" x="400.726562"/>
      <use xlink:href="#DejaVuSans-69" x="452.826172"/>
      <use xlink:href="#DejaVuSans-74" x="480.609375"/>
      <use xlink:href="#DejaVuSans-69" x="519.818359"/>
      <use xlink:href="#DejaVuSans-76" x="547.601562"/>
      <use xlink:href="#DejaVuSans-65" x="606.78125"/>
      <use xlink:href="#DejaVuSans-20" x="668.304688"/>
      <use xlink:href="#DejaVuSans-52" x="700.091797"/>
      <use xlink:href="#DejaVuSans-61" x="767.324219"/>
      <use xlink:href="#DejaVuSans-74" x="828.603516"/>
      <use xlink:href="#DejaVuSans-65" x="867.8125"/>
     </g>
    </g>
   </g>
   <g id="matplotlib.axis_2">
    <g id="ytick_1">
     <g id="line2d_7">
      <defs>
       <path id="md5637e262c" d="M 0 0 
L -3.5 0 
" style="stroke: #000000; stroke-width: 0.8"/>
      </defs>
      <g>
       <use xlink:href="#md5637e262c" x="57.6" y="307.584" style="stroke: #000000; stroke-width: 0.8"/>
      </g>
     </g>
     <g id="text_8">
      <!-- 0.0 -->
      <g transform="translate(34.696875 311.383219)scale(0.1 -0.1)">
       <use xlink:href="#DejaVuSans-30"/>
       <use xlink:href="#DejaVuSans-2e" x="63.623047"/>
       <use xlink:href="#DejaVuSans-30" x="95.410156"/>
      </g>
     </g>
    </g>
    <g id="ytick_2">
     <g id="line2d_8">
      <g>
       <use xlink:href="#md5637e262c" x="57.6" y="256.896" style="stroke: #000000; stroke-width: 0.8"/>
      </g>
     </g>
     <g id="text_9">
      <!-- 0.2 -->
      <g transform="translate(34.696875 260.695219)scale(0.1 -0.1)">
       <use xlink:href="#DejaVuSans-30"/>
       <use xlink:href="#DejaVuSans-2e" x="63.623047"/>
       <use xlink:href="#DejaVuSans-32" x="95.410156"/>
      </g>
     </g>
    </g>
    <g id="ytick_3">
     <g id="line2d_9">
      <g>
       <use xlink:href="#md5637e262c" x="57.6" y="206.208" style="stroke: #000000; stroke-width: 0.8"/>
      </g>
     </g>
     <g id="text_10">
      <!-- 0.4 -->
      <g transform="translate(34.696875 210.007219)scale(0.1 -0.1)">
       <use xlink:href="#DejaVuSans-30"/>
       <use xlink:href="#DejaVuSans-2e" x="63.623047"/>
       <use xlink:href="#DejaVuSans-34" x="95.410156"/>
      </g>
     </g>
    </g>
    <g id="ytick_4">
     <g id="line2d_10">
      <g>
       <use xlink:href="#md5637e262c" x="57.6" y="155.52" style="stroke: #000000; stroke-width: 0.8"/>
      </g>
     </g>
     <g id="text_11">
      <!-- 0.6 -->
      <g transform="translate(34.696875 159.319219)scale(0.1 -0.1)">
       <use xlink:href="#DejaVuSans-30"/>
       <use xlink:href="#DejaVuSans-2e" x="63.623047"/>
       <use xlink:href="#DejaVuSans-36" x="95.410156"/>
      </g>
     </g>
    </g>
    <g id="ytick_5">
     <g id="line2d_11">
      <g>
       <use xlink:href="#md5637e262c" x="57.6" y="104.832" style="stroke: #000000; stroke-width: 0.8"/>
      </g>
     </g>
     <g id="text_12">
      <!-- 0.8 -->
      <g transform="translate(34.696875 108.631219)scale(0.1 -0.1)">
       <use xlink:href="#DejaVuSans-30"/>
       <use xlink:href="#DejaVuSans-2e" x="63.623047"/>
       <use xlink:href="#DejaVuSans-38" x="95.410156"/>
      </g>
     </g>
    </g>
    <g id="ytick_6">
     <g id="line2d_12">
      <g>
       <use xlink:href="#md5637e262c" x="57.6" y="54.144" style="stroke: #000000; stroke-width: 0.8"/>
      </g>
     </g>
     <g id="text_13">
      <!-- 1.0 -->
      <g transform="translate(34.696875 57.943219)scale(0.1 -0.1)">
       <use xlink:href="#DejaVuSans-31"/>
       <use xlink:href="#DejaVuSans-2e" x="63.623047"/>
       <use xlink:href="#DejaVuSans-30" x="95.410156"/>
      </g>
     </g>
    </g>
    <g id="text_14">
     <!-- True Positive Rate -->
     <g transform="translate(28.617187 219.057687)rotate(-90)scale(0.1 -0.1)">
      <defs>
       <path id="DejaVuSans-54" d="M -19 4666 
L 3928 4666 
L 3928 4134 
L 2272 4134 
L 2272 0 
L 1638 0 
L 1638 4134 
L -19 4134 
L -19 4666 
z
" transform="scale(0.015625)"/>
       <path id="DejaVuSans-72" d="M 2631 2963 
Q 2534 3019 2420 3045 
Q 2306 3072 2169 3072 
Q 1681 3072 1420 2755 
Q 1159 2438 1159 1844 
L 1159 0 
L 581 0 
L 581 3500 
L 1159 3500 
L 1159 2956 
Q 1341 3275 1631 3429 
Q 1922 3584 2338 3584 
Q 2397 3584 2469 3576 
Q 2541 3569 2628 3553 
L 2631 2963 
z
" transform="scale(0.015625)"/>
       <path id="DejaVuSans-75" d="M 544 1381 
L 544 3500 
L 1119 3500 
L 1119 1403 
Q 1119 906 1312 657 
Q 1506 409 1894 409 
Q 2359 409 2629 706 
Q 2900 1003 2900 1516 
L 2900 3500 
L 3475 3500 
L 3475 0 
L 2900 0 
L 2900 538 
Q 2691 219 2414 64 
Q 2138 -91 1772 -91 
Q 1169 -91 856 284 
Q 544 659 544 1381 
z
M 1991 3584 
L 1991 3584 
z
" transform="scale(0.015625)"/>
      </defs>
      <use xlink:href="#DejaVuSans-54"/>
      <use xlink:href="#DejaVuSans-72" x="46.333984"/>
      <use xlink:href="#DejaVuSans-75" x="87.447266"/>
      <use xlink:href="#DejaVuSans-65" x="150.826172"/>
      <use xlink:href="#DejaVuSans-20" x="212.349609"/>
      <use xlink:href="#DejaVuSans-50" x="244.136719"/>
      <use xlink:href="#DejaVuSans-6f" x="300.814453"/>
      <use xlink:href="#DejaVuSans-73" x="361.996094"/>
      <use xlink:href="#DejaVuSans-69" x="414.095703"/>
      <use xlink:href="#DejaVuSans-74" x="441.878906"/>
      <use xlink:href="#DejaVuSans-69" x="481.087891"/>
      <use xlink:href="#DejaVuSans-76" x="508.871094"/>
      <use xlink:href="#DejaVuSans-65" x="568.050781"/>
      <use xlink:href="#DejaVuSans-20" x="629.574219"/>
      <use xlink:href="#DejaVuSans-52" x="661.361328"/>
      <use xlink:href="#DejaVuSans-61" x="728.59375"/>
      <use xlink:href="#DejaVuSans-74" x="789.873047"/>
      <use xlink:href="#DejaVuSans-65" x="829.082031"/>
     </g>
    </g>
   </g>
   <g id="line2d_13">
    <path d="M 74.605714 307.584 
L 75.783779 303.10918 
L 75.919799 302.668321 
L 76.080783 302.037044 
L 76.241312 301.443023 
L 78.220442 294.23405 
L 78.353352 293.691773 
L 78.388518 293.582076 
L 78.509111 293.108101 
L 78.535568 292.998404 
L 78.657323 292.462336 
L 78.688466 292.352639 
L 78.810096 291.82278 
L 78.834107 291.713083 
L 78.943835 291.21841 
L 78.945204 291.21841 
L 78.9671 291.110783 
L 79.088978 290.572645 
L 79.223008 290.001392 
L 79.246562 289.891694 
L 79.357327 289.405301 
L 79.357576 289.405301 
L 79.38619 289.295604 
L 79.533075 288.703652 
L 79.560942 288.593955 
L 79.671915 288.128259 
L 79.672039 288.128259 
L 79.693603 288.018562 
L 79.804659 287.588052 
L 79.8239 287.480424 
L 79.944369 287.010589 
L 79.976135 286.900892 
L 80.09735 286.391731 
L 80.123517 286.282034 
L 80.233287 285.822547 
L 80.234572 285.822547 
L 80.2585 285.71285 
L 80.369431 285.201619 
L 80.369514 285.201619 
L 80.39535 285.091922 
L 80.516606 284.576552 
L 80.536678 284.466854 
L 80.536678 284.46582 
L 80.671827 283.866624 
L 80.698574 283.756927 
L 80.821697 283.154627 
L 80.843842 283.04493 
L 80.965638 282.508862 
L 80.991432 282.399165 
L 81.102197 281.931399 
L 81.102363 281.931399 
L 81.128405 281.821702 
L 81.23917 281.378773 
L 81.239502 281.378773 
L 81.256048 281.271146 
L 81.366274 280.764054 
L 81.366896 280.764054 
L 81.393395 280.654357 
L 81.515564 280.095522 
L 81.542934 279.985825 
L 81.65204 279.495292 
L 81.653616 279.495292 
L 81.678415 279.385594 
L 81.789055 278.936457 
L 81.789512 278.936457 
L 81.817338 278.826759 
L 81.92831 278.365203 
L 81.961403 278.255506 
L 82.07196 277.748415 
L 82.072416 277.748415 
L 82.094851 277.638717 
L 82.205367 277.119208 
L 82.205907 277.119208 
L 82.225273 277.01158 
L 82.336287 276.506559 
L 82.359344 276.396862 
L 82.470274 275.88977 
L 82.47044 275.88977 
L 82.492792 275.782143 
L 82.603516 275.312307 
L 82.629559 275.20261 
L 82.740324 274.759682 
L 82.76421 274.649984 
L 82.886421 274.091149 
L 82.911385 273.981452 
L 83.021279 273.441245 
L 83.02244 273.441245 
L 83.042885 273.331547 
L 83.15394 272.8762 
L 83.177619 272.766503 
L 83.300037 272.195249 
L 83.326038 272.084517 
L 83.436679 271.537066 
L 83.437011 271.537066 
L 83.460482 271.427369 
L 83.581241 270.940975 
L 83.612509 270.831278 
L 83.723565 270.351094 
L 83.749193 270.241396 
L 83.859543 269.740514 
L 83.86029 269.740514 
L 83.889567 269.630817 
L 84.01099 269.115447 
L 84.028987 269.00575 
L 84.139669 268.469682 
L 84.140043 268.469682 
L 84.169818 268.359985 
L 84.27967 267.914986 
L 84.280458 267.914986 
L 84.307164 267.805289 
L 84.417971 267.308547 
L 84.418137 267.308547 
L 84.439618 267.19885 
L 84.550176 266.664852 
L 84.550673 266.664852 
L 84.586047 266.555154 
L 84.69706 266.106017 
L 84.697143 266.106017 
L 84.721444 265.996319 
L 84.832334 265.5596 
L 84.832541 265.5596 
L 84.85282 265.449903 
L 84.963626 264.942812 
L 84.963792 264.942812 
L 84.991037 264.833114 
L 85.101429 264.332232 
L 85.101554 264.332232 
L 85.129131 264.222535 
L 85.240062 263.771328 
L 85.270376 263.66163 
L 85.270376 263.660595 
L 85.404156 263.094516 
L 85.430075 262.984819 
L 85.540632 262.4591 
L 85.541171 262.4591 
L 85.569993 262.349403 
L 85.680799 261.871288 
L 85.707713 261.761591 
L 85.823786 261.260709 
L 85.8507 261.151012 
L 85.961506 260.728781 
L 85.961755 260.728781 
L 85.982531 260.619084 
L 86.092508 260.242387 
L 86.093586 260.242387 
L 86.118841 260.13269 
L 86.229274 259.70011 
L 86.229565 259.70011 
L 86.254985 259.590413 
L 86.365833 259.106089 
L 86.366041 259.106089 
L 86.39735 258.996392 
L 86.508239 258.549324 
L 86.508405 258.549324 
L 86.5376 258.441697 
L 86.648572 258.027745 
L 86.648655 258.027745 
L 86.675071 257.918047 
L 86.795955 257.429584 
L 86.834024 257.319887 
L 86.945079 256.895586 
L 86.971039 256.785889 
L 87.081721 256.367797 
L 87.112533 256.2581 
L 87.22338 255.848288 
L 87.223629 255.848288 
L 87.344596 255.351545 
L 87.373168 255.241848 
L 87.483933 254.825826 
L 87.484016 254.825826 
L 87.511925 254.716129 
L 87.622773 254.264922 
L 87.646825 254.155224 
L 87.75788 253.720575 
L 87.757922 253.720575 
L 87.782762 253.610877 
L 87.893486 253.143112 
L 87.89361 253.143112 
L 87.919155 253.033415 
L 88.030169 252.590486 
L 88.064215 252.480789 
L 88.174856 252.027511 
L 88.175063 252.027511 
L 88.20206 251.917814 
L 88.322114 251.460397 
L 88.348986 251.3507 
L 88.459129 250.945027 
L 88.459378 250.945027 
L 88.49048 250.83533 
L 88.601535 250.363425 
L 88.601577 250.363425 
L 88.628034 250.253727 
L 88.738841 249.827357 
L 88.769943 249.71766 
L 88.880832 249.388568 
L 88.881039 249.388568 
L 88.914256 249.278871 
L 89.02469 248.813175 
L 89.02527 248.813175 
L 89.058487 248.703477 
L 89.169252 248.314363 
L 89.16946 248.314363 
L 89.194009 248.206735 
L 89.304774 247.803132 
L 89.30494 247.803132 
L 89.331854 247.693435 
L 89.44266 247.240157 
L 89.470445 247.13046 
L 89.5815 246.668904 
L 89.603313 246.559206 
L 89.72287 246.134906 
L 89.74941 246.025208 
L 89.868552 245.607117 
L 89.894844 245.49742 
L 90.005899 245.093816 
L 90.00594 245.093816 
L 90.034471 244.984119 
L 90.145402 244.566028 
L 90.180029 244.456331 
L 90.291043 244.075495 
L 90.291126 244.075495 
L 90.322062 243.965797 
L 90.433117 243.578752 
L 90.465256 243.471125 
L 90.576145 243.088219 
L 90.605091 242.978522 
L 90.715939 242.595617 
L 90.749073 242.485919 
L 90.86017 242.04713 
L 90.892392 241.937433 
L 91.002742 241.52969 
L 91.003488 241.52969 
L 91.040396 241.419993 
L 91.150954 241.028809 
L 91.151493 241.028809 
L 91.184461 240.919111 
L 91.303437 240.525857 
L 91.339889 240.41616 
L 91.449409 240.018766 
L 91.450902 240.018766 
L 91.480221 239.911138 
L 91.591194 239.515814 
L 91.591318 239.515814 
L 91.627977 239.406117 
L 91.738286 239.000444 
L 91.739074 239.000444 
L 91.77735 238.890747 
L 91.887451 238.449888 
L 91.888405 238.449888 
L 91.926682 238.340191 
L 92.045865 237.932448 
L 92.0841 237.822751 
L 92.194948 237.456403 
L 92.195196 237.456403 
L 92.22692 237.346706 
L 92.337478 236.930684 
L 92.337727 236.930684 
L 92.364889 236.823057 
L 92.475406 236.438082 
L 92.475654 236.438082 
L 92.512935 236.328384 
L 92.623908 235.943409 
L 92.624032 235.943409 
L 92.660069 235.833712 
L 92.770958 235.450806 
L 92.806373 235.341109 
L 92.917138 234.997529 
L 92.960267 234.887832 
L 93.070409 234.538042 
L 93.071363 234.538042 
L 93.09807 234.428345 
L 93.208337 234.03923 
L 93.209 234.03923 
L 93.240268 233.929533 
L 93.351075 233.544558 
L 93.351365 233.544558 
L 93.383172 233.43486 
L 93.49402 233.018839 
L 93.494269 233.018839 
L 93.53267 232.909141 
L 93.643186 232.57591 
L 93.643476 232.57591 
L 93.670473 232.466213 
L 93.780698 232.079168 
L 93.781528 232.079168 
L 93.813003 231.969471 
L 93.923768 231.63003 
L 93.962584 231.520333 
L 94.072934 231.145706 
L 94.07368 231.145706 
L 94.107934 231.036009 
L 94.218409 230.622057 
L 94.218989 230.622057 
L 94.254321 230.51236 
L 94.364423 230.177059 
L 94.365418 230.177059 
L 94.398345 230.067361 
L 94.509068 229.7362 
L 94.509276 229.7362 
L 94.547635 229.626503 
L 94.658524 229.270504 
L 94.65869 229.270504 
L 94.697381 229.160807 
L 94.808105 228.842064 
L 94.808478 228.842064 
L 94.841778 228.732366 
L 94.952792 228.394996 
L 94.989824 228.285298 
L 95.099552 227.952067 
L 95.100672 227.952067 
L 95.133557 227.84237 
L 95.24428 227.527766 
L 95.244654 227.527766 
L 95.273599 227.418069 
L 95.384613 227.091047 
L 95.384655 227.091047 
L 95.425792 226.98135 
L 95.534359 226.664677 
L 95.536765 226.664677 
L 95.582837 226.554979 
L 95.692026 226.20312 
L 95.693851 226.20312 
L 95.731464 226.093423 
L 95.841938 225.741564 
L 95.84256 225.741564 
L 95.881293 225.631866 
L 95.99239 225.300705 
L 96.03502 225.191008 
L 96.145661 224.845358 
L 96.145868 224.845358 
L 96.193143 224.735661 
L 96.303369 224.423127 
L 96.304116 224.423127 
L 96.347576 224.31343 
L 96.458423 223.949152 
L 96.505077 223.839455 
L 96.614266 223.502084 
L 96.616173 223.502084 
L 96.647856 223.392387 
L 96.757916 223.009481 
L 96.758828 223.009481 
L 96.797685 222.899784 
L 96.907538 222.58725 
L 96.908699 222.58725 
L 96.944777 222.477553 
L 97.055542 222.142252 
L 97.055874 222.142252 
L 97.088884 222.032554 
L 97.199898 221.684835 
L 97.199981 221.684835 
L 97.239252 221.574103 
L 97.350349 221.233627 
L 97.388459 221.12393 
L 97.499183 220.774141 
L 97.499556 220.774141 
L 97.533644 220.664443 
L 97.644658 220.322933 
L 97.644699 220.322933 
L 97.686334 220.213236 
L 97.797224 219.898632 
L 97.797431 219.898632 
L 97.839149 219.788935 
L 97.948919 219.476401 
L 97.950225 219.476401 
L 97.990306 219.366704 
L 98.101029 219.025194 
L 98.142374 218.915496 
L 98.260645 218.553288 
L 98.298756 218.443591 
L 98.409562 218.141406 
L 98.409831 218.141406 
L 98.445599 218.031709 
L 98.55541 217.712966 
L 98.556654 217.712966 
L 98.59265 217.603269 
L 98.702274 217.303154 
L 98.703746 217.303154 
L 98.747704 217.197596 
L 98.856354 216.895411 
L 98.858801 216.895411 
L 98.89687 216.785714 
L 99.007883 216.466971 
L 99.055532 216.357273 
L 99.165467 216.100623 
L 99.166463 216.100623 
L 99.216703 215.990926 
L 99.330806 215.688741 
L 99.368585 215.579044 
L 99.479142 215.235464 
L 99.479682 215.235464 
L 99.519907 215.125766 
L 99.630755 214.825651 
L 99.631004 214.825651 
L 99.677491 214.715954 
L 99.788297 214.40342 
L 99.788546 214.40342 
L 99.829891 214.293723 
L 99.940822 213.983259 
L 99.940988 213.983259 
L 99.982126 213.873562 
L 100.092766 213.585865 
L 100.093181 213.585865 
L 100.136931 213.476168 
L 100.247986 213.209169 
L 100.286968 213.099472 
L 100.397774 212.780729 
L 100.398023 212.780729 
L 100.431406 212.671031 
L 100.541922 212.366777 
L 100.542503 212.366777 
L 100.581816 212.25708 
L 100.692871 211.979732 
L 100.739607 211.870035 
L 100.849252 211.555431 
L 100.850704 211.555431 
L 100.890805 211.445734 
L 101.00157 211.184944 
L 101.001818 211.184944 
L 101.051457 211.075247 
L 101.162554 210.760643 
L 101.208419 210.650946 
L 101.319309 210.342552 
L 101.319474 210.342552 
L 101.360654 210.232855 
L 101.471709 209.974135 
L 101.526905 209.864437 
L 101.637877 209.578811 
L 101.638001 209.578811 
L 101.675324 209.469113 
L 101.785467 209.195905 
L 101.786296 209.195905 
L 101.837304 209.086208 
L 101.948359 208.823348 
L 101.982364 208.713651 
L 102.092382 208.409396 
L 102.093461 208.409396 
L 102.147827 208.299699 
L 102.257348 208.129979 
L 102.258882 208.129979 
L 102.297698 208.020282 
L 102.407758 207.745004 
L 102.40867 207.745004 
L 102.451591 207.635306 
L 102.561444 207.389005 
L 102.562646 207.389005 
L 102.62286 207.279308 
L 102.732961 207.014378 
L 102.733957 207.014378 
L 102.77609 206.904681 
L 102.892536 206.637682 
L 102.937738 206.527985 
L 103.051343 206.275474 
L 103.091548 206.165777 
L 103.202437 205.940173 
L 103.202562 205.940173 
L 103.246851 205.832546 
L 103.246851 205.830476 
L 103.356952 205.582105 
L 103.357948 205.582105 
L 103.40402 205.472407 
L 103.517854 205.199199 
L 103.575206 205.089502 
L 103.685681 204.855619 
L 103.686303 204.855619 
L 103.72545 204.745922 
L 103.835427 204.524457 
L 103.836256 204.524457 
L 103.889586 204.41476 
L 103.999729 204.195366 
L 104.000351 204.195366 
L 104.052478 204.085668 
L 104.163077 203.829018 
L 104.163451 203.829018 
L 104.216117 203.719321 
L 104.326799 203.458531 
L 104.327172 203.458531 
L 104.374779 203.348834 
L 104.485337 203.1253 
L 104.485502 203.1253 
L 104.536178 203.015603 
L 104.643626 202.742394 
L 104.647275 202.742394 
L 104.703839 202.632697 
L 104.813941 202.417442 
L 104.814894 202.417442 
L 104.878011 202.307745 
L 104.989066 202.057304 
L 105.051022 201.947607 
L 105.161787 201.709584 
L 105.161828 201.709584 
L 105.207279 201.599887 
L 105.318292 201.345307 
L 105.318375 201.345307 
L 105.371041 201.235609 
L 105.487446 200.97068 
L 105.548697 200.860983 
L 105.658923 200.618821 
L 105.659628 200.618821 
L 105.712211 200.509124 
L 105.823307 200.273171 
L 105.900316 200.163474 
L 106.009796 199.923382 
L 106.011289 199.923382 
L 106.06806 199.813685 
L 106.177166 199.604639 
L 106.179116 199.604639 
L 106.230579 199.494942 
L 106.341095 199.25071 
L 106.341427 199.25071 
L 106.395918 199.141013 
L 106.50689 198.934037 
L 106.507015 198.934037 
L 106.55487 198.824339 
L 106.664972 198.615294 
L 106.665884 198.615294 
L 106.711749 198.504562 
L 106.822805 198.294481 
L 106.866928 198.184784 
L 106.975744 198.004715 
L 106.978025 198.004715 
L 107.023475 197.895017 
L 107.133784 197.690111 
L 107.134572 197.690111 
L 107.201048 197.580414 
L 107.311854 197.379647 
L 107.373726 197.26995 
L 107.48474 197.108509 
L 107.537324 196.997777 
L 107.647715 196.787696 
L 107.64842 196.787696 
L 107.717384 196.677999 
L 107.827278 196.483441 
L 107.828398 196.483441 
L 107.883013 196.373744 
L 107.993736 196.141931 
L 107.99411 196.141931 
L 108.068299 196.032234 
L 108.179064 195.854234 
L 108.179354 195.854234 
L 108.249064 195.744537 
L 108.358004 195.541701 
L 108.359912 195.541701 
L 108.416062 195.432003 
L 108.527034 195.20433 
L 108.527117 195.20433 
L 108.582147 195.094633 
L 108.692082 194.918703 
L 108.693202 194.918703 
L 108.770626 194.809006 
L 108.87799 194.620658 
L 108.881142 194.620658 
L 108.953381 194.51096 
L 109.063193 194.318473 
L 109.064354 194.318473 
L 109.134603 194.208775 
L 109.24259 194.005939 
L 109.2457 194.005939 
L 109.30666 193.896242 
L 109.417715 193.678917 
L 109.417757 193.678917 
L 109.486637 193.56922 
L 109.597361 193.389151 
L 109.597568 193.389151 
L 109.66479 193.279453 
L 109.77568 193.1325 
L 109.775762 193.1325 
L 109.849163 193.022803 
L 109.95744 192.853083 
L 109.96026 192.853083 
L 110.032873 192.743386 
L 110.142518 192.53434 
L 110.14397 192.53434 
L 110.228816 192.424643 
L 110.33983 192.256992 
L 110.339913 192.256992 
L 110.416383 192.147295 
L 110.526692 191.994133 
L 110.527355 191.994133 
L 110.595697 191.884435 
L 110.705757 191.706436 
L 110.706669 191.706436 
L 110.782434 191.596739 
L 110.892577 191.451856 
L 110.893323 191.451856 
L 110.985137 191.342158 
L 111.094326 191.193136 
L 111.096233 191.193136 
L 111.154581 191.083438 
L 111.26435 190.938555 
L 111.265595 190.938555 
L 111.336383 190.828858 
L 111.447023 190.690184 
L 111.447397 190.690184 
L 111.525401 190.580487 
L 111.635751 190.433534 
L 111.636456 190.433534 
L 111.706083 190.323837 
L 111.815894 190.172744 
L 111.817097 190.172744 
L 111.887968 190.063047 
L 111.994047 189.914024 
L 111.998941 189.914024 
L 112.069812 189.804327 
L 112.17896 189.634607 
L 112.180909 189.634607 
L 112.24133 189.524909 
L 112.351929 189.373817 
L 112.352426 189.373817 
L 112.429684 189.26412 
L 112.536883 189.108888 
L 112.540698 189.108888 
L 112.653329 188.99919 
L 112.763762 188.885354 
L 112.764426 188.885354 
L 112.854331 188.775656 
L 112.96323 188.643192 
L 112.965262 188.643192 
L 113.049611 188.533494 
L 113.160666 188.386541 
L 113.160708 188.386541 
L 113.230128 188.276844 
L 113.338404 188.127822 
L 113.340934 188.127822 
L 113.403885 188.018124 
L 113.51465 187.900148 
L 113.514774 187.900148 
L 113.619858 187.790451 
L 113.732323 187.653847 
L 113.801287 187.544149 
L 113.9106 187.417894 
L 113.912342 187.417894 
L 114.00005 187.308197 
L 114.110566 187.173662 
L 114.110898 187.173662 
L 114.208849 187.063965 
L 114.315674 186.923221 
L 114.319945 186.923221 
L 114.416694 186.813524 
L 114.526836 186.710036 
L 114.527749 186.710036 
L 114.616742 186.600339 
L 114.727756 186.490642 
L 114.823924 186.380944 
L 114.934108 186.262968 
L 114.934979 186.262968 
L 115.034506 186.153271 
L 115.145478 186.031155 
L 115.254294 185.921458 
L 115.365349 185.801412 
L 115.463715 185.691714 
L 115.574065 185.590296 
L 115.574811 185.590296 
L 115.686364 185.480599 
L 115.686364 185.479564 
L 115.799866 185.360553 
L 115.895495 185.250856 
L 116.004767 185.141158 
L 116.006591 185.141158 
L 116.089655 185.031461 
L 116.200751 184.907275 
L 116.324331 184.797578 
L 116.434556 184.69409 
L 116.435427 184.69409 
L 116.516334 184.584393 
L 116.625523 184.487114 
L 116.627389 184.487114 
L 116.738652 184.377417 
L 116.851739 184.278069 
L 116.961841 184.168371 
L 117.07273 184.058674 
L 117.199212 183.948977 
L 117.304399 183.864117 
L 117.310143 183.864117 
L 117.473989 183.754419 
L 117.584173 183.653001 
L 117.585085 183.653001 
L 117.689174 183.543304 
L 117.781775 183.448095 
L 117.800187 183.448095 
L 117.937576 183.337363 
L 118.046723 183.276305 
L 118.048299 183.276305 
L 118.173827 183.166608 
L 118.281855 183.090027 
L 118.284883 183.090027 
L 118.447733 182.980329 
L 118.553522 182.88512 
L 118.55883 182.88512 
L 118.668558 182.775423 
L 118.778535 182.676075 
L 118.779613 182.676075 
L 118.924093 182.566377 
L 119.028803 182.481517 
L 119.035107 182.481517 
L 119.161547 182.37182 
L 119.272146 182.28282 
L 119.272436 182.28282 
L 119.413723 182.173123 
L 119.522829 182.082054 
L 119.524695 182.082054 
L 119.705958 181.972356 
L 119.809632 181.873008 
L 119.817034 181.873008 
L 119.994213 181.763311 
L 120.10448 181.659823 
L 120.105309 181.659823 
L 120.244066 181.550125 
L 120.350186 181.465265 
L 120.354997 181.465265 
L 120.464393 181.355568 
L 120.573334 181.293475 
L 120.575407 181.293475 
L 120.72731 181.183778 
L 120.837287 181.123755 
L 120.838365 181.123755 
L 121.002335 181.014058 
L 121.113059 180.937476 
L 121.113349 180.937476 
L 121.248871 180.827779 
L 121.359595 180.753268 
L 121.359926 180.753268 
L 121.553506 180.643571 
L 121.661949 180.587687 
L 121.664582 180.587687 
L 121.855777 180.47799 
L 121.963763 180.409688 
L 121.966874 180.409688 
L 122.156306 180.298956 
L 122.266117 180.248247 
L 122.267361 180.248247 
L 122.503696 180.138549 
L 122.607867 180.076456 
L 122.614668 180.076456 
L 122.781251 179.966759 
L 122.888615 179.925364 
L 122.892348 179.925364 
L 123.075311 179.815667 
L 123.183422 179.774272 
L 123.186366 179.774272 
L 123.378494 179.664574 
L 123.480758 179.600412 
L 123.48955 179.600412 
L 123.682134 179.490714 
L 123.787342 179.428622 
L 123.79323 179.428622 
L 123.962758 179.318924 
L 124.064938 179.260971 
L 124.073813 179.260971 
L 124.265982 179.150239 
L 124.374715 179.085042 
L 124.377079 179.085042 
L 124.577625 178.975344 
L 124.690091 178.907042 
L 124.887817 178.797345 
L 124.996446 178.743531 
L 124.998914 178.743531 
L 125.201617 178.633834 
L 125.310349 178.586229 
L 125.31234 178.586229 
L 125.518526 178.475497 
L 125.629374 178.416509 
L 125.629623 178.416509 
L 125.857249 178.305777 
L 125.972575 178.257138 
L 126.188673 178.14744 
L 126.301055 178.079138 
L 126.537431 177.969441 
L 126.643427 177.907348 
L 126.648528 177.907348 
L 126.814032 177.797651 
L 126.921977 177.729349 
L 126.924756 177.729349 
L 127.139236 177.619652 
L 127.246227 177.576187 
L 127.249918 177.576187 
L 127.477896 177.465455 
L 127.592829 177.398187 
L 127.850562 177.28849 
L 127.954526 177.236746 
L 127.961575 177.236746 
L 128.235191 177.127049 
L 128.342473 177.064956 
L 128.346288 177.064956 
L 128.594731 176.955259 
L 128.705372 176.897306 
L 128.705828 176.897306 
L 128.978697 176.787608 
L 129.08913 176.729655 
L 129.089794 176.729655 
L 129.347692 176.619958 
L 129.45852 176.555795 
L 129.458665 176.555795 
L 129.734354 176.446098 
L 129.844745 176.396424 
L 129.845202 176.396424 
L 130.111601 176.286727 
L 130.222615 176.237052 
L 130.222657 176.237052 
L 130.626321 176.12632 
L 130.734929 176.08803 
L 130.737376 176.08803 
L 131.048189 175.978332 
L 131.158954 175.928658 
L 131.159203 175.928658 
L 131.5243 175.818961 
L 131.635273 175.761008 
L 131.989256 175.65131 
L 132.099067 175.599566 
L 132.100353 175.599566 
L 132.489917 175.489869 
L 132.598691 175.433986 
L 132.601014 175.433986 
L 132.932272 175.324288 
L 133.042415 175.293242 
L 133.043327 175.293242 
L 133.489538 175.183545 
L 133.599889 175.13801 
L 133.600635 175.13801 
L 133.931976 175.028313 
L 133.931976 175.027278 
L 134.044524 174.991057 
L 134.403235 174.88136 
L 134.514995 174.848244 
L 134.948227 174.738546 
L 135.058619 174.70543 
L 135.059324 174.70543 
L 135.470535 174.595733 
L 135.578936 174.550198 
L 135.58159 174.550198 
L 136.0018 174.440501 
L 136.0018 174.439466 
L 136.114722 174.394966 
L 136.659547 174.285269 
L 136.771204 174.256292 
L 137.139017 174.14556 
L 137.245864 174.115549 
L 137.250114 174.115549 
L 137.679987 174.005851 
L 137.79013 173.968596 
L 137.791042 173.968596 
L 138.189522 173.858898 
L 138.299292 173.825782 
L 138.300577 173.825782 
L 138.714194 173.716085 
L 138.821434 173.680899 
L 138.82529 173.680899 
L 139.153065 173.571202 
L 139.264825 173.538086 
L 139.681884 173.428388 
L 139.781701 173.391133 
L 139.792068 173.391133 
L 140.244749 173.280401 
L 140.343073 173.231761 
L 140.355804 173.231761 
L 140.740102 173.122064 
L 140.740102 173.121029 
L 140.852235 173.097227 
L 141.306782 172.98753 
L 141.414146 172.956483 
L 141.417837 172.956483 
L 141.773438 172.846786 
L 141.864256 172.819879 
L 141.884535 172.819879 
L 142.378934 172.710182 
L 142.485883 172.679135 
L 142.489989 172.679135 
L 142.897095 172.569438 
L 143.004293 172.538392 
L 143.00815 172.538392 
L 143.501719 172.428695 
L 143.613169 172.412136 
L 144.040822 172.302439 
L 144.147233 172.275532 
L 144.151836 172.275532 
L 144.462007 172.165835 
L 144.574327 172.12651 
L 144.984709 172.015777 
L 145.092447 171.983696 
L 145.095806 171.983696 
L 145.543344 171.873999 
L 145.647204 171.830534 
L 145.654441 171.830534 
L 146.046452 171.720837 
L 146.147928 171.68979 
L 146.157383 171.68979 
L 146.580952 171.580093 
L 146.675046 171.544907 
L 146.692048 171.544907 
L 147.156258 171.43521 
L 147.156258 171.434175 
L 147.268225 171.414512 
L 147.677239 171.304815 
L 147.787008 171.284117 
L 147.788335 171.284117 
L 148.125192 171.17442 
L 148.202657 171.153723 
L 148.236268 171.153723 
L 148.650361 171.04299 
L 148.762785 171.008839 
L 149.269334 170.899142 
L 149.380846 170.874305 
L 150.070317 170.764608 
L 150.070317 170.763573 
L 150.185685 170.733561 
L 150.75757 170.623864 
L 150.869268 170.613515 
L 151.567821 170.503818 
L 151.670002 170.472772 
L 151.678918 170.472772 
L 152.177381 170.363074 
L 152.266872 170.340307 
L 152.288436 170.340307 
L 152.663818 170.23061 
L 152.767284 170.205773 
L 152.774914 170.205773 
L 153.324965 170.096075 
L 153.436601 170.069169 
L 154.069301 169.959471 
L 154.180854 169.934634 
L 154.773701 169.824937 
L 154.882019 169.79596 
L 154.884798 169.79596 
L 155.348261 169.686263 
L 155.459855 169.661426 
L 155.895367 169.550694 
L 156.0041 169.531031 
L 156.006423 169.531031 
L 156.626225 169.421334 
L 156.733299 169.394427 
L 156.736949 169.394427 
L 157.205098 169.28473 
L 157.316733 169.257823 
L 157.852104 169.148125 
L 157.952999 169.121219 
L 157.962745 169.121219 
L 158.461622 169.011521 
L 158.572387 168.982545 
L 158.572719 168.982545 
L 159.082711 168.872847 
L 159.185306 168.831452 
L 159.193807 168.831452 
L 159.638319 168.721755 
L 159.748876 168.701057 
L 159.749415 168.701057 
L 160.250926 168.59136 
L 160.362251 168.568593 
L 161.044631 168.458896 
L 161.155977 168.427849 
L 161.6296 168.318152 
L 161.726762 168.291245 
L 161.740655 168.291245 
L 162.200634 168.181548 
L 162.302234 168.146362 
L 162.311689 168.146362 
L 162.760596 168.036665 
L 162.867214 168.003548 
L 162.87161 168.003548 
L 163.426596 167.893851 
L 163.426596 167.892816 
L 163.538149 167.869014 
L 163.959644 167.759317 
L 164.070119 167.736549 
L 164.0707 167.736549 
L 164.542166 167.626852 
L 164.542166 167.625817 
L 164.653678 167.606155 
L 165.061239 167.496457 
L 165.170097 167.46955 
L 165.172295 167.46955 
L 165.533203 167.359853 
L 165.638909 167.326737 
L 165.644134 167.326737 
L 166.151057 167.21704 
L 166.262029 167.167365 
L 166.262112 167.167365 
L 166.66109 167.057668 
L 166.77368 167.018343 
L 167.126046 166.908646 
L 167.237267 166.887948 
L 167.675101 166.778251 
L 167.771684 166.749274 
L 167.786198 166.749274 
L 168.119944 166.639577 
L 168.225775 166.598182 
L 168.231 166.598182 
L 168.577643 166.488484 
L 168.688491 166.43674 
L 168.68874 166.43674 
L 169.074302 166.327043 
L 169.185668 166.287718 
L 169.712413 166.17802 
L 169.815258 166.163532 
L 169.82351 166.163532 
L 170.244964 166.0528 
L 170.34586 166.026928 
L 170.355895 166.026928 
L 170.75338 165.917231 
L 170.855395 165.879975 
L 170.864186 165.879975 
L 171.321056 165.770278 
L 171.427922 165.741301 
L 171.432111 165.741301 
L 171.835028 165.631604 
L 171.937831 165.592278 
L 171.946125 165.592278 
L 172.357087 165.482581 
L 172.468619 165.461884 
L 172.923021 165.352186 
L 173.032625 165.325279 
L 173.034118 165.325279 
L 173.419203 165.215582 
L 173.518108 165.180396 
L 173.5303 165.180396 
L 173.965439 165.070699 
L 174.05435 165.056211 
L 174.076536 165.056211 
L 174.423055 164.946513 
L 174.532493 164.915467 
L 174.533903 164.915467 
L 174.949178 164.80577 
L 175.058906 164.778863 
L 175.060109 164.778863 
L 175.467878 164.669166 
L 175.57603 164.636049 
L 175.578975 164.636049 
L 175.99989 164.526352 
L 176.107337 164.493236 
L 176.110945 164.493236 
L 176.50561 164.383539 
L 176.597631 164.350423 
L 176.616686 164.350423 
L 177.040898 164.23969 
L 177.141129 164.19933 
L 177.151912 164.19933 
L 177.5941 164.089633 
L 177.695493 164.068935 
L 177.705197 164.068935 
L 178.086924 163.959238 
L 178.193873 163.932331 
L 178.19802 163.932331 
L 178.792112 163.822634 
L 178.873434 163.801936 
L 178.903209 163.801936 
L 179.279959 163.692239 
L 179.385167 163.665332 
L 179.391035 163.665332 
L 179.933642 163.5546 
L 180.018841 163.532868 
L 180.04449 163.532868 
L 180.521306 163.42317 
L 180.631075 163.390054 
L 180.63232 163.390054 
L 181.089603 163.279322 
L 181.202069 163.247241 
L 181.63642 163.137543 
L 181.731053 163.108567 
L 181.747516 163.108567 
L 182.137039 162.99887 
L 182.248136 162.974032 
L 182.602285 162.8633 
L 182.714419 162.839498 
L 183.053971 162.729801 
L 183.157395 162.690475 
L 183.165026 162.690475 
L 183.466944 162.579743 
L 183.579721 162.539383 
L 184.109327 162.429686 
L 184.220921 162.398639 
L 184.5426 162.288942 
L 184.651416 162.239268 
L 184.653655 162.239268 
L 185.142124 162.128536 
L 185.254341 162.096454 
L 185.635818 161.985722 
L 185.728502 161.96192 
L 185.746873 161.96192 
L 186.219003 161.852223 
L 186.330515 161.819107 
L 186.686447 161.709409 
L 186.795056 161.663875 
L 186.797461 161.663875 
L 187.189596 161.554177 
L 187.30146 161.516922 
L 187.706306 161.406189 
L 187.805667 161.369969 
L 187.817278 161.369969 
L 188.300771 161.260271 
L 188.403076 161.231295 
L 188.411867 161.231295 
L 188.769541 161.121598 
L 188.875454 161.086412 
L 188.880555 161.086412 
L 189.310386 160.976714 
L 189.417751 160.935319 
L 189.421462 160.935319 
L 189.811565 160.824587 
L 189.923264 160.788366 
L 190.297277 160.678669 
L 190.404517 160.637274 
L 190.408249 160.637274 
L 190.79773 160.527577 
L 190.79773 160.526542 
L 190.909366 160.49653 
L 191.361632 160.386833 
L 191.453777 160.355786 
L 191.472687 160.355786 
L 192.024438 160.246089 
L 192.131596 160.204694 
L 192.135494 160.204694 
L 192.563002 160.094997 
L 192.668293 160.053602 
L 192.674078 160.053602 
L 193.089789 159.943904 
L 193.184754 159.908718 
L 193.200886 159.908718 
L 193.583815 159.799021 
L 193.695368 159.772114 
L 194.107823 159.662417 
L 194.21809 159.625161 
L 194.21892 159.625161 
L 194.679977 159.515464 
L 194.679977 159.514429 
L 194.792691 159.469929 
L 195.235461 159.360232 
L 195.325989 159.331255 
L 195.34635 159.331255 
L 195.744623 159.220523 
L 195.858208 159.182233 
L 196.206759 159.072535 
L 196.312547 159.047698 
L 196.317814 159.047698 
L 196.710115 158.938001 
L 196.818931 158.913164 
L 196.82117 158.913164 
L 197.19875 158.803467 
L 197.310261 158.760002 
L 197.688587 158.64927 
L 197.792593 158.608909 
L 197.799684 158.608909 
L 198.171167 158.499212 
L 198.282928 158.466096 
L 198.624802 158.356399 
L 198.731047 158.333631 
L 198.735899 158.333631 
L 199.010136 158.223934 
L 199.010136 158.222899 
L 199.122021 158.184609 
L 199.492053 158.074911 
L 199.603606 158.050074 
L 199.962607 157.940377 
L 200.052305 157.923819 
L 200.073455 157.923819 
L 200.423623 157.814122 
L 200.535549 157.787215 
L 200.989557 157.677517 
L 201.101359 157.640262 
L 201.372279 157.530565 
L 201.372279 157.52953 
L 201.484661 157.499518 
L 202.003485 157.389821 
L 202.115619 157.356705 
L 202.563696 157.245973 
L 202.635604 157.230449 
L 202.674793 157.230449 
L 203.06697 157.120752 
L 203.168155 157.093845 
L 203.177901 157.093845 
L 203.620877 156.983113 
L 203.734732 156.953102 
L 204.245345 156.842369 
L 204.351652 156.812358 
L 204.356421 156.812358 
L 204.848374 156.702661 
L 204.948232 156.671614 
L 204.959305 156.671614 
L 205.351523 156.561917 
L 205.462578 156.53708 
L 205.996456 156.427383 
L 206.09478 156.406685 
L 206.107511 156.406685 
L 206.61742 156.296988 
L 206.723167 156.255593 
L 206.728268 156.255593 
L 207.233926 156.145895 
L 207.345292 156.118988 
L 207.795858 156.009291 
L 207.908281 155.976175 
L 208.487859 155.866478 
L 208.5737 155.84992 
L 208.598914 155.84992 
L 209.213325 155.740222 
L 209.297115 155.705037 
L 209.324422 155.705037 
L 209.99459 155.594304 
L 210.107407 155.568432 
L 210.624656 155.458735 
L 210.734094 155.431828 
L 210.735711 155.431828 
L 211.309524 155.322131 
L 211.415479 155.297294 
L 211.420621 155.297294 
L 212.01521 155.187597 
L 212.127053 155.148271 
L 212.583839 155.038574 
L 212.691038 155.011667 
L 212.694521 155.011667 
L 213.065093 154.90197 
L 213.175671 154.870923 
L 213.176148 154.870923 
L 213.64666 154.760191 
L 213.758172 154.740529 
L 214.23843 154.630831 
L 214.329911 154.612203 
L 214.349526 154.612203 
L 214.856781 154.502506 
L 214.966551 154.46525 
L 214.967795 154.46525 
L 215.353544 154.355553 
L 215.465221 154.318298 
L 215.950455 154.2086 
L 216.054378 154.173414 
L 216.061552 154.173414 
L 216.493 154.063717 
L 216.601256 154.022322 
L 216.604097 154.022322 
L 217.162711 153.91159 
L 217.275819 153.881578 
L 217.67007 153.771881 
L 217.781705 153.744974 
L 218.24127 153.634242 
L 218.353652 153.598021 
L 218.779585 153.488324 
L 218.892797 153.43658 
L 219.359619 153.326883 
L 219.469596 153.289627 
L 219.470674 153.289627 
L 219.891962 153.17993 
L 220.003515 153.148883 
L 220.519686 153.039186 
L 220.519686 153.038151 
L 220.63128 153.026768 
L 221.023954 152.91707 
L 221.115809 152.900512 
L 221.13501 152.900512 
L 221.536393 152.790815 
L 221.639527 152.763908 
L 221.647489 152.763908 
L 221.914615 152.654211 
L 222.026002 152.621095 
L 222.397755 152.510362 
L 222.510904 152.459653 
L 222.957427 152.349956 
L 223.066326 152.302352 
L 223.068461 152.302352 
L 223.631181 152.191619 
L 223.743315 152.167817 
L 224.207524 152.05812 
L 224.319284 152.022934 
L 224.848932 151.913237 
L 224.953145 151.88219 
L 224.959987 151.88219 
L 225.320689 151.772493 
L 225.417437 151.747656 
L 225.431703 151.747656 
L 225.78353 151.636924 
L 225.878329 151.600703 
L 225.894626 151.600703 
L 226.436342 151.489971 
L 226.546817 151.466169 
L 226.547356 151.466169 
L 226.964787 151.356471 
L 227.060084 151.323355 
L 227.075718 151.323355 
L 227.499785 151.213658 
L 227.605491 151.186751 
L 227.61084 151.186751 
L 228.079155 151.077054 
L 228.190811 151.050147 
L 228.5918 150.94045 
L 228.702814 150.899055 
L 228.702897 150.899055 
L 229.109858 150.789357 
L 229.221141 150.76659 
L 229.602515 150.656893 
L 229.714172 150.623777 
L 230.233784 150.513044 
L 230.339987 150.483033 
L 230.344839 150.483033 
L 230.7631 150.373336 
L 230.86893 150.344359 
L 230.874155 150.344359 
L 231.253145 150.234662 
L 231.35939 150.201546 
L 231.364242 150.201546 
L 231.678746 150.091848 
L 231.790216 150.054593 
L 232.272547 149.943861 
L 232.383603 149.922128 
L 232.754588 149.811396 
L 232.867468 149.768966 
L 233.250107 149.659269 
L 233.360457 149.624083 
L 233.361204 149.624083 
L 233.675708 149.514385 
L 233.783923 149.47713 
L 233.786805 149.47713 
L 234.220265 149.367432 
L 234.33217 149.323967 
L 234.694489 149.21427 
L 234.806415 149.172875 
L 235.104705 149.062143 
L 235.208959 149.030062 
L 235.215801 149.030062 
L 235.663215 148.920364 
L 235.768755 148.887248 
L 235.774312 148.887248 
L 236.09682 148.777551 
L 236.208788 148.734086 
L 236.575005 148.624389 
L 236.682659 148.589203 
L 236.686101 148.589203 
L 237.054226 148.478471 
L 237.159766 148.452599 
L 237.165281 148.452599 
L 237.56936 148.342901 
L 237.675936 148.299436 
L 237.680456 148.299436 
L 238.100044 148.189739 
L 238.100044 148.188704 
L 238.212592 148.152484 
L 238.549428 148.042786 
L 238.66067 148.022089 
L 239.211924 147.912391 
L 239.320823 147.883415 
L 239.322979 147.883415 
L 239.730085 147.773718 
L 239.82252 147.742671 
L 239.841181 147.742671 
L 240.241859 147.632974 
L 240.353412 147.608137 
L 240.716104 147.498439 
L 240.805844 147.471533 
L 240.827201 147.471533 
L 241.176457 147.361835 
L 241.263004 147.32044 
L 241.287512 147.32044 
L 241.654102 147.210743 
L 241.765966 147.173487 
L 242.128886 147.06379 
L 242.232518 147.028604 
L 242.239983 147.028604 
L 242.613332 146.918907 
L 242.721236 146.898209 
L 242.724346 146.898209 
L 243.098608 146.788512 
L 243.204231 146.742977 
L 243.209705 146.742977 
L 243.514671 146.63328 
L 243.614654 146.583606 
L 243.625768 146.583606 
L 243.981783 146.473908 
L 244.092341 146.420095 
L 244.09288 146.420095 
L 244.417586 146.310397 
L 244.515247 146.281421 
L 244.528683 146.281421 
L 244.920445 146.171724 
L 245.023123 146.130328 
L 245.031459 146.130328 
L 245.329292 146.020631 
L 245.329292 146.019596 
L 245.441177 145.979236 
L 245.755661 145.869539 
L 245.868229 145.821934 
L 246.286573 145.712237 
L 246.396924 145.662563 
L 246.397629 145.662563 
L 246.802163 145.552865 
L 246.913633 145.532168 
L 247.309335 145.422471 
L 247.417363 145.366587 
L 247.420432 145.366587 
L 247.786814 145.25689 
L 247.896833 145.221704 
L 247.897911 145.221704 
L 248.231948 145.112007 
L 248.331848 145.070611 
L 248.343044 145.070611 
L 248.678242 144.960914 
L 248.782206 144.936077 
L 248.789297 144.936077 
L 249.204635 144.825345 
L 249.317369 144.795333 
L 249.660944 144.685636 
L 249.770838 144.646311 
L 249.772041 144.646311 
L 250.225385 144.536613 
L 250.337311 144.495218 
L 250.648249 144.385521 
L 250.756941 144.350335 
L 250.759221 144.350335 
L 251.144058 144.240638 
L 251.242652 144.207522 
L 251.255113 144.207522 
L 251.6374 144.097824 
L 251.748807 144.066778 
L 252.110297 143.957081 
L 252.217246 143.917755 
L 252.221269 143.917755 
L 252.591923 143.808058 
L 252.696468 143.770802 
L 252.70302 143.770802 
L 253.078443 143.661105 
L 253.185061 143.61557 
L 253.189457 143.61557 
L 253.599838 143.505873 
L 253.710064 143.470687 
L 253.710935 143.470687 
L 254.034024 143.359955 
L 254.146551 143.325804 
L 254.52523 143.216107 
L 254.631889 143.172642 
L 254.636285 143.172642 
L 255.026305 143.062945 
L 255.13085 143.033968 
L 255.137402 143.033968 
L 255.568975 142.924271 
L 255.674141 142.868387 
L 255.680071 142.868387 
L 256.106751 142.75869 
L 256.216023 142.719364 
L 256.217847 142.719364 
L 256.549479 142.609667 
L 256.549479 142.608632 
L 256.661197 142.578621 
L 256.953474 142.468924 
L 257.055033 142.431668 
L 257.06453 142.431668 
L 257.374182 142.321971 
L 257.477565 142.286785 
L 257.485217 142.286785 
L 257.873309 142.177087 
L 257.965827 142.15225 
L 257.984322 142.15225 
L 258.352986 142.042553 
L 258.460807 142.009437 
L 258.464041 142.009437 
L 258.875501 141.89974 
L 258.973618 141.872833 
L 258.986598 141.872833 
L 259.33631 141.763135 
L 259.432104 141.72174 
L 259.447386 141.72174 
L 259.736656 141.612043 
L 259.841263 141.576857 
L 259.847711 141.576857 
L 260.206837 141.466125 
L 260.317851 141.423695 
L 260.317892 141.423695 
L 260.667521 141.313998 
L 260.768499 141.285021 
L 260.778328 141.285021 
L 261.148277 141.175324 
L 261.238846 141.144277 
L 261.259249 141.144277 
L 261.567575 141.03458 
L 261.677261 140.986976 
L 261.67863 140.986976 
L 262.061061 140.877278 
L 262.172863 140.842092 
L 262.561225 140.732395 
L 262.67257 140.699279 
L 262.98413 140.589582 
L 263.090914 140.548187 
L 263.095185 140.548187 
L 263.481266 140.438489 
L 263.589916 140.403303 
L 263.592321 140.403303 
L 263.934113 140.293606 
L 263.934113 140.292571 
L 264.049108 140.248071 
L 264.419679 140.138374 
L 264.528536 140.109398 
L 264.530734 140.109398 
L 264.854859 139.998665 
L 264.956833 139.966584 
L 264.965915 139.966584 
L 265.251888 139.856887 
L 265.353696 139.815492 
L 265.362943 139.815492 
L 265.608401 139.705794 
L 265.608401 139.704759 
L 265.720991 139.666469 
L 266.100685 139.556772 
L 266.208215 139.513307 
L 266.211782 139.513307 
L 266.550836 139.403609 
L 266.662513 139.374633 
L 266.966111 139.26597 
L 266.966111 139.264936 
L 267.068209 139.240098 
L 267.077208 139.240098 
L 267.370791 139.130401 
L 267.48336 139.082797 
L 267.723551 138.973099 
L 267.823534 138.937914 
L 267.834565 138.937914 
L 268.256185 138.827181 
L 268.355131 138.788891 
L 268.367282 138.788891 
L 268.674322 138.679194 
L 268.785875 138.656426 
L 269.140646 138.546729 
L 269.245605 138.515683 
L 269.251743 138.515683 
L 269.612859 138.405985 
L 269.7145 138.36252 
L 269.723872 138.36252 
L 270.117169 138.252823 
L 270.117169 138.251788 
L 270.226524 138.199009 
L 270.228266 138.199009 
L 270.538001 138.089312 
L 270.644204 138.052056 
L 270.649098 138.052056 
L 270.976789 137.941324 
L 271.087471 137.911313 
L 271.087845 137.911313 
L 271.438842 137.801615 
L 271.541479 137.76229 
L 271.549898 137.76229 
L 271.859094 137.651558 
L 271.96932 137.602919 
L 271.970149 137.602919 
L 272.337154 137.492186 
L 272.442155 137.449756 
L 272.448126 137.449756 
L 272.761055 137.339024 
L 272.859296 137.300734 
L 272.872151 137.300734 
L 273.214337 137.191036 
L 273.325745 137.153781 
L 273.676203 137.043049 
L 273.785641 137.008898 
L 273.787258 137.008898 
L 274.251219 136.898165 
L 274.361403 136.855735 
L 274.362274 136.855735 
L 274.643105 136.745003 
L 274.752502 136.717061 
L 274.75416 136.717061 
L 275.204063 136.607364 
L 275.204063 136.606329 
L 275.31603 136.563899 
L 275.590765 136.454202 
L 275.698752 136.404528 
L 275.7018 136.404528 
L 276.076456 136.293796 
L 276.181664 136.253435 
L 276.187511 136.253435 
L 276.452999 136.143738 
L 276.5648 136.108552 
L 276.880963 135.998855 
L 276.981734 135.959529 
L 276.992019 135.959529 
L 277.274799 135.849832 
L 277.368644 135.804297 
L 277.385813 135.804297 
L 277.784687 135.6946 
L 277.889045 135.640786 
L 277.89568 135.640786 
L 278.194302 135.531089 
L 278.298556 135.485554 
L 278.305398 135.485554 
L 278.597177 135.375857 
L 278.709684 135.342741 
L 279.124586 135.233044 
L 279.23618 135.199928 
L 279.600282 135.09023 
L 279.707191 135.044696 
L 279.711379 135.044696 
L 279.972968 134.934998 
L 280.082945 134.881185 
L 280.084065 134.881185 
L 280.467782 134.771487 
L 280.566604 134.728022 
L 280.578879 134.728022 
L 280.8916 134.61729 
L 281.000582 134.57693 
L 281.002697 134.57693 
L 281.300448 134.467233 
L 281.407418 134.419628 
L 281.411503 134.419628 
L 281.722068 134.309931 
L 281.833538 134.270606 
L 282.152521 134.159873 
L 282.260466 134.096746 
L 282.263327 134.096746 
L 282.592926 133.987048 
L 282.704728 133.947723 
L 283.060329 133.838026 
L 283.166117 133.80284 
L 283.171426 133.80284 
L 283.497624 133.693143 
L 283.607436 133.649678 
L 283.608472 133.649678 
L 283.927995 133.53998 
L 284.039838 133.498585 
L 284.324235 133.388888 
L 284.434129 133.345423 
L 284.435249 133.345423 
L 284.824025 133.235726 
L 284.933505 133.194331 
L 284.935122 133.194331 
L 285.242452 133.084633 
L 285.350812 133.037029 
L 285.353549 133.037029 
L 285.647609 132.927332 
L 285.751697 132.904564 
L 285.758623 132.904564 
L 286.046338 132.794867 
L 286.152334 132.76796 
L 286.157435 132.76796 
L 286.431175 132.658263 
L 286.431175 132.657228 
L 286.544386 132.606519 
L 286.838985 132.496822 
L 286.946308 132.449217 
L 286.950041 132.449217 
L 287.350055 132.33952 
L 287.462147 132.289846 
L 287.764833 132.180148 
L 287.870621 132.128404 
L 287.875929 132.128404 
L 288.200511 132.018707 
L 288.311442 131.987661 
L 288.311525 131.987661 
L 288.688316 131.877963 
L 288.688316 131.876928 
L 288.800864 131.840708 
L 289.054575 131.73101 
L 289.16393 131.670987 
L 289.165671 131.670987 
L 289.464438 131.56129 
L 289.57568 131.532314 
L 289.89288 131.422616 
L 290.005013 131.366733 
L 290.323499 131.257035 
L 290.419915 131.22185 
L 290.434595 131.22185 
L 290.71269 131.112152 
L 290.71269 131.111117 
L 290.824948 131.083176 
L 291.09085 130.973478 
L 291.203439 130.925874 
L 291.556054 130.816177 
L 291.669515 130.758223 
L 291.971744 130.648526 
L 292.073925 130.619549 
L 292.082592 130.619549 
L 292.343808 130.509852 
L 292.449887 130.476736 
L 292.454905 130.476736 
L 292.70874 130.367039 
L 292.808059 130.333923 
L 292.819753 130.333923 
L 293.20967 130.224225 
L 293.321119 130.172481 
L 293.557122 130.062784 
L 293.661418 130.019319 
L 293.668219 130.019319 
L 293.986331 129.909622 
L 294.098133 129.872366 
L 294.389829 129.762669 
L 294.494581 129.727483 
L 294.500926 129.727483 
L 294.813481 129.617786 
L 294.922981 129.57846 
L 294.924495 129.57846 
L 295.253887 129.468763 
L 295.253887 129.467728 
L 295.366767 129.425298 
L 295.661615 129.315601 
L 295.774204 129.280415 
L 296.144609 129.170718 
L 296.246915 129.129323 
L 296.255665 129.129323 
L 296.590116 129.019625 
L 296.700259 128.972021 
L 296.701192 128.972021 
L 297.058721 128.862324 
L 297.168491 128.814719 
L 297.169652 128.814719 
L 297.500827 128.703987 
L 297.611799 128.647069 
L 297.611924 128.647069 
L 297.905444 128.537371 
L 298.010735 128.500116 
L 298.0165 128.500116 
L 298.340998 128.390418 
L 298.452054 128.351093 
L 298.452095 128.351093 
L 298.686315 128.241396 
L 298.686315 128.240361 
L 298.798821 128.20621 
L 299.107914 128.096512 
L 299.219819 128.055117 
L 299.480828 127.94542 
L 299.587985 127.899885 
L 299.591883 127.899885 
L 299.899711 127.790188 
L 300.002141 127.752932 
L 300.010808 127.752932 
L 300.313825 127.643235 
L 300.424798 127.591491 
L 300.424839 127.591491 
L 300.756844 127.481794 
L 300.867318 127.421771 
L 300.867899 127.421771 
L 301.111366 127.312074 
L 301.208363 127.262399 
L 301.222463 127.262399 
L 301.492844 127.152702 
L 301.492844 127.151667 
L 301.605019 127.096819 
L 301.886389 126.987121 
L 301.886389 126.986086 
L 301.998522 126.931238 
L 302.2959 126.821541 
L 302.401191 126.780145 
L 302.406997 126.780145 
L 302.67095 126.670448 
L 302.78159 126.635262 
L 302.781964 126.635262 
L 303.078221 126.525565 
L 303.185461 126.4821 
L 303.189152 126.4821 
L 303.433947 126.372403 
L 303.524848 126.331007 
L 303.545043 126.331007 
L 303.793321 126.22131 
L 303.902116 126.188194 
L 303.904418 126.188194 
L 304.14917 126.077462 
L 304.261719 126.043311 
L 304.475535 125.933614 
L 304.475535 125.932579 
L 304.587752 125.906707 
L 304.891847 125.797009 
L 304.99154 125.757684 
L 305.002902 125.757684 
L 305.348322 125.647987 
L 305.459813 125.606592 
L 305.733657 125.496894 
L 305.845438 125.463778 
L 306.093632 125.354081 
L 306.200582 125.300267 
L 306.204729 125.300267 
L 306.470714 125.19057 
L 306.579489 125.142965 
L 306.581769 125.142965 
L 306.854348 125.032233 
L 306.965155 124.991873 
L 306.965321 124.991873 
L 307.288223 124.881141 
L 307.40046 124.824222 
L 307.62201 124.71349 
L 307.726949 124.6752 
L 307.733086 124.6752 
L 308.052028 124.564468 
L 308.165198 124.513759 
L 308.423138 124.404061 
L 308.532991 124.364736 
L 308.534235 124.364736 
L 308.799639 124.255039 
L 308.905511 124.217783 
L 308.910612 124.217783 
L 309.194636 124.108086 
L 309.29437 124.056342 
L 309.305733 124.056342 
L 309.536386 123.946644 
L 309.536386 123.945609 
L 309.649847 123.882482 
L 309.939677 123.772785 
L 309.939677 123.77175 
L 310.054132 123.718971 
L 310.343506 123.609274 
L 310.450456 123.569948 
L 310.454603 123.569948 
L 310.750446 123.460251 
L 310.857728 123.425065 
L 310.861439 123.425065 
L 311.107789 123.314333 
L 311.218554 123.261554 
L 311.218885 123.261554 
L 311.478069 123.151857 
L 311.578094 123.106322 
L 311.589125 123.106322 
L 311.863611 122.996625 
L 311.863611 122.99559 
L 311.975869 122.934532 
L 312.257053 122.824835 
L 312.368668 122.768951 
L 312.638655 122.659254 
L 312.750353 122.595091 
L 313.044765 122.484359 
L 313.156546 122.443999 
L 313.376791 122.334302 
L 313.478868 122.286697 
L 313.48768 122.286697 
L 313.7586 122.177 
L 313.859288 122.121116 
L 313.869614 122.121116 
L 314.090024 122.011419 
L 314.090024 122.010384 
L 314.202655 121.974163 
L 314.467438 121.864466 
L 314.578202 121.83135 
L 314.578534 121.83135 
L 314.837221 121.721653 
L 314.945705 121.653351 
L 314.94811 121.653351 
L 315.255233 121.542619 
L 315.364173 121.491909 
L 315.366288 121.491909 
L 315.724253 121.382212 
L 315.805533 121.342887 
L 315.835349 121.342887 
L 316.06818 121.233189 
L 316.182532 121.200073 
L 316.44043 121.090376 
L 316.539957 121.051051 
L 316.551506 121.051051 
L 316.828792 120.941353 
L 316.940594 120.902028 
L 317.237142 120.791296 
L 317.344133 120.732308 
L 317.348031 120.732308 
L 317.590669 120.62261 
L 317.702927 120.564657 
L 317.924664 120.45496 
L 318.035471 120.388728 
L 318.035761 120.388728 
L 318.276989 120.27903 
L 318.387463 120.216937 
L 318.388044 120.216937 
L 318.753266 120.10724 
L 318.753266 120.106205 
L 318.864984 120.063775 
L 319.083114 119.954078 
L 319.186995 119.902334 
L 319.19421 119.902334 
L 319.499467 119.792637 
L 319.612057 119.738823 
L 319.933445 119.629126 
L 320.043464 119.552545 
L 320.044542 119.552545 
L 320.265616 119.442847 
L 320.375302 119.407661 
L 320.376712 119.407661 
L 320.662976 119.297964 
L 320.759683 119.233802 
L 320.774073 119.233802 
L 321.066474 119.124104 
L 321.176866 119.07443 
L 321.177322 119.07443 
L 321.44538 118.964733 
L 321.54441 118.927477 
L 321.556477 118.927477 
L 321.89719 118.81778 
L 322.005218 118.766036 
L 322.008038 118.766036 
L 322.242548 118.656339 
L 322.352525 118.610804 
L 322.353645 118.610804 
L 322.598273 118.501107 
L 322.705181 118.443153 
L 322.709328 118.443153 
L 322.955906 118.333456 
L 323.058957 118.275503 
L 323.066961 118.275503 
L 323.307774 118.164771 
L 323.41601 118.101643 
L 323.418871 118.101643 
L 323.651349 117.991946 
L 323.759708 117.933993 
L 323.762321 117.933993 
L 324.016778 117.824295 
L 324.125034 117.78497 
L 324.127874 117.78497 
L 324.378599 117.674238 
L 324.485797 117.625598 
L 324.489696 117.625598 
L 324.752861 117.515901 
L 324.862838 117.455878 
L 324.863957 117.455878 
L 325.091127 117.346181 
L 325.191152 117.298576 
L 325.202141 117.298576 
L 325.412059 117.188879 
L 325.524566 117.143344 
L 325.782382 117.033647 
L 325.89551 116.967415 
L 326.159878 116.857718 
L 326.2553 116.816322 
L 326.270851 116.816322 
L 326.536732 116.706625 
L 326.648347 116.650742 
L 326.907428 116.541044 
L 327.018877 116.499649 
L 327.324051 116.389952 
L 327.324051 116.388917 
L 327.436226 116.334068 
L 327.683508 116.224371 
L 327.791163 116.185046 
L 327.794605 116.185046 
L 328.027995 116.075348 
L 328.136811 116.019465 
L 328.139092 116.019465 
L 328.376131 115.909768 
L 328.485486 115.858024 
L 328.487228 115.858024 
L 328.662167 115.748326 
L 328.77571 115.688303 
L 329.031598 115.578606 
L 329.031598 115.577571 
L 329.143689 115.528932 
L 329.379236 115.419235 
L 329.491245 115.37163 
L 329.726792 115.261933 
L 329.832746 115.212259 
L 329.837805 115.212259 
L 330.092905 115.102561 
L 330.204271 115.065306 
L 330.427294 114.954574 
L 330.531548 114.901795 
L 330.538183 114.901795 
L 330.780655 114.792097 
L 330.889637 114.748632 
L 330.891752 114.748632 
L 331.148199 114.638935 
L 331.254734 114.591331 
L 331.259254 114.591331 
L 331.625347 114.481633 
L 331.73466 114.42368 
L 331.736444 114.42368 
L 332.015575 114.313983 
L 332.015575 114.312948 
L 332.127293 114.274657 
L 332.372336 114.16496 
L 332.484117 114.131844 
L 332.68597 114.022147 
L 332.794205 113.962124 
L 332.797067 113.962124 
L 333.00628 113.854496 
L 333.00628 113.852427 
L 333.113479 113.798613 
L 333.117377 113.798613 
L 333.375255 113.688916 
L 333.487284 113.641311 
L 333.66664 113.531614 
L 333.776327 113.4778 
L 333.777737 113.4778 
L 333.991387 113.368103 
L 334.103562 113.312219 
L 334.317213 113.202522 
L 334.415371 113.156987 
L 334.428268 113.156987 
L 334.688199 113.04729 
L 334.799088 112.985197 
L 334.799213 112.985197 
L 335.050269 112.8755 
L 335.162361 112.823756 
L 335.372486 112.714059 
L 335.480473 112.660245 
L 335.483583 112.660245 
L 335.741482 112.550548 
L 335.852371 112.502943 
L 335.852413 112.502943 
L 336.052295 112.393246 
L 336.052295 112.392211 
L 336.164636 112.331153 
L 336.387846 112.221456 
L 336.495998 112.149014 
L 336.498922 112.149014 
L 336.71506 112.038282 
L 336.825618 111.991713 
L 336.826054 111.991713 
L 337.039725 111.882015 
L 337.143357 111.83855 
L 337.150656 111.83855 
L 337.387695 111.727818 
L 337.497465 111.652272 
L 337.498668 111.652272 
L 337.747775 111.542575 
L 337.854268 111.50118 
L 337.858871 111.50118 
L 338.066467 111.391482 
L 338.173956 111.32732 
L 338.177564 111.32732 
L 338.356878 111.217622 
L 338.469095 111.157599 
L 338.704309 111.047902 
L 338.811923 111.014786 
L 338.815365 111.014786 
L 339.055556 110.905089 
L 339.162671 110.849205 
L 339.166632 110.849205 
L 339.416299 110.738473 
L 339.522917 110.679485 
L 339.527354 110.679485 
L 339.760537 110.569788 
L 339.865247 110.511834 
L 339.871633 110.511834 
L 340.053311 110.401102 
L 340.160012 110.340044 
L 340.164366 110.340044 
L 340.416418 110.230347 
L 340.519905 110.153766 
L 340.527494 110.153766 
L 340.718233 110.045104 
L 340.718233 110.044069 
L 340.802706 109.994395 
L 340.829329 109.994395 
L 341.011256 109.884697 
L 341.120777 109.814325 
L 341.122353 109.814325 
L 341.304984 109.704628 
L 341.412183 109.628047 
L 341.416081 109.628047 
L 341.624092 109.51835 
L 341.736889 109.43349 
L 341.966671 109.323792 
L 342.072335 109.245142 
L 342.077768 109.245142 
L 342.272508 109.135444 
L 342.272508 109.134409 
L 342.385056 109.100258 
L 342.608784 108.990561 
L 342.718844 108.930538 
L 342.719881 108.930538 
L 342.913108 108.820841 
L 343.024516 108.767027 
L 343.2329 108.65733 
L 343.343665 108.599377 
L 343.343872 108.599377 
L 343.54446 108.489679 
L 343.652094 108.433796 
L 343.655556 108.433796 
L 343.913517 108.323064 
L 344.027185 108.259936 
L 344.23277 108.150239 
L 344.344779 108.098495 
L 344.572239 107.988797 
L 344.572239 107.987763 
L 344.684455 107.930844 
L 344.897526 107.820112 
L 345.00489 107.761124 
L 345.008498 107.761124 
L 345.168611 107.651427 
L 345.273156 107.583125 
L 345.279667 107.583125 
L 345.475817 107.473427 
L 345.584053 107.427893 
L 345.586873 107.427893 
L 345.770126 107.318195 
L 345.880559 107.251963 
L 345.881223 107.251963 
L 346.057551 107.142266 
L 346.163879 107.078103 
L 346.168565 107.078103 
L 346.335728 106.968406 
L 346.444337 106.895964 
L 346.446763 106.895964 
L 346.622033 106.786267 
L 346.726412 106.724174 
L 346.73313 106.724174 
L 346.924678 106.614477 
L 347.033825 106.542035 
L 347.035774 106.542035 
L 347.203809 106.432338 
L 347.313454 106.378524 
L 347.314781 106.378524 
L 347.515369 106.268827 
L 347.624309 106.190176 
L 347.626465 106.190176 
L 347.82979 106.080479 
L 347.939975 106.024596 
L 347.940804 106.024596 
L 348.1038 105.914898 
L 348.215664 105.836247 
L 348.404889 105.72655 
L 348.517437 105.654109 
L 348.707243 105.544411 
L 348.8195 105.486458 
L 349.037049 105.376761 
L 349.146155 105.329156 
L 349.148105 105.329156 
L 349.331317 105.219459 
L 349.44175 105.157366 
L 349.442413 105.157366 
L 349.649678 105.047669 
L 349.76036 104.969018 
L 349.760774 104.969018 
L 349.958542 104.858286 
L 350.049195 104.784809 
L 350.069639 104.784809 
L 350.243769 104.675112 
L 350.356152 104.60888 
L 350.549731 104.499183 
L 350.662072 104.43709 
L 350.847067 104.327393 
L 350.959201 104.275649 
L 351.13358 104.165951 
L 351.241691 104.110068 
L 351.244676 104.110068 
L 351.445223 104.000371 
L 351.552131 103.946557 
L 351.556299 103.946557 
L 351.779467 103.83686 
L 351.890397 103.774767 
L 351.890522 103.774767 
L 352.061459 103.66507 
L 352.17156 103.605046 
L 352.172514 103.605046 
L 352.385045 103.495349 
L 352.48677 103.414629 
L 352.496142 103.414629 
L 352.681013 103.304931 
L 352.79128 103.249048 
L 352.791985 103.249048 
L 352.979261 103.138316 
L 353.091768 103.068979 
L 353.266976 102.959281 
L 353.377244 102.88684 
L 353.378032 102.88684 
L 353.58907 102.777143 
L 353.697471 102.71505 
L 353.700084 102.71505 
L 353.865339 102.605353 
L 353.974197 102.534981 
L 353.976436 102.534981 
L 354.208458 102.425283 
L 354.319554 102.352842 
L 354.550581 102.243145 
L 354.662797 102.187261 
L 354.881134 102.077564 
L 354.991961 101.992704 
L 354.992231 101.992704 
L 355.210692 101.883006 
L 355.318658 101.798146 
L 355.321789 101.798146 
L 355.583129 101.688449 
L 355.695677 101.616007 
L 355.887432 101.50631 
L 355.994962 101.456636 
L 355.998487 101.456636 
L 356.225678 101.346939 
L 356.337293 101.288985 
L 356.490481 101.179288 
L 356.603278 101.092358 
L 356.863499 100.982661 
L 356.973974 100.947475 
L 356.974575 100.947475 
L 357.19372 100.837778 
L 357.304112 100.769476 
L 357.304817 100.769476 
L 357.490932 100.658744 
L 357.599872 100.576988 
L 357.601821 100.576988 
L 357.796852 100.467291 
L 357.9094 100.394849 
L 358.126949 100.285152 
L 358.126949 100.284117 
L 358.240202 100.231338 
L 358.461193 100.121641 
L 358.571004 100.065757 
L 358.572269 100.065757 
L 358.794152 99.95813 
L 358.794152 99.95606 
L 358.906181 99.910525 
L 359.074444 99.800828 
L 359.183177 99.747014 
L 359.18554 99.747014 
L 359.469896 99.637317 
L 359.580496 99.575224 
L 359.580993 99.575224 
L 359.778222 99.465527 
L 359.879283 99.397225 
L 359.889319 99.397225 
L 360.088911 99.287528 
L 360.190263 99.223365 
L 360.199676 99.223365 
L 360.371111 99.113668 
L 360.477439 99.061924 
L 360.482166 99.061924 
L 360.614205 98.952227 
L 360.723187 98.881855 
L 360.72526 98.881855 
L 360.929912 98.772158 
L 361.03767 98.720414 
L 361.040926 98.720414 
L 361.243214 98.610716 
L 361.350392 98.542414 
L 361.354311 98.542414 
L 361.570574 98.432717 
L 361.680385 98.376834 
L 361.68165 98.376834 
L 361.882694 98.267136 
L 361.994392 98.205044 
L 362.156952 98.095346 
L 362.269334 98.029114 
L 362.486054 97.919417 
L 362.583009 97.863533 
L 362.597109 97.863533 
L 362.779036 97.753836 
L 362.886193 97.706231 
L 362.890132 97.706231 
L 363.119293 97.596534 
L 363.231053 97.528232 
L 363.425026 97.418535 
L 363.537056 97.325396 
L 363.746041 97.214664 
L 363.860891 97.155675 
L 364.074998 97.045978 
L 364.185058 96.963188 
L 364.186095 96.963188 
L 364.373827 96.85349 
L 364.479574 96.789328 
L 364.484924 96.789328 
L 364.695257 96.679631 
L 364.807556 96.619608 
L 365.011544 96.50991 
L 365.121895 96.418841 
L 365.122641 96.418841 
L 365.271558 96.308109 
L 365.380954 96.230493 
L 365.382655 96.230493 
L 365.590748 96.120796 
L 365.700352 96.062842 
L 365.701638 96.062842 
L 365.906414 95.953145 
L 366.012244 95.884843 
L 366.017469 95.884843 
L 366.205948 95.775146 
L 366.205948 95.774111 
L 366.320113 95.698565 
L 366.574529 95.588867 
L 366.684298 95.522635 
L 366.685625 95.522635 
L 366.852167 95.412938 
L 366.961688 95.319799 
L 366.963222 95.319799 
L 367.162814 95.210101 
L 367.265949 95.143869 
L 367.273911 95.143869 
L 367.44348 95.034172 
L 367.554162 94.951381 
L 367.554494 94.951381 
L 367.739033 94.841684 
L 367.848554 94.779591 
L 367.850129 94.779591 
L 368.063407 94.669894 
L 368.171352 94.605731 
L 368.174462 94.605731 
L 368.385417 94.494999 
L 368.495643 94.411174 
L 368.496493 94.411174 
L 368.655715 94.301477 
L 368.765734 94.212477 
L 368.766812 94.212477 
L 368.936547 94.10278 
L 369.043621 94.028269 
L 369.047602 94.028269 
L 369.224303 93.918571 
L 369.334882 93.83992 
L 369.3354 93.83992 
L 369.506918 93.730223 
L 369.611089 93.657782 
L 369.618014 93.657782 
L 369.806659 93.548084 
L 369.90631 93.492201 
L 369.917756 93.492201 
L 370.087946 93.382504 
L 370.194813 93.316271 
L 370.199022 93.316271 
L 370.389968 93.206574 
L 370.389968 93.205539 
L 370.502143 93.146551 
L 370.665989 93.036854 
L 370.778952 92.943714 
L 370.972158 92.834017 
L 371.078362 92.761576 
L 371.083255 92.761576 
L 371.277539 92.650844 
L 371.386729 92.589786 
L 371.388636 92.589786 
L 371.500189 92.480088 
L 371.500189 92.479053 
L 371.61309 92.389019 
L 371.740297 92.279322 
L 371.844842 92.192392 
L 371.851353 92.192392 
L 371.990939 92.082694 
L 372.099755 91.972997 
L 372.102035 91.972997 
L 372.23874 91.862265 
L 372.351682 91.768091 
L 372.51644 91.658394 
L 372.626417 91.573534 
L 372.627329 91.573534 
L 372.782508 91.462801 
L 372.897772 91.360348 
L 373.011046 91.250651 
L 373.119323 91.155442 
L 373.122143 91.155442 
L 373.265544 91.04471 
L 373.372038 90.960885 
L 373.376579 90.960885 
L 373.514278 90.851187 
L 373.625292 90.760118 
L 373.625375 90.760118 
L 373.751815 90.650421 
L 373.86088 90.555212 
L 373.862912 90.555212 
L 373.98591 90.445515 
L 374.09087 90.364794 
L 374.097007 90.364794 
L 374.240533 90.255097 
L 374.352583 90.155748 
L 374.500173 90.046051 
L 374.610855 89.932214 
L 374.61127 89.932214 
L 374.756144 89.822517 
L 374.756144 89.821482 
L 374.868795 89.743866 
L 375.002659 89.634169 
L 375.110085 89.528611 
L 375.113548 89.528611 
L 375.229994 89.418914 
L 375.229994 89.417879 
L 375.343268 89.309217 
L 375.467573 89.199519 
L 375.580246 89.118799 
L 375.70088 89.009101 
L 375.811562 88.895265 
L 375.811956 88.895265 
L 375.916604 88.785567 
L 375.916604 88.784532 
L 376.034917 88.667591 
L 376.178982 88.557894 
L 376.289913 88.444057 
L 376.290037 88.444057 
L 376.389066 88.33436 
L 376.499458 88.232942 
L 376.500163 88.232942 
L 376.585175 88.123244 
L 376.689969 88.032175 
L 376.696251 88.032175 
L 376.797499 87.922478 
L 376.905527 87.823129 
L 376.908596 87.823129 
L 377.039763 87.713432 
L 377.149865 87.607874 
L 377.15086 87.607874 
L 377.283562 87.498177 
L 377.388356 87.396759 
L 377.394576 87.396759 
L 377.492652 87.287061 
L 377.601882 87.167015 
L 377.603582 87.167015 
L 377.696391 87.057318 
L 377.806617 86.916574 
L 377.807467 86.916574 
L 377.934882 86.806877 
L 378.043822 86.722017 
L 378.045854 86.722017 
L 378.193465 86.61232 
L 378.305702 86.496413 
L 378.41373 86.386716 
L 378.523541 86.260461 
L 378.524785 86.260461 
L 378.642227 86.150763 
L 378.751789 86.055554 
L 378.753323 86.055554 
L 378.854177 85.945857 
L 378.854177 85.944822 
L 378.970126 85.823741 
L 379.101211 85.714044 
L 379.216828 85.602277 
L 379.319672 85.49258 
L 379.430271 85.380813 
L 379.430727 85.380813 
L 379.56994 85.271115 
L 379.56994 85.270081 
L 379.685474 85.161418 
L 379.786203 85.051721 
L 379.895517 84.944093 
L 379.8973 84.944093 
L 380.022413 84.834396 
L 380.13239 84.71642 
L 380.133427 84.71642 
L 380.259868 84.608792 
L 380.259868 84.606723 
L 380.366403 84.468049 
L 380.370964 84.468049 
L 380.463773 84.357317 
L 380.565498 84.238305 
L 380.574828 84.238305 
L 380.679995 84.128608 
L 380.79105 83.998213 
L 380.888089 83.888516 
L 380.996739 83.756051 
L 380.999185 83.756051 
L 381.094109 83.646354 
L 381.207818 83.51182 
L 381.326006 83.401088 
L 381.441665 83.288286 
L 381.546375 83.178588 
L 381.652329 83.058542 
L 381.657472 83.058542 
L 381.782668 82.948845 
L 381.889244 82.826729 
L 381.893765 82.826729 
L 382.014296 82.717032 
L 382.126823 82.547312 
L 382.242606 82.437614 
L 382.352873 82.296871 
L 382.353703 82.296871 
L 382.464509 82.187174 
L 382.572039 82.065058 
L 382.575606 82.065058 
L 382.668373 81.95536 
L 382.781585 81.849803 
L 382.869002 81.739071 
L 382.979891 81.61799 
L 382.980099 81.61799 
L 383.065733 81.508292 
L 383.174259 81.388246 
L 383.17683 81.388246 
L 383.281126 81.278549 
L 383.393176 81.18334 
L 383.495316 81.073643 
L 383.605127 80.955667 
L 383.606412 80.955667 
L 383.689766 80.845969 
L 383.800863 80.709365 
L 383.881852 80.598633 
L 383.988844 80.500319 
L 383.992866 80.500319 
L 384.113542 80.390622 
L 384.22439 80.266437 
L 384.224639 80.266437 
L 384.320475 80.156739 
L 384.425849 80.042903 
L 384.431572 80.042903 
L 384.527988 79.933205 
L 384.527988 79.93217 
L 384.643356 79.827648 
L 384.773985 79.71795 
L 384.882262 79.602044 
L 384.88504 79.602044 
L 385.005343 79.492346 
L 385.119011 79.359882 
L 385.180303 79.250185 
L 385.284682 79.148766 
L 385.2914 79.148766 
L 385.386157 79.039069 
L 385.495803 78.912814 
L 385.497254 78.912814 
L 385.614405 78.803117 
L 385.724465 78.697559 
L 385.725502 78.697559 
L 385.840497 78.587862 
L 385.94952 78.500932 
L 385.951531 78.500932 
L 386.043075 78.391234 
L 386.153488 78.287746 
L 386.154151 78.287746 
L 386.250671 78.178049 
L 386.36127 78.072491 
L 386.361602 78.072491 
L 386.454743 77.962794 
L 386.566876 77.859306 
L 386.663998 77.749609 
L 386.773643 77.629563 
L 386.775094 77.629563 
L 386.8949 77.519866 
L 386.8949 77.518831 
L 387.010599 77.406029 
L 387.105481 77.296332 
L 387.215666 77.145239 
L 387.216578 77.145239 
L 387.310838 77.035542 
L 387.310838 77.034507 
L 387.428363 76.87617 
L 387.521793 76.766473 
L 387.631522 76.611241 
L 387.632849 76.611241 
L 387.72433 76.501544 
L 387.833934 76.354591 
L 387.835386 76.354591 
L 387.948431 76.244894 
L 388.057081 76.135196 
L 388.059487 76.135196 
L 388.144997 76.025499 
L 388.258872 75.882686 
L 388.340193 75.772988 
L 388.451166 75.640524 
L 388.45129 75.640524 
L 388.527594 75.530827 
L 388.638483 75.394222 
L 388.638691 75.394222 
L 388.705996 75.284525 
L 388.816512 75.141712 
L 388.817009 75.141712 
L 388.892484 75.032014 
L 389.003456 74.885062 
L 389.00358 74.885062 
L 389.078972 74.775364 
L 389.184097 74.628411 
L 389.190048 74.628411 
L 389.272095 74.518714 
L 389.38228 74.348994 
L 389.383192 74.348994 
L 389.449709 74.239296 
L 389.560059 74.026111 
L 389.560806 74.026111 
L 389.633875 73.915379 
L 389.741405 73.765322 
L 389.744972 73.765322 
L 389.824095 73.655624 
L 389.824095 73.654589 
L 389.943279 73.454858 
L 390.007722 73.34516 
L 390.118487 73.142324 
L 390.118819 73.142324 
L 390.188114 73.032627 
L 390.298921 72.867046 
L 390.370456 72.756314 
L 390.480267 72.595907 
L 390.481511 72.595907 
L 390.562832 72.48621 
L 390.673888 72.295792 
L 390.727383 72.186095 
L 390.837817 71.995677 
L 390.83848 71.995677 
L 390.896993 71.88598 
L 391.00751 71.672795 
L 391.00809 71.672795 
L 391.073736 71.563097 
L 391.186906 71.351982 
L 391.233062 71.242285 
L 391.343578 70.998053 
L 391.344117 70.998053 
L 391.401304 70.888356 
L 391.510202 70.67931 
L 391.5124 70.67931 
L 391.583686 70.569613 
L 391.693912 70.329521 
L 391.694783 70.329521 
L 391.763083 70.219823 
L 391.874139 69.956964 
L 391.949364 69.847267 
L 391.949364 69.846232 
L 392.072238 69.553361 
L 392.133115 69.443663 
L 392.243714 69.174595 
L 392.244171 69.174595 
L 392.305338 69.064897 
L 392.415232 68.78134 
L 392.416393 68.78134 
L 392.469806 68.671643 
L 392.592659 68.377737 
L 392.65675 68.26804 
L 392.761792 68.027948 
L 392.767847 68.027948 
L 392.822213 67.918251 
L 392.933227 67.678158 
L 392.93331 67.678158 
L 392.983737 67.568461 
L 393.091433 67.353206 
L 393.094585 67.353206 
L 393.146505 67.243509 
L 393.256979 67.019975 
L 393.257477 67.019975 
L 393.310848 66.909243 
L 393.421821 66.690883 
L 393.421945 66.690883 
L 393.476104 66.580151 
L 393.58633 66.343163 
L 393.587159 66.343163 
L 393.637213 66.233466 
L 393.747107 66.02856 
L 393.748227 66.02856 
L 393.799607 65.918863 
L 393.909875 65.693259 
L 393.910704 65.693259 
L 393.958352 65.583562 
L 394.068371 65.386934 
L 394.069408 65.386934 
L 394.12054 65.277237 
L 394.235451 65.070261 
L 394.295168 64.960564 
L 394.405642 64.772216 
L 394.406223 64.772216 
L 394.460009 64.662519 
L 394.575211 64.453473 
L 394.62232 64.343776 
L 394.732007 64.120242 
L 394.733334 64.120242 
L 394.79276 64.010544 
L 394.900539 63.830475 
L 394.903856 63.830475 
L 394.987998 63.720778 
L 395.098224 63.53036 
L 395.099095 63.53036 
L 395.15118 63.420663 
L 395.264309 63.217826 
L 395.317348 63.108129 
L 395.428113 62.944618 
L 395.428362 62.944618 
L 395.492225 62.834921 
L 395.602907 62.66727 
L 395.603322 62.66727 
L 395.697126 62.557573 
L 395.807725 62.423039 
L 395.808181 62.423039 
L 395.891286 62.313341 
L 395.995416 62.185016 
L 396.002341 62.185016 
L 396.085114 62.075319 
L 396.191193 61.949064 
L 396.196169 61.949064 
L 396.298848 61.839366 
L 396.408203 61.713111 
L 396.409571 61.713111 
L 396.504992 61.603414 
L 396.61808 61.487507 
L 396.703631 61.37781 
L 396.814686 61.278462 
L 396.934575 61.168764 
L 397.044344 61.071486 
L 397.045506 61.071486 
L 397.183143 60.961788 
L 397.293161 60.8583 
L 397.294239 60.8583 
L 397.44382 60.748603 
L 397.549194 60.663743 
L 397.554916 60.663743 
L 397.729669 60.553011 
L 397.840641 60.460906 
L 397.840766 60.460906 
L 398.011288 60.351209 
L 398.122094 60.280837 
L 398.122343 60.280837 
L 398.264501 60.17114 
L 398.373524 60.104908 
L 398.375514 60.104908 
L 398.560344 59.995211 
L 398.664847 59.960025 
L 398.671067 59.960025 
L 398.856353 59.850327 
L 398.964339 59.784095 
L 398.967201 59.784095 
L 399.140004 59.674398 
L 399.248903 59.622654 
L 399.251101 59.622654 
L 399.481215 59.512957 
L 399.585967 59.448794 
L 399.592311 59.448794 
L 399.837852 59.339097 
L 399.941982 59.295632 
L 399.948866 59.295632 
L 400.18379 59.185935 
L 400.292523 59.144539 
L 400.294846 59.144539 
L 400.532258 59.034842 
L 400.640411 59.005865 
L 400.643314 59.005865 
L 400.858043 58.896168 
L 400.965822 58.854773 
L 400.969056 58.854773 
L 401.294944 58.745076 
L 401.406808 58.666425 
L 401.651644 58.556728 
L 401.763528 58.515332 
L 402.043281 58.405635 
L 402.150936 58.370449 
L 402.154295 58.370449 
L 402.438278 58.260752 
L 402.533285 58.206938 
L 402.549375 58.206938 
L 402.900828 58.097241 
L 403.010225 58.070334 
L 403.011842 58.070334 
L 403.326181 57.960637 
L 403.409866 57.925451 
L 403.437278 57.925451 
L 403.703843 57.815754 
L 403.808927 57.786777 
L 403.81494 57.786777 
L 404.149516 57.67708 
L 404.258954 57.627405 
L 404.260612 57.627405 
L 404.540365 57.517708 
L 404.652416 57.470104 
L 404.989853 57.360407 
L 405.099415 57.310732 
L 405.10095 57.310732 
L 405.405377 57.201035 
L 405.517345 57.15757 
L 405.828656 57.047873 
L 405.938799 57.008547 
L 405.93967 57.008547 
L 406.269767 56.89885 
L 406.376177 56.859525 
L 406.38078 56.859525 
L 406.786393 56.749827 
L 406.884572 56.710502 
L 406.897448 56.710502 
L 407.268227 56.600805 
L 407.377375 56.578037 
L 407.379241 56.578037 
L 407.766566 56.46834 
L 407.865553 56.439363 
L 407.877662 56.439363 
L 408.23289 56.329666 
L 408.337227 56.29448 
L 408.343945 56.29448 
L 408.704149 56.184783 
L 408.815577 56.153737 
L 409.104205 56.044039 
L 409.215716 56.015063 
L 409.573805 55.905365 
L 409.669931 55.87018 
L 409.68486 55.87018 
L 410.020431 55.760482 
L 410.129206 55.743924 
L 410.131486 55.743924 
L 410.509356 55.634227 
L 410.620121 55.596971 
L 410.620453 55.596971 
L 411.025527 55.487274 
L 411.134591 55.447949 
L 411.136209 55.447949 
L 411.498071 55.338251 
L 411.608587 55.300996 
L 411.609126 55.300996 
L 411.972192 55.191298 
L 412.074289 55.166461 
L 412.083081 55.166461 
L 412.33028 55.056764 
L 412.439304 54.996741 
L 412.441253 54.996741 
L 412.786362 54.887044 
L 412.886967 54.853928 
L 412.897417 54.853928 
L 413.199315 54.74423 
L 413.294611 54.700765 
L 413.310287 54.700765 
L 413.60302 54.591068 
L 413.713951 54.545533 
L 413.714117 54.545533 
L 413.999758 54.435836 
L 414.10845 54.40479 
L 414.110855 54.40479 
L 414.41155 54.295092 
L 414.521776 54.237139 
L 414.522522 54.237139 
L 414.72 54.144 
L 414.72 54.144 
" clip-path="url(#pddad6b1c6d)" style="fill: none; stroke: #ff8c00; stroke-width: 1.5; stroke-linecap: square"/>
   </g>
   <g id="line2d_14">
    <path d="M 74.605714 307.584 
L 414.72 54.144 
" clip-path="url(#pddad6b1c6d)" style="fill: none; stroke-dasharray: 5.55,2.4; stroke-dashoffset: 0; stroke: #0000ff; stroke-width: 1.5"/>
   </g>
   <g id="patch_3">
    <path d="M 57.6 307.584 
L 57.6 41.472 
" style="fill: none; stroke: #000000; stroke-width: 0.8; stroke-linejoin: miter; stroke-linecap: square"/>
   </g>
   <g id="patch_4">
    <path d="M 414.72 307.584 
L 414.72 41.472 
" style="fill: none; stroke: #000000; stroke-width: 0.8; stroke-linejoin: miter; stroke-linecap: square"/>
   </g>
   <g id="patch_5">
    <path d="M 57.6 307.584 
L 414.72 307.584 
" style="fill: none; stroke: #000000; stroke-width: 0.8; stroke-linejoin: miter; stroke-linecap: square"/>
   </g>
   <g id="patch_6">
    <path d="M 57.6 41.472 
L 414.72 41.472 
" style="fill: none; stroke: #000000; stroke-width: 0.8; stroke-linejoin: miter; stroke-linecap: square"/>
   </g>
   <g id="text_15">
    <!-- ROC CURVE -->
    <g transform="translate(200.855625 35.472)scale(0.12 -0.12)">
     <defs>
      <path id="DejaVuSans-4f" d="M 2522 4238 
Q 1834 4238 1429 3725 
Q 1025 3213 1025 2328 
Q 1025 1447 1429 934 
Q 1834 422 2522 422 
Q 3209 422 3611 934 
Q 4013 1447 4013 2328 
Q 4013 3213 3611 3725 
Q 3209 4238 2522 4238 
z
M 2522 4750 
Q 3503 4750 4090 4092 
Q 4678 3434 4678 2328 
Q 4678 1225 4090 567 
Q 3503 -91 2522 -91 
Q 1538 -91 948 565 
Q 359 1222 359 2328 
Q 359 3434 948 4092 
Q 1538 4750 2522 4750 
z
" transform="scale(0.015625)"/>
      <path id="DejaVuSans-43" d="M 4122 4306 
L 4122 3641 
Q 3803 3938 3442 4084 
Q 3081 4231 2675 4231 
Q 1875 4231 1450 3742 
Q 1025 3253 1025 2328 
Q 1025 1406 1450 917 
Q 1875 428 2675 428 
Q 3081 428 3442 575 
Q 3803 722 4122 1019 
L 4122 359 
Q 3791 134 3420 21 
Q 3050 -91 2638 -91 
Q 1578 -91 968 557 
Q 359 1206 359 2328 
Q 359 3453 968 4101 
Q 1578 4750 2638 4750 
Q 3056 4750 3426 4639 
Q 3797 4528 4122 4306 
z
" transform="scale(0.015625)"/>
      <path id="DejaVuSans-55" d="M 556 4666 
L 1191 4666 
L 1191 1831 
Q 1191 1081 1462 751 
Q 1734 422 2344 422 
Q 2950 422 3222 751 
Q 3494 1081 3494 1831 
L 3494 4666 
L 4128 4666 
L 4128 1753 
Q 4128 841 3676 375 
Q 3225 -91 2344 -91 
Q 1459 -91 1007 375 
Q 556 841 556 1753 
L 556 4666 
z
" transform="scale(0.015625)"/>
      <path id="DejaVuSans-56" d="M 1831 0 
L 50 4666 
L 709 4666 
L 2188 738 
L 3669 4666 
L 4325 4666 
L 2547 0 
L 1831 0 
z
" transform="scale(0.015625)"/>
      <path id="DejaVuSans-45" d="M 628 4666 
L 3578 4666 
L 3578 4134 
L 1259 4134 
L 1259 2753 
L 3481 2753 
L 3481 2222 
L 1259 2222 
L 1259 531 
L 3634 531 
L 3634 0 
L 628 0 
L 628 4666 
z
" transform="scale(0.015625)"/>
     </defs>
     <use xlink:href="#DejaVuSans-52"/>
     <use xlink:href="#DejaVuSans-4f" x="69.482422"/>
     <use xlink:href="#DejaVuSans-43" x="148.193359"/>
     <use xlink:href="#DejaVuSans-20" x="218.017578"/>
     <use xlink:href="#DejaVuSans-43" x="249.804688"/>
     <use xlink:href="#DejaVuSans-55" x="319.628906"/>
     <use xlink:href="#DejaVuSans-52" x="392.822266"/>
     <use xlink:href="#DejaVuSans-56" x="456.804688"/>
     <use xlink:href="#DejaVuSans-45" x="525.212891"/>
    </g>
   </g>
   <g id="legend_1">
    <g id="patch_7">
     <path d="M 234.97 302.584 
L 407.72 302.584 
Q 409.72 302.584 409.72 300.584 
L 409.72 286.905875 
Q 409.72 284.905875 407.72 284.905875 
L 234.97 284.905875 
Q 232.97 284.905875 232.97 286.905875 
L 232.97 300.584 
Q 232.97 302.584 234.97 302.584 
z
" style="fill: #ffffff; opacity: 0.8; stroke: #cccccc; stroke-linejoin: miter"/>
    </g>
    <g id="line2d_15">
     <path d="M 236.97 293.004312 
L 246.97 293.004312 
L 256.97 293.004312 
" style="fill: none; stroke: #ff8c00; stroke-width: 1.5; stroke-linecap: square"/>
    </g>
    <g id="text_16">
     <!-- ROC curve (ROC AUC=0.64) -->
     <g transform="translate(264.97 296.504312)scale(0.1 -0.1)">
      <defs>
       <path id="DejaVuSans-63" d="M 3122 3366 
L 3122 2828 
Q 2878 2963 2633 3030 
Q 2388 3097 2138 3097 
Q 1578 3097 1268 2742 
Q 959 2388 959 1747 
Q 959 1106 1268 751 
Q 1578 397 2138 397 
Q 2388 397 2633 464 
Q 2878 531 3122 666 
L 3122 134 
Q 2881 22 2623 -34 
Q 2366 -91 2075 -91 
Q 1284 -91 818 406 
Q 353 903 353 1747 
Q 353 2603 823 3093 
Q 1294 3584 2113 3584 
Q 2378 3584 2631 3529 
Q 2884 3475 3122 3366 
z
" transform="scale(0.015625)"/>
       <path id="DejaVuSans-28" d="M 1984 4856 
Q 1566 4138 1362 3434 
Q 1159 2731 1159 2009 
Q 1159 1288 1364 580 
Q 1569 -128 1984 -844 
L 1484 -844 
Q 1016 -109 783 600 
Q 550 1309 550 2009 
Q 550 2706 781 3412 
Q 1013 4119 1484 4856 
L 1984 4856 
z
" transform="scale(0.015625)"/>
       <path id="DejaVuSans-41" d="M 2188 4044 
L 1331 1722 
L 3047 1722 
L 2188 4044 
z
M 1831 4666 
L 2547 4666 
L 4325 0 
L 3669 0 
L 3244 1197 
L 1141 1197 
L 716 0 
L 50 0 
L 1831 4666 
z
" transform="scale(0.015625)"/>
       <path id="DejaVuSans-3d" d="M 678 2906 
L 4684 2906 
L 4684 2381 
L 678 2381 
L 678 2906 
z
M 678 1631 
L 4684 1631 
L 4684 1100 
L 678 1100 
L 678 1631 
z
" transform="scale(0.015625)"/>
       <path id="DejaVuSans-29" d="M 513 4856 
L 1013 4856 
Q 1481 4119 1714 3412 
Q 1947 2706 1947 2009 
Q 1947 1309 1714 600 
Q 1481 -109 1013 -844 
L 513 -844 
Q 928 -128 1133 580 
Q 1338 1288 1338 2009 
Q 1338 2731 1133 3434 
Q 928 4138 513 4856 
z
" transform="scale(0.015625)"/>
      </defs>
      <use xlink:href="#DejaVuSans-52"/>
      <use xlink:href="#DejaVuSans-4f" x="69.482422"/>
      <use xlink:href="#DejaVuSans-43" x="148.193359"/>
      <use xlink:href="#DejaVuSans-20" x="218.017578"/>
      <use xlink:href="#DejaVuSans-63" x="249.804688"/>
      <use xlink:href="#DejaVuSans-75" x="304.785156"/>
      <use xlink:href="#DejaVuSans-72" x="368.164062"/>
      <use xlink:href="#DejaVuSans-76" x="409.277344"/>
      <use xlink:href="#DejaVuSans-65" x="468.457031"/>
      <use xlink:href="#DejaVuSans-20" x="529.980469"/>
      <use xlink:href="#DejaVuSans-28" x="561.767578"/>
      <use xlink:href="#DejaVuSans-52" x="600.78125"/>
      <use xlink:href="#DejaVuSans-4f" x="670.263672"/>
      <use xlink:href="#DejaVuSans-43" x="748.974609"/>
      <use xlink:href="#DejaVuSans-20" x="818.798828"/>
      <use xlink:href="#DejaVuSans-41" x="850.585938"/>
      <use xlink:href="#DejaVuSans-55" x="918.994141"/>
      <use xlink:href="#DejaVuSans-43" x="992.1875"/>
      <use xlink:href="#DejaVuSans-3d" x="1062.011719"/>
      <use xlink:href="#DejaVuSans-30" x="1145.800781"/>
      <use xlink:href="#DejaVuSans-2e" x="1209.423828"/>
      <use xlink:href="#DejaVuSans-36" x="1241.210938"/>
      <use xlink:href="#DejaVuSans-34" x="1304.833984"/>
      <use xlink:href="#DejaVuSans-29" x="1368.457031"/>
     </g>
    </g>
   </g>
  </g>
 </g>
 <defs>
  <clipPath id="pddad6b1c6d">
   <rect x="57.6" y="41.472" width="357.12" height="266.112"/>
  </clipPath>
 </defs>
</svg>
