<?xml version="1.0" encoding="utf-8" standalone="no"?>
<!DOCTYPE svg PUBLIC "-//W3C//DTD SVG 1.1//EN"
  "http://www.w3.org/Graphics/SVG/1.1/DTD/svg11.dtd">
<svg xmlns:xlink="http://www.w3.org/1999/xlink" width="460.8pt" height="345.6pt" viewBox="0 0 460.8 345.6" xmlns="http://www.w3.org/2000/svg" version="1.1">
 <metadata>
  <rdf:RDF xmlns:dc="http://purl.org/dc/elements/1.1/" xmlns:cc="http://creativecommons.org/ns#" xmlns:rdf="http://www.w3.org/1999/02/22-rdf-syntax-ns#">
   <cc:Work>
    <dc:type rdf:resource="http://purl.org/dc/dcmitype/StillImage"/>
    <dc:date>2022-05-24T10:34:49.048336</dc:date>
    <dc:format>image/svg+xml</dc:format>
    <dc:creator>
     <cc:Agent>
      <dc:title>Matplotlib v3.5.1, https://matplotlib.org/</dc:title>
     </cc:Agent>
    </dc:creator>
   </cc:Work>
  </rdf:RDF>
 </metadata>
 <defs>
  <style type="text/css">*{stroke-linejoin: round; stroke-linecap: butt}</style>
 </defs>
 <g id="figure_1">
  <g id="patch_1">
   <path d="M 0 345.6 
L 460.8 345.6 
L 460.8 0 
L 0 0 
z
" style="fill: #ffffff"/>
  </g>
  <g id="axes_1">
   <g id="patch_2">
    <path d="M 57.6 307.584 
L 414.72 307.584 
L 414.72 41.472 
L 57.6 41.472 
z
" style="fill: #ffffff"/>
   </g>
   <g id="matplotlib.axis_1">
    <g id="xtick_1">
     <g id="line2d_1">
      <defs>
       <path id="m0b1a82038f" d="M 0 0 
L 0 3.5 
" style="stroke: #000000; stroke-width: 0.8"/>
      </defs>
      <g>
       <use xlink:href="#m0b1a82038f" x="74.605714" y="307.584" style="stroke: #000000; stroke-width: 0.8"/>
      </g>
     </g>
     <g id="text_1">
      <!-- 0.0 -->
      <g transform="translate(66.654152 322.182437)scale(0.1 -0.1)">
       <defs>
        <path id="DejaVuSans-30" d="M 2034 4250 
Q 1547 4250 1301 3770 
Q 1056 3291 1056 2328 
Q 1056 1369 1301 889 
Q 1547 409 2034 409 
Q 2525 409 2770 889 
Q 3016 1369 3016 2328 
Q 3016 3291 2770 3770 
Q 2525 4250 2034 4250 
z
M 2034 4750 
Q 2819 4750 3233 4129 
Q 3647 3509 3647 2328 
Q 3647 1150 3233 529 
Q 2819 -91 2034 -91 
Q 1250 -91 836 529 
Q 422 1150 422 2328 
Q 422 3509 836 4129 
Q 1250 4750 2034 4750 
z
" transform="scale(0.015625)"/>
        <path id="DejaVuSans-2e" d="M 684 794 
L 1344 794 
L 1344 0 
L 684 0 
L 684 794 
z
" transform="scale(0.015625)"/>
       </defs>
       <use xlink:href="#DejaVuSans-30"/>
       <use xlink:href="#DejaVuSans-2e" x="63.623047"/>
       <use xlink:href="#DejaVuSans-30" x="95.410156"/>
      </g>
     </g>
    </g>
    <g id="xtick_2">
     <g id="line2d_2">
      <g>
       <use xlink:href="#m0b1a82038f" x="142.628571" y="307.584" style="stroke: #000000; stroke-width: 0.8"/>
      </g>
     </g>
     <g id="text_2">
      <!-- 0.2 -->
      <g transform="translate(134.677009 322.182437)scale(0.1 -0.1)">
       <defs>
        <path id="DejaVuSans-32" d="M 1228 531 
L 3431 531 
L 3431 0 
L 469 0 
L 469 531 
Q 828 903 1448 1529 
Q 2069 2156 2228 2338 
Q 2531 2678 2651 2914 
Q 2772 3150 2772 3378 
Q 2772 3750 2511 3984 
Q 2250 4219 1831 4219 
Q 1534 4219 1204 4116 
Q 875 4013 500 3803 
L 500 4441 
Q 881 4594 1212 4672 
Q 1544 4750 1819 4750 
Q 2544 4750 2975 4387 
Q 3406 4025 3406 3419 
Q 3406 3131 3298 2873 
Q 3191 2616 2906 2266 
Q 2828 2175 2409 1742 
Q 1991 1309 1228 531 
z
" transform="scale(0.015625)"/>
       </defs>
       <use xlink:href="#DejaVuSans-30"/>
       <use xlink:href="#DejaVuSans-2e" x="63.623047"/>
       <use xlink:href="#DejaVuSans-32" x="95.410156"/>
      </g>
     </g>
    </g>
    <g id="xtick_3">
     <g id="line2d_3">
      <g>
       <use xlink:href="#m0b1a82038f" x="210.651429" y="307.584" style="stroke: #000000; stroke-width: 0.8"/>
      </g>
     </g>
     <g id="text_3">
      <!-- 0.4 -->
      <g transform="translate(202.699866 322.182437)scale(0.1 -0.1)">
       <defs>
        <path id="DejaVuSans-34" d="M 2419 4116 
L 825 1625 
L 2419 1625 
L 2419 4116 
z
M 2253 4666 
L 3047 4666 
L 3047 1625 
L 3713 1625 
L 3713 1100 
L 3047 1100 
L 3047 0 
L 2419 0 
L 2419 1100 
L 313 1100 
L 313 1709 
L 2253 4666 
z
" transform="scale(0.015625)"/>
       </defs>
       <use xlink:href="#DejaVuSans-30"/>
       <use xlink:href="#DejaVuSans-2e" x="63.623047"/>
       <use xlink:href="#DejaVuSans-34" x="95.410156"/>
      </g>
     </g>
    </g>
    <g id="xtick_4">
     <g id="line2d_4">
      <g>
       <use xlink:href="#m0b1a82038f" x="278.674286" y="307.584" style="stroke: #000000; stroke-width: 0.8"/>
      </g>
     </g>
     <g id="text_4">
      <!-- 0.6 -->
      <g transform="translate(270.722723 322.182437)scale(0.1 -0.1)">
       <defs>
        <path id="DejaVuSans-36" d="M 2113 2584 
Q 1688 2584 1439 2293 
Q 1191 2003 1191 1497 
Q 1191 994 1439 701 
Q 1688 409 2113 409 
Q 2538 409 2786 701 
Q 3034 994 3034 1497 
Q 3034 2003 2786 2293 
Q 2538 2584 2113 2584 
z
M 3366 4563 
L 3366 3988 
Q 3128 4100 2886 4159 
Q 2644 4219 2406 4219 
Q 1781 4219 1451 3797 
Q 1122 3375 1075 2522 
Q 1259 2794 1537 2939 
Q 1816 3084 2150 3084 
Q 2853 3084 3261 2657 
Q 3669 2231 3669 1497 
Q 3669 778 3244 343 
Q 2819 -91 2113 -91 
Q 1303 -91 875 529 
Q 447 1150 447 2328 
Q 447 3434 972 4092 
Q 1497 4750 2381 4750 
Q 2619 4750 2861 4703 
Q 3103 4656 3366 4563 
z
" transform="scale(0.015625)"/>
       </defs>
       <use xlink:href="#DejaVuSans-30"/>
       <use xlink:href="#DejaVuSans-2e" x="63.623047"/>
       <use xlink:href="#DejaVuSans-36" x="95.410156"/>
      </g>
     </g>
    </g>
    <g id="xtick_5">
     <g id="line2d_5">
      <g>
       <use xlink:href="#m0b1a82038f" x="346.697143" y="307.584" style="stroke: #000000; stroke-width: 0.8"/>
      </g>
     </g>
     <g id="text_5">
      <!-- 0.8 -->
      <g transform="translate(338.74558 322.182437)scale(0.1 -0.1)">
       <defs>
        <path id="DejaVuSans-38" d="M 2034 2216 
Q 1584 2216 1326 1975 
Q 1069 1734 1069 1313 
Q 1069 891 1326 650 
Q 1584 409 2034 409 
Q 2484 409 2743 651 
Q 3003 894 3003 1313 
Q 3003 1734 2745 1975 
Q 2488 2216 2034 2216 
z
M 1403 2484 
Q 997 2584 770 2862 
Q 544 3141 544 3541 
Q 544 4100 942 4425 
Q 1341 4750 2034 4750 
Q 2731 4750 3128 4425 
Q 3525 4100 3525 3541 
Q 3525 3141 3298 2862 
Q 3072 2584 2669 2484 
Q 3125 2378 3379 2068 
Q 3634 1759 3634 1313 
Q 3634 634 3220 271 
Q 2806 -91 2034 -91 
Q 1263 -91 848 271 
Q 434 634 434 1313 
Q 434 1759 690 2068 
Q 947 2378 1403 2484 
z
M 1172 3481 
Q 1172 3119 1398 2916 
Q 1625 2713 2034 2713 
Q 2441 2713 2670 2916 
Q 2900 3119 2900 3481 
Q 2900 3844 2670 4047 
Q 2441 4250 2034 4250 
Q 1625 4250 1398 4047 
Q 1172 3844 1172 3481 
z
" transform="scale(0.015625)"/>
       </defs>
       <use xlink:href="#DejaVuSans-30"/>
       <use xlink:href="#DejaVuSans-2e" x="63.623047"/>
       <use xlink:href="#DejaVuSans-38" x="95.410156"/>
      </g>
     </g>
    </g>
    <g id="xtick_6">
     <g id="line2d_6">
      <g>
       <use xlink:href="#m0b1a82038f" x="414.72" y="307.584" style="stroke: #000000; stroke-width: 0.8"/>
      </g>
     </g>
     <g id="text_6">
      <!-- 1.0 -->
      <g transform="translate(406.768438 322.182437)scale(0.1 -0.1)">
       <defs>
        <path id="DejaVuSans-31" d="M 794 531 
L 1825 531 
L 1825 4091 
L 703 3866 
L 703 4441 
L 1819 4666 
L 2450 4666 
L 2450 531 
L 3481 531 
L 3481 0 
L 794 0 
L 794 531 
z
" transform="scale(0.015625)"/>
       </defs>
       <use xlink:href="#DejaVuSans-31"/>
       <use xlink:href="#DejaVuSans-2e" x="63.623047"/>
       <use xlink:href="#DejaVuSans-30" x="95.410156"/>
      </g>
     </g>
    </g>
    <g id="text_7">
     <!-- False Positive Rate -->
     <g transform="translate(189.693594 335.860562)scale(0.1 -0.1)">
      <defs>
       <path id="DejaVuSans-46" d="M 628 4666 
L 3309 4666 
L 3309 4134 
L 1259 4134 
L 1259 2759 
L 3109 2759 
L 3109 2228 
L 1259 2228 
L 1259 0 
L 628 0 
L 628 4666 
z
" transform="scale(0.015625)"/>
       <path id="DejaVuSans-61" d="M 2194 1759 
Q 1497 1759 1228 1600 
Q 959 1441 959 1056 
Q 959 750 1161 570 
Q 1363 391 1709 391 
Q 2188 391 2477 730 
Q 2766 1069 2766 1631 
L 2766 1759 
L 2194 1759 
z
M 3341 1997 
L 3341 0 
L 2766 0 
L 2766 531 
Q 2569 213 2275 61 
Q 1981 -91 1556 -91 
Q 1019 -91 701 211 
Q 384 513 384 1019 
Q 384 1609 779 1909 
Q 1175 2209 1959 2209 
L 2766 2209 
L 2766 2266 
Q 2766 2663 2505 2880 
Q 2244 3097 1772 3097 
Q 1472 3097 1187 3025 
Q 903 2953 641 2809 
L 641 3341 
Q 956 3463 1253 3523 
Q 1550 3584 1831 3584 
Q 2591 3584 2966 3190 
Q 3341 2797 3341 1997 
z
" transform="scale(0.015625)"/>
       <path id="DejaVuSans-6c" d="M 603 4863 
L 1178 4863 
L 1178 0 
L 603 0 
L 603 4863 
z
" transform="scale(0.015625)"/>
       <path id="DejaVuSans-73" d="M 2834 3397 
L 2834 2853 
Q 2591 2978 2328 3040 
Q 2066 3103 1784 3103 
Q 1356 3103 1142 2972 
Q 928 2841 928 2578 
Q 928 2378 1081 2264 
Q 1234 2150 1697 2047 
L 1894 2003 
Q 2506 1872 2764 1633 
Q 3022 1394 3022 966 
Q 3022 478 2636 193 
Q 2250 -91 1575 -91 
Q 1294 -91 989 -36 
Q 684 19 347 128 
L 347 722 
Q 666 556 975 473 
Q 1284 391 1588 391 
Q 1994 391 2212 530 
Q 2431 669 2431 922 
Q 2431 1156 2273 1281 
Q 2116 1406 1581 1522 
L 1381 1569 
Q 847 1681 609 1914 
Q 372 2147 372 2553 
Q 372 3047 722 3315 
Q 1072 3584 1716 3584 
Q 2034 3584 2315 3537 
Q 2597 3491 2834 3397 
z
" transform="scale(0.015625)"/>
       <path id="DejaVuSans-65" d="M 3597 1894 
L 3597 1613 
L 953 1613 
Q 991 1019 1311 708 
Q 1631 397 2203 397 
Q 2534 397 2845 478 
Q 3156 559 3463 722 
L 3463 178 
Q 3153 47 2828 -22 
Q 2503 -91 2169 -91 
Q 1331 -91 842 396 
Q 353 884 353 1716 
Q 353 2575 817 3079 
Q 1281 3584 2069 3584 
Q 2775 3584 3186 3129 
Q 3597 2675 3597 1894 
z
M 3022 2063 
Q 3016 2534 2758 2815 
Q 2500 3097 2075 3097 
Q 1594 3097 1305 2825 
Q 1016 2553 972 2059 
L 3022 2063 
z
" transform="scale(0.015625)"/>
       <path id="DejaVuSans-20" transform="scale(0.015625)"/>
       <path id="DejaVuSans-50" d="M 1259 4147 
L 1259 2394 
L 2053 2394 
Q 2494 2394 2734 2622 
Q 2975 2850 2975 3272 
Q 2975 3691 2734 3919 
Q 2494 4147 2053 4147 
L 1259 4147 
z
M 628 4666 
L 2053 4666 
Q 2838 4666 3239 4311 
Q 3641 3956 3641 3272 
Q 3641 2581 3239 2228 
Q 2838 1875 2053 1875 
L 1259 1875 
L 1259 0 
L 628 0 
L 628 4666 
z
" transform="scale(0.015625)"/>
       <path id="DejaVuSans-6f" d="M 1959 3097 
Q 1497 3097 1228 2736 
Q 959 2375 959 1747 
Q 959 1119 1226 758 
Q 1494 397 1959 397 
Q 2419 397 2687 759 
Q 2956 1122 2956 1747 
Q 2956 2369 2687 2733 
Q 2419 3097 1959 3097 
z
M 1959 3584 
Q 2709 3584 3137 3096 
Q 3566 2609 3566 1747 
Q 3566 888 3137 398 
Q 2709 -91 1959 -91 
Q 1206 -91 779 398 
Q 353 888 353 1747 
Q 353 2609 779 3096 
Q 1206 3584 1959 3584 
z
" transform="scale(0.015625)"/>
       <path id="DejaVuSans-69" d="M 603 3500 
L 1178 3500 
L 1178 0 
L 603 0 
L 603 3500 
z
M 603 4863 
L 1178 4863 
L 1178 4134 
L 603 4134 
L 603 4863 
z
" transform="scale(0.015625)"/>
       <path id="DejaVuSans-74" d="M 1172 4494 
L 1172 3500 
L 2356 3500 
L 2356 3053 
L 1172 3053 
L 1172 1153 
Q 1172 725 1289 603 
Q 1406 481 1766 481 
L 2356 481 
L 2356 0 
L 1766 0 
Q 1100 0 847 248 
Q 594 497 594 1153 
L 594 3053 
L 172 3053 
L 172 3500 
L 594 3500 
L 594 4494 
L 1172 4494 
z
" transform="scale(0.015625)"/>
       <path id="DejaVuSans-76" d="M 191 3500 
L 800 3500 
L 1894 563 
L 2988 3500 
L 3597 3500 
L 2284 0 
L 1503 0 
L 191 3500 
z
" transform="scale(0.015625)"/>
       <path id="DejaVuSans-52" d="M 2841 2188 
Q 3044 2119 3236 1894 
Q 3428 1669 3622 1275 
L 4263 0 
L 3584 0 
L 2988 1197 
Q 2756 1666 2539 1819 
Q 2322 1972 1947 1972 
L 1259 1972 
L 1259 0 
L 628 0 
L 628 4666 
L 2053 4666 
Q 2853 4666 3247 4331 
Q 3641 3997 3641 3322 
Q 3641 2881 3436 2590 
Q 3231 2300 2841 2188 
z
M 1259 4147 
L 1259 2491 
L 2053 2491 
Q 2509 2491 2742 2702 
Q 2975 2913 2975 3322 
Q 2975 3731 2742 3939 
Q 2509 4147 2053 4147 
L 1259 4147 
z
" transform="scale(0.015625)"/>
      </defs>
      <use xlink:href="#DejaVuSans-46"/>
      <use xlink:href="#DejaVuSans-61" x="48.394531"/>
      <use xlink:href="#DejaVuSans-6c" x="109.673828"/>
      <use xlink:href="#DejaVuSans-73" x="137.457031"/>
      <use xlink:href="#DejaVuSans-65" x="189.556641"/>
      <use xlink:href="#DejaVuSans-20" x="251.080078"/>
      <use xlink:href="#DejaVuSans-50" x="282.867188"/>
      <use xlink:href="#DejaVuSans-6f" x="339.544922"/>
      <use xlink:href="#DejaVuSans-73" x="400.726562"/>
      <use xlink:href="#DejaVuSans-69" x="452.826172"/>
      <use xlink:href="#DejaVuSans-74" x="480.609375"/>
      <use xlink:href="#DejaVuSans-69" x="519.818359"/>
      <use xlink:href="#DejaVuSans-76" x="547.601562"/>
      <use xlink:href="#DejaVuSans-65" x="606.78125"/>
      <use xlink:href="#DejaVuSans-20" x="668.304688"/>
      <use xlink:href="#DejaVuSans-52" x="700.091797"/>
      <use xlink:href="#DejaVuSans-61" x="767.324219"/>
      <use xlink:href="#DejaVuSans-74" x="828.603516"/>
      <use xlink:href="#DejaVuSans-65" x="867.8125"/>
     </g>
    </g>
   </g>
   <g id="matplotlib.axis_2">
    <g id="ytick_1">
     <g id="line2d_7">
      <defs>
       <path id="mdbd14a661b" d="M 0 0 
L -3.5 0 
" style="stroke: #000000; stroke-width: 0.8"/>
      </defs>
      <g>
       <use xlink:href="#mdbd14a661b" x="57.6" y="307.584" style="stroke: #000000; stroke-width: 0.8"/>
      </g>
     </g>
     <g id="text_8">
      <!-- 0.0 -->
      <g transform="translate(34.696875 311.383219)scale(0.1 -0.1)">
       <use xlink:href="#DejaVuSans-30"/>
       <use xlink:href="#DejaVuSans-2e" x="63.623047"/>
       <use xlink:href="#DejaVuSans-30" x="95.410156"/>
      </g>
     </g>
    </g>
    <g id="ytick_2">
     <g id="line2d_8">
      <g>
       <use xlink:href="#mdbd14a661b" x="57.6" y="256.896" style="stroke: #000000; stroke-width: 0.8"/>
      </g>
     </g>
     <g id="text_9">
      <!-- 0.2 -->
      <g transform="translate(34.696875 260.695219)scale(0.1 -0.1)">
       <use xlink:href="#DejaVuSans-30"/>
       <use xlink:href="#DejaVuSans-2e" x="63.623047"/>
       <use xlink:href="#DejaVuSans-32" x="95.410156"/>
      </g>
     </g>
    </g>
    <g id="ytick_3">
     <g id="line2d_9">
      <g>
       <use xlink:href="#mdbd14a661b" x="57.6" y="206.208" style="stroke: #000000; stroke-width: 0.8"/>
      </g>
     </g>
     <g id="text_10">
      <!-- 0.4 -->
      <g transform="translate(34.696875 210.007219)scale(0.1 -0.1)">
       <use xlink:href="#DejaVuSans-30"/>
       <use xlink:href="#DejaVuSans-2e" x="63.623047"/>
       <use xlink:href="#DejaVuSans-34" x="95.410156"/>
      </g>
     </g>
    </g>
    <g id="ytick_4">
     <g id="line2d_10">
      <g>
       <use xlink:href="#mdbd14a661b" x="57.6" y="155.52" style="stroke: #000000; stroke-width: 0.8"/>
      </g>
     </g>
     <g id="text_11">
      <!-- 0.6 -->
      <g transform="translate(34.696875 159.319219)scale(0.1 -0.1)">
       <use xlink:href="#DejaVuSans-30"/>
       <use xlink:href="#DejaVuSans-2e" x="63.623047"/>
       <use xlink:href="#DejaVuSans-36" x="95.410156"/>
      </g>
     </g>
    </g>
    <g id="ytick_5">
     <g id="line2d_11">
      <g>
       <use xlink:href="#mdbd14a661b" x="57.6" y="104.832" style="stroke: #000000; stroke-width: 0.8"/>
      </g>
     </g>
     <g id="text_12">
      <!-- 0.8 -->
      <g transform="translate(34.696875 108.631219)scale(0.1 -0.1)">
       <use xlink:href="#DejaVuSans-30"/>
       <use xlink:href="#DejaVuSans-2e" x="63.623047"/>
       <use xlink:href="#DejaVuSans-38" x="95.410156"/>
      </g>
     </g>
    </g>
    <g id="ytick_6">
     <g id="line2d_12">
      <g>
       <use xlink:href="#mdbd14a661b" x="57.6" y="54.144" style="stroke: #000000; stroke-width: 0.8"/>
      </g>
     </g>
     <g id="text_13">
      <!-- 1.0 -->
      <g transform="translate(34.696875 57.943219)scale(0.1 -0.1)">
       <use xlink:href="#DejaVuSans-31"/>
       <use xlink:href="#DejaVuSans-2e" x="63.623047"/>
       <use xlink:href="#DejaVuSans-30" x="95.410156"/>
      </g>
     </g>
    </g>
    <g id="text_14">
     <!-- True Positive Rate -->
     <g transform="translate(28.617187 219.057687)rotate(-90)scale(0.1 -0.1)">
      <defs>
       <path id="DejaVuSans-54" d="M -19 4666 
L 3928 4666 
L 3928 4134 
L 2272 4134 
L 2272 0 
L 1638 0 
L 1638 4134 
L -19 4134 
L -19 4666 
z
" transform="scale(0.015625)"/>
       <path id="DejaVuSans-72" d="M 2631 2963 
Q 2534 3019 2420 3045 
Q 2306 3072 2169 3072 
Q 1681 3072 1420 2755 
Q 1159 2438 1159 1844 
L 1159 0 
L 581 0 
L 581 3500 
L 1159 3500 
L 1159 2956 
Q 1341 3275 1631 3429 
Q 1922 3584 2338 3584 
Q 2397 3584 2469 3576 
Q 2541 3569 2628 3553 
L 2631 2963 
z
" transform="scale(0.015625)"/>
       <path id="DejaVuSans-75" d="M 544 1381 
L 544 3500 
L 1119 3500 
L 1119 1403 
Q 1119 906 1312 657 
Q 1506 409 1894 409 
Q 2359 409 2629 706 
Q 2900 1003 2900 1516 
L 2900 3500 
L 3475 3500 
L 3475 0 
L 2900 0 
L 2900 538 
Q 2691 219 2414 64 
Q 2138 -91 1772 -91 
Q 1169 -91 856 284 
Q 544 659 544 1381 
z
M 1991 3584 
L 1991 3584 
z
" transform="scale(0.015625)"/>
      </defs>
      <use xlink:href="#DejaVuSans-54"/>
      <use xlink:href="#DejaVuSans-72" x="46.333984"/>
      <use xlink:href="#DejaVuSans-75" x="87.447266"/>
      <use xlink:href="#DejaVuSans-65" x="150.826172"/>
      <use xlink:href="#DejaVuSans-20" x="212.349609"/>
      <use xlink:href="#DejaVuSans-50" x="244.136719"/>
      <use xlink:href="#DejaVuSans-6f" x="300.814453"/>
      <use xlink:href="#DejaVuSans-73" x="361.996094"/>
      <use xlink:href="#DejaVuSans-69" x="414.095703"/>
      <use xlink:href="#DejaVuSans-74" x="441.878906"/>
      <use xlink:href="#DejaVuSans-69" x="481.087891"/>
      <use xlink:href="#DejaVuSans-76" x="508.871094"/>
      <use xlink:href="#DejaVuSans-65" x="568.050781"/>
      <use xlink:href="#DejaVuSans-20" x="629.574219"/>
      <use xlink:href="#DejaVuSans-52" x="661.361328"/>
      <use xlink:href="#DejaVuSans-61" x="728.59375"/>
      <use xlink:href="#DejaVuSans-74" x="789.873047"/>
      <use xlink:href="#DejaVuSans-65" x="829.082031"/>
     </g>
    </g>
   </g>
   <g id="line2d_13">
    <path d="M 74.605714 307.584 
L 74.630223 307.474303 
L 74.741154 306.733329 
L 74.748203 306.625701 
L 74.858927 306.021331 
L 74.866308 305.911634 
L 74.977322 304.355175 
L 74.981635 304.245478 
L 75.092483 302.405461 
L 75.092732 302.405461 
L 75.100735 302.295764 
L 75.241856 300.791049 
L 75.250772 300.681352 
L 75.361412 299.631983 
L 75.371033 299.522286 
L 75.482089 298.613662 
L 75.497225 298.503964 
L 75.608156 297.628456 
L 75.60828 297.628456 
L 75.626983 297.518759 
L 75.737333 296.717762 
L 75.738038 296.717762 
L 75.757902 296.618413 
L 75.867879 296.020253 
L 75.868252 296.020253 
L 75.889485 295.910556 
L 76.000332 295.368279 
L 76.000581 295.368279 
L 76.024426 295.260651 
L 76.134776 294.66249 
L 76.135523 294.66249 
L 76.16422 294.552793 
L 76.274404 294.039493 
L 76.275026 294.039493 
L 76.293646 293.929796 
L 76.403706 293.501355 
L 76.404577 293.501355 
L 76.436591 293.391658 
L 76.547564 292.870079 
L 76.547647 292.870079 
L 76.57257 292.760381 
L 76.681966 292.327802 
L 76.683625 292.327802 
L 76.724763 292.218104 
L 76.803679 291.90764 
L 76.80455 291.90764 
L 76.901091 291.797943 
L 77.010446 291.419177 
L 77.010819 291.419177 
L 77.047395 291.30948 
L 77.158036 290.905877 
L 77.158492 290.905877 
L 77.187894 290.796179 
L 77.298824 290.398786 
L 77.29899 290.398786 
L 77.342492 290.289088 
L 77.458192 290.055205 
L 77.491367 289.949648 
L 77.593589 289.732323 
L 77.594253 289.732323 
L 77.657452 289.622626 
L 77.767429 289.32665 
L 77.768508 289.32665 
L 77.832163 289.216953 
L 77.949771 288.852675 
L 78.026572 288.742978 
L 78.136922 288.502886 
L 78.137627 288.502886 
L 78.223842 288.393188 
L 78.334524 288.157236 
L 78.381385 288.047539 
L 78.486676 287.745354 
L 78.487713 287.745354 
L 78.558211 287.650145 
L 78.670386 287.374867 
L 78.713141 287.265169 
L 78.824113 286.958845 
L 78.890713 286.849148 
L 79.001478 286.772567 
L 79.001727 286.772567 
L 79.041206 286.662869 
L 79.118256 286.457963 
L 79.119002 286.457963 
L 79.18921 286.348266 
L 79.302961 286.213732 
L 79.340532 286.104034 
L 79.450758 285.876361 
L 79.549995 285.766663 
L 79.648899 285.470688 
L 79.648941 285.470688 
L 79.719646 285.360991 
L 79.830494 285.189201 
L 79.830577 285.189201 
L 79.879428 285.079503 
L 79.989446 284.733853 
L 79.990234 284.733853 
L 80.042735 284.624156 
L 80.152048 284.270227 
L 80.153748 284.270227 
L 80.237061 284.16053 
L 80.332399 283.972182 
L 80.333021 283.972182 
L 80.423217 283.862485 
L 80.533982 283.549951 
L 80.534065 283.549951 
L 80.643088 283.440254 
L 80.739422 283.272603 
L 80.740168 283.272603 
L 80.805566 283.162906 
L 80.872829 283.032511 
L 80.874073 283.032511 
L 80.960164 282.922814 
L 81.069933 282.794489 
L 81.069975 282.794489 
L 81.115218 282.684791 
L 81.226232 282.533699 
L 81.322151 282.424002 
L 81.432999 282.09284 
L 81.433206 282.09284 
L 81.533728 281.960375 
L 81.621063 281.848608 
L 81.735228 281.509168 
L 81.82165 281.399471 
L 81.91139 281.254587 
L 81.911764 281.254587 
L 81.977161 281.14489 
L 82.088216 280.902728 
L 82.139555 280.793031 
L 82.227802 280.594334 
L 82.228093 280.594334 
L 82.324882 280.480497 
L 82.434611 280.188661 
L 82.43573 280.188661 
L 82.533184 280.078964 
L 82.644197 279.789198 
L 82.680483 279.6795 
L 82.794151 279.414571 
L 82.933074 279.294525 
L 83.009668 279.089619 
L 83.014561 279.089619 
L 83.080995 278.971643 
L 83.1974 278.704644 
L 83.267235 278.594946 
L 83.356311 278.439714 
L 83.461519 278.330017 
L 83.571413 278.125111 
L 83.572574 278.125111 
L 83.599405 278.015414 
L 83.709714 277.744275 
L 83.710087 277.744275 
L 83.741438 277.634578 
L 83.851664 277.456578 
L 83.852535 277.456578 
L 83.896368 277.346881 
L 84.007423 277.135766 
L 84.042921 277.026068 
L 84.153976 276.767348 
L 84.186281 276.659721 
L 84.300198 276.374094 
L 84.346768 276.264397 
L 84.457782 276.073979 
L 84.457823 276.073979 
L 84.510116 275.964282 
L 84.620881 275.695213 
L 84.62113 275.695213 
L 84.695775 275.585516 
L 84.805171 275.320586 
L 84.853069 275.210889 
L 84.95048 275.078425 
L 84.950729 275.078425 
L 85.01256 274.958379 
L 85.123449 274.676891 
L 85.178521 274.567194 
L 85.28659 274.221544 
L 85.286798 274.221544 
L 85.315992 274.111847 
L 85.423025 273.82415 
L 85.427047 273.82415 
L 85.468683 273.714453 
L 85.579531 273.538523 
L 85.632073 273.428826 
L 85.78128 273.118362 
L 85.84112 273.008665 
L 85.950765 272.816177 
L 85.952092 272.816177 
L 86.025576 272.70648 
L 86.145091 272.491225 
L 86.211567 272.381528 
L 86.32171 272.143505 
L 86.322664 272.143505 
L 86.370602 272.033808 
L 86.477303 271.872367 
L 86.477967 271.872367 
L 86.549792 271.775088 
L 86.661345 271.605368 
L 86.789319 271.495671 
L 86.900084 271.342508 
L 86.900416 271.342508 
L 86.983355 271.24109 
L 87.126591 271.027905 
L 87.143427 271.007207 
L 87.34501 270.493907 
L 87.409081 270.38421 
L 87.524407 270.158606 
L 87.648567 270.048909 
L 87.759498 269.726026 
L 87.759581 269.726026 
L 87.950921 269.616329 
L 88.060483 269.490074 
L 88.061976 269.490074 
L 88.14902 269.409353 
L 88.277783 269.26447 
L 88.459668 269.121656 
L 88.583952 268.970564 
L 88.69621 268.877425 
L 88.825761 268.786355 
L 88.93665 268.676658 
L 89.046751 268.546263 
L 89.047581 268.546263 
L 89.252523 268.438636 
L 89.349188 268.362055 
L 89.35601 268.362055 
L 89.504699 268.252357 
L 89.619652 268.159218 
L 89.746134 268.049521 
L 89.857231 267.985358 
L 90.0793 267.877731 
L 90.188821 267.828057 
L 90.190396 267.828057 
L 90.480517 267.720429 
L 90.601276 267.668685 
L 90.727592 267.594174 
L 90.839228 267.492755 
L 91.169615 267.383058 
L 91.243721 267.3665 
L 91.245877 267.3665 
L 91.610643 267.236105 
L 91.751929 267.165733 
L 92.113004 267.056036 
L 92.224018 267.012571 
L 92.524174 266.902874 
L 92.635022 266.878037 
L 92.635187 266.878037 
L 92.907808 266.772479 
L 93.019029 266.733154 
L 93.21294 266.623456 
L 93.32018 266.59241 
L 93.544696 266.482713 
L 93.64049 266.464085 
L 93.641651 266.464085 
L 94.069243 266.356457 
L 94.121743 266.33162 
L 94.127508 266.33162 
L 94.702772 266.221923 
L 94.787992 266.205365 
L 94.789402 266.205365 
L 95.640977 265.99218 
L 95.74519 265.936296 
L 95.749876 265.936296 
L 96.076946 265.826599 
L 96.188665 265.760367 
L 96.341023 265.652739 
L 96.452079 265.56167 
L 96.6124 265.454042 
L 96.722957 265.416787 
L 96.723123 265.416787 
L 97.023445 265.307089 
L 97.136035 265.230508 
L 97.33289 265.120811 
L 97.441374 265.025602 
L 97.443448 265.025602 
L 97.683473 264.915905 
L 97.795192 264.849672 
L 98.092196 264.739975 
L 98.200846 264.682022 
L 98.203168 264.682022 
L 98.291374 264.582673 
L 98.402429 264.365349 
L 98.482548 264.257721 
L 98.589747 264.129396 
L 98.593645 264.129396 
L 98.713823 264.023838 
L 98.82492 263.92035 
L 98.849138 263.901722 
L 302.943819 222.036694 
L 303.040401 222.020136 
L 303.043429 222.020136 
L 304.106001 221.862834 
L 304.217429 221.835927 
L 304.518 221.72623 
L 304.632124 221.686905 
L 304.80472 221.577207 
L 304.914282 221.496487 
L 304.915734 221.496487 
L 305.044413 221.281232 
L 305.090652 221.171534 
L 305.201583 220.78035 
L 305.201666 220.78035 
L 305.23932 220.670653 
L 305.347804 220.382956 
L 305.350334 220.382956 
L 305.388195 220.273259 
L 305.477728 220.184259 
L 305.629879 220.074562 
L 305.738529 219.937958 
L 305.73882 219.937958 
L 305.885331 219.83033 
L 305.979301 219.7434 
L 305.979799 219.7434 
L 306.154344 219.670959 
L 306.266311 219.424657 
L 306.408054 219.31496 
L 306.515792 219.213542 
L 306.518446 219.213542 
L 306.606734 219.103845 
L 306.71555 219.045891 
L 306.717831 219.045891 
L 306.883418 218.936194 
L 306.992317 218.580195 
L 306.994432 218.580195 
L 307.156992 218.472568 
L 307.234914 218.373219 
L 307.2351 218.373219 
L 307.465276 218.230406 
L 307.575585 218.133127 
L 307.576332 218.133127 
L 307.798069 218.02343 
L 307.913893 217.905454 
L 308.022336 217.85164 
L 308.134842 217.628106 
L 308.439228 217.518409 
L 308.550491 217.431479 
L 308.691404 217.321781 
L 308.744651 217.296944 
L 308.745522 217.296944 
L 308.889379 217.170689 
L 309.000227 217.065131 
L 309.000476 217.065131 
L 309.085696 216.955434 
L 309.194304 216.860225 
L 309.196751 216.860225 
L 309.307226 216.750528 
L 309.420147 216.618063 
L 309.570432 216.510436 
L 309.68269 216.413157 
L 309.810085 216.313808 
L 309.926614 216.12546 
L 310.069476 216.015763 
L 310.179743 215.95367 
L 310.18049 215.95367 
L 310.255881 215.843973 
L 310.35209 215.78188 
L 310.352464 215.78188 
L 310.552429 215.672183 
L 310.665392 215.524195 
L 311.085934 215.289277 
L 311.241403 215.17958 
L 311.353868 215.107139 
L 311.36801 215.080232 
L 311.461979 214.943628 
L 311.630221 214.83393 
L 311.744179 214.691117 
L 311.887332 214.58142 
L 311.996604 214.500699 
L 311.998345 214.500699 
L 312.16779 214.413769 
L 312.90238 213.968771 
L 313.40698 213.776283 
L 313.52297 213.654167 
L 313.712942 213.54447 
L 313.82578 213.451331 
L 313.982369 213.341634 
L 314.070367 213.28575 
L 314.073146 213.28575 
L 314.322626 213.176053 
L 314.419955 213.093262 
L 314.420328 213.093262 
L 314.554814 212.983565 
L 314.665869 212.873868 
L 314.878566 212.76624 
L 314.990741 212.710357 
L 315.110007 212.60066 
L 315.220191 212.532358 
L 315.221062 212.532358 
L 315.334854 212.42266 
L 315.444458 212.302614 
L 315.445453 212.302614 
L 315.612866 212.192917 
L 315.725124 212.089429 
L 315.788033 211.979732 
L 315.88814 211.853476 
L 315.888264 211.853476 
L 316.068781 211.667198 
L 316.181993 211.56164 
L 316.312041 211.451943 
L 316.424382 211.367083 
L 316.552979 211.261525 
L 316.684354 211.091805 
L 316.81859 210.982108 
L 316.924172 210.855852 
L 316.929646 210.855852 
L 316.984054 210.746155 
L 317.094736 210.640597 
L 317.095067 210.640597 
L 317.22184 210.5309 
L 317.319915 210.479156 
L 317.332812 210.479156 
L 317.424169 210.369459 
L 317.68186 210.193529 
L 317.775955 210.083832 
L 317.889208 209.963786 
L 318.033978 209.854089 
L 318.150299 209.723694 
L 318.238505 209.618136 
L 319.12873 208.89579 
L 319.232155 208.827488 
L 319.234145 208.827488 
L 319.286812 208.817139 
L 319.397991 208.635 
L 319.466997 208.54807 
L 319.520036 208.46528 
L 319.755997 208.330746 
L 319.815174 208.266583 
L 319.817331 208.266583 
L 319.964838 208.156886 
L 320.081284 208.022351 
L 320.202084 207.912654 
L 320.311439 207.788468 
L 320.313098 207.788468 
L 320.482376 207.678771 
L 320.592976 207.618748 
L 320.5931 207.618748 
L 320.728042 207.509051 
L 320.833913 207.413842 
L 320.839097 207.413842 
L 320.993073 207.304145 
L 321.093222 207.194447 
L 321.256031 207.08475 
L 321.369491 206.964704 
L 321.490582 206.855007 
L 321.597739 206.776356 
L 321.696271 206.666659 
L 321.787213 206.585938 
L 321.936213 206.476241 
L 322.046729 206.403799 
L 322.047268 206.403799 
L 322.177773 206.296172 
L 322.177773 206.294102 
L 322.238111 206.269265 
L 322.411536 206.159568 
L 322.510399 206.089196 
L 322.516205 206.089196 
L 322.705638 205.925685 
L 322.820155 205.751825 
L 322.950847 205.642128 
L 323.060492 205.559337 
L 323.061902 205.559337 
L 323.257181 205.44964 
L 323.340369 205.36685 
L 323.565383 205.257152 
L 323.653215 205.19299 
L 323.675899 205.19299 
L 323.835722 205.083293 
L 323.948851 204.981874 
L 324.169012 204.872177 
L 324.276501 204.814224 
L 324.280067 204.814224 
L 324.581675 204.704527 
L 324.671249 204.654852 
L 324.830367 204.545155 
L 324.933605 204.439597 
L 325.383404 204.189156 
L 325.474637 204.145691 
L 325.668672 204.035994 
L 325.722334 203.99046 
L 325.726191 203.99046 
L 326.015523 203.866274 
L 326.197159 203.746228 
L 326.304068 203.686205 
L 326.415455 203.545461 
L 326.539241 203.491647 
L 326.743603 203.38609 
L 326.818123 203.338485 
L 326.828615 203.338485 
L 327.029286 203.255695 
L 327.142954 203.145998 
L 327.298796 203.03837 
L 327.410162 202.94937 
L 327.588584 202.839673 
L 327.697317 202.773441 
L 327.699681 202.773441 
L 327.980181 202.663744 
L 328.095093 202.603721 
L 328.277185 202.494023 
L 328.387535 202.390535 
L 328.388282 202.390535 
L 328.679066 202.289117 
L 328.789665 202.193908 
L 328.957575 202.084211 
L 329.064317 202.026258 
L 329.068671 202.026258 
L 329.179561 201.939328 
L 329.675535 201.622654 
L 329.79024 201.556422 
L 330.116688 201.446725 
L 330.43791 201.310121 
L 330.610796 201.200423 
L 330.719778 201.121773 
L 330.721893 201.121773 
L 330.89565 201.012075 
L 331.004507 200.925145 
L 331.005544 200.925145 
L 331.453166 200.635379 
L 331.715211 200.507054 
L 331.825064 200.420124 
L 331.826225 200.420124 
L 332.05157 200.310427 
L 332.1258 200.287659 
L 332.392325 200.177962 
L 332.712096 200.035149 
L 333.076364 199.925452 
L 333.188787 199.84887 
L 333.368557 199.739173 
L 333.486289 199.654313 
L 333.790758 199.544616 
L 333.904592 199.405942 
L 334.148805 199.296245 
L 334.24601 199.232082 
L 334.25053 199.232082 
L 334.549069 199.122385 
L 334.623963 199.062362 
L 334.627363 199.062362 
L 334.817625 198.952665 
L 334.924409 198.90299 
L 334.928514 198.90299 
L 335.093563 198.793293 
L 335.203208 198.710503 
L 335.203768 198.710503 
L 335.251644 198.600805 
L 335.361995 198.546992 
L 335.362741 198.546992 
L 335.62234 198.437294 
L 335.738164 198.329667 
L 336.011241 198.21997 
L 336.077302 198.157877 
L 336.077509 198.157877 
L 336.358755 198.04818 
L 336.642364 197.866041 
L 336.749605 197.797739 
L 336.751512 197.797739 
L 336.952349 197.688041 
L 337.040637 197.636297 
L 337.215141 197.5266 
L 337.320515 197.435531 
L 337.325242 197.435531 
L 337.571903 197.325833 
L 337.681631 197.284438 
L 337.682999 197.284438 
L 337.847965 197.18302 
L 337.956739 197.067113 
L 337.957278 197.067113 
L 338.568497 196.773208 
L 338.75229 196.66351 
L 338.851153 196.584859 
L 338.862432 196.584859 
L 339.085953 196.475162 
L 339.16657 196.427558 
L 339.169804 196.427558 
L 339.465896 196.305442 
L 339.571643 196.187466 
L 339.576412 196.187466 
L 339.78716 196.077768 
L 339.902072 196.034303 
L 340.121197 195.924606 
L 340.214752 195.829397 
L 340.405097 195.72177 
L 340.990811 195.388538 
L 341.100498 195.324376 
L 341.101493 195.324376 
L 341.226068 195.272632 
L 341.393397 195.20226 
L 341.515317 195.059447 
L 341.669998 194.949749 
L 341.775497 194.881447 
L 341.776326 194.881447 
L 342.108123 194.77175 
L 342.207235 194.68482 
L 342.745468 194.484053 
L 342.856274 194.440588 
L 343.14204 194.318473 
L 343.249197 194.268798 
L 344.351124 193.720312 
L 344.554117 193.610615 
L 344.673342 193.534034 
L 344.763206 193.438825 
L 345.502233 193.118012 
L 345.606446 193.020733 
L 345.613289 193.020733 
L 345.993812 192.911036 
L 346.106278 192.842734 
L 346.318021 192.733037 
L 346.337926 192.718548 
L 346.338216 192.718548 
L 346.629249 192.608851 
L 346.743705 192.563316 
L 346.897743 192.490875 
L 347.204742 192.369794 
L 347.317352 192.145225 
L 347.638201 192.035528 
L 349.022286 191.292484 
L 349.593818 191.019276 
L 349.677048 190.926137 
L 349.684761 190.926137 
L 349.876889 190.816439 
L 349.969366 190.764695 
L 350.20006 190.654998 
L 350.311447 190.609463 
L 350.515519 190.499766 
L 350.625786 190.439743 
L 350.626553 190.439743 
L 350.866185 190.330046 
L 350.988996 190.265883 
L 351.206359 190.156186 
L 351.297011 190.102372 
L 351.5377 189.978187 
L 351.646225 189.895396 
L 351.648008 189.895396 
L 351.86649 189.787769 
L 351.977649 189.736025 
L 352.096418 189.626327 
L 352.208178 189.562165 
L 352.448037 189.452468 
L 352.561415 189.373817 
L 352.722316 189.26412 
L 352.827815 189.216515 
L 353.05486 189.106818 
L 353.165459 189.021958 
L 353.165915 189.021958 
L 353.387528 188.91226 
L 353.486889 188.837749 
L 353.487055 188.837749 
L 353.66724 188.728052 
L 353.778254 188.674238 
L 353.778336 188.674238 
L 354.003371 188.564541 
L 354.115359 188.516936 
L 354.315905 188.407239 
L 354.438033 188.374123 
L 354.65301 188.264426 
L 354.764024 188.154728 
L 354.988955 188.045031 
L 355.09972 187.999496 
L 355.206711 187.891869 
L 355.31731 187.705591 
L 355.317808 187.705591 
L 355.52756 187.597963 
L 355.637703 187.515173 
L 355.638615 187.515173 
L 355.836259 187.405475 
L 355.94889 187.36201 
L 356.177553 187.252313 
L 356.286285 187.173662 
L 356.287073 187.173662 
L 356.5531 187.012221 
L 356.679665 186.906663 
L 356.793747 186.836291 
L 356.928191 186.767989 
L 357.275581 186.612757 
L 357.388378 186.523758 
L 357.524771 186.414061 
L 357.621312 186.383014 
L 357.621893 186.383014 
L 357.663984 186.368526 
L 357.827291 186.136713 
L 357.965716 186.027015 
L 358.079508 185.962853 
L 358.225356 185.875923 
L 358.407158 185.745528 
L 358.721456 185.627552 
L 358.823927 185.569599 
L 358.832386 185.569599 
L 358.981345 185.459901 
L 359.084023 185.377111 
L 359.092234 185.377111 
L 359.243515 185.269483 
L 359.378498 185.20946 
L 359.539275 185.099763 
L 359.641829 185.004554 
L 359.647676 185.004554 
L 359.849342 184.894857 
L 360.226839 184.718927 
L 360.267686 184.69823 
L 360.558636 184.536789 
L 360.669484 184.458138 
L 360.669608 184.458138 
L 360.884752 184.35051 
L 360.988301 184.162162 
L 361.255613 184.052465 
L 361.364388 184.000721 
L 361.366544 184.000721 
L 361.540094 183.891023 
L 361.650776 183.845489 
L 361.651025 183.845489 
L 361.864634 183.734757 
L 362.073598 183.619885 
L 362.188469 183.526746 
L 362.357664 183.417049 
L 362.462416 183.350816 
L 362.466936 183.350816 
L 362.646416 183.270096 
L 363.033078 183.023794 
L 363.22251 182.914097 
L 363.332072 182.812679 
L 363.333565 182.812679 
L 363.529301 182.705051 
L 363.862177 182.529122 
L 364.542815 182.140007 
L 364.723663 181.897845 
L 364.945442 181.707427 
L 365.103607 181.59773 
L 365.206326 181.523218 
L 365.214164 181.523218 
L 365.357234 181.42387 
L 365.472146 181.303824 
L 365.594315 181.196196 
L 365.706282 181.096848 
L 365.896876 180.986116 
L 367.136357 179.900527 
L 367.34105 179.800144 
L 367.766734 179.329273 
L 368.54155 178.809764 
L 368.677197 178.551044 
L 368.85651 178.441346 
L 368.969515 178.346137 
L 369.081856 178.23644 
L 369.18893 178.145371 
L 369.189718 178.145371 
L 369.299239 178.035673 
L 369.394079 177.89493 
L 370.016453 177.360932 
L 370.1081 177.280211 
L 370.108598 177.280211 
L 370.217373 177.185002 
L 370.382877 176.932492 
L 370.483067 176.822794 
L 370.594745 176.69033 
L 370.96544 176.266029 
L 371.080974 176.156332 
L 371.19149 176.056983 
L 371.191988 176.056983 
L 371.28546 175.982472 
L 371.606019 175.454683 
L 371.713632 175.344986 
L 371.822904 175.295312 
L 371.824688 175.295312 
L 371.968545 175.187684 
L 372.08043 175.096615 
L 372.228766 174.986917 
L 372.319501 174.943453 
L 372.319584 174.943453 
L 373.186421 174.229385 
L 373.305521 173.653992 
L 373.519711 173.544295 
L 373.621145 173.438737 
L 373.630393 173.438737 
L 373.674267 173.382854 
L 373.817876 173.082739 
L 373.945229 172.973041 
L 374.050354 172.908879 
L 375.569754 171.627698 
L 375.816787 171.501442 
L 376.406442 171.003665 
L 376.579287 170.849468 
L 376.68126 170.750119 
L 377.28236 170.251307 
L 377.387153 170.14368 
L 377.816404 169.740077 
L 377.967892 169.630379 
L 378.700491 168.984614 
L 378.847666 168.707267 
L 378.939812 168.597569 
L 378.995671 168.543756 
L 378.996086 168.543756 
L 379.213303 168.4175 
L 379.317557 168.301594 
L 379.32357 168.301594 
L 379.415135 168.191897 
L 379.515159 168.104967 
L 379.526211 168.104967 
L 379.588145 167.995269 
L 379.74038 167.769666 
L 379.893837 167.659968 
L 379.998527 167.56269 
L 380.980731 166.35395 
L 381.143582 166.041416 
L 381.202054 165.981393 
L 381.312072 165.782696 
L 381.37436 165.672999 
L 381.37436 165.671964 
L 381.499597 165.480511 
L 381.77425 165.314931 
L 381.884724 165.161768 
L 381.885346 165.161768 
L 381.999595 165.052071 
L 382.108618 164.898909 
L 382.11065 164.898909 
L 382.180111 164.789212 
L 382.29465 164.667096 
L 382.747248 164.153795 
L 382.844245 163.965447 
L 382.987315 163.841262 
L 383.097499 163.715006 
L 383.098411 163.715006 
L 383.240195 163.605309 
L 383.346813 163.470775 
L 383.350587 163.470775 
L 383.452975 163.361077 
L 383.822634 162.870544 
L 383.910757 162.760847 
L 384.02177 162.655289 
L 384.119182 162.548697 
L 384.237287 162.257896 
L 384.411791 162.150268 
L 384.411791 162.148198 
L 384.525459 162.019873 
L 384.618516 161.909141 
L 384.721277 161.682502 
L 384.72418 161.682502 
L 384.899223 161.409294 
L 384.996427 161.299597 
L 385.194154 161.047086 
L 385.395364 160.738692 
L 385.505714 160.600018 
L 385.615152 160.403391 
L 385.61623 160.403391 
L 385.690958 160.293694 
L 385.798032 160.097067 
L 385.802055 160.097067 
L 385.890841 159.998753 
L 386.046683 159.678975 
L 386.122697 159.569278 
L 386.232508 159.46579 
L 386.233544 159.46579 
L 386.294546 159.356093 
L 386.359487 159.236046 
L 386.404896 159.236046 
L 386.482403 159.126349 
L 386.593126 159.002164 
L 388.600414 155.734013 
L 388.713253 155.549805 
L 388.765007 155.440107 
L 388.861879 155.026155 
L 388.862667 155.026155 
L 389.229154 154.314158 
L 389.330816 154.204461 
L 389.440669 154.024392 
L 389.441374 154.024392 
L 389.521244 153.914694 
L 389.636405 153.707718 
L 389.68426 153.600091 
L 389.843876 153.312394 
L 389.981389 153.165441 
L 390.093398 152.937768 
L 390.169743 152.828071 
L 390.283722 152.604537 
L 390.52155 152.300282 
L 390.725393 152.111934 
L 390.773331 152.002236 
L 390.882355 151.855284 
L 390.884345 151.855284 
L 390.947586 151.745586 
L 391.058558 151.503424 
L 391.129181 151.395797 
L 391.234389 151.252983 
L 391.234638 151.252983 
L 391.439041 151.077054 
L 391.55698 150.391963 
L 391.587004 150.282266 
L 391.825329 149.978012 
L 391.945632 149.55785 
L 392.041551 149.448153 
L 392.121504 149.292921 
L 392.121753 149.292921 
L 392.235545 149.183224 
L 392.346517 148.953481 
L 392.395306 148.843783 
L 392.509368 148.518831 
L 392.536986 148.421552 
L 392.751301 148.01174 
L 392.859577 147.902043 
L 392.936752 147.724043 
L 392.937789 147.724043 
L 393.06172 147.611241 
L 393.152228 147.444626 
L 393.248188 147.308022 
L 393.249598 147.308022 
L 393.492858 146.63328 
L 393.561904 146.523583 
L 393.6679 146.362141 
L 393.668605 146.362141 
L 393.694399 146.331095 
L 394.125599 145.716376 
L 394.230724 145.534238 
L 394.309931 145.414192 
L 394.42053 145.25482 
L 394.42082 145.25482 
L 394.502847 145.145123 
L 394.58703 144.90917 
L 394.69485 144.795333 
L 394.804371 144.373102 
L 394.805864 144.373102 
L 394.847458 144.325498 
L 394.957476 139.680957 
L 394.958513 139.680957 
L 395.044189 139.57333 
L 395.153171 139.22975 
L 395.244404 139.033122 
L 395.355459 138.532241 
L 395.3555 138.532241 
L 395.436324 138.422543 
L 395.546882 138.145196 
L 395.5474 138.145196 
L 395.591171 138.035498 
L 395.706332 137.832662 
L 395.800675 137.722965 
L 395.909657 137.50771 
L 395.91173 137.50771 
L 395.932569 137.402152 
L 396.084741 136.868154 
L 396.131104 136.768805 
L 396.245186 136.615643 
L 396.359435 136.504911 
L 396.469163 132.047684 
L 396.470448 132.047684 
L 396.521414 131.937986 
L 396.631723 131.598546 
L 396.63249 131.598546 
L 396.690237 131.488849 
L 396.795984 131.035571 
L 396.796274 131.035571 
L 396.960327 130.925874 
L 397.070512 130.652666 
L 397.070678 130.652666 
L 397.14864 130.542968 
L 397.256046 130.350481 
L 397.25673 130.350481 
L 398.646476 126.867075 
L 398.7922 126.318589 
L 398.855897 126.208892 
L 398.966454 125.902567 
L 398.966993 125.902567 
L 399.01684 125.79287 
L 399.124287 125.407895 
L 399.125448 125.407895 
L 399.302523 124.981524 
L 399.353364 124.871827 
L 399.470889 124.700037 
L 399.515551 124.59034 
L 399.624699 124.201225 
L 399.626607 124.201225 
L 399.678485 124.091528 
L 399.788669 123.787273 
L 399.789333 123.787273 
L 399.837272 123.677576 
L 399.948161 123.251205 
L 399.948285 123.251205 
L 399.992036 123.141508 
L 400.107321 122.930392 
L 400.147339 122.822765 
L 400.30965 122.170791 
L 400.323169 122.094209 
L 400.435925 121.682327 
L 400.470179 121.585049 
L 400.600766 121.191794 
L 400.655879 121.022074 
L 400.76598 120.686773 
L 400.766146 120.686773 
L 400.948736 120.233496 
L 401.149158 119.759521 
L 401.259757 119.285546 
L 401.260255 119.285546 
L 401.265107 119.271057 
L 401.367827 118.724641 
L 401.367868 118.724641 
L 401.578077 118.339665 
L 401.663297 117.950551 
L 401.663338 117.950551 
L 401.70995 117.839819 
L 401.924098 117.255111 
L 401.982072 117.145414 
L 402.093003 116.716974 
L 402.093128 116.716974 
L 402.113365 116.671439 
L 402.276589 116.05879 
L 402.375079 115.876651 
L 402.485844 115.528932 
L 402.486175 115.528932 
L 402.491732 115.504095 
L 402.880633 114.287076 
L 402.914555 114.177379 
L 403.024739 113.616474 
L 403.117133 113.529544 
L 403.356454 113.140429 
L 403.467136 112.573315 
L 403.46726 112.573315 
L 403.536763 112.300107 
L 403.644832 111.817853 
L 403.646947 111.817853 
L 403.821409 111.271436 
L 403.930432 110.865763 
L 403.931345 110.865763 
L 403.96083 110.756066 
L 404.068484 110.561509 
L 404.069894 110.561509 
L 404.077442 110.555299 
L 404.188746 110.151696 
L 404.23544 110.041999 
L 404.341105 109.470745 
L 404.342349 109.470745 
L 404.510839 108.926399 
L 404.62206 108.446214 
L 404.652955 108.361354 
L 404.764425 107.978449 
L 404.991221 107.254033 
L 405.116625 106.67864 
L 405.152994 106.571012 
L 405.152994 106.569977 
L 405.228593 106.297804 
L 405.2638 106.297804 
L 405.321028 106.188107 
L 405.429803 106.001828 
L 405.430176 106.001828 
L 405.515167 105.918003 
L 405.631634 105.351924 
L 405.741902 104.712368 
L 405.742669 104.712368 
L 405.786606 104.602671 
L 405.896873 104.018998 
L 405.897661 104.018998 
L 405.918645 103.936208 
L 405.990138 103.772697 
L 406.080438 103.282164 
L 406.385176 101.953378 
L 406.649088 101.034405 
L 406.654645 101.005428 
L 406.742601 100.589407 
L 406.799477 100.479709 
L 406.916317 99.902246 
L 406.94153 99.794619 
L 406.94153 99.792549 
L 407.060921 99.275109 
L 407.154932 99.059854 
L 407.266029 98.697646 
L 407.292507 98.590019 
L 407.404703 98.217462 
L 407.458033 98.107765 
L 407.569046 97.664836 
L 407.569129 97.664836 
L 407.591647 97.559279 
L 407.722815 97.050118 
L 407.83951 96.389864 
L 407.911937 96.280167 
L 408.04014 95.713053 
L 408.102468 95.603356 
L 408.21089 95.020718 
L 408.388442 94.313895 
L 408.404698 94.204198 
L 408.515587 93.661921 
L 408.51567 93.661921 
L 408.522678 93.626735 
L 408.634397 92.821599 
L 408.669853 92.716041 
L 408.669853 92.713971 
L 408.78066 91.896416 
L 408.780909 91.896416 
L 408.80127 91.786719 
L 408.911786 91.383116 
L 408.912243 91.383116 
L 408.930406 91.273418 
L 409.041254 90.73942 
L 409.041482 90.73942 
L 409.070366 90.633863 
L 409.181421 89.990167 
L 409.203856 89.88047 
L 409.314704 89.379588 
L 409.31487 89.379588 
L 409.337159 89.2761 
L 409.589232 88.274337 
L 409.619214 88.164639 
L 409.709493 87.574758 
L 409.773356 87.415386 
L 409.883789 86.846203 
L 409.884245 86.846203 
L 409.913896 86.736505 
L 409.977261 86.411553 
L 410.08728 85.74716 
L 410.088317 85.74716 
L 410.114567 85.639533 
L 410.225415 85.273185 
L 410.225539 85.273185 
L 410.245569 85.163488 
L 410.355587 84.656397 
L 410.356666 84.656397 
L 410.376944 84.5467 
L 410.498947 83.992004 
L 410.527395 83.801586 
L 410.638409 83.207565 
L 410.665489 83.099938 
L 410.778825 82.536963 
L 410.802089 82.435545 
L 410.916213 81.696641 
L 410.981859 81.491734 
L 411.092914 80.957736 
L 411.114976 80.848039 
L 411.225907 80.071879 
L 411.226073 80.071879 
L 411.242039 79.964252 
L 411.343908 79.560649 
L 411.455316 78.906605 
L 411.470245 78.796907 
L 411.5813 78.184258 
L 411.604565 78.074561 
L 411.714003 77.453633 
L 411.714293 77.453633 
L 411.73623 77.343936 
L 411.847078 76.766473 
L 411.847161 76.766473 
L 411.869264 76.656776 
L 411.980029 75.93236 
L 411.980361 75.93236 
L 411.997198 75.824732 
L 411.997198 75.822663 
L 412.10788 75.116875 
L 412.108129 75.116875 
L 412.122435 75.032014 
L 412.243651 74.270343 
L 412.266915 74.160646 
L 412.392899 73.417602 
L 412.406584 73.307905 
L 412.517474 72.804953 
L 412.51764 72.804953 
L 412.536052 72.695256 
L 412.646941 71.954282 
L 412.646983 71.954282 
L 412.665063 71.844585 
L 412.775994 71.062215 
L 412.79308 70.952518 
L 412.903928 70.255009 
L 412.904011 70.255009 
L 412.925865 70.145312 
L 413.03692 69.396059 
L 413.055747 69.288431 
L 413.166844 68.499853 
L 413.184551 68.390156 
L 413.294985 67.551903 
L 413.295233 67.551903 
L 413.310287 67.442206 
L 413.420927 66.635 
L 413.421342 66.635 
L 413.438593 66.525302 
L 413.548736 65.740863 
L 413.549234 65.740863 
L 413.565075 65.631166 
L 413.676048 64.859146 
L 413.676172 64.859146 
L 413.690603 64.749448 
L 413.8017 63.869801 
L 413.820486 63.760103 
L 413.931582 62.84527 
L 413.945765 62.735572 
L 414.056737 61.700693 
L 414.05682 61.700693 
L 414.068805 61.593065 
L 414.068805 61.590995 
L 414.179736 60.626487 
L 414.179902 60.626487 
L 414.192384 60.51679 
L 414.303439 59.390841 
L 414.316834 59.281143 
L 414.427474 58.062055 
L 414.427931 58.062055 
L 414.436059 57.952358 
L 414.547155 56.621502 
L 414.555408 56.511805 
L 414.666421 54.992601 
L 414.666504 54.992601 
L 414.673927 54.882904 
L 414.72 54.144 
L 414.72 54.144 
" clip-path="url(#pf04e7d775f)" style="fill: none; stroke: #ff8c00; stroke-width: 1.5; stroke-linecap: square"/>
   </g>
   <g id="line2d_14">
    <path d="M 74.605714 307.584 
L 414.72 54.144 
" clip-path="url(#pf04e7d775f)" style="fill: none; stroke-dasharray: 5.55,2.4; stroke-dashoffset: 0; stroke: #0000ff; stroke-width: 1.5"/>
   </g>
   <g id="patch_3">
    <path d="M 57.6 307.584 
L 57.6 41.472 
" style="fill: none; stroke: #000000; stroke-width: 0.8; stroke-linejoin: miter; stroke-linecap: square"/>
   </g>
   <g id="patch_4">
    <path d="M 414.72 307.584 
L 414.72 41.472 
" style="fill: none; stroke: #000000; stroke-width: 0.8; stroke-linejoin: miter; stroke-linecap: square"/>
   </g>
   <g id="patch_5">
    <path d="M 57.6 307.584 
L 414.72 307.584 
" style="fill: none; stroke: #000000; stroke-width: 0.8; stroke-linejoin: miter; stroke-linecap: square"/>
   </g>
   <g id="patch_6">
    <path d="M 57.6 41.472 
L 414.72 41.472 
" style="fill: none; stroke: #000000; stroke-width: 0.8; stroke-linejoin: miter; stroke-linecap: square"/>
   </g>
   <g id="text_15">
    <!-- ROC CURVE -->
    <g transform="translate(200.855625 35.472)scale(0.12 -0.12)">
     <defs>
      <path id="DejaVuSans-4f" d="M 2522 4238 
Q 1834 4238 1429 3725 
Q 1025 3213 1025 2328 
Q 1025 1447 1429 934 
Q 1834 422 2522 422 
Q 3209 422 3611 934 
Q 4013 1447 4013 2328 
Q 4013 3213 3611 3725 
Q 3209 4238 2522 4238 
z
M 2522 4750 
Q 3503 4750 4090 4092 
Q 4678 3434 4678 2328 
Q 4678 1225 4090 567 
Q 3503 -91 2522 -91 
Q 1538 -91 948 565 
Q 359 1222 359 2328 
Q 359 3434 948 4092 
Q 1538 4750 2522 4750 
z
" transform="scale(0.015625)"/>
      <path id="DejaVuSans-43" d="M 4122 4306 
L 4122 3641 
Q 3803 3938 3442 4084 
Q 3081 4231 2675 4231 
Q 1875 4231 1450 3742 
Q 1025 3253 1025 2328 
Q 1025 1406 1450 917 
Q 1875 428 2675 428 
Q 3081 428 3442 575 
Q 3803 722 4122 1019 
L 4122 359 
Q 3791 134 3420 21 
Q 3050 -91 2638 -91 
Q 1578 -91 968 557 
Q 359 1206 359 2328 
Q 359 3453 968 4101 
Q 1578 4750 2638 4750 
Q 3056 4750 3426 4639 
Q 3797 4528 4122 4306 
z
" transform="scale(0.015625)"/>
      <path id="DejaVuSans-55" d="M 556 4666 
L 1191 4666 
L 1191 1831 
Q 1191 1081 1462 751 
Q 1734 422 2344 422 
Q 2950 422 3222 751 
Q 3494 1081 3494 1831 
L 3494 4666 
L 4128 4666 
L 4128 1753 
Q 4128 841 3676 375 
Q 3225 -91 2344 -91 
Q 1459 -91 1007 375 
Q 556 841 556 1753 
L 556 4666 
z
" transform="scale(0.015625)"/>
      <path id="DejaVuSans-56" d="M 1831 0 
L 50 4666 
L 709 4666 
L 2188 738 
L 3669 4666 
L 4325 4666 
L 2547 0 
L 1831 0 
z
" transform="scale(0.015625)"/>
      <path id="DejaVuSans-45" d="M 628 4666 
L 3578 4666 
L 3578 4134 
L 1259 4134 
L 1259 2753 
L 3481 2753 
L 3481 2222 
L 1259 2222 
L 1259 531 
L 3634 531 
L 3634 0 
L 628 0 
L 628 4666 
z
" transform="scale(0.015625)"/>
     </defs>
     <use xlink:href="#DejaVuSans-52"/>
     <use xlink:href="#DejaVuSans-4f" x="69.482422"/>
     <use xlink:href="#DejaVuSans-43" x="148.193359"/>
     <use xlink:href="#DejaVuSans-20" x="218.017578"/>
     <use xlink:href="#DejaVuSans-43" x="249.804688"/>
     <use xlink:href="#DejaVuSans-55" x="319.628906"/>
     <use xlink:href="#DejaVuSans-52" x="392.822266"/>
     <use xlink:href="#DejaVuSans-56" x="456.804688"/>
     <use xlink:href="#DejaVuSans-45" x="525.212891"/>
    </g>
   </g>
   <g id="legend_1">
    <g id="patch_7">
     <path d="M 234.97 302.584 
L 407.72 302.584 
Q 409.72 302.584 409.72 300.584 
L 409.72 286.905875 
Q 409.72 284.905875 407.72 284.905875 
L 234.97 284.905875 
Q 232.97 284.905875 232.97 286.905875 
L 232.97 300.584 
Q 232.97 302.584 234.97 302.584 
z
" style="fill: #ffffff; opacity: 0.8; stroke: #cccccc; stroke-linejoin: miter"/>
    </g>
    <g id="line2d_15">
     <path d="M 236.97 293.004312 
L 246.97 293.004312 
L 256.97 293.004312 
" style="fill: none; stroke: #ff8c00; stroke-width: 1.5; stroke-linecap: square"/>
    </g>
    <g id="text_16">
     <!-- ROC curve (ROC AUC=0.33) -->
     <g transform="translate(264.97 296.504312)scale(0.1 -0.1)">
      <defs>
       <path id="DejaVuSans-63" d="M 3122 3366 
L 3122 2828 
Q 2878 2963 2633 3030 
Q 2388 3097 2138 3097 
Q 1578 3097 1268 2742 
Q 959 2388 959 1747 
Q 959 1106 1268 751 
Q 1578 397 2138 397 
Q 2388 397 2633 464 
Q 2878 531 3122 666 
L 3122 134 
Q 2881 22 2623 -34 
Q 2366 -91 2075 -91 
Q 1284 -91 818 406 
Q 353 903 353 1747 
Q 353 2603 823 3093 
Q 1294 3584 2113 3584 
Q 2378 3584 2631 3529 
Q 2884 3475 3122 3366 
z
" transform="scale(0.015625)"/>
       <path id="DejaVuSans-28" d="M 1984 4856 
Q 1566 4138 1362 3434 
Q 1159 2731 1159 2009 
Q 1159 1288 1364 580 
Q 1569 -128 1984 -844 
L 1484 -844 
Q 1016 -109 783 600 
Q 550 1309 550 2009 
Q 550 2706 781 3412 
Q 1013 4119 1484 4856 
L 1984 4856 
z
" transform="scale(0.015625)"/>
       <path id="DejaVuSans-41" d="M 2188 4044 
L 1331 1722 
L 3047 1722 
L 2188 4044 
z
M 1831 4666 
L 2547 4666 
L 4325 0 
L 3669 0 
L 3244 1197 
L 1141 1197 
L 716 0 
L 50 0 
L 1831 4666 
z
" transform="scale(0.015625)"/>
       <path id="DejaVuSans-3d" d="M 678 2906 
L 4684 2906 
L 4684 2381 
L 678 2381 
L 678 2906 
z
M 678 1631 
L 4684 1631 
L 4684 1100 
L 678 1100 
L 678 1631 
z
" transform="scale(0.015625)"/>
       <path id="DejaVuSans-33" d="M 2597 2516 
Q 3050 2419 3304 2112 
Q 3559 1806 3559 1356 
Q 3559 666 3084 287 
Q 2609 -91 1734 -91 
Q 1441 -91 1130 -33 
Q 819 25 488 141 
L 488 750 
Q 750 597 1062 519 
Q 1375 441 1716 441 
Q 2309 441 2620 675 
Q 2931 909 2931 1356 
Q 2931 1769 2642 2001 
Q 2353 2234 1838 2234 
L 1294 2234 
L 1294 2753 
L 1863 2753 
Q 2328 2753 2575 2939 
Q 2822 3125 2822 3475 
Q 2822 3834 2567 4026 
Q 2313 4219 1838 4219 
Q 1578 4219 1281 4162 
Q 984 4106 628 3988 
L 628 4550 
Q 988 4650 1302 4700 
Q 1616 4750 1894 4750 
Q 2613 4750 3031 4423 
Q 3450 4097 3450 3541 
Q 3450 3153 3228 2886 
Q 3006 2619 2597 2516 
z
" transform="scale(0.015625)"/>
       <path id="DejaVuSans-29" d="M 513 4856 
L 1013 4856 
Q 1481 4119 1714 3412 
Q 1947 2706 1947 2009 
Q 1947 1309 1714 600 
Q 1481 -109 1013 -844 
L 513 -844 
Q 928 -128 1133 580 
Q 1338 1288 1338 2009 
Q 1338 2731 1133 3434 
Q 928 4138 513 4856 
z
" transform="scale(0.015625)"/>
      </defs>
      <use xlink:href="#DejaVuSans-52"/>
      <use xlink:href="#DejaVuSans-4f" x="69.482422"/>
      <use xlink:href="#DejaVuSans-43" x="148.193359"/>
      <use xlink:href="#DejaVuSans-20" x="218.017578"/>
      <use xlink:href="#DejaVuSans-63" x="249.804688"/>
      <use xlink:href="#DejaVuSans-75" x="304.785156"/>
      <use xlink:href="#DejaVuSans-72" x="368.164062"/>
      <use xlink:href="#DejaVuSans-76" x="409.277344"/>
      <use xlink:href="#DejaVuSans-65" x="468.457031"/>
      <use xlink:href="#DejaVuSans-20" x="529.980469"/>
      <use xlink:href="#DejaVuSans-28" x="561.767578"/>
      <use xlink:href="#DejaVuSans-52" x="600.78125"/>
      <use xlink:href="#DejaVuSans-4f" x="670.263672"/>
      <use xlink:href="#DejaVuSans-43" x="748.974609"/>
      <use xlink:href="#DejaVuSans-20" x="818.798828"/>
      <use xlink:href="#DejaVuSans-41" x="850.585938"/>
      <use xlink:href="#DejaVuSans-55" x="918.994141"/>
      <use xlink:href="#DejaVuSans-43" x="992.1875"/>
      <use xlink:href="#DejaVuSans-3d" x="1062.011719"/>
      <use xlink:href="#DejaVuSans-30" x="1145.800781"/>
      <use xlink:href="#DejaVuSans-2e" x="1209.423828"/>
      <use xlink:href="#DejaVuSans-33" x="1241.210938"/>
      <use xlink:href="#DejaVuSans-33" x="1304.833984"/>
      <use xlink:href="#DejaVuSans-29" x="1368.457031"/>
     </g>
    </g>
   </g>
  </g>
 </g>
 <defs>
  <clipPath id="pf04e7d775f">
   <rect x="57.6" y="41.472" width="357.12" height="266.112"/>
  </clipPath>
 </defs>
</svg>
