<?xml version="1.0" encoding="utf-8" standalone="no"?>
<!DOCTYPE svg PUBLIC "-//W3C//DTD SVG 1.1//EN"
  "http://www.w3.org/Graphics/SVG/1.1/DTD/svg11.dtd">
<svg xmlns:xlink="http://www.w3.org/1999/xlink" width="460.8pt" height="345.6pt" viewBox="0 0 460.8 345.6" xmlns="http://www.w3.org/2000/svg" version="1.1">
 <metadata>
  <rdf:RDF xmlns:dc="http://purl.org/dc/elements/1.1/" xmlns:cc="http://creativecommons.org/ns#" xmlns:rdf="http://www.w3.org/1999/02/22-rdf-syntax-ns#">
   <cc:Work>
    <dc:type rdf:resource="http://purl.org/dc/dcmitype/StillImage"/>
    <dc:date>2022-05-25T19:15:37.995835</dc:date>
    <dc:format>image/svg+xml</dc:format>
    <dc:creator>
     <cc:Agent>
      <dc:title>Matplotlib v3.5.1, https://matplotlib.org/</dc:title>
     </cc:Agent>
    </dc:creator>
   </cc:Work>
  </rdf:RDF>
 </metadata>
 <defs>
  <style type="text/css">*{stroke-linejoin: round; stroke-linecap: butt}</style>
 </defs>
 <g id="figure_1">
  <g id="patch_1">
   <path d="M 0 345.6 
L 460.8 345.6 
L 460.8 0 
L 0 0 
z
" style="fill: #ffffff"/>
  </g>
  <g id="axes_1">
   <g id="patch_2">
    <path d="M 57.6 307.584 
L 414.72 307.584 
L 414.72 41.472 
L 57.6 41.472 
z
" style="fill: #ffffff"/>
   </g>
   <g id="matplotlib.axis_1">
    <g id="xtick_1">
     <g id="line2d_1">
      <defs>
       <path id="m67a5772b3a" d="M 0 0 
L 0 3.5 
" style="stroke: #000000; stroke-width: 0.8"/>
      </defs>
      <g>
       <use xlink:href="#m67a5772b3a" x="74.605714" y="307.584" style="stroke: #000000; stroke-width: 0.8"/>
      </g>
     </g>
     <g id="text_1">
      <!-- 0.0 -->
      <g transform="translate(66.654152 322.182437)scale(0.1 -0.1)">
       <defs>
        <path id="DejaVuSans-30" d="M 2034 4250 
Q 1547 4250 1301 3770 
Q 1056 3291 1056 2328 
Q 1056 1369 1301 889 
Q 1547 409 2034 409 
Q 2525 409 2770 889 
Q 3016 1369 3016 2328 
Q 3016 3291 2770 3770 
Q 2525 4250 2034 4250 
z
M 2034 4750 
Q 2819 4750 3233 4129 
Q 3647 3509 3647 2328 
Q 3647 1150 3233 529 
Q 2819 -91 2034 -91 
Q 1250 -91 836 529 
Q 422 1150 422 2328 
Q 422 3509 836 4129 
Q 1250 4750 2034 4750 
z
" transform="scale(0.015625)"/>
        <path id="DejaVuSans-2e" d="M 684 794 
L 1344 794 
L 1344 0 
L 684 0 
L 684 794 
z
" transform="scale(0.015625)"/>
       </defs>
       <use xlink:href="#DejaVuSans-30"/>
       <use xlink:href="#DejaVuSans-2e" x="63.623047"/>
       <use xlink:href="#DejaVuSans-30" x="95.410156"/>
      </g>
     </g>
    </g>
    <g id="xtick_2">
     <g id="line2d_2">
      <g>
       <use xlink:href="#m67a5772b3a" x="142.628571" y="307.584" style="stroke: #000000; stroke-width: 0.8"/>
      </g>
     </g>
     <g id="text_2">
      <!-- 0.2 -->
      <g transform="translate(134.677009 322.182437)scale(0.1 -0.1)">
       <defs>
        <path id="DejaVuSans-32" d="M 1228 531 
L 3431 531 
L 3431 0 
L 469 0 
L 469 531 
Q 828 903 1448 1529 
Q 2069 2156 2228 2338 
Q 2531 2678 2651 2914 
Q 2772 3150 2772 3378 
Q 2772 3750 2511 3984 
Q 2250 4219 1831 4219 
Q 1534 4219 1204 4116 
Q 875 4013 500 3803 
L 500 4441 
Q 881 4594 1212 4672 
Q 1544 4750 1819 4750 
Q 2544 4750 2975 4387 
Q 3406 4025 3406 3419 
Q 3406 3131 3298 2873 
Q 3191 2616 2906 2266 
Q 2828 2175 2409 1742 
Q 1991 1309 1228 531 
z
" transform="scale(0.015625)"/>
       </defs>
       <use xlink:href="#DejaVuSans-30"/>
       <use xlink:href="#DejaVuSans-2e" x="63.623047"/>
       <use xlink:href="#DejaVuSans-32" x="95.410156"/>
      </g>
     </g>
    </g>
    <g id="xtick_3">
     <g id="line2d_3">
      <g>
       <use xlink:href="#m67a5772b3a" x="210.651429" y="307.584" style="stroke: #000000; stroke-width: 0.8"/>
      </g>
     </g>
     <g id="text_3">
      <!-- 0.4 -->
      <g transform="translate(202.699866 322.182437)scale(0.1 -0.1)">
       <defs>
        <path id="DejaVuSans-34" d="M 2419 4116 
L 825 1625 
L 2419 1625 
L 2419 4116 
z
M 2253 4666 
L 3047 4666 
L 3047 1625 
L 3713 1625 
L 3713 1100 
L 3047 1100 
L 3047 0 
L 2419 0 
L 2419 1100 
L 313 1100 
L 313 1709 
L 2253 4666 
z
" transform="scale(0.015625)"/>
       </defs>
       <use xlink:href="#DejaVuSans-30"/>
       <use xlink:href="#DejaVuSans-2e" x="63.623047"/>
       <use xlink:href="#DejaVuSans-34" x="95.410156"/>
      </g>
     </g>
    </g>
    <g id="xtick_4">
     <g id="line2d_4">
      <g>
       <use xlink:href="#m67a5772b3a" x="278.674286" y="307.584" style="stroke: #000000; stroke-width: 0.8"/>
      </g>
     </g>
     <g id="text_4">
      <!-- 0.6 -->
      <g transform="translate(270.722723 322.182437)scale(0.1 -0.1)">
       <defs>
        <path id="DejaVuSans-36" d="M 2113 2584 
Q 1688 2584 1439 2293 
Q 1191 2003 1191 1497 
Q 1191 994 1439 701 
Q 1688 409 2113 409 
Q 2538 409 2786 701 
Q 3034 994 3034 1497 
Q 3034 2003 2786 2293 
Q 2538 2584 2113 2584 
z
M 3366 4563 
L 3366 3988 
Q 3128 4100 2886 4159 
Q 2644 4219 2406 4219 
Q 1781 4219 1451 3797 
Q 1122 3375 1075 2522 
Q 1259 2794 1537 2939 
Q 1816 3084 2150 3084 
Q 2853 3084 3261 2657 
Q 3669 2231 3669 1497 
Q 3669 778 3244 343 
Q 2819 -91 2113 -91 
Q 1303 -91 875 529 
Q 447 1150 447 2328 
Q 447 3434 972 4092 
Q 1497 4750 2381 4750 
Q 2619 4750 2861 4703 
Q 3103 4656 3366 4563 
z
" transform="scale(0.015625)"/>
       </defs>
       <use xlink:href="#DejaVuSans-30"/>
       <use xlink:href="#DejaVuSans-2e" x="63.623047"/>
       <use xlink:href="#DejaVuSans-36" x="95.410156"/>
      </g>
     </g>
    </g>
    <g id="xtick_5">
     <g id="line2d_5">
      <g>
       <use xlink:href="#m67a5772b3a" x="346.697143" y="307.584" style="stroke: #000000; stroke-width: 0.8"/>
      </g>
     </g>
     <g id="text_5">
      <!-- 0.8 -->
      <g transform="translate(338.74558 322.182437)scale(0.1 -0.1)">
       <defs>
        <path id="DejaVuSans-38" d="M 2034 2216 
Q 1584 2216 1326 1975 
Q 1069 1734 1069 1313 
Q 1069 891 1326 650 
Q 1584 409 2034 409 
Q 2484 409 2743 651 
Q 3003 894 3003 1313 
Q 3003 1734 2745 1975 
Q 2488 2216 2034 2216 
z
M 1403 2484 
Q 997 2584 770 2862 
Q 544 3141 544 3541 
Q 544 4100 942 4425 
Q 1341 4750 2034 4750 
Q 2731 4750 3128 4425 
Q 3525 4100 3525 3541 
Q 3525 3141 3298 2862 
Q 3072 2584 2669 2484 
Q 3125 2378 3379 2068 
Q 3634 1759 3634 1313 
Q 3634 634 3220 271 
Q 2806 -91 2034 -91 
Q 1263 -91 848 271 
Q 434 634 434 1313 
Q 434 1759 690 2068 
Q 947 2378 1403 2484 
z
M 1172 3481 
Q 1172 3119 1398 2916 
Q 1625 2713 2034 2713 
Q 2441 2713 2670 2916 
Q 2900 3119 2900 3481 
Q 2900 3844 2670 4047 
Q 2441 4250 2034 4250 
Q 1625 4250 1398 4047 
Q 1172 3844 1172 3481 
z
" transform="scale(0.015625)"/>
       </defs>
       <use xlink:href="#DejaVuSans-30"/>
       <use xlink:href="#DejaVuSans-2e" x="63.623047"/>
       <use xlink:href="#DejaVuSans-38" x="95.410156"/>
      </g>
     </g>
    </g>
    <g id="xtick_6">
     <g id="line2d_6">
      <g>
       <use xlink:href="#m67a5772b3a" x="414.72" y="307.584" style="stroke: #000000; stroke-width: 0.8"/>
      </g>
     </g>
     <g id="text_6">
      <!-- 1.0 -->
      <g transform="translate(406.768438 322.182437)scale(0.1 -0.1)">
       <defs>
        <path id="DejaVuSans-31" d="M 794 531 
L 1825 531 
L 1825 4091 
L 703 3866 
L 703 4441 
L 1819 4666 
L 2450 4666 
L 2450 531 
L 3481 531 
L 3481 0 
L 794 0 
L 794 531 
z
" transform="scale(0.015625)"/>
       </defs>
       <use xlink:href="#DejaVuSans-31"/>
       <use xlink:href="#DejaVuSans-2e" x="63.623047"/>
       <use xlink:href="#DejaVuSans-30" x="95.410156"/>
      </g>
     </g>
    </g>
    <g id="text_7">
     <!-- False Positive Rate -->
     <g transform="translate(189.693594 335.860562)scale(0.1 -0.1)">
      <defs>
       <path id="DejaVuSans-46" d="M 628 4666 
L 3309 4666 
L 3309 4134 
L 1259 4134 
L 1259 2759 
L 3109 2759 
L 3109 2228 
L 1259 2228 
L 1259 0 
L 628 0 
L 628 4666 
z
" transform="scale(0.015625)"/>
       <path id="DejaVuSans-61" d="M 2194 1759 
Q 1497 1759 1228 1600 
Q 959 1441 959 1056 
Q 959 750 1161 570 
Q 1363 391 1709 391 
Q 2188 391 2477 730 
Q 2766 1069 2766 1631 
L 2766 1759 
L 2194 1759 
z
M 3341 1997 
L 3341 0 
L 2766 0 
L 2766 531 
Q 2569 213 2275 61 
Q 1981 -91 1556 -91 
Q 1019 -91 701 211 
Q 384 513 384 1019 
Q 384 1609 779 1909 
Q 1175 2209 1959 2209 
L 2766 2209 
L 2766 2266 
Q 2766 2663 2505 2880 
Q 2244 3097 1772 3097 
Q 1472 3097 1187 3025 
Q 903 2953 641 2809 
L 641 3341 
Q 956 3463 1253 3523 
Q 1550 3584 1831 3584 
Q 2591 3584 2966 3190 
Q 3341 2797 3341 1997 
z
" transform="scale(0.015625)"/>
       <path id="DejaVuSans-6c" d="M 603 4863 
L 1178 4863 
L 1178 0 
L 603 0 
L 603 4863 
z
" transform="scale(0.015625)"/>
       <path id="DejaVuSans-73" d="M 2834 3397 
L 2834 2853 
Q 2591 2978 2328 3040 
Q 2066 3103 1784 3103 
Q 1356 3103 1142 2972 
Q 928 2841 928 2578 
Q 928 2378 1081 2264 
Q 1234 2150 1697 2047 
L 1894 2003 
Q 2506 1872 2764 1633 
Q 3022 1394 3022 966 
Q 3022 478 2636 193 
Q 2250 -91 1575 -91 
Q 1294 -91 989 -36 
Q 684 19 347 128 
L 347 722 
Q 666 556 975 473 
Q 1284 391 1588 391 
Q 1994 391 2212 530 
Q 2431 669 2431 922 
Q 2431 1156 2273 1281 
Q 2116 1406 1581 1522 
L 1381 1569 
Q 847 1681 609 1914 
Q 372 2147 372 2553 
Q 372 3047 722 3315 
Q 1072 3584 1716 3584 
Q 2034 3584 2315 3537 
Q 2597 3491 2834 3397 
z
" transform="scale(0.015625)"/>
       <path id="DejaVuSans-65" d="M 3597 1894 
L 3597 1613 
L 953 1613 
Q 991 1019 1311 708 
Q 1631 397 2203 397 
Q 2534 397 2845 478 
Q 3156 559 3463 722 
L 3463 178 
Q 3153 47 2828 -22 
Q 2503 -91 2169 -91 
Q 1331 -91 842 396 
Q 353 884 353 1716 
Q 353 2575 817 3079 
Q 1281 3584 2069 3584 
Q 2775 3584 3186 3129 
Q 3597 2675 3597 1894 
z
M 3022 2063 
Q 3016 2534 2758 2815 
Q 2500 3097 2075 3097 
Q 1594 3097 1305 2825 
Q 1016 2553 972 2059 
L 3022 2063 
z
" transform="scale(0.015625)"/>
       <path id="DejaVuSans-20" transform="scale(0.015625)"/>
       <path id="DejaVuSans-50" d="M 1259 4147 
L 1259 2394 
L 2053 2394 
Q 2494 2394 2734 2622 
Q 2975 2850 2975 3272 
Q 2975 3691 2734 3919 
Q 2494 4147 2053 4147 
L 1259 4147 
z
M 628 4666 
L 2053 4666 
Q 2838 4666 3239 4311 
Q 3641 3956 3641 3272 
Q 3641 2581 3239 2228 
Q 2838 1875 2053 1875 
L 1259 1875 
L 1259 0 
L 628 0 
L 628 4666 
z
" transform="scale(0.015625)"/>
       <path id="DejaVuSans-6f" d="M 1959 3097 
Q 1497 3097 1228 2736 
Q 959 2375 959 1747 
Q 959 1119 1226 758 
Q 1494 397 1959 397 
Q 2419 397 2687 759 
Q 2956 1122 2956 1747 
Q 2956 2369 2687 2733 
Q 2419 3097 1959 3097 
z
M 1959 3584 
Q 2709 3584 3137 3096 
Q 3566 2609 3566 1747 
Q 3566 888 3137 398 
Q 2709 -91 1959 -91 
Q 1206 -91 779 398 
Q 353 888 353 1747 
Q 353 2609 779 3096 
Q 1206 3584 1959 3584 
z
" transform="scale(0.015625)"/>
       <path id="DejaVuSans-69" d="M 603 3500 
L 1178 3500 
L 1178 0 
L 603 0 
L 603 3500 
z
M 603 4863 
L 1178 4863 
L 1178 4134 
L 603 4134 
L 603 4863 
z
" transform="scale(0.015625)"/>
       <path id="DejaVuSans-74" d="M 1172 4494 
L 1172 3500 
L 2356 3500 
L 2356 3053 
L 1172 3053 
L 1172 1153 
Q 1172 725 1289 603 
Q 1406 481 1766 481 
L 2356 481 
L 2356 0 
L 1766 0 
Q 1100 0 847 248 
Q 594 497 594 1153 
L 594 3053 
L 172 3053 
L 172 3500 
L 594 3500 
L 594 4494 
L 1172 4494 
z
" transform="scale(0.015625)"/>
       <path id="DejaVuSans-76" d="M 191 3500 
L 800 3500 
L 1894 563 
L 2988 3500 
L 3597 3500 
L 2284 0 
L 1503 0 
L 191 3500 
z
" transform="scale(0.015625)"/>
       <path id="DejaVuSans-52" d="M 2841 2188 
Q 3044 2119 3236 1894 
Q 3428 1669 3622 1275 
L 4263 0 
L 3584 0 
L 2988 1197 
Q 2756 1666 2539 1819 
Q 2322 1972 1947 1972 
L 1259 1972 
L 1259 0 
L 628 0 
L 628 4666 
L 2053 4666 
Q 2853 4666 3247 4331 
Q 3641 3997 3641 3322 
Q 3641 2881 3436 2590 
Q 3231 2300 2841 2188 
z
M 1259 4147 
L 1259 2491 
L 2053 2491 
Q 2509 2491 2742 2702 
Q 2975 2913 2975 3322 
Q 2975 3731 2742 3939 
Q 2509 4147 2053 4147 
L 1259 4147 
z
" transform="scale(0.015625)"/>
      </defs>
      <use xlink:href="#DejaVuSans-46"/>
      <use xlink:href="#DejaVuSans-61" x="48.394531"/>
      <use xlink:href="#DejaVuSans-6c" x="109.673828"/>
      <use xlink:href="#DejaVuSans-73" x="137.457031"/>
      <use xlink:href="#DejaVuSans-65" x="189.556641"/>
      <use xlink:href="#DejaVuSans-20" x="251.080078"/>
      <use xlink:href="#DejaVuSans-50" x="282.867188"/>
      <use xlink:href="#DejaVuSans-6f" x="339.544922"/>
      <use xlink:href="#DejaVuSans-73" x="400.726562"/>
      <use xlink:href="#DejaVuSans-69" x="452.826172"/>
      <use xlink:href="#DejaVuSans-74" x="480.609375"/>
      <use xlink:href="#DejaVuSans-69" x="519.818359"/>
      <use xlink:href="#DejaVuSans-76" x="547.601562"/>
      <use xlink:href="#DejaVuSans-65" x="606.78125"/>
      <use xlink:href="#DejaVuSans-20" x="668.304688"/>
      <use xlink:href="#DejaVuSans-52" x="700.091797"/>
      <use xlink:href="#DejaVuSans-61" x="767.324219"/>
      <use xlink:href="#DejaVuSans-74" x="828.603516"/>
      <use xlink:href="#DejaVuSans-65" x="867.8125"/>
     </g>
    </g>
   </g>
   <g id="matplotlib.axis_2">
    <g id="ytick_1">
     <g id="line2d_7">
      <defs>
       <path id="m7a80b87ef5" d="M 0 0 
L -3.5 0 
" style="stroke: #000000; stroke-width: 0.8"/>
      </defs>
      <g>
       <use xlink:href="#m7a80b87ef5" x="57.6" y="307.584" style="stroke: #000000; stroke-width: 0.8"/>
      </g>
     </g>
     <g id="text_8">
      <!-- 0.0 -->
      <g transform="translate(34.696875 311.383219)scale(0.1 -0.1)">
       <use xlink:href="#DejaVuSans-30"/>
       <use xlink:href="#DejaVuSans-2e" x="63.623047"/>
       <use xlink:href="#DejaVuSans-30" x="95.410156"/>
      </g>
     </g>
    </g>
    <g id="ytick_2">
     <g id="line2d_8">
      <g>
       <use xlink:href="#m7a80b87ef5" x="57.6" y="256.896" style="stroke: #000000; stroke-width: 0.8"/>
      </g>
     </g>
     <g id="text_9">
      <!-- 0.2 -->
      <g transform="translate(34.696875 260.695219)scale(0.1 -0.1)">
       <use xlink:href="#DejaVuSans-30"/>
       <use xlink:href="#DejaVuSans-2e" x="63.623047"/>
       <use xlink:href="#DejaVuSans-32" x="95.410156"/>
      </g>
     </g>
    </g>
    <g id="ytick_3">
     <g id="line2d_9">
      <g>
       <use xlink:href="#m7a80b87ef5" x="57.6" y="206.208" style="stroke: #000000; stroke-width: 0.8"/>
      </g>
     </g>
     <g id="text_10">
      <!-- 0.4 -->
      <g transform="translate(34.696875 210.007219)scale(0.1 -0.1)">
       <use xlink:href="#DejaVuSans-30"/>
       <use xlink:href="#DejaVuSans-2e" x="63.623047"/>
       <use xlink:href="#DejaVuSans-34" x="95.410156"/>
      </g>
     </g>
    </g>
    <g id="ytick_4">
     <g id="line2d_10">
      <g>
       <use xlink:href="#m7a80b87ef5" x="57.6" y="155.52" style="stroke: #000000; stroke-width: 0.8"/>
      </g>
     </g>
     <g id="text_11">
      <!-- 0.6 -->
      <g transform="translate(34.696875 159.319219)scale(0.1 -0.1)">
       <use xlink:href="#DejaVuSans-30"/>
       <use xlink:href="#DejaVuSans-2e" x="63.623047"/>
       <use xlink:href="#DejaVuSans-36" x="95.410156"/>
      </g>
     </g>
    </g>
    <g id="ytick_5">
     <g id="line2d_11">
      <g>
       <use xlink:href="#m7a80b87ef5" x="57.6" y="104.832" style="stroke: #000000; stroke-width: 0.8"/>
      </g>
     </g>
     <g id="text_12">
      <!-- 0.8 -->
      <g transform="translate(34.696875 108.631219)scale(0.1 -0.1)">
       <use xlink:href="#DejaVuSans-30"/>
       <use xlink:href="#DejaVuSans-2e" x="63.623047"/>
       <use xlink:href="#DejaVuSans-38" x="95.410156"/>
      </g>
     </g>
    </g>
    <g id="ytick_6">
     <g id="line2d_12">
      <g>
       <use xlink:href="#m7a80b87ef5" x="57.6" y="54.144" style="stroke: #000000; stroke-width: 0.8"/>
      </g>
     </g>
     <g id="text_13">
      <!-- 1.0 -->
      <g transform="translate(34.696875 57.943219)scale(0.1 -0.1)">
       <use xlink:href="#DejaVuSans-31"/>
       <use xlink:href="#DejaVuSans-2e" x="63.623047"/>
       <use xlink:href="#DejaVuSans-30" x="95.410156"/>
      </g>
     </g>
    </g>
    <g id="text_14">
     <!-- True Positive Rate -->
     <g transform="translate(28.617187 219.057687)rotate(-90)scale(0.1 -0.1)">
      <defs>
       <path id="DejaVuSans-54" d="M -19 4666 
L 3928 4666 
L 3928 4134 
L 2272 4134 
L 2272 0 
L 1638 0 
L 1638 4134 
L -19 4134 
L -19 4666 
z
" transform="scale(0.015625)"/>
       <path id="DejaVuSans-72" d="M 2631 2963 
Q 2534 3019 2420 3045 
Q 2306 3072 2169 3072 
Q 1681 3072 1420 2755 
Q 1159 2438 1159 1844 
L 1159 0 
L 581 0 
L 581 3500 
L 1159 3500 
L 1159 2956 
Q 1341 3275 1631 3429 
Q 1922 3584 2338 3584 
Q 2397 3584 2469 3576 
Q 2541 3569 2628 3553 
L 2631 2963 
z
" transform="scale(0.015625)"/>
       <path id="DejaVuSans-75" d="M 544 1381 
L 544 3500 
L 1119 3500 
L 1119 1403 
Q 1119 906 1312 657 
Q 1506 409 1894 409 
Q 2359 409 2629 706 
Q 2900 1003 2900 1516 
L 2900 3500 
L 3475 3500 
L 3475 0 
L 2900 0 
L 2900 538 
Q 2691 219 2414 64 
Q 2138 -91 1772 -91 
Q 1169 -91 856 284 
Q 544 659 544 1381 
z
M 1991 3584 
L 1991 3584 
z
" transform="scale(0.015625)"/>
      </defs>
      <use xlink:href="#DejaVuSans-54"/>
      <use xlink:href="#DejaVuSans-72" x="46.333984"/>
      <use xlink:href="#DejaVuSans-75" x="87.447266"/>
      <use xlink:href="#DejaVuSans-65" x="150.826172"/>
      <use xlink:href="#DejaVuSans-20" x="212.349609"/>
      <use xlink:href="#DejaVuSans-50" x="244.136719"/>
      <use xlink:href="#DejaVuSans-6f" x="300.814453"/>
      <use xlink:href="#DejaVuSans-73" x="361.996094"/>
      <use xlink:href="#DejaVuSans-69" x="414.095703"/>
      <use xlink:href="#DejaVuSans-74" x="441.878906"/>
      <use xlink:href="#DejaVuSans-69" x="481.087891"/>
      <use xlink:href="#DejaVuSans-76" x="508.871094"/>
      <use xlink:href="#DejaVuSans-65" x="568.050781"/>
      <use xlink:href="#DejaVuSans-20" x="629.574219"/>
      <use xlink:href="#DejaVuSans-52" x="661.361328"/>
      <use xlink:href="#DejaVuSans-61" x="728.59375"/>
      <use xlink:href="#DejaVuSans-74" x="789.873047"/>
      <use xlink:href="#DejaVuSans-65" x="829.082031"/>
     </g>
    </g>
   </g>
   <g id="line2d_13">
    <path d="M 74.605714 307.584 
L 74.813095 307.210638 
L 74.877309 307.100704 
L 74.988058 306.951359 
L 75.066597 306.841425 
L 75.176642 306.687932 
L 75.177636 306.687932 
L 75.286895 306.577998 
L 75.400252 306.465989 
L 75.499699 306.356055 
L 75.607715 306.258566 
L 75.610779 306.258566 
L 75.721114 306.148632 
L 75.83116 306.026252 
L 75.831988 306.026252 
L 75.962693 305.916318 
L 76.073608 305.802235 
L 76.07369 305.802235 
L 76.200462 305.692301 
L 76.308727 305.603109 
L 76.311542 305.603109 
L 76.434464 305.493174 
L 76.547366 305.395686 
L 76.65443 305.285751 
L 76.764724 305.192411 
L 76.765511 305.192411 
L 76.895056 305.082477 
L 77.005433 304.955948 
L 77.006095 304.955948 
L 77.108233 304.844977 
L 77.215049 304.738154 
L 77.219314 304.738154 
L 77.353124 304.62822 
L 77.463169 304.518286 
L 77.463997 304.518286 
L 77.56481 304.408351 
L 77.6744 304.308788 
L 77.675766 304.308788 
L 77.77128 304.198854 
L 77.884347 304.099291 
L 77.982097 303.989356 
L 78.093094 303.875274 
L 78.219824 303.765339 
L 78.329166 303.645034 
L 78.330822 303.645034 
L 78.416482 303.5351 
L 78.416482 303.534063 
L 78.532406 303.41272 
L 78.641168 303.302786 
L 78.751172 303.18248 
L 78.752166 303.18248 
L 78.870243 303.072546 
L 78.981034 302.956389 
L 78.981282 302.956389 
L 79.103334 302.848529 
L 79.103334 302.846455 
L 79.212759 302.730298 
L 79.214208 302.730298 
L 79.316387 302.620364 
L 79.425894 302.487613 
L 79.427343 302.487613 
L 79.522981 302.377678 
L 79.632985 302.242853 
L 79.634082 302.242853 
L 79.770355 302.132919 
L 79.881022 302.022985 
L 79.881436 302.022985 
L 79.983325 301.913051 
L 80.089065 301.792745 
L 80.094405 301.792745 
L 80.204368 301.682811 
L 80.313047 301.581173 
L 80.315407 301.581173 
L 80.446236 301.471239 
L 80.556406 301.344711 
L 80.557151 301.344711 
L 80.657715 301.234777 
L 80.765815 301.122768 
L 80.768796 301.122768 
L 80.889026 301.012834 
L 80.998161 300.867638 
L 81.000107 300.867638 
L 81.091231 300.757703 
L 81.202271 300.61873 
L 81.345065 300.508796 
L 81.455193 300.371896 
L 81.456145 300.371896 
L 81.567267 300.261962 
L 81.675946 300.139582 
L 81.678306 300.139582 
L 81.768768 300.028611 
L 81.877199 299.859561 
L 81.879725 299.859561 
L 81.956856 299.749627 
L 82.067067 299.612728 
L 82.067854 299.612728 
L 82.172682 299.502793 
L 82.283639 299.345152 
L 82.283763 299.345152 
L 82.374515 299.235217 
L 82.485016 299.092095 
L 82.485554 299.092095 
L 82.567902 298.982161 
L 82.676208 298.828668 
L 82.678941 298.828668 
L 82.768824 298.718734 
L 82.768824 298.717697 
L 82.882388 298.588057 
L 82.957284 298.478123 
L 83.067578 298.361966 
L 83.068364 298.361966 
L 83.142597 298.252032 
L 83.253098 298.117207 
L 83.253512 298.117207 
L 83.327083 298.007272 
L 83.437956 297.855853 
L 83.438163 297.855853 
L 83.506724 297.747993 
L 83.616645 297.553016 
L 83.617722 297.553016 
L 83.680073 297.443081 
L 83.789746 297.293737 
L 83.791112 297.293737 
L 83.85458 297.183802 
L 83.965123 297.030309 
L 83.965619 297.030309 
L 84.077031 296.920375 
L 84.187863 296.746139 
L 84.188112 296.746139 
L 84.260564 296.636205 
L 84.368374 296.474415 
L 84.371521 296.474415 
L 84.448362 296.364481 
L 84.558283 296.210988 
L 84.559442 296.210988 
L 84.634876 296.101053 
L 84.745915 295.924744 
L 84.745957 295.924744 
L 84.811578 295.814809 
L 84.920381 295.667539 
L 84.922617 295.667539 
L 85.023389 295.556568 
L 85.131074 295.370924 
L 85.134469 295.370924 
L 85.202078 295.260989 
L 85.316677 295.08468 
L 85.378366 294.974746 
L 85.378366 294.973708 
L 85.496402 294.80051 
L 85.563472 294.690576 
L 85.673228 294.522563 
L 85.674573 294.522563 
L 85.750732 294.412629 
L 85.750732 294.411592 
L 85.869885 294.211428 
L 85.940392 294.101494 
L 86.05081 293.898219 
L 86.051473 293.898219 
L 86.136263 293.788285 
L 86.136263 293.787248 
L 86.251194 293.582936 
L 86.317975 293.473002 
L 86.428641 293.286321 
L 86.429014 293.286321 
L 86.479979 293.176387 
L 86.590936 292.968963 
L 86.643184 292.859029 
L 86.75855 292.643309 
L 86.826262 292.533375 
L 86.933782 292.338397 
L 86.937343 292.338397 
L 87.003544 292.227426 
L 87.117067 292.04593 
L 87.18451 291.934959 
L 87.292154 291.757612 
L 87.295549 291.757612 
L 87.36943 291.647678 
L 87.482105 291.490036 
L 87.538908 291.380102 
L 87.65417 291.172679 
L 87.732915 291.062745 
L 87.842919 290.842876 
L 87.843955 290.842876 
L 87.903428 290.731905 
L 88.017676 290.5753 
L 88.069428 290.465366 
L 88.179349 290.262091 
L 88.180529 290.262091 
L 88.246626 290.152157 
L 88.35692 289.984144 
L 88.357665 289.984144 
L 88.423287 289.873173 
L 88.530807 289.695826 
L 88.534367 289.695826 
L 88.592412 289.584854 
L 88.711235 289.392988 
L 88.784723 289.283054 
L 88.895596 289.09015 
L 88.895803 289.09015 
L 88.966 288.980216 
L 89.079088 288.78109 
L 89.144461 288.671155 
L 89.254527 288.480326 
L 89.255169 288.480326 
L 89.328491 288.370392 
L 89.439282 288.150523 
L 89.439406 288.150523 
L 89.493642 288.040589 
L 89.60435 287.843537 
L 89.604681 287.843537 
L 89.670841 287.732566 
L 89.781632 287.513734 
L 89.78188 287.513734 
L 89.835536 287.4038 
L 89.945623 287.154892 
L 89.946534 287.154892 
L 89.999901 287.044958 
L 90.109781 286.823015 
L 90.110857 286.823015 
L 90.171138 286.713081 
L 90.280127 286.51188 
L 90.282218 286.51188 
L 90.34962 286.401946 
L 90.460411 286.155112 
L 90.4607 286.155112 
L 90.510589 286.045178 
L 90.620386 285.819087 
L 90.621587 285.819087 
L 90.681516 285.708115 
L 90.79626 285.524546 
L 90.861385 285.414612 
L 90.861385 285.413574 
L 90.977185 285.174001 
L 91.041813 285.064066 
L 91.152355 284.862866 
L 91.152811 284.862866 
L 91.196489 284.751895 
L 91.305665 284.522692 
L 91.30757 284.522692 
L 91.368389 284.411721 
L 91.47653 284.199112 
L 91.47949 284.199112 
L 91.541489 284.089178 
L 91.650292 283.858938 
L 91.652569 283.858938 
L 91.721876 283.749004 
L 91.836931 283.551952 
L 91.890214 283.442017 
L 91.998645 283.188961 
L 92.001295 283.188961 
L 92.116971 282.960796 
L 92.172118 282.850861 
L 92.282018 282.657958 
L 92.283178 282.657958 
L 92.340125 282.548023 
L 92.450999 282.344749 
L 92.451227 282.344749 
L 92.504904 282.234814 
L 92.615032 282.025317 
L 92.615984 282.025317 
L 92.66844 281.914346 
L 92.778858 281.712108 
L 92.779521 281.712108 
L 92.834253 281.602174 
L 92.944154 281.407196 
L 92.945334 281.407196 
L 93.011866 281.297262 
L 93.115908 281.106432 
L 93.122905 281.106432 
L 93.18861 280.996498 
L 93.299607 280.793223 
L 93.29969 280.793223 
L 93.373799 280.682252 
L 93.48372 280.482089 
L 93.4849 280.482089 
L 93.549342 280.372154 
L 93.660319 280.137766 
L 93.660381 280.137766 
L 93.714782 280.026795 
L 93.848675 279.745736 
L 93.91736 279.635802 
L 94.027861 279.43875 
L 94.028441 279.43875 
L 94.088018 279.328816 
L 94.19885 279.117244 
L 94.199057 279.117244 
L 94.267825 279.00731 
L 94.377746 278.79159 
L 94.378843 278.79159 
L 94.440635 278.681656 
L 94.550556 278.472158 
L 94.551715 278.472158 
L 94.614646 278.362224 
L 94.72347 278.136133 
L 94.725726 278.136133 
L 94.840906 277.924561 
L 94.904167 277.814627 
L 95.019057 277.625872 
L 95.095525 277.515937 
L 95.20466 277.327182 
L 95.206564 277.327182 
L 95.26995 277.217248 
L 95.380534 276.96834 
L 95.381031 276.96834 
L 95.434977 276.858406 
L 95.545354 276.661354 
L 95.546078 276.661354 
L 95.61437 276.55142 
L 95.72218 276.352293 
L 95.72545 276.352293 
L 95.777161 276.241322 
L 95.90327 275.993451 
L 95.94935 275.883517 
L 96.060306 275.64498 
L 96.060431 275.64498 
L 96.125017 275.535046 
L 96.234566 275.302732 
L 96.236118 275.302732 
L 96.290955 275.191761 
L 96.401538 274.94389 
L 96.402056 274.94389 
L 96.460142 274.833956 
L 96.572817 274.653498 
L 96.631483 274.543563 
L 96.742191 274.346511 
L 96.742522 274.346511 
L 96.798455 274.236577 
L 96.909412 274.049896 
L 96.909494 274.049896 
L 96.966297 273.939962 
L 96.966297 273.938925 
L 97.098493 273.678609 
L 97.157076 273.568674 
L 97.266542 273.381994 
L 97.268156 273.381994 
L 97.331998 273.271022 
L 97.442954 273.085378 
L 97.513337 272.975444 
L 97.620691 272.747279 
L 97.624334 272.747279 
L 97.681924 272.637344 
L 97.681924 272.636307 
L 97.812463 272.396733 
L 97.870135 272.286799 
L 97.981092 272.079376 
L 97.981216 272.079376 
L 98.06021 271.969442 
L 98.175224 271.770316 
L 98.233724 271.660381 
L 98.350187 271.372063 
L 98.410302 271.262129 
L 98.5213 271.071299 
L 98.521382 271.071299 
L 98.595657 270.961365 
L 98.710546 270.770536 
L 98.77004 270.660602 
L 98.880334 270.46355 
L 98.880914 270.46355 
L 98.933742 270.353615 
L 99.044802 270.135821 
L 99.098562 270.02485 
L 99.208814 269.835057 
L 99.209642 269.835057 
L 99.270337 269.725123 
L 99.381211 269.521848 
L 99.430706 269.411914 
L 99.546155 269.19412 
L 99.6048 269.084185 
L 99.718075 268.866391 
L 99.773449 268.756457 
L 99.773449 268.75542 
L 99.893679 268.526217 
L 99.959177 268.416283 
L 100.069926 268.23375 
L 100.070257 268.23375 
L 100.14536 268.123816 
L 100.256399 267.926764 
L 100.328645 267.81683 
L 100.439518 267.617704 
L 100.439725 267.617704 
L 100.518264 267.507769 
L 100.627978 267.292049 
L 100.629324 267.292049 
L 100.696332 267.182115 
L 100.809731 266.945653 
L 100.873655 266.835718 
L 100.983452 266.61585 
L 100.984735 266.61585 
L 101.057188 266.505915 
L 101.17245 266.296418 
L 101.231199 266.185447 
L 101.352195 265.93965 
L 101.404837 265.828679 
L 101.515007 265.628515 
L 101.515752 265.628515 
L 101.584189 265.517544 
L 101.695228 265.313232 
L 101.748802 265.203298 
L 101.857833 264.989652 
L 101.859882 264.989652 
L 101.980899 264.742819 
L 102.043001 264.632884 
L 102.155779 264.456575 
L 102.215191 264.345603 
L 102.326105 264.151662 
L 102.326292 264.151662 
L 102.385186 264.041728 
L 102.4961 263.869567 
L 102.496287 263.869567 
L 102.556071 263.759633 
L 102.67272 263.570878 
L 102.732503 263.460943 
L 102.847683 263.255594 
L 102.925021 263.14566 
L 103.03606 262.92994 
L 103.036101 262.92994 
L 103.100481 262.820006 
L 103.214956 262.649919 
L 103.30103 262.539984 
L 103.420432 262.332561 
L 103.484957 262.222627 
L 103.60322 261.98409 
L 103.667807 261.874156 
L 103.777687 261.693698 
L 103.778887 261.693698 
L 103.837512 261.583764 
L 103.958053 261.349375 
L 104.015539 261.239441 
L 104.125832 261.069354 
L 104.126578 261.069354 
L 104.185306 260.95942 
L 104.298477 260.749922 
L 104.369357 260.639988 
L 104.483832 260.469901 
L 104.554504 260.35893 
L 104.680324 260.115208 
L 104.744455 260.005273 
L 104.855453 259.824815 
L 104.855494 259.824815 
L 104.911572 259.714881 
L 105.024288 259.548942 
L 105.092518 259.439008 
L 105.202274 259.235733 
L 105.203599 259.235733 
L 105.269551 259.125799 
L 105.38059 258.940155 
L 105.510467 258.708879 
L 105.575902 258.598944 
L 105.688908 258.402929 
L 105.816632 258.198618 
L 105.879272 258.088683 
L 105.988324 257.885409 
L 105.990146 257.885409 
L 106.076965 257.775474 
L 106.18788 257.576348 
L 106.187963 257.576348 
L 106.243482 257.466414 
L 106.354397 257.232026 
L 106.354521 257.232026 
L 106.439891 257.122091 
L 106.565255 256.947856 
L 106.624087 256.837922 
L 106.733967 256.659538 
L 106.735043 256.659538 
L 106.813582 256.549603 
L 106.928471 256.358774 
L 106.99902 256.24884 
L 107.11482 256.012377 
L 107.188805 255.902443 
L 107.304232 255.6805 
L 107.377223 255.570566 
L 107.494928 255.406702 
L 107.565725 255.296767 
L 107.681525 255.058231 
L 107.743027 254.948296 
L 107.85595 254.76369 
L 107.915154 254.653756 
L 108.030416 254.446332 
L 108.09198 254.336398 
L 108.204738 254.164237 
L 108.258953 254.056377 
L 108.258953 254.053265 
L 108.377527 253.865547 
L 108.440871 253.755613 
L 108.549344 253.560635 
L 108.551911 253.560635 
L 108.617615 253.450701 
L 108.732711 253.249501 
L 108.809635 253.139566 
L 108.927671 252.967405 
L 108.99528 252.857471 
L 109.106195 252.639677 
L 109.106278 252.639677 
L 109.172168 252.529742 
L 109.289977 252.363804 
L 109.370793 252.253869 
L 109.480507 252.038149 
L 109.481832 252.038149 
L 109.532549 251.928215 
L 109.65104 251.743608 
L 109.737818 251.633674 
L 109.845048 251.45529 
L 109.848898 251.45529 
L 109.924373 251.345356 
L 110.034212 251.150378 
L 110.035371 251.150378 
L 110.094327 251.041481 
L 110.094327 251.040444 
L 110.205407 250.886951 
L 110.27343 250.777016 
L 110.39337 250.557148 
L 110.458992 250.447214 
L 110.573467 250.279201 
L 110.64385 250.169267 
L 110.747437 250.026145 
L 110.754889 250.026145 
L 110.836823 249.91621 
L 110.836823 249.915173 
L 110.963429 249.725381 
L 111.029299 249.615447 
L 111.153462 249.399727 
L 111.225791 249.289792 
L 111.334635 249.115557 
L 111.33683 249.115557 
L 111.414292 249.005623 
L 111.522723 248.872872 
L 111.52529 248.872872 
L 111.600558 248.762938 
L 111.726874 248.576257 
L 111.798871 248.466322 
L 111.908213 248.292087 
L 111.909869 248.292087 
L 111.99023 248.182153 
L 112.100441 248.01414 
L 112.101227 248.01414 
L 112.195706 247.904206 
L 112.315894 247.678114 
L 112.383834 247.56818 
L 112.492307 247.387722 
L 112.494915 247.387722 
L 112.567947 247.277788 
L 112.678614 247.097329 
L 112.679028 247.097329 
L 112.738398 246.987395 
L 112.738398 246.986358 
L 112.861609 246.786195 
L 112.912367 246.675223 
L 113.030941 246.48958 
L 113.111343 246.378608 
L 113.220188 246.15148 
L 113.222382 246.15148 
L 113.297112 246.041546 
L 113.406309 245.840345 
L 113.408192 245.840345 
L 113.527305 245.641219 
L 113.597646 245.530247 
L 113.705187 245.365346 
L 113.708685 245.365346 
L 113.803412 245.255412 
L 113.91412 245.085325 
L 113.914389 245.085325 
L 113.972703 244.97539 
L 114.082624 244.805303 
L 114.083804 244.805303 
L 114.154332 244.695369 
L 114.269056 244.510763 
L 114.348381 244.400828 
L 114.462691 244.241112 
L 114.545328 244.131178 
L 114.650654 243.967314 
L 114.656243 243.967314 
L 114.747948 243.85738 
L 114.858821 243.672773 
L 114.858987 243.672773 
L 114.936822 243.562839 
L 115.051421 243.384455 
L 115.126648 243.27452 
L 115.240958 243.11273 
L 115.318544 243.002796 
L 115.427638 242.853451 
L 115.429625 242.853451 
L 115.548572 242.658474 
L 115.605913 242.549576 
L 115.605913 242.548539 
L 115.719933 242.401269 
L 115.788246 242.291335 
L 115.902017 242.154435 
L 115.985296 242.043464 
L 116.098964 241.913824 
L 116.186736 241.80389 
L 116.303074 241.629655 
L 116.369482 241.51972 
L 116.475926 241.347559 
L 116.480584 241.347559 
L 116.560054 241.237625 
L 116.669892 241.032276 
L 116.671052 241.032276 
L 116.742345 240.921305 
L 116.856034 240.791665 
L 116.934159 240.681731 
L 117.048365 240.524089 
L 117.125889 240.414155 
L 117.235935 240.26481 
L 117.236887 240.26481 
L 117.294932 240.154876 
L 117.422449 239.99516 
L 117.476933 239.885226 
L 117.58789 239.696471 
L 117.587972 239.696471 
L 117.651317 239.586536 
L 117.761694 239.424746 
L 117.762356 239.424746 
L 117.835099 239.314812 
L 117.94945 239.153022 
L 118.016334 239.043088 
L 118.136419 238.864704 
L 118.203034 238.75477 
L 118.312293 238.615796 
L 118.314053 238.615796 
L 118.393565 238.505862 
L 118.516941 238.356517 
L 118.572419 238.246583 
L 118.683376 238.091015 
L 118.683521 238.091015 
L 118.757443 237.981081 
L 118.876348 237.784029 
L 118.94789 237.674095 
L 119.066589 237.48534 
L 119.151214 237.375405 
L 119.265855 237.197022 
L 119.350065 237.087087 
L 119.468681 236.900406 
L 119.529769 236.790472 
L 119.660122 236.580975 
L 119.727855 236.47104 
L 119.727855 236.470003 
L 119.846015 236.294731 
L 119.928114 236.184796 
L 120.042673 236.010561 
L 120.12059 235.900627 
L 120.242766 235.718094 
L 120.309837 235.60816 
L 120.423567 235.475409 
L 120.498152 235.365475 
L 120.622833 235.174646 
L 120.69245 235.064711 
L 120.817172 234.840694 
L 120.906682 234.73076 
L 121.024884 234.55445 
L 121.089802 234.444516 
L 121.089802 234.443479 
L 121.215331 234.266132 
L 121.298403 234.156198 
L 121.417081 234.006853 
L 121.477693 233.896919 
L 121.587242 233.735129 
L 121.588691 233.735129 
L 121.652905 233.625195 
L 121.766924 233.479998 
L 121.836852 233.370064 
L 121.954184 233.212422 
L 122.022621 233.102488 
L 122.133163 232.97596 
L 122.133722 232.97596 
L 122.19423 232.866026 
L 122.305104 232.702161 
L 122.305166 232.702161 
L 122.389811 232.592227 
L 122.503707 232.453254 
L 122.599076 232.343319 
L 122.722846 232.164935 
L 122.799066 232.055001 
L 122.920559 231.884914 
L 122.986864 231.77498 
L 123.10138 231.602819 
L 123.205795 231.492884 
L 123.315634 231.36843 
L 123.316876 231.36843 
L 123.388459 231.258496 
L 123.502727 231.100855 
L 123.590375 230.99092 
L 123.704312 230.849873 
L 123.788895 230.739938 
L 123.898734 230.582297 
L 123.899976 230.582297 
L 123.990604 230.472362 
L 124.108308 230.308498 
L 124.200344 230.198564 
L 124.314654 230.038848 
L 124.407849 229.928914 
L 124.517563 229.781643 
L 124.518929 229.781643 
L 124.636758 229.61363 
L 124.708507 229.503696 
L 124.819132 229.346055 
L 124.819588 229.346055 
L 124.912017 229.23612 
L 125.033178 229.036994 
L 125.102236 228.92706 
L 125.220438 228.746602 
L 125.310921 228.636667 
L 125.427322 228.460358 
L 125.512526 228.350423 
L 125.62725 228.163743 
L 125.722266 228.053808 
L 125.831753 227.908612 
L 125.833347 227.908612 
L 125.945918 227.742673 
L 126.032985 227.632739 
L 126.142948 227.487543 
L 126.143983 227.487543 
L 126.2077 227.377609 
L 126.318367 227.21167 
L 126.318781 227.21167 
L 126.409657 227.101736 
L 126.524008 226.939946 
L 126.602423 226.830012 
L 126.720335 226.659925 
L 126.807588 226.548953 
L 126.922354 226.361235 
L 126.997829 226.251301 
L 127.116258 226.106105 
L 127.215663 225.99617 
L 127.329435 225.859271 
L 127.432939 225.7483 
L 127.542653 225.591695 
L 127.543854 225.591695 
L 127.628561 225.481761 
L 127.745148 225.344862 
L 127.832423 225.234927 
L 127.946981 225.060692 
L 128.02701 224.950758 
L 128.140699 224.822155 
L 128.22019 224.712221 
L 128.343277 224.515169 
L 128.420739 224.405235 
L 128.531488 224.257964 
L 128.53182 224.257964 
L 128.631639 224.150104 
L 128.745742 223.998685 
L 128.866303 223.843118 
L 128.938611 223.733184 
L 129.054473 223.575542 
L 129.131853 223.465608 
L 129.250386 223.281001 
L 129.31845 223.171067 
L 129.42953 223.011351 
L 129.429551 223.011351 
L 129.525251 222.901417 
L 129.637739 222.760369 
L 129.696902 222.650435 
L 129.81411 222.499016 
L 129.887639 222.389081 
L 129.998471 222.208623 
L 129.998636 222.208623 
L 130.068854 222.097652 
L 130.184323 221.930676 
L 130.274661 221.820742 
L 130.39634 221.646507 
L 130.461465 221.536572 
L 130.575857 221.370634 
L 130.681763 221.260699 
L 130.801082 221.053276 
L 130.871754 220.943342 
L 130.979192 220.781552 
L 130.982814 220.781552 
L 131.053549 220.671618 
L 131.173613 220.524347 
L 131.253187 220.414413 
L 131.377889 220.248474 
L 131.454151 220.13854 
L 131.571255 219.989195 
L 131.641617 219.879261 
L 131.762303 219.72162 
L 131.828711 219.611685 
L 131.949272 219.456118 
L 132.036526 219.346184 
L 132.152678 219.176097 
L 132.22629 219.066162 
L 132.348011 218.891927 
L 132.452177 218.781993 
L 132.56628 218.626425 
L 132.660344 218.516491 
L 132.769645 218.375443 
L 132.771425 218.375443 
L 132.850502 218.265509 
L 132.972409 218.087125 
L 133.070593 217.977191 
L 133.193804 217.82992 
L 133.263628 217.719986 
L 133.376136 217.568567 
L 133.46722 217.458633 
L 133.58124 217.313437 
L 133.69733 217.147498 
L 133.786675 217.037564 
L 133.897507 216.890293 
L 133.897755 216.890293 
L 133.978695 216.779322 
L 134.093295 216.599901 
L 134.182722 216.489967 
L 134.182722 216.488929 
L 134.300303 216.328176 
L 134.367083 216.218242 
L 134.488059 216.054378 
L 134.562789 215.944444 
L 134.69221 215.76606 
L 134.776835 215.656125 
L 134.894229 215.500558 
L 134.985499 215.390624 
L 135.098277 215.218462 
L 135.197061 215.108528 
L 135.315966 214.952961 
L 135.398314 214.843027 
L 135.526866 214.670865 
L 135.63658 214.560931 
L 135.750932 214.392918 
L 135.838951 214.282984 
L 135.953716 214.092155 
L 136.029771 213.98222 
L 136.147931 213.805911 
L 136.234295 213.695976 
L 136.348853 213.521741 
L 136.441427 213.411807 
L 136.558904 213.254165 
L 136.635642 213.144231 
L 136.752105 213.007332 
L 136.832382 212.897397 
L 136.943318 212.760498 
L 137.017447 212.650564 
L 137.131799 212.486699 
L 137.232156 212.376765 
L 137.354042 212.246088 
L 137.426143 212.136154 
L 137.546477 212.007552 
L 137.611146 211.897618 
L 137.722227 211.75657 
L 137.853553 211.559518 
L 137.941117 211.449584 
L 138.057414 211.320981 
L 138.149988 211.211047 
L 138.26082 211.074148 
L 138.261068 211.074148 
L 138.337868 210.964213 
L 138.463853 210.781681 
L 138.543469 210.671747 
L 138.667135 210.518253 
L 138.764967 210.408319 
L 138.884949 210.263123 
L 138.973383 210.153189 
L 139.095931 210.014215 
L 139.186559 209.904281 
L 139.311572 209.734194 
L 139.413192 209.62426 
L 139.529779 209.483212 
L 139.627072 209.373278 
L 139.741341 209.209413 
L 139.82787 209.099479 
L 139.951909 208.941837 
L 140.030448 208.830866 
L 140.147987 208.66389 
L 140.232156 208.553956 
L 140.346756 208.377646 
L 140.440034 208.267712 
L 140.440034 208.266675 
L 140.570407 208.112145 
L 140.649981 208.00221 
L 140.760524 207.852866 
L 140.761041 207.852866 
L 140.845355 207.742931 
L 140.968525 207.595661 
L 141.057849 207.485727 
L 141.175988 207.346753 
L 141.272496 207.236819 
L 141.383162 207.116513 
L 141.383493 207.116513 
L 141.510099 206.948501 
L 141.593648 206.838566 
L 141.712843 206.701667 
L 141.835143 206.593807 
L 141.94465 206.432017 
L 141.946182 206.432017 
L 142.027909 206.322083 
L 142.147394 206.183109 
L 142.230197 206.073175 
L 142.343886 205.944573 
L 142.446479 205.834638 
L 142.566916 205.681145 
L 142.675099 205.571211 
L 142.789201 205.419792 
L 142.880161 205.309858 
L 142.993974 205.175033 
L 143.067958 205.065098 
L 143.186118 204.921976 
L 143.270536 204.811005 
L 143.386999 204.673069 
L 143.484044 204.563134 
L 143.603446 204.39927 
L 143.69424 204.289336 
L 143.80768 204.16903 
L 143.903856 204.059096 
L 144.017711 203.920122 
L 144.090909 203.809151 
L 144.200209 203.660843 
L 144.201948 203.660843 
L 144.306404 203.550909 
L 144.42415 203.384971 
L 144.503103 203.275036 
L 144.623581 203.119469 
L 144.709573 203.009535 
L 144.819328 202.862264 
L 144.820612 202.862264 
L 144.915483 202.75233 
L 145.035734 202.623728 
L 145.121436 202.515868 
L 145.235621 202.358226 
L 145.318217 202.248292 
L 145.433893 202.096873 
L 145.560003 201.951677 
L 145.644006 201.843817 
L 145.751982 201.71314 
L 145.754963 201.71314 
L 145.861779 201.603206 
L 145.974267 201.455935 
L 146.08307 201.346001 
L 146.191542 201.200805 
L 146.194109 201.200805 
L 146.301298 201.09087 
L 146.413579 200.9436 
L 146.527185 200.833666 
L 146.650893 200.678098 
L 146.783626 200.559867 
L 146.876821 200.449933 
L 146.999826 200.304737 
L 147.086438 200.194802 
L 147.208986 200.055829 
L 147.30392 199.945895 
L 147.424854 199.784104 
L 147.52132 199.67417 
L 147.637886 199.539345 
L 147.746876 199.431485 
L 147.863007 199.307031 
L 147.968333 199.197097 
L 148.096347 199.033233 
L 148.192233 198.925373 
L 148.302506 198.790547 
L 148.303251 198.790547 
L 148.386944 198.680613 
L 148.509886 198.535417 
L 148.588011 198.427557 
L 148.710415 198.253321 
L 148.806922 198.143387 
L 148.928808 197.965003 
L 149.011322 197.855069 
L 149.135195 197.730615 
L 149.219365 197.620681 
L 149.326636 197.496227 
L 149.330424 197.496227 
L 149.42306 197.386293 
L 149.543373 197.25769 
L 149.633877 197.147756 
L 149.769219 196.981817 
L 149.860489 196.871883 
L 149.983679 196.741207 
L 150.075632 196.631272 
L 150.18928 196.50267 
L 150.283096 196.392736 
L 150.408956 196.249614 
L 150.507471 196.139679 
L 150.629461 196.00278 
L 150.715908 195.892846 
L 150.829886 195.74765 
L 150.934136 195.637715 
L 151.047534 195.519484 
L 151.152156 195.40955 
L 151.265679 195.283022 
L 151.360448 195.173087 
L 151.478898 195.027891 
L 151.568946 194.920031 
L 151.683214 194.810097 
L 151.768088 194.700163 
L 151.884633 194.565337 
L 151.970293 194.455403 
L 152.093587 194.337172 
L 152.21212 194.227238 
L 152.328417 194.098635 
L 152.446494 193.988701 
L 152.569208 193.845579 
L 152.703474 193.735645 
L 152.823331 193.592523 
L 152.954243 193.482589 
L 153.071161 193.337392 
L 153.14821 193.227458 
L 153.268647 193.094707 
L 153.359151 192.984773 
L 153.474951 192.866542 
L 153.581187 192.756607 
L 153.702784 192.657044 
L 153.828065 192.54711 
L 153.952104 192.389468 
L 154.05329 192.279534 
L 154.17087 192.1696 
L 154.285428 192.059666 
L 154.39891 191.93936 
L 154.510736 191.829426 
L 154.637052 191.682155 
L 154.754219 191.572221 
L 154.892541 191.410431 
L 154.996915 191.300497 
L 155.116814 191.194711 
L 155.228805 191.08374 
L 155.363898 190.889799 
L 155.454858 190.779865 
L 155.580429 190.601481 
L 155.674452 190.493621 
L 155.790707 190.389909 
L 155.876036 190.278938 
L 155.998336 190.143076 
L 156.123203 190.033141 
L 156.236892 189.904539 
L 156.38747 189.794605 
L 156.506417 189.663928 
L 156.620312 189.553994 
L 156.739052 189.42954 
L 156.882923 189.319606 
L 157.005057 189.182706 
L 157.105787 189.072772 
L 157.246428 188.896462 
L 157.348525 188.786528 
L 157.467182 188.662074 
L 157.596313 188.539694 
L 157.692779 188.42976 
L 157.819675 188.313603 
L 157.941603 188.203669 
L 158.057154 188.093735 
L 158.139502 187.9838 
L 158.254433 187.884237 
L 158.405756 187.774303 
L 158.522508 187.627032 
L 158.640917 187.517098 
L 158.767937 187.400941 
L 158.875498 187.291007 
L 158.996308 187.172776 
L 159.111363 187.062841 
L 159.227163 186.94461 
L 159.348801 186.834676 
L 159.47785 186.730964 
L 159.598949 186.62103 
L 159.708539 186.523541 
L 159.709906 186.523541 
L 159.814569 186.413607 
L 159.934923 186.299524 
L 160.046542 186.18959 
L 160.167517 186.065136 
L 160.265722 185.955202 
L 160.388105 185.847342 
L 160.506928 185.737407 
L 160.625357 185.612953 
L 160.747636 185.503019 
L 160.873704 185.382714 
L 160.985075 185.272779 
L 161.10812 185.158697 
L 161.258325 185.048762 
L 161.383316 184.936754 
L 161.508059 184.82682 
L 161.623032 184.725182 
L 161.770504 184.615248 
L 161.88825 184.507388 
L 162.03121 184.396417 
L 162.154587 184.299965 
L 162.292744 184.190031 
L 162.411815 184.094616 
L 162.549765 183.984682 
L 162.675998 183.864376 
L 162.77826 183.754442 
L 162.898946 183.663176 
L 163.010937 183.553241 
L 163.126365 183.443307 
L 163.265847 183.333373 
L 163.383965 183.21929 
L 163.502871 183.12595 
L 163.622604 183.016015 
L 163.742172 182.914378 
L 163.870952 182.804444 
L 163.988925 182.706955 
L 164.137143 182.597021 
L 164.268469 182.505754 
L 164.384932 182.39582 
L 164.511331 182.292109 
L 164.656443 182.182174 
L 164.774852 182.095057 
L 164.905308 181.985122 
L 165.026615 181.860668 
L 165.176778 181.750734 
L 165.296594 181.644948 
L 165.431605 181.535014 
L 165.544259 181.439599 
L 165.663909 181.329665 
L 165.792875 181.225953 
L 165.937574 181.116019 
L 166.059129 181.016456 
L 166.198404 180.906522 
L 166.320621 180.798662 
L 166.432944 180.688727 
L 166.56191 180.545605 
L 166.697955 180.435671 
L 166.822698 180.327811 
L 166.944502 180.217877 
L 167.066388 180.132833 
L 167.179828 180.022899 
L 167.31488 179.92541 
L 167.473324 179.815476 
L 167.587386 179.738729 
L 167.723348 179.628795 
L 167.844655 179.549974 
L 167.979769 179.44004 
L 168.109915 179.319735 
L 168.270263 179.2098 
L 168.391363 179.130979 
L 168.542272 179.021045 
L 168.669706 178.911111 
L 168.843675 178.801177 
L 168.967797 178.697465 
L 169.109101 178.587531 
L 169.238357 178.496265 
L 169.391915 178.38633 
L 169.514961 178.307509 
L 169.681023 178.197575 
L 169.807049 178.112532 
L 169.93941 178.002597 
L 170.052146 177.919628 
L 170.215765 177.809694 
L 170.331524 177.714279 
L 170.48057 177.604345 
L 170.604526 177.502708 
L 170.748935 177.392773 
L 170.87993 177.291136 
L 171.019991 177.182239 
L 171.13575 177.083713 
L 171.284009 176.973778 
L 171.401465 176.867993 
L 171.567237 176.760133 
L 171.681257 176.683386 
L 171.849348 176.573452 
L 171.962623 176.500854 
L 172.155802 176.390919 
L 172.281953 176.303802 
L 172.41448 176.193867 
L 172.53413 176.112972 
L 172.671832 176.003038 
L 172.788046 175.942885 
L 172.968971 175.832951 
L 173.084978 175.752056 
L 173.248059 175.642122 
L 173.370856 175.530113 
L 173.55853 175.420179 
L 173.680954 175.357952 
L 173.813977 175.248018 
L 173.929364 175.179568 
L 174.140801 175.069634 
L 174.255691 174.994961 
L 174.429122 174.885027 
L 174.545585 174.818652 
L 174.740876 174.708717 
L 174.853364 174.636119 
L 174.986802 174.526185 
L 175.112745 174.441142 
L 175.290192 174.331207 
L 175.405703 174.254461 
L 175.589484 174.144526 
L 175.707106 174.063631 
L 175.892503 173.953697 
L 176.017577 173.885247 
L 176.162027 173.775313 
L 176.280808 173.717235 
L 176.444179 173.6073 
L 176.567266 173.52848 
L 176.766532 173.418545 
L 176.894255 173.335576 
L 177.071371 173.225642 
L 177.187627 173.177934 
L 177.359361 173.068 
L 177.487002 172.985031 
L 177.688917 172.875097 
L 177.810804 172.802499 
L 177.964569 172.692564 
L 178.081425 172.611669 
L 178.262371 172.501735 
L 178.390964 172.412543 
L 178.564561 172.302609 
L 178.69154 172.223788 
L 178.873168 172.113854 
L 178.99344 172.064072 
L 179.149979 171.954138 
L 179.270748 171.879465 
L 179.433084 171.769531 
L 179.548221 171.703156 
L 179.761647 171.593221 
L 179.87753 171.516475 
L 180.053818 171.408615 
L 180.053818 171.406541 
L 180.190443 171.329794 
L 180.385693 171.21986 
L 180.506337 171.145187 
L 180.679644 171.035253 
L 180.816725 170.970952 
L 181.016777 170.861018 
L 181.130093 170.807088 
L 181.359168 170.697153 
L 181.479771 170.620407 
L 181.666492 170.510472 
L 181.794175 170.444097 
L 181.95473 170.334163 
L 182.078604 170.261565 
L 182.291987 170.15163 
L 182.409816 170.089403 
L 182.573808 169.979469 
L 182.70149 169.921391 
L 182.928537 169.813531 
L 183.043343 169.763749 
L 183.294196 169.653815 
L 183.424238 169.543881 
L 183.606736 169.433946 
L 183.751766 169.344754 
L 183.966019 169.23482 
L 184.099705 169.168445 
L 184.28949 169.05851 
L 184.417586 168.987986 
L 184.609772 168.878052 
L 184.74056 168.776415 
L 184.913826 168.666481 
L 185.031158 168.606328 
L 185.258701 168.496394 
L 185.391186 168.398905 
L 185.625229 168.28897 
L 185.750428 168.218446 
L 185.936072 168.108512 
L 186.071041 168.008949 
L 186.256935 167.899015 
L 186.385031 167.813971 
L 186.599181 167.704037 
L 186.746094 167.57336 
L 186.917041 167.4655 
L 187.033421 167.392902 
L 187.247095 167.282968 
L 187.363268 167.197924 
L 187.600292 167.08799 
L 187.724 167.002947 
L 187.922686 166.893012 
L 188.04656 166.830785 
L 188.266733 166.720851 
L 188.399135 166.635808 
L 188.598443 166.525873 
L 188.731135 166.463646 
L 188.900177 166.353712 
L 189.017551 166.27904 
L 189.228161 166.169106 
L 189.355802 166.104804 
L 189.540991 165.99487 
L 189.664948 165.932643 
L 189.882886 165.822709 
L 190.004565 165.754259 
L 190.246847 165.643288 
L 190.400364 165.569653 
L 190.609318 165.458681 
L 190.732943 165.395417 
L 190.905588 165.287557 
L 191.02383 165.208736 
L 191.241975 165.098802 
L 191.365021 165.030352 
L 191.560768 164.920418 
L 191.685241 164.829152 
L 191.908251 164.719218 
L 192.043427 164.619654 
L 192.255155 164.508683 
L 192.367188 164.443345 
L 192.656026 164.33341 
L 192.77814 164.277406 
L 192.984651 164.167472 
L 193.115563 164.111468 
L 193.294376 164.001533 
L 193.43982 163.924787 
L 193.658876 163.814853 
L 193.779686 163.752626 
L 193.982512 163.641654 
L 194.096408 163.572167 
L 194.319066 163.462233 
L 194.448156 163.381338 
L 194.71503 163.271404 
L 194.828264 163.229919 
L 195.052412 163.119985 
L 195.168668 163.066055 
L 195.410991 162.956121 
L 195.538715 162.871077 
L 195.716825 162.761143 
L 195.836454 162.707213 
L 196.049196 162.597279 
L 196.168909 162.543349 
L 196.381154 162.433414 
L 196.495216 162.358742 
L 196.707606 162.248808 
L 196.83239 162.194878 
L 197.009216 162.087018 
L 197.124189 162.016494 
L 197.358604 161.906559 
L 197.482395 161.844332 
L 197.758171 161.734398 
L 197.888255 161.659726 
L 198.063094 161.549792 
L 198.178998 161.504158 
L 198.39973 161.393187 
L 198.5164 161.327849 
L 198.74386 161.217914 
L 198.874441 161.141168 
L 199.083436 161.031234 
L 199.201845 160.944116 
L 199.40434 160.834182 
L 199.533347 160.755361 
L 199.748718 160.645427 
L 199.858888 160.591497 
L 199.859716 160.591497 
L 200.12423 160.481562 
L 200.249843 160.419335 
L 200.459666 160.309401 
L 200.571492 160.257545 
L 200.755191 160.147611 
L 200.881403 160.072939 
L 201.083505 159.963004 
L 201.195621 159.911149 
L 201.397246 159.800177 
L 201.544512 159.73069 
L 201.785469 159.620756 
L 201.901476 159.577197 
L 202.104675 159.467263 
L 202.22681 159.405036 
L 202.445576 159.297176 
L 202.564399 159.216281 
L 202.784117 159.106347 
L 202.916022 159.046194 
L 203.148244 158.93626 
L 203.262512 158.884404 
L 203.418389 158.77447 
L 203.53125 158.728836 
L 203.652598 158.662461 
L 203.910447 158.552527 
L 204.024384 158.479929 
L 204.191771 158.369994 
L 204.312332 158.309842 
L 204.558133 158.199907 
L 204.681386 158.141829 
L 204.804224 158.100344 
L 204.973516 157.99041 
L 205.093994 157.907441 
L 205.306716 157.797506 
L 205.426946 157.739428 
L 205.625011 157.629494 
L 205.745986 157.552747 
L 206.005947 157.442813 
L 206.128206 157.370215 
L 206.384068 157.26028 
L 206.504091 157.202202 
L 206.729191 157.092268 
L 206.861511 157.023818 
L 207.113191 156.913884 
L 207.237479 156.849583 
L 207.455002 156.739648 
L 207.576972 156.679496 
L 207.8342 156.569561 
L 207.960143 156.494889 
L 208.162845 156.384955 
L 208.280136 156.331025 
L 208.467395 156.22109 
L 208.592097 156.163012 
L 208.759235 156.053078 
L 208.879714 155.990851 
L 209.071859 155.880916 
L 209.193165 155.822838 
L 209.389906 155.712904 
L 209.50198 155.661048 
L 209.691268 155.551113 
L 209.817294 155.46607 
L 210.07742 155.356136 
L 210.20146 155.269018 
L 210.432025 155.159084 
L 210.547701 155.096857 
L 210.781496 154.986922 
L 210.894812 154.949586 
L 211.111756 154.839652 
L 211.239522 154.767054 
L 211.448227 154.65712 
L 211.566594 154.586596 
L 211.777038 154.476661 
L 211.90588 154.385395 
L 212.083928 154.275461 
L 212.198175 154.209086 
L 212.387753 154.099151 
L 212.510716 154.04937 
L 212.736603 153.939435 
L 212.855881 153.88758 
L 213.104063 153.777645 
L 213.237541 153.682231 
L 213.425608 153.572296 
L 213.544969 153.493476 
L 213.714695 153.382504 
L 213.833331 153.310943 
L 214.05425 153.201009 
L 214.168435 153.122188 
L 214.394861 153.012254 
L 214.506769 152.970769 
L 214.700818 152.860835 
L 214.81873 152.81935 
L 215.0252 152.709416 
L 215.14779 152.645115 
L 215.342709 152.535181 
L 215.466251 152.464657 
L 215.747865 152.354722 
L 215.867764 152.28005 
L 216.085039 152.170116 
L 216.197362 152.109963 
L 216.415258 152.000029 
L 216.535033 151.944025 
L 216.735624 151.83409 
L 216.847781 151.771863 
L 217.067996 151.661929 
L 217.188143 151.61837 
L 217.361905 151.508436 
L 217.475056 151.452432 
L 217.696099 151.342497 
L 217.815377 151.265751 
L 218.051532 151.155817 
L 218.164848 151.076996 
L 218.347553 150.967061 
L 218.473911 150.908983 
L 218.667567 150.799049 
L 218.788356 150.730599 
L 218.982985 150.620665 
L 219.110253 150.562586 
L 219.256856 150.452652 
L 219.378577 150.37798 
L 219.571881 150.268045 
L 219.695713 150.205818 
L 219.892412 150.095884 
L 220.017403 150.02536 
L 220.194726 149.915426 
L 220.318724 149.846976 
L 220.518197 149.737042 
L 220.635984 149.656147 
L 220.84941 149.546213 
L 220.969681 149.457021 
L 221.205919 149.347086 
L 221.322837 149.278637 
L 221.504341 149.168703 
L 221.629995 149.085733 
L 221.832366 148.975799 
L 221.972759 148.872087 
L 222.152773 148.762153 
L 222.271865 148.699926 
L 222.485683 148.589992 
L 222.606203 148.517394 
L 222.791558 148.40746 
L 222.927334 148.326564 
L 223.165497 148.21663 
L 223.28316 148.137809 
L 223.495302 148.027875 
L 223.621784 147.951129 
L 223.818028 147.841194 
L 223.942067 147.768596 
L 224.203725 147.658662 
L 224.328965 147.577767 
L 224.549469 147.467833 
L 224.670859 147.415977 
L 224.87501 147.306042 
L 224.99081 147.225147 
L 225.154678 147.115213 
L 225.267704 147.059209 
L 225.449064 146.948238 
L 225.623137 146.835192 
L 225.794829 146.725258 
L 225.915266 146.652659 
L 226.08642 146.542725 
L 226.200233 146.47635 
L 226.382649 146.366416 
L 226.505943 146.297966 
L 226.684798 146.188032 
L 226.803786 146.113359 
L 226.985622 146.002388 
L 227.098793 145.92253 
L 227.298328 145.811559 
L 227.405516 145.739998 
L 227.409408 145.739998 
L 227.650986 145.630063 
L 227.766704 145.576133 
L 227.962119 145.466199 
L 228.077009 145.370784 
L 228.290061 145.26085 
L 228.419566 145.188252 
L 228.642637 145.078318 
L 228.758769 145.03061 
L 228.91065 144.920676 
L 229.024443 144.862598 
L 229.21874 144.752663 
L 229.333319 144.696659 
L 229.530743 144.588799 
L 229.647619 144.507904 
L 229.821092 144.39797 
L 229.935423 144.317075 
L 230.102581 144.20714 
L 230.218837 144.124171 
L 230.465756 144.014237 
L 230.583295 143.954084 
L 230.756892 143.84415 
L 230.878282 143.763255 
L 231.089098 143.65332 
L 231.192437 143.586945 
L 231.200055 143.586945 
L 231.395222 143.477011 
L 231.514955 143.396116 
L 231.676587 143.286181 
L 231.794623 143.203212 
L 231.949755 143.093278 
L 232.070254 143.02068 
L 232.259687 142.910746 
L 232.373665 142.840222 
L 232.489466 142.757252 
L 232.723881 142.647318 
L 232.837322 142.585091 
L 233.050292 142.475157 
L 233.169528 142.377668 
L 233.394173 142.266697 
L 233.512996 142.207581 
L 233.681583 142.097647 
L 233.796079 142.014677 
L 233.950859 141.904743 
L 234.063388 141.834219 
L 234.180886 141.757473 
L 234.33459 141.647538 
L 234.453267 141.539678 
L 234.65866 141.429744 
L 234.777214 141.340552 
L 234.985319 141.230618 
L 235.102858 141.170465 
L 235.282251 141.060531 
L 235.409561 140.979636 
L 235.621703 140.869702 
L 235.742223 140.803326 
L 235.926377 140.693392 
L 236.046442 140.608348 
L 236.198468 140.498414 
L 236.312902 140.440336 
L 236.460665 140.330401 
L 236.576009 140.262989 
L 236.692058 140.203873 
L 236.924549 140.093939 
L 237.045379 140.01097 
L 237.270935 139.901035 
L 237.38392 139.805621 
L 237.538513 139.695686 
L 237.654852 139.631385 
L 237.827662 139.521451 
L 237.945284 139.44263 
L 238.10497 139.332696 
L 238.220315 139.262172 
L 238.401198 139.152238 
L 238.515591 139.069268 
L 238.720363 138.959334 
L 238.840097 138.878439 
L 239.016219 138.768505 
L 239.140217 138.683461 
L 239.348218 138.573527 
L 239.465799 138.49678 
L 239.670985 138.386846 
L 239.78662 138.312174 
L 239.977605 138.201202 
L 240.081316 138.127567 
L 240.088686 138.127567 
L 240.237069 138.017633 
L 240.353159 137.930515 
L 240.63912 137.820581 
L 240.751649 137.750057 
L 240.941662 137.639086 
L 241.06773 137.56545 
L 241.238615 137.455516 
L 241.352676 137.382918 
L 241.518821 137.272984 
L 241.633876 137.206608 
L 241.819458 137.096674 
L 241.936604 137.032373 
L 242.109331 136.922439 
L 242.225711 136.856063 
L 242.404007 136.746129 
L 242.517924 136.690125 
L 242.682661 136.58019 
L 242.795025 136.513815 
L 242.968125 136.403881 
L 243.079164 136.337505 
L 243.24535 136.226534 
L 243.358976 136.16327 
L 243.536651 136.053336 
L 243.654356 135.97244 
L 243.910466 135.862506 
L 244.023492 135.814799 
L 244.193777 135.704865 
L 244.311647 135.64886 
L 244.503834 135.538926 
L 244.626444 135.474625 
L 244.813455 135.363653 
L 244.933313 135.296241 
L 245.109332 135.188381 
L 245.223269 135.113709 
L 245.450854 135.003774 
L 245.570753 134.929102 
L 245.783764 134.819168 
L 245.903249 134.71753 
L 246.090715 134.607596 
L 246.212933 134.520478 
L 246.388972 134.410544 
L 246.502909 134.337946 
L 246.716376 134.228012 
L 246.841823 134.132597 
L 247.028337 134.022663 
L 247.151651 133.927248 
L 247.305686 133.817314 
L 247.423101 133.742641 
L 247.618475 133.63167 
L 247.733199 133.574629 
L 247.896445 133.464694 
L 248.010796 133.381725 
L 248.141832 133.271791 
L 248.254217 133.205415 
L 248.443857 133.095481 
L 248.55618 133.029106 
L 248.693012 132.919171 
L 248.806949 132.861093 
L 249.005097 132.751159 
L 249.125451 132.664041 
L 249.328775 132.554107 
L 249.450205 132.498102 
L 249.68843 132.388168 
L 249.805058 132.311422 
L 249.933196 132.226378 
L 250.110167 132.116444 
L 250.22396 132.060439 
L 250.439124 131.950505 
L 250.555669 131.886204 
L 250.723428 131.77627 
L 250.835627 131.72234 
L 251.050998 131.612405 
L 251.16982 131.548104 
L 251.372564 131.43817 
L 251.487909 131.365572 
L 251.724809 131.255638 
L 251.837173 131.191336 
L 251.996983 131.081402 
L 252.111127 131.00673 
L 252.296233 130.896796 
L 252.409301 130.83042 
L 252.597016 130.720486 
L 252.714638 130.639591 
L 252.930216 130.529657 
L 253.047921 130.450836 
L 253.25762 130.340901 
L 253.369694 130.286971 
L 253.57606 130.177037 
L 253.694862 130.112736 
L 253.864608 130.002802 
L 253.978504 129.932278 
L 254.161582 129.822343 
L 254.275809 129.745597 
L 254.475447 129.635663 
L 254.594642 129.558916 
L 254.733752 129.448982 
L 254.846861 129.395052 
L 255.046831 129.285117 
L 255.158511 129.220816 
L 255.335855 129.110882 
L 255.456955 129.046581 
L 255.653612 128.936647 
L 255.765955 128.872345 
L 255.925952 128.762411 
L 255.925952 128.761374 
L 256.042911 128.691887 
L 256.207317 128.581953 
L 256.323842 128.517652 
L 256.516918 128.407717 
L 256.63748 128.341342 
L 256.825815 128.231408 
L 256.941823 128.173329 
L 257.13463 128.063395 
L 257.251486 127.994945 
L 257.488945 127.885011 
L 257.611452 127.795819 
L 257.800367 127.685885 
L 257.916706 127.623658 
L 258.096471 127.513724 
L 258.20987 127.453571 
L 258.361731 127.345711 
L 258.475379 127.28141 
L 258.643428 127.171475 
L 258.761898 127.082283 
L 258.92115 126.972349 
L 259.036163 126.908048 
L 259.210423 126.798114 
L 259.328086 126.737961 
L 259.543581 126.628027 
L 259.656939 126.590691 
L 259.869287 126.480756 
L 259.987406 126.395713 
L 260.228363 126.285778 
L 260.34495 126.221477 
L 260.601702 126.110506 
L 260.714045 126.045168 
L 260.909502 125.935233 
L 261.024744 125.868858 
L 261.245642 125.758924 
L 261.363802 125.67388 
L 261.570023 125.563946 
L 261.685575 125.489273 
L 261.853251 125.379339 
L 261.963028 125.337855 
L 261.964291 125.337855 
L 262.172044 125.22792 
L 262.272111 125.171916 
L 262.283 125.171916 
L 262.494396 125.061982 
L 262.614088 124.981087 
L 262.778618 124.871152 
L 262.890009 124.806851 
L 263.108051 124.696917 
L 263.225383 124.622245 
L 263.420716 124.51231 
L 263.543761 124.427267 
L 263.731227 124.317333 
L 263.846241 124.255106 
L 264.044141 124.145171 
L 264.161142 124.091241 
L 264.40628 123.981307 
L 264.520073 123.912857 
L 264.777239 123.802923 
L 264.892294 123.70336 
L 265.173659 123.593426 
L 265.290432 123.54157 
L 265.460178 123.431636 
L 265.573101 123.371483 
L 265.775182 123.261549 
L 265.889078 123.188951 
L 266.036799 123.079016 
L 266.149639 123.037532 
L 266.395999 122.928634 
L 266.511158 122.854999 
L 266.702143 122.744028 
L 266.814362 122.680764 
L 266.983364 122.570829 
L 267.103552 122.500306 
L 267.349498 122.390371 
L 267.461096 122.34059 
L 267.660838 122.230655 
L 267.776887 122.162206 
L 267.974166 122.052272 
L 268.087916 122.000416 
L 268.277784 121.890481 
L 268.393005 121.842774 
L 268.58428 121.734914 
L 268.697762 121.672687 
L 268.883821 121.562753 
L 269.002312 121.51712 
L 269.212798 121.407185 
L 269.332117 121.349107 
L 269.589676 121.239173 
L 269.700053 121.174872 
L 269.700674 121.174872 
L 269.815398 121.112645 
L 270.007563 121.00271 
L 270.121914 120.959151 
L 270.321739 120.849217 
L 270.439237 120.782842 
L 270.5829 120.672907 
L 270.69543 120.598235 
L 270.913119 120.487264 
L 271.034385 120.432297 
L 271.216883 120.322362 
L 271.340943 120.260135 
L 271.527933 120.150201 
L 271.638724 120.090048 
L 271.639013 120.090048 
L 271.910691 119.980114 
L 272.02351 119.936555 
L 272.22232 119.826621 
L 272.22232 119.825584 
L 272.34371 119.745726 
L 272.538049 119.635792 
L 272.6595 119.563194 
L 272.874602 119.452222 
L 272.992887 119.38481 
L 273.167187 119.27695 
L 273.279406 119.212648 
L 273.499207 119.102714 
L 273.615649 119.030116 
L 273.784899 118.919145 
L 273.897097 118.860029 
L 274.091271 118.750095 
L 274.209431 118.683719 
L 274.465044 118.573785 
L 274.578609 118.513632 
L 274.772244 118.403698 
L 274.885809 118.343545 
L 275.065574 118.233611 
L 275.179387 118.167236 
L 275.376335 118.056264 
L 275.497786 117.976406 
L 275.687012 117.866472 
L 275.803558 117.822913 
L 276.056935 117.712979 
L 276.172922 117.646603 
L 276.351549 117.536669 
L 276.466687 117.488962 
L 276.706216 117.379028 
L 276.820546 117.325098 
L 277.024325 117.215163 
L 277.137827 117.157085 
L 277.354006 117.04715 
L 277.456433 116.995295 
L 277.465045 116.995295 
L 277.687827 116.88536 
L 277.803834 116.80654 
L 277.99188 116.696605 
L 278.105693 116.63023 
L 278.336176 116.520296 
L 278.452762 116.470514 
L 278.656872 116.36058 
L 278.770106 116.304576 
L 278.993467 116.194641 
L 279.099869 116.13034 
L 279.104548 116.13034 
L 279.227552 116.020406 
L 279.341924 115.96855 
L 279.573628 115.858616 
L 279.690028 115.804686 
L 279.889232 115.694751 
L 280.002217 115.599337 
L 280.199495 115.489402 
L 280.311963 115.418879 
L 280.497835 115.308944 
L 280.609454 115.273682 
L 280.848362 115.162711 
L 280.963065 115.103595 
L 281.174482 114.993661 
L 281.287736 114.923137 
L 281.463113 114.813203 
L 281.572455 114.746828 
L 281.573821 114.746828 
L 281.784182 114.636893 
L 281.897788 114.574666 
L 282.051099 114.464732 
L 282.163255 114.404579 
L 282.392206 114.294645 
L 282.506433 114.217898 
L 282.689387 114.107964 
L 282.801254 114.027069 
L 282.990625 113.917135 
L 283.104272 113.854908 
L 283.299688 113.744974 
L 283.420415 113.670301 
L 283.639036 113.560367 
L 283.755457 113.487769 
L 283.952011 113.377835 
L 284.065824 113.307311 
L 284.258424 113.197376 
L 284.374514 113.139298 
L 284.572414 113.029364 
L 284.690574 112.962988 
L 284.893649 112.853054 
L 285.005971 112.790827 
L 285.219107 112.680893 
L 285.331553 112.612443 
L 285.552265 112.502509 
L 285.665809 112.442356 
L 285.873873 112.332422 
L 285.989507 112.259824 
L 286.186786 112.149889 
L 286.300143 112.091811 
L 286.517171 111.981877 
L 286.629493 111.91965 
L 286.862667 111.809715 
L 286.980123 111.755785 
L 287.178685 111.645851 
L 287.292167 111.58155 
L 287.519089 111.471616 
L 287.631908 111.382424 
L 287.780788 111.272489 
L 287.895823 111.210262 
L 288.11167 111.100328 
L 288.223806 111.046398 
L 288.400156 110.936464 
L 288.512603 110.870088 
L 288.647738 110.760154 
L 288.763993 110.700001 
L 288.958746 110.590067 
L 289.075292 110.525766 
L 289.270086 110.415832 
L 289.387004 110.347382 
L 289.597531 110.237448 
L 289.701781 110.168998 
L 289.708488 110.168998 
L 289.869002 110.058027 
L 289.981407 109.990614 
L 290.148255 109.88068 
L 290.261344 109.832973 
L 290.481124 109.723038 
L 290.599491 109.646292 
L 290.768223 109.536357 
L 290.883216 109.482427 
L 291.098919 109.372493 
L 291.209005 109.277079 
L 291.209999 109.277079 
L 291.322322 109.216926 
L 291.529681 109.106992 
L 291.650533 109.024022 
L 291.841249 108.913051 
L 291.9544 108.862232 
L 292.136815 108.752298 
L 292.246985 108.685922 
L 292.247875 108.685922 
L 292.440206 108.575988 
L 292.556358 108.495093 
L 292.769141 108.385159 
L 292.884962 108.320858 
L 293.049347 108.209886 
L 293.173138 108.138325 
L 293.429911 108.027354 
L 293.556455 107.939199 
L 293.807286 107.829265 
L 293.920768 107.771186 
L 294.11254 107.661252 
L 294.226436 107.590728 
L 294.463708 107.480794 
L 294.576238 107.41027 
L 294.793845 107.300336 
L 294.904863 107.247443 
L 295.030724 107.148917 
L 295.23295 107.038983 
L 295.345769 106.951865 
L 295.544497 106.841931 
L 295.657606 106.775555 
L 295.880098 106.665621 
L 295.993 106.603394 
L 296.193591 106.49346 
L 296.30877 106.445752 
L 296.535278 106.335818 
L 296.647766 106.267368 
L 296.878663 106.157434 
L 296.878663 106.156397 
L 296.991524 106.113875 
L 297.10691 106.045426 
L 297.31812 105.935491 
L 297.430587 105.867042 
L 297.61882 105.75607 
L 297.734206 105.686583 
L 297.906147 105.576649 
L 298.020788 105.5082 
L 298.256487 105.398265 
L 298.372101 105.309073 
L 298.576708 105.199139 
L 298.687664 105.151432 
L 298.687685 105.151432 
L 298.900054 105.041497 
L 299.012708 104.964751 
L 299.263643 104.854817 
L 299.375841 104.794664 
L 299.57165 104.68473 
L 299.683372 104.620428 
L 299.88537 104.510494 
L 299.992269 104.452416 
L 299.996451 104.452416 
L 300.175181 104.342481 
L 300.28827 104.290626 
L 300.538108 104.180691 
L 300.652107 104.110167 
L 300.840898 104.000233 
L 300.953697 103.944229 
L 301.148864 103.834295 
L 301.148864 103.833257 
L 301.26721 103.77829 
L 301.500032 103.668356 
L 301.610781 103.608203 
L 301.611133 103.608203 
L 301.807977 103.498269 
L 301.924895 103.429819 
L 302.10139 103.319885 
L 302.209945 103.265955 
L 302.21245 103.265955 
L 302.427883 103.156021 
L 302.546954 103.081348 
L 302.746427 102.971414 
L 302.858046 102.91541 
L 302.984134 102.830366 
L 303.140073 102.720432 
L 303.251671 102.662354 
L 303.442119 102.552419 
L 303.553861 102.486044 
L 303.747186 102.37611 
L 303.859426 102.318031 
L 304.047016 102.208097 
L 304.159463 102.141721 
L 304.381334 102.03075 
L 304.496306 101.986154 
L 304.718674 101.875183 
L 304.829755 101.827475 
L 304.945597 101.770434 
L 305.18378 101.6605 
L 305.297199 101.602421 
L 305.512467 101.49145 
L 305.632159 101.426112 
L 305.827119 101.316177 
L 305.942257 101.249802 
L 306.119663 101.139868 
L 306.235546 101.063121 
L 306.445121 100.953187 
L 306.561128 100.886811 
L 306.763582 100.776877 
L 306.877602 100.704279 
L 307.054221 100.593308 
L 307.161244 100.53834 
L 307.165094 100.53834 
L 307.372144 100.427369 
L 307.491339 100.366179 
L 307.692095 100.256245 
L 307.807523 100.185721 
L 308.018091 100.075787 
L 308.018091 100.07475 
L 308.13652 100.019782 
L 308.296103 99.909848 
L 308.414925 99.845547 
L 308.598293 99.735613 
L 308.710429 99.683757 
L 308.947681 99.573823 
L 309.062322 99.517818 
L 309.265314 99.407884 
L 309.376146 99.335286 
L 309.376394 99.335286 
L 309.609402 99.225352 
L 309.609402 99.224315 
L 309.744289 99.161051 
L 309.940739 99.051116 
L 310.051489 98.980592 
L 310.051675 98.980592 
L 310.277666 98.869621 
L 310.388539 98.79806 
L 310.388705 98.79806 
L 310.608174 98.688126 
L 310.721842 98.625899 
L 310.942327 98.515964 
L 311.05614 98.449589 
L 311.288651 98.338618 
L 311.413601 98.279502 
L 311.656525 98.169568 
L 311.768826 98.107341 
L 311.925656 97.997407 
L 312.0398 97.92066 
L 312.225962 97.809689 
L 312.339299 97.752647 
L 312.553531 97.642713 
L 312.668379 97.592931 
L 312.817549 97.48196 
L 312.940574 97.404176 
L 313.164764 97.294242 
L 313.164764 97.293205 
L 313.278266 97.234089 
L 313.496908 97.124155 
L 313.611197 97.061928 
L 313.848801 96.951994 
L 313.962448 96.887693 
L 314.196284 96.776721 
L 314.304508 96.730051 
L 314.307158 96.730051 
L 314.549067 96.620117 
L 314.661555 96.549593 
L 314.876016 96.439659 
L 314.876016 96.438621 
L 314.992354 96.377432 
L 315.165744 96.267497 
L 315.27788 96.213567 
L 315.487931 96.103633 
L 315.606464 96.047629 
L 315.82525 95.937694 
L 315.937407 95.885839 
L 316.13392 95.775904 
L 316.246118 95.717826 
L 316.467037 95.607892 
L 316.585177 95.533219 
L 316.773285 95.423285 
L 316.773285 95.422248 
L 316.892438 95.361058 
L 317.16896 95.251124 
L 317.279171 95.19512 
L 317.279875 95.19512 
L 317.396006 95.149486 
L 317.581837 95.039552 
L 317.695277 94.962806 
L 317.871338 94.852871 
L 317.985399 94.780273 
L 318.237286 94.670339 
L 318.350706 94.614335 
L 318.516126 94.5044 
L 318.625012 94.435951 
L 318.627144 94.435951 
L 318.741765 94.367501 
L 318.942272 94.257567 
L 319.055796 94.197414 
L 319.202088 94.08748 
L 319.316543 94.023179 
L 319.50314 93.913244 
L 319.615628 93.844795 
L 319.830129 93.73486 
L 319.942204 93.678856 
L 320.163909 93.568922 
L 320.279047 93.502546 
L 320.465209 93.392612 
L 320.577925 93.336608 
L 320.795614 93.226674 
L 320.905204 93.166521 
L 320.906571 93.166521 
L 321.100496 93.05555 
L 321.198245 92.977766 
L 321.211535 92.977766 
L 321.430798 92.867832 
L 321.54252 92.80353 
L 321.739364 92.693596 
L 321.854046 92.623072 
L 322.067161 92.512101 
L 322.167787 92.450911 
L 322.17822 92.450911 
L 322.395951 92.33994 
L 322.509371 92.280824 
L 322.691766 92.171927 
L 322.804999 92.092069 
L 322.98166 91.982135 
L 323.095638 91.911611 
L 323.298009 91.801676 
L 323.410539 91.731153 
L 323.652821 91.621218 
L 323.763922 91.56314 
L 323.972814 91.452168 
L 324.089794 91.397201 
L 324.313425 91.287267 
L 324.425954 91.214669 
L 324.679352 91.104735 
L 324.794221 91.032137 
L 324.970012 90.922202 
L 325.083577 90.839233 
L 325.274169 90.730336 
L 325.385974 90.673294 
L 325.611074 90.56336 
L 325.723687 90.488688 
L 325.934483 90.378754 
L 326.046081 90.324824 
L 326.259465 90.213852 
L 326.380896 90.133994 
L 326.583101 90.02406 
L 326.583101 90.023023 
L 326.698487 89.972204 
L 326.967597 89.86227 
L 327.076856 89.795894 
L 327.078637 89.795894 
L 327.251198 89.68596 
L 327.364763 89.625807 
L 327.573634 89.515873 
L 327.688275 89.457795 
L 327.861458 89.34786 
L 327.969433 89.275262 
L 327.972538 89.275262 
L 328.180623 89.165328 
L 328.29928 89.074062 
L 328.465134 88.964128 
L 328.465134 88.96309 
L 328.578616 88.903975 
L 328.804337 88.793003 
L 328.917799 88.733888 
L 329.182789 88.626028 
L 329.287701 88.567949 
L 329.293828 88.567949 
L 329.478521 88.458015 
L 329.591071 88.383343 
L 329.777979 88.273408 
L 329.890467 88.204959 
L 330.12687 88.093987 
L 330.228966 88.030723 
L 330.23795 88.030723 
L 330.491411 87.920789 
L 330.604478 87.856488 
L 330.835375 87.746554 
L 330.950761 87.66151 
L 331.121853 87.550539 
L 331.241131 87.49972 
L 331.447912 87.389786 
L 331.555846 87.302668 
L 331.558992 87.302668 
L 331.751178 87.192734 
L 331.85108 87.132581 
L 331.862134 87.132581 
L 332.04662 87.022647 
L 332.158942 86.96042 
L 332.365578 86.850485 
L 332.481626 86.792407 
L 332.681223 86.682473 
L 332.785514 86.628543 
L 332.792304 86.628543 
L 333.022 86.517571 
L 333.148854 86.439788 
L 333.344974 86.329853 
L 333.455557 86.271775 
L 333.456033 86.271775 
L 333.700406 86.160803 
L 333.813536 86.112059 
L 334.01452 86.002125 
L 334.118314 85.929527 
L 334.125601 85.929527 
L 334.37844 85.818555 
L 334.497366 85.75944 
L 334.758797 85.649505 
L 334.870891 85.599724 
L 335.100153 85.489789 
L 335.212517 85.425488 
L 335.416171 85.315554 
L 335.528473 85.249179 
L 335.750282 85.138207 
L 335.859209 85.08324 
L 335.861321 85.08324 
L 336.072924 84.972269 
L 336.18651 84.911079 
L 336.427032 84.801144 
L 336.539292 84.743066 
L 336.761598 84.633132 
L 336.867814 84.566756 
L 336.872679 84.566756 
L 337.029674 84.456822 
L 337.029674 84.455785 
L 337.142803 84.40704 
L 337.32259 84.297106 
L 337.432635 84.212063 
L 337.433691 84.212063 
L 337.705637 84.102128 
L 337.818457 84.010862 
L 338.098621 83.900928 
L 338.211854 83.830404 
L 338.381932 83.72047 
L 338.494379 83.649946 
L 338.753677 83.540012 
L 338.865855 83.486082 
L 339.108613 83.37511 
L 339.213814 83.332588 
L 339.219611 83.332588 
L 339.443386 83.221617 
L 339.55724 83.15213 
L 339.779898 83.042196 
L 339.890109 82.988266 
L 339.890896 82.988266 
L 340.142783 82.877295 
L 340.257507 82.820253 
L 340.46998 82.710319 
L 340.583172 82.639795 
L 340.806802 82.529861 
L 340.918359 82.471782 
L 341.185399 82.360811 
L 341.297391 82.316215 
L 341.494152 82.206281 
L 341.606039 82.125386 
L 341.813917 82.015451 
L 341.921851 81.953224 
L 341.924956 81.953224 
L 342.17262 81.842253 
L 342.285191 81.766544 
L 342.547139 81.656609 
L 342.659379 81.596457 
L 342.872183 81.486522 
L 342.978978 81.428444 
L 342.983201 81.428444 
L 343.179175 81.318509 
L 343.292471 81.264579 
L 343.524796 81.154645 
L 343.636497 81.094492 
L 343.866069 80.984558 
L 343.978185 80.932702 
L 344.169046 80.821731 
L 344.281244 80.766764 
L 344.499762 80.655792 
L 344.615686 80.578009 
L 344.854698 80.468074 
L 344.969939 80.401699 
L 345.243583 80.291765 
L 345.355036 80.219167 
L 345.538942 80.108195 
L 345.651057 80.057377 
L 345.867753 79.947442 
L 345.867753 79.946405 
L 345.981359 79.883141 
L 346.19199 79.77217 
L 346.304147 79.719277 
L 346.569407 79.609343 
L 346.688208 79.545041 
L 346.881388 79.435107 
L 346.993152 79.364583 
L 347.20341 79.254649 
L 347.312793 79.204867 
L 347.31449 79.204867 
L 347.528743 79.094933 
L 347.641397 79.057597 
L 347.847536 78.947663 
L 347.957208 78.897881 
L 347.958575 78.897881 
L 348.192597 78.787947 
L 348.304506 78.707052 
L 348.517703 78.597117 
L 348.627852 78.543187 
L 348.628784 78.543187 
L 348.838317 78.433253 
L 348.838317 78.432216 
L 348.950764 78.364804 
L 349.168412 78.254869 
L 349.168412 78.253832 
L 349.283757 78.18642 
L 349.48147 78.075448 
L 349.593917 78.005961 
L 349.850296 77.896027 
L 349.962701 77.829652 
L 350.125368 77.719717 
L 350.23738 77.669936 
L 350.446437 77.560002 
L 350.551597 77.487404 
L 350.557477 77.487404 
L 350.760344 77.377469 
L 350.868092 77.306945 
L 350.871383 77.306945 
L 351.132255 77.195974 
L 351.242756 77.145155 
L 351.243294 77.145155 
L 351.44877 77.034184 
L 351.562707 76.964697 
L 351.78197 76.854763 
L 351.887792 76.802907 
L 351.89305 76.802907 
L 352.138976 76.691936 
L 352.248069 76.624523 
L 352.250035 76.624523 
L 352.462446 76.514589 
L 352.56711 76.454436 
L 352.573444 76.454436 
L 352.787739 76.343465 
L 352.896542 76.282275 
L 352.898819 76.282275 
L 353.153066 76.171304 
L 353.260462 76.108039 
L 353.264147 76.108039 
L 353.457202 75.998105 
L 353.556069 75.952472 
L 353.5682 75.952472 
L 353.785206 75.841501 
L 353.904422 75.765791 
L 354.169599 75.65482 
L 354.283205 75.59363 
L 354.510024 75.483696 
L 354.621788 75.429766 
L 354.827678 75.319831 
L 354.940538 75.261753 
L 355.195841 75.150782 
L 355.311559 75.077146 
L 355.545209 74.967212 
L 355.657655 74.923653 
L 355.912358 74.812682 
L 356.022941 74.759789 
L 356.023293 74.759789 
L 356.27398 74.648817 
L 356.38624 74.591776 
L 356.635105 74.481842 
L 356.745565 74.411318 
L 356.746103 74.411318 
L 356.979981 74.301384 
L 356.979981 74.300347 
L 357.09309 74.251602 
L 357.318273 74.141668 
L 357.417512 74.071144 
L 357.429353 74.071144 
L 357.608539 73.96121 
L 357.720945 73.896908 
L 357.952794 73.786974 
L 358.056505 73.739267 
L 358.063874 73.739267 
L 358.266286 73.629333 
L 358.374303 73.56918 
L 358.377367 73.56918 
L 358.608346 73.459246 
L 358.713879 73.397019 
L 358.719365 73.397019 
L 358.871267 73.287084 
L 358.980671 73.229006 
L 358.982327 73.229006 
L 359.245931 73.119072 
L 359.35608 73.063067 
L 359.357011 73.063067 
L 359.556795 72.953133 
L 359.669655 72.89298 
L 359.923551 72.782009 
L 360.038005 72.729116 
L 360.249008 72.618145 
L 360.359882 72.561103 
L 360.360047 72.561103 
L 360.55095 72.451169 
L 360.664556 72.388942 
L 360.887048 72.279008 
L 360.998708 72.223003 
L 361.159926 72.113069 
L 361.269578 72.050842 
L 361.271007 72.050842 
L 361.458763 71.940908 
L 361.564192 71.893201 
L 361.569823 71.893201 
L 361.826781 71.783266 
L 361.938649 71.743856 
L 362.145532 71.633922 
L 362.251293 71.563398 
L 362.256633 71.563398 
L 362.526096 71.452426 
L 362.636928 71.380865 
L 362.637197 71.380865 
L 362.886828 71.270931 
L 362.996956 71.20663 
L 362.997908 71.20663 
L 363.205951 71.096696 
L 363.205951 71.095659 
L 363.318253 71.036543 
L 363.504726 70.926609 
L 363.61918 70.860233 
L 363.825899 70.750299 
L 363.92489 70.708814 
L 363.936979 70.708814 
L 364.191557 70.59888 
L 364.30359 70.553247 
L 364.486171 70.443313 
L 364.596548 70.36864 
L 364.597251 70.36864 
L 364.784925 70.258706 
L 364.894163 70.198553 
L 364.896026 70.198553 
L 365.072769 70.088619 
L 365.179006 70.020169 
L 365.183788 70.020169 
L 365.416216 69.910235 
L 365.528332 69.860454 
L 365.715301 69.750519 
L 365.825098 69.70696 
L 365.82634 69.70696 
L 366.019789 69.595989 
L 366.129462 69.543096 
L 366.13087 69.543096 
L 366.342121 69.433162 
L 366.449724 69.38338 
L 366.453202 69.38338 
L 366.664764 69.272409 
L 366.773816 69.202922 
L 366.775844 69.202922 
L 367.028187 69.092988 
L 367.142393 69.043206 
L 367.359234 68.932235 
L 367.471308 68.881416 
L 367.661714 68.771482 
L 367.771387 68.705107 
L 367.772795 68.705107 
L 368.006341 68.595172 
L 368.117401 68.544354 
L 368.301265 68.433382 
L 368.412905 68.377378 
L 368.608361 68.267444 
L 368.608361 68.266407 
L 368.721905 68.207291 
L 368.979361 68.09632 
L 369.091559 68.041352 
L 369.343447 67.931418 
L 369.446661 67.867117 
L 369.454527 67.867117 
L 369.676357 67.756146 
L 369.784995 67.707401 
L 369.787437 67.707401 
L 370.018872 67.59643 
L 370.127344 67.537314 
L 370.129953 67.537314 
L 370.397407 67.42738 
L 370.505982 67.348559 
L 370.508508 67.348559 
L 370.775569 67.238625 
L 370.883461 67.184695 
L 370.886629 67.184695 
L 371.114275 67.07476 
L 371.226474 67.018756 
L 371.411621 66.908822 
L 371.522226 66.844521 
L 371.522702 66.844521 
L 371.78554 66.733549 
L 371.897676 66.682731 
L 372.120292 66.572796 
L 372.226529 66.510569 
L 372.231352 66.510569 
L 372.483012 66.400635 
L 372.595086 66.352928 
L 372.862996 66.242993 
L 372.971965 66.203583 
L 372.974076 66.203583 
L 373.212839 66.093649 
L 373.323423 66.041793 
L 373.323878 66.041793 
L 373.619113 65.930822 
L 373.729572 65.877929 
L 373.730214 65.877929 
L 373.909007 65.767994 
L 374.021039 65.718213 
L 374.263363 65.607241 
L 374.360843 65.556423 
L 374.374402 65.556423 
L 374.630781 65.445451 
L 374.748113 65.38841 
L 374.941252 65.277439 
L 375.050448 65.203803 
L 375.052353 65.203803 
L 375.296933 65.093869 
L 375.408945 65.048236 
L 375.64779 64.938302 
L 375.757505 64.892669 
L 375.75883 64.892669 
L 376.095838 64.782734 
L 376.205677 64.720507 
L 376.206919 64.720507 
L 376.492217 64.609536 
L 376.599033 64.552495 
L 376.603215 64.552495 
L 376.864459 64.44256 
L 376.864459 64.441523 
L 376.977051 64.365814 
L 377.341074 64.254842 
L 377.451947 64.199875 
L 377.452134 64.199875 
L 377.759437 64.089941 
L 377.860788 64.036011 
L 377.870497 64.036011 
L 378.118679 63.92504 
L 378.227234 63.870072 
L 378.229759 63.870072 
L 378.441363 63.759101 
L 378.548054 63.720728 
L 378.552443 63.720728 
L 378.860471 63.610793 
L 378.972297 63.571383 
L 379.220168 63.461449 
L 379.319614 63.422038 
L 379.331269 63.422038 
L 379.574358 63.312104 
L 379.679415 63.249877 
L 379.685356 63.249877 
L 379.942501 63.139943 
L 380.050891 63.104681 
L 380.05354 63.104681 
L 380.34716 62.99371 
L 380.456419 62.949114 
L 380.458262 62.949114 
L 380.705119 62.839179 
L 380.813135 62.785249 
L 380.816199 62.785249 
L 381.074628 62.675315 
L 381.074628 62.674278 
L 381.186598 62.631756 
L 381.442936 62.520785 
L 381.551947 62.465818 
L 381.553934 62.465818 
L 381.842669 62.355883 
L 381.94609 62.308176 
L 381.953625 62.308176 
L 382.208203 62.198242 
L 382.208203 62.197205 
L 382.319801 62.146386 
L 382.559744 62.035414 
L 382.6695 61.974225 
L 382.670824 61.974225 
L 382.951362 61.86429 
L 383.059089 61.814509 
L 383.062442 61.814509 
L 383.366578 61.705612 
L 383.461512 61.667238 
L 383.477679 61.667238 
L 383.769333 61.557304 
L 383.878136 61.505448 
L 383.880413 61.505448 
L 384.134909 61.395514 
L 384.134909 61.394477 
L 384.247273 61.331213 
L 384.536711 61.221279 
L 384.647709 61.159052 
L 384.946256 61.049117 
L 385.055183 61.013855 
L 385.057336 61.013855 
L 385.353192 60.902884 
L 385.459946 60.864511 
L 385.46419 60.864511 
L 385.719803 60.754576 
L 385.83018 60.704795 
L 385.830842 60.704795 
L 386.079334 60.594861 
L 386.181099 60.540931 
L 386.190415 60.540931 
L 386.464431 60.430996 
L 386.575988 60.381215 
L 386.798935 60.27128 
L 386.899748 60.223573 
L 386.910036 60.223573 
L 387.289544 60.113639 
L 387.398844 60.072154 
L 387.400583 60.072154 
L 387.718092 59.96222 
L 387.831077 59.916587 
L 388.076795 59.806653 
L 388.183156 59.756871 
L 388.187896 59.756871 
L 388.47661 59.6459 
L 388.573614 59.595081 
L 388.587691 59.595081 
L 388.912238 59.48411 
L 389.022035 59.445736 
L 389.023277 59.445736 
L 389.333623 59.335802 
L 389.439901 59.30054 
L 389.444704 59.30054 
L 389.694148 59.190606 
L 389.795251 59.13875 
L 389.805229 59.13875 
L 390.135489 59.028816 
L 390.245535 58.985257 
L 390.24659 58.985257 
L 390.589251 58.875323 
L 390.698799 58.821392 
L 390.700331 58.821392 
L 391.082012 58.711458 
L 391.190609 58.672048 
L 391.19301 58.672048 
L 391.49698 58.562114 
L 391.605577 58.531 
L 391.608061 58.531 
L 392.01214 58.421066 
L 392.115727 58.38373 
L 392.123221 58.38373 
L 392.403137 58.273795 
L 392.403137 58.272758 
L 392.51637 58.240608 
L 392.909975 58.129636 
L 393.014473 58.082966 
L 393.021056 58.082966 
L 393.369119 57.973032 
L 393.478957 57.950215 
L 393.480199 57.950215 
L 393.773902 57.840281 
L 393.882333 57.809167 
L 393.884941 57.809167 
L 394.30111 57.699233 
L 394.409748 57.670194 
L 394.41219 57.670194 
L 394.820451 57.56026 
L 394.927475 57.516701 
L 394.931553 57.516701 
L 395.043275 57.481439 
L 395.390551 57.371505 
L 395.494635 57.34454 
L 395.50159 57.34454 
L 395.931173 57.234605 
L 396.025838 57.199343 
L 396.042212 57.199343 
L 396.66868 57.089409 
L 396.780154 57.047924 
L 397.147635 56.93799 
L 397.250104 56.904802 
L 397.258632 56.904802 
L 397.732349 56.794868 
L 397.84078 56.755458 
L 397.84343 56.755458 
L 398.396037 56.644486 
L 398.507884 56.606113 
L 399.105681 56.496179 
L 399.216472 56.473362 
L 399.21672 56.473362 
L 399.793776 56.363428 
L 399.860122 56.348908 
L 399.904856 56.348908 
L 400.480752 56.238974 
L 400.580157 56.216157 
L 400.591833 56.216157 
L 401.170585 56.106223 
L 401.278499 56.083407 
L 401.281666 56.083407 
L 401.927655 55.973472 
L 401.927655 55.972435 
L 402.039812 55.946507 
L 402.713705 55.836573 
L 402.794314 55.822053 
L 402.824786 55.822053 
L 403.384949 55.712119 
L 403.384949 55.711082 
L 403.497168 55.685154 
L 404.190541 55.57522 
L 404.300959 55.550329 
L 404.301622 55.550329 
L 404.936267 55.440395 
L 405.045401 55.409281 
L 405.047264 55.409281 
L 405.64738 55.299347 
L 405.758088 55.276531 
L 405.758419 55.276531 
L 406.484065 55.166596 
L 406.581442 55.139631 
L 406.595146 55.139631 
L 407.279845 55.029697 
L 407.377843 55.002732 
L 407.390925 55.002732 
L 408.114418 54.892798 
L 408.219247 54.880352 
L 408.225499 54.880352 
L 408.990931 54.770418 
L 409.06446 54.76627 
L 409.101846 54.76627 
L 409.926069 54.656335 
L 410.034872 54.641816 
L 410.037149 54.641816 
L 411.009755 54.531881 
L 411.108457 54.515287 
L 411.120836 54.515287 
L 411.997142 54.405353 
L 412.102799 54.386685 
L 412.108222 54.386685 
L 413.66368 54.276751 
L 413.66368 54.274677 
L 413.77476 54.274677 
L 414.705551 54.164742 
L 414.719876 54.144 
L 414.72 54.144 
" clip-path="url(#pc5240e61e7)" style="fill: none; stroke: #ff8c00; stroke-width: 1.5; stroke-linecap: square"/>
   </g>
   <g id="line2d_14">
    <path d="M 74.605714 307.584 
L 414.72 54.144 
" clip-path="url(#pc5240e61e7)" style="fill: none; stroke-dasharray: 5.55,2.4; stroke-dashoffset: 0; stroke: #0000ff; stroke-width: 1.5"/>
   </g>
   <g id="patch_3">
    <path d="M 57.6 307.584 
L 57.6 41.472 
" style="fill: none; stroke: #000000; stroke-width: 0.8; stroke-linejoin: miter; stroke-linecap: square"/>
   </g>
   <g id="patch_4">
    <path d="M 414.72 307.584 
L 414.72 41.472 
" style="fill: none; stroke: #000000; stroke-width: 0.8; stroke-linejoin: miter; stroke-linecap: square"/>
   </g>
   <g id="patch_5">
    <path d="M 57.6 307.584 
L 414.72 307.584 
" style="fill: none; stroke: #000000; stroke-width: 0.8; stroke-linejoin: miter; stroke-linecap: square"/>
   </g>
   <g id="patch_6">
    <path d="M 57.6 41.472 
L 414.72 41.472 
" style="fill: none; stroke: #000000; stroke-width: 0.8; stroke-linejoin: miter; stroke-linecap: square"/>
   </g>
   <g id="text_15">
    <!-- ROC CURVE -->
    <g transform="translate(200.855625 35.472)scale(0.12 -0.12)">
     <defs>
      <path id="DejaVuSans-4f" d="M 2522 4238 
Q 1834 4238 1429 3725 
Q 1025 3213 1025 2328 
Q 1025 1447 1429 934 
Q 1834 422 2522 422 
Q 3209 422 3611 934 
Q 4013 1447 4013 2328 
Q 4013 3213 3611 3725 
Q 3209 4238 2522 4238 
z
M 2522 4750 
Q 3503 4750 4090 4092 
Q 4678 3434 4678 2328 
Q 4678 1225 4090 567 
Q 3503 -91 2522 -91 
Q 1538 -91 948 565 
Q 359 1222 359 2328 
Q 359 3434 948 4092 
Q 1538 4750 2522 4750 
z
" transform="scale(0.015625)"/>
      <path id="DejaVuSans-43" d="M 4122 4306 
L 4122 3641 
Q 3803 3938 3442 4084 
Q 3081 4231 2675 4231 
Q 1875 4231 1450 3742 
Q 1025 3253 1025 2328 
Q 1025 1406 1450 917 
Q 1875 428 2675 428 
Q 3081 428 3442 575 
Q 3803 722 4122 1019 
L 4122 359 
Q 3791 134 3420 21 
Q 3050 -91 2638 -91 
Q 1578 -91 968 557 
Q 359 1206 359 2328 
Q 359 3453 968 4101 
Q 1578 4750 2638 4750 
Q 3056 4750 3426 4639 
Q 3797 4528 4122 4306 
z
" transform="scale(0.015625)"/>
      <path id="DejaVuSans-55" d="M 556 4666 
L 1191 4666 
L 1191 1831 
Q 1191 1081 1462 751 
Q 1734 422 2344 422 
Q 2950 422 3222 751 
Q 3494 1081 3494 1831 
L 3494 4666 
L 4128 4666 
L 4128 1753 
Q 4128 841 3676 375 
Q 3225 -91 2344 -91 
Q 1459 -91 1007 375 
Q 556 841 556 1753 
L 556 4666 
z
" transform="scale(0.015625)"/>
      <path id="DejaVuSans-56" d="M 1831 0 
L 50 4666 
L 709 4666 
L 2188 738 
L 3669 4666 
L 4325 4666 
L 2547 0 
L 1831 0 
z
" transform="scale(0.015625)"/>
      <path id="DejaVuSans-45" d="M 628 4666 
L 3578 4666 
L 3578 4134 
L 1259 4134 
L 1259 2753 
L 3481 2753 
L 3481 2222 
L 1259 2222 
L 1259 531 
L 3634 531 
L 3634 0 
L 628 0 
L 628 4666 
z
" transform="scale(0.015625)"/>
     </defs>
     <use xlink:href="#DejaVuSans-52"/>
     <use xlink:href="#DejaVuSans-4f" x="69.482422"/>
     <use xlink:href="#DejaVuSans-43" x="148.193359"/>
     <use xlink:href="#DejaVuSans-20" x="218.017578"/>
     <use xlink:href="#DejaVuSans-43" x="249.804688"/>
     <use xlink:href="#DejaVuSans-55" x="319.628906"/>
     <use xlink:href="#DejaVuSans-52" x="392.822266"/>
     <use xlink:href="#DejaVuSans-56" x="456.804688"/>
     <use xlink:href="#DejaVuSans-45" x="525.212891"/>
    </g>
   </g>
   <g id="legend_1">
    <g id="patch_7">
     <path d="M 234.97 302.584 
L 407.72 302.584 
Q 409.72 302.584 409.72 300.584 
L 409.72 286.905875 
Q 409.72 284.905875 407.72 284.905875 
L 234.97 284.905875 
Q 232.97 284.905875 232.97 286.905875 
L 232.97 300.584 
Q 232.97 302.584 234.97 302.584 
z
" style="fill: #ffffff; opacity: 0.8; stroke: #cccccc; stroke-linejoin: miter"/>
    </g>
    <g id="line2d_15">
     <path d="M 236.97 293.004312 
L 246.97 293.004312 
L 256.97 293.004312 
" style="fill: none; stroke: #ff8c00; stroke-width: 1.5; stroke-linecap: square"/>
    </g>
    <g id="text_16">
     <!-- ROC curve (ROC AUC=0.64) -->
     <g transform="translate(264.97 296.504312)scale(0.1 -0.1)">
      <defs>
       <path id="DejaVuSans-63" d="M 3122 3366 
L 3122 2828 
Q 2878 2963 2633 3030 
Q 2388 3097 2138 3097 
Q 1578 3097 1268 2742 
Q 959 2388 959 1747 
Q 959 1106 1268 751 
Q 1578 397 2138 397 
Q 2388 397 2633 464 
Q 2878 531 3122 666 
L 3122 134 
Q 2881 22 2623 -34 
Q 2366 -91 2075 -91 
Q 1284 -91 818 406 
Q 353 903 353 1747 
Q 353 2603 823 3093 
Q 1294 3584 2113 3584 
Q 2378 3584 2631 3529 
Q 2884 3475 3122 3366 
z
" transform="scale(0.015625)"/>
       <path id="DejaVuSans-28" d="M 1984 4856 
Q 1566 4138 1362 3434 
Q 1159 2731 1159 2009 
Q 1159 1288 1364 580 
Q 1569 -128 1984 -844 
L 1484 -844 
Q 1016 -109 783 600 
Q 550 1309 550 2009 
Q 550 2706 781 3412 
Q 1013 4119 1484 4856 
L 1984 4856 
z
" transform="scale(0.015625)"/>
       <path id="DejaVuSans-41" d="M 2188 4044 
L 1331 1722 
L 3047 1722 
L 2188 4044 
z
M 1831 4666 
L 2547 4666 
L 4325 0 
L 3669 0 
L 3244 1197 
L 1141 1197 
L 716 0 
L 50 0 
L 1831 4666 
z
" transform="scale(0.015625)"/>
       <path id="DejaVuSans-3d" d="M 678 2906 
L 4684 2906 
L 4684 2381 
L 678 2381 
L 678 2906 
z
M 678 1631 
L 4684 1631 
L 4684 1100 
L 678 1100 
L 678 1631 
z
" transform="scale(0.015625)"/>
       <path id="DejaVuSans-29" d="M 513 4856 
L 1013 4856 
Q 1481 4119 1714 3412 
Q 1947 2706 1947 2009 
Q 1947 1309 1714 600 
Q 1481 -109 1013 -844 
L 513 -844 
Q 928 -128 1133 580 
Q 1338 1288 1338 2009 
Q 1338 2731 1133 3434 
Q 928 4138 513 4856 
z
" transform="scale(0.015625)"/>
      </defs>
      <use xlink:href="#DejaVuSans-52"/>
      <use xlink:href="#DejaVuSans-4f" x="69.482422"/>
      <use xlink:href="#DejaVuSans-43" x="148.193359"/>
      <use xlink:href="#DejaVuSans-20" x="218.017578"/>
      <use xlink:href="#DejaVuSans-63" x="249.804688"/>
      <use xlink:href="#DejaVuSans-75" x="304.785156"/>
      <use xlink:href="#DejaVuSans-72" x="368.164062"/>
      <use xlink:href="#DejaVuSans-76" x="409.277344"/>
      <use xlink:href="#DejaVuSans-65" x="468.457031"/>
      <use xlink:href="#DejaVuSans-20" x="529.980469"/>
      <use xlink:href="#DejaVuSans-28" x="561.767578"/>
      <use xlink:href="#DejaVuSans-52" x="600.78125"/>
      <use xlink:href="#DejaVuSans-4f" x="670.263672"/>
      <use xlink:href="#DejaVuSans-43" x="748.974609"/>
      <use xlink:href="#DejaVuSans-20" x="818.798828"/>
      <use xlink:href="#DejaVuSans-41" x="850.585938"/>
      <use xlink:href="#DejaVuSans-55" x="918.994141"/>
      <use xlink:href="#DejaVuSans-43" x="992.1875"/>
      <use xlink:href="#DejaVuSans-3d" x="1062.011719"/>
      <use xlink:href="#DejaVuSans-30" x="1145.800781"/>
      <use xlink:href="#DejaVuSans-2e" x="1209.423828"/>
      <use xlink:href="#DejaVuSans-36" x="1241.210938"/>
      <use xlink:href="#DejaVuSans-34" x="1304.833984"/>
      <use xlink:href="#DejaVuSans-29" x="1368.457031"/>
     </g>
    </g>
   </g>
  </g>
 </g>
 <defs>
  <clipPath id="pc5240e61e7">
   <rect x="57.6" y="41.472" width="357.12" height="266.112"/>
  </clipPath>
 </defs>
</svg>
