<?xml version="1.0" encoding="utf-8" standalone="no"?>
<!DOCTYPE svg PUBLIC "-//W3C//DTD SVG 1.1//EN"
  "http://www.w3.org/Graphics/SVG/1.1/DTD/svg11.dtd">
<svg xmlns:xlink="http://www.w3.org/1999/xlink" width="460.8pt" height="345.6pt" viewBox="0 0 460.8 345.6" xmlns="http://www.w3.org/2000/svg" version="1.1">
 <metadata>
  <rdf:RDF xmlns:dc="http://purl.org/dc/elements/1.1/" xmlns:cc="http://creativecommons.org/ns#" xmlns:rdf="http://www.w3.org/1999/02/22-rdf-syntax-ns#">
   <cc:Work>
    <dc:type rdf:resource="http://purl.org/dc/dcmitype/StillImage"/>
    <dc:date>2022-05-27T19:27:55.540779</dc:date>
    <dc:format>image/svg+xml</dc:format>
    <dc:creator>
     <cc:Agent>
      <dc:title>Matplotlib v3.5.1, https://matplotlib.org/</dc:title>
     </cc:Agent>
    </dc:creator>
   </cc:Work>
  </rdf:RDF>
 </metadata>
 <defs>
  <style type="text/css">*{stroke-linejoin: round; stroke-linecap: butt}</style>
 </defs>
 <g id="figure_1">
  <g id="patch_1">
   <path d="M 0 345.6 
L 460.8 345.6 
L 460.8 0 
L 0 0 
z
" style="fill: #ffffff"/>
  </g>
  <g id="axes_1">
   <g id="patch_2">
    <path d="M 57.6 307.584 
L 414.72 307.584 
L 414.72 41.472 
L 57.6 41.472 
z
" style="fill: #ffffff"/>
   </g>
   <g id="matplotlib.axis_1">
    <g id="xtick_1">
     <g id="line2d_1">
      <defs>
       <path id="m620ce7bf13" d="M 0 0 
L 0 3.5 
" style="stroke: #000000; stroke-width: 0.8"/>
      </defs>
      <g>
       <use xlink:href="#m620ce7bf13" x="74.605714" y="307.584" style="stroke: #000000; stroke-width: 0.8"/>
      </g>
     </g>
     <g id="text_1">
      <!-- 0.0 -->
      <g transform="translate(66.654152 322.182437)scale(0.1 -0.1)">
       <defs>
        <path id="DejaVuSans-30" d="M 2034 4250 
Q 1547 4250 1301 3770 
Q 1056 3291 1056 2328 
Q 1056 1369 1301 889 
Q 1547 409 2034 409 
Q 2525 409 2770 889 
Q 3016 1369 3016 2328 
Q 3016 3291 2770 3770 
Q 2525 4250 2034 4250 
z
M 2034 4750 
Q 2819 4750 3233 4129 
Q 3647 3509 3647 2328 
Q 3647 1150 3233 529 
Q 2819 -91 2034 -91 
Q 1250 -91 836 529 
Q 422 1150 422 2328 
Q 422 3509 836 4129 
Q 1250 4750 2034 4750 
z
" transform="scale(0.015625)"/>
        <path id="DejaVuSans-2e" d="M 684 794 
L 1344 794 
L 1344 0 
L 684 0 
L 684 794 
z
" transform="scale(0.015625)"/>
       </defs>
       <use xlink:href="#DejaVuSans-30"/>
       <use xlink:href="#DejaVuSans-2e" x="63.623047"/>
       <use xlink:href="#DejaVuSans-30" x="95.410156"/>
      </g>
     </g>
    </g>
    <g id="xtick_2">
     <g id="line2d_2">
      <g>
       <use xlink:href="#m620ce7bf13" x="142.628571" y="307.584" style="stroke: #000000; stroke-width: 0.8"/>
      </g>
     </g>
     <g id="text_2">
      <!-- 0.2 -->
      <g transform="translate(134.677009 322.182437)scale(0.1 -0.1)">
       <defs>
        <path id="DejaVuSans-32" d="M 1228 531 
L 3431 531 
L 3431 0 
L 469 0 
L 469 531 
Q 828 903 1448 1529 
Q 2069 2156 2228 2338 
Q 2531 2678 2651 2914 
Q 2772 3150 2772 3378 
Q 2772 3750 2511 3984 
Q 2250 4219 1831 4219 
Q 1534 4219 1204 4116 
Q 875 4013 500 3803 
L 500 4441 
Q 881 4594 1212 4672 
Q 1544 4750 1819 4750 
Q 2544 4750 2975 4387 
Q 3406 4025 3406 3419 
Q 3406 3131 3298 2873 
Q 3191 2616 2906 2266 
Q 2828 2175 2409 1742 
Q 1991 1309 1228 531 
z
" transform="scale(0.015625)"/>
       </defs>
       <use xlink:href="#DejaVuSans-30"/>
       <use xlink:href="#DejaVuSans-2e" x="63.623047"/>
       <use xlink:href="#DejaVuSans-32" x="95.410156"/>
      </g>
     </g>
    </g>
    <g id="xtick_3">
     <g id="line2d_3">
      <g>
       <use xlink:href="#m620ce7bf13" x="210.651429" y="307.584" style="stroke: #000000; stroke-width: 0.8"/>
      </g>
     </g>
     <g id="text_3">
      <!-- 0.4 -->
      <g transform="translate(202.699866 322.182437)scale(0.1 -0.1)">
       <defs>
        <path id="DejaVuSans-34" d="M 2419 4116 
L 825 1625 
L 2419 1625 
L 2419 4116 
z
M 2253 4666 
L 3047 4666 
L 3047 1625 
L 3713 1625 
L 3713 1100 
L 3047 1100 
L 3047 0 
L 2419 0 
L 2419 1100 
L 313 1100 
L 313 1709 
L 2253 4666 
z
" transform="scale(0.015625)"/>
       </defs>
       <use xlink:href="#DejaVuSans-30"/>
       <use xlink:href="#DejaVuSans-2e" x="63.623047"/>
       <use xlink:href="#DejaVuSans-34" x="95.410156"/>
      </g>
     </g>
    </g>
    <g id="xtick_4">
     <g id="line2d_4">
      <g>
       <use xlink:href="#m620ce7bf13" x="278.674286" y="307.584" style="stroke: #000000; stroke-width: 0.8"/>
      </g>
     </g>
     <g id="text_4">
      <!-- 0.6 -->
      <g transform="translate(270.722723 322.182437)scale(0.1 -0.1)">
       <defs>
        <path id="DejaVuSans-36" d="M 2113 2584 
Q 1688 2584 1439 2293 
Q 1191 2003 1191 1497 
Q 1191 994 1439 701 
Q 1688 409 2113 409 
Q 2538 409 2786 701 
Q 3034 994 3034 1497 
Q 3034 2003 2786 2293 
Q 2538 2584 2113 2584 
z
M 3366 4563 
L 3366 3988 
Q 3128 4100 2886 4159 
Q 2644 4219 2406 4219 
Q 1781 4219 1451 3797 
Q 1122 3375 1075 2522 
Q 1259 2794 1537 2939 
Q 1816 3084 2150 3084 
Q 2853 3084 3261 2657 
Q 3669 2231 3669 1497 
Q 3669 778 3244 343 
Q 2819 -91 2113 -91 
Q 1303 -91 875 529 
Q 447 1150 447 2328 
Q 447 3434 972 4092 
Q 1497 4750 2381 4750 
Q 2619 4750 2861 4703 
Q 3103 4656 3366 4563 
z
" transform="scale(0.015625)"/>
       </defs>
       <use xlink:href="#DejaVuSans-30"/>
       <use xlink:href="#DejaVuSans-2e" x="63.623047"/>
       <use xlink:href="#DejaVuSans-36" x="95.410156"/>
      </g>
     </g>
    </g>
    <g id="xtick_5">
     <g id="line2d_5">
      <g>
       <use xlink:href="#m620ce7bf13" x="346.697143" y="307.584" style="stroke: #000000; stroke-width: 0.8"/>
      </g>
     </g>
     <g id="text_5">
      <!-- 0.8 -->
      <g transform="translate(338.74558 322.182437)scale(0.1 -0.1)">
       <defs>
        <path id="DejaVuSans-38" d="M 2034 2216 
Q 1584 2216 1326 1975 
Q 1069 1734 1069 1313 
Q 1069 891 1326 650 
Q 1584 409 2034 409 
Q 2484 409 2743 651 
Q 3003 894 3003 1313 
Q 3003 1734 2745 1975 
Q 2488 2216 2034 2216 
z
M 1403 2484 
Q 997 2584 770 2862 
Q 544 3141 544 3541 
Q 544 4100 942 4425 
Q 1341 4750 2034 4750 
Q 2731 4750 3128 4425 
Q 3525 4100 3525 3541 
Q 3525 3141 3298 2862 
Q 3072 2584 2669 2484 
Q 3125 2378 3379 2068 
Q 3634 1759 3634 1313 
Q 3634 634 3220 271 
Q 2806 -91 2034 -91 
Q 1263 -91 848 271 
Q 434 634 434 1313 
Q 434 1759 690 2068 
Q 947 2378 1403 2484 
z
M 1172 3481 
Q 1172 3119 1398 2916 
Q 1625 2713 2034 2713 
Q 2441 2713 2670 2916 
Q 2900 3119 2900 3481 
Q 2900 3844 2670 4047 
Q 2441 4250 2034 4250 
Q 1625 4250 1398 4047 
Q 1172 3844 1172 3481 
z
" transform="scale(0.015625)"/>
       </defs>
       <use xlink:href="#DejaVuSans-30"/>
       <use xlink:href="#DejaVuSans-2e" x="63.623047"/>
       <use xlink:href="#DejaVuSans-38" x="95.410156"/>
      </g>
     </g>
    </g>
    <g id="xtick_6">
     <g id="line2d_6">
      <g>
       <use xlink:href="#m620ce7bf13" x="414.72" y="307.584" style="stroke: #000000; stroke-width: 0.8"/>
      </g>
     </g>
     <g id="text_6">
      <!-- 1.0 -->
      <g transform="translate(406.768438 322.182437)scale(0.1 -0.1)">
       <defs>
        <path id="DejaVuSans-31" d="M 794 531 
L 1825 531 
L 1825 4091 
L 703 3866 
L 703 4441 
L 1819 4666 
L 2450 4666 
L 2450 531 
L 3481 531 
L 3481 0 
L 794 0 
L 794 531 
z
" transform="scale(0.015625)"/>
       </defs>
       <use xlink:href="#DejaVuSans-31"/>
       <use xlink:href="#DejaVuSans-2e" x="63.623047"/>
       <use xlink:href="#DejaVuSans-30" x="95.410156"/>
      </g>
     </g>
    </g>
    <g id="text_7">
     <!-- False Positive Rate -->
     <g transform="translate(189.693594 335.860562)scale(0.1 -0.1)">
      <defs>
       <path id="DejaVuSans-46" d="M 628 4666 
L 3309 4666 
L 3309 4134 
L 1259 4134 
L 1259 2759 
L 3109 2759 
L 3109 2228 
L 1259 2228 
L 1259 0 
L 628 0 
L 628 4666 
z
" transform="scale(0.015625)"/>
       <path id="DejaVuSans-61" d="M 2194 1759 
Q 1497 1759 1228 1600 
Q 959 1441 959 1056 
Q 959 750 1161 570 
Q 1363 391 1709 391 
Q 2188 391 2477 730 
Q 2766 1069 2766 1631 
L 2766 1759 
L 2194 1759 
z
M 3341 1997 
L 3341 0 
L 2766 0 
L 2766 531 
Q 2569 213 2275 61 
Q 1981 -91 1556 -91 
Q 1019 -91 701 211 
Q 384 513 384 1019 
Q 384 1609 779 1909 
Q 1175 2209 1959 2209 
L 2766 2209 
L 2766 2266 
Q 2766 2663 2505 2880 
Q 2244 3097 1772 3097 
Q 1472 3097 1187 3025 
Q 903 2953 641 2809 
L 641 3341 
Q 956 3463 1253 3523 
Q 1550 3584 1831 3584 
Q 2591 3584 2966 3190 
Q 3341 2797 3341 1997 
z
" transform="scale(0.015625)"/>
       <path id="DejaVuSans-6c" d="M 603 4863 
L 1178 4863 
L 1178 0 
L 603 0 
L 603 4863 
z
" transform="scale(0.015625)"/>
       <path id="DejaVuSans-73" d="M 2834 3397 
L 2834 2853 
Q 2591 2978 2328 3040 
Q 2066 3103 1784 3103 
Q 1356 3103 1142 2972 
Q 928 2841 928 2578 
Q 928 2378 1081 2264 
Q 1234 2150 1697 2047 
L 1894 2003 
Q 2506 1872 2764 1633 
Q 3022 1394 3022 966 
Q 3022 478 2636 193 
Q 2250 -91 1575 -91 
Q 1294 -91 989 -36 
Q 684 19 347 128 
L 347 722 
Q 666 556 975 473 
Q 1284 391 1588 391 
Q 1994 391 2212 530 
Q 2431 669 2431 922 
Q 2431 1156 2273 1281 
Q 2116 1406 1581 1522 
L 1381 1569 
Q 847 1681 609 1914 
Q 372 2147 372 2553 
Q 372 3047 722 3315 
Q 1072 3584 1716 3584 
Q 2034 3584 2315 3537 
Q 2597 3491 2834 3397 
z
" transform="scale(0.015625)"/>
       <path id="DejaVuSans-65" d="M 3597 1894 
L 3597 1613 
L 953 1613 
Q 991 1019 1311 708 
Q 1631 397 2203 397 
Q 2534 397 2845 478 
Q 3156 559 3463 722 
L 3463 178 
Q 3153 47 2828 -22 
Q 2503 -91 2169 -91 
Q 1331 -91 842 396 
Q 353 884 353 1716 
Q 353 2575 817 3079 
Q 1281 3584 2069 3584 
Q 2775 3584 3186 3129 
Q 3597 2675 3597 1894 
z
M 3022 2063 
Q 3016 2534 2758 2815 
Q 2500 3097 2075 3097 
Q 1594 3097 1305 2825 
Q 1016 2553 972 2059 
L 3022 2063 
z
" transform="scale(0.015625)"/>
       <path id="DejaVuSans-20" transform="scale(0.015625)"/>
       <path id="DejaVuSans-50" d="M 1259 4147 
L 1259 2394 
L 2053 2394 
Q 2494 2394 2734 2622 
Q 2975 2850 2975 3272 
Q 2975 3691 2734 3919 
Q 2494 4147 2053 4147 
L 1259 4147 
z
M 628 4666 
L 2053 4666 
Q 2838 4666 3239 4311 
Q 3641 3956 3641 3272 
Q 3641 2581 3239 2228 
Q 2838 1875 2053 1875 
L 1259 1875 
L 1259 0 
L 628 0 
L 628 4666 
z
" transform="scale(0.015625)"/>
       <path id="DejaVuSans-6f" d="M 1959 3097 
Q 1497 3097 1228 2736 
Q 959 2375 959 1747 
Q 959 1119 1226 758 
Q 1494 397 1959 397 
Q 2419 397 2687 759 
Q 2956 1122 2956 1747 
Q 2956 2369 2687 2733 
Q 2419 3097 1959 3097 
z
M 1959 3584 
Q 2709 3584 3137 3096 
Q 3566 2609 3566 1747 
Q 3566 888 3137 398 
Q 2709 -91 1959 -91 
Q 1206 -91 779 398 
Q 353 888 353 1747 
Q 353 2609 779 3096 
Q 1206 3584 1959 3584 
z
" transform="scale(0.015625)"/>
       <path id="DejaVuSans-69" d="M 603 3500 
L 1178 3500 
L 1178 0 
L 603 0 
L 603 3500 
z
M 603 4863 
L 1178 4863 
L 1178 4134 
L 603 4134 
L 603 4863 
z
" transform="scale(0.015625)"/>
       <path id="DejaVuSans-74" d="M 1172 4494 
L 1172 3500 
L 2356 3500 
L 2356 3053 
L 1172 3053 
L 1172 1153 
Q 1172 725 1289 603 
Q 1406 481 1766 481 
L 2356 481 
L 2356 0 
L 1766 0 
Q 1100 0 847 248 
Q 594 497 594 1153 
L 594 3053 
L 172 3053 
L 172 3500 
L 594 3500 
L 594 4494 
L 1172 4494 
z
" transform="scale(0.015625)"/>
       <path id="DejaVuSans-76" d="M 191 3500 
L 800 3500 
L 1894 563 
L 2988 3500 
L 3597 3500 
L 2284 0 
L 1503 0 
L 191 3500 
z
" transform="scale(0.015625)"/>
       <path id="DejaVuSans-52" d="M 2841 2188 
Q 3044 2119 3236 1894 
Q 3428 1669 3622 1275 
L 4263 0 
L 3584 0 
L 2988 1197 
Q 2756 1666 2539 1819 
Q 2322 1972 1947 1972 
L 1259 1972 
L 1259 0 
L 628 0 
L 628 4666 
L 2053 4666 
Q 2853 4666 3247 4331 
Q 3641 3997 3641 3322 
Q 3641 2881 3436 2590 
Q 3231 2300 2841 2188 
z
M 1259 4147 
L 1259 2491 
L 2053 2491 
Q 2509 2491 2742 2702 
Q 2975 2913 2975 3322 
Q 2975 3731 2742 3939 
Q 2509 4147 2053 4147 
L 1259 4147 
z
" transform="scale(0.015625)"/>
      </defs>
      <use xlink:href="#DejaVuSans-46"/>
      <use xlink:href="#DejaVuSans-61" x="48.394531"/>
      <use xlink:href="#DejaVuSans-6c" x="109.673828"/>
      <use xlink:href="#DejaVuSans-73" x="137.457031"/>
      <use xlink:href="#DejaVuSans-65" x="189.556641"/>
      <use xlink:href="#DejaVuSans-20" x="251.080078"/>
      <use xlink:href="#DejaVuSans-50" x="282.867188"/>
      <use xlink:href="#DejaVuSans-6f" x="339.544922"/>
      <use xlink:href="#DejaVuSans-73" x="400.726562"/>
      <use xlink:href="#DejaVuSans-69" x="452.826172"/>
      <use xlink:href="#DejaVuSans-74" x="480.609375"/>
      <use xlink:href="#DejaVuSans-69" x="519.818359"/>
      <use xlink:href="#DejaVuSans-76" x="547.601562"/>
      <use xlink:href="#DejaVuSans-65" x="606.78125"/>
      <use xlink:href="#DejaVuSans-20" x="668.304688"/>
      <use xlink:href="#DejaVuSans-52" x="700.091797"/>
      <use xlink:href="#DejaVuSans-61" x="767.324219"/>
      <use xlink:href="#DejaVuSans-74" x="828.603516"/>
      <use xlink:href="#DejaVuSans-65" x="867.8125"/>
     </g>
    </g>
   </g>
   <g id="matplotlib.axis_2">
    <g id="ytick_1">
     <g id="line2d_7">
      <defs>
       <path id="mefe5f1a5ab" d="M 0 0 
L -3.5 0 
" style="stroke: #000000; stroke-width: 0.8"/>
      </defs>
      <g>
       <use xlink:href="#mefe5f1a5ab" x="57.6" y="307.584" style="stroke: #000000; stroke-width: 0.8"/>
      </g>
     </g>
     <g id="text_8">
      <!-- 0.0 -->
      <g transform="translate(34.696875 311.383219)scale(0.1 -0.1)">
       <use xlink:href="#DejaVuSans-30"/>
       <use xlink:href="#DejaVuSans-2e" x="63.623047"/>
       <use xlink:href="#DejaVuSans-30" x="95.410156"/>
      </g>
     </g>
    </g>
    <g id="ytick_2">
     <g id="line2d_8">
      <g>
       <use xlink:href="#mefe5f1a5ab" x="57.6" y="256.896" style="stroke: #000000; stroke-width: 0.8"/>
      </g>
     </g>
     <g id="text_9">
      <!-- 0.2 -->
      <g transform="translate(34.696875 260.695219)scale(0.1 -0.1)">
       <use xlink:href="#DejaVuSans-30"/>
       <use xlink:href="#DejaVuSans-2e" x="63.623047"/>
       <use xlink:href="#DejaVuSans-32" x="95.410156"/>
      </g>
     </g>
    </g>
    <g id="ytick_3">
     <g id="line2d_9">
      <g>
       <use xlink:href="#mefe5f1a5ab" x="57.6" y="206.208" style="stroke: #000000; stroke-width: 0.8"/>
      </g>
     </g>
     <g id="text_10">
      <!-- 0.4 -->
      <g transform="translate(34.696875 210.007219)scale(0.1 -0.1)">
       <use xlink:href="#DejaVuSans-30"/>
       <use xlink:href="#DejaVuSans-2e" x="63.623047"/>
       <use xlink:href="#DejaVuSans-34" x="95.410156"/>
      </g>
     </g>
    </g>
    <g id="ytick_4">
     <g id="line2d_10">
      <g>
       <use xlink:href="#mefe5f1a5ab" x="57.6" y="155.52" style="stroke: #000000; stroke-width: 0.8"/>
      </g>
     </g>
     <g id="text_11">
      <!-- 0.6 -->
      <g transform="translate(34.696875 159.319219)scale(0.1 -0.1)">
       <use xlink:href="#DejaVuSans-30"/>
       <use xlink:href="#DejaVuSans-2e" x="63.623047"/>
       <use xlink:href="#DejaVuSans-36" x="95.410156"/>
      </g>
     </g>
    </g>
    <g id="ytick_5">
     <g id="line2d_11">
      <g>
       <use xlink:href="#mefe5f1a5ab" x="57.6" y="104.832" style="stroke: #000000; stroke-width: 0.8"/>
      </g>
     </g>
     <g id="text_12">
      <!-- 0.8 -->
      <g transform="translate(34.696875 108.631219)scale(0.1 -0.1)">
       <use xlink:href="#DejaVuSans-30"/>
       <use xlink:href="#DejaVuSans-2e" x="63.623047"/>
       <use xlink:href="#DejaVuSans-38" x="95.410156"/>
      </g>
     </g>
    </g>
    <g id="ytick_6">
     <g id="line2d_12">
      <g>
       <use xlink:href="#mefe5f1a5ab" x="57.6" y="54.144" style="stroke: #000000; stroke-width: 0.8"/>
      </g>
     </g>
     <g id="text_13">
      <!-- 1.0 -->
      <g transform="translate(34.696875 57.943219)scale(0.1 -0.1)">
       <use xlink:href="#DejaVuSans-31"/>
       <use xlink:href="#DejaVuSans-2e" x="63.623047"/>
       <use xlink:href="#DejaVuSans-30" x="95.410156"/>
      </g>
     </g>
    </g>
    <g id="text_14">
     <!-- True Positive Rate -->
     <g transform="translate(28.617187 219.057687)rotate(-90)scale(0.1 -0.1)">
      <defs>
       <path id="DejaVuSans-54" d="M -19 4666 
L 3928 4666 
L 3928 4134 
L 2272 4134 
L 2272 0 
L 1638 0 
L 1638 4134 
L -19 4134 
L -19 4666 
z
" transform="scale(0.015625)"/>
       <path id="DejaVuSans-72" d="M 2631 2963 
Q 2534 3019 2420 3045 
Q 2306 3072 2169 3072 
Q 1681 3072 1420 2755 
Q 1159 2438 1159 1844 
L 1159 0 
L 581 0 
L 581 3500 
L 1159 3500 
L 1159 2956 
Q 1341 3275 1631 3429 
Q 1922 3584 2338 3584 
Q 2397 3584 2469 3576 
Q 2541 3569 2628 3553 
L 2631 2963 
z
" transform="scale(0.015625)"/>
       <path id="DejaVuSans-75" d="M 544 1381 
L 544 3500 
L 1119 3500 
L 1119 1403 
Q 1119 906 1312 657 
Q 1506 409 1894 409 
Q 2359 409 2629 706 
Q 2900 1003 2900 1516 
L 2900 3500 
L 3475 3500 
L 3475 0 
L 2900 0 
L 2900 538 
Q 2691 219 2414 64 
Q 2138 -91 1772 -91 
Q 1169 -91 856 284 
Q 544 659 544 1381 
z
M 1991 3584 
L 1991 3584 
z
" transform="scale(0.015625)"/>
      </defs>
      <use xlink:href="#DejaVuSans-54"/>
      <use xlink:href="#DejaVuSans-72" x="46.333984"/>
      <use xlink:href="#DejaVuSans-75" x="87.447266"/>
      <use xlink:href="#DejaVuSans-65" x="150.826172"/>
      <use xlink:href="#DejaVuSans-20" x="212.349609"/>
      <use xlink:href="#DejaVuSans-50" x="244.136719"/>
      <use xlink:href="#DejaVuSans-6f" x="300.814453"/>
      <use xlink:href="#DejaVuSans-73" x="361.996094"/>
      <use xlink:href="#DejaVuSans-69" x="414.095703"/>
      <use xlink:href="#DejaVuSans-74" x="441.878906"/>
      <use xlink:href="#DejaVuSans-69" x="481.087891"/>
      <use xlink:href="#DejaVuSans-76" x="508.871094"/>
      <use xlink:href="#DejaVuSans-65" x="568.050781"/>
      <use xlink:href="#DejaVuSans-20" x="629.574219"/>
      <use xlink:href="#DejaVuSans-52" x="661.361328"/>
      <use xlink:href="#DejaVuSans-61" x="728.59375"/>
      <use xlink:href="#DejaVuSans-74" x="789.873047"/>
      <use xlink:href="#DejaVuSans-65" x="829.082031"/>
     </g>
    </g>
   </g>
   <g id="line2d_13">
    <path d="M 74.605714 307.584 
L 74.618197 307.476372 
L 74.729252 306.675376 
L 74.752019 306.565678 
L 74.863074 305.996494 
L 74.88215 305.886797 
L 74.992832 305.439729 
L 74.993205 305.439729 
L 75.017423 305.330032 
L 75.128395 304.868475 
L 75.156761 304.758778 
L 75.267069 304.384152 
L 75.267857 304.384152 
L 75.305843 304.274454 
L 75.423824 303.930874 
L 75.469482 303.821177 
L 75.580579 303.479667 
L 75.627107 303.369969 
L 75.737209 303.084343 
L 75.738121 303.084343 
L 75.785438 302.974645 
L 75.896369 302.701437 
L 75.931369 302.59174 
L 76.040599 302.287485 
L 76.042134 302.287485 
L 76.092478 302.179858 
L 76.20345 301.8963 
L 76.245707 301.786603 
L 76.355311 301.505116 
L 76.35668 301.505116 
L 76.412788 301.395419 
L 76.52376 301.113931 
L 76.582979 301.004234 
L 76.693992 300.770351 
L 76.694075 300.770351 
L 76.750681 300.660654 
L 76.857631 300.443329 
L 76.861757 300.443329 
L 76.915439 300.333632 
L 77.021352 300.099749 
L 77.026038 300.099749 
L 77.080156 299.990052 
L 77.18976 299.793425 
L 77.191004 299.793425 
L 77.254162 299.683727 
L 77.365134 299.495379 
L 77.429495 299.385682 
L 77.539347 299.176636 
L 77.540591 299.176636 
L 77.604247 299.066939 
L 77.713436 298.845475 
L 77.715344 298.845475 
L 77.799029 298.735777 
L 77.907099 298.535011 
L 77.909711 298.535011 
L 77.977597 298.425314 
L 78.088071 298.210059 
L 78.088403 298.210059 
L 78.15774 298.100361 
L 78.266888 297.924432 
L 78.268588 297.924432 
L 78.343357 297.814734 
L 78.453874 297.659502 
L 78.454122 297.659502 
L 78.530053 297.549805 
L 78.639035 297.346969 
L 78.641108 297.346969 
L 78.69618 297.237271 
L 78.811423 297.030296 
L 78.871513 296.920598 
L 78.982568 296.726041 
L 79.07604 296.616344 
L 79.183156 296.444554 
L 79.186929 296.444554 
L 79.269039 296.334856 
L 79.380053 296.146508 
L 79.380094 296.146508 
L 79.473649 296.038881 
L 79.584248 295.87123 
L 79.584746 295.87123 
L 79.647199 295.761533 
L 79.756637 295.595952 
L 79.758171 295.595952 
L 79.841152 295.486255 
L 79.950258 295.359999 
L 79.952041 295.359999 
L 80.035104 295.250302 
L 80.148855 295.117838 
L 80.247511 295.00814 
L 80.361635 294.854978 
L 80.439639 294.745281 
L 80.549823 294.554863 
L 80.549989 294.554863 
L 80.66714 294.445166 
L 80.778113 294.327189 
L 80.778237 294.327189 
L 80.879547 294.217492 
L 80.981396 294.085028 
L 80.990644 294.085028 
L 81.077564 293.974295 
L 81.18779 293.822168 
L 81.188536 293.822168 
L 81.288229 293.712471 
L 81.39862 293.569657 
L 81.399305 293.569657 
L 81.46634 293.45996 
L 81.577146 293.325426 
L 81.577437 293.325426 
L 81.671158 293.215728 
L 81.782213 293.081194 
L 81.782254 293.081194 
L 81.881284 292.971497 
L 81.994661 292.853521 
L 82.094063 292.743823 
L 82.203667 292.611359 
L 82.20516 292.611359 
L 82.309622 292.501661 
L 82.417442 292.373336 
L 82.420677 292.373336 
L 82.510997 292.263639 
L 82.621306 292.141523 
L 82.622094 292.141523 
L 82.729459 292.031826 
L 82.840099 291.90971 
L 82.840535 291.90971 
L 82.917066 291.800013 
L 83.030817 291.665478 
L 83.114461 291.555781 
L 83.225019 291.435735 
L 83.225558 291.435735 
L 83.337608 291.326038 
L 83.448332 291.177015 
L 83.448456 291.177015 
L 83.542136 291.067318 
L 83.654145 290.943132 
L 83.765905 290.833435 
L 83.882185 290.70511 
L 83.967239 290.595413 
L 84.074355 290.487785 
L 84.078336 290.487785 
L 84.135025 290.378088 
L 84.242597 290.264251 
L 84.246101 290.264251 
L 84.349256 290.154554 
L 84.458777 290.034508 
L 84.46027 290.034508 
L 84.578209 289.924811 
L 84.688725 289.796486 
L 84.689306 289.796486 
L 84.815788 289.686788 
L 84.924769 289.568812 
L 84.92676 289.568812 
L 85.062406 289.459115 
L 85.169356 289.349417 
L 85.173503 289.349417 
L 85.254286 289.23972 
L 85.364263 289.121744 
L 85.365341 289.121744 
L 85.449192 289.012047 
L 85.562528 288.89614 
L 85.682126 288.786443 
L 85.792352 288.662257 
L 85.793181 288.662257 
L 85.903283 288.55256 
L 86.018858 288.442863 
L 86.111916 288.333165 
L 86.225335 288.20898 
L 86.328677 288.099283 
L 86.426005 287.995795 
L 86.439773 287.995795 
L 86.539549 287.886097 
L 86.653175 287.757772 
L 86.762779 287.648075 
L 86.871014 287.523889 
L 86.873295 287.523889 
L 86.96826 287.414192 
L 87.081099 287.321053 
L 87.205341 287.211356 
L 87.31847 287.107868 
L 87.423014 286.99817 
L 87.533821 286.869845 
L 87.534028 286.869845 
L 87.676393 286.760148 
L 87.784296 286.65873 
L 87.786702 286.65873 
L 87.897674 286.549033 
L 88.00848 286.420708 
L 88.008605 286.420708 
L 88.119121 286.31101 
L 88.229803 286.23029 
L 88.230093 286.23029 
L 88.394686 286.122662 
L 88.394686 286.120592 
L 88.507524 286.027453 
L 88.58615 285.917756 
L 88.696708 285.79357 
L 88.697247 285.79357 
L 88.824185 285.683873 
L 88.934494 285.590734 
L 88.935281 285.590734 
L 89.065039 285.481037 
L 89.174643 285.356851 
L 89.176053 285.356851 
L 89.316013 285.247154 
L 89.426197 285.116759 
L 89.427026 285.116759 
L 89.577187 285.007062 
L 89.686874 284.93669 
L 89.688201 284.93669 
L 89.830234 284.826993 
L 89.943238 284.731784 
L 90.049317 284.622086 
L 90.16257 284.514459 
L 90.27769 284.404762 
L 90.38804 284.295064 
L 90.388786 284.295064 
L 90.547905 284.185367 
L 90.663936 284.106716 
L 90.819654 283.997019 
L 90.929133 283.90181 
L 90.930751 283.90181 
L 91.085266 283.792113 
L 91.197275 283.698974 
L 91.336073 283.589276 
L 91.449451 283.47544 
L 91.557023 283.365742 
L 91.667373 283.291231 
L 91.668119 283.291231 
L 91.820022 283.181534 
L 91.937671 283.075976 
L 92.032387 282.966279 
L 92.14282 282.869 
L 92.143484 282.869 
L 92.259101 282.759303 
L 92.372458 282.647536 
L 92.465163 282.537838 
L 92.574849 282.452978 
L 92.576259 282.452978 
L 92.721651 282.343281 
L 92.834241 282.26256 
L 92.962547 282.152863 
L 93.071695 282.053515 
L 93.073644 282.053515 
L 93.223266 281.943817 
L 93.338012 281.846539 
L 93.492735 281.736841 
L 93.602504 281.658191 
L 93.60379 281.658191 
L 93.705763 281.548493 
L 93.816321 281.434657 
L 93.816653 281.434657 
L 93.956322 281.324959 
L 94.069077 281.23596 
L 94.219404 281.126262 
L 94.335353 281.006216 
L 94.439773 280.896519 
L 94.439773 280.895484 
L 94.555597 280.778543 
L 94.677351 280.668845 
L 94.790522 280.563288 
L 94.910576 280.45359 
L 95.02105 280.37494 
L 95.021672 280.37494 
L 95.132956 280.265242 
L 95.246769 280.176243 
L 95.396183 280.066545 
L 95.506616 279.975476 
L 95.507238 279.975476 
L 95.659224 279.865779 
L 95.767998 279.76436 
L 95.770279 279.76436 
L 95.932839 279.654663 
L 96.048166 279.551175 
L 96.175851 279.441478 
L 96.288979 279.34006 
L 96.440737 279.229328 
L 96.553762 279.131014 
L 96.683147 279.021317 
L 96.796358 278.915759 
L 96.909777 278.806062 
L 97.02274 278.710853 
L 97.137486 278.601156 
L 97.248044 278.483179 
L 97.248541 278.483179 
L 97.392896 278.373482 
L 97.502625 278.274134 
L 97.503993 278.274134 
L 97.615629 278.164436 
L 97.728302 278.079576 
L 97.876265 277.969879 
L 97.989642 277.853972 
L 98.121474 277.744275 
L 98.234436 277.651136 
L 98.360877 277.541439 
L 98.467951 277.44623 
L 98.471932 277.44623 
L 98.627318 277.336532 
L 98.742354 277.239254 
L 98.887829 277.128522 
L 98.998055 277.046766 
L 98.998843 277.046766 
L 99.134282 276.936034 
L 99.242808 276.827372 
L 99.245317 276.827372 
L 99.401885 276.717674 
L 99.516589 276.628675 
L 99.660945 276.518977 
L 99.771751 276.417559 
L 99.772 276.417559 
L 99.943891 276.307862 
L 100.056729 276.218862 
L 100.198845 276.109165 
L 100.312057 275.999468 
L 100.455748 275.88977 
L 100.562201 275.823538 
L 100.566762 275.823538 
L 100.741888 275.712806 
L 100.850496 275.622771 
L 100.852943 275.622771 
L 100.97337 275.513074 
L 101.088158 275.422005 
L 101.232306 275.312307 
L 101.342532 275.225378 
L 101.343319 275.225378 
L 101.490329 275.11568 
L 101.603209 275.020471 
L 101.728198 274.910774 
L 101.841285 274.799007 
L 102.004177 274.68931 
L 102.111749 274.587892 
L 102.115274 274.587892 
L 102.25656 274.478194 
L 102.367366 274.395404 
L 102.367615 274.395404 
L 102.513878 274.285707 
L 102.624809 274.17394 
L 102.624975 274.17394 
L 102.779739 274.064242 
L 102.894526 273.973173 
L 103.055594 273.863476 
L 103.168764 273.759988 
L 103.29197 273.65029 
L 103.409328 273.573709 
L 103.52084 273.464012 
L 103.633927 273.360524 
L 103.802542 273.250827 
L 103.915546 273.155618 
L 104.036098 273.045921 
L 104.152378 272.96313 
L 104.333973 272.853433 
L 104.450793 272.760294 
L 104.571966 272.650597 
L 104.687003 272.553318 
L 104.805854 272.443621 
L 104.918693 272.352551 
L 105.034102 272.242854 
L 105.14495 272.139366 
L 105.145199 272.139366 
L 105.292167 272.029669 
L 105.406996 271.938599 
L 105.527838 271.828902 
L 105.6408 271.729553 
L 105.801329 271.619856 
L 105.909523 271.522578 
L 105.912218 271.522578 
L 106.030406 271.41288 
L 106.139595 271.321811 
L 106.141461 271.321811 
L 106.258032 271.212114 
L 106.370953 271.121044 
L 106.521985 271.011347 
L 106.638183 270.883022 
L 106.812769 270.773325 
L 106.923285 270.680185 
L 106.923866 270.680185 
L 107.077137 270.570488 
L 107.187321 270.491837 
L 107.188234 270.491837 
L 107.324958 270.38214 
L 107.440824 270.305559 
L 107.609273 270.195862 
L 107.717819 270.108932 
L 107.720245 270.108932 
L 107.863149 269.999234 
L 107.980881 269.920584 
L 108.107404 269.810886 
L 108.215888 269.705329 
L 108.218377 269.705329 
L 108.37426 269.595631 
L 108.487016 269.506632 
L 108.653516 269.396934 
L 108.770667 269.299656 
L 108.900093 269.189958 
L 109.023797 269.067843 
L 109.203069 268.958145 
L 109.315825 268.873285 
L 109.510151 268.763588 
L 109.62668 268.676658 
L 109.745904 268.566961 
L 109.859033 268.461403 
L 109.994721 268.349636 
L 110.150066 268.239939 
L 110.264397 268.161288 
L 110.41547 268.051591 
L 110.532124 267.912917 
L 110.665697 267.803219 
L 110.788322 267.693522 
L 110.912316 267.583825 
L 111.030794 267.494825 
L 111.192235 267.385128 
L 111.309511 267.28578 
L 111.451087 267.176082 
L 111.570312 267.076734 
L 111.703346 266.967037 
L 111.817761 266.886316 
L 111.953324 266.776619 
L 112.061684 266.693828 
L 112.064421 266.693828 
L 112.181365 266.584131 
L 112.295986 266.490992 
L 112.435739 266.381295 
L 112.548535 266.294365 
L 112.675391 266.183633 
L 112.77894 266.093598 
L 112.786446 266.093598 
L 112.944901 265.983901 
L 113.050772 265.921808 
L 113.055873 265.921808 
L 113.219802 265.812111 
L 113.33206 265.737599 
L 113.462191 265.627902 
L 113.582286 265.532693 
L 113.73336 265.422996 
L 113.847567 265.346415 
L 113.991507 265.236717 
L 114.106377 265.141509 
L 114.241775 265.033881 
L 114.354116 264.971788 
L 114.473341 264.862091 
L 114.588211 264.802068 
L 114.726927 264.692371 
L 114.843912 264.597162 
L 114.979807 264.487464 
L 115.094346 264.398465 
L 115.22483 264.287733 
L 115.33773 264.197698 
L 115.52679 264.088001 
L 115.640623 264.019699 
L 115.806667 263.910002 
L 115.919547 263.821002 
L 116.072321 263.711305 
L 116.186776 263.628514 
L 116.308489 263.518817 
L 116.422903 263.438096 
L 116.570162 263.328399 
L 116.689884 263.247678 
L 116.848297 263.137981 
L 116.962546 263.05933 
L 117.095124 262.949633 
L 117.211736 262.860633 
L 117.389598 262.750936 
L 117.506376 262.655727 
L 117.6555 262.54603 
L 117.773688 262.430123 
L 117.912113 262.320426 
L 118.024703 262.245915 
L 118.196304 262.136217 
L 118.310925 262.049288 
L 118.442674 261.93959 
L 118.559493 261.846451 
L 118.747184 261.736754 
L 118.867777 261.620847 
L 119.042488 261.51115 
L 119.170504 261.376616 
L 119.320956 261.266918 
L 119.43425 261.155151 
L 119.568363 261.045454 
L 119.687338 260.950245 
L 119.815479 260.840548 
L 119.931511 260.761897 
L 120.05086 260.6522 
L 120.163823 260.556991 
L 120.3229 260.447294 
L 120.435738 260.354154 
L 120.636326 260.244457 
L 120.754763 260.176155 
L 120.879752 260.066458 
L 120.996571 259.973319 
L 121.176963 259.863621 
L 121.289345 259.79325 
L 121.472558 259.683552 
L 121.585064 259.611111 
L 121.732239 259.501413 
L 121.853372 259.379298 
L 122.029036 259.2696 
L 122.150915 259.18474 
L 122.32546 259.075043 
L 122.446302 258.954997 
L 122.585349 258.8453 
L 122.704242 258.75216 
L 122.863257 258.644533 
L 122.979765 258.549324 
L 123.143611 258.439627 
L 123.256076 258.369255 
L 123.396554 258.259558 
L 123.515157 258.15607 
L 123.677365 258.046372 
L 123.796382 257.951163 
L 123.964873 257.841466 
L 124.082314 257.737978 
L 124.232185 257.628281 
L 124.369449 257.508235 
L 124.526825 257.398538 
L 124.639664 257.311608 
L 124.778669 257.20191 
L 124.897977 257.102562 
L 125.045235 256.992865 
L 125.168731 256.912144 
L 125.335521 256.802447 
L 125.451014 256.730005 
L 125.598811 256.620308 
L 125.715299 256.531308 
L 125.850821 256.421611 
L 125.967018 256.338821 
L 126.141646 256.229123 
L 126.253863 256.164961 
L 126.404231 256.055264 
L 126.521838 255.947636 
L 126.665572 255.837939 
L 126.781354 255.763428 
L 126.950052 255.65373 
L 127.064508 255.57094 
L 127.198786 255.460208 
L 127.325973 255.368103 
L 127.484552 255.258406 
L 127.594363 255.183895 
L 127.595524 255.183895 
L 127.760863 255.074198 
L 127.883032 254.96864 
L 128.039289 254.858943 
L 128.170789 254.755455 
L 128.342929 254.645757 
L 128.457716 254.583665 
L 128.602528 254.473967 
L 128.729341 254.349782 
L 128.8783 254.240084 
L 128.996197 254.157294 
L 129.186666 254.049667 
L 129.300625 253.952388 
L 129.433576 253.842691 
L 129.553091 253.76404 
L 129.751066 253.654342 
L 129.868176 253.581901 
L 129.991589 253.472204 
L 130.10675 253.372855 
L 130.239245 253.263158 
L 130.351959 253.182437 
L 130.50946 253.07274 
L 130.624289 252.981671 
L 130.824171 252.871973 
L 130.940991 252.803671 
L 131.089908 252.693974 
L 131.207183 252.627742 
L 131.349009 252.518044 
L 131.46728 252.431114 
L 131.66256 252.321417 
L 131.781121 252.230348 
L 131.929457 252.120651 
L 132.047313 252.03993 
L 132.227083 251.930233 
L 132.344525 251.851582 
L 132.544491 251.741885 
L 132.664089 251.636327 
L 132.838012 251.52663 
L 132.950809 251.4397 
L 133.091266 251.330002 
L 133.211693 251.257561 
L 133.392417 251.147863 
L 133.509506 251.050585 
L 133.669557 250.940888 
L 133.787372 250.858097 
L 133.932142 250.7484 
L 134.048796 250.65733 
L 134.194022 250.547633 
L 134.316191 250.460703 
L 134.456482 250.351006 
L 134.571933 250.274425 
L 134.751247 250.164728 
L 134.874702 250.065379 
L 135.038299 249.955682 
L 135.157731 249.854264 
L 135.324562 249.744566 
L 135.447685 249.665916 
L 135.629073 249.556218 
L 135.74921 249.471358 
L 135.893109 249.361661 
L 136.022348 249.270591 
L 136.191855 249.160894 
L 136.326216 249.040848 
L 136.546999 248.931151 
L 136.67402 248.840081 
L 136.820159 248.730384 
L 136.939591 248.649664 
L 137.093484 248.539966 
L 137.216524 248.446827 
L 137.358349 248.33713 
L 137.481846 248.256409 
L 137.609157 248.146712 
L 137.73145 248.059782 
L 137.868424 247.950085 
L 138.002992 247.865225 
L 138.165884 247.755527 
L 138.291661 247.683086 
L 138.464506 247.573389 
L 138.582611 247.507156 
L 138.721036 247.397459 
L 138.846772 247.314669 
L 139.0564 247.204971 
L 139.174588 247.120111 
L 139.370282 247.010414 
L 139.48932 246.935903 
L 139.666561 246.826205 
L 139.784376 246.753764 
L 139.949279 246.644066 
L 140.069084 246.557137 
L 140.2462 246.446404 
L 140.396278 246.341882 
L 140.604579 246.232184 
L 140.735167 246.145254 
L 140.879563 246.035557 
L 140.996507 245.965185 
L 141.163256 245.855488 
L 141.30533 245.739582 
L 141.484562 245.629884 
L 141.604077 245.551233 
L 141.782893 245.441536 
L 141.902491 245.377374 
L 142.049127 245.267676 
L 142.170674 245.186956 
L 142.350361 245.077258 
L 142.480658 244.97998 
L 142.643384 244.870282 
L 142.766424 244.775074 
L 142.926123 244.665376 
L 143.052605 244.588795 
L 143.26157 244.479098 
L 143.387264 244.396307 
L 143.556501 244.28661 
L 143.696045 244.19968 
L 143.913221 244.089983 
L 144.034975 244.03203 
L 144.214165 243.922333 
L 144.33256 243.833333 
L 144.49566 243.723636 
L 144.609618 243.647054 
L 144.824554 243.537357 
L 144.941954 243.479404 
L 145.087222 243.369707 
L 145.20769 243.320032 
L 145.463681 243.210335 
L 145.582948 243.146173 
L 145.808251 243.036475 
L 145.931664 242.955755 
L 146.1449 242.846058 
L 146.266198 242.779825 
L 146.41354 242.670128 
L 146.532764 242.608035 
L 146.739116 242.498338 
L 146.858839 242.425896 
L 147.071287 242.316199 
L 147.205814 242.231339 
L 147.375009 242.121642 
L 147.489423 242.057479 
L 147.610307 241.968479 
L 147.777097 241.860852 
L 147.894 241.79255 
L 148.111258 241.682853 
L 148.229322 241.61662 
L 148.412824 241.506923 
L 148.533956 241.440691 
L 148.738774 241.330993 
L 148.860445 241.262691 
L 149.083302 241.152994 
L 149.209535 241.078483 
L 149.373837 240.968786 
L 149.494348 240.896344 
L 149.703644 240.786647 
L 149.82515 240.728693 
L 150.017112 240.618996 
L 150.13559 240.550694 
L 150.332072 240.440997 
L 150.460586 240.372695 
L 150.669012 240.262997 
L 150.799185 240.178137 
L 150.986129 240.06844 
L 151.10411 240.016696 
L 151.292256 239.906999 
L 151.415462 239.838697 
L 151.659552 239.728999 
L 151.797562 239.648279 
L 151.991266 239.538582 
L 152.126456 239.46614 
L 152.319041 239.356443 
L 152.445149 239.29228 
L 152.658717 239.182583 
L 152.785779 239.12049 
L 153.024436 239.010793 
L 153.14702 238.95284 
L 153.332347 238.843142 
L 153.45746 238.783119 
L 153.666881 238.673422 
L 153.784198 238.594771 
L 153.965503 238.487144 
L 154.080498 238.42919 
L 154.29701 238.319493 
L 154.434149 238.249121 
L 154.607492 238.139424 
L 154.739447 238.073192 
L 154.959692 237.963494 
L 155.083603 237.909681 
L 155.270215 237.799983 
L 155.407023 237.723402 
L 155.617812 237.61267 
L 155.780124 237.541264 
L 155.991037 237.431566 
L 156.115964 237.363264 
L 156.325489 237.255637 
L 156.450229 237.172846 
L 156.626516 237.063149 
L 156.758264 237.009335 
L 156.993189 236.899638 
L 157.119256 236.841685 
L 157.33751 236.731987 
L 157.482031 236.674034 
L 157.784716 236.564337 
L 157.930482 236.464988 
L 158.165613 236.355291 
L 158.281064 236.284919 
L 158.603075 236.175222 
L 158.732791 236.123478 
L 158.92973 236.013781 
L 159.046218 235.947549 
L 159.285496 235.837851 
L 159.401756 235.790247 
L 159.64429 235.68055 
L 159.795115 235.601899 
L 160.052516 235.492201 
L 160.201557 235.423899 
L 160.468496 235.314202 
L 160.60406 235.254179 
L 160.89165 235.144482 
L 161.047534 235.088598 
L 161.36548 234.978901 
L 161.510292 234.925087 
L 161.724959 234.81539 
L 161.839933 234.776065 
L 162.061794 234.666367 
L 162.19827 234.604275 
L 162.398609 234.496647 
L 162.511987 234.434554 
L 162.753588 234.324857 
L 162.890354 234.266904 
L 163.199136 234.157206 
L 163.317324 234.093044 
L 163.592764 233.983347 
L 163.713233 233.939882 
L 163.950314 233.830184 
L 164.103834 233.761882 
L 164.309025 233.652185 
L 164.439073 233.590092 
L 164.759839 233.482465 
L 164.883957 233.430721 
L 165.119877 233.321024 
L 165.260168 233.258931 
L 165.575274 233.149234 
L 165.698293 233.087141 
L 165.942922 232.977443 
L 166.069735 232.913281 
L 166.366989 232.803584 
L 166.517481 232.731142 
L 166.796944 232.621445 
L 166.918367 232.57384 
L 167.170625 232.464143 
L 167.303742 232.40619 
L 167.597056 232.296493 
L 167.731915 232.253028 
L 167.929848 232.14333 
L 168.048285 232.087447 
L 168.283583 231.97775 
L 168.420722 231.907378 
L 168.65967 231.79768 
L 168.780512 231.754216 
L 169.06014 231.644518 
L 169.182517 231.603123 
L 169.52945 231.493426 
L 169.644735 231.425124 
L 169.928677 231.315426 
L 170.066438 231.269892 
L 170.344906 231.160194 
L 170.469314 231.11673 
L 170.611637 231.069125 
L 170.945342 230.961498 
L 171.071285 230.905614 
L 171.339261 230.795917 
L 171.492905 230.711057 
L 171.813381 230.601359 
L 171.947493 230.545476 
L 172.243212 230.435779 
L 172.376371 230.371616 
L 172.670721 230.261919 
L 172.825692 230.214314 
L 173.088526 230.104617 
L 173.240138 230.030106 
L 173.508363 229.922478 
L 173.630034 229.868664 
L 173.870557 229.758967 
L 174.011615 229.717572 
L 174.256347 229.607875 
L 174.383659 229.543712 
L 174.607221 229.434015 
L 174.749378 229.382271 
L 174.966263 229.272574 
L 175.111738 229.200132 
L 175.318256 229.090435 
L 175.461782 229.030412 
L 175.72362 228.920715 
L 175.856488 228.87518 
L 176.125376 228.765483 
L 176.250075 228.69925 
L 176.516268 228.589553 
L 176.662406 228.510902 
L 176.915453 228.401205 
L 177.034263 228.3536 
L 177.242605 228.243903 
L 177.363779 228.18802 
L 177.666361 228.078322 
L 177.802609 228.034857 
L 178.068138 227.92516 
L 178.200218 227.850649 
L 178.441736 227.740952 
L 178.587502 227.693347 
L 178.80729 227.58365 
L 178.933357 227.517418 
L 179.198596 227.40772 
L 179.315166 227.358046 
L 179.442768 227.281465 
L 179.731354 227.171768 
L 179.866544 227.105535 
L 180.132364 226.995838 
L 180.249805 226.931676 
L 180.502313 226.821978 
L 180.646875 226.759885 
L 180.905977 226.650188 
L 181.076872 226.561189 
L 181.36467 226.453561 
L 181.486259 226.385259 
L 181.705425 226.275562 
L 181.824194 226.236236 
L 182.066624 226.126539 
L 182.187093 226.066516 
L 182.435661 225.956819 
L 182.59876 225.867819 
L 182.859976 225.760192 
L 182.974266 225.696029 
L 183.223788 225.586332 
L 183.367853 225.520099 
L 183.571344 225.410402 
L 183.721256 225.325542 
L 183.892608 225.215845 
L 184.011418 225.166171 
L 184.228593 225.056473 
L 184.380206 224.981962 
L 184.634206 224.872265 
L 184.758905 224.814311 
L 185.002787 224.704614 
L 185.136609 224.6508 
L 185.325792 224.541103 
L 185.460154 224.47901 
L 185.770552 224.369313 
L 185.898154 224.303081 
L 186.1162 224.193383 
L 186.2494 224.129221 
L 186.459526 224.019524 
L 186.626026 223.909826 
L 186.903125 223.800129 
L 187.027907 223.723548 
L 187.272286 223.613851 
L 187.400883 223.545549 
L 187.655464 223.435851 
L 187.787503 223.375828 
L 188.022801 223.266131 
L 188.168193 223.181271 
L 188.423292 223.071574 
L 188.540423 223.005341 
L 188.773108 222.895644 
L 188.889761 222.84183 
L 189.119129 222.732133 
L 189.260872 222.659692 
L 189.463948 222.549994 
L 189.602041 222.481692 
L 189.804495 222.371995 
L 189.919158 222.32646 
L 190.139485 222.216763 
L 190.282099 222.131903 
L 190.514991 222.022206 
L 190.659015 221.943555 
L 190.924793 221.833857 
L 191.079432 221.732439 
L 191.327337 221.624812 
L 191.447142 221.568928 
L 191.708897 221.459231 
L 191.836374 221.409557 
L 192.023941 221.298825 
L 192.162781 221.214999 
L 192.348854 221.107372 
L 192.466047 221.049419 
L 192.680568 220.939721 
L 192.808958 220.871419 
L 192.961358 220.801047 
L 193.163024 220.69135 
L 193.282995 220.639606 
L 193.45613 220.529909 
L 193.585432 220.480235 
L 193.717056 220.43263 
L 193.943023 220.322933 
L 194.057769 220.26498 
L 194.282202 220.155282 
L 194.415609 220.082841 
L 194.603674 219.973144 
L 194.723292 219.904841 
L 194.933522 219.795144 
L 195.063445 219.74133 
L 195.271581 219.630598 
L 195.417263 219.565401 
L 195.673378 219.455704 
L 195.789534 219.395681 
L 196.000573 219.285983 
L 196.131948 219.213542 
L 196.299899 219.103845 
L 196.429616 219.021054 
L 196.602191 218.911357 
L 196.743125 218.820287 
L 196.909666 218.71059 
L 197.055224 218.6278 
L 197.228566 218.518103 
L 197.382957 218.437382 
L 197.625637 218.329754 
L 197.742373 218.288359 
L 197.935413 218.180732 
L 198.058246 218.11036 
L 198.218484 218.000663 
L 198.338787 217.911663 
L 198.542796 217.804035 
L 198.664364 217.741943 
L 198.886267 217.632245 
L 199.028963 217.563943 
L 199.261192 217.454246 
L 199.383361 217.392153 
L 199.598629 217.282456 
L 199.713251 217.238991 
L 199.924911 217.129294 
L 200.068935 217.042364 
L 200.295109 216.932667 
L 200.422503 216.870574 
L 200.6493 216.760877 
L 200.783288 216.686365 
L 200.996524 216.576668 
L 201.111933 216.500087 
L 201.316585 216.39039 
L 201.456005 216.311739 
L 201.689188 216.202041 
L 201.845113 216.117181 
L 202.057479 216.007484 
L 202.211704 215.926763 
L 202.397196 215.817066 
L 202.516048 215.759113 
L 202.720907 215.651485 
L 202.836731 215.585253 
L 203.088534 215.475556 
L 203.202285 215.403114 
L 203.343986 215.336882 
L 203.591434 215.227185 
L 203.73017 215.156813 
L 203.962669 215.049185 
L 204.079696 214.989162 
L 204.298447 214.879465 
L 204.420865 214.84014 
L 204.67528 214.730442 
L 204.810284 214.660071 
L 205.034074 214.550373 
L 205.148613 214.49242 
L 205.374331 214.382723 
L 205.501684 214.312351 
L 205.743036 214.202654 
L 205.885359 214.140561 
L 206.140936 214.030864 
L 206.274965 213.970841 
L 206.473894 213.861143 
L 206.591833 213.794911 
L 206.853671 213.685214 
L 206.988157 213.612772 
L 207.166351 213.503075 
L 207.300671 213.451331 
L 207.515897 213.341634 
L 207.653265 213.269192 
L 207.881326 213.159495 
L 207.99856 213.122239 
L 208.231536 213.012542 
L 208.361169 212.917333 
L 208.599681 212.807636 
L 208.716024 212.76624 
L 208.97019 212.656543 
L 209.09352 212.588241 
L 209.283948 212.478544 
L 209.423659 212.397823 
L 209.645189 212.288126 
L 209.766155 212.234312 
L 209.982004 212.124615 
L 210.114913 212.060452 
L 210.354856 211.950755 
L 210.481959 211.859686 
L 210.656712 211.749988 
L 210.792607 211.681686 
L 211.013515 211.571989 
L 211.127805 211.520245 
L 211.292978 211.410548 
L 211.411622 211.352595 
L 211.629295 211.242897 
L 211.760463 211.178735 
L 211.991738 211.069038 
L 212.108599 211.004875 
L 212.332991 210.895178 
L 212.463329 210.818597 
L 212.659646 210.708899 
L 212.783017 210.648876 
L 212.94396 210.539179 
L 213.063973 210.483296 
L 213.313619 210.373598 
L 213.440723 210.311505 
L 213.657111 210.201808 
L 213.776335 210.139715 
L 213.974891 210.030018 
L 214.100088 209.961716 
L 214.323484 209.852019 
L 214.447353 209.789926 
L 214.696792 209.680229 
L 214.839986 209.616066 
L 215.115467 209.506369 
L 215.253188 209.417369 
L 215.45278 209.307672 
L 215.57329 209.214533 
L 215.778191 209.104836 
L 215.904611 209.024115 
L 216.122014 208.914418 
L 216.253265 208.833697 
L 216.475956 208.728139 
L 216.593232 208.670186 
L 216.845325 208.560489 
L 216.982962 208.479768 
L 217.193917 208.370071 
L 217.323965 208.29556 
L 217.537782 208.185862 
L 217.664844 208.078235 
L 217.876463 207.968538 
L 218.009414 207.904375 
L 218.201625 207.794678 
L 218.33524 207.711887 
L 218.63693 207.60219 
L 218.760012 207.533888 
L 218.938994 207.424191 
L 219.07236 207.335191 
L 219.320803 207.225494 
L 219.456367 207.136494 
L 219.716961 207.026797 
L 219.832454 206.972983 
L 220.028791 206.863286 
L 220.148119 206.813612 
L 220.369836 206.703914 
L 220.49978 206.614915 
L 220.735389 206.505217 
L 220.872031 206.445194 
L 221.086573 206.335497 
L 221.213553 206.275474 
L 221.463489 206.165777 
L 221.583253 206.099545 
L 221.768041 205.989847 
L 221.899167 205.919476 
L 222.064133 205.809778 
L 222.195259 205.745616 
L 222.388714 205.635918 
L 222.515694 205.575895 
L 222.748794 205.466198 
L 222.874778 205.402036 
L 223.098589 205.292338 
L 223.23494 205.199199 
L 223.474758 205.089502 
L 223.602277 205.025339 
L 223.906497 204.915642 
L 224.04712 204.832852 
L 224.222992 204.723154 
L 224.341512 204.634155 
L 224.555867 204.524457 
L 224.684091 204.449946 
L 224.882191 204.340249 
L 225.007885 204.284365 
L 225.194 204.174668 
L 225.323923 204.108436 
L 225.49627 203.998739 
L 225.610934 203.940785 
L 225.834661 203.830053 
L 225.963714 203.750367 
L 226.235588 203.64067 
L 226.360909 203.559949 
L 226.52011 203.450252 
L 226.641367 203.367462 
L 226.838845 203.257765 
L 226.957945 203.195672 
L 227.17201 203.085975 
L 227.300711 203.017672 
L 227.511065 202.907975 
L 227.64132 202.831394 
L 227.894242 202.721697 
L 228.024291 202.626488 
L 228.277213 202.516791 
L 228.406183 202.43814 
L 228.598104 202.328443 
L 228.738188 202.26635 
L 228.92057 202.156652 
L 229.035586 202.09249 
L 229.275715 201.982793 
L 229.39299 201.924839 
L 229.579064 201.815142 
L 229.702809 201.74477 
L 229.943788 201.635073 
L 230.056087 201.57298 
L 230.234945 201.463283 
L 230.384194 201.376353 
L 230.606553 201.266656 
L 230.725944 201.208703 
L 230.918486 201.099005 
L 231.034186 201.053471 
L 231.254057 200.943773 
L 231.384147 200.869262 
L 231.602608 200.759565 
L 231.716732 200.70989 
L 231.921674 200.600193 
L 232.058441 200.511194 
L 232.235515 200.400461 
L 232.402036 200.310427 
L 232.616205 200.20073 
L 232.756579 200.126218 
L 232.959074 200.02066 
L 233.076267 199.9358 
L 233.315007 199.826103 
L 233.440701 199.743313 
L 233.629345 199.635685 
L 233.743843 199.59015 
L 233.880982 199.5115 
L 234.077796 199.401802 
L 234.199551 199.352128 
L 234.382431 199.242431 
L 234.502153 199.174129 
L 234.728494 199.064432 
L 234.848465 199.008548 
L 235.024212 198.900921 
L 235.14182 198.840897 
L 235.266104 198.753968 
L 235.498208 198.64427 
L 235.621912 198.573898 
L 235.7909 198.464201 
L 235.908176 198.404178 
L 236.218284 198.294481 
L 236.333984 198.240667 
L 236.565384 198.13097 
L 236.689999 198.054389 
L 236.856334 197.944692 
L 236.983479 197.890878 
L 237.196549 197.781181 
L 237.312332 197.717018 
L 237.504087 197.607321 
L 237.618542 197.549367 
L 237.801796 197.43967 
L 237.91762 197.383787 
L 238.100832 197.274089 
L 238.223748 197.197508 
L 238.424128 197.087811 
L 238.551439 197.005021 
L 238.746678 196.895323 
L 238.859599 196.845649 
L 239.073955 196.735952 
L 239.193262 196.684208 
L 239.39609 196.574511 
L 239.50843 196.506209 
L 239.673023 196.396511 
L 239.796187 196.31786 
L 240.014773 196.210233 
L 240.129436 196.141931 
L 240.337198 196.032234 
L 240.471849 195.947373 
L 240.632916 195.837676 
L 240.764375 195.761095 
L 240.927599 195.651398 
L 241.047321 195.605863 
L 241.303229 195.496166 
L 241.428757 195.400957 
L 241.594967 195.29126 
L 241.707017 195.231237 
L 241.925147 195.121539 
L 242.048041 195.044958 
L 242.173341 194.978726 
L 242.391554 194.869029 
L 242.509576 194.786238 
L 242.727954 194.676541 
L 242.851181 194.618588 
L 243.046564 194.508891 
L 243.164337 194.475774 
L 243.395612 194.366077 
L 243.517367 194.272938 
L 243.707732 194.163241 
L 243.819264 194.088729 
L 244.044983 193.979032 
L 244.162466 193.916939 
L 244.345222 193.807242 
L 244.47668 193.726521 
L 244.660369 193.616824 
L 244.775426 193.575429 
L 245.005084 193.465732 
L 245.143343 193.374662 
L 245.332071 193.264965 
L 245.449367 193.190454 
L 245.657129 193.080756 
L 245.77513 192.995896 
L 245.999024 192.886199 
L 246.114226 192.817897 
L 246.289518 192.7082 
L 246.41488 192.637828 
L 246.597014 192.528131 
L 246.72615 192.466038 
L 246.949214 192.35634 
L 247.067443 192.319085 
L 247.308879 192.211457 
L 247.426859 192.145225 
L 247.60947 192.035528 
L 247.746257 191.954807 
L 247.92242 191.84511 
L 248.048279 191.770599 
L 248.232901 191.660901 
L 248.353785 191.607087 
L 248.547157 191.49739 
L 248.655268 191.418739 
L 248.658171 191.418739 
L 248.842337 191.309042 
L 248.96774 191.23867 
L 249.212037 191.127938 
L 249.344573 191.050322 
L 249.566186 190.940625 
L 249.679605 190.884741 
L 249.894085 190.775044 
L 250.019406 190.72744 
L 250.227375 190.617742 
L 250.345107 190.55565 
L 250.565476 190.445952 
L 250.68806 190.398348 
L 250.890597 190.288651 
L 251.014217 190.20586 
L 251.247856 190.096163 
L 251.374379 190.029931 
L 251.588072 189.920233 
L 251.707379 189.841583 
L 251.909336 189.731885 
L 252.051617 189.657374 
L 252.241796 189.547677 
L 252.370435 189.479375 
L 252.596692 189.369677 
L 252.728316 189.297236 
L 253.00471 189.187538 
L 253.131482 189.108888 
L 253.311543 188.99919 
L 253.431141 188.932958 
L 253.652795 188.823261 
L 253.783092 188.738401 
L 253.991683 188.628703 
L 254.115014 188.547983 
L 254.275791 188.438285 
L 254.396591 188.363774 
L 254.592783 188.254077 
L 254.727518 188.183705 
L 254.964765 188.074008 
L 255.086851 188.022264 
L 255.295401 187.914636 
L 255.412137 187.846334 
L 255.662447 187.736637 
L 255.775824 187.680753 
L 256.007887 187.571056 
L 256.132296 187.511033 
L 256.392475 187.401336 
L 256.517423 187.349592 
L 256.714486 187.239895 
L 256.831927 187.181941 
L 257.049497 187.072244 
L 257.173387 187.006012 
L 257.382725 186.896315 
L 257.504189 186.828012 
L 257.683378 186.718315 
L 257.799845 186.662432 
L 258.013932 186.552734 
L 258.129631 186.498921 
L 258.313383 186.389223 
L 258.449237 186.322991 
L 258.650073 186.213294 
L 258.763824 186.144992 
L 259.0036 186.035294 
L 259.117683 185.960783 
L 259.292477 185.853156 
L 259.407389 185.791063 
L 259.563853 185.681366 
L 259.689713 185.608924 
L 259.921112 185.499227 
L 260.039715 185.441273 
L 260.24022 185.331576 
L 260.360979 185.269483 
L 260.555388 185.159786 
L 260.684192 185.070786 
L 260.88619 184.960054 
L 261.002304 184.886578 
L 261.206541 184.776881 
L 261.325434 184.716858 
L 261.532657 184.60716 
L 261.652753 184.549207 
L 261.82933 184.43951 
L 261.953572 184.375347 
L 262.109041 184.26565 
L 262.228785 184.197348 
L 262.46684 184.087651 
L 262.586645 184.021418 
L 262.757914 183.911721 
L 262.876102 183.845489 
L 263.052472 183.735792 
L 263.177793 183.66542 
L 263.419725 183.555722 
L 263.539116 183.49156 
L 263.784947 183.381863 
L 263.902181 183.323909 
L 264.091738 183.214212 
L 264.226846 183.127282 
L 264.398778 183.017585 
L 264.531895 182.928585 
L 264.713905 182.818888 
L 264.840055 182.754725 
L 265.046034 182.645028 
L 265.162438 182.580866 
L 265.357034 182.471168 
L 265.471759 182.398727 
L 265.66708 182.28903 
L 265.782241 182.249704 
L 266.018451 182.140007 
L 266.148499 182.073775 
L 266.388691 181.964077 
L 266.503271 181.924752 
L 266.670807 181.815055 
L 266.790281 181.755032 
L 266.997421 181.645334 
L 267.113411 181.566683 
L 267.319307 181.456986 
L 267.439444 181.399033 
L 267.648989 181.289336 
L 267.775844 181.235522 
L 267.937409 181.125825 
L 268.051575 181.07822 
L 268.279408 180.968523 
L 268.394403 180.90643 
L 268.59611 180.796733 
L 268.714195 180.730501 
L 268.901989 180.620803 
L 269.018767 180.569059 
L 269.238472 180.459362 
L 269.361139 180.399339 
L 269.58213 180.289642 
L 269.697726 180.2172 
L 269.851515 180.109573 
L 269.964934 180.068177 
L 270.179663 179.95848 
L 270.299842 179.894318 
L 270.52556 179.78462 
L 270.651627 179.720458 
L 270.856238 179.610761 
L 270.979153 179.534179 
L 271.168192 179.424482 
L 271.289262 179.374808 
L 271.483173 179.265111 
L 271.604928 179.18232 
L 271.814804 179.072623 
L 271.942821 178.987763 
L 272.166175 178.878066 
L 272.280424 178.84288 
L 272.540603 178.733182 
L 272.654603 178.662811 
L 272.883182 178.555183 
L 272.99685 178.503439 
L 273.235051 178.393742 
L 273.360164 178.32544 
L 273.598987 178.215743 
L 273.713111 178.161929 
L 273.974451 178.052232 
L 274.088078 177.988069 
L 274.308612 177.878372 
L 274.424851 177.818349 
L 274.625398 177.708651 
L 274.743088 177.640349 
L 274.934055 177.530652 
L 275.049216 177.46442 
L 275.320343 177.356792 
L 275.436623 177.28642 
L 275.675322 177.176723 
L 275.793593 177.110491 
L 276.025987 177.000794 
L 276.025987 176.999759 
L 276.142641 176.924212 
L 276.355048 176.814515 
L 276.481073 176.750353 
L 276.689748 176.639621 
L 276.806318 176.574423 
L 277.035147 176.464726 
L 277.152215 176.408842 
L 277.367255 176.299145 
L 277.487289 176.222564 
L 277.672947 176.112867 
L 277.787527 176.054913 
L 277.981522 175.945216 
L 278.100912 175.881054 
L 278.276287 175.771356 
L 278.394599 175.703054 
L 278.548865 175.593357 
L 278.663943 175.529194 
L 278.867144 175.419497 
L 279.001131 175.344986 
L 279.176133 175.237358 
L 279.290962 175.185614 
L 279.513984 175.075917 
L 279.626159 175.020034 
L 279.823761 174.910336 
L 279.944645 174.846174 
L 280.127898 174.736477 
L 280.242541 174.680593 
L 280.432409 174.570896 
L 280.553251 174.496384 
L 280.720207 174.386687 
L 280.830806 174.328734 
L 280.83093 174.328734 
L 281.041388 174.219037 
L 281.16194 174.146595 
L 281.330845 174.036898 
L 281.448037 173.962386 
L 281.645681 173.852689 
L 281.758664 173.803015 
L 282.013826 173.693318 
L 282.135601 173.639504 
L 282.353855 173.529807 
L 282.466113 173.469784 
L 282.693448 173.360086 
L 282.810807 173.314552 
L 282.934013 173.233831 
L 283.115608 173.124134 
L 283.23193 173.062041 
L 283.479336 172.952344 
L 283.607871 172.884042 
L 283.798651 172.774344 
L 283.911987 172.714321 
L 284.119335 172.604624 
L 284.236071 172.538392 
L 284.406511 172.428695 
L 284.515327 172.358323 
L 284.517359 172.358323 
L 284.767917 172.248625 
L 284.88934 172.201021 
L 285.149478 172.091324 
L 285.269159 172.025091 
L 285.466346 171.915394 
L 285.58246 171.845022 
L 285.783629 171.735325 
L 285.897711 171.660814 
L 286.06558 171.551116 
L 286.177755 171.491093 
L 286.334343 171.381396 
L 286.452822 171.313094 
L 286.617621 171.203397 
L 286.746384 171.114397 
L 286.95257 171.00677 
L 287.073288 170.9157 
L 287.250155 170.806003 
L 287.365606 170.735631 
L 287.575939 170.625934 
L 287.694127 170.555562 
L 287.874768 170.445865 
L 288.000213 170.365144 
L 288.196944 170.255447 
L 288.317911 170.178866 
L 288.558392 170.069169 
L 288.673595 170.002936 
L 288.823963 169.893239 
L 288.944515 169.833216 
L 289.202621 169.723519 
L 289.322426 169.677984 
L 289.50767 169.568287 
L 289.629756 169.473078 
L 289.860492 169.36338 
L 289.974948 169.309567 
L 290.166723 169.199869 
L 290.280246 169.154335 
L 290.508826 169.044637 
L 290.628424 168.978405 
L 290.811097 168.868708 
L 290.928538 168.792127 
L 291.164956 168.68243 
L 291.272652 168.620337 
L 291.275928 168.620337 
L 291.505876 168.510639 
L 291.62734 168.452686 
L 291.814699 168.342989 
L 291.947319 168.24571 
L 292.171212 168.136013 
L 292.289857 168.065641 
L 292.460172 167.955944 
L 292.578028 167.90627 
L 292.757176 167.796572 
L 292.878474 167.717922 
L 293.030501 167.608224 
L 293.152504 167.523364 
L 293.335737 167.413667 
L 293.448513 167.349504 
L 293.629403 167.238772 
L 293.744357 167.142528 
L 293.954234 167.032831 
L 294.069602 166.962459 
L 294.255095 166.852762 
L 294.369488 166.769972 
L 294.563462 166.660274 
L 294.69492 166.569205 
L 294.908239 166.459508 
L 295.033394 166.399485 
L 295.207192 166.289787 
L 295.321731 166.221485 
L 295.528207 166.111788 
L 295.647681 166.033137 
L 295.86975 165.92344 
L 295.984123 165.867556 
L 296.183798 165.757859 
L 296.295558 165.716464 
L 296.485903 165.606767 
L 296.601479 165.534325 
L 296.792238 165.424628 
L 296.912292 165.356326 
L 297.123081 165.246629 
L 297.248527 165.176257 
L 297.42133 165.066559 
L 297.550715 164.985839 
L 297.773136 164.876142 
L 297.892133 164.793351 
L 298.08677 164.683654 
L 298.20502 164.609143 
L 298.400694 164.499445 
L 298.516414 164.435283 
L 298.714991 164.325585 
L 298.828016 164.263493 
L 298.949065 164.186912 
L 299.116643 164.077214 
L 299.236614 163.992354 
L 299.469341 163.882657 
L 299.591178 163.812285 
L 299.759586 163.702588 
L 299.878645 163.628076 
L 300.094784 163.518379 
L 300.21322 163.450077 
L 300.422144 163.34038 
L 300.547319 163.272078 
L 300.797608 163.162381 
L 300.912935 163.07959 
L 301.104814 162.969893 
L 301.220514 162.878823 
L 301.417618 162.769126 
L 301.543436 162.65322 
L 301.752857 162.543522 
L 301.869615 162.47729 
L 302.069062 162.367593 
L 302.186586 162.301361 
L 302.347364 162.191663 
L 302.467832 162.102664 
L 302.616998 161.992966 
L 302.742485 161.897757 
L 302.906704 161.78806 
L 303.024518 161.725967 
L 303.214469 161.61627 
L 303.326126 161.552108 
L 303.511287 161.44241 
L 303.625204 161.374108 
L 303.813309 161.263376 
L 303.937925 161.18783 
L 304.124538 161.078133 
L 304.236422 161.032598 
L 304.355025 160.962226 
L 304.569671 160.852529 
L 304.683152 160.790436 
L 304.874554 160.680739 
L 304.98986 160.612437 
L 305.192791 160.502739 
L 305.304634 160.457205 
L 305.492989 160.347507 
L 305.605122 160.279205 
L 305.748731 160.169508 
L 305.865218 160.082578 
L 306.044159 159.972881 
L 306.166162 159.888021 
L 306.336104 159.778324 
L 306.452094 159.699673 
L 306.62751 159.589975 
L 306.74632 159.517534 
L 306.912654 159.407837 
L 307.016991 159.331255 
L 307.023751 159.331255 
L 307.220316 159.223628 
L 307.337343 159.140838 
L 307.550496 159.03114 
L 307.667647 158.958699 
L 307.829565 158.849001 
L 307.942424 158.784839 
L 308.14268 158.675142 
L 308.257592 158.615119 
L 308.468464 158.505421 
L 308.582339 158.435049 
L 308.80163 158.325352 
L 308.922348 158.250841 
L 309.105415 158.141144 
L 309.22889 158.066632 
L 309.431261 157.959005 
L 309.549449 157.874145 
L 309.742178 157.764447 
L 309.858811 157.685797 
L 310.061493 157.576099 
L 310.178914 157.489169 
L 310.386178 157.379472 
L 310.489645 157.292542 
L 310.497275 157.292542 
L 310.636944 157.182845 
L 310.756791 157.116613 
L 310.913421 157.006915 
L 311.021905 156.948962 
L 311.024476 156.948962 
L 311.243601 156.839265 
L 311.359881 156.754405 
L 311.530362 156.644707 
L 311.651039 156.553638 
L 311.843664 156.443941 
L 311.970519 156.352871 
L 312.134034 156.243174 
L 312.249028 156.143826 
L 312.402258 156.034128 
L 312.518497 155.974105 
L 312.689434 155.864408 
L 312.809032 155.783687 
L 313.016255 155.67399 
L 313.136392 155.58913 
L 313.34038 155.479433 
L 313.468936 155.378014 
L 313.628759 155.267282 
L 313.739047 155.183457 
L 313.739814 155.183457 
L 313.929164 155.07376 
L 314.04449 154.9889 
L 314.239687 154.879202 
L 314.363515 154.779854 
L 314.525661 154.670157 
L 314.633958 154.618413 
L 314.636757 154.618413 
L 314.806616 154.508715 
L 314.92526 154.417646 
L 315.074592 154.307949 
L 315.182744 154.223089 
L 315.185523 154.223089 
L 315.365625 154.113391 
L 315.479832 154.03474 
L 315.684857 153.925043 
L 315.805948 153.846392 
L 315.976055 153.736695 
L 316.093621 153.651835 
L 316.251226 153.542138 
L 316.368191 153.461417 
L 316.509809 153.35172 
L 316.625965 153.270999 
L 316.848283 153.161302 
L 316.968959 153.045395 
L 317.115678 152.935698 
L 317.238261 152.867396 
L 317.39796 152.757699 
L 317.510509 152.674908 
L 317.687791 152.565211 
L 317.7953 152.476211 
L 317.798887 152.476211 
L 317.995598 152.366514 
L 318.109784 152.260956 
L 318.273671 152.151259 
L 318.386261 152.064329 
L 318.584651 151.954632 
L 318.700185 151.88426 
L 318.867514 151.774563 
L 318.979896 151.708331 
L 319.122821 151.598633 
L 319.234519 151.515843 
L 319.370414 151.406146 
L 319.483501 151.302658 
L 319.649877 151.19296 
L 319.763545 151.128798 
L 319.928178 151.019101 
L 320.042676 150.93631 
L 320.217843 150.826613 
L 320.331054 150.752102 
L 320.527288 150.642404 
L 320.649872 150.553405 
L 320.813552 150.443707 
L 320.925892 150.371266 
L 321.060958 150.261569 
L 321.178566 150.156011 
L 321.330551 150.046314 
L 321.443307 149.961453 
L 321.610761 149.850721 
L 321.728658 149.768966 
L 321.863641 149.659269 
L 321.978595 149.597176 
L 322.111629 149.487479 
L 322.225297 149.425386 
L 322.34618 149.315688 
L 322.460594 149.263944 
L 322.647995 149.154247 
L 322.765685 149.075596 
L 322.979626 148.965899 
L 323.096321 148.889318 
L 323.254403 148.779621 
L 323.369066 148.690621 
L 323.51367 148.580924 
L 323.631485 148.500203 
L 323.801841 148.390506 
L 323.919034 148.291157 
L 324.078733 148.18146 
L 324.194184 148.111088 
L 324.387349 148.001391 
L 324.49998 147.92481 
L 324.642884 147.815113 
L 324.759537 147.726113 
L 324.952868 147.616416 
L 325.067137 147.537765 
L 325.237639 147.428068 
L 325.355122 147.351487 
L 325.511752 147.241789 
L 325.628696 147.14658 
L 325.791547 147.036883 
L 325.904385 146.943744 
L 326.105927 146.834047 
L 326.218724 146.745047 
L 326.373612 146.63535 
L 326.486119 146.562908 
L 326.655687 146.453211 
L 326.76977 146.380769 
L 326.904048 146.271072 
L 327.016638 146.196561 
L 327.173102 146.086863 
L 327.291497 146.018561 
L 327.449081 145.908864 
L 327.564263 145.842632 
L 327.710671 145.732934 
L 327.823302 145.652214 
L 327.988309 145.542517 
L 328.102619 145.463866 
L 328.249317 145.354168 
L 328.364105 145.263099 
L 328.518828 145.153402 
L 328.634984 145.072681 
L 328.807662 144.962984 
L 328.920957 144.853287 
L 329.111717 144.743589 
L 329.225011 144.685636 
L 329.386783 144.575939 
L 329.506962 144.466242 
L 329.646963 144.356544 
L 329.760921 144.286172 
L 329.937374 144.17544 
L 330.062653 144.095755 
L 330.225566 143.986057 
L 330.34535 143.892918 
L 330.490037 143.783221 
L 330.5996 143.714919 
L 330.600968 143.714919 
L 330.748807 143.605222 
L 330.861106 143.543129 
L 331.008157 143.433432 
L 331.121161 143.338223 
L 331.26676 143.228525 
L 331.381175 143.147805 
L 331.541661 143.038107 
L 331.655039 142.980154 
L 331.768831 142.870457 
L 331.884282 142.785597 
L 332.026647 142.675899 
L 332.140812 142.601388 
L 332.289273 142.491691 
L 332.407834 142.402691 
L 332.533736 142.292994 
L 332.648979 142.189506 
L 332.819356 142.079809 
L 332.940468 141.994949 
L 333.057288 141.885251 
L 333.176181 141.792112 
L 333.316057 141.682415 
L 333.432089 141.603764 
L 333.580031 141.494067 
L 333.691895 141.417486 
L 333.852879 141.307788 
L 333.968517 141.218789 
L 334.09954 141.109091 
L 334.209268 141.040789 
L 334.210636 141.040789 
L 334.332142 140.931092 
L 334.446722 140.846232 
L 334.600283 140.736535 
L 334.712832 140.664093 
L 334.858597 140.554396 
L 334.97326 140.467466 
L 335.111644 140.357769 
L 335.232817 140.26256 
L 335.428138 140.152862 
L 335.540562 140.082491 
L 335.659082 139.972793 
L 335.775072 139.894143 
L 335.928219 139.784445 
L 336.048128 139.678888 
L 336.182012 139.56919 
L 336.272996 139.480191 
L 336.293026 139.480191 
L 336.456872 139.370493 
L 336.574106 139.271145 
L 336.707347 139.161448 
L 336.821844 139.076587 
L 336.963421 138.96689 
L 337.079079 138.894449 
L 337.203944 138.784751 
L 337.319768 138.679194 
L 337.448946 138.568461 
L 337.566055 138.497055 
L 337.717668 138.387357 
L 337.838842 138.265242 
L 337.977101 138.155544 
L 338.091847 138.066545 
L 338.253578 137.956847 
L 338.36737 137.865778 
L 338.476269 137.756081 
L 338.590144 137.687779 
L 338.772734 137.578081 
L 338.878771 137.489082 
L 338.883706 137.489082 
L 339.071439 137.379385 
L 339.188092 137.290385 
L 339.380262 137.180688 
L 339.495754 137.07306 
L 339.620163 136.963363 
L 339.733333 136.859875 
L 339.864708 136.750178 
L 339.990817 136.650829 
L 340.150681 136.541132 
L 340.268621 136.429365 
L 340.41422 136.319668 
L 340.529422 136.218249 
L 340.664986 136.107517 
L 340.774299 136.005064 
L 340.775875 136.005064 
L 340.918986 135.895367 
L 341.034188 135.829135 
L 341.175682 135.719437 
L 341.294596 135.626298 
L 341.439801 135.516601 
L 341.555501 135.402764 
L 341.707404 135.293067 
L 341.822565 135.193718 
L 341.962026 135.084021 
L 342.074492 135.013649 
L 342.266163 134.903952 
L 342.386508 134.792185 
L 342.508884 134.682488 
L 342.626575 134.601767 
L 342.728133 134.49207 
L 342.841138 134.396861 
L 342.991921 134.287164 
L 343.100861 134.181606 
L 343.102934 134.181606 
L 343.235844 134.071909 
L 343.359921 133.97049 
L 343.453683 133.860793 
L 343.567144 133.740747 
L 343.708347 133.63105 
L 343.817702 133.54412 
L 343.819423 133.54412 
L 343.970351 133.434423 
L 344.083252 133.343353 
L 344.258398 133.233656 
L 344.371485 133.119819 
L 344.503026 133.010122 
L 344.615865 132.923192 
L 344.78759 132.813495 
L 344.902834 132.712077 
L 345.075554 132.602379 
L 345.188849 132.490612 
L 345.328684 132.380915 
L 345.436297 132.291915 
L 345.439739 132.291915 
L 345.559295 132.182218 
L 345.671802 132.109776 
L 345.813669 132.000079 
L 345.928913 131.898661 
L 346.074346 131.788964 
L 346.187516 131.683406 
L 346.318643 131.573709 
L 346.438324 131.470221 
L 346.536731 131.360523 
L 346.647454 131.263245 
L 346.647661 131.263245 
L 346.808397 131.153547 
L 346.913688 131.079036 
L 346.919452 131.079036 
L 347.060034 130.969339 
L 347.172955 130.878269 
L 347.293134 130.768572 
L 347.41155 130.681642 
L 347.536269 130.571945 
L 347.536269 130.57091 
L 347.667147 130.456038 
L 347.827551 130.346341 
L 347.942318 130.226295 
L 348.079644 130.118668 
L 348.19157 130.031738 
L 348.353674 129.92204 
L 348.46672 129.822692 
L 348.606969 129.712995 
L 348.72325 129.58467 
L 348.875152 129.474972 
L 348.989898 129.385973 
L 349.093738 129.278345 
L 349.205374 129.218322 
L 349.353461 129.108625 
L 349.459789 128.994788 
L 349.464558 128.994788 
L 349.588635 128.885091 
L 349.702095 128.767115 
L 349.851738 128.657417 
L 349.966463 128.535302 
L 350.05865 128.425604 
L 350.174184 128.313837 
L 350.278313 128.20414 
L 350.391649 128.092373 
L 350.501958 127.982676 
L 350.501958 127.981641 
L 350.628896 127.85642 
L 350.749241 127.746723 
L 350.861125 127.659793 
L 350.999011 127.550096 
L 350.999011 127.549061 
L 351.117324 127.463166 
L 351.255998 127.353469 
L 351.370992 127.25619 
L 351.503529 127.146493 
L 351.616409 127.055423 
L 351.737375 126.945726 
L 351.850255 126.854657 
L 351.981858 126.744959 
L 352.093847 126.65596 
L 352.21585 126.546262 
L 352.324583 126.455193 
L 352.326947 126.455193 
L 352.485567 126.345496 
L 352.59994 126.262705 
L 352.720865 126.153008 
L 352.833786 126.059869 
L 352.953011 125.950172 
L 353.076507 125.842544 
L 353.192248 125.732847 
L 353.310602 125.614871 
L 353.427422 125.505173 
L 353.540654 125.399616 
L 353.654177 125.289918 
L 353.771328 125.19264 
L 353.90262 125.082942 
L 354.017242 124.962896 
L 354.17184 124.853199 
L 354.28501 124.749711 
L 354.451469 124.640014 
L 354.566381 124.546875 
L 354.688757 124.437177 
L 354.80143 124.348178 
L 354.927165 124.23848 
L 355.042782 124.126713 
L 355.190994 124.017016 
L 355.30603 123.919737 
L 355.444994 123.81004 
L 355.560487 123.702413 
L 355.679587 123.592715 
L 355.789108 123.518204 
L 355.790601 123.518204 
L 355.93844 123.407472 
L 356.048541 123.311228 
L 356.049536 123.311228 
L 356.168678 123.201531 
L 356.275089 123.102182 
L 356.279775 123.102182 
L 356.381707 122.992485 
L 356.494752 122.893137 
L 356.634214 122.783439 
L 356.750163 122.663393 
L 356.915875 122.553696 
L 357.02664 122.446069 
L 357.026972 122.446069 
L 357.172488 122.336371 
L 357.286405 122.268069 
L 357.419895 122.158372 
L 357.533189 122.046605 
L 357.664233 121.936908 
L 357.782048 121.856187 
L 357.949958 121.74649 
L 358.069141 121.66163 
L 358.226808 121.551932 
L 358.337282 121.462933 
L 358.337739 121.462933 
L 358.489807 121.353236 
L 358.602459 121.276654 
L 358.736633 121.169027 
L 358.736633 121.166957 
L 358.849886 121.05933 
L 358.968904 120.949632 
L 359.08365 120.860633 
L 359.193088 120.749901 
L 359.303977 120.653657 
L 359.304184 120.653657 
L 359.424902 120.543959 
L 359.538031 120.442541 
L 359.668038 120.332844 
L 359.780752 120.252123 
L 359.926994 120.142426 
L 360.040724 120.055496 
L 360.200132 119.945799 
L 360.308575 119.85473 
L 360.311229 119.85473 
L 360.417225 119.745032 
L 360.53081 119.620847 
L 360.664673 119.511149 
L 360.774609 119.41801 
L 360.77577 119.41801 
L 360.892299 119.283476 
L 360.9956 119.173779 
L 361.112004 119.086849 
L 361.249973 118.977151 
L 361.359121 118.865384 
L 361.360987 118.865384 
L 361.526036 118.755687 
L 361.642357 118.623223 
L 361.788081 118.513525 
L 361.901666 118.38934 
L 362.04287 118.279642 
L 362.151022 118.167875 
L 362.153925 118.167875 
L 362.294548 118.058178 
L 362.408112 117.936062 
L 362.528477 117.826365 
L 362.637874 117.706319 
L 362.639574 117.706319 
L 362.760623 117.596622 
L 362.876613 117.472436 
L 363.028309 117.361704 
L 363.127462 117.284088 
L 363.139405 117.284088 
L 363.273808 117.173356 
L 363.389632 117.054345 
L 363.549207 116.944647 
L 363.664865 116.83288 
L 363.777247 116.723183 
L 363.884487 116.630044 
L 363.888302 116.630044 
L 364.013374 116.520347 
L 364.129074 116.40651 
L 364.257173 116.296813 
L 364.372251 116.199534 
L 364.480818 116.089837 
L 364.593864 115.988418 
L 364.700772 115.878721 
L 364.813611 115.789722 
L 364.962942 115.680024 
L 365.080757 115.570327 
L 365.220675 115.46063 
L 365.334011 115.348863 
L 365.444734 115.239165 
L 365.559978 115.135678 
L 365.692058 115.02598 
L 365.805104 114.926632 
L 365.932291 114.816935 
L 366.043056 114.717586 
L 366.043346 114.717586 
L 366.21561 114.607889 
L 366.330688 114.50854 
L 366.43571 114.398843 
L 366.549937 114.293285 
L 366.676087 114.185658 
L 366.676087 114.183588 
L 366.786894 114.067682 
L 366.787184 114.067682 
L 366.933488 113.957984 
L 367.041848 113.862775 
L 367.044502 113.862775 
L 367.168703 113.753078 
L 367.280588 113.670288 
L 367.385796 113.56059 
L 367.495897 113.452963 
L 367.496893 113.452963 
L 367.611887 113.343266 
L 367.724892 113.245987 
L 367.850669 113.13629 
L 367.963714 113.032802 
L 368.09538 112.923104 
L 368.203947 112.817547 
L 368.206311 112.817547 
L 368.326075 112.707849 
L 368.443101 112.560897 
L 368.583558 112.451199 
L 368.696936 112.337362 
L 368.836875 112.227665 
L 368.948614 112.155224 
L 369.066014 112.045526 
L 369.179205 111.942038 
L 369.284351 111.832341 
L 369.396941 111.75162 
L 369.539824 111.641923 
L 369.657576 111.550854 
L 369.763448 111.441157 
L 369.892998 111.316971 
L 370.053278 111.207274 
L 370.169019 111.091367 
L 370.285465 110.98167 
L 370.39395 110.89267 
L 370.396438 110.89267 
L 370.512138 110.782973 
L 370.623027 110.683624 
L 370.623193 110.683624 
L 370.773354 110.573927 
L 370.886441 110.470439 
L 371.000606 110.360742 
L 371.000606 110.359707 
L 371.11614 110.251045 
L 371.194766 110.141347 
L 371.307895 110.037859 
L 371.428322 109.928162 
L 371.428322 109.927127 
L 371.543732 109.820535 
L 371.658851 109.710837 
L 371.774634 109.594931 
L 371.87076 109.485234 
L 371.98165 109.365188 
L 371.981815 109.365188 
L 372.085531 109.254455 
L 372.200442 109.160281 
L 372.343802 109.050584 
L 372.457221 108.930538 
L 372.5915 108.820841 
L 372.706702 108.717353 
L 372.831566 108.607656 
L 372.948054 108.475191 
L 373.068751 108.365494 
L 373.183435 108.243378 
L 373.290467 108.133681 
L 373.406872 108.003286 
L 373.534888 107.893588 
L 373.647188 107.773542 
L 373.740867 107.663845 
L 373.853644 107.581055 
L 373.967705 107.470323 
L 374.080336 107.388567 
L 374.194377 107.27887 
L 374.309994 107.167103 
L 374.425653 107.056371 
L 374.547739 106.922871 
L 374.652864 106.813174 
L 374.763007 106.697267 
L 374.763961 106.697267 
L 374.892143 106.58757 
L 375.005271 106.479943 
L 375.129846 106.370245 
L 375.240196 106.24399 
L 375.240859 106.24399 
L 375.367466 106.134293 
L 375.485612 106.020456 
L 375.598741 105.910759 
L 375.711807 105.81348 
L 375.855561 105.703783 
L 375.966617 105.616853 
L 375.966658 105.616853 
L 376.069088 105.507156 
L 376.182921 105.370551 
L 376.31666 105.260854 
L 376.426223 105.147017 
L 376.427757 105.147017 
L 376.55793 105.03732 
L 376.668695 104.915204 
L 376.668819 104.915204 
L 376.787919 104.805507 
L 376.897067 104.702019 
L 376.898892 104.702019 
L 376.983946 104.592322 
L 377.09272 104.505392 
L 377.094959 104.505392 
L 377.204895 104.395695 
L 377.315743 104.275649 
L 377.315992 104.275649 
L 377.448487 104.165951 
L 377.558173 104.045905 
L 377.559583 104.045905 
L 377.6735 103.936208 
L 377.780284 103.83479 
L 377.784555 103.83479 
L 377.880557 103.725093 
L 377.991032 103.621605 
L 377.991654 103.621605 
L 378.101299 103.511907 
L 378.211525 103.393931 
L 378.212105 103.393931 
L 378.328261 103.283199 
L 378.447901 103.180746 
L 378.562978 103.071048 
L 378.676315 102.951002 
L 378.797074 102.841305 
L 378.910866 102.704701 
L 379.009107 102.595004 
L 379.114896 102.499795 
L 379.120204 102.499795 
L 379.27588 102.390098 
L 379.389341 102.270051 
L 379.506409 102.160354 
L 379.619579 102.056866 
L 379.725782 101.947169 
L 379.842187 101.816774 
L 379.940802 101.707077 
L 380.054262 101.584961 
L 380.157936 101.475264 
L 380.264844 101.367636 
L 380.269032 101.367636 
L 380.382203 101.264148 
L 380.484674 101.154451 
L 380.594485 101.044754 
L 380.595729 101.044754 
L 380.701393 100.935057 
L 380.814563 100.825359 
L 380.930968 100.715662 
L 381.041484 100.583197 
L 381.041982 100.583197 
L 381.135205 100.4735 
L 381.240579 100.355524 
L 381.24626 100.355524 
L 381.362873 100.245827 
L 381.362873 100.244792 
L 381.479443 100.109222 
L 381.597175 99.999525 
L 381.703689 99.87534 
L 381.708272 99.87534 
L 381.80672 99.765642 
L 381.920222 99.645596 
L 382.024725 99.534864 
L 382.145609 99.415853 
L 382.253388 99.306156 
L 382.360421 99.206807 
L 382.36436 99.206807 
L 382.467495 99.09711 
L 382.575854 98.983273 
L 382.578591 98.983273 
L 382.692218 98.854948 
L 382.808747 98.745251 
L 382.917832 98.610716 
L 382.919678 98.610716 
L 383.039732 98.501019 
L 383.15058 98.380973 
L 383.150829 98.380973 
L 383.24907 98.271276 
L 383.361245 98.163648 
L 383.463633 98.053951 
L 383.57701 97.938045 
L 383.678528 97.828347 
L 383.788173 97.693813 
L 383.789583 97.693813 
L 383.921829 97.584116 
L 384.032552 97.447512 
L 384.156173 97.337814 
L 384.26474 97.221908 
L 384.26727 97.221908 
L 384.382762 97.11221 
L 384.490914 96.969397 
L 384.493859 96.969397 
L 384.601016 96.8597 
L 384.71091 96.754142 
L 384.71203 96.754142 
L 384.810146 96.644445 
L 384.810146 96.64341 
L 384.926842 96.505771 
L 385.035326 96.396074 
L 385.148579 96.284307 
L 385.266684 96.174609 
L 385.375002 96.060773 
L 385.377781 96.060773 
L 385.461715 95.951075 
L 385.574678 95.855866 
L 385.657534 95.746169 
L 385.767842 95.659239 
L 385.76863 95.659239 
L 385.866498 95.549542 
L 385.983027 95.412938 
L 386.100593 95.303241 
L 386.208663 95.166636 
L 386.21169 95.166636 
L 386.308438 95.056939 
L 386.418332 94.895498 
L 386.419452 94.895498 
L 386.529512 94.785801 
L 386.640277 94.678173 
L 386.640567 94.678173 
L 386.738145 94.568476 
L 386.851543 94.452569 
L 386.961624 94.342872 
L 387.074918 94.231105 
L 387.159931 94.121408 
L 387.27024 93.999292 
L 387.270862 93.999292 
L 387.397966 93.889595 
L 387.502966 93.763339 
L 387.509021 93.763339 
L 387.617215 93.653642 
L 387.730302 93.554294 
L 387.832441 93.444596 
L 387.941257 93.345248 
L 387.943538 93.345248 
L 388.056874 93.235551 
L 388.163285 93.101016 
L 388.167929 93.101016 
L 388.26447 92.991319 
L 388.375152 92.850575 
L 388.375318 92.850575 
L 388.456018 92.740878 
L 388.569955 92.600134 
L 388.658762 92.490437 
L 388.769361 92.374531 
L 388.769859 92.374531 
L 388.880541 92.264833 
L 388.990518 92.115811 
L 388.991637 92.115811 
L 389.076318 92.006113 
L 389.185922 91.869509 
L 389.187332 91.869509 
L 389.277942 91.759812 
L 389.388542 91.633557 
L 389.388956 91.633557 
L 389.4901 91.523859 
L 389.606422 91.395534 
L 389.682187 91.285837 
L 389.788929 91.163721 
L 389.793284 91.163721 
L 389.887875 91.054024 
L 390.001626 90.91949 
L 390.11546 90.809792 
L 390.219631 90.689746 
L 390.226515 90.689746 
L 390.300455 90.580049 
L 390.411531 90.435166 
L 390.489307 90.325469 
L 390.603431 90.174376 
L 390.69624 90.064679 
L 390.8097 89.946703 
L 390.910844 89.837005 
L 391.019867 89.70868 
L 391.021775 89.70868 
L 391.10488 89.598983 
L 391.215189 89.4541 
L 391.215894 89.4541 
L 391.310237 89.344402 
L 391.4283 89.207798 
L 391.512317 89.098101 
L 391.623373 88.965636 
L 391.706312 88.855939 
L 391.815667 88.729684 
L 391.817367 88.729684 
L 391.905863 88.619987 
L 392.012729 88.487522 
L 392.016918 88.487522 
L 392.101557 88.37679 
L 392.212446 88.24329 
L 392.212529 88.24329 
L 392.311558 88.132558 
L 392.416269 88.036314 
L 392.422572 88.036314 
L 392.519403 87.926617 
L 392.633196 87.792083 
L 392.754245 87.682385 
L 392.864056 87.545781 
L 392.8653 87.545781 
L 392.948053 87.436084 
L 393.060539 87.284992 
L 393.133691 87.175294 
L 393.241511 86.995225 
L 393.244787 86.995225 
L 393.337762 86.885528 
L 393.447697 86.719947 
L 393.448859 86.719947 
L 393.544736 86.61025 
L 393.652805 86.455018 
L 393.655791 86.455018 
L 393.759465 86.345321 
L 393.869815 86.231484 
L 393.87052 86.231484 
L 393.962499 86.120752 
L 394.068993 85.960345 
L 394.073555 85.960345 
L 394.167981 85.850648 
L 394.27887 85.680928 
L 394.356998 85.571231 
L 394.467266 85.424278 
L 394.468054 85.424278 
L 394.542823 85.31458 
L 394.653837 85.186255 
L 394.65392 85.186255 
L 394.728648 85.076558 
L 394.839537 84.902698 
L 394.908045 84.793001 
L 395.017524 84.662606 
L 395.019141 84.662606 
L 395.115309 84.552909 
L 395.226406 84.420444 
L 395.304493 84.310747 
L 395.409203 84.20105 
L 395.41559 84.20105 
L 395.492142 84.091352 
L 395.602492 83.946469 
L 395.603197 83.946469 
L 395.702372 83.836772 
L 395.814899 83.689819 
L 395.916831 83.580122 
L 396.027845 83.408332 
L 396.113728 83.298635 
L 396.222502 83.153751 
L 396.224825 83.153751 
L 396.297853 83.044054 
L 396.407 82.895031 
L 396.408949 82.895031 
L 396.493796 82.785334 
L 396.603565 82.601125 
L 396.60481 82.601125 
L 396.686338 82.491428 
L 396.795196 82.342406 
L 396.797103 82.342406 
L 396.878093 82.232708 
L 396.987199 82.060918 
L 396.989149 82.060918 
L 397.087182 81.951221 
L 397.198155 81.78771 
L 397.198279 81.78771 
L 397.270021 81.678013 
L 397.380952 81.522781 
L 397.462149 81.413083 
L 397.575941 81.2682 
L 397.670658 81.158503 
L 397.781506 80.984643 
L 397.781713 80.984643 
L 397.846986 80.874946 
L 397.954143 80.692807 
L 397.958083 80.692807 
L 398.01755 80.58311 
L 398.128398 80.384413 
L 398.128647 80.384413 
L 398.195205 80.274716 
L 398.304726 80.098786 
L 398.306302 80.098786 
L 398.376385 79.989089 
L 398.487399 79.80902 
L 398.487482 79.80902 
L 398.576517 79.699322 
L 398.687199 79.521323 
L 398.687572 79.521323 
L 398.759936 79.411626 
L 398.870204 79.241906 
L 398.871033 79.241906 
L 398.956253 79.132208 
L 399.065442 78.985255 
L 399.067266 78.985255 
L 399.121384 78.875558 
L 399.232025 78.705838 
L 399.232481 78.705838 
L 399.308163 78.596141 
L 399.418554 78.43056 
L 399.419052 78.43056 
L 399.479183 78.320863 
L 399.588455 78.157352 
L 399.590072 78.157352 
L 399.663307 78.047654 
L 399.77345 77.886213 
L 399.774362 77.886213 
L 399.859375 77.776516 
L 399.969476 77.606795 
L 399.970181 77.606795 
L 400.034998 77.497098 
L 400.145804 77.314959 
L 400.145887 77.314959 
L 400.222647 77.205262 
L 400.333081 77.045891 
L 400.33362 77.045891 
L 400.404781 76.936193 
L 400.514053 76.714729 
L 400.515629 76.714729 
L 400.581358 76.605032 
L 400.692331 76.422893 
L 400.692455 76.422893 
L 400.773072 76.313196 
L 400.882551 76.135196 
L 400.884085 76.135196 
L 400.953215 76.025499 
L 401.063399 75.866128 
L 401.064146 75.866128 
L 401.135515 75.75643 
L 401.245284 75.59085 
L 401.245699 75.59085 
L 401.309396 75.481152 
L 401.419995 75.299013 
L 401.42041 75.299013 
L 401.479297 75.189316 
L 401.589771 74.98441 
L 401.590269 74.98441 
L 401.657201 74.874713 
L 401.771947 74.690504 
L 401.860982 74.580807 
L 401.970793 74.398668 
L 401.971954 74.398668 
L 402.02715 74.288971 
L 402.137749 74.084065 
L 402.138246 74.084065 
L 402.200451 73.974367 
L 402.310054 73.786019 
L 402.31134 73.786019 
L 402.372507 73.676322 
L 402.483563 73.510741 
L 402.564884 73.401044 
L 402.674654 73.223045 
L 402.675981 73.223045 
L 402.743535 73.113347 
L 402.85459 72.933278 
L 402.920734 72.823581 
L 403.031665 72.595907 
L 403.031789 72.595907 
L 403.103656 72.48621 
L 403.213342 72.31235 
L 403.214752 72.31235 
L 403.277247 72.202653 
L 403.386851 71.993607 
L 403.388344 71.993607 
L 403.475098 71.88391 
L 403.475098 71.882875 
L 403.594032 71.687283 
L 403.658932 71.577586 
L 403.76754 71.407865 
L 403.770029 71.407865 
L 403.836587 71.298168 
L 403.946357 71.124308 
L 403.947663 71.124308 
L 404.006944 71.014611 
L 404.117791 70.824193 
L 404.181613 70.714496 
L 404.29188 70.524078 
L 404.292295 70.524078 
L 404.355702 70.414381 
L 404.464974 70.232242 
L 404.466757 70.232242 
L 404.529542 70.122545 
L 404.639975 69.90522 
L 404.640639 69.90522 
L 404.700935 69.795523 
L 404.811244 69.605105 
L 404.811907 69.605105 
L 404.872494 69.495407 
L 404.982181 69.294641 
L 404.983425 69.294641 
L 405.047019 69.183909 
L 405.165849 68.990386 
L 405.215364 68.880689 
L 405.326378 68.686131 
L 405.326461 68.686131 
L 405.384352 68.576434 
L 405.495241 68.348761 
L 405.495407 68.348761 
L 405.579176 68.239063 
L 405.688572 68.042436 
L 405.690231 68.042436 
L 405.739455 67.932739 
L 405.850344 67.721623 
L 405.850552 67.721623 
L 405.90073 67.611926 
L 406.010002 67.398741 
L 406.011495 67.398741 
L 406.070755 67.289044 
L 406.18152 67.094486 
L 406.181768 67.094486 
L 406.243475 66.984789 
L 406.35905 66.761255 
L 406.41238 66.651558 
L 406.523477 66.423884 
L 406.592814 66.314187 
L 406.702127 66.094792 
L 406.703745 66.094792 
L 406.754088 65.985095 
L 406.864936 65.753282 
L 406.865144 65.753282 
L 406.9322 65.643585 
L 407.042301 65.461446 
L 407.043297 65.461446 
L 407.11197 65.351749 
L 407.222776 65.157191 
L 407.222859 65.157191 
L 407.283819 65.047494 
L 407.394336 64.861215 
L 407.394875 64.861215 
L 407.445592 64.751518 
L 407.556481 64.507287 
L 407.624864 64.397589 
L 407.735132 64.205102 
L 407.735878 64.205102 
L 407.804137 64.095404 
L 407.913989 63.880149 
L 407.915192 63.880149 
L 407.981668 63.770452 
L 408.091437 63.582104 
L 408.092598 63.582104 
L 408.141367 63.472407 
L 408.249892 63.279919 
L 408.252422 63.279919 
L 408.303968 63.170222 
L 408.414858 62.961176 
L 408.485439 62.851479 
L 408.596287 62.644503 
L 408.596494 62.644503 
L 408.6531 62.534806 
L 408.76005 62.319551 
L 408.764197 62.319551 
L 408.836851 62.209853 
L 408.946662 62.015296 
L 408.947948 62.015296 
L 409.01235 61.905599 
L 409.123239 61.702762 
L 409.123364 61.702762 
L 409.191705 61.593065 
L 409.302429 61.406787 
L 409.302802 61.406787 
L 409.36314 61.297089 
L 409.474112 61.11909 
L 409.474237 61.11909 
L 409.559581 61.009393 
L 409.669765 60.816905 
L 409.670636 60.816905 
L 409.733214 60.707208 
L 409.841698 60.527139 
L 409.844061 60.527139 
L 409.915016 60.417442 
L 410.022753 60.233233 
L 410.025947 60.233233 
L 410.101297 60.123536 
L 410.211688 59.931048 
L 410.212393 59.931048 
L 410.271321 59.821351 
L 410.382252 59.622654 
L 410.382418 59.622654 
L 410.440309 59.512957 
L 410.550204 59.330818 
L 410.551406 59.330818 
L 410.619831 59.22112 
L 410.729476 59.016214 
L 410.730886 59.016214 
L 410.807978 58.906517 
L 410.918826 58.668495 
L 410.918992 58.668495 
L 410.985591 58.558797 
L 411.094242 58.397356 
L 411.096647 58.397356 
L 411.162168 58.287659 
L 411.272436 58.072404 
L 411.273224 58.072404 
L 411.360517 57.962707 
L 411.46869 57.809544 
L 411.471489 57.809544 
L 411.536223 57.699847 
L 411.644998 57.567382 
L 411.647237 57.567382 
L 411.719021 57.457685 
L 411.834347 57.2445 
L 411.903145 57.134803 
L 412.014117 56.98371 
L 412.014242 56.98371 
L 412.080137 56.874013 
L 412.189657 56.689804 
L 412.191192 56.689804 
L 412.276204 56.580107 
L 412.386389 56.416596 
L 412.387301 56.416596 
L 412.458628 56.306899 
L 412.569435 56.135109 
L 412.569725 56.135109 
L 412.638772 56.025412 
L 412.749744 55.859831 
L 412.749869 55.859831 
L 412.822233 55.750133 
L 412.932998 55.603181 
L 412.933329 55.603181 
L 413.042643 55.493483 
L 413.152827 55.373437 
L 413.15374 55.373437 
L 413.240826 55.26374 
L 413.350015 55.143694 
L 413.351922 55.143694 
L 413.439879 55.033997 
L 413.550437 54.953276 
L 413.550893 54.953276 
L 413.652949 54.843579 
L 413.760272 54.769067 
L 413.763963 54.769067 
L 413.878585 54.65937 
L 413.983129 54.57658 
L 413.98964 54.57658 
L 414.126904 54.466883 
L 414.235844 54.363395 
L 414.237959 54.363395 
L 414.413167 54.253697 
L 414.517961 54.201953 
L 414.524181 54.201953 
L 414.72 54.144 
L 414.72 54.144 
" clip-path="url(#p66a6a35567)" style="fill: none; stroke: #ff8c00; stroke-width: 1.5; stroke-linecap: square"/>
   </g>
   <g id="line2d_14">
    <path d="M 74.605714 307.584 
L 414.72 54.144 
" clip-path="url(#p66a6a35567)" style="fill: none; stroke-dasharray: 5.55,2.4; stroke-dashoffset: 0; stroke: #0000ff; stroke-width: 1.5"/>
   </g>
   <g id="patch_3">
    <path d="M 57.6 307.584 
L 57.6 41.472 
" style="fill: none; stroke: #000000; stroke-width: 0.8; stroke-linejoin: miter; stroke-linecap: square"/>
   </g>
   <g id="patch_4">
    <path d="M 414.72 307.584 
L 414.72 41.472 
" style="fill: none; stroke: #000000; stroke-width: 0.8; stroke-linejoin: miter; stroke-linecap: square"/>
   </g>
   <g id="patch_5">
    <path d="M 57.6 307.584 
L 414.72 307.584 
" style="fill: none; stroke: #000000; stroke-width: 0.8; stroke-linejoin: miter; stroke-linecap: square"/>
   </g>
   <g id="patch_6">
    <path d="M 57.6 41.472 
L 414.72 41.472 
" style="fill: none; stroke: #000000; stroke-width: 0.8; stroke-linejoin: miter; stroke-linecap: square"/>
   </g>
   <g id="text_15">
    <!-- ROC CURVE -->
    <g transform="translate(200.855625 35.472)scale(0.12 -0.12)">
     <defs>
      <path id="DejaVuSans-4f" d="M 2522 4238 
Q 1834 4238 1429 3725 
Q 1025 3213 1025 2328 
Q 1025 1447 1429 934 
Q 1834 422 2522 422 
Q 3209 422 3611 934 
Q 4013 1447 4013 2328 
Q 4013 3213 3611 3725 
Q 3209 4238 2522 4238 
z
M 2522 4750 
Q 3503 4750 4090 4092 
Q 4678 3434 4678 2328 
Q 4678 1225 4090 567 
Q 3503 -91 2522 -91 
Q 1538 -91 948 565 
Q 359 1222 359 2328 
Q 359 3434 948 4092 
Q 1538 4750 2522 4750 
z
" transform="scale(0.015625)"/>
      <path id="DejaVuSans-43" d="M 4122 4306 
L 4122 3641 
Q 3803 3938 3442 4084 
Q 3081 4231 2675 4231 
Q 1875 4231 1450 3742 
Q 1025 3253 1025 2328 
Q 1025 1406 1450 917 
Q 1875 428 2675 428 
Q 3081 428 3442 575 
Q 3803 722 4122 1019 
L 4122 359 
Q 3791 134 3420 21 
Q 3050 -91 2638 -91 
Q 1578 -91 968 557 
Q 359 1206 359 2328 
Q 359 3453 968 4101 
Q 1578 4750 2638 4750 
Q 3056 4750 3426 4639 
Q 3797 4528 4122 4306 
z
" transform="scale(0.015625)"/>
      <path id="DejaVuSans-55" d="M 556 4666 
L 1191 4666 
L 1191 1831 
Q 1191 1081 1462 751 
Q 1734 422 2344 422 
Q 2950 422 3222 751 
Q 3494 1081 3494 1831 
L 3494 4666 
L 4128 4666 
L 4128 1753 
Q 4128 841 3676 375 
Q 3225 -91 2344 -91 
Q 1459 -91 1007 375 
Q 556 841 556 1753 
L 556 4666 
z
" transform="scale(0.015625)"/>
      <path id="DejaVuSans-56" d="M 1831 0 
L 50 4666 
L 709 4666 
L 2188 738 
L 3669 4666 
L 4325 4666 
L 2547 0 
L 1831 0 
z
" transform="scale(0.015625)"/>
      <path id="DejaVuSans-45" d="M 628 4666 
L 3578 4666 
L 3578 4134 
L 1259 4134 
L 1259 2753 
L 3481 2753 
L 3481 2222 
L 1259 2222 
L 1259 531 
L 3634 531 
L 3634 0 
L 628 0 
L 628 4666 
z
" transform="scale(0.015625)"/>
     </defs>
     <use xlink:href="#DejaVuSans-52"/>
     <use xlink:href="#DejaVuSans-4f" x="69.482422"/>
     <use xlink:href="#DejaVuSans-43" x="148.193359"/>
     <use xlink:href="#DejaVuSans-20" x="218.017578"/>
     <use xlink:href="#DejaVuSans-43" x="249.804688"/>
     <use xlink:href="#DejaVuSans-55" x="319.628906"/>
     <use xlink:href="#DejaVuSans-52" x="392.822266"/>
     <use xlink:href="#DejaVuSans-56" x="456.804688"/>
     <use xlink:href="#DejaVuSans-45" x="525.212891"/>
    </g>
   </g>
   <g id="legend_1">
    <g id="patch_7">
     <path d="M 234.97 302.584 
L 407.72 302.584 
Q 409.72 302.584 409.72 300.584 
L 409.72 286.905875 
Q 409.72 284.905875 407.72 284.905875 
L 234.97 284.905875 
Q 232.97 284.905875 232.97 286.905875 
L 232.97 300.584 
Q 232.97 302.584 234.97 302.584 
z
" style="fill: #ffffff; opacity: 0.8; stroke: #cccccc; stroke-linejoin: miter"/>
    </g>
    <g id="line2d_15">
     <path d="M 236.97 293.004312 
L 246.97 293.004312 
L 256.97 293.004312 
" style="fill: none; stroke: #ff8c00; stroke-width: 1.5; stroke-linecap: square"/>
    </g>
    <g id="text_16">
     <!-- ROC curve (ROC AUC=0.47) -->
     <g transform="translate(264.97 296.504312)scale(0.1 -0.1)">
      <defs>
       <path id="DejaVuSans-63" d="M 3122 3366 
L 3122 2828 
Q 2878 2963 2633 3030 
Q 2388 3097 2138 3097 
Q 1578 3097 1268 2742 
Q 959 2388 959 1747 
Q 959 1106 1268 751 
Q 1578 397 2138 397 
Q 2388 397 2633 464 
Q 2878 531 3122 666 
L 3122 134 
Q 2881 22 2623 -34 
Q 2366 -91 2075 -91 
Q 1284 -91 818 406 
Q 353 903 353 1747 
Q 353 2603 823 3093 
Q 1294 3584 2113 3584 
Q 2378 3584 2631 3529 
Q 2884 3475 3122 3366 
z
" transform="scale(0.015625)"/>
       <path id="DejaVuSans-28" d="M 1984 4856 
Q 1566 4138 1362 3434 
Q 1159 2731 1159 2009 
Q 1159 1288 1364 580 
Q 1569 -128 1984 -844 
L 1484 -844 
Q 1016 -109 783 600 
Q 550 1309 550 2009 
Q 550 2706 781 3412 
Q 1013 4119 1484 4856 
L 1984 4856 
z
" transform="scale(0.015625)"/>
       <path id="DejaVuSans-41" d="M 2188 4044 
L 1331 1722 
L 3047 1722 
L 2188 4044 
z
M 1831 4666 
L 2547 4666 
L 4325 0 
L 3669 0 
L 3244 1197 
L 1141 1197 
L 716 0 
L 50 0 
L 1831 4666 
z
" transform="scale(0.015625)"/>
       <path id="DejaVuSans-3d" d="M 678 2906 
L 4684 2906 
L 4684 2381 
L 678 2381 
L 678 2906 
z
M 678 1631 
L 4684 1631 
L 4684 1100 
L 678 1100 
L 678 1631 
z
" transform="scale(0.015625)"/>
       <path id="DejaVuSans-37" d="M 525 4666 
L 3525 4666 
L 3525 4397 
L 1831 0 
L 1172 0 
L 2766 4134 
L 525 4134 
L 525 4666 
z
" transform="scale(0.015625)"/>
       <path id="DejaVuSans-29" d="M 513 4856 
L 1013 4856 
Q 1481 4119 1714 3412 
Q 1947 2706 1947 2009 
Q 1947 1309 1714 600 
Q 1481 -109 1013 -844 
L 513 -844 
Q 928 -128 1133 580 
Q 1338 1288 1338 2009 
Q 1338 2731 1133 3434 
Q 928 4138 513 4856 
z
" transform="scale(0.015625)"/>
      </defs>
      <use xlink:href="#DejaVuSans-52"/>
      <use xlink:href="#DejaVuSans-4f" x="69.482422"/>
      <use xlink:href="#DejaVuSans-43" x="148.193359"/>
      <use xlink:href="#DejaVuSans-20" x="218.017578"/>
      <use xlink:href="#DejaVuSans-63" x="249.804688"/>
      <use xlink:href="#DejaVuSans-75" x="304.785156"/>
      <use xlink:href="#DejaVuSans-72" x="368.164062"/>
      <use xlink:href="#DejaVuSans-76" x="409.277344"/>
      <use xlink:href="#DejaVuSans-65" x="468.457031"/>
      <use xlink:href="#DejaVuSans-20" x="529.980469"/>
      <use xlink:href="#DejaVuSans-28" x="561.767578"/>
      <use xlink:href="#DejaVuSans-52" x="600.78125"/>
      <use xlink:href="#DejaVuSans-4f" x="670.263672"/>
      <use xlink:href="#DejaVuSans-43" x="748.974609"/>
      <use xlink:href="#DejaVuSans-20" x="818.798828"/>
      <use xlink:href="#DejaVuSans-41" x="850.585938"/>
      <use xlink:href="#DejaVuSans-55" x="918.994141"/>
      <use xlink:href="#DejaVuSans-43" x="992.1875"/>
      <use xlink:href="#DejaVuSans-3d" x="1062.011719"/>
      <use xlink:href="#DejaVuSans-30" x="1145.800781"/>
      <use xlink:href="#DejaVuSans-2e" x="1209.423828"/>
      <use xlink:href="#DejaVuSans-34" x="1241.210938"/>
      <use xlink:href="#DejaVuSans-37" x="1304.833984"/>
      <use xlink:href="#DejaVuSans-29" x="1368.457031"/>
     </g>
    </g>
   </g>
  </g>
 </g>
 <defs>
  <clipPath id="p66a6a35567">
   <rect x="57.6" y="41.472" width="357.12" height="266.112"/>
  </clipPath>
 </defs>
</svg>
