<?xml version="1.0" encoding="utf-8" standalone="no"?>
<!DOCTYPE svg PUBLIC "-//W3C//DTD SVG 1.1//EN"
  "http://www.w3.org/Graphics/SVG/1.1/DTD/svg11.dtd">
<svg xmlns:xlink="http://www.w3.org/1999/xlink" width="460.8pt" height="345.6pt" viewBox="0 0 460.8 345.6" xmlns="http://www.w3.org/2000/svg" version="1.1">
 <metadata>
  <rdf:RDF xmlns:dc="http://purl.org/dc/elements/1.1/" xmlns:cc="http://creativecommons.org/ns#" xmlns:rdf="http://www.w3.org/1999/02/22-rdf-syntax-ns#">
   <cc:Work>
    <dc:type rdf:resource="http://purl.org/dc/dcmitype/StillImage"/>
    <dc:date>2022-05-27T14:23:57.948490</dc:date>
    <dc:format>image/svg+xml</dc:format>
    <dc:creator>
     <cc:Agent>
      <dc:title>Matplotlib v3.5.1, https://matplotlib.org/</dc:title>
     </cc:Agent>
    </dc:creator>
   </cc:Work>
  </rdf:RDF>
 </metadata>
 <defs>
  <style type="text/css">*{stroke-linejoin: round; stroke-linecap: butt}</style>
 </defs>
 <g id="figure_1">
  <g id="patch_1">
   <path d="M 0 345.6 
L 460.8 345.6 
L 460.8 0 
L 0 0 
z
" style="fill: #ffffff"/>
  </g>
  <g id="axes_1">
   <g id="patch_2">
    <path d="M 57.6 307.584 
L 414.72 307.584 
L 414.72 41.472 
L 57.6 41.472 
z
" style="fill: #ffffff"/>
   </g>
   <g id="matplotlib.axis_1">
    <g id="xtick_1">
     <g id="line2d_1">
      <defs>
       <path id="mce0ee788b6" d="M 0 0 
L 0 3.5 
" style="stroke: #000000; stroke-width: 0.8"/>
      </defs>
      <g>
       <use xlink:href="#mce0ee788b6" x="74.605714" y="307.584" style="stroke: #000000; stroke-width: 0.8"/>
      </g>
     </g>
     <g id="text_1">
      <!-- 0.0 -->
      <g transform="translate(66.654152 322.182437)scale(0.1 -0.1)">
       <defs>
        <path id="DejaVuSans-30" d="M 2034 4250 
Q 1547 4250 1301 3770 
Q 1056 3291 1056 2328 
Q 1056 1369 1301 889 
Q 1547 409 2034 409 
Q 2525 409 2770 889 
Q 3016 1369 3016 2328 
Q 3016 3291 2770 3770 
Q 2525 4250 2034 4250 
z
M 2034 4750 
Q 2819 4750 3233 4129 
Q 3647 3509 3647 2328 
Q 3647 1150 3233 529 
Q 2819 -91 2034 -91 
Q 1250 -91 836 529 
Q 422 1150 422 2328 
Q 422 3509 836 4129 
Q 1250 4750 2034 4750 
z
" transform="scale(0.015625)"/>
        <path id="DejaVuSans-2e" d="M 684 794 
L 1344 794 
L 1344 0 
L 684 0 
L 684 794 
z
" transform="scale(0.015625)"/>
       </defs>
       <use xlink:href="#DejaVuSans-30"/>
       <use xlink:href="#DejaVuSans-2e" x="63.623047"/>
       <use xlink:href="#DejaVuSans-30" x="95.410156"/>
      </g>
     </g>
    </g>
    <g id="xtick_2">
     <g id="line2d_2">
      <g>
       <use xlink:href="#mce0ee788b6" x="142.628571" y="307.584" style="stroke: #000000; stroke-width: 0.8"/>
      </g>
     </g>
     <g id="text_2">
      <!-- 0.2 -->
      <g transform="translate(134.677009 322.182437)scale(0.1 -0.1)">
       <defs>
        <path id="DejaVuSans-32" d="M 1228 531 
L 3431 531 
L 3431 0 
L 469 0 
L 469 531 
Q 828 903 1448 1529 
Q 2069 2156 2228 2338 
Q 2531 2678 2651 2914 
Q 2772 3150 2772 3378 
Q 2772 3750 2511 3984 
Q 2250 4219 1831 4219 
Q 1534 4219 1204 4116 
Q 875 4013 500 3803 
L 500 4441 
Q 881 4594 1212 4672 
Q 1544 4750 1819 4750 
Q 2544 4750 2975 4387 
Q 3406 4025 3406 3419 
Q 3406 3131 3298 2873 
Q 3191 2616 2906 2266 
Q 2828 2175 2409 1742 
Q 1991 1309 1228 531 
z
" transform="scale(0.015625)"/>
       </defs>
       <use xlink:href="#DejaVuSans-30"/>
       <use xlink:href="#DejaVuSans-2e" x="63.623047"/>
       <use xlink:href="#DejaVuSans-32" x="95.410156"/>
      </g>
     </g>
    </g>
    <g id="xtick_3">
     <g id="line2d_3">
      <g>
       <use xlink:href="#mce0ee788b6" x="210.651429" y="307.584" style="stroke: #000000; stroke-width: 0.8"/>
      </g>
     </g>
     <g id="text_3">
      <!-- 0.4 -->
      <g transform="translate(202.699866 322.182437)scale(0.1 -0.1)">
       <defs>
        <path id="DejaVuSans-34" d="M 2419 4116 
L 825 1625 
L 2419 1625 
L 2419 4116 
z
M 2253 4666 
L 3047 4666 
L 3047 1625 
L 3713 1625 
L 3713 1100 
L 3047 1100 
L 3047 0 
L 2419 0 
L 2419 1100 
L 313 1100 
L 313 1709 
L 2253 4666 
z
" transform="scale(0.015625)"/>
       </defs>
       <use xlink:href="#DejaVuSans-30"/>
       <use xlink:href="#DejaVuSans-2e" x="63.623047"/>
       <use xlink:href="#DejaVuSans-34" x="95.410156"/>
      </g>
     </g>
    </g>
    <g id="xtick_4">
     <g id="line2d_4">
      <g>
       <use xlink:href="#mce0ee788b6" x="278.674286" y="307.584" style="stroke: #000000; stroke-width: 0.8"/>
      </g>
     </g>
     <g id="text_4">
      <!-- 0.6 -->
      <g transform="translate(270.722723 322.182437)scale(0.1 -0.1)">
       <defs>
        <path id="DejaVuSans-36" d="M 2113 2584 
Q 1688 2584 1439 2293 
Q 1191 2003 1191 1497 
Q 1191 994 1439 701 
Q 1688 409 2113 409 
Q 2538 409 2786 701 
Q 3034 994 3034 1497 
Q 3034 2003 2786 2293 
Q 2538 2584 2113 2584 
z
M 3366 4563 
L 3366 3988 
Q 3128 4100 2886 4159 
Q 2644 4219 2406 4219 
Q 1781 4219 1451 3797 
Q 1122 3375 1075 2522 
Q 1259 2794 1537 2939 
Q 1816 3084 2150 3084 
Q 2853 3084 3261 2657 
Q 3669 2231 3669 1497 
Q 3669 778 3244 343 
Q 2819 -91 2113 -91 
Q 1303 -91 875 529 
Q 447 1150 447 2328 
Q 447 3434 972 4092 
Q 1497 4750 2381 4750 
Q 2619 4750 2861 4703 
Q 3103 4656 3366 4563 
z
" transform="scale(0.015625)"/>
       </defs>
       <use xlink:href="#DejaVuSans-30"/>
       <use xlink:href="#DejaVuSans-2e" x="63.623047"/>
       <use xlink:href="#DejaVuSans-36" x="95.410156"/>
      </g>
     </g>
    </g>
    <g id="xtick_5">
     <g id="line2d_5">
      <g>
       <use xlink:href="#mce0ee788b6" x="346.697143" y="307.584" style="stroke: #000000; stroke-width: 0.8"/>
      </g>
     </g>
     <g id="text_5">
      <!-- 0.8 -->
      <g transform="translate(338.74558 322.182437)scale(0.1 -0.1)">
       <defs>
        <path id="DejaVuSans-38" d="M 2034 2216 
Q 1584 2216 1326 1975 
Q 1069 1734 1069 1313 
Q 1069 891 1326 650 
Q 1584 409 2034 409 
Q 2484 409 2743 651 
Q 3003 894 3003 1313 
Q 3003 1734 2745 1975 
Q 2488 2216 2034 2216 
z
M 1403 2484 
Q 997 2584 770 2862 
Q 544 3141 544 3541 
Q 544 4100 942 4425 
Q 1341 4750 2034 4750 
Q 2731 4750 3128 4425 
Q 3525 4100 3525 3541 
Q 3525 3141 3298 2862 
Q 3072 2584 2669 2484 
Q 3125 2378 3379 2068 
Q 3634 1759 3634 1313 
Q 3634 634 3220 271 
Q 2806 -91 2034 -91 
Q 1263 -91 848 271 
Q 434 634 434 1313 
Q 434 1759 690 2068 
Q 947 2378 1403 2484 
z
M 1172 3481 
Q 1172 3119 1398 2916 
Q 1625 2713 2034 2713 
Q 2441 2713 2670 2916 
Q 2900 3119 2900 3481 
Q 2900 3844 2670 4047 
Q 2441 4250 2034 4250 
Q 1625 4250 1398 4047 
Q 1172 3844 1172 3481 
z
" transform="scale(0.015625)"/>
       </defs>
       <use xlink:href="#DejaVuSans-30"/>
       <use xlink:href="#DejaVuSans-2e" x="63.623047"/>
       <use xlink:href="#DejaVuSans-38" x="95.410156"/>
      </g>
     </g>
    </g>
    <g id="xtick_6">
     <g id="line2d_6">
      <g>
       <use xlink:href="#mce0ee788b6" x="414.72" y="307.584" style="stroke: #000000; stroke-width: 0.8"/>
      </g>
     </g>
     <g id="text_6">
      <!-- 1.0 -->
      <g transform="translate(406.768438 322.182437)scale(0.1 -0.1)">
       <defs>
        <path id="DejaVuSans-31" d="M 794 531 
L 1825 531 
L 1825 4091 
L 703 3866 
L 703 4441 
L 1819 4666 
L 2450 4666 
L 2450 531 
L 3481 531 
L 3481 0 
L 794 0 
L 794 531 
z
" transform="scale(0.015625)"/>
       </defs>
       <use xlink:href="#DejaVuSans-31"/>
       <use xlink:href="#DejaVuSans-2e" x="63.623047"/>
       <use xlink:href="#DejaVuSans-30" x="95.410156"/>
      </g>
     </g>
    </g>
    <g id="text_7">
     <!-- False Positive Rate -->
     <g transform="translate(189.693594 335.860562)scale(0.1 -0.1)">
      <defs>
       <path id="DejaVuSans-46" d="M 628 4666 
L 3309 4666 
L 3309 4134 
L 1259 4134 
L 1259 2759 
L 3109 2759 
L 3109 2228 
L 1259 2228 
L 1259 0 
L 628 0 
L 628 4666 
z
" transform="scale(0.015625)"/>
       <path id="DejaVuSans-61" d="M 2194 1759 
Q 1497 1759 1228 1600 
Q 959 1441 959 1056 
Q 959 750 1161 570 
Q 1363 391 1709 391 
Q 2188 391 2477 730 
Q 2766 1069 2766 1631 
L 2766 1759 
L 2194 1759 
z
M 3341 1997 
L 3341 0 
L 2766 0 
L 2766 531 
Q 2569 213 2275 61 
Q 1981 -91 1556 -91 
Q 1019 -91 701 211 
Q 384 513 384 1019 
Q 384 1609 779 1909 
Q 1175 2209 1959 2209 
L 2766 2209 
L 2766 2266 
Q 2766 2663 2505 2880 
Q 2244 3097 1772 3097 
Q 1472 3097 1187 3025 
Q 903 2953 641 2809 
L 641 3341 
Q 956 3463 1253 3523 
Q 1550 3584 1831 3584 
Q 2591 3584 2966 3190 
Q 3341 2797 3341 1997 
z
" transform="scale(0.015625)"/>
       <path id="DejaVuSans-6c" d="M 603 4863 
L 1178 4863 
L 1178 0 
L 603 0 
L 603 4863 
z
" transform="scale(0.015625)"/>
       <path id="DejaVuSans-73" d="M 2834 3397 
L 2834 2853 
Q 2591 2978 2328 3040 
Q 2066 3103 1784 3103 
Q 1356 3103 1142 2972 
Q 928 2841 928 2578 
Q 928 2378 1081 2264 
Q 1234 2150 1697 2047 
L 1894 2003 
Q 2506 1872 2764 1633 
Q 3022 1394 3022 966 
Q 3022 478 2636 193 
Q 2250 -91 1575 -91 
Q 1294 -91 989 -36 
Q 684 19 347 128 
L 347 722 
Q 666 556 975 473 
Q 1284 391 1588 391 
Q 1994 391 2212 530 
Q 2431 669 2431 922 
Q 2431 1156 2273 1281 
Q 2116 1406 1581 1522 
L 1381 1569 
Q 847 1681 609 1914 
Q 372 2147 372 2553 
Q 372 3047 722 3315 
Q 1072 3584 1716 3584 
Q 2034 3584 2315 3537 
Q 2597 3491 2834 3397 
z
" transform="scale(0.015625)"/>
       <path id="DejaVuSans-65" d="M 3597 1894 
L 3597 1613 
L 953 1613 
Q 991 1019 1311 708 
Q 1631 397 2203 397 
Q 2534 397 2845 478 
Q 3156 559 3463 722 
L 3463 178 
Q 3153 47 2828 -22 
Q 2503 -91 2169 -91 
Q 1331 -91 842 396 
Q 353 884 353 1716 
Q 353 2575 817 3079 
Q 1281 3584 2069 3584 
Q 2775 3584 3186 3129 
Q 3597 2675 3597 1894 
z
M 3022 2063 
Q 3016 2534 2758 2815 
Q 2500 3097 2075 3097 
Q 1594 3097 1305 2825 
Q 1016 2553 972 2059 
L 3022 2063 
z
" transform="scale(0.015625)"/>
       <path id="DejaVuSans-20" transform="scale(0.015625)"/>
       <path id="DejaVuSans-50" d="M 1259 4147 
L 1259 2394 
L 2053 2394 
Q 2494 2394 2734 2622 
Q 2975 2850 2975 3272 
Q 2975 3691 2734 3919 
Q 2494 4147 2053 4147 
L 1259 4147 
z
M 628 4666 
L 2053 4666 
Q 2838 4666 3239 4311 
Q 3641 3956 3641 3272 
Q 3641 2581 3239 2228 
Q 2838 1875 2053 1875 
L 1259 1875 
L 1259 0 
L 628 0 
L 628 4666 
z
" transform="scale(0.015625)"/>
       <path id="DejaVuSans-6f" d="M 1959 3097 
Q 1497 3097 1228 2736 
Q 959 2375 959 1747 
Q 959 1119 1226 758 
Q 1494 397 1959 397 
Q 2419 397 2687 759 
Q 2956 1122 2956 1747 
Q 2956 2369 2687 2733 
Q 2419 3097 1959 3097 
z
M 1959 3584 
Q 2709 3584 3137 3096 
Q 3566 2609 3566 1747 
Q 3566 888 3137 398 
Q 2709 -91 1959 -91 
Q 1206 -91 779 398 
Q 353 888 353 1747 
Q 353 2609 779 3096 
Q 1206 3584 1959 3584 
z
" transform="scale(0.015625)"/>
       <path id="DejaVuSans-69" d="M 603 3500 
L 1178 3500 
L 1178 0 
L 603 0 
L 603 3500 
z
M 603 4863 
L 1178 4863 
L 1178 4134 
L 603 4134 
L 603 4863 
z
" transform="scale(0.015625)"/>
       <path id="DejaVuSans-74" d="M 1172 4494 
L 1172 3500 
L 2356 3500 
L 2356 3053 
L 1172 3053 
L 1172 1153 
Q 1172 725 1289 603 
Q 1406 481 1766 481 
L 2356 481 
L 2356 0 
L 1766 0 
Q 1100 0 847 248 
Q 594 497 594 1153 
L 594 3053 
L 172 3053 
L 172 3500 
L 594 3500 
L 594 4494 
L 1172 4494 
z
" transform="scale(0.015625)"/>
       <path id="DejaVuSans-76" d="M 191 3500 
L 800 3500 
L 1894 563 
L 2988 3500 
L 3597 3500 
L 2284 0 
L 1503 0 
L 191 3500 
z
" transform="scale(0.015625)"/>
       <path id="DejaVuSans-52" d="M 2841 2188 
Q 3044 2119 3236 1894 
Q 3428 1669 3622 1275 
L 4263 0 
L 3584 0 
L 2988 1197 
Q 2756 1666 2539 1819 
Q 2322 1972 1947 1972 
L 1259 1972 
L 1259 0 
L 628 0 
L 628 4666 
L 2053 4666 
Q 2853 4666 3247 4331 
Q 3641 3997 3641 3322 
Q 3641 2881 3436 2590 
Q 3231 2300 2841 2188 
z
M 1259 4147 
L 1259 2491 
L 2053 2491 
Q 2509 2491 2742 2702 
Q 2975 2913 2975 3322 
Q 2975 3731 2742 3939 
Q 2509 4147 2053 4147 
L 1259 4147 
z
" transform="scale(0.015625)"/>
      </defs>
      <use xlink:href="#DejaVuSans-46"/>
      <use xlink:href="#DejaVuSans-61" x="48.394531"/>
      <use xlink:href="#DejaVuSans-6c" x="109.673828"/>
      <use xlink:href="#DejaVuSans-73" x="137.457031"/>
      <use xlink:href="#DejaVuSans-65" x="189.556641"/>
      <use xlink:href="#DejaVuSans-20" x="251.080078"/>
      <use xlink:href="#DejaVuSans-50" x="282.867188"/>
      <use xlink:href="#DejaVuSans-6f" x="339.544922"/>
      <use xlink:href="#DejaVuSans-73" x="400.726562"/>
      <use xlink:href="#DejaVuSans-69" x="452.826172"/>
      <use xlink:href="#DejaVuSans-74" x="480.609375"/>
      <use xlink:href="#DejaVuSans-69" x="519.818359"/>
      <use xlink:href="#DejaVuSans-76" x="547.601562"/>
      <use xlink:href="#DejaVuSans-65" x="606.78125"/>
      <use xlink:href="#DejaVuSans-20" x="668.304688"/>
      <use xlink:href="#DejaVuSans-52" x="700.091797"/>
      <use xlink:href="#DejaVuSans-61" x="767.324219"/>
      <use xlink:href="#DejaVuSans-74" x="828.603516"/>
      <use xlink:href="#DejaVuSans-65" x="867.8125"/>
     </g>
    </g>
   </g>
   <g id="matplotlib.axis_2">
    <g id="ytick_1">
     <g id="line2d_7">
      <defs>
       <path id="m42fbb35dec" d="M 0 0 
L -3.5 0 
" style="stroke: #000000; stroke-width: 0.8"/>
      </defs>
      <g>
       <use xlink:href="#m42fbb35dec" x="57.6" y="307.584" style="stroke: #000000; stroke-width: 0.8"/>
      </g>
     </g>
     <g id="text_8">
      <!-- 0.0 -->
      <g transform="translate(34.696875 311.383219)scale(0.1 -0.1)">
       <use xlink:href="#DejaVuSans-30"/>
       <use xlink:href="#DejaVuSans-2e" x="63.623047"/>
       <use xlink:href="#DejaVuSans-30" x="95.410156"/>
      </g>
     </g>
    </g>
    <g id="ytick_2">
     <g id="line2d_8">
      <g>
       <use xlink:href="#m42fbb35dec" x="57.6" y="256.896" style="stroke: #000000; stroke-width: 0.8"/>
      </g>
     </g>
     <g id="text_9">
      <!-- 0.2 -->
      <g transform="translate(34.696875 260.695219)scale(0.1 -0.1)">
       <use xlink:href="#DejaVuSans-30"/>
       <use xlink:href="#DejaVuSans-2e" x="63.623047"/>
       <use xlink:href="#DejaVuSans-32" x="95.410156"/>
      </g>
     </g>
    </g>
    <g id="ytick_3">
     <g id="line2d_9">
      <g>
       <use xlink:href="#m42fbb35dec" x="57.6" y="206.208" style="stroke: #000000; stroke-width: 0.8"/>
      </g>
     </g>
     <g id="text_10">
      <!-- 0.4 -->
      <g transform="translate(34.696875 210.007219)scale(0.1 -0.1)">
       <use xlink:href="#DejaVuSans-30"/>
       <use xlink:href="#DejaVuSans-2e" x="63.623047"/>
       <use xlink:href="#DejaVuSans-34" x="95.410156"/>
      </g>
     </g>
    </g>
    <g id="ytick_4">
     <g id="line2d_10">
      <g>
       <use xlink:href="#m42fbb35dec" x="57.6" y="155.52" style="stroke: #000000; stroke-width: 0.8"/>
      </g>
     </g>
     <g id="text_11">
      <!-- 0.6 -->
      <g transform="translate(34.696875 159.319219)scale(0.1 -0.1)">
       <use xlink:href="#DejaVuSans-30"/>
       <use xlink:href="#DejaVuSans-2e" x="63.623047"/>
       <use xlink:href="#DejaVuSans-36" x="95.410156"/>
      </g>
     </g>
    </g>
    <g id="ytick_5">
     <g id="line2d_11">
      <g>
       <use xlink:href="#m42fbb35dec" x="57.6" y="104.832" style="stroke: #000000; stroke-width: 0.8"/>
      </g>
     </g>
     <g id="text_12">
      <!-- 0.8 -->
      <g transform="translate(34.696875 108.631219)scale(0.1 -0.1)">
       <use xlink:href="#DejaVuSans-30"/>
       <use xlink:href="#DejaVuSans-2e" x="63.623047"/>
       <use xlink:href="#DejaVuSans-38" x="95.410156"/>
      </g>
     </g>
    </g>
    <g id="ytick_6">
     <g id="line2d_12">
      <g>
       <use xlink:href="#m42fbb35dec" x="57.6" y="54.144" style="stroke: #000000; stroke-width: 0.8"/>
      </g>
     </g>
     <g id="text_13">
      <!-- 1.0 -->
      <g transform="translate(34.696875 57.943219)scale(0.1 -0.1)">
       <use xlink:href="#DejaVuSans-31"/>
       <use xlink:href="#DejaVuSans-2e" x="63.623047"/>
       <use xlink:href="#DejaVuSans-30" x="95.410156"/>
      </g>
     </g>
    </g>
    <g id="text_14">
     <!-- True Positive Rate -->
     <g transform="translate(28.617187 219.057687)rotate(-90)scale(0.1 -0.1)">
      <defs>
       <path id="DejaVuSans-54" d="M -19 4666 
L 3928 4666 
L 3928 4134 
L 2272 4134 
L 2272 0 
L 1638 0 
L 1638 4134 
L -19 4134 
L -19 4666 
z
" transform="scale(0.015625)"/>
       <path id="DejaVuSans-72" d="M 2631 2963 
Q 2534 3019 2420 3045 
Q 2306 3072 2169 3072 
Q 1681 3072 1420 2755 
Q 1159 2438 1159 1844 
L 1159 0 
L 581 0 
L 581 3500 
L 1159 3500 
L 1159 2956 
Q 1341 3275 1631 3429 
Q 1922 3584 2338 3584 
Q 2397 3584 2469 3576 
Q 2541 3569 2628 3553 
L 2631 2963 
z
" transform="scale(0.015625)"/>
       <path id="DejaVuSans-75" d="M 544 1381 
L 544 3500 
L 1119 3500 
L 1119 1403 
Q 1119 906 1312 657 
Q 1506 409 1894 409 
Q 2359 409 2629 706 
Q 2900 1003 2900 1516 
L 2900 3500 
L 3475 3500 
L 3475 0 
L 2900 0 
L 2900 538 
Q 2691 219 2414 64 
Q 2138 -91 1772 -91 
Q 1169 -91 856 284 
Q 544 659 544 1381 
z
M 1991 3584 
L 1991 3584 
z
" transform="scale(0.015625)"/>
      </defs>
      <use xlink:href="#DejaVuSans-54"/>
      <use xlink:href="#DejaVuSans-72" x="46.333984"/>
      <use xlink:href="#DejaVuSans-75" x="87.447266"/>
      <use xlink:href="#DejaVuSans-65" x="150.826172"/>
      <use xlink:href="#DejaVuSans-20" x="212.349609"/>
      <use xlink:href="#DejaVuSans-50" x="244.136719"/>
      <use xlink:href="#DejaVuSans-6f" x="300.814453"/>
      <use xlink:href="#DejaVuSans-73" x="361.996094"/>
      <use xlink:href="#DejaVuSans-69" x="414.095703"/>
      <use xlink:href="#DejaVuSans-74" x="441.878906"/>
      <use xlink:href="#DejaVuSans-69" x="481.087891"/>
      <use xlink:href="#DejaVuSans-76" x="508.871094"/>
      <use xlink:href="#DejaVuSans-65" x="568.050781"/>
      <use xlink:href="#DejaVuSans-20" x="629.574219"/>
      <use xlink:href="#DejaVuSans-52" x="661.361328"/>
      <use xlink:href="#DejaVuSans-61" x="728.59375"/>
      <use xlink:href="#DejaVuSans-74" x="789.873047"/>
      <use xlink:href="#DejaVuSans-65" x="829.082031"/>
     </g>
    </g>
   </g>
   <g id="line2d_13">
    <path d="M 74.605714 307.584 
L 74.620122 307.474066 
L 74.730043 306.712823 
L 74.730664 306.712823 
L 74.752938 306.602888 
L 74.859754 306.117518 
L 74.863895 306.117518 
L 74.89685 306.007584 
L 75.007599 305.648742 
L 75.007931 305.648742 
L 75.042377 305.538808 
L 75.152878 305.20693 
L 75.179375 305.096996 
L 75.289958 304.7506 
L 75.290331 304.7506 
L 75.334341 304.640665 
L 75.445173 304.366867 
L 75.490549 304.256932 
L 75.600305 303.983134 
L 75.601257 303.983134 
L 75.653009 303.873199 
L 75.763096 303.634663 
L 75.763344 303.634663 
L 75.817042 303.524729 
L 75.928122 303.296563 
L 75.987658 303.186629 
L 76.098076 302.999948 
L 76.157487 302.890014 
L 76.263806 302.703333 
L 76.267822 302.703333 
L 76.336218 302.593399 
L 76.446015 302.404643 
L 76.446843 302.404643 
L 76.520331 302.294709 
L 76.630542 302.118399 
L 76.63108 302.118399 
L 76.700842 302.008465 
L 76.811922 301.809339 
L 76.891496 301.699405 
L 77.001541 301.552134 
L 77.002576 301.552134 
L 77.072793 301.4422 
L 77.182756 301.263816 
L 77.183791 301.263816 
L 77.283983 301.153882 
L 77.392124 301.027354 
L 77.394277 301.027354 
L 77.468179 300.917419 
L 77.578886 300.761852 
L 77.579052 300.761852 
L 77.653699 300.651918 
L 77.653699 300.650881 
L 77.77041 300.51087 
L 77.914488 300.400936 
L 78.025444 300.261962 
L 78.131391 300.152028 
L 78.242347 300.0255 
L 78.356077 299.915565 
L 78.466909 299.791112 
L 78.556999 299.681177 
L 78.652595 299.546352 
L 78.666672 299.546352 
L 78.785701 299.436418 
L 78.889536 299.345152 
L 78.894836 299.345152 
L 79.023015 299.237292 
L 79.023015 299.235217 
L 79.126768 299.131506 
L 79.133889 299.131506 
L 79.25387 299.021572 
L 79.3664 298.951048 
L 79.508656 298.841113 
L 79.619198 298.745699 
L 79.619571 298.745699 
L 79.764228 298.635764 
L 79.869719 298.552795 
L 79.875267 298.552795 
L 80.015742 298.442861 
L 80.125788 298.330852 
L 80.260012 298.220918 
L 80.364261 298.142097 
L 80.370844 298.142097 
L 80.513017 298.032163 
L 80.625588 297.957491 
L 80.770949 297.847556 
L 80.881615 297.764587 
L 81.052687 297.654653 
L 81.162401 297.579981 
L 81.163684 297.579981 
L 81.321135 297.470046 
L 81.412673 297.387077 
L 81.431677 297.387077 
L 81.597449 297.277143 
L 81.705465 297.167208 
L 81.708074 297.167208 
L 81.846976 297.057274 
L 81.951515 296.984676 
L 81.958057 296.984676 
L 82.10143 296.874742 
L 82.21131 296.802144 
L 82.212345 296.802144 
L 82.400101 296.692209 
L 82.505344 296.62376 
L 82.510561 296.62376 
L 82.660145 296.513825 
L 82.769238 296.449524 
L 82.769735 296.449524 
L 82.888681 296.33959 
L 82.992517 296.266992 
L 82.999762 296.266992 
L 83.211531 296.157058 
L 83.317726 296.088608 
L 83.322115 296.088608 
L 83.47824 295.978674 
L 83.590728 295.910224 
L 83.788048 295.80029 
L 83.897514 295.733914 
L 83.899046 295.733914 
L 84.10564 295.62398 
L 84.213905 295.545159 
L 84.216513 295.545159 
L 84.349288 295.435225 
L 84.455607 295.370924 
L 84.460286 295.370924 
L 84.613182 295.260989 
L 84.723227 295.184243 
L 84.723972 295.184243 
L 84.919678 295.074309 
L 85.027529 294.999636 
L 85.030675 294.999636 
L 85.230272 294.889702 
L 85.332617 294.806733 
L 85.34127 294.806733 
L 85.511927 294.696798 
L 85.622718 294.644943 
L 85.623008 294.644943 
L 85.864586 294.535008 
L 85.975501 294.470707 
L 86.19406 294.360773 
L 86.306589 294.286101 
L 86.517158 294.176166 
L 86.628777 294.122236 
L 86.768217 294.012302 
L 86.871266 293.966669 
L 86.878801 293.966669 
L 87.115411 293.856735 
L 87.223593 293.798656 
L 87.226036 293.798656 
L 87.450805 293.688722 
L 87.562879 293.624421 
L 87.727947 293.514486 
L 87.834101 293.448111 
L 87.838945 293.448111 
L 88.069096 293.338177 
L 88.177196 293.300841 
L 88.180011 293.300841 
L 88.377704 293.190906 
L 88.485472 293.141125 
L 88.488784 293.141125 
L 88.66263 293.03119 
L 88.66263 293.030153 
L 88.776774 292.950295 
L 88.966517 292.840361 
L 89.070435 292.778134 
L 89.077266 292.778134 
L 89.256535 292.6682 
L 89.361323 292.608047 
L 89.367616 292.608047 
L 89.556573 292.498113 
L 89.668357 292.464925 
L 89.901406 292.354991 
L 90.002675 292.307284 
L 90.012445 292.307284 
L 90.256798 292.197349 
L 90.365228 292.122677 
L 90.367754 292.122677 
L 90.613265 292.012743 
L 90.72269 291.948441 
L 90.724346 291.948441 
L 90.943402 291.838507 
L 91.050507 291.755538 
L 91.054482 291.755538 
L 91.166349 291.716128 
L 91.422666 291.606193 
L 91.530973 291.554337 
L 91.533457 291.554337 
L 91.795612 291.444403 
L 91.907976 291.382176 
L 92.182882 291.272242 
L 92.271647 291.226609 
L 92.293963 291.226609 
L 92.509499 291.116675 
L 92.615901 291.077264 
L 92.620538 291.077264 
L 92.865263 290.96733 
L 92.974977 290.9134 
L 92.976344 290.9134 
L 93.22732 290.803466 
L 93.339518 290.745387 
L 93.636906 290.635453 
L 93.744219 290.610562 
L 93.747986 290.610562 
L 93.983189 290.500628 
L 94.09547 290.438401 
L 94.389628 290.328467 
L 94.49926 290.289056 
L 94.500667 290.289056 
L 94.804638 290.179122 
L 94.916422 290.14386 
L 95.187395 290.033926 
L 95.297648 290.009035 
L 95.298434 290.009035 
L 95.6318 289.899101 
L 95.74375 289.855542 
L 96.08552 289.745607 
L 96.192378 289.716568 
L 96.196518 289.716568 
L 96.494568 289.606634 
L 96.594097 289.571372 
L 96.605648 289.571372 
L 97.067359 289.461438 
L 97.179474 289.409582 
L 97.50634 289.299648 
L 97.618248 289.260237 
L 97.956334 289.150303 
L 98.069153 289.108818 
L 98.344515 288.998884 
L 98.454684 288.955325 
L 98.455595 288.955325 
L 98.786725 288.845391 
L 98.898385 288.816352 
L 99.217302 288.706417 
L 99.330121 288.664933 
L 99.59948 288.554998 
L 99.712382 288.507291 
L 100.056139 288.397357 
L 100.168586 288.357946 
L 100.517601 288.248012 
L 100.633153 288.208602 
L 101.026551 288.098667 
L 101.139743 288.057183 
L 101.535584 287.947249 
L 101.649397 287.90369 
L 101.950096 287.793755 
L 102.065896 287.752271 
L 102.315714 287.642336 
L 102.437145 287.575961 
L 102.70108 287.466027 
L 102.817667 287.426616 
L 103.464194 287.316682 
L 103.582312 287.28142 
L 104.158001 287.171486 
L 104.242916 287.150744 
L 104.682063 287.040809 
L 104.685665 287.036661 
L 105.818661 286.908058 
L 105.938974 286.876945 
L 106.390706 286.767011 
L 106.505678 286.737971 
L 107.161604 286.628037 
L 107.278812 286.596924 
L 108.196478 286.486989 
L 108.324492 286.462099 
L 109.307862 286.352164 
L 109.426974 286.331422 
L 109.992686 286.221488 
L 110.114738 286.20282 
L 110.610604 286.092885 
L 110.703178 286.06592 
L 111.460372 285.955986 
L 111.576876 285.937318 
L 112.599826 285.827384 
L 112.711859 285.800419 
L 113.181726 285.690484 
L 113.30266 285.673891 
L 113.859801 285.568105 
L 113.977216 285.52662 
L 115.232057 285.416686 
L 115.355268 285.391795 
L 116.001422 285.281861 
L 116.140904 285.240376 
L 116.79033 285.130442 
L 116.908158 285.111774 
L 117.445551 285.00184 
L 117.570128 284.9728 
L 118.017431 284.862866 
L 118.131368 284.829678 
L 118.541741 284.719744 
L 118.665366 284.680334 
L 119.151007 284.570399 
L 119.289288 284.52684 
L 119.869366 284.416906 
L 119.989513 284.396164 
L 120.48774 284.28623 
L 120.603126 284.261339 
L 120.943281 284.151405 
L 121.063097 284.111994 
L 121.57805 284.00206 
L 121.799383 283.94813 
L 122.208431 283.838196 
L 122.321913 283.800859 
L 123.154167 283.690925 
L 123.269968 283.66396 
L 123.657031 283.554026 
L 123.789558 283.508393 
L 124.180885 283.398458 
L 124.302399 283.352825 
L 125.015831 283.247039 
L 125.1301 283.186887 
L 125.491163 283.076952 
L 125.555791 283.054136 
L 126.12676 282.944202 
L 126.249267 282.896494 
L 127.01234 282.761669 
L 127.139319 282.724333 
L 127.830021 282.614399 
L 127.951949 282.577063 
L 128.618266 282.469203 
L 128.74156 282.40905 
L 129.327517 282.299116 
L 129.440129 282.276299 
L 130.164367 282.166365 
L 130.262737 282.131103 
L 130.98209 282.012872 
L 131.093833 281.975535 
L 131.690015 281.865601 
L 131.825192 281.811671 
L 132.18965 281.701737 
L 132.282679 281.672698 
L 132.896168 281.562763 
L 133.026003 281.515056 
L 133.446147 281.405122 
L 133.578921 281.378157 
L 133.97766 281.268222 
L 134.100623 281.224664 
L 134.465371 281.114729 
L 134.582165 281.087764 
L 134.900295 280.97783 
L 135.019407 280.952939 
L 135.35033 280.843005 
L 135.468821 280.813966 
L 135.848763 280.706106 
L 135.969159 280.662547 
L 136.31035 280.552613 
L 136.43087 280.500757 
L 136.795783 280.390822 
L 136.908437 280.365932 
L 137.216258 280.26222 
L 137.328787 280.231107 
L 137.554799 280.121172 
L 137.675526 280.083836 
L 138.030917 279.975976 
L 138.030917 279.973902 
L 138.145558 279.930343 
L 138.478468 279.824557 
L 138.590252 279.774776 
L 138.854974 279.664841 
L 138.970609 279.621282 
L 139.259343 279.513422 
L 139.377214 279.467789 
L 139.879746 279.359929 
L 139.992441 279.314296 
L 140.2748 279.204362 
L 140.402772 279.12969 
L 140.955898 279.019755 
L 141.074886 278.978271 
L 141.289305 278.870411 
L 141.40792 278.812332 
L 141.706012 278.710695 
L 142.234793 278.577944 
L 142.3508 278.532311 
L 142.576232 278.422377 
L 142.592171 278.420302 
L 143.204873 278.273032 
L 143.323986 278.231547 
L 143.756922 278.127836 
L 143.770171 278.117465 
L 144.548396 277.980565 
L 144.660056 277.939081 
L 145.244854 277.835369 
L 145.356514 277.804256 
L 145.957748 277.694321 
L 146.081621 277.652837 
L 146.361372 277.542902 
L 146.492739 277.470304 
L 146.838194 277.36037 
L 146.954656 277.310588 
L 147.285952 277.200654 
L 147.406182 277.13013 
L 147.582884 277.020196 
L 147.705681 276.964192 
L 147.92453 276.866703 
L 148.048776 276.810699 
L 148.283358 276.71321 
L 148.830231 276.624018 
L 149.121822 276.514083 
L 149.256999 276.435263 
L 149.537163 276.325328 
L 149.653916 276.271398 
L 149.921618 276.161464 
L 150.033941 276.142796 
L 150.469154 276.034936 
L 150.622878 275.945744 
L 150.85274 275.83581 
L 150.970238 275.796399 
L 151.466601 275.69891 
L 152.005567 275.555788 
L 152.117476 275.514304 
L 152.554966 275.404369 
L 152.676894 275.352514 
L 152.892431 275.246728 
L 153.004836 275.207317 
L 153.688128 275.097383 
L 153.804342 275.03723 
L 154.183332 274.927296 
L 154.303231 274.879589 
L 154.54216 274.769655 
L 154.65974 274.692908 
L 155.001593 274.591271 
L 155.732621 274.396293 
L 155.850305 274.346511 
L 156.185968 274.2428 
L 156.299202 274.184721 
L 156.572535 274.076861 
L 156.688335 274.041599 
L 156.980092 273.931665 
L 157.102806 273.875661 
L 157.470494 273.765726 
L 157.560004 273.72839 
L 158.732456 273.408959 
L 158.844902 273.340509 
L 159.139433 273.240946 
L 159.727708 273.075007 
L 159.842556 273.010706 
L 160.113033 272.900772 
L 160.230779 272.821951 
L 160.483701 272.712017 
L 160.602772 272.670532 
L 160.780551 272.560598 
L 160.86501 272.525336 
L 161.547474 272.340729 
L 161.660831 272.253611 
L 162.010551 272.143677 
L 162.1278 272.112564 
L 162.498137 272.002629 
L 162.553946 271.986036 
L 163.058135 271.842914 
L 163.140441 271.813874 
L 163.752067 271.629268 
L 163.863893 271.567041 
L 164.278405 271.479923 
L 164.390728 271.423919 
L 164.684638 271.313985 
L 164.803833 271.237238 
L 165.449408 271.127304 
L 165.565001 271.075448 
L 165.821153 270.965514 
L 165.833614 270.959291 
L 166.466645 270.822392 
L 166.4736 270.795427 
L 167.522468 270.500886 
L 167.638765 270.411694 
L 167.881047 270.307982 
L 167.993618 270.216716 
L 168.19955 270.106782 
L 168.313031 270.079817 
L 168.592326 269.969882 
L 168.72005 269.857874 
L 168.96639 269.74794 
L 169.08633 269.700232 
L 169.582777 269.590298 
L 169.699322 269.55711 
L 170.089284 269.447176 
L 170.211584 269.401543 
L 170.685384 269.291609 
L 170.817082 269.208639 
L 171.129623 269.098705 
L 171.248942 269.055146 
L 171.612448 268.945212 
L 171.73421 268.862243 
L 171.970282 268.752308 
L 172.086703 268.688007 
L 172.650303 268.578073 
L 174.361886 268.117593 
L 174.474374 268.038773 
L 174.832912 267.928838 
L 174.951941 267.887354 
L 175.2603 267.777419 
L 175.341448 267.758751 
L 175.975057 267.540957 
L 175.9958 267.509844 
L 176.934208 267.281678 
L 177.046365 267.144779 
L 177.43968 267.034845 
L 177.553576 267.003731 
L 177.912527 266.893797 
L 177.927887 266.8855 
L 178.715304 266.597182 
L 178.793802 266.553623 
L 179.28143 266.377313 
L 179.392717 266.321309 
L 179.665057 266.211375 
L 179.785287 266.161593 
L 180.113726 266.051659 
L 180.2323 265.995654 
L 180.648634 265.88572 
L 180.746052 265.858755 
L 181.320872 265.686594 
L 181.433898 265.605699 
L 181.733894 265.497839 
L 182.636863 265.211595 
L 182.75109 265.151442 
L 182.924231 265.078844 
L 183.035643 264.991726 
L 183.342387 264.881792 
L 183.457732 264.83201 
L 183.787454 264.722076 
L 183.901474 264.676443 
L 184.206397 264.566509 
L 184.32021 264.52295 
L 184.616562 264.413016 
L 184.73584 264.369457 
L 185.130646 264.259523 
L 185.168073 264.242929 
L 185.946091 263.998169 
L 186.891083 263.670441 
L 187.004192 263.626882 
L 187.133365 263.516948 
L 187.248378 263.46924 
L 187.480351 263.388345 
L 187.593212 263.305376 
L 188.036623 263.194405 
L 188.152589 263.16018 
L 188.426212 263.050245 
L 188.547188 263.002538 
L 188.890241 262.892604 
L 189.016102 262.820006 
L 189.330837 262.710071 
L 189.449949 262.654067 
L 189.831216 262.544133 
L 189.951322 262.496426 
L 190.235503 262.386491 
L 190.353249 262.33671 
L 190.76358 262.232998 
L 190.783287 262.189439 
L 191.808184 261.855488 
L 191.931809 261.816078 
L 192.407927 261.706143 
L 192.522568 261.645991 
L 192.824468 261.536056 
L 192.946148 261.477978 
L 193.257736 261.372192 
L 193.370845 261.303742 
L 193.666701 261.193808 
L 193.778816 261.144027 
L 194.142778 261.034092 
L 194.261849 260.982236 
L 194.548099 260.872302 
L 194.663071 260.839114 
L 194.910404 260.72918 
L 195.028358 260.700141 
L 195.300697 260.590207 
L 195.416911 260.544574 
L 195.742825 260.434639 
L 195.870673 260.370338 
L 196.016738 260.301888 
L 196.128522 260.158766 
L 196.474681 260.048832 
L 196.586299 260.017719 
L 196.963137 259.907784 
L 197.645517 259.615318 
L 197.761069 259.584204 
L 198.22071 259.47427 
L 198.332577 259.449379 
L 198.699726 259.339445 
L 198.807619 259.270995 
L 198.8106 259.270995 
L 199.204991 259.163135 
L 199.319632 259.105057 
L 199.580007 259.003419 
L 199.691253 258.903856 
L 200.000605 258.793922 
L 200.12452 258.739992 
L 200.447204 258.630058 
L 200.573148 258.574053 
L 200.876497 258.464119 
L 200.917733 258.443377 
L 201.460094 258.182024 
L 201.587818 258.109426 
L 201.850014 258.016085 
L 202.073459 257.897854 
L 202.40285 257.78792 
L 202.516373 257.750583 
L 202.632835 257.71947 
L 202.98744 257.609536 
L 203.105062 257.570125 
L 203.465173 257.460191 
L 203.584741 257.39589 
L 203.864284 257.285956 
L 203.98112 257.232026 
L 204.341396 257.122091 
L 204.467837 257.055716 
L 204.745683 256.947856 
L 204.86318 256.84207 
L 205.130262 256.732136 
L 205.25161 256.684428 
L 205.558147 256.574494 
L 205.677674 256.537158 
L 205.992202 256.427224 
L 206.055463 256.39611 
L 206.475317 256.199058 
L 206.81009 256.089124 
L 206.925476 256.051788 
L 207.158443 255.941853 
L 207.271221 255.91074 
L 207.55801 255.800806 
L 207.670995 255.755173 
L 208.003118 255.645238 
L 208.116269 255.593382 
L 208.269662 255.539452 
L 210.006665 254.861179 
L 210.314072 254.751244 
L 210.428092 254.705611 
L 210.665696 254.595677 
L 210.777563 254.554192 
L 211.019555 254.444258 
L 211.134444 254.384105 
L 211.471909 254.274171 
L 211.589613 254.222315 
L 211.869364 254.112381 
L 211.982432 254.04808 
L 212.239204 253.938146 
L 212.361256 253.88629 
L 212.608589 253.776356 
L 212.723851 253.728648 
L 212.964353 253.618714 
L 213.085122 253.566858 
L 213.252239 253.456924 
L 213.364085 253.432033 
L 213.64661 253.322099 
L 213.761375 253.27854 
L 214.022412 253.168606 
L 214.138668 253.129195 
L 214.385173 253.019261 
L 214.497951 252.975702 
L 214.732449 252.865768 
L 214.830488 252.836729 
L 215.421661 252.477886 
L 215.705469 252.367952 
L 215.821601 252.322319 
L 216.206056 252.212385 
L 216.322601 252.162603 
L 216.649922 252.052669 
L 216.761789 252.013259 
L 216.885042 251.95518 
L 217.171293 251.845246 
L 217.283512 251.818281 
L 217.525856 251.708347 
L 217.641987 251.662713 
L 217.937802 251.552779 
L 218.059605 251.498849 
L 218.239329 251.417954 
L 231.862314 245.336307 
L 232.098635 245.226372 
L 232.151132 245.203556 
L 232.580052 244.940128 
L 232.81157 244.830194 
L 232.924638 244.799081 
L 233.203312 244.689146 
L 233.320147 244.637291 
L 233.55299 244.527356 
L 233.665809 244.485872 
L 233.896374 244.375937 
L 234.011305 244.311636 
L 234.249489 244.201702 
L 234.364171 244.143624 
L 234.580039 244.033689 
L 234.690871 243.979759 
L 234.690954 243.979759 
L 234.808617 243.917532 
L 235.048995 243.807598 
L 235.161731 243.751594 
L 235.440529 243.641659 
L 235.556619 243.583581 
L 235.774537 243.473647 
L 235.887542 243.436311 
L 236.152554 243.326376 
L 236.270921 243.270372 
L 236.539245 243.162512 
L 236.539245 243.160438 
L 236.652602 243.104433 
L 236.793036 243.048429 
L 237.953026 242.527797 
L 238.15047 242.417863 
L 238.185289 242.395046 
L 239.090825 241.907602 
L 239.379352 241.797667 
L 239.495194 241.741663 
L 239.712925 241.631729 
L 239.828973 241.586096 
L 240.041695 241.476162 
L 240.160393 241.405638 
L 240.45244 241.295703 
L 240.453806 241.293629 
L 241.234516 240.909896 
L 241.529833 240.799962 
L 241.591936 240.766774 
L 241.97076 240.484679 
L 242.208861 240.374745 
L 242.325199 240.312518 
L 242.557628 240.202583 
L 242.675167 240.140356 
L 242.90449 240.030422 
L 243.018552 239.982715 
L 243.249573 239.874855 
L 243.720391 239.601056 
L 244.02312 239.491122 
L 244.143764 239.439266 
L 244.405546 239.329332 
L 244.519815 239.27955 
L 244.766527 239.169616 
L 244.884397 239.10324 
L 245.114714 238.993306 
L 245.227078 238.931079 
L 245.48708 238.821145 
L 245.602094 238.758918 
L 245.82827 238.648984 
L 245.94701 238.590905 
L 246.171283 238.480971 
L 246.283729 238.414596 
L 246.344817 238.389705 
L 246.517276 238.120055 
L 246.789532 238.01012 
L 246.90467 237.960339 
L 247.15101 237.850405 
L 247.264284 237.796475 
L 247.491248 237.68654 
L 247.604957 237.622239 
L 247.853926 237.512305 
L 247.91164 237.479117 
L 248.448163 237.116127 
L 248.680012 237.006192 
L 248.79515 236.956411 
L 249.012922 236.846476 
L 249.125244 236.786324 
L 249.148346 236.775953 
L 249.649347 236.427482 
L 249.891132 236.317547 
L 250.00656 236.267766 
L 250.329037 236.157831 
L 250.445789 236.091456 
L 250.65139 235.981522 
L 250.767645 235.921369 
L 251.020319 235.811435 
L 251.135333 235.765802 
L 251.380596 235.655867 
L 251.496727 235.610234 
L 251.639107 235.543859 
L 252.232889 235.147681 
L 252.501047 235.037746 
L 252.614612 234.975519 
L 252.820667 234.865585 
L 252.94038 234.79921 
L 253.217294 234.689275 
L 253.330735 234.631197 
L 253.446121 234.581415 
L 253.644269 234.471481 
L 253.757502 234.419625 
L 254.009804 234.309691 
L 254.065406 234.272355 
L 254.358612 233.92181 
L 254.603875 233.811875 
L 254.717522 233.749648 
L 254.919438 233.639714 
L 255.034079 233.58371 
L 255.237319 233.473776 
L 255.351588 233.42192 
L 255.550191 233.311986 
L 255.664335 233.262204 
L 255.923178 233.15227 
L 256.036453 233.096265 
L 256.231496 232.986331 
L 256.292646 232.957292 
L 256.853596 232.554891 
L 257.04483 232.47607 
L 257.444976 232.133822 
L 257.745427 232.023888 
L 257.85746 231.978255 
L 258.078255 231.86832 
L 258.190494 231.804019 
L 258.413732 231.694085 
L 258.530774 231.623561 
L 258.800257 231.513627 
L 258.911917 231.443103 
L 259.180324 231.333169 
L 259.294468 231.285461 
L 259.526855 231.175527 
L 259.643442 231.125745 
L 259.967906 231.015811 
L 260.090455 230.941139 
L 260.254074 230.831204 
L 260.364782 230.758606 
L 260.365071 230.758606 
L 260.61228 230.648672 
L 260.727667 230.580222 
L 260.97591 230.470288 
L 261.088067 230.418432 
L 261.330598 230.308498 
L 261.449338 230.25042 
L 261.59888 230.177822 
L 261.942099 229.777495 
L 262.170222 229.667561 
L 262.28006 229.605334 
L 262.281302 229.605334 
L 262.48268 229.495399 
L 262.605767 229.416578 
L 262.868418 229.306644 
L 262.978878 229.23612 
L 262.979499 229.23612 
L 263.249147 229.126186 
L 263.364906 229.049439 
L 263.627516 228.939505 
L 263.739963 228.862759 
L 263.991726 228.752824 
L 264.10939 228.692672 
L 264.364506 228.582737 
L 264.472481 228.539178 
L 264.47538 228.539178 
L 264.712569 228.429244 
L 264.824892 228.369091 
L 265.035874 228.259157 
L 265.148569 228.180336 
L 265.355619 228.070402 
L 265.4691 228.006101 
L 265.659341 227.896167 
L 265.771705 227.83394 
L 265.990967 227.724005 
L 266.104035 227.676298 
L 266.152641 227.653482 
L 266.619526 227.199225 
L 266.841418 227.089291 
L 266.953679 227.045732 
L 267.20954 226.935797 
L 267.323685 226.88809 
L 267.540836 226.778156 
L 267.66206 226.722151 
L 267.88362 226.612217 
L 267.997827 226.54999 
L 268.223589 226.440056 
L 268.340135 226.390274 
L 268.349906 226.386126 
L 268.709023 225.969205 
L 268.939589 225.859271 
L 269.055389 225.803267 
L 269.275769 225.693333 
L 269.306158 225.676739 
L 269.712101 225.324119 
L 269.97616 225.214185 
L 270.088317 225.160255 
L 270.308656 225.050321 
L 270.422883 225.000539 
L 270.668353 224.890605 
L 270.782787 224.807636 
L 270.999524 224.697701 
L 271.111392 224.652068 
L 271.339307 224.541097 
L 271.427451 224.479907 
L 271.874257 224.004908 
L 272.081058 223.894974 
L 272.195409 223.843118 
L 272.401465 223.733184 
L 272.401465 223.732146 
L 272.533577 223.656437 
L 272.805338 223.546503 
L 272.91915 223.480127 
L 273.139573 223.370193 
L 273.257608 223.318337 
L 273.447476 223.208403 
L 273.561869 223.154473 
L 273.796243 223.044539 
L 273.909187 222.996831 
L 274.108494 222.886897 
L 274.220858 222.818447 
L 274.403025 222.708513 
L 274.517086 222.631767 
L 274.772617 222.521832 
L 274.887382 222.46168 
L 275.151897 222.350708 
L 275.255773 222.283296 
L 275.262936 222.283296 
L 275.478017 222.173361 
L 275.594438 222.100763 
L 275.806704 221.990829 
L 275.923208 221.926528 
L 276.100386 221.816594 
L 276.221341 221.758515 
L 276.236204 221.752292 
L 276.571557 221.283516 
L 276.777447 221.19225 
L 277.164138 220.779478 
L 277.374955 220.669543 
L 277.492204 220.596945 
L 277.682631 220.487011 
L 277.796961 220.424784 
L 277.953997 220.31485 
L 278.067521 220.277514 
L 278.295892 220.167579 
L 278.408028 220.115724 
L 278.6317 220.005789 
L 278.745534 219.939414 
L 278.942957 219.82948 
L 279.058882 219.773475 
L 279.233969 219.665615 
L 279.347078 219.626205 
L 279.577229 219.518345 
L 279.689304 219.468563 
L 279.927901 219.358629 
L 280.041921 219.302625 
L 280.23626 219.19269 
L 280.351605 219.134612 
L 280.534641 219.024678 
L 280.644066 218.962451 
L 280.645722 218.962451 
L 280.910775 218.852516 
L 281.021193 218.81518 
L 281.021814 218.81518 
L 281.211847 218.705246 
L 281.326861 218.657539 
L 281.534821 218.547604 
L 281.648013 218.4916 
L 281.857256 218.381666 
L 281.964735 218.336033 
L 281.968337 218.336033 
L 282.246307 218.226098 
L 282.363349 218.172168 
L 282.561766 218.062234 
L 282.678664 218.014527 
L 282.923264 217.904593 
L 283.035256 217.856885 
L 283.221935 217.746951 
L 283.336949 217.701318 
L 283.578362 217.591384 
L 283.691036 217.512563 
L 283.905062 217.402628 
L 284.018543 217.34455 
L 284.173923 217.234616 
L 284.287405 217.176537 
L 284.437362 217.066603 
L 284.551837 217.012673 
L 284.723405 216.902739 
L 284.835728 216.838437 
L 285.01893 216.728503 
L 285.131211 216.66835 
L 285.294292 216.558416 
L 285.657301 215.975557 
L 285.866752 215.865623 
L 285.980109 215.809619 
L 286.126629 215.699684 
L 286.24214 215.625012 
L 286.494234 215.515078 
L 286.600098 215.425886 
L 286.605232 215.425886 
L 286.791166 215.315951 
L 286.900508 215.243353 
L 286.902164 215.243353 
L 287.157694 215.133419 
L 287.242092 215.062895 
L 287.613899 214.521521 
L 287.798591 214.411586 
L 287.912031 214.353508 
L 288.113906 214.243574 
L 288.228547 214.156456 
L 288.397589 214.046522 
L 288.503412 213.978072 
L 288.50867 213.978072 
L 288.678685 213.868138 
L 288.796742 213.79554 
L 288.949679 213.693902 
L 289.17685 213.044668 
L 289.367504 212.934733 
L 289.484174 212.868358 
L 289.646841 212.758424 
L 289.76674 212.675454 
L 290.015936 212.56552 
L 290.131239 212.459734 
L 290.37261 212.3498 
L 290.478516 212.287573 
L 290.483691 212.287573 
L 290.659523 212.177639 
L 290.773481 212.107115 
L 290.959561 211.997181 
L 291.070269 211.939102 
L 291.070517 211.939102 
L 291.240429 211.829168 
L 291.348239 211.764867 
L 291.35151 211.764867 
L 291.498278 211.654932 
L 291.601989 211.582334 
L 291.609359 211.582334 
L 291.806596 211.4724 
L 291.920202 211.410173 
L 292.099512 211.300239 
L 292.215395 211.223492 
L 292.415572 211.113558 
L 292.527563 211.067925 
L 292.715733 210.957991 
L 292.831699 210.87917 
L 293.040694 210.768198 
L 293.154342 210.704934 
L 293.36224 210.595 
L 293.474914 210.538996 
L 293.666852 210.429062 
L 293.77934 210.356463 
L 293.992144 210.246529 
L 294.105005 210.159411 
L 294.319548 210.049477 
L 294.432119 209.974805 
L 294.668729 209.86487 
L 294.782459 209.800569 
L 294.979365 209.690635 
L 295.086761 209.622185 
L 295.090363 209.622185 
L 295.145303 209.607666 
L 295.443187 208.970877 
L 295.659469 208.860942 
L 295.772288 208.775899 
L 295.951764 208.665965 
L 296.061023 208.605812 
L 296.062845 208.605812 
L 296.257929 208.49484 
L 296.364786 208.444022 
L 296.369009 208.444022 
L 296.548568 208.334087 
L 296.666004 208.276009 
L 296.807618 208.166075 
L 296.914144 208.103848 
L 296.918574 208.103848 
L 297.091343 207.993913 
L 297.204907 207.931687 
L 297.391877 207.823826 
L 297.504365 207.755377 
L 297.704211 207.645443 
L 297.816616 207.576993 
L 297.967607 207.469133 
L 298.080137 207.398609 
L 298.311489 207.288675 
L 298.424971 207.230596 
L 298.596249 207.120662 
L 298.712298 207.039767 
L 298.925475 206.929833 
L 299.045042 206.865531 
L 299.219219 206.755597 
L 299.337131 206.674702 
L 299.50166 206.564768 
L 299.615059 206.504615 
L 299.826125 206.394681 
L 299.93853 206.33038 
L 300.158165 206.220445 
L 300.273676 206.147847 
L 300.469216 206.037913 
L 300.583815 205.950795 
L 300.733233 205.839824 
L 300.84775 205.755817 
L 301.024245 205.645883 
L 301.15081 205.542172 
L 301.338028 205.432237 
L 301.453911 205.355491 
L 301.662244 205.245556 
L 301.777092 205.152216 
L 301.967994 205.042282 
L 302.086569 204.986278 
L 302.284882 204.876343 
L 302.401138 204.816191 
L 302.61299 204.706256 
L 302.722994 204.641955 
L 302.723987 204.641955 
L 302.917623 204.530984 
L 303.030856 204.476017 
L 303.218612 204.366082 
L 303.335696 204.293484 
L 303.514965 204.18355 
L 303.631489 204.096432 
L 303.862365 203.986498 
L 303.976178 203.918048 
L 304.135202 203.808114 
L 304.247566 203.743813 
L 304.474281 203.633878 
L 304.589957 203.559206 
L 304.785248 203.449272 
L 304.901338 203.391193 
L 305.100521 203.281259 
L 305.207213 203.206587 
L 305.211312 203.206587 
L 305.388635 203.096652 
L 305.504642 203.017832 
L 305.696538 202.907897 
L 305.808654 202.847745 
L 305.995168 202.73781 
L 306.108484 202.68388 
L 306.291728 202.573946 
L 306.401815 202.501348 
L 306.402684 202.501348 
L 306.546016 202.391414 
L 306.658753 202.310519 
L 306.853671 202.200584 
L 306.964503 202.136283 
L 306.964711 202.136283 
L 307.205792 202.026349 
L 307.314223 201.966196 
L 307.31679 201.966196 
L 307.505788 201.856262 
L 307.61811 201.796109 
L 307.805328 201.686175 
L 307.919887 201.601131 
L 308.098948 201.491197 
L 308.211644 201.412376 
L 308.374228 201.302442 
L 308.484728 201.242289 
L 308.485225 201.242289 
L 308.670953 201.132355 
L 308.782696 201.063905 
L 308.927394 200.953971 
L 309.039965 200.873076 
L 309.198906 200.763142 
L 309.308165 200.67395 
L 309.309945 200.67395 
L 309.515793 200.564016 
L 309.627598 200.526679 
L 309.791155 200.416745 
L 309.904513 200.360741 
L 310.108292 200.250807 
L 310.224464 200.167837 
L 310.400297 200.057903 
L 310.508852 199.989453 
L 310.511253 199.989453 
L 310.706586 199.879519 
L 310.81895 199.813144 
L 310.984204 199.703209 
L 311.098825 199.63476 
L 311.275444 199.524825 
L 311.389008 199.464673 
L 311.561736 199.354738 
L 311.677329 199.28214 
L 311.83658 199.172206 
L 311.954471 199.101682 
L 312.124963 198.990711 
L 312.235381 198.939892 
L 312.236043 198.939892 
L 312.429472 198.829958 
L 312.539062 198.769805 
L 312.540386 198.769805 
L 312.738162 198.659871 
L 312.851851 198.593495 
L 313.060929 198.483561 
L 313.163687 198.415112 
L 313.171926 198.415112 
L 313.277335 198.354959 
L 313.612149 197.402886 
L 313.798498 197.292952 
L 313.913967 197.222428 
L 314.078041 197.112494 
L 314.190695 197.033673 
L 314.38847 196.923739 
L 314.502863 196.842844 
L 314.740798 196.73291 
L 314.854735 196.662386 
L 315.006596 196.552451 
L 315.120161 196.492299 
L 315.177129 196.457037 
L 315.488552 195.507039 
L 315.642193 195.397104 
L 315.751701 195.332803 
L 315.753274 195.332803 
L 315.940036 195.222869 
L 316.043789 195.160642 
L 316.051075 195.160642 
L 316.22993 195.050708 
L 316.343453 194.988481 
L 316.537171 194.878546 
L 316.649825 194.799726 
L 316.812658 194.689791 
L 316.92498 194.627564 
L 317.056265 194.51763 
L 317.170906 194.430512 
L 317.342101 194.320578 
L 317.449828 194.235535 
L 317.453182 194.235535 
L 317.651951 194.1256 
L 317.761541 194.057151 
L 317.763031 194.057151 
L 317.981921 193.947216 
L 318.095527 193.876693 
L 318.298395 193.766758 
L 318.410386 193.677566 
L 318.566884 193.567632 
L 318.679662 193.482589 
L 318.863982 193.372654 
L 318.984129 193.287611 
L 319.153586 193.177676 
L 319.268062 193.094707 
L 319.454203 192.984773 
L 319.566567 192.920472 
L 319.723727 192.810537 
L 319.837954 192.733791 
L 319.984061 192.623857 
L 320.099033 192.526368 
L 320.227957 192.418508 
L 320.227957 192.416433 
L 320.344006 192.318945 
L 320.50808 192.20901 
L 320.61854 192.119818 
L 320.619161 192.119818 
L 320.779095 192.009884 
L 320.883303 191.922766 
L 320.890176 191.922766 
L 321.005107 191.812832 
L 321.11097 191.736085 
L 321.116146 191.736085 
L 321.266475 191.626151 
L 321.38095 191.543182 
L 321.554092 191.433248 
L 321.669809 191.358575 
L 321.855288 191.248641 
L 321.967693 191.180191 
L 322.139593 191.070257 
L 322.249969 190.991436 
L 322.250673 190.991436 
L 322.426299 190.881502 
L 322.530175 190.825498 
L 322.537296 190.825498 
L 322.704766 190.715563 
L 322.813652 190.632594 
L 322.815846 190.632594 
L 322.982736 190.52266 
L 322.982736 190.521623 
L 323.096425 190.456284 
L 323.255283 190.34635 
L 323.362968 190.259232 
L 323.366363 190.259232 
L 323.524807 190.149298 
L 323.639034 190.072552 
L 323.814784 189.962617 
L 323.928183 189.885871 
L 324.091305 189.775936 
L 324.204166 189.686745 
L 324.342199 189.57681 
L 324.458785 189.487618 
L 324.619631 189.377684 
L 324.739695 189.269824 
L 324.924305 189.15989 
L 325.034682 189.072772 
L 325.035385 189.072772 
L 325.208651 188.962838 
L 325.319483 188.89024 
L 325.319649 188.89024 
L 325.466873 188.780305 
L 325.575593 188.701484 
L 325.57787 188.701484 
L 325.728883 188.59155 
L 325.843213 188.525175 
L 326.012173 188.41524 
L 326.12433 188.363385 
L 326.25284 188.25345 
L 326.368351 188.180852 
L 326.526132 188.070918 
L 326.640463 187.990023 
L 326.78895 187.880089 
L 326.899864 187.786748 
L 326.90003 187.786748 
L 327.072302 187.676814 
L 327.188351 187.595919 
L 327.319263 187.485985 
L 327.426161 187.394719 
L 327.430343 187.394719 
L 327.544818 187.311749 
L 327.712122 187.201815 
L 327.824859 187.12092 
L 328.014768 187.010986 
L 328.116823 186.919719 
L 328.125765 186.919719 
L 328.301929 186.809785 
L 328.41893 186.714371 
L 328.621881 186.604436 
L 328.743601 186.502799 
L 328.882835 186.392865 
L 328.993915 186.287079 
L 329.153022 186.176107 
L 329.263026 186.073433 
L 329.264102 186.073433 
L 329.406358 185.963499 
L 329.514375 185.886752 
L 329.517397 185.886752 
L 329.680643 185.776818 
L 329.785431 185.685552 
L 329.791724 185.685552 
L 329.963541 185.575617 
L 330.078181 185.4885 
L 330.235135 185.378565 
L 330.347416 185.318413 
L 330.529997 185.208478 
L 330.642899 185.119286 
L 330.84527 185.009352 
L 330.955233 184.924309 
L 330.956309 184.924309 
L 331.129616 184.813337 
L 331.249267 184.710663 
L 331.395166 184.600728 
L 331.50902 184.530205 
L 331.712509 184.42027 
L 331.826695 184.343524 
L 331.974871 184.233589 
L 332.087442 184.15062 
L 332.238972 184.040686 
L 332.352495 183.978459 
L 332.512636 183.868525 
L 332.624917 183.808372 
L 332.786466 183.698438 
L 332.899161 183.617543 
L 333.098634 183.507608 
L 333.209549 183.439159 
L 333.209715 183.439159 
L 333.381283 183.329224 
L 333.49936 183.246255 
L 333.663352 183.136321 
L 333.663352 183.135284 
L 333.777952 183.047129 
L 333.922402 182.937195 
L 334.031702 182.874968 
L 334.033482 182.874968 
L 334.218671 182.765033 
L 334.331367 182.67999 
L 334.510263 182.570056 
L 334.619563 182.491235 
L 334.621343 182.491235 
L 334.749771 182.3813 
L 334.863874 182.306628 
L 334.993088 182.196694 
L 335.105742 182.117873 
L 335.2516 182.007939 
L 335.361852 181.931192 
L 335.362597 181.931192 
L 335.527997 181.821258 
L 335.641085 181.721695 
L 335.769119 181.611761 
L 335.879703 181.530865 
L 335.8802 181.530865 
L 336.044357 181.420931 
L 336.159454 181.321368 
L 336.360044 181.211434 
L 336.470752 181.130539 
L 336.471001 181.130539 
L 336.589823 181.020604 
L 336.703512 180.954229 
L 336.864895 180.844295 
L 336.977632 180.759251 
L 337.122537 180.649317 
L 337.235439 180.560125 
L 337.405973 180.450191 
L 337.51519 180.363073 
L 337.51697 180.363073 
L 337.700048 180.253139 
L 337.813033 180.159798 
L 337.934464 180.049864 
L 338.045296 179.962746 
L 338.045544 179.962746 
L 338.235909 179.852812 
L 338.34819 179.782288 
L 338.494338 179.672354 
L 338.606867 179.599756 
L 338.765269 179.489822 
L 338.876309 179.38611 
L 338.876371 179.38611 
L 339.043861 179.276176 
L 339.156266 179.2098 
L 339.289662 179.098829 
L 339.397348 179.000303 
L 339.40066 179.000303 
L 339.570944 178.890369 
L 339.684385 178.774212 
L 339.860548 178.664277 
L 339.977756 178.564714 
L 340.144646 178.45478 
L 340.254609 178.369736 
L 340.255644 178.369736 
L 340.43218 178.259802 
L 340.545414 178.149868 
L 340.695163 178.039934 
L 340.806244 177.956964 
L 340.941296 177.845993 
L 341.047325 177.768209 
L 341.052293 177.768209 
L 341.226345 177.658275 
L 341.334362 177.573231 
L 341.336349 177.573231 
L 341.635517 175.781095 
L 341.814621 175.671161 
L 341.927647 175.565375 
L 342.053756 175.455441 
L 342.160821 175.386991 
L 342.164754 175.386991 
L 342.328456 175.277057 
L 342.441151 175.196162 
L 342.570365 175.086228 
L 342.677844 175.009481 
L 342.681404 175.009481 
L 342.811157 174.899547 
L 342.919877 174.777167 
L 342.922196 174.777167 
L 343.101879 174.667233 
L 343.212297 174.571818 
L 343.212959 174.571818 
L 343.327186 174.461884 
L 343.438267 174.35195 
L 343.586816 174.242015 
L 343.697772 174.138304 
L 343.697896 174.138304 
L 343.842408 174.028369 
L 343.9562 173.935029 
L 344.092536 173.825095 
L 344.205148 173.7442 
L 344.337261 173.634265 
L 344.450287 173.536777 
L 344.574036 173.426842 
L 344.687145 173.327279 
L 344.813752 173.217345 
L 344.921334 173.128153 
L 344.924832 173.128153 
L 345.061995 173.018219 
L 345.174442 172.939398 
L 345.293513 172.829464 
L 345.406167 172.746494 
L 345.526708 172.63656 
L 345.638637 172.532848 
L 345.793354 172.421877 
L 345.908037 172.333722 
L 346.045946 172.223788 
L 346.156115 172.142893 
L 346.157026 172.142893 
L 346.310916 172.032959 
L 346.413302 171.981103 
L 346.421955 171.981103 
L 346.563962 171.871168 
L 346.667383 171.781977 
L 346.674877 171.781977 
L 346.820776 171.671005 
L 346.933927 171.566256 
L 347.059456 171.456322 
L 347.172524 171.356759 
L 347.297909 171.246825 
L 347.409714 171.174227 
L 347.561865 171.064292 
L 347.671206 170.981323 
L 347.672738 170.981323 
L 347.813379 170.871389 
L 347.921893 170.769751 
L 347.924418 170.769751 
L 348.061002 170.659817 
L 348.175353 170.578922 
L 348.317526 170.468988 
L 348.43018 170.392241 
L 348.557242 170.282307 
L 348.667784 170.186892 
L 348.668198 170.186892 
L 348.808052 170.076958 
L 348.918512 169.985692 
L 348.919133 169.985692 
L 348.92791 169.979469 
L 349.209234 167.834714 
L 349.347267 167.724779 
L 349.347267 167.723742 
L 349.462115 167.623142 
L 349.624161 167.513208 
L 349.737228 167.415719 
L 349.836178 167.305785 
L 349.949639 167.187553 
L 350.089887 167.077619 
L 350.199518 166.982204 
L 350.200947 166.982204 
L 350.318465 166.87227 
L 350.425695 166.793449 
L 350.429421 166.793449 
L 350.555199 166.683515 
L 350.668847 166.550764 
L 350.796281 166.44083 
L 350.910384 166.366158 
L 351.021547 166.256223 
L 351.134159 166.179477 
L 351.237373 166.069542 
L 351.353505 165.945089 
L 351.452372 165.835154 
L 351.559478 165.733517 
L 351.563411 165.733517 
L 351.686332 165.623583 
L 351.798282 165.534391 
L 351.913213 165.424456 
L 352.021809 165.324893 
L 352.024211 165.324893 
L 352.143778 165.214959 
L 352.252706 165.11747 
L 352.254652 165.11747 
L 352.363165 165.007536 
L 352.473666 164.924567 
L 352.474204 164.924567 
L 352.60375 164.814632 
L 352.713009 164.723366 
L 352.71483 164.723366 
L 352.836054 164.613432 
L 352.94581 164.480681 
L 352.947114 164.480681 
L 353.048858 164.370747 
L 353.159483 164.269109 
L 353.159939 164.269109 
L 353.2728 164.179917 
L 353.378312 164.069983 
L 353.494588 163.968346 
L 353.605668 163.858411 
L 353.716086 163.750551 
L 353.71677 163.750551 
L 353.832383 163.640617 
L 353.945782 163.522386 
L 354.061376 163.412452 
L 354.169351 163.314963 
L 354.172456 163.314963 
L 354.294135 163.205028 
L 354.403187 163.126208 
L 354.405174 163.126208 
L 354.536583 163.016273 
L 354.649982 162.893894 
L 354.800228 162.783959 
L 354.914455 162.707213 
L 355.023838 162.597279 
L 355.133677 162.516384 
L 355.134919 162.516384 
L 355.259041 162.406449 
L 355.366229 162.267476 
L 355.370121 162.267476 
L 355.482941 162.182432 
L 355.62147 162.072498 
L 355.732261 161.989529 
L 355.732509 161.989529 
L 355.849096 161.879594 
L 355.964938 161.761363 
L 356.06898 161.651429 
L 356.179812 161.541495 
L 356.180019 161.541495 
L 356.27429 161.43156 
L 356.3874 161.325775 
L 356.531643 161.21584 
L 356.640943 161.126648 
L 356.642268 161.126648 
L 356.78618 161.016714 
L 356.78618 161.015677 
L 356.901359 160.913002 
L 357.032602 160.803068 
L 357.147574 160.707653 
L 357.269088 160.597719 
L 357.379133 160.523047 
L 357.380148 160.523047 
L 357.510128 160.413113 
L 357.621125 160.296956 
L 357.621167 160.296956 
L 357.75862 160.187021 
L 357.868127 160.08331 
L 357.869659 160.08331 
L 358.011128 159.97545 
L 358.011128 159.974413 
L 358.121381 159.863441 
L 358.122209 159.863441 
L 358.246248 159.753507 
L 358.352029 159.65187 
L 358.357246 159.65187 
L 358.467043 159.541935 
L 358.58069 159.415407 
L 358.681172 159.305473 
L 358.791838 159.212132 
L 358.792252 159.212132 
L 358.885613 159.104272 
L 358.885613 159.102198 
L 358.999136 158.981893 
L 359.103965 158.871958 
L 359.2143 158.757876 
L 359.215004 158.757876 
L 359.321323 158.647941 
L 359.431741 158.552527 
L 359.432362 158.552527 
L 359.54365 158.442592 
L 359.658746 158.343029 
L 359.775747 158.233095 
L 359.886745 158.139755 
L 360.006602 158.02982 
L 360.120084 157.911589 
L 360.235056 157.801655 
L 360.352802 157.693795 
L 360.484708 157.583861 
L 360.59763 157.49052 
L 360.715563 157.380586 
L 360.826022 157.272726 
L 360.826643 157.272726 
L 360.936316 157.162792 
L 361.042884 157.046635 
L 361.047355 157.046635 
L 361.170525 156.9367 
L 361.284835 156.855805 
L 361.375753 156.745871 
L 361.48793 156.638011 
L 361.624286 156.528077 
L 361.737851 156.405697 
L 361.857274 156.294726 
L 361.975827 156.173383 
L 362.10057 156.063449 
L 362.213886 155.953514 
L 362.326374 155.84358 
L 362.326374 155.842543 
L 362.446853 155.729497 
L 362.551351 155.619563 
L 362.669345 155.507555 
L 362.766805 155.39762 
L 362.88364 155.254498 
L 363.002297 155.143527 
L 363.109941 155.013887 
L 363.113336 155.013887 
L 363.250582 154.903953 
L 363.35951 154.796093 
L 363.361663 154.796093 
L 363.454609 154.685122 
L 363.563826 154.561705 
L 363.565607 154.561705 
L 363.694697 154.451771 
L 363.804867 154.333539 
L 363.805757 154.333539 
L 363.91425 154.223605 
L 364.028808 154.138562 
L 364.127799 154.028627 
L 364.237058 153.910396 
L 364.238838 153.910396 
L 364.329176 153.800462 
L 364.442741 153.673934 
L 364.548894 153.564 
L 364.65836 153.462362 
L 364.659809 153.462362 
L 364.780288 153.352428 
L 364.891203 153.263236 
L 364.891306 153.263236 
L 364.991767 153.153302 
L 365.105125 153.037145 
L 365.186189 152.92721 
L 365.29197 152.804831 
L 365.297228 152.804831 
L 365.388933 152.694896 
L 365.502994 152.541403 
L 365.616269 152.431469 
L 365.734843 152.309089 
L 365.818764 152.199155 
L 365.818764 152.198118 
L 365.935641 152.053959 
L 366.023826 151.944025 
L 366.134555 151.827868 
L 366.134865 151.827868 
L 366.290659 151.717933 
L 366.40352 151.628741 
L 366.523502 151.518807 
L 366.62978 151.408873 
L 366.634541 151.408873 
L 366.746491 151.298938 
L 366.856681 151.182782 
L 366.857571 151.182782 
L 366.947123 151.07181 
L 367.053483 150.964987 
L 367.058162 150.964987 
L 367.185555 150.855053 
L 367.299367 150.720228 
L 367.402168 150.610294 
L 367.509522 150.504508 
L 367.513248 150.504508 
L 367.611618 150.394573 
L 367.725017 150.280491 
L 367.839617 150.170556 
L 367.948462 150.033657 
L 367.950697 150.033657 
L 368.055816 149.923723 
L 368.166772 149.782675 
L 368.166855 149.782675 
L 368.273961 149.672741 
L 368.387567 149.548287 
L 368.487138 149.438353 
L 368.600288 149.336715 
L 368.702674 149.226781 
L 368.702674 149.225744 
L 368.818185 149.114773 
L 368.927692 149.004838 
L 369.037282 148.894904 
L 369.038648 148.894904 
L 369.140744 148.78497 
L 369.251784 148.643922 
L 369.350071 148.533988 
L 369.460489 148.401237 
L 369.46111 148.401237 
L 369.555009 148.291303 
L 369.66878 148.158552 
L 369.78367 148.048617 
L 369.897151 147.922089 
L 369.992458 147.812155 
L 370.102379 147.695998 
L 370.103538 147.695998 
L 370.177357 147.586064 
L 370.283221 147.457461 
L 370.288355 147.457461 
L 370.380639 147.347527 
L 370.490664 147.216851 
L 370.491637 147.216851 
L 370.576137 147.106916 
L 370.693345 146.951349 
L 370.785961 146.841415 
L 370.893356 146.756371 
L 370.897041 146.756371 
L 371.003443 146.646437 
L 371.107982 146.524057 
L 371.114482 146.524057 
L 371.226763 146.414123 
L 371.336643 146.283446 
L 371.337802 146.283446 
L 371.436338 146.173512 
L 371.544686 146.061503 
L 371.547336 146.061503 
L 371.631795 145.951569 
L 371.745194 145.833338 
L 371.819096 145.723404 
L 371.928934 145.615544 
L 371.930094 145.615544 
L 372.041878 145.505609 
L 372.151509 145.395675 
L 372.152917 145.395675 
L 372.263004 145.284704 
L 372.373173 145.15299 
L 372.374001 145.15299 
L 372.483633 145.043056 
L 372.592271 144.910305 
L 372.594672 144.910305 
L 372.696727 144.800371 
L 372.80938 144.723624 
L 372.916031 144.61369 
L 373.026408 144.501681 
L 373.02707 144.501681 
L 373.127427 144.391747 
L 373.237928 144.263145 
L 373.238301 144.263145 
L 373.348595 144.15321 
L 373.455038 144.016311 
L 373.459675 144.016311 
L 373.567195 143.906377 
L 373.676164 143.792294 
L 373.678276 143.792294 
L 373.792792 143.68236 
L 373.903128 143.5745 
L 373.90321 143.5745 
L 374.022033 143.464565 
L 374.128849 143.321443 
L 374.132989 143.321443 
L 374.245105 143.211509 
L 374.34865 143.084981 
L 374.356061 143.084981 
L 374.462877 142.975047 
L 374.573751 142.846444 
L 374.573916 142.846444 
L 374.683258 142.73651 
L 374.683258 142.735473 
L 374.801087 142.566423 
L 374.897056 142.456489 
L 375.006314 142.329961 
L 375.008157 142.329961 
L 375.088538 142.220026 
L 375.200902 142.091424 
L 375.284574 141.98149 
L 375.39462 141.821774 
L 375.395613 141.821774 
L 375.50421 141.710802 
L 375.614711 141.545901 
L 375.615249 141.545901 
L 375.714944 141.435967 
L 375.824285 141.292845 
L 375.825983 141.292845 
L 375.899595 141.182911 
L 376.010386 141.062605 
L 376.010634 141.062605 
L 376.10594 140.952671 
L 376.219878 140.811623 
L 376.318662 140.701689 
L 376.428128 140.568938 
L 376.429742 140.568938 
L 376.514864 140.459004 
L 376.625116 140.30551 
L 376.625965 140.30551 
L 376.730194 140.195576 
L 376.837465 140.048306 
L 376.841274 140.048306 
L 376.942625 139.938371 
L 377.052339 139.830511 
L 377.053706 139.830511 
L 377.181885 139.720577 
L 377.29752 139.569158 
L 377.396511 139.459224 
L 377.50697 139.291211 
L 377.507591 139.291211 
L 377.588283 139.181277 
L 377.698701 139.01119 
L 377.699239 139.01119 
L 377.783284 138.901256 
L 377.893702 138.747762 
L 377.894365 138.747762 
L 377.977251 138.637828 
L 377.977251 138.636791 
L 378.094003 138.49678 
L 378.175523 138.386846 
L 378.285072 138.247873 
L 378.286355 138.247873 
L 378.372967 138.137938 
L 378.483634 137.998965 
L 378.484006 137.998965 
L 378.571488 137.889031 
L 378.680995 137.731389 
L 378.682568 137.731389 
L 378.778661 137.621455 
L 378.888127 137.494927 
L 378.889659 137.494927 
L 379.002685 137.384992 
L 379.112772 137.252241 
L 379.113724 137.252241 
L 379.219381 137.142307 
L 379.329882 137.005408 
L 379.330213 137.005408 
L 379.422497 136.895474 
L 379.533454 136.739906 
L 379.633066 136.629972 
L 379.742076 136.48685 
L 379.743939 136.48685 
L 379.823679 136.376916 
L 379.932524 136.242091 
L 379.934345 136.242091 
L 380.016776 136.132156 
L 380.126531 135.98696 
L 380.127877 135.98696 
L 380.230325 135.877026 
L 380.344635 135.71731 
L 380.432241 135.607376 
L 380.543321 135.460105 
L 380.615443 135.350171 
L 380.725612 135.190455 
L 380.726523 135.190455 
L 380.813963 135.080521 
L 380.92434 134.918731 
L 380.925002 134.918731 
L 381.025732 134.808796 
L 381.135529 134.67812 
L 381.136792 134.67812 
L 381.209348 134.568186 
L 381.320056 134.404321 
L 381.320263 134.404321 
L 381.402321 134.294387 
L 381.512946 134.136745 
L 381.51336 134.136745 
L 381.575463 134.026811 
L 381.689731 133.867095 
L 381.767069 133.757161 
L 381.874382 133.566332 
L 381.878129 133.566332 
L 381.978714 133.456397 
L 382.092941 133.30083 
L 382.166553 133.190896 
L 382.280863 133.029106 
L 382.376004 132.919171 
L 382.489734 132.776049 
L 382.567776 132.665078 
L 382.678774 132.485657 
L 382.750316 132.375723 
L 382.864687 132.211858 
L 382.969992 132.101924 
L 383.080742 131.935986 
L 383.081073 131.935986 
L 383.151538 131.826051 
L 383.262122 131.658039 
L 383.262412 131.658039 
L 383.351094 131.548104 
L 383.460518 131.411205 
L 383.462092 131.411205 
L 383.534958 131.301271 
L 383.642147 131.178891 
L 383.645997 131.178891 
L 383.725778 131.068957 
L 383.836859 130.861534 
L 383.902853 130.750562 
L 384.011946 130.612626 
L 384.013933 130.612626 
L 384.089905 130.502691 
L 384.200034 130.380312 
L 384.200862 130.380312 
L 384.287308 130.270378 
L 384.397685 130.137627 
L 384.398389 130.137627 
L 384.475106 130.026655 
L 384.585399 129.857605 
L 384.586145 129.857605 
L 384.680872 129.747671 
L 384.791414 129.581733 
L 384.791952 129.581733 
L 384.86221 129.471798 
L 384.971925 129.301711 
L 384.973084 129.301711 
L 385.032537 129.191777 
L 385.141464 129.071472 
L 385.143369 129.071472 
L 385.207914 128.961537 
L 385.321892 128.80597 
L 385.40159 128.696036 
L 385.511429 128.513503 
L 385.512547 128.513503 
L 385.607025 128.403569 
L 385.717567 128.221037 
L 385.71794 128.221037 
L 385.79387 128.111102 
L 385.908056 127.955535 
L 385.999636 127.845601 
L 386.113987 127.683811 
L 386.180685 127.573876 
L 386.290068 127.376824 
L 386.291683 127.376824 
L 386.369973 127.26689 
L 386.48006 127.073986 
L 386.481013 127.073986 
L 386.541914 126.964052 
L 386.652581 126.793965 
L 386.652995 126.793965 
L 386.737951 126.684031 
L 386.848907 126.476608 
L 386.84899 126.476608 
L 386.92699 126.366673 
L 387.03716 126.179993 
L 387.038029 126.179993 
L 387.122158 126.070058 
L 387.231541 125.8896 
L 387.233238 125.8896 
L 387.298735 125.779666 
L 387.417475 125.588837 
L 387.505412 125.478902 
L 387.613967 125.321261 
L 387.61641 125.321261 
L 387.692837 125.211326 
L 387.80371 124.999755 
L 387.803917 124.999755 
L 387.860845 124.889821 
L 387.971345 124.754995 
L 387.971718 124.754995 
L 388.059241 124.645061 
L 388.169079 124.470826 
L 388.170156 124.470826 
L 388.234204 124.359854 
L 388.343173 124.170062 
L 388.344581 124.170062 
L 388.416123 124.060128 
L 388.526479 123.898338 
L 388.526996 123.898338 
L 388.593736 123.788403 
L 388.702829 123.622465 
L 388.704795 123.622465 
L 388.781036 123.514605 
L 388.888887 123.338295 
L 388.891868 123.338295 
L 388.97463 123.228361 
L 389.085628 123.062422 
L 389.165616 122.952488 
L 389.275454 122.784475 
L 389.276572 122.784475 
L 389.343518 122.674541 
L 389.454433 122.516899 
L 389.454599 122.516899 
L 389.532889 122.405928 
L 389.641527 122.249324 
L 389.643845 122.249324 
L 389.72048 122.139389 
L 389.830442 121.983822 
L 389.83156 121.983822 
L 389.902357 121.873888 
L 390.013313 121.666464 
L 390.091479 121.55653 
L 390.200862 121.384369 
L 390.20256 121.384369 
L 390.276544 121.274435 
L 390.386962 121.170723 
L 390.387542 121.170723 
L 390.4501 121.060789 
L 390.55882 120.890702 
L 390.56118 120.890702 
L 390.645764 120.780768 
L 390.756099 120.610681 
L 390.756844 120.610681 
L 390.832733 120.500746 
L 390.943731 120.338956 
L 391.019869 120.229022 
L 391.129997 120.034044 
L 391.130949 120.034044 
L 391.189574 119.92411 
L 391.299702 119.716687 
L 391.300571 119.716687 
L 391.383209 119.606752 
L 391.494041 119.417997 
L 391.568233 119.308063 
L 391.678319 119.113085 
L 391.679272 119.113085 
L 391.739511 119.003151 
L 391.849722 118.837212 
L 391.850591 118.837212 
L 391.905614 118.727278 
L 392.014707 118.534375 
L 392.016653 118.534375 
L 392.085587 118.42444 
L 392.196626 118.268873 
L 392.196667 118.268873 
L 392.278435 118.158939 
L 392.393201 117.976406 
L 392.451618 117.866472 
L 392.562409 117.692237 
L 392.562699 117.692237 
L 392.630018 117.582302 
L 392.740187 117.39977 
L 392.741098 117.39977 
L 392.796576 117.289836 
L 392.905752 117.107303 
L 392.907657 117.107303 
L 392.976135 116.997369 
L 393.08618 116.810688 
L 393.087215 116.810688 
L 393.14112 116.700754 
L 393.251166 116.534815 
L 393.252201 116.534815 
L 393.327966 116.424881 
L 393.440495 116.256868 
L 393.505454 116.146934 
L 393.616328 115.947808 
L 393.616493 115.947808 
L 393.697226 115.837873 
L 393.806734 115.659489 
L 393.808224 115.659489 
L 393.870658 115.549555 
L 393.981531 115.364949 
L 394.044834 115.255014 
L 394.155666 115.078705 
L 394.155915 115.078705 
L 394.222861 114.96877 
L 394.333941 114.765496 
L 394.397907 114.655561 
L 394.508863 114.485474 
L 394.508987 114.485474 
L 394.57759 114.37554 
L 394.688132 114.170191 
L 394.688629 114.170191 
L 394.768658 114.060257 
L 394.88334 113.881873 
L 394.944905 113.771939 
L 395.053956 113.572812 
L 395.055944 113.572812 
L 395.09867 113.462878 
L 395.207556 113.29694 
L 395.209502 113.29694 
L 395.276366 113.187005 
L 395.387363 112.994102 
L 395.455759 112.884167 
L 395.56568 112.682967 
L 395.566839 112.682967 
L 395.62683 112.573033 
L 395.737207 112.371832 
L 395.737911 112.371832 
L 395.813758 112.261898 
L 395.923638 112.06692 
L 395.924259 112.06692 
L 395.99104 111.956986 
L 396.105225 111.79727 
L 396.166583 111.687336 
L 396.277208 111.5131 
L 396.277663 111.5131 
L 396.333141 111.403166 
L 396.444222 111.210262 
L 396.488563 111.100328 
L 396.598401 110.911573 
L 396.599643 110.911573 
L 396.719418 110.691705 
L 396.774524 110.58177 
L 396.889496 110.382644 
L 396.955614 110.27271 
L 397.066363 110.100549 
L 397.066632 110.100549 
L 397.1088 109.990614 
L 397.217872 109.776968 
L 397.21988 109.776968 
L 397.282728 109.667034 
L 397.393808 109.472056 
L 397.458105 109.362122 
L 397.568751 109.17959 
L 397.569144 109.17959 
L 397.622594 109.07173 
L 397.73326 108.897494 
L 397.733591 108.897494 
L 397.785136 108.78756 
L 397.894395 108.569766 
L 397.895761 108.569766 
L 397.963287 108.459831 
L 398.074202 108.235814 
L 398.074285 108.235814 
L 398.124422 108.12588 
L 398.234882 107.903937 
L 398.235503 107.903937 
L 398.286261 107.794003 
L 398.395478 107.538872 
L 398.397321 107.538872 
L 398.452281 107.428938 
L 398.567502 107.223589 
L 398.617805 107.113655 
L 398.723876 106.900009 
L 398.728885 106.900009 
L 398.78693 106.790075 
L 398.897224 106.580577 
L 398.897928 106.580577 
L 398.964605 106.470643 
L 399.077404 106.283962 
L 399.140169 106.174028 
L 399.251125 105.964531 
L 399.306769 105.854596 
L 399.417435 105.609837 
L 399.417808 105.609837 
L 399.477178 105.499903 
L 399.588217 105.284183 
L 399.645599 105.174248 
L 399.75668 104.968899 
L 399.815553 104.858965 
L 399.92564 104.653616 
L 399.926592 104.653616 
L 399.989812 104.543682 
L 400.099982 104.315516 
L 400.100851 104.315516 
L 400.157903 104.205582 
L 400.268693 103.991936 
L 400.268983 103.991936 
L 400.32914 103.882002 
L 400.440179 103.668356 
L 400.44022 103.668356 
L 400.497437 103.558422 
L 400.607151 103.321959 
L 400.608228 103.321959 
L 400.659441 103.212025 
L 400.769984 102.973488 
L 400.770522 102.973488 
L 400.828484 102.863554 
L 400.939275 102.604275 
L 400.939565 102.604275 
L 400.987425 102.494341 
L 401.09834 102.230913 
L 401.098464 102.230913 
L 401.161104 102.120979 
L 401.272144 101.917704 
L 401.272185 101.917704 
L 401.325841 101.80777 
L 401.434769 101.573382 
L 401.436943 101.573382 
L 401.491489 101.463448 
L 401.60199 101.241505 
L 401.60257 101.241505 
L 401.656143 101.133645 
L 401.765733 100.911702 
L 401.767182 100.911702 
L 401.8321 100.801768 
L 401.94318 100.56738 
L 402.000439 100.457445 
L 402.111105 100.241725 
L 402.11154 100.241725 
L 402.154536 100.131791 
L 402.263712 99.880809 
L 402.265492 99.880809 
L 402.32776 99.770875 
L 402.438426 99.49915 
L 402.438799 99.49915 
L 402.482974 99.388179 
L 402.593351 99.161051 
L 402.594075 99.161051 
L 402.642619 99.051116 
L 402.752954 98.847842 
L 402.753409 98.847842 
L 402.805824 98.737907 
L 402.91678 98.52841 
L 402.916904 98.52841 
L 402.95872 98.418476 
L 403.069759 98.161271 
L 403.069821 98.161271 
L 403.185849 97.908215 
L 403.231681 97.79828 
L 403.342761 97.541076 
L 403.390539 97.431141 
L 403.500832 97.16564 
L 403.501619 97.16564 
L 403.573534 97.055705 
L 403.683538 96.732125 
L 403.68449 96.732125 
L 403.728582 96.622191 
L 403.728582 96.621154 
L 403.839663 96.344244 
L 403.888641 96.23431 
L 403.999556 95.964659 
L 403.999721 95.964659 
L 404.047126 95.854725 
L 404.156178 95.570555 
L 404.158165 95.570555 
L 404.210828 95.462695 
L 404.210828 95.460621 
L 404.321619 95.253198 
L 404.321909 95.253198 
L 404.366084 95.143264 
L 404.476337 94.879836 
L 404.477082 94.879836 
L 404.524404 94.769902 
L 404.634822 94.502326 
L 404.635484 94.502326 
L 404.692494 94.392392 
L 404.80343 94.14141 
L 404.803575 94.14141 
L 404.853753 94.031476 
L 404.963964 93.732786 
L 404.964751 93.732786 
L 405.006608 93.622852 
L 405.117668 93.340756 
L 405.117689 93.340756 
L 405.16559 93.230822 
L 405.276422 92.944578 
L 405.276464 92.944578 
L 405.331818 92.834644 
L 405.441822 92.5484 
L 405.442857 92.5484 
L 405.480822 92.438466 
L 405.596539 92.208226 
L 405.64324 92.098292 
L 405.754155 91.843161 
L 405.754279 91.843161 
L 405.796343 91.733227 
L 405.90672 91.471874 
L 405.907424 91.471874 
L 405.967042 91.361939 
L 406.077709 91.07777 
L 406.078123 91.07777 
L 406.114804 90.967835 
L 406.224229 90.640107 
L 406.225885 90.640107 
L 406.267245 90.530172 
L 406.376876 90.227335 
L 406.378325 90.227335 
L 406.419313 90.1174 
L 406.530145 89.779301 
L 406.530393 89.779301 
L 406.562107 89.671441 
L 406.562107 89.669366 
L 406.670082 89.393493 
L 406.673188 89.393493 
L 406.728127 89.283559 
L 406.839167 89.009761 
L 406.870632 88.899826 
L 406.980967 88.626028 
L 406.981547 88.626028 
L 407.029697 88.516093 
L 407.140115 88.217404 
L 407.140777 88.217404 
L 407.180026 88.10747 
L 407.290982 87.8233 
L 407.291065 87.8233 
L 407.331638 87.713366 
L 407.442636 87.39186 
L 407.442719 87.39186 
L 407.476875 87.281926 
L 407.58721 86.912712 
L 407.587749 86.912712 
L 407.632007 86.802778 
L 407.74288 86.506163 
L 407.743108 86.506163 
L 407.784489 86.396229 
L 407.894948 86.103762 
L 407.895487 86.103762 
L 407.933535 85.993828 
L 408.044367 85.680619 
L 408.044532 85.680619 
L 408.077529 85.570684 
L 408.188444 85.242956 
L 408.188486 85.242956 
L 408.234566 85.133022 
L 408.345315 84.807367 
L 408.345646 84.807367 
L 408.381872 84.697433 
L 408.492497 84.330294 
L 408.492912 84.330294 
L 408.530877 84.22036 
L 408.641502 83.88226 
L 408.641792 83.88226 
L 408.684311 83.772326 
L 408.793197 83.459117 
L 408.795391 83.459117 
L 408.837663 83.348145 
L 408.947936 83.013157 
L 408.948702 83.013157 
L 408.987453 82.903222 
L 409.097209 82.531935 
L 409.098534 82.531935 
L 409.141529 82.422001 
L 409.256108 82.07353 
L 409.288526 81.963596 
L 409.399068 81.640015 
L 409.399523 81.640015 
L 409.431527 81.530081 
L 409.5424 81.138051 
L 409.542607 81.138051 
L 409.575977 81.028117 
L 409.686395 80.638161 
L 409.686436 80.638161 
L 409.728873 80.528227 
L 409.839954 80.111307 
L 409.870632 80.001372 
L 409.98134 79.669495 
L 410.004897 79.559561 
L 410.114943 79.175828 
L 410.115564 79.175828 
L 410.151045 79.065894 
L 410.262001 78.692532 
L 410.262084 78.692532 
L 410.295578 78.582598 
L 410.406369 78.161529 
L 410.406534 78.161529 
L 410.449468 78.051595 
L 410.560176 77.630526 
L 410.560217 77.630526 
L 410.591972 77.520591 
L 410.70181 77.076706 
L 410.703011 77.076706 
L 410.732737 76.966771 
L 410.843611 76.591335 
L 410.843818 76.591335 
L 410.868742 76.481401 
L 410.979408 76.008476 
L 410.979739 76.008476 
L 411.007458 75.898542 
L 411.123279 75.421469 
L 411.157352 75.311534 
L 411.266487 74.8635 
L 411.268391 74.8635 
L 411.295302 74.753566 
L 411.404602 74.282716 
L 411.406383 74.282716 
L 411.435985 74.172781 
L 411.54603 73.733044 
L 411.547024 73.733044 
L 411.573935 73.62311 
L 411.683566 73.141888 
L 411.68485 73.141888 
L 411.715114 73.031954 
L 411.825118 72.565252 
L 411.826112 72.565252 
L 411.850787 72.455317 
L 411.960129 71.959576 
L 411.961868 71.959576 
L 411.981782 71.849642 
L 412.092614 71.405756 
L 412.092862 71.405756 
L 412.115923 71.295822 
L 412.226465 70.791784 
L 412.227003 70.791784 
L 412.25143 70.681849 
L 412.362428 70.15292 
L 412.362511 70.15292 
L 412.382177 70.042986 
L 412.493174 69.45183 
L 412.493216 69.45183 
L 412.518926 69.341896 
L 412.629717 68.800521 
L 412.630006 68.800521 
L 412.651121 68.690587 
L 412.76216 68.178252 
L 412.792011 68.068317 
L 412.90305 67.456419 
L 412.903091 67.456419 
L 412.926607 67.346485 
L 413.037232 66.732512 
L 413.037647 66.732512 
L 413.05487 66.624652 
L 413.05487 66.622578 
L 413.164998 66.031422 
L 413.16595 66.031422 
L 413.184871 65.921488 
L 413.29475 65.317886 
L 413.295868 65.317886 
L 413.314789 65.207952 
L 413.425455 64.56494 
L 413.425869 64.56494 
L 413.445411 64.455006 
L 413.55645 63.724876 
L 413.572928 63.614942 
L 413.683553 62.868219 
L 413.684008 62.868219 
L 413.7009 62.758284 
L 413.811939 61.955557 
L 413.823821 61.845622 
L 413.934778 61.107196 
L 413.950883 60.997262 
L 414.061342 60.146827 
L 414.061591 60.146827 
L 414.074508 60.036892 
L 414.18534 59.13875 
L 414.185464 59.13875 
L 414.198092 59.03089 
L 414.198092 59.028816 
L 414.309172 58.132748 
L 414.324822 58.022813 
L 414.43582 57.047924 
L 414.435902 57.047924 
L 414.450641 56.93799 
L 414.561598 55.867687 
L 414.573687 55.757752 
L 414.684643 54.53603 
L 414.684684 54.53603 
L 414.693958 54.430244 
L 414.693958 54.426096 
L 414.719669 54.144 
L 414.72 54.144 
" clip-path="url(#p730d9882a1)" style="fill: none; stroke: #ff8c00; stroke-width: 1.5; stroke-linecap: square"/>
   </g>
   <g id="line2d_14">
    <path d="M 74.605714 307.584 
L 414.72 54.144 
" clip-path="url(#p730d9882a1)" style="fill: none; stroke-dasharray: 5.55,2.4; stroke-dashoffset: 0; stroke: #0000ff; stroke-width: 1.5"/>
   </g>
   <g id="patch_3">
    <path d="M 57.6 307.584 
L 57.6 41.472 
" style="fill: none; stroke: #000000; stroke-width: 0.8; stroke-linejoin: miter; stroke-linecap: square"/>
   </g>
   <g id="patch_4">
    <path d="M 414.72 307.584 
L 414.72 41.472 
" style="fill: none; stroke: #000000; stroke-width: 0.8; stroke-linejoin: miter; stroke-linecap: square"/>
   </g>
   <g id="patch_5">
    <path d="M 57.6 307.584 
L 414.72 307.584 
" style="fill: none; stroke: #000000; stroke-width: 0.8; stroke-linejoin: miter; stroke-linecap: square"/>
   </g>
   <g id="patch_6">
    <path d="M 57.6 41.472 
L 414.72 41.472 
" style="fill: none; stroke: #000000; stroke-width: 0.8; stroke-linejoin: miter; stroke-linecap: square"/>
   </g>
   <g id="text_15">
    <!-- ROC CURVE -->
    <g transform="translate(200.855625 35.472)scale(0.12 -0.12)">
     <defs>
      <path id="DejaVuSans-4f" d="M 2522 4238 
Q 1834 4238 1429 3725 
Q 1025 3213 1025 2328 
Q 1025 1447 1429 934 
Q 1834 422 2522 422 
Q 3209 422 3611 934 
Q 4013 1447 4013 2328 
Q 4013 3213 3611 3725 
Q 3209 4238 2522 4238 
z
M 2522 4750 
Q 3503 4750 4090 4092 
Q 4678 3434 4678 2328 
Q 4678 1225 4090 567 
Q 3503 -91 2522 -91 
Q 1538 -91 948 565 
Q 359 1222 359 2328 
Q 359 3434 948 4092 
Q 1538 4750 2522 4750 
z
" transform="scale(0.015625)"/>
      <path id="DejaVuSans-43" d="M 4122 4306 
L 4122 3641 
Q 3803 3938 3442 4084 
Q 3081 4231 2675 4231 
Q 1875 4231 1450 3742 
Q 1025 3253 1025 2328 
Q 1025 1406 1450 917 
Q 1875 428 2675 428 
Q 3081 428 3442 575 
Q 3803 722 4122 1019 
L 4122 359 
Q 3791 134 3420 21 
Q 3050 -91 2638 -91 
Q 1578 -91 968 557 
Q 359 1206 359 2328 
Q 359 3453 968 4101 
Q 1578 4750 2638 4750 
Q 3056 4750 3426 4639 
Q 3797 4528 4122 4306 
z
" transform="scale(0.015625)"/>
      <path id="DejaVuSans-55" d="M 556 4666 
L 1191 4666 
L 1191 1831 
Q 1191 1081 1462 751 
Q 1734 422 2344 422 
Q 2950 422 3222 751 
Q 3494 1081 3494 1831 
L 3494 4666 
L 4128 4666 
L 4128 1753 
Q 4128 841 3676 375 
Q 3225 -91 2344 -91 
Q 1459 -91 1007 375 
Q 556 841 556 1753 
L 556 4666 
z
" transform="scale(0.015625)"/>
      <path id="DejaVuSans-56" d="M 1831 0 
L 50 4666 
L 709 4666 
L 2188 738 
L 3669 4666 
L 4325 4666 
L 2547 0 
L 1831 0 
z
" transform="scale(0.015625)"/>
      <path id="DejaVuSans-45" d="M 628 4666 
L 3578 4666 
L 3578 4134 
L 1259 4134 
L 1259 2753 
L 3481 2753 
L 3481 2222 
L 1259 2222 
L 1259 531 
L 3634 531 
L 3634 0 
L 628 0 
L 628 4666 
z
" transform="scale(0.015625)"/>
     </defs>
     <use xlink:href="#DejaVuSans-52"/>
     <use xlink:href="#DejaVuSans-4f" x="69.482422"/>
     <use xlink:href="#DejaVuSans-43" x="148.193359"/>
     <use xlink:href="#DejaVuSans-20" x="218.017578"/>
     <use xlink:href="#DejaVuSans-43" x="249.804688"/>
     <use xlink:href="#DejaVuSans-55" x="319.628906"/>
     <use xlink:href="#DejaVuSans-52" x="392.822266"/>
     <use xlink:href="#DejaVuSans-56" x="456.804688"/>
     <use xlink:href="#DejaVuSans-45" x="525.212891"/>
    </g>
   </g>
   <g id="legend_1">
    <g id="patch_7">
     <path d="M 234.97 302.584 
L 407.72 302.584 
Q 409.72 302.584 409.72 300.584 
L 409.72 286.905875 
Q 409.72 284.905875 407.72 284.905875 
L 234.97 284.905875 
Q 232.97 284.905875 232.97 286.905875 
L 232.97 300.584 
Q 232.97 302.584 234.97 302.584 
z
" style="fill: #ffffff; opacity: 0.8; stroke: #cccccc; stroke-linejoin: miter"/>
    </g>
    <g id="line2d_15">
     <path d="M 236.97 293.004312 
L 246.97 293.004312 
L 256.97 293.004312 
" style="fill: none; stroke: #ff8c00; stroke-width: 1.5; stroke-linecap: square"/>
    </g>
    <g id="text_16">
     <!-- ROC curve (ROC AUC=0.33) -->
     <g transform="translate(264.97 296.504312)scale(0.1 -0.1)">
      <defs>
       <path id="DejaVuSans-63" d="M 3122 3366 
L 3122 2828 
Q 2878 2963 2633 3030 
Q 2388 3097 2138 3097 
Q 1578 3097 1268 2742 
Q 959 2388 959 1747 
Q 959 1106 1268 751 
Q 1578 397 2138 397 
Q 2388 397 2633 464 
Q 2878 531 3122 666 
L 3122 134 
Q 2881 22 2623 -34 
Q 2366 -91 2075 -91 
Q 1284 -91 818 406 
Q 353 903 353 1747 
Q 353 2603 823 3093 
Q 1294 3584 2113 3584 
Q 2378 3584 2631 3529 
Q 2884 3475 3122 3366 
z
" transform="scale(0.015625)"/>
       <path id="DejaVuSans-28" d="M 1984 4856 
Q 1566 4138 1362 3434 
Q 1159 2731 1159 2009 
Q 1159 1288 1364 580 
Q 1569 -128 1984 -844 
L 1484 -844 
Q 1016 -109 783 600 
Q 550 1309 550 2009 
Q 550 2706 781 3412 
Q 1013 4119 1484 4856 
L 1984 4856 
z
" transform="scale(0.015625)"/>
       <path id="DejaVuSans-41" d="M 2188 4044 
L 1331 1722 
L 3047 1722 
L 2188 4044 
z
M 1831 4666 
L 2547 4666 
L 4325 0 
L 3669 0 
L 3244 1197 
L 1141 1197 
L 716 0 
L 50 0 
L 1831 4666 
z
" transform="scale(0.015625)"/>
       <path id="DejaVuSans-3d" d="M 678 2906 
L 4684 2906 
L 4684 2381 
L 678 2381 
L 678 2906 
z
M 678 1631 
L 4684 1631 
L 4684 1100 
L 678 1100 
L 678 1631 
z
" transform="scale(0.015625)"/>
       <path id="DejaVuSans-33" d="M 2597 2516 
Q 3050 2419 3304 2112 
Q 3559 1806 3559 1356 
Q 3559 666 3084 287 
Q 2609 -91 1734 -91 
Q 1441 -91 1130 -33 
Q 819 25 488 141 
L 488 750 
Q 750 597 1062 519 
Q 1375 441 1716 441 
Q 2309 441 2620 675 
Q 2931 909 2931 1356 
Q 2931 1769 2642 2001 
Q 2353 2234 1838 2234 
L 1294 2234 
L 1294 2753 
L 1863 2753 
Q 2328 2753 2575 2939 
Q 2822 3125 2822 3475 
Q 2822 3834 2567 4026 
Q 2313 4219 1838 4219 
Q 1578 4219 1281 4162 
Q 984 4106 628 3988 
L 628 4550 
Q 988 4650 1302 4700 
Q 1616 4750 1894 4750 
Q 2613 4750 3031 4423 
Q 3450 4097 3450 3541 
Q 3450 3153 3228 2886 
Q 3006 2619 2597 2516 
z
" transform="scale(0.015625)"/>
       <path id="DejaVuSans-29" d="M 513 4856 
L 1013 4856 
Q 1481 4119 1714 3412 
Q 1947 2706 1947 2009 
Q 1947 1309 1714 600 
Q 1481 -109 1013 -844 
L 513 -844 
Q 928 -128 1133 580 
Q 1338 1288 1338 2009 
Q 1338 2731 1133 3434 
Q 928 4138 513 4856 
z
" transform="scale(0.015625)"/>
      </defs>
      <use xlink:href="#DejaVuSans-52"/>
      <use xlink:href="#DejaVuSans-4f" x="69.482422"/>
      <use xlink:href="#DejaVuSans-43" x="148.193359"/>
      <use xlink:href="#DejaVuSans-20" x="218.017578"/>
      <use xlink:href="#DejaVuSans-63" x="249.804688"/>
      <use xlink:href="#DejaVuSans-75" x="304.785156"/>
      <use xlink:href="#DejaVuSans-72" x="368.164062"/>
      <use xlink:href="#DejaVuSans-76" x="409.277344"/>
      <use xlink:href="#DejaVuSans-65" x="468.457031"/>
      <use xlink:href="#DejaVuSans-20" x="529.980469"/>
      <use xlink:href="#DejaVuSans-28" x="561.767578"/>
      <use xlink:href="#DejaVuSans-52" x="600.78125"/>
      <use xlink:href="#DejaVuSans-4f" x="670.263672"/>
      <use xlink:href="#DejaVuSans-43" x="748.974609"/>
      <use xlink:href="#DejaVuSans-20" x="818.798828"/>
      <use xlink:href="#DejaVuSans-41" x="850.585938"/>
      <use xlink:href="#DejaVuSans-55" x="918.994141"/>
      <use xlink:href="#DejaVuSans-43" x="992.1875"/>
      <use xlink:href="#DejaVuSans-3d" x="1062.011719"/>
      <use xlink:href="#DejaVuSans-30" x="1145.800781"/>
      <use xlink:href="#DejaVuSans-2e" x="1209.423828"/>
      <use xlink:href="#DejaVuSans-33" x="1241.210938"/>
      <use xlink:href="#DejaVuSans-33" x="1304.833984"/>
      <use xlink:href="#DejaVuSans-29" x="1368.457031"/>
     </g>
    </g>
   </g>
  </g>
 </g>
 <defs>
  <clipPath id="p730d9882a1">
   <rect x="57.6" y="41.472" width="357.12" height="266.112"/>
  </clipPath>
 </defs>
</svg>
