<?xml version="1.0" encoding="utf-8" standalone="no"?>
<!DOCTYPE svg PUBLIC "-//W3C//DTD SVG 1.1//EN"
  "http://www.w3.org/Graphics/SVG/1.1/DTD/svg11.dtd">
<svg xmlns:xlink="http://www.w3.org/1999/xlink" width="460.8pt" height="345.6pt" viewBox="0 0 460.8 345.6" xmlns="http://www.w3.org/2000/svg" version="1.1">
 <metadata>
  <rdf:RDF xmlns:dc="http://purl.org/dc/elements/1.1/" xmlns:cc="http://creativecommons.org/ns#" xmlns:rdf="http://www.w3.org/1999/02/22-rdf-syntax-ns#">
   <cc:Work>
    <dc:type rdf:resource="http://purl.org/dc/dcmitype/StillImage"/>
    <dc:date>2022-05-24T22:26:00.110034</dc:date>
    <dc:format>image/svg+xml</dc:format>
    <dc:creator>
     <cc:Agent>
      <dc:title>Matplotlib v3.5.1, https://matplotlib.org/</dc:title>
     </cc:Agent>
    </dc:creator>
   </cc:Work>
  </rdf:RDF>
 </metadata>
 <defs>
  <style type="text/css">*{stroke-linejoin: round; stroke-linecap: butt}</style>
 </defs>
 <g id="figure_1">
  <g id="patch_1">
   <path d="M 0 345.6 
L 460.8 345.6 
L 460.8 0 
L 0 0 
z
" style="fill: #ffffff"/>
  </g>
  <g id="axes_1">
   <g id="patch_2">
    <path d="M 57.6 307.584 
L 414.72 307.584 
L 414.72 41.472 
L 57.6 41.472 
z
" style="fill: #ffffff"/>
   </g>
   <g id="matplotlib.axis_1">
    <g id="xtick_1">
     <g id="line2d_1">
      <defs>
       <path id="m897bcb53d7" d="M 0 0 
L 0 3.5 
" style="stroke: #000000; stroke-width: 0.8"/>
      </defs>
      <g>
       <use xlink:href="#m897bcb53d7" x="74.605714" y="307.584" style="stroke: #000000; stroke-width: 0.8"/>
      </g>
     </g>
     <g id="text_1">
      <!-- 0.0 -->
      <g transform="translate(66.654152 322.182437)scale(0.1 -0.1)">
       <defs>
        <path id="DejaVuSans-30" d="M 2034 4250 
Q 1547 4250 1301 3770 
Q 1056 3291 1056 2328 
Q 1056 1369 1301 889 
Q 1547 409 2034 409 
Q 2525 409 2770 889 
Q 3016 1369 3016 2328 
Q 3016 3291 2770 3770 
Q 2525 4250 2034 4250 
z
M 2034 4750 
Q 2819 4750 3233 4129 
Q 3647 3509 3647 2328 
Q 3647 1150 3233 529 
Q 2819 -91 2034 -91 
Q 1250 -91 836 529 
Q 422 1150 422 2328 
Q 422 3509 836 4129 
Q 1250 4750 2034 4750 
z
" transform="scale(0.015625)"/>
        <path id="DejaVuSans-2e" d="M 684 794 
L 1344 794 
L 1344 0 
L 684 0 
L 684 794 
z
" transform="scale(0.015625)"/>
       </defs>
       <use xlink:href="#DejaVuSans-30"/>
       <use xlink:href="#DejaVuSans-2e" x="63.623047"/>
       <use xlink:href="#DejaVuSans-30" x="95.410156"/>
      </g>
     </g>
    </g>
    <g id="xtick_2">
     <g id="line2d_2">
      <g>
       <use xlink:href="#m897bcb53d7" x="142.628571" y="307.584" style="stroke: #000000; stroke-width: 0.8"/>
      </g>
     </g>
     <g id="text_2">
      <!-- 0.2 -->
      <g transform="translate(134.677009 322.182437)scale(0.1 -0.1)">
       <defs>
        <path id="DejaVuSans-32" d="M 1228 531 
L 3431 531 
L 3431 0 
L 469 0 
L 469 531 
Q 828 903 1448 1529 
Q 2069 2156 2228 2338 
Q 2531 2678 2651 2914 
Q 2772 3150 2772 3378 
Q 2772 3750 2511 3984 
Q 2250 4219 1831 4219 
Q 1534 4219 1204 4116 
Q 875 4013 500 3803 
L 500 4441 
Q 881 4594 1212 4672 
Q 1544 4750 1819 4750 
Q 2544 4750 2975 4387 
Q 3406 4025 3406 3419 
Q 3406 3131 3298 2873 
Q 3191 2616 2906 2266 
Q 2828 2175 2409 1742 
Q 1991 1309 1228 531 
z
" transform="scale(0.015625)"/>
       </defs>
       <use xlink:href="#DejaVuSans-30"/>
       <use xlink:href="#DejaVuSans-2e" x="63.623047"/>
       <use xlink:href="#DejaVuSans-32" x="95.410156"/>
      </g>
     </g>
    </g>
    <g id="xtick_3">
     <g id="line2d_3">
      <g>
       <use xlink:href="#m897bcb53d7" x="210.651429" y="307.584" style="stroke: #000000; stroke-width: 0.8"/>
      </g>
     </g>
     <g id="text_3">
      <!-- 0.4 -->
      <g transform="translate(202.699866 322.182437)scale(0.1 -0.1)">
       <defs>
        <path id="DejaVuSans-34" d="M 2419 4116 
L 825 1625 
L 2419 1625 
L 2419 4116 
z
M 2253 4666 
L 3047 4666 
L 3047 1625 
L 3713 1625 
L 3713 1100 
L 3047 1100 
L 3047 0 
L 2419 0 
L 2419 1100 
L 313 1100 
L 313 1709 
L 2253 4666 
z
" transform="scale(0.015625)"/>
       </defs>
       <use xlink:href="#DejaVuSans-30"/>
       <use xlink:href="#DejaVuSans-2e" x="63.623047"/>
       <use xlink:href="#DejaVuSans-34" x="95.410156"/>
      </g>
     </g>
    </g>
    <g id="xtick_4">
     <g id="line2d_4">
      <g>
       <use xlink:href="#m897bcb53d7" x="278.674286" y="307.584" style="stroke: #000000; stroke-width: 0.8"/>
      </g>
     </g>
     <g id="text_4">
      <!-- 0.6 -->
      <g transform="translate(270.722723 322.182437)scale(0.1 -0.1)">
       <defs>
        <path id="DejaVuSans-36" d="M 2113 2584 
Q 1688 2584 1439 2293 
Q 1191 2003 1191 1497 
Q 1191 994 1439 701 
Q 1688 409 2113 409 
Q 2538 409 2786 701 
Q 3034 994 3034 1497 
Q 3034 2003 2786 2293 
Q 2538 2584 2113 2584 
z
M 3366 4563 
L 3366 3988 
Q 3128 4100 2886 4159 
Q 2644 4219 2406 4219 
Q 1781 4219 1451 3797 
Q 1122 3375 1075 2522 
Q 1259 2794 1537 2939 
Q 1816 3084 2150 3084 
Q 2853 3084 3261 2657 
Q 3669 2231 3669 1497 
Q 3669 778 3244 343 
Q 2819 -91 2113 -91 
Q 1303 -91 875 529 
Q 447 1150 447 2328 
Q 447 3434 972 4092 
Q 1497 4750 2381 4750 
Q 2619 4750 2861 4703 
Q 3103 4656 3366 4563 
z
" transform="scale(0.015625)"/>
       </defs>
       <use xlink:href="#DejaVuSans-30"/>
       <use xlink:href="#DejaVuSans-2e" x="63.623047"/>
       <use xlink:href="#DejaVuSans-36" x="95.410156"/>
      </g>
     </g>
    </g>
    <g id="xtick_5">
     <g id="line2d_5">
      <g>
       <use xlink:href="#m897bcb53d7" x="346.697143" y="307.584" style="stroke: #000000; stroke-width: 0.8"/>
      </g>
     </g>
     <g id="text_5">
      <!-- 0.8 -->
      <g transform="translate(338.74558 322.182437)scale(0.1 -0.1)">
       <defs>
        <path id="DejaVuSans-38" d="M 2034 2216 
Q 1584 2216 1326 1975 
Q 1069 1734 1069 1313 
Q 1069 891 1326 650 
Q 1584 409 2034 409 
Q 2484 409 2743 651 
Q 3003 894 3003 1313 
Q 3003 1734 2745 1975 
Q 2488 2216 2034 2216 
z
M 1403 2484 
Q 997 2584 770 2862 
Q 544 3141 544 3541 
Q 544 4100 942 4425 
Q 1341 4750 2034 4750 
Q 2731 4750 3128 4425 
Q 3525 4100 3525 3541 
Q 3525 3141 3298 2862 
Q 3072 2584 2669 2484 
Q 3125 2378 3379 2068 
Q 3634 1759 3634 1313 
Q 3634 634 3220 271 
Q 2806 -91 2034 -91 
Q 1263 -91 848 271 
Q 434 634 434 1313 
Q 434 1759 690 2068 
Q 947 2378 1403 2484 
z
M 1172 3481 
Q 1172 3119 1398 2916 
Q 1625 2713 2034 2713 
Q 2441 2713 2670 2916 
Q 2900 3119 2900 3481 
Q 2900 3844 2670 4047 
Q 2441 4250 2034 4250 
Q 1625 4250 1398 4047 
Q 1172 3844 1172 3481 
z
" transform="scale(0.015625)"/>
       </defs>
       <use xlink:href="#DejaVuSans-30"/>
       <use xlink:href="#DejaVuSans-2e" x="63.623047"/>
       <use xlink:href="#DejaVuSans-38" x="95.410156"/>
      </g>
     </g>
    </g>
    <g id="xtick_6">
     <g id="line2d_6">
      <g>
       <use xlink:href="#m897bcb53d7" x="414.72" y="307.584" style="stroke: #000000; stroke-width: 0.8"/>
      </g>
     </g>
     <g id="text_6">
      <!-- 1.0 -->
      <g transform="translate(406.768438 322.182437)scale(0.1 -0.1)">
       <defs>
        <path id="DejaVuSans-31" d="M 794 531 
L 1825 531 
L 1825 4091 
L 703 3866 
L 703 4441 
L 1819 4666 
L 2450 4666 
L 2450 531 
L 3481 531 
L 3481 0 
L 794 0 
L 794 531 
z
" transform="scale(0.015625)"/>
       </defs>
       <use xlink:href="#DejaVuSans-31"/>
       <use xlink:href="#DejaVuSans-2e" x="63.623047"/>
       <use xlink:href="#DejaVuSans-30" x="95.410156"/>
      </g>
     </g>
    </g>
    <g id="text_7">
     <!-- False Positive Rate -->
     <g transform="translate(189.693594 335.860562)scale(0.1 -0.1)">
      <defs>
       <path id="DejaVuSans-46" d="M 628 4666 
L 3309 4666 
L 3309 4134 
L 1259 4134 
L 1259 2759 
L 3109 2759 
L 3109 2228 
L 1259 2228 
L 1259 0 
L 628 0 
L 628 4666 
z
" transform="scale(0.015625)"/>
       <path id="DejaVuSans-61" d="M 2194 1759 
Q 1497 1759 1228 1600 
Q 959 1441 959 1056 
Q 959 750 1161 570 
Q 1363 391 1709 391 
Q 2188 391 2477 730 
Q 2766 1069 2766 1631 
L 2766 1759 
L 2194 1759 
z
M 3341 1997 
L 3341 0 
L 2766 0 
L 2766 531 
Q 2569 213 2275 61 
Q 1981 -91 1556 -91 
Q 1019 -91 701 211 
Q 384 513 384 1019 
Q 384 1609 779 1909 
Q 1175 2209 1959 2209 
L 2766 2209 
L 2766 2266 
Q 2766 2663 2505 2880 
Q 2244 3097 1772 3097 
Q 1472 3097 1187 3025 
Q 903 2953 641 2809 
L 641 3341 
Q 956 3463 1253 3523 
Q 1550 3584 1831 3584 
Q 2591 3584 2966 3190 
Q 3341 2797 3341 1997 
z
" transform="scale(0.015625)"/>
       <path id="DejaVuSans-6c" d="M 603 4863 
L 1178 4863 
L 1178 0 
L 603 0 
L 603 4863 
z
" transform="scale(0.015625)"/>
       <path id="DejaVuSans-73" d="M 2834 3397 
L 2834 2853 
Q 2591 2978 2328 3040 
Q 2066 3103 1784 3103 
Q 1356 3103 1142 2972 
Q 928 2841 928 2578 
Q 928 2378 1081 2264 
Q 1234 2150 1697 2047 
L 1894 2003 
Q 2506 1872 2764 1633 
Q 3022 1394 3022 966 
Q 3022 478 2636 193 
Q 2250 -91 1575 -91 
Q 1294 -91 989 -36 
Q 684 19 347 128 
L 347 722 
Q 666 556 975 473 
Q 1284 391 1588 391 
Q 1994 391 2212 530 
Q 2431 669 2431 922 
Q 2431 1156 2273 1281 
Q 2116 1406 1581 1522 
L 1381 1569 
Q 847 1681 609 1914 
Q 372 2147 372 2553 
Q 372 3047 722 3315 
Q 1072 3584 1716 3584 
Q 2034 3584 2315 3537 
Q 2597 3491 2834 3397 
z
" transform="scale(0.015625)"/>
       <path id="DejaVuSans-65" d="M 3597 1894 
L 3597 1613 
L 953 1613 
Q 991 1019 1311 708 
Q 1631 397 2203 397 
Q 2534 397 2845 478 
Q 3156 559 3463 722 
L 3463 178 
Q 3153 47 2828 -22 
Q 2503 -91 2169 -91 
Q 1331 -91 842 396 
Q 353 884 353 1716 
Q 353 2575 817 3079 
Q 1281 3584 2069 3584 
Q 2775 3584 3186 3129 
Q 3597 2675 3597 1894 
z
M 3022 2063 
Q 3016 2534 2758 2815 
Q 2500 3097 2075 3097 
Q 1594 3097 1305 2825 
Q 1016 2553 972 2059 
L 3022 2063 
z
" transform="scale(0.015625)"/>
       <path id="DejaVuSans-20" transform="scale(0.015625)"/>
       <path id="DejaVuSans-50" d="M 1259 4147 
L 1259 2394 
L 2053 2394 
Q 2494 2394 2734 2622 
Q 2975 2850 2975 3272 
Q 2975 3691 2734 3919 
Q 2494 4147 2053 4147 
L 1259 4147 
z
M 628 4666 
L 2053 4666 
Q 2838 4666 3239 4311 
Q 3641 3956 3641 3272 
Q 3641 2581 3239 2228 
Q 2838 1875 2053 1875 
L 1259 1875 
L 1259 0 
L 628 0 
L 628 4666 
z
" transform="scale(0.015625)"/>
       <path id="DejaVuSans-6f" d="M 1959 3097 
Q 1497 3097 1228 2736 
Q 959 2375 959 1747 
Q 959 1119 1226 758 
Q 1494 397 1959 397 
Q 2419 397 2687 759 
Q 2956 1122 2956 1747 
Q 2956 2369 2687 2733 
Q 2419 3097 1959 3097 
z
M 1959 3584 
Q 2709 3584 3137 3096 
Q 3566 2609 3566 1747 
Q 3566 888 3137 398 
Q 2709 -91 1959 -91 
Q 1206 -91 779 398 
Q 353 888 353 1747 
Q 353 2609 779 3096 
Q 1206 3584 1959 3584 
z
" transform="scale(0.015625)"/>
       <path id="DejaVuSans-69" d="M 603 3500 
L 1178 3500 
L 1178 0 
L 603 0 
L 603 3500 
z
M 603 4863 
L 1178 4863 
L 1178 4134 
L 603 4134 
L 603 4863 
z
" transform="scale(0.015625)"/>
       <path id="DejaVuSans-74" d="M 1172 4494 
L 1172 3500 
L 2356 3500 
L 2356 3053 
L 1172 3053 
L 1172 1153 
Q 1172 725 1289 603 
Q 1406 481 1766 481 
L 2356 481 
L 2356 0 
L 1766 0 
Q 1100 0 847 248 
Q 594 497 594 1153 
L 594 3053 
L 172 3053 
L 172 3500 
L 594 3500 
L 594 4494 
L 1172 4494 
z
" transform="scale(0.015625)"/>
       <path id="DejaVuSans-76" d="M 191 3500 
L 800 3500 
L 1894 563 
L 2988 3500 
L 3597 3500 
L 2284 0 
L 1503 0 
L 191 3500 
z
" transform="scale(0.015625)"/>
       <path id="DejaVuSans-52" d="M 2841 2188 
Q 3044 2119 3236 1894 
Q 3428 1669 3622 1275 
L 4263 0 
L 3584 0 
L 2988 1197 
Q 2756 1666 2539 1819 
Q 2322 1972 1947 1972 
L 1259 1972 
L 1259 0 
L 628 0 
L 628 4666 
L 2053 4666 
Q 2853 4666 3247 4331 
Q 3641 3997 3641 3322 
Q 3641 2881 3436 2590 
Q 3231 2300 2841 2188 
z
M 1259 4147 
L 1259 2491 
L 2053 2491 
Q 2509 2491 2742 2702 
Q 2975 2913 2975 3322 
Q 2975 3731 2742 3939 
Q 2509 4147 2053 4147 
L 1259 4147 
z
" transform="scale(0.015625)"/>
      </defs>
      <use xlink:href="#DejaVuSans-46"/>
      <use xlink:href="#DejaVuSans-61" x="48.394531"/>
      <use xlink:href="#DejaVuSans-6c" x="109.673828"/>
      <use xlink:href="#DejaVuSans-73" x="137.457031"/>
      <use xlink:href="#DejaVuSans-65" x="189.556641"/>
      <use xlink:href="#DejaVuSans-20" x="251.080078"/>
      <use xlink:href="#DejaVuSans-50" x="282.867188"/>
      <use xlink:href="#DejaVuSans-6f" x="339.544922"/>
      <use xlink:href="#DejaVuSans-73" x="400.726562"/>
      <use xlink:href="#DejaVuSans-69" x="452.826172"/>
      <use xlink:href="#DejaVuSans-74" x="480.609375"/>
      <use xlink:href="#DejaVuSans-69" x="519.818359"/>
      <use xlink:href="#DejaVuSans-76" x="547.601562"/>
      <use xlink:href="#DejaVuSans-65" x="606.78125"/>
      <use xlink:href="#DejaVuSans-20" x="668.304688"/>
      <use xlink:href="#DejaVuSans-52" x="700.091797"/>
      <use xlink:href="#DejaVuSans-61" x="767.324219"/>
      <use xlink:href="#DejaVuSans-74" x="828.603516"/>
      <use xlink:href="#DejaVuSans-65" x="867.8125"/>
     </g>
    </g>
   </g>
   <g id="matplotlib.axis_2">
    <g id="ytick_1">
     <g id="line2d_7">
      <defs>
       <path id="m898e87d675" d="M 0 0 
L -3.5 0 
" style="stroke: #000000; stroke-width: 0.8"/>
      </defs>
      <g>
       <use xlink:href="#m898e87d675" x="57.6" y="307.584" style="stroke: #000000; stroke-width: 0.8"/>
      </g>
     </g>
     <g id="text_8">
      <!-- 0.0 -->
      <g transform="translate(34.696875 311.383219)scale(0.1 -0.1)">
       <use xlink:href="#DejaVuSans-30"/>
       <use xlink:href="#DejaVuSans-2e" x="63.623047"/>
       <use xlink:href="#DejaVuSans-30" x="95.410156"/>
      </g>
     </g>
    </g>
    <g id="ytick_2">
     <g id="line2d_8">
      <g>
       <use xlink:href="#m898e87d675" x="57.6" y="256.896" style="stroke: #000000; stroke-width: 0.8"/>
      </g>
     </g>
     <g id="text_9">
      <!-- 0.2 -->
      <g transform="translate(34.696875 260.695219)scale(0.1 -0.1)">
       <use xlink:href="#DejaVuSans-30"/>
       <use xlink:href="#DejaVuSans-2e" x="63.623047"/>
       <use xlink:href="#DejaVuSans-32" x="95.410156"/>
      </g>
     </g>
    </g>
    <g id="ytick_3">
     <g id="line2d_9">
      <g>
       <use xlink:href="#m898e87d675" x="57.6" y="206.208" style="stroke: #000000; stroke-width: 0.8"/>
      </g>
     </g>
     <g id="text_10">
      <!-- 0.4 -->
      <g transform="translate(34.696875 210.007219)scale(0.1 -0.1)">
       <use xlink:href="#DejaVuSans-30"/>
       <use xlink:href="#DejaVuSans-2e" x="63.623047"/>
       <use xlink:href="#DejaVuSans-34" x="95.410156"/>
      </g>
     </g>
    </g>
    <g id="ytick_4">
     <g id="line2d_10">
      <g>
       <use xlink:href="#m898e87d675" x="57.6" y="155.52" style="stroke: #000000; stroke-width: 0.8"/>
      </g>
     </g>
     <g id="text_11">
      <!-- 0.6 -->
      <g transform="translate(34.696875 159.319219)scale(0.1 -0.1)">
       <use xlink:href="#DejaVuSans-30"/>
       <use xlink:href="#DejaVuSans-2e" x="63.623047"/>
       <use xlink:href="#DejaVuSans-36" x="95.410156"/>
      </g>
     </g>
    </g>
    <g id="ytick_5">
     <g id="line2d_11">
      <g>
       <use xlink:href="#m898e87d675" x="57.6" y="104.832" style="stroke: #000000; stroke-width: 0.8"/>
      </g>
     </g>
     <g id="text_12">
      <!-- 0.8 -->
      <g transform="translate(34.696875 108.631219)scale(0.1 -0.1)">
       <use xlink:href="#DejaVuSans-30"/>
       <use xlink:href="#DejaVuSans-2e" x="63.623047"/>
       <use xlink:href="#DejaVuSans-38" x="95.410156"/>
      </g>
     </g>
    </g>
    <g id="ytick_6">
     <g id="line2d_12">
      <g>
       <use xlink:href="#m898e87d675" x="57.6" y="54.144" style="stroke: #000000; stroke-width: 0.8"/>
      </g>
     </g>
     <g id="text_13">
      <!-- 1.0 -->
      <g transform="translate(34.696875 57.943219)scale(0.1 -0.1)">
       <use xlink:href="#DejaVuSans-31"/>
       <use xlink:href="#DejaVuSans-2e" x="63.623047"/>
       <use xlink:href="#DejaVuSans-30" x="95.410156"/>
      </g>
     </g>
    </g>
    <g id="text_14">
     <!-- True Positive Rate -->
     <g transform="translate(28.617187 219.057687)rotate(-90)scale(0.1 -0.1)">
      <defs>
       <path id="DejaVuSans-54" d="M -19 4666 
L 3928 4666 
L 3928 4134 
L 2272 4134 
L 2272 0 
L 1638 0 
L 1638 4134 
L -19 4134 
L -19 4666 
z
" transform="scale(0.015625)"/>
       <path id="DejaVuSans-72" d="M 2631 2963 
Q 2534 3019 2420 3045 
Q 2306 3072 2169 3072 
Q 1681 3072 1420 2755 
Q 1159 2438 1159 1844 
L 1159 0 
L 581 0 
L 581 3500 
L 1159 3500 
L 1159 2956 
Q 1341 3275 1631 3429 
Q 1922 3584 2338 3584 
Q 2397 3584 2469 3576 
Q 2541 3569 2628 3553 
L 2631 2963 
z
" transform="scale(0.015625)"/>
       <path id="DejaVuSans-75" d="M 544 1381 
L 544 3500 
L 1119 3500 
L 1119 1403 
Q 1119 906 1312 657 
Q 1506 409 1894 409 
Q 2359 409 2629 706 
Q 2900 1003 2900 1516 
L 2900 3500 
L 3475 3500 
L 3475 0 
L 2900 0 
L 2900 538 
Q 2691 219 2414 64 
Q 2138 -91 1772 -91 
Q 1169 -91 856 284 
Q 544 659 544 1381 
z
M 1991 3584 
L 1991 3584 
z
" transform="scale(0.015625)"/>
      </defs>
      <use xlink:href="#DejaVuSans-54"/>
      <use xlink:href="#DejaVuSans-72" x="46.333984"/>
      <use xlink:href="#DejaVuSans-75" x="87.447266"/>
      <use xlink:href="#DejaVuSans-65" x="150.826172"/>
      <use xlink:href="#DejaVuSans-20" x="212.349609"/>
      <use xlink:href="#DejaVuSans-50" x="244.136719"/>
      <use xlink:href="#DejaVuSans-6f" x="300.814453"/>
      <use xlink:href="#DejaVuSans-73" x="361.996094"/>
      <use xlink:href="#DejaVuSans-69" x="414.095703"/>
      <use xlink:href="#DejaVuSans-74" x="441.878906"/>
      <use xlink:href="#DejaVuSans-69" x="481.087891"/>
      <use xlink:href="#DejaVuSans-76" x="508.871094"/>
      <use xlink:href="#DejaVuSans-65" x="568.050781"/>
      <use xlink:href="#DejaVuSans-20" x="629.574219"/>
      <use xlink:href="#DejaVuSans-52" x="661.361328"/>
      <use xlink:href="#DejaVuSans-61" x="728.59375"/>
      <use xlink:href="#DejaVuSans-74" x="789.873047"/>
      <use xlink:href="#DejaVuSans-65" x="829.082031"/>
     </g>
    </g>
   </g>
   <g id="line2d_13">
    <path d="M 74.605714 307.584 
L 74.734601 307.474303 
L 74.845242 307.395652 
L 75.008424 307.285955 
L 75.118982 307.209374 
L 75.119189 307.209374 
L 75.316086 307.099676 
L 75.414742 307.029304 
L 75.427059 307.029304 
L 75.626817 306.919607 
L 75.73555 306.814049 
L 75.737333 306.814049 
L 75.882476 306.704352 
L 75.994527 306.615352 
L 76.144024 306.505655 
L 76.25255 306.408377 
L 76.254996 306.408377 
L 76.382308 306.298679 
L 76.492492 306.226238 
L 76.493239 306.226238 
L 76.624572 306.11654 
L 76.733513 305.990285 
L 76.734425 305.990285 
L 76.855889 305.880588 
L 76.964415 305.737774 
L 76.966903 305.737774 
L 77.080239 305.628077 
L 77.191336 305.522519 
L 77.2812 305.412822 
L 77.387984 305.282427 
L 77.392297 305.282427 
L 77.504223 305.17273 
L 77.613204 305.044405 
L 77.615278 305.044405 
L 77.709704 304.934708 
L 77.814829 304.798104 
L 77.820303 304.798104 
L 77.900712 304.688406 
L 78.010897 304.555942 
L 78.011809 304.555942 
L 78.099393 304.446244 
L 78.210365 304.295152 
L 78.28418 304.185455 
L 78.394323 304.05506 
L 78.395236 304.05506 
L 78.47523 303.947432 
L 78.585664 303.829456 
L 78.586327 303.829456 
L 78.668768 303.719759 
L 78.782726 303.576945 
L 78.87877 303.467248 
L 78.989618 303.293388 
L 79.073262 303.183691 
L 79.181829 303.02225 
L 79.184317 303.02225 
L 79.25581 302.912552 
L 79.366077 302.771809 
L 79.366285 302.771809 
L 79.446528 302.662112 
L 79.55381 302.494461 
L 79.5575 302.494461 
L 79.635753 302.384764 
L 79.740671 302.227462 
L 79.746809 302.227462 
L 79.838456 302.117765 
L 79.948889 301.981161 
L 79.949345 301.981161 
L 80.002675 301.871463 
L 80.113482 301.716231 
L 80.202765 301.606534 
L 80.313364 301.46993 
L 80.313862 301.46993 
L 80.385936 301.360233 
L 80.500516 301.184303 
L 80.573171 301.074606 
L 80.684226 300.896607 
L 80.684267 300.896607 
L 80.772556 300.786909 
L 80.883238 300.617189 
L 80.958422 300.507492 
L 81.066409 300.375027 
L 81.069477 300.375027 
L 81.130354 300.26533 
L 81.240912 300.151493 
L 81.241119 300.151493 
L 81.323975 300.041796 
L 81.438887 299.849308 
L 81.501548 299.739611 
L 81.611939 299.499519 
L 81.612561 299.499519 
L 81.686253 299.389822 
L 81.79681 299.261496 
L 81.797308 299.261496 
L 81.85748 299.151799 
L 81.967416 298.946893 
L 81.968577 298.946893 
L 82.032357 298.837196 
L 82.143329 298.673685 
L 82.143454 298.673685 
L 82.198442 298.563987 
L 82.308585 298.396337 
L 82.309456 298.396337 
L 82.372116 298.28664 
L 82.486987 298.092082 
L 82.559807 297.98135 
L 82.669328 297.816804 
L 82.670613 297.816804 
L 82.733606 297.707107 
L 82.84831 297.524968 
L 82.900976 297.415271 
L 83.011119 297.208295 
L 83.01199 297.208295 
L 83.095779 297.098598 
L 83.208929 296.887482 
L 83.275072 296.777785 
L 83.384842 296.585297 
L 83.386169 296.585297 
L 83.444102 296.4756 
L 83.554701 296.310019 
L 83.555199 296.310019 
L 83.613463 296.200322 
L 83.728417 295.991276 
L 83.800034 295.881579 
L 83.910302 295.726347 
L 83.911131 295.726347 
L 83.96952 295.61665 
L 84.084515 295.420023 
L 84.141494 295.310325 
L 84.252549 295.117838 
L 84.307206 295.00814 
L 84.417432 294.803234 
L 84.418261 294.803234 
L 84.482228 294.693537 
L 84.59517 294.503119 
L 84.667202 294.393422 
L 84.773364 294.176097 
L 84.778258 294.176097 
L 84.839176 294.0664 
L 84.955788 293.791122 
L 85.024255 293.681424 
L 85.13448 293.439263 
L 85.13531 293.439263 
L 85.192621 293.329565 
L 85.302805 293.103961 
L 85.303634 293.103961 
L 85.366585 292.994264 
L 85.482285 292.764521 
L 85.538517 292.654824 
L 85.65372 292.447848 
L 85.714306 292.33815 
L 85.823247 292.129105 
L 85.825279 292.129105 
L 85.884746 292.019407 
L 86.000446 291.785525 
L 86.056388 291.675827 
L 86.171341 291.466782 
L 86.224961 291.359154 
L 86.335685 291.13355 
L 86.335975 291.13355 
L 86.387729 291.023853 
L 86.498162 290.767203 
L 86.498826 290.767203 
L 86.548465 290.657506 
L 86.663377 290.458809 
L 86.716458 290.349111 
L 86.827264 290.144205 
L 86.827513 290.144205 
L 86.87823 290.034508 
L 86.988871 289.769579 
L 86.989327 289.769579 
L 87.030506 289.659881 
L 87.140359 289.457045 
L 87.141478 289.457045 
L 87.204885 289.347348 
L 87.315152 289.086558 
L 87.31594 289.086558 
L 87.367943 288.976861 
L 87.478998 288.72228 
L 87.541119 288.612583 
L 87.651553 288.3787 
L 87.652175 288.3787 
L 87.706085 288.269003 
L 87.81714 288.057887 
L 87.879676 287.94819 
L 87.99465 287.753633 
L 88.048913 287.643935 
L 88.156443 287.422471 
L 88.16001 287.422471 
L 88.207451 287.312774 
L 88.335674 287.031287 
L 88.396676 286.921589 
L 88.51644 286.706334 
L 88.561102 286.596637 
L 88.676844 286.360684 
L 88.731127 286.250987 
L 88.841104 285.994337 
L 88.842224 285.994337 
L 88.911851 285.88464 
L 89.022409 285.648687 
L 89.022782 285.648687 
L 89.072504 285.53899 
L 89.182771 285.296828 
L 89.183435 285.296828 
L 89.230876 285.187131 
L 89.341558 284.971876 
L 89.341973 284.971876 
L 89.408573 284.862179 
L 89.524024 284.642784 
L 89.571962 284.532052 
L 89.682644 284.255739 
L 89.683038 284.255739 
L 89.731371 284.146042 
L 89.841099 283.949414 
L 89.842468 283.949414 
L 89.91027 283.839717 
L 90.01892 283.638951 
L 90.021325 283.638951 
L 90.067979 283.529253 
L 90.175841 283.303649 
L 90.179034 283.303649 
L 90.232861 283.193952 
L 90.343875 282.970418 
L 90.402181 282.860721 
L 90.512324 282.618559 
L 90.513278 282.618559 
L 90.564244 282.508862 
L 90.674594 282.272909 
L 90.67534 282.272909 
L 90.729665 282.163212 
L 90.839352 281.958306 
L 90.840472 281.958306 
L 90.891355 281.848608 
L 91.01058 281.57954 
L 91.069881 281.469842 
L 91.178448 281.223541 
L 91.180438 281.223541 
L 91.234805 281.113844 
L 91.356767 280.844775 
L 91.417271 280.735078 
L 91.527704 280.511544 
L 91.52816 280.511544 
L 91.575269 280.401846 
L 91.684292 280.149336 
L 91.686366 280.149336 
L 91.733475 280.039639 
L 91.850627 279.735384 
L 91.897611 279.625687 
L 92.007008 279.404222 
L 92.008459 279.404222 
L 92.045906 279.294525 
L 92.161689 279.046154 
L 92.204444 278.936457 
L 92.320932 278.667388 
L 92.381021 278.557691 
L 92.508581 278.282413 
L 92.562491 278.172715 
L 92.671515 277.942972 
L 92.673484 277.942972 
L 92.720905 277.833275 
L 92.831545 277.591113 
L 92.831877 277.591113 
L 92.886119 277.481416 
L 92.996677 277.204068 
L 92.99676 277.204068 
L 93.064935 277.094371 
L 93.181962 276.798395 
L 93.235707 276.688698 
L 93.346057 276.436187 
L 93.346264 276.436187 
L 93.403534 276.32649 
L 93.514257 276.069839 
L 93.514465 276.069839 
L 93.569536 275.960142 
L 93.680094 275.713841 
L 93.680633 275.713841 
L 93.75337 275.604144 
L 93.863098 275.314377 
L 93.864425 275.314377 
L 93.913235 275.20468 
L 94.034326 274.956309 
L 94.079984 274.846612 
L 94.195559 274.614798 
L 94.239807 274.505101 
L 94.361105 274.250521 
L 94.41854 274.140823 
L 94.534448 273.886243 
L 94.588938 273.776546 
L 94.698998 273.511617 
L 94.699911 273.511617 
L 94.735782 273.401919 
L 94.852622 273.116292 
L 94.901245 273.006595 
L 95.010559 272.770643 
L 95.012342 272.770643 
L 95.069964 272.65991 
L 95.186431 272.389807 
L 95.234867 272.28011 
L 95.365247 271.961367 
L 95.413186 271.851669 
L 95.523453 271.603298 
L 95.524199 271.603298 
L 95.567452 271.495671 
L 95.567452 271.493601 
L 95.677388 271.23902 
L 95.678549 271.23902 
L 95.732915 271.129323 
L 95.842643 270.843696 
L 95.843929 270.843696 
L 95.880878 270.733999 
L 95.991809 270.531163 
L 95.991933 270.531163 
L 96.047129 270.421465 
L 96.162954 270.185513 
L 96.2111 270.075816 
L 96.321823 269.798468 
L 96.322196 269.798468 
L 96.371794 269.68877 
L 96.482725 269.446609 
L 96.482766 269.446609 
L 96.523945 269.336911 
L 96.64064 269.057494 
L 96.688786 268.947797 
L 96.805108 268.684937 
L 96.856779 268.57524 
L 96.967586 268.345496 
L 96.967876 268.345496 
L 97.089672 268.080567 
L 97.138274 267.97087 
L 97.254554 267.699731 
L 97.311326 267.590034 
L 97.424869 267.314756 
L 97.470859 267.205059 
L 97.587388 266.931851 
L 97.629397 266.822153 
L 97.755215 266.579991 
L 97.809457 266.470294 
L 97.919144 266.199156 
L 97.920554 266.199156 
L 97.958893 266.089458 
L 98.072374 265.843157 
L 98.124045 265.73346 
L 98.239993 265.485089 
L 98.291996 265.375391 
L 98.414455 265.089765 
L 98.467951 264.980067 
L 98.575979 264.723417 
L 98.579048 264.723417 
L 98.623461 264.61372 
L 98.739617 264.359139 
L 98.785192 264.249442 
L 98.914784 263.943118 
L 98.969068 263.83342 
L 99.076764 263.591259 
L 99.079999 263.591259 
L 99.125574 263.481561 
L 99.125574 263.480526 
L 99.247826 263.204213 
L 99.289959 263.094516 
L 99.400724 262.844075 
L 99.400973 262.844075 
L 99.453141 262.734378 
L 99.569504 262.471519 
L 99.61595 262.361821 
L 99.725471 262.119659 
L 99.727026 262.119659 
L 99.773907 262.009962 
L 99.884672 261.77401 
L 99.885004 261.77401 
L 99.931782 261.664312 
L 100.040639 261.393174 
L 100.042795 261.393174 
L 100.172097 261.093059 
L 100.231689 260.983361 
L 100.348467 260.697735 
L 100.400179 260.588037 
L 100.400179 260.587002 
L 100.520855 260.350015 
L 100.554819 260.240318 
L 100.671079 259.983667 
L 100.713066 259.87397 
L 100.829057 259.61939 
L 100.882635 259.509692 
L 100.992612 259.290298 
L 100.99369 259.290298 
L 101.041131 259.180601 
L 101.150777 258.915671 
L 101.152187 258.915671 
L 101.196518 258.805974 
L 101.313047 258.534836 
L 101.362395 258.425138 
L 101.479008 258.145721 
L 101.523587 258.036024 
L 101.640241 257.756606 
L 101.681793 257.646909 
L 101.792143 257.384049 
L 101.792807 257.384049 
L 101.850657 257.274352 
L 101.96109 257.042539 
L 101.961546 257.042539 
L 102.010895 256.932842 
L 102.120706 256.715517 
L 102.121992 256.715517 
L 102.17416 256.60582 
L 102.284469 256.338821 
L 102.285257 256.338821 
L 102.330749 256.229123 
L 102.43944 255.957985 
L 102.441804 255.957985 
L 102.494595 255.848288 
L 102.601503 255.575079 
L 102.60565 255.575079 
L 102.652262 255.465382 
L 102.763317 255.212871 
L 102.803335 255.103174 
L 102.914183 254.825826 
L 102.914307 254.825826 
L 102.959965 254.716129 
L 103.082134 254.440851 
L 103.135049 254.331154 
L 103.245897 254.045527 
L 103.299559 253.93583 
L 103.423096 253.627436 
L 103.475016 253.517738 
L 103.585366 253.285925 
L 103.586071 253.285925 
L 103.62584 253.176228 
L 103.62584 253.175193 
L 103.747802 252.90095 
L 103.799266 252.791253 
L 103.915836 252.513905 
L 103.958716 252.404208 
L 104.069356 252.168255 
L 104.06973 252.168255 
L 104.121483 252.058558 
L 104.226816 251.810187 
L 104.232539 251.810187 
L 104.282053 251.700489 
L 104.389915 251.497653 
L 104.393067 251.497653 
L 104.443287 251.387956 
L 104.553098 251.135445 
L 104.5543 251.135445 
L 104.605515 251.025748 
L 104.716322 250.758749 
L 104.716612 250.758749 
L 104.839403 250.466913 
L 104.887756 250.357215 
L 104.998272 250.14817 
L 104.998853 250.14817 
L 105.056371 250.038472 
L 105.166473 249.80252 
L 105.167468 249.80252 
L 105.225235 249.692822 
L 105.341225 249.444451 
L 105.391196 249.334754 
L 105.507642 249.063616 
L 105.549236 248.955988 
L 105.549236 248.953918 
L 105.668543 248.751082 
L 105.721832 248.641385 
L 105.832306 248.407502 
L 105.832763 248.407502 
L 105.88771 248.297804 
L 106.016306 248.010108 
L 106.078096 247.900411 
L 106.188654 247.639621 
L 106.188944 247.639621 
L 106.240324 247.529924 
L 106.348933 247.285692 
L 106.351297 247.285692 
L 106.411676 247.175995 
L 106.521446 246.892438 
L 106.522732 246.892438 
L 106.57772 246.78274 
L 106.688361 246.52609 
L 106.688775 246.52609 
L 106.810447 246.263231 
L 106.858137 246.153533 
L 106.968984 245.847209 
L 106.969192 245.847209 
L 107.018043 245.737512 
L 107.127481 245.516047 
L 107.12914 245.516047 
L 107.176207 245.40635 
L 107.291949 245.174537 
L 107.33574 245.06484 
L 107.446796 244.797841 
L 107.446816 244.797841 
L 107.489675 244.688144 
L 107.599984 244.425284 
L 107.600772 244.425284 
L 107.660944 244.315587 
L 107.781828 244.073425 
L 107.833581 243.965797 
L 107.94445 243.748473 
L 107.944471 243.748473 
L 108.012439 243.638775 
L 108.12872 243.380056 
L 108.180556 243.270358 
L 108.290948 243.001289 
L 108.29157 243.001289 
L 108.33503 242.890557 
L 108.445588 242.645291 
L 108.446003 242.645291 
L 108.490582 242.535594 
L 108.600974 242.270664 
L 108.601513 242.270664 
L 108.658202 242.160967 
L 108.779666 241.902247 
L 108.84581 241.79255 
L 108.954874 241.571086 
L 108.956823 241.571086 
L 109.023009 241.461388 
L 109.13394 241.177831 
L 109.134105 241.177831 
L 109.17657 241.068134 
L 109.285759 240.817693 
L 109.287418 240.817693 
L 109.340457 240.707996 
L 109.459516 240.432718 
L 109.504303 240.32302 
L 109.614529 240.084998 
L 109.615317 240.084998 
L 109.665951 239.975301 
L 109.776841 239.751767 
L 109.777007 239.751767 
L 109.826397 239.64207 
L 109.936249 239.412326 
L 109.93741 239.412326 
L 109.976848 239.302629 
L 110.097234 239.072886 
L 110.145463 238.963188 
L 110.2673 238.69205 
L 110.318473 238.582353 
L 110.42845 238.371237 
L 110.429529 238.371237 
L 110.474523 238.26154 
L 110.590306 238.017308 
L 110.6573 237.907611 
L 110.770408 237.704775 
L 110.814407 237.595077 
L 110.934627 237.369473 
L 110.975308 237.259776 
L 111.09756 236.982428 
L 111.150185 236.872731 
L 111.258669 236.653337 
L 111.26124 236.653337 
L 111.3188 236.543639 
L 111.429772 236.340803 
L 111.429855 236.340803 
L 111.469873 236.231106 
L 111.580597 235.976525 
L 111.580928 235.976525 
L 111.628701 235.866828 
L 111.628701 235.865793 
L 111.776706 235.564643 
L 111.841398 235.454946 
L 111.956849 235.237621 
L 112.002631 235.127924 
L 112.118393 234.896111 
L 112.170873 234.786413 
L 112.281389 234.542182 
L 112.281887 234.542182 
L 112.343262 234.434554 
L 112.343262 234.432485 
L 112.459501 234.175834 
L 112.512872 234.066137 
L 112.62148 233.788789 
L 112.623885 233.788789 
L 112.67904 233.679092 
L 112.789805 233.476256 
L 112.790137 233.476256 
L 112.844876 233.366558 
L 112.955392 233.140954 
L 112.955973 233.140954 
L 113.004202 233.031257 
L 113.119197 232.830491 
L 113.18109 232.720793 
L 113.294737 232.466213 
L 113.369341 232.358585 
L 113.369341 232.356516 
L 113.491717 232.077098 
L 113.556036 231.967401 
L 113.666801 231.779053 
L 113.667091 231.779053 
L 113.715279 231.669355 
L 113.825712 231.45824 
L 113.826334 231.45824 
L 113.879457 231.348543 
L 113.989558 231.129148 
L 113.990553 231.129148 
L 114.043427 231.019451 
L 114.159417 230.775219 
L 114.210507 230.665522 
L 114.331515 230.419221 
L 114.384845 230.309523 
L 114.501333 230.038385 
L 114.570794 229.928688 
L 114.680439 229.698944 
L 114.681766 229.698944 
L 114.727466 229.589247 
L 114.848764 229.332597 
L 114.898818 229.222899 
L 115.009707 229.034551 
L 115.066271 228.924854 
L 115.177327 228.732366 
L 115.228915 228.622669 
L 115.349466 228.384647 
L 115.407731 228.277019 
L 115.523638 228.032788 
L 115.566517 227.92309 
L 115.676785 227.660231 
L 115.677573 227.660231 
L 115.730073 227.549499 
L 115.852449 227.269046 
L 115.903996 227.159349 
L 116.013766 226.921327 
L 116.014968 226.921327 
L 116.070931 226.811629 
L 116.186693 226.579816 
L 116.259928 226.470119 
L 116.375379 226.250725 
L 116.444841 226.141027 
L 116.558011 225.934051 
L 116.604996 225.824354 
L 116.714766 225.617378 
L 116.716051 225.617378 
L 116.762538 225.507681 
L 116.873511 225.269659 
L 116.873594 225.269659 
L 116.928955 225.159961 
L 117.044655 224.930218 
L 117.092884 224.820521 
L 117.202488 224.632173 
L 117.203856 224.632173 
L 117.259508 224.522475 
L 117.369983 224.334127 
L 117.370605 224.334127 
L 117.42717 224.22443 
L 117.538225 224.015384 
L 117.538266 224.015384 
L 117.595328 223.905687 
L 117.710696 223.682153 
L 117.759091 223.572456 
L 117.874832 223.338573 
L 117.936912 223.228875 
L 118.051617 223.040527 
L 118.117346 222.93083 
L 118.233543 222.67211 
L 118.286168 222.562413 
L 118.395689 222.357507 
L 118.397099 222.357507 
L 118.463989 222.247809 
L 118.58027 221.98495 
L 118.64546 221.875253 
L 118.761118 221.64344 
L 118.808849 221.533742 
L 118.924549 221.303999 
L 118.985302 221.194302 
L 119.094449 220.960419 
L 119.096274 220.960419 
L 119.144586 220.850722 
L 119.255019 220.627188 
L 119.255392 220.627188 
L 119.307312 220.51749 
L 119.415921 220.337421 
L 119.418285 220.337421 
L 119.478084 220.229794 
L 119.593244 220.024888 
L 119.650348 219.91519 
L 119.774466 219.699935 
L 119.826759 219.590238 
L 119.937648 219.385332 
L 119.937856 219.385332 
L 119.986333 219.275635 
L 120.105765 219.066589 
L 120.16432 218.956892 
L 120.280062 218.723009 
L 120.335879 218.613311 
L 120.451828 218.36908 
L 120.504577 218.259383 
L 120.617955 218.029639 
L 120.683311 217.919942 
L 120.798845 217.694338 
L 120.85657 217.584641 
L 120.981352 217.354898 
L 121.035884 217.2452 
L 121.157307 216.98855 
L 121.209144 216.878853 
L 121.324553 216.663598 
L 121.387213 216.553901 
L 121.507972 216.313808 
L 121.561634 216.204111 
L 121.671487 215.984717 
L 121.672689 215.984717 
L 121.74609 215.875019 
L 121.854284 215.692881 
L 121.857145 215.692881 
L 121.908111 215.583183 
L 122.028331 215.35758 
L 122.081495 215.247882 
L 122.189316 215.080232 
L 122.192468 215.080232 
L 122.240862 214.970534 
L 122.349222 214.747 
L 122.351938 214.747 
L 122.418642 214.637303 
L 122.529448 214.442746 
L 122.529739 214.442746 
L 122.599034 214.333049 
L 122.709509 214.126073 
L 122.710048 214.126073 
L 122.773745 214.018445 
L 122.773745 214.016375 
L 122.899812 213.768004 
L 122.957869 213.658307 
L 123.067598 213.453401 
L 123.068883 213.453401 
L 123.139506 213.342669 
L 123.282534 213.082914 
L 123.352078 212.973216 
L 123.459235 212.762101 
L 123.463175 212.762101 
L 123.524716 212.652404 
L 123.653727 212.356428 
L 123.714273 212.246731 
L 123.824498 211.99836 
L 123.825328 211.99836 
L 123.880441 211.888662 
L 123.995187 211.706523 
L 124.053742 211.596826 
L 124.053742 211.595791 
L 124.173402 211.379501 
L 124.236912 211.271874 
L 124.236912 211.270839 
L 124.351161 211.029712 
L 124.411872 210.920015 
L 124.527696 210.684062 
L 124.582726 210.574365 
L 124.697223 210.402575 
L 124.779831 210.292878 
L 124.890264 210.050716 
L 124.890844 210.050716 
L 124.966609 209.941019 
L 125.076586 209.775438 
L 125.077706 209.775438 
L 125.145633 209.66574 
L 125.260586 209.473253 
L 125.317855 209.363556 
L 125.438697 209.121394 
L 125.492608 209.011696 
L 125.60781 208.80472 
L 125.685068 208.695023 
L 125.795376 208.46735 
L 125.796081 208.46735 
L 125.859613 208.357652 
L 125.98344 208.148607 
L 126.055722 208.038909 
L 126.166735 207.844352 
L 126.166777 207.844352 
L 126.219028 207.734655 
L 126.328632 207.529749 
L 126.330104 207.529749 
L 126.403692 207.420051 
L 126.514726 207.204796 
L 126.514789 207.204796 
L 126.573219 207.095099 
L 126.679962 206.883984 
L 126.684109 206.883984 
L 126.749796 206.774286 
L 126.86562 206.536264 
L 126.921065 206.426567 
L 127.035853 206.240288 
L 127.116054 206.130591 
L 127.230966 205.938103 
L 127.28778 205.828406 
L 127.3973 205.656616 
L 127.398876 205.656616 
L 127.441756 205.546919 
L 127.556999 205.333734 
L 127.612154 205.224036 
L 127.722214 205.002572 
L 127.723167 205.002572 
L 127.789726 204.892875 
L 127.904928 204.683829 
L 127.963939 204.576201 
L 128.077026 204.377505 
L 128.147317 204.267807 
L 128.266086 204.077389 
L 128.322609 203.967692 
L 128.437852 203.760716 
L 128.495205 203.651019 
L 128.610614 203.433694 
L 128.684388 203.323997 
L 128.799425 203.12323 
L 128.872784 203.013533 
L 128.98189 202.787929 
L 128.983798 202.787929 
L 129.055416 202.678232 
L 129.170203 202.491954 
L 129.238524 202.382256 
L 129.351383 202.202187 
L 129.424494 202.09249 
L 129.537498 201.902072 
L 129.640052 201.792375 
L 129.750942 201.597817 
L 129.751149 201.597817 
L 129.819076 201.48812 
L 129.926109 201.310121 
L 129.930173 201.310121 
L 130.046992 201.167307 
L 130.106998 201.05761 
L 130.221993 200.858913 
L 130.274908 200.751286 
L 130.385134 200.573286 
L 130.385881 200.573286 
L 130.445762 200.463589 
L 130.553583 200.291799 
L 130.556859 200.291799 
L 130.616492 200.182102 
L 130.731487 199.985475 
L 130.800285 199.874742 
L 130.919758 199.666732 
L 130.97512 199.557034 
L 131.079582 199.391454 
L 131.086134 199.391454 
L 131.139049 199.283826 
L 131.249399 199.116176 
L 131.250125 199.116176 
L 131.31434 199.006478 
L 131.424276 198.795363 
L 131.425437 198.795363 
L 131.494567 198.685666 
L 131.604378 198.484899 
L 131.605663 198.484899 
L 131.666167 198.377271 
L 131.776518 198.145458 
L 131.777223 198.145458 
L 131.89624 197.940552 
L 131.951975 197.830855 
L 132.061911 197.601111 
L 132.063072 197.601111 
L 132.178357 197.392066 
L 132.242261 197.282368 
L 132.356676 197.106439 
L 132.422322 196.996742 
L 132.532755 196.814603 
L 132.533294 196.814603 
L 132.596991 196.704906 
L 132.708046 196.510348 
L 132.780452 196.400651 
L 132.899594 196.201954 
L 132.976893 196.091222 
L 133.08716 195.934955 
L 133.08799 195.934955 
L 133.152184 195.825258 
L 133.2672 195.62863 
L 133.343898 195.518933 
L 133.453419 195.357492 
L 133.454911 195.357492 
L 133.524953 195.247795 
L 133.63379 195.059447 
L 133.636009 195.059447 
L 133.691287 194.951819 
L 133.802135 194.782099 
L 133.802301 194.782099 
L 133.867222 194.672402 
L 133.982527 194.531658 
L 134.054767 194.421961 
L 134.169596 194.233612 
L 134.233998 194.123915 
L 134.357619 193.919009 
L 134.440889 193.809312 
L 134.549954 193.610615 
L 134.551945 193.610615 
L 134.620328 193.500918 
L 134.749091 193.329128 
L 134.809719 193.21943 
L 134.92264 193.037291 
L 134.989365 192.927594 
L 135.099756 192.70613 
L 135.100461 192.70613 
L 135.172743 192.596433 
L 135.290392 192.434991 
L 135.359811 192.325294 
L 135.474806 192.130737 
L 135.543065 192.021039 
L 135.662041 191.824412 
L 135.715329 191.714715 
L 135.823938 191.540855 
L 135.826426 191.540855 
L 135.906462 191.431158 
L 136.01561 191.257298 
L 136.017517 191.257298 
L 136.109911 191.147601 
L 136.225113 190.928206 
L 136.29105 190.818509 
L 136.401442 190.611533 
L 136.402147 190.611533 
L 136.505696 190.501836 
L 136.622474 190.311418 
L 136.702095 190.201721 
L 136.82385 190.027861 
L 136.898246 189.918164 
L 137.008928 189.740164 
L 137.00926 189.740164 
L 137.086393 189.630467 
L 137.200931 189.458677 
L 137.280014 189.34898 
L 137.390779 189.17305 
L 137.39111 189.17305 
L 137.467041 189.063353 
L 137.577018 188.889493 
L 137.578055 188.889493 
L 137.642291 188.779796 
L 137.752931 188.630773 
L 137.753388 188.630773 
L 137.809911 188.521076 
L 137.91968 188.336867 
L 137.920841 188.336867 
L 138.014479 188.22717 
L 138.13105 188.045031 
L 138.213326 187.935334 
L 138.323883 187.759404 
L 138.324422 187.759404 
L 138.410803 187.649707 
L 138.5253 187.477917 
L 138.607451 187.36822 
L 138.607451 187.367185 
L 138.726013 187.181941 
L 138.800948 187.072244 
L 138.911754 186.900454 
L 138.912003 186.900454 
L 138.977069 186.790757 
L 139.087751 186.664501 
L 139.088041 186.664501 
L 139.164428 186.554804 
L 139.274363 186.403712 
L 139.275524 186.403712 
L 139.36854 186.294014 
L 139.475656 186.116015 
L 139.479596 186.116015 
L 139.545574 186.006318 
L 139.660403 185.81797 
L 139.784147 185.610994 
L 139.849379 185.501297 
L 139.960102 185.346065 
L 139.960476 185.346065 
L 140.030725 185.236367 
L 140.141117 185.045949 
L 140.14178 185.045949 
L 140.211034 184.938322 
L 140.329927 184.745834 
L 140.420372 184.636137 
L 140.538684 184.458138 
L 140.612417 184.34844 
L 140.722394 184.166302 
L 140.723514 184.166302 
L 140.796459 184.056604 
L 140.907514 183.905512 
L 140.976353 183.795815 
L 141.10466 183.584699 
L 141.164956 183.475002 
L 141.274602 183.288723 
L 141.276053 183.288723 
L 141.348397 183.179026 
L 141.464905 183.001027 
L 141.555723 182.89133 
L 141.677685 182.71333 
L 141.764854 182.603633 
L 141.875784 182.438052 
L 141.875909 182.438052 
L 141.950595 182.328355 
L 142.08081 182.142077 
L 142.175609 182.032379 
L 142.290313 181.846101 
L 142.356208 181.736404 
L 142.467222 181.577032 
L 142.467305 181.577032 
L 142.568449 181.467335 
L 142.679172 181.318312 
L 142.679463 181.318312 
L 142.752117 181.208615 
L 142.869517 181.051313 
L 142.942752 180.941616 
L 143.059572 180.751198 
L 143.157067 180.641501 
L 143.271398 180.47799 
L 143.354254 180.368293 
L 143.470493 180.242037 
L 143.554717 180.13234 
L 143.668344 180.004015 
L 143.736188 179.894318 
L 143.846662 179.751504 
L 143.847243 179.751504 
L 143.932546 179.641807 
L 144.042564 179.486575 
L 144.043559 179.486575 
L 144.146818 179.376878 
L 144.257708 179.227855 
L 144.257832 179.227855 
L 144.338076 179.120227 
L 144.338076 179.117123 
L 144.455019 178.971205 
L 144.538456 178.861508 
L 144.648889 178.681438 
L 144.649511 178.681438 
L 144.729672 178.571741 
L 144.843837 178.41237 
L 144.923915 178.302672 
L 145.037997 178.14951 
L 145.129603 178.039813 
L 145.240617 177.870093 
L 145.2407 177.870093 
L 145.333675 177.760395 
L 145.443112 177.617582 
L 145.444771 177.617582 
L 145.534221 177.507885 
L 145.647889 177.37542 
L 145.725312 177.265723 
L 145.836077 177.1167 
L 145.836326 177.1167 
L 145.935894 177.008038 
L 146.045208 176.85591 
L 146.046991 176.85591 
L 146.139468 176.746213 
L 146.253053 176.611679 
L 146.35005 176.501982 
L 146.463883 176.363308 
L 146.530525 176.25361 
L 146.639175 176.096309 
L 146.641622 176.096309 
L 146.735633 175.985576 
L 146.846522 175.837589 
L 146.84673 175.837589 
L 146.934935 175.729961 
L 146.934935 175.727891 
L 147.049018 175.574729 
L 147.134279 175.465032 
L 147.244463 175.334637 
L 147.245251 175.334637 
L 147.326946 175.22494 
L 147.443973 175.077987 
L 147.541011 174.96829 
L 147.647982 174.846174 
L 147.651776 174.846174 
L 147.720947 174.736477 
L 147.834574 174.606082 
L 147.913739 174.496384 
L 148.019776 174.328734 
L 148.024794 174.328734 
L 148.115944 174.219037 
L 148.233303 174.063805 
L 148.338884 173.954107 
L 148.459519 173.798875 
L 148.558755 173.691248 
L 148.672216 173.571202 
L 148.790404 173.461505 
L 148.900215 173.33111 
L 148.901417 173.33111 
L 149.021264 173.221412 
L 149.135678 173.055832 
L 149.222557 172.946134 
L 149.333239 172.763996 
L 149.333612 172.763996 
L 149.424886 172.654298 
L 149.534905 172.505276 
L 149.535983 172.505276 
L 149.637459 172.395578 
L 149.748556 172.261044 
L 149.841945 172.153416 
L 149.955903 172.008533 
L 150.046845 171.900906 
L 150.161094 171.741534 
L 150.25158 171.631837 
L 150.359401 171.505582 
L 150.362677 171.505582 
L 150.446736 171.395884 
L 150.556754 171.290327 
L 150.557832 171.290327 
L 150.646494 171.180629 
L 150.75983 171.066793 
L 150.862135 170.957095 
L 150.975762 170.83084 
L 151.072551 170.723213 
L 151.184892 170.590748 
L 151.2884 170.481051 
L 151.405053 170.344447 
L 151.500433 170.234749 
L 151.608544 170.131261 
L 151.61153 170.131261 
L 151.713213 170.021564 
L 151.83024 169.874611 
L 151.907456 169.764914 
L 152.016479 169.640728 
L 152.018553 169.640728 
L 152.118784 169.531031 
L 152.235314 169.396497 
L 152.311576 169.286799 
L 152.42176 169.189521 
L 152.422631 169.189521 
L 152.539948 169.036358 
L 152.631181 168.926661 
L 152.745305 168.773499 
L 152.841431 168.663802 
L 152.955141 168.531337 
L 153.045503 168.42164 
L 153.159212 168.287105 
L 153.264047 168.177408 
L 153.383437 168.040804 
L 153.482632 167.931107 
L 153.593688 167.796572 
L 153.593729 167.796572 
L 153.717557 167.686875 
L 153.830934 167.568899 
L 153.944975 167.459202 
L 154.060883 167.339156 
L 154.159144 167.229458 
L 154.274326 167.094924 
L 154.403877 166.984192 
L 154.507136 166.879669 
L 154.514932 166.879669 
L 154.626236 166.769972 
L 154.72456 166.649926 
L 154.737333 166.649926 
L 154.820106 166.540228 
L 154.936427 166.411903 
L 155.074894 166.302206 
L 155.187981 166.196648 
L 155.313053 166.086951 
L 155.428794 165.973114 
L 155.505679 165.863417 
L 155.615407 165.75372 
L 155.616776 165.75372 
L 155.725716 165.644022 
L 155.846558 165.507418 
L 155.990872 165.397721 
L 156.099895 165.288024 
L 156.101968 165.288024 
L 156.199836 165.178326 
L 156.318107 165.06242 
L 156.421325 164.952723 
L 156.532048 164.834746 
L 156.532214 164.834746 
L 156.622203 164.725049 
L 156.730355 164.602933 
L 156.733217 164.602933 
L 156.845018 164.493236 
L 156.958748 164.360771 
L 157.071483 164.251074 
L 157.181667 164.137237 
L 157.182538 164.137237 
L 157.302468 164.02754 
L 157.415721 163.917843 
L 157.535651 163.808146 
L 157.642808 163.710867 
L 157.646664 163.710867 
L 157.771778 163.60117 
L 157.887436 163.489403 
L 157.999093 163.379705 
L 158.113777 163.259659 
L 158.256763 163.149962 
L 158.366367 163.036125 
L 158.367653 163.036125 
L 158.479703 162.926428 
L 158.592956 162.8188 
L 158.751536 162.709103 
L 158.864706 162.603545 
L 158.998113 162.493848 
L 159.116259 162.380011 
L 159.228683 162.270314 
L 159.34401 162.164756 
L 159.455107 162.055059 
L 159.567945 161.968129 
L 159.673443 161.858432 
L 159.781057 161.752874 
L 159.784498 161.752874 
L 159.878137 161.643177 
L 159.991141 161.545898 
L 160.137611 161.436201 
L 160.250574 161.343062 
L 160.393561 161.233365 
L 160.498561 161.158853 
L 160.504574 161.158853 
L 160.603645 161.049156 
L 160.7164 160.960156 
L 160.821857 160.850459 
L 160.934613 160.767669 
L 161.037706 160.657971 
L 161.15071 160.562762 
L 161.252932 160.453065 
L 161.36096 160.353717 
L 161.364029 160.353717 
L 161.472016 160.244019 
L 161.579961 160.146741 
L 161.583071 160.146741 
L 161.692923 160.037043 
L 161.799293 159.960462 
L 161.803979 159.960462 
L 161.939045 159.850765 
L 162.048358 159.734859 
L 162.0501 159.734859 
L 162.190433 159.625161 
L 162.300078 159.505115 
L 162.301446 159.505115 
L 162.443894 159.395418 
L 162.559221 159.28986 
L 162.736751 159.180163 
L 162.849507 159.095303 
L 162.993613 158.985606 
L 163.102927 158.882118 
L 163.104668 158.882118 
L 163.245084 158.77242 
L 163.36124 158.6917 
L 163.508291 158.582002 
L 163.620963 158.503352 
L 163.742344 158.393654 
L 163.854478 158.333631 
L 163.989295 158.223934 
L 164.104705 158.153562 
L 164.250097 158.043865 
L 164.360488 157.948656 
L 164.361193 157.948656 
L 164.527486 157.838959 
L 164.527486 157.837924 
L 164.642025 157.754099 
L 164.754365 157.644401 
L 164.864674 157.555402 
L 164.865421 157.555402 
L 164.990244 157.445704 
L 165.100138 157.352565 
L 165.101216 157.352565 
L 165.224505 157.242868 
L 165.337841 157.131101 
L 165.459512 157.021404 
L 165.572475 156.928264 
L 165.724689 156.818567 
L 165.836781 156.719219 
L 165.950718 156.62194 
L 166.079813 156.512243 
L 166.193024 156.402546 
L 166.330827 156.292848 
L 166.443956 156.19143 
L 166.580142 156.081733 
L 166.580142 156.080698 
L 166.714378 155.976175 
L 166.877187 155.866478 
L 166.877187 155.865443 
L 166.991374 155.789897 
L 167.193765 155.680199 
L 167.306604 155.593269 
L 167.491433 155.483572 
L 167.604541 155.384224 
L 167.740623 155.274527 
L 167.853296 155.193806 
L 167.997568 155.084109 
L 168.115611 154.9889 
L 168.26712 154.879202 
L 168.37324 154.794342 
L 168.378071 154.794342 
L 168.530762 154.684645 
L 168.642501 154.614273 
L 168.79007 154.504576 
L 168.905459 154.421786 
L 169.087634 154.312088 
L 169.202298 154.225158 
L 169.35814 154.115461 
L 169.466665 154.04302 
L 169.469133 154.04302 
L 169.622798 153.933322 
L 169.73037 153.854671 
L 169.733895 153.854671 
L 169.898072 153.744974 
L 169.898072 153.743939 
L 170.012611 153.660114 
L 170.187405 153.550417 
L 170.301653 153.473836 
L 170.483746 153.364138 
L 170.598409 153.295836 
L 170.752924 153.186139 
L 170.866509 153.126116 
L 171.07087 153.016419 
L 171.184828 152.958465 
L 171.379403 152.847733 
L 171.498296 152.788745 
L 171.662391 152.679048 
L 171.777012 152.590048 
L 171.96292 152.480351 
L 172.067299 152.397561 
L 172.073975 152.397561 
L 172.266518 152.287863 
L 172.379315 152.200933 
L 172.51662 152.091236 
L 172.630869 152.014655 
L 172.792351 151.904958 
L 172.906185 151.838725 
L 173.050789 151.729028 
L 173.163088 151.669005 
L 173.326187 151.559308 
L 173.440021 151.493076 
L 173.625307 151.383378 
L 173.743495 151.308867 
L 173.955196 151.19917 
L 174.070875 151.124658 
L 174.309428 151.014961 
L 174.425543 150.934241 
L 174.613524 150.824543 
L 174.727067 150.743823 
L 174.920066 150.634125 
L 175.032034 150.547195 
L 175.205998 150.437498 
L 175.318381 150.371266 
L 175.528278 150.261569 
L 175.640018 150.197406 
L 175.840357 150.087709 
L 175.952615 150.029756 
L 176.137734 149.919023 
L 176.246467 149.843477 
L 176.248831 149.843477 
L 176.434117 149.73378 
L 176.547494 149.677896 
L 176.714201 149.567164 
L 176.82198 149.528874 
L 176.825298 149.528874 
L 177.008842 149.419176 
L 177.121224 149.350874 
L 177.296225 149.241177 
L 177.406949 149.172875 
L 177.407322 149.172875 
L 177.521363 149.098364 
L 177.720458 148.988666 
L 177.831202 148.912085 
L 177.831492 148.912085 
L 178.028472 148.801353 
L 178.144525 148.719598 
L 178.343039 148.6099 
L 178.462616 148.520901 
L 178.654516 148.411203 
L 178.768723 148.359459 
L 179.027161 148.248727 
L 179.14398 148.18146 
L 179.388153 148.071763 
L 179.500079 148.028298 
L 179.719701 147.918601 
L 179.833659 147.848229 
L 180.048181 147.738532 
L 180.152062 147.682648 
L 180.159153 147.682648 
L 180.345724 147.572951 
L 180.457858 147.519137 
L 180.65405 147.40944 
L 180.766432 147.341138 
L 180.957606 147.23144 
L 181.072228 147.173487 
L 181.249758 147.06379 
L 181.352478 146.987209 
L 181.360814 146.987209 
L 181.589435 146.877512 
L 181.702978 146.817489 
L 181.904022 146.707791 
L 182.01657 146.660187 
L 182.20932 146.55049 
L 182.319049 146.515304 
L 182.320417 146.515304 
L 182.533446 146.405606 
L 182.645538 146.351793 
L 182.808513 146.242095 
L 182.919444 146.171724 
L 182.91961 146.171724 
L 183.121545 146.060991 
L 183.235275 146.016492 
L 183.444157 145.906794 
L 183.552351 145.836422 
L 183.555212 145.836422 
L 183.746137 145.726725 
L 183.861132 145.681191 
L 184.058983 145.571493 
L 184.169582 145.505261 
L 184.17008 145.505261 
L 184.377303 145.395564 
L 184.483008 145.34382 
L 184.488399 145.34382 
L 184.721707 145.234122 
L 184.826915 145.16582 
L 184.832803 145.16582 
L 184.948254 145.095449 
L 185.139802 144.985751 
L 185.252122 144.944356 
L 185.467991 144.834659 
L 185.578383 144.766357 
L 185.579005 144.766357 
L 185.783491 144.656659 
L 185.898113 144.600776 
L 186.116926 144.491079 
L 186.228541 144.437265 
L 186.456209 144.327568 
L 186.570208 144.271684 
L 186.800986 144.161987 
L 186.916147 144.097824 
L 187.191048 143.988127 
L 187.303513 143.917755 
L 187.500617 143.808058 
L 187.614057 143.750105 
L 187.81537 143.640407 
L 187.922693 143.565896 
L 187.926384 143.565896 
L 188.154176 143.455164 
L 188.270083 143.398246 
L 188.493728 143.288548 
L 188.608142 143.236804 
L 188.905105 143.127107 
L 189.019934 143.083642 
L 189.263111 142.973945 
L 189.37539 142.915992 
L 189.566833 142.806294 
L 189.67934 142.735923 
L 189.905349 142.626225 
L 190.019099 142.562063 
L 190.342147 142.452365 
L 190.455441 142.396482 
L 190.664717 142.28782 
L 190.778488 142.232971 
L 191.018016 142.123274 
L 191.130274 142.06532 
L 191.349689 141.955623 
L 191.455851 141.918367 
L 191.460765 141.918367 
L 191.714496 141.80867 
L 191.829159 141.752787 
L 192.045505 141.643089 
L 192.159919 141.562369 
L 192.380412 141.452672 
L 192.380412 141.451637 
L 192.494142 141.386439 
L 192.746256 141.276742 
L 192.859012 141.218789 
L 193.08531 141.109091 
L 193.196905 141.057347 
L 193.444726 140.94765 
L 193.556321 140.895906 
L 193.881524 140.786209 
L 193.993658 140.730325 
L 194.24517 140.619593 
L 194.343743 140.587512 
L 194.356267 140.587512 
L 194.592352 140.477815 
L 194.705979 140.438489 
L 194.912953 140.328792 
L 195.025916 140.283257 
L 195.281243 140.17356 
L 195.394538 140.128025 
L 195.632324 140.018328 
L 195.74566 139.964514 
L 195.972622 139.854817 
L 195.972622 139.853782 
L 196.087451 139.811352 
L 196.359532 139.701655 
L 196.47347 139.631283 
L 196.72239 139.521586 
L 196.831869 139.469842 
L 196.833404 139.469842 
L 197.109466 139.360145 
L 197.220563 139.304261 
L 197.496003 139.194564 
L 197.607722 139.163517 
L 197.852889 139.05382 
L 197.966972 139.006216 
L 198.228312 138.895483 
L 198.344634 138.834426 
L 198.591129 138.724728 
L 198.704755 138.662636 
L 198.939472 138.552938 
L 199.052062 138.515683 
L 199.357733 138.405985 
L 199.470903 138.356311 
L 199.760651 138.246614 
L 199.875355 138.188661 
L 200.148349 138.078963 
L 200.26015 138.041708 
L 200.541065 137.93201 
L 200.655811 137.874057 
L 200.930338 137.76436 
L 201.040979 137.712616 
L 201.041435 137.712616 
L 201.276277 137.601884 
L 201.392764 137.563593 
L 201.687322 137.452861 
L 201.804764 137.406291 
L 202.091069 137.296594 
L 202.202933 137.255199 
L 202.448079 137.145502 
L 202.562245 137.097897 
L 202.885707 136.9882 
L 202.998918 136.936456 
L 203.285804 136.826759 
L 203.381951 136.758457 
L 203.396901 136.758457 
L 203.512145 136.710852 
L 203.742259 136.601155 
L 203.855221 136.572178 
L 204.088114 136.462481 
L 204.201989 136.408667 
L 204.505069 136.30104 
L 204.616933 136.247226 
L 204.893721 136.137529 
L 205.00998 136.067157 
L 205.318886 135.95746 
L 205.419947 135.924343 
L 205.429817 135.924343 
L 205.70534 135.814646 
L 205.8137 135.756693 
L 205.816416 135.756693 
L 206.082256 135.646996 
L 206.195344 135.597321 
L 206.469954 135.487624 
L 206.582129 135.431741 
L 206.837291 135.322043 
L 206.950585 135.26823 
L 207.220075 135.158532 
L 207.333597 135.110928 
L 207.597882 135.000196 
L 207.704189 134.951556 
L 207.708938 134.951556 
L 208.001919 134.841859 
L 208.114011 134.792185 
L 208.381303 134.682488 
L 208.492669 134.645232 
L 208.760313 134.535535 
L 208.873483 134.485861 
L 209.226222 134.375128 
L 209.327325 134.330629 
L 209.337278 134.330629 
L 209.597208 134.220931 
L 209.709383 134.162978 
L 210.092727 134.053281 
L 210.182218 134.020165 
L 210.203824 134.020165 
L 210.470327 133.910467 
L 210.585882 133.864933 
L 210.866921 133.7542 
L 210.985565 133.697282 
L 211.284186 133.587585 
L 211.394661 133.54412 
L 211.395283 133.54412 
L 211.679307 133.436492 
L 211.679307 133.434423 
L 211.791088 133.397167 
L 212.13796 133.28747 
L 212.251026 133.256423 
L 212.619752 133.146726 
L 212.731388 133.11361 
L 213.043653 133.003913 
L 213.155537 132.960448 
L 213.517234 132.85075 
L 213.628974 132.817634 
L 213.937818 132.707937 
L 214.049661 132.670681 
L 214.368893 132.560984 
L 214.481897 132.515449 
L 214.802912 132.405752 
L 214.917824 132.345729 
L 215.24452 132.234997 
L 215.357317 132.190497 
L 215.688576 132.0808 
L 215.801746 132.029056 
L 216.081623 131.919359 
L 216.194047 131.853126 
L 216.499304 131.743429 
L 216.612847 131.681336 
L 216.911095 131.573709 
L 217.022856 131.538523 
L 217.311276 131.428826 
L 217.424819 131.401919 
L 217.702582 131.292221 
L 217.815296 131.248756 
L 218.083188 131.139059 
L 218.194741 131.074897 
L 218.489548 130.965199 
L 218.605704 130.919665 
L 218.902542 130.809967 
L 218.902542 130.808933 
L 219.015153 130.770642 
L 219.309897 130.660945 
L 219.422072 130.607131 
L 219.706511 130.497434 
L 219.818395 130.466387 
L 220.145527 130.355655 
L 220.263238 130.315295 
L 220.621949 130.205598 
L 220.737027 130.160063 
L 221.126799 130.050366 
L 221.240031 129.996552 
L 221.575084 129.886855 
L 221.688959 129.84339 
L 221.953907 129.733692 
L 222.063884 129.688158 
L 222.065004 129.688158 
L 222.403353 129.57846 
L 222.515113 129.541205 
L 222.815518 129.431507 
L 222.919814 129.402531 
L 222.926573 129.402531 
L 223.284331 129.292834 
L 223.396837 129.259717 
L 223.738463 129.15002 
L 223.846905 129.094137 
L 223.849559 129.094137 
L 224.174929 128.984439 
L 224.286523 128.930626 
L 224.591821 128.820928 
L 224.703996 128.762975 
L 224.940911 128.653278 
L 225.05093 128.609813 
L 225.051925 128.609813 
L 225.302276 128.500116 
L 225.411797 128.444232 
L 225.413332 128.444232 
L 225.735052 128.336605 
L 225.846605 128.28693 
L 226.188997 128.177233 
L 226.301649 128.12135 
L 226.597119 128.011652 
L 226.709833 127.970257 
L 226.984402 127.86056 
L 227.097199 127.819165 
L 227.430365 127.709467 
L 227.54536 127.674282 
L 227.799982 127.564584 
L 227.908549 127.539747 
L 227.911079 127.539747 
L 228.30197 127.429015 
L 228.417504 127.376236 
L 228.764852 127.266539 
L 228.877027 127.212725 
L 229.307605 127.103028 
L 229.409952 127.067842 
L 229.418619 127.067842 
L 229.733828 126.958145 
L 229.847247 126.902261 
L 230.201521 126.792564 
L 230.31411 126.74289 
L 230.60506 126.633192 
L 230.719474 126.589727 
L 231.03599 126.48003 
L 231.148352 126.432426 
L 231.434781 126.322728 
L 231.548304 126.262705 
L 231.847278 126.153008 
L 231.955969 126.092985 
L 231.958375 126.092985 
L 232.322767 125.983288 
L 232.435398 125.943962 
L 232.697651 125.834265 
L 232.806301 125.813568 
L 232.808748 125.813568 
L 233.201339 125.70387 
L 233.201339 125.702835 
L 233.314302 125.650057 
L 233.535666 125.540359 
L 233.640542 125.496894 
L 233.646763 125.496894 
L 233.994152 125.387197 
L 234.107405 125.335453 
L 234.445838 125.225756 
L 234.445838 125.224721 
L 234.558469 125.1885 
L 234.870651 125.078803 
L 234.983863 125.027059 
L 235.324327 124.917362 
L 235.437829 124.880106 
L 235.774416 124.769374 
L 235.89165 124.733153 
L 236.201738 124.623456 
L 236.313581 124.5862 
L 236.608097 124.476503 
L 236.720521 124.443387 
L 236.987771 124.333689 
L 237.100879 124.294364 
L 237.414243 124.186736 
L 237.526252 124.151551 
L 237.818591 124.041853 
L 237.931886 124.000458 
L 238.318588 123.890761 
L 238.414922 123.839017 
L 238.429644 123.839017 
L 238.769859 123.72932 
L 238.884522 123.673436 
L 239.189779 123.563739 
L 239.303198 123.538902 
L 239.663526 123.429204 
L 239.775162 123.400228 
L 240.109033 123.290531 
L 240.221954 123.244996 
L 240.490469 123.135299 
L 240.602022 123.108392 
L 240.959447 122.998694 
L 240.959447 122.99766 
L 241.073115 122.967648 
L 241.409225 122.857951 
L 241.520819 122.833114 
L 241.853446 122.723416 
L 241.964086 122.6903 
L 241.964418 122.6903 
L 242.271043 122.580603 
L 242.384421 122.524719 
L 242.659115 122.415022 
L 242.771227 122.363278 
L 243.071943 122.252546 
L 243.186855 122.226674 
L 243.480231 122.116977 
L 243.59224 122.071442 
L 243.964802 121.961745 
L 244.080439 121.926559 
L 244.464695 121.816862 
L 244.582054 121.779606 
L 244.925877 121.669909 
L 245.038882 121.624374 
L 245.387432 121.514677 
L 245.500665 121.473282 
L 245.796218 121.363584 
L 245.908372 121.338747 
L 246.202142 121.22905 
L 246.314939 121.202143 
L 246.639769 121.092446 
L 246.639769 121.091411 
L 246.752234 121.05933 
L 247.14976 120.949632 
L 247.262972 120.910307 
L 247.62413 120.80061 
L 247.737155 120.753005 
L 248.06383 120.643308 
L 248.06383 120.642273 
L 248.180733 120.599843 
L 248.553419 120.490146 
L 248.666465 120.461169 
L 248.958244 120.351472 
L 249.070004 120.318356 
L 249.39865 120.210728 
L 249.39865 120.207624 
L 249.513479 120.148635 
L 249.888985 120.038938 
L 249.888985 120.037903 
L 250.002238 120.014101 
L 250.299366 119.904404 
L 250.415647 119.856799 
L 250.787089 119.746067 
L 250.899305 119.720195 
L 251.250386 119.610498 
L 251.363991 119.562893 
L 251.676028 119.453196 
L 251.788535 119.42008 
L 252.109426 119.310383 
L 252.222969 119.273127 
L 252.465317 119.16343 
L 252.577699 119.132383 
L 252.886024 119.022686 
L 252.998158 118.98957 
L 253.380361 118.879873 
L 253.494755 118.842617 
L 253.86404 118.73292 
L 253.977045 118.670827 
L 254.336212 118.56113 
L 254.447723 118.540432 
L 254.796813 118.430735 
L 254.900694 118.397619 
L 254.90791 118.397619 
L 255.338321 118.287921 
L 255.451865 118.258945 
L 255.853663 118.149248 
L 255.965443 118.109922 
L 256.258487 118.000225 
L 256.370662 117.979527 
L 256.71913 117.86983 
L 256.833524 117.826365 
L 257.166005 117.716668 
L 257.278056 117.664924 
L 257.554906 117.555227 
L 257.668325 117.499343 
L 257.981129 117.389646 
L 258.093346 117.331693 
L 258.417927 117.221995 
L 258.533212 117.166112 
L 258.824328 117.056414 
L 258.936295 117.01295 
L 259.314455 116.903252 
L 259.426382 116.851508 
L 259.716958 116.740776 
L 259.814163 116.723183 
L 259.828013 116.723183 
L 260.034241 116.613486 
L 260.146126 116.572091 
L 260.456193 116.462393 
L 260.569487 116.429277 
L 260.965189 116.31958 
L 261.077799 116.282324 
L 261.438978 116.171592 
L 261.551028 116.125023 
L 261.896262 116.015325 
L 262.00458 115.961512 
L 262.007234 115.961512 
L 262.413386 115.851814 
L 262.525851 115.818698 
L 262.884479 115.707966 
L 262.996239 115.673815 
L 263.34761 115.564118 
L 263.46022 115.514444 
L 263.845368 115.404746 
L 263.957895 115.36956 
L 264.220833 115.259863 
L 264.333671 115.216398 
L 264.651846 115.105666 
L 264.763626 115.071515 
L 265.172474 114.961818 
L 265.284566 114.93905 
L 265.658206 114.829353 
L 265.766275 114.775539 
L 265.769178 114.775539 
L 266.117605 114.665842 
L 266.229655 114.616168 
L 266.538686 114.505436 
L 266.654054 114.475424 
L 266.950146 114.365727 
L 267.055022 114.324332 
L 267.061201 114.324332 
L 267.431523 114.214634 
L 267.54432 114.17117 
L 267.887397 114.060437 
L 268.002226 114.015938 
L 268.291289 113.905205 
L 268.40336 113.854496 
L 268.836965 113.744799 
L 268.948518 113.719962 
L 269.259166 113.610265 
L 269.353778 113.583358 
L 269.370221 113.583358 
L 269.683066 113.473661 
L 269.79124 113.436405 
L 269.794163 113.436405 
L 270.155611 113.326708 
L 270.27185 113.266685 
L 270.553759 113.156987 
L 270.665478 113.117662 
L 270.971212 113.007965 
L 271.0849 112.956221 
L 271.388125 112.846523 
L 271.501669 112.809268 
L 271.876967 112.69957 
L 271.989474 112.664384 
L 272.281751 112.554687 
L 272.393511 112.515362 
L 272.736671 112.405665 
L 272.736671 112.40463 
L 272.851914 112.376688 
L 273.199594 112.266991 
L 273.313138 112.229735 
L 273.679064 112.120038 
L 273.791695 112.070363 
L 274.177901 111.959631 
L 274.288168 111.902713 
L 274.288997 111.902713 
L 274.698363 111.793016 
L 274.809833 111.75576 
L 275.118138 111.646063 
L 275.231723 111.598458 
L 275.511766 111.488761 
L 275.582637 111.461854 
L 275.622821 111.461854 
L 275.951591 111.352157 
L 275.951591 111.351122 
L 276.064305 111.310762 
L 276.368981 111.20003 
L 276.481986 111.15346 
L 276.841941 111.043763 
L 276.954364 111.012716 
L 277.319565 110.903019 
L 277.431305 110.871973 
L 277.753108 110.76124 
L 277.863209 110.72088 
L 277.864163 110.72088 
L 278.223164 110.611183 
L 278.33339 110.575997 
L 278.334261 110.575997 
L 278.644411 110.4663 
L 278.759821 110.416626 
L 279.154112 110.305893 
L 279.268527 110.267603 
L 279.62956 110.157906 
L 279.743228 110.11858 
L 280.132128 110.008883 
L 280.246708 109.969557 
L 280.584436 109.85986 
L 280.584436 109.858825 
L 280.697233 109.818465 
L 281.003194 109.708768 
L 281.114706 109.68807 
L 281.49722 109.578373 
L 281.614164 109.534908 
L 282.010073 109.425211 
L 282.113747 109.396234 
L 282.12117 109.396234 
L 282.501777 109.286537 
L 282.612293 109.251351 
L 282.612873 109.251351 
L 282.966877 109.141654 
L 283.078949 109.108537 
L 283.411078 108.99884 
L 283.525741 108.942957 
L 283.88329 108.833259 
L 283.994926 108.802213 
L 284.301282 108.692516 
L 284.414846 108.644911 
L 284.732253 108.535214 
L 284.834393 108.506237 
L 284.843246 108.506237 
L 285.164448 108.39654 
L 285.258625 108.369633 
L 285.275462 108.369633 
L 285.621691 108.258901 
L 285.73598 108.22268 
L 286.087227 108.112983 
L 286.202387 108.071588 
L 286.533853 107.961891 
L 286.646899 107.914286 
L 287.082204 107.804589 
L 287.198816 107.765263 
L 287.453646 107.655566 
L 287.55338 107.614171 
L 287.564618 107.614171 
L 287.898198 107.504474 
L 288.010332 107.45273 
L 288.326661 107.341998 
L 288.443584 107.299567 
L 288.827073 107.188835 
L 288.939642 107.152615 
L 289.316662 107.042917 
L 289.429417 107.003592 
L 289.72385 106.893895 
L 289.837601 106.852499 
L 290.165376 106.742802 
L 290.277426 106.695198 
L 290.571217 106.5855 
L 290.682749 106.537896 
L 291.123901 106.428199 
L 291.235723 106.393013 
L 291.502642 106.283315 
L 291.502642 106.282281 
L 291.615625 106.254339 
L 291.952917 106.143607 
L 292.060406 106.099107 
L 292.063972 106.099107 
L 292.436451 105.98941 
L 292.544852 105.939735 
L 292.547548 105.939735 
L 292.902029 105.830038 
L 293.013561 105.805201 
L 293.336629 105.695504 
L 293.451624 105.64169 
L 293.884233 105.531993 
L 293.999809 105.486458 
L 294.241327 105.376761 
L 294.352921 105.343645 
L 294.669167 105.232912 
L 294.79115 105.200831 
L 295.08353 105.091134 
L 295.192367 105.064227 
L 295.194544 105.064227 
L 295.470751 104.95453 
L 295.583113 104.911065 
L 295.901681 104.801368 
L 296.013607 104.759972 
L 296.404664 104.64924 
L 296.512858 104.60474 
L 296.51572 104.60474 
L 296.828482 104.495043 
L 296.828482 104.494008 
L 296.941777 104.441229 
L 297.289125 104.331532 
L 297.402544 104.296346 
L 297.802642 104.186649 
L 297.914858 104.149393 
L 298.269215 104.039696 
L 298.383442 104.00451 
L 298.696703 103.894813 
L 298.810225 103.849278 
L 299.138684 103.739581 
L 299.253036 103.696116 
L 299.556634 103.586419 
L 299.669887 103.553302 
L 300.013089 103.443605 
L 300.128001 103.40014 
L 300.431018 103.290443 
L 300.543027 103.257327 
L 300.832007 103.14763 
L 300.944534 103.102095 
L 301.287902 102.992398 
L 301.400989 102.942723 
L 301.703509 102.831991 
L 301.815642 102.808189 
L 302.147501 102.697457 
L 302.260817 102.663306 
L 302.665994 102.553609 
L 302.779786 102.518423 
L 303.087386 102.408725 
L 303.199354 102.359051 
L 303.528497 102.248319 
L 303.636546 102.210028 
L 303.639511 102.210028 
L 303.913375 102.100331 
L 304.026462 102.052727 
L 304.345943 101.943029 
L 304.45028 101.893355 
L 304.45704 101.893355 
L 304.746414 101.783658 
L 304.856018 101.748472 
L 304.85751 101.748472 
L 305.239693 101.638775 
L 305.351909 101.599449 
L 305.657664 101.489752 
L 305.770253 101.454566 
L 306.099687 101.344869 
L 306.212525 101.303474 
L 306.518694 101.193776 
L 306.631429 101.152381 
L 307.01666 101.042684 
L 307.12927 101.005428 
L 307.391875 100.895731 
L 307.503387 100.852266 
L 307.868111 100.742569 
L 307.978129 100.692895 
L 307.979125 100.692895 
L 308.273516 100.583197 
L 308.385194 100.545942 
L 308.728395 100.436244 
L 308.728395 100.43521 
L 308.850605 100.39071 
L 309.151176 100.281012 
L 309.263351 100.223059 
L 309.635705 100.112327 
L 309.744521 100.078176 
L 309.746761 100.078176 
L 310.127533 99.968479 
L 310.237967 99.933293 
L 310.238589 99.933293 
L 310.59253 99.823596 
L 310.704622 99.800828 
L 311.049524 99.691131 
L 311.161409 99.649736 
L 311.510623 99.540039 
L 311.623171 99.490364 
L 311.994281 99.380667 
L 312.107058 99.339272 
L 312.3882 99.229575 
L 312.499131 99.18611 
L 312.499255 99.18611 
L 312.810276 99.076412 
L 312.9227 99.043296 
L 313.334409 98.933599 
L 313.446293 98.892204 
L 313.760632 98.782506 
L 313.877762 98.739042 
L 314.199089 98.629344 
L 314.310932 98.592089 
L 314.607065 98.482391 
L 314.72007 98.434787 
L 315.078532 98.324055 
L 315.19108 98.287834 
L 315.476929 98.178137 
L 315.588793 98.140881 
L 315.834727 98.031184 
L 315.9474 97.987719 
L 316.228314 97.878022 
L 316.340489 97.851115 
L 316.756428 97.740382 
L 316.869805 97.683464 
L 317.1846 97.573767 
L 317.29665 97.526162 
L 317.613809 97.416465 
L 317.725777 97.37093 
L 318.064727 97.261233 
L 318.177255 97.232256 
L 318.516433 97.122559 
L 318.62923 97.081164 
L 318.892976 96.970432 
L 319.007142 96.936281 
L 319.341282 96.825549 
L 319.455219 96.778979 
L 319.755583 96.669282 
L 319.867654 96.642375 
L 320.153233 96.532678 
L 320.267212 96.493352 
L 320.599528 96.38262 
L 320.717508 96.331911 
L 321.0469 96.222214 
L 321.162144 96.174609 
L 321.444344 96.064912 
L 321.548059 96.031796 
L 321.55544 96.031796 
L 321.851367 95.922099 
L 321.965117 95.880703 
L 322.325114 95.771006 
L 322.436832 95.73996 
L 322.696722 95.630263 
L 322.696722 95.629228 
L 322.809436 95.590937 
L 323.150418 95.48124 
L 323.261909 95.429496 
L 323.542906 95.319799 
L 323.654894 95.299101 
L 323.920382 95.189404 
L 324.032661 95.150078 
L 324.355749 95.040381 
L 324.46386 94.998986 
L 324.466763 94.998986 
L 324.829745 94.889289 
L 324.940717 94.852033 
L 324.940759 94.852033 
L 325.189078 94.742336 
L 325.286407 94.70301 
L 325.300175 94.70301 
L 325.603234 94.593313 
L 325.715201 94.549848 
L 326.005612 94.440151 
L 326.12127 94.394616 
L 326.410893 94.284919 
L 326.522861 94.241454 
L 326.816921 94.130722 
L 326.926898 94.080013 
L 326.927934 94.080013 
L 327.180152 93.970315 
L 327.180152 93.96928 
L 327.293032 93.92685 
L 327.641956 93.817153 
L 327.753384 93.777828 
L 328.101748 93.66813 
L 328.21552 93.616386 
L 328.509787 93.508759 
L 328.61823 93.463224 
L 328.620842 93.463224 
L 328.884298 93.353527 
L 328.995602 93.322481 
L 329.297127 93.212783 
L 329.403392 93.165179 
L 329.408099 93.165179 
L 329.626145 93.055482 
L 329.737905 93.020296 
L 329.964536 92.909563 
L 330.073891 92.873343 
L 330.075591 92.873343 
L 330.366334 92.763645 
L 330.470961 92.728459 
L 330.477306 92.728459 
L 330.817687 92.618762 
L 330.93177 92.585646 
L 331.295561 92.475949 
L 331.407134 92.422135 
L 331.744862 92.312438 
L 331.856871 92.266903 
L 332.189539 92.157206 
L 332.299931 92.111671 
L 332.300594 92.111671 
L 332.565916 92.000939 
L 332.67073 91.9523 
L 332.676992 91.9523 
L 333.021251 91.842602 
L 333.132762 91.799137 
L 333.434929 91.68944 
L 333.551106 91.637696 
L 333.888128 91.527999 
L 333.999971 91.484534 
L 334.354784 91.374837 
L 334.46812 91.321023 
L 334.794091 91.211326 
L 334.903052 91.182349 
L 334.905167 91.182349 
L 335.275116 91.072652 
L 335.386047 91.049884 
L 335.386171 91.049884 
L 335.710172 90.940187 
L 335.710172 90.939152 
L 335.823343 90.91742 
L 336.143404 90.807723 
L 336.256325 90.764258 
L 336.556854 90.65456 
L 336.668843 90.602816 
L 336.912828 90.492084 
L 337.026828 90.445515 
L 337.304549 90.334782 
L 337.416807 90.306841 
L 337.734878 90.197143 
L 337.847716 90.151609 
L 338.211196 90.041911 
L 338.322666 90.000516 
L 338.635553 89.890819 
L 338.739144 89.851494 
L 338.74665 89.851494 
L 338.997042 89.741796 
L 339.10901 89.696262 
L 339.401764 89.586564 
L 339.516447 89.53896 
L 339.766882 89.429263 
L 339.879596 89.389937 
L 340.14442 89.28024 
L 340.251991 89.234705 
L 340.255516 89.234705 
L 340.57761 89.125008 
L 340.693807 89.064985 
L 340.983222 88.955288 
L 341.096393 88.903544 
L 341.369096 88.793846 
L 341.481271 88.737963 
L 341.790716 88.628266 
L 341.790716 88.627231 
L 341.904591 88.582731 
L 342.192389 88.473034 
L 342.304232 88.435778 
L 342.549524 88.326081 
L 342.661036 88.278476 
L 342.995736 88.168779 
L 343.107081 88.133593 
L 343.349926 88.023896 
L 343.463345 87.968012 
L 343.746416 87.858315 
L 343.858425 87.810711 
L 344.150246 87.701013 
L 344.262338 87.649269 
L 344.547565 87.539572 
L 344.661357 87.496107 
L 344.92643 87.38641 
L 345.039807 87.330526 
L 345.279003 87.220829 
L 345.391137 87.187713 
L 345.709829 87.078016 
L 345.822917 87.030411 
L 346.097009 86.920714 
L 346.209661 86.87104 
L 346.528934 86.761342 
L 346.634972 86.713738 
L 346.63999 86.713738 
L 346.937118 86.604041 
L 347.050994 86.566785 
L 347.356126 86.457088 
L 347.468073 86.413623 
L 347.747764 86.303926 
L 347.859855 86.254251 
L 348.091297 86.144554 
L 348.204716 86.088671 
L 348.445321 85.978973 
L 348.551857 85.937578 
L 348.556294 85.937578 
L 348.865034 85.827881 
L 348.977084 85.780276 
L 349.255013 85.670579 
L 349.368017 85.622975 
L 349.620608 85.513277 
L 349.733446 85.469812 
L 350.002998 85.35908 
L 350.110486 85.304232 
L 350.114053 85.304232 
L 350.50963 85.194534 
L 350.621307 85.165558 
L 350.925071 85.05586 
L 351.033618 84.997907 
L 351.036126 84.997907 
L 351.343581 84.88821 
L 351.452936 84.838536 
L 351.454678 84.838536 
L 351.738163 84.728838 
L 351.848555 84.662606 
L 351.84926 84.662606 
L 352.134114 84.552909 
L 352.247698 84.505304 
L 352.508375 84.395607 
L 352.620343 84.352142 
L 352.944427 84.242445 
L 353.056229 84.207259 
L 353.300733 84.097562 
L 353.413778 84.049957 
L 353.694319 83.94026 
L 353.806867 83.890586 
L 354.022426 83.780889 
L 354.135347 83.735354 
L 354.380266 83.624622 
L 354.493312 83.578052 
L 354.775719 83.468355 
L 354.889096 83.412471 
L 355.220437 83.301739 
L 355.320959 83.265518 
L 355.331534 83.265518 
L 355.634925 83.154786 
L 355.75162 83.114426 
L 356.033944 83.004729 
L 356.147031 82.955054 
L 356.369224 82.845357 
L 356.369224 82.844322 
L 356.483058 82.801892 
L 356.792876 82.692195 
L 356.907415 82.638381 
L 357.184099 82.528684 
L 357.285948 82.487289 
L 357.295113 82.487289 
L 357.562301 82.377591 
L 357.562301 82.376557 
L 357.678208 82.319638 
L 357.938097 82.209941 
L 358.050231 82.158197 
L 358.272009 82.0485 
L 358.376181 82.011244 
L 358.383023 82.011244 
L 358.660827 81.901547 
L 358.763049 81.858082 
L 358.771882 81.858082 
L 359.052631 81.748385 
L 359.144486 81.70285 
L 359.163727 81.70285 
L 359.413208 81.593153 
L 359.524968 81.557967 
L 359.76773 81.448269 
L 359.878744 81.396525 
L 359.878827 81.396525 
L 360.217176 81.286828 
L 360.329559 81.245433 
L 360.611198 81.135736 
L 360.722855 81.079852 
L 361.008434 80.970155 
L 361.119884 80.932899 
L 361.469513 80.823202 
L 361.469513 80.822167 
L 361.582932 80.765249 
L 361.855179 80.655551 
L 361.965052 80.614156 
L 361.966234 80.614156 
L 362.243312 80.503424 
L 362.360816 80.444436 
L 362.583072 80.334739 
L 362.696304 80.262297 
L 362.88499 80.1526 
L 362.997041 80.104995 
L 363.236444 79.995298 
L 363.349904 79.937345 
L 363.646204 79.827648 
L 363.759125 79.784183 
L 364.000851 79.674485 
L 364.109604 79.618602 
L 364.111864 79.618602 
L 364.321824 79.508905 
L 364.436446 79.440603 
L 364.702887 79.330905 
L 364.812097 79.277091 
L 364.813984 79.277091 
L 365.056622 79.167394 
L 365.170414 79.101162 
L 365.371914 78.991465 
L 365.371914 78.99043 
L 365.484504 78.954209 
L 365.864903 78.843477 
L 365.971832 78.796907 
L 365.975958 78.796907 
L 366.247044 78.686175 
L 366.35897 78.645815 
L 366.565198 78.536118 
L 366.677622 78.469885 
L 366.879702 78.360188 
L 366.879702 78.359153 
L 366.992645 78.314653 
L 367.16551 78.204956 
L 367.275321 78.144933 
L 367.276607 78.144933 
L 367.535874 78.035236 
L 367.648215 77.971073 
L 367.93087 77.861376 
L 368.046073 77.813771 
L 368.406069 77.704074 
L 368.518161 77.65233 
L 368.813673 77.542633 
L 368.925764 77.492959 
L 369.214682 77.383261 
L 369.326442 77.348075 
L 369.601551 77.238378 
L 369.713498 77.194913 
L 369.930114 77.085216 
L 370.038929 77.016914 
L 370.04121 77.016914 
L 370.306988 76.907217 
L 370.419868 76.859612 
L 370.624686 76.749915 
L 370.737566 76.70438 
L 370.930564 76.593648 
L 371.050784 76.524311 
L 371.326266 76.414614 
L 371.438648 76.346312 
L 371.676061 76.236615 
L 371.788402 76.172452 
L 372.025566 76.062755 
L 372.137803 76.006871 
L 372.408909 75.897174 
L 372.522577 75.835081 
L 372.76563 75.725384 
L 372.877722 75.692268 
L 373.100745 75.582571 
L 373.211572 75.539106 
L 373.211841 75.539106 
L 373.427068 75.429408 
L 373.519918 75.373525 
L 373.538165 75.373525 
L 373.751712 75.263828 
L 373.863327 75.212084 
L 374.07677 75.101351 
L 374.183181 75.065131 
L 374.187825 75.065131 
L 374.470274 74.955433 
L 374.571957 74.916108 
L 374.581205 74.916108 
L 374.816461 74.806411 
L 374.927433 74.744318 
L 374.927558 74.744318 
L 375.185829 74.634621 
L 375.298295 74.566319 
L 375.496975 74.456621 
L 375.605791 74.402808 
L 375.60803 74.402808 
L 375.859957 74.29311 
L 375.969374 74.228948 
L 375.971012 74.228948 
L 376.240025 74.118216 
L 376.354149 74.044739 
L 376.609352 73.935042 
L 376.721319 73.891577 
L 376.968768 73.78188 
L 377.07945 73.721857 
L 377.079699 73.721857 
L 377.285304 73.612159 
L 377.394701 73.558346 
L 377.396359 73.558346 
L 377.613618 73.448648 
L 377.613618 73.447613 
L 377.727244 73.386556 
L 377.971956 73.276858 
L 378.080067 73.214765 
L 378.083052 73.214765 
L 378.321129 73.105068 
L 378.42982 73.038836 
L 378.432225 73.038836 
L 378.644134 72.929139 
L 378.756123 72.883604 
L 379.035025 72.773907 
L 379.147159 72.722163 
L 379.368357 72.612465 
L 379.463529 72.554512 
L 379.479329 72.554512 
L 379.703347 72.444815 
L 379.811044 72.40342 
L 379.814444 72.40342 
L 380.02656 72.293722 
L 380.138694 72.239909 
L 380.400739 72.130211 
L 380.512997 72.072258 
L 380.7507 71.962561 
L 380.858728 71.894259 
L 380.861776 71.894259 
L 381.096224 71.784562 
L 381.208399 71.726608 
L 381.440503 71.615876 
L 381.551434 71.569307 
L 381.551517 71.569307 
L 381.79204 71.458574 
L 381.902556 71.420284 
L 381.903095 71.420284 
L 382.113428 71.310587 
L 382.225935 71.238145 
L 382.440125 71.128448 
L 382.551636 71.072564 
L 382.79614 70.962867 
L 382.893759 70.898704 
L 382.907196 70.898704 
L 383.069963 70.789007 
L 383.182304 70.726914 
L 383.399438 70.617217 
L 383.511779 70.553055 
L 383.784441 70.443357 
L 383.894335 70.377125 
L 383.895517 70.377125 
L 384.080906 70.267428 
L 384.193039 70.215684 
L 384.416041 70.105986 
L 384.527698 70.048033 
L 384.75267 69.938336 
L 384.857007 69.888662 
L 384.863725 69.888662 
L 385.109888 69.778964 
L 385.221855 69.725151 
L 385.378444 69.615453 
L 385.487094 69.567849 
L 385.489541 69.567849 
L 385.707338 69.458152 
L 385.819223 69.416756 
L 386.013134 69.307059 
L 386.117886 69.242897 
L 386.12421 69.242897 
L 386.380346 69.133199 
L 386.48261 69.075246 
L 386.491443 69.075246 
L 386.707416 68.965549 
L 386.819467 68.915875 
L 387.09781 68.806177 
L 387.206252 68.744085 
L 387.208844 68.744085 
L 387.471325 68.634387 
L 387.574874 68.582643 
L 387.582401 68.582643 
L 387.824604 68.472946 
L 387.937483 68.427411 
L 388.124718 68.317714 
L 388.231751 68.245273 
L 388.235773 68.245273 
L 388.454234 68.135575 
L 388.567902 68.073482 
L 388.751736 67.963785 
L 388.858189 67.903762 
L 388.86275 67.903762 
L 389.061969 67.794065 
L 389.167178 67.734042 
L 389.172734 67.734042 
L 389.405461 67.624345 
L 389.513821 67.541554 
L 389.516496 67.541554 
L 389.672442 67.431857 
L 389.780221 67.382183 
L 389.783414 67.382183 
L 389.961401 67.271451 
L 390.071585 67.224881 
L 390.072456 67.224881 
L 390.312232 67.115184 
L 390.420178 67.0593 
L 390.423205 67.0593 
L 390.626447 66.949603 
L 390.739741 66.88958 
L 390.928925 66.779883 
L 391.04222 66.71572 
L 391.251516 66.606023 
L 391.362903 66.556349 
L 391.598574 66.448721 
L 391.598574 66.446651 
L 391.710873 66.386628 
L 391.915857 66.276931 
L 392.028115 66.216908 
L 392.233347 66.109281 
L 392.233347 66.107211 
L 392.34519 66.03063 
L 392.553284 65.920932 
L 392.659612 65.879537 
L 392.664381 65.879537 
L 392.796668 65.76984 
L 392.907019 65.703608 
L 392.907724 65.703608 
L 393.145509 65.59391 
L 393.249017 65.546306 
L 393.255901 65.546306 
L 393.469096 65.436609 
L 393.580027 65.368307 
L 393.580192 65.368307 
L 393.833364 65.258609 
L 393.943672 65.179958 
L 393.944419 65.179958 
L 394.104159 65.070261 
L 394.215048 64.987471 
L 394.41095 64.877774 
L 394.522752 64.799123 
L 394.722801 64.689425 
L 394.827304 64.619054 
L 394.833856 64.619054 
L 395.044935 64.509356 
L 395.155327 64.449333 
L 395.155991 64.449333 
L 395.422349 64.339636 
L 395.535353 64.294101 
L 395.75651 64.184404 
L 395.867482 64.118172 
L 395.867565 64.118172 
L 396.084243 64.008475 
L 396.193515 63.938103 
L 396.19534 63.938103 
L 396.385851 63.828405 
L 396.491764 63.766313 
L 396.496906 63.766313 
L 396.73577 63.656615 
L 396.84413 63.592453 
L 396.846867 63.592453 
L 396.99483 63.482756 
L 397.098047 63.422733 
L 397.105885 63.422733 
L 397.305478 63.313035 
L 397.415745 63.224036 
L 397.416533 63.224036 
L 397.612227 63.114338 
L 397.716647 63.052246 
L 397.723324 63.052246 
L 397.937306 62.942548 
L 398.046205 62.872176 
L 398.04832 62.872176 
L 398.250857 62.762479 
L 398.363322 62.694177 
L 398.571375 62.58448 
L 398.682181 62.507899 
L 398.682471 62.507899 
L 398.918018 62.398202 
L 399.028244 62.331969 
L 399.02899 62.331969 
L 399.221885 62.222272 
L 399.333376 62.164319 
L 399.57448 62.054621 
L 399.686696 61.98011 
L 399.910258 61.870413 
L 400.016503 61.81039 
L 400.021147 61.81039 
L 400.245953 61.699658 
L 400.356262 61.622042 
L 400.356925 61.622042 
L 400.538354 61.512344 
L 400.647543 61.433694 
L 400.649368 61.433694 
L 400.825116 61.323996 
L 400.933393 61.255694 
L 400.936212 61.255694 
L 401.088198 61.145997 
L 401.193655 61.081834 
L 401.198673 61.081834 
L 401.387234 60.972137 
L 401.495387 60.866579 
L 401.498331 60.866579 
L 401.700453 60.756882 
L 401.809559 60.68651 
L 401.81155 60.68651 
L 401.976806 60.576813 
L 402.085352 60.51679 
L 402.087612 60.51679 
L 402.258549 60.407093 
L 402.368361 60.349139 
L 402.369439 60.349139 
L 402.558622 60.239442 
L 402.669387 60.189768 
L 402.669595 60.189768 
L 402.871675 60.080071 
L 402.981652 60.015908 
L 402.982731 60.015908 
L 403.159639 59.906211 
L 403.26999 59.835839 
L 403.270736 59.835839 
L 403.442544 59.726142 
L 403.540578 59.65784 
L 403.553641 59.65784 
L 403.715496 59.547108 
L 403.824478 59.488119 
L 403.826551 59.488119 
L 403.986499 59.378422 
L 404.097554 59.324608 
L 404.286489 59.214911 
L 404.394849 59.156958 
L 404.397462 59.156958 
L 404.585111 59.047261 
L 404.693388 58.987238 
L 404.696208 58.987238 
L 404.89468 58.87754 
L 405.002999 58.815448 
L 405.005736 58.815448 
L 405.152662 58.70575 
L 405.254635 58.643657 
L 405.263593 58.643657 
L 405.482261 58.53396 
L 405.591699 58.469798 
L 405.593358 58.469798 
L 405.791333 58.3601 
L 405.902762 58.293868 
L 406.087591 58.184171 
L 406.199808 58.122078 
L 406.410846 58.012381 
L 406.522647 57.977195 
L 406.761677 57.867498 
L 406.872069 57.813684 
L 406.872608 57.813684 
L 407.104008 57.703987 
L 407.214648 57.637754 
L 407.215063 57.637754 
L 407.39898 57.528057 
L 407.509787 57.478383 
L 407.510035 57.478383 
L 407.702785 57.368686 
L 407.80339 57.314872 
L 407.813882 57.314872 
L 408.011775 57.205175 
L 408.121337 57.134803 
L 408.122747 57.134803 
L 408.319063 57.025105 
L 408.429911 56.967152 
L 408.43016 56.967152 
L 408.60881 56.857455 
L 408.716175 56.791223 
L 408.719409 56.791223 
L 408.935424 56.681525 
L 409.044323 56.621502 
L 409.046396 56.621502 
L 409.279745 56.511805 
L 409.389722 56.449712 
L 409.39051 56.449712 
L 409.585582 56.340015 
L 409.696347 56.263434 
L 409.696596 56.263434 
L 409.875661 56.153737 
L 409.983274 56.081295 
L 409.986758 56.081295 
L 410.217535 55.971598 
L 410.326849 55.903296 
L 410.328632 55.903296 
L 410.509356 55.793598 
L 410.611578 55.717017 
L 410.620453 55.717017 
L 410.812332 55.60732 
L 410.914098 55.553506 
L 410.922765 55.553506 
L 411.166855 55.443809 
L 411.277702 55.373437 
L 411.277951 55.373437 
L 411.508107 55.26374 
L 411.612942 55.216136 
L 411.619121 55.216136 
L 411.799969 55.106438 
L 411.910402 55.040206 
L 411.911066 55.040206 
L 412.151879 54.930509 
L 412.257709 54.876695 
L 412.262851 54.876695 
L 412.564666 54.766998 
L 412.673233 54.719393 
L 412.675763 54.719393 
L 412.903679 54.609696 
L 413.013863 54.557952 
L 413.014485 54.557952 
L 413.274001 54.448255 
L 413.380785 54.406859 
L 413.385056 54.406859 
L 413.763631 54.297162 
L 413.856647 54.264046 
L 413.874562 54.264046 
L 414.630094 54.154349 
L 414.715314 54.144 
L 414.72 54.144 
" clip-path="url(#p6838aa7a56)" style="fill: none; stroke: #ff8c00; stroke-width: 1.5; stroke-linecap: square"/>
   </g>
   <g id="line2d_14">
    <path d="M 74.605714 307.584 
L 414.72 54.144 
" clip-path="url(#p6838aa7a56)" style="fill: none; stroke-dasharray: 5.55,2.4; stroke-dashoffset: 0; stroke: #0000ff; stroke-width: 1.5"/>
   </g>
   <g id="patch_3">
    <path d="M 57.6 307.584 
L 57.6 41.472 
" style="fill: none; stroke: #000000; stroke-width: 0.8; stroke-linejoin: miter; stroke-linecap: square"/>
   </g>
   <g id="patch_4">
    <path d="M 414.72 307.584 
L 414.72 41.472 
" style="fill: none; stroke: #000000; stroke-width: 0.8; stroke-linejoin: miter; stroke-linecap: square"/>
   </g>
   <g id="patch_5">
    <path d="M 57.6 307.584 
L 414.72 307.584 
" style="fill: none; stroke: #000000; stroke-width: 0.8; stroke-linejoin: miter; stroke-linecap: square"/>
   </g>
   <g id="patch_6">
    <path d="M 57.6 41.472 
L 414.72 41.472 
" style="fill: none; stroke: #000000; stroke-width: 0.8; stroke-linejoin: miter; stroke-linecap: square"/>
   </g>
   <g id="text_15">
    <!-- ROC CURVE -->
    <g transform="translate(200.855625 35.472)scale(0.12 -0.12)">
     <defs>
      <path id="DejaVuSans-4f" d="M 2522 4238 
Q 1834 4238 1429 3725 
Q 1025 3213 1025 2328 
Q 1025 1447 1429 934 
Q 1834 422 2522 422 
Q 3209 422 3611 934 
Q 4013 1447 4013 2328 
Q 4013 3213 3611 3725 
Q 3209 4238 2522 4238 
z
M 2522 4750 
Q 3503 4750 4090 4092 
Q 4678 3434 4678 2328 
Q 4678 1225 4090 567 
Q 3503 -91 2522 -91 
Q 1538 -91 948 565 
Q 359 1222 359 2328 
Q 359 3434 948 4092 
Q 1538 4750 2522 4750 
z
" transform="scale(0.015625)"/>
      <path id="DejaVuSans-43" d="M 4122 4306 
L 4122 3641 
Q 3803 3938 3442 4084 
Q 3081 4231 2675 4231 
Q 1875 4231 1450 3742 
Q 1025 3253 1025 2328 
Q 1025 1406 1450 917 
Q 1875 428 2675 428 
Q 3081 428 3442 575 
Q 3803 722 4122 1019 
L 4122 359 
Q 3791 134 3420 21 
Q 3050 -91 2638 -91 
Q 1578 -91 968 557 
Q 359 1206 359 2328 
Q 359 3453 968 4101 
Q 1578 4750 2638 4750 
Q 3056 4750 3426 4639 
Q 3797 4528 4122 4306 
z
" transform="scale(0.015625)"/>
      <path id="DejaVuSans-55" d="M 556 4666 
L 1191 4666 
L 1191 1831 
Q 1191 1081 1462 751 
Q 1734 422 2344 422 
Q 2950 422 3222 751 
Q 3494 1081 3494 1831 
L 3494 4666 
L 4128 4666 
L 4128 1753 
Q 4128 841 3676 375 
Q 3225 -91 2344 -91 
Q 1459 -91 1007 375 
Q 556 841 556 1753 
L 556 4666 
z
" transform="scale(0.015625)"/>
      <path id="DejaVuSans-56" d="M 1831 0 
L 50 4666 
L 709 4666 
L 2188 738 
L 3669 4666 
L 4325 4666 
L 2547 0 
L 1831 0 
z
" transform="scale(0.015625)"/>
      <path id="DejaVuSans-45" d="M 628 4666 
L 3578 4666 
L 3578 4134 
L 1259 4134 
L 1259 2753 
L 3481 2753 
L 3481 2222 
L 1259 2222 
L 1259 531 
L 3634 531 
L 3634 0 
L 628 0 
L 628 4666 
z
" transform="scale(0.015625)"/>
     </defs>
     <use xlink:href="#DejaVuSans-52"/>
     <use xlink:href="#DejaVuSans-4f" x="69.482422"/>
     <use xlink:href="#DejaVuSans-43" x="148.193359"/>
     <use xlink:href="#DejaVuSans-20" x="218.017578"/>
     <use xlink:href="#DejaVuSans-43" x="249.804688"/>
     <use xlink:href="#DejaVuSans-55" x="319.628906"/>
     <use xlink:href="#DejaVuSans-52" x="392.822266"/>
     <use xlink:href="#DejaVuSans-56" x="456.804688"/>
     <use xlink:href="#DejaVuSans-45" x="525.212891"/>
    </g>
   </g>
   <g id="legend_1">
    <g id="patch_7">
     <path d="M 234.97 302.584 
L 407.72 302.584 
Q 409.72 302.584 409.72 300.584 
L 409.72 286.905875 
Q 409.72 284.905875 407.72 284.905875 
L 234.97 284.905875 
Q 232.97 284.905875 232.97 286.905875 
L 232.97 300.584 
Q 232.97 302.584 234.97 302.584 
z
" style="fill: #ffffff; opacity: 0.8; stroke: #cccccc; stroke-linejoin: miter"/>
    </g>
    <g id="line2d_15">
     <path d="M 236.97 293.004312 
L 246.97 293.004312 
L 256.97 293.004312 
" style="fill: none; stroke: #ff8c00; stroke-width: 1.5; stroke-linecap: square"/>
    </g>
    <g id="text_16">
     <!-- ROC curve (ROC AUC=0.67) -->
     <g transform="translate(264.97 296.504312)scale(0.1 -0.1)">
      <defs>
       <path id="DejaVuSans-63" d="M 3122 3366 
L 3122 2828 
Q 2878 2963 2633 3030 
Q 2388 3097 2138 3097 
Q 1578 3097 1268 2742 
Q 959 2388 959 1747 
Q 959 1106 1268 751 
Q 1578 397 2138 397 
Q 2388 397 2633 464 
Q 2878 531 3122 666 
L 3122 134 
Q 2881 22 2623 -34 
Q 2366 -91 2075 -91 
Q 1284 -91 818 406 
Q 353 903 353 1747 
Q 353 2603 823 3093 
Q 1294 3584 2113 3584 
Q 2378 3584 2631 3529 
Q 2884 3475 3122 3366 
z
" transform="scale(0.015625)"/>
       <path id="DejaVuSans-28" d="M 1984 4856 
Q 1566 4138 1362 3434 
Q 1159 2731 1159 2009 
Q 1159 1288 1364 580 
Q 1569 -128 1984 -844 
L 1484 -844 
Q 1016 -109 783 600 
Q 550 1309 550 2009 
Q 550 2706 781 3412 
Q 1013 4119 1484 4856 
L 1984 4856 
z
" transform="scale(0.015625)"/>
       <path id="DejaVuSans-41" d="M 2188 4044 
L 1331 1722 
L 3047 1722 
L 2188 4044 
z
M 1831 4666 
L 2547 4666 
L 4325 0 
L 3669 0 
L 3244 1197 
L 1141 1197 
L 716 0 
L 50 0 
L 1831 4666 
z
" transform="scale(0.015625)"/>
       <path id="DejaVuSans-3d" d="M 678 2906 
L 4684 2906 
L 4684 2381 
L 678 2381 
L 678 2906 
z
M 678 1631 
L 4684 1631 
L 4684 1100 
L 678 1100 
L 678 1631 
z
" transform="scale(0.015625)"/>
       <path id="DejaVuSans-37" d="M 525 4666 
L 3525 4666 
L 3525 4397 
L 1831 0 
L 1172 0 
L 2766 4134 
L 525 4134 
L 525 4666 
z
" transform="scale(0.015625)"/>
       <path id="DejaVuSans-29" d="M 513 4856 
L 1013 4856 
Q 1481 4119 1714 3412 
Q 1947 2706 1947 2009 
Q 1947 1309 1714 600 
Q 1481 -109 1013 -844 
L 513 -844 
Q 928 -128 1133 580 
Q 1338 1288 1338 2009 
Q 1338 2731 1133 3434 
Q 928 4138 513 4856 
z
" transform="scale(0.015625)"/>
      </defs>
      <use xlink:href="#DejaVuSans-52"/>
      <use xlink:href="#DejaVuSans-4f" x="69.482422"/>
      <use xlink:href="#DejaVuSans-43" x="148.193359"/>
      <use xlink:href="#DejaVuSans-20" x="218.017578"/>
      <use xlink:href="#DejaVuSans-63" x="249.804688"/>
      <use xlink:href="#DejaVuSans-75" x="304.785156"/>
      <use xlink:href="#DejaVuSans-72" x="368.164062"/>
      <use xlink:href="#DejaVuSans-76" x="409.277344"/>
      <use xlink:href="#DejaVuSans-65" x="468.457031"/>
      <use xlink:href="#DejaVuSans-20" x="529.980469"/>
      <use xlink:href="#DejaVuSans-28" x="561.767578"/>
      <use xlink:href="#DejaVuSans-52" x="600.78125"/>
      <use xlink:href="#DejaVuSans-4f" x="670.263672"/>
      <use xlink:href="#DejaVuSans-43" x="748.974609"/>
      <use xlink:href="#DejaVuSans-20" x="818.798828"/>
      <use xlink:href="#DejaVuSans-41" x="850.585938"/>
      <use xlink:href="#DejaVuSans-55" x="918.994141"/>
      <use xlink:href="#DejaVuSans-43" x="992.1875"/>
      <use xlink:href="#DejaVuSans-3d" x="1062.011719"/>
      <use xlink:href="#DejaVuSans-30" x="1145.800781"/>
      <use xlink:href="#DejaVuSans-2e" x="1209.423828"/>
      <use xlink:href="#DejaVuSans-36" x="1241.210938"/>
      <use xlink:href="#DejaVuSans-37" x="1304.833984"/>
      <use xlink:href="#DejaVuSans-29" x="1368.457031"/>
     </g>
    </g>
   </g>
  </g>
 </g>
 <defs>
  <clipPath id="p6838aa7a56">
   <rect x="57.6" y="41.472" width="357.12" height="266.112"/>
  </clipPath>
 </defs>
</svg>
