<?xml version="1.0" encoding="utf-8" standalone="no"?>
<!DOCTYPE svg PUBLIC "-//W3C//DTD SVG 1.1//EN"
  "http://www.w3.org/Graphics/SVG/1.1/DTD/svg11.dtd">
<svg xmlns:xlink="http://www.w3.org/1999/xlink" width="460.8pt" height="345.6pt" viewBox="0 0 460.8 345.6" xmlns="http://www.w3.org/2000/svg" version="1.1">
 <metadata>
  <rdf:RDF xmlns:dc="http://purl.org/dc/elements/1.1/" xmlns:cc="http://creativecommons.org/ns#" xmlns:rdf="http://www.w3.org/1999/02/22-rdf-syntax-ns#">
   <cc:Work>
    <dc:type rdf:resource="http://purl.org/dc/dcmitype/StillImage"/>
    <dc:date>2022-05-24T22:16:14.670998</dc:date>
    <dc:format>image/svg+xml</dc:format>
    <dc:creator>
     <cc:Agent>
      <dc:title>Matplotlib v3.5.1, https://matplotlib.org/</dc:title>
     </cc:Agent>
    </dc:creator>
   </cc:Work>
  </rdf:RDF>
 </metadata>
 <defs>
  <style type="text/css">*{stroke-linejoin: round; stroke-linecap: butt}</style>
 </defs>
 <g id="figure_1">
  <g id="patch_1">
   <path d="M 0 345.6 
L 460.8 345.6 
L 460.8 0 
L 0 0 
z
" style="fill: #ffffff"/>
  </g>
  <g id="axes_1">
   <g id="patch_2">
    <path d="M 57.6 307.584 
L 414.72 307.584 
L 414.72 41.472 
L 57.6 41.472 
z
" style="fill: #ffffff"/>
   </g>
   <g id="matplotlib.axis_1">
    <g id="xtick_1">
     <g id="line2d_1">
      <defs>
       <path id="m326ed5da72" d="M 0 0 
L 0 3.5 
" style="stroke: #000000; stroke-width: 0.8"/>
      </defs>
      <g>
       <use xlink:href="#m326ed5da72" x="74.605714" y="307.584" style="stroke: #000000; stroke-width: 0.8"/>
      </g>
     </g>
     <g id="text_1">
      <!-- 0.0 -->
      <g transform="translate(66.654152 322.182437)scale(0.1 -0.1)">
       <defs>
        <path id="DejaVuSans-30" d="M 2034 4250 
Q 1547 4250 1301 3770 
Q 1056 3291 1056 2328 
Q 1056 1369 1301 889 
Q 1547 409 2034 409 
Q 2525 409 2770 889 
Q 3016 1369 3016 2328 
Q 3016 3291 2770 3770 
Q 2525 4250 2034 4250 
z
M 2034 4750 
Q 2819 4750 3233 4129 
Q 3647 3509 3647 2328 
Q 3647 1150 3233 529 
Q 2819 -91 2034 -91 
Q 1250 -91 836 529 
Q 422 1150 422 2328 
Q 422 3509 836 4129 
Q 1250 4750 2034 4750 
z
" transform="scale(0.015625)"/>
        <path id="DejaVuSans-2e" d="M 684 794 
L 1344 794 
L 1344 0 
L 684 0 
L 684 794 
z
" transform="scale(0.015625)"/>
       </defs>
       <use xlink:href="#DejaVuSans-30"/>
       <use xlink:href="#DejaVuSans-2e" x="63.623047"/>
       <use xlink:href="#DejaVuSans-30" x="95.410156"/>
      </g>
     </g>
    </g>
    <g id="xtick_2">
     <g id="line2d_2">
      <g>
       <use xlink:href="#m326ed5da72" x="142.628571" y="307.584" style="stroke: #000000; stroke-width: 0.8"/>
      </g>
     </g>
     <g id="text_2">
      <!-- 0.2 -->
      <g transform="translate(134.677009 322.182437)scale(0.1 -0.1)">
       <defs>
        <path id="DejaVuSans-32" d="M 1228 531 
L 3431 531 
L 3431 0 
L 469 0 
L 469 531 
Q 828 903 1448 1529 
Q 2069 2156 2228 2338 
Q 2531 2678 2651 2914 
Q 2772 3150 2772 3378 
Q 2772 3750 2511 3984 
Q 2250 4219 1831 4219 
Q 1534 4219 1204 4116 
Q 875 4013 500 3803 
L 500 4441 
Q 881 4594 1212 4672 
Q 1544 4750 1819 4750 
Q 2544 4750 2975 4387 
Q 3406 4025 3406 3419 
Q 3406 3131 3298 2873 
Q 3191 2616 2906 2266 
Q 2828 2175 2409 1742 
Q 1991 1309 1228 531 
z
" transform="scale(0.015625)"/>
       </defs>
       <use xlink:href="#DejaVuSans-30"/>
       <use xlink:href="#DejaVuSans-2e" x="63.623047"/>
       <use xlink:href="#DejaVuSans-32" x="95.410156"/>
      </g>
     </g>
    </g>
    <g id="xtick_3">
     <g id="line2d_3">
      <g>
       <use xlink:href="#m326ed5da72" x="210.651429" y="307.584" style="stroke: #000000; stroke-width: 0.8"/>
      </g>
     </g>
     <g id="text_3">
      <!-- 0.4 -->
      <g transform="translate(202.699866 322.182437)scale(0.1 -0.1)">
       <defs>
        <path id="DejaVuSans-34" d="M 2419 4116 
L 825 1625 
L 2419 1625 
L 2419 4116 
z
M 2253 4666 
L 3047 4666 
L 3047 1625 
L 3713 1625 
L 3713 1100 
L 3047 1100 
L 3047 0 
L 2419 0 
L 2419 1100 
L 313 1100 
L 313 1709 
L 2253 4666 
z
" transform="scale(0.015625)"/>
       </defs>
       <use xlink:href="#DejaVuSans-30"/>
       <use xlink:href="#DejaVuSans-2e" x="63.623047"/>
       <use xlink:href="#DejaVuSans-34" x="95.410156"/>
      </g>
     </g>
    </g>
    <g id="xtick_4">
     <g id="line2d_4">
      <g>
       <use xlink:href="#m326ed5da72" x="278.674286" y="307.584" style="stroke: #000000; stroke-width: 0.8"/>
      </g>
     </g>
     <g id="text_4">
      <!-- 0.6 -->
      <g transform="translate(270.722723 322.182437)scale(0.1 -0.1)">
       <defs>
        <path id="DejaVuSans-36" d="M 2113 2584 
Q 1688 2584 1439 2293 
Q 1191 2003 1191 1497 
Q 1191 994 1439 701 
Q 1688 409 2113 409 
Q 2538 409 2786 701 
Q 3034 994 3034 1497 
Q 3034 2003 2786 2293 
Q 2538 2584 2113 2584 
z
M 3366 4563 
L 3366 3988 
Q 3128 4100 2886 4159 
Q 2644 4219 2406 4219 
Q 1781 4219 1451 3797 
Q 1122 3375 1075 2522 
Q 1259 2794 1537 2939 
Q 1816 3084 2150 3084 
Q 2853 3084 3261 2657 
Q 3669 2231 3669 1497 
Q 3669 778 3244 343 
Q 2819 -91 2113 -91 
Q 1303 -91 875 529 
Q 447 1150 447 2328 
Q 447 3434 972 4092 
Q 1497 4750 2381 4750 
Q 2619 4750 2861 4703 
Q 3103 4656 3366 4563 
z
" transform="scale(0.015625)"/>
       </defs>
       <use xlink:href="#DejaVuSans-30"/>
       <use xlink:href="#DejaVuSans-2e" x="63.623047"/>
       <use xlink:href="#DejaVuSans-36" x="95.410156"/>
      </g>
     </g>
    </g>
    <g id="xtick_5">
     <g id="line2d_5">
      <g>
       <use xlink:href="#m326ed5da72" x="346.697143" y="307.584" style="stroke: #000000; stroke-width: 0.8"/>
      </g>
     </g>
     <g id="text_5">
      <!-- 0.8 -->
      <g transform="translate(338.74558 322.182437)scale(0.1 -0.1)">
       <defs>
        <path id="DejaVuSans-38" d="M 2034 2216 
Q 1584 2216 1326 1975 
Q 1069 1734 1069 1313 
Q 1069 891 1326 650 
Q 1584 409 2034 409 
Q 2484 409 2743 651 
Q 3003 894 3003 1313 
Q 3003 1734 2745 1975 
Q 2488 2216 2034 2216 
z
M 1403 2484 
Q 997 2584 770 2862 
Q 544 3141 544 3541 
Q 544 4100 942 4425 
Q 1341 4750 2034 4750 
Q 2731 4750 3128 4425 
Q 3525 4100 3525 3541 
Q 3525 3141 3298 2862 
Q 3072 2584 2669 2484 
Q 3125 2378 3379 2068 
Q 3634 1759 3634 1313 
Q 3634 634 3220 271 
Q 2806 -91 2034 -91 
Q 1263 -91 848 271 
Q 434 634 434 1313 
Q 434 1759 690 2068 
Q 947 2378 1403 2484 
z
M 1172 3481 
Q 1172 3119 1398 2916 
Q 1625 2713 2034 2713 
Q 2441 2713 2670 2916 
Q 2900 3119 2900 3481 
Q 2900 3844 2670 4047 
Q 2441 4250 2034 4250 
Q 1625 4250 1398 4047 
Q 1172 3844 1172 3481 
z
" transform="scale(0.015625)"/>
       </defs>
       <use xlink:href="#DejaVuSans-30"/>
       <use xlink:href="#DejaVuSans-2e" x="63.623047"/>
       <use xlink:href="#DejaVuSans-38" x="95.410156"/>
      </g>
     </g>
    </g>
    <g id="xtick_6">
     <g id="line2d_6">
      <g>
       <use xlink:href="#m326ed5da72" x="414.72" y="307.584" style="stroke: #000000; stroke-width: 0.8"/>
      </g>
     </g>
     <g id="text_6">
      <!-- 1.0 -->
      <g transform="translate(406.768438 322.182437)scale(0.1 -0.1)">
       <defs>
        <path id="DejaVuSans-31" d="M 794 531 
L 1825 531 
L 1825 4091 
L 703 3866 
L 703 4441 
L 1819 4666 
L 2450 4666 
L 2450 531 
L 3481 531 
L 3481 0 
L 794 0 
L 794 531 
z
" transform="scale(0.015625)"/>
       </defs>
       <use xlink:href="#DejaVuSans-31"/>
       <use xlink:href="#DejaVuSans-2e" x="63.623047"/>
       <use xlink:href="#DejaVuSans-30" x="95.410156"/>
      </g>
     </g>
    </g>
    <g id="text_7">
     <!-- False Positive Rate -->
     <g transform="translate(189.693594 335.860562)scale(0.1 -0.1)">
      <defs>
       <path id="DejaVuSans-46" d="M 628 4666 
L 3309 4666 
L 3309 4134 
L 1259 4134 
L 1259 2759 
L 3109 2759 
L 3109 2228 
L 1259 2228 
L 1259 0 
L 628 0 
L 628 4666 
z
" transform="scale(0.015625)"/>
       <path id="DejaVuSans-61" d="M 2194 1759 
Q 1497 1759 1228 1600 
Q 959 1441 959 1056 
Q 959 750 1161 570 
Q 1363 391 1709 391 
Q 2188 391 2477 730 
Q 2766 1069 2766 1631 
L 2766 1759 
L 2194 1759 
z
M 3341 1997 
L 3341 0 
L 2766 0 
L 2766 531 
Q 2569 213 2275 61 
Q 1981 -91 1556 -91 
Q 1019 -91 701 211 
Q 384 513 384 1019 
Q 384 1609 779 1909 
Q 1175 2209 1959 2209 
L 2766 2209 
L 2766 2266 
Q 2766 2663 2505 2880 
Q 2244 3097 1772 3097 
Q 1472 3097 1187 3025 
Q 903 2953 641 2809 
L 641 3341 
Q 956 3463 1253 3523 
Q 1550 3584 1831 3584 
Q 2591 3584 2966 3190 
Q 3341 2797 3341 1997 
z
" transform="scale(0.015625)"/>
       <path id="DejaVuSans-6c" d="M 603 4863 
L 1178 4863 
L 1178 0 
L 603 0 
L 603 4863 
z
" transform="scale(0.015625)"/>
       <path id="DejaVuSans-73" d="M 2834 3397 
L 2834 2853 
Q 2591 2978 2328 3040 
Q 2066 3103 1784 3103 
Q 1356 3103 1142 2972 
Q 928 2841 928 2578 
Q 928 2378 1081 2264 
Q 1234 2150 1697 2047 
L 1894 2003 
Q 2506 1872 2764 1633 
Q 3022 1394 3022 966 
Q 3022 478 2636 193 
Q 2250 -91 1575 -91 
Q 1294 -91 989 -36 
Q 684 19 347 128 
L 347 722 
Q 666 556 975 473 
Q 1284 391 1588 391 
Q 1994 391 2212 530 
Q 2431 669 2431 922 
Q 2431 1156 2273 1281 
Q 2116 1406 1581 1522 
L 1381 1569 
Q 847 1681 609 1914 
Q 372 2147 372 2553 
Q 372 3047 722 3315 
Q 1072 3584 1716 3584 
Q 2034 3584 2315 3537 
Q 2597 3491 2834 3397 
z
" transform="scale(0.015625)"/>
       <path id="DejaVuSans-65" d="M 3597 1894 
L 3597 1613 
L 953 1613 
Q 991 1019 1311 708 
Q 1631 397 2203 397 
Q 2534 397 2845 478 
Q 3156 559 3463 722 
L 3463 178 
Q 3153 47 2828 -22 
Q 2503 -91 2169 -91 
Q 1331 -91 842 396 
Q 353 884 353 1716 
Q 353 2575 817 3079 
Q 1281 3584 2069 3584 
Q 2775 3584 3186 3129 
Q 3597 2675 3597 1894 
z
M 3022 2063 
Q 3016 2534 2758 2815 
Q 2500 3097 2075 3097 
Q 1594 3097 1305 2825 
Q 1016 2553 972 2059 
L 3022 2063 
z
" transform="scale(0.015625)"/>
       <path id="DejaVuSans-20" transform="scale(0.015625)"/>
       <path id="DejaVuSans-50" d="M 1259 4147 
L 1259 2394 
L 2053 2394 
Q 2494 2394 2734 2622 
Q 2975 2850 2975 3272 
Q 2975 3691 2734 3919 
Q 2494 4147 2053 4147 
L 1259 4147 
z
M 628 4666 
L 2053 4666 
Q 2838 4666 3239 4311 
Q 3641 3956 3641 3272 
Q 3641 2581 3239 2228 
Q 2838 1875 2053 1875 
L 1259 1875 
L 1259 0 
L 628 0 
L 628 4666 
z
" transform="scale(0.015625)"/>
       <path id="DejaVuSans-6f" d="M 1959 3097 
Q 1497 3097 1228 2736 
Q 959 2375 959 1747 
Q 959 1119 1226 758 
Q 1494 397 1959 397 
Q 2419 397 2687 759 
Q 2956 1122 2956 1747 
Q 2956 2369 2687 2733 
Q 2419 3097 1959 3097 
z
M 1959 3584 
Q 2709 3584 3137 3096 
Q 3566 2609 3566 1747 
Q 3566 888 3137 398 
Q 2709 -91 1959 -91 
Q 1206 -91 779 398 
Q 353 888 353 1747 
Q 353 2609 779 3096 
Q 1206 3584 1959 3584 
z
" transform="scale(0.015625)"/>
       <path id="DejaVuSans-69" d="M 603 3500 
L 1178 3500 
L 1178 0 
L 603 0 
L 603 3500 
z
M 603 4863 
L 1178 4863 
L 1178 4134 
L 603 4134 
L 603 4863 
z
" transform="scale(0.015625)"/>
       <path id="DejaVuSans-74" d="M 1172 4494 
L 1172 3500 
L 2356 3500 
L 2356 3053 
L 1172 3053 
L 1172 1153 
Q 1172 725 1289 603 
Q 1406 481 1766 481 
L 2356 481 
L 2356 0 
L 1766 0 
Q 1100 0 847 248 
Q 594 497 594 1153 
L 594 3053 
L 172 3053 
L 172 3500 
L 594 3500 
L 594 4494 
L 1172 4494 
z
" transform="scale(0.015625)"/>
       <path id="DejaVuSans-76" d="M 191 3500 
L 800 3500 
L 1894 563 
L 2988 3500 
L 3597 3500 
L 2284 0 
L 1503 0 
L 191 3500 
z
" transform="scale(0.015625)"/>
       <path id="DejaVuSans-52" d="M 2841 2188 
Q 3044 2119 3236 1894 
Q 3428 1669 3622 1275 
L 4263 0 
L 3584 0 
L 2988 1197 
Q 2756 1666 2539 1819 
Q 2322 1972 1947 1972 
L 1259 1972 
L 1259 0 
L 628 0 
L 628 4666 
L 2053 4666 
Q 2853 4666 3247 4331 
Q 3641 3997 3641 3322 
Q 3641 2881 3436 2590 
Q 3231 2300 2841 2188 
z
M 1259 4147 
L 1259 2491 
L 2053 2491 
Q 2509 2491 2742 2702 
Q 2975 2913 2975 3322 
Q 2975 3731 2742 3939 
Q 2509 4147 2053 4147 
L 1259 4147 
z
" transform="scale(0.015625)"/>
      </defs>
      <use xlink:href="#DejaVuSans-46"/>
      <use xlink:href="#DejaVuSans-61" x="48.394531"/>
      <use xlink:href="#DejaVuSans-6c" x="109.673828"/>
      <use xlink:href="#DejaVuSans-73" x="137.457031"/>
      <use xlink:href="#DejaVuSans-65" x="189.556641"/>
      <use xlink:href="#DejaVuSans-20" x="251.080078"/>
      <use xlink:href="#DejaVuSans-50" x="282.867188"/>
      <use xlink:href="#DejaVuSans-6f" x="339.544922"/>
      <use xlink:href="#DejaVuSans-73" x="400.726562"/>
      <use xlink:href="#DejaVuSans-69" x="452.826172"/>
      <use xlink:href="#DejaVuSans-74" x="480.609375"/>
      <use xlink:href="#DejaVuSans-69" x="519.818359"/>
      <use xlink:href="#DejaVuSans-76" x="547.601562"/>
      <use xlink:href="#DejaVuSans-65" x="606.78125"/>
      <use xlink:href="#DejaVuSans-20" x="668.304688"/>
      <use xlink:href="#DejaVuSans-52" x="700.091797"/>
      <use xlink:href="#DejaVuSans-61" x="767.324219"/>
      <use xlink:href="#DejaVuSans-74" x="828.603516"/>
      <use xlink:href="#DejaVuSans-65" x="867.8125"/>
     </g>
    </g>
   </g>
   <g id="matplotlib.axis_2">
    <g id="ytick_1">
     <g id="line2d_7">
      <defs>
       <path id="m71e6b532d4" d="M 0 0 
L -3.5 0 
" style="stroke: #000000; stroke-width: 0.8"/>
      </defs>
      <g>
       <use xlink:href="#m71e6b532d4" x="57.6" y="307.584" style="stroke: #000000; stroke-width: 0.8"/>
      </g>
     </g>
     <g id="text_8">
      <!-- 0.0 -->
      <g transform="translate(34.696875 311.383219)scale(0.1 -0.1)">
       <use xlink:href="#DejaVuSans-30"/>
       <use xlink:href="#DejaVuSans-2e" x="63.623047"/>
       <use xlink:href="#DejaVuSans-30" x="95.410156"/>
      </g>
     </g>
    </g>
    <g id="ytick_2">
     <g id="line2d_8">
      <g>
       <use xlink:href="#m71e6b532d4" x="57.6" y="256.896" style="stroke: #000000; stroke-width: 0.8"/>
      </g>
     </g>
     <g id="text_9">
      <!-- 0.2 -->
      <g transform="translate(34.696875 260.695219)scale(0.1 -0.1)">
       <use xlink:href="#DejaVuSans-30"/>
       <use xlink:href="#DejaVuSans-2e" x="63.623047"/>
       <use xlink:href="#DejaVuSans-32" x="95.410156"/>
      </g>
     </g>
    </g>
    <g id="ytick_3">
     <g id="line2d_9">
      <g>
       <use xlink:href="#m71e6b532d4" x="57.6" y="206.208" style="stroke: #000000; stroke-width: 0.8"/>
      </g>
     </g>
     <g id="text_10">
      <!-- 0.4 -->
      <g transform="translate(34.696875 210.007219)scale(0.1 -0.1)">
       <use xlink:href="#DejaVuSans-30"/>
       <use xlink:href="#DejaVuSans-2e" x="63.623047"/>
       <use xlink:href="#DejaVuSans-34" x="95.410156"/>
      </g>
     </g>
    </g>
    <g id="ytick_4">
     <g id="line2d_10">
      <g>
       <use xlink:href="#m71e6b532d4" x="57.6" y="155.52" style="stroke: #000000; stroke-width: 0.8"/>
      </g>
     </g>
     <g id="text_11">
      <!-- 0.6 -->
      <g transform="translate(34.696875 159.319219)scale(0.1 -0.1)">
       <use xlink:href="#DejaVuSans-30"/>
       <use xlink:href="#DejaVuSans-2e" x="63.623047"/>
       <use xlink:href="#DejaVuSans-36" x="95.410156"/>
      </g>
     </g>
    </g>
    <g id="ytick_5">
     <g id="line2d_11">
      <g>
       <use xlink:href="#m71e6b532d4" x="57.6" y="104.832" style="stroke: #000000; stroke-width: 0.8"/>
      </g>
     </g>
     <g id="text_12">
      <!-- 0.8 -->
      <g transform="translate(34.696875 108.631219)scale(0.1 -0.1)">
       <use xlink:href="#DejaVuSans-30"/>
       <use xlink:href="#DejaVuSans-2e" x="63.623047"/>
       <use xlink:href="#DejaVuSans-38" x="95.410156"/>
      </g>
     </g>
    </g>
    <g id="ytick_6">
     <g id="line2d_12">
      <g>
       <use xlink:href="#m71e6b532d4" x="57.6" y="54.144" style="stroke: #000000; stroke-width: 0.8"/>
      </g>
     </g>
     <g id="text_13">
      <!-- 1.0 -->
      <g transform="translate(34.696875 57.943219)scale(0.1 -0.1)">
       <use xlink:href="#DejaVuSans-31"/>
       <use xlink:href="#DejaVuSans-2e" x="63.623047"/>
       <use xlink:href="#DejaVuSans-30" x="95.410156"/>
      </g>
     </g>
    </g>
    <g id="text_14">
     <!-- True Positive Rate -->
     <g transform="translate(28.617187 219.057687)rotate(-90)scale(0.1 -0.1)">
      <defs>
       <path id="DejaVuSans-54" d="M -19 4666 
L 3928 4666 
L 3928 4134 
L 2272 4134 
L 2272 0 
L 1638 0 
L 1638 4134 
L -19 4134 
L -19 4666 
z
" transform="scale(0.015625)"/>
       <path id="DejaVuSans-72" d="M 2631 2963 
Q 2534 3019 2420 3045 
Q 2306 3072 2169 3072 
Q 1681 3072 1420 2755 
Q 1159 2438 1159 1844 
L 1159 0 
L 581 0 
L 581 3500 
L 1159 3500 
L 1159 2956 
Q 1341 3275 1631 3429 
Q 1922 3584 2338 3584 
Q 2397 3584 2469 3576 
Q 2541 3569 2628 3553 
L 2631 2963 
z
" transform="scale(0.015625)"/>
       <path id="DejaVuSans-75" d="M 544 1381 
L 544 3500 
L 1119 3500 
L 1119 1403 
Q 1119 906 1312 657 
Q 1506 409 1894 409 
Q 2359 409 2629 706 
Q 2900 1003 2900 1516 
L 2900 3500 
L 3475 3500 
L 3475 0 
L 2900 0 
L 2900 538 
Q 2691 219 2414 64 
Q 2138 -91 1772 -91 
Q 1169 -91 856 284 
Q 544 659 544 1381 
z
M 1991 3584 
L 1991 3584 
z
" transform="scale(0.015625)"/>
      </defs>
      <use xlink:href="#DejaVuSans-54"/>
      <use xlink:href="#DejaVuSans-72" x="46.333984"/>
      <use xlink:href="#DejaVuSans-75" x="87.447266"/>
      <use xlink:href="#DejaVuSans-65" x="150.826172"/>
      <use xlink:href="#DejaVuSans-20" x="212.349609"/>
      <use xlink:href="#DejaVuSans-50" x="244.136719"/>
      <use xlink:href="#DejaVuSans-6f" x="300.814453"/>
      <use xlink:href="#DejaVuSans-73" x="361.996094"/>
      <use xlink:href="#DejaVuSans-69" x="414.095703"/>
      <use xlink:href="#DejaVuSans-74" x="441.878906"/>
      <use xlink:href="#DejaVuSans-69" x="481.087891"/>
      <use xlink:href="#DejaVuSans-76" x="508.871094"/>
      <use xlink:href="#DejaVuSans-65" x="568.050781"/>
      <use xlink:href="#DejaVuSans-20" x="629.574219"/>
      <use xlink:href="#DejaVuSans-52" x="661.361328"/>
      <use xlink:href="#DejaVuSans-61" x="728.59375"/>
      <use xlink:href="#DejaVuSans-74" x="789.873047"/>
      <use xlink:href="#DejaVuSans-65" x="829.082031"/>
     </g>
    </g>
   </g>
   <g id="line2d_13">
    <path d="M 74.605714 307.584 
L 74.713369 307.474303 
L 74.824341 307.393582 
L 74.970314 307.283885 
L 75.072412 307.207304 
L 75.081245 307.207304 
L 75.237916 307.097606 
L 75.341673 307.025165 
L 75.348598 307.025165 
L 75.503694 306.915468 
L 75.614044 306.803701 
L 75.614625 306.803701 
L 75.755497 306.694003 
L 75.863234 306.607073 
L 75.866552 306.607073 
L 75.984201 306.497376 
L 76.094593 306.37526 
L 76.094841 306.37526 
L 76.212905 306.265563 
L 76.320726 306.184842 
L 76.324002 306.184842 
L 76.427095 306.075145 
L 76.535911 305.955099 
L 76.537984 305.955099 
L 76.678649 305.845402 
L 76.787921 305.715007 
L 76.789414 305.715007 
L 76.91432 305.60531 
L 77.023052 305.491473 
L 77.024919 305.491473 
L 77.107484 305.381776 
L 77.216425 305.263799 
L 77.21854 305.263799 
L 77.307575 305.154102 
L 77.418588 304.9968 
L 77.506918 304.887103 
L 77.615236 304.752569 
L 77.618015 304.752569 
L 77.704189 304.642872 
L 77.704189 304.641837 
L 77.821547 304.4835 
L 77.892543 304.373803 
L 78.003598 304.249617 
L 78.00364 304.249617 
L 78.073184 304.13992 
L 78.183493 303.997107 
L 78.183783 303.997107 
L 78.253576 303.887409 
L 78.362309 303.732177 
L 78.364631 303.732177 
L 78.442926 303.62248 
L 78.553649 303.465178 
L 78.554022 303.465178 
L 78.648573 303.355481 
L 78.756601 303.216807 
L 78.759669 303.216807 
L 78.832324 303.10711 
L 78.940601 302.943599 
L 78.943421 302.943599 
L 79.024328 302.833902 
L 79.134636 302.67246 
L 79.135383 302.67246 
L 79.233665 302.562763 
L 79.343145 302.41788 
L 79.344721 302.41788 
L 79.442464 302.308183 
L 79.556837 302.138462 
L 79.632933 302.028765 
L 79.743118 301.869394 
L 79.743989 301.869394 
L 79.815897 301.759696 
L 79.926288 301.602395 
L 79.926993 301.602395 
L 79.990193 301.492697 
L 80.101165 301.29607 
L 80.10129 301.29607 
L 80.196006 301.186373 
L 80.306273 301.024932 
L 80.306937 301.024932 
L 80.386848 300.915234 
L 80.49753 300.774491 
L 80.497945 300.774491 
L 80.600001 300.664793 
L 80.710518 300.517841 
L 80.793622 300.408143 
L 80.903226 300.246702 
L 80.904719 300.246702 
L 80.977208 300.13597 
L 81.08818 299.971424 
L 81.088304 299.971424 
L 81.155858 299.861727 
L 81.266623 299.681658 
L 81.266913 299.681658 
L 81.332124 299.57196 
L 81.444569 299.410519 
L 81.510007 299.300822 
L 81.621021 299.126962 
L 81.700394 299.017265 
L 81.81514 298.835126 
L 81.883399 298.725429 
L 81.994246 298.580546 
L 81.994412 298.580546 
L 82.063874 298.470848 
L 82.17439 298.28043 
L 82.17497 298.28043 
L 82.250569 298.170733 
L 82.360671 297.980315 
L 82.361624 297.980315 
L 82.425819 297.872688 
L 82.536418 297.705037 
L 82.536709 297.705037 
L 82.603723 297.59534 
L 82.713368 297.415271 
L 82.714156 297.415271 
L 82.792451 297.305574 
L 82.903299 297.090319 
L 82.987647 296.980621 
L 83.09862 296.779855 
L 83.098744 296.779855 
L 83.174758 296.670157 
L 83.285647 296.4756 
L 83.285792 296.4756 
L 83.367964 296.365903 
L 83.478936 296.146508 
L 83.5496 296.036811 
L 83.66501 295.817416 
L 83.732978 295.707719 
L 83.843536 295.500743 
L 83.843826 295.500743 
L 83.898483 295.391046 
L 84.008792 295.250302 
L 84.072613 295.142675 
L 84.072613 295.140605 
L 84.180931 294.890164 
L 84.183627 294.890164 
L 84.250103 294.780467 
L 84.360245 294.573491 
L 84.361199 294.573491 
L 84.431283 294.463794 
L 84.541467 294.219562 
L 84.542338 294.219562 
L 84.599192 294.109865 
L 84.718168 293.911168 
L 84.782363 293.80147 
L 84.897897 293.569657 
L 84.957696 293.45996 
L 85.068005 293.238496 
L 85.068793 293.238496 
L 85.128301 293.128799 
L 85.239066 292.917683 
L 85.239315 292.917683 
L 85.313836 292.807986 
L 85.424725 292.60308 
L 85.424808 292.60308 
L 85.481704 292.493382 
L 85.592469 292.302964 
L 85.592759 292.302964 
L 85.641445 292.193267 
L 85.7525 291.965594 
L 85.752541 291.965594 
L 85.808815 291.855896 
L 85.919332 291.634432 
L 85.919912 291.634432 
L 85.963787 291.524735 
L 86.079362 291.299131 
L 86.143018 291.189434 
L 86.251046 290.970039 
L 86.254115 290.970039 
L 86.317895 290.860342 
L 86.428452 290.632668 
L 86.428991 290.632668 
L 86.482819 290.522971 
L 86.599016 290.268391 
L 86.656659 290.158693 
L 86.767113 289.935159 
L 86.767631 289.935159 
L 86.826891 289.825462 
L 86.9423 289.610207 
L 87.013213 289.50051 
L 87.128664 289.283185 
L 87.188007 289.173488 
L 87.296242 288.98307 
L 87.299104 288.98307 
L 87.377647 288.873373 
L 87.488661 288.658118 
L 87.533199 288.54842 
L 87.643051 288.351793 
L 87.643839 288.351793 
L 87.703099 288.242096 
L 87.819089 287.995795 
L 87.875737 287.886097 
L 87.986709 287.650145 
L 87.986833 287.650145 
L 88.047835 287.540448 
L 88.15889 287.337611 
L 88.209483 287.227914 
L 88.334099 287.00438 
L 88.407085 286.894682 
L 88.522992 286.650451 
L 88.588763 286.540754 
L 88.697288 286.31722 
L 88.699818 286.31722 
L 88.750535 286.207522 
L 88.859309 286.004686 
L 88.861632 286.004686 
L 88.924624 285.894989 
L 89.035389 285.690082 
L 89.035596 285.690082 
L 89.092783 285.580385 
L 89.20276 285.354781 
L 89.203838 285.354781 
L 89.281717 285.245084 
L 89.395012 285.02155 
L 89.450581 284.911853 
L 89.570262 284.698667 
L 89.623426 284.58897 
L 89.732034 284.328181 
L 89.734315 284.328181 
L 89.800666 284.218483 
L 89.911597 283.98667 
L 89.911763 283.98667 
L 89.979939 283.876973 
L 90.090289 283.614113 
L 90.090911 283.614113 
L 90.132546 283.504416 
L 90.248412 283.249836 
L 90.306428 283.140138 
L 90.416861 282.943511 
L 90.417525 282.943511 
L 90.465007 282.833814 
L 90.574694 282.657884 
L 90.576104 282.657884 
L 90.633415 282.548187 
L 90.743309 282.332932 
L 90.744511 282.332932 
L 90.797344 282.223235 
L 90.913126 281.989352 
L 90.974625 281.879655 
L 91.085598 281.654051 
L 91.085722 281.654051 
L 91.144526 281.544354 
L 91.255042 281.322889 
L 91.255208 281.322889 
L 91.309948 281.213192 
L 91.420422 280.983449 
L 91.421003 280.983449 
L 91.468776 280.873752 
L 91.578504 280.664706 
L 91.579872 280.664706 
L 91.639879 280.555009 
L 91.750934 280.341823 
L 91.805715 280.232126 
L 91.91648 279.977546 
L 91.91677 279.977546 
L 91.961889 279.867848 
L 92.071908 279.636035 
L 92.072903 279.636035 
L 92.125735 279.526338 
L 92.235712 279.280037 
L 92.236832 279.280037 
L 92.296299 279.170339 
L 92.405571 278.911619 
L 92.407354 278.911619 
L 92.466738 278.801922 
L 92.577462 278.545272 
L 92.577794 278.545272 
L 92.634151 278.435575 
L 92.74956 278.22032 
L 92.797167 278.110623 
L 92.908264 277.899507 
L 92.974366 277.78981 
L 93.084509 277.53109 
L 93.084965 277.53109 
L 93.136056 277.421393 
L 93.257769 277.154394 
L 93.315826 277.044696 
L 93.426176 276.814953 
L 93.426632 276.814953 
L 93.479008 276.705256 
L 93.585502 276.456885 
L 93.590022 276.456885 
L 93.632072 276.346152 
L 93.74263 276.06777 
L 93.802097 275.958072 
L 93.918045 275.711771 
L 93.972495 275.602074 
L 94.082969 275.3744 
L 94.08355 275.3744 
L 94.134806 275.264703 
L 94.245737 274.985285 
L 94.245862 274.985285 
L 94.297408 274.875588 
L 94.40809 274.647915 
L 94.408173 274.647915 
L 94.448813 274.538217 
L 94.55908 274.316753 
L 94.55991 274.316753 
L 94.612659 274.207056 
L 94.729105 273.940057 
L 94.780279 273.83036 
L 94.890546 273.586128 
L 94.891334 273.586128 
L 94.940226 273.4785 
L 95.056797 273.201153 
L 95.103118 273.091455 
L 95.213883 272.841014 
L 95.214132 272.841014 
L 95.260661 272.733387 
L 95.371758 272.482946 
L 95.42376 272.373249 
L 95.533675 272.129017 
L 95.53465 272.129017 
L 95.57135 272.01932 
L 95.687506 271.764739 
L 95.743241 271.655042 
L 95.859563 271.388043 
L 95.911897 271.278346 
L 96.030583 271.027905 
L 96.096685 270.918208 
L 96.207201 270.663627 
L 96.207782 270.663627 
L 96.276995 270.55393 
L 96.393005 270.309698 
L 96.434371 270.200001 
L 96.550569 269.945421 
L 96.601742 269.835723 
L 96.711968 269.599771 
L 96.712714 269.599771 
L 96.774006 269.490074 
L 96.896714 269.202377 
L 96.959458 269.09268 
L 97.069808 268.836029 
L 97.070513 268.836029 
L 97.116751 268.726332 
L 97.226977 268.463473 
L 97.227433 268.463473 
L 97.274086 268.353775 
L 97.385183 268.14266 
L 97.435734 268.032963 
L 97.546665 267.805289 
L 97.54681 267.805289 
L 97.592406 267.695592 
L 97.703378 267.445151 
L 97.703461 267.445151 
L 97.751359 267.335454 
L 97.868302 267.037408 
L 97.91027 266.927711 
L 98.021117 266.685549 
L 98.021366 266.685549 
L 98.067149 266.575852 
L 98.18318 266.327481 
L 98.237671 266.217784 
L 98.346362 266.010808 
L 98.348768 266.010808 
L 98.401973 265.90111 
L 98.512199 265.652739 
L 98.51307 265.652739 
L 98.568307 265.543042 
L 98.677579 265.30502 
L 98.679155 265.30502 
L 98.731116 265.195322 
L 98.840844 264.95316 
L 98.842213 264.95316 
L 98.881402 264.843463 
L 98.992125 264.599231 
L 98.992498 264.599231 
L 99.036124 264.489534 
L 99.147221 264.253582 
L 99.19603 264.143884 
L 99.305987 263.862397 
L 99.307086 263.862397 
L 99.368834 263.7527 
L 99.485404 263.479492 
L 99.532804 263.369794 
L 99.643403 263.106935 
L 99.643776 263.106935 
L 99.6896 262.997238 
L 99.800158 262.732308 
L 99.800697 262.732308 
L 99.844074 262.624681 
L 99.952475 262.365961 
L 99.955129 262.365961 
L 100.01385 262.256264 
L 100.124117 261.991334 
L 100.124905 261.991334 
L 100.177364 261.881637 
L 100.29775 261.651894 
L 100.344714 261.542196 
L 100.458485 261.271058 
L 100.51223 261.161361 
L 100.623161 260.90471 
L 100.623306 260.90471 
L 100.671514 260.795013 
L 100.788458 260.501107 
L 100.842368 260.39141 
L 100.953216 260.163737 
L 100.953424 260.163737 
L 101.075675 259.886389 
L 101.128093 259.776691 
L 101.238236 259.536599 
L 101.239065 259.536599 
L 101.308029 259.426902 
L 101.429472 259.170252 
L 101.478676 259.062624 
L 101.588238 258.799765 
L 101.589772 258.799765 
L 101.643019 258.692137 
L 101.753411 258.425138 
L 101.754075 258.425138 
L 101.797286 258.315441 
L 101.913815 258.044303 
L 101.97154 257.934605 
L 102.080605 257.659327 
L 102.082596 257.659327 
L 102.133603 257.54963 
L 102.244513 257.315747 
L 102.2447 257.315747 
L 102.293468 257.20605 
L 102.409499 256.957679 
L 102.456111 256.850051 
L 102.569364 256.624448 
L 102.607765 256.51475 
L 102.718364 256.297426 
L 102.718862 256.297426 
L 102.763524 256.187728 
L 102.877275 255.918659 
L 102.937572 255.808962 
L 103.058621 255.554382 
L 103.112988 255.444685 
L 103.223794 255.217011 
L 103.224043 255.217011 
L 103.287823 255.107314 
L 103.398878 254.838245 
L 103.452457 254.728548 
L 103.562226 254.465688 
L 103.563553 254.465688 
L 103.610953 254.355991 
L 103.727441 254.086922 
L 103.767873 253.977225 
L 103.878887 253.701947 
L 103.927489 253.59225 
L 104.038586 253.300414 
L 104.087313 253.190716 
L 104.196916 252.963043 
L 104.198409 252.963043 
L 104.257047 252.853345 
L 104.373742 252.573928 
L 104.42137 252.464231 
L 104.534602 252.242766 
L 104.575035 252.133069 
L 104.684556 251.884698 
L 104.68609 251.884698 
L 104.724823 251.775001 
L 104.840274 251.555606 
L 104.898787 251.445909 
L 105.007354 251.214096 
L 105.009884 251.214096 
L 105.054588 251.104399 
L 105.165602 250.862237 
L 105.165685 250.862237 
L 105.213914 250.752539 
L 105.323974 250.500029 
L 105.324844 250.500029 
L 105.370378 250.390331 
L 105.486783 250.121263 
L 105.539242 250.011565 
L 105.6549 249.775613 
L 105.701097 249.665916 
L 105.807383 249.405126 
L 105.812111 249.405126 
L 105.854119 249.295429 
L 105.969321 249.088453 
L 106.018753 248.978755 
L 106.018753 248.97772 
L 106.140487 248.711756 
L 106.193962 248.602059 
L 106.303358 248.370246 
L 106.305017 248.370246 
L 106.348726 248.260549 
L 106.458827 248.045294 
L 106.459822 248.045294 
L 106.523519 247.935597 
L 106.634036 247.666528 
L 106.634616 247.666528 
L 106.700553 247.55683 
L 106.810737 247.30225 
L 106.811566 247.30225 
L 106.879245 247.192553 
L 106.995732 246.919345 
L 107.045662 246.809647 
L 107.161818 246.555067 
L 107.211436 246.44537 
L 107.330557 246.178371 
L 107.379947 246.068673 
L 107.500374 245.830651 
L 107.548728 245.720954 
L 107.664967 245.460164 
L 107.715269 245.350467 
L 107.82591 245.089677 
L 107.826283 245.089677 
L 107.87136 244.982049 
L 107.979595 244.727469 
L 107.982457 244.727469 
L 108.037196 244.617772 
L 108.148044 244.37768 
L 108.148293 244.37768 
L 108.194324 244.267982 
L 108.305234 243.994774 
L 108.305421 243.994774 
L 108.355558 243.885077 
L 108.466405 243.640845 
L 108.466654 243.640845 
L 108.511856 243.531148 
L 108.634979 243.233103 
L 108.69428 243.123405 
L 108.810063 242.887453 
L 108.856509 242.777755 
L 108.995307 242.436245 
L 109.047268 242.326548 
L 109.169645 242.045061 
L 109.223887 241.935363 
L 109.334113 241.689062 
L 109.334983 241.689062 
L 109.383917 241.579365 
L 109.494931 241.337203 
L 109.495014 241.337203 
L 109.544695 241.227505 
L 109.661182 240.952227 
L 109.721272 240.84253 
L 109.834525 240.621066 
L 109.877363 240.511369 
L 109.984852 240.267137 
L 109.988459 240.267137 
L 110.035983 240.15744 
L 110.14708 239.921487 
L 110.197383 239.81179 
L 110.307277 239.573767 
L 110.308479 239.573767 
L 110.357621 239.46407 
L 110.474108 239.195001 
L 110.519683 239.085304 
L 110.639613 238.86591 
L 110.692051 238.756212 
L 110.805574 238.511981 
L 110.858323 238.402284 
L 110.973359 238.199447 
L 111.02304 238.08975 
L 111.133017 237.83103 
L 111.134095 237.83103 
L 111.187176 237.721333 
L 111.314487 237.454334 
L 111.370968 237.344636 
L 111.481277 237.116963 
L 111.481899 237.116963 
L 111.541574 237.007266 
L 111.650639 236.750615 
L 111.652588 236.750615 
L 111.706871 236.640918 
L 111.823608 236.357361 
L 111.865119 236.247664 
L 111.98115 236.001362 
L 112.022081 235.891665 
L 112.138983 235.601899 
L 112.190986 235.492201 
L 112.312699 235.227272 
L 112.372166 235.117575 
L 112.48177 234.875413 
L 112.48318 234.875413 
L 112.534146 234.765716 
L 112.649389 234.55874 
L 112.704834 234.449043 
L 112.815723 234.206881 
L 112.815889 234.206881 
L 112.866606 234.097183 
L 112.976625 233.873649 
L 112.977703 233.873649 
L 113.029187 233.763952 
L 113.153368 233.503162 
L 113.209227 233.393465 
L 113.319577 233.145094 
L 113.320324 233.145094 
L 113.38456 233.035397 
L 113.500239 232.807723 
L 113.55699 232.698026 
L 113.673022 232.449655 
L 113.721541 232.339958 
L 113.837365 232.099865 
L 113.905873 231.990168 
L 114.026217 231.760425 
L 114.082864 231.650728 
L 114.198896 231.400287 
L 114.248245 231.290589 
L 114.359258 231.073265 
L 114.359341 231.073265 
L 114.406782 230.963567 
L 114.514727 230.717266 
L 114.517879 230.717266 
L 114.571167 230.609638 
L 114.681186 230.352988 
L 114.68214 230.352988 
L 114.734681 230.243291 
L 114.844949 229.99492 
L 114.845737 229.99492 
L 114.898071 229.885223 
L 115.00867 229.661689 
L 115.009126 229.661689 
L 115.069257 229.551991 
L 115.184625 229.338806 
L 115.243097 229.229109 
L 115.363483 228.999365 
L 115.421001 228.889668 
L 115.545409 228.624739 
L 115.59903 228.515042 
L 115.714771 228.277019 
L 115.763663 228.167322 
L 115.885749 227.892044 
L 115.940323 227.782347 
L 116.071201 227.538115 
L 116.121794 227.428418 
L 116.232559 227.238 
L 116.23289 227.238 
L 116.297458 227.128303 
L 116.408431 226.869583 
L 116.408555 226.869583 
L 116.472791 226.759885 
L 116.587993 226.538421 
L 116.651566 226.428724 
L 116.761916 226.20312 
L 116.76258 226.20312 
L 116.821964 226.093423 
L 116.932646 225.890586 
L 116.933061 225.890586 
L 117.046646 225.638076 
L 117.1035 225.528378 
L 117.212482 225.308984 
L 117.214597 225.308984 
L 117.274603 225.199287 
L 117.384829 225.00059 
L 117.385659 225.00059 
L 117.45653 224.890893 
L 117.567005 224.696335 
L 117.567461 224.696335 
L 117.621205 224.586638 
L 117.737486 224.327918 
L 117.785383 224.218221 
L 117.896023 223.969849 
L 117.896272 223.969849 
L 117.948772 223.860152 
L 118.058542 223.655246 
L 118.059828 223.655246 
L 118.109633 223.545549 
L 118.218075 223.309596 
L 118.220646 223.309596 
L 118.288324 223.199899 
L 118.397306 222.968086 
L 118.399421 222.968086 
L 118.449765 222.858389 
L 118.566336 222.58518 
L 118.626093 222.475483 
L 118.746293 222.249879 
L 118.805781 222.140182 
L 118.916338 221.941485 
L 118.916794 221.941485 
L 119.042405 221.701393 
L 119.122068 221.591696 
L 119.232584 221.339185 
L 119.233082 221.339185 
L 119.301382 221.229488 
L 119.411442 221.001814 
L 119.412396 221.001814 
L 119.461371 220.892117 
L 119.577486 220.637536 
L 119.636704 220.527839 
L 119.746764 220.327072 
L 119.747801 220.327072 
L 119.819999 220.217375 
L 119.931096 220.00419 
L 119.992637 219.894493 
L 120.113271 219.65854 
L 120.180908 219.548843 
L 120.292005 219.333588 
L 120.357568 219.222856 
L 120.487824 218.985868 
L 120.54107 218.876171 
L 120.651752 218.650567 
L 120.652167 218.650567 
L 120.710929 218.54087 
L 120.826049 218.338033 
L 120.89298 218.228336 
L 121.006441 217.990314 
L 121.062673 217.882686 
L 121.172816 217.665362 
L 121.173646 217.665362 
L 121.233776 217.555664 
L 121.34902 217.348688 
L 121.409358 217.238991 
L 121.526841 217.027876 
L 121.574821 216.918178 
L 121.682766 216.700854 
L 121.685918 216.700854 
L 121.752269 216.591156 
L 121.867471 216.38625 
L 121.924699 216.276553 
L 122.043758 216.075786 
L 122.092651 215.966089 
L 122.207645 215.769462 
L 122.275324 215.661834 
L 122.385632 215.461068 
L 122.386379 215.461068 
L 122.447546 215.35137 
L 122.558456 215.158883 
L 122.558643 215.158883 
L 122.622257 215.049185 
L 122.741606 214.844279 
L 122.804889 214.734582 
L 122.914244 214.550373 
L 122.915902 214.550373 
L 122.976945 214.440676 
L 123.089742 214.270956 
L 123.147468 214.161258 
L 123.262255 213.97291 
L 123.345028 213.863213 
L 123.464253 213.662446 
L 123.517417 213.552749 
L 123.637927 213.366471 
L 123.707389 213.256773 
L 123.816951 213.053937 
L 123.818485 213.053937 
L 123.938166 212.840752 
L 123.998795 212.731055 
L 124.107901 212.524079 
L 124.109725 212.524079 
L 124.180058 212.414381 
L 124.293186 212.201196 
L 124.35763 212.091499 
L 124.472127 211.919709 
L 124.531553 211.810011 
L 124.640659 211.600966 
L 124.642608 211.600966 
L 124.697721 211.491268 
L 124.812965 211.284293 
L 124.882633 211.176665 
L 124.882633 211.174595 
L 124.997525 210.984177 
L 125.059708 210.87448 
L 125.179389 210.659225 
L 125.250758 210.549528 
L 125.371766 210.301157 
L 125.435587 210.191459 
L 125.546062 209.994832 
L 125.54656 209.994832 
L 125.60105 209.885135 
L 125.71646 209.66574 
L 125.775803 209.556043 
L 125.888931 209.351137 
L 125.951011 209.24144 
L 126.061444 209.003417 
L 126.062066 209.003417 
L 126.120082 208.89372 
L 126.240883 208.649488 
L 126.296369 208.539791 
L 126.405931 208.347304 
L 126.407466 208.347304 
L 126.465316 208.237606 
L 126.580393 208.03684 
L 126.649813 207.927142 
L 126.76062 207.759492 
L 126.760868 207.759492 
L 126.806609 207.649795 
L 126.915508 207.451098 
L 126.917685 207.451098 
L 126.98244 207.3414 
L 127.097393 207.146843 
L 127.155202 207.037146 
L 127.269699 206.867425 
L 127.338911 206.757728 
L 127.449345 206.542473 
L 127.450008 206.542473 
L 127.506282 206.432776 
L 127.625134 206.240288 
L 127.680205 206.130591 
L 127.795905 205.900848 
L 127.870426 205.79115 
L 128.000184 205.588314 
L 128.063922 205.478617 
L 128.179373 205.259222 
L 128.248917 205.149525 
L 128.359973 204.954968 
L 128.360014 204.954968 
L 128.430015 204.84527 
L 128.545051 204.646573 
L 128.612024 204.536876 
L 128.726729 204.354737 
L 128.789721 204.24504 
L 128.899822 204.081529 
L 128.900776 204.081529 
L 128.980439 203.971832 
L 129.094646 203.81039 
L 129.16672 203.700693 
L 129.26662 203.528903 
L 129.277816 203.528903 
L 129.358889 203.419206 
L 129.473677 203.234997 
L 129.547119 203.1253 
L 129.661886 202.943161 
L 129.731658 202.833464 
L 129.841718 202.636837 
L 129.842672 202.636837 
L 129.904379 202.527139 
L 130.014978 202.421582 
L 130.015434 202.421582 
L 130.071625 202.311884 
L 130.186869 202.100769 
L 130.242272 201.991072 
L 130.357225 201.798584 
L 130.423825 201.688887 
L 130.536539 201.527446 
L 130.597002 201.417748 
L 130.70731 201.268726 
L 130.708098 201.268726 
L 130.77644 201.159028 
L 130.890937 200.983099 
L 130.954676 200.873401 
L 131.065772 200.705751 
L 131.185412 200.533961 
L 131.24463 200.426333 
L 131.24463 200.424264 
L 131.359832 200.217288 
L 131.428506 200.10759 
L 131.543459 199.913033 
L 131.605124 199.803336 
L 131.720078 199.606709 
L 131.820849 199.497011 
L 131.930286 199.325221 
L 131.931945 199.325221 
L 131.978598 199.215524 
L 132.0887 198.99199 
L 132.089695 198.99199 
L 132.163013 198.882293 
L 132.273073 198.693945 
L 132.274068 198.693945 
L 132.345645 198.584247 
L 132.460059 198.418667 
L 132.532299 198.308969 
L 132.641529 198.143388 
L 132.643354 198.143388 
L 132.713811 198.033691 
L 132.824783 197.884669 
L 132.878693 197.774971 
L 132.989085 197.582484 
L 132.989748 197.582484 
L 133.054648 197.472786 
L 133.164874 197.298927 
L 133.165537 197.298927 
L 133.241261 197.189229 
L 133.365835 196.967765 
L 133.454621 196.858068 
L 133.565054 196.690417 
L 133.565635 196.690417 
L 133.630783 196.58072 
L 133.748971 196.40479 
L 133.810844 196.295093 
L 133.920448 196.121233 
L 133.921816 196.121233 
L 134.006455 196.011536 
L 134.116806 195.856304 
L 134.117262 195.856304 
L 134.192322 195.746607 
L 134.32013 195.541701 
L 134.394153 195.432003 
L 134.509439 195.222958 
L 134.612946 195.11326 
L 134.730761 194.94561 
L 134.814695 194.835913 
L 134.928944 194.674471 
L 135.006616 194.564774 
L 135.115929 194.364007 
L 135.117671 194.364007 
L 135.189413 194.25431 
L 135.299805 194.103218 
L 135.30051 194.103218 
L 135.383988 193.99352 
L 135.493965 193.82587 
L 135.495023 193.82587 
L 135.571969 193.715138 
L 135.690676 193.525755 
L 135.753315 193.416057 
L 135.861675 193.256686 
L 135.864329 193.256686 
L 135.920292 193.146989 
L 136.036759 192.96692 
L 136.115841 192.857222 
L 136.225362 192.683363 
L 136.226689 192.683363 
L 136.305274 192.573665 
L 136.422259 192.428782 
L 136.513782 192.319085 
L 136.632634 192.126597 
L 136.702676 192.0169 
L 136.817339 191.836831 
L 136.881865 191.727134 
L 136.991075 191.567762 
L 136.992921 191.567762 
L 137.056452 191.458065 
L 137.173769 191.302833 
L 137.259072 191.193136 
L 137.37305 191.048252 
L 137.447301 190.938555 
L 137.558066 190.750207 
L 137.558191 190.750207 
L 137.656059 190.64051 
L 137.766181 190.456301 
L 137.767114 190.456301 
L 137.85702 190.346604 
L 137.971102 190.197581 
L 138.057048 190.087884 
L 138.172312 189.880908 
L 138.241234 189.771211 
L 138.354363 189.615979 
L 138.424695 189.506281 
L 138.539607 189.315864 
L 138.608944 189.206166 
L 138.718548 189.061283 
L 138.720041 189.061283 
L 138.805468 188.951586 
L 138.909059 188.771517 
L 138.916565 188.771517 
L 138.999587 188.66182 
L 139.1106 188.48589 
L 139.183753 188.376193 
L 139.30248 188.183705 
L 139.38687 188.074008 
L 139.504934 187.902218 
L 139.565769 187.79252 
L 139.67247 187.629009 
L 139.676824 187.629009 
L 139.778176 187.519312 
L 139.892673 187.343383 
L 139.962176 187.233685 
L 140.075885 187.101221 
L 140.161437 186.991523 
L 140.27104 186.788687 
L 140.272492 186.788687 
L 140.35427 186.67899 
L 140.471006 186.492711 
L 140.547932 186.383014 
L 140.666162 186.207085 
L 140.75051 186.097387 
L 140.859824 185.944225 
L 140.861566 185.944225 
L 140.937123 185.834528 
L 141.05162 185.664808 
L 141.117971 185.55511 
L 141.23533 185.399878 
L 141.31603 185.290181 
L 141.425385 185.099763 
L 141.427126 185.099763 
L 141.517405 184.990066 
L 141.627051 184.87002 
L 141.628378 184.87002 
L 141.722099 184.760323 
L 141.833154 184.60716 
L 141.833195 184.60716 
L 141.932224 184.497463 
L 142.051781 184.358789 
L 142.148135 184.249092 
L 142.264727 184.066953 
L 142.357618 183.957256 
L 142.471867 183.793745 
L 142.557377 183.684048 
L 142.675938 183.499839 
L 142.746643 183.390142 
L 142.860518 183.249398 
L 142.947687 183.139701 
L 143.061355 183.011376 
L 143.129116 182.901678 
L 143.245977 182.758865 
L 143.347743 182.649168 
L 143.458633 182.514633 
L 143.45884 182.514633 
L 143.558926 182.404936 
L 143.671288 182.274541 
L 143.750039 182.164844 
L 143.863623 182.038589 
L 143.943742 181.928891 
L 144.053056 181.777799 
L 144.054715 181.777799 
L 144.15391 181.667067 
L 144.264965 181.519079 
L 144.338117 181.409382 
L 144.455766 181.24794 
L 144.545299 181.138243 
L 144.665767 180.985081 
L 144.738256 180.875384 
L 144.856527 180.697384 
L 144.945313 180.587687 
L 145.059478 180.434525 
L 145.145818 180.324828 
L 145.253016 180.188223 
L 145.256832 180.188223 
L 145.360547 180.077491 
L 145.471063 179.881899 
L 145.471602 179.881899 
L 145.578593 179.772202 
L 145.692551 179.627319 
L 145.794691 179.517621 
L 145.905621 179.376878 
L 145.905746 179.376878 
L 146.028205 179.190599 
L 146.093686 179.080902 
L 146.203248 178.940158 
L 146.204699 178.940158 
L 146.284487 178.830461 
L 146.403338 178.637973 
L 146.495649 178.528276 
L 146.616574 178.366835 
L 146.704158 178.257138 
L 146.820106 178.097766 
L 146.90628 177.987034 
L 147.025463 177.787302 
L 147.10102 177.677605 
L 147.21473 177.54721 
L 147.290163 177.439583 
L 147.290163 177.437513 
L 147.404121 177.29263 
L 147.498837 177.182932 
L 147.616569 177.015282 
L 147.709046 176.905585 
L 147.823771 176.721376 
L 147.907892 176.610644 
L 148.017537 176.460586 
L 148.018947 176.460586 
L 148.118059 176.350889 
L 148.232722 176.17082 
L 148.308155 176.061123 
L 148.417489 175.926588 
L 148.419252 175.926588 
L 148.508287 175.816891 
L 148.627346 175.620264 
L 148.717376 175.510567 
L 148.830587 175.405009 
L 148.92547 175.295312 
L 149.036359 175.164917 
L 149.036566 175.164917 
L 149.116105 175.05522 
L 149.229855 174.918615 
L 149.311115 174.808918 
L 149.423559 174.672314 
L 149.525242 174.562617 
L 149.636215 174.426013 
L 149.741506 174.316315 
L 149.855713 174.156944 
L 149.937905 174.047247 
L 150.055139 173.896154 
L 150.150187 173.786457 
L 150.266053 173.668481 
L 150.361765 173.558783 
L 150.47199 173.376644 
L 150.472695 173.376644 
L 150.54846 173.266947 
L 150.662128 173.126204 
L 150.743242 173.016506 
L 150.857574 172.852995 
L 150.952 172.743298 
L 151.065916 172.600485 
L 151.164655 172.490787 
L 151.278489 172.347974 
L 151.406546 172.238277 
L 151.517477 172.095463 
L 151.517602 172.095463 
L 151.643959 171.985766 
L 151.757751 171.847092 
L 151.857568 171.737395 
L 151.971361 171.600791 
L 152.040511 171.491093 
L 152.153121 171.340001 
L 152.235438 171.230304 
L 152.345042 171.09163 
L 152.346535 171.09163 
L 152.42035 170.981933 
L 152.540156 170.839119 
L 152.62297 170.729422 
L 152.736514 170.607306 
L 152.831188 170.497609 
L 152.945769 170.3134 
L 153.047037 170.203703 
L 153.153945 170.104354 
L 153.158051 170.104354 
L 153.267696 169.994657 
L 153.38352 169.876681 
L 153.475043 169.766984 
L 153.582657 169.649007 
L 153.58614 169.649007 
L 153.683552 169.53931 
L 153.793239 169.419264 
L 153.794483 169.419264 
L 153.875721 169.309567 
L 153.984662 169.143986 
L 153.986694 169.143986 
L 154.082405 169.034289 
L 154.196363 168.887336 
L 154.286933 168.779708 
L 154.403918 168.632755 
L 154.473379 168.523058 
L 154.586632 168.413361 
L 154.67206 168.303664 
L 154.785313 168.196036 
L 154.858299 168.086339 
L 154.969396 167.978711 
L 155.06913 167.869014 
L 155.176826 167.744828 
L 155.180226 167.744828 
L 155.287549 167.637201 
L 155.401632 167.488178 
L 155.472337 167.378481 
L 155.583185 167.264644 
L 155.583413 167.264644 
L 155.666456 167.154947 
L 155.779916 167.034901 
L 155.894414 166.925204 
L 156.003934 166.794809 
L 156.00551 166.794809 
L 156.119178 166.664414 
L 156.213272 166.554717 
L 156.323788 166.43674 
L 156.324369 166.43674 
L 156.426467 166.327043 
L 156.54395 166.169741 
L 156.660894 166.060044 
L 156.765438 165.937928 
L 156.771783 165.937928 
L 156.877281 165.828231 
L 156.991011 165.697836 
L 157.116768 165.588139 
L 157.23027 165.463953 
L 157.330087 165.354256 
L 157.443464 165.23628 
L 157.530426 165.126582 
L 157.644674 164.969281 
L 157.769124 164.859583 
L 157.873917 164.712631 
L 157.880138 164.712631 
L 158.023912 164.602933 
L 158.141312 164.445632 
L 158.257302 164.335934 
L 158.36815 164.228307 
L 158.368358 164.228307 
L 158.49372 164.11861 
L 158.609793 163.994424 
L 158.713757 163.884727 
L 158.82448 163.760541 
L 158.824771 163.760541 
L 158.910778 163.650844 
L 159.026395 163.539077 
L 159.13293 163.42938 
L 159.246308 163.313473 
L 159.354336 163.203776 
L 159.470741 163.073381 
L 159.565332 162.963684 
L 159.676263 162.845707 
L 159.801708 162.73601 
L 159.920187 162.615964 
L 160.04418 162.506267 
L 160.152789 162.396569 
L 160.155194 162.396569 
L 160.265544 162.286872 
L 160.379419 162.148198 
L 160.499515 162.038501 
L 160.609492 161.912246 
L 160.610612 161.912246 
L 160.736969 161.802548 
L 160.850388 161.676293 
L 160.976704 161.566596 
L 161.093773 161.419643 
L 161.191931 161.309946 
L 161.306013 161.160923 
L 161.393846 161.053295 
L 161.506933 160.953947 
L 161.618278 160.84425 
L 161.729126 160.726273 
L 161.729292 160.726273 
L 161.843706 160.616576 
L 161.962516 160.490321 
L 162.082736 160.380624 
L 162.19628 160.256438 
L 162.325499 160.146741 
L 162.440618 160.047392 
L 162.579997 159.937695 
L 162.69296 159.821788 
L 162.818239 159.712091 
L 162.928133 159.608603 
L 162.929336 159.608603 
L 163.058554 159.498906 
L 163.173964 159.393348 
L 163.268556 159.283651 
L 163.377621 159.178093 
L 163.37957 159.178093 
L 163.495021 159.068396 
L 163.608108 158.966978 
L 163.721444 158.85728 
L 163.831421 158.757932 
L 163.832499 158.757932 
L 163.951848 158.648235 
L 164.059586 158.561305 
L 164.062862 158.561305 
L 164.196394 158.451608 
L 164.307034 158.34398 
L 164.307449 158.34398 
L 164.413362 158.234283 
L 164.523256 158.128725 
L 164.524376 158.128725 
L 164.639785 158.019028 
L 164.747067 157.901052 
L 164.750882 157.901052 
L 164.872636 157.791354 
L 164.97884 157.698215 
L 164.983733 157.698215 
L 165.109427 157.588518 
L 165.224671 157.4871 
L 165.349328 157.377402 
L 165.462954 157.251147 
L 165.573512 157.14145 
L 165.68859 157.044171 
L 165.826351 156.936544 
L 165.93948 156.833056 
L 166.064925 156.723358 
L 166.18133 156.592963 
L 166.298274 156.483266 
L 166.40655 156.394266 
L 166.409287 156.394266 
L 166.552419 156.283534 
L 166.6659 156.160384 
L 166.823609 156.050686 
L 166.93935 155.93685 
L 167.083498 155.827152 
L 167.194056 155.740222 
L 167.194553 155.740222 
L 167.302249 155.630525 
L 167.417286 155.50013 
L 167.561682 155.390433 
L 167.674977 155.278666 
L 167.807721 155.168969 
L 167.917739 155.063411 
L 167.918776 155.063411 
L 168.04136 154.953714 
L 168.149885 154.862644 
L 168.152456 154.862644 
L 168.289389 154.752947 
L 168.40372 154.672226 
L 168.550149 154.562529 
L 168.672401 154.490088 
L 168.809996 154.38039 
L 168.922835 154.289321 
L 169.044092 154.178589 
L 169.14677 154.103043 
L 169.155188 154.103043 
L 169.292245 153.99231 
L 169.401766 153.873299 
L 169.4033 153.873299 
L 169.540896 153.763602 
L 169.651122 153.689091 
L 169.651992 153.689091 
L 169.793486 153.579393 
L 169.901846 153.496603 
L 169.904542 153.496603 
L 170.045393 153.386906 
L 170.161072 153.297906 
L 170.276813 153.188209 
L 170.390025 153.078512 
L 170.528242 152.968814 
L 170.641205 152.871536 
L 170.800075 152.761838 
L 170.912498 152.695606 
L 171.046528 152.585909 
L 171.162393 152.465863 
L 171.314151 152.356165 
L 171.426181 152.258887 
L 171.573605 152.149189 
L 171.688351 152.05812 
L 171.827315 151.948423 
L 171.94654 151.851144 
L 172.083513 151.741447 
L 172.199752 151.658656 
L 172.393788 151.548959 
L 172.508492 151.459959 
L 172.629542 151.350262 
L 172.743873 151.271611 
L 172.908175 151.161914 
L 173.017157 151.081193 
L 173.019189 151.081193 
L 173.154213 150.971496 
L 173.263527 150.878357 
L 173.265269 150.878357 
L 173.424346 150.76866 
L 173.538428 150.694148 
L 173.678346 150.584451 
L 173.78936 150.497521 
L 173.922145 150.387824 
L 174.035315 150.284336 
L 174.160719 150.174639 
L 174.269866 150.104267 
L 174.271816 150.104267 
L 174.403979 149.99457 
L 174.516817 149.90764 
L 174.689786 149.797942 
L 174.804449 149.711013 
L 175.000724 149.601315 
L 175.113646 149.508176 
L 175.24639 149.398479 
L 175.360887 149.313619 
L 175.540698 149.203921 
L 175.653557 149.114922 
L 175.784497 149.005225 
L 175.89688 148.938992 
L 176.042272 148.829295 
L 176.14495 148.727877 
L 176.153368 148.727877 
L 176.367475 148.618179 
L 176.476125 148.558156 
L 176.47853 148.558156 
L 176.626016 148.448459 
L 176.743147 148.365669 
L 176.905749 148.255972 
L 177.01245 148.173181 
L 177.016804 148.173181 
L 177.220626 148.062449 
L 177.328074 148.00967 
L 177.331599 148.00967 
L 177.448833 147.937229 
L 177.655102 147.827531 
L 177.767733 147.74888 
L 177.921087 147.639183 
L 178.033345 147.57916 
L 178.208802 147.469463 
L 178.321185 147.403231 
L 178.512691 147.292498 
L 178.625405 147.200394 
L 178.788587 147.090697 
L 178.901094 147.020325 
L 179.097866 146.910628 
L 179.212281 146.829907 
L 179.41403 146.72021 
L 179.526412 146.653978 
L 179.705892 146.54428 
L 179.816988 146.473908 
L 179.955787 146.364211 
L 180.072689 146.295909 
L 180.26884 146.186212 
L 180.38313 146.080654 
L 180.623445 145.970957 
L 180.737673 145.894376 
L 180.872718 145.784678 
L 180.983524 145.677051 
L 180.98367 145.677051 
L 181.198461 145.567354 
L 181.300807 145.496982 
L 181.309433 145.496982 
L 181.494221 145.38625 
L 181.615934 145.304494 
L 181.806403 145.194797 
L 181.920258 145.103728 
L 182.077199 144.99403 
L 182.077199 144.992995 
L 182.197128 144.925728 
L 182.374162 144.816031 
L 182.484014 144.756008 
L 182.485175 144.756008 
L 182.662872 144.646311 
L 182.771481 144.596636 
L 182.773844 144.596636 
L 183.007732 144.486939 
L 183.007732 144.485904 
L 183.121068 144.431056 
L 183.313404 144.321358 
L 183.414921 144.261335 
L 183.4245 144.261335 
L 183.646735 144.151638 
L 183.646735 144.150603 
L 183.760527 144.085406 
L 183.917199 143.975709 
L 184.031012 143.907406 
L 184.22652 143.797709 
L 184.339026 143.725268 
L 184.517801 143.61557 
L 184.633169 143.547268 
L 184.822768 143.437571 
L 184.9247 143.35685 
L 184.933865 143.35685 
L 185.107435 143.247153 
L 185.220232 143.19127 
L 185.434235 143.081572 
L 185.547074 142.994642 
L 185.735179 142.884945 
L 185.844119 142.829062 
L 185.846151 142.829062 
L 185.994985 142.719364 
L 186.099613 142.66762 
L 186.106082 142.66762 
L 186.33773 142.557923 
L 186.445178 142.4979 
L 186.448827 142.4979 
L 186.624575 142.388203 
L 186.739487 142.32818 
L 186.974204 142.218483 
L 187.090111 142.162599 
L 187.235835 142.052902 
L 187.347968 142.001158 
L 187.535203 141.891461 
L 187.647295 141.839717 
L 187.879482 141.730019 
L 187.998292 141.657578 
L 188.209413 141.54788 
L 188.321754 141.485788 
L 188.540671 141.37609 
L 188.653261 141.299509 
L 188.867451 141.189812 
L 188.867451 141.188777 
L 188.989413 141.104952 
L 189.182494 140.995255 
L 189.295996 140.957999 
L 189.499943 140.848302 
L 189.614648 140.790348 
L 189.884676 140.680651 
L 190.000646 140.614419 
L 190.223917 140.504722 
L 190.337751 140.43642 
L 190.536514 140.326722 
L 190.648233 140.285327 
L 190.815023 140.17563 
L 190.928235 140.123886 
L 191.117999 140.014189 
L 191.231584 139.952096 
L 191.430803 139.842399 
L 191.543019 139.784445 
L 191.756629 139.674748 
L 191.867725 139.604376 
L 192.081874 139.494679 
L 192.194028 139.442935 
L 192.443446 139.333238 
L 192.5556 139.281494 
L 192.7616 139.171796 
L 192.875392 139.105564 
L 193.105465 138.995867 
L 193.218096 138.956541 
L 193.482339 138.846844 
L 193.593228 138.79303 
L 193.593394 138.79303 
L 193.796429 138.683333 
L 193.908479 138.633659 
L 194.119393 138.523962 
L 194.231568 138.470148 
L 194.466202 138.360451 
L 194.582068 138.304567 
L 194.847846 138.19487 
L 194.953427 138.143126 
L 194.958942 138.143126 
L 195.21962 138.033429 
L 195.333889 137.981685 
L 195.599915 137.871987 
L 195.715926 137.822313 
L 196.000863 137.712616 
L 196.112872 137.667081 
L 196.339648 137.557384 
L 196.454663 137.495291 
L 196.741653 137.385594 
L 196.856668 137.306943 
L 197.10279 137.197246 
L 197.217079 137.147571 
L 197.414184 137.037874 
L 197.522378 136.98406 
L 197.52528 136.98406 
L 197.719834 136.874363 
L 197.832486 136.820549 
L 198.106019 136.710852 
L 198.206209 136.652899 
L 198.217074 136.652899 
L 198.485506 136.542167 
L 198.59173 136.491458 
L 198.596478 136.491458 
L 198.812659 136.38176 
L 198.924668 136.332086 
L 199.111778 136.222389 
L 199.111778 136.221354 
L 199.23741 136.149947 
L 199.511046 136.04025 
L 199.626642 136.000925 
L 199.914233 135.891227 
L 200.029663 135.833274 
L 200.312112 135.723577 
L 200.425033 135.678042 
L 200.762325 135.568345 
L 200.875723 135.52281 
L 201.121637 135.413113 
L 201.229955 135.379997 
L 201.232692 135.379997 
L 201.473837 135.270299 
L 201.585597 135.230974 
L 201.920215 135.121277 
L 202.012484 135.075742 
L 202.03127 135.075742 
L 202.269097 134.966045 
L 202.380464 134.934998 
L 202.686363 134.825301 
L 202.798787 134.759069 
L 203.109144 134.649372 
L 203.221278 134.597628 
L 203.446084 134.48793 
L 203.559254 134.438256 
L 203.853189 134.328559 
L 203.957775 134.278885 
L 203.964245 134.278885 
L 204.201533 134.169187 
L 204.306845 134.127792 
L 204.312505 134.127792 
L 204.599764 134.018095 
L 204.711939 133.964281 
L 204.965152 133.854584 
L 205.082013 133.813189 
L 205.372838 133.702457 
L 205.485386 133.668305 
L 205.822574 133.558608 
L 205.935537 133.511004 
L 206.242805 133.401306 
L 206.354503 133.339214 
L 206.580968 133.229516 
L 206.690904 133.19847 
L 206.692065 133.19847 
L 206.97443 133.088773 
L 207.087061 133.049447 
L 207.38813 132.93975 
L 207.38813 132.938715 
L 207.500844 132.900425 
L 207.758991 132.790727 
L 207.861836 132.732774 
L 207.870067 132.732774 
L 208.177211 132.623077 
L 208.290008 132.581682 
L 208.571503 132.471984 
L 208.676794 132.416101 
L 208.682599 132.416101 
L 209.017424 132.306404 
L 209.130905 132.24845 
L 209.408626 132.137718 
L 209.523476 132.07873 
L 209.827447 131.967998 
L 209.941944 131.929707 
L 210.181016 131.818975 
L 210.291988 131.776545 
L 210.292112 131.776545 
L 210.576365 131.666848 
L 210.689099 131.636836 
L 210.803099 131.604755 
L 211.200791 131.495058 
L 211.312738 131.449523 
L 211.583928 131.339826 
L 211.68756 131.296361 
L 211.695024 131.296361 
L 212.026925 131.186664 
L 212.139079 131.151478 
L 212.433056 131.04178 
L 212.545231 131.006595 
L 212.831578 130.896897 
L 212.945204 130.857572 
L 213.249549 130.747875 
L 213.358904 130.70441 
L 213.360604 130.70441 
L 213.634634 130.594712 
L 213.74824 130.547108 
L 214.056171 130.437411 
L 214.168429 130.408434 
L 214.379965 130.298737 
L 214.495623 130.244923 
L 214.755347 130.135226 
L 214.869056 130.106249 
L 215.228762 129.996552 
L 215.3365 129.93032 
L 215.339817 129.93032 
L 215.574452 129.820622 
L 215.687912 129.781297 
L 215.96808 129.6716 
L 216.080918 129.630204 
L 216.436602 129.520507 
L 216.554873 129.466693 
L 216.813269 129.356996 
L 216.925319 129.307322 
L 217.200843 129.197625 
L 217.313225 129.166578 
L 217.66783 129.056881 
L 217.779881 129.009276 
L 218.129033 128.898544 
L 218.248092 128.864393 
L 218.610431 128.754696 
L 218.708631 128.71951 
L 218.721445 128.71951 
L 219.013473 128.609813 
L 219.12739 128.566348 
L 219.434056 128.456651 
L 219.546978 128.411116 
L 219.870274 128.301419 
L 219.976477 128.247605 
L 219.98135 128.247605 
L 220.263238 128.137908 
L 220.375413 128.082024 
L 220.711731 127.972327 
L 220.823201 127.930932 
L 221.171254 127.821234 
L 221.277872 127.781909 
L 221.282309 127.781909 
L 221.601914 127.672212 
L 221.713716 127.628747 
L 222.031745 127.51905 
L 222.144418 127.479724 
L 222.504995 127.370027 
L 222.607756 127.330701 
L 222.61605 127.330701 
L 222.887343 127.221004 
L 222.999518 127.185818 
L 223.283086 127.076121 
L 223.396505 127.020237 
L 223.70425 126.91054 
L 223.818001 126.867075 
L 224.133045 126.757378 
L 224.24522 126.722192 
L 224.628522 126.612495 
L 224.740013 126.583518 
L 225.088418 126.473821 
L 225.088418 126.472786 
L 225.212702 126.417937 
L 225.480284 126.30824 
L 225.59248 126.270984 
L 225.838601 126.161287 
L 225.938895 126.111613 
L 225.949449 126.111613 
L 226.25624 126.001916 
L 226.372437 125.956381 
L 226.740437 125.846684 
L 226.851451 125.809428 
L 226.851493 125.809428 
L 227.208089 125.699731 
L 227.320471 125.664545 
L 227.596077 125.554848 
L 227.702819 125.509313 
L 227.707174 125.509313 
L 228.06717 125.399616 
L 228.179241 125.352011 
L 228.496213 125.242314 
L 228.496213 125.241279 
L 228.615065 125.207128 
L 228.913023 125.097431 
L 229.027188 125.062245 
L 229.308393 124.952548 
L 229.419904 124.92771 
L 229.734035 124.818013 
L 229.842768 124.76213 
L 229.845132 124.76213 
L 230.136248 124.652432 
L 230.243094 124.629665 
L 230.247262 124.629665 
L 230.720843 124.519968 
L 230.832976 124.464084 
L 231.165561 124.354387 
L 231.278317 124.300573 
L 231.659753 124.190876 
L 231.772799 124.15362 
L 232.167671 124.043923 
L 232.281173 124.006667 
L 232.536169 123.89697 
L 232.64851 123.857645 
L 233.001809 123.747947 
L 233.11388 123.714831 
L 233.350795 123.605134 
L 233.46382 123.576157 
L 233.920254 123.46646 
L 234.032346 123.414716 
L 234.344445 123.305019 
L 234.456537 123.271903 
L 234.80994 123.162205 
L 234.921741 123.12702 
L 235.266767 123.017322 
L 235.366253 122.984206 
L 235.377864 122.984206 
L 235.673749 122.874509 
L 235.785778 122.828974 
L 236.088775 122.719277 
L 236.19896 122.684091 
L 236.199872 122.684091 
L 236.564513 122.574394 
L 236.677268 122.528859 
L 236.997993 122.419162 
L 237.110334 122.390185 
L 237.404062 122.280488 
L 237.517647 122.241162 
L 237.864125 122.131465 
L 237.976859 122.077651 
L 238.24073 121.966919 
L 238.355082 121.91414 
L 238.621772 121.804443 
L 238.735668 121.760978 
L 239.167966 121.651281 
L 239.280639 121.611955 
L 239.616521 121.502258 
L 239.729421 121.456724 
L 240.0844 121.347026 
L 240.197404 121.301492 
L 240.599782 121.191794 
L 240.599782 121.190759 
L 240.712579 121.148329 
L 241.124744 121.038632 
L 241.236774 120.988958 
L 241.580452 120.879261 
L 241.666543 120.858563 
L 241.691508 120.858563 
L 242.126066 120.748866 
L 242.238739 120.70954 
L 242.634731 120.599843 
L 242.746698 120.550169 
L 243.113475 120.440472 
L 243.226064 120.392867 
L 243.542788 120.28317 
L 243.654714 120.241775 
L 243.955367 120.132077 
L 244.049005 120.10517 
L 244.066464 120.10517 
L 244.178432 120.061705 
L 244.477343 119.952008 
L 244.589995 119.914753 
L 244.940972 119.805055 
L 245.052732 119.769869 
L 245.367983 119.660172 
L 245.367983 119.659137 
L 245.48078 119.618777 
L 245.830617 119.50908 
L 245.945031 119.457336 
L 246.362981 119.347638 
L 246.477706 119.320732 
L 246.872454 119.211034 
L 246.980731 119.169639 
L 246.983489 119.169639 
L 247.37241 119.058907 
L 247.473388 119.030965 
L 247.483507 119.030965 
L 247.757869 118.921268 
L 247.870873 118.892291 
L 248.171319 118.782594 
L 248.26956 118.757757 
L 248.282416 118.757757 
L 248.679735 118.64806 
L 248.793112 118.612874 
L 249.125179 118.503176 
L 249.236504 118.4742 
L 249.540911 118.364503 
L 249.65377 118.331386 
L 250.012709 118.221689 
L 250.125506 118.188573 
L 250.444427 118.077841 
L 250.556892 118.04369 
L 250.989377 117.933993 
L 251.104413 117.907086 
L 251.352567 117.797388 
L 251.464493 117.770482 
L 251.825526 117.660784 
L 251.939816 117.61111 
L 252.352644 117.501413 
L 252.466644 117.453808 
L 252.808352 117.344111 
L 252.923513 117.308925 
L 253.296199 117.199228 
L 253.408747 117.172321 
L 253.741581 117.062624 
L 253.854585 117.017089 
L 254.251158 116.907392 
L 254.365759 116.868066 
L 254.715326 116.758369 
L 254.822151 116.710765 
L 254.826381 116.710765 
L 255.263262 116.601067 
L 255.376722 116.563812 
L 255.730457 116.454114 
L 255.843005 116.416859 
L 256.200866 116.307161 
L 256.312854 116.278185 
L 256.69259 116.167453 
L 256.808248 116.127092 
L 257.153938 116.017395 
L 257.266755 115.976 
L 257.604586 115.866303 
L 257.717985 115.841466 
L 258.0136 115.731768 
L 258.125775 115.704861 
L 258.455333 115.595164 
L 258.564895 115.564118 
L 258.566305 115.564118 
L 258.90623 115.453386 
L 259.036154 115.388188 
L 259.449978 115.278491 
L 259.556803 115.241235 
L 259.560867 115.241235 
L 259.834255 115.131538 
L 259.947611 115.088073 
L 260.350363 114.978376 
L 260.463035 114.936981 
L 260.879513 114.827283 
L 260.991149 114.796237 
L 261.338995 114.68654 
L 261.452829 114.655493 
L 261.784087 114.545796 
L 261.896179 114.51475 
L 262.269321 114.405052 
L 262.381206 114.359518 
L 262.754597 114.24982 
L 262.868057 114.210495 
L 263.232242 114.100798 
L 263.333013 114.067682 
L 263.343339 114.067682 
L 263.65324 113.957984 
L 263.765581 113.929008 
L 264.097067 113.81931 
L 264.210071 113.784124 
L 264.571913 113.674427 
L 264.68077 113.630962 
L 264.682885 113.630962 
L 265.061792 113.521265 
L 265.174257 113.486079 
L 265.492618 113.376382 
L 265.606867 113.326708 
L 265.977604 113.215975 
L 266.090027 113.183894 
L 266.419254 113.074197 
L 266.53205 113.04936 
L 266.975401 112.939663 
L 267.088156 112.900337 
L 267.481618 112.79064 
L 267.578823 112.763733 
L 267.592632 112.763733 
L 267.951384 112.653001 
L 268.065011 112.622989 
L 268.367945 112.513292 
L 268.479913 112.467757 
L 268.794168 112.35806 
L 268.907256 112.337362 
L 269.364291 112.227665 
L 269.476714 112.196619 
L 269.804012 112.086922 
L 269.919401 112.053805 
L 270.38643 111.944108 
L 270.499517 111.904783 
L 270.854662 111.795085 
L 270.966256 111.770248 
L 271.35383 111.660551 
L 271.468286 111.606737 
L 271.848934 111.49704 
L 271.960818 111.455645 
L 272.38671 111.345948 
L 272.483831 111.32732 
L 272.497641 111.32732 
L 272.841671 111.217622 
L 272.954842 111.186576 
L 273.241769 111.076879 
L 273.354193 111.041693 
L 273.716636 110.931996 
L 273.82964 110.900949 
L 274.216177 110.791252 
L 274.327688 110.768485 
L 274.561535 110.657753 
L 274.676405 110.625671 
L 274.996757 110.515974 
L 275.108766 110.491137 
L 275.456778 110.38144 
L 275.568662 110.340044 
L 275.906597 110.230347 
L 276.020513 110.199301 
L 276.472489 110.089603 
L 276.576578 110.052348 
L 276.583586 110.052348 
L 276.867361 109.942651 
L 276.980034 109.903325 
L 277.33775 109.793628 
L 277.4515 109.764651 
L 277.866216 109.654954 
L 277.978577 109.632187 
L 278.431963 109.522489 
L 278.544055 109.487303 
L 278.965799 109.377606 
L 279.078182 109.34656 
L 279.3897 109.236862 
L 279.502829 109.205816 
L 279.885468 109.095084 
L 280.006808 109.054724 
L 280.401929 108.945026 
L 280.519266 108.899492 
L 280.981008 108.789794 
L 281.092644 108.762888 
L 281.436675 108.65319 
L 281.550591 108.622144 
L 281.904989 108.512447 
L 282.016999 108.466912 
L 282.365549 108.357215 
L 282.480088 108.303401 
L 282.89103 108.192669 
L 283.006004 108.158518 
L 283.437867 108.04882 
L 283.551991 108.001216 
L 283.867283 107.890484 
L 283.982693 107.860472 
L 284.319591 107.74974 
L 284.431952 107.719729 
L 284.74374 107.610031 
L 284.859689 107.566566 
L 285.188044 107.456869 
L 285.299348 107.429962 
L 285.663865 107.320265 
L 285.775791 107.2768 
L 286.171244 107.167103 
L 286.284787 107.140196 
L 286.626454 107.030499 
L 286.738049 107.003592 
L 287.107707 106.893895 
L 287.107707 106.89286 
L 287.221956 106.873197 
L 287.508385 106.7635 
L 287.616787 106.730384 
L 287.619441 106.730384 
L 287.926315 106.620686 
L 288.039443 106.58964 
L 288.381919 106.479943 
L 288.495815 106.442687 
L 288.806255 106.33299 
L 288.918638 106.301943 
L 289.249605 106.192246 
L 289.339097 106.15913 
L 289.360661 106.15913 
L 289.669981 106.048398 
L 289.78564 105.995619 
L 290.128385 105.884887 
L 290.240228 105.848666 
L 290.498438 105.738969 
L 290.614407 105.695504 
L 291.042123 105.585806 
L 291.154049 105.565109 
L 291.503823 105.455412 
L 291.616226 105.414016 
L 291.926957 105.304319 
L 292.0388 105.287761 
L 292.444703 105.177029 
L 292.551073 105.138738 
L 292.555634 105.138738 
L 292.941114 105.029041 
L 293.052646 104.985576 
L 293.410279 104.877949 
L 293.521375 104.834484 
L 293.84351 104.724786 
L 293.956224 104.683391 
L 294.374941 104.573694 
L 294.487946 104.528159 
L 294.822148 104.418462 
L 294.936065 104.372927 
L 295.275948 104.26323 
L 295.388082 104.211486 
L 295.845863 104.101789 
L 295.961978 104.056254 
L 296.322907 103.946557 
L 296.434274 103.91758 
L 296.721284 103.807883 
L 296.833003 103.772697 
L 297.108443 103.663 
L 297.221323 103.619535 
L 297.539518 103.509838 
L 297.652066 103.480861 
L 298.081545 103.371164 
L 298.195026 103.340117 
L 298.582434 103.229385 
L 298.698507 103.201443 
L 299.040837 103.091746 
L 299.14928 103.05656 
L 299.151934 103.05656 
L 299.523459 102.946863 
L 299.523459 102.945828 
L 299.641688 102.893049 
L 299.933218 102.783352 
L 300.044937 102.744026 
L 300.394276 102.634329 
L 300.507156 102.588794 
L 300.828752 102.479097 
L 300.940885 102.45219 
L 301.321388 102.342493 
L 301.434994 102.309377 
L 301.791797 102.19968 
L 301.903765 102.150005 
L 302.250843 102.040308 
L 302.364449 101.992704 
L 302.719967 101.883006 
L 302.831851 101.841611 
L 303.209265 101.731914 
L 303.320113 101.696728 
L 303.32032 101.696728 
L 303.65585 101.587031 
L 303.761348 101.541496 
L 303.766946 101.541496 
L 304.157464 101.431799 
L 304.271671 101.390404 
L 304.662231 101.280706 
L 304.773742 101.239311 
L 305.040723 101.129614 
L 305.152483 101.092358 
L 305.44928 100.982661 
L 305.56104 100.947475 
L 305.866255 100.836743 
L 305.968851 100.786034 
L 305.977352 100.786034 
L 306.311596 100.676337 
L 306.423543 100.634941 
L 306.787126 100.524209 
L 306.907346 100.47557 
L 307.336472 100.365873 
L 307.437948 100.326547 
L 307.447528 100.326547 
L 307.760746 100.21685 
L 307.872963 100.187873 
L 308.196466 100.078176 
L 308.309989 100.04092 
L 308.660095 99.931223 
L 308.771896 99.893967 
L 309.066081 99.78427 
L 309.178463 99.753224 
L 309.565415 99.643526 
L 309.678958 99.61248 
L 309.964392 99.502783 
L 310.07692 99.467597 
L 310.397437 99.3579 
L 310.510048 99.308225 
L 310.819659 99.197493 
L 310.931917 99.167482 
L 311.254425 99.057785 
L 311.368155 99.028808 
L 311.68239 98.919111 
L 311.793714 98.894274 
L 312.18446 98.783541 
L 312.297672 98.74939 
L 312.616323 98.639693 
L 312.729224 98.596228 
L 313.101682 98.488601 
L 313.21338 98.455484 
L 313.59915 98.345787 
L 313.711283 98.291973 
L 314.0617 98.182276 
L 314.174165 98.14916 
L 314.581686 98.039463 
L 314.694047 98.008416 
L 314.97577 97.898719 
L 315.070155 97.871812 
L 315.086867 97.871812 
L 315.489245 97.762115 
L 315.602498 97.710371 
L 315.899834 97.600674 
L 316.011387 97.569627 
L 316.337628 97.45993 
L 316.452125 97.406116 
L 316.786908 97.295384 
L 316.899373 97.261233 
L 317.302021 97.151536 
L 317.413511 97.11221 
L 317.693638 97.002513 
L 317.805564 96.961118 
L 318.210928 96.851421 
L 318.321361 96.795537 
L 318.322004 96.795537 
L 318.704083 96.68584 
L 318.818331 96.650654 
L 319.1832 96.540957 
L 319.295313 96.489213 
L 319.66294 96.379516 
L 319.775509 96.34019 
L 320.125739 96.230493 
L 320.237416 96.199446 
L 320.574812 96.089749 
L 320.679149 96.058703 
L 320.685743 96.058703 
L 320.999459 95.949006 
L 321.113583 95.901401 
L 321.445505 95.791704 
L 321.558094 95.756518 
L 321.943636 95.645786 
L 322.057947 95.609565 
L 322.452425 95.499868 
L 322.564289 95.458472 
L 322.919869 95.348775 
L 322.919869 95.34774 
L 323.032873 95.301171 
L 323.465358 95.191473 
L 323.577844 95.158357 
L 323.893033 95.04866 
L 324.004752 95.017614 
L 324.35915 94.907916 
L 324.467675 94.868591 
L 324.470205 94.868591 
L 324.83157 94.758894 
L 324.943579 94.713359 
L 325.354997 94.603662 
L 325.46174 94.551918 
L 325.46597 94.551918 
L 325.754846 94.44222 
L 325.86644 94.415314 
L 326.19463 94.305616 
L 326.306556 94.264221 
L 326.606256 94.154524 
L 326.718099 94.115198 
L 327.026383 94.005501 
L 327.138102 93.970315 
L 327.529159 93.860618 
L 327.641748 93.810944 
L 327.966537 93.701247 
L 327.966537 93.700212 
L 328.079832 93.647433 
L 328.417725 93.537736 
L 328.417725 93.536701 
L 328.53272 93.492201 
L 328.894292 93.382504 
L 329.007131 93.32662 
L 329.362026 93.216923 
L 329.469515 93.175528 
L 329.473081 93.175528 
L 329.744001 93.06583 
L 329.744001 93.064795 
L 329.85572 93.032714 
L 330.155586 92.923017 
L 330.267346 92.887831 
L 330.576003 92.778134 
L 330.689091 92.728459 
L 331.002641 92.618762 
L 331.002641 92.617727 
L 331.116807 92.569088 
L 331.475766 92.459391 
L 331.5687 92.422135 
L 331.586822 92.422135 
L 331.97 92.312438 
L 332.082631 92.275182 
L 332.377271 92.165485 
L 332.488886 92.113741 
L 332.925 92.004044 
L 333.036843 91.964718 
L 333.356676 91.855021 
L 333.468291 91.797068 
L 333.78997 91.686336 
L 333.906499 91.637696 
L 334.250696 91.527999 
L 334.364032 91.474185 
L 334.59286 91.364488 
L 334.704662 91.329302 
L 335.042099 91.219605 
L 335.154191 91.186489 
L 335.407031 91.076791 
L 335.510746 91.033326 
L 335.517878 91.033326 
L 335.845114 90.923629 
L 335.956584 90.886373 
L 336.285229 90.775641 
L 336.405201 90.729072 
L 336.668532 90.619374 
L 336.78079 90.582119 
L 337.110804 90.472421 
L 337.221029 90.420677 
L 337.221859 90.420677 
L 337.540344 90.31098 
L 337.647543 90.265445 
L 337.651358 90.265445 
L 337.9861 90.155748 
L 338.098793 90.116423 
L 338.46331 90.005691 
L 338.578657 89.957051 
L 338.934216 89.847354 
L 339.03198 89.820447 
L 339.045271 89.820447 
L 339.31785 89.71075 
L 339.429859 89.661076 
L 339.757883 89.551378 
L 339.869518 89.516193 
L 340.25506 89.406495 
L 340.368852 89.36303 
L 340.640436 89.253333 
L 340.752445 89.205729 
L 341.022287 89.096031 
L 341.122477 89.054636 
L 341.1333 89.054636 
L 341.439283 88.944939 
L 341.550525 88.926311 
L 341.861629 88.816614 
L 341.974343 88.777288 
L 342.30614 88.666556 
L 342.415702 88.611708 
L 342.417216 88.611708 
L 342.72635 88.50201 
L 342.827287 88.473034 
L 342.837364 88.473034 
L 343.099285 88.362301 
L 343.208059 88.317802 
L 343.210382 88.317802 
L 343.54023 88.20707 
L 343.652985 88.166709 
L 343.955339 88.057012 
L 344.067182 88.011477 
L 344.353778 87.90178 
L 344.466803 87.854176 
L 344.859747 87.744478 
L 344.971756 87.698944 
L 345.358915 87.589246 
L 345.471587 87.551991 
L 345.834611 87.442293 
L 345.939612 87.407107 
L 345.945583 87.407107 
L 346.294383 87.29741 
L 346.406164 87.264294 
L 346.785941 87.154597 
L 346.897474 87.111132 
L 347.183862 87.001435 
L 347.295974 86.968318 
L 347.655784 86.858621 
L 347.767503 86.821365 
L 348.062019 86.711668 
L 348.171664 86.674412 
L 348.173074 86.674412 
L 348.456415 86.56368 
L 348.569854 86.52746 
L 348.932754 86.417762 
L 349.041528 86.384646 
L 349.043767 86.384646 
L 349.383485 86.274949 
L 349.493587 86.231484 
L 349.494582 86.231484 
L 349.795318 86.121787 
L 349.795318 86.120752 
L 349.907576 86.09074 
L 350.191974 85.981043 
L 350.305766 85.914811 
L 350.626408 85.805113 
L 350.734167 85.74923 
L 350.737505 85.74923 
L 351.037619 85.639533 
L 351.149794 85.585719 
L 351.414867 85.476022 
L 351.525508 85.430487 
L 351.525881 85.430487 
L 351.777518 85.32079 
L 351.885753 85.279394 
L 351.888573 85.279394 
L 352.165879 85.169697 
L 352.274363 85.124163 
L 352.276934 85.124163 
L 352.602096 85.014465 
L 352.716262 84.966861 
L 352.98855 84.857164 
L 353.098196 84.811629 
L 353.099564 84.811629 
L 353.311224 84.700897 
L 353.416059 84.652257 
L 353.42228 84.652257 
L 353.74881 84.54256 
L 353.861939 84.509444 
L 354.176319 84.399747 
L 354.176319 84.398712 
L 354.291666 84.350072 
L 354.550539 84.240375 
L 354.663917 84.184492 
L 354.920136 84.074794 
L 355.031482 84.039608 
L 355.308311 83.928876 
L 355.424032 83.896795 
L 355.737852 83.786063 
L 355.847476 83.743633 
L 355.848948 83.743633 
L 356.231173 83.633936 
L 356.322862 83.613238 
L 356.342269 83.613238 
L 356.635915 83.503541 
L 356.747758 83.466285 
L 357.036385 83.356588 
L 357.149058 83.319332 
L 357.391696 83.2086 
L 357.503808 83.184798 
L 357.800377 83.0751 
L 357.903429 83.029566 
L 357.911432 83.029566 
L 358.254779 82.919868 
L 358.367306 82.874334 
L 358.662071 82.764637 
L 358.770016 82.73773 
L 358.773168 82.73773 
L 359.017299 82.628032 
L 359.127607 82.582498 
L 359.128354 82.582498 
L 359.397387 82.4728 
L 359.508878 82.433475 
L 359.832381 82.323778 
L 359.944307 82.280313 
L 360.24438 82.172685 
L 360.356451 82.120941 
L 360.619886 82.011244 
L 360.727852 81.96364 
L 360.730983 81.96364 
L 360.985771 81.853942 
L 361.090979 81.802198 
L 361.096868 81.802198 
L 361.355555 81.692501 
L 361.467273 81.657315 
L 361.728365 81.547618 
L 361.840727 81.483455 
L 362.067046 81.372723 
L 362.175841 81.328223 
L 362.17806 81.328223 
L 362.42978 81.218526 
L 362.542038 81.18127 
L 362.848124 81.071573 
L 362.960547 81.003271 
L 363.18809 80.893574 
L 363.291101 80.831481 
L 363.299187 80.831481 
L 363.63198 80.721784 
L 363.7381 80.674179 
L 363.743035 80.674179 
L 363.970122 80.564482 
L 364.082089 80.543784 
L 364.315189 80.434087 
L 364.427737 80.384413 
L 364.71201 80.273681 
L 364.816472 80.23332 
L 364.823107 80.23332 
L 365.156895 80.123623 
L 365.26907 80.06567 
L 365.537958 79.954938 
L 365.630684 79.914577 
L 365.649013 79.914577 
L 365.986243 79.80488 
L 366.098127 79.765555 
L 366.305267 79.654823 
L 366.422025 79.614462 
L 366.730081 79.504765 
L 366.730081 79.50373 
L 366.841799 79.473719 
L 367.077304 79.364021 
L 367.189355 79.306068 
L 367.46861 79.195336 
L 367.582693 79.161185 
L 367.871859 79.051488 
L 367.984014 78.999744 
L 368.291074 78.890046 
L 368.390601 78.854861 
L 368.402109 78.854861 
L 368.749146 78.744128 
L 368.86497 78.68928 
L 369.124901 78.579582 
L 369.236993 78.529908 
L 369.451971 78.420211 
L 369.562901 78.374676 
L 369.563067 78.374676 
L 369.805083 78.264979 
L 369.917341 78.202886 
L 370.21024 78.093189 
L 370.306615 78.041445 
L 370.321336 78.041445 
L 370.639656 77.931748 
L 370.743496 77.877934 
L 370.750732 77.877934 
L 370.995257 77.768237 
L 371.108365 77.718562 
L 371.36533 77.608865 
L 371.480222 77.548842 
L 371.766921 77.43811 
L 371.871424 77.39154 
L 371.877934 77.39154 
L 372.141183 77.281843 
L 372.254539 77.246657 
L 372.527346 77.13696 
L 372.636577 77.083146 
L 372.638402 77.083146 
L 372.898042 76.973449 
L 373.011088 76.925845 
L 373.233488 76.815112 
L 373.341558 76.747845 
L 373.344502 76.747845 
L 373.581583 76.637113 
L 373.697946 76.598822 
L 373.916262 76.489125 
L 374.029205 76.427032 
L 374.299171 76.317335 
L 374.411677 76.244894 
L 374.641833 76.134161 
L 374.732983 76.091731 
L 374.752888 76.091731 
L 374.990446 75.982034 
L 375.102144 75.922011 
L 375.215273 75.872337 
L 375.491128 75.761605 
L 375.607657 75.694338 
L 375.833748 75.58464 
L 375.947354 75.522547 
L 376.213961 75.41285 
L 376.325825 75.336269 
L 376.606532 75.226572 
L 376.717297 75.178967 
L 376.717629 75.178967 
L 376.972956 75.06927 
L 377.08144 75.000968 
L 377.083928 75.000968 
L 377.349706 74.891271 
L 377.460181 74.841597 
L 377.460803 74.841597 
L 377.724715 74.731899 
L 377.835625 74.678086 
L 377.835687 74.678086 
L 378.13097 74.568388 
L 378.246318 74.485598 
L 378.425673 74.375901 
L 378.539299 74.313808 
L 378.782767 74.204111 
L 378.892288 74.156506 
L 378.893822 74.156506 
L 379.125719 74.046809 
L 379.234701 73.978507 
L 379.236774 73.978507 
L 379.469045 73.86881 
L 379.571682 73.804647 
L 379.5801 73.804647 
L 379.834204 73.69495 
L 379.947292 73.630787 
L 380.167432 73.520055 
L 380.277285 73.458997 
L 380.278487 73.458997 
L 380.500038 73.3493 
L 380.61157 73.301695 
L 380.833722 73.191998 
L 380.942331 73.140254 
L 380.944777 73.140254 
L 381.179992 73.030557 
L 381.293784 72.964325 
L 381.531529 72.854627 
L 381.63429 72.780116 
L 381.642584 72.780116 
L 381.859843 72.670419 
L 381.969612 72.616605 
L 381.970898 72.616605 
L 382.188032 72.506908 
L 382.298714 72.444815 
L 382.299087 72.444815 
L 382.514853 72.335118 
L 382.628894 72.262676 
L 382.855068 72.152979 
L 382.967368 72.092956 
L 383.141332 71.983258 
L 383.254336 71.935654 
L 383.504273 71.825957 
L 383.616323 71.778352 
L 383.898648 71.668655 
L 384.007339 71.62933 
L 384.009495 71.62933 
L 384.201209 71.519632 
L 384.313342 71.463749 
L 384.666289 71.354052 
L 384.778588 71.285749 
L 385.013181 71.176052 
L 385.119592 71.140866 
L 385.124278 71.140866 
L 385.302721 71.031169 
L 385.411703 70.983565 
L 385.413817 70.983565 
L 385.69469 70.873867 
L 385.807197 70.803495 
L 386.075048 70.693798 
L 386.187265 70.637915 
L 386.373338 70.528217 
L 386.480163 70.455776 
L 386.484352 70.455776 
L 386.719981 70.345044 
L 386.836759 70.277777 
L 387.172994 70.168079 
L 387.277704 70.120475 
L 387.283676 70.120475 
L 387.492392 70.010778 
L 387.603157 69.961103 
L 387.603488 69.961103 
L 387.864787 69.851406 
L 387.973396 69.803802 
L 387.97576 69.803802 
L 388.214002 69.694104 
L 388.320454 69.621663 
L 388.324974 69.621663 
L 388.576901 69.511965 
L 388.691481 69.427105 
L 388.935819 69.317408 
L 389.045921 69.249106 
L 389.046875 69.249106 
L 389.275413 69.139409 
L 389.381284 69.062828 
L 389.38651 69.062828 
L 389.56939 68.95313 
L 389.67522 68.901386 
L 389.680487 68.901386 
L 389.85582 68.791689 
L 389.968451 68.706829 
L 390.225644 68.597132 
L 390.335912 68.518481 
L 390.336741 68.518481 
L 390.557981 68.408784 
L 390.670446 68.340481 
L 390.911135 68.230784 
L 391.023434 68.166622 
L 391.178509 68.056924 
L 391.290145 68.001041 
L 391.544829 67.891344 
L 391.65153 67.820972 
L 391.655926 67.820972 
L 391.832711 67.711275 
L 391.937131 67.640903 
L 391.943683 67.640903 
L 392.211078 67.531205 
L 392.323585 67.458764 
L 392.496968 67.349067 
L 392.588077 67.282834 
L 392.608065 67.282834 
L 392.838221 67.173137 
L 392.946705 67.113114 
L 392.949317 67.113114 
L 393.215386 67.003417 
L 393.327685 66.941324 
L 393.519232 66.831627 
L 393.629541 66.740557 
L 393.630288 66.740557 
L 393.840165 66.629825 
L 393.949893 66.568767 
L 393.951178 66.568767 
L 394.178307 66.458035 
L 394.285547 66.403186 
L 394.289362 66.403186 
L 394.523208 66.292454 
L 394.637083 66.223117 
L 394.83933 66.112385 
L 394.949929 66.02856 
L 394.950385 66.02856 
L 395.120742 65.918863 
L 395.232958 65.860909 
L 395.410033 65.751212 
L 395.522208 65.695329 
L 395.719602 65.587701 
L 395.830326 65.506981 
L 395.830616 65.506981 
L 396.050881 65.396248 
L 396.162994 65.345539 
L 396.308925 65.235842 
L 396.413884 65.182028 
L 396.41998 65.182028 
L 396.624798 65.071296 
L 396.73378 65.020587 
L 396.735894 65.020587 
L 396.930469 64.91089 
L 397.027342 64.861215 
L 397.041566 64.861215 
L 397.262888 64.751518 
L 397.37046 64.689425 
L 397.373902 64.689425 
L 397.592239 64.579728 
L 397.703211 64.509356 
L 397.703336 64.509356 
L 397.889617 64.399659 
L 398.000713 64.323078 
L 398.1911 64.213381 
L 398.1911 64.212346 
L 398.305016 64.138869 
L 398.516759 64.029172 
L 398.627815 63.9588 
L 398.77358 63.849103 
L 398.879161 63.79322 
L 398.884676 63.79322 
L 399.04056 63.683522 
L 399.142782 63.621429 
L 399.151657 63.621429 
L 399.306753 63.511732 
L 399.306753 63.510697 
L 399.420877 63.433081 
L 399.603633 63.322349 
L 399.713817 63.259222 
L 399.714688 63.259222 
L 399.919547 63.149524 
L 400.029317 63.068804 
L 400.030602 63.068804 
L 400.251303 62.959106 
L 400.358792 62.876316 
L 400.362192 62.876316 
L 400.56025 62.766619 
L 400.671098 62.698317 
L 400.671306 62.698317 
L 400.874174 62.588619 
L 400.98411 62.532736 
L 400.985188 62.532736 
L 401.180592 62.423039 
L 401.282192 62.363016 
L 401.291233 62.363016 
L 401.500031 62.253318 
L 401.609925 62.164319 
L 401.610879 62.164319 
L 401.772486 62.054621 
L 401.885532 61.957343 
L 402.104781 61.847645 
L 402.104781 61.846611 
L 402.219568 61.756576 
L 402.359735 61.646879 
L 402.470044 61.574437 
L 402.47079 61.574437 
L 402.676313 61.46681 
L 402.676313 61.465775 
L 402.787824 61.402647 
L 402.958554 61.29295 
L 403.067204 61.220508 
L 403.069526 61.220508 
L 403.198952 61.110811 
L 403.312869 61.042509 
L 403.55389 60.932812 
L 403.661337 60.874858 
L 403.664862 60.874858 
L 403.837831 60.765161 
L 403.947891 60.678231 
L 403.948928 60.678231 
L 404.107549 60.568534 
L 404.215411 60.487813 
L 404.218604 60.487813 
L 404.399825 60.378116 
L 404.509927 60.307744 
L 404.510756 60.307744 
L 404.684057 60.198047 
L 404.792749 60.140094 
L 404.795071 60.140094 
L 404.949918 60.030396 
L 405.058692 59.957955 
L 405.061015 59.957955 
L 405.259114 59.848258 
L 405.352172 59.757188 
L 405.370128 59.757188 
L 405.495615 59.647491 
L 405.600242 59.554352 
L 405.606711 59.554352 
L 405.781629 59.444654 
L 405.883603 59.366004 
L 405.892685 59.366004 
L 406.101007 59.255271 
L 406.213534 59.175586 
L 406.369832 59.065888 
L 406.482463 58.989307 
L 406.663146 58.87961 
L 406.772667 58.780262 
L 406.774118 58.780262 
L 406.95393 58.670564 
L 407.064446 58.602262 
L 407.064985 58.602262 
L 407.246995 58.492565 
L 407.3493 58.415984 
L 407.358008 58.415984 
L 407.538525 58.306287 
L 407.646968 58.235915 
L 407.649456 58.235915 
L 407.808035 58.126218 
L 407.918136 58.055846 
L 407.918966 58.055846 
L 408.084346 57.946148 
L 408.189098 57.863358 
L 408.195401 57.863358 
L 408.329514 57.753661 
L 408.437334 57.681219 
L 408.440507 57.681219 
L 408.617892 57.571522 
L 408.715885 57.494941 
L 408.728989 57.494941 
L 408.871354 57.385244 
L 408.978428 57.302453 
L 408.982367 57.302453 
L 409.139744 57.192756 
L 409.241925 57.130663 
L 409.250219 57.130663 
L 409.404692 57.020966 
L 409.514545 56.913338 
L 409.515623 56.913338 
L 409.701282 56.803641 
L 409.701282 56.802606 
L 409.815489 56.72706 
L 409.956651 56.617363 
L 410.058002 56.55734 
L 410.067706 56.55734 
L 410.224751 56.447642 
L 410.32913 56.38348 
L 410.335806 56.38348 
L 410.514001 56.273783 
L 410.625844 56.174434 
L 410.834186 56.064737 
L 410.920733 56.033691 
L 410.945242 56.033691 
L 411.125675 55.923993 
L 411.230925 55.87018 
L 411.236565 55.87018 
L 411.429895 55.760482 
L 411.537052 55.69011 
L 411.540951 55.69011 
L 411.684269 55.580413 
L 411.796776 55.507972 
L 411.995871 55.398274 
L 412.108377 55.325833 
L 412.261752 55.216136 
L 412.373367 55.149903 
L 412.60796 55.040206 
L 412.710514 54.984322 
L 412.718683 54.984322 
L 412.930924 54.874625 
L 413.039989 54.791835 
L 413.041897 54.791835 
L 413.27848 54.682138 
L 413.38489 54.615905 
L 413.389577 54.615905 
L 413.636195 54.506208 
L 413.743394 54.442045 
L 413.747292 54.442045 
L 414.051222 54.332348 
L 414.161697 54.286813 
L 414.162319 54.286813 
L 414.504732 54.177116 
L 414.59526 54.164698 
L 414.615829 54.164698 
L 414.72 54.144 
L 414.72 54.144 
" clip-path="url(#p8f07338d75)" style="fill: none; stroke: #ff8c00; stroke-width: 1.5; stroke-linecap: square"/>
   </g>
   <g id="line2d_14">
    <path d="M 74.605714 307.584 
L 414.72 54.144 
" clip-path="url(#p8f07338d75)" style="fill: none; stroke-dasharray: 5.55,2.4; stroke-dashoffset: 0; stroke: #0000ff; stroke-width: 1.5"/>
   </g>
   <g id="patch_3">
    <path d="M 57.6 307.584 
L 57.6 41.472 
" style="fill: none; stroke: #000000; stroke-width: 0.8; stroke-linejoin: miter; stroke-linecap: square"/>
   </g>
   <g id="patch_4">
    <path d="M 414.72 307.584 
L 414.72 41.472 
" style="fill: none; stroke: #000000; stroke-width: 0.8; stroke-linejoin: miter; stroke-linecap: square"/>
   </g>
   <g id="patch_5">
    <path d="M 57.6 307.584 
L 414.72 307.584 
" style="fill: none; stroke: #000000; stroke-width: 0.8; stroke-linejoin: miter; stroke-linecap: square"/>
   </g>
   <g id="patch_6">
    <path d="M 57.6 41.472 
L 414.72 41.472 
" style="fill: none; stroke: #000000; stroke-width: 0.8; stroke-linejoin: miter; stroke-linecap: square"/>
   </g>
   <g id="text_15">
    <!-- ROC CURVE -->
    <g transform="translate(200.855625 35.472)scale(0.12 -0.12)">
     <defs>
      <path id="DejaVuSans-4f" d="M 2522 4238 
Q 1834 4238 1429 3725 
Q 1025 3213 1025 2328 
Q 1025 1447 1429 934 
Q 1834 422 2522 422 
Q 3209 422 3611 934 
Q 4013 1447 4013 2328 
Q 4013 3213 3611 3725 
Q 3209 4238 2522 4238 
z
M 2522 4750 
Q 3503 4750 4090 4092 
Q 4678 3434 4678 2328 
Q 4678 1225 4090 567 
Q 3503 -91 2522 -91 
Q 1538 -91 948 565 
Q 359 1222 359 2328 
Q 359 3434 948 4092 
Q 1538 4750 2522 4750 
z
" transform="scale(0.015625)"/>
      <path id="DejaVuSans-43" d="M 4122 4306 
L 4122 3641 
Q 3803 3938 3442 4084 
Q 3081 4231 2675 4231 
Q 1875 4231 1450 3742 
Q 1025 3253 1025 2328 
Q 1025 1406 1450 917 
Q 1875 428 2675 428 
Q 3081 428 3442 575 
Q 3803 722 4122 1019 
L 4122 359 
Q 3791 134 3420 21 
Q 3050 -91 2638 -91 
Q 1578 -91 968 557 
Q 359 1206 359 2328 
Q 359 3453 968 4101 
Q 1578 4750 2638 4750 
Q 3056 4750 3426 4639 
Q 3797 4528 4122 4306 
z
" transform="scale(0.015625)"/>
      <path id="DejaVuSans-55" d="M 556 4666 
L 1191 4666 
L 1191 1831 
Q 1191 1081 1462 751 
Q 1734 422 2344 422 
Q 2950 422 3222 751 
Q 3494 1081 3494 1831 
L 3494 4666 
L 4128 4666 
L 4128 1753 
Q 4128 841 3676 375 
Q 3225 -91 2344 -91 
Q 1459 -91 1007 375 
Q 556 841 556 1753 
L 556 4666 
z
" transform="scale(0.015625)"/>
      <path id="DejaVuSans-56" d="M 1831 0 
L 50 4666 
L 709 4666 
L 2188 738 
L 3669 4666 
L 4325 4666 
L 2547 0 
L 1831 0 
z
" transform="scale(0.015625)"/>
      <path id="DejaVuSans-45" d="M 628 4666 
L 3578 4666 
L 3578 4134 
L 1259 4134 
L 1259 2753 
L 3481 2753 
L 3481 2222 
L 1259 2222 
L 1259 531 
L 3634 531 
L 3634 0 
L 628 0 
L 628 4666 
z
" transform="scale(0.015625)"/>
     </defs>
     <use xlink:href="#DejaVuSans-52"/>
     <use xlink:href="#DejaVuSans-4f" x="69.482422"/>
     <use xlink:href="#DejaVuSans-43" x="148.193359"/>
     <use xlink:href="#DejaVuSans-20" x="218.017578"/>
     <use xlink:href="#DejaVuSans-43" x="249.804688"/>
     <use xlink:href="#DejaVuSans-55" x="319.628906"/>
     <use xlink:href="#DejaVuSans-52" x="392.822266"/>
     <use xlink:href="#DejaVuSans-56" x="456.804688"/>
     <use xlink:href="#DejaVuSans-45" x="525.212891"/>
    </g>
   </g>
   <g id="legend_1">
    <g id="patch_7">
     <path d="M 234.97 302.584 
L 407.72 302.584 
Q 409.72 302.584 409.72 300.584 
L 409.72 286.905875 
Q 409.72 284.905875 407.72 284.905875 
L 234.97 284.905875 
Q 232.97 284.905875 232.97 286.905875 
L 232.97 300.584 
Q 232.97 302.584 234.97 302.584 
z
" style="fill: #ffffff; opacity: 0.8; stroke: #cccccc; stroke-linejoin: miter"/>
    </g>
    <g id="line2d_15">
     <path d="M 236.97 293.004312 
L 246.97 293.004312 
L 256.97 293.004312 
" style="fill: none; stroke: #ff8c00; stroke-width: 1.5; stroke-linecap: square"/>
    </g>
    <g id="text_16">
     <!-- ROC curve (ROC AUC=0.67) -->
     <g transform="translate(264.97 296.504312)scale(0.1 -0.1)">
      <defs>
       <path id="DejaVuSans-63" d="M 3122 3366 
L 3122 2828 
Q 2878 2963 2633 3030 
Q 2388 3097 2138 3097 
Q 1578 3097 1268 2742 
Q 959 2388 959 1747 
Q 959 1106 1268 751 
Q 1578 397 2138 397 
Q 2388 397 2633 464 
Q 2878 531 3122 666 
L 3122 134 
Q 2881 22 2623 -34 
Q 2366 -91 2075 -91 
Q 1284 -91 818 406 
Q 353 903 353 1747 
Q 353 2603 823 3093 
Q 1294 3584 2113 3584 
Q 2378 3584 2631 3529 
Q 2884 3475 3122 3366 
z
" transform="scale(0.015625)"/>
       <path id="DejaVuSans-28" d="M 1984 4856 
Q 1566 4138 1362 3434 
Q 1159 2731 1159 2009 
Q 1159 1288 1364 580 
Q 1569 -128 1984 -844 
L 1484 -844 
Q 1016 -109 783 600 
Q 550 1309 550 2009 
Q 550 2706 781 3412 
Q 1013 4119 1484 4856 
L 1984 4856 
z
" transform="scale(0.015625)"/>
       <path id="DejaVuSans-41" d="M 2188 4044 
L 1331 1722 
L 3047 1722 
L 2188 4044 
z
M 1831 4666 
L 2547 4666 
L 4325 0 
L 3669 0 
L 3244 1197 
L 1141 1197 
L 716 0 
L 50 0 
L 1831 4666 
z
" transform="scale(0.015625)"/>
       <path id="DejaVuSans-3d" d="M 678 2906 
L 4684 2906 
L 4684 2381 
L 678 2381 
L 678 2906 
z
M 678 1631 
L 4684 1631 
L 4684 1100 
L 678 1100 
L 678 1631 
z
" transform="scale(0.015625)"/>
       <path id="DejaVuSans-37" d="M 525 4666 
L 3525 4666 
L 3525 4397 
L 1831 0 
L 1172 0 
L 2766 4134 
L 525 4134 
L 525 4666 
z
" transform="scale(0.015625)"/>
       <path id="DejaVuSans-29" d="M 513 4856 
L 1013 4856 
Q 1481 4119 1714 3412 
Q 1947 2706 1947 2009 
Q 1947 1309 1714 600 
Q 1481 -109 1013 -844 
L 513 -844 
Q 928 -128 1133 580 
Q 1338 1288 1338 2009 
Q 1338 2731 1133 3434 
Q 928 4138 513 4856 
z
" transform="scale(0.015625)"/>
      </defs>
      <use xlink:href="#DejaVuSans-52"/>
      <use xlink:href="#DejaVuSans-4f" x="69.482422"/>
      <use xlink:href="#DejaVuSans-43" x="148.193359"/>
      <use xlink:href="#DejaVuSans-20" x="218.017578"/>
      <use xlink:href="#DejaVuSans-63" x="249.804688"/>
      <use xlink:href="#DejaVuSans-75" x="304.785156"/>
      <use xlink:href="#DejaVuSans-72" x="368.164062"/>
      <use xlink:href="#DejaVuSans-76" x="409.277344"/>
      <use xlink:href="#DejaVuSans-65" x="468.457031"/>
      <use xlink:href="#DejaVuSans-20" x="529.980469"/>
      <use xlink:href="#DejaVuSans-28" x="561.767578"/>
      <use xlink:href="#DejaVuSans-52" x="600.78125"/>
      <use xlink:href="#DejaVuSans-4f" x="670.263672"/>
      <use xlink:href="#DejaVuSans-43" x="748.974609"/>
      <use xlink:href="#DejaVuSans-20" x="818.798828"/>
      <use xlink:href="#DejaVuSans-41" x="850.585938"/>
      <use xlink:href="#DejaVuSans-55" x="918.994141"/>
      <use xlink:href="#DejaVuSans-43" x="992.1875"/>
      <use xlink:href="#DejaVuSans-3d" x="1062.011719"/>
      <use xlink:href="#DejaVuSans-30" x="1145.800781"/>
      <use xlink:href="#DejaVuSans-2e" x="1209.423828"/>
      <use xlink:href="#DejaVuSans-36" x="1241.210938"/>
      <use xlink:href="#DejaVuSans-37" x="1304.833984"/>
      <use xlink:href="#DejaVuSans-29" x="1368.457031"/>
     </g>
    </g>
   </g>
  </g>
 </g>
 <defs>
  <clipPath id="p8f07338d75">
   <rect x="57.6" y="41.472" width="357.12" height="266.112"/>
  </clipPath>
 </defs>
</svg>
