<?xml version="1.0" encoding="utf-8" standalone="no"?>
<!DOCTYPE svg PUBLIC "-//W3C//DTD SVG 1.1//EN"
  "http://www.w3.org/Graphics/SVG/1.1/DTD/svg11.dtd">
<svg xmlns:xlink="http://www.w3.org/1999/xlink" width="460.8pt" height="345.6pt" viewBox="0 0 460.8 345.6" xmlns="http://www.w3.org/2000/svg" version="1.1">
 <metadata>
  <rdf:RDF xmlns:dc="http://purl.org/dc/elements/1.1/" xmlns:cc="http://creativecommons.org/ns#" xmlns:rdf="http://www.w3.org/1999/02/22-rdf-syntax-ns#">
   <cc:Work>
    <dc:type rdf:resource="http://purl.org/dc/dcmitype/StillImage"/>
    <dc:date>2022-05-20T21:11:48.351050</dc:date>
    <dc:format>image/svg+xml</dc:format>
    <dc:creator>
     <cc:Agent>
      <dc:title>Matplotlib v3.5.1, https://matplotlib.org/</dc:title>
     </cc:Agent>
    </dc:creator>
   </cc:Work>
  </rdf:RDF>
 </metadata>
 <defs>
  <style type="text/css">*{stroke-linejoin: round; stroke-linecap: butt}</style>
 </defs>
 <g id="figure_1">
  <g id="patch_1">
   <path d="M 0 345.6 
L 460.8 345.6 
L 460.8 0 
L 0 0 
z
" style="fill: #ffffff"/>
  </g>
  <g id="axes_1">
   <g id="patch_2">
    <path d="M 57.6 307.584 
L 414.72 307.584 
L 414.72 41.472 
L 57.6 41.472 
z
" style="fill: #ffffff"/>
   </g>
   <g id="matplotlib.axis_1">
    <g id="xtick_1">
     <g id="line2d_1">
      <defs>
       <path id="m7a0fc69cfd" d="M 0 0 
L 0 3.5 
" style="stroke: #000000; stroke-width: 0.8"/>
      </defs>
      <g>
       <use xlink:href="#m7a0fc69cfd" x="74.605714" y="307.584" style="stroke: #000000; stroke-width: 0.8"/>
      </g>
     </g>
     <g id="text_1">
      <!-- 0.0 -->
      <g transform="translate(66.654152 322.182437)scale(0.1 -0.1)">
       <defs>
        <path id="DejaVuSans-30" d="M 2034 4250 
Q 1547 4250 1301 3770 
Q 1056 3291 1056 2328 
Q 1056 1369 1301 889 
Q 1547 409 2034 409 
Q 2525 409 2770 889 
Q 3016 1369 3016 2328 
Q 3016 3291 2770 3770 
Q 2525 4250 2034 4250 
z
M 2034 4750 
Q 2819 4750 3233 4129 
Q 3647 3509 3647 2328 
Q 3647 1150 3233 529 
Q 2819 -91 2034 -91 
Q 1250 -91 836 529 
Q 422 1150 422 2328 
Q 422 3509 836 4129 
Q 1250 4750 2034 4750 
z
" transform="scale(0.015625)"/>
        <path id="DejaVuSans-2e" d="M 684 794 
L 1344 794 
L 1344 0 
L 684 0 
L 684 794 
z
" transform="scale(0.015625)"/>
       </defs>
       <use xlink:href="#DejaVuSans-30"/>
       <use xlink:href="#DejaVuSans-2e" x="63.623047"/>
       <use xlink:href="#DejaVuSans-30" x="95.410156"/>
      </g>
     </g>
    </g>
    <g id="xtick_2">
     <g id="line2d_2">
      <g>
       <use xlink:href="#m7a0fc69cfd" x="142.628571" y="307.584" style="stroke: #000000; stroke-width: 0.8"/>
      </g>
     </g>
     <g id="text_2">
      <!-- 0.2 -->
      <g transform="translate(134.677009 322.182437)scale(0.1 -0.1)">
       <defs>
        <path id="DejaVuSans-32" d="M 1228 531 
L 3431 531 
L 3431 0 
L 469 0 
L 469 531 
Q 828 903 1448 1529 
Q 2069 2156 2228 2338 
Q 2531 2678 2651 2914 
Q 2772 3150 2772 3378 
Q 2772 3750 2511 3984 
Q 2250 4219 1831 4219 
Q 1534 4219 1204 4116 
Q 875 4013 500 3803 
L 500 4441 
Q 881 4594 1212 4672 
Q 1544 4750 1819 4750 
Q 2544 4750 2975 4387 
Q 3406 4025 3406 3419 
Q 3406 3131 3298 2873 
Q 3191 2616 2906 2266 
Q 2828 2175 2409 1742 
Q 1991 1309 1228 531 
z
" transform="scale(0.015625)"/>
       </defs>
       <use xlink:href="#DejaVuSans-30"/>
       <use xlink:href="#DejaVuSans-2e" x="63.623047"/>
       <use xlink:href="#DejaVuSans-32" x="95.410156"/>
      </g>
     </g>
    </g>
    <g id="xtick_3">
     <g id="line2d_3">
      <g>
       <use xlink:href="#m7a0fc69cfd" x="210.651429" y="307.584" style="stroke: #000000; stroke-width: 0.8"/>
      </g>
     </g>
     <g id="text_3">
      <!-- 0.4 -->
      <g transform="translate(202.699866 322.182437)scale(0.1 -0.1)">
       <defs>
        <path id="DejaVuSans-34" d="M 2419 4116 
L 825 1625 
L 2419 1625 
L 2419 4116 
z
M 2253 4666 
L 3047 4666 
L 3047 1625 
L 3713 1625 
L 3713 1100 
L 3047 1100 
L 3047 0 
L 2419 0 
L 2419 1100 
L 313 1100 
L 313 1709 
L 2253 4666 
z
" transform="scale(0.015625)"/>
       </defs>
       <use xlink:href="#DejaVuSans-30"/>
       <use xlink:href="#DejaVuSans-2e" x="63.623047"/>
       <use xlink:href="#DejaVuSans-34" x="95.410156"/>
      </g>
     </g>
    </g>
    <g id="xtick_4">
     <g id="line2d_4">
      <g>
       <use xlink:href="#m7a0fc69cfd" x="278.674286" y="307.584" style="stroke: #000000; stroke-width: 0.8"/>
      </g>
     </g>
     <g id="text_4">
      <!-- 0.6 -->
      <g transform="translate(270.722723 322.182437)scale(0.1 -0.1)">
       <defs>
        <path id="DejaVuSans-36" d="M 2113 2584 
Q 1688 2584 1439 2293 
Q 1191 2003 1191 1497 
Q 1191 994 1439 701 
Q 1688 409 2113 409 
Q 2538 409 2786 701 
Q 3034 994 3034 1497 
Q 3034 2003 2786 2293 
Q 2538 2584 2113 2584 
z
M 3366 4563 
L 3366 3988 
Q 3128 4100 2886 4159 
Q 2644 4219 2406 4219 
Q 1781 4219 1451 3797 
Q 1122 3375 1075 2522 
Q 1259 2794 1537 2939 
Q 1816 3084 2150 3084 
Q 2853 3084 3261 2657 
Q 3669 2231 3669 1497 
Q 3669 778 3244 343 
Q 2819 -91 2113 -91 
Q 1303 -91 875 529 
Q 447 1150 447 2328 
Q 447 3434 972 4092 
Q 1497 4750 2381 4750 
Q 2619 4750 2861 4703 
Q 3103 4656 3366 4563 
z
" transform="scale(0.015625)"/>
       </defs>
       <use xlink:href="#DejaVuSans-30"/>
       <use xlink:href="#DejaVuSans-2e" x="63.623047"/>
       <use xlink:href="#DejaVuSans-36" x="95.410156"/>
      </g>
     </g>
    </g>
    <g id="xtick_5">
     <g id="line2d_5">
      <g>
       <use xlink:href="#m7a0fc69cfd" x="346.697143" y="307.584" style="stroke: #000000; stroke-width: 0.8"/>
      </g>
     </g>
     <g id="text_5">
      <!-- 0.8 -->
      <g transform="translate(338.74558 322.182437)scale(0.1 -0.1)">
       <defs>
        <path id="DejaVuSans-38" d="M 2034 2216 
Q 1584 2216 1326 1975 
Q 1069 1734 1069 1313 
Q 1069 891 1326 650 
Q 1584 409 2034 409 
Q 2484 409 2743 651 
Q 3003 894 3003 1313 
Q 3003 1734 2745 1975 
Q 2488 2216 2034 2216 
z
M 1403 2484 
Q 997 2584 770 2862 
Q 544 3141 544 3541 
Q 544 4100 942 4425 
Q 1341 4750 2034 4750 
Q 2731 4750 3128 4425 
Q 3525 4100 3525 3541 
Q 3525 3141 3298 2862 
Q 3072 2584 2669 2484 
Q 3125 2378 3379 2068 
Q 3634 1759 3634 1313 
Q 3634 634 3220 271 
Q 2806 -91 2034 -91 
Q 1263 -91 848 271 
Q 434 634 434 1313 
Q 434 1759 690 2068 
Q 947 2378 1403 2484 
z
M 1172 3481 
Q 1172 3119 1398 2916 
Q 1625 2713 2034 2713 
Q 2441 2713 2670 2916 
Q 2900 3119 2900 3481 
Q 2900 3844 2670 4047 
Q 2441 4250 2034 4250 
Q 1625 4250 1398 4047 
Q 1172 3844 1172 3481 
z
" transform="scale(0.015625)"/>
       </defs>
       <use xlink:href="#DejaVuSans-30"/>
       <use xlink:href="#DejaVuSans-2e" x="63.623047"/>
       <use xlink:href="#DejaVuSans-38" x="95.410156"/>
      </g>
     </g>
    </g>
    <g id="xtick_6">
     <g id="line2d_6">
      <g>
       <use xlink:href="#m7a0fc69cfd" x="414.72" y="307.584" style="stroke: #000000; stroke-width: 0.8"/>
      </g>
     </g>
     <g id="text_6">
      <!-- 1.0 -->
      <g transform="translate(406.768438 322.182437)scale(0.1 -0.1)">
       <defs>
        <path id="DejaVuSans-31" d="M 794 531 
L 1825 531 
L 1825 4091 
L 703 3866 
L 703 4441 
L 1819 4666 
L 2450 4666 
L 2450 531 
L 3481 531 
L 3481 0 
L 794 0 
L 794 531 
z
" transform="scale(0.015625)"/>
       </defs>
       <use xlink:href="#DejaVuSans-31"/>
       <use xlink:href="#DejaVuSans-2e" x="63.623047"/>
       <use xlink:href="#DejaVuSans-30" x="95.410156"/>
      </g>
     </g>
    </g>
    <g id="text_7">
     <!-- False Positive Rate -->
     <g transform="translate(189.693594 335.860562)scale(0.1 -0.1)">
      <defs>
       <path id="DejaVuSans-46" d="M 628 4666 
L 3309 4666 
L 3309 4134 
L 1259 4134 
L 1259 2759 
L 3109 2759 
L 3109 2228 
L 1259 2228 
L 1259 0 
L 628 0 
L 628 4666 
z
" transform="scale(0.015625)"/>
       <path id="DejaVuSans-61" d="M 2194 1759 
Q 1497 1759 1228 1600 
Q 959 1441 959 1056 
Q 959 750 1161 570 
Q 1363 391 1709 391 
Q 2188 391 2477 730 
Q 2766 1069 2766 1631 
L 2766 1759 
L 2194 1759 
z
M 3341 1997 
L 3341 0 
L 2766 0 
L 2766 531 
Q 2569 213 2275 61 
Q 1981 -91 1556 -91 
Q 1019 -91 701 211 
Q 384 513 384 1019 
Q 384 1609 779 1909 
Q 1175 2209 1959 2209 
L 2766 2209 
L 2766 2266 
Q 2766 2663 2505 2880 
Q 2244 3097 1772 3097 
Q 1472 3097 1187 3025 
Q 903 2953 641 2809 
L 641 3341 
Q 956 3463 1253 3523 
Q 1550 3584 1831 3584 
Q 2591 3584 2966 3190 
Q 3341 2797 3341 1997 
z
" transform="scale(0.015625)"/>
       <path id="DejaVuSans-6c" d="M 603 4863 
L 1178 4863 
L 1178 0 
L 603 0 
L 603 4863 
z
" transform="scale(0.015625)"/>
       <path id="DejaVuSans-73" d="M 2834 3397 
L 2834 2853 
Q 2591 2978 2328 3040 
Q 2066 3103 1784 3103 
Q 1356 3103 1142 2972 
Q 928 2841 928 2578 
Q 928 2378 1081 2264 
Q 1234 2150 1697 2047 
L 1894 2003 
Q 2506 1872 2764 1633 
Q 3022 1394 3022 966 
Q 3022 478 2636 193 
Q 2250 -91 1575 -91 
Q 1294 -91 989 -36 
Q 684 19 347 128 
L 347 722 
Q 666 556 975 473 
Q 1284 391 1588 391 
Q 1994 391 2212 530 
Q 2431 669 2431 922 
Q 2431 1156 2273 1281 
Q 2116 1406 1581 1522 
L 1381 1569 
Q 847 1681 609 1914 
Q 372 2147 372 2553 
Q 372 3047 722 3315 
Q 1072 3584 1716 3584 
Q 2034 3584 2315 3537 
Q 2597 3491 2834 3397 
z
" transform="scale(0.015625)"/>
       <path id="DejaVuSans-65" d="M 3597 1894 
L 3597 1613 
L 953 1613 
Q 991 1019 1311 708 
Q 1631 397 2203 397 
Q 2534 397 2845 478 
Q 3156 559 3463 722 
L 3463 178 
Q 3153 47 2828 -22 
Q 2503 -91 2169 -91 
Q 1331 -91 842 396 
Q 353 884 353 1716 
Q 353 2575 817 3079 
Q 1281 3584 2069 3584 
Q 2775 3584 3186 3129 
Q 3597 2675 3597 1894 
z
M 3022 2063 
Q 3016 2534 2758 2815 
Q 2500 3097 2075 3097 
Q 1594 3097 1305 2825 
Q 1016 2553 972 2059 
L 3022 2063 
z
" transform="scale(0.015625)"/>
       <path id="DejaVuSans-20" transform="scale(0.015625)"/>
       <path id="DejaVuSans-50" d="M 1259 4147 
L 1259 2394 
L 2053 2394 
Q 2494 2394 2734 2622 
Q 2975 2850 2975 3272 
Q 2975 3691 2734 3919 
Q 2494 4147 2053 4147 
L 1259 4147 
z
M 628 4666 
L 2053 4666 
Q 2838 4666 3239 4311 
Q 3641 3956 3641 3272 
Q 3641 2581 3239 2228 
Q 2838 1875 2053 1875 
L 1259 1875 
L 1259 0 
L 628 0 
L 628 4666 
z
" transform="scale(0.015625)"/>
       <path id="DejaVuSans-6f" d="M 1959 3097 
Q 1497 3097 1228 2736 
Q 959 2375 959 1747 
Q 959 1119 1226 758 
Q 1494 397 1959 397 
Q 2419 397 2687 759 
Q 2956 1122 2956 1747 
Q 2956 2369 2687 2733 
Q 2419 3097 1959 3097 
z
M 1959 3584 
Q 2709 3584 3137 3096 
Q 3566 2609 3566 1747 
Q 3566 888 3137 398 
Q 2709 -91 1959 -91 
Q 1206 -91 779 398 
Q 353 888 353 1747 
Q 353 2609 779 3096 
Q 1206 3584 1959 3584 
z
" transform="scale(0.015625)"/>
       <path id="DejaVuSans-69" d="M 603 3500 
L 1178 3500 
L 1178 0 
L 603 0 
L 603 3500 
z
M 603 4863 
L 1178 4863 
L 1178 4134 
L 603 4134 
L 603 4863 
z
" transform="scale(0.015625)"/>
       <path id="DejaVuSans-74" d="M 1172 4494 
L 1172 3500 
L 2356 3500 
L 2356 3053 
L 1172 3053 
L 1172 1153 
Q 1172 725 1289 603 
Q 1406 481 1766 481 
L 2356 481 
L 2356 0 
L 1766 0 
Q 1100 0 847 248 
Q 594 497 594 1153 
L 594 3053 
L 172 3053 
L 172 3500 
L 594 3500 
L 594 4494 
L 1172 4494 
z
" transform="scale(0.015625)"/>
       <path id="DejaVuSans-76" d="M 191 3500 
L 800 3500 
L 1894 563 
L 2988 3500 
L 3597 3500 
L 2284 0 
L 1503 0 
L 191 3500 
z
" transform="scale(0.015625)"/>
       <path id="DejaVuSans-52" d="M 2841 2188 
Q 3044 2119 3236 1894 
Q 3428 1669 3622 1275 
L 4263 0 
L 3584 0 
L 2988 1197 
Q 2756 1666 2539 1819 
Q 2322 1972 1947 1972 
L 1259 1972 
L 1259 0 
L 628 0 
L 628 4666 
L 2053 4666 
Q 2853 4666 3247 4331 
Q 3641 3997 3641 3322 
Q 3641 2881 3436 2590 
Q 3231 2300 2841 2188 
z
M 1259 4147 
L 1259 2491 
L 2053 2491 
Q 2509 2491 2742 2702 
Q 2975 2913 2975 3322 
Q 2975 3731 2742 3939 
Q 2509 4147 2053 4147 
L 1259 4147 
z
" transform="scale(0.015625)"/>
      </defs>
      <use xlink:href="#DejaVuSans-46"/>
      <use xlink:href="#DejaVuSans-61" x="48.394531"/>
      <use xlink:href="#DejaVuSans-6c" x="109.673828"/>
      <use xlink:href="#DejaVuSans-73" x="137.457031"/>
      <use xlink:href="#DejaVuSans-65" x="189.556641"/>
      <use xlink:href="#DejaVuSans-20" x="251.080078"/>
      <use xlink:href="#DejaVuSans-50" x="282.867188"/>
      <use xlink:href="#DejaVuSans-6f" x="339.544922"/>
      <use xlink:href="#DejaVuSans-73" x="400.726562"/>
      <use xlink:href="#DejaVuSans-69" x="452.826172"/>
      <use xlink:href="#DejaVuSans-74" x="480.609375"/>
      <use xlink:href="#DejaVuSans-69" x="519.818359"/>
      <use xlink:href="#DejaVuSans-76" x="547.601562"/>
      <use xlink:href="#DejaVuSans-65" x="606.78125"/>
      <use xlink:href="#DejaVuSans-20" x="668.304688"/>
      <use xlink:href="#DejaVuSans-52" x="700.091797"/>
      <use xlink:href="#DejaVuSans-61" x="767.324219"/>
      <use xlink:href="#DejaVuSans-74" x="828.603516"/>
      <use xlink:href="#DejaVuSans-65" x="867.8125"/>
     </g>
    </g>
   </g>
   <g id="matplotlib.axis_2">
    <g id="ytick_1">
     <g id="line2d_7">
      <defs>
       <path id="mfe60c7afb8" d="M 0 0 
L -3.5 0 
" style="stroke: #000000; stroke-width: 0.8"/>
      </defs>
      <g>
       <use xlink:href="#mfe60c7afb8" x="57.6" y="307.584" style="stroke: #000000; stroke-width: 0.8"/>
      </g>
     </g>
     <g id="text_8">
      <!-- 0.0 -->
      <g transform="translate(34.696875 311.383219)scale(0.1 -0.1)">
       <use xlink:href="#DejaVuSans-30"/>
       <use xlink:href="#DejaVuSans-2e" x="63.623047"/>
       <use xlink:href="#DejaVuSans-30" x="95.410156"/>
      </g>
     </g>
    </g>
    <g id="ytick_2">
     <g id="line2d_8">
      <g>
       <use xlink:href="#mfe60c7afb8" x="57.6" y="256.896" style="stroke: #000000; stroke-width: 0.8"/>
      </g>
     </g>
     <g id="text_9">
      <!-- 0.2 -->
      <g transform="translate(34.696875 260.695219)scale(0.1 -0.1)">
       <use xlink:href="#DejaVuSans-30"/>
       <use xlink:href="#DejaVuSans-2e" x="63.623047"/>
       <use xlink:href="#DejaVuSans-32" x="95.410156"/>
      </g>
     </g>
    </g>
    <g id="ytick_3">
     <g id="line2d_9">
      <g>
       <use xlink:href="#mfe60c7afb8" x="57.6" y="206.208" style="stroke: #000000; stroke-width: 0.8"/>
      </g>
     </g>
     <g id="text_10">
      <!-- 0.4 -->
      <g transform="translate(34.696875 210.007219)scale(0.1 -0.1)">
       <use xlink:href="#DejaVuSans-30"/>
       <use xlink:href="#DejaVuSans-2e" x="63.623047"/>
       <use xlink:href="#DejaVuSans-34" x="95.410156"/>
      </g>
     </g>
    </g>
    <g id="ytick_4">
     <g id="line2d_10">
      <g>
       <use xlink:href="#mfe60c7afb8" x="57.6" y="155.52" style="stroke: #000000; stroke-width: 0.8"/>
      </g>
     </g>
     <g id="text_11">
      <!-- 0.6 -->
      <g transform="translate(34.696875 159.319219)scale(0.1 -0.1)">
       <use xlink:href="#DejaVuSans-30"/>
       <use xlink:href="#DejaVuSans-2e" x="63.623047"/>
       <use xlink:href="#DejaVuSans-36" x="95.410156"/>
      </g>
     </g>
    </g>
    <g id="ytick_5">
     <g id="line2d_11">
      <g>
       <use xlink:href="#mfe60c7afb8" x="57.6" y="104.832" style="stroke: #000000; stroke-width: 0.8"/>
      </g>
     </g>
     <g id="text_12">
      <!-- 0.8 -->
      <g transform="translate(34.696875 108.631219)scale(0.1 -0.1)">
       <use xlink:href="#DejaVuSans-30"/>
       <use xlink:href="#DejaVuSans-2e" x="63.623047"/>
       <use xlink:href="#DejaVuSans-38" x="95.410156"/>
      </g>
     </g>
    </g>
    <g id="ytick_6">
     <g id="line2d_12">
      <g>
       <use xlink:href="#mfe60c7afb8" x="57.6" y="54.144" style="stroke: #000000; stroke-width: 0.8"/>
      </g>
     </g>
     <g id="text_13">
      <!-- 1.0 -->
      <g transform="translate(34.696875 57.943219)scale(0.1 -0.1)">
       <use xlink:href="#DejaVuSans-31"/>
       <use xlink:href="#DejaVuSans-2e" x="63.623047"/>
       <use xlink:href="#DejaVuSans-30" x="95.410156"/>
      </g>
     </g>
    </g>
    <g id="text_14">
     <!-- True Positive Rate -->
     <g transform="translate(28.617187 219.057687)rotate(-90)scale(0.1 -0.1)">
      <defs>
       <path id="DejaVuSans-54" d="M -19 4666 
L 3928 4666 
L 3928 4134 
L 2272 4134 
L 2272 0 
L 1638 0 
L 1638 4134 
L -19 4134 
L -19 4666 
z
" transform="scale(0.015625)"/>
       <path id="DejaVuSans-72" d="M 2631 2963 
Q 2534 3019 2420 3045 
Q 2306 3072 2169 3072 
Q 1681 3072 1420 2755 
Q 1159 2438 1159 1844 
L 1159 0 
L 581 0 
L 581 3500 
L 1159 3500 
L 1159 2956 
Q 1341 3275 1631 3429 
Q 1922 3584 2338 3584 
Q 2397 3584 2469 3576 
Q 2541 3569 2628 3553 
L 2631 2963 
z
" transform="scale(0.015625)"/>
       <path id="DejaVuSans-75" d="M 544 1381 
L 544 3500 
L 1119 3500 
L 1119 1403 
Q 1119 906 1312 657 
Q 1506 409 1894 409 
Q 2359 409 2629 706 
Q 2900 1003 2900 1516 
L 2900 3500 
L 3475 3500 
L 3475 0 
L 2900 0 
L 2900 538 
Q 2691 219 2414 64 
Q 2138 -91 1772 -91 
Q 1169 -91 856 284 
Q 544 659 544 1381 
z
M 1991 3584 
L 1991 3584 
z
" transform="scale(0.015625)"/>
      </defs>
      <use xlink:href="#DejaVuSans-54"/>
      <use xlink:href="#DejaVuSans-72" x="46.333984"/>
      <use xlink:href="#DejaVuSans-75" x="87.447266"/>
      <use xlink:href="#DejaVuSans-65" x="150.826172"/>
      <use xlink:href="#DejaVuSans-20" x="212.349609"/>
      <use xlink:href="#DejaVuSans-50" x="244.136719"/>
      <use xlink:href="#DejaVuSans-6f" x="300.814453"/>
      <use xlink:href="#DejaVuSans-73" x="361.996094"/>
      <use xlink:href="#DejaVuSans-69" x="414.095703"/>
      <use xlink:href="#DejaVuSans-74" x="441.878906"/>
      <use xlink:href="#DejaVuSans-69" x="481.087891"/>
      <use xlink:href="#DejaVuSans-76" x="508.871094"/>
      <use xlink:href="#DejaVuSans-65" x="568.050781"/>
      <use xlink:href="#DejaVuSans-20" x="629.574219"/>
      <use xlink:href="#DejaVuSans-52" x="661.361328"/>
      <use xlink:href="#DejaVuSans-61" x="728.59375"/>
      <use xlink:href="#DejaVuSans-74" x="789.873047"/>
      <use xlink:href="#DejaVuSans-65" x="829.082031"/>
     </g>
    </g>
   </g>
   <g id="line2d_13">
    <path d="M 74.605714 307.584 
L 74.864442 306.855445 
L 75.130179 305.897146 
L 75.160742 305.787449 
L 75.271216 305.361078 
L 75.308456 305.251381 
L 75.418972 304.82501 
L 75.419511 304.82501 
L 75.449452 304.715313 
L 75.5603 304.433826 
L 75.560466 304.433826 
L 75.6077 304.324129 
L 75.71776 304.05713 
L 75.718589 304.05713 
L 75.775692 303.947432 
L 75.886499 303.719759 
L 75.937589 303.610061 
L 76.048313 303.427923 
L 76.048644 303.427923 
L 76.104711 303.318225 
L 76.219623 303.100901 
L 76.289167 302.991203 
L 76.397693 302.815274 
L 76.400264 302.815274 
L 76.489216 302.705576 
L 76.599732 302.511019 
L 76.600271 302.511019 
L 76.673465 302.401322 
L 76.783649 302.183997 
L 76.784271 302.183997 
L 76.852613 302.0743 
L 76.962756 301.883882 
L 76.96371 301.883882 
L 77.056187 301.774185 
L 77.161478 301.594116 
L 77.167159 301.594116 
L 77.255116 301.484418 
L 77.3653 301.314698 
L 77.366212 301.314698 
L 77.442558 301.205001 
L 77.553115 301.066327 
L 77.553406 301.066327 
L 77.677067 300.95663 
L 77.78721 300.851072 
L 77.788164 300.851072 
L 77.908011 300.741375 
L 78.014214 300.621329 
L 78.019108 300.621329 
L 78.149488 300.511631 
L 78.254488 300.422632 
L 78.260584 300.422632 
L 78.349661 300.312934 
L 78.456486 300.236353 
L 78.460757 300.236353 
L 78.611292 300.126656 
L 78.719942 300.00454 
L 78.722305 300.00454 
L 78.850073 299.894843 
L 78.957396 299.797564 
L 78.96117 299.797564 
L 79.05008 299.687867 
L 79.159642 299.586449 
L 79.161094 299.586449 
L 79.284797 299.476751 
L 79.391706 299.379473 
L 79.395852 299.379473 
L 79.515368 299.269775 
L 79.624474 299.151799 
L 79.626464 299.151799 
L 79.724954 299.042102 
L 79.835263 298.919986 
L 79.835968 298.919986 
L 79.947604 298.810289 
L 80.052978 298.719219 
L 80.057581 298.719219 
L 80.196421 298.609522 
L 80.3059 298.497755 
L 80.307144 298.497755 
L 80.428733 298.388058 
L 80.538544 298.278361 
L 80.539332 298.278361 
L 80.6739 298.168663 
L 80.783753 298.073454 
L 80.784292 298.073454 
L 80.927444 297.963757 
L 81.038209 297.885106 
L 81.262559 297.775409 
L 81.369509 297.731944 
L 81.372578 297.731944 
L 81.736804 297.622247 
L 81.843837 297.584991 
L 81.847818 297.584991 
L 82.129561 297.475294 
L 82.239994 297.438038 
L 82.240637 297.438038 
L 82.577058 297.328341 
L 82.676523 297.274527 
L 82.68716 297.274527 
L 82.932991 297.16483 
L 83.040853 297.117225 
L 83.044046 297.117225 
L 83.261844 297.007528 
L 83.368793 296.953714 
L 83.371033 296.953714 
L 83.560175 296.844017 
L 83.672557 296.761227 
L 83.842001 296.65153 
L 83.949283 296.531483 
L 83.953057 296.531483 
L 84.039438 296.421786 
L 84.150203 296.334856 
L 84.28925 296.225159 
L 84.396821 296.100973 
L 84.400305 296.100973 
L 84.481004 295.991276 
L 84.591977 295.865021 
L 84.700959 295.755324 
L 84.810065 295.645626 
L 84.812035 295.645626 
L 84.907435 295.535929 
L 85.017827 295.428302 
L 85.115695 295.318604 
L 85.222022 295.225465 
L 85.226791 295.225465 
L 85.376994 295.115768 
L 85.487883 295.022629 
L 85.605781 294.912931 
L 85.715965 294.817722 
L 85.716878 294.817722 
L 85.857832 294.708025 
L 85.968722 294.625235 
L 86.087241 294.515538 
L 86.198048 294.418259 
L 86.198089 294.418259 
L 86.328635 294.308562 
L 86.434051 294.229911 
L 86.439732 294.229911 
L 86.575461 294.120213 
L 86.686019 294.039493 
L 86.686392 294.039493 
L 86.847708 293.929796 
L 86.95839 293.851145 
L 86.958784 293.851145 
L 87.100921 293.741447 
L 87.208783 293.673145 
L 87.212018 293.673145 
L 87.37039 293.563448 
L 87.479081 293.443402 
L 87.481445 293.443402 
L 87.583957 293.333705 
L 87.692939 293.238496 
L 87.695013 293.238496 
L 87.838746 293.128799 
L 87.94864 293.041869 
L 87.949843 293.041869 
L 88.142924 292.932171 
L 88.252653 292.845241 
L 88.254021 292.845241 
L 88.386806 292.735544 
L 88.49641 292.648614 
L 88.497571 292.648614 
L 88.644871 292.538917 
L 88.754848 292.209825 
L 88.755926 292.209825 
L 88.796898 292.100128 
L 88.904636 291.951105 
L 88.907912 291.951105 
L 88.964227 291.841408 
L 89.074743 291.446084 
L 89.074951 291.446084 
L 89.164359 291.336387 
L 89.275456 291.183224 
L 89.37886 291.072492 
L 89.487489 290.936923 
L 89.489811 290.936923 
L 89.60124 290.826191 
L 89.709765 290.738226 
L 89.712336 290.738226 
L 89.809873 290.628529 
L 89.91479 290.502274 
L 89.920969 290.502274 
L 90.016183 290.392576 
L 90.125745 290.243554 
L 90.12728 290.243554 
L 90.258199 290.133856 
L 90.369005 290.003461 
L 90.36913 290.003461 
L 90.506062 289.895834 
L 90.506062 289.893764 
L 90.61608 289.825462 
L 90.617159 289.825462 
L 90.771093 289.715765 
L 90.877628 289.653672 
L 90.882169 289.653672 
L 91.017132 289.543975 
L 91.125491 289.452905 
L 91.128228 289.452905 
L 91.279468 289.343208 
L 91.39044 289.250069 
L 91.390564 289.250069 
L 91.52646 289.140372 
L 91.635794 289.078279 
L 91.637473 289.078279 
L 91.818985 288.968582 
L 91.928174 288.885791 
L 91.929958 288.885791 
L 92.150119 288.775059 
L 92.257442 288.693304 
L 92.26105 288.693304 
L 92.449446 288.583606 
L 92.560169 288.492537 
L 92.560335 288.492537 
L 92.723974 288.38284 
L 92.8359 288.29591 
L 93.002317 288.186213 
L 93.112874 288.105492 
L 93.113372 288.105492 
L 93.156459 287.995795 
L 93.267348 287.807446 
L 93.267555 287.807446 
L 93.378486 287.697749 
L 93.487924 287.581843 
L 93.489541 287.581843 
L 93.58828 287.472145 
L 93.693778 287.34796 
L 93.699294 287.34796 
L 93.741634 287.240332 
L 93.851943 286.989891 
L 93.852731 286.989891 
L 93.927459 286.880194 
L 94.038307 286.644242 
L 94.038556 286.644242 
L 94.099474 286.534544 
L 94.210405 286.354475 
L 94.210571 286.354475 
L 94.291271 286.244778 
L 94.400418 286.122662 
L 94.402326 286.122662 
L 94.472658 286.012965 
L 94.583382 285.785291 
L 94.583755 285.785291 
L 94.673453 285.674559 
L 94.784114 285.522432 
L 94.784425 285.522432 
L 94.893324 285.412735 
L 95.003633 285.28027 
L 95.004338 285.28027 
L 95.104404 285.170573 
L 95.215252 285.036038 
L 95.21548 285.036038 
L 95.3295 284.926341 
L 95.439311 284.831132 
L 95.440597 284.831132 
L 95.59984 284.721435 
L 95.710542 284.632435 
L 95.710936 284.632435 
L 95.831156 284.522738 
L 95.935245 284.408901 
L 95.942232 284.408901 
L 96.078605 284.299204 
L 96.185845 284.201925 
L 96.189681 284.201925 
L 96.36267 284.092228 
L 96.470781 284.019786 
L 96.473643 284.019786 
L 96.599461 283.909054 
L 96.709438 283.81902 
L 96.710351 283.81902 
L 96.865073 283.709322 
L 96.971525 283.593416 
L 96.976087 283.593416 
L 97.08511 283.483719 
L 97.194755 283.394719 
L 97.196082 283.394719 
L 97.314727 283.285022 
L 97.422091 283.158766 
L 97.425823 283.158766 
L 97.570427 283.049069 
L 97.678994 282.962139 
L 97.681524 282.962139 
L 97.807425 282.852442 
L 97.916531 282.759303 
L 97.918522 282.759303 
L 98.053381 282.649605 
L 98.162528 282.558536 
L 98.164477 282.558536 
L 98.298009 282.448839 
L 98.406576 282.363979 
L 98.409106 282.363979 
L 98.576767 282.254281 
L 98.686288 282.163212 
L 98.687864 282.163212 
L 98.848931 282.053515 
L 98.959779 281.983143 
L 98.959945 281.983143 
L 99.115206 281.873446 
L 99.226013 281.798934 
L 99.22622 281.798934 
L 99.379408 281.689237 
L 99.379408 281.688202 
L 99.493532 281.614726 
L 99.633202 281.505028 
L 99.633202 281.503993 
L 99.745501 281.445005 
L 99.907149 281.335308 
L 100.012315 281.256657 
L 100.018204 281.256657 
L 100.176617 281.14696 
L 100.28676 281.0621 
L 100.287714 281.0621 
L 100.441276 280.952403 
L 100.548184 280.865473 
L 100.552372 280.865473 
L 100.662432 280.755775 
L 100.77328 280.664706 
L 100.773487 280.664706 
L 100.889063 280.553974 
L 100.998045 280.480497 
L 100.999952 280.480497 
L 101.168774 280.369765 
L 101.27983 280.290079 
L 101.279871 280.290079 
L 101.422485 280.180382 
L 101.526117 280.101731 
L 101.533581 280.101731 
L 101.690212 279.992034 
L 101.799318 279.934081 
L 101.801225 279.934081 
L 101.947986 279.824384 
L 102.056387 279.737454 
L 102.059062 279.737454 
L 102.218533 279.627756 
L 102.326768 279.532547 
L 102.329629 279.532547 
L 102.511183 279.42285 
L 102.62116 279.331781 
L 102.622238 279.331781 
L 102.776007 279.222083 
L 102.885071 279.141363 
L 102.887103 279.141363 
L 103.027809 279.031666 
L 103.138533 278.934387 
L 103.138906 278.934387 
L 103.322491 278.82469 
L 103.322491 278.823655 
L 103.434749 278.766736 
L 103.542777 278.657039 
L 103.651593 278.543202 
L 103.653832 278.543202 
L 103.798685 278.43247 
L 103.908247 278.363133 
L 103.90974 278.363133 
L 104.043479 278.253436 
L 104.153498 278.149948 
L 104.154576 278.149948 
L 104.316805 278.040251 
L 104.425206 277.951251 
L 104.427901 277.951251 
L 104.630646 277.841554 
L 104.738072 277.758763 
L 104.741722 277.758763 
L 104.89323 277.649066 
L 105.001797 277.589043 
L 105.004286 277.589043 
L 105.120732 277.479346 
L 105.224571 277.382067 
L 105.231787 277.382067 
L 105.372742 277.27237 
L 105.477597 277.228905 
L 105.483838 277.228905 
L 105.674909 277.119208 
L 105.786897 277.017789 
L 105.908569 276.908092 
L 106.018795 276.796325 
L 106.019665 276.796325 
L 106.191722 276.686628 
L 106.304975 276.576931 
L 106.473341 276.467233 
L 106.582572 276.349257 
L 106.584417 276.349257 
L 106.714943 276.23956 
L 106.812479 276.146421 
L 106.826018 276.146421 
L 107.00469 276.036723 
L 107.112179 275.951863 
L 107.115745 275.951863 
L 107.189353 275.842166 
L 107.300243 275.697283 
L 107.300408 275.697283 
L 107.387951 275.586551 
L 107.494071 275.492377 
L 107.49884 275.492377 
L 107.611761 275.382679 
L 107.720784 275.260563 
L 107.722858 275.260563 
L 107.84229 275.150866 
L 107.952205 275.043239 
L 107.953387 275.043239 
L 108.060834 274.933541 
L 108.171723 274.852821 
L 108.303057 274.743124 
L 108.404865 274.660333 
L 108.414154 274.660333 
L 108.52778 274.550636 
L 108.638587 274.440939 
L 108.638836 274.440939 
L 108.772823 274.331241 
L 108.8794 274.225684 
L 108.883899 274.225684 
L 109.010568 274.115986 
L 109.117559 274.008359 
L 109.121644 274.008359 
L 109.299838 273.897627 
L 109.413112 273.786895 
L 109.559458 273.677197 
L 109.66931 273.561291 
L 109.670534 273.561291 
L 109.934093 273.450559 
L 110.041831 273.356385 
L 110.04519 273.356385 
L 110.206506 273.246687 
L 110.31387 273.149409 
L 110.317582 273.149409 
L 110.51678 273.038676 
L 110.626882 272.944502 
L 110.627877 272.944502 
L 110.792594 272.834805 
L 110.903317 272.754085 
L 110.903649 272.754085 
L 111.089142 272.644387 
L 111.200073 272.551248 
L 111.200197 272.551248 
L 111.361472 272.440516 
L 111.472361 272.408435 
L 111.472569 272.408435 
L 111.680123 272.298737 
L 111.787446 272.271831 
L 111.791199 272.271831 
L 112.029255 272.161098 
L 112.139958 272.075203 
L 112.14031 272.075203 
L 112.281306 271.964471 
L 112.382243 271.876506 
L 112.392403 271.876506 
L 112.667097 271.766809 
L 112.77894 271.692298 
L 112.904385 271.582601 
L 113.014818 271.489461 
L 113.01544 271.489461 
L 113.121478 271.379764 
L 113.226105 271.267997 
L 113.232574 271.267997 
L 113.360134 271.1583 
L 113.469946 271.085858 
L 113.471148 271.085858 
L 113.592612 270.976161 
L 113.700391 270.870603 
L 113.703626 270.870603 
L 113.835582 270.760906 
L 113.951531 270.64086 
L 114.094642 270.531163 
L 114.205199 270.433884 
L 114.205738 270.433884 
L 114.352457 270.323152 
L 114.459324 270.233117 
L 114.463554 270.233117 
L 114.58506 270.12342 
L 114.694871 270.055118 
L 114.696115 270.055118 
L 114.855316 269.945421 
L 114.96492 269.860561 
L 114.966413 269.860561 
L 115.103635 269.750863 
L 115.213654 269.653585 
L 115.214732 269.653585 
L 115.415361 269.543887 
L 115.5282 269.456957 
L 115.650078 269.34726 
L 115.760346 269.283098 
L 115.761175 269.283098 
L 115.902918 269.1734 
L 116.01331 269.09061 
L 116.014014 269.09061 
L 116.162807 268.979878 
L 116.27042 268.82982 
L 116.273779 268.82982 
L 116.386784 268.720123 
L 116.495434 268.651821 
L 116.49788 268.651821 
L 116.599149 268.542124 
L 116.70952 268.432426 
L 116.710245 268.432426 
L 116.8371 268.322729 
L 116.8371 268.321694 
L 116.951971 268.22959 
L 117.120233 268.119893 
L 117.232263 268.026753 
L 117.386654 267.917056 
L 117.505257 267.792871 
L 117.628338 267.683173 
L 117.738522 267.519662 
L 117.739435 267.519662 
L 117.859945 267.40893 
L 117.970585 267.296128 
L 117.971042 267.296128 
L 118.147411 267.186431 
L 118.257637 267.097431 
L 118.258508 267.097431 
L 118.407922 266.987734 
L 118.503136 266.919432 
L 118.518978 266.919432 
L 118.666319 266.809735 
L 118.772232 266.722805 
L 118.777415 266.722805 
L 118.977589 266.613108 
L 119.086944 266.513759 
L 119.088644 266.513759 
L 119.180706 266.404062 
L 119.29172 266.317132 
L 119.291761 266.317132 
L 119.431223 266.207435 
L 119.541822 266.124644 
L 119.54232 266.124644 
L 119.712427 266.013912 
L 119.828376 265.892831 
L 119.968833 265.782099 
L 120.046215 265.764506 
L 120.079888 265.764506 
L 120.217152 265.654809 
L 120.324849 265.536833 
L 120.328208 265.536833 
L 120.466757 265.427135 
L 120.575138 265.309159 
L 120.577812 265.309159 
L 120.71348 265.198427 
L 120.826069 265.12495 
L 120.970072 265.015253 
L 121.081998 264.905556 
L 121.228137 264.795859 
L 121.337346 264.706859 
L 121.33915 264.706859 
L 121.516059 264.597162 
L 121.624253 264.491604 
L 121.627114 264.491604 
L 121.795895 264.381907 
L 121.89961 264.286698 
L 121.906909 264.286698 
L 122.076768 264.17907 
L 122.076768 264.177001 
L 122.174387 264.100419 
L 122.187864 264.100419 
L 122.358532 263.989687 
L 122.471889 263.876885 
L 122.611434 263.767188 
L 122.691179 263.729932 
L 122.722199 263.729932 
L 122.963095 263.622305 
L 122.963095 263.6192 
L 123.075518 263.554003 
L 123.11056 263.443271 
L 123.23078 262.987924 
L 123.292943 262.878226 
L 123.403625 262.177613 
L 123.404039 262.177613 
L 123.423033 262.067915 
L 123.423033 262.066881 
L 123.547648 261.393174 
L 123.574811 261.282442 
L 123.685825 260.829164 
L 123.685845 260.829164 
L 123.715019 260.718432 
L 123.838847 260.401759 
L 123.885417 260.291027 
L 123.996514 259.95883 
L 124.035039 259.848098 
L 124.146011 259.586274 
L 124.146094 259.586274 
L 124.215037 259.475541 
L 124.34071 259.236484 
L 124.406937 259.125752 
L 124.517951 258.830811 
L 124.517992 258.830811 
L 124.55349 258.721114 
L 124.662907 258.460324 
L 124.664587 258.460324 
L 124.702822 258.349592 
L 124.829884 257.953233 
L 124.875915 257.843536 
L 125.001879 257.474084 
L 125.035987 257.363352 
L 125.146877 257.046679 
L 125.147001 257.046679 
L 125.226415 256.936981 
L 125.327725 256.792098 
L 125.33747 256.792098 
L 125.427625 256.681366 
L 125.537727 256.556145 
L 125.53868 256.556145 
L 125.622739 256.446448 
L 125.730974 256.233263 
L 125.733545 256.233263 
L 125.823866 256.123566 
L 125.823866 256.122531 
L 125.934921 255.974543 
L 126.110254 255.864846 
L 126.221185 255.724102 
L 126.221309 255.724102 
L 126.322433 255.614405 
L 126.434794 255.48401 
L 126.579149 255.373278 
L 126.689707 255.272894 
L 126.690246 255.272894 
L 126.778534 255.163197 
L 126.889631 255.018314 
L 126.959217 254.908617 
L 127.068406 254.714059 
L 127.070314 254.714059 
L 127.148525 254.604362 
L 127.258544 254.430502 
L 127.259622 254.430502 
L 127.337419 254.320805 
L 127.448183 254.169713 
L 127.448432 254.169713 
L 127.532823 254.060015 
L 127.643131 253.908923 
L 127.643878 253.908923 
L 127.735111 253.799226 
L 127.845668 253.67297 
L 127.846187 253.67297 
L 127.915793 253.563273 
L 128.02548 253.430808 
L 128.026765 253.430808 
L 128.107341 253.321111 
L 128.211657 253.170019 
L 128.218417 253.170019 
L 128.301127 253.060321 
L 128.413779 252.981671 
L 128.515193 252.871973 
L 128.624838 252.712602 
L 128.62629 252.712602 
L 128.69347 252.602905 
L 128.803489 252.449742 
L 128.804525 252.449742 
L 128.860551 252.340045 
L 128.96381 252.170325 
L 128.971606 252.170325 
L 129.165351 252.059593 
L 129.276241 251.909535 
L 129.276448 251.909535 
L 129.355323 251.799838 
L 129.464512 251.663234 
L 129.46642 251.663234 
L 129.541044 251.553536 
L 129.541044 251.552501 
L 129.65438 251.441769 
L 129.770142 251.332072 
L 129.880451 251.216166 
L 129.881239 251.216166 
L 130.059474 251.105433 
L 130.166922 251.027817 
L 130.170571 251.027817 
L 130.349346 250.917085 
L 130.453517 250.827051 
L 130.460443 250.827051 
L 130.605213 250.716319 
L 130.709425 250.638703 
L 130.716247 250.638703 
L 130.904747 250.529005 
L 131.013977 250.464843 
L 131.015843 250.464843 
L 131.116531 250.355146 
L 131.226093 250.266146 
L 131.227545 250.266146 
L 131.322344 250.156449 
L 131.431471 250.048821 
L 131.433441 250.048821 
L 131.545242 249.939124 
L 131.653727 249.843915 
L 131.656256 249.843915 
L 131.761485 249.734218 
L 131.873618 249.62866 
L 132.002568 249.518963 
L 132.112814 249.411335 
L 132.113664 249.411335 
L 132.188973 249.303708 
L 132.188973 249.300603 
L 132.302102 249.19815 
L 132.386409 249.088453 
L 132.501155 248.906314 
L 132.572939 248.796617 
L 132.683248 248.653803 
L 132.683994 248.653803 
L 132.748189 248.543071 
L 132.865464 248.390944 
L 132.967977 248.281246 
L 133.078535 248.128084 
L 133.079032 248.128084 
L 133.247979 248.018387 
L 133.357562 247.945945 
L 133.358972 247.945945 
L 133.486532 247.836248 
L 133.598313 247.7369 
L 133.752538 247.626167 
L 133.864298 247.610644 
L 133.974939 247.503017 
L 134.085413 247.343645 
L 134.086035 247.343645 
L 134.135011 247.236018 
L 134.135011 247.233948 
L 134.245485 247.008344 
L 134.246107 247.008344 
L 134.284301 246.898647 
L 134.394879 246.689601 
L 134.395377 246.689601 
L 134.42737 246.579904 
L 134.546139 246.325323 
L 134.627336 246.215626 
L 134.736525 246.087301 
L 134.738433 246.087301 
L 134.809097 245.977604 
L 134.920152 245.846174 
L 134.920194 245.846174 
L 135.018601 245.735442 
L 135.132248 245.673349 
L 135.225077 245.563652 
L 135.331073 245.437397 
L 135.336174 245.437397 
L 135.419237 245.327699 
L 135.526726 245.164188 
L 135.530334 245.164188 
L 135.625983 245.053456 
L 135.734861 244.919957 
L 135.737018 244.919957 
L 135.848114 244.810259 
L 135.956723 244.679865 
L 135.959211 244.679865 
L 136.110492 244.570167 
L 136.221547 244.433563 
L 136.619737 244.323866 
L 136.732783 244.226587 
L 136.856984 244.11689 
L 136.965882 244.017541 
L 136.96808 244.017541 
L 137.251027 243.907844 
L 137.35667 243.812635 
L 137.362082 243.812635 
L 137.517841 243.702938 
L 137.62786 243.580822 
L 137.628896 243.580822 
L 137.71988 243.471125 
L 137.830749 243.371776 
L 137.830977 243.371776 
L 137.951487 243.261044 
L 138.062294 243.133754 
L 138.062584 243.133754 
L 138.180419 243.024057 
L 138.180419 243.023022 
L 138.296181 242.906081 
L 138.396123 242.796383 
L 138.501331 242.65357 
L 138.50722 242.65357 
L 138.607804 242.543873 
L 138.717553 242.465222 
L 138.718797 242.465222 
L 138.805033 242.355524 
L 138.917228 242.235478 
L 139.029963 242.124746 
L 139.140375 242.024363 
L 139.141039 242.024363 
L 139.259268 241.914666 
L 139.37248 241.809108 
L 139.60162 241.699411 
L 139.713525 241.614551 
L 139.836109 241.504853 
L 139.940239 241.428272 
L 139.947205 241.428272 
L 140.115675 241.31754 
L 140.225984 241.202668 
L 140.22673 241.202668 
L 140.351947 241.091936 
L 140.465076 240.989483 
L 140.579636 240.879786 
L 140.693158 240.75974 
L 140.809418 240.650043 
L 140.921945 240.50309 
L 141.041129 240.392357 
L 141.147 240.316811 
L 141.152225 240.316811 
L 141.261995 240.207114 
L 141.359531 240.15123 
L 141.37305 240.15123 
L 141.683034 240.041533 
L 141.683034 240.040498 
L 141.795624 239.964952 
L 141.960009 239.855255 
L 142.070484 239.786953 
L 142.070898 239.786953 
L 142.209863 239.677255 
L 142.320793 239.579977 
L 142.320959 239.579977 
L 142.44628 239.469245 
L 142.555262 239.37921 
L 142.557377 239.37921 
L 142.693106 239.269513 
L 142.803083 239.161885 
L 142.804079 239.161885 
L 142.933422 239.052188 
L 143.043399 238.956979 
L 143.044477 238.956979 
L 143.295326 238.847282 
L 143.413597 238.77898 
L 143.489652 238.668248 
L 143.600189 238.456097 
L 143.600666 238.456097 
L 143.672988 238.3464 
L 143.782675 238.216005 
L 143.784043 238.216005 
L 143.949216 238.105273 
L 144.05824 238.060773 
L 144.060272 238.060773 
L 144.186484 237.951076 
L 144.293247 237.857937 
L 144.297539 237.857937 
L 144.544262 237.748239 
L 144.651917 237.642682 
L 144.655358 237.642682 
L 144.756834 237.532984 
L 144.86648 237.412938 
L 144.86789 237.412938 
L 144.962025 237.303241 
L 145.072935 237.129381 
L 145.073101 237.129381 
L 145.162696 237.019684 
L 145.268277 236.887219 
L 145.273772 236.887219 
L 145.387502 236.777522 
L 145.498412 236.692662 
L 145.498599 236.692662 
L 145.605507 236.582965 
L 145.717723 236.496035 
L 145.845802 236.385303 
L 145.975332 236.082083 
L 146.03314 235.971351 
L 146.149255 235.8482 
L 146.246459 235.738503 
L 146.246459 235.737468 
L 146.362408 235.618457 
L 146.441739 235.50876 
L 146.552338 235.33076 
L 146.552835 235.33076 
L 146.643778 235.221063 
L 146.758565 235.030645 
L 146.833874 234.919913 
L 146.933463 234.856785 
L 146.943436 234.856785 
L 147.15041 234.747088 
L 147.259517 234.529763 
L 147.261507 234.529763 
L 147.325826 234.419031 
L 147.438457 234.341415 
L 147.572528 234.231718 
L 147.682298 234.078556 
L 147.683625 234.078556 
L 147.732974 233.967823 
L 147.844029 233.78051 
L 147.894248 233.670813 
L 148.005262 233.484535 
L 148.005345 233.484535 
L 148.047312 233.374837 
L 148.167594 232.913281 
L 148.346348 232.399981 
L 148.442143 232.289248 
L 148.551871 231.944633 
L 148.553157 231.944633 
L 148.630995 231.833901 
L 148.740951 231.62796 
L 148.74205 231.62796 
L 148.888935 231.518263 
L 149.001836 231.336124 
L 149.116188 231.226427 
L 149.227284 231.063951 
L 149.279453 230.953219 
L 149.398097 230.76694 
L 149.493187 230.656208 
L 149.603703 230.522709 
L 149.604221 230.522709 
L 149.720398 230.413011 
L 149.82967 230.315733 
L 149.831432 230.315733 
L 149.947733 230.214314 
L 150.198292 230.104617 
L 150.309389 229.980431 
L 150.39154 229.870734 
L 150.39154 229.869699 
L 150.505456 229.729991 
L 150.589639 229.620293 
L 150.69999 229.450573 
L 150.700736 229.450573 
L 150.767025 229.340876 
L 150.873954 229.229109 
L 150.877956 229.229109 
L 151.062847 229.029377 
L 151.161337 228.866901 
L 151.272165 228.592658 
L 151.430993 228.007951 
L 151.542069 227.648847 
L 151.583911 227.538115 
L 151.693204 227.24007 
L 151.695008 227.24007 
L 151.77606 227.129338 
L 152.067611 226.501166 
L 152.097531 226.390433 
L 152.25835 225.566669 
L 152.393997 225.369007 
L 152.496696 225.258275 
L 152.617683 225.095799 
L 152.741241 224.986101 
L 152.887608 224.870195 
L 153.102046 224.759463 
L 153.218389 224.630103 
L 153.297471 224.520406 
L 153.408319 224.390011 
L 153.408547 224.390011 
L 153.501294 224.279279 
L 153.610752 224.166477 
L 153.612349 224.166477 
L 153.730951 224.056779 
L 153.841633 223.905687 
L 153.842027 223.905687 
L 153.911841 223.798059 
L 154.022897 223.612816 
L 154.022938 223.612816 
L 154.169201 223.502084 
L 154.285751 223.289933 
L 154.32355 223.179201 
L 154.452562 222.58518 
L 154.460234 222.474448 
L 154.584393 222.150531 
L 154.611431 222.039799 
L 154.720164 221.715881 
L 154.722466 221.715881 
L 154.813699 221.606184 
L 154.921644 221.403347 
L 154.924775 221.403347 
L 154.968006 221.292615 
L 155.083209 221.088744 
L 155.140872 220.979047 
L 155.256281 220.763792 
L 155.327692 220.65306 
L 155.442479 220.465746 
L 155.518949 220.356049 
L 155.625837 220.293956 
L 155.630004 220.293956 
L 155.816036 220.183224 
L 155.926034 219.91726 
L 155.927071 219.91726 
L 155.979011 219.806528 
L 156.089942 219.151449 
L 156.090108 219.151449 
L 156.230482 218.422894 
L 156.258495 218.312161 
L 156.389642 217.810245 
L 156.459145 217.700547 
L 156.568044 217.383874 
L 156.5702 217.383874 
L 156.614863 217.273142 
L 156.729256 217.106526 
L 156.788661 216.995794 
L 156.899322 216.709133 
L 156.899737 216.709133 
L 156.953419 216.5984 
L 157.064392 216.464901 
L 157.064495 216.464901 
L 157.128483 216.355204 
L 157.241363 216.177204 
L 157.354263 216.066472 
L 157.463701 215.591462 
L 157.465153 215.591462 
L 157.521676 215.481765 
L 157.631715 215.158883 
L 157.632751 215.158883 
L 157.681292 215.04815 
L 157.805451 214.724233 
L 157.866971 214.613501 
L 157.976575 214.424118 
L 157.978068 214.424118 
L 158.068658 214.314421 
L 158.178635 214.088817 
L 158.179755 214.088817 
L 158.242871 213.978085 
L 158.36166 213.852864 
L 158.423678 213.743167 
L 158.518145 213.606563 
L 158.534733 213.606563 
L 158.663454 213.495831 
L 158.774136 213.354052 
L 158.774551 213.354052 
L 158.823692 213.244355 
L 158.823692 213.24332 
L 158.969043 212.675171 
L 159.016152 212.565474 
L 159.126005 212.236382 
L 159.127249 212.236382 
L 159.174939 212.126685 
L 159.285517 211.867965 
L 159.286035 211.867965 
L 159.325867 211.758267 
L 159.444656 211.374327 
L 159.464893 211.263595 
L 159.575741 210.880689 
L 159.57599 210.880689 
L 159.601245 210.770992 
L 159.601245 210.769957 
L 159.728929 210.35704 
L 159.754951 210.246308 
L 159.865779 209.93067 
L 159.866027 209.93067 
L 159.937106 209.820972 
L 160.046876 209.632624 
L 160.048161 209.632624 
L 160.111278 209.521892 
L 160.21999 209.344928 
L 160.222354 209.344928 
L 160.303696 209.23523 
L 160.419645 208.993069 
L 160.4641 208.882336 
L 160.572875 208.684674 
L 160.575114 208.684674 
L 160.63512 208.573942 
L 160.745367 208.328676 
L 160.746217 208.328676 
L 160.807799 208.218978 
L 160.917486 208.053398 
L 160.918834 208.053398 
L 161.237817 207.9437 
L 161.352024 207.633236 
L 161.395836 207.522504 
L 161.504984 207.252401 
L 161.506788 207.252401 
L 161.563725 207.141669 
L 161.678637 206.952286 
L 161.744739 206.842588 
L 161.85764 206.662519 
L 161.936702 206.551787 
L 162.051966 206.343776 
L 162.114668 206.234079 
L 162.235033 206.004336 
L 162.29535 205.894638 
L 162.406447 205.718709 
L 162.453515 205.609012 
L 162.573113 205.397896 
L 162.628993 205.288199 
L 162.755413 204.984979 
L 162.798334 204.874247 
L 162.914738 204.605178 
L 162.940906 204.494446 
L 163.068238 203.6831 
L 163.093016 203.572368 
L 163.202536 203.332276 
L 163.204092 203.332276 
L 163.288544 203.222579 
L 163.398335 203.156346 
L 163.399599 203.156346 
L 163.469621 203.046649 
L 163.576715 202.858301 
L 163.580717 202.858301 
L 163.650054 202.748604 
L 163.762996 202.562325 
L 164.044014 202.452628 
L 164.044014 202.451593 
L 164.159527 202.231164 
L 164.208544 202.121467 
L 164.318812 201.982793 
L 164.319579 201.982793 
L 164.36476 201.873095 
L 164.477432 201.711654 
L 164.508203 201.605062 
L 164.676154 201.043122 
L 164.726249 200.93239 
L 164.836019 200.80303 
L 164.837284 200.80303 
L 164.88939 200.693332 
L 165.002228 200.519473 
L 165.086287 200.409775 
L 165.196928 200.192451 
L 165.197384 200.192451 
L 165.264315 200.081718 
L 165.370622 199.929591 
L 165.375391 199.929591 
L 165.486841 199.819894 
L 165.597108 199.602569 
L 165.597937 199.602569 
L 165.637167 199.492872 
L 165.637167 199.491837 
L 165.753634 199.223803 
L 165.803501 199.113071 
L 165.914432 198.772595 
L 165.914598 198.772595 
L 165.947774 198.661863 
L 166.058642 198.135109 
L 166.058767 198.135109 
L 166.082985 198.024377 
L 166.280711 195.864583 
L 166.289461 195.753851 
L 166.331408 191.971365 
L 166.460233 186.883896 
L 166.494321 186.773164 
L 166.605314 186.618967 
L 166.605397 186.618967 
L 166.692275 186.509269 
L 166.802294 186.258829 
L 166.803372 186.258829 
L 166.863544 186.149131 
L 166.974102 185.98769 
L 166.974516 185.98769 
L 167.080346 185.877993 
L 167.080346 185.876958 
L 167.198617 185.699993 
L 167.29012 185.590296 
L 167.399122 185.401948 
L 167.401196 185.401948 
L 167.476649 185.292251 
L 167.589343 185.132879 
L 167.639521 185.023182 
L 167.752691 184.816206 
L 167.801998 184.706509 
L 167.912701 184.553347 
L 167.91297 184.553347 
L 167.964724 184.446754 
L 168.09469 184.189069 
L 168.169127 184.079372 
L 168.27983 183.891023 
L 168.280079 183.891023 
L 168.868406 183.069329 
L 168.956218 182.959632 
L 168.956218 182.958597 
L 169.07424 182.787842 
L 169.154442 182.677109 
L 169.265041 182.524982 
L 169.265538 182.524982 
L 169.352334 182.415285 
L 169.463058 182.266262 
L 169.463389 182.266262 
L 169.718986 182.15553 
L 169.833732 181.974426 
L 169.893096 181.864729 
L 170.002534 181.668102 
L 170.00411 181.668102 
L 170.061669 181.558404 
L 170.175171 181.316242 
L 170.216558 181.206545 
L 170.334704 180.854686 
L 170.379242 180.743954 
L 170.505061 180.377606 
L 170.692461 179.737016 
L 170.910881 179.626284 
L 171.01978 179.339622 
L 171.021895 179.339622 
L 171.055153 179.229925 
L 171.175767 178.991902 
L 171.302809 178.88117 
L 171.432899 178.648322 
L 171.509203 178.53759 
L 171.619594 178.393742 
L 171.620299 178.393742 
L 171.706639 178.284045 
L 171.816512 178.101906 
L 171.817735 178.101906 
L 171.909798 177.991174 
L 172.020065 177.808 
L 172.020894 177.808 
L 172.10657 177.697268 
L 172.21605 177.509954 
L 172.217667 177.509954 
L 172.331667 177.400257 
L 172.43223 177.274002 
L 172.442763 177.274002 
L 172.706281 177.164305 
L 172.818788 177.021491 
L 172.894034 176.910759 
L 173.002352 176.795887 
L 173.005131 176.795887 
L 173.143991 176.68619 
L 173.260002 176.562005 
L 173.414185 176.452307 
L 173.521052 176.348819 
L 173.525241 176.348819 
L 173.633352 176.239122 
L 173.74957 176.139774 
L 173.825314 176.030076 
L 173.935187 175.91624 
L 173.93641 175.91624 
L 174.136832 175.805507 
L 174.25643 175.703054 
L 174.324109 175.594392 
L 174.324109 175.593357 
L 174.432759 175.460892 
L 174.435185 175.460892 
L 174.51632 175.351195 
L 174.628743 175.284963 
L 174.743489 175.174231 
L 174.855291 175.14008 
L 174.96166 175.029348 
L 175.067594 175.007615 
L 175.072715 175.007615 
L 175.248795 174.896883 
L 175.362919 174.740616 
L 175.436672 174.629884 
L 175.55683 174.481896 
L 175.651443 174.371164 
L 175.766126 174.19006 
L 176.006566 174.079328 
L 176.125936 173.858898 
L 176.1887 173.749201 
L 176.303902 173.339389 
L 176.338281 173.229692 
L 176.338281 173.228657 
L 176.461217 172.933716 
L 176.523898 172.822984 
L 176.639618 172.592206 
L 176.697427 172.482508 
L 176.809166 172.345904 
L 176.964324 172.236207 
L 177.079941 172.010603 
L 177.163979 171.900906 
L 177.273915 171.739465 
L 177.275055 171.739465 
L 177.334896 171.629767 
L 177.458039 171.226164 
L 177.535711 171.115432 
L 177.645191 170.946747 
L 177.646808 170.946747 
L 177.801904 170.836014 
L 177.920921 170.640422 
L 177.948955 170.530725 
L 178.075685 170.011215 
L 178.175523 169.901518 
L 178.2855 169.696612 
L 178.286578 169.696612 
L 178.384426 169.58588 
L 178.495004 169.36959 
L 178.495522 169.36959 
L 178.540765 169.259892 
L 178.651448 169.123288 
L 178.651841 169.123288 
L 178.709754 169.013591 
L 178.819274 168.698988 
L 178.82083 168.698988 
L 178.966056 168.588255 
L 179.08387 168.42164 
L 179.116611 168.310908 
L 179.317178 167.680666 
L 179.364867 167.576143 
L 179.566409 166.678902 
L 179.652189 166.56817 
L 179.757148 166.471926 
L 179.763223 166.471926 
L 179.980274 166.361194 
L 180.093051 166.273229 
L 180.215261 166.162497 
L 180.323621 166.09523 
L 180.326192 166.09523 
L 180.485207 165.984498 
L 180.59848 165.875835 
L 180.707711 165.765103 
L 180.818186 165.648162 
L 180.818787 165.648162 
L 180.933886 165.548813 
L 181.047139 165.438081 
L 181.15724 165.362535 
L 181.158235 165.362535 
L 181.264708 165.252838 
L 181.374623 165.141071 
L 181.375763 165.141071 
L 181.473279 165.030339 
L 181.580768 164.915467 
L 181.584334 164.915467 
L 181.680004 164.804735 
L 181.791101 164.588445 
L 181.810094 164.478748 
L 181.931268 163.975796 
L 182.017711 163.866099 
L 182.128662 163.741913 
L 182.128683 163.741913 
L 182.410074 163.632216 
L 182.520694 163.42524 
L 182.521129 163.42524 
L 182.606743 163.315543 
L 182.721634 163.125125 
L 182.865575 163.014393 
L 182.97352 162.918149 
L 182.976506 162.918149 
L 183.068672 162.807417 
L 183.171433 162.704964 
L 183.179768 162.704964 
L 183.332106 162.595266 
L 183.442249 162.506267 
L 183.443037 162.506267 
L 183.551977 162.396569 
L 183.664256 162.330337 
L 183.767577 162.22271 
L 183.877824 162.125431 
L 183.878653 162.125431 
L 183.998604 162.015734 
L 184.109617 161.899827 
L 184.10968 161.899827 
L 184.202343 161.79013 
L 184.313108 161.70113 
L 184.313398 161.70113 
L 184.42294 161.590398 
L 184.537479 161.417573 
L 184.620646 161.307876 
L 184.727222 161.158853 
L 184.731742 161.158853 
L 184.856482 161.049156 
L 184.962976 160.898063 
L 184.967517 160.898063 
L 185.07907 160.787331 
L 185.191307 160.728343 
L 185.353618 160.618646 
L 185.465316 160.556553 
L 185.600362 160.445821 
L 185.709675 160.351647 
L 185.711417 160.351647 
L 185.905536 160.24195 
L 186.012796 160.094997 
L 186.016591 160.094997 
L 186.299122 159.984265 
L 186.410219 159.859044 
L 186.501949 159.748312 
L 186.623372 159.492697 
L 186.688604 159.381965 
L 186.798456 159.252605 
L 186.7997 159.252605 
L 186.986852 159.141872 
L 187.100893 158.995954 
L 187.219309 158.886257 
L 187.349088 158.722746 
L 187.522886 158.615119 
L 187.635538 158.534398 
L 187.948363 158.423666 
L 188.057884 158.294306 
L 188.05946 158.294306 
L 188.123696 158.183574 
L 188.233445 157.973493 
L 188.234793 157.973493 
L 188.316902 157.863796 
L 188.427833 157.65268 
L 188.427999 157.65268 
L 188.507828 157.542983 
L 188.615379 157.437425 
L 188.618924 157.437425 
L 189.01558 157.326693 
L 189.12367 157.22838 
L 189.126677 157.22838 
L 189.272608 157.118682 
L 189.380801 157.05659 
L 189.383684 157.05659 
L 189.51595 156.946892 
L 189.62686 156.874451 
L 189.626923 156.874451 
L 189.779986 156.763719 
L 189.892991 156.669545 
L 190.074254 156.559847 
L 190.187051 156.470848 
L 190.307395 156.360115 
L 190.422328 156.265941 
L 190.505101 156.156244 
L 190.616882 156.081733 
L 190.684145 155.971001 
L 190.793189 155.787827 
L 190.79518 155.787827 
L 190.882203 155.67813 
L 190.993176 155.498061 
L 190.993259 155.498061 
L 191.043437 155.388363 
L 191.153642 155.197945 
L 191.154492 155.197945 
L 191.23204 155.088248 
L 191.34662 154.827458 
L 191.408969 154.716726 
L 191.548556 154.245856 
L 191.60286 154.136159 
L 191.720861 153.792579 
L 191.762434 153.682881 
L 191.883069 153.204767 
L 191.943138 153.09507 
L 192.050647 152.896373 
L 192.054193 152.896373 
L 192.182168 152.732862 
L 192.247461 152.62213 
L 192.366893 152.521746 
L 192.442762 152.412049 
L 192.442762 152.411014 
L 192.559374 152.134701 
L 192.62332 152.025004 
L 192.735951 151.871842 
L 192.778747 151.761109 
L 193.024972 151.097752 
L 193.073326 150.988054 
L 193.181209 150.85145 
L 193.18436 150.85145 
L 193.282477 150.741753 
L 193.392495 150.603079 
L 193.393574 150.603079 
L 193.51989 150.493382 
L 193.634532 150.317452 
L 193.696736 150.207755 
L 193.806796 150.091848 
L 193.807791 150.091848 
L 193.915612 149.982151 
L 194.03098 149.770001 
L 194.090986 149.659269 
L 194.200611 149.396409 
L 194.202083 149.396409 
L 194.326263 149.286712 
L 194.441528 149.150108 
L 194.503774 149.04041 
L 194.61487 148.845853 
L 194.677655 148.736156 
L 194.787964 148.603691 
L 194.788627 148.603691 
L 194.870011 148.492959 
L 195.017684 148.239413 
L 195.486144 148.129716 
L 195.6023 148.005531 
L 195.714309 147.895833 
L 195.800856 147.794415 
L 195.825343 147.794415 
L 195.99091 147.683683 
L 196.101965 147.561567 
L 196.102007 147.561567 
L 196.229028 147.450835 
L 196.339648 147.355626 
L 196.340125 147.355626 
L 196.448277 147.245929 
L 196.560763 147.177627 
L 196.81553 147.067929 
L 196.927332 146.97893 
L 197.035194 146.868198 
L 197.156347 146.747117 
L 197.273374 146.637419 
L 197.382335 146.523583 
L 197.384326 146.523583 
L 197.603658 146.413885 
L 197.714464 146.271072 
L 197.714754 146.271072 
L 197.814675 146.16034 
L 197.924984 146.02891 
L 197.925772 146.02891 
L 197.980636 145.918178 
L 198.086383 145.824004 
L 198.091712 145.824004 
L 198.203762 145.714307 
L 198.314113 145.581842 
L 198.314859 145.581842 
L 198.416314 145.472145 
L 198.530334 145.327262 
L 198.643442 145.216529 
L 198.761133 145.054053 
L 198.956889 144.944356 
L 199.071967 144.840868 
L 199.192892 144.731171 
L 199.302973 144.621474 
L 199.303989 144.621474 
L 199.406418 144.511776 
L 199.517266 144.424846 
L 199.517432 144.424846 
L 199.652374 144.315149 
L 199.763408 144.21787 
L 199.76345 144.21787 
L 199.977826 144.107138 
L 200.088094 144.05022 
L 200.08884 144.05022 
L 200.242318 143.940523 
L 200.242318 143.939488 
L 200.354929 143.863942 
L 200.467021 143.753209 
L 200.579693 143.673524 
L 200.745053 143.563826 
L 200.856772 143.493455 
L 201.120974 143.383757 
L 201.230785 143.315455 
L 201.23207 143.315455 
L 201.386627 143.205758 
L 201.496438 143.112619 
L 201.497724 143.112619 
L 201.677701 143.001887 
L 201.792406 142.905643 
L 201.991625 142.794911 
L 202.110228 142.704876 
L 202.260015 142.595179 
L 202.370697 142.456505 
L 202.371091 142.456505 
L 202.460935 142.345773 
L 202.571679 142.125343 
L 202.572032 142.125343 
L 202.623164 142.014611 
L 202.749086 141.771415 
L 202.791094 141.660682 
L 202.944075 141.247765 
L 202.983471 141.137033 
L 203.104479 140.891767 
L 203.198946 140.781035 
L 203.309919 140.651675 
L 203.310043 140.651675 
L 203.492529 140.541977 
L 203.601387 140.43021 
L 203.603605 140.43021 
L 203.726293 140.320513 
L 203.83656 140.243932 
L 203.837369 140.243932 
L 203.983487 140.134235 
L 203.983487 140.1332 
L 204.101529 140.020398 
L 204.179077 139.909666 
L 204.303258 139.807213 
L 204.420533 139.697515 
L 204.528727 139.596097 
L 204.53163 139.596097 
L 204.65384 139.4864 
L 204.763341 139.372563 
L 204.764813 139.372563 
L 204.837965 139.261831 
L 204.948854 139.05589 
L 204.949062 139.05589 
L 204.999986 138.946193 
L 205.11017 138.770263 
L 205.111041 138.770263 
L 205.184401 138.660566 
L 205.294502 138.507404 
L 205.295477 138.507404 
L 205.367571 138.396671 
L 205.477258 138.290079 
L 205.478668 138.290079 
L 205.592419 138.182451 
L 205.592419 138.180382 
L 205.707538 138.081033 
L 205.802192 137.970301 
L 205.910054 137.836801 
L 205.913144 137.836801 
L 206.022374 137.726069 
L 206.135731 137.671221 
L 206.277453 137.560488 
L 206.387741 137.497361 
L 206.388488 137.497361 
L 206.656069 137.387664 
L 206.759142 137.263478 
L 206.767145 137.263478 
L 206.899868 137.152746 
L 207.00659 137.050293 
L 207.010924 137.050293 
L 207.097595 136.939561 
L 207.204876 136.855735 
L 207.208671 136.855735 
L 207.512331 136.746038 
L 207.616481 136.677736 
L 207.623428 136.677736 
L 207.788082 136.567004 
L 207.90148 136.452132 
L 208.057219 136.3414 
L 208.160188 136.222389 
L 208.168253 136.222389 
L 208.325568 136.112692 
L 208.436291 135.986436 
L 208.436644 135.986436 
L 208.522444 135.876739 
L 208.632504 135.760832 
L 208.633437 135.760832 
L 208.75683 135.651135 
L 208.75683 135.6501 
L 208.869792 135.555926 
L 209.077472 135.445194 
L 209.190683 135.340671 
L 209.293921 135.229939 
L 209.409746 135.110928 
L 209.517048 135.001231 
L 209.630529 134.879115 
L 209.712846 134.769418 
L 209.824979 134.66593 
L 209.891206 134.556232 
L 210.008109 134.413419 
L 210.091234 134.303722 
L 210.202061 134.047071 
L 210.202269 134.047071 
L 210.275794 133.937374 
L 210.385564 133.848375 
L 210.38687 133.848375 
L 210.523616 133.738677 
L 210.643939 133.493411 
L 210.728267 133.330935 
L 210.842433 133.217098 
L 211.014635 133.106366 
L 211.127929 132.997703 
L 211.351491 132.886971 
L 211.463293 132.85075 
L 211.630664 132.741053 
L 211.739583 132.623077 
L 211.74176 132.623077 
L 211.846015 132.51338 
L 211.846015 132.512345 
L 211.958895 132.42438 
L 212.184488 132.313648 
L 212.297596 132.265008 
L 212.500486 132.155311 
L 212.610048 132.051823 
L 212.611562 132.051823 
L 212.71001 131.942126 
L 212.71001 131.941091 
L 212.829712 131.801382 
L 212.957438 131.691685 
L 213.073469 131.526104 
L 213.180709 131.416407 
L 213.282102 131.337756 
L 213.291806 131.337756 
L 213.540851 131.227024 
L 213.651243 131.139059 
L 213.651927 131.139059 
L 213.785625 131.029362 
L 213.895063 130.934153 
L 213.896721 130.934153 
L 214.120325 130.823421 
L 214.235174 130.731317 
L 214.366819 130.621619 
L 214.478911 130.520201 
L 214.579516 130.410504 
L 214.691629 130.307016 
L 214.797003 130.197319 
L 214.797003 130.196284 
L 214.910567 130.071063 
L 215.020855 129.961366 
L 215.128883 129.866157 
L 215.131786 129.866157 
L 218.227627 127.392794 
L 218.440303 127.282062 
L 218.560502 127.196167 
L 218.778009 127.08647 
L 218.890122 126.985052 
L 219.077751 126.875354 
L 219.148684 126.82775 
L 219.188806 126.82775 
L 219.362418 126.718053 
L 219.474157 126.647681 
L 219.595456 126.536949 
L 219.706428 126.442775 
L 219.706552 126.442775 
L 219.910789 126.333077 
L 220.023628 126.246147 
L 220.187121 126.13645 
L 220.298985 126.045381 
L 220.407241 125.935683 
L 220.519126 125.854963 
L 220.633706 125.744231 
L 220.748307 125.658336 
L 220.921815 125.548638 
L 221.033368 125.496894 
L 221.169865 125.387197 
L 221.281521 125.331314 
L 221.519349 125.221616 
L 221.628372 125.134686 
L 221.630404 125.134686 
L 221.793773 125.023954 
L 221.901739 124.92978 
L 221.904869 124.92978 
L 222.082877 124.820083 
L 222.195612 124.737293 
L 222.503792 124.627595 
L 222.503792 124.62656 
L 222.622602 124.555154 
L 222.799781 124.445456 
L 222.914755 124.383364 
L 223.204315 124.275736 
L 223.317009 124.197085 
L 223.44855 124.087388 
L 223.556287 123.975621 
L 223.559605 123.975621 
L 223.687538 123.864889 
L 223.802927 123.758296 
L 223.94044 123.648599 
L 223.94044 123.647564 
L 224.057757 123.547181 
L 224.163836 123.436449 
L 224.282024 123.321577 
L 224.401062 123.210845 
L 224.513092 123.16324 
L 224.634307 123.085624 
L 224.76054 122.974892 
L 224.882232 122.874509 
L 225.101357 122.764812 
L 225.213179 122.684091 
L 225.457849 122.575429 
L 225.578359 122.508161 
L 225.752262 122.398464 
L 225.862612 122.317744 
L 225.863358 122.317744 
L 226.040765 122.208046 
L 226.143982 122.181139 
L 226.151716 122.181139 
L 226.435989 122.070407 
L 226.550694 121.982442 
L 226.708423 121.87378 
L 226.708423 121.87171 
L 226.822236 121.804443 
L 226.986725 121.693711 
L 227.091953 121.626444 
L 227.09778 121.626444 
L 227.272905 121.516747 
L 227.384686 121.448444 
L 227.502335 121.338747 
L 227.612292 121.266306 
L 227.61339 121.266306 
L 228.036752 121.156608 
L 228.147123 121.121422 
L 228.147745 121.121422 
L 228.465339 121.011725 
L 228.577162 120.933074 
L 228.756372 120.822342 
L 228.873917 120.717819 
L 229.115332 120.608122 
L 229.227942 120.533611 
L 229.506161 120.423913 
L 229.608072 120.372169 
L 229.617257 120.372169 
L 229.882869 120.261437 
L 229.996973 120.214868 
L 230.162913 120.10517 
L 230.274466 120.057566 
L 230.483658 119.946834 
L 230.597056 119.889915 
L 231.112771 119.780218 
L 231.209291 119.734683 
L 231.223826 119.734683 
L 231.525496 119.623951 
L 231.634125 119.573242 
L 231.636551 119.573242 
L 231.980354 119.463545 
L 232.093275 119.41801 
L 232.54073 119.308313 
L 232.54073 119.307278 
L 232.653444 119.266918 
L 232.898923 119.156186 
L 233.01116 119.099267 
L 233.193792 118.98957 
L 233.305469 118.929547 
L 233.583252 118.818815 
L 233.697397 118.743269 
L 233.88486 118.633571 
L 233.997511 118.55699 
L 234.238698 118.447293 
L 234.353154 118.364503 
L 234.667264 118.25377 
L 234.781803 118.198922 
L 235.2344 118.089225 
L 235.34614 118.018853 
L 235.575321 117.908121 
L 235.687268 117.861551 
L 235.952424 117.750819 
L 236.061488 117.6939 
L 236.0635 117.6939 
L 236.247002 117.583168 
L 236.356108 117.488994 
L 236.358016 117.488994 
L 236.461171 117.379297 
L 236.575751 117.205437 
L 236.808436 117.094705 
L 236.921938 117.035717 
L 237.150933 116.92602 
L 237.263419 116.857718 
L 237.475307 116.74802 
L 237.57587 116.698346 
L 237.586321 116.698346 
L 237.801423 116.588649 
L 237.912043 116.536905 
L 237.912478 116.536905 
L 238.08524 116.427208 
L 238.19756 116.360975 
L 238.597554 116.251278 
L 238.710268 116.197464 
L 238.900882 116.087767 
L 239.006028 116.040162 
L 239.011875 116.040162 
L 239.322523 115.930465 
L 239.433578 115.862163 
L 239.433599 115.862163 
L 239.951138 115.751431 
L 240.063333 115.694513 
L 240.288119 115.58378 
L 240.39849 115.512374 
L 240.399195 115.512374 
L 240.536085 115.402677 
L 240.645606 115.324026 
L 240.647058 115.324026 
L 240.814843 115.214328 
L 240.925857 115.168794 
L 240.925898 115.168794 
L 241.074981 115.058062 
L 241.187529 114.984585 
L 241.362427 114.874888 
L 241.47568 114.804516 
L 241.751224 114.694819 
L 241.862237 114.620307 
L 241.8623 114.620307 
L 242.090485 114.509575 
L 242.193537 114.450587 
L 242.201561 114.450587 
L 242.400926 114.339855 
L 242.51478 114.272588 
L 242.642651 114.16289 
L 242.75238 114.107007 
L 242.753686 114.107007 
L 242.919149 113.99731 
L 242.919149 113.996275 
L 243.037503 113.951775 
L 243.283272 113.842078 
L 243.283272 113.841043 
L 243.395467 113.786194 
L 243.67634 113.675462 
L 243.784264 113.624753 
L 243.787416 113.624753 
L 243.974568 113.515056 
L 244.082761 113.469521 
L 244.085644 113.469521 
L 244.795746 113.358789 
L 244.908667 113.339126 
L 245.141643 113.228394 
L 245.252076 113.179755 
L 245.252719 113.179755 
L 245.552688 113.069022 
L 245.66449 113.024523 
L 246.065541 112.913791 
L 246.178504 112.867221 
L 246.40078 112.757524 
L 246.493299 112.716128 
L 246.511836 112.716128 
L 246.720531 112.605396 
L 246.831068 112.562966 
L 246.831607 112.562966 
L 247.040841 112.453269 
L 247.154509 112.391176 
L 247.406705 112.280444 
L 247.520041 112.246293 
L 247.699521 112.135561 
L 247.808461 112.031038 
L 247.810535 112.031038 
L 247.910435 111.921341 
L 248.024289 111.853039 
L 248.173973 111.742307 
L 248.274661 111.687458 
L 248.283432 111.687458 
L 248.656014 111.576726 
L 248.766385 111.49497 
L 248.767049 111.49497 
L 248.928033 111.385273 
L 249.039462 111.337669 
L 249.156841 111.227971 
L 249.265844 111.203134 
L 249.557001 111.093437 
L 249.668989 111.047902 
L 249.873786 110.938205 
L 249.986542 110.884391 
L 250.212073 110.774694 
L 250.318442 110.733299 
L 250.323128 110.733299 
L 250.617893 110.623601 
L 250.731105 110.584276 
L 251.082932 110.476649 
L 251.082932 110.474579 
L 251.196683 110.410416 
L 251.539697 110.300719 
L 251.652681 110.255184 
L 251.846178 110.145487 
L 251.846178 110.144452 
L 251.95914 110.099952 
L 252.358201 109.990255 
L 252.471164 109.94472 
L 252.71714 109.835023 
L 252.822908 109.801907 
L 252.827967 109.801907 
L 253.080475 109.691175 
L 253.195801 109.642535 
L 253.461766 109.532838 
L 253.567078 109.483164 
L 253.572863 109.483164 
L 253.885439 109.373467 
L 253.996763 109.34656 
L 254.293498 109.236862 
L 254.404471 109.189258 
L 254.404595 109.189258 
L 254.636181 109.079561 
L 254.741576 109.029887 
L 254.747278 109.029887 
L 255.202592 108.919154 
L 255.315513 108.874655 
L 255.594769 108.764957 
L 255.703709 108.702865 
L 255.705824 108.702865 
L 255.927478 108.592132 
L 256.034594 108.535214 
L 256.038575 108.535214 
L 256.299128 108.425517 
L 256.394341 108.371703 
L 256.410204 108.371703 
L 256.60878 108.262006 
L 256.71714 108.175076 
L 256.719835 108.175076 
L 256.920506 108.064344 
L 257.030421 108.001216 
L 257.031603 108.001216 
L 257.18137 107.891519 
L 257.294022 107.814938 
L 257.526727 107.70524 
L 257.837935 107.558287 
L 258.073979 107.44859 
L 258.185843 107.409265 
L 258.507252 107.298533 
L 258.615363 107.268521 
L 258.618308 107.268521 
L 258.936295 107.158824 
L 259.047164 107.10915 
L 259.047351 107.10915 
L 259.322127 106.999452 
L 259.427667 106.953918 
L 259.433203 106.953918 
L 259.663317 106.843185 
L 259.779556 106.75729 
L 260.190021 106.648628 
L 260.300848 106.616547 
L 260.301097 106.616547 
L 260.610729 106.50685 
L 260.72224 106.461315 
L 261.029135 106.350583 
L 261.14102 106.312292 
L 261.494713 106.20156 
L 261.607572 106.15913 
L 261.910154 106.048398 
L 262.009059 106.010107 
L 262.02123 106.010107 
L 262.476461 105.899375 
L 262.581337 105.867294 
L 262.587495 105.867294 
L 262.776202 105.757597 
L 262.873407 105.703783 
L 262.887278 105.703783 
L 263.152206 105.594086 
L 263.246943 105.546481 
L 263.263303 105.546481 
L 263.5652 105.435749 
L 263.664478 105.38711 
L 263.676256 105.38711 
L 263.941328 105.276377 
L 264.048092 105.221529 
L 264.052342 105.221529 
L 264.307504 105.111832 
L 264.416154 105.060088 
L 264.418559 105.060088 
L 264.614088 104.95039 
L 264.726283 104.896577 
L 264.961622 104.785844 
L 265.073714 104.735135 
L 265.519262 104.624403 
L 265.630836 104.600601 
L 266.136515 104.490904 
L 266.24334 104.451578 
L 266.247611 104.451578 
L 266.523922 104.341881 
L 266.633153 104.290137 
L 266.634998 104.290137 
L 266.904363 104.18044 
L 266.904363 104.179405 
L 267.017243 104.136975 
L 267.386073 104.026243 
L 267.498331 103.969324 
L 267.855839 103.859627 
L 267.93432 103.826511 
L 267.966936 103.826511 
L 268.271487 103.716813 
L 268.37852 103.673349 
L 268.382522 103.673349 
L 268.623314 103.563651 
L 268.623314 103.562616 
L 268.737397 103.516047 
L 269.000334 103.405315 
L 269.105003 103.367024 
L 269.111368 103.367024 
L 269.319587 103.256292 
L 269.425313 103.195234 
L 269.430642 103.195234 
L 269.797688 103.085537 
L 269.907624 103.040002 
L 269.908785 103.040002 
L 270.202472 102.93134 
L 270.202472 102.930305 
L 270.310251 102.872352 
L 270.313568 102.872352 
L 270.551271 102.761619 
L 270.661767 102.721259 
L 270.662347 102.721259 
L 270.949254 102.611562 
L 271.047682 102.563957 
L 271.06033 102.563957 
L 271.477367 102.45426 
L 271.477367 102.453225 
L 271.589314 102.408725 
L 271.971787 102.297993 
L 272.073159 102.270051 
L 272.082739 102.270051 
L 272.329316 102.160354 
L 272.441864 102.11275 
L 272.708679 102.002018 
L 272.787678 101.976146 
L 272.818718 101.976146 
L 273.217696 101.865413 
L 273.326097 101.816774 
L 273.328689 101.816774 
L 273.600314 101.707077 
L 273.707118 101.661542 
L 273.711369 101.661542 
L 273.965411 101.551845 
L 274.076964 101.500101 
L 274.365861 101.389369 
L 274.478824 101.344869 
L 274.736888 101.235172 
L 274.844605 101.181358 
L 274.847985 101.181358 
L 275.158716 101.071661 
L 275.270289 101.048893 
L 275.599433 100.939196 
L 275.703231 100.864685 
L 275.710508 100.864685 
L 275.980309 100.753953 
L 276.094723 100.701174 
L 276.377607 100.591476 
L 276.487501 100.525244 
L 276.488704 100.525244 
L 276.761179 100.414512 
L 276.873333 100.361733 
L 277.156404 100.252036 
L 277.268579 100.196152 
L 277.508604 100.086455 
L 277.617337 100.049199 
L 277.619701 100.049199 
L 277.901403 99.939502 
L 278.013184 99.904316 
L 278.330218 99.794619 
L 278.441667 99.759433 
L 278.720342 99.649736 
L 278.822377 99.606271 
L 278.831397 99.606271 
L 279.115753 99.495539 
L 279.225232 99.434481 
L 279.22685 99.434481 
L 279.578055 99.323749 
L 279.687244 99.277179 
L 279.68911 99.277179 
L 279.951073 99.166447 
L 280.062708 99.136435 
L 280.399378 99.026738 
L 280.510993 98.974994 
L 280.753673 98.865297 
L 280.856849 98.83425 
L 280.864728 98.83425 
L 281.125384 98.723518 
L 281.237373 98.679018 
L 281.439661 98.569321 
L 281.54321 98.515507 
L 281.550757 98.515507 
L 281.71987 98.40581 
L 281.71987 98.404775 
L 281.835549 98.351996 
L 282.043912 98.242299 
L 282.15335 98.190555 
L 282.154967 98.190555 
L 282.442766 98.080858 
L 282.552639 98.029114 
L 282.553862 98.029114 
L 282.734794 97.919417 
L 282.842967 97.871812 
L 282.845849 97.871812 
L 283.085314 97.76108 
L 283.190605 97.710371 
L 283.196411 97.710371 
L 283.32959 97.599639 
L 283.444025 97.517883 
L 283.738147 97.408186 
L 283.845097 97.362651 
L 283.849244 97.362651 
L 284.135736 97.251919 
L 284.245858 97.209489 
L 284.246729 97.209489 
L 284.497121 97.099792 
L 284.60544 97.03356 
L 284.608197 97.03356 
L 284.851354 96.923862 
L 284.851354 96.922827 
L 284.964213 96.880397 
L 285.189641 96.769665 
L 285.301712 96.721026 
L 285.694034 96.610294 
L 285.805939 96.569933 
L 286.13529 96.460236 
L 286.245142 96.420911 
L 286.246387 96.420911 
L 286.381453 96.311213 
L 286.491554 96.259469 
L 286.492508 96.259469 
L 286.729008 96.149772 
L 286.839815 96.08354 
L 286.840105 96.08354 
L 286.953586 95.972808 
L 287.050977 95.886913 
L 287.064683 95.886913 
L 287.305392 95.777215 
L 287.416033 95.723402 
L 287.416468 95.723402 
L 287.634867 95.61267 
L 287.747001 95.56196 
L 288.014417 95.452263 
L 288.117717 95.39638 
L 288.12543 95.39638 
L 288.44431 95.286682 
L 288.547901 95.228729 
L 288.555365 95.228729 
L 288.875758 95.117997 
L 288.982687 95.077637 
L 288.986813 95.077637 
L 289.195902 94.967939 
L 289.195902 94.966905 
L 289.310939 94.932754 
L 289.587478 94.822021 
L 289.671101 94.785801 
L 289.698575 94.785801 
L 290.016397 94.676103 
L 290.128178 94.607801 
L 290.432149 94.497069 
L 290.541006 94.456709 
L 290.543245 94.456709 
L 290.813046 94.345977 
L 290.925096 94.297337 
L 291.181709 94.18764 
L 291.291002 94.140036 
L 291.292765 94.140036 
L 291.554831 94.029303 
L 291.667027 93.972385 
L 291.888515 93.862688 
L 291.999093 93.808874 
L 291.999591 93.808874 
L 292.250004 93.699177 
L 292.357949 93.655712 
L 292.36108 93.655712 
L 292.60152 93.546015 
L 292.712783 93.523247 
L 293.102492 93.412515 
L 293.211308 93.368015 
L 293.213589 93.368015 
L 293.457388 93.257283 
L 293.566349 93.196225 
L 293.568443 93.196225 
L 293.899743 93.085493 
L 294.006091 93.012017 
L 294.010819 93.012017 
L 294.23492 92.902319 
L 294.346431 92.860924 
L 294.627387 92.750192 
L 294.740578 92.718111 
L 295.021409 92.608413 
L 295.129188 92.546321 
L 295.132485 92.546321 
L 295.436974 92.436623 
L 295.436974 92.435588 
L 295.549834 92.393158 
L 295.824382 92.283461 
L 295.824382 92.282426 
L 295.937718 92.227578 
L 296.173514 92.11788 
L 296.285025 92.066136 
L 296.552254 91.956439 
L 296.660282 91.902625 
L 296.66333 91.902625 
L 296.911836 91.791893 
L 297.021025 91.739114 
L 297.022933 91.739114 
L 297.261507 91.629417 
L 297.373101 91.579743 
L 297.613334 91.470046 
L 297.726421 91.405883 
L 297.934971 91.295151 
L 298.029894 91.265139 
L 298.046026 91.265139 
L 298.362936 91.155442 
L 298.472125 91.111977 
L 298.474012 91.111977 
L 298.781404 91.001245 
L 298.893496 90.948466 
L 299.231265 90.838769 
L 299.342133 90.784955 
L 299.34232 90.784955 
L 299.579235 90.675258 
L 299.677767 90.625584 
L 299.690311 90.625584 
L 299.998637 90.514852 
L 300.111641 90.468282 
L 300.295662 90.35755 
L 300.39863 90.31512 
L 300.406717 90.31512 
L 300.702519 90.205422 
L 300.806192 90.159888 
L 300.813574 90.159888 
L 301.030501 90.049156 
L 301.130193 90.010865 
L 301.141597 90.010865 
L 301.491164 89.900133 
L 301.599254 89.851494 
L 301.60224 89.851494 
L 301.891407 89.740761 
L 301.907663 89.735587 
L 302.000762 89.735587 
L 302.377512 89.624855 
L 302.489562 89.578285 
L 302.784742 89.467553 
L 302.894346 89.427193 
L 302.895756 89.427193 
L 303.206694 89.316461 
L 303.317521 89.259542 
L 303.317791 89.259542 
L 303.589872 89.149845 
L 303.589872 89.14881 
L 303.705509 89.096031 
L 303.965834 88.986334 
L 303.965834 88.985299 
L 304.078797 88.940799 
L 304.457745 88.831102 
L 304.568136 88.785567 
L 304.5688 88.785567 
L 304.945757 88.67587 
L 305.055817 88.628266 
L 305.056647 88.628266 
L 305.357093 88.518568 
L 305.464541 88.477173 
L 305.468148 88.477173 
L 305.759928 88.367476 
L 305.87007 88.33229 
L 305.871024 88.33229 
L 306.085898 88.222593 
L 306.197368 88.183267 
L 306.498043 88.07357 
L 306.605614 88.007338 
L 306.609139 88.007338 
L 306.890945 87.89764 
L 307.000072 87.852106 
L 307.002021 87.852106 
L 307.242689 87.744478 
L 307.242689 87.741374 
L 307.354615 87.701013 
L 307.663044 87.590281 
L 307.768688 87.535433 
L 307.7741 87.535433 
L 308.061898 87.425735 
L 308.061898 87.4247 
L 308.174529 87.38848 
L 308.438357 87.277747 
L 308.550553 87.222899 
L 308.826014 87.113202 
L 308.937588 87.088364 
L 309.253896 86.977632 
L 309.364765 86.914505 
L 309.364972 86.914505 
L 309.675765 86.804807 
L 309.783088 86.759273 
L 309.786862 86.759273 
L 310.067195 86.648541 
L 310.179121 86.60818 
L 310.400734 86.497448 
L 310.510131 86.457088 
L 310.51181 86.457088 
L 310.786732 86.34739 
L 310.889701 86.303926 
L 310.897829 86.303926 
L 311.176628 86.193193 
L 311.282831 86.142484 
L 311.287683 86.142484 
L 311.527169 86.032787 
L 311.623296 85.981043 
L 311.638204 85.981043 
L 311.91466 85.871346 
L 312.024513 85.83202 
L 312.025736 85.83202 
L 312.252844 85.722323 
L 312.252844 85.721288 
L 312.366055 85.670579 
L 312.671934 85.559847 
L 312.778241 85.527766 
L 312.782989 85.527766 
L 313.07651 85.417034 
L 313.181863 85.374603 
L 313.187565 85.374603 
L 313.46765 85.263871 
L 313.573563 85.22765 
L 313.578747 85.22765 
L 313.88137 85.117953 
L 313.994499 85.068279 
L 314.297081 84.958582 
L 314.409235 84.902698 
L 314.686998 84.793001 
L 314.781216 84.747466 
L 314.798074 84.747466 
L 315.117098 84.636734 
L 315.228796 84.606723 
L 315.504091 84.497025 
L 315.610212 84.451491 
L 315.615147 84.451491 
L 315.850506 84.341793 
L 315.962142 84.28384 
L 316.287242 84.174143 
L 316.39809 84.120329 
L 316.398318 84.120329 
L 316.619185 84.009597 
L 316.734179 83.965097 
L 316.984074 83.854365 
L 317.092123 83.795377 
L 317.09513 83.795377 
L 317.407726 83.68568 
L 317.51901 83.664982 
L 317.847448 83.555285 
L 317.946436 83.524238 
L 317.95842 83.524238 
L 318.316799 83.414541 
L 318.42856 83.373146 
L 318.685048 83.262414 
L 318.797202 83.209635 
L 319.079008 83.098903 
L 319.176067 83.048194 
L 319.190043 83.048194 
L 319.41997 82.938496 
L 319.523789 82.870194 
L 319.531025 82.870194 
L 319.844203 82.759462 
L 319.948188 82.712893 
L 319.9553 82.712893 
L 320.26686 82.603195 
L 320.378537 82.570079 
L 320.714813 82.459347 
L 320.830927 82.414847 
L 321.067117 82.304115 
L 321.175041 82.276173 
L 321.17813 82.276173 
L 321.456805 82.166476 
L 321.567798 82.127151 
L 321.567861 82.127151 
L 321.881764 82.017453 
L 321.988257 81.96157 
L 321.992819 81.96157 
L 322.270374 81.851873 
L 322.371373 81.814617 
L 322.381388 81.814617 
L 322.830979 81.70492 
L 322.942034 81.666629 
L 322.942055 81.666629 
L 323.271032 81.555897 
L 323.383954 81.512432 
L 323.63671 81.402735 
L 323.747143 81.369619 
L 323.747807 81.369619 
L 324.046843 81.258886 
L 324.152383 81.226805 
L 324.157898 81.226805 
L 324.535436 81.117108 
L 324.647466 81.071573 
L 324.977542 80.960841 
L 325.083144 80.920481 
L 325.088639 80.920481 
L 325.437211 80.809749 
L 325.549075 80.765249 
L 325.938141 80.654517 
L 326.048844 80.612086 
L 326.049238 80.612086 
L 326.284536 80.501354 
L 326.378215 80.471343 
L 326.395363 80.471343 
L 326.738004 80.361646 
L 326.849495 80.32025 
L 327.12226 80.209518 
L 327.23514 80.167088 
L 327.642868 80.057391 
L 327.642868 80.056356 
L 327.755437 80.020135 
L 328.073425 79.910438 
L 328.173677 79.873182 
L 328.184501 79.873182 
L 328.546985 79.763485 
L 328.655283 79.72209 
L 328.658082 79.72209 
L 329.04466 79.612393 
L 329.148293 79.573067 
L 329.155757 79.573067 
L 329.529584 79.462335 
L 329.642629 79.415765 
L 329.924 79.305033 
L 330.036009 79.260533 
L 330.374337 79.149801 
L 330.478923 79.11358 
L 330.485413 79.11358 
L 330.702361 79.003883 
L 330.702361 79.002848 
L 330.815469 78.954209 
L 331.178721 78.844512 
L 331.284634 78.813465 
L 331.289693 78.813465 
L 331.64604 78.702733 
L 331.756349 78.672722 
L 331.757137 78.672722 
L 332.136064 78.563024 
L 332.243491 78.51749 
L 332.247161 78.51749 
L 332.570934 78.407792 
L 332.682943 78.360188 
L 333.090816 78.249456 
L 333.206806 78.192537 
L 333.594006 78.081805 
L 333.695731 78.039375 
L 333.705061 78.039375 
L 334.180675 77.928643 
L 334.292497 77.892422 
L 334.595929 77.782725 
L 334.595929 77.78169 
L 334.708208 77.753748 
L 334.986281 77.644051 
L 335.09433 77.606795 
L 335.097378 77.606795 
L 335.437054 77.497098 
L 335.53571 77.432936 
L 335.54813 77.432936 
L 335.835452 77.323238 
L 335.946963 77.279773 
L 336.309323 77.169041 
L 336.42295 77.107983 
L 336.644438 76.997251 
L 336.756198 76.96103 
L 337.041861 76.850298 
L 337.150884 76.805798 
L 337.152937 76.805798 
L 337.452761 76.696101 
L 337.548182 76.662985 
L 337.563858 76.662985 
L 337.967915 76.552253 
L 338.074803 76.507753 
L 338.079012 76.507753 
L 338.338922 76.397021 
L 338.445955 76.350451 
L 338.450019 76.350451 
L 338.752787 76.240754 
L 338.861893 76.199359 
L 338.863884 76.199359 
L 339.18747 76.089662 
L 339.290771 76.068964 
L 339.298567 76.068964 
L 339.648237 75.959267 
L 339.648237 75.958232 
L 339.760018 75.924081 
L 340.059034 75.813349 
L 340.166813 75.783337 
L 340.170131 75.783337 
L 340.50595 75.672605 
L 340.616964 75.636384 
L 340.617006 75.636384 
L 340.953841 75.525652 
L 341.069769 75.468734 
L 341.354623 75.359036 
L 341.354623 75.358002 
L 341.467213 75.321781 
L 341.783749 75.212084 
L 341.895675 75.170688 
L 342.262203 75.060991 
L 342.371517 75.015456 
L 342.373279 75.015456 
L 342.697446 74.905759 
L 342.805889 74.864364 
L 342.808522 74.864364 
L 343.151702 74.753632 
L 343.252639 74.696713 
L 343.262778 74.696713 
L 343.595467 74.587016 
L 343.703495 74.547691 
L 343.706564 74.547691 
L 343.965603 74.437993 
L 344.070915 74.398668 
L 344.076679 74.398668 
L 344.364829 74.287936 
L 344.471323 74.247576 
L 344.475926 74.247576 
L 344.786595 74.136843 
L 344.894996 74.084065 
L 344.897588 74.084065 
L 345.207261 73.973332 
L 345.316492 73.922623 
L 345.318358 73.922623 
L 345.549612 73.812926 
L 345.662285 73.773601 
L 346.048635 73.663903 
L 346.161121 73.595601 
L 346.432 73.485904 
L 346.545087 73.4383 
L 346.894405 73.328602 
L 347.005875 73.289277 
L 347.337755 73.178545 
L 347.447773 73.138184 
L 347.44881 73.138184 
L 347.717366 73.027452 
L 347.821413 72.958115 
L 347.828463 72.958115 
L 348.084952 72.848418 
L 348.196567 72.817372 
L 348.478041 72.707674 
L 348.587873 72.66214 
L 348.589138 72.66214 
L 348.840608 72.552442 
L 348.952141 72.502768 
L 349.326133 72.393071 
L 349.435882 72.341327 
L 349.437188 72.341327 
L 349.820947 72.23163 
L 349.925616 72.190234 
L 349.932043 72.190234 
L 350.20993 72.080537 
L 350.20993 72.079502 
L 350.321981 72.05777 
L 350.643659 71.948073 
L 350.728651 71.923235 
L 350.754756 71.923235 
L 351.019373 71.812503 
L 351.131299 71.772143 
L 351.433798 71.661411 
L 351.54139 71.598283 
L 351.544874 71.598283 
L 351.850836 71.487551 
L 351.960419 71.44926 
L 351.961912 71.44926 
L 352.22292 71.338528 
L 352.334929 71.294029 
L 352.60446 71.184331 
L 352.60446 71.183296 
L 352.716739 71.155355 
L 353.015319 71.045657 
L 353.12681 71.006332 
L 353.391862 70.896635 
L 353.503435 70.84903 
L 353.882052 70.738298 
L 353.978717 70.700007 
L 353.993107 70.700007 
L 354.327724 70.59031 
L 354.327724 70.589275 
L 354.439401 70.561334 
L 354.730932 70.451636 
L 354.827597 70.414381 
L 354.842028 70.414381 
L 355.207395 70.304683 
L 355.313412 70.257079 
L 355.318388 70.257079 
L 355.676684 70.146347 
L 355.783302 70.097707 
L 355.787781 70.097707 
L 356.126794 69.986975 
L 356.216244 69.954894 
L 356.237891 69.954894 
L 356.502756 69.844162 
L 356.600106 69.81622 
L 356.613832 69.81622 
L 357.007066 69.706523 
L 357.116691 69.660988 
L 357.118163 69.660988 
L 357.407744 69.551291 
L 357.521578 69.516105 
L 357.767741 69.406408 
L 357.87919 69.371222 
L 358.225812 69.261525 
L 358.336536 69.21806 
L 358.336888 69.21806 
L 358.693712 69.108362 
L 358.693712 69.107327 
L 358.80597 69.050409 
L 359.238953 68.939677 
L 359.34864 68.913805 
L 359.350008 68.913805 
L 359.962616 68.803073 
L 360.070478 68.779271 
L 360.073671 68.779271 
L 360.483866 68.669573 
L 360.595689 68.630248 
L 360.95722 68.520551 
L 361.063485 68.475016 
L 361.068316 68.475016 
L 361.331544 68.364284 
L 361.441334 68.332202 
L 361.44262 68.332202 
L 361.81852 68.222505 
L 361.930487 68.17904 
L 362.199873 68.069343 
L 362.311882 68.023808 
L 362.63327 67.914111 
L 362.738478 67.868576 
L 362.744367 67.868576 
L 363.030175 67.757844 
L 363.135424 67.731972 
L 363.141188 67.731972 
L 363.437778 67.62124 
L 363.515824 67.591228 
L 363.548854 67.591228 
L 363.815731 67.481531 
L 363.927325 67.429787 
L 364.304656 67.32009 
L 364.413638 67.278695 
L 364.415753 67.278695 
L 364.774816 67.167963 
L 364.868309 67.123463 
L 364.885767 67.123463 
L 365.211987 67.013766 
L 365.322731 66.970301 
L 365.323063 66.970301 
L 365.675388 66.860603 
L 365.781093 66.815069 
L 365.786464 66.815069 
L 366.045814 66.705371 
L 366.139659 66.672255 
L 366.15691 66.672255 
L 366.491673 66.561523 
L 366.602479 66.535651 
L 366.602769 66.535651 
L 366.983169 66.425954 
L 367.094597 66.392838 
L 367.445719 66.282105 
L 367.559283 66.243815 
L 367.846314 66.133083 
L 367.955503 66.092722 
L 367.957411 66.092722 
L 368.210499 65.983025 
L 368.32228 65.949909 
L 368.691234 65.840212 
L 368.802808 65.792607 
L 369.119489 65.68291 
L 369.23127 65.649794 
L 369.527569 65.540097 
L 369.637546 65.504911 
L 369.638666 65.504911 
L 369.964284 65.395213 
L 370.072022 65.33933 
L 370.07534 65.33933 
L 370.450514 65.228598 
L 370.562399 65.190307 
L 371.030796 65.08061 
L 371.138409 65.026796 
L 371.141851 65.026796 
L 371.453018 64.916064 
L 371.564881 64.877774 
L 372.002467 64.768076 
L 372.110682 64.741169 
L 372.113522 64.741169 
L 372.40864 64.630437 
L 372.518783 64.598356 
L 372.519695 64.598356 
L 372.824599 64.488659 
L 372.918735 64.457612 
L 372.935655 64.457612 
L 373.316946 64.347915 
L 373.42827 64.318938 
L 373.773587 64.208206 
L 373.881345 64.174055 
L 373.884601 64.174055 
L 374.262968 64.063323 
L 374.370125 64.029172 
L 374.373899 64.029172 
L 374.611892 63.919475 
L 374.721952 63.898777 
L 374.722989 63.898777 
L 375.029655 63.78908 
L 375.141105 63.751824 
L 375.400807 63.641092 
L 375.506015 63.606941 
L 375.511738 63.606941 
L 375.910467 63.497244 
L 376.020983 63.462058 
L 376.021564 63.462058 
L 376.328334 63.352361 
L 376.440156 63.317175 
L 376.91324 63.207478 
L 377.021081 63.168152 
L 377.024171 63.168152 
L 377.399801 63.058455 
L 377.497586 63.021199 
L 377.510898 63.021199 
L 377.811386 62.910467 
L 377.912385 62.865967 
L 377.922483 62.865967 
L 378.214096 62.755235 
L 378.32287 62.712805 
L 378.325193 62.712805 
L 378.642227 62.603108 
L 378.75125 62.565852 
L 378.753323 62.565852 
L 379.175483 62.45512 
L 379.283967 62.429248 
L 379.286559 62.429248 
L 379.724912 62.319551 
L 379.831156 62.274016 
L 379.836008 62.274016 
L 380.130711 62.164319 
L 380.242575 62.127063 
L 380.594899 62.016331 
L 380.703384 61.973901 
L 380.705955 61.973901 
L 381.048285 61.863169 
L 381.160087 61.826948 
L 381.528253 61.716216 
L 381.640511 61.659297 
L 382.179655 61.5496 
L 382.285755 61.508205 
L 382.29071 61.508205 
L 382.604261 61.397473 
L 382.716954 61.359182 
L 383.010952 61.24845 
L 383.122816 61.210159 
L 383.439456 61.100462 
L 383.548853 61.065276 
L 383.550553 61.065276 
L 383.983618 60.955579 
L 384.0909 60.928672 
L 384.094715 60.928672 
L 384.478329 60.818975 
L 384.587538 60.792068 
L 384.589384 60.792068 
L 384.968021 60.682371 
L 385.079408 60.649255 
L 385.423148 60.538522 
L 385.527174 60.500232 
L 385.534245 60.500232 
L 386.019189 60.390535 
L 386.129663 60.353279 
L 386.130285 60.353279 
L 386.449269 60.243582 
L 386.557711 60.193907 
L 386.560324 60.193907 
L 386.920652 60.08421 
L 386.996666 60.053164 
L 387.031666 60.053164 
L 387.459776 59.943467 
L 387.571972 59.908281 
L 387.952869 59.798583 
L 388.054925 59.748909 
L 388.063965 59.748909 
L 388.517973 59.639212 
L 388.629381 59.606096 
L 389.008059 59.495364 
L 389.119156 59.471561 
L 389.496735 59.360829 
L 389.602275 59.324608 
L 389.607791 59.324608 
L 389.974401 59.214911 
L 390.080273 59.179725 
L 390.085457 59.179725 
L 390.456173 59.068993 
L 390.56445 59.034842 
L 390.567249 59.034842 
L 391.090946 58.92411 
L 391.199057 58.87961 
L 391.202022 58.87961 
L 391.648296 58.769913 
L 391.754727 58.738866 
L 391.759392 58.738866 
L 392.227604 58.629169 
L 392.339073 58.589844 
L 392.679144 58.479112 
L 392.788291 58.457379 
L 392.790241 58.457379 
L 393.203525 58.347682 
L 393.315327 58.312496 
L 393.751503 58.202799 
L 393.751503 58.201764 
L 393.863864 58.171752 
L 394.408462 58.06102 
L 394.522275 58.01859 
L 394.90284 57.908893 
L 394.992891 57.892335 
L 395.013916 57.892335 
L 395.41476 57.782637 
L 395.518558 57.747452 
L 395.525836 57.747452 
L 396.021915 57.636719 
L 396.124552 57.610847 
L 396.133011 57.610847 
L 396.636409 57.50115 
L 396.745039 57.461825 
L 396.747506 57.461825 
L 397.236141 57.351093 
L 397.344583 57.321081 
L 397.347237 57.321081 
L 397.845244 57.211384 
L 397.944605 57.186547 
L 397.956341 57.186547 
L 398.380449 57.075815 
L 398.489431 57.041664 
L 398.491546 57.041664 
L 398.920921 56.931966 
L 399.030483 56.90299 
L 399.031976 56.90299 
L 399.406362 56.793292 
L 399.497595 56.747758 
L 399.517376 56.747758 
L 399.930702 56.637026 
L 400.035122 56.609084 
L 400.041799 56.609084 
L 400.569685 56.499386 
L 400.680968 56.478689 
L 401.239562 56.368992 
L 401.349165 56.350364 
L 401.350534 56.350364 
L 401.80421 56.240667 
L 401.913523 56.219969 
L 401.915307 56.219969 
L 402.52524 56.110272 
L 402.635175 56.093714 
L 402.636336 56.093714 
L 403.355914 55.984016 
L 403.462367 55.959179 
L 403.467011 55.959179 
L 404.020587 55.849482 
L 404.128988 55.822575 
L 404.131559 55.822575 
L 404.623802 55.712878 
L 404.721711 55.688041 
L 404.734878 55.688041 
L 405.284411 55.578343 
L 405.385928 55.559716 
L 405.395507 55.559716 
L 406.061217 55.450018 
L 406.15981 55.427251 
L 406.172313 55.427251 
L 406.707498 55.317554 
L 406.818822 55.286507 
L 407.338849 55.17681 
L 407.443477 55.162322 
L 407.449905 55.162322 
L 408.190881 55.052624 
L 408.292398 55.036066 
L 408.301936 55.036066 
L 409.148992 54.926369 
L 409.248601 54.905672 
L 409.260088 54.905672 
L 409.935004 54.795974 
L 410.034033 54.781486 
L 410.046059 54.781486 
L 410.771028 54.671789 
L 410.84161 54.653161 
L 410.882125 54.653161 
L 411.964147 54.543464 
L 412.061683 54.531045 
L 412.075243 54.531045 
L 412.927275 54.420313 
L 413.027258 54.40479 
L 413.03833 54.40479 
L 413.535383 54.295092 
L 413.629312 54.276465 
L 413.64648 54.276465 
L 414.668163 54.166767 
L 414.719876 54.144 
L 414.72 54.144 
" clip-path="url(#pfd98bb64cf)" style="fill: none; stroke: #ff8c00; stroke-width: 1.5; stroke-linecap: square"/>
   </g>
   <g id="line2d_14">
    <path d="M 74.605714 307.584 
L 414.72 54.144 
" clip-path="url(#pfd98bb64cf)" style="fill: none; stroke-dasharray: 5.55,2.4; stroke-dashoffset: 0; stroke: #0000ff; stroke-width: 1.5"/>
   </g>
   <g id="patch_3">
    <path d="M 57.6 307.584 
L 57.6 41.472 
" style="fill: none; stroke: #000000; stroke-width: 0.8; stroke-linejoin: miter; stroke-linecap: square"/>
   </g>
   <g id="patch_4">
    <path d="M 414.72 307.584 
L 414.72 41.472 
" style="fill: none; stroke: #000000; stroke-width: 0.8; stroke-linejoin: miter; stroke-linecap: square"/>
   </g>
   <g id="patch_5">
    <path d="M 57.6 307.584 
L 414.72 307.584 
" style="fill: none; stroke: #000000; stroke-width: 0.8; stroke-linejoin: miter; stroke-linecap: square"/>
   </g>
   <g id="patch_6">
    <path d="M 57.6 41.472 
L 414.72 41.472 
" style="fill: none; stroke: #000000; stroke-width: 0.8; stroke-linejoin: miter; stroke-linecap: square"/>
   </g>
   <g id="text_15">
    <!-- ROC CURVE -->
    <g transform="translate(200.855625 35.472)scale(0.12 -0.12)">
     <defs>
      <path id="DejaVuSans-4f" d="M 2522 4238 
Q 1834 4238 1429 3725 
Q 1025 3213 1025 2328 
Q 1025 1447 1429 934 
Q 1834 422 2522 422 
Q 3209 422 3611 934 
Q 4013 1447 4013 2328 
Q 4013 3213 3611 3725 
Q 3209 4238 2522 4238 
z
M 2522 4750 
Q 3503 4750 4090 4092 
Q 4678 3434 4678 2328 
Q 4678 1225 4090 567 
Q 3503 -91 2522 -91 
Q 1538 -91 948 565 
Q 359 1222 359 2328 
Q 359 3434 948 4092 
Q 1538 4750 2522 4750 
z
" transform="scale(0.015625)"/>
      <path id="DejaVuSans-43" d="M 4122 4306 
L 4122 3641 
Q 3803 3938 3442 4084 
Q 3081 4231 2675 4231 
Q 1875 4231 1450 3742 
Q 1025 3253 1025 2328 
Q 1025 1406 1450 917 
Q 1875 428 2675 428 
Q 3081 428 3442 575 
Q 3803 722 4122 1019 
L 4122 359 
Q 3791 134 3420 21 
Q 3050 -91 2638 -91 
Q 1578 -91 968 557 
Q 359 1206 359 2328 
Q 359 3453 968 4101 
Q 1578 4750 2638 4750 
Q 3056 4750 3426 4639 
Q 3797 4528 4122 4306 
z
" transform="scale(0.015625)"/>
      <path id="DejaVuSans-55" d="M 556 4666 
L 1191 4666 
L 1191 1831 
Q 1191 1081 1462 751 
Q 1734 422 2344 422 
Q 2950 422 3222 751 
Q 3494 1081 3494 1831 
L 3494 4666 
L 4128 4666 
L 4128 1753 
Q 4128 841 3676 375 
Q 3225 -91 2344 -91 
Q 1459 -91 1007 375 
Q 556 841 556 1753 
L 556 4666 
z
" transform="scale(0.015625)"/>
      <path id="DejaVuSans-56" d="M 1831 0 
L 50 4666 
L 709 4666 
L 2188 738 
L 3669 4666 
L 4325 4666 
L 2547 0 
L 1831 0 
z
" transform="scale(0.015625)"/>
      <path id="DejaVuSans-45" d="M 628 4666 
L 3578 4666 
L 3578 4134 
L 1259 4134 
L 1259 2753 
L 3481 2753 
L 3481 2222 
L 1259 2222 
L 1259 531 
L 3634 531 
L 3634 0 
L 628 0 
L 628 4666 
z
" transform="scale(0.015625)"/>
     </defs>
     <use xlink:href="#DejaVuSans-52"/>
     <use xlink:href="#DejaVuSans-4f" x="69.482422"/>
     <use xlink:href="#DejaVuSans-43" x="148.193359"/>
     <use xlink:href="#DejaVuSans-20" x="218.017578"/>
     <use xlink:href="#DejaVuSans-43" x="249.804688"/>
     <use xlink:href="#DejaVuSans-55" x="319.628906"/>
     <use xlink:href="#DejaVuSans-52" x="392.822266"/>
     <use xlink:href="#DejaVuSans-56" x="456.804688"/>
     <use xlink:href="#DejaVuSans-45" x="525.212891"/>
    </g>
   </g>
   <g id="legend_1">
    <g id="patch_7">
     <path d="M 234.97 302.584 
L 407.72 302.584 
Q 409.72 302.584 409.72 300.584 
L 409.72 286.905875 
Q 409.72 284.905875 407.72 284.905875 
L 234.97 284.905875 
Q 232.97 284.905875 232.97 286.905875 
L 232.97 300.584 
Q 232.97 302.584 234.97 302.584 
z
" style="fill: #ffffff; opacity: 0.8; stroke: #cccccc; stroke-linejoin: miter"/>
    </g>
    <g id="line2d_15">
     <path d="M 236.97 293.004312 
L 246.97 293.004312 
L 256.97 293.004312 
" style="fill: none; stroke: #ff8c00; stroke-width: 1.5; stroke-linecap: square"/>
    </g>
    <g id="text_16">
     <!-- ROC curve (ROC AUC=0.65) -->
     <g transform="translate(264.97 296.504312)scale(0.1 -0.1)">
      <defs>
       <path id="DejaVuSans-63" d="M 3122 3366 
L 3122 2828 
Q 2878 2963 2633 3030 
Q 2388 3097 2138 3097 
Q 1578 3097 1268 2742 
Q 959 2388 959 1747 
Q 959 1106 1268 751 
Q 1578 397 2138 397 
Q 2388 397 2633 464 
Q 2878 531 3122 666 
L 3122 134 
Q 2881 22 2623 -34 
Q 2366 -91 2075 -91 
Q 1284 -91 818 406 
Q 353 903 353 1747 
Q 353 2603 823 3093 
Q 1294 3584 2113 3584 
Q 2378 3584 2631 3529 
Q 2884 3475 3122 3366 
z
" transform="scale(0.015625)"/>
       <path id="DejaVuSans-28" d="M 1984 4856 
Q 1566 4138 1362 3434 
Q 1159 2731 1159 2009 
Q 1159 1288 1364 580 
Q 1569 -128 1984 -844 
L 1484 -844 
Q 1016 -109 783 600 
Q 550 1309 550 2009 
Q 550 2706 781 3412 
Q 1013 4119 1484 4856 
L 1984 4856 
z
" transform="scale(0.015625)"/>
       <path id="DejaVuSans-41" d="M 2188 4044 
L 1331 1722 
L 3047 1722 
L 2188 4044 
z
M 1831 4666 
L 2547 4666 
L 4325 0 
L 3669 0 
L 3244 1197 
L 1141 1197 
L 716 0 
L 50 0 
L 1831 4666 
z
" transform="scale(0.015625)"/>
       <path id="DejaVuSans-3d" d="M 678 2906 
L 4684 2906 
L 4684 2381 
L 678 2381 
L 678 2906 
z
M 678 1631 
L 4684 1631 
L 4684 1100 
L 678 1100 
L 678 1631 
z
" transform="scale(0.015625)"/>
       <path id="DejaVuSans-35" d="M 691 4666 
L 3169 4666 
L 3169 4134 
L 1269 4134 
L 1269 2991 
Q 1406 3038 1543 3061 
Q 1681 3084 1819 3084 
Q 2600 3084 3056 2656 
Q 3513 2228 3513 1497 
Q 3513 744 3044 326 
Q 2575 -91 1722 -91 
Q 1428 -91 1123 -41 
Q 819 9 494 109 
L 494 744 
Q 775 591 1075 516 
Q 1375 441 1709 441 
Q 2250 441 2565 725 
Q 2881 1009 2881 1497 
Q 2881 1984 2565 2268 
Q 2250 2553 1709 2553 
Q 1456 2553 1204 2497 
Q 953 2441 691 2322 
L 691 4666 
z
" transform="scale(0.015625)"/>
       <path id="DejaVuSans-29" d="M 513 4856 
L 1013 4856 
Q 1481 4119 1714 3412 
Q 1947 2706 1947 2009 
Q 1947 1309 1714 600 
Q 1481 -109 1013 -844 
L 513 -844 
Q 928 -128 1133 580 
Q 1338 1288 1338 2009 
Q 1338 2731 1133 3434 
Q 928 4138 513 4856 
z
" transform="scale(0.015625)"/>
      </defs>
      <use xlink:href="#DejaVuSans-52"/>
      <use xlink:href="#DejaVuSans-4f" x="69.482422"/>
      <use xlink:href="#DejaVuSans-43" x="148.193359"/>
      <use xlink:href="#DejaVuSans-20" x="218.017578"/>
      <use xlink:href="#DejaVuSans-63" x="249.804688"/>
      <use xlink:href="#DejaVuSans-75" x="304.785156"/>
      <use xlink:href="#DejaVuSans-72" x="368.164062"/>
      <use xlink:href="#DejaVuSans-76" x="409.277344"/>
      <use xlink:href="#DejaVuSans-65" x="468.457031"/>
      <use xlink:href="#DejaVuSans-20" x="529.980469"/>
      <use xlink:href="#DejaVuSans-28" x="561.767578"/>
      <use xlink:href="#DejaVuSans-52" x="600.78125"/>
      <use xlink:href="#DejaVuSans-4f" x="670.263672"/>
      <use xlink:href="#DejaVuSans-43" x="748.974609"/>
      <use xlink:href="#DejaVuSans-20" x="818.798828"/>
      <use xlink:href="#DejaVuSans-41" x="850.585938"/>
      <use xlink:href="#DejaVuSans-55" x="918.994141"/>
      <use xlink:href="#DejaVuSans-43" x="992.1875"/>
      <use xlink:href="#DejaVuSans-3d" x="1062.011719"/>
      <use xlink:href="#DejaVuSans-30" x="1145.800781"/>
      <use xlink:href="#DejaVuSans-2e" x="1209.423828"/>
      <use xlink:href="#DejaVuSans-36" x="1241.210938"/>
      <use xlink:href="#DejaVuSans-35" x="1304.833984"/>
      <use xlink:href="#DejaVuSans-29" x="1368.457031"/>
     </g>
    </g>
   </g>
  </g>
 </g>
 <defs>
  <clipPath id="pfd98bb64cf">
   <rect x="57.6" y="41.472" width="357.12" height="266.112"/>
  </clipPath>
 </defs>
</svg>
