<?xml version="1.0" encoding="utf-8" standalone="no"?>
<!DOCTYPE svg PUBLIC "-//W3C//DTD SVG 1.1//EN"
  "http://www.w3.org/Graphics/SVG/1.1/DTD/svg11.dtd">
<svg xmlns:xlink="http://www.w3.org/1999/xlink" width="460.8pt" height="345.6pt" viewBox="0 0 460.8 345.6" xmlns="http://www.w3.org/2000/svg" version="1.1">
 <metadata>
  <rdf:RDF xmlns:dc="http://purl.org/dc/elements/1.1/" xmlns:cc="http://creativecommons.org/ns#" xmlns:rdf="http://www.w3.org/1999/02/22-rdf-syntax-ns#">
   <cc:Work>
    <dc:type rdf:resource="http://purl.org/dc/dcmitype/StillImage"/>
    <dc:date>2022-05-20T22:01:48.160243</dc:date>
    <dc:format>image/svg+xml</dc:format>
    <dc:creator>
     <cc:Agent>
      <dc:title>Matplotlib v3.5.1, https://matplotlib.org/</dc:title>
     </cc:Agent>
    </dc:creator>
   </cc:Work>
  </rdf:RDF>
 </metadata>
 <defs>
  <style type="text/css">*{stroke-linejoin: round; stroke-linecap: butt}</style>
 </defs>
 <g id="figure_1">
  <g id="patch_1">
   <path d="M 0 345.6 
L 460.8 345.6 
L 460.8 0 
L 0 0 
z
" style="fill: #ffffff"/>
  </g>
  <g id="axes_1">
   <g id="patch_2">
    <path d="M 57.6 307.584 
L 414.72 307.584 
L 414.72 41.472 
L 57.6 41.472 
z
" style="fill: #ffffff"/>
   </g>
   <g id="matplotlib.axis_1">
    <g id="xtick_1">
     <g id="line2d_1">
      <defs>
       <path id="m947a57343d" d="M 0 0 
L 0 3.5 
" style="stroke: #000000; stroke-width: 0.8"/>
      </defs>
      <g>
       <use xlink:href="#m947a57343d" x="74.605714" y="307.584" style="stroke: #000000; stroke-width: 0.8"/>
      </g>
     </g>
     <g id="text_1">
      <!-- 0.0 -->
      <g transform="translate(66.654152 322.182437)scale(0.1 -0.1)">
       <defs>
        <path id="DejaVuSans-30" d="M 2034 4250 
Q 1547 4250 1301 3770 
Q 1056 3291 1056 2328 
Q 1056 1369 1301 889 
Q 1547 409 2034 409 
Q 2525 409 2770 889 
Q 3016 1369 3016 2328 
Q 3016 3291 2770 3770 
Q 2525 4250 2034 4250 
z
M 2034 4750 
Q 2819 4750 3233 4129 
Q 3647 3509 3647 2328 
Q 3647 1150 3233 529 
Q 2819 -91 2034 -91 
Q 1250 -91 836 529 
Q 422 1150 422 2328 
Q 422 3509 836 4129 
Q 1250 4750 2034 4750 
z
" transform="scale(0.015625)"/>
        <path id="DejaVuSans-2e" d="M 684 794 
L 1344 794 
L 1344 0 
L 684 0 
L 684 794 
z
" transform="scale(0.015625)"/>
       </defs>
       <use xlink:href="#DejaVuSans-30"/>
       <use xlink:href="#DejaVuSans-2e" x="63.623047"/>
       <use xlink:href="#DejaVuSans-30" x="95.410156"/>
      </g>
     </g>
    </g>
    <g id="xtick_2">
     <g id="line2d_2">
      <g>
       <use xlink:href="#m947a57343d" x="142.628571" y="307.584" style="stroke: #000000; stroke-width: 0.8"/>
      </g>
     </g>
     <g id="text_2">
      <!-- 0.2 -->
      <g transform="translate(134.677009 322.182437)scale(0.1 -0.1)">
       <defs>
        <path id="DejaVuSans-32" d="M 1228 531 
L 3431 531 
L 3431 0 
L 469 0 
L 469 531 
Q 828 903 1448 1529 
Q 2069 2156 2228 2338 
Q 2531 2678 2651 2914 
Q 2772 3150 2772 3378 
Q 2772 3750 2511 3984 
Q 2250 4219 1831 4219 
Q 1534 4219 1204 4116 
Q 875 4013 500 3803 
L 500 4441 
Q 881 4594 1212 4672 
Q 1544 4750 1819 4750 
Q 2544 4750 2975 4387 
Q 3406 4025 3406 3419 
Q 3406 3131 3298 2873 
Q 3191 2616 2906 2266 
Q 2828 2175 2409 1742 
Q 1991 1309 1228 531 
z
" transform="scale(0.015625)"/>
       </defs>
       <use xlink:href="#DejaVuSans-30"/>
       <use xlink:href="#DejaVuSans-2e" x="63.623047"/>
       <use xlink:href="#DejaVuSans-32" x="95.410156"/>
      </g>
     </g>
    </g>
    <g id="xtick_3">
     <g id="line2d_3">
      <g>
       <use xlink:href="#m947a57343d" x="210.651429" y="307.584" style="stroke: #000000; stroke-width: 0.8"/>
      </g>
     </g>
     <g id="text_3">
      <!-- 0.4 -->
      <g transform="translate(202.699866 322.182437)scale(0.1 -0.1)">
       <defs>
        <path id="DejaVuSans-34" d="M 2419 4116 
L 825 1625 
L 2419 1625 
L 2419 4116 
z
M 2253 4666 
L 3047 4666 
L 3047 1625 
L 3713 1625 
L 3713 1100 
L 3047 1100 
L 3047 0 
L 2419 0 
L 2419 1100 
L 313 1100 
L 313 1709 
L 2253 4666 
z
" transform="scale(0.015625)"/>
       </defs>
       <use xlink:href="#DejaVuSans-30"/>
       <use xlink:href="#DejaVuSans-2e" x="63.623047"/>
       <use xlink:href="#DejaVuSans-34" x="95.410156"/>
      </g>
     </g>
    </g>
    <g id="xtick_4">
     <g id="line2d_4">
      <g>
       <use xlink:href="#m947a57343d" x="278.674286" y="307.584" style="stroke: #000000; stroke-width: 0.8"/>
      </g>
     </g>
     <g id="text_4">
      <!-- 0.6 -->
      <g transform="translate(270.722723 322.182437)scale(0.1 -0.1)">
       <defs>
        <path id="DejaVuSans-36" d="M 2113 2584 
Q 1688 2584 1439 2293 
Q 1191 2003 1191 1497 
Q 1191 994 1439 701 
Q 1688 409 2113 409 
Q 2538 409 2786 701 
Q 3034 994 3034 1497 
Q 3034 2003 2786 2293 
Q 2538 2584 2113 2584 
z
M 3366 4563 
L 3366 3988 
Q 3128 4100 2886 4159 
Q 2644 4219 2406 4219 
Q 1781 4219 1451 3797 
Q 1122 3375 1075 2522 
Q 1259 2794 1537 2939 
Q 1816 3084 2150 3084 
Q 2853 3084 3261 2657 
Q 3669 2231 3669 1497 
Q 3669 778 3244 343 
Q 2819 -91 2113 -91 
Q 1303 -91 875 529 
Q 447 1150 447 2328 
Q 447 3434 972 4092 
Q 1497 4750 2381 4750 
Q 2619 4750 2861 4703 
Q 3103 4656 3366 4563 
z
" transform="scale(0.015625)"/>
       </defs>
       <use xlink:href="#DejaVuSans-30"/>
       <use xlink:href="#DejaVuSans-2e" x="63.623047"/>
       <use xlink:href="#DejaVuSans-36" x="95.410156"/>
      </g>
     </g>
    </g>
    <g id="xtick_5">
     <g id="line2d_5">
      <g>
       <use xlink:href="#m947a57343d" x="346.697143" y="307.584" style="stroke: #000000; stroke-width: 0.8"/>
      </g>
     </g>
     <g id="text_5">
      <!-- 0.8 -->
      <g transform="translate(338.74558 322.182437)scale(0.1 -0.1)">
       <defs>
        <path id="DejaVuSans-38" d="M 2034 2216 
Q 1584 2216 1326 1975 
Q 1069 1734 1069 1313 
Q 1069 891 1326 650 
Q 1584 409 2034 409 
Q 2484 409 2743 651 
Q 3003 894 3003 1313 
Q 3003 1734 2745 1975 
Q 2488 2216 2034 2216 
z
M 1403 2484 
Q 997 2584 770 2862 
Q 544 3141 544 3541 
Q 544 4100 942 4425 
Q 1341 4750 2034 4750 
Q 2731 4750 3128 4425 
Q 3525 4100 3525 3541 
Q 3525 3141 3298 2862 
Q 3072 2584 2669 2484 
Q 3125 2378 3379 2068 
Q 3634 1759 3634 1313 
Q 3634 634 3220 271 
Q 2806 -91 2034 -91 
Q 1263 -91 848 271 
Q 434 634 434 1313 
Q 434 1759 690 2068 
Q 947 2378 1403 2484 
z
M 1172 3481 
Q 1172 3119 1398 2916 
Q 1625 2713 2034 2713 
Q 2441 2713 2670 2916 
Q 2900 3119 2900 3481 
Q 2900 3844 2670 4047 
Q 2441 4250 2034 4250 
Q 1625 4250 1398 4047 
Q 1172 3844 1172 3481 
z
" transform="scale(0.015625)"/>
       </defs>
       <use xlink:href="#DejaVuSans-30"/>
       <use xlink:href="#DejaVuSans-2e" x="63.623047"/>
       <use xlink:href="#DejaVuSans-38" x="95.410156"/>
      </g>
     </g>
    </g>
    <g id="xtick_6">
     <g id="line2d_6">
      <g>
       <use xlink:href="#m947a57343d" x="414.72" y="307.584" style="stroke: #000000; stroke-width: 0.8"/>
      </g>
     </g>
     <g id="text_6">
      <!-- 1.0 -->
      <g transform="translate(406.768438 322.182437)scale(0.1 -0.1)">
       <defs>
        <path id="DejaVuSans-31" d="M 794 531 
L 1825 531 
L 1825 4091 
L 703 3866 
L 703 4441 
L 1819 4666 
L 2450 4666 
L 2450 531 
L 3481 531 
L 3481 0 
L 794 0 
L 794 531 
z
" transform="scale(0.015625)"/>
       </defs>
       <use xlink:href="#DejaVuSans-31"/>
       <use xlink:href="#DejaVuSans-2e" x="63.623047"/>
       <use xlink:href="#DejaVuSans-30" x="95.410156"/>
      </g>
     </g>
    </g>
    <g id="text_7">
     <!-- False Positive Rate -->
     <g transform="translate(189.693594 335.860562)scale(0.1 -0.1)">
      <defs>
       <path id="DejaVuSans-46" d="M 628 4666 
L 3309 4666 
L 3309 4134 
L 1259 4134 
L 1259 2759 
L 3109 2759 
L 3109 2228 
L 1259 2228 
L 1259 0 
L 628 0 
L 628 4666 
z
" transform="scale(0.015625)"/>
       <path id="DejaVuSans-61" d="M 2194 1759 
Q 1497 1759 1228 1600 
Q 959 1441 959 1056 
Q 959 750 1161 570 
Q 1363 391 1709 391 
Q 2188 391 2477 730 
Q 2766 1069 2766 1631 
L 2766 1759 
L 2194 1759 
z
M 3341 1997 
L 3341 0 
L 2766 0 
L 2766 531 
Q 2569 213 2275 61 
Q 1981 -91 1556 -91 
Q 1019 -91 701 211 
Q 384 513 384 1019 
Q 384 1609 779 1909 
Q 1175 2209 1959 2209 
L 2766 2209 
L 2766 2266 
Q 2766 2663 2505 2880 
Q 2244 3097 1772 3097 
Q 1472 3097 1187 3025 
Q 903 2953 641 2809 
L 641 3341 
Q 956 3463 1253 3523 
Q 1550 3584 1831 3584 
Q 2591 3584 2966 3190 
Q 3341 2797 3341 1997 
z
" transform="scale(0.015625)"/>
       <path id="DejaVuSans-6c" d="M 603 4863 
L 1178 4863 
L 1178 0 
L 603 0 
L 603 4863 
z
" transform="scale(0.015625)"/>
       <path id="DejaVuSans-73" d="M 2834 3397 
L 2834 2853 
Q 2591 2978 2328 3040 
Q 2066 3103 1784 3103 
Q 1356 3103 1142 2972 
Q 928 2841 928 2578 
Q 928 2378 1081 2264 
Q 1234 2150 1697 2047 
L 1894 2003 
Q 2506 1872 2764 1633 
Q 3022 1394 3022 966 
Q 3022 478 2636 193 
Q 2250 -91 1575 -91 
Q 1294 -91 989 -36 
Q 684 19 347 128 
L 347 722 
Q 666 556 975 473 
Q 1284 391 1588 391 
Q 1994 391 2212 530 
Q 2431 669 2431 922 
Q 2431 1156 2273 1281 
Q 2116 1406 1581 1522 
L 1381 1569 
Q 847 1681 609 1914 
Q 372 2147 372 2553 
Q 372 3047 722 3315 
Q 1072 3584 1716 3584 
Q 2034 3584 2315 3537 
Q 2597 3491 2834 3397 
z
" transform="scale(0.015625)"/>
       <path id="DejaVuSans-65" d="M 3597 1894 
L 3597 1613 
L 953 1613 
Q 991 1019 1311 708 
Q 1631 397 2203 397 
Q 2534 397 2845 478 
Q 3156 559 3463 722 
L 3463 178 
Q 3153 47 2828 -22 
Q 2503 -91 2169 -91 
Q 1331 -91 842 396 
Q 353 884 353 1716 
Q 353 2575 817 3079 
Q 1281 3584 2069 3584 
Q 2775 3584 3186 3129 
Q 3597 2675 3597 1894 
z
M 3022 2063 
Q 3016 2534 2758 2815 
Q 2500 3097 2075 3097 
Q 1594 3097 1305 2825 
Q 1016 2553 972 2059 
L 3022 2063 
z
" transform="scale(0.015625)"/>
       <path id="DejaVuSans-20" transform="scale(0.015625)"/>
       <path id="DejaVuSans-50" d="M 1259 4147 
L 1259 2394 
L 2053 2394 
Q 2494 2394 2734 2622 
Q 2975 2850 2975 3272 
Q 2975 3691 2734 3919 
Q 2494 4147 2053 4147 
L 1259 4147 
z
M 628 4666 
L 2053 4666 
Q 2838 4666 3239 4311 
Q 3641 3956 3641 3272 
Q 3641 2581 3239 2228 
Q 2838 1875 2053 1875 
L 1259 1875 
L 1259 0 
L 628 0 
L 628 4666 
z
" transform="scale(0.015625)"/>
       <path id="DejaVuSans-6f" d="M 1959 3097 
Q 1497 3097 1228 2736 
Q 959 2375 959 1747 
Q 959 1119 1226 758 
Q 1494 397 1959 397 
Q 2419 397 2687 759 
Q 2956 1122 2956 1747 
Q 2956 2369 2687 2733 
Q 2419 3097 1959 3097 
z
M 1959 3584 
Q 2709 3584 3137 3096 
Q 3566 2609 3566 1747 
Q 3566 888 3137 398 
Q 2709 -91 1959 -91 
Q 1206 -91 779 398 
Q 353 888 353 1747 
Q 353 2609 779 3096 
Q 1206 3584 1959 3584 
z
" transform="scale(0.015625)"/>
       <path id="DejaVuSans-69" d="M 603 3500 
L 1178 3500 
L 1178 0 
L 603 0 
L 603 3500 
z
M 603 4863 
L 1178 4863 
L 1178 4134 
L 603 4134 
L 603 4863 
z
" transform="scale(0.015625)"/>
       <path id="DejaVuSans-74" d="M 1172 4494 
L 1172 3500 
L 2356 3500 
L 2356 3053 
L 1172 3053 
L 1172 1153 
Q 1172 725 1289 603 
Q 1406 481 1766 481 
L 2356 481 
L 2356 0 
L 1766 0 
Q 1100 0 847 248 
Q 594 497 594 1153 
L 594 3053 
L 172 3053 
L 172 3500 
L 594 3500 
L 594 4494 
L 1172 4494 
z
" transform="scale(0.015625)"/>
       <path id="DejaVuSans-76" d="M 191 3500 
L 800 3500 
L 1894 563 
L 2988 3500 
L 3597 3500 
L 2284 0 
L 1503 0 
L 191 3500 
z
" transform="scale(0.015625)"/>
       <path id="DejaVuSans-52" d="M 2841 2188 
Q 3044 2119 3236 1894 
Q 3428 1669 3622 1275 
L 4263 0 
L 3584 0 
L 2988 1197 
Q 2756 1666 2539 1819 
Q 2322 1972 1947 1972 
L 1259 1972 
L 1259 0 
L 628 0 
L 628 4666 
L 2053 4666 
Q 2853 4666 3247 4331 
Q 3641 3997 3641 3322 
Q 3641 2881 3436 2590 
Q 3231 2300 2841 2188 
z
M 1259 4147 
L 1259 2491 
L 2053 2491 
Q 2509 2491 2742 2702 
Q 2975 2913 2975 3322 
Q 2975 3731 2742 3939 
Q 2509 4147 2053 4147 
L 1259 4147 
z
" transform="scale(0.015625)"/>
      </defs>
      <use xlink:href="#DejaVuSans-46"/>
      <use xlink:href="#DejaVuSans-61" x="48.394531"/>
      <use xlink:href="#DejaVuSans-6c" x="109.673828"/>
      <use xlink:href="#DejaVuSans-73" x="137.457031"/>
      <use xlink:href="#DejaVuSans-65" x="189.556641"/>
      <use xlink:href="#DejaVuSans-20" x="251.080078"/>
      <use xlink:href="#DejaVuSans-50" x="282.867188"/>
      <use xlink:href="#DejaVuSans-6f" x="339.544922"/>
      <use xlink:href="#DejaVuSans-73" x="400.726562"/>
      <use xlink:href="#DejaVuSans-69" x="452.826172"/>
      <use xlink:href="#DejaVuSans-74" x="480.609375"/>
      <use xlink:href="#DejaVuSans-69" x="519.818359"/>
      <use xlink:href="#DejaVuSans-76" x="547.601562"/>
      <use xlink:href="#DejaVuSans-65" x="606.78125"/>
      <use xlink:href="#DejaVuSans-20" x="668.304688"/>
      <use xlink:href="#DejaVuSans-52" x="700.091797"/>
      <use xlink:href="#DejaVuSans-61" x="767.324219"/>
      <use xlink:href="#DejaVuSans-74" x="828.603516"/>
      <use xlink:href="#DejaVuSans-65" x="867.8125"/>
     </g>
    </g>
   </g>
   <g id="matplotlib.axis_2">
    <g id="ytick_1">
     <g id="line2d_7">
      <defs>
       <path id="me92bc2d388" d="M 0 0 
L -3.5 0 
" style="stroke: #000000; stroke-width: 0.8"/>
      </defs>
      <g>
       <use xlink:href="#me92bc2d388" x="57.6" y="307.584" style="stroke: #000000; stroke-width: 0.8"/>
      </g>
     </g>
     <g id="text_8">
      <!-- 0.0 -->
      <g transform="translate(34.696875 311.383219)scale(0.1 -0.1)">
       <use xlink:href="#DejaVuSans-30"/>
       <use xlink:href="#DejaVuSans-2e" x="63.623047"/>
       <use xlink:href="#DejaVuSans-30" x="95.410156"/>
      </g>
     </g>
    </g>
    <g id="ytick_2">
     <g id="line2d_8">
      <g>
       <use xlink:href="#me92bc2d388" x="57.6" y="256.896" style="stroke: #000000; stroke-width: 0.8"/>
      </g>
     </g>
     <g id="text_9">
      <!-- 0.2 -->
      <g transform="translate(34.696875 260.695219)scale(0.1 -0.1)">
       <use xlink:href="#DejaVuSans-30"/>
       <use xlink:href="#DejaVuSans-2e" x="63.623047"/>
       <use xlink:href="#DejaVuSans-32" x="95.410156"/>
      </g>
     </g>
    </g>
    <g id="ytick_3">
     <g id="line2d_9">
      <g>
       <use xlink:href="#me92bc2d388" x="57.6" y="206.208" style="stroke: #000000; stroke-width: 0.8"/>
      </g>
     </g>
     <g id="text_10">
      <!-- 0.4 -->
      <g transform="translate(34.696875 210.007219)scale(0.1 -0.1)">
       <use xlink:href="#DejaVuSans-30"/>
       <use xlink:href="#DejaVuSans-2e" x="63.623047"/>
       <use xlink:href="#DejaVuSans-34" x="95.410156"/>
      </g>
     </g>
    </g>
    <g id="ytick_4">
     <g id="line2d_10">
      <g>
       <use xlink:href="#me92bc2d388" x="57.6" y="155.52" style="stroke: #000000; stroke-width: 0.8"/>
      </g>
     </g>
     <g id="text_11">
      <!-- 0.6 -->
      <g transform="translate(34.696875 159.319219)scale(0.1 -0.1)">
       <use xlink:href="#DejaVuSans-30"/>
       <use xlink:href="#DejaVuSans-2e" x="63.623047"/>
       <use xlink:href="#DejaVuSans-36" x="95.410156"/>
      </g>
     </g>
    </g>
    <g id="ytick_5">
     <g id="line2d_11">
      <g>
       <use xlink:href="#me92bc2d388" x="57.6" y="104.832" style="stroke: #000000; stroke-width: 0.8"/>
      </g>
     </g>
     <g id="text_12">
      <!-- 0.8 -->
      <g transform="translate(34.696875 108.631219)scale(0.1 -0.1)">
       <use xlink:href="#DejaVuSans-30"/>
       <use xlink:href="#DejaVuSans-2e" x="63.623047"/>
       <use xlink:href="#DejaVuSans-38" x="95.410156"/>
      </g>
     </g>
    </g>
    <g id="ytick_6">
     <g id="line2d_12">
      <g>
       <use xlink:href="#me92bc2d388" x="57.6" y="54.144" style="stroke: #000000; stroke-width: 0.8"/>
      </g>
     </g>
     <g id="text_13">
      <!-- 1.0 -->
      <g transform="translate(34.696875 57.943219)scale(0.1 -0.1)">
       <use xlink:href="#DejaVuSans-31"/>
       <use xlink:href="#DejaVuSans-2e" x="63.623047"/>
       <use xlink:href="#DejaVuSans-30" x="95.410156"/>
      </g>
     </g>
    </g>
    <g id="text_14">
     <!-- True Positive Rate -->
     <g transform="translate(28.617187 219.057687)rotate(-90)scale(0.1 -0.1)">
      <defs>
       <path id="DejaVuSans-54" d="M -19 4666 
L 3928 4666 
L 3928 4134 
L 2272 4134 
L 2272 0 
L 1638 0 
L 1638 4134 
L -19 4134 
L -19 4666 
z
" transform="scale(0.015625)"/>
       <path id="DejaVuSans-72" d="M 2631 2963 
Q 2534 3019 2420 3045 
Q 2306 3072 2169 3072 
Q 1681 3072 1420 2755 
Q 1159 2438 1159 1844 
L 1159 0 
L 581 0 
L 581 3500 
L 1159 3500 
L 1159 2956 
Q 1341 3275 1631 3429 
Q 1922 3584 2338 3584 
Q 2397 3584 2469 3576 
Q 2541 3569 2628 3553 
L 2631 2963 
z
" transform="scale(0.015625)"/>
       <path id="DejaVuSans-75" d="M 544 1381 
L 544 3500 
L 1119 3500 
L 1119 1403 
Q 1119 906 1312 657 
Q 1506 409 1894 409 
Q 2359 409 2629 706 
Q 2900 1003 2900 1516 
L 2900 3500 
L 3475 3500 
L 3475 0 
L 2900 0 
L 2900 538 
Q 2691 219 2414 64 
Q 2138 -91 1772 -91 
Q 1169 -91 856 284 
Q 544 659 544 1381 
z
M 1991 3584 
L 1991 3584 
z
" transform="scale(0.015625)"/>
      </defs>
      <use xlink:href="#DejaVuSans-54"/>
      <use xlink:href="#DejaVuSans-72" x="46.333984"/>
      <use xlink:href="#DejaVuSans-75" x="87.447266"/>
      <use xlink:href="#DejaVuSans-65" x="150.826172"/>
      <use xlink:href="#DejaVuSans-20" x="212.349609"/>
      <use xlink:href="#DejaVuSans-50" x="244.136719"/>
      <use xlink:href="#DejaVuSans-6f" x="300.814453"/>
      <use xlink:href="#DejaVuSans-73" x="361.996094"/>
      <use xlink:href="#DejaVuSans-69" x="414.095703"/>
      <use xlink:href="#DejaVuSans-74" x="441.878906"/>
      <use xlink:href="#DejaVuSans-69" x="481.087891"/>
      <use xlink:href="#DejaVuSans-76" x="508.871094"/>
      <use xlink:href="#DejaVuSans-65" x="568.050781"/>
      <use xlink:href="#DejaVuSans-20" x="629.574219"/>
      <use xlink:href="#DejaVuSans-52" x="661.361328"/>
      <use xlink:href="#DejaVuSans-61" x="728.59375"/>
      <use xlink:href="#DejaVuSans-74" x="789.873047"/>
      <use xlink:href="#DejaVuSans-65" x="829.082031"/>
     </g>
    </g>
   </g>
   <g id="line2d_13">
    <path d="M 74.605714 307.584 
L 74.613842 307.476372 
L 74.724939 302.33302 
L 74.726307 302.227462 
L 74.726307 302.225392 
L 74.837404 295.800858 
L 74.839602 295.691161 
L 74.950699 290.135926 
L 74.953353 290.026229 
L 75.064408 285.71078 
L 75.067477 285.601083 
L 75.178532 281.57747 
L 75.178574 281.57747 
L 75.18214 281.480191 
L 75.18214 281.467773 
L 75.293237 277.974018 
L 75.297052 277.864321 
L 75.407983 274.521659 
L 75.408107 274.521659 
L 75.411798 274.418171 
L 75.522895 271.566042 
L 75.527124 271.458415 
L 75.63818 269.00161 
L 75.6427 268.891913 
L 75.753796 266.842851 
L 75.759478 266.733154 
L 75.870492 264.907626 
L 75.870575 264.907626 
L 75.876214 264.797928 
L 75.987228 263.069679 
L 75.996891 262.959982 
L 76.107987 261.378685 
L 76.116447 261.268988 
L 76.227502 259.768412 
L 76.234884 259.658715 
L 76.345898 258.021535 
L 76.34598 258.021535 
L 76.353196 257.911838 
L 76.46421 256.475425 
L 76.470347 256.365728 
L 76.581403 254.987268 
L 76.590526 254.87757 
L 76.701374 253.405971 
L 76.70154 253.405971 
L 76.709917 253.296274 
L 76.820806 251.975767 
L 76.821013 251.975767 
L 76.830178 251.86814 
L 76.941233 250.522796 
L 76.948698 250.413099 
L 77.059712 249.007732 
L 77.059753 249.007732 
L 77.066844 248.898035 
L 77.177858 247.581668 
L 77.177941 247.581668 
L 77.186235 247.47197 
L 77.29729 246.134906 
L 77.297332 246.134906 
L 77.308404 246.029348 
L 77.308404 246.025208 
L 77.419293 244.793701 
L 77.419459 244.793701 
L 77.430117 244.684004 
L 77.541131 243.471125 
L 77.541172 243.471125 
L 77.548554 243.361428 
L 77.659277 242.239618 
L 77.65936 242.239618 
L 77.669188 242.129921 
L 77.669188 242.128886 
L 77.806825 240.801135 
L 77.82022 240.691438 
L 77.931317 239.650349 
L 77.942679 239.540651 
L 78.053735 238.505772 
L 78.064351 238.396074 
L 78.175448 237.332218 
L 78.191455 237.222521 
L 78.30251 236.241454 
L 78.318642 236.135897 
L 78.429697 235.146552 
L 78.429738 235.146552 
L 78.445289 235.036854 
L 78.556262 234.153067 
L 78.556386 234.153067 
L 78.571025 234.04337 
L 78.68208 233.161652 
L 78.682121 233.161652 
L 78.697092 233.051955 
L 78.808189 232.180586 
L 78.825689 232.070889 
L 78.936537 231.232636 
L 78.936744 231.232636 
L 78.950844 231.122939 
L 79.06136 230.282616 
L 79.06194 230.282616 
L 79.078901 230.172919 
L 79.189998 229.402969 
L 79.20613 229.293271 
L 79.316978 228.544018 
L 79.317226 228.544018 
L 79.333441 228.434321 
L 79.44433 227.709905 
L 79.444538 227.709905 
L 79.460379 227.600208 
L 79.571476 226.891315 
L 79.724125 225.855401 
L 79.74092 225.745703 
L 79.85156 225.077171 
L 79.851975 225.077171 
L 79.876401 224.969543 
L 79.987456 224.332057 
L 79.987497 224.332057 
L 80.009559 224.22236 
L 80.120614 223.580735 
L 80.135212 223.471037 
L 80.245355 222.821133 
L 80.246308 222.821133 
L 80.261196 222.711436 
L 80.371256 222.119484 
L 80.372293 222.119484 
L 80.390042 222.009787 
L 80.500993 221.38265 
L 80.501014 221.38265 
L 80.519592 221.272953 
L 80.630564 220.645815 
L 80.630647 220.645815 
L 80.649392 220.540258 
L 80.760488 219.884144 
L 80.776537 219.774447 
L 80.887634 219.211472 
L 80.908327 219.101775 
L 81.018262 218.441521 
L 81.019216 218.441521 
L 81.044015 218.331824 
L 81.154738 217.723315 
L 81.154904 217.723315 
L 81.17933 217.613618 
L 81.290053 216.998899 
L 81.290261 216.998899 
L 81.3083 216.889202 
L 81.418982 216.295181 
L 81.419397 216.295181 
L 81.445771 216.185483 
L 81.556619 215.585253 
L 81.556826 215.585253 
L 81.57611 215.475556 
L 81.687041 214.881535 
L 81.687206 214.881535 
L 81.708895 214.771838 
L 81.818913 214.196444 
L 81.819992 214.196444 
L 81.835294 214.086747 
L 81.945561 213.440982 
L 81.946266 213.440982 
L 81.964015 213.331285 
L 82.075029 212.735194 
L 82.07507 212.735194 
L 82.098708 212.625497 
L 82.20968 212.072871 
L 82.209763 212.072871 
L 82.230125 211.963174 
L 82.340268 211.433315 
L 82.341138 211.433315 
L 82.365357 211.323618 
L 82.475292 210.735806 
L 82.476453 210.735806 
L 82.493124 210.626109 
L 82.603723 210.056925 
L 82.604138 210.056925 
L 82.626573 209.947228 
L 82.73767 209.371835 
L 82.757119 209.264207 
L 82.86805 208.713651 
L 82.868174 208.713651 
L 82.889489 208.603954 
L 83.00042 208.109281 
L 83.000586 208.109281 
L 83.025551 207.999584 
L 83.136564 207.480074 
L 83.162897 207.370377 
L 83.273828 206.817751 
L 83.273994 206.817751 
L 83.297756 206.712193 
L 83.297756 206.707019 
L 83.436762 206.012615 
L 83.461229 205.902917 
L 83.571828 205.391687 
L 83.572326 205.391687 
L 83.590696 205.284059 
L 83.590696 205.28199 
L 83.701544 204.84734 
L 83.731734 204.737643 
L 83.842167 204.259528 
L 83.842831 204.259528 
L 83.871155 204.151901 
L 83.871155 204.149831 
L 83.981961 203.566159 
L 83.982251 203.566159 
L 84.008875 203.456462 
L 84.11993 202.936952 
L 84.139296 202.827255 
L 84.250144 202.311884 
L 84.250393 202.311884 
L 84.275689 202.204257 
L 84.385832 201.705445 
L 84.386786 201.705445 
L 84.407189 201.595748 
L 84.517871 201.063819 
L 84.518203 201.063819 
L 84.543789 200.954122 
L 84.654679 200.436682 
L 84.654762 200.436682 
L 84.677943 200.326985 
L 84.788791 199.828173 
L 84.78904 199.828173 
L 84.813465 199.72158 
L 84.813465 199.720545 
L 84.924189 199.275547 
L 84.924479 199.275547 
L 84.949444 199.16585 
L 85.060043 198.635991 
L 85.060291 198.635991 
L 85.086832 198.526294 
L 85.197348 198.064738 
L 85.197804 198.064738 
L 85.228201 197.95504 
L 85.338552 197.532809 
L 85.339298 197.532809 
L 85.362314 197.423112 
L 85.472996 196.959486 
L 85.47341 196.959486 
L 85.498126 196.849789 
L 85.608891 196.346837 
L 85.608974 196.346837 
L 85.638127 196.23714 
L 85.749016 195.754886 
L 85.749203 195.754886 
L 85.774479 195.645189 
L 85.885327 195.162935 
L 85.885575 195.162935 
L 85.912406 195.055307 
L 86.023461 194.60203 
L 86.0556 194.492332 
L 86.166572 193.99559 
L 86.166697 193.99559 
L 86.188676 193.885893 
L 86.299316 193.457453 
L 86.323203 193.347755 
L 86.434299 192.882059 
L 86.46001 192.772362 
L 86.568329 192.314945 
L 86.571107 192.314945 
L 86.603909 192.205248 
L 86.714965 191.747831 
L 86.733585 191.638134 
L 86.844681 191.217973 
L 86.877442 191.108275 
L 86.988497 190.667417 
L 86.988539 190.667417 
L 87.010269 190.559789 
L 87.120412 190.218279 
L 87.121366 190.218279 
L 87.149814 190.108581 
L 87.260247 189.686351 
L 87.260827 189.686351 
L 87.290437 189.576653 
L 87.401533 189.115097 
L 87.428737 189.0054 
L 87.539751 188.603866 
L 87.566996 188.494169 
L 87.676766 188.007775 
L 87.678093 188.007775 
L 87.72006 187.898078 
L 87.830659 187.529661 
L 87.831157 187.529661 
L 87.854255 187.419964 
L 87.964772 187.068105 
L 87.965352 187.068105 
L 88.00085 186.958407 
L 88.00085 186.957372 
L 88.131893 186.461665 
L 88.16453 186.351968 
L 88.275212 185.960783 
L 88.275627 185.960783 
L 88.309673 185.851086 
L 88.42077 185.443343 
L 88.458673 185.333646 
L 88.569355 184.979717 
L 88.56977 184.979717 
L 88.604604 184.87002 
L 88.720179 184.422952 
L 88.747839 184.313254 
L 88.858853 183.926209 
L 88.887011 183.816512 
L 88.998066 183.431537 
L 89.029127 183.32184 
L 89.140058 182.97205 
L 89.140224 182.97205 
L 89.17539 182.862353 
L 89.286403 182.446331 
L 89.286466 182.446331 
L 89.325177 182.336634 
L 89.434615 181.947519 
L 89.436233 181.947519 
L 89.470196 181.837822 
L 89.581293 181.481823 
L 89.625188 181.372126 
L 89.740494 180.947825 
L 89.77931 180.838128 
L 89.888416 180.457292 
L 89.890365 180.457292 
L 89.932249 180.347595 
L 90.043304 179.977108 
L 90.043346 179.977108 
L 90.075941 179.867411 
L 90.186291 179.534179 
L 90.18683 179.534179 
L 90.225521 179.424482 
L 90.336327 179.043646 
L 90.336618 179.043646 
L 90.369586 178.933949 
L 90.480683 178.58416 
L 90.513983 178.474462 
L 90.624872 178.130882 
L 90.625079 178.130882 
L 90.658545 178.021185 
L 90.769103 177.681745 
L 90.769642 177.681745 
L 90.798919 177.572047 
L 90.908357 177.269862 
L 90.909933 177.269862 
L 90.94315 177.160165 
L 91.053791 176.889027 
L 91.054247 176.889027 
L 91.088501 176.779329 
L 91.198436 176.412982 
L 91.199431 176.412982 
L 91.242726 176.303285 
L 91.353739 176.021797 
L 91.353802 176.021797 
L 91.390606 175.9121 
L 91.500707 175.531264 
L 91.501661 175.531264 
L 91.54002 175.421567 
L 91.651013 175.121452 
L 91.651117 175.121452 
L 91.687817 175.01072 
L 91.797463 174.682663 
L 91.798873 174.682663 
L 91.832214 174.572966 
L 91.942813 174.198339 
L 91.943311 174.198339 
L 91.978643 174.088642 
L 92.089325 173.778178 
L 92.089698 173.778178 
L 92.127601 173.668481 
L 92.237454 173.333179 
L 92.238325 173.333179 
L 92.283236 173.223482 
L 92.393877 172.910949 
L 92.394291 172.910949 
L 92.433563 172.801251 
L 92.544286 172.515624 
L 92.544639 172.515624 
L 92.584885 172.405927 
L 92.69594 172.089254 
L 92.695982 172.089254 
L 92.743506 171.979557 
L 92.861113 171.654604 
L 92.893418 171.544907 
L 93.003105 171.224094 
L 93.004514 171.224094 
L 93.048016 171.114397 
L 93.164877 170.826701 
L 93.212401 170.717003 
L 93.323394 170.383772 
L 93.323498 170.383772 
L 93.364345 170.274075 
L 93.364345 170.27304 
L 93.488671 169.944983 
L 93.522053 169.835286 
L 93.63203 169.520682 
L 93.633109 169.520682 
L 93.68055 169.410985 
L 93.791315 169.119149 
L 93.791646 169.119149 
L 93.822126 169.009452 
L 93.930445 168.667941 
L 93.933182 168.667941 
L 93.971002 168.558244 
L 94.088319 168.243641 
L 94.126388 168.136013 
L 94.126388 168.133943 
L 94.237153 167.806921 
L 94.237277 167.806921 
L 94.282438 167.697224 
L 94.393078 167.403318 
L 94.393451 167.403318 
L 94.43828 167.293621 
L 94.555473 166.989366 
L 94.596279 166.879669 
L 94.707126 166.540228 
L 94.707209 166.540228 
L 94.745693 166.431566 
L 94.745693 166.430531 
L 94.855297 166.142834 
L 94.85679 166.142834 
L 94.911654 166.032102 
L 95.022004 165.737162 
L 95.022543 165.737162 
L 95.059575 165.627464 
L 95.169138 165.339768 
L 95.170506 165.339768 
L 95.208658 165.23007 
L 95.319548 164.967211 
L 95.319755 164.967211 
L 95.368025 164.857514 
L 95.490692 164.569817 
L 95.536184 164.46012 
L 95.646182 164.195191 
L 95.647281 164.195191 
L 95.694183 164.085493 
L 95.805114 163.872308 
L 95.805279 163.872308 
L 95.852389 163.762611 
L 95.968876 163.493542 
L 96.01499 163.383845 
L 96.125341 163.149962 
L 96.126004 163.149962 
L 96.16681 163.040265 
L 96.277326 162.793963 
L 96.277865 162.793963 
L 96.333227 162.684266 
L 96.443163 162.464872 
L 96.444282 162.464872 
L 96.49446 162.355174 
L 96.605433 162.086106 
L 96.655113 161.976408 
L 96.764468 161.69906 
L 96.766168 161.69906 
L 96.819788 161.589363 
L 96.93047 161.324434 
L 96.930885 161.324434 
L 96.975423 161.214737 
L 97.084364 160.968435 
L 97.08652 160.968435 
L 97.131763 160.858738 
L 97.242487 160.591739 
L 97.24286 160.591739 
L 97.287854 160.482042 
L 97.397707 160.217113 
L 97.398951 160.217113 
L 97.455847 160.107415 
L 97.566654 159.871463 
L 97.566902 159.871463 
L 97.617163 159.761765 
L 97.732946 159.525813 
L 97.796602 159.416116 
L 97.796602 159.415081 
L 97.916449 159.198791 
L 97.957545 159.089094 
L 98.068559 158.830374 
L 98.068641 158.830374 
L 98.121556 158.720676 
L 98.232404 158.478514 
L 98.232653 158.478514 
L 98.279845 158.368817 
L 98.39596 158.103888 
L 98.440871 157.993156 
L 98.550848 157.756168 
L 98.551927 157.756168 
L 98.608201 157.646471 
L 98.718924 157.414658 
L 98.719297 157.414658 
L 98.776028 157.304961 
L 98.8853 157.05452 
L 98.887041 157.05452 
L 98.946426 156.944823 
L 99.057357 156.764753 
L 99.057522 156.764753 
L 99.102683 156.655056 
L 99.212162 156.427383 
L 99.213738 156.427383 
L 99.261013 156.317685 
L 99.371529 156.083803 
L 99.372068 156.083803 
L 99.422122 155.974105 
L 99.535624 155.734013 
L 99.591442 155.624316 
L 99.70681 155.411131 
L 99.771419 155.301433 
L 99.887326 155.057202 
L 99.942605 154.947504 
L 100.052582 154.711552 
L 100.05366 154.711552 
L 100.111884 154.601855 
L 100.222524 154.38039 
L 100.222773 154.38039 
L 100.282033 154.270693 
L 100.390869 154.04302 
L 100.393088 154.04302 
L 100.450834 153.933322 
L 100.560542 153.709788 
L 100.561869 153.709788 
L 100.627142 153.602161 
L 100.732018 153.417952 
L 100.738238 153.417952 
L 100.795383 153.308255 
L 100.905029 153.080581 
L 100.906459 153.080581 
L 100.960183 152.970884 
L 101.071197 152.74735 
L 101.071238 152.74735 
L 101.11221 152.637653 
L 101.222187 152.441026 
L 101.223058 152.441026 
L 101.274356 152.331328 
L 101.383669 152.138841 
L 101.385411 152.138841 
L 101.433516 152.029143 
L 101.544612 151.831481 
L 101.664749 151.606912 
L 101.724299 151.497215 
L 101.834028 151.323355 
L 101.835396 151.323355 
L 101.895029 151.213658 
L 102.004965 151.006682 
L 102.006126 151.006682 
L 102.061073 150.896985 
L 102.174285 150.6838 
L 102.231844 150.574102 
L 102.342485 150.394033 
L 102.342941 150.394033 
L 102.408504 150.284336 
L 102.51732 150.050453 
L 102.519601 150.050453 
L 102.579856 149.940756 
L 102.690953 149.777245 
L 102.754028 149.667548 
L 102.865 149.460572 
L 102.865124 149.460572 
L 102.929858 149.350874 
L 103.038467 149.177015 
L 103.040914 149.177015 
L 103.102827 149.067317 
L 103.213675 148.87069 
L 103.213903 148.87069 
L 103.278202 148.760993 
L 103.388096 148.560226 
L 103.389257 148.560226 
L 103.444764 148.450529 
L 103.557208 148.287018 
L 103.633056 148.177321 
L 103.742743 148.0076 
L 103.744153 148.0076 
L 103.804532 147.896868 
L 103.914509 147.703346 
L 103.915629 147.703346 
L 103.964231 147.593648 
L 104.075038 147.415649 
L 104.075328 147.415649 
L 104.14255 147.305952 
L 104.251863 147.14658 
L 104.253647 147.14658 
L 104.325845 147.036883 
L 104.440425 146.860954 
L 104.495621 146.751256 
L 104.605681 146.515304 
L 104.606469 146.515304 
L 104.688724 146.404572 
L 104.803822 146.20484 
L 104.879794 146.095142 
L 104.989979 145.950259 
L 104.990891 145.950259 
L 105.058569 145.840562 
L 105.167966 145.631516 
L 105.169666 145.631516 
L 105.235602 145.521819 
L 105.346035 145.350029 
L 105.346657 145.350029 
L 105.440918 145.240332 
L 105.550107 145.056123 
L 105.552014 145.056123 
L 105.612933 144.946426 
L 105.721624 144.793264 
L 105.723947 144.793264 
L 105.801702 144.683566 
L 105.912011 144.515916 
L 105.912799 144.515916 
L 105.983836 144.406219 
L 106.094808 144.213731 
L 106.156515 144.104034 
L 106.266989 143.901197 
L 106.26757 143.901197 
L 106.337612 143.7915 
L 106.448501 143.607291 
L 106.448667 143.607291 
L 106.515391 143.497594 
L 106.624249 143.319595 
L 106.626405 143.319595 
L 106.708971 143.209897 
L 106.820026 143.042247 
L 106.820047 143.042247 
L 106.904873 142.93255 
L 107.015223 142.773178 
L 107.015804 142.773178 
L 107.094678 142.663481 
L 107.204821 142.473063 
L 107.205734 142.473063 
L 107.286475 142.363366 
L 107.395788 142.193645 
L 107.397488 142.193645 
L 107.480137 142.083948 
L 107.589451 141.930786 
L 107.591151 141.930786 
L 107.661068 141.821089 
L 107.768765 141.659647 
L 107.772124 141.659647 
L 107.844529 141.54995 
L 107.954714 141.398858 
L 107.955128 141.398858 
L 108.042836 141.289161 
L 108.156774 141.148417 
L 108.244502 141.03872 
L 108.355392 140.877278 
L 108.355475 140.877278 
L 108.436216 140.767581 
L 108.546981 140.622698 
L 108.547271 140.622698 
L 108.636638 140.513001 
L 108.746573 140.34949 
L 108.747361 140.34949 
L 108.837474 140.239792 
L 108.945461 140.09077 
L 108.948488 140.09077 
L 109.032132 139.981072 
L 109.134603 139.838259 
L 109.143187 139.838259 
L 109.225836 139.728562 
L 109.336476 139.552632 
L 109.336933 139.552632 
L 109.423148 139.4419 
L 109.53242 139.283563 
L 109.534244 139.283563 
L 109.603623 139.172831 
L 109.717208 139.049681 
L 109.836391 138.939983 
L 109.94699 138.786821 
L 109.947405 138.786821 
L 110.019396 138.677124 
L 110.130368 138.542589 
L 110.130492 138.542589 
L 110.223757 138.432892 
L 110.333319 138.27766 
L 110.334688 138.27766 
L 110.434132 138.167963 
L 110.434132 138.166928 
L 110.544461 138.027219 
L 110.545187 138.027219 
L 110.627545 137.917522 
L 110.738186 137.787127 
L 110.738642 137.787127 
L 110.828838 137.67743 
L 110.937239 137.522198 
L 110.939935 137.522198 
L 111.018105 137.412501 
L 111.12916 137.261408 
L 111.219646 137.151711 
L 111.328421 137.037874 
L 111.330743 137.037874 
L 111.426206 136.928177 
L 111.535893 136.760526 
L 111.537054 136.760526 
L 111.628826 136.652899 
L 111.737351 136.522504 
L 111.739881 136.522504 
L 111.809508 136.412807 
L 111.916209 136.274133 
L 111.920563 136.274133 
L 112.032821 136.164436 
L 112.142425 136.046459 
L 112.143918 136.046459 
L 112.244481 135.936762 
L 112.355578 135.7836 
L 112.481604 135.673903 
L 112.590668 135.52695 
L 112.5927 135.52695 
L 112.697618 135.417252 
L 112.807886 135.297206 
L 112.808715 135.297206 
L 112.902394 135.187509 
L 113.009842 135.046765 
L 113.01345 135.046765 
L 113.109451 134.937068 
L 113.221958 134.796324 
L 113.308463 134.686627 
L 113.421136 134.527256 
L 113.530532 134.417558 
L 113.640261 134.260257 
L 113.641588 134.260257 
L 113.7565 134.150559 
L 113.864113 134.020165 
L 113.867596 134.020165 
L 113.959078 133.910467 
L 114.069677 133.794561 
L 114.070175 133.794561 
L 114.171816 133.684864 
L 114.28225 133.568957 
L 114.282892 133.568957 
L 114.388163 133.45926 
L 114.499114 133.322656 
L 114.499135 133.322656 
L 114.5975 133.212958 
L 114.70756 133.049447 
L 114.708307 133.049447 
L 114.823302 132.93975 
L 114.936762 132.819704 
L 115.040768 132.710007 
L 115.150288 132.581682 
L 115.151864 132.581682 
L 115.245876 132.471984 
L 115.355542 132.356078 
L 115.356806 132.356078 
L 115.445592 132.246381 
L 115.556482 132.120125 
L 115.556689 132.120125 
L 115.653811 132.010428 
L 115.764659 131.877963 
L 115.764887 131.877963 
L 115.868747 131.768266 
L 115.978434 131.625453 
L 115.979553 131.625453 
L 116.090069 131.515755 
L 116.200669 131.430895 
L 116.201083 131.430895 
L 116.296504 131.321198 
L 116.406647 131.176315 
L 116.407601 131.176315 
L 116.500576 131.066618 
L 116.609101 130.936223 
L 116.611548 130.936223 
L 116.709789 130.826525 
L 116.820139 130.729247 
L 116.820886 130.729247 
L 116.924518 130.619549 
L 117.035366 130.505713 
L 117.035615 130.505713 
L 117.154508 130.396015 
L 117.264029 130.311155 
L 117.265604 130.311155 
L 117.394367 130.201458 
L 117.495014 130.09797 
L 117.505464 130.09797 
L 117.585624 129.988273 
L 117.695767 129.872366 
L 117.696659 129.872366 
L 117.794133 129.761634 
L 117.904359 129.648832 
L 117.90523 129.648832 
L 118.001646 129.539135 
L 118.111001 129.417019 
L 118.112743 129.417019 
L 118.231594 129.307322 
L 118.342027 129.176927 
L 118.342691 129.176927 
L 118.462662 129.06723 
L 118.57181 128.940974 
L 118.573759 128.940974 
L 118.691034 128.831277 
L 118.791681 128.744347 
L 118.802131 128.744347 
L 118.907547 128.63465 
L 119.0208 128.514604 
L 119.128454 128.404907 
L 119.235321 128.320047 
L 119.23951 128.320047 
L 119.374825 128.210349 
L 119.48418 128.084094 
L 119.485921 128.084094 
L 119.600792 127.974397 
L 119.707887 127.887467 
L 119.711826 127.887467 
L 119.812037 127.777769 
L 119.925041 127.670142 
L 120.023366 127.560445 
L 120.136743 127.440399 
L 120.245725 127.332771 
L 120.245725 127.329667 
L 120.356697 127.200307 
L 120.35678 127.200307 
L 120.511586 127.090609 
L 120.618909 127.005749 
L 120.622641 127.005749 
L 120.76231 126.896052 
L 120.868099 126.782215 
L 120.873407 126.782215 
L 121.003413 126.672518 
L 121.111027 126.556611 
L 121.114469 126.556611 
L 121.248208 126.446914 
L 121.359304 126.324798 
L 121.47799 126.215101 
L 121.578927 126.117822 
L 121.588879 126.117822 
L 121.699313 126.008125 
L 121.808543 125.923265 
L 121.810409 125.923265 
L 121.917649 125.813568 
L 122.027564 125.714219 
L 122.028746 125.714219 
L 122.152284 125.604522 
L 122.263173 125.492755 
L 122.26338 125.492755 
L 122.371906 125.383058 
L 122.485221 125.27336 
L 122.610355 125.163663 
L 122.610355 125.162628 
L 122.726511 125.037408 
L 122.859919 124.92771 
L 122.965168 124.840781 
L 122.970932 124.840781 
L 123.068137 124.731083 
L 123.178943 124.654502 
L 123.179234 124.654502 
L 123.321101 124.544805 
L 123.431948 124.437177 
L 123.432073 124.437177 
L 123.535539 124.32748 
L 123.646429 124.219853 
L 123.646636 124.219853 
L 123.76246 124.110155 
L 123.872976 123.996319 
L 123.873557 123.996319 
L 124.017 123.886621 
L 124.13017 123.783133 
L 124.296297 123.673436 
L 124.410877 123.559599 
L 124.531428 123.449902 
L 124.640949 123.352623 
L 124.642525 123.352623 
L 124.784019 123.242926 
L 124.894908 123.149787 
L 124.895116 123.149787 
L 125.048014 123.04009 
L 125.14837 122.963509 
L 125.15911 122.963509 
L 125.32814 122.853811 
L 125.4365 122.750323 
L 125.439237 122.750323 
L 125.582721 122.640626 
L 125.695684 122.547487 
L 125.816526 122.43779 
L 125.923102 122.365348 
L 125.92754 122.365348 
L 126.044401 122.255651 
L 126.156202 122.160442 
L 126.282062 122.050745 
L 126.388556 121.955536 
L 126.393076 121.955536 
L 126.542615 121.845838 
L 126.653338 121.765118 
L 126.653587 121.765118 
L 126.815152 121.65542 
L 126.926021 121.57263 
L 126.926249 121.57263 
L 127.051901 121.462933 
L 127.160966 121.369794 
L 127.162956 121.369794 
L 127.308597 121.260096 
L 127.42241 121.171097 
L 127.583229 121.060365 
L 127.695839 120.982749 
L 127.853299 120.873051 
L 127.966179 120.779912 
L 128.110534 120.670215 
L 128.218811 120.591564 
L 128.22163 120.591564 
L 128.398207 120.481867 
L 128.508807 120.415634 
L 128.509263 120.415634 
L 128.665561 120.305937 
L 128.774294 120.214868 
L 128.776409 120.214868 
L 128.904881 120.10517 
L 129.014278 120.014101 
L 129.015978 120.014101 
L 129.165061 119.904404 
L 129.275536 119.825753 
L 129.276116 119.825753 
L 129.447592 119.716056 
L 129.555869 119.641544 
L 129.558689 119.641544 
L 129.747417 119.531847 
L 129.846777 119.455266 
L 129.85843 119.455266 
L 129.991672 119.345569 
L 130.104324 119.268988 
L 130.310323 119.15929 
L 130.310323 119.158255 
L 130.425111 119.068221 
L 130.633453 118.958524 
L 130.745089 118.886082 
L 130.862696 118.776385 
L 130.972715 118.689455 
L 130.973669 118.689455 
L 131.197168 118.579758 
L 131.310898 118.490758 
L 131.485983 118.381061 
L 131.594508 118.318968 
L 131.596955 118.318968 
L 131.733431 118.208236 
L 131.837063 118.151317 
L 131.844528 118.151317 
L 132.011152 118.04162 
L 132.123617 117.971248 
L 132.304383 117.861551 
L 132.415396 117.795319 
L 132.598235 117.685621 
L 132.707051 117.594552 
L 132.709311 117.594552 
L 132.865547 117.484855 
L 132.978261 117.402064 
L 133.132777 117.292367 
L 133.245511 117.211646 
L 133.41029 117.101949 
L 133.510149 117.027438 
L 133.521346 117.027438 
L 133.70659 116.917741 
L 133.803918 116.849439 
L 133.817479 116.849439 
L 134.021592 116.739741 
L 134.13696 116.671439 
L 134.293424 116.561742 
L 134.407631 116.472742 
L 134.643551 116.363045 
L 134.751952 116.284394 
L 134.754606 116.284394 
L 134.964566 116.174697 
L 135.075538 116.102255 
L 135.075621 116.102255 
L 135.259953 115.992558 
L 135.375404 115.920116 
L 135.603279 115.810419 
L 135.715661 115.746257 
L 135.955935 115.636559 
L 136.062657 115.572397 
L 136.067032 115.572397 
L 136.2682 115.4627 
L 136.381951 115.396467 
L 136.612106 115.28677 
L 136.723162 115.214328 
L 136.922837 115.104631 
L 137.034473 115.046678 
L 137.202963 114.936981 
L 137.316507 114.876958 
L 137.498475 114.76726 
L 137.498475 114.766225 
L 137.611023 114.694819 
L 137.809952 114.585121 
L 137.917316 114.518889 
L 137.921049 114.518889 
L 138.121512 114.409192 
L 138.233894 114.34089 
L 138.447006 114.231193 
L 138.556278 114.173239 
L 138.558061 114.173239 
L 138.705817 114.063542 
L 138.811481 114.020077 
L 138.816914 114.020077 
L 139.074646 113.91038 
L 139.181472 113.864845 
L 139.18566 113.864845 
L 139.376586 113.755148 
L 139.485236 113.682706 
L 139.487641 113.682706 
L 139.624407 113.573009 
L 139.736333 113.525405 
L 139.950689 113.415707 
L 140.062573 113.376382 
L 140.280081 113.26565 
L 140.388358 113.21701 
L 140.391178 113.21701 
L 140.615196 113.107313 
L 140.724924 113.072127 
L 140.726251 113.072127 
L 140.930488 112.96243 
L 141.037769 112.898267 
L 141.041543 112.898267 
L 141.322478 112.78857 
L 141.434342 112.709919 
L 141.742709 112.600222 
L 141.851608 112.546408 
L 141.853764 112.546408 
L 142.121533 112.436711 
L 142.231758 112.393246 
L 142.232588 112.393246 
L 142.472323 112.283549 
L 142.584912 112.202828 
L 142.845507 112.093131 
L 142.956437 112.026899 
L 142.956562 112.026899 
L 143.178962 111.917201 
L 143.288608 111.84269 
L 143.289976 111.84269 
L 143.472691 111.732993 
L 143.580055 111.679179 
L 143.583705 111.679179 
L 143.824062 111.569482 
L 143.93578 111.534296 
L 144.171824 111.424598 
L 144.282092 111.350087 
L 144.282507 111.350087 
L 144.508142 111.24039 
L 144.6204 111.182437 
L 144.862001 111.071704 
L 144.972061 111.027205 
L 144.973015 111.027205 
L 145.191849 110.917507 
L 145.30336 110.874042 
L 145.513776 110.764345 
L 145.625993 110.704322 
L 145.866391 110.594625 
L 145.978421 110.54909 
L 146.295974 110.439393 
L 146.4079 110.395928 
L 146.717386 110.286231 
L 146.826036 110.238626 
L 146.828483 110.238626 
L 147.093141 110.128929 
L 147.203491 110.075115 
L 147.203989 110.075115 
L 147.460022 109.965418 
L 147.563156 109.899186 
L 147.571118 109.899186 
L 147.781078 109.789488 
L 147.886452 109.743954 
L 147.892175 109.743954 
L 148.165832 109.634256 
L 148.2795 109.572164 
L 148.480087 109.462466 
L 148.587908 109.423141 
L 148.591184 109.423141 
L 148.900422 109.313444 
L 149.013219 109.282397 
L 149.313748 109.1727 
L 149.413068 109.147863 
L 149.424803 109.147863 
L 149.722803 109.038166 
L 149.834854 108.990561 
L 150.183073 108.880864 
L 150.295123 108.82705 
L 150.612551 108.717353 
L 150.724457 108.684237 
L 151.046135 108.574539 
L 151.157978 108.533144 
L 151.458922 108.422412 
L 151.560896 108.377912 
L 151.570019 108.377912 
L 151.902189 108.268215 
L 152.0086 108.22682 
L 152.013203 108.22682 
L 152.279479 108.116088 
L 152.391032 108.081937 
L 152.733279 107.972239 
L 152.829944 107.937053 
L 152.844376 107.937053 
L 153.124191 107.827356 
L 153.235806 107.771473 
L 153.553877 107.661775 
L 153.667503 107.62245 
L 153.973506 107.512753 
L 154.08253 107.471358 
L 154.084562 107.471358 
L 154.423388 107.360625 
L 154.536952 107.322335 
L 154.899851 107.212638 
L 155.01128 107.179521 
L 155.393338 107.069824 
L 155.494814 107.01808 
L 155.504352 107.01808 
L 155.889313 106.908383 
L 155.990498 106.875267 
L 156.000368 106.875267 
L 156.272864 106.765569 
L 156.384583 106.734523 
L 156.78157 106.624826 
L 156.893745 106.599989 
L 157.232177 106.490291 
L 157.333736 106.442687 
L 157.343274 106.442687 
L 157.68237 106.33299 
L 157.794462 106.283315 
L 158.05489 106.173618 
L 158.163374 106.121874 
L 158.165987 106.121874 
L 158.594739 106.012177 
L 158.691405 105.979061 
L 158.705712 105.979061 
L 159.039458 105.869364 
L 159.145993 105.838317 
L 159.150513 105.838317 
L 159.433999 105.72862 
L 159.534852 105.689294 
L 159.544805 105.689294 
L 159.898913 105.579597 
L 160.011502 105.544411 
L 160.375812 105.434714 
L 160.487696 105.395389 
L 160.899322 105.285691 
L 161.009299 105.246366 
L 161.010419 105.246366 
L 161.410724 105.136669 
L 161.521157 105.095273 
L 161.52182 105.095273 
L 161.868712 104.985576 
L 161.979436 104.937972 
L 161.979768 104.937972 
L 162.36307 104.828274 
L 162.475328 104.801368 
L 162.878577 104.69167 
L 162.96672 104.652345 
L 162.989549 104.652345 
L 163.317822 104.542648 
L 163.424232 104.509531 
L 163.428877 104.509531 
L 163.876374 104.399834 
L 163.987968 104.374997 
L 164.36986 104.2653 
L 164.473368 104.232184 
L 164.480667 104.232184 
L 164.951387 104.122486 
L 165.063023 104.09558 
L 165.537267 103.985882 
L 165.648696 103.965185 
L 166.00749 103.855487 
L 166.114108 103.838929 
L 166.118586 103.838929 
L 166.519638 103.729232 
L 166.631191 103.698186 
L 167.209482 103.588488 
L 167.321284 103.57193 
L 167.721008 103.462233 
L 167.833225 103.435326 
L 168.292043 103.325629 
L 168.393975 103.290443 
L 168.403139 103.290443 
L 168.841016 103.180746 
L 168.923457 103.155909 
L 168.952029 103.155909 
L 169.354822 103.046211 
L 169.466334 103.025514 
L 169.913831 102.915817 
L 169.990881 102.895119 
L 170.024927 102.895119 
L 170.440203 102.785422 
L 170.542052 102.762654 
L 170.551216 102.762654 
L 171.016753 102.652957 
L 171.128347 102.62605 
L 171.522825 102.516353 
L 171.63415 102.487376 
L 172.220984 102.377679 
L 172.330588 102.361121 
L 172.332081 102.361121 
L 172.772363 102.251424 
L 172.884372 102.220377 
L 173.419203 102.11068 
L 173.530507 102.089982 
L 174.0349 101.980285 
L 174.140814 101.965797 
L 174.145956 101.965797 
L 174.696504 101.8561 
L 174.791843 101.837472 
L 174.807477 101.837472 
L 175.304281 101.727774 
L 175.410733 101.696728 
L 175.414838 101.696728 
L 175.962526 101.587031 
L 176.072461 101.564263 
L 176.07354 101.564263 
L 176.659545 101.454566 
L 176.659545 101.453531 
L 176.771305 101.438008 
L 177.339976 101.328311 
L 177.446137 101.303474 
L 177.451031 101.303474 
L 177.930418 101.193776 
L 177.985116 101.181358 
L 178.041515 101.181358 
L 178.55163 101.071661 
L 178.55163 101.070626 
L 178.663557 101.050963 
L 179.349669 100.941266 
L 179.429207 100.918498 
L 179.460724 100.918498 
L 180.006753 100.808801 
L 180.119218 100.792243 
L 180.715756 100.682546 
L 180.816734 100.661848 
L 180.826811 100.661848 
L 181.500358 100.552151 
L 181.61216 100.521105 
L 182.170049 100.411407 
L 182.278657 100.396919 
L 182.281146 100.396919 
L 183.031909 100.287222 
L 183.124552 100.270664 
L 183.143006 100.270664 
L 183.646113 100.160966 
L 183.757749 100.13199 
L 184.360798 100.022293 
L 184.467623 100.003665 
L 184.471853 100.003665 
L 185.016181 99.893967 
L 185.121348 99.86913 
L 185.127112 99.86913 
L 185.792241 99.759433 
L 185.881234 99.738735 
L 185.903338 99.738735 
L 186.570789 99.629038 
L 186.682342 99.606271 
L 187.312636 99.496574 
L 187.424189 99.469667 
L 187.991325 99.359969 
L 188.100763 99.328923 
L 188.102339 99.328923 
L 188.603415 99.219226 
L 188.704973 99.194389 
L 188.714511 99.194389 
L 189.478089 99.084691 
L 189.589559 99.063994 
L 190.201897 98.954297 
L 190.311335 98.92118 
L 190.312952 98.92118 
L 190.840485 98.811483 
L 190.94926 98.794925 
L 190.951499 98.794925 
L 191.510735 98.685228 
L 191.621604 98.674879 
L 192.326958 98.565182 
L 192.438511 98.542414 
L 193.131051 98.432717 
L 193.222616 98.40995 
L 193.241484 98.40995 
L 193.879202 98.300252 
L 193.988889 98.277485 
L 193.990174 98.277485 
L 194.454259 98.167788 
L 194.496848 98.157439 
L 194.565356 98.157439 
L 195.207967 98.047742 
L 195.315787 98.031184 
L 195.319022 98.031184 
L 195.824327 97.920452 
L 195.918753 97.900789 
L 195.935341 97.900789 
L 196.491861 97.791092 
L 196.576086 97.760045 
L 196.602958 97.760045 
L 197.13638 97.650348 
L 197.237524 97.63379 
L 197.247476 97.63379 
L 197.718653 97.524093 
L 197.79703 97.493046 
L 197.829542 97.493046 
L 198.355292 97.383349 
L 198.466264 97.362651 
L 198.466347 97.362651 
L 198.977666 97.252954 
L 198.977666 97.251919 
L 199.09038 97.211559 
L 199.509677 97.101862 
L 199.61418 97.062536 
L 199.620733 97.062536 
L 199.971398 96.952839 
L 200.06089 96.930072 
L 200.082454 96.930072 
L 200.433037 96.820374 
L 200.542309 96.791398 
L 200.544133 96.791398 
L 200.8542 96.6817 
L 200.962975 96.638235 
L 200.965173 96.638235 
L 201.359216 96.528538 
L 201.471266 96.489213 
L 201.777726 96.379516 
L 201.887412 96.348469 
L 201.888739 96.348469 
L 202.208842 96.238772 
L 202.318446 96.205656 
L 202.31969 96.205656 
L 202.587832 96.095958 
L 202.696274 96.046284 
L 202.698928 96.046284 
L 202.969641 95.936587 
L 203.076218 95.874494 
L 203.080696 95.874494 
L 203.33196 95.766867 
L 203.33196 95.764797 
L 203.437043 95.719262 
L 203.442932 95.719262 
L 203.680967 95.609565 
L 203.792685 95.56817 
L 204.004387 95.458472 
L 204.112871 95.373612 
L 204.115484 95.373612 
L 204.400006 95.263915 
L 204.400006 95.26288 
L 204.513383 95.208032 
L 204.693734 95.098334 
L 204.797615 95.040381 
L 204.804748 95.040381 
L 205.021923 94.930684 
L 205.12879 94.883079 
L 205.132688 94.883079 
L 205.330995 94.773382 
L 205.441512 94.690592 
L 205.442092 94.690592 
L 205.610375 94.580894 
L 205.715459 94.518802 
L 205.721389 94.518802 
L 205.885484 94.409104 
L 205.998612 94.303547 
L 206.146824 94.193849 
L 206.25535 94.09864 
L 206.257838 94.09864 
L 206.367317 93.988943 
L 206.476465 93.912362 
L 206.478414 93.912362 
L 206.625257 93.802665 
L 206.737598 93.738502 
L 206.883654 93.628805 
L 206.993631 93.537736 
L 206.994668 93.537736 
L 207.13301 93.428038 
L 207.242945 93.32869 
L 207.243982 93.32869 
L 207.372911 93.218993 
L 207.482846 93.123784 
L 207.483302 93.123784 
L 207.618119 93.014086 
L 207.72565 92.902319 
L 207.728843 92.902319 
L 207.852795 92.792622 
L 207.96385 92.687064 
L 208.092655 92.577367 
L 208.2023 92.480088 
L 208.203544 92.480088 
L 208.344291 92.370391 
L 208.455098 92.264833 
L 208.455388 92.264833 
L 208.572539 92.155136 
L 208.686 92.03716 
L 208.785153 91.927463 
L 208.891315 91.832254 
L 208.89625 91.832254 
L 209.019663 91.722556 
L 209.129433 91.598371 
L 209.13076 91.598371 
L 209.257283 91.488673 
L 209.368297 91.358279 
L 209.470146 91.248581 
L 209.58398 91.111977 
L 209.704946 91.00228 
L 209.814591 90.911211 
L 209.81596 90.911211 
L 209.896991 90.801513 
L 210.007756 90.689746 
L 210.008088 90.689746 
L 210.111057 90.580049 
L 210.223812 90.48484 
L 210.347764 90.375143 
L 210.458156 90.269585 
L 210.458612 90.269585 
L 210.577381 90.159888 
L 210.693122 90.046051 
L 210.805546 89.936354 
L 210.915689 89.803889 
L 210.916642 89.803889 
L 211.001572 89.694192 
L 211.108439 89.576216 
L 211.112627 89.576216 
L 211.198303 89.466518 
L 211.311909 89.340263 
L 211.415976 89.230566 
L 211.526949 89.120868 
L 211.622536 89.011171 
L 211.622536 89.010136 
L 211.755445 88.831102 
L 211.871809 88.721405 
L 211.982657 88.615847 
L 212.0996 88.50615 
L 212.209619 88.386104 
L 212.210697 88.386104 
L 212.292102 88.276406 
L 212.400918 88.187407 
L 212.402908 88.187407 
L 212.512761 88.07771 
L 212.621825 87.98457 
L 212.623816 87.98457 
L 212.717952 87.874873 
L 212.829048 87.742408 
L 212.928824 87.632711 
L 213.036479 87.529223 
L 213.039879 87.529223 
L 213.187054 87.419526 
L 213.295953 87.316038 
L 213.29811 87.316038 
L 213.431558 87.206341 
L 213.542655 87.096643 
L 213.674196 86.986946 
L 213.785168 86.842063 
L 213.785293 86.842063 
L 213.905471 86.732366 
L 214.014702 86.639227 
L 214.016527 86.639227 
L 214.162541 86.529529 
L 214.27202 86.43846 
L 214.273637 86.43846 
L 214.416956 86.328763 
L 214.527513 86.239763 
L 214.528011 86.239763 
L 214.646116 86.130066 
L 214.752485 86.045206 
L 214.75713 86.045206 
L 214.893398 85.935508 
L 215.004205 85.848578 
L 215.004412 85.848578 
L 215.119117 85.738881 
L 215.229343 85.651951 
L 215.230089 85.651951 
L 215.372786 85.542254 
L 215.485334 85.467743 
L 215.679328 85.358045 
L 215.789263 85.281464 
L 215.790342 85.281464 
L 215.917155 85.171767 
L 216.007434 85.111744 
L 216.028045 85.111744 
L 216.1933 85.001012 
L 216.304314 84.935814 
L 216.304397 84.935814 
L 216.454641 84.826117 
L 216.564535 84.755745 
L 216.565655 84.755745 
L 216.753843 84.646048 
L 216.858927 84.592234 
L 216.86494 84.592234 
L 217.047406 84.482537 
L 217.151743 84.401816 
L 217.158461 84.401816 
L 217.317786 84.292119 
L 217.42598 84.225887 
L 217.428717 84.225887 
L 217.58825 84.11619 
L 217.700384 84.062376 
L 217.887245 83.952679 
L 217.992122 83.898865 
L 217.9983 83.898865 
L 218.192834 83.789168 
L 218.305382 83.708447 
L 218.448825 83.59875 
L 218.554987 83.540796 
L 218.55988 83.540796 
L 218.72808 83.431099 
L 218.837684 83.373146 
L 218.839094 83.373146 
L 219.086667 83.263449 
L 219.198759 83.213774 
L 219.431568 83.104077 
L 219.537274 83.060612 
L 219.542665 83.060612 
L 219.836932 82.950915 
L 219.945955 82.90331 
L 219.947863 82.90331 
L 220.157699 82.793613 
L 220.26046 82.739799 
L 220.268775 82.739799 
L 220.531919 82.632172 
L 220.639449 82.578358 
L 220.642891 82.578358 
L 220.931685 82.468661 
L 221.043777 82.416917 
L 221.309928 82.30722 
L 221.415509 82.253406 
L 221.420983 82.253406 
L 221.703432 82.143709 
L 221.808059 82.100244 
L 221.813989 82.100244 
L 222.094157 81.990546 
L 222.184519 81.95536 
L 222.205129 81.95536 
L 222.443496 81.845663 
L 222.555007 81.78978 
L 222.858937 81.680082 
L 222.966177 81.642827 
L 222.970013 81.642827 
L 223.18667 81.53313 
L 223.2891 81.487595 
L 223.297559 81.487595 
L 223.547123 81.377898 
L 223.651833 81.322014 
L 223.658219 81.322014 
L 223.984294 81.212317 
L 224.096012 81.154363 
L 224.32198 81.044666 
L 224.433823 80.992922 
L 224.667088 80.883225 
L 224.776817 80.848039 
L 224.777936 80.848039 
L 225.028122 80.738342 
L 225.141085 80.676249 
L 225.401927 80.566552 
L 225.508711 80.514808 
L 225.512983 80.514808 
L 225.706313 80.405111 
L 225.811107 80.332669 
L 225.81741 80.332669 
L 226.070291 80.222972 
L 226.181346 80.142251 
L 226.390767 80.032554 
L 226.501034 79.960112 
L 226.50149 79.960112 
L 226.723062 79.850415 
L 226.829431 79.784183 
L 226.834158 79.784183 
L 227.015297 79.674485 
L 227.121998 79.604114 
L 227.125938 79.604114 
L 227.347177 79.494416 
L 227.459186 79.446812 
L 227.676818 79.337115 
L 227.78891 79.285371 
L 227.981577 79.175673 
L 228.093296 79.097022 
L 228.286875 78.987325 
L 228.390591 78.929372 
L 228.397889 78.929372 
L 228.612203 78.819675 
L 228.612203 78.81864 
L 228.72612 78.749303 
L 228.938236 78.639606 
L 229.050826 78.565094 
L 229.233872 78.455397 
L 229.344057 78.399513 
L 229.344347 78.399513 
L 229.505663 78.289816 
L 229.615018 78.217375 
L 229.616594 78.217375 
L 229.80669 78.107677 
L 229.916874 78.041445 
L 229.917745 78.041445 
L 230.072799 77.931748 
L 230.18091 77.851027 
L 230.183896 77.851027 
L 230.349484 77.74133 
L 230.461451 77.677167 
L 230.632223 77.56747 
L 230.742946 77.505377 
L 230.743236 77.505377 
L 230.939387 77.39568 
L 231.049945 77.325308 
L 231.050442 77.325308 
L 231.234774 77.215611 
L 231.344336 77.1411 
L 231.345829 77.1411 
L 231.533893 77.031402 
L 231.637235 76.977589 
L 231.64499 76.977589 
L 231.824014 76.867891 
L 231.93482 76.79131 
L 231.935069 76.79131 
L 232.086598 76.681613 
L 232.191288 76.613311 
L 232.197654 76.613311 
L 232.389865 76.503614 
L 232.49922 76.45187 
L 232.50092 76.45187 
L 232.701134 76.342172 
L 232.815549 76.261452 
L 232.994365 76.151754 
L 233.107701 76.095871 
L 233.289254 75.986174 
L 233.405037 75.911662 
L 233.590551 75.801965 
L 233.702166 75.748151 
L 233.947582 75.638454 
L 234.058471 75.580501 
L 234.058637 75.580501 
L 234.286471 75.470803 
L 234.286471 75.469769 
L 234.401051 75.41492 
L 234.602717 75.305223 
L 234.714518 75.24313 
L 234.947287 75.133433 
L 235.048555 75.087898 
L 235.058176 75.087898 
L 235.258639 74.978201 
L 235.372432 74.911968 
L 235.653968 74.802271 
L 235.760047 74.750527 
L 235.765044 74.750527 
L 236.061198 74.64083 
L 236.172917 74.603574 
L 236.393866 74.493877 
L 236.495632 74.433854 
L 236.50488 74.433854 
L 236.832406 74.324157 
L 236.929983 74.266203 
L 236.943502 74.266203 
L 237.250003 74.156506 
L 237.360685 74.094413 
L 237.360893 74.094413 
L 237.577488 73.984716 
L 237.681825 73.932972 
L 237.688543 73.932972 
L 237.913867 73.823275 
L 238.025275 73.77774 
L 238.32429 73.668043 
L 238.435574 73.639066 
L 238.783212 73.529369 
L 238.894599 73.496253 
L 239.258162 73.386556 
L 239.368969 73.330672 
L 239.369217 73.330672 
L 239.698983 73.220975 
L 239.801163 73.185789 
L 239.809333 73.185789 
L 240.14424 73.076092 
L 240.250527 73.032627 
L 240.255088 73.032627 
L 240.632377 72.922929 
L 240.744138 72.889813 
L 241.110811 72.780116 
L 241.221202 72.751139 
L 241.221824 72.751139 
L 241.589907 72.641442 
L 241.69354 72.610396 
L 241.700921 72.610396 
L 242.044993 72.500698 
L 242.155302 72.465512 
L 242.15609 72.465512 
L 242.598362 72.355815 
L 242.708049 72.304071 
L 242.709459 72.304071 
L 243.051831 72.194374 
L 243.160107 72.163328 
L 243.162844 72.163328 
L 243.503267 72.05363 
L 243.610673 72.018444 
L 243.614322 72.018444 
L 243.953543 71.908747 
L 244.056014 71.877701 
L 244.064515 71.877701 
L 244.427352 71.768003 
L 244.538884 71.722469 
L 244.934337 71.612771 
L 245.046595 71.585865 
L 245.469791 71.476167 
L 245.565046 71.432702 
L 245.580887 71.432702 
L 245.924669 71.323005 
L 246.024818 71.294029 
L 246.035725 71.294029 
L 246.372457 71.184331 
L 246.4826 71.142936 
L 246.483512 71.142936 
L 246.910855 71.033239 
L 247.017431 71.006332 
L 247.021951 71.006332 
L 247.363224 70.896635 
L 247.474135 70.869728 
L 247.828989 70.760031 
L 247.940334 70.733124 
L 248.40247 70.623426 
L 248.51394 70.602729 
L 248.874932 70.493032 
L 248.984453 70.455776 
L 248.98578 70.455776 
L 249.384052 70.346079 
L 249.492744 70.306753 
L 249.495108 70.306753 
L 249.906277 70.197056 
L 250.002445 70.1598 
L 250.017333 70.1598 
L 250.524214 70.050103 
L 250.634937 70.023196 
L 250.635145 70.023196 
L 251.23724 69.913499 
L 251.341867 69.882452 
L 251.348337 69.882452 
L 251.793428 69.772755 
L 251.904732 69.752058 
L 252.284925 69.64236 
L 252.396477 69.611314 
L 252.7335 69.501617 
L 252.841196 69.458152 
L 252.844596 69.458152 
L 253.160221 69.348454 
L 253.271815 69.321548 
L 253.813074 69.21185 
L 253.924503 69.189083 
L 254.381082 69.079386 
L 254.492137 69.056618 
L 254.492158 69.056618 
L 254.99201 68.946921 
L 255.094232 68.911735 
L 255.103107 68.911735 
L 255.541149 68.802038 
L 255.653489 68.773061 
L 256.112473 68.663364 
L 256.201674 68.630248 
L 256.223446 68.630248 
L 256.769474 68.520551 
L 256.88252 68.491574 
L 257.301486 68.381877 
L 257.41308 68.35083 
L 257.881644 68.241133 
L 257.993238 68.212156 
L 258.51115 68.102459 
L 258.622206 68.077622 
L 259.286629 67.967925 
L 259.398763 67.943088 
L 259.92501 67.83339 
L 260.036605 67.806483 
L 260.5038 67.696786 
L 260.615684 67.671949 
L 261.082879 67.562252 
L 261.192234 67.527066 
L 261.193935 67.527066 
L 261.655573 67.417369 
L 261.767084 67.369764 
L 262.392817 67.260067 
L 262.500306 67.239369 
L 262.503914 67.239369 
L 263.225524 67.129672 
L 263.335211 67.108974 
L 263.336538 67.108974 
L 263.897329 66.999277 
L 264.009235 66.97858 
L 264.646683 66.868882 
L 264.759397 66.852324 
L 265.309987 66.742627 
L 265.421457 66.71986 
L 265.98963 66.610162 
L 266.100892 66.589465 
L 266.731726 66.479768 
L 266.843776 66.467349 
L 267.352317 66.357652 
L 267.352317 66.356617 
L 267.464616 66.345233 
L 268.229769 66.235536 
L 268.342027 66.208629 
L 269.156031 66.098932 
L 269.268662 66.074095 
L 269.925538 65.964397 
L 270.030456 65.949909 
L 270.036635 65.949909 
L 270.606032 65.840212 
L 270.718518 65.815375 
L 271.39729 65.705677 
L 271.505753 65.689119 
L 271.508345 65.689119 
L 272.344535 65.579422 
L 272.456047 65.567004 
L 273.288049 65.457306 
L 273.396201 65.42833 
L 273.399063 65.42833 
L 274.060708 65.318632 
L 274.166497 65.293795 
L 274.171763 65.293795 
L 274.971834 65.184098 
L 275.083262 65.16754 
L 275.69701 65.057843 
L 275.808625 65.045424 
L 276.595239 64.935727 
L 276.707289 64.912959 
L 277.496246 64.803262 
L 277.607965 64.772216 
L 278.355203 64.662519 
L 278.467088 64.643891 
L 279.20653 64.534193 
L 279.318705 64.519705 
L 280.028911 64.410008 
L 280.131962 64.401729 
L 280.1398 64.401729 
L 280.818365 64.292032 
L 280.930498 64.277543 
L 281.85929 64.167846 
L 281.970719 64.151288 
L 282.687933 64.041591 
L 282.79961 64.027102 
L 283.532666 63.917405 
L 283.644177 63.892568 
L 284.612987 63.782871 
L 284.725494 63.768382 
L 285.54999 63.658685 
L 285.662476 63.644197 
L 286.429391 63.5345 
L 286.540654 63.515872 
L 287.354658 63.406174 
L 287.46845 63.387547 
L 288.186536 63.277849 
L 288.299167 63.259222 
L 289.150245 63.149524 
L 289.261507 63.137106 
L 290.237678 63.027408 
L 290.34921 63.01499 
L 291.28219 62.905293 
L 291.394365 62.880456 
L 292.18299 62.769723 
L 292.283719 62.75834 
L 292.294066 62.75834 
L 293.127789 62.648642 
L 293.23901 62.636224 
L 294.286114 62.526527 
L 294.379462 62.505829 
L 294.39721 62.505829 
L 295.444605 62.396132 
L 295.557568 62.367155 
L 296.306257 62.257458 
L 296.417935 62.23883 
L 297.357425 62.129133 
L 297.468875 62.112575 
L 298.185322 62.002877 
L 298.297289 61.98218 
L 299.339625 61.872483 
L 299.447487 61.849715 
L 299.450721 61.849715 
L 300.459839 61.740018 
L 300.571434 61.733809 
L 301.53112 61.624111 
L 301.642217 61.619972 
L 302.591328 61.510275 
L 302.697905 61.489577 
L 302.702384 61.489577 
L 303.785483 61.37988 
L 303.898239 61.367461 
L 304.996682 61.257764 
L 305.107945 61.249485 
L 306.349084 61.139788 
L 306.461798 61.12323 
L 307.549916 61.013532 
L 307.660971 61.009393 
L 308.724331 60.899696 
L 308.836672 60.881068 
L 310.377967 60.77137 
L 310.48952 60.761022 
L 311.559018 60.650289 
L 311.671981 60.640976 
L 312.690139 60.533348 
L 312.760762 60.522999 
L 312.801236 60.522999 
L 313.828393 60.413302 
L 313.939904 60.409162 
L 315.190043 60.299465 
L 315.301389 60.287047 
L 316.340323 60.177349 
L 316.451586 60.16907 
L 317.393108 60.059373 
L 317.50435 60.046955 
L 318.712086 59.937257 
L 318.824137 59.924839 
L 319.803936 59.815141 
L 319.916297 59.802723 
L 320.940531 59.693026 
L 321.052374 59.680607 
L 322.653054 59.57091 
L 322.764483 59.562631 
L 324.178052 59.452934 
L 324.289896 59.436375 
L 325.468333 59.326678 
L 325.580467 59.316329 
L 326.74269 59.206632 
L 326.853911 59.198353 
L 328.193209 59.088656 
L 328.301154 59.076237 
L 328.30414 59.076237 
L 329.755613 58.96654 
L 329.852444 58.954121 
L 329.86671 58.954121 
L 331.519683 58.844424 
L 331.593125 58.836145 
L 331.630696 58.836145 
L 332.890207 58.726448 
L 333.002216 58.720239 
L 334.158882 58.610541 
L 334.26888 58.596053 
L 334.269938 58.596053 
L 335.668578 58.486356 
L 335.779883 58.476007 
L 337.272638 58.36631 
L 337.384253 58.358031 
L 338.878149 58.248333 
L 338.989288 58.235915 
L 340.770484 58.126218 
L 340.882576 58.115869 
L 342.443653 58.006172 
L 342.557735 57.995823 
L 343.822989 57.886125 
L 343.935019 57.869567 
L 345.304154 57.75987 
L 345.416081 57.753661 
L 346.824529 57.643964 
L 346.935957 57.627405 
L 348.871006 57.517708 
L 348.955189 57.507359 
L 348.981978 57.507359 
L 350.290837 57.397662 
L 350.402079 57.387313 
L 352.187153 57.277616 
L 352.301401 57.269337 
L 354.638496 57.15964 
L 354.749676 57.153431 
L 356.917658 57.043733 
L 357.029294 57.027175 
L 358.956919 56.917478 
L 358.956919 56.916443 
L 359.068306 56.909199 
L 360.837725 56.799502 
L 360.934287 56.791223 
L 360.948739 56.791223 
L 362.769207 56.681525 
L 362.881465 56.664967 
L 364.562803 56.55527 
L 364.674398 56.544921 
L 366.230415 56.435224 
L 366.341678 56.424875 
L 368.271045 56.315178 
L 368.382805 56.306899 
L 370.286046 56.197202 
L 370.301016 56.193062 
L 370.39708 56.193062 
L 372.557246 56.083365 
L 372.645037 56.068876 
L 372.668342 56.068876 
L 374.383437 55.959179 
L 374.416156 55.95297 
L 374.494533 55.95297 
L 376.684992 55.843273 
L 376.796255 55.832924 
L 379.230222 55.723227 
L 379.341402 55.717017 
L 381.968368 55.60732 
L 382.080004 55.599041 
L 384.442976 55.489344 
L 384.509534 55.483134 
L 384.553948 55.483134 
L 387.25896 55.373437 
L 387.370762 55.365158 
L 390.188011 55.255461 
L 390.299045 55.247182 
L 392.11292 55.137485 
L 392.168199 55.133345 
L 392.223975 55.133345 
L 394.930604 55.023648 
L 395.041701 55.017439 
L 397.841595 54.907741 
L 397.898408 54.901532 
L 397.952692 54.901532 
L 400.71715 54.791835 
L 400.828309 54.785625 
L 403.103822 54.675928 
L 403.215188 54.669719 
L 405.837074 54.560022 
L 405.941121 54.551743 
L 405.948046 54.551743 
L 408.689427 54.442045 
L 408.789451 54.433766 
L 408.800316 54.433766 
L 410.64944 54.324069 
L 410.760744 54.31372 
L 413.398783 54.204023 
L 413.494287 54.193674 
L 413.509672 54.193674 
L 414.72 54.14607 
L 414.72 54.144 
" clip-path="url(#p93a77d3159)" style="fill: none; stroke: #ff8c00; stroke-width: 1.5; stroke-linecap: square"/>
   </g>
   <g id="line2d_14">
    <path d="M 74.605714 307.584 
L 414.72 54.144 
" clip-path="url(#p93a77d3159)" style="fill: none; stroke-dasharray: 5.55,2.4; stroke-dashoffset: 0; stroke: #0000ff; stroke-width: 1.5"/>
   </g>
   <g id="patch_3">
    <path d="M 57.6 307.584 
L 57.6 41.472 
" style="fill: none; stroke: #000000; stroke-width: 0.8; stroke-linejoin: miter; stroke-linecap: square"/>
   </g>
   <g id="patch_4">
    <path d="M 414.72 307.584 
L 414.72 41.472 
" style="fill: none; stroke: #000000; stroke-width: 0.8; stroke-linejoin: miter; stroke-linecap: square"/>
   </g>
   <g id="patch_5">
    <path d="M 57.6 307.584 
L 414.72 307.584 
" style="fill: none; stroke: #000000; stroke-width: 0.8; stroke-linejoin: miter; stroke-linecap: square"/>
   </g>
   <g id="patch_6">
    <path d="M 57.6 41.472 
L 414.72 41.472 
" style="fill: none; stroke: #000000; stroke-width: 0.8; stroke-linejoin: miter; stroke-linecap: square"/>
   </g>
   <g id="text_15">
    <!-- ROC CURVE -->
    <g transform="translate(200.855625 35.472)scale(0.12 -0.12)">
     <defs>
      <path id="DejaVuSans-4f" d="M 2522 4238 
Q 1834 4238 1429 3725 
Q 1025 3213 1025 2328 
Q 1025 1447 1429 934 
Q 1834 422 2522 422 
Q 3209 422 3611 934 
Q 4013 1447 4013 2328 
Q 4013 3213 3611 3725 
Q 3209 4238 2522 4238 
z
M 2522 4750 
Q 3503 4750 4090 4092 
Q 4678 3434 4678 2328 
Q 4678 1225 4090 567 
Q 3503 -91 2522 -91 
Q 1538 -91 948 565 
Q 359 1222 359 2328 
Q 359 3434 948 4092 
Q 1538 4750 2522 4750 
z
" transform="scale(0.015625)"/>
      <path id="DejaVuSans-43" d="M 4122 4306 
L 4122 3641 
Q 3803 3938 3442 4084 
Q 3081 4231 2675 4231 
Q 1875 4231 1450 3742 
Q 1025 3253 1025 2328 
Q 1025 1406 1450 917 
Q 1875 428 2675 428 
Q 3081 428 3442 575 
Q 3803 722 4122 1019 
L 4122 359 
Q 3791 134 3420 21 
Q 3050 -91 2638 -91 
Q 1578 -91 968 557 
Q 359 1206 359 2328 
Q 359 3453 968 4101 
Q 1578 4750 2638 4750 
Q 3056 4750 3426 4639 
Q 3797 4528 4122 4306 
z
" transform="scale(0.015625)"/>
      <path id="DejaVuSans-55" d="M 556 4666 
L 1191 4666 
L 1191 1831 
Q 1191 1081 1462 751 
Q 1734 422 2344 422 
Q 2950 422 3222 751 
Q 3494 1081 3494 1831 
L 3494 4666 
L 4128 4666 
L 4128 1753 
Q 4128 841 3676 375 
Q 3225 -91 2344 -91 
Q 1459 -91 1007 375 
Q 556 841 556 1753 
L 556 4666 
z
" transform="scale(0.015625)"/>
      <path id="DejaVuSans-56" d="M 1831 0 
L 50 4666 
L 709 4666 
L 2188 738 
L 3669 4666 
L 4325 4666 
L 2547 0 
L 1831 0 
z
" transform="scale(0.015625)"/>
      <path id="DejaVuSans-45" d="M 628 4666 
L 3578 4666 
L 3578 4134 
L 1259 4134 
L 1259 2753 
L 3481 2753 
L 3481 2222 
L 1259 2222 
L 1259 531 
L 3634 531 
L 3634 0 
L 628 0 
L 628 4666 
z
" transform="scale(0.015625)"/>
     </defs>
     <use xlink:href="#DejaVuSans-52"/>
     <use xlink:href="#DejaVuSans-4f" x="69.482422"/>
     <use xlink:href="#DejaVuSans-43" x="148.193359"/>
     <use xlink:href="#DejaVuSans-20" x="218.017578"/>
     <use xlink:href="#DejaVuSans-43" x="249.804688"/>
     <use xlink:href="#DejaVuSans-55" x="319.628906"/>
     <use xlink:href="#DejaVuSans-52" x="392.822266"/>
     <use xlink:href="#DejaVuSans-56" x="456.804688"/>
     <use xlink:href="#DejaVuSans-45" x="525.212891"/>
    </g>
   </g>
   <g id="legend_1">
    <g id="patch_7">
     <path d="M 234.97 302.584 
L 407.72 302.584 
Q 409.72 302.584 409.72 300.584 
L 409.72 286.905875 
Q 409.72 284.905875 407.72 284.905875 
L 234.97 284.905875 
Q 232.97 284.905875 232.97 286.905875 
L 232.97 300.584 
Q 232.97 302.584 234.97 302.584 
z
" style="fill: #ffffff; opacity: 0.8; stroke: #cccccc; stroke-linejoin: miter"/>
    </g>
    <g id="line2d_15">
     <path d="M 236.97 293.004312 
L 246.97 293.004312 
L 256.97 293.004312 
" style="fill: none; stroke: #ff8c00; stroke-width: 1.5; stroke-linecap: square"/>
    </g>
    <g id="text_16">
     <!-- ROC curve (ROC AUC=0.86) -->
     <g transform="translate(264.97 296.504312)scale(0.1 -0.1)">
      <defs>
       <path id="DejaVuSans-63" d="M 3122 3366 
L 3122 2828 
Q 2878 2963 2633 3030 
Q 2388 3097 2138 3097 
Q 1578 3097 1268 2742 
Q 959 2388 959 1747 
Q 959 1106 1268 751 
Q 1578 397 2138 397 
Q 2388 397 2633 464 
Q 2878 531 3122 666 
L 3122 134 
Q 2881 22 2623 -34 
Q 2366 -91 2075 -91 
Q 1284 -91 818 406 
Q 353 903 353 1747 
Q 353 2603 823 3093 
Q 1294 3584 2113 3584 
Q 2378 3584 2631 3529 
Q 2884 3475 3122 3366 
z
" transform="scale(0.015625)"/>
       <path id="DejaVuSans-28" d="M 1984 4856 
Q 1566 4138 1362 3434 
Q 1159 2731 1159 2009 
Q 1159 1288 1364 580 
Q 1569 -128 1984 -844 
L 1484 -844 
Q 1016 -109 783 600 
Q 550 1309 550 2009 
Q 550 2706 781 3412 
Q 1013 4119 1484 4856 
L 1984 4856 
z
" transform="scale(0.015625)"/>
       <path id="DejaVuSans-41" d="M 2188 4044 
L 1331 1722 
L 3047 1722 
L 2188 4044 
z
M 1831 4666 
L 2547 4666 
L 4325 0 
L 3669 0 
L 3244 1197 
L 1141 1197 
L 716 0 
L 50 0 
L 1831 4666 
z
" transform="scale(0.015625)"/>
       <path id="DejaVuSans-3d" d="M 678 2906 
L 4684 2906 
L 4684 2381 
L 678 2381 
L 678 2906 
z
M 678 1631 
L 4684 1631 
L 4684 1100 
L 678 1100 
L 678 1631 
z
" transform="scale(0.015625)"/>
       <path id="DejaVuSans-29" d="M 513 4856 
L 1013 4856 
Q 1481 4119 1714 3412 
Q 1947 2706 1947 2009 
Q 1947 1309 1714 600 
Q 1481 -109 1013 -844 
L 513 -844 
Q 928 -128 1133 580 
Q 1338 1288 1338 2009 
Q 1338 2731 1133 3434 
Q 928 4138 513 4856 
z
" transform="scale(0.015625)"/>
      </defs>
      <use xlink:href="#DejaVuSans-52"/>
      <use xlink:href="#DejaVuSans-4f" x="69.482422"/>
      <use xlink:href="#DejaVuSans-43" x="148.193359"/>
      <use xlink:href="#DejaVuSans-20" x="218.017578"/>
      <use xlink:href="#DejaVuSans-63" x="249.804688"/>
      <use xlink:href="#DejaVuSans-75" x="304.785156"/>
      <use xlink:href="#DejaVuSans-72" x="368.164062"/>
      <use xlink:href="#DejaVuSans-76" x="409.277344"/>
      <use xlink:href="#DejaVuSans-65" x="468.457031"/>
      <use xlink:href="#DejaVuSans-20" x="529.980469"/>
      <use xlink:href="#DejaVuSans-28" x="561.767578"/>
      <use xlink:href="#DejaVuSans-52" x="600.78125"/>
      <use xlink:href="#DejaVuSans-4f" x="670.263672"/>
      <use xlink:href="#DejaVuSans-43" x="748.974609"/>
      <use xlink:href="#DejaVuSans-20" x="818.798828"/>
      <use xlink:href="#DejaVuSans-41" x="850.585938"/>
      <use xlink:href="#DejaVuSans-55" x="918.994141"/>
      <use xlink:href="#DejaVuSans-43" x="992.1875"/>
      <use xlink:href="#DejaVuSans-3d" x="1062.011719"/>
      <use xlink:href="#DejaVuSans-30" x="1145.800781"/>
      <use xlink:href="#DejaVuSans-2e" x="1209.423828"/>
      <use xlink:href="#DejaVuSans-38" x="1241.210938"/>
      <use xlink:href="#DejaVuSans-36" x="1304.833984"/>
      <use xlink:href="#DejaVuSans-29" x="1368.457031"/>
     </g>
    </g>
   </g>
  </g>
 </g>
 <defs>
  <clipPath id="p93a77d3159">
   <rect x="57.6" y="41.472" width="357.12" height="266.112"/>
  </clipPath>
 </defs>
</svg>
