<?xml version="1.0" encoding="utf-8" standalone="no"?>
<!DOCTYPE svg PUBLIC "-//W3C//DTD SVG 1.1//EN"
  "http://www.w3.org/Graphics/SVG/1.1/DTD/svg11.dtd">
<svg xmlns:xlink="http://www.w3.org/1999/xlink" width="460.8pt" height="345.6pt" viewBox="0 0 460.8 345.6" xmlns="http://www.w3.org/2000/svg" version="1.1">
 <metadata>
  <rdf:RDF xmlns:dc="http://purl.org/dc/elements/1.1/" xmlns:cc="http://creativecommons.org/ns#" xmlns:rdf="http://www.w3.org/1999/02/22-rdf-syntax-ns#">
   <cc:Work>
    <dc:type rdf:resource="http://purl.org/dc/dcmitype/StillImage"/>
    <dc:date>2022-05-21T17:15:18.713886</dc:date>
    <dc:format>image/svg+xml</dc:format>
    <dc:creator>
     <cc:Agent>
      <dc:title>Matplotlib v3.5.2, https://matplotlib.org/</dc:title>
     </cc:Agent>
    </dc:creator>
   </cc:Work>
  </rdf:RDF>
 </metadata>
 <defs>
  <style type="text/css">*{stroke-linejoin: round; stroke-linecap: butt}</style>
 </defs>
 <g id="figure_1">
  <g id="patch_1">
   <path d="M 0 345.6 
L 460.8 345.6 
L 460.8 0 
L 0 0 
z
" style="fill: #ffffff"/>
  </g>
  <g id="axes_1">
   <g id="patch_2">
    <path d="M 57.6 307.584 
L 414.72 307.584 
L 414.72 41.472 
L 57.6 41.472 
z
" style="fill: #ffffff"/>
   </g>
   <g id="matplotlib.axis_1">
    <g id="xtick_1">
     <g id="line2d_1">
      <defs>
       <path id="m9e291eab63" d="M 0 0 
L 0 3.5 
" style="stroke: #000000; stroke-width: 0.8"/>
      </defs>
      <g>
       <use xlink:href="#m9e291eab63" x="74.605714" y="307.584" style="stroke: #000000; stroke-width: 0.8"/>
      </g>
     </g>
     <g id="text_1">
      <!-- 0.0 -->
      <g transform="translate(66.654152 322.182437)scale(0.1 -0.1)">
       <defs>
        <path id="DejaVuSans-30" d="M 2034 4250 
Q 1547 4250 1301 3770 
Q 1056 3291 1056 2328 
Q 1056 1369 1301 889 
Q 1547 409 2034 409 
Q 2525 409 2770 889 
Q 3016 1369 3016 2328 
Q 3016 3291 2770 3770 
Q 2525 4250 2034 4250 
z
M 2034 4750 
Q 2819 4750 3233 4129 
Q 3647 3509 3647 2328 
Q 3647 1150 3233 529 
Q 2819 -91 2034 -91 
Q 1250 -91 836 529 
Q 422 1150 422 2328 
Q 422 3509 836 4129 
Q 1250 4750 2034 4750 
z
" transform="scale(0.015625)"/>
        <path id="DejaVuSans-2e" d="M 684 794 
L 1344 794 
L 1344 0 
L 684 0 
L 684 794 
z
" transform="scale(0.015625)"/>
       </defs>
       <use xlink:href="#DejaVuSans-30"/>
       <use xlink:href="#DejaVuSans-2e" x="63.623047"/>
       <use xlink:href="#DejaVuSans-30" x="95.410156"/>
      </g>
     </g>
    </g>
    <g id="xtick_2">
     <g id="line2d_2">
      <g>
       <use xlink:href="#m9e291eab63" x="142.628571" y="307.584" style="stroke: #000000; stroke-width: 0.8"/>
      </g>
     </g>
     <g id="text_2">
      <!-- 0.2 -->
      <g transform="translate(134.677009 322.182437)scale(0.1 -0.1)">
       <defs>
        <path id="DejaVuSans-32" d="M 1228 531 
L 3431 531 
L 3431 0 
L 469 0 
L 469 531 
Q 828 903 1448 1529 
Q 2069 2156 2228 2338 
Q 2531 2678 2651 2914 
Q 2772 3150 2772 3378 
Q 2772 3750 2511 3984 
Q 2250 4219 1831 4219 
Q 1534 4219 1204 4116 
Q 875 4013 500 3803 
L 500 4441 
Q 881 4594 1212 4672 
Q 1544 4750 1819 4750 
Q 2544 4750 2975 4387 
Q 3406 4025 3406 3419 
Q 3406 3131 3298 2873 
Q 3191 2616 2906 2266 
Q 2828 2175 2409 1742 
Q 1991 1309 1228 531 
z
" transform="scale(0.015625)"/>
       </defs>
       <use xlink:href="#DejaVuSans-30"/>
       <use xlink:href="#DejaVuSans-2e" x="63.623047"/>
       <use xlink:href="#DejaVuSans-32" x="95.410156"/>
      </g>
     </g>
    </g>
    <g id="xtick_3">
     <g id="line2d_3">
      <g>
       <use xlink:href="#m9e291eab63" x="210.651429" y="307.584" style="stroke: #000000; stroke-width: 0.8"/>
      </g>
     </g>
     <g id="text_3">
      <!-- 0.4 -->
      <g transform="translate(202.699866 322.182437)scale(0.1 -0.1)">
       <defs>
        <path id="DejaVuSans-34" d="M 2419 4116 
L 825 1625 
L 2419 1625 
L 2419 4116 
z
M 2253 4666 
L 3047 4666 
L 3047 1625 
L 3713 1625 
L 3713 1100 
L 3047 1100 
L 3047 0 
L 2419 0 
L 2419 1100 
L 313 1100 
L 313 1709 
L 2253 4666 
z
" transform="scale(0.015625)"/>
       </defs>
       <use xlink:href="#DejaVuSans-30"/>
       <use xlink:href="#DejaVuSans-2e" x="63.623047"/>
       <use xlink:href="#DejaVuSans-34" x="95.410156"/>
      </g>
     </g>
    </g>
    <g id="xtick_4">
     <g id="line2d_4">
      <g>
       <use xlink:href="#m9e291eab63" x="278.674286" y="307.584" style="stroke: #000000; stroke-width: 0.8"/>
      </g>
     </g>
     <g id="text_4">
      <!-- 0.6 -->
      <g transform="translate(270.722723 322.182437)scale(0.1 -0.1)">
       <defs>
        <path id="DejaVuSans-36" d="M 2113 2584 
Q 1688 2584 1439 2293 
Q 1191 2003 1191 1497 
Q 1191 994 1439 701 
Q 1688 409 2113 409 
Q 2538 409 2786 701 
Q 3034 994 3034 1497 
Q 3034 2003 2786 2293 
Q 2538 2584 2113 2584 
z
M 3366 4563 
L 3366 3988 
Q 3128 4100 2886 4159 
Q 2644 4219 2406 4219 
Q 1781 4219 1451 3797 
Q 1122 3375 1075 2522 
Q 1259 2794 1537 2939 
Q 1816 3084 2150 3084 
Q 2853 3084 3261 2657 
Q 3669 2231 3669 1497 
Q 3669 778 3244 343 
Q 2819 -91 2113 -91 
Q 1303 -91 875 529 
Q 447 1150 447 2328 
Q 447 3434 972 4092 
Q 1497 4750 2381 4750 
Q 2619 4750 2861 4703 
Q 3103 4656 3366 4563 
z
" transform="scale(0.015625)"/>
       </defs>
       <use xlink:href="#DejaVuSans-30"/>
       <use xlink:href="#DejaVuSans-2e" x="63.623047"/>
       <use xlink:href="#DejaVuSans-36" x="95.410156"/>
      </g>
     </g>
    </g>
    <g id="xtick_5">
     <g id="line2d_5">
      <g>
       <use xlink:href="#m9e291eab63" x="346.697143" y="307.584" style="stroke: #000000; stroke-width: 0.8"/>
      </g>
     </g>
     <g id="text_5">
      <!-- 0.8 -->
      <g transform="translate(338.74558 322.182437)scale(0.1 -0.1)">
       <defs>
        <path id="DejaVuSans-38" d="M 2034 2216 
Q 1584 2216 1326 1975 
Q 1069 1734 1069 1313 
Q 1069 891 1326 650 
Q 1584 409 2034 409 
Q 2484 409 2743 651 
Q 3003 894 3003 1313 
Q 3003 1734 2745 1975 
Q 2488 2216 2034 2216 
z
M 1403 2484 
Q 997 2584 770 2862 
Q 544 3141 544 3541 
Q 544 4100 942 4425 
Q 1341 4750 2034 4750 
Q 2731 4750 3128 4425 
Q 3525 4100 3525 3541 
Q 3525 3141 3298 2862 
Q 3072 2584 2669 2484 
Q 3125 2378 3379 2068 
Q 3634 1759 3634 1313 
Q 3634 634 3220 271 
Q 2806 -91 2034 -91 
Q 1263 -91 848 271 
Q 434 634 434 1313 
Q 434 1759 690 2068 
Q 947 2378 1403 2484 
z
M 1172 3481 
Q 1172 3119 1398 2916 
Q 1625 2713 2034 2713 
Q 2441 2713 2670 2916 
Q 2900 3119 2900 3481 
Q 2900 3844 2670 4047 
Q 2441 4250 2034 4250 
Q 1625 4250 1398 4047 
Q 1172 3844 1172 3481 
z
" transform="scale(0.015625)"/>
       </defs>
       <use xlink:href="#DejaVuSans-30"/>
       <use xlink:href="#DejaVuSans-2e" x="63.623047"/>
       <use xlink:href="#DejaVuSans-38" x="95.410156"/>
      </g>
     </g>
    </g>
    <g id="xtick_6">
     <g id="line2d_6">
      <g>
       <use xlink:href="#m9e291eab63" x="414.72" y="307.584" style="stroke: #000000; stroke-width: 0.8"/>
      </g>
     </g>
     <g id="text_6">
      <!-- 1.0 -->
      <g transform="translate(406.768438 322.182437)scale(0.1 -0.1)">
       <defs>
        <path id="DejaVuSans-31" d="M 794 531 
L 1825 531 
L 1825 4091 
L 703 3866 
L 703 4441 
L 1819 4666 
L 2450 4666 
L 2450 531 
L 3481 531 
L 3481 0 
L 794 0 
L 794 531 
z
" transform="scale(0.015625)"/>
       </defs>
       <use xlink:href="#DejaVuSans-31"/>
       <use xlink:href="#DejaVuSans-2e" x="63.623047"/>
       <use xlink:href="#DejaVuSans-30" x="95.410156"/>
      </g>
     </g>
    </g>
    <g id="text_7">
     <!-- False Positive Rate -->
     <g transform="translate(189.693594 335.860562)scale(0.1 -0.1)">
      <defs>
       <path id="DejaVuSans-46" d="M 628 4666 
L 3309 4666 
L 3309 4134 
L 1259 4134 
L 1259 2759 
L 3109 2759 
L 3109 2228 
L 1259 2228 
L 1259 0 
L 628 0 
L 628 4666 
z
" transform="scale(0.015625)"/>
       <path id="DejaVuSans-61" d="M 2194 1759 
Q 1497 1759 1228 1600 
Q 959 1441 959 1056 
Q 959 750 1161 570 
Q 1363 391 1709 391 
Q 2188 391 2477 730 
Q 2766 1069 2766 1631 
L 2766 1759 
L 2194 1759 
z
M 3341 1997 
L 3341 0 
L 2766 0 
L 2766 531 
Q 2569 213 2275 61 
Q 1981 -91 1556 -91 
Q 1019 -91 701 211 
Q 384 513 384 1019 
Q 384 1609 779 1909 
Q 1175 2209 1959 2209 
L 2766 2209 
L 2766 2266 
Q 2766 2663 2505 2880 
Q 2244 3097 1772 3097 
Q 1472 3097 1187 3025 
Q 903 2953 641 2809 
L 641 3341 
Q 956 3463 1253 3523 
Q 1550 3584 1831 3584 
Q 2591 3584 2966 3190 
Q 3341 2797 3341 1997 
z
" transform="scale(0.015625)"/>
       <path id="DejaVuSans-6c" d="M 603 4863 
L 1178 4863 
L 1178 0 
L 603 0 
L 603 4863 
z
" transform="scale(0.015625)"/>
       <path id="DejaVuSans-73" d="M 2834 3397 
L 2834 2853 
Q 2591 2978 2328 3040 
Q 2066 3103 1784 3103 
Q 1356 3103 1142 2972 
Q 928 2841 928 2578 
Q 928 2378 1081 2264 
Q 1234 2150 1697 2047 
L 1894 2003 
Q 2506 1872 2764 1633 
Q 3022 1394 3022 966 
Q 3022 478 2636 193 
Q 2250 -91 1575 -91 
Q 1294 -91 989 -36 
Q 684 19 347 128 
L 347 722 
Q 666 556 975 473 
Q 1284 391 1588 391 
Q 1994 391 2212 530 
Q 2431 669 2431 922 
Q 2431 1156 2273 1281 
Q 2116 1406 1581 1522 
L 1381 1569 
Q 847 1681 609 1914 
Q 372 2147 372 2553 
Q 372 3047 722 3315 
Q 1072 3584 1716 3584 
Q 2034 3584 2315 3537 
Q 2597 3491 2834 3397 
z
" transform="scale(0.015625)"/>
       <path id="DejaVuSans-65" d="M 3597 1894 
L 3597 1613 
L 953 1613 
Q 991 1019 1311 708 
Q 1631 397 2203 397 
Q 2534 397 2845 478 
Q 3156 559 3463 722 
L 3463 178 
Q 3153 47 2828 -22 
Q 2503 -91 2169 -91 
Q 1331 -91 842 396 
Q 353 884 353 1716 
Q 353 2575 817 3079 
Q 1281 3584 2069 3584 
Q 2775 3584 3186 3129 
Q 3597 2675 3597 1894 
z
M 3022 2063 
Q 3016 2534 2758 2815 
Q 2500 3097 2075 3097 
Q 1594 3097 1305 2825 
Q 1016 2553 972 2059 
L 3022 2063 
z
" transform="scale(0.015625)"/>
       <path id="DejaVuSans-20" transform="scale(0.015625)"/>
       <path id="DejaVuSans-50" d="M 1259 4147 
L 1259 2394 
L 2053 2394 
Q 2494 2394 2734 2622 
Q 2975 2850 2975 3272 
Q 2975 3691 2734 3919 
Q 2494 4147 2053 4147 
L 1259 4147 
z
M 628 4666 
L 2053 4666 
Q 2838 4666 3239 4311 
Q 3641 3956 3641 3272 
Q 3641 2581 3239 2228 
Q 2838 1875 2053 1875 
L 1259 1875 
L 1259 0 
L 628 0 
L 628 4666 
z
" transform="scale(0.015625)"/>
       <path id="DejaVuSans-6f" d="M 1959 3097 
Q 1497 3097 1228 2736 
Q 959 2375 959 1747 
Q 959 1119 1226 758 
Q 1494 397 1959 397 
Q 2419 397 2687 759 
Q 2956 1122 2956 1747 
Q 2956 2369 2687 2733 
Q 2419 3097 1959 3097 
z
M 1959 3584 
Q 2709 3584 3137 3096 
Q 3566 2609 3566 1747 
Q 3566 888 3137 398 
Q 2709 -91 1959 -91 
Q 1206 -91 779 398 
Q 353 888 353 1747 
Q 353 2609 779 3096 
Q 1206 3584 1959 3584 
z
" transform="scale(0.015625)"/>
       <path id="DejaVuSans-69" d="M 603 3500 
L 1178 3500 
L 1178 0 
L 603 0 
L 603 3500 
z
M 603 4863 
L 1178 4863 
L 1178 4134 
L 603 4134 
L 603 4863 
z
" transform="scale(0.015625)"/>
       <path id="DejaVuSans-74" d="M 1172 4494 
L 1172 3500 
L 2356 3500 
L 2356 3053 
L 1172 3053 
L 1172 1153 
Q 1172 725 1289 603 
Q 1406 481 1766 481 
L 2356 481 
L 2356 0 
L 1766 0 
Q 1100 0 847 248 
Q 594 497 594 1153 
L 594 3053 
L 172 3053 
L 172 3500 
L 594 3500 
L 594 4494 
L 1172 4494 
z
" transform="scale(0.015625)"/>
       <path id="DejaVuSans-76" d="M 191 3500 
L 800 3500 
L 1894 563 
L 2988 3500 
L 3597 3500 
L 2284 0 
L 1503 0 
L 191 3500 
z
" transform="scale(0.015625)"/>
       <path id="DejaVuSans-52" d="M 2841 2188 
Q 3044 2119 3236 1894 
Q 3428 1669 3622 1275 
L 4263 0 
L 3584 0 
L 2988 1197 
Q 2756 1666 2539 1819 
Q 2322 1972 1947 1972 
L 1259 1972 
L 1259 0 
L 628 0 
L 628 4666 
L 2053 4666 
Q 2853 4666 3247 4331 
Q 3641 3997 3641 3322 
Q 3641 2881 3436 2590 
Q 3231 2300 2841 2188 
z
M 1259 4147 
L 1259 2491 
L 2053 2491 
Q 2509 2491 2742 2702 
Q 2975 2913 2975 3322 
Q 2975 3731 2742 3939 
Q 2509 4147 2053 4147 
L 1259 4147 
z
" transform="scale(0.015625)"/>
      </defs>
      <use xlink:href="#DejaVuSans-46"/>
      <use xlink:href="#DejaVuSans-61" x="48.394531"/>
      <use xlink:href="#DejaVuSans-6c" x="109.673828"/>
      <use xlink:href="#DejaVuSans-73" x="137.457031"/>
      <use xlink:href="#DejaVuSans-65" x="189.556641"/>
      <use xlink:href="#DejaVuSans-20" x="251.080078"/>
      <use xlink:href="#DejaVuSans-50" x="282.867188"/>
      <use xlink:href="#DejaVuSans-6f" x="339.544922"/>
      <use xlink:href="#DejaVuSans-73" x="400.726562"/>
      <use xlink:href="#DejaVuSans-69" x="452.826172"/>
      <use xlink:href="#DejaVuSans-74" x="480.609375"/>
      <use xlink:href="#DejaVuSans-69" x="519.818359"/>
      <use xlink:href="#DejaVuSans-76" x="547.601562"/>
      <use xlink:href="#DejaVuSans-65" x="606.78125"/>
      <use xlink:href="#DejaVuSans-20" x="668.304688"/>
      <use xlink:href="#DejaVuSans-52" x="700.091797"/>
      <use xlink:href="#DejaVuSans-61" x="767.324219"/>
      <use xlink:href="#DejaVuSans-74" x="828.603516"/>
      <use xlink:href="#DejaVuSans-65" x="867.8125"/>
     </g>
    </g>
   </g>
   <g id="matplotlib.axis_2">
    <g id="ytick_1">
     <g id="line2d_7">
      <defs>
       <path id="m30f4448234" d="M 0 0 
L -3.5 0 
" style="stroke: #000000; stroke-width: 0.8"/>
      </defs>
      <g>
       <use xlink:href="#m30f4448234" x="57.6" y="307.584" style="stroke: #000000; stroke-width: 0.8"/>
      </g>
     </g>
     <g id="text_8">
      <!-- 0.0 -->
      <g transform="translate(34.696875 311.383219)scale(0.1 -0.1)">
       <use xlink:href="#DejaVuSans-30"/>
       <use xlink:href="#DejaVuSans-2e" x="63.623047"/>
       <use xlink:href="#DejaVuSans-30" x="95.410156"/>
      </g>
     </g>
    </g>
    <g id="ytick_2">
     <g id="line2d_8">
      <g>
       <use xlink:href="#m30f4448234" x="57.6" y="256.896" style="stroke: #000000; stroke-width: 0.8"/>
      </g>
     </g>
     <g id="text_9">
      <!-- 0.2 -->
      <g transform="translate(34.696875 260.695219)scale(0.1 -0.1)">
       <use xlink:href="#DejaVuSans-30"/>
       <use xlink:href="#DejaVuSans-2e" x="63.623047"/>
       <use xlink:href="#DejaVuSans-32" x="95.410156"/>
      </g>
     </g>
    </g>
    <g id="ytick_3">
     <g id="line2d_9">
      <g>
       <use xlink:href="#m30f4448234" x="57.6" y="206.208" style="stroke: #000000; stroke-width: 0.8"/>
      </g>
     </g>
     <g id="text_10">
      <!-- 0.4 -->
      <g transform="translate(34.696875 210.007219)scale(0.1 -0.1)">
       <use xlink:href="#DejaVuSans-30"/>
       <use xlink:href="#DejaVuSans-2e" x="63.623047"/>
       <use xlink:href="#DejaVuSans-34" x="95.410156"/>
      </g>
     </g>
    </g>
    <g id="ytick_4">
     <g id="line2d_10">
      <g>
       <use xlink:href="#m30f4448234" x="57.6" y="155.52" style="stroke: #000000; stroke-width: 0.8"/>
      </g>
     </g>
     <g id="text_11">
      <!-- 0.6 -->
      <g transform="translate(34.696875 159.319219)scale(0.1 -0.1)">
       <use xlink:href="#DejaVuSans-30"/>
       <use xlink:href="#DejaVuSans-2e" x="63.623047"/>
       <use xlink:href="#DejaVuSans-36" x="95.410156"/>
      </g>
     </g>
    </g>
    <g id="ytick_5">
     <g id="line2d_11">
      <g>
       <use xlink:href="#m30f4448234" x="57.6" y="104.832" style="stroke: #000000; stroke-width: 0.8"/>
      </g>
     </g>
     <g id="text_12">
      <!-- 0.8 -->
      <g transform="translate(34.696875 108.631219)scale(0.1 -0.1)">
       <use xlink:href="#DejaVuSans-30"/>
       <use xlink:href="#DejaVuSans-2e" x="63.623047"/>
       <use xlink:href="#DejaVuSans-38" x="95.410156"/>
      </g>
     </g>
    </g>
    <g id="ytick_6">
     <g id="line2d_12">
      <g>
       <use xlink:href="#m30f4448234" x="57.6" y="54.144" style="stroke: #000000; stroke-width: 0.8"/>
      </g>
     </g>
     <g id="text_13">
      <!-- 1.0 -->
      <g transform="translate(34.696875 57.943219)scale(0.1 -0.1)">
       <use xlink:href="#DejaVuSans-31"/>
       <use xlink:href="#DejaVuSans-2e" x="63.623047"/>
       <use xlink:href="#DejaVuSans-30" x="95.410156"/>
      </g>
     </g>
    </g>
    <g id="text_14">
     <!-- True Positive Rate -->
     <g transform="translate(28.617187 219.057687)rotate(-90)scale(0.1 -0.1)">
      <defs>
       <path id="DejaVuSans-54" d="M -19 4666 
L 3928 4666 
L 3928 4134 
L 2272 4134 
L 2272 0 
L 1638 0 
L 1638 4134 
L -19 4134 
L -19 4666 
z
" transform="scale(0.015625)"/>
       <path id="DejaVuSans-72" d="M 2631 2963 
Q 2534 3019 2420 3045 
Q 2306 3072 2169 3072 
Q 1681 3072 1420 2755 
Q 1159 2438 1159 1844 
L 1159 0 
L 581 0 
L 581 3500 
L 1159 3500 
L 1159 2956 
Q 1341 3275 1631 3429 
Q 1922 3584 2338 3584 
Q 2397 3584 2469 3576 
Q 2541 3569 2628 3553 
L 2631 2963 
z
" transform="scale(0.015625)"/>
       <path id="DejaVuSans-75" d="M 544 1381 
L 544 3500 
L 1119 3500 
L 1119 1403 
Q 1119 906 1312 657 
Q 1506 409 1894 409 
Q 2359 409 2629 706 
Q 2900 1003 2900 1516 
L 2900 3500 
L 3475 3500 
L 3475 0 
L 2900 0 
L 2900 538 
Q 2691 219 2414 64 
Q 2138 -91 1772 -91 
Q 1169 -91 856 284 
Q 544 659 544 1381 
z
M 1991 3584 
L 1991 3584 
z
" transform="scale(0.015625)"/>
      </defs>
      <use xlink:href="#DejaVuSans-54"/>
      <use xlink:href="#DejaVuSans-72" x="46.333984"/>
      <use xlink:href="#DejaVuSans-75" x="87.447266"/>
      <use xlink:href="#DejaVuSans-65" x="150.826172"/>
      <use xlink:href="#DejaVuSans-20" x="212.349609"/>
      <use xlink:href="#DejaVuSans-50" x="244.136719"/>
      <use xlink:href="#DejaVuSans-6f" x="300.814453"/>
      <use xlink:href="#DejaVuSans-73" x="361.996094"/>
      <use xlink:href="#DejaVuSans-69" x="414.095703"/>
      <use xlink:href="#DejaVuSans-74" x="441.878906"/>
      <use xlink:href="#DejaVuSans-69" x="481.087891"/>
      <use xlink:href="#DejaVuSans-76" x="508.871094"/>
      <use xlink:href="#DejaVuSans-65" x="568.050781"/>
      <use xlink:href="#DejaVuSans-20" x="629.574219"/>
      <use xlink:href="#DejaVuSans-52" x="661.361328"/>
      <use xlink:href="#DejaVuSans-61" x="728.59375"/>
      <use xlink:href="#DejaVuSans-74" x="789.873047"/>
      <use xlink:href="#DejaVuSans-65" x="829.082031"/>
     </g>
    </g>
   </g>
   <g id="line2d_13">
    <path d="M 74.605714 307.584 
L 74.99843 300.43298 
L 78.806447 273.851057 
L 79.471866 268.260636 
L 79.563348 267.571406 
L 79.807437 265.888692 
L 80.129862 263.959676 
L 80.511215 261.718126 
L 80.768782 260.327248 
L 80.999767 259.062624 
L 81.57893 255.22529 
L 81.77732 253.594319 
L 82.467911 247.169785 
L 82.482757 247.062158 
L 82.687491 245.727163 
L 82.701591 245.619535 
L 82.860668 244.72333 
L 82.885757 244.613632 
L 83.077595 243.609799 
L 83.102145 243.500102 
L 83.595217 241.391016 
L 83.632539 241.281319 
L 83.845236 240.563113 
L 83.887452 240.453415 
L 84.0333 240.022905 
L 84.073816 239.913208 
L 84.257194 239.47028 
L 84.298166 239.360582 
L 84.464707 238.905235 
L 84.51165 238.795538 
L 84.742884 238.205656 
L 84.784644 238.098029 
L 84.90644 237.737891 
L 84.944218 237.628193 
L 85.083183 237.232869 
L 85.11499 237.123172 
L 85.239771 236.781662 
L 85.292811 236.671964 
L 85.413487 236.351152 
L 85.455786 236.241454 
L 85.602712 235.949618 
L 85.656871 235.839921 
L 85.777174 235.610178 
L 85.838632 235.50048 
L 86.015085 235.101017 
L 86.061406 234.99132 
L 86.192491 234.742948 
L 86.239186 234.633251 
L 86.391047 234.30002 
L 86.441017 234.190323 
L 86.614857 233.883998 
L 86.68407 233.774301 
L 86.811174 233.507302 
L 86.86243 233.397605 
L 87.016821 233.043676 
L 87.184275 232.700096 
L 87.240963 232.590398 
L 87.406758 232.257167 
L 87.459798 232.14747 
L 87.600794 231.776983 
L 87.654912 231.667286 
L 87.829166 231.280241 
L 87.8781 231.170543 
L 88.027681 230.903544 
L 88.073961 230.793847 
L 88.189287 230.576522 
L 88.233701 230.466825 
L 88.357322 230.214314 
L 88.406173 230.104617 
L 88.577856 229.680316 
L 88.641719 229.570619 
L 88.775209 229.293271 
L 88.837206 229.183574 
L 88.979281 228.879319 
L 89.037587 228.769622 
L 89.168464 228.488135 
L 89.230834 228.378438 
L 89.359348 228.165252 
L 89.525765 227.778207 
L 89.583408 227.66851 
L 89.718059 227.376674 
L 89.770228 227.266977 
L 89.879458 227.012396 
L 89.881159 227.012396 
L 89.942533 226.902699 
L 90.066486 226.648118 
L 90.118281 226.538421 
L 90.2842 226.20519 
L 90.32343 226.095493 
L 90.457709 225.807796 
L 90.505316 225.698099 
L 90.64598 225.406263 
L 90.691887 225.296565 
L 90.813019 225.048194 
L 90.871906 224.938497 
L 90.993577 224.673568 
L 91.032144 224.56387 
L 91.153317 224.31343 
L 91.204366 224.203732 
L 91.332424 223.922245 
L 91.39073 223.812548 
L 91.520986 223.576595 
L 91.586964 223.466898 
L 91.708096 223.216457 
L 91.76296 223.10676 
L 91.873808 222.885295 
L 91.873974 222.885295 
L 92.000995 222.690738 
L 92.060752 222.581041 
L 92.191506 222.338879 
L 92.279048 222.229182 
L 92.38861 222.018066 
L 92.390103 222.018066 
L 92.531928 221.767625 
L 92.602717 221.657928 
L 92.740603 221.395068 
L 92.800029 221.285371 
L 92.929994 221.053558 
L 92.9866 220.943861 
L 93.101636 220.743094 
L 93.1582 220.633397 
L 93.292644 220.405723 
L 93.360198 220.296026 
L 93.489417 220.072492 
L 93.56232 219.962795 
L 93.687309 219.735121 
L 93.744952 219.625424 
L 93.868697 219.416378 
L 93.923436 219.306681 
L 94.048757 219.070728 
L 94.106026 218.961031 
L 94.240595 218.729218 
L 94.302965 218.62366 
L 94.421194 218.443591 
L 94.466313 218.333894 
L 94.592754 218.145546 
L 94.687055 218.035849 
L 94.805865 217.845431 
L 94.868194 217.735733 
L 94.999818 217.534967 
L 95.080559 217.425269 
L 95.209363 217.207945 
L 95.285128 217.098247 
L 95.413434 216.887132 
L 95.497617 216.777435 
L 95.614561 216.574598 
L 95.695054 216.464901 
L 95.813366 216.286902 
L 95.889504 216.177204 
L 96.006821 216.017833 
L 96.072011 215.908136 
L 96.186301 215.742555 
L 96.263061 215.632858 
L 96.377143 215.473486 
L 96.455189 215.363789 
L 96.57628 215.200278 
L 96.641345 215.090581 
L 96.755138 214.947767 
L 96.82377 214.83807 
L 96.938225 214.660071 
L 97.026182 214.550373 
L 97.135744 214.386862 
L 97.137237 214.386862 
L 97.214163 214.277165 
L 97.337162 214.082608 
L 97.410604 213.97291 
L 97.524852 213.815609 
L 97.612021 213.705911 
L 97.738379 213.519633 
L 97.823806 213.409936 
L 97.940833 213.256773 
L 98.039074 213.147076 
L 98.156391 212.991844 
L 98.222161 212.882147 
L 98.359425 212.702078 
L 98.436102 212.592381 
L 98.567022 212.399893 
L 98.637478 212.292265 
L 98.751561 212.130824 
L 98.841301 212.023197 
L 98.955549 211.865895 
L 99.041474 211.756198 
L 99.161942 211.598896 
L 99.249485 211.489199 
L 99.363733 211.329827 
L 99.44576 211.22013 
L 99.571288 211.0442 
L 99.657254 210.934503 
L 99.779091 210.758574 
L 99.855519 210.648876 
L 99.973915 210.468807 
L 100.069751 210.35911 
L 100.186529 210.216297 
L 100.268099 210.106599 
L 100.385084 209.961716 
L 100.489463 209.852019 
L 100.603172 209.713345 
L 100.693991 209.603648 
L 100.81334 209.469113 
L 100.901711 209.359416 
L 101.015669 209.206254 
L 101.129254 209.096557 
L 101.251133 208.920627 
L 101.336933 208.81093 
L 101.471916 208.618442 
L 101.565762 208.508745 
L 101.702984 208.297629 
L 101.793553 208.187932 
L 101.907512 208.045119 
L 102.025409 207.877468 
L 102.118633 207.767771 
L 102.229356 207.614609 
L 102.22948 207.614609 
L 102.333569 207.504911 
L 102.44761 207.357958 
L 102.543321 207.250331 
L 102.659063 207.095099 
L 102.758299 206.985402 
L 102.872174 206.840519 
L 102.968259 206.730821 
L 103.091797 206.519706 
L 103.175441 206.410009 
L 103.299351 206.252707 
L 103.406467 206.14301 
L 103.523452 205.993987 
L 103.605645 205.88429 
L 103.727648 205.749755 
L 103.819295 205.640058 
L 103.939764 205.484826 
L 104.04547 205.375129 
L 104.158723 205.265431 
L 104.245933 205.155734 
L 104.359311 205.041897 
L 104.448595 204.9322 
L 104.568732 204.783177 
L 104.648602 204.67348 
L 104.759657 204.526527 
L 104.839818 204.41683 
L 104.959913 204.269877 
L 105.06566 204.16018 
L 105.186502 203.998739 
L 105.277486 203.889041 
L 105.394679 203.737949 
L 105.489603 203.630321 
L 105.599746 203.46888 
L 105.600658 203.46888 
L 105.693923 203.359183 
L 105.804688 203.20809 
L 105.804771 203.20809 
L 105.875559 203.098393 
L 105.992213 202.959719 
L 106.069512 202.850022 
L 106.190105 202.69272 
L 106.281877 202.585093 
L 106.402014 202.407093 
L 106.495445 202.297396 
L 106.604053 202.154583 
L 106.6065 202.154583 
L 106.721785 202.049025 
L 106.814345 201.939328 
L 106.928593 201.782026 
L 106.992995 201.672329 
L 107.117362 201.510887 
L 107.215023 201.40119 
L 107.325497 201.239749 
L 107.326078 201.239749 
L 107.39077 201.130052 
L 107.504853 200.976889 
L 107.58576 200.867192 
L 107.699718 200.718169 
L 107.801028 200.608472 
L 107.924151 200.45945 
L 108.009039 200.349752 
L 108.116486 200.206939 
L 108.120135 200.206939 
L 108.194366 200.097242 
L 108.312637 199.919242 
L 108.386826 199.809545 
L 108.508165 199.637755 
L 108.580239 199.528058 
L 108.702657 199.341779 
L 108.779376 199.232082 
L 108.904945 199.054083 
L 108.980171 198.944385 
L 109.098525 198.764316 
L 109.161807 198.656689 
L 109.161807 198.654619 
L 109.279414 198.493178 
L 109.354101 198.383481 
L 109.468183 198.230318 
L 109.537272 198.122691 
L 109.652142 197.930203 
L 109.725584 197.820506 
L 109.843067 197.663204 
L 109.914229 197.553507 
L 110.036315 197.373438 
L 110.102666 197.263741 
L 110.220191 197.102299 
L 110.303254 196.992602 
L 110.417834 196.818742 
L 110.473237 196.709045 
L 110.58761 196.545534 
L 110.647699 196.435837 
L 110.756184 196.274396 
L 110.758796 196.274396 
L 110.87375 196.079838 
L 110.963241 195.970141 
L 111.080972 195.80249 
L 111.163787 195.692793 
L 111.282265 195.510654 
L 111.406093 195.301608 
L 111.461496 195.191911 
L 111.586154 194.968377 
L 111.655532 194.85868 
L 111.774218 194.668262 
L 111.841025 194.558565 
L 111.960706 194.34124 
L 112.033941 194.231543 
L 112.149019 194.030776 
L 112.228806 193.921079 
L 112.348031 193.720312 
L 112.419151 193.610615 
L 112.537629 193.428476 
L 112.627327 193.318779 
L 112.741949 193.142849 
L 112.807637 193.033152 
L 112.917116 192.855153 
L 112.918609 192.855153 
L 112.997525 192.745455 
L 113.107419 192.579875 
L 113.108581 192.579875 
L 113.184802 192.470177 
L 113.299506 192.288038 
L 113.383316 192.178341 
L 113.498269 191.985854 
L 113.561386 191.876156 
L 113.676381 191.681599 
L 113.748911 191.571902 
L 113.85781 191.369065 
L 113.859966 191.369065 
L 113.93316 191.259368 
L 114.049025 191.006857 
L 114.123048 190.89716 
L 114.229957 190.729509 
L 114.234145 190.729509 
L 114.297344 190.619812 
L 114.412795 190.396278 
L 114.493205 190.286581 
L 114.612181 190.087884 
L 114.674965 189.978187 
L 114.790126 189.77535 
L 114.869416 189.665653 
L 114.994363 189.437979 
L 115.061378 189.328282 
L 115.181598 189.100609 
L 115.255414 188.990911 
L 115.378163 188.800493 
L 115.457619 188.690796 
L 115.573443 188.450704 
L 115.660073 188.341007 
L 115.771169 188.158868 
L 115.849754 188.049171 
L 115.964417 187.867032 
L 116.014554 187.757335 
L 116.124655 187.544149 
L 116.125567 187.544149 
L 116.185574 187.434452 
L 116.296463 187.250243 
L 116.29667 187.250243 
L 116.415439 187.059826 
L 116.489711 186.950128 
L 116.600725 186.786617 
L 116.600807 186.786617 
L 116.72024 186.579641 
L 116.79277 186.469944 
L 116.902373 186.304363 
L 116.903866 186.304363 
L 116.982119 186.194666 
L 117.093174 186.022876 
L 117.093216 186.022876 
L 117.207506 185.861435 
L 117.289242 185.751737 
L 117.40403 185.567529 
L 117.47233 185.457832 
L 117.583178 185.263274 
L 117.583426 185.263274 
L 117.649902 185.153577 
L 117.759008 185.010763 
L 117.760957 185.010763 
L 117.825069 184.901066 
L 117.942345 184.745834 
L 118.025367 184.636137 
L 118.139408 184.482975 
L 118.196843 184.373277 
L 118.322329 184.197348 
L 118.39063 184.087651 
L 118.505417 183.901372 
L 118.575874 183.791675 
L 118.686514 183.615745 
L 118.686763 183.615745 
L 118.765306 183.506048 
L 118.87491 183.334258 
L 118.876279 183.334258 
L 118.979911 183.224561 
L 119.090883 183.083817 
L 119.181121 182.97412 
L 119.296115 182.779563 
L 119.355583 182.669865 
L 119.470163 182.496005 
L 119.551277 182.386308 
L 119.661462 182.179332 
L 119.662374 182.179332 
L 119.730176 182.069635 
L 119.840693 181.895775 
L 119.841232 181.895775 
L 119.925083 181.786078 
L 120.042898 181.618427 
L 120.130854 181.50873 
L 120.240126 181.355568 
L 120.241951 181.355568 
L 120.32236 181.245871 
L 120.440507 181.072011 
L 120.541983 180.962314 
L 120.659424 180.802942 
L 120.73494 180.693245 
L 120.845539 180.552501 
L 120.845995 180.552501 
L 120.933952 180.442804 
L 121.044178 180.291711 
L 121.045007 180.291711 
L 121.123219 180.182014 
L 121.240163 180.037131 
L 121.315554 179.927434 
L 121.432954 179.772202 
L 121.528915 179.662505 
L 121.637108 179.519691 
L 121.639762 179.519691 
L 121.736345 179.409994 
L 121.853703 179.252692 
L 121.942282 179.142995 
L 122.056614 178.975344 
L 122.145151 178.865647 
L 122.254921 178.720764 
L 122.256206 178.720764 
L 122.350756 178.611067 
L 122.457748 178.464114 
L 122.461729 178.464114 
L 122.53965 178.354416 
L 122.650249 178.178487 
L 122.650747 178.178487 
L 122.741274 178.06879 
L 122.852164 177.925976 
L 122.852371 177.925976 
L 122.957538 177.816279 
L 123.070998 177.696233 
L 123.161319 177.586536 
L 123.275111 177.452001 
L 123.359335 177.342304 
L 123.469976 177.2057 
L 123.470432 177.2057 
L 123.575848 177.096003 
L 123.689101 176.982166 
L 123.7698 176.872469 
L 123.886661 176.729655 
L 123.979843 176.619958 
L 124.095294 176.51233 
L 124.202285 176.402633 
L 124.315829 176.278447 
L 124.41154 176.16875 
L 124.528069 176.034216 
L 124.65281 175.924519 
L 124.769546 175.783775 
L 124.861857 175.674078 
L 124.970507 175.554032 
L 124.972912 175.554032 
L 125.054773 175.446404 
L 125.165787 175.30773 
L 125.263572 175.198033 
L 125.377779 175.038661 
L 125.474734 174.928964 
L 125.58579 174.819267 
L 125.681211 174.70957 
L 125.794464 174.599872 
L 125.917711 174.490175 
L 126.031669 174.347362 
L 126.124312 174.237664 
L 126.237773 174.117618 
L 126.348994 174.007921 
L 126.457395 173.898224 
L 126.460049 173.898224 
L 126.563349 173.788527 
L 126.672248 173.67055 
L 126.674446 173.67055 
L 126.763854 173.560853 
L 126.876942 173.457365 
L 126.980615 173.347668 
L 127.085782 173.24004 
L 127.091587 173.24004 
L 127.200818 173.130343 
L 127.313698 173.041343 
L 127.385606 172.931646 
L 127.4938 172.801251 
L 127.496661 172.801251 
L 127.58777 172.691554 
L 127.701645 172.55081 
L 127.800052 172.441113 
L 127.913969 172.29623 
L 127.985006 172.186533 
L 128.090463 172.031301 
L 128.096102 172.031301 
L 128.213502 171.921603 
L 128.328497 171.826394 
L 128.466632 171.716697 
L 128.576899 171.60907 
L 128.577604 171.60907 
L 128.676716 171.499372 
L 128.792458 171.385536 
L 128.897666 171.275838 
L 129.008597 171.17856 
L 129.008721 171.17856 
L 129.127738 171.068862 
L 129.241572 170.932258 
L 129.375187 170.822561 
L 129.491135 170.700445 
L 129.601112 170.590748 
L 129.714448 170.476911 
L 129.856979 170.367214 
L 129.972969 170.240959 
L 130.079421 170.131261 
L 130.19002 170.015355 
L 130.190352 170.015355 
L 130.281792 169.905658 
L 130.392267 169.787681 
L 130.392889 169.787681 
L 130.517588 169.677984 
L 130.626777 169.576566 
L 130.628601 169.576566 
L 130.732441 169.466868 
L 130.845943 169.346822 
L 130.972632 169.237125 
L 131.091442 169.143986 
L 131.227877 169.034289 
L 131.337771 168.883196 
L 131.33889 168.883196 
L 131.466533 168.773499 
L 131.570705 168.661732 
L 131.57763 168.661732 
L 131.672139 168.552035 
L 131.782489 168.448547 
L 131.783194 168.448547 
L 131.900055 168.338849 
L 132.020026 168.191897 
L 132.118516 168.082199 
L 132.228701 167.972502 
L 132.22953 167.972502 
L 132.366172 167.862805 
L 132.471753 167.788293 
L 132.477269 167.788293 
L 132.607068 167.678596 
L 132.717377 167.577178 
L 132.718082 167.577178 
L 132.822544 167.467481 
L 132.935423 167.374341 
L 133.068582 167.264644 
L 133.183867 167.161156 
L 133.291522 167.051459 
L 133.401499 166.925204 
L 133.402577 166.925204 
L 133.525949 166.815506 
L 133.636174 166.720297 
L 133.637004 166.720297 
L 133.778954 166.6106 
L 133.888101 166.511252 
L 133.889843 166.511252 
L 134.036313 166.401554 
L 134.142724 166.291857 
L 134.14741 166.291857 
L 134.29106 166.18216 
L 134.395688 166.09937 
L 134.402116 166.09937 
L 134.514498 165.989672 
L 134.627917 165.869626 
L 134.751413 165.759929 
L 134.864749 165.646092 
L 134.985301 165.536395 
L 135.100378 165.439116 
L 135.246351 165.329419 
L 135.35948 165.228001 
L 135.46672 165.118303 
L 135.57989 165.014815 
L 135.697871 164.905118 
L 135.807433 164.80577 
L 135.808926 164.80577 
L 135.972315 164.696072 
L 136.079887 164.578096 
L 136.083412 164.578096 
L 136.194053 164.468399 
L 136.302371 164.37319 
L 136.305108 164.37319 
L 136.450666 164.263493 
L 136.555293 164.188981 
L 136.561762 164.188981 
L 136.675721 164.079284 
L 136.790425 163.988215 
L 136.918027 163.878517 
L 137.031155 163.775029 
L 137.155232 163.665332 
L 137.268361 163.561844 
L 137.411804 163.452147 
L 137.522444 163.352798 
L 137.5229 163.352798 
L 137.690935 163.243101 
L 137.800538 163.16445 
L 137.801824 163.16445 
L 137.937056 163.054753 
L 138.044835 162.965753 
L 138.048028 162.965753 
L 138.179445 162.856056 
L 138.282372 162.777405 
L 138.2905 162.777405 
L 138.416733 162.667708 
L 138.529115 162.601476 
L 138.649211 162.491778 
L 138.759271 162.369663 
L 138.760308 162.369663 
L 138.926476 162.259965 
L 139.029942 162.177175 
L 139.037573 162.177175 
L 139.170358 162.067478 
L 139.275981 161.988827 
L 139.281455 161.988827 
L 139.398316 161.87913 
L 139.513186 161.78599 
L 139.639668 161.676293 
L 139.745954 161.589363 
L 139.750765 161.589363 
L 139.928254 161.479666 
L 140.040926 161.396876 
L 140.183125 161.287178 
L 140.292936 161.18783 
L 140.294222 161.18783 
L 140.434223 161.078133 
L 140.547559 160.964296 
L 140.698757 160.854599 
L 140.804089 160.761459 
L 140.809729 160.761459 
L 140.936874 160.651762 
L 141.053777 160.556553 
L 141.1786 160.446856 
L 141.293926 160.343368 
L 141.44869 160.233671 
L 141.561902 160.126043 
L 141.687347 160.016346 
L 141.8006 159.908718 
L 141.94989 159.799021 
L 142.060572 159.693463 
L 142.060904 159.693463 
L 142.209158 159.583766 
L 142.324484 159.480278 
L 142.4841 159.370581 
L 142.59698 159.281581 
L 142.755974 159.171884 
L 142.871259 159.105652 
L 143.005413 158.995954 
L 143.116261 158.911094 
L 143.116509 158.911094 
L 143.285249 158.801397 
L 143.393318 158.710328 
L 143.396304 158.710328 
L 143.543728 158.60063 
L 143.653083 158.530258 
L 143.654659 158.530258 
L 143.857444 158.420561 
L 143.9702 158.335701 
L 144.118329 158.226004 
L 144.232868 158.141144 
L 144.368763 158.031446 
L 144.481436 157.952795 
L 144.650382 157.843098 
L 144.763594 157.733401 
L 144.949999 157.623704 
L 145.066736 157.532634 
L 145.227388 157.422937 
L 145.339854 157.354635 
L 145.505441 157.244938 
L 145.61434 157.151799 
L 145.616538 157.151799 
L 145.746793 157.042101 
L 145.859798 156.946892 
L 145.999508 156.837195 
L 146.112098 156.758544 
L 146.269599 156.648847 
L 146.37941 156.557777 
L 146.380696 156.557777 
L 146.524885 156.44808 
L 146.639838 156.352871 
L 146.792778 156.243174 
L 146.90093 156.176942 
L 146.903792 156.176942 
L 147.031683 156.067244 
L 147.141246 155.988594 
L 147.14278 155.988594 
L 147.335033 155.878896 
L 147.445258 155.791966 
L 147.446005 155.791966 
L 147.60305 155.682269 
L 147.713276 155.611897 
L 147.714146 155.611897 
L 147.870818 155.5022 
L 147.983242 155.429758 
L 148.144185 155.320061 
L 148.244126 155.262108 
L 148.255199 155.262108 
L 148.42738 155.152411 
L 148.539928 155.07583 
L 148.701617 154.966132 
L 148.814248 154.887481 
L 148.941477 154.777784 
L 149.05813 154.688785 
L 149.217456 154.579087 
L 149.327765 154.496297 
L 149.328511 154.496297 
L 149.490698 154.3866 
L 149.605942 154.318298 
L 149.784219 154.2086 
L 149.891086 154.136159 
L 149.895275 154.136159 
L 150.085412 154.026461 
L 150.196384 153.962299 
L 150.371717 153.852602 
L 150.486049 153.773951 
L 150.666855 153.664253 
L 150.783385 153.600091 
L 150.977794 153.490394 
L 151.090383 153.413813 
L 151.267333 153.304115 
L 151.380047 153.213046 
L 151.561186 153.103349 
L 151.668965 153.030907 
L 151.672158 153.030907 
L 151.822568 152.92121 
L 151.936236 152.859117 
L 152.124093 152.74942 
L 152.23635 152.691466 
L 152.451245 152.581769 
L 152.563544 152.519676 
L 152.781259 152.409979 
L 152.8936 152.343747 
L 153.07167 152.23405 
L 153.180278 152.149189 
L 153.182642 152.149189 
L 153.380866 152.039492 
L 153.48848 151.950492 
L 153.491673 151.950492 
L 153.696076 151.840795 
L 153.808582 151.770423 
L 154.012114 151.660726 
L 154.120723 151.617261 
L 154.12317 151.617261 
L 154.325209 151.507564 
L 154.437633 151.441332 
L 154.665134 151.331634 
L 154.774116 151.257123 
L 154.776231 151.257123 
L 154.931119 151.149496 
L 155.043128 151.097752 
L 155.248112 150.988054 
L 155.353279 150.950799 
L 155.359084 150.950799 
L 155.586005 150.841101 
L 155.698346 150.776939 
L 155.892672 150.667242 
L 156.005179 150.59273 
L 156.192164 150.483033 
L 156.304505 150.41887 
L 156.454376 150.309173 
L 156.566841 150.236732 
L 156.773566 150.127034 
L 156.887732 150.046314 
L 157.051785 149.936616 
L 157.162384 149.855896 
L 157.162882 149.855896 
L 157.344684 149.748268 
L 157.344684 149.746198 
L 157.458435 149.677896 
L 157.653673 149.568199 
L 157.758093 149.512316 
L 157.764687 149.512316 
L 158.02752 149.402618 
L 158.143469 149.321898 
L 158.332155 149.2122 
L 158.444288 149.156317 
L 158.630362 149.04662 
L 158.741417 148.963829 
L 158.899747 148.854132 
L 159.014867 148.78997 
L 159.215994 148.680272 
L 159.317221 148.622319 
L 159.32709 148.622319 
L 159.555546 148.512622 
L 159.661168 148.462947 
L 159.666518 148.462947 
L 159.87034 148.35325 
L 159.981188 148.278739 
L 160.196041 148.169042 
L 160.308382 148.106949 
L 160.537874 147.997252 
L 160.644783 147.947577 
L 160.648971 147.947577 
L 160.89248 147.83788 
L 161.005277 147.75302 
L 161.221333 147.643323 
L 161.330024 147.587439 
L 161.332388 147.587439 
L 161.500256 147.477742 
L 161.616039 147.403231 
L 161.787764 147.295603 
L 161.787764 147.293533 
L 161.901515 147.227301 
L 162.100195 147.117604 
L 162.201505 147.06379 
L 162.21125 147.06379 
L 162.387371 146.954093 
L 162.49374 146.892 
L 162.498468 146.892 
L 162.721117 146.782303 
L 162.833458 146.71607 
L 163.045989 146.606373 
L 163.158123 146.552559 
L 163.444677 146.442862 
L 163.558262 146.382839 
L 163.749145 146.273142 
L 163.858583 146.186212 
L 163.860201 146.186212 
L 164.078911 146.076515 
L 164.192661 146.012352 
L 164.445376 145.902655 
L 164.55357 145.830213 
L 164.556432 145.830213 
L 164.762162 145.720516 
L 164.874834 145.641865 
L 165.086868 145.532168 
L 165.196015 145.482494 
L 165.197923 145.482494 
L 165.407095 145.372796 
L 165.52126 145.325192 
L 165.723134 145.215495 
L 165.834935 145.176169 
L 166.065298 145.066472 
L 166.177432 145.014728 
L 166.439933 144.905031 
L 166.552067 144.853287 
L 166.786286 144.743589 
L 166.8956 144.679427 
L 166.897383 144.679427 
L 167.124802 144.56973 
L 167.23735 144.495218 
L 167.478619 144.385521 
L 167.588389 144.327568 
L 167.589591 144.327568 
L 167.816844 144.21787 
L 167.91973 144.164057 
L 167.927899 144.164057 
L 168.150259 144.054359 
L 168.262226 144.006755 
L 168.493004 143.897058 
L 168.596138 143.841174 
L 168.603935 143.841174 
L 168.808047 143.731477 
L 168.917278 143.652826 
L 168.91902 143.652826 
L 169.157552 143.543129 
L 169.270142 143.464478 
L 169.502785 143.354781 
L 169.615002 143.298897 
L 169.822183 143.1892 
L 169.938712 143.125037 
L 170.1551 143.01534 
L 170.268229 142.963596 
L 170.495481 142.853899 
L 170.610642 142.789736 
L 170.84511 142.680039 
L 170.957202 142.630365 
L 171.217838 142.520668 
L 171.331257 142.464784 
L 171.581235 142.355087 
L 171.6903 142.295064 
L 171.692249 142.295064 
L 171.91324 142.185366 
L 172.02558 142.123274 
L 172.317857 142.013576 
L 172.410044 141.961832 
L 172.428871 141.961832 
L 172.73251 141.852135 
L 172.84933 141.800391 
L 173.145215 141.690694 
L 173.252662 141.647229 
L 173.25627 141.647229 
L 173.53565 141.537532 
L 173.647659 141.485788 
L 173.878892 141.37609 
L 173.989948 141.309858 
L 174.222882 141.200161 
L 174.334974 141.150487 
L 174.571432 141.040789 
L 174.682405 141.005603 
L 174.682446 141.005603 
L 174.92948 140.895906 
L 175.04153 140.848302 
L 175.30623 140.738604 
L 175.41799 140.703419 
L 175.676345 140.593721 
L 175.786032 140.537838 
L 175.7874 140.537838 
L 176.030453 140.42814 
L 176.133629 140.363978 
L 176.141508 140.363978 
L 176.399738 140.254281 
L 176.491842 140.210816 
L 176.510752 140.210816 
L 176.771263 140.101118 
L 176.88348 140.043165 
L 177.13408 139.933468 
L 177.24895 139.890003 
L 177.468863 139.780306 
L 177.572536 139.730631 
L 177.579835 139.730631 
L 177.785731 139.620934 
L 177.893717 139.56712 
L 177.89662 139.56712 
L 178.113837 139.457423 
L 178.225805 139.409819 
L 178.592354 139.300121 
L 178.70598 139.235959 
L 178.962137 139.126262 
L 179.070745 139.093146 
L 179.073233 139.093146 
L 179.286843 138.983448 
L 179.393212 138.925495 
L 179.397939 138.925495 
L 179.630873 138.815798 
L 179.739689 138.768193 
L 179.741846 138.768193 
L 180.033791 138.658496 
L 180.140533 138.612961 
L 180.144597 138.612961 
L 180.393082 138.503264 
L 180.502271 138.461869 
L 180.504137 138.461869 
L 180.769418 138.352172 
L 180.8801 138.288009 
L 180.880473 138.288009 
L 181.099058 138.178312 
L 181.210819 138.145196 
L 181.470003 138.035498 
L 181.584002 137.965127 
L 181.817393 137.855429 
L 181.928945 137.830592 
L 182.252117 137.720895 
L 182.366739 137.6795 
L 182.638944 137.569802 
L 182.751326 137.5015 
L 182.994711 137.391803 
L 183.103734 137.33385 
L 183.105807 137.33385 
L 183.332521 137.224153 
L 183.432919 137.166199 
L 183.443618 137.166199 
L 183.731126 137.056502 
L 183.843052 137.015107 
L 184.103853 136.90541 
L 184.215655 136.868154 
L 184.434199 136.758457 
L 184.546374 136.698434 
L 184.837904 136.588736 
L 184.948379 136.536992 
L 184.948959 136.536992 
L 185.202753 136.427295 
L 185.315798 136.377621 
L 185.533679 136.267924 
L 185.638431 136.21204 
L 185.644776 136.21204 
L 185.952355 136.102343 
L 186.06258 136.04439 
L 186.06341 136.04439 
L 186.342416 135.934692 
L 186.455172 135.893297 
L 186.677117 135.7836 
L 186.782698 135.738065 
L 186.788172 135.738065 
L 186.9013 135.688391 
L 187.16488 135.578694 
L 187.276516 135.547647 
L 187.516417 135.43795 
L 187.627306 135.413113 
L 187.627514 135.413113 
L 187.909672 135.303416 
L 188.023215 135.241323 
L 188.270539 135.131626 
L 188.382673 135.079882 
L 188.721727 134.970184 
L 188.833819 134.92051 
L 189.09545 134.810813 
L 189.207252 134.771487 
L 189.462455 134.66179 
L 189.574464 134.616255 
L 189.826888 134.506558 
L 189.939146 134.446535 
L 190.267709 134.336838 
L 190.366033 134.295443 
L 190.378806 134.295443 
L 190.597267 134.185745 
L 190.709608 134.152629 
L 191.0441 134.042932 
L 191.151796 134.020165 
L 191.155073 134.020165 
L 191.426573 133.910467 
L 191.537006 133.858723 
L 191.537214 133.858723 
L 191.773838 133.749026 
L 191.883318 133.703491 
L 191.884852 133.703491 
L 192.113308 133.593794 
L 192.225317 133.54205 
L 192.548405 133.432353 
L 192.656309 133.390958 
L 192.65946 133.390958 
L 192.94249 133.28126 
L 193.054582 133.229516 
L 193.388328 133.119819 
L 193.500254 133.078424 
L 193.745546 132.968727 
L 193.842501 132.921122 
L 193.856601 132.921122 
L 194.122752 132.811425 
L 194.235839 132.761751 
L 194.457742 132.652053 
L 194.569295 132.623077 
L 194.826821 132.51338 
L 194.93742 132.467845 
L 194.937876 132.467845 
L 195.196397 132.360217 
L 195.303927 132.310543 
L 195.307244 132.310543 
L 195.533087 132.200846 
L 195.645221 132.149102 
L 195.911994 132.039405 
L 196.024459 131.971103 
L 196.282606 131.861405 
L 196.394781 131.807592 
L 196.645298 131.697894 
L 196.757846 131.660639 
L 197.03677 131.550941 
L 197.148904 131.497128 
L 197.489285 131.38743 
L 197.601875 131.352244 
L 197.860395 131.242547 
L 197.972446 131.194943 
L 198.223543 131.085245 
L 198.334225 131.035571 
L 198.334599 131.035571 
L 198.573753 130.925874 
L 198.685803 130.878269 
L 198.927197 130.768572 
L 199.040367 130.718898 
L 199.284623 130.609201 
L 199.39518 130.555387 
L 199.395719 130.555387 
L 199.646236 130.44569 
L 199.75555 130.406364 
L 199.75725 130.406364 
L 200.030285 130.296667 
L 200.142211 130.255272 
L 200.412841 130.145575 
L 200.524643 130.106249 
L 200.836991 129.996552 
L 200.948709 129.965505 
L 201.23713 129.855808 
L 201.343913 129.795785 
L 201.348185 129.795785 
L 201.660325 129.686088 
L 201.778804 129.617786 
L 202.061584 129.508089 
L 202.173759 129.452205 
L 202.460728 129.342508 
L 202.569709 129.284555 
L 202.571824 129.284555 
L 202.821139 129.174857 
L 202.929706 129.137602 
L 202.932236 129.137602 
L 203.202119 129.027904 
L 203.315538 128.969951 
L 203.617187 128.860254 
L 203.72339 128.812649 
L 203.728242 128.812649 
L 203.950104 128.702952 
L 204.060786 128.655348 
L 204.0612 128.655348 
L 204.302718 128.54772 
L 204.414769 128.498046 
L 204.719113 128.388349 
L 204.831496 128.324186 
L 205.193483 128.214489 
L 205.307648 128.166884 
L 205.549871 128.057187 
L 205.662627 128.015792 
L 205.909868 127.906095 
L 206.022499 127.868839 
L 206.331778 127.761211 
L 206.443248 127.723956 
L 206.690157 127.614258 
L 206.801917 127.579073 
L 207.063217 127.469375 
L 207.17535 127.415562 
L 207.485625 127.305864 
L 207.595353 127.249981 
L 207.59668 127.249981 
L 207.773837 127.140284 
L 207.885598 127.107167 
L 208.134041 126.99747 
L 208.247336 126.943656 
L 208.501917 126.833959 
L 208.612723 126.790494 
L 208.613013 126.790494 
L 208.882316 126.680797 
L 208.994242 126.639402 
L 209.260518 126.529704 
L 209.37431 126.486239 
L 209.614916 126.376542 
L 209.726842 126.335147 
L 210.026334 126.22545 
L 210.135938 126.184055 
L 210.137431 126.184055 
L 210.406858 126.074357 
L 210.517748 126.020544 
L 210.834865 125.910846 
L 210.947662 125.867381 
L 211.230442 125.757684 
L 211.342202 125.724568 
L 211.597322 125.614871 
L 211.708046 125.558987 
L 211.708336 125.558987 
L 211.994268 125.44929 
L 212.10242 125.397546 
L 212.10524 125.397546 
L 212.385325 125.287849 
L 212.483857 125.236105 
L 212.496339 125.236105 
L 212.756311 125.126407 
L 212.868444 125.070524 
L 213.120371 124.960827 
L 213.233873 124.923571 
L 213.491813 124.813874 
L 213.595529 124.76006 
L 213.602744 124.76006 
L 213.851229 124.650363 
L 213.957972 124.602758 
L 213.962285 124.602758 
L 214.206415 124.493061 
L 214.315853 124.449596 
L 214.317471 124.449596 
L 214.621525 124.339899 
L 214.728889 124.298504 
L 214.732621 124.298504 
L 215.02722 124.188806 
L 215.136119 124.141202 
L 215.138193 124.141202 
L 215.353627 124.031505 
L 215.463313 123.979761 
L 215.464599 123.979761 
L 215.731579 123.870063 
L 215.834672 123.81418 
L 215.842635 123.81418 
L 216.109117 123.704482 
L 216.216523 123.661018 
L 216.220131 123.661018 
L 216.516721 123.55132 
L 216.625703 123.514065 
L 216.627817 123.514065 
L 216.924988 123.404367 
L 217.034094 123.342275 
L 217.036001 123.342275 
L 217.253841 123.232577 
L 217.365933 123.180833 
L 217.631586 123.071136 
L 217.73754 123.023532 
L 217.742475 123.023532 
L 218.073568 122.913834 
L 218.165879 122.880718 
L 218.184581 122.880718 
L 218.503896 122.771021 
L 218.615491 122.739974 
L 218.915605 122.630277 
L 219.028278 122.593022 
L 219.257604 122.483324 
L 219.358499 122.439859 
L 219.368576 122.439859 
L 219.625438 122.330162 
L 219.735249 122.284627 
L 219.736493 122.284627 
L 219.950434 122.17493 
L 220.062111 122.139744 
L 220.364092 122.030047 
L 220.47635 121.972094 
L 220.778745 121.862396 
L 220.89233 121.802373 
L 221.186639 121.692676 
L 221.298482 121.653351 
L 221.630818 121.543653 
L 221.742662 121.498119 
L 222.060152 121.388421 
L 222.174442 121.338747 
L 222.525522 121.22905 
L 222.633799 121.187655 
L 222.636577 121.187655 
L 222.90418 121.077957 
L 223.016065 121.038632 
L 223.235355 120.928935 
L 223.347115 120.895819 
L 223.617538 120.786121 
L 223.730127 120.750935 
L 224.127488 120.641238 
L 224.240575 120.593634 
L 224.593397 120.483936 
L 224.700513 120.45289 
L 224.704494 120.45289 
L 225.026214 120.343193 
L 225.14038 120.295588 
L 225.401471 120.185891 
L 225.513397 120.144496 
L 225.765988 120.034799 
L 225.878204 119.978915 
L 226.175582 119.869218 
L 226.288586 119.823683 
L 226.617771 119.713986 
L 226.73036 119.67466 
L 226.990208 119.564963 
L 227.102051 119.525638 
L 227.366419 119.41594 
L 227.47312 119.376615 
L 227.477391 119.376615 
L 227.85522 119.266918 
L 227.968265 119.237941 
L 228.238107 119.128244 
L 228.350407 119.068221 
L 228.464365 119.020616 
L 228.809888 118.910919 
L 228.917667 118.852966 
L 228.920944 118.852966 
L 229.137539 118.743269 
L 229.249548 118.697734 
L 229.498613 118.588037 
L 229.604402 118.540432 
L 229.60971 118.540432 
L 229.864955 118.430735 
L 229.973687 118.393479 
L 229.975927 118.393479 
L 230.302374 118.283782 
L 230.410195 118.256875 
L 230.413305 118.256875 
L 230.707821 118.147178 
L 230.814896 118.107852 
L 230.818752 118.107852 
L 231.093073 117.998155 
L 231.203091 117.938132 
L 231.204169 117.938132 
L 231.47509 117.828435 
L 231.588011 117.7829 
L 231.830027 117.673203 
L 231.942658 117.592482 
L 232.241196 117.482785 
L 232.35304 117.44139 
L 232.602478 117.331693 
L 232.712953 117.282018 
L 232.713534 117.282018 
L 233.032102 117.172321 
L 233.14295 117.122647 
L 233.143074 117.122647 
L 233.434232 117.01295 
L 233.544582 116.977764 
L 233.544665 116.977764 
L 233.847765 116.868066 
L 233.959899 116.814253 
L 234.290161 116.704555 
L 234.397526 116.652811 
L 234.401258 116.652811 
L 234.708008 116.543114 
L 234.815165 116.49137 
L 234.81898 116.49137 
L 235.066677 116.381673 
L 235.178728 116.331999 
L 235.449109 116.222301 
L 235.558754 116.168488 
L 235.560205 116.168488 
L 235.807944 116.05879 
L 235.919787 116.015325 
L 236.168645 115.905628 
L 236.280447 115.864233 
L 236.524163 115.754536 
L 236.630325 115.71314 
L 236.635218 115.71314 
L 236.960339 115.603443 
L 237.073634 115.568257 
L 237.332362 115.45856 
L 237.444827 115.390258 
L 237.70936 115.280561 
L 237.819379 115.237096 
L 237.820416 115.237096 
L 238.064712 115.127398 
L 238.168842 115.083934 
L 238.175809 115.083934 
L 238.475675 114.974236 
L 238.588264 114.928702 
L 238.881039 114.819004 
L 238.992716 114.787958 
L 239.283251 114.678261 
L 239.390616 114.638935 
L 239.394348 114.638935 
L 239.669995 114.529238 
L 239.770725 114.494052 
L 239.781092 114.494052 
L 240.058772 114.384355 
L 240.1685 114.33882 
L 240.169703 114.33882 
L 240.419183 114.229123 
L 240.521986 114.202216 
L 240.530197 114.202216 
L 240.776028 114.092519 
L 240.888285 114.026286 
L 241.199721 113.916589 
L 241.31173 113.871054 
L 241.559427 113.761357 
L 241.672183 113.722032 
L 241.964169 113.612334 
L 242.075805 113.575079 
L 242.354604 113.465381 
L 242.447081 113.413637 
L 242.465701 113.413637 
L 242.808156 113.30394 
L 242.916225 113.264615 
L 242.919128 113.264615 
L 243.148371 113.154918 
L 243.253579 113.107313 
L 243.259468 113.107313 
L 243.492153 112.997616 
L 243.596242 112.970709 
L 243.603167 112.970709 
L 243.889763 112.861012 
L 243.991197 112.823756 
L 244.000693 112.823756 
L 244.263444 112.714059 
L 244.371306 112.670594 
L 244.374416 112.670594 
L 244.660721 112.560897 
L 244.771611 112.502943 
L 244.771735 112.502943 
L 245.069693 112.393246 
L 245.171667 112.339432 
L 245.18079 112.339432 
L 245.451378 112.229735 
L 245.562931 112.204898 
L 245.856286 112.095201 
L 245.968088 112.060015 
L 246.325181 111.950317 
L 246.433209 111.913062 
L 246.436195 111.913062 
L 246.751239 111.803364 
L 246.86445 111.749551 
L 247.117539 111.639853 
L 247.225567 111.588109 
L 247.228594 111.588109 
L 247.410935 111.478412 
L 247.522944 111.432877 
L 247.796767 111.32318 
L 247.902099 111.267297 
L 247.907864 111.267297 
L 248.138849 111.157599 
L 248.252019 111.107925 
L 248.605712 110.998228 
L 248.71403 110.958903 
L 248.716601 110.958903 
L 248.975785 110.849205 
L 249.087794 110.801601 
L 249.379076 110.691904 
L 249.47628 110.652578 
L 249.490173 110.652578 
L 249.749108 110.542881 
L 249.863108 110.470439 
L 250.124075 110.360742 
L 250.233554 110.333835 
L 250.235172 110.333835 
L 250.528485 110.224138 
L 250.642568 110.191022 
L 250.885579 110.081324 
L 250.998583 110.03579 
L 251.319515 109.926092 
L 251.42858 109.878488 
L 251.430612 109.878488 
L 251.735952 109.768791 
L 251.837013 109.727396 
L 251.846966 109.727396 
L 252.162673 109.617698 
L 252.274765 109.568024 
L 252.594079 109.458327 
L 252.704264 109.406583 
L 252.705135 109.406583 
L 252.984017 109.296886 
L 253.092335 109.251351 
L 253.095114 109.251351 
L 253.386146 109.141654 
L 253.497989 109.102328 
L 253.755971 108.992631 
L 253.864662 108.947096 
L 253.867068 108.947096 
L 254.117958 108.837399 
L 254.204463 108.802213 
L 254.229055 108.802213 
L 254.52017 108.692516 
L 254.633963 108.626283 
L 254.90679 108.516586 
L 255.018592 108.47933 
L 255.31373 108.369633 
L 255.402392 108.330308 
L 255.424827 108.330308 
L 255.752062 108.220611 
L 255.865357 108.162657 
L 256.121348 108.05296 
L 256.235513 108.003286 
L 256.511119 107.893588 
L 256.619728 107.841844 
L 256.622216 107.841844 
L 256.803147 107.732147 
L 256.91101 107.674194 
L 256.913871 107.674194 
L 257.138884 107.564497 
L 257.248944 107.510683 
L 257.249981 107.510683 
L 257.508792 107.400986 
L 257.621174 107.334753 
L 257.895412 107.225056 
L 258.004394 107.177452 
L 258.006426 107.177452 
L 258.277719 107.067754 
L 258.389603 107.026359 
L 258.656335 106.916662 
L 258.770086 106.852499 
L 259.077706 106.742802 
L 259.188305 106.701407 
L 259.188803 106.701407 
L 259.435795 106.59171 
L 259.547597 106.546175 
L 259.857747 106.436478 
L 259.960135 106.378524 
L 259.968761 106.378524 
L 260.268378 106.268827 
L 260.38047 106.219153 
L 260.629286 106.109456 
L 260.742498 106.057712 
L 260.973607 105.948014 
L 261.085326 105.906619 
L 261.341898 105.796922 
L 261.45399 105.747248 
L 261.683648 105.63755 
L 261.789436 105.579597 
L 261.794744 105.579597 
L 262.015403 105.4699 
L 262.127578 105.414016 
L 262.436775 105.304319 
L 262.549986 105.252575 
L 262.889082 105.142878 
L 262.99288 105.101483 
L 263.000179 105.101483 
L 263.304274 104.991785 
L 263.413132 104.946251 
L 263.41533 104.946251 
L 263.643412 104.836553 
L 263.755587 104.78274 
L 263.979895 104.673042 
L 264.08925 104.617159 
L 264.09095 104.617159 
L 264.420881 104.507462 
L 264.531895 104.459857 
L 264.793402 104.35016 
L 264.903503 104.312904 
L 264.904498 104.312904 
L 265.191716 104.205277 
L 265.30219 104.161812 
L 265.302771 104.161812 
L 265.533341 104.052115 
L 265.646885 104.014859 
L 265.88409 103.905162 
L 265.996306 103.845139 
L 266.279999 103.735441 
L 266.391967 103.689907 
L 266.614699 103.580209 
L 266.711821 103.540884 
L 266.725754 103.540884 
L 266.975483 103.431187 
L 267.072232 103.393931 
L 267.086539 103.393931 
L 267.282938 103.284234 
L 267.3908 103.23042 
L 267.394035 103.23042 
L 267.634558 103.120723 
L 267.749179 103.079328 
L 267.976681 102.96963 
L 268.088731 102.922026 
L 268.360108 102.812329 
L 268.471785 102.781282 
L 268.725744 102.671585 
L 268.841734 102.592934 
L 269.056463 102.483237 
L 269.168679 102.427353 
L 269.522828 102.317656 
L 269.636455 102.253493 
L 269.925041 102.143796 
L 270.034064 102.092052 
L 270.036138 102.092052 
L 270.285784 101.982355 
L 270.392651 101.922332 
L 270.396839 101.922332 
L 270.643333 101.812635 
L 270.751071 101.758821 
L 270.754389 101.758821 
L 270.980273 101.649124 
L 271.092489 101.59117 
L 271.307052 101.481473 
L 271.419103 101.431799 
L 271.636444 101.322102 
L 271.751481 101.276567 
L 272.000795 101.16687 
L 272.109984 101.106847 
L 272.111892 101.106847 
L 272.366348 100.997149 
L 272.470934 100.949545 
L 272.477404 100.949545 
L 272.704905 100.839848 
L 272.812643 100.779825 
L 272.816002 100.779825 
L 273.061211 100.670127 
L 273.156134 100.620453 
L 273.172017 100.620453 
L 273.399768 100.510756 
L 273.512772 100.465221 
L 273.773283 100.355524 
L 273.881684 100.30378 
L 273.884338 100.30378 
L 274.120258 100.194083 
L 274.224429 100.144408 
L 274.231313 100.144408 
L 274.419916 100.034711 
L 274.532465 99.999525 
L 274.787543 99.889828 
L 274.899511 99.846363 
L 275.161308 99.736666 
L 275.270248 99.680782 
L 275.272404 99.680782 
L 275.478093 99.571085 
L 275.587614 99.513132 
L 275.589065 99.513132 
L 275.827805 99.403434 
L 275.939524 99.370318 
L 276.148032 99.260621 
L 276.250628 99.217156 
L 276.259129 99.217156 
L 276.474065 99.107459 
L 276.58624 99.051575 
L 276.812829 98.941878 
L 276.926124 98.888064 
L 277.186552 98.778367 
L 277.293709 98.720414 
L 277.297607 98.720414 
L 277.499398 98.610716 
L 277.609167 98.552763 
L 277.610453 98.552763 
L 277.863831 98.443066 
L 277.976006 98.389252 
L 278.247507 98.279555 
L 278.36105 98.219532 
L 278.605181 98.109835 
L 278.718559 98.053951 
L 278.978489 97.944254 
L 279.090664 97.89044 
L 279.321068 97.780743 
L 279.432953 97.739348 
L 279.680858 97.62965 
L 279.791083 97.559279 
L 279.791954 97.559279 
L 280.067104 97.449581 
L 280.179528 97.383349 
L 280.399731 97.273652 
L 280.510496 97.211559 
L 280.51062 97.211559 
L 280.810859 97.101862 
L 280.91615 97.054257 
L 280.921914 97.054257 
L 281.130132 96.94456 
L 281.242432 96.878328 
L 281.468814 96.76863 
L 281.57651 96.718956 
L 281.579869 96.718956 
L 281.811559 96.609259 
L 281.924895 96.551306 
L 282.226419 96.441608 
L 282.338802 96.377446 
L 282.629337 96.267748 
L 282.741719 96.199446 
L 283.007621 96.089749 
L 283.110922 96.027656 
L 283.118676 96.027656 
L 283.34709 95.917959 
L 283.459265 95.860006 
L 283.665244 95.750309 
L 283.77605 95.710983 
L 284.123855 95.601286 
L 284.236154 95.541263 
L 284.438857 95.431566 
L 284.551156 95.369473 
L 284.795163 95.259776 
L 284.905264 95.191473 
L 284.906259 95.191473 
L 285.156445 95.081776 
L 285.269988 95.019683 
L 285.528177 94.909986 
L 285.6389 94.860312 
L 285.639232 94.860312 
L 285.84181 94.750615 
L 285.952202 94.690592 
L 285.952783 94.690592 
L 286.21769 94.580894 
L 286.328247 94.537429 
L 286.328621 94.537429 
L 286.549943 94.427732 
L 286.664814 94.365639 
L 286.922339 94.255942 
L 287.028086 94.197989 
L 287.033187 94.197989 
L 287.278437 94.088292 
L 287.391566 94.036548 
L 287.608949 93.92685 
L 287.712166 93.864758 
L 287.71988 93.864758 
L 287.925734 93.75506 
L 288.039112 93.699177 
L 288.272917 93.58948 
L 288.371946 93.531526 
L 288.383972 93.531526 
L 288.689685 93.421829 
L 288.80244 93.382504 
L 289.054865 93.272806 
L 289.15829 93.225202 
L 289.16592 93.225202 
L 289.410922 93.115505 
L 289.523221 93.055482 
L 289.767766 92.945784 
L 289.8782 92.89611 
L 289.878656 92.89611 
L 290.104374 92.786413 
L 290.217876 92.728459 
L 290.505964 92.618762 
L 290.619342 92.556669 
L 290.849912 92.446972 
L 290.960055 92.399368 
L 290.960926 92.399368 
L 291.206342 92.28967 
L 291.313956 92.227578 
L 291.317273 92.227578 
L 291.578116 92.11788 
L 291.690125 92.061997 
L 291.959967 91.9523 
L 292.073552 91.892277 
L 292.294708 91.782579 
L 292.408708 91.737045 
L 292.725286 91.627347 
L 292.837212 91.583882 
L 293.134341 91.474185 
L 293.231711 91.436929 
L 293.245355 91.436929 
L 293.484011 91.327232 
L 293.595813 91.287907 
L 293.832438 91.17821 
L 293.944488 91.118186 
L 294.238051 91.008489 
L 294.349769 90.971234 
L 294.607046 90.861536 
L 294.719677 90.809792 
L 294.907617 90.700095 
L 295.020206 90.664909 
L 295.333757 90.555212 
L 295.445849 90.501398 
L 295.675921 90.391701 
L 295.771426 90.356515 
L 295.786977 90.356515 
L 296.029863 90.246818 
L 296.141707 90.205422 
L 296.449078 90.095725 
L 296.557562 90.048121 
L 296.560175 90.048121 
L 296.79286 89.938423 
L 296.904579 89.903238 
L 297.162643 89.79354 
L 297.272496 89.750075 
L 297.27374 89.750075 
L 297.510655 89.640378 
L 297.619264 89.582425 
L 297.621669 89.582425 
L 297.895906 89.472728 
L 298.007957 89.423053 
L 298.257354 89.313356 
L 298.369903 89.240914 
L 298.659318 89.131217 
L 298.772281 89.083613 
L 299.014338 88.973915 
L 299.118675 88.920102 
L 299.125393 88.920102 
L 299.4078 88.810404 
L 299.521053 88.75866 
L 299.781026 88.648963 
L 299.894154 88.599289 
L 300.109671 88.489592 
L 300.224873 88.441987 
L 300.450301 88.33229 
L 300.563886 88.292965 
L 300.840446 88.183267 
L 300.956353 88.127384 
L 301.198286 88.017687 
L 301.306148 87.953524 
L 301.309383 87.953524 
L 301.577441 87.843827 
L 301.691856 87.790013 
L 301.956721 87.680316 
L 302.062759 87.632711 
L 302.067818 87.632711 
L 302.327168 87.523014 
L 302.439135 87.4692 
L 302.713788 87.359503 
L 302.826792 87.313968 
L 303.233442 87.204271 
L 303.346778 87.167015 
L 303.651412 87.057318 
L 303.764541 87.005574 
L 304.019371 86.895877 
L 304.132583 86.842063 
L 304.451939 86.732366 
L 304.556152 86.684761 
L 304.563036 86.684761 
L 304.865058 86.575064 
L 304.978104 86.52539 
L 305.255244 86.415693 
L 305.368414 86.366018 
L 305.626188 86.256321 
L 305.736041 86.190089 
L 305.737161 86.190089 
L 306.00298 86.080391 
L 306.116565 86.020368 
L 306.507 85.910671 
L 306.61876 85.875485 
L 306.885077 85.765788 
L 306.999367 85.716114 
L 307.283682 85.606417 
L 307.395732 85.552603 
L 307.691285 85.442906 
L 307.80234 85.384952 
L 308.018894 85.275255 
L 308.131483 85.237999 
L 308.411817 85.128302 
L 308.524282 85.05793 
L 308.844302 84.948233 
L 308.952579 84.88821 
L 308.955316 84.88821 
L 309.245146 84.778513 
L 309.357238 84.728838 
L 309.591706 84.619141 
L 309.703798 84.596374 
L 309.950417 84.486677 
L 310.05604 84.437002 
L 310.061472 84.437002 
L 310.175762 84.385258 
L 310.444526 84.275561 
L 310.558567 84.230026 
L 310.893765 84.120329 
L 311.005566 84.083073 
L 311.340723 83.973376 
L 311.45352 83.931981 
L 311.753344 83.822284 
L 311.865519 83.76847 
L 312.149626 83.658773 
L 312.261469 83.617377 
L 312.514143 83.50768 
L 312.625861 83.472494 
L 312.881479 83.362797 
L 312.993405 83.319332 
L 313.265777 83.209635 
L 313.377578 83.170309 
L 313.647711 83.060612 
L 313.754743 83.029566 
L 313.758807 83.029566 
L 314.08426 82.919868 
L 314.189882 82.872264 
L 314.195356 82.872264 
L 314.564393 82.762567 
L 314.677895 82.725311 
L 315.060451 82.615614 
L 315.172253 82.574219 
L 315.474233 82.464521 
L 315.585993 82.431405 
L 315.841445 82.321708 
L 315.953911 82.253406 
L 316.267378 82.143709 
L 316.381336 82.098174 
L 316.677636 81.988477 
L 316.791096 81.951221 
L 317.130068 81.841524 
L 317.241869 81.804268 
L 317.588056 81.694571 
L 317.699775 81.663524 
L 318.027135 81.553827 
L 318.139766 81.516571 
L 318.50561 81.406874 
L 318.62019 81.367549 
L 318.932289 81.257851 
L 319.044091 81.222666 
L 319.38074 81.112968 
L 319.492625 81.071573 
L 319.836199 80.961876 
L 319.946259 80.92462 
L 319.947296 80.92462 
L 320.218548 80.814923 
L 320.330308 80.781807 
L 320.686033 80.674179 
L 320.797918 80.630714 
L 321.048103 80.521017 
L 321.161315 80.467203 
L 321.489504 80.357506 
L 321.603669 80.309902 
L 321.972001 80.200204 
L 322.086167 80.1526 
L 322.40121 80.042903 
L 322.51409 79.999438 
L 322.868778 79.88974 
L 322.982571 79.846275 
L 323.317644 79.736578 
L 323.429404 79.701392 
L 323.726243 79.591695 
L 323.839745 79.55237 
L 324.202602 79.442672 
L 324.314611 79.421975 
L 324.629904 79.312277 
L 324.741581 79.279161 
L 325.087022 79.169464 
L 325.196874 79.136348 
L 325.197745 79.136348 
L 325.508725 79.026651 
L 325.620651 78.985255 
L 326.012081 78.875558 
L 326.1238 78.840372 
L 326.550521 78.730675 
L 326.662571 78.681001 
L 327.020494 78.571303 
L 327.132835 78.538187 
L 327.51452 78.42849 
L 327.626446 78.385025 
L 327.997266 78.275328 
L 328.110602 78.240142 
L 328.543502 78.130445 
L 328.651032 78.08698 
L 328.654599 78.08698 
L 329.034666 77.977282 
L 329.143938 77.942097 
L 329.14568 77.942097 
L 329.532673 77.832399 
L 329.630375 77.795144 
L 329.643728 77.795144 
L 329.938576 77.685446 
L 330.048968 77.625423 
L 330.04959 77.625423 
L 330.405398 77.515726 
L 330.518651 77.48261 
L 330.810264 77.372913 
L 330.91539 77.331517 
L 330.921112 77.331517 
L 331.215089 77.22182 
L 331.32714 77.172146 
L 331.719483 77.062449 
L 331.832445 77.016914 
L 332.16304 76.907217 
L 332.274468 76.888589 
L 332.667101 76.778892 
L 332.775005 76.749915 
L 332.778032 76.749915 
L 333.103443 76.640218 
L 333.21512 76.609171 
L 333.556538 76.499474 
L 333.662203 76.466358 
L 333.667594 76.466358 
L 333.99823 76.356661 
L 334.110031 76.319405 
L 334.513778 76.209708 
L 334.627156 76.170382 
L 334.977158 76.060685 
L 335.093065 76.01722 
L 335.442943 75.907523 
L 335.554745 75.868197 
L 335.905286 75.7585 
L 336.018539 75.725384 
L 336.431865 75.615687 
L 336.545284 75.580501 
L 336.961265 75.470803 
L 337.070744 75.431478 
L 337.072361 75.431478 
L 337.437666 75.321781 
L 337.541381 75.280386 
L 337.548763 75.280386 
L 337.993647 75.170688 
L 338.106527 75.127223 
L 338.520558 75.017526 
L 338.63294 74.98441 
L 338.850904 74.874713 
L 338.96283 74.831248 
L 339.339539 74.72155 
L 339.452211 74.684295 
L 339.776917 74.574598 
L 339.888843 74.533202 
L 340.237187 74.423505 
L 340.341317 74.38418 
L 340.348283 74.38418 
L 340.664032 74.274482 
L 340.775585 74.241366 
L 341.062968 74.131669 
L 341.173484 74.092344 
L 341.173982 74.092344 
L 341.439553 73.982646 
L 341.554133 73.943321 
L 341.944734 73.833624 
L 342.0324 73.804647 
L 342.05583 73.804647 
L 342.425862 73.69495 
L 342.537581 73.661834 
L 342.987193 73.552136 
L 343.093728 73.52316 
L 343.098207 73.52316 
L 343.398238 73.413462 
L 343.510165 73.372067 
L 343.895623 73.26237 
L 344.007342 73.225114 
L 344.34001 73.115417 
L 344.451646 73.084371 
L 344.841334 72.974673 
L 344.955085 72.943627 
L 345.371356 72.83393 
L 345.485189 72.790465 
L 345.896235 72.680767 
L 346.00841 72.65593 
L 346.28302 72.546233 
L 346.395817 72.500698 
L 346.740304 72.391001 
L 346.852313 72.343397 
L 347.266842 72.233699 
L 347.378934 72.184025 
L 347.860104 72.074328 
L 347.972238 72.020514 
L 348.396512 71.910817 
L 348.508272 71.877701 
L 348.94478 71.768003 
L 349.056416 71.755585 
L 349.398124 71.645888 
L 349.51175 71.606562 
L 349.927274 71.496865 
L 350.034431 71.45133 
L 350.03833 71.45133 
L 350.348604 71.341633 
L 350.441123 71.325075 
L 350.459701 71.325075 
L 350.80481 71.215378 
L 350.917856 71.184331 
L 351.263379 71.074634 
L 351.375056 71.043588 
L 351.756368 70.93389 
L 351.86423 70.900774 
L 351.867299 70.900774 
L 352.245874 70.791077 
L 352.358339 70.757961 
L 352.708424 70.648263 
L 352.80679 70.615147 
L 352.819521 70.615147 
L 353.140578 70.50545 
L 353.253499 70.461985 
L 353.657411 70.352288 
L 353.761044 70.308823 
L 353.768508 70.308823 
L 354.131076 70.199126 
L 354.243085 70.153591 
L 354.641648 70.043894 
L 354.748888 70.016987 
L 354.752703 70.016987 
L 355.180544 69.90729 
L 355.291889 69.884522 
L 355.719315 69.774825 
L 355.831324 69.752058 
L 356.246433 69.64236 
L 356.360143 69.600965 
L 356.740335 69.491268 
L 356.851805 69.464361 
L 357.209769 69.354664 
L 357.294781 69.313269 
L 357.320866 69.313269 
L 357.68447 69.203571 
L 357.79764 69.172525 
L 358.179781 69.062828 
L 358.292039 69.004874 
L 358.686248 68.895177 
L 358.798506 68.835154 
L 359.244551 68.725457 
L 359.356809 68.667503 
L 359.738536 68.557806 
L 359.851001 68.52469 
L 360.236543 68.414993 
L 360.348261 68.383946 
L 360.771582 68.274249 
L 360.883217 68.247342 
L 361.255821 68.137645 
L 361.368493 68.100389 
L 361.793306 67.990692 
L 361.906974 67.947227 
L 362.228653 67.83753 
L 362.339998 67.806483 
L 362.7216 67.696786 
L 362.823615 67.6616 
L 362.832573 67.6616 
L 363.211479 67.551903 
L 363.32353 67.529136 
L 363.69858 67.419438 
L 363.810132 67.390462 
L 364.291386 67.280765 
L 364.397174 67.239369 
L 364.402399 67.239369 
L 364.830281 67.129672 
L 364.941959 67.100695 
L 365.411517 66.990998 
L 365.522324 66.951673 
L 365.522573 66.951673 
L 365.878132 66.841975 
L 365.978986 66.812999 
L 365.989229 66.812999 
L 366.406494 66.703302 
L 366.519208 66.678464 
L 366.98715 66.568767 
L 367.09891 66.531512 
L 367.463053 66.421814 
L 367.573238 66.390768 
L 367.574109 66.390768 
L 367.968359 66.281071 
L 368.073152 66.250024 
L 368.079373 66.250024 
L 368.578541 66.140327 
L 368.673132 66.11549 
L 368.689347 66.11549 
L 369.16579 66.005793 
L 369.269546 65.978886 
L 369.276762 65.978886 
L 369.819058 65.869188 
L 369.931814 65.85263 
L 370.332409 65.742933 
L 370.444916 65.709817 
L 370.852312 65.60012 
L 370.962911 65.558724 
L 370.963367 65.558724 
L 371.43728 65.449027 
L 371.547713 65.417981 
L 371.548294 65.417981 
L 372.070809 65.308284 
L 372.166977 65.287586 
L 372.181864 65.287586 
L 372.68012 65.177889 
L 372.789599 65.155121 
L 372.791092 65.155121 
L 373.287482 65.045424 
L 373.377636 65.026796 
L 373.398371 65.026796 
L 373.831146 64.917099 
L 373.94357 64.883983 
L 374.356523 64.774286 
L 374.468034 64.7391 
L 374.909933 64.629402 
L 375.015722 64.592147 
L 375.02103 64.592147 
L 375.604132 64.482449 
L 375.709962 64.453473 
L 375.715187 64.453473 
L 376.233348 64.343776 
L 376.342371 64.310659 
L 376.344445 64.310659 
L 376.845189 64.200962 
L 376.957447 64.174055 
L 377.464494 64.064358 
L 377.576213 64.033312 
L 377.985641 63.923614 
L 378.09765 63.902917 
L 378.603577 63.79322 
L 378.710776 63.768382 
L 378.714632 63.768382 
L 379.186679 63.658685 
L 379.298357 63.627639 
L 379.63795 63.517941 
L 379.750208 63.491035 
L 380.259826 63.381337 
L 380.360224 63.36271 
L 380.370923 63.36271 
L 380.725197 63.253012 
L 380.836832 63.221966 
L 381.331231 63.112269 
L 381.444526 63.079152 
L 381.822022 62.969455 
L 381.933783 62.936339 
L 382.339603 62.826642 
L 382.45128 62.787316 
L 382.86527 62.677619 
L 382.978357 62.630015 
L 383.336405 62.520317 
L 383.449948 62.49341 
L 383.863772 62.383713 
L 383.975366 62.358876 
L 384.371731 62.249179 
L 384.484777 62.220202 
L 384.838677 62.110505 
L 384.950604 62.06911 
L 385.390014 61.959412 
L 385.501318 61.942854 
L 385.898056 61.833157 
L 386.0116 61.80625 
L 386.395192 61.696553 
L 386.507492 61.667576 
L 386.956606 61.557879 
L 387.069362 61.516484 
L 387.438274 61.406787 
L 387.550242 61.363322 
L 387.902939 61.253624 
L 388.007982 61.210159 
L 388.013995 61.210159 
L 388.389832 61.100462 
L 388.501676 61.056997 
L 388.873574 60.9473 
L 388.976252 60.912114 
L 388.984587 60.912114 
L 389.347072 60.802417 
L 389.460035 60.756882 
L 389.806678 60.647185 
L 389.908361 60.616138 
L 389.917775 60.616138 
L 390.275864 60.508511 
L 390.390154 60.458837 
L 390.738124 60.349139 
L 390.850299 60.322233 
L 391.205319 60.212535 
L 391.3109 60.17528 
L 391.316416 60.17528 
L 391.741353 60.065582 
L 391.853196 60.024187 
L 392.231398 59.91449 
L 392.339509 59.875164 
L 392.342453 59.875164 
L 392.65957 59.765467 
L 392.771994 59.734421 
L 393.12436 59.624724 
L 393.235664 59.591607 
L 393.518486 59.48191 
L 393.630827 59.452934 
L 393.962209 59.343236 
L 394.06721 59.30805 
L 394.073181 59.30805 
L 394.502017 59.198353 
L 394.610709 59.171446 
L 394.613114 59.171446 
L 394.936742 59.061749 
L 395.032412 59.024493 
L 395.047838 59.024493 
L 395.460584 58.914796 
L 395.573256 58.87754 
L 395.842725 58.767843 
L 395.954817 58.716099 
L 396.241827 58.606402 
L 396.353463 58.579495 
L 396.641759 58.469798 
L 396.753519 58.436682 
L 397.056868 58.326984 
L 397.152538 58.295938 
L 397.167923 58.295938 
L 397.48504 58.186241 
L 397.596013 58.140706 
L 397.920097 58.031009 
L 398.027627 57.985474 
L 398.030944 57.985474 
L 398.391439 57.875777 
L 398.503365 57.832312 
L 398.796886 57.722614 
L 398.893924 57.683289 
L 398.907899 57.683289 
L 399.181764 57.573592 
L 399.293939 57.519778 
L 399.653313 57.410081 
L 399.763746 57.383174 
L 399.764368 57.383174 
L 400.105952 57.273477 
L 400.217588 57.24657 
L 400.541796 57.136872 
L 400.653805 57.089268 
L 401.070242 56.979571 
L 401.176362 56.931966 
L 401.181048 56.931966 
L 401.534658 56.822269 
L 401.64364 56.791223 
L 401.645589 56.791223 
L 402.013921 56.681525 
L 402.124562 56.631851 
L 402.124893 56.631851 
L 402.497704 56.522154 
L 402.605068 56.486968 
L 402.60822 56.486968 
L 402.907007 56.377271 
L 402.997784 56.331736 
L 403.018063 56.331736 
L 403.322324 56.222039 
L 403.434292 56.170295 
L 403.79744 56.060597 
L 403.892529 56.031621 
L 403.908288 56.031621 
L 404.253314 55.921924 
L 404.360968 55.888807 
L 404.363954 55.888807 
L 404.735769 55.77911 
L 404.847074 55.739785 
L 405.134167 55.630087 
L 405.240702 55.599041 
L 405.24518 55.599041 
L 405.726807 55.489344 
L 405.836037 55.447949 
L 405.836991 55.447949 
L 406.172728 55.338251 
L 406.272752 55.305135 
L 406.28341 55.305135 
L 406.649876 55.195438 
L 406.760019 55.17474 
L 407.188398 55.065043 
L 407.298914 55.038136 
L 407.756613 54.928439 
L 407.851951 54.907741 
L 407.867668 54.907741 
L 408.399058 54.798044 
L 408.504888 54.779416 
L 408.50945 54.779416 
L 408.953588 54.669719 
L 409.065058 54.651091 
L 409.619504 54.541394 
L 409.709825 54.520696 
L 409.730228 54.520696 
L 410.614813 54.410999 
L 410.72479 54.390301 
L 411.738719 54.280604 
L 411.817137 54.268186 
L 411.848654 54.268186 
L 414.237917 54.158488 
L 414.279885 54.154349 
L 414.305098 54.154349 
L 414.72 54.144 
L 414.72 54.144 
" clip-path="url(#p6ae68e53a0)" style="fill: none; stroke: #ff8c00; stroke-width: 1.5; stroke-linecap: square"/>
   </g>
   <g id="line2d_14">
    <path d="M 74.605714 307.584 
L 414.72 54.144 
" clip-path="url(#p6ae68e53a0)" style="fill: none; stroke-dasharray: 5.55,2.4; stroke-dashoffset: 0; stroke: #0000ff; stroke-width: 1.5"/>
   </g>
   <g id="patch_3">
    <path d="M 57.6 307.584 
L 57.6 41.472 
" style="fill: none; stroke: #000000; stroke-width: 0.8; stroke-linejoin: miter; stroke-linecap: square"/>
   </g>
   <g id="patch_4">
    <path d="M 414.72 307.584 
L 414.72 41.472 
" style="fill: none; stroke: #000000; stroke-width: 0.8; stroke-linejoin: miter; stroke-linecap: square"/>
   </g>
   <g id="patch_5">
    <path d="M 57.6 307.584 
L 414.72 307.584 
" style="fill: none; stroke: #000000; stroke-width: 0.8; stroke-linejoin: miter; stroke-linecap: square"/>
   </g>
   <g id="patch_6">
    <path d="M 57.6 41.472 
L 414.72 41.472 
" style="fill: none; stroke: #000000; stroke-width: 0.8; stroke-linejoin: miter; stroke-linecap: square"/>
   </g>
   <g id="text_15">
    <!-- ROC CURVE -->
    <g transform="translate(200.855625 35.472)scale(0.12 -0.12)">
     <defs>
      <path id="DejaVuSans-4f" d="M 2522 4238 
Q 1834 4238 1429 3725 
Q 1025 3213 1025 2328 
Q 1025 1447 1429 934 
Q 1834 422 2522 422 
Q 3209 422 3611 934 
Q 4013 1447 4013 2328 
Q 4013 3213 3611 3725 
Q 3209 4238 2522 4238 
z
M 2522 4750 
Q 3503 4750 4090 4092 
Q 4678 3434 4678 2328 
Q 4678 1225 4090 567 
Q 3503 -91 2522 -91 
Q 1538 -91 948 565 
Q 359 1222 359 2328 
Q 359 3434 948 4092 
Q 1538 4750 2522 4750 
z
" transform="scale(0.015625)"/>
      <path id="DejaVuSans-43" d="M 4122 4306 
L 4122 3641 
Q 3803 3938 3442 4084 
Q 3081 4231 2675 4231 
Q 1875 4231 1450 3742 
Q 1025 3253 1025 2328 
Q 1025 1406 1450 917 
Q 1875 428 2675 428 
Q 3081 428 3442 575 
Q 3803 722 4122 1019 
L 4122 359 
Q 3791 134 3420 21 
Q 3050 -91 2638 -91 
Q 1578 -91 968 557 
Q 359 1206 359 2328 
Q 359 3453 968 4101 
Q 1578 4750 2638 4750 
Q 3056 4750 3426 4639 
Q 3797 4528 4122 4306 
z
" transform="scale(0.015625)"/>
      <path id="DejaVuSans-55" d="M 556 4666 
L 1191 4666 
L 1191 1831 
Q 1191 1081 1462 751 
Q 1734 422 2344 422 
Q 2950 422 3222 751 
Q 3494 1081 3494 1831 
L 3494 4666 
L 4128 4666 
L 4128 1753 
Q 4128 841 3676 375 
Q 3225 -91 2344 -91 
Q 1459 -91 1007 375 
Q 556 841 556 1753 
L 556 4666 
z
" transform="scale(0.015625)"/>
      <path id="DejaVuSans-56" d="M 1831 0 
L 50 4666 
L 709 4666 
L 2188 738 
L 3669 4666 
L 4325 4666 
L 2547 0 
L 1831 0 
z
" transform="scale(0.015625)"/>
      <path id="DejaVuSans-45" d="M 628 4666 
L 3578 4666 
L 3578 4134 
L 1259 4134 
L 1259 2753 
L 3481 2753 
L 3481 2222 
L 1259 2222 
L 1259 531 
L 3634 531 
L 3634 0 
L 628 0 
L 628 4666 
z
" transform="scale(0.015625)"/>
     </defs>
     <use xlink:href="#DejaVuSans-52"/>
     <use xlink:href="#DejaVuSans-4f" x="69.482422"/>
     <use xlink:href="#DejaVuSans-43" x="148.193359"/>
     <use xlink:href="#DejaVuSans-20" x="218.017578"/>
     <use xlink:href="#DejaVuSans-43" x="249.804688"/>
     <use xlink:href="#DejaVuSans-55" x="319.628906"/>
     <use xlink:href="#DejaVuSans-52" x="392.822266"/>
     <use xlink:href="#DejaVuSans-56" x="456.804688"/>
     <use xlink:href="#DejaVuSans-45" x="525.212891"/>
    </g>
   </g>
   <g id="legend_1">
    <g id="patch_7">
     <path d="M 234.97 302.584 
L 407.72 302.584 
Q 409.72 302.584 409.72 300.584 
L 409.72 286.905875 
Q 409.72 284.905875 407.72 284.905875 
L 234.97 284.905875 
Q 232.97 284.905875 232.97 286.905875 
L 232.97 300.584 
Q 232.97 302.584 234.97 302.584 
z
" style="fill: #ffffff; opacity: 0.8; stroke: #cccccc; stroke-linejoin: miter"/>
    </g>
    <g id="line2d_15">
     <path d="M 236.97 293.004312 
L 246.97 293.004312 
L 256.97 293.004312 
" style="fill: none; stroke: #ff8c00; stroke-width: 1.5; stroke-linecap: square"/>
    </g>
    <g id="text_16">
     <!-- ROC curve (ROC AUC=0.74) -->
     <g transform="translate(264.97 296.504312)scale(0.1 -0.1)">
      <defs>
       <path id="DejaVuSans-63" d="M 3122 3366 
L 3122 2828 
Q 2878 2963 2633 3030 
Q 2388 3097 2138 3097 
Q 1578 3097 1268 2742 
Q 959 2388 959 1747 
Q 959 1106 1268 751 
Q 1578 397 2138 397 
Q 2388 397 2633 464 
Q 2878 531 3122 666 
L 3122 134 
Q 2881 22 2623 -34 
Q 2366 -91 2075 -91 
Q 1284 -91 818 406 
Q 353 903 353 1747 
Q 353 2603 823 3093 
Q 1294 3584 2113 3584 
Q 2378 3584 2631 3529 
Q 2884 3475 3122 3366 
z
" transform="scale(0.015625)"/>
       <path id="DejaVuSans-28" d="M 1984 4856 
Q 1566 4138 1362 3434 
Q 1159 2731 1159 2009 
Q 1159 1288 1364 580 
Q 1569 -128 1984 -844 
L 1484 -844 
Q 1016 -109 783 600 
Q 550 1309 550 2009 
Q 550 2706 781 3412 
Q 1013 4119 1484 4856 
L 1984 4856 
z
" transform="scale(0.015625)"/>
       <path id="DejaVuSans-41" d="M 2188 4044 
L 1331 1722 
L 3047 1722 
L 2188 4044 
z
M 1831 4666 
L 2547 4666 
L 4325 0 
L 3669 0 
L 3244 1197 
L 1141 1197 
L 716 0 
L 50 0 
L 1831 4666 
z
" transform="scale(0.015625)"/>
       <path id="DejaVuSans-3d" d="M 678 2906 
L 4684 2906 
L 4684 2381 
L 678 2381 
L 678 2906 
z
M 678 1631 
L 4684 1631 
L 4684 1100 
L 678 1100 
L 678 1631 
z
" transform="scale(0.015625)"/>
       <path id="DejaVuSans-37" d="M 525 4666 
L 3525 4666 
L 3525 4397 
L 1831 0 
L 1172 0 
L 2766 4134 
L 525 4134 
L 525 4666 
z
" transform="scale(0.015625)"/>
       <path id="DejaVuSans-29" d="M 513 4856 
L 1013 4856 
Q 1481 4119 1714 3412 
Q 1947 2706 1947 2009 
Q 1947 1309 1714 600 
Q 1481 -109 1013 -844 
L 513 -844 
Q 928 -128 1133 580 
Q 1338 1288 1338 2009 
Q 1338 2731 1133 3434 
Q 928 4138 513 4856 
z
" transform="scale(0.015625)"/>
      </defs>
      <use xlink:href="#DejaVuSans-52"/>
      <use xlink:href="#DejaVuSans-4f" x="69.482422"/>
      <use xlink:href="#DejaVuSans-43" x="148.193359"/>
      <use xlink:href="#DejaVuSans-20" x="218.017578"/>
      <use xlink:href="#DejaVuSans-63" x="249.804688"/>
      <use xlink:href="#DejaVuSans-75" x="304.785156"/>
      <use xlink:href="#DejaVuSans-72" x="368.164062"/>
      <use xlink:href="#DejaVuSans-76" x="409.277344"/>
      <use xlink:href="#DejaVuSans-65" x="468.457031"/>
      <use xlink:href="#DejaVuSans-20" x="529.980469"/>
      <use xlink:href="#DejaVuSans-28" x="561.767578"/>
      <use xlink:href="#DejaVuSans-52" x="600.78125"/>
      <use xlink:href="#DejaVuSans-4f" x="670.263672"/>
      <use xlink:href="#DejaVuSans-43" x="748.974609"/>
      <use xlink:href="#DejaVuSans-20" x="818.798828"/>
      <use xlink:href="#DejaVuSans-41" x="850.585938"/>
      <use xlink:href="#DejaVuSans-55" x="918.994141"/>
      <use xlink:href="#DejaVuSans-43" x="992.1875"/>
      <use xlink:href="#DejaVuSans-3d" x="1062.011719"/>
      <use xlink:href="#DejaVuSans-30" x="1145.800781"/>
      <use xlink:href="#DejaVuSans-2e" x="1209.423828"/>
      <use xlink:href="#DejaVuSans-37" x="1241.210938"/>
      <use xlink:href="#DejaVuSans-34" x="1304.833984"/>
      <use xlink:href="#DejaVuSans-29" x="1368.457031"/>
     </g>
    </g>
   </g>
  </g>
 </g>
 <defs>
  <clipPath id="p6ae68e53a0">
   <rect x="57.6" y="41.472" width="357.12" height="266.112"/>
  </clipPath>
 </defs>
</svg>
