<?xml version="1.0" encoding="utf-8" standalone="no"?>
<!DOCTYPE svg PUBLIC "-//W3C//DTD SVG 1.1//EN"
  "http://www.w3.org/Graphics/SVG/1.1/DTD/svg11.dtd">
<svg xmlns:xlink="http://www.w3.org/1999/xlink" width="460.8pt" height="345.6pt" viewBox="0 0 460.8 345.6" xmlns="http://www.w3.org/2000/svg" version="1.1">
 <metadata>
  <rdf:RDF xmlns:dc="http://purl.org/dc/elements/1.1/" xmlns:cc="http://creativecommons.org/ns#" xmlns:rdf="http://www.w3.org/1999/02/22-rdf-syntax-ns#">
   <cc:Work>
    <dc:type rdf:resource="http://purl.org/dc/dcmitype/StillImage"/>
    <dc:date>2022-05-20T12:55:29.941656</dc:date>
    <dc:format>image/svg+xml</dc:format>
    <dc:creator>
     <cc:Agent>
      <dc:title>Matplotlib v3.5.1, https://matplotlib.org/</dc:title>
     </cc:Agent>
    </dc:creator>
   </cc:Work>
  </rdf:RDF>
 </metadata>
 <defs>
  <style type="text/css">*{stroke-linejoin: round; stroke-linecap: butt}</style>
 </defs>
 <g id="figure_1">
  <g id="patch_1">
   <path d="M 0 345.6 
L 460.8 345.6 
L 460.8 0 
L 0 0 
z
" style="fill: #ffffff"/>
  </g>
  <g id="axes_1">
   <g id="patch_2">
    <path d="M 57.6 307.584 
L 414.72 307.584 
L 414.72 41.472 
L 57.6 41.472 
z
" style="fill: #ffffff"/>
   </g>
   <g id="matplotlib.axis_1">
    <g id="xtick_1">
     <g id="line2d_1">
      <defs>
       <path id="m3892960f95" d="M 0 0 
L 0 3.5 
" style="stroke: #000000; stroke-width: 0.8"/>
      </defs>
      <g>
       <use xlink:href="#m3892960f95" x="74.605714" y="307.584" style="stroke: #000000; stroke-width: 0.8"/>
      </g>
     </g>
     <g id="text_1">
      <!-- 0.0 -->
      <g transform="translate(66.654152 322.182437)scale(0.1 -0.1)">
       <defs>
        <path id="DejaVuSans-30" d="M 2034 4250 
Q 1547 4250 1301 3770 
Q 1056 3291 1056 2328 
Q 1056 1369 1301 889 
Q 1547 409 2034 409 
Q 2525 409 2770 889 
Q 3016 1369 3016 2328 
Q 3016 3291 2770 3770 
Q 2525 4250 2034 4250 
z
M 2034 4750 
Q 2819 4750 3233 4129 
Q 3647 3509 3647 2328 
Q 3647 1150 3233 529 
Q 2819 -91 2034 -91 
Q 1250 -91 836 529 
Q 422 1150 422 2328 
Q 422 3509 836 4129 
Q 1250 4750 2034 4750 
z
" transform="scale(0.015625)"/>
        <path id="DejaVuSans-2e" d="M 684 794 
L 1344 794 
L 1344 0 
L 684 0 
L 684 794 
z
" transform="scale(0.015625)"/>
       </defs>
       <use xlink:href="#DejaVuSans-30"/>
       <use xlink:href="#DejaVuSans-2e" x="63.623047"/>
       <use xlink:href="#DejaVuSans-30" x="95.410156"/>
      </g>
     </g>
    </g>
    <g id="xtick_2">
     <g id="line2d_2">
      <g>
       <use xlink:href="#m3892960f95" x="142.628571" y="307.584" style="stroke: #000000; stroke-width: 0.8"/>
      </g>
     </g>
     <g id="text_2">
      <!-- 0.2 -->
      <g transform="translate(134.677009 322.182437)scale(0.1 -0.1)">
       <defs>
        <path id="DejaVuSans-32" d="M 1228 531 
L 3431 531 
L 3431 0 
L 469 0 
L 469 531 
Q 828 903 1448 1529 
Q 2069 2156 2228 2338 
Q 2531 2678 2651 2914 
Q 2772 3150 2772 3378 
Q 2772 3750 2511 3984 
Q 2250 4219 1831 4219 
Q 1534 4219 1204 4116 
Q 875 4013 500 3803 
L 500 4441 
Q 881 4594 1212 4672 
Q 1544 4750 1819 4750 
Q 2544 4750 2975 4387 
Q 3406 4025 3406 3419 
Q 3406 3131 3298 2873 
Q 3191 2616 2906 2266 
Q 2828 2175 2409 1742 
Q 1991 1309 1228 531 
z
" transform="scale(0.015625)"/>
       </defs>
       <use xlink:href="#DejaVuSans-30"/>
       <use xlink:href="#DejaVuSans-2e" x="63.623047"/>
       <use xlink:href="#DejaVuSans-32" x="95.410156"/>
      </g>
     </g>
    </g>
    <g id="xtick_3">
     <g id="line2d_3">
      <g>
       <use xlink:href="#m3892960f95" x="210.651429" y="307.584" style="stroke: #000000; stroke-width: 0.8"/>
      </g>
     </g>
     <g id="text_3">
      <!-- 0.4 -->
      <g transform="translate(202.699866 322.182437)scale(0.1 -0.1)">
       <defs>
        <path id="DejaVuSans-34" d="M 2419 4116 
L 825 1625 
L 2419 1625 
L 2419 4116 
z
M 2253 4666 
L 3047 4666 
L 3047 1625 
L 3713 1625 
L 3713 1100 
L 3047 1100 
L 3047 0 
L 2419 0 
L 2419 1100 
L 313 1100 
L 313 1709 
L 2253 4666 
z
" transform="scale(0.015625)"/>
       </defs>
       <use xlink:href="#DejaVuSans-30"/>
       <use xlink:href="#DejaVuSans-2e" x="63.623047"/>
       <use xlink:href="#DejaVuSans-34" x="95.410156"/>
      </g>
     </g>
    </g>
    <g id="xtick_4">
     <g id="line2d_4">
      <g>
       <use xlink:href="#m3892960f95" x="278.674286" y="307.584" style="stroke: #000000; stroke-width: 0.8"/>
      </g>
     </g>
     <g id="text_4">
      <!-- 0.6 -->
      <g transform="translate(270.722723 322.182437)scale(0.1 -0.1)">
       <defs>
        <path id="DejaVuSans-36" d="M 2113 2584 
Q 1688 2584 1439 2293 
Q 1191 2003 1191 1497 
Q 1191 994 1439 701 
Q 1688 409 2113 409 
Q 2538 409 2786 701 
Q 3034 994 3034 1497 
Q 3034 2003 2786 2293 
Q 2538 2584 2113 2584 
z
M 3366 4563 
L 3366 3988 
Q 3128 4100 2886 4159 
Q 2644 4219 2406 4219 
Q 1781 4219 1451 3797 
Q 1122 3375 1075 2522 
Q 1259 2794 1537 2939 
Q 1816 3084 2150 3084 
Q 2853 3084 3261 2657 
Q 3669 2231 3669 1497 
Q 3669 778 3244 343 
Q 2819 -91 2113 -91 
Q 1303 -91 875 529 
Q 447 1150 447 2328 
Q 447 3434 972 4092 
Q 1497 4750 2381 4750 
Q 2619 4750 2861 4703 
Q 3103 4656 3366 4563 
z
" transform="scale(0.015625)"/>
       </defs>
       <use xlink:href="#DejaVuSans-30"/>
       <use xlink:href="#DejaVuSans-2e" x="63.623047"/>
       <use xlink:href="#DejaVuSans-36" x="95.410156"/>
      </g>
     </g>
    </g>
    <g id="xtick_5">
     <g id="line2d_5">
      <g>
       <use xlink:href="#m3892960f95" x="346.697143" y="307.584" style="stroke: #000000; stroke-width: 0.8"/>
      </g>
     </g>
     <g id="text_5">
      <!-- 0.8 -->
      <g transform="translate(338.74558 322.182437)scale(0.1 -0.1)">
       <defs>
        <path id="DejaVuSans-38" d="M 2034 2216 
Q 1584 2216 1326 1975 
Q 1069 1734 1069 1313 
Q 1069 891 1326 650 
Q 1584 409 2034 409 
Q 2484 409 2743 651 
Q 3003 894 3003 1313 
Q 3003 1734 2745 1975 
Q 2488 2216 2034 2216 
z
M 1403 2484 
Q 997 2584 770 2862 
Q 544 3141 544 3541 
Q 544 4100 942 4425 
Q 1341 4750 2034 4750 
Q 2731 4750 3128 4425 
Q 3525 4100 3525 3541 
Q 3525 3141 3298 2862 
Q 3072 2584 2669 2484 
Q 3125 2378 3379 2068 
Q 3634 1759 3634 1313 
Q 3634 634 3220 271 
Q 2806 -91 2034 -91 
Q 1263 -91 848 271 
Q 434 634 434 1313 
Q 434 1759 690 2068 
Q 947 2378 1403 2484 
z
M 1172 3481 
Q 1172 3119 1398 2916 
Q 1625 2713 2034 2713 
Q 2441 2713 2670 2916 
Q 2900 3119 2900 3481 
Q 2900 3844 2670 4047 
Q 2441 4250 2034 4250 
Q 1625 4250 1398 4047 
Q 1172 3844 1172 3481 
z
" transform="scale(0.015625)"/>
       </defs>
       <use xlink:href="#DejaVuSans-30"/>
       <use xlink:href="#DejaVuSans-2e" x="63.623047"/>
       <use xlink:href="#DejaVuSans-38" x="95.410156"/>
      </g>
     </g>
    </g>
    <g id="xtick_6">
     <g id="line2d_6">
      <g>
       <use xlink:href="#m3892960f95" x="414.72" y="307.584" style="stroke: #000000; stroke-width: 0.8"/>
      </g>
     </g>
     <g id="text_6">
      <!-- 1.0 -->
      <g transform="translate(406.768438 322.182437)scale(0.1 -0.1)">
       <defs>
        <path id="DejaVuSans-31" d="M 794 531 
L 1825 531 
L 1825 4091 
L 703 3866 
L 703 4441 
L 1819 4666 
L 2450 4666 
L 2450 531 
L 3481 531 
L 3481 0 
L 794 0 
L 794 531 
z
" transform="scale(0.015625)"/>
       </defs>
       <use xlink:href="#DejaVuSans-31"/>
       <use xlink:href="#DejaVuSans-2e" x="63.623047"/>
       <use xlink:href="#DejaVuSans-30" x="95.410156"/>
      </g>
     </g>
    </g>
    <g id="text_7">
     <!-- False Positive Rate -->
     <g transform="translate(189.693594 335.860562)scale(0.1 -0.1)">
      <defs>
       <path id="DejaVuSans-46" d="M 628 4666 
L 3309 4666 
L 3309 4134 
L 1259 4134 
L 1259 2759 
L 3109 2759 
L 3109 2228 
L 1259 2228 
L 1259 0 
L 628 0 
L 628 4666 
z
" transform="scale(0.015625)"/>
       <path id="DejaVuSans-61" d="M 2194 1759 
Q 1497 1759 1228 1600 
Q 959 1441 959 1056 
Q 959 750 1161 570 
Q 1363 391 1709 391 
Q 2188 391 2477 730 
Q 2766 1069 2766 1631 
L 2766 1759 
L 2194 1759 
z
M 3341 1997 
L 3341 0 
L 2766 0 
L 2766 531 
Q 2569 213 2275 61 
Q 1981 -91 1556 -91 
Q 1019 -91 701 211 
Q 384 513 384 1019 
Q 384 1609 779 1909 
Q 1175 2209 1959 2209 
L 2766 2209 
L 2766 2266 
Q 2766 2663 2505 2880 
Q 2244 3097 1772 3097 
Q 1472 3097 1187 3025 
Q 903 2953 641 2809 
L 641 3341 
Q 956 3463 1253 3523 
Q 1550 3584 1831 3584 
Q 2591 3584 2966 3190 
Q 3341 2797 3341 1997 
z
" transform="scale(0.015625)"/>
       <path id="DejaVuSans-6c" d="M 603 4863 
L 1178 4863 
L 1178 0 
L 603 0 
L 603 4863 
z
" transform="scale(0.015625)"/>
       <path id="DejaVuSans-73" d="M 2834 3397 
L 2834 2853 
Q 2591 2978 2328 3040 
Q 2066 3103 1784 3103 
Q 1356 3103 1142 2972 
Q 928 2841 928 2578 
Q 928 2378 1081 2264 
Q 1234 2150 1697 2047 
L 1894 2003 
Q 2506 1872 2764 1633 
Q 3022 1394 3022 966 
Q 3022 478 2636 193 
Q 2250 -91 1575 -91 
Q 1294 -91 989 -36 
Q 684 19 347 128 
L 347 722 
Q 666 556 975 473 
Q 1284 391 1588 391 
Q 1994 391 2212 530 
Q 2431 669 2431 922 
Q 2431 1156 2273 1281 
Q 2116 1406 1581 1522 
L 1381 1569 
Q 847 1681 609 1914 
Q 372 2147 372 2553 
Q 372 3047 722 3315 
Q 1072 3584 1716 3584 
Q 2034 3584 2315 3537 
Q 2597 3491 2834 3397 
z
" transform="scale(0.015625)"/>
       <path id="DejaVuSans-65" d="M 3597 1894 
L 3597 1613 
L 953 1613 
Q 991 1019 1311 708 
Q 1631 397 2203 397 
Q 2534 397 2845 478 
Q 3156 559 3463 722 
L 3463 178 
Q 3153 47 2828 -22 
Q 2503 -91 2169 -91 
Q 1331 -91 842 396 
Q 353 884 353 1716 
Q 353 2575 817 3079 
Q 1281 3584 2069 3584 
Q 2775 3584 3186 3129 
Q 3597 2675 3597 1894 
z
M 3022 2063 
Q 3016 2534 2758 2815 
Q 2500 3097 2075 3097 
Q 1594 3097 1305 2825 
Q 1016 2553 972 2059 
L 3022 2063 
z
" transform="scale(0.015625)"/>
       <path id="DejaVuSans-20" transform="scale(0.015625)"/>
       <path id="DejaVuSans-50" d="M 1259 4147 
L 1259 2394 
L 2053 2394 
Q 2494 2394 2734 2622 
Q 2975 2850 2975 3272 
Q 2975 3691 2734 3919 
Q 2494 4147 2053 4147 
L 1259 4147 
z
M 628 4666 
L 2053 4666 
Q 2838 4666 3239 4311 
Q 3641 3956 3641 3272 
Q 3641 2581 3239 2228 
Q 2838 1875 2053 1875 
L 1259 1875 
L 1259 0 
L 628 0 
L 628 4666 
z
" transform="scale(0.015625)"/>
       <path id="DejaVuSans-6f" d="M 1959 3097 
Q 1497 3097 1228 2736 
Q 959 2375 959 1747 
Q 959 1119 1226 758 
Q 1494 397 1959 397 
Q 2419 397 2687 759 
Q 2956 1122 2956 1747 
Q 2956 2369 2687 2733 
Q 2419 3097 1959 3097 
z
M 1959 3584 
Q 2709 3584 3137 3096 
Q 3566 2609 3566 1747 
Q 3566 888 3137 398 
Q 2709 -91 1959 -91 
Q 1206 -91 779 398 
Q 353 888 353 1747 
Q 353 2609 779 3096 
Q 1206 3584 1959 3584 
z
" transform="scale(0.015625)"/>
       <path id="DejaVuSans-69" d="M 603 3500 
L 1178 3500 
L 1178 0 
L 603 0 
L 603 3500 
z
M 603 4863 
L 1178 4863 
L 1178 4134 
L 603 4134 
L 603 4863 
z
" transform="scale(0.015625)"/>
       <path id="DejaVuSans-74" d="M 1172 4494 
L 1172 3500 
L 2356 3500 
L 2356 3053 
L 1172 3053 
L 1172 1153 
Q 1172 725 1289 603 
Q 1406 481 1766 481 
L 2356 481 
L 2356 0 
L 1766 0 
Q 1100 0 847 248 
Q 594 497 594 1153 
L 594 3053 
L 172 3053 
L 172 3500 
L 594 3500 
L 594 4494 
L 1172 4494 
z
" transform="scale(0.015625)"/>
       <path id="DejaVuSans-76" d="M 191 3500 
L 800 3500 
L 1894 563 
L 2988 3500 
L 3597 3500 
L 2284 0 
L 1503 0 
L 191 3500 
z
" transform="scale(0.015625)"/>
       <path id="DejaVuSans-52" d="M 2841 2188 
Q 3044 2119 3236 1894 
Q 3428 1669 3622 1275 
L 4263 0 
L 3584 0 
L 2988 1197 
Q 2756 1666 2539 1819 
Q 2322 1972 1947 1972 
L 1259 1972 
L 1259 0 
L 628 0 
L 628 4666 
L 2053 4666 
Q 2853 4666 3247 4331 
Q 3641 3997 3641 3322 
Q 3641 2881 3436 2590 
Q 3231 2300 2841 2188 
z
M 1259 4147 
L 1259 2491 
L 2053 2491 
Q 2509 2491 2742 2702 
Q 2975 2913 2975 3322 
Q 2975 3731 2742 3939 
Q 2509 4147 2053 4147 
L 1259 4147 
z
" transform="scale(0.015625)"/>
      </defs>
      <use xlink:href="#DejaVuSans-46"/>
      <use xlink:href="#DejaVuSans-61" x="48.394531"/>
      <use xlink:href="#DejaVuSans-6c" x="109.673828"/>
      <use xlink:href="#DejaVuSans-73" x="137.457031"/>
      <use xlink:href="#DejaVuSans-65" x="189.556641"/>
      <use xlink:href="#DejaVuSans-20" x="251.080078"/>
      <use xlink:href="#DejaVuSans-50" x="282.867188"/>
      <use xlink:href="#DejaVuSans-6f" x="339.544922"/>
      <use xlink:href="#DejaVuSans-73" x="400.726562"/>
      <use xlink:href="#DejaVuSans-69" x="452.826172"/>
      <use xlink:href="#DejaVuSans-74" x="480.609375"/>
      <use xlink:href="#DejaVuSans-69" x="519.818359"/>
      <use xlink:href="#DejaVuSans-76" x="547.601562"/>
      <use xlink:href="#DejaVuSans-65" x="606.78125"/>
      <use xlink:href="#DejaVuSans-20" x="668.304688"/>
      <use xlink:href="#DejaVuSans-52" x="700.091797"/>
      <use xlink:href="#DejaVuSans-61" x="767.324219"/>
      <use xlink:href="#DejaVuSans-74" x="828.603516"/>
      <use xlink:href="#DejaVuSans-65" x="867.8125"/>
     </g>
    </g>
   </g>
   <g id="matplotlib.axis_2">
    <g id="ytick_1">
     <g id="line2d_7">
      <defs>
       <path id="mafa0d861fb" d="M 0 0 
L -3.5 0 
" style="stroke: #000000; stroke-width: 0.8"/>
      </defs>
      <g>
       <use xlink:href="#mafa0d861fb" x="57.6" y="307.584" style="stroke: #000000; stroke-width: 0.8"/>
      </g>
     </g>
     <g id="text_8">
      <!-- 0.0 -->
      <g transform="translate(34.696875 311.383219)scale(0.1 -0.1)">
       <use xlink:href="#DejaVuSans-30"/>
       <use xlink:href="#DejaVuSans-2e" x="63.623047"/>
       <use xlink:href="#DejaVuSans-30" x="95.410156"/>
      </g>
     </g>
    </g>
    <g id="ytick_2">
     <g id="line2d_8">
      <g>
       <use xlink:href="#mafa0d861fb" x="57.6" y="256.896" style="stroke: #000000; stroke-width: 0.8"/>
      </g>
     </g>
     <g id="text_9">
      <!-- 0.2 -->
      <g transform="translate(34.696875 260.695219)scale(0.1 -0.1)">
       <use xlink:href="#DejaVuSans-30"/>
       <use xlink:href="#DejaVuSans-2e" x="63.623047"/>
       <use xlink:href="#DejaVuSans-32" x="95.410156"/>
      </g>
     </g>
    </g>
    <g id="ytick_3">
     <g id="line2d_9">
      <g>
       <use xlink:href="#mafa0d861fb" x="57.6" y="206.208" style="stroke: #000000; stroke-width: 0.8"/>
      </g>
     </g>
     <g id="text_10">
      <!-- 0.4 -->
      <g transform="translate(34.696875 210.007219)scale(0.1 -0.1)">
       <use xlink:href="#DejaVuSans-30"/>
       <use xlink:href="#DejaVuSans-2e" x="63.623047"/>
       <use xlink:href="#DejaVuSans-34" x="95.410156"/>
      </g>
     </g>
    </g>
    <g id="ytick_4">
     <g id="line2d_10">
      <g>
       <use xlink:href="#mafa0d861fb" x="57.6" y="155.52" style="stroke: #000000; stroke-width: 0.8"/>
      </g>
     </g>
     <g id="text_11">
      <!-- 0.6 -->
      <g transform="translate(34.696875 159.319219)scale(0.1 -0.1)">
       <use xlink:href="#DejaVuSans-30"/>
       <use xlink:href="#DejaVuSans-2e" x="63.623047"/>
       <use xlink:href="#DejaVuSans-36" x="95.410156"/>
      </g>
     </g>
    </g>
    <g id="ytick_5">
     <g id="line2d_11">
      <g>
       <use xlink:href="#mafa0d861fb" x="57.6" y="104.832" style="stroke: #000000; stroke-width: 0.8"/>
      </g>
     </g>
     <g id="text_12">
      <!-- 0.8 -->
      <g transform="translate(34.696875 108.631219)scale(0.1 -0.1)">
       <use xlink:href="#DejaVuSans-30"/>
       <use xlink:href="#DejaVuSans-2e" x="63.623047"/>
       <use xlink:href="#DejaVuSans-38" x="95.410156"/>
      </g>
     </g>
    </g>
    <g id="ytick_6">
     <g id="line2d_12">
      <g>
       <use xlink:href="#mafa0d861fb" x="57.6" y="54.144" style="stroke: #000000; stroke-width: 0.8"/>
      </g>
     </g>
     <g id="text_13">
      <!-- 1.0 -->
      <g transform="translate(34.696875 57.943219)scale(0.1 -0.1)">
       <use xlink:href="#DejaVuSans-31"/>
       <use xlink:href="#DejaVuSans-2e" x="63.623047"/>
       <use xlink:href="#DejaVuSans-30" x="95.410156"/>
      </g>
     </g>
    </g>
    <g id="text_14">
     <!-- True Positive Rate -->
     <g transform="translate(28.617187 219.057687)rotate(-90)scale(0.1 -0.1)">
      <defs>
       <path id="DejaVuSans-54" d="M -19 4666 
L 3928 4666 
L 3928 4134 
L 2272 4134 
L 2272 0 
L 1638 0 
L 1638 4134 
L -19 4134 
L -19 4666 
z
" transform="scale(0.015625)"/>
       <path id="DejaVuSans-72" d="M 2631 2963 
Q 2534 3019 2420 3045 
Q 2306 3072 2169 3072 
Q 1681 3072 1420 2755 
Q 1159 2438 1159 1844 
L 1159 0 
L 581 0 
L 581 3500 
L 1159 3500 
L 1159 2956 
Q 1341 3275 1631 3429 
Q 1922 3584 2338 3584 
Q 2397 3584 2469 3576 
Q 2541 3569 2628 3553 
L 2631 2963 
z
" transform="scale(0.015625)"/>
       <path id="DejaVuSans-75" d="M 544 1381 
L 544 3500 
L 1119 3500 
L 1119 1403 
Q 1119 906 1312 657 
Q 1506 409 1894 409 
Q 2359 409 2629 706 
Q 2900 1003 2900 1516 
L 2900 3500 
L 3475 3500 
L 3475 0 
L 2900 0 
L 2900 538 
Q 2691 219 2414 64 
Q 2138 -91 1772 -91 
Q 1169 -91 856 284 
Q 544 659 544 1381 
z
M 1991 3584 
L 1991 3584 
z
" transform="scale(0.015625)"/>
      </defs>
      <use xlink:href="#DejaVuSans-54"/>
      <use xlink:href="#DejaVuSans-72" x="46.333984"/>
      <use xlink:href="#DejaVuSans-75" x="87.447266"/>
      <use xlink:href="#DejaVuSans-65" x="150.826172"/>
      <use xlink:href="#DejaVuSans-20" x="212.349609"/>
      <use xlink:href="#DejaVuSans-50" x="244.136719"/>
      <use xlink:href="#DejaVuSans-6f" x="300.814453"/>
      <use xlink:href="#DejaVuSans-73" x="361.996094"/>
      <use xlink:href="#DejaVuSans-69" x="414.095703"/>
      <use xlink:href="#DejaVuSans-74" x="441.878906"/>
      <use xlink:href="#DejaVuSans-69" x="481.087891"/>
      <use xlink:href="#DejaVuSans-76" x="508.871094"/>
      <use xlink:href="#DejaVuSans-65" x="568.050781"/>
      <use xlink:href="#DejaVuSans-20" x="629.574219"/>
      <use xlink:href="#DejaVuSans-52" x="661.361328"/>
      <use xlink:href="#DejaVuSans-61" x="728.59375"/>
      <use xlink:href="#DejaVuSans-74" x="789.873047"/>
      <use xlink:href="#DejaVuSans-65" x="829.082031"/>
     </g>
    </g>
   </g>
   <g id="line2d_13">
    <path d="M 74.605714 307.584 
L 74.83023 306.20761 
L 74.854738 306.097913 
L 74.965669 305.561845 
L 74.965752 305.561845 
L 74.990136 305.451113 
L 75.099533 305.08373 
L 75.101212 305.08373 
L 75.145709 304.976103 
L 75.268355 304.593197 
L 75.314801 304.4835 
L 75.314801 304.482465 
L 75.442361 304.071618 
L 75.48184 303.961921 
L 75.591278 303.628689 
L 75.592356 303.628689 
L 75.619892 303.518992 
L 75.83798 302.93532 
L 75.874141 302.827692 
L 75.982874 302.564833 
L 75.984263 302.564833 
L 76.040143 302.457205 
L 76.040143 302.455136 
L 76.150991 302.051532 
L 76.151198 302.051532 
L 76.194575 301.941835 
L 76.305133 301.701743 
L 76.305672 301.701743 
L 76.335198 301.592046 
L 76.444263 301.244326 
L 76.445632 301.244326 
L 76.506799 301.134629 
L 76.614205 300.884188 
L 76.617751 300.884188 
L 76.677902 300.774491 
L 76.787672 300.404004 
L 76.788584 300.404004 
L 76.843199 300.294306 
L 76.953052 299.930029 
L 76.954296 299.930029 
L 76.996885 299.820332 
L 77.107111 299.520216 
L 77.107982 299.520216 
L 77.138255 299.410519 
L 77.24761 299.23045 
L 77.249351 299.23045 
L 77.299737 299.120753 
L 77.410668 298.754405 
L 77.410792 298.754405 
L 77.457155 298.644708 
L 77.56763 298.410825 
L 77.568252 298.410825 
L 77.595456 298.300093 
L 77.70593 298.058966 
L 77.70649 298.058966 
L 77.769503 297.957548 
L 77.882673 297.692619 
L 77.929368 297.587061 
L 78.041874 297.301434 
L 78.096863 297.191737 
L 78.206384 296.848157 
L 78.207317 296.848157 
L 78.252062 296.743634 
L 78.363615 296.531483 
L 78.426753 296.423856 
L 78.539591 296.194113 
L 78.59234 296.084415 
L 78.701778 295.850533 
L 78.703395 295.850533 
L 78.764501 295.74187 
L 78.938009 295.320674 
L 78.979727 295.213047 
L 79.09157 295.022629 
L 79.143635 294.939838 
L 79.143635 294.930524 
L 79.252866 294.716304 
L 79.254255 294.716304 
L 79.306693 294.606607 
L 79.427079 294.368585 
L 79.479538 294.259922 
L 79.479538 294.258887 
L 79.589225 293.958772 
L 79.590635 293.958772 
L 79.644586 293.856319 
L 79.851664 293.389588 
L 79.969956 292.886637 
L 80.043108 292.779009 
L 80.043108 292.775905 
L 80.15408 292.632056 
L 80.154163 292.632056 
L 80.22321 292.522359 
L 80.333975 292.365057 
L 80.334265 292.365057 
L 80.407873 292.25536 
L 80.513413 292.025617 
L 80.514471 292.025617 
L 80.66401 291.895222 
L 80.771685 291.73585 
L 80.775106 291.73585 
L 80.873534 291.626153 
L 80.983138 291.454363 
L 80.983884 291.454363 
L 81.063132 291.343631 
L 81.166889 291.192538 
L 82.090456 289.837881 
L 82.173726 289.701277 
L 82.182476 289.701277 
L 82.354658 289.463254 
L 82.465008 289.33079 
L 82.465754 289.33079 
L 82.543592 289.223162 
L 82.543592 289.220057 
L 82.653735 289.082418 
L 82.654689 289.082418 
L 82.792389 288.971686 
L 82.900354 288.877512 
L 82.90305 288.877512 
L 82.995776 288.767815 
L 83.10173 288.651908 
L 83.106789 288.651908 
L 83.20615 288.542211 
L 83.31563 288.447002 
L 83.316625 288.447002 
L 83.712492 287.997864 
L 83.900722 287.888167 
L 83.995563 287.790888 
L 83.995853 287.790888 
L 84.181512 287.658424 
L 84.280417 287.550796 
L 84.281495 287.550796 
L 84.425518 287.441099 
L 84.53533 287.312774 
L 84.705147 287.205146 
L 84.705147 287.203077 
L 84.824911 287.095449 
L 84.954627 286.985752 
L 85.063733 286.857427 
L 85.065289 286.857427 
L 85.172383 286.746695 
L 85.283439 286.648381 
L 85.472457 286.538684 
L 85.582662 286.433126 
L 85.58347 286.433126 
L 85.770912 286.323429 
L 85.88006 286.246848 
L 85.881947 286.246848 
L 86.041584 286.13715 
L 86.152183 286.05643 
L 86.152597 286.05643 
L 86.243581 285.946733 
L 86.355964 285.866012 
L 86.484001 285.763559 
L 86.772773 285.553478 
L 86.907217 285.443781 
L 87.004981 285.346502 
L 87.011471 285.346502 
L 87.187281 285.23577 
L 87.327137 285.116759 
L 87.428945 285.011201 
L 87.434336 285.011201 
L 87.75448 284.829062 
L 87.861347 284.698667 
L 87.863171 284.698667 
L 88.031247 284.58897 
L 88.14251 284.549645 
L 88.408329 284.438913 
L 88.495995 284.396483 
L 88.499023 284.396483 
L 88.708236 284.286785 
L 88.815144 284.237111 
L 88.815186 284.237111 
L 89.054465 284.127414 
L 89.162161 284.07567 
L 89.164711 284.07567 
L 89.382696 283.965973 
L 89.488443 283.928717 
L 89.490101 283.928717 
L 89.739914 283.817985 
L 89.847527 283.775555 
L 89.849434 283.775555 
L 90.127446 283.672067 
L 90.202879 283.618253 
L 90.238522 283.618253 
L 90.503657 283.507521 
L 90.613178 283.448533 
L 90.614463 283.448533 
L 90.829607 283.338835 
L 90.928055 283.316068 
L 90.931601 283.316068 
L 91.226096 283.206371 
L 91.336447 283.171185 
L 91.337152 283.171185 
L 91.482233 283.073906 
L 91.668451 282.403304 
L 91.881231 282.293607 
L 93.098775 281.972794 
L 93.204397 281.92105 
L 93.433101 281.811353 
L 93.538932 281.763748 
L 93.541751 281.763748 
L 93.746196 281.693376 
L 303.084504 238.785189 
L 303.215278 238.700329 
L 303.71681 238.590632 
L 303.828694 238.551306 
L 304.252139 238.441609 
L 304.364314 238.416772 
L 304.7161 238.309144 
L 304.827155 238.267749 
L 304.827196 238.267749 
L 305.152027 238.158052 
L 305.219705 238.133215 
L 305.221903 238.133215 
L 305.753624 238.023518 
L 305.851077 237.996611 
L 306.48216 237.886913 
L 306.593754 237.860007 
L 307.19108 237.750309 
L 307.291188 237.719263 
L 307.818887 237.609566 
L 307.934918 237.551612 
L 308.35065 237.441915 
L 308.35065 237.44088 
L 308.462451 237.40259 
L 308.852347 237.294962 
L 308.852347 237.292892 
L 308.961122 237.274265 
L 309.373618 237.167672 
L 309.484114 237.123172 
L 309.484674 237.123172 
L 309.894641 237.013475 
L 309.9996 236.988638 
L 310.005737 236.988638 
L 310.399324 236.87894 
L 310.486493 236.852034 
L 310.500676 236.852034 
L 310.801205 236.781662 
L 311.062421 236.674034 
L 311.152887 236.645058 
L 311.454847 236.538465 
L 311.60565 236.429803 
L 311.999341 236.320105 
L 312.122132 236.268361 
L 312.389548 236.163838 
L 312.615971 236.086222 
L 313.212945 235.976525 
L 313.327608 235.920642 
L 313.657166 235.810944 
L 313.758973 235.779898 
L 313.768262 235.779898 
L 314.126061 235.670201 
L 314.230481 235.624666 
L 314.23073 235.624666 
L 314.674412 235.516004 
L 314.674412 235.514969 
L 314.778002 235.444597 
L 314.785446 235.444597 
L 315.255814 235.3349 
L 315.365334 235.270737 
L 315.365459 235.270737 
L 315.606314 235.16104 
L 315.717866 235.121714 
L 316.144712 235.012017 
L 316.257115 234.912669 
L 316.370388 234.889901 
L 316.920605 234.755367 
L 316.997199 234.722251 
L 317.341935 234.595996 
L 317.453654 234.581507 
L 317.551605 234.544252 
L 317.798265 234.434554 
L 317.798265 234.433519 
L 317.925286 234.378671 
L 318.367351 234.268973 
L 318.477784 234.246206 
L 318.478281 234.246206 
L 318.896211 234.136509 
L 319.006893 234.109602 
L 319.007307 234.109602 
L 319.224317 233.999905 
L 319.335207 233.962649 
L 319.611497 233.852952 
L 319.67057 233.834324 
L 320.094305 233.710138 
L 320.204282 233.623208 
L 320.204655 233.623208 
L 320.414159 233.449349 
L 320.664386 233.339651 
L 321.090775 233.153373 
L 321.600559 233.016769 
L 321.919936 232.882235 
L 322.102506 232.772537 
L 322.176777 232.735282 
L 322.1842 232.735282 
L 322.601093 232.625584 
L 322.705347 232.571771 
L 322.705513 232.571771 
L 322.996297 232.462073 
L 323.107062 232.410329 
L 323.107103 232.410329 
L 323.166156 232.300632 
L 323.276631 232.275795 
L 323.277066 232.275795 
L 323.508943 232.166098 
L 323.617841 232.116423 
L 323.619583 232.116423 
L 323.736092 232.091586 
L 324.051944 231.981889 
L 324.155078 231.915657 
L 324.161942 231.915657 
L 324.423801 231.80596 
L 324.502634 231.758355 
L 325.050155 231.623821 
L 325.133219 231.5876 
L 325.545467 231.464449 
L 325.713356 231.389938 
L 325.88676 231.280241 
L 325.997277 231.255403 
L 326.454685 231.145706 
L 326.522612 231.106381 
L 326.527132 231.106381 
L 326.979854 230.978056 
L 327.485699 230.727615 
L 327.597334 230.68001 
L 327.911134 230.570313 
L 328.003652 230.544441 
L 328.764327 230.295035 
L 328.853984 230.239151 
L 328.873723 230.239151 
L 329.101515 230.129454 
L 329.197621 230.092199 
L 329.199383 230.092199 
L 330.940479 229.454713 
L 331.023625 229.417457 
L 331.030177 229.417457 
L 331.361352 229.30776 
L 331.46909 229.253946 
L 331.469297 229.253946 
L 331.675276 229.112167 
L 331.78546 229.073877 
L 331.786248 229.073877 
L 332.066582 228.96418 
L 332.785372 228.628878 
L 333.230713 228.502623 
L 333.323853 228.452949 
L 333.339073 228.452949 
L 333.664483 228.343252 
L 333.980398 228.202508 
L 334.056909 228.165252 
L 334.338217 228.044171 
L 334.515893 227.976904 
L 334.678827 227.866172 
L 334.733276 227.863067 
L 334.735806 227.863067 
L 335.11944 227.740952 
L 335.162858 227.720254 
L 335.164144 227.720254 
L 335.516676 227.554673 
L 335.579087 227.513278 
L 335.918764 227.36943 
L 336.029238 227.298023 
L 336.266236 227.157279 
L 336.352742 227.120024 
L 336.353799 227.120024 
L 336.606162 227.010326 
L 336.706891 226.971001 
L 336.712863 226.971001 
L 337.044017 226.861304 
L 337.156959 226.675025 
L 337.31276 226.565328 
L 337.31276 226.564293 
L 337.427382 226.534282 
L 337.593259 226.424584 
L 337.697845 226.360422 
L 337.702863 226.360422 
L 338.016974 226.232097 
L 338.128381 226.171039 
L 338.242754 226.087214 
L 338.424805 225.977516 
L 338.470753 225.919563 
L 338.797719 225.808831 
L 338.908795 225.77054 
L 339.085911 225.659808 
L 339.096403 225.648425 
L 339.125805 225.648425 
L 339.429237 225.538727 
L 339.542366 225.437309 
L 339.827676 225.361763 
L 339.827676 225.333821 
L 339.938772 225.242752 
L 340.214296 225.133054 
L 340.328503 225.08338 
L 340.475885 224.973683 
L 340.475885 224.972648 
L 340.588267 224.877439 
L 340.768784 224.766707 
L 341.215908 224.634242 
L 341.329368 224.514196 
L 341.584115 224.404499 
L 341.584115 224.403464 
L 341.687498 224.345511 
L 341.966754 224.174756 
L 342.079012 224.108523 
L 342.231723 223.998826 
L 342.378214 223.920175 
L 342.578511 223.809443 
L 343.541391 223.306491 
L 343.646101 223.248538 
L 343.871073 223.137806 
L 343.95874 223.098481 
L 344.289086 222.988783 
L 344.400721 222.926691 
L 344.537177 222.815958 
L 344.618809 222.755935 
L 344.981273 222.555169 
L 345.193576 222.378204 
L 345.374964 222.270577 
L 345.483821 222.189856 
L 345.483842 222.189856 
L 345.652519 222.080159 
L 345.76204 222.001508 
L 345.763574 222.001508 
L 346.039139 221.891811 
L 346.138022 221.819369 
L 346.138499 221.819369 
L 346.344748 221.68587 
L 346.457876 221.568928 
L 346.726578 221.459231 
L 346.836472 221.376441 
L 346.837592 221.376441 
L 346.969962 221.266743 
L 347.075004 221.183953 
L 347.080561 221.183953 
L 347.261783 221.073221 
L 347.372133 220.976977 
L 347.37288 220.976977 
L 347.54759 220.86728 
L 348.034069 220.567165 
L 348.237394 220.409863 
L 348.665275 220.277398 
L 348.768078 220.167701 
L 348.774838 220.167701 
L 349.06106 219.987632 
L 349.172281 219.894493 
L 349.381039 219.786865 
L 349.492384 219.689586 
L 349.634168 219.579889 
L 349.726852 219.501238 
L 349.728947 219.501238 
L 349.891652 219.391541 
L 349.999514 219.304611 
L 350.002728 219.304611 
L 350.115753 219.244588 
L 350.239685 219.133856 
L 350.378296 219.021054 
L 350.647101 218.911357 
L 350.757949 218.847194 
L 350.758157 218.847194 
L 350.936434 218.737497 
L 351.046722 218.652637 
L 351.047199 218.652637 
L 351.143159 218.54294 
L 351.235221 218.493265 
L 351.242727 218.493265 
L 351.524637 218.295603 
L 351.626942 218.207639 
L 351.635651 218.207639 
L 351.791306 218.107255 
L 351.936304 218.058616 
L 352.085304 217.948919 
L 352.176454 217.866128 
L 352.181181 217.866128 
L 352.295326 217.755396 
L 352.564193 217.623966 
L 352.695859 217.524618 
L 354.989784 216.142018 
L 355.25494 216.011624 
L 355.365539 215.95781 
L 355.365995 215.95781 
L 355.491233 215.848113 
L 355.604237 215.752904 
L 355.760494 215.642171 
L 355.864997 215.550067 
L 355.870015 215.550067 
L 356.02623 215.44037 
L 356.132931 215.3493 
L 356.133201 215.3493 
L 356.272497 215.241673 
L 356.409699 215.136115 
L 356.636246 215.026418 
L 356.746223 214.935349 
L 356.746783 214.935349 
L 356.842806 214.825651 
L 356.947993 214.730442 
L 356.953737 214.730442 
L 357.151712 214.620745 
L 357.26115 214.546234 
L 357.261357 214.546234 
L 357.4189 214.436536 
L 357.52925 214.349607 
L 357.529955 214.349607 
L 357.701473 214.239909 
L 357.810143 214.109514 
L 357.812569 214.109514 
L 357.979235 213.999817 
L 358.085646 213.876666 
L 358.394966 213.536191 
L 358.505856 213.426494 
L 358.615667 213.349913 
L 358.616952 213.349913 
L 358.664559 213.242285 
L 358.664559 213.240215 
L 358.77831 213.105681 
L 358.828074 213.063251 
L 358.988312 212.817984 
L 359.108013 212.708287 
L 359.22025 212.586171 
L 359.340014 212.482683 
L 359.802067 212.159801 
L 359.900184 211.971453 
L 360.102969 211.847267 
L 360.208094 211.789314 
L 360.213962 211.789314 
L 360.376046 211.678582 
L 360.808572 211.331897 
L 360.909385 211.2222 
L 361.019071 211.13113 
L 361.019362 211.13113 
L 361.147254 211.021433 
L 361.251466 210.953131 
L 361.256484 210.953131 
L 361.404696 210.824806 
L 361.51403 210.737876 
L 361.515793 210.737876 
L 361.634603 210.628179 
L 361.739603 210.516412 
L 361.744953 210.516412 
L 361.88288 210.406714 
L 361.992111 210.239064 
L 361.993936 210.239064 
L 362.134724 210.130402 
L 362.247542 209.93067 
L 362.320715 209.827182 
L 362.433636 209.71231 
L 362.543074 209.58709 
L 363.139861 208.947534 
L 363.24847 208.817139 
L 363.24876 208.817139 
L 363.62916 208.518059 
L 363.73922 208.396978 
L 363.740215 208.396978 
L 363.877562 208.287281 
L 363.985279 208.197246 
L 364.141059 208.069956 
L 364.373744 207.834003 
L 364.470036 207.753283 
L 364.471467 207.753283 
L 364.830903 207.411772 
L 364.945463 207.308284 
L 365.064169 207.198587 
L 365.176137 207.066122 
L 365.277903 206.956425 
L 365.391363 206.836379 
L 365.521577 206.726682 
L 365.624111 206.635612 
L 365.853126 206.347916 
L 365.969489 206.238218 
L 366.070218 206.157498 
L 366.070301 206.157498 
L 366.183783 206.047801 
L 366.456216 205.778732 
L 366.592568 205.646267 
L 366.705448 205.557268 
L 366.777107 205.446535 
L 366.873461 205.337873 
L 367.186037 204.962212 
L 367.339454 204.776968 
L 367.447793 204.59276 
L 367.45053 204.59276 
L 367.651822 204.483062 
L 367.757238 204.282296 
L 367.762878 204.282296 
L 367.851436 204.188122 
L 367.962615 203.946995 
L 368.029278 203.839367 
L 368.029278 203.838332 
L 368.13743 203.715181 
L 368.139628 203.715181 
L 368.308284 203.605484 
L 368.418966 203.493717 
L 368.419339 203.493717 
L 368.537237 203.38402 
L 368.648126 203.228788 
L 368.64823 203.228788 
L 368.71765 203.118056 
L 368.826901 203.009393 
L 369.0848 202.756883 
L 369.193823 202.684441 
L 369.194611 202.684441 
L 369.275705 202.586128 
L 369.399367 202.376047 
L 369.504512 202.26635 
L 369.645384 202.082141 
L 369.730936 201.948642 
L 369.842136 201.8317 
L 369.909856 201.745805 
L 372.39593 199.176199 
L 372.498235 199.065466 
L 372.607382 198.942316 
L 372.60929 198.942316 
L 372.698657 198.832618 
L 372.801335 198.770526 
L 372.801501 198.770526 
L 372.971339 198.589422 
L 373.08735 198.433155 
L 373.173814 198.326562 
L 373.283003 198.172365 
L 373.284911 198.172365 
L 373.372432 198.075086 
L 374.17074 196.677999 
L 374.216854 196.569336 
L 374.336908 196.437907 
L 374.477738 196.328209 
L 374.477738 196.327174 
L 374.591074 196.212303 
L 374.67308 196.102605 
L 374.838191 195.877002 
L 374.880075 195.777653 
L 375.008838 195.500305 
L 375.155598 195.390608 
L 375.26487 195.232272 
L 375.265679 195.232272 
L 375.337297 195.123609 
L 375.437238 194.958028 
L 375.66418 194.707587 
L 375.72937 194.59789 
L 375.833085 194.425065 
L 376.131789 193.788614 
L 376.246162 193.678917 
L 376.3556 193.461592 
L 376.356844 193.461592 
L 376.408826 193.376732 
L 376.514677 193.161477 
L 376.670768 192.759944 
L 376.82914 192.461898 
L 376.93609 192.352201 
L 377.044574 192.240434 
L 377.04615 192.240434 
L 377.157951 192.130737 
L 377.257934 192.004481 
L 377.265503 192.004481 
L 377.336975 191.894784 
L 377.447782 191.749901 
L 377.44803 191.749901 
L 377.540341 191.640204 
L 377.646047 191.5036 
L 377.650277 191.5036 
L 377.720153 191.393902 
L 377.829425 191.207624 
L 377.831125 191.207624 
L 377.906351 191.096892 
L 378.013446 190.938555 
L 378.017323 190.938555 
L 378.131986 190.828858 
L 378.241673 190.628091 
L 378.242938 190.628091 
L 378.317687 190.518394 
L 378.427995 190.303139 
L 378.428783 190.303139 
L 378.512095 190.193442 
L 378.62284 190.021652 
L 378.622923 190.021652 
L 378.712061 189.911954 
L 378.793093 189.771211 
L 379.025736 189.450398 
L 379.152799 189.339666 
L 379.263875 189.166841 
L 379.335866 189.056109 
L 379.534733 188.843958 
L 379.656902 188.624564 
L 379.729929 188.514867 
L 379.839118 188.175426 
L 379.840943 188.175426 
L 379.925893 188.081252 
L 380.114725 187.579335 
L 380.269571 187.443766 
L 380.421184 187.237825 
L 380.533877 187.073279 
L 381.32725 185.737249 
L 381.383089 185.632726 
L 381.486348 185.486808 
L 381.591784 185.341925 
L 381.69778 185.143228 
L 381.702777 185.143228 
L 381.776448 185.033531 
L 381.889535 184.830694 
L 381.961277 184.720997 
L 382.730598 183.528816 
L 382.994738 183.071399 
L 383.107535 182.922376 
L 383.148444 182.865458 
L 383.278845 182.603633 
L 383.444474 182.379064 
L 383.56316 182.191751 
L 383.623912 182.11517 
L 384.856675 179.730807 
L 384.905651 179.620074 
L 385.014301 179.387226 
L 385.016436 179.387226 
L 385.090273 179.277529 
L 385.198632 179.043646 
L 385.201369 179.043646 
L 385.259675 178.932914 
L 385.381762 178.658671 
L 385.417612 178.551044 
L 385.546188 178.279905 
L 385.609802 178.170208 
L 385.720837 177.965302 
L 385.763322 177.855604 
L 385.868738 177.694163 
L 385.872739 177.694163 
L 385.993333 177.583431 
L 386.115792 177.245025 
L 386.253325 176.924212 
L 386.30539 176.814515 
L 386.497809 176.396424 
L 386.542844 176.288796 
L 386.688195 175.964879 
L 387.135132 175.22494 
L 387.308765 174.924825 
L 387.423594 174.688872 
L 387.465188 174.57814 
L 387.590177 174.349431 
L 387.623767 174.241804 
L 387.623767 174.239734 
L 387.727855 173.840271 
L 387.734781 173.840271 
L 387.812951 173.730573 
L 387.923674 173.358017 
L 387.924047 173.358017 
L 387.954755 173.248319 
L 388.063302 172.892321 
L 388.134463 172.782623 
L 388.245311 172.660508 
L 388.24556 172.660508 
L 388.361529 172.412136 
L 388.431364 172.302439 
L 388.540657 172.091324 
L 388.541507 172.091324 
L 388.590047 171.981626 
L 388.703051 171.768441 
L 388.714497 171.728081 
L 388.901317 171.317234 
L 388.949048 171.207536 
L 388.949048 171.206501 
L 389.051706 170.961235 
L 389.060145 170.961235 
L 389.123054 170.851538 
L 389.233902 170.619725 
L 389.234151 170.619725 
L 389.297184 170.510027 
L 389.407493 170.027773 
L 389.407804 170.027773 
L 389.5454 169.754565 
L 389.592447 169.643833 
L 389.703087 169.332334 
L 389.703544 169.332334 
L 389.756956 169.222637 
L 389.866021 169.017731 
L 389.867866 169.017731 
L 389.952236 168.906998 
L 390.062711 168.622407 
L 390.063312 168.622407 
L 390.161076 168.512709 
L 390.269374 168.339884 
L 390.618484 167.599945 
L 390.727508 167.03904 
L 390.729498 167.03904 
L 390.792076 166.929343 
L 390.902302 166.633367 
L 390.903131 166.633367 
L 390.952397 166.52367 
L 391.063369 166.229764 
L 391.063493 166.229764 
L 391.097581 166.119032 
L 391.208139 165.855138 
L 391.315669 165.637813 
L 391.483538 165.240419 
L 391.524178 165.130722 
L 391.67579 164.652608 
L 391.814671 164.485992 
L 391.936322 164.222097 
L 392.002051 164.1124 
L 392.1101 163.576332 
L 392.113127 163.576332 
L 392.153145 163.4656 
L 392.263039 163.187218 
L 392.264242 163.187218 
L 392.289289 163.095113 
L 392.401651 162.829149 
L 392.444986 162.719452 
L 392.444986 162.718417 
L 392.563423 162.34793 
L 392.95645 161.576945 
L 393.066365 161.312015 
L 393.067298 161.312015 
L 393.105989 161.223016 
L 393.105989 161.203353 
L 393.216464 160.941528 
L 393.217086 160.941528 
L 393.27985 160.839075 
L 393.393082 160.542065 
L 393.455411 160.432368 
L 393.560453 160.211938 
L 393.564227 160.211938 
L 393.629956 160.06809 
L 393.740513 159.695533 
L 393.741052 159.695533 
L 393.797098 159.586871 
L 393.874792 159.420255 
L 394.013403 159.080815 
L 394.054893 158.973187 
L 394.054893 158.971117 
L 394.16458 158.737234 
L 394.165824 158.737234 
L 394.207501 158.629607 
L 394.207501 158.627537 
L 394.314243 158.397794 
L 394.318598 158.397794 
L 394.392351 158.288097 
L 394.507284 158.072842 
L 394.558457 157.963144 
L 394.669077 157.708564 
L 394.669554 157.708564 
L 394.69738 157.598867 
L 394.807626 157.314275 
L 394.867488 157.085566 
L 394.976262 156.79787 
L 394.978543 156.79787 
L 395.035646 156.688172 
L 395.150475 156.489475 
L 395.174528 156.379778 
L 395.285375 155.93271 
L 395.285624 155.93271 
L 395.320313 155.821978 
L 395.436407 155.570502 
L 395.49011 155.460805 
L 395.565315 152.368584 
L 395.677179 150.789357 
L 395.738803 150.68173 
L 395.738803 150.67966 
L 395.840548 150.364022 
L 396.18124 149.531978 
L 396.796938 147.932054 
L 396.907993 147.637113 
L 396.961696 147.527416 
L 397.072627 147.219022 
L 397.072772 147.219022 
L 397.100701 147.109325 
L 397.100701 147.10829 
L 397.227702 146.707791 
L 397.274624 146.597059 
L 397.385721 146.310397 
L 397.423541 146.2007 
L 397.531839 145.809516 
L 397.534306 145.809516 
L 397.581395 145.698783 
L 397.68936 145.445238 
L 397.799586 145.16996 
L 397.800022 145.16996 
L 397.840268 145.07889 
L 397.840268 145.067507 
L 397.952194 144.838798 
L 397.980808 144.73531 
L 397.980808 144.731171 
L 398.089541 144.499358 
L 398.091428 144.499358 
L 398.137127 144.38966 
L 398.872526 142.096367 
L 398.89917 142.025995 
L 399.014662 141.526148 
L 399.065732 141.415416 
L 399.176621 141.12151 
L 399.176787 141.12151 
L 399.21214 141.012848 
L 399.330432 140.719977 
L 399.35917 140.610279 
L 399.469935 140.223234 
L 399.470246 140.223234 
L 399.514494 140.119746 
L 399.957471 138.693682 
L 400.184081 138.106905 
L 400.291943 137.520128 
L 400.295177 137.520128 
L 400.343697 137.409396 
L 400.454731 137.135153 
L 400.454793 137.135153 
L 400.495164 137.026491 
L 400.623284 136.580457 
L 400.657081 136.47076 
L 400.767971 136.114761 
L 400.768116 136.114761 
L 400.768925 136.011273 
L 400.891301 131.536453 
L 400.904405 131.426756 
L 401.015336 131.076966 
L 401.015419 131.076966 
L 401.057013 130.967269 
L 401.166907 130.61334 
L 401.16811 130.61334 
L 401.216629 130.503643 
L 401.326647 130.168342 
L 401.327726 130.168342 
L 401.359077 130.058645 
L 401.469551 129.70989 
L 401.47007 129.70989 
L 401.611709 129.294903 
L 401.648036 129.185206 
L 401.758842 128.767115 
L 401.759133 128.767115 
L 401.794257 128.657417 
L 401.90523 128.29107 
L 401.946077 128.180338 
L 402.071875 127.786049 
L 402.108534 127.675316 
L 402.226182 127.327597 
L 402.382709 126.804982 
L 402.4914 126.386891 
L 402.492624 126.386891 
L 402.530009 126.277194 
L 402.640856 125.958451 
L 402.640919 125.958451 
L 402.67652 125.848753 
L 402.785958 125.453429 
L 402.787617 125.453429 
L 402.827282 125.342697 
L 402.94433 125.043617 
L 402.979496 124.935989 
L 403.089411 124.472363 
L 403.090531 124.472363 
L 403.121114 124.362666 
L 403.231838 123.805901 
L 403.232211 123.805901 
L 403.26211 123.704482 
L 403.373041 123.050438 
L 403.373166 123.050438 
L 403.409306 122.939706 
L 403.557104 122.330162 
L 403.579165 122.220465 
L 403.690801 121.686467 
L 403.718523 121.57677 
L 403.82821 121.132806 
L 403.828604 121.132806 
L 403.865719 120.959981 
L 403.9775 120.502564 
L 404.032613 120.392867 
L 404.14342 119.856799 
L 404.14371 119.856799 
L 404.177051 119.747102 
L 404.286863 119.42215 
L 404.288127 119.42215 
L 404.33928 119.312452 
L 404.450003 118.98543 
L 404.450252 118.98543 
L 404.479778 118.875733 
L 404.590129 118.314828 
L 404.590834 118.314828 
L 404.620775 118.205131 
L 404.728429 117.809807 
L 404.73183 117.809807 
L 404.74622 117.729086 
L 404.85742 116.969485 
L 404.893374 116.859787 
L 405.003496 116.423068 
L 405.004471 116.423068 
L 405.031136 116.313371 
L 405.031136 116.312336 
L 405.19015 115.696582 
L 405.23274 115.551699 
L 405.343587 115.034259 
L 405.343712 115.034259 
L 405.371082 114.930771 
L 405.485537 114.471285 
L 405.514234 114.361587 
L 405.624668 113.947635 
L 405.62529 113.947635 
L 405.649881 113.837938 
L 405.806511 113.235638 
L 405.837136 113.139394 
L 405.953562 112.579524 
L 405.988562 112.469827 
L 406.099037 111.902713 
L 406.099659 111.902713 
L 406.131922 111.793016 
L 406.243019 111.207274 
L 406.246834 111.176227 
L 406.246834 111.143111 
L 406.35735 110.584276 
L 406.357848 110.584276 
L 406.388618 110.474579 
L 406.499507 109.992325 
L 406.499653 109.992325 
L 406.533844 109.882628 
L 406.644816 109.363118 
L 406.644941 109.363118 
L 406.672103 109.253421 
L 406.782868 108.624214 
L 406.783076 108.624214 
L 406.811731 108.514516 
L 406.922247 107.953612 
L 406.922786 107.953612 
L 406.946092 107.843914 
L 407.056816 107.222986 
L 407.057189 107.222986 
L 407.07614 107.113289 
L 407.197729 106.58964 
L 407.229412 106.485117 
L 407.386767 105.841422 
L 407.659284 104.505392 
L 407.683046 104.395695 
L 407.794143 103.876185 
L 407.820745 103.766488 
L 407.942811 103.220071 
L 407.96566 103.110374 
L 408.075264 102.460469 
L 408.076446 102.460469 
L 408.20015 101.85403 
L 408.311018 101.173079 
L 408.311184 101.173079 
L 408.322194 101.062347 
L 408.434431 100.363803 
L 408.449713 100.265489 
L 408.561908 99.583503 
L 408.582975 99.473806 
L 408.692931 98.854948 
L 408.694072 98.854948 
L 408.716797 98.745251 
L 408.827728 97.931835 
L 408.827894 97.931835 
L 408.845021 97.822138 
L 408.952012 97.33057 
L 409.35327 95.114892 
L 409.364674 95.005195 
L 409.474817 94.226965 
L 409.47573 94.226965 
L 409.497543 94.117268 
L 409.608308 93.444596 
L 409.608577 93.444596 
L 410.302797 88.971846 
L 410.41381 88.232942 
L 410.43554 88.123244 
L 410.546388 87.440224 
L 410.546596 87.440224 
L 410.568575 87.330526 
L 410.67963 86.711668 
L 410.697171 86.601971 
L 410.807853 85.738881 
L 410.808102 85.738881 
L 410.825561 85.629184 
L 410.936533 84.80335 
L 410.956646 84.693653 
L 411.067701 83.9444 
L 411.067743 83.9444 
L 411.084869 83.838842 
L 411.084869 83.834702 
L 411.195925 83.114426 
L 411.195966 83.114426 
L 411.215581 83.004729 
L 411.325848 82.232708 
L 411.326616 82.232708 
L 411.340073 82.123011 
L 411.451086 81.315805 
L 411.451169 81.315805 
L 411.470162 81.205073 
L 411.581217 80.471343 
L 411.599962 80.361646 
L 411.710934 79.732439 
L 411.711038 79.732439 
L 411.726153 79.622741 
L 411.8364 78.825884 
L 411.837043 78.825884 
L 411.853713 78.718256 
L 411.853713 78.715152 
L 411.964769 77.797213 
L 411.9826 77.687516 
L 412.093697 77.021053 
L 412.111902 76.913426 
L 412.222833 76.120708 
L 412.222999 76.120708 
L 412.242241 76.011011 
L 412.35201 75.170688 
L 412.353317 75.170688 
L 412.364244 75.060991 
L 412.475175 74.239296 
L 412.475341 74.239296 
L 412.491182 74.129599 
L 412.601574 73.26237 
L 412.602279 73.26237 
L 412.620028 73.152673 
L 412.731041 72.395141 
L 412.742819 72.285443 
L 412.852879 71.424423 
L 412.853915 71.424423 
L 412.874733 71.314726 
L 412.985457 70.435078 
L 412.985788 70.435078 
L 413.006689 70.328486 
L 413.006689 70.325381 
L 413.117329 69.47264 
L 413.117786 69.47264 
L 413.133917 69.362943 
L 413.133917 69.361908 
L 413.244848 68.485365 
L 413.24489 68.485365 
L 413.258865 68.383946 
L 413.258865 68.375667 
L 413.36992 67.601577 
L 413.369961 67.601577 
L 413.385036 67.490845 
L 413.49607 66.500465 
L 413.509216 66.390768 
L 413.620313 65.445923 
L 413.756581 64.186474 
L 413.772132 64.076777 
L 413.883188 63.021199 
L 413.892974 62.911502 
L 414.003822 61.843506 
L 414.004009 61.843506 
L 414.015683 61.733809 
L 414.126157 60.576813 
L 414.126655 60.576813 
L 414.137686 60.467116 
L 414.248534 59.330818 
L 414.258984 59.22112 
L 414.369832 58.19038 
L 414.370039 58.19038 
L 414.382397 58.080683 
L 414.49283 56.892641 
L 414.493328 56.892641 
L 414.502824 56.782944 
L 414.61388 55.530739 
L 414.622796 55.423111 
L 414.72 54.144 
L 414.72 54.144 
" clip-path="url(#p1266d4e2ee)" style="fill: none; stroke: #ff8c00; stroke-width: 1.5; stroke-linecap: square"/>
   </g>
   <g id="line2d_14">
    <path d="M 74.605714 307.584 
L 414.72 54.144 
" clip-path="url(#p1266d4e2ee)" style="fill: none; stroke-dasharray: 5.55,2.4; stroke-dashoffset: 0; stroke: #0000ff; stroke-width: 1.5"/>
   </g>
   <g id="patch_3">
    <path d="M 57.6 307.584 
L 57.6 41.472 
" style="fill: none; stroke: #000000; stroke-width: 0.8; stroke-linejoin: miter; stroke-linecap: square"/>
   </g>
   <g id="patch_4">
    <path d="M 414.72 307.584 
L 414.72 41.472 
" style="fill: none; stroke: #000000; stroke-width: 0.8; stroke-linejoin: miter; stroke-linecap: square"/>
   </g>
   <g id="patch_5">
    <path d="M 57.6 307.584 
L 414.72 307.584 
" style="fill: none; stroke: #000000; stroke-width: 0.8; stroke-linejoin: miter; stroke-linecap: square"/>
   </g>
   <g id="patch_6">
    <path d="M 57.6 41.472 
L 414.72 41.472 
" style="fill: none; stroke: #000000; stroke-width: 0.8; stroke-linejoin: miter; stroke-linecap: square"/>
   </g>
   <g id="text_15">
    <!-- ROC CURVE -->
    <g transform="translate(200.855625 35.472)scale(0.12 -0.12)">
     <defs>
      <path id="DejaVuSans-4f" d="M 2522 4238 
Q 1834 4238 1429 3725 
Q 1025 3213 1025 2328 
Q 1025 1447 1429 934 
Q 1834 422 2522 422 
Q 3209 422 3611 934 
Q 4013 1447 4013 2328 
Q 4013 3213 3611 3725 
Q 3209 4238 2522 4238 
z
M 2522 4750 
Q 3503 4750 4090 4092 
Q 4678 3434 4678 2328 
Q 4678 1225 4090 567 
Q 3503 -91 2522 -91 
Q 1538 -91 948 565 
Q 359 1222 359 2328 
Q 359 3434 948 4092 
Q 1538 4750 2522 4750 
z
" transform="scale(0.015625)"/>
      <path id="DejaVuSans-43" d="M 4122 4306 
L 4122 3641 
Q 3803 3938 3442 4084 
Q 3081 4231 2675 4231 
Q 1875 4231 1450 3742 
Q 1025 3253 1025 2328 
Q 1025 1406 1450 917 
Q 1875 428 2675 428 
Q 3081 428 3442 575 
Q 3803 722 4122 1019 
L 4122 359 
Q 3791 134 3420 21 
Q 3050 -91 2638 -91 
Q 1578 -91 968 557 
Q 359 1206 359 2328 
Q 359 3453 968 4101 
Q 1578 4750 2638 4750 
Q 3056 4750 3426 4639 
Q 3797 4528 4122 4306 
z
" transform="scale(0.015625)"/>
      <path id="DejaVuSans-55" d="M 556 4666 
L 1191 4666 
L 1191 1831 
Q 1191 1081 1462 751 
Q 1734 422 2344 422 
Q 2950 422 3222 751 
Q 3494 1081 3494 1831 
L 3494 4666 
L 4128 4666 
L 4128 1753 
Q 4128 841 3676 375 
Q 3225 -91 2344 -91 
Q 1459 -91 1007 375 
Q 556 841 556 1753 
L 556 4666 
z
" transform="scale(0.015625)"/>
      <path id="DejaVuSans-56" d="M 1831 0 
L 50 4666 
L 709 4666 
L 2188 738 
L 3669 4666 
L 4325 4666 
L 2547 0 
L 1831 0 
z
" transform="scale(0.015625)"/>
      <path id="DejaVuSans-45" d="M 628 4666 
L 3578 4666 
L 3578 4134 
L 1259 4134 
L 1259 2753 
L 3481 2753 
L 3481 2222 
L 1259 2222 
L 1259 531 
L 3634 531 
L 3634 0 
L 628 0 
L 628 4666 
z
" transform="scale(0.015625)"/>
     </defs>
     <use xlink:href="#DejaVuSans-52"/>
     <use xlink:href="#DejaVuSans-4f" x="69.482422"/>
     <use xlink:href="#DejaVuSans-43" x="148.193359"/>
     <use xlink:href="#DejaVuSans-20" x="218.017578"/>
     <use xlink:href="#DejaVuSans-43" x="249.804688"/>
     <use xlink:href="#DejaVuSans-55" x="319.628906"/>
     <use xlink:href="#DejaVuSans-52" x="392.822266"/>
     <use xlink:href="#DejaVuSans-56" x="456.804688"/>
     <use xlink:href="#DejaVuSans-45" x="525.212891"/>
    </g>
   </g>
   <g id="legend_1">
    <g id="patch_7">
     <path d="M 234.97 302.584 
L 407.72 302.584 
Q 409.72 302.584 409.72 300.584 
L 409.72 286.905875 
Q 409.72 284.905875 407.72 284.905875 
L 234.97 284.905875 
Q 232.97 284.905875 232.97 286.905875 
L 232.97 300.584 
Q 232.97 302.584 234.97 302.584 
z
" style="fill: #ffffff; opacity: 0.8; stroke: #cccccc; stroke-linejoin: miter"/>
    </g>
    <g id="line2d_15">
     <path d="M 236.97 293.004312 
L 246.97 293.004312 
L 256.97 293.004312 
" style="fill: none; stroke: #ff8c00; stroke-width: 1.5; stroke-linecap: square"/>
    </g>
    <g id="text_16">
     <!-- ROC curve (ROC AUC=0.26) -->
     <g transform="translate(264.97 296.504312)scale(0.1 -0.1)">
      <defs>
       <path id="DejaVuSans-63" d="M 3122 3366 
L 3122 2828 
Q 2878 2963 2633 3030 
Q 2388 3097 2138 3097 
Q 1578 3097 1268 2742 
Q 959 2388 959 1747 
Q 959 1106 1268 751 
Q 1578 397 2138 397 
Q 2388 397 2633 464 
Q 2878 531 3122 666 
L 3122 134 
Q 2881 22 2623 -34 
Q 2366 -91 2075 -91 
Q 1284 -91 818 406 
Q 353 903 353 1747 
Q 353 2603 823 3093 
Q 1294 3584 2113 3584 
Q 2378 3584 2631 3529 
Q 2884 3475 3122 3366 
z
" transform="scale(0.015625)"/>
       <path id="DejaVuSans-28" d="M 1984 4856 
Q 1566 4138 1362 3434 
Q 1159 2731 1159 2009 
Q 1159 1288 1364 580 
Q 1569 -128 1984 -844 
L 1484 -844 
Q 1016 -109 783 600 
Q 550 1309 550 2009 
Q 550 2706 781 3412 
Q 1013 4119 1484 4856 
L 1984 4856 
z
" transform="scale(0.015625)"/>
       <path id="DejaVuSans-41" d="M 2188 4044 
L 1331 1722 
L 3047 1722 
L 2188 4044 
z
M 1831 4666 
L 2547 4666 
L 4325 0 
L 3669 0 
L 3244 1197 
L 1141 1197 
L 716 0 
L 50 0 
L 1831 4666 
z
" transform="scale(0.015625)"/>
       <path id="DejaVuSans-3d" d="M 678 2906 
L 4684 2906 
L 4684 2381 
L 678 2381 
L 678 2906 
z
M 678 1631 
L 4684 1631 
L 4684 1100 
L 678 1100 
L 678 1631 
z
" transform="scale(0.015625)"/>
       <path id="DejaVuSans-29" d="M 513 4856 
L 1013 4856 
Q 1481 4119 1714 3412 
Q 1947 2706 1947 2009 
Q 1947 1309 1714 600 
Q 1481 -109 1013 -844 
L 513 -844 
Q 928 -128 1133 580 
Q 1338 1288 1338 2009 
Q 1338 2731 1133 3434 
Q 928 4138 513 4856 
z
" transform="scale(0.015625)"/>
      </defs>
      <use xlink:href="#DejaVuSans-52"/>
      <use xlink:href="#DejaVuSans-4f" x="69.482422"/>
      <use xlink:href="#DejaVuSans-43" x="148.193359"/>
      <use xlink:href="#DejaVuSans-20" x="218.017578"/>
      <use xlink:href="#DejaVuSans-63" x="249.804688"/>
      <use xlink:href="#DejaVuSans-75" x="304.785156"/>
      <use xlink:href="#DejaVuSans-72" x="368.164062"/>
      <use xlink:href="#DejaVuSans-76" x="409.277344"/>
      <use xlink:href="#DejaVuSans-65" x="468.457031"/>
      <use xlink:href="#DejaVuSans-20" x="529.980469"/>
      <use xlink:href="#DejaVuSans-28" x="561.767578"/>
      <use xlink:href="#DejaVuSans-52" x="600.78125"/>
      <use xlink:href="#DejaVuSans-4f" x="670.263672"/>
      <use xlink:href="#DejaVuSans-43" x="748.974609"/>
      <use xlink:href="#DejaVuSans-20" x="818.798828"/>
      <use xlink:href="#DejaVuSans-41" x="850.585938"/>
      <use xlink:href="#DejaVuSans-55" x="918.994141"/>
      <use xlink:href="#DejaVuSans-43" x="992.1875"/>
      <use xlink:href="#DejaVuSans-3d" x="1062.011719"/>
      <use xlink:href="#DejaVuSans-30" x="1145.800781"/>
      <use xlink:href="#DejaVuSans-2e" x="1209.423828"/>
      <use xlink:href="#DejaVuSans-32" x="1241.210938"/>
      <use xlink:href="#DejaVuSans-36" x="1304.833984"/>
      <use xlink:href="#DejaVuSans-29" x="1368.457031"/>
     </g>
    </g>
   </g>
  </g>
 </g>
 <defs>
  <clipPath id="p1266d4e2ee">
   <rect x="57.6" y="41.472" width="357.12" height="266.112"/>
  </clipPath>
 </defs>
</svg>
