<?xml version="1.0" encoding="utf-8" standalone="no"?>
<!DOCTYPE svg PUBLIC "-//W3C//DTD SVG 1.1//EN"
  "http://www.w3.org/Graphics/SVG/1.1/DTD/svg11.dtd">
<svg xmlns:xlink="http://www.w3.org/1999/xlink" width="460.8pt" height="345.6pt" viewBox="0 0 460.8 345.6" xmlns="http://www.w3.org/2000/svg" version="1.1">
 <metadata>
  <rdf:RDF xmlns:dc="http://purl.org/dc/elements/1.1/" xmlns:cc="http://creativecommons.org/ns#" xmlns:rdf="http://www.w3.org/1999/02/22-rdf-syntax-ns#">
   <cc:Work>
    <dc:type rdf:resource="http://purl.org/dc/dcmitype/StillImage"/>
    <dc:date>2022-05-26T13:52:04.279264</dc:date>
    <dc:format>image/svg+xml</dc:format>
    <dc:creator>
     <cc:Agent>
      <dc:title>Matplotlib v3.5.1, https://matplotlib.org/</dc:title>
     </cc:Agent>
    </dc:creator>
   </cc:Work>
  </rdf:RDF>
 </metadata>
 <defs>
  <style type="text/css">*{stroke-linejoin: round; stroke-linecap: butt}</style>
 </defs>
 <g id="figure_1">
  <g id="patch_1">
   <path d="M 0 345.6 
L 460.8 345.6 
L 460.8 0 
L 0 0 
z
" style="fill: #ffffff"/>
  </g>
  <g id="axes_1">
   <g id="patch_2">
    <path d="M 57.6 307.584 
L 414.72 307.584 
L 414.72 41.472 
L 57.6 41.472 
z
" style="fill: #ffffff"/>
   </g>
   <g id="matplotlib.axis_1">
    <g id="xtick_1">
     <g id="line2d_1">
      <defs>
       <path id="md481fb3b57" d="M 0 0 
L 0 3.5 
" style="stroke: #000000; stroke-width: 0.8"/>
      </defs>
      <g>
       <use xlink:href="#md481fb3b57" x="74.605714" y="307.584" style="stroke: #000000; stroke-width: 0.8"/>
      </g>
     </g>
     <g id="text_1">
      <!-- 0.0 -->
      <g transform="translate(66.654152 322.182437)scale(0.1 -0.1)">
       <defs>
        <path id="DejaVuSans-30" d="M 2034 4250 
Q 1547 4250 1301 3770 
Q 1056 3291 1056 2328 
Q 1056 1369 1301 889 
Q 1547 409 2034 409 
Q 2525 409 2770 889 
Q 3016 1369 3016 2328 
Q 3016 3291 2770 3770 
Q 2525 4250 2034 4250 
z
M 2034 4750 
Q 2819 4750 3233 4129 
Q 3647 3509 3647 2328 
Q 3647 1150 3233 529 
Q 2819 -91 2034 -91 
Q 1250 -91 836 529 
Q 422 1150 422 2328 
Q 422 3509 836 4129 
Q 1250 4750 2034 4750 
z
" transform="scale(0.015625)"/>
        <path id="DejaVuSans-2e" d="M 684 794 
L 1344 794 
L 1344 0 
L 684 0 
L 684 794 
z
" transform="scale(0.015625)"/>
       </defs>
       <use xlink:href="#DejaVuSans-30"/>
       <use xlink:href="#DejaVuSans-2e" x="63.623047"/>
       <use xlink:href="#DejaVuSans-30" x="95.410156"/>
      </g>
     </g>
    </g>
    <g id="xtick_2">
     <g id="line2d_2">
      <g>
       <use xlink:href="#md481fb3b57" x="142.628571" y="307.584" style="stroke: #000000; stroke-width: 0.8"/>
      </g>
     </g>
     <g id="text_2">
      <!-- 0.2 -->
      <g transform="translate(134.677009 322.182437)scale(0.1 -0.1)">
       <defs>
        <path id="DejaVuSans-32" d="M 1228 531 
L 3431 531 
L 3431 0 
L 469 0 
L 469 531 
Q 828 903 1448 1529 
Q 2069 2156 2228 2338 
Q 2531 2678 2651 2914 
Q 2772 3150 2772 3378 
Q 2772 3750 2511 3984 
Q 2250 4219 1831 4219 
Q 1534 4219 1204 4116 
Q 875 4013 500 3803 
L 500 4441 
Q 881 4594 1212 4672 
Q 1544 4750 1819 4750 
Q 2544 4750 2975 4387 
Q 3406 4025 3406 3419 
Q 3406 3131 3298 2873 
Q 3191 2616 2906 2266 
Q 2828 2175 2409 1742 
Q 1991 1309 1228 531 
z
" transform="scale(0.015625)"/>
       </defs>
       <use xlink:href="#DejaVuSans-30"/>
       <use xlink:href="#DejaVuSans-2e" x="63.623047"/>
       <use xlink:href="#DejaVuSans-32" x="95.410156"/>
      </g>
     </g>
    </g>
    <g id="xtick_3">
     <g id="line2d_3">
      <g>
       <use xlink:href="#md481fb3b57" x="210.651429" y="307.584" style="stroke: #000000; stroke-width: 0.8"/>
      </g>
     </g>
     <g id="text_3">
      <!-- 0.4 -->
      <g transform="translate(202.699866 322.182437)scale(0.1 -0.1)">
       <defs>
        <path id="DejaVuSans-34" d="M 2419 4116 
L 825 1625 
L 2419 1625 
L 2419 4116 
z
M 2253 4666 
L 3047 4666 
L 3047 1625 
L 3713 1625 
L 3713 1100 
L 3047 1100 
L 3047 0 
L 2419 0 
L 2419 1100 
L 313 1100 
L 313 1709 
L 2253 4666 
z
" transform="scale(0.015625)"/>
       </defs>
       <use xlink:href="#DejaVuSans-30"/>
       <use xlink:href="#DejaVuSans-2e" x="63.623047"/>
       <use xlink:href="#DejaVuSans-34" x="95.410156"/>
      </g>
     </g>
    </g>
    <g id="xtick_4">
     <g id="line2d_4">
      <g>
       <use xlink:href="#md481fb3b57" x="278.674286" y="307.584" style="stroke: #000000; stroke-width: 0.8"/>
      </g>
     </g>
     <g id="text_4">
      <!-- 0.6 -->
      <g transform="translate(270.722723 322.182437)scale(0.1 -0.1)">
       <defs>
        <path id="DejaVuSans-36" d="M 2113 2584 
Q 1688 2584 1439 2293 
Q 1191 2003 1191 1497 
Q 1191 994 1439 701 
Q 1688 409 2113 409 
Q 2538 409 2786 701 
Q 3034 994 3034 1497 
Q 3034 2003 2786 2293 
Q 2538 2584 2113 2584 
z
M 3366 4563 
L 3366 3988 
Q 3128 4100 2886 4159 
Q 2644 4219 2406 4219 
Q 1781 4219 1451 3797 
Q 1122 3375 1075 2522 
Q 1259 2794 1537 2939 
Q 1816 3084 2150 3084 
Q 2853 3084 3261 2657 
Q 3669 2231 3669 1497 
Q 3669 778 3244 343 
Q 2819 -91 2113 -91 
Q 1303 -91 875 529 
Q 447 1150 447 2328 
Q 447 3434 972 4092 
Q 1497 4750 2381 4750 
Q 2619 4750 2861 4703 
Q 3103 4656 3366 4563 
z
" transform="scale(0.015625)"/>
       </defs>
       <use xlink:href="#DejaVuSans-30"/>
       <use xlink:href="#DejaVuSans-2e" x="63.623047"/>
       <use xlink:href="#DejaVuSans-36" x="95.410156"/>
      </g>
     </g>
    </g>
    <g id="xtick_5">
     <g id="line2d_5">
      <g>
       <use xlink:href="#md481fb3b57" x="346.697143" y="307.584" style="stroke: #000000; stroke-width: 0.8"/>
      </g>
     </g>
     <g id="text_5">
      <!-- 0.8 -->
      <g transform="translate(338.74558 322.182437)scale(0.1 -0.1)">
       <defs>
        <path id="DejaVuSans-38" d="M 2034 2216 
Q 1584 2216 1326 1975 
Q 1069 1734 1069 1313 
Q 1069 891 1326 650 
Q 1584 409 2034 409 
Q 2484 409 2743 651 
Q 3003 894 3003 1313 
Q 3003 1734 2745 1975 
Q 2488 2216 2034 2216 
z
M 1403 2484 
Q 997 2584 770 2862 
Q 544 3141 544 3541 
Q 544 4100 942 4425 
Q 1341 4750 2034 4750 
Q 2731 4750 3128 4425 
Q 3525 4100 3525 3541 
Q 3525 3141 3298 2862 
Q 3072 2584 2669 2484 
Q 3125 2378 3379 2068 
Q 3634 1759 3634 1313 
Q 3634 634 3220 271 
Q 2806 -91 2034 -91 
Q 1263 -91 848 271 
Q 434 634 434 1313 
Q 434 1759 690 2068 
Q 947 2378 1403 2484 
z
M 1172 3481 
Q 1172 3119 1398 2916 
Q 1625 2713 2034 2713 
Q 2441 2713 2670 2916 
Q 2900 3119 2900 3481 
Q 2900 3844 2670 4047 
Q 2441 4250 2034 4250 
Q 1625 4250 1398 4047 
Q 1172 3844 1172 3481 
z
" transform="scale(0.015625)"/>
       </defs>
       <use xlink:href="#DejaVuSans-30"/>
       <use xlink:href="#DejaVuSans-2e" x="63.623047"/>
       <use xlink:href="#DejaVuSans-38" x="95.410156"/>
      </g>
     </g>
    </g>
    <g id="xtick_6">
     <g id="line2d_6">
      <g>
       <use xlink:href="#md481fb3b57" x="414.72" y="307.584" style="stroke: #000000; stroke-width: 0.8"/>
      </g>
     </g>
     <g id="text_6">
      <!-- 1.0 -->
      <g transform="translate(406.768438 322.182437)scale(0.1 -0.1)">
       <defs>
        <path id="DejaVuSans-31" d="M 794 531 
L 1825 531 
L 1825 4091 
L 703 3866 
L 703 4441 
L 1819 4666 
L 2450 4666 
L 2450 531 
L 3481 531 
L 3481 0 
L 794 0 
L 794 531 
z
" transform="scale(0.015625)"/>
       </defs>
       <use xlink:href="#DejaVuSans-31"/>
       <use xlink:href="#DejaVuSans-2e" x="63.623047"/>
       <use xlink:href="#DejaVuSans-30" x="95.410156"/>
      </g>
     </g>
    </g>
    <g id="text_7">
     <!-- False Positive Rate -->
     <g transform="translate(189.693594 335.860562)scale(0.1 -0.1)">
      <defs>
       <path id="DejaVuSans-46" d="M 628 4666 
L 3309 4666 
L 3309 4134 
L 1259 4134 
L 1259 2759 
L 3109 2759 
L 3109 2228 
L 1259 2228 
L 1259 0 
L 628 0 
L 628 4666 
z
" transform="scale(0.015625)"/>
       <path id="DejaVuSans-61" d="M 2194 1759 
Q 1497 1759 1228 1600 
Q 959 1441 959 1056 
Q 959 750 1161 570 
Q 1363 391 1709 391 
Q 2188 391 2477 730 
Q 2766 1069 2766 1631 
L 2766 1759 
L 2194 1759 
z
M 3341 1997 
L 3341 0 
L 2766 0 
L 2766 531 
Q 2569 213 2275 61 
Q 1981 -91 1556 -91 
Q 1019 -91 701 211 
Q 384 513 384 1019 
Q 384 1609 779 1909 
Q 1175 2209 1959 2209 
L 2766 2209 
L 2766 2266 
Q 2766 2663 2505 2880 
Q 2244 3097 1772 3097 
Q 1472 3097 1187 3025 
Q 903 2953 641 2809 
L 641 3341 
Q 956 3463 1253 3523 
Q 1550 3584 1831 3584 
Q 2591 3584 2966 3190 
Q 3341 2797 3341 1997 
z
" transform="scale(0.015625)"/>
       <path id="DejaVuSans-6c" d="M 603 4863 
L 1178 4863 
L 1178 0 
L 603 0 
L 603 4863 
z
" transform="scale(0.015625)"/>
       <path id="DejaVuSans-73" d="M 2834 3397 
L 2834 2853 
Q 2591 2978 2328 3040 
Q 2066 3103 1784 3103 
Q 1356 3103 1142 2972 
Q 928 2841 928 2578 
Q 928 2378 1081 2264 
Q 1234 2150 1697 2047 
L 1894 2003 
Q 2506 1872 2764 1633 
Q 3022 1394 3022 966 
Q 3022 478 2636 193 
Q 2250 -91 1575 -91 
Q 1294 -91 989 -36 
Q 684 19 347 128 
L 347 722 
Q 666 556 975 473 
Q 1284 391 1588 391 
Q 1994 391 2212 530 
Q 2431 669 2431 922 
Q 2431 1156 2273 1281 
Q 2116 1406 1581 1522 
L 1381 1569 
Q 847 1681 609 1914 
Q 372 2147 372 2553 
Q 372 3047 722 3315 
Q 1072 3584 1716 3584 
Q 2034 3584 2315 3537 
Q 2597 3491 2834 3397 
z
" transform="scale(0.015625)"/>
       <path id="DejaVuSans-65" d="M 3597 1894 
L 3597 1613 
L 953 1613 
Q 991 1019 1311 708 
Q 1631 397 2203 397 
Q 2534 397 2845 478 
Q 3156 559 3463 722 
L 3463 178 
Q 3153 47 2828 -22 
Q 2503 -91 2169 -91 
Q 1331 -91 842 396 
Q 353 884 353 1716 
Q 353 2575 817 3079 
Q 1281 3584 2069 3584 
Q 2775 3584 3186 3129 
Q 3597 2675 3597 1894 
z
M 3022 2063 
Q 3016 2534 2758 2815 
Q 2500 3097 2075 3097 
Q 1594 3097 1305 2825 
Q 1016 2553 972 2059 
L 3022 2063 
z
" transform="scale(0.015625)"/>
       <path id="DejaVuSans-20" transform="scale(0.015625)"/>
       <path id="DejaVuSans-50" d="M 1259 4147 
L 1259 2394 
L 2053 2394 
Q 2494 2394 2734 2622 
Q 2975 2850 2975 3272 
Q 2975 3691 2734 3919 
Q 2494 4147 2053 4147 
L 1259 4147 
z
M 628 4666 
L 2053 4666 
Q 2838 4666 3239 4311 
Q 3641 3956 3641 3272 
Q 3641 2581 3239 2228 
Q 2838 1875 2053 1875 
L 1259 1875 
L 1259 0 
L 628 0 
L 628 4666 
z
" transform="scale(0.015625)"/>
       <path id="DejaVuSans-6f" d="M 1959 3097 
Q 1497 3097 1228 2736 
Q 959 2375 959 1747 
Q 959 1119 1226 758 
Q 1494 397 1959 397 
Q 2419 397 2687 759 
Q 2956 1122 2956 1747 
Q 2956 2369 2687 2733 
Q 2419 3097 1959 3097 
z
M 1959 3584 
Q 2709 3584 3137 3096 
Q 3566 2609 3566 1747 
Q 3566 888 3137 398 
Q 2709 -91 1959 -91 
Q 1206 -91 779 398 
Q 353 888 353 1747 
Q 353 2609 779 3096 
Q 1206 3584 1959 3584 
z
" transform="scale(0.015625)"/>
       <path id="DejaVuSans-69" d="M 603 3500 
L 1178 3500 
L 1178 0 
L 603 0 
L 603 3500 
z
M 603 4863 
L 1178 4863 
L 1178 4134 
L 603 4134 
L 603 4863 
z
" transform="scale(0.015625)"/>
       <path id="DejaVuSans-74" d="M 1172 4494 
L 1172 3500 
L 2356 3500 
L 2356 3053 
L 1172 3053 
L 1172 1153 
Q 1172 725 1289 603 
Q 1406 481 1766 481 
L 2356 481 
L 2356 0 
L 1766 0 
Q 1100 0 847 248 
Q 594 497 594 1153 
L 594 3053 
L 172 3053 
L 172 3500 
L 594 3500 
L 594 4494 
L 1172 4494 
z
" transform="scale(0.015625)"/>
       <path id="DejaVuSans-76" d="M 191 3500 
L 800 3500 
L 1894 563 
L 2988 3500 
L 3597 3500 
L 2284 0 
L 1503 0 
L 191 3500 
z
" transform="scale(0.015625)"/>
       <path id="DejaVuSans-52" d="M 2841 2188 
Q 3044 2119 3236 1894 
Q 3428 1669 3622 1275 
L 4263 0 
L 3584 0 
L 2988 1197 
Q 2756 1666 2539 1819 
Q 2322 1972 1947 1972 
L 1259 1972 
L 1259 0 
L 628 0 
L 628 4666 
L 2053 4666 
Q 2853 4666 3247 4331 
Q 3641 3997 3641 3322 
Q 3641 2881 3436 2590 
Q 3231 2300 2841 2188 
z
M 1259 4147 
L 1259 2491 
L 2053 2491 
Q 2509 2491 2742 2702 
Q 2975 2913 2975 3322 
Q 2975 3731 2742 3939 
Q 2509 4147 2053 4147 
L 1259 4147 
z
" transform="scale(0.015625)"/>
      </defs>
      <use xlink:href="#DejaVuSans-46"/>
      <use xlink:href="#DejaVuSans-61" x="48.394531"/>
      <use xlink:href="#DejaVuSans-6c" x="109.673828"/>
      <use xlink:href="#DejaVuSans-73" x="137.457031"/>
      <use xlink:href="#DejaVuSans-65" x="189.556641"/>
      <use xlink:href="#DejaVuSans-20" x="251.080078"/>
      <use xlink:href="#DejaVuSans-50" x="282.867188"/>
      <use xlink:href="#DejaVuSans-6f" x="339.544922"/>
      <use xlink:href="#DejaVuSans-73" x="400.726562"/>
      <use xlink:href="#DejaVuSans-69" x="452.826172"/>
      <use xlink:href="#DejaVuSans-74" x="480.609375"/>
      <use xlink:href="#DejaVuSans-69" x="519.818359"/>
      <use xlink:href="#DejaVuSans-76" x="547.601562"/>
      <use xlink:href="#DejaVuSans-65" x="606.78125"/>
      <use xlink:href="#DejaVuSans-20" x="668.304688"/>
      <use xlink:href="#DejaVuSans-52" x="700.091797"/>
      <use xlink:href="#DejaVuSans-61" x="767.324219"/>
      <use xlink:href="#DejaVuSans-74" x="828.603516"/>
      <use xlink:href="#DejaVuSans-65" x="867.8125"/>
     </g>
    </g>
   </g>
   <g id="matplotlib.axis_2">
    <g id="ytick_1">
     <g id="line2d_7">
      <defs>
       <path id="m2250f8066c" d="M 0 0 
L -3.5 0 
" style="stroke: #000000; stroke-width: 0.8"/>
      </defs>
      <g>
       <use xlink:href="#m2250f8066c" x="57.6" y="307.584" style="stroke: #000000; stroke-width: 0.8"/>
      </g>
     </g>
     <g id="text_8">
      <!-- 0.0 -->
      <g transform="translate(34.696875 311.383219)scale(0.1 -0.1)">
       <use xlink:href="#DejaVuSans-30"/>
       <use xlink:href="#DejaVuSans-2e" x="63.623047"/>
       <use xlink:href="#DejaVuSans-30" x="95.410156"/>
      </g>
     </g>
    </g>
    <g id="ytick_2">
     <g id="line2d_8">
      <g>
       <use xlink:href="#m2250f8066c" x="57.6" y="256.896" style="stroke: #000000; stroke-width: 0.8"/>
      </g>
     </g>
     <g id="text_9">
      <!-- 0.2 -->
      <g transform="translate(34.696875 260.695219)scale(0.1 -0.1)">
       <use xlink:href="#DejaVuSans-30"/>
       <use xlink:href="#DejaVuSans-2e" x="63.623047"/>
       <use xlink:href="#DejaVuSans-32" x="95.410156"/>
      </g>
     </g>
    </g>
    <g id="ytick_3">
     <g id="line2d_9">
      <g>
       <use xlink:href="#m2250f8066c" x="57.6" y="206.208" style="stroke: #000000; stroke-width: 0.8"/>
      </g>
     </g>
     <g id="text_10">
      <!-- 0.4 -->
      <g transform="translate(34.696875 210.007219)scale(0.1 -0.1)">
       <use xlink:href="#DejaVuSans-30"/>
       <use xlink:href="#DejaVuSans-2e" x="63.623047"/>
       <use xlink:href="#DejaVuSans-34" x="95.410156"/>
      </g>
     </g>
    </g>
    <g id="ytick_4">
     <g id="line2d_10">
      <g>
       <use xlink:href="#m2250f8066c" x="57.6" y="155.52" style="stroke: #000000; stroke-width: 0.8"/>
      </g>
     </g>
     <g id="text_11">
      <!-- 0.6 -->
      <g transform="translate(34.696875 159.319219)scale(0.1 -0.1)">
       <use xlink:href="#DejaVuSans-30"/>
       <use xlink:href="#DejaVuSans-2e" x="63.623047"/>
       <use xlink:href="#DejaVuSans-36" x="95.410156"/>
      </g>
     </g>
    </g>
    <g id="ytick_5">
     <g id="line2d_11">
      <g>
       <use xlink:href="#m2250f8066c" x="57.6" y="104.832" style="stroke: #000000; stroke-width: 0.8"/>
      </g>
     </g>
     <g id="text_12">
      <!-- 0.8 -->
      <g transform="translate(34.696875 108.631219)scale(0.1 -0.1)">
       <use xlink:href="#DejaVuSans-30"/>
       <use xlink:href="#DejaVuSans-2e" x="63.623047"/>
       <use xlink:href="#DejaVuSans-38" x="95.410156"/>
      </g>
     </g>
    </g>
    <g id="ytick_6">
     <g id="line2d_12">
      <g>
       <use xlink:href="#m2250f8066c" x="57.6" y="54.144" style="stroke: #000000; stroke-width: 0.8"/>
      </g>
     </g>
     <g id="text_13">
      <!-- 1.0 -->
      <g transform="translate(34.696875 57.943219)scale(0.1 -0.1)">
       <use xlink:href="#DejaVuSans-31"/>
       <use xlink:href="#DejaVuSans-2e" x="63.623047"/>
       <use xlink:href="#DejaVuSans-30" x="95.410156"/>
      </g>
     </g>
    </g>
    <g id="text_14">
     <!-- True Positive Rate -->
     <g transform="translate(28.617187 219.057687)rotate(-90)scale(0.1 -0.1)">
      <defs>
       <path id="DejaVuSans-54" d="M -19 4666 
L 3928 4666 
L 3928 4134 
L 2272 4134 
L 2272 0 
L 1638 0 
L 1638 4134 
L -19 4134 
L -19 4666 
z
" transform="scale(0.015625)"/>
       <path id="DejaVuSans-72" d="M 2631 2963 
Q 2534 3019 2420 3045 
Q 2306 3072 2169 3072 
Q 1681 3072 1420 2755 
Q 1159 2438 1159 1844 
L 1159 0 
L 581 0 
L 581 3500 
L 1159 3500 
L 1159 2956 
Q 1341 3275 1631 3429 
Q 1922 3584 2338 3584 
Q 2397 3584 2469 3576 
Q 2541 3569 2628 3553 
L 2631 2963 
z
" transform="scale(0.015625)"/>
       <path id="DejaVuSans-75" d="M 544 1381 
L 544 3500 
L 1119 3500 
L 1119 1403 
Q 1119 906 1312 657 
Q 1506 409 1894 409 
Q 2359 409 2629 706 
Q 2900 1003 2900 1516 
L 2900 3500 
L 3475 3500 
L 3475 0 
L 2900 0 
L 2900 538 
Q 2691 219 2414 64 
Q 2138 -91 1772 -91 
Q 1169 -91 856 284 
Q 544 659 544 1381 
z
M 1991 3584 
L 1991 3584 
z
" transform="scale(0.015625)"/>
      </defs>
      <use xlink:href="#DejaVuSans-54"/>
      <use xlink:href="#DejaVuSans-72" x="46.333984"/>
      <use xlink:href="#DejaVuSans-75" x="87.447266"/>
      <use xlink:href="#DejaVuSans-65" x="150.826172"/>
      <use xlink:href="#DejaVuSans-20" x="212.349609"/>
      <use xlink:href="#DejaVuSans-50" x="244.136719"/>
      <use xlink:href="#DejaVuSans-6f" x="300.814453"/>
      <use xlink:href="#DejaVuSans-73" x="361.996094"/>
      <use xlink:href="#DejaVuSans-69" x="414.095703"/>
      <use xlink:href="#DejaVuSans-74" x="441.878906"/>
      <use xlink:href="#DejaVuSans-69" x="481.087891"/>
      <use xlink:href="#DejaVuSans-76" x="508.871094"/>
      <use xlink:href="#DejaVuSans-65" x="568.050781"/>
      <use xlink:href="#DejaVuSans-20" x="629.574219"/>
      <use xlink:href="#DejaVuSans-52" x="661.361328"/>
      <use xlink:href="#DejaVuSans-61" x="728.59375"/>
      <use xlink:href="#DejaVuSans-74" x="789.873047"/>
      <use xlink:href="#DejaVuSans-65" x="829.082031"/>
     </g>
    </g>
   </g>
   <g id="line2d_13">
    <path d="M 74.605714 307.584 
L 75.326019 307.474066 
L 75.422857 307.459546 
L 75.437017 307.459546 
L 76.070544 307.349612 
L 76.181045 307.32887 
L 76.588768 307.218935 
L 76.687179 307.179525 
L 76.699848 307.179525 
L 77.026879 307.069591 
L 77.128893 307.021883 
L 77.137918 307.021883 
L 77.422885 306.911949 
L 77.534545 306.884984 
L 77.82742 306.77505 
L 77.929889 306.712823 
L 77.938501 306.712823 
L 78.229802 306.602888 
L 78.339144 306.548958 
L 78.340841 306.548958 
L 78.602334 306.439024 
L 78.709564 306.412059 
L 78.713249 306.412059 
L 79.027818 306.302125 
L 79.137698 306.258566 
L 79.138526 306.258566 
L 79.459388 306.150706 
L 79.569226 306.102999 
L 79.570489 306.102999 
L 79.822066 305.993064 
L 79.93236 305.957802 
L 79.933105 305.957802 
L 80.214636 305.847868 
L 80.326627 305.802235 
L 80.57988 305.692301 
L 80.68591 305.628 
L 80.69092 305.628 
L 80.926495 305.518065 
L 81.030537 305.464135 
L 81.037327 305.464135 
L 81.368622 305.354201 
L 81.476142 305.327236 
L 81.47933 305.327236 
L 81.725462 305.217302 
L 81.837288 305.169594 
L 82.120227 305.05966 
L 82.232259 305.009878 
L 82.484768 304.899944 
L 82.596138 304.870905 
L 82.862143 304.760971 
L 82.974672 304.688373 
L 83.187642 304.578438 
L 83.302118 304.493395 
L 83.502791 304.38346 
L 83.59168 304.335753 
L 83.613872 304.335753 
L 83.849902 304.225819 
L 83.961769 304.18226 
L 84.188733 304.072326 
L 84.298488 304.02047 
L 84.299813 304.02047 
L 84.547891 303.910536 
L 84.661497 303.848309 
L 84.909203 303.738374 
L 85.021029 303.698964 
L 85.236607 303.58903 
L 85.340235 303.549619 
L 85.347439 303.549619 
L 85.521036 303.439685 
L 85.634849 303.37331 
L 85.864338 303.263375 
L 85.976867 303.188703 
L 86.194722 303.078769 
L 86.305679 303.028987 
L 86.305803 303.028987 
L 86.559346 302.919053 
L 86.67142 302.869271 
L 86.792478 302.792525 
L 87.046022 302.68259 
L 87.159131 302.630735 
L 87.397977 302.5208 
L 87.512535 302.435757 
L 87.845528 302.325823 
L 87.953131 302.292635 
L 87.956567 302.292635 
L 88.147345 302.182701 
L 88.261034 302.118399 
L 88.487625 302.008465 
L 88.599823 301.952461 
L 88.803354 301.844601 
L 88.902717 301.801042 
L 88.914393 301.801042 
L 89.179901 301.693182 
L 89.291478 301.635103 
L 89.508464 301.525169 
L 89.621056 301.450497 
L 89.82353 301.339525 
L 89.933244 301.290781 
L 89.934528 301.290781 
L 90.12307 301.180847 
L 90.230218 301.133139 
L 90.234151 301.133139 
L 90.456395 301.023205 
L 90.569794 300.967201 
L 90.795846 300.857267 
L 90.908583 300.776372 
L 91.075431 300.666437 
L 91.188168 300.585542 
L 91.398943 300.475608 
L 91.513253 300.423752 
L 91.702168 300.313818 
L 91.816892 300.255739 
L 92.039281 300.145805 
L 92.155971 300.069059 
L 92.371094 299.959124 
L 92.465614 299.911417 
L 92.482174 299.911417 
L 92.653246 299.801483 
L 92.766893 299.735107 
L 92.978497 299.625173 
L 93.093883 299.556723 
L 93.262884 299.446789 
L 93.376531 299.384562 
L 93.567062 299.274628 
L 93.679632 299.199955 
L 93.879809 299.090021 
L 93.991966 299.038165 
L 94.212843 298.928231 
L 94.303761 298.882598 
L 94.323841 298.882598 
L 94.537618 298.772664 
L 94.650872 298.70214 
L 94.879782 298.592206 
L 94.988709 298.523756 
L 94.990841 298.523756 
L 95.189755 298.413822 
L 95.302078 298.353669 
L 95.47671 298.243735 
L 95.588825 298.191879 
L 95.774346 298.081945 
L 95.888573 297.998975 
L 96.103199 297.889041 
L 96.20782 297.830963 
L 96.214238 297.830963 
L 96.412551 297.721028 
L 96.524335 297.652579 
L 96.703522 297.542644 
L 96.815616 297.488714 
L 96.983852 297.37878 
L 97.097954 297.304108 
L 97.279583 297.194173 
L 97.392858 297.119501 
L 97.640688 297.009567 
L 97.754335 296.94734 
L 97.974799 296.837406 
L 98.087163 296.775179 
L 98.259849 296.665244 
L 98.374117 296.586424 
L 98.554255 296.476489 
L 98.666412 296.420485 
L 98.855659 296.310551 
L 98.972743 296.235878 
L 99.159381 296.125944 
L 99.273194 296.057494 
L 99.496514 295.94756 
L 99.609126 295.872888 
L 99.859399 295.762954 
L 99.971928 295.688281 
L 100.168089 295.578347 
L 100.280701 295.503675 
L 100.478684 295.39374 
L 100.594981 295.331513 
L 100.752348 295.221579 
L 100.872786 295.148981 
L 101.037274 295.039047 
L 101.150176 294.949855 
L 101.350601 294.83992 
L 101.462841 294.781842 
L 101.665999 294.671908 
L 101.781302 294.603458 
L 101.941775 294.493524 
L 102.054635 294.435445 
L 102.229184 294.325511 
L 102.348462 294.248764 
L 102.540069 294.13883 
L 102.652847 294.091123 
L 102.854224 293.981189 
L 102.966133 293.939704 
L 103.1483 293.82977 
L 103.26145 293.77584 
L 103.407142 293.665905 
L 103.519444 293.605753 
L 103.712479 293.495818 
L 103.822442 293.416998 
L 103.823518 293.416998 
L 104.011295 293.307063 
L 104.125957 293.236539 
L 104.32398 293.126605 
L 104.437462 293.068527 
L 104.627661 292.958592 
L 104.74785 292.888068 
L 104.888036 292.778134 
L 105.004291 292.695165 
L 105.165468 292.585231 
L 105.282593 292.502261 
L 105.452588 292.392327 
L 105.565283 292.311432 
L 105.762561 292.201498 
L 105.878569 292.122677 
L 106.039248 292.012743 
L 106.154303 291.948441 
L 106.346365 291.838507 
L 106.459184 291.780429 
L 106.620858 291.670494 
L 106.738273 291.612416 
L 106.883758 291.502482 
L 106.996908 291.434032 
L 107.209878 291.324098 
L 107.324602 291.2515 
L 107.506189 291.141565 
L 107.6217 291.071041 
L 107.76822 290.961107 
L 107.880542 290.89888 
L 108.047018 290.788946 
L 108.164433 290.714274 
L 108.367301 290.604339 
L 108.485461 290.527593 
L 108.663653 290.417658 
L 108.785829 290.336763 
L 108.97106 290.226829 
L 109.086778 290.150083 
L 109.231435 290.040148 
L 109.344213 289.955105 
L 109.522281 289.845171 
L 109.64189 289.762201 
L 109.808531 289.652267 
L 109.920937 289.587966 
L 110.138709 289.478032 
L 110.256269 289.401285 
L 110.416348 289.291351 
L 110.528546 289.235346 
L 110.702392 289.125412 
L 110.819434 289.054888 
L 110.987359 288.944954 
L 111.104898 288.866133 
L 111.299527 288.756199 
L 111.425181 288.67323 
L 111.585777 288.563295 
L 111.698638 288.513514 
L 111.865238 288.403579 
L 111.983564 288.33513 
L 112.138406 288.225196 
L 112.253254 288.131855 
L 112.410621 288.021921 
L 112.52638 287.945174 
L 112.696748 287.83524 
L 112.818427 287.76679 
L 112.992148 287.656856 
L 113.110287 287.571813 
L 113.358842 287.461878 
L 113.479155 287.412097 
L 113.651199 287.302162 
L 113.76938 287.22749 
L 113.95401 287.117556 
L 114.072647 287.038735 
L 114.264501 286.928801 
L 114.389493 286.84998 
L 114.558039 286.740046 
L 114.677896 286.644631 
L 114.871946 286.534697 
L 114.988864 286.464173 
L 115.169416 286.354239 
L 115.288011 286.275418 
L 115.517852 286.165483 
L 115.629636 286.097034 
L 115.778806 285.9871 
L 115.893136 285.908279 
L 116.064477 285.798344 
L 116.187522 285.680113 
L 116.349568 285.570179 
L 116.464623 285.522472 
L 116.647453 285.412537 
L 116.760189 285.317123 
L 116.963347 285.207188 
L 117.095666 285.111774 
L 117.270381 285.000802 
L 117.421828 284.871163 
L 117.610247 284.761229 
L 117.736977 284.672037 
L 117.905357 284.562102 
L 118.021613 284.479133 
L 118.163041 284.369199 
L 118.271471 284.298675 
L 118.274038 284.298675 
L 118.449415 284.188741 
L 118.56654 284.114068 
L 118.734879 284.004134 
L 118.863141 283.917016 
L 119.044729 283.807082 
L 119.165932 283.738632 
L 119.346174 283.628698 
L 119.454439 283.57062 
L 119.457089 283.57062 
L 119.620128 283.459648 
L 119.754807 283.363196 
L 119.916563 283.253262 
L 120.032736 283.170293 
L 120.207989 283.060359 
L 120.328468 282.987761 
L 120.489106 282.877826 
L 120.612648 282.780337 
L 120.766828 282.670403 
L 120.883249 282.583285 
L 121.079803 282.473351 
L 121.198688 282.390382 
L 121.338045 282.280448 
L 121.448049 282.187107 
L 121.449002 282.187107 
L 121.612248 282.077173 
L 121.737529 281.996278 
L 121.940025 281.886343 
L 122.052554 281.809597 
L 122.228718 281.699663 
L 122.354744 281.620842 
L 122.512112 281.510908 
L 122.629154 281.440384 
L 122.78352 281.330449 
L 122.898761 281.272371 
L 123.118438 281.162437 
L 123.237343 281.089839 
L 123.460663 280.979904 
L 123.573152 280.90938 
L 123.745962 280.799446 
L 123.872609 280.695735 
L 124.047779 280.5858 
L 124.160102 280.517351 
L 124.326122 280.407416 
L 124.44569 280.305779 
L 124.567907 280.218661 
L 124.715318 280.108727 
L 124.833126 280.021609 
L 125.030798 279.911675 
L 125.147074 279.828706 
L 125.317814 279.718771 
L 125.436057 279.633728 
L 125.598848 279.523794 
L 125.723115 279.436676 
L 125.879158 279.326742 
L 126.003921 279.227178 
L 126.192133 279.117244 
L 126.310169 279.052943 
L 126.44932 278.943009 
L 126.565037 278.868336 
L 126.694045 278.758402 
L 126.813198 278.681656 
L 126.953922 278.571721 
L 127.07084 278.511569 
L 127.24953 278.401634 
L 127.365785 278.341482 
L 127.548201 278.231547 
L 127.660192 278.179691 
L 127.81611 278.069757 
L 127.935968 277.976417 
L 128.10234 277.866482 
L 128.217023 277.793884 
L 128.381532 277.68395 
L 128.4958 277.605129 
L 128.649483 277.494158 
L 128.763834 277.408077 
L 128.959622 277.298143 
L 129.074139 277.242139 
L 129.244589 277.132204 
L 129.361383 277.078274 
L 129.548974 276.96834 
L 129.666885 276.901965 
L 129.868884 276.79203 
L 129.991971 276.696616 
L 130.190367 276.586682 
L 130.303021 276.503712 
L 130.439688 276.393778 
L 130.561698 276.323254 
L 130.727594 276.21332 
L 130.830601 276.146944 
L 130.838633 276.146944 
L 130.994717 276.03701 
L 131.10675 275.970635 
L 131.290904 275.8607 
L 131.423969 275.78188 
L 131.604438 275.67402 
L 131.720446 275.59105 
L 131.886466 275.481116 
L 132.006613 275.383627 
L 132.149739 275.273693 
L 132.269058 275.209392 
L 132.451556 275.099457 
L 132.566114 275.043453 
L 132.731224 274.933519 
L 132.846693 274.860921 
L 133.040411 274.750986 
L 133.163208 274.665943 
L 133.355311 274.556009 
L 133.470304 274.491707 
L 133.630943 274.381773 
L 133.754174 274.294655 
L 133.914564 274.184721 
L 134.046056 274.08101 
L 134.225697 273.971075 
L 134.342408 273.89018 
L 134.51232 273.780246 
L 134.639258 273.701425 
L 134.774102 273.591491 
L 134.891228 273.489854 
L 135.044496 273.379919 
L 135.159551 273.303173 
L 135.316132 273.193238 
L 135.433257 273.118566 
L 135.601803 273.008632 
L 135.736772 272.921514 
L 135.921837 272.81158 
L 136.047118 272.730685 
L 136.220508 272.620751 
L 136.338503 272.508742 
L 136.541039 272.398808 
L 136.664954 272.313764 
L 136.864883 272.20383 
L 136.981552 272.11049 
L 137.121138 272.000555 
L 137.240022 271.917586 
L 137.398135 271.807652 
L 137.515219 271.735054 
L 137.677513 271.625119 
L 137.799234 271.54215 
L 137.950598 271.432216 
L 138.076127 271.361692 
L 138.210848 271.251758 
L 138.325572 271.181234 
L 138.504717 271.073374 
L 138.619854 271.006998 
L 138.769169 270.897064 
L 138.889814 270.816169 
L 139.068979 270.706235 
L 139.187346 270.619117 
L 139.317885 270.509183 
L 139.443042 270.440733 
L 139.58062 270.330799 
L 139.709172 270.254052 
L 139.905498 270.144118 
L 140.027405 270.059074 
L 140.200401 269.94914 
L 140.328208 269.857874 
L 140.485907 269.74794 
L 140.612885 269.638005 
L 140.784474 269.528071 
L 140.906878 269.447176 
L 141.051432 269.337242 
L 141.192922 269.216936 
L 141.41146 269.107002 
L 141.52459 269.040627 
L 141.709427 268.930692 
L 141.830423 268.845649 
L 142.017641 268.735715 
L 142.133731 268.654819 
L 142.320949 268.544885 
L 142.439979 268.482658 
L 142.602936 268.372724 
L 142.728693 268.275235 
L 142.895065 268.167375 
L 143.014716 268.074035 
L 143.163058 267.9641 
L 143.286993 267.891502 
L 143.453904 267.781568 
L 143.57165 267.702747 
L 143.790706 267.592813 
L 143.922901 267.484953 
L 144.058615 267.375019 
L 144.177852 267.298272 
L 144.359812 267.188338 
L 144.472693 267.14063 
L 144.65484 267.030696 
L 144.776229 266.949801 
L 144.958396 266.839867 
L 145.073492 266.773491 
L 145.240175 266.663557 
L 145.35639 266.580588 
L 145.52183 266.470654 
L 145.648105 266.404278 
L 145.812904 266.294344 
L 145.950709 266.163667 
L 146.084892 266.053733 
L 146.20446 265.950021 
L 146.353961 265.840087 
L 146.471458 265.763341 
L 146.632511 265.653406 
L 146.761477 265.549695 
L 146.940166 265.43976 
L 147.053399 265.38583 
L 147.209545 265.275896 
L 147.336979 265.188778 
L 147.49946 265.078844 
L 147.615881 264.989652 
L 147.843259 264.879718 
L 147.937778 264.790526 
L 147.953884 264.790526 
L 148.114605 264.680592 
L 148.241997 264.568583 
L 148.376345 264.458649 
L 148.499598 264.363234 
L 148.676817 264.2533 
L 148.799263 264.153737 
L 148.972735 264.043802 
L 149.090647 263.962907 
L 149.26855 263.852973 
L 149.391512 263.749262 
L 149.596699 263.639327 
L 149.717467 263.548061 
L 149.868127 263.438127 
L 149.982768 263.340638 
L 150.140053 263.230704 
L 150.259745 263.126992 
L 150.401794 263.017058 
L 150.511757 262.940311 
L 150.512792 262.940311 
L 150.627267 262.830377 
L 150.757144 262.720443 
L 150.932811 262.610508 
L 151.051261 262.539984 
L 151.229287 262.43005 
L 151.350842 262.340858 
L 151.500054 262.230924 
L 151.614032 262.1604 
L 151.778459 262.050466 
L 151.894735 261.977868 
L 152.032478 261.867933 
L 152.160492 261.770444 
L 152.320012 261.66051 
L 152.438876 261.587912 
L 152.564737 261.502869 
L 152.703722 261.392934 
L 152.827927 261.324485 
L 152.990552 261.21455 
L 153.106974 261.148175 
L 153.273781 261.038241 
L 153.38925 260.951123 
L 153.574149 260.840152 
L 153.691564 260.760294 
L 153.833571 260.650359 
L 153.961834 260.563242 
L 154.121934 260.453307 
L 154.245766 260.386932 
L 154.383302 260.276998 
L 154.502663 260.177435 
L 154.672243 260.0675 
L 154.794709 259.978308 
L 154.957749 259.868374 
L 155.076985 259.791627 
L 155.27298 259.681693 
L 155.389857 259.613244 
L 155.557823 259.503309 
L 155.682401 259.414117 
L 155.856598 259.304183 
L 155.970018 259.225362 
L 156.120098 259.115428 
L 156.265376 259.007568 
L 156.458846 258.897634 
L 156.573218 258.81259 
L 156.724272 258.702656 
L 156.843177 258.617612 
L 157.022322 258.507678 
L 157.144539 258.42056 
L 157.302279 258.310626 
L 157.420357 258.25877 
L 157.54808 258.148836 
L 157.677419 258.055496 
L 157.840086 257.945561 
L 157.966112 257.82733 
L 158.104435 257.717396 
L 158.218455 257.642723 
L 158.35597 257.532789 
L 158.473447 257.441523 
L 158.643442 257.331589 
L 158.756841 257.271436 
L 158.882536 257.182244 
L 159.027815 257.07231 
L 159.148335 256.983118 
L 159.306199 256.873183 
L 159.425912 256.806808 
L 159.599363 256.696874 
L 159.721001 256.613904 
L 159.888471 256.50397 
L 160.025055 256.41063 
L 160.170126 256.300696 
L 160.28456 256.217726 
L 160.449835 256.107792 
L 160.570479 256.03312 
L 160.74155 255.923185 
L 160.859835 255.854736 
L 161.001242 255.746876 
L 161.16571 255.636941 
L 161.288714 255.543601 
L 161.445419 255.433667 
L 161.570162 255.35692 
L 161.72252 255.246986 
L 161.839024 255.157794 
L 162.00935 255.04786 
L 162.126061 254.952445 
L 162.289142 254.842511 
L 162.401651 254.769913 
L 162.545252 254.659978 
L 162.680138 254.556267 
L 162.835974 254.446332 
L 162.948503 254.375808 
L 163.15932 254.265874 
L 163.29313 254.147643 
L 163.488297 254.037709 
L 163.607493 253.94022 
L 163.749459 253.830286 
L 163.872152 253.739019 
L 164.048337 253.629085 
L 164.186659 253.517077 
L 164.346718 253.409217 
L 164.476098 253.303431 
L 164.607258 253.193496 
L 164.74024 253.079414 
L 164.894005 252.969479 
L 165.0185 252.892733 
L 165.14937 252.782799 
L 165.261941 252.699829 
L 165.429908 252.589895 
L 165.559826 252.504851 
L 165.664841 252.394917 
L 165.77677 252.297428 
L 165.915051 252.187494 
L 166.032197 252.090005 
L 166.201405 251.980071 
L 166.331634 251.888805 
L 166.4996 251.77887 
L 166.620597 251.702124 
L 166.781752 251.59219 
L 166.900989 251.492626 
L 167.06614 251.382692 
L 167.196016 251.281055 
L 167.318317 251.171121 
L 167.449063 251.071557 
L 167.61322 250.961623 
L 167.729186 250.882802 
L 167.8838 250.772868 
L 168.02587 250.650488 
L 168.136764 250.540554 
L 168.257263 250.459659 
L 168.435456 250.349725 
L 168.548275 250.258459 
L 168.737191 250.148524 
L 168.866281 250.057258 
L 169.00804 249.947324 
L 169.140463 249.83739 
L 169.310975 249.727455 
L 169.423877 249.627892 
L 169.57489 249.517958 
L 169.686653 249.443286 
L 169.853998 249.333351 
L 169.980108 249.231714 
L 170.142195 249.12178 
L 170.254849 249.03881 
L 170.389818 248.93095 
L 170.503548 248.839684 
L 170.682113 248.72975 
L 170.804889 248.638484 
L 170.968363 248.527512 
L 171.143389 248.412392 
L 171.302309 248.302458 
L 171.430902 248.207043 
L 171.639483 248.097109 
L 171.754373 248.018288 
L 171.886568 247.908354 
L 172.009199 247.825385 
L 172.182589 247.714413 
L 172.306504 247.613813 
L 172.453149 247.503879 
L 172.565761 247.422984 
L 172.725488 247.31305 
L 172.842158 247.221783 
L 173.032729 247.111849 
L 173.152918 247.033028 
L 173.325232 246.923094 
L 173.440038 246.829754 
L 173.573703 246.719819 
L 173.695155 246.647221 
L 173.841509 246.537287 
L 173.968778 246.443946 
L 174.110082 246.334012 
L 174.227538 246.273859 
L 174.433179 246.163925 
L 174.553989 246.089253 
L 174.691898 245.979319 
L 174.813805 245.894275 
L 174.974215 245.786415 
L 175.090016 245.707594 
L 175.235915 245.59766 
L 175.358815 245.496023 
L 175.524111 245.386088 
L 175.660385 245.255412 
L 175.766186 245.145477 
L 175.87913 245.047989 
L 176.040182 244.938054 
L 176.16981 244.855085 
L 176.324073 244.745151 
L 176.439749 244.668404 
L 176.613842 244.55847 
L 176.738296 244.452684 
L 176.882042 244.34275 
L 177.014196 244.247335 
L 177.208576 244.137401 
L 177.327937 244.037838 
L 177.473857 243.927903 
L 177.589968 243.859454 
L 177.747087 243.749519 
L 177.874624 243.639585 
L 178.018764 243.529651 
L 178.155927 243.392752 
L 178.297811 243.28178 
L 178.412245 243.1957 
L 178.578368 243.085765 
L 178.693568 243.00487 
L 178.830401 242.894936 
L 178.94293 242.824412 
L 179.115782 242.716552 
L 179.228932 242.600395 
L 179.401411 242.490461 
L 179.520731 242.388824 
L 179.719169 242.278889 
L 179.839813 242.187623 
L 179.979667 242.077689 
L 180.10971 241.967754 
L 180.281195 241.85782 
L 180.404365 241.741663 
L 180.520289 241.631729 
L 180.64054 241.542537 
L 180.791263 241.432603 
L 180.913542 241.345485 
L 181.038761 241.235551 
L 181.170211 241.144284 
L 181.361901 241.03435 
L 181.478964 240.936861 
L 181.597766 240.826927 
L 181.720604 240.733587 
L 181.836777 240.623652 
L 181.953985 240.524089 
L 182.104645 240.414155 
L 182.235557 240.297998 
L 182.370443 240.188064 
L 182.49589 240.090575 
L 182.636035 239.980641 
L 182.753449 239.891449 
L 182.893801 239.781514 
L 183.019496 239.698545 
L 183.160179 239.588611 
L 183.294196 239.453786 
L 183.475824 239.343851 
L 183.625367 239.209026 
L 183.780664 239.099092 
L 183.910665 239.001603 
L 184.066377 238.891669 
L 184.179983 238.798328 
L 184.329939 238.688394 
L 184.4505 238.599202 
L 184.586546 238.489268 
L 184.709633 238.410447 
L 184.836053 238.300513 
L 184.947816 238.227915 
L 185.094626 238.120055 
L 185.094626 238.11798 
L 185.21763 238.003898 
L 185.36146 237.896038 
L 185.481566 237.810994 
L 185.64593 237.70106 
L 185.774026 237.601497 
L 185.929862 237.491562 
L 186.054315 237.402371 
L 186.203609 237.292436 
L 186.323798 237.205318 
L 186.519089 237.095384 
L 186.644371 237.014489 
L 186.811281 236.904555 
L 186.939191 236.819511 
L 187.078094 236.709577 
L 187.19083 236.628682 
L 187.302407 236.517711 
L 187.49153 236.36318 
L 187.58518 236.253246 
L 187.706611 236.143312 
L 187.859921 236.033378 
L 187.974645 235.935889 
L 188.143501 235.824917 
L 188.314179 235.666239 
L 188.483201 235.556304 
L 188.617032 235.469187 
L 188.746433 235.358215 
L 188.914771 235.263838 
L 189.04943 235.153903 
L 189.170074 235.060563 
L 189.348639 234.950629 
L 189.465972 234.848991 
L 189.586057 234.778467 
L 189.755037 234.668533 
L 189.883424 234.56897 
L 190.042468 234.459036 
L 190.164727 234.361547 
L 190.307169 234.251613 
L 190.428931 234.147901 
L 190.581082 234.037967 
L 190.700774 233.957072 
L 190.812724 233.847137 
L 190.928752 233.768317 
L 191.085602 233.658382 
L 191.232494 233.521483 
L 191.373964 233.411549 
L 191.495767 233.307837 
L 191.635477 233.197903 
L 191.775683 233.075523 
L 191.926716 232.965589 
L 192.046781 232.897139 
L 192.2299 232.787205 
L 192.356341 232.683493 
L 192.500832 232.573559 
L 192.629094 232.457402 
L 192.756735 232.347468 
L 192.891042 232.227162 
L 193.028205 232.117228 
L 193.142743 232.029073 
L 193.289532 231.905657 
L 193.472445 231.795722 
L 193.605737 231.681639 
L 193.777905 231.571705 
L 193.890725 231.486662 
L 194.024079 231.376727 
L 194.151265 231.295832 
L 194.274186 231.185898 
L 194.399674 231.090483 
L 194.527605 230.992995 
L 194.66982 230.874763 
L 194.832569 230.764829 
L 194.958285 230.68186 
L 195.124285 230.570888 
L 195.256439 230.495179 
L 195.387019 230.385245 
L 195.512632 230.302275 
L 195.6387 230.192341 
L 195.757688 230.094852 
L 195.921348 229.984918 
L 196.046795 229.889503 
L 196.181309 229.779569 
L 196.299179 229.669635 
L 196.445492 229.5597 
L 196.558353 229.472583 
L 196.675333 229.362648 
L 196.792458 229.279679 
L 196.913993 229.198784 
L 197.043145 229.107518 
L 197.241397 228.996547 
L 197.358128 228.902169 
L 197.511708 228.792235 
L 197.61753 228.69682 
L 197.622747 228.69682 
L 197.743929 228.599331 
L 197.902932 228.489397 
L 198.036845 228.402279 
L 198.161588 228.292345 
L 198.296143 228.207301 
L 198.422025 228.097367 
L 198.54447 228.016472 
L 198.711194 227.906538 
L 198.842396 227.802826 
L 199.006263 227.692892 
L 199.14558 227.562215 
L 199.294149 227.452281 
L 199.443754 227.323679 
L 199.56535 227.213744 
L 199.701851 227.10381 
L 199.811773 226.993876 
L 199.93871 226.896387 
L 200.07608 226.788527 
L 200.224257 226.678593 
L 200.340802 226.60392 
L 200.503262 226.493986 
L 200.628916 226.377829 
L 200.757468 226.267895 
L 200.894755 226.147589 
L 201.038502 226.037655 
L 201.178522 225.940166 
L 201.334357 225.830232 
L 201.451793 225.74104 
L 201.590716 225.631106 
L 201.713927 225.514949 
L 201.84103 225.405014 
L 201.955423 225.317897 
L 202.108526 225.207962 
L 202.221386 225.11877 
L 202.341679 225.008836 
L 202.472901 224.898902 
L 202.627743 224.788968 
L 202.7535 224.683182 
L 202.919252 224.57221 
L 203.033023 224.496501 
L 203.145221 224.386567 
L 203.260359 224.305672 
L 203.409115 224.195737 
L 203.540627 224.104471 
L 203.687292 223.994537 
L 203.8163 223.890825 
L 203.956858 223.780891 
L 204.089612 223.693773 
L 204.29395 223.582802 
L 204.408881 223.488424 
L 204.546251 223.380564 
L 204.546251 223.37849 
L 204.674638 223.278927 
L 204.805591 223.168993 
L 204.917893 223.102617 
L 205.040131 222.992683 
L 205.161893 222.901417 
L 205.311187 222.791482 
L 205.449882 222.698142 
L 205.56974 222.588208 
L 205.684174 222.492793 
L 205.816845 222.382859 
L 205.961482 222.260479 
L 206.116075 222.150545 
L 206.256882 222.067576 
L 206.421722 221.957641 
L 206.547604 221.889192 
L 206.681455 221.779257 
L 206.808103 221.673472 
L 206.912021 221.563537 
L 207.036971 221.470197 
L 207.180758 221.360263 
L 207.317425 221.242031 
L 207.48005 221.132097 
L 207.612453 221.005569 
L 207.736243 220.895635 
L 207.854611 220.773255 
L 207.974427 220.663321 
L 208.101323 220.56998 
L 208.242792 220.460046 
L 208.361345 220.356334 
L 208.477622 220.2464 
L 208.605428 220.134392 
L 208.755737 220.024457 
L 208.895095 219.918672 
L 208.998329 219.808737 
L 209.1286 219.711248 
L 209.244069 219.601314 
L 209.378148 219.456118 
L 209.535184 219.346184 
L 209.654545 219.242472 
L 209.765604 219.132538 
L 209.88362 219.0309 
L 210.012917 218.920966 
L 210.153558 218.804809 
L 210.294323 218.694875 
L 210.426643 218.593237 
L 210.572832 218.483303 
L 210.707242 218.377517 
L 210.850802 218.267583 
L 210.964284 218.186688 
L 211.12397 218.076754 
L 211.272891 217.93778 
L 211.429886 217.827846 
L 211.562971 217.728283 
L 211.707442 217.618349 
L 211.82436 217.514637 
L 211.996053 217.404703 
L 212.112702 217.313437 
L 212.239784 217.213873 
L 212.357571 217.103939 
L 212.474572 217.033415 
L 212.623846 216.923481 
L 212.754219 216.817695 
L 212.884862 216.709835 
L 213.00265 216.599901 
L 213.140268 216.489967 
L 213.256483 216.357216 
L 213.451774 216.247281 
L 213.5713 216.172609 
L 213.684948 216.062675 
L 213.812051 215.969334 
L 213.965961 215.8594 
L 214.090124 215.745317 
L 214.223003 215.635383 
L 214.34079 215.525449 
L 214.474331 215.415515 
L 214.601579 215.315951 
L 214.723548 215.206017 
L 214.851727 215.106454 
L 215.004747 214.99652 
L 215.14071 214.894882 
L 215.277667 214.784948 
L 215.399967 214.69783 
L 215.554561 214.587896 
L 215.682222 214.453071 
L 215.821725 214.343137 
L 215.939575 214.262242 
L 216.061937 214.152307 
L 216.19467 214.040299 
L 216.326617 213.930365 
L 216.467921 213.826653 
L 216.61115 213.716719 
L 216.725646 213.600562 
L 216.866121 213.490627 
L 216.994094 213.399361 
L 217.144878 213.289427 
L 217.269787 213.198161 
L 217.390597 213.088227 
L 217.503416 212.984515 
L 217.667242 212.874581 
L 217.783912 212.78124 
L 217.918094 212.671306 
L 218.034723 212.577966 
L 218.165427 212.468031 
L 218.302798 212.339429 
L 218.442487 212.229495 
L 218.574806 212.127857 
L 218.732132 212.017923 
L 218.855965 211.907989 
L 219.012421 211.798054 
L 219.145776 211.696417 
L 219.275694 211.586483 
L 219.388886 211.518033 
L 219.548282 211.408099 
L 219.675385 211.300239 
L 219.834967 211.190305 
L 219.951016 211.090741 
L 220.075697 210.980807 
L 220.229835 210.852205 
L 220.368944 210.744345 
L 220.48551 210.667598 
L 220.601207 210.557664 
L 220.713654 210.47262 
L 220.85237 210.362686 
L 220.971793 210.244455 
L 221.128498 210.134521 
L 221.245913 210.028735 
L 221.385187 209.918801 
L 221.520736 209.829609 
L 221.667733 209.719674 
L 221.794525 209.605592 
L 221.944357 209.495657 
L 222.077339 209.396094 
L 222.208541 209.28616 
L 222.336948 209.196968 
L 222.502803 209.087034 
L 222.623054 208.995767 
L 222.75351 208.885833 
L 222.877052 208.788344 
L 223.047523 208.677373 
L 223.201806 208.568476 
L 223.347705 208.458541 
L 223.475098 208.365201 
L 223.607128 208.255267 
L 223.735514 208.13911 
L 223.877232 208.029175 
L 224.049711 207.871534 
L 224.194202 207.7616 
L 224.327557 207.659962 
L 224.518522 207.550028 
L 224.632376 207.454613 
L 224.780407 207.305269 
L 224.904943 207.195334 
L 225.04308 207.07088 
L 225.172522 206.998282 
L 225.311466 206.888348 
L 225.443412 206.765968 
L 225.573372 206.656034 
L 225.703166 206.573065 
L 225.844842 206.46313 
L 225.974781 206.334528 
L 226.128319 206.224594 
L 226.237598 206.166515 
L 226.23911 206.166515 
L 226.406641 206.056581 
L 226.557985 205.932127 
L 226.695107 205.822193 
L 226.818939 205.720556 
L 226.938755 205.610621 
L 227.071199 205.500687 
L 227.224219 205.390753 
L 227.347699 205.280818 
L 227.55096 205.170884 
L 227.686012 205.073395 
L 227.812742 204.963461 
L 227.933635 204.855601 
L 228.091127 204.745667 
L 228.209411 204.646104 
L 228.363011 204.536169 
L 228.505122 204.417938 
L 228.651042 204.308004 
L 228.787833 204.189773 
L 228.919241 204.079838 
L 229.07309 203.922197 
L 229.206382 203.812262 
L 229.323755 203.731367 
L 229.452576 203.621433 
L 229.575456 203.528093 
L 229.72061 203.418158 
L 229.837632 203.337263 
L 229.949975 203.227329 
L 230.070537 203.117395 
L 230.219499 203.00746 
L 230.350825 202.895452 
L 230.500575 202.785518 
L 230.614264 202.71292 
L 230.760411 202.602985 
L 230.886769 202.480606 
L 231.041569 202.370671 
L 231.188793 202.244143 
L 231.337011 202.134209 
L 231.457241 202.020126 
L 231.628023 201.910192 
L 231.78183 201.783664 
L 231.933939 201.67373 
L 232.048104 201.594909 
L 232.171522 201.484974 
L 232.297921 201.404079 
L 232.461644 201.294145 
L 232.585642 201.182137 
L 232.749923 201.072202 
L 232.864026 200.966416 
L 232.978211 200.856482 
L 233.093391 200.752771 
L 233.290918 200.642836 
L 233.44164 200.510086 
L 233.589464 200.402225 
L 233.709156 200.298514 
L 233.852033 200.171986 
L 234.0147 200.062051 
L 234.145157 199.929301 
L 234.294326 199.819366 
L 234.427578 199.705284 
L 234.59217 199.595349 
L 234.72097 199.499935 
L 234.834659 199.39 
L 234.958367 199.290437 
L 235.091555 199.180503 
L 235.235074 199.058123 
L 235.350647 198.948189 
L 235.463218 198.875591 
L 235.637849 198.765657 
L 235.768016 198.668168 
L 235.905345 198.558233 
L 236.037954 198.448299 
L 236.182073 198.338365 
L 236.328055 198.205614 
L 236.4883 198.09568 
L 236.610124 198.002339 
L 236.7323 197.892405 
L 236.849839 197.809436 
L 237.006834 197.699502 
L 237.125408 197.608235 
L 237.247419 197.498301 
L 237.368063 197.436074 
L 237.474548 197.32614 
L 237.598794 197.230725 
L 237.705072 197.120791 
L 237.83793 197.008782 
L 237.99745 196.898848 
L 238.11826 196.803433 
L 238.277325 196.693499 
L 238.408816 196.552451 
L 238.555088 196.442517 
L 238.685793 196.32636 
L 238.813268 196.216426 
L 238.926295 196.114789 
L 239.074678 196.004854 
L 239.195529 195.884549 
L 239.336688 195.780837 
L 239.504592 195.670903 
L 239.637843 195.55682 
L 239.771632 195.446886 
L 239.88412 195.365991 
L 240.03979 195.25502 
L 240.154431 195.160642 
L 240.305547 195.050708 
L 240.428675 194.955293 
L 240.559877 194.845359 
L 240.682095 194.739573 
L 240.829174 194.629639 
L 240.945988 194.513482 
L 241.06686 194.403547 
L 241.193239 194.322652 
L 241.315001 194.212718 
L 241.432333 194.111081 
L 241.563534 194.000109 
L 241.713242 193.895361 
L 241.846845 193.785426 
L 241.978378 193.692086 
L 242.115417 193.582152 
L 242.250304 193.490885 
L 242.420961 193.380951 
L 242.535726 193.31665 
L 242.669909 193.206716 
L 242.794279 193.14034 
L 242.91186 193.030406 
L 243.037182 192.943288 
L 243.227009 192.835428 
L 243.346846 192.729642 
L 243.451654 192.619708 
L 243.602314 192.486957 
L 243.73068 192.377023 
L 243.869354 192.256718 
L 244.005441 192.146783 
L 244.13271 192.059666 
L 244.312931 191.949731 
L 244.436846 191.848094 
L 244.578005 191.73816 
L 244.720405 191.636522 
L 244.847053 191.527625 
L 244.969146 191.429099 
L 245.107676 191.319165 
L 245.226374 191.23827 
L 245.363517 191.128336 
L 245.493083 191.020476 
L 245.644075 190.910541 
L 245.785047 190.786087 
L 245.930657 190.676153 
L 246.056393 190.578664 
L 246.215913 190.46873 
L 246.350924 190.371241 
L 246.466869 190.261307 
L 246.597926 190.176263 
L 246.73126 190.066329 
L 246.862503 189.948098 
L 246.983188 189.838163 
L 247.104267 189.730303 
L 247.267058 189.620369 
L 247.385322 189.543623 
L 247.499652 189.432651 
L 247.677555 189.286418 
L 247.822668 189.176484 
L 247.940704 189.093514 
L 248.095628 188.98358 
L 248.222566 188.867423 
L 248.375068 188.757489 
L 248.499211 188.664148 
L 248.645089 188.554214 
L 248.775422 188.433909 
L 248.921176 188.323974 
L 249.057677 188.21404 
L 249.171076 188.10618 
L 249.287994 187.987949 
L 249.431244 187.878014 
L 249.556649 187.797119 
L 249.675223 187.687185 
L 249.811641 187.602142 
L 249.969837 187.492207 
L 250.101494 187.409238 
L 250.24582 187.299304 
L 250.372736 187.193518 
L 250.547886 187.083584 
L 250.660539 186.99854 
L 250.795467 186.888606 
L 250.912592 186.789043 
L 251.037004 186.679109 
L 251.171269 186.558803 
L 251.349358 186.448869 
L 251.492753 186.320266 
L 251.644117 186.202035 
L 251.769481 186.092101 
L 251.89973 186.000835 
L 252.067531 185.890901 
L 252.183662 185.810005 
L 252.293998 185.700071 
L 252.412199 185.615028 
L 252.544477 185.505093 
L 252.660526 185.382714 
L 252.798538 185.272779 
L 252.91262 185.198107 
L 253.086134 185.088173 
L 253.215928 185.005204 
L 253.373875 184.895269 
L 253.497666 184.77289 
L 253.653502 184.662955 
L 253.7852 184.521908 
L 253.973764 184.411973 
L 254.095753 184.302039 
L 254.239168 184.192105 
L 254.369583 184.115358 
L 254.512833 184.004387 
L 254.628882 183.922455 
L 254.781653 183.81252 
L 254.932024 183.715031 
L 255.07813 183.605097 
L 255.217736 183.486866 
L 255.356763 183.376932 
L 255.473888 183.275294 
L 255.606125 183.16536 
L 255.725216 183.061648 
L 255.86474 182.951714 
L 256.00064 182.814815 
L 256.14389 182.704881 
L 256.278093 182.61154 
L 256.407577 182.501606 
L 256.532775 182.389597 
L 256.635492 182.279663 
L 256.756385 182.161432 
L 256.888829 182.051498 
L 257.035742 181.933266 
L 257.192054 181.823332 
L 257.317004 181.713398 
L 257.464518 181.603464 
L 257.58628 181.501826 
L 257.696863 181.391892 
L 257.818294 181.319294 
L 257.963572 181.20936 
L 258.090448 181.082831 
L 258.236078 180.972897 
L 258.35519 180.887854 
L 258.490097 180.777919 
L 258.613246 180.672134 
L 258.722339 180.562199 
L 258.835324 180.466785 
L 259.004657 180.35685 
L 259.135983 180.238619 
L 259.274471 180.132833 
L 259.3929 180.031196 
L 259.513524 179.921262 
L 259.630069 179.829995 
L 259.788182 179.720061 
L 259.912097 179.635018 
L 260.056216 179.525083 
L 260.18719 179.435891 
L 260.329797 179.325957 
L 260.449489 179.242988 
L 260.57771 179.133054 
L 260.703695 179.033491 
L 260.820447 178.923556 
L 260.960592 178.803251 
L 261.118291 178.674648 
L 261.240508 178.563677 
L 261.394895 178.444409 
L 261.532265 178.334474 
L 261.659844 178.201724 
L 261.775624 178.091789 
L 261.910655 177.9943 
L 262.040097 177.884366 
L 262.170429 177.772358 
L 262.290245 177.662423 
L 262.410351 177.57738 
L 262.545734 177.467446 
L 262.666586 177.349214 
L 262.805509 177.23928 
L 262.927975 177.154237 
L 263.058845 177.044302 
L 263.177523 176.938517 
L 263.31775 176.828582 
L 263.44626 176.689609 
L 263.586488 176.579674 
L 263.714584 176.463517 
L 263.883917 176.352546 
L 264.030147 176.241575 
L 264.186272 176.130603 
L 264.302217 176.048671 
L 264.408495 175.938737 
L 264.553008 175.803912 
L 264.74923 175.693977 
L 264.871593 175.596489 
L 264.995963 175.486554 
L 265.115779 175.380769 
L 265.252156 175.270834 
L 265.383979 175.177494 
L 265.51783 175.06756 
L 265.642366 174.943106 
L 265.787106 174.833171 
L 265.917583 174.719089 
L 266.026159 174.609154 
L 266.149701 174.511665 
L 266.25571 174.401731 
L 266.369709 174.327059 
L 266.522688 174.217125 
L 266.651758 174.105116 
L 266.783601 173.995182 
L 266.921903 173.833392 
L 267.087489 173.723457 
L 267.219477 173.601078 
L 267.34749 173.491143 
L 267.495625 173.362541 
L 267.633327 173.252607 
L 267.758277 173.153044 
L 267.914402 173.043109 
L 268.046701 172.926952 
L 268.183803 172.817018 
L 268.291943 172.713307 
L 268.294842 172.713307 
L 268.387705 172.604409 
L 268.387705 172.603372 
L 268.529216 172.48929 
L 268.668408 172.381429 
L 268.782511 172.304683 
L 268.932385 172.194749 
L 269.057003 172.064072 
L 269.21847 171.954138 
L 269.337313 171.823461 
L 269.49259 171.713527 
L 269.610108 171.632632 
L 269.739488 171.522698 
L 269.875658 171.400318 
L 270.037269 171.290384 
L 270.168843 171.184598 
L 270.293503 171.074664 
L 270.409842 170.970952 
L 270.530403 170.861018 
L 270.648046 170.753158 
L 270.77459 170.643223 
L 270.907323 170.545734 
L 271.058439 170.4358 
L 271.176433 170.346608 
L 271.321836 170.235637 
L 271.455977 170.130888 
L 271.590491 170.020954 
L 271.718815 169.904797 
L 271.843268 169.794863 
L 271.970392 169.709819 
L 272.099834 169.599885 
L 272.214951 169.494099 
L 272.331703 169.384165 
L 272.449884 169.297047 
L 272.618368 169.187113 
L 272.731104 169.106218 
L 272.85858 168.996283 
L 272.984275 168.880126 
L 273.092458 168.770192 
L 273.210411 168.656109 
L 273.330806 168.546175 
L 273.459565 168.456983 
L 273.586751 168.347049 
L 273.70518 168.245411 
L 273.848906 168.136514 
L 273.980501 168.027617 
L 274.143437 167.917683 
L 274.269339 167.81812 
L 274.40642 167.708185 
L 274.536959 167.594103 
L 274.654043 167.484168 
L 274.766386 167.407422 
L 274.901665 167.297488 
L 275.052905 167.168885 
L 275.175371 167.058951 
L 275.290199 166.967685 
L 275.407055 166.874344 
L 275.579989 166.76441 
L 275.712516 166.61714 
L 275.836306 166.507205 
L 275.95045 166.428384 
L 276.104175 166.31845 
L 276.247714 166.196071 
L 276.381027 166.086136 
L 276.521544 165.949237 
L 276.681727 165.839303 
L 276.818518 165.733517 
L 276.919972 165.623583 
L 277.061752 165.507426 
L 277.1825 165.397491 
L 277.308423 165.287557 
L 277.482765 165.179697 
L 277.59546 165.098802 
L 277.739185 164.988868 
L 277.861217 164.870636 
L 278.006039 164.759665 
L 278.130368 164.654916 
L 278.287777 164.544982 
L 278.414611 164.430899 
L 278.548483 164.320965 
L 278.65741 164.24007 
L 278.659543 164.24007 
L 278.770996 164.130136 
L 278.916502 163.999459 
L 279.072089 163.888488 
L 279.196832 163.779591 
L 279.322072 163.669656 
L 279.4464 163.582539 
L 279.594204 163.472604 
L 279.717022 163.381338 
L 279.850811 163.271404 
L 279.99021 163.122059 
L 280.147164 163.011088 
L 280.273107 162.922933 
L 280.424968 162.812999 
L 280.560724 162.692693 
L 280.684846 162.582759 
L 280.800853 162.503938 
L 280.928826 162.394004 
L 281.066113 162.286144 
L 281.190153 162.17621 
L 281.322389 162.031013 
L 281.435809 161.921079 
L 281.586511 161.788328 
L 281.742864 161.678394 
L 281.850922 161.562237 
L 281.853965 161.562237 
L 281.999761 161.452303 
L 282.114029 161.373482 
L 282.258148 161.263548 
L 282.374114 161.166059 
L 282.51815 161.056124 
L 282.650738 160.94619 
L 282.74797 160.836256 
L 282.872009 160.749138 
L 282.985719 160.639204 
L 283.109261 160.541715 
L 283.225392 160.433855 
L 283.349411 160.336366 
L 283.485374 160.226432 
L 283.622247 160.108201 
L 283.77121 159.998266 
L 283.899431 159.882109 
L 284.022414 159.772175 
L 284.165933 159.643573 
L 284.304815 159.533638 
L 284.430696 159.425778 
L 284.58293 159.315844 
L 284.709722 159.189316 
L 284.857236 159.079382 
L 284.981379 158.963225 
L 285.093453 158.85329 
L 285.212896 158.788989 
L 285.391586 158.679055 
L 285.520179 158.560824 
L 285.640678 158.452964 
L 285.754677 158.369994 
L 285.849487 158.26006 
L 285.979364 158.131458 
L 286.122344 158.023598 
L 286.235184 157.901218 
L 286.377192 157.791284 
L 286.51301 157.689646 
L 286.669363 157.579712 
L 286.799654 157.467704 
L 286.944663 157.359844 
L 287.05978 157.26028 
L 287.192451 157.150346 
L 287.311998 157.061154 
L 287.471022 156.95122 
L 287.601892 156.816395 
L 287.745038 156.706461 
L 287.857071 156.61312 
L 288.00446 156.503186 
L 288.11875 156.393252 
L 288.266884 156.264649 
L 288.419863 156.154715 
L 288.53173 156.075894 
L 288.661131 155.96596 
L 288.793637 155.831135 
L 288.890434 155.7212 
L 289.006193 155.602969 
L 289.113381 155.493035 
L 289.217837 155.416288 
L 289.224068 155.416288 
L 289.356947 155.306354 
L 289.475272 155.188123 
L 289.602872 155.077152 
L 289.744611 154.949586 
L 289.898148 154.839652 
L 290.028501 154.727643 
L 290.179534 154.617709 
L 290.299992 154.507775 
L 290.426515 154.397841 
L 290.574816 154.246422 
L 290.699807 154.136487 
L 290.830926 154.03485 
L 290.947803 153.92699 
L 291.059815 153.83365 
L 291.176547 153.722678 
L 291.295328 153.609633 
L 291.40765 153.499698 
L 291.524548 153.406358 
L 291.689885 153.296424 
L 291.823736 153.192712 
L 291.943263 153.082778 
L 292.058359 153.014328 
L 292.167576 152.904394 
L 292.296459 152.815202 
L 292.420043 152.705268 
L 292.552984 152.576665 
L 292.682509 152.468805 
L 292.797833 152.385836 
L 292.913509 152.277976 
L 293.035892 152.161819 
L 293.158606 152.051885 
L 293.289435 151.935728 
L 293.440986 151.825793 
L 293.563327 151.728304 
L 293.700097 151.61837 
L 293.700097 151.617333 
L 293.842188 151.500139 
L 293.979144 151.390205 
L 294.10811 151.269899 
L 294.238525 151.159965 
L 294.346977 151.068699 
L 294.349606 151.068699 
L 294.489853 150.958764 
L 294.622483 150.840533 
L 294.764201 150.730599 
L 294.895403 150.612368 
L 295.018904 150.502434 
L 295.144143 150.407019 
L 295.260917 150.297085 
L 295.379304 150.195447 
L 295.509016 150.084476 
L 295.651147 149.967282 
L 295.798102 149.857347 
L 295.925267 149.757784 
L 296.050383 149.64785 
L 296.188374 149.548287 
L 296.324875 149.438353 
L 296.446513 149.307676 
L 296.612161 149.197742 
L 296.735331 149.091956 
L 296.85229 148.982022 
L 296.97459 148.901127 
L 297.102852 148.791192 
L 297.226809 148.724817 
L 297.340332 148.614883 
L 297.455532 148.507023 
L 297.573154 148.397088 
L 297.70744 148.297525 
L 297.842513 148.187591 
L 297.963571 148.071434 
L 298.117067 147.9615 
L 298.241479 147.872308 
L 298.356493 147.762373 
L 298.473763 147.675256 
L 298.612065 147.565321 
L 298.732833 147.471981 
L 298.859377 147.362047 
L 298.98855 147.262484 
L 299.097829 147.152549 
L 299.226257 147.050912 
L 299.339325 146.940978 
L 299.452641 146.828969 
L 299.598002 146.719035 
L 299.722248 146.592507 
L 299.873198 146.482572 
L 299.988626 146.393381 
L 300.09685 146.283446 
L 300.208593 146.200477 
L 300.348157 146.090543 
L 300.46491 145.997202 
L 300.585099 145.887268 
L 300.69945 145.804299 
L 300.847253 145.696439 
L 300.964896 145.58443 
L 301.082621 145.474496 
L 301.193184 145.374933 
L 301.19366 145.374933 
L 301.392015 145.264998 
L 301.529634 145.142619 
L 301.671062 145.032685 
L 301.795764 144.924824 
L 301.919762 144.81489 
L 302.036245 144.727772 
L 302.149209 144.617838 
L 302.271013 144.503755 
L 302.419603 144.393821 
L 302.533995 144.335743 
L 302.667391 144.225808 
L 302.790375 144.146988 
L 302.933624 144.037053 
L 303.052716 143.925045 
L 303.166591 143.815111 
L 303.279617 143.742512 
L 303.424626 143.632578 
L 303.556863 143.524718 
L 303.687816 143.414784 
L 303.80461 143.319369 
L 303.93488 143.209435 
L 304.048155 143.120243 
L 304.186312 143.009272 
L 304.320971 142.91282 
L 304.441905 142.802885 
L 304.563501 142.701248 
L 304.698429 142.61413 
L 304.831163 142.504196 
L 304.95487 142.394262 
L 305.078661 142.284328 
L 305.191708 142.178542 
L 305.329203 142.06757 
L 305.458355 141.944154 
L 305.567904 141.834219 
L 305.683808 141.732582 
L 305.799173 141.622648 
L 305.927808 141.502342 
L 306.062653 141.392408 
L 306.193565 141.313587 
L 306.328534 141.203653 
L 306.447108 141.110312 
L 306.550363 141.000378 
L 306.689431 140.884221 
L 306.846178 140.776361 
L 306.964918 140.670575 
L 307.141702 140.560641 
L 307.259014 140.459004 
L 307.414001 140.349069 
L 307.532782 140.276471 
L 307.68456 140.166537 
L 307.810959 140.071122 
L 307.954498 139.961188 
L 308.069222 139.869922 
L 308.23636 139.759988 
L 308.357418 139.664573 
L 308.505326 139.554639 
L 308.630628 139.450927 
L 308.757896 139.340993 
L 308.893486 139.195797 
L 309.032533 139.085862 
L 309.176466 138.955186 
L 309.326671 138.845251 
L 309.45129 138.737391 
L 309.555539 138.627457 
L 309.682104 138.515449 
L 309.831895 138.405514 
L 309.947074 138.303877 
L 310.096037 138.193943 
L 310.222746 138.067414 
L 310.342459 137.95748 
L 310.455485 137.862066 
L 310.549219 137.752131 
L 310.671933 137.638049 
L 310.833813 137.528114 
L 310.968368 137.405735 
L 311.117538 137.297875 
L 311.234829 137.194163 
L 311.37133 137.084229 
L 311.484563 136.978443 
L 311.637004 136.868509 
L 311.754874 136.773094 
L 311.887546 136.661085 
L 312.047024 136.551151 
L 312.174231 136.451588 
L 312.316652 136.341654 
L 312.440629 136.240016 
L 312.537861 136.130082 
L 312.663142 136.018074 
L 312.775961 135.908139 
L 312.896564 135.804428 
L 313.052524 135.694493 
L 313.171409 135.601153 
L 313.309338 135.491219 
L 313.437724 135.352245 
L 313.58412 135.242311 
L 313.703937 135.157267 
L 313.850415 135.047333 
L 313.962572 134.980958 
L 314.100274 134.871023 
L 314.258428 134.761089 
L 314.37398 134.651155 
L 314.506838 134.541221 
L 314.633319 134.418841 
L 314.787002 134.308907 
L 314.908516 134.209344 
L 315.044023 134.101483 
L 315.170029 133.970807 
L 315.290031 133.860873 
L 315.408978 133.763384 
L 315.555126 133.655524 
L 315.67784 133.564257 
L 315.810242 133.454323 
L 315.949145 133.360983 
L 316.091608 133.251048 
L 316.22194 133.15356 
L 316.351527 133.042588 
L 316.467451 132.915023 
L 316.610162 132.805089 
L 316.729026 132.709674 
L 316.868426 132.59974 
L 316.989815 132.500177 
L 317.121886 132.390242 
L 317.241826 132.294828 
L 317.351375 132.184893 
L 317.484978 132.068736 
L 317.6286 131.958802 
L 317.74527 131.867536 
L 317.886677 131.757602 
L 318.010613 131.645593 
L 318.1284 131.535659 
L 318.257946 131.442318 
L 318.394488 131.332384 
L 318.513186 131.239044 
L 318.644885 131.129109 
L 318.774803 131.015027 
L 318.932005 130.905092 
L 319.060184 130.805529 
L 319.19151 130.695595 
L 319.316998 130.598106 
L 319.44613 130.488172 
L 319.561682 130.415574 
L 319.679842 130.305639 
L 319.811085 130.201928 
L 319.951064 130.091994 
L 320.06349 130.017321 
L 320.176661 129.907387 
L 320.28592 129.818195 
L 320.287617 129.818195 
L 320.421282 129.710335 
L 320.548488 129.604549 
L 320.689502 129.494615 
L 320.804185 129.363938 
L 320.970764 129.254004 
L 321.091801 129.146144 
L 321.246561 129.03621 
L 321.380577 128.917978 
L 321.525524 128.808044 
L 321.633831 128.710555 
L 321.636522 128.710555 
L 321.826059 128.600621 
L 321.942066 128.519726 
L 322.084404 128.409792 
L 322.210679 128.289486 
L 322.352645 128.179552 
L 322.469977 128.07584 
L 322.610018 127.965906 
L 322.729379 127.878788 
L 322.852238 127.768854 
L 322.979465 127.650623 
L 323.101186 127.540689 
L 323.239053 127.455645 
L 323.36744 127.345711 
L 323.491479 127.244073 
L 323.649177 127.134139 
L 323.788059 127.030428 
L 323.902721 126.919456 
L 324.022206 126.818856 
L 324.196796 126.708922 
L 324.313921 126.607284 
L 324.466403 126.49735 
L 324.588828 126.397787 
L 324.706988 126.287853 
L 324.822229 126.182067 
L 324.965727 126.072133 
L 325.082252 125.966347 
L 325.195237 125.856412 
L 325.316295 125.758924 
L 325.471013 125.648989 
L 325.597826 125.534907 
L 325.719319 125.424972 
L 325.847188 125.327483 
L 325.965389 125.217549 
L 326.097212 125.076501 
L 326.227089 124.966567 
L 326.374644 124.833816 
L 326.531722 124.723882 
L 326.649964 124.638838 
L 326.799093 124.528904 
L 326.917998 124.435564 
L 327.032184 124.325629 
L 327.162392 124.213621 
L 327.279558 124.103687 
L 327.410677 123.999975 
L 327.536414 123.890041 
L 327.661322 123.75729 
L 327.75903 123.647356 
L 327.873195 123.568535 
L 328.005825 123.457564 
L 328.146797 123.332073 
L 328.302964 123.222138 
L 328.412803 123.157837 
L 328.413921 123.157837 
L 328.574 123.047903 
L 328.704332 122.950414 
L 328.821312 122.84048 
L 328.946055 122.749213 
L 329.129878 122.639279 
L 329.242904 122.543864 
L 329.367606 122.432893 
L 329.538926 122.284586 
L 329.655099 122.174651 
L 329.774087 122.064717 
L 329.908704 121.954783 
L 330.036117 121.853145 
L 330.185701 121.743211 
L 330.309285 121.643648 
L 330.464376 121.533714 
L 330.571502 121.44867 
L 330.575125 121.44867 
L 330.745658 121.338736 
L 330.86978 121.251618 
L 331.008579 121.141684 
L 331.130072 121.052492 
L 331.28156 120.942558 
L 331.394338 120.851291 
L 331.52645 120.741357 
L 331.644818 120.652165 
L 331.813446 120.542231 
L 331.928418 120.442668 
L 332.07142 120.332733 
L 332.19165 120.235245 
L 332.32931 120.12531 
L 332.44184 120.040267 
L 332.553044 119.932407 
L 332.66723 119.85566 
L 332.795637 119.745726 
L 332.91005 119.631643 
L 333.052016 119.515486 
L 333.204829 119.405552 
L 333.346071 119.264504 
L 333.460733 119.15457 
L 333.591851 119.036339 
L 333.717878 118.926404 
L 333.846864 118.806099 
L 333.99473 118.696165 
L 334.125 118.575859 
L 334.251731 118.465925 
L 334.382539 118.341471 
L 334.486271 118.231537 
L 334.610579 118.127825 
L 334.732755 118.019965 
L 334.849714 117.936996 
L 334.989072 117.827062 
L 335.114084 117.733721 
L 335.256112 117.623787 
L 335.383339 117.515927 
L 335.511332 117.404955 
L 335.629306 117.29191 
L 335.762826 117.181976 
L 335.897009 117.088635 
L 336.040134 116.978701 
L 336.154651 116.893657 
L 336.274778 116.783723 
L 336.400162 116.659269 
L 336.521904 116.549335 
L 336.63996 116.451846 
L 336.781885 116.323244 
L 336.92234 116.213309 
L 337.051782 116.088855 
L 337.183522 115.978921 
L 337.30104 115.902175 
L 337.448244 115.79224 
L 337.559283 115.692677 
L 337.676615 115.582743 
L 337.791007 115.495625 
L 337.914612 115.386728 
L 338.028756 115.271608 
L 338.141016 115.161674 
L 338.262468 115.072482 
L 338.384623 114.962548 
L 338.506634 114.869207 
L 338.630466 114.759273 
L 338.630466 114.758236 
L 338.784273 114.620299 
L 338.941723 114.510365 
L 339.054791 114.402505 
L 339.213607 114.292571 
L 339.213607 114.291534 
L 339.364661 114.17434 
L 339.510581 114.064405 
L 339.626195 113.952397 
L 339.739946 113.842462 
L 339.865475 113.72838 
L 340.016425 113.618445 
L 340.144067 113.523031 
L 340.287771 113.413097 
L 340.406097 113.33635 
L 340.537195 113.225379 
L 340.72402 113.0667 
L 340.844499 112.956766 
L 340.968082 112.867574 
L 341.107357 112.757639 
L 341.225683 112.639408 
L 341.352951 112.529474 
L 341.480179 112.421614 
L 341.592004 112.31168 
L 341.707804 112.191374 
L 341.852462 112.08144 
L 341.967744 111.971506 
L 342.135959 111.861571 
L 342.268113 111.759934 
L 342.390227 111.65 
L 342.521822 111.529694 
L 342.682108 111.41976 
L 342.797453 111.334716 
L 342.943828 111.223745 
L 343.142701 111.065066 
L 343.315635 110.955132 
L 343.445098 110.830678 
L 343.567605 110.720744 
L 343.689409 110.617032 
L 343.831851 110.507098 
L 343.957318 110.403386 
L 344.107358 110.293452 
L 344.218355 110.20426 
L 344.218397 110.20426 
L 344.348563 110.094326 
L 344.462666 110.013431 
L 344.588858 109.903497 
L 344.694888 109.818453 
L 344.699897 109.818453 
L 344.823688 109.708519 
L 344.950584 109.617253 
L 345.090604 109.507318 
L 345.220895 109.387013 
L 345.386708 109.277079 
L 345.506027 109.177515 
L 345.665175 109.067581 
L 345.773316 108.98876 
L 345.77609 108.98876 
L 345.917601 108.878826 
L 346.033732 108.754372 
L 346.156633 108.644438 
L 346.273654 108.561469 
L 346.366891 108.451534 
L 346.48031 108.333303 
L 346.610994 108.223369 
L 346.73404 108.130028 
L 346.877579 108.020094 
L 347.012259 107.912234 
L 347.147807 107.804374 
L 347.270522 107.692366 
L 347.397666 107.582431 
L 347.511065 107.466274 
L 347.637878 107.35634 
L 347.75815 107.244331 
L 347.907485 107.134397 
L 348.025749 107.014092 
L 348.163761 106.904157 
L 348.287365 106.821188 
L 348.410183 106.711254 
L 348.537452 106.590948 
L 348.7226 106.481014 
L 348.841712 106.404268 
L 348.996761 106.294333 
L 349.108669 106.205141 
L 349.229562 106.111801 
L 349.370203 106.001867 
L 349.484886 105.9106 
L 349.596132 105.800666 
L 349.722986 105.674138 
L 349.849882 105.564204 
L 349.963695 105.458418 
L 350.076514 105.348484 
L 350.189955 105.232327 
L 350.330637 105.122392 
L 350.445816 105.018681 
L 350.565591 104.908747 
L 350.696627 104.807109 
L 350.832921 104.697175 
L 350.950129 104.595538 
L 351.081662 104.487678 
L 351.202389 104.365298 
L 351.362696 104.255364 
L 351.495657 104.106019 
L 351.627832 103.996085 
L 351.740278 103.929709 
L 351.885909 103.819775 
L 352.011914 103.728509 
L 352.175906 103.618574 
L 352.292307 103.514863 
L 352.398895 103.404929 
L 352.512501 103.321959 
L 352.649706 103.212025 
L 352.756356 103.147724 
L 352.760703 103.147724 
L 352.914427 103.03779 
L 353.028903 102.923707 
L 353.171449 102.813773 
L 353.293997 102.703838 
L 353.461135 102.593904 
L 353.58592 102.486044 
L 353.716625 102.37611 
L 353.835157 102.286918 
L 353.978821 102.176983 
L 354.089011 102.096088 
L 354.08986 102.096088 
L 354.237995 101.986154 
L 354.362365 101.880368 
L 354.521471 101.770434 
L 354.636112 101.683316 
L 354.774228 101.575456 
L 354.774228 101.573382 
L 354.893423 101.473819 
L 355.025619 101.363885 
L 355.158186 101.260173 
L 355.287008 101.150239 
L 355.405478 101.048601 
L 355.564046 100.938667 
L 355.707627 100.801768 
L 355.840692 100.691834 
L 355.963323 100.56738 
L 356.086451 100.457445 
L 356.208172 100.326769 
L 356.347675 100.216834 
L 356.46627 100.113123 
L 356.591758 100.003189 
L 356.707682 99.925405 
L 356.831225 99.855918 
L 356.965283 99.745984 
L 357.086424 99.63605 
L 357.215349 99.526115 
L 357.335123 99.42033 
L 357.476427 99.310395 
L 357.590985 99.223277 
L 357.727238 99.113343 
L 357.845543 99.01378 
L 357.998832 98.903846 
L 358.120594 98.771095 
L 358.271151 98.661161 
L 358.390077 98.549152 
L 358.517594 98.438181 
L 358.631987 98.356249 
L 358.753624 98.227646 
L 358.894514 98.116675 
L 359.021617 97.98911 
L 359.151328 97.879175 
L 359.270233 97.750573 
L 359.415719 97.640639 
L 359.530898 97.539001 
L 359.645787 97.429067 
L 359.763823 97.314984 
L 359.893058 97.20505 
L 360.009666 97.095116 
L 360.148527 96.985181 
L 360.273146 96.877321 
L 360.411261 96.767387 
L 360.528345 96.669898 
L 360.657083 96.559964 
L 360.770586 96.479069 
L 360.909136 96.369135 
L 361.023218 96.269572 
L 361.202653 96.159637 
L 361.318142 96.051777 
L 361.494244 95.941843 
L 361.612528 95.854725 
L 361.74845 95.744791 
L 361.869632 95.649376 
L 361.988455 95.539442 
L 362.112659 95.43573 
L 362.238189 95.325796 
L 362.356515 95.24905 
L 362.501959 95.139115 
L 362.615026 95.035404 
L 362.736871 94.925469 
L 362.85114 94.844574 
L 362.994555 94.73464 
L 363.100915 94.630929 
L 363.105594 94.630929 
L 363.246318 94.520994 
L 363.360545 94.444248 
L 363.456451 94.334313 
L 363.568463 94.23475 
L 363.706455 94.124816 
L 363.834241 94.002436 
L 363.975234 93.892502 
L 364.088053 93.805384 
L 364.188576 93.69545 
L 364.296945 93.593813 
L 364.299657 93.593813 
L 364.441292 93.483878 
L 364.558707 93.407132 
L 364.695001 93.297198 
L 364.811215 93.226674 
L 364.933639 93.116739 
L 365.047784 93.042067 
L 365.179234 92.932133 
L 365.296359 92.849163 
L 365.428637 92.739229 
L 365.542615 92.662483 
L 365.664502 92.551511 
L 365.785974 92.42602 
L 365.921957 92.316086 
L 366.041463 92.226894 
L 366.178668 92.11696 
L 366.294178 92.007025 
L 366.39938 91.897091 
L 366.524827 91.783008 
L 366.642821 91.673074 
L 366.759594 91.581808 
L 366.888664 91.471874 
L 367.006907 91.38683 
L 367.108589 91.276896 
L 367.226956 91.189778 
L 367.380597 91.079844 
L 367.493748 90.965761 
L 367.62466 90.855827 
L 367.746215 90.766635 
L 367.88135 90.656701 
L 367.995121 90.588251 
L 368.152985 90.478317 
L 368.271083 90.364234 
L 368.430521 90.2543 
L 368.545183 90.18585 
L 368.679324 90.075916 
L 368.788541 89.972204 
L 368.79028 89.972204 
L 368.89573 89.86227 
L 369.023454 89.766855 
L 369.174777 89.656921 
L 369.286561 89.580174 
L 369.408778 89.47024 
L 369.525986 89.370677 
L 369.65607 89.260743 
L 369.772077 89.181922 
L 369.920523 89.071988 
L 370.038993 88.97035 
L 370.187356 88.860416 
L 370.303135 88.76915 
L 370.458598 88.659215 
L 370.573157 88.543058 
L 370.749983 88.433124 
L 370.876672 88.30867 
L 371.001311 88.198736 
L 371.127814 88.103321 
L 371.265557 87.993387 
L 371.383344 87.900047 
L 371.515084 87.790112 
L 371.634031 87.694698 
L 371.753888 87.584763 
L 371.864617 87.476903 
L 371.864969 87.476903 
L 371.994846 87.366969 
L 372.126213 87.227996 
L 372.232574 87.118061 
L 372.349823 87.018498 
L 372.470488 86.902341 
L 372.588048 86.792407 
L 372.702813 86.694918 
L 372.846849 86.584984 
L 372.959958 86.468827 
L 373.150157 86.358892 
L 373.273368 86.242736 
L 373.367225 86.132801 
L 373.487538 86.020793 
L 373.59096 85.910858 
L 373.709327 85.823741 
L 373.839369 85.713806 
L 373.95223 85.626689 
L 374.11204 85.516754 
L 374.227385 85.408894 
L 374.343599 85.29896 
L 374.456791 85.1911 
L 374.601531 85.081166 
L 374.711763 84.9899 
L 374.712611 84.9899 
L 374.849278 84.879965 
L 374.967459 84.792848 
L 375.113917 84.682913 
L 375.22715 84.577127 
L 375.417929 84.467193 
L 375.534474 84.378001 
L 375.666835 84.268067 
L 375.792779 84.124945 
L 375.895082 84.015011 
L 376.016265 83.907151 
L 376.165248 83.797216 
L 376.277302 83.687282 
L 376.399747 83.577348 
L 376.513767 83.479859 
L 376.6394 83.353331 
L 376.77884 83.243396 
L 376.897539 83.15213 
L 377.047206 83.042196 
L 377.169961 82.930188 
L 377.306731 82.820253 
L 377.428473 82.728987 
L 377.555576 82.619053 
L 377.683589 82.50497 
L 377.814129 82.395036 
L 377.929432 82.326586 
L 378.049269 82.216652 
L 378.167532 82.117089 
L 378.310658 82.007154 
L 378.421697 81.924185 
L 378.421759 81.924185 
L 378.545239 81.814251 
L 378.662447 81.714688 
L 378.793938 81.604753 
L 378.913672 81.498968 
L 379.071515 81.389033 
L 379.192098 81.287396 
L 379.313156 81.179536 
L 379.424981 81.098641 
L 379.551215 80.988707 
L 379.667429 80.905737 
L 379.815605 80.795803 
L 379.927845 80.675498 
L 380.062359 80.565563 
L 380.183914 80.466 
L 380.303109 80.355029 
L 380.418081 80.256503 
L 380.556528 80.146569 
L 380.675102 80.024189 
L 380.795581 79.914255 
L 380.912375 79.820914 
L 381.064981 79.71098 
L 381.192498 79.609343 
L 381.339142 79.499408 
L 381.452997 79.428884 
L 381.580389 79.31895 
L 381.693126 79.235981 
L 381.827102 79.126047 
L 381.943895 79.030632 
L 382.080169 78.920698 
L 382.195203 78.843951 
L 382.356504 78.734017 
L 382.356504 78.73298 
L 382.509068 78.586746 
L 382.628512 78.476812 
L 382.740648 78.368952 
L 382.872947 78.259018 
L 382.990921 78.147009 
L 383.160233 78.036038 
L 383.270568 77.960328 
L 383.271313 77.960328 
L 383.45406 77.850394 
L 383.574787 77.734237 
L 383.71816 77.624303 
L 383.832719 77.539259 
L 383.946076 77.429325 
L 384.060448 77.346356 
L 384.203553 77.236421 
L 384.316434 77.143081 
L 384.446414 77.033147 
L 384.565941 76.929435 
L 384.700206 76.818464 
L 384.808554 76.730309 
L 384.811245 76.730309 
L 384.98567 76.620375 
L 385.1059 76.51044 
L 385.257389 76.400506 
L 385.36731 76.30924 
L 385.368345 76.30924 
L 385.515983 76.199306 
L 385.629175 76.095594 
L 385.79623 75.98566 
L 385.90905 75.898542 
L 386.048283 75.788608 
L 386.160958 75.695267 
L 386.326502 75.585333 
L 386.441391 75.48577 
L 386.567045 75.374799 
L 386.693899 75.249308 
L 386.814958 75.141447 
L 386.926701 75.068849 
L 387.08057 74.958915 
L 387.202497 74.865575 
L 387.329745 74.75564 
L 387.449748 74.64778 
L 387.573663 74.537846 
L 387.687993 74.423763 
L 387.849666 74.313829 
L 387.960043 74.195598 
L 387.96054 74.195598 
L 388.086318 74.084626 
L 388.19421 73.981952 
L 388.197357 73.981952 
L 388.353317 73.872018 
L 388.471891 73.749638 
L 388.586118 73.638667 
L 388.71823 73.544289 
L 388.874231 73.434355 
L 388.99293 73.309901 
L 389.140733 73.199967 
L 389.262123 73.102478 
L 389.397465 72.992543 
L 389.509456 72.897129 
L 389.654072 72.787195 
L 389.654072 72.786157 
L 389.771549 72.710448 
L 389.944131 72.600514 
L 390.058524 72.517544 
L 390.207569 72.40761 
L 390.320265 72.328789 
L 390.489473 72.218855 
L 390.610759 72.121366 
L 390.741567 72.013506 
L 390.741567 72.011432 
L 390.860141 71.889052 
L 391.003059 71.779118 
L 391.121634 71.689926 
L 391.256313 71.579992 
L 391.369712 71.465909 
L 391.515653 71.355975 
L 391.633854 71.270931 
L 391.780768 71.160997 
L 391.903213 71.063508 
L 392.035242 70.953574 
L 392.157419 70.858159 
L 392.301579 70.748225 
L 392.41593 70.665255 
L 392.554129 70.555321 
L 392.668625 70.472352 
L 392.805892 70.362418 
L 392.921402 70.252483 
L 393.065811 70.142549 
L 393.181404 70.030541 
L 393.301758 69.922681 
L 393.301758 69.920606 
L 393.416317 69.835563 
L 393.556875 69.725629 
L 393.671889 69.62814 
L 393.799819 69.518205 
L 393.918104 69.418642 
L 394.012913 69.308708 
L 394.125609 69.225739 
L 394.285005 69.115804 
L 394.402378 69.014167 
L 394.57022 68.904233 
L 394.683081 68.817115 
L 394.826662 68.707181 
L 394.941468 68.61384 
L 395.131543 68.503906 
L 395.24399 68.429234 
L 395.387446 68.319299 
L 395.507925 68.205217 
L 395.684089 68.095282 
L 395.793244 68.012313 
L 395.795128 68.012313 
L 395.922603 67.902379 
L 396.03534 67.81941 
L 396.162525 67.709475 
L 396.274392 67.626506 
L 396.392635 67.510349 
L 396.50885 67.400415 
L 396.623615 67.302926 
L 396.768934 67.192992 
L 396.883658 67.1038 
L 397.027632 66.993865 
L 397.142087 66.881857 
L 397.301069 66.771923 
L 397.411156 66.693102 
L 397.412108 66.693102 
L 397.530102 66.583167 
L 397.646441 66.510569 
L 397.805299 66.400635 
L 397.914433 66.315592 
L 397.916296 66.315592 
L 398.048699 66.205657 
L 398.161766 66.106094 
L 398.312841 65.99616 
L 398.425536 65.913191 
L 398.569324 65.803256 
L 398.68206 65.722361 
L 398.825682 65.612427 
L 398.941027 65.504567 
L 399.073926 65.394633 
L 399.190348 65.307515 
L 399.328215 65.199655 
L 399.43913 65.114611 
L 399.439254 65.114611 
L 399.592978 65.004677 
L 399.699173 64.925856 
L 399.704017 64.925856 
L 399.862254 64.815922 
L 399.975115 64.724656 
L 400.104412 64.614722 
L 400.214871 64.513084 
L 400.215451 64.513084 
L 400.353649 64.40315 
L 400.463778 64.318106 
L 400.464647 64.318106 
L 400.605909 64.208172 
L 400.715251 64.110683 
L 400.716783 64.110683 
L 400.849723 64.000749 
L 400.962646 63.905334 
L 401.145455 63.797474 
L 401.145455 63.796437 
L 401.257632 63.716579 
L 401.387281 63.606645 
L 401.387281 63.605608 
L 401.504282 63.509156 
L 401.638216 63.399222 
L 401.747434 63.324549 
L 401.749318 63.324549 
L 401.907285 63.214615 
L 402.017786 63.139943 
L 402.018221 63.139943 
L 402.156771 63.030009 
L 402.271868 62.930445 
L 402.39806 62.820511 
L 402.510838 62.735468 
L 402.642495 62.625533 
L 402.755231 62.542564 
L 402.889662 62.43263 
L 402.999128 62.360032 
L 403.000743 62.360032 
L 403.135256 62.250097 
L 403.249442 62.173351 
L 403.438564 62.063417 
L 403.551218 61.98667 
L 403.728334 61.876736 
L 403.841029 61.795841 
L 403.966476 61.685906 
L 404.077184 61.611234 
L 404.077556 61.611234 
L 404.260883 61.5013 
L 404.373992 61.401737 
L 404.555869 61.291802 
L 404.665418 61.188091 
L 404.666949 61.188091 
L 404.783868 61.078157 
L 404.888365 60.999336 
L 404.894927 60.999336 
L 405.065564 60.889401 
L 405.179708 60.814729 
L 405.326311 60.704795 
L 405.436274 60.632197 
L 405.437309 60.632197 
L 405.629785 60.522262 
L 405.738464 60.44759 
L 405.740824 60.44759 
L 405.898895 60.337656 
L 406.011052 60.256761 
L 406.151279 60.146827 
L 406.264305 60.047263 
L 406.431319 59.937329 
L 406.541779 59.850211 
L 406.542359 59.850211 
L 406.66263 59.740277 
L 406.774911 59.669753 
L 406.898247 59.559819 
L 407.004814 59.485147 
L 407.009327 59.485147 
L 407.171828 59.375212 
L 407.284689 59.281872 
L 407.438206 59.171938 
L 407.545064 59.086894 
L 407.549162 59.086894 
L 407.723794 58.97696 
L 407.838021 58.896065 
L 407.975599 58.786131 
L 408.088252 58.709384 
L 408.259324 58.59945 
L 408.370197 58.501961 
L 408.370363 58.501961 
L 408.54723 58.392027 
L 408.66034 58.292463 
L 408.832487 58.182529 
L 408.941746 58.087114 
L 408.943526 58.087114 
L 409.069636 57.97718 
L 409.181834 57.917027 
L 409.309599 57.807093 
L 409.414801 57.742792 
L 409.420638 57.742792 
L 409.554407 57.632858 
L 409.665446 57.524998 
L 409.836766 57.415063 
L 409.9512 57.332094 
L 410.123844 57.22216 
L 410.232855 57.137116 
L 410.234718 57.137116 
L 410.396846 57.027182 
L 410.502917 56.95251 
L 410.507927 56.95251 
L 410.678543 56.842575 
L 410.785276 56.767903 
L 410.789292 56.767903 
L 410.951669 56.657969 
L 411.064447 56.572925 
L 411.238334 56.462991 
L 411.340927 56.400764 
L 411.349414 56.400764 
L 411.52388 56.29083 
L 411.633387 56.205786 
L 411.634837 56.205786 
L 411.795889 56.095852 
L 411.905479 56.039848 
L 411.906928 56.039848 
L 412.07833 55.929913 
L 412.186927 55.840722 
L 412.189411 55.840722 
L 412.368183 55.730787 
L 412.47413 55.681006 
L 412.478932 55.681006 
L 412.645035 55.571071 
L 412.757648 55.496399 
L 412.946936 55.386465 
L 413.059382 55.320089 
L 413.200231 55.210155 
L 413.309365 55.116815 
L 413.310938 55.116815 
L 413.494637 55.00688 
L 413.599714 54.915614 
L 413.605428 54.915614 
L 413.754805 54.80568 
L 413.864478 54.741379 
L 413.865513 54.741379 
L 414.014931 54.631444 
L 414.125929 54.554698 
L 414.12597 54.554698 
L 414.30143 54.444764 
L 414.409819 54.361794 
L 414.412138 54.361794 
L 414.574391 54.25186 
L 414.68543 54.170965 
L 414.72 54.144 
L 414.72 54.144 
" clip-path="url(#pba9041846a)" style="fill: none; stroke: #ff8c00; stroke-width: 1.5; stroke-linecap: square"/>
   </g>
   <g id="line2d_14">
    <path d="M 74.605714 307.584 
L 414.72 54.144 
" clip-path="url(#pba9041846a)" style="fill: none; stroke-dasharray: 5.55,2.4; stroke-dashoffset: 0; stroke: #0000ff; stroke-width: 1.5"/>
   </g>
   <g id="patch_3">
    <path d="M 57.6 307.584 
L 57.6 41.472 
" style="fill: none; stroke: #000000; stroke-width: 0.8; stroke-linejoin: miter; stroke-linecap: square"/>
   </g>
   <g id="patch_4">
    <path d="M 414.72 307.584 
L 414.72 41.472 
" style="fill: none; stroke: #000000; stroke-width: 0.8; stroke-linejoin: miter; stroke-linecap: square"/>
   </g>
   <g id="patch_5">
    <path d="M 57.6 307.584 
L 414.72 307.584 
" style="fill: none; stroke: #000000; stroke-width: 0.8; stroke-linejoin: miter; stroke-linecap: square"/>
   </g>
   <g id="patch_6">
    <path d="M 57.6 41.472 
L 414.72 41.472 
" style="fill: none; stroke: #000000; stroke-width: 0.8; stroke-linejoin: miter; stroke-linecap: square"/>
   </g>
   <g id="text_15">
    <!-- ROC CURVE -->
    <g transform="translate(200.855625 35.472)scale(0.12 -0.12)">
     <defs>
      <path id="DejaVuSans-4f" d="M 2522 4238 
Q 1834 4238 1429 3725 
Q 1025 3213 1025 2328 
Q 1025 1447 1429 934 
Q 1834 422 2522 422 
Q 3209 422 3611 934 
Q 4013 1447 4013 2328 
Q 4013 3213 3611 3725 
Q 3209 4238 2522 4238 
z
M 2522 4750 
Q 3503 4750 4090 4092 
Q 4678 3434 4678 2328 
Q 4678 1225 4090 567 
Q 3503 -91 2522 -91 
Q 1538 -91 948 565 
Q 359 1222 359 2328 
Q 359 3434 948 4092 
Q 1538 4750 2522 4750 
z
" transform="scale(0.015625)"/>
      <path id="DejaVuSans-43" d="M 4122 4306 
L 4122 3641 
Q 3803 3938 3442 4084 
Q 3081 4231 2675 4231 
Q 1875 4231 1450 3742 
Q 1025 3253 1025 2328 
Q 1025 1406 1450 917 
Q 1875 428 2675 428 
Q 3081 428 3442 575 
Q 3803 722 4122 1019 
L 4122 359 
Q 3791 134 3420 21 
Q 3050 -91 2638 -91 
Q 1578 -91 968 557 
Q 359 1206 359 2328 
Q 359 3453 968 4101 
Q 1578 4750 2638 4750 
Q 3056 4750 3426 4639 
Q 3797 4528 4122 4306 
z
" transform="scale(0.015625)"/>
      <path id="DejaVuSans-55" d="M 556 4666 
L 1191 4666 
L 1191 1831 
Q 1191 1081 1462 751 
Q 1734 422 2344 422 
Q 2950 422 3222 751 
Q 3494 1081 3494 1831 
L 3494 4666 
L 4128 4666 
L 4128 1753 
Q 4128 841 3676 375 
Q 3225 -91 2344 -91 
Q 1459 -91 1007 375 
Q 556 841 556 1753 
L 556 4666 
z
" transform="scale(0.015625)"/>
      <path id="DejaVuSans-56" d="M 1831 0 
L 50 4666 
L 709 4666 
L 2188 738 
L 3669 4666 
L 4325 4666 
L 2547 0 
L 1831 0 
z
" transform="scale(0.015625)"/>
      <path id="DejaVuSans-45" d="M 628 4666 
L 3578 4666 
L 3578 4134 
L 1259 4134 
L 1259 2753 
L 3481 2753 
L 3481 2222 
L 1259 2222 
L 1259 531 
L 3634 531 
L 3634 0 
L 628 0 
L 628 4666 
z
" transform="scale(0.015625)"/>
     </defs>
     <use xlink:href="#DejaVuSans-52"/>
     <use xlink:href="#DejaVuSans-4f" x="69.482422"/>
     <use xlink:href="#DejaVuSans-43" x="148.193359"/>
     <use xlink:href="#DejaVuSans-20" x="218.017578"/>
     <use xlink:href="#DejaVuSans-43" x="249.804688"/>
     <use xlink:href="#DejaVuSans-55" x="319.628906"/>
     <use xlink:href="#DejaVuSans-52" x="392.822266"/>
     <use xlink:href="#DejaVuSans-56" x="456.804688"/>
     <use xlink:href="#DejaVuSans-45" x="525.212891"/>
    </g>
   </g>
   <g id="legend_1">
    <g id="patch_7">
     <path d="M 234.97 302.584 
L 407.72 302.584 
Q 409.72 302.584 409.72 300.584 
L 409.72 286.905875 
Q 409.72 284.905875 407.72 284.905875 
L 234.97 284.905875 
Q 232.97 284.905875 232.97 286.905875 
L 232.97 300.584 
Q 232.97 302.584 234.97 302.584 
z
" style="fill: #ffffff; opacity: 0.8; stroke: #cccccc; stroke-linejoin: miter"/>
    </g>
    <g id="line2d_15">
     <path d="M 236.97 293.004312 
L 246.97 293.004312 
L 256.97 293.004312 
" style="fill: none; stroke: #ff8c00; stroke-width: 1.5; stroke-linecap: square"/>
    </g>
    <g id="text_16">
     <!-- ROC curve (ROC AUC=0.47) -->
     <g transform="translate(264.97 296.504312)scale(0.1 -0.1)">
      <defs>
       <path id="DejaVuSans-63" d="M 3122 3366 
L 3122 2828 
Q 2878 2963 2633 3030 
Q 2388 3097 2138 3097 
Q 1578 3097 1268 2742 
Q 959 2388 959 1747 
Q 959 1106 1268 751 
Q 1578 397 2138 397 
Q 2388 397 2633 464 
Q 2878 531 3122 666 
L 3122 134 
Q 2881 22 2623 -34 
Q 2366 -91 2075 -91 
Q 1284 -91 818 406 
Q 353 903 353 1747 
Q 353 2603 823 3093 
Q 1294 3584 2113 3584 
Q 2378 3584 2631 3529 
Q 2884 3475 3122 3366 
z
" transform="scale(0.015625)"/>
       <path id="DejaVuSans-28" d="M 1984 4856 
Q 1566 4138 1362 3434 
Q 1159 2731 1159 2009 
Q 1159 1288 1364 580 
Q 1569 -128 1984 -844 
L 1484 -844 
Q 1016 -109 783 600 
Q 550 1309 550 2009 
Q 550 2706 781 3412 
Q 1013 4119 1484 4856 
L 1984 4856 
z
" transform="scale(0.015625)"/>
       <path id="DejaVuSans-41" d="M 2188 4044 
L 1331 1722 
L 3047 1722 
L 2188 4044 
z
M 1831 4666 
L 2547 4666 
L 4325 0 
L 3669 0 
L 3244 1197 
L 1141 1197 
L 716 0 
L 50 0 
L 1831 4666 
z
" transform="scale(0.015625)"/>
       <path id="DejaVuSans-3d" d="M 678 2906 
L 4684 2906 
L 4684 2381 
L 678 2381 
L 678 2906 
z
M 678 1631 
L 4684 1631 
L 4684 1100 
L 678 1100 
L 678 1631 
z
" transform="scale(0.015625)"/>
       <path id="DejaVuSans-37" d="M 525 4666 
L 3525 4666 
L 3525 4397 
L 1831 0 
L 1172 0 
L 2766 4134 
L 525 4134 
L 525 4666 
z
" transform="scale(0.015625)"/>
       <path id="DejaVuSans-29" d="M 513 4856 
L 1013 4856 
Q 1481 4119 1714 3412 
Q 1947 2706 1947 2009 
Q 1947 1309 1714 600 
Q 1481 -109 1013 -844 
L 513 -844 
Q 928 -128 1133 580 
Q 1338 1288 1338 2009 
Q 1338 2731 1133 3434 
Q 928 4138 513 4856 
z
" transform="scale(0.015625)"/>
      </defs>
      <use xlink:href="#DejaVuSans-52"/>
      <use xlink:href="#DejaVuSans-4f" x="69.482422"/>
      <use xlink:href="#DejaVuSans-43" x="148.193359"/>
      <use xlink:href="#DejaVuSans-20" x="218.017578"/>
      <use xlink:href="#DejaVuSans-63" x="249.804688"/>
      <use xlink:href="#DejaVuSans-75" x="304.785156"/>
      <use xlink:href="#DejaVuSans-72" x="368.164062"/>
      <use xlink:href="#DejaVuSans-76" x="409.277344"/>
      <use xlink:href="#DejaVuSans-65" x="468.457031"/>
      <use xlink:href="#DejaVuSans-20" x="529.980469"/>
      <use xlink:href="#DejaVuSans-28" x="561.767578"/>
      <use xlink:href="#DejaVuSans-52" x="600.78125"/>
      <use xlink:href="#DejaVuSans-4f" x="670.263672"/>
      <use xlink:href="#DejaVuSans-43" x="748.974609"/>
      <use xlink:href="#DejaVuSans-20" x="818.798828"/>
      <use xlink:href="#DejaVuSans-41" x="850.585938"/>
      <use xlink:href="#DejaVuSans-55" x="918.994141"/>
      <use xlink:href="#DejaVuSans-43" x="992.1875"/>
      <use xlink:href="#DejaVuSans-3d" x="1062.011719"/>
      <use xlink:href="#DejaVuSans-30" x="1145.800781"/>
      <use xlink:href="#DejaVuSans-2e" x="1209.423828"/>
      <use xlink:href="#DejaVuSans-34" x="1241.210938"/>
      <use xlink:href="#DejaVuSans-37" x="1304.833984"/>
      <use xlink:href="#DejaVuSans-29" x="1368.457031"/>
     </g>
    </g>
   </g>
  </g>
 </g>
 <defs>
  <clipPath id="pba9041846a">
   <rect x="57.6" y="41.472" width="357.12" height="266.112"/>
  </clipPath>
 </defs>
</svg>
