<?xml version="1.0" encoding="utf-8" standalone="no"?>
<!DOCTYPE svg PUBLIC "-//W3C//DTD SVG 1.1//EN"
  "http://www.w3.org/Graphics/SVG/1.1/DTD/svg11.dtd">
<svg xmlns:xlink="http://www.w3.org/1999/xlink" width="460.8pt" height="345.6pt" viewBox="0 0 460.8 345.6" xmlns="http://www.w3.org/2000/svg" version="1.1">
 <metadata>
  <rdf:RDF xmlns:dc="http://purl.org/dc/elements/1.1/" xmlns:cc="http://creativecommons.org/ns#" xmlns:rdf="http://www.w3.org/1999/02/22-rdf-syntax-ns#">
   <cc:Work>
    <dc:type rdf:resource="http://purl.org/dc/dcmitype/StillImage"/>
    <dc:date>2022-05-22T12:48:48.553548</dc:date>
    <dc:format>image/svg+xml</dc:format>
    <dc:creator>
     <cc:Agent>
      <dc:title>Matplotlib v3.5.1, https://matplotlib.org/</dc:title>
     </cc:Agent>
    </dc:creator>
   </cc:Work>
  </rdf:RDF>
 </metadata>
 <defs>
  <style type="text/css">*{stroke-linejoin: round; stroke-linecap: butt}</style>
 </defs>
 <g id="figure_1">
  <g id="patch_1">
   <path d="M 0 345.6 
L 460.8 345.6 
L 460.8 0 
L 0 0 
z
" style="fill: #ffffff"/>
  </g>
  <g id="axes_1">
   <g id="patch_2">
    <path d="M 57.6 307.584 
L 414.72 307.584 
L 414.72 41.472 
L 57.6 41.472 
z
" style="fill: #ffffff"/>
   </g>
   <g id="matplotlib.axis_1">
    <g id="xtick_1">
     <g id="line2d_1">
      <defs>
       <path id="m360b0c3a11" d="M 0 0 
L 0 3.5 
" style="stroke: #000000; stroke-width: 0.8"/>
      </defs>
      <g>
       <use xlink:href="#m360b0c3a11" x="74.605714" y="307.584" style="stroke: #000000; stroke-width: 0.8"/>
      </g>
     </g>
     <g id="text_1">
      <!-- 0.0 -->
      <g transform="translate(66.654152 322.182437)scale(0.1 -0.1)">
       <defs>
        <path id="DejaVuSans-30" d="M 2034 4250 
Q 1547 4250 1301 3770 
Q 1056 3291 1056 2328 
Q 1056 1369 1301 889 
Q 1547 409 2034 409 
Q 2525 409 2770 889 
Q 3016 1369 3016 2328 
Q 3016 3291 2770 3770 
Q 2525 4250 2034 4250 
z
M 2034 4750 
Q 2819 4750 3233 4129 
Q 3647 3509 3647 2328 
Q 3647 1150 3233 529 
Q 2819 -91 2034 -91 
Q 1250 -91 836 529 
Q 422 1150 422 2328 
Q 422 3509 836 4129 
Q 1250 4750 2034 4750 
z
" transform="scale(0.015625)"/>
        <path id="DejaVuSans-2e" d="M 684 794 
L 1344 794 
L 1344 0 
L 684 0 
L 684 794 
z
" transform="scale(0.015625)"/>
       </defs>
       <use xlink:href="#DejaVuSans-30"/>
       <use xlink:href="#DejaVuSans-2e" x="63.623047"/>
       <use xlink:href="#DejaVuSans-30" x="95.410156"/>
      </g>
     </g>
    </g>
    <g id="xtick_2">
     <g id="line2d_2">
      <g>
       <use xlink:href="#m360b0c3a11" x="142.628571" y="307.584" style="stroke: #000000; stroke-width: 0.8"/>
      </g>
     </g>
     <g id="text_2">
      <!-- 0.2 -->
      <g transform="translate(134.677009 322.182437)scale(0.1 -0.1)">
       <defs>
        <path id="DejaVuSans-32" d="M 1228 531 
L 3431 531 
L 3431 0 
L 469 0 
L 469 531 
Q 828 903 1448 1529 
Q 2069 2156 2228 2338 
Q 2531 2678 2651 2914 
Q 2772 3150 2772 3378 
Q 2772 3750 2511 3984 
Q 2250 4219 1831 4219 
Q 1534 4219 1204 4116 
Q 875 4013 500 3803 
L 500 4441 
Q 881 4594 1212 4672 
Q 1544 4750 1819 4750 
Q 2544 4750 2975 4387 
Q 3406 4025 3406 3419 
Q 3406 3131 3298 2873 
Q 3191 2616 2906 2266 
Q 2828 2175 2409 1742 
Q 1991 1309 1228 531 
z
" transform="scale(0.015625)"/>
       </defs>
       <use xlink:href="#DejaVuSans-30"/>
       <use xlink:href="#DejaVuSans-2e" x="63.623047"/>
       <use xlink:href="#DejaVuSans-32" x="95.410156"/>
      </g>
     </g>
    </g>
    <g id="xtick_3">
     <g id="line2d_3">
      <g>
       <use xlink:href="#m360b0c3a11" x="210.651429" y="307.584" style="stroke: #000000; stroke-width: 0.8"/>
      </g>
     </g>
     <g id="text_3">
      <!-- 0.4 -->
      <g transform="translate(202.699866 322.182437)scale(0.1 -0.1)">
       <defs>
        <path id="DejaVuSans-34" d="M 2419 4116 
L 825 1625 
L 2419 1625 
L 2419 4116 
z
M 2253 4666 
L 3047 4666 
L 3047 1625 
L 3713 1625 
L 3713 1100 
L 3047 1100 
L 3047 0 
L 2419 0 
L 2419 1100 
L 313 1100 
L 313 1709 
L 2253 4666 
z
" transform="scale(0.015625)"/>
       </defs>
       <use xlink:href="#DejaVuSans-30"/>
       <use xlink:href="#DejaVuSans-2e" x="63.623047"/>
       <use xlink:href="#DejaVuSans-34" x="95.410156"/>
      </g>
     </g>
    </g>
    <g id="xtick_4">
     <g id="line2d_4">
      <g>
       <use xlink:href="#m360b0c3a11" x="278.674286" y="307.584" style="stroke: #000000; stroke-width: 0.8"/>
      </g>
     </g>
     <g id="text_4">
      <!-- 0.6 -->
      <g transform="translate(270.722723 322.182437)scale(0.1 -0.1)">
       <defs>
        <path id="DejaVuSans-36" d="M 2113 2584 
Q 1688 2584 1439 2293 
Q 1191 2003 1191 1497 
Q 1191 994 1439 701 
Q 1688 409 2113 409 
Q 2538 409 2786 701 
Q 3034 994 3034 1497 
Q 3034 2003 2786 2293 
Q 2538 2584 2113 2584 
z
M 3366 4563 
L 3366 3988 
Q 3128 4100 2886 4159 
Q 2644 4219 2406 4219 
Q 1781 4219 1451 3797 
Q 1122 3375 1075 2522 
Q 1259 2794 1537 2939 
Q 1816 3084 2150 3084 
Q 2853 3084 3261 2657 
Q 3669 2231 3669 1497 
Q 3669 778 3244 343 
Q 2819 -91 2113 -91 
Q 1303 -91 875 529 
Q 447 1150 447 2328 
Q 447 3434 972 4092 
Q 1497 4750 2381 4750 
Q 2619 4750 2861 4703 
Q 3103 4656 3366 4563 
z
" transform="scale(0.015625)"/>
       </defs>
       <use xlink:href="#DejaVuSans-30"/>
       <use xlink:href="#DejaVuSans-2e" x="63.623047"/>
       <use xlink:href="#DejaVuSans-36" x="95.410156"/>
      </g>
     </g>
    </g>
    <g id="xtick_5">
     <g id="line2d_5">
      <g>
       <use xlink:href="#m360b0c3a11" x="346.697143" y="307.584" style="stroke: #000000; stroke-width: 0.8"/>
      </g>
     </g>
     <g id="text_5">
      <!-- 0.8 -->
      <g transform="translate(338.74558 322.182437)scale(0.1 -0.1)">
       <defs>
        <path id="DejaVuSans-38" d="M 2034 2216 
Q 1584 2216 1326 1975 
Q 1069 1734 1069 1313 
Q 1069 891 1326 650 
Q 1584 409 2034 409 
Q 2484 409 2743 651 
Q 3003 894 3003 1313 
Q 3003 1734 2745 1975 
Q 2488 2216 2034 2216 
z
M 1403 2484 
Q 997 2584 770 2862 
Q 544 3141 544 3541 
Q 544 4100 942 4425 
Q 1341 4750 2034 4750 
Q 2731 4750 3128 4425 
Q 3525 4100 3525 3541 
Q 3525 3141 3298 2862 
Q 3072 2584 2669 2484 
Q 3125 2378 3379 2068 
Q 3634 1759 3634 1313 
Q 3634 634 3220 271 
Q 2806 -91 2034 -91 
Q 1263 -91 848 271 
Q 434 634 434 1313 
Q 434 1759 690 2068 
Q 947 2378 1403 2484 
z
M 1172 3481 
Q 1172 3119 1398 2916 
Q 1625 2713 2034 2713 
Q 2441 2713 2670 2916 
Q 2900 3119 2900 3481 
Q 2900 3844 2670 4047 
Q 2441 4250 2034 4250 
Q 1625 4250 1398 4047 
Q 1172 3844 1172 3481 
z
" transform="scale(0.015625)"/>
       </defs>
       <use xlink:href="#DejaVuSans-30"/>
       <use xlink:href="#DejaVuSans-2e" x="63.623047"/>
       <use xlink:href="#DejaVuSans-38" x="95.410156"/>
      </g>
     </g>
    </g>
    <g id="xtick_6">
     <g id="line2d_6">
      <g>
       <use xlink:href="#m360b0c3a11" x="414.72" y="307.584" style="stroke: #000000; stroke-width: 0.8"/>
      </g>
     </g>
     <g id="text_6">
      <!-- 1.0 -->
      <g transform="translate(406.768438 322.182437)scale(0.1 -0.1)">
       <defs>
        <path id="DejaVuSans-31" d="M 794 531 
L 1825 531 
L 1825 4091 
L 703 3866 
L 703 4441 
L 1819 4666 
L 2450 4666 
L 2450 531 
L 3481 531 
L 3481 0 
L 794 0 
L 794 531 
z
" transform="scale(0.015625)"/>
       </defs>
       <use xlink:href="#DejaVuSans-31"/>
       <use xlink:href="#DejaVuSans-2e" x="63.623047"/>
       <use xlink:href="#DejaVuSans-30" x="95.410156"/>
      </g>
     </g>
    </g>
    <g id="text_7">
     <!-- False Positive Rate -->
     <g transform="translate(189.693594 335.860562)scale(0.1 -0.1)">
      <defs>
       <path id="DejaVuSans-46" d="M 628 4666 
L 3309 4666 
L 3309 4134 
L 1259 4134 
L 1259 2759 
L 3109 2759 
L 3109 2228 
L 1259 2228 
L 1259 0 
L 628 0 
L 628 4666 
z
" transform="scale(0.015625)"/>
       <path id="DejaVuSans-61" d="M 2194 1759 
Q 1497 1759 1228 1600 
Q 959 1441 959 1056 
Q 959 750 1161 570 
Q 1363 391 1709 391 
Q 2188 391 2477 730 
Q 2766 1069 2766 1631 
L 2766 1759 
L 2194 1759 
z
M 3341 1997 
L 3341 0 
L 2766 0 
L 2766 531 
Q 2569 213 2275 61 
Q 1981 -91 1556 -91 
Q 1019 -91 701 211 
Q 384 513 384 1019 
Q 384 1609 779 1909 
Q 1175 2209 1959 2209 
L 2766 2209 
L 2766 2266 
Q 2766 2663 2505 2880 
Q 2244 3097 1772 3097 
Q 1472 3097 1187 3025 
Q 903 2953 641 2809 
L 641 3341 
Q 956 3463 1253 3523 
Q 1550 3584 1831 3584 
Q 2591 3584 2966 3190 
Q 3341 2797 3341 1997 
z
" transform="scale(0.015625)"/>
       <path id="DejaVuSans-6c" d="M 603 4863 
L 1178 4863 
L 1178 0 
L 603 0 
L 603 4863 
z
" transform="scale(0.015625)"/>
       <path id="DejaVuSans-73" d="M 2834 3397 
L 2834 2853 
Q 2591 2978 2328 3040 
Q 2066 3103 1784 3103 
Q 1356 3103 1142 2972 
Q 928 2841 928 2578 
Q 928 2378 1081 2264 
Q 1234 2150 1697 2047 
L 1894 2003 
Q 2506 1872 2764 1633 
Q 3022 1394 3022 966 
Q 3022 478 2636 193 
Q 2250 -91 1575 -91 
Q 1294 -91 989 -36 
Q 684 19 347 128 
L 347 722 
Q 666 556 975 473 
Q 1284 391 1588 391 
Q 1994 391 2212 530 
Q 2431 669 2431 922 
Q 2431 1156 2273 1281 
Q 2116 1406 1581 1522 
L 1381 1569 
Q 847 1681 609 1914 
Q 372 2147 372 2553 
Q 372 3047 722 3315 
Q 1072 3584 1716 3584 
Q 2034 3584 2315 3537 
Q 2597 3491 2834 3397 
z
" transform="scale(0.015625)"/>
       <path id="DejaVuSans-65" d="M 3597 1894 
L 3597 1613 
L 953 1613 
Q 991 1019 1311 708 
Q 1631 397 2203 397 
Q 2534 397 2845 478 
Q 3156 559 3463 722 
L 3463 178 
Q 3153 47 2828 -22 
Q 2503 -91 2169 -91 
Q 1331 -91 842 396 
Q 353 884 353 1716 
Q 353 2575 817 3079 
Q 1281 3584 2069 3584 
Q 2775 3584 3186 3129 
Q 3597 2675 3597 1894 
z
M 3022 2063 
Q 3016 2534 2758 2815 
Q 2500 3097 2075 3097 
Q 1594 3097 1305 2825 
Q 1016 2553 972 2059 
L 3022 2063 
z
" transform="scale(0.015625)"/>
       <path id="DejaVuSans-20" transform="scale(0.015625)"/>
       <path id="DejaVuSans-50" d="M 1259 4147 
L 1259 2394 
L 2053 2394 
Q 2494 2394 2734 2622 
Q 2975 2850 2975 3272 
Q 2975 3691 2734 3919 
Q 2494 4147 2053 4147 
L 1259 4147 
z
M 628 4666 
L 2053 4666 
Q 2838 4666 3239 4311 
Q 3641 3956 3641 3272 
Q 3641 2581 3239 2228 
Q 2838 1875 2053 1875 
L 1259 1875 
L 1259 0 
L 628 0 
L 628 4666 
z
" transform="scale(0.015625)"/>
       <path id="DejaVuSans-6f" d="M 1959 3097 
Q 1497 3097 1228 2736 
Q 959 2375 959 1747 
Q 959 1119 1226 758 
Q 1494 397 1959 397 
Q 2419 397 2687 759 
Q 2956 1122 2956 1747 
Q 2956 2369 2687 2733 
Q 2419 3097 1959 3097 
z
M 1959 3584 
Q 2709 3584 3137 3096 
Q 3566 2609 3566 1747 
Q 3566 888 3137 398 
Q 2709 -91 1959 -91 
Q 1206 -91 779 398 
Q 353 888 353 1747 
Q 353 2609 779 3096 
Q 1206 3584 1959 3584 
z
" transform="scale(0.015625)"/>
       <path id="DejaVuSans-69" d="M 603 3500 
L 1178 3500 
L 1178 0 
L 603 0 
L 603 3500 
z
M 603 4863 
L 1178 4863 
L 1178 4134 
L 603 4134 
L 603 4863 
z
" transform="scale(0.015625)"/>
       <path id="DejaVuSans-74" d="M 1172 4494 
L 1172 3500 
L 2356 3500 
L 2356 3053 
L 1172 3053 
L 1172 1153 
Q 1172 725 1289 603 
Q 1406 481 1766 481 
L 2356 481 
L 2356 0 
L 1766 0 
Q 1100 0 847 248 
Q 594 497 594 1153 
L 594 3053 
L 172 3053 
L 172 3500 
L 594 3500 
L 594 4494 
L 1172 4494 
z
" transform="scale(0.015625)"/>
       <path id="DejaVuSans-76" d="M 191 3500 
L 800 3500 
L 1894 563 
L 2988 3500 
L 3597 3500 
L 2284 0 
L 1503 0 
L 191 3500 
z
" transform="scale(0.015625)"/>
       <path id="DejaVuSans-52" d="M 2841 2188 
Q 3044 2119 3236 1894 
Q 3428 1669 3622 1275 
L 4263 0 
L 3584 0 
L 2988 1197 
Q 2756 1666 2539 1819 
Q 2322 1972 1947 1972 
L 1259 1972 
L 1259 0 
L 628 0 
L 628 4666 
L 2053 4666 
Q 2853 4666 3247 4331 
Q 3641 3997 3641 3322 
Q 3641 2881 3436 2590 
Q 3231 2300 2841 2188 
z
M 1259 4147 
L 1259 2491 
L 2053 2491 
Q 2509 2491 2742 2702 
Q 2975 2913 2975 3322 
Q 2975 3731 2742 3939 
Q 2509 4147 2053 4147 
L 1259 4147 
z
" transform="scale(0.015625)"/>
      </defs>
      <use xlink:href="#DejaVuSans-46"/>
      <use xlink:href="#DejaVuSans-61" x="48.394531"/>
      <use xlink:href="#DejaVuSans-6c" x="109.673828"/>
      <use xlink:href="#DejaVuSans-73" x="137.457031"/>
      <use xlink:href="#DejaVuSans-65" x="189.556641"/>
      <use xlink:href="#DejaVuSans-20" x="251.080078"/>
      <use xlink:href="#DejaVuSans-50" x="282.867188"/>
      <use xlink:href="#DejaVuSans-6f" x="339.544922"/>
      <use xlink:href="#DejaVuSans-73" x="400.726562"/>
      <use xlink:href="#DejaVuSans-69" x="452.826172"/>
      <use xlink:href="#DejaVuSans-74" x="480.609375"/>
      <use xlink:href="#DejaVuSans-69" x="519.818359"/>
      <use xlink:href="#DejaVuSans-76" x="547.601562"/>
      <use xlink:href="#DejaVuSans-65" x="606.78125"/>
      <use xlink:href="#DejaVuSans-20" x="668.304688"/>
      <use xlink:href="#DejaVuSans-52" x="700.091797"/>
      <use xlink:href="#DejaVuSans-61" x="767.324219"/>
      <use xlink:href="#DejaVuSans-74" x="828.603516"/>
      <use xlink:href="#DejaVuSans-65" x="867.8125"/>
     </g>
    </g>
   </g>
   <g id="matplotlib.axis_2">
    <g id="ytick_1">
     <g id="line2d_7">
      <defs>
       <path id="m20025abce4" d="M 0 0 
L -3.5 0 
" style="stroke: #000000; stroke-width: 0.8"/>
      </defs>
      <g>
       <use xlink:href="#m20025abce4" x="57.6" y="307.584" style="stroke: #000000; stroke-width: 0.8"/>
      </g>
     </g>
     <g id="text_8">
      <!-- 0.0 -->
      <g transform="translate(34.696875 311.383219)scale(0.1 -0.1)">
       <use xlink:href="#DejaVuSans-30"/>
       <use xlink:href="#DejaVuSans-2e" x="63.623047"/>
       <use xlink:href="#DejaVuSans-30" x="95.410156"/>
      </g>
     </g>
    </g>
    <g id="ytick_2">
     <g id="line2d_8">
      <g>
       <use xlink:href="#m20025abce4" x="57.6" y="256.896" style="stroke: #000000; stroke-width: 0.8"/>
      </g>
     </g>
     <g id="text_9">
      <!-- 0.2 -->
      <g transform="translate(34.696875 260.695219)scale(0.1 -0.1)">
       <use xlink:href="#DejaVuSans-30"/>
       <use xlink:href="#DejaVuSans-2e" x="63.623047"/>
       <use xlink:href="#DejaVuSans-32" x="95.410156"/>
      </g>
     </g>
    </g>
    <g id="ytick_3">
     <g id="line2d_9">
      <g>
       <use xlink:href="#m20025abce4" x="57.6" y="206.208" style="stroke: #000000; stroke-width: 0.8"/>
      </g>
     </g>
     <g id="text_10">
      <!-- 0.4 -->
      <g transform="translate(34.696875 210.007219)scale(0.1 -0.1)">
       <use xlink:href="#DejaVuSans-30"/>
       <use xlink:href="#DejaVuSans-2e" x="63.623047"/>
       <use xlink:href="#DejaVuSans-34" x="95.410156"/>
      </g>
     </g>
    </g>
    <g id="ytick_4">
     <g id="line2d_10">
      <g>
       <use xlink:href="#m20025abce4" x="57.6" y="155.52" style="stroke: #000000; stroke-width: 0.8"/>
      </g>
     </g>
     <g id="text_11">
      <!-- 0.6 -->
      <g transform="translate(34.696875 159.319219)scale(0.1 -0.1)">
       <use xlink:href="#DejaVuSans-30"/>
       <use xlink:href="#DejaVuSans-2e" x="63.623047"/>
       <use xlink:href="#DejaVuSans-36" x="95.410156"/>
      </g>
     </g>
    </g>
    <g id="ytick_5">
     <g id="line2d_11">
      <g>
       <use xlink:href="#m20025abce4" x="57.6" y="104.832" style="stroke: #000000; stroke-width: 0.8"/>
      </g>
     </g>
     <g id="text_12">
      <!-- 0.8 -->
      <g transform="translate(34.696875 108.631219)scale(0.1 -0.1)">
       <use xlink:href="#DejaVuSans-30"/>
       <use xlink:href="#DejaVuSans-2e" x="63.623047"/>
       <use xlink:href="#DejaVuSans-38" x="95.410156"/>
      </g>
     </g>
    </g>
    <g id="ytick_6">
     <g id="line2d_12">
      <g>
       <use xlink:href="#m20025abce4" x="57.6" y="54.144" style="stroke: #000000; stroke-width: 0.8"/>
      </g>
     </g>
     <g id="text_13">
      <!-- 1.0 -->
      <g transform="translate(34.696875 57.943219)scale(0.1 -0.1)">
       <use xlink:href="#DejaVuSans-31"/>
       <use xlink:href="#DejaVuSans-2e" x="63.623047"/>
       <use xlink:href="#DejaVuSans-30" x="95.410156"/>
      </g>
     </g>
    </g>
    <g id="text_14">
     <!-- True Positive Rate -->
     <g transform="translate(28.617187 219.057687)rotate(-90)scale(0.1 -0.1)">
      <defs>
       <path id="DejaVuSans-54" d="M -19 4666 
L 3928 4666 
L 3928 4134 
L 2272 4134 
L 2272 0 
L 1638 0 
L 1638 4134 
L -19 4134 
L -19 4666 
z
" transform="scale(0.015625)"/>
       <path id="DejaVuSans-72" d="M 2631 2963 
Q 2534 3019 2420 3045 
Q 2306 3072 2169 3072 
Q 1681 3072 1420 2755 
Q 1159 2438 1159 1844 
L 1159 0 
L 581 0 
L 581 3500 
L 1159 3500 
L 1159 2956 
Q 1341 3275 1631 3429 
Q 1922 3584 2338 3584 
Q 2397 3584 2469 3576 
Q 2541 3569 2628 3553 
L 2631 2963 
z
" transform="scale(0.015625)"/>
       <path id="DejaVuSans-75" d="M 544 1381 
L 544 3500 
L 1119 3500 
L 1119 1403 
Q 1119 906 1312 657 
Q 1506 409 1894 409 
Q 2359 409 2629 706 
Q 2900 1003 2900 1516 
L 2900 3500 
L 3475 3500 
L 3475 0 
L 2900 0 
L 2900 538 
Q 2691 219 2414 64 
Q 2138 -91 1772 -91 
Q 1169 -91 856 284 
Q 544 659 544 1381 
z
M 1991 3584 
L 1991 3584 
z
" transform="scale(0.015625)"/>
      </defs>
      <use xlink:href="#DejaVuSans-54"/>
      <use xlink:href="#DejaVuSans-72" x="46.333984"/>
      <use xlink:href="#DejaVuSans-75" x="87.447266"/>
      <use xlink:href="#DejaVuSans-65" x="150.826172"/>
      <use xlink:href="#DejaVuSans-20" x="212.349609"/>
      <use xlink:href="#DejaVuSans-50" x="244.136719"/>
      <use xlink:href="#DejaVuSans-6f" x="300.814453"/>
      <use xlink:href="#DejaVuSans-73" x="361.996094"/>
      <use xlink:href="#DejaVuSans-69" x="414.095703"/>
      <use xlink:href="#DejaVuSans-74" x="441.878906"/>
      <use xlink:href="#DejaVuSans-69" x="481.087891"/>
      <use xlink:href="#DejaVuSans-76" x="508.871094"/>
      <use xlink:href="#DejaVuSans-65" x="568.050781"/>
      <use xlink:href="#DejaVuSans-20" x="629.574219"/>
      <use xlink:href="#DejaVuSans-52" x="661.361328"/>
      <use xlink:href="#DejaVuSans-61" x="728.59375"/>
      <use xlink:href="#DejaVuSans-74" x="789.873047"/>
      <use xlink:href="#DejaVuSans-65" x="829.082031"/>
     </g>
    </g>
   </g>
   <g id="line2d_13">
    <path d="M 74.605714 307.584 
L 74.716355 306.785073 
L 74.71677 306.785073 
L 74.742107 306.675376 
L 74.849969 306.371121 
L 74.853204 306.371121 
L 74.906824 306.261424 
L 75.016386 306.110331 
L 75.017921 306.110331 
L 75.11046 306.000634 
L 75.222573 305.890937 
L 75.346815 305.781239 
L 75.455341 305.702588 
L 75.457912 305.702588 
L 75.680976 305.592891 
L 75.7917 305.537008 
L 75.792073 305.537008 
L 75.988597 305.426276 
L 76.098491 305.338311 
L 76.099693 305.338311 
L 76.253545 305.228614 
L 76.364517 305.156172 
L 76.3646 305.156172 
L 76.480466 305.046475 
L 76.590443 304.940917 
L 76.591563 304.940917 
L 76.732103 304.83122 
L 76.842909 304.723592 
L 76.843199 304.723592 
L 77.000369 304.613895 
L 77.112523 304.500058 
L 77.237242 304.390361 
L 77.331254 304.319989 
L 77.34809 304.319989 
L 77.458648 304.210292 
L 77.5651 304.092315 
L 77.569744 304.092315 
L 77.698756 303.982618 
L 77.808982 303.885339 
L 77.809604 303.885339 
L 77.95738 303.774607 
L 78.067254 303.694922 
L 78.068415 303.694922 
L 78.171466 303.585224 
L 78.280158 303.494155 
L 78.282459 303.494155 
L 78.41116 303.384458 
L 78.520017 303.268551 
L 78.522257 303.268551 
L 78.655 303.158854 
L 78.764542 303.057436 
L 78.765973 303.057436 
L 78.896332 302.946703 
L 79.006744 302.879436 
L 79.007367 302.879436 
L 79.103037 302.769739 
L 79.213014 302.670391 
L 79.214113 302.670391 
L 79.344887 302.560693 
L 79.454159 302.448926 
L 79.455983 302.448926 
L 79.59588 302.339229 
L 79.70254 302.237811 
L 79.706956 302.237811 
L 79.819131 302.128114 
L 79.92745 301.995649 
L 79.930228 301.995649 
L 80.034233 301.885952 
L 80.144895 301.761766 
L 80.145206 301.761766 
L 80.288379 301.651034 
L 80.397838 301.55686 
L 80.399434 301.55686 
L 80.514657 301.447163 
L 80.62169 301.337465 
L 80.625754 301.337465 
L 80.720387 301.227768 
L 80.830281 301.116001 
L 80.831318 301.116001 
L 80.916372 301.006304 
L 81.027406 300.886258 
L 81.027469 300.886258 
L 81.157144 300.77656 
L 81.265462 300.650305 
L 81.26824 300.650305 
L 81.371914 300.540608 
L 81.478449 300.410213 
L 81.48299 300.410213 
L 81.589214 300.299481 
L 81.700103 300.18047 
L 81.700311 300.18047 
L 81.792062 300.069738 
L 81.905025 299.975564 
L 82.016142 299.865866 
L 82.126493 299.733402 
L 82.127115 299.733402 
L 82.221022 299.623704 
L 82.333176 299.509868 
L 82.449664 299.40017 
L 82.449664 299.399135 
L 82.562668 299.304961 
L 82.669908 299.194229 
L 82.779885 299.064869 
L 82.780943 299.064869 
L 82.870828 298.955172 
L 82.981676 298.818568 
L 82.981842 298.818568 
L 83.059804 298.708871 
L 83.059804 298.707836 
L 83.175919 298.584685 
L 83.275425 298.473953 
L 83.386273 298.317686 
L 83.386418 298.317686 
L 83.473836 298.207989 
L 83.584186 298.081733 
L 83.584891 298.081733 
L 83.663102 297.972036 
L 83.77281 297.816804 
L 83.774199 297.816804 
L 83.860041 297.707107 
L 83.860041 297.706072 
L 83.970557 297.549805 
L 83.971137 297.549805 
L 84.069835 297.439073 
L 84.179003 297.311783 
L 84.18089 297.311783 
L 84.303183 297.202086 
L 84.303183 297.201051 
L 84.416934 297.069621 
L 84.508374 296.958889 
L 84.617646 296.837808 
L 84.61943 296.837808 
L 84.731729 296.727076 
L 84.841125 296.601855 
L 84.842826 296.601855 
L 84.933519 296.492158 
L 85.043704 296.345205 
L 85.044575 296.345205 
L 85.135766 296.235508 
L 85.245992 296.088555 
L 85.246863 296.088555 
L 85.323954 295.978858 
L 85.434947 295.823626 
L 85.434989 295.823626 
L 85.51799 295.713928 
L 85.628838 295.546278 
L 85.629045 295.546278 
L 85.709226 295.435546 
L 85.819577 295.287558 
L 85.820282 295.287558 
L 85.913381 295.177861 
L 86.026074 295.01435 
L 86.113512 294.904652 
L 86.224132 294.734932 
L 86.224547 294.734932 
L 86.296994 294.625235 
L 86.296994 294.6242 
L 86.411574 294.451375 
L 86.482964 294.341678 
L 86.593749 294.180236 
L 86.59404 294.180236 
L 86.669929 294.070539 
L 86.78086 293.929796 
L 86.781026 293.929796 
L 86.84887 293.819063 
L 86.959261 293.660727 
L 86.959925 293.660727 
L 87.036478 293.55103 
L 87.145667 293.404077 
L 87.147574 293.404077 
L 87.218114 293.293344 
L 87.3244 293.149496 
L 87.32921 293.149496 
L 87.408251 293.039799 
L 87.519182 292.843172 
L 87.519244 292.843172 
L 87.609171 292.73244 
L 87.717717 292.574103 
L 87.720205 292.574103 
L 87.795887 292.464406 
L 87.90603 292.271918 
L 87.906942 292.271918 
L 87.967944 292.161186 
L 88.082628 291.980082 
L 88.162539 291.870385 
L 88.273553 291.700664 
L 88.273615 291.700664 
L 88.359893 291.590967 
L 88.470699 291.437805 
L 88.470927 291.437805 
L 88.538792 291.328108 
L 88.646613 291.145969 
L 88.649889 291.145969 
L 88.715825 291.036272 
L 88.826424 290.883109 
L 88.826818 290.883109 
L 88.905569 290.772377 
L 89.016562 290.595413 
L 89.016645 290.595413 
L 89.085816 290.484681 
L 89.194258 290.336693 
L 89.196892 290.336693 
L 89.279188 290.226996 
L 89.387838 290.057275 
L 89.390284 290.057275 
L 89.463561 289.946543 
L 89.574616 289.7613 
L 89.645467 289.651602 
L 89.753847 289.519138 
L 89.75646 289.519138 
L 89.815222 289.40944 
L 89.924805 289.210744 
L 89.926277 289.210744 
L 89.993458 289.101046 
L 90.103704 288.925117 
L 90.104513 288.925117 
L 90.180091 288.815419 
L 90.292867 288.647769 
L 90.374853 288.537037 
L 90.485224 288.37663 
L 90.485929 288.37663 
L 90.552238 288.265898 
L 90.662941 288.074445 
L 90.663314 288.074445 
L 90.731241 287.964748 
L 90.842296 287.735005 
L 90.917439 287.625308 
L 91.030464 287.43282 
L 91.097251 287.322088 
L 91.212785 287.101658 
L 91.295247 286.991961 
L 91.410324 286.791195 
L 91.465085 286.681497 
L 91.577986 286.501428 
L 91.65149 286.391731 
L 91.76238 286.172336 
L 91.762587 286.172336 
L 91.836382 286.061604 
L 91.944741 285.843245 
L 91.947458 285.843245 
L 92.011217 285.732512 
L 92.129654 285.551408 
L 92.190013 285.441711 
L 92.299886 285.201619 
L 92.301089 285.201619 
L 92.374863 285.090887 
L 92.489795 284.899434 
L 92.576798 284.789737 
L 92.686361 284.570342 
L 92.687854 284.570342 
L 92.746906 284.45961 
L 92.852197 284.307483 
L 92.858003 284.307483 
L 92.908637 284.196751 
L 93.035036 283.943205 
L 93.089838 283.833508 
L 93.202863 283.64102 
L 93.267099 283.531323 
L 93.378154 283.332626 
L 93.378196 283.332626 
L 93.453753 283.221894 
L 93.56458 283.005604 
L 93.564705 283.005604 
L 93.641651 282.895907 
L 93.752665 282.69928 
L 93.814911 282.589582 
L 93.925531 282.401234 
L 93.926008 282.401234 
L 93.975833 282.290502 
L 94.090289 282.121817 
L 94.15917 282.012119 
L 94.269789 281.803074 
L 94.270204 281.803074 
L 94.313084 281.692342 
L 94.423807 281.469842 
L 94.42418 281.469842 
L 94.497519 281.360145 
L 94.497519 281.35911 
L 94.617324 281.14282 
L 94.689792 281.033123 
L 94.800516 280.850984 
L 94.800889 280.850984 
L 94.860729 280.741287 
L 94.980369 280.530172 
L 95.035212 280.419439 
L 95.145728 280.221777 
L 95.146247 280.221777 
L 95.203537 280.111045 
L 95.318449 279.921662 
L 95.386666 279.811965 
L 95.499338 279.652593 
L 95.558826 279.541861 
L 95.667062 279.33385 
L 95.669882 279.33385 
L 95.730676 279.224153 
L 95.84397 279.004759 
L 95.906506 278.894027 
L 96.015426 278.708783 
L 96.017603 278.708783 
L 96.078833 278.599086 
L 96.187027 278.423156 
L 96.189909 278.423156 
L 96.235774 278.312424 
L 96.349773 278.166506 
L 96.411148 278.055774 
L 96.521395 277.878809 
L 96.522245 277.878809 
L 96.580883 277.768077 
L 96.689243 277.53109 
L 96.69198 277.53109 
L 96.746885 277.420358 
L 96.85792 277.230975 
L 96.857961 277.230975 
L 96.923296 277.120243 
L 97.033439 276.92258 
L 97.034372 276.92258 
L 97.104767 276.811848 
L 97.213997 276.599698 
L 97.215863 276.599698 
L 97.270686 276.488966 
L 97.381015 276.332699 
L 97.381762 276.332699 
L 97.436087 276.221967 
L 97.550833 276.038793 
L 97.616293 275.929096 
L 97.726871 275.732469 
L 97.727265 275.732469 
L 97.768859 275.622771 
L 97.884828 275.38061 
L 97.951511 275.269877 
L 98.066133 275.094983 
L 98.126201 274.985285 
L 98.241237 274.784519 
L 98.309372 274.674821 
L 98.420116 274.498892 
L 98.420468 274.498892 
L 98.487338 274.389195 
L 98.487338 274.38816 
L 98.599948 274.233963 
L 98.646581 274.123231 
L 98.756309 273.940057 
L 98.757677 273.940057 
L 98.821686 273.83036 
L 98.936722 273.633732 
L 98.994199 273.523 
L 99.102061 273.333617 
L 99.105295 273.333617 
L 99.171356 273.22392 
L 99.288466 273.025223 
L 99.342501 272.917596 
L 99.342501 272.915526 
L 99.456002 272.669224 
L 99.512131 272.558492 
L 99.627147 272.3629 
L 99.696131 272.253203 
L 99.806876 272.062785 
L 99.807228 272.062785 
L 99.867317 271.952053 
L 99.977875 271.739902 
L 99.978414 271.739902 
L 100.057206 271.62917 
L 100.177882 271.392183 
L 100.250309 271.281451 
L 100.359933 271.081719 
L 100.361405 271.081719 
L 100.424169 270.972021 
L 100.535204 270.754697 
L 100.535245 270.754697 
L 100.601721 270.644999 
L 100.714476 270.477349 
L 100.787608 270.366617 
L 100.902437 270.175164 
L 100.961531 270.064432 
L 101.076754 269.856421 
L 101.139456 269.748794 
L 101.250138 269.548027 
L 101.250532 269.548027 
L 101.325488 269.43833 
L 101.436377 269.237563 
L 101.436522 269.237563 
L 101.486265 269.126831 
L 101.603789 268.968494 
L 101.662489 268.857762 
L 101.771699 268.639402 
L 101.773586 268.639402 
L 101.84029 268.529705 
L 101.949935 268.31859 
L 101.951366 268.31859 
L 102.013549 268.207857 
L 102.12419 268.010195 
L 102.124646 268.010195 
L 102.173352 267.900498 
L 102.284386 267.71422 
L 102.362224 267.603488 
L 102.471413 267.385128 
L 102.473321 267.385128 
L 102.54299 267.274396 
L 102.651826 267.087083 
L 102.654086 267.087083 
L 102.711833 266.97635 
L 102.822909 266.76627 
L 102.884968 266.656573 
L 103.000958 266.412341 
L 103.062395 266.301609 
L 103.173429 266.07911 
L 103.173491 266.07911 
L 103.240631 265.969412 
L 103.356517 265.73139 
L 103.419779 265.620658 
L 103.534566 265.437484 
L 103.615577 265.327787 
L 103.728892 265.102183 
L 103.796902 264.992486 
L 103.907791 264.797928 
L 103.907936 264.797928 
L 103.975469 264.687196 
L 104.089925 264.520581 
L 104.141762 264.410883 
L 104.25147 264.216326 
L 104.252817 264.216326 
L 104.310709 264.105594 
L 104.420748 263.928629 
L 104.421805 263.928629 
L 104.482081 263.817897 
L 104.593157 263.593328 
L 104.674707 263.483631 
L 104.787587 263.284934 
L 104.853731 263.174202 
L 104.968684 262.982749 
L 105.031489 262.873052 
L 105.147293 262.639169 
L 105.210078 262.529472 
L 105.322605 262.380449 
L 105.389081 262.269717 
L 105.507994 262.076194 
L 105.588735 261.966497 
L 105.701201 261.817475 
L 105.778064 261.707777 
L 105.893308 261.500801 
L 105.957358 261.390069 
L 106.081953 261.16757 
L 106.156535 261.056838 
L 106.265538 260.871594 
L 106.267611 260.871594 
L 106.33334 260.761897 
L 106.4434 260.596316 
L 106.444437 260.596316 
L 106.502536 260.485584 
L 106.611704 260.314829 
L 106.613633 260.314829 
L 106.687821 260.205132 
L 106.798421 260.033342 
L 106.798918 260.033342 
L 106.861164 259.923644 
L 106.968736 259.745645 
L 106.97224 259.745645 
L 107.044708 259.634913 
L 107.159081 259.472437 
L 107.226468 259.361705 
L 107.337233 259.180601 
L 107.337441 259.180601 
L 107.406321 259.069869 
L 107.512691 258.905323 
L 107.517418 258.905323 
L 107.57645 258.795625 
L 107.689205 258.623835 
L 107.759393 258.514138 
L 107.870137 258.346488 
L 107.870427 258.346488 
L 107.96645 258.23679 
L 108.076199 258.085698 
L 108.077505 258.085698 
L 108.149662 257.976001 
L 108.149662 257.974966 
L 108.268845 257.775234 
L 108.365303 257.665537 
L 108.475093 257.479258 
L 108.476379 257.479258 
L 108.556083 257.368526 
L 108.678646 257.181213 
L 108.742862 257.070481 
L 108.853917 256.916284 
L 108.853938 256.916284 
L 108.938722 256.805552 
L 109.049653 256.655494 
L 109.049777 256.655494 
L 109.129876 256.545797 
L 109.240599 256.355379 
L 109.240889 256.355379 
L 109.310309 256.244647 
L 109.42039 256.096659 
L 109.421364 256.096659 
L 109.495947 255.985927 
L 109.602876 255.864846 
L 109.607023 255.864846 
L 109.685546 255.755148 
L 109.796456 255.583358 
L 109.796642 255.583358 
L 109.853227 255.472626 
L 109.971312 255.299801 
L 110.043676 255.190104 
L 110.043676 255.189069 
L 110.169785 255.005895 
L 110.249758 254.895163 
L 110.359445 254.734757 
L 110.360855 254.734757 
L 110.426294 254.624025 
L 110.537163 254.461549 
L 110.53737 254.461549 
L 110.605981 254.352886 
L 110.605981 254.350817 
L 110.71967 254.221457 
L 110.799001 254.111759 
L 110.90707 253.973085 
L 110.910098 253.973085 
L 111.002429 253.862353 
L 111.120182 253.697807 
L 111.197668 253.58811 
L 111.197668 253.587075 
L 111.312186 253.41632 
L 111.410758 253.306623 
L 111.524862 253.1576 
L 111.648316 253.046868 
L 111.766919 252.861624 
L 111.829766 252.751927 
L 111.829766 252.750892 
L 111.943558 252.617393 
L 112.026124 252.507696 
L 112.139107 252.315208 
L 112.238012 252.205511 
L 112.346849 252.048209 
L 112.349088 252.048209 
L 112.438558 251.937477 
L 112.543062 251.795698 
L 112.549634 251.795698 
L 112.638483 251.686001 
L 112.749289 251.530769 
L 112.749559 251.530769 
L 112.845561 251.420037 
L 112.955662 251.257561 
L 112.956595 251.257561 
L 113.052431 251.149933 
L 113.161993 250.994701 
L 113.163528 250.994701 
L 113.253081 250.883969 
L 113.370336 250.731842 
L 113.478965 250.62111 
L 113.589544 250.475192 
L 113.590062 250.475192 
L 113.667755 250.364459 
L 113.777628 250.201983 
L 113.778831 250.201983 
L 113.855985 250.091251 
L 113.965775 249.959821 
L 113.967082 249.959821 
L 114.052239 249.849089 
L 114.162817 249.703171 
L 114.163274 249.703171 
L 114.244823 249.593474 
L 114.358678 249.4548 
L 114.438382 249.345103 
L 114.552693 249.183662 
L 114.633558 249.072929 
L 114.758174 248.908384 
L 114.831471 248.798686 
L 114.94178 248.614478 
L 114.942506 248.614478 
L 115.016238 248.503746 
L 115.143985 248.299874 
L 115.203701 248.190177 
L 115.203701 248.189142 
L 115.322076 248.008038 
L 115.411422 247.897306 
L 115.525297 247.759667 
L 115.610807 247.648935 
L 115.72151 247.490598 
L 115.721841 247.490598 
L 115.793542 247.380901 
L 115.902213 247.238087 
L 115.904618 247.238087 
L 115.992367 247.127355 
L 116.102593 246.977298 
L 116.103423 246.977298 
L 116.195153 246.866566 
L 116.298246 246.726857 
L 116.30625 246.726857 
L 116.389375 246.616125 
L 116.499809 246.476416 
L 116.500451 246.476416 
L 116.586272 246.366719 
L 116.698779 246.223905 
L 116.754846 246.113173 
L 116.865134 245.950697 
L 116.865942 245.950697 
L 116.950188 245.839965 
L 117.060704 245.702326 
L 117.061284 245.702326 
L 117.13058 245.591594 
L 117.240847 245.451885 
L 117.241594 245.451885 
L 117.327767 245.341153 
L 117.438594 245.164188 
L 117.438843 245.164188 
L 117.543035 245.053456 
L 117.656454 244.938585 
L 117.741798 244.828887 
L 117.852854 244.679865 
L 117.921112 244.570167 
L 118.031152 244.412866 
L 118.032188 244.412866 
L 118.148407 244.28661 
L 118.218386 244.176913 
L 118.218386 244.175878 
L 118.332013 244.046518 
L 118.420902 243.935786 
L 118.542076 243.77124 
L 118.618421 243.660508 
L 118.732794 243.498032 
L 118.798917 243.3873 
L 118.908563 243.280707 
L 118.909993 243.280707 
L 119.002201 243.169975 
L 119.110871 243.013708 
L 119.113214 243.013708 
L 119.199118 242.902976 
L 119.30837 242.771546 
L 119.310215 242.771546 
L 119.389111 242.660814 
L 119.506117 242.514896 
L 119.609915 242.404164 
L 119.723769 242.266525 
L 119.834908 242.156828 
L 119.950649 242.003665 
L 120.053763 241.893968 
L 120.164776 241.754259 
L 120.164818 241.754259 
L 120.240209 241.643527 
L 120.350477 241.504853 
L 120.351223 241.504853 
L 120.415314 241.394121 
L 120.529106 241.260622 
L 120.624942 241.150924 
L 120.739585 240.974995 
L 120.860655 240.864263 
L 120.974406 240.730763 
L 121.065079 240.620031 
L 121.181877 240.478252 
L 121.272115 240.368555 
L 121.385886 240.227812 
L 121.480478 240.118114 
L 121.595618 239.98565 
L 121.69558 239.875952 
L 121.805578 239.760046 
L 121.806677 239.760046 
L 121.894074 239.649314 
L 122.019104 239.515814 
L 122.116765 239.405082 
L 122.224295 239.281931 
L 122.227862 239.281931 
L 122.351752 239.172234 
L 122.459718 239.054258 
L 122.462807 239.054258 
L 122.561338 238.944561 
L 122.670735 238.836933 
L 122.672435 238.836933 
L 122.775901 238.727236 
L 122.885256 238.596841 
L 122.886977 238.596841 
L 122.991709 238.486109 
L 123.111866 238.338121 
L 123.241085 238.227389 
L 123.357345 238.100099 
L 123.471925 237.989366 
L 123.578419 237.857937 
L 123.58296 237.857937 
L 123.672637 237.747205 
L 123.786678 237.601287 
L 123.933833 237.491589 
L 124.041322 237.392241 
L 124.044909 237.392241 
L 124.161998 237.281509 
L 124.270793 237.158358 
L 124.273074 237.158358 
L 124.374052 237.048661 
L 124.484278 236.932754 
L 124.485107 236.932754 
L 124.581026 236.822022 
L 124.687582 236.727848 
L 124.692123 236.727848 
L 124.792582 236.618151 
L 124.903575 236.487756 
L 124.903658 236.487756 
L 125.028668 236.377024 
L 125.139371 236.253873 
L 125.139723 236.253873 
L 125.227887 236.143141 
L 125.337719 236.011711 
L 125.33888 236.011711 
L 125.455617 235.900979 
L 125.564205 235.802665 
L 125.566693 235.802665 
L 125.693299 235.692968 
L 125.803401 235.572922 
L 125.804375 235.572922 
L 125.919453 235.463225 
L 126.031752 235.343179 
L 126.125204 235.233481 
L 126.232091 235.092738 
L 126.23628 235.092738 
L 126.332323 234.982006 
L 126.446157 234.844367 
L 126.550971 234.734669 
L 126.657153 234.635321 
L 126.662026 234.635321 
L 126.758152 234.525624 
L 126.869104 234.38281 
L 126.869207 234.38281 
L 126.981528 234.272078 
L 127.096813 234.169625 
L 127.221511 234.058893 
L 127.335345 233.923324 
L 127.417931 233.813626 
L 127.417931 233.812591 
L 127.534398 233.679092 
L 127.635086 233.569395 
L 127.744856 233.453488 
L 127.746183 233.453488 
L 127.825846 233.343791 
L 127.938187 233.217536 
L 128.046111 233.106803 
L 128.159634 232.985723 
L 128.275126 232.876025 
L 128.387571 232.741491 
L 128.475133 232.630759 
L 128.588843 232.499329 
L 128.701018 232.389632 
L 128.813317 232.261307 
L 128.906519 232.150574 
L 129.016538 232.031563 
L 129.017616 232.031563 
L 129.134664 231.921866 
L 129.247979 231.812169 
L 129.339129 231.701437 
L 129.445187 231.584495 
L 129.450205 231.584495 
L 129.549587 231.473763 
L 129.660538 231.350612 
L 129.756291 231.240915 
L 129.858285 231.135357 
L 129.867346 231.135357 
L 129.978961 231.024625 
L 130.089643 230.895265 
L 130.090037 230.895265 
L 130.206359 230.784533 
L 130.322225 230.667592 
L 130.416236 230.557894 
L 130.524223 230.435779 
L 130.527188 230.435779 
L 130.612739 230.326081 
L 130.612739 230.325046 
L 130.728916 230.199826 
L 130.832693 230.089094 
L 130.946361 229.961804 
L 131.05018 229.852106 
L 131.160302 229.721712 
L 131.161256 229.721712 
L 131.271502 229.610979 
L 131.390789 229.47748 
L 131.505888 229.366748 
L 131.615699 229.222899 
L 131.616964 229.222899 
L 131.73285 229.113202 
L 131.841086 228.953831 
L 131.843947 228.953831 
L 131.973954 228.843099 
L 132.084159 228.70546 
L 132.08503 228.70546 
L 132.174956 228.595762 
L 132.287318 228.465367 
L 132.385103 228.354635 
L 132.496013 228.237694 
L 132.4962 228.237694 
L 132.632219 228.127997 
L 132.632219 228.126962 
L 132.755798 228.007951 
L 132.857668 227.898253 
L 132.965945 227.782347 
L 132.968744 227.782347 
L 133.060765 227.672649 
L 133.171011 227.554673 
L 133.171862 227.554673 
L 133.26409 227.443941 
L 133.371972 227.316651 
L 133.375186 227.316651 
L 133.494556 227.205919 
L 133.603414 227.082768 
L 133.605549 227.082768 
L 133.702277 226.972036 
L 133.819283 226.826118 
L 133.905332 226.716421 
L 133.905332 226.715386 
L 134.019249 226.575677 
L 134.126551 226.464945 
L 134.236196 226.304538 
L 134.237627 226.304538 
L 134.331576 226.194841 
L 134.441864 226.056167 
L 134.44261 226.056167 
L 134.5315 225.94647 
L 134.644919 225.830563 
L 134.729061 225.719831 
L 134.837897 225.609099 
L 134.840158 225.609099 
L 134.947128 225.499402 
L 135.058204 225.34624 
L 135.161629 225.236542 
L 135.272145 225.120636 
L 135.272684 225.120636 
L 135.376648 225.009904 
L 135.494007 224.855707 
L 135.597038 224.746009 
L 135.709378 224.621824 
L 135.813031 224.511092 
L 135.926678 224.377592 
L 136.020296 224.26686 
L 136.128801 224.149919 
L 136.131392 224.149919 
L 136.234838 224.039186 
L 136.350372 223.930524 
L 136.462982 223.820827 
L 136.565412 223.70906 
L 136.574037 223.70906 
L 136.656458 223.598328 
L 136.766456 223.489665 
L 136.767534 223.489665 
L 136.875002 223.379968 
L 136.982097 223.264061 
L 136.986078 223.264061 
L 137.092447 223.154364 
L 137.202507 223.007411 
L 137.203502 223.007411 
L 137.28443 222.897714 
L 137.395257 222.802505 
L 137.395465 222.802505 
L 137.504965 222.692808 
L 137.617098 222.58932 
L 137.705822 222.479623 
L 137.815343 222.361646 
L 137.816919 222.361646 
L 137.930607 222.251949 
L 138.04442 222.117415 
L 138.136628 222.006682 
L 138.257739 221.885601 
L 138.381899 221.774869 
L 138.490736 221.662067 
L 138.492975 221.662067 
L 138.608011 221.55237 
L 138.714339 221.446812 
L 138.719108 221.446812 
L 138.830308 221.33608 
L 138.948247 221.225348 
L 139.074149 221.114616 
L 139.184333 221.014233 
L 139.185245 221.014233 
L 139.266215 220.903501 
L 139.375611 220.786559 
L 139.37727 220.786559 
L 139.465123 220.676862 
L 139.574851 220.556816 
L 139.576199 220.556816 
L 139.683439 220.447119 
L 139.793437 220.333282 
L 139.794536 220.333282 
L 139.924024 220.22255 
L 140.033068 220.115957 
L 140.0351 220.115957 
L 140.148146 220.00626 
L 140.258848 219.898632 
L 140.259222 219.898632 
L 140.389581 219.788935 
L 140.497028 219.708214 
L 140.500615 219.708214 
L 140.594979 219.598517 
L 140.707237 219.482611 
L 140.817173 219.371878 
L 140.926756 219.2301 
L 140.928269 219.2301 
L 141.037521 219.120403 
L 141.037521 219.119368 
L 141.150732 219.012775 
L 141.252789 218.903078 
L 141.362247 218.791311 
L 141.363885 218.791311 
L 141.484168 218.680579 
L 141.594767 218.576056 
L 141.595244 218.576056 
L 141.684113 218.465324 
L 141.794567 218.338033 
L 141.795209 218.338033 
L 141.911199 218.228336 
L 142.023333 218.122778 
L 142.14347 218.012046 
L 142.2589 217.942709 
L 142.396247 217.833012 
L 142.506742 217.708826 
L 142.507323 217.708826 
L 142.632042 217.598094 
L 142.741377 217.50392 
L 142.743139 217.50392 
L 142.876526 217.393188 
L 142.986482 217.278316 
L 142.987622 217.278316 
L 143.0931 217.168619 
L 143.203409 217.056852 
L 143.204134 217.056852 
L 143.297565 216.94612 
L 143.412601 216.849876 
L 143.552022 216.739144 
L 143.662351 216.618063 
L 143.663036 216.618063 
L 143.782177 216.507331 
L 143.895555 216.394529 
L 144.014697 216.283797 
L 144.128489 216.150297 
L 144.249497 216.039565 
L 144.362314 215.95367 
L 144.499641 215.843973 
L 144.612852 215.736346 
L 144.704168 215.625613 
L 144.817463 215.516951 
L 144.934718 215.407254 
L 145.048137 215.291347 
L 145.1741 215.180615 
L 145.283289 215.028488 
L 145.285155 215.028488 
L 145.396293 214.917756 
L 145.511143 214.825651 
L 145.616766 214.718024 
L 145.616766 214.715954 
L 145.728982 214.602117 
L 145.830645 214.49242 
L 145.93635 214.359955 
L 145.941721 214.359955 
L 146.042678 214.250258 
L 146.14857 214.177817 
L 146.153754 214.177817 
L 146.271901 214.067084 
L 146.382728 213.97498 
L 146.382977 213.97498 
L 146.52248 213.865283 
L 146.635712 213.759725 
L 146.771608 213.648993 
L 146.88258 213.538261 
L 146.882684 213.538261 
L 146.952912 213.427529 
L 147.063719 213.349913 
L 147.063947 213.349913 
L 147.178755 213.239181 
L 147.28923 213.147076 
L 147.289831 213.147076 
L 147.382722 213.037379 
L 147.491621 212.921472 
L 147.493778 212.921472 
L 147.612443 212.811775 
L 147.727458 212.68345 
L 147.828436 212.573753 
L 147.940528 212.472335 
L 148.046006 212.362637 
L 148.155464 212.263289 
L 148.157103 212.263289 
L 148.294885 212.152557 
L 148.405442 212.052173 
L 148.405899 212.052173 
L 148.557283 211.941441 
L 148.673356 211.818291 
L 148.779891 211.707558 
L 148.886903 211.582338 
L 148.890926 211.582338 
L 149.005257 211.471606 
L 149.112953 211.375362 
L 149.116271 211.375362 
L 149.235765 211.26463 
L 149.345949 211.164246 
L 149.346654 211.164246 
L 149.43544 211.053514 
L 149.551223 210.938643 
L 149.667877 210.827911 
L 149.777584 210.746155 
L 149.778973 210.746155 
L 149.892081 210.635423 
L 150.005936 210.497784 
L 150.136461 210.388087 
L 150.246479 210.27011 
L 150.247558 210.27011 
L 150.363527 210.160413 
L 150.467429 210.077623 
L 150.474624 210.077623 
L 150.597912 209.967925 
L 150.707599 209.862368 
L 150.708947 209.862368 
L 150.814196 209.75267 
L 150.926309 209.647113 
L 151.042673 209.536381 
L 151.155656 209.442206 
L 151.279111 209.332509 
L 151.388777 209.2373 
L 151.390207 209.2373 
L 151.488656 209.126568 
L 151.599006 209.032394 
L 151.599753 209.032394 
L 151.688788 208.921662 
L 151.802041 208.813 
L 151.897566 208.703302 
L 151.897566 208.702267 
L 152.014095 208.614303 
L 152.119303 208.50357 
L 152.232722 208.388699 
L 152.372536 208.277967 
L 152.487407 208.185862 
L 152.625541 208.076165 
L 152.728386 207.980956 
L 152.736638 207.980956 
L 152.86453 207.871259 
L 152.86453 207.870224 
L 152.979317 207.780189 
L 153.069348 207.669457 
L 153.18287 207.548376 
L 153.301639 207.437644 
L 153.412715 207.328982 
L 153.552197 207.21825 
L 153.66261 207.117866 
L 153.663273 207.117866 
L 153.796846 207.007134 
L 153.898571 206.91296 
L 153.907943 206.91296 
L 154.063433 206.803263 
L 154.177826 206.722542 
L 154.305843 206.612845 
L 154.41779 206.525915 
L 154.548149 206.416218 
L 154.656861 206.318939 
L 154.659204 206.318939 
L 154.771835 206.209242 
L 154.880692 206.114033 
L 154.88289 206.114033 
L 155.029796 206.003301 
L 155.14278 205.909127 
L 155.299555 205.798395 
L 155.412144 205.724918 
L 155.506301 205.617291 
L 155.506301 205.614186 
L 155.619347 205.517942 
L 155.749975 205.40721 
L 155.863581 205.27992 
L 155.988715 205.170223 
L 156.101554 205.077083 
L 156.264612 204.966351 
L 156.375169 204.84527 
L 156.375605 204.84527 
L 156.514175 204.735573 
L 156.62496 204.648643 
L 156.625251 204.648643 
L 156.742879 204.537911 
L 156.851881 204.441667 
L 156.853976 204.441667 
L 156.962626 204.33197 
L 157.072976 204.234691 
L 157.073702 204.234691 
L 157.194627 204.124994 
L 157.306739 204.023576 
L 157.44222 203.912844 
L 157.552114 203.797972 
L 157.553296 203.797972 
L 157.667399 203.68724 
L 157.778268 203.584787 
L 157.778496 203.584787 
L 157.913438 203.475089 
L 158.023974 203.377811 
L 158.024493 203.377811 
L 158.141644 203.268113 
L 158.250025 203.152207 
L 158.25272 203.152207 
L 158.373044 203.041475 
L 158.481196 202.914184 
L 158.48412 202.914184 
L 158.620036 202.803452 
L 158.740173 202.69479 
L 158.883678 202.585093 
L 158.990586 202.475395 
L 158.994712 202.475395 
L 159.147196 202.365698 
L 159.251139 202.274629 
L 159.258272 202.274629 
L 159.378409 202.163897 
L 159.481336 202.086281 
L 159.489464 202.086281 
L 159.613831 201.975548 
L 159.732952 201.879305 
L 159.840793 201.768573 
L 159.946437 201.668189 
L 159.951869 201.668189 
L 160.067528 201.557457 
L 160.172756 201.467422 
L 160.178604 201.467422 
L 160.300151 201.35669 
L 160.406955 201.248028 
L 160.411227 201.248028 
L 160.536568 201.137296 
L 160.645902 201.05968 
L 160.647665 201.05968 
L 160.744351 200.949983 
L 160.744351 200.948948 
L 160.859553 200.848564 
L 160.963123 200.738867 
L 161.075256 200.633309 
L 161.185441 200.522577 
L 161.298735 200.411845 
L 161.44929 200.301113 
L 161.558645 200.211078 
L 161.560346 200.211078 
L 161.682349 200.100346 
L 161.799127 199.960637 
L 161.910431 199.85094 
L 162.020511 199.735034 
L 162.021527 199.735034 
L 162.115166 199.625336 
L 162.228336 199.521848 
L 162.346524 199.412151 
L 162.448331 199.319012 
L 162.45762 199.319012 
L 162.583397 199.20828 
L 162.693685 199.105827 
L 162.694473 199.105827 
L 162.852348 198.996129 
L 162.960832 198.894711 
L 162.963423 198.894711 
L 163.100625 198.783979 
L 163.213692 198.6867 
L 163.323752 198.575968 
L 163.430971 198.457992 
L 163.434848 198.457992 
L 163.520504 198.350364 
L 163.630895 198.238597 
L 163.6316 198.238597 
L 163.757356 198.1289 
L 163.866297 197.994366 
L 163.868453 197.994366 
L 164.012746 197.883634 
L 164.125896 197.781181 
L 164.239833 197.670448 
L 164.350328 197.596972 
L 164.350867 197.596972 
L 164.466256 197.487275 
L 164.574201 197.365159 
L 164.577291 197.365159 
L 164.691021 197.254427 
L 164.80867 197.147834 
L 164.910456 197.037102 
L 165.01865 196.92844 
L 165.021532 196.92844 
L 165.105902 196.817707 
L 165.218803 196.725603 
L 165.312524 196.615906 
L 165.42586 196.49793 
L 165.541746 196.388232 
L 165.656969 196.251628 
L 165.74899 196.140896 
L 165.859651 196.028094 
L 165.860087 196.028094 
L 165.965129 195.918397 
L 166.076184 195.80456 
L 166.15734 195.694863 
L 166.271858 195.583096 
L 166.395333 195.472364 
L 166.509353 195.326446 
L 166.630299 195.215713 
L 166.736834 195.084284 
L 166.741396 195.084284 
L 166.847889 194.974586 
L 166.961661 194.842122 
L 167.082109 194.732425 
L 167.195258 194.628937 
L 167.303991 194.519239 
L 167.416332 194.395054 
L 167.530746 194.284322 
L 167.644538 194.146683 
L 167.752463 194.03595 
L 167.863311 193.91487 
L 167.863539 193.91487 
L 167.956721 193.804137 
L 168.072939 193.676847 
L 168.204667 193.566115 
L 168.312757 193.451243 
L 168.315743 193.451243 
L 168.414398 193.340511 
L 168.528605 193.264965 
L 168.657492 193.155268 
L 168.764795 193.04764 
L 168.768589 193.04764 
L 168.897165 192.937943 
L 168.897165 192.936908 
L 169.010045 192.846874 
L 169.133728 192.737176 
L 169.244783 192.620235 
L 169.388993 192.509503 
L 169.498949 192.399805 
L 169.50009 192.399805 
L 169.632564 192.290108 
L 169.74109 192.167992 
L 169.74364 192.167992 
L 169.834541 192.058295 
L 169.946674 191.950668 
L 170.074463 191.84097 
L 170.187923 191.722994 
L 170.285998 191.613297 
L 170.398173 191.50153 
L 170.546572 191.390798 
L 170.665009 191.271786 
L 170.789604 191.161054 
L 170.898378 191.060671 
L 170.900659 191.060671 
L 171.041261 190.949939 
L 171.152358 190.870253 
L 171.297605 190.759521 
L 171.408432 190.673626 
L 171.408701 190.673626 
L 171.512188 190.563929 
L 171.62428 190.458371 
L 171.741245 190.347639 
L 171.851657 190.230697 
L 171.852342 190.230697 
L 171.964496 190.121 
L 172.073478 189.996814 
L 172.075593 189.996814 
L 172.194568 189.886082 
L 172.307863 189.77535 
L 172.419022 189.665653 
L 172.530056 189.572514 
L 172.530119 189.572514 
L 172.676216 189.461782 
L 172.781278 189.367608 
L 172.787312 189.367608 
L 172.891546 189.256875 
L 173.000797 189.146143 
L 173.002601 189.146143 
L 173.089148 189.035411 
L 173.200224 188.937098 
L 173.33784 188.826365 
L 173.447133 188.717703 
L 173.448895 188.717703 
L 173.566918 188.606971 
L 173.677247 188.508657 
L 173.677973 188.508657 
L 173.808062 188.39896 
L 173.915966 188.287193 
L 173.919138 188.287193 
L 174.017214 188.176461 
L 174.122069 188.065729 
L 174.12829 188.065729 
L 174.323362 187.956031 
L 174.323362 187.954997 
L 174.442151 187.829776 
L 174.587046 187.719044 
L 174.696981 187.6228 
L 174.698039 187.6228 
L 174.836816 187.513103 
L 174.836816 187.512068 
L 174.953014 187.386848 
L 175.079579 187.276115 
L 175.187835 187.184011 
L 175.190675 187.184011 
L 175.353775 187.074314 
L 175.464457 186.941849 
L 175.464871 186.941849 
L 175.574828 186.831117 
L 175.682379 186.722455 
L 175.685883 186.722455 
L 175.80405 186.612757 
L 175.80405 186.611723 
L 175.917345 186.50099 
L 176.034226 186.390258 
L 176.147334 186.285735 
L 176.287626 186.176038 
L 176.398619 186.047713 
L 176.398722 186.047713 
L 176.521472 185.936981 
L 176.63429 185.844877 
L 176.741198 185.734144 
L 176.856836 185.621343 
L 177.013466 185.51061 
L 177.124106 185.391599 
L 177.124542 185.391599 
L 177.233212 185.281902 
L 177.343604 185.155647 
L 177.344288 185.155647 
L 177.488436 185.045949 
L 177.600321 184.961089 
L 177.726098 184.851392 
L 177.837112 184.726172 
L 177.837174 184.726172 
L 177.941656 184.615439 
L 178.049228 184.509882 
L 178.052732 184.509882 
L 178.176104 184.399149 
L 178.289315 184.293592 
L 178.404455 184.18286 
L 178.51661 184.075232 
L 178.609626 183.9645 
L 178.722982 183.851698 
L 178.837397 183.742001 
L 178.947892 183.619885 
L 178.948473 183.619885 
L 179.089469 183.509153 
L 179.203157 183.379793 
L 179.303576 183.269061 
L 179.414506 183.162468 
L 179.414672 183.162468 
L 179.544658 183.051736 
L 179.657372 182.97205 
L 179.764675 182.861318 
L 179.87573 182.780597 
L 179.875771 182.780597 
L 179.9889 182.678144 
L 180.130539 182.567412 
L 180.248229 182.46082 
L 180.353043 182.350087 
L 180.460366 182.245565 
L 180.464119 182.245565 
L 180.590021 182.135867 
L 180.702901 182.044798 
L 180.829175 181.934066 
L 180.939028 181.815055 
L 180.940251 181.815055 
L 181.086949 181.705357 
L 181.196885 181.601869 
L 181.198005 181.601869 
L 181.296723 181.492172 
L 181.409022 181.372126 
L 181.51029 181.261394 
L 181.620184 181.140313 
L 181.621366 181.140313 
L 181.73972 181.030616 
L 181.850775 180.922988 
L 181.850817 180.922988 
L 181.957746 180.813291 
L 182.068698 180.701524 
L 182.06878 180.701524 
L 182.174735 180.591827 
L 182.286931 180.48006 
L 182.407938 180.369327 
L 182.517605 180.277223 
L 182.519035 180.277223 
L 182.623207 180.167526 
L 182.736625 180.051619 
L 182.890871 179.941922 
L 182.999977 179.844643 
L 183.001947 179.844643 
L 183.111945 179.734946 
L 183.225157 179.629388 
L 183.34998 179.518656 
L 183.459915 179.387226 
L 183.461056 179.387226 
L 183.594401 179.276494 
L 183.709789 179.169902 
L 183.865341 179.05917 
L 183.975028 178.958786 
L 183.976417 178.958786 
L 184.095062 178.83667 
L 184.222124 178.725938 
L 184.33799 178.608997 
L 184.430861 178.4993 
L 184.430861 178.498265 
L 184.546395 178.389602 
L 184.671363 178.27887 
L 184.787788 178.14744 
L 184.881737 178.037743 
L 184.881737 178.036708 
L 184.998412 177.899069 
L 185.13016 177.788337 
L 185.246337 177.661047 
L 185.360855 177.550315 
L 185.474937 177.400257 
L 185.605566 177.289525 
L 185.724895 177.156026 
L 185.834623 177.045293 
L 185.948145 176.918003 
L 186.064032 176.808306 
L 186.172267 176.692399 
L 186.175129 176.692399 
L 186.318468 176.582702 
L 186.318468 176.581667 
L 186.433732 176.479214 
L 186.562993 176.368482 
L 186.676204 176.263959 
L 186.783444 176.154262 
L 186.896988 176.032146 
L 187.00684 175.921414 
L 187.120404 175.798263 
L 187.213337 175.687531 
L 187.328788 175.580938 
L 187.440943 175.470206 
L 187.548514 175.357404 
L 187.551998 175.357404 
L 187.663862 175.246672 
L 187.777613 175.106964 
L 187.880063 174.996231 
L 187.990641 174.897918 
L 187.991139 174.897918 
L 188.086394 174.787186 
L 188.203836 174.684733 
L 188.310474 174.574 
L 188.426423 174.454989 
L 188.51975 174.345292 
L 188.632008 174.227316 
L 188.731265 174.117618 
L 188.846426 173.983084 
L 188.933512 173.872352 
L 189.047034 173.751271 
L 189.145193 173.640539 
L 189.260478 173.538086 
L 189.368402 173.428388 
L 189.48319 173.306273 
L 189.608987 173.19554 
L 189.721452 173.128273 
L 189.80943 173.018576 
L 189.922994 172.892321 
L 190.03154 172.782623 
L 190.142637 172.662577 
L 190.266257 172.551845 
L 190.379967 172.420415 
L 190.517749 172.310718 
L 190.625425 172.182393 
L 190.628846 172.182393 
L 190.732623 172.072696 
L 190.732623 172.071661 
L 190.848489 171.95472 
L 190.980818 171.843987 
L 191.094112 171.733255 
L 191.192934 171.622523 
L 191.306187 171.515931 
L 191.414485 171.406233 
L 191.527655 171.302745 
L 191.653639 171.192013 
L 191.766996 171.077141 
L 191.884189 170.967444 
L 191.99512 170.876375 
L 191.995265 170.876375 
L 192.088447 170.766678 
L 192.088447 170.765643 
L 192.203628 170.665259 
L 192.347423 170.554527 
L 192.457338 170.412749 
L 192.458499 170.412749 
L 192.557528 170.303051 
L 192.668065 170.178866 
L 192.668625 170.178866 
L 192.763715 170.069169 
L 192.875786 169.965681 
L 192.993932 169.855983 
L 193.103184 169.717309 
L 193.105008 169.717309 
L 193.223238 169.606577 
L 193.342131 169.479287 
L 193.457831 169.368555 
L 193.566729 169.264032 
L 193.568927 169.264032 
L 193.678593 169.1533 
L 193.796304 169.046707 
L 193.892928 168.93701 
L 194.003901 168.835592 
L 194.004025 168.835592 
L 194.093806 168.725895 
L 194.205878 168.626546 
L 194.306462 168.515814 
L 194.417144 168.411291 
L 194.417517 168.411291 
L 194.525504 168.301594 
L 194.63546 168.189827 
L 194.6366 168.189827 
L 194.745395 168.080129 
L 194.858835 167.964223 
L 194.96197 167.853491 
L 195.077732 167.738619 
L 195.196645 167.627887 
L 195.306291 167.519225 
L 195.307742 167.519225 
L 195.396072 167.408492 
L 195.504432 167.324667 
L 195.507107 167.324667 
L 195.631536 167.21497 
L 195.741098 167.119761 
L 195.742612 167.119761 
L 195.861214 167.010064 
L 195.97453 166.898297 
L 196.074948 166.787565 
L 196.185547 166.683042 
L 196.186045 166.683042 
L 196.29513 166.573344 
L 196.403407 166.469856 
L 196.406206 166.469856 
L 196.5161 166.359124 
L 196.622386 166.238043 
L 196.627197 166.238043 
L 196.78588 166.127311 
L 196.903819 166.016579 
L 197.000443 165.905847 
L 197.118527 165.733022 
L 197.224461 165.623325 
L 197.335309 165.517767 
L 197.335516 165.517767 
L 197.458162 165.40807 
L 197.570565 165.277675 
L 197.700365 165.167978 
L 197.811441 165.046897 
L 197.947004 164.936165 
L 198.06061 164.809909 
L 198.17548 164.699177 
L 198.283633 164.613282 
L 198.286494 164.613282 
L 198.387099 164.503585 
L 198.497864 164.364911 
L 198.498154 164.364911 
L 198.612817 164.254179 
L 198.723582 164.147586 
L 198.723893 164.147586 
L 198.816785 164.036854 
L 198.929872 163.934401 
L 199.040036 163.824704 
L 199.151132 163.719146 
L 199.258352 163.609449 
L 199.363974 163.5101 
L 199.369428 163.5101 
L 199.50636 163.399368 
L 199.614657 163.284496 
L 199.617415 163.284496 
L 199.725567 163.173764 
L 199.841164 163.063032 
L 199.948196 162.9523 
L 200.061574 162.837428 
L 200.190959 162.727731 
L 200.190959 162.726696 
L 200.303362 162.593197 
L 200.394408 162.482465 
L 200.507661 162.375872 
L 200.619898 162.266175 
L 200.727926 162.168896 
L 200.730995 162.168896 
L 200.832885 162.059199 
L 200.940706 161.922595 
L 200.943982 161.922595 
L 201.057961 161.812897 
L 201.172624 161.694921 
L 201.274431 161.584189 
L 201.390193 161.469317 
L 201.484205 161.35962 
L 201.592958 161.262341 
L 201.595301 161.262341 
L 201.74003 161.151609 
L 201.861929 161.020179 
L 201.982564 160.910482 
L 202.100047 160.784227 
L 202.242225 160.674529 
L 202.359273 160.558623 
L 202.476196 160.447891 
L 202.586961 160.339228 
L 202.587272 160.339228 
L 202.707886 160.229531 
L 202.821719 160.092927 
L 202.923859 159.982195 
L 203.043166 159.848695 
L 203.153517 159.738998 
L 203.266334 159.652068 
L 203.354685 159.541336 
L 203.465616 159.405767 
L 203.465782 159.405767 
L 203.566884 159.295035 
L 203.674622 159.217419 
L 203.677939 159.217419 
L 203.785511 159.106687 
L 203.890346 159.002164 
L 203.896587 159.002164 
L 204.024479 158.892466 
L 204.137152 158.81485 
L 204.237176 158.704118 
L 204.34595 158.573723 
L 204.348252 158.573723 
L 204.461982 158.462991 
L 204.583467 158.337771 
L 204.681086 158.227039 
L 204.785154 158.08733 
L 204.7921 158.08733 
L 204.903362 157.977633 
L 205.016553 157.872075 
L 205.157301 157.762378 
L 205.270429 157.65889 
L 205.35708 157.549192 
L 205.466683 157.462262 
L 205.468093 157.462262 
L 205.576121 157.35153 
L 205.691738 157.240798 
L 205.783925 157.130066 
L 205.902942 157.000706 
L 206.007114 156.889974 
L 206.11792 156.739916 
L 206.11821 156.739916 
L 206.215228 156.629184 
L 206.32817 156.53708 
L 206.43344 156.427383 
L 206.546963 156.305267 
L 206.666561 156.19557 
L 206.780644 156.098291 
L 206.884317 155.988594 
L 206.997985 155.856129 
L 207.091001 155.746432 
L 207.091001 155.745397 
L 207.206245 155.642944 
L 207.307741 155.533246 
L 207.421762 155.438038 
L 207.529209 155.327305 
L 207.638315 155.212434 
L 207.640264 155.212434 
L 207.758369 155.101702 
L 207.86704 154.945435 
L 207.869466 154.945435 
L 207.977473 154.835737 
L 208.087512 154.72397 
L 208.088508 154.72397 
L 208.209453 154.613238 
L 208.31943 154.494227 
L 208.32055 154.494227 
L 208.433969 154.383495 
L 208.556055 154.249995 
L 208.672916 154.140298 
L 208.790669 154.009903 
L 208.882897 153.899171 
L 208.992355 153.77809 
L 208.993973 153.77809 
L 209.10621 153.667358 
L 209.207914 153.542138 
L 209.217307 153.542138 
L 209.31675 153.431406 
L 209.433819 153.283418 
L 209.541225 153.17372 
L 209.65145 153.064023 
L 209.652321 153.064023 
L 209.772562 152.953291 
L 209.883348 152.861187 
L 209.883617 152.861187 
L 210.007051 152.751489 
L 210.118127 152.653176 
L 210.118148 152.653176 
L 210.233661 152.544514 
L 210.320602 152.433781 
L 210.431076 152.306491 
L 210.431657 152.306491 
L 210.525585 152.195759 
L 210.639129 152.068469 
L 210.729947 151.957737 
L 210.845958 151.836656 
L 210.968313 151.725924 
L 211.081774 151.606912 
L 211.185427 151.497215 
L 211.296523 151.362681 
L 211.415562 151.251949 
L 211.526264 151.120519 
L 211.526638 151.120519 
L 211.633442 151.009787 
L 211.741242 150.896985 
L 211.744539 150.896985 
L 211.861296 150.786253 
L 211.977017 150.671381 
L 212.115774 150.560649 
L 212.243458 150.400243 
L 212.354202 150.290545 
L 212.464988 150.172569 
L 212.465278 150.172569 
L 212.566526 150.061837 
L 212.677291 149.932477 
L 212.677623 149.932477 
L 212.776071 149.821745 
L 212.890983 149.727571 
L 213.011016 149.617873 
L 213.123233 149.499897 
L 213.226119 149.3902 
L 213.340927 149.266014 
L 213.458679 149.155282 
L 213.568366 149.036271 
L 213.569693 149.036271 
L 213.666856 148.926574 
L 213.775651 148.845853 
L 213.777953 148.845853 
L 213.879304 148.736156 
L 213.879304 148.735121 
L 213.994548 148.632668 
L 214.102389 148.521936 
L 214.22122 148.396715 
L 214.344986 148.285983 
L 214.458239 148.177321 
L 214.559922 148.067623 
L 214.559922 148.066589 
L 214.677032 147.918601 
L 214.794929 147.807869 
L 214.9177 147.66609 
L 215.036074 147.555358 
L 215.150426 147.392882 
L 215.249787 147.28215 
L 215.358333 147.161069 
L 215.360884 147.161069 
L 215.461675 147.050337 
L 215.571839 146.933395 
L 215.572772 146.933395 
L 215.68024 146.822663 
L 215.790217 146.701582 
L 215.791295 146.701582 
L 215.922214 146.591885 
L 216.038516 146.46356 
L 216.163463 146.352828 
L 216.273834 146.246235 
L 216.274498 146.246235 
L 216.377798 146.135503 
L 216.488024 146.012352 
L 216.488812 146.012352 
L 216.572497 145.902655 
L 216.68602 145.780539 
L 216.760893 145.669807 
L 216.86888 145.557005 
L 216.87199 145.557005 
L 216.975871 145.446273 
L 217.091923 145.323122 
L 217.19937 145.21239 
L 217.315879 145.07889 
L 217.421356 144.969193 
L 217.53745 144.845008 
L 217.682137 144.73531 
L 217.794561 144.598706 
L 217.912065 144.489009 
L 217.912065 144.487974 
L 218.025442 144.375172 
L 218.108153 144.265475 
L 218.223293 144.166126 
L 218.332772 144.055394 
L 218.452598 143.950871 
L 218.568858 143.841174 
L 218.568858 143.840139 
L 218.682816 143.698361 
L 218.787775 143.588663 
L 218.89993 143.483106 
L 219.003189 143.373408 
L 219.003189 143.372374 
L 219.122476 143.27406 
L 219.231561 143.164363 
L 219.343902 143.036038 
L 219.462421 142.92634 
L 219.574431 142.833201 
L 219.686937 142.722469 
L 219.805146 142.607597 
L 219.918959 142.496865 
L 220.029724 142.379924 
L 220.030056 142.379924 
L 220.138726 142.269192 
L 220.255401 142.129483 
L 220.352253 142.019786 
L 220.465526 141.910088 
L 220.548175 141.800391 
L 220.548175 141.799356 
L 220.658069 141.672066 
L 220.659272 141.672066 
L 220.780487 141.561334 
L 220.890298 141.46302 
L 220.891584 141.46302 
L 220.988498 141.352288 
L 221.101834 141.241556 
L 221.198644 141.130824 
L 221.304661 141.024231 
L 221.309741 141.024231 
L 221.405847 140.914534 
L 221.513729 140.817255 
L 221.516943 140.817255 
L 221.615122 140.707558 
L 221.727069 140.612349 
L 221.852369 140.502652 
L 221.965726 140.386745 
L 222.08155 140.277048 
L 222.193808 140.157002 
L 222.28164 140.047305 
L 222.28164 140.04627 
L 222.3979 139.91898 
L 222.523428 139.809282 
L 222.635624 139.697515 
L 222.773385 139.587818 
L 222.883756 139.424307 
L 222.88442 139.424307 
L 223.025105 139.313575 
L 223.138441 139.202843 
L 223.249745 139.092111 
L 223.363185 138.975169 
L 223.47679 138.865472 
L 223.584818 138.755775 
L 223.587783 138.755775 
L 223.695334 138.645043 
L 223.804814 138.569496 
L 223.806431 138.569496 
L 223.908716 138.459799 
L 224.021036 138.333544 
L 224.145568 138.222812 
L 224.269023 138.072754 
L 224.3931 137.963057 
L 224.504134 137.820243 
L 224.504196 137.820243 
L 224.600136 137.709511 
L 224.711212 137.597744 
L 224.711233 137.597744 
L 224.831556 137.447687 
L 224.927164 137.337989 
L 224.927164 137.336954 
L 225.042926 137.220013 
L 225.158771 137.109281 
L 225.272646 136.971642 
L 225.368005 136.861945 
L 225.470435 136.758457 
L 225.479102 136.758457 
L 225.588975 136.648759 
L 225.703659 136.530783 
L 225.78438 136.420051 
L 225.900971 136.284482 
L 226.02482 136.174784 
L 226.135108 136.071296 
L 226.135896 136.071296 
L 226.245541 135.960564 
L 226.359064 135.837414 
L 226.487764 135.727716 
L 226.602551 135.603531 
L 226.700046 135.492799 
L 226.810314 135.382066 
L 226.81106 135.382066 
L 226.906564 135.272369 
L 227.01708 135.152323 
L 227.017661 135.152323 
L 227.120401 135.042626 
L 227.231249 134.912231 
L 227.231457 134.912231 
L 227.367331 134.802534 
L 227.477951 134.684557 
L 227.478428 134.684557 
L 227.570967 134.57486 
L 227.68337 134.444465 
L 227.774271 134.333733 
L 227.897021 134.191955 
L 228.006791 134.082257 
L 228.006791 134.081223 
L 228.119712 133.989118 
L 228.260998 133.879421 
L 228.260998 133.878386 
L 228.380202 133.746956 
L 228.487982 133.637259 
L 228.600405 133.500655 
L 228.714571 133.389923 
L 228.82828 133.260563 
L 228.924178 133.149831 
L 229.031128 133.016331 
L 229.035275 133.016331 
L 229.153463 132.906634 
L 229.153463 132.905599 
L 229.270054 132.77003 
L 229.382768 132.659298 
L 229.501205 132.540286 
L 229.594117 132.430589 
L 229.594117 132.429554 
L 229.707578 132.306404 
L 229.823838 132.196706 
L 229.941486 132.035265 
L 230.056419 131.925568 
L 230.167308 131.788964 
L 230.167474 131.788964 
L 230.255929 131.679266 
L 230.368 131.577848 
L 230.523158 131.468151 
L 230.634006 131.319128 
L 230.634192 131.319128 
L 230.752774 131.209431 
L 230.863249 131.062478 
L 230.86383 131.062478 
L 230.976668 130.952781 
L 231.087723 130.843084 
L 231.206906 130.735456 
L 231.317464 130.621619 
L 231.318003 130.621619 
L 231.401606 130.511922 
L 231.517223 130.400155 
L 231.61565 130.289423 
L 231.729256 130.164202 
L 231.848377 130.05347 
L 231.966337 129.942738 
L 232.067937 129.833041 
L 232.181563 129.704716 
L 232.273522 129.595018 
L 232.385821 129.472903 
L 232.499489 129.363205 
L 232.611353 129.249369 
L 232.732133 129.139671 
L 232.844453 129.009276 
L 232.946965 128.899579 
L 233.058062 128.781603 
L 233.156801 128.671906 
L 233.156801 128.670871 
L 233.270344 128.54565 
L 233.360063 128.435953 
L 233.473856 128.299349 
L 233.575145 128.188617 
L 233.691011 128.071675 
L 233.801319 127.960943 
L 233.909202 127.852281 
L 233.912395 127.852281 
L 234.033528 127.741549 
L 234.14705 127.620468 
L 234.254995 127.509736 
L 234.365802 127.390724 
L 234.366092 127.390724 
L 234.463089 127.281027 
L 234.576923 127.145458 
L 234.692519 127.034726 
L 234.794264 126.925029 
L 234.904635 126.802913 
L 234.905361 126.802913 
L 235.025705 126.693215 
L 235.025705 126.692181 
L 235.1548 126.548332 
L 235.261791 126.438635 
L 235.371374 126.316519 
L 235.372888 126.316519 
L 235.470341 126.206822 
L 235.580816 126.109543 
L 235.581417 126.109543 
L 235.694131 125.999846 
L 235.804025 125.863242 
L 235.805145 125.863242 
L 235.898223 125.75251 
L 236.009299 125.625219 
L 236.13153 125.515522 
L 236.242585 125.366499 
L 236.242627 125.366499 
L 236.353454 125.255767 
L 236.461544 125.122268 
L 236.46453 125.122268 
L 236.558541 125.012571 
L 236.671027 124.869757 
L 236.806985 124.759025 
L 236.923307 124.629665 
L 237.05887 124.518933 
L 237.172206 124.404061 
L 237.273205 124.294364 
L 237.39272 124.15776 
L 237.508876 124.048063 
L 237.616967 123.944575 
L 237.619952 123.944575 
L 237.708407 123.833842 
L 237.822282 123.696203 
L 237.932197 123.586506 
L 238.047171 123.458181 
L 238.158578 123.348484 
L 238.268348 123.247066 
L 238.269654 123.247066 
L 238.406317 123.136333 
L 238.519757 123.019392 
L 238.636618 122.90866 
L 238.747258 122.785509 
L 238.747714 122.785509 
L 238.844131 122.675812 
L 238.956389 122.557836 
L 239.061037 122.447103 
L 239.170848 122.313604 
L 239.171989 122.313604 
L 239.294137 122.203907 
L 239.403077 122.088 
L 239.405171 122.088 
L 239.499411 121.977268 
L 239.608704 121.878954 
L 239.610487 121.878954 
L 239.6989 121.769257 
L 239.809043 121.65542 
L 239.809955 121.65542 
L 239.92468 121.545723 
L 240.038037 121.431886 
L 240.132048 121.322189 
L 240.247914 121.204213 
L 240.324861 121.094516 
L 240.437989 120.993097 
L 240.546722 120.882365 
L 240.659084 120.757145 
L 240.77806 120.647447 
L 240.892121 120.500495 
L 240.983333 120.389762 
L 241.089164 120.268681 
L 241.09443 120.268681 
L 241.184958 120.157949 
L 241.293608 120.032729 
L 241.296055 120.032729 
L 241.406529 119.923032 
L 241.518725 119.811265 
L 241.637805 119.701567 
L 241.748341 119.573242 
L 241.74886 119.573242 
L 241.83918 119.463545 
L 241.948888 119.320732 
L 241.950277 119.320732 
L 242.061415 119.211034 
L 242.174938 119.090988 
L 242.273221 118.980256 
L 242.384151 118.845722 
L 242.384276 118.845722 
L 242.476898 118.73499 
L 242.590752 118.598385 
L 242.681881 118.488688 
L 242.794409 118.343805 
L 242.903017 118.233073 
L 243.014052 118.120271 
L 243.014093 118.120271 
L 243.126932 118.009539 
L 243.236204 117.900876 
L 243.237987 117.900876 
L 243.356196 117.790144 
L 243.472891 117.652505 
L 243.580774 117.541773 
L 243.703585 117.399995 
L 243.806844 117.290297 
L 243.916179 117.170251 
L 243.917941 117.170251 
L 244.01921 117.059519 
L 244.132857 116.932229 
L 244.219175 116.822532 
L 244.331537 116.692137 
L 244.462083 116.581405 
L 244.575751 116.452045 
L 244.697878 116.341313 
L 244.800598 116.240929 
L 244.808975 116.240929 
L 244.909269 116.131232 
L 245.021485 116.017395 
L 245.127626 115.906663 
L 245.240589 115.814559 
L 245.39104 115.703827 
L 245.504127 115.605513 
L 245.593577 115.495816 
L 245.704487 115.350933 
L 245.704632 115.350933 
L 245.817263 115.241235 
L 245.927551 115.121189 
L 245.92836 115.121189 
L 246.039167 115.011492 
L 246.148086 114.893516 
L 246.150263 114.893516 
L 246.262314 114.783818 
L 246.371876 114.651354 
L 246.373369 114.651354 
L 246.483781 114.540622 
L 246.593841 114.429889 
L 246.594857 114.429889 
L 246.714124 114.320192 
L 246.827439 114.210495 
L 246.95137 114.099763 
L 247.064852 113.976612 
L 247.189675 113.86588 
L 247.299984 113.771706 
L 247.300751 113.771706 
L 247.398453 113.662009 
L 247.510897 113.527474 
L 247.617619 113.417777 
L 247.736968 113.283243 
L 247.837034 113.17251 
L 247.95066 113.04729 
L 248.054935 112.937593 
L 248.173061 112.823756 
L 248.278642 112.713024 
L 248.394404 112.596082 
L 248.493081 112.48535 
L 248.604157 112.370479 
L 248.729581 112.259746 
L 248.840242 112.140735 
L 248.840657 112.140735 
L 248.939603 112.031038 
L 249.052753 111.92755 
L 249.143322 111.817853 
L 249.253216 111.699876 
L 249.254357 111.699876 
L 249.371653 111.590179 
L 249.371653 111.589144 
L 249.487456 111.472203 
L 249.566725 111.362506 
L 249.566725 111.361471 
L 249.682736 111.24039 
L 249.798229 111.130693 
L 249.911689 111.012716 
L 250.011713 110.901984 
L 250.127641 110.782973 
L 250.226836 110.673276 
L 250.337104 110.563578 
L 250.337933 110.563578 
L 250.429187 110.452846 
L 250.539433 110.348323 
L 250.540263 110.348323 
L 250.670145 110.237591 
L 250.77923 110.099952 
L 250.7812 110.099952 
L 250.904323 109.990255 
L 250.904323 109.98922 
L 251.018323 109.845372 
L 251.105533 109.73464 
L 251.215261 109.594931 
L 251.216588 109.594931 
L 251.32698 109.485234 
L 251.442659 109.371397 
L 251.556036 109.2617 
L 251.669186 109.160281 
L 251.771325 109.050584 
L 251.771325 109.049549 
L 251.884288 108.953305 
L 251.959617 108.843608 
L 252.070465 108.723562 
L 252.070693 108.723562 
L 252.191494 108.61283 
L 252.301886 108.504168 
L 252.302528 108.504168 
L 252.395026 108.393435 
L 252.508341 108.282703 
L 252.617987 108.173006 
L 252.723506 108.069518 
L 252.729063 108.069518 
L 252.835577 107.958786 
L 252.954802 107.825286 
L 253.091361 107.715589 
L 253.205091 107.583125 
L 253.353344 107.472392 
L 253.472693 107.336823 
L 253.572717 107.226091 
L 253.676992 107.117429 
L 253.683814 107.117429 
L 253.769366 107.006696 
L 253.87984 106.871127 
L 253.880462 106.871127 
L 253.999521 106.76143 
L 254.11182 106.639314 
L 254.218127 106.528582 
L 254.331153 106.432338 
L 254.431467 106.322641 
L 254.541403 106.204665 
L 254.542564 106.204665 
L 254.646922 106.093932 
L 254.759822 106.003898 
L 254.882448 105.894201 
L 254.882448 105.893166 
L 254.998624 105.767945 
L 255.110385 105.658248 
L 255.223783 105.544411 
L 255.33488 105.433679 
L 255.448216 105.320877 
L 255.535758 105.21118 
L 255.651665 105.093204 
L 255.789965 104.983506 
L 255.900855 104.877949 
L 255.901062 104.877949 
L 255.999096 104.767217 
L 256.122032 104.654415 
L 256.223674 104.544717 
L 256.333568 104.424671 
L 256.334771 104.424671 
L 256.452751 104.314974 
L 256.564988 104.199067 
L 256.683798 104.088335 
L 256.794522 103.958975 
L 256.794895 103.958975 
L 256.900704 103.848243 
L 257.01178 103.724058 
L 257.129346 103.619535 
L 257.266714 103.509838 
L 257.384155 103.385652 
L 257.4921 103.27492 
L 257.602181 103.126932 
L 257.603176 103.126932 
L 257.730052 103.017235 
L 257.84032 102.897189 
L 257.841149 102.897189 
L 257.940842 102.786457 
L 258.050362 102.694352 
L 258.051876 102.694352 
L 258.154264 102.58362 
L 258.267911 102.45633 
L 258.371315 102.346633 
L 258.484921 102.220377 
L 258.604374 102.11068 
L 258.716632 101.994773 
L 258.824266 101.885076 
L 258.93642 101.779518 
L 259.070014 101.668786 
L 259.178664 101.547705 
L 259.18111 101.547705 
L 259.281757 101.438008 
L 259.393952 101.326241 
L 259.48025 101.216544 
L 259.48025 101.215509 
L 259.594001 101.084079 
L 259.736221 100.974382 
L 259.849412 100.868824 
L 259.955532 100.758092 
L 260.072103 100.668058 
L 260.197195 100.55836 
L 260.312999 100.442454 
L 260.399649 100.331722 
L 260.516489 100.239617 
L 260.63617 100.12992 
L 260.63617 100.128885 
L 260.751684 100.020223 
L 260.858841 99.909491 
L 260.967905 99.817386 
L 260.969937 99.817386 
L 261.074026 99.706654 
L 261.182157 99.602131 
L 261.185081 99.602131 
L 261.305985 99.492434 
L 261.421353 99.35169 
L 261.547814 99.241993 
L 261.662042 99.136435 
L 261.763622 99.025703 
L 261.88521 98.898413 
L 262.002548 98.787681 
L 262.111198 98.685228 
L 262.113645 98.685228 
L 262.229199 98.575531 
L 262.339321 98.455484 
L 262.340296 98.455484 
L 262.421286 98.344752 
L 262.537525 98.217462 
L 262.669522 98.107765 
L 262.781448 98.024974 
L 262.898682 97.914242 
L 263.007934 97.80765 
L 263.009758 97.80765 
L 263.140429 97.697952 
L 263.248996 97.582046 
L 263.251463 97.582046 
L 263.34535 97.471314 
L 263.458541 97.366791 
L 263.543533 97.257094 
L 263.656475 97.166024 
L 263.786938 97.055292 
L 263.906556 96.952839 
L 264.009877 96.842107 
L 264.119937 96.747933 
L 264.120974 96.747933 
L 264.255688 96.637201 
L 264.365354 96.528538 
L 264.366784 96.528538 
L 264.484454 96.418841 
L 264.595053 96.319492 
L 264.595551 96.319492 
L 264.745629 96.20876 
L 264.858965 96.095958 
L 264.995482 95.986261 
L 265.109606 95.886913 
L 265.213259 95.777215 
L 265.324294 95.698565 
L 265.429709 95.587832 
L 265.545077 95.48331 
L 265.638943 95.373612 
L 265.751139 95.261845 
L 265.88071 95.152148 
L 265.991372 95.056939 
L 265.991724 95.056939 
L 266.136059 94.947242 
L 266.136059 94.946207 
L 266.246326 94.814777 
L 266.247155 94.814777 
L 266.370382 94.70508 
L 266.479322 94.587104 
L 266.481478 94.587104 
L 266.601097 94.476372 
L 266.716299 94.375988 
L 266.860115 94.265256 
L 266.975712 94.154524 
L 267.1114 94.044827 
L 267.220381 93.939269 
L 267.222455 93.939269 
L 267.345018 93.828537 
L 267.456115 93.724014 
L 267.577496 93.614317 
L 267.688136 93.523247 
L 267.688551 93.523247 
L 267.818019 93.412515 
L 267.928659 93.301783 
L 267.929115 93.301783 
L 268.03847 93.191051 
L 268.151392 93.098946 
L 268.269124 92.988214 
L 268.375534 92.902319 
L 268.38022 92.902319 
L 268.486154 92.792622 
L 268.598267 92.689134 
L 268.730616 92.579437 
L 268.840407 92.471809 
L 268.841713 92.471809 
L 268.977464 92.362112 
L 269.088146 92.223438 
L 269.088519 92.223438 
L 269.207868 92.112706 
L 269.320872 92.016462 
L 269.44723 91.906765 
L 269.554905 91.799137 
L 269.558326 91.799137 
L 269.67386 91.688405 
L 269.791302 91.585952 
L 269.919318 91.47522 
L 270.035516 91.35 
L 270.184432 91.240302 
L 270.295363 91.163721 
L 270.295446 91.163721 
L 270.440465 91.054024 
L 270.5532 90.971234 
L 270.664545 90.861536 
L 270.775227 90.770467 
L 270.775559 90.770467 
L 270.905255 90.659735 
L 271.020954 90.545898 
L 271.161474 90.435166 
L 271.272342 90.342027 
L 271.272529 90.342027 
L 271.414209 90.232329 
L 271.526592 90.104004 
L 271.635615 89.994307 
L 271.748661 89.897028 
L 271.86718 89.787331 
L 271.982092 89.694192 
L 272.117117 89.584495 
L 272.227633 89.485146 
L 272.228193 89.485146 
L 272.35793 89.376484 
L 272.46546 89.28231 
L 272.469006 89.28231 
L 272.609795 89.172612 
L 272.719834 89.073264 
L 272.720892 89.073264 
L 272.864583 88.963567 
L 272.978998 88.882846 
L 273.103593 88.773149 
L 273.212595 88.659312 
L 273.214669 88.659312 
L 273.336112 88.549615 
L 273.446379 88.458545 
L 273.447167 88.458545 
L 273.582731 88.347813 
L 273.69785 88.2495 
L 273.823959 88.139802 
L 273.823959 88.138767 
L 273.952514 88.021826 
L 274.094734 87.912129 
L 274.094734 87.911094 
L 274.215348 87.796222 
L 274.349004 87.68549 
L 274.462091 87.587177 
L 274.584861 87.476444 
L 274.695294 87.38848 
L 274.695937 87.38848 
L 274.827561 87.277747 
L 274.941934 87.198062 
L 275.133855 87.088364 
L 275.246507 87.011783 
L 275.358972 86.902086 
L 275.472743 86.815156 
L 275.611334 86.705459 
L 275.724463 86.599901 
L 275.883436 86.489169 
L 275.993807 86.403274 
L 275.994491 86.403274 
L 276.145337 86.293577 
L 276.257532 86.1756 
L 276.385113 86.065903 
L 276.489823 85.976903 
L 276.496189 85.976903 
L 276.608882 85.867206 
L 276.608882 85.866171 
L 276.725204 85.782346 
L 276.891849 85.671614 
L 277.012297 85.583649 
L 277.153107 85.472917 
L 277.266194 85.374603 
L 277.390768 85.263871 
L 277.503586 85.177976 
L 277.66399 85.067244 
L 277.776269 85.008256 
L 277.943847 84.897524 
L 278.056892 84.80128 
L 278.243339 84.691583 
L 278.346743 84.612932 
L 278.354374 84.612932 
L 278.490394 84.5022 
L 278.603688 84.393537 
L 278.762392 84.28384 
L 278.864863 84.178282 
L 278.873468 84.178282 
L 278.993708 84.068585 
L 279.103146 83.985795 
L 279.104805 83.985795 
L 279.265769 83.876097 
L 279.380328 83.791237 
L 279.518816 83.68154 
L 279.629892 83.607029 
L 279.771261 83.496297 
L 279.885198 83.42696 
L 280.028869 83.317262 
L 280.028869 83.316227 
L 280.139261 83.203426 
L 280.139904 83.203426 
L 280.295767 83.093728 
L 280.408128 83.027496 
L 280.520718 82.916764 
L 280.633287 82.839148 
L 280.775569 82.728416 
L 280.881108 82.665288 
L 280.886603 82.665288 
L 281.049412 82.555591 
L 281.162209 82.470731 
L 281.284938 82.359998 
L 281.399041 82.286522 
L 281.550467 82.176825 
L 281.659449 82.073337 
L 281.661501 82.073337 
L 281.819749 81.962605 
L 281.925932 81.899477 
L 281.930846 81.899477 
L 282.08252 81.78978 
L 282.183436 81.70078 
L 282.193596 81.70078 
L 282.340605 81.591083 
L 282.45531 81.502083 
L 282.644535 81.392386 
L 282.755217 81.315805 
L 282.755549 81.315805 
L 282.911764 81.206107 
L 283.024147 81.141945 
L 283.14615 81.032248 
L 283.257931 80.963946 
L 283.423373 80.853213 
L 283.537166 80.788016 
L 283.744388 80.678319 
L 283.858326 80.58518 
L 284.03399 80.474447 
L 284.143947 80.388552 
L 284.145046 80.388552 
L 284.314075 80.278855 
L 284.421502 80.210553 
L 284.42511 80.210553 
L 284.604071 80.099821 
L 284.714919 80.028414 
L 284.715168 80.028414 
L 284.857595 79.918717 
L 284.968546 79.85145 
L 284.968692 79.85145 
L 285.128722 79.740718 
L 285.236709 79.657927 
L 285.239819 79.657927 
L 285.463422 79.54823 
L 285.576116 79.467509 
L 285.706786 79.357812 
L 285.812885 79.279161 
L 285.817883 79.279161 
L 285.988675 79.168429 
L 286.101057 79.103232 
L 286.246345 78.9925 
L 286.357006 78.921093 
L 286.357442 78.921093 
L 286.533977 78.810361 
L 286.642067 78.734814 
L 286.645033 78.734814 
L 286.804773 78.624082 
L 286.917632 78.536118 
L 287.06234 78.42642 
L 287.06234 78.425385 
L 287.176713 78.3457 
L 287.313935 78.234968 
L 287.424202 78.16977 
L 287.425011 78.16977 
L 287.64001 78.060073 
L 287.7498 77.991771 
L 287.751085 77.991771 
L 287.957189 77.882073 
L 288.06955 77.813771 
L 288.243121 77.703039 
L 288.355524 77.637842 
L 288.561212 77.52711 
L 288.666441 77.445354 
L 288.672226 77.445354 
L 288.82276 77.335657 
L 288.93902 77.252867 
L 289.09198 77.143169 
L 289.204549 77.070728 
L 289.389793 76.959996 
L 289.502154 76.896868 
L 289.644706 76.787171 
L 289.759535 76.714729 
L 289.972128 76.605032 
L 290.083847 76.540869 
L 290.246158 76.431172 
L 290.352818 76.373219 
L 290.357255 76.373219 
L 290.533251 76.262487 
L 290.645634 76.199359 
L 290.823683 76.089662 
L 290.823683 76.088627 
L 290.937371 76.025499 
L 291.064081 75.915802 
L 291.175717 75.857849 
L 291.366788 75.747116 
L 291.479211 75.681919 
L 291.62029 75.572222 
L 291.73089 75.512199 
L 291.731346 75.512199 
L 291.998637 75.402501 
L 292.110418 75.334199 
L 292.291038 75.224502 
L 292.400435 75.174828 
L 292.402052 75.174828 
L 292.60264 75.064096 
L 292.710502 74.992689 
L 292.713674 74.992689 
L 292.915299 74.882992 
L 293.028386 74.818829 
L 293.206394 74.708097 
L 293.316018 74.6429 
L 293.31747 74.6429 
L 293.501677 74.532167 
L 293.613894 74.477319 
L 293.836108 74.366587 
L 293.946935 74.301389 
L 293.947163 74.301389 
L 294.230379 74.190657 
L 294.344399 74.11925 
L 294.611919 74.009553 
L 294.723741 73.932972 
L 294.946038 73.823275 
L 295.051619 73.750833 
L 295.057135 73.750833 
L 295.310617 73.640101 
L 295.423663 73.593531 
L 295.6234 73.483834 
L 295.735285 73.400009 
L 295.88922 73.289277 
L 296.002058 73.247882 
L 296.233437 73.138184 
L 296.343932 73.076092 
L 296.344451 73.076092 
L 296.558806 72.966394 
L 296.667062 72.898092 
L 296.669903 72.898092 
L 296.869724 72.788395 
L 296.981733 72.74286 
L 297.221406 72.632128 
L 297.330989 72.556582 
L 297.33244 72.556582 
L 297.549719 72.446885 
L 297.650946 72.386862 
L 297.660816 72.386862 
L 297.859952 72.276129 
L 297.967877 72.22956 
L 297.971049 72.22956 
L 298.208255 72.118828 
L 298.303904 72.063979 
L 298.31931 72.063979 
L 298.609534 71.954282 
L 298.71837 71.904608 
L 298.720506 71.904608 
L 298.951906 71.793875 
L 299.065677 71.728678 
L 299.30394 71.618981 
L 299.414809 71.571376 
L 299.415037 71.571376 
L 299.664953 71.461679 
L 299.776402 71.420284 
L 299.978358 71.310587 
L 300.089994 71.254703 
L 300.31594 71.145006 
L 300.427617 71.087053 
L 300.644233 70.97632 
L 300.757569 70.921472 
L 300.998051 70.811775 
L 301.111428 70.737263 
L 301.339593 70.627566 
L 301.450586 70.573752 
L 301.450628 70.573752 
L 301.687999 70.464055 
L 301.800132 70.412311 
L 302.016271 70.301579 
L 302.13052 70.223963 
L 302.33936 70.113231 
L 302.449503 70.050103 
L 302.450457 70.050103 
L 302.681027 69.940406 
L 302.792103 69.894871 
L 303.040132 69.784139 
L 303.155832 69.743779 
L 303.501334 69.634081 
L 303.61295 69.574058 
L 303.863093 69.464361 
L 303.973734 69.408477 
L 303.974169 69.408477 
L 304.216849 69.297745 
L 304.327261 69.240827 
L 304.327945 69.240827 
L 304.596502 69.13113 
L 304.705006 69.066967 
L 304.707598 69.066967 
L 304.929771 68.95727 
L 305.039375 68.905526 
L 305.040868 68.905526 
L 305.379487 68.795829 
L 305.488427 68.756503 
L 305.490563 68.756503 
L 305.73515 68.646806 
L 305.844235 68.619899 
L 305.846225 68.619899 
L 306.185093 68.509167 
L 306.289078 68.468807 
L 306.29619 68.468807 
L 306.629874 68.358074 
L 306.744039 68.309435 
L 306.98759 68.199738 
L 307.08834 68.164552 
L 307.098603 68.164552 
L 307.322124 68.05382 
L 307.436434 68.003111 
L 307.717701 67.893413 
L 307.825791 67.847879 
L 307.828798 67.847879 
L 308.104819 67.738181 
L 308.208762 67.698856 
L 308.215874 67.698856 
L 308.454012 67.589159 
L 308.565607 67.539484 
L 308.889794 67.428752 
L 309.001865 67.378043 
L 309.282199 67.268346 
L 309.389688 67.23109 
L 309.393296 67.23109 
L 309.681011 67.120358 
L 309.789951 67.084137 
L 309.792108 67.084137 
L 310.038001 66.97444 
L 310.147459 66.920626 
L 310.149056 66.920626 
L 310.406685 66.810929 
L 310.520021 66.757115 
L 310.755298 66.647418 
L 310.862704 66.618441 
L 310.866353 66.618441 
L 311.154089 66.508744 
L 311.265725 66.448721 
L 311.604095 66.337989 
L 311.708432 66.299698 
L 311.715171 66.299698 
L 312.005831 66.190001 
L 312.117301 66.152746 
L 312.414865 66.042013 
L 312.526583 66.012002 
L 312.866633 65.902305 
L 312.970825 65.873328 
L 312.977709 65.873328 
L 313.306956 65.763631 
L 313.41488 65.728445 
L 313.418053 65.728445 
L 313.780247 65.618748 
L 313.887321 65.581492 
L 313.891344 65.581492 
L 314.294199 65.471795 
L 314.394306 65.438678 
L 314.405296 65.438678 
L 314.712729 65.327946 
L 314.829217 65.264819 
L 315.047139 65.154086 
L 315.145671 65.111656 
L 315.158194 65.111656 
L 315.556156 65.001959 
L 315.667668 64.960564 
L 315.987003 64.850867 
L 316.080766 64.817751 
L 316.098079 64.817751 
L 316.418078 64.707018 
L 316.529507 64.687356 
L 316.962386 64.576624 
L 317.059155 64.548682 
L 317.073483 64.548682 
L 317.455416 64.438985 
L 317.564211 64.399659 
L 317.566492 64.399659 
L 317.891447 64.289962 
L 318.003041 64.265125 
L 318.379584 64.155427 
L 318.379584 64.154393 
L 318.492547 64.109893 
L 318.796477 63.999161 
L 318.908942 63.967079 
L 319.21057 63.856347 
L 319.318598 63.803568 
L 319.321646 63.803568 
L 319.709862 63.693871 
L 319.813681 63.666964 
L 319.820856 63.666964 
L 320.208325 63.557267 
L 320.208325 63.556232 
L 320.319733 63.536569 
L 320.745666 63.426872 
L 320.857406 63.395826 
L 321.15412 63.285094 
L 321.266087 63.242663 
L 321.619469 63.132966 
L 321.731769 63.10399 
L 322.151751 62.994292 
L 322.256191 62.961176 
L 322.262806 62.961176 
L 322.656787 62.851479 
L 322.766535 62.814223 
L 322.767883 62.814223 
L 323.074115 62.703491 
L 323.185895 62.66727 
L 323.578943 62.556538 
L 323.686992 62.512038 
L 323.69004 62.512038 
L 324.043173 62.401306 
L 324.152881 62.369225 
L 324.154228 62.369225 
L 324.497969 62.259528 
L 324.609646 62.226411 
L 324.9487 62.115679 
L 325.062555 62.085668 
L 325.42674 61.974936 
L 325.53257 61.946994 
L 325.537795 61.946994 
L 325.978304 61.837297 
L 325.978304 61.836262 
L 326.090852 61.802111 
L 326.491095 61.691379 
L 326.60327 61.665507 
L 327.038679 61.555809 
L 327.150252 61.533042 
L 327.606333 61.42231 
L 327.718819 61.388159 
L 328.20312 61.278462 
L 328.31401 61.247415 
L 328.314176 61.247415 
L 328.671249 61.137718 
L 328.782781 61.112881 
L 329.247799 61.003183 
L 329.247799 61.002149 
L 329.359497 60.967998 
L 329.963313 60.857265 
L 330.074907 60.833463 
L 330.502685 60.722731 
L 330.614466 60.68858 
L 330.953894 60.577848 
L 331.066442 60.543697 
L 331.440932 60.432965 
L 331.552381 60.413302 
L 332.073839 60.303605 
L 332.185309 60.264279 
L 332.774321 60.154582 
L 332.88577 60.135954 
L 333.44992 60.026257 
L 333.542771 59.995211 
L 333.560996 59.995211 
L 334.026927 59.884478 
L 334.139122 59.858606 
L 334.588423 59.748909 
L 334.687204 59.722002 
L 334.69952 59.722002 
L 335.209698 59.61127 
L 335.314512 59.581259 
L 335.320774 59.581259 
L 335.841527 59.471561 
L 335.841527 59.470526 
L 335.952955 59.455003 
L 336.538214 59.344271 
L 336.648295 59.31219 
L 336.64929 59.31219 
L 337.235295 59.201458 
L 337.347988 59.185935 
L 337.882405 59.076237 
L 337.993834 59.059679 
L 338.635823 58.949982 
L 338.747645 58.914796 
L 339.237068 58.804064 
L 339.335786 58.784401 
L 339.348144 58.784401 
L 340.07247 58.674704 
L 340.182198 58.649867 
L 340.183525 58.649867 
L 340.858379 58.539135 
L 340.970968 58.517402 
L 341.657246 58.407705 
L 341.768385 58.395286 
L 342.401561 58.285589 
L 342.482841 58.262822 
L 342.512534 58.262822 
L 343.12143 58.15209 
L 343.232941 58.132427 
L 343.771132 58.021695 
L 343.870327 58.010311 
L 343.882229 58.010311 
L 344.554905 57.899579 
L 344.66314 57.877846 
L 344.665981 57.877846 
L 345.330363 57.767114 
L 345.443139 57.749521 
L 346.209101 57.638789 
L 346.32053 57.621196 
L 347.07403 57.510464 
L 347.185645 57.49908 
L 347.937549 57.389383 
L 348.048956 57.374895 
L 348.784251 57.265198 
L 348.784251 57.264163 
L 348.897048 57.24657 
L 349.642421 57.136872 
L 349.753683 57.126524 
L 350.542515 57.016826 
L 350.542515 57.015792 
L 350.654317 57.000268 
L 351.377876 56.889536 
L 351.479933 56.874013 
L 351.488973 56.874013 
L 352.361615 56.763281 
L 352.469602 56.747758 
L 352.47267 56.747758 
L 353.274607 56.63806 
L 353.336977 56.625642 
L 353.385579 56.625642 
L 354.383583 56.515945 
L 354.494825 56.507666 
L 355.330186 56.397968 
L 355.330186 56.396933 
L 355.441449 56.389689 
L 356.647858 56.279992 
L 356.749852 56.265504 
L 356.758934 56.265504 
L 358.185504 56.155806 
L 358.290837 56.139248 
L 358.296601 56.139248 
L 359.762318 56.029551 
L 359.873622 56.008853 
L 361.284331 55.899156 
L 361.395884 55.876389 
L 362.673952 55.766692 
L 362.785132 55.758413 
L 364.382017 55.648715 
L 364.47748 55.638366 
L 364.493052 55.638366 
L 365.647313 55.528669 
L 365.758575 55.52246 
L 367.500459 55.411728 
L 367.612219 55.394135 
L 369.569288 55.284438 
L 369.569288 55.283403 
L 369.680924 55.276159 
L 372.726524 55.165426 
L 372.806021 55.156112 
L 372.837621 55.156112 
L 374.93382 55.04538 
L 375.045082 55.038136 
L 377.963807 54.928439 
L 378.074966 54.92223 
L 380.586979 54.812532 
L 380.586979 54.810463 
L 380.697993 54.810463 
L 383.696131 54.69973 
L 383.775711 54.692486 
L 383.807207 54.692486 
L 388.317821 54.581754 
L 388.429166 54.57658 
L 392.777489 54.466883 
L 392.872143 54.460673 
L 392.888565 54.460673 
L 399.355562 54.350976 
L 399.355562 54.348906 
L 399.466659 54.348906 
L 405.730124 54.239209 
L 405.750569 54.235069 
L 405.84118 54.235069 
L 414.72 54.144 
L 414.72 54.144 
" clip-path="url(#p6e985e3ce2)" style="fill: none; stroke: #ff8c00; stroke-width: 1.5; stroke-linecap: square"/>
   </g>
   <g id="line2d_14">
    <path d="M 74.605714 307.584 
L 414.72 54.144 
" clip-path="url(#p6e985e3ce2)" style="fill: none; stroke-dasharray: 5.55,2.4; stroke-dashoffset: 0; stroke: #0000ff; stroke-width: 1.5"/>
   </g>
   <g id="patch_3">
    <path d="M 57.6 307.584 
L 57.6 41.472 
" style="fill: none; stroke: #000000; stroke-width: 0.8; stroke-linejoin: miter; stroke-linecap: square"/>
   </g>
   <g id="patch_4">
    <path d="M 414.72 307.584 
L 414.72 41.472 
" style="fill: none; stroke: #000000; stroke-width: 0.8; stroke-linejoin: miter; stroke-linecap: square"/>
   </g>
   <g id="patch_5">
    <path d="M 57.6 307.584 
L 414.72 307.584 
" style="fill: none; stroke: #000000; stroke-width: 0.8; stroke-linejoin: miter; stroke-linecap: square"/>
   </g>
   <g id="patch_6">
    <path d="M 57.6 41.472 
L 414.72 41.472 
" style="fill: none; stroke: #000000; stroke-width: 0.8; stroke-linejoin: miter; stroke-linecap: square"/>
   </g>
   <g id="text_15">
    <!-- ROC CURVE -->
    <g transform="translate(200.855625 35.472)scale(0.12 -0.12)">
     <defs>
      <path id="DejaVuSans-4f" d="M 2522 4238 
Q 1834 4238 1429 3725 
Q 1025 3213 1025 2328 
Q 1025 1447 1429 934 
Q 1834 422 2522 422 
Q 3209 422 3611 934 
Q 4013 1447 4013 2328 
Q 4013 3213 3611 3725 
Q 3209 4238 2522 4238 
z
M 2522 4750 
Q 3503 4750 4090 4092 
Q 4678 3434 4678 2328 
Q 4678 1225 4090 567 
Q 3503 -91 2522 -91 
Q 1538 -91 948 565 
Q 359 1222 359 2328 
Q 359 3434 948 4092 
Q 1538 4750 2522 4750 
z
" transform="scale(0.015625)"/>
      <path id="DejaVuSans-43" d="M 4122 4306 
L 4122 3641 
Q 3803 3938 3442 4084 
Q 3081 4231 2675 4231 
Q 1875 4231 1450 3742 
Q 1025 3253 1025 2328 
Q 1025 1406 1450 917 
Q 1875 428 2675 428 
Q 3081 428 3442 575 
Q 3803 722 4122 1019 
L 4122 359 
Q 3791 134 3420 21 
Q 3050 -91 2638 -91 
Q 1578 -91 968 557 
Q 359 1206 359 2328 
Q 359 3453 968 4101 
Q 1578 4750 2638 4750 
Q 3056 4750 3426 4639 
Q 3797 4528 4122 4306 
z
" transform="scale(0.015625)"/>
      <path id="DejaVuSans-55" d="M 556 4666 
L 1191 4666 
L 1191 1831 
Q 1191 1081 1462 751 
Q 1734 422 2344 422 
Q 2950 422 3222 751 
Q 3494 1081 3494 1831 
L 3494 4666 
L 4128 4666 
L 4128 1753 
Q 4128 841 3676 375 
Q 3225 -91 2344 -91 
Q 1459 -91 1007 375 
Q 556 841 556 1753 
L 556 4666 
z
" transform="scale(0.015625)"/>
      <path id="DejaVuSans-56" d="M 1831 0 
L 50 4666 
L 709 4666 
L 2188 738 
L 3669 4666 
L 4325 4666 
L 2547 0 
L 1831 0 
z
" transform="scale(0.015625)"/>
      <path id="DejaVuSans-45" d="M 628 4666 
L 3578 4666 
L 3578 4134 
L 1259 4134 
L 1259 2753 
L 3481 2753 
L 3481 2222 
L 1259 2222 
L 1259 531 
L 3634 531 
L 3634 0 
L 628 0 
L 628 4666 
z
" transform="scale(0.015625)"/>
     </defs>
     <use xlink:href="#DejaVuSans-52"/>
     <use xlink:href="#DejaVuSans-4f" x="69.482422"/>
     <use xlink:href="#DejaVuSans-43" x="148.193359"/>
     <use xlink:href="#DejaVuSans-20" x="218.017578"/>
     <use xlink:href="#DejaVuSans-43" x="249.804688"/>
     <use xlink:href="#DejaVuSans-55" x="319.628906"/>
     <use xlink:href="#DejaVuSans-52" x="392.822266"/>
     <use xlink:href="#DejaVuSans-56" x="456.804688"/>
     <use xlink:href="#DejaVuSans-45" x="525.212891"/>
    </g>
   </g>
   <g id="legend_1">
    <g id="patch_7">
     <path d="M 234.97 302.584 
L 407.72 302.584 
Q 409.72 302.584 409.72 300.584 
L 409.72 286.905875 
Q 409.72 284.905875 407.72 284.905875 
L 234.97 284.905875 
Q 232.97 284.905875 232.97 286.905875 
L 232.97 300.584 
Q 232.97 302.584 234.97 302.584 
z
" style="fill: #ffffff; opacity: 0.8; stroke: #cccccc; stroke-linejoin: miter"/>
    </g>
    <g id="line2d_15">
     <path d="M 236.97 293.004312 
L 246.97 293.004312 
L 256.97 293.004312 
" style="fill: none; stroke: #ff8c00; stroke-width: 1.5; stroke-linecap: square"/>
    </g>
    <g id="text_16">
     <!-- ROC curve (ROC AUC=0.67) -->
     <g transform="translate(264.97 296.504312)scale(0.1 -0.1)">
      <defs>
       <path id="DejaVuSans-63" d="M 3122 3366 
L 3122 2828 
Q 2878 2963 2633 3030 
Q 2388 3097 2138 3097 
Q 1578 3097 1268 2742 
Q 959 2388 959 1747 
Q 959 1106 1268 751 
Q 1578 397 2138 397 
Q 2388 397 2633 464 
Q 2878 531 3122 666 
L 3122 134 
Q 2881 22 2623 -34 
Q 2366 -91 2075 -91 
Q 1284 -91 818 406 
Q 353 903 353 1747 
Q 353 2603 823 3093 
Q 1294 3584 2113 3584 
Q 2378 3584 2631 3529 
Q 2884 3475 3122 3366 
z
" transform="scale(0.015625)"/>
       <path id="DejaVuSans-28" d="M 1984 4856 
Q 1566 4138 1362 3434 
Q 1159 2731 1159 2009 
Q 1159 1288 1364 580 
Q 1569 -128 1984 -844 
L 1484 -844 
Q 1016 -109 783 600 
Q 550 1309 550 2009 
Q 550 2706 781 3412 
Q 1013 4119 1484 4856 
L 1984 4856 
z
" transform="scale(0.015625)"/>
       <path id="DejaVuSans-41" d="M 2188 4044 
L 1331 1722 
L 3047 1722 
L 2188 4044 
z
M 1831 4666 
L 2547 4666 
L 4325 0 
L 3669 0 
L 3244 1197 
L 1141 1197 
L 716 0 
L 50 0 
L 1831 4666 
z
" transform="scale(0.015625)"/>
       <path id="DejaVuSans-3d" d="M 678 2906 
L 4684 2906 
L 4684 2381 
L 678 2381 
L 678 2906 
z
M 678 1631 
L 4684 1631 
L 4684 1100 
L 678 1100 
L 678 1631 
z
" transform="scale(0.015625)"/>
       <path id="DejaVuSans-37" d="M 525 4666 
L 3525 4666 
L 3525 4397 
L 1831 0 
L 1172 0 
L 2766 4134 
L 525 4134 
L 525 4666 
z
" transform="scale(0.015625)"/>
       <path id="DejaVuSans-29" d="M 513 4856 
L 1013 4856 
Q 1481 4119 1714 3412 
Q 1947 2706 1947 2009 
Q 1947 1309 1714 600 
Q 1481 -109 1013 -844 
L 513 -844 
Q 928 -128 1133 580 
Q 1338 1288 1338 2009 
Q 1338 2731 1133 3434 
Q 928 4138 513 4856 
z
" transform="scale(0.015625)"/>
      </defs>
      <use xlink:href="#DejaVuSans-52"/>
      <use xlink:href="#DejaVuSans-4f" x="69.482422"/>
      <use xlink:href="#DejaVuSans-43" x="148.193359"/>
      <use xlink:href="#DejaVuSans-20" x="218.017578"/>
      <use xlink:href="#DejaVuSans-63" x="249.804688"/>
      <use xlink:href="#DejaVuSans-75" x="304.785156"/>
      <use xlink:href="#DejaVuSans-72" x="368.164062"/>
      <use xlink:href="#DejaVuSans-76" x="409.277344"/>
      <use xlink:href="#DejaVuSans-65" x="468.457031"/>
      <use xlink:href="#DejaVuSans-20" x="529.980469"/>
      <use xlink:href="#DejaVuSans-28" x="561.767578"/>
      <use xlink:href="#DejaVuSans-52" x="600.78125"/>
      <use xlink:href="#DejaVuSans-4f" x="670.263672"/>
      <use xlink:href="#DejaVuSans-43" x="748.974609"/>
      <use xlink:href="#DejaVuSans-20" x="818.798828"/>
      <use xlink:href="#DejaVuSans-41" x="850.585938"/>
      <use xlink:href="#DejaVuSans-55" x="918.994141"/>
      <use xlink:href="#DejaVuSans-43" x="992.1875"/>
      <use xlink:href="#DejaVuSans-3d" x="1062.011719"/>
      <use xlink:href="#DejaVuSans-30" x="1145.800781"/>
      <use xlink:href="#DejaVuSans-2e" x="1209.423828"/>
      <use xlink:href="#DejaVuSans-36" x="1241.210938"/>
      <use xlink:href="#DejaVuSans-37" x="1304.833984"/>
      <use xlink:href="#DejaVuSans-29" x="1368.457031"/>
     </g>
    </g>
   </g>
  </g>
 </g>
 <defs>
  <clipPath id="p6e985e3ce2">
   <rect x="57.6" y="41.472" width="357.12" height="266.112"/>
  </clipPath>
 </defs>
</svg>
