<?xml version="1.0" encoding="utf-8" standalone="no"?>
<!DOCTYPE svg PUBLIC "-//W3C//DTD SVG 1.1//EN"
  "http://www.w3.org/Graphics/SVG/1.1/DTD/svg11.dtd">
<svg xmlns:xlink="http://www.w3.org/1999/xlink" width="460.8pt" height="345.6pt" viewBox="0 0 460.8 345.6" xmlns="http://www.w3.org/2000/svg" version="1.1">
 <metadata>
  <rdf:RDF xmlns:dc="http://purl.org/dc/elements/1.1/" xmlns:cc="http://creativecommons.org/ns#" xmlns:rdf="http://www.w3.org/1999/02/22-rdf-syntax-ns#">
   <cc:Work>
    <dc:type rdf:resource="http://purl.org/dc/dcmitype/StillImage"/>
    <dc:date>2022-05-24T08:52:22.546194</dc:date>
    <dc:format>image/svg+xml</dc:format>
    <dc:creator>
     <cc:Agent>
      <dc:title>Matplotlib v3.5.1, https://matplotlib.org/</dc:title>
     </cc:Agent>
    </dc:creator>
   </cc:Work>
  </rdf:RDF>
 </metadata>
 <defs>
  <style type="text/css">*{stroke-linejoin: round; stroke-linecap: butt}</style>
 </defs>
 <g id="figure_1">
  <g id="patch_1">
   <path d="M 0 345.6 
L 460.8 345.6 
L 460.8 0 
L 0 0 
z
" style="fill: #ffffff"/>
  </g>
  <g id="axes_1">
   <g id="patch_2">
    <path d="M 57.6 307.584 
L 414.72 307.584 
L 414.72 41.472 
L 57.6 41.472 
z
" style="fill: #ffffff"/>
   </g>
   <g id="matplotlib.axis_1">
    <g id="xtick_1">
     <g id="line2d_1">
      <defs>
       <path id="m97c1ab2272" d="M 0 0 
L 0 3.5 
" style="stroke: #000000; stroke-width: 0.8"/>
      </defs>
      <g>
       <use xlink:href="#m97c1ab2272" x="74.605714" y="307.584" style="stroke: #000000; stroke-width: 0.8"/>
      </g>
     </g>
     <g id="text_1">
      <!-- 0.0 -->
      <g transform="translate(66.654152 322.182437)scale(0.1 -0.1)">
       <defs>
        <path id="DejaVuSans-30" d="M 2034 4250 
Q 1547 4250 1301 3770 
Q 1056 3291 1056 2328 
Q 1056 1369 1301 889 
Q 1547 409 2034 409 
Q 2525 409 2770 889 
Q 3016 1369 3016 2328 
Q 3016 3291 2770 3770 
Q 2525 4250 2034 4250 
z
M 2034 4750 
Q 2819 4750 3233 4129 
Q 3647 3509 3647 2328 
Q 3647 1150 3233 529 
Q 2819 -91 2034 -91 
Q 1250 -91 836 529 
Q 422 1150 422 2328 
Q 422 3509 836 4129 
Q 1250 4750 2034 4750 
z
" transform="scale(0.015625)"/>
        <path id="DejaVuSans-2e" d="M 684 794 
L 1344 794 
L 1344 0 
L 684 0 
L 684 794 
z
" transform="scale(0.015625)"/>
       </defs>
       <use xlink:href="#DejaVuSans-30"/>
       <use xlink:href="#DejaVuSans-2e" x="63.623047"/>
       <use xlink:href="#DejaVuSans-30" x="95.410156"/>
      </g>
     </g>
    </g>
    <g id="xtick_2">
     <g id="line2d_2">
      <g>
       <use xlink:href="#m97c1ab2272" x="142.628571" y="307.584" style="stroke: #000000; stroke-width: 0.8"/>
      </g>
     </g>
     <g id="text_2">
      <!-- 0.2 -->
      <g transform="translate(134.677009 322.182437)scale(0.1 -0.1)">
       <defs>
        <path id="DejaVuSans-32" d="M 1228 531 
L 3431 531 
L 3431 0 
L 469 0 
L 469 531 
Q 828 903 1448 1529 
Q 2069 2156 2228 2338 
Q 2531 2678 2651 2914 
Q 2772 3150 2772 3378 
Q 2772 3750 2511 3984 
Q 2250 4219 1831 4219 
Q 1534 4219 1204 4116 
Q 875 4013 500 3803 
L 500 4441 
Q 881 4594 1212 4672 
Q 1544 4750 1819 4750 
Q 2544 4750 2975 4387 
Q 3406 4025 3406 3419 
Q 3406 3131 3298 2873 
Q 3191 2616 2906 2266 
Q 2828 2175 2409 1742 
Q 1991 1309 1228 531 
z
" transform="scale(0.015625)"/>
       </defs>
       <use xlink:href="#DejaVuSans-30"/>
       <use xlink:href="#DejaVuSans-2e" x="63.623047"/>
       <use xlink:href="#DejaVuSans-32" x="95.410156"/>
      </g>
     </g>
    </g>
    <g id="xtick_3">
     <g id="line2d_3">
      <g>
       <use xlink:href="#m97c1ab2272" x="210.651429" y="307.584" style="stroke: #000000; stroke-width: 0.8"/>
      </g>
     </g>
     <g id="text_3">
      <!-- 0.4 -->
      <g transform="translate(202.699866 322.182437)scale(0.1 -0.1)">
       <defs>
        <path id="DejaVuSans-34" d="M 2419 4116 
L 825 1625 
L 2419 1625 
L 2419 4116 
z
M 2253 4666 
L 3047 4666 
L 3047 1625 
L 3713 1625 
L 3713 1100 
L 3047 1100 
L 3047 0 
L 2419 0 
L 2419 1100 
L 313 1100 
L 313 1709 
L 2253 4666 
z
" transform="scale(0.015625)"/>
       </defs>
       <use xlink:href="#DejaVuSans-30"/>
       <use xlink:href="#DejaVuSans-2e" x="63.623047"/>
       <use xlink:href="#DejaVuSans-34" x="95.410156"/>
      </g>
     </g>
    </g>
    <g id="xtick_4">
     <g id="line2d_4">
      <g>
       <use xlink:href="#m97c1ab2272" x="278.674286" y="307.584" style="stroke: #000000; stroke-width: 0.8"/>
      </g>
     </g>
     <g id="text_4">
      <!-- 0.6 -->
      <g transform="translate(270.722723 322.182437)scale(0.1 -0.1)">
       <defs>
        <path id="DejaVuSans-36" d="M 2113 2584 
Q 1688 2584 1439 2293 
Q 1191 2003 1191 1497 
Q 1191 994 1439 701 
Q 1688 409 2113 409 
Q 2538 409 2786 701 
Q 3034 994 3034 1497 
Q 3034 2003 2786 2293 
Q 2538 2584 2113 2584 
z
M 3366 4563 
L 3366 3988 
Q 3128 4100 2886 4159 
Q 2644 4219 2406 4219 
Q 1781 4219 1451 3797 
Q 1122 3375 1075 2522 
Q 1259 2794 1537 2939 
Q 1816 3084 2150 3084 
Q 2853 3084 3261 2657 
Q 3669 2231 3669 1497 
Q 3669 778 3244 343 
Q 2819 -91 2113 -91 
Q 1303 -91 875 529 
Q 447 1150 447 2328 
Q 447 3434 972 4092 
Q 1497 4750 2381 4750 
Q 2619 4750 2861 4703 
Q 3103 4656 3366 4563 
z
" transform="scale(0.015625)"/>
       </defs>
       <use xlink:href="#DejaVuSans-30"/>
       <use xlink:href="#DejaVuSans-2e" x="63.623047"/>
       <use xlink:href="#DejaVuSans-36" x="95.410156"/>
      </g>
     </g>
    </g>
    <g id="xtick_5">
     <g id="line2d_5">
      <g>
       <use xlink:href="#m97c1ab2272" x="346.697143" y="307.584" style="stroke: #000000; stroke-width: 0.8"/>
      </g>
     </g>
     <g id="text_5">
      <!-- 0.8 -->
      <g transform="translate(338.74558 322.182437)scale(0.1 -0.1)">
       <defs>
        <path id="DejaVuSans-38" d="M 2034 2216 
Q 1584 2216 1326 1975 
Q 1069 1734 1069 1313 
Q 1069 891 1326 650 
Q 1584 409 2034 409 
Q 2484 409 2743 651 
Q 3003 894 3003 1313 
Q 3003 1734 2745 1975 
Q 2488 2216 2034 2216 
z
M 1403 2484 
Q 997 2584 770 2862 
Q 544 3141 544 3541 
Q 544 4100 942 4425 
Q 1341 4750 2034 4750 
Q 2731 4750 3128 4425 
Q 3525 4100 3525 3541 
Q 3525 3141 3298 2862 
Q 3072 2584 2669 2484 
Q 3125 2378 3379 2068 
Q 3634 1759 3634 1313 
Q 3634 634 3220 271 
Q 2806 -91 2034 -91 
Q 1263 -91 848 271 
Q 434 634 434 1313 
Q 434 1759 690 2068 
Q 947 2378 1403 2484 
z
M 1172 3481 
Q 1172 3119 1398 2916 
Q 1625 2713 2034 2713 
Q 2441 2713 2670 2916 
Q 2900 3119 2900 3481 
Q 2900 3844 2670 4047 
Q 2441 4250 2034 4250 
Q 1625 4250 1398 4047 
Q 1172 3844 1172 3481 
z
" transform="scale(0.015625)"/>
       </defs>
       <use xlink:href="#DejaVuSans-30"/>
       <use xlink:href="#DejaVuSans-2e" x="63.623047"/>
       <use xlink:href="#DejaVuSans-38" x="95.410156"/>
      </g>
     </g>
    </g>
    <g id="xtick_6">
     <g id="line2d_6">
      <g>
       <use xlink:href="#m97c1ab2272" x="414.72" y="307.584" style="stroke: #000000; stroke-width: 0.8"/>
      </g>
     </g>
     <g id="text_6">
      <!-- 1.0 -->
      <g transform="translate(406.768438 322.182437)scale(0.1 -0.1)">
       <defs>
        <path id="DejaVuSans-31" d="M 794 531 
L 1825 531 
L 1825 4091 
L 703 3866 
L 703 4441 
L 1819 4666 
L 2450 4666 
L 2450 531 
L 3481 531 
L 3481 0 
L 794 0 
L 794 531 
z
" transform="scale(0.015625)"/>
       </defs>
       <use xlink:href="#DejaVuSans-31"/>
       <use xlink:href="#DejaVuSans-2e" x="63.623047"/>
       <use xlink:href="#DejaVuSans-30" x="95.410156"/>
      </g>
     </g>
    </g>
    <g id="text_7">
     <!-- False Positive Rate -->
     <g transform="translate(189.693594 335.860562)scale(0.1 -0.1)">
      <defs>
       <path id="DejaVuSans-46" d="M 628 4666 
L 3309 4666 
L 3309 4134 
L 1259 4134 
L 1259 2759 
L 3109 2759 
L 3109 2228 
L 1259 2228 
L 1259 0 
L 628 0 
L 628 4666 
z
" transform="scale(0.015625)"/>
       <path id="DejaVuSans-61" d="M 2194 1759 
Q 1497 1759 1228 1600 
Q 959 1441 959 1056 
Q 959 750 1161 570 
Q 1363 391 1709 391 
Q 2188 391 2477 730 
Q 2766 1069 2766 1631 
L 2766 1759 
L 2194 1759 
z
M 3341 1997 
L 3341 0 
L 2766 0 
L 2766 531 
Q 2569 213 2275 61 
Q 1981 -91 1556 -91 
Q 1019 -91 701 211 
Q 384 513 384 1019 
Q 384 1609 779 1909 
Q 1175 2209 1959 2209 
L 2766 2209 
L 2766 2266 
Q 2766 2663 2505 2880 
Q 2244 3097 1772 3097 
Q 1472 3097 1187 3025 
Q 903 2953 641 2809 
L 641 3341 
Q 956 3463 1253 3523 
Q 1550 3584 1831 3584 
Q 2591 3584 2966 3190 
Q 3341 2797 3341 1997 
z
" transform="scale(0.015625)"/>
       <path id="DejaVuSans-6c" d="M 603 4863 
L 1178 4863 
L 1178 0 
L 603 0 
L 603 4863 
z
" transform="scale(0.015625)"/>
       <path id="DejaVuSans-73" d="M 2834 3397 
L 2834 2853 
Q 2591 2978 2328 3040 
Q 2066 3103 1784 3103 
Q 1356 3103 1142 2972 
Q 928 2841 928 2578 
Q 928 2378 1081 2264 
Q 1234 2150 1697 2047 
L 1894 2003 
Q 2506 1872 2764 1633 
Q 3022 1394 3022 966 
Q 3022 478 2636 193 
Q 2250 -91 1575 -91 
Q 1294 -91 989 -36 
Q 684 19 347 128 
L 347 722 
Q 666 556 975 473 
Q 1284 391 1588 391 
Q 1994 391 2212 530 
Q 2431 669 2431 922 
Q 2431 1156 2273 1281 
Q 2116 1406 1581 1522 
L 1381 1569 
Q 847 1681 609 1914 
Q 372 2147 372 2553 
Q 372 3047 722 3315 
Q 1072 3584 1716 3584 
Q 2034 3584 2315 3537 
Q 2597 3491 2834 3397 
z
" transform="scale(0.015625)"/>
       <path id="DejaVuSans-65" d="M 3597 1894 
L 3597 1613 
L 953 1613 
Q 991 1019 1311 708 
Q 1631 397 2203 397 
Q 2534 397 2845 478 
Q 3156 559 3463 722 
L 3463 178 
Q 3153 47 2828 -22 
Q 2503 -91 2169 -91 
Q 1331 -91 842 396 
Q 353 884 353 1716 
Q 353 2575 817 3079 
Q 1281 3584 2069 3584 
Q 2775 3584 3186 3129 
Q 3597 2675 3597 1894 
z
M 3022 2063 
Q 3016 2534 2758 2815 
Q 2500 3097 2075 3097 
Q 1594 3097 1305 2825 
Q 1016 2553 972 2059 
L 3022 2063 
z
" transform="scale(0.015625)"/>
       <path id="DejaVuSans-20" transform="scale(0.015625)"/>
       <path id="DejaVuSans-50" d="M 1259 4147 
L 1259 2394 
L 2053 2394 
Q 2494 2394 2734 2622 
Q 2975 2850 2975 3272 
Q 2975 3691 2734 3919 
Q 2494 4147 2053 4147 
L 1259 4147 
z
M 628 4666 
L 2053 4666 
Q 2838 4666 3239 4311 
Q 3641 3956 3641 3272 
Q 3641 2581 3239 2228 
Q 2838 1875 2053 1875 
L 1259 1875 
L 1259 0 
L 628 0 
L 628 4666 
z
" transform="scale(0.015625)"/>
       <path id="DejaVuSans-6f" d="M 1959 3097 
Q 1497 3097 1228 2736 
Q 959 2375 959 1747 
Q 959 1119 1226 758 
Q 1494 397 1959 397 
Q 2419 397 2687 759 
Q 2956 1122 2956 1747 
Q 2956 2369 2687 2733 
Q 2419 3097 1959 3097 
z
M 1959 3584 
Q 2709 3584 3137 3096 
Q 3566 2609 3566 1747 
Q 3566 888 3137 398 
Q 2709 -91 1959 -91 
Q 1206 -91 779 398 
Q 353 888 353 1747 
Q 353 2609 779 3096 
Q 1206 3584 1959 3584 
z
" transform="scale(0.015625)"/>
       <path id="DejaVuSans-69" d="M 603 3500 
L 1178 3500 
L 1178 0 
L 603 0 
L 603 3500 
z
M 603 4863 
L 1178 4863 
L 1178 4134 
L 603 4134 
L 603 4863 
z
" transform="scale(0.015625)"/>
       <path id="DejaVuSans-74" d="M 1172 4494 
L 1172 3500 
L 2356 3500 
L 2356 3053 
L 1172 3053 
L 1172 1153 
Q 1172 725 1289 603 
Q 1406 481 1766 481 
L 2356 481 
L 2356 0 
L 1766 0 
Q 1100 0 847 248 
Q 594 497 594 1153 
L 594 3053 
L 172 3053 
L 172 3500 
L 594 3500 
L 594 4494 
L 1172 4494 
z
" transform="scale(0.015625)"/>
       <path id="DejaVuSans-76" d="M 191 3500 
L 800 3500 
L 1894 563 
L 2988 3500 
L 3597 3500 
L 2284 0 
L 1503 0 
L 191 3500 
z
" transform="scale(0.015625)"/>
       <path id="DejaVuSans-52" d="M 2841 2188 
Q 3044 2119 3236 1894 
Q 3428 1669 3622 1275 
L 4263 0 
L 3584 0 
L 2988 1197 
Q 2756 1666 2539 1819 
Q 2322 1972 1947 1972 
L 1259 1972 
L 1259 0 
L 628 0 
L 628 4666 
L 2053 4666 
Q 2853 4666 3247 4331 
Q 3641 3997 3641 3322 
Q 3641 2881 3436 2590 
Q 3231 2300 2841 2188 
z
M 1259 4147 
L 1259 2491 
L 2053 2491 
Q 2509 2491 2742 2702 
Q 2975 2913 2975 3322 
Q 2975 3731 2742 3939 
Q 2509 4147 2053 4147 
L 1259 4147 
z
" transform="scale(0.015625)"/>
      </defs>
      <use xlink:href="#DejaVuSans-46"/>
      <use xlink:href="#DejaVuSans-61" x="48.394531"/>
      <use xlink:href="#DejaVuSans-6c" x="109.673828"/>
      <use xlink:href="#DejaVuSans-73" x="137.457031"/>
      <use xlink:href="#DejaVuSans-65" x="189.556641"/>
      <use xlink:href="#DejaVuSans-20" x="251.080078"/>
      <use xlink:href="#DejaVuSans-50" x="282.867188"/>
      <use xlink:href="#DejaVuSans-6f" x="339.544922"/>
      <use xlink:href="#DejaVuSans-73" x="400.726562"/>
      <use xlink:href="#DejaVuSans-69" x="452.826172"/>
      <use xlink:href="#DejaVuSans-74" x="480.609375"/>
      <use xlink:href="#DejaVuSans-69" x="519.818359"/>
      <use xlink:href="#DejaVuSans-76" x="547.601562"/>
      <use xlink:href="#DejaVuSans-65" x="606.78125"/>
      <use xlink:href="#DejaVuSans-20" x="668.304688"/>
      <use xlink:href="#DejaVuSans-52" x="700.091797"/>
      <use xlink:href="#DejaVuSans-61" x="767.324219"/>
      <use xlink:href="#DejaVuSans-74" x="828.603516"/>
      <use xlink:href="#DejaVuSans-65" x="867.8125"/>
     </g>
    </g>
   </g>
   <g id="matplotlib.axis_2">
    <g id="ytick_1">
     <g id="line2d_7">
      <defs>
       <path id="m76d4f7250d" d="M 0 0 
L -3.5 0 
" style="stroke: #000000; stroke-width: 0.8"/>
      </defs>
      <g>
       <use xlink:href="#m76d4f7250d" x="57.6" y="307.584" style="stroke: #000000; stroke-width: 0.8"/>
      </g>
     </g>
     <g id="text_8">
      <!-- 0.0 -->
      <g transform="translate(34.696875 311.383219)scale(0.1 -0.1)">
       <use xlink:href="#DejaVuSans-30"/>
       <use xlink:href="#DejaVuSans-2e" x="63.623047"/>
       <use xlink:href="#DejaVuSans-30" x="95.410156"/>
      </g>
     </g>
    </g>
    <g id="ytick_2">
     <g id="line2d_8">
      <g>
       <use xlink:href="#m76d4f7250d" x="57.6" y="256.896" style="stroke: #000000; stroke-width: 0.8"/>
      </g>
     </g>
     <g id="text_9">
      <!-- 0.2 -->
      <g transform="translate(34.696875 260.695219)scale(0.1 -0.1)">
       <use xlink:href="#DejaVuSans-30"/>
       <use xlink:href="#DejaVuSans-2e" x="63.623047"/>
       <use xlink:href="#DejaVuSans-32" x="95.410156"/>
      </g>
     </g>
    </g>
    <g id="ytick_3">
     <g id="line2d_9">
      <g>
       <use xlink:href="#m76d4f7250d" x="57.6" y="206.208" style="stroke: #000000; stroke-width: 0.8"/>
      </g>
     </g>
     <g id="text_10">
      <!-- 0.4 -->
      <g transform="translate(34.696875 210.007219)scale(0.1 -0.1)">
       <use xlink:href="#DejaVuSans-30"/>
       <use xlink:href="#DejaVuSans-2e" x="63.623047"/>
       <use xlink:href="#DejaVuSans-34" x="95.410156"/>
      </g>
     </g>
    </g>
    <g id="ytick_4">
     <g id="line2d_10">
      <g>
       <use xlink:href="#m76d4f7250d" x="57.6" y="155.52" style="stroke: #000000; stroke-width: 0.8"/>
      </g>
     </g>
     <g id="text_11">
      <!-- 0.6 -->
      <g transform="translate(34.696875 159.319219)scale(0.1 -0.1)">
       <use xlink:href="#DejaVuSans-30"/>
       <use xlink:href="#DejaVuSans-2e" x="63.623047"/>
       <use xlink:href="#DejaVuSans-36" x="95.410156"/>
      </g>
     </g>
    </g>
    <g id="ytick_5">
     <g id="line2d_11">
      <g>
       <use xlink:href="#m76d4f7250d" x="57.6" y="104.832" style="stroke: #000000; stroke-width: 0.8"/>
      </g>
     </g>
     <g id="text_12">
      <!-- 0.8 -->
      <g transform="translate(34.696875 108.631219)scale(0.1 -0.1)">
       <use xlink:href="#DejaVuSans-30"/>
       <use xlink:href="#DejaVuSans-2e" x="63.623047"/>
       <use xlink:href="#DejaVuSans-38" x="95.410156"/>
      </g>
     </g>
    </g>
    <g id="ytick_6">
     <g id="line2d_12">
      <g>
       <use xlink:href="#m76d4f7250d" x="57.6" y="54.144" style="stroke: #000000; stroke-width: 0.8"/>
      </g>
     </g>
     <g id="text_13">
      <!-- 1.0 -->
      <g transform="translate(34.696875 57.943219)scale(0.1 -0.1)">
       <use xlink:href="#DejaVuSans-31"/>
       <use xlink:href="#DejaVuSans-2e" x="63.623047"/>
       <use xlink:href="#DejaVuSans-30" x="95.410156"/>
      </g>
     </g>
    </g>
    <g id="text_14">
     <!-- True Positive Rate -->
     <g transform="translate(28.617187 219.057687)rotate(-90)scale(0.1 -0.1)">
      <defs>
       <path id="DejaVuSans-54" d="M -19 4666 
L 3928 4666 
L 3928 4134 
L 2272 4134 
L 2272 0 
L 1638 0 
L 1638 4134 
L -19 4134 
L -19 4666 
z
" transform="scale(0.015625)"/>
       <path id="DejaVuSans-72" d="M 2631 2963 
Q 2534 3019 2420 3045 
Q 2306 3072 2169 3072 
Q 1681 3072 1420 2755 
Q 1159 2438 1159 1844 
L 1159 0 
L 581 0 
L 581 3500 
L 1159 3500 
L 1159 2956 
Q 1341 3275 1631 3429 
Q 1922 3584 2338 3584 
Q 2397 3584 2469 3576 
Q 2541 3569 2628 3553 
L 2631 2963 
z
" transform="scale(0.015625)"/>
       <path id="DejaVuSans-75" d="M 544 1381 
L 544 3500 
L 1119 3500 
L 1119 1403 
Q 1119 906 1312 657 
Q 1506 409 1894 409 
Q 2359 409 2629 706 
Q 2900 1003 2900 1516 
L 2900 3500 
L 3475 3500 
L 3475 0 
L 2900 0 
L 2900 538 
Q 2691 219 2414 64 
Q 2138 -91 1772 -91 
Q 1169 -91 856 284 
Q 544 659 544 1381 
z
M 1991 3584 
L 1991 3584 
z
" transform="scale(0.015625)"/>
      </defs>
      <use xlink:href="#DejaVuSans-54"/>
      <use xlink:href="#DejaVuSans-72" x="46.333984"/>
      <use xlink:href="#DejaVuSans-75" x="87.447266"/>
      <use xlink:href="#DejaVuSans-65" x="150.826172"/>
      <use xlink:href="#DejaVuSans-20" x="212.349609"/>
      <use xlink:href="#DejaVuSans-50" x="244.136719"/>
      <use xlink:href="#DejaVuSans-6f" x="300.814453"/>
      <use xlink:href="#DejaVuSans-73" x="361.996094"/>
      <use xlink:href="#DejaVuSans-69" x="414.095703"/>
      <use xlink:href="#DejaVuSans-74" x="441.878906"/>
      <use xlink:href="#DejaVuSans-69" x="481.087891"/>
      <use xlink:href="#DejaVuSans-76" x="508.871094"/>
      <use xlink:href="#DejaVuSans-65" x="568.050781"/>
      <use xlink:href="#DejaVuSans-20" x="629.574219"/>
      <use xlink:href="#DejaVuSans-52" x="661.361328"/>
      <use xlink:href="#DejaVuSans-61" x="728.59375"/>
      <use xlink:href="#DejaVuSans-74" x="789.873047"/>
      <use xlink:href="#DejaVuSans-65" x="829.082031"/>
     </g>
    </g>
   </g>
   <g id="line2d_13">
    <path d="M 74.605714 307.584 
L 74.848933 307.474303 
L 74.952192 307.370815 
L 74.958868 307.370815 
L 75.097293 307.261117 
L 75.207063 307.14935 
L 75.291122 307.039653 
L 75.401513 306.942375 
L 75.402218 306.942375 
L 75.530898 306.832677 
L 75.644234 306.714701 
L 75.758524 306.605004 
L 75.869496 306.449772 
L 75.959402 306.340074 
L 76.06913 306.240726 
L 76.07025 306.240726 
L 76.1597 306.131029 
L 76.269345 306.023401 
L 76.270465 306.023401 
L 76.357758 305.913704 
L 76.468025 305.760542 
L 76.468108 305.760542 
L 76.569086 305.650844 
L 76.678566 305.491473 
L 76.679602 305.491473 
L 76.75827 305.381776 
L 76.872104 305.230683 
L 76.970469 305.120986 
L 77.079575 305.00094 
L 77.080902 305.00094 
L 77.166288 304.891243 
L 77.275228 304.748429 
L 77.277302 304.748429 
L 77.35684 304.638732 
L 77.46632 304.508337 
L 77.467522 304.508337 
L 77.555023 304.39864 
L 77.662263 304.278594 
L 77.66612 304.278594 
L 77.756564 304.168897 
L 77.865919 304.044711 
L 77.867495 304.044711 
L 77.965819 303.935014 
L 78.076792 303.781852 
L 78.170927 303.672154 
L 78.282024 303.510713 
L 78.37927 303.401016 
L 78.489703 303.262342 
L 78.490035 303.262342 
L 78.600385 303.152645 
L 78.710362 303.009831 
L 78.71057 303.009831 
L 78.800766 302.900134 
L 78.911655 302.775948 
L 79.001768 302.666251 
L 79.112077 302.519298 
L 79.11245 302.519298 
L 79.231136 302.409601 
L 79.340657 302.281276 
L 79.342232 302.281276 
L 79.40933 302.171579 
L 79.515533 302.026695 
L 79.519763 302.026695 
L 79.586322 301.916998 
L 79.695552 301.749348 
L 79.696921 301.749348 
L 79.789522 301.63965 
L 79.898877 301.474069 
L 79.900619 301.474069 
L 79.971449 301.364372 
L 80.082297 301.236047 
L 80.082421 301.236047 
L 80.175022 301.12635 
L 80.284502 300.971118 
L 80.285953 300.971118 
L 80.353424 300.861421 
L 80.46054 300.675142 
L 80.463567 300.675142 
L 80.539539 300.565445 
L 80.650262 300.389515 
L 80.650636 300.389515 
L 80.730755 300.279818 
L 80.841437 300.09354 
L 80.912391 299.983843 
L 81.022202 299.801704 
L 81.023405 299.801704 
L 81.105846 299.694076 
L 81.105846 299.692006 
L 81.215947 299.4871 
L 81.216404 299.4871 
L 81.283543 299.377403 
L 81.394142 299.178706 
L 81.394515 299.178706 
L 81.445647 299.069009 
L 81.555043 298.903428 
L 81.555209 298.903428 
L 81.625832 298.795801 
L 81.735975 298.611592 
L 81.736721 298.611592 
L 81.793493 298.503964 
L 81.900277 298.299058 
L 81.904548 298.299058 
L 81.958707 298.189361 
L 82.066942 298.003083 
L 82.069679 298.003083 
L 82.147186 297.893385 
L 82.257619 297.696758 
L 82.257785 297.696758 
L 82.33355 297.587061 
L 82.44361 297.375945 
L 82.443983 297.375945 
L 82.491258 297.266248 
L 82.597461 297.050993 
L 82.601318 297.050993 
L 82.663087 296.941296 
L 82.776153 296.73225 
L 82.839477 296.622553 
L 82.948874 296.413507 
L 82.94991 296.413507 
L 83.025177 296.30381 
L 83.131795 296.067857 
L 83.136274 296.067857 
L 83.20192 295.95816 
L 83.312561 295.742905 
L 83.366595 295.633208 
L 83.477651 295.384837 
L 83.532722 295.275139 
L 83.640253 295.066094 
L 83.642824 295.066094 
L 83.688772 294.956396 
L 83.799578 294.695607 
L 83.799786 294.695607 
L 83.846231 294.585909 
L 83.957121 294.349957 
L 84.003649 294.24026 
L 84.114622 293.971191 
L 84.114705 293.971191 
L 84.172596 293.861493 
L 84.282615 293.608983 
L 84.282863 293.608983 
L 84.330387 293.499286 
L 84.441111 293.236426 
L 84.484737 293.126729 
L 84.595128 292.830753 
L 84.595792 292.830753 
L 84.640289 292.721056 
L 84.751012 292.470615 
L 84.751385 292.470615 
L 84.803595 292.360918 
L 84.913655 292.069082 
L 84.914609 292.069082 
L 84.952139 291.959384 
L 85.062904 291.73999 
L 85.063111 291.73999 
L 85.100932 291.630293 
L 85.211655 291.344666 
L 85.212028 291.344666 
L 85.262165 291.234968 
L 85.37322 290.936923 
L 85.412906 290.827226 
L 85.523215 290.527111 
L 85.523505 290.527111 
L 85.561118 290.417413 
L 85.671178 290.158693 
L 85.671883 290.158693 
L 85.710035 290.048996 
L 85.818727 289.748881 
L 85.821007 289.748881 
L 85.867495 289.639184 
L 85.977969 289.355627 
L 85.978384 289.355627 
L 86.020227 289.245929 
L 86.130867 288.954093 
L 86.131282 288.954093 
L 86.176815 288.844396 
L 86.287871 288.473909 
L 86.323244 288.364212 
L 86.434175 288.066166 
L 86.473654 287.956469 
L 86.584502 287.668773 
L 86.630533 287.559075 
L 86.749467 287.167891 
L 86.789734 287.058194 
L 86.900748 286.708404 
L 86.939273 286.598707 
L 87.049457 286.329638 
L 87.083255 286.219941 
L 87.19373 285.907407 
L 87.194227 285.907407 
L 87.225329 285.79771 
L 87.336177 285.410665 
L 87.363215 285.300968 
L 87.474312 284.940829 
L 87.500645 284.833202 
L 87.610498 284.446157 
L 87.610996 284.446157 
L 87.645664 284.33646 
L 87.756636 284.028065 
L 87.788029 283.918368 
L 87.898669 283.547881 
L 87.899001 283.547881 
L 87.939641 283.438184 
L 88.050406 283.069767 
L 88.08296 282.960069 
L 88.193144 282.599931 
L 88.221094 282.490234 
L 88.331693 282.09698 
L 88.363915 281.987282 
L 88.4741 281.587819 
L 88.475012 281.587819 
L 88.511173 281.478121 
L 88.620943 281.124193 
L 88.622228 281.124193 
L 88.657229 281.014495 
L 88.7772 280.569497 
L 88.808509 280.4598 
L 88.919606 280.010662 
L 88.946064 279.900965 
L 89.056953 279.482873 
L 89.084986 279.373176 
L 89.195876 278.977852 
L 89.195959 278.977852 
L 89.23183 278.868155 
L 89.342553 278.460412 
L 89.342926 278.460412 
L 89.374733 278.350715 
L 89.483591 277.969879 
L 89.484628 277.969879 
L 89.508307 277.860182 
L 89.618657 277.419323 
L 89.619196 277.419323 
L 89.6481 277.309626 
L 89.75899 276.93086 
L 89.759197 276.93086 
L 89.788806 276.821162 
L 89.899364 276.41135 
L 89.899861 276.41135 
L 89.929595 276.301653 
L 90.048986 275.864933 
L 90.077558 275.755236 
L 90.188406 275.318517 
L 90.188613 275.318517 
L 90.213578 275.208819 
L 90.324467 274.759682 
L 90.324675 274.759682 
L 90.351298 274.649984 
L 90.462229 274.1698 
L 90.488977 274.060103 
L 90.598249 273.600616 
L 90.599949 273.600616 
L 90.628977 273.490919 
L 90.740033 273.010735 
L 90.763795 272.901037 
L 90.874891 272.460179 
L 90.897824 272.350481 
L 91.008796 271.876506 
L 91.035793 271.766809 
L 91.144858 271.315602 
L 91.146848 271.315602 
L 91.173057 271.205904 
L 91.284029 270.72572 
L 91.311897 270.616023 
L 91.422579 270.137908 
L 91.422869 270.137908 
L 91.453639 270.028211 
L 91.564736 269.494213 
L 91.593972 269.384516 
L 91.704115 268.898122 
L 91.704613 268.898122 
L 91.729867 268.788425 
L 91.840508 268.335148 
L 91.84084 268.335148 
L 91.86398 268.22752 
L 91.86398 268.22545 
L 91.974911 267.724569 
L 92.002778 267.614871 
L 92.113875 267.095362 
L 92.134651 266.985664 
L 92.245084 266.474434 
L 92.245499 266.474434 
L 92.271293 266.363702 
L 92.381767 265.913529 
L 92.382265 265.913529 
L 92.402958 265.803832 
L 92.513143 265.288461 
L 92.514055 265.288461 
L 92.533546 265.178764 
L 92.644601 264.644766 
L 92.675205 264.535069 
L 92.785846 264.046606 
L 92.786095 264.046606 
L 92.805751 263.936908 
L 92.916641 263.419468 
L 92.916848 263.419468 
L 92.940776 263.309771 
L 93.051624 262.835796 
L 93.051873 262.835796 
L 93.072068 262.726099 
L 93.18275 262.173473 
L 93.183165 262.173473 
L 93.206263 262.063776 
L 93.317236 261.575313 
L 93.317277 261.575313 
L 93.338675 261.465615 
L 93.459725 260.968873 
L 93.486846 260.859176 
L 93.597901 260.401759 
L 93.623778 260.292062 
L 93.734792 259.822226 
L 93.760544 259.712529 
L 93.87106 259.228205 
L 93.900711 259.118508 
L 94.01131 258.632114 
L 94.011808 258.632114 
L 94.040795 258.522417 
L 94.151436 258.077419 
L 94.151892 258.077419 
L 94.179427 257.967722 
L 94.289612 257.502026 
L 94.289985 257.502026 
L 94.315033 257.392328 
L 94.425963 256.883167 
L 94.426129 256.883167 
L 94.456692 256.77347 
L 94.567499 256.287077 
L 94.599969 256.177379 
L 94.710651 255.684777 
L 94.711025 255.684777 
L 94.735035 255.575079 
L 94.84551 255.115593 
L 94.846132 255.115593 
L 94.881298 255.007965 
L 94.881298 255.005895 
L 94.992146 254.583665 
L 94.992395 254.583665 
L 95.014705 254.473967 
L 95.135755 253.977225 
L 95.17569 253.867528 
L 95.286621 253.408041 
L 95.286787 253.408041 
L 95.308641 253.298344 
L 95.419655 252.834718 
L 95.444205 252.72502 
L 95.555094 252.219999 
L 95.55526 252.219999 
L 95.580432 252.110302 
L 95.690948 251.646676 
L 95.691487 251.646676 
L 95.718318 251.536978 
L 95.828793 251.114747 
L 95.829 251.114747 
L 95.863378 251.00505 
L 95.974143 250.638703 
L 96.00396 250.529005 
L 96.113771 250.117123 
L 96.115015 250.117123 
L 96.150057 250.007426 
L 96.271272 249.494126 
L 96.306604 249.384428 
L 96.41683 248.972546 
L 96.417659 248.972546 
L 96.451664 248.861814 
L 96.561848 248.430269 
L 96.562512 248.430269 
L 96.599503 248.320572 
L 96.710433 247.914899 
L 96.710599 247.914899 
L 96.737389 247.805202 
L 96.847988 247.362273 
L 96.848236 247.362273 
L 96.87598 247.252576 
L 96.986827 246.846903 
L 96.987076 246.846903 
L 97.013119 246.737206 
L 97.121769 246.385347 
L 97.123926 246.385347 
L 97.162948 246.275649 
L 97.274004 245.915511 
L 97.299673 245.805814 
L 97.41077 245.453955 
L 97.443904 245.344257 
L 97.554752 245.017235 
L 97.554959 245.017235 
L 97.584734 244.906503 
L 97.695375 244.508075 
L 97.695748 244.508075 
L 97.733444 244.398377 
L 97.844209 244.023751 
L 97.844416 244.023751 
L 97.873113 243.914053 
L 97.983919 243.539427 
L 97.984044 243.539427 
L 98.021117 243.42973 
L 98.132173 243.026127 
L 98.132214 243.026127 
L 98.168002 242.916429 
L 98.278394 242.543873 
L 98.279099 242.543873 
L 98.307962 242.434175 
L 98.418395 242.105084 
L 98.418436 242.105084 
L 98.449787 241.995386 
L 98.560345 241.645597 
L 98.560884 241.645597 
L 98.590742 241.5359 
L 98.701341 241.184041 
L 98.701839 241.184041 
L 98.732754 241.074343 
L 98.847355 240.705926 
L 98.876674 240.598299 
L 98.987149 240.256788 
L 98.987563 240.256788 
L 99.024305 240.147091 
L 99.14353 239.735209 
L 99.176042 239.625511 
L 99.286392 239.273652 
L 99.286475 239.273652 
L 99.319858 239.163955 
L 99.430955 238.815201 
L 99.556442 238.458167 
L 99.592105 238.34847 
L 99.702953 238.019378 
L 99.703161 238.019378 
L 99.745708 237.909681 
L 99.856598 237.553682 
L 99.856805 237.553682 
L 99.897569 237.443985 
L 100.008625 237.119033 
L 100.035829 237.009335 
L 100.146884 236.618151 
L 100.146925 236.618151 
L 100.182672 236.508453 
L 100.293313 236.144176 
L 100.293686 236.144176 
L 100.328582 236.034478 
L 100.443225 235.666061 
L 100.48486 235.556364 
L 100.595293 235.225202 
L 100.595957 235.225202 
L 100.628178 235.115505 
L 100.746864 234.736739 
L 100.782279 234.631181 
L 100.782279 234.627042 
L 100.893293 234.256555 
L 100.893376 234.256555 
L 100.928086 234.146858 
L 101.038187 233.815696 
L 101.039141 233.815696 
L 101.081854 233.705999 
L 101.192412 233.393465 
L 101.192951 233.393465 
L 101.232679 233.283768 
L 101.343776 232.913281 
L 101.381388 232.803584 
L 101.491075 232.503469 
L 101.492444 232.503469 
L 101.532337 232.393771 
L 101.643434 232.052261 
L 101.690543 231.942564 
L 101.798903 231.596914 
L 101.80164 231.596914 
L 101.840538 231.487217 
L 101.951054 231.135357 
L 101.951594 231.135357 
L 101.98564 231.02566 
L 102.095451 230.744173 
L 102.096737 230.744173 
L 102.13294 230.634476 
L 102.242917 230.270198 
L 102.244016 230.270198 
L 102.281981 230.160501 
L 102.392538 229.856246 
L 102.393036 229.856246 
L 102.424428 229.746549 
L 102.535193 229.365713 
L 102.535359 229.365713 
L 102.58562 229.256016 
L 102.69651 228.881389 
L 102.696717 228.881389 
L 102.734703 228.771692 
L 102.844099 228.469507 
L 102.845592 228.469507 
L 102.89067 228.361879 
L 102.89067 228.360845 
L 103.00073 228.063834 
L 103.001766 228.063834 
L 103.037596 227.954137 
L 103.14637 227.645743 
L 103.148237 227.645743 
L 103.188669 227.536045 
L 103.299642 227.202814 
L 103.352432 227.093117 
L 103.463467 226.714351 
L 103.463487 226.714351 
L 103.500229 226.604653 
L 103.610787 226.29005 
L 103.611326 226.29005 
L 103.649063 226.180353 
L 103.759704 225.826424 
L 103.760077 225.826424 
L 103.800883 225.716727 
L 103.910404 225.402123 
L 103.911855 225.402123 
L 103.965185 225.292426 
L 104.075867 224.917799 
L 104.116383 224.808102 
L 104.227479 224.512126 
L 104.268534 224.402429 
L 104.379216 224.100244 
L 104.379589 224.100244 
L 104.415875 223.990547 
L 104.525852 223.696641 
L 104.526433 223.696641 
L 104.55965 223.586944 
L 104.669129 223.27441 
L 104.670622 223.27441 
L 104.720551 223.164713 
L 104.831524 222.912202 
L 104.831648 222.912202 
L 104.868597 222.802505 
L 104.978616 222.475483 
L 104.979653 222.475483 
L 105.011377 222.365786 
L 105.011377 222.364751 
L 105.136324 222.020136 
L 105.177047 221.910439 
L 105.287978 221.573068 
L 105.288144 221.573068 
L 105.318666 221.463371 
L 105.42943 221.138418 
L 105.429762 221.138418 
L 105.472559 221.028721 
L 105.58349 220.747234 
L 105.624005 220.637536 
L 105.734438 220.360189 
L 105.735102 220.360189 
L 105.771097 220.250491 
L 105.771097 220.249456 
L 105.897745 219.857237 
L 105.94726 219.74754 
L 106.05761 219.455704 
L 106.058356 219.455704 
L 106.095969 219.346006 
L 106.206568 219.010705 
L 106.206859 219.010705 
L 106.248245 218.901008 
L 106.362659 218.559498 
L 106.404419 218.4498 
L 106.514728 218.100011 
L 106.515474 218.100011 
L 106.548691 217.990314 
L 106.658586 217.692268 
L 106.659705 217.692268 
L 106.706649 217.582571 
L 106.817579 217.280386 
L 106.817745 217.280386 
L 106.861952 217.170689 
L 106.975785 216.895411 
L 107.023766 216.785714 
L 107.134738 216.448343 
L 107.134862 216.448343 
L 107.177576 216.338646 
L 107.285562 216.065437 
L 107.288673 216.065437 
L 107.330308 215.95574 
L 107.448206 215.61423 
L 107.47769 215.504532 
L 107.588621 215.196138 
L 107.588746 215.196138 
L 107.630962 215.086441 
L 107.742058 214.800814 
L 107.785021 214.691117 
L 107.894832 214.40342 
L 107.895786 214.40342 
L 107.940282 214.293723 
L 108.049845 214.010166 
L 108.051379 214.010166 
L 108.092144 213.900469 
L 108.202743 213.600354 
L 108.20324 213.600354 
L 108.255575 213.490656 
L 108.366671 213.157425 
L 108.417015 213.047728 
L 108.527905 212.753822 
L 108.528112 212.753822 
L 108.568752 212.644125 
L 108.678978 212.300545 
L 108.679849 212.300545 
L 108.725756 212.192917 
L 108.725756 212.190847 
L 108.83594 211.90729 
L 108.836811 211.90729 
L 108.886906 211.797593 
L 108.886906 211.796558 
L 108.997961 211.47471 
L 109.045444 211.365013 
L 109.156043 211.029712 
L 109.156457 211.029712 
L 109.196019 210.920015 
L 109.305167 210.655086 
L 109.306826 210.655086 
L 109.349498 210.545388 
L 109.46018 210.232855 
L 109.460553 210.232855 
L 109.518113 210.123157 
L 109.628878 209.858228 
L 109.628961 209.858228 
L 109.667652 209.748531 
L 109.77767 209.471183 
L 109.778748 209.471183 
L 109.832202 209.361486 
L 109.940769 209.086208 
L 109.943133 209.086208 
L 109.996421 208.976511 
L 110.107311 208.71986 
L 110.107518 208.71986 
L 110.157489 208.610163 
L 110.266388 208.349373 
L 110.268586 208.349373 
L 110.308521 208.239676 
L 110.419617 207.94991 
L 110.452793 207.840212 
L 110.562438 207.552516 
L 110.563807 207.552516 
L 110.604903 207.442819 
L 110.715502 207.196517 
L 110.715544 207.196517 
L 110.774762 207.08682 
L 110.885029 206.819821 
L 110.885817 206.819821 
L 110.94375 206.710124 
L 111.054805 206.447264 
L 111.054847 206.447264 
L 111.103283 206.337567 
L 111.213302 206.066428 
L 111.21438 206.066428 
L 111.244943 205.956731 
L 111.354007 205.679383 
L 111.355915 205.679383 
L 111.389091 205.569686 
L 111.500146 205.288199 
L 111.542362 205.178502 
L 111.653417 204.884596 
L 111.653458 204.884596 
L 111.714377 204.774898 
L 111.824893 204.49962 
L 111.825432 204.49962 
L 111.864787 204.389923 
L 111.974888 204.135343 
L 111.975759 204.135343 
L 112.025564 204.024611 
L 112.136412 203.744158 
L 112.136661 203.744158 
L 112.188995 203.634461 
L 112.298682 203.388159 
L 112.300092 203.388159 
L 112.333558 203.278462 
L 112.444074 203.030091 
L 112.444654 203.030091 
L 112.490727 202.920394 
L 112.601824 202.672023 
L 112.650094 202.562325 
L 112.760237 202.287047 
L 112.761191 202.287047 
L 112.801955 202.17735 
L 112.909817 201.943467 
L 112.913052 201.943467 
L 112.965635 201.83377 
L 113.076234 201.525376 
L 113.076649 201.525376 
L 113.125625 201.415678 
L 113.235519 201.192144 
L 113.236597 201.192144 
L 113.289947 201.082447 
L 113.403511 200.832006 
L 113.45398 200.722309 
L 113.564289 200.500845 
L 113.565035 200.500845 
L 113.613513 200.391147 
L 113.722101 200.126218 
L 113.72461 200.126218 
L 113.783538 200.016521 
L 113.893764 199.76401 
L 113.894593 199.76401 
L 113.933284 199.654313 
L 114.044215 199.426639 
L 114.044256 199.426639 
L 114.089292 199.316942 
L 114.204826 199.093408 
L 114.261017 198.983711 
L 114.371616 198.745689 
L 114.372114 198.745689 
L 114.419513 198.635991 
L 114.528474 198.412457 
L 114.530486 198.412457 
L 114.581659 198.301725 
L 114.691719 198.04611 
L 114.692383 198.04611 
L 114.743597 197.936413 
L 114.85457 197.69632 
L 114.854653 197.69632 
L 114.917271 197.586623 
L 115.033054 197.338252 
L 115.088043 197.228555 
L 115.199057 196.987428 
L 115.199098 196.987428 
L 115.332091 196.717324 
L 115.373228 196.607627 
L 115.483703 196.396511 
L 115.484325 196.396511 
L 115.536162 196.286814 
L 115.646927 196.015676 
L 115.647259 196.015676 
L 115.695736 195.905978 
L 115.806709 195.645189 
L 115.806833 195.645189 
L 115.84822 195.535491 
L 115.959192 195.282981 
L 115.959275 195.282981 
L 116.014139 195.173283 
L 116.124614 194.929052 
L 116.125194 194.929052 
L 116.184786 194.819354 
L 116.295343 194.604099 
L 116.2958 194.604099 
L 116.352157 194.493367 
L 116.463253 194.310194 
L 116.510155 194.199461 
L 116.620588 194.012148 
L 116.620879 194.012148 
L 116.678812 193.902451 
L 116.787296 193.689266 
L 116.789908 193.689266 
L 116.840874 193.579568 
L 116.95054 193.335337 
L 116.951971 193.335337 
L 117.067588 193.107663 
L 117.134146 192.997966 
L 117.245202 192.822036 
L 117.291316 192.712339 
L 117.400629 192.453619 
L 117.402329 192.453619 
L 117.448713 192.342887 
L 117.559706 192.128667 
L 117.55981 192.128667 
L 117.624315 192.01897 
L 117.733504 191.766459 
L 117.735246 191.766459 
L 117.793718 191.656762 
L 117.904773 191.437367 
L 117.904815 191.437367 
L 117.961711 191.32767 
L 118.075068 191.099996 
L 118.13638 190.990299 
L 118.246814 190.789532 
L 118.247394 190.789532 
L 118.313455 190.679835 
L 118.424137 190.46251 
L 118.42451 190.46251 
L 118.474896 190.352813 
L 118.584997 190.135488 
L 118.585992 190.135488 
L 118.639446 190.025791 
L 118.750377 189.810536 
L 118.750543 189.810536 
L 118.811877 189.700839 
L 118.922807 189.493863 
L 118.965438 189.384166 
L 119.076535 189.17098 
L 119.139734 189.061283 
L 119.248426 188.841889 
L 119.250831 188.841889 
L 119.317058 188.732191 
L 119.42662 188.504518 
L 119.428113 188.504518 
L 119.488451 188.394821 
L 119.59934 188.212682 
L 119.599423 188.212682 
L 119.659844 188.102984 
L 119.770277 187.88152 
L 119.770816 187.88152 
L 119.825556 187.771823 
L 119.93657 187.560707 
L 119.988117 187.45101 
L 120.098757 187.250243 
L 120.099213 187.250243 
L 120.14624 187.140546 
L 120.256258 186.923221 
L 120.257336 186.923221 
L 120.318918 186.813524 
L 120.429829 186.629316 
L 120.430015 186.629316 
L 120.507148 186.519618 
L 120.507148 186.518583 
L 120.629857 186.327131 
L 120.701765 186.217433 
L 120.812281 186.033225 
L 120.812861 186.033225 
L 120.879171 185.923527 
L 120.990226 185.685505 
L 120.990268 185.685505 
L 121.055002 185.575808 
L 121.165808 185.354344 
L 121.166015 185.354344 
L 121.221833 185.244646 
L 121.33293 185.074926 
L 121.385347 184.966264 
L 121.385347 184.965229 
L 121.500487 184.764462 
L 121.575879 184.654765 
L 121.688655 184.482975 
L 121.757204 184.373277 
L 121.867596 184.166302 
L 121.868301 184.166302 
L 121.935481 184.056604 
L 122.050435 183.864117 
L 122.110317 183.753384 
L 122.217017 183.568141 
L 122.221123 183.568141 
L 122.28876 183.458444 
L 122.399131 183.278375 
L 122.399815 183.278375 
L 122.468696 183.168677 
L 122.577304 182.996887 
L 122.579751 182.996887 
L 122.659165 182.88719 
L 122.76993 182.707121 
L 122.770262 182.707121 
L 122.852122 182.596389 
L 122.963219 182.36975 
L 123.028741 182.260053 
L 123.138096 182.065495 
L 123.139838 182.065495 
L 123.206396 181.955798 
L 123.314673 181.777799 
L 123.317368 181.777799 
L 123.399519 181.667067 
L 123.506013 181.525288 
L 123.510616 181.525288 
L 123.58016 181.415591 
L 123.68823 181.25208 
L 123.691216 181.25208 
L 123.741103 181.142383 
L 123.851868 180.985081 
L 123.8522 180.985081 
L 123.940654 180.875384 
L 124.050714 180.687036 
L 124.051751 180.687036 
L 124.125359 180.577338 
L 124.235668 180.401409 
L 124.236207 180.401409 
L 124.308779 180.291711 
L 124.415272 180.111642 
L 124.419876 180.111642 
L 124.500783 180.001945 
L 124.611589 179.836364 
L 124.611838 179.836364 
L 124.691252 179.726667 
L 124.691252 179.725632 
L 124.809191 179.556947 
L 124.898558 179.44725 
L 125.007539 179.294087 
L 125.009654 179.294087 
L 125.086622 179.18439 
L 125.197635 179.01467 
L 125.271036 178.904972 
L 125.381055 178.75388 
L 125.382009 178.75388 
L 125.457856 178.646253 
L 125.567709 178.482742 
L 125.568953 178.482742 
L 125.686975 178.308882 
L 125.750631 178.19815 
L 125.86152 178.002557 
L 125.861727 178.002557 
L 125.935502 177.89286 
L 126.046018 177.72107 
L 126.046557 177.72107 
L 126.107559 177.611373 
L 126.222802 177.396118 
L 126.293217 177.28642 
L 126.400872 177.133258 
L 126.40419 177.133258 
L 126.462579 177.023561 
L 126.573053 176.85591 
L 126.573675 176.85591 
L 126.635714 176.746213 
L 126.745877 176.564074 
L 126.746769 176.564074 
L 126.823487 176.454377 
L 126.931972 176.297075 
L 126.934418 176.297075 
L 127.015906 176.187378 
L 127.130859 175.992821 
L 127.214544 175.883123 
L 127.324563 175.721682 
L 127.325558 175.721682 
L 127.40124 175.611985 
L 127.511259 175.467102 
L 127.512337 175.467102 
L 127.573255 175.357404 
L 127.682362 175.173196 
L 127.684311 175.173196 
L 127.76924 175.063499 
L 127.879756 174.887569 
L 127.880295 174.887569 
L 127.962405 174.777872 
L 128.072589 174.597803 
L 128.07346 174.597803 
L 128.157187 174.487071 
L 128.266998 174.330804 
L 128.268284 174.330804 
L 128.35537 174.221106 
L 128.46008 174.053456 
L 128.466466 174.053456 
L 128.529832 173.943759 
L 128.63591 173.817503 
L 128.640928 173.817503 
L 128.715117 173.707806 
L 128.828909 173.571202 
L 128.909277 173.463574 
L 128.909277 173.461505 
L 129.023505 173.306273 
L 129.085522 173.196575 
L 129.195997 173.064111 
L 129.196536 173.064111 
L 129.276863 172.954413 
L 129.391152 172.786763 
L 129.477782 172.677066 
L 129.588257 172.521834 
L 129.588879 172.521834 
L 129.671299 172.412136 
L 129.783661 172.269323 
L 129.867015 172.159626 
L 129.984581 171.998185 
L 130.068183 171.888487 
L 130.177165 171.735325 
L 130.17928 171.735325 
L 130.255957 171.625628 
L 130.365457 171.476605 
L 130.36668 171.476605 
L 130.473049 171.366908 
L 130.583192 171.213746 
L 130.584146 171.213746 
L 130.696487 171.083351 
L 130.788093 170.973653 
L 130.788093 170.972619 
L 130.905493 170.816352 
L 131.008835 170.706654 
L 131.008835 170.70562 
L 131.125571 170.563841 
L 131.215228 170.454144 
L 131.325205 170.325819 
L 131.326284 170.325819 
L 131.39164 170.216121 
L 131.502031 170.077448 
L 131.502736 170.077448 
L 131.565811 169.96775 
L 131.676659 169.79803 
L 131.676867 169.79803 
L 131.753004 169.688333 
L 131.753004 169.687298 
L 131.868995 169.566217 
L 131.959066 169.45652 
L 132.068048 169.321985 
L 132.070122 169.321985 
L 132.158742 169.212288 
L 132.267765 169.063265 
L 132.269756 169.063265 
L 132.363477 168.953568 
L 132.472209 168.785918 
L 132.474573 168.785918 
L 132.569912 168.67622 
L 132.569912 168.675185 
L 132.68586 168.556174 
L 132.768136 168.446477 
L 132.878486 168.311943 
L 132.879191 168.311943 
L 132.961839 168.204315 
L 133.072729 168.061502 
L 133.072812 168.061502 
L 133.147167 167.951804 
L 133.257475 167.860735 
L 133.258222 167.860735 
L 133.367701 167.751038 
L 133.476932 167.608224 
L 133.478798 167.608224 
L 133.576064 167.498527 
L 133.576064 167.497492 
L 133.689629 167.374341 
L 133.796827 167.264644 
L 133.909334 167.119761 
L 134.012054 167.009029 
L 134.123067 166.858971 
L 134.12315 166.858971 
L 134.219525 166.749274 
L 134.330498 166.600251 
L 134.330622 166.600251 
L 134.414017 166.490554 
L 134.524741 166.324973 
L 134.525073 166.324973 
L 134.601459 166.215276 
L 134.601459 166.214241 
L 134.715127 166.084881 
L 134.831553 165.975184 
L 134.94379 165.855138 
L 135.039957 165.745441 
L 135.151013 165.58193 
L 135.25253 165.471197 
L 135.360765 165.364605 
L 135.363627 165.364605 
L 135.469498 165.254908 
L 135.58047 165.139001 
L 135.580595 165.139001 
L 135.690655 165.029304 
L 135.798724 164.880281 
L 135.801752 164.880281 
L 135.899205 164.770584 
L 136.009265 164.640189 
L 136.010053 164.640189 
L 136.097678 164.530492 
L 136.20865 164.398027 
L 136.208774 164.398027 
L 136.323686 164.287295 
L 136.445814 164.153795 
L 136.549446 164.044098 
L 136.659713 163.932331 
L 136.660501 163.932331 
L 136.750324 163.822634 
L 136.859202 163.692239 
L 136.861379 163.692239 
L 136.946184 163.582542 
L 137.056369 163.462496 
L 137.05724 163.462496 
L 137.15038 163.351764 
L 137.258906 163.209985 
L 137.261477 163.209985 
L 137.35781 163.100288 
L 137.46418 163.000939 
L 137.468907 163.000939 
L 137.550851 162.891242 
L 137.661491 162.760847 
L 137.661947 162.760847 
L 137.756477 162.65115 
L 137.868382 162.551801 
L 137.982921 162.442104 
L 138.09294 162.3055 
L 138.094018 162.3055 
L 138.183592 162.195803 
L 138.297177 162.071617 
L 138.39123 161.96192 
L 138.500958 161.846013 
L 138.502243 161.846013 
L 138.61757 161.736316 
L 138.724893 161.639037 
L 138.728667 161.639037 
L 138.801964 161.52934 
L 138.914201 161.415503 
L 139.021897 161.304771 
L 139.132247 161.18576 
L 139.132952 161.18576 
L 139.234553 161.076063 
L 139.348262 160.939459 
L 139.471592 160.829761 
L 139.583891 160.701436 
L 139.701167 160.590704 
L 139.806873 160.49446 
L 139.811973 160.49446 
L 139.909447 160.384763 
L 140.021726 160.266787 
L 140.113747 160.156055 
L 140.223226 160.055671 
L 140.224802 160.055671 
L 140.31139 159.945974 
L 140.423565 159.832137 
L 140.524585 159.721405 
L 140.633359 159.623092 
L 140.635661 159.623092 
L 140.747193 159.513394 
L 140.863224 159.391278 
L 140.986762 159.281581 
L 141.096117 159.159465 
L 141.097651 159.159465 
L 141.190419 159.049768 
L 141.300769 158.935931 
L 141.301495 158.935931 
L 141.390301 158.826234 
L 141.499449 158.716537 
L 141.501398 158.716537 
L 141.608555 158.60684 
L 141.720502 158.51577 
L 141.827473 158.406073 
L 141.936828 158.277748 
L 141.938549 158.277748 
L 142.038759 158.168051 
L 142.151556 158.074911 
L 142.271486 157.965214 
L 142.37997 157.863796 
L 142.382541 157.863796 
L 142.497785 157.762378 
L 142.622069 157.65268 
L 142.730014 157.553332 
L 142.733124 157.553332 
L 142.854754 157.443635 
L 142.96187 157.294612 
L 142.965768 157.294612 
L 143.083956 157.184915 
L 143.196172 157.058659 
L 143.347432 156.948962 
L 143.459669 156.833056 
L 143.552893 156.723358 
L 143.661584 156.61987 
L 143.663906 156.61987 
L 143.756881 156.510173 
L 143.866941 156.390127 
L 143.867978 156.390127 
L 143.972771 156.28043 
L 144.083412 156.168663 
L 144.083826 156.168663 
L 144.189822 156.058965 
L 144.3032 155.945129 
L 144.424664 155.835431 
L 144.533894 155.740222 
L 144.535761 155.740222 
L 144.644576 155.630525 
L 144.752936 155.50013 
L 144.755673 155.50013 
L 144.902434 155.390433 
L 145.009093 155.274527 
L 145.013489 155.274527 
L 145.118365 155.164829 
L 145.231618 155.057202 
L 145.352087 154.947504 
L 145.352087 154.94647 
L 145.468284 154.819179 
L 145.576769 154.709482 
L 145.68517 154.599785 
L 145.687865 154.599785 
L 145.824051 154.492157 
L 145.824051 154.489053 
L 145.930006 154.390739 
L 145.935148 154.390739 
L 146.0574 154.281042 
L 146.165759 154.167205 
L 146.168476 154.167205 
L 146.272875 154.056473 
L 146.38787 153.958159 
L 146.51713 153.848462 
L 146.62748 153.730486 
L 146.628185 153.730486 
L 146.765325 153.620789 
L 146.874846 153.546277 
L 146.876401 153.546277 
L 146.983081 153.43658 
L 146.983081 153.435545 
L 147.096168 153.335162 
L 147.213776 153.225464 
L 147.213776 153.22443 
L 147.32678 153.128186 
L 147.458404 153.018488 
L 147.569335 152.906721 
L 147.569501 152.906721 
L 147.716386 152.799094 
L 147.716386 152.798059 
L 147.828934 152.685257 
L 147.958402 152.57556 
L 148.050464 152.48656 
L 148.069415 152.48656 
L 148.185488 152.376863 
L 148.297373 152.285794 
L 148.428831 152.176096 
L 148.539804 152.043632 
L 148.539845 152.043632 
L 148.700954 151.933934 
L 148.80836 151.834586 
L 148.811926 151.834586 
L 148.92153 151.724889 
L 149.032295 151.637959 
L 149.032627 151.637959 
L 149.158652 151.528262 
L 149.270827 151.414425 
L 149.395858 151.303693 
L 149.50542 151.180542 
L 149.506954 151.180542 
L 149.635759 151.06981 
L 149.742916 150.977705 
L 149.746814 150.977705 
L 149.881631 150.868008 
L 149.991774 150.76866 
L 149.99252 150.76866 
L 150.139281 150.658962 
L 150.248097 150.578242 
L 150.250129 150.578242 
L 150.393281 150.46751 
L 150.490901 150.377475 
L 150.504378 150.377475 
L 150.652548 150.269848 
L 150.762629 150.191197 
L 150.763604 150.191197 
L 150.886768 150.0815 
L 150.994423 149.971802 
L 150.997782 149.971802 
L 151.126482 149.862105 
L 151.238305 149.785524 
L 151.370675 149.675827 
L 151.47522 149.599246 
L 151.481772 149.599246 
L 151.593159 149.489548 
L 151.698927 149.39227 
L 151.704256 149.39227 
L 151.884109 149.282572 
L 151.994583 149.185294 
L 151.995123 149.185294 
L 152.113393 149.075596 
L 152.223992 148.999015 
L 152.22449 148.999015 
L 152.349064 148.889318 
L 152.458171 148.812737 
L 152.46014 148.812737 
L 152.582164 148.70304 
L 152.695376 148.597482 
L 152.790175 148.487785 
L 152.901106 148.396715 
L 152.997108 148.287018 
L 153.107251 148.198018 
L 153.108204 148.198018 
L 153.264586 148.088321 
L 153.375019 147.997252 
L 153.375683 147.997252 
L 153.532852 147.887554 
L 153.640631 147.808903 
L 153.643928 147.808903 
L 153.775448 147.699206 
L 153.775448 147.698171 
L 153.890236 147.603997 
L 154.032227 147.4943 
L 154.032227 147.493265 
L 154.1449 147.40944 
L 154.253923 147.299743 
L 154.366844 147.208673 
L 154.504855 147.101046 
L 154.504855 147.100011 
L 154.615122 146.993418 
L 154.615951 146.993418 
L 154.73924 146.883721 
L 154.845112 146.813349 
L 154.850295 146.813349 
L 154.98955 146.703652 
L 155.094716 146.602234 
L 155.100647 146.602234 
L 155.244048 146.491501 
L 155.35077 146.395258 
L 155.355103 146.395258 
L 155.48764 146.28556 
L 155.597119 146.184142 
L 155.598695 146.184142 
L 155.717878 146.074445 
L 155.828104 145.979236 
L 155.828975 145.979236 
L 155.990747 145.869539 
L 156.088035 145.790888 
L 156.101844 145.790888 
L 156.224594 145.681191 
L 156.334322 145.608749 
L 156.33569 145.608749 
L 156.502688 145.499052 
L 156.614614 145.401773 
L 156.770083 145.292076 
L 156.878774 145.196867 
L 156.88118 145.196867 
L 156.993272 145.086135 
L 157.108018 144.9961 
L 157.252414 144.886403 
L 157.360276 144.770496 
L 157.363511 144.770496 
L 157.509691 144.660799 
L 157.62029 144.573869 
L 157.620788 144.573869 
L 157.740054 144.464172 
L 157.848911 144.358614 
L 157.851088 144.358614 
L 158.011036 144.247882 
L 158.124268 144.13508 
L 158.287865 144.027453 
L 158.399812 143.942592 
L 158.577198 143.832895 
L 158.686885 143.737686 
L 158.688253 143.737686 
L 158.821743 143.627989 
L 158.930891 143.545199 
L 158.932757 143.545199 
L 159.061478 143.435501 
L 159.170419 143.334083 
L 159.172575 143.334083 
L 159.348654 143.224386 
L 159.4617 143.127107 
L 159.637945 143.01741 
L 159.637945 143.016375 
L 159.752733 142.92634 
L 159.877805 142.816643 
L 159.990519 142.735923 
L 160.125129 142.626225 
L 160.236225 142.551714 
L 160.389621 142.442017 
L 160.495036 142.350947 
L 160.500718 142.350947 
L 160.646607 142.24125 
L 160.754345 142.139832 
L 160.757662 142.139832 
L 160.944151 142.030134 
L 161.053651 141.961832 
L 161.055247 141.961832 
L 161.211629 141.852135 
L 161.32032 141.758996 
L 161.322725 141.758996 
L 161.477033 141.649299 
L 161.582076 141.576857 
L 161.58813 141.576857 
L 161.702607 141.494067 
L 161.882149 141.383335 
L 161.990923 141.309858 
L 161.993245 141.309858 
L 162.132292 141.200161 
L 162.239076 141.104952 
L 162.243389 141.104952 
L 162.366346 140.995255 
L 162.476199 140.922813 
L 162.477422 140.922813 
L 162.638407 140.813116 
L 162.750187 140.738604 
L 162.903873 140.627872 
L 163.018329 140.546117 
L 163.178816 140.43642 
L 163.288295 140.326722 
L 163.289913 140.326722 
L 163.466966 140.217025 
L 163.578934 140.130095 
L 163.742593 140.020398 
L 163.841208 139.952096 
L 163.85369 139.952096 
L 164.027779 139.842399 
L 164.132116 139.776166 
L 164.138793 139.776166 
L 164.274377 139.666469 
L 164.386282 139.585748 
L 164.537915 139.476051 
L 164.651355 139.39947 
L 164.800459 139.288738 
L 164.918004 139.184215 
L 165.066796 139.074518 
L 165.170055 139.008285 
L 165.177769 139.008285 
L 165.329132 138.898588 
L 165.441556 138.832356 
L 165.567499 138.722659 
L 165.680171 138.639868 
L 165.884035 138.530171 
L 165.994821 138.445311 
L 165.99509 138.445311 
L 166.164535 138.335613 
L 166.278451 138.265242 
L 166.439643 138.155544 
L 166.551486 138.074824 
L 166.734989 137.965127 
L 166.734989 137.964092 
L 166.850688 137.890615 
L 167.015571 137.780918 
L 167.128451 137.687779 
L 167.258458 137.578081 
L 167.368974 137.499431 
L 167.369513 137.499431 
L 167.553389 137.389733 
L 167.660131 137.315222 
L 167.664485 137.315222 
L 167.851803 137.205525 
L 167.96149 137.128944 
L 167.9629 137.128944 
L 168.166017 137.019246 
L 168.278648 136.942665 
L 168.420598 136.832968 
L 168.536837 136.706713 
L 168.682851 136.597015 
L 168.79204 136.524574 
L 168.793906 136.524574 
L 168.922918 136.414877 
L 169.030655 136.332086 
L 169.033973 136.332086 
L 169.198482 136.222389 
L 169.301534 136.143738 
L 169.309579 136.143738 
L 169.492003 136.034041 
L 169.601586 135.942971 
L 169.603058 135.942971 
L 169.778412 135.833274 
L 169.890193 135.762902 
L 170.096587 135.653205 
L 170.207476 135.584903 
L 170.207642 135.584903 
L 170.406695 135.475206 
L 170.516258 135.398625 
L 170.517792 135.398625 
L 170.697417 135.288927 
L 170.810981 135.216486 
L 170.986604 135.106788 
L 171.097494 135.023998 
L 171.097701 135.023998 
L 171.247903 134.914301 
L 171.358378 134.841859 
L 171.358917 134.841859 
L 171.518658 134.734232 
L 171.625566 134.672139 
L 171.629754 134.672139 
L 171.811017 134.562442 
L 171.920746 134.496209 
L 171.922114 134.496209 
L 172.132862 134.386512 
L 172.234918 134.347187 
L 172.243876 134.347187 
L 172.415932 134.237489 
L 172.524997 134.150559 
L 172.526988 134.150559 
L 172.708997 134.039827 
L 172.817191 133.960142 
L 172.819804 133.960142 
L 173.034014 133.850444 
L 173.147786 133.763514 
L 173.352355 133.653817 
L 173.466147 133.585515 
L 173.629993 133.475818 
L 173.741919 133.390958 
L 173.91974 133.28126 
L 174.032868 133.215028 
L 174.216288 133.105331 
L 174.329189 133.016331 
L 174.512546 132.906634 
L 174.621445 132.836262 
L 174.623643 132.836262 
L 174.801049 132.726565 
L 174.91339 132.662402 
L 175.092413 132.552705 
L 175.092413 132.55167 
L 175.204505 132.476124 
L 175.379258 132.366427 
L 175.490354 132.285706 
L 175.665397 132.176009 
L 175.775955 132.115986 
L 175.776494 132.115986 
L 175.912804 132.006288 
L 176.025559 131.921428 
L 176.248002 131.811731 
L 176.359762 131.745499 
L 176.520767 131.635801 
L 176.634331 131.555081 
L 176.803527 131.445384 
L 176.914291 131.370872 
L 176.914603 131.370872 
L 177.077267 131.261175 
L 177.188073 131.161827 
L 177.188239 131.161827 
L 177.364069 131.051094 
L 177.477862 130.985897 
L 177.647928 130.8762 
L 177.758734 130.795479 
L 177.758942 130.795479 
L 177.94261 130.685782 
L 178.054163 130.627829 
L 178.210129 130.518131 
L 178.313886 130.449829 
L 178.321102 130.449829 
L 178.485839 130.340132 
L 178.59762 130.27183 
L 178.804055 130.162133 
L 178.804055 130.161098 
L 178.918324 130.083482 
L 179.133737 129.973784 
L 179.246638 129.882715 
L 179.462839 129.773018 
L 179.572443 129.706785 
L 179.573915 129.706785 
L 179.760424 129.599158 
L 179.872288 129.522577 
L 180.032505 129.41288 
L 180.14495 129.344578 
L 180.35211 129.23488 
L 180.457671 129.183136 
L 180.463207 129.183136 
L 180.598398 129.072404 
L 180.698712 129.003067 
L 180.709453 129.003067 
L 180.861314 128.89337 
L 180.971747 128.822998 
L 180.972411 128.822998 
L 181.150439 128.713301 
L 181.253615 128.647069 
L 181.261494 128.647069 
L 181.439896 128.537371 
L 181.548546 128.466999 
L 181.550993 128.466999 
L 181.754048 128.357302 
L 181.867488 128.299349 
L 182.068407 128.188617 
L 182.172848 128.104792 
L 182.179421 128.104792 
L 182.365536 127.994059 
L 182.476342 127.928862 
L 182.476633 127.928862 
L 182.642884 127.819165 
L 182.7551 127.763281 
L 182.923922 127.653584 
L 183.03195 127.595631 
L 183.034957 127.595631 
L 183.215453 127.485933 
L 183.317136 127.440399 
L 183.326466 127.440399 
L 183.522824 127.329667 
L 183.631682 127.25412 
L 183.633838 127.25412 
L 183.797145 127.144423 
L 183.907371 127.090609 
L 183.908159 127.090609 
L 184.088883 126.980912 
L 184.201866 126.887773 
L 184.399655 126.778076 
L 184.511291 126.722192 
L 184.717187 126.612495 
L 184.820363 126.544193 
L 184.828283 126.544193 
L 185.018753 126.434495 
L 185.13213 126.359984 
L 185.352499 126.250287 
L 185.352499 126.249252 
L 185.468282 126.173706 
L 185.659788 126.064008 
L 185.770801 125.987427 
L 185.770864 125.987427 
L 185.954677 125.87773 
L 186.062249 125.811498 
L 186.065691 125.811498 
L 186.24459 125.701801 
L 186.351954 125.625219 
L 186.355645 125.625219 
L 186.575102 125.515522 
L 186.680434 125.463778 
L 186.686198 125.463778 
L 186.898895 125.354081 
L 187.002735 125.287849 
L 187.009992 125.287849 
L 187.165274 125.177116 
L 187.277657 125.113989 
L 187.44963 125.003257 
L 187.562531 124.909083 
L 187.736371 124.799385 
L 187.839132 124.729014 
L 187.847468 124.729014 
L 188.04677 124.619316 
L 188.158406 124.565503 
L 188.374503 124.455805 
L 188.486886 124.389573 
L 188.694689 124.279876 
L 188.789571 124.203295 
L 188.805786 124.203295 
L 188.981637 124.093597 
L 189.093418 124.014946 
L 189.253075 123.905249 
L 189.366411 123.830738 
L 189.593042 123.721041 
L 189.703351 123.656878 
L 189.703973 123.656878 
L 189.923139 123.546146 
L 190.037305 123.46853 
L 190.245274 123.358833 
L 190.353385 123.29674 
L 190.356371 123.29674 
L 190.533611 123.187043 
L 190.639897 123.133229 
L 190.644646 123.133229 
L 190.823566 123.023532 
L 190.92894 122.975927 
L 190.934621 122.975927 
L 191.097057 122.86623 
L 191.207925 122.793788 
L 191.208153 122.793788 
L 191.417554 122.684091 
L 191.529293 122.619928 
L 191.740124 122.510231 
L 191.842139 122.443999 
L 191.851221 122.443999 
L 192.058858 122.334302 
L 192.16896 122.26393 
L 192.169955 122.26393 
L 192.368055 122.154233 
L 192.469738 122.077651 
L 192.47911 122.077651 
L 192.698877 121.967954 
L 192.811218 121.905861 
L 193.018296 121.796164 
L 193.121638 121.732002 
L 193.129392 121.732002 
L 193.297302 121.622304 
L 193.409685 121.558142 
L 193.602891 121.448444 
L 193.713366 121.378073 
L 193.713988 121.378073 
L 193.958823 121.268375 
L 194.067059 121.173166 
L 194.06992 121.173166 
L 194.263541 121.063469 
L 194.37584 121.003446 
L 194.567014 120.893749 
L 194.680745 120.829586 
L 194.866756 120.719889 
L 194.979014 120.659866 
L 195.145431 120.550169 
L 195.250929 120.481867 
L 195.256507 120.481867 
L 195.454046 120.372169 
L 195.566304 120.314216 
L 195.718539 120.204519 
L 195.825571 120.156914 
L 195.829635 120.156914 
L 196.074181 120.046182 
L 196.184967 119.970636 
L 196.185257 119.970636 
L 196.414376 119.859904 
L 196.528417 119.788497 
L 196.723261 119.6788 
L 196.835602 119.612568 
L 197.06754 119.50287 
L 197.178222 119.436638 
L 197.178637 119.436638 
L 197.378354 119.325906 
L 197.488787 119.264848 
L 197.489451 119.264848 
L 197.696819 119.155151 
L 197.810528 119.068221 
L 197.972943 118.958524 
L 198.083625 118.898501 
L 198.083978 118.898501 
L 198.278698 118.788803 
L 198.387804 118.701873 
L 198.389794 118.701873 
L 198.594073 118.592176 
L 198.704299 118.525944 
L 198.70517 118.525944 
L 198.956495 118.415212 
L 199.068691 118.360363 
L 199.260944 118.250666 
L 199.369801 118.21134 
L 199.371999 118.21134 
L 199.554402 118.100608 
L 199.669128 118.04369 
L 199.866066 117.933993 
L 199.866066 117.932958 
L 199.979195 117.884318 
L 200.208687 117.774621 
L 200.307073 117.714598 
L 200.319783 117.714598 
L 200.511041 117.604901 
L 200.622842 117.534529 
L 200.831973 117.424832 
L 200.831973 117.423797 
L 200.950534 117.333762 
L 201.17704 117.224065 
L 201.280797 117.166112 
L 201.288137 117.166112 
L 201.526711 117.056414 
L 201.634822 116.975694 
L 201.637683 116.975694 
L 201.812975 116.864962 
L 201.922682 116.803904 
L 201.92403 116.803904 
L 202.160738 116.694207 
L 202.267169 116.632114 
L 202.271793 116.632114 
L 202.454632 116.522416 
L 202.564546 116.456184 
L 202.565728 116.456184 
L 202.824747 116.346487 
L 202.933023 116.284394 
L 202.935802 116.284394 
L 203.107278 116.174697 
L 203.220179 116.085697 
L 203.441273 115.976 
L 203.550794 115.915977 
L 203.55237 115.915977 
L 203.734421 115.805245 
L 203.842283 115.750396 
L 203.845476 115.750396 
L 204.015418 115.640699 
L 204.124669 115.576536 
L 204.126515 115.576536 
L 204.3242 115.465804 
L 204.434778 115.390258 
L 204.435296 115.390258 
L 204.644904 115.280561 
L 204.758758 115.212259 
L 204.964115 115.102561 
L 205.07094 115.046678 
L 205.075212 115.046678 
L 205.342213 114.936981 
L 205.454388 114.881097 
L 205.661424 114.770365 
L 205.773599 114.717586 
L 205.996725 114.607889 
L 206.108465 114.535447 
L 206.305486 114.429889 
L 206.305486 114.42575 
L 206.415298 114.376076 
L 206.416562 114.376076 
L 206.628658 114.266378 
L 206.736396 114.193937 
L 206.739713 114.193937 
L 206.99247 114.08424 
L 207.1034 114.022147 
L 207.103566 114.022147 
L 207.309587 113.91245 
L 207.309587 113.911415 
L 207.429765 113.842078 
L 207.653597 113.731346 
L 207.76743 113.688916 
L 207.973969 113.579218 
L 208.086331 113.512986 
L 208.326605 113.403289 
L 208.438614 113.312219 
L 208.626076 113.202522 
L 208.730206 113.138359 
L 208.737173 113.138359 
L 208.975249 113.028662 
L 209.081743 112.968639 
L 209.086222 112.968639 
L 209.289194 112.858942 
L 209.400767 112.805128 
L 209.625573 112.695431 
L 209.737334 112.629199 
L 210.007466 112.519501 
L 210.007466 112.518466 
L 210.12443 112.424292 
L 210.30476 112.314595 
L 210.415691 112.246293 
L 210.415774 112.246293 
L 210.704174 112.136596 
L 210.81583 112.074503 
L 211.078747 111.964806 
L 211.186857 111.904783 
L 211.189802 111.904783 
L 211.40565 111.795085 
L 211.514176 111.749551 
L 211.516664 111.749551 
L 211.785303 111.639853 
L 211.785303 111.638819 
L 211.900112 111.57983 
L 212.123072 111.470133 
L 212.232178 111.416319 
L 212.234107 111.416319 
L 212.485598 111.306622 
L 212.5957 111.23625 
L 212.596529 111.23625 
L 212.853184 111.126553 
L 212.963492 111.076879 
L 212.96428 111.076879 
L 213.142848 110.966147 
L 213.251373 110.913368 
L 213.253903 110.913368 
L 213.464112 110.803671 
L 213.576411 110.741578 
L 213.791928 110.631881 
L 213.898836 110.557369 
L 213.902942 110.557369 
L 214.154205 110.449742 
L 214.154205 110.446637 
L 214.264721 110.387649 
L 214.26526 110.387649 
L 214.506281 110.277952 
L 214.619306 110.215859 
L 214.849026 110.106162 
L 214.962072 110.058557 
L 215.218457 109.94886 
L 215.331482 109.882628 
L 215.530535 109.77293 
L 215.643291 109.69014 
L 215.897167 109.579408 
L 216.003121 109.524559 
L 216.008264 109.524559 
L 216.236304 109.414862 
L 216.3485 109.358978 
L 216.599121 109.249281 
L 216.70325 109.187188 
L 216.710217 109.187188 
L 216.927973 109.077491 
L 217.036789 109.017468 
L 217.039029 109.017468 
L 217.282247 108.907771 
L 217.391892 108.853957 
L 217.393344 108.853957 
L 217.664305 108.74426 
L 217.771587 108.671818 
L 217.775361 108.671818 
L 217.996227 108.562121 
L 218.108402 108.537284 
L 218.33074 108.427586 
L 218.443641 108.369633 
L 218.686652 108.259936 
L 218.686652 108.258901 
L 218.79891 108.201983 
L 219.048846 108.092285 
L 219.157372 108.040541 
L 219.159902 108.040541 
L 219.445315 107.930844 
L 219.556889 107.88324 
L 219.815368 107.773542 
L 219.92634 107.719729 
L 219.926423 107.719729 
L 220.211899 107.610031 
L 220.323867 107.566566 
L 220.595098 107.456869 
L 220.707957 107.413404 
L 220.939896 107.303707 
L 220.939896 107.302672 
L 221.052029 107.251963 
L 221.309389 107.142266 
L 221.415177 107.100871 
L 221.420402 107.100871 
L 221.620907 106.991173 
L 221.733621 106.951848 
L 221.973294 106.841116 
L 222.085407 106.788337 
L 222.314567 106.67864 
L 222.419692 106.641384 
L 222.425622 106.641384 
L 222.600333 106.531687 
L 222.711223 106.477873 
L 222.71143 106.477873 
L 222.926967 106.368176 
L 223.040386 106.324711 
L 223.279624 106.215013 
L 223.391405 106.144642 
L 223.594564 106.034944 
L 223.704748 105.98941 
L 223.705598 105.98941 
L 223.904133 105.879712 
L 224.012576 105.830038 
L 224.015147 105.830038 
L 224.226724 105.719306 
L 224.337738 105.647899 
L 224.3378 105.647899 
L 224.583196 105.538202 
L 224.69508 105.480249 
L 224.981966 105.370551 
L 225.090119 105.333296 
L 225.093021 105.333296 
L 225.348847 105.223599 
L 225.460731 105.184273 
L 225.644068 105.073541 
L 225.756989 105.029041 
L 226.004106 104.919344 
L 226.114083 104.877949 
L 226.115202 104.877949 
L 226.332855 104.768251 
L 226.44559 104.726856 
L 226.727934 104.617159 
L 226.839549 104.565415 
L 227.095292 104.455718 
L 227.196726 104.393625 
L 227.206388 104.393625 
L 227.496675 104.283928 
L 227.605905 104.217695 
L 227.60773 104.217695 
L 227.857915 104.107998 
L 227.97009 104.052115 
L 228.249221 103.942417 
L 228.249221 103.941382 
L 228.362267 103.894813 
L 228.571149 103.785116 
L 228.676398 103.733372 
L 228.682245 103.733372 
L 228.932265 103.623674 
L 229.042864 103.567791 
L 229.04332 103.567791 
L 229.289628 103.458094 
L 229.401119 103.414629 
L 229.659224 103.304931 
L 229.755019 103.263536 
L 229.7703 103.263536 
L 230.101206 103.152804 
L 230.216491 103.104165 
L 230.479781 102.994467 
L 230.592246 102.951002 
L 230.826797 102.84027 
L 230.942787 102.783352 
L 231.152312 102.673655 
L 231.263927 102.615701 
L 231.496115 102.506004 
L 231.607958 102.466679 
L 231.858309 102.356981 
L 231.964678 102.313516 
L 231.969364 102.313516 
L 232.227968 102.202784 
L 232.333798 102.162424 
L 232.339064 102.162424 
L 232.541975 102.052727 
L 232.653735 101.984425 
L 232.915905 101.874727 
L 233.026628 101.825053 
L 233.02696 101.825053 
L 233.286351 101.715356 
L 233.286351 101.714321 
L 233.399936 101.653263 
L 233.663102 101.542531 
L 233.776604 101.479403 
L 234.022103 101.369706 
L 234.134298 101.313823 
L 234.330947 101.204125 
L 234.443018 101.173079 
L 234.728825 101.063382 
L 234.839466 101.021986 
L 234.839881 101.021986 
L 235.045652 100.912289 
L 235.15621 100.864685 
L 235.156728 100.864685 
L 235.447429 100.753953 
L 235.560786 100.697034 
L 235.827559 100.587337 
L 235.827559 100.586302 
L 235.940563 100.539732 
L 236.257722 100.430035 
L 236.358617 100.38657 
L 236.368818 100.38657 
L 236.673785 100.276873 
L 236.784301 100.227199 
L 236.784716 100.227199 
L 237.18556 100.117501 
L 237.29562 100.057478 
L 237.296656 100.057478 
L 237.554679 99.947781 
L 237.554679 99.946746 
L 237.668451 99.881549 
L 238.00257 99.770817 
L 238.113273 99.715968 
L 238.113605 99.715968 
L 238.347493 99.606271 
L 238.454152 99.562806 
L 238.458548 99.562806 
L 238.669254 99.453109 
L 238.779356 99.399295 
L 238.780309 99.399295 
L 239.084156 99.289598 
L 239.189779 99.233714 
L 239.195232 99.233714 
L 239.502956 99.124017 
L 239.611316 99.076412 
L 239.614053 99.076412 
L 239.892998 98.966715 
L 240.004447 98.929459 
L 240.231865 98.819762 
L 240.333424 98.768018 
L 240.342962 98.768018 
L 240.608408 98.657286 
L 240.711833 98.612786 
L 240.719505 98.612786 
L 240.967575 98.503089 
L 241.077718 98.455484 
L 241.078651 98.455484 
L 241.378102 98.345787 
L 241.490505 98.302322 
L 241.778925 98.192625 
L 241.889027 98.134672 
L 241.890022 98.134672 
L 242.156836 98.024974 
L 242.257649 97.97323 
L 242.267933 97.97323 
L 242.546567 97.863533 
L 242.654677 97.840766 
L 242.657601 97.840766 
L 242.940029 97.730034 
L 243.052162 97.677255 
L 243.267513 97.567558 
L 243.267513 97.566523 
L 243.381575 97.519953 
L 243.605324 97.410256 
L 243.605324 97.409221 
L 243.718286 97.364721 
L 244.007474 97.253989 
L 244.119089 97.223977 
L 244.53312 97.11428 
L 244.643595 97.070815 
L 244.644175 97.070815 
L 244.911902 96.961118 
L 245.016405 96.909374 
L 245.022999 96.909374 
L 245.266425 96.798642 
L 245.379885 96.739654 
L 245.624762 96.628922 
L 245.730717 96.578212 
L 245.735859 96.578212 
L 246.088059 96.46748 
L 246.192977 96.435399 
L 246.199114 96.435399 
L 246.468044 96.325702 
L 246.57742 96.282237 
L 246.579141 96.282237 
L 246.872578 96.17254 
L 246.982473 96.122865 
L 246.983592 96.122865 
L 247.218807 96.012133 
L 247.326089 95.975912 
L 247.329904 95.975912 
L 247.591493 95.866215 
L 247.703046 95.82068 
L 247.911866 95.710983 
L 248.024103 95.673727 
L 248.262552 95.56403 
L 248.372322 95.522635 
L 248.373628 95.522635 
L 248.654107 95.412938 
L 248.764581 95.350845 
L 248.765203 95.350845 
L 249.046615 95.240113 
L 249.15964 95.193543 
L 249.408478 95.083846 
L 249.408478 95.082811 
L 249.520653 95.054869 
L 249.768765 94.945172 
L 249.876295 94.909986 
L 249.879799 94.909986 
L 250.191919 94.799254 
L 250.293022 94.742336 
L 250.302974 94.742336 
L 250.665708 94.632638 
L 250.777261 94.587104 
L 251.008619 94.477406 
L 251.111836 94.44429 
L 251.119633 94.44429 
L 251.402496 94.333558 
L 251.51577 94.280779 
L 251.838713 94.171082 
L 251.947239 94.127617 
L 251.94981 94.127617 
L 252.234747 94.01792 
L 252.346051 93.988943 
L 252.665034 93.879246 
L 252.665034 93.878211 
L 252.777997 93.833711 
L 253.12097 93.724014 
L 253.212659 93.690898 
L 253.232025 93.690898 
L 253.542901 93.5812 
L 253.653977 93.535666 
L 253.653998 93.535666 
L 253.885895 93.425968 
L 253.993591 93.370085 
L 253.99695 93.370085 
L 254.283587 93.260388 
L 254.392983 93.212783 
L 254.394684 93.212783 
L 254.717565 93.103086 
L 254.717565 93.102051 
L 254.829616 93.055482 
L 255.132799 92.945784 
L 255.244704 92.906459 
L 255.638851 92.796762 
L 255.752104 92.745018 
L 256.005565 92.63532 
L 256.109529 92.593925 
L 256.116579 92.593925 
L 256.47218 92.483193 
L 256.573448 92.424205 
L 256.583193 92.424205 
L 256.893696 92.314508 
L 257.005809 92.264833 
L 257.289418 92.155136 
L 257.396638 92.11995 
L 257.400494 92.11995 
L 257.798912 92.010253 
L 257.798912 92.009218 
L 257.914571 91.956439 
L 258.30654 91.846742 
L 258.418508 91.803277 
L 258.624818 91.69358 
L 258.624818 91.692545 
L 258.736744 91.652184 
L 259.008058 91.541452 
L 259.120835 91.496952 
L 259.47347 91.387255 
L 259.585583 91.337581 
L 259.940209 91.226849 
L 260.052902 91.203047 
L 260.327803 91.093349 
L 260.327803 91.092314 
L 260.440766 91.047815 
L 260.747226 90.938117 
L 260.859442 90.882234 
L 261.146577 90.772537 
L 261.254625 90.727002 
L 261.257673 90.727002 
L 261.618914 90.617305 
L 261.73225 90.563491 
L 261.983265 90.453794 
L 262.094237 90.406189 
L 262.09432 90.406189 
L 262.380998 90.295457 
L 262.478659 90.250957 
L 262.491846 90.250957 
L 262.847924 90.14126 
L 262.959559 90.083307 
L 263.229464 89.973609 
L 263.341265 89.936354 
L 263.646646 89.826656 
L 263.758199 89.781122 
L 264.075358 89.67039 
L 264.173392 89.640378 
L 264.186371 89.640378 
L 264.43693 89.530681 
L 264.548939 89.481007 
L 264.878621 89.371309 
L 264.973379 89.331984 
L 264.989594 89.331984 
L 265.283861 89.221252 
L 265.388654 89.19331 
L 265.394937 89.19331 
L 265.744628 89.083613 
L 265.856388 89.048427 
L 266.142735 88.93873 
L 266.246036 88.895265 
L 266.253749 88.895265 
L 266.500492 88.785567 
L 266.612004 88.742102 
L 266.94886 88.632405 
L 267.059459 88.584801 
L 267.059874 88.584801 
L 267.353063 88.475103 
L 267.464657 88.42129 
L 267.860152 88.311592 
L 267.964986 88.282616 
L 267.971248 88.282616 
L 268.247808 88.172918 
L 268.355339 88.129454 
L 268.358739 88.129454 
L 268.67399 88.018721 
L 268.78687 87.976291 
L 269.111161 87.866594 
L 269.221138 87.823129 
L 269.222237 87.823129 
L 269.510471 87.713432 
L 269.593534 87.672037 
L 269.621567 87.672037 
L 269.975136 87.562339 
L 270.086772 87.531293 
L 270.399286 87.421596 
L 270.508184 87.378131 
L 270.510341 87.378131 
L 270.832642 87.268434 
L 270.939923 87.222899 
L 270.943738 87.222899 
L 271.366084 87.113202 
L 271.477575 87.063527 
L 271.889325 86.952795 
L 271.993994 86.912435 
L 272.000422 86.912435 
L 272.256475 86.802738 
L 272.368629 86.769621 
L 272.690038 86.659924 
L 272.801405 86.628878 
L 273.157752 86.519181 
L 273.260596 86.463297 
L 273.268807 86.463297 
L 273.560068 86.352565 
L 273.671807 86.320484 
L 273.938705 86.209751 
L 274.039019 86.1756 
L 274.049801 86.1756 
L 274.386948 86.064868 
L 274.493069 86.030717 
L 274.498003 86.030717 
L 274.847425 85.92102 
L 274.957319 85.885834 
L 274.958356 85.885834 
L 275.31827 85.775102 
L 275.426049 85.732672 
L 275.429325 85.732672 
L 275.785423 85.622975 
L 275.785423 85.62194 
L 275.897308 85.583649 
L 276.278205 85.473952 
L 276.389986 85.438766 
L 276.647573 85.329069 
L 276.757675 85.293883 
L 276.758587 85.293883 
L 277.04962 85.184186 
L 277.154496 85.149 
L 277.160675 85.149 
L 277.426868 85.039302 
L 277.532698 84.997907 
L 277.537923 84.997907 
L 277.876272 84.887175 
L 277.980651 84.859233 
L 277.987327 84.859233 
L 278.285182 84.749536 
L 278.396755 84.701932 
L 278.753268 84.592234 
L 278.864199 84.563258 
L 278.864303 84.563258 
L 279.147436 84.45356 
L 279.260772 84.399747 
L 279.61094 84.291084 
L 279.61094 84.290049 
L 279.72299 84.242445 
L 280.042596 84.132748 
L 280.153361 84.099631 
L 280.46857 83.989934 
L 280.580641 83.94026 
L 280.904124 83.830563 
L 281.011322 83.803656 
L 281.015221 83.803656 
L 281.345463 83.693959 
L 281.456746 83.662912 
L 281.80849 83.55218 
L 281.912661 83.528378 
L 281.919545 83.528378 
L 282.21514 83.418681 
L 282.321094 83.379355 
L 282.326236 83.379355 
L 282.699462 83.269658 
L 282.805644 83.240681 
L 282.810517 83.240681 
L 283.216565 83.130984 
L 283.328056 83.091659 
L 283.688094 82.981961 
L 283.799107 82.942636 
L 283.799149 82.942636 
L 284.188215 82.832939 
L 284.300764 82.797753 
L 284.726655 82.688055 
L 284.838187 82.64459 
L 285.183151 82.533858 
L 285.295284 82.483149 
L 285.625506 82.373452 
L 285.736188 82.338266 
L 285.736561 82.338266 
L 286.161955 82.227534 
L 286.275083 82.178895 
L 286.631472 82.068162 
L 286.744186 82.029872 
L 287.138105 81.920175 
L 287.138105 81.91914 
L 287.252063 81.887058 
L 287.636091 81.777361 
L 287.74754 81.742175 
L 288.172229 81.632478 
L 288.172229 81.631443 
L 288.283864 81.620059 
L 288.643156 81.510362 
L 288.753174 81.475176 
L 288.754253 81.475176 
L 289.095007 81.365479 
L 289.207742 81.326154 
L 289.594714 81.216456 
L 289.694614 81.172991 
L 289.705811 81.172991 
L 290.044347 81.063294 
L 290.154428 81.028108 
L 290.155423 81.028108 
L 290.488381 80.917376 
L 290.600059 80.887365 
L 290.995657 80.776632 
L 291.094872 80.75283 
L 291.106753 80.75283 
L 291.484271 80.643133 
L 291.581268 80.624505 
L 291.595326 80.624505 
L 291.92563 80.513773 
L 292.03739 80.481692 
L 292.389508 80.371994 
L 292.501558 80.316111 
L 292.898545 80.206414 
L 293.004085 80.158809 
L 293.009601 80.158809 
L 293.412062 80.049112 
L 293.523656 80.009786 
L 293.811993 79.900089 
L 293.923256 79.877322 
L 294.234007 79.767625 
L 294.346452 79.72416 
L 294.780388 79.614462 
L 294.89049 79.560649 
L 294.891444 79.560649 
L 295.269687 79.450951 
L 295.38211 79.417835 
L 295.723902 79.308138 
L 295.835786 79.266743 
L 296.239886 79.157045 
L 296.351335 79.12186 
L 296.69748 79.011127 
L 296.801838 78.983186 
L 296.808577 78.983186 
L 297.180351 78.873488 
L 297.272952 78.842442 
L 297.291406 78.842442 
L 297.682214 78.73171 
L 297.790242 78.695489 
L 297.793311 78.695489 
L 298.236516 78.585792 
L 298.347965 78.548536 
L 298.718536 78.438839 
L 298.822874 78.416071 
L 298.829467 78.416071 
L 299.216709 78.306374 
L 299.321295 78.269119 
L 299.327806 78.269119 
L 299.752287 78.159421 
L 299.864711 78.128375 
L 300.306506 78.017643 
L 300.418328 77.973143 
L 300.821474 77.863446 
L 300.933006 77.842748 
L 301.27289 77.733051 
L 301.27289 77.732016 
L 301.385023 77.708214 
L 301.858957 77.597482 
L 301.966466 77.573679 
L 301.970012 77.573679 
L 302.55865 77.463982 
L 302.670452 77.424657 
L 302.987155 77.314959 
L 303.094643 77.285983 
L 303.09821 77.285983 
L 303.485618 77.176285 
L 303.597253 77.149379 
L 303.994489 77.039681 
L 304.106457 77.012774 
L 304.435144 76.903077 
L 304.544457 76.869961 
L 304.54622 76.869961 
L 305.101517 76.760264 
L 305.21307 76.71059 
L 305.721734 76.600892 
L 305.827108 76.555358 
L 305.832789 76.555358 
L 306.280867 76.444625 
L 306.380269 76.412544 
L 306.391922 76.412544 
L 306.712025 76.302847 
L 306.823495 76.27387 
L 307.264647 76.164173 
L 307.377486 76.120708 
L 307.862554 76.011011 
L 307.974936 75.988243 
L 308.360436 75.878546 
L 308.473192 75.839221 
L 308.887928 75.729523 
L 308.999792 75.692268 
L 309.414922 75.582571 
L 309.526931 75.537036 
L 310.019879 75.427339 
L 310.125087 75.385943 
L 310.130934 75.385943 
L 310.585564 75.276246 
L 310.695313 75.257618 
L 310.696577 75.257618 
L 311.026965 75.147921 
L 311.131799 75.114805 
L 311.137978 75.114805 
L 311.434609 75.004073 
L 311.534261 74.967852 
L 311.545685 74.967852 
L 311.960069 74.858155 
L 312.071788 74.827108 
L 312.508171 74.716376 
L 312.619185 74.678086 
L 312.967342 74.568388 
L 313.079413 74.535272 
L 313.523261 74.425575 
L 313.622704 74.392459 
L 313.634295 74.392459 
L 314.020687 74.282761 
L 314.122329 74.255855 
L 314.131742 74.255855 
L 314.592924 74.146157 
L 314.690419 74.100623 
L 314.704021 74.100623 
L 315.097193 73.98989 
L 315.207999 73.966088 
L 315.208248 73.966088 
L 315.733998 73.856391 
L 315.840243 73.825345 
L 315.845095 73.825345 
L 315.957435 73.788089 
L 316.458511 73.678392 
L 316.570188 73.647345 
L 317.097597 73.537648 
L 317.207823 73.508671 
L 317.208694 73.508671 
L 317.666102 73.397939 
L 317.760611 73.376207 
L 317.777199 73.376207 
L 318.133795 73.266509 
L 318.245472 73.233393 
L 318.606381 73.123696 
L 318.70599 73.08644 
L 318.717477 73.08644 
L 319.140964 72.976743 
L 319.240117 72.941557 
L 319.25206 72.941557 
L 319.674427 72.83186 
L 319.786146 72.800814 
L 320.233435 72.691116 
L 320.341505 72.666279 
L 320.344449 72.666279 
L 320.717011 72.555547 
L 320.824976 72.525535 
L 320.828107 72.525535 
L 321.229905 72.415838 
L 321.341541 72.386862 
L 321.78572 72.277164 
L 321.895697 72.235769 
L 321.896817 72.235769 
L 322.334196 72.126072 
L 322.439777 72.101235 
L 322.445209 72.101235 
L 322.866746 71.991538 
L 322.977014 71.948073 
L 322.977843 71.948073 
L 323.341116 71.838375 
L 323.448605 71.807329 
L 323.452129 71.807329 
L 323.789857 71.697632 
L 323.901493 71.670725 
L 324.300387 71.561027 
L 324.412314 71.5424 
L 324.752363 71.432702 
L 324.85301 71.409935 
L 324.863398 71.409935 
L 325.380501 71.300238 
L 325.4928 71.271261 
L 325.926239 71.160529 
L 326.029747 71.132587 
L 326.037336 71.132587 
L 326.51523 71.02289 
L 326.614715 70.983565 
L 326.626244 70.983565 
L 327.14059 70.873867 
L 327.25206 70.834542 
L 327.630676 70.724845 
L 327.740694 70.695868 
L 327.741752 70.695868 
L 328.188523 70.586171 
L 328.300366 70.546845 
L 328.880649 70.437148 
L 328.984696 70.404032 
L 328.991704 70.404032 
L 329.417678 70.294335 
L 329.520315 70.271567 
L 329.528692 70.271567 
L 329.974986 70.16187 
L 330.086747 70.126684 
L 330.542849 70.016987 
L 330.654132 69.994219 
L 331.194106 69.884522 
L 331.276547 69.857615 
L 331.305203 69.857615 
L 331.744986 69.747918 
L 331.852434 69.716872 
L 331.856083 69.716872 
L 332.314113 69.607174 
L 332.41505 69.576128 
L 332.42521 69.576128 
L 332.769738 69.466431 
L 332.879964 69.433315 
L 332.880793 69.433315 
L 333.260446 69.323617 
L 333.330447 69.30085 
L 333.371543 69.30085 
L 333.764383 69.191153 
L 333.871084 69.153897 
L 333.875314 69.153897 
L 334.337782 69.0442 
L 334.4461 69.013153 
L 334.448837 69.013153 
L 335.05989 68.903456 
L 335.168001 68.87241 
L 335.170903 68.87241 
L 335.694642 68.762712 
L 335.80775 68.737875 
L 336.313138 68.627143 
L 336.425355 68.599201 
L 336.894893 68.489504 
L 337.006549 68.462597 
L 337.422198 68.3529 
L 337.531055 68.323923 
L 337.533046 68.323923 
L 337.967977 68.214226 
L 338.079821 68.17697 
L 338.521636 68.067273 
L 338.632609 68.044506 
L 338.632692 68.044506 
L 339.16234 67.934809 
L 339.26732 67.903762 
L 339.273374 67.903762 
L 339.695761 67.794065 
L 339.806692 67.769228 
L 339.806734 67.769228 
L 340.319628 67.659531 
L 340.319628 67.658496 
L 340.431596 67.634693 
L 340.901362 67.524996 
L 340.988282 67.502229 
L 341.012417 67.502229 
L 341.436152 67.392532 
L 341.436152 67.391497 
L 341.548783 67.355276 
L 342.215529 67.245579 
L 342.322624 67.226951 
L 342.326626 67.226951 
L 342.875972 67.117254 
L 342.975333 67.096556 
L 342.987069 67.096556 
L 343.369998 66.986859 
L 343.473464 66.953743 
L 343.481094 66.953743 
L 344.066394 66.844045 
L 344.159245 66.815069 
L 344.177491 66.815069 
L 344.731316 66.705371 
L 344.842827 66.682604 
L 345.355597 66.572907 
L 345.464164 66.54186 
L 345.466653 66.54186 
L 345.95707 66.432163 
L 346.066094 66.390768 
L 346.068084 66.390768 
L 346.639077 66.281071 
L 346.741776 66.260373 
L 346.750174 66.260373 
L 347.187552 66.150676 
L 347.187552 66.149641 
L 347.301054 66.123769 
L 347.905016 66.013037 
L 348.009602 65.987165 
L 348.016071 65.987165 
L 348.512461 65.876433 
L 348.61319 65.844351 
L 348.623516 65.844351 
L 349.152127 65.734654 
L 349.263514 65.705677 
L 349.81539 65.59598 
L 349.922298 65.581492 
L 349.926445 65.581492 
L 350.457005 65.471795 
L 350.556242 65.455237 
L 350.568102 65.455237 
L 351.008757 65.345539 
L 351.121512 65.320702 
L 351.794105 65.211005 
L 351.89301 65.184098 
L 351.905202 65.184098 
L 352.46757 65.074401 
L 352.572156 65.043354 
L 352.578666 65.043354 
L 353.042938 64.933657 
L 353.154262 64.90882 
L 353.78887 64.798088 
L 353.900754 64.778425 
L 354.436167 64.668728 
L 354.547471 64.641821 
L 354.936454 64.532124 
L 355.048588 64.507287 
L 355.648692 64.397589 
L 355.759872 64.378961 
L 356.245189 64.269264 
L 356.355664 64.244427 
L 356.356203 64.244427 
L 356.803596 64.13473 
L 356.914797 64.109893 
L 357.373573 64.000195 
L 357.462899 63.977428 
L 357.48467 63.977428 
L 358.135741 63.867731 
L 358.223863 63.847033 
L 358.246837 63.847033 
L 358.96372 63.737336 
L 358.96372 63.736301 
L 359.075771 63.712499 
L 359.539068 63.602802 
L 359.632249 63.571755 
L 359.650164 63.571755 
L 360.269511 63.461023 
L 360.352574 63.437221 
L 360.380607 63.437221 
L 360.998212 63.327524 
L 361.104167 63.310966 
L 361.109267 63.310966 
L 361.648412 63.201268 
L 361.760214 63.164013 
L 362.368446 63.054315 
L 362.480621 63.029478 
L 362.932597 62.919781 
L 363.043818 62.903223 
L 363.552483 62.793526 
L 363.663953 62.772828 
L 364.242908 62.662096 
L 364.348074 62.640363 
L 364.353507 62.640363 
L 364.947391 62.530666 
L 365.034394 62.516178 
L 365.058467 62.516178 
L 365.700352 62.406481 
L 365.700352 62.405446 
L 365.812693 62.375434 
L 366.294734 62.265737 
L 366.406453 62.23469 
L 367.123253 62.124993 
L 367.234764 62.100156 
L 367.76549 61.990459 
L 367.876794 61.973901 
L 368.59828 61.864204 
L 368.708464 61.833157 
L 368.709377 61.833157 
L 369.294096 61.72346 
L 369.392047 61.706902 
L 369.404986 61.706902 
L 369.953005 61.597205 
L 370.043698 61.574437 
L 370.064018 61.574437 
L 370.606149 61.46474 
L 370.718075 61.435763 
L 371.346669 61.326066 
L 371.439229 61.301229 
L 371.457683 61.301229 
L 372.082254 61.190497 
L 372.189453 61.156346 
L 372.193351 61.156346 
L 372.715162 61.046648 
L 372.824351 61.025951 
L 372.826258 61.025951 
L 373.443365 60.915219 
L 373.547578 60.903835 
L 373.554421 60.903835 
L 374.262926 60.794138 
L 374.366434 60.781719 
L 374.373982 60.781719 
L 375.171522 60.672022 
L 375.276357 60.638906 
L 375.282578 60.638906 
L 375.905034 60.529209 
L 375.905034 60.528174 
L 376.017914 60.498162 
L 376.606656 60.388465 
L 376.667762 60.378116 
L 376.71767 60.378116 
L 377.171056 60.268419 
L 377.281821 60.241512 
L 377.282111 60.241512 
L 377.98025 60.131815 
L 378.079403 60.109047 
L 378.091346 60.109047 
L 378.738311 59.99935 
L 378.847998 59.970373 
L 378.849325 59.970373 
L 379.513998 59.860676 
L 379.61481 59.839979 
L 379.625012 59.839979 
L 380.166644 59.730281 
L 380.274755 59.715793 
L 380.2777 59.715793 
L 380.830778 59.606096 
L 380.894848 59.583328 
L 380.941792 59.583328 
L 381.675221 59.473631 
L 381.783166 59.448794 
L 381.786276 59.448794 
L 382.472678 59.339097 
L 382.584376 59.31012 
L 383.185995 59.200423 
L 383.291949 59.179725 
L 383.29705 59.179725 
L 383.860247 59.070028 
L 383.961018 59.05347 
L 383.971344 59.05347 
L 384.597989 58.943773 
L 384.690797 58.916866 
L 384.709085 58.916866 
L 385.263615 58.807169 
L 385.368077 58.788541 
L 385.37467 58.788541 
L 385.966398 58.678843 
L 386.076085 58.656076 
L 386.077495 58.656076 
L 386.736154 58.546379 
L 386.840616 58.521542 
L 386.847127 58.521542 
L 387.534359 58.411844 
L 387.635461 58.395286 
L 387.645455 58.395286 
L 388.439927 58.285589 
L 388.543269 58.256612 
L 388.551024 58.256612 
L 389.511499 58.146915 
L 389.606298 58.117939 
L 389.622471 58.117939 
L 390.28055 58.008241 
L 390.391232 57.995823 
L 390.391522 57.995823 
L 391.004731 57.886125 
L 391.103221 57.863358 
L 391.115828 57.863358 
L 391.773907 57.753661 
L 391.865347 57.728824 
L 391.884962 57.728824 
L 392.688557 57.619126 
L 392.788416 57.58808 
L 392.799613 57.58808 
L 393.483029 57.477348 
L 393.567212 57.468034 
L 393.594126 57.468034 
L 394.364836 57.358337 
L 394.472532 57.337639 
L 394.475933 57.337639 
L 395.131648 57.227942 
L 395.241501 57.205175 
L 395.242496 57.205175 
L 396.29524 57.095477 
L 396.405093 57.07271 
L 396.406337 57.07271 
L 397.1272 56.963013 
L 397.226437 56.944385 
L 397.238256 56.944385 
L 397.935979 56.834688 
L 398.045417 56.81192 
L 398.046952 56.81192 
L 398.570213 56.702223 
L 398.669782 56.685665 
L 398.68131 56.685665 
L 399.503774 56.575968 
L 399.603591 56.55734 
L 399.614871 56.55734 
L 400.292772 56.447642 
L 400.369905 56.420736 
L 400.403869 56.420736 
L 401.218246 56.311038 
L 401.282897 56.29655 
L 401.329343 56.29655 
L 402.129372 56.186853 
L 402.238188 56.172364 
L 402.240427 56.172364 
L 403.066789 56.062667 
L 403.174983 56.046109 
L 403.17743 56.046109 
L 403.860225 55.936412 
L 403.967631 55.907435 
L 403.971073 55.907435 
L 404.553636 55.797738 
L 404.6277 55.78325 
L 404.664691 55.78325 
L 405.372699 55.673552 
L 405.464803 55.659064 
L 405.483257 55.659064 
L 406.149132 55.549367 
L 406.258404 55.532809 
L 406.259814 55.532809 
L 407.037532 55.423111 
L 407.145021 55.394135 
L 407.148505 55.394135 
L 407.744255 55.284438 
L 407.85531 55.2596 
L 408.354105 55.149903 
L 408.45811 55.135415 
L 408.46516 55.135415 
L 409.096989 55.025718 
L 409.204312 55.00709 
L 409.207754 55.00709 
L 410.078281 54.897393 
L 410.179052 54.860137 
L 410.188839 54.860137 
L 410.833067 54.75044 
L 410.933174 54.727672 
L 410.943956 54.727672 
L 411.629654 54.617975 
L 411.73706 54.593138 
L 411.740751 54.593138 
L 412.291299 54.483441 
L 412.390992 54.458603 
L 412.402189 54.458603 
L 413.105842 54.348906 
L 413.20935 54.328209 
L 413.216566 54.328209 
L 414.034261 54.218511 
L 414.142911 54.197814 
L 414.145233 54.197814 
L 414.72 54.144 
L 414.72 54.144 
" clip-path="url(#pb44eda5099)" style="fill: none; stroke: #ff8c00; stroke-width: 1.5; stroke-linecap: square"/>
   </g>
   <g id="line2d_14">
    <path d="M 74.605714 307.584 
L 414.72 54.144 
" clip-path="url(#pb44eda5099)" style="fill: none; stroke-dasharray: 5.55,2.4; stroke-dashoffset: 0; stroke: #0000ff; stroke-width: 1.5"/>
   </g>
   <g id="patch_3">
    <path d="M 57.6 307.584 
L 57.6 41.472 
" style="fill: none; stroke: #000000; stroke-width: 0.8; stroke-linejoin: miter; stroke-linecap: square"/>
   </g>
   <g id="patch_4">
    <path d="M 414.72 307.584 
L 414.72 41.472 
" style="fill: none; stroke: #000000; stroke-width: 0.8; stroke-linejoin: miter; stroke-linecap: square"/>
   </g>
   <g id="patch_5">
    <path d="M 57.6 307.584 
L 414.72 307.584 
" style="fill: none; stroke: #000000; stroke-width: 0.8; stroke-linejoin: miter; stroke-linecap: square"/>
   </g>
   <g id="patch_6">
    <path d="M 57.6 41.472 
L 414.72 41.472 
" style="fill: none; stroke: #000000; stroke-width: 0.8; stroke-linejoin: miter; stroke-linecap: square"/>
   </g>
   <g id="text_15">
    <!-- ROC CURVE -->
    <g transform="translate(200.855625 35.472)scale(0.12 -0.12)">
     <defs>
      <path id="DejaVuSans-4f" d="M 2522 4238 
Q 1834 4238 1429 3725 
Q 1025 3213 1025 2328 
Q 1025 1447 1429 934 
Q 1834 422 2522 422 
Q 3209 422 3611 934 
Q 4013 1447 4013 2328 
Q 4013 3213 3611 3725 
Q 3209 4238 2522 4238 
z
M 2522 4750 
Q 3503 4750 4090 4092 
Q 4678 3434 4678 2328 
Q 4678 1225 4090 567 
Q 3503 -91 2522 -91 
Q 1538 -91 948 565 
Q 359 1222 359 2328 
Q 359 3434 948 4092 
Q 1538 4750 2522 4750 
z
" transform="scale(0.015625)"/>
      <path id="DejaVuSans-43" d="M 4122 4306 
L 4122 3641 
Q 3803 3938 3442 4084 
Q 3081 4231 2675 4231 
Q 1875 4231 1450 3742 
Q 1025 3253 1025 2328 
Q 1025 1406 1450 917 
Q 1875 428 2675 428 
Q 3081 428 3442 575 
Q 3803 722 4122 1019 
L 4122 359 
Q 3791 134 3420 21 
Q 3050 -91 2638 -91 
Q 1578 -91 968 557 
Q 359 1206 359 2328 
Q 359 3453 968 4101 
Q 1578 4750 2638 4750 
Q 3056 4750 3426 4639 
Q 3797 4528 4122 4306 
z
" transform="scale(0.015625)"/>
      <path id="DejaVuSans-55" d="M 556 4666 
L 1191 4666 
L 1191 1831 
Q 1191 1081 1462 751 
Q 1734 422 2344 422 
Q 2950 422 3222 751 
Q 3494 1081 3494 1831 
L 3494 4666 
L 4128 4666 
L 4128 1753 
Q 4128 841 3676 375 
Q 3225 -91 2344 -91 
Q 1459 -91 1007 375 
Q 556 841 556 1753 
L 556 4666 
z
" transform="scale(0.015625)"/>
      <path id="DejaVuSans-56" d="M 1831 0 
L 50 4666 
L 709 4666 
L 2188 738 
L 3669 4666 
L 4325 4666 
L 2547 0 
L 1831 0 
z
" transform="scale(0.015625)"/>
      <path id="DejaVuSans-45" d="M 628 4666 
L 3578 4666 
L 3578 4134 
L 1259 4134 
L 1259 2753 
L 3481 2753 
L 3481 2222 
L 1259 2222 
L 1259 531 
L 3634 531 
L 3634 0 
L 628 0 
L 628 4666 
z
" transform="scale(0.015625)"/>
     </defs>
     <use xlink:href="#DejaVuSans-52"/>
     <use xlink:href="#DejaVuSans-4f" x="69.482422"/>
     <use xlink:href="#DejaVuSans-43" x="148.193359"/>
     <use xlink:href="#DejaVuSans-20" x="218.017578"/>
     <use xlink:href="#DejaVuSans-43" x="249.804688"/>
     <use xlink:href="#DejaVuSans-55" x="319.628906"/>
     <use xlink:href="#DejaVuSans-52" x="392.822266"/>
     <use xlink:href="#DejaVuSans-56" x="456.804688"/>
     <use xlink:href="#DejaVuSans-45" x="525.212891"/>
    </g>
   </g>
   <g id="legend_1">
    <g id="patch_7">
     <path d="M 234.97 302.584 
L 407.72 302.584 
Q 409.72 302.584 409.72 300.584 
L 409.72 286.905875 
Q 409.72 284.905875 407.72 284.905875 
L 234.97 284.905875 
Q 232.97 284.905875 232.97 286.905875 
L 232.97 300.584 
Q 232.97 302.584 234.97 302.584 
z
" style="fill: #ffffff; opacity: 0.8; stroke: #cccccc; stroke-linejoin: miter"/>
    </g>
    <g id="line2d_15">
     <path d="M 236.97 293.004312 
L 246.97 293.004312 
L 256.97 293.004312 
" style="fill: none; stroke: #ff8c00; stroke-width: 1.5; stroke-linecap: square"/>
    </g>
    <g id="text_16">
     <!-- ROC curve (ROC AUC=0.75) -->
     <g transform="translate(264.97 296.504312)scale(0.1 -0.1)">
      <defs>
       <path id="DejaVuSans-63" d="M 3122 3366 
L 3122 2828 
Q 2878 2963 2633 3030 
Q 2388 3097 2138 3097 
Q 1578 3097 1268 2742 
Q 959 2388 959 1747 
Q 959 1106 1268 751 
Q 1578 397 2138 397 
Q 2388 397 2633 464 
Q 2878 531 3122 666 
L 3122 134 
Q 2881 22 2623 -34 
Q 2366 -91 2075 -91 
Q 1284 -91 818 406 
Q 353 903 353 1747 
Q 353 2603 823 3093 
Q 1294 3584 2113 3584 
Q 2378 3584 2631 3529 
Q 2884 3475 3122 3366 
z
" transform="scale(0.015625)"/>
       <path id="DejaVuSans-28" d="M 1984 4856 
Q 1566 4138 1362 3434 
Q 1159 2731 1159 2009 
Q 1159 1288 1364 580 
Q 1569 -128 1984 -844 
L 1484 -844 
Q 1016 -109 783 600 
Q 550 1309 550 2009 
Q 550 2706 781 3412 
Q 1013 4119 1484 4856 
L 1984 4856 
z
" transform="scale(0.015625)"/>
       <path id="DejaVuSans-41" d="M 2188 4044 
L 1331 1722 
L 3047 1722 
L 2188 4044 
z
M 1831 4666 
L 2547 4666 
L 4325 0 
L 3669 0 
L 3244 1197 
L 1141 1197 
L 716 0 
L 50 0 
L 1831 4666 
z
" transform="scale(0.015625)"/>
       <path id="DejaVuSans-3d" d="M 678 2906 
L 4684 2906 
L 4684 2381 
L 678 2381 
L 678 2906 
z
M 678 1631 
L 4684 1631 
L 4684 1100 
L 678 1100 
L 678 1631 
z
" transform="scale(0.015625)"/>
       <path id="DejaVuSans-37" d="M 525 4666 
L 3525 4666 
L 3525 4397 
L 1831 0 
L 1172 0 
L 2766 4134 
L 525 4134 
L 525 4666 
z
" transform="scale(0.015625)"/>
       <path id="DejaVuSans-35" d="M 691 4666 
L 3169 4666 
L 3169 4134 
L 1269 4134 
L 1269 2991 
Q 1406 3038 1543 3061 
Q 1681 3084 1819 3084 
Q 2600 3084 3056 2656 
Q 3513 2228 3513 1497 
Q 3513 744 3044 326 
Q 2575 -91 1722 -91 
Q 1428 -91 1123 -41 
Q 819 9 494 109 
L 494 744 
Q 775 591 1075 516 
Q 1375 441 1709 441 
Q 2250 441 2565 725 
Q 2881 1009 2881 1497 
Q 2881 1984 2565 2268 
Q 2250 2553 1709 2553 
Q 1456 2553 1204 2497 
Q 953 2441 691 2322 
L 691 4666 
z
" transform="scale(0.015625)"/>
       <path id="DejaVuSans-29" d="M 513 4856 
L 1013 4856 
Q 1481 4119 1714 3412 
Q 1947 2706 1947 2009 
Q 1947 1309 1714 600 
Q 1481 -109 1013 -844 
L 513 -844 
Q 928 -128 1133 580 
Q 1338 1288 1338 2009 
Q 1338 2731 1133 3434 
Q 928 4138 513 4856 
z
" transform="scale(0.015625)"/>
      </defs>
      <use xlink:href="#DejaVuSans-52"/>
      <use xlink:href="#DejaVuSans-4f" x="69.482422"/>
      <use xlink:href="#DejaVuSans-43" x="148.193359"/>
      <use xlink:href="#DejaVuSans-20" x="218.017578"/>
      <use xlink:href="#DejaVuSans-63" x="249.804688"/>
      <use xlink:href="#DejaVuSans-75" x="304.785156"/>
      <use xlink:href="#DejaVuSans-72" x="368.164062"/>
      <use xlink:href="#DejaVuSans-76" x="409.277344"/>
      <use xlink:href="#DejaVuSans-65" x="468.457031"/>
      <use xlink:href="#DejaVuSans-20" x="529.980469"/>
      <use xlink:href="#DejaVuSans-28" x="561.767578"/>
      <use xlink:href="#DejaVuSans-52" x="600.78125"/>
      <use xlink:href="#DejaVuSans-4f" x="670.263672"/>
      <use xlink:href="#DejaVuSans-43" x="748.974609"/>
      <use xlink:href="#DejaVuSans-20" x="818.798828"/>
      <use xlink:href="#DejaVuSans-41" x="850.585938"/>
      <use xlink:href="#DejaVuSans-55" x="918.994141"/>
      <use xlink:href="#DejaVuSans-43" x="992.1875"/>
      <use xlink:href="#DejaVuSans-3d" x="1062.011719"/>
      <use xlink:href="#DejaVuSans-30" x="1145.800781"/>
      <use xlink:href="#DejaVuSans-2e" x="1209.423828"/>
      <use xlink:href="#DejaVuSans-37" x="1241.210938"/>
      <use xlink:href="#DejaVuSans-35" x="1304.833984"/>
      <use xlink:href="#DejaVuSans-29" x="1368.457031"/>
     </g>
    </g>
   </g>
  </g>
 </g>
 <defs>
  <clipPath id="pb44eda5099">
   <rect x="57.6" y="41.472" width="357.12" height="266.112"/>
  </clipPath>
 </defs>
</svg>
