<?xml version="1.0" encoding="utf-8" standalone="no"?>
<!DOCTYPE svg PUBLIC "-//W3C//DTD SVG 1.1//EN"
  "http://www.w3.org/Graphics/SVG/1.1/DTD/svg11.dtd">
<svg xmlns:xlink="http://www.w3.org/1999/xlink" width="460.8pt" height="345.6pt" viewBox="0 0 460.8 345.6" xmlns="http://www.w3.org/2000/svg" version="1.1">
 <metadata>
  <rdf:RDF xmlns:dc="http://purl.org/dc/elements/1.1/" xmlns:cc="http://creativecommons.org/ns#" xmlns:rdf="http://www.w3.org/1999/02/22-rdf-syntax-ns#">
   <cc:Work>
    <dc:type rdf:resource="http://purl.org/dc/dcmitype/StillImage"/>
    <dc:date>2022-05-24T08:53:08.083477</dc:date>
    <dc:format>image/svg+xml</dc:format>
    <dc:creator>
     <cc:Agent>
      <dc:title>Matplotlib v3.5.1, https://matplotlib.org/</dc:title>
     </cc:Agent>
    </dc:creator>
   </cc:Work>
  </rdf:RDF>
 </metadata>
 <defs>
  <style type="text/css">*{stroke-linejoin: round; stroke-linecap: butt}</style>
 </defs>
 <g id="figure_1">
  <g id="patch_1">
   <path d="M 0 345.6 
L 460.8 345.6 
L 460.8 0 
L 0 0 
z
" style="fill: #ffffff"/>
  </g>
  <g id="axes_1">
   <g id="patch_2">
    <path d="M 57.6 307.584 
L 414.72 307.584 
L 414.72 41.472 
L 57.6 41.472 
z
" style="fill: #ffffff"/>
   </g>
   <g id="matplotlib.axis_1">
    <g id="xtick_1">
     <g id="line2d_1">
      <defs>
       <path id="meb2c5497cd" d="M 0 0 
L 0 3.5 
" style="stroke: #000000; stroke-width: 0.8"/>
      </defs>
      <g>
       <use xlink:href="#meb2c5497cd" x="74.605714" y="307.584" style="stroke: #000000; stroke-width: 0.8"/>
      </g>
     </g>
     <g id="text_1">
      <!-- 0.0 -->
      <g transform="translate(66.654152 322.182437)scale(0.1 -0.1)">
       <defs>
        <path id="DejaVuSans-30" d="M 2034 4250 
Q 1547 4250 1301 3770 
Q 1056 3291 1056 2328 
Q 1056 1369 1301 889 
Q 1547 409 2034 409 
Q 2525 409 2770 889 
Q 3016 1369 3016 2328 
Q 3016 3291 2770 3770 
Q 2525 4250 2034 4250 
z
M 2034 4750 
Q 2819 4750 3233 4129 
Q 3647 3509 3647 2328 
Q 3647 1150 3233 529 
Q 2819 -91 2034 -91 
Q 1250 -91 836 529 
Q 422 1150 422 2328 
Q 422 3509 836 4129 
Q 1250 4750 2034 4750 
z
" transform="scale(0.015625)"/>
        <path id="DejaVuSans-2e" d="M 684 794 
L 1344 794 
L 1344 0 
L 684 0 
L 684 794 
z
" transform="scale(0.015625)"/>
       </defs>
       <use xlink:href="#DejaVuSans-30"/>
       <use xlink:href="#DejaVuSans-2e" x="63.623047"/>
       <use xlink:href="#DejaVuSans-30" x="95.410156"/>
      </g>
     </g>
    </g>
    <g id="xtick_2">
     <g id="line2d_2">
      <g>
       <use xlink:href="#meb2c5497cd" x="142.628571" y="307.584" style="stroke: #000000; stroke-width: 0.8"/>
      </g>
     </g>
     <g id="text_2">
      <!-- 0.2 -->
      <g transform="translate(134.677009 322.182437)scale(0.1 -0.1)">
       <defs>
        <path id="DejaVuSans-32" d="M 1228 531 
L 3431 531 
L 3431 0 
L 469 0 
L 469 531 
Q 828 903 1448 1529 
Q 2069 2156 2228 2338 
Q 2531 2678 2651 2914 
Q 2772 3150 2772 3378 
Q 2772 3750 2511 3984 
Q 2250 4219 1831 4219 
Q 1534 4219 1204 4116 
Q 875 4013 500 3803 
L 500 4441 
Q 881 4594 1212 4672 
Q 1544 4750 1819 4750 
Q 2544 4750 2975 4387 
Q 3406 4025 3406 3419 
Q 3406 3131 3298 2873 
Q 3191 2616 2906 2266 
Q 2828 2175 2409 1742 
Q 1991 1309 1228 531 
z
" transform="scale(0.015625)"/>
       </defs>
       <use xlink:href="#DejaVuSans-30"/>
       <use xlink:href="#DejaVuSans-2e" x="63.623047"/>
       <use xlink:href="#DejaVuSans-32" x="95.410156"/>
      </g>
     </g>
    </g>
    <g id="xtick_3">
     <g id="line2d_3">
      <g>
       <use xlink:href="#meb2c5497cd" x="210.651429" y="307.584" style="stroke: #000000; stroke-width: 0.8"/>
      </g>
     </g>
     <g id="text_3">
      <!-- 0.4 -->
      <g transform="translate(202.699866 322.182437)scale(0.1 -0.1)">
       <defs>
        <path id="DejaVuSans-34" d="M 2419 4116 
L 825 1625 
L 2419 1625 
L 2419 4116 
z
M 2253 4666 
L 3047 4666 
L 3047 1625 
L 3713 1625 
L 3713 1100 
L 3047 1100 
L 3047 0 
L 2419 0 
L 2419 1100 
L 313 1100 
L 313 1709 
L 2253 4666 
z
" transform="scale(0.015625)"/>
       </defs>
       <use xlink:href="#DejaVuSans-30"/>
       <use xlink:href="#DejaVuSans-2e" x="63.623047"/>
       <use xlink:href="#DejaVuSans-34" x="95.410156"/>
      </g>
     </g>
    </g>
    <g id="xtick_4">
     <g id="line2d_4">
      <g>
       <use xlink:href="#meb2c5497cd" x="278.674286" y="307.584" style="stroke: #000000; stroke-width: 0.8"/>
      </g>
     </g>
     <g id="text_4">
      <!-- 0.6 -->
      <g transform="translate(270.722723 322.182437)scale(0.1 -0.1)">
       <defs>
        <path id="DejaVuSans-36" d="M 2113 2584 
Q 1688 2584 1439 2293 
Q 1191 2003 1191 1497 
Q 1191 994 1439 701 
Q 1688 409 2113 409 
Q 2538 409 2786 701 
Q 3034 994 3034 1497 
Q 3034 2003 2786 2293 
Q 2538 2584 2113 2584 
z
M 3366 4563 
L 3366 3988 
Q 3128 4100 2886 4159 
Q 2644 4219 2406 4219 
Q 1781 4219 1451 3797 
Q 1122 3375 1075 2522 
Q 1259 2794 1537 2939 
Q 1816 3084 2150 3084 
Q 2853 3084 3261 2657 
Q 3669 2231 3669 1497 
Q 3669 778 3244 343 
Q 2819 -91 2113 -91 
Q 1303 -91 875 529 
Q 447 1150 447 2328 
Q 447 3434 972 4092 
Q 1497 4750 2381 4750 
Q 2619 4750 2861 4703 
Q 3103 4656 3366 4563 
z
" transform="scale(0.015625)"/>
       </defs>
       <use xlink:href="#DejaVuSans-30"/>
       <use xlink:href="#DejaVuSans-2e" x="63.623047"/>
       <use xlink:href="#DejaVuSans-36" x="95.410156"/>
      </g>
     </g>
    </g>
    <g id="xtick_5">
     <g id="line2d_5">
      <g>
       <use xlink:href="#meb2c5497cd" x="346.697143" y="307.584" style="stroke: #000000; stroke-width: 0.8"/>
      </g>
     </g>
     <g id="text_5">
      <!-- 0.8 -->
      <g transform="translate(338.74558 322.182437)scale(0.1 -0.1)">
       <defs>
        <path id="DejaVuSans-38" d="M 2034 2216 
Q 1584 2216 1326 1975 
Q 1069 1734 1069 1313 
Q 1069 891 1326 650 
Q 1584 409 2034 409 
Q 2484 409 2743 651 
Q 3003 894 3003 1313 
Q 3003 1734 2745 1975 
Q 2488 2216 2034 2216 
z
M 1403 2484 
Q 997 2584 770 2862 
Q 544 3141 544 3541 
Q 544 4100 942 4425 
Q 1341 4750 2034 4750 
Q 2731 4750 3128 4425 
Q 3525 4100 3525 3541 
Q 3525 3141 3298 2862 
Q 3072 2584 2669 2484 
Q 3125 2378 3379 2068 
Q 3634 1759 3634 1313 
Q 3634 634 3220 271 
Q 2806 -91 2034 -91 
Q 1263 -91 848 271 
Q 434 634 434 1313 
Q 434 1759 690 2068 
Q 947 2378 1403 2484 
z
M 1172 3481 
Q 1172 3119 1398 2916 
Q 1625 2713 2034 2713 
Q 2441 2713 2670 2916 
Q 2900 3119 2900 3481 
Q 2900 3844 2670 4047 
Q 2441 4250 2034 4250 
Q 1625 4250 1398 4047 
Q 1172 3844 1172 3481 
z
" transform="scale(0.015625)"/>
       </defs>
       <use xlink:href="#DejaVuSans-30"/>
       <use xlink:href="#DejaVuSans-2e" x="63.623047"/>
       <use xlink:href="#DejaVuSans-38" x="95.410156"/>
      </g>
     </g>
    </g>
    <g id="xtick_6">
     <g id="line2d_6">
      <g>
       <use xlink:href="#meb2c5497cd" x="414.72" y="307.584" style="stroke: #000000; stroke-width: 0.8"/>
      </g>
     </g>
     <g id="text_6">
      <!-- 1.0 -->
      <g transform="translate(406.768438 322.182437)scale(0.1 -0.1)">
       <defs>
        <path id="DejaVuSans-31" d="M 794 531 
L 1825 531 
L 1825 4091 
L 703 3866 
L 703 4441 
L 1819 4666 
L 2450 4666 
L 2450 531 
L 3481 531 
L 3481 0 
L 794 0 
L 794 531 
z
" transform="scale(0.015625)"/>
       </defs>
       <use xlink:href="#DejaVuSans-31"/>
       <use xlink:href="#DejaVuSans-2e" x="63.623047"/>
       <use xlink:href="#DejaVuSans-30" x="95.410156"/>
      </g>
     </g>
    </g>
    <g id="text_7">
     <!-- False Positive Rate -->
     <g transform="translate(189.693594 335.860562)scale(0.1 -0.1)">
      <defs>
       <path id="DejaVuSans-46" d="M 628 4666 
L 3309 4666 
L 3309 4134 
L 1259 4134 
L 1259 2759 
L 3109 2759 
L 3109 2228 
L 1259 2228 
L 1259 0 
L 628 0 
L 628 4666 
z
" transform="scale(0.015625)"/>
       <path id="DejaVuSans-61" d="M 2194 1759 
Q 1497 1759 1228 1600 
Q 959 1441 959 1056 
Q 959 750 1161 570 
Q 1363 391 1709 391 
Q 2188 391 2477 730 
Q 2766 1069 2766 1631 
L 2766 1759 
L 2194 1759 
z
M 3341 1997 
L 3341 0 
L 2766 0 
L 2766 531 
Q 2569 213 2275 61 
Q 1981 -91 1556 -91 
Q 1019 -91 701 211 
Q 384 513 384 1019 
Q 384 1609 779 1909 
Q 1175 2209 1959 2209 
L 2766 2209 
L 2766 2266 
Q 2766 2663 2505 2880 
Q 2244 3097 1772 3097 
Q 1472 3097 1187 3025 
Q 903 2953 641 2809 
L 641 3341 
Q 956 3463 1253 3523 
Q 1550 3584 1831 3584 
Q 2591 3584 2966 3190 
Q 3341 2797 3341 1997 
z
" transform="scale(0.015625)"/>
       <path id="DejaVuSans-6c" d="M 603 4863 
L 1178 4863 
L 1178 0 
L 603 0 
L 603 4863 
z
" transform="scale(0.015625)"/>
       <path id="DejaVuSans-73" d="M 2834 3397 
L 2834 2853 
Q 2591 2978 2328 3040 
Q 2066 3103 1784 3103 
Q 1356 3103 1142 2972 
Q 928 2841 928 2578 
Q 928 2378 1081 2264 
Q 1234 2150 1697 2047 
L 1894 2003 
Q 2506 1872 2764 1633 
Q 3022 1394 3022 966 
Q 3022 478 2636 193 
Q 2250 -91 1575 -91 
Q 1294 -91 989 -36 
Q 684 19 347 128 
L 347 722 
Q 666 556 975 473 
Q 1284 391 1588 391 
Q 1994 391 2212 530 
Q 2431 669 2431 922 
Q 2431 1156 2273 1281 
Q 2116 1406 1581 1522 
L 1381 1569 
Q 847 1681 609 1914 
Q 372 2147 372 2553 
Q 372 3047 722 3315 
Q 1072 3584 1716 3584 
Q 2034 3584 2315 3537 
Q 2597 3491 2834 3397 
z
" transform="scale(0.015625)"/>
       <path id="DejaVuSans-65" d="M 3597 1894 
L 3597 1613 
L 953 1613 
Q 991 1019 1311 708 
Q 1631 397 2203 397 
Q 2534 397 2845 478 
Q 3156 559 3463 722 
L 3463 178 
Q 3153 47 2828 -22 
Q 2503 -91 2169 -91 
Q 1331 -91 842 396 
Q 353 884 353 1716 
Q 353 2575 817 3079 
Q 1281 3584 2069 3584 
Q 2775 3584 3186 3129 
Q 3597 2675 3597 1894 
z
M 3022 2063 
Q 3016 2534 2758 2815 
Q 2500 3097 2075 3097 
Q 1594 3097 1305 2825 
Q 1016 2553 972 2059 
L 3022 2063 
z
" transform="scale(0.015625)"/>
       <path id="DejaVuSans-20" transform="scale(0.015625)"/>
       <path id="DejaVuSans-50" d="M 1259 4147 
L 1259 2394 
L 2053 2394 
Q 2494 2394 2734 2622 
Q 2975 2850 2975 3272 
Q 2975 3691 2734 3919 
Q 2494 4147 2053 4147 
L 1259 4147 
z
M 628 4666 
L 2053 4666 
Q 2838 4666 3239 4311 
Q 3641 3956 3641 3272 
Q 3641 2581 3239 2228 
Q 2838 1875 2053 1875 
L 1259 1875 
L 1259 0 
L 628 0 
L 628 4666 
z
" transform="scale(0.015625)"/>
       <path id="DejaVuSans-6f" d="M 1959 3097 
Q 1497 3097 1228 2736 
Q 959 2375 959 1747 
Q 959 1119 1226 758 
Q 1494 397 1959 397 
Q 2419 397 2687 759 
Q 2956 1122 2956 1747 
Q 2956 2369 2687 2733 
Q 2419 3097 1959 3097 
z
M 1959 3584 
Q 2709 3584 3137 3096 
Q 3566 2609 3566 1747 
Q 3566 888 3137 398 
Q 2709 -91 1959 -91 
Q 1206 -91 779 398 
Q 353 888 353 1747 
Q 353 2609 779 3096 
Q 1206 3584 1959 3584 
z
" transform="scale(0.015625)"/>
       <path id="DejaVuSans-69" d="M 603 3500 
L 1178 3500 
L 1178 0 
L 603 0 
L 603 3500 
z
M 603 4863 
L 1178 4863 
L 1178 4134 
L 603 4134 
L 603 4863 
z
" transform="scale(0.015625)"/>
       <path id="DejaVuSans-74" d="M 1172 4494 
L 1172 3500 
L 2356 3500 
L 2356 3053 
L 1172 3053 
L 1172 1153 
Q 1172 725 1289 603 
Q 1406 481 1766 481 
L 2356 481 
L 2356 0 
L 1766 0 
Q 1100 0 847 248 
Q 594 497 594 1153 
L 594 3053 
L 172 3053 
L 172 3500 
L 594 3500 
L 594 4494 
L 1172 4494 
z
" transform="scale(0.015625)"/>
       <path id="DejaVuSans-76" d="M 191 3500 
L 800 3500 
L 1894 563 
L 2988 3500 
L 3597 3500 
L 2284 0 
L 1503 0 
L 191 3500 
z
" transform="scale(0.015625)"/>
       <path id="DejaVuSans-52" d="M 2841 2188 
Q 3044 2119 3236 1894 
Q 3428 1669 3622 1275 
L 4263 0 
L 3584 0 
L 2988 1197 
Q 2756 1666 2539 1819 
Q 2322 1972 1947 1972 
L 1259 1972 
L 1259 0 
L 628 0 
L 628 4666 
L 2053 4666 
Q 2853 4666 3247 4331 
Q 3641 3997 3641 3322 
Q 3641 2881 3436 2590 
Q 3231 2300 2841 2188 
z
M 1259 4147 
L 1259 2491 
L 2053 2491 
Q 2509 2491 2742 2702 
Q 2975 2913 2975 3322 
Q 2975 3731 2742 3939 
Q 2509 4147 2053 4147 
L 1259 4147 
z
" transform="scale(0.015625)"/>
      </defs>
      <use xlink:href="#DejaVuSans-46"/>
      <use xlink:href="#DejaVuSans-61" x="48.394531"/>
      <use xlink:href="#DejaVuSans-6c" x="109.673828"/>
      <use xlink:href="#DejaVuSans-73" x="137.457031"/>
      <use xlink:href="#DejaVuSans-65" x="189.556641"/>
      <use xlink:href="#DejaVuSans-20" x="251.080078"/>
      <use xlink:href="#DejaVuSans-50" x="282.867188"/>
      <use xlink:href="#DejaVuSans-6f" x="339.544922"/>
      <use xlink:href="#DejaVuSans-73" x="400.726562"/>
      <use xlink:href="#DejaVuSans-69" x="452.826172"/>
      <use xlink:href="#DejaVuSans-74" x="480.609375"/>
      <use xlink:href="#DejaVuSans-69" x="519.818359"/>
      <use xlink:href="#DejaVuSans-76" x="547.601562"/>
      <use xlink:href="#DejaVuSans-65" x="606.78125"/>
      <use xlink:href="#DejaVuSans-20" x="668.304688"/>
      <use xlink:href="#DejaVuSans-52" x="700.091797"/>
      <use xlink:href="#DejaVuSans-61" x="767.324219"/>
      <use xlink:href="#DejaVuSans-74" x="828.603516"/>
      <use xlink:href="#DejaVuSans-65" x="867.8125"/>
     </g>
    </g>
   </g>
   <g id="matplotlib.axis_2">
    <g id="ytick_1">
     <g id="line2d_7">
      <defs>
       <path id="mcdb0fb3cf1" d="M 0 0 
L -3.5 0 
" style="stroke: #000000; stroke-width: 0.8"/>
      </defs>
      <g>
       <use xlink:href="#mcdb0fb3cf1" x="57.6" y="307.584" style="stroke: #000000; stroke-width: 0.8"/>
      </g>
     </g>
     <g id="text_8">
      <!-- 0.0 -->
      <g transform="translate(34.696875 311.383219)scale(0.1 -0.1)">
       <use xlink:href="#DejaVuSans-30"/>
       <use xlink:href="#DejaVuSans-2e" x="63.623047"/>
       <use xlink:href="#DejaVuSans-30" x="95.410156"/>
      </g>
     </g>
    </g>
    <g id="ytick_2">
     <g id="line2d_8">
      <g>
       <use xlink:href="#mcdb0fb3cf1" x="57.6" y="256.896" style="stroke: #000000; stroke-width: 0.8"/>
      </g>
     </g>
     <g id="text_9">
      <!-- 0.2 -->
      <g transform="translate(34.696875 260.695219)scale(0.1 -0.1)">
       <use xlink:href="#DejaVuSans-30"/>
       <use xlink:href="#DejaVuSans-2e" x="63.623047"/>
       <use xlink:href="#DejaVuSans-32" x="95.410156"/>
      </g>
     </g>
    </g>
    <g id="ytick_3">
     <g id="line2d_9">
      <g>
       <use xlink:href="#mcdb0fb3cf1" x="57.6" y="206.208" style="stroke: #000000; stroke-width: 0.8"/>
      </g>
     </g>
     <g id="text_10">
      <!-- 0.4 -->
      <g transform="translate(34.696875 210.007219)scale(0.1 -0.1)">
       <use xlink:href="#DejaVuSans-30"/>
       <use xlink:href="#DejaVuSans-2e" x="63.623047"/>
       <use xlink:href="#DejaVuSans-34" x="95.410156"/>
      </g>
     </g>
    </g>
    <g id="ytick_4">
     <g id="line2d_10">
      <g>
       <use xlink:href="#mcdb0fb3cf1" x="57.6" y="155.52" style="stroke: #000000; stroke-width: 0.8"/>
      </g>
     </g>
     <g id="text_11">
      <!-- 0.6 -->
      <g transform="translate(34.696875 159.319219)scale(0.1 -0.1)">
       <use xlink:href="#DejaVuSans-30"/>
       <use xlink:href="#DejaVuSans-2e" x="63.623047"/>
       <use xlink:href="#DejaVuSans-36" x="95.410156"/>
      </g>
     </g>
    </g>
    <g id="ytick_5">
     <g id="line2d_11">
      <g>
       <use xlink:href="#mcdb0fb3cf1" x="57.6" y="104.832" style="stroke: #000000; stroke-width: 0.8"/>
      </g>
     </g>
     <g id="text_12">
      <!-- 0.8 -->
      <g transform="translate(34.696875 108.631219)scale(0.1 -0.1)">
       <use xlink:href="#DejaVuSans-30"/>
       <use xlink:href="#DejaVuSans-2e" x="63.623047"/>
       <use xlink:href="#DejaVuSans-38" x="95.410156"/>
      </g>
     </g>
    </g>
    <g id="ytick_6">
     <g id="line2d_12">
      <g>
       <use xlink:href="#mcdb0fb3cf1" x="57.6" y="54.144" style="stroke: #000000; stroke-width: 0.8"/>
      </g>
     </g>
     <g id="text_13">
      <!-- 1.0 -->
      <g transform="translate(34.696875 57.943219)scale(0.1 -0.1)">
       <use xlink:href="#DejaVuSans-31"/>
       <use xlink:href="#DejaVuSans-2e" x="63.623047"/>
       <use xlink:href="#DejaVuSans-30" x="95.410156"/>
      </g>
     </g>
    </g>
    <g id="text_14">
     <!-- True Positive Rate -->
     <g transform="translate(28.617187 219.057687)rotate(-90)scale(0.1 -0.1)">
      <defs>
       <path id="DejaVuSans-54" d="M -19 4666 
L 3928 4666 
L 3928 4134 
L 2272 4134 
L 2272 0 
L 1638 0 
L 1638 4134 
L -19 4134 
L -19 4666 
z
" transform="scale(0.015625)"/>
       <path id="DejaVuSans-72" d="M 2631 2963 
Q 2534 3019 2420 3045 
Q 2306 3072 2169 3072 
Q 1681 3072 1420 2755 
Q 1159 2438 1159 1844 
L 1159 0 
L 581 0 
L 581 3500 
L 1159 3500 
L 1159 2956 
Q 1341 3275 1631 3429 
Q 1922 3584 2338 3584 
Q 2397 3584 2469 3576 
Q 2541 3569 2628 3553 
L 2631 2963 
z
" transform="scale(0.015625)"/>
       <path id="DejaVuSans-75" d="M 544 1381 
L 544 3500 
L 1119 3500 
L 1119 1403 
Q 1119 906 1312 657 
Q 1506 409 1894 409 
Q 2359 409 2629 706 
Q 2900 1003 2900 1516 
L 2900 3500 
L 3475 3500 
L 3475 0 
L 2900 0 
L 2900 538 
Q 2691 219 2414 64 
Q 2138 -91 1772 -91 
Q 1169 -91 856 284 
Q 544 659 544 1381 
z
M 1991 3584 
L 1991 3584 
z
" transform="scale(0.015625)"/>
      </defs>
      <use xlink:href="#DejaVuSans-54"/>
      <use xlink:href="#DejaVuSans-72" x="46.333984"/>
      <use xlink:href="#DejaVuSans-75" x="87.447266"/>
      <use xlink:href="#DejaVuSans-65" x="150.826172"/>
      <use xlink:href="#DejaVuSans-20" x="212.349609"/>
      <use xlink:href="#DejaVuSans-50" x="244.136719"/>
      <use xlink:href="#DejaVuSans-6f" x="300.814453"/>
      <use xlink:href="#DejaVuSans-73" x="361.996094"/>
      <use xlink:href="#DejaVuSans-69" x="414.095703"/>
      <use xlink:href="#DejaVuSans-74" x="441.878906"/>
      <use xlink:href="#DejaVuSans-69" x="481.087891"/>
      <use xlink:href="#DejaVuSans-76" x="508.871094"/>
      <use xlink:href="#DejaVuSans-65" x="568.050781"/>
      <use xlink:href="#DejaVuSans-20" x="629.574219"/>
      <use xlink:href="#DejaVuSans-52" x="661.361328"/>
      <use xlink:href="#DejaVuSans-61" x="728.59375"/>
      <use xlink:href="#DejaVuSans-74" x="789.873047"/>
      <use xlink:href="#DejaVuSans-65" x="829.082031"/>
     </g>
    </g>
   </g>
   <g id="line2d_13">
    <path d="M 74.605714 307.584 
L 74.841178 307.474303 
L 74.947796 307.393582 
L 74.952275 307.393582 
L 75.067726 307.283885 
L 75.182928 307.180397 
L 75.293402 307.0707 
L 75.402675 306.971351 
L 75.520033 306.861654 
L 75.630135 306.733329 
L 75.630964 306.733329 
L 75.766196 306.623632 
L 75.876878 306.482888 
L 75.992578 306.373191 
L 76.103509 306.244866 
L 76.18172 306.135168 
L 76.289748 306.017192 
L 76.292609 306.017192 
L 76.387574 305.907495 
L 76.498588 305.733635 
L 76.579205 305.623938 
L 76.688684 305.495613 
L 76.689182 305.495613 
L 76.775853 305.385915 
L 76.883591 305.265869 
L 76.886701 305.265869 
L 76.995226 305.156172 
L 77.104623 305.017498 
L 77.106323 305.017498 
L 77.199132 304.907801 
L 77.308114 304.731871 
L 77.309441 304.731871 
L 77.409009 304.622174 
L 77.518944 304.500058 
L 77.51911 304.500058 
L 77.591723 304.390361 
L 77.702613 304.218571 
L 77.702696 304.218571 
L 77.800066 304.108874 
L 77.910665 303.955711 
L 77.911163 303.955711 
L 77.990162 303.846014 
L 78.10101 303.647317 
L 78.180673 303.53762 
L 78.288784 303.392737 
L 78.291769 303.392737 
L 78.361065 303.283039 
L 78.471249 303.100901 
L 78.471747 303.100901 
L 78.551907 302.991203 
L 78.659852 302.806995 
L 78.662133 302.806995 
L 78.736156 302.697297 
L 78.846424 302.542065 
L 78.926791 302.432368 
L 79.037266 302.231602 
L 79.037888 302.231602 
L 79.099138 302.121904 
L 79.209323 301.958393 
L 79.210111 301.958393 
L 79.282392 301.848696 
L 79.391001 301.656208 
L 79.392991 301.656208 
L 79.480492 301.546511 
L 79.588437 301.362302 
L 79.591547 301.362302 
L 79.646452 301.252605 
L 79.761447 301.047699 
L 79.812952 300.938002 
L 79.923925 300.743444 
L 79.99716 300.633747 
L 80.107842 300.428841 
L 80.108256 300.428841 
L 80.171871 300.319144 
L 80.282967 300.087331 
L 80.346996 299.977633 
L 80.457388 299.762378 
L 80.526476 299.652681 
L 80.637573 299.478821 
L 80.703426 299.369124 
L 80.813818 299.153869 
L 80.814523 299.153869 
L 80.872248 299.044172 
L 80.982848 298.864103 
L 80.983096 298.864103 
L 81.056 298.754405 
L 81.167055 298.547429 
L 81.226273 298.437732 
L 81.337329 298.210059 
L 81.410771 298.100361 
L 81.521826 297.878897 
L 81.575819 297.7692 
L 81.686336 297.572573 
L 81.686792 297.572573 
L 81.746135 297.462875 
L 81.856277 297.239341 
L 81.856526 297.239341 
L 81.916698 297.129644 
L 82.026966 296.872994 
L 82.027795 296.872994 
L 82.076107 296.763297 
L 82.186955 296.572879 
L 82.186996 296.572879 
L 82.24609 296.463181 
L 82.356192 296.189973 
L 82.356855 296.189973 
L 82.410475 296.080276 
L 82.520535 295.840184 
L 82.521531 295.840184 
L 82.58162 295.730486 
L 82.690643 295.494534 
L 82.692385 295.494534 
L 82.737794 295.384837 
L 82.85366 295.136465 
L 82.904833 295.026768 
L 83.014064 294.801164 
L 83.015722 294.801164 
L 83.061629 294.691467 
L 83.171689 294.443096 
L 83.172643 294.443096 
L 83.220374 294.333399 
L 83.330517 294.091237 
L 83.331429 294.091237 
L 83.390026 293.98154 
L 83.500583 293.745587 
L 83.501081 293.745587 
L 83.54537 293.63589 
L 83.656426 293.354402 
L 83.656467 293.354402 
L 83.704655 293.244705 
L 83.814258 292.965288 
L 83.815585 292.965288 
L 83.858548 292.85559 
L 83.969644 292.59894 
L 84.016505 292.489243 
L 84.126441 292.230523 
L 84.127519 292.230523 
L 84.165961 292.120826 
L 84.272869 291.835199 
L 84.276809 291.835199 
L 84.335986 291.725502 
L 84.452598 291.435735 
L 84.498048 291.326038 
L 84.608855 291.034202 
L 84.609021 291.034202 
L 84.650946 290.924505 
L 84.761753 290.655436 
L 84.761919 290.655436 
L 84.808323 290.545739 
L 84.926013 290.212507 
L 84.965243 290.10281 
L 85.07605 289.777858 
L 85.115736 289.67023 
L 85.226791 289.394952 
L 85.272408 289.285255 
L 85.383463 288.970651 
L 85.423025 288.860954 
L 85.534122 288.533932 
L 85.567836 288.424235 
L 85.678892 288.11791 
L 85.716131 288.008213 
L 85.826481 287.718447 
L 85.827228 287.718447 
L 85.851487 287.610819 
L 85.851487 287.60875 
L 85.962294 287.281728 
L 85.962501 287.281728 
L 85.999451 287.17203 
L 86.110133 286.876055 
L 86.11034 286.876055 
L 86.136839 286.766357 
L 86.247314 286.470382 
L 86.247728 286.470382 
L 86.286917 286.360684 
L 86.404193 286.05229 
L 86.44193 285.942593 
L 86.552529 285.601083 
L 86.601131 285.491385 
L 86.711979 285.127108 
L 86.751707 285.01741 
L 86.86272 284.688319 
L 86.902656 284.578621 
L 87.012715 284.226762 
L 87.013586 284.226762 
L 87.047384 284.117065 
L 87.157568 283.792113 
L 87.157817 283.792113 
L 87.204553 283.682416 
L 87.315484 283.316068 
L 87.31565 283.316068 
L 87.34924 283.206371 
L 87.460213 282.837954 
L 87.492061 282.728256 
L 87.603116 282.322583 
L 87.603158 282.322583 
L 87.644254 282.212886 
L 87.755309 281.807213 
L 87.755351 281.807213 
L 87.792507 281.697516 
L 87.902733 281.349796 
L 87.903521 281.349796 
L 87.951252 281.240099 
L 88.061893 280.923426 
L 88.098386 280.813729 
L 88.209234 280.497055 
L 88.238843 280.387358 
L 88.34994 279.960988 
L 88.387387 279.85129 
L 88.497654 279.499431 
L 88.497903 279.499431 
L 88.540368 279.389734 
L 88.651008 279.023387 
L 88.651216 279.023387 
L 88.676056 278.913689 
L 88.78707 278.464551 
L 88.82348 278.353819 
L 88.934577 277.990576 
L 88.975984 277.880879 
L 89.091746 277.411044 
L 89.11783 277.301346 
L 89.22507 276.854278 
L 89.228885 276.854278 
L 89.256711 276.744581 
L 89.375812 276.332699 
L 89.403638 276.223002 
L 89.514693 275.823538 
L 89.539409 275.713841 
L 89.649925 275.266773 
L 89.650422 275.266773 
L 89.675014 275.157075 
L 89.786111 274.672752 
L 89.809956 274.563054 
L 89.920803 274.055963 
L 89.921052 274.055963 
L 90.041231 273.596477 
L 90.070176 273.486779 
L 90.180817 273.0542 
L 90.181273 273.0542 
L 90.216273 272.944502 
L 90.326665 272.522271 
L 90.327329 272.522271 
L 90.357311 272.412574 
L 90.468366 271.909623 
L 90.497768 271.799925 
L 90.608657 271.294904 
L 90.608823 271.294904 
L 90.643989 271.185207 
L 90.755003 270.700883 
L 90.77466 270.593255 
L 90.77466 270.591186 
L 90.884761 270.113071 
L 90.885342 270.113071 
L 90.914412 270.003374 
L 91.025343 269.498353 
L 91.055242 269.388655 
L 91.165717 268.896053 
L 91.189023 268.786355 
L 91.299041 268.331008 
L 91.299705 268.331008 
L 91.327738 268.221311 
L 91.438669 267.71215 
L 91.463011 267.602453 
L 91.574108 267.10985 
L 91.599073 267.000153 
L 91.709755 266.474434 
L 91.709962 266.474434 
L 91.7353 266.364736 
L 91.84507 265.913529 
L 91.845858 265.913529 
L 91.870366 265.803832 
L 91.981089 265.255345 
L 91.981338 265.255345 
L 92.004312 265.145648 
L 92.114041 264.669603 
L 92.11516 264.669603 
L 92.139835 264.561976 
L 92.250724 264.044536 
L 92.277223 263.934839 
L 92.387532 263.442236 
L 92.388278 263.442236 
L 92.41457 263.332539 
L 92.525127 262.835796 
L 92.525584 262.835796 
L 92.554032 262.726099 
L 92.665045 262.233496 
L 92.689181 262.123799 
L 92.800111 261.604289 
L 92.822546 261.494592 
L 92.931362 261.055803 
L 92.932067 261.055803 
L 92.960184 260.946106 
L 93.07128 260.4742 
L 93.092015 260.364503 
L 93.202821 259.851203 
L 93.203112 259.851203 
L 93.22733 259.741506 
L 93.347799 259.265461 
L 93.370565 259.155764 
L 93.480957 258.654882 
L 93.481662 258.654882 
L 93.506378 258.545184 
L 93.617019 258.081558 
L 93.644927 257.971861 
L 93.760835 257.487537 
L 93.778791 257.37784 
L 93.88939 256.897656 
L 93.915723 256.786924 
L 94.025037 256.3471 
L 94.026405 256.3471 
L 94.046767 256.237402 
L 94.15778 255.815172 
L 94.181169 255.705474 
L 94.2921 255.270825 
L 94.292266 255.270825 
L 94.315738 255.161127 
L 94.426834 254.70578 
L 94.45184 254.596083 
L 94.562937 254.124178 
L 94.58645 254.01862 
L 94.58645 254.014481 
L 94.697423 253.581901 
L 94.725166 253.472204 
L 94.833899 253.029275 
L 94.836179 253.029275 
L 94.856043 252.919578 
L 94.966808 252.439394 
L 94.967057 252.439394 
L 94.997454 252.329696 
L 95.108302 251.921954 
L 95.108426 251.921954 
L 95.136957 251.812256 
L 95.247266 251.367258 
L 95.248013 251.367258 
L 95.271941 251.259631 
L 95.271941 251.257561 
L 95.391621 250.82912 
L 95.422806 250.719423 
L 95.532784 250.278564 
L 95.533903 250.278564 
L 95.555467 250.168867 
L 95.66644 249.688683 
L 95.693685 249.578986 
L 95.804243 249.123639 
L 95.80474 249.123639 
L 95.826968 249.013941 
L 95.936862 248.552385 
L 95.937526 248.552385 
L 95.970991 248.442688 
L 96.081756 248.008038 
L 96.112029 247.898341 
L 96.220057 247.519575 
L 96.222379 247.519575 
L 96.252237 247.409878 
L 96.362131 246.987647 
L 96.362214 246.987647 
L 96.388796 246.882089 
L 96.388796 246.877949 
L 96.499582 246.43916 
L 96.499893 246.43916 
L 96.530622 246.329463 
L 96.641428 245.903093 
L 96.641594 245.903093 
L 96.674479 245.793395 
L 96.785452 245.393932 
L 96.785576 245.393932 
L 96.812407 245.284234 
L 96.923504 244.89512 
L 96.960328 244.787492 
L 97.071135 244.396307 
L 97.071176 244.396307 
L 97.095312 244.28661 
L 97.205289 243.928542 
L 97.206201 243.928542 
L 97.23241 243.818845 
L 97.343258 243.380056 
L 97.343423 243.380056 
L 97.380373 243.270358 
L 97.491013 242.848127 
L 97.491345 242.848127 
L 97.523484 242.73843 
L 97.634415 242.31206 
L 97.634581 242.31206 
L 97.660582 242.202362 
L 97.771596 241.836015 
L 97.807011 241.726318 
L 97.937474 241.244064 
L 97.973096 241.134366 
L 98.083695 240.745251 
L 98.084068 240.745251 
L 98.117534 240.635554 
L 98.228133 240.217463 
L 98.228465 240.217463 
L 98.264585 240.107765 
L 98.374976 239.708302 
L 98.37564 239.708302 
L 98.405498 239.598605 
L 98.515807 239.151537 
L 98.516553 239.151537 
L 98.545831 239.043909 
L 98.656927 238.658934 
L 98.685541 238.548202 
L 98.796555 238.182889 
L 98.796638 238.182889 
L 98.831182 238.073192 
L 98.941325 237.706844 
L 98.942279 237.706844 
L 98.974459 237.597147 
L 99.085265 237.156288 
L 99.085473 237.156288 
L 99.114543 237.046591 
L 99.225183 236.661616 
L 99.225432 236.661616 
L 99.266819 236.551918 
L 99.377833 236.177292 
L 99.377874 236.177292 
L 99.406239 236.06656 
L 99.517004 235.661922 
L 99.542218 235.552224 
L 99.653065 235.200365 
L 99.683421 235.090668 
L 99.793813 234.751227 
L 99.794269 234.751227 
L 99.832545 234.64153 
L 99.943642 234.239997 
L 99.975947 234.1303 
L 100.086214 233.714278 
L 100.08696 233.714278 
L 100.114786 233.604581 
L 100.225551 233.248582 
L 100.265984 233.138885 
L 100.37621 232.805653 
L 100.376998 232.805653 
L 100.412579 232.695956 
L 100.522556 232.366864 
L 100.523592 232.366864 
L 100.556395 232.257167 
L 100.66604 231.841145 
L 100.66716 231.841145 
L 100.70328 231.730413 
L 100.813506 231.336124 
L 100.814293 231.336124 
L 100.840668 231.226427 
L 100.951765 230.868358 
L 100.981789 230.758661 
L 101.092719 230.396453 
L 101.092823 230.396453 
L 101.126019 230.288826 
L 101.236536 229.932827 
L 101.236909 229.932827 
L 101.273754 229.822095 
L 101.384582 229.483689 
L 101.384747 229.483689 
L 101.411827 229.373992 
L 101.522924 229.063528 
L 101.559624 228.953831 
L 101.670679 228.577134 
L 101.670721 228.577134 
L 101.70709 228.467437 
L 101.817481 228.105229 
L 101.818145 228.105229 
L 101.85638 227.995532 
L 101.965071 227.651952 
L 101.967352 227.651952 
L 101.996049 227.542255 
L 102.107021 227.211093 
L 102.107146 227.211093 
L 102.144261 227.101396 
L 102.255316 226.784723 
L 102.293053 226.675025 
L 102.404025 226.337655 
L 102.40415 226.337655 
L 102.439482 226.227957 
L 102.550371 225.950609 
L 102.579524 225.840912 
L 102.688506 225.509751 
L 102.690538 225.509751 
L 102.726326 225.400053 
L 102.836925 225.08338 
L 102.837381 225.08338 
L 102.871221 224.973683 
L 102.981571 224.6508 
L 102.982234 224.6508 
L 103.017608 224.541103 
L 103.128248 224.212011 
L 103.128539 224.212011 
L 103.163829 224.102314 
L 103.274718 223.779432 
L 103.274926 223.779432 
L 103.314778 223.669734 
L 103.438315 223.350991 
L 103.489738 223.241294 
L 103.600627 222.893574 
L 103.600751 222.893574 
L 103.654454 222.783877 
L 103.76468 222.477553 
L 103.765468 222.477553 
L 103.815273 222.367855 
L 103.933005 222.034624 
L 103.977584 221.923892 
L 104.088184 221.622742 
L 104.088681 221.622742 
L 104.130773 221.51201 
L 104.24133 221.223278 
L 104.241869 221.223278 
L 104.277906 221.115651 
L 104.388962 220.823815 
L 104.430763 220.714118 
L 104.541569 220.395375 
L 104.541859 220.395375 
L 104.582956 220.284642 
L 104.700107 219.979353 
L 104.738342 219.869656 
L 104.848775 219.563331 
L 104.849439 219.563331 
L 104.893521 219.453634 
L 105.004037 219.155588 
L 105.004617 219.155588 
L 105.046336 219.045891 
L 105.157225 218.758195 
L 105.157432 218.758195 
L 105.205412 218.648497 
L 105.316302 218.327685 
L 105.316468 218.327685 
L 105.360259 218.217987 
L 105.468122 217.953058 
L 105.470941 217.953058 
L 105.512743 217.843361 
L 105.623549 217.539106 
L 105.623839 217.539106 
L 105.672068 217.429409 
L 105.783041 217.16241 
L 105.783082 217.16241 
L 105.822893 217.052713 
L 105.93258 216.781574 
L 105.93399 216.781574 
L 105.982343 216.671877 
L 106.093025 216.413157 
L 106.093357 216.413157 
L 106.138683 216.30346 
L 106.249697 216.030251 
L 106.294732 215.920554 
L 106.404585 215.639067 
L 106.405788 215.639067 
L 106.453685 215.52937 
L 106.564367 215.210627 
L 106.605007 215.102999 
L 106.716062 214.780117 
L 106.716104 214.780117 
L 106.758112 214.670419 
L 106.86867 214.40963 
L 106.869209 214.40963 
L 106.915199 214.299932 
L 107.025673 213.993608 
L 107.026088 213.993608 
L 107.069921 213.883911 
L 107.180479 213.515493 
L 107.180645 213.515493 
L 107.222695 213.405796 
L 107.33093 213.103611 
L 107.33375 213.103611 
L 107.385214 212.993914 
L 107.496103 212.716566 
L 107.496227 212.716566 
L 107.534379 212.606869 
L 107.642697 212.319172 
L 107.645144 212.319172 
L 107.687194 212.209475 
L 107.796922 211.950755 
L 107.798291 211.950755 
L 107.842331 211.841058 
L 107.952557 211.600966 
L 107.953179 211.600966 
L 107.988968 211.491268 
L 108.099359 211.224269 
L 108.100064 211.224269 
L 108.150989 211.114572 
L 108.261629 210.897247 
L 108.261961 210.897247 
L 108.308656 210.78755 
L 108.416891 210.514342 
L 108.419669 210.514342 
L 108.465991 210.404645 
L 108.576963 210.139715 
L 108.577087 210.139715 
L 108.626478 210.030018 
L 108.737367 209.75888 
L 108.737574 209.75888 
L 108.783896 209.649182 
L 108.894951 209.353207 
L 108.937706 209.24351 
L 109.047724 209.005487 
L 109.04872 209.005487 
L 109.106818 208.89579 
L 109.217749 208.641209 
L 109.217915 208.641209 
L 109.264029 208.531512 
L 109.375002 208.276932 
L 109.375126 208.276932 
L 109.498456 207.968538 
L 109.545275 207.85884 
L 109.65492 207.593911 
L 109.656372 207.593911 
L 109.700288 207.485249 
L 109.810763 207.266889 
L 109.811385 207.266889 
L 109.857706 207.157192 
L 109.968761 206.892263 
L 109.968803 206.892263 
L 110.016907 206.782565 
L 110.125972 206.496938 
L 110.128004 206.496938 
L 110.178472 206.387241 
L 110.289051 206.153358 
L 110.289569 206.153358 
L 110.357704 206.043661 
L 110.474025 205.782871 
L 110.528889 205.673174 
L 110.639779 205.391687 
L 110.63982 205.391687 
L 110.705259 205.28199 
L 110.815029 205.041897 
L 110.816356 205.041897 
L 110.869146 204.931165 
L 110.985842 204.652783 
L 111.031582 204.543085 
L 111.140191 204.33404 
L 111.142679 204.33404 
L 111.215997 204.224342 
L 111.324357 203.967692 
L 111.326969 203.967692 
L 111.376111 203.857995 
L 111.485756 203.636531 
L 111.487207 203.636531 
L 111.522291 203.526833 
L 111.522291 203.525798 
L 111.638695 203.255695 
L 111.685058 203.145998 
L 111.796155 202.843813 
L 111.84484 202.734115 
L 111.955812 202.469186 
L 111.955916 202.469186 
L 112.005907 202.359489 
L 112.115511 202.117327 
L 112.116963 202.117327 
L 112.1564 202.00763 
L 112.265216 201.74477 
L 112.267372 201.74477 
L 112.320578 201.635073 
L 112.320578 201.634038 
L 112.440466 201.409469 
L 112.498523 201.298737 
L 112.608749 201.05554 
L 112.609579 201.05554 
L 112.665562 200.945843 
L 112.776327 200.722309 
L 112.776576 200.722309 
L 112.836831 200.612612 
L 112.946311 200.384938 
L 112.947804 200.384938 
L 113.001797 200.275241 
L 113.112728 200.033079 
L 113.112893 200.033079 
L 113.168836 199.923382 
L 113.279891 199.643964 
L 113.332557 199.534267 
L 113.443073 199.314872 
L 113.443654 199.314872 
L 113.505983 199.205175 
L 113.614301 198.954734 
L 113.616996 198.954734 
L 113.661825 198.845037 
L 113.772839 198.619433 
L 113.772922 198.619433 
L 113.827786 198.509736 
L 113.937016 198.290341 
L 113.938882 198.290341 
L 113.987277 198.180644 
L 114.097669 197.967459 
L 114.098374 197.967459 
L 114.150418 197.857762 
L 114.261142 197.628018 
L 114.261349 197.628018 
L 114.309827 197.518321 
L 114.418933 197.278229 
L 114.420633 197.278229 
L 114.471889 197.167497 
L 114.581701 196.953277 
L 114.582945 196.953277 
L 114.633869 196.843579 
L 114.747039 196.634534 
L 114.802111 196.524836 
L 114.912627 196.322 
L 114.913207 196.322 
L 114.968486 196.212303 
L 115.078173 195.982559 
L 115.0795 195.982559 
L 115.110395 195.872862 
L 115.221326 195.659677 
L 115.221491 195.659677 
L 115.271338 195.54998 
L 115.382144 195.29126 
L 115.382434 195.29126 
L 115.430871 195.180528 
L 115.541594 194.960098 
L 115.541885 194.960098 
L 115.58099 194.850401 
L 115.691797 194.614448 
L 115.692046 194.614448 
L 115.744587 194.504751 
L 115.854772 194.250171 
L 115.855394 194.250171 
L 115.911958 194.140473 
L 116.023055 193.923149 
L 116.070828 193.813451 
L 116.180805 193.600266 
L 116.181924 193.600266 
L 116.248483 193.492639 
L 116.248483 193.489534 
L 116.369574 193.240128 
L 116.43211 193.130431 
L 116.543082 192.896548 
L 116.543206 192.896548 
L 116.614244 192.78685 
L 116.722313 192.550898 
L 116.72534 192.550898 
L 116.798451 192.441201 
L 116.798451 192.440166 
L 116.919459 192.194899 
L 116.974033 192.085202 
L 117.08459 191.861668 
L 117.085129 191.861668 
L 117.132653 191.751971 
L 117.243667 191.513948 
L 117.304295 191.404251 
L 117.411784 191.166229 
L 117.415309 191.166229 
L 117.481121 191.056531 
L 117.591306 190.853695 
L 117.591886 190.853695 
L 117.632754 190.743998 
L 117.746215 190.508045 
L 117.800768 190.398348 
L 117.916136 190.183093 
L 117.976516 190.073396 
L 118.087239 189.903675 
L 118.087612 189.903675 
L 118.144799 189.793978 
L 118.252412 189.597351 
L 118.255895 189.597351 
L 118.306281 189.486619 
L 118.416548 189.268259 
L 118.417212 189.268259 
L 118.465689 189.160632 
L 118.575666 188.91226 
L 118.576662 188.91226 
L 118.637746 188.802563 
L 118.747184 188.56868 
L 118.748801 188.56868 
L 118.809098 188.458983 
L 118.918826 188.243728 
L 118.920195 188.243728 
L 118.976801 188.134031 
L 119.086861 187.931194 
L 119.087814 187.931194 
L 119.151097 187.821497 
L 119.261903 187.643498 
L 119.262152 187.643498 
L 119.330867 187.5338 
L 119.4396 187.333034 
L 119.441964 187.333034 
L 119.502011 187.223337 
L 119.612901 186.962547 
L 119.613108 186.962547 
L 119.661918 186.85285 
L 119.661918 186.851815 
L 119.783548 186.58999 
L 119.829662 186.480293 
L 119.937856 186.262968 
L 119.940675 186.262968 
L 120.011174 186.153271 
L 120.122146 185.948365 
L 120.122229 185.948365 
L 120.169566 185.838667 
L 120.282716 185.631691 
L 120.346288 185.521994 
L 120.455602 185.292251 
L 120.457261 185.292251 
L 120.516977 185.182554 
L 120.627742 184.965229 
L 120.628011 184.965229 
L 120.700438 184.855531 
L 120.810124 184.683741 
L 120.811327 184.683741 
L 120.866357 184.574044 
L 120.979403 184.356719 
L 121.05243 184.247022 
L 121.167052 184.064883 
L 121.240785 183.955186 
L 121.356174 183.742001 
L 121.422877 183.631269 
L 121.533725 183.433607 
L 121.533808 183.433607 
L 121.601818 183.323909 
L 121.7125 183.14384 
L 121.712873 183.14384 
L 121.776073 183.034143 
L 121.891109 182.837516 
L 121.963598 182.727819 
L 122.073823 182.537401 
L 122.074528 182.537401 
L 122.129558 182.427703 
L 122.238499 182.204169 
L 122.240572 182.204169 
L 122.305513 182.094472 
L 122.416444 181.891636 
L 122.416569 181.891636 
L 122.490322 181.781938 
L 122.60314 181.606009 
L 122.679485 181.496312 
L 122.790457 181.278987 
L 122.79054 181.278987 
L 122.845197 181.16929 
L 122.953225 180.974732 
L 122.956294 180.974732 
L 123.021774 180.864 
L 123.131005 180.670477 
L 123.132746 180.670477 
L 123.18168 180.56078 
L 123.292528 180.345525 
L 123.292777 180.345525 
L 123.354069 180.235828 
L 123.464378 180.04955 
L 123.464958 180.04955 
L 123.527536 179.941922 
L 123.638383 179.732876 
L 123.638549 179.732876 
L 123.715807 179.623179 
L 123.826323 179.44104 
L 123.826904 179.44104 
L 123.892011 179.331343 
L 124.00178 179.116088 
L 124.003066 179.116088 
L 124.062989 179.006391 
L 124.173464 178.851159 
L 124.174086 178.851159 
L 124.22781 178.741461 
L 124.340897 178.540695 
L 124.411416 178.430998 
L 124.521849 178.292324 
L 124.522471 178.292324 
L 124.577833 178.182626 
L 124.688888 178.012906 
L 124.688929 178.012906 
L 124.753373 177.903209 
L 124.861982 177.71693 
L 124.864428 177.71693 
L 124.914565 177.607233 
L 125.023298 177.408536 
L 125.025662 177.408536 
L 125.100514 177.298839 
L 125.210947 177.133258 
L 125.21159 177.133258 
L 125.279206 177.022526 
L 125.390261 176.843492 
L 125.444669 176.733795 
L 125.557819 176.528888 
L 125.61938 176.419191 
L 125.732426 176.222564 
L 125.816982 176.112867 
L 125.927996 175.949356 
L 125.928037 175.949356 
L 126.006954 175.839658 
L 126.112203 175.661659 
L 126.11805 175.661659 
L 126.19085 175.550927 
L 126.30572 175.361544 
L 126.373958 175.251847 
L 126.483935 175.080057 
L 126.484806 175.080057 
L 126.566294 174.970359 
L 126.566294 174.969325 
L 126.68415 174.802709 
L 126.758754 174.693012 
L 126.86927 174.529501 
L 126.869767 174.529501 
L 126.960005 174.419803 
L 127.067784 174.270781 
L 127.071081 174.270781 
L 127.149437 174.161083 
L 127.259995 173.985154 
L 127.260202 173.985154 
L 127.320333 173.875457 
L 127.430725 173.728504 
L 127.43143 173.728504 
L 127.484656 173.618806 
L 127.597847 173.407691 
L 127.663037 173.297994 
L 127.773719 173.105506 
L 127.774133 173.105506 
L 127.844797 172.995809 
L 127.953821 172.821949 
L 127.955687 172.821949 
L 128.014615 172.712252 
L 128.128739 172.55495 
L 128.197205 172.445253 
L 128.305109 172.321067 
L 128.308302 172.321067 
L 128.370133 172.21344 
L 128.370133 172.210335 
L 128.480981 172.047859 
L 128.548576 171.938161 
L 128.663073 171.768441 
L 128.735769 171.658744 
L 128.8467 171.546977 
L 128.846866 171.546977 
L 128.91359 171.43728 
L 129.028295 171.257211 
L 129.10323 171.147513 
L 129.213083 170.981933 
L 129.214327 170.981933 
L 129.307301 170.872235 
L 129.417734 170.727352 
L 129.418356 170.727352 
L 129.498517 170.61662 
L 129.60754 170.447935 
L 129.609572 170.447935 
L 129.691267 170.338237 
L 129.801783 170.197494 
L 129.802115 170.197494 
L 129.906597 170.086761 
L 130.01701 169.916006 
L 130.017673 169.916006 
L 130.094226 169.806309 
L 130.204203 169.651077 
L 130.205281 169.651077 
L 130.285711 169.54138 
L 130.398446 169.377869 
L 130.477694 169.268172 
L 130.586842 169.123288 
L 130.588749 169.123288 
L 130.679692 169.013591 
L 130.679692 169.012556 
L 130.794065 168.85008 
L 130.879471 168.739348 
L 130.990257 168.552035 
L 130.990568 168.552035 
L 131.059718 168.442337 
L 131.168824 168.266408 
L 131.170794 168.266408 
L 131.246745 168.156711 
L 131.356266 168.020106 
L 131.357842 168.020106 
L 131.456373 167.909374 
L 131.56494 167.742759 
L 131.567429 167.742759 
L 131.641244 167.633061 
L 131.755327 167.481969 
L 131.825369 167.372272 
L 131.935553 167.246016 
L 131.936465 167.246016 
L 132.027284 167.136319 
L 132.137966 166.96039 
L 132.13838 166.96039 
L 132.218624 166.850692 
L 132.329679 166.720297 
L 132.32972 166.720297 
L 132.453756 166.6106 
L 132.564396 166.484345 
L 132.564852 166.484345 
L 132.646049 166.374648 
L 132.7564 166.227695 
L 132.757146 166.227695 
L 132.828847 166.117997 
L 132.938886 165.962765 
L 132.939923 165.962765 
L 133.034287 165.853068 
L 133.145342 165.704045 
L 133.241302 165.594348 
L 133.351487 165.455674 
L 133.352378 165.455674 
L 133.447281 165.345977 
L 133.545854 165.199024 
L 133.558378 165.199024 
L 133.63464 165.091397 
L 133.63464 165.088292 
L 133.751999 164.927886 
L 133.832823 164.818188 
L 133.94338 164.694003 
L 133.943919 164.694003 
L 134.035588 164.584305 
L 134.150686 164.451841 
L 134.248015 164.342144 
L 134.357826 164.19933 
L 134.359112 164.19933 
L 134.468633 164.089633 
L 134.586074 163.932331 
L 134.691821 163.822634 
L 134.801549 163.696379 
L 134.802876 163.696379 
L 134.887101 163.586681 
L 134.997659 163.454217 
L 134.998156 163.454217 
L 135.102452 163.344519 
L 135.213424 163.176869 
L 135.213507 163.176869 
L 135.28753 163.066137 
L 135.396678 162.930567 
L 135.398606 162.930567 
L 135.486376 162.82087 
L 135.486376 162.819835 
L 135.600583 162.661499 
L 135.689825 162.550767 
L 135.796817 162.429686 
L 135.800922 162.429686 
L 135.878885 162.319988 
L 135.987949 162.189594 
L 135.989816 162.189594 
L 136.056374 162.079896 
L 136.166268 161.939153 
L 136.167346 161.939153 
L 136.254598 161.829455 
L 136.365322 161.715619 
L 136.365653 161.715619 
L 136.453693 161.604886 
L 136.567402 161.475526 
L 136.65934 161.365829 
L 136.769939 161.247853 
L 136.770271 161.247853 
L 136.866397 161.138156 
L 136.979816 161.020179 
L 137.112933 160.910482 
L 137.218349 160.782157 
L 137.223823 160.782157 
L 137.340103 160.67246 
L 137.449831 160.552414 
L 137.4512 160.552414 
L 137.548528 160.442716 
L 137.659584 160.281275 
L 137.757161 160.170543 
L 137.867885 160.045323 
L 137.868092 160.045323 
L 137.952731 159.935625 
L 138.063351 159.815579 
L 138.063828 159.815579 
L 138.162691 159.705882 
L 138.273332 159.577557 
L 138.273622 159.577557 
L 138.368214 159.46786 
L 138.477403 159.331255 
L 138.479311 159.331255 
L 138.579128 159.221558 
L 138.686534 159.078745 
L 138.690183 159.078745 
L 138.790456 158.969047 
L 138.897198 158.855211 
L 138.901387 158.855211 
L 138.996352 158.745513 
L 139.106039 158.588212 
L 139.107407 158.588212 
L 139.199138 158.478514 
L 139.312909 158.34398 
L 139.42581 158.234283 
L 139.536824 158.110097 
L 139.536906 158.110097 
L 139.655551 158.0004 
L 139.76615 157.857587 
L 139.766647 157.857587 
L 139.864681 157.747889 
L 139.975529 157.623704 
L 139.975778 157.623704 
L 140.062117 157.514006 
L 140.170062 157.406379 
L 140.173173 157.406379 
L 140.266603 157.296682 
L 140.373346 157.166287 
L 140.377658 157.166287 
L 140.492239 157.05659 
L 140.600391 156.924125 
L 140.603315 156.924125 
L 140.714515 156.814428 
L 140.823165 156.652986 
L 140.825612 156.652986 
L 140.925304 156.542254 
L 141.036401 156.402546 
L 141.150691 156.292848 
L 141.261124 156.197639 
L 141.261705 156.197639 
L 141.362683 156.087942 
L 141.471042 155.953408 
L 141.473779 155.953408 
L 141.586867 155.84371 
L 141.692738 155.723664 
L 141.697963 155.723664 
L 141.79044 155.612932 
L 141.900749 155.477363 
L 141.901496 155.477363 
L 142.009606 155.367666 
L 142.121408 155.282806 
L 142.209531 155.173108 
L 142.32042 155.053062 
L 142.320586 155.053062 
L 142.419366 154.943365 
L 142.528472 154.81297 
L 142.530421 154.81297 
L 142.620037 154.703273 
L 142.729848 154.560459 
L 142.731009 154.560459 
L 142.814653 154.450762 
L 142.925107 154.29967 
L 142.92575 154.29967 
L 143.049578 154.189972 
L 143.160384 154.04095 
L 143.160592 154.04095 
L 143.29375 153.930218 
L 143.409118 153.825695 
L 143.526725 153.715997 
L 143.634131 153.593882 
L 143.637656 153.593882 
L 143.74697 153.484184 
L 143.853878 153.370348 
L 143.858066 153.370348 
L 143.946645 153.26065 
L 144.057244 153.17993 
L 144.057742 153.17993 
L 144.150012 153.070232 
L 144.258454 152.960535 
L 144.261108 152.960535 
L 144.396154 152.850838 
L 144.508183 152.751489 
L 144.618534 152.641792 
L 144.73187 152.527955 
L 144.849975 152.417223 
L 144.959952 152.3127 
L 144.961071 152.3127 
L 145.064455 152.203003 
L 145.168046 152.103655 
L 145.175469 152.103655 
L 145.294071 151.993957 
L 145.404297 151.88219 
L 145.405126 151.88219 
L 145.522195 151.774563 
L 145.522195 151.772493 
L 145.631716 151.675214 
L 145.63325 151.675214 
L 145.758571 151.564482 
L 145.861954 151.45582 
L 145.869419 151.45582 
L 145.983584 151.345088 
L 146.094515 151.234356 
L 146.094681 151.234356 
L 146.204865 151.124658 
L 146.318035 151.02117 
L 146.419179 150.911473 
L 146.419179 150.910438 
L 146.534464 150.803846 
L 146.616698 150.694148 
L 146.724789 150.584451 
L 146.727712 150.584451 
L 146.831635 150.474754 
L 146.942441 150.396103 
L 146.942648 150.396103 
L 147.054575 150.288475 
L 147.166832 150.172569 
L 147.29742 150.062872 
L 147.407729 149.951105 
L 147.408434 149.951105 
L 147.542587 149.841407 
L 147.648708 149.717222 
L 147.653684 149.717222 
L 147.767766 149.607525 
L 147.882305 149.520595 
L 148.004101 149.410897 
L 148.117022 149.319828 
L 148.215388 149.210131 
L 148.328434 149.112852 
L 148.444175 149.003155 
L 148.554525 148.905876 
L 148.55523 148.905876 
L 148.688306 148.797214 
L 148.688306 148.796179 
L 148.795795 148.713388 
L 148.799402 148.713388 
L 148.903781 148.603691 
L 149.019025 148.502273 
L 149.170471 148.392576 
L 149.281361 148.287018 
L 149.281485 148.287018 
L 149.401083 148.176286 
L 149.509443 148.084181 
L 149.512097 148.084181 
L 149.622613 147.974484 
L 149.733502 147.877205 
L 149.733647 147.877205 
L 149.858284 147.767508 
L 149.96909 147.649532 
L 149.969173 147.649532 
L 150.110335 147.539835 
L 150.222427 147.436347 
L 150.340325 147.326649 
L 150.45082 147.23558 
L 150.451422 147.23558 
L 150.554141 147.125883 
L 150.657193 147.022395 
L 150.665197 147.022395 
L 150.798314 146.912697 
L 150.912189 146.774024 
L 151.046052 146.664326 
L 151.155615 146.577396 
L 151.157149 146.577396 
L 151.290847 146.467699 
L 151.404245 146.349723 
L 151.546485 146.238991 
L 151.659593 146.138607 
L 151.777988 146.02891 
L 151.891241 145.919213 
L 152.019589 145.808481 
L 152.128281 145.718446 
L 152.130686 145.718446 
L 152.237926 145.608749 
L 152.353149 145.507331 
L 152.467999 145.397633 
L 152.574244 145.308634 
L 152.579096 145.308634 
L 152.690814 145.198937 
L 152.801289 145.112007 
L 152.801911 145.112007 
L 152.898908 145.002309 
L 153.0093 144.925728 
L 153.009963 144.925728 
L 153.196078 144.814996 
L 153.306864 144.722892 
L 153.307009 144.722892 
L 153.453313 144.613195 
L 153.453313 144.61216 
L 153.566608 144.501428 
L 153.681395 144.39173 
L 153.796639 144.290312 
L 153.914122 144.180615 
L 154.025053 144.062638 
L 154.025177 144.062638 
L 154.159414 143.952941 
L 154.159414 143.951906 
L 154.273745 143.872221 
L 154.367425 143.761488 
L 154.47848 143.675593 
L 154.478522 143.675593 
L 154.589452 143.565896 
L 154.700425 143.472757 
L 154.700508 143.472757 
L 154.808743 143.36306 
L 154.808743 143.362025 
L 154.921747 143.267851 
L 155.059675 143.158153 
L 155.171476 143.087782 
L 155.287342 142.978084 
L 155.400885 142.853899 
L 155.550341 142.744202 
L 155.656337 142.659341 
L 155.661438 142.659341 
L 155.819852 142.548609 
L 155.930948 142.435807 
L 156.066014 142.32611 
L 156.175742 142.224692 
L 156.17707 142.224692 
L 156.305418 142.114995 
L 156.415104 142.017716 
L 156.416514 142.017716 
L 156.542498 141.908019 
L 156.652641 141.81074 
L 156.653574 141.81074 
L 156.797494 141.701043 
L 156.906849 141.574787 
L 156.908549 141.574787 
L 157.043159 141.46509 
L 157.156039 141.374021 
L 157.310596 141.264323 
L 157.310596 141.263289 
L 157.420863 141.167045 
L 157.42163 141.167045 
L 157.5726 141.057347 
L 157.688258 140.94558 
L 157.81474 140.835883 
L 157.927537 140.751023 
L 158.041827 140.641326 
L 158.147699 140.566814 
L 158.152924 140.566814 
L 158.293796 140.457117 
L 158.400828 140.359838 
L 158.404892 140.359838 
L 158.535936 140.250141 
L 158.646203 140.161142 
L 158.64695 140.161142 
L 158.812247 140.051444 
L 158.918575 139.974863 
L 158.923323 139.974863 
L 159.075536 139.865166 
L 159.186218 139.772027 
L 159.186426 139.772027 
L 159.303121 139.662329 
L 159.414093 139.579539 
L 159.414176 139.579539 
L 159.553721 139.469842 
L 159.659344 139.39947 
L 159.664776 139.39947 
L 159.787795 139.289773 
L 159.901422 139.206982 
L 160.044595 139.097285 
L 160.151939 139.008285 
L 160.155609 139.008285 
L 160.303406 138.898588 
L 160.416742 138.844774 
L 160.552762 138.735077 
L 160.660541 138.654356 
L 160.663817 138.654356 
L 160.794156 138.544659 
L 160.90293 138.457729 
L 160.905252 138.457729 
L 161.049525 138.348032 
L 161.164602 138.250753 
L 161.304852 138.141056 
L 161.417151 138.074824 
L 161.573595 137.965127 
L 161.685583 137.876127 
L 161.845116 137.76643 
L 161.845116 137.765395 
L 161.958991 137.698128 
L 162.139135 137.58843 
L 162.244799 137.489082 
L 162.250149 137.489082 
L 162.408355 137.379385 
L 162.516652 137.292455 
L 162.51941 137.292455 
L 162.67604 137.182757 
L 162.67604 137.181722 
L 162.789293 137.07306 
L 162.934457 136.962328 
L 163.047192 136.878503 
L 163.209586 136.768805 
L 163.316412 136.694294 
L 163.320683 136.694294 
L 163.47582 136.584597 
L 163.584843 136.503876 
L 163.586834 136.503876 
L 163.725591 136.394179 
L 163.838388 136.307249 
L 163.945649 136.197552 
L 164.057512 136.118901 
L 164.199711 136.009204 
L 164.308112 135.916064 
L 164.310808 135.916064 
L 164.437 135.806367 
L 164.437 135.805332 
L 164.552202 135.704949 
L 164.69776 135.595252 
L 164.807239 135.500043 
L 164.808773 135.500043 
L 164.953253 135.390345 
L 165.062297 135.303416 
L 165.064308 135.303416 
L 165.217911 135.193718 
L 165.328427 135.106788 
L 165.328987 135.106788 
L 165.478339 134.997091 
L 165.583547 134.928789 
L 165.589436 134.928789 
L 165.739058 134.819092 
L 165.846298 134.730092 
L 165.850113 134.730092 
L 166.005914 134.620395 
L 166.114813 134.531395 
L 166.116886 134.531395 
L 166.255602 134.421698 
L 166.365454 134.332698 
L 166.366657 134.332698 
L 166.523536 134.221966 
L 166.631481 134.125722 
L 166.634612 134.125722 
L 166.801049 134.016025 
L 166.911441 133.931165 
L 166.912146 133.931165 
L 167.056128 133.821468 
L 167.166354 133.71798 
L 167.167225 133.71798 
L 167.343221 133.610352 
L 167.343221 133.607248 
L 167.456433 133.502725 
L 167.639915 133.393027 
L 167.751696 133.322656 
L 167.914277 133.212958 
L 168.026265 133.11568 
L 168.223328 133.005982 
L 168.223328 133.004947 
L 168.338178 132.912843 
L 168.509716 132.803146 
L 168.509716 132.802111 
L 168.623011 132.747262 
L 168.820737 132.637565 
L 168.933244 132.560984 
L 169.063707 132.451287 
L 169.174637 132.349869 
L 169.17472 132.349869 
L 169.327079 132.240171 
L 169.436476 132.159451 
L 169.438176 132.159451 
L 169.596631 132.049753 
L 169.705654 131.973172 
L 169.707105 131.973172 
L 169.845945 131.863475 
L 169.956835 131.778615 
L 169.957042 131.778615 
L 170.137849 131.669953 
L 170.137849 131.668918 
L 170.240361 131.581988 
L 170.248945 131.581988 
L 170.408396 131.47229 
L 170.408396 131.471256 
L 170.523349 131.377082 
L 170.691673 131.267384 
L 170.787261 131.203222 
L 170.802729 131.203222 
L 170.985899 131.093524 
L 171.096125 131.019013 
L 171.096996 131.019013 
L 171.214811 130.909316 
L 171.328147 130.797549 
L 171.484217 130.686817 
L 171.60056 130.602991 
L 171.783233 130.492259 
L 171.892028 130.424992 
L 171.89433 130.424992 
L 172.05606 130.315295 
L 172.166577 130.240783 
L 172.167116 130.240783 
L 172.331625 130.133156 
L 172.44351 130.050366 
L 172.616354 129.940668 
L 172.727161 129.870296 
L 172.727451 129.870296 
L 172.880639 129.760599 
L 172.99269 129.66539 
L 173.173497 129.555693 
L 173.283515 129.477042 
L 173.284552 129.477042 
L 173.461979 129.367345 
L 173.574341 129.303182 
L 173.727819 129.193485 
L 173.840409 129.110695 
L 173.988496 129.000997 
L 173.988496 128.999963 
L 174.101791 128.947184 
L 174.197212 128.837486 
L 174.309905 128.758836 
L 174.460004 128.649138 
L 174.568364 128.566348 
L 174.571059 128.566348 
L 174.727731 128.456651 
L 174.841025 128.402837 
L 175.007214 128.29314 
L 175.119037 128.218628 
L 175.323191 128.108931 
L 175.430597 128.022001 
L 175.434246 128.022001 
L 175.59266 127.912304 
L 175.702388 127.835723 
L 175.703507 127.835723 
L 175.89576 127.726025 
L 176.008018 127.666002 
L 176.202883 127.556305 
L 176.315514 127.475585 
L 176.461694 127.365887 
L 176.574491 127.281027 
L 176.697323 127.17133 
L 176.810203 127.08233 
L 176.949541 126.972633 
L 177.056117 126.904331 
L 177.060637 126.904331 
L 177.259815 126.794634 
L 177.36494 126.707704 
L 177.37087 126.707704 
L 177.553543 126.598006 
L 177.666361 126.513146 
L 177.83736 126.403449 
L 177.947379 126.335147 
L 177.948436 126.335147 
L 178.102392 126.22545 
L 178.212783 126.161287 
L 178.213406 126.161287 
L 178.397696 126.050555 
L 178.50647 125.979148 
L 178.50871 125.979148 
L 178.707182 125.868416 
L 178.81944 125.778382 
L 178.961535 125.66765 
L 179.076261 125.610731 
L 179.238738 125.501034 
L 179.349669 125.416174 
L 179.349835 125.416174 
L 179.529563 125.305442 
L 179.641946 125.240244 
L 179.857587 125.129512 
L 179.96097 125.076733 
L 179.968601 125.076733 
L 180.211944 124.967036 
L 180.211944 124.966001 
L 180.324264 124.902873 
L 180.474777 124.793176 
L 180.58324 124.716595 
L 180.585874 124.716595 
L 180.768174 124.606898 
L 180.880929 124.524107 
L 181.077868 124.41441 
L 181.180214 124.346108 
L 181.188923 124.346108 
L 181.356459 124.236411 
L 181.467224 124.15776 
L 181.467556 124.15776 
L 181.654252 124.047028 
L 181.756267 123.973551 
L 181.765328 123.973551 
L 181.974354 123.863854 
L 182.081636 123.785203 
L 182.08541 123.785203 
L 182.251329 123.675506 
L 182.361389 123.600995 
L 182.362301 123.600995 
L 182.530128 123.491297 
L 182.642593 123.422995 
L 182.809384 123.315368 
L 182.809384 123.313298 
L 182.913555 123.238787 
L 182.920439 123.238787 
L 183.087913 123.129089 
L 183.201395 123.044229 
L 183.434909 122.934532 
L 183.547126 122.86623 
L 183.717606 122.755498 
L 183.831813 122.677882 
L 184.014735 122.568184 
L 184.126578 122.485394 
L 184.323351 122.375697 
L 184.43395 122.317744 
L 184.434406 122.317744 
L 184.621558 122.208046 
L 184.727056 122.139744 
L 184.732655 122.139744 
L 184.900565 122.029012 
L 185.007348 121.949326 
L 185.01162 121.949326 
L 185.161532 121.839629 
L 185.274039 121.760978 
L 185.441243 121.651281 
L 185.551096 121.589188 
L 185.552319 121.589188 
L 185.718011 121.479491 
L 185.830559 121.40084 
L 186.02841 121.291143 
L 186.137557 121.235259 
L 186.139465 121.235259 
L 186.33773 121.125562 
L 186.446463 121.05726 
L 186.448744 121.05726 
L 186.658538 120.946528 
L 186.774466 120.868912 
L 186.960042 120.759214 
L 187.071657 120.703331 
L 187.249603 120.593634 
L 187.361881 120.533611 
L 187.572608 120.423913 
L 187.682627 120.378379 
L 187.683705 120.378379 
L 187.891508 120.268681 
L 187.891508 120.267647 
L 188.004969 120.210728 
L 188.189757 120.099996 
L 188.295919 120.030659 
L 188.300854 120.030659 
L 188.470547 119.920962 
L 188.579404 119.871288 
L 188.581602 119.871288 
L 188.76187 119.76159 
L 188.874418 119.689149 
L 189.067043 119.579451 
L 189.181354 119.500801 
L 189.352892 119.391103 
L 189.457769 119.326941 
L 189.463823 119.326941 
L 189.637456 119.217244 
L 189.750004 119.142732 
L 189.95196 119.033035 
L 190.062767 118.98543 
L 190.063057 118.98543 
L 190.277993 118.875733 
L 190.390293 118.811571 
L 190.58072 118.701873 
L 190.68033 118.629432 
L 190.691817 118.629432 
L 190.901445 118.5187 
L 191.015528 118.445223 
L 191.203509 118.335526 
L 191.313652 118.281712 
L 191.314564 118.281712 
L 191.481354 118.17098 
L 191.59073 118.103713 
L 191.59243 118.103713 
L 191.768862 117.994016 
L 191.875314 117.923644 
L 191.879938 117.923644 
L 192.049445 117.813947 
L 192.161889 117.743575 
L 192.363078 117.633877 
L 192.474631 117.577994 
L 192.665183 117.468297 
L 192.776197 117.389646 
L 192.958041 117.279949 
L 192.958041 117.278914 
L 193.070589 117.207507 
L 193.29892 117.096775 
L 193.413707 117.037787 
L 193.618276 116.928089 
L 193.727465 116.870136 
L 193.729373 116.870136 
L 193.932698 116.760439 
L 194.038486 116.700416 
L 194.043732 116.700416 
L 194.254252 116.589684 
L 194.361658 116.514137 
L 194.365141 116.514137 
L 194.612133 116.403405 
L 194.721032 116.340278 
L 194.72294 116.340278 
L 194.933584 116.23058 
L 195.045365 116.153999 
L 195.260094 116.044302 
L 195.367292 115.992558 
L 195.37117 115.992558 
L 195.573769 115.882861 
L 195.573769 115.881826 
L 195.69092 115.810419 
L 195.913113 115.700722 
L 195.913113 115.699687 
L 196.026906 115.63449 
L 196.243086 115.524792 
L 196.356795 115.46063 
L 196.557051 115.350933 
L 196.665349 115.276421 
L 196.668107 115.276421 
L 196.855963 115.165689 
L 196.971953 115.108771 
L 197.18042 114.998038 
L 197.287163 114.94112 
L 197.291517 114.94112 
L 197.507034 114.831423 
L 197.617177 114.7714 
L 197.618089 114.7714 
L 197.805987 114.663772 
L 197.805987 114.660668 
L 197.918867 114.618238 
L 198.144295 114.50854 
L 198.24602 114.448517 
L 198.255371 114.448517 
L 198.472277 114.33882 
L 198.583291 114.25603 
L 198.583353 114.25603 
L 198.790555 114.146332 
L 198.903352 114.061472 
L 199.119076 113.951775 
L 199.225404 113.893822 
L 199.230132 113.893822 
L 199.424416 113.78309 
L 199.533647 113.701334 
L 199.535492 113.701334 
L 199.770728 113.591637 
L 199.872328 113.508846 
L 199.881824 113.508846 
L 200.110529 113.399149 
L 200.220443 113.357754 
L 200.221604 113.357754 
L 200.450951 113.248057 
L 200.560908 113.192173 
L 200.562048 113.192173 
L 200.775118 113.082476 
L 200.879912 113.022453 
L 200.886215 113.022453 
L 201.149256 112.912756 
L 201.257947 112.852733 
L 201.26029 112.852733 
L 201.516261 112.743035 
L 201.618752 112.697501 
L 201.627357 112.697501 
L 201.83346 112.587803 
L 201.943313 112.519501 
L 201.944474 112.519501 
L 202.146555 112.409804 
L 202.146555 112.408769 
L 202.264162 112.331153 
L 202.484116 112.221456 
L 202.595752 112.167642 
L 202.798206 112.057945 
L 202.905612 111.973085 
L 202.909282 111.973085 
L 203.092702 111.863388 
L 203.204441 111.797155 
L 203.394744 111.687458 
L 203.50298 111.627435 
L 203.50582 111.627435 
L 203.698944 111.516703 
L 203.811098 111.463924 
L 204.007207 111.354227 
L 204.117661 111.285925 
L 204.118262 111.285925 
L 204.317647 111.176227 
L 204.425821 111.103786 
L 204.428744 111.103786 
L 204.639451 110.994088 
L 204.751791 110.925786 
L 204.998783 110.815054 
L 205.104572 110.751927 
L 205.10988 110.751927 
L 205.312666 110.642229 
L 205.423348 110.600834 
L 205.423742 110.600834 
L 205.616699 110.491137 
L 205.729289 110.443532 
L 205.925585 110.333835 
L 206.036681 110.285196 
L 206.148815 110.228277 
L 206.360558 110.11858 
L 206.472546 110.075115 
L 206.683356 109.965418 
L 206.79578 109.899186 
L 206.979821 109.789488 
L 207.089467 109.729465 
L 207.090835 109.729465 
L 207.287359 109.618733 
L 207.395428 109.563885 
L 207.39829 109.563885 
L 207.603025 109.454187 
L 207.708979 109.396234 
L 207.713997 109.396234 
L 207.885639 109.286537 
L 207.996114 109.243072 
L 207.996736 109.243072 
L 208.212128 109.13234 
L 208.323121 109.08577 
L 208.323142 109.08577 
L 208.572871 108.976073 
L 208.682599 108.91398 
L 208.683968 108.91398 
L 208.878024 108.804283 
L 208.989929 108.764957 
L 209.217389 108.65526 
L 209.328984 108.601446 
L 209.571166 108.491749 
L 209.684958 108.450354 
L 209.878454 108.340657 
L 209.878454 108.339622 
L 209.991376 108.295122 
L 210.222651 108.185425 
L 210.222651 108.18439 
L 210.335863 108.132646 
L 210.548373 108.023983 
L 210.659822 107.955681 
L 210.865179 107.845984 
L 210.977354 107.79217 
L 211.188102 107.681438 
L 211.286923 107.641078 
L 211.299178 107.641078 
L 211.552784 107.531381 
L 211.656997 107.485846 
L 211.663798 107.485846 
L 211.841391 107.376149 
L 211.952881 107.336823 
L 212.183099 107.227126 
L 212.296228 107.196079 
L 212.509485 107.086382 
L 212.618383 107.042917 
L 212.62054 107.042917 
L 212.848788 106.93322 
L 212.951176 106.864918 
L 212.959885 106.864918 
L 213.18523 106.754186 
L 213.294336 106.699337 
L 213.296285 106.699337 
L 213.574897 106.58964 
L 213.686637 106.519268 
L 213.902029 106.409571 
L 214.011799 106.345408 
L 214.013085 106.345408 
L 214.271937 106.235711 
L 214.3691 106.190176 
L 214.383034 106.190176 
L 214.610826 106.079444 
L 214.720595 106.020456 
L 214.721632 106.020456 
L 214.934121 105.910759 
L 215.043145 105.871433 
L 215.045156 105.871433 
L 215.271476 105.761736 
L 215.379752 105.701713 
L 215.382531 105.701713 
L 215.712317 105.592016 
L 215.827498 105.534062 
L 216.083634 105.424365 
L 216.195208 105.374691 
L 216.435275 105.264994 
L 216.54351 105.221529 
L 216.546247 105.221529 
L 216.840846 105.111832 
L 216.952565 105.078715 
L 217.213076 104.969018 
L 217.321602 104.919344 
L 217.324173 104.919344 
L 217.600567 104.808612 
L 217.713073 104.774461 
L 218.03272 104.664763 
L 218.143568 104.617159 
L 218.143692 104.617159 
L 218.335364 104.507462 
L 218.446316 104.466066 
L 218.446399 104.466066 
L 218.756031 104.356369 
L 218.756031 104.355334 
L 218.871523 104.317044 
L 219.102923 104.207347 
L 219.2146 104.143184 
L 219.519193 104.033487 
L 219.519193 104.032452 
L 219.632239 103.985882 
L 219.795131 103.87515 
L 219.908509 103.820301 
L 220.181295 103.710604 
L 220.29461 103.65679 
L 220.560927 103.547093 
L 220.672252 103.520186 
L 220.947568 103.410489 
L 221.056757 103.348396 
L 221.058664 103.348396 
L 221.327138 103.237664 
L 221.435166 103.176606 
L 221.438234 103.176606 
L 221.645955 103.066909 
L 221.75589 103.019304 
L 221.757052 103.019304 
L 221.979991 102.909607 
L 222.090549 102.862003 
L 222.091088 102.862003 
L 222.422139 102.752305 
L 222.532696 102.704701 
L 222.533236 102.704701 
L 222.812284 102.595004 
L 222.812284 102.593969 
L 222.925164 102.549469 
L 223.207488 102.439772 
L 223.318916 102.404586 
L 223.572709 102.294889 
L 223.680696 102.253493 
L 223.683806 102.253493 
L 223.989021 102.143796 
L 224.100408 102.11275 
L 224.392104 102.002018 
L 224.501999 101.945099 
L 224.50316 101.945099 
L 224.814222 101.835402 
L 224.92225 101.791937 
L 224.925277 101.791937 
L 225.202874 101.68224 
L 225.202874 101.681205 
L 225.315671 101.638775 
L 225.638262 101.528043 
L 225.748322 101.475264 
L 225.749296 101.475264 
L 226.033964 101.365567 
L 226.132039 101.322102 
L 226.14504 101.322102 
L 226.390891 101.212404 
L 226.390891 101.211369 
L 226.503564 101.173079 
L 226.743299 101.063382 
L 226.848673 101.005428 
L 226.854354 101.005428 
L 227.15281 100.895731 
L 227.264694 100.848127 
L 227.54142 100.737394 
L 227.649365 100.694964 
L 227.652517 100.694964 
L 227.904216 100.585267 
L 228.015644 100.548011 
L 228.245033 100.438314 
L 228.356793 100.370012 
L 228.648199 100.260315 
L 228.760125 100.21685 
L 229.075168 100.107153 
L 229.186887 100.076106 
L 229.409164 99.966409 
L 229.520924 99.929153 
L 229.837087 99.819456 
L 229.94159 99.757363 
L 229.948184 99.757363 
L 230.174234 99.646631 
L 230.28645 99.591783 
L 230.527968 99.482085 
L 230.635789 99.44276 
L 230.639065 99.44276 
L 230.882201 99.333063 
L 230.882201 99.332028 
L 230.995163 99.287528 
L 231.191646 99.177831 
L 231.295029 99.142645 
L 231.302742 99.142645 
L 231.478324 99.032947 
L 231.580256 98.987413 
L 231.589421 98.987413 
L 231.902349 98.877715 
L 232.011704 98.815623 
L 232.013446 98.815623 
L 232.360587 98.705925 
L 232.471622 98.647972 
L 232.732734 98.538275 
L 232.843375 98.476182 
L 232.843789 98.476182 
L 233.132935 98.366485 
L 233.24538 98.312671 
L 233.55159 98.202974 
L 233.66335 98.167788 
L 233.954632 98.057056 
L 234.061333 98.010486 
L 234.065729 98.010486 
L 234.326406 97.899754 
L 234.438249 97.861463 
L 234.696521 97.751766 
L 234.696521 97.750731 
L 234.809649 97.702092 
L 235.109494 97.592395 
L 235.109494 97.59136 
L 235.221566 97.538581 
L 235.499971 97.428884 
L 235.61169 97.364721 
L 235.937992 97.255024 
L 236.049835 97.213629 
L 236.357 97.102897 
L 236.470004 97.056327 
L 236.719111 96.94663 
L 236.831079 96.903165 
L 237.125387 96.793467 
L 237.234141 96.729305 
L 237.236484 96.729305 
L 237.541119 96.618573 
L 237.65008 96.580282 
L 237.652216 96.580282 
L 237.969063 96.46955 
L 238.082523 96.433329 
L 238.362007 96.325702 
L 238.472751 96.278097 
L 238.473062 96.278097 
L 238.805087 96.1684 
L 238.917076 96.120796 
L 239.251444 96.010063 
L 239.365444 95.977982 
L 239.677418 95.868285 
L 239.789303 95.82689 
L 240.026446 95.717192 
L 240.138103 95.659239 
L 240.444728 95.549542 
L 240.546536 95.508147 
L 240.555804 95.508147 
L 240.964755 95.398449 
L 241.071456 95.359124 
L 241.07581 95.359124 
L 241.385421 95.249427 
L 241.495274 95.205962 
L 241.496394 95.205962 
L 241.904495 95.096265 
L 242.011486 95.044521 
L 242.01555 95.044521 
L 242.353941 94.934823 
L 242.460144 94.899637 
L 242.465038 94.899637 
L 242.770211 94.78994 
L 242.881681 94.750615 
L 243.227246 94.640917 
L 243.308651 94.61815 
L 243.338322 94.61815 
L 243.68876 94.507418 
L 243.801992 94.454639 
L 244.18602 94.344942 
L 244.297739 94.282849 
L 244.617033 94.172117 
L 244.72898 94.129687 
L 245.034195 94.01999 
L 245.034195 94.018955 
L 245.147656 93.955827 
L 245.424091 93.84613 
L 245.52988 93.798525 
L 245.535105 93.798525 
L 245.792962 93.688828 
L 245.899124 93.661921 
L 245.904059 93.661921 
L 246.278197 93.551189 
L 246.381746 93.512898 
L 246.389293 93.512898 
L 246.67 93.403201 
L 246.67 93.402166 
L 246.782797 93.361806 
L 247.080714 93.251074 
L 247.192598 93.212783 
L 247.519253 93.103086 
L 247.519253 93.102051 
L 247.633004 93.07204 
L 248.007308 92.962342 
L 248.007308 92.961307 
L 248.119897 92.925087 
L 248.384866 92.815389 
L 248.496481 92.761576 
L 248.851875 92.651878 
L 248.963593 92.620832 
L 249.262588 92.511135 
L 249.368833 92.46974 
L 249.373685 92.46974 
L 249.699262 92.359007 
L 249.794268 92.328996 
L 249.810317 92.328996 
L 250.133364 92.219299 
L 250.243735 92.179973 
L 250.244461 92.179973 
L 250.545322 92.070276 
L 250.650012 92.022671 
L 250.656419 92.022671 
L 250.962608 91.911939 
L 251.07468 91.8633 
L 251.397685 91.753603 
L 251.505755 91.714277 
L 251.508741 91.714277 
L 251.879872 91.603545 
L 251.991818 91.561115 
L 252.262697 91.451418 
L 252.36608 91.403813 
L 252.373773 91.403813 
L 252.625264 91.294116 
L 252.737191 91.252721 
L 253.001641 91.141989 
L 253.110706 91.107838 
L 253.112717 91.107838 
L 253.397011 90.99814 
L 253.507196 90.962955 
L 253.508108 90.962955 
L 253.850978 90.852222 
L 253.96054 90.813932 
L 253.962054 90.813932 
L 254.284458 90.704235 
L 254.397338 90.66077 
L 254.625917 90.551072 
L 254.733116 90.505538 
L 254.736973 90.505538 
L 255.02954 90.394805 
L 255.1413 90.362724 
L 255.465633 90.253027 
L 255.577206 90.203353 
L 255.882028 90.093655 
L 255.993788 90.0564 
L 256.337259 89.945668 
L 256.449869 89.923935 
L 256.70416 89.814238 
L 256.804454 89.791471 
L 256.815174 89.791471 
L 257.077924 89.681773 
L 257.188731 89.646587 
L 257.188979 89.646587 
L 257.533881 89.53689 
L 257.533881 89.535855 
L 257.645807 89.493425 
L 257.92357 89.383728 
L 258.035081 89.329914 
L 258.395699 89.220217 
L 258.508434 89.166403 
L 258.93107 89.056706 
L 259.035573 89.013241 
L 259.042167 89.013241 
L 259.421032 88.902509 
L 259.521969 88.866288 
L 259.531921 88.866288 
L 259.886444 88.756591 
L 259.996338 88.706916 
L 259.997541 88.706916 
L 260.32573 88.597219 
L 260.435541 88.551685 
L 260.436785 88.551685 
L 260.760371 88.440952 
L 260.875221 88.398522 
L 261.268787 88.288825 
L 261.372088 88.24743 
L 261.379676 88.24743 
L 261.678381 88.137733 
L 261.779649 88.102547 
L 261.789478 88.102547 
L 262.145866 87.992849 
L 262.250121 87.959733 
L 262.256922 87.959733 
L 262.67568 87.850036 
L 262.783294 87.81692 
L 262.786735 87.81692 
L 263.161391 87.707223 
L 263.270892 87.663758 
L 263.272426 87.663758 
L 263.83189 87.55406 
L 263.933615 87.504386 
L 263.942987 87.504386 
L 264.277687 87.394689 
L 264.374809 87.367782 
L 264.388784 87.367782 
L 264.653857 87.258085 
L 264.764041 87.229108 
L 264.764912 87.229108 
L 265.157918 87.119411 
L 265.247078 87.090434 
L 265.269015 87.090434 
L 265.584805 86.980737 
L 265.693082 86.939342 
L 265.695902 86.939342 
L 266.011028 86.829644 
L 266.116568 86.78411 
L 266.122125 86.78411 
L 266.587205 86.674412 
L 266.689282 86.641296 
L 266.698219 86.641296 
L 267.11648 86.531599 
L 267.226208 86.490204 
L 267.227514 86.490204 
L 267.493686 86.380507 
L 267.593752 86.337042 
L 267.6047 86.337042 
L 267.874334 86.227344 
L 267.981388 86.194228 
L 267.985431 86.194228 
L 268.3232 86.084531 
L 268.434711 86.043136 
L 268.761947 85.933439 
L 268.857036 85.908601 
L 268.872712 85.908601 
L 269.329539 85.798904 
L 269.440512 85.780276 
L 269.440636 85.780276 
L 269.888631 85.670579 
L 269.986167 85.637463 
L 269.999707 85.637463 
L 270.342493 85.526731 
L 270.457011 85.48844 
L 270.807843 85.378743 
L 270.807843 85.377708 
L 270.919727 85.339418 
L 271.396253 85.22972 
L 271.492234 85.206953 
L 271.50735 85.206953 
L 271.874272 85.097256 
L 271.980682 85.047581 
L 271.985348 85.047581 
L 272.367302 84.937884 
L 272.470188 84.88821 
L 272.478399 84.88821 
L 272.851624 84.778513 
L 272.963301 84.747466 
L 273.295638 84.636734 
L 273.403769 84.608792 
L 273.406693 84.608792 
L 273.829557 84.49806 
L 273.936942 84.465979 
L 273.940612 84.465979 
L 274.307907 84.356282 
L 274.420808 84.312817 
L 274.818645 84.203119 
L 274.931235 84.167934 
L 275.306015 84.058236 
L 275.419455 84.012702 
L 275.786792 83.903004 
L 275.89851 83.871958 
L 276.245776 83.762261 
L 276.357619 83.722935 
L 276.708057 83.613238 
L 276.819464 83.582192 
L 277.230489 83.472494 
L 277.344177 83.439378 
L 277.835217 83.328646 
L 277.936735 83.292425 
L 277.946231 83.292425 
L 278.295736 83.182728 
L 278.404883 83.153751 
L 278.406625 83.153751 
L 278.815182 83.044054 
L 278.927233 83.021287 
L 279.258263 82.911589 
L 279.369982 82.880543 
L 279.725727 82.769811 
L 279.826954 82.729451 
L 279.836824 82.729451 
L 280.118153 82.619753 
L 280.207561 82.596986 
L 280.229208 82.596986 
L 280.61587 82.487289 
L 280.724768 82.447963 
L 280.726966 82.447963 
L 281.115867 82.338266 
L 281.227917 82.30722 
L 281.561498 82.197522 
L 281.670438 82.160267 
L 281.672595 82.160267 
L 282.029273 82.050569 
L 282.143066 82.009174 
L 282.497609 81.899477 
L 282.609017 81.866361 
L 283.084754 81.756664 
L 283.196805 81.733896 
L 283.563768 81.624199 
L 283.675114 81.607641 
L 284.052486 81.497944 
L 284.164288 81.460688 
L 284.520552 81.350991 
L 284.625926 81.319944 
L 284.631648 81.319944 
L 285.170067 81.210247 
L 285.281848 81.189549 
L 285.745104 81.079852 
L 285.856864 81.042596 
L 286.341891 80.932899 
L 286.341891 80.931864 
L 286.454771 80.889434 
L 286.844998 80.778702 
L 286.954312 80.746621 
L 286.956095 80.746621 
L 287.325173 80.636924 
L 287.437763 80.601738 
L 287.92957 80.49204 
L 288.040895 80.467203 
L 288.5603 80.357506 
L 288.662356 80.318181 
L 288.671397 80.318181 
L 289.095671 80.208483 
L 289.207929 80.181576 
L 289.734632 80.071879 
L 289.846475 80.032554 
L 290.178065 79.922857 
L 290.279334 79.88974 
L 290.289162 79.88974 
L 290.68391 79.780043 
L 290.792809 79.738648 
L 290.794924 79.738648 
L 291.217912 79.628951 
L 291.330585 79.591695 
L 291.887893 79.481998 
L 291.999736 79.442672 
L 292.45138 79.332975 
L 292.563203 79.297789 
L 292.910489 79.188092 
L 293.022166 79.157045 
L 293.442708 79.047348 
L 293.555048 79.016302 
L 293.906212 78.906605 
L 294.014281 78.873488 
L 294.017122 78.873488 
L 294.37378 78.763791 
L 294.37378 78.762756 
L 294.488112 78.726535 
L 294.900194 78.616838 
L 295.002395 78.589931 
L 295.011249 78.589931 
L 295.486572 78.480234 
L 295.596176 78.442978 
L 295.597648 78.442978 
L 296.031356 78.333281 
L 296.142743 78.302235 
L 296.564902 78.192537 
L 296.65203 78.161491 
L 296.675999 78.161491 
L 297.071493 78.051794 
L 297.183046 78.022817 
L 297.552166 77.91312 
L 297.663947 77.896562 
L 298.203361 77.78583 
L 298.312633 77.764097 
L 298.314458 77.764097 
L 298.795504 77.6544 
L 298.906476 77.621284 
L 298.906559 77.621284 
L 299.363345 77.511587 
L 299.475437 77.488819 
L 299.790481 77.378087 
L 299.894341 77.350145 
L 299.901536 77.350145 
L 300.321207 77.240448 
L 300.426083 77.213541 
L 300.432262 77.213541 
L 300.874575 77.103844 
L 300.979701 77.081076 
L 300.985631 77.081076 
L 301.448181 76.971379 
L 301.559983 76.934124 
L 302.021579 76.824426 
L 302.133215 76.797519 
L 302.5939 76.686787 
L 302.699439 76.660915 
L 302.704872 76.660915 
L 303.063292 76.551218 
L 303.167588 76.501544 
L 303.174348 76.501544 
L 303.543737 76.391847 
L 303.655228 76.346312 
L 304.109443 76.236615 
L 304.201774 76.205568 
L 304.220539 76.205568 
L 304.573652 76.095871 
L 304.685329 76.064825 
L 305.106618 75.955127 
L 305.216802 75.93029 
L 305.217631 75.93029 
L 305.626147 75.820593 
L 305.735295 75.783337 
L 305.737202 75.783337 
L 306.109474 75.672605 
L 306.212691 75.646733 
L 306.22057 75.646733 
L 306.747357 75.536001 
L 306.86003 75.49771 
L 307.305536 75.388013 
L 307.404897 75.356967 
L 307.416508 75.356967 
L 307.778869 75.247269 
L 307.889882 75.214153 
L 307.889965 75.214153 
L 308.342895 75.104456 
L 308.432158 75.083758 
L 308.45395 75.083758 
L 308.912976 74.974061 
L 309.023865 74.945085 
L 309.024031 74.945085 
L 309.484466 74.835387 
L 309.596351 74.793992 
L 309.967088 74.68326 
L 310.057823 74.667737 
L 310.078185 74.667737 
L 310.481848 74.558039 
L 310.582453 74.541481 
L 310.592945 74.541481 
L 311.146314 74.431784 
L 311.258157 74.394528 
L 311.597087 74.284831 
L 311.70893 74.245506 
L 312.267026 74.135809 
L 312.379533 74.102692 
L 312.954797 73.992995 
L 313.050923 73.961949 
L 313.065894 73.961949 
L 313.489712 73.852251 
L 313.581525 73.821205 
L 313.600726 73.821205 
L 314.013347 73.711508 
L 314.1249 73.686671 
L 314.545525 73.576973 
L 314.657865 73.547997 
L 315.135925 73.4383 
L 315.247022 73.407253 
L 315.671421 73.297556 
L 315.782268 73.274788 
L 315.782517 73.274788 
L 316.239262 73.165091 
L 316.351105 73.140254 
L 316.712719 73.030557 
L 316.79516 73.009859 
L 316.823816 73.009859 
L 317.304571 72.900162 
L 317.382326 72.885674 
L 317.415502 72.885674 
L 317.963687 72.775976 
L 318.073996 72.74907 
L 318.074784 72.74907 
L 318.476084 72.639372 
L 318.588093 72.618675 
L 318.956051 72.508977 
L 319.046745 72.48621 
L 319.067148 72.48621 
L 319.512862 72.376513 
L 319.623046 72.328908 
L 319.623917 72.328908 
L 320.136604 72.219211 
L 320.220248 72.200583 
L 320.247659 72.200583 
L 320.654599 72.090886 
L 320.766276 72.05984 
L 321.202743 71.950142 
L 321.301689 71.925305 
L 321.313798 71.925305 
L 321.836106 71.815608 
L 321.940899 71.784562 
L 321.947202 71.784562 
L 322.321257 71.674864 
L 322.427294 71.643818 
L 322.432354 71.643818 
L 322.878897 71.534121 
L 322.878897 71.533086 
L 322.991362 71.498935 
L 323.491774 71.389237 
L 323.589435 71.360261 
L 323.602871 71.360261 
L 324.116512 71.249529 
L 324.223047 71.217447 
L 324.227608 71.217447 
L 324.767831 71.10775 
L 324.879571 71.076704 
L 325.350394 70.967006 
L 325.4595 70.93803 
L 325.461408 70.93803 
L 325.809005 70.828333 
L 325.904966 70.803495 
L 325.92006 70.803495 
L 326.32812 70.693798 
L 326.440668 70.658612 
L 326.898947 70.548915 
L 327.01162 70.511659 
L 327.411344 70.400927 
L 327.516552 70.370916 
L 327.522358 70.370916 
L 327.9542 70.261218 
L 328.065546 70.234312 
L 328.499627 70.124614 
L 328.611968 70.085289 
L 329.117439 69.975592 
L 329.220284 69.938336 
L 329.228495 69.938336 
L 329.725216 69.828639 
L 329.836727 69.807941 
L 330.350783 69.698244 
L 330.462667 69.679616 
L 331.012718 69.569919 
L 331.092547 69.551291 
L 331.123691 69.551291 
L 331.552817 69.440559 
L 331.666319 69.414687 
L 332.153875 69.304989 
L 332.26576 69.261525 
L 332.792961 69.151827 
L 332.888922 69.13113 
L 332.903975 69.13113 
L 333.510404 69.020398 
L 333.622973 68.984177 
L 334.172319 68.874479 
L 334.274396 68.839294 
L 334.283291 68.839294 
L 334.749242 68.729596 
L 334.860629 68.70062 
L 335.388535 68.590922 
L 335.500378 68.572295 
L 336.04284 68.462597 
L 336.145685 68.43776 
L 336.153896 68.43776 
L 336.776021 68.328063 
L 336.887573 68.305296 
L 337.392257 68.195598 
L 337.392257 68.194563 
L 337.504971 68.156273 
L 337.991491 68.046576 
L 338.102961 68.027948 
L 338.638331 67.918251 
L 338.74524 67.887204 
L 338.749428 67.887204 
L 339.165782 67.777507 
L 339.264396 67.7506 
L 339.276878 67.7506 
L 339.795703 67.640903 
L 339.906053 67.616066 
L 339.9068 67.616066 
L 340.490109 67.506368 
L 340.593036 67.49602 
L 340.601123 67.49602 
L 341.132678 67.385287 
L 341.245849 67.363555 
L 341.812073 67.253858 
L 341.921386 67.224881 
L 341.923045 67.224881 
L 342.340705 67.115184 
L 342.451988 67.094486 
L 343.096714 66.984789 
L 343.205488 66.959952 
L 343.207769 66.959952 
L 343.699763 66.850255 
L 343.796387 66.835766 
L 343.81086 66.835766 
L 344.355478 66.726069 
L 344.462822 66.711581 
L 344.46645 66.711581 
L 344.98401 66.600848 
L 345.097595 66.581186 
L 345.568356 66.470454 
L 345.681091 66.444582 
L 346.190087 66.334884 
L 346.301433 66.318326 
L 346.796537 66.208629 
L 346.905602 66.192071 
L 346.907592 66.192071 
L 347.4948 66.082374 
L 347.599821 66.049258 
L 347.605731 66.049258 
L 348.245522 65.938525 
L 348.358318 65.898165 
L 348.847119 65.788468 
L 348.955976 65.742933 
L 348.958174 65.742933 
L 349.505571 65.633236 
L 349.617332 65.610468 
L 350.223864 65.500771 
L 350.335375 65.478004 
L 350.890403 65.368307 
L 351.000172 65.331051 
L 351.001479 65.331051 
L 351.442444 65.221354 
L 351.533573 65.192377 
L 351.55352 65.192377 
L 352.130464 65.08268 
L 352.130464 65.081645 
L 352.242017 65.068191 
L 352.81019 64.958494 
L 352.909012 64.929518 
L 352.921287 64.929518 
L 353.486682 64.81982 
L 353.597613 64.792913 
L 354.135347 64.683216 
L 354.222018 64.660449 
L 354.246071 64.660449 
L 354.870725 64.550752 
L 354.870725 64.549717 
L 354.982568 64.532124 
L 355.594202 64.422426 
L 355.704179 64.397589 
L 355.705257 64.397589 
L 356.211288 64.287892 
L 356.322488 64.267194 
L 356.975093 64.157497 
L 356.975093 64.156462 
L 357.08731 64.128521 
L 357.668007 64.017788 
L 357.77902 63.993986 
L 357.779062 63.993986 
L 358.32339 63.883254 
L 358.414416 63.851173 
L 358.434487 63.851173 
L 358.995859 63.741476 
L 359.091425 63.724917 
L 359.106956 63.724917 
L 359.613961 63.61522 
L 359.724934 63.596592 
L 359.725017 63.596592 
L 360.213278 63.486895 
L 360.320601 63.462058 
L 360.324375 63.462058 
L 360.786365 63.351326 
L 360.875587 63.331663 
L 360.897441 63.331663 
L 361.396236 63.220931 
L 361.508618 63.18885 
L 361.962253 63.079152 
L 362.073598 63.056385 
L 362.535942 62.946688 
L 362.535942 62.945653 
L 362.647743 62.92806 
L 363.289981 62.818363 
L 363.35459 62.805944 
L 363.401036 62.805944 
L 363.9029 62.696247 
L 363.9029 62.695212 
L 364.014577 62.681759 
L 364.51049 62.572061 
L 364.621773 62.549294 
L 365.278069 62.439597 
L 365.36673 62.41269 
L 365.389165 62.41269 
L 366.001711 62.302993 
L 366.113264 62.276086 
L 366.804601 62.166388 
L 366.916154 62.141551 
L 367.429878 62.031854 
L 367.533469 62.007017 
L 367.540684 62.007017 
L 368.133781 61.89732 
L 368.23422 61.876622 
L 368.244877 61.876622 
L 368.852612 61.766925 
L 368.963336 61.746227 
L 368.963543 61.746227 
L 369.480004 61.63653 
L 369.583138 61.613763 
L 369.591018 61.613763 
L 370.02201 61.504065 
L 370.121537 61.481298 
L 370.133024 61.481298 
L 370.879516 61.371601 
L 370.983604 61.336415 
L 370.990529 61.336415 
L 371.433879 61.226718 
L 371.545432 61.20188 
L 372.093534 61.092183 
L 372.205834 61.063207 
L 373.084489 60.953509 
L 373.185716 60.934881 
L 373.195585 60.934881 
L 373.821069 60.825184 
L 373.921425 60.802417 
L 373.932166 60.802417 
L 374.627899 60.69272 
L 374.733066 60.669952 
L 374.738913 60.669952 
L 375.426394 60.560255 
L 375.527455 60.541627 
L 375.537491 60.541627 
L 376.196316 60.43193 
L 376.273657 60.407093 
L 376.30733 60.407093 
L 376.858293 60.297395 
L 376.958608 60.282907 
L 376.96939 60.282907 
L 377.607232 60.17321 
L 377.71866 60.148373 
L 378.4761 60.038675 
L 378.58786 60.005559 
L 379.319154 59.895862 
L 379.430561 59.864816 
L 380.106431 59.755118 
L 380.213588 59.732351 
L 380.217444 59.732351 
L 381.060685 59.622654 
L 381.171864 59.601956 
L 381.752354 59.492259 
L 381.847609 59.48191 
L 381.86343 59.48191 
L 382.443152 59.372213 
L 382.443152 59.371178 
L 382.555783 59.334957 
L 383.139259 59.22526 
L 383.243679 59.212841 
L 383.250355 59.212841 
L 383.851331 59.103144 
L 383.958571 59.084516 
L 383.962386 59.084516 
L 384.581981 58.974819 
L 384.687521 58.954121 
L 384.692746 58.954121 
L 385.516662 58.844424 
L 385.589524 58.827866 
L 385.627676 58.827866 
L 386.396561 58.717134 
L 386.479458 58.703681 
L 386.507637 58.703681 
L 387.197005 58.593983 
L 387.29566 58.577425 
L 387.30806 58.577425 
L 387.890499 58.467728 
L 387.969913 58.4491 
L 388.001595 58.4491 
L 388.740623 58.339403 
L 388.824806 58.324915 
L 388.851678 58.324915 
L 389.477742 58.215217 
L 389.586517 58.18831 
L 389.588798 58.18831 
L 390.223198 58.078613 
L 390.332428 58.045497 
L 390.334211 58.045497 
L 391.004648 57.9358 
L 391.103387 57.923381 
L 391.115745 57.923381 
L 391.647881 57.813684 
L 391.647881 57.812649 
L 391.759185 57.799196 
L 392.477105 57.689498 
L 392.580944 57.67708 
L 392.588035 57.67708 
L 393.352276 57.567382 
L 393.449688 57.554964 
L 393.463331 57.554964 
L 394.064929 57.445267 
L 394.142601 57.430778 
L 394.176026 57.430778 
L 394.899792 57.321081 
L 394.999236 57.304523 
L 395.010018 57.304523 
L 395.792298 57.194826 
L 395.900699 57.174128 
L 395.903395 57.174128 
L 396.499062 57.064431 
L 396.605846 57.037524 
L 396.610118 57.037524 
L 397.294198 56.926792 
L 397.405709 56.907129 
L 397.968367 56.797432 
L 398.052633 56.778804 
L 398.079422 56.778804 
L 398.863734 56.669107 
L 398.95675 56.652549 
L 398.974831 56.652549 
L 399.731524 56.542851 
L 399.826863 56.518014 
L 399.84258 56.518014 
L 400.619344 56.408317 
L 400.725631 56.38555 
L 400.730441 56.38555 
L 401.428248 56.275852 
L 401.537105 56.257225 
L 401.53922 56.257225 
L 402.316482 56.147527 
L 402.427662 56.135109 
L 403.031126 56.025412 
L 403.097186 56.008853 
L 403.142139 56.008853 
L 403.846415 55.899156 
L 403.953697 55.876389 
L 403.95689 55.876389 
L 404.833181 55.766692 
L 404.906624 55.748064 
L 404.944278 55.748064 
L 405.697654 55.638366 
L 405.809248 55.60732 
L 406.422582 55.497623 
L 406.532476 55.468646 
L 406.533554 55.468646 
L 407.223979 55.358949 
L 407.335449 55.332042 
L 407.904161 55.222345 
L 408.010945 55.201647 
L 408.014802 55.201647 
L 408.579492 55.09195 
L 408.691169 55.058834 
L 409.468141 54.949137 
L 409.560825 54.928439 
L 409.579237 54.928439 
L 410.265847 54.818742 
L 410.37429 54.783556 
L 410.376944 54.783556 
L 411.140812 54.673858 
L 411.23644 54.653161 
L 411.251784 54.653161 
L 411.906711 54.543464 
L 412.015361 54.520696 
L 412.017476 54.520696 
L 412.653908 54.410999 
L 412.763595 54.384092 
L 412.765005 54.384092 
L 413.538784 54.274395 
L 413.627445 54.257837 
L 413.64988 54.257837 
L 414.663975 54.14814 
L 414.709508 54.144 
L 414.72 54.144 
" clip-path="url(#p2cd2ebf0d3)" style="fill: none; stroke: #ff8c00; stroke-width: 1.5; stroke-linecap: square"/>
   </g>
   <g id="line2d_14">
    <path d="M 74.605714 307.584 
L 414.72 54.144 
" clip-path="url(#p2cd2ebf0d3)" style="fill: none; stroke-dasharray: 5.55,2.4; stroke-dashoffset: 0; stroke: #0000ff; stroke-width: 1.5"/>
   </g>
   <g id="patch_3">
    <path d="M 57.6 307.584 
L 57.6 41.472 
" style="fill: none; stroke: #000000; stroke-width: 0.8; stroke-linejoin: miter; stroke-linecap: square"/>
   </g>
   <g id="patch_4">
    <path d="M 414.72 307.584 
L 414.72 41.472 
" style="fill: none; stroke: #000000; stroke-width: 0.8; stroke-linejoin: miter; stroke-linecap: square"/>
   </g>
   <g id="patch_5">
    <path d="M 57.6 307.584 
L 414.72 307.584 
" style="fill: none; stroke: #000000; stroke-width: 0.8; stroke-linejoin: miter; stroke-linecap: square"/>
   </g>
   <g id="patch_6">
    <path d="M 57.6 41.472 
L 414.72 41.472 
" style="fill: none; stroke: #000000; stroke-width: 0.8; stroke-linejoin: miter; stroke-linecap: square"/>
   </g>
   <g id="text_15">
    <!-- ROC CURVE -->
    <g transform="translate(200.855625 35.472)scale(0.12 -0.12)">
     <defs>
      <path id="DejaVuSans-4f" d="M 2522 4238 
Q 1834 4238 1429 3725 
Q 1025 3213 1025 2328 
Q 1025 1447 1429 934 
Q 1834 422 2522 422 
Q 3209 422 3611 934 
Q 4013 1447 4013 2328 
Q 4013 3213 3611 3725 
Q 3209 4238 2522 4238 
z
M 2522 4750 
Q 3503 4750 4090 4092 
Q 4678 3434 4678 2328 
Q 4678 1225 4090 567 
Q 3503 -91 2522 -91 
Q 1538 -91 948 565 
Q 359 1222 359 2328 
Q 359 3434 948 4092 
Q 1538 4750 2522 4750 
z
" transform="scale(0.015625)"/>
      <path id="DejaVuSans-43" d="M 4122 4306 
L 4122 3641 
Q 3803 3938 3442 4084 
Q 3081 4231 2675 4231 
Q 1875 4231 1450 3742 
Q 1025 3253 1025 2328 
Q 1025 1406 1450 917 
Q 1875 428 2675 428 
Q 3081 428 3442 575 
Q 3803 722 4122 1019 
L 4122 359 
Q 3791 134 3420 21 
Q 3050 -91 2638 -91 
Q 1578 -91 968 557 
Q 359 1206 359 2328 
Q 359 3453 968 4101 
Q 1578 4750 2638 4750 
Q 3056 4750 3426 4639 
Q 3797 4528 4122 4306 
z
" transform="scale(0.015625)"/>
      <path id="DejaVuSans-55" d="M 556 4666 
L 1191 4666 
L 1191 1831 
Q 1191 1081 1462 751 
Q 1734 422 2344 422 
Q 2950 422 3222 751 
Q 3494 1081 3494 1831 
L 3494 4666 
L 4128 4666 
L 4128 1753 
Q 4128 841 3676 375 
Q 3225 -91 2344 -91 
Q 1459 -91 1007 375 
Q 556 841 556 1753 
L 556 4666 
z
" transform="scale(0.015625)"/>
      <path id="DejaVuSans-56" d="M 1831 0 
L 50 4666 
L 709 4666 
L 2188 738 
L 3669 4666 
L 4325 4666 
L 2547 0 
L 1831 0 
z
" transform="scale(0.015625)"/>
      <path id="DejaVuSans-45" d="M 628 4666 
L 3578 4666 
L 3578 4134 
L 1259 4134 
L 1259 2753 
L 3481 2753 
L 3481 2222 
L 1259 2222 
L 1259 531 
L 3634 531 
L 3634 0 
L 628 0 
L 628 4666 
z
" transform="scale(0.015625)"/>
     </defs>
     <use xlink:href="#DejaVuSans-52"/>
     <use xlink:href="#DejaVuSans-4f" x="69.482422"/>
     <use xlink:href="#DejaVuSans-43" x="148.193359"/>
     <use xlink:href="#DejaVuSans-20" x="218.017578"/>
     <use xlink:href="#DejaVuSans-43" x="249.804688"/>
     <use xlink:href="#DejaVuSans-55" x="319.628906"/>
     <use xlink:href="#DejaVuSans-52" x="392.822266"/>
     <use xlink:href="#DejaVuSans-56" x="456.804688"/>
     <use xlink:href="#DejaVuSans-45" x="525.212891"/>
    </g>
   </g>
   <g id="legend_1">
    <g id="patch_7">
     <path d="M 234.97 302.584 
L 407.72 302.584 
Q 409.72 302.584 409.72 300.584 
L 409.72 286.905875 
Q 409.72 284.905875 407.72 284.905875 
L 234.97 284.905875 
Q 232.97 284.905875 232.97 286.905875 
L 232.97 300.584 
Q 232.97 302.584 234.97 302.584 
z
" style="fill: #ffffff; opacity: 0.8; stroke: #cccccc; stroke-linejoin: miter"/>
    </g>
    <g id="line2d_15">
     <path d="M 236.97 293.004312 
L 246.97 293.004312 
L 256.97 293.004312 
" style="fill: none; stroke: #ff8c00; stroke-width: 1.5; stroke-linecap: square"/>
    </g>
    <g id="text_16">
     <!-- ROC curve (ROC AUC=0.76) -->
     <g transform="translate(264.97 296.504312)scale(0.1 -0.1)">
      <defs>
       <path id="DejaVuSans-63" d="M 3122 3366 
L 3122 2828 
Q 2878 2963 2633 3030 
Q 2388 3097 2138 3097 
Q 1578 3097 1268 2742 
Q 959 2388 959 1747 
Q 959 1106 1268 751 
Q 1578 397 2138 397 
Q 2388 397 2633 464 
Q 2878 531 3122 666 
L 3122 134 
Q 2881 22 2623 -34 
Q 2366 -91 2075 -91 
Q 1284 -91 818 406 
Q 353 903 353 1747 
Q 353 2603 823 3093 
Q 1294 3584 2113 3584 
Q 2378 3584 2631 3529 
Q 2884 3475 3122 3366 
z
" transform="scale(0.015625)"/>
       <path id="DejaVuSans-28" d="M 1984 4856 
Q 1566 4138 1362 3434 
Q 1159 2731 1159 2009 
Q 1159 1288 1364 580 
Q 1569 -128 1984 -844 
L 1484 -844 
Q 1016 -109 783 600 
Q 550 1309 550 2009 
Q 550 2706 781 3412 
Q 1013 4119 1484 4856 
L 1984 4856 
z
" transform="scale(0.015625)"/>
       <path id="DejaVuSans-41" d="M 2188 4044 
L 1331 1722 
L 3047 1722 
L 2188 4044 
z
M 1831 4666 
L 2547 4666 
L 4325 0 
L 3669 0 
L 3244 1197 
L 1141 1197 
L 716 0 
L 50 0 
L 1831 4666 
z
" transform="scale(0.015625)"/>
       <path id="DejaVuSans-3d" d="M 678 2906 
L 4684 2906 
L 4684 2381 
L 678 2381 
L 678 2906 
z
M 678 1631 
L 4684 1631 
L 4684 1100 
L 678 1100 
L 678 1631 
z
" transform="scale(0.015625)"/>
       <path id="DejaVuSans-37" d="M 525 4666 
L 3525 4666 
L 3525 4397 
L 1831 0 
L 1172 0 
L 2766 4134 
L 525 4134 
L 525 4666 
z
" transform="scale(0.015625)"/>
       <path id="DejaVuSans-29" d="M 513 4856 
L 1013 4856 
Q 1481 4119 1714 3412 
Q 1947 2706 1947 2009 
Q 1947 1309 1714 600 
Q 1481 -109 1013 -844 
L 513 -844 
Q 928 -128 1133 580 
Q 1338 1288 1338 2009 
Q 1338 2731 1133 3434 
Q 928 4138 513 4856 
z
" transform="scale(0.015625)"/>
      </defs>
      <use xlink:href="#DejaVuSans-52"/>
      <use xlink:href="#DejaVuSans-4f" x="69.482422"/>
      <use xlink:href="#DejaVuSans-43" x="148.193359"/>
      <use xlink:href="#DejaVuSans-20" x="218.017578"/>
      <use xlink:href="#DejaVuSans-63" x="249.804688"/>
      <use xlink:href="#DejaVuSans-75" x="304.785156"/>
      <use xlink:href="#DejaVuSans-72" x="368.164062"/>
      <use xlink:href="#DejaVuSans-76" x="409.277344"/>
      <use xlink:href="#DejaVuSans-65" x="468.457031"/>
      <use xlink:href="#DejaVuSans-20" x="529.980469"/>
      <use xlink:href="#DejaVuSans-28" x="561.767578"/>
      <use xlink:href="#DejaVuSans-52" x="600.78125"/>
      <use xlink:href="#DejaVuSans-4f" x="670.263672"/>
      <use xlink:href="#DejaVuSans-43" x="748.974609"/>
      <use xlink:href="#DejaVuSans-20" x="818.798828"/>
      <use xlink:href="#DejaVuSans-41" x="850.585938"/>
      <use xlink:href="#DejaVuSans-55" x="918.994141"/>
      <use xlink:href="#DejaVuSans-43" x="992.1875"/>
      <use xlink:href="#DejaVuSans-3d" x="1062.011719"/>
      <use xlink:href="#DejaVuSans-30" x="1145.800781"/>
      <use xlink:href="#DejaVuSans-2e" x="1209.423828"/>
      <use xlink:href="#DejaVuSans-37" x="1241.210938"/>
      <use xlink:href="#DejaVuSans-36" x="1304.833984"/>
      <use xlink:href="#DejaVuSans-29" x="1368.457031"/>
     </g>
    </g>
   </g>
  </g>
 </g>
 <defs>
  <clipPath id="p2cd2ebf0d3">
   <rect x="57.6" y="41.472" width="357.12" height="266.112"/>
  </clipPath>
 </defs>
</svg>
