<?xml version="1.0" encoding="utf-8" standalone="no"?>
<!DOCTYPE svg PUBLIC "-//W3C//DTD SVG 1.1//EN"
  "http://www.w3.org/Graphics/SVG/1.1/DTD/svg11.dtd">
<svg xmlns:xlink="http://www.w3.org/1999/xlink" width="460.8pt" height="345.6pt" viewBox="0 0 460.8 345.6" xmlns="http://www.w3.org/2000/svg" version="1.1">
 <metadata>
  <rdf:RDF xmlns:dc="http://purl.org/dc/elements/1.1/" xmlns:cc="http://creativecommons.org/ns#" xmlns:rdf="http://www.w3.org/1999/02/22-rdf-syntax-ns#">
   <cc:Work>
    <dc:type rdf:resource="http://purl.org/dc/dcmitype/StillImage"/>
    <dc:date>2022-05-20T19:39:03.756125</dc:date>
    <dc:format>image/svg+xml</dc:format>
    <dc:creator>
     <cc:Agent>
      <dc:title>Matplotlib v3.5.1, https://matplotlib.org/</dc:title>
     </cc:Agent>
    </dc:creator>
   </cc:Work>
  </rdf:RDF>
 </metadata>
 <defs>
  <style type="text/css">*{stroke-linejoin: round; stroke-linecap: butt}</style>
 </defs>
 <g id="figure_1">
  <g id="patch_1">
   <path d="M 0 345.6 
L 460.8 345.6 
L 460.8 0 
L 0 0 
z
" style="fill: #ffffff"/>
  </g>
  <g id="axes_1">
   <g id="patch_2">
    <path d="M 57.6 307.584 
L 414.72 307.584 
L 414.72 41.472 
L 57.6 41.472 
z
" style="fill: #ffffff"/>
   </g>
   <g id="matplotlib.axis_1">
    <g id="xtick_1">
     <g id="line2d_1">
      <defs>
       <path id="m074e056bfa" d="M 0 0 
L 0 3.5 
" style="stroke: #000000; stroke-width: 0.8"/>
      </defs>
      <g>
       <use xlink:href="#m074e056bfa" x="74.605714" y="307.584" style="stroke: #000000; stroke-width: 0.8"/>
      </g>
     </g>
     <g id="text_1">
      <!-- 0.0 -->
      <g transform="translate(66.654152 322.182437)scale(0.1 -0.1)">
       <defs>
        <path id="DejaVuSans-30" d="M 2034 4250 
Q 1547 4250 1301 3770 
Q 1056 3291 1056 2328 
Q 1056 1369 1301 889 
Q 1547 409 2034 409 
Q 2525 409 2770 889 
Q 3016 1369 3016 2328 
Q 3016 3291 2770 3770 
Q 2525 4250 2034 4250 
z
M 2034 4750 
Q 2819 4750 3233 4129 
Q 3647 3509 3647 2328 
Q 3647 1150 3233 529 
Q 2819 -91 2034 -91 
Q 1250 -91 836 529 
Q 422 1150 422 2328 
Q 422 3509 836 4129 
Q 1250 4750 2034 4750 
z
" transform="scale(0.015625)"/>
        <path id="DejaVuSans-2e" d="M 684 794 
L 1344 794 
L 1344 0 
L 684 0 
L 684 794 
z
" transform="scale(0.015625)"/>
       </defs>
       <use xlink:href="#DejaVuSans-30"/>
       <use xlink:href="#DejaVuSans-2e" x="63.623047"/>
       <use xlink:href="#DejaVuSans-30" x="95.410156"/>
      </g>
     </g>
    </g>
    <g id="xtick_2">
     <g id="line2d_2">
      <g>
       <use xlink:href="#m074e056bfa" x="142.628571" y="307.584" style="stroke: #000000; stroke-width: 0.8"/>
      </g>
     </g>
     <g id="text_2">
      <!-- 0.2 -->
      <g transform="translate(134.677009 322.182437)scale(0.1 -0.1)">
       <defs>
        <path id="DejaVuSans-32" d="M 1228 531 
L 3431 531 
L 3431 0 
L 469 0 
L 469 531 
Q 828 903 1448 1529 
Q 2069 2156 2228 2338 
Q 2531 2678 2651 2914 
Q 2772 3150 2772 3378 
Q 2772 3750 2511 3984 
Q 2250 4219 1831 4219 
Q 1534 4219 1204 4116 
Q 875 4013 500 3803 
L 500 4441 
Q 881 4594 1212 4672 
Q 1544 4750 1819 4750 
Q 2544 4750 2975 4387 
Q 3406 4025 3406 3419 
Q 3406 3131 3298 2873 
Q 3191 2616 2906 2266 
Q 2828 2175 2409 1742 
Q 1991 1309 1228 531 
z
" transform="scale(0.015625)"/>
       </defs>
       <use xlink:href="#DejaVuSans-30"/>
       <use xlink:href="#DejaVuSans-2e" x="63.623047"/>
       <use xlink:href="#DejaVuSans-32" x="95.410156"/>
      </g>
     </g>
    </g>
    <g id="xtick_3">
     <g id="line2d_3">
      <g>
       <use xlink:href="#m074e056bfa" x="210.651429" y="307.584" style="stroke: #000000; stroke-width: 0.8"/>
      </g>
     </g>
     <g id="text_3">
      <!-- 0.4 -->
      <g transform="translate(202.699866 322.182437)scale(0.1 -0.1)">
       <defs>
        <path id="DejaVuSans-34" d="M 2419 4116 
L 825 1625 
L 2419 1625 
L 2419 4116 
z
M 2253 4666 
L 3047 4666 
L 3047 1625 
L 3713 1625 
L 3713 1100 
L 3047 1100 
L 3047 0 
L 2419 0 
L 2419 1100 
L 313 1100 
L 313 1709 
L 2253 4666 
z
" transform="scale(0.015625)"/>
       </defs>
       <use xlink:href="#DejaVuSans-30"/>
       <use xlink:href="#DejaVuSans-2e" x="63.623047"/>
       <use xlink:href="#DejaVuSans-34" x="95.410156"/>
      </g>
     </g>
    </g>
    <g id="xtick_4">
     <g id="line2d_4">
      <g>
       <use xlink:href="#m074e056bfa" x="278.674286" y="307.584" style="stroke: #000000; stroke-width: 0.8"/>
      </g>
     </g>
     <g id="text_4">
      <!-- 0.6 -->
      <g transform="translate(270.722723 322.182437)scale(0.1 -0.1)">
       <defs>
        <path id="DejaVuSans-36" d="M 2113 2584 
Q 1688 2584 1439 2293 
Q 1191 2003 1191 1497 
Q 1191 994 1439 701 
Q 1688 409 2113 409 
Q 2538 409 2786 701 
Q 3034 994 3034 1497 
Q 3034 2003 2786 2293 
Q 2538 2584 2113 2584 
z
M 3366 4563 
L 3366 3988 
Q 3128 4100 2886 4159 
Q 2644 4219 2406 4219 
Q 1781 4219 1451 3797 
Q 1122 3375 1075 2522 
Q 1259 2794 1537 2939 
Q 1816 3084 2150 3084 
Q 2853 3084 3261 2657 
Q 3669 2231 3669 1497 
Q 3669 778 3244 343 
Q 2819 -91 2113 -91 
Q 1303 -91 875 529 
Q 447 1150 447 2328 
Q 447 3434 972 4092 
Q 1497 4750 2381 4750 
Q 2619 4750 2861 4703 
Q 3103 4656 3366 4563 
z
" transform="scale(0.015625)"/>
       </defs>
       <use xlink:href="#DejaVuSans-30"/>
       <use xlink:href="#DejaVuSans-2e" x="63.623047"/>
       <use xlink:href="#DejaVuSans-36" x="95.410156"/>
      </g>
     </g>
    </g>
    <g id="xtick_5">
     <g id="line2d_5">
      <g>
       <use xlink:href="#m074e056bfa" x="346.697143" y="307.584" style="stroke: #000000; stroke-width: 0.8"/>
      </g>
     </g>
     <g id="text_5">
      <!-- 0.8 -->
      <g transform="translate(338.74558 322.182437)scale(0.1 -0.1)">
       <defs>
        <path id="DejaVuSans-38" d="M 2034 2216 
Q 1584 2216 1326 1975 
Q 1069 1734 1069 1313 
Q 1069 891 1326 650 
Q 1584 409 2034 409 
Q 2484 409 2743 651 
Q 3003 894 3003 1313 
Q 3003 1734 2745 1975 
Q 2488 2216 2034 2216 
z
M 1403 2484 
Q 997 2584 770 2862 
Q 544 3141 544 3541 
Q 544 4100 942 4425 
Q 1341 4750 2034 4750 
Q 2731 4750 3128 4425 
Q 3525 4100 3525 3541 
Q 3525 3141 3298 2862 
Q 3072 2584 2669 2484 
Q 3125 2378 3379 2068 
Q 3634 1759 3634 1313 
Q 3634 634 3220 271 
Q 2806 -91 2034 -91 
Q 1263 -91 848 271 
Q 434 634 434 1313 
Q 434 1759 690 2068 
Q 947 2378 1403 2484 
z
M 1172 3481 
Q 1172 3119 1398 2916 
Q 1625 2713 2034 2713 
Q 2441 2713 2670 2916 
Q 2900 3119 2900 3481 
Q 2900 3844 2670 4047 
Q 2441 4250 2034 4250 
Q 1625 4250 1398 4047 
Q 1172 3844 1172 3481 
z
" transform="scale(0.015625)"/>
       </defs>
       <use xlink:href="#DejaVuSans-30"/>
       <use xlink:href="#DejaVuSans-2e" x="63.623047"/>
       <use xlink:href="#DejaVuSans-38" x="95.410156"/>
      </g>
     </g>
    </g>
    <g id="xtick_6">
     <g id="line2d_6">
      <g>
       <use xlink:href="#m074e056bfa" x="414.72" y="307.584" style="stroke: #000000; stroke-width: 0.8"/>
      </g>
     </g>
     <g id="text_6">
      <!-- 1.0 -->
      <g transform="translate(406.768438 322.182437)scale(0.1 -0.1)">
       <defs>
        <path id="DejaVuSans-31" d="M 794 531 
L 1825 531 
L 1825 4091 
L 703 3866 
L 703 4441 
L 1819 4666 
L 2450 4666 
L 2450 531 
L 3481 531 
L 3481 0 
L 794 0 
L 794 531 
z
" transform="scale(0.015625)"/>
       </defs>
       <use xlink:href="#DejaVuSans-31"/>
       <use xlink:href="#DejaVuSans-2e" x="63.623047"/>
       <use xlink:href="#DejaVuSans-30" x="95.410156"/>
      </g>
     </g>
    </g>
    <g id="text_7">
     <!-- False Positive Rate -->
     <g transform="translate(189.693594 335.860562)scale(0.1 -0.1)">
      <defs>
       <path id="DejaVuSans-46" d="M 628 4666 
L 3309 4666 
L 3309 4134 
L 1259 4134 
L 1259 2759 
L 3109 2759 
L 3109 2228 
L 1259 2228 
L 1259 0 
L 628 0 
L 628 4666 
z
" transform="scale(0.015625)"/>
       <path id="DejaVuSans-61" d="M 2194 1759 
Q 1497 1759 1228 1600 
Q 959 1441 959 1056 
Q 959 750 1161 570 
Q 1363 391 1709 391 
Q 2188 391 2477 730 
Q 2766 1069 2766 1631 
L 2766 1759 
L 2194 1759 
z
M 3341 1997 
L 3341 0 
L 2766 0 
L 2766 531 
Q 2569 213 2275 61 
Q 1981 -91 1556 -91 
Q 1019 -91 701 211 
Q 384 513 384 1019 
Q 384 1609 779 1909 
Q 1175 2209 1959 2209 
L 2766 2209 
L 2766 2266 
Q 2766 2663 2505 2880 
Q 2244 3097 1772 3097 
Q 1472 3097 1187 3025 
Q 903 2953 641 2809 
L 641 3341 
Q 956 3463 1253 3523 
Q 1550 3584 1831 3584 
Q 2591 3584 2966 3190 
Q 3341 2797 3341 1997 
z
" transform="scale(0.015625)"/>
       <path id="DejaVuSans-6c" d="M 603 4863 
L 1178 4863 
L 1178 0 
L 603 0 
L 603 4863 
z
" transform="scale(0.015625)"/>
       <path id="DejaVuSans-73" d="M 2834 3397 
L 2834 2853 
Q 2591 2978 2328 3040 
Q 2066 3103 1784 3103 
Q 1356 3103 1142 2972 
Q 928 2841 928 2578 
Q 928 2378 1081 2264 
Q 1234 2150 1697 2047 
L 1894 2003 
Q 2506 1872 2764 1633 
Q 3022 1394 3022 966 
Q 3022 478 2636 193 
Q 2250 -91 1575 -91 
Q 1294 -91 989 -36 
Q 684 19 347 128 
L 347 722 
Q 666 556 975 473 
Q 1284 391 1588 391 
Q 1994 391 2212 530 
Q 2431 669 2431 922 
Q 2431 1156 2273 1281 
Q 2116 1406 1581 1522 
L 1381 1569 
Q 847 1681 609 1914 
Q 372 2147 372 2553 
Q 372 3047 722 3315 
Q 1072 3584 1716 3584 
Q 2034 3584 2315 3537 
Q 2597 3491 2834 3397 
z
" transform="scale(0.015625)"/>
       <path id="DejaVuSans-65" d="M 3597 1894 
L 3597 1613 
L 953 1613 
Q 991 1019 1311 708 
Q 1631 397 2203 397 
Q 2534 397 2845 478 
Q 3156 559 3463 722 
L 3463 178 
Q 3153 47 2828 -22 
Q 2503 -91 2169 -91 
Q 1331 -91 842 396 
Q 353 884 353 1716 
Q 353 2575 817 3079 
Q 1281 3584 2069 3584 
Q 2775 3584 3186 3129 
Q 3597 2675 3597 1894 
z
M 3022 2063 
Q 3016 2534 2758 2815 
Q 2500 3097 2075 3097 
Q 1594 3097 1305 2825 
Q 1016 2553 972 2059 
L 3022 2063 
z
" transform="scale(0.015625)"/>
       <path id="DejaVuSans-20" transform="scale(0.015625)"/>
       <path id="DejaVuSans-50" d="M 1259 4147 
L 1259 2394 
L 2053 2394 
Q 2494 2394 2734 2622 
Q 2975 2850 2975 3272 
Q 2975 3691 2734 3919 
Q 2494 4147 2053 4147 
L 1259 4147 
z
M 628 4666 
L 2053 4666 
Q 2838 4666 3239 4311 
Q 3641 3956 3641 3272 
Q 3641 2581 3239 2228 
Q 2838 1875 2053 1875 
L 1259 1875 
L 1259 0 
L 628 0 
L 628 4666 
z
" transform="scale(0.015625)"/>
       <path id="DejaVuSans-6f" d="M 1959 3097 
Q 1497 3097 1228 2736 
Q 959 2375 959 1747 
Q 959 1119 1226 758 
Q 1494 397 1959 397 
Q 2419 397 2687 759 
Q 2956 1122 2956 1747 
Q 2956 2369 2687 2733 
Q 2419 3097 1959 3097 
z
M 1959 3584 
Q 2709 3584 3137 3096 
Q 3566 2609 3566 1747 
Q 3566 888 3137 398 
Q 2709 -91 1959 -91 
Q 1206 -91 779 398 
Q 353 888 353 1747 
Q 353 2609 779 3096 
Q 1206 3584 1959 3584 
z
" transform="scale(0.015625)"/>
       <path id="DejaVuSans-69" d="M 603 3500 
L 1178 3500 
L 1178 0 
L 603 0 
L 603 3500 
z
M 603 4863 
L 1178 4863 
L 1178 4134 
L 603 4134 
L 603 4863 
z
" transform="scale(0.015625)"/>
       <path id="DejaVuSans-74" d="M 1172 4494 
L 1172 3500 
L 2356 3500 
L 2356 3053 
L 1172 3053 
L 1172 1153 
Q 1172 725 1289 603 
Q 1406 481 1766 481 
L 2356 481 
L 2356 0 
L 1766 0 
Q 1100 0 847 248 
Q 594 497 594 1153 
L 594 3053 
L 172 3053 
L 172 3500 
L 594 3500 
L 594 4494 
L 1172 4494 
z
" transform="scale(0.015625)"/>
       <path id="DejaVuSans-76" d="M 191 3500 
L 800 3500 
L 1894 563 
L 2988 3500 
L 3597 3500 
L 2284 0 
L 1503 0 
L 191 3500 
z
" transform="scale(0.015625)"/>
       <path id="DejaVuSans-52" d="M 2841 2188 
Q 3044 2119 3236 1894 
Q 3428 1669 3622 1275 
L 4263 0 
L 3584 0 
L 2988 1197 
Q 2756 1666 2539 1819 
Q 2322 1972 1947 1972 
L 1259 1972 
L 1259 0 
L 628 0 
L 628 4666 
L 2053 4666 
Q 2853 4666 3247 4331 
Q 3641 3997 3641 3322 
Q 3641 2881 3436 2590 
Q 3231 2300 2841 2188 
z
M 1259 4147 
L 1259 2491 
L 2053 2491 
Q 2509 2491 2742 2702 
Q 2975 2913 2975 3322 
Q 2975 3731 2742 3939 
Q 2509 4147 2053 4147 
L 1259 4147 
z
" transform="scale(0.015625)"/>
      </defs>
      <use xlink:href="#DejaVuSans-46"/>
      <use xlink:href="#DejaVuSans-61" x="48.394531"/>
      <use xlink:href="#DejaVuSans-6c" x="109.673828"/>
      <use xlink:href="#DejaVuSans-73" x="137.457031"/>
      <use xlink:href="#DejaVuSans-65" x="189.556641"/>
      <use xlink:href="#DejaVuSans-20" x="251.080078"/>
      <use xlink:href="#DejaVuSans-50" x="282.867188"/>
      <use xlink:href="#DejaVuSans-6f" x="339.544922"/>
      <use xlink:href="#DejaVuSans-73" x="400.726562"/>
      <use xlink:href="#DejaVuSans-69" x="452.826172"/>
      <use xlink:href="#DejaVuSans-74" x="480.609375"/>
      <use xlink:href="#DejaVuSans-69" x="519.818359"/>
      <use xlink:href="#DejaVuSans-76" x="547.601562"/>
      <use xlink:href="#DejaVuSans-65" x="606.78125"/>
      <use xlink:href="#DejaVuSans-20" x="668.304688"/>
      <use xlink:href="#DejaVuSans-52" x="700.091797"/>
      <use xlink:href="#DejaVuSans-61" x="767.324219"/>
      <use xlink:href="#DejaVuSans-74" x="828.603516"/>
      <use xlink:href="#DejaVuSans-65" x="867.8125"/>
     </g>
    </g>
   </g>
   <g id="matplotlib.axis_2">
    <g id="ytick_1">
     <g id="line2d_7">
      <defs>
       <path id="mecf7b14640" d="M 0 0 
L -3.5 0 
" style="stroke: #000000; stroke-width: 0.8"/>
      </defs>
      <g>
       <use xlink:href="#mecf7b14640" x="57.6" y="307.584" style="stroke: #000000; stroke-width: 0.8"/>
      </g>
     </g>
     <g id="text_8">
      <!-- 0.0 -->
      <g transform="translate(34.696875 311.383219)scale(0.1 -0.1)">
       <use xlink:href="#DejaVuSans-30"/>
       <use xlink:href="#DejaVuSans-2e" x="63.623047"/>
       <use xlink:href="#DejaVuSans-30" x="95.410156"/>
      </g>
     </g>
    </g>
    <g id="ytick_2">
     <g id="line2d_8">
      <g>
       <use xlink:href="#mecf7b14640" x="57.6" y="256.896" style="stroke: #000000; stroke-width: 0.8"/>
      </g>
     </g>
     <g id="text_9">
      <!-- 0.2 -->
      <g transform="translate(34.696875 260.695219)scale(0.1 -0.1)">
       <use xlink:href="#DejaVuSans-30"/>
       <use xlink:href="#DejaVuSans-2e" x="63.623047"/>
       <use xlink:href="#DejaVuSans-32" x="95.410156"/>
      </g>
     </g>
    </g>
    <g id="ytick_3">
     <g id="line2d_9">
      <g>
       <use xlink:href="#mecf7b14640" x="57.6" y="206.208" style="stroke: #000000; stroke-width: 0.8"/>
      </g>
     </g>
     <g id="text_10">
      <!-- 0.4 -->
      <g transform="translate(34.696875 210.007219)scale(0.1 -0.1)">
       <use xlink:href="#DejaVuSans-30"/>
       <use xlink:href="#DejaVuSans-2e" x="63.623047"/>
       <use xlink:href="#DejaVuSans-34" x="95.410156"/>
      </g>
     </g>
    </g>
    <g id="ytick_4">
     <g id="line2d_10">
      <g>
       <use xlink:href="#mecf7b14640" x="57.6" y="155.52" style="stroke: #000000; stroke-width: 0.8"/>
      </g>
     </g>
     <g id="text_11">
      <!-- 0.6 -->
      <g transform="translate(34.696875 159.319219)scale(0.1 -0.1)">
       <use xlink:href="#DejaVuSans-30"/>
       <use xlink:href="#DejaVuSans-2e" x="63.623047"/>
       <use xlink:href="#DejaVuSans-36" x="95.410156"/>
      </g>
     </g>
    </g>
    <g id="ytick_5">
     <g id="line2d_11">
      <g>
       <use xlink:href="#mecf7b14640" x="57.6" y="104.832" style="stroke: #000000; stroke-width: 0.8"/>
      </g>
     </g>
     <g id="text_12">
      <!-- 0.8 -->
      <g transform="translate(34.696875 108.631219)scale(0.1 -0.1)">
       <use xlink:href="#DejaVuSans-30"/>
       <use xlink:href="#DejaVuSans-2e" x="63.623047"/>
       <use xlink:href="#DejaVuSans-38" x="95.410156"/>
      </g>
     </g>
    </g>
    <g id="ytick_6">
     <g id="line2d_12">
      <g>
       <use xlink:href="#mecf7b14640" x="57.6" y="54.144" style="stroke: #000000; stroke-width: 0.8"/>
      </g>
     </g>
     <g id="text_13">
      <!-- 1.0 -->
      <g transform="translate(34.696875 57.943219)scale(0.1 -0.1)">
       <use xlink:href="#DejaVuSans-31"/>
       <use xlink:href="#DejaVuSans-2e" x="63.623047"/>
       <use xlink:href="#DejaVuSans-30" x="95.410156"/>
      </g>
     </g>
    </g>
    <g id="text_14">
     <!-- True Positive Rate -->
     <g transform="translate(28.617187 219.057687)rotate(-90)scale(0.1 -0.1)">
      <defs>
       <path id="DejaVuSans-54" d="M -19 4666 
L 3928 4666 
L 3928 4134 
L 2272 4134 
L 2272 0 
L 1638 0 
L 1638 4134 
L -19 4134 
L -19 4666 
z
" transform="scale(0.015625)"/>
       <path id="DejaVuSans-72" d="M 2631 2963 
Q 2534 3019 2420 3045 
Q 2306 3072 2169 3072 
Q 1681 3072 1420 2755 
Q 1159 2438 1159 1844 
L 1159 0 
L 581 0 
L 581 3500 
L 1159 3500 
L 1159 2956 
Q 1341 3275 1631 3429 
Q 1922 3584 2338 3584 
Q 2397 3584 2469 3576 
Q 2541 3569 2628 3553 
L 2631 2963 
z
" transform="scale(0.015625)"/>
       <path id="DejaVuSans-75" d="M 544 1381 
L 544 3500 
L 1119 3500 
L 1119 1403 
Q 1119 906 1312 657 
Q 1506 409 1894 409 
Q 2359 409 2629 706 
Q 2900 1003 2900 1516 
L 2900 3500 
L 3475 3500 
L 3475 0 
L 2900 0 
L 2900 538 
Q 2691 219 2414 64 
Q 2138 -91 1772 -91 
Q 1169 -91 856 284 
Q 544 659 544 1381 
z
M 1991 3584 
L 1991 3584 
z
" transform="scale(0.015625)"/>
      </defs>
      <use xlink:href="#DejaVuSans-54"/>
      <use xlink:href="#DejaVuSans-72" x="46.333984"/>
      <use xlink:href="#DejaVuSans-75" x="87.447266"/>
      <use xlink:href="#DejaVuSans-65" x="150.826172"/>
      <use xlink:href="#DejaVuSans-20" x="212.349609"/>
      <use xlink:href="#DejaVuSans-50" x="244.136719"/>
      <use xlink:href="#DejaVuSans-6f" x="300.814453"/>
      <use xlink:href="#DejaVuSans-73" x="361.996094"/>
      <use xlink:href="#DejaVuSans-69" x="414.095703"/>
      <use xlink:href="#DejaVuSans-74" x="441.878906"/>
      <use xlink:href="#DejaVuSans-69" x="481.087891"/>
      <use xlink:href="#DejaVuSans-76" x="508.871094"/>
      <use xlink:href="#DejaVuSans-65" x="568.050781"/>
      <use xlink:href="#DejaVuSans-20" x="629.574219"/>
      <use xlink:href="#DejaVuSans-52" x="661.361328"/>
      <use xlink:href="#DejaVuSans-61" x="728.59375"/>
      <use xlink:href="#DejaVuSans-74" x="789.873047"/>
      <use xlink:href="#DejaVuSans-65" x="829.082031"/>
     </g>
    </g>
   </g>
   <g id="line2d_13">
    <path d="M 74.605714 307.584 
L 74.615791 307.474303 
L 74.726888 301.318838 
L 74.72892 301.20914 
L 74.840017 295.560766 
L 74.842422 295.452104 
L 74.842422 295.451069 
L 74.953477 290.692691 
L 74.953498 290.692691 
L 74.95526 290.591273 
L 74.95526 290.582994 
L 75.066336 287.051984 
L 75.069695 286.945392 
L 75.069695 286.941252 
L 75.22448 278.539063 
L 279.086144 236.715429 
L 279.197158 230.282616 
L 279.203088 230.179128 
L 279.316756 228.626809 
L 279.330275 228.519181 
L 279.330275 228.517111 
L 279.441268 227.614696 
L 279.507018 227.187291 
L 279.618011 226.442177 
L 279.764481 225.559425 
L 279.777274 225.458007 
L 279.777274 225.449728 
L 279.957749 224.051605 
L 280.049728 223.601432 
L 280.160701 222.959807 
L 280.160742 222.959807 
L 280.181975 222.849075 
L 280.315962 222.084298 
L 280.346774 221.978741 
L 280.346774 221.974601 
L 280.45785 221.366092 
L 280.482587 221.227418 
L 281.023432 217.841291 
L 281.046571 217.731594 
L 281.156445 217.021666 
L 281.360889 216.188588 
L 281.525254 215.564555 
L 281.557641 215.454858 
L 281.668738 214.987093 
L 281.694096 214.888779 
L 281.881621 214.011201 
L 282.0543 213.28368 
L 282.085879 213.173983 
L 282.196769 212.673101 
L 282.196893 212.673101 
L 282.22474 212.564439 
L 282.340688 212.146347 
L 282.614076 211.211851 
L 282.722394 210.756504 
L 282.724779 210.756504 
L 282.74232 210.65819 
L 283.30645 208.870953 
L 283.349827 208.761256 
L 283.455865 208.442513 
L 283.460841 208.442513 
L 283.495136 208.332815 
L 283.604844 207.966468 
L 283.606233 207.966468 
L 283.635676 207.856771 
L 283.734166 207.608399 
L 283.746275 207.608399 
L 283.788325 207.498702 
L 283.898634 207.090959 
L 283.899318 207.090959 
L 283.939668 206.981262 
L 284.110585 206.388276 
L 284.236092 205.943278 
L 284.344099 205.683523 
L 284.347106 205.683523 
L 284.392079 205.584174 
L 284.392079 205.572791 
L 284.502927 204.940479 
L 284.503176 204.940479 
L 284.518831 204.829747 
L 284.655991 204.502725 
L 284.7155 204.346458 
L 284.825726 203.857995 
L 284.826513 203.857995 
L 284.868937 203.748298 
L 284.868937 203.747263 
L 284.979702 203.506136 
L 284.979971 203.506136 
L 285.019844 203.396438 
L 285.108299 202.812766 
L 285.124472 202.812766 
L 285.180704 202.703069 
L 285.291407 202.378117 
L 286.256339 199.689499 
L 286.29051 199.600499 
L 286.29051 199.59843 
L 286.401275 199.143082 
L 286.401545 199.143082 
L 286.43922 199.033385 
L 286.548118 198.846072 
L 286.587639 198.732235 
L 286.707838 198.342085 
L 286.796562 198.232388 
L 286.904673 197.938482 
L 286.907285 197.938482 
L 286.964099 197.82775 
L 287.071546 197.534879 
L 287.134497 197.425182 
L 287.242856 196.967765 
L 287.245158 196.967765 
L 287.289261 196.858068 
L 287.353082 196.636603 
L 287.396874 196.636603 
L 287.454558 196.526906 
L 287.563353 196.386163 
L 287.56553 196.386163 
L 287.575649 196.329244 
L 287.749862 195.771444 
L 287.805017 195.661747 
L 287.912879 195.54584 
L 287.915802 195.54584 
L 287.947381 195.440282 
L 288.090803 195.047028 
L 288.161861 194.937331 
L 288.272502 194.77589 
L 288.272917 194.77589 
L 288.327324 194.666192 
L 288.401472 194.527518 
L 288.401555 194.527518 
L 288.503321 194.417821 
L 288.612987 194.092869 
L 288.895332 193.670638 
L 288.973875 193.490569 
L 288.993718 193.490569 
L 289.130236 193.379837 
L 289.239134 193.289802 
L 289.377083 193.180105 
L 289.488179 193.000036 
L 289.534729 192.892408 
L 289.647712 192.70199 
L 289.691048 192.591258 
L 289.841333 192.269411 
L 289.876416 192.159713 
L 289.984631 192.056225 
L 290.053823 191.946528 
L 290.16239 191.806819 
L 292.691592 187.656951 
L 292.822843 187.345452 
L 292.947583 187.23472 
L 293.050324 187.026709 
L 293.15802 186.770059 
L 293.209774 186.652083 
L 293.320705 186.164654 
L 293.410444 186.053922 
L 293.521085 185.942155 
L 293.521541 185.942155 
L 293.569231 185.832458 
L 293.680162 185.677226 
L 293.680328 185.677226 
L 293.777864 185.567529 
L 293.888961 185.283972 
L 293.975943 185.178414 
L 294.352216 184.330847 
L 294.456823 184.149743 
L 294.627698 183.866186 
L 294.68476 183.756489 
L 294.795525 183.468793 
L 294.795732 183.468793 
L 294.943571 183.35806 
L 295.147497 183.083817 
L 295.19753 182.97412 
L 295.307341 182.789911 
L 295.307756 182.789911 
L 295.420511 182.680214 
L 295.539051 182.551889 
L 295.637355 182.442192 
L 295.744678 182.170018 
L 296.08367 181.490102 
L 296.140836 181.380405 
L 296.247412 181.227243 
L 296.251663 181.227243 
L 296.319403 181.125825 
L 296.319403 181.116511 
L 296.429214 180.848477 
L 296.4305 180.848477 
L 296.486152 180.737745 
L 296.643093 180.509036 
L 296.705816 180.398304 
L 296.813076 180.285502 
L 296.813989 180.285502 
L 296.899105 180.17891 
L 297.160052 179.526935 
L 297.374573 179.22475 
L 297.614806 178.807694 
L 297.758352 178.697997 
L 297.863374 178.532416 
L 298.067424 178.277835 
L 298.181921 178.135022 
L 298.26457 178.025325 
L 298.374962 177.81007 
L 298.375667 177.81007 
L 298.459311 177.706582 
L 298.569993 177.232607 
L 298.751297 177.008038 
L 298.855883 176.86005 
L 299.01438 176.73276 
L 299.157574 176.503016 
L 299.286917 176.232913 
L 299.396023 176.102518 
L 299.397972 176.102518 
L 299.454495 175.99696 
L 299.454495 175.992821 
L 299.565115 175.721682 
L 299.990301 175.204242 
L 300.061649 175.09351 
L 300.176354 175.005545 
L 300.230057 174.905162 
L 300.571019 174.245944 
L 300.613235 174.136246 
L 300.723751 174.034828 
L 300.72429 174.034828 
L 300.835553 173.925131 
L 301.020009 173.581551 
L 301.139026 173.4584 
L 301.249376 173.273156 
L 301.250102 173.273156 
L 301.300384 173.165529 
L 301.300384 173.163459 
L 301.409117 173.055832 
L 301.455894 172.946134 
L 301.563072 172.776414 
L 301.605661 172.64188 
L 301.721548 172.401788 
L 301.836128 172.29209 
L 301.911478 172.151347 
L 301.933602 172.151347 
L 302.031615 172.049929 
L 302.188867 171.803627 
L 302.288643 171.694965 
L 302.288643 171.692895 
L 302.397625 171.513861 
L 302.398599 171.513861 
L 302.487364 171.404163 
L 302.598046 171.224094 
L 302.598295 171.224094 
L 302.663527 171.114397 
L 302.77369 170.984002 
L 302.773877 170.984002 
L 303.102357 170.514167 
L 303.176442 170.413784 
L 303.367367 170.172657 
L 303.449498 170.062959 
L 303.529078 170.013285 
L 303.546204 170.013285 
L 303.613364 169.930495 
L 304.003965 169.477217 
L 304.123376 169.366485 
L 304.230077 169.119149 
L 304.232317 169.119149 
L 304.340925 169.008417 
L 304.790143 168.202245 
L 304.903749 168.024246 
L 304.983204 167.914549 
L 305.252818 167.584422 
L 305.368622 167.500597 
L 305.450192 167.3909 
L 305.558593 167.241877 
L 305.561227 167.241877 
L 305.656751 167.131145 
L 305.827668 166.95211 
L 305.985231 166.61267 
L 306.062447 166.502973 
L 306.173005 166.416043 
L 306.173523 166.416043 
L 306.260796 166.306345 
L 306.37098 166.161462 
L 306.469221 166.055905 
L 306.578804 165.884114 
L 306.580318 165.884114 
L 306.675573 165.773382 
L 306.805269 165.592278 
L 306.925676 165.482581 
L 307.03615 165.366675 
L 307.036731 165.366675 
L 307.142789 165.255942 
L 307.411698 164.954792 
L 307.52267 164.770584 
L 307.522753 164.770584 
L 307.622446 164.660887 
L 307.727239 164.577061 
L 307.729769 164.577061 
L 307.871304 164.448736 
L 308.237396 164.02547 
L 308.308807 163.917843 
L 308.419323 163.697413 
L 309.671763 162.442104 
L 309.73743 162.331372 
L 309.848506 162.13371 
L 309.848527 162.13371 
L 309.950251 162.024013 
L 310.047352 161.940187 
L 310.399615 161.450689 
L 310.499888 161.326504 
L 310.506689 161.326504 
L 310.563668 161.216806 
L 310.67153 161.117458 
L 310.671779 161.117458 
L 310.78949 161.007761 
L 310.962563 160.802855 
L 311.242585 160.430298 
L 311.364505 160.319566 
L 311.496254 160.140531 
L 311.581536 159.992544 
L 311.692176 159.817649 
L 311.692633 159.817649 
L 311.834334 159.706917 
L 311.946965 159.55272 
L 311.96857 159.505115 
L 311.96857 159.474069 
L 312.078838 159.242256 
L 312.079667 159.242256 
L 312.161237 159.132559 
L 312.271919 159.068396 
L 312.272002 159.068396 
L 312.391766 158.958699 
L 312.502821 158.743444 
L 312.502863 158.743444 
L 312.611057 158.633746 
L 312.721075 158.445398 
L 312.722154 158.445398 
L 312.824915 158.34191 
L 312.982312 158.149423 
L 313.053453 158.04283 
L 313.166851 157.763412 
L 313.56614 157.259426 
L 313.67423 157.176636 
L 313.86443 156.946892 
L 313.981768 156.909637 
L 314.132426 156.799939 
L 314.365589 156.524661 
L 314.447553 156.417034 
L 314.447553 156.415999 
L 314.539968 156.342522 
L 314.552699 156.342522 
L 314.76411 156.166593 
L 314.857955 156.075523 
L 314.87079 156.075523 
L 314.959224 155.967896 
L 315.060472 155.824048 
L 315.429239 155.539456 
L 315.71685 155.253829 
L 315.823904 155.144132 
L 315.932927 155.024086 
L 315.933487 155.024086 
L 316.021133 154.914388 
L 316.126797 154.748808 
L 316.128767 154.748808 
L 316.362592 154.628761 
L 316.468816 154.489053 
L 316.787862 154.163066 
L 316.894272 154.057508 
L 316.896636 154.057508 
L 317.096643 153.947811 
L 317.20548 153.764637 
L 317.330966 153.615614 
L 317.417845 153.520405 
L 317.673898 153.34965 
L 317.784974 153.26065 
L 317.881536 153.154058 
L 318.077438 152.952256 
L 318.188617 152.585909 
L 318.311989 152.477246 
L 318.457485 152.277515 
L 318.569701 152.078818 
L 318.74663 151.96912 
L 318.857064 151.865632 
L 318.85752 151.865632 
L 318.940998 151.755935 
L 319.051618 151.575866 
L 319.052074 151.575866 
L 319.139823 151.466169 
L 319.241859 151.36682 
L 319.366765 151.256088 
L 319.477737 151.11224 
L 319.47782 151.11224 
L 319.492272 151.087403 
L 319.651494 150.836962 
L 319.666402 150.755206 
L 319.780879 150.352638 
L 319.84468 150.242941 
L 319.956689 150.151871 
L 320.035584 150.042174 
L 320.145188 149.851756 
L 320.14525 149.851756 
L 320.536287 149.436769 
L 320.647259 149.375711 
L 320.647342 149.375711 
L 320.729389 149.266014 
L 320.843202 149.191503 
L 320.955419 149.081806 
L 321.066142 148.895527 
L 321.066515 148.895527 
L 321.125257 148.786865 
L 321.482744 148.502273 
L 321.617645 148.361529 
L 321.727394 148.313925 
L 321.881701 148.210437 
L 322.006981 148.133856 
L 322.172382 148.024158 
L 322.28043 147.92067 
L 322.281882 147.92067 
L 322.836142 147.23765 
L 322.944502 147.076209 
L 322.94531 147.076209 
L 323.131011 146.965476 
L 323.228941 146.867163 
L 323.37877 146.747117 
L 323.482402 146.711931 
L 323.488747 146.711931 
L 323.578072 146.602234 
L 323.977838 146.359037 
L 324.129637 146.248305 
L 324.236732 146.151026 
L 324.240671 146.151026 
L 324.345257 146.041329 
L 324.454011 145.882992 
L 324.734117 145.545621 
L 324.874408 145.342785 
L 325.025191 145.180309 
L 325.135707 145.047844 
L 325.136287 145.047844 
L 325.337249 144.938147 
L 325.337249 144.937112 
L 325.450419 144.82845 
L 325.590503 144.718752 
L 325.690631 144.588357 
L 325.691356 144.588357 
L 325.812489 144.47866 
L 325.923191 144.435195 
L 325.923502 144.435195 
L 325.936462 144.388626 
L 326.052825 144.159917 
L 326.150631 144.05022 
L 326.261479 143.957081 
L 326.261561 143.957081 
L 326.354515 143.846349 
L 326.479463 143.627989 
L 326.58212 143.518292 
L 326.664769 143.441711 
L 326.665723 143.441711 
L 326.817377 143.332013 
L 326.920097 143.259572 
L 326.922751 143.259572 
L 327.073471 143.14884 
L 327.186455 143.052596 
L 327.38105 142.942898 
L 327.499467 142.855969 
L 327.682658 142.745236 
L 327.804309 142.663481 
L 327.903628 142.553784 
L 328.014497 142.346808 
L 328.014725 142.346808 
L 328.12184 142.23711 
L 328.231983 142.129483 
L 328.232937 142.129483 
L 328.445302 142.018751 
L 328.543585 141.922507 
L 328.552169 141.922507 
L 328.652608 141.81281 
L 328.759765 141.742438 
L 328.763207 141.742438 
L 328.87306 141.632741 
L 328.97719 141.514764 
L 329.103671 141.413346 
L 329.230319 141.299509 
L 329.341665 141.090464 
L 329.432566 140.993185 
L 329.432566 140.989045 
L 329.542709 140.703419 
L 329.543662 140.703419 
L 329.610677 140.626837 
L 329.811369 140.380536 
L 329.932605 140.270839 
L 330.025641 140.196327 
L 330.041379 140.196327 
L 330.101924 140.085595 
L 330.216816 139.931398 
L 330.308111 139.821701 
L 330.417134 139.782375 
L 330.419124 139.782375 
L 330.484812 139.677853 
L 330.614093 139.565051 
L 330.844394 139.455353 
L 330.953562 139.31668 
L 330.955491 139.31668 
L 331.086493 139.205947 
L 331.199455 138.981379 
L 331.247519 138.871681 
L 331.358532 138.755775 
L 331.545995 138.645043 
L 331.661425 138.519822 
L 331.777975 138.410125 
L 331.900538 138.167963 
L 331.995296 138.058266 
L 332.105356 137.946499 
L 332.106206 137.946499 
L 332.254936 137.836801 
L 332.336341 137.733313 
L 332.359087 137.733313 
L 332.462574 137.623616 
L 332.548789 137.528407 
L 332.554035 137.528407 
L 332.740793 137.406291 
L 332.850728 137.24692 
L 332.851889 137.24692 
L 332.937233 137.137223 
L 332.937233 137.136188 
L 333.059112 136.866084 
L 333.153248 136.756387 
L 333.247715 136.654969 
L 333.251945 136.654969 
L 333.439968 136.545271 
L 333.544803 136.435574 
L 333.546171 136.435574 
L 333.653992 136.325877 
L 333.763471 136.164436 
L 333.765047 136.164436 
L 333.880436 136.053703 
L 333.997857 135.893297 
L 334.132508 135.7836 
L 334.241697 135.651135 
L 334.243605 135.651135 
L 334.318913 135.541438 
L 334.414583 135.423462 
L 334.424805 135.423462 
L 334.526426 135.313764 
L 334.526426 135.31273 
L 334.715341 135.028138 
L 334.935979 134.917405 
L 335.056116 134.877045 
L 335.149132 134.767348 
L 335.252059 134.645232 
L 335.258383 134.645232 
L 335.310946 134.535535 
L 335.418642 134.40514 
L 335.421503 134.40514 
L 335.570047 134.295443 
L 335.680957 134.223001 
L 335.804267 134.113304 
L 335.902072 134.051211 
L 335.914492 134.051211 
L 336.013646 133.941514 
L 336.122047 133.840096 
L 336.122835 133.840096 
L 336.241272 133.730398 
L 336.35129 133.622771 
L 336.352223 133.622771 
L 336.417849 133.527562 
L 336.417849 133.512039 
L 336.528946 133.397167 
L 336.6524 133.28747 
L 336.759723 133.20261 
L 336.762854 133.20261 
L 336.840589 133.092912 
L 336.951602 132.846611 
L 336.951644 132.846611 
L 337.086751 132.742088 
L 337.199134 132.670681 
L 337.336667 132.560984 
L 337.452284 132.411961 
L 337.574142 132.302264 
L 337.683995 132.16359 
L 337.685239 132.16359 
L 337.912782 132.053893 
L 338.019731 131.923498 
L 338.020685 131.923498 
L 338.10831 131.813801 
L 338.10831 131.812766 
L 338.216214 131.706173 
L 338.381801 131.596476 
L 338.4924 131.461942 
L 338.492898 131.461942 
L 338.6143 131.368802 
L 338.807859 131.108013 
L 338.888061 130.998316 
L 338.995425 130.851363 
L 338.999157 130.851363 
L 339.08981 130.741665 
L 339.196199 130.574015 
L 339.690453 130.203528 
L 339.84754 130.093831 
L 339.936699 130.007936 
L 339.949596 130.007936 
L 340.191322 129.897203 
L 340.315149 129.775088 
L 340.369018 129.66539 
L 340.479203 129.553623 
L 340.480115 129.553623 
L 340.563676 129.443926 
L 340.663866 129.359066 
L 340.671185 129.359066 
L 340.793375 129.251438 
L 340.793375 129.249369 
L 340.903808 129.127253 
L 340.904472 129.127253 
L 341.020939 129.017556 
L 341.24701 128.777463 
L 341.357982 128.709161 
L 341.358106 128.709161 
L 341.473329 128.601534 
L 341.585048 128.456651 
L 341.707445 128.346953 
L 341.816178 128.224838 
L 341.818438 128.224838 
L 341.899822 128.11514 
L 342.016351 127.988885 
L 342.102774 127.879188 
L 342.213497 127.726025 
L 342.21387 127.726025 
L 342.349393 127.616328 
L 342.428682 127.483864 
L 342.442927 127.483864 
L 342.572332 127.374166 
L 342.678453 127.221004 
L 342.683408 127.221004 
L 342.806075 127.08026 
L 342.941867 126.918819 
L 343.022712 126.875354 
L 343.040232 126.875354 
L 343.21287 126.764622 
L 343.436971 126.519356 
L 343.542925 126.388961 
L 343.547217 126.388961 
L 343.688649 126.279263 
L 343.799456 126.233729 
L 343.799746 126.233729 
L 343.928135 126.125066 
L 343.928135 126.124032 
L 344.03438 125.956381 
L 344.03691 125.956381 
L 344.332981 125.846684 
L 344.443103 125.751475 
L 344.444057 125.751475 
L 344.741393 125.641778 
L 344.741393 125.640743 
L 344.8556 125.465848 
L 345.042358 125.27543 
L 345.123555 125.172977 
L 345.234154 124.973245 
L 345.36441 124.84285 
L 345.474781 124.697967 
L 345.693449 124.573782 
L 345.799175 124.45891 
L 345.947035 124.348178 
L 346.041171 124.281945 
L 346.054358 124.281945 
L 346.277505 124.174318 
L 346.277505 124.171213 
L 346.382381 124.037714 
L 346.385346 124.037714 
L 346.593502 123.926982 
L 346.705408 123.870063 
L 346.844144 123.759331 
L 347.011058 123.583402 
L 347.260228 123.472669 
L 347.407735 123.273972 
L 347.564883 123.135299 
L 347.675171 123.024566 
L 347.781437 122.913834 
L 347.893114 122.853811 
L 347.96581 122.744114 
L 348.069007 122.638556 
L 348.075248 122.638556 
L 348.156818 122.528859 
L 348.266961 122.425371 
L 348.267853 122.425371 
L 348.363585 122.319813 
L 348.363585 122.316709 
L 348.473065 122.199767 
L 348.474101 122.199767 
L 348.600168 122.089035 
L 349.914813 120.651587 
L 350.05753 120.540855 
L 350.167134 120.407355 
L 350.290796 120.297658 
L 350.390571 120.202449 
L 350.400711 120.202449 
L 350.587717 120.092752 
L 350.695413 120.049287 
L 350.697653 120.049287 
L 350.905166 119.918892 
L 351.016449 119.847485 
L 351.168497 119.705707 
L 351.277976 119.618777 
L 351.353948 119.50908 
L 351.456399 119.387999 
L 351.582943 119.277267 
L 351.682801 119.155151 
L 351.693957 119.155151 
L 351.767088 119.045454 
L 352.313967 118.56113 
L 352.421787 118.407968 
L 352.425043 118.407968 
L 352.546942 118.29827 
L 352.634132 118.234108 
L 352.768223 118.12441 
L 352.877537 118.002295 
L 352.879216 118.002295 
L 352.957739 117.891562 
L 353.068379 117.818086 
L 353.068794 117.818086 
L 353.141282 117.708389 
L 353.251467 117.555227 
L 353.251923 117.555227 
L 353.400425 117.445529 
L 353.481726 117.384471 
L 353.633774 117.259251 
L 353.740765 117.048135 
L 353.74259 117.048135 
L 353.971501 116.828741 
L 354.082142 116.758369 
L 354.082598 116.758369 
L 354.151354 116.648672 
L 354.264773 116.532765 
L 354.367701 116.423068 
L 354.477512 116.31958 
L 354.47832 116.31958 
L 354.582181 116.209883 
L 354.779409 115.97186 
L 354.888267 115.864233 
L 354.890423 115.864233 
L 354.970791 115.754536 
L 355.079607 115.615862 
L 355.080955 115.615862 
L 355.166859 115.506164 
L 355.272025 115.423374 
L 355.272191 115.423374 
L 355.52304 115.313677 
L 355.63368 115.19984 
L 355.634137 115.19984 
L 355.70903 115.090143 
L 355.818593 115.015631 
L 355.820003 115.015631 
L 355.912397 114.905934 
L 356.021171 114.790028 
L 356.023493 114.790028 
L 356.148856 114.68033 
L 356.254686 114.564424 
L 356.259932 114.564424 
L 356.333892 114.454727 
L 356.441837 114.382285 
L 356.571264 114.272588 
L 356.680328 114.100798 
L 356.682277 114.100798 
L 356.799719 113.9911 
L 356.899412 113.951775 
L 356.905673 113.951775 
L 357.114348 113.82345 
L 357.224449 113.684776 
L 357.225299 113.684776 
L 357.36333 113.575079 
L 357.472126 113.496428 
L 357.573829 113.386731 
L 357.681692 113.21908 
L 357.684885 113.21908 
L 357.79905 113.128011 
L 357.928186 113.018313 
L 358.031404 112.902407 
L 358.03582 112.902407 
L 358.22432 112.79271 
L 358.329486 112.668524 
L 358.332721 112.668524 
L 358.41989 112.565036 
L 358.41989 112.558827 
L 358.530634 112.382897 
L 358.530986 112.382897 
L 358.61687 112.2732 
L 358.727137 112.146945 
L 358.727593 112.146945 
L 358.817416 112.039317 
L 358.817416 112.037247 
L 358.928098 111.904783 
L 358.928471 111.904783 
L 359.082074 111.795085 
L 359.190641 111.695737 
L 359.192445 111.695737 
L 359.261429 111.588109 
L 359.364274 111.474273 
L 359.372443 111.474273 
L 359.51402 111.364575 
L 359.624246 111.269366 
L 359.624909 111.269366 
L 359.717158 111.158634 
L 360.022021 110.836787 
L 360.129178 110.72502 
L 360.133118 110.72502 
L 360.250601 110.615322 
L 360.360785 110.513904 
L 360.361511 110.513904 
L 360.498256 110.404207 
L 360.610929 110.362812 
L 360.789496 110.253114 
L 360.890537 110.138243 
L 361.037961 110.015092 
L 361.169606 109.864 
L 361.267225 109.754302 
L 361.368327 109.638396 
L 361.377388 109.638396 
L 361.508701 109.528699 
L 361.618595 109.416932 
L 361.619757 109.416932 
L 361.687932 109.307234 
L 361.798946 109.218235 
L 361.799008 109.218235 
L 361.893165 109.107503 
L 362.003619 109.021607 
L 362.004179 109.021607 
L 362.112455 108.910875 
L 362.205306 108.816701 
L 362.207358 108.816701 
L 362.350407 108.700795 
L 362.457523 108.603516 
L 362.460799 108.603516 
L 362.56356 108.493819 
L 362.669266 108.361354 
L 362.674574 108.361354 
L 362.824362 108.251657 
L 362.931519 108.13782 
L 362.935458 108.13782 
L 363.074547 108.028123 
L 363.184026 107.934984 
L 363.185602 107.934984 
L 363.341009 107.824252 
L 363.447316 107.71145 
L 363.604859 107.601752 
L 363.714131 107.498264 
L 363.714214 107.498264 
L 364.096852 107.206428 
L 364.206373 107.096731 
L 364.207928 107.096731 
L 364.309591 106.987034 
L 364.422388 106.900104 
L 364.547957 106.790407 
L 364.657105 106.641384 
L 364.657271 106.641384 
L 364.983801 106.401292 
L 365.101616 106.235711 
L 365.206907 106.126014 
L 365.315889 106.012177 
L 365.317838 106.012177 
L 365.417282 105.90248 
L 365.526595 105.788643 
L 365.651874 105.678946 
L 365.732284 105.596155 
L 365.732325 105.596155 
L 365.898203 105.478179 
L 366.000529 105.358133 
L 366.009092 105.358133 
L 366.107375 105.248436 
L 366.214657 105.130459 
L 366.218057 105.130459 
L 366.326997 105.020762 
L 366.436186 104.933832 
L 366.437804 104.933832 
L 366.48736 104.824135 
L 366.601567 104.664763 
L 366.685335 104.555066 
L 366.795602 104.445369 
L 366.796432 104.445369 
L 366.861228 104.335672 
L 366.861228 104.334637 
L 366.978192 104.240463 
L 367.151535 104.130765 
L 367.257863 104.025208 
L 367.261947 104.025208 
L 367.380737 103.91758 
L 367.461021 103.824441 
L 367.483353 103.824441 
L 367.555406 103.714744 
L 367.665632 103.574 
L 367.666503 103.574 
L 367.736171 103.464303 
L 367.845423 103.398071 
L 367.847227 103.398071 
L 367.922535 103.288373 
L 368.025504 103.112444 
L 368.033632 103.112444 
L 368.157045 103.002746 
L 368.264368 102.870282 
L 368.2681 102.870282 
L 368.442832 102.75955 
L 368.560501 102.652957 
L 368.690757 102.54326 
L 368.690757 102.542225 
L 368.806374 102.429423 
L 368.904366 102.319726 
L 369.015421 102.174843 
L 369.015463 102.174843 
L 369.055585 102.065145 
L 369.175037 101.928541 
L 369.305417 101.818844 
L 369.305417 101.817809 
L 369.420827 101.711216 
L 369.584673 101.601519 
L 369.584673 101.600484 
L 369.675014 101.479403 
L 369.822376 101.369706 
L 369.90432 101.270358 
L 369.932063 101.270358 
L 370.061199 101.16066 
L 370.172212 101.017847 
L 370.172295 101.017847 
L 370.288824 100.90815 
L 370.39565 100.754987 
L 370.399859 100.754987 
L 370.485929 100.64529 
L 370.594454 100.409338 
L 370.596984 100.409338 
L 370.690871 100.29964 
L 370.800143 100.237548 
L 370.801926 100.237548 
L 370.918953 100.126815 
L 371.021507 100.038851 
L 371.022772 100.038851 
L 371.198747 99.86913 
L 371.307833 99.591783 
L 371.54875 99.415853 
L 371.656612 99.277179 
L 371.659846 99.277179 
L 371.802419 99.167482 
L 371.909327 99.080552 
L 371.913515 99.080552 
L 371.976176 98.972924 
L 372.713192 98.23816 
L 372.857485 98.128462 
L 372.931383 98.035323 
L 372.931466 98.035323 
L 373.072089 97.917347 
L 373.147854 97.849045 
L 373.167469 97.849045 
L 373.311928 97.731069 
L 373.421781 97.646208 
L 373.517554 97.536511 
L 373.625997 97.453721 
L 373.628651 97.453721 
L 373.726519 97.344024 
L 373.837014 97.20121 
L 373.837616 97.20121 
L 373.960904 97.091513 
L 373.960904 97.090478 
L 374.077413 96.956978 
L 374.272216 96.849351 
L 374.379663 96.723096 
L 374.383105 96.723096 
L 374.507576 96.613398 
L 374.507576 96.612363 
L 374.621015 96.495422 
L 374.695536 96.385725 
L 374.802817 96.2574 
L 374.806633 96.2574 
L 374.884098 96.147702 
L 374.995111 96.062842 
L 375.126694 95.953145 
L 375.237749 95.799983 
L 375.237791 95.799983 
L 375.409267 95.694425 
L 375.409267 95.690286 
L 375.521442 95.56403 
L 375.669281 95.454333 
L 375.777288 95.332217 
L 375.779382 95.332217 
L 375.888488 95.22252 
L 375.999419 95.081776 
L 375.999564 95.081776 
L 376.119307 94.972079 
L 376.230279 94.889289 
L 376.230404 94.889289 
L 376.406545 94.779591 
L 376.518824 94.651266 
L 376.662765 94.541569 
L 376.773115 94.477406 
L 376.773861 94.477406 
L 376.86356 94.366674 
L 376.969722 94.251803 
L 376.974656 94.251803 
L 377.107068 94.142105 
L 377.205206 94.086222 
L 377.419334 93.976525 
L 377.498872 93.883385 
L 377.508078 93.883385 
L 377.658322 93.773688 
L 377.765479 93.655712 
L 377.769377 93.655712 
L 377.881262 93.549119 
L 377.993064 93.382504 
L 378.141234 93.272806 
L 378.247769 93.148621 
L 378.252103 93.148621 
L 378.428783 93.040993 
L 378.617324 92.878517 
L 378.72896 92.753297 
L 378.88503 92.643599 
L 378.962993 92.529763 
L 378.972531 92.529763 
L 379.28123 92.420065 
L 379.28123 92.41903 
L 379.393799 92.320717 
L 379.492309 92.21102 
L 379.492309 92.209985 
L 379.608859 92.043369 
L 379.745045 91.933672 
L 380.185285 91.525929 
L 380.2969 91.420371 
L 380.398085 91.310674 
L 380.508726 91.232023 
L 380.508954 91.232023 
L 380.629257 91.122326 
L 380.629257 91.121291 
L 380.742966 90.989861 
L 380.874777 90.880164 
L 380.984878 90.733211 
L 380.985874 90.733211 
L 381.101408 90.623514 
L 381.21238 90.495189 
L 381.212504 90.495189 
L 381.384561 90.385492 
L 381.475379 90.288213 
L 381.487841 90.288213 
L 381.724694 90.178516 
L 381.922544 90.031563 
L 382.058523 89.920831 
L 382.169785 89.909447 
L 382.307049 89.79975 
L 382.416695 89.690052 
L 382.418146 89.690052 
L 382.547054 89.57932 
L 382.646083 89.472728 
L 382.798048 89.346472 
L 382.909041 89.236775 
L 382.909103 89.236775 
L 383.066646 89.127078 
L 383.176125 89.01945 
L 383.177722 89.01945 
L 383.284734 88.909753 
L 383.392388 88.76487 
L 383.395789 88.76487 
L 383.530025 88.655172 
L 383.706416 88.468894 
L 383.818777 88.359197 
L 383.887347 88.265023 
L 383.915443 88.265023 
L 384.035207 88.149116 
L 384.15016 88.052872 
L 384.278466 87.943175 
L 384.38892 87.81692 
L 384.389563 87.81692 
L 384.518118 87.707223 
L 384.622539 87.587177 
L 384.629132 87.587177 
L 384.74985 87.477479 
L 384.857297 87.38848 
L 384.860864 87.38848 
L 385.040675 87.278782 
L 385.040675 87.277747 
L 385.154115 87.156666 
L 385.23666 87.045934 
L 385.347135 86.978667 
L 385.347757 86.978667 
L 385.447449 86.86897 
L 385.542497 86.758238 
L 385.834608 86.529529 
L 385.94359 86.399134 
L 385.945705 86.399134 
L 386.068206 86.289437 
L 386.17783 86.156973 
L 386.179054 86.156973 
L 386.267964 86.04624 
L 386.378231 85.894113 
L 386.379061 85.894113 
L 386.520223 85.784416 
L 386.626343 85.658161 
L 386.63132 85.658161 
L 386.724087 85.548463 
L 386.834147 85.399441 
L 386.834686 85.399441 
L 386.938857 85.289743 
L 387.04419 85.219371 
L 387.049954 85.219371 
L 387.179297 85.109674 
L 387.286993 85.006186 
L 387.289295 85.006186 
L 388.407042 83.789168 
L 388.491308 83.67947 
L 388.600207 83.526308 
L 388.602073 83.526308 
L 388.742074 83.416611 
L 388.852735 83.296565 
L 388.85315 83.296565 
L 388.975506 83.186867 
L 389.085151 83.062682 
L 389.086146 83.062682 
L 389.182936 82.952985 
L 389.292664 82.882613 
L 389.293991 82.882613 
L 389.43449 82.772916 
L 389.544757 82.665288 
L 389.545545 82.665288 
L 389.673561 82.555591 
L 389.776945 82.423126 
L 389.784658 82.423126 
L 389.939754 82.313429 
L 390.048653 82.187174 
L 390.05083 82.187174 
L 390.154192 82.077476 
L 390.264294 81.976058 
L 390.265206 81.976058 
L 390.40359 81.866361 
L 390.514521 81.725617 
L 390.514686 81.725617 
L 390.647264 81.61592 
L 390.746086 81.508292 
L 390.883723 81.398595 
L 390.994073 81.299247 
L 390.99482 81.299247 
L 391.082652 81.189549 
L 391.192837 81.086061 
L 391.193749 81.086061 
L 391.282908 80.976364 
L 391.395332 80.825272 
L 391.489385 80.715574 
L 391.599154 80.591389 
L 391.60044 80.591389 
L 391.713154 80.481692 
L 391.713154 80.480657 
L 391.830243 80.332669 
L 391.933315 80.222972 
L 392.045283 80.127763 
L 392.153809 80.018065 
L 392.264408 79.905264 
L 393.437475 78.700663 
L 393.589938 78.565094 
L 393.70062 78.455397 
L 393.701034 78.455397 
L 393.812297 78.3457 
L 393.921113 78.202886 
L 393.923394 78.202886 
L 394.020183 78.093189 
L 394.1307 77.973143 
L 394.13128 77.973143 
L 394.227095 77.863446 
L 394.336761 77.745469 
L 394.337923 77.745469 
L 394.453498 77.635772 
L 394.563185 77.526075 
L 394.564595 77.526075 
L 394.67001 77.418447 
L 394.67001 77.416378 
L 394.779738 77.283913 
L 394.781107 77.283913 
L 394.905515 77.174216 
L 395.014953 77.058309 
L 395.016612 77.058309 
L 395.136334 76.948612 
L 395.247389 76.851333 
L 395.354236 76.740601 
L 395.468919 76.613311 
L 395.570416 76.502579 
L 395.694181 76.348382 
L 395.791884 76.238684 
L 395.791884 76.237649 
L 395.909346 76.079313 
L 396.042442 75.969616 
L 396.152419 75.864058 
L 396.153539 75.864058 
L 396.247965 75.754361 
L 396.349938 75.67157 
L 396.358916 75.67157 
L 396.462113 75.561873 
L 396.572795 75.41699 
L 396.57321 75.41699 
L 396.684306 75.307292 
L 396.794159 75.226572 
L 396.795403 75.226572 
L 396.900984 75.116875 
L 397.007976 74.969922 
L 397.011977 74.969922 
L 397.116211 74.85919 
L 397.224446 74.762946 
L 397.227266 74.762946 
L 397.315679 74.652214 
L 397.426568 74.543551 
L 397.426651 74.543551 
L 397.510047 74.433854 
L 397.620314 74.357273 
L 397.62104 74.357273 
L 397.709556 74.249645 
L 397.820404 74.117181 
L 397.820632 74.117181 
L 397.969901 74.007483 
L 398.07822 73.897786 
L 398.080998 73.897786 
L 398.188487 73.787054 
L 398.296598 73.659764 
L 398.299501 73.659764 
L 398.451279 73.550067 
L 398.55657 73.442439 
L 398.56221 73.442439 
L 398.66692 73.332742 
L 398.777975 73.218905 
L 398.862532 73.109208 
L 398.972094 73.022278 
L 398.973628 73.022278 
L 399.067432 72.912581 
L 399.173926 72.794604 
L 399.178052 72.794604 
L 399.27196 72.684907 
L 399.384342 72.556582 
L 399.534876 72.44585 
L 399.642241 72.362024 
L 399.645973 72.362024 
L 399.75284 72.252327 
L 399.863646 72.128142 
L 399.863936 72.128142 
L 399.996929 72.018444 
L 400.107943 71.908747 
L 400.107984 71.908747 
L 400.206142 71.79905 
L 400.312014 71.643818 
L 400.317218 71.643818 
L 400.412619 71.534121 
L 400.494521 71.434772 
L 400.496014 71.434772 
L 400.663053 71.325075 
L 400.714102 71.262982 
L 400.765752 71.262982 
L 400.868451 71.15225 
L 400.979216 71.014611 
L 400.979403 71.014611 
L 401.1035 70.904914 
L 401.211362 70.799356 
L 401.214597 70.799356 
L 401.357915 70.689659 
L 401.467499 70.584101 
L 401.468846 70.584101 
L 401.575713 70.474404 
L 401.688137 70.3378 
L 401.850117 70.228102 
L 401.959451 70.130824 
L 401.961213 70.130824 
L 402.049253 70.021126 
L 402.1567 69.90315 
L 402.160267 69.90315 
L 402.329462 69.793453 
L 402.43861 69.687895 
L 402.440517 69.687895 
L 402.529138 69.578198 
L 402.626466 69.445733 
L 402.627586 69.445733 
L 402.755602 69.336036 
L 402.869478 69.197362 
L 402.974727 69.087665 
L 403.08487 68.990386 
L 403.085782 68.990386 
L 403.177036 68.879654 
L 403.286495 68.752364 
L 403.287946 68.752364 
L 403.415838 68.642666 
L 403.526022 68.493644 
L 403.526935 68.493644 
L 403.679915 68.383946 
L 403.790722 68.251482 
L 403.791012 68.251482 
L 403.917784 68.141785 
L 404.028591 68.003111 
L 404.028881 68.003111 
L 404.135167 67.893413 
L 404.246015 67.740251 
L 404.246264 67.740251 
L 404.332811 67.630554 
L 404.44229 67.518787 
L 404.443907 67.518787 
L 404.559068 67.40909 
L 404.669999 67.255927 
L 404.67004 67.255927 
L 404.756919 67.14623 
L 404.756919 67.145195 
L 404.870545 67.015835 
L 404.977536 66.906138 
L 405.091121 66.775743 
L 405.180405 66.666046 
L 405.290133 66.558418 
L 405.291502 66.558418 
L 405.376431 66.448721 
L 405.487155 66.322466 
L 405.487507 66.322466 
L 405.582203 66.212769 
L 405.692843 66.11342 
L 405.693258 66.11342 
L 405.804438 66.003723 
L 405.914912 65.887816 
L 405.915534 65.887816 
L 406.001708 65.777084 
L 406.108326 65.668422 
L 406.112805 65.668422 
L 406.193753 65.558724 
L 406.304331 65.407632 
L 406.30485 65.407632 
L 406.38866 65.297935 
L 406.499051 65.177889 
L 406.499756 65.177889 
L 406.625036 65.068191 
L 406.735883 64.921239 
L 406.736008 64.921239 
L 406.823674 64.811541 
L 406.934439 64.672867 
L 406.934729 64.672867 
L 407.034132 64.56317 
L 407.141123 64.428636 
L 407.145187 64.428636 
L 407.247783 64.318938 
L 407.358299 64.140939 
L 407.358879 64.140939 
L 407.445136 64.031242 
L 407.557518 63.900847 
L 407.648709 63.79115 
L 407.755452 63.61729 
L 407.759806 63.61729 
L 407.85672 63.507593 
L 407.966324 63.377198 
L 407.967817 63.377198 
L 408.070827 63.267501 
L 408.178689 63.190919 
L 408.18126 63.190919 
L 408.289744 63.081222 
L 408.396279 62.969455 
L 408.40082 62.969455 
L 408.494023 62.859758 
L 408.602134 62.725224 
L 408.604995 62.725224 
L 408.702822 62.615526 
L 408.702822 62.614491 
L 408.81595 62.565852 
L 408.896982 62.456155 
L 409.005466 62.338178 
L 409.006461 62.338178 
L 409.0702 62.228481 
L 409.176445 62.131203 
L 409.181255 62.131203 
L 409.252209 62.021505 
L 409.363099 61.878692 
L 409.473324 61.768995 
L 409.583177 61.588925 
L 409.584338 61.588925 
L 409.660518 61.479228 
L 409.771158 61.272252 
L 409.771283 61.272252 
L 409.843979 61.162555 
L 409.954951 61.007323 
L 409.955075 61.007323 
L 410.031628 60.897626 
L 410.140776 60.742394 
L 410.142683 60.742394 
L 410.227447 60.632697 
L 410.33676 60.496092 
L 410.338502 60.496092 
L 410.432016 60.386395 
L 410.539463 60.245651 
L 410.543071 60.245651 
L 410.640731 60.135954 
L 410.750211 59.974513 
L 410.751787 59.974513 
L 410.833067 59.864816 
L 410.93956 59.777886 
L 410.944164 59.777886 
L 411.034899 59.668189 
L 411.141807 59.500538 
L 411.145995 59.500538 
L 411.240753 59.390841 
L 411.336838 59.260446 
L 411.351808 59.260446 
L 411.44188 59.150749 
L 411.552686 58.96861 
L 411.552977 58.96861 
L 411.642592 58.858912 
L 411.750579 58.722308 
L 411.753689 58.722308 
L 411.825348 58.612611 
L 411.932879 58.44703 
L 411.936072 58.44703 
L 412.010302 58.337333 
L 412.120403 58.165543 
L 412.121399 58.165543 
L 412.193514 58.055846 
L 412.303118 57.869567 
L 412.304486 57.869567 
L 412.382242 57.75987 
L 412.491223 57.546685 
L 412.493338 57.546685 
L 412.573499 57.436988 
L 412.684098 57.271407 
L 412.684554 57.271407 
L 412.757872 57.16171 
L 412.868969 57.006478 
L 412.921801 56.89678 
L 413.032815 56.714641 
L 413.115256 56.604944 
L 413.225772 56.435224 
L 413.226353 56.435224 
L 413.293243 56.325527 
L 413.373777 56.197202 
L 413.400276 56.197202 
L 413.463392 56.087504 
L 413.570342 55.932272 
L 413.574489 55.932272 
L 413.622884 55.822575 
L 413.733566 55.654925 
L 413.733773 55.654925 
L 413.79154 55.545227 
L 413.902637 55.354809 
L 413.969693 55.245112 
L 414.07967 55.065043 
L 414.08079 55.065043 
L 414.13611 54.955346 
L 414.246045 54.7463 
L 414.247207 54.7463 
L 414.31107 54.636603 
L 414.42059 54.497929 
L 414.422166 54.497929 
L 414.491835 54.388232 
L 414.598246 54.22886 
L 414.602807 54.22886 
L 414.72 54.144 
L 414.72 54.144 
" clip-path="url(#pe974744fd8)" style="fill: none; stroke: #ff8c00; stroke-width: 1.5; stroke-linecap: square"/>
   </g>
   <g id="line2d_14">
    <path d="M 74.605714 307.584 
L 414.72 54.144 
" clip-path="url(#pe974744fd8)" style="fill: none; stroke-dasharray: 5.55,2.4; stroke-dashoffset: 0; stroke: #0000ff; stroke-width: 1.5"/>
   </g>
   <g id="patch_3">
    <path d="M 57.6 307.584 
L 57.6 41.472 
" style="fill: none; stroke: #000000; stroke-width: 0.8; stroke-linejoin: miter; stroke-linecap: square"/>
   </g>
   <g id="patch_4">
    <path d="M 414.72 307.584 
L 414.72 41.472 
" style="fill: none; stroke: #000000; stroke-width: 0.8; stroke-linejoin: miter; stroke-linecap: square"/>
   </g>
   <g id="patch_5">
    <path d="M 57.6 307.584 
L 414.72 307.584 
" style="fill: none; stroke: #000000; stroke-width: 0.8; stroke-linejoin: miter; stroke-linecap: square"/>
   </g>
   <g id="patch_6">
    <path d="M 57.6 41.472 
L 414.72 41.472 
" style="fill: none; stroke: #000000; stroke-width: 0.8; stroke-linejoin: miter; stroke-linecap: square"/>
   </g>
   <g id="text_15">
    <!-- ROC CURVE -->
    <g transform="translate(200.855625 35.472)scale(0.12 -0.12)">
     <defs>
      <path id="DejaVuSans-4f" d="M 2522 4238 
Q 1834 4238 1429 3725 
Q 1025 3213 1025 2328 
Q 1025 1447 1429 934 
Q 1834 422 2522 422 
Q 3209 422 3611 934 
Q 4013 1447 4013 2328 
Q 4013 3213 3611 3725 
Q 3209 4238 2522 4238 
z
M 2522 4750 
Q 3503 4750 4090 4092 
Q 4678 3434 4678 2328 
Q 4678 1225 4090 567 
Q 3503 -91 2522 -91 
Q 1538 -91 948 565 
Q 359 1222 359 2328 
Q 359 3434 948 4092 
Q 1538 4750 2522 4750 
z
" transform="scale(0.015625)"/>
      <path id="DejaVuSans-43" d="M 4122 4306 
L 4122 3641 
Q 3803 3938 3442 4084 
Q 3081 4231 2675 4231 
Q 1875 4231 1450 3742 
Q 1025 3253 1025 2328 
Q 1025 1406 1450 917 
Q 1875 428 2675 428 
Q 3081 428 3442 575 
Q 3803 722 4122 1019 
L 4122 359 
Q 3791 134 3420 21 
Q 3050 -91 2638 -91 
Q 1578 -91 968 557 
Q 359 1206 359 2328 
Q 359 3453 968 4101 
Q 1578 4750 2638 4750 
Q 3056 4750 3426 4639 
Q 3797 4528 4122 4306 
z
" transform="scale(0.015625)"/>
      <path id="DejaVuSans-55" d="M 556 4666 
L 1191 4666 
L 1191 1831 
Q 1191 1081 1462 751 
Q 1734 422 2344 422 
Q 2950 422 3222 751 
Q 3494 1081 3494 1831 
L 3494 4666 
L 4128 4666 
L 4128 1753 
Q 4128 841 3676 375 
Q 3225 -91 2344 -91 
Q 1459 -91 1007 375 
Q 556 841 556 1753 
L 556 4666 
z
" transform="scale(0.015625)"/>
      <path id="DejaVuSans-56" d="M 1831 0 
L 50 4666 
L 709 4666 
L 2188 738 
L 3669 4666 
L 4325 4666 
L 2547 0 
L 1831 0 
z
" transform="scale(0.015625)"/>
      <path id="DejaVuSans-45" d="M 628 4666 
L 3578 4666 
L 3578 4134 
L 1259 4134 
L 1259 2753 
L 3481 2753 
L 3481 2222 
L 1259 2222 
L 1259 531 
L 3634 531 
L 3634 0 
L 628 0 
L 628 4666 
z
" transform="scale(0.015625)"/>
     </defs>
     <use xlink:href="#DejaVuSans-52"/>
     <use xlink:href="#DejaVuSans-4f" x="69.482422"/>
     <use xlink:href="#DejaVuSans-43" x="148.193359"/>
     <use xlink:href="#DejaVuSans-20" x="218.017578"/>
     <use xlink:href="#DejaVuSans-43" x="249.804688"/>
     <use xlink:href="#DejaVuSans-55" x="319.628906"/>
     <use xlink:href="#DejaVuSans-52" x="392.822266"/>
     <use xlink:href="#DejaVuSans-56" x="456.804688"/>
     <use xlink:href="#DejaVuSans-45" x="525.212891"/>
    </g>
   </g>
   <g id="legend_1">
    <g id="patch_7">
     <path d="M 234.97 302.584 
L 407.72 302.584 
Q 409.72 302.584 409.72 300.584 
L 409.72 286.905875 
Q 409.72 284.905875 407.72 284.905875 
L 234.97 284.905875 
Q 232.97 284.905875 232.97 286.905875 
L 232.97 300.584 
Q 232.97 302.584 234.97 302.584 
z
" style="fill: #ffffff; opacity: 0.8; stroke: #cccccc; stroke-linejoin: miter"/>
    </g>
    <g id="line2d_15">
     <path d="M 236.97 293.004312 
L 246.97 293.004312 
L 256.97 293.004312 
" style="fill: none; stroke: #ff8c00; stroke-width: 1.5; stroke-linecap: square"/>
    </g>
    <g id="text_16">
     <!-- ROC curve (ROC AUC=0.40) -->
     <g transform="translate(264.97 296.504312)scale(0.1 -0.1)">
      <defs>
       <path id="DejaVuSans-63" d="M 3122 3366 
L 3122 2828 
Q 2878 2963 2633 3030 
Q 2388 3097 2138 3097 
Q 1578 3097 1268 2742 
Q 959 2388 959 1747 
Q 959 1106 1268 751 
Q 1578 397 2138 397 
Q 2388 397 2633 464 
Q 2878 531 3122 666 
L 3122 134 
Q 2881 22 2623 -34 
Q 2366 -91 2075 -91 
Q 1284 -91 818 406 
Q 353 903 353 1747 
Q 353 2603 823 3093 
Q 1294 3584 2113 3584 
Q 2378 3584 2631 3529 
Q 2884 3475 3122 3366 
z
" transform="scale(0.015625)"/>
       <path id="DejaVuSans-28" d="M 1984 4856 
Q 1566 4138 1362 3434 
Q 1159 2731 1159 2009 
Q 1159 1288 1364 580 
Q 1569 -128 1984 -844 
L 1484 -844 
Q 1016 -109 783 600 
Q 550 1309 550 2009 
Q 550 2706 781 3412 
Q 1013 4119 1484 4856 
L 1984 4856 
z
" transform="scale(0.015625)"/>
       <path id="DejaVuSans-41" d="M 2188 4044 
L 1331 1722 
L 3047 1722 
L 2188 4044 
z
M 1831 4666 
L 2547 4666 
L 4325 0 
L 3669 0 
L 3244 1197 
L 1141 1197 
L 716 0 
L 50 0 
L 1831 4666 
z
" transform="scale(0.015625)"/>
       <path id="DejaVuSans-3d" d="M 678 2906 
L 4684 2906 
L 4684 2381 
L 678 2381 
L 678 2906 
z
M 678 1631 
L 4684 1631 
L 4684 1100 
L 678 1100 
L 678 1631 
z
" transform="scale(0.015625)"/>
       <path id="DejaVuSans-29" d="M 513 4856 
L 1013 4856 
Q 1481 4119 1714 3412 
Q 1947 2706 1947 2009 
Q 1947 1309 1714 600 
Q 1481 -109 1013 -844 
L 513 -844 
Q 928 -128 1133 580 
Q 1338 1288 1338 2009 
Q 1338 2731 1133 3434 
Q 928 4138 513 4856 
z
" transform="scale(0.015625)"/>
      </defs>
      <use xlink:href="#DejaVuSans-52"/>
      <use xlink:href="#DejaVuSans-4f" x="69.482422"/>
      <use xlink:href="#DejaVuSans-43" x="148.193359"/>
      <use xlink:href="#DejaVuSans-20" x="218.017578"/>
      <use xlink:href="#DejaVuSans-63" x="249.804688"/>
      <use xlink:href="#DejaVuSans-75" x="304.785156"/>
      <use xlink:href="#DejaVuSans-72" x="368.164062"/>
      <use xlink:href="#DejaVuSans-76" x="409.277344"/>
      <use xlink:href="#DejaVuSans-65" x="468.457031"/>
      <use xlink:href="#DejaVuSans-20" x="529.980469"/>
      <use xlink:href="#DejaVuSans-28" x="561.767578"/>
      <use xlink:href="#DejaVuSans-52" x="600.78125"/>
      <use xlink:href="#DejaVuSans-4f" x="670.263672"/>
      <use xlink:href="#DejaVuSans-43" x="748.974609"/>
      <use xlink:href="#DejaVuSans-20" x="818.798828"/>
      <use xlink:href="#DejaVuSans-41" x="850.585938"/>
      <use xlink:href="#DejaVuSans-55" x="918.994141"/>
      <use xlink:href="#DejaVuSans-43" x="992.1875"/>
      <use xlink:href="#DejaVuSans-3d" x="1062.011719"/>
      <use xlink:href="#DejaVuSans-30" x="1145.800781"/>
      <use xlink:href="#DejaVuSans-2e" x="1209.423828"/>
      <use xlink:href="#DejaVuSans-34" x="1241.210938"/>
      <use xlink:href="#DejaVuSans-30" x="1304.833984"/>
      <use xlink:href="#DejaVuSans-29" x="1368.457031"/>
     </g>
    </g>
   </g>
  </g>
 </g>
 <defs>
  <clipPath id="pe974744fd8">
   <rect x="57.6" y="41.472" width="357.12" height="266.112"/>
  </clipPath>
 </defs>
</svg>
